<?xml version="1.0" encoding="UTF-8" standalone="no"?>
<!-- Created with Inkscape (http://www.inkscape.org/) -->

<svg
   width="16"
   height="16"
   id="svg2"
   version="1.0"
   xmlns:xlink="http://www.w3.org/1999/xlink"
   xmlns="http://www.w3.org/2000/svg"
   xmlns:svg="http://www.w3.org/2000/svg"
   xmlns:rdf="http://www.w3.org/1999/02/22-rdf-syntax-ns#"
   xmlns:cc="http://creativecommons.org/ns#"
   xmlns:dc="http://purl.org/dc/elements/1.1/">
  <defs>
   <style id="current-color-scheme" type="text/css">
   .ColorScheme-Text { color: #0abdc6; } .ColorScheme-Highlight { color:#5294e2; }
  </style>
  <linearGradient id="arrongin" x1="0%" x2="0%" y1="0%" y2="100%">
   <stop offset="0%" style="stop-color:#dd9b44; stop-opacity:1"/>
   <stop offset="100%" style="stop-color:#ad6c16; stop-opacity:1"/>
  </linearGradient>
  <linearGradient id="aurora" x1="0%" x2="0%" y1="0%" y2="100%">
   <stop offset="0%" style="stop-color:#09D4DF; stop-opacity:1"/>
   <stop offset="100%" style="stop-color:#9269F4; stop-opacity:1"/>
  </linearGradient>
  <linearGradient id="cyberneon" x1="0%" x2="0%" y1="0%" y2="100%">
    <stop offset="0" style="stop-color:#0abdc6; stop-opacity:1"/>
    <stop offset="1" style="stop-color:#ea00d9; stop-opacity:1"/>
  </linearGradient>
  <linearGradient id="fitdance" x1="0%" x2="0%" y1="0%" y2="100%">
   <stop offset="0%" style="stop-color:#1AD6AB; stop-opacity:1"/>
   <stop offset="100%" style="stop-color:#329DB6; stop-opacity:1"/>
  </linearGradient>
  <linearGradient id="oomox" x1="0%" x2="0%" y1="0%" y2="100%">
   <stop offset="0%" style="stop-color:#0abdc6; stop-opacity:1"/>
   <stop offset="100%" style="stop-color:#b800ff; stop-opacity:1"/>
  </linearGradient>
  <linearGradient id="rainblue" x1="0%" x2="0%" y1="0%" y2="100%">
   <stop offset="0%" style="stop-color:#00F260; stop-opacity:1"/>
   <stop offset="100%" style="stop-color:#0575E6; stop-opacity:1"/>
  </linearGradient>
  <linearGradient id="sunrise" x1="0%" x2="0%" y1="0%" y2="100%">
   <stop offset="0%" style="stop-color: #FF8501; stop-opacity:1"/>
   <stop offset="100%" style="stop-color: #FFCB01; stop-opacity:1"/>
  </linearGradient>
  <linearGradient id="telinkrin" x1="0%" x2="0%" y1="0%" y2="100%">
   <stop offset="0%" style="stop-color: #b2ced6; stop-opacity:1"/>
   <stop offset="100%" style="stop-color: #6da5b7; stop-opacity:1"/>
  </linearGradient>
  <linearGradient id="60spsycho" x1="0%" x2="0%" y1="0%" y2="100%">
   <stop offset="0%" style="stop-color: #df5940; stop-opacity:1"/>
   <stop offset="25%" style="stop-color: #d8d15f; stop-opacity:1"/>
   <stop offset="50%" style="stop-color: #e9882a; stop-opacity:1"/>
   <stop offset="100%" style="stop-color: #279362; stop-opacity:1"/>
  </linearGradient>
  <linearGradient id="90ssummer" x1="0%" x2="0%" y1="0%" y2="100%">
   <stop offset="0%" style="stop-color: #f618c7; stop-opacity:1"/>
   <stop offset="20%" style="stop-color: #94ffab; stop-opacity:1"/>
   <stop offset="50%" style="stop-color: #fbfd54; stop-opacity:1"/>
   <stop offset="100%" style="stop-color: #0f83ae; stop-opacity:1"/>
  </linearGradient>
 </defs>
  <metadata
     id="metadata7">
    <rdf:RDF>
      <cc:Work
         rdf:about="">
        <dc:format>image/svg+xml</dc:format>
        <dc:type
           rdf:resource="http://purl.org/dc/dcmitype/StillImage" />
        <dc:creator>
          <cc:Agent>
            <dc:title>dreifacherspass</dc:title>
          </cc:Agent>
        </dc:creator>
        <cc:license
           rdf:resource="http://creativecommons.org/licenses/by-sa/4.0/" />
      </cc:Work>
      <cc:License
         rdf:about="http://creativecommons.org/licenses/by-sa/4.0/">
        <cc:permits
           rdf:resource="http://creativecommons.org/ns#Reproduction" />
        <cc:permits
           rdf:resource="http://creativecommons.org/ns#Distribution" />
        <cc:requires
           rdf:resource="http://creativecommons.org/ns#Notice" />
        <cc:requires
           rdf:resource="http://creativecommons.org/ns#Attribution" />
        <cc:permits
           rdf:resource="http://creativecommons.org/ns#DerivativeWorks" />
        <cc:requires
           rdf:resource="http://creativecommons.org/ns#ShareAlike" />
      </cc:License>
    </rdf:RDF>
  </metadata>
  <path
     id="rect11046"
     class="ColorScheme-Text"
     style="fill:url(#oomox);fill-opacity:0.992366;fill-rule:evenodd;stroke-dashoffset:0.7;-inkscape-stroke:none"
     d="M 0.87890625,2.5253906 C 0.39534642,2.5253906 0,2.9226902 0,3.40625 v 9.484375 c 0,0.48356 0.39534642,0.878906 0.87890625,0.878906 H 15.121094 C 15.604653,13.769531 16,13.374185 16,12.890625 V 5.8027344 c -0.119507,0.2595564 -0.264074,0.5068234 -0.431641,0.7382812 v 6.3496094 c 0,0.251473 -0.195794,0.447266 -0.447265,0.447266 H 0.87890625 c -0.2514723,0 -0.44726563,-0.195793 -0.44726563,-0.447266 V 3.40625 c 0,-0.2514722 0.19579333,-0.4472656 0.44726563,-0.4472656 H 7.7460938 C 7.7822232,2.8122976 7.8259011,2.6675737 7.8769531,2.5253906 Z" />
  <path
     id="rect11046-7"
     style="display:inline;opacity:0.5;fill:url(#oomox);fill-rule:evenodd;stroke:none;stroke-width:0.432433;stroke-linecap:butt;stroke-linejoin:miter;stroke-miterlimit:4;stroke-dasharray:none;stroke-dashoffset:0.7;stroke-opacity:0.992366"
     class="ColorScheme-Text"
     d="m 0.87890625,2.7421875 c -0.36751643,0 -0.66210937,0.2965461 -0.66210937,0.6640625 v 9.482422 c 0,0.367516 0.29459294,0.664062 0.66210937,0.664062 H 15.121094 c 0.367516,0 0.662109,-0.296546 0.662109,-0.664062 V 6.2089844 C 14.998932,7.5563254 13.558972,8.3867002 12,8.390625 9.5750377,8.3908352 7.6091648,6.4249623 7.609375,4 7.6098638,3.573947 7.6723681,3.150234 7.7949219,2.7421875 Z" />
  <path
     id="path11052"
     style="display:inline;opacity:0.5;fill:#000000;fill-opacity:1;fill-rule:evenodd;stroke:none;stroke-width:0.389189;stroke-linecap:butt;stroke-linejoin:round;stroke-miterlimit:4;stroke-dasharray:none;stroke-opacity:1"
     d="M 4.7910156,8.9082031 0.43164062,13.345703 4.8242188,9.3066406 C 4.8810776,9.2413977 4.9394257,9.1812445 5,9.125 4.9389101,9.0623669 4.8803511,9.0014451 4.8242188,8.9453125 Z m 6.4179684,0 -0.0332,0.037109 c -0.05998,0.059981 -0.121744,0.1263722 -0.1875,0.1933594 0.06336,0.052515 0.125931,0.1086407 0.1875,0.1679687 l 4.392578,4.0390624 z" />
  <path
     id="path11054"
     style="display:inline;fill:url(#oomox);fill-opacity:0.6;fill-rule:evenodd;stroke:none;stroke-width:0.9;stroke-linecap:butt;stroke-linejoin:round;stroke-miterlimit:4;stroke-dasharray:none;stroke-opacity:1"
     class="ColorScheme-Text"
     d="m -42.093994,12.941832 c -0.549277,0 -0.966553,0.417274 -0.966553,0.966552 v 1.40918 l 10.87146,10.87146 c 0.527222,0.527223 0.811589,0.934252 1.657593,1.273682 0.846004,0.339428 2.296822,0.596191 5.031494,0.596191 2.72321,10e-7 4.173003,-0.256409 5.022461,-0.596191 0.849457,-0.339784 1.140585,-0.747642 1.666626,-1.273682 l 0.799438,-0.799439 c -4.846868,-0.853448 -8.383638,-5.060263 -8.391845,-9.981689 0.0069,-0.832243 0.116126,-1.660479 0.325195,-2.466064 z"
     transform="matrix(0.43243243,0,0,0.43243243,19.027027,-2.6628739)" />
  <path
     id="path11056"
     style="display:inline;opacity:0.5;fill:#000000;fill-opacity:1;fill-rule:evenodd;stroke:none;stroke-width:0.389;stroke-linecap:butt;stroke-linejoin:round;stroke-miterlimit:4;stroke-dasharray:none;stroke-opacity:1"
     d="m 0.43164062,4.0390625 4.39257818,4.90625 C 5.0271906,9.1482848 5.2284737,9.4142838 5.6757812,9.59375 6.1230889,9.7732162 6.7929266,9.8769531 8,9.8769531 c 1.202218,4e-7 1.8759822,-0.1039085 2.324219,-0.2832031 0.448234,-0.1792945 0.648014,-0.4448905 0.851562,-0.6484375 l 0.515625,-0.5761719 c -0.114923,-0.00526 -0.229595,-0.015031 -0.34375,-0.029297 L 11.175781,8.5136719 C 10.291886,9.3653873 9.2218379,9.4954343 8,9.4453125 6.845039,9.4238898 5.6369518,9.446246 4.8242188,8.5136719 Z" />
  <path
     id="path2388"
     class="ColorScheme-Text"
     style="display:inline;fill:url(#oomox);fill-opacity:1;fill-rule:evenodd;stroke:none;stroke-width:0.420224px;stroke-linecap:butt;stroke-linejoin:miter;stroke-opacity:1"
     d="M 12.105374,0.413 A 3.5053745,3.5053745 0 0 0 8.6,3.918374 3.5053745,3.5053745 0 0 0 12.105374,7.4237481 3.5053745,3.5053745 0 0 0 15.610748,3.918374 3.5053745,3.5053745 0 0 0 12.105374,0.413 Z m 0.06162,1.1964142 c 0.273462,-1.893e-4 0.583111,1.0940255 0.804457,1.254609 0.221346,0.1605834 1.358201,0.1148235 1.442886,0.3748423 0.08468,0.2600188 -0.860484,0.8917767 -0.944808,1.1519124 -0.08432,0.2601358 0.310128,1.3264979 0.089,1.4873878 C 13.337406,6.0390553 12.443876,5.3353964 12.170415,5.3355858 11.896954,5.335775 11.005359,6.0404605 10.784013,5.8798773 10.562666,5.7192937 10.954277,4.6525085 10.869593,4.3924895 10.784903,4.1324708 9.8387492,3.5024245 9.9230732,3.2422887 10.007393,2.9821528 11.144836,3.0266245 11.365959,2.8657348 11.587082,2.7048451 11.893531,1.6096035 12.166991,1.6094142 Z" />
</svg>
