<?xml version="1.0" encoding="UTF-8" standalone="no"?>
<svg
   height="16"
   viewBox="0 0 42 42"
   width="16"
   version="1.1"
   id="svg2"
   xmlns="http://www.w3.org/2000/svg"
   xmlns:svg="http://www.w3.org/2000/svg"
   xmlns:rdf="http://www.w3.org/1999/02/22-rdf-syntax-ns#"
   xmlns:cc="http://creativecommons.org/ns#"
   xmlns:dc="http://purl.org/dc/elements/1.1/">
  <defs>
   <style id="current-color-scheme" type="text/css">
   .ColorScheme-Text { color: #0abdc6; } .ColorScheme-Highlight { color:#5294e2; }
  </style>
  <linearGradient id="arrongin" x1="0%" x2="0%" y1="0%" y2="100%">
   <stop offset="0%" style="stop-color:#dd9b44; stop-opacity:1"/>
   <stop offset="100%" style="stop-color:#ad6c16; stop-opacity:1"/>
  </linearGradient>
  <linearGradient id="aurora" x1="0%" x2="0%" y1="0%" y2="100%">
   <stop offset="0%" style="stop-color:#09D4DF; stop-opacity:1"/>
   <stop offset="100%" style="stop-color:#9269F4; stop-opacity:1"/>
  </linearGradient>
  <linearGradient id="cyberneon" x1="0%" x2="0%" y1="0%" y2="100%">
    <stop offset="0" style="stop-color:#0abdc6; stop-opacity:1"/>
    <stop offset="1" style="stop-color:#ea00d9; stop-opacity:1"/>
  </linearGradient>
  <linearGradient id="fitdance" x1="0%" x2="0%" y1="0%" y2="100%">
   <stop offset="0%" style="stop-color:#1AD6AB; stop-opacity:1"/>
   <stop offset="100%" style="stop-color:#329DB6; stop-opacity:1"/>
  </linearGradient>
  <linearGradient id="oomox" x1="0%" x2="0%" y1="0%" y2="100%">
   <stop offset="0%" style="stop-color:#0abdc6; stop-opacity:1"/>
   <stop offset="100%" style="stop-color:#b800ff; stop-opacity:1"/>
  </linearGradient>
  <linearGradient id="rainblue" x1="0%" x2="0%" y1="0%" y2="100%">
   <stop offset="0%" style="stop-color:#00F260; stop-opacity:1"/>
   <stop offset="100%" style="stop-color:#0575E6; stop-opacity:1"/>
  </linearGradient>
  <linearGradient id="sunrise" x1="0%" x2="0%" y1="0%" y2="100%">
   <stop offset="0%" style="stop-color: #FF8501; stop-opacity:1"/>
   <stop offset="100%" style="stop-color: #FFCB01; stop-opacity:1"/>
  </linearGradient>
  <linearGradient id="telinkrin" x1="0%" x2="0%" y1="0%" y2="100%">
   <stop offset="0%" style="stop-color: #b2ced6; stop-opacity:1"/>
   <stop offset="100%" style="stop-color: #6da5b7; stop-opacity:1"/>
  </linearGradient>
  <linearGradient id="60spsycho" x1="0%" x2="0%" y1="0%" y2="100%">
   <stop offset="0%" style="stop-color: #df5940; stop-opacity:1"/>
   <stop offset="25%" style="stop-color: #d8d15f; stop-opacity:1"/>
   <stop offset="50%" style="stop-color: #e9882a; stop-opacity:1"/>
   <stop offset="100%" style="stop-color: #279362; stop-opacity:1"/>
  </linearGradient>
  <linearGradient id="90ssummer" x1="0%" x2="0%" y1="0%" y2="100%">
   <stop offset="0%" style="stop-color: #f618c7; stop-opacity:1"/>
   <stop offset="20%" style="stop-color: #94ffab; stop-opacity:1"/>
   <stop offset="50%" style="stop-color: #fbfd54; stop-opacity:1"/>
   <stop offset="100%" style="stop-color: #0f83ae; stop-opacity:1"/>
  </linearGradient>
 </defs>
  <g
     fill-rule="evenodd"
     style="fill:url(#oomox);fill-opacity:1"
     class="ColorScheme-Text"
     id="g2"
     transform="matrix(1.0499657,0,0,1.0499657,-1.0485947,-2.0978404)">
    <path
       style="fill:url(#oomox)"
       d="m 21,15 a 13.013,13.013 0 0 1 5,-1 21.6,21.6 0 0 1 4.5,0.5 A 9.312,9.312 0 0 0 21,6 c -5.794,0 -9.176,4 -9.5,8.5 A 21.858,21.858 0 0 1 16,14 a 12.819,12.819 0 0 1 5,1 z m 3.5,-5 c 1.209,0 2.5,0.866 2.5,2 h -5 c 0,-1.134 1.291,-2 2.5,-2 z m -7,0 c 1.209,0 2.5,0.866 2.5,2 h -5 c 0,-1.134 1.291,-2 2.5,-2 z"
       id="path34" />
    <path
       style="fill:url(#oomox)"
       d="M 7.456,25.759 8.2,24.393 A 1.579,1.579 0 0 0 8.181,22.836 l 0.653,-1.2 c 0.2,0.014 -0.03,-0.113 0.165,-0.14 0.051,-0.217 -0.051,-0.336 0,-0.5 a 3.269,3.269 0 0 0 0,-1.5 7.151,7.151 0 0 1 0,-3 2.366,2.366 0 0 0 -2.378,1.448 2.409,2.409 0 0 0 0.229,2.661 l -0.7,1.278 a 1.779,1.779 0 0 0 -1.317,0.891 l -0.741,1.372 a 1.577,1.577 0 0 0 -0.019,1.487 3.028,3.028 0 0 0 -2.746,1.525 2.648,2.648 0 0 0 0.044,2.631 0.748,0.748 0 0 0 0.981,0.266 0.656,0.656 0 0 0 0.284,-0.92 1.37,1.37 0 0 1 -0.023,-1.361 1.6,1.6 0 0 1 2.079,-0.63 1.408,1.408 0 0 1 0.672,1.95 1.546,1.546 0 0 1 -1.2,0.78 0.688,0.688 0 0 0 -0.636,0.749 0.707,0.707 0 0 0 0.717,0.6 0.789,0.789 0 0 0 0.082,0 2.989,2.989 0 0 0 2.322,-1.513 2.669,2.669 0 0 0 -0.377,-3.084 1.767,1.767 0 0 0 1.184,-0.867 z"
       id="path33"
       class="ColorScheme-Text"/>
    <path
       style="fill:url(#oomox)"
       d="m 15.591,35.824 c -0.019,0.009 -0.936,0.775 -1.458,1.208 a 0.418,0.418 0 0 1 -0.627,-0.111 9.322,9.322 0 0 1 -0.3,-5.974 15.843,15.843 0 0 0 2.894,2.043 c 0.051,1.03 -0.161,2.644 -0.509,2.834 z M 31.973,16 a 8.067,8.067 0 0 0 -8.08,8 v 2.141 A 3.891,3.891 0 0 0 21,29.875 V 35 a 23.166,23.166 0 0 1 -4.174,-1.623 7.857,7.857 0 0 1 -0.027,0.878 3.263,3.263 0 0 1 -0.729,2.074 l -1.794,1.483 A 0.379,0.379 0 0 1 14,38 H 10 C 8.676,38 7.654,36.664 7.347,34.657 A 7.058,7.058 0 0 1 7.581,31.477 3.477,3.477 0 0 1 9.217,29.32 1.868,1.868 0 0 1 10,29 h 1.5 A 8.035,8.035 0 0 1 10,24 11.1,11.1 0 0 1 10.5,21 2.519,2.519 0 0 0 10.5,19.5 13.272,13.272 0 0 1 10,16 c 6.687,-1.936 11,0 11,0 0,0 4.319,-1.955 11,0 M 22,29 h -2 l 0.5,-5 a 2,2 0 1 1 1,0 z"
       id="path1"
       class="ColorScheme-Text"/>
    <path
       d="M 39,28 H 29 v -4 a 3.13,3.13 0 0 1 3,-3 3.087,3.087 0 0 1 3,3 v 1 a 1.034,1.034 0 0 0 1,1 h 1 a 1.034,1.034 0 0 0 1,-1 v -1 a 6,6 0 0 0 -12,0 v 4 h -1 a 2.073,2.073 0 0 0 -2,2 v 6 a 2.073,2.073 0 0 0 2,2 h 14 a 2.073,2.073 0 0 0 2,-2 v -6 a 2.073,2.073 0 0 0 -2,-2 z m -5.391,5.94 a 1.609,1.609 0 0 1 -3.217,0 v -1.876 a 1.609,1.609 0 0 1 3.217,0 z"
       id="path2"
       class="ColorScheme-Text"
       style="fill:url(#oomox)" />
  </g>
  <metadata
     id="metadata2">
    <rdf:RDF>
      <cc:Work
         rdf:about="">
        <dc:creator>
          <cc:Agent>
            <dc:title>dreifacherspass</dc:title>
          </cc:Agent>
        </dc:creator>
        <cc:license
           rdf:resource="http://creativecommons.org/licenses/by-sa/4.0/" />
      </cc:Work>
      <cc:License
         rdf:about="http://creativecommons.org/licenses/by-sa/4.0/">
        <cc:permits
           rdf:resource="http://creativecommons.org/ns#Reproduction" />
        <cc:permits
           rdf:resource="http://creativecommons.org/ns#Distribution" />
        <cc:requires
           rdf:resource="http://creativecommons.org/ns#Notice" />
        <cc:requires
           rdf:resource="http://creativecommons.org/ns#Attribution" />
        <cc:permits
           rdf:resource="http://creativecommons.org/ns#DerivativeWorks" />
        <cc:requires
           rdf:resource="http://creativecommons.org/ns#ShareAlike" />
      </cc:License>
    </rdf:RDF>
  </metadata>
</svg>
