<?xml version="1.0" encoding="UTF-8" standalone="no"?>
<svg
   width="16"
   height="16"
   version="1.1"
   id="svg25"
   xmlns="http://www.w3.org/2000/svg"
   xmlns:svg="http://www.w3.org/2000/svg"
   xmlns:rdf="http://www.w3.org/1999/02/22-rdf-syntax-ns#"
   xmlns:cc="http://creativecommons.org/ns#"
   xmlns:dc="http://purl.org/dc/elements/1.1/">
   <defs>
      <style id="current-color-scheme" type="text/css">
         .ColorScheme-Text { color: #0abdc6; } .ColorScheme-Highlight { color:#5294e2; }
      </style>
      <linearGradient id="arrongin" x1="0%" x2="0%" y1="0%" y2="100%">
         <stop offset="0%" style="stop-color:#dd9b44; stop-opacity:1"/>
         <stop offset="100%" style="stop-color:#ad6c16; stop-opacity:1"/>
      </linearGradient>
      <linearGradient id="aurora" x1="0%" x2="0%" y1="0%" y2="100%">
         <stop offset="0%" style="stop-color:#09D4DF; stop-opacity:1"/>
         <stop offset="100%" style="stop-color:#9269F4; stop-opacity:1"/>
      </linearGradient>
      <linearGradient id="cyberneon" x1="0%" x2="0%" y1="0%" y2="100%">
         <stop offset="0" style="stop-color:#0abdc6; stop-opacity:1"/>
         <stop offset="1" style="stop-color:#ea00d9; stop-opacity:1"/>
      </linearGradient>
      <linearGradient id="fitdance" x1="0%" x2="0%" y1="0%" y2="100%">
         <stop offset="0%" style="stop-color:#1AD6AB; stop-opacity:1"/>
         <stop offset="100%" style="stop-color:#329DB6; stop-opacity:1"/>
      </linearGradient>
      <linearGradient id="oomox" x1="0%" x2="0%" y1="0%" y2="100%">
         <stop offset="0%" style="stop-color:#0abdc6; stop-opacity:1"/>
         <stop offset="100%" style="stop-color:#b800ff; stop-opacity:1"/>
      </linearGradient>
      <linearGradient id="rainblue" x1="0%" x2="0%" y1="0%" y2="100%">
         <stop offset="0%" style="stop-color:#00F260; stop-opacity:1"/>
         <stop offset="100%" style="stop-color:#0575E6; stop-opacity:1"/>
      </linearGradient>
      <linearGradient id="sunrise" x1="0%" x2="0%" y1="0%" y2="100%">
         <stop offset="0%" style="stop-color: #FF8501; stop-opacity:1"/>
         <stop offset="100%" style="stop-color: #FFCB01; stop-opacity:1"/>
      </linearGradient>
      <linearGradient id="telinkrin" x1="0%" x2="0%" y1="0%" y2="100%">
         <stop offset="0%" style="stop-color: #b2ced6; stop-opacity:1"/>
         <stop offset="100%" style="stop-color: #6da5b7; stop-opacity:1"/>
      </linearGradient>
      <linearGradient id="60spsycho" x1="0%" x2="0%" y1="0%" y2="100%">
         <stop offset="0%" style="stop-color: #df5940; stop-opacity:1"/>
         <stop offset="25%" style="stop-color: #d8d15f; stop-opacity:1"/>
         <stop offset="50%" style="stop-color: #e9882a; stop-opacity:1"/>
         <stop offset="100%" style="stop-color: #279362; stop-opacity:1"/>
      </linearGradient>
      <linearGradient id="90ssummer" x1="0%" x2="0%" y1="0%" y2="100%">
         <stop offset="0%" style="stop-color: #f618c7; stop-opacity:1"/>
         <stop offset="20%" style="stop-color: #94ffab; stop-opacity:1"/>
         <stop offset="50%" style="stop-color: #fbfd54; stop-opacity:1"/>
         <stop offset="100%" style="stop-color: #0f83ae; stop-opacity:1"/>
      </linearGradient>
   </defs>
  <path
     id="path24-5"
     style="fill:url(#oomox);stroke-width:1.14286"
     class="ColorScheme-Text"
     d="M 2.2851562,0 C 1.6520141,0 1.1425781,0.50943596 1.1425781,1.1425781 V 14.857422 C 1.1425781,15.490564 1.6520141,16 2.2851562,16 H 6.8125 L 7.6582031,14.361328 9.2734375,11.230469 C 8.8604018,11.356022 8.4316641,11.422437 8,11.427734 H 3.4277344 V 6.8574219 C 3.4272719,4.3320378 5.4746159,2.2846938 8,2.2851562 c 2.525384,-4.626e-4 4.572728,2.0468814 4.572266,4.5722657 -0.006,0.1529343 -0.0197,0.3054701 -0.04102,0.4570312 0.470302,0.089442 0.881698,0.4058461 1.125,0.8652344 l 1.201172,2.3300785 V 1.1425781 C 14.857422,0.50943596 14.347985,0 13.714844,0 Z M 8,4.5722656 C 6.7380707,4.5725737 5.7151518,5.5954926 5.7148438,6.8574219 5.7151519,8.1193512 6.7380707,9.14227 8,9.1425781 9.2619292,9.1422699 10.284848,8.1193511 10.285156,6.8574219 10.284848,5.5954927 9.2619292,4.5725738 8,4.5722656 Z" />
  <path
     fill="url(#oomox)"
     class="ColorScheme-Text"
     d="M 12.227642,8.5333331 A 0.75802239,0.84865095 0 0 0 11.610975,8.9562498 L 10.123474,11.841666 8.6359748,14.727084 A 0.75802239,0.84865095 0 0 0 8.5338915,15.13125 0.75802239,0.84865095 0 0 0 9.2922248,16 h 2.9750002 2.974999 a 0.75802239,0.84865095 0 0 0 0.656251,-1.272916 l -1.4875,-2.885418 -1.487501,-2.8854162 a 0.75802239,0.84865095 0 0 0 -0.620833,-0.4229167 0.75802239,0.84865095 0 0 0 -0.075,0 z m -0.49375,1.0666667 h 1.066666 V 12.8 h -1.066666 z m 0,4.2666662 h 1.066666 v 1.066667 h -1.066666 z"
     id="path25"
     style="stroke-width:1.06667" />
  <metadata
     id="metadata25">
    <rdf:RDF>
      <cc:Work
         rdf:about="">
        <dc:creator>
          <cc:Agent>
            <dc:title>dreifacherspass</dc:title>
          </cc:Agent>
        </dc:creator>
        <cc:license
           rdf:resource="http://creativecommons.org/licenses/by-sa/4.0/" />
      </cc:Work>
      <cc:License
         rdf:about="http://creativecommons.org/licenses/by-sa/4.0/">
        <cc:permits
           rdf:resource="http://creativecommons.org/ns#Reproduction" />
        <cc:permits
           rdf:resource="http://creativecommons.org/ns#Distribution" />
        <cc:requires
           rdf:resource="http://creativecommons.org/ns#Notice" />
        <cc:requires
           rdf:resource="http://creativecommons.org/ns#Attribution" />
        <cc:permits
           rdf:resource="http://creativecommons.org/ns#DerivativeWorks" />
        <cc:requires
           rdf:resource="http://creativecommons.org/ns#ShareAlike" />
      </cc:License>
    </rdf:RDF>
  </metadata>
</svg>
