<?xml version="1.0" encoding="UTF-8" standalone="no"?>
<svg
   width="22"
   height="22"
   version="1.1"
   id="svg65"
   xmlns="http://www.w3.org/2000/svg"
   xmlns:svg="http://www.w3.org/2000/svg"
   xmlns:rdf="http://www.w3.org/1999/02/22-rdf-syntax-ns#"
   xmlns:cc="http://creativecommons.org/ns#"
   xmlns:dc="http://purl.org/dc/elements/1.1/">
  <defs
     id="defs61">
    <style
       id="current-color-scheme"
       type="text/css">
   .ColorScheme-Text { color: #0abdc6; } .ColorScheme-Highlight { color: #1AD6AB; }
  </style>
    <linearGradient
       id="arrongin"
       x1="0"
       x2="0"
       y1="0"
       y2="1">
      <stop
         offset="0%"
         stop-color="#dd9b44"
         stop-opacity="1"
         id="stop3" />
      <stop
         offset="100%"
         stop-color="#ad6c16"
         stop-opacity="1"
         id="stop5" />
    </linearGradient>
    <linearGradient
       id="aurora"
       x1="0"
       x2="0"
       y1="0"
       y2="1">
      <stop
         offset="0%"
         stop-color="#09D4DF"
         stop-opacity="1"
         id="stop8" />
      <stop
         offset="100%"
         stop-color="#9269F4"
         stop-opacity="1"
         id="stop10" />
    </linearGradient>
    <linearGradient
       id="cyberneon"
       x1="0"
       x2="0"
       y1="0"
       y2="1">
      <stop
         offset="0"
         stop-color="#0abdc6"
         stop-opacity="1"
         id="stop13" />
      <stop
         offset="1"
         stop-color="#ea00d9"
         stop-opacity="1"
         id="stop15" />
    </linearGradient>
    <linearGradient
       id="fitdance"
       x1="0"
       x2="0"
       y1="0"
       y2="1">
      <stop
         offset="0%"
         stop-color="#1AD6AB"
         stop-opacity="1"
         id="stop18" />
      <stop
         offset="100%"
         stop-color="#329DB6"
         stop-opacity="1"
         id="stop20" />
    </linearGradient>
    <linearGradient
       id="oomox"
       x1="0"
       x2="0"
       y1="1.0690449"
       y2="16.035675"
       gradientTransform="matrix(1.069045,0,0,0.93541435,3,3)"
       gradientUnits="userSpaceOnUse">
      <stop
         offset="0%"
         stop-color="#0abdc6"
         stop-opacity="1"
         id="stop23" />
      <stop
         offset="100%"
         stop-color="#b800ff"
         stop-opacity="1"
         id="stop25" />
    </linearGradient>
    <linearGradient
       id="rainblue"
       x1="0"
       x2="0"
       y1="0"
       y2="1">
      <stop
         offset="0%"
         stop-color="#00F260"
         stop-opacity="1"
         id="stop28" />
      <stop
         offset="100%"
         stop-color="#0575E6"
         stop-opacity="1"
         id="stop30" />
    </linearGradient>
    <linearGradient
       id="sunrise"
       x1="0"
       x2="0"
       y1="0"
       y2="1">
      <stop
         offset="0%"
         stop-color="#FF8501"
         stop-opacity="1"
         id="stop33" />
      <stop
         offset="100%"
         stop-color="#FFCB01"
         stop-opacity="1"
         id="stop35" />
    </linearGradient>
    <linearGradient
       id="telinkrin"
       x1="0"
       x2="0"
       y1="0"
       y2="1">
      <stop
         offset="0%"
         stop-color="#b2ced6"
         stop-opacity="1"
         id="stop38" />
      <stop
         offset="100%"
         stop-color="#6da5b7"
         stop-opacity="1"
         id="stop40" />
    </linearGradient>
    <linearGradient
       id="60spsycho"
       x1="0"
       x2="0"
       y1="0"
       y2="1">
      <stop
         offset="0%"
         stop-color="#df5940"
         stop-opacity="1"
         id="stop43" />
      <stop
         offset="25%"
         stop-color="#d8d15f"
         stop-opacity="1"
         id="stop45" />
      <stop
         offset="50%"
         stop-color="#e9882a"
         stop-opacity="1"
         id="stop47" />
      <stop
         offset="100%"
         stop-color="#279362"
         stop-opacity="1"
         id="stop49" />
    </linearGradient>
    <linearGradient
       id="90ssummer"
       x1="0"
       x2="0"
       y1="0"
       y2="1">
      <stop
         offset="0%"
         stop-color="#f618c7"
         stop-opacity="1"
         id="stop52" />
      <stop
         offset="20%"
         stop-color="#94ffab"
         stop-opacity="1"
         id="stop54" />
      <stop
         offset="50%"
         stop-color="#fbfd54"
         stop-opacity="1"
         id="stop56" />
      <stop
         offset="100%"
         stop-color="#0f83ae"
         stop-opacity="1"
         id="stop58" />
    </linearGradient>
  </defs>
  <path
     id="path63"
     class="ColorScheme-Text"
     d="M 5,4 C 3.8920011,4 3,4.8920011 3,6 v 10 c 0,1.107999 0.8920011,2 2,2 h 12 c 1.107999,0 2,-0.892001 2,-2 V 6 C 19,4.8920011 18.107999,4 17,4 Z M 5.4296875,6 H 9.4863281 V 7.7675781 H 6.8125 L 6.6777344,9.7011719 c 0.1187979,-0.027625 0.2441789,-0.054407 0.3769531,-0.082031 0.1397623,-0.036832 0.3315879,-0.054687 0.5761719,-0.054687 0.4542274,0 0.860403,0.1135484 1.2167968,0.34375 C 9.2040501,10.138405 9.4828916,10.475982 9.6855469,10.917969 9.8951903,11.359956 10,11.906774 10,12.560547 10,13.628682 9.7492379,14.47095 9.2460938,15.087891 8.7429495,15.695623 7.9970428,16 7.0117188,16 6.6203844,16 6.2517494,15.953409 5.9023438,15.861328 5.5599262,15.769247 5.2585603,15.635891 5,15.460938 v -1.794922 c 0.2585603,0.174953 0.5702118,0.326165 0.9335938,0.455078 0.3633819,0.119705 0.7058905,0.179687 1.0273437,0.179687 0.4682036,0 0.8237754,-0.124429 1.0683594,-0.373047 0.2515721,-0.257825 0.3769531,-0.653432 0.3769531,-1.1875 0,-0.994471 -0.4987466,-1.492187 -1.4980469,-1.492187 -0.1956672,0 -0.3997316,0.02874 -0.609375,0.08398 -0.2096434,0.04604 -0.3836752,0.09068 -0.5234375,0.136719 L 5.1464844,11.027344 Z M 13,6 h 2 c 1.999998,0 2,2 2,2 V 9 H 15 V 8 h -2 v 6 h 2 v -2 h -1 v -1.96875 h 3 v 3.9375 c 0,0 -2e-6,2.03125 -2,2.03125 h -2 c 0,0 -2,-2e-6 -2,-2 V 8 c 0,-1.999998 2,-2 2,-2 z"
     style="fill:url(#oomox);fill-opacity:1" />
  <metadata
     id="metadata1222">
    <rdf:RDF>
      <cc:Work
         rdf:about="">
        <dc:creator>
          <cc:Agent>
            <dc:title>dreifacherspass</dc:title>
          </cc:Agent>
        </dc:creator>
        <cc:license
           rdf:resource="http://creativecommons.org/licenses/by-sa/4.0/" />
      </cc:Work>
      <cc:License
         rdf:about="http://creativecommons.org/licenses/by-sa/4.0/">
        <cc:permits
           rdf:resource="http://creativecommons.org/ns#Reproduction" />
        <cc:permits
           rdf:resource="http://creativecommons.org/ns#Distribution" />
        <cc:requires
           rdf:resource="http://creativecommons.org/ns#Notice" />
        <cc:requires
           rdf:resource="http://creativecommons.org/ns#Attribution" />
        <cc:permits
           rdf:resource="http://creativecommons.org/ns#DerivativeWorks" />
        <cc:requires
           rdf:resource="http://creativecommons.org/ns#ShareAlike" />
      </cc:License>
    </rdf:RDF>
  </metadata>
</svg>
