<?xml version="1.0" encoding="UTF-8" standalone="no"?>

<svg
   height="16"
   width="16"
   version="1.1"
   id="notebook"
   viewBox="0 0 0.9034 0.9034"
   xml:space="preserve"
   xmlns:xlink="http://www.w3.org/1999/xlink"
   xmlns="http://www.w3.org/2000/svg"
   xmlns:svg="http://www.w3.org/2000/svg"
   xmlns:rdf="http://www.w3.org/1999/02/22-rdf-syntax-ns#"
   xmlns:cc="http://creativecommons.org/ns#"
   xmlns:dc="http://purl.org/dc/elements/1.1/">
  <defs>
    <style id="current-color-scheme" type="text/css">
      .ColorScheme-Text { color: #0abdc6; } .ColorScheme-Highlight { color:#5294e2; }
    </style>
    <linearGradient id="arrongin" x1="0%" x2="0%" y1="0%" y2="100%">
      <stop offset="0%" style="stop-color:#dd9b44; stop-opacity:1"/>
      <stop offset="100%" style="stop-color:#ad6c16; stop-opacity:1"/>
    </linearGradient>
    <linearGradient id="aurora" x1="0%" x2="0%" y1="0%" y2="100%">
      <stop offset="0%" style="stop-color:#09D4DF; stop-opacity:1"/>
      <stop offset="100%" style="stop-color:#9269F4; stop-opacity:1"/>
    </linearGradient>
    <linearGradient id="cyberneon" x1="0%" x2="0%" y1="0%" y2="100%">
      <stop offset="0" style="stop-color:#0abdc6; stop-opacity:1"/>
      <stop offset="1" style="stop-color:#ea00d9; stop-opacity:1"/>
    </linearGradient>
    <linearGradient id="fitdance" x1="0%" x2="0%" y1="0%" y2="100%">
      <stop offset="0%" style="stop-color:#1AD6AB; stop-opacity:1"/>
      <stop offset="100%" style="stop-color:#329DB6; stop-opacity:1"/>
    </linearGradient>
    <linearGradient id="oomox" x1="0%" x2="0%" y1="0%" y2="100%">
      <stop offset="0%" style="stop-color:#0abdc6; stop-opacity:1"/>
      <stop offset="100%" style="stop-color:#b800ff; stop-opacity:1"/>
    </linearGradient>
    <linearGradient id="rainblue" x1="0%" x2="0%" y1="0%" y2="100%">
      <stop offset="0%" style="stop-color:#00F260; stop-opacity:1"/>
      <stop offset="100%" style="stop-color:#0575E6; stop-opacity:1"/>
    </linearGradient>
    <linearGradient id="sunrise" x1="0%" x2="0%" y1="0%" y2="100%">
      <stop offset="0%" style="stop-color: #FF8501; stop-opacity:1"/>
      <stop offset="100%" style="stop-color: #FFCB01; stop-opacity:1"/>
    </linearGradient>
    <linearGradient id="telinkrin" x1="0%" x2="0%" y1="0%" y2="100%">
      <stop offset="0%" style="stop-color: #b2ced6; stop-opacity:1"/>
      <stop offset="100%" style="stop-color: #6da5b7; stop-opacity:1"/>
    </linearGradient>
    <linearGradient id="60spsycho" x1="0%" x2="0%" y1="0%" y2="100%">
      <stop offset="0%" style="stop-color: #df5940; stop-opacity:1"/>
      <stop offset="25%" style="stop-color: #d8d15f; stop-opacity:1"/>
      <stop offset="50%" style="stop-color: #e9882a; stop-opacity:1"/>
      <stop offset="100%" style="stop-color: #279362; stop-opacity:1"/>
    </linearGradient>
    <linearGradient id="90ssummer" x1="0%" x2="0%" y1="0%" y2="100%">
      <stop offset="0%" style="stop-color: #f618c7; stop-opacity:1"/>
      <stop offset="20%" style="stop-color: #94ffab; stop-opacity:1"/>
      <stop offset="50%" style="stop-color: #fbfd54; stop-opacity:1"/>
      <stop offset="100%" style="stop-color: #0f83ae; stop-opacity:1"/>
    </linearGradient>
  </defs>
<path
   style="fill:url(#oomox)"
   d="M 11.049,9.388 H 3.87 c -0.829,0 -1.5,-0.671 -1.5,-1.5 0,-0.829 0.671,-1.5 1.5,-1.5 h 7.178 c 0.829,0 1.5,0.671 1.5,1.5 0,0.829 -0.671,1.5 -1.499,1.5 z"
   id="path1"
   class="ColorScheme-Text"
   transform="matrix(0.02,0,0,0.02,5.9864507e-6,0)" />
<path
   style="fill:url(#oomox)"
   d="M 11.049,19.828 H 3.87 c -0.829,0 -1.5,-0.671 -1.5,-1.5 0,-0.829 0.671,-1.5 1.5,-1.5 h 7.178 c 0.829,0 1.5,0.671 1.5,1.5 0,0.829 -0.671,1.5 -1.499,1.5 z"
   id="path2"
   class="ColorScheme-Text"
   transform="matrix(0.02,0,0,0.02,5.9864507e-6,0)" />
<path
   style="fill:url(#oomox)"
   d="M 11.049,30.268 H 3.87 c -0.829,0 -1.5,-0.672 -1.5,-1.5 0,-0.828 0.671,-1.5 1.5,-1.5 h 7.178 c 0.829,0 1.5,0.672 1.5,1.5 0,0.828 -0.671,1.5 -1.499,1.5 z"
   id="path3"
   class="ColorScheme-Text"
   transform="matrix(0.02,0,0,0.02,5.9864507e-6,0)" />
<path
   style="fill:url(#oomox)"
   d="M 11.049,40.707 H 3.87 c -0.829,0 -1.5,-0.672 -1.5,-1.5 0,-0.828 0.671,-1.5 1.5,-1.5 h 7.178 c 0.829,0 1.5,0.672 1.5,1.5 0,0.828 -0.671,1.5 -1.499,1.5 z"
   id="path4"
   class="ColorScheme-Text"
   transform="matrix(0.02,0,0,0.02,5.9864507e-6,0)" />
<path
   style="fill:url(#oomox)"
   d="M 42.797,22.584 C 42.758,15.252 41.341,4.272 41.341,4.272 40.534,1.78 39.429,0 37.07,0 h -0.362 c 0.124,0.858 0.313,1.942 0.475,2.938 0.225,1.384 0.42,3.102 0.392,4.798 -0.03,1.857 -0.269,3.929 -0.505,5.563 -0.237,1.64 -1.279,2.062 -2.245,0.958 -0.966,-1.104 -2.496,-1.104 -3.417,0 -0.92,1.104 -1.907,0.679 -2.142,-0.961 -0.253,-1.768 -0.514,-3.991 -0.525,-5.685 -0.01,-1.518 0.2,-3.243 0.429,-4.667 0.161,-0.997 0.435,-2.083 0.697,-2.943 H 12.296 c -2.358,0 -3.572,1.931 -4.271,4.272 0,0 -0.001,0.005 -0.001,0.006 h 2.672 c 1.933,0 3.5,1.566 3.5,3.5 0,1.934 -1.567,3.5 -3.5,3.5 H 7.188 c -0.113,1.096 -0.226,2.257 -0.326,3.44 h 3.834 c 1.933,0 3.5,1.567 3.5,3.5 0,1.933 -1.567,3.5 -3.5,3.5 H 6.468 c -0.005,0.294 -0.008,0.585 -0.008,0.866 0,0.812 0.021,1.679 0.058,2.574 h 4.179 c 1.933,0 3.5,1.566 3.5,3.5 0,1.933 -1.567,3.5 -3.5,3.5 h -3.68 c 0.115,1.213 0.237,2.377 0.356,3.439 h 3.324 c 1.933,0 3.5,1.566 3.5,3.5 0,1.933 -1.567,3.5 -3.5,3.5 H 8.683 c 0.751,1.522 1.856,2.572 3.614,2.572 H 37.07 c 2.359,0 3.523,-1.859 4.271,-4.272 0,0 1.527,-11.765 1.456,-18.314 z"
   id="path5"
   class="ColorScheme-Text"
   transform="matrix(0.02,0,0,0.02,5.9864507e-6,0)" />
<metadata
   id="metadata5"><rdf:RDF><cc:Work
       rdf:about=""><dc:creator><cc:Agent><dc:title>dreifacherspass</dc:title></cc:Agent></dc:creator><cc:license
         rdf:resource="http://creativecommons.org/licenses/by-sa/4.0/" /></cc:Work><cc:License
       rdf:about="http://creativecommons.org/licenses/by-sa/4.0/"><cc:permits
         rdf:resource="http://creativecommons.org/ns#Reproduction" /><cc:permits
         rdf:resource="http://creativecommons.org/ns#Distribution" /><cc:requires
         rdf:resource="http://creativecommons.org/ns#Notice" /><cc:requires
         rdf:resource="http://creativecommons.org/ns#Attribution" /><cc:permits
         rdf:resource="http://creativecommons.org/ns#DerivativeWorks" /><cc:requires
         rdf:resource="http://creativecommons.org/ns#ShareAlike" /></cc:License></rdf:RDF>
  </metadata>
</svg>
