<?xml version="1.0" encoding="UTF-8" standalone="no"?>
<svg
   width="16"
   height="16"
   version="1.1"
   id="svg24"
   xmlns="http://www.w3.org/2000/svg"
   xmlns:svg="http://www.w3.org/2000/svg"
   xmlns:rdf="http://www.w3.org/1999/02/22-rdf-syntax-ns#"
   xmlns:cc="http://creativecommons.org/ns#"
   xmlns:dc="http://purl.org/dc/elements/1.1/">
      <defs>
         <style id="current-color-scheme" type="text/css">
            .ColorScheme-Text { color: #0abdc6; } .ColorScheme-Highlight { color:#5294e2; }
         </style>
         <linearGradient id="arrongin" x1="0%" x2="0%" y1="0%" y2="100%">
            <stop offset="0%" style="stop-color:#dd9b44; stop-opacity:1"/>
            <stop offset="100%" style="stop-color:#ad6c16; stop-opacity:1"/>
         </linearGradient>
         <linearGradient id="aurora" x1="0%" x2="0%" y1="0%" y2="100%">
            <stop offset="0%" style="stop-color:#09D4DF; stop-opacity:1"/>
            <stop offset="100%" style="stop-color:#9269F4; stop-opacity:1"/>
         </linearGradient>
         <linearGradient id="cyberneon" x1="0%" x2="0%" y1="0%" y2="100%">
            <stop offset="0" style="stop-color:#0abdc6; stop-opacity:1"/>
            <stop offset="1" style="stop-color:#ea00d9; stop-opacity:1"/>
         </linearGradient>
         <linearGradient id="fitdance" x1="0%" x2="0%" y1="0%" y2="100%">
            <stop offset="0%" style="stop-color:#1AD6AB; stop-opacity:1"/>
            <stop offset="100%" style="stop-color:#329DB6; stop-opacity:1"/>
         </linearGradient>
         <linearGradient id="oomox" x1="0%" x2="0%" y1="0%" y2="100%">
            <stop offset="0%" style="stop-color:#0abdc6; stop-opacity:1"/>
            <stop offset="100%" style="stop-color:#b800ff; stop-opacity:1"/>
         </linearGradient>
         <linearGradient id="rainblue" x1="0%" x2="0%" y1="0%" y2="100%">
            <stop offset="0%" style="stop-color:#00F260; stop-opacity:1"/>
            <stop offset="100%" style="stop-color:#0575E6; stop-opacity:1"/>
         </linearGradient>
         <linearGradient id="sunrise" x1="0%" x2="0%" y1="0%" y2="100%">
            <stop offset="0%" style="stop-color: #FF8501; stop-opacity:1"/>
            <stop offset="100%" style="stop-color: #FFCB01; stop-opacity:1"/>
         </linearGradient>
         <linearGradient id="telinkrin" x1="0%" x2="0%" y1="0%" y2="100%">
            <stop offset="0%" style="stop-color: #b2ced6; stop-opacity:1"/>
            <stop offset="100%" style="stop-color: #6da5b7; stop-opacity:1"/>
         </linearGradient>
         <linearGradient id="60spsycho" x1="0%" x2="0%" y1="0%" y2="100%">
            <stop offset="0%" style="stop-color: #df5940; stop-opacity:1"/>
            <stop offset="25%" style="stop-color: #d8d15f; stop-opacity:1"/>
            <stop offset="50%" style="stop-color: #e9882a; stop-opacity:1"/>
            <stop offset="100%" style="stop-color: #279362; stop-opacity:1"/>
         </linearGradient>
         <linearGradient id="90ssummer" x1="0%" x2="0%" y1="0%" y2="100%">
            <stop offset="0%" style="stop-color: #f618c7; stop-opacity:1"/>
            <stop offset="20%" style="stop-color: #94ffab; stop-opacity:1"/>
            <stop offset="50%" style="stop-color: #fbfd54; stop-opacity:1"/>
            <stop offset="100%" style="stop-color: #0f83ae; stop-opacity:1"/>
         </linearGradient>
      </defs>
  <path
     id="path7"
     style="fill:url(#oomox);opacity:1;stroke-width:0.553883"
     class="ColorScheme-Text"
     d="M 14.589844 0.00390625 C 14.519844 0.018846235 14.45331 0.054399928 14.404297 0.10742188 L 7.6289062 6.8710938 C 7.4909064 7.0091626 7.4909064 7.2310718 7.6289062 7.3691406 L 8.6601562 8.4003906 C 8.7261562 8.4664206 8.8161563 8.5039062 8.9101562 8.5039062 C 9.0041562 8.5039062 9.0941563 8.4664216 9.1601562 8.4003906 L 15.898438 1.6054688 C 16.03545 1.4674009 16.034484 1.2464469 15.896484 1.109375 L 14.904297 0.10742188 C 14.837287 0.041391941 14.748297 0.00390625 14.654297 0.00390625 C 14.633227 -9.3746e-05 14.611824 -9.3746e-05 14.589844 0.00390625 z M 6.7226562 7.4023438 C 6.6336663 7.3994438 6.5465156 7.4302513 6.4785156 7.4882812 L 2.5996094 10.792969 C 2.5245995 10.856999 2.4795954 10.948826 2.4746094 11.046875 C 2.4706094 11.145915 2.5061489 11.240512 2.5761719 11.310547 L 2.6855469 11.419922 C 2.0305535 12.089255 0.029810478 14.237879 0.0078125 15.642578 L 0 16 L 0.35742188 16 C 1.8054064 16 3.9238973 13.986596 4.5878906 13.322266 L 4.6914062 13.427734 C 4.7574062 13.493764 4.8483933 13.53125 4.9414062 13.53125 L 4.9589844 13.53125 C 5.0579743 13.52615 5.1488907 13.480307 5.2128906 13.404297 L 8.4746094 9.4765625 C 8.5915953 9.3354786 8.5812549 9.130017 8.453125 9.0019531 L 6.9570312 7.5058594 C 6.8950313 7.4428194 6.8116432 7.4063457 6.7226562 7.4023438 z M 10.015625 10.986328 C 8.9094456 10.983228 8.6505021 11.878013 8.4453125 12.535156 C 7.1816347 12.945313 5.7835394 12.879669 5.9003906 13.322266 C 6.0106773 13.739997 6.7088232 13.157469 8.3085938 12.984375 C 8.2654188 13.460737 8.0898436 13.851562 8.0898438 13.851562 C 7.3975154 14.080342 6.7364278 14.588867 7.203125 14.882812 C 7.4823324 15.058674 8.2122132 14.990666 8.4707031 14.111328 C 9.0159179 13.968825 9.6095415 13.87063 10.171875 13.757812 C 10.125545 14.046059 9.7067618 14.379482 10.009766 14.566406 C 10.225201 14.69931 10.702698 14.019711 10.839844 13.417969 C 10.839844 13.417969 10.87294 13.540028 11.220703 13.625 C 11.294463 13.990147 11.661926 14.059152 12.074219 13.892578 C 12.050439 14.069926 11.921653 14.241128 11.84375 14.375 C 11.611534 14.719792 11.335423 15.270758 11.255859 15.511719 C 11.130363 15.891784 11.499457 16.228299 11.732422 15.798828 C 11.732422 15.798828 12.141577 14.959683 12.296875 14.576172 C 12.464743 14.16162 12.669373 14.007081 12.964844 13.714844 C 12.804711 13.935043 12.842278 14.109817 12.955078 14.166016 C 13.180837 14.27849 13.385637 14.069982 13.623047 13.613281 C 13.923939 13.357041 14.099566 13.306618 14.443359 13.146484 C 14.417299 13.356457 14.238281 13.720703 14.238281 13.720703 C 14.007345 14.184694 13.975977 14.705991 14.601562 14.501953 C 15.789656 14.114452 16.101806 13.385665 15.972656 13.197266 C 15.66642 12.750535 15.561466 13.847877 14.539062 14.191406 C 14.846483 13.188289 15.166788 12.877468 14.970703 12.689453 C 14.725769 12.454599 14.23006 12.996491 13.830078 12.994141 C 14.008582 12.690871 14.065291 12.345992 13.935547 12.291016 C 13.541172 12.123915 13.594137 12.649083 13.011719 13.123047 C 12.691683 13.418325 12.672957 13.435924 12.605469 13.375 C 12.353047 13.147127 11.862668 13.804348 11.652344 13.453125 C 12.002752 13.27466 12.524285 13.332802 12.833984 13.105469 C 12.548336 12.64736 11.996484 12.406305 11.673828 12.603516 C 11.200742 12.89267 11.323353 13.198659 11.1875 13.132812 C 11.1002 13.090503 11.15576 12.762769 10.978516 12.642578 C 10.772734 12.503018 10.559966 12.97565 10.402344 13.3125 C 9.8103114 13.46228 9.1851082 13.598949 8.5820312 13.685547 C 8.7650999 13.186709 8.7282712 12.799723 9.0078125 12.724609 C 9.9524386 12.379048 10.664062 12.006433 10.664062 11.501953 C 10.664062 11.199537 10.327988 10.983251 10.015625 10.986328 z M 9.8242188 11.392578 C 9.8476667 11.392325 9.8722034 11.393531 9.8964844 11.394531 C 10.042137 11.400431 10.1875 11.436119 10.1875 11.566406 C 10.187502 11.932175 9.3951688 12.223755 8.9628906 12.365234 C 9.203795 11.775113 9.3105005 11.417565 9.7558594 11.394531 C 9.7773234 11.393431 9.8007598 11.392978 9.8242188 11.392578 z M 3.1816406 11.916016 L 4.0917969 12.826172 C 3.3288026 13.577548 1.8408659 14.885631 0.796875 15.216797 C 1.1398726 14.190288 2.4366474 12.690404 3.1816406 11.916016 z M 7.8378906 14.347656 C 7.8411606 14.347377 7.8466564 14.347635 7.8496094 14.347656 C 7.8810203 14.347896 7.8917421 14.366109 7.8613281 14.412109 C 7.7578603 14.568568 7.6289063 14.539063 7.6289062 14.539062 C 7.4864807 14.506623 7.7363836 14.356344 7.8378906 14.347656 z " />
  <metadata
     id="metadata5"><rdf:RDF><cc:Work
           rdf:about=""><dc:creator><cc:Agent><dc:title>dreifacherspass</dc:title></cc:Agent></dc:creator><cc:license
              rdf:resource="http://creativecommons.org/licenses/by-sa/4.0/" /></cc:Work><cc:License
              rdf:about="http://creativecommons.org/licenses/by-sa/4.0/"><cc:permits
                 rdf:resource="http://creativecommons.org/ns#Reproduction" /><cc:permits
                    rdf:resource="http://creativecommons.org/ns#Distribution" /><cc:requires
                       rdf:resource="http://creativecommons.org/ns#Notice" /><cc:requires
                          rdf:resource="http://creativecommons.org/ns#Attribution" /><cc:permits
                             rdf:resource="http://creativecommons.org/ns#DerivativeWorks" /><cc:requires
                                rdf:resource="http://creativecommons.org/ns#ShareAlike" /></cc:License></rdf:RDF>
     </metadata>
</svg>
