<?xml version="1.0" encoding="UTF-8" standalone="no"?>
<svg
   width="16"
   height="16"
   version="1.1"
   id="svg24"
   xmlns:xlink="http://www.w3.org/1999/xlink"
   xmlns="http://www.w3.org/2000/svg"
   xmlns:svg="http://www.w3.org/2000/svg"
   xmlns:rdf="http://www.w3.org/1999/02/22-rdf-syntax-ns#"
   xmlns:cc="http://creativecommons.org/ns#"
   xmlns:dc="http://purl.org/dc/elements/1.1/">
   <defs>
      <style id="current-color-scheme" type="text/css">
         .ColorScheme-Text { color: #0abdc6; } .ColorScheme-Highlight { color:#5294e2; }
      </style>
      <linearGradient id="arrongin" x1="0%" x2="0%" y1="0%" y2="100%">
         <stop offset="0%" style="stop-color:#dd9b44; stop-opacity:1"/>
         <stop offset="100%" style="stop-color:#ad6c16; stop-opacity:1"/>
      </linearGradient>
      <linearGradient id="aurora" x1="0%" x2="0%" y1="0%" y2="100%">
         <stop offset="0%" style="stop-color:#09D4DF; stop-opacity:1"/>
         <stop offset="100%" style="stop-color:#9269F4; stop-opacity:1"/>
      </linearGradient>
      <linearGradient id="cyberneon" x1="0%" x2="0%" y1="0%" y2="100%">
         <stop offset="0" style="stop-color:#0abdc6; stop-opacity:1"/>
         <stop offset="1" style="stop-color:#ea00d9; stop-opacity:1"/>
      </linearGradient>
      <linearGradient id="fitdance" x1="0%" x2="0%" y1="0%" y2="100%">
         <stop offset="0%" style="stop-color:#1AD6AB; stop-opacity:1"/>
         <stop offset="100%" style="stop-color:#329DB6; stop-opacity:1"/>
      </linearGradient>
      <linearGradient id="oomox" x1="0%" x2="0%" y1="0%" y2="100%">
         <stop offset="0%" style="stop-color:#0abdc6; stop-opacity:1"/>
         <stop offset="100%" style="stop-color:#b800ff; stop-opacity:1"/>
      </linearGradient>
      <linearGradient id="rainblue" x1="0%" x2="0%" y1="0%" y2="100%">
         <stop offset="0%" style="stop-color:#00F260; stop-opacity:1"/>
         <stop offset="100%" style="stop-color:#0575E6; stop-opacity:1"/>
      </linearGradient>
      <linearGradient id="sunrise" x1="0%" x2="0%" y1="0%" y2="100%">
         <stop offset="0%" style="stop-color: #FF8501; stop-opacity:1"/>
         <stop offset="100%" style="stop-color: #FFCB01; stop-opacity:1"/>
      </linearGradient>
      <linearGradient id="telinkrin" x1="0%" x2="0%" y1="0%" y2="100%">
         <stop offset="0%" style="stop-color: #b2ced6; stop-opacity:1"/>
         <stop offset="100%" style="stop-color: #6da5b7; stop-opacity:1"/>
      </linearGradient>
      <linearGradient id="60spsycho" x1="0%" x2="0%" y1="0%" y2="100%">
         <stop offset="0%" style="stop-color: #df5940; stop-opacity:1"/>
         <stop offset="25%" style="stop-color: #d8d15f; stop-opacity:1"/>
         <stop offset="50%" style="stop-color: #e9882a; stop-opacity:1"/>
         <stop offset="100%" style="stop-color: #279362; stop-opacity:1"/>
      </linearGradient>
      <linearGradient id="90ssummer" x1="0%" x2="0%" y1="0%" y2="100%">
         <stop offset="0%" style="stop-color: #f618c7; stop-opacity:1"/>
         <stop offset="20%" style="stop-color: #94ffab; stop-opacity:1"/>
         <stop offset="50%" style="stop-color: #fbfd54; stop-opacity:1"/>
         <stop offset="100%" style="stop-color: #0f83ae; stop-opacity:1"/>
      </linearGradient>
   </defs>
  <metadata
     id="metadata24">
    <rdf:RDF>
      <cc:License
         rdf:about="http://creativecommons.org/licenses/by-sa/4.0/">
        <cc:permits
           rdf:resource="http://creativecommons.org/ns#Reproduction" />
        <cc:permits
           rdf:resource="http://creativecommons.org/ns#Distribution" />
        <cc:requires
           rdf:resource="http://creativecommons.org/ns#Notice" />
        <cc:requires
           rdf:resource="http://creativecommons.org/ns#Attribution" />
        <cc:permits
           rdf:resource="http://creativecommons.org/ns#DerivativeWorks" />
        <cc:requires
           rdf:resource="http://creativecommons.org/ns#ShareAlike" />
      </cc:License>
      <cc:Work
         rdf:about="">
        <cc:license
           rdf:resource="http://creativecommons.org/licenses/by-sa/4.0/" />
        <dc:creator>
          <cc:Agent>
            <dc:title>dreifacherspass</dc:title>
          </cc:Agent>
        </dc:creator>
      </cc:Work>
    </rdf:RDF>
  </metadata>
  <path
     style="opacity:1;fill:url(#oomox);fill-opacity:1;stroke:none;stroke-width:0.470084;stroke-dasharray:none"
     d="m 7.0028142,7.0259951 v 1.149015 a 3.4901539,3.4898897 0 0 0 -0.655377,0.27557 L 5.5323523,7.6355591 4.1222675,9.0455361 4.9383251,9.8615311 A 3.4901539,3.4898897 0 0 0 4.6656571,10.515887 H 3.5126589 v 1.994222 h 1.1491043 a 3.4901539,3.4898897 0 0 0 0.2755896,0.655325 l -0.8150853,0.815022 1.4100848,1.409979 0.8150849,-0.815018 a 3.4901539,3.4898897 0 0 0 0.655377,0.275562 V 16 H 8.997188 v -1.146096 a 3.4901539,3.4898897 0 0 0 0.660245,-0.27362 l 0.810216,0.810151 1.410084,-1.409979 -0.811188,-0.812099 a 3.4901539,3.4898897 0 0 0 0.27072,-0.658248 h 1.150076 V 10.515887 H 11.338238 A 3.4901539,3.4898897 0 0 0 11.062649,9.8605581 l 0.815084,-0.815022 -1.410084,-1.409977 -0.8150849,0.815021 a 3.4901539,3.4898897 0 0 0 -0.655376,-0.274594 v -1.149991 z m 0.4985913,0.498559 H 8.498595 v 0.534583 0.333993 0.170383 a 2.9915604,2.991334 0 0 1 1.231875,0.514136 l 0.120758,-0.120756 0.232755,-0.232732 0.383684,-0.383654 0.705041,0.704989 -0.383681,0.383652 -0.229832,0.229829 -0.123679,0.123647 a 2.9915604,2.991334 0 0 1 0.512225,1.2317839 h 0.169453 0.337915 0.533652 v 0.997137 H 11.451212 11.120113 10.945809 A 2.9915604,2.991334 0 0 1 10.436503,13.2443 l 0.119766,0.119772 0.238595,0.23857 0.377838,0.377816 -0.70504,0.704989 -0.377843,-0.377814 -0.235674,-0.235662 -0.124642,-0.12465 A 2.9915604,2.991334 0 0 1 8.498601,14.46046 v 0.177208 0.330098 0.53361 H 7.5014119 V 14.967772 14.637676 14.460468 A 2.9915604,2.991334 0 0 1 6.271485,13.946387 L 6.1429278,14.074933 5.9160438,14.301811 5.5323598,14.685463 4.827319,13.980478 5.2110004,13.59682 5.4379105,13.36992 5.5664416,13.241355 A 2.9915604,2.991334 0 0 1 5.0532406,12.011572 H 4.8750248 4.5449021 4.0112512 v -0.99711 H 4.5507436 4.8750248 5.054205 A 2.9915604,2.991334 0 0 1 5.5635135,9.7817041 l -0.12561,-0.125614 -0.2269099,-0.2269 -0.3836821,-0.383656 0.7050412,-0.704991 0.3836847,0.383654 0.2268816,0.226878 0.1275634,0.127542 A 2.9915604,2.991334 0 0 1 7.5013872,8.5654801 V 8.3960611 8.0581701 Z M 8.000001,9.5187781 A 1.9943734,1.9942223 0 0 0 6.0056269,11.513 1.9943734,1.9942223 0 0 0 8.000001,13.50722 1.9943734,1.9942223 0 0 0 9.994374,11.513 1.9943734,1.9942223 0 0 0 8.000001,9.5187781 Z m 0,0.4985529 A 1.4957802,1.4956669 0 0 1 9.495782,11.513 1.4957802,1.4956669 0 0 1 8.000001,13.008665 1.4957802,1.4956669 0 0 1 6.5042187,11.513 1.4957802,1.4956669 0 0 1 8.000001,10.017331 Z"
     id="path2"
     class="ColorScheme-Text" />
  <path
     style="opacity:1;fill:url(#oomox);fill-opacity:1;stroke:none;stroke-width:0.471638;stroke-dasharray:none"
     d="M 6.5042187,-1.5e-7 V 3.0111407 H 5.0084407 L 8.000001,6.5241411 10.991561,3.0111407 H 9.495782 V -1.5e-7 Z m 0.4985955,0.5018556 H 8.997188 V 3.5129963 H 9.907705 L 8.000001,5.7527301 6.0922966,3.5129963 h 0.9105176 z"
     id="path5"
     class="ColorScheme-Text" />
</svg>
