<?xml version="1.0" encoding="UTF-8" standalone="no"?>
<svg
   width="16"
   height="16"
   version="1.1"
   id="svg35"
   xmlns="http://www.w3.org/2000/svg"
   xmlns:svg="http://www.w3.org/2000/svg"
   xmlns:rdf="http://www.w3.org/1999/02/22-rdf-syntax-ns#"
   xmlns:cc="http://creativecommons.org/ns#"
   xmlns:dc="http://purl.org/dc/elements/1.1/">
  <defs>
    <style id="current-color-scheme" type="text/css">
      .ColorScheme-Text { color: #0abdc6; } .ColorScheme-Highlight { color:#5294e2; }
    </style>
    <linearGradient id="arrongin" x1="0%" x2="0%" y1="0%" y2="100%">
      <stop offset="0%" style="stop-color:#dd9b44; stop-opacity:1"/>
      <stop offset="100%" style="stop-color:#ad6c16; stop-opacity:1"/>
    </linearGradient>
    <linearGradient id="aurora" x1="0%" x2="0%" y1="0%" y2="100%">
      <stop offset="0%" style="stop-color:#09D4DF; stop-opacity:1"/>
      <stop offset="100%" style="stop-color:#9269F4; stop-opacity:1"/>
    </linearGradient>
    <linearGradient id="cyberneon" x1="0%" x2="0%" y1="0%" y2="100%">
      <stop offset="0" style="stop-color:#0abdc6; stop-opacity:1"/>
      <stop offset="1" style="stop-color:#ea00d9; stop-opacity:1"/>
    </linearGradient>
    <linearGradient id="fitdance" x1="0%" x2="0%" y1="0%" y2="100%">
      <stop offset="0%" style="stop-color:#1AD6AB; stop-opacity:1"/>
      <stop offset="100%" style="stop-color:#329DB6; stop-opacity:1"/>
    </linearGradient>
    <linearGradient id="oomox" x1="0%" x2="0%" y1="0%" y2="100%">
      <stop style="stop-color:#41ff00;stop-opacity:1;" offset="0" id="stop9" />
      <stop style="stop-color:#e7ff00;stop-opacity:1;" offset="1" id="stop10" />
    </linearGradient>
    <linearGradient id="rainblue" x1="0%" x2="0%" y1="0%" y2="100%">
      <stop offset="0%" style="stop-color:#00F260; stop-opacity:1"/>
      <stop offset="100%" style="stop-color:#0575E6; stop-opacity:1"/>
    </linearGradient>
    <linearGradient id="sunrise" x1="0%" x2="0%" y1="0%" y2="100%">
      <stop offset="0%" style="stop-color: #FF8501; stop-opacity:1"/>
      <stop offset="100%" style="stop-color: #FFCB01; stop-opacity:1"/>
    </linearGradient>
    <linearGradient id="telinkrin" x1="0%" x2="0%" y1="0%" y2="100%">
      <stop offset="0%" style="stop-color: #b2ced6; stop-opacity:1"/>
      <stop offset="100%" style="stop-color: #6da5b7; stop-opacity:1"/>
    </linearGradient>
    <linearGradient id="60spsycho" x1="0%" x2="0%" y1="0%" y2="100%">
      <stop offset="0%" style="stop-color: #df5940; stop-opacity:1"/>
      <stop offset="25%" style="stop-color: #d8d15f; stop-opacity:1"/>
      <stop offset="50%" style="stop-color: #e9882a; stop-opacity:1"/>
      <stop offset="100%" style="stop-color: #279362; stop-opacity:1"/>
    </linearGradient>
    <linearGradient id="90ssummer" x1="0%" x2="0%" y1="0%" y2="100%">
      <stop offset="0%" style="stop-color: #f618c7; stop-opacity:1"/>
      <stop offset="20%" style="stop-color: #94ffab; stop-opacity:1"/>
      <stop offset="50%" style="stop-color: #fbfd54; stop-opacity:1"/>
      <stop offset="100%" style="stop-color: #0f83ae; stop-opacity:1"/>
    </linearGradient>
  </defs>
  <path
     id="circle35"
     style="fill:#000000;opacity:0.5;stroke-width:1.14286"
     d="M 16,8 A 8,8 0 0 1 8,16 8,8 0 0 1 0,8 8,8 0 0 1 8,0 8,8 0 0 1 16,8 Z" />
  <path
     fill-rule="evenodd"
     d="M 7.3554227,2.2837275 C 4.4869721,2.605326 2.2499872,5.0433307 2.2499872,7.9982626 c 0,3.1722814 2.5783056,5.7517374 5.7494376,5.7517374 3.1717072,0 5.7505882,-2.579456 5.7505882,-5.7517374 0,-2.9123807 -2.17523,-5.3195091 -4.9846863,-5.6960776 0,0 -0.784762,-0.1039254 -1.4099615,-0.018458 z M 7.6168763,3.061187 V 4.9972158 C 7.0678998,4.9778383 6.5429464,4.9196482 6.0577605,4.8279244 6.1306302,4.6570861 6.207025,4.4925431 6.2903428,4.3425084 6.6744205,3.6508963 7.1382396,3.2194729 7.6168705,3.0611755 Z m 0.8212744,0.032096 c 0.043182,0.00713 0.087044,0.012167 0.1299269,0.020057 0.4324873,0.1893481 0.848127,0.6002441 1.197383,1.2291799 0.081777,0.1472574 0.1568542,0.308477 0.2285742,0.4757905 C 9.5110623,4.9124378 8.9865751,4.9735315 8.4381392,4.9956287 Z M 5.9127451,3.420632 C 5.791995,3.5849669 5.6764197,3.757008 5.5729194,3.9437679 5.4533191,4.1585314 5.346944,4.3911763 5.2486187,4.6339424 4.9841181,4.5563163 4.7380177,4.4681114 4.5132497,4.3713964 4.919718,3.9800504 5.3923691,3.6579919 5.9127451,3.420632 Z m 4.3677679,0.1925617 c 0.484897,0.1507718 0.855831,0.4580287 1.205432,0.7581969 -0.210451,0.09062 -0.438725,0.1739374 -0.684827,0.2481699 -0.0966,-0.2374174 -0.200674,-0.4654047 -0.317401,-0.6757983 -0.06383,-0.114885 -0.13225,-0.22379 -0.202975,-0.3305685 z M 3.9928734,4.9605365 c 0.00856,0.030808 -0.014145,-0.041388 -0.00345,-0.00989 0.2961946,0.1382828 0.6483139,0.3592667 0.9956145,0.4632784 -0.1796,0.642106 -0.2908397,1.3475743 -0.3208031,2.0932938 H 2.9936249 C 3.0857973,6.5538655 3.4459783,5.6821635 3.9931495,4.9605365 Z m 8.0189686,0.0069 c 0.544065,0.7204194 0.902061,1.5893614 0.993716,2.5394358 H 11.391932 C 11.361745,6.7555782 11.24909,6.0450498 11.06712,5.3990928 c 0.327958,-0.1005676 0.654811,-0.2920251 0.93639,-0.4234827 0.01231,-0.028934 -0.0017,0.020252 0.0084,-0.00816 z M 10.269875,5.602066 c 0.163408,0.5753458 0.269256,1.2194618 0.299956,1.9047487 H 8.4380702 V 5.8170584 C 9.0833361,5.79338 9.6997957,5.72047 10.269851,5.6020316 Z M 5.7826224,5.614107 c 0.571396,0.1153391 1.188873,0.1841666 1.8341964,0.2045964 V 7.5068493 H 5.4858643 C 5.5163392,6.8262198 5.6210988,6.186474 5.7826108,5.614118 Z M 2.9851838,8.3284573 h 1.6786011 c 0.030762,0.7661895 0.1468611,1.4908628 0.335243,2.1470547 -0.3693406,0.04797 -1.0046422,0.421562 -1.0374173,0.43991 C 3.3162868,10.127096 3.0555813,9.4106436 2.9853736,8.3279168 Z m 2.5006805,0 H 7.6168188 V 10.074333 C 6.9769004,10.094539 6.364351,10.162128 5.7970549,10.275722 5.6268661,9.6897381 5.5173167,9.0304412 5.4858757,8.3284228 Z m 2.9521714,0 H 10.569795 C 10.538171,9.0351907 10.42754,9.6988577 10.255408,10.287774 9.6894399,10.171094 9.0778621,10.099387 8.4380587,10.075955 Z m 2.9537823,0 h 1.621675 c -0.06453,0.9948094 -0.358559,1.8510437 -0.916207,2.6043527 -0.260883,-0.164594 -0.736979,-0.336462 -1.044719,-0.442808 0.190796,-0.6599868 0.30824,-1.3897777 0.339245,-2.1614872 z M 7.6167612,10.895953 v 1.877494 C 7.1383603,12.614746 6.6743343,12.185219 6.2902335,11.493494 6.2154835,11.358943 6.1464832,11.212892 6.080358,11.061093 6.5593283,10.971727 7.0764904,10.914934 7.6169913,10.895809 Z m 0.8212745,0.0016 c 0.540432,0.02157 1.0570819,0.08066 1.5342181,0.172505 -0.065355,0.148471 -0.1335152,0.291451 -0.2069197,0.423638 -0.3841297,0.691727 -0.8484719,1.121367 -1.3273329,1.279724 z m -3.167912,0.355435 c 0.092598,0.223717 0.191579,0.43998 0.3023587,0.63946 0.1568144,0.282377 0.335795,0.538708 0.5309332,0.767052 C 5.4743641,12.403803 4.907528,12.027459 4.436027,11.554692 4.6868942,11.44224 4.9670463,11.340971 5.2701237,11.253012 Z m 5.5098353,0.01445 c 0.28363,0.08446 0.545916,0.18108 0.782749,0.287242 -0.449169,0.450364 -0.984172,0.814835 -1.5775742,1.069502 0.1827592,-0.219109 0.3497562,-0.464699 0.4980482,-0.731746 0.108423,-0.195231 0.205731,-0.40656 0.296747,-0.625027 z"
     id="path_globe"
     style="fill:url(#oomox);stroke-width:1.15" />
  <metadata
     id="metadata35">
    <rdf:RDF>
      <cc:Work
         rdf:about="">
        <dc:creator>
          <cc:Agent>
            <dc:title>dreifacherspass</dc:title>
          </cc:Agent>
        </dc:creator>
        <cc:license
           rdf:resource="http://creativecommons.org/licenses/by-sa/4.0/" />
      </cc:Work>
      <cc:License
         rdf:about="http://creativecommons.org/licenses/by-sa/4.0/">
        <cc:permits
           rdf:resource="http://creativecommons.org/ns#Reproduction" />
        <cc:permits
           rdf:resource="http://creativecommons.org/ns#Distribution" />
        <cc:requires
           rdf:resource="http://creativecommons.org/ns#Notice" />
        <cc:requires
           rdf:resource="http://creativecommons.org/ns#Attribution" />
        <cc:permits
           rdf:resource="http://creativecommons.org/ns#DerivativeWorks" />
        <cc:requires
           rdf:resource="http://creativecommons.org/ns#ShareAlike" />
      </cc:License>
    </rdf:RDF>
  </metadata>
</svg>
