<?xml version="1.0" encoding="UTF-8" standalone="no"?>
<svg
   height="16px"
   viewBox="0 0 16 16"
   width="16px"
   version="1.1"
   id="svg6"
   xmlns="http://www.w3.org/2000/svg"
   xmlns:svg="http://www.w3.org/2000/svg"
   xmlns:rdf="http://www.w3.org/1999/02/22-rdf-syntax-ns#"
   xmlns:cc="http://creativecommons.org/ns#"
   xmlns:dc="http://purl.org/dc/elements/1.1/">
  <defs>
   <style id="current-color-scheme" type="text/css">
   .ColorScheme-Text { color: #0abdc6; } .ColorScheme-Highlight { color:#5294e2; }
  </style>
  <linearGradient id="arrongin" x1="0%" x2="0%" y1="0%" y2="100%">
   <stop offset="0%" style="stop-color:#dd9b44; stop-opacity:1"/>
   <stop offset="100%" style="stop-color:#ad6c16; stop-opacity:1"/>
  </linearGradient>
  <linearGradient id="aurora" x1="0%" x2="0%" y1="0%" y2="100%">
   <stop offset="0%" style="stop-color:#09D4DF; stop-opacity:1"/>
   <stop offset="100%" style="stop-color:#9269F4; stop-opacity:1"/>
  </linearGradient>
  <linearGradient id="cyberneon" x1="0%" x2="0%" y1="0%" y2="100%">
    <stop offset="0" style="stop-color:#0abdc6; stop-opacity:1"/>
    <stop offset="1" style="stop-color:#ea00d9; stop-opacity:1"/>
  </linearGradient>
  <linearGradient id="fitdance" x1="0%" x2="0%" y1="0%" y2="100%">
   <stop offset="0%" style="stop-color:#1AD6AB; stop-opacity:1"/>
   <stop offset="100%" style="stop-color:#329DB6; stop-opacity:1"/>
  </linearGradient>
  <linearGradient id="oomox" x1="0%" x2="0%" y1="0%" y2="100%">
   <stop offset="0%" style="stop-color:#0abdc6; stop-opacity:1"/>
   <stop offset="100%" style="stop-color:#b800ff; stop-opacity:1"/>
  </linearGradient>
  <linearGradient id="rainblue" x1="0%" x2="0%" y1="0%" y2="100%">
   <stop offset="0%" style="stop-color:#00F260; stop-opacity:1"/>
   <stop offset="100%" style="stop-color:#0575E6; stop-opacity:1"/>
  </linearGradient>
  <linearGradient id="sunrise" x1="0%" x2="0%" y1="0%" y2="100%">
   <stop offset="0%" style="stop-color: #FF8501; stop-opacity:1"/>
   <stop offset="100%" style="stop-color: #FFCB01; stop-opacity:1"/>
  </linearGradient>
  <linearGradient id="telinkrin" x1="0%" x2="0%" y1="0%" y2="100%">
   <stop offset="0%" style="stop-color: #b2ced6; stop-opacity:1"/>
   <stop offset="100%" style="stop-color: #6da5b7; stop-opacity:1"/>
  </linearGradient>
  <linearGradient id="60spsycho" x1="0%" x2="0%" y1="0%" y2="100%">
   <stop offset="0%" style="stop-color: #df5940; stop-opacity:1"/>
   <stop offset="25%" style="stop-color: #d8d15f; stop-opacity:1"/>
   <stop offset="50%" style="stop-color: #e9882a; stop-opacity:1"/>
   <stop offset="100%" style="stop-color: #279362; stop-opacity:1"/>
  </linearGradient>
  <linearGradient id="90ssummer" x1="0%" x2="0%" y1="0%" y2="100%">
   <stop offset="0%" style="stop-color: #f618c7; stop-opacity:1"/>
   <stop offset="20%" style="stop-color: #94ffab; stop-opacity:1"/>
   <stop offset="50%" style="stop-color: #fbfd54; stop-opacity:1"/>
   <stop offset="100%" style="stop-color: #0f83ae; stop-opacity:1"/>
  </linearGradient>
 </defs>
  <path
     id="path1"
     class="ColorScheme-Text"
     style="fill:url(#oomox);stroke-width:1.00006"
     d="M 7.0820312 0.5 C 6.6362157 0.4951165 6.1953266 0.53319517 5.765625 0.61132812 C 3.1874151 1.0762192 0.98049305 2.9782448 0.25 5.6464844 C -0.72659415 9.2015322 1.2459792 12.929567 4.734375 14.125 C 5.2578292 14.300799 5.8242133 14.02349 6.0039062 13.5 C 6.1836002 12.976508 5.9023616 12.410174 5.3828125 12.230469 C 2.8710118 11.371007 1.4765384 8.7346346 2.1796875 6.1757812 C 2.8789285 3.6208351 5.4256949 2.0604916 8.0234375 2.6035156 C 10.617273 3.1465397 12.328137 5.5895775 11.949219 8.2148438 C 11.871089 8.7617741 12.249983 9.2695232 12.796875 9.3476562 C 13.339862 9.4257872 13.847653 9.0469306 13.929688 8.5 C 14.457047 4.851192 12.03918 1.4004668 8.4296875 0.64648438 C 7.9785007 0.55272484 7.5278468 0.5048835 7.0820312 0.5 z M 7 3.4980469 C 6.449201 3.4980469 6 3.9472101 6 4.4980469 L 6 6.8828125 L 4.5546875 7.6054688 C 4.0585772 7.8515866 3.8593666 8.4530743 4.1054688 8.9492188 C 4.3515698 9.4414555 4.9531084 9.6406503 5.4492188 9.3945312 L 7.4492188 8.3945312 C 7.7851668 8.2265452 8 7.8789444 8 7.5 L 8 4.4980469 C 8 3.9472101 7.5507991 3.4980469 7 3.4980469 z M 7.9492188 10.5 C 7.4221104 10.526873 7 10.966376 7 11.5 C 7 12.050837 7.4492009 12.5 8 12.5 C 8.5507991 12.5 9 12.050837 9 11.5 C 9 10.949163 8.5507991 10.5 8 10.5 C 7.9827875 10.5 7.9662222 10.499133 7.9492188 10.5 z M 10 10.5 L 10 12.5 L 16 12.5 L 16 10.5 L 10 10.5 z M 8 13.5 C 7.4492009 13.5 7 13.949163 7 14.5 C 7 15.050837 7.4492009 15.5 8 15.5 C 8.5507991 15.5 9 15.050837 9 14.5 C 9 13.949163 8.5507991 13.5 8 13.5 z M 10 13.5 L 10 15.5 L 16 15.5 L 16 13.5 L 10 13.5 z " />
  <metadata
     id="metadata6">
    <rdf:RDF>
      <cc:Work
         rdf:about="">
        <dc:creator>
          <cc:Agent>
            <dc:title>dreifacherspass</dc:title>
          </cc:Agent>
        </dc:creator>
        <cc:license
           rdf:resource="http://creativecommons.org/licenses/by-sa/4.0/" />
      </cc:Work>
      <cc:License
         rdf:about="http://creativecommons.org/licenses/by-sa/4.0/">
        <cc:permits
           rdf:resource="http://creativecommons.org/ns#Reproduction" />
        <cc:permits
           rdf:resource="http://creativecommons.org/ns#Distribution" />
        <cc:requires
           rdf:resource="http://creativecommons.org/ns#Notice" />
        <cc:requires
           rdf:resource="http://creativecommons.org/ns#Attribution" />
        <cc:permits
           rdf:resource="http://creativecommons.org/ns#DerivativeWorks" />
        <cc:requires
           rdf:resource="http://creativecommons.org/ns#ShareAlike" />
      </cc:License>
    </rdf:RDF>
  </metadata>
</svg>
