<?xml version="1.0" encoding="UTF-8" standalone="no"?>
<svg
   id="svg8"
   version="1.1"
   viewBox="0 0 24 24"
   height="24"
   width="24"
   xmlns="http://www.w3.org/2000/svg"
   xmlns:svg="http://www.w3.org/2000/svg"
   xmlns:rdf="http://www.w3.org/1999/02/22-rdf-syntax-ns#"
   xmlns:cc="http://creativecommons.org/ns#"
   xmlns:dc="http://purl.org/dc/elements/1.1/">
  <defs
     id="defs24">
    <style
       id="current-color-scheme"
       type="text/css">&#10;   .ColorScheme-Text { color: #0abdc6; } .ColorScheme-Highlight { color:#5294e2; }&#10;  </style>
    <linearGradient
       id="arrongin"
       x1="0"
       x2="0"
       y1="0"
       y2="1">
      <stop
         offset="0%"
         style="stop-color:#dd9b44; stop-opacity:1"
         id="stop1" />
      <stop
         offset="100%"
         style="stop-color:#ad6c16; stop-opacity:1"
         id="stop2" />
    </linearGradient>
    <linearGradient
       id="aurora"
       x1="0"
       x2="0"
       y1="0"
       y2="1">
      <stop
         offset="0%"
         style="stop-color:#09D4DF; stop-opacity:1"
         id="stop3" />
      <stop
         offset="100%"
         style="stop-color:#9269F4; stop-opacity:1"
         id="stop4" />
    </linearGradient>
    <linearGradient
       id="cyberneon"
       x1="0"
       x2="0"
       y1="0"
       y2="1">
      <stop
         offset="0"
         style="stop-color:#0abdc6; stop-opacity:1"
         id="stop5" />
      <stop
         offset="1"
         style="stop-color:#ea00d9; stop-opacity:1"
         id="stop6" />
    </linearGradient>
    <linearGradient
       id="fitdance"
       x1="0"
       x2="0"
       y1="0"
       y2="1">
      <stop
         offset="0%"
         style="stop-color:#1AD6AB; stop-opacity:1"
         id="stop7" />
      <stop
         offset="100%"
         style="stop-color:#329DB6; stop-opacity:1"
         id="stop8" />
    </linearGradient>
    <linearGradient
       id="oomox"
       x1="1"
       x2="1"
       y1="1"
       y2="15"
       gradientUnits="userSpaceOnUse"
       gradientTransform="matrix(1.142857,0,0,1.142857,2.857143,2.857143)">
      <stop
         offset="0%"
         style="stop-color:#0abdc6; stop-opacity:1"
         id="stop9" />
      <stop
         offset="100%"
         style="stop-color:#b800ff; stop-opacity:1"
         id="stop10" />
    </linearGradient>
    <linearGradient
       id="rainblue"
       x1="0"
       x2="0"
       y1="0"
       y2="1">
      <stop
         offset="0%"
         style="stop-color:#00F260; stop-opacity:1"
         id="stop11" />
      <stop
         offset="100%"
         style="stop-color:#0575E6; stop-opacity:1"
         id="stop12" />
    </linearGradient>
    <linearGradient
       id="sunrise"
       x1="0"
       x2="0"
       y1="0"
       y2="1">
      <stop
         offset="0%"
         style="stop-color: #FF8501; stop-opacity:1"
         id="stop13" />
      <stop
         offset="100%"
         style="stop-color: #FFCB01; stop-opacity:1"
         id="stop14" />
    </linearGradient>
    <linearGradient
       id="telinkrin"
       x1="0"
       x2="0"
       y1="0"
       y2="1">
      <stop
         offset="0%"
         style="stop-color: #b2ced6; stop-opacity:1"
         id="stop15" />
      <stop
         offset="100%"
         style="stop-color: #6da5b7; stop-opacity:1"
         id="stop16" />
    </linearGradient>
    <linearGradient
       id="60spsycho"
       x1="0"
       x2="0"
       y1="0"
       y2="1">
      <stop
         offset="0%"
         style="stop-color: #df5940; stop-opacity:1"
         id="stop17" />
      <stop
         offset="25%"
         style="stop-color: #d8d15f; stop-opacity:1"
         id="stop18" />
      <stop
         offset="50%"
         style="stop-color: #e9882a; stop-opacity:1"
         id="stop19" />
      <stop
         offset="100%"
         style="stop-color: #279362; stop-opacity:1"
         id="stop20" />
    </linearGradient>
    <linearGradient
       id="90ssummer"
       x1="0"
       x2="0"
       y1="0"
       y2="1">
      <stop
         offset="0%"
         style="stop-color: #f618c7; stop-opacity:1"
         id="stop21" />
      <stop
         offset="20%"
         style="stop-color: #94ffab; stop-opacity:1"
         id="stop22" />
      <stop
         offset="50%"
         style="stop-color: #fbfd54; stop-opacity:1"
         id="stop23" />
      <stop
         offset="100%"
         style="stop-color: #0f83ae; stop-opacity:1"
         id="stop24" />
    </linearGradient>
  </defs>
  <path
     id="path6"
     style="opacity:1;vector-effect:none;fill:url(#oomox);stroke-width:1.68538;stop-color:#000000;stop-opacity:1"
     class="ColorScheme-Text"
     d="M 12,4 C 11.861742,4 11.725899,4.0042 11.589285,4.011166 11.452673,4.018106 11.3156,4.028688 11.180803,4.042416 11.046006,4.056144 10.914061,4.073427 10.78125,4.093756 10.648438,4.114085 10.514585,4.136199 10.383929,4.162953 10.253273,4.189706 10.123867,4.219236 9.995536,4.252238 9.867204,4.285242 9.739677,4.322536 9.613839,4.3616128 9.488002,4.4006898 9.364244,4.4416348 9.241071,4.4866127 9.117899,4.5315897 8.9975711,4.5810017 8.8772321,4.6317019 l 2.0424109,3.5156198 c 0.08591,-0.023131 0.173078,-0.044431 0.26116,-0.062501 0.08809,-0.018069 0.177707,-0.034348 0.267857,-0.046875 0.09015,-0.012528 0.180203,-0.022513 0.272322,-0.029017 C 11.813102,8.0024243 11.906012,8 12,8 c 0.09398,0 0.186898,0.00244 0.279018,0.00895 0.09212,0.00651 0.184403,0.016491 0.274553,0.029017 0.09015,0.012527 0.179775,0.028804 0.267857,0.046876 0.08809,0.018069 0.175248,0.039372 0.261162,0.062501 L 15.124998,4.6316964 C 15.00466,4.5809961 14.8821,4.531584 14.758927,4.486607 14.635753,4.4416304 14.511998,4.4006849 14.386163,4.361607 14.260323,4.3225295 14.132796,4.2852355 14.004465,4.2522321 13.876133,4.2192288 13.746727,4.1896999 13.616071,4.1629463 13.485415,4.1361927 13.353793,4.1140783 13.220982,4.09375 13.088171,4.0734219 12.953994,4.0561385 12.819197,4.0424108 12.6844,4.0286831 12.547327,4.0181122 12.410715,4.0111606 12.274102,4.0042092 12.138258,4 12,4 Z M 7.1316964,5.6361606 C 7.0264299,5.7157668 6.9248223,5.7994166 6.8236608,5.8839287 6.7224987,5.9684409 6.6214256,6.053623 6.5245538,6.1428574 6.4276814,6.2320913 6.3334685,6.3236388 6.2410714,6.4174107 6.1486743,6.5111824 6.0587188,6.6072319 5.970982,6.7053572 5.8832459,6.8034825 5.7971769,6.9044016 5.7142858,7.0066966 5.6313948,7.108991 5.551074,7.2129164 5.4732143,7.3191966 5.3953546,7.4254764 5.3226434,7.5350079 5.25,7.6450893 5.1773565,7.7551706 5.1074209,7.8662122 5.0401783,7.9799105 4.9729367,8.0936095 4.9076373,8.2087615 4.8459822,8.3258926 4.7843264,8.4430243 4.7232941,8.5626551 4.6674107,8.6830357 4.6115271,8.8034164 4.5610868,8.9256619 4.5111607,9.049107 4.4612347,9.172553 4.412087,9.297781 4.3683036,9.424108 4.3245206,9.550433 4.2852226,9.676781 4.2477679,9.805804 4.2103119,9.934827 4.1782639,10.064893 4.147321,10.196429 4.116379,10.327965 4.086744,10.462118 4.0625,10.595982 4.0382559,10.729846 4.0173603,10.863991 4,11 h 4.0959822 c 0.022904,-0.09032 0.047117,-0.180192 0.075892,-0.267857 0.028777,-0.08767 0.061533,-0.174144 0.095982,-0.258928 0.03445,-0.08479 0.071673,-0.166095 0.1116068,-0.247769 0.039935,-0.08167 0.082005,-0.162739 0.1272316,-0.241072 0.045227,-0.07834 0.094763,-0.155148 0.1450897,-0.22991 C 8.7021113,9.679704 8.7528009,9.606673 8.8080352,9.535714 8.8632682,9.464764 8.9221944,9.395052 8.9821426,9.328125 9.0420916,9.261195 9.105172,9.196591 9.169643,9.133929 Z m 9.7366086,0 -2.037947,3.4977684 c 0.06445,0.06266 0.127551,0.12727 0.187501,0.194196 0.05992,0.06692 0.118875,0.13663 0.174107,0.207589 0.05524,0.07096 0.108168,0.143988 0.158479,0.21875 0.05034,0.07476 0.09762,0.151579 0.142858,0.22991 0.04521,0.07834 0.08731,0.159399 0.127231,0.241072 0.03993,0.08168 0.0794,0.162984 0.113843,0.247769 0.03445,0.08479 0.06499,0.171264 0.09377,0.258928 0.02878,0.08767 0.05299,0.177542 0.07588,0.267857 H 20 C 19.98266,10.863991 19.96175,10.729846 19.93749,10.595982 19.91326,10.462118 19.88585,10.327965 19.8549,10.196429 19.82396,10.064893 19.78968,9.934827 19.752223,9.805804 19.714773,9.676781 19.675473,9.550433 19.63169,9.424108 19.58791,9.297781 19.538764,9.172553 19.488838,9.049107 19.438912,8.9256619 19.388474,8.8034164 19.332591,8.6830357 19.276705,8.5626551 19.217907,8.4430243 19.156252,8.3258926 19.094594,8.2087615 19.029296,8.0936095 18.962055,7.9799105 18.894814,7.8662122 18.822647,7.7551706 18.750003,7.6450893 18.677354,7.5350079 18.604644,7.4254764 18.526784,7.3191966 18.448927,7.2129164 18.368606,7.108991 18.285716,7.0066966 18.202826,6.9044016 18.116756,6.8034825 18.029015,6.7053572 17.941281,6.6072319 17.851327,6.5111824 17.758927,6.4174107 17.666533,6.3236388 17.572319,6.2320913 17.47545,6.1428574 17.378574,6.053623 17.279731,5.9684409 17.178571,5.8839287 17.07741,5.7994166 16.973571,5.7157668 16.868305,5.6361606 Z M 4,13 c 0.01736,0.136009 0.038255,0.270154 0.0625,0.404018 0.024244,0.133864 0.053879,0.268018 0.084821,0.399553 0.030943,0.131536 0.062991,0.261602 0.1004469,0.390625 0.037456,0.129024 0.076752,0.255371 0.1205357,0.381694 0.043782,0.126331 0.092931,0.251559 0.1428571,0.375003 0.049925,0.123447 0.1003658,0.245694 0.1562498,0.366071 0.055882,0.120379 0.1169158,0.240011 0.1785716,0.357143 0.061654,0.11713 0.1269545,0.232283 0.1941962,0.345985 0.067241,0.113699 0.1371782,0.224736 0.2098218,0.334818 0.072643,0.11008 0.1453546,0.219614 0.2232142,0.325893 0.077863,0.106262 0.1581805,0.210207 0.2410716,0.3125 0.08289,0.102294 0.1689601,0.203213 0.2566963,0.301341 0.087735,0.09809 0.1776924,0.194174 0.2700893,0.287945 0.092396,0.09379 0.1866101,0.185317 0.2834824,0.274552 0.09687,0.08925 0.1979448,0.174418 0.2991069,0.258927 0.1011606,0.08452 0.2027692,0.168163 0.3080356,0.247771 L 9.169643,14.86607 C 9.105172,14.80341 9.042091,14.738803 8.9821429,14.671874 8.9221949,14.604945 8.8632688,14.535244 8.8080355,14.464287 8.7528028,14.393325 8.7021119,14.320298 8.6517859,14.245537 8.6014595,14.170773 8.551923,14.093957 8.5066967,14.015626 8.4614699,13.937293 8.4193989,13.856227 8.3794645,13.774554 8.3395297,13.69288 8.3023079,13.61157 8.2678571,13.526786 8.2334062,13.442001 8.2006498,13.355521 8.1718749,13.267857 8.1431005,13.180193 8.1188886,13.090315 8.0959822,13 Z m 11.904018,0 c -0.02289,0.09032 -0.04709,0.180193 -0.07588,0.267857 -0.02878,0.08767 -0.0593,0.174144 -0.09377,0.258929 -0.03448,0.08479 -0.0739,0.166094 -0.113842,0.247768 -0.03993,0.08167 -0.08199,0.162739 -0.127231,0.241072 -0.04521,0.07833 -0.09256,0.155147 -0.142858,0.229911 -0.0503,0.07477 -0.103275,0.147789 -0.15848,0.21875 -0.05526,0.07094 -0.114162,0.140661 -0.174107,0.207587 -0.05996,0.06693 -0.123029,0.131534 -0.1875,0.194196 l 2.037946,3.497769 c 0.10528,-0.07963 0.209105,-0.163252 0.310267,-0.247771 0.101152,-0.08452 0.200003,-0.169689 0.296873,-0.258927 0.0969,-0.08925 0.191089,-0.180779 0.283482,-0.274552 0.09242,-0.09379 0.182354,-0.189821 0.27009,-0.287945 0.08775,-0.0981 0.173808,-0.199048 0.256698,-0.301341 0.0829,-0.102293 0.163212,-0.20622 0.241069,-0.3125 0.07788,-0.106261 0.150571,-0.215812 0.223214,-0.325893 0.07263,-0.11008 0.144811,-0.221122 0.212057,-0.334818 0.06724,-0.113706 0.132539,-0.228855 0.194193,-0.345985 0.06169,-0.117132 0.120456,-0.236763 0.176344,-0.357143 0.05589,-0.120376 0.106294,-0.242624 0.156246,-0.366071 0.04991,-0.123444 0.09908,-0.248672 0.142858,-0.375003 0.04377,-0.126323 0.08308,-0.25267 0.120534,-0.381694 0.03743,-0.129023 0.07175,-0.259089 0.102666,-0.390625 0.03092,-0.131535 0.05836,-0.265689 0.0826,-0.399553 C 19.961737,13.270154 19.982643,13.136009 20,13 Z m -4.984375,2.852677 -2.0424109,3.515628 c 0.120339,0.05071 0.2406669,0.100139 0.3638389,0.145089 0.123173,0.04498 0.246931,0.08594 0.372768,0.125 0.125838,0.03906 0.253365,0.07637 0.381697,0.109371 0.128331,0.03302 0.257737,0.06253 0.388393,0.0893 0.130656,0.02676 0.264509,0.04887 0.397321,0.06919 0.132811,0.02034 0.264756,0.03759 0.399553,0.05134 0.134797,0.01375 0.27187,0.02429 0.408482,0.03124 C 11.725899,19.995793 11.861742,20 12,20 c 0.138258,0 0.274102,-0.0042 0.410715,-0.0112 0.136612,-0.0067 0.273685,-0.01751 0.408482,-0.03123 0.134797,-0.01375 0.268974,-0.03099 0.401785,-0.05134 0.132811,-0.02035 0.264433,-0.04244 0.395089,-0.06919 0.130656,-0.02676 0.260062,-0.05627 0.388394,-0.0893 0.128331,-0.03301 0.255858,-0.07029 0.381698,-0.109367 0.125835,-0.03906 0.24959,-0.08002 0.372764,-0.125003 0.123173,-0.04498 0.245733,-0.09439 0.366071,-0.145086 l -2.042408,-3.5156 c -0.08591,0.02313 -0.17308,0.04445 -0.261162,0.06251 -0.08808,0.01806 -0.177705,0.0344 -0.267857,0.04687 -0.09015,0.01253 -0.182433,0.02252 -0.274553,0.029 -0.09212,0.0063 -0.18503,0.0092 -0.279018,0.0092 -0.09398,0 -0.186898,-0.0023 -0.279018,-0.0092 -0.09212,-0.0063 -0.18217,-0.01648 -0.272322,-0.029 -0.09014,-0.01253 -0.179775,-0.02882 -0.267857,-0.04686 -0.08808,-0.01806 -0.175247,-0.03939 -0.26116,-0.06251 z" />
  <metadata
     id="metadata24">
    <rdf:RDF>
      <cc:Work
         rdf:about="">
        <dc:creator>
          <cc:Agent>
            <dc:title>dreifacherspass</dc:title>
          </cc:Agent>
        </dc:creator>
        <cc:license
           rdf:resource="http://creativecommons.org/licenses/by-sa/4.0/" />
      </cc:Work>
      <cc:License
         rdf:about="http://creativecommons.org/licenses/by-sa/4.0/">
        <cc:permits
           rdf:resource="http://creativecommons.org/ns#Reproduction" />
        <cc:permits
           rdf:resource="http://creativecommons.org/ns#Distribution" />
        <cc:requires
           rdf:resource="http://creativecommons.org/ns#Notice" />
        <cc:requires
           rdf:resource="http://creativecommons.org/ns#Attribution" />
        <cc:permits
           rdf:resource="http://creativecommons.org/ns#DerivativeWorks" />
        <cc:requires
           rdf:resource="http://creativecommons.org/ns#ShareAlike" />
      </cc:License>
    </rdf:RDF>
  </metadata>
</svg>
