<?xml version="1.0" encoding="UTF-8" standalone="no"?>
<!-- Created with Inkscape (http://www.inkscape.org/) -->

<svg
   width="24"
   height="24"
   viewBox="0 0 24 24"
   version="1.1"
   id="svg689"
   xmlns:xlink="http://www.w3.org/1999/xlink"
   xmlns="http://www.w3.org/2000/svg"
   xmlns:svg="http://www.w3.org/2000/svg"
   xmlns:rdf="http://www.w3.org/1999/02/22-rdf-syntax-ns#"
   xmlns:cc="http://creativecommons.org/ns#"
   xmlns:dc="http://purl.org/dc/elements/1.1/">
  <defs>
   <style id="current-color-scheme" type="text/css">
   .ColorScheme-Text { color: #0abdc6; } .ColorScheme-Highlight { color:#5294e2; }
  </style>
  <linearGradient id="arrongin" x1="0%" x2="0%" y1="0%" y2="100%">
   <stop offset="0%" style="stop-color:#dd9b44; stop-opacity:1"/>
   <stop offset="100%" style="stop-color:#ad6c16; stop-opacity:1"/>
  </linearGradient>
  <linearGradient id="aurora" x1="0%" x2="0%" y1="0%" y2="100%">
   <stop offset="0%" style="stop-color:#09D4DF; stop-opacity:1"/>
   <stop offset="100%" style="stop-color:#9269F4; stop-opacity:1"/>
  </linearGradient>
  <linearGradient id="cyberneon" x1="0%" x2="0%" y1="0%" y2="100%">
    <stop offset="0" style="stop-color:#0abdc6; stop-opacity:1"/>
    <stop offset="1" style="stop-color:#ea00d9; stop-opacity:1"/>
  </linearGradient>
  <linearGradient id="fitdance" x1="0%" x2="0%" y1="0%" y2="100%">
   <stop offset="0%" style="stop-color:#1AD6AB; stop-opacity:1"/>
   <stop offset="100%" style="stop-color:#329DB6; stop-opacity:1"/>
  </linearGradient>
  <linearGradient id="oomox" x1="0%" x2="0%" y1="0%" y2="100%">
   <stop offset="0%" style="stop-color:#0abdc6; stop-opacity:1"/>
   <stop offset="100%" style="stop-color:#b800ff; stop-opacity:1"/>
  </linearGradient>
  <linearGradient id="rainblue" x1="0%" x2="0%" y1="0%" y2="100%">
   <stop offset="0%" style="stop-color:#00F260; stop-opacity:1"/>
   <stop offset="100%" style="stop-color:#0575E6; stop-opacity:1"/>
  </linearGradient>
  <linearGradient id="sunrise" x1="0%" x2="0%" y1="0%" y2="100%">
   <stop offset="0%" style="stop-color: #FF8501; stop-opacity:1"/>
   <stop offset="100%" style="stop-color: #FFCB01; stop-opacity:1"/>
  </linearGradient>
  <linearGradient id="telinkrin" x1="0%" x2="0%" y1="0%" y2="100%">
   <stop offset="0%" style="stop-color: #b2ced6; stop-opacity:1"/>
   <stop offset="100%" style="stop-color: #6da5b7; stop-opacity:1"/>
  </linearGradient>
  <linearGradient id="60spsycho" x1="0%" x2="0%" y1="0%" y2="100%">
   <stop offset="0%" style="stop-color: #df5940; stop-opacity:1"/>
   <stop offset="25%" style="stop-color: #d8d15f; stop-opacity:1"/>
   <stop offset="50%" style="stop-color: #e9882a; stop-opacity:1"/>
   <stop offset="100%" style="stop-color: #279362; stop-opacity:1"/>
  </linearGradient>
  <linearGradient id="90ssummer" x1="0%" x2="0%" y1="0%" y2="100%">
   <stop offset="0%" style="stop-color: #f618c7; stop-opacity:1"/>
   <stop offset="20%" style="stop-color: #94ffab; stop-opacity:1"/>
   <stop offset="50%" style="stop-color: #fbfd54; stop-opacity:1"/>
   <stop offset="100%" style="stop-color: #0f83ae; stop-opacity:1"/>
  </linearGradient>
 </defs>
  <path
     id="path63"
     class="ColorScheme-Text"
     style="opacity:0.402542;fill:url(#oomox);fill-opacity:1;stroke:none;stroke-width:1.49998;stroke-miterlimit:10;stroke-dasharray:none;paint-order:stroke fill markers"
     d="M 12,3 C 11.169,3 10.5,3.669 10.5,4.5 V 9.1904251 A 6,6 0 0 1 14.809575,13.5 H 19.5 C 20.331,13.5 21,12.831 21,12 V 4.5 C 21,3.669 20.331,3 19.5,3 Z" />
  <path
     id="path65-3"
     class="ColorScheme-Text"
     style="display:inline;opacity:0.800847;fill:url(#oomox);fill-opacity:1;stroke:none;stroke-width:1.5;stroke-miterlimit:10;stroke-dasharray:none;paint-order:stroke fill markers"
     d="m 9,9 c -3.3137067,0 -6,2.686294 -6,6 0,3.313707 2.6862933,6 6,6 3.313706,0 6,-2.686293 6,-6 H 12 C 10.350977,15 9,13.649024 9,12 Z m 1.5,0.1904296 V 12 c 0,0.830999 0.669001,1.5 1.5,1.5 h 2.80957 A 6,6 0 0 0 10.5,9.1904296 Z" />
  <path
     id="path66"
     class="ColorScheme-Text"
     style="display:inline;fill:url(#oomox);stroke:none;stroke-width:1.5;stroke-miterlimit:10;-inkscape-stroke:none;paint-order:stroke fill markers"
     d="M 11.25,0 C 9.1854749,0 7.5,1.6854751 7.5,3.75 V 6.12597 C 3.24999,6.8428349 0,10.549635 0,15 c 0,4.961669 4.03833,9 9,9 4.450365,0 8.157165,-3.249991 8.874029,-7.5 H 20.25 c 2.064525,0 3.75,-1.685475 3.75,-3.75 v -9 C 24,1.6854751 22.314525,0 20.25,0 Z m 0,1.5 h 9 c 1.259475,0 2.25,0.9905251 2.25,2.25 v 9 C 22.5,14.009475 21.509475,15 20.25,15 H 18 16.5 a 7.5,7.5 0 0 1 -0.16992,1.5 h 0.02055 c -0.692146,3.429165 -3.713296,6 -7.3505858,6 -4.15101,0 -7.5,-3.348991 -7.5,-7.5 0,-3.637289 2.570835,-6.65844 6,-7.3505849 v 0.020551 A 7.5,7.5 0 0 1 9,7.5 V 6 3.75 C 9,2.4905251 9.9905251,1.5 11.25,1.5 Z" />
  <metadata
     id="metadata15">
    <rdf:RDF>
      <cc:Work
         rdf:about="">
        <dc:creator>
          <cc:Agent>
            <dc:title>dreifacherspass</dc:title>
          </cc:Agent>
        </dc:creator>
        <cc:license
           rdf:resource="http://creativecommons.org/licenses/by-sa/4.0/" />
      </cc:Work>
      <cc:License
         rdf:about="http://creativecommons.org/licenses/by-sa/4.0/">
        <cc:permits
           rdf:resource="http://creativecommons.org/ns#Reproduction" />
        <cc:permits
           rdf:resource="http://creativecommons.org/ns#Distribution" />
        <cc:requires
           rdf:resource="http://creativecommons.org/ns#Notice" />
        <cc:requires
           rdf:resource="http://creativecommons.org/ns#Attribution" />
        <cc:permits
           rdf:resource="http://creativecommons.org/ns#DerivativeWorks" />
        <cc:requires
           rdf:resource="http://creativecommons.org/ns#ShareAlike" />
      </cc:License>
    </rdf:RDF>
  </metadata>
</svg>
