<?xml version="1.0" encoding="UTF-8" standalone="no"?>
<svg
   id="svg8"
   version="1.1"
   viewBox="0 0 16 16"
   height="16"
   width="16"
   xmlns="http://www.w3.org/2000/svg"
   xmlns:svg="http://www.w3.org/2000/svg"
   xmlns:rdf="http://www.w3.org/1999/02/22-rdf-syntax-ns#"
   xmlns:cc="http://creativecommons.org/ns#"
   xmlns:dc="http://purl.org/dc/elements/1.1/">
  <defs
     id="defs24">
    <style
       id="current-color-scheme"
       type="text/css">&#10;   .ColorScheme-Text { color: #0abdc6; } .ColorScheme-Highlight { color:#5294e2; }&#10;  </style>
    <linearGradient
       id="arrongin"
       x1="0%"
       x2="0%"
       y1="0%"
       y2="100%">
      <stop
         offset="0%"
         style="stop-color:#dd9b44; stop-opacity:1"
         id="stop1" />
      <stop
         offset="100%"
         style="stop-color:#ad6c16; stop-opacity:1"
         id="stop2" />
    </linearGradient>
    <linearGradient
       id="aurora"
       x1="0%"
       x2="0%"
       y1="0%"
       y2="100%">
      <stop
         offset="0%"
         style="stop-color:#09D4DF; stop-opacity:1"
         id="stop3" />
      <stop
         offset="100%"
         style="stop-color:#9269F4; stop-opacity:1"
         id="stop4" />
    </linearGradient>
    <linearGradient
       id="cyberneon"
       x1="0%"
       x2="0%"
       y1="0%"
       y2="100%">
      <stop
         offset="0"
         style="stop-color:#0abdc6; stop-opacity:1"
         id="stop5" />
      <stop
         offset="1"
         style="stop-color:#ea00d9; stop-opacity:1"
         id="stop6" />
    </linearGradient>
    <linearGradient
       id="fitdance"
       x1="0%"
       x2="0%"
       y1="0%"
       y2="100%">
      <stop
         offset="0%"
         style="stop-color:#1AD6AB; stop-opacity:1"
         id="stop7" />
      <stop
         offset="100%"
         style="stop-color:#329DB6; stop-opacity:1"
         id="stop8" />
    </linearGradient>
    <linearGradient
       id="oomox"
       x1="1"
       x2="1"
       y1="1"
       y2="15"
       gradientUnits="userSpaceOnUse"
       gradientTransform="matrix(1.142857,0,0,1.142857,-1.142857,-1.142857)">
      <stop
         offset="0%"
         style="stop-color:#0abdc6; stop-opacity:1"
         id="stop9" />
      <stop
         offset="100%"
         style="stop-color:#b800ff; stop-opacity:1"
         id="stop10" />
    </linearGradient>
    <linearGradient
       id="rainblue"
       x1="0%"
       x2="0%"
       y1="0%"
       y2="100%">
      <stop
         offset="0%"
         style="stop-color:#00F260; stop-opacity:1"
         id="stop11" />
      <stop
         offset="100%"
         style="stop-color:#0575E6; stop-opacity:1"
         id="stop12" />
    </linearGradient>
    <linearGradient
       id="sunrise"
       x1="0%"
       x2="0%"
       y1="0%"
       y2="100%">
      <stop
         offset="0%"
         style="stop-color: #FF8501; stop-opacity:1"
         id="stop13" />
      <stop
         offset="100%"
         style="stop-color: #FFCB01; stop-opacity:1"
         id="stop14" />
    </linearGradient>
    <linearGradient
       id="telinkrin"
       x1="0%"
       x2="0%"
       y1="0%"
       y2="100%">
      <stop
         offset="0%"
         style="stop-color: #b2ced6; stop-opacity:1"
         id="stop15" />
      <stop
         offset="100%"
         style="stop-color: #6da5b7; stop-opacity:1"
         id="stop16" />
    </linearGradient>
    <linearGradient
       id="60spsycho"
       x1="0%"
       x2="0%"
       y1="0%"
       y2="100%">
      <stop
         offset="0%"
         style="stop-color: #df5940; stop-opacity:1"
         id="stop17" />
      <stop
         offset="25%"
         style="stop-color: #d8d15f; stop-opacity:1"
         id="stop18" />
      <stop
         offset="50%"
         style="stop-color: #e9882a; stop-opacity:1"
         id="stop19" />
      <stop
         offset="100%"
         style="stop-color: #279362; stop-opacity:1"
         id="stop20" />
    </linearGradient>
    <linearGradient
       id="90ssummer"
       x1="0%"
       x2="0%"
       y1="0%"
       y2="100%">
      <stop
         offset="0%"
         style="stop-color: #f618c7; stop-opacity:1"
         id="stop21" />
      <stop
         offset="20%"
         style="stop-color: #94ffab; stop-opacity:1"
         id="stop22" />
      <stop
         offset="50%"
         style="stop-color: #fbfd54; stop-opacity:1"
         id="stop23" />
      <stop
         offset="100%"
         style="stop-color: #0f83ae; stop-opacity:1"
         id="stop24" />
    </linearGradient>
  </defs>
  <path
     id="path6"
     style="opacity:1;vector-effect:none;fill:url(#oomox);stroke-width:1.68538;stop-color:#000000;stop-opacity:1"
     class="ColorScheme-Text"
     d="M 8,0 C 7.861742,0 7.725899,0.0042 7.589285,0.011166 7.452673,0.018106 7.3156,0.028688 7.180803,0.042416 7.046006,0.056144 6.914061,0.073427 6.78125,0.093756 6.648438,0.114085 6.514585,0.136199 6.383929,0.162953 6.253273,0.189706 6.123867,0.219236 5.995536,0.252238 5.867204,0.285242 5.739677,0.322536 5.613839,0.3616128 5.488002,0.4006898 5.364244,0.4416348 5.241071,0.4866127 5.117899,0.5315897 4.9975711,0.5810017 4.8772321,0.6317019 L 6.919643,4.1473217 C 7.005553,4.1241907 7.092721,4.1028907 7.180803,4.0848207 7.268893,4.0667517 7.35851,4.0504727 7.44866,4.0379457 7.53881,4.0254177 7.628863,4.0154327 7.720982,4.0089287 7.813102,4.0024243 7.906012,4 8,4 8.09398,4 8.186898,4.00244 8.279018,4.00895 8.371138,4.01546 8.463421,4.025441 8.553571,4.037967 8.643721,4.050494 8.733346,4.066771 8.821428,4.084843 8.909518,4.102912 8.996676,4.124215 9.08259,4.147344 L 11.124998,0.6316964 C 11.00466,0.5809961 10.8821,0.531584 10.758927,0.486607 10.635753,0.4416304 10.511998,0.4006849 10.386163,0.361607 10.260323,0.3225295 10.132796,0.2852355 10.004465,0.2522321 9.876133,0.2192288 9.746727,0.1896999 9.616071,0.1629463 9.485415,0.1361927 9.353793,0.1140783 9.220982,0.09375 9.088171,0.0734219 8.953994,0.0561385 8.819197,0.0424108 8.6844,0.0286831 8.547327,0.0181122 8.410715,0.0111606 8.274102,0.0042092 8.138258,0 8,0 Z M 3.1316964,1.6361606 C 3.0264299,1.7157668 2.9248223,1.7994166 2.8236608,1.8839287 2.7224987,1.9684409 2.6214256,2.053623 2.5245538,2.1428574 2.4276814,2.2320913 2.3334685,2.3236388 2.2410714,2.4174107 2.1486743,2.5111824 2.0587188,2.6072319 1.970982,2.7053572 1.8832459,2.8034825 1.7971769,2.9044016 1.7142858,3.0066966 1.6313948,3.108991 1.551074,3.2129164 1.4732143,3.3191966 1.3953546,3.4254764 1.3226434,3.5350079 1.25,3.6450893 1.1773565,3.7551706 1.1074209,3.8662122 1.0401783,3.9799105 0.9729367,4.0936095 0.9076373,4.2087615 0.8459822,4.3258926 0.7843264,4.4430243 0.7232941,4.5626551 0.6674107,4.6830357 0.6115271,4.8034164 0.5610868,4.9256619 0.5111607,5.049107 0.4612347,5.172553 0.412087,5.297781 0.3683036,5.424108 0.3245206,5.550433 0.2852226,5.676781 0.2477679,5.805804 0.2103119,5.934827 0.1782639,6.064893 0.147321,6.196429 0.116379,6.327965 0.086744,6.462118 0.0625,6.595982 0.0382559,6.729846 0.0173603,6.863991 0,7 H 4.0959822 C 4.1188862,6.90968 4.1430992,6.819808 4.1718742,6.732143 4.2006512,6.644473 4.2334072,6.557999 4.2678562,6.473215 4.3023062,6.388425 4.3395292,6.30712 4.379463,6.225446 4.419398,6.143776 4.461468,6.062707 4.5066946,5.984374 4.5519216,5.906034 4.6014576,5.829226 4.6517843,5.754464 4.7021113,5.679704 4.7528009,5.606673 4.8080352,5.535714 4.8632682,5.464764 4.9221944,5.395052 4.9821426,5.328125 5.0420916,5.261195 5.105172,5.196591 5.169643,5.133929 Z m 9.7366086,0 -2.037947,3.4977684 c 0.06445,0.06266 0.127551,0.12727 0.187501,0.194196 0.05992,0.06692 0.118875,0.13663 0.174107,0.207589 0.05524,0.07096 0.108168,0.143988 0.158479,0.21875 0.05034,0.07476 0.09762,0.151579 0.142858,0.22991 0.04521,0.07834 0.08731,0.159399 0.127231,0.241072 0.03993,0.08168 0.0794,0.162984 0.113843,0.247769 0.03445,0.08479 0.06499,0.171264 0.09377,0.258928 0.02878,0.08767 0.05299,0.177542 0.07588,0.267857 H 16 C 15.98266,6.863991 15.96175,6.729846 15.93749,6.595982 15.91326,6.462118 15.88585,6.327965 15.8549,6.196429 15.82396,6.064893 15.78968,5.934827 15.752223,5.805804 15.714773,5.676781 15.675473,5.550433 15.63169,5.424108 15.58791,5.297781 15.538764,5.172553 15.488838,5.049107 15.438912,4.9256619 15.388474,4.8034164 15.332591,4.6830357 15.276705,4.5626551 15.217907,4.4430243 15.156252,4.3258926 15.094594,4.2087615 15.029296,4.0936095 14.962055,3.9799105 14.894814,3.8662122 14.822647,3.7551706 14.750003,3.6450893 14.677354,3.5350079 14.604644,3.4254764 14.526784,3.3191966 14.448927,3.2129164 14.368606,3.108991 14.285716,3.0066966 14.202826,2.9044016 14.116756,2.8034825 14.029015,2.7053572 13.941281,2.6072319 13.851327,2.5111824 13.758927,2.4174107 13.666533,2.3236388 13.572319,2.2320913 13.47545,2.1428574 13.378574,2.053623 13.279731,1.9684409 13.178571,1.8839287 13.07741,1.7994166 12.973571,1.7157668 12.868305,1.6361606 Z M 0,9 c 0.01736,0.136009 0.038255,0.270154 0.0625,0.404018 0.024244,0.133864 0.053879,0.268018 0.084821,0.399553 0.030943,0.131536 0.062991,0.261602 0.1004469,0.390625 0.037456,0.129024 0.076752,0.255371 0.1205357,0.381694 0.043782,0.126331 0.092931,0.251559 0.1428571,0.375003 0.049925,0.123447 0.1003658,0.245694 0.1562498,0.366071 0.055882,0.120379 0.1169158,0.240011 0.1785716,0.357143 0.061654,0.11713 0.1269545,0.232283 0.1941962,0.345985 0.067241,0.113699 0.1371782,0.224736 0.2098218,0.334818 0.072643,0.11008 0.1453546,0.219614 0.2232142,0.325893 0.077863,0.106262 0.1581805,0.210207 0.2410716,0.3125 0.08289,0.102294 0.1689601,0.203213 0.2566963,0.301341 0.087735,0.09809 0.1776924,0.194174 0.2700893,0.287945 0.092396,0.09379 0.1866101,0.185317 0.2834824,0.274552 0.09687,0.08925 0.1979448,0.174418 0.2991069,0.258927 0.1011606,0.08452 0.2027692,0.168163 0.3080356,0.247771 L 5.169643,10.86607 C 5.105172,10.80341 5.042091,10.738803 4.9821429,10.671874 4.9221949,10.604945 4.8632688,10.535244 4.8080355,10.464287 4.7528028,10.393325 4.7021119,10.320298 4.6517859,10.245537 4.6014595,10.170773 4.551923,10.093957 4.5066967,10.015626 4.4614699,9.937293 4.4193989,9.856227 4.3794645,9.774554 4.3395297,9.69288 4.3023079,9.61157 4.2678571,9.526786 4.2334062,9.442001 4.2006498,9.355521 4.1718749,9.267857 4.1431005,9.180193 4.1188886,9.090315 4.0959822,9 Z m 11.904018,0 c -0.02289,0.09032 -0.04709,0.180193 -0.07588,0.267857 -0.02878,0.08767 -0.0593,0.174144 -0.09377,0.258929 -0.03448,0.08479 -0.0739,0.166094 -0.113842,0.247768 -0.03993,0.08167 -0.08199,0.162739 -0.127231,0.241072 -0.04521,0.07833 -0.09256,0.155147 -0.142858,0.229911 -0.0503,0.07477 -0.103275,0.147789 -0.15848,0.21875 -0.05526,0.07094 -0.114162,0.140661 -0.174107,0.207587 -0.05996,0.06693 -0.123029,0.131534 -0.1875,0.194196 l 2.037946,3.497769 c 0.10528,-0.07963 0.209105,-0.163252 0.310267,-0.247771 0.101152,-0.08452 0.200003,-0.169689 0.296873,-0.258927 0.0969,-0.08925 0.191089,-0.180779 0.283482,-0.274552 0.09242,-0.09379 0.182354,-0.189821 0.27009,-0.287945 0.08775,-0.0981 0.173808,-0.199048 0.256698,-0.301341 0.0829,-0.102293 0.163212,-0.20622 0.241069,-0.3125 0.07788,-0.106261 0.150571,-0.215812 0.223214,-0.325893 0.07263,-0.11008 0.144811,-0.221122 0.212057,-0.334818 0.06724,-0.113706 0.132539,-0.228855 0.194193,-0.345985 0.06169,-0.117132 0.120456,-0.236763 0.176344,-0.357143 0.05589,-0.120376 0.106294,-0.242624 0.156246,-0.366071 0.04991,-0.123444 0.09908,-0.248672 0.142858,-0.375003 0.04377,-0.126323 0.08308,-0.25267 0.120534,-0.381694 0.03743,-0.129023 0.07175,-0.259089 0.102666,-0.390625 0.03092,-0.131535 0.05836,-0.265689 0.0826,-0.399553 C 15.961737,9.270154 15.982643,9.136009 16,9 Z m -4.984375,2.852677 -2.0424109,3.515628 c 0.120339,0.05071 0.2406669,0.100139 0.3638389,0.145089 0.123173,0.04498 0.246931,0.08594 0.372768,0.125 0.125838,0.03906 0.253365,0.07637 0.381697,0.109371 0.128331,0.03302 0.257737,0.06253 0.388393,0.0893 0.130656,0.02676 0.264509,0.04887 0.397321,0.06919 0.132811,0.02034 0.264756,0.03759 0.399553,0.05134 0.134797,0.01375 0.27187,0.02429 0.408482,0.03124 C 7.725899,15.995793 7.861742,16 8,16 8.138258,16 8.274102,15.9958 8.410715,15.9888 8.547327,15.9821 8.6844,15.97129 8.819197,15.95757 c 0.134797,-0.01375 0.268974,-0.03099 0.401785,-0.05134 0.132811,-0.02035 0.264433,-0.04244 0.395089,-0.06919 0.130656,-0.02676 0.260062,-0.05627 0.388394,-0.0893 0.128331,-0.03301 0.255858,-0.07029 0.381698,-0.109367 0.125835,-0.03906 0.24959,-0.08002 0.372764,-0.125003 0.123173,-0.04498 0.245733,-0.09439 0.366071,-0.145086 l -2.042408,-3.5156 c -0.08591,0.02313 -0.17308,0.04445 -0.261162,0.06251 -0.08808,0.01806 -0.177705,0.0344 -0.267857,0.04687 -0.09015,0.01253 -0.182433,0.02252 -0.274553,0.029 -0.09212,0.0063 -0.18503,0.0092 -0.279018,0.0092 -0.09398,0 -0.186898,-0.0023 -0.279018,-0.0092 -0.09212,-0.0063 -0.18217,-0.01648 -0.272322,-0.029 -0.09014,-0.01253 -0.179775,-0.02882 -0.267857,-0.04686 -0.08808,-0.01806 -0.175247,-0.03939 -0.26116,-0.06251 z" />
  <metadata
     id="metadata24">
    <rdf:RDF>
      <cc:Work
         rdf:about="">
        <dc:creator>
          <cc:Agent>
            <dc:title>dreifacherspass</dc:title>
          </cc:Agent>
        </dc:creator>
        <cc:license
           rdf:resource="http://creativecommons.org/licenses/by-sa/4.0/" />
      </cc:Work>
      <cc:License
         rdf:about="http://creativecommons.org/licenses/by-sa/4.0/">
        <cc:permits
           rdf:resource="http://creativecommons.org/ns#Reproduction" />
        <cc:permits
           rdf:resource="http://creativecommons.org/ns#Distribution" />
        <cc:requires
           rdf:resource="http://creativecommons.org/ns#Notice" />
        <cc:requires
           rdf:resource="http://creativecommons.org/ns#Attribution" />
        <cc:permits
           rdf:resource="http://creativecommons.org/ns#DerivativeWorks" />
        <cc:requires
           rdf:resource="http://creativecommons.org/ns#ShareAlike" />
      </cc:License>
    </rdf:RDF>
  </metadata>
</svg>
