<?xml version="1.0" encoding="UTF-8" standalone="no"?>

<svg
   version="1.1"
   id="svg1"
   width="16"
   height="16"
   viewBox="0 0 16 16"
   xmlns="http://www.w3.org/2000/svg"
   xmlns:svg="http://www.w3.org/2000/svg"
   xmlns:rdf="http://www.w3.org/1999/02/22-rdf-syntax-ns#"
   xmlns:cc="http://creativecommons.org/ns#"
   xmlns:dc="http://purl.org/dc/elements/1.1/">
  <defs>
   <style id="current-color-scheme" type="text/css">
   .ColorScheme-Text { color: #0abdc6; } .ColorScheme-Highlight { color:#5294e2; }
  </style>
  <linearGradient id="arrongin" x1="0%" x2="0%" y1="0%" y2="100%">
   <stop offset="0%" style="stop-color:#dd9b44; stop-opacity:1"/>
   <stop offset="100%" style="stop-color:#ad6c16; stop-opacity:1"/>
  </linearGradient>
  <linearGradient id="aurora" x1="0%" x2="0%" y1="0%" y2="100%">
   <stop offset="0%" style="stop-color:#09D4DF; stop-opacity:1"/>
   <stop offset="100%" style="stop-color:#9269F4; stop-opacity:1"/>
  </linearGradient>
  <linearGradient id="cyberneon" x1="0%" x2="0%" y1="0%" y2="100%">
    <stop offset="0" style="stop-color:#0abdc6; stop-opacity:1"/>
    <stop offset="1" style="stop-color:#ea00d9; stop-opacity:1"/>
  </linearGradient>
  <linearGradient id="fitdance" x1="0%" x2="0%" y1="0%" y2="100%">
   <stop offset="0%" style="stop-color:#1AD6AB; stop-opacity:1"/>
   <stop offset="100%" style="stop-color:#329DB6; stop-opacity:1"/>
  </linearGradient>
  <linearGradient id="oomox" x1="0%" x2="0%" y1="0%" y2="100%">
   <stop offset="0%" style="stop-color:#0abdc6; stop-opacity:1"/>
   <stop offset="100%" style="stop-color:#b800ff; stop-opacity:1"/>
  </linearGradient>
  <linearGradient id="rainblue" x1="0%" x2="0%" y1="0%" y2="100%">
   <stop offset="0%" style="stop-color:#00F260; stop-opacity:1"/>
   <stop offset="100%" style="stop-color:#0575E6; stop-opacity:1"/>
  </linearGradient>
  <linearGradient id="sunrise" x1="0%" x2="0%" y1="0%" y2="100%">
   <stop offset="0%" style="stop-color: #FF8501; stop-opacity:1"/>
   <stop offset="100%" style="stop-color: #FFCB01; stop-opacity:1"/>
  </linearGradient>
  <linearGradient id="telinkrin" x1="0%" x2="0%" y1="0%" y2="100%">
   <stop offset="0%" style="stop-color: #b2ced6; stop-opacity:1"/>
   <stop offset="100%" style="stop-color: #6da5b7; stop-opacity:1"/>
  </linearGradient>
  <linearGradient id="60spsycho" x1="0%" x2="0%" y1="0%" y2="100%">
   <stop offset="0%" style="stop-color: #df5940; stop-opacity:1"/>
   <stop offset="25%" style="stop-color: #d8d15f; stop-opacity:1"/>
   <stop offset="50%" style="stop-color: #e9882a; stop-opacity:1"/>
   <stop offset="100%" style="stop-color: #279362; stop-opacity:1"/>
  </linearGradient>
  <linearGradient id="90ssummer" x1="0%" x2="0%" y1="0%" y2="100%">
   <stop offset="0%" style="stop-color: #f618c7; stop-opacity:1"/>
   <stop offset="20%" style="stop-color: #94ffab; stop-opacity:1"/>
   <stop offset="50%" style="stop-color: #fbfd54; stop-opacity:1"/>
   <stop offset="100%" style="stop-color: #0f83ae; stop-opacity:1"/>
  </linearGradient>
 </defs>
  <metadata
     id="metadata13">
    <rdf:RDF>
      <cc:Work
         rdf:about="">
        <dc:creator>
          <cc:Agent>
            <dc:title>dreifacherspass</dc:title>
          </cc:Agent>
        </dc:creator>
        <cc:license
           rdf:resource="http://creativecommons.org/licenses/by-sa/4.0/" />
      </cc:Work>
      <cc:License
         rdf:about="http://creativecommons.org/licenses/by-sa/4.0/">
        <cc:permits
           rdf:resource="http://creativecommons.org/ns#Reproduction" />
        <cc:permits
           rdf:resource="http://creativecommons.org/ns#Distribution" />
        <cc:requires
           rdf:resource="http://creativecommons.org/ns#Notice" />
        <cc:requires
           rdf:resource="http://creativecommons.org/ns#Attribution" />
        <cc:permits
           rdf:resource="http://creativecommons.org/ns#DerivativeWorks" />
        <cc:requires
           rdf:resource="http://creativecommons.org/ns#ShareAlike" />
      </cc:License>
    </rdf:RDF>
  </metadata>
  <path
     id="path9609"
     class="ColorScheme-Text"
     d="m 7.2716958,1.1032142 c -0.8129483,0 -1.4758808,0.6623628 -1.4758808,1.4752864 0,0.079789 0.00879,0.1577508 0.020472,0.2341662 -0.3061742,0.3645942 -0.502247,0.808528 -0.5858323,1.2734297 -0.1706799,0.9475233 -0.026318,2.0090537 0.143533,3.1120461 0.2625032,1.70015 0.5557096,3.4659494 0.2899421,4.7505664 -0.023391,0 -0.048248,-0.0035 -0.072625,-0.0035 -0.3732354,0 -0.7113791,0.144276 -0.9717859,0.37431 C 3.152807,11.752678 2.4243211,11.173298 2.1493905,10.692033 1.7794216,10.044167 1.981099,9.3748137 2.3714893,8.5165811 2.7618316,7.6582382 3.3760268,6.7487262 3.3093044,5.6738457 3.2756747,5.1363591 3.0104923,4.5813999 2.5155581,4.1547382 2.0209664,3.7279558 1.3202617,3.3954014 0.33161283,3.1062296 L 0,4.2395183 C 0.89297623,4.5006708 1.4451273,4.7908756 1.7439886,5.0486935 2.0428007,5.3065712 2.1142999,5.4959619 2.1299446,5.7459581 2.1611331,6.2461743 1.7250785,7.0868007 1.296916,8.028091 0.86875351,8.9693532 0.48192053,10.150067 1.1250659,11.276255 c 0.4721724,0.826321 1.4064301,1.512645 2.991533,2.123542 0,0.007 0,0.01419 0,0.02122 0,0.812814 0.6632256,1.475852 1.4758808,1.475852 0.8129002,0 1.4776361,-0.663038 1.4776361,-1.475852 0,-0.334831 -0.1166757,-0.640678 -0.30622,-0.888756 C 7.2927504,10.826847 6.8143884,8.7776117 6.5424301,7.0175492 6.3758927,5.9392133 6.2742743,4.9570859 6.3935845,4.2953716 6.4252644,4.1179662 6.4656688,3.9694032 6.5176223,3.8391558 6.73938,3.9727706 6.9962775,4.0542994 7.2732552,4.0542994 c 0.4305509,0 0.8152874,-0.1893708 1.0851985,-0.4850394 0.7107437,0.3420622 1.0190108,0.6678266 1.146606,0.9383356 0.1936844,0.4107145 0.069354,0.9449791 -0.011725,1.7134989 -0.077936,0.7686066 0.014621,1.7890655 0.9065273,2.6570017 0.890878,0.8679445 2.450939,1.6279308 5.29279,2.3894118 L 16,10.125011 C 13.248572,9.3876163 11.853307,8.6455317 11.224048,8.0325993 10.595083,7.4196669 10.60308,6.9808745 10.668341,6.3410426 10.733016,5.7010946 10.981329,4.8751972 10.570273,4.0040999 10.284136,3.3980829 9.7145354,2.8924603 8.7412897,2.4480832 8.6748604,1.6959257 8.0411701,1.103131 7.2725247,1.103131 Z m 0,0.5905763 c 0.4957619,0 0.8846421,0.3887442 0.8846421,0.8847101 0,0.4958792 -0.3888802,0.8853046 -0.8846421,0.8853046 -0.4961031,0 -0.8852752,-0.3894254 -0.8852752,-0.8853046 0,-0.4959659 0.3891721,-0.8847101 0.8852752,-0.8847101 z M 5.5909203,12.535827 c 0.4957619,0 0.8870304,0.389306 0.8870304,0.885309 0,0.49584 -0.3912685,0.8847 -0.8870304,0.8847 -0.4958112,0 -0.8852753,-0.38886 -0.8852753,-0.8847 0,-0.496003 0.3894641,-0.885309 0.8852753,-0.885309 z"
     style="fill:url(#oomox);opacity:1;stroke-width:1.1725" />
</svg>
