<?xml version="1.0" encoding="UTF-8" standalone="no"?>

<svg
   version="1.1"
   id="svg1"
   width="16"
   height="16"
   viewBox="0 0 16 16"
   xmlns:xlink="http://www.w3.org/1999/xlink"
   xmlns="http://www.w3.org/2000/svg"
   xmlns:svg="http://www.w3.org/2000/svg"
   xmlns:rdf="http://www.w3.org/1999/02/22-rdf-syntax-ns#"
   xmlns:cc="http://creativecommons.org/ns#"
   xmlns:dc="http://purl.org/dc/elements/1.1/">
  <defs>
   <style id="current-color-scheme" type="text/css">
   .ColorScheme-Text { color: #0abdc6; } .ColorScheme-Highlight { color:#5294e2; }
  </style>
  <linearGradient id="arrongin" x1="0%" x2="0%" y1="0%" y2="100%">
   <stop offset="0%" style="stop-color:#dd9b44; stop-opacity:1"/>
   <stop offset="100%" style="stop-color:#ad6c16; stop-opacity:1"/>
  </linearGradient>
  <linearGradient id="aurora" x1="0%" x2="0%" y1="0%" y2="100%">
   <stop offset="0%" style="stop-color:#09D4DF; stop-opacity:1"/>
   <stop offset="100%" style="stop-color:#9269F4; stop-opacity:1"/>
  </linearGradient>
  <linearGradient id="cyberneon" x1="0%" x2="0%" y1="0%" y2="100%">
    <stop offset="0" style="stop-color:#0abdc6; stop-opacity:1"/>
    <stop offset="1" style="stop-color:#ea00d9; stop-opacity:1"/>
  </linearGradient>
  <linearGradient id="fitdance" x1="0%" x2="0%" y1="0%" y2="100%">
   <stop offset="0%" style="stop-color:#1AD6AB; stop-opacity:1"/>
   <stop offset="100%" style="stop-color:#329DB6; stop-opacity:1"/>
  </linearGradient>
  <linearGradient id="oomox" x1="0%" x2="0%" y1="0%" y2="100%">
   <stop offset="0%" style="stop-color:#0abdc6; stop-opacity:1"/>
   <stop offset="100%" style="stop-color:#b800ff; stop-opacity:1"/>
  </linearGradient>
  <linearGradient id="rainblue" x1="0%" x2="0%" y1="0%" y2="100%">
   <stop offset="0%" style="stop-color:#00F260; stop-opacity:1"/>
   <stop offset="100%" style="stop-color:#0575E6; stop-opacity:1"/>
  </linearGradient>
  <linearGradient id="sunrise" x1="0%" x2="0%" y1="0%" y2="100%">
   <stop offset="0%" style="stop-color: #FF8501; stop-opacity:1"/>
   <stop offset="100%" style="stop-color: #FFCB01; stop-opacity:1"/>
  </linearGradient>
  <linearGradient id="telinkrin" x1="0%" x2="0%" y1="0%" y2="100%">
   <stop offset="0%" style="stop-color: #b2ced6; stop-opacity:1"/>
   <stop offset="100%" style="stop-color: #6da5b7; stop-opacity:1"/>
  </linearGradient>
  <linearGradient id="60spsycho" x1="0%" x2="0%" y1="0%" y2="100%">
   <stop offset="0%" style="stop-color: #df5940; stop-opacity:1"/>
   <stop offset="25%" style="stop-color: #d8d15f; stop-opacity:1"/>
   <stop offset="50%" style="stop-color: #e9882a; stop-opacity:1"/>
   <stop offset="100%" style="stop-color: #279362; stop-opacity:1"/>
  </linearGradient>
  <linearGradient id="90ssummer" x1="0%" x2="0%" y1="0%" y2="100%">
   <stop offset="0%" style="stop-color: #f618c7; stop-opacity:1"/>
   <stop offset="20%" style="stop-color: #94ffab; stop-opacity:1"/>
   <stop offset="50%" style="stop-color: #fbfd54; stop-opacity:1"/>
   <stop offset="100%" style="stop-color: #0f83ae; stop-opacity:1"/>
  </linearGradient>
 </defs>
  <metadata
     id="metadata3170">
    <rdf:RDF>
      <cc:Work
         rdf:about="">
        <dc:creator>
          <cc:Agent>
            <dc:title>dreifacherspass</dc:title>
          </cc:Agent>
        </dc:creator>
        <cc:license
           rdf:resource="http://creativecommons.org/licenses/by-sa/4.0/" />
      </cc:Work>
      <cc:License
         rdf:about="http://creativecommons.org/licenses/by-sa/4.0/">
        <cc:permits
           rdf:resource="http://creativecommons.org/ns#Reproduction" />
        <cc:permits
           rdf:resource="http://creativecommons.org/ns#Distribution" />
        <cc:requires
           rdf:resource="http://creativecommons.org/ns#Notice" />
        <cc:requires
           rdf:resource="http://creativecommons.org/ns#Attribution" />
        <cc:permits
           rdf:resource="http://creativecommons.org/ns#DerivativeWorks" />
        <cc:requires
           rdf:resource="http://creativecommons.org/ns#ShareAlike" />
      </cc:License>
    </rdf:RDF>
  </metadata>
  <path
     style="opacity:1;fill:url(#oomox);fill-opacity:1;stroke-width:1.03603"
     d="M 1.7281919,2.6520764 C 1.5470496,2.6538377 1.3865662,2.7193151 1.2580178,2.828088 0.91520723,3.1181464 0.74200453,3.6604742 0.49269471,4.1979222 v 0.00344 l -0.002007,0.00201 C 0.33452279,4.5865898 0.29074459,4.8372026 0.30928253,5.0299823 c 0.0185257,0.1927799 0.10359403,0.3153539 0.15737826,0.4113422 0.0537768,0.095991 0.0879206,0.165298 0.0666793,0.3353503 -0.0212615,0.1700469 -0.11195276,0.4381384 -0.3407417,0.8707269 l -0.0186255,0.037262 0.005401,0.03873 c 0.0484518,0.3481399 0.0953962,0.5261094 0.18189307,0.6447147 0.043244,0.059305 0.10525114,0.1013905 0.1627726,0.1166875 0.0575314,0.015288 0.10380222,0.011421 0.13923931,0.011271 0.0708513,-2.511e-4 0.0960555,-0.00933 0.17012516,0.064716 0.074078,0.074046 0.18382587,0.2528618 0.30789337,0.6211813 l 0.00201,0.00884 0.0054,0.00931 c 0.3159211,0.5844068 0.6229109,0.7226144 0.8932841,0.8486701 0.0058,0.00269 0.011396,0.00612 0.01717,0.00881 l -0.94085,2.5715037 c -0.076795,-0.02217 -0.15615067,-0.03775 -0.23974587,-0.03775 -0.48238889,0 -0.878576772725,0.396189 -0.878576772725,0.878577 0,0.482389 0.396187882725,0.878088 0.878576772725,0.878088 0.48238877,0 0.87808717,-0.395699 0.87808717,-0.878088 0,-0.318341 -0.174056,-0.596518 -0.4299754,-0.750612 L 2.2626177,9.1634951 c 0.1958096,0.1188262 0.4006133,0.3112571 0.6667769,0.783951 l 0.00392,0.0059 0.00344,0.0054 c 0.1444455,0.1982509 0.3380486,0.2905599 0.5192037,0.3373099 0.1811424,0.04676 0.3546238,0.05814 0.4873339,0.09266 0.1327103,0.03452 0.2163759,0.07809 0.2794578,0.203956 0.063082,0.125867 0.098492,0.355577 0.055893,0.752084 l -0.00931,0.09462 0.088742,0.0353 c 0.3885769,0.152581 0.7848075,0.49758 1.147248,0.711391 0.1812202,0.106911 0.3599654,0.186729 0.5466579,0.168657 0.1328057,-0.01285 0.228676,-0.150285 0.3260349,-0.276027 0.091327,0.06017 0.1485371,0.127045 0.1647331,0.252001 0.019429,0.149907 -5.02e-4,0.338187 0.024023,0.518715 0.0123,0.09026 0.037252,0.183252 0.096586,0.263279 0.059324,0.08002 0.1548378,0.14023 0.2706343,0.164734 0.2315878,0.049 0.5491556,-0.0092 1.0688037,-0.196111 l 0.065206,-0.02452 0.014711,-0.06668 c 0.047626,-0.212636 0.1097166,-0.351251 0.1720855,-0.435368 0.062371,-0.08412 0.1207241,-0.118596 0.1946399,-0.135317 0.1478344,-0.03343 0.3778584,0.03643 0.6466778,0.101977 h 0.00392 0.00201 c 0.2921468,0.0551 0.5780883,0.01726 0.8001323,-0.157378 0.2220446,-0.174644 0.3677316,-0.472446 0.4245816,-0.891323 h 0.0021 v -0.0021 c 0.03722,-0.328129 0.157217,-0.504171 0.307403,-0.618729 0.140396,-0.107096 0.315623,-0.151771 0.479983,-0.183365 0.308958,0.294169 0.584119,0.482955 0.833961,0.5094 0.273249,0.02893 0.503692,-0.107661 0.680015,-0.305934 0.32704,-0.367762 0.544062,-0.9599149 0.811407,-1.4394543 0.12273,0.096265 0.246093,0.1940484 0.35055,0.2314124 0.14268,0.05104 0.28501,0.04318 0.392711,-0.02598 0.215395,-0.138345 0.2731,-0.4189172 0.32064,-0.7261003 0.04755,-0.3071805 0.06876,-0.656721 0.114729,-0.9452532 0.03171,-0.1990327 0.09132,-0.2819452 0.146591,-0.3799644 7.52e-4,-2.51e-4 0.0026,2.512e-4 0.0034,0 0.11681,-0.046603 0.233353,-0.1526639 0.363296,-0.3206427 0.246159,-0.3182206 0.442798,-0.8732627 0.189245,-1.4894613 0.375534,-0.1641483 0.633139,-0.3778131 0.670701,-0.6172579 0.04142,-0.2640701 -0.119376,-0.4975505 -0.344666,-0.6001006 -0.0998,-0.073122 -0.212944,-0.1040581 -0.309364,-0.1005068 -0.103897,0.00381 -0.19399,0.027331 -0.26524,0.035301 -0.07125,0.00796 -0.11274,0.00269 -0.150027,-0.022064 -0.03635,-0.024123 -0.08444,-0.084746 -0.12796,-0.2269966 2.52e-4,0.00919 0.0021,0.017647 0.0021,0.026964 l -0.0054,-0.035301 c 10e-4,0.00381 0.0023,0.00464 0.0034,0.00833 -0.0056,-0.1757073 -0.05133,-0.3278518 -0.14071,-0.4456613 -0.09404,-0.1239647 -0.230744,-0.2059862 -0.38928,-0.2539639 -0.308513,-0.09336 -0.717408,-0.070693 -1.200688,-0.011271 h -0.0021 c -0.311613,-0.04321 -0.689193,0.040999 -1.058017,0.1779696 -0.369442,0.1372035 -0.726153,0.3288036 -0.978101,0.5280297 -0.125986,0.099611 -0.22588,0.199595 -0.289265,0.3078933 -0.06341,0.1083008 -0.08607,0.2536326 -0.0093,0.363294 0.07676,0.1096641 0.20758,0.1588165 0.38732,0.1867956 0.07944,0.012375 0.220347,-4.03e-5 0.324073,0.00201 -0.389013,0.2506856 -0.817686,0.5033315 -1.063411,0.735906 -0.08028,0.075984 -0.145242,0.15049 -0.185324,0.2368041 -0.0401,0.086311 -0.04952,0.1966881 0,0.2873021 0.03712,0.067962 0.113592,0.1080676 0.189246,0.1500232 -0.245377,0.030268 -0.5493556,0.0244 -0.7138027,0.105901 C 9.3764236,6.7599701 9.2031708,6.9724325 9.085424,7.1793273 8.9676745,7.3862221 8.8981064,7.5881817 8.8182212,7.7240248 8.7383383,7.8598703 8.6749126,7.9264413 8.5108172,7.935335 h -0.00392 -0.0054 C 8.1152041,7.9830192 7.9477448,7.8841416 7.8234488,7.7220643 7.6991553,7.5599896 7.6347832,7.3087918 7.5474226,7.0660737 7.4600544,6.823353 7.3330774,6.569944 7.0527336,6.47872 6.8274916,6.4054292 6.4618029,6.5338018 6.0535484,6.7027772 6.0395915,6.6817416 6.0297264,6.6545258 6.0128552,6.6380613 5.9815202,6.6074567 5.9443789,6.5789355 5.9015622,6.5493225 5.7303049,6.4308677 5.4543138,6.2859653 5.1288865,6.0972847 4.4925534,5.7283527 3.6953229,5.1881184 3.250143,4.4906464 c 0.015463,-0.046256 0.03088,-0.0914 0.068639,-0.1206085 0.05109,-0.039526 0.1225162,-0.066835 0.1887559,-0.088739 0.033132,-0.010945 0.064093,-0.020508 0.094625,-0.031867 0.030539,-0.011372 0.067869,-0.00745 0.1112931,-0.083349 0.021713,-0.037952 0.019077,-0.1046134 0,-0.1387473 C 3.6943789,3.9932013 3.6744529,3.9788001 3.6560931,3.9660508 3.6218537,3.9422539 3.582265,3.925699 3.5315636,3.9047662 3.3116735,3.7961565 3.2922569,3.7686923 3.2354356,3.6846326 3.1786244,3.6005704 3.0931389,3.4530523 2.8255645,3.2026881 l -0.00151,-0.00201 -0.00392,-0.00201 C 2.4621625,2.8980001 2.1742354,2.7303049 1.9160718,2.672605 1.8515315,2.6581713 1.7886782,2.6514438 1.7282948,2.6520212 Z m -0.00151,0.2480825 c 0.040766,7.531e-4 0.084875,0.00632 0.1333555,0.01717 0.1933922,0.043226 0.4571335,0.1874431 0.7971928,0.4726291 0.001,7.531e-4 5.022e-4,7.531e-4 0.0015,0.0015 0.2440938,0.2297755 0.3028479,0.3345118 0.368691,0.4319335 0.055624,0.082288 0.16888,0.1632897 0.3279953,0.2539639 -0.061879,0.023421 -0.1249336,0.043731 -0.1907189,0.094623 -0.090624,0.070103 -0.1718321,0.1829046 -0.1887559,0.3314268 l -0.00587,0.042656 0.022542,0.03726 c 0.4812517,0.7923707 1.3496496,1.3477443 2.0101385,1.7306807 0.330237,0.1914669 0.6117679,0.3409957 0.7560052,0.4407569 0.032723,0.022643 0.055069,0.042994 0.0706,0.057363 l 0.064718,0.1799325 c 0.00999,-0.00226 0.018425,-0.00866 0.027944,-0.011271 C 6.483211,6.6988215 6.8045895,6.6620216 6.9766072,6.7179971 7.1486326,6.7739721 7.2291529,6.9268122 7.3099945,7.1514015 7.3908285,7.3759932 7.4545304,7.6521099 7.6247534,7.874071 7.7942459,8.0950833 8.0875024,8.2349828 8.5293134,8.1819644 8.7714583,8.1658284 8.9357169,8.0193671 9.0352874,7.8500528 9.1359496,7.678866 9.2013333,7.4837014 9.3039586,7.3033924 9.4065738,7.1230833 9.5383479,6.9588924 9.7780564,6.8400812 10.017768,6.7212701 10.371664,6.6484937 10.912069,6.68074 l 0.02794,-0.2500405 c -0.179636,-0.029708 -0.312268,-0.065256 -0.398594,-0.1019779 -0.08633,-0.036722 -0.120534,-0.07245 -0.129435,-0.088742 -0.0089,-0.016292 -0.01255,-0.022642 0.0054,-0.061284 0.01794,-0.038635 0.06439,-0.097416 0.131885,-0.1613017 0.269985,-0.2555278 0.873606,-0.5949496 1.361501,-0.9374087 l 0.380004,-0.2686718 -0.463311,0.040693 c -0.302755,0.025933 -0.525113,0.021011 -0.672661,-0.00201 -0.147548,-0.022969 -0.208941,-0.067349 -0.220134,-0.083347 -0.01119,-0.01599 -0.01671,-0.027788 0.02011,-0.090702 0.03683,-0.062911 0.118664,-0.1493003 0.229941,-0.2372935 0.222566,-0.1759865 0.561627,-0.3626238 0.907994,-0.4912575 0.346368,-0.1286338 0.703303,-0.1978178 0.93937,-0.1647332 l 0.01667,0.00201 0.01667,-0.00201 c 0.489284,-0.061925 0.882967,-0.070903 1.128617,0.00344 0.122815,0.037169 0.205371,0.091478 0.261318,0.1652252 0.05596,0.073745 0.08965,0.1736117 0.09069,0.3221112 v 0.01717 l 0.0054,0.016668 c 0.05371,0.1821214 0.129052,0.3044947 0.233861,0.3740829 0.104818,0.069588 0.221447,0.07194 0.31672,0.061285 0.09526,-0.010639 0.179152,-0.030853 0.246609,-0.033339 0.06747,-0.00251 0.111016,0.00467 0.162772,0.048045 l 0.01471,0.012752 0.01667,0.00783 c 0.135915,0.057469 0.227512,0.1925214 0.203956,0.3427053 -0.02357,0.1501813 -0.16825,0.3497739 -0.592746,0.4966494 l -0.133355,0.046087 0.06275,0.127961 c 0.27835,0.5619502 0.07277,1.035822 -0.148063,1.3212991 -0.07389,0.095511 -0.120863,0.1215524 -0.172578,0.1612992 l -0.06128,-0.070599 c -0.01187,0.00734 -0.0071,0.030567 -0.01815,0.038732 l -0.01127,-0.012752 c -0.06321,0.075946 -0.101542,0.1158768 -0.116688,0.2000319 -0.0038,0.021036 -0.008,0.048877 0.0054,0.083349 -0.06362,0.136561 -0.160722,0.2393143 -0.188758,0.415263 -0.04893,0.3071129 -0.07042,0.6553079 -0.115213,0.9447637 -0.0448,0.2894586 -0.128918,0.5036153 -0.207387,0.5540156 -0.03923,0.025199 -0.08115,0.035188 -0.174049,0.00201 -0.09289,-0.033228 -0.224823,-0.1179201 -0.392711,-0.2686713 l -0.11329,-0.1019755 -0.07992,0.1318843 c -0.318589,0.5293869 -0.555303,1.1876958 -0.846775,1.5154508 -0.145738,0.163875 -0.282499,0.24188 -0.464783,0.222584 -0.182283,-0.0193 -0.433646,-0.153357 -0.75993,-0.483903 l -0.04658,-0.04608 -0.06668,0.01127 c -0.187947,0.03356 -0.41909,0.09038 -0.620691,0.244156 -0.201599,0.153779 -0.36214,0.407422 -0.405459,0.789349 v -0.0034 c -0.05131,0.378007 -0.1762676,0.603673 -0.3319186,0.726101 -0.155659,0.122429 -0.3550959,0.155262 -0.5986273,0.109333 -0.2525658,-0.06226 -0.5029325,-0.156819 -0.7540474,-0.100019 -0.1267987,0.02869 -0.2478138,0.104613 -0.3407422,0.229942 -0.078612,0.106022 -0.1330893,0.266846 -0.1818929,0.448604 -0.4576734,0.158068 -0.7551492,0.205542 -0.8854397,0.177969 -0.068556,-0.01452 -0.097518,-0.03748 -0.1206085,-0.06864 -0.023094,-0.03115 -0.040882,-0.07965 -0.050009,-0.146592 -0.018249,-0.13389 7.531e-4,-0.32502 -0.024024,-0.516754 -0.024851,-0.19173 -0.1167929,-0.404142 -0.3466262,-0.502533 l -0.1132559,-0.04804 -0.051478,0.113254 c -0.085446,0.188481 -0.1609878,0.233829 -0.2524929,0.242684 -0.091507,0.0089 -0.2310632,-0.03879 -0.3946743,-0.135314 -0.3072472,-0.181228 -0.69357,-0.498289 -1.1114538,-0.683913 0.027854,-0.354577 0.01476,-0.628862 -0.074033,-0.806016 C 4.3488383,10.2832 4.1740804,10.189825 4.0059635,10.146092 3.8378566,10.102362 3.6678193,10.091932 3.5186295,10.053432 3.3717214,10.015512 3.2481082,9.956742 3.1435675,9.8166281 c 0.00151,0.0025 0.00298,0.0044 0.00441,0.0068 l -0.00931,-0.01275 c 0.00151,0.0023 0.00328,0.0037 0.00489,0.0059 C 2.8482167,9.2942247 2.5828414,9.0642986 2.3493808,8.9266733 L 2.6690423,8.0539806 h 0.905052 C 5.3481466,9.046825 6.3415096,9.3311033 7.8194048,9.3326235 9.3422722,9.33419 10.251954,9.0560174 12.196601,8.0240738 v 0.029906 h 1.756663 V 6.2973165 H 12.196601 V 6.547357 7.2651241 C 10.071629,8.4165165 9.1848988,8.6821833 7.8306808,8.6614335 6.4860064,8.6408299 5.5923659,8.4341859 3.7520638,7.3876931 V 6.2973165 H 1.9934394 V 6.547357 8.0539806 H 2.4263543 L 2.1459175,8.8202828 C 1.8682421,8.6909286 1.6627203,8.6241945 1.3693184,8.0814348 1.2437898,7.7158189 1.131061,7.5043405 1.0114139,7.3847511 0.88836293,7.2617454 0.74216283,7.2437344 0.66135633,7.2440408 c -0.0403971,1.531e-4 -0.0649516,5.019e-4 -0.0740312,-0.00201 -0.009088,-0.00251 -0.008459,-7.53e-4 -0.0240231,-0.022064 C 0.53368154,7.1793524 0.47859481,7.0177746 0.43337823,6.7159634 0.64411362,6.3082987 0.75567523,6.0183308 0.78196483,5.8079693 0.80968763,5.5860686 0.74795883,5.4303647 0.68538163,5.3186724 0.62281189,5.2069802 0.57216817,5.1383559 0.55937859,5.0053845 0.54667697,4.8731561 0.57491687,4.6625538 0.72068023,4.3033088 l 0.00201,-0.00392 C 0.97770173,3.7490824 1.1724822,3.2281819 1.4193723,3.0192815 1.5122252,2.9407191 1.6044858,2.8981608 1.7267762,2.9001438 Z M 2.4959311,6.7993328 H 3.2499758 V 7.5514171 H 2.4959325 Z m 10.2007089,0 h 0.754045 V 7.5514171 H 12.696641 Z M 0.87850793,12.093346 c 0.21294427,0 0.37604327,0.16359 0.37604327,0.376532 0,0.212942 -0.163099,0.376044 -0.37604327,0.376044 -0.21294705,0 -0.37604347,-0.163102 -0.37604347,-0.376044 0,-0.212942 0.16309642,-0.376532 0.37604347,-0.376532 z"
     id="path9609"
     class="ColorScheme-Text"/>
  <path
     d="m 2.0419625,9.0514678 c 0.0058,0.00269 0.011396,0.00612 0.01717,0.00881 L 1.1183007,11.631781 C 1.0415072,11.609611 0.96215298,11.594031 0.87855942,11.594031 0.39618003,11.594031 0,11.99022 0,12.472608 c 0,0.482389 0.39618003,0.878088 0.87855942,0.878088 0.48237938,0 0.87806998,-0.395699 0.87806998,-0.878088 0,-0.318341 -0.1740526,-0.596518 -0.4299669,-0.750612 L 2.2625843,9.1661786 M 2.3493456,8.9293568 2.6690008,8.0566641 H 3.574035 C 5.3480524,9.0495085 6.3413958,9.3337868 7.8192619,9.335307 9.3420991,9.336877 10.251763,9.0587009 12.196372,8.0267573 v 0.029906 H 13.953 V 6.3 H 12.196372 V 6.5500405 7.2678076 C 10.071442,8.4192 9.1847292,8.6848668 7.8305377,8.664117 6.4858898,8.6435134 5.5922669,8.4368694 3.7520011,7.3903766 V 6.3 H 1.9934113 V 6.5500405 8.0566641 H 2.4263177 L 2.1458864,8.8229663 m 0.3500067,-2.02095 H 3.2499229 V 7.5541006 H 2.4958945 Z m 10.2005079,0 h 0.75403 V 7.5541006 H 12.696402 Z M 0.87850173,12.096029 c 0.21294017,0 0.37603597,0.16359 0.37603597,0.376532 0,0.212942 -0.1630958,0.376044 -0.37603597,0.376044 -0.21294281,0 -0.37603599,-0.163102 -0.37603599,-0.376044 0,-0.212942 0.16309318,-0.376532 0.37603599,-0.376532 z"
     style="fill:url(#oomox);fill-opacity:1;stroke-width:1.03602"
     id="path1-7"
     class="ColorScheme-Text"/>
</svg>
