<?xml version="1.0" encoding="UTF-8" standalone="no"?>
<svg
   height="16"
   viewBox="0 0 16 16"
   width="16"
   version="1.1"
   id="svg2"
   xmlns:xlink="http://www.w3.org/1999/xlink"
   xmlns="http://www.w3.org/2000/svg"
   xmlns:svg="http://www.w3.org/2000/svg"
   xmlns:rdf="http://www.w3.org/1999/02/22-rdf-syntax-ns#"
   xmlns:cc="http://creativecommons.org/ns#"
   xmlns:dc="http://purl.org/dc/elements/1.1/">
  <defs>
   <style id="current-color-scheme" type="text/css">
   .ColorScheme-Text { color: #0abdc6; } .ColorScheme-Highlight { color:#5294e2; }
  </style>
  <linearGradient id="arrongin" x1="0%" x2="0%" y1="0%" y2="100%">
   <stop offset="0%" style="stop-color:#dd9b44; stop-opacity:1"/>
   <stop offset="100%" style="stop-color:#ad6c16; stop-opacity:1"/>
  </linearGradient>
  <linearGradient id="aurora" x1="0%" x2="0%" y1="0%" y2="100%">
   <stop offset="0%" style="stop-color:#09D4DF; stop-opacity:1"/>
   <stop offset="100%" style="stop-color:#9269F4; stop-opacity:1"/>
  </linearGradient>
  <linearGradient id="cyberneon" x1="0%" x2="0%" y1="0%" y2="100%">
    <stop offset="0" style="stop-color:#0abdc6; stop-opacity:1"/>
    <stop offset="1" style="stop-color:#ea00d9; stop-opacity:1"/>
  </linearGradient>
  <linearGradient id="fitdance" x1="0%" x2="0%" y1="0%" y2="100%">
   <stop offset="0%" style="stop-color:#1AD6AB; stop-opacity:1"/>
   <stop offset="100%" style="stop-color:#329DB6; stop-opacity:1"/>
  </linearGradient>
  <linearGradient id="oomox" x1="0%" x2="0%" y1="0%" y2="100%">
   <stop offset="0%" style="stop-color:#0abdc6; stop-opacity:1"/>
   <stop offset="100%" style="stop-color:#b800ff; stop-opacity:1"/>
  </linearGradient>
  <linearGradient id="rainblue" x1="0%" x2="0%" y1="0%" y2="100%">
   <stop offset="0%" style="stop-color:#00F260; stop-opacity:1"/>
   <stop offset="100%" style="stop-color:#0575E6; stop-opacity:1"/>
  </linearGradient>
  <linearGradient id="sunrise" x1="0%" x2="0%" y1="0%" y2="100%">
   <stop offset="0%" style="stop-color: #FF8501; stop-opacity:1"/>
   <stop offset="100%" style="stop-color: #FFCB01; stop-opacity:1"/>
  </linearGradient>
  <linearGradient id="telinkrin" x1="0%" x2="0%" y1="0%" y2="100%">
   <stop offset="0%" style="stop-color: #b2ced6; stop-opacity:1"/>
   <stop offset="100%" style="stop-color: #6da5b7; stop-opacity:1"/>
  </linearGradient>
  <linearGradient id="60spsycho" x1="0%" x2="0%" y1="0%" y2="100%">
   <stop offset="0%" style="stop-color: #df5940; stop-opacity:1"/>
   <stop offset="25%" style="stop-color: #d8d15f; stop-opacity:1"/>
   <stop offset="50%" style="stop-color: #e9882a; stop-opacity:1"/>
   <stop offset="100%" style="stop-color: #279362; stop-opacity:1"/>
  </linearGradient>
  <linearGradient id="90ssummer" x1="0%" x2="0%" y1="0%" y2="100%">
   <stop offset="0%" style="stop-color: #f618c7; stop-opacity:1"/>
   <stop offset="20%" style="stop-color: #94ffab; stop-opacity:1"/>
   <stop offset="50%" style="stop-color: #fbfd54; stop-opacity:1"/>
   <stop offset="100%" style="stop-color: #0f83ae; stop-opacity:1"/>
  </linearGradient>
 </defs>
  <path
     d="M 8,0 C 3.587,9.7142e-4 0.001,3.5870004 0,8.0000002 9.7143e-4,12.413 3.587,15.999 8,16 c 4.413,-10e-4 7.999,-3.587 8,-7.9999998 0,-0.509 -0.05336,-1.0029109 -0.142858,-1.4799109 -0.0405,-0.215 -0.214919,-0.3780177 -0.431919,-0.4040178 -0.2175,-0.026 -0.424509,0.091795 -0.514509,0.291295 C 14.752214,6.7573664 14.4035,7.0005002 14,7.0000001 13.5525,7.0009716 13.175106,6.6990985 13.049107,6.2845985 c -0.076,-0.253 -0.335634,-0.4026349 -0.592634,-0.3426338 -0.158,0.036993 -0.307973,0.058035 -0.456473,0.058035 -1.1015,-0.002 -1.998,-0.8985001 -2,-2.0000001 0,-0.1485 0.02103,-0.2978571 0.05804,-0.4553572 C 10.11854,3.2876428 9.9684015,3.0268928 9.7154018,2.9508927 9.3009018,2.8253928 8.999,2.4474999 9,1.9999999 c -5e-4,-0.404 0.2426338,-0.7510983 0.5926338,-0.9095982 0.1995,-0.09 0.3172948,-0.29862508 0.2912948,-0.51562509 C 9.8579286,0.35727664 9.6949109,0.18335715 9.4799109,0.14285715 9.0029109,0.05335714 8.509,0 8,0 Z M 6,3.0000001 a 1,1 0 0 1 1,1 1,1 0 0 1 -1,1 1,1 0 0 1 -1,-1 1,1 0 0 1 1,-1 z m -2,4 a 1,1 0 0 1 1,1.0000001 1,1 0 0 1 -1,1 1,1 0 0 1 -1,-1 1,1 0 0 1 1,-1.0000001 z m 4.5,1.0000001 a 0.5,0.50000001 0 0 1 0.5,0.5 0.5,0.50000001 0 0 1 -0.5,0.5 0.5,0.50000001 0 0 1 -0.5,-0.5 0.5,0.50000001 0 0 1 0.5,-0.5 z M 12.5,10 A 0.5,0.50000001 0 0 1 13,10.5 0.5,0.50000001 0 0 1 12.5,11 0.5,0.50000001 0 0 1 12,10.5 0.5,0.50000001 0 0 1 12.5,10 Z m -7,1 A 0.5,0.50000001 0 0 1 6,11.499999 0.5,0.50000001 0 0 1 5.5,12 0.5,0.50000001 0 0 1 5,11.499999 0.5,0.50000001 0 0 1 5.5,11 Z M 9,11 a 1,1 0 0 1 1,1 1,1 0 0 1 -1,1 1,1 0 0 1 -1,-1 1,1 0 0 1 1,-1 z"
     stroke-width="0.055"
     id="path1"
     class="ColorScheme-Text"
     style="display:inline;fill:url(#oomox);fill-opacity:1;stroke-width:0.571113;stroke-dasharray:none" />
  <metadata
     id="metadata2">
    <rdf:RDF>
      <cc:Work
         rdf:about="">
        <dc:creator>
          <cc:Agent>
            <dc:title>dreifacherspass</dc:title>
          </cc:Agent>
        </dc:creator>
        <cc:license
           rdf:resource="http://creativecommons.org/licenses/by-sa/4.0/" />
      </cc:Work>
      <cc:License
         rdf:about="http://creativecommons.org/licenses/by-sa/4.0/">
        <cc:permits
           rdf:resource="http://creativecommons.org/ns#Reproduction" />
        <cc:permits
           rdf:resource="http://creativecommons.org/ns#Distribution" />
        <cc:requires
           rdf:resource="http://creativecommons.org/ns#Notice" />
        <cc:requires
           rdf:resource="http://creativecommons.org/ns#Attribution" />
        <cc:permits
           rdf:resource="http://creativecommons.org/ns#DerivativeWorks" />
        <cc:requires
           rdf:resource="http://creativecommons.org/ns#ShareAlike" />
      </cc:License>
    </rdf:RDF>
  </metadata>
</svg>
