<?xml version="1.0" encoding="UTF-8" standalone="no"?>
<svg
   height="16"
   viewBox="0 0 16 16"
   width="16"
   version="1.1"
   id="svg1"
   xmlns:xlink="http://www.w3.org/1999/xlink"
   xmlns="http://www.w3.org/2000/svg"
   xmlns:svg="http://www.w3.org/2000/svg"
   xmlns:rdf="http://www.w3.org/1999/02/22-rdf-syntax-ns#"
   xmlns:cc="http://creativecommons.org/ns#"
   xmlns:dc="http://purl.org/dc/elements/1.1/">
  <defs>
   <style id="current-color-scheme" type="text/css">
   .ColorScheme-Text { color: #0abdc6; } .ColorScheme-Highlight { color:#5294e2; }
  </style>
  <linearGradient id="arrongin" x1="0%" x2="0%" y1="0%" y2="100%">
   <stop offset="0%" style="stop-color:#dd9b44; stop-opacity:1"/>
   <stop offset="100%" style="stop-color:#ad6c16; stop-opacity:1"/>
  </linearGradient>
  <linearGradient id="aurora" x1="0%" x2="0%" y1="0%" y2="100%">
   <stop offset="0%" style="stop-color:#09D4DF; stop-opacity:1"/>
   <stop offset="100%" style="stop-color:#9269F4; stop-opacity:1"/>
  </linearGradient>
  <linearGradient id="cyberneon" x1="0%" x2="0%" y1="0%" y2="100%">
    <stop offset="0" style="stop-color:#0abdc6; stop-opacity:1"/>
    <stop offset="1" style="stop-color:#ea00d9; stop-opacity:1"/>
  </linearGradient>
  <linearGradient id="fitdance" x1="0%" x2="0%" y1="0%" y2="100%">
   <stop offset="0%" style="stop-color:#1AD6AB; stop-opacity:1"/>
   <stop offset="100%" style="stop-color:#329DB6; stop-opacity:1"/>
  </linearGradient>
  <linearGradient id="oomox" x1="0%" x2="0%" y1="0%" y2="100%">
   <stop offset="0%" style="stop-color:#0abdc6; stop-opacity:1"/>
   <stop offset="100%" style="stop-color:#b800ff; stop-opacity:1"/>
  </linearGradient>
  <linearGradient id="rainblue" x1="0%" x2="0%" y1="0%" y2="100%">
   <stop offset="0%" style="stop-color:#00F260; stop-opacity:1"/>
   <stop offset="100%" style="stop-color:#0575E6; stop-opacity:1"/>
  </linearGradient>
  <linearGradient id="sunrise" x1="0%" x2="0%" y1="0%" y2="100%">
   <stop offset="0%" style="stop-color: #FF8501; stop-opacity:1"/>
   <stop offset="100%" style="stop-color: #FFCB01; stop-opacity:1"/>
  </linearGradient>
  <linearGradient id="telinkrin" x1="0%" x2="0%" y1="0%" y2="100%">
   <stop offset="0%" style="stop-color: #b2ced6; stop-opacity:1"/>
   <stop offset="100%" style="stop-color: #6da5b7; stop-opacity:1"/>
  </linearGradient>
  <linearGradient id="60spsycho" x1="0%" x2="0%" y1="0%" y2="100%">
   <stop offset="0%" style="stop-color: #df5940; stop-opacity:1"/>
   <stop offset="25%" style="stop-color: #d8d15f; stop-opacity:1"/>
   <stop offset="50%" style="stop-color: #e9882a; stop-opacity:1"/>
   <stop offset="100%" style="stop-color: #279362; stop-opacity:1"/>
  </linearGradient>
  <linearGradient id="90ssummer" x1="0%" x2="0%" y1="0%" y2="100%">
   <stop offset="0%" style="stop-color: #f618c7; stop-opacity:1"/>
   <stop offset="20%" style="stop-color: #94ffab; stop-opacity:1"/>
   <stop offset="50%" style="stop-color: #fbfd54; stop-opacity:1"/>
   <stop offset="100%" style="stop-color: #0f83ae; stop-opacity:1"/>
  </linearGradient>
 </defs>
  <path
     d="M 4.0218579,1.0549454 C 5.2459012,0.35164823 6.5573771,0 8.0437154,0 9.5300549,0 10.84153,0.35164823 12.065574,1.0549454 13.289617,1.7582414 14.251366,2.7252751 14.95082,3.9560437 15.650273,5.1868127 16,6.5054943 16,8 c 0,1.4945057 -0.349727,2.813186 -1.04918,4.043955 -0.699454,1.23077 -1.661203,2.197803 -2.885246,2.901099 C 10.84153,15.648351 9.5300549,16 8.0437154,16 6.5573771,16 5.2459012,15.648351 4.0218579,14.945054 2.7978145,14.417582 1.748634,13.362637 1.0491803,12.131868 0.34972674,10.901098 0,9.5824171 0,8.087912 0,6.5934063 0.34972674,5.2747253 1.0491803,4.0439557 1.748634,2.8131865 2.7978145,1.7582414 4.0218579,1.0549454 Z m 6.9071031,4.4835159 -0.08743,0.087912 -0.08743,0.087912 c 0,0 0.08743,0 0.08743,-0.087912 0,-0.087912 0.08743,-0.087912 0.08743,-0.087912 -0.174863,0 -0.08743,0 0,0 0,-0.087912 0.08743,-0.087912 0.174864,-0.175824 0.08743,-0.087912 0.262296,-0.087912 0.52459,-0.087912 0.262295,-0.087913 0.437159,0 0.524591,0.087912 0,0 0,-0.087912 0.08743,-0.087912 0.08743,-0.087913 0.08743,-0.087913 0.174864,-0.087913 0,0 0.08743,-0.087912 0.174863,-0.087912 0.08743,0 0.08743,-0.087911 0.174863,-0.087911 V 4.7472527 c -0.08743,0 -0.08743,0 -0.174863,-0.087912 -0.08743,-0.087912 -0.08743,-0.087912 -0.08743,-0.2637365 0,0 0,0.087913 -0.08743,0.087913 0,-0.087913 0,-0.087913 -0.08743,-0.087913 H 12.15301 c -0.08743,0 -0.08743,-0.087912 -0.174864,-0.087912 -0.08743,-0.087912 -0.08743,-0.087912 -0.08743,-0.175824 0,-0.087913 -0.08743,-0.087913 -0.08743,-0.1758245 0,-0.087912 -0.08743,-0.087912 -0.08743,-0.087912 l -0.08743,-0.087912 v -0.087912 c 0,0 0,-0.087912 -0.08743,-0.087912 0,0 0,-0.087912 -0.08743,-0.087912 h 0.08743 c 0,0 -0.08743,0 -0.08743,0.087912 0,0.087912 -0.08743,0.087912 -0.08743,0.087912 l -0.08743,0.087912 h -0.174864 l -0.08743,0.087912 -0.08743,0.087912 c 0,0 -0.08743,0 -0.08743,0.087912 h -0.08743 c 0.08743,-0.087912 0.08743,-0.087912 0,-0.087912 -0.08743,0 -0.08743,-0.087912 -0.174863,-0.087912 0.08743,0 0.08743,-0.087912 0.08743,-0.087912 0,-0.087912 -0.08743,-0.087912 -0.08743,-0.1758245 h 0.08743 l -0.08743,-0.087912 c -0.08743,-0.087912 -0.08743,-0.087912 -0.174864,-0.087912 -0.08743,0 -0.08743,-0.087912 -0.08743,-0.087912 -0.08743,-0.087913 -0.174863,-0.087913 -0.3497259,-0.087913 -0.1748634,-0.087912 -0.2622954,-0.087912 -0.3497268,0 l -0.087431,0.087913 c 0,0 0,0.087912 0.087431,0.175824 0,0.087912 0.087431,0.087912 0.087431,0.087912 0,0.087912 0,0.087912 -0.087431,0.087912 l -0.087431,0.087912 c 0,0.087912 0.087431,0.087912 0.1748628,0.1758235 0.087432,0 0.1748634,0.087912 0.087432,0.1758245 0,0.087912 -0.087432,0.087912 -0.1748634,0.175824 -0.087431,0.087912 -0.1748634,0.087912 -0.1748634,0.087912 -0.087431,0.087913 -0.087431,0.087913 0,0.1758245 0,0.087912 0.087432,0.087912 0.087432,0.175824 v 0.087913 c 0,0 0,0.087912 -0.087432,0.087912 l -0.087431,0.087912 c 0,0 -0.087432,0 -0.087432,0.087911 H 9.180328 c -0.087432,0.087912 -0.1748634,0 -0.2622949,-0.087911 -0.087432,-0.087912 -0.087432,-0.175824 -0.087432,-0.2637366 -0.087431,-0.175824 -0.087431,-0.2637359 -0.1748634,-0.2637359 -0.1748634,-0.087913 -0.2622948,-0.087913 -0.2622948,0 -0.087432,-0.087912 -0.174864,-0.175824 -0.4371595,-0.263736 -0.1748628,-0.087912 -0.3497263,-0.087912 -0.6120211,-0.087912 0.087431,0 0.087431,-0.087913 0,-0.1758245 -0.087432,-0.087912 -0.087432,-0.1758235 -0.1748634,-0.087912 0,-0.087912 0.087431,-0.087912 0.087431,-0.175824 v -0.087912 c 0,-0.087912 0.087432,-0.175824 0.087432,-0.263736 l 0.087431,-0.087913 0.087431,-0.087912 v -0.087912 c 0.2622955,0 0.4371583,0 0.5245903,-0.087912 0.087431,-0.087913 0.087431,-0.087913 0.087431,-0.1758246 0.087432,-0.087911 0.087432,-0.087911 0.087432,-0.1758234 0.087432,-0.087912 0.087432,-0.087912 0.174864,-0.087912 0.087431,0 0.087431,0 0.1748634,0.087912 0.087431,0.087912 0.087431,0.087912 0.1748634,0.087912 0.087431,0 0.1748634,-0.087912 0.1748634,-0.087912 0,-0.087912 0,-0.1758246 -0.087432,-0.2637366 0.087432,0 0.087432,-0.087912 0.087432,-0.175824 l -0.087432,-0.087913 c -0.087431,0 -0.1748634,0 -0.2622948,0.087913 -0.087432,0 -0.087432,0.087912 0,0.087912 l -0.087432,0.087912 -0.1748629,0.1758246 c -0.087432,0.087912 -0.087432,0 -0.1748645,-0.087913 0,0 0,-0.087912 -0.087431,-0.087912 l -0.087432,-0.087912 c -0.087431,0 -0.087431,0.087912 -0.1748628,0.175824 0,-0.087912 0,-0.087912 -0.087432,-0.175824 -0.087432,-0.087912 -0.1748635,-0.087912 -0.2622949,-0.087912 0,-0.087913 0,-0.2637366 -0.1748634,-0.2637366 -0.087431,0 -0.087431,-0.087911 -0.2622949,-0.087911 -0.1748634,0 -0.1748634,0 -0.1748634,0.087911 l -0.087431,0.087912 c 0,0.087912 0,0.087912 0.087431,0.087912 0.087431,0 0.2622949,-0.2637354 0.3497269,-0.2637354 0.087431,0 0.087431,0 0.087431,0.087911 0.087432,0 0.087432,0 0.087432,0.087912 0.087431,0 0.087431,0.087912 0,0.087912 0,0 -0.087432,0 -0.087432,0.087913 -0.087431,0 -0.087431,0.087912 -0.087431,0.087912 -0.087432,0 -0.087432,0 -0.087432,0.087912 v 0.3516486 c -0.087432,-0.087912 -0.087432,-0.087912 -0.087432,-0.175824 0,-0.087913 -0.087432,-0.087913 -0.087432,-0.1758246 0.087432,-0.087912 0,-0.087912 -0.2622948,-0.087912 h -0.524588 c -0.087432,0 -0.087432,-0.087912 -0.087432,-0.087912 V 1.9340659 c 0,0 0,-0.087911 0.087432,0 L 6.0327869,1.8461545 5.9453554,1.7582414 C 5.6830606,1.8461545 5.3333338,2.0219779 4.9836063,2.1978025 h 0.087432 c 0.087431,0 0.087431,-0.087913 0.087431,-0.087913 l 0.087432,-0.087912 c 0.262296,-0.087912 0.4371594,-0.087912 0.4371594,-0.087912 l 0.087431,-0.087911 0.2622949,0.2637354 c -0.087431,0 -0.1748635,-0.087912 -0.2622949,0 -0.087431,0.087913 -0.2622948,0.087913 -0.2622948,0.087913 0.087431,0.087912 0.087431,0.175824 0.087431,0.175824 l -0.087431,-0.087912 c -0.087432,-0.087912 -0.087432,-0.087912 -0.1748634,-0.087912 -0.087433,0.087912 -0.087433,0.087912 -0.1748646,0 H 4.8961743 C 3.9344264,2.8131865 3.0601093,3.5164837 2.4480875,4.5714287 l 0.087431,0.087912 0.087432,0.087912 v 0.087913 c 0,0 0.087431,0 0.087431,-0.087913 0.087432,0.087913 0.087432,0.1758246 0.087432,0.2637366 0,0 0.1748634,0.087911 0.4371583,0.263736 0.087432,0.087912 0.2622948,0.175824 0.2622948,0.263736 0,0.087912 0,0.087912 -0.087431,0.1758244 l -0.087431,-0.087912 -0.087432,-0.087912 v 0.1758244 c 0,0.087912 0.087432,0.087912 0.087432,0.087912 -0.087432,0 -0.087432,0.087912 -0.087432,0.1758246 v 0.615384 c 0,0.087912 0,0.1758246 0.087432,0.3516486 0.087431,0.1758234 0.087431,0.2637365 0.2622948,0.1758234 -0.087432,0 0,0.1758246 0.2622949,0.4395611 l 0.087432,0.087912 0.087431,0.087912 C 4.1092893,7.912088 4.1967213,7.912088 4.1967213,8 l 0.087431,0.087912 c 0,0.087912 0.087432,0.087912 0.087432,0.2637366 0.087431,0.087911 0.087431,0.1758234 0.1748634,0.2637354 0,0.087913 0,0.087913 0.087431,0.2637366 -0.087431,0 -0.087431,0.087912 -0.087431,0.1758245 0,0.087912 0.087431,0.087912 0.1748628,0.175824 0.087432,0.087912 0.087432,0.087912 0.1748634,0.087912 v 0.087912 c 0,0.087913 0,0.087913 0.087432,0.087913 0,0 0.087432,0.087911 0.087432,0 0,-0.087913 -0.087432,-0.3516486 -0.2622949,-0.6153851 C 4.7213109,8.7032966 4.6338795,8.615384 4.6338795,8.615384 c 0,-0.087912 -0.087431,-0.087912 -0.087431,-0.175824 V 8.2637354 c 0,0 0.087431,0 0.087431,0.087913 0.087431,0 0.087431,0 0.087431,0.087911 V 8.703296 c 0.087432,0.087912 0.087432,0.087912 0.087432,0.175824 l 0.1748634,0.1758245 0.087432,0.087912 0.1748634,0.175824 c 0.087431,0.087912 0.087431,0.087912 0,0.087912 0.087431,0 0.087431,0.087913 0.262296,0.087913 0.087431,0.087911 0.087431,0.087911 0.1748634,0.2637354 -0.087432,0.087913 -0.087432,0.1758246 -0.087432,0.3516491 0,0.08791 0.087432,0.263736 0.087432,0.263736 0,0.08791 0.087431,0.08791 0.087431,0.08791 0.087431,0 0.087431,0.08791 0.087431,0.08791 0.087432,0 0.087432,0.08791 0.1748635,0.08791 l 0.087432,0.08791 c 0.087431,0 0.087431,0.08791 0.1748628,0.08791 0.087432,0.08791 0.1748634,0.08791 0.2622954,0.08791 0.087432,0 0.087432,0.08791 0.1748635,0.08791 h 0.1748628 c 0.087432,0 0.087432,-0.08791 0.087432,-0.08791 0.087432,0 0.2622949,0.08791 0.2622949,0.175825 l 0.2622948,0.263736 c 0.2622955,0.08791 0.4371583,0.175824 0.6120218,0.08791 v 0.08791 c 0,0.08791 0.087432,0.08791 0.087432,0.175824 0.087432,0.08791 0.087432,0.08791 0.087432,0.175824 0,0.08791 0.087432,0.08791 0.087432,0.08791 l 0.1748634,0.175825 c 0.087431,0.08791 0.1748634,0.08791 0.1748634,0.175824 0.087431,0 0.087431,-0.08791 0.087431,-0.08791 0,0.08791 0,0.08791 0.087432,0.263737 0.087431,0.08791 0.087431,0.08791 0.1748629,0.08791 0.087432,0 0.1748634,-0.08791 0.1748634,-0.351649 -0.2622948,0.08791 -0.4371583,0.08791 -0.5245897,-0.175825 v -0.08791 c 0,-0.08791 -0.087432,-0.08791 -0.087432,-0.08791 v -0.175824 c 0,0 0,-0.08791 0.087432,-0.08791 0.087431,0 0.087431,0 0.087431,-0.08791 v -0.08791 c 0,-0.08791 -0.087431,-0.08791 -0.087431,-0.08791 0,-0.08791 -0.087432,-0.08791 -0.087432,-0.263736 -0.087431,-0.08791 -0.087431,-0.08791 -0.087431,-0.175825 -0.087432,0.08791 -0.087432,0.08791 -0.1748634,0.08791 -0.087432,0 -0.087432,-0.08791 -0.174864,-0.08791 v 0.175825 H 8.0437154 v -0.175825 c 0,-0.08791 0,-0.175824 0.087431,-0.263735 0,0 0,-0.08791 0.087432,-0.08791 0.087432,-0.08791 0.087432,-0.08791 0.087432,-0.175824 0,-0.08791 0.087432,-0.08791 0.087432,-0.08791 0,-0.08791 0,-0.08791 -0.087432,-0.08791 -0.087432,0 -0.087432,-0.08791 -0.1748645,0 -0.087431,0 -0.2622949,0.08791 -0.2622949,0.263736 0,0 0,0.08791 -0.087431,0.08791 l -0.087432,0.08791 -0.087432,0.08791 H 7.3442623 c -0.1748634,0 -0.1748634,0 -0.2622954,-0.08791 L 6.819672,10.373626 C 6.7322406,10.197802 6.7322406,10.10989 6.7322406,9.9340657 V 9.6703291 c 0,-0.087912 0,-0.1758234 0.087431,-0.2637365 0,-0.087912 0,-0.087912 -0.087431,-0.2637355 l 0.087431,-0.087912 0.087431,-0.087912 h 0.2622955 c 0,0 0,-0.087912 0.087431,-0.087912 l -0.087431,-0.087912 -0.087432,-0.087912 h 0.2622954 c 0.1748628,-0.087913 0.2622948,0 0.2622948,0 0.087432,0.087912 0.1748635,0.087912 0.2622949,0 V 8.527472 c 0.087431,0.1758246 0.087431,0.2637366 0.2622949,0.087912 0,0 0.087432,0.087913 0.1748645,0.087913 0.087432,0 0.1748629,0.087912 0.1748629,0.087912 l 0.087432,0.087912 0.087431,0.087912 h 0.087432 l 0.087431,-0.087912 c 0.087432,0.087912 0.087432,0.1758245 0.087432,0.2637365 0.087431,0.2637355 0.087431,0.43956 0.1748629,0.43956 h 0.087432 l 0.087431,-0.087911 V 8.615384 C 9.180328,8.615384 9.092896,8.527472 9.092896,8.527472 V 8.3516486 L 9.2677594,8.175824 c 0,0 0.087432,0 0.087432,-0.087912 C 9.4426229,8.087912 9.4426229,8 9.5300549,8 9.6174863,8 9.6174863,7.912088 9.6174863,7.912088 9.7923497,7.8241754 9.7923497,7.6483514 9.7923497,7.5604394 c 0.087431,0 0.087431,-0.087912 0.087431,-0.087912 l -0.087431,-0.087912 -0.087432,-0.087912 h 0.087432 c 0.087431,-0.087911 0.087431,-0.087911 0,-0.1758246 0.087431,0 0.087431,-0.087911 0.087431,-0.087911 l 0.087432,-0.087912 c 0.087432,0.087912 0.087432,0.087912 0.2622953,0 0.08743,-0.087912 0.08743,-0.087912 0,-0.175824 0.08743,-0.087913 0.08743,-0.087913 0.262295,-0.087913 0.08743,0 0.174863,-0.087912 0.174863,-0.087912 h 0.08743 v -0.087912 c 0,-0.087912 0,-0.087912 0.08743,-0.087912 0,-0.087913 0.08743,-0.087913 0.174863,-0.087913 0.08743,0 0.08743,-0.087912 0.08743,-0.087912 l 0.174864,-0.087912 v -0.087911 c 0.08743,0 0.262295,0 0.349726,-0.087912 0.08743,-0.087913 0.08743,-0.1758246 -0.08743,-0.2637366 0,-0.087912 0,-0.087912 -0.08743,-0.087912 -0.08743,0 -0.08743,-0.087912 -0.174863,-0.087912 h 0.174863 c 0.08743,-0.087912 0.08743,-0.175824 -0.08743,-0.175824 -0.08743,0 -0.262296,0 -0.43716,0.175824 z M 9.180328,14.769231 c 1.486338,-0.263737 2.622951,-0.967033 3.672131,-2.021979 l -0.08743,-0.08791 c -0.08743,0 -0.08743,0 -0.08743,-0.08791 -0.08743,-0.08791 -0.262294,-0.08791 -0.262294,-0.08791 v -0.175825 c -0.08743,0 -0.08743,-0.08791 -0.08743,-0.08791 l -0.08743,-0.08791 -0.08743,-0.08791 c -0.08743,0 -0.08743,-0.08791 -0.08743,-0.08791 0,0 -0.08743,0 -0.08743,-0.08791 h -0.349727 c 0,0 -0.08743,0 -0.08743,0.08791 0,0.08791 -0.08743,0 -0.08743,0.08791 -0.174863,-0.08791 -0.262295,-0.175824 -0.349727,-0.263736 -0.08743,0 -0.08743,0 -0.08743,-0.08791 l -0.08743,-0.08791 h -0.08743 c -0.08743,0 -0.08743,0.08791 -0.08743,0.08791 -0.08743,0.08791 -0.08743,0.08791 -0.08743,0.175824 v 0.08791 c -0.08743,-0.08791 -0.08743,-0.08791 0,-0.175824 0.08743,-0.08791 0.08743,-0.175824 0,-0.175824 0,-0.08791 -0.08743,-0.08791 -0.08743,-0.08791 -0.08743,0 -0.08743,0 -0.08743,0.08791 -0.08743,0 -0.08743,0.08791 -0.08743,0.08791 l -0.08743,0.08791 c 0,0 -0.08743,0 -0.08743,0.08791 l -0.08743,0.08791 -0.08743,0.08791 c 0,0.08791 -0.087432,0.08791 -0.087432,0.08791 l -0.087432,-0.08791 c -0.087431,0 -0.087431,-0.08791 -0.087431,-0.08791 0,0.08791 0,0.175825 0.087431,0.351649 0,0.175825 0.087432,0.263737 0.087432,0.43956 0.087432,0.263737 0,0.439561 -0.087432,0.527473 -0.1748634,0.175824 -0.2622948,0.263736 -0.2622948,0.439561 0,0.175823 0,0.263735 0.087431,0.263735 0,0.08791 0,0.08791 -0.087431,0.263737 -0.3497269,0.351648 -0.3497269,0.351648 -0.4371583,0.527473 0,-0.175825 0,-0.08791 0,0 z"
     stroke-width="0.87672"
     id="path1"
     class="ColorScheme-Text"
     style="fill:url(#oomox);opacity:1" />
  <metadata
     id="metadata1">
    <rdf:RDF>
      <cc:Work
         rdf:about="">
        <dc:creator>
          <cc:Agent>
            <dc:title>dreifacherspass</dc:title>
          </cc:Agent>
        </dc:creator>
        <cc:license
           rdf:resource="http://creativecommons.org/licenses/by-sa/4.0/" />
      </cc:Work>
      <cc:License
         rdf:about="http://creativecommons.org/licenses/by-sa/4.0/">
        <cc:permits
           rdf:resource="http://creativecommons.org/ns#Reproduction" />
        <cc:permits
           rdf:resource="http://creativecommons.org/ns#Distribution" />
        <cc:requires
           rdf:resource="http://creativecommons.org/ns#Notice" />
        <cc:requires
           rdf:resource="http://creativecommons.org/ns#Attribution" />
        <cc:permits
           rdf:resource="http://creativecommons.org/ns#DerivativeWorks" />
        <cc:requires
           rdf:resource="http://creativecommons.org/ns#ShareAlike" />
      </cc:License>
    </rdf:RDF>
  </metadata>
</svg>
