<?xml version="1.0" encoding="UTF-8" standalone="no"?>
<svg
   viewBox="0 0 16 16"
   height="16"
   width="16"
   id="svg1"
   version="1.1"
   xmlns="http://www.w3.org/2000/svg"
   xmlns:svg="http://www.w3.org/2000/svg"
   xmlns:rdf="http://www.w3.org/1999/02/22-rdf-syntax-ns#"
   xmlns:cc="http://creativecommons.org/ns#"
   xmlns:dc="http://purl.org/dc/elements/1.1/">
  <defs>
   <style id="current-color-scheme" type="text/css">
   .ColorScheme-Text { color: #0abdc6; } .ColorScheme-Highlight { color:#5294e2; }
  </style>
  <linearGradient id="arrongin" x1="0%" x2="0%" y1="0%" y2="100%">
   <stop offset="0%" style="stop-color:#dd9b44; stop-opacity:1"/>
   <stop offset="100%" style="stop-color:#ad6c16; stop-opacity:1"/>
  </linearGradient>
  <linearGradient id="aurora" x1="0%" x2="0%" y1="0%" y2="100%">
   <stop offset="0%" style="stop-color:#09D4DF; stop-opacity:1"/>
   <stop offset="100%" style="stop-color:#9269F4; stop-opacity:1"/>
  </linearGradient>
  <linearGradient id="cyberneon" x1="0%" x2="0%" y1="0%" y2="100%">
    <stop offset="0" style="stop-color:#0abdc6; stop-opacity:1"/>
    <stop offset="1" style="stop-color:#ea00d9; stop-opacity:1"/>
  </linearGradient>
  <linearGradient id="fitdance" x1="0%" x2="0%" y1="0%" y2="100%">
   <stop offset="0%" style="stop-color:#1AD6AB; stop-opacity:1"/>
   <stop offset="100%" style="stop-color:#329DB6; stop-opacity:1"/>
  </linearGradient>
  <linearGradient id="oomox" x1="0%" x2="0%" y1="0%" y2="100%">
   <stop offset="0%" style="stop-color:#0abdc6; stop-opacity:1"/>
   <stop offset="100%" style="stop-color:#b800ff; stop-opacity:1"/>
  </linearGradient>
  <linearGradient id="rainblue" x1="0%" x2="0%" y1="0%" y2="100%">
   <stop offset="0%" style="stop-color:#00F260; stop-opacity:1"/>
   <stop offset="100%" style="stop-color:#0575E6; stop-opacity:1"/>
  </linearGradient>
  <linearGradient id="sunrise" x1="0%" x2="0%" y1="0%" y2="100%">
   <stop offset="0%" style="stop-color: #FF8501; stop-opacity:1"/>
   <stop offset="100%" style="stop-color: #FFCB01; stop-opacity:1"/>
  </linearGradient>
  <linearGradient id="telinkrin" x1="0%" x2="0%" y1="0%" y2="100%">
   <stop offset="0%" style="stop-color: #b2ced6; stop-opacity:1"/>
   <stop offset="100%" style="stop-color: #6da5b7; stop-opacity:1"/>
  </linearGradient>
  <linearGradient id="60spsycho" x1="0%" x2="0%" y1="0%" y2="100%">
   <stop offset="0%" style="stop-color: #df5940; stop-opacity:1"/>
   <stop offset="25%" style="stop-color: #d8d15f; stop-opacity:1"/>
   <stop offset="50%" style="stop-color: #e9882a; stop-opacity:1"/>
   <stop offset="100%" style="stop-color: #279362; stop-opacity:1"/>
  </linearGradient>
  <linearGradient id="90ssummer" x1="0%" x2="0%" y1="0%" y2="100%">
   <stop offset="0%" style="stop-color: #f618c7; stop-opacity:1"/>
   <stop offset="20%" style="stop-color: #94ffab; stop-opacity:1"/>
   <stop offset="50%" style="stop-color: #fbfd54; stop-opacity:1"/>
   <stop offset="100%" style="stop-color: #0f83ae; stop-opacity:1"/>
  </linearGradient>
 </defs>
  <metadata
     id="metadata1">
    <rdf:RDF>
      <cc:Work
         rdf:about="">
        <dc:creator>
          <cc:Agent>
            <dc:title>dreifacherspass</dc:title>
          </cc:Agent>
        </dc:creator>
        <cc:license
           rdf:resource="http://creativecommons.org/licenses/by-sa/4.0/" />
      </cc:Work>
      <cc:License
         rdf:about="http://creativecommons.org/licenses/by-sa/4.0/">
        <cc:permits
           rdf:resource="http://creativecommons.org/ns#Reproduction" />
        <cc:permits
           rdf:resource="http://creativecommons.org/ns#Distribution" />
        <cc:requires
           rdf:resource="http://creativecommons.org/ns#Notice" />
        <cc:requires
           rdf:resource="http://creativecommons.org/ns#Attribution" />
        <cc:permits
           rdf:resource="http://creativecommons.org/ns#DerivativeWorks" />
        <cc:requires
           rdf:resource="http://creativecommons.org/ns#ShareAlike" />
      </cc:License>
    </rdf:RDF>
  </metadata>
  <path
     d="m 8.0000006,5.9446712 -2.0348585,2.05533 0.2881545,0.2910516 1.746704,1.7642782 2.0348584,-2.0553298 z m 0,1.1749873 L 8.871575,8.0000012 8.0000006,8.8803439 7.1284263,8.0000012 Z"
     style="display:inline;opacity:1;fill:url(#oomox);stroke-width:1.83055"
     id="path1735"
     class="ColorScheme-Text" />
  <path
     id="path9609"
     style="display:inline;opacity:1;fill:url(#oomox);stroke-width:1.17147"
     class="ColorScheme-Text"
     d="M 9.9433594 0 L 5.6660156 0.02734375 L 6.3457031 4.2382812 L 9.3222656 4.2167969 L 9.9433594 0 z M 9.2109375 0.640625 L 8.7792969 3.5839844 L 6.8808594 3.5996094 L 6.40625 0.66015625 L 9.2109375 0.640625 z M 13.666016 1.9726562 L 10.394531 4.671875 L 10.53125 4.90625 L 11.902344 7.265625 L 15.832031 5.7011719 L 13.666016 1.9726562 z M 2.1132812 2.296875 L 0 6.0546875 L 3.9472656 7.5644531 L 4.0820312 7.328125 L 5.4199219 4.9511719 L 2.1132812 2.296875 z M 13.496094 2.9355469 L 14.914062 5.3808594 L 12.173828 6.4726562 L 11.212891 4.8203125 L 13.496094 2.9355469 z M 2.296875 3.2578125 L 4.6054688 5.109375 L 3.6679688 6.7773438 L 0.91210938 5.7207031 L 2.296875 3.2578125 z M 12.050781 8.4296875 L 11.916016 8.6699219 L 10.580078 11.046875 L 13.884766 13.701172 L 16 9.9433594 L 12.050781 8.4296875 z M 4.0957031 8.7304688 L 0.16796875 10.296875 L 2.3339844 14.025391 L 5.6035156 11.324219 L 5.4667969 11.089844 L 4.0957031 8.7304688 z M 12.330078 9.2207031 L 15.087891 10.277344 L 13.701172 12.736328 L 11.394531 10.888672 L 12.330078 9.2207031 z M 3.8242188 9.5253906 L 4.7851562 11.177734 L 2.5039062 13.060547 L 1.0859375 10.617188 L 3.8242188 9.5253906 z M 9.6523438 11.757812 L 9.3847656 11.761719 L 6.6757812 11.783203 L 6.0527344 16 L 10.333984 15.970703 L 9.6523438 11.757812 z M 9.1171875 12.398438 L 9.5917969 15.335938 L 6.7871094 15.355469 L 7.21875 12.412109 L 9.1171875 12.398438 z " />
</svg>
