<?xml version="1.0" encoding="UTF-8" standalone="no"?>
<svg
   viewBox="0 0 16 16"
   height="16"
   width="16"
   id="svg1"
   version="1.1"
   xmlns:xlink="http://www.w3.org/1999/xlink"
   xmlns="http://www.w3.org/2000/svg"
   xmlns:svg="http://www.w3.org/2000/svg"
   xmlns:rdf="http://www.w3.org/1999/02/22-rdf-syntax-ns#"
   xmlns:cc="http://creativecommons.org/ns#"
   xmlns:dc="http://purl.org/dc/elements/1.1/">
  <defs>
   <style id="current-color-scheme" type="text/css">
   .ColorScheme-Text { color: #0abdc6; } .ColorScheme-Highlight { color:#5294e2; }
  </style>
  <linearGradient id="arrongin" x1="0%" x2="0%" y1="0%" y2="100%">
   <stop offset="0%" style="stop-color:#dd9b44; stop-opacity:1"/>
   <stop offset="100%" style="stop-color:#ad6c16; stop-opacity:1"/>
  </linearGradient>
  <linearGradient id="aurora" x1="0%" x2="0%" y1="0%" y2="100%">
   <stop offset="0%" style="stop-color:#09D4DF; stop-opacity:1"/>
   <stop offset="100%" style="stop-color:#9269F4; stop-opacity:1"/>
  </linearGradient>
  <linearGradient id="cyberneon" x1="0%" x2="0%" y1="0%" y2="100%">
    <stop offset="0" style="stop-color:#0abdc6; stop-opacity:1"/>
    <stop offset="1" style="stop-color:#ea00d9; stop-opacity:1"/>
  </linearGradient>
  <linearGradient id="fitdance" x1="0%" x2="0%" y1="0%" y2="100%">
   <stop offset="0%" style="stop-color:#1AD6AB; stop-opacity:1"/>
   <stop offset="100%" style="stop-color:#329DB6; stop-opacity:1"/>
  </linearGradient>
  <linearGradient id="oomox" x1="0%" x2="0%" y1="0%" y2="100%">
   <stop offset="0%" style="stop-color:#0abdc6; stop-opacity:1"/>
   <stop offset="100%" style="stop-color:#b800ff; stop-opacity:1"/>
  </linearGradient>
  <linearGradient id="rainblue" x1="0%" x2="0%" y1="0%" y2="100%">
   <stop offset="0%" style="stop-color:#00F260; stop-opacity:1"/>
   <stop offset="100%" style="stop-color:#0575E6; stop-opacity:1"/>
  </linearGradient>
  <linearGradient id="sunrise" x1="0%" x2="0%" y1="0%" y2="100%">
   <stop offset="0%" style="stop-color: #FF8501; stop-opacity:1"/>
   <stop offset="100%" style="stop-color: #FFCB01; stop-opacity:1"/>
  </linearGradient>
  <linearGradient id="telinkrin" x1="0%" x2="0%" y1="0%" y2="100%">
   <stop offset="0%" style="stop-color: #b2ced6; stop-opacity:1"/>
   <stop offset="100%" style="stop-color: #6da5b7; stop-opacity:1"/>
  </linearGradient>
  <linearGradient id="60spsycho" x1="0%" x2="0%" y1="0%" y2="100%">
   <stop offset="0%" style="stop-color: #df5940; stop-opacity:1"/>
   <stop offset="25%" style="stop-color: #d8d15f; stop-opacity:1"/>
   <stop offset="50%" style="stop-color: #e9882a; stop-opacity:1"/>
   <stop offset="100%" style="stop-color: #279362; stop-opacity:1"/>
  </linearGradient>
  <linearGradient id="90ssummer" x1="0%" x2="0%" y1="0%" y2="100%">
   <stop offset="0%" style="stop-color: #f618c7; stop-opacity:1"/>
   <stop offset="20%" style="stop-color: #94ffab; stop-opacity:1"/>
   <stop offset="50%" style="stop-color: #fbfd54; stop-opacity:1"/>
   <stop offset="100%" style="stop-color: #0f83ae; stop-opacity:1"/>
  </linearGradient>
 </defs>
  <path
     class="ColorScheme-Text"
     d="M 0.29269648,6.4694872 0,7.3364053 C 0.26810034,7.426514 0.53287137,7.5161166 0.79095095,7.6089929 L 1.1015221,6.748778 C 0.83118373,6.6514899 0.56079693,6.5595954 0.29269648,6.4694872 Z M 1.9170507,7.0682863 1.5506214,7.9061582 C 1.7990639,8.0146989 2.0371202,8.1335485 2.2589023,8.2636501 L 2.7214077,7.4726992 C 2.461338,7.3201372 2.1912774,7.1880914 1.9170507,7.0682863 Z M 3.4766092,8.0067027 2.8845134,8.7038122 c 0.025457,0.021668 0.051042,0.042393 0.075967,0.064796 C 3.1205567,8.912517 3.2702492,9.0735224 3.4118149,9.248988 L 4.1245642,8.6747664 C 3.9555055,8.4652239 3.7727121,8.2691974 3.5726859,8.0893733 3.5416499,8.0614775 3.5083258,8.0337018 3.4766035,8.0067028 Z M 4.6429265,9.425499 3.8564442,9.8924729 C 3.9896691,10.11678 4.1113537,10.353449 4.222874,10.598519 L 5.0562776,10.218685 C 4.9326185,9.9469401 4.795305,9.6820546 4.6429265,9.425499 Z m 0.7440306,1.615417 -0.8624492,0.306102 c 0.032523,0.09133 0.063799,0.182971 0.093841,0.274822 0.054683,0.16722 0.1057721,0.336468 0.1564031,0.507192 L 5.6528411,11.86985 C 5.6013624,11.696266 5.5465085,11.518505 5.4875013,11.338081 5.4551043,11.239008 5.422272,11.140073 5.3869571,11.040916 Z m 0.5071913,1.624354 -0.8691517,0.288227 c 0.096265,0.289246 0.2071475,0.575456 0.3485541,0.849045 L 6.1846115,13.382488 C 6.0748632,13.170154 5.9817883,12.928591 5.8941484,12.66527 Z m 0.6971105,1.286971 -0.6434856,0.650188 c 0.06714,0.06667 0.1386543,0.131486 0.2144952,0.192152 0.1830726,0.146443 0.3856053,0.268115 0.6010328,0.373133 L 7.1632461,14.345483 C 6.9974031,14.264637 6.8545984,14.175861 6.7342557,14.079597 6.6844242,14.039742 6.635771,13.996441 6.5912589,13.952241 Z m 1.2892053,0.659125 -0.2502443,0.880325 c 0.2776094,0.07936 0.5652949,0.144596 0.862449,0.201088 L 8.6647124,14.792347 C 8.3873227,14.73961 8.12333,14.680798 7.8804642,14.611366 Z m 1.5997762,0.315041 -0.1318249,0.907135 c 0.2807942,0.04057 0.5635722,0.07722 0.8445745,0.113952 l 0.11842,-0.907136 c -0.281003,-0.03673 -0.5586178,-0.07458 -0.8311696,-0.113951 z"
     id="path1890"
     style="stroke-width:1.14397;fill:url(#oomox)" />
  <path
     class="ColorScheme-Text"
     id="path1896"
     d="M 5.9812874,0.052506 5.6885909,0.91942402 C 5.9566912,1.0095326 6.2214622,1.0991354 6.4795419,1.1920118 L 6.790113,0.33179668 C 6.5197746,0.23450878 6.2493878,0.14261427 5.9812874,0.052506 Z M 7.6056416,0.65130511 7.2392123,1.4891769 C 7.4876548,1.5977177 7.725711,1.7165672 7.9474932,1.8466689 L 8.4099986,1.055718 C 8.1499289,0.90315605 7.8798684,0.7711102 7.6056416,0.65130511 Z M 9.1652001,1.5897215 8.5731042,2.286831 c 0.025457,0.021667 0.051042,0.042393 0.075967,0.064796 C 8.8091475,2.4955357 8.95884,2.6565411 9.1004057,2.8320067 L 9.8131552,2.2577852 C 9.6440963,2.0482426 9.461303,1.8522161 9.2612768,1.672392 9.2302407,1.6444962 9.1969167,1.6167205 9.1651943,1.5897216 Z M 10.331517,3.0085179 9.545035,3.4754917 C 9.67826,3.6997986 9.7999446,3.9364685 9.9114648,4.181538 L 10.744868,3.8017032 C 10.621209,3.5299584 10.483896,3.2650735 10.331517,3.0085179 Z m 0.744031,1.6154167 -0.862449,0.3061024 c 0.03252,0.091323 0.0638,0.1829707 0.09384,0.2748227 0.05468,0.1672193 0.105772,0.3364681 0.156403,0.5071913 l 0.87809,-0.2591811 c -0.05148,-0.1735844 -0.106333,-0.3513454 -0.16534,-0.5317696 -0.0324,-0.099068 -0.06523,-0.1980082 -0.100544,-0.2971657 z m 0.507191,1.6243544 -0.869151,0.2882277 c 0.09627,0.2892448 0.207147,0.5754557 0.348554,0.8490442 l 0.81106,-0.4200538 C 11.763449,6.7531729 11.670379,6.5116102 11.582739,6.248289 Z m 0.697111,1.2869711 -0.643485,0.6501882 c 0.06714,0.066671 0.138654,0.131486 0.214494,0.1921522 0.183073,0.1464425 0.385605,0.2681144 0.601033,0.3731324 L 12.851837,7.9285014 C 12.685994,7.8476567 12.543189,7.7588808 12.422846,7.6626165 12.373015,7.6227605 12.324361,7.579461 12.27985,7.5352601 Z m 1.289205,0.659126 -0.250244,0.8803238 c 0.277609,0.079358 0.565295,0.144596 0.862449,0.2010889 L 14.353304,8.3753663 C 14.075913,8.322629 13.81192,8.2638173 13.569055,8.1943861 Z m 1.599776,0.3150403 -0.131825,0.9071351 c 0.280795,0.040565 0.563573,0.077219 0.844575,0.1139512 L 16,8.6233765 C 15.718999,8.5866435 15.441383,8.5488008 15.168831,8.5094264 Z"
     style="stroke-width:1.14397;fill:url(#oomox)" />
  <path
     id="path1518"
     class="ColorScheme-Text"
     style="opacity:0.5;stroke-width:1.28605;fill:url(#oomox)"
     d="m 14.563532,9.6065043 c -0.581959,0.9404537 -1.150875,1.8518277 -1.913471,2.5586787 -0.762621,0.706876 -1.774665,1.262549 -2.822436,1.832912 l 0.469496,0.621757 c 1.047772,-0.570363 2.128364,-1.15499 2.994404,-1.957726 0.866066,-0.802759 1.462534,-1.773086 2.044493,-2.7135394 z M 11.360338,8.880239 c -0.323082,0.75854 -0.623247,1.458636 -1.24005,2.13378 -0.6168288,0.675171 -1.6099822,1.371452 -2.6208635,2.073453 l 0.4558024,0.659125 c 1.0108812,-0.702 2.0387059,-1.407911 2.7549221,-2.191871 0.716242,-0.783987 1.0622,-1.6009078 1.385282,-2.3594473 z M 9.7824925,6.8142614 C 9.2348517,7.7550802 8.6956035,8.6731517 8.0709996,9.3569231 7.4463941,10.040696 6.6922666,10.542175 5.9059388,11.061713 l 0.4423964,0.668062 C 7.1346627,11.210238 7.9524277,10.673171 8.6608614,9.8976301 9.3692966,9.122086 9.925258,8.159493 10.472899,7.2186742 Z M 8.6499851,4.5313717 C 8.1023571,5.4160015 7.5655682,6.2798931 6.9340235,6.9712545 6.3024755,7.6626196 5.5395795,8.2232797 4.7533225,8.7989322 L 5.2269993,9.4446521 C 6.0132564,8.8689996 6.8223106,8.2799854 7.5238852,7.5119611 8.2254636,6.7439328 8.7838262,5.8382889 9.3314541,4.953659 Z M 7.5595877,2.5033778 C 6.9698601,3.4160516 6.388021,4.3120191 5.7542533,5.0058216 5.1204839,5.6996261 4.4025999,6.2300641 3.6584565,6.7776413 l 0.4736769,0.64572 C 4.8762768,6.875784 5.646982,6.3121447 6.3463492,5.5465283 7.0457182,4.7809103 7.6423917,3.851745 8.2321195,2.9390712 Z M 5.3534425,1.3238369 C 4.8479005,2.2553314 4.3535235,3.1563614 3.7112137,3.8709673 3.0692892,4.5851445 2.2253601,5.1700211 1.3674069,5.7589718 L 1.8187404,6.420332 C 2.6766937,5.8313813 3.5792308,5.2177557 4.3077785,4.4072053 5.0359409,3.5970835 5.5517128,2.6351667 6.057255,1.7036721 Z" />
  <metadata
     id="metadata1">
    <rdf:RDF>
      <cc:Work
         rdf:about="">
        <dc:creator>
          <cc:Agent>
            <dc:title>dreifacherspass</dc:title>
          </cc:Agent>
        </dc:creator>
        <cc:license
           rdf:resource="http://creativecommons.org/licenses/by-sa/4.0/" />
      </cc:Work>
      <cc:License
         rdf:about="http://creativecommons.org/licenses/by-sa/4.0/">
        <cc:permits
           rdf:resource="http://creativecommons.org/ns#Reproduction" />
        <cc:permits
           rdf:resource="http://creativecommons.org/ns#Distribution" />
        <cc:requires
           rdf:resource="http://creativecommons.org/ns#Notice" />
        <cc:requires
           rdf:resource="http://creativecommons.org/ns#Attribution" />
        <cc:permits
           rdf:resource="http://creativecommons.org/ns#DerivativeWorks" />
        <cc:requires
           rdf:resource="http://creativecommons.org/ns#ShareAlike" />
      </cc:License>
    </rdf:RDF>
  </metadata>
</svg>
