<?xml version="1.0" encoding="UTF-8" standalone="no"?>
<svg
   width="16"
   height="16"
   version="1.1"
   id="svg77"
   xmlns:xlink="http://www.w3.org/1999/xlink"
   xmlns="http://www.w3.org/2000/svg"
   xmlns:svg="http://www.w3.org/2000/svg"
   xmlns:rdf="http://www.w3.org/1999/02/22-rdf-syntax-ns#"
   xmlns:cc="http://creativecommons.org/ns#"
   xmlns:dc="http://purl.org/dc/elements/1.1/">
  <defs
     id="defs73">
    <style
       id="current-color-scheme"
       type="text/css">
   .ColorScheme-Text { color: #0abdc6; } .ColorScheme-Highlight { color: #1AD6AB; }
  </style>
    <linearGradient
       id="arrongin"
       x1="0%"
       x2="0%"
       y1="0%"
       y2="100%">
      <stop
         offset="0%"
         stop-color="#dd9b44"
         stop-opacity="1"
         id="stop3" />
      <stop
         offset="100%"
         stop-color="#ad6c16"
         stop-opacity="1"
         id="stop5" />
    </linearGradient>
    <linearGradient
       id="aurora"
       x1="0%"
       x2="0%"
       y1="0%"
       y2="100%">
      <stop
         offset="0%"
         stop-color="#09D4DF"
         stop-opacity="1"
         id="stop8" />
      <stop
         offset="100%"
         stop-color="#9269F4"
         stop-opacity="1"
         id="stop10" />
    </linearGradient>
    <linearGradient
       id="cyberblue"
       x1="0%"
       x2="0%"
       y1="0%"
       y2="100%">
      <stop
         offset="0%"
         stop-color="#07B3FF"
         stop-opacity="1"
         id="stop13" />
      <stop
         offset="100%"
         stop-color="#007DE8"
         stop-opacity="1"
         id="stop15" />
    </linearGradient>
    <linearGradient
       id="cyberneon"
       x1="0%"
       x2="0%"
       y1="0%"
       y2="100%">
      <stop
         offset="0%"
         stop-color="#0abdc6"
         stop-opacity="1"
         id="stop18" />
      <stop
         offset="100%"
         stop-color="#ea00d9"
         stop-opacity="1"
         id="stop20" />
    </linearGradient>
    <linearGradient
       id="fitdance"
       x1="0%"
       x2="0%"
       y1="0%"
       y2="100%">
      <stop
         offset="0%"
         stop-color="#1AD6AB"
         stop-opacity="1"
         id="stop23" />
      <stop
         offset="100%"
         stop-color="#329DB6"
         stop-opacity="1"
         id="stop25" />
    </linearGradient>
    <linearGradient
       id="oomox"
       x1="0%"
       x2="0%"
       y1="0%"
       y2="100%">
      <stop
         offset="0%"
         stop-color="#0abdc6"
         stop-opacity="1"
         id="stop28" />
      <stop
         offset="100%"
         stop-color="#b800ff"
         stop-opacity="1"
         id="stop30" />
    </linearGradient>
    <linearGradient
       id="rainblue"
       x1="0%"
       x2="0%"
       y1="0%"
       y2="100%">
      <stop
         offset="0%"
         stop-color="#00F260"
         stop-opacity="1"
         id="stop33" />
      <stop
         offset="100%"
         stop-color="#0575E6"
         stop-opacity="1"
         id="stop35" />
    </linearGradient>
    <linearGradient
       id="redcarbon"
       x1="0%"
       x2="0%"
       y1="0%"
       y2="100%">
      <stop
         offset="0%"
         stop-color="#FF6D57"
         stop-opacity="1"
         id="stop38" />
      <stop
         offset="50%"
         stop-color="#FF5160"
         stop-opacity="1"
         id="stop40" />
      <stop
         offset="100%"
         stop-color="#F50F22"
         stop-opacity="1"
         id="stop42" />
    </linearGradient>
    <linearGradient
       id="sunrise"
       x1="0%"
       x2="0%"
       y1="0%"
       y2="100%">
      <stop
         offset="0%"
         stop-color="#FF8501"
         stop-opacity="1"
         id="stop45" />
      <stop
         offset="100%"
         stop-color="#FFCB01"
         stop-opacity="1"
         id="stop47" />
    </linearGradient>
    <linearGradient
       id="telinkrin"
       x1="0%"
       x2="0%"
       y1="0%"
       y2="100%">
      <stop
         offset="0%"
         stop-color="#b2ced6"
         stop-opacity="1"
         id="stop50" />
      <stop
         offset="100%"
         stop-color="#6da5b7"
         stop-opacity="1"
         id="stop52" />
    </linearGradient>
    <linearGradient
       id="60spsycho"
       x1="0%"
       x2="0%"
       y1="0%"
       y2="100%">
      <stop
         offset="0%"
         stop-color="#df5940"
         stop-opacity="1"
         id="stop55" />
      <stop
         offset="25%"
         stop-color="#d8d15f"
         stop-opacity="1"
         id="stop57" />
      <stop
         offset="50%"
         stop-color="#e9882a"
         stop-opacity="1"
         id="stop59" />
      <stop
         offset="100%"
         stop-color="#279362"
         stop-opacity="1"
         id="stop61" />
    </linearGradient>
    <linearGradient
       id="90ssummer"
       x1="0%"
       x2="0%"
       y1="0%"
       y2="100%">
      <stop
         offset="0%"
         stop-color="#f618c7"
         stop-opacity="1"
         id="stop64" />
      <stop
         offset="20%"
         stop-color="#94ffab"
         stop-opacity="1"
         id="stop66" />
      <stop
         offset="50%"
         stop-color="#fbfd54"
         stop-opacity="1"
         id="stop68" />
      <stop
         offset="100%"
         stop-color="#0f83ae"
         stop-opacity="1"
         id="stop70" />
    </linearGradient>
  </defs>
  <path
     d="m 9.8972007,1.359797 h 0.3774943 c 0.995556,0 1.659681,0.1721473 1.991691,0.5187659 0.335568,0.3419705 0.502555,1.0319415 0.502555,2.067282 v 1.6859892 c 0,0.6980182 0.108425,1.1834211 0.324227,1.4551382 0.215808,0.267069 1.742147,0.3994497 1.174172,0.3994497 h 0.372863 V 8.4928279 H 14.26734 c -0.567974,0 -0.958364,0.1355141 -1.174172,0.4072312 -0.215806,0.2717171 -0.324227,0.760793 -0.324227,1.4681069 v 1.678208 c 0,1.034543 -0.166987,1.728445 -0.502555,2.075063 -0.33201,0.346619 -0.996135,0.518766 -1.991691,0.518766 H 9.8972007 v -1.011594 h 0.4191813 c 0.559675,0 0.923606,-0.10295 1.090799,-0.303477 0.171932,-0.201863 0.259382,-0.634035 0.259382,-1.304696 v -1.743054 c 0,-0.7306873 0.08841,-1.2626632 0.268647,-1.5952046 C 12.114257,8.3495033 12.427369,8.118781 12.87084,7.9922187 12.427369,7.8752183 12.114258,7.6504972 11.93521,7.3178231 11.754976,6.9852817 11.666563,6.4528993 11.666563,5.7174304 V 3.9743771 c 0,-0.6652156 -0.08745,-1.0980447 -0.259382,-1.2995085 C 11.239988,2.4687567 10.876057,2.3636091 10.316382,2.3636091 H 9.8972007 Z"
     id="path569"
     class="ColorScheme-Text"
     style="font-variation-settings:normal;opacity:1;vector-effect:none;fill:url(#oomox);fill-opacity:1;stroke:url(#oomox);stroke-width:0.719594;stroke-linecap:butt;stroke-linejoin:miter;stroke-miterlimit:4;stroke-dasharray:none;stroke-dashoffset:0;stroke-opacity:1;-inkscape-stroke:none;stop-color:#000000;stop-opacity:1" />
  <path
     d="M 5.7253044,1.359797 H 6.1027993 V 2.3636091 H 5.683618 c -0.5596743,0 -0.9228957,0.1051476 -1.0907979,0.3112595 -0.1719339,0.2014638 -0.259383,0.6342929 -0.259383,1.2995085 v 1.7430533 c 0,0.7354689 -0.08865,1.2678513 -0.2686466,1.6003927 -0.1798783,0.3326741 -0.4919234,0.5573952 -0.9356313,0.6743956 0.4437079,0.1265623 0.755753,0.3572846 0.9356313,0.6899587 0.179997,0.3325414 0.2686466,0.8645173 0.2686466,1.5952046 v 1.743054 c 0,0.670661 0.08745,1.102833 0.259383,1.304696 0.1679022,0.200534 0.5311236,0.303477 1.0907979,0.303477 h 0.4191813 v 1.011594 H 5.7253044 c -0.995319,0 -1.6599173,-0.172147 -1.9916903,-0.518766 C 3.3978095,13.774819 3.2310596,13.080917 3.2310596,12.046374 V 10.368166 C 3.2310596,9.6608521 3.122637,9.1717762 2.906831,8.9000591 2.6909058,8.628342 1.1650412,8.4928279 1.73266,8.4928279 H 1.359797 V 7.486422 H 1.73266 c 0.5676188,0 0.9582458,-0.1323804 1.174171,-0.3994497 0.2158066,-0.2717171 0.3242287,-0.75712 0.3242287,-1.4551382 V 3.9458449 c 0,-1.0353405 0.1667498,-1.7253115 0.5025544,-2.067282 C 4.0653871,1.5319443 4.7299854,1.359797 5.7253044,1.359797 Z"
     id="path567"
     class="ColorScheme-Text"
     style="font-variation-settings:normal;opacity:1;vector-effect:none;fill:url(#oomox);fill-opacity:1;stroke:url(#oomox);stroke-width:0.719594;stroke-linecap:butt;stroke-linejoin:miter;stroke-miterlimit:4;stroke-dasharray:none;stroke-dashoffset:0;stroke-opacity:1;-inkscape-stroke:none;stop-color:#000000;stop-opacity:1" />
  <metadata
     id="metadata791">
    <rdf:RDF>
      <cc:Work
         rdf:about="">
        <dc:creator>
          <cc:Agent>
            <dc:title>dreifacherspass</dc:title>
          </cc:Agent>
        </dc:creator>
        <cc:license
           rdf:resource="http://creativecommons.org/licenses/by-sa/4.0/" />
      </cc:Work>
      <cc:License
         rdf:about="http://creativecommons.org/licenses/by-sa/4.0/">
        <cc:permits
           rdf:resource="http://creativecommons.org/ns#Reproduction" />
        <cc:permits
           rdf:resource="http://creativecommons.org/ns#Distribution" />
        <cc:requires
           rdf:resource="http://creativecommons.org/ns#Notice" />
        <cc:requires
           rdf:resource="http://creativecommons.org/ns#Attribution" />
        <cc:permits
           rdf:resource="http://creativecommons.org/ns#DerivativeWorks" />
        <cc:requires
           rdf:resource="http://creativecommons.org/ns#ShareAlike" />
      </cc:License>
    </rdf:RDF>
  </metadata>
</svg>
