<?xml version="1.0" encoding="UTF-8" standalone="no"?>
<svg
   width="16"
   height="16"
   version="1.1"
   id="svg77"
   xmlns:xlink="http://www.w3.org/1999/xlink"
   xmlns="http://www.w3.org/2000/svg"
   xmlns:svg="http://www.w3.org/2000/svg"
   xmlns:rdf="http://www.w3.org/1999/02/22-rdf-syntax-ns#"
   xmlns:cc="http://creativecommons.org/ns#"
   xmlns:dc="http://purl.org/dc/elements/1.1/">
  <defs>
   <style id="current-color-scheme" type="text/css">
   .ColorScheme-Text { color: #0abdc6; } .ColorScheme-Highlight { color:#5294e2; }
  </style>
  <linearGradient id="arrongin" x1="0%" x2="0%" y1="0%" y2="100%">
   <stop offset="0%" style="stop-color:#dd9b44; stop-opacity:1"/>
   <stop offset="100%" style="stop-color:#ad6c16; stop-opacity:1"/>
  </linearGradient>
  <linearGradient id="aurora" x1="0%" x2="0%" y1="0%" y2="100%">
   <stop offset="0%" style="stop-color:#09D4DF; stop-opacity:1"/>
   <stop offset="100%" style="stop-color:#9269F4; stop-opacity:1"/>
  </linearGradient>
  <linearGradient id="cyberneon" x1="0%" x2="0%" y1="0%" y2="100%">
    <stop offset="0" style="stop-color:#0abdc6; stop-opacity:1"/>
    <stop offset="1" style="stop-color:#ea00d9; stop-opacity:1"/>
  </linearGradient>
  <linearGradient id="fitdance" x1="0%" x2="0%" y1="0%" y2="100%">
   <stop offset="0%" style="stop-color:#1AD6AB; stop-opacity:1"/>
   <stop offset="100%" style="stop-color:#329DB6; stop-opacity:1"/>
  </linearGradient>
  <linearGradient id="oomox" x1="0%" x2="0%" y1="0%" y2="100%">
   <stop offset="0%" style="stop-color:#0abdc6; stop-opacity:1"/>
   <stop offset="100%" style="stop-color:#b800ff; stop-opacity:1"/>
  </linearGradient>
  <linearGradient id="rainblue" x1="0%" x2="0%" y1="0%" y2="100%">
   <stop offset="0%" style="stop-color:#00F260; stop-opacity:1"/>
   <stop offset="100%" style="stop-color:#0575E6; stop-opacity:1"/>
  </linearGradient>
  <linearGradient id="sunrise" x1="0%" x2="0%" y1="0%" y2="100%">
   <stop offset="0%" style="stop-color: #FF8501; stop-opacity:1"/>
   <stop offset="100%" style="stop-color: #FFCB01; stop-opacity:1"/>
  </linearGradient>
  <linearGradient id="telinkrin" x1="0%" x2="0%" y1="0%" y2="100%">
   <stop offset="0%" style="stop-color: #b2ced6; stop-opacity:1"/>
   <stop offset="100%" style="stop-color: #6da5b7; stop-opacity:1"/>
  </linearGradient>
  <linearGradient id="60spsycho" x1="0%" x2="0%" y1="0%" y2="100%">
   <stop offset="0%" style="stop-color: #df5940; stop-opacity:1"/>
   <stop offset="25%" style="stop-color: #d8d15f; stop-opacity:1"/>
   <stop offset="50%" style="stop-color: #e9882a; stop-opacity:1"/>
   <stop offset="100%" style="stop-color: #279362; stop-opacity:1"/>
  </linearGradient>
  <linearGradient id="90ssummer" x1="0%" x2="0%" y1="0%" y2="100%">
   <stop offset="0%" style="stop-color: #f618c7; stop-opacity:1"/>
   <stop offset="20%" style="stop-color: #94ffab; stop-opacity:1"/>
   <stop offset="50%" style="stop-color: #fbfd54; stop-opacity:1"/>
   <stop offset="100%" style="stop-color: #0f83ae; stop-opacity:1"/>
  </linearGradient>
 </defs>
  <path
     d="m 10.168229,0.41119657 h 0.431422 c 1.137779,0 1.896779,0.19673978 2.276219,0.59287533 0.383506,0.3908235 0.574348,1.1793618 0.574348,2.3626081 v 1.926845 c 0,0.797735 0.123915,1.3524812 0.370545,1.6630151 0.246638,0.3052217 1.991025,0.456514 1.341911,0.456514 h 0.426129 v 1.1501782 h -0.426129 c -0.649112,0 -1.095273,0.1548733 -1.341911,0.4654071 -0.246635,0.3105339 -0.370545,0.8694778 -0.370545,1.6778366 v 1.917952 c 0,1.182335 -0.190842,1.975366 -0.574348,2.3715 -0.37944,0.396137 -1.13844,0.592876 -2.276219,0.592876 h -0.431422 v -1.156107 h 0.479064 c 0.639629,0 1.05555,-0.117658 1.246628,-0.346831 0.196494,-0.230701 0.296437,-0.724611 0.296437,-1.491081 v -1.992062 c 0,-0.8350714 0.10104,-1.4430439 0.307025,-1.8230913 C 12.702008,8.3994327 13.05985,8.1357502 13.566674,7.9911075 13.05985,7.8573928 12.702009,7.6005686 12.497383,7.2203696 12.291401,6.8403222 12.190358,6.2318853 12.190358,5.3913492 V 3.3992883 c 0,-0.7602465 -0.09994,-1.2549083 -0.296437,-1.4851527 C 11.702843,1.6785792 11.286922,1.5584105 10.647293,1.5584105 h -0.479064 z"
     id="path569"
     class="ColorScheme-Text"
     style="font-variation-settings:normal;opacity:1;vector-effect:none;fill:url(#oomox);fill-opacity:1;stroke:url(#oomox);stroke-width:0.822393;stroke-linecap:butt;stroke-linejoin:miter;stroke-miterlimit:4;stroke-dasharray:none;stroke-dashoffset:0;stroke-opacity:1;-inkscape-stroke:none;stop-color:#000000;stop-opacity:1" />
  <path
     d="M 5.4003479,0.41119657 H 5.8317706 V 1.5584105 H 5.3527062 c -0.6396277,0 -1.0547379,0.1201687 -1.2466261,0.3557251 C 3.9095843,2.14438 3.8096424,2.6390418 3.8096424,3.3992883 v 1.9920609 c 0,0.8405361 -0.1013143,1.448973 -0.3070246,1.8290204 -0.2055753,0.380199 -0.5621983,0.6370232 -1.069293,0.7707379 0.5070947,0.1446427 0.8637177,0.4083252 1.069293,0.7885242 0.2057108,0.3800474 0.3070246,0.9880199 0.3070246,1.8230913 v 1.992062 c 0,0.76647 0.099943,1.26038 0.2964377,1.491081 0.1918882,0.229181 0.6069984,0.346831 1.2466261,0.346831 h 0.4790644 v 1.156107 H 5.4003479 c -1.1375074,0 -1.8970483,-0.196739 -2.2762175,-0.592876 -0.3837767,-0.396134 -0.574348,-1.189165 -0.574348,-2.3715 v -1.917952 c 0,-0.8083588 -0.1239115,-1.3673027 -0.370547,-1.6778366 C 1.9324638,8.7181056 0.18861851,8.5632323 0.83732571,8.5632323 H 0.41119657 V 7.4130541 h 0.42612914 c 0.64870719,0 1.09513809,-0.151292 1.34190969,-0.456514 C 2.4258716,6.6460062 2.5497825,6.09126 2.5497825,5.293525 V 3.36668 c 0,-1.1832463 0.1905712,-1.9717846 0.5743479,-2.3626081 C 3.5032996,0.60793635 4.2628405,0.41119657 5.4003479,0.41119657 Z"
     id="path567"
     class="ColorScheme-Text"
     style="font-variation-settings:normal;opacity:1;vector-effect:none;fill:url(#oomox);fill-opacity:1;stroke:url(#oomox);stroke-width:0.822393;stroke-linecap:butt;stroke-linejoin:miter;stroke-miterlimit:4;stroke-dasharray:none;stroke-dashoffset:0;stroke-opacity:1;-inkscape-stroke:none;stop-color:#000000;stop-opacity:1" />
  <metadata
     id="metadata791">
    <rdf:RDF>
      <cc:Work
         rdf:about="">
        <dc:creator>
          <cc:Agent>
            <dc:title>dreifacherspass</dc:title>
          </cc:Agent>
        </dc:creator>
        <cc:license
           rdf:resource="http://creativecommons.org/licenses/by-sa/4.0/" />
      </cc:Work>
      <cc:License
         rdf:about="http://creativecommons.org/licenses/by-sa/4.0/">
        <cc:permits
           rdf:resource="http://creativecommons.org/ns#Reproduction" />
        <cc:permits
           rdf:resource="http://creativecommons.org/ns#Distribution" />
        <cc:requires
           rdf:resource="http://creativecommons.org/ns#Notice" />
        <cc:requires
           rdf:resource="http://creativecommons.org/ns#Attribution" />
        <cc:permits
           rdf:resource="http://creativecommons.org/ns#DerivativeWorks" />
        <cc:requires
           rdf:resource="http://creativecommons.org/ns#ShareAlike" />
      </cc:License>
    </rdf:RDF>
  </metadata>
</svg>
