<?xml version="1.0" encoding="UTF-8" standalone="no"?>
<!-- Created with Inkscape (http://www.inkscape.org/) -->

<svg
   width="16"
   height="16"
   viewBox="0 0 16 16"
   version="1.1"
   id="svg1"
   xmlns="http://www.w3.org/2000/svg"
   xmlns:svg="http://www.w3.org/2000/svg"
   xmlns:rdf="http://www.w3.org/1999/02/22-rdf-syntax-ns#"
   xmlns:cc="http://creativecommons.org/ns#"
   xmlns:dc="http://purl.org/dc/elements/1.1/">
  <defs>
   <style id="current-color-scheme" type="text/css">
   .ColorScheme-Text { color: #0abdc6; } .ColorScheme-Highlight { color:#5294e2; }
  </style>
  <linearGradient id="arrongin" x1="0%" x2="0%" y1="0%" y2="100%">
   <stop offset="0%" style="stop-color:#dd9b44; stop-opacity:1"/>
   <stop offset="100%" style="stop-color:#ad6c16; stop-opacity:1"/>
  </linearGradient>
  <linearGradient id="aurora" x1="0%" x2="0%" y1="0%" y2="100%">
   <stop offset="0%" style="stop-color:#09D4DF; stop-opacity:1"/>
   <stop offset="100%" style="stop-color:#9269F4; stop-opacity:1"/>
  </linearGradient>
  <linearGradient id="cyberneon" x1="0%" x2="0%" y1="0%" y2="100%">
    <stop offset="0" style="stop-color:#0abdc6; stop-opacity:1"/>
    <stop offset="1" style="stop-color:#ea00d9; stop-opacity:1"/>
  </linearGradient>
  <linearGradient id="fitdance" x1="0%" x2="0%" y1="0%" y2="100%">
   <stop offset="0%" style="stop-color:#1AD6AB; stop-opacity:1"/>
   <stop offset="100%" style="stop-color:#329DB6; stop-opacity:1"/>
  </linearGradient>
  <linearGradient id="oomox" x1="0%" x2="0%" y1="0%" y2="100%">
   <stop offset="0%" style="stop-color:#0abdc6; stop-opacity:1"/>
   <stop offset="100%" style="stop-color:#b800ff; stop-opacity:1"/>
  </linearGradient>
  <linearGradient id="rainblue" x1="0%" x2="0%" y1="0%" y2="100%">
   <stop offset="0%" style="stop-color:#00F260; stop-opacity:1"/>
   <stop offset="100%" style="stop-color:#0575E6; stop-opacity:1"/>
  </linearGradient>
  <linearGradient id="sunrise" x1="0%" x2="0%" y1="0%" y2="100%">
   <stop offset="0%" style="stop-color: #FF8501; stop-opacity:1"/>
   <stop offset="100%" style="stop-color: #FFCB01; stop-opacity:1"/>
  </linearGradient>
  <linearGradient id="telinkrin" x1="0%" x2="0%" y1="0%" y2="100%">
   <stop offset="0%" style="stop-color: #b2ced6; stop-opacity:1"/>
   <stop offset="100%" style="stop-color: #6da5b7; stop-opacity:1"/>
  </linearGradient>
  <linearGradient id="60spsycho" x1="0%" x2="0%" y1="0%" y2="100%">
   <stop offset="0%" style="stop-color: #df5940; stop-opacity:1"/>
   <stop offset="25%" style="stop-color: #d8d15f; stop-opacity:1"/>
   <stop offset="50%" style="stop-color: #e9882a; stop-opacity:1"/>
   <stop offset="100%" style="stop-color: #279362; stop-opacity:1"/>
  </linearGradient>
  <linearGradient id="90ssummer" x1="0%" x2="0%" y1="0%" y2="100%">
   <stop offset="0%" style="stop-color: #f618c7; stop-opacity:1"/>
   <stop offset="20%" style="stop-color: #94ffab; stop-opacity:1"/>
   <stop offset="50%" style="stop-color: #fbfd54; stop-opacity:1"/>
   <stop offset="100%" style="stop-color: #0f83ae; stop-opacity:1"/>
  </linearGradient>
 </defs>
  <path
     id="path5"
     class="ColorScheme-Text"
     style="fill-opacity:1;fill-rule:evenodd;stroke:none;fill:url(#oomox)"
     d="m 7.9460449,0.00179961 c -0.264357,0.015952 -0.512116,0.1354289 -0.652344,0.3730469 l -2.02539,3.43359379 6.1699211,5.1601562 3.03125,-2.59375 C 14.815288,5.9628684 14.76992,5.3564082 14.375732,4.9978934 L 11.381592,7.3377371 13.717529,4.4432059 12.285889,3.2459403 9.6003419,5.6365653 11.658936,2.7205496 9.3015139,0.74984651 6.9187009,3.538909 8.6452639,0.20883091 c -0.203909,-0.1473374 -0.457883,-0.2215944 -0.699219,-0.2070313 z M 4.7351069,4.4432059 3.9655759,5.3592215 10.135498,10.519377 10.905029,9.601409 Z M 3.4245609,6.0017996 2.7858886,6.7635184 C 2.501502,7.1023273 2.5637523,7.8156839 2.9030761,8.0994559 L 3.8034669,8.851409 c 0.26882,0.224815 0.409151,0.567544 0.375,0.916016 -0.05382,0.22961 -0.200893,0.426903 -0.404297,0.546874 l -3.03906252,2.382813 c -0.5525604,0.433367 -0.8242803,1.13241 -0.7089844,1.824218 l 0.013672,0.08399 c 0.1347085,0.808278 0.8412681,1.397836 1.66210932,1.388672 l 0.082031,-0.002 c 0.7039697,-0.0078 1.3463756,-0.397424 1.6777346,-1.017579 l 1.878906,-3.517577 c 0.105298,-0.19707 0.286535,-0.342014 0.501953,-0.402343 0.304648,-0.07251 0.62553,0.0087 0.857422,0.21875 l 0.917969,0.767619 c 0.339324,0.283766 1.053502,0.221619 1.337891,-0.117187 l 0.638671,-0.761719 z M 1.7390136,13.451018 c 0.1871579,-0.01651 0.3817355,0.03803 0.5371094,0.167969 0.3107486,0.259877 0.3502831,0.722924 0.089844,1.033203 -0.2604374,0.310274 -0.7224549,0.349717 -1.0332032,0.08984 -0.3107484,-0.259876 -0.35223462,-0.720975 -0.091797,-1.03125 0.1302204,-0.155143 0.3108889,-0.243252 0.4980468,-0.259766 z" />
  <metadata
     id="metadata2">
    <rdf:RDF>
      <cc:Work
         rdf:about="">
        <dc:creator>
          <cc:Agent>
            <dc:title>dreifacherspass</dc:title>
          </cc:Agent>
        </dc:creator>
        <cc:license
           rdf:resource="http://creativecommons.org/licenses/by-sa/4.0/" />
      </cc:Work>
      <cc:License
         rdf:about="http://creativecommons.org/licenses/by-sa/4.0/">
        <cc:permits
           rdf:resource="http://creativecommons.org/ns#Reproduction" />
        <cc:permits
           rdf:resource="http://creativecommons.org/ns#Distribution" />
        <cc:requires
           rdf:resource="http://creativecommons.org/ns#Notice" />
        <cc:requires
           rdf:resource="http://creativecommons.org/ns#Attribution" />
        <cc:permits
           rdf:resource="http://creativecommons.org/ns#DerivativeWorks" />
        <cc:requires
           rdf:resource="http://creativecommons.org/ns#ShareAlike" />
      </cc:License>
    </rdf:RDF>
  </metadata>
</svg>
