<?xml version="1.0" encoding="UTF-8" standalone="no"?>
<svg
   height="16"
   viewBox="0 0 16 16"
   width="16"
   version="1.1"
   id="svg1"
   xmlns:xlink="http://www.w3.org/1999/xlink"
   xmlns="http://www.w3.org/2000/svg"
   xmlns:svg="http://www.w3.org/2000/svg"
   xmlns:rdf="http://www.w3.org/1999/02/22-rdf-syntax-ns#"
   xmlns:cc="http://creativecommons.org/ns#"
   xmlns:dc="http://purl.org/dc/elements/1.1/">
  <defs>
   <style id="current-color-scheme" type="text/css">
   .ColorScheme-Text { color: #0abdc6; } .ColorScheme-Highlight { color:#5294e2; }
  </style>
  <linearGradient id="arrongin" x1="0%" x2="0%" y1="0%" y2="100%">
   <stop offset="0%" style="stop-color:#dd9b44; stop-opacity:1"/>
   <stop offset="100%" style="stop-color:#ad6c16; stop-opacity:1"/>
  </linearGradient>
  <linearGradient id="aurora" x1="0%" x2="0%" y1="0%" y2="100%">
   <stop offset="0%" style="stop-color:#09D4DF; stop-opacity:1"/>
   <stop offset="100%" style="stop-color:#9269F4; stop-opacity:1"/>
  </linearGradient>
  <linearGradient id="cyberneon" x1="0%" x2="0%" y1="0%" y2="100%">
    <stop offset="0" style="stop-color:#0abdc6; stop-opacity:1"/>
    <stop offset="1" style="stop-color:#ea00d9; stop-opacity:1"/>
  </linearGradient>
  <linearGradient id="fitdance" x1="0%" x2="0%" y1="0%" y2="100%">
   <stop offset="0%" style="stop-color:#1AD6AB; stop-opacity:1"/>
   <stop offset="100%" style="stop-color:#329DB6; stop-opacity:1"/>
  </linearGradient>
  <linearGradient id="oomox" x1="0%" x2="0%" y1="0%" y2="100%">
   <stop offset="0%" style="stop-color:#0abdc6; stop-opacity:1"/>
   <stop offset="100%" style="stop-color:#b800ff; stop-opacity:1"/>
  </linearGradient>
  <linearGradient id="rainblue" x1="0%" x2="0%" y1="0%" y2="100%">
   <stop offset="0%" style="stop-color:#00F260; stop-opacity:1"/>
   <stop offset="100%" style="stop-color:#0575E6; stop-opacity:1"/>
  </linearGradient>
  <linearGradient id="sunrise" x1="0%" x2="0%" y1="0%" y2="100%">
   <stop offset="0%" style="stop-color: #FF8501; stop-opacity:1"/>
   <stop offset="100%" style="stop-color: #FFCB01; stop-opacity:1"/>
  </linearGradient>
  <linearGradient id="telinkrin" x1="0%" x2="0%" y1="0%" y2="100%">
   <stop offset="0%" style="stop-color: #b2ced6; stop-opacity:1"/>
   <stop offset="100%" style="stop-color: #6da5b7; stop-opacity:1"/>
  </linearGradient>
  <linearGradient id="60spsycho" x1="0%" x2="0%" y1="0%" y2="100%">
   <stop offset="0%" style="stop-color: #df5940; stop-opacity:1"/>
   <stop offset="25%" style="stop-color: #d8d15f; stop-opacity:1"/>
   <stop offset="50%" style="stop-color: #e9882a; stop-opacity:1"/>
   <stop offset="100%" style="stop-color: #279362; stop-opacity:1"/>
  </linearGradient>
  <linearGradient id="90ssummer" x1="0%" x2="0%" y1="0%" y2="100%">
   <stop offset="0%" style="stop-color: #f618c7; stop-opacity:1"/>
   <stop offset="20%" style="stop-color: #94ffab; stop-opacity:1"/>
   <stop offset="50%" style="stop-color: #fbfd54; stop-opacity:1"/>
   <stop offset="100%" style="stop-color: #0f83ae; stop-opacity:1"/>
  </linearGradient>
 </defs>
  <path
     d="M 0.44419657,0 C 0.19797429,0 0,0.25485714 0,0.57142857 V 2.8125 4 15.473214 C 0,15.765443 0.18231657,16 0.40959829,16 H 15.590402 C 15.817683,16 16,15.765443 16,15.473214 V 2.8125 C 16,2.5202715 15.817683,2.2857143 15.590402,2.2857143 H 8.3180806 C 7.8115337,2.3051429 7.5660417,2.1346697 7.3426337,1.8649554 L 6.2857143,0.48214286 C 6.1363366,0.23048571 6.024124,0 5.7779017,0 Z M 5.4285714,5.0848216 h 4.5 c 0.4423986,-6e-7 0.8645946,0.093146 1.2488836,0.2622766 0.38429,0.1691303 0.731136,0.4145469 1.022322,0.7165178 0.291186,0.3019709 0.526642,0.6606303 0.689732,1.059152 0.16309,0.3985217 0.253348,0.8369754 0.253348,1.2957589 0,0.4587834 -0.09017,0.8997925 -0.253348,1.3035714 -0.163183,0.4037787 -0.399588,0.7697167 -0.690848,1.0758927 -0.291261,0.306176 -0.638088,0.552774 -1.022322,0.71875 -0.384233,0.165976 -0.805666,0.251197 -1.2477676,0.234375 H 9.2857143 v 1.333706 l -3.2142857,-2 3.2142857,-2.0000003 v 1.3337053 h 0.6428571 c 0.2698876,0 0.5252896,-0.0551 0.7566966,-0.155134 0.231407,-0.100036 0.439123,-0.245194 0.612723,-0.4252233 0.1736,-0.1800291 0.313135,-0.3950668 0.409598,-0.6350446 0.09646,-0.2399782 0.149554,-0.5047148 0.149554,-0.7845982 0,-0.2798835 -0.05309,-0.545736 -0.149554,-0.7857143 C 11.611126,7.3928343 11.471591,7.1777971 11.297991,6.997768 11.124391,6.8177389 10.916675,6.6736971 10.685268,6.5736606 10.453861,6.473624 10.198459,6.4185269 9.9285714,6.4185269 h -4.5 z M 4.1428571,9.751116 a 1.2857143,1.3333333 0 0 1 0.020092,0 1.2857143,1.3333333 0 0 1 0.071428,0.00337 1.2857143,1.3333333 0 0 1 0.071429,0.00781 1.2857143,1.3333333 0 0 1 0.070312,0.01116 1.2857143,1.3333333 0 0 1 0.069197,0.015623 1.2857143,1.3333333 0 0 1 0.069197,0.018971 1.2857143,1.3333333 0 0 1 0.06808,0.02344 1.2857143,1.3333333 0 0 1 0.065849,0.027903 1.2857143,1.3333333 0 0 1 0.064732,0.030137 1.2857143,1.3333333 0 0 1 0.063616,0.035714 1.2857143,1.3333333 0 0 1 0.061384,0.037949 1.2857143,1.3333333 0 0 1 0.058035,0.041291 1.2857143,1.3333333 0 0 1 0.05692,0.04576 1.2857143,1.3333333 0 0 1 0.054686,0.04799 1.2857143,1.3333333 0 0 1 0.051337,0.05134 1.2857143,1.3333333 0 0 1 0.049109,0.05357 1.2857143,1.3333333 0 0 1 0.044646,0.05692 1.2857143,1.3333333 0 0 1 0.043526,0.06027 1.2857143,1.3333333 0 0 1 0.039063,0.06138 1.2857143,1.3333333 0 0 1 0.035714,0.06362 1.2857143,1.3333333 0 0 1 0.032366,0.06585 1.2857143,1.3333333 0 0 1 0.029017,0.06808 1.2857143,1.3333333 0 0 1 0.025669,0.0692 1.2857143,1.3333333 0 0 1 0.021206,0.07031 1.2857143,1.3333333 0 0 1 0.017857,0.07255 1.2857143,1.3333333 0 0 1 0.013394,0.07254 1.2857143,1.3333333 0 0 1 0.010046,0.07254 1.2857143,1.3333333 0 0 1 0.0056,0.07478 1.2857143,1.3333333 0 0 1 0.00223,0.07366 1.2857143,1.3333333 0 0 1 0,0.02121 1.2857143,1.3333333 0 0 1 -0.00337,0.07366 1.2857143,1.3333333 0 0 1 -0.0067,0.07366 1.2857143,1.3333333 0 0 1 -0.01116,0.07254 1.2857143,1.3333333 0 0 1 -0.014508,0.07254 1.2857143,1.3333333 0 0 1 -0.018972,0.07143 1.2857143,1.3333333 0 0 1 -0.02232,0.07031 1.2857143,1.3333333 0 0 1 -0.026783,0.0692 1.2857143,1.3333333 0 0 1 -0.030131,0.06697 1.2857143,1.3333333 0 0 1 -0.03348,0.06585 1.2857143,1.3333333 0 0 1 -0.036829,0.06362 1.2857143,1.3333333 0 0 1 -0.040177,0.06027 1.2857143,1.3333333 0 0 1 -0.043526,0.05915 1.2857143,1.3333333 0 0 1 -0.04576,0.05581 1.2857143,1.3333333 0 0 1 -0.050223,0.05357 1.2857143,1.3333333 0 0 1 -0.052457,0.05022 1.2857143,1.3333333 0 0 1 -0.054686,0.04799 1.2857143,1.3333333 0 0 1 -0.05692,0.04353 1.2857143,1.3333333 0 0 1 -0.060268,0.04129 1.2857143,1.3333333 0 0 1 -0.061384,0.03683 1.2857143,1.3333333 0 0 1 -0.063616,0.0346 1.2857143,1.3333333 0 0 1 -0.064732,0.02902 1.2857143,1.3333333 0 0 1 -0.066965,0.02678 1.2857143,1.3333333 0 0 1 -0.06808,0.02232 1.2857143,1.3333333 0 0 1 -0.069197,0.01786 1.2857143,1.3333333 0 0 1 -0.070313,0.01451 1.2857143,1.3333333 0 0 1 -0.070313,0.01005 1.2857143,1.3333333 0 0 1 -0.071429,0.0067 1.2857143,1.3333333 0 0 1 -0.071429,0.0022 1.2857143,1.3333333 0 0 1 -0.020091,-0.0011 1.2857143,1.3333333 0 0 1 -0.071429,-0.0022 1.2857143,1.3333333 0 0 1 -0.071429,-0.0078 1.2857143,1.3333333 0 0 1 -0.070313,-0.01116 1.2857143,1.3333333 0 0 1 -0.069196,-0.01562 1.2857143,1.3333333 0 0 1 -0.069196,-0.01897 1.2857143,1.3333333 0 0 1 -0.068081,-0.02343 1.2857143,1.3333333 0 0 1 -0.065848,-0.0279 1.2857143,1.3333333 0 0 1 -0.064733,-0.03125 1.2857143,1.3333333 0 0 1 -0.063616,-0.0346 1.2857143,1.3333333 0 0 1 -0.061384,-0.03795 1.2857143,1.3333333 0 0 1 -0.058035,-0.0413 1.2857143,1.3333333 0 0 1 -0.05692,-0.04576 1.2857143,1.3333333 0 0 1 -0.054686,-0.04799 1.2857143,1.3333333 0 0 1 -0.051337,-0.05134 1.2857143,1.3333333 0 0 1 -0.049108,-0.05357 1.2857143,1.3333333 0 0 1 -0.044646,-0.05692 1.2857143,1.3333333 0 0 1 -0.043526,-0.06027 1.2857143,1.3333333 0 0 1 -0.039063,-0.06138 1.2857143,1.3333333 0 0 1 -0.035714,-0.06362 1.2857143,1.3333333 0 0 1 -0.032366,-0.06696 1.2857143,1.3333333 0 0 1 -0.029017,-0.06697 1.2857143,1.3333333 0 0 1 -0.025669,-0.0692 1.2857143,1.3333333 0 0 1 -0.021206,-0.07143 1.2857143,1.3333333 0 0 1 -0.017857,-0.07143 1.2857143,1.3333333 0 0 1 -0.013394,-0.07254 1.2857143,1.3333333 0 0 1 -0.010046,-0.07366 1.2857143,1.3333333 0 0 1 -0.0056,-0.07366 1.2857143,1.3333333 0 0 1 -0.00223,-0.07366 1.2857143,1.3333333 0 0 1 0,-0.0212 1.2857143,1.3333333 0 0 1 0.00337,-0.07366 1.2857143,1.3333333 0 0 1 0.0067,-0.07366 1.2857143,1.3333333 0 0 1 0.01116,-0.07366 1.2857143,1.3333333 0 0 1 0.014509,-0.07143 1.2857143,1.3333333 0 0 1 0.018971,-0.07143 1.2857143,1.3333333 0 0 1 0.02232,-0.07031 1.2857143,1.3333333 0 0 1 0.026783,-0.0692 1.2857143,1.3333333 0 0 1 0.030131,-0.06696 1.2857143,1.3333333 0 0 1 0.03348,-0.06585 1.2857143,1.3333333 0 0 1 0.036829,-0.06362 1.2857143,1.3333333 0 0 1 0.040177,-0.06138 1.2857143,1.3333333 0 0 1 0.043526,-0.05804 1.2857143,1.3333333 0 0 1 0.04576,-0.05692 1.2857143,1.3333333 0 0 1 0.050223,-0.05246 1.2857143,1.3333333 0 0 1 0.052457,-0.05134 1.2857143,1.3333333 0 0 1 0.054686,-0.04687 1.2857143,1.3333333 0 0 1 0.05692,-0.044645 1.2857143,1.3333333 0 0 1 0.060268,-0.040177 1.2857143,1.3333333 0 0 1 0.061384,-0.037949 1.2857143,1.3333333 0 0 1 0.063616,-0.03348 1.2857143,1.3333333 0 0 1 0.064732,-0.030137 1.2857143,1.3333333 0 0 1 0.066964,-0.025669 1.2857143,1.3333333 0 0 1 0.068081,-0.02232 1.2857143,1.3333333 0 0 1 0.069197,-0.017857 1.2857143,1.3333333 0 0 1 0.070312,-0.014508 1.2857143,1.3333333 0 0 1 0.070313,-0.010046 1.2857143,1.3333333 0 0 1 0.071429,-0.0067 1.2857143,1.3333333 0 0 1 0.071429,-0.00223 z"
     id="path1"
     class="ColorScheme-Text"
     style="stroke-width:0.571;fill:url(#oomox);stroke-dasharray:none" />
  <metadata
     id="metadata1">
    <rdf:RDF>
      <cc:Work
         rdf:about="">
        <dc:creator>
          <cc:Agent>
            <dc:title>dreifacherspass</dc:title>
          </cc:Agent>
        </dc:creator>
        <cc:license
           rdf:resource="http://creativecommons.org/licenses/by-sa/4.0/" />
      </cc:Work>
      <cc:License
         rdf:about="http://creativecommons.org/licenses/by-sa/4.0/">
        <cc:permits
           rdf:resource="http://creativecommons.org/ns#Reproduction" />
        <cc:permits
           rdf:resource="http://creativecommons.org/ns#Distribution" />
        <cc:requires
           rdf:resource="http://creativecommons.org/ns#Notice" />
        <cc:requires
           rdf:resource="http://creativecommons.org/ns#Attribution" />
        <cc:permits
           rdf:resource="http://creativecommons.org/ns#DerivativeWorks" />
        <cc:requires
           rdf:resource="http://creativecommons.org/ns#ShareAlike" />
      </cc:License>
    </rdf:RDF>
  </metadata>
</svg>
