<?xml version="1.0" encoding="UTF-8" standalone="no"?>
<svg
   width="16"
   height="16"
   version="1.1"
   id="svg29"
   xmlns:xlink="http://www.w3.org/1999/xlink"
   xmlns="http://www.w3.org/2000/svg"
   xmlns:svg="http://www.w3.org/2000/svg"
   xmlns:rdf="http://www.w3.org/1999/02/22-rdf-syntax-ns#"
   xmlns:cc="http://creativecommons.org/ns#"
   xmlns:dc="http://purl.org/dc/elements/1.1/">
   <defs>
      <style id="current-color-scheme" type="text/css">
         .ColorScheme-Text { color: #0abdc6; } .ColorScheme-Highlight { color:#5294e2; }
      </style>
      <linearGradient id="arrongin" x1="0%" x2="0%" y1="0%" y2="100%">
         <stop offset="0%" style="stop-color:#dd9b44; stop-opacity:1"/>
         <stop offset="100%" style="stop-color:#ad6c16; stop-opacity:1"/>
      </linearGradient>
      <linearGradient id="aurora" x1="0%" x2="0%" y1="0%" y2="100%">
         <stop offset="0%" style="stop-color:#09D4DF; stop-opacity:1"/>
         <stop offset="100%" style="stop-color:#9269F4; stop-opacity:1"/>
      </linearGradient>
      <linearGradient id="cyberneon" x1="0%" x2="0%" y1="0%" y2="100%">
         <stop offset="0" style="stop-color:#0abdc6; stop-opacity:1"/>
         <stop offset="1" style="stop-color:#ea00d9; stop-opacity:1"/>
      </linearGradient>
      <linearGradient id="fitdance" x1="0%" x2="0%" y1="0%" y2="100%">
         <stop offset="0%" style="stop-color:#1AD6AB; stop-opacity:1"/>
         <stop offset="100%" style="stop-color:#329DB6; stop-opacity:1"/>
      </linearGradient>
      <linearGradient id="oomox" x1="0%" x2="0%" y1="0%" y2="100%">
         <stop offset="0%" style="stop-color:#0abdc6; stop-opacity:1"/>
         <stop offset="100%" style="stop-color:#b800ff; stop-opacity:1"/>
      </linearGradient>
      <linearGradient id="rainblue" x1="0%" x2="0%" y1="0%" y2="100%">
         <stop offset="0%" style="stop-color:#00F260; stop-opacity:1"/>
         <stop offset="100%" style="stop-color:#0575E6; stop-opacity:1"/>
      </linearGradient>
      <linearGradient id="sunrise" x1="0%" x2="0%" y1="0%" y2="100%">
         <stop offset="0%" style="stop-color: #FF8501; stop-opacity:1"/>
         <stop offset="100%" style="stop-color: #FFCB01; stop-opacity:1"/>
      </linearGradient>
      <linearGradient id="telinkrin" x1="0%" x2="0%" y1="0%" y2="100%">
         <stop offset="0%" style="stop-color: #b2ced6; stop-opacity:1"/>
         <stop offset="100%" style="stop-color: #6da5b7; stop-opacity:1"/>
      </linearGradient>
      <linearGradient id="60spsycho" x1="0%" x2="0%" y1="0%" y2="100%">
         <stop offset="0%" style="stop-color: #df5940; stop-opacity:1"/>
         <stop offset="25%" style="stop-color: #d8d15f; stop-opacity:1"/>
         <stop offset="50%" style="stop-color: #e9882a; stop-opacity:1"/>
         <stop offset="100%" style="stop-color: #279362; stop-opacity:1"/>
      </linearGradient>
      <linearGradient id="90ssummer" x1="0%" x2="0%" y1="0%" y2="100%">
         <stop offset="0%" style="stop-color: #f618c7; stop-opacity:1"/>
         <stop offset="20%" style="stop-color: #94ffab; stop-opacity:1"/>
         <stop offset="50%" style="stop-color: #fbfd54; stop-opacity:1"/>
         <stop offset="100%" style="stop-color: #0f83ae; stop-opacity:1"/>
      </linearGradient>
   </defs>
  <path
     class="ColorScheme-Text"
     d="M 12.81701,6.0385571e-7 C 12.574278,6.0385571e-7 12.329495,0.09485853 12.141021,0.28332468 L 10.28038,2.157279 13.843263,5.7200228 15.71729,3.8594539 c 0.376947,-0.3769324 0.376947,-0.9727606 0,-1.3496933 L 13.490767,0.28332468 C 13.302292,0.09485841 13.05974,6.0385571e-7 12.81701,6.0385571e-7 Z M 8.999793,3.4355834 3.4999999e-8,12.437256 v 3.562743 H 3.5628828 L 12.564908,7.0005581 Z"
     id="path29"
     style="fill:url(#oomox);stroke-width:1.14224" />
  <path
     style="fill:url(#oomox);fill-opacity:1;fill-rule:nonzero;stroke:url(#oomox);stroke-width:0.511;stroke-dasharray:none;image-rendering:optimizeQuality;shape-rendering:geometricPrecision;text-rendering:geometricPrecision"
     d="m 13.662333,15.370412 c -0.522949,0.151367 -0.987846,0.240779 -1.394159,0.268988 -0.503069,0.03652 -0.95469,0.182253 -1.355548,0.03536 0.515393,0.104383 1.029222,-0.07503 1.541791,-0.135546 0.445294,-0.05158 0.862699,-0.160606 1.251592,-0.327525 0.675432,-0.289903 1.187627,-0.768206 1.53659,-1.436268 0.366732,-0.702273 0.431104,-1.404504 0.194545,-2.106974 -0.220917,-0.656022 -0.640314,-1.130925 -1.259937,-1.423126 -0.653037,-0.304444 -1.340789,-0.301929 -2.062275,0.0077 -0.276316,0.118598 -0.58642,0.34067 -0.931179,0.664744 -0.344752,0.324061 -0.745011,0.976552 -1.1995974,1.557059 -0.7156002,0.918449 -1.2234959,1.523299 -1.5235447,1.814874 -0.3000409,0.291569 -1.1322072,1.10282 -1.5210919,1.269733 -0.2251383,0.09663 -0.4757971,0.149458 -0.7511204,0.157987 -0.275309,0.0085 -0.4954512,-0.01492 -0.6605224,-0.07032 0.4216594,-0.03479 0.7655522,-0.108784 1.0316375,-0.222992 0.5474995,-0.234993 1.8101372,-1.5883 2.8108358,-2.894907 0.4755123,-0.622709 0.9039795,-1.327915 1.2862115,-1.71456 0.382241,-0.386652 0.729587,-0.663534 1.042173,-0.83092 l 0.33693,-0.1749971 c 0.670319,-0.2877087 1.366363,-0.2587125 2.088535,0.085822 0.722172,0.3445401 1.208308,0.8878461 1.458549,1.6309461 0.269794,0.801167 0.207179,1.569292 -0.189505,2.304358 -0.375743,0.692842 -0.953141,1.206695 -1.730911,1.540524 z"
     id="path5524"
     class="ColorScheme-Text" />
  <metadata
     id="metadata24">
    <rdf:RDF>
      <cc:Work
         rdf:about="">
        <dc:creator>
          <cc:Agent>
            <dc:title>dreifacherspass</dc:title>
          </cc:Agent>
        </dc:creator>
        <cc:license
           rdf:resource="http://creativecommons.org/licenses/by-sa/4.0/" />
      </cc:Work>
      <cc:License
         rdf:about="http://creativecommons.org/licenses/by-sa/4.0/">
        <cc:permits
           rdf:resource="http://creativecommons.org/ns#Reproduction" />
        <cc:permits
           rdf:resource="http://creativecommons.org/ns#Distribution" />
        <cc:requires
           rdf:resource="http://creativecommons.org/ns#Notice" />
        <cc:requires
           rdf:resource="http://creativecommons.org/ns#Attribution" />
        <cc:permits
           rdf:resource="http://creativecommons.org/ns#DerivativeWorks" />
        <cc:requires
           rdf:resource="http://creativecommons.org/ns#ShareAlike" />
      </cc:License>
    </rdf:RDF>
  </metadata>
</svg>
