<?xml version="1.0" encoding="UTF-8" standalone="no"?>

<svg
   version="1.1"
   id="svg1"
   width="16"
   height="16"
   viewBox="0 0 16 16"
   xmlns:xlink="http://www.w3.org/1999/xlink"
   xmlns="http://www.w3.org/2000/svg"
   xmlns:svg="http://www.w3.org/2000/svg"
   xmlns:rdf="http://www.w3.org/1999/02/22-rdf-syntax-ns#"
   xmlns:cc="http://creativecommons.org/ns#"
   xmlns:dc="http://purl.org/dc/elements/1.1/">
  <defs>
   <style id="current-color-scheme" type="text/css">
   .ColorScheme-Text { color: #0abdc6; } .ColorScheme-Highlight { color:#5294e2; }
  </style>
  <linearGradient id="arrongin" x1="0%" x2="0%" y1="0%" y2="100%">
   <stop offset="0%" style="stop-color:#dd9b44; stop-opacity:1"/>
   <stop offset="100%" style="stop-color:#ad6c16; stop-opacity:1"/>
  </linearGradient>
  <linearGradient id="aurora" x1="0%" x2="0%" y1="0%" y2="100%">
   <stop offset="0%" style="stop-color:#09D4DF; stop-opacity:1"/>
   <stop offset="100%" style="stop-color:#9269F4; stop-opacity:1"/>
  </linearGradient>
  <linearGradient id="cyberneon" x1="0%" x2="0%" y1="0%" y2="100%">
    <stop offset="0" style="stop-color:#0abdc6; stop-opacity:1"/>
    <stop offset="1" style="stop-color:#ea00d9; stop-opacity:1"/>
  </linearGradient>
  <linearGradient id="fitdance" x1="0%" x2="0%" y1="0%" y2="100%">
   <stop offset="0%" style="stop-color:#1AD6AB; stop-opacity:1"/>
   <stop offset="100%" style="stop-color:#329DB6; stop-opacity:1"/>
  </linearGradient>
  <linearGradient id="oomox" x1="0%" x2="0%" y1="0%" y2="100%">
   <stop offset="0%" style="stop-color:#0abdc6; stop-opacity:1"/>
   <stop offset="100%" style="stop-color:#b800ff; stop-opacity:1"/>
  </linearGradient>
  <linearGradient id="rainblue" x1="0%" x2="0%" y1="0%" y2="100%">
   <stop offset="0%" style="stop-color:#00F260; stop-opacity:1"/>
   <stop offset="100%" style="stop-color:#0575E6; stop-opacity:1"/>
  </linearGradient>
  <linearGradient id="sunrise" x1="0%" x2="0%" y1="0%" y2="100%">
   <stop offset="0%" style="stop-color: #FF8501; stop-opacity:1"/>
   <stop offset="100%" style="stop-color: #FFCB01; stop-opacity:1"/>
  </linearGradient>
  <linearGradient id="telinkrin" x1="0%" x2="0%" y1="0%" y2="100%">
   <stop offset="0%" style="stop-color: #b2ced6; stop-opacity:1"/>
   <stop offset="100%" style="stop-color: #6da5b7; stop-opacity:1"/>
  </linearGradient>
  <linearGradient id="60spsycho" x1="0%" x2="0%" y1="0%" y2="100%">
   <stop offset="0%" style="stop-color: #df5940; stop-opacity:1"/>
   <stop offset="25%" style="stop-color: #d8d15f; stop-opacity:1"/>
   <stop offset="50%" style="stop-color: #e9882a; stop-opacity:1"/>
   <stop offset="100%" style="stop-color: #279362; stop-opacity:1"/>
  </linearGradient>
  <linearGradient id="90ssummer" x1="0%" x2="0%" y1="0%" y2="100%">
   <stop offset="0%" style="stop-color: #f618c7; stop-opacity:1"/>
   <stop offset="20%" style="stop-color: #94ffab; stop-opacity:1"/>
   <stop offset="50%" style="stop-color: #fbfd54; stop-opacity:1"/>
   <stop offset="100%" style="stop-color: #0f83ae; stop-opacity:1"/>
  </linearGradient>
 </defs>
  <metadata
     id="metadata3170">
    <rdf:RDF>
      <cc:Work
         rdf:about="">
        <dc:creator>
          <cc:Agent>
            <dc:title>dreifacherspass</dc:title>
          </cc:Agent>
        </dc:creator>
        <cc:license
           rdf:resource="http://creativecommons.org/licenses/by-sa/4.0/" />
      </cc:Work>
      <cc:License
         rdf:about="http://creativecommons.org/licenses/by-sa/4.0/">
        <cc:permits
           rdf:resource="http://creativecommons.org/ns#Reproduction" />
        <cc:permits
           rdf:resource="http://creativecommons.org/ns#Distribution" />
        <cc:requires
           rdf:resource="http://creativecommons.org/ns#Notice" />
        <cc:requires
           rdf:resource="http://creativecommons.org/ns#Attribution" />
        <cc:permits
           rdf:resource="http://creativecommons.org/ns#DerivativeWorks" />
        <cc:requires
           rdf:resource="http://creativecommons.org/ns#ShareAlike" />
      </cc:License>
    </rdf:RDF>
  </metadata>
  <path
     id="path9610"
     class="ColorScheme-Text"
     d="m 12.839177,-1.8117537e-7 c -0.437833,0 -0.798095,0.36183320117537 -0.798095,0.79966630117537 0,0.43783458 0.360262,0.79812608 0.798095,0.79812608 0.437835,0 0.799668,-0.3602915 0.799668,-0.79812608 0,-0.4378331 -0.361833,-0.79966630117537 -0.799668,-0.79966630117537 z M 5.2792712,0.84907325 c -0.4378335,0 -0.798125,0.35972475 -0.798125,0.79758905 0,0.4378032 0.3602915,0.8001736 0.798125,0.8001736 0.4378334,0 0.7996665,-0.3623704 0.7996665,-0.8001736 0,-0.4378346 -0.3618331,-0.79758905 -0.7996665,-0.79758905 z M 9.9576801,1.5322726 v 0 C 8.3992911,1.6072547 7.0998232,2.4987683 5.9250371,3.4622908 4.9008002,4.3023438 3.9558063,5.2025058 3.0435405,5.7276776 H 2.3858103 c -0.2903466,0 -0.5324109,0.2425911 -0.5324109,0.5329287 v 1.6425049 c 0,0.1280452 0.049328,0.2452561 0.1268548,0.3379443 -0.011904,0.027156 -0.021874,0.053004 -0.034314,0.080562 -0.3716095,0.8225894 -0.8241816,1.7140695 -0.98059769,2.6080265 -0.16173735,0.853171 -0.084342,1.643171 0.20432189,2.479604 a 0.26623567,0.26623567 0 0 0 0.00297,0.004 c 0.3721766,1.024854 1.1599191,1.726134 1.3341873,2.389612 a 0.26623567,0.26623567 0 0 0 0.2750421,0.196536 c 1.8561948,-0.127972 4.8557894,-0.116156 6.5891725,-0.10398 a 0.26623567,0.26623567 0 0 0 0.00299,0 c 0.6896437,0 1.2828807,-0.0104 1.9747427,-0.02557 0.774446,-0.0125 1.571586,-0.003 2.389651,0.03898 a 0.26623567,0.26623567 0 0 0 0.243835,-0.400878 c -0.624624,-1.065401 -1.028784,-1.794406 -1.247845,-2.48792 a 0.26623567,0.26623567 0 0 0 0,-0.006 c -0.22913,-0.683915 -0.33582,-1.416302 -0.28702,-2.252356 v -0.003 c 4.9e-5,0 -3e-5,0 0,-0.003 0.0537,-0.7713743 0.243546,-1.7676857 0.569876,-2.6823576 0.06852,-0.1921988 0.146139,-0.3770781 0.227204,-0.5584173 h 1.340921 c 0.290356,0 0.532421,-0.2420643 0.532421,-0.5324213 V 5.3401311 c 0,-0.2903763 -0.242065,-0.5329482 -0.532421,-0.5329482 H 14.016054 C 13.688055,4.2108744 13.316933,3.5170043 12.791094,2.8834205 a 0.26623567,0.26623567 0 0 0 -0.003,-0.00595 0.26623567,0.26623567 0 0 0 -0.03531,-0.056695 0.26623567,0.26623567 0 0 0 -0.004,-0.00401 0.26623567,0.26623567 0 0 0 -0.004,-0.00401 C 12.027284,1.9885409 11.026208,1.483986 9.9600621,1.5295346 a 0.26623567,0.26623567 0 0 0 -0.00299,0 z m 0.023969,0.5313783 C 10.864209,2.0259589 11.712279,2.4434536 12.339607,3.161769 a 0.26623567,0.26623567 0 0 0 0.003,0.00297 c 0,0 0,0 0.003,0.00298 0.439424,0.5134162 0.761856,1.0933162 1.062227,1.6445627 h -0.435198 c -0.290338,0 -0.532422,0.2425911 -0.532422,0.5329497 v 1.6424735 c 0,0.1917019 0.106215,0.3610982 0.261547,0.4549603 -0.06624,0.1488079 -0.129221,0.3003016 -0.185099,0.4570168 -0.345731,0.9691413 -0.543868,2.0017216 -0.601063,2.827943 a 0.26623567,0.26623567 0 0 0 0,0.003 c -0.05321,0.901564 0.06365,1.709138 0.314039,2.456194 0.205007,0.647427 0.615392,1.361754 1.090848,2.187387 -0.671961,-0.02506 -1.340332,-0.04207 -1.980967,-0.03173 -0.691911,0.01491 -1.280812,0.02506 -1.9648765,0.02398 C 7.6819151,15.35454 4.8126512,15.34963 2.911256,15.47042 2.6136089,14.668123 1.9603146,14.019523 1.6748294,13.237808 1.4089669,12.467519 1.3441943,11.796154 1.4902388,11.029098 a 0.26623567,0.26623567 0 0 0 0,-0.004 C 1.6261856,10.248118 2.055211,9.3825832 2.433423,8.5455242 2.449627,8.5098252 2.462559,8.4749172 2.477573,8.4394417 h 1.5239398 c 0.2903472,0 0.5324213,-0.2425719 0.5324213,-0.5329288 V 6.2640261 c 0,-0.2903273 -0.2420741,-0.5329289 -0.5324213,-0.5329289 H 3.9813201 C 4.7450555,5.1916983 5.489825,4.5125568 6.2654042,3.8764388 7.4143034,2.9341386 8.615971,2.1330409 9.9834834,2.066548 Z m 2.9891219,3.2797777 h 1.613397 V 6.9859125 H 12.970771 Z M 2.3863876,6.2611033 H 3.9997434 V 7.9036186 H 2.3863876 Z"
     style="opacity:1;stroke-width:1.10594;fill:url(#oomox)" />
  <path
     id="path1"
     class="ColorScheme-Text"
     d="m 13.058299,1.2556398 a 0.27067112,0.27067112 0 0 0 -0.02805,0.00297 0.27067112,0.27067112 0 0 0 -0.05181,0.012202 0.27067112,0.27067112 0 0 0 -0.04803,0.023764 0.27067112,0.27067112 0 0 0 -0.02377,0.015907 0.27067112,0.27067112 0 0 0 -0.04018,0.035996 0.27067112,0.27067112 0 0 0 -0.02964,0.043853 0.27067112,0.27067112 0 0 0 -0.01429,0.024374 0.27067112,0.27067112 0 0 0 -0.01006,0.023764 0.27067112,0.27067112 0 0 0 -0.007,0.027946 0.27067112,0.27067112 0 0 0 -0.006,0.079759 0.27067112,0.27067112 0 0 0 0.004,0.030132 l 0.717286,3.5199816 a 0.27067112,0.27067112 0 0 0 0.0159,0.051813 0.27067112,0.27067112 0 0 0 0.0122,0.024374 0.27067112,0.27067112 0 0 0 0.0159,0.021681 0.27067112,0.27067112 0 0 0 0.0159,0.022172 0.27067112,0.27067112 0 0 0 0.08623,0.066128 0.27067112,0.27067112 0 0 0 0.02377,0.00996 0.27067112,0.27067112 0 0 0 0.02606,0.00789 0.27067112,0.27067112 0 0 0 0.02606,0.00595 0.27067112,0.27067112 0 0 0 0.02805,0.00298 0.27067112,0.27067112 0 0 0 0.08027,-0.00595 0.27067112,0.27067112 0 0 0 0.07349,-0.031725 0.27067112,0.27067112 0 0 0 0.02438,-0.014285 0.27067112,0.27067112 0 0 0 0.06972,-0.081946 0.27067112,0.27067112 0 0 0 0.01429,-0.023764 0.27067112,0.27067112 0 0 0 0.01006,-0.023764 0.27067112,0.27067112 0 0 0 0.0079,-0.1379705 l -0.716692,-3.519966 a 0.27067112,0.27067112 0 0 0 -0.009,-0.026547 0.27067112,0.27067112 0 0 0 -0.036,-0.071797 0.27067112,0.27067112 0 0 0 -0.102,-0.08772 0.27067112,0.27067112 0 0 0 -0.129504,-0.026056 z M 4.9008995,2.0284351 v 0 a 0.27067112,0.27067112 0 0 0 -0.1057153,0.019984 0.27067112,0.27067112 0 0 0 -0.023769,0.011607 0.27067112,0.27067112 0 0 0 -0.024366,0.014434 0.27067112,0.27067112 0 0 0 -0.019493,0.015907 0.27067112,0.27067112 0 0 0 -0.03809,0.040176 0.27067112,0.27067112 0 0 0 -0.015911,0.019493 0.27067112,0.27067112 0 0 0 -0.014419,0.024374 0.27067112,0.27067112 0 0 0 -0.00299,0.00401 L 2.8800369,5.8289605 a 0.27067112,0.27067112 0 0 0 -0.00996,0.026056 0.27067112,0.27067112 0 0 0 -0.00892,0.023764 0.27067112,0.27067112 0 0 0 -0.00789,0.053897 0.27067112,0.27067112 0 0 0 0.017797,0.1057396 0.27067112,0.27067112 0 0 0 0.012202,0.026457 0.27067112,0.27067112 0 0 0 0.011607,0.023764 0.27067112,0.27067112 0 0 0 0.034314,0.041769 0.27067112,0.27067112 0 0 0 0.019493,0.017901 0.27067112,0.27067112 0 0 0 0.019984,0.017901 0.27067112,0.27067112 0 0 0 0.048138,0.026056 0.27067112,0.27067112 0 0 0 0.051813,0.016503 0.27067112,0.27067112 0 0 0 0.079759,0.00401 0.27067112,0.27067112 0 0 0 0.02805,-0.00297 0.27067112,0.27067112 0 0 0 0.026056,-0.00892 0.27067112,0.27067112 0 0 0 0.050222,-0.019984 0.27067112,0.27067112 0 0 0 0.021681,-0.013839 0.27067112,0.27067112 0 0 0 0.091991,-0.1041183 l 1.7760956,-3.650013 a 0.27067112,0.27067112 0 0 0 0.010042,-0.023764 0.27067112,0.27067112 0 0 0 0.00896,-0.026056 0.27067112,0.27067112 0 0 0 0.00597,-0.081946 0.27067112,0.27067112 0 0 0 -0.00299,-0.026457 0.27067112,0.27067112 0 0 0 -0.00697,-0.026056 0.27067112,0.27067112 0 0 0 -0.00896,-0.026056 0.27067112,0.27067112 0 0 0 -0.011634,-0.026062 0.27067112,0.27067112 0 0 0 -0.012232,-0.022082 0.27067112,0.27067112 0 0 0 -0.015911,-0.021681 0.27067112,0.27067112 0 0 0 -0.038089,-0.040177 0.27067112,0.27067112 0 0 0 -0.043858,-0.031725 0.27067112,0.27067112 0 0 0 -0.023769,-0.012202 0.27067112,0.27067112 0 0 0 -0.052312,-0.015907 0.27067112,0.27067112 0 0 0 -0.053406,-0.00699 z M 9.1127932,2.3450975 C 8.2428944,3.723957 7.175963,5.8434688 6.5501569,6.8397892 L 4.1386558,7.5137404 v 0.5386667 c 0,0.1499327 -0.1207092,0.2706361 -0.2706361,0.2706361 H 3.1935135 l 2.0763497,1.9653338 -1.626483,5.445665 3.721878,-2.672094 2.6715458,2.658339 L 9.9401362,11.327601 12.315139,8.8230834 9.4368935,7.4820245 C 9.4339175,5.6476287 9.4042744,3.9258624 9.1128523,2.3450975 Z"
     style="opacity:1;stroke-width:1.10594;fill:url(#oomox)" />
</svg>
