<?xml version="1.0" encoding="UTF-8" standalone="no"?>
<svg
   viewBox="0 0 16 16"
   height="16"
   width="16"
   id="svg1"
   version="1.1"
   xmlns="http://www.w3.org/2000/svg"
   xmlns:svg="http://www.w3.org/2000/svg"
   xmlns:rdf="http://www.w3.org/1999/02/22-rdf-syntax-ns#"
   xmlns:cc="http://creativecommons.org/ns#"
   xmlns:dc="http://purl.org/dc/elements/1.1/">
  <defs>
   <style id="current-color-scheme" type="text/css">
   .ColorScheme-Text { color: #0abdc6; } .ColorScheme-Highlight { color:#5294e2; }
  </style>
  <linearGradient id="arrongin" x1="0%" x2="0%" y1="0%" y2="100%">
   <stop offset="0%" style="stop-color:#dd9b44; stop-opacity:1"/>
   <stop offset="100%" style="stop-color:#ad6c16; stop-opacity:1"/>
  </linearGradient>
  <linearGradient id="aurora" x1="0%" x2="0%" y1="0%" y2="100%">
   <stop offset="0%" style="stop-color:#09D4DF; stop-opacity:1"/>
   <stop offset="100%" style="stop-color:#9269F4; stop-opacity:1"/>
  </linearGradient>
  <linearGradient id="cyberneon" x1="0%" x2="0%" y1="0%" y2="100%">
    <stop offset="0" style="stop-color:#0abdc6; stop-opacity:1"/>
    <stop offset="1" style="stop-color:#ea00d9; stop-opacity:1"/>
  </linearGradient>
  <linearGradient id="fitdance" x1="0%" x2="0%" y1="0%" y2="100%">
   <stop offset="0%" style="stop-color:#1AD6AB; stop-opacity:1"/>
   <stop offset="100%" style="stop-color:#329DB6; stop-opacity:1"/>
  </linearGradient>
  <linearGradient id="oomox" x1="0%" x2="0%" y1="0%" y2="100%">
   <stop offset="0%" style="stop-color:#0abdc6; stop-opacity:1"/>
   <stop offset="100%" style="stop-color:#b800ff; stop-opacity:1"/>
  </linearGradient>
  <linearGradient id="rainblue" x1="0%" x2="0%" y1="0%" y2="100%">
   <stop offset="0%" style="stop-color:#00F260; stop-opacity:1"/>
   <stop offset="100%" style="stop-color:#0575E6; stop-opacity:1"/>
  </linearGradient>
  <linearGradient id="sunrise" x1="0%" x2="0%" y1="0%" y2="100%">
   <stop offset="0%" style="stop-color: #FF8501; stop-opacity:1"/>
   <stop offset="100%" style="stop-color: #FFCB01; stop-opacity:1"/>
  </linearGradient>
  <linearGradient id="telinkrin" x1="0%" x2="0%" y1="0%" y2="100%">
   <stop offset="0%" style="stop-color: #b2ced6; stop-opacity:1"/>
   <stop offset="100%" style="stop-color: #6da5b7; stop-opacity:1"/>
  </linearGradient>
  <linearGradient id="60spsycho" x1="0%" x2="0%" y1="0%" y2="100%">
   <stop offset="0%" style="stop-color: #df5940; stop-opacity:1"/>
   <stop offset="25%" style="stop-color: #d8d15f; stop-opacity:1"/>
   <stop offset="50%" style="stop-color: #e9882a; stop-opacity:1"/>
   <stop offset="100%" style="stop-color: #279362; stop-opacity:1"/>
  </linearGradient>
  <linearGradient id="90ssummer" x1="0%" x2="0%" y1="0%" y2="100%">
   <stop offset="0%" style="stop-color: #f618c7; stop-opacity:1"/>
   <stop offset="20%" style="stop-color: #94ffab; stop-opacity:1"/>
   <stop offset="50%" style="stop-color: #fbfd54; stop-opacity:1"/>
   <stop offset="100%" style="stop-color: #0f83ae; stop-opacity:1"/>
  </linearGradient>
 </defs>
  <path
     class="ColorScheme-Text"
     d="M 1.2455984,3.6327051 3.6016189,0.45207826 6.1932407,1.08035 l 1.7277486,2.0026168 2.2774867,2.120419 3.534026,0.7068052 0.706806,-0.3534026 0.392678,4.2015691 -0.392678,3.1413605 -0.785335,0.706804 -1.256541,0.431944 -1.727749,-0.471208 -1.8455526,-0.0786 -1.2565436,0.157069 -0.4712039,0.90315 0.078529,1.020932 -2.8664865,-1.06015 -2.3952871,-1.256541 -0.6675397,-1.570679 c 0,0 0.078529,-1.099476 0.2356025,-1.45288 C 1.6382689,9.8761589 1.9524048,8.5410807 2.1880062,8.1876781 2.4236087,7.8342743 2.8948125,6.6562641 2.8555459,6.2243269 2.8162791,5.7923909 2.6199434,4.8107154 2.6199434,4.8107154 L 2.4628753,4.3395115 Z"
     id="path9619"
     style="opacity:0.5;fill:url(#oomox);stroke-width:1.1627" />
  <path
     style="opacity:1;fill:url(#oomox);stroke-width:1.1627"
     d="M 4.3295213,0.01617932 C 4.0192979,-0.00839469 3.6884179,-0.00526632 3.3348688,0.02753379 2.9639562,0.4582493 2.960973,0.83953948 3.4393293,1.1561697 4.6283445,1.0458644 5.3130781,1.3086229 5.9100663,1.7579587 6.5070557,2.2072921 7.0046098,2.8953582 7.6132401,3.6337202 8.2218704,4.3720811 8.9582082,5.1566918 10.065812,5.6752571 11.173411,6.1938235 12.623077,6.4314026 14.609875,6.1930224 15.490345,5.2274663 14.56189,5.1602781 14.473619,5.066657 12.637751,5.2869293 11.434495,5.0619481 10.54724,4.6465398 9.6599801,4.2311351 9.0612549,3.6075838 8.4875358,2.9115743 7.9138178,2.2155648 7.3817513,1.4428078 6.593607,0.84959951 6.0024986,0.40469127 5.2601928,0.08990147 4.3295213,0.01617932 Z M 1.4727318,3.2158749 C 0.8447853,3.2405113 0.71684297,4.1162839 1.3114979,4.3195305 2.3827921,4.7042876 2.4743012,5.0706102 2.3992583,5.7978859 2.3242153,6.5251604 1.8473596,7.5648745 1.4046046,8.6592168 0.96174394,9.7535599 0.5389956,10.938627 0.79146307,12.126883 1.0440363,13.315243 2.0421699,14.342337 3.9775325,14.979125 4.6966466,15.215298 5.0509072,14.136627 4.3317932,13.900453 2.6098743,13.333986 2.0610033,12.649714 1.8996613,11.890704 1.7384251,11.131693 2.0321439,10.133855 2.4560305,9.0861462 2.8800241,8.0384363 3.418439,6.9739543 3.5278944,5.9137012 3.6372428,4.8535562 3.084543,3.74876 1.6952796,3.2499385 1.6241178,3.2238301 1.5484452,3.2122473 1.4727318,3.2158749 Z M 14.700717,9.2337543 c -0.306532,0.00838 -0.550932,0.2588088 -0.551829,0.5654538 0,2.1415139 -0.444094,3.0056909 -0.887931,3.3155159 -0.443709,0.309917 -1.159526,0.242702 -2.036992,0.02498 -0.877466,-0.217624 -1.8110504,-0.591223 -2.7500538,-0.433747 -0.4694493,0.07826 -0.9489386,0.356519 -1.2376405,0.82661 -0.2888087,0.470091 -0.4164616,1.080311 -0.4314697,1.889387 -0.013627,0.756966 1.1218216,0.777406 1.1354485,0.02044 0.012864,-0.692655 0.135208,-1.106227 0.2634247,-1.314851 0.1281086,-0.208623 0.2321784,-0.264397 0.4564504,-0.302034 0.4485428,-0.07504 1.3442714,0.183497 2.2890594,0.417852 0.944799,0.234341 2.045306,0.439744 2.961257,-0.199846 0.916057,-0.639684 1.373893,-1.948732 1.373893,-4.2443049 -9.1e-4,-0.3190639 -0.264683,-0.5746175 -0.583617,-0.5654538 z"
     id="path9609"
     class="ColorScheme-Text"/>
  <metadata
     id="metadata29">
    <rdf:RDF>
      <cc:Work
         rdf:about="">
        <dc:creator>
          <cc:Agent>
            <dc:title>dreifacherspass</dc:title>
          </cc:Agent>
        </dc:creator>
        <cc:license
           rdf:resource="http://creativecommons.org/licenses/by-sa/4.0/" />
      </cc:Work>
      <cc:License
         rdf:about="http://creativecommons.org/licenses/by-sa/4.0/">
        <cc:permits
           rdf:resource="http://creativecommons.org/ns#Reproduction" />
        <cc:permits
           rdf:resource="http://creativecommons.org/ns#Distribution" />
        <cc:requires
           rdf:resource="http://creativecommons.org/ns#Notice" />
        <cc:requires
           rdf:resource="http://creativecommons.org/ns#Attribution" />
        <cc:permits
           rdf:resource="http://creativecommons.org/ns#DerivativeWorks" />
        <cc:requires
           rdf:resource="http://creativecommons.org/ns#ShareAlike" />
      </cc:License>
    </rdf:RDF>
  </metadata>
</svg>
