<?xml version="1.0" encoding="UTF-8" standalone="no"?>
<!-- Created with Inkscape (http://www.inkscape.org/) -->

<svg
   width="16"
   height="16"
   viewBox="0 0 16 16"
   version="1.1"
   id="font_collections"
   xml:space="preserve"
   xmlns:xlink="http://www.w3.org/1999/xlink"
   xmlns="http://www.w3.org/2000/svg"
   xmlns:svg="http://www.w3.org/2000/svg"
   xmlns:rdf="http://www.w3.org/1999/02/22-rdf-syntax-ns#"
   xmlns:cc="http://creativecommons.org/ns#"
   xmlns:dc="http://purl.org/dc/elements/1.1/">
  <defs>
   <style id="current-color-scheme" type="text/css">
   .ColorScheme-Text { color: #0abdc6; } .ColorScheme-Highlight { color:#5294e2; }
  </style>
  <linearGradient id="arrongin" x1="0%" x2="0%" y1="0%" y2="100%">
   <stop offset="0%" style="stop-color:#dd9b44; stop-opacity:1"/>
   <stop offset="100%" style="stop-color:#ad6c16; stop-opacity:1"/>
  </linearGradient>
  <linearGradient id="aurora" x1="0%" x2="0%" y1="0%" y2="100%">
   <stop offset="0%" style="stop-color:#09D4DF; stop-opacity:1"/>
   <stop offset="100%" style="stop-color:#9269F4; stop-opacity:1"/>
  </linearGradient>
  <linearGradient id="cyberneon" x1="0%" x2="0%" y1="0%" y2="100%">
    <stop offset="0" style="stop-color:#0abdc6; stop-opacity:1"/>
    <stop offset="1" style="stop-color:#ea00d9; stop-opacity:1"/>
  </linearGradient>
  <linearGradient id="fitdance" x1="0%" x2="0%" y1="0%" y2="100%">
   <stop offset="0%" style="stop-color:#1AD6AB; stop-opacity:1"/>
   <stop offset="100%" style="stop-color:#329DB6; stop-opacity:1"/>
  </linearGradient>
  <linearGradient id="oomox" x1="0%" x2="0%" y1="0%" y2="100%">
   <stop offset="0%" style="stop-color:#0abdc6; stop-opacity:1"/>
   <stop offset="100%" style="stop-color:#b800ff; stop-opacity:1"/>
  </linearGradient>
  <linearGradient id="rainblue" x1="0%" x2="0%" y1="0%" y2="100%">
   <stop offset="0%" style="stop-color:#00F260; stop-opacity:1"/>
   <stop offset="100%" style="stop-color:#0575E6; stop-opacity:1"/>
  </linearGradient>
  <linearGradient id="sunrise" x1="0%" x2="0%" y1="0%" y2="100%">
   <stop offset="0%" style="stop-color: #FF8501; stop-opacity:1"/>
   <stop offset="100%" style="stop-color: #FFCB01; stop-opacity:1"/>
  </linearGradient>
  <linearGradient id="telinkrin" x1="0%" x2="0%" y1="0%" y2="100%">
   <stop offset="0%" style="stop-color: #b2ced6; stop-opacity:1"/>
   <stop offset="100%" style="stop-color: #6da5b7; stop-opacity:1"/>
  </linearGradient>
  <linearGradient id="60spsycho" x1="0%" x2="0%" y1="0%" y2="100%">
   <stop offset="0%" style="stop-color: #df5940; stop-opacity:1"/>
   <stop offset="25%" style="stop-color: #d8d15f; stop-opacity:1"/>
   <stop offset="50%" style="stop-color: #e9882a; stop-opacity:1"/>
   <stop offset="100%" style="stop-color: #279362; stop-opacity:1"/>
  </linearGradient>
  <linearGradient id="90ssummer" x1="0%" x2="0%" y1="0%" y2="100%">
   <stop offset="0%" style="stop-color: #f618c7; stop-opacity:1"/>
   <stop offset="20%" style="stop-color: #94ffab; stop-opacity:1"/>
   <stop offset="50%" style="stop-color: #fbfd54; stop-opacity:1"/>
   <stop offset="100%" style="stop-color: #0f83ae; stop-opacity:1"/>
  </linearGradient>
 </defs>
 <path
   d="M 6.87038,13.714635 9.5551631,5.7581129 H 11.283424 L 13.87038,13.714635 H 12.250816 L 11.685599,11.953767 H 9.0769021 L 8.500815,13.714635 Z M 9.4790761,10.60594 H 11.326902 L 10.435598,7.7581133 Z"
   id="path12-1"
   class="ColorScheme-Text"
   style="font-weight:bold;font-size:70.819px;line-height:118%;font-family:Exo;-inkscape-font-specification:'Exo, Bold';text-align:center;text-anchor:middle;fill:url(#oomox);fill-opacity:1;stroke:none;stroke-width:1.33619;stroke-linejoin:round;stroke-dasharray:none;stroke-opacity:1;paint-order:markers stroke fill" />
 <path
   class="ColorScheme-Text"
   d="M 3.99414,0 C 2.73595,0.01657 1.81531,-0.03269 1.0625,0.441966 0.68609,0.679314 0.38732,1.079074 0.22266,1.580354 0.05801,2.081634 0,2.67704 0,3.428571 v 9.142858 c 0,0.751531 0.058,1.346937 0.22266,1.848217 0.16466,0.50128 0.46343,0.903268 0.83984,1.140617 C 1.81531,16.034949 2.73595,15.983383 3.99414,16 h 0.006 8 0.006 c 1.25819,-0.01657 2.17883,0.03497 2.93164,-0.439737 0.37641,-0.237349 0.67518,-0.639337 0.83984,-1.140617 C 15.942,13.918366 16,13.32296 16,12.571429 V 9.142857 5.714286 c 0,-0.751532 -0.058,-1.346937 -0.22266,-1.848217 -0.0205,-0.0624 -0.0479,-0.118846 -0.0742,-0.176332 -0.01,-0.02114 -0.0178,-0.04343 -0.0273,-0.06469 -0.1727,-0.387154 -0.42547,-0.70232 -0.73828,-0.899554 -0.75287,-0.474686 -1.67351,-0.42312 -2.9317,-0.439737 h -0.0059 -3.0332 L 6.94527,4.2e-5 H 3.99605 Z m 0.0117,1.142857 h 2.5293 L 8.30076,3.138389 7.0332,4.571429 H 4 3.994 c -1.25819,0.01657 -2.17883,-0.03497 -2.93164,0.439737 -0.0222,0.01394 -0.0409,0.03394 -0.0625,0.04914 V 3.428568 c 0,-0.67704 0.0626,-1.149371 0.16016,-1.446434 C 1.25762,1.685048 1.36336,1.557597 1.54674,1.441963 1.91349,1.210706 2.74218,1.159528 4.00572,1.142854 Z m 5.45898,2.285714 h 2.52735 c 1.26354,0.01669 2.09222,0.06789 2.45898,0.299109 0.18338,0.115634 0.28915,0.243086 0.38672,0.540171 C 14.93559,4.564937 15,5.037246 15,5.714286 v 3.428571 3.428572 c 0,0.67704 -0.0627,1.14936 -0.16016,1.446422 -0.0976,0.297086 -0.20332,0.424549 -0.38672,0.540183 C 14.08701,14.788914 13.2599,14.840343 12,14.857143 H 11.994 4 C 2.7401,14.840343 1.913,14.788913 1.54688,14.558034 1.36347,14.4424 1.25773,14.314937 1.16016,14.017851 1.06256,13.720789 0.99999996,13.248469 0.99999996,12.571429 V 8 c 0,-0.67704 0.0644,-1.149349 0.16211004,-1.446434 C 1.25971,6.25648 1.36545,6.129029 1.54883,6.013394 1.91559,5.782171 2.74427,5.730971 4.00781,5.714286 h 3.43555 z"
   id="path24"
   style="fill:url(#oomox)" />
 <metadata
   id="metadata24"><rdf:RDF><cc:Work
       rdf:about=""><dc:creator><cc:Agent><dc:title>dreifacherspass</dc:title></cc:Agent></dc:creator><cc:license
         rdf:resource="http://creativecommons.org/licenses/by-sa/4.0/" /></cc:Work><cc:License
       rdf:about="http://creativecommons.org/licenses/by-sa/4.0/"><cc:permits
         rdf:resource="http://creativecommons.org/ns#Reproduction" /><cc:permits
         rdf:resource="http://creativecommons.org/ns#Distribution" /><cc:requires
         rdf:resource="http://creativecommons.org/ns#Notice" /><cc:requires
         rdf:resource="http://creativecommons.org/ns#Attribution" /><cc:permits
         rdf:resource="http://creativecommons.org/ns#DerivativeWorks" /><cc:requires
         rdf:resource="http://creativecommons.org/ns#ShareAlike" /></cc:License></rdf:RDF></metadata>
 </svg>
