<?xml version="1.0" encoding="UTF-8" standalone="no"?>
<svg
   width="16"
   height="16"
   version="1.1"
   id="svg30"
   xmlns="http://www.w3.org/2000/svg"
   xmlns:svg="http://www.w3.org/2000/svg"
   xmlns:rdf="http://www.w3.org/1999/02/22-rdf-syntax-ns#"
   xmlns:cc="http://creativecommons.org/ns#"
   xmlns:dc="http://purl.org/dc/elements/1.1/">
   <defs>
      <style id="current-color-scheme" type="text/css">
         .ColorScheme-Text { color: #0abdc6; } .ColorScheme-Highlight { color:#5294e2; }
      </style>
      <linearGradient id="arrongin" x1="0%" x2="0%" y1="0%" y2="100%">
         <stop offset="0%" style="stop-color:#dd9b44; stop-opacity:1"/>
         <stop offset="100%" style="stop-color:#ad6c16; stop-opacity:1"/>
      </linearGradient>
      <linearGradient id="aurora" x1="0%" x2="0%" y1="0%" y2="100%">
         <stop offset="0%" style="stop-color:#09D4DF; stop-opacity:1"/>
         <stop offset="100%" style="stop-color:#9269F4; stop-opacity:1"/>
      </linearGradient>
      <linearGradient id="cyberneon" x1="0%" x2="0%" y1="0%" y2="100%">
         <stop offset="0" style="stop-color:#0abdc6; stop-opacity:1"/>
         <stop offset="1" style="stop-color:#ea00d9; stop-opacity:1"/>
      </linearGradient>
      <linearGradient id="fitdance" x1="0%" x2="0%" y1="0%" y2="100%">
         <stop offset="0%" style="stop-color:#1AD6AB; stop-opacity:1"/>
         <stop offset="100%" style="stop-color:#329DB6; stop-opacity:1"/>
      </linearGradient>
      <linearGradient id="oomox" x1="0%" x2="0%" y1="0%" y2="100%">
         <stop offset="0%" style="stop-color:#0abdc6; stop-opacity:1"/>
         <stop offset="100%" style="stop-color:#b800ff; stop-opacity:1"/>
      </linearGradient>
      <linearGradient id="rainblue" x1="0%" x2="0%" y1="0%" y2="100%">
         <stop offset="0%" style="stop-color:#00F260; stop-opacity:1"/>
         <stop offset="100%" style="stop-color:#0575E6; stop-opacity:1"/>
      </linearGradient>
      <linearGradient id="sunrise" x1="0%" x2="0%" y1="0%" y2="100%">
         <stop offset="0%" style="stop-color: #FF8501; stop-opacity:1"/>
         <stop offset="100%" style="stop-color: #FFCB01; stop-opacity:1"/>
      </linearGradient>
      <linearGradient id="telinkrin" x1="0%" x2="0%" y1="0%" y2="100%">
         <stop offset="0%" style="stop-color: #b2ced6; stop-opacity:1"/>
         <stop offset="100%" style="stop-color: #6da5b7; stop-opacity:1"/>
      </linearGradient>
      <linearGradient id="60spsycho" x1="0%" x2="0%" y1="0%" y2="100%">
         <stop offset="0%" style="stop-color: #df5940; stop-opacity:1"/>
         <stop offset="25%" style="stop-color: #d8d15f; stop-opacity:1"/>
         <stop offset="50%" style="stop-color: #e9882a; stop-opacity:1"/>
         <stop offset="100%" style="stop-color: #279362; stop-opacity:1"/>
      </linearGradient>
      <linearGradient id="90ssummer" x1="0%" x2="0%" y1="0%" y2="100%">
         <stop offset="0%" style="stop-color: #f618c7; stop-opacity:1"/>
         <stop offset="20%" style="stop-color: #94ffab; stop-opacity:1"/>
         <stop offset="50%" style="stop-color: #fbfd54; stop-opacity:1"/>
         <stop offset="100%" style="stop-color: #0f83ae; stop-opacity:1"/>
      </linearGradient>
   </defs>
  <path
     class="ColorScheme-Text"
     fill-rule="evenodd"
     d="M 13.413504,12.367887 H 10.57608 v -0.969566 0 q -1.2693718,1.253341 -3.3849944,1.253341 v 0 0 q -2.0409529,0 -3.3227714,-1.052334 v 0 0 Q 2.5864965,10.546994 2.5864965,8.6315084 v 0 0 q 0,-1.9627816 1.4560452,-2.9796442 v 0 0 Q 5.4985879,4.6350016 7.5644312,4.6350016 v 0 0 q 1.8169454,0 3.0116488,0.6384951 v 0 -0.6384951 0 q 0,-1.1587504 -0.6097964,-1.6790057 v 0 0 Q 9.3564871,2.4357406 8.0871137,2.4357406 v 0 0 q -2.0658424,0 -3.7832298,1.1351024 v 0 L 3.407856,1.3242862 v 0 Q 5.4736983,0 8.3857897,0 v 0 0 q 0.9955869,0 1.7547223,0.15371179 v 0 0 q 0.759136,0.15371178 1.568049,0.60302317 v 0 0 Q 12.517474,1.2060463 12.965488,2.175613 v 0 0 q 0.448016,0.9695666 0.448016,2.4120927 v 0 z M 7.7386577,10.215922 v 0 0 q 1.6676084,0 2.8374223,-1.1587502 v 0 -1.5607661 0 Q 9.4809345,6.9997984 8.0373336,6.9997984 v 0 0 q -1.1698133,0 -1.8916148,0.4020154 v 0 0 Q 5.4239193,7.8038292 5.4239193,8.6315084 v 0 0 q 0,0.7330867 0.5973519,1.1587501 v 0 0 q 0.597352,0.4256635 1.7173865,0.4256635 z"
     id="path30"
     style="fill:url(#oomox);stroke-width:1.0749" />
  <metadata
     id="metadata31">
    <rdf:RDF>
      <cc:Work
         rdf:about="">
        <dc:creator>
          <cc:Agent>
            <dc:title>dreifacherspass</dc:title>
          </cc:Agent>
        </dc:creator>
        <cc:license
           rdf:resource="http://creativecommons.org/licenses/by-sa/4.0/" />
      </cc:Work>
      <cc:License
         rdf:about="http://creativecommons.org/licenses/by-sa/4.0/">
        <cc:permits
           rdf:resource="http://creativecommons.org/ns#Reproduction" />
        <cc:permits
           rdf:resource="http://creativecommons.org/ns#Distribution" />
        <cc:requires
           rdf:resource="http://creativecommons.org/ns#Notice" />
        <cc:requires
           rdf:resource="http://creativecommons.org/ns#Attribution" />
        <cc:permits
           rdf:resource="http://creativecommons.org/ns#DerivativeWorks" />
        <cc:requires
           rdf:resource="http://creativecommons.org/ns#ShareAlike" />
      </cc:License>
    </rdf:RDF>
  </metadata>
  <path
     d="m 4.0998219,12.772859 c -0.687505,0.03223 -1.1547937,0.606939 -1.5436637,1.107528 -0.2943381,0.352347 -0.5317423,0.782037 -0.9324288,1.023738 -0.1353525,0.02149 -0.03545,0.209474 -0.066602,0.311526 0.00322,0.257815 -0.00537,0.529594 0.0043,0.782037 0.6842796,-0.01074 1.160162,-0.57686 1.5468836,-1.072078 0.302932,-0.365237 0.5478556,-0.806745 0.9625071,-1.059188 0.175099,-0.058 0.3115257,0.139649 0.4318392,0.240627 0.5532267,0.586528 0.9292061,1.37501 1.6661255,1.761731 0.5005897,0.268557 1.1118246,0.09131 1.5017689,-0.28467 0.5553753,-0.481253 0.8819402,-1.170907 1.4394639,-1.648937 0.09668,-0.09883 0.247072,-0.114943 0.3459009,-0.0086 0.5381881,0.444729 0.8550835,1.097858 1.3642675,1.573741 0.373831,0.394242 0.972175,0.64024 1.497472,0.41143 0.703619,-0.305082 1.090341,-1.011922 1.561926,-1.575892 0.165431,-0.182618 0.322268,-0.4168 0.568266,-0.486624 -0.0032,-0.356644 0.0054,-0.725103 -0.0043,-1.074227 -0.685357,0.0097 -1.160165,0.57686 -1.54796,1.072079 -0.300781,0.365232 -0.547853,0.805665 -0.961431,1.059182 -0.175099,0.05694 -0.313674,-0.139649 -0.431838,-0.240627 C 10.942646,14.076969 10.567741,13.276671 9.8168568,12.896395 9.3119701,12.635358 8.6985867,12.824425 8.3107909,13.204698 7.7575641,13.693471 7.4320734,14.391718 6.8605849,14.86008 6.7381229,14.978246 6.5780633,14.89446 6.4792344,14.79133 5.8443661,14.211249 5.4866486,13.341125 4.70676,12.91788 A 1.2579195,1.2579195 0 0 0 4.0998219,12.772859 Z"
     id="path2"
     class="ColorScheme-Text"
     style="fill:url(#oomox);stroke-width:1.07422" />
</svg>
