<?xml version="1.0" encoding="UTF-8" standalone="no"?>
<svg
   viewBox="0 0 16 16"
   height="16"
   width="16"
   id="svg1"
   version="1.1"
   xmlns:xlink="http://www.w3.org/1999/xlink"
   xmlns="http://www.w3.org/2000/svg"
   xmlns:svg="http://www.w3.org/2000/svg"
   xmlns:rdf="http://www.w3.org/1999/02/22-rdf-syntax-ns#"
   xmlns:cc="http://creativecommons.org/ns#"
   xmlns:dc="http://purl.org/dc/elements/1.1/">
  <defs>
   <style id="current-color-scheme" type="text/css">
   .ColorScheme-Text { color: #0abdc6; } .ColorScheme-Highlight { color:#5294e2; }
  </style>
  <linearGradient id="arrongin" x1="0%" x2="0%" y1="0%" y2="100%">
   <stop offset="0%" style="stop-color:#dd9b44; stop-opacity:1"/>
   <stop offset="100%" style="stop-color:#ad6c16; stop-opacity:1"/>
  </linearGradient>
  <linearGradient id="aurora" x1="0%" x2="0%" y1="0%" y2="100%">
   <stop offset="0%" style="stop-color:#09D4DF; stop-opacity:1"/>
   <stop offset="100%" style="stop-color:#9269F4; stop-opacity:1"/>
  </linearGradient>
  <linearGradient id="cyberneon" x1="0%" x2="0%" y1="0%" y2="100%">
    <stop offset="0" style="stop-color:#0abdc6; stop-opacity:1"/>
    <stop offset="1" style="stop-color:#ea00d9; stop-opacity:1"/>
  </linearGradient>
  <linearGradient id="fitdance" x1="0%" x2="0%" y1="0%" y2="100%">
   <stop offset="0%" style="stop-color:#1AD6AB; stop-opacity:1"/>
   <stop offset="100%" style="stop-color:#329DB6; stop-opacity:1"/>
  </linearGradient>
  <linearGradient id="oomox" x1="0%" x2="0%" y1="0%" y2="100%">
   <stop offset="0%" style="stop-color:#0abdc6; stop-opacity:1"/>
   <stop offset="100%" style="stop-color:#b800ff; stop-opacity:1"/>
  </linearGradient>
  <linearGradient id="rainblue" x1="0%" x2="0%" y1="0%" y2="100%">
   <stop offset="0%" style="stop-color:#00F260; stop-opacity:1"/>
   <stop offset="100%" style="stop-color:#0575E6; stop-opacity:1"/>
  </linearGradient>
  <linearGradient id="sunrise" x1="0%" x2="0%" y1="0%" y2="100%">
   <stop offset="0%" style="stop-color: #FF8501; stop-opacity:1"/>
   <stop offset="100%" style="stop-color: #FFCB01; stop-opacity:1"/>
  </linearGradient>
  <linearGradient id="telinkrin" x1="0%" x2="0%" y1="0%" y2="100%">
   <stop offset="0%" style="stop-color: #b2ced6; stop-opacity:1"/>
   <stop offset="100%" style="stop-color: #6da5b7; stop-opacity:1"/>
  </linearGradient>
  <linearGradient id="60spsycho" x1="0%" x2="0%" y1="0%" y2="100%">
   <stop offset="0%" style="stop-color: #df5940; stop-opacity:1"/>
   <stop offset="25%" style="stop-color: #d8d15f; stop-opacity:1"/>
   <stop offset="50%" style="stop-color: #e9882a; stop-opacity:1"/>
   <stop offset="100%" style="stop-color: #279362; stop-opacity:1"/>
  </linearGradient>
  <linearGradient id="90ssummer" x1="0%" x2="0%" y1="0%" y2="100%">
   <stop offset="0%" style="stop-color: #f618c7; stop-opacity:1"/>
   <stop offset="20%" style="stop-color: #94ffab; stop-opacity:1"/>
   <stop offset="50%" style="stop-color: #fbfd54; stop-opacity:1"/>
   <stop offset="100%" style="stop-color: #0f83ae; stop-opacity:1"/>
  </linearGradient>
 </defs>
  <path
     class="ColorScheme-Text"
     d="m 4.4022991,5.6155648 c -0.1359814,-0.00126 -0.2754624,0.00334 -0.413675,0.014123 -0.138212,0.011893 -0.2754467,0.029835 -0.409376,0.053476 L 3.4323426,7.0176237 C 3.226325,7.0809023 3.0257266,7.1619953 2.8410246,7.2634934 L 1.8046829,6.4213897 C 1.5727958,6.5858212 1.3752344,6.781746 1.1801751,6.9862749 L 1.8470969,8.1351015 C 1.7204406,8.3027934 1.6077416,8.4847167 1.5164023,8.6754014 l -1.327697,-0.06823 C 0.09830461,8.8727797 0.03819295,9.1479588 0,9.4320631 l 1.208449,0.5316957 c -0.00251,0.1063372 -0.00283,0.2070622 0.00554,0.3153272 l 0.00737,-6.3e-4 c 0.00956,0.09047 0.022157,0.176867 0.038722,0.266153 l -1.10517931,0.722856 c 0.0841893,0.274031 0.18824586,0.53524 0.32085972,0.782482 L 1.7751815,11.765351 c 0.121315,0.173153 0.2618981,0.334135 0.4142918,0.478833 l -0.4702347,1.242882 c 0.2259139,0.169853 0.4530425,0.330606 0.7087188,0.454857 l 0.8845178,-1.00069 c 0.19882,0.06983 0.4103011,0.117631 0.6238939,0.1463 l 0.3632737,1.292047 c 0.1359656,0.0013 0.2742316,-0.0022 0.4124445,-0.01414 h 6.292e-4 c 0.1381995,-0.01147 0.276073,-0.02983 0.4099866,-0.05347 l 0.1462945,-1.334455 c 0.2060146,-0.06329 0.4066034,-0.144416 0.5913149,-0.24587 l 1.0369553,0.842104 c 0.2319,-0.164438 0.4294487,-0.360341 0.6245112,-0.564891 L 6.8548573,11.860033 C 6.9815104,11.69234 7.0935862,11.510417 7.184938,11.319732 l 1.3283108,0.06823 c 0.090389,-0.265609 0.1499075,-0.540779 0.1880914,-0.824895 L 7.4935019,10.031372 c 0.00251,-0.1063263 0.00336,-0.2070877 -0.00614,-0.3153271 l -0.00677,6.294e-4 C 7.4707705,9.6262285 7.4583067,9.5398201 7.4418638,9.4505234 L 8.5464354,8.7276646 C 8.4623407,8.4536343 8.3581894,8.1924159 8.2255756,7.9451833 L 6.9267661,8.2297786 C 6.8054541,8.0566266 6.6642574,7.8950306 6.5118607,7.7503317 L 6.9820865,6.5080762 C 6.756182,6.3382191 6.5290661,6.1774793 6.2733772,6.0532147 L 5.3888595,7.0539058 C 5.1900299,6.9839664 4.9785707,6.9362792 4.7649653,6.9076143 Z M 4.388773,8.1326581 c 0.9568924,0.018191 1.7637451,0.7583804 1.8440253,1.7327677 h 0.00126 C 6.2932988,10.885359 5.5300404,11.771992 4.5062087,11.856356 3.466874,11.941996 2.5548189,11.168452 2.469176,10.129121 H 2.467285 C 2.408393,9.1094465 3.1721298,8.2231508 4.1957538,8.1388044 c 0.064956,-0.00536 0.1292152,-0.00737 0.1930075,-0.00614 z"
     style="opacity:1;stroke-width:1.08678;fill:url(#oomox)"
     id="path4430" />
  <path
     d="m 11.794374,1.6207948 v 6.295e-4 c -0.138845,-0.00355 -0.2772,6.293e-4 -0.41306,0.00981 l -0.28644,1.3117162 C 10.883338,2.9841091 10.674583,3.0440585 10.480201,3.125513 L 9.5385188,2.1783032 C 9.2905751,2.317353 9.0736304,2.4915248 8.8580739,2.6743482 l 0.542144,1.2127509 C 9.256589,4.0404943 9.1251552,4.2093091 9.0142031,4.3892872 L 7.7012568,4.1815292 C 7.5833805,4.436123 7.4944524,4.7033334 7.4264964,4.9818359 l 1.1451412,0.6564732 c -0.00975,0.078045 -0.014955,0.1546155 -0.01967,0.2323467 h -0.00677 c -3.147e-4,0.019513 0.00189,0.037507 0.00189,0.056547 -3.021e-4,0.0086 -0.00158,0.016491 -0.00189,0.025209 h 0.00314 c 0.00126,0.077822 0.00251,0.1544241 0.0086,0.2329635 l -1.174637,0.6023798 c 0.054835,0.2813914 0.1309056,0.552133 0.2366486,0.8119856 L 8.9404969,7.454064 C 9.0429097,7.6390495 9.165649,7.8141182 9.3019263,7.9740774 L 8.7038482,9.1597853 C 8.9105896,9.352525 9.1191784,9.536623 9.3603212,9.6871757 L 10.345642,8.7854491 c 0.190351,0.090519 0.395459,0.1598052 0.604841,0.2108328 l 0.22497,1.3233951 c 0.135267,0.01571 0.273612,0.02593 0.412447,0.02949 v -6.3e-4 c 0.138836,0.0036 0.2772,-2.2e-5 0.413062,-0.0098 l 0.287054,-1.3117166 c 0.211533,-0.041155 0.419676,-0.1005132 0.614058,-0.1819421 l 0.941683,0.946598 C 14.0917,9.6526477 14.308645,9.4790927 14.5242,9.2962694 L 13.982057,8.0828609 c 0.143647,-0.1533918 0.275041,-0.3222097 0.386017,-0.502188 l 1.312945,0.2077611 c 0.117883,-0.2545936 0.20685,-0.5218042 0.27476,-0.8003065 L 14.810637,6.3316542 c 0.0096,-0.077847 0.01539,-0.1542136 0.02029,-0.2317328 h 0.0067 c 3.16e-4,-0.019482 -0.0025,-0.037502 -0.0025,-0.05655 3.09e-4,-0.00863 0.0022,-0.016491 0.0025,-0.025209 h -0.0032 c -0.0013,-0.078073 -0.0028,-0.1550429 -0.0092,-0.2335772 L 16,5.1828181 C 15.945262,4.9014267 15.869106,4.6300588 15.763328,4.3702188 L 14.441777,4.5165102 C 14.339361,4.3315248 14.216616,4.1564561 14.080347,3.9964967 L 14.678426,2.8101752 C 14.471697,2.6174322 14.263108,2.433948 14.021956,2.2833985 L 13.036632,3.1845111 C 12.846294,3.0939933 12.641173,3.0247658 12.431791,2.9736784 L 12.206821,1.6502993 C 12.071556,1.63459 11.933219,1.624115 11.794374,1.6208113 Z m -0.08113,3.4612333 c 0.504135,0.01183 0.903044,0.4176845 0.917707,0.9158631 C 12.602088,6.5037205 12.17936,6.8999385 11.668986,6.8879417 11.16506,6.8761121 10.76625,6.4705844 10.751279,5.9726922 10.779829,5.466548 11.202657,5.0700249 11.713246,5.0820281 Z"
     style="opacity:0.8;stroke-width:1.08678;fill:url(#oomox)"
     id="path9609"
     class="ColorScheme-Text"/>
    <metadata
     id="metadata1906">
    <rdf:RDF>
      <cc:Work
         rdf:about="">
        <dc:format>image/svg+xml</dc:format>
        <dc:type
           rdf:resource="http://purl.org/dc/dcmitype/StillImage" />
        <cc:license
           rdf:resource="http://creativecommons.org/licenses/by-sa/4.0/" />
        <dc:creator>
          <cc:Agent>
            <dc:title>dreifacherspass</dc:title>
          </cc:Agent>
        </dc:creator>
      </cc:Work>
      <cc:License
         rdf:about="http://creativecommons.org/licenses/by-sa/4.0/">
        <cc:permits
           rdf:resource="http://creativecommons.org/ns#Reproduction" />
        <cc:permits
           rdf:resource="http://creativecommons.org/ns#Distribution" />
        <cc:requires
           rdf:resource="http://creativecommons.org/ns#Notice" />
        <cc:requires
           rdf:resource="http://creativecommons.org/ns#Attribution" />
        <cc:permits
           rdf:resource="http://creativecommons.org/ns#DerivativeWorks" />
        <cc:requires
           rdf:resource="http://creativecommons.org/ns#ShareAlike" />
      </cc:License>
    </rdf:RDF>
  </metadata>
</svg>
