<?xml version="1.0" encoding="UTF-8" standalone="no"?>
<svg
   width="16"
   height="16"
   viewBox="0 0 1.6 1.6"
   fill="none"
   version="1.1"
   id="svg45"
   xmlns="http://www.w3.org/2000/svg"
   xmlns:svg="http://www.w3.org/2000/svg"
   xmlns:rdf="http://www.w3.org/1999/02/22-rdf-syntax-ns#"
   xmlns:cc="http://creativecommons.org/ns#"
   xmlns:dc="http://purl.org/dc/elements/1.1/">
   <defs>
      <style id="current-color-scheme" type="text/css">
         .ColorScheme-Text { color: #0abdc6; } .ColorScheme-Highlight { color:#5294e2; }
      </style>
      <linearGradient id="arrongin" x1="0%" x2="0%" y1="0%" y2="100%">
         <stop offset="0%" style="stop-color:#dd9b44; stop-opacity:1"/>
         <stop offset="100%" style="stop-color:#ad6c16; stop-opacity:1"/>
      </linearGradient>
      <linearGradient id="aurora" x1="0%" x2="0%" y1="0%" y2="100%">
         <stop offset="0%" style="stop-color:#09D4DF; stop-opacity:1"/>
         <stop offset="100%" style="stop-color:#9269F4; stop-opacity:1"/>
      </linearGradient>
      <linearGradient id="cyberneon" x1="0%" x2="0%" y1="0%" y2="100%">
         <stop offset="0" style="stop-color:#0abdc6; stop-opacity:1"/>
         <stop offset="1" style="stop-color:#ea00d9; stop-opacity:1"/>
      </linearGradient>
      <linearGradient id="fitdance" x1="0%" x2="0%" y1="0%" y2="100%">
         <stop offset="0%" style="stop-color:#1AD6AB; stop-opacity:1"/>
         <stop offset="100%" style="stop-color:#329DB6; stop-opacity:1"/>
      </linearGradient>
      <linearGradient id="oomox" x1="0%" x2="0%" y1="0%" y2="100%">
         <stop offset="0%" style="stop-color:#0abdc6; stop-opacity:1"/>
         <stop offset="100%" style="stop-color:#b800ff; stop-opacity:1"/>
      </linearGradient>
      <linearGradient id="rainblue" x1="0%" x2="0%" y1="0%" y2="100%">
         <stop offset="0%" style="stop-color:#00F260; stop-opacity:1"/>
         <stop offset="100%" style="stop-color:#0575E6; stop-opacity:1"/>
      </linearGradient>
      <linearGradient id="sunrise" x1="0%" x2="0%" y1="0%" y2="100%">
         <stop offset="0%" style="stop-color: #FF8501; stop-opacity:1"/>
         <stop offset="100%" style="stop-color: #FFCB01; stop-opacity:1"/>
      </linearGradient>
      <linearGradient id="telinkrin" x1="0%" x2="0%" y1="0%" y2="100%">
         <stop offset="0%" style="stop-color: #b2ced6; stop-opacity:1"/>
         <stop offset="100%" style="stop-color: #6da5b7; stop-opacity:1"/>
      </linearGradient>
      <linearGradient id="60spsycho" x1="0%" x2="0%" y1="0%" y2="100%">
         <stop offset="0%" style="stop-color: #df5940; stop-opacity:1"/>
         <stop offset="25%" style="stop-color: #d8d15f; stop-opacity:1"/>
         <stop offset="50%" style="stop-color: #e9882a; stop-opacity:1"/>
         <stop offset="100%" style="stop-color: #279362; stop-opacity:1"/>
      </linearGradient>
      <linearGradient id="90ssummer" x1="0%" x2="0%" y1="0%" y2="100%">
         <stop offset="0%" style="stop-color: #f618c7; stop-opacity:1"/>
         <stop offset="20%" style="stop-color: #94ffab; stop-opacity:1"/>
         <stop offset="50%" style="stop-color: #fbfd54; stop-opacity:1"/>
         <stop offset="100%" style="stop-color: #0f83ae; stop-opacity:1"/>
      </linearGradient>
   </defs>
  <path
     id="path1"
     class="ColorScheme-Text"
     d="m 0.28837016,0.07757422 c -0.0545478,0.0355304 -0.0334082,0.0981432 -0.0207892,0.12486608 0.0133557,0.0285691 0.19889586,0.33065949 0.21756852,0.35682891 0.0185501,0.0257966 0.17091666,0.26163451 0.1681247,0.27726255 -1.895e-5,3.048e-5 -1.6549e-4,3.8433e-4 -1.8347e-4,4.1121e-4 -3.5e-6,5.52e-6 -2.383e-5,2.247e-5 -2.863e-5,2.88e-5 l 2.362e-5,-3.701e-5 c -6.642e-5,1.0416e-4 -1.9674e-4,1.7799e-4 -2.7038e-4,2.779e-4 -2.3423e-4,3.3094e-4 -0.001133,0.001087 -0.001581,0.001552 -0.0110178,0.007608 -0.0553403,-0.001353 -0.1111536,-0.0730652 -0.0456194,-0.0587221 -0.1669095,-0.22674415 -0.2402795,-0.30453582 -0.0733687,-0.0777896 -0.1324358,-0.11204918 -0.18730015,-0.0790982 -0.05486315,0.0329532 -0.0318314,0.11296014 0.0207192,0.18256397 0.0649827,0.0860225 0.14056662,0.17460772 0.21298043,0.2596192 0.0532726,0.0624215 0.17044168,0.1910357 0.17041928,0.2179293 -5.0397e-4,0.00197 -9.9837e-4,0.00336 -0.001499,0.00378 -0.0166488,0.014127 -0.0536453,-0.00297 -0.0980367,-0.037716 -1.87e-6,-1.4e-6 -4.77e-6,-1e-7 -6.62e-6,-1.5e-6 -3.38e-6,-2.8e-6 -8.27e-6,-7.3e-6 -1.166e-5,-9.9e-6 -0.0443982,-0.034758 -0.15063488,-0.13468706 -0.21858966,-0.18258185 -0.06796,-0.0478983 -0.12462761,-0.043789 -0.16007269,0.0158637 -0.03534308,0.0595903 0.08420698,0.15310239 0.11175099,0.17738085 0.0421174,0.03727 0.1710787,0.1753123 0.23127604,0.2343136 l 2.51e-6,4.1e-6 c 1.1e-6,1.1e-6 1.43e-6,2.9e-6 2.52e-6,4.1e-6 0.0715026,0.076812 0.28550905,0.3325583 0.43886551,0.3452371 C 1.0824022,1.6201309 1.3647309,1.4102195 1.3975041,1.2116461 1.4302163,1.012968 1.3844272,0.92807792 1.4156455,0.76209476 1.4421075,0.62162066 1.5557064,0.57129188 1.5672918,0.50078849 1.5771281,0.44152387 1.4913588,0.41255786 1.4625045,0.40786531 1.4112534,0.39933847 1.2691026,0.44338046 1.2404837,0.61639085 1.2293266,0.68366446 1.2001466,0.74132652 1.1312392,0.730026 1.0623912,0.71873354 1.01918,0.62268649 0.99617334,0.53747951 l 9.63e-5,-1.8306e-4 C 0.97317464,0.45209947 0.8590728,0.16569146 0.83406324,0.08660907 0.80911851,0.00762874 0.74856834,-0.01103638 0.69756265,0.00557506 0.64655695,0.02218649 0.61613825,0.07735362 0.67183005,0.2316279 c 0.0351601,0.0973198 0.0623302,0.18525379 0.14084601,0.35284674 l 1.3901e-4,3.358e-5 c 0.0148293,0.0317473 0.0129528,0.0833784 0.002665,0.0907921 -0.0101924,0.007357 -0.0348759,-0.0131583 -0.0522506,-0.0374357 -2.39e-6,-3.35e-6 -6.74e-6,-2.38e-6 -9.13e-6,-5.73e-6 C 0.74566902,0.61327366 0.59761766,0.36492625 0.56376308,0.31135855 0.50019449,0.21077067 0.43225776,0.0066275 0.30031424,0.07084752 c -0.004334,0.002109 -0.008308,0.004358 -0.0119441,0.0067267 z"
     style="opacity:1;fill:url(#oomox);stroke-width:0.0246627" />
  <metadata
     id="metadata47">
    <rdf:RDF>
      <cc:Work
         rdf:about="">
        <dc:creator>
          <cc:Agent>
            <dc:title>dreifacherspass</dc:title>
          </cc:Agent>
        </dc:creator>
        <cc:license
           rdf:resource="http://creativecommons.org/licenses/by-sa/4.0/" />
      </cc:Work>
      <cc:License
         rdf:about="http://creativecommons.org/licenses/by-sa/4.0/">
        <cc:permits
           rdf:resource="http://creativecommons.org/ns#Reproduction" />
        <cc:permits
           rdf:resource="http://creativecommons.org/ns#Distribution" />
        <cc:requires
           rdf:resource="http://creativecommons.org/ns#Notice" />
        <cc:requires
           rdf:resource="http://creativecommons.org/ns#Attribution" />
        <cc:permits
           rdf:resource="http://creativecommons.org/ns#DerivativeWorks" />
        <cc:requires
           rdf:resource="http://creativecommons.org/ns#ShareAlike" />
      </cc:License>
    </rdf:RDF>
  </metadata>
</svg>
