<?xml version="1.0" encoding="UTF-8" standalone="no"?>
<svg
   viewBox="0 0 16 16"
   height="16"
   width="16"
   id="svg1"
   version="1.1"
   xmlns:xlink="http://www.w3.org/1999/xlink"
   xmlns="http://www.w3.org/2000/svg"
   xmlns:svg="http://www.w3.org/2000/svg"
   xmlns:rdf="http://www.w3.org/1999/02/22-rdf-syntax-ns#"
   xmlns:cc="http://creativecommons.org/ns#"
   xmlns:dc="http://purl.org/dc/elements/1.1/">
  <defs>
   <style id="current-color-scheme" type="text/css">
   .ColorScheme-Text { color: #0abdc6; } .ColorScheme-Highlight { color:#5294e2; }
  </style>
  <linearGradient id="arrongin" x1="0%" x2="0%" y1="0%" y2="100%">
   <stop offset="0%" style="stop-color:#dd9b44; stop-opacity:1"/>
   <stop offset="100%" style="stop-color:#ad6c16; stop-opacity:1"/>
  </linearGradient>
  <linearGradient id="aurora" x1="0%" x2="0%" y1="0%" y2="100%">
   <stop offset="0%" style="stop-color:#09D4DF; stop-opacity:1"/>
   <stop offset="100%" style="stop-color:#9269F4; stop-opacity:1"/>
  </linearGradient>
  <linearGradient id="cyberneon" x1="0%" x2="0%" y1="0%" y2="100%">
    <stop offset="0" style="stop-color:#0abdc6; stop-opacity:1"/>
    <stop offset="1" style="stop-color:#ea00d9; stop-opacity:1"/>
  </linearGradient>
  <linearGradient id="fitdance" x1="0%" x2="0%" y1="0%" y2="100%">
   <stop offset="0%" style="stop-color:#1AD6AB; stop-opacity:1"/>
   <stop offset="100%" style="stop-color:#329DB6; stop-opacity:1"/>
  </linearGradient>
  <linearGradient id="oomox" x1="0%" x2="0%" y1="0%" y2="100%">
   <stop offset="0%" style="stop-color:#0abdc6; stop-opacity:1"/>
   <stop offset="100%" style="stop-color:#b800ff; stop-opacity:1"/>
  </linearGradient>
  <linearGradient id="rainblue" x1="0%" x2="0%" y1="0%" y2="100%">
   <stop offset="0%" style="stop-color:#00F260; stop-opacity:1"/>
   <stop offset="100%" style="stop-color:#0575E6; stop-opacity:1"/>
  </linearGradient>
  <linearGradient id="sunrise" x1="0%" x2="0%" y1="0%" y2="100%">
   <stop offset="0%" style="stop-color: #FF8501; stop-opacity:1"/>
   <stop offset="100%" style="stop-color: #FFCB01; stop-opacity:1"/>
  </linearGradient>
  <linearGradient id="telinkrin" x1="0%" x2="0%" y1="0%" y2="100%">
   <stop offset="0%" style="stop-color: #b2ced6; stop-opacity:1"/>
   <stop offset="100%" style="stop-color: #6da5b7; stop-opacity:1"/>
  </linearGradient>
  <linearGradient id="60spsycho" x1="0%" x2="0%" y1="0%" y2="100%">
   <stop offset="0%" style="stop-color: #df5940; stop-opacity:1"/>
   <stop offset="25%" style="stop-color: #d8d15f; stop-opacity:1"/>
   <stop offset="50%" style="stop-color: #e9882a; stop-opacity:1"/>
   <stop offset="100%" style="stop-color: #279362; stop-opacity:1"/>
  </linearGradient>
  <linearGradient id="90ssummer" x1="0%" x2="0%" y1="0%" y2="100%">
   <stop offset="0%" style="stop-color: #f618c7; stop-opacity:1"/>
   <stop offset="20%" style="stop-color: #94ffab; stop-opacity:1"/>
   <stop offset="50%" style="stop-color: #fbfd54; stop-opacity:1"/>
   <stop offset="100%" style="stop-color: #0f83ae; stop-opacity:1"/>
  </linearGradient>
 </defs>
  <path
     id="path5008"
     class="ColorScheme-Text"
     d="m 10.461468,1.4196239 v 0.0027 L 9.9171526,2.2781963 c 0.2677694,0.1707148 0.6640864,0.3535001 1.1609774,0.5888498 0.496621,0.2352348 1.077664,0.5076897 1.624708,0.7927882 0.547067,0.2850613 1.06232,0.5864305 1.414223,0.8537969 0.255989,0.1946982 0.374678,0.378249 0.421814,0.4373349 -0.0079,0.011303 -0.0079,0.013971 -0.02961,0.033751 -0.08162,0.07877 -0.241185,0.1938797 -0.448934,0.3115675 -0.415543,0.2351335 -1.016861,0.4914235 -1.62696,0.7504807 -0.610073,0.2589701 -1.229493,0.5198567 -1.729401,0.802949 -0.250225,0.1415034 -0.472232,0.2874018 -0.65805,0.4673299 -0.1855466,0.1799292 -0.3626006,0.4229791 -0.3639718,0.7510121 0,0.3240432 0.1740381,0.5667047 0.3560238,0.7462298 0.181706,0.1795149 0.398774,0.3228027 0.643527,0.4635664 0.488944,0.2815557 1.094922,0.5416846 1.69159,0.7992105 0.596387,0.257623 1.182901,0.514129 1.58963,0.748357 0.20364,0.117113 0.360403,0.229949 0.441256,0.309406 0.02477,0.02578 0.02994,0.03355 0.03895,0.04604 -0.03839,0.05449 -0.140878,0.228575 -0.370287,0.419134 -0.309699,0.257204 -0.767673,0.549746 -1.256346,0.827563 -0.488673,0.27784 -1.007225,0.544838 -1.452871,0.775125 -0.445646,0.230388 -0.802492,0.408305 -1.049711,0.580266 l 0.578577,0.831863 c 0.116754,-0.08083 0.492512,-0.282398 0.936234,-0.51174 0.444003,-0.229454 0.973249,-0.50315 1.487128,-0.795479 0.514172,-0.292328 1.010241,-0.601509 1.40408,-0.928724 0.39385,-0.32725 0.766051,-0.663314 0.757011,-1.223721 -0.01126,-0.322656 -0.179526,-0.56294 -0.362328,-0.742455 -0.18306,-0.179579 -0.39959,-0.325989 -0.645165,-0.4672753 C 13.978389,9.6627053 13.369946,9.4038158 12.773559,9.1461906 12.176891,8.8886712 11.592009,8.6324082 11.187217,8.3994429 10.98522,8.2830205 10.829268,8.1694384 10.750622,8.0916636 c -0.01374,-0.014241 -0.01374,-0.014241 -0.02184,-0.023551 0.0079,-0.00991 0.0079,-0.010357 0.02184,-0.025758 0.08195,-0.079738 0.243368,-0.1942929 0.451387,-0.3120865 0.41605,-0.2354622 1.016546,-0.4914168 1.626904,-0.7505021 0.610098,-0.2590583 1.230048,-0.5201385 1.729427,-0.8029235 0.249673,-0.1414235 0.470312,-0.285264 0.65585,-0.4651932 0.185279,-0.1799292 0.363972,-0.4248152 0.363972,-0.7531826 0,-0.5906273 -0.413033,-0.9223179 -0.849629,-1.254192 C 14.291927,3.3723616 13.73994,3.0574798 13.168219,2.7594497 12.596228,2.4614218 12.006427,2.182873 11.511449,1.9484567 11.016472,1.7139345 10.598226,1.5086 10.459554,1.4201248 Z"
     style="opacity:1;stroke-width:1.12577;fill:url(#oomox)" />
  <path
     id="path5006"
     class="ColorScheme-Text"
     d="M 1.6337969,1.1262803 1.08784,1.9800784 5.3022813,4.6630206 0.421838,7.7682891 5.2332177,10.882158 1.4860714,13.488007 2.0646428,14.319319 7.0500618,10.851616 2.2976104,7.7763147 7.1876441,4.6630206 Z"
     style="opacity:1;stroke-width:1.12577;fill:url(#oomox)" />
  <path
     class="ColorScheme-Text"
     d="M 7.7275702,0 V 0.06796148 0.7579716 0.82645205 H 8.4867588 V 0.75797182 0.0679617 0 Z m 0,1.5170591 v 0.06848 0.6899831 0.067963 h 0.7591886 v -0.067963 -0.6899831 -0.06848 z m 0,1.5175755 v 0.068481 0.689463 0.068492 h 0.7591886 v -0.068492 -0.689463 -0.068483 z m 0,1.5175835 v 0.067951 0.6900112 0.068571 h 0.7591886 v -0.06857 -0.6900102 -0.067956 z m 0,1.5170306 v 0.06848 0.6900101 0.06848 H 8.4867588 V 6.8277404 6.1377292 6.0692465 Z m 0,1.5175745 v 0.06848 0.6894912 0.06848 H 8.4867588 V 8.3447925 7.6553014 7.586822 Z m 0,1.5170565 v 0.06848 0.6900124 0.068413 H 8.4867588 V 9.8623703 9.1723613 9.103882 Z m 0,1.5175733 v 0.06856 0.690006 0.06788 h 0.7591886 v -0.06788 -0.690006 -0.06856 z m 0,1.51758 v 0.06811 0.689983 0.06856 h 0.7591886 v -0.06856 -0.689983 -0.06811 z m 0,1.517062 v 0.06856 0.689983 0.06856 h 0.7591886 v -0.06856 -0.689983 -0.06856 z m 0,1.517569 v 0.06845 0.690005 V 16 h 0.7591886 v -0.06788 -0.690005 -0.06845 z"
     style="opacity:1;stroke-width:1.12577;fill:url(#oomox)"
     id="path9609" />
    <metadata
     id="metadata1906">
    <rdf:RDF>
      <cc:Work
         rdf:about="">
        <dc:format>image/svg+xml</dc:format>
        <dc:type
           rdf:resource="http://purl.org/dc/dcmitype/StillImage" />
        <cc:license
           rdf:resource="http://creativecommons.org/licenses/by-sa/4.0/" />
        <dc:creator>
          <cc:Agent>
            <dc:title>dreifacherspass</dc:title>
          </cc:Agent>
        </dc:creator>
      </cc:Work>
      <cc:License
         rdf:about="http://creativecommons.org/licenses/by-sa/4.0/">
        <cc:permits
           rdf:resource="http://creativecommons.org/ns#Reproduction" />
        <cc:permits
           rdf:resource="http://creativecommons.org/ns#Distribution" />
        <cc:requires
           rdf:resource="http://creativecommons.org/ns#Notice" />
        <cc:requires
           rdf:resource="http://creativecommons.org/ns#Attribution" />
        <cc:permits
           rdf:resource="http://creativecommons.org/ns#DerivativeWorks" />
        <cc:requires
           rdf:resource="http://creativecommons.org/ns#ShareAlike" />
      </cc:License>
    </rdf:RDF>
  </metadata>
</svg>
