<?xml version="1.0" encoding="UTF-8" standalone="no"?>
<!-- Created with Inkscape (http://www.inkscape.org/) and export_objects.py -->

<svg
   version="1.1"
   id="svg1"
   width="16"
   height="16"
   viewBox="0 0 16 16"
   xmlns="http://www.w3.org/2000/svg"
   xmlns:svg="http://www.w3.org/2000/svg"
   xmlns:rdf="http://www.w3.org/1999/02/22-rdf-syntax-ns#"
   xmlns:cc="http://creativecommons.org/ns#"
   xmlns:dc="http://purl.org/dc/elements/1.1/">
  <defs>
   <style id="current-color-scheme" type="text/css">
   .ColorScheme-Text { color: #0abdc6; } .ColorScheme-Highlight { color:#5294e2; }
  </style>
  <linearGradient id="arrongin" x1="0%" x2="0%" y1="0%" y2="100%">
   <stop offset="0%" style="stop-color:#dd9b44; stop-opacity:1"/>
   <stop offset="100%" style="stop-color:#ad6c16; stop-opacity:1"/>
  </linearGradient>
  <linearGradient id="aurora" x1="0%" x2="0%" y1="0%" y2="100%">
   <stop offset="0%" style="stop-color:#09D4DF; stop-opacity:1"/>
   <stop offset="100%" style="stop-color:#9269F4; stop-opacity:1"/>
  </linearGradient>
  <linearGradient id="cyberneon" x1="0%" x2="0%" y1="0%" y2="100%">
    <stop offset="0" style="stop-color:#0abdc6; stop-opacity:1"/>
    <stop offset="1" style="stop-color:#ea00d9; stop-opacity:1"/>
  </linearGradient>
  <linearGradient id="fitdance" x1="0%" x2="0%" y1="0%" y2="100%">
   <stop offset="0%" style="stop-color:#1AD6AB; stop-opacity:1"/>
   <stop offset="100%" style="stop-color:#329DB6; stop-opacity:1"/>
  </linearGradient>
  <linearGradient id="oomox" x1="0%" x2="0%" y1="0%" y2="100%">
   <stop offset="0%" style="stop-color:#0abdc6; stop-opacity:1"/>
   <stop offset="100%" style="stop-color:#b800ff; stop-opacity:1"/>
  </linearGradient>
  <linearGradient id="rainblue" x1="0%" x2="0%" y1="0%" y2="100%">
   <stop offset="0%" style="stop-color:#00F260; stop-opacity:1"/>
   <stop offset="100%" style="stop-color:#0575E6; stop-opacity:1"/>
  </linearGradient>
  <linearGradient id="sunrise" x1="0%" x2="0%" y1="0%" y2="100%">
   <stop offset="0%" style="stop-color: #FF8501; stop-opacity:1"/>
   <stop offset="100%" style="stop-color: #FFCB01; stop-opacity:1"/>
  </linearGradient>
  <linearGradient id="telinkrin" x1="0%" x2="0%" y1="0%" y2="100%">
   <stop offset="0%" style="stop-color: #b2ced6; stop-opacity:1"/>
   <stop offset="100%" style="stop-color: #6da5b7; stop-opacity:1"/>
  </linearGradient>
  <linearGradient id="60spsycho" x1="0%" x2="0%" y1="0%" y2="100%">
   <stop offset="0%" style="stop-color: #df5940; stop-opacity:1"/>
   <stop offset="25%" style="stop-color: #d8d15f; stop-opacity:1"/>
   <stop offset="50%" style="stop-color: #e9882a; stop-opacity:1"/>
   <stop offset="100%" style="stop-color: #279362; stop-opacity:1"/>
  </linearGradient>
  <linearGradient id="90ssummer" x1="0%" x2="0%" y1="0%" y2="100%">
   <stop offset="0%" style="stop-color: #f618c7; stop-opacity:1"/>
   <stop offset="20%" style="stop-color: #94ffab; stop-opacity:1"/>
   <stop offset="50%" style="stop-color: #fbfd54; stop-opacity:1"/>
   <stop offset="100%" style="stop-color: #0f83ae; stop-opacity:1"/>
  </linearGradient>
 </defs>
  <path
     id="path2"
     class="ColorScheme-Text"
     d="M 9.9103921,0.00216432 C 6.4471759,0.06727132 3.696656,1.6022574 2.0451628,3.9145069 -0.15682822,6.9975054 -0.56472348,11.22622 0.74431507,15.059121 A 1.4077472,1.3723259 0 1 0 3.4156428,14.192119 C 2.3643699,11.113959 2.7699071,7.7052254 4.3556722,5.484998 5.6753364,3.6373408 7.702058,2.4530083 10.844092,2.7451238 9.4527467,5.3522811 9.7508157,8.1102243 10.524416,10.165613 c 0.481951,1.28051 1.12238,2.341636 1.645842,3.094703 0.261718,0.376527 0.493009,0.675415 0.66466,0.885524 0.171663,0.210096 0.08316,0.112527 0.300681,0.348655 a 1.407716,1.3722955 0 1 0 2.095292,-1.832766 c -0.152338,-0.165238 -0.06045,-0.06303 -0.193071,-0.225231 -0.132401,-0.162155 -0.322856,-0.4062 -0.538063,-0.71582 C 14.06933,11.101451 13.542524,10.218555 13.167248,9.2214678 12.416684,7.227291 12.169672,4.9833593 14.284537,2.6988419 A 8.6686931,8.4505741 0 0 1 15.999999,1.273367 15.759945,15.363398 0 0 0 13.597715,0.45263945 C 12.299041,0.12135522 11.064785,-0.01953798 9.9103921,0.00216432 Z M 9.9293821,1.214744 C 10.957184,1.203707 12.072775,1.3400458 13.274874,1.6467061 a 15.664776,15.270623 0 0 1 0.227883,0.058623 9.3157926,9.0813915 0 0 0 -0.158168,0.1666119 c -2.45047,2.6469692 -2.213977,5.5260621 -1.367399,7.7753168 0.423282,1.1246302 1.002638,2.0851172 1.474918,2.7645652 0.236146,0.339725 0.444924,0.609218 0.595037,0.792953 0.15006,0.183734 0.05895,0.0836 0.240557,0.280784 a 0.14115511,0.13760341 0 1 1 -0.208908,0.185105 C 13.890613,13.466391 13.98275,13.56613 13.828759,13.377562 13.674729,13.189032 13.458703,12.912498 13.217898,12.566101 12.7363,11.873255 12.148434,10.895883 11.71448,9.7429078 10.864549,7.4847021 10.621977,4.5390066 12.983677,1.856516 3.6998756,-0.36819228 -0.10323532,7.8022192 2.2129129,14.583971 a 0.14077264,0.13723056 0 1 1 -0.265868,0.08639 C -0.14077976,8.557143 2.7348274,1.2916657 9.9293821,1.214744 Z"
     style="opacity:1;stroke-width:1.28489;stroke:none;fill:url(#oomox)" />
  <metadata
     id="metadata24">
    <rdf:RDF>
      <cc:Work
         rdf:about="">
        <dc:creator>
          <cc:Agent>
            <dc:title>dreifacherspass</dc:title>
          </cc:Agent>
        </dc:creator>
        <cc:license
           rdf:resource="http://creativecommons.org/licenses/by-sa/4.0/" />
      </cc:Work>
      <cc:License
         rdf:about="http://creativecommons.org/licenses/by-sa/4.0/">
        <cc:permits
           rdf:resource="http://creativecommons.org/ns#Reproduction" />
        <cc:permits
           rdf:resource="http://creativecommons.org/ns#Distribution" />
        <cc:requires
           rdf:resource="http://creativecommons.org/ns#Notice" />
        <cc:requires
           rdf:resource="http://creativecommons.org/ns#Attribution" />
        <cc:permits
           rdf:resource="http://creativecommons.org/ns#DerivativeWorks" />
        <cc:requires
           rdf:resource="http://creativecommons.org/ns#ShareAlike" />
      </cc:License>
    </rdf:RDF>
  </metadata>
</svg>
