<?xml version="1.0" encoding="UTF-8" standalone="no"?>
<!-- Created with Inkscape (http://www.inkscape.org/) -->

<svg
   width="48"
   height="48"
   viewBox="0 0 12.7 12.7"
   version="1.1"
   id="svg3814"
   xmlns:xlink="http://www.w3.org/1999/xlink"
   xmlns="http://www.w3.org/2000/svg"
   xmlns:svg="http://www.w3.org/2000/svg"
   xmlns:rdf="http://www.w3.org/1999/02/22-rdf-syntax-ns#"
   xmlns:cc="http://creativecommons.org/ns#"
   xmlns:dc="http://purl.org/dc/elements/1.1/">
  <defs
     id="defs3811">
    <style
       id="current-color-scheme"
       type="text/css">
      .ColorScheme-Text { color: #0abdc6; } .ColorScheme-Highlight { color:#5294e2; }
     </style>
    <linearGradient
       id="arrongin"
       x1="0%"
       x2="0%"
       y1="0%"
       y2="100%">
      <stop
         offset="0%"
         style="stop-color:#dd9b44; stop-opacity:1"
         id="stop9192" />
      <stop
         offset="100%"
         style="stop-color:#ad6c16; stop-opacity:1"
         id="stop9194" />
    </linearGradient>
    <linearGradient
       id="aurora"
       x1="0%"
       x2="0%"
       y1="0%"
       y2="100%">
      <stop
         offset="0%"
         style="stop-color:#09D4DF; stop-opacity:1"
         id="stop9197" />
      <stop
         offset="100%"
         style="stop-color:#9269F4; stop-opacity:1"
         id="stop9199" />
    </linearGradient>
    <linearGradient
       id="cyberneon"
       x1="0%"
       x2="0%"
       y1="0%"
       y2="100%">
      <stop
         offset="0"
         style="stop-color:#0abdc6; stop-opacity:1"
         id="stop9202" />
      <stop
         offset="1"
         style="stop-color:#ea00d9; stop-opacity:1"
         id="stop9204" />
    </linearGradient>
    <linearGradient
       id="fitdance"
       x1="0%"
       x2="0%"
       y1="0%"
       y2="100%">
      <stop
         offset="0%"
         style="stop-color:#1AD6AB; stop-opacity:1"
         id="stop9207" />
      <stop
         offset="100%"
         style="stop-color:#329DB6; stop-opacity:1"
         id="stop9209" />
    </linearGradient>
    <linearGradient
       id="oomox"
       x1="0%"
       x2="0%"
       y1="0%"
       y2="100%">
      <stop
         offset="0%"
         style="stop-color:#0abdc6; stop-opacity:1"
         id="stop9212" />
      <stop
         offset="100%"
         style="stop-color:#b800ff; stop-opacity:1"
         id="stop9214" />
    </linearGradient>
    <linearGradient
       id="rainblue"
       x1="0%"
       x2="0%"
       y1="0%"
       y2="100%">
      <stop
         offset="0%"
         style="stop-color:#00F260; stop-opacity:1"
         id="stop9217" />
      <stop
         offset="100%"
         style="stop-color:#0575E6; stop-opacity:1"
         id="stop9219" />
    </linearGradient>
    <linearGradient
       id="sunrise"
       x1="0%"
       x2="0%"
       y1="0%"
       y2="100%">
      <stop
         offset="0%"
         style="stop-color: #FF8501; stop-opacity:1"
         id="stop9222" />
      <stop
         offset="100%"
         style="stop-color: #FFCB01; stop-opacity:1"
         id="stop9224" />
    </linearGradient>
    <linearGradient
       id="telinkrin"
       x1="0%"
       x2="0%"
       y1="0%"
       y2="100%">
      <stop
         offset="0%"
         style="stop-color: #b2ced6; stop-opacity:1"
         id="stop9227" />
      <stop
         offset="100%"
         style="stop-color: #6da5b7; stop-opacity:1"
         id="stop9229" />
    </linearGradient>
    <linearGradient
       id="60spsycho"
       x1="0%"
       x2="0%"
       y1="0%"
       y2="100%">
      <stop
         offset="0%"
         style="stop-color: #df5940; stop-opacity:1"
         id="stop9232" />
      <stop
         offset="25%"
         style="stop-color: #d8d15f; stop-opacity:1"
         id="stop9234" />
      <stop
         offset="50%"
         style="stop-color: #e9882a; stop-opacity:1"
         id="stop9236" />
      <stop
         offset="100%"
         style="stop-color: #279362; stop-opacity:1"
         id="stop9238" />
    </linearGradient>
    <linearGradient
       id="90ssummer"
       x1="0%"
       x2="0%"
       y1="0%"
       y2="100%">
      <stop
         offset="0%"
         style="stop-color: #f618c7; stop-opacity:1"
         id="stop9241" />
      <stop
         offset="20%"
         style="stop-color: #94ffab; stop-opacity:1"
         id="stop9243" />
      <stop
         offset="50%"
         style="stop-color: #fbfd54; stop-opacity:1"
         id="stop9245" />
      <stop
         offset="100%"
         style="stop-color: #0f83ae; stop-opacity:1"
         id="stop9247" />
    </linearGradient>
  </defs>
  <g
     id="layer1">
    <path
       d="M 2.6668936,2.182886 C 2.6121716,2.179526 2.559465,2.196315 2.51599,2.240125 L 1.5730856,3.1830129 c -0.08695,0.08695 -0.08695,0.2270269 0,0.3140105 L 2.5472114,5.0271595 C 2.4693256,5.1844417 2.4016792,5.3467428 2.3450945,5.5129215 L 0.57554364,5.9058752 c -0.12303934,0 -0.22205831,0.099036 -0.22205831,0.2220583 v 1.3323667 c 0,0.1230393 0.10205719,0.195369 0.22205831,0.2220583 L 2.3459674,8.0761683 C 2.4008567,8.2406684 2.466321,8.4015428 2.5420078,8.5575996 L 1.5661531,10.091193 c -0.065968,0.103736 -0.08695,0.227027 0,0.314011 l 0.9420315,0.942904 c 0.08695,0.08695 0.2270101,0.08695 0.3139937,0 L 4.355789,10.371381 c 0.1586251,0.07906 0.3223866,0.147378 0.4901095,0.204718 l 0.392937,1.769534 c 0,0.12304 0.099036,0.222075 0.2220583,0.222075 h 1.3323666 c 0.1230394,0 0.1953691,-0.102057 0.2220583,-0.222075 l 0.3938099,-1.770407 c 0.1670179,-0.05573 0.3301583,-0.122368 0.4883638,-0.199515 l 1.5266781,0.972397 c 0.08695,0.08695 0.2270101,0.08695 0.3140105,0 l 0.942888,-0.942904 c 0.08695,-0.08695 0.06614,-0.210208 0,-0.314011 L 10.264699,9.4371546 9.9541629,9.5612011 8.9592228,8.0692358 C 8.4578165,9.1841435 7.349556,9.9017163 6.1270855,9.9029752 c -1.7169779,0 -3.1088667,-1.3918888 -3.1088667,-3.1088667 0.00138,-1.1994909 0.6927299,-2.2911839 1.7765,-2.8052466 V 3.0329486 C 4.6453259,3.084145 4.4990048,3.14407 4.3566618,3.2125054 L 2.8300005,2.2401254 C 2.7781326,2.2070575 2.7215647,2.1854039 2.6668432,2.182886 Z"
       id="path3627"
       class="ColorScheme-Text"
       style="fill:url(#oomox);fill-opacity:1;stroke-width:0.444122" />
    <path
       d="M 7.4594354,0.13229183 5.2388187,0.33788335 V 9.014742 L 7.4594354,8.5706253 V 5.017642 l 2.6647336,3.9971 2.2206,-0.8882501 L 9.457977,4.389621 12.346515,0.57642524 10.020936,0.13229183 7.4594354,3.9073336 Z"
       id="path3629"
       class="ColorScheme-Text"
       style="fill:url(#oomox);fill-opacity:1;stroke-width:0.444122" />
  </g>
  <metadata
     id="metadata3935">
    <rdf:RDF>
      <cc:Work
         rdf:about="">
        <dc:creator>
          <cc:Agent>
            <dc:title>dreifacherspass</dc:title>
          </cc:Agent>
        </dc:creator>
        <cc:license
           rdf:resource="http://creativecommons.org/licenses/by-sa/4.0/" />
      </cc:Work>
      <cc:License
         rdf:about="http://creativecommons.org/licenses/by-sa/4.0/">
        <cc:permits
           rdf:resource="http://creativecommons.org/ns#Reproduction" />
        <cc:permits
           rdf:resource="http://creativecommons.org/ns#Distribution" />
        <cc:requires
           rdf:resource="http://creativecommons.org/ns#Notice" />
        <cc:requires
           rdf:resource="http://creativecommons.org/ns#Attribution" />
        <cc:permits
           rdf:resource="http://creativecommons.org/ns#DerivativeWorks" />
        <cc:requires
           rdf:resource="http://creativecommons.org/ns#ShareAlike" />
      </cc:License>
    </rdf:RDF>
  </metadata>
</svg>
