<?xml version="1.0" encoding="UTF-8" standalone="no"?>
<svg
   version="1.1"
   id="svg1"
   width="16"
   height="16"
   viewBox="0 0 16 16"
   xmlns:xlink="http://www.w3.org/1999/xlink"
   xmlns="http://www.w3.org/2000/svg"
   xmlns:svg="http://www.w3.org/2000/svg"
   xmlns:rdf="http://www.w3.org/1999/02/22-rdf-syntax-ns#"
   xmlns:cc="http://creativecommons.org/ns#"
   xmlns:dc="http://purl.org/dc/elements/1.1/">
  <defs>
   <style id="current-color-scheme" type="text/css">
   .ColorScheme-Text { color: #0abdc6; } .ColorScheme-Highlight { color:#5294e2; }
  </style>
  <linearGradient id="arrongin" x1="0%" x2="0%" y1="0%" y2="100%">
   <stop offset="0%" style="stop-color:#dd9b44; stop-opacity:1"/>
   <stop offset="100%" style="stop-color:#ad6c16; stop-opacity:1"/>
  </linearGradient>
  <linearGradient id="aurora" x1="0%" x2="0%" y1="0%" y2="100%">
   <stop offset="0%" style="stop-color:#09D4DF; stop-opacity:1"/>
   <stop offset="100%" style="stop-color:#9269F4; stop-opacity:1"/>
  </linearGradient>
  <linearGradient id="cyberneon" x1="0%" x2="0%" y1="0%" y2="100%">
    <stop offset="0" style="stop-color:#0abdc6; stop-opacity:1"/>
    <stop offset="1" style="stop-color:#ea00d9; stop-opacity:1"/>
  </linearGradient>
  <linearGradient id="fitdance" x1="0%" x2="0%" y1="0%" y2="100%">
   <stop offset="0%" style="stop-color:#1AD6AB; stop-opacity:1"/>
   <stop offset="100%" style="stop-color:#329DB6; stop-opacity:1"/>
  </linearGradient>
  <linearGradient id="oomox" x1="0%" x2="0%" y1="0%" y2="100%">
   <stop offset="0%" style="stop-color:#0abdc6; stop-opacity:1"/>
   <stop offset="100%" style="stop-color:#b800ff; stop-opacity:1"/>
  </linearGradient>
  <linearGradient id="rainblue" x1="0%" x2="0%" y1="0%" y2="100%">
   <stop offset="0%" style="stop-color:#00F260; stop-opacity:1"/>
   <stop offset="100%" style="stop-color:#0575E6; stop-opacity:1"/>
  </linearGradient>
  <linearGradient id="sunrise" x1="0%" x2="0%" y1="0%" y2="100%">
   <stop offset="0%" style="stop-color: #FF8501; stop-opacity:1"/>
   <stop offset="100%" style="stop-color: #FFCB01; stop-opacity:1"/>
  </linearGradient>
  <linearGradient id="telinkrin" x1="0%" x2="0%" y1="0%" y2="100%">
   <stop offset="0%" style="stop-color: #b2ced6; stop-opacity:1"/>
   <stop offset="100%" style="stop-color: #6da5b7; stop-opacity:1"/>
  </linearGradient>
  <linearGradient id="60spsycho" x1="0%" x2="0%" y1="0%" y2="100%">
   <stop offset="0%" style="stop-color: #df5940; stop-opacity:1"/>
   <stop offset="25%" style="stop-color: #d8d15f; stop-opacity:1"/>
   <stop offset="50%" style="stop-color: #e9882a; stop-opacity:1"/>
   <stop offset="100%" style="stop-color: #279362; stop-opacity:1"/>
  </linearGradient>
  <linearGradient id="90ssummer" x1="0%" x2="0%" y1="0%" y2="100%">
   <stop offset="0%" style="stop-color: #f618c7; stop-opacity:1"/>
   <stop offset="20%" style="stop-color: #94ffab; stop-opacity:1"/>
   <stop offset="50%" style="stop-color: #fbfd54; stop-opacity:1"/>
   <stop offset="100%" style="stop-color: #0f83ae; stop-opacity:1"/>
  </linearGradient>
 </defs>
<metadata
     id="metadata1">
    <rdf:RDF>
      <cc:Work
         rdf:about="">
        <dc:creator>
          <cc:Agent>
            <dc:title>dreifacherspass</dc:title>
          </cc:Agent>
        </dc:creator>
        <cc:license
           rdf:resource="http://creativecommons.org/licenses/by-sa/4.0/" />
      </cc:Work>
      <cc:License
         rdf:about="http://creativecommons.org/licenses/by-sa/4.0/">
        <cc:permits
           rdf:resource="http://creativecommons.org/ns#Reproduction" />
        <cc:permits
           rdf:resource="http://creativecommons.org/ns#Distribution" />
        <cc:requires
           rdf:resource="http://creativecommons.org/ns#Notice" />
        <cc:requires
           rdf:resource="http://creativecommons.org/ns#Attribution" />
        <cc:permits
           rdf:resource="http://creativecommons.org/ns#DerivativeWorks" />
        <cc:requires
           rdf:resource="http://creativecommons.org/ns#ShareAlike" />
      </cc:License>
    </rdf:RDF>
  </metadata>
  <path
     id="path9610"
     class="ColorScheme-Text"
     d="M 4.5073187,0.00778679 C 3.2042348,-0.05601412 1.9910261,0.28683799 1.1387752,1.1390715 -0.06794782,2.3457849 -0.24987838,4.2325981 0.28677038,6.1861589 0.82340465,8.1397053 2.0785463,10.234836 3.9233201,12.079572 c 0.4177692,0.417761 0.8472815,0.80399 1.2864869,1.159511 l 0.4457482,0.36111 0.7222341,-0.891495 -0.4457481,-0.36111 C 5.5242822,12.01752 5.1225609,11.656612 4.7330167,11.267075 3.0129007,9.5469939 1.8629305,7.5933031 1.392684,5.8814692 0.92243755,4.1696206 1.1295885,2.7732666 1.9512888,1.9515684 2.5316182,1.3712505 3.3775422,1.1006204 4.4508978,1.1531836 l 0.5727027,0.028208 0.056478,-1.14539679 z M 12.618355,0.0585723 C 11.752179,-0.07115223 10.793674,0.01876431 9.8168663,0.28708332 7.8632662,0.82372133 5.7680938,2.0788379 3.9233201,3.9235749 3.5055511,4.3413355 3.1164981,4.7708684 2.7609852,5.2100215 L 2.3998681,5.6557752 3.2913651,6.377995 3.6524822,5.9322411 C 3.9825721,5.5245047 4.343487,5.1227774 4.7330167,4.7332552 6.4531327,3.013159 8.406863,1.8632264 10.118745,1.3929893 c 1.711869,-0.47023692 3.108252,-0.2631046 3.929966,0.5585791 0.58033,0.5803324 0.85381,1.4262394 0.801231,2.4995591 l -0.02817,0.5727057 1.142591,0.056419 0.02817,-0.5726913 C 16.056377,3.2044898 15.713475,1.9913195 14.861224,1.1390715 14.257855,0.53572922 13.484516,0.18828361 12.618355,0.0585723 Z m -2.273911,2.341567 -0.7222342,0.8914932 0.4457482,0.3611098 c 0.407745,0.3300402 0.80948,0.6909765 1.199025,1.0805129 1.720116,1.7200816 2.872903,3.6737727 3.343149,5.3856068 0.470247,1.711848 0.260279,3.108203 -0.561421,3.929886 -0.580345,0.580333 -1.426254,0.853793 -2.49961,0.801216 l -0.572702,-0.02821 -0.05648,1.145398 0.572717,0.02538 c 1.303085,0.06382 2.516278,-0.279051 3.368544,-1.131298 1.206722,-1.2067 1.388652,-3.090683 0.852004,-5.0442436 C 15.17655,7.863442 13.924226,5.7683114 12.079453,3.9235749 11.661684,3.5058141 11.229353,3.116769 10.790148,2.7612491 Z m 2.36419,7.2250131 -0.361116,0.4429376 c -0.330076,0.407736 -0.690992,0.809449 -1.080535,1.198985 C 9.5468518,12.987157 7.5931361,14.139936 5.8812533,14.610172 4.1693851,15.080397 2.7729888,14.870446 1.9512888,14.048748 1.3709448,13.46843 1.1003093,12.622537 1.1528877,11.549204 l 0.028168,-0.572706 -1.14541986,-0.05643 -0.02816769,0.572691 c -0.06384657,1.303087 0.2790423,2.516243 1.13130735,3.368477 1.2067232,1.206713 3.0935744,1.388626 5.0471744,0.852002 1.9535999,-0.536639 4.0487571,-1.788939 5.8935451,-3.633677 0.417769,-0.41776 0.803991,-0.85008 1.159519,-1.289262 l 0.361118,-0.445754 z"
     style="opacity:1;stroke-width:1.272;stroke-dasharray:none;fill:url(#oomox)" />
</svg>
