<?xml version="1.0" encoding="UTF-8" standalone="no"?>
<svg
   viewBox="0 0 16 16"
   height="16"
   width="16"
   id="svg1"
   version="1.1"
   xmlns:xlink="http://www.w3.org/1999/xlink"
   xmlns="http://www.w3.org/2000/svg"
   xmlns:svg="http://www.w3.org/2000/svg"
   xmlns:rdf="http://www.w3.org/1999/02/22-rdf-syntax-ns#"
   xmlns:cc="http://creativecommons.org/ns#"
   xmlns:dc="http://purl.org/dc/elements/1.1/">
  <defs>
   <style id="current-color-scheme" type="text/css">
   .ColorScheme-Text { color: #0abdc6; } .ColorScheme-Highlight { color:#5294e2; }
  </style>
  <linearGradient id="arrongin" x1="0%" x2="0%" y1="0%" y2="100%">
   <stop offset="0%" style="stop-color:#dd9b44; stop-opacity:1"/>
   <stop offset="100%" style="stop-color:#ad6c16; stop-opacity:1"/>
  </linearGradient>
  <linearGradient id="aurora" x1="0%" x2="0%" y1="0%" y2="100%">
   <stop offset="0%" style="stop-color:#09D4DF; stop-opacity:1"/>
   <stop offset="100%" style="stop-color:#9269F4; stop-opacity:1"/>
  </linearGradient>
  <linearGradient id="cyberneon" x1="0%" x2="0%" y1="0%" y2="100%">
    <stop offset="0" style="stop-color:#0abdc6; stop-opacity:1"/>
    <stop offset="1" style="stop-color:#ea00d9; stop-opacity:1"/>
  </linearGradient>
  <linearGradient id="fitdance" x1="0%" x2="0%" y1="0%" y2="100%">
   <stop offset="0%" style="stop-color:#1AD6AB; stop-opacity:1"/>
   <stop offset="100%" style="stop-color:#329DB6; stop-opacity:1"/>
  </linearGradient>
  <linearGradient id="oomox" x1="0%" x2="0%" y1="0%" y2="100%">
   <stop offset="0%" style="stop-color:#0abdc6; stop-opacity:1"/>
   <stop offset="100%" style="stop-color:#b800ff; stop-opacity:1"/>
  </linearGradient>
  <linearGradient id="rainblue" x1="0%" x2="0%" y1="0%" y2="100%">
   <stop offset="0%" style="stop-color:#00F260; stop-opacity:1"/>
   <stop offset="100%" style="stop-color:#0575E6; stop-opacity:1"/>
  </linearGradient>
  <linearGradient id="sunrise" x1="0%" x2="0%" y1="0%" y2="100%">
   <stop offset="0%" style="stop-color: #FF8501; stop-opacity:1"/>
   <stop offset="100%" style="stop-color: #FFCB01; stop-opacity:1"/>
  </linearGradient>
  <linearGradient id="telinkrin" x1="0%" x2="0%" y1="0%" y2="100%">
   <stop offset="0%" style="stop-color: #b2ced6; stop-opacity:1"/>
   <stop offset="100%" style="stop-color: #6da5b7; stop-opacity:1"/>
  </linearGradient>
  <linearGradient id="60spsycho" x1="0%" x2="0%" y1="0%" y2="100%">
   <stop offset="0%" style="stop-color: #df5940; stop-opacity:1"/>
   <stop offset="25%" style="stop-color: #d8d15f; stop-opacity:1"/>
   <stop offset="50%" style="stop-color: #e9882a; stop-opacity:1"/>
   <stop offset="100%" style="stop-color: #279362; stop-opacity:1"/>
  </linearGradient>
  <linearGradient id="90ssummer" x1="0%" x2="0%" y1="0%" y2="100%">
   <stop offset="0%" style="stop-color: #f618c7; stop-opacity:1"/>
   <stop offset="20%" style="stop-color: #94ffab; stop-opacity:1"/>
   <stop offset="50%" style="stop-color: #fbfd54; stop-opacity:1"/>
   <stop offset="100%" style="stop-color: #0f83ae; stop-opacity:1"/>
  </linearGradient>
 </defs>
    <metadata
     id="metadata8">
    <rdf:RDF>
      <cc:Work
         rdf:about="">
        <dc:creator>
          <cc:Agent>
            <dc:title>dreifacherspass</dc:title>
          </cc:Agent>
        </dc:creator>
        <cc:license
           rdf:resource="http://creativecommons.org/licenses/by-sa/4.0/" />
      </cc:Work>
      <cc:License
         rdf:about="http://creativecommons.org/licenses/by-sa/4.0/">
        <cc:permits
           rdf:resource="http://creativecommons.org/ns#Reproduction" />
        <cc:permits
           rdf:resource="http://creativecommons.org/ns#Distribution" />
        <cc:requires
           rdf:resource="http://creativecommons.org/ns#Notice" />
        <cc:requires
           rdf:resource="http://creativecommons.org/ns#Attribution" />
        <cc:permits
           rdf:resource="http://creativecommons.org/ns#DerivativeWorks" />
        <cc:requires
           rdf:resource="http://creativecommons.org/ns#ShareAlike" />
      </cc:License>
    </rdf:RDF>
  </metadata>
  <path
     style="display:inline;opacity:0.5;stroke-width:1.24117;stroke-dasharray:none;fill:url(#oomox)"
     d="m 0.15240743,2.1023626 c -0.001714,-3.84e-4 -0.003428,-7.679e-4 -0.005141,-0.00115 -8.6058e-4,-7.678e-4 -0.001714,-0.00151 -0.002571,-0.0024 -0.008569,-0.00529 -0.0169423,-0.00919 -0.0247646,-0.011328 -0.002571,-7.691e-4 -0.005141,-0.00115 -0.007712,-0.00151 -0.005141,-7.692e-4 -0.009548,-0.00115 -0.01384515,-3.764e-4 -0.0042845,0.00202 -0.0077122,0.0044 -0.01089495,0.00793 -0.0025707,7.679e-4 -0.0042845,0.00202 -0.0059983,0.0034 -0.0034276,0.00478 -0.0068553,0.011077 -0.0077122,0.018592 -1.714e-5,0.00115 -1.714e-5,0.00202 0,0.00302 -0.0017138,0.0034 -0.0025707,0.00742 -0.0025707,0.01158 -2.1423e-4,0.0034 -2.1423e-4,0.00742 0,0.011203 0.0034276,1.5128495 2.9991e-4,4.5140661 2.9991e-4,4.5140661 -7.4673e-4,0.00605 -7.4673e-4,0.012852 0,0.020266 0.0042845,1.511091 -2.448e-5,4.5128617 -2.448e-5,4.5128617 -7.4918e-4,0.0063 -7.4918e-4,0.01321 0,0.02027 0.0034276,1.50909 -2.7543e-4,4.513509 -2.7543e-4,4.513509 -1.1263e-4,0.0025 -1.1263e-4,0.0063 0,0.0088 2.9257e-4,0.0075 8.6057e-4,0.01359 0.0025707,0.02027 7.3938e-4,0.0025 0.0017138,0.0063 0.0025707,0.0088 7.4918e-4,0.0025 0.0017138,0.0063 0.0025707,0.0088 -1.591e-5,8.94e-4 -1.591e-5,0.0025 0,0.0025 8.5936e-4,0.0025 0.0017138,0.0038 0.0025707,0.0063 0.0025707,0.0063 0.0068552,0.01258 0.01089495,0.01724 0.0017138,0.0025 0.0034276,0.005 0.0059983,0.0063 8.5935e-4,7.54e-4 0.0017138,0.0025 0.0025707,0.0025 0.006855,0.0063 0.0139308,0.01008 0.0219246,0.01434 0.005141,0.0038 0.010895,0.0063 0.0167586,0.0088 0.005141,0.0025 0.0107725,0.0025 0.0160854,0.0025 8.5935e-4,2.5e-5 0.001714,2.5e-5 0.002571,0 0.002571,1.38e-4 0.005998,1.38e-4 0.008814,0 0.010038,0.0038 0.0190111,0 0.0190111,0 1.57498882,0.0038 4.71259282,-2.9e-4 4.71259282,-2.9e-4 0.015743,0.0038 0.03577,-1.2e-5 0.03577,-1.2e-5 1.576262,0.0038 4.7160928,-1.2e-5 4.7160928,-1.2e-5 0.015743,0.005 0.03577,0 0.03577,0 1.5748674,0.005 4.7123574,3.14e-4 4.7123574,3.14e-4 0.0098,0.0038 0.01897,0 0.01897,0 0.0037,2.27e-4 0.0073,2.27e-4 0.01102,0 0.0086,-0.0025 0.01702,-0.005 0.02473,-0.0088 0.0024,-7.68e-4 0.0061,-0.0025 0.0086,-0.0025 0.0024,-0.0025 0.0061,-0.0038 0.0086,-0.0063 0.0024,-0.0025 0.0061,-0.0038 0.0086,-0.0063 0.0061,-0.0063 0.0098,-0.01284 0.01396,-0.02027 0.0037,-0.0038 0.0061,-0.0075 0.0086,-0.01133 0.0037,-0.0088 0.0073,-0.01662 0.0086,-0.02543 0.0024,-0.0063 0.0024,-0.01133 0.0037,-0.01724 2.33e-4,-0.0038 2.7e-4,-0.0075 8.6e-5,-0.01133 0.0086,-0.863532 0.103319,-1.700191 0.273084,-2.647101 0.150644,-0.840473 0.299354,-1.499826 0.299354,-1.499826 0.0024,-0.0063 0.0037,-0.01133 0.0037,-0.01712 0.125782,-0.585729 0.289439,-1.355 0.400053,-2.1103426 0.105522,-0.7206589 0.138354,-1.3347381 0.138354,-1.3347381 -0.071,0.030701 -0.226872,0.078634 -0.226872,0.078634 -0.04162,0.6532183 -0.132233,1.3167042 -0.266461,2.0555397 -0.120334,0.662266 -0.232785,1.183523 -0.232785,1.183523 -0.681632,-0.167639 -1.440717,-0.329915 -2.269088,-0.439564 -0.753221,-0.09969 -1.349775,-0.122602 -1.349775,-0.122602 0.0073,0.06936 0.0098,0.195886 0.0098,0.195886 0.671643,0.03436 1.399695,0.109636 2.227883,0.256794 0.7471,0.132747 1.346714,0.283682 1.346714,0.283682 -0.138293,0.690003 -0.319944,1.570718 -0.429494,2.461149 -0.103685,0.843291 -0.11152,1.572113 -0.11152,1.572113 -0.881316,-0.0063 -2.653986,-0.02127 -2.653986,-0.02127 0.0086,0.03461 0.01408,0.09113 0.01408,0.09113 -0.0475,-0.02618 -0.15368,-0.09188 -0.15368,-0.09188 -0.588646,0.0025 -1.7759571,-0.005 -1.7759571,-0.005 -0.00257,-0.35582 0.00343,-1.055704 0.00343,-1.055704 -0.058478,-0.0321 -0.1859389,-0.107999 -0.1859389,-0.107999 -0.006,0.38292 -0.00514,1.163791 -0.00514,1.163791 -1.5184612,0.0063 -4.5623051,0.02341 -4.5623051,0.02341 -0.00257,-0.391895 -9.43e-5,-1.145414 -9.43e-5,-1.145414 -0.059237,0.0365 -0.1882513,0.09818 -0.1882513,0.09818 -7.491e-4,0.34239 8.582e-4,1.04858 8.582e-4,1.04858 -1.5163018,0.01498 -4.56023985,0.0063 -4.56023985,0.0063 0.004285,-1.428568 0.009304,-4.258765 0.009304,-4.258765 0.65411574,0.269798 1.35183335,0.422672 2.12720865,0.465419 0.6995514,0.03852 1.2556579,-0.0175 1.2556579,-0.0175 0.01824,-0.05161 0.043849,-0.163737 0.043849,-0.163737 -0.6150935,0.04872 -1.3570788,0.06068 -2.1260469,-0.08043 C 0.8533935,11.454083 0.2674422,11.192933 0.2674422,11.192933 0.2751542,9.975097 0.2761332,7.4888333 0.2761332,7.4888333 0.22143858,7.3986916 0.09928291,7.1900772 0.09928291,7.1900772 0.16334278,7.2399862 0.27625487,7.3105258 0.27625487,7.3105258 0.2805394,7.1922674 0.27638341,6.9342097 0.27638341,6.9342097 0.88323098,7.4151333 1.5248347,7.719165 2.2295716,7.8411318 2.8645183,7.9510573 3.367089,7.8876547 3.367089,7.8876547 3.8796609,7.7883919 4.8863336,7.4079597 4.8863336,7.4079597 4.0773455,7.6339347 3.0626167,7.8465053 2.04364,7.6190904 1.0893855,7.4061119 0.27628915,6.7406145 0.27628915,6.7406145 0.27970821,5.315698 0.25840796,2.381995 0.25840796,2.381995 1.1304668,3.0590148 2.002096,3.1267991 2.9860068,2.8008148 3.8756983,2.5058145 4.574252,2.0573375 4.574252,2.0573375 4.7537249,3.2521429 4.8889656,4.4290832 4.9698636,5.5777509 5.0428716,6.6146237 5.0517226,7.3392817 5.0517226,7.3392817 5.1196506,7.3150633 5.2440417,7.2566205 5.2440417,7.2566205 5.2259856,6.4405981 5.1721572,5.4183858 5.03977,4.1773016 4.9180208,3.0358679 4.7494171,1.9604361 4.7494171,1.9604361 5.1331092,1.7504155 5.630143,1.466618 6.1129191,1.222331 6.5730374,0.989506 6.9471872,0.8362874 6.9471872,0.8362874 6.9624009,0.74463613 6.9767614,0.54492475 6.9767614,0.54492475 7.0256051,0.62620147 7.107212,0.77251089 7.107212,0.77251089 7.4949045,0.62597993 7.930421,0.48749482 8.4170079,0.39883939 8.8599636,0.3181291 9.2216429,0.3070648 9.2216429,0.3070648 c 0.3221699,1.271893 0.5624354,2.53894 0.7030084,3.807748 0.1267577,1.1442407 0.1372977,1.964841 0.1372977,1.964841 0.453634,0.043124 1.359837,0.2133913 1.359837,0.2133913 0.743635,0.053106 1.559227,0.1980259 2.48968,0.5011678 0.841409,0.2741368 1.518744,0.5940815 1.518744,0.5940815 0.0024,0.1932302 -0.01591,0.5486852 -0.01591,0.5486852 0.07565,0.045931 0.214986,0.1226767 0.214986,0.1226767 0.01579,-0.2105013 0.0191,-0.6589192 0.0191,-0.6589192 8.21e-4,-0.00629 8.21e-4,-0.013153 4.9e-5,-0.020278 0.0037,-0.8303743 -0.07835,-1.8553132 -0.380784,-3.0777945 -0.277871,-1.1228661 -0.703765,-2.1622023 -0.703765,-2.1622023 -0.0024,-0.00377 -0.0024,-0.00742 -0.0049,-0.011203 -0.0037,-0.00818 -0.0086,-0.016868 -0.01261,-0.025665 -5.38e-4,-0.00151 -8.56e-4,-0.00264 -0.0024,-0.00415 -0.0024,-0.0044 -0.0061,-0.00894 -0.0086,-0.013456 -0.0024,-0.00428 -0.0049,-0.00855 -0.0073,-0.012915 -0.0061,-0.00994 -0.01236,-0.020052 -0.01922,-0.030084 -0.0086,-0.0102 -0.0153,-0.020203 -0.02338,-0.029795 -0.0024,-0.0024 -0.0037,-0.00428 -0.0061,-0.00629 -8.57e-4,-0.00151 -0.0024,-0.00302 -0.0037,-0.00478 -0.0049,-0.00504 -0.0086,-0.00994 -0.0131,-0.014702 -0.0049,-0.0044 -0.0086,-0.00894 -0.01224,-0.013167 -0.01102,-0.011455 -0.02216,-0.02189 -0.03281,-0.030726 -8.57e-4,-7.691e-4 -0.0024,-0.00151 -0.0037,-0.0024 -0.0061,-0.00529 -0.01102,-0.010067 -0.01726,-0.014488 0.0024,0.00529 -0.01224,-0.00805 -0.01224,-0.00805 C 13.401741,1.2687205 12.2961,0.62263672 11.127206,0.27398642 10.062304,-0.04364731 9.2499563,0.00231551 9.2499563,0.00231551 9.249097,0.0084078 9.230354,0.00270069 9.230354,0.00270069 8.2839328,0.02671237 7.3631197,0.27935242 6.2944155,0.8019893 5.3438065,1.2668714 4.6258121,1.7175386 4.6258121,1.7175386 c -0.00171,0.00718 -0.017542,0.010067 -0.017542,0.010067 C 3.8460494,2.1661893 2.8346919,2.7409429 1.8797065,2.7535492 1.403258,2.7598303 1.0092721,2.6323189 0.68165234,2.4578591 0.36715304,2.290384 0.17207221,2.1178375 0.17207221,2.1178375 c -0.002571,-0.0024 -0.005141,-0.0044 -0.007712,-0.00642 -0.003428,-0.00302 -0.006855,-0.00605 -0.010895,-0.00881 0,0 -7.4796e-4,-3.185e-4 -7.4796e-4,-3.185e-4 M 15.629637,8.059694 c 0.0037,0.022506 -0.0024,0.05074 -0.0024,0.05074 0.02338,-7.616e-4 0.0579,-0.018982 0.0579,-0.018982 -0.01836,-0.010574 -0.0366,-0.02121 -0.05496,-0.031758 z M 15.414565,7.9370086 c -0.74874,-0.4219013 -1.59518,-0.8534974 -2.505912,-1.1941661 -0.83164,-0.3110857 -1.486635,-0.449771 -1.486635,-0.449771 -0.382094,-0.021675 -1.149258,-0.00629 -1.149258,-0.00629 0.02191,0.9453614 -0.0142,1.8831376 -0.09499,2.9181148 -0.0721,0.9247377 -0.150412,1.6488577 -0.150412,1.6488577 0.419321,-0.0088 1.253605,0.01008 1.253605,0.01008 -0.0024,-0.102332 -0.01726,-0.319562 -0.01726,-0.319562 0.752718,-0.573343 1.616444,-1.1684817 2.573571,-1.6680119 0.873004,-0.4556192 1.562312,-0.6870268 1.562312,-0.6870268 0.0061,-0.083555 0.0098,-0.1675179 0.01481,-0.2520095 z M 10.062132,6.0795669 C 9.5902779,5.144974 9.0623575,4.1795106 8.3368737,2.9090815 7.6940569,1.7834159 7.1073907,0.77241522 7.1073907,0.77241522 7.0588935,0.7976932 6.9473157,0.8361904 6.9473157,0.8361904 6.7972334,2.2689767 6.5147739,3.7174216 6.0945017,5.1149846 5.7148053,6.377626 5.3407437,7.2144828 5.3407437,7.2144828 c -0.02829,0.016943 -0.096586,0.042042 -0.096586,0.042042 0.00428,0.018604 8.594e-4,0.04724 8.594e-4,0.04724 C 6.9471872,6.7916098 8.2612383,6.2203253 10.061851,6.0795643 Z M 5.0518439,7.3391848 c -0.051329,0.026094 -0.1653364,0.068437 -0.1653364,0.068437 0.059163,-0.012461 0.1658346,-0.046925 0.1658346,-0.046925 0,8.9e-6 -3.795e-4,-0.021512 -3.795e-4,-0.021512 z M 3.3671869,7.8843795 C 2.814579,7.9948866 2.1599908,8.0378586 1.4593132,7.8478182 0.81386564,7.6727529 0.27634913,7.3072418 0.27634913,7.3072418 c 0.004285,0.066386 -1.1874e-4,0.1782965 -1.1874e-4,0.1782965 0.71332552,1.176161 1.43774431,2.04376 2.24035091,2.7831567 0.7091034,0.653266 1.2709793,1.045703 1.2709793,1.045703 -0.02769,0.119455 -0.093905,0.347852 -0.093905,0.347852 0.419867,-0.02896 1.2503512,-0.146542 1.2503512,-0.146542 0.038952,-0.65788 0.087331,-1.51919 0.1075417,-2.3915924 0.019183,-0.8294668 0.00428,-1.5673982 0.00428,-1.5673982 -0.5605734,0.1578004 -1.12674,0.2855573 -1.6890297,0.3276621 z m 0.2826652,3.9416075 c -0.179998,0.6771 -0.3884821,1.452144 -0.5889627,2.31307 -0.1842373,0.791217 -0.3146621,1.473013 -0.3146621,1.473013 0.6925688,-0.327485 2.0706553,-1.028716 2.0706553,-1.028716 0.017101,-1.042009 0.1177879,-2.901681 0.1177879,-2.901681 -0.4271605,0.0613 -0.8575269,0.113663 -1.2848245,0.144314 z m 1.3552818,2.659147 c 0.7403438,-0.382027 2.2761402,-1.23744 2.2761402,-1.23744 0.7645832,0.348884 2.2915217,1.195575 2.2915217,1.195575 0.035256,-1.197224 0.2395959,-3.388902 0.2395959,-3.388902 -0.9392318,0.03977 -1.8290653,0.145763 -2.9446924,0.321382 -0.972121,0.153025 -1.7428446,0.278029 -1.7428446,0.278029 -0.052626,0.915418 -0.104567,1.832548 -0.1197208,2.831356 z m 4.753602,0.06621 c 0.5871911,0.344932 1.7723541,1.059857 1.7723541,1.059857 0.05031,0.005 0.139529,7.56e-4 0.139529,7.56e-4 -0.140092,-0.929402 -0.224301,-1.840338 -0.289377,-2.889521 -0.05766,-0.928774 -0.09022,-1.663021 -0.09022,-1.663021 -0.426226,-0.01649 -1.282483,-0.01133 -1.282483,-0.01133 -0.1111043,1.137433 -0.220743,2.276553 -0.2497297,3.503697 z M 9.416703,0.30218971 c 0.909662,-0.003525 1.900307,0.19982215 3.073596,0.74351639 1.058879,0.49068 1.909175,1.0756005 1.909175,1.0756005 0.431073,1.1148177 0.740355,2.2243889 0.901441,3.341198 0.145111,1.0061194 0.129577,1.7307811 0.129577,1.7307811 C 14.438574,6.7387819 13.35018,6.341684 12.169032,6.159556 11.098879,5.9945441 10.267153,6.0657774 10.267153,6.0657774 10.217624,4.3999069 9.9895252,2.5392088 9.416703,0.30218971 Z M 5.2493657,7.5011605 c 0.017199,0.8415809 0.00171,1.6680947 -0.03861,2.5626995 -0.035855,0.799998 -0.076265,1.422871 -0.076265,1.422871 C 5.9091512,11.368158 7.0719767,11.15022 8.05293,11.021225 9.0342321,10.892179 9.830871,10.860698 9.830871,10.860698 9.906108,10.091552 10.001708,9.0901662 10.046084,8.0855762 10.088194,7.1310373 10.067874,6.300313 10.067874,6.300313 8.266529,6.4402684 6.9545847,7.0008675 5.2494269,7.5011605 Z"
     id="path9609"
     class="ColorScheme-Text"/>
  <path
     class="ColorScheme-Text"
     d="M 9.5015188,0.01746316 C 9.2516657,0.01877225 8.9962835,0.03572871 8.7364239,0.07154988 6.6574834,0.35812236 4.3745206,1.8258454 2.9599574,2.3235105 2.2527793,2.5723069 1.763482,2.5856586 1.3723854,2.498062 0.98128885,2.4104655 0.67766589,2.2143925 0.35146187,2.0014506 L 0.07172407,1.8195236 0.06933697,2.1612513 -2.0334672e-7,15.906573 14.718514,16 14.740034,15.835281 C 14.905261,14.568799 15.07039,13.309237 15.354501,11.832888 15.63861,10.356553 16.048652,8.6454954 15.995269,6.9798622 15.941883,5.3141345 15.42288,3.733481 14.912181,2.1735449 l -0.01435,-0.041794 -0.02869,-0.029501 c 0,0 -0.476418,-0.4873689 -1.377171,-0.9465119 C 12.723746,0.76414921 11.25049,0.00831667 9.5015188,0.01746316 Z m 0.00239,0.3761463 c 1.6455392,-0.007565 3.0572562,0.70735044 3.8254752,1.09893724 0.834143,0.4251891 1.227656,0.832269 1.248062,0.8530901 0.500088,1.5278686 0.98891,3.0429418 1.047222,4.6022609 C 14.763449,6.6633083 13.901416,6.3867665 13.085511,6.2201899 12.178131,6.034938 11.331248,5.9904708 10.412459,6.0628476 c -0.0018,-0.1194643 0.0064,-0.2495458 0.0024,-0.3663124 -0.07186,-2.1122881 -0.5147536,-3.7249184 -0.9707684,-5.29800873 0.01967,-2.9656e-4 0.040169,-0.00482 0.059773,-0.004921 z M 9.0711491,0.42557008 C 9.5343403,2.0206687 9.9776644,3.6118775 10.049036,5.7112863 c 0.0043,0.1256485 -0.004,0.2666746 -0.0024,0.3958141 C 9.1942407,6.2003889 8.290719,6.3741957 7.3329529,6.6307547 6.6426748,6.8156612 5.9349127,7.023246 5.2098145,7.1667018 5.1356503,5.3392862 4.9973231,3.6042125 4.8392217,1.9031118 6.0904559,1.3038035 7.4980021,0.62286959 8.7866332,0.44523748 8.8831943,0.43192633 8.9758001,0.43348087 9.0711529,0.42556971 Z M 4.4853653,2.0702878 C 4.6409229,3.7463444 4.7757239,5.4492366 4.8463945,7.2404559 4.5627841,7.285373 3.0134675,7.5493284 2.7239379,7.5606347 1.5937795,7.6047682 1.6421232,7.112583 0.41362577,6.8421834 L 0.43514415,2.4562681 C 0.69403354,2.6167663 0.94590915,2.790907 1.2958759,2.8692915 1.7597312,2.9731843 2.3269514,3.0837526 3.0795034,2.8189933 3.4959915,2.6724664 3.9764442,2.3118119 4.4853653,2.0702878 Z M 11.70834,6.4193261 c 0.430408,0.024789 0.858772,0.0809 1.305443,0.172093 0.820533,0.1675212 1.709219,0.4538121 2.603714,0.7498343 -0.0098,1.3960617 -0.314676,2.8328456 -0.573821,4.1474426 -1.457909,-0.24224 -1.884028,-0.623321 -3.255288,-0.684783 -0.211778,-0.0095 -1.443743,0.147852 -1.650883,0.146379 0.136707,-1.4177463 0.269601,-2.9789687 0.272564,-4.5112982 0.447308,-0.036505 0.87411,-0.044098 1.298271,-0.019668 z m -1.664082,0.068836 c -0.0066,1.5059704 -0.1389432,3.0561073 -0.274956,4.4670459 -1.0237188,0.01376 -2.01613,0.08389 -2.9958247,0.189303 -0.5159424,0.05551 -1.0262579,0.108843 -1.5301898,0.157343 0.022928,-1.025819 0.040316,-2.0457427 0.021518,-3.0140886 C 5.259838,8.0318609 5.2373837,7.8011337 5.2289419,7.5502236 5.9961502,7.4032705 6.7301422,7.1835214 7.4261989,6.9970672 8.3569048,6.7477568 9.227507,6.5804901 10.044258,6.4881621 Z M 0.41123487,7.2257052 C 1.6165281,7.4908066 1.524011,7.9361048 2.6932219,7.8904463 2.985987,7.879017 4.5801005,7.6622034 4.8631309,7.6190608 c 0.00749,0.2302406 0.028923,0.4416784 0.033473,0.6760801 0.018944,0.9758803 0.00171,2.0053671 -0.021518,3.0435901 -0.6285421,0.05486 -1.2298775,0.09114 -1.7740638,0.0836 C 2.074225,11.408056 1.2368569,11.239682 0.3921074,11.063385 Z M 10.735235,11.319062 c 1.33773,0.05996 2.78735,0.299238 4.241495,0.540864 -0.262295,1.382406 -0.419105,2.576622 -0.573821,3.761464 l -4.5284064,-0.0295 c -0.012753,-0.740214 -0.017472,-1.519629 0.1267184,-3.144388 0.02747,-0.309485 0.06776,-0.759433 0.102816,-1.121063 0.21226,10e-4 0.414402,-0.01709 0.631204,-0.0074 z m -0.9994059,0.01234 c -0.03371,0.348428 -0.073707,0.780739 -0.1004184,1.081727 -0.1447637,1.631202 -0.1395112,2.433762 -0.1267189,3.176348 l -4.4064685,-0.02951 c 0.054171,-1.304621 0.1057741,-2.603931 0.1386734,-3.879469 0.5185036,-0.04924 1.0442225,-0.103141 1.5708356,-0.159801 0.9663548,-0.103984 1.9326316,-0.173532 2.924097,-0.189304 z m -9.34611249,0.113047 c 0.82619009,0.171859 1.67226859,0.339647 2.70652329,0.35402 0.5530791,0.0077 1.1536551,-0.02784 1.7764547,-0.08113 -0.032512,1.261093 -0.082612,2.549217 -0.1362826,3.842593 l -4.36821365,-0.0295 z"
     style="display:inline;stroke-width:1.24117;stroke-dasharray:none;fill:url(#oomox)"
     id="path6042" />
</svg>
