<?xml version="1.0" encoding="UTF-8" standalone="no"?>
<svg
   viewBox="0 0 16 16"
   height="16"
   width="16"
   id="svg1"
   version="1.1"
   xmlns:xlink="http://www.w3.org/1999/xlink"
   xmlns="http://www.w3.org/2000/svg"
   xmlns:svg="http://www.w3.org/2000/svg"
   xmlns:rdf="http://www.w3.org/1999/02/22-rdf-syntax-ns#"
   xmlns:cc="http://creativecommons.org/ns#"
   xmlns:dc="http://purl.org/dc/elements/1.1/">
  <defs>
   <style id="current-color-scheme" type="text/css">
   .ColorScheme-Text { color: #0abdc6; } .ColorScheme-Highlight { color:#5294e2; }
  </style>
  <linearGradient id="arrongin" x1="0%" x2="0%" y1="0%" y2="100%">
   <stop offset="0%" style="stop-color:#dd9b44; stop-opacity:1"/>
   <stop offset="100%" style="stop-color:#ad6c16; stop-opacity:1"/>
  </linearGradient>
  <linearGradient id="aurora" x1="0%" x2="0%" y1="0%" y2="100%">
   <stop offset="0%" style="stop-color:#09D4DF; stop-opacity:1"/>
   <stop offset="100%" style="stop-color:#9269F4; stop-opacity:1"/>
  </linearGradient>
  <linearGradient id="cyberneon" x1="0%" x2="0%" y1="0%" y2="100%">
    <stop offset="0" style="stop-color:#0abdc6; stop-opacity:1"/>
    <stop offset="1" style="stop-color:#ea00d9; stop-opacity:1"/>
  </linearGradient>
  <linearGradient id="fitdance" x1="0%" x2="0%" y1="0%" y2="100%">
   <stop offset="0%" style="stop-color:#1AD6AB; stop-opacity:1"/>
   <stop offset="100%" style="stop-color:#329DB6; stop-opacity:1"/>
  </linearGradient>
  <linearGradient id="oomox" x1="0%" x2="0%" y1="0%" y2="100%">
   <stop offset="0%" style="stop-color:#0abdc6; stop-opacity:1"/>
   <stop offset="100%" style="stop-color:#b800ff; stop-opacity:1"/>
  </linearGradient>
  <linearGradient id="rainblue" x1="0%" x2="0%" y1="0%" y2="100%">
   <stop offset="0%" style="stop-color:#00F260; stop-opacity:1"/>
   <stop offset="100%" style="stop-color:#0575E6; stop-opacity:1"/>
  </linearGradient>
  <linearGradient id="sunrise" x1="0%" x2="0%" y1="0%" y2="100%">
   <stop offset="0%" style="stop-color: #FF8501; stop-opacity:1"/>
   <stop offset="100%" style="stop-color: #FFCB01; stop-opacity:1"/>
  </linearGradient>
  <linearGradient id="telinkrin" x1="0%" x2="0%" y1="0%" y2="100%">
   <stop offset="0%" style="stop-color: #b2ced6; stop-opacity:1"/>
   <stop offset="100%" style="stop-color: #6da5b7; stop-opacity:1"/>
  </linearGradient>
  <linearGradient id="60spsycho" x1="0%" x2="0%" y1="0%" y2="100%">
   <stop offset="0%" style="stop-color: #df5940; stop-opacity:1"/>
   <stop offset="25%" style="stop-color: #d8d15f; stop-opacity:1"/>
   <stop offset="50%" style="stop-color: #e9882a; stop-opacity:1"/>
   <stop offset="100%" style="stop-color: #279362; stop-opacity:1"/>
  </linearGradient>
  <linearGradient id="90ssummer" x1="0%" x2="0%" y1="0%" y2="100%">
   <stop offset="0%" style="stop-color: #f618c7; stop-opacity:1"/>
   <stop offset="20%" style="stop-color: #94ffab; stop-opacity:1"/>
   <stop offset="50%" style="stop-color: #fbfd54; stop-opacity:1"/>
   <stop offset="100%" style="stop-color: #0f83ae; stop-opacity:1"/>
  </linearGradient>
 </defs>
  <path
     id="path5274"
     class="ColorScheme-Text"
     style="font-style:normal;font-weight:normal;font-size:1.99542px;font-family:sans-serif;fill-opacity:1;stroke:none;stroke-width:0.0636326;fill:url(#oomox)"
     d="m 8.2931353,1.0438029 q 0.059656,0.053441 0.098183,0.1342242 0.038528,0.080783 0.038528,0.2087935 0,0.126767 -0.045984,0.2324069 -0.045984,0.1056401 -0.129253,0.1839372 -0.093211,0.086998 -0.2199787,0.129253 -0.1255247,0.041013 -0.2759056,0.041013 -0.1541095,0 -0.3032476,-0.037284 Q 7.306338,1.9001043 7.2106411,1.8566058 V 1.5968567 h 0.018642 q 0.10564,0.069598 0.2485637,0.1155811 0.142924,0.045985 0.2759055,0.045985 0.078297,0 0.1665376,-0.026099 0.08824,-0.026099 0.142924,-0.077054 0.05717,-0.054683 0.084511,-0.1205537 0.028586,-0.065869 0.028586,-0.1665376 0,-0.099426 -0.032315,-0.1640519 Q 8.1129268,1.138257 8.057,1.1009725 8.0010732,1.0624451 7.9215329,1.0487741 7.8419924,1.0338604 7.750024,1.0338604 H 7.6381706 V 0.82755256 h 0.086998 q 0.1889083,0 0.3007618,-0.0782966 0.1130967,-0.07954 0.1130967,-0.23116413 0,-0.0671122 -0.028586,-0.11682537 -0.028586,-0.0509556 -0.079541,-0.0832689 -0.053441,-0.0323133 -0.1143389,-0.0447423 -0.060898,-0.0124243 -0.1379528,-0.0124243 -0.1180677,0 -0.2510491,0.0422555 Q 7.3945777,0.34534206 7.27651,0.42239656 H 7.2640862 V 0.16264494 q 0.08824,-0.0434977 0.2348926,-0.07954 0.1478952,-0.03728444 0.285848,-0.03728444 0.1354672,0 0.2386211,0.02485552 0.1031534,0.02485553 0.1864227,0.07954116 0.089482,0.0596556 0.135467,0.14416678 0.045984,0.0845111 0.045984,0.19760802 0,0.15410946 -0.1093678,0.26969159 -0.1081244,0.11433888 -0.2560205,0.14416679 v 0.0174 q 0.059656,0.00994 0.1367099,0.0422556 0.077054,0.03107 0.1304959,0.0782978 z" />
  <path
     id="path5276"
     class="ColorScheme-Text"
     style="font-style:normal;font-weight:normal;font-size:1.99542px;font-family:sans-serif;fill-opacity:1;stroke:none;stroke-width:0.0636326;fill:url(#oomox)"
     d="M 10.520265,1.9349033 H 10.274187 V 0.34036796 L 9.7596605,1.425348 H 9.6130079 L 9.1022098,0.34036796 V 1.9349033 H 8.8722885 V 0.08434749 H 9.2078493 L 9.7012479,1.1146435 10.17849,0.08434749 h 0.341775 z" />
  <path
     id="path5269"
     class="ColorScheme-Text"
     style="font-style:normal;font-weight:normal;font-size:1.99542px;font-family:sans-serif;fill-opacity:1;stroke:none;stroke-width:0.0636326;fill:url(#oomox)"
     d="M 7.9412288,8.9588145 7.0621276,8.0662954 7.2471836,7.8840215 q 0.1712629,0.014481 0.3425249,0.028959 0.1721338,0.015364 0.3303011,0.01832 0.3321392,0.00779 0.4905723,-0.024407 Q 8.5699032,7.8738287 8.6823535,7.7630687 8.7850637,7.6619022 8.775466,7.5370386 8.7676232,7.4121848 8.6481428,7.2908807 8.5687829,7.2103095 8.4480011,7.1443578 8.327222,7.0784106 8.1806992,7.0465413 l -0.00869,-0.00881 0.1859415,-0.183146 q 0.092913,0.032345 0.2214997,0.1115321 0.1294602,0.080076 0.2262658,0.1783589 0.1997166,0.202765 0.214809,0.414677 0.015979,0.2110407 -0.1513685,0.3758721 -0.075262,0.07413 -0.1599752,0.1191838 -0.082951,0.045072 -0.1780172,0.065446 -0.08891,0.019539 -0.1882603,0.024937 -0.098482,0.00629 -0.2285232,0.00354 Q 7.9281011,8.1449599 7.7410202,8.1303598 7.5548255,8.1148885 7.3941089,8.1004891 L 8.09268,8.8097226 Z" />
  <path
     id="path5271"
     class="ColorScheme-Text"
     style="font-style:normal;font-weight:normal;font-size:1.99542px;font-family:sans-serif;fill-opacity:1;stroke:none;stroke-width:0.0636326;fill:url(#oomox)"
     d="M 9.389827,10.429524 9.2171461,10.254207 10.35316,9.1352714 9.2191153,9.5300653 9.116205,9.4255844 9.5307473,8.3003063 8.3947337,9.4192414 8.2333901,9.2554352 9.5518035,7.9568426 9.7872769,8.19591 9.3994846,9.2704193 10.468406,8.8874355 10.70824,9.1309304 Z" />
  <path
     class="ColorScheme-Text"
     id="path6167"
     d="m 10.973241,10.57403 -0.178961,0.181226 2.39445,2.349144 0.178961,-0.183491 z"
     style="opacity:1;stroke-width:1.15985;fill:url(#oomox)" />
  <path
     class="ColorScheme-Text"
     id="path6165"
     d="M 4.8999009,4.2650962 4.7209401,4.4463223 7.11539,6.7954658 7.2943508,6.6119744 Z"
     style="opacity:1;stroke-width:1.15985;fill:url(#oomox)" />
  <path
     id="path6163"
     class="ColorScheme-Text"
     d="m 0,2.8877778 0.39869743,0.41682 0.0588984,0.061163 11.46255117,11.9835782 0.659211,0.604841 h 0.652414 L 1.2368681,3.4155989 15.984143,3.4065376 16,2.924023 0.66147531,2.8877778 h -0.0860827 z"
     style="opacity:1;stroke-width:1.15985;fill:url(#oomox)" />
  <path
     id="path6161"
     class="ColorScheme-Text"
     d="M 11.702676,0.88749473 V 1.1412113 l 3.352683,0.018123 V 0.90335205 Z"
     style="opacity:1;stroke-width:1.15985;fill:url(#oomox)" />
  <path
     class="ColorScheme-Text"
     id="path5158"
     d="M 2.686677,0.88749473 V 1.1412113 l 3.3526829,0.018123 0.00226,-0.25598185 z"
     style="opacity:1;stroke-width:1.15985;fill:url(#oomox)" />
</svg>
