<?xml version="1.0" encoding="UTF-8" standalone="no"?>
<svg
   viewBox="0 0 16 16"
   height="16"
   width="16"
   id="svg1"
   version="1.1"
   xmlns:xlink="http://www.w3.org/1999/xlink"
   xmlns="http://www.w3.org/2000/svg"
   xmlns:svg="http://www.w3.org/2000/svg"
   xmlns:rdf="http://www.w3.org/1999/02/22-rdf-syntax-ns#"
   xmlns:cc="http://creativecommons.org/ns#"
   xmlns:dc="http://purl.org/dc/elements/1.1/">
  <defs>
   <style id="current-color-scheme" type="text/css">
   .ColorScheme-Text { color: #0abdc6; } .ColorScheme-Highlight { color:#5294e2; }
  </style>
  <linearGradient id="arrongin" x1="0%" x2="0%" y1="0%" y2="100%">
   <stop offset="0%" style="stop-color:#dd9b44; stop-opacity:1"/>
   <stop offset="100%" style="stop-color:#ad6c16; stop-opacity:1"/>
  </linearGradient>
  <linearGradient id="aurora" x1="0%" x2="0%" y1="0%" y2="100%">
   <stop offset="0%" style="stop-color:#09D4DF; stop-opacity:1"/>
   <stop offset="100%" style="stop-color:#9269F4; stop-opacity:1"/>
  </linearGradient>
  <linearGradient id="cyberneon" x1="0%" x2="0%" y1="0%" y2="100%">
    <stop offset="0" style="stop-color:#0abdc6; stop-opacity:1"/>
    <stop offset="1" style="stop-color:#ea00d9; stop-opacity:1"/>
  </linearGradient>
  <linearGradient id="fitdance" x1="0%" x2="0%" y1="0%" y2="100%">
   <stop offset="0%" style="stop-color:#1AD6AB; stop-opacity:1"/>
   <stop offset="100%" style="stop-color:#329DB6; stop-opacity:1"/>
  </linearGradient>
  <linearGradient id="oomox" x1="0%" x2="0%" y1="0%" y2="100%">
   <stop offset="0%" style="stop-color:#0abdc6; stop-opacity:1"/>
   <stop offset="100%" style="stop-color:#b800ff; stop-opacity:1"/>
  </linearGradient>
  <linearGradient id="rainblue" x1="0%" x2="0%" y1="0%" y2="100%">
   <stop offset="0%" style="stop-color:#00F260; stop-opacity:1"/>
   <stop offset="100%" style="stop-color:#0575E6; stop-opacity:1"/>
  </linearGradient>
  <linearGradient id="sunrise" x1="0%" x2="0%" y1="0%" y2="100%">
   <stop offset="0%" style="stop-color: #FF8501; stop-opacity:1"/>
   <stop offset="100%" style="stop-color: #FFCB01; stop-opacity:1"/>
  </linearGradient>
  <linearGradient id="telinkrin" x1="0%" x2="0%" y1="0%" y2="100%">
   <stop offset="0%" style="stop-color: #b2ced6; stop-opacity:1"/>
   <stop offset="100%" style="stop-color: #6da5b7; stop-opacity:1"/>
  </linearGradient>
  <linearGradient id="60spsycho" x1="0%" x2="0%" y1="0%" y2="100%">
   <stop offset="0%" style="stop-color: #df5940; stop-opacity:1"/>
   <stop offset="25%" style="stop-color: #d8d15f; stop-opacity:1"/>
   <stop offset="50%" style="stop-color: #e9882a; stop-opacity:1"/>
   <stop offset="100%" style="stop-color: #279362; stop-opacity:1"/>
  </linearGradient>
  <linearGradient id="90ssummer" x1="0%" x2="0%" y1="0%" y2="100%">
   <stop offset="0%" style="stop-color: #f618c7; stop-opacity:1"/>
   <stop offset="20%" style="stop-color: #94ffab; stop-opacity:1"/>
   <stop offset="50%" style="stop-color: #fbfd54; stop-opacity:1"/>
   <stop offset="100%" style="stop-color: #0f83ae; stop-opacity:1"/>
  </linearGradient>
 </defs>
  <path
     d="M 7.9815452,1.1680856 C 7.832369,1.1694656 7.6895781,1.2544256 7.5536594,1.4175032 L 5.0164521,4.3164795 0.62202997,5.1050552 C 0.27053238,5.1673025 0.15840941,5.6157884 0.43926579,5.836115 L 3.7263469,8.4367528 2.8587521,14.369088 c -0.043056,0.293162 0.2274273,0.535338 0.5138899,0.4596 l 4.6282541,-1.239577 4.6261029,1.239577 c 0.287202,0.07755 0.559678,-0.165335 0.516042,-0.4596 L 12.273297,8.4367528 15.560914,5.836115 C 15.84177,5.6157884 15.729108,5.1673023 15.377611,5.1050552 L 10.985341,4.3164795 8.4497453,1.4196554 C 8.2864118,1.2490119 8.1307184,1.1667011 7.9815452,1.1680856 Z m 0.019351,0.9928432 2.4581888,2.8081279 c 0.06143,0.071099 0.145183,0.1189925 0.237594,0.1359985 l 3.634871,0.6520406 -2.757063,2.1797401 c -0.115087,0.091165 -0.172855,0.2368455 -0.152123,0.382196 l 0.812227,5.5485271 -4.079419,-1.093363 c -0.051668,-0.01361 -0.1055977,-0.01658 -0.1585776,-0.0097 -0.00136,-1.2e-5 -0.0024,-1.2e-5 -0.00376,0 -0.049647,-0.0057 -0.09995,-0.0027 -0.1483614,0.0097 L 3.7666614,13.867559 4.5772797,8.3190319 C 4.5980095,8.1736814 4.540243,8.0280006 4.4251531,7.9368359 L 1.6680901,5.7570958 5.3045743,5.1050552 c 0.092414,-0.017006 0.1766984,-0.0649 0.2381336,-0.1359985 z"
     style="opacity:1;stroke-width:1.17893;fill:url(#oomox)"
     id="path6282"
     class="ColorScheme-Text"/>
  <path
     d="m 7.6191499,0 v 0.0693457 0.69289449 0.0688058 H 8.3808501 V 0.76223972 0.06934522 0 Z m 0,2.7946918 v 0.069342 0.6923581 0.069342 H 8.3808501 V 3.556392 2.8640339 2.7946918 Z m 0,1.483083 v 0.069345 0.6928919 0.068806 H 8.3808501 V 5.0400118 4.3471199 4.2777748 Z m 0,1.483086 v 0.069342 0.6928946 0.068806 H 8.3808501 V 6.5230976 5.830203 5.7608608 Z m 0,1.48362 v 0.068806 0.6928946 0.068806 H 8.3808501 V 8.0061811 7.3132865 7.2444808 Z m 0,1.483083 v 0.068806 0.6928946 0.068806 H 8.3808501 V 9.4892642 8.7963696 8.7275638 Z m 0,1.4830832 v 0.06881 0.692894 0.06934 h 0.7617002 v -0.06934 -0.692894 -0.06881 z m 0,1.483085 v 0.0688 0.692891 0.06934 h 0.7617002 v -0.06934 -0.692891 -0.0688 z m 0,2.23672 v 0.0688 0.692896 0.06934 h 0.7617002 v -0.06934 -0.692896 -0.0688 z m 0,1.238501 v 0.06934 0.692358 V 16 h 0.7617002 v -0.06935 -0.692358 -0.06934 z"
     style="opacity:1;stroke-width:1.17893;fill:url(#oomox)"
     id="path9609"
     class="ColorScheme-Text"/>
    <metadata
     id="metadata29">
    <rdf:RDF>
      <cc:Work
         rdf:about="">
        <dc:creator>
          <cc:Agent>
            <dc:title>dreifacherspass</dc:title>
          </cc:Agent>
        </dc:creator>
        <cc:license
           rdf:resource="http://creativecommons.org/licenses/by-sa/4.0/" />
      </cc:Work>
      <cc:License
         rdf:about="http://creativecommons.org/licenses/by-sa/4.0/">
        <cc:permits
           rdf:resource="http://creativecommons.org/ns#Reproduction" />
        <cc:permits
           rdf:resource="http://creativecommons.org/ns#Distribution" />
        <cc:requires
           rdf:resource="http://creativecommons.org/ns#Notice" />
        <cc:requires
           rdf:resource="http://creativecommons.org/ns#Attribution" />
        <cc:permits
           rdf:resource="http://creativecommons.org/ns#DerivativeWorks" />
        <cc:requires
           rdf:resource="http://creativecommons.org/ns#ShareAlike" />
      </cc:License>
    </rdf:RDF>
  </metadata>
</svg>
