<?xml version="1.0" encoding="UTF-8" standalone="no"?>
<svg
   viewBox="0 0 16 16"
   width="16"
   height="16"
   version="1.1"
   id="svg1"
   xmlns="http://www.w3.org/2000/svg"
   xmlns:svg="http://www.w3.org/2000/svg"
   xmlns:rdf="http://www.w3.org/1999/02/22-rdf-syntax-ns#"
   xmlns:cc="http://creativecommons.org/ns#"
   xmlns:dc="http://purl.org/dc/elements/1.1/">
     <defs>
        <style id="current-color-scheme" type="text/css">
           .ColorScheme-Text { color: #0abdc6; } .ColorScheme-Highlight { color:#5294e2; }
        </style>
        <linearGradient id="arrongin" x1="0%" x2="0%" y1="0%" y2="100%">
           <stop offset="0%" style="stop-color:#dd9b44; stop-opacity:1"/>
           <stop offset="100%" style="stop-color:#ad6c16; stop-opacity:1"/>
        </linearGradient>
        <linearGradient id="aurora" x1="0%" x2="0%" y1="0%" y2="100%">
           <stop offset="0%" style="stop-color:#09D4DF; stop-opacity:1"/>
           <stop offset="100%" style="stop-color:#9269F4; stop-opacity:1"/>
        </linearGradient>
        <linearGradient id="cyberneon" x1="0%" x2="0%" y1="0%" y2="100%">
           <stop offset="0" style="stop-color:#0abdc6; stop-opacity:1"/>
           <stop offset="1" style="stop-color:#ea00d9; stop-opacity:1"/>
        </linearGradient>
        <linearGradient id="fitdance" x1="0%" x2="0%" y1="0%" y2="100%">
           <stop offset="0%" style="stop-color:#1AD6AB; stop-opacity:1"/>
           <stop offset="100%" style="stop-color:#329DB6; stop-opacity:1"/>
        </linearGradient>
        <linearGradient id="oomox" x1="0%" x2="0%" y1="0%" y2="100%">
           <stop offset="0%" style="stop-color:#0abdc6; stop-opacity:1"/>
           <stop offset="100%" style="stop-color:#b800ff; stop-opacity:1"/>
        </linearGradient>
        <linearGradient id="rainblue" x1="0%" x2="0%" y1="0%" y2="100%">
           <stop offset="0%" style="stop-color:#00F260; stop-opacity:1"/>
           <stop offset="100%" style="stop-color:#0575E6; stop-opacity:1"/>
        </linearGradient>
        <linearGradient id="sunrise" x1="0%" x2="0%" y1="0%" y2="100%">
           <stop offset="0%" style="stop-color: #FF8501; stop-opacity:1"/>
           <stop offset="100%" style="stop-color: #FFCB01; stop-opacity:1"/>
        </linearGradient>
        <linearGradient id="telinkrin" x1="0%" x2="0%" y1="0%" y2="100%">
           <stop offset="0%" style="stop-color: #b2ced6; stop-opacity:1"/>
           <stop offset="100%" style="stop-color: #6da5b7; stop-opacity:1"/>
        </linearGradient>
        <linearGradient id="60spsycho" x1="0%" x2="0%" y1="0%" y2="100%">
           <stop offset="0%" style="stop-color: #df5940; stop-opacity:1"/>
           <stop offset="25%" style="stop-color: #d8d15f; stop-opacity:1"/>
           <stop offset="50%" style="stop-color: #e9882a; stop-opacity:1"/>
           <stop offset="100%" style="stop-color: #279362; stop-opacity:1"/>
        </linearGradient>
        <linearGradient id="90ssummer" x1="0%" x2="0%" y1="0%" y2="100%">
           <stop offset="0%" style="stop-color: #f618c7; stop-opacity:1"/>
           <stop offset="20%" style="stop-color: #94ffab; stop-opacity:1"/>
           <stop offset="50%" style="stop-color: #fbfd54; stop-opacity:1"/>
           <stop offset="100%" style="stop-color: #0f83ae; stop-opacity:1"/>
        </linearGradient>
     </defs>
  <path
     style="fill:url(#oomox);fill-opacity:1;stroke:none"
     d="M 0,0 V 1 H 6 V 0 Z m 13,0 v 3 h 1 V 13.091797 C 13.575544,13.242058 13.243254,13.577337 13.091797,14 H 3 V 13 H 0 v 3 h 3 v -1 h 10.091797 c 0.206006,0.581923 0.753963,1 1.408203,1 0.831,0 1.5,-0.669 1.5,-1.5 0,-0.65424 -0.418077,-1.202197 -1,-1.408203 V 3 h 1 V 0 Z M 7,1 5.1464844,4.9511719 1,5.5839844 4,8.658203 3.2929688,13 7,10.951172 10.707031,13 10,8.658203 13,5.5839844 8.853516,4.9511719 Z m 7,0 h 1 V 2 H 14 Z M 0,2 V 3 H 5 V 2 Z M 0,4 V 5 H 3.2460938 V 4 Z M 0,8 V 9 H 2 V 8 Z m 0,2 v 1 h 3 v -1 z m 1,4 h 1 v 1 H 1 Z m 13.5,0 C 14.777,14 15,14.223 15,14.5 15,14.777 14.777,15 14.5,15 14.223,15 14,14.777 14,14.5 14,14.223 14.223,14 14.5,14 Z"
     class="ColorScheme-Text"
     id="path1" />
  <metadata
     id="metadata1">
    <rdf:RDF>
      <cc:Work
         rdf:about="">
        <dc:creator>
          <cc:Agent>
            <dc:title>dreifacherspass</dc:title>
          </cc:Agent>
        </dc:creator>
        <cc:license
           rdf:resource="http://creativecommons.org/licenses/by-sa/4.0/" />
      </cc:Work>
      <cc:License
         rdf:about="http://creativecommons.org/licenses/by-sa/4.0/">
        <cc:permits
           rdf:resource="http://creativecommons.org/ns#Reproduction" />
        <cc:permits
           rdf:resource="http://creativecommons.org/ns#Distribution" />
        <cc:requires
           rdf:resource="http://creativecommons.org/ns#Notice" />
        <cc:requires
           rdf:resource="http://creativecommons.org/ns#Attribution" />
        <cc:permits
           rdf:resource="http://creativecommons.org/ns#DerivativeWorks" />
        <cc:requires
           rdf:resource="http://creativecommons.org/ns#ShareAlike" />
      </cc:License>
    </rdf:RDF>
  </metadata>
</svg>
