<?xml version="1.0" encoding="UTF-8" standalone="no"?>
<svg
   width="16"
   height="16"
   version="1.1"
   id="svg25"
   xmlns:xlink="http://www.w3.org/1999/xlink"
   xmlns="http://www.w3.org/2000/svg"
   xmlns:svg="http://www.w3.org/2000/svg"
   xmlns:rdf="http://www.w3.org/1999/02/22-rdf-syntax-ns#"
   xmlns:cc="http://creativecommons.org/ns#"
   xmlns:dc="http://purl.org/dc/elements/1.1/">
   <defs>
      <style id="current-color-scheme" type="text/css">
         .ColorScheme-Text { color: #0abdc6; } .ColorScheme-Highlight { color:#5294e2; }
      </style>
      <linearGradient id="arrongin" x1="0%" x2="0%" y1="0%" y2="100%">
         <stop offset="0%" style="stop-color:#dd9b44; stop-opacity:1"/>
         <stop offset="100%" style="stop-color:#ad6c16; stop-opacity:1"/>
      </linearGradient>
      <linearGradient id="aurora" x1="0%" x2="0%" y1="0%" y2="100%">
         <stop offset="0%" style="stop-color:#09D4DF; stop-opacity:1"/>
         <stop offset="100%" style="stop-color:#9269F4; stop-opacity:1"/>
      </linearGradient>
      <linearGradient id="cyberneon" x1="0%" x2="0%" y1="0%" y2="100%">
         <stop offset="0" style="stop-color:#0abdc6; stop-opacity:1"/>
         <stop offset="1" style="stop-color:#ea00d9; stop-opacity:1"/>
      </linearGradient>
      <linearGradient id="fitdance" x1="0%" x2="0%" y1="0%" y2="100%">
         <stop offset="0%" style="stop-color:#1AD6AB; stop-opacity:1"/>
         <stop offset="100%" style="stop-color:#329DB6; stop-opacity:1"/>
      </linearGradient>
      <linearGradient id="oomox" x1="0%" x2="0%" y1="0%" y2="100%">
         <stop offset="0%" style="stop-color:#0abdc6; stop-opacity:1"/>
         <stop offset="100%" style="stop-color:#b800ff; stop-opacity:1"/>
      </linearGradient>
      <linearGradient id="rainblue" x1="0%" x2="0%" y1="0%" y2="100%">
         <stop offset="0%" style="stop-color:#00F260; stop-opacity:1"/>
         <stop offset="100%" style="stop-color:#0575E6; stop-opacity:1"/>
      </linearGradient>
      <linearGradient id="sunrise" x1="0%" x2="0%" y1="0%" y2="100%">
         <stop offset="0%" style="stop-color: #FF8501; stop-opacity:1"/>
         <stop offset="100%" style="stop-color: #FFCB01; stop-opacity:1"/>
      </linearGradient>
      <linearGradient id="telinkrin" x1="0%" x2="0%" y1="0%" y2="100%">
         <stop offset="0%" style="stop-color: #b2ced6; stop-opacity:1"/>
         <stop offset="100%" style="stop-color: #6da5b7; stop-opacity:1"/>
      </linearGradient>
      <linearGradient id="60spsycho" x1="0%" x2="0%" y1="0%" y2="100%">
         <stop offset="0%" style="stop-color: #df5940; stop-opacity:1"/>
         <stop offset="25%" style="stop-color: #d8d15f; stop-opacity:1"/>
         <stop offset="50%" style="stop-color: #e9882a; stop-opacity:1"/>
         <stop offset="100%" style="stop-color: #279362; stop-opacity:1"/>
      </linearGradient>
      <linearGradient id="90ssummer" x1="0%" x2="0%" y1="0%" y2="100%">
         <stop offset="0%" style="stop-color: #f618c7; stop-opacity:1"/>
         <stop offset="20%" style="stop-color: #94ffab; stop-opacity:1"/>
         <stop offset="50%" style="stop-color: #fbfd54; stop-opacity:1"/>
         <stop offset="100%" style="stop-color: #0f83ae; stop-opacity:1"/>
      </linearGradient>
   </defs>
  <path
     id="path24"
     class="ColorScheme-Text"
     d="M 9.0722656 3.4179688 C 9.0936336 3.6079259 9.1445312 3.7906644 9.1445312 3.9863281 C 9.1445312 4.9256734 8.8897616 5.8054568 8.4472656 6.5625 L 15.152344 13.267578 C 15.665738 12.892551 16 12.289391 16 11.603516 L 16 5.4824219 C 16 4.3387156 15.077062 3.4179687 13.929688 3.4179688 L 9.0722656 3.4179688 z M 6.5527344 8.4375 C 5.8008552 8.8666773 4.9304768 9.1113281 4.0019531 9.1113281 C 3.867474 9.1113281 3.741249 9.0861959 3.609375 9.0761719 L 3.609375 11.603516 C 3.609375 12.747222 4.5323237 13.667969 5.6796875 13.667969 L 7.4453125 13.667969 L 9.7304688 16 L 11.935547 13.820312 L 6.5527344 8.4375 z "
     style="opacity:1;fill:url(#oomox)" />
  <path
     id="path25"
     class="ColorScheme-Text"
     d="M 4 0 C 3.3818781 0 2.7959763 0.13908424 2.2734375 0.38867188 L 3.4238281 1.5390625 L 3.3964844 1.1386719 L 4.5703125 1.1386719 L 4.5039062 2.6191406 L 4.8300781 2.9453125 A 0.22798296 0.22726072 0 0 0 4.8554688 2.9179688 L 6.1777344 2.0644531 L 6.7480469 3.0976562 L 5.5800781 3.6953125 L 7.6015625 5.7167969 C 7.8550201 5.1933408 7.9980469 4.606509 7.9980469 3.9863281 C 7.9980469 1.7845711 6.2087542 2.9605918e-16 4 0 z M 0.38867188 2.2734375 C 0.14042391 2.7925217 0 3.3729616 0 3.9863281 C 0 6.188085 1.7912458 7.9726562 4 7.9726562 C 4.6112195 7.9726562 5.1889437 7.8361689 5.7070312 7.5917969 L 4.5527344 6.4375 L 4.5703125 6.8339844 L 3.3925781 6.8339844 L 3.4921875 5.3769531 L 3.1640625 5.0488281 A 0.22798296 0.22726072 0 0 0 3.1425781 5.0546875 L 1.7851562 5.9453125 L 1.2148438 4.9121094 L 2.4257812 4.3105469 L 1.2148438 3.0976562 L 0.38867188 2.2734375 z "
     style="opacity:1;fill:url(#oomox)" />
  <path
     d="M 0.9426667,0 0,0.9426667 15.057333,16 16,15.057333 Z"
     class="ColorScheme-Text"
     id="path2"
     style="fill:url(#oomox);stroke-width:1.33333" />
  <metadata
     id="metadata29">
    <rdf:RDF>
      <cc:Work
         rdf:about="">
        <dc:creator>
          <cc:Agent>
            <dc:title>dreifacherspass</dc:title>
          </cc:Agent>
        </dc:creator>
        <cc:license
           rdf:resource="http://creativecommons.org/licenses/by-sa/4.0/" />
      </cc:Work>
      <cc:License
         rdf:about="http://creativecommons.org/licenses/by-sa/4.0/">
        <cc:permits
           rdf:resource="http://creativecommons.org/ns#Reproduction" />
        <cc:permits
           rdf:resource="http://creativecommons.org/ns#Distribution" />
        <cc:requires
           rdf:resource="http://creativecommons.org/ns#Notice" />
        <cc:requires
           rdf:resource="http://creativecommons.org/ns#Attribution" />
        <cc:permits
           rdf:resource="http://creativecommons.org/ns#DerivativeWorks" />
        <cc:requires
           rdf:resource="http://creativecommons.org/ns#ShareAlike" />
      </cc:License>
    </rdf:RDF>
  </metadata>
</svg>
