<?xml version="1.0" encoding="UTF-8" standalone="no"?>
<!-- Created with Inkscape (http://www.inkscape.org/) -->

<svg
   width="16"
   height="16"
   viewBox="0 0 16 16"
   version="1.1"
   id="svg689"
   xmlns="http://www.w3.org/2000/svg"
   xmlns:svg="http://www.w3.org/2000/svg"
   xmlns:rdf="http://www.w3.org/1999/02/22-rdf-syntax-ns#"
   xmlns:cc="http://creativecommons.org/ns#"
   xmlns:dc="http://purl.org/dc/elements/1.1/">
  <defs>
   <style id="current-color-scheme" type="text/css">
   .ColorScheme-Text { color: #0abdc6; } .ColorScheme-Highlight { color:#5294e2; }
  </style>
  <linearGradient id="arrongin" x1="0%" x2="0%" y1="0%" y2="100%">
   <stop offset="0%" style="stop-color:#dd9b44; stop-opacity:1"/>
   <stop offset="100%" style="stop-color:#ad6c16; stop-opacity:1"/>
  </linearGradient>
  <linearGradient id="aurora" x1="0%" x2="0%" y1="0%" y2="100%">
   <stop offset="0%" style="stop-color:#09D4DF; stop-opacity:1"/>
   <stop offset="100%" style="stop-color:#9269F4; stop-opacity:1"/>
  </linearGradient>
  <linearGradient id="cyberneon" x1="0%" x2="0%" y1="0%" y2="100%">
    <stop offset="0" style="stop-color:#0abdc6; stop-opacity:1"/>
    <stop offset="1" style="stop-color:#ea00d9; stop-opacity:1"/>
  </linearGradient>
  <linearGradient id="fitdance" x1="0%" x2="0%" y1="0%" y2="100%">
   <stop offset="0%" style="stop-color:#1AD6AB; stop-opacity:1"/>
   <stop offset="100%" style="stop-color:#329DB6; stop-opacity:1"/>
  </linearGradient>
  <linearGradient id="oomox" x1="0%" x2="0%" y1="0%" y2="100%">
   <stop offset="0%" style="stop-color:#0abdc6; stop-opacity:1"/>
   <stop offset="100%" style="stop-color:#b800ff; stop-opacity:1"/>
  </linearGradient>
  <linearGradient id="rainblue" x1="0%" x2="0%" y1="0%" y2="100%">
   <stop offset="0%" style="stop-color:#00F260; stop-opacity:1"/>
   <stop offset="100%" style="stop-color:#0575E6; stop-opacity:1"/>
  </linearGradient>
  <linearGradient id="sunrise" x1="0%" x2="0%" y1="0%" y2="100%">
   <stop offset="0%" style="stop-color: #FF8501; stop-opacity:1"/>
   <stop offset="100%" style="stop-color: #FFCB01; stop-opacity:1"/>
  </linearGradient>
  <linearGradient id="telinkrin" x1="0%" x2="0%" y1="0%" y2="100%">
   <stop offset="0%" style="stop-color: #b2ced6; stop-opacity:1"/>
   <stop offset="100%" style="stop-color: #6da5b7; stop-opacity:1"/>
  </linearGradient>
  <linearGradient id="60spsycho" x1="0%" x2="0%" y1="0%" y2="100%">
   <stop offset="0%" style="stop-color: #df5940; stop-opacity:1"/>
   <stop offset="25%" style="stop-color: #d8d15f; stop-opacity:1"/>
   <stop offset="50%" style="stop-color: #e9882a; stop-opacity:1"/>
   <stop offset="100%" style="stop-color: #279362; stop-opacity:1"/>
  </linearGradient>
  <linearGradient id="90ssummer" x1="0%" x2="0%" y1="0%" y2="100%">
   <stop offset="0%" style="stop-color: #f618c7; stop-opacity:1"/>
   <stop offset="20%" style="stop-color: #94ffab; stop-opacity:1"/>
   <stop offset="50%" style="stop-color: #fbfd54; stop-opacity:1"/>
   <stop offset="100%" style="stop-color: #0f83ae; stop-opacity:1"/>
  </linearGradient>
 </defs>
  <path
     id="path58-3"
     style="opacity:1;fill:url(#oomox);fill-opacity:1;stroke:none;stroke-width:0.999986;stroke-miterlimit:10;stroke-dasharray:none;paint-order:stroke fill markers"
     class="ColorScheme-Text"
     d="M 8 2 C 7.8908601 2 7.7856699 2.0187813 7.6875 2.0507812 L 13.949219 8.3125 C 13.981249 8.2143101 14 8.1091399 14 8 L 14 6.1230469 L 9.8769531 2 L 8 2 z M 11.150391 2 L 14 4.8496094 L 14 3 C 14 2.4460006 13.553999 2 13 2 L 11.150391 2 z M 7.0507812 2.6875 C 7.0187513 2.7856699 7 2.8908601 7 3 L 7 4.890625 L 11.109375 9 L 13 9 C 13.10914 9 13.21433 8.9812187 13.3125 8.9492188 L 7.0507812 2.6875 z M 6 6 C 5.2239816 6 4.5000174 6.2210364 3.8867188 6.6035156 L 6.2539062 8.9726562 C 6.0920666 8.6842968 6 8.3522492 6 8 L 6 6 z M 7 6.1640625 L 7 8 C 7 8.5539988 7.4459894 9 8 9 L 9.8359375 9 L 7 6.1640625 z M 3.1777344 7.1660156 C 2.841565 7.500805 2.565894 7.8954922 2.3652344 8.3320312 L 7.6679688 13.634766 C 8.1045078 13.434106 8.499195 13.158434 8.8339844 12.822266 L 3.1777344 7.1660156 z M 2.0625 9.3027344 C 2.02269 9.5291938 2 9.7621404 2 10 C 2 12.209136 3.7908644 14 6 14 C 6.2378596 14 6.4708062 13.9773 6.6972656 13.9375 L 2.0625 9.3027344 z M 7.0273438 9.7460938 L 9.3964844 12.113281 C 9.7789636 11.499983 10 10.776018 10 10 L 8 10 C 7.6477508 10 7.3157032 9.9079034 7.0273438 9.7460938 z " />
  <path
     id="path60"
     class="ColorScheme-Text"
     style="fill:url(#oomox);display:inline;stroke-miterlimit:10;paint-order:stroke fill markers"
     d="m 530.5,526 c -1.37635,0 -2.5,1.12365 -2.5,2.5 v 1.58398 c -2.83334,0.47791 -5,2.94911 -5,5.91602 0,3.30778 2.69222,6 6,6 2.96691,0 5.43811,-2.16666 5.91602,-5 H 536.5 c 1.37635,0 2.5,-1.12365 2.5,-2.5 v -6 c 0,-1.37635 -1.12365,-2.5 -2.5,-2.5 z m 0,1 h 6 c 0.83965,0 1.5,0.66035 1.5,1.5 v 6 c 0,0.83965 -0.66035,1.5 -1.5,1.5 h -1.5 -1 a 5,5 0 0 1 -0.11328,1 h 0.0137 c -0.46143,2.28611 -2.47553,4 -4.90039,4 -2.76734,0 -5,-2.23266 -5,-5 0,-2.42486 1.71389,-4.43896 4,-4.90039 v 0.0137 A 5,5 0 0 1 529,531 v -1 -1.5 c 0,-0.83965 0.66035,-1.5 1.5,-1.5 z"
     transform="translate(-523,-526)" />
  <metadata
     id="metadata24">
    <rdf:RDF>
      <cc:Work
         rdf:about="">
        <dc:creator>
          <cc:Agent>
            <dc:title>dreifacherspass</dc:title>
          </cc:Agent>
        </dc:creator>
        <cc:license
           rdf:resource="http://creativecommons.org/licenses/by-sa/4.0/" />
      </cc:Work>
      <cc:License
         rdf:about="http://creativecommons.org/licenses/by-sa/4.0/">
        <cc:permits
           rdf:resource="http://creativecommons.org/ns#Reproduction" />
        <cc:permits
           rdf:resource="http://creativecommons.org/ns#Distribution" />
        <cc:requires
           rdf:resource="http://creativecommons.org/ns#Notice" />
        <cc:requires
           rdf:resource="http://creativecommons.org/ns#Attribution" />
        <cc:permits
           rdf:resource="http://creativecommons.org/ns#DerivativeWorks" />
        <cc:requires
           rdf:resource="http://creativecommons.org/ns#ShareAlike" />
      </cc:License>
    </rdf:RDF>
  </metadata>
</svg>
