<?xml version="1.0" encoding="UTF-8" standalone="no"?>
<!-- Created with Inkscape (http://www.inkscape.org/) -->

<svg
   width="16"
   height="16"
   viewBox="0 0 16 16"
   version="1.1"
   id="svg689"
   xmlns:xlink="http://www.w3.org/1999/xlink"
   xmlns="http://www.w3.org/2000/svg"
   xmlns:svg="http://www.w3.org/2000/svg"
   xmlns:rdf="http://www.w3.org/1999/02/22-rdf-syntax-ns#"
   xmlns:cc="http://creativecommons.org/ns#"
   xmlns:dc="http://purl.org/dc/elements/1.1/">
  <defs>
   <style id="current-color-scheme" type="text/css">
   .ColorScheme-Text { color: #0abdc6; } .ColorScheme-Highlight { color:#5294e2; }
  </style>
  <linearGradient id="arrongin" x1="0%" x2="0%" y1="0%" y2="100%">
   <stop offset="0%" style="stop-color:#dd9b44; stop-opacity:1"/>
   <stop offset="100%" style="stop-color:#ad6c16; stop-opacity:1"/>
  </linearGradient>
  <linearGradient id="aurora" x1="0%" x2="0%" y1="0%" y2="100%">
   <stop offset="0%" style="stop-color:#09D4DF; stop-opacity:1"/>
   <stop offset="100%" style="stop-color:#9269F4; stop-opacity:1"/>
  </linearGradient>
  <linearGradient id="cyberneon" x1="0%" x2="0%" y1="0%" y2="100%">
    <stop offset="0" style="stop-color:#0abdc6; stop-opacity:1"/>
    <stop offset="1" style="stop-color:#ea00d9; stop-opacity:1"/>
  </linearGradient>
  <linearGradient id="fitdance" x1="0%" x2="0%" y1="0%" y2="100%">
   <stop offset="0%" style="stop-color:#1AD6AB; stop-opacity:1"/>
   <stop offset="100%" style="stop-color:#329DB6; stop-opacity:1"/>
  </linearGradient>
  <linearGradient id="oomox" x1="0%" x2="0%" y1="0%" y2="100%">
   <stop offset="0%" style="stop-color:#0abdc6; stop-opacity:1"/>
   <stop offset="100%" style="stop-color:#b800ff; stop-opacity:1"/>
  </linearGradient>
  <linearGradient id="rainblue" x1="0%" x2="0%" y1="0%" y2="100%">
   <stop offset="0%" style="stop-color:#00F260; stop-opacity:1"/>
   <stop offset="100%" style="stop-color:#0575E6; stop-opacity:1"/>
  </linearGradient>
  <linearGradient id="sunrise" x1="0%" x2="0%" y1="0%" y2="100%">
   <stop offset="0%" style="stop-color: #FF8501; stop-opacity:1"/>
   <stop offset="100%" style="stop-color: #FFCB01; stop-opacity:1"/>
  </linearGradient>
  <linearGradient id="telinkrin" x1="0%" x2="0%" y1="0%" y2="100%">
   <stop offset="0%" style="stop-color: #b2ced6; stop-opacity:1"/>
   <stop offset="100%" style="stop-color: #6da5b7; stop-opacity:1"/>
  </linearGradient>
  <linearGradient id="60spsycho" x1="0%" x2="0%" y1="0%" y2="100%">
   <stop offset="0%" style="stop-color: #df5940; stop-opacity:1"/>
   <stop offset="25%" style="stop-color: #d8d15f; stop-opacity:1"/>
   <stop offset="50%" style="stop-color: #e9882a; stop-opacity:1"/>
   <stop offset="100%" style="stop-color: #279362; stop-opacity:1"/>
  </linearGradient>
  <linearGradient id="90ssummer" x1="0%" x2="0%" y1="0%" y2="100%">
   <stop offset="0%" style="stop-color: #f618c7; stop-opacity:1"/>
   <stop offset="20%" style="stop-color: #94ffab; stop-opacity:1"/>
   <stop offset="50%" style="stop-color: #fbfd54; stop-opacity:1"/>
   <stop offset="100%" style="stop-color: #0f83ae; stop-opacity:1"/>
  </linearGradient>
 </defs>
  <path
     id="path63"
     class="ColorScheme-Text"
     style="opacity:0.402542;fill:url(#oomox);fill-opacity:1;stroke:none;stroke-width:0.999986;stroke-miterlimit:10;stroke-dasharray:none;paint-order:stroke fill markers"
     d="m 521,398 c -0.554,0 -1,0.446 -1,1 v 3.12695 A 4,4 0 0 1 522.87305,405 H 526 c 0.554,0 1,-0.446 1,-1 v -5 c 0,-0.554 -0.446,-1 -1,-1 z"
     transform="translate(-513,-396)" />
  <path
     id="path65-3"
     class="ColorScheme-Text"
     style="display:inline;opacity:0.800847;fill:url(#oomox);fill-opacity:1;stroke:none;stroke-width:1;stroke-miterlimit:10;stroke-dasharray:none;paint-order:stroke fill markers"
     d="m 6,6 c -2.2091378,0 -4,1.7908622 -4,4 0,2.209138 1.7908622,4 4,4 2.2091378,0 4,-1.790862 4,-4 H 8 C 6.9006511,10 6,9.0993489 6,8 Z M 7,6.1269531 V 8 C 7,8.5539994 7.4460006,9 8,9 H 9.8730469 A 4,4 0 0 0 7,6.1269531 Z" />
  <path
     id="path66"
     class="ColorScheme-Text"
     style="display:inline;fill:url(#oomox);stroke-miterlimit:10;-inkscape-stroke:none;paint-order:stroke fill markers;stroke:none"
     d="m 520.5,396 c -1.37635,0 -2.5,1.12365 -2.5,2.5 v 1.58398 c -2.83334,0.47791 -5,2.94911 -5,5.91602 0,3.30778 2.69222,6 6,6 2.96691,0 5.43811,-2.16666 5.91602,-5 H 526.5 c 1.37635,0 2.5,-1.12365 2.5,-2.5 v -6 c 0,-1.37635 -1.12365,-2.5 -2.5,-2.5 z m 0,1 h 6 c 0.83965,0 1.5,0.66035 1.5,1.5 v 6 c 0,0.83965 -0.66035,1.5 -1.5,1.5 h -1.5 -1 a 5,5 0 0 1 -0.11328,1 h 0.0137 c -0.46143,2.28611 -2.47553,4 -4.90039,4 -2.76734,0 -5,-2.23266 -5,-5 0,-2.42486 1.71389,-4.43896 4,-4.90039 v 0.0137 A 5,5 0 0 1 519,401 v -1 -1.5 c 0,-0.83965 0.66035,-1.5 1.5,-1.5 z"
     transform="translate(-513,-396)" />
  <metadata
     id="metadata15">
    <rdf:RDF>
      <cc:Work
         rdf:about="">
        <dc:creator>
          <cc:Agent>
            <dc:title>dreifacherspass</dc:title>
          </cc:Agent>
        </dc:creator>
        <cc:license
           rdf:resource="http://creativecommons.org/licenses/by-sa/4.0/" />
      </cc:Work>
      <cc:License
         rdf:about="http://creativecommons.org/licenses/by-sa/4.0/">
        <cc:permits
           rdf:resource="http://creativecommons.org/ns#Reproduction" />
        <cc:permits
           rdf:resource="http://creativecommons.org/ns#Distribution" />
        <cc:requires
           rdf:resource="http://creativecommons.org/ns#Notice" />
        <cc:requires
           rdf:resource="http://creativecommons.org/ns#Attribution" />
        <cc:permits
           rdf:resource="http://creativecommons.org/ns#DerivativeWorks" />
        <cc:requires
           rdf:resource="http://creativecommons.org/ns#ShareAlike" />
      </cc:License>
    </rdf:RDF>
  </metadata>
</svg>
