<?xml version="1.0" encoding="UTF-8" standalone="no"?>
<svg
   viewBox="0 0 16 16"
   height="16"
   width="16"
   id="svg1"
   version="1.1"
   xmlns="http://www.w3.org/2000/svg"
   xmlns:svg="http://www.w3.org/2000/svg"
   xmlns:rdf="http://www.w3.org/1999/02/22-rdf-syntax-ns#"
   xmlns:cc="http://creativecommons.org/ns#"
   xmlns:dc="http://purl.org/dc/elements/1.1/">
   <defs>
   <style id="current-color-scheme" type="text/css">
   .ColorScheme-Text { color: #0abdc6; } .ColorScheme-Highlight { color:#5294e2; }
  </style>
  <linearGradient id="arrongin" x1="0%" x2="0%" y1="0%" y2="100%">
   <stop offset="0%" style="stop-color:#dd9b44; stop-opacity:1"/>
   <stop offset="100%" style="stop-color:#ad6c16; stop-opacity:1"/>
  </linearGradient>
  <linearGradient id="aurora" x1="0%" x2="0%" y1="0%" y2="100%">
   <stop offset="0%" style="stop-color:#09D4DF; stop-opacity:1"/>
   <stop offset="100%" style="stop-color:#9269F4; stop-opacity:1"/>
  </linearGradient>
  <linearGradient id="cyberneon" x1="0%" x2="0%" y1="0%" y2="100%">
    <stop offset="0" style="stop-color:#0abdc6; stop-opacity:1"/>
    <stop offset="1" style="stop-color:#ea00d9; stop-opacity:1"/>
  </linearGradient>
  <linearGradient id="fitdance" x1="0%" x2="0%" y1="0%" y2="100%">
   <stop offset="0%" style="stop-color:#1AD6AB; stop-opacity:1"/>
   <stop offset="100%" style="stop-color:#329DB6; stop-opacity:1"/>
  </linearGradient>
  <linearGradient id="oomox" x1="0%" x2="0%" y1="0%" y2="100%">
   <stop offset="0%" style="stop-color:#0abdc6; stop-opacity:1"/>
   <stop offset="100%" style="stop-color:#b800ff; stop-opacity:1"/>
  </linearGradient>
  <linearGradient id="rainblue" x1="0%" x2="0%" y1="0%" y2="100%">
   <stop offset="0%" style="stop-color:#00F260; stop-opacity:1"/>
   <stop offset="100%" style="stop-color:#0575E6; stop-opacity:1"/>
  </linearGradient>
  <linearGradient id="sunrise" x1="0%" x2="0%" y1="0%" y2="100%">
   <stop offset="0%" style="stop-color: #FF8501; stop-opacity:1"/>
   <stop offset="100%" style="stop-color: #FFCB01; stop-opacity:1"/>
  </linearGradient>
  <linearGradient id="telinkrin" x1="0%" x2="0%" y1="0%" y2="100%">
   <stop offset="0%" style="stop-color: #b2ced6; stop-opacity:1"/>
   <stop offset="100%" style="stop-color: #6da5b7; stop-opacity:1"/>
  </linearGradient>
  <linearGradient id="60spsycho" x1="0%" x2="0%" y1="0%" y2="100%">
   <stop offset="0%" style="stop-color: #df5940; stop-opacity:1"/>
   <stop offset="25%" style="stop-color: #d8d15f; stop-opacity:1"/>
   <stop offset="50%" style="stop-color: #e9882a; stop-opacity:1"/>
   <stop offset="100%" style="stop-color: #279362; stop-opacity:1"/>
  </linearGradient>
  <linearGradient id="90ssummer" x1="0%" x2="0%" y1="0%" y2="100%">
   <stop offset="0%" style="stop-color: #f618c7; stop-opacity:1"/>
   <stop offset="20%" style="stop-color: #94ffab; stop-opacity:1"/>
   <stop offset="50%" style="stop-color: #fbfd54; stop-opacity:1"/>
   <stop offset="100%" style="stop-color: #0f83ae; stop-opacity:1"/>
  </linearGradient>
 </defs>
  <path
     d="M 7.9010043,1.5689208e-4 A 8.0007391,7.999472 0 0 0 7.029844,0.06070918 L 0.52176443,5.1610805 A 8.0007391,7.999472 0 0 0 0.09783077,6.754073 L 8.4600376,0.01413045 A 8.0007391,7.999472 0 0 0 8.0011645,1.5653437e-4 8.0007391,7.999472 0 0 0 7.9010043,1.5689208e-4 Z M 9.2962583,0.104959 0.0116465,7.5901613 A 8.0007391,7.999472 0 0 0 0,8.0000541 8.0007391,7.999472 0 0 0 0.04891539,8.8710765 L 10.337458,0.34949732 A 8.0007391,7.999472 0 0 0 9.2962583,0.104959 Z M 5.7184451,0.33319473 A 8.0007391,7.999472 0 0 0 1.1040908,3.9477044 Z M 10.991993,0.58006208 0.1537341,9.5604417 A 8.0007391,7.999472 0 0 0 0.4542146,10.662029 L 11.839859,0.98296808 a 8.0007391,7.999472 0 0 0 -0.847866,-0.402906 z M 12.380258,1.3043614 0.68947443,11.244263 A 8.0007391,7.999472 0 0 0 1.1926044,12.199127 L 13.088367,1.8283721 A 8.0007391,7.999472 0 0 0 12.380258,1.3043614 Z M 13.537923,2.2266202 1.5256951,12.697519 a 8.0007391,7.999472 0 0 0 0.6801572,0.817457 L 14.131896,2.860091 A 8.0007391,7.999472 0 0 0 13.537923,2.2266202 Z M 14.497597,3.3328651 2.6344446,13.931857 A 8.0007391,7.999472 0 0 0 3.4823118,14.60026 L 14.977435,4.0874406 A 8.0007391,7.999472 0 0 0 14.497597,3.3328651 Z M 15.259281,4.6370697 4.0064055,14.93097 a 8.0007391,7.999472 0 0 0 1.029553,0.498392 L 15.611006,5.5360392 A 8.0007391,7.999472 0 0 0 15.259281,4.6370697 Z M 15.790362,6.1834836 5.6695296,15.65294 A 8.0007391,7.999472 0 0 0 6.922696,15.925425 L 15.967389,7.2780838 A 8.0007391,7.999472 0 0 0 15.790362,6.1834836 Z M 16,8.0699223 7.7146599,15.992965 A 8.0007391,7.999472 0 0 0 8.0011645,16 8.0007391,7.999472 0 0 0 9.3335272,15.885886 L 15.855583,9.5161919 A 8.0007391,7.999472 0 0 0 16,8.0699223 Z m -0.451886,2.5804617 -5.073227,4.953648 a 8.0007391,7.999472 0 0 0 5.073227,-4.953648 z"
     style="opacity:0.5;stroke-width:1.36474;fill:url(#oomox)"
     id="path5952"
     class="ColorScheme-Text" />
  <path
     id="circle5956"
     class="ColorScheme-Text"
     style="opacity:1;stroke-width:0.805516;font-variation-settings:normal;vector-effect:none;fill:url(#oomox);fill-opacity:1;stroke-linecap:butt;stroke-linejoin:miter;stroke-miterlimit:4;stroke-dasharray:none;stroke-dashoffset:0;stroke-opacity:1;-inkscape-stroke:none;stop-color:#000000;stop-opacity:1"
     d="M 3.1503906 0.75 A 0.78905559 0.78893063 0 0 0 2.3613281 1.5390625 A 0.78905559 0.78893063 0 0 0 3.1503906 2.328125 A 0.78905559 0.78893063 0 0 0 3.9394531 1.5390625 A 0.78905559 0.78893063 0 0 0 3.1503906 0.75 z M 8 2.0097656 A 5.9911069 5.9901581 0 0 0 2.0097656 8 A 5.9911069 5.9901581 0 0 0 8 13.990234 A 5.9911069 5.9901581 0 0 0 13.992188 8 A 5.9911069 5.9901581 0 0 0 8 2.0097656 z " />
  <metadata
     id="metadata24">
    <rdf:RDF>
      <cc:Work
         rdf:about="">
        <dc:creator>
          <cc:Agent>
            <dc:title>dreifacherspass</dc:title>
          </cc:Agent>
        </dc:creator>
        <cc:license
           rdf:resource="http://creativecommons.org/licenses/by-sa/4.0/" />
      </cc:Work>
      <cc:License
         rdf:about="http://creativecommons.org/licenses/by-sa/4.0/">
        <cc:permits
           rdf:resource="http://creativecommons.org/ns#Reproduction" />
        <cc:permits
           rdf:resource="http://creativecommons.org/ns#Distribution" />
        <cc:requires
           rdf:resource="http://creativecommons.org/ns#Notice" />
        <cc:requires
           rdf:resource="http://creativecommons.org/ns#Attribution" />
        <cc:permits
           rdf:resource="http://creativecommons.org/ns#DerivativeWorks" />
        <cc:requires
           rdf:resource="http://creativecommons.org/ns#ShareAlike" />
      </cc:License>
    </rdf:RDF>
  </metadata>
</svg>
