<?xml version="1.0" encoding="UTF-8" standalone="no"?>
<svg
   height="16"
   viewBox="0 0 16 16"
   width="16"
   version="1.1"
   id="svg1"
   xmlns:xlink="http://www.w3.org/1999/xlink"
   xmlns="http://www.w3.org/2000/svg"
   xmlns:svg="http://www.w3.org/2000/svg"
   xmlns:rdf="http://www.w3.org/1999/02/22-rdf-syntax-ns#"
   xmlns:cc="http://creativecommons.org/ns#"
   xmlns:dc="http://purl.org/dc/elements/1.1/">
  <defs>
   <style id="current-color-scheme" type="text/css">
   .ColorScheme-Text { color: #0abdc6; } .ColorScheme-Highlight { color:#5294e2; }
  </style>
  <linearGradient id="arrongin" x1="0%" x2="0%" y1="0%" y2="100%">
   <stop offset="0%" style="stop-color:#dd9b44; stop-opacity:1"/>
   <stop offset="100%" style="stop-color:#ad6c16; stop-opacity:1"/>
  </linearGradient>
  <linearGradient id="aurora" x1="0%" x2="0%" y1="0%" y2="100%">
   <stop offset="0%" style="stop-color:#09D4DF; stop-opacity:1"/>
   <stop offset="100%" style="stop-color:#9269F4; stop-opacity:1"/>
  </linearGradient>
  <linearGradient id="cyberneon" x1="0%" x2="0%" y1="0%" y2="100%">
    <stop offset="0" style="stop-color:#0abdc6; stop-opacity:1"/>
    <stop offset="1" style="stop-color:#ea00d9; stop-opacity:1"/>
  </linearGradient>
  <linearGradient id="fitdance" x1="0%" x2="0%" y1="0%" y2="100%">
   <stop offset="0%" style="stop-color:#1AD6AB; stop-opacity:1"/>
   <stop offset="100%" style="stop-color:#329DB6; stop-opacity:1"/>
  </linearGradient>
  <linearGradient id="oomox" x1="0%" x2="0%" y1="0%" y2="100%">
   <stop offset="0%" style="stop-color:#0abdc6; stop-opacity:1"/>
   <stop offset="100%" style="stop-color:#b800ff; stop-opacity:1"/>
  </linearGradient>
  <linearGradient id="rainblue" x1="0%" x2="0%" y1="0%" y2="100%">
   <stop offset="0%" style="stop-color:#00F260; stop-opacity:1"/>
   <stop offset="100%" style="stop-color:#0575E6; stop-opacity:1"/>
  </linearGradient>
  <linearGradient id="sunrise" x1="0%" x2="0%" y1="0%" y2="100%">
   <stop offset="0%" style="stop-color: #FF8501; stop-opacity:1"/>
   <stop offset="100%" style="stop-color: #FFCB01; stop-opacity:1"/>
  </linearGradient>
  <linearGradient id="telinkrin" x1="0%" x2="0%" y1="0%" y2="100%">
   <stop offset="0%" style="stop-color: #b2ced6; stop-opacity:1"/>
   <stop offset="100%" style="stop-color: #6da5b7; stop-opacity:1"/>
  </linearGradient>
  <linearGradient id="60spsycho" x1="0%" x2="0%" y1="0%" y2="100%">
   <stop offset="0%" style="stop-color: #df5940; stop-opacity:1"/>
   <stop offset="25%" style="stop-color: #d8d15f; stop-opacity:1"/>
   <stop offset="50%" style="stop-color: #e9882a; stop-opacity:1"/>
   <stop offset="100%" style="stop-color: #279362; stop-opacity:1"/>
  </linearGradient>
  <linearGradient id="90ssummer" x1="0%" x2="0%" y1="0%" y2="100%">
   <stop offset="0%" style="stop-color: #f618c7; stop-opacity:1"/>
   <stop offset="20%" style="stop-color: #94ffab; stop-opacity:1"/>
   <stop offset="50%" style="stop-color: #fbfd54; stop-opacity:1"/>
   <stop offset="100%" style="stop-color: #0f83ae; stop-opacity:1"/>
  </linearGradient>
 </defs>
  <path
     d="m 10.666574,7.9999939 c -0.6853301,0 -1.3479939,-0.3199088 -1.8666579,-0.9004837 C 8.2955854,6.5332227 7.987587,5.7780568 7.9332542,4.9737546 7.8752542,4.1157862 8.1255865,3.3268171 8.6379172,2.7518175 9.1502479,2.176818 9.8665775,1.8666671 10.666574,1.8666671 c 0.794329,0 1.512658,0.3157269 2.023322,0.8893323 0.515664,0.5791814 0.766663,1.3667564 0.708663,2.2174064 -0.05567,0.8053481 -0.363331,1.5601657 -0.866662,2.1257556 -0.51733,0.5809237 -1.17966,0.9008325 -1.865323,0.9008325 z m 4.39431,6.1333251 H 6.2725961 A 0.92366186,0.96565045 0 0 1 5.5392664,13.761489 1.0073281,1.0531201 0 0 1 5.3639342,12.862748 c 0.280665,-1.178227 0.9759952,-2.155378 2.010656,-2.825514 0.9183286,-0.5945142 2.0873227,-0.9220897 3.2919838,-0.9220897 1.228327,0 2.366654,0.3136358 3.290316,0.9078017 1.036995,0.666651 1.733324,1.649377 2.012656,2.841892 a 1.0089948,1.0548625 0 0 1 -0.177333,0.89839 0.92266186,0.96460501 0 0 1 -0.731329,0.370091 z M 4.3666061,8.1393875 c -1.1729941,0 -2.2043216,-1.1402411 -2.2999883,-2.5414971 -0.047333,-0.7178782 0.1666661,-1.381741 0.5999974,-1.8685736 0.428664,-0.4819541 1.0333275,-0.7474992 1.6999909,-0.7474992 0.666663,0 1.2666598,0.2669392 1.6976577,0.7516811 0.4366645,0.4906662 0.6499968,1.1531349 0.5999968,1.8650888 -0.095667,1.4009077 -1.1266608,2.5408 -2.2976545,2.5408 z m 2.188655,1.0959841 C 5.968931,8.9356745 5.2079352,8.7858265 4.3669395,8.7858265 c -0.9819947,0 -1.9356566,0.2676357 -2.6856529,0.7534235 -0.85032865,0.551651 -1.42232602,1.354907 -1.65332496,2.32474 a 0.91299525,0.95449898 0 0 0 0.15966613,0.814059 0.84399562,0.88236272 0 0 0 0.66966298,0.340123 H 4.5572717 a 0.26666529,0.27878758 0 0 0 0.2623307,-0.228955 c 0.00368,-0.02197 0.00835,-0.04389 0.013653,-0.06551 0.2826777,-1.186945 0.9450073,-2.189883 1.9236687,-2.9210032 A 0.26666529,0.27878758 0 0 0 6.7359374,9.3360836 C 6.6836067,9.3040249 6.6236041,9.2702196 6.5552707,9.2353716 Z"
     stroke-width="0.0340821"
     id="path1"
     class="ColorScheme-Text"
     style="fill:url(#oomox)" />
  <metadata
     id="metadata1">
    <rdf:RDF>
      <cc:Work
         rdf:about="">
        <dc:creator>
          <cc:Agent>
            <dc:title>dreifacherspass</dc:title>
          </cc:Agent>
        </dc:creator>
        <cc:license
           rdf:resource="http://creativecommons.org/licenses/by-sa/4.0/" />
      </cc:Work>
      <cc:License
         rdf:about="http://creativecommons.org/licenses/by-sa/4.0/">
        <cc:permits
           rdf:resource="http://creativecommons.org/ns#Reproduction" />
        <cc:permits
           rdf:resource="http://creativecommons.org/ns#Distribution" />
        <cc:requires
           rdf:resource="http://creativecommons.org/ns#Notice" />
        <cc:requires
           rdf:resource="http://creativecommons.org/ns#Attribution" />
        <cc:permits
           rdf:resource="http://creativecommons.org/ns#DerivativeWorks" />
        <cc:requires
           rdf:resource="http://creativecommons.org/ns#ShareAlike" />
      </cc:License>
    </rdf:RDF>
  </metadata>
</svg>
