<?xml version="1.0" encoding="UTF-8" standalone="no"?>
<svg
   viewBox="0 0 16 16"
   height="16"
   width="16"
   id="svg1"
   version="1.1"
   xmlns:xlink="http://www.w3.org/1999/xlink"
   xmlns="http://www.w3.org/2000/svg"
   xmlns:svg="http://www.w3.org/2000/svg"
   xmlns:rdf="http://www.w3.org/1999/02/22-rdf-syntax-ns#"
   xmlns:cc="http://creativecommons.org/ns#"
   xmlns:dc="http://purl.org/dc/elements/1.1/">
  <defs>
   <style id="current-color-scheme" type="text/css">
   .ColorScheme-Text { color: #0abdc6; } .ColorScheme-Highlight { color:#5294e2; }
  </style>
  <linearGradient id="arrongin" x1="0%" x2="0%" y1="0%" y2="100%">
   <stop offset="0%" style="stop-color:#dd9b44; stop-opacity:1"/>
   <stop offset="100%" style="stop-color:#ad6c16; stop-opacity:1"/>
  </linearGradient>
  <linearGradient id="aurora" x1="0%" x2="0%" y1="0%" y2="100%">
   <stop offset="0%" style="stop-color:#09D4DF; stop-opacity:1"/>
   <stop offset="100%" style="stop-color:#9269F4; stop-opacity:1"/>
  </linearGradient>
  <linearGradient id="cyberneon" x1="0%" x2="0%" y1="0%" y2="100%">
    <stop offset="0" style="stop-color:#0abdc6; stop-opacity:1"/>
    <stop offset="1" style="stop-color:#ea00d9; stop-opacity:1"/>
  </linearGradient>
  <linearGradient id="fitdance" x1="0%" x2="0%" y1="0%" y2="100%">
   <stop offset="0%" style="stop-color:#1AD6AB; stop-opacity:1"/>
   <stop offset="100%" style="stop-color:#329DB6; stop-opacity:1"/>
  </linearGradient>
  <linearGradient id="oomox" x1="0%" x2="0%" y1="0%" y2="100%">
   <stop offset="0%" style="stop-color:#0abdc6; stop-opacity:1"/>
   <stop offset="100%" style="stop-color:#b800ff; stop-opacity:1"/>
  </linearGradient>
  <linearGradient id="rainblue" x1="0%" x2="0%" y1="0%" y2="100%">
   <stop offset="0%" style="stop-color:#00F260; stop-opacity:1"/>
   <stop offset="100%" style="stop-color:#0575E6; stop-opacity:1"/>
  </linearGradient>
  <linearGradient id="sunrise" x1="0%" x2="0%" y1="0%" y2="100%">
   <stop offset="0%" style="stop-color: #FF8501; stop-opacity:1"/>
   <stop offset="100%" style="stop-color: #FFCB01; stop-opacity:1"/>
  </linearGradient>
  <linearGradient id="telinkrin" x1="0%" x2="0%" y1="0%" y2="100%">
   <stop offset="0%" style="stop-color: #b2ced6; stop-opacity:1"/>
   <stop offset="100%" style="stop-color: #6da5b7; stop-opacity:1"/>
  </linearGradient>
  <linearGradient id="60spsycho" x1="0%" x2="0%" y1="0%" y2="100%">
   <stop offset="0%" style="stop-color: #df5940; stop-opacity:1"/>
   <stop offset="25%" style="stop-color: #d8d15f; stop-opacity:1"/>
   <stop offset="50%" style="stop-color: #e9882a; stop-opacity:1"/>
   <stop offset="100%" style="stop-color: #279362; stop-opacity:1"/>
  </linearGradient>
  <linearGradient id="90ssummer" x1="0%" x2="0%" y1="0%" y2="100%">
   <stop offset="0%" style="stop-color: #f618c7; stop-opacity:1"/>
   <stop offset="20%" style="stop-color: #94ffab; stop-opacity:1"/>
   <stop offset="50%" style="stop-color: #fbfd54; stop-opacity:1"/>
   <stop offset="100%" style="stop-color: #0f83ae; stop-opacity:1"/>
  </linearGradient>
 </defs>
 <metadata
     id="metadata1">
    <rdf:RDF>
      <cc:Work
         rdf:about="">
        <dc:creator>
          <cc:Agent>
            <dc:title>dreifacherspass</dc:title>
          </cc:Agent>
        </dc:creator>
        <cc:license
           rdf:resource="http://creativecommons.org/licenses/by-sa/4.0/" />
      </cc:Work>
      <cc:License
         rdf:about="http://creativecommons.org/licenses/by-sa/4.0/">
        <cc:permits
           rdf:resource="http://creativecommons.org/ns#Reproduction" />
        <cc:permits
           rdf:resource="http://creativecommons.org/ns#Distribution" />
        <cc:requires
           rdf:resource="http://creativecommons.org/ns#Notice" />
        <cc:requires
           rdf:resource="http://creativecommons.org/ns#Attribution" />
        <cc:permits
           rdf:resource="http://creativecommons.org/ns#DerivativeWorks" />
        <cc:requires
           rdf:resource="http://creativecommons.org/ns#ShareAlike" />
      </cc:License>
    </rdf:RDF>
  </metadata>
  <path
     style="opacity:1;stroke-width:1.05214;fill:url(#oomox)"
     d="M 0.00821989,5.2607297e-7 C 0.0039587,5.2607297e-7 0,0.00395923 0,0.00822042 V 15.991793 C 0,15.996002 0.0039587,16 0.00821989,16 H 15.991793 c 0.0042,0 0.0082,-0.004 0.0082,-0.0082 V 0.00822042 C 16,0.00395923 15.996002,0 15.991793,0 Z M 7.7636866,1.2596987 c 0.2532252,-0.00884 0.5056497,-0.00315 0.7562298,0.01644 L 8.4829264,1.740562 C 8.2497748,1.7220337 8.0156776,1.7179703 7.7801263,1.726177 Z m -0.7541751,0.067814 0.069869,0.4623687 C 6.849014,1.8241823 6.6175945,1.8727231 6.3889095,1.9337296 L 6.2697214,1.4816362 C 6.5154953,1.4160644 6.7618437,1.3643935 7.0095115,1.3275127 Z m 2.2584144,0.049319 c 0.2480003,0.047728 0.4930777,0.1080048 0.7336251,0.1828924 L 9.8638677,2.0077092 C 9.6399068,1.9379761 9.4104275,1.879502 9.1795625,1.835091 Z M 5.5504808,1.7179577 5.7210431,2.1515565 C 5.6123364,2.1940516 5.5039001,2.2401956 5.3963582,2.2892403 5.2888142,2.3382734 5.1832566,2.3911859 5.0798917,2.4454177 L 4.8620648,2.0303135 C 4.973042,1.9721109 5.0878101,1.9164555 5.2031905,1.8638608 5.3185646,1.8112493 5.4337652,1.7635692 5.5504808,1.7179577 Z m 2.2132058,0.01233 0.018495,0.4664783 C 7.5668957,2.204996 7.349254,2.225462 7.1328097,2.258416 L 7.0629407,1.7960469 c 0.2339342,-0.035584 0.4679788,-0.056921 0.7007459,-0.065759 z m 0.7027998,0.012329 c 0.2350378,0.017639 0.4690645,0.048876 0.6986911,0.092474 L 9.0768145,2.2954048 C 8.8642849,2.2550234 8.6489706,2.225415 8.431552,2.2090962 Z m 2.2440286,0.082199 c 0.230704,0.1011954 0.455506,0.2165885 0.674036,0.3431805 l -0.23427,0.40483 C 10.946848,2.4549869 10.738323,2.3485266 10.523517,2.2543048 Z M 6.3745246,1.9419501 6.4957676,2.3919886 C 6.3915062,2.4200494 6.2872691,2.4523124 6.1834128,2.4865176 6.0795597,2.520725 5.9777541,2.558093 5.8772215,2.5974854 L 5.7066581,2.1618317 c 0.1085384,-0.04252 0.2188222,-0.082307 0.3308515,-0.1191881 0.1120357,-0.036903 0.2244501,-0.070414 0.337015,-0.1006935 z m 3.4729033,0.063703 c 0.2244611,0.06937 0.4448481,0.1508156 0.6596441,0.2445418 L 10.320074,2.6776294 C 10.121187,2.5908484 9.9175271,2.5157957 9.7097451,2.4515822 Z M 7.730807,2.2193704 c 0.2180099,-0.01049 0.4349792,-0.00788 0.6493708,0.00617 l -0.030825,0.466474 C 8.1524121,2.6789678 7.9537512,2.6762753 7.753411,2.6858488 Z m -0.6452622,0.067814 0.07398,0.4603138 c -0.09766,0.015711 -0.1959801,0.036202 -0.2938612,0.05754 -0.097873,0.021359 -0.1944166,0.04346 -0.2897516,0.069869 L 6.450559,2.4248682 c 0.1036216,-0.028682 0.2101788,-0.0549 0.3164655,-0.078089 0.1062846,-0.023216 0.2123788,-0.04252 0.3185203,-0.059595 z m 1.9378392,0.016441 c 0.2139571,0.038543 0.4243179,0.090215 0.6308773,0.1520677 L 9.5206871,2.9036767 C 9.3308348,2.8468334 9.1377439,2.7993427 8.9411851,2.7639391 Z M 4.2147489,2.4187026 4.4757305,2.805038 C 4.2797147,2.9376915 4.0937363,3.081039 3.916778,3.2324723 L 3.6126415,2.8769616 C 3.8028853,2.7141557 4.0040819,2.5612642 4.2147489,2.4187026 Z m 0.8528137,0.034936 0.2178268,0.4130493 C 5.0917283,2.968815 4.9065243,3.0823752 4.7284917,3.2037024 L 4.4634004,2.8173681 C 4.6558863,2.6861939 4.858255,2.5640198 5.0675626,2.4536386 Z m 6.0662834,0.1130236 c 0.203022,0.1170554 0.400573,0.2449817 0.58977,0.3842795 L 11.446197,3.3270013 C 11.271067,3.1980534 11.089614,3.0798659 10.901627,2.9714906 Z m 0.883634,0.016439 c 0.202002,0.1495184 0.396165,0.3102263 0.581553,0.4829192 L 12.280517,3.4071453 C 12.108039,3.2465047 11.928027,3.0982911 11.740061,2.9591605 Z M 5.8361215,2.6324212 6.0107946,3.06602 C 5.8246858,3.1407757 5.6440228,3.2250504 5.4703367,3.3187809 L 5.2484002,2.9077864 C 5.4374761,2.8057513 5.6335919,2.7137675 5.8361215,2.6324212 Z m 4.4284625,0.043154 c 0.199329,0.085001 0.393429,0.18127 0.581563,0.2876967 L 10.61599,3.370155 C 10.442975,3.2722823 10.264952,3.1832171 10.081696,3.1050637 Z m -2.5050082,0.05754 0.022605,0.4664784 c -0.089289,0.00413 -0.1791384,0.011396 -0.2692021,0.020549 -0.090059,0.00923 -0.1788606,0.018918 -0.2671462,0.032879 L 7.1718545,2.7927079 c 0.096788,-0.015288 0.1952414,-0.029049 0.2938612,-0.039044 0.098624,-0.01009 0.195979,-0.016236 0.2938601,-0.020549 z m 0.5918321,0.00411 c 0.1984989,0.013018 0.3950071,0.037169 0.5877224,0.071924 L 8.8548763,3.2694657 C 8.6793794,3.2377961 8.5014341,3.2155538 8.3205839,3.2037066 Z M 6.5944063,2.9180658 6.7177051,3.3681044 C 6.5429826,3.4162243 6.3735703,3.4743038 6.208072,3.5407226 L 6.0333989,3.1071228 c 0.181734,-0.072933 0.3692306,-0.1362466 0.5610074,-0.189057 z m 2.9201163,0.02877 c 0.1897882,0.056937 0.3741452,0.124109 0.5548424,0.201387 L 9.886473,3.5797625 C 9.7218259,3.5093445 9.5517496,3.4467071 9.3788947,3.3948152 Z M 8.000008,3.2242571 c 0.089794,0 0.1785134,0.00133 0.2671462,0.00617 l -0.024659,0.4664784 c -0.080037,-0.00452 -0.1613139,-0.00617 -0.242487,-0.00617 -0.058109,0 -0.1150974,0.0019 -0.1726172,0.00411 L 7.841775,4.077074 c 0.03389,-0.00105 0.068923,-0.00159 0.1027494,-0.00205 0.1134698,-0.00158 0.226848,0.00207 0.3390698,0.01028 l 0.026715,-0.3863354 c 0.1393409,0.00988 0.2771878,0.026298 0.4130493,0.049319 l 0.076034,-0.458258 c 0.1776832,0.029972 0.3535368,0.07014 0.5240171,0.1191882 L 9.1939474,3.8592388 C 9.061739,3.8212247 8.9262447,3.7880222 8.7891174,3.7626549 l -0.069869,0.3801698 c 0.1445523,0.027171 0.2875105,0.061875 0.4274343,0.1048043 L 9.2597063,3.8736237 c 0.1328913,0.04064 0.2630281,0.088927 0.390444,0.1417935 L 9.8289331,3.5859281 c 0.1658129,0.068755 0.3271849,0.145961 0.4829239,0.2322117 L 10.085805,4.2270784 C 9.9652493,4.1603061 9.8390707,4.09935 9.7118,4.044186 L 9.5597323,4.3996967 C 9.694408,4.458076 9.8248709,4.5240193 9.9522322,4.596974 L 10.145397,4.259958 c 0.120113,0.069033 0.236638,0.141925 0.349344,0.2219376 l 0.269202,-0.378115 c 0.145817,0.1036448 0.286194,0.2160077 0.419217,0.3349601 L 10.87081,4.7880869 C 10.767773,4.6959462 10.661801,4.6070862 10.550231,4.5250504 l -0.228105,0.3123558 c 0.11824,0.086505 0.230736,0.1798444 0.339075,0.2794763 l 0.263037,-0.2856419 c 0.101763,0.093827 0.199287,0.1925838 0.291802,0.2959161 l 0.34524,-0.310301 c 0.118967,0.1330196 0.231294,0.2734022 0.334951,0.4192149 L 11.514007,5.5073265 C 11.433697,5.3943249 11.347726,5.285149 11.257137,5.1805857 l -0.289751,0.2507074 c 0.09572,0.1103365 0.187682,0.2275645 0.271254,0.3493451 l 0.318527,-0.2198817 c 0.07826,0.1138769 0.150498,0.2317141 0.217825,0.3534548 l 0.406886,-0.2239914 c 0.08624,0.1557376 0.16343,0.3150599 0.232209,0.4808633 L 11.982549,6.3519208 C 11.929329,6.2235569 11.868781,6.0976098 11.803758,5.9758607 l -0.339065,0.1808376 c 0.06821,0.1283639 0.130466,0.2607354 0.184947,0.3986644 l 0.361675,-0.1417924 c 0.05061,0.1279441 0.09512,0.2585059 0.13357,0.3924988 l 0.445931,-0.1274075 c 0.04901,0.1704866 0.08926,0.344279 0.119187,0.5219622 l -0.460314,0.078089 c -0.02325,-0.1373282 -0.05463,-0.2723059 -0.09042,-0.4048289 l -0.369893,0.098639 c 0.03882,0.1432591 0.06854,0.287805 0.09042,0.431544 l 0.382223,-0.05754 c 0.0121,0.079217 0.02346,0.1576672 0.03083,0.2383773 0.0059,0.057718 0.0092,0.1152332 0.01233,0.1726172 l 0.464417,-0.024659 c 0.0053,0.088618 0.0062,0.1773244 0.0062,0.2671461 0,0.089793 -0.002,0.1785134 -0.0062,0.2671462 l -0.466479,-0.024659 c 0.0042,-0.080037 0.0062,-0.1613139 0.0062,-0.242487 0,-0.058127 -0.002,-0.1150448 -0.0041,-0.1726171 l -0.382223,0.014384 c 0.0061,0.1476024 0.0029,0.2961654 -0.0082,0.4418193 l 0.388389,0.026715 c -0.0099,0.139322 -0.02627,0.2772057 -0.04931,0.4130493 l 0.4562,0.076034 c -0.02989,0.1776833 -0.07016,0.3535379 -0.119187,0.5240171 L 12.142903,9.193948 c 0.03798,-0.1322001 0.06917,-0.2677112 0.09452,-0.40483 l -0.37811,-0.069869 c -0.02713,0.1445343 -0.06403,0.2875104 -0.106856,0.4274343 l 0.374007,0.1130236 c -0.0407,0.1328797 -0.08682,0.2630365 -0.139746,0.390444 l 0.427434,0.1787827 c -0.06876,0.1658066 -0.145933,0.3271854 -0.232209,0.4829234 L 11.773006,10.085806 C 11.839786,9.9652446 11.900663,9.8411366 11.9559,9.7138553 L 11.600391,9.5597328 c -0.05838,0.1346589 -0.12428,0.2651629 -0.197278,0.3924999 l 0.339065,0.1952263 c -0.06903,0.120103 -0.144028,0.234597 -0.223991,0.347282 l 0.378109,0.269202 c -0.103615,0.145807 -0.215984,0.286205 -0.33495,0.419217 l -0.347293,-0.31235 c 0.09212,-0.103005 0.179012,-0.209009 0.260974,-0.320579 l -0.3103,-0.228105 c -0.08653,0.118251 -0.179833,0.230767 -0.279471,0.339075 l 0.285636,0.263037 c -0.09382,0.101753 -0.194647,0.199423 -0.297968,0.291802 l 0.310299,0.34524 c -0.133012,0.118935 -0.27341,0.231336 -0.419217,0.334951 l -0.269265,-0.382224 c 0.113001,-0.08031 0.220109,-0.164218 0.324692,-0.254808 l -0.250705,-0.289751 c -0.110318,0.09573 -0.225517,0.183495 -0.347293,0.26714 l 0.219878,0.320579 c -0.113864,0.07827 -0.233766,0.150488 -0.355508,0.217825 l 0.226052,0.406886 c -0.155739,0.08626 -0.3171203,0.163409 -0.4829237,0.232209 L 9.6501505,11.982549 C 9.7784966,11.929311 9.9023794,11.870843 10.024156,11.80582 L 9.8433182,11.466745 c -0.1283186,0.06818 -0.2607817,0.128499 -0.3986644,0.182895 l 0.1417925,0.361675 c -0.1279042,0.05049 -0.2585407,0.09517 -0.3924989,0.13357 l 0.1294624,0.445931 c -0.1704761,0.04905 -0.3463233,0.0892 -0.5240171,0.119187 l -0.076034,-0.460314 c 0.1372819,-0.02315 0.2723028,-0.05453 0.40483,-0.09042 L 9.0274941,11.789375 c -0.1432054,0.03893 -0.2878576,0.06833 -0.4315439,0.09042 l 0.059595,0.382223 c -0.079217,0.0121 -0.1597221,0.02346 -0.2404322,0.03083 -0.057709,0.006 -0.1152331,0.0092 -0.1726172,0.01233 l 0.024659,0.464417 c -0.088619,0.0053 -0.1773245,0.0062 -0.2671462,0.0062 -0.089794,0 -0.1785239,-0.002 -0.2671462,-0.0062 l 0.024659,-0.466479 c 0.080037,0.0042 0.1613034,0.0062 0.242487,0.0062 0.058127,0 0.1150458,-0.002 0.1726172,-0.0041 l -0.014384,-0.382223 c -0.1476498,0.0061 -0.2940664,0.0029 -0.4397644,-0.0082 l -0.02877,0.388389 c -0.1393251,-0.0099 -0.277211,-0.02627 -0.4130493,-0.04931 l -0.076034,0.4562 c -0.1776906,-0.0299 -0.3514788,-0.07005 -0.5219622,-0.119187 l 0.1274075,-0.447983 c 0.1322053,0.03798 0.2677343,0.06917 0.4048299,0.09452 l 0.069869,-0.37811 C 7.1362036,11.832166 6.99328,11.795383 6.8533331,11.752455 L 6.7403094,12.126462 C 6.6073887,12.085701 6.477314,12.037524 6.3498655,11.984601 L 6.1710827,12.414087 C 6.0052792,12.34535 5.8439011,12.268154 5.6881635,12.181878 l 0.2281021,-0.408937 c 0.1205738,0.06677 0.2446997,0.127688 0.3719504,0.182894 L 6.4423386,11.600326 C 6.3076565,11.541921 6.175144,11.476046 6.0477838,11.403048 L 5.8546172,11.742113 C 5.7345011,11.673081 5.6179454,11.598084 5.5052711,11.518121 l -0.269201,0.37811 C 5.0902584,11.792616 4.9498717,11.680215 4.8168552,11.56128 L 5.129211,11.213988 c 0.1030272,0.09213 0.2110762,0.178981 0.3226311,0.260974 L 5.6799442,11.164663 C 5.5616998,11.078135 5.4471484,10.984831 5.3388185,10.885192 L 5.075782,11.170829 C 4.9740594,11.077051 4.8764277,10.978234 4.7839756,10.874913 L 4.4387402,11.18316 C 4.3197878,11.050137 4.2074165,10.909739 4.1037801,10.763943 l 0.3822246,-0.269202 c 0.08031,0.113011 0.1662591,0.220046 0.256872,0.324692 L 5.0326282,10.568728 C 4.9369229,10.4584 4.8469981,10.34319 4.7634261,10.221436 L 4.442851,10.441313 C 4.364572,10.327418 4.2923709,10.207569 4.2250231,10.085806 L 3.8181393,10.311857 C 3.7318883,10.156119 3.6546737,9.9947404 3.5859275,9.8289338 l 0.431544,-0.1787827 c 0.053233,0.1283702 0.113757,0.2522109 0.1787828,0.3740049 L 4.5353241,9.8433187 C 4.4671376,9.7149927 4.4048359,9.5825465 4.3503768,9.4446543 L 3.9887016,9.5885027 C 3.9381556,9.4606028 3.8935846,9.3278956 3.8551286,9.193948 L 3.4091996,9.3234103 C 3.3601707,9.1529269 3.3199545,8.9770849 3.2900115,8.7993932 l 0.4623687,-0.076034 c 0.023156,0.137263 0.052577,0.2723154 0.088363,0.40483 L 4.2106388,9.0274943 C 4.1717298,8.884274 4.1423878,8.7396555 4.1202198,8.5959503 l -0.3822246,0.059595 c -0.0121,-0.07921 -0.022934,-0.1597221 -0.030825,-0.2404322 -0.00545,-0.057728 -0.00896,-0.1152331 -0.01233,-0.1726172 l -0.4644235,0.024659 c -0.00463,-0.088629 -0.00617,-0.1773245 -0.00617,-0.2671462 0,-0.089803 0.00133,-0.1785134 0.00617,-0.2671461 l 0.4664784,0.024659 c -0.00452,0.080037 -0.00617,0.161314 -0.00617,0.242487 0,0.058137 0.0019,0.1170997 0.00411,0.1746731 l 0.3822246,-0.01644 c -0.0059,-0.1476582 -0.00245,-0.2940737 0.00822,-0.4397644 l -0.3883855,-0.02877 c 0.00988,-0.139323 0.028353,-0.2772067 0.051374,-0.4130493 L 3.2900105,7.2006238 C 3.3199825,7.0229406 3.3601515,6.8491482 3.4091986,6.6786616 l 0.4500386,0.1274075 c -0.038014,0.1322169 -0.071217,0.2677312 -0.096584,0.40483 L 4.142823,7.2807679 C 4.169999,7.1361893 4.204684,6.995348 4.2476274,6.8553884 L 3.8736221,6.74031 C 3.9142741,6.6073734 3.9624981,6.4773187 4.0154156,6.349866 L 3.5859265,6.1710832 C 3.6546815,6.0052787 3.7318886,5.8459575 3.8181383,5.6902199 L 4.2270769,5.9162661 C 4.1602839,6.0368694 4.0993621,6.160929 4.0441844,6.2882165 L 4.3996951,6.4423391 C 4.4580781,6.3076707 4.5240135,6.1751266 4.5969725,6.0477844 L 4.2579016,5.8546177 C 4.3269381,5.7344974 4.4018667,5.6179607 4.481894,5.5052716 L 4.103779,5.2360706 C 4.2074196,5.0902579 4.3197867,4.9498753 4.4387392,4.8168557 L 4.7880853,5.1292115 C 4.6959533,5.2322355 4.6070752,5.3402941 4.5250488,5.4518426 L 4.8374046,5.6799447 C 4.9239036,5.5617266 5.0172637,5.4471395 5.1168809,5.338819 L 4.8312391,5.0757825 C 4.9250481,4.9740358 5.0238459,4.876444 5.1271551,4.7839761 L 4.8168541,4.4387407 C 4.9498706,4.3197883 5.0902574,4.2074254 5.236069,4.1037806 l 0.2712559,0.3822246 c -0.113011,0.080329 -0.222168,0.1662402 -0.3267408,0.256872 L 5.4312916,5.0326287 C 5.5416133,4.936914 5.6588528,4.8470091 5.7806366,4.7634267 L 5.560755,4.4428515 C 5.6746624,4.3645718 5.7924354,4.2923788 5.9142097,4.2250236 L 5.6881625,3.8181398 C 5.8438927,3.7318891 6.005274,3.6546816 6.1710817,3.5859281 L 6.3498644,4.017472 C 6.2214952,4.0707043 6.0976177,4.1313258 5.9758591,4.1962548 L 6.1566967,4.5353246 C 6.2850396,4.4671266 6.4174437,4.404849 6.5553611,4.3503773 L 6.4135687,3.9887022 C 6.5415286,3.9381371 6.672062,3.8935924 6.8060675,3.8551291 L 6.67866,3.4092002 C 6.8491487,3.3601733 7.0229369,3.3199645 7.2006222,3.290012 l 0.078089,0.4623687 c -0.1373167,0.023165 -0.2723091,0.052574 -0.404829,0.088363 l 0.098639,0.3719505 c 0.1432413,-0.03894 0.2878166,-0.070327 0.431544,-0.092474 l -0.05754,-0.3822246 c 0.079218,-0.01211 0.1576778,-0.022934 0.2383774,-0.030825 0.057732,-0.00545 0.11517,-0.00896 0.1726171,-0.01233 L 7.7328607,3.2304174 c 0.088624,-0.00516 0.177356,-0.00617 0.2671461,-0.00617 z M 3.9065027,3.2448066 4.2106392,3.6003162 C 4.0454754,3.7426336 3.8890592,3.8936597 3.7421049,4.0524064 L 3.3989244,3.733885 C 3.2428207,3.9024388 3.0948027,4.0767079 2.95916,4.259958 L 2.5830999,3.9825376 C 2.7326183,3.7805477 2.8933304,3.5863847 3.0660191,3.4009798 l 0.3431805,0.3185214 c -0.00403,0.00432 -0.00626,0.010048 -0.010279,0.014384 C 3.5577283,3.5623316 3.7279477,3.3986619 3.9064989,3.2448024 Z m 0.7891095,0.00411 0.2671461,0.3822246 C 4.7988151,3.7452251 4.6431322,3.8682209 4.4942251,3.9989858 L 4.185979,3.6475765 C 4.3480011,3.5052948 4.5171598,3.3730863 4.6956122,3.2489121 Z m 6.6971568,0.063704 c 0.175129,0.1266994 0.343178,0.2631438 0.503462,0.4089396 L 11.581829,4.0688546 C 11.434455,3.9348018 11.280515,3.809305 11.119453,3.6927861 Z m -5.8957173,0.04521 0.2219365,0.4109945 C 5.5601584,3.8545073 5.4077635,3.9481567 5.2607292,4.05036 L 4.9935831,3.6660711 C 5.1549517,3.5539092 5.3226701,3.4519057 5.4970517,3.357826 Z m 6.7690823,0.041099 c 0.171552,0.1588141 0.335224,0.329025 0.48908,0.5075784 l -0.35551,0.3041364 C 12.25738,4.0454833 12.106334,3.889066 11.947607,3.7421139 Z m -1.666589,0.01233 c 0.171753,0.09749 0.337897,0.204836 0.497308,0.3205752 l -0.275368,0.378115 C 10.676131,4.0044075 10.525937,3.9070041 10.369388,3.8181398 Z m 2.523509,0.2013871 C 13.285874,3.80289 13.43874,4.0020423 13.581316,4.212703 L 13.194979,4.4757395 C 13.062324,4.2797268 12.91897,4.0937347 12.767545,3.9167869 Z M 4.5271047,4.031857 4.8353508,4.3832569 C 4.6999544,4.5019053 4.5721281,4.6266098 4.4510703,4.759317 L 4.1058349,4.4449063 C 4.2385979,4.2993693 4.3785754,4.1620116 4.5271047,4.031857 Z M 3.7215555,4.1037806 4.0688457,4.4181913 C 3.9347991,4.565579 3.8093108,4.719508 3.6927856,4.88056 L 3.3126158,4.6072493 C 3.4393226,4.4321249 3.5757596,4.2640845 3.7215555,4.1037806 Z m 7.8335595,0.00205 c 0.145543,0.1327682 0.28289,0.2727404 0.413041,0.4212698 L 11.61676,4.8353482 C 11.498131,4.6999539 11.373409,4.5721287 11.240702,4.4510708 Z m 0.795275,0.080147 c 0.142292,0.1620242 0.276535,0.3311798 0.40071,0.5096332 L 12.366824,4.9627589 C 12.252751,4.7988145 12.129744,4.6431306 11.998984,4.4942257 Z M 2.9509406,4.2763988 3.3270007,4.5538192 C 3.1980518,4.7289415 3.0798643,4.9104062 2.9714901,5.0983878 L 2.5666612,4.8641202 C 2.451951,5.063303 2.3464355,5.2664629 2.2543043,5.4765017 L 1.8248152,5.2894996 C 1.9260095,5.058783 2.0413994,4.8340046 2.1679957,4.6154686 l 0.40483,0.2342667 c -0.00262,0.00451 -0.00356,0.00986 -0.00617,0.014385 C 2.6837091,4.6610918 2.8116363,4.465582 2.9509352,4.2763988 Z M 13.182648,4.4634009 c 0.131181,0.1924891 0.253346,0.3948567 0.363727,0.6041622 L 13.133334,5.28539 C 13.031202,5.0917299 12.917623,4.9044679 12.79631,4.7264374 Z m 0.787058,0.3986645 c 0.05821,0.110975 0.113842,0.2236935 0.166449,0.3390708 0.05263,0.1153773 0.100343,0.2326242 0.145901,0.3493451 L 13.846405,5.7210436 C 13.804035,5.6123243 13.759805,5.5039007 13.710772,5.3963587 13.661692,5.2888136 13.608788,5.1832445 13.554602,5.0798922 Z M 3.7318297,4.9031654 4.1099446,5.178531 C 4.004407,5.3238869 3.9070141,5.474066 3.8181393,5.6306253 L 3.4112545,5.4004684 c 0.09749,-0.1717439 0.2048349,-0.3378945 0.3205752,-0.497303 z m 8.6021153,0.090418 c 0.11218,0.1613666 0.214164,0.3290839 0.308247,0.5034687 l -0.411,0.2219365 C 12.145502,5.5601547 12.051833,5.407765 11.94967,5.2607298 Z M 2.9632707,5.1538717 3.3701545,5.3840286 C 3.2722825,5.5570509 3.1832124,5.735054 3.1050632,5.918321 L 2.6755741,5.7354285 C 2.7605761,5.5361058 2.8568514,5.3420101 2.9632707,5.1538717 Z m 10.1289553,0.094529 c 0.102037,0.1890769 0.194027,0.3851938 0.275368,0.5877214 l -0.435652,0.174673 C 12.857182,5.8246863 12.772932,5.6440213 12.679185,5.4703372 Z M 2.2501946,5.4929426 2.6776289,5.6799447 C 2.5908419,5.8788255 2.5157952,6.0824905 2.4515817,6.2902714 L 2.0056528,6.1525886 C 2.0750238,5.928127 2.1564642,5.707735 2.2501946,5.4929426 Z M 13.838187,5.7066587 c 0.04253,0.1085414 0.08229,0.2188211 0.119187,0.3308515 0.03688,0.1120398 0.07035,0.2244574 0.100691,0.3370149 L 13.60803,6.4957681 C 13.58004,6.391492 13.54769,6.2872812 13.5135,6.1834133 13.47937,6.0795539 13.442,5.9777441 13.402541,5.877222 Z M 3.148218,5.9306511 3.579762,6.1135435 C 3.509349,6.2781822 3.4467044,6.4482658 3.3948147,6.6211218 L 2.946831,6.4854939 C 3.003768,6.2957036 3.0709421,6.1113403 3.148218,5.9306511 Z m -1.5864393,0.067814 0.44593,0.1376838 C 1.9379857,6.3601181 1.8795005,6.5875468 1.8350904,6.8183992 L 1.3768314,6.7300358 C 1.4245534,6.4820355 1.4868869,6.239014 1.5617787,5.9984651 Z m 11.3331703,0.034934 c 0.07296,0.1817277 0.136221,0.3692317 0.18906,0.5610074 L 12.631913,6.7177057 C 12.583803,6.5429832 12.525688,6.3735656 12.459297,6.2080725 Z m 1.62343,0.2363225 c 0.06558,0.2457782 0.11724,0.4921087 0.154128,0.7397901 l -0.462376,0.069869 C 14.175801,6.8490082 14.127311,6.6175982 14.066282,6.3889101 Z M 2.4536376,6.3457552 2.9016213,6.4793294 C 2.8447723,6.6691712 2.7993475,6.8622716 2.7639385,7.0588314 L 2.3036247,6.9766325 C 2.3421677,6.7626754 2.3917857,6.5523157 2.4536376,6.3457552 Z M 13.575151,6.4526143 c 0.02872,0.1036133 0.05494,0.208124 0.07809,0.3144107 0.02315,0.1062909 0.04234,0.2123893 0.05959,0.3185204 l -0.462376,0.07398 C 13.234675,7.06187 13.216335,6.9635448 13.194975,6.8656637 13.173615,6.7677899 13.149355,6.6712576 13.123045,6.5759122 Z M 1.8350904,6.834839 2.2954043,6.9232024 c -0.040339,0.2125282 -0.06999,0.4278572 -0.086309,0.6452622 l -0.466479,-0.034934 c -0.017441,0.2277717 -0.024468,0.4563114 -0.01644,0.68636 L 1.2596979,8.23633 c -0.00877,-0.25322 -0.00315,-0.5056782 0.01644,-0.7562299 l 0.4664784,0.03699 c -4.325e-4,0.00545 4.177e-4,0.010987 0,0.01644 0.01764,-0.2350379 0.048885,-0.4690193 0.092474,-0.6986911 z M 2.8091471,7.0608862 3.269461,7.14514 C 3.237802,7.3206368 3.215538,7.4986 3.203702,7.6794323 L 2.7372235,7.6486086 c 0.013015,-0.1984989 0.037161,-0.3950082 0.071924,-0.5877224 z m 11.3948189,0.00205 c 0.03546,0.2339362 0.05734,0.4679756 0.06576,0.700746 l -0.466479,0.018495 c -0.0082,-0.2152869 -0.02861,-0.432918 -0.06165,-0.6493718 z M 13.20731,7.1718518 c 0.01547,0.096781 0.02852,0.195232 0.03904,0.2938612 0.01,0.098629 0.01634,0.1959685 0.02055,0.2938602 l -0.46648,0.022605 C 12.79632,7.6928955 12.78829,7.6030612 12.77987,7.5129765 12.77087,7.4229181 12.76088,7.3340948 12.74699,7.2458303 Z M 2.2255355,7.6198387 2.6920138,7.6506635 c -0.012731,0.1969501 -0.015739,0.3956037 -0.00617,0.5959417 l -0.4664795,0.022604 c -0.010458,-0.2180109 -0.00785,-0.434975 0.00617,-0.6493708 z M 13.780645,7.7308075 c 0.01084,0.2180025 0.0078,0.4349771 -0.0062,0.6493708 l -0.46648,-0.030825 c 0.01157,-0.1969407 0.01358,-0.3956027 0.0041,-0.5959418 z m 0.959673,0.03288 c 0.0087,0.253221 0.0032,0.5056887 -0.01645,0.7562299 l -0.466469,-0.03699 c 4.11e-4,-0.00545 -3.99e-4,-0.010986 0,-0.01644 -0.01768,0.2350368 -0.04882,0.4690182 -0.09247,0.6986912 l -0.460314,-0.088363 c 0.0405,-0.2125292 0.07,-0.4278519 0.08631,-0.6452621 l 0.466479,0.034934 c 0.01659,-0.2277759 0.02363,-0.4563104 0.01644,-0.68636 z M 2.1967656,8.2178353 c 0.00823,0.215288 0.028696,0.4329002 0.061649,0.6493719 L 1.796046,8.937076 C 1.760462,8.7031408 1.739125,8.4690899 1.730287,8.23633 Z m 1.0028266,0 c 0.00415,0.089284 0.011383,0.1791447 0.020549,0.2692021 0.00916,0.090067 0.020968,0.1788648 0.034934,0.2671462 L 2.7927065,8.8281621 C 2.7773665,8.7313825 2.7636575,8.6329311 2.7536625,8.5343009 2.7436245,8.4356737 2.7374265,8.3383218 2.7331135,8.2404407 Z m 9.5967178,0.1027495 0.46648,0.030824 C 13.24985,8.5498993 13.22548,8.746417 13.19086,8.9391312 l -0.460314,-0.084254 c 0.03167,-0.1754969 0.05387,-0.3534495 0.06576,-0.5342923 z M 2.7474977,8.8404922 c 0.015724,0.097664 0.034152,0.1959874 0.055485,0.2938612 0.021327,0.097874 0.04552,0.1944239 0.071924,0.2897515 L 2.4248681,9.5474027 C 2.3961551,9.44378 2.3699571,9.3392777 2.3467791,9.232992 2.3236111,9.1267095 2.3042711,9.0206132 2.2871841,8.9144717 Z m -0.9576169,0.080144 c 0.034297,0.2303642 0.082834,0.4617963 0.1438483,0.6904708 L 1.4816357,9.7302951 C 1.4160638,9.4845222 1.3643898,9.2381686 1.3275121,8.990505 Z m 11.4461952,0.020549 0.460314,0.082199 c -0.03855,0.213956 -0.0902,0.4243083 -0.152067,0.6308772 L 13.09634,9.5206877 C 13.1532,9.3308574 13.200618,9.1377444 13.236076,8.9411852 Z m 0.928855,0.2383773 0.458252,0.088363 C 14.575473,9.515932 14.513149,9.7610083 14.438237,10.001552 L 13.992306,9.8638682 c 0.0697,-0.2239587 0.12833,-0.4534528 0.172625,-0.6843057 z M 3.3680997,9.2823114 c 0.04812,0.1747277 0.1062036,0.3441306 0.1726182,0.5096332 L 3.107118,9.9666176 C 3.0341843,9.7848931 2.9708683,9.5973859 2.9180611,9.4056103 Z m 9.2370993,0.096584 0.447982,0.1356279 c -0.05693,0.1897788 -0.124153,0.3741515 -0.20138,0.5548427 L 12.420252,9.8864736 C 12.490682,9.7218338 12.553328,9.551747 12.605199,9.3788954 Z M 2.3919881,9.5042489 c 0.028066,0.1042582 0.060322,0.2085027 0.094529,0.3123548 0.034207,0.1038552 0.071578,0.2056623 0.1109677,0.3061933 L 2.1618312,10.29336 C 2.1193082,10.184821 2.0795212,10.074547 2.0426431,9.9625069 2.0057551,9.8504765 1.9722291,9.7380621 1.9419495,9.6254919 Z m 11.1564489,0.2054968 0.445931,0.1376827 c -0.06936,0.2244466 -0.150804,0.4448486 -0.24455,0.6596436 l -0.427435,-0.186998 c 0.08677,-0.198876 0.161873,-0.4025537 0.226054,-0.6103283 z M 3.0660191,9.9892219 c 0.074757,0.1861191 0.159035,0.3647111 0.2527612,0.5383991 L 2.9077858,10.751612 C 2.8057519,10.562552 2.7137712,10.366443 2.6324203,10.163894 Z m 9.8268779,0.092474 0.431549,0.182888 c -0.085,0.199319 -0.181285,0.393419 -0.287699,0.581563 L 12.629861,10.61599 c 0.09788,-0.173025 0.184862,-0.351048 0.263036,-0.534294 z M 2.1536108,10.278978 c 0.042488,0.108707 0.086588,0.217131 0.135629,0.324681 0.049041,0.10754 0.1019603,0.213144 0.1561773,0.316465 L 2.030313,11.137949 C 1.972111,11.026969 1.9164466,10.912201 1.8638603,10.796823 1.8112483,10.681444 1.7635677,10.566245 1.7179571,10.449531 Z m 1.6152092,0.0021 c 0.085683,0.158832 0.1793288,0.311214 0.2815311,0.458262 L 3.6660706,11.00648 C 3.5539107,10.845127 3.4519084,10.677404 3.3578255,10.503022 Z m 8.413058,0.08836 0.406886,0.230157 c -0.0975,0.171752 -0.204842,0.337897 -0.320578,0.497307 l -0.37811,-0.275367 c 0.105551,-0.145354 0.202896,-0.295548 0.291802,-0.452097 z m 1.563836,0.154129 0.429486,0.186998 c -0.101195,0.230704 -0.216584,0.455495 -0.343178,0.674036 L 13.427188,11.15033 c 0.117829,-0.203422 0.224359,-0.411957 0.318526,-0.626763 z M 2.8666869,10.714629 c 0.1021213,0.193658 0.2156889,0.378867 0.337015,0.556901 L 2.8173676,11.536618 C 2.6861881,11.344139 2.5640224,11.141769 2.4536376,10.932455 Z m 10.1618421,0.186998 0.404824,0.232219 c -0.117051,0.203022 -0.244982,0.400584 -0.384275,0.58977 L 12.67302,11.446197 c 0.128951,-0.17513 0.247086,-0.356583 0.355509,-0.54457 z m -9.3973928,0.135632 c 0.1140757,0.163935 0.2370747,0.319621 0.3678407,0.468531 l -0.351401,0.308247 C 3.5052984,11.652007 3.3730858,11.482874 3.2489115,11.304399 Z m 8.6760948,0.08219 0.37811,0.273316 c -0.126679,0.175129 -0.263142,0.343178 -0.408938,0.503462 l -0.34523,-0.314402 c 0.134043,-0.147385 0.259533,-0.301324 0.376058,-0.462376 z m -7.9239746,0.04521 c 0.1186473,0.135391 0.243355,0.263237 0.3760601,0.384286 l -0.3144107,0.34523 C 4.2993677,11.76142 4.1620122,11.621432 4.0318565,11.472911 Z m 7.1656926,0.07604 0.34523,0.314413 c -0.132759,0.145533 -0.272737,0.28289 -0.421268,0.413041 L 11.164663,11.61676 c 0.135401,-0.11865 0.263226,-0.243372 0.384286,-0.376058 z m -8.7439115,0.283585 c 0.1326482,0.196004 0.2759978,0.382013 0.4274342,0.558952 L 2.8769611,12.387373 C 2.7141542,12.197134 2.561271,11.995932 2.4187021,11.785272 Z m 10.2358235,0.213712 0.376058,0.279481 c -0.14951,0.201991 -0.310236,0.396144 -0.482925,0.581553 l -0.343178,-0.318516 c 0.004,-0.0043 0.0063,-0.0101 0.01031,-0.01438 -0.158822,0.171542 -0.329027,0.335214 -0.507587,0.48908 l -0.304133,-0.35551 c 0.165176,-0.142324 0.321578,-0.293349 0.468541,-0.452097 l 0.343179,0.318527 c 0.156096,-0.168564 0.304112,-0.344872 0.439765,-0.528135 z m -9.4405496,0.05138 c 0.1423259,0.165145 0.2933499,0.321578 0.4520945,0.468542 l -0.3185214,0.343178 c 0.1685559,0.156097 0.3428228,0.304123 0.526073,0.439766 L 3.9825371,13.416919 C 3.7805398,13.267409 3.5863894,13.106683 3.4009792,12.933994 l 0.3185214,-0.343178 c 0.00432,0.004 0.010048,0.0063 0.014384,0.01031 C 3.5623322,12.442305 3.3986667,12.27211 3.2448019,12.09354 Z m 1.5782189,0.100701 c 0.1453529,0.10553 0.2955352,0.202896 0.4520945,0.291802 L 5.4004679,12.588764 C 5.228724,12.491262 5.0625723,12.383932 4.9031648,12.268186 Z m -0.7603395,0.0411 c 0.1473898,0.134043 0.3013156,0.259533 0.4623686,0.376058 l -0.2733106,0.37811 C 4.4321233,12.558662 4.2640851,12.422209 4.1037801,12.276403 Z m 6.3211002,0.0185 0.26714,0.384275 c -0.161378,0.112159 -0.329079,0.214185 -0.503463,0.308247 l -0.221939,-0.411 c 0.158821,-0.08569 0.311214,-0.179359 0.458262,-0.281522 z m 0.766499,0.05137 0.308247,0.349355 c -0.16203,0.142282 -0.333235,0.276556 -0.51169,0.40071 l -0.26714,-0.382224 c 0.163946,-0.114074 0.321673,-0.237091 0.470583,-0.367841 z m -5.392247,0.419217 c 0.1646398,0.07042 0.3347234,0.133065 0.5075783,0.184947 l -0.1356279,0.44797 C 6.2957062,12.99625 6.1113377,12.929028 5.9306505,12.851801 Z m 3.678401,0.03904 0.1746731,0.4336 c -0.1817277,0.07294 -0.3692317,0.136137 -0.5610074,0.18906 L 9.2823108,12.631913 c 0.1747226,-0.04813 0.344138,-0.106225 0.5096332,-0.172616 z m -4.4099707,0.170564 c 0.1730201,0.09788 0.3530865,0.186945 0.5363471,0.265088 l -0.1849472,0.429497 c -0.1993238,-0.085 -0.3934174,-0.181275 -0.5815569,-0.287699 z m -0.8281546,0.04316 c 0.1751202,0.128951 0.356587,0.247128 0.5445686,0.355509 l -0.2342676,0.404824 c 0.1991849,0.114726 0.4023427,0.220235 0.6123815,0.312361 L 5.2894991,14.1752 C 5.0587814,14.074005 4.8340051,13.958616 4.6154681,13.832022 l 0.2342666,-0.404834 c 0.00451,0.0026 0.00986,0.0036 0.014385,0.0062 C 4.6610923,13.316344 4.4655805,13.188424 4.2763983,13.04912 Z m 5.9738023,0.0062 0.221939,0.41304 c -0.189081,0.102048 -0.38518,0.194037 -0.587718,0.275368 l -0.1726206,-0.4336 c 0.1861196,-0.07477 0.3647216,-0.161062 0.5383996,-0.254808 z m -3.3824816,0.05137 c 0.1754969,0.03167 0.3534495,0.05387 0.5342924,0.06576 l -0.030824,0.46648 C 7.4501099,13.24989 7.2535954,13.225523 7.0608854,13.190907 Z m 1.6090436,0.01439 0.073979,0.462365 c -0.096781,0.01536 -0.1952309,0.02958 -0.2938612,0.03904 -0.098626,0.01 -0.195979,0.01634 -0.2938601,0.02055 l -0.022605,-0.466522 c 0.089292,-0.0041 0.1791068,-0.01213 0.2692021,-0.02055 0.090058,-0.0089 0.1788816,-0.02094 0.2671461,-0.03493 z m 3.329056,0.0226 0.304134,0.355509 c -0.190239,0.16282 -0.389399,0.315686 -0.60005,0.458262 L 11.524287,13.19297 c 0.0045,-0.0031 0.0079,-0.0073 0.01233,-0.01031 -0.19249,0.131182 -0.394849,0.253304 -0.604163,0.363727 l -0.217826,-0.413041 c 0.193669,-0.102121 0.378867,-0.21569 0.556901,-0.337023 l 0.265088,0.386337 c 0.191112,-0.130045 0.373701,-0.267129 0.546621,-0.415103 z m -5.6039101,0.328795 c 0.189845,0.0569 0.3829369,0.1043 0.5795019,0.139736 l -0.082199,0.460314 c -0.2139549,-0.03855 -0.4263684,-0.0902 -0.632932,-0.152067 z m 2.9447754,0.02877 0.1232979,0.450045 c -0.1036038,0.02862 -0.208124,0.05494 -0.3144107,0.07809 -0.1062899,0.02315 -0.2123788,0.04244 -0.3185203,0.05959 l -0.07398,-0.460314 c 0.097657,-0.01578 0.1959696,-0.03618 0.2938612,-0.05754 0.097874,-0.02136 0.1944061,-0.04357 0.2897519,-0.06987 z m -1.7734414,0.182895 c 0.1969386,0.01262 0.3955943,0.01464 0.5959418,0.0041 l 0.022604,0.468531 c -0.218012,0.01084 -0.434974,0.0078 -0.6493708,-0.0062 z m -1.9707187,0.01438 c 0.1988755,0.08678 0.4025531,0.161873 0.6103267,0.226054 L 6.1525881,13.99441 C 5.9281349,13.925042 5.7077313,13.843606 5.492942,13.74986 Z m 4.4428528,0.08015 0.170563,0.435651 c -0.108539,0.04264 -0.218815,0.08226 -0.3308536,0.119187 -0.112022,0.03693 -0.2244575,0.07039 -0.337015,0.100691 l -0.121243,-0.450035 c 0.1042782,-0.02799 0.2084975,-0.06034 0.3123548,-0.09454 0.1038499,-0.03424 0.2056798,-0.0715 0.3061938,-0.110959 z m 0.797327,0.152067 0.217825,0.415103 c -0.110969,0.05825 -0.225748,0.113947 -0.341126,0.166449 -0.115379,0.05254 -0.230578,0.100238 -0.347293,0.145901 l -0.170553,-0.435651 c 0.108729,-0.04237 0.217142,-0.0866 0.324682,-0.135632 0.107551,-0.04907 0.213144,-0.101985 0.316465,-0.15617 z m -3.9969221,0.150014 c 0.2125261,0.04051 0.4278477,0.07 0.6452621,0.08631 L 7.53353,14.257446 c 0.2277738,0.01723 0.4563105,0.02363 0.6863601,0.01643 l 0.01644,0.466479 c -0.2532294,0.0087 -0.5056813,0.0032 -0.7562298,-0.01645 l 0.03699,-0.466469 c 0.00545,4.21e-4 0.010987,-4.2e-4 0.01644,0 -0.235042,-0.01768 -0.4690161,-0.04882 -0.6986912,-0.09247 z m 1.9440048,0.03698 0.069869,0.462366 c -0.2339352,0.03546 -0.4679682,0.05734 -0.7007461,0.06576 l -0.018495,-0.466479 c 0.2152964,-0.0082 0.4329286,-0.02861 0.6493721,-0.06165 z m -2.7310584,0.250706 c 0.2239619,0.06978 0.4513969,0.128214 0.6822504,0.172625 l -0.086309,0.458252 C 6.4840888,14.575489 6.239005,14.513192 5.9984645,14.438279 Z m 3.4749582,0.07398 0.1191881,0.452097 c -0.2457781,0.06563 -0.4921181,0.117198 -0.7397901,0.154129 l -0.069869,-0.462376 c 0.2303631,-0.03432 0.4617826,-0.08282 0.690471,-0.14385 z"
     id="rect1045"
     class="ColorScheme-Text"/>
</svg>
