<?xml version="1.0" encoding="UTF-8" standalone="no"?>
<svg
   version="1.1"
   id="svg1"
   width="16"
   height="16"
   viewBox="0 0 16 16"
   xmlns:xlink="http://www.w3.org/1999/xlink"
   xmlns="http://www.w3.org/2000/svg"
   xmlns:svg="http://www.w3.org/2000/svg"
   xmlns:rdf="http://www.w3.org/1999/02/22-rdf-syntax-ns#"
   xmlns:cc="http://creativecommons.org/ns#"
   xmlns:dc="http://purl.org/dc/elements/1.1/">
  <defs>
   <style id="current-color-scheme" type="text/css">
   .ColorScheme-Text { color: #0abdc6; } .ColorScheme-Highlight { color:#5294e2; }
  </style>
  <linearGradient id="arrongin" x1="0%" x2="0%" y1="0%" y2="100%">
   <stop offset="0%" style="stop-color:#dd9b44; stop-opacity:1"/>
   <stop offset="100%" style="stop-color:#ad6c16; stop-opacity:1"/>
  </linearGradient>
  <linearGradient id="aurora" x1="0%" x2="0%" y1="0%" y2="100%">
   <stop offset="0%" style="stop-color:#09D4DF; stop-opacity:1"/>
   <stop offset="100%" style="stop-color:#9269F4; stop-opacity:1"/>
  </linearGradient>
  <linearGradient id="cyberneon" x1="0%" x2="0%" y1="0%" y2="100%">
    <stop offset="0" style="stop-color:#0abdc6; stop-opacity:1"/>
    <stop offset="1" style="stop-color:#ea00d9; stop-opacity:1"/>
  </linearGradient>
  <linearGradient id="fitdance" x1="0%" x2="0%" y1="0%" y2="100%">
   <stop offset="0%" style="stop-color:#1AD6AB; stop-opacity:1"/>
   <stop offset="100%" style="stop-color:#329DB6; stop-opacity:1"/>
  </linearGradient>
  <linearGradient id="oomox" x1="0%" x2="0%" y1="0%" y2="100%">
   <stop offset="0%" style="stop-color:#0abdc6; stop-opacity:1"/>
   <stop offset="100%" style="stop-color:#b800ff; stop-opacity:1"/>
  </linearGradient>
  <linearGradient id="rainblue" x1="0%" x2="0%" y1="0%" y2="100%">
   <stop offset="0%" style="stop-color:#00F260; stop-opacity:1"/>
   <stop offset="100%" style="stop-color:#0575E6; stop-opacity:1"/>
  </linearGradient>
  <linearGradient id="sunrise" x1="0%" x2="0%" y1="0%" y2="100%">
   <stop offset="0%" style="stop-color: #FF8501; stop-opacity:1"/>
   <stop offset="100%" style="stop-color: #FFCB01; stop-opacity:1"/>
  </linearGradient>
  <linearGradient id="telinkrin" x1="0%" x2="0%" y1="0%" y2="100%">
   <stop offset="0%" style="stop-color: #b2ced6; stop-opacity:1"/>
   <stop offset="100%" style="stop-color: #6da5b7; stop-opacity:1"/>
  </linearGradient>
  <linearGradient id="60spsycho" x1="0%" x2="0%" y1="0%" y2="100%">
   <stop offset="0%" style="stop-color: #df5940; stop-opacity:1"/>
   <stop offset="25%" style="stop-color: #d8d15f; stop-opacity:1"/>
   <stop offset="50%" style="stop-color: #e9882a; stop-opacity:1"/>
   <stop offset="100%" style="stop-color: #279362; stop-opacity:1"/>
  </linearGradient>
  <linearGradient id="90ssummer" x1="0%" x2="0%" y1="0%" y2="100%">
   <stop offset="0%" style="stop-color: #f618c7; stop-opacity:1"/>
   <stop offset="20%" style="stop-color: #94ffab; stop-opacity:1"/>
   <stop offset="50%" style="stop-color: #fbfd54; stop-opacity:1"/>
   <stop offset="100%" style="stop-color: #0f83ae; stop-opacity:1"/>
  </linearGradient>
 </defs>
   <metadata
     id="metadata2174">
    <rdf:RDF>
      <cc:Work
         rdf:about="">
        <dc:creator>
          <cc:Agent>
            <dc:title>dreifacherspass</dc:title>
          </cc:Agent>
        </dc:creator>
        <cc:license
           rdf:resource="http://creativecommons.org/licenses/by-sa/4.0/" />
      </cc:Work>
      <cc:License
         rdf:about="http://creativecommons.org/licenses/by-sa/4.0/">
        <cc:permits
           rdf:resource="http://creativecommons.org/ns#Reproduction" />
        <cc:permits
           rdf:resource="http://creativecommons.org/ns#Distribution" />
        <cc:requires
           rdf:resource="http://creativecommons.org/ns#Notice" />
        <cc:requires
           rdf:resource="http://creativecommons.org/ns#Attribution" />
        <cc:permits
           rdf:resource="http://creativecommons.org/ns#DerivativeWorks" />
        <cc:requires
           rdf:resource="http://creativecommons.org/ns#ShareAlike" />
      </cc:License>
    </rdf:RDF>
  </metadata>
  <path
     id="path9610"
     class="ColorScheme-Text"
     d="M 0.264701,1.55e-6 -1e-6,0.91404255 C 2.353422,1.6089985 3.523383,2.5852045 4.266543,3.7355315 c 0.477276,0.738773 0.772316,1.578044 1.047137,2.474231 -0.393563,0.289512 -0.652847,0.75602 -0.652847,1.2830054 0,0.8739726 0.706043,1.5862353 1.571624,1.5862353 0.0083,0 0.01631,-9.524e-4 0.02457,-0.00127 0.442437,1.0811728 1.065195,2.1771288 2.1041003,3.2003788 1.4675887,1.445477 3.7302557,2.730882 7.3932107,3.721886 l 0.245663,-0.92086 C 12.439849,14.115949 10.338128,12.897189 9.0176602,11.596611 8.1029623,10.695686 7.5522757,9.7484707 7.149395,8.7744997 7.5439051,8.4857694 7.8040857,8.0204768 7.8040857,7.4927361 c 0,-0.8739596 -0.7060427,-1.5893376 -1.5716267,-1.5893376 -0.007,0 -0.01385,0.0013 -0.02088,0.0013 C 5.930494,4.9826635 5.607663,4.0696235 5.055738,3.2152875 4.19253,1.8791435 2.770986,0.74011655 0.264703,2.855e-5 Z m 9.972057,2.08542405 0.947029,0.9586869 -2.1311244,2.154256 0.9402751,0.953725 0.2947953,-0.2976519 1.835713,-1.858462 0.947029,0.958067 V 2.0854256 Z M 6.232457,6.5384215 c 0.528059,0 0.942117,0.421196 0.942117,0.9543464 0,0.5331763 -0.414058,0.9512448 -0.942117,0.9512448 -0.528059,0 -0.944571,-0.4180684 -0.944571,-0.9512448 0,-0.5331504 0.416512,-0.9543464 0.944571,-0.9543464 z M 3.213265,11.155128 2.91847,11.452779 1.082757,13.311242 0.135727,12.353174 v 2.868621 H 2.969445 L 2.022416,14.263109 4.15354,12.108852 Z"
     style="opacity:1;stroke-width:0.315968;fill:url(#oomox)" />
  <path
     id="path1"
     class="ColorScheme-Text"
     d="m 0.128973,0.06697455 -0.06326,0.218897 c 0,0 0.274404,0.06038 0.958696,0.321835 0.554243,0.211811 1.195541,0.66221595 1.679105,1.27184195 0.508519,0.64109 0.750937,1.328137 0.828495,2.035815 0.07167,0.653774 0.0025,1.340555 -0.04237,1.971326 -0.06002,0.832368 -0.07934,1.6005635 0.08967,2.1474334 0.01189,0.037918 0.02483,0.076901 0.03992,0.1178193 0.1938,0.5256041 0.737956,1.4585705 1.567325,2.3874158 0.67978,0.761294 1.502716,1.46741 2.5346242,2.085424 1.0745256,0.64355 2.2257796,1.104347 3.4337478,1.500041 1.080386,0.3539 2.147007,0.633861 2.925228,0.896058 1.212185,0.408401 1.691385,0.510348 1.691385,0.510348 l 0.144328,-0.543834 c 0,0 -0.471622,-0.101021 -1.658836,-0.501049 C 13.481866,14.225184 12.533268,13.738673 11.681258,13.089243 10.728371,12.362918 10.031202,11.542859 9.5900561,10.690045 9.1770506,9.8916358 9.0326121,9.1557958 8.9648454,8.5128456 8.8778504,7.687437 8.8941544,6.9784855 8.7769124,6.5049355 8.7685924,6.4704955 8.7591394,6.4372755 8.7492754,6.4057155 8.6311404,6.0234735 8.1865581,5.2718195 7.5940468,4.4715975 7.098505,3.8023335 6.483919,3.0858705 5.721484,2.4729895 4.917072,1.8263695 4.104331,1.4168035 3.240294,1.0969715 2.43103,0.79740855 1.654611,0.60532955 1.104257,0.39500855 0.407186,0.12861355 0.128978,0.06697255 0.128978,0.06697255 Z M 6.19438,6.2860375 A 1.3113232,1.2247287 0 0 1 7.5056033,7.5107509 1.3113232,1.2247287 0 0 1 6.19438,8.7354638 1.3113232,1.2247287 0 0 1 4.882544,7.5107509 1.3113232,1.2247287 0 0 1 6.19438,6.2860375 Z"
     style="opacity:0.4;stroke-width:0.315968;fill:url(#oomox)" />
</svg>
