<?xml version="1.0" encoding="UTF-8" standalone="no"?>
<svg
   viewBox="0 0 16 16"
   width="16"
   height="16"
   version="1.1"
   id="svg2"
   xmlns="http://www.w3.org/2000/svg"
   xmlns:svg="http://www.w3.org/2000/svg"
   xmlns:rdf="http://www.w3.org/1999/02/22-rdf-syntax-ns#"
   xmlns:cc="http://creativecommons.org/ns#"
   xmlns:dc="http://purl.org/dc/elements/1.1/">
   id="defs24">
      <defs>
         <style id="current-color-scheme" type="text/css">
            .ColorScheme-Text { color: #0abdc6; } .ColorScheme-Highlight { color:#5294e2; }
         </style>
         <linearGradient id="arrongin" x1="0%" x2="0%" y1="0%" y2="100%">
            <stop offset="0%" style="stop-color:#dd9b44; stop-opacity:1"/>
            <stop offset="100%" style="stop-color:#ad6c16; stop-opacity:1"/>
         </linearGradient>
         <linearGradient id="aurora" x1="0%" x2="0%" y1="0%" y2="100%">
            <stop offset="0%" style="stop-color:#09D4DF; stop-opacity:1"/>
            <stop offset="100%" style="stop-color:#9269F4; stop-opacity:1"/>
         </linearGradient>
         <linearGradient id="cyberneon" x1="0%" x2="0%" y1="0%" y2="100%">
            <stop offset="0" style="stop-color:#0abdc6; stop-opacity:1"/>
            <stop offset="1" style="stop-color:#ea00d9; stop-opacity:1"/>
         </linearGradient>
         <linearGradient id="fitdance" x1="0%" x2="0%" y1="0%" y2="100%">
            <stop offset="0%" style="stop-color:#1AD6AB; stop-opacity:1"/>
            <stop offset="100%" style="stop-color:#329DB6; stop-opacity:1"/>
         </linearGradient>
         <linearGradient id="oomox" x1="0%" x2="0%" y1="0%" y2="100%">
            <stop offset="0%" style="stop-color:#0abdc6; stop-opacity:1"/>
            <stop offset="100%" style="stop-color:#b800ff; stop-opacity:1"/>
         </linearGradient>
         <linearGradient id="rainblue" x1="0%" x2="0%" y1="0%" y2="100%">
            <stop offset="0%" style="stop-color:#00F260; stop-opacity:1"/>
            <stop offset="100%" style="stop-color:#0575E6; stop-opacity:1"/>
         </linearGradient>
         <linearGradient id="sunrise" x1="0%" x2="0%" y1="0%" y2="100%">
            <stop offset="0%" style="stop-color: #FF8501; stop-opacity:1"/>
            <stop offset="100%" style="stop-color: #FFCB01; stop-opacity:1"/>
         </linearGradient>
         <linearGradient id="telinkrin" x1="0%" x2="0%" y1="0%" y2="100%">
            <stop offset="0%" style="stop-color: #b2ced6; stop-opacity:1"/>
            <stop offset="100%" style="stop-color: #6da5b7; stop-opacity:1"/>
         </linearGradient>
         <linearGradient id="60spsycho" x1="0%" x2="0%" y1="0%" y2="100%">
            <stop offset="0%" style="stop-color: #df5940; stop-opacity:1"/>
            <stop offset="25%" style="stop-color: #d8d15f; stop-opacity:1"/>
            <stop offset="50%" style="stop-color: #e9882a; stop-opacity:1"/>
            <stop offset="100%" style="stop-color: #279362; stop-opacity:1"/>
         </linearGradient>
         <linearGradient id="90ssummer" x1="0%" x2="0%" y1="0%" y2="100%">
            <stop offset="0%" style="stop-color: #f618c7; stop-opacity:1"/>
            <stop offset="20%" style="stop-color: #94ffab; stop-opacity:1"/>
            <stop offset="50%" style="stop-color: #fbfd54; stop-opacity:1"/>
            <stop offset="100%" style="stop-color: #0f83ae; stop-opacity:1"/>
         </linearGradient>
      </defs>

  <path
   id="path26"
   class="ColorScheme-Text"
   style="fill:url(#oomox);fill-opacity:1;stroke:none"
   d="M 7 5 C 5.3431492 5 4 6.3431494 4 8 C 4.00056 8.524483 4.1386134 9.0396576 4.4003906 9.4941406 L 7 6.8945312 L 7 5 z M 8 5 L 8 5.8945312 L 8.5117188 5.3828125 L 8 5 z M 10.917969 7.1894531 L 8 10.107422 L 8 11 L 12 8 L 10.917969 7.1894531 z " />
<path
   id="path24"
   class="ColorScheme-Text"
   style="fill:url(#oomox);fill-opacity:1;stroke:none"
   d="M 8 0 A 8 8 0 0 0 0 8 A 8 8 0 0 0 1.3945312 12.5 L 2.1171875 11.777344 A 7 7 0 0 1 1 8 A 7 7 0 0 1 8 1 A 7 7 0 0 1 11.773438 2.1210938 L 12.494141 1.4003906 A 8 8 0 0 0 8 0 z M 14.611328 3.4960938 L 13.890625 4.2167969 A 7 7 0 0 1 13.890625 4.21875 A 7 7 0 0 1 15 8 A 7 7 0 0 1 8 15 A 7 7 0 0 1 4.2226562 13.884766 L 3.5019531 14.605469 A 8 8 0 0 0 8 16 A 8 8 0 0 0 16 8 A 8 8 0 0 0 14.611328 3.4960938 z " />
<path
   style="fill:url(#oomox);fill-opacity:1;stroke:none"
   d="M 15.292969,0 0,15.292969 0.7070312,16 16,0.7070312 Z"
   id="path3"
   class="ColorScheme-Text" />
<metadata
   id="metadata2">
  <rdf:RDF>
    <cc:Work
       rdf:about="">
      <dc:creator>
        <cc:Agent>
          <dc:title>dreifacherspass</dc:title>
        </cc:Agent>
      </dc:creator>
      <cc:license
         rdf:resource="http://creativecommons.org/licenses/by-sa/4.0/" />
    </cc:Work>
    <cc:License
       rdf:about="http://creativecommons.org/licenses/by-sa/4.0/">
      <cc:permits
         rdf:resource="http://creativecommons.org/ns#Reproduction" />
      <cc:permits
         rdf:resource="http://creativecommons.org/ns#Distribution" />
      <cc:requires
         rdf:resource="http://creativecommons.org/ns#Notice" />
      <cc:requires
         rdf:resource="http://creativecommons.org/ns#Attribution" />
      <cc:permits
         rdf:resource="http://creativecommons.org/ns#DerivativeWorks" />
      <cc:requires
         rdf:resource="http://creativecommons.org/ns#ShareAlike" />
    </cc:License>
  </rdf:RDF>
</metadata>
</svg>
