<?xml version="1.0" encoding="UTF-8" standalone="no"?>
<svg
   viewBox="0 0 16 16"
   width="16"
   height="16"
   version="1.1"
   id="svg3"
   xmlns="http://www.w3.org/2000/svg"
   xmlns:svg="http://www.w3.org/2000/svg"
   xmlns:rdf="http://www.w3.org/1999/02/22-rdf-syntax-ns#"
   xmlns:cc="http://creativecommons.org/ns#"
   xmlns:dc="http://purl.org/dc/elements/1.1/">
   <defs>
      <style id="current-color-scheme" type="text/css">
         .ColorScheme-Text { color: #0abdc6; } .ColorScheme-Highlight { color:#5294e2; }
      </style>
      <linearGradient id="arrongin" x1="0%" x2="0%" y1="0%" y2="100%">
         <stop offset="0%" style="stop-color:#dd9b44; stop-opacity:1"/>
         <stop offset="100%" style="stop-color:#ad6c16; stop-opacity:1"/>
      </linearGradient>
      <linearGradient id="aurora" x1="0%" x2="0%" y1="0%" y2="100%">
         <stop offset="0%" style="stop-color:#09D4DF; stop-opacity:1"/>
         <stop offset="100%" style="stop-color:#9269F4; stop-opacity:1"/>
      </linearGradient>
      <linearGradient id="cyberneon" x1="0%" x2="0%" y1="0%" y2="100%">
         <stop offset="0" style="stop-color:#0abdc6; stop-opacity:1"/>
         <stop offset="1" style="stop-color:#ea00d9; stop-opacity:1"/>
      </linearGradient>
      <linearGradient id="fitdance" x1="0%" x2="0%" y1="0%" y2="100%">
         <stop offset="0%" style="stop-color:#1AD6AB; stop-opacity:1"/>
         <stop offset="100%" style="stop-color:#329DB6; stop-opacity:1"/>
      </linearGradient>
      <linearGradient id="oomox" x1="0%" x2="0%" y1="0%" y2="100%">
         <stop offset="0%" style="stop-color:#0abdc6; stop-opacity:1"/>
         <stop offset="100%" style="stop-color:#b800ff; stop-opacity:1"/>
      </linearGradient>
      <linearGradient id="rainblue" x1="0%" x2="0%" y1="0%" y2="100%">
         <stop offset="0%" style="stop-color:#00F260; stop-opacity:1"/>
         <stop offset="100%" style="stop-color:#0575E6; stop-opacity:1"/>
      </linearGradient>
      <linearGradient id="sunrise" x1="0%" x2="0%" y1="0%" y2="100%">
         <stop offset="0%" style="stop-color: #FF8501; stop-opacity:1"/>
         <stop offset="100%" style="stop-color: #FFCB01; stop-opacity:1"/>
      </linearGradient>
      <linearGradient id="telinkrin" x1="0%" x2="0%" y1="0%" y2="100%">
         <stop offset="0%" style="stop-color: #b2ced6; stop-opacity:1"/>
         <stop offset="100%" style="stop-color: #6da5b7; stop-opacity:1"/>
      </linearGradient>
      <linearGradient id="60spsycho" x1="0%" x2="0%" y1="0%" y2="100%">
         <stop offset="0%" style="stop-color: #df5940; stop-opacity:1"/>
         <stop offset="25%" style="stop-color: #d8d15f; stop-opacity:1"/>
         <stop offset="50%" style="stop-color: #e9882a; stop-opacity:1"/>
         <stop offset="100%" style="stop-color: #279362; stop-opacity:1"/>
      </linearGradient>
      <linearGradient id="90ssummer" x1="0%" x2="0%" y1="0%" y2="100%">
         <stop offset="0%" style="stop-color: #f618c7; stop-opacity:1"/>
         <stop offset="20%" style="stop-color: #94ffab; stop-opacity:1"/>
         <stop offset="50%" style="stop-color: #fbfd54; stop-opacity:1"/>
         <stop offset="100%" style="stop-color: #0f83ae; stop-opacity:1"/>
      </linearGradient>
   </defs>
  <path
     id="path25"
     class="ColorScheme-Text"
     style="fill:url(#oomox);-inkscape-stroke:none"
     d="M 6.0239545 4.9941406 L 6.0239545 8.9941397 L 5.0224896 8.9941397 L 5.0224896 6.9951172 L 4.0229807 6.9951172 L 4.0229807 8.9941397 L 3.0234718 8.9941397 L 3.0234718 9.994628 L 19.023438 9.994628 L 19.023438 8.9941397 L 18.999966 8.9941397 L 18.999966 6.9990253 L 18.000457 6.9990253 L 18.000457 8.9941397 L 17.022464 8.9941397 L 17.022464 4.9941406 L 16.022955 4.9941406 L 16.022955 8.9941397 L 15.023446 8.9941397 L 15.023446 6.9951172 L 14.023938 6.9951172 L 14.023938 8.9941397 L 13.022473 8.9941397 L 13.022473 6.9951172 L 12.022964 6.9951172 L 12.022964 8.9941397 L 11.023455 8.9941397 L 11.023455 6.9951172 L 10.023946 6.9951172 L 10.023946 8.9941397 L 9.0224811 8.9941397 L 9.0224811 6.9951172 L 8.0229722 6.9951172 L 8.0229722 8.9941397 L 7.0234634 8.9941397 L 7.0234634 4.9941406 L 6.0239545 4.9941406 z M 9.2063438 10.438204 L 8.6762716 10.969713 L 7.4381324 12.206645 L 9.2298157 14.000489 L 7.4381324 15.792379 L 9.2063438 17.562775 L 10.999983 15.76893 L 12.793622 17.562775 L 14.561834 15.792379 L 12.77015 14.000489 L 14.561834 12.206645 L 12.793622 10.438204 L 10.999983 12.230094 L 9.2063438 10.438204 z M 3 10.999024 L 3 17 L 3.9995089 17 L 3.9995089 14.000489 L 3.9995089 10.999024 L 3 10.999024 z M 3.9995089 14.000489 L 6.9999915 17 L 6.9999915 10.999024 L 3.9995089 14.000489 z M 14.999975 10.999024 L 14.999975 17 L 18.000457 14.000489 L 14.999975 10.999024 z M 18.000457 14.000489 L 18.000457 17 L 18.999966 17 L 18.999966 10.999024 L 18.000457 10.999024 L 18.000457 14.000489 z "
     transform="matrix(0.99853727,0,0,0.99951195,-2.9956118,-2.9917032)" />
  <metadata
     id="metadata3">
    <rdf:RDF>
      <cc:Work
         rdf:about="">
        <dc:creator>
          <cc:Agent>
            <dc:title>dreifacherspass</dc:title>
          </cc:Agent>
        </dc:creator>
        <cc:license
           rdf:resource="http://creativecommons.org/licenses/by-sa/4.0/" />
      </cc:Work>
      <cc:License
         rdf:about="http://creativecommons.org/licenses/by-sa/4.0/">
        <cc:permits
           rdf:resource="http://creativecommons.org/ns#Reproduction" />
        <cc:permits
           rdf:resource="http://creativecommons.org/ns#Distribution" />
        <cc:requires
           rdf:resource="http://creativecommons.org/ns#Notice" />
        <cc:requires
           rdf:resource="http://creativecommons.org/ns#Attribution" />
        <cc:permits
           rdf:resource="http://creativecommons.org/ns#DerivativeWorks" />
        <cc:requires
           rdf:resource="http://creativecommons.org/ns#ShareAlike" />
      </cc:License>
    </rdf:RDF>
  </metadata>
</svg>
