<?xml version="1.0" encoding="UTF-8" standalone="no"?>
<svg
   viewBox="0 0 16 16"
   height="16"
   width="16"
   id="svg1"
   version="1.1"
   xmlns:xlink="http://www.w3.org/1999/xlink"
   xmlns="http://www.w3.org/2000/svg"
   xmlns:svg="http://www.w3.org/2000/svg"
   xmlns:rdf="http://www.w3.org/1999/02/22-rdf-syntax-ns#"
   xmlns:cc="http://creativecommons.org/ns#"
   xmlns:dc="http://purl.org/dc/elements/1.1/">
  <defs>
   <style id="current-color-scheme" type="text/css">
   .ColorScheme-Text { color: #0abdc6; } .ColorScheme-Highlight { color:#5294e2; }
  </style>
  <linearGradient id="arrongin" x1="0%" x2="0%" y1="0%" y2="100%">
   <stop offset="0%" style="stop-color:#dd9b44; stop-opacity:1"/>
   <stop offset="100%" style="stop-color:#ad6c16; stop-opacity:1"/>
  </linearGradient>
  <linearGradient id="aurora" x1="0%" x2="0%" y1="0%" y2="100%">
   <stop offset="0%" style="stop-color:#09D4DF; stop-opacity:1"/>
   <stop offset="100%" style="stop-color:#9269F4; stop-opacity:1"/>
  </linearGradient>
  <linearGradient id="cyberneon" x1="0%" x2="0%" y1="0%" y2="100%">
    <stop offset="0" style="stop-color:#0abdc6; stop-opacity:1"/>
    <stop offset="1" style="stop-color:#ea00d9; stop-opacity:1"/>
  </linearGradient>
  <linearGradient id="fitdance" x1="0%" x2="0%" y1="0%" y2="100%">
   <stop offset="0%" style="stop-color:#1AD6AB; stop-opacity:1"/>
   <stop offset="100%" style="stop-color:#329DB6; stop-opacity:1"/>
  </linearGradient>
  <linearGradient id="oomox" x1="0%" x2="0%" y1="0%" y2="100%">
   <stop offset="0%" style="stop-color:#0abdc6; stop-opacity:1"/>
   <stop offset="100%" style="stop-color:#b800ff; stop-opacity:1"/>
  </linearGradient>
  <linearGradient id="rainblue" x1="0%" x2="0%" y1="0%" y2="100%">
   <stop offset="0%" style="stop-color:#00F260; stop-opacity:1"/>
   <stop offset="100%" style="stop-color:#0575E6; stop-opacity:1"/>
  </linearGradient>
  <linearGradient id="sunrise" x1="0%" x2="0%" y1="0%" y2="100%">
   <stop offset="0%" style="stop-color: #FF8501; stop-opacity:1"/>
   <stop offset="100%" style="stop-color: #FFCB01; stop-opacity:1"/>
  </linearGradient>
  <linearGradient id="telinkrin" x1="0%" x2="0%" y1="0%" y2="100%">
   <stop offset="0%" style="stop-color: #b2ced6; stop-opacity:1"/>
   <stop offset="100%" style="stop-color: #6da5b7; stop-opacity:1"/>
  </linearGradient>
  <linearGradient id="60spsycho" x1="0%" x2="0%" y1="0%" y2="100%">
   <stop offset="0%" style="stop-color: #df5940; stop-opacity:1"/>
   <stop offset="25%" style="stop-color: #d8d15f; stop-opacity:1"/>
   <stop offset="50%" style="stop-color: #e9882a; stop-opacity:1"/>
   <stop offset="100%" style="stop-color: #279362; stop-opacity:1"/>
  </linearGradient>
  <linearGradient id="90ssummer" x1="0%" x2="0%" y1="0%" y2="100%">
   <stop offset="0%" style="stop-color: #f618c7; stop-opacity:1"/>
   <stop offset="20%" style="stop-color: #94ffab; stop-opacity:1"/>
   <stop offset="50%" style="stop-color: #fbfd54; stop-opacity:1"/>
   <stop offset="100%" style="stop-color: #0f83ae; stop-opacity:1"/>
  </linearGradient>
 </defs>
 <metadata
     id="metadata24">
    <rdf:RDF>
      <cc:Work
         rdf:about="">
        <dc:creator>
          <cc:Agent>
            <dc:title>dreifacherspass</dc:title>
          </cc:Agent>
        </dc:creator>
        <cc:license
           rdf:resource="http://creativecommons.org/licenses/by-sa/4.0/" />
      </cc:Work>
      <cc:License
         rdf:about="http://creativecommons.org/licenses/by-sa/4.0/">
        <cc:permits
           rdf:resource="http://creativecommons.org/ns#Reproduction" />
        <cc:permits
           rdf:resource="http://creativecommons.org/ns#Distribution" />
        <cc:requires
           rdf:resource="http://creativecommons.org/ns#Notice" />
        <cc:requires
           rdf:resource="http://creativecommons.org/ns#Attribution" />
        <cc:permits
           rdf:resource="http://creativecommons.org/ns#DerivativeWorks" />
        <cc:requires
           rdf:resource="http://creativecommons.org/ns#ShareAlike" />
      </cc:License>
    </rdf:RDF>
  </metadata>
  <path
     id="path1441"
     class="ColorScheme-Text"
     style="opacity:1;stroke-width:1.22894;fill:url(#oomox)"
     d="M 3.5292969 0.52539062 C 3.3694475 0.52064523 3.2120424 0.52322714 3.0585938 0.53125 C 2.0356026 0.58473599 1.1661988 0.92763808 0.59765625 1.6425781 C -0.29611285 2.7664893 -0.11893061 4.4066491 0.67382812 6.0800781 A 1.8434136 1.8434136 0 0 0 0.16796875 7.3496094 A 1.8434136 1.8434136 0 0 0 2.0117188 9.1933594 A 1.8434136 1.8434136 0 0 0 2.7050781 9.0566406 C 3.3775056 9.8182955 4.1416975 10.567943 5.0214844 11.267578 C 6.1806595 12.18939 7.376019 12.907028 8.5410156 13.449219 A 1.8434136 1.8434136 0 0 0 8.53125 13.632812 A 1.8434136 1.8434136 0 0 0 10.375 15.476562 A 1.8434136 1.8434136 0 0 0 12.013672 14.476562 C 13.42807 14.613889 14.666635 14.330395 15.398438 13.410156 C 16.308107 12.266253 16.116397 10.587084 15.287109 8.8828125 C 14.642165 7.5573764 13.582594 6.1692561 12.212891 4.8730469 A 1.8434136 1.8434136 0 0 0 12.369141 4.1308594 A 1.8434136 1.8434136 0 0 0 10.525391 2.2871094 A 1.8434136 1.8434136 0 0 0 9.4042969 2.6699219 C 7.907275 1.7082799 6.4005007 1.0444467 5.0332031 0.73046875 C 4.5136649 0.61116508 4.0088449 0.53962681 3.5292969 0.52539062 z M 3.2675781 1.5097656 C 3.3926039 1.5072669 3.522488 1.509996 3.65625 1.5175781 C 4.0129486 1.5377971 4.3981155 1.5942962 4.8125 1.6894531 C 6.0208473 1.9669307 7.4122832 2.5730683 8.8085938 3.4589844 A 1.8434136 1.8434136 0 0 0 8.6816406 4.1308594 A 1.8434136 1.8434136 0 0 0 10.525391 5.9746094 A 1.8434136 1.8434136 0 0 0 11.587891 5.6367188 C 12.859006 6.8520998 13.831129 8.1385937 14.402344 9.3125 C 15.146466 10.841747 15.190879 12.09165 14.626953 12.800781 C 14.188537 13.352089 13.343415 13.605742 12.212891 13.517578 A 1.8434136 1.8434136 0 0 0 10.375 11.791016 A 1.8434136 1.8434136 0 0 0 8.8984375 12.529297 C 7.828911 12.024474 6.7177215 11.355742 5.6367188 10.496094 C 4.8197907 9.846448 4.1112973 9.1531399 3.4882812 8.453125 A 1.8434136 1.8434136 0 0 0 3.8554688 7.3496094 A 1.8434136 1.8434136 0 0 0 2.0117188 5.5058594 A 1.8434136 1.8434136 0 0 0 1.5273438 5.5742188 C 0.86247702 4.1240857 0.82273166 2.9361013 1.3652344 2.2539062 C 1.7353095 1.7885383 2.3923977 1.5272569 3.2675781 1.5097656 z M 10.558594 3.1074219 A 1.0653092 1.0653092 0 0 1 11.623047 4.171875 A 1.0653092 1.0653092 0 0 1 10.558594 5.2363281 A 1.0653092 1.0653092 0 0 1 9.4921875 4.171875 A 1.0653092 1.0653092 0 0 1 10.558594 3.1074219 z M 2.0175781 6.2734375 A 1.0653092 1.0653092 0 0 1 3.0820312 7.3378906 A 1.0653092 1.0653092 0 0 1 2.0175781 8.4042969 A 1.0653092 1.0653092 0 0 1 0.95117188 7.3378906 A 1.0653092 1.0653092 0 0 1 2.0175781 6.2734375 z M 10.398438 12.638672 A 1.0653092 1.0653092 0 0 1 11.462891 13.705078 A 1.0653092 1.0653092 0 0 1 10.398438 14.769531 A 1.0653092 1.0653092 0 0 1 9.3320312 13.705078 A 1.0653092 1.0653092 0 0 1 10.398438 12.638672 z " />
  <path
     style="stroke-width:1.22894;fill:url(#oomox)"
     d="m 10.398438,12.638672 a 1.0653092,1.0653092 0 0 0 -1.0664068,1.066406 1.0653092,1.0653092 0 0 0 1.0664068,1.064453 1.0653092,1.0653092 0 0 0 1.064453,-1.064453 1.0653092,1.0653092 0 0 0 -1.064453,-1.066406 z"
     id="path2"
     class="ColorScheme-Text"/>
  <path
     style="stroke-width:1.22894;fill:url(#oomox)"
     d="M 2.0175781,6.2734375 A 1.0653092,1.0653092 0 0 0 0.95117188,7.3378906 1.0653092,1.0653092 0 0 0 2.0175781,8.4042969 1.0653092,1.0653092 0 0 0 3.0820312,7.3378906 1.0653092,1.0653092 0 0 0 2.0175781,6.2734375 Z"
     id="path1"
     class="ColorScheme-Text"/>
  <path
     style="stroke-width:1.22894;fill:url(#oomox)"
     d="M 10.558594,3.1074219 A 1.0653092,1.0653092 0 0 0 9.4921875,4.171875 1.0653092,1.0653092 0 0 0 10.558594,5.2363281 1.0653092,1.0653092 0 0 0 11.623047,4.171875 1.0653092,1.0653092 0 0 0 10.558594,3.1074219 Z"
     id="path853"
     class="ColorScheme-Text"/>
</svg>
