<?xml version="1.0" encoding="UTF-8" standalone="no"?>
<svg
   viewBox="0 0 16 16"
   height="16"
   width="16"
   id="svg1"
   version="1.1"
   xmlns="http://www.w3.org/2000/svg"
   xmlns:svg="http://www.w3.org/2000/svg"
   xmlns:rdf="http://www.w3.org/1999/02/22-rdf-syntax-ns#"
   xmlns:cc="http://creativecommons.org/ns#"
   xmlns:dc="http://purl.org/dc/elements/1.1/">
  <defs>
   <style id="current-color-scheme" type="text/css">
   .ColorScheme-Text { color: #0abdc6; } .ColorScheme-Highlight { color:#5294e2; }
  </style>
  <linearGradient id="arrongin" x1="0%" x2="0%" y1="0%" y2="100%">
   <stop offset="0%" style="stop-color:#dd9b44; stop-opacity:1"/>
   <stop offset="100%" style="stop-color:#ad6c16; stop-opacity:1"/>
  </linearGradient>
  <linearGradient id="aurora" x1="0%" x2="0%" y1="0%" y2="100%">
   <stop offset="0%" style="stop-color:#09D4DF; stop-opacity:1"/>
   <stop offset="100%" style="stop-color:#9269F4; stop-opacity:1"/>
  </linearGradient>
  <linearGradient id="cyberneon" x1="0%" x2="0%" y1="0%" y2="100%">
    <stop offset="0" style="stop-color:#0abdc6; stop-opacity:1"/>
    <stop offset="1" style="stop-color:#ea00d9; stop-opacity:1"/>
  </linearGradient>
  <linearGradient id="fitdance" x1="0%" x2="0%" y1="0%" y2="100%">
   <stop offset="0%" style="stop-color:#1AD6AB; stop-opacity:1"/>
   <stop offset="100%" style="stop-color:#329DB6; stop-opacity:1"/>
  </linearGradient>
  <linearGradient id="oomox" x1="0%" x2="0%" y1="0%" y2="100%">
   <stop offset="0%" style="stop-color:#0abdc6; stop-opacity:1"/>
   <stop offset="100%" style="stop-color:#b800ff; stop-opacity:1"/>
  </linearGradient>
  <linearGradient id="rainblue" x1="0%" x2="0%" y1="0%" y2="100%">
   <stop offset="0%" style="stop-color:#00F260; stop-opacity:1"/>
   <stop offset="100%" style="stop-color:#0575E6; stop-opacity:1"/>
  </linearGradient>
  <linearGradient id="sunrise" x1="0%" x2="0%" y1="0%" y2="100%">
   <stop offset="0%" style="stop-color: #FF8501; stop-opacity:1"/>
   <stop offset="100%" style="stop-color: #FFCB01; stop-opacity:1"/>
  </linearGradient>
  <linearGradient id="telinkrin" x1="0%" x2="0%" y1="0%" y2="100%">
   <stop offset="0%" style="stop-color: #b2ced6; stop-opacity:1"/>
   <stop offset="100%" style="stop-color: #6da5b7; stop-opacity:1"/>
  </linearGradient>
  <linearGradient id="60spsycho" x1="0%" x2="0%" y1="0%" y2="100%">
   <stop offset="0%" style="stop-color: #df5940; stop-opacity:1"/>
   <stop offset="25%" style="stop-color: #d8d15f; stop-opacity:1"/>
   <stop offset="50%" style="stop-color: #e9882a; stop-opacity:1"/>
   <stop offset="100%" style="stop-color: #279362; stop-opacity:1"/>
  </linearGradient>
  <linearGradient id="90ssummer" x1="0%" x2="0%" y1="0%" y2="100%">
   <stop offset="0%" style="stop-color: #f618c7; stop-opacity:1"/>
   <stop offset="20%" style="stop-color: #94ffab; stop-opacity:1"/>
   <stop offset="50%" style="stop-color: #fbfd54; stop-opacity:1"/>
   <stop offset="100%" style="stop-color: #0f83ae; stop-opacity:1"/>
  </linearGradient>
 </defs>
  <metadata
     id="metadata8">
    <rdf:RDF>
      <cc:Work
         rdf:about="">
        <dc:creator>
          <cc:Agent>
            <dc:title>dreifacherspass</dc:title>
          </cc:Agent>
        </dc:creator>
        <cc:license
           rdf:resource="http://creativecommons.org/licenses/by-sa/4.0/" />
      </cc:Work>
      <cc:License
         rdf:about="http://creativecommons.org/licenses/by-sa/4.0/">
        <cc:permits
           rdf:resource="http://creativecommons.org/ns#Reproduction" />
        <cc:permits
           rdf:resource="http://creativecommons.org/ns#Distribution" />
        <cc:requires
           rdf:resource="http://creativecommons.org/ns#Notice" />
        <cc:requires
           rdf:resource="http://creativecommons.org/ns#Attribution" />
        <cc:permits
           rdf:resource="http://creativecommons.org/ns#DerivativeWorks" />
        <cc:requires
           rdf:resource="http://creativecommons.org/ns#ShareAlike" />
      </cc:License>
    </rdf:RDF>
  </metadata>
  <path
     d="M 7.6667696,0.00213947 V 0.07064357 0.7262505 C 7.1656616,0.7468511 6.8040035,1.0747422 6.6108435,1.480865 6.415269,1.8920709 6.3319627,2.3920005 6.2549423,2.9087494 6.1779221,3.4255091 6.1099468,3.9578057 5.9878828,4.4035322 5.8658221,4.8492559 5.6900294,5.1929385 5.4355695,5.3807853 5.1905435,5.5616828 4.8175578,5.6237257 4.3614435,5.6028895 3.9053426,5.5820533 3.3828531,5.4823879 2.8730836,5.3968426 2.3633248,5.3112864 1.8685905,5.2364414 1.4264701,5.2956922 0.98434969,5.35494 0.56478089,5.6097865 0.42138519,6.0925874 0.27587399,6.5824936 0.47867119,7.0356377 0.80939549,7.3486743 1.1401117,7.6617108 1.5896715,7.8965651 2.0574566,8.1295149 2.5252303,8.3624565 3.0123415,8.589641 3.3986393,8.8434572 c 0.3862895,0.2538189 0.6588539,0.5274237 0.7588974,0.8274017 0.095572,0.286544 0.034362,0.6611191 -0.1337968,1.0901801 -0.1681587,0.429061 -0.4340699,0.89661 -0.683436,1.357237 -0.2493743,0.460628 -0.4855192,0.911023 -0.5747911,1.351352 -0.044637,0.220161 -0.052101,0.442658 0.014449,0.657213 0.066551,0.214569 0.2124505,0.409021 0.4206594,0.552315 0.4167053,0.286763 0.9078417,0.229448 1.3085363,0.01013 0.4007028,-0.219279 0.7678495,-0.575982 1.1367392,-0.948888 0.3688897,-0.372921 0.7364912,-0.764099 1.0923212,-1.051647 0.30022,-0.242612 0.5844437,-0.399489 0.8386414,-0.443137 0.02471,0.02988 0.046744,0.0588 0.077602,0.09098 0.00356,0.0037 0.00867,0.008 0.012308,0.01177 v 0.548567 0.06904 h 0.7583624 v -0.04174 c 0.043306,0.02344 0.084891,0.05003 0.1295172,0.07011 0.1167473,0.05252 0.2511962,0.05109 0.3805188,0.06476 0.077766,0.24717 0.1769734,0.489507 0.3419862,0.685576 0.109293,0.12987 0.220318,0.241478 0.333422,0.325395 0.05656,0.04195 0.110829,0.07919 0.189992,0.105435 0.01049,0.0035 0.03353,-0.01295 0.04656,-0.01013 0.09126,0.06023 0.129422,0.106726 0.129516,0.107038 1.04e-4,3.65e-4 0.0028,0.0091 -0.01819,0.07492 -0.01052,0.03293 -0.02862,0.07653 -0.03425,0.154135 -0.0056,0.07762 0.02859,0.210752 0.1113171,0.286859 0.113397,0.104345 0.240041,0.08669 0.366069,0.09098 0.04835,0.08736 0.08966,0.180374 0.161629,0.248862 0.108429,0.103177 0.262155,0.179127 0.42494,0.181964 0.325566,0.0057 0.594442,-0.215058 0.871821,-0.57854 a 0.27404408,0.27404408 0 0 0 0.01819,-0.02837 c 0.168274,-0.289239 0.287496,-0.362328 0.392296,-0.561949 0.0524,-0.0998 0.06143,-0.290495 0,-0.404604 -0.03414,-0.06343 -0.0896,-0.107661 -0.135404,-0.155737 0.0166,-0.300446 0.112537,-0.553117 0.214612,-0.750338 0.05596,-0.108161 0.113668,-0.188361 0.141288,-0.336098 0.01382,-0.07388 0.01113,-0.19411 -0.06048,-0.291142 -0.03476,-0.04713 -0.07915,-0.04768 -0.121487,-0.07065 -0.210619,-0.521005 -0.520067,-0.915738 -0.841316,-1.120683 -0.175502,-0.111977 -0.34693,-0.183311 -0.503613,-0.218358 -0.07765,-0.01737 -0.154219,0.01716 -0.228527,0.01819 -0.01486,-0.146606 -0.0028,-0.466077 0.01819,-0.8434581 0.307888,-0.180775 0.568713,-0.376724 0.703772,-0.475783 0.08211,-0.06022 0.133236,-0.0848 0.173937,-0.09259 0.04069,-0.0078 0.0892,-0.0095 0.196415,0.03425 a 0.27404408,0.27404408 0 0 0 0.376238,-0.2467204 c 0.0041,-0.1839529 0.158233,-0.490918 0.349478,-0.7000279 0.09562,-0.1045597 0.199261,-0.1864794 0.269198,-0.2247787 0.03496,-0.019143 0.05373,-0.019825 0.05513,-0.020872 a 0.27404408,0.27404408 0 0 0 0.313086,-0.1081083 c 0.328767,-0.4944932 0.5338,-0.5214975 0.594595,-0.5202041 0.01284,2.741e-4 0.02059,0.00253 0.02355,0.00322 0.01091,0.010805 0.01954,0.022225 0.05726,0.037464 0.01135,0.00458 0.05023,0.013792 0.05084,0.013915 3.02e-4,6.3e-5 0.05007,0.00642 0.05031,0.00642 2.3e-4,1.09e-5 0.09082,-0.014399 0.09098,-0.014452 7.1e-5,-1.91e-5 0.06683,-0.032068 0.0669,-0.032109 6.1e-5,-4.38e-5 0.06686,-0.063092 0.0669,-0.063152 4.4e-5,-5.21e-5 0.04226,-0.082359 0.04229,-0.082419 0,0 -1.9e-5,-0.00204 0,-0.00215 0.02444,-0.014487 0.03628,-0.021486 0.06475,-0.038532 0.170883,-0.1022418 0.40531,-0.2479495 0.630989,-0.4147708 0.225689,-0.1668241 0.443327,-0.3452582 0.58282,-0.5705109 0.06975,-0.1126291 0.124461,-0.2478152 0.111319,-0.4046048 -0.0073,-0.087524 -0.08295,-0.1490651 -0.133797,-0.2242442 -0.0058,-0.081227 -0.01116,-0.1540907 -0.04227,-0.2306646 -0.03495,-0.086022 -0.13737,-0.201161 -0.262777,-0.2242443 -0.125409,-0.023097 -0.204444,0.018156 -0.259034,0.046027 -0.05458,0.027867 -0.09333,0.056015 -0.131654,0.081347 -0.07665,0.050674 -0.144357,0.087375 -0.177682,0.094727 -0.03333,0.00736 -0.02632,0.018077 -0.08509,-0.032109 -0.119907,-0.1443412 -0.172062,-0.2345911 -0.317903,-0.3136231 -0.03997,-0.021663 -0.0994,-0.04322 -0.171795,-0.040672 -0.07239,0.00256 -0.143311,0.035112 -0.184105,0.066899 -0.0816,0.063569 -0.09257,0.1046443 -0.111318,0.133797 -0.03747,0.058308 -0.0591,0.095771 -0.139151,0.1514571 -0.08005,0.055689 -0.221387,0.1242036 -0.483809,0.1659089 a 0.27404408,0.27404408 0 0 0 -0.04656,0.010171 c -0.76799,0.2644453 -1.176324,0.7729408 -1.419856,1.0254224 -0.09004,0.093333 -0.149432,0.1278533 -0.163768,0.1396856 -0.0039,-0.00249 -0.0041,-0.00174 -0.01231,-0.00803 -0.03249,-0.024878 -0.09004,-0.087351 -0.161628,-0.1862463 -8.28e-4,-0.00115 -0.0013,-9.921e-4 -0.0021,-0.00214 -0.089,-0.5690554 -0.0057,-0.5897381 -0.548063,-1.3593634 A 0.27404408,0.27404408 0 0 0 10.571239,5.2309338 c -0.210113,-0.020217 -0.252564,-0.064728 -0.266523,-0.082956 -0.01397,-0.018228 -0.0328,-0.07761 -0.03639,-0.2103269 C 10.261127,4.6721918 10.282455,4.1686259 9.8556949,3.7682629 9.6506219,3.4454602 9.4812119,3.2506181 9.3477979,3.1271049 9.2291439,3.0172544 9.1204416,2.8913329 8.985475,2.7064485 8.9907989,2.6485349 8.9925173,2.5920984 8.9838687,2.5448197 8.961169,2.4207092 8.9158117,2.3068964 8.8623841,2.1766097 8.7616332,1.9309428 8.6307764,1.6361474 8.5385913,1.3390395 8.5692785,1.253475 8.6074326,1.1794905 8.5931818,1.063954 8.5880983,1.0227337 8.5754225,0.966015 8.5284232,0.9060739 8.5028405,0.8734363 8.4650685,0.8472805 8.4251321,0.8274008 V 0.7605025 0.07064357 0.00213947 Z M 7.6876446,0.829541 h 0.4581195 c -0.012385,0.00781 -0.027804,0.015636 -0.037997,0.021944 -0.078638,0.048665 -0.1251843,0.095623 -0.1696549,0.1354023 -0.044471,0.03978 -0.1078691,0.073414 -0.048704,0.046561 l 0.1091788,0.240836 a 0.27404408,0.27404408 0 0 0 -0.00589,0.1680489 c 0.00766,0.02625 0.017044,0.050655 0.025152,0.07653 H 7.6667696 v 0.069041 0.689859 0.068504 h 0.6716635 c 0.0047,0.011283 0.011586,0.027631 0.016055,0.038532 0.045216,0.1102449 0.072401,0.1927954 0.082953,0.2386933 a 0.27404408,0.27404408 0 0 0 0.00803,0.2895369 c 0.2216927,0.337509 0.3938658,0.4890485 0.5298355,0.6149345 0.135983,0.1258832 0.2478779,0.2325552 0.4591943,0.5822854 a 0.27404408,0.27404408 0 0 0 0.04656,0.05887 c 0.26869,0.252057 0.230149,0.467256 0.238693,0.7824464 0.0043,0.1575842 0.01447,0.3536486 0.149854,0.5303702 0.09707,0.1267026 0.2848551,0.1653005 0.4650781,0.2119354 0.531612,0.7520716 0.353106,0.4458553 0.489698,1.2196949 a 0.27404408,0.27404408 0 0 0 0.04871,0.1134616 c 0.09127,0.1267107 0.175694,0.2252005 0.275085,0.3013114 0.09939,0.076108 0.224178,0.1289577 0.353761,0.1273739 0.259153,-0.00319 0.410121,-0.1678874 0.550174,-0.3130859 0.277867,-0.2880793 0.575279,-0.6665538 1.189725,-0.8825256 0.305256,-0.052406 0.523272,-0.1410117 0.677548,-0.2483276 0.08031,-0.055852 0.09822,-0.098336 0.145571,-0.1536 0.0387,0.038598 0.01898,0.020713 0.08081,0.092587 a 0.27404408,0.27404408 0 0 0 0.0305,0.028366 c 0.16878,0.1440998 0.393779,0.186608 0.560344,0.1498515 0.115961,-0.02559 0.179129,-0.074969 0.250467,-0.1193453 a 0.27404408,0.27404408 0 0 0 0.07492,0.082953 c 0.01154,0.00842 0.01124,0.00823 0.01391,0.010171 -3.94e-4,-0.00342 0.0022,0.016263 -0.02783,0.064758 -0.06412,0.1035426 -0.242592,0.2724138 -0.443134,0.4206567 -0.200546,0.1482348 -0.423524,0.285435 -0.588709,0.3842673 -0.07413,0.044355 -0.131087,0.076889 -0.178217,0.105431 -0.01677,-0.00146 -0.02198,-0.011914 -0.04014,-0.012308 -0.26699,-0.00569 -0.618119,0.228634 -0.969227,0.6957448 -0.09086,0.014128 -0.195245,-0.017715 -0.268662,0.022478 -0.146246,0.080079 -0.282921,0.1960726 -0.41049,0.3355635 -0.187744,0.2052768 -0.280073,0.493641 -0.362324,0.7765607 -0.08713,-0.01246 -0.177659,-0.049838 -0.259032,-0.034252 -0.158922,0.030427 -0.28662,0.1077289 -0.396576,0.1883858 C 10.911659,9.2113469 10.7238,9.4024919 10.360895,9.5798799 A 0.27404408,0.27404408 0 0 0 10.2073,9.8084069 c -0.03087,0.4816201 -0.04242,0.8246061 -0.01606,1.0719821 0.01319,0.123677 0.01689,0.225817 0.115068,0.350013 0.04908,0.0621 0.146625,0.126645 0.246721,0.133262 0.100095,0.0067 0.176213,-0.02978 0.230664,-0.06422 l -0.01013,0.008 c -0.06671,0.03807 -0.01298,0.0031 0.07118,0.02194 0.08416,0.01882 0.204342,0.06401 0.329679,0.143965 0.250679,0.159925 0.528799,0.450695 0.693602,0.938187 a 0.27404408,0.27404408 0 0 0 0.04067,0.07492 c -0.01571,0.03481 -0.01517,0.03661 -0.04442,0.09313 -0.117007,0.226082 -0.302648,0.596391 -0.297562,1.080008 a 0.27404408,0.27404408 0 0 0 0.08723,0.196415 c 0.06152,0.05725 0.06965,0.06885 0.08884,0.09098 -0.03346,0.03907 -0.153657,0.180369 -0.3179,0.453307 -0.23115,0.302897 -0.396883,0.362345 -0.428689,0.361787 -0.0159,-2.7e-4 -0.02257,-3.6e-5 -0.05458,-0.0305 -0.03203,-0.03047 -0.07833,-0.09586 -0.119347,-0.192132 a 0.27404408,0.27404408 0 0 0 -0.251006,-0.16591 c -0.09747,-4.95e-4 -0.05516,0.0126 -0.08242,0.0065 0.01783,-0.07686 0.04916,-0.142995 0.01606,-0.259029 -0.05017,-0.175845 -0.193313,-0.325761 -0.408885,-0.449024 a 0.27404408,0.27404408 0 0 0 -0.1514951,-0.03642 c -0.0044,-0.0029 -0.0016,-6.77e-4 -0.0064,-0.0042 -0.05827,-0.04329 -0.151618,-0.133368 -0.240301,-0.238744 -0.177376,-0.210768 -0.323931,-0.52415 -0.325928,-0.5764 a 0.27404408,0.27404408 0 0 0 -0.327536,-0.25903 c -0.033773,0.0066 -0.1361589,-0.0057 -0.2627792,-0.06261 C 8.6699037,12.444344 8.543596,12.364959 8.425141,12.278899 v -0.07117 -0.06904 H 8.2469143 c -0.076843,-0.06555 -0.1476833,-0.12947 -0.1980206,-0.181962 -0.038907,-0.04059 -0.066988,-0.07486 -0.078671,-0.09098 h -0.00215 c 0.00583,0.01211 0.04227,0.0346 0.014453,0.1536 l -0.2670543,-0.06209 v -0.273482 c -0.4881551,-6.3e-5 -0.9209511,0.255385 -1.3208459,0.578541 -0.3999074,0.323164 -0.7774291,0.726918 -1.1388812,1.092318 -0.3614556,0.365401 -0.7107173,0.689656 -1.0093681,0.85309 -0.2986508,0.163438 -0.4882374,0.189658 -0.7342797,0.02034 -0.1229101,-0.08458 -0.1774914,-0.16382 -0.2081869,-0.262778 -0.030698,-0.09896 -0.032446,-0.226397 0,-0.386406 0.064885,-0.320038 0.2726164,-0.746952 0.517527,-1.199357 C 4.0663604,11.927047 4.3438159,11.444292 4.5337753,10.959595 4.7237345,10.474898 4.8359608,9.9729219 4.6772064,9.4969239 4.5173123,9.0175097 4.1336918,8.6724657 3.698345,8.3864056 3.2629983,8.1003486 2.7613669,7.8666781 2.3025726,7.638214 1.8437893,7.4097471 1.429624,7.1814364 1.1856341,6.9504951 0.94164409,6.719543 0.85852659,6.5481565 0.94694089,6.2504675 1.0324122,5.9627227 1.1790001,5.880756 1.4992543,5.8378368 1.8195087,5.7949208 2.2836106,5.8529188 2.7837075,5.9368478 3.2837934,6.0207758 3.822154,6.1279195 4.3373601,6.1514576 4.8525581,6.1749986 5.3597685,6.1183616 5.7614988,5.8217826 6.168096,5.521608 6.3801436,5.0514473 6.5177194,4.5491034 6.6552858,4.0467487 6.7215493,3.4963808 6.7970897,2.9895624 6.8726282,2.4827356 6.9600204,2.0186117 7.1042872,1.7152779 7.248554,1.4119443 7.3888759,1.2800655 7.6994157,1.2721409 Z"
     style="opacity:1;stroke-width:1.11278;fill:url(#oomox)"
     id="path9609"
     class="ColorScheme-Text" />
  <path
     id="path1006"
     style="opacity:1;stroke-width:1.11278;fill:url(#oomox)"
     class="ColorScheme-Text"
     d="M 7.6660156 0 L 7.6660156 0.068359375 L 7.6660156 0.7578125 L 7.6660156 0.828125 L 8.4257812 0.828125 L 8.4257812 0.7578125 L 8.4257812 0.068359375 L 8.4257812 0 L 7.6660156 0 z M 7.6660156 1.5195312 L 7.6660156 1.5878906 L 7.6660156 2.2773438 L 7.6660156 2.3457031 L 8.4257812 2.3457031 L 8.4257812 2.2773438 L 8.4257812 1.5878906 L 8.4257812 1.5195312 L 7.6660156 1.5195312 z M 7.6660156 3.0351562 L 7.6660156 3.1054688 L 7.6660156 3.7949219 L 7.6660156 3.8632812 L 8.4257812 3.8632812 L 8.4257812 3.7949219 L 8.4257812 3.1054688 L 8.4257812 3.0351562 L 7.6660156 3.0351562 z M 7.6660156 4.5527344 L 7.6660156 4.6210938 L 7.6660156 5.3125 L 7.6660156 5.3808594 L 8.4257812 5.3808594 L 8.4257812 5.3125 L 8.4257812 4.6210938 L 8.4257812 4.5527344 L 7.6660156 4.5527344 z M 7.6660156 6.0703125 L 7.6660156 6.1386719 L 7.6660156 6.828125 L 7.6660156 6.8984375 L 8.4257812 6.8984375 L 8.4257812 6.828125 L 8.4257812 6.1386719 L 8.4257812 6.0703125 L 7.6660156 6.0703125 z M 7.6660156 7.5878906 L 7.6660156 7.65625 L 7.6660156 8.3457031 L 7.6660156 8.4140625 L 8.4257812 8.4140625 L 8.4257812 8.3457031 L 8.4257812 7.65625 L 8.4257812 7.5878906 L 7.6660156 7.5878906 z M 7.6660156 9.1054688 L 7.6660156 9.1738281 L 7.6660156 9.8632812 L 7.6660156 9.9316406 L 8.4257812 9.9316406 L 8.4257812 9.8632812 L 8.4257812 9.1738281 L 8.4257812 9.1054688 L 7.6660156 9.1054688 z M 7.6660156 10.621094 L 7.6660156 10.689453 L 7.6660156 11.380859 L 7.6660156 11.449219 L 8.4257812 11.449219 L 8.4257812 11.380859 L 8.4257812 10.689453 L 8.4257812 10.621094 L 7.6660156 10.621094 z M 7.6660156 13.65625 L 7.6660156 13.724609 L 7.6660156 14.414062 L 7.6660156 14.482422 L 8.4257812 14.482422 L 8.4257812 14.414062 L 8.4257812 13.724609 L 8.4257812 13.65625 L 7.6660156 13.65625 z M 7.6660156 15.171875 L 7.6660156 15.242188 L 7.6660156 15.931641 L 7.6660156 16 L 8.4257812 16 L 8.4257812 15.931641 L 8.4257812 15.242188 L 8.4257812 15.171875 L 7.6660156 15.171875 z " />
</svg>
