<?xml version="1.0" encoding="UTF-8" standalone="no"?>
<svg
   viewBox="0 0 16 16"
   height="16"
   width="16"
   id="svg1"
   version="1.1"
   xmlns:xlink="http://www.w3.org/1999/xlink"
   xmlns="http://www.w3.org/2000/svg"
   xmlns:svg="http://www.w3.org/2000/svg"
   xmlns:rdf="http://www.w3.org/1999/02/22-rdf-syntax-ns#"
   xmlns:cc="http://creativecommons.org/ns#"
   xmlns:dc="http://purl.org/dc/elements/1.1/">
 <defs>
   <style id="current-color-scheme" type="text/css">
   .ColorScheme-Text { color: #0abdc6; } .ColorScheme-Highlight { color:#5294e2; }
  </style>
  <linearGradient id="arrongin" x1="0%" x2="0%" y1="0%" y2="100%">
   <stop offset="0%" style="stop-color:#dd9b44; stop-opacity:1"/>
   <stop offset="100%" style="stop-color:#ad6c16; stop-opacity:1"/>
  </linearGradient>
  <linearGradient id="aurora" x1="0%" x2="0%" y1="0%" y2="100%">
   <stop offset="0%" style="stop-color:#09D4DF; stop-opacity:1"/>
   <stop offset="100%" style="stop-color:#9269F4; stop-opacity:1"/>
  </linearGradient>
  <linearGradient id="cyberneon" x1="0%" x2="0%" y1="0%" y2="100%">
    <stop offset="0" style="stop-color:#0abdc6; stop-opacity:1"/>
    <stop offset="1" style="stop-color:#ea00d9; stop-opacity:1"/>
  </linearGradient>
  <linearGradient id="fitdance" x1="0%" x2="0%" y1="0%" y2="100%">
   <stop offset="0%" style="stop-color:#1AD6AB; stop-opacity:1"/>
   <stop offset="100%" style="stop-color:#329DB6; stop-opacity:1"/>
  </linearGradient>
  <linearGradient id="oomox" x1="0%" x2="0%" y1="0%" y2="100%">
   <stop offset="0%" style="stop-color:#0abdc6; stop-opacity:1"/>
   <stop offset="100%" style="stop-color:#b800ff; stop-opacity:1"/>
  </linearGradient>
  <linearGradient id="rainblue" x1="0%" x2="0%" y1="0%" y2="100%">
   <stop offset="0%" style="stop-color:#00F260; stop-opacity:1"/>
   <stop offset="100%" style="stop-color:#0575E6; stop-opacity:1"/>
  </linearGradient>
  <linearGradient id="sunrise" x1="0%" x2="0%" y1="0%" y2="100%">
   <stop offset="0%" style="stop-color: #FF8501; stop-opacity:1"/>
   <stop offset="100%" style="stop-color: #FFCB01; stop-opacity:1"/>
  </linearGradient>
  <linearGradient id="telinkrin" x1="0%" x2="0%" y1="0%" y2="100%">
   <stop offset="0%" style="stop-color: #b2ced6; stop-opacity:1"/>
   <stop offset="100%" style="stop-color: #6da5b7; stop-opacity:1"/>
  </linearGradient>
  <linearGradient id="60spsycho" x1="0%" x2="0%" y1="0%" y2="100%">
   <stop offset="0%" style="stop-color: #df5940; stop-opacity:1"/>
   <stop offset="25%" style="stop-color: #d8d15f; stop-opacity:1"/>
   <stop offset="50%" style="stop-color: #e9882a; stop-opacity:1"/>
   <stop offset="100%" style="stop-color: #279362; stop-opacity:1"/>
  </linearGradient>
  <linearGradient id="90ssummer" x1="0%" x2="0%" y1="0%" y2="100%">
   <stop offset="0%" style="stop-color: #f618c7; stop-opacity:1"/>
   <stop offset="20%" style="stop-color: #94ffab; stop-opacity:1"/>
   <stop offset="50%" style="stop-color: #fbfd54; stop-opacity:1"/>
   <stop offset="100%" style="stop-color: #0f83ae; stop-opacity:1"/>
  </linearGradient>
 </defs>
 <metadata
     id="metadata1">
    <rdf:RDF>
      <cc:Work
         rdf:about="">
        <dc:creator>
          <cc:Agent>
            <dc:title>dreifacherspass</dc:title>
          </cc:Agent>
        </dc:creator>
        <cc:license
           rdf:resource="http://creativecommons.org/licenses/by-sa/4.0/" />
      </cc:Work>
      <cc:License
         rdf:about="http://creativecommons.org/licenses/by-sa/4.0/">
        <cc:permits
           rdf:resource="http://creativecommons.org/ns#Reproduction" />
        <cc:permits
           rdf:resource="http://creativecommons.org/ns#Distribution" />
        <cc:requires
           rdf:resource="http://creativecommons.org/ns#Notice" />
        <cc:requires
           rdf:resource="http://creativecommons.org/ns#Attribution" />
        <cc:permits
           rdf:resource="http://creativecommons.org/ns#DerivativeWorks" />
        <cc:requires
           rdf:resource="http://creativecommons.org/ns#ShareAlike" />
      </cc:License>
    </rdf:RDF>
  </metadata>
  <path
     d="M 5.6114786,0.5598665 C 5.4264182,0.55994311 5.2612395,0.64894643 5.1382884,0.76372977 5.0153489,0.87848942 4.919189,1.0235305 4.8281862,1.1915523 4.6461719,1.5276107 4.4888731,1.9683205 4.3331737,2.4847907 4.0217631,3.5177549 3.7209963,4.8485045 3.3649679,6.1072335 3.3196944,6.2672991 3.2723834,6.4217577 3.2259955,6.5792771 L 4.7460688,7.0048064 C 5.0072839,5.9892806 5.2124025,4.9805292 5.3708657,4.1409611 5.4389407,3.7802901 5.484464,3.5449283 5.537973,3.2600445 5.5524981,3.5255376 5.579348,3.7304327 5.5770244,4.0691785 5.5709886,4.948178 5.5022079,6.0413844 5.3720117,7.1799553 L 6.2322562,7.4205712 C 6.4304005,5.8088277 6.4890784,4.1885103 6.4275072,2.9453498 6.3958117,2.3053373 6.3342759,1.7678562 6.2385746,1.3672776 6.1907225,1.1669957 6.1354582,1.0003645 6.0542345,0.8590547 5.973014,0.71774763 5.8311102,0.55977552 5.6114786,0.5598665 Z M 1.9913322,1.0221457 c -0.2138188,0 -0.4073971,0.1161738 -0.5294691,0.2624381 C 1.3397907,1.4308363 1.2635482,1.6060176 1.201148,1.7991225 1.0763531,2.1853204 1.0151849,2.6572081 0.97316626,3.121072 c -0.0840875,0.9283306 -0.086713,1.8405104 -0.086713,1.8405104 -0.003049,0.3353058 0.46745964,0.4135686 0.57311354,0.095328 0,0 0.1202729,-0.366672 0.1843371,-0.5576099 -0.014827,0.3045184 -0.02835,0.5961118 -0.045365,0.9084837 L 0.57922369,5.1263966 0.50054919,5.4100808 0.03137809,7.1104691 1.4492319,7.5021153 C 1.3446547,8.8862918 1.2495116,10.384481 1.3355279,11.39676 c 0.02217,0.260904 0.061197,0.4655 0.132654,0.638004 0.071453,0.172511 0.1956893,0.338743 0.3927958,0.392796 0.1970916,0.05405 0.3793706,-0.02494 0.5185577,-0.12577 C 2.5187197,12.200971 2.6419031,12.065835 2.7683091,11.895787 3.2739562,11.215621 3.8351003,9.9646705 4.3354701,8.4387371 4.4284985,8.1550295 4.5137472,7.8650207 4.5956119,7.5738977 L 3.0577384,7.1432026 C 2.7914926,8.0060837 2.5215716,8.791055 2.2951187,9.3564064 c -0.00814,0.020294 -0.011467,0.021578 -0.019526,0.041349 0.00316,-0.4741431 -0.010207,-0.881043 0.032733,-1.508586 0.039426,-0.5762249 0.085313,-1.1728809 0.1280612,-1.7555179 L 2.5632991,5.6742419 2.4685446,5.647824 C 2.4849952,5.4045002 2.5053298,5.1463695 2.5167818,4.9225334 2.5667568,3.9459627 2.5772652,3.0409246 2.5403272,2.3676405 2.5218684,2.0309941 2.4920987,1.7544046 2.442703,1.5384073 2.4180111,1.4304159 2.392537,1.3377577 2.3404833,1.2455348 2.2884298,1.1533089 2.1729908,1.0221457 1.9913322,1.0221457 Z M 9.0042195,1.4798322 C 8.8003475,1.479744 8.653019,1.607235 8.5545716,1.7359548 8.4561359,1.8646718 8.3809634,2.017625 8.3070638,2.2028295 8.1592677,2.5732238 8.0235236,3.0698975 7.8798144,3.6591558 7.6100435,4.7653669 7.3147483,6.1951491 6.9380237,7.6175424 l 1.3782284,0.385904 C 8.3776645,7.6848236 8.4320997,7.3700936 8.502315,7.0340939 8.4611138,7.3788406 8.4349075,7.7010211 8.4018182,8.0269918 l 1.9099938,0.5346377 c 0.328993,-1.2953023 0.566922,-2.5604351 0.740797,-3.5460675 0.05832,-0.3305896 0.09947,-0.5362581 0.145866,-0.7942036 0.01715,0.2293196 0.04335,0.3989584 0.04766,0.6879646 0.01578,1.0569533 -0.0599,2.4586623 -0.223963,3.8510008 l 0.872305,0.2440618 C 11.939247,8.6514269 11.980627,8.2920584 12.014503,7.9305171 12.15449,6.4364206 12.173511,4.9258118 12.088013,3.7722867 12.045254,3.1955185 11.979038,2.7092941 11.877824,2.3440982 11.827227,2.1614929 11.769633,2.0087719 11.684298,1.8772206 11.598964,1.7456693 11.452485,1.6062822 11.248434,1.6061706 11.051963,1.6060588 10.883296,1.7105867 10.762033,1.8381716 10.640773,1.9657566 10.545986,2.123661 10.455953,2.3113647 10.275874,2.6867926 10.119527,3.1871977 9.9609378,3.7786024 9.802751,4.3684959 9.6192695,5.1729902 9.4532912,5.8947584 9.5076441,5.162723 9.6273875,4.3402844 9.6226978,3.7458688 9.6179759,3.1466549 9.5864155,2.6440095 9.5267966,2.2723128 9.4969916,2.0864672 9.4629998,1.9330818 9.4079235,1.8014188 9.3803883,1.7355872 9.3478314,1.6731312 9.2902001,1.6101899 9.2325717,1.5472603 9.1281704,1.479888 9.0042195,1.4798322 Z M 14.38448,3.689593 c -0.111027,0.00858 -0.206878,0.068522 -0.25842,0.1194463 -0.06873,0.067899 -0.107448,0.1373054 -0.147585,0.2147743 -0.160532,0.309852 -0.294042,0.7902019 -0.429547,1.3282652 -0.135509,0.538075 -0.260924,1.1209825 -0.36236,1.5608455 -0.166181,0.7206098 -0.378973,1.5084831 -0.606996,2.2832634 L 13.793563,9.5355774 13.635066,10.102373 12.40787,9.7589636 c -0.168773,0.5503034 -0.340341,1.0890304 -0.5065,1.5729024 -0.197859,0.576216 -0.375621,1.037225 -0.534062,1.421299 0.02452,-0.246467 0.03764,-0.451676 0.08729,-0.785592 0.09952,-0.669322 0.235371,-1.49402 0.358915,-2.3745702 L 10.946374,9.3500909 c -0.179571,1.3196851 -0.423415,2.6043281 -0.568521,3.5983241 -0.07978,0.546486 -0.128488,1.003252 -0.114851,1.356982 0.0068,0.176868 0.02362,0.327268 0.09303,0.474912 0.06941,0.147643 0.253498,0.297425 0.442757,0.297468 0.330892,5.6e-5 0.617849,-0.176975 0.887809,-0.423229 0.269971,-0.24627 0.529549,-0.577716 0.783295,-0.963613 0.507491,-0.771806 0.985716,-1.766389 1.350088,-2.72602 0.0011,-0.0029 0.0012,-0.0047 0.0023,-0.0074 l 0.146434,0.03905 c -0.252146,2.144105 -0.580578,3.493236 -0.580578,3.493236 -0.11172,0.310399 0.293862,0.54117 0.503627,0.286557 0,0 0.03712,-0.06868 0.04536,-0.08039 h 0.0023 c 0,0 0.0023,-0.0063 0.0023,-0.0063 0.03183,-0.04558 0.076,-0.09929 0.162515,-0.288856 0.112677,-0.246832 0.254985,-0.631915 0.395092,-1.211118 0.12025,-0.497106 0.236981,-1.148059 0.330774,-1.965123 l 0.631594,0.167645 0.527173,-1.9898169 -0.999217,-0.2647346 c 0.02767,-0.6545166 0.04098,-1.3790515 0.03503,-2.1856393 -0.01058,-1.4360213 -0.06298,-2.2585422 -0.163092,-2.7174077 -0.02502,-0.1147159 -0.05208,-0.2060359 -0.09532,-0.2934457 -0.04325,-0.087412 -0.10954,-0.1977327 -0.267031,-0.2406159 -0.03937,-0.010723 -0.07785,-0.013771 -0.114844,-0.010912 z M 0.98982261,5.8499643 1.8397285,6.0848379 1.6054282,6.9347468 0.75494882,6.6998732 Z M 5.2967839,7.7697223 C 5.2615336,8.0354419 5.228268,8.3008997 5.1859523,8.5667985 4.928883,10.182176 4.538842,11.778003 4.2791943,12.981148 c -0.1298315,0.601573 -0.2278937,1.102973 -0.2584191,1.480448 -0.015257,0.188735 -0.020226,0.342304 0.019526,0.496734 0.01987,0.07722 0.052897,0.160719 0.1257619,0.236598 0.072876,0.07588 0.193531,0.125719 0.2974679,0.125757 0.379453,1.66e-4 0.6463252,-0.260734 0.9417879,-0.607571 C 5.7007819,14.366285 6.0107341,13.891872 6.3235647,13.32398 6.9492289,12.188222 7.5831198,10.681574 8.0446287,9.1439315 8.1033124,8.9483921 8.1512616,8.761791 8.1939359,8.580006 L 6.7824008,8.1854872 C 6.383845,9.597587 5.9085644,10.974271 5.5029433,12.012942 c -0.081065,0.207585 -0.1360675,0.319009 -0.2101788,0.497312 0.035262,-0.171979 0.04685,-0.270515 0.089013,-0.466875 0.2344469,-1.091863 0.5522994,-2.5350219 0.7689348,-4.0347636 z m 3.0321023,0.848186 c -0.020678,0.1450706 -0.042416,0.2915024 -0.071783,0.4456257 -0.2887384,1.515498 -0.7065526,3.015789 -1.0221853,4.13928 -0.1578104,0.561732 -0.2884651,1.027383 -0.3686772,1.365017 -0.040105,0.168826 -0.069927,0.301232 -0.080395,0.418638 -0.00524,0.05871 -0.010194,0.112287 0.00861,0.193526 0.00941,0.04063 0.025439,0.092 0.078102,0.151606 0.052662,0.0596 0.1565462,0.108494 0.238893,0.108532 0.2129955,1.12e-4 0.3181347,-0.109868 0.4255263,-0.218795 0.1073948,-0.108922 0.2109961,-0.248222 0.3233095,-0.41921 0.2246418,-0.341991 0.4764422,-0.811397 0.7402241,-1.375932 0.527552,-1.129077 1.0989074,-2.632297 1.529835,-4.1651183 0.0122,-0.043409 0.02191,-0.08636 0.03388,-0.1297842 z m 6.0883248,0.9768178 0.852778,0.2256854 -0.226259,0.8527775 -0.852203,-0.226258 z"
     style="opacity:0.7;stroke-width:1.26009;fill:url(#oomox)"
     id="path9609"
     class="ColorScheme-Text"/>
  <path
     id="path4645"
     style="opacity:1;stroke-width:1.08731;fill:url(#oomox);fill-opacity:1"
     class="ColorScheme-Text"
     d="M 0.55273438 5.15625 L 0.4765625 5.4277344 L 0 7.1210938 L 1.9667969 7.6757812 L 2.1992188 6.8457031 C 6.1635015 7.9573882 13.392344 9.9839905 13.693359 10.068359 L 13.480469 10.828125 L 15.447266 11.380859 L 16 9.4160156 L 14.033203 8.8613281 L 13.957031 9.1347656 L 13.865234 9.4589844 C 13.568709 9.3759654 6.3372401 7.3523573 2.3710938 6.2402344 L 2.5195312 5.7089844 L 0.55273438 5.15625 z M 0.9453125 5.8535156 L 1.8183594 6.0996094 L 1.5722656 6.9765625 L 0.69726562 6.7304688 L 0.9453125 5.8535156 z M 14.425781 9.5605469 L 15.298828 9.8066406 L 15.052734 10.683594 L 14.177734 10.4375 L 14.425781 9.5605469 z " />
</svg>
