<?xml version="1.0" encoding="UTF-8" standalone="no"?>
<!-- Created with Inkscape (http://www.inkscape.org/) -->

<svg
   width="16"
   height="16"
   viewBox="0 0 16 16"
   version="1.1"
   id="svg1"
   xmlns:xlink="http://www.w3.org/1999/xlink"
   xmlns="http://www.w3.org/2000/svg"
   xmlns:svg="http://www.w3.org/2000/svg"
   xmlns:rdf="http://www.w3.org/1999/02/22-rdf-syntax-ns#"
   xmlns:cc="http://creativecommons.org/ns#"
   xmlns:dc="http://purl.org/dc/elements/1.1/">
  <defs>
   <style id="current-color-scheme" type="text/css">
   .ColorScheme-Text { color: #0abdc6; } .ColorScheme-Highlight { color:#5294e2; }
  </style>
  <linearGradient id="arrongin" x1="0%" x2="0%" y1="0%" y2="100%">
   <stop offset="0%" style="stop-color:#dd9b44; stop-opacity:1"/>
   <stop offset="100%" style="stop-color:#ad6c16; stop-opacity:1"/>
  </linearGradient>
  <linearGradient id="aurora" x1="0%" x2="0%" y1="0%" y2="100%">
   <stop offset="0%" style="stop-color:#09D4DF; stop-opacity:1"/>
   <stop offset="100%" style="stop-color:#9269F4; stop-opacity:1"/>
  </linearGradient>
  <linearGradient id="cyberneon" x1="0%" x2="0%" y1="0%" y2="100%">
    <stop offset="0" style="stop-color:#0abdc6; stop-opacity:1"/>
    <stop offset="1" style="stop-color:#ea00d9; stop-opacity:1"/>
  </linearGradient>
  <linearGradient id="fitdance" x1="0%" x2="0%" y1="0%" y2="100%">
   <stop offset="0%" style="stop-color:#1AD6AB; stop-opacity:1"/>
   <stop offset="100%" style="stop-color:#329DB6; stop-opacity:1"/>
  </linearGradient>
  <linearGradient id="oomox" x1="0%" x2="0%" y1="0%" y2="100%">
   <stop offset="0%" style="stop-color:#0abdc6; stop-opacity:1"/>
   <stop offset="100%" style="stop-color:#b800ff; stop-opacity:1"/>
  </linearGradient>
  <linearGradient id="rainblue" x1="0%" x2="0%" y1="0%" y2="100%">
   <stop offset="0%" style="stop-color:#00F260; stop-opacity:1"/>
   <stop offset="100%" style="stop-color:#0575E6; stop-opacity:1"/>
  </linearGradient>
  <linearGradient id="sunrise" x1="0%" x2="0%" y1="0%" y2="100%">
   <stop offset="0%" style="stop-color: #FF8501; stop-opacity:1"/>
   <stop offset="100%" style="stop-color: #FFCB01; stop-opacity:1"/>
  </linearGradient>
  <linearGradient id="telinkrin" x1="0%" x2="0%" y1="0%" y2="100%">
   <stop offset="0%" style="stop-color: #b2ced6; stop-opacity:1"/>
   <stop offset="100%" style="stop-color: #6da5b7; stop-opacity:1"/>
  </linearGradient>
  <linearGradient id="60spsycho" x1="0%" x2="0%" y1="0%" y2="100%">
   <stop offset="0%" style="stop-color: #df5940; stop-opacity:1"/>
   <stop offset="25%" style="stop-color: #d8d15f; stop-opacity:1"/>
   <stop offset="50%" style="stop-color: #e9882a; stop-opacity:1"/>
   <stop offset="100%" style="stop-color: #279362; stop-opacity:1"/>
  </linearGradient>
  <linearGradient id="90ssummer" x1="0%" x2="0%" y1="0%" y2="100%">
   <stop offset="0%" style="stop-color: #f618c7; stop-opacity:1"/>
   <stop offset="20%" style="stop-color: #94ffab; stop-opacity:1"/>
   <stop offset="50%" style="stop-color: #fbfd54; stop-opacity:1"/>
   <stop offset="100%" style="stop-color: #0f83ae; stop-opacity:1"/>
  </linearGradient>
 </defs>
  <path
     id="path96"
     class="ColorScheme-Text"
     d="M 6.5426462,3.376895e-7 V 2.8552658 3.0501701 3.2645134 3.611767 4.0210146 H 7.3553588 V 3.611767 3.473601 c 1.4643276,0.1320467 2.7839642,0.9644859 3.5277142,2.2526922 0.812526,1.4073264 0.812526,3.1395617 0,4.5468888 -0.74375,1.288207 -2.0633866,2.121094 -3.5277142,2.253217 v -0.190176 -0.40872 H 6.5426462 v 0.40872 0.347781 0.265826 0.142895 V 16 h 0.8064103 v -2.663514 c 0.467503,-0.0353 0.9235662,-0.130887 1.3574983,-0.282112 L 9.1620316,14.097716 9.9006698,13.776203 9.44572,12.730234 c 0.4093122,-0.216286 0.789669,-0.484847 1.1316,-0.800631 l 0.834251,0.775941 0.550039,-0.589442 -0.834251,-0.776988 c 0.166028,-0.207892 0.319591,-0.428013 0.454952,-0.662465 0.0983,-0.170263 0.184062,-0.345672 0.262148,-0.523246 l 2.51379,0.884685 0.267927,-0.760705 -2.512214,-0.8841606 C 12.235301,8.9429067 12.29734,8.4805793 12.298884,8.0178612 l 1.133701,-0.081427 -0.05726,-0.8064101 -1.136328,0.083006 C 12.171369,6.7574832 12.044894,6.3093278 11.859165,5.8791698 L 12.868886,5.3511953 12.493789,4.6361973 11.484595,5.1662727 C 11.235808,4.7678057 10.939181,4.40936 10.604112,4.095613 L 12.273143,2.0173368 11.643775,1.5130027 9.9752699,3.5886537 C 9.593413,3.3265398 9.178835,3.1146817 8.7412288,2.9587606 L 9.0406761,1.8607835 8.262111,1.6480163 7.9631873,2.7454689 C 7.7614884,2.7064184 7.5562367,2.6791581 7.3490565,2.6635136 V 0 Z m 0,5.1226682623105 V 5.5319162 5.8791698 6.2884174 H 7.3553588 V 5.8791698 5.5319162 5.1226686 Z m 0,2.2695036 v 0.4092477 0.3451528 0.409245 H 7.3553588 V 8.1465727 7.8014199 7.3921722 Z m 0,2.2674028 v 0.409245 0.347256 0.409245 H 7.3553588 V 10.416076 10.06882 9.659575 Z"
     style="stroke-width:1.12563;fill:url(#oomox)" />
  <path
     id="path1"
     class="ColorScheme-Text"
     d="m 6.7271436,2.6467596 c -1.912042,0 -3.6802831,1.020677 -4.6363036,2.6765528 -0.9560213,1.6558755 -0.9560213,3.6972099 0,5.3530856 0.9560205,1.655875 2.7242616,2.676553 4.6363036,2.676553 v -0.806142 c -1.6250425,0 -3.124858,-0.866152 -3.9373839,-2.273478 -0.8125156,-1.4073343 -0.8125156,-3.139618 0,-4.546953 C 3.6022856,4.3190535 5.1021011,3.4529012 6.7271436,3.4529012 Z"
     style="opacity:0.4;stroke-width:1.12563;fill:url(#oomox)" />
  <metadata
     id="metadata6">
    <rdf:RDF>
      <cc:Work
         rdf:about="">
        <dc:creator>
          <cc:Agent>
            <dc:title>dreifacherspass</dc:title>
          </cc:Agent>
        </dc:creator>
        <cc:license
           rdf:resource="http://creativecommons.org/licenses/by-sa/4.0/" />
      </cc:Work>
      <cc:License
         rdf:about="http://creativecommons.org/licenses/by-sa/4.0/">
        <cc:permits
           rdf:resource="http://creativecommons.org/ns#Reproduction" />
        <cc:permits
           rdf:resource="http://creativecommons.org/ns#Distribution" />
        <cc:requires
           rdf:resource="http://creativecommons.org/ns#Notice" />
        <cc:requires
           rdf:resource="http://creativecommons.org/ns#Attribution" />
        <cc:permits
           rdf:resource="http://creativecommons.org/ns#DerivativeWorks" />
        <cc:requires
           rdf:resource="http://creativecommons.org/ns#ShareAlike" />
      </cc:License>
    </rdf:RDF>
  </metadata>
</svg>
