<?xml version="1.0" encoding="UTF-8" standalone="no"?>
<svg
   width="16"
   height="16"
   version="1.1"
   id="svg2739"
   xmlns="http://www.w3.org/2000/svg"
   xmlns:svg="http://www.w3.org/2000/svg"
   xmlns:rdf="http://www.w3.org/1999/02/22-rdf-syntax-ns#"
   xmlns:cc="http://creativecommons.org/ns#"
   xmlns:dc="http://purl.org/dc/elements/1.1/">
  <defs
     id="defs2735">
     <style
       id="current-color-scheme"
       type="text/css">
      .ColorScheme-Text { color: #0abdc6; } .ColorScheme-Highlight { color:#5294e2; }
     </style>
    <linearGradient
       id="arrongin"
       x1="0%"
       x2="0%"
       y1="0%"
       y2="100%">
      <stop
         offset="0%"
         style="stop-color:#dd9b44; stop-opacity:1"
         id="stop9192" />
      <stop
         offset="100%"
         style="stop-color:#ad6c16; stop-opacity:1"
         id="stop9194" />
    </linearGradient>
    <linearGradient
       id="aurora"
       x1="0%"
       x2="0%"
       y1="0%"
       y2="100%">
      <stop
         offset="0%"
         style="stop-color:#09D4DF; stop-opacity:1"
         id="stop9197" />
      <stop
         offset="100%"
         style="stop-color:#9269F4; stop-opacity:1"
         id="stop9199" />
    </linearGradient>
    <linearGradient
       id="cyberneon"
       x1="0%"
       x2="0%"
       y1="0%"
       y2="100%">
      <stop
         offset="0"
         style="stop-color:#0abdc6; stop-opacity:1"
         id="stop9202" />
      <stop
         offset="1"
         style="stop-color:#ea00d9; stop-opacity:1"
         id="stop9204" />
    </linearGradient>
    <linearGradient
       id="fitdance"
       x1="0%"
       x2="0%"
       y1="0%"
       y2="100%">
      <stop
         offset="0%"
         style="stop-color:#1AD6AB; stop-opacity:1"
         id="stop9207" />
      <stop
         offset="100%"
         style="stop-color:#329DB6; stop-opacity:1"
         id="stop9209" />
    </linearGradient>
    <linearGradient
       id="oomox"
       x1="0%"
       x2="0%"
       y1="0%"
       y2="100%">
      <stop
         offset="0%"
         style="stop-color:#0abdc6; stop-opacity:1"
         id="stop9212" />
      <stop
         offset="100%"
         style="stop-color:#b800ff; stop-opacity:1"
         id="stop9214" />
    </linearGradient>
    <linearGradient
       id="rainblue"
       x1="0%"
       x2="0%"
       y1="0%"
       y2="100%">
      <stop
         offset="0%"
         style="stop-color:#00F260; stop-opacity:1"
         id="stop9217" />
      <stop
         offset="100%"
         style="stop-color:#0575E6; stop-opacity:1"
         id="stop9219" />
    </linearGradient>
    <linearGradient
       id="sunrise"
       x1="0%"
       x2="0%"
       y1="0%"
       y2="100%">
      <stop
         offset="0%"
         style="stop-color: #FF8501; stop-opacity:1"
         id="stop9222" />
      <stop
         offset="100%"
         style="stop-color: #FFCB01; stop-opacity:1"
         id="stop9224" />
    </linearGradient>
    <linearGradient
       id="telinkrin"
       x1="0%"
       x2="0%"
       y1="0%"
       y2="100%">
      <stop
         offset="0%"
         style="stop-color: #b2ced6; stop-opacity:1"
         id="stop9227" />
      <stop
         offset="100%"
         style="stop-color: #6da5b7; stop-opacity:1"
         id="stop9229" />
    </linearGradient>
    <linearGradient
       id="60spsycho"
       x1="0%"
       x2="0%"
       y1="0%"
       y2="100%">
      <stop
         offset="0%"
         style="stop-color: #df5940; stop-opacity:1"
         id="stop9232" />
      <stop
         offset="25%"
         style="stop-color: #d8d15f; stop-opacity:1"
         id="stop9234" />
      <stop
         offset="50%"
         style="stop-color: #e9882a; stop-opacity:1"
         id="stop9236" />
      <stop
         offset="100%"
         style="stop-color: #279362; stop-opacity:1"
         id="stop9238" />
    </linearGradient>
    <linearGradient
       id="90ssummer"
       x1="0%"
       x2="0%"
       y1="0%"
       y2="100%">
      <stop
         offset="0%"
         style="stop-color: #f618c7; stop-opacity:1"
         id="stop9241" />
      <stop
         offset="20%"
         style="stop-color: #94ffab; stop-opacity:1"
         id="stop9243" />
      <stop
         offset="50%"
         style="stop-color: #fbfd54; stop-opacity:1"
         id="stop9245" />
      <stop
         offset="100%"
         style="stop-color: #0f83ae; stop-opacity:1"
         id="stop9247" />
    </linearGradient>
  </defs>
  <path
     id="path398"
     class="ColorScheme-Text"
     style="fill:url(#oomox);fill-opacity:1;stroke-width:0;stroke-dasharray:none"
     d="M 1 1 L 1 1.8945312 L 2.1503906 1.8945312 L 2.1503906 1 L 1 1 z M 3.5703125 1 L 3.5703125 1.8945312 L 4.71875 1.8945312 L 4.71875 1 L 3.5703125 1 z M 6.140625 1 L 6.140625 1.8945312 L 7.2890625 1.8945312 L 7.2890625 1 L 6.140625 1 z M 8.7109375 1 L 8.7109375 1.8945312 L 9.859375 1.8945312 L 9.859375 1 L 8.7109375 1 z M 11.28125 1 L 11.28125 1.8945312 L 12.429688 1.8945312 L 12.429688 1 L 11.28125 1 z M 13.849609 1 L 13.849609 1.8945312 L 15 1.8945312 L 15 1 L 13.849609 1 z M 8.4277344 2.1796875 L 7.7539062 2.7832031 L 9.1640625 4.0214844 L 5.2109375 4.0214844 L 4.5214844 4.0214844 L 4.5214844 4.9355469 L 5.2070312 4.9355469 L 5.2070312 4.9414062 L 9.1640625 4.9414062 L 7.7539062 6.1816406 L 8.4277344 6.78125 L 10.880859 4.6542969 L 11.095703 4.4804688 C 11.095703 4.4804688 10.951263 4.3654302 10.880859 4.3066406 C 10.048685 3.6117377 8.4277344 2.1796895 8.4277344 2.1796875 z M 1 3 L 1 3.8945312 L 2.1503906 3.8945312 L 2.1503906 3 L 1 3 z M 13.849609 3 L 13.849609 3.8945312 L 15 3.8945312 L 15 3 L 13.849609 3 z M 1 5 L 1 5.8945312 L 2.1503906 5.8945312 L 2.1503906 5 L 1 5 z M 13.849609 5 L 13.849609 5.8945312 L 15 5.8945312 L 15 5 L 13.849609 5 z M 1 7 L 1 7.8945312 L 2.1503906 7.8945312 L 2.1503906 7 L 1 7 z M 3.5703125 7 L 3.5703125 7.8945312 L 4.71875 7.8945312 L 4.71875 7 L 3.5703125 7 z M 6.140625 7 L 6.140625 7.8945312 L 7.2890625 7.8945312 L 7.2890625 7 L 6.140625 7 z M 8.7109375 7 L 8.7109375 7.8945312 L 9.859375 7.8945312 L 9.859375 7 L 8.7109375 7 z M 11.28125 7 L 11.28125 7.8945312 L 12.429688 7.8945312 L 12.429688 7 L 11.28125 7 z M 13.849609 7 L 13.849609 7.8945312 L 15 7.8945312 L 15 7 L 13.849609 7 z M 4.5 11 L 1 15 L 11.5 15 L 15 11 L 4.5 11 z " />
  <metadata
     id="metadata3472">
    <rdf:RDF>
      <cc:Work
         rdf:about="">
        <dc:creator>
          <cc:Agent>
            <dc:title>dreifacherspass</dc:title>
          </cc:Agent>
        </dc:creator>
        <cc:license
           rdf:resource="http://creativecommons.org/licenses/by-sa/4.0/" />
      </cc:Work>
      <cc:License
         rdf:about="http://creativecommons.org/licenses/by-sa/4.0/">
        <cc:permits
           rdf:resource="http://creativecommons.org/ns#Reproduction" />
        <cc:permits
           rdf:resource="http://creativecommons.org/ns#Distribution" />
        <cc:requires
           rdf:resource="http://creativecommons.org/ns#Notice" />
        <cc:requires
           rdf:resource="http://creativecommons.org/ns#Attribution" />
        <cc:permits
           rdf:resource="http://creativecommons.org/ns#DerivativeWorks" />
        <cc:requires
           rdf:resource="http://creativecommons.org/ns#ShareAlike" />
      </cc:License>
    </rdf:RDF>
  </metadata>
</svg>
