<?xml version="1.0" encoding="UTF-8" standalone="no"?>
<svg
   viewBox="0 0 16 16"
   height="16"
   width="16"
   id="svg1"
   version="1.1"
   xmlns:xlink="http://www.w3.org/1999/xlink"
   xmlns="http://www.w3.org/2000/svg"
   xmlns:svg="http://www.w3.org/2000/svg"
   xmlns:rdf="http://www.w3.org/1999/02/22-rdf-syntax-ns#"
   xmlns:cc="http://creativecommons.org/ns#"
   xmlns:dc="http://purl.org/dc/elements/1.1/">
  <defs>
   <style id="current-color-scheme" type="text/css">
   .ColorScheme-Text { color: #0abdc6; } .ColorScheme-Highlight { color:#5294e2; }
  </style>
  <linearGradient id="arrongin" x1="0%" x2="0%" y1="0%" y2="100%">
   <stop offset="0%" style="stop-color:#dd9b44; stop-opacity:1"/>
   <stop offset="100%" style="stop-color:#ad6c16; stop-opacity:1"/>
  </linearGradient>
  <linearGradient id="aurora" x1="0%" x2="0%" y1="0%" y2="100%">
   <stop offset="0%" style="stop-color:#09D4DF; stop-opacity:1"/>
   <stop offset="100%" style="stop-color:#9269F4; stop-opacity:1"/>
  </linearGradient>
  <linearGradient id="cyberneon" x1="0%" x2="0%" y1="0%" y2="100%">
    <stop offset="0" style="stop-color:#0abdc6; stop-opacity:1"/>
    <stop offset="1" style="stop-color:#ea00d9; stop-opacity:1"/>
  </linearGradient>
  <linearGradient id="fitdance" x1="0%" x2="0%" y1="0%" y2="100%">
   <stop offset="0%" style="stop-color:#1AD6AB; stop-opacity:1"/>
   <stop offset="100%" style="stop-color:#329DB6; stop-opacity:1"/>
  </linearGradient>
  <linearGradient id="oomox" x1="0%" x2="0%" y1="0%" y2="100%">
   <stop offset="0%" style="stop-color:#0abdc6; stop-opacity:1"/>
   <stop offset="100%" style="stop-color:#b800ff; stop-opacity:1"/>
  </linearGradient>
  <linearGradient id="rainblue" x1="0%" x2="0%" y1="0%" y2="100%">
   <stop offset="0%" style="stop-color:#00F260; stop-opacity:1"/>
   <stop offset="100%" style="stop-color:#0575E6; stop-opacity:1"/>
  </linearGradient>
  <linearGradient id="sunrise" x1="0%" x2="0%" y1="0%" y2="100%">
   <stop offset="0%" style="stop-color: #FF8501; stop-opacity:1"/>
   <stop offset="100%" style="stop-color: #FFCB01; stop-opacity:1"/>
  </linearGradient>
  <linearGradient id="telinkrin" x1="0%" x2="0%" y1="0%" y2="100%">
   <stop offset="0%" style="stop-color: #b2ced6; stop-opacity:1"/>
   <stop offset="100%" style="stop-color: #6da5b7; stop-opacity:1"/>
  </linearGradient>
  <linearGradient id="60spsycho" x1="0%" x2="0%" y1="0%" y2="100%">
   <stop offset="0%" style="stop-color: #df5940; stop-opacity:1"/>
   <stop offset="25%" style="stop-color: #d8d15f; stop-opacity:1"/>
   <stop offset="50%" style="stop-color: #e9882a; stop-opacity:1"/>
   <stop offset="100%" style="stop-color: #279362; stop-opacity:1"/>
  </linearGradient>
  <linearGradient id="90ssummer" x1="0%" x2="0%" y1="0%" y2="100%">
   <stop offset="0%" style="stop-color: #f618c7; stop-opacity:1"/>
   <stop offset="20%" style="stop-color: #94ffab; stop-opacity:1"/>
   <stop offset="50%" style="stop-color: #fbfd54; stop-opacity:1"/>
   <stop offset="100%" style="stop-color: #0f83ae; stop-opacity:1"/>
  </linearGradient>
 </defs>
    <metadata
     id="metadata2174">
    <rdf:RDF>
      <cc:Work
         rdf:about="">
        <dc:creator>
          <cc:Agent>
            <dc:title>dreifacherspass</dc:title>
          </cc:Agent>
        </dc:creator>
        <cc:license
           rdf:resource="http://creativecommons.org/licenses/by-sa/4.0/" />
      </cc:Work>
      <cc:License
         rdf:about="http://creativecommons.org/licenses/by-sa/4.0/">
        <cc:permits
           rdf:resource="http://creativecommons.org/ns#Reproduction" />
        <cc:permits
           rdf:resource="http://creativecommons.org/ns#Distribution" />
        <cc:requires
           rdf:resource="http://creativecommons.org/ns#Notice" />
        <cc:requires
           rdf:resource="http://creativecommons.org/ns#Attribution" />
        <cc:permits
           rdf:resource="http://creativecommons.org/ns#DerivativeWorks" />
        <cc:requires
           rdf:resource="http://creativecommons.org/ns#ShareAlike" />
      </cc:License>
    </rdf:RDF>
  </metadata>
  <path
     d="m 7.9611701,0 v 0.06851691 0.6557294 C 8.462372,0.74485101 8.8240983,1.0728037 9.0172943,1.4790025 9.2129055,1.8902843 9.2962268,2.3903075 9.373262,2.9071536 9.4502959,3.4240097 9.5182847,3.9564063 9.6403713,4.402216 9.7624544,4.8480225 9.9382836,5.1917697 10.19279,5.3796523 c 0.245068,0.1809311 0.618127,0.2429855 1.074328,0.2221449 0.456179,-0.020836 0.978768,-0.120524 1.488637,-0.2060856 0.509847,-0.085567 1.00468,-0.160431 1.44688,-0.1011701 0.442209,0.059255 0.861848,0.3141528 1.005278,0.7970439 0.145533,0.4899986 -0.05731,0.9432277 -0.388086,1.2563221 -0.330779,0.3130956 -0.780424,0.5479939 -1.2483,0.7809869 -0.467853,0.2329853 -0.955062,0.4602119 -1.341434,0.7140756 -0.386361,0.2538669 -0.658974,0.5275229 -0.759031,0.8275571 -0.09561,0.2865974 -0.03439,0.6612419 0.133824,1.0903879 0.168183,0.429143 0.434142,0.896773 0.683562,1.357482 0.249419,0.460719 0.485605,0.911199 0.5749,1.351606 0.04463,0.220205 0.05209,0.442745 -0.01445,0.657339 -0.06655,0.214605 -0.212491,0.4091 -0.420741,0.552418 -0.41678,0.286817 -0.908005,0.229488 -1.30878,0.01002 C 10.718606,14.470614 10.351388,14.113847 9.9824347,13.740876 9.6134677,13.367881 9.2457967,12.976623 8.8899003,12.689028 8.5896242,12.446365 8.3053472,12.289467 8.0511028,12.245804 c -0.024719,0.02982 -0.046757,0.05876 -0.077619,0.09104 -0.00357,0.0033 -0.00868,0.0078 -0.012309,0.01179 v 0.548667 0.069 H 7.2026714 v -0.04173 c -0.043318,0.02348 -0.08491,0.05009 -0.1295411,0.07012 -0.1167697,0.05253 -0.2512437,0.05109 -0.3805901,0.06477 -0.077786,0.247217 -0.1770067,0.489591 -0.3420509,0.685699 -0.1093061,0.129896 -0.2203584,0.241528 -0.3334832,0.325458 -0.056573,0.04196 -0.1108531,0.07924 -0.1900273,0.105399 -0.010464,0.0033 -0.033545,-0.01291 -0.046567,-0.01002 -0.091286,0.06021 -0.1294477,0.106735 -0.1295413,0.107069 -1.046e-4,3.56e-4 -0.00289,0.0089 0.018197,0.0749 0.010462,0.03294 0.028626,0.07658 0.034258,0.154159 0.00567,0.07769 -0.028592,0.210799 -0.1113373,0.286917 -0.1134185,0.104397 -0.240086,0.0867 -0.366138,0.09104 -0.048359,0.08737 -0.089673,0.180403 -0.1616586,0.248907 C 4.9557535,15.23216 4.801987,15.308143 4.6391722,15.310983 4.3135444,15.316513 4.0446187,15.095886 3.7671876,14.73233 a 0.27409537,0.27409537 0 0 1 -0.018197,-0.02837 c -0.1683053,-0.289287 -0.2875505,-0.362387 -0.39237,-0.562046 -0.05241,-0.09983 -0.061437,-0.290554 0,-0.404681 0.034146,-0.06344 0.089617,-0.107737 0.1354299,-0.155772 -0.016611,-0.30048 -0.1125633,-0.553206 -0.2146572,-0.75046 -0.055972,-0.108181 -0.113689,-0.188394 -0.1413144,-0.336165 -0.013824,-0.0739 -0.01113,-0.194148 0.060491,-0.291191 0.03477,-0.04719 0.079167,-0.04764 0.1215099,-0.07067 0.2106587,-0.521098 0.5201649,-0.915908 0.8414732,-1.120896 0.1755352,-0.11199 0.3469947,-0.183342 0.5037072,-0.21839 0.077664,-0.01736 0.1542483,0.01714 0.2285701,0.01815 0.014857,-0.14669 0.00275,-0.466217 -0.018206,-0.843673 C 4.5656777,9.7873413 4.3048045,9.5913545 4.1697195,9.4922765 4.0875968,9.4320419 4.0364586,9.4074605 3.9957502,9.3996708 3.9550484,9.3918799 3.9065446,9.3902104 3.7992987,9.4339285 A 0.27409537,0.27409537 0 0 1 3.4229901,9.1871622 C 3.4189054,9.0031749 3.2647272,8.6961531 3.0734466,8.4870034 2.977809,8.3824253 2.874148,8.3004897 2.8041982,8.2621831 2.7692271,8.2430364 2.7504634,8.2423541 2.7490632,8.2413068 A 0.27409537,0.27409537 0 0 1 2.4359187,8.1331794 C 2.1070901,7.638593 1.9020185,7.6115844 1.8412129,7.6128777 c -0.012844,2.736e-4 -0.02059,0.00256 -0.023551,0.00323 -0.010907,0.010796 -0.019545,0.022227 -0.057274,0.037474 -0.011352,0.00457 -0.05024,0.01379 -0.050852,0.013912 -3.016e-4,6.34e-5 -0.050085,0.00646 -0.050318,0.00646 -2.305e-4,1.11e-5 -0.090841,-0.014402 -0.090998,-0.014458 -7.12e-5,-1.9e-5 -0.066846,-0.032076 -0.066913,-0.032121 -6.14e-5,-4.33e-5 -0.066868,-0.063106 -0.066913,-0.063162 -4.35e-5,-5.24e-5 -0.042271,-0.082371 -0.042282,-0.082438 0,0 1.89e-5,-0.002 0,-0.00212 -0.02444,-0.014503 -0.036282,-0.021504 -0.064763,-0.038554 C 1.1564211,7.338791 0.92194998,7.1930548 0.6962292,7.026203 0.47049841,6.8593468 0.25281894,6.6808799 0.11329982,6.4555843 0.04353581,6.3429348 -0.01118401,6.2077229 0.00196032,6.0509047 0.00930601,5.9633687 0.08492209,5.9018117 0.13578208,5.8266186 c 0.005788,-0.081237 0.0111632,-0.1541204 0.0422822,-0.230708 0.0349588,-0.086034 0.13739554,-0.2011985 0.26282653,-0.2242862 0.12543208,-0.023106 0.2044817,0.018164 0.25908244,0.046033 0.0545918,0.027869 0.0933348,0.056028 0.13167815,0.081359 0.0766623,0.050685 0.14438402,0.087392 0.1777155,0.094749 0.033334,0.00734 0.026322,0.018086 0.08511,-0.032121 0.1199295,-0.1443682 0.1720939,-0.2346345 0.3179627,-0.313682 0.039979,-0.02167 0.099423,-0.043228 0.1718267,-0.04068 0.0724,0.00256 0.1433378,0.035115 0.1841398,0.066913 0.081615,0.063585 0.092589,0.1046648 0.1113384,0.1338217 0.037474,0.05832 0.0591,0.095794 0.1391776,0.1514846 0.080068,0.055694 0.2214279,0.124228 0.4838994,0.1659405 a 0.27409537,0.27409537 0 0 1 0.046567,0.010128 c 0.7681342,0.2644949 1.1765445,0.7730858 1.420122,1.0256151 0.09004,0.093346 0.1494601,0.1278773 0.1637987,0.1397116 0.0039,-0.00245 0.00412,-0.00178 0.01231,-0.00801 0.0325,-0.024886 0.090062,-0.08737 0.1616586,-0.1862822 8.281e-4,-0.00112 0.00133,-9.916e-4 0.00212,-0.00212 0.088992,-0.5691809 0.00567,-0.5898679 0.5481333,-1.3596372 a 0.27409537,0.27409537 0 0 1 0.198627,-0.115075 C 5.2663106,5.2095525 5.3087698,5.1650315 5.322731,5.1468005 5.336704,5.1285694 5.3555371,5.0691764 5.359132,4.9364344 5.366332,4.6709259 5.344996,4.1672653 5.7718365,3.7668273 5.976947,3.4439643 6.1463887,3.2490865 6.2798276,3.1255498 6.3985039,3.0156784 6.5072268,2.8897343 6.6422182,2.7048143 6.6368759,2.6468947 6.6352065,2.5904431 6.6437764,2.5431557 6.6664812,2.4190225 6.7118465,2.3051876 6.765283,2.1748775 6.8660526,1.9291641 6.9969349,1.6343137 7.0891365,1.3371506 7.0584405,1.2515733 7.0202874,1.1775711 7.0345336,1.0620134 c 0.00512,-0.041225 0.017764,-0.0979538 0.064776,-0.15791012 0.025588,-0.0326438 0.063362,-0.0587989 0.1033071,-0.0786879 V 0.75850504 0.06851691 0 Z M 7.9402916,0.82755563 H 7.4820864 c 0.012388,0.007791 0.027813,0.0156374 0.038009,0.0219481 0.078655,0.0486707 0.1252071,0.0956386 0.1696865,0.1354278 0.044474,0.0397889 0.1078925,0.0734231 0.048715,0.0465672 L 7.6293018,1.2723805 a 0.27409537,0.27409537 0 0 1 0.0059,0.1680794 c -0.00768,0.026255 -0.017051,0.050663 -0.025153,0.07654 h 0.3511483 v 0.069061 0.6899873 0.068515 h -0.671818 c -0.00467,0.011285 -0.011586,0.027636 -0.016061,0.038543 -0.045221,0.1102632 -0.072411,0.1928308 -0.082973,0.238738 a 0.27409537,0.27409537 0 0 1 -0.00803,0.2895915 C 6.9605883,3.2490063 6.788383,3.4005746 6.6523887,3.5264842 6.5163799,3.6523903 6.4044639,3.7590821 6.1931084,4.1088782 a 0.27409537,0.27409537 0 0 1 -0.046567,0.058877 C 5.877798,4.4198635 5.9163463,4.6351022 5.9078007,4.9503513 5.9035268,5.1079654 5.8933242,5.3040663 5.7579187,5.4808215 5.6608298,5.6075478 5.4730104,5.6461529 5.292754,5.6927958 4.761043,6.4450088 4.9395822,6.1387347 4.8029646,6.9127188 A 0.27409537,0.27409537 0 0 1 4.7542538,7.026203 C 4.6629646,7.1529373 4.5785271,7.2514452 4.4791176,7.3275699 4.3797071,7.4036925 4.2548972,7.4565524 4.1252902,7.4549686 3.8660887,7.4517743 3.7150926,7.2870495 3.5750135,7.1418229 3.2970939,6.8536906 2.9996268,6.475145 2.3850654,6.2591328 2.0797529,6.206718 1.8616962,6.1180945 1.7073911,6.0107583 1.6270693,5.9548955 1.6091502,5.912404 1.561793,5.8571299 c -0.03871,0.03861 -0.018988,0.020713 -0.080825,0.092601 a 0.27409537,0.27409537 0 0 1 -0.030507,0.02837 C 1.2816405,6.1222336 1.0565999,6.1647497 0.89000292,6.1279855 0.77402004,6.1023902 0.71084046,6.0530038 0.63948932,6.0086181 a 0.27409537,0.27409537 0 0 1 -0.0749372,0.082973 c -0.0115416,0.00846 -0.0112411,0.00824 -0.0139123,0.010128 3.94e-4,-0.00345 -0.002226,0.016261 0.0278357,0.064776 0.0641301,0.1035631 0.24263811,0.2724649 0.44321778,0.4207355 0.2005828,0.1482627 0.4236025,0.285488 0.588818,0.3843387 0.074147,0.044364 0.1311117,0.076907 0.178251,0.105455 0.016773,-0.00145 0.021982,-0.011919 0.040145,-0.012309 0.2670403,-0.00567 0.6182344,0.228677 0.9694083,0.695875 0.090875,0.014134 0.1952819,-0.01772 0.2687121,0.022482 0.1462741,0.08009 0.2829741,0.1961101 0.4105676,0.3356269 0.1877791,0.2053154 0.2801256,0.4937339 0.3623918,0.7767065 0.087147,-0.012466 0.1776922,-0.049851 0.2590802,-0.034258 0.1589517,0.030428 0.2866732,0.1077479 0.3966505,0.1884202 0.2199505,0.1613337 0.4078444,0.3525152 0.7708171,0.529936 a 0.27409537,0.27409537 0 0 1 0.1536239,0.2285702 c 0.030874,0.4817129 0.042427,0.8247559 0.016061,1.0721829 -0.01319,0.123697 -0.016895,0.225858 -0.1150891,0.350078 -0.049094,0.0621 -0.1466522,0.126668 -0.2467673,0.13329 -0.100113,0.0067 -0.1762454,-0.02984 -0.230707,-0.06422 l 0.010128,0.0078 c 0.066723,0.03806 0.012977,0.0033 -0.071198,0.02192 -0.084175,0.01881 -0.2043805,0.064 -0.3297403,0.143987 -0.2507261,0.159958 -0.5288984,0.45078 -0.6937324,0.938367 a 0.27409537,0.27409537 0 0 1 -0.040678,0.07491 c 0.015715,0.03484 0.01517,0.03661 0.04443,0.09317 0.1170292,0.226124 0.3027047,0.596492 0.2976184,1.080206 a 0.27409537,0.27409537 0 0 1 -0.087258,0.196452 c -0.061537,0.05731 -0.069662,0.0689 -0.088861,0.09104 0.033467,0.03906 0.1536862,0.180403 0.3179592,0.453396 0.2311932,0.302954 0.3969576,0.36241 0.4287689,0.361853 0.015905,-2.77e-4 0.022571,-3.2e-5 0.054592,-0.03049 0.032031,-0.03049 0.078343,-0.09583 0.1193696,-0.192168 a 0.27409537,0.27409537 0 0 1 0.2510524,-0.165934 c 0.097486,-5.01e-4 0.055171,0.01258 0.082438,0.0067 -0.01783,-0.07691 -0.049171,-0.14303 -0.016061,-0.25908 0.050185,-0.175873 0.1933497,-0.325826 0.4089611,-0.449111 a 0.27409537,0.27409537 0 0 1 0.1514877,-0.03641 c 0.00434,-0.0033 0.00155,-6.78e-4 0.00646,-0.0045 0.058276,-0.0433 0.1516474,-0.133336 0.2403477,-0.238735 0.1774084,-0.21081 0.3239905,-0.524248 0.3259882,-0.576514 a 0.27409537,0.27409537 0 0 1 0.3275929,-0.259051 c 0.033779,0.0067 0.1361835,-0.0055 0.2628276,-0.06266 0.1116945,-0.0502 0.238026,-0.12964 0.356503,-0.215719 v -0.07123 -0.069 h 0.1782509 c 0.076852,-0.06555 0.1477107,-0.129496 0.1980575,-0.181996 0.03891,-0.04063 0.067001,-0.0749 0.078688,-0.09104 h 0.00212 c -0.00579,0.01213 -0.042282,0.03461 -0.014458,0.153625 l 0.2671093,-0.0621 v -0.273538 c 0.4882468,-5.5e-5 0.9211239,0.25544 1.3210932,0.578652 0.3999817,0.323232 0.7775787,0.727055 1.1390967,1.092526 0.361518,0.36547 0.71085,0.689782 1.009554,0.853246 0.298702,0.163475 0.488333,0.189697 0.734413,0.02037 0.12294,-0.08458 0.177532,-0.163854 0.208227,-0.262831 0.03072,-0.09894 0.0325,-0.226437 0,-0.386472 -0.06489,-0.320104 -0.272672,-0.747089 -0.517628,-1.199583 C 11.562251,11.927157 11.28475,11.4443 11.094753,10.959519 10.904753,10.474712 10.792508,9.9726472 10.951286,9.4965605 11.111211,9.0170561 11.494912,8.6719478 11.930334,8.3858343 12.365767,8.0997242 12.867488,7.8660101 13.32637,7.6375024 13.785242,7.4089935 14.199484,7.1806395 14.443516,6.9496553 14.687549,6.7186602 14.770689,6.5472418 14.682252,6.2494966 14.596763,5.9616981 14.450151,5.8797157 14.129844,5.8367891 13.809528,5.7938646 13.345336,5.8518734 12.84515,5.9358178 12.344964,6.0197624 11.806503,6.1269249 11.291203,6.1504677 10.775903,6.1740131 10.268606,6.1173654 9.8667971,5.820731 9.4601248,5.5205003 9.2480368,5.0502517 9.1104353,4.5478142 8.9728439,4.0453659 8.9065681,3.4948945 8.8310132,2.9879817 8.7554606,2.4810602 8.6680513,2.0168494 8.5237586,1.713459 8.3794648,1.4100687 8.2391165,1.2781647 7.9285185,1.2702391 Z"
     style="opacity:1;stroke-width:1.11298;fill:url(#oomox)"
     id="path9609"
     class="ColorScheme-Text"/>
  <path
     id="path1867"
     style="opacity:1;stroke-width:1.11298;fill:url(#oomox)"
     class="ColorScheme-Text"
     d="M 7.2018101,8.6066976e-4 V 0.06824834 0.75951509 0.82690288 H 7.9604644 V 0.75951507 0.06824832 8.6066976e-4 Z m 0,1.51513513024 v 0.069561 0.689093 0.069561 h 0.7586543 v -0.069561 -0.689093 -0.069561 z m 0,1.5194826 v 0.067387 0.6912668 0.067388 H 7.9604644 V 3.7941328 3.1028661 3.0354784 Z m 0,1.5173089 v 0.067387 0.6912669 0.067387 H 7.9604644 V 5.3114418 4.6201749 4.5527873 Z m 0,1.5173088 v 0.067388 0.6912668 0.067388 H 7.9604644 V 6.8287506 6.1374838 6.0700961 Z m 0,1.5173088 v 0.067387 0.6912669 0.067387 H 7.9604644 V 8.3460594 7.6547926 7.5874049 Z m 0,1.517309 v 0.067388 0.6912669 0.067383 H 7.9604644 V 9.8633683 9.1721012 9.1047137 Z m 0,1.5173091 v 0.06739 0.691265 0.06739 h 0.7586543 v -0.06739 -0.691265 -0.06739 z m 0,1.517308 v 0.06739 0.691267 0.06739 h 0.7586543 v -0.06739 -0.691267 -0.06739 z m 0,1.517309 v 0.06739 0.691267 0.06739 h 0.7586543 v -0.06739 -0.691267 -0.06739 z m 0,1.517308 V 15.24134 15.932608 16 h 0.7586543 v -0.06739 -0.691268 -0.06739 z" />
</svg>
