<?xml version="1.0" encoding="UTF-8" standalone="no"?>
<svg
   version="1.1"
   id="svg1"
   width="16"
   height="16"
   viewBox="0 0 16 16"
   xmlns:xlink="http://www.w3.org/1999/xlink"
   xmlns="http://www.w3.org/2000/svg"
   xmlns:svg="http://www.w3.org/2000/svg"
   xmlns:rdf="http://www.w3.org/1999/02/22-rdf-syntax-ns#"
   xmlns:cc="http://creativecommons.org/ns#"
   xmlns:dc="http://purl.org/dc/elements/1.1/">
<defs>
   <style id="current-color-scheme" type="text/css">
   .ColorScheme-Text { color: #0abdc6; } .ColorScheme-Highlight { color:#5294e2; }
  </style>
  <linearGradient id="arrongin" x1="0%" x2="0%" y1="0%" y2="100%">
   <stop offset="0%" style="stop-color:#dd9b44; stop-opacity:1"/>
   <stop offset="100%" style="stop-color:#ad6c16; stop-opacity:1"/>
  </linearGradient>
  <linearGradient id="aurora" x1="0%" x2="0%" y1="0%" y2="100%">
   <stop offset="0%" style="stop-color:#09D4DF; stop-opacity:1"/>
   <stop offset="100%" style="stop-color:#9269F4; stop-opacity:1"/>
  </linearGradient>
  <linearGradient id="cyberneon" x1="0%" x2="0%" y1="0%" y2="100%">
    <stop offset="0" style="stop-color:#0abdc6; stop-opacity:1"/>
    <stop offset="1" style="stop-color:#ea00d9; stop-opacity:1"/>
  </linearGradient>
  <linearGradient id="fitdance" x1="0%" x2="0%" y1="0%" y2="100%">
   <stop offset="0%" style="stop-color:#1AD6AB; stop-opacity:1"/>
   <stop offset="100%" style="stop-color:#329DB6; stop-opacity:1"/>
  </linearGradient>
  <linearGradient id="oomox" x1="0%" x2="0%" y1="0%" y2="100%">
   <stop offset="0%" style="stop-color:#0abdc6; stop-opacity:1"/>
   <stop offset="100%" style="stop-color:#b800ff; stop-opacity:1"/>
  </linearGradient>
  <linearGradient id="rainblue" x1="0%" x2="0%" y1="0%" y2="100%">
   <stop offset="0%" style="stop-color:#00F260; stop-opacity:1"/>
   <stop offset="100%" style="stop-color:#0575E6; stop-opacity:1"/>
  </linearGradient>
  <linearGradient id="sunrise" x1="0%" x2="0%" y1="0%" y2="100%">
   <stop offset="0%" style="stop-color: #FF8501; stop-opacity:1"/>
   <stop offset="100%" style="stop-color: #FFCB01; stop-opacity:1"/>
  </linearGradient>
  <linearGradient id="telinkrin" x1="0%" x2="0%" y1="0%" y2="100%">
   <stop offset="0%" style="stop-color: #b2ced6; stop-opacity:1"/>
   <stop offset="100%" style="stop-color: #6da5b7; stop-opacity:1"/>
  </linearGradient>
  <linearGradient id="60spsycho" x1="0%" x2="0%" y1="0%" y2="100%">
   <stop offset="0%" style="stop-color: #df5940; stop-opacity:1"/>
   <stop offset="25%" style="stop-color: #d8d15f; stop-opacity:1"/>
   <stop offset="50%" style="stop-color: #e9882a; stop-opacity:1"/>
   <stop offset="100%" style="stop-color: #279362; stop-opacity:1"/>
  </linearGradient>
  <linearGradient id="90ssummer" x1="0%" x2="0%" y1="0%" y2="100%">
   <stop offset="0%" style="stop-color: #f618c7; stop-opacity:1"/>
   <stop offset="20%" style="stop-color: #94ffab; stop-opacity:1"/>
   <stop offset="50%" style="stop-color: #fbfd54; stop-opacity:1"/>
   <stop offset="100%" style="stop-color: #0f83ae; stop-opacity:1"/>
  </linearGradient>
 </defs>
<metadata
     id="metadata2174">
    <rdf:RDF>
      <cc:Work
         rdf:about="">
        <dc:creator>
          <cc:Agent>
            <dc:title>dreifacherspass</dc:title>
          </cc:Agent>
        </dc:creator>
        <cc:license
           rdf:resource="http://creativecommons.org/licenses/by-sa/4.0/" />
      </cc:Work>
      <cc:License
         rdf:about="http://creativecommons.org/licenses/by-sa/4.0/">
        <cc:permits
           rdf:resource="http://creativecommons.org/ns#Reproduction" />
        <cc:permits
           rdf:resource="http://creativecommons.org/ns#Distribution" />
        <cc:requires
           rdf:resource="http://creativecommons.org/ns#Notice" />
        <cc:requires
           rdf:resource="http://creativecommons.org/ns#Attribution" />
        <cc:permits
           rdf:resource="http://creativecommons.org/ns#DerivativeWorks" />
        <cc:requires
           rdf:resource="http://creativecommons.org/ns#ShareAlike" />
      </cc:License>
    </rdf:RDF>
  </metadata>
  <path
     id="path9619"
     class="ColorScheme-Text"
     d="M 0.52653558,5.0578993 0.51510287,5.6001879 C 2.27006,5.6400625 3.3493047,6.1466554 4.199474,6.889832 5.0496445,7.6330109 5.6644586,8.6355293 6.4028054,9.6650721 7.811863,11.629836 9.7605155,13.620517 14.628274,13.800582 l -0.223288,-0.225574 0.312148,-0.314435 C 9.9379851,13.111784 8.2315801,11.281955 6.8448782,9.3483579 6.1217987,8.3401056 5.4906533,7.2979192 4.5572422,6.4819769 3.623831,5.6660357 2.3835997,5.1000918 0.52653558,5.0578993 Z M 14.787811,10.262045 v 2.930177 l 0.280254,-0.28254 0.264317,0.264306 v -2.911943 z"
     style="stroke-width:1.1666;fill:url(#oomox)" />
  <path
     id="path9609"
     class="ColorScheme-Text"
     d="m 11.187743,1.2345394 v 0.189117 0.5012755 C 10.375764,2.1557631 9.7484179,2.7831099 9.5175855,3.5950881 H 8.8271931 v 0.1891181 1.1278677 h 0.6903924 c 0.2302607,0.8124588 0.8576065,1.4418309 1.6701575,1.6724358 v 0.6903924 h 1.31699 V 6.5845097 c 0.81303,-0.2300332 1.442401,-0.859403 1.672431,-1.6724358 H 14.86756 V 3.5950881 H 14.177164 C 13.946562,2.7825348 13.317203,2.1551914 12.504733,1.9249319 V 1.2345394 Z m 0.378236,0.3782351 h 0.562793 v 0.5605156 h -0.562793 z m -0.378236,0.8703947 v 0.068351 h 1.31699 v -0.068351 c 0.517762,0.189923 0.921652,0.5940975 1.111913,1.1119189 h -0.06603 v 0.1891181 1.1278677 h 0.06836 C 13.429022,5.4307936 13.02351,5.8364648 12.50478,6.0262724 v -0.068351 h -1.31699 v 0.068351 C 10.670051,5.8363225 10.268238,5.42962 10.078102,4.9120739 h 0.06835 V 3.5950881 h -0.06835 C 10.268576,3.0780938 10.670763,2.6733127 11.187743,2.4831692 Z M 9.2054281,3.9733232 H 9.7682233 V 4.5361184 H 9.2054281 Z m 4.7211029,0 h 0.565068 V 4.5361184 H 13.926531 Z M 2.1898571,4.3401651 C 1.9050531,4.3508979 1.6496357,4.3884859 1.4311087,4.440423 0.5219345,4.6568933 0.01582689,5.1374302 1.9673066e-4,5.673103 v 0.00233 C -0.00668622,5.9773194 0.16799632,6.2166061 0.37387384,6.4227916 0.5798552,6.6289794 0.83802572,6.8194554 1.107559,7.0220432 1.6466259,7.42732 2.2176573,7.8790849 2.4564447,8.4028281 l 0.011433,0.027345 0.018234,0.022784 c 0.2838277,0.3754539 0.574249,1.2091893 1.2509093,2.2876359 0.2280909,0.397147 0.4964435,0.786384 0.8065967,1.162042 0.690648,0.835848 1.5619806,1.561137 2.5861232,2.08941 l 0.00688,0.0047 0.00455,0.0023 c 2.0540482,0.922841 3.9182611,0.869749 5.0993421,0.576465 0.603939,-0.150037 1.065132,-0.36118 1.389892,-0.612933 0.324747,-0.251742 0.526336,-0.560425 0.526336,-0.89545 0,-0.345945 -0.204972,-0.641422 -0.496716,-0.8909 -0.291912,-0.249931 -0.687402,-0.475284 -1.171239,-0.706563 -0.88852,-0.424247 -2.238199,-0.920189 -3.0304418,-1.5562302 l -0.0091,-0.0091 -0.0091,-0.00688 C 9.0791444,9.65461 8.7271241,9.2820797 8.3464252,8.8037909 8.1785965,8.5931816 8.0069168,8.3632837 7.8314783,8.1270698 7.2665984,7.2611899 6.5356921,6.2067786 5.3547242,5.3039803 l -0.0091,-0.00688 -0.00688,-0.00688 C 4.554398,4.7749816 3.7950558,4.5114109 3.1240511,4.4016848 2.7886001,4.3468194 2.4746612,4.3294021 2.1898571,4.3401698 Z m 0.018234,0.5445671 c 0.2480794,-0.00933 0.5256237,0.00385 0.8248248,0.052404 0.594906,0.09656 1.2768371,0.3359001 1.9937068,0.8043183 1.1006554,0.8431522 1.7922996,1.8281785 2.3491568,2.6818208 l 0.00233,0.00688 0.00688,0.0091 c 0.1803662,0.242895 0.3599275,0.4807048 0.5377307,0.7040639 0.3922168,0.4924817 0.7697087,0.9021128 1.2030599,1.1962238 0.9140089,0.730749 2.2913249,1.22218 3.1284099,1.622302 0.46215,0.220896 0.824695,0.433906 1.052685,0.628869 0.228082,0.194986 0.305323,0.346341 0.305323,0.476219 0,0.106511 -0.0749,0.277337 -0.316721,0.46481 -0.24186,0.187462 -0.637222,0.378376 -1.187113,0.514951 C 11.044636,14.310854 9.3061095,14.36852 7.3757738,13.504381 6.4224242,13.011561 5.6073953,12.338629 4.9628189,11.558522 4.6706617,11.204656 4.4181749,10.83419 4.2040705,10.460277 l -0.00233,-0.0023 -0.00233,-0.0069 C 3.5666301,9.442399 3.3223818,8.6855556 2.9440477,8.168083 2.6222739,7.4721923 1.9740122,6.9915516 1.4356666,6.586788 1.1650002,6.3833791 0.92008811,6.1966315 0.758944,6.0353859 0.59862235,5.8748577 0.54363216,5.7590817 0.54476376,5.6890505 0.5495935,5.5223522 0.78208825,5.1539364 1.558706,4.9690379 1.7414462,4.9255936 1.9600059,4.894037 2.2080853,4.8847275 Z m 9.3578939,1.4491397 h 0.562793 v 0.5650747 h -0.562793 z m 3.474752,2.8846104 c -0.447509,0 -0.817987,0.3682045 -0.817999,0.8157117 0,0.447504 0.37049,0.81571 0.817999,0.81571 0.447486,0 0.815712,-0.368207 0.815712,-0.81571 0,-0.447506 -0.368226,-0.8157129 -0.815712,-0.8157117 z m 0.02963,3.4268937 -0.929643,0.931918 0.929643,0.929631 L 16,13.577294 15.867847,13.442855 Z m -0.0023,0.530898 0.40102,0.40102 -0.398733,0.398734 -0.40102,-0.40102 z"
     style="opacity:1;stroke-width:1.1666;fill:url(#oomox)" />
</svg>
