<?xml version="1.0" encoding="UTF-8" standalone="no"?>
<svg
   viewBox="0 0 16 16"
   height="16"
   width="16"
   id="svg1"
   version="1.1"
   xmlns:xlink="http://www.w3.org/1999/xlink"
   xmlns="http://www.w3.org/2000/svg"
   xmlns:svg="http://www.w3.org/2000/svg"
   xmlns:rdf="http://www.w3.org/1999/02/22-rdf-syntax-ns#"
   xmlns:cc="http://creativecommons.org/ns#"
   xmlns:dc="http://purl.org/dc/elements/1.1/">
   <defs>
   <style id="current-color-scheme" type="text/css">
   .ColorScheme-Text { color: #0abdc6; } .ColorScheme-Highlight { color:#5294e2; }
  </style>
  <linearGradient id="arrongin" x1="0%" x2="0%" y1="0%" y2="100%">
   <stop offset="0%" style="stop-color:#dd9b44; stop-opacity:1"/>
   <stop offset="100%" style="stop-color:#ad6c16; stop-opacity:1"/>
  </linearGradient>
  <linearGradient id="aurora" x1="0%" x2="0%" y1="0%" y2="100%">
   <stop offset="0%" style="stop-color:#09D4DF; stop-opacity:1"/>
   <stop offset="100%" style="stop-color:#9269F4; stop-opacity:1"/>
  </linearGradient>
  <linearGradient id="cyberneon" x1="0%" x2="0%" y1="0%" y2="100%">
    <stop offset="0" style="stop-color:#0abdc6; stop-opacity:1"/>
    <stop offset="1" style="stop-color:#ea00d9; stop-opacity:1"/>
  </linearGradient>
  <linearGradient id="fitdance" x1="0%" x2="0%" y1="0%" y2="100%">
   <stop offset="0%" style="stop-color:#1AD6AB; stop-opacity:1"/>
   <stop offset="100%" style="stop-color:#329DB6; stop-opacity:1"/>
  </linearGradient>
  <linearGradient id="oomox" x1="0%" x2="0%" y1="0%" y2="100%">
   <stop offset="0%" style="stop-color:#0abdc6; stop-opacity:1"/>
   <stop offset="100%" style="stop-color:#b800ff; stop-opacity:1"/>
  </linearGradient>
  <linearGradient id="rainblue" x1="0%" x2="0%" y1="0%" y2="100%">
   <stop offset="0%" style="stop-color:#00F260; stop-opacity:1"/>
   <stop offset="100%" style="stop-color:#0575E6; stop-opacity:1"/>
  </linearGradient>
  <linearGradient id="sunrise" x1="0%" x2="0%" y1="0%" y2="100%">
   <stop offset="0%" style="stop-color: #FF8501; stop-opacity:1"/>
   <stop offset="100%" style="stop-color: #FFCB01; stop-opacity:1"/>
  </linearGradient>
  <linearGradient id="telinkrin" x1="0%" x2="0%" y1="0%" y2="100%">
   <stop offset="0%" style="stop-color: #b2ced6; stop-opacity:1"/>
   <stop offset="100%" style="stop-color: #6da5b7; stop-opacity:1"/>
  </linearGradient>
  <linearGradient id="60spsycho" x1="0%" x2="0%" y1="0%" y2="100%">
   <stop offset="0%" style="stop-color: #df5940; stop-opacity:1"/>
   <stop offset="25%" style="stop-color: #d8d15f; stop-opacity:1"/>
   <stop offset="50%" style="stop-color: #e9882a; stop-opacity:1"/>
   <stop offset="100%" style="stop-color: #279362; stop-opacity:1"/>
  </linearGradient>
  <linearGradient id="90ssummer" x1="0%" x2="0%" y1="0%" y2="100%">
   <stop offset="0%" style="stop-color: #f618c7; stop-opacity:1"/>
   <stop offset="20%" style="stop-color: #94ffab; stop-opacity:1"/>
   <stop offset="50%" style="stop-color: #fbfd54; stop-opacity:1"/>
   <stop offset="100%" style="stop-color: #0f83ae; stop-opacity:1"/>
  </linearGradient>
 </defs>
 <metadata
     id="metadata1">
    <rdf:RDF>
      <cc:Work
         rdf:about="">
        <dc:creator>
          <cc:Agent>
            <dc:title>dreifacherspass</dc:title>
          </cc:Agent>
        </dc:creator>
        <cc:license
           rdf:resource="http://creativecommons.org/licenses/by-sa/4.0/" />
      </cc:Work>
      <cc:License
         rdf:about="http://creativecommons.org/licenses/by-sa/4.0/">
        <cc:permits
           rdf:resource="http://creativecommons.org/ns#Reproduction" />
        <cc:permits
           rdf:resource="http://creativecommons.org/ns#Distribution" />
        <cc:requires
           rdf:resource="http://creativecommons.org/ns#Notice" />
        <cc:requires
           rdf:resource="http://creativecommons.org/ns#Attribution" />
        <cc:permits
           rdf:resource="http://creativecommons.org/ns#DerivativeWorks" />
        <cc:requires
           rdf:resource="http://creativecommons.org/ns#ShareAlike" />
      </cc:License>
    </rdf:RDF>
  </metadata>
  <path
     class="ColorScheme-Text"
     id="path2047"
     d="M 0.83742068,2.6785711 0.23342301,3.5595747 15.16258,13.771301 l 0.603997,-0.87892 z"
     style="stroke-width:1.06637;fill:url(#oomox)" />
  <path
     style="opacity:0.5;stroke-width:1.06637;fill:url(#oomox)"
     d="M 2.6663647,1.4005265 2.0821328,2.1558478 0.37493387,1.4514894 0,2.3615093 4.9468807,4.4054163 5.8259629,5.0824713 6.7341634,7.2665226 C 6.5178976,7.1621065 6.3665719,7.030165 6.1153421,6.9407346 L 5.7840929,7.8707772 C 6.5408395,8.140151 7.0083745,8.4707937 7.3857393,8.8281161 l 0.030938,0.074624 0.3749265,1.1575489 -0.311224,-0.1383247 -0.4004105,0.9027397 1.1193231,0.495053 0.014567,0.04732 0.05278,-0.01638 0.2074787,0.09283 0.7826239,1.87646 0.910017,-0.380384 L 9.7845472,12.022299 15.599588,14.599474 16,13.69855 9.2330827,10.699119 9.0001152,10.138547 9.3168005,10.022064 C 9.1765452,9.6392651 9.0044868,9.2583201 8.7671504,8.8918185 8.6457294,8.7043109 8.4401518,8.5460422 8.2811953,8.3712914 L 7.6805822,6.5148453 8.7507692,7.3393278 8.8344871,7.2319408 C 9.111716,7.7758856 9.3458101,8.3280063 9.8737363,8.8426825 10.219308,9.1795779 10.629215,9.5025328 11.120464,9.8072996 L 11.640992,8.9700849 C 11.205673,8.7000134 10.853383,8.4208563 10.561711,8.1364971 9.923713,7.5145175 9.5690091,6.8642359 9.304061,6.179952 L 9.0110377,6.2946173 8.4249813,5.8414245 8.612442,5.9196934 8.9891954,5.0078465 6.9161654,4.1524261 6.2846048,2.1977056 5.3454666,2.4998341 5.7204005,3.6573756 5.4473924,3.5463518 Z M 3.3634425,8.7571377 2.5116663,9.2558325 c 0.3903286,0.6681248 0.5850407,1.4759575 0.8717941,2.3642255 0.1588899,0.492217 0.349112,1.007735 0.6297336,1.523379 L 4.8795342,12.672048 C 4.6416678,12.234967 4.4726371,11.780905 4.3226082,11.316114 4.0518465,10.477372 3.8513848,9.5923456 3.3634425,8.7571377 Z"
     id="path9609"
     class="ColorScheme-Text"/>
</svg>
