<?xml version="1.0" encoding="UTF-8" standalone="no"?>
<svg
   version="1.1"
   id="svg1"
   width="16"
   height="16"
   viewBox="0 0 16 16"
   xmlns:xlink="http://www.w3.org/1999/xlink"
   xmlns="http://www.w3.org/2000/svg"
   xmlns:svg="http://www.w3.org/2000/svg"
   xmlns:rdf="http://www.w3.org/1999/02/22-rdf-syntax-ns#"
   xmlns:cc="http://creativecommons.org/ns#"
   xmlns:dc="http://purl.org/dc/elements/1.1/">
  <defs>
   <style id="current-color-scheme" type="text/css">
   .ColorScheme-Text { color: #0abdc6; } .ColorScheme-Highlight { color:#5294e2; }
  </style>
  <linearGradient id="arrongin" x1="0%" x2="0%" y1="0%" y2="100%">
   <stop offset="0%" style="stop-color:#dd9b44; stop-opacity:1"/>
   <stop offset="100%" style="stop-color:#ad6c16; stop-opacity:1"/>
  </linearGradient>
  <linearGradient id="aurora" x1="0%" x2="0%" y1="0%" y2="100%">
   <stop offset="0%" style="stop-color:#09D4DF; stop-opacity:1"/>
   <stop offset="100%" style="stop-color:#9269F4; stop-opacity:1"/>
  </linearGradient>
  <linearGradient id="cyberneon" x1="0%" x2="0%" y1="0%" y2="100%">
    <stop offset="0" style="stop-color:#0abdc6; stop-opacity:1"/>
    <stop offset="1" style="stop-color:#ea00d9; stop-opacity:1"/>
  </linearGradient>
  <linearGradient id="fitdance" x1="0%" x2="0%" y1="0%" y2="100%">
   <stop offset="0%" style="stop-color:#1AD6AB; stop-opacity:1"/>
   <stop offset="100%" style="stop-color:#329DB6; stop-opacity:1"/>
  </linearGradient>
  <linearGradient id="oomox" x1="0%" x2="0%" y1="0%" y2="100%">
   <stop offset="0%" style="stop-color:#0abdc6; stop-opacity:1"/>
   <stop offset="100%" style="stop-color:#b800ff; stop-opacity:1"/>
  </linearGradient>
  <linearGradient id="rainblue" x1="0%" x2="0%" y1="0%" y2="100%">
   <stop offset="0%" style="stop-color:#00F260; stop-opacity:1"/>
   <stop offset="100%" style="stop-color:#0575E6; stop-opacity:1"/>
  </linearGradient>
  <linearGradient id="sunrise" x1="0%" x2="0%" y1="0%" y2="100%">
   <stop offset="0%" style="stop-color: #FF8501; stop-opacity:1"/>
   <stop offset="100%" style="stop-color: #FFCB01; stop-opacity:1"/>
  </linearGradient>
  <linearGradient id="telinkrin" x1="0%" x2="0%" y1="0%" y2="100%">
   <stop offset="0%" style="stop-color: #b2ced6; stop-opacity:1"/>
   <stop offset="100%" style="stop-color: #6da5b7; stop-opacity:1"/>
  </linearGradient>
  <linearGradient id="60spsycho" x1="0%" x2="0%" y1="0%" y2="100%">
   <stop offset="0%" style="stop-color: #df5940; stop-opacity:1"/>
   <stop offset="25%" style="stop-color: #d8d15f; stop-opacity:1"/>
   <stop offset="50%" style="stop-color: #e9882a; stop-opacity:1"/>
   <stop offset="100%" style="stop-color: #279362; stop-opacity:1"/>
  </linearGradient>
  <linearGradient id="90ssummer" x1="0%" x2="0%" y1="0%" y2="100%">
   <stop offset="0%" style="stop-color: #f618c7; stop-opacity:1"/>
   <stop offset="20%" style="stop-color: #94ffab; stop-opacity:1"/>
   <stop offset="50%" style="stop-color: #fbfd54; stop-opacity:1"/>
   <stop offset="100%" style="stop-color: #0f83ae; stop-opacity:1"/>
  </linearGradient>
 </defs>
  <path
     id="path9609"
     class="ColorScheme-Text"
     d="M 5.1523391,3.055704 C 4.7244894,3.0447052 4.2991515,3.1158122 3.9002858,3.2494439 3.3695204,3.4272648 2.8891957,3.7123008 2.4674435,4.056002 1.7419039,4.6472683 1.1868121,5.4120374 0.78750349,6.235313 0.36809862,7.1000034 0.11238343,8.0409624 0.02756933,8.9958405 -0.04551905,9.8186251 0.00768267,10.710334 0.42126321,11.502021 c 0.20751301,0.397187 0.5041632,0.75969 0.88684999,1.024126 0.3844137,0.265615 0.8474482,0.425467 1.3313109,0.419075 0.3920018,-0.0052 0.7633212,-0.12007 1.0904326,-0.288017 0.3258807,-0.16732 0.6070551,-0.385193 0.8578424,-0.616963 0.4632414,-0.428089 0.8219067,-0.872224 1.2432478,-1.111669 0.318237,-0.180852 0.7490603,-0.256827 1.1154412,-0.22741 v -0.94228 0.13883 C 6.440074,9.8689758 5.8796584,9.9855957 5.4372505,10.237017 4.8365952,10.578362 4.4474846,11.085162 4.047404,11.45488 3.8315895,11.654326 3.6050201,11.827747 3.3656905,11.950624 3.1275916,12.072875 2.8728921,12.144778 2.6295816,12.14799 2.3312101,12.151931 2.0195534,12.049437 1.7603452,11.870333 1.4994421,11.690047 1.2810337,11.429906 1.1262901,11.133709 0.8154053,10.538619 0.75531029,9.8019849 0.82065672,9.0662898 0.89707376,8.2059675 1.1280432,7.3568352 1.5039245,6.581868 1.8612107,5.8452288 2.3520197,5.176933 2.9704397,4.6729634 3.3294606,4.380387 3.7288117,4.1453064 4.1530808,4.0031637 4.5762943,3.8613765 5.0293431,3.8121399 5.4548641,3.8798761 c 0.4821282,0.076746 0.9519472,0.306368 1.3608385,0.6226583 0.4103341,0.3174094 0.7663924,0.7222029 1.0925039,1.1629559 0.6830741,0.9231676 1.2158075,1.9763491 1.7737002,3.0366333 0.2202942,0.4186862 0.4512313,0.8521665 0.7480193,1.262933 0.297423,0.4116284 0.664338,0.8003924 1.125657,1.0826614 0.45778,0.28011 0.98942,0.439294 1.533339,0.440834 0.544891,0.0016 1.087209,-0.156294 1.542664,-0.468291 0.386557,-0.264812 0.688621,-0.62517 0.904461,-1.0220512 0.215314,-0.3958766 0.345028,-0.8248721 0.412864,-1.2530904 0.07072,-0.4463864 0.07918,-0.9244938 -0.04662,-1.3939919 -0.12687,-0.473564 -0.392655,-0.927069 -0.816403,-1.2334052 -0.287587,-0.207903 -0.629283,-0.3319519 -0.983201,-0.357952 -0.174848,-0.012845 -0.449392,-0.00152 -0.619839,0.033154 V 6.616056 c 0.147356,-0.052539 0.40674,-0.07507 0.5613,-0.063715 0.204137,0.014996 0.409629,0.089875 0.575523,0.2097965 0.245165,0.1772374 0.428181,0.4729912 0.51491,0.7967157 0.08782,0.3277878 0.08589,0.6941208 0.02746,1.0629763 -0.05623,0.3549151 -0.161264,0.6959987 -0.324799,0.9966698 -0.162966,0.2996658 -0.386692,0.5605817 -0.65426,0.7438767 -0.313641,0.214852 -0.705176,0.332115 -1.092504,0.331017 -0.388304,-0.0011 -0.782573,-0.118354 -1.11996,-0.324801 C 11.627997,10.159017 11.330374,9.851561 11.075898,9.4993565 10.820789,9.1462847 10.60544,8.745459 10.38693,8.3301836 9.8333297,7.2780498 9.2851946,6.1876942 8.5484784,5.192019 8.1962263,4.7159433 7.7928596,4.2545849 7.3010878,3.8741763 6.807852,3.4926484 6.2244259,3.1976213 5.5802232,3.0950742 5.4379374,3.072424 5.2949566,3.0593721 5.1523391,3.055704 Z"
     style="opacity:0.7;stroke-width:1.12851;fill:url(#oomox)" />
  <path
     style="fill:url(#oomox);stroke-width:1.12851"
     d="m 6.8888397,9.5093229 0.00132,0.2534726 0.00823,1.5759295 1.8294005,-0.0096 -0.00955,-1.8294003 z m 0.5095864,0.5042981 0.8133121,-0.0042 0.00425,0.815515 -0.8133108,0.0043 z"
     id="path2177"
     class="ColorScheme-Text" />
  <path
     class="ColorScheme-Text"
     id="path4655"
     d="m 11.728376,5.510993 0.0014,0.2534726 0.0082,1.5759293 1.8294,-0.00959 -0.0096,-1.8294003 z m 0.509586,0.5042981 0.813313,-0.00424 0.0043,0.8155153 -0.813311,0.00429 z"
     style="fill:url(#oomox);stroke-width:1.12851" />
    <metadata
     id="metadata1906">
    <rdf:RDF>
      <cc:Work
         rdf:about="">
        <dc:format>image/svg+xml</dc:format>
        <dc:type
           rdf:resource="http://purl.org/dc/dcmitype/StillImage" />
        <cc:license
           rdf:resource="http://creativecommons.org/licenses/by-sa/4.0/" />
        <dc:creator>
          <cc:Agent>
            <dc:title>dreifacherspass</dc:title>
          </cc:Agent>
        </dc:creator>
      </cc:Work>
      <cc:License
         rdf:about="http://creativecommons.org/licenses/by-sa/4.0/">
        <cc:permits
           rdf:resource="http://creativecommons.org/ns#Reproduction" />
        <cc:permits
           rdf:resource="http://creativecommons.org/ns#Distribution" />
        <cc:requires
           rdf:resource="http://creativecommons.org/ns#Notice" />
        <cc:requires
           rdf:resource="http://creativecommons.org/ns#Attribution" />
        <cc:permits
           rdf:resource="http://creativecommons.org/ns#DerivativeWorks" />
        <cc:requires
           rdf:resource="http://creativecommons.org/ns#ShareAlike" />
      </cc:License>
    </rdf:RDF>
  </metadata>
</svg>
