<?xml version="1.0" encoding="UTF-8" standalone="no"?>
<svg
   width="16"
   height="16"
   version="1.1"
   id="svg29"
   xmlns="http://www.w3.org/2000/svg"
   xmlns:svg="http://www.w3.org/2000/svg">
   <defs>
      <style id="current-color-scheme" type="text/css">
         .ColorScheme-Text { color: #0abdc6; } .ColorScheme-Highlight { color:#5294e2; }
      </style>
      <linearGradient id="arrongin" x1="0%" x2="0%" y1="0%" y2="100%">
         <stop offset="0%" style="stop-color:#dd9b44; stop-opacity:1"/>
         <stop offset="100%" style="stop-color:#ad6c16; stop-opacity:1"/>
      </linearGradient>
      <linearGradient id="aurora" x1="0%" x2="0%" y1="0%" y2="100%">
         <stop offset="0%" style="stop-color:#09D4DF; stop-opacity:1"/>
         <stop offset="100%" style="stop-color:#9269F4; stop-opacity:1"/>
      </linearGradient>
      <linearGradient id="cyberneon" x1="0%" x2="0%" y1="0%" y2="100%">
         <stop offset="0" style="stop-color:#0abdc6; stop-opacity:1"/>
         <stop offset="1" style="stop-color:#ea00d9; stop-opacity:1"/>
      </linearGradient>
      <linearGradient id="fitdance" x1="0%" x2="0%" y1="0%" y2="100%">
         <stop offset="0%" style="stop-color:#1AD6AB; stop-opacity:1"/>
         <stop offset="100%" style="stop-color:#329DB6; stop-opacity:1"/>
      </linearGradient>
      <linearGradient id="oomox" x1="0%" x2="0%" y1="0%" y2="100%">
         <stop offset="0%" style="stop-color:#0abdc6; stop-opacity:1"/>
         <stop offset="100%" style="stop-color:#b800ff; stop-opacity:1"/>
      </linearGradient>
      <linearGradient id="rainblue" x1="0%" x2="0%" y1="0%" y2="100%">
         <stop offset="0%" style="stop-color:#00F260; stop-opacity:1"/>
         <stop offset="100%" style="stop-color:#0575E6; stop-opacity:1"/>
      </linearGradient>
      <linearGradient id="sunrise" x1="0%" x2="0%" y1="0%" y2="100%">
         <stop offset="0%" style="stop-color: #FF8501; stop-opacity:1"/>
         <stop offset="100%" style="stop-color: #FFCB01; stop-opacity:1"/>
      </linearGradient>
      <linearGradient id="telinkrin" x1="0%" x2="0%" y1="0%" y2="100%">
         <stop offset="0%" style="stop-color: #b2ced6; stop-opacity:1"/>
         <stop offset="100%" style="stop-color: #6da5b7; stop-opacity:1"/>
      </linearGradient>
      <linearGradient id="60spsycho" x1="0%" x2="0%" y1="0%" y2="100%">
         <stop offset="0%" style="stop-color: #df5940; stop-opacity:1"/>
         <stop offset="25%" style="stop-color: #d8d15f; stop-opacity:1"/>
         <stop offset="50%" style="stop-color: #e9882a; stop-opacity:1"/>
         <stop offset="100%" style="stop-color: #279362; stop-opacity:1"/>
      </linearGradient>
      <linearGradient id="90ssummer" x1="0%" x2="0%" y1="0%" y2="100%">
         <stop offset="0%" style="stop-color: #f618c7; stop-opacity:1"/>
         <stop offset="20%" style="stop-color: #94ffab; stop-opacity:1"/>
         <stop offset="50%" style="stop-color: #fbfd54; stop-opacity:1"/>
         <stop offset="100%" style="stop-color: #0f83ae; stop-opacity:1"/>
      </linearGradient>
   </defs>
  <path
     style="fill:url(#oomox);stroke-width:1.07197"
     d="M 7.7402344,5.28125 7.6230469,6.6933594 A 4.2113439,4.2113439 0 0 0 6.390625,7.40625 L 5.1074219,6.8007812 3.7675781,9.1230469 4.9316406,9.9296875 a 4.2113439,4.2113439 0 0 0 -0.0625,0.7109375 4.2113439,4.2113439 0 0 0 0.060547,0.712891 l -1.1621094,0.80664 1.3398438,2.322266 1.2792968,-0.603516 A 4.2113439,4.2113439 0 0 0 7.623047,14.585938 L 7.7402344,16 h 2.6796876 l 0.117187,-1.412109 a 4.2113439,4.2113439 0 0 0 1.230469,-0.710938 l 1.283203,0.605469 1.339844,-2.322266 -1.164062,-0.808593 a 4.2113439,4.2113439 0 0 0 0.06445,-0.710938 4.2113439,4.2113439 0 0 0 -0.0625,-0.7128906 L 14.390625,9.1230469 13.050781,6.8007812 11.771484,7.4023437 A 4.2113439,4.2113439 0 0 0 10.539063,6.6953125 L 10.419922,5.28125 Z m 1.3398437,3.828125 a 1.5314173,1.5314173 0 0 1 1.5312499,1.53125 1.5314173,1.5314173 0 0 1 -1.5312499,1.53125 1.5314173,1.5314173 0 0 1 -1.53125,-1.53125 1.5314173,1.5314173 0 0 1 1.53125,-1.53125 z"
     id="path35"
     class="ColorScheme-Text"/>
  <path
     style="fill:url(#oomox);stroke-width:1.07197"
     d="M 3.9121094,0 2.5195313,0.8046875 2.8828125,1.5722656 A 2.526742,2.526742 0 0 0 2.4570313,2.3105469 L 1.609375,2.3828125 V 3.9902344 L 2.4570313,4.0625 A 2.526742,2.526742 0 0 0 2.6367188,4.4511719 2.526742,2.526742 0 0 0 2.8828125,4.8027344 L 2.5195313,5.5683594 3.9121094,6.375 4.3984375,5.6757812 A 2.526742,2.526742 0 0 0 5.25,5.6738281 L 5.7363281,6.375 7.1289062,5.5722656 6.765625,4.8007812 A 2.526742,2.526742 0 0 0 7.1933594,4.0625 L 8.0410156,3.9902344 V 2.3828125 L 7.1933594,2.3144531 A 2.526742,2.526742 0 0 0 7.0136719,1.9238281 2.526742,2.526742 0 0 0 6.765625,1.5722656 L 7.1289062,0.8046875 5.7363281,0 5.2519531,0.69726562 a 2.526742,2.526742 0 0 0 -0.8535156,0.001953 z m 0.890625,2.2695313 A 0.91882892,0.91882892 0 0 1 5.6210937,2.7285156 0.91882892,0.91882892 0 0 1 5.2832031,3.9824219 0.91882892,0.91882892 0 0 1 4.0292969,3.6464844 0.91882892,0.91882892 0 0 1 4.3652344,2.390625 a 0.91882892,0.91882892 0 0 1 0.4375,-0.1210937 z"
     id="path34"
     class="ColorScheme-Text"/>
</svg>
