<?xml version="1.0" encoding="UTF-8" standalone="no"?>
<svg
   width="16"
   height="16"
   version="1.1"
   id="svg1"
   xmlns:xlink="http://www.w3.org/1999/xlink"
   xmlns="http://www.w3.org/2000/svg"
   xmlns:svg="http://www.w3.org/2000/svg"
   xmlns:rdf="http://www.w3.org/1999/02/22-rdf-syntax-ns#"
   xmlns:cc="http://creativecommons.org/ns#"
   xmlns:dc="http://purl.org/dc/elements/1.1/">
   <defs>
      <style id="current-color-scheme" type="text/css">
         .ColorScheme-Text { color: #0abdc6; } .ColorScheme-Highlight { color:#5294e2; }
      </style>
      <linearGradient id="arrongin" x1="0%" x2="0%" y1="0%" y2="100%">
         <stop offset="0%" style="stop-color:#dd9b44; stop-opacity:1"/>
         <stop offset="100%" style="stop-color:#ad6c16; stop-opacity:1"/>
      </linearGradient>
      <linearGradient id="aurora" x1="0%" x2="0%" y1="0%" y2="100%">
         <stop offset="0%" style="stop-color:#09D4DF; stop-opacity:1"/>
         <stop offset="100%" style="stop-color:#9269F4; stop-opacity:1"/>
      </linearGradient>
      <linearGradient id="cyberneon" x1="0%" x2="0%" y1="0%" y2="100%">
         <stop offset="0" style="stop-color:#0abdc6; stop-opacity:1"/>
         <stop offset="1" style="stop-color:#ea00d9; stop-opacity:1"/>
      </linearGradient>
      <linearGradient id="fitdance" x1="0%" x2="0%" y1="0%" y2="100%">
         <stop offset="0%" style="stop-color:#1AD6AB; stop-opacity:1"/>
         <stop offset="100%" style="stop-color:#329DB6; stop-opacity:1"/>
      </linearGradient>
      <linearGradient id="oomox" x1="0%" x2="0%" y1="0%" y2="100%">
         <stop offset="0%" style="stop-color:#0abdc6; stop-opacity:1"/>
         <stop offset="100%" style="stop-color:#b800ff; stop-opacity:1"/>
      </linearGradient>
      <linearGradient id="rainblue" x1="0%" x2="0%" y1="0%" y2="100%">
         <stop offset="0%" style="stop-color:#00F260; stop-opacity:1"/>
         <stop offset="100%" style="stop-color:#0575E6; stop-opacity:1"/>
      </linearGradient>
      <linearGradient id="sunrise" x1="0%" x2="0%" y1="0%" y2="100%">
         <stop offset="0%" style="stop-color: #FF8501; stop-opacity:1"/>
         <stop offset="100%" style="stop-color: #FFCB01; stop-opacity:1"/>
      </linearGradient>
      <linearGradient id="telinkrin" x1="0%" x2="0%" y1="0%" y2="100%">
         <stop offset="0%" style="stop-color: #b2ced6; stop-opacity:1"/>
         <stop offset="100%" style="stop-color: #6da5b7; stop-opacity:1"/>
      </linearGradient>
      <linearGradient id="60spsycho" x1="0%" x2="0%" y1="0%" y2="100%">
         <stop offset="0%" style="stop-color: #df5940; stop-opacity:1"/>
         <stop offset="25%" style="stop-color: #d8d15f; stop-opacity:1"/>
         <stop offset="50%" style="stop-color: #e9882a; stop-opacity:1"/>
         <stop offset="100%" style="stop-color: #279362; stop-opacity:1"/>
      </linearGradient>
      <linearGradient id="90ssummer" x1="0%" x2="0%" y1="0%" y2="100%">
         <stop offset="0%" style="stop-color: #f618c7; stop-opacity:1"/>
         <stop offset="20%" style="stop-color: #94ffab; stop-opacity:1"/>
         <stop offset="50%" style="stop-color: #fbfd54; stop-opacity:1"/>
         <stop offset="100%" style="stop-color: #0f83ae; stop-opacity:1"/>
      </linearGradient>
   </defs>
  <path
     id="path18"
     class="ColorScheme-Text"
     style="fill:url(#oomox)"
     d="m 8,0.666992 c -1.8409564,0 -3.3339844,1.4930345 -3.3339844,3.3339844 0,1.8409496 1.493028,3.3320312 3.3339844,3.3320312 1.5671868,0 2.881968,-1.081654 3.238281,-2.5390625 0.06224,-0.2545801 0.0957,-0.5192113 0.0957,-0.7929687 C 11.333987,2.1600265 9.840943,0.666992 8,0.666992 Z m 0,0.6660156 c 1.4727637,0 2.666016,1.1952097 2.666016,2.6679688 C 10.666016,5.4737341 9.4727637,6.666992 8,6.666992 6.5272363,6.666992 5.3339844,5.4737341 5.3339844,4.0009764 5.3339844,2.5282173 6.5272363,1.3330076 8,1.3330076 Z M 8,8.666992 c -3.3237067,0 -6,2.476894 -6,5.554688 v 1.111328 H 14 V 14.22168 C 14,11.143886 11.323694,8.666992 8,8.666992 Z m 0,0.6660156 c 2.954681,0 5.333984,2.3793104 5.333984,5.3339844 H 2.6660156 C 2.6660156,11.712318 5.0453193,9.3330076 8,9.3330076 Z" />
  <path
     id="path17"
     class="ColorScheme-Text"
     style="fill:url(#oomox)"
     d="m 12.666016,3.3330076 c -0.39298,0 -0.755302,0.1163824 -1.0625,0.3125 0.02879,0.3095008 0.0064,0.6151489 -0.0039,0.890625 C 11.851007,4.1988987 12.245385,4.0013364 12.666016,4.0009764 13.402393,4.0009764 14,4.5966298 14,5.3330076 14,6.0693855 13.402393,6.666992 12.666016,6.666992 11.972318,6.6666213 11.394795,6.1337426 11.337891,5.4423826 11.214995,5.7220347 11.028963,5.9572454 10.875,6.1767576 l -0.002,0.00195 c 0.317333,0.6798167 0.990949,1.1542968 1.792969,1.1542968 1.107458,0 2,-0.8920022 2,-2 0,-1.1079978 -0.892542,-2 -2,-2 z m -0.01563,4.6679688 c -0.841253,3.253e-4 -1.597462,0.3185769 -2.183594,0.8261718 0.253356,0.1040977 0.510842,0.2231736 0.761719,0.3378907 0.0033,0.00167 0.0066,0.00413 0.0098,0.00586 0.410172,-0.2999534 0.889357,-0.5039062 1.41211,-0.5039062 1.484569,3.33e-5 2.68164,1.558012 2.68164,2.666016 h -1.818359 c 0.130774,0.226062 0.200545,0.433376 0.298828,0.667968 H 16 V 11.333008 C 16,9.486767 14.506527,8.0016784 12.652344,8.0009764 Z" />
  <path
     id="path16"
     class="ColorScheme-Text"
     style="fill:url(#oomox)"
     d="m 3.3320312,3.3330076 c -1.1074577,7e-7 -1.9980468,0.8920022 -1.9980468,2 0,1.1079978 0.8905891,2 1.9980468,2 0.8020184,0 1.4775892,-0.4744801 1.7949219,-1.1542968 -6.666e-4,-8.666e-4 -0.00324,-0.00109 -0.00391,-0.00195 C 4.9737503,5.9571023 4.7856974,5.7108375 4.6601562,5.4423826 c -0.056904,0.69136 -0.6344277,1.2242387 -1.328125,1.2246094 -0.7363779,0 -1.3339843,-0.5976065 -1.3339843,-1.3339844 0,-0.7363778 0.5976064,-1.3320312 1.3339843,-1.3320312 0.4206305,3.6e-4 0.8169553,0.1979236 1.0683594,0.5351562 -0.011533,-0.2722247 -0.038132,-0.5839109 -0.00586,-0.890625 -0.3071992,-0.1961176 -0.6695213,-0.3125 -1.0625,-0.3125 z m 0.015625,4.6679688 C 1.4934732,8.0016784 0,9.486767 0,11.333008 v 0.667968 H 2.1875 C 2.2746159,11.794112 2.3616803,11.55518 2.4863281,11.333008 H 0.66796875 c 0,-1.108004 1.19707025,-2.6659827 2.68164065,-2.666016 0.5227523,0 1.0019063,0.2039694 1.4121094,0.5039062 C 4.9954683,9.0641018 5.2635604,8.9357606 5.5332031,8.8271482 4.947071,8.3195533 4.190861,8.0013017 3.3496094,8.0009764 Z" />
  <metadata
     id="metadata1">
    <rdf:RDF>
      <cc:Work
         rdf:about="">
        <dc:creator>
          <cc:Agent>
            <dc:title>dreifacherspass</dc:title>
          </cc:Agent>
        </dc:creator>
        <cc:license
           rdf:resource="http://creativecommons.org/licenses/by-sa/4.0/" />
      </cc:Work>
      <cc:License
         rdf:about="http://creativecommons.org/licenses/by-sa/4.0/">
        <cc:permits
           rdf:resource="http://creativecommons.org/ns#Reproduction" />
        <cc:permits
           rdf:resource="http://creativecommons.org/ns#Distribution" />
        <cc:requires
           rdf:resource="http://creativecommons.org/ns#Notice" />
        <cc:requires
           rdf:resource="http://creativecommons.org/ns#Attribution" />
        <cc:permits
           rdf:resource="http://creativecommons.org/ns#DerivativeWorks" />
        <cc:requires
           rdf:resource="http://creativecommons.org/ns#ShareAlike" />
      </cc:License>
    </rdf:RDF>
  </metadata>
</svg>
