<?xml version="1.0" encoding="UTF-8" standalone="no"?>
<svg
   width="16"
   height="16"
   version="1.1"
   id="svg29"
   xmlns="http://www.w3.org/2000/svg"
   xmlns:svg="http://www.w3.org/2000/svg"
   xmlns:rdf="http://www.w3.org/1999/02/22-rdf-syntax-ns#"
   xmlns:cc="http://creativecommons.org/ns#"
   xmlns:dc="http://purl.org/dc/elements/1.1/">
   <defs>
      <style id="current-color-scheme" type="text/css">
         .ColorScheme-Text { color: #0abdc6; } .ColorScheme-Highlight { color:#5294e2; }
      </style>
      <linearGradient id="arrongin" x1="0%" x2="0%" y1="0%" y2="100%">
         <stop offset="0%" style="stop-color:#dd9b44; stop-opacity:1"/>
         <stop offset="100%" style="stop-color:#ad6c16; stop-opacity:1"/>
      </linearGradient>
      <linearGradient id="aurora" x1="0%" x2="0%" y1="0%" y2="100%">
         <stop offset="0%" style="stop-color:#09D4DF; stop-opacity:1"/>
         <stop offset="100%" style="stop-color:#9269F4; stop-opacity:1"/>
      </linearGradient>
      <linearGradient id="cyberneon" x1="0%" x2="0%" y1="0%" y2="100%">
         <stop offset="0" style="stop-color:#0abdc6; stop-opacity:1"/>
         <stop offset="1" style="stop-color:#ea00d9; stop-opacity:1"/>
      </linearGradient>
      <linearGradient id="fitdance" x1="0%" x2="0%" y1="0%" y2="100%">
         <stop offset="0%" style="stop-color:#1AD6AB; stop-opacity:1"/>
         <stop offset="100%" style="stop-color:#329DB6; stop-opacity:1"/>
      </linearGradient>
      <linearGradient id="oomox" x1="0%" x2="0%" y1="0%" y2="100%">
         <stop offset="0%" style="stop-color:#0abdc6; stop-opacity:1"/>
         <stop offset="100%" style="stop-color:#b800ff; stop-opacity:1"/>
      </linearGradient>
      <linearGradient id="rainblue" x1="0%" x2="0%" y1="0%" y2="100%">
         <stop offset="0%" style="stop-color:#00F260; stop-opacity:1"/>
         <stop offset="100%" style="stop-color:#0575E6; stop-opacity:1"/>
      </linearGradient>
      <linearGradient id="sunrise" x1="0%" x2="0%" y1="0%" y2="100%">
         <stop offset="0%" style="stop-color: #FF8501; stop-opacity:1"/>
         <stop offset="100%" style="stop-color: #FFCB01; stop-opacity:1"/>
      </linearGradient>
      <linearGradient id="telinkrin" x1="0%" x2="0%" y1="0%" y2="100%">
         <stop offset="0%" style="stop-color: #b2ced6; stop-opacity:1"/>
         <stop offset="100%" style="stop-color: #6da5b7; stop-opacity:1"/>
      </linearGradient>
      <linearGradient id="60spsycho" x1="0%" x2="0%" y1="0%" y2="100%">
         <stop offset="0%" style="stop-color: #df5940; stop-opacity:1"/>
         <stop offset="25%" style="stop-color: #d8d15f; stop-opacity:1"/>
         <stop offset="50%" style="stop-color: #e9882a; stop-opacity:1"/>
         <stop offset="100%" style="stop-color: #279362; stop-opacity:1"/>
      </linearGradient>
      <linearGradient id="90ssummer" x1="0%" x2="0%" y1="0%" y2="100%">
         <stop offset="0%" style="stop-color: #f618c7; stop-opacity:1"/>
         <stop offset="20%" style="stop-color: #94ffab; stop-opacity:1"/>
         <stop offset="50%" style="stop-color: #fbfd54; stop-opacity:1"/>
         <stop offset="100%" style="stop-color: #0f83ae; stop-opacity:1"/>
      </linearGradient>
   </defs>
  <path
     d="M 7.4667969,8 A 1.0667733,1.0667733 0 0 0 6.4003906,9.0664063 v 2.1328127 a 1.0667733,1.0667733 0 0 0 1.0664063,1.068359 H 14.933594 A 1.0667733,1.0667733 0 0 0 16,11.199219 V 9.0664063 A 1.0667733,1.0667733 0 0 0 14.933594,8 H 13.867188 A 1.0667733,1.0667733 0 0 0 12.800781,9.0664063 H 9.5996094 A 1.0667733,1.0667733 0 0 0 8.5332031,8 Z"
     style="fill:url(#oomox);stroke-width:1.06667"
     id="path26"
     class="ColorScheme-Text"/>
  <path
     d="M 7.4667969,8 H 8.5332031 A 1.0667733,1.0667733 0 0 1 9.5996094,9.0664063 H 12.800781 A 1.0667733,1.0667733 0 0 1 13.867188,8 h 1.066406 A 1.0667733,1.0667733 0 0 1 16,9.0664063 v 2.1328127 a 1.0667733,1.0667733 0 0 1 -1.066406,1.068359 H 7.4667969 A 1.0667733,1.0667733 0 0 1 6.4003906,11.199219 V 9.0664063 A 1.0667733,1.0667733 0 0 1 7.4667969,8 Z"
     style="fill:url(#oomox);stroke-width:1.06667"
     id="path25"
     class="ColorScheme-Text"/>
  <path
     d="M 1.0664062,0.53320312 A 1.0667733,1.0667733 0 0 0 0,1.5996094 V 2.6660156 A 1.0667733,1.0667733 0 0 0 1.0664062,3.7324219 H 2.1328125 V 12.267578 H 1.0664062 A 1.0667733,1.0667733 0 0 0 0,13.333984 v 1.066407 a 1.0667733,1.0667733 0 0 0 1.0664062,1.066406 H 6.4003906 A 1.0667733,1.0667733 0 0 0 7.4667969,14.400391 V 13.333984 A 1.0667733,1.0667733 0 0 0 6.4003906,12.267578 H 5.3339844 V 3.7324219 H 6.4003906 A 1.0667733,1.0667733 0 0 0 7.4667969,2.6660156 V 1.5996094 A 1.0667733,1.0667733 0 0 0 6.4003906,0.53320312 Z"
     style="fill:url(#oomox);stroke-width:1.06667"
     id="path24"
     class="ColorScheme-Text"/>
  <metadata
     id="metadata29">
    <rdf:RDF>
      <cc:Work
         rdf:about="">
        <dc:creator>
          <cc:Agent>
            <dc:title>dreifacherspass</dc:title>
          </cc:Agent>
        </dc:creator>
        <cc:license
           rdf:resource="http://creativecommons.org/licenses/by-sa/4.0/" />
      </cc:Work>
      <cc:License
         rdf:about="http://creativecommons.org/licenses/by-sa/4.0/">
        <cc:permits
           rdf:resource="http://creativecommons.org/ns#Reproduction" />
        <cc:permits
           rdf:resource="http://creativecommons.org/ns#Distribution" />
        <cc:requires
           rdf:resource="http://creativecommons.org/ns#Notice" />
        <cc:requires
           rdf:resource="http://creativecommons.org/ns#Attribution" />
        <cc:permits
           rdf:resource="http://creativecommons.org/ns#DerivativeWorks" />
        <cc:requires
           rdf:resource="http://creativecommons.org/ns#ShareAlike" />
      </cc:License>
    </rdf:RDF>
  </metadata>
</svg>
