<?xml version="1.0" encoding="UTF-8" standalone="no"?>
<svg
   viewBox="0 0 16 16"
   height="16"
   width="16"
   id="svg1"
   version="1.1"
   xmlns="http://www.w3.org/2000/svg"
   xmlns:svg="http://www.w3.org/2000/svg"
   xmlns:rdf="http://www.w3.org/1999/02/22-rdf-syntax-ns#"
   xmlns:cc="http://creativecommons.org/ns#"
   xmlns:dc="http://purl.org/dc/elements/1.1/">
  <defs
     id="defs73">
    <style
       id="current-color-scheme"
       type="text/css">
   .ColorScheme-Text { color: #0abdc6; } .ColorScheme-Highlight { color: #1AD6AB; }
  </style>
    <linearGradient
       id="arrongin"
       x1="0%"
       x2="0%"
       y1="0%"
       y2="100%">
      <stop
         offset="0%"
         stop-color="#dd9b44"
         stop-opacity="1"
         id="stop3" />
      <stop
         offset="100%"
         stop-color="#ad6c16"
         stop-opacity="1"
         id="stop5" />
    </linearGradient>
    <linearGradient
       id="aurora"
       x1="0%"
       x2="0%"
       y1="0%"
       y2="100%">
      <stop
         offset="0%"
         stop-color="#09D4DF"
         stop-opacity="1"
         id="stop8" />
      <stop
         offset="100%"
         stop-color="#9269F4"
         stop-opacity="1"
         id="stop10" />
    </linearGradient>
    <linearGradient
       id="cyberblue"
       x1="0%"
       x2="0%"
       y1="0%"
       y2="100%">
      <stop
         offset="0%"
         stop-color="#07B3FF"
         stop-opacity="1"
         id="stop13" />
      <stop
         offset="100%"
         stop-color="#007DE8"
         stop-opacity="1"
         id="stop15" />
    </linearGradient>
    <linearGradient
       id="cyberneon"
       x1="0%"
       x2="0%"
       y1="0%"
       y2="100%">
      <stop
         offset="0%"
         stop-color="#0abdc6"
         stop-opacity="1"
         id="stop18" />
      <stop
         offset="100%"
         stop-color="#ea00d9"
         stop-opacity="1"
         id="stop20" />
    </linearGradient>
    <linearGradient
       id="fitdance"
       x1="0%"
       x2="0%"
       y1="0%"
       y2="100%">
      <stop
         offset="0%"
         stop-color="#1AD6AB"
         stop-opacity="1"
         id="stop23" />
      <stop
         offset="100%"
         stop-color="#329DB6"
         stop-opacity="1"
         id="stop25" />
    </linearGradient>
    <linearGradient
       id="oomox"
       x1="0%"
       x2="0%"
       y1="0%"
       y2="100%">
      <stop
         offset="0%"
         stop-color="#0abdc6"
         stop-opacity="1"
         id="stop28" />
      <stop
         offset="100%"
         stop-color="#b800ff"
         stop-opacity="1"
         id="stop30" />
    </linearGradient>
    <linearGradient
       id="rainblue"
       x1="0%"
       x2="0%"
       y1="0%"
       y2="100%">
      <stop
         offset="0%"
         stop-color="#00F260"
         stop-opacity="1"
         id="stop33" />
      <stop
         offset="100%"
         stop-color="#0575E6"
         stop-opacity="1"
         id="stop35" />
    </linearGradient>
    <linearGradient
       id="redcarbon"
       x1="0%"
       x2="0%"
       y1="0%"
       y2="100%">
      <stop
         offset="0%"
         stop-color="#FF6D57"
         stop-opacity="1"
         id="stop38" />
      <stop
         offset="50%"
         stop-color="#FF5160"
         stop-opacity="1"
         id="stop40" />
      <stop
         offset="100%"
         stop-color="#F50F22"
         stop-opacity="1"
         id="stop42" />
    </linearGradient>
    <linearGradient
       id="sunrise"
       x1="0%"
       x2="0%"
       y1="0%"
       y2="100%">
      <stop
         offset="0%"
         stop-color="#FF8501"
         stop-opacity="1"
         id="stop45" />
      <stop
         offset="100%"
         stop-color="#FFCB01"
         stop-opacity="1"
         id="stop47" />
    </linearGradient>
    <linearGradient
       id="telinkrin"
       x1="0%"
       x2="0%"
       y1="0%"
       y2="100%">
      <stop
         offset="0%"
         stop-color="#b2ced6"
         stop-opacity="1"
         id="stop50" />
      <stop
         offset="100%"
         stop-color="#6da5b7"
         stop-opacity="1"
         id="stop52" />
    </linearGradient>
    <linearGradient
       id="60spsycho"
       x1="0%"
       x2="0%"
       y1="0%"
       y2="100%">
      <stop
         offset="0%"
         stop-color="#df5940"
         stop-opacity="1"
         id="stop55" />
      <stop
         offset="25%"
         stop-color="#d8d15f"
         stop-opacity="1"
         id="stop57" />
      <stop
         offset="50%"
         stop-color="#e9882a"
         stop-opacity="1"
         id="stop59" />
      <stop
         offset="100%"
         stop-color="#279362"
         stop-opacity="1"
         id="stop61" />
    </linearGradient>
    <linearGradient
       id="90ssummer"
       x1="0%"
       x2="0%"
       y1="0%"
       y2="100%">
      <stop
         offset="0%"
         stop-color="#f618c7"
         stop-opacity="1"
         id="stop64" />
      <stop
         offset="20%"
         stop-color="#94ffab"
         stop-opacity="1"
         id="stop66" />
      <stop
         offset="50%"
         stop-color="#fbfd54"
         stop-opacity="1"
         id="stop68" />
      <stop
         offset="100%"
         stop-color="#0f83ae"
         stop-opacity="1"
         id="stop70" />
    </linearGradient>
  </defs>
  <metadata
     id="metadata1213">
    <rdf:RDF>
      <cc:Work
         rdf:about="">
        <dc:format>image/svg+xml</dc:format>
        <dc:type
           rdf:resource="http://purl.org/dc/dcmitype/StillImage" />
        <dc:creator>
          <cc:Agent>
            <dc:title>dreifacherspass</dc:title>
          </cc:Agent>
        </dc:creator>
        <cc:license
           rdf:resource="http://creativecommons.org/licenses/by-sa/4.0/" />
      </cc:Work>
      <cc:License
         rdf:about="http://creativecommons.org/licenses/by-sa/4.0/">
        <cc:permits
           rdf:resource="http://creativecommons.org/ns#Reproduction" />
        <cc:permits
           rdf:resource="http://creativecommons.org/ns#Distribution" />
        <cc:requires
           rdf:resource="http://creativecommons.org/ns#Notice" />
        <cc:requires
           rdf:resource="http://creativecommons.org/ns#Attribution" />
        <cc:permits
           rdf:resource="http://creativecommons.org/ns#DerivativeWorks" />
        <cc:requires
           rdf:resource="http://creativecommons.org/ns#ShareAlike" />
      </cc:License>
    </rdf:RDF>
  </metadata>
  <path
     id="polygon11"
     class="ColorScheme-Text"
     style="display:inline;fill-opacity:1.0;fill:url(#oomox)"
     d="M 1 3 A 1 1 0 0 0 0 4 L 0 15 A 1 1 0 0 0 1 16 L 10 16 A 1 1 0 0 0 11 15 L 11 6.5 L 11 6 A 1 1 0 0 0 10.707031 5.2929688 L 8.7070312 3.2929688 A 1 1 0 0 0 8 3 L 1 3 z M 2 5 L 7 5 L 7 6.5 A 0.5 0.5 0 0 0 7.5 7 L 9 7 L 9 14 L 2 14 L 2 5 z " />
  <path
     id="path12"
     class="ColorScheme-Text"
     d="M 6 0 A 1 1 0 0 0 6 2 L 12 2 L 12 3.5 A 0.5 0.5 0 0 0 12.5 4 L 14 4 L 14 11 L 13 11 A 1 1 0 0 0 13 13 L 15 13 A 1 1 0 0 0 16 12 L 16 3 A 1 1 0 0 0 15.707031 2.2929688 L 13.707031 0.29296875 A 1 1 0 0 0 13 0 L 6 0 z "
     style="fill-opacity:1.0;fill:url(#oomox)" />
</svg>
