<?xml version="1.0" encoding="UTF-8" standalone="no"?>
<svg
   height="16"
   viewBox="0 0 16 16"
   width="16"
   version="1.1"
   id="svg1"
   xmlns:xlink="http://www.w3.org/1999/xlink"
   xmlns="http://www.w3.org/2000/svg"
   xmlns:svg="http://www.w3.org/2000/svg"
   xmlns:rdf="http://www.w3.org/1999/02/22-rdf-syntax-ns#"
   xmlns:cc="http://creativecommons.org/ns#"
   xmlns:dc="http://purl.org/dc/elements/1.1/">
  <defs>
   <style id="current-color-scheme" type="text/css">
   .ColorScheme-Text { color: #0abdc6; } .ColorScheme-Highlight { color:#5294e2; }
  </style>
  <linearGradient id="arrongin" x1="0%" x2="0%" y1="0%" y2="100%">
   <stop offset="0%" style="stop-color:#dd9b44; stop-opacity:1"/>
   <stop offset="100%" style="stop-color:#ad6c16; stop-opacity:1"/>
  </linearGradient>
  <linearGradient id="aurora" x1="0%" x2="0%" y1="0%" y2="100%">
   <stop offset="0%" style="stop-color:#09D4DF; stop-opacity:1"/>
   <stop offset="100%" style="stop-color:#9269F4; stop-opacity:1"/>
  </linearGradient>
  <linearGradient id="cyberneon" x1="0%" x2="0%" y1="0%" y2="100%">
    <stop offset="0" style="stop-color:#0abdc6; stop-opacity:1"/>
    <stop offset="1" style="stop-color:#ea00d9; stop-opacity:1"/>
  </linearGradient>
  <linearGradient id="fitdance" x1="0%" x2="0%" y1="0%" y2="100%">
   <stop offset="0%" style="stop-color:#1AD6AB; stop-opacity:1"/>
   <stop offset="100%" style="stop-color:#329DB6; stop-opacity:1"/>
  </linearGradient>
  <linearGradient id="oomox" x1="0%" x2="0%" y1="0%" y2="100%">
   <stop offset="0%" style="stop-color:#0abdc6; stop-opacity:1"/>
   <stop offset="100%" style="stop-color:#b800ff; stop-opacity:1"/>
  </linearGradient>
  <linearGradient id="rainblue" x1="0%" x2="0%" y1="0%" y2="100%">
   <stop offset="0%" style="stop-color:#00F260; stop-opacity:1"/>
   <stop offset="100%" style="stop-color:#0575E6; stop-opacity:1"/>
  </linearGradient>
  <linearGradient id="sunrise" x1="0%" x2="0%" y1="0%" y2="100%">
   <stop offset="0%" style="stop-color: #FF8501; stop-opacity:1"/>
   <stop offset="100%" style="stop-color: #FFCB01; stop-opacity:1"/>
  </linearGradient>
  <linearGradient id="telinkrin" x1="0%" x2="0%" y1="0%" y2="100%">
   <stop offset="0%" style="stop-color: #b2ced6; stop-opacity:1"/>
   <stop offset="100%" style="stop-color: #6da5b7; stop-opacity:1"/>
  </linearGradient>
  <linearGradient id="60spsycho" x1="0%" x2="0%" y1="0%" y2="100%">
   <stop offset="0%" style="stop-color: #df5940; stop-opacity:1"/>
   <stop offset="25%" style="stop-color: #d8d15f; stop-opacity:1"/>
   <stop offset="50%" style="stop-color: #e9882a; stop-opacity:1"/>
   <stop offset="100%" style="stop-color: #279362; stop-opacity:1"/>
  </linearGradient>
  <linearGradient id="90ssummer" x1="0%" x2="0%" y1="0%" y2="100%">
   <stop offset="0%" style="stop-color: #f618c7; stop-opacity:1"/>
   <stop offset="20%" style="stop-color: #94ffab; stop-opacity:1"/>
   <stop offset="50%" style="stop-color: #fbfd54; stop-opacity:1"/>
   <stop offset="100%" style="stop-color: #0f83ae; stop-opacity:1"/>
  </linearGradient>
 </defs>
  <path
     d="m 15.116111,11.084615 -0.0023,-0.0019 c -0.381926,-0.35312 -0.876181,-0.436197 -1.236968,-0.496966 l -0.02654,-0.0046 c -0.348093,-0.05731 -0.403096,-0.09615 -0.560796,-0.237308 -0.09385,-0.08346 -0.205779,-0.217308 -0.205779,-0.3823079 0,-0.165 0.111928,-0.2988457 0.205395,-0.3823074 L 14.453797,8.545736 C 15.450743,7.6646154 16,6.4819229 16,5.2153846 16,3.9488463 15.451897,2.7661537 14.453772,1.8846154 13.073321,0.66961543 11.184384,0 9.1315931,0 6.7587863,0 4.3848263,0.89884629 2.6155103,2.4657691 0.92812171,3.9569229 0,5.9546154 0,8.0903846 c 0,2.1357694 0.92927543,4.1334614 2.6155103,5.6242304 0.8365788,0.74 1.8266263,1.314616 2.9432183,1.708462 A 10.2378,10.237307 0 0 0 8.9000434,16 h 0.069619 c 2.3462666,0 4.5806046,-0.791154 6.1306786,-2.169231 0.373095,-0.329231 0.582721,-0.801154 0.590029,-1.329231 0.0081,-0.545 -0.206549,-1.075 -0.574259,-1.416923 z M 2.4616566,6.1538463 A 1.2308284,1.2307693 0 1 1 3.6924851,7.3846154 1.2308284,1.2307693 0 0 1 2.4616566,6.1538463 Z m 1.538536,5.1923077 a 1.2308284,1.2307693 0 1 1 1.230828,-1.230769 1.2308284,1.2307693 0 0 1 -1.230828,1.230769 z M 5.538728,3.6923074 A 1.2308284,1.2307693 0 1 1 6.769556,4.9230771 1.2308284,1.2307693 0 0 1 5.538728,3.6923074 Z M 8.0003846,14.115385 A 1.8462426,1.8461538 0 1 1 9.8466274,12.269231 1.8462426,1.8461538 0 0 1 8.0003846,14.115385 Z M 10.769749,4.9230771 a 1.2308284,1.2307693 0 1 1 1.230828,-1.2307697 1.2308284,1.2307693 0 0 1 -1.230828,1.2307697 z"
     stroke-width="0.0384623"
     id="path1"
     class="ColorScheme-Text"
     style="fill:url(#oomox)" />
  <metadata
     id="metadata1">
    <rdf:RDF>
      <cc:Work
         rdf:about="">
        <dc:creator>
          <cc:Agent>
            <dc:title>dreifacherspass</dc:title>
          </cc:Agent>
        </dc:creator>
        <cc:license
           rdf:resource="http://creativecommons.org/licenses/by-sa/4.0/" />
      </cc:Work>
      <cc:License
         rdf:about="http://creativecommons.org/licenses/by-sa/4.0/">
        <cc:permits
           rdf:resource="http://creativecommons.org/ns#Reproduction" />
        <cc:permits
           rdf:resource="http://creativecommons.org/ns#Distribution" />
        <cc:requires
           rdf:resource="http://creativecommons.org/ns#Notice" />
        <cc:requires
           rdf:resource="http://creativecommons.org/ns#Attribution" />
        <cc:permits
           rdf:resource="http://creativecommons.org/ns#DerivativeWorks" />
        <cc:requires
           rdf:resource="http://creativecommons.org/ns#ShareAlike" />
      </cc:License>
    </rdf:RDF>
  </metadata>
</svg>
