<?xml version="1.0" encoding="UTF-8" standalone="no"?>

<svg
   version="1.1"
   id="svg1"
   width="16"
   height="16"
   viewBox="0 0 16 16"
   xmlns:xlink="http://www.w3.org/1999/xlink"
   xmlns="http://www.w3.org/2000/svg"
   xmlns:svg="http://www.w3.org/2000/svg"
   xmlns:rdf="http://www.w3.org/1999/02/22-rdf-syntax-ns#"
   xmlns:cc="http://creativecommons.org/ns#"
   xmlns:dc="http://purl.org/dc/elements/1.1/">
  <defs>
   <style id="current-color-scheme" type="text/css">
   .ColorScheme-Text { color: #0abdc6; } .ColorScheme-Highlight { color:#5294e2; }
  </style>
  <linearGradient id="arrongin" x1="0%" x2="0%" y1="0%" y2="100%">
   <stop offset="0%" style="stop-color:#dd9b44; stop-opacity:1"/>
   <stop offset="100%" style="stop-color:#ad6c16; stop-opacity:1"/>
  </linearGradient>
  <linearGradient id="aurora" x1="0%" x2="0%" y1="0%" y2="100%">
   <stop offset="0%" style="stop-color:#09D4DF; stop-opacity:1"/>
   <stop offset="100%" style="stop-color:#9269F4; stop-opacity:1"/>
  </linearGradient>
  <linearGradient id="cyberneon" x1="0%" x2="0%" y1="0%" y2="100%">
    <stop offset="0" style="stop-color:#0abdc6; stop-opacity:1"/>
    <stop offset="1" style="stop-color:#ea00d9; stop-opacity:1"/>
  </linearGradient>
  <linearGradient id="fitdance" x1="0%" x2="0%" y1="0%" y2="100%">
   <stop offset="0%" style="stop-color:#1AD6AB; stop-opacity:1"/>
   <stop offset="100%" style="stop-color:#329DB6; stop-opacity:1"/>
  </linearGradient>
  <linearGradient id="oomox" x1="0%" x2="0%" y1="0%" y2="100%">
   <stop offset="0%" style="stop-color:#0abdc6; stop-opacity:1"/>
   <stop offset="100%" style="stop-color:#b800ff; stop-opacity:1"/>
  </linearGradient>
  <linearGradient id="rainblue" x1="0%" x2="0%" y1="0%" y2="100%">
   <stop offset="0%" style="stop-color:#00F260; stop-opacity:1"/>
   <stop offset="100%" style="stop-color:#0575E6; stop-opacity:1"/>
  </linearGradient>
  <linearGradient id="sunrise" x1="0%" x2="0%" y1="0%" y2="100%">
   <stop offset="0%" style="stop-color: #FF8501; stop-opacity:1"/>
   <stop offset="100%" style="stop-color: #FFCB01; stop-opacity:1"/>
  </linearGradient>
  <linearGradient id="telinkrin" x1="0%" x2="0%" y1="0%" y2="100%">
   <stop offset="0%" style="stop-color: #b2ced6; stop-opacity:1"/>
   <stop offset="100%" style="stop-color: #6da5b7; stop-opacity:1"/>
  </linearGradient>
  <linearGradient id="60spsycho" x1="0%" x2="0%" y1="0%" y2="100%">
   <stop offset="0%" style="stop-color: #df5940; stop-opacity:1"/>
   <stop offset="25%" style="stop-color: #d8d15f; stop-opacity:1"/>
   <stop offset="50%" style="stop-color: #e9882a; stop-opacity:1"/>
   <stop offset="100%" style="stop-color: #279362; stop-opacity:1"/>
  </linearGradient>
  <linearGradient id="90ssummer" x1="0%" x2="0%" y1="0%" y2="100%">
   <stop offset="0%" style="stop-color: #f618c7; stop-opacity:1"/>
   <stop offset="20%" style="stop-color: #94ffab; stop-opacity:1"/>
   <stop offset="50%" style="stop-color: #fbfd54; stop-opacity:1"/>
   <stop offset="100%" style="stop-color: #0f83ae; stop-opacity:1"/>
  </linearGradient>
 </defs>
  <metadata
     id="metadata3170">
    <rdf:RDF>
      <cc:Work
         rdf:about="">
        <dc:creator>
          <cc:Agent>
            <dc:title>dreifacherspass</dc:title>
          </cc:Agent>
        </dc:creator>
        <cc:license
           rdf:resource="http://creativecommons.org/licenses/by-sa/4.0/" />
      </cc:Work>
      <cc:License
         rdf:about="http://creativecommons.org/licenses/by-sa/4.0/">
        <cc:permits
           rdf:resource="http://creativecommons.org/ns#Reproduction" />
        <cc:permits
           rdf:resource="http://creativecommons.org/ns#Distribution" />
        <cc:requires
           rdf:resource="http://creativecommons.org/ns#Notice" />
        <cc:requires
           rdf:resource="http://creativecommons.org/ns#Attribution" />
        <cc:permits
           rdf:resource="http://creativecommons.org/ns#DerivativeWorks" />
        <cc:requires
           rdf:resource="http://creativecommons.org/ns#ShareAlike" />
      </cc:License>
    </rdf:RDF>
  </metadata>
  <path
     id="path9609"
     class="ColorScheme-Text"
     d="M 5.3321022,0.00221193 C 5.1043607,-0.00506902 4.8759222,0.00559079 4.6488143,0.03469639 3.7403641,0.15108236 2.8807243,0.56008976 2.2222221,1.1878798 1.5636622,1.8156576 1.1205788,2.6474831 0.97260803,3.536356 0.88506122,4.0622698 0.90933326,4.599287 1.0255478,5.1166448 H 0.63096486 C 0.28721737,5.1166448 0,5.3967063 0,5.7326384 V 7.6329546 C 0,7.9688837 0.28721737,8.2495489 0.63096486,8.2495489 H 2.5410898 c 0.3437592,0 0.6303467,-0.2806529 0.6303467,-0.6165943 V 7.4302279 L 3.3942748,7.1077952 3.1714365,6.9610163 V 5.7326384 c 0,-0.3359444 -0.2865875,-0.6159936 -0.6303467,-0.6159936 H 1.8922752 C 1.760322,4.6464753 1.7236261,4.1487185 1.8036333,3.6680955 1.9220626,2.9566319 2.2820573,2.2778038 2.8082496,1.7762 3.3344289,1.2745502 4.0353602,0.94123905 4.7583876,0.84859972 5.4813907,0.75593872 6.2397935,0.90139412 6.8728834,1.2534493 7.4737656,1.5875181 7.9628303,2.1263557 8.1317321,2.7429005 8.2223127,3.0736984 8.229701,3.4524268 8.2129904,3.8521729 8.1963597,4.252464 8.156276,4.68236 8.1920588,5.1389006 8.2281875,5.5982347 8.346223,6.087959 8.6506619,6.5080422 c 0.1527965,0.2109439 0.3497675,0.3983231 0.5909512,0.5341836 0.2425294,0.136615 0.5223061,0.2160136 0.8162499,0.2111472 0.294359,-0.00489 0.561312,-0.092298 0.791014,-0.2087417 0.228211,-0.1157447 0.420878,-0.2583849 0.593412,-0.3934168 0.343319,-0.2687058 0.633713,-0.5063375 0.916588,-0.5865184 0.244342,-0.069274 0.530832,-0.031042 0.735614,0.099859 0.202539,0.1294326 0.351046,0.3719464 0.367494,0.6045639 0.01234,0.1743448 -0.03879,0.3776597 -0.137271,0.5732839 -0.09978,0.1981159 -0.246576,0.3947257 -0.411821,0.6045641 -0.165374,0.2102324 -0.352915,0.4365731 -0.512157,0.7050232 -0.160147,0.2701132 -0.29201,0.5842978 -0.316403,0.93903 -0.03855,0.5612258 0.200038,1.0579828 0.479531,1.4527588 0.276076,0.389909 0.591076,0.695104 0.827948,1.004597 0.192909,0.252024 0.355204,0.527882 0.484457,0.81872 h -0.416744 c -0.34376,0 -0.630348,0.280049 -0.630348,0.615993 -0.0087,0.631734 0,1.132014 0,1.900917 0,0.335932 0.286588,0.615994 0.630348,0.615994 h 1.912588 C 15.715874,16 16,15.719926 16,15.384006 v -1.900917 c 0,-0.33592 -0.284126,-0.615993 -0.627887,-0.615993 H 14.771928 C 14.603109,12.399592 14.368975,11.955095 14.064635,11.557505 13.780269,11.185953 13.473829,10.884869 13.25454,10.575165 13.038715,10.270329 12.90452,9.9372975 12.92459,9.6451597 12.937266,9.4608267 13.01201,9.2606964 13.128962,9.0634552 13.246893,8.8646402 13.407143,8.6650736 13.57833,8.4474614 13.749914,8.2295783 13.933802,7.9905697 14.078178,7.7039385 14.223729,7.4147664 14.327397,7.0768478 14.301631,6.7125737 14.265775,6.2054383 13.982513,5.750798 13.554938,5.4775771 13.129618,5.2056836 12.604294,5.1393842 12.124346,5.2754541 11.59727,5.4248634 11.233989,5.7615378 10.916589,6.0099558 10.758744,6.1334996 10.60974,6.2398755 10.462913,6.3143429 10.31762,6.3879942 10.170756,6.4307534 10.044321,6.4328478 9.9190075,6.434933 9.7809676,6.3986139 9.6602025,6.3305837 9.5381292,6.2618203 9.4273331,6.1574987 9.3370264,6.0328122 9.1551519,5.7818595 9.0585166,5.4402232 9.0298547,5.0757366 9.0010634,4.7085273 9.0355593,4.3098408 9.0532469,3.8840536 9.0710669,3.457789 9.0713158,2.9973336 8.9436768,2.5311526 8.7035393,1.654566 8.0518385,0.96453593 7.2871667,0.5394017 6.6901929,0.20742732 6.0153299,0.02405517 5.3321022,0.00221193 Z M 0.63096486,5.7326384 H 2.5410898 V 7.6329546 H 0.63096486 Z M 3.9618329,7.4813615 3.6097275,7.9920819 4.1772857,8.366252 4.5293958,7.8555286 Z M 5.096954,8.2290948 4.744845,8.7398182 5.3124039,9.1139852 5.6651276,8.6032649 Z m 1.1357323,0.7477363 -0.352109,0.5107205 0.567562,0.374167 0.3521059,-0.5107206 z m 1.1351209,0.7477332 -0.3521091,0.5113247 0.5675589,0.373566 0.3527237,-0.51072 z m 1.1357323,0.7483367 -0.3521091,0.510719 0.5675589,0.373568 0.3521089,-0.51072 z M 9.6386572,11.220634 9.2865513,11.731358 9.85411,12.104924 10.206834,11.5942 Z m 1.1357338,0.747736 -0.352108,0.510721 0.56756,0.373567 0.352109,-0.510722 z m 1.135119,0.747733 -0.352109,0.510724 0.56756,0.373566 0.352727,-0.510723 z m 1.550015,0.766986 h 1.912588 v 1.900917 h -1.912588 z"
     style="opacity:1;stroke-width:1.24513;fill:url(#oomox)" />
</svg>
