<?xml version="1.0" encoding="UTF-8" standalone="no"?>
<svg
   version="1.1"
   id="svg1"
   width="16"
   height="16"
   viewBox="0 0 16 16"
   xmlns:xlink="http://www.w3.org/1999/xlink"
   xmlns="http://www.w3.org/2000/svg"
   xmlns:svg="http://www.w3.org/2000/svg"
   xmlns:rdf="http://www.w3.org/1999/02/22-rdf-syntax-ns#"
   xmlns:cc="http://creativecommons.org/ns#"
   xmlns:dc="http://purl.org/dc/elements/1.1/">
 <defs>
   <style id="current-color-scheme" type="text/css">
   .ColorScheme-Text { color: #0abdc6; } .ColorScheme-Highlight { color:#5294e2; }
  </style>
  <linearGradient id="arrongin" x1="0%" x2="0%" y1="0%" y2="100%">
   <stop offset="0%" style="stop-color:#dd9b44; stop-opacity:1"/>
   <stop offset="100%" style="stop-color:#ad6c16; stop-opacity:1"/>
  </linearGradient>
  <linearGradient id="aurora" x1="0%" x2="0%" y1="0%" y2="100%">
   <stop offset="0%" style="stop-color:#09D4DF; stop-opacity:1"/>
   <stop offset="100%" style="stop-color:#9269F4; stop-opacity:1"/>
  </linearGradient>
  <linearGradient id="cyberneon" x1="0%" x2="0%" y1="0%" y2="100%">
    <stop offset="0" style="stop-color:#0abdc6; stop-opacity:1"/>
    <stop offset="1" style="stop-color:#ea00d9; stop-opacity:1"/>
  </linearGradient>
  <linearGradient id="fitdance" x1="0%" x2="0%" y1="0%" y2="100%">
   <stop offset="0%" style="stop-color:#1AD6AB; stop-opacity:1"/>
   <stop offset="100%" style="stop-color:#329DB6; stop-opacity:1"/>
  </linearGradient>
  <linearGradient id="oomox" x1="0%" x2="0%" y1="0%" y2="100%">
   <stop offset="0%" style="stop-color:#0abdc6; stop-opacity:1"/>
   <stop offset="100%" style="stop-color:#b800ff; stop-opacity:1"/>
  </linearGradient>
  <linearGradient id="rainblue" x1="0%" x2="0%" y1="0%" y2="100%">
   <stop offset="0%" style="stop-color:#00F260; stop-opacity:1"/>
   <stop offset="100%" style="stop-color:#0575E6; stop-opacity:1"/>
  </linearGradient>
  <linearGradient id="sunrise" x1="0%" x2="0%" y1="0%" y2="100%">
   <stop offset="0%" style="stop-color: #FF8501; stop-opacity:1"/>
   <stop offset="100%" style="stop-color: #FFCB01; stop-opacity:1"/>
  </linearGradient>
  <linearGradient id="telinkrin" x1="0%" x2="0%" y1="0%" y2="100%">
   <stop offset="0%" style="stop-color: #b2ced6; stop-opacity:1"/>
   <stop offset="100%" style="stop-color: #6da5b7; stop-opacity:1"/>
  </linearGradient>
  <linearGradient id="60spsycho" x1="0%" x2="0%" y1="0%" y2="100%">
   <stop offset="0%" style="stop-color: #df5940; stop-opacity:1"/>
   <stop offset="25%" style="stop-color: #d8d15f; stop-opacity:1"/>
   <stop offset="50%" style="stop-color: #e9882a; stop-opacity:1"/>
   <stop offset="100%" style="stop-color: #279362; stop-opacity:1"/>
  </linearGradient>
  <linearGradient id="90ssummer" x1="0%" x2="0%" y1="0%" y2="100%">
   <stop offset="0%" style="stop-color: #f618c7; stop-opacity:1"/>
   <stop offset="20%" style="stop-color: #94ffab; stop-opacity:1"/>
   <stop offset="50%" style="stop-color: #fbfd54; stop-opacity:1"/>
   <stop offset="100%" style="stop-color: #0f83ae; stop-opacity:1"/>
  </linearGradient>
 </defs>
   <metadata
     id="metadata7">
    <rdf:RDF>
      <cc:Work
         rdf:about="">
        <dc:format>image/svg+xml</dc:format>
        <dc:type
           rdf:resource="http://purl.org/dc/dcmitype/StillImage" />
        <cc:license
           rdf:resource="http://creativecommons.org/licenses/by-sa/4.0/" />
        <dc:creator>
          <cc:Agent>
            <dc:title>dreifacherspass</dc:title>
          </cc:Agent>
        </dc:creator>
      </cc:Work>
      <cc:License
         rdf:about="http://creativecommons.org/licenses/by-sa/4.0/">
        <cc:permits
           rdf:resource="http://creativecommons.org/ns#Reproduction" />
        <cc:permits
           rdf:resource="http://creativecommons.org/ns#Distribution" />
        <cc:requires
           rdf:resource="http://creativecommons.org/ns#Notice" />
        <cc:requires
           rdf:resource="http://creativecommons.org/ns#Attribution" />
        <cc:permits
           rdf:resource="http://creativecommons.org/ns#DerivativeWorks" />
        <cc:requires
           rdf:resource="http://creativecommons.org/ns#ShareAlike" />
      </cc:License>
    </rdf:RDF>
  </metadata>
  <path
     d="M 5.7734259,4.4639449 A 0.27596441,0.27242638 0 0 0 5.5490636,4.5999562 L 0.03692776,14.022633 a 0.27596441,0.27242638 0 0 0 0.23989091,0.408562 H 11.298414 a 0.27596441,0.27242638 0 0 0 0.239354,-0.408562 L 6.0272383,4.5999562 A 0.27596441,0.27242638 0 0 0 5.7734259,4.4639449 Z m 0.013922,0.816594 5.0339611,8.6060831 H 0.75392464 Z"
     style="opacity:1;stroke-width:1.10526;fill:url(#oomox)"
     id="path2517"
     class="ColorScheme-Text"/>
  <path
     class="ColorScheme-Text"
     d="m 10.244609,1.5691911 a 0.27132926,0.27707849 89.999999 0 0 -0.225435,0.135474 L 8.6349817,4.051634 A 0.27132926,0.27707849 89.999999 0 0 8.8754101,4.4585906 H 11.642722 A 0.27132926,0.27707849 89.999999 0 0 11.883682,4.051634 L 10.49949,1.7046651 a 0.27132926,0.27707849 89.999999 0 0 -0.254881,-0.135474 z m 0.01446,0.8139155 0.90441,1.5325161 H 9.3546537 Z M 8.5198556,5.6462641 A 0.27140058,0.27700438 89.999999 0 0 8.2804993,6.0532233 l 2.8390657,4.8187007 a 0.27140058,0.27700438 89.999999 0 0 0.479783,5.33e-4 l 2.8396,-4.818699 A 0.27140058,0.27700438 89.999999 0 0 14.431432,5.7699575 0.27140058,0.27700438 89.999999 0 0 14.199036,5.6468016 Z M 8.9996372,6.1892319 H 13.719276 L 11.359994,10.194017 Z M 14.32436,8.6823834 a 0.27132926,0.27707849 89.999999 0 0 -5.37e-4,5.346e-4 0.27132926,0.27707849 89.999999 0 0 -0.225432,0.135474 l -1.384193,2.346434 a 0.27132926,0.27707849 89.999999 0 0 0.240426,0.406956 h 2.767313 A 0.27132926,0.27707849 89.999999 0 0 15.9629,11.164826 L 14.578707,8.818392 A 0.27132926,0.27707849 89.999999 0 0 14.32436,8.6823834 Z m 0.01338,0.8139154 0.904945,1.5330522 h -1.808817 z"
     style="opacity:1;stroke-width:1.10526;fill:url(#oomox)"
     id="path9609" />
</svg>
