<?xml version="1.0" encoding="UTF-8" standalone="no"?>
<svg
   width="48"
   height="48"
   version="1.1"
   id="svg750"
   xmlns:xlink="http://www.w3.org/1999/xlink"
   xmlns="http://www.w3.org/2000/svg"
   xmlns:svg="http://www.w3.org/2000/svg"
   xmlns:rdf="http://www.w3.org/1999/02/22-rdf-syntax-ns#"
   xmlns:cc="http://creativecommons.org/ns#"
   xmlns:dc="http://purl.org/dc/elements/1.1/">
  <defs
     id="defs746">
    <style
       id="current-color-scheme"
       type="text/css">
   .ColorScheme-Text { color: #0abdc6; } .ColorScheme-Highlight { color:#5294e2; }
  </style>
    <linearGradient
       id="arrongin"
       x1="0%"
       x2="0%"
       y1="0%"
       y2="100%">
      <stop
         offset="0%"
         style="stop-color:#dd9b44; stop-opacity:1"
         id="stop9192" />
      <stop
         offset="100%"
         style="stop-color:#ad6c16; stop-opacity:1"
         id="stop9194" />
    </linearGradient>
    <linearGradient
       id="aurora"
       x1="0%"
       x2="0%"
       y1="0%"
       y2="100%">
      <stop
         offset="0%"
         style="stop-color:#09D4DF; stop-opacity:1"
         id="stop9197" />
      <stop
         offset="100%"
         style="stop-color:#9269F4; stop-opacity:1"
         id="stop9199" />
    </linearGradient>
    <linearGradient
       id="cyberneon"
       x1="0%"
       x2="0%"
       y1="0%"
       y2="100%">
      <stop
         offset="0"
         style="stop-color:#0abdc6; stop-opacity:1"
         id="stop9202" />
      <stop
         offset="1"
         style="stop-color:#ea00d9; stop-opacity:1"
         id="stop9204" />
    </linearGradient>
    <linearGradient
       id="fitdance"
       x1="0%"
       x2="0%"
       y1="0%"
       y2="100%">
      <stop
         offset="0%"
         style="stop-color:#1AD6AB; stop-opacity:1"
         id="stop9207" />
      <stop
         offset="100%"
         style="stop-color:#329DB6; stop-opacity:1"
         id="stop9209" />
    </linearGradient>
    <linearGradient
       id="oomox"
       x1="0%"
       x2="0%"
       y1="0%"
       y2="100%">
      <stop
         offset="0%"
         style="stop-color:#0abdc6; stop-opacity:1"
         id="stop9212" />
      <stop
         offset="100%"
         style="stop-color:#b800ff; stop-opacity:1"
         id="stop9214" />
    </linearGradient>
    <linearGradient
       id="rainblue"
       x1="0%"
       x2="0%"
       y1="0%"
       y2="100%">
      <stop
         offset="0%"
         style="stop-color:#00F260; stop-opacity:1"
         id="stop9217" />
      <stop
         offset="100%"
         style="stop-color:#0575E6; stop-opacity:1"
         id="stop9219" />
    </linearGradient>
    <linearGradient
       id="sunrise"
       x1="0%"
       x2="0%"
       y1="0%"
       y2="100%">
      <stop
         offset="0%"
         style="stop-color: #FF8501; stop-opacity:1"
         id="stop9222" />
      <stop
         offset="100%"
         style="stop-color: #FFCB01; stop-opacity:1"
         id="stop9224" />
    </linearGradient>
    <linearGradient
       id="telinkrin"
       x1="0%"
       x2="0%"
       y1="0%"
       y2="100%">
      <stop
         offset="0%"
         style="stop-color: #b2ced6; stop-opacity:1"
         id="stop9227" />
      <stop
         offset="100%"
         style="stop-color: #6da5b7; stop-opacity:1"
         id="stop9229" />
    </linearGradient>
    <linearGradient
       id="60spsycho"
       x1="0%"
       x2="0%"
       y1="0%"
       y2="100%">
      <stop
         offset="0%"
         style="stop-color: #df5940; stop-opacity:1"
         id="stop9232" />
      <stop
         offset="25%"
         style="stop-color: #d8d15f; stop-opacity:1"
         id="stop9234" />
      <stop
         offset="50%"
         style="stop-color: #e9882a; stop-opacity:1"
         id="stop9236" />
      <stop
         offset="100%"
         style="stop-color: #279362; stop-opacity:1"
         id="stop9238" />
    </linearGradient>
    <linearGradient
       id="90ssummer"
       x1="0%"
       x2="0%"
       y1="0%"
       y2="100%">
      <stop
         offset="0%"
         style="stop-color: #f618c7; stop-opacity:1"
         id="stop9241" />
      <stop
         offset="20%"
         style="stop-color: #94ffab; stop-opacity:1"
         id="stop9243" />
      <stop
         offset="50%"
         style="stop-color: #fbfd54; stop-opacity:1"
         id="stop9245" />
      <stop
         offset="100%"
         style="stop-color: #0f83ae; stop-opacity:1"
         id="stop9247" />
    </linearGradient>
  </defs>
  <path
     class="ColorScheme-Text"
     d="m 3.4375,0.5 v 47 H 29.875 32.078125 L 44.5625,35.015625 V 32.8125 0.5 Z M 6.375,3.4375 h 35.25 v 29.375 h -11.75 v 11.75 h -23.5 z"
     id="path748"
     style="fill:url(#oomox);fill-opacity:1;stroke-width:2.9375" />
  <metadata
     id="metadata245">
    <rdf:RDF>
      <cc:Work
         rdf:about="">
        <cc:license
           rdf:resource="http://creativecommons.org/licenses/by-sa/4.0/" />
        <dc:creator>
          <cc:Agent>
            <dc:title>dreifacherspass</dc:title>
          </cc:Agent>
        </dc:creator>
      </cc:Work>
      <cc:License
         rdf:about="http://creativecommons.org/licenses/by-sa/4.0/">
        <cc:permits
           rdf:resource="http://creativecommons.org/ns#Reproduction" />
        <cc:permits
           rdf:resource="http://creativecommons.org/ns#Distribution" />
        <cc:requires
           rdf:resource="http://creativecommons.org/ns#Notice" />
        <cc:requires
           rdf:resource="http://creativecommons.org/ns#Attribution" />
        <cc:permits
           rdf:resource="http://creativecommons.org/ns#DerivativeWorks" />
        <cc:requires
           rdf:resource="http://creativecommons.org/ns#ShareAlike" />
      </cc:License>
    </rdf:RDF>
  </metadata>
  <g
     transform="matrix(0.00593091,0,0,-0.00593091,-4.0335917,23.340465)"
     id="g464">
    <path
       d="M 4656.4225,2691.1763 C 3854.2108,2328.1802 2832.8724,1857.686 2824.3894,1846.6794 c -33.0188,-43.9831 -16.9226,-94.793 39.7627,-123.5497 33.019,-16.9226 483.1962,-222.5651 1610.2954,-736.17261 128.5985,-58.38261 242.0113,-106.62751 252.1483,-106.62751 9.3105,0 121.0275,47.376 247.9295,104.93101 1816.7638,826.74601 1650.098,748.87551 1663.6284,781.89331 11.8334,28.7573 8.4412,55.8587 -9.3088,79.5255 -11.8335,15.2271 -1857.3964,859.724 -1893.7656,866.5089 -12.6616,1.6967 -44.8122,-6.7849 -78.6568,-22.012 z"
       id="path458"
       class="ColorScheme-Text"
       style="color:#0abdc6;opacity:1;fill:url(#oomox);fill-opacity:1;stroke-width:0.413772" />
    <path
       d="m 2808.2942,1562.3408 -23.7088,-20.3166 V 508.85038 c 0,-1021.38265 0,-1033.21535 16.9227,-1049.26941 9.3101,-9.3096 409.5462,-192.93888 888.5217,-407.85019 646.5104,-290.25658 880.0394,-391.79508 904.5752,-391.79508 25.4057,0 36.3706,5.0897 52.4654,22.8405 l 20.3153,23.7085 v 1026.43011 c 0,965.52317 -0.8686,1028.12588 -14.3985,1045.04888 -19.4462,23.7088 -1762.6019,804.73361 -1796.4894,804.73361 -13.488,-0.044 -34.6323,-9.3512 -48.2036,-20.3565 z"
       id="path460"
       class="ColorScheme-Text"
       style="color:#0abdc6;opacity:1;fill:url(#oomox);fill-opacity:1;stroke-width:0.413772" />
    <path
       d="m 6503.6392,1553.0302 c -34.6744,-16.0951 -429.0337,-192.9391 -875.8187,-393.4913 -486.5478,-217.43402 -818.2643,-370.61021 -826.7053,-381.61641 -14.3991,-16.9231 -15.2259,-79.52591 -15.2259,-1044.22168 0,-1015.42321 0,-1026.43001 16.923,-1047.57341 29.6254,-38.0656 57.5538,-37.2385 154.0037,5.0893 385.0097,166.7067 1681.3802,754.79287 1694.9094,768.32237 16.9225,16.09596 16.9225,27.10176 16.9225,1049.26981 V 1542.0242 l -23.708,20.3166 c -32.1498,27.9289 -65.1263,25.4042 -141.3007,-9.3106 z"
       id="path462"
       class="ColorScheme-Text"
       style="color:#0abdc6;opacity:1;fill:url(#oomox);fill-opacity:1;stroke-width:0.413772" />
    <path
       d="m 6503.7882,1552.5523 c -34.6737,-16.0958 -429.0411,-192.9424 -875.8341,-393.4977 -486.5553,-217.43792 -818.2756,-370.61671 -826.7182,-381.62301 -14.3988,-16.9234 -15.2267,-79.52721 -15.2267,-1044.23858 0,-1015.44121 0,-1026.44741 16.9229,-1047.59111 29.6261,-38.0673 57.5566,-37.2403 154.0072,5.0888 385.0158,166.7087 1681.4078,754.80427 1694.938,768.33557 16.9237,16.09536 16.9237,27.10216 16.9237,1049.28731 V 1541.5469 l -23.709,20.3159 c -32.1504,27.9293 -65.129,25.4052 -141.3038,-9.3105 z"
       id="path462-0"
       style="fill:#000000;fill-opacity:0.25;stroke-width:0.413778" />
    <path
       d="M 4656.4855,2691.2915 C 3854.274,2328.2952 2832.9336,1857.8011 2824.4507,1846.7947 c -33.0177,-43.9831 -16.9227,-94.7935 39.763,-123.5501 33.0187,-16.9223 483.1978,-222.5648 1610.2966,-736.17311 128.5991,-58.38271 242.0115,-106.62751 252.149,-106.62751 9.3096,0 121.0267,47.376 247.9284,104.93111 1816.7643,826.74641 1650.0999,748.87601 1663.6302,781.89391 11.8335,28.7573 8.4404,55.8587 -9.3097,79.5257 -11.8346,15.2268 -1857.3971,859.7242 -1893.7669,866.5094 -12.6612,1.697 -44.8112,-6.7852 -78.6558,-22.0126 z"
       id="path458-6"
       style="display:inline;fill:#000000;fill-opacity:0.25;stroke-width:0.413772" />
  </g>
  <g
     id="g2463"
     transform="matrix(1.0286205,0,0,1.0286205,-59.15849,5.4795263)">
    <path
       d="m 80.792903,9.1759046 c -2.366416,0 -4.15202,-1.0272021 -4.15202,-2.3952073 V 2.2206792 c 0,-0.4032013 2.206855,2.2303495 3.872454,2.2303495 1.665614,0 4.421981,-2.6335508 4.421981,-2.2303495 v 4.5552181 c 0.0048,1.3680062 -1.776009,2.4000073 -4.142415,2.4000073 z"
       id="path317"
       class="ColorScheme-Text"
       style="color:#0abdc6;fill:url(#oomox);fill-opacity:1;stroke-width:0.0480001" />
    <path
       d="m 80.792903,4.6158891 c -2.366416,0 -4.152021,-1.0272032 -4.152021,-2.3952099 0,-1.36800507 1.785605,-2.39521033 4.152021,-2.39521033 2.366406,0 4.147211,1.02720526 4.147211,2.39521033 0,1.3680067 -1.780805,2.3952099 -4.147211,2.3952099 z"
       id="path315"
       class="ColorScheme-Text"
       style="color:#0abdc6;opacity:1;fill:url(#oomox);fill-opacity:1;stroke-width:0.0480001" />
    <path
       d="m 80.788871,4.6174291 c -2.366405,0 -4.152017,-1.0272041 -4.152017,-2.3952103 0,-1.36800527 1.785612,-2.39521063 4.152017,-2.39521063 2.366415,0 4.147227,1.02720536 4.147227,2.39521063 0,1.3680062 -1.780812,2.3952103 -4.147227,2.3952103 z"
       id="path315-1"
       style="fill:#000000;fill-opacity:0.25;stroke-width:0.0480001" />
  </g>
</svg>
