<?xml version="1.0" encoding="UTF-8" standalone="no"?>
<svg
   width="16"
   height="16"
   version="1.1"
   id="svg750"
   xmlns:xlink="http://www.w3.org/1999/xlink"
   xmlns="http://www.w3.org/2000/svg"
   xmlns:svg="http://www.w3.org/2000/svg"
   xmlns:rdf="http://www.w3.org/1999/02/22-rdf-syntax-ns#"
   xmlns:cc="http://creativecommons.org/ns#"
   xmlns:dc="http://purl.org/dc/elements/1.1/">
   <defs>
      <style id="current-color-scheme" type="text/css">
         .ColorScheme-Text { color: #0abdc6; } .ColorScheme-Highlight { color:#5294e2; }
      </style>
      <linearGradient id="arrongin" x1="0%" x2="0%" y1="0%" y2="100%">
         <stop offset="0%" style="stop-color:#dd9b44; stop-opacity:1"/>
         <stop offset="100%" style="stop-color:#ad6c16; stop-opacity:1"/>
      </linearGradient>
      <linearGradient id="aurora" x1="0%" x2="0%" y1="0%" y2="100%">
         <stop offset="0%" style="stop-color:#09D4DF; stop-opacity:1"/>
         <stop offset="100%" style="stop-color:#9269F4; stop-opacity:1"/>
      </linearGradient>
      <linearGradient id="cyberneon" x1="0%" x2="0%" y1="0%" y2="100%">
         <stop offset="0" style="stop-color:#0abdc6; stop-opacity:1"/>
         <stop offset="1" style="stop-color:#ea00d9; stop-opacity:1"/>
      </linearGradient>
      <linearGradient id="fitdance" x1="0%" x2="0%" y1="0%" y2="100%">
         <stop offset="0%" style="stop-color:#1AD6AB; stop-opacity:1"/>
         <stop offset="100%" style="stop-color:#329DB6; stop-opacity:1"/>
      </linearGradient>
      <linearGradient id="oomox" x1="0%" x2="0%" y1="0%" y2="100%">
         <stop offset="0%" style="stop-color:#0abdc6; stop-opacity:1"/>
         <stop offset="100%" style="stop-color:#b800ff; stop-opacity:1"/>
      </linearGradient>
      <linearGradient id="rainblue" x1="0%" x2="0%" y1="0%" y2="100%">
         <stop offset="0%" style="stop-color:#00F260; stop-opacity:1"/>
         <stop offset="100%" style="stop-color:#0575E6; stop-opacity:1"/>
      </linearGradient>
      <linearGradient id="sunrise" x1="0%" x2="0%" y1="0%" y2="100%">
         <stop offset="0%" style="stop-color: #FF8501; stop-opacity:1"/>
         <stop offset="100%" style="stop-color: #FFCB01; stop-opacity:1"/>
      </linearGradient>
      <linearGradient id="telinkrin" x1="0%" x2="0%" y1="0%" y2="100%">
         <stop offset="0%" style="stop-color: #b2ced6; stop-opacity:1"/>
         <stop offset="100%" style="stop-color: #6da5b7; stop-opacity:1"/>
      </linearGradient>
      <linearGradient id="60spsycho" x1="0%" x2="0%" y1="0%" y2="100%">
         <stop offset="0%" style="stop-color: #df5940; stop-opacity:1"/>
         <stop offset="25%" style="stop-color: #d8d15f; stop-opacity:1"/>
         <stop offset="50%" style="stop-color: #e9882a; stop-opacity:1"/>
         <stop offset="100%" style="stop-color: #279362; stop-opacity:1"/>
      </linearGradient>
      <linearGradient id="90ssummer" x1="0%" x2="0%" y1="0%" y2="100%">
         <stop offset="0%" style="stop-color: #f618c7; stop-opacity:1"/>
         <stop offset="20%" style="stop-color: #94ffab; stop-opacity:1"/>
         <stop offset="50%" style="stop-color: #fbfd54; stop-opacity:1"/>
         <stop offset="100%" style="stop-color: #0f83ae; stop-opacity:1"/>
      </linearGradient>
   </defs>
  <path
     class="ColorScheme-Text"
     d="m 1,0 v 16 h 9 0.75 L 15,11.75 V 11 0 Z m 1,1 h 12 v 10 h -4 v 4 H 2 Z"
     id="path748"
     style="fill:url(#oomox);fill-opacity:1;stroke-width:1" />
  <metadata
     id="metadata245">
    <rdf:RDF>
      <cc:Work
         rdf:about="">
        <cc:license
           rdf:resource="http://creativecommons.org/licenses/by-sa/4.0/" />
        <dc:creator>
          <cc:Agent>
            <dc:title>dreifacherspass</dc:title>
          </cc:Agent>
        </dc:creator>
      </cc:Work>
      <cc:License
         rdf:about="http://creativecommons.org/licenses/by-sa/4.0/">
        <cc:permits
           rdf:resource="http://creativecommons.org/ns#Reproduction" />
        <cc:permits
           rdf:resource="http://creativecommons.org/ns#Distribution" />
        <cc:requires
           rdf:resource="http://creativecommons.org/ns#Notice" />
        <cc:requires
           rdf:resource="http://creativecommons.org/ns#Attribution" />
        <cc:permits
           rdf:resource="http://creativecommons.org/ns#DerivativeWorks" />
        <cc:requires
           rdf:resource="http://creativecommons.org/ns#ShareAlike" />
      </cc:License>
    </rdf:RDF>
  </metadata>
  <path
     d="M 4,10.427 H 4.8888895 V 8.9200032 H 4 Z M 4,7.9538572 H 4.8888895 V 6.4466695 H 4 Z M 4,5.4805224 H 4.8888895 V 3.9733349 H 4 Z M 4,3.0071881 H 4.8888895 V 1.5 H 4 Z M 5.2367154,9.8473113 H 6.4734299 V 8.6108369 H 7.3623194 V 8.2630244 H 6.4734299 V 7.0263575 H 5.2367154 V 7.3741691 H 6.1256038 V 9.4994984 H 5.2367154 Z m 0,-4.9464759 H 6.4734299 V 3.6641674 H 7.3623194 V 3.3163545 H 6.4734299 V 2.0796879 H 5.2367154 V 2.4275006 H 6.1256038 V 4.5530228 H 5.2367154 Z m 2.47343,4.2894967 H 8.5990338 V 7.6833363 H 7.7101454 Z m 0,-4.9464775 H 8.5990338 V 2.736667 H 7.7101454 Z M 8.9468598,8.6108369 H 9.8743962 V 6.1375023 H 10.763286 V 5.7896896 H 9.8743962 V 3.3163545 H 8.9468598 v 0.3478129 h 0.5797103 v 4.598857 H 8.9468598 Z M 11.111111,6.7171893 H 12 V 5.2100017 h -0.888889 z"
     id="path1"
     class="ColorScheme-Text"
     style="fill:url(#oomox);stroke-width:0.0193234" />
  <path
     d="m 3.7609467,12.951171 h 0.8967187 v 1.270654 q -0.2105655,0.06898 -0.4247615,0.101653 -0.214196,0.03267 -0.486479,0.03267 -0.4029788,0 -0.6788922,-0.15974 Q 2.7916192,14.033042 2.6464016,13.735346 2.5048145,13.43402 2.5048145,13.02378 q 0,-0.406609 0.1597393,-0.704305 0.1597394,-0.297696 0.4574355,-0.461066 0.3013265,-0.167 0.726088,-0.167 0.2178264,0 0.4102397,0.03993 0.1960437,0.03993 0.363044,0.112544 l -0.123435,0.283174 q -0.1379567,-0.06172 -0.3122178,-0.105282 -0.1706307,-0.04357 -0.3557831,-0.04357 -0.4646964,0 -0.726088,0.279544 -0.2577613,0.279544 -0.2577613,0.766023 0,0.308587 0.098022,0.548196 0.1016523,0.235979 0.3158483,0.370305 0.2141959,0.130696 0.5627182,0.130696 0.1706307,0 0.2904352,-0.01815 0.1198045,-0.01815 0.2178264,-0.04356 V 13.241606 H 3.7609467 Z m 2.9660719,1.368676 H 5.278473 v -2.592134 h 1.4485456 v 0.286805 h -1.121806 v 0.809588 h 1.056458 v 0.283174 h -1.056458 v 0.925762 h 1.121806 z m 2.64659,-1.32148 q 0,0.65711 -0.3594136,0.99111 -0.3557831,0.33037 -0.9947405,0.33037 H 7.2969969 v -2.592134 h 0.7986968 q 0.3920875,0 0.6788923,0.145218 0.2868048,0.145217 0.4429137,0.428391 0.1561089,0.279544 0.1561089,0.697045 z m -0.3448918,0.01089 q 0,-0.519153 -0.2577612,-0.758762 Q 8.5168248,12.007257 8.048498,12.007257 H 7.6237365 v 2.033046 h 0.3521527 q 1.0528276,0 1.0528276,-1.031045 z"
     id="text24"
     class="ColorScheme-Text"
     style="font-size:3.63044px;opacity:1;fill:url(#oomox);stroke:url(#oomox);stroke-width:0.301629;stroke-linecap:round;stroke-linejoin:bevel"/>
</svg>
