<?xml version="1.0" encoding="UTF-8" standalone="no"?>
<svg
   width="48"
   height="48"
   version="1.1"
   id="svg750"
   xmlns="http://www.w3.org/2000/svg"
   xmlns:svg="http://www.w3.org/2000/svg"
   xmlns:rdf="http://www.w3.org/1999/02/22-rdf-syntax-ns#"
   xmlns:cc="http://creativecommons.org/ns#"
   xmlns:dc="http://purl.org/dc/elements/1.1/">
  <defs
     id="defs746">
      <style
       id="current-color-scheme"
       type="text/css">
   .ColorScheme-Text { color: #0abdc6; } .ColorScheme-Highlight { color:#5294e2; }
  </style>
    <linearGradient
       id="arrongin"
       x1="0%"
       x2="0%"
       y1="0%"
       y2="100%">
      <stop
         offset="0%"
         style="stop-color:#dd9b44; stop-opacity:1"
         id="stop9192" />
      <stop
         offset="100%"
         style="stop-color:#ad6c16; stop-opacity:1"
         id="stop9194" />
    </linearGradient>
    <linearGradient
       id="aurora"
       x1="0%"
       x2="0%"
       y1="0%"
       y2="100%">
      <stop
         offset="0%"
         style="stop-color:#09D4DF; stop-opacity:1"
         id="stop9197" />
      <stop
         offset="100%"
         style="stop-color:#9269F4; stop-opacity:1"
         id="stop9199" />
    </linearGradient>
    <linearGradient
       id="cyberneon"
       x1="0%"
       x2="0%"
       y1="0%"
       y2="100%">
      <stop
         offset="0"
         style="stop-color:#0abdc6; stop-opacity:1"
         id="stop9202" />
      <stop
         offset="1"
         style="stop-color:#ea00d9; stop-opacity:1"
         id="stop9204" />
    </linearGradient>
    <linearGradient
       id="fitdance"
       x1="0%"
       x2="0%"
       y1="0%"
       y2="100%">
      <stop
         offset="0%"
         style="stop-color:#1AD6AB; stop-opacity:1"
         id="stop9207" />
      <stop
         offset="100%"
         style="stop-color:#329DB6; stop-opacity:1"
         id="stop9209" />
    </linearGradient>
    <linearGradient
       id="oomox"
       x1="0%"
       x2="0%"
       y1="0%"
       y2="100%">
      <stop
         offset="0%"
         style="stop-color:#0abdc6; stop-opacity:1"
         id="stop9212" />
      <stop
         offset="100%"
         style="stop-color:#b800ff; stop-opacity:1"
         id="stop9214" />
    </linearGradient>
    <linearGradient
       id="rainblue"
       x1="0%"
       x2="0%"
       y1="0%"
       y2="100%">
      <stop
         offset="0%"
         style="stop-color:#00F260; stop-opacity:1"
         id="stop9217" />
      <stop
         offset="100%"
         style="stop-color:#0575E6; stop-opacity:1"
         id="stop9219" />
    </linearGradient>
    <linearGradient
       id="sunrise"
       x1="0%"
       x2="0%"
       y1="0%"
       y2="100%">
      <stop
         offset="0%"
         style="stop-color: #FF8501; stop-opacity:1"
         id="stop9222" />
      <stop
         offset="100%"
         style="stop-color: #FFCB01; stop-opacity:1"
         id="stop9224" />
    </linearGradient>
    <linearGradient
       id="telinkrin"
       x1="0%"
       x2="0%"
       y1="0%"
       y2="100%">
      <stop
         offset="0%"
         style="stop-color: #b2ced6; stop-opacity:1"
         id="stop9227" />
      <stop
         offset="100%"
         style="stop-color: #6da5b7; stop-opacity:1"
         id="stop9229" />
    </linearGradient>
    <linearGradient
       id="60spsycho"
       x1="0%"
       x2="0%"
       y1="0%"
       y2="100%">
      <stop
         offset="0%"
         style="stop-color: #df5940; stop-opacity:1"
         id="stop9232" />
      <stop
         offset="25%"
         style="stop-color: #d8d15f; stop-opacity:1"
         id="stop9234" />
      <stop
         offset="50%"
         style="stop-color: #e9882a; stop-opacity:1"
         id="stop9236" />
      <stop
         offset="100%"
         style="stop-color: #279362; stop-opacity:1"
         id="stop9238" />
    </linearGradient>
    <linearGradient
       id="90ssummer"
       x1="0%"
       x2="0%"
       y1="0%"
       y2="100%">
      <stop
         offset="0%"
         style="stop-color: #f618c7; stop-opacity:1"
         id="stop9241" />
      <stop
         offset="20%"
         style="stop-color: #94ffab; stop-opacity:1"
         id="stop9243" />
      <stop
         offset="50%"
         style="stop-color: #fbfd54; stop-opacity:1"
         id="stop9245" />
      <stop
         offset="100%"
         style="stop-color: #0f83ae; stop-opacity:1"
         id="stop9247" />
    </linearGradient>
  </defs>
  <path
     class="ColorScheme-Text"
     d="m 3.4375,0.5 v 47 H 29.875 32.078125 L 44.5625,35.015625 V 32.8125 0.5 Z M 6.375,3.4375 h 35.25 v 29.375 h -11.75 v 11.75 h -23.5 z"
     id="path748"
     style="fill:url(#oomox);fill-opacity:1;stroke-width:2.9375" />
  <path
     style="fill:url(#oomox);fill-opacity:1;stroke-width:0.930197"
     d="m 34.147638,4.7070969 c -3.656699,0 -6.511458,2.7213884 -6.511458,6.2934381 3.44e-4,1.530885 2.790621,1.530885 2.790621,0 0,-2.0411637 0.965591,-3.502813 3.720837,-3.502813 2.755213,0 3.720819,1.4616493 3.720819,3.502813 0,1.530885 2.790614,1.530885 2.790614,0 0,-3.5720497 -2.854701,-6.2934381 -6.511433,-6.2934381 z m 0,4.6510387 c -1.02794,0 -1.860437,0.8297004 -1.860437,1.8549694 0,1.0252 0.832497,1.856781 1.860437,1.856781 1.027916,0 1.86041,-0.831581 1.86041,-1.856781 0,-1.025269 -0.832494,-1.8549694 -1.86041,-1.8549694 z M 23.915342,14.009178 c -1.932816,0 -4.211006,1.167281 -5.263302,2.623476 -1.052239,-1.456195 -3.036162,-2.438161 -4.968978,-2.438161 -3.193658,0 -6.511452,1.961135 -6.511452,7.349006 v 8.876945 c 0,0 1.414e-4,1.262685 1.2881191,1.262685 1.2879812,0 1.5025045,-1.262685 1.5025045,-1.262685 v -8.876945 c -0.00117,-4.094702 1.7470274,-4.743698 3.7208284,-4.743698 1.973796,0 3.72083,1.251359 3.72083,4.02242 v 9.598223 c 0,0 0.071,1.262685 1.358976,1.262685 1.287978,0 1.431646,-1.262685 1.431646,-1.262685 v -9.598223 c 0,-2.771061 1.747033,-4.02242 3.720828,-4.02242 1.253087,0 3.688135,0.166371 3.688135,4.02242 l 0.07451,3.275717 c -3e-6,6.05512 3.88518,7.585191 6.469672,7.585191 2.584498,0 6.432494,-1.786295 6.511451,-7.1437 v -8.47362 c 0,-1.474696 -2.790635,-1.474696 -2.790635,0 v 8.346439 c 0,4.064232 -2.428548,4.480263 -3.720816,4.480263 -1.292256,0 -3.717195,-0.157977 -3.717195,-4.919934 l -0.07453,-2.974119 c 3e-6,-4.592841 -3.156829,-6.98928 -6.440597,-6.98928 z"
     id="path1178"
     class="ColorScheme-Text"/>
  <metadata
     id="metadata245">
    <rdf:RDF>
      <cc:Work
         rdf:about="">
        <dc:contributor>
          <cc:Agent>
            <dc:title>dreifacherspass</dc:title>
          </cc:Agent>
        </dc:contributor>
      </cc:Work>
    </rdf:RDF>
  </metadata>
</svg>
