<?xml version="1.0" encoding="UTF-8" standalone="no"?>
<svg
   width="16"
   height="16"
   version="1.1"
   id="svg24"
   xmlns="http://www.w3.org/2000/svg"
   xmlns:svg="http://www.w3.org/2000/svg"
   xmlns:rdf="http://www.w3.org/1999/02/22-rdf-syntax-ns#"
   xmlns:cc="http://creativecommons.org/ns#"
   xmlns:dc="http://purl.org/dc/elements/1.1/">
   <defs>
      <style id="current-color-scheme" type="text/css">
         .ColorScheme-Text { color: #0abdc6; } .ColorScheme-Highlight { color:#5294e2; }
      </style>
      <linearGradient id="arrongin" x1="0%" x2="0%" y1="0%" y2="100%">
         <stop offset="0%" style="stop-color:#dd9b44; stop-opacity:1"/>
         <stop offset="100%" style="stop-color:#ad6c16; stop-opacity:1"/>
      </linearGradient>
      <linearGradient id="aurora" x1="0%" x2="0%" y1="0%" y2="100%">
         <stop offset="0%" style="stop-color:#09D4DF; stop-opacity:1"/>
         <stop offset="100%" style="stop-color:#9269F4; stop-opacity:1"/>
      </linearGradient>
      <linearGradient id="cyberneon" x1="0%" x2="0%" y1="0%" y2="100%">
         <stop offset="0" style="stop-color:#0abdc6; stop-opacity:1"/>
         <stop offset="1" style="stop-color:#ea00d9; stop-opacity:1"/>
      </linearGradient>
      <linearGradient id="fitdance" x1="0%" x2="0%" y1="0%" y2="100%">
         <stop offset="0%" style="stop-color:#1AD6AB; stop-opacity:1"/>
         <stop offset="100%" style="stop-color:#329DB6; stop-opacity:1"/>
      </linearGradient>
      <linearGradient id="oomox" x1="0%" x2="0%" y1="0%" y2="100%">
         <stop offset="0%" style="stop-color:#0abdc6; stop-opacity:1"/>
         <stop offset="100%" style="stop-color:#b800ff; stop-opacity:1"/>
      </linearGradient>
      <linearGradient id="rainblue" x1="0%" x2="0%" y1="0%" y2="100%">
         <stop offset="0%" style="stop-color:#00F260; stop-opacity:1"/>
         <stop offset="100%" style="stop-color:#0575E6; stop-opacity:1"/>
      </linearGradient>
      <linearGradient id="sunrise" x1="0%" x2="0%" y1="0%" y2="100%">
         <stop offset="0%" style="stop-color: #FF8501; stop-opacity:1"/>
         <stop offset="100%" style="stop-color: #FFCB01; stop-opacity:1"/>
      </linearGradient>
      <linearGradient id="telinkrin" x1="0%" x2="0%" y1="0%" y2="100%">
         <stop offset="0%" style="stop-color: #b2ced6; stop-opacity:1"/>
         <stop offset="100%" style="stop-color: #6da5b7; stop-opacity:1"/>
      </linearGradient>
      <linearGradient id="60spsycho" x1="0%" x2="0%" y1="0%" y2="100%">
         <stop offset="0%" style="stop-color: #df5940; stop-opacity:1"/>
         <stop offset="25%" style="stop-color: #d8d15f; stop-opacity:1"/>
         <stop offset="50%" style="stop-color: #e9882a; stop-opacity:1"/>
         <stop offset="100%" style="stop-color: #279362; stop-opacity:1"/>
      </linearGradient>
      <linearGradient id="90ssummer" x1="0%" x2="0%" y1="0%" y2="100%">
         <stop offset="0%" style="stop-color: #f618c7; stop-opacity:1"/>
         <stop offset="20%" style="stop-color: #94ffab; stop-opacity:1"/>
         <stop offset="50%" style="stop-color: #fbfd54; stop-opacity:1"/>
         <stop offset="100%" style="stop-color: #0f83ae; stop-opacity:1"/>
      </linearGradient>
   </defs>
  <path
     fill="url(#oomox)"
     class="ColorScheme-Text"
     d="M 9.9570312 0.025390625 L 9.9570312 3.8164062 L 16 3.8164062 L 16 0.025390625 L 9.9570312 0.025390625 z M 9.9550781 1.2128906 L 7.1503906 1.21875 L 7.1582031 7.4199219 L 6.0429688 7.4042969 L 6.0429688 6.25 L 0 6.25 L 0 9.6601562 L 6.0429688 9.6601562 L 6.0429688 8.5429688 L 7.1582031 8.5292969 L 7.1503906 14.730469 L 9.9570312 14.734375 L 9.9570312 16 L 16 16 L 16 12.208984 L 9.9570312 12.208984 L 9.9570312 13.644531 L 8.3808594 13.644531 L 8.3867188 8.5117188 L 8.390625 8.5117188 L 8.390625 7.9726562 L 8.390625 7.4375 L 8.3867188 7.4375 L 8.3808594 2.3046875 L 9.9550781 2.3027344 L 9.9550781 1.2128906 z"
     id="path24" />
  <path
     d="m 10.236524,7.9273925 h 0.896719 v 1.270654 q -0.210566,0.06898 -0.424762,0.101653 -0.214196,0.03267 -0.486479,0.03267 -0.402979,0 -0.6788924,-0.15974 -0.2759135,-0.163366 -0.4211311,-0.461062 -0.1415871,-0.301326 -0.1415871,-0.711566 0,-0.406609 0.1597393,-0.704305 0.1597394,-0.297696 0.4574355,-0.461066 0.3013265,-0.167 0.7260888,-0.167 0.217826,0 0.410239,0.03993 0.196044,0.03993 0.363044,0.112544 l -0.123435,0.283174 q -0.137956,-0.06172 -0.312217,-0.105282 -0.170631,-0.04357 -0.355784,-0.04357 -0.4646964,0 -0.726088,0.279544 -0.2577613,0.279544 -0.2577613,0.766023 0,0.308587 0.098022,0.548196 0.1016523,0.235979 0.3158483,0.370305 0.2141959,0.130696 0.562719,0.130696 0.17063,0 0.290435,-0.01815 0.119804,-0.01815 0.217826,-0.04356 v -0.769653 h -0.569979 z m 2.966072,1.368676 H 11.75405 v -2.592134 h 1.448546 v 0.286805 H 12.08079 v 0.809588 h 1.056458 v 0.283174 H 12.08079 v 0.925762 h 1.121806 z m 2.646589,-1.32148 q 0,0.65711 -0.359414,0.99111 -0.355783,0.33037 -0.99474,0.33037 h -0.722457 v -2.592134 h 0.798696 q 0.392087,0 0.678892,0.145218 0.286805,0.145217 0.442914,0.428391 0.156109,0.279544 0.156109,0.697045 z m -0.344892,0.01089 q 0,-0.519153 -0.257761,-0.758762 -0.254131,-0.243238 -0.722458,-0.243238 h -0.42476 v 2.033046 h 0.352152 q 1.052827,0 1.052827,-1.031046 z"
     id="text24"
     class="ColorScheme-Text"
     style="fill:url(#oomox);stroke:url(#oomox);stroke-width:0.301629;stroke-linecap:round;stroke-linejoin:bevel" />
  <metadata
     id="metadata1">
    <rdf:RDF>
      <cc:Work
         rdf:about="">
        <dc:creator>
          <cc:Agent>
            <dc:title>dreifacherspass</dc:title>
          </cc:Agent>
        </dc:creator>
        <cc:license
           rdf:resource="http://creativecommons.org/licenses/by-sa/4.0/" />
      </cc:Work>
      <cc:License
         rdf:about="http://creativecommons.org/licenses/by-sa/4.0/">
        <cc:permits
           rdf:resource="http://creativecommons.org/ns#Reproduction" />
        <cc:permits
           rdf:resource="http://creativecommons.org/ns#Distribution" />
        <cc:requires
           rdf:resource="http://creativecommons.org/ns#Notice" />
        <cc:requires
           rdf:resource="http://creativecommons.org/ns#Attribution" />
        <cc:permits
           rdf:resource="http://creativecommons.org/ns#DerivativeWorks" />
        <cc:requires
           rdf:resource="http://creativecommons.org/ns#ShareAlike" />
      </cc:License>
    </rdf:RDF>
  </metadata>
</svg>
