<?xml version="1.0" encoding="UTF-8" standalone="no"?>
<svg
   width="16"
   height="16"
   version="1.1"
   id="svg750"
   xmlns:xlink="http://www.w3.org/1999/xlink"
   xmlns="http://www.w3.org/2000/svg"
   xmlns:svg="http://www.w3.org/2000/svg"
   xmlns:rdf="http://www.w3.org/1999/02/22-rdf-syntax-ns#"
   xmlns:cc="http://creativecommons.org/ns#"
   xmlns:dc="http://purl.org/dc/elements/1.1/">
  <defs>
   <style id="current-color-scheme" type="text/css">
   .ColorScheme-Text { color: #0abdc6; } .ColorScheme-Highlight { color:#5294e2; }
  </style>
  <linearGradient id="arrongin" x1="0%" x2="0%" y1="0%" y2="100%">
   <stop offset="0%" style="stop-color:#dd9b44; stop-opacity:1"/>
   <stop offset="100%" style="stop-color:#ad6c16; stop-opacity:1"/>
  </linearGradient>
  <linearGradient id="aurora" x1="0%" x2="0%" y1="0%" y2="100%">
   <stop offset="0%" style="stop-color:#09D4DF; stop-opacity:1"/>
   <stop offset="100%" style="stop-color:#9269F4; stop-opacity:1"/>
  </linearGradient>
  <linearGradient id="cyberneon" x1="0%" x2="0%" y1="0%" y2="100%">
    <stop offset="0" style="stop-color:#0abdc6; stop-opacity:1"/>
    <stop offset="1" style="stop-color:#ea00d9; stop-opacity:1"/>
  </linearGradient>
  <linearGradient id="fitdance" x1="0%" x2="0%" y1="0%" y2="100%">
   <stop offset="0%" style="stop-color:#1AD6AB; stop-opacity:1"/>
   <stop offset="100%" style="stop-color:#329DB6; stop-opacity:1"/>
  </linearGradient>
  <linearGradient id="oomox" x1="0%" x2="0%" y1="0%" y2="100%">
   <stop offset="0%" style="stop-color:#0abdc6; stop-opacity:1"/>
   <stop offset="100%" style="stop-color:#b800ff; stop-opacity:1"/>
  </linearGradient>
  <linearGradient id="rainblue" x1="0%" x2="0%" y1="0%" y2="100%">
   <stop offset="0%" style="stop-color:#00F260; stop-opacity:1"/>
   <stop offset="100%" style="stop-color:#0575E6; stop-opacity:1"/>
  </linearGradient>
  <linearGradient id="sunrise" x1="0%" x2="0%" y1="0%" y2="100%">
   <stop offset="0%" style="stop-color: #FF8501; stop-opacity:1"/>
   <stop offset="100%" style="stop-color: #FFCB01; stop-opacity:1"/>
  </linearGradient>
  <linearGradient id="telinkrin" x1="0%" x2="0%" y1="0%" y2="100%">
   <stop offset="0%" style="stop-color: #b2ced6; stop-opacity:1"/>
   <stop offset="100%" style="stop-color: #6da5b7; stop-opacity:1"/>
  </linearGradient>
  <linearGradient id="60spsycho" x1="0%" x2="0%" y1="0%" y2="100%">
   <stop offset="0%" style="stop-color: #df5940; stop-opacity:1"/>
   <stop offset="25%" style="stop-color: #d8d15f; stop-opacity:1"/>
   <stop offset="50%" style="stop-color: #e9882a; stop-opacity:1"/>
   <stop offset="100%" style="stop-color: #279362; stop-opacity:1"/>
  </linearGradient>
  <linearGradient id="90ssummer" x1="0%" x2="0%" y1="0%" y2="100%">
   <stop offset="0%" style="stop-color: #f618c7; stop-opacity:1"/>
   <stop offset="20%" style="stop-color: #94ffab; stop-opacity:1"/>
   <stop offset="50%" style="stop-color: #fbfd54; stop-opacity:1"/>
   <stop offset="100%" style="stop-color: #0f83ae; stop-opacity:1"/>
  </linearGradient>
 </defs>
  <path
     class="ColorScheme-Text"
     d="m 1,0 v 16 h 9 0.75 L 15,11.75 V 11 0 Z m 1,1 h 12 v 10 h -4 v 4 H 2 Z"
     id="path748"
     style="fill:url(#oomox);fill-opacity:1;stroke-width:1" />
  <metadata
     id="metadata245">
    <rdf:RDF>
      <cc:Work
         rdf:about="">
        <cc:license
           rdf:resource="http://creativecommons.org/licenses/by-sa/4.0/" />
        <dc:creator>
          <cc:Agent>
            <dc:title>dreifacherspass</dc:title>
          </cc:Agent>
        </dc:creator>
      </cc:Work>
      <cc:License
         rdf:about="http://creativecommons.org/licenses/by-sa/4.0/">
        <cc:permits
           rdf:resource="http://creativecommons.org/ns#Reproduction" />
        <cc:permits
           rdf:resource="http://creativecommons.org/ns#Distribution" />
        <cc:requires
           rdf:resource="http://creativecommons.org/ns#Notice" />
        <cc:requires
           rdf:resource="http://creativecommons.org/ns#Attribution" />
        <cc:permits
           rdf:resource="http://creativecommons.org/ns#DerivativeWorks" />
        <cc:requires
           rdf:resource="http://creativecommons.org/ns#ShareAlike" />
      </cc:License>
    </rdf:RDF>
  </metadata>
  <path
     style="fill:url(#oomox);stroke-width:0.45496"
     d="m 12.998503,10.40911 c -0.06491,-0.03407 -0.418574,-0.193953 -0.785887,-0.355219 -0.764589,-0.3356722 -1.546305,-0.8843974 -1.565478,-1.0988263 -0.01701,-0.1903005 0.207685,-0.3637222 0.568214,-0.4386294 0.173047,-0.035953 0.399325,-0.089662 0.502836,-0.1193756 l 0.188213,-0.054028 -0.302258,-0.179476 C 11.318214,7.9937514 11.101651,7.9161648 10.473003,7.7582545 10.06598,7.6560355 9.7508738,7.3610657 9.3686502,6.7245826 8.3729709,5.0664634 8.1917767,4.7955678 7.876849,4.4941655 7.5222473,4.1547601 7.02372,3.812693 6.3634705,3.4557839 5.715171,3.1053175 5.6165568,3.0771534 5.175066,3.116628 4.8235049,3.1480616 4.7476944,3.1354634 4.5155467,3.006975 4.148819,2.8040311 3.7923155,2.6901418 3.5790575,2.7077889 3.3044964,2.7305381 3.3542377,2.9211605 3.7363633,3.3107194 4.1072888,3.6888623 4.198749,3.8218139 4.408289,4.287505 c 0.08625,0.1916792 0.3056489,0.5580311 0.4875603,0.8141098 0.1819079,0.2560762 0.3328718,0.489447 0.33548,0.5186176 0.00261,0.029167 -0.044669,0.2458619 -0.1050696,0.4815727 C 4.9934954,6.619926 4.992361,7.1614007 5.123224,7.5510942 5.3503158,8.2273306 5.5617083,8.303306 5.6270521,7.7321602 5.683765,7.2363688 5.830614,6.926736 6.0162626,6.9114226 6.0733796,6.9066873 6.2799781,7.1665141 6.5925381,7.6360891 6.8605119,8.0386967 7.240792,8.5435301 7.4375942,8.7579452 7.6343973,8.9723624 7.7850447,9.1599788 7.7723691,9.1748812 7.7423323,9.2102098 7.2523831,8.8713431 6.8897978,8.5645254 6.7328466,8.4316981 6.5028087,8.1855533 6.3786006,8.0174955 6.1642566,7.7275526 6.1507802,7.7188973 6.1141533,7.8476754 6.0929449,7.9223067 6.065144,8.0639757 6.0524075,8.162489 6.0156746,8.4466315 5.8593833,8.6383586 5.6491843,8.6571529 5.3549082,8.6834646 5.1177712,8.4108648 4.8887285,7.7829895 4.7356875,7.3634729 4.6830234,6.4465967 4.7850382,5.9778846 4.8508293,5.6756177 4.8507288,5.6751051 4.7007741,5.5432185 4.5077316,5.3734249 4.3895075,5.1835283 4.119241,4.6091729 3.9478206,4.2448619 3.8011149,4.0389941 3.4493565,3.6690173 3.133045,3.3363394 2.9821992,3.132128 2.9426303,2.9831005 2.8199267,2.5207082 2.9795151,2.2315919 3.3721661,2.2049093 3.6757386,2.1842507 4.3144523,2.3336772 4.597985,2.4916244 c 0.1672609,0.093177 0.3289575,0.1258564 0.6367257,0.1286755 0.7570854,0.00694 1.6172947,0.4059027 2.5513525,1.1832704 0.9047436,0.7529883 1.6174813,1.6724273 1.9242612,2.4822975 0.2055758,0.5426844 0.4753206,0.783331 1.1809776,1.0535187 0.518085,0.1983697 0.680542,0.2949008 1.170653,0.6957501 0.31299,0.2559773 0.572792,0.5071804 0.577353,0.5581985 0.0101,0.112157 -0.216418,0.2128238 -0.676077,0.3005524 -0.644512,0.1230182 -0.640619,0.1101553 -0.123305,0.4077809 0.881866,0.5073904 1.205546,0.7641556 1.319794,1.0469936 0.05456,0.135047 0.01112,0.15122 -0.16124,0.06041 z M 5.233587,4.0848279 C 5.1786425,3.9820917 5.0810681,3.8760892 5.0167577,3.8492724 4.8799466,3.7922202 4.8565745,3.6826677 4.9597212,3.5819502 5.0703135,3.4739683 5.4306375,3.6010782 5.4898764,3.768962 5.6308114,4.168413 5.4183334,4.4302849 5.2335736,4.084829 Z"
     id="path7"
     class="ColorScheme-Text"/>
</svg>
