<?xml version="1.0" encoding="UTF-8" standalone="no"?>
<svg
   width="16"
   height="16"
   version="1.1"
   id="svg750"
   sodipodi:docname="application-x-musescore.svg"
   inkscape:version="1.2.2 (b0a8486541, 2022-12-01)"
   xmlns:inkscape="http://www.inkscape.org/namespaces/inkscape"
   xmlns:sodipodi="http://sodipodi.sourceforge.net/DTD/sodipodi-0.dtd"
   xmlns:xlink="http://www.w3.org/1999/xlink"
   xmlns="http://www.w3.org/2000/svg"
   xmlns:svg="http://www.w3.org/2000/svg">
  <sodipodi:namedview
     id="namedview752"
     pagecolor="#ffffff"
     bordercolor="#000000"
     borderopacity="0.25"
     inkscape:showpageshadow="2"
     inkscape:pageopacity="0.0"
     inkscape:pagecheckerboard="0"
     inkscape:deskcolor="#d1d1d1"
     showgrid="false"
     inkscape:zoom="14.75"
     inkscape:cx="8"
     inkscape:cy="8"
     inkscape:window-width="1680"
     inkscape:window-height="1018"
     inkscape:window-x="0"
     inkscape:window-y="0"
     inkscape:window-maximized="1"
     inkscape:current-layer="svg750" />
  <defs
     id="defs746">
     <linearGradient
       id="oomox"
       x1="0%"
       x2="0%"
       y1="0%"
       y2="100%">
      <stop
         offset="0%"
         style="stop-color: #0abdc6; stop-opacity: 1"
         id="stop708" />
      <stop
         offset="100%"
         style="stop-color: #b800ff; stop-opacity: 1"
         id="stop710" />
    </linearGradient>
  </defs>
  <path
     class="ColorScheme-Text"
     d="m 1,0 v 16 h 9 0.75 L 15,11.75 V 11 0 Z m 1,1 h 12 v 10 h -4 v 4 H 2 Z"
     id="path748"
     sodipodi:nodetypes="ccccccccccccccc"
     style="fill:url(#oomox);fill-opacity:1.0" />
  <path
     style="fill:url(#oomox);fill-opacity:1.0;stroke-width:0.316663"
     d="m 11.454515,1.4322032 c -1.244834,0 -2.2166666,0.9264301 -2.2166666,2.1424469 1.175e-4,0.5211525 0.9499986,0.5211525 0.9499986,0 0,-0.6948642 0.328712,-1.1924469 1.266668,-1.1924469 0.937945,0 1.266662,0.4975827 1.266662,1.1924469 0,0.5211525 0.949996,0.5211525 0.949996,0 0,-1.2160168 -0.971813,-2.1424469 -2.216658,-2.1424469 z m 0,1.5833324 c -0.349937,0 -0.63334,0.2824511 -0.63334,0.6314786 0,0.3490045 0.283403,0.6320958 0.63334,0.6320958 0.349929,0 0.633331,-0.2830913 0.633331,-0.6320958 0,-0.3490275 -0.283402,-0.6314786 -0.633331,-0.6314786 z M 7.9711804,4.5988693 c -0.6579803,0 -1.433534,0.3973722 -1.7917623,0.8930982 C 5.8212088,4.9962411 5.1458308,4.661955 4.4878507,4.661955 c -1.0872025,0 -2.2166643,0.6676203 -2.2166643,2.5017892 v 3.0219388 c 0,0 4.81e-5,0.42985 0.4385086,0.42985 0.4384617,0 0.5114909,-0.42985 0.5114909,-0.42985 V 7.1637442 C 3.2207861,5.7698034 3.8159185,5.5488683 4.4878507,5.5488683 c 0.6719309,0 1.2666659,0.4259948 1.2666659,1.3693349 v 3.2674798 c 0,0 0.02417,0.42985 0.4626299,0.42985 0.4384606,0 0.4873691,-0.42985 0.4873691,-0.42985 V 6.9182032 c 0,-0.9433401 0.5947347,-1.3693349 1.2666648,-1.3693349 0.4265824,0 1.2555351,0.056637 1.2555351,1.3693349 l 0.025365,1.1151373 c -8e-7,2.0613175 1.3226145,2.5821925 2.2024415,2.5821925 0.879829,0 2.189785,-0.6081 2.216664,-2.4318974 V 5.2989989 c 0,-0.5020242 -0.950003,-0.5020242 -0.950003,0 v 2.8413407 c 0,1.3835679 -0.82674,1.5251959 -1.266661,1.5251959 -0.439917,0 -1.265428,-0.053781 -1.265428,-1.6748711 l -0.02537,-1.0124661 c 1e-6,-1.5635202 -1.0746651,-2.379329 -2.192543,-2.379329 z"
     id="path1178" />
</svg>
