<?xml version="1.0" encoding="UTF-8" standalone="no"?>
<svg
   width="16"
   height="16"
   version="1.1"
   id="svg24"
   xmlns:xlink="http://www.w3.org/1999/xlink"
   xmlns="http://www.w3.org/2000/svg"
   xmlns:svg="http://www.w3.org/2000/svg"
   xmlns:rdf="http://www.w3.org/1999/02/22-rdf-syntax-ns#"
   xmlns:cc="http://creativecommons.org/ns#"
   xmlns:dc="http://purl.org/dc/elements/1.1/">
   <defs>
      <style id="current-color-scheme" type="text/css">
         .ColorScheme-Text { color: #0abdc6; } .ColorScheme-Highlight { color:#5294e2; }
      </style>
      <linearGradient id="arrongin" x1="0%" x2="0%" y1="0%" y2="100%">
         <stop offset="0%" style="stop-color:#dd9b44; stop-opacity:1"/>
         <stop offset="100%" style="stop-color:#ad6c16; stop-opacity:1"/>
      </linearGradient>
      <linearGradient id="aurora" x1="0%" x2="0%" y1="0%" y2="100%">
         <stop offset="0%" style="stop-color:#09D4DF; stop-opacity:1"/>
         <stop offset="100%" style="stop-color:#9269F4; stop-opacity:1"/>
      </linearGradient>
      <linearGradient id="cyberneon" x1="0%" x2="0%" y1="0%" y2="100%">
         <stop offset="0" style="stop-color:#0abdc6; stop-opacity:1"/>
         <stop offset="1" style="stop-color:#ea00d9; stop-opacity:1"/>
      </linearGradient>
      <linearGradient id="fitdance" x1="0%" x2="0%" y1="0%" y2="100%">
         <stop offset="0%" style="stop-color:#1AD6AB; stop-opacity:1"/>
         <stop offset="100%" style="stop-color:#329DB6; stop-opacity:1"/>
      </linearGradient>
      <linearGradient id="oomox" x1="0%" x2="0%" y1="0%" y2="100%">
         <stop offset="0%" style="stop-color:#0abdc6; stop-opacity:1"/>
         <stop offset="100%" style="stop-color:#b800ff; stop-opacity:1"/>
      </linearGradient>
      <linearGradient id="rainblue" x1="0%" x2="0%" y1="0%" y2="100%">
         <stop offset="0%" style="stop-color:#00F260; stop-opacity:1"/>
         <stop offset="100%" style="stop-color:#0575E6; stop-opacity:1"/>
      </linearGradient>
      <linearGradient id="sunrise" x1="0%" x2="0%" y1="0%" y2="100%">
         <stop offset="0%" style="stop-color: #FF8501; stop-opacity:1"/>
         <stop offset="100%" style="stop-color: #FFCB01; stop-opacity:1"/>
      </linearGradient>
      <linearGradient id="telinkrin" x1="0%" x2="0%" y1="0%" y2="100%">
         <stop offset="0%" style="stop-color: #b2ced6; stop-opacity:1"/>
         <stop offset="100%" style="stop-color: #6da5b7; stop-opacity:1"/>
      </linearGradient>
      <linearGradient id="60spsycho" x1="0%" x2="0%" y1="0%" y2="100%">
         <stop offset="0%" style="stop-color: #df5940; stop-opacity:1"/>
         <stop offset="25%" style="stop-color: #d8d15f; stop-opacity:1"/>
         <stop offset="50%" style="stop-color: #e9882a; stop-opacity:1"/>
         <stop offset="100%" style="stop-color: #279362; stop-opacity:1"/>
      </linearGradient>
      <linearGradient id="90ssummer" x1="0%" x2="0%" y1="0%" y2="100%">
         <stop offset="0%" style="stop-color: #f618c7; stop-opacity:1"/>
         <stop offset="20%" style="stop-color: #94ffab; stop-opacity:1"/>
         <stop offset="50%" style="stop-color: #fbfd54; stop-opacity:1"/>
         <stop offset="100%" style="stop-color: #0f83ae; stop-opacity:1"/>
      </linearGradient>
   </defs>
  <path
     fill="url(#oomox)"
     class="ColorScheme-Text"
     d="M 9.9570312 0.025390625 L 9.9570312 3.8164062 L 16 3.8164062 L 16 0.025390625 L 9.9570312 0.025390625 z M 9.9550781 1.2128906 L 7.1503906 1.21875 L 7.1582031 7.4199219 L 6.0429688 7.4042969 L 6.0429688 6.25 L 0 6.25 L 0 9.6601562 L 6.0429688 9.6601562 L 6.0429688 8.5429688 L 7.1582031 8.5292969 L 7.1503906 14.730469 L 9.9570312 14.734375 L 9.9570312 16 L 16 16 L 16 12.208984 L 9.9570312 12.208984 L 9.9570312 13.644531 L 8.3808594 13.644531 L 8.3867188 8.5117188 L 8.390625 8.5117188 L 8.390625 7.9726562 L 8.390625 7.4375 L 8.3867188 7.4375 L 8.3808594 2.3046875 L 9.9550781 2.3027344 L 9.9550781 1.2128906 z"
     id="path24" />
  <metadata
     id="metadata1">
    <rdf:RDF>
      <cc:Work
         rdf:about="">
        <dc:creator>
          <cc:Agent>
            <dc:title>dreifacherspass</dc:title>
          </cc:Agent>
        </dc:creator>
        <cc:license
           rdf:resource="http://creativecommons.org/licenses/by-sa/4.0/" />
      </cc:Work>
      <cc:License
         rdf:about="http://creativecommons.org/licenses/by-sa/4.0/">
        <cc:permits
           rdf:resource="http://creativecommons.org/ns#Reproduction" />
        <cc:permits
           rdf:resource="http://creativecommons.org/ns#Distribution" />
        <cc:requires
           rdf:resource="http://creativecommons.org/ns#Notice" />
        <cc:requires
           rdf:resource="http://creativecommons.org/ns#Attribution" />
        <cc:permits
           rdf:resource="http://creativecommons.org/ns#DerivativeWorks" />
        <cc:requires
           rdf:resource="http://creativecommons.org/ns#ShareAlike" />
      </cc:License>
    </rdf:RDF>
  </metadata>
  <path
     d="M 10.724427,9.3041412 H 10.351816 L 9.6613878,8.1716937 8.9600011,9.3041412 H 8.6129608 L 9.478735,7.9452042 8.6677566,6.6958589 H 9.0330623 L 9.6723481,7.7187147 10.315284,6.6958589 h 0.34704 L 9.8550009,7.9378981 Z m 1.519673,0 -0.858469,-2.2868134 h -0.01461 q 0.01097,0.1132446 0.01827,0.3068568 0.0073,0.1899589 0.0073,0.3981831 v 1.5817735 h -0.30318 V 6.6958589 h 0.485857 l 0.803673,2.137038 h 0.01461 l 0.818295,-2.1370381 h 0.482203 V 9.3041412 H 13.37293 V 7.7004494 q 0,-0.189959 0.0073,-0.3762648 0.01097,-0.186306 0.01827,-0.3032038 h -0.01461 l -0.869426,2.2831604 z m 2.162609,0 V 6.6958589 h 0.328775 v 2.3160379 h 1.139753 v 0.2922444 z"
     id="text24"
     style="fill:url(#oomox);stroke:url(#oomox);stroke-width:0.249526;stroke-linecap:round;stroke-linejoin:bevel;stroke-dasharray:none"
     aria-label="XML" />
</svg>
