<?xml version="1.0" encoding="UTF-8" standalone="no"?>
<!-- Created with Inkscape (http://www.inkscape.org/) -->

<svg
   width="22"
   height="22"
   viewBox="0 0 22 22"
   version="1.1"
   id="svg689"
   xmlns:xlink="http://www.w3.org/1999/xlink"
   xmlns="http://www.w3.org/2000/svg"
   xmlns:svg="http://www.w3.org/2000/svg"
   xmlns:rdf="http://www.w3.org/1999/02/22-rdf-syntax-ns#"
   xmlns:cc="http://creativecommons.org/ns#"
   xmlns:dc="http://purl.org/dc/elements/1.1/">
  <defs>
   <style id="current-color-scheme" type="text/css">
   .ColorScheme-Text { color: #0abdc6; } .ColorScheme-Highlight { color:#5294e2; }
  </style>
  <linearGradient id="arrongin" x1="0%" x2="0%" y1="0%" y2="100%">
   <stop offset="0%" style="stop-color:#dd9b44; stop-opacity:1"/>
   <stop offset="100%" style="stop-color:#ad6c16; stop-opacity:1"/>
  </linearGradient>
  <linearGradient id="aurora" x1="0%" x2="0%" y1="0%" y2="100%">
   <stop offset="0%" style="stop-color:#09D4DF; stop-opacity:1"/>
   <stop offset="100%" style="stop-color:#9269F4; stop-opacity:1"/>
  </linearGradient>
  <linearGradient id="cyberneon" x1="0%" x2="0%" y1="0%" y2="100%">
    <stop offset="0" style="stop-color:#0abdc6; stop-opacity:1"/>
    <stop offset="1" style="stop-color:#ea00d9; stop-opacity:1"/>
  </linearGradient>
  <linearGradient id="fitdance" x1="0%" x2="0%" y1="0%" y2="100%">
   <stop offset="0%" style="stop-color:#1AD6AB; stop-opacity:1"/>
   <stop offset="100%" style="stop-color:#329DB6; stop-opacity:1"/>
  </linearGradient>
  <linearGradient id="oomox" x1="0%" x2="0%" y1="0%" y2="100%">
   <stop offset="0%" style="stop-color:#0abdc6; stop-opacity:1"/>
   <stop offset="100%" style="stop-color:#b800ff; stop-opacity:1"/>
  </linearGradient>
  <linearGradient id="rainblue" x1="0%" x2="0%" y1="0%" y2="100%">
   <stop offset="0%" style="stop-color:#00F260; stop-opacity:1"/>
   <stop offset="100%" style="stop-color:#0575E6; stop-opacity:1"/>
  </linearGradient>
  <linearGradient id="sunrise" x1="0%" x2="0%" y1="0%" y2="100%">
   <stop offset="0%" style="stop-color: #FF8501; stop-opacity:1"/>
   <stop offset="100%" style="stop-color: #FFCB01; stop-opacity:1"/>
  </linearGradient>
  <linearGradient id="telinkrin" x1="0%" x2="0%" y1="0%" y2="100%">
   <stop offset="0%" style="stop-color: #b2ced6; stop-opacity:1"/>
   <stop offset="100%" style="stop-color: #6da5b7; stop-opacity:1"/>
  </linearGradient>
  <linearGradient id="60spsycho" x1="0%" x2="0%" y1="0%" y2="100%">
   <stop offset="0%" style="stop-color: #df5940; stop-opacity:1"/>
   <stop offset="25%" style="stop-color: #d8d15f; stop-opacity:1"/>
   <stop offset="50%" style="stop-color: #e9882a; stop-opacity:1"/>
   <stop offset="100%" style="stop-color: #279362; stop-opacity:1"/>
  </linearGradient>
  <linearGradient id="90ssummer" x1="0%" x2="0%" y1="0%" y2="100%">
   <stop offset="0%" style="stop-color: #f618c7; stop-opacity:1"/>
   <stop offset="20%" style="stop-color: #94ffab; stop-opacity:1"/>
   <stop offset="50%" style="stop-color: #fbfd54; stop-opacity:1"/>
   <stop offset="100%" style="stop-color: #0f83ae; stop-opacity:1"/>
  </linearGradient>
 </defs>
  <path
     id="path58-3"
     style="opacity:1;fill:url(#oomox);fill-opacity:1;stroke:none;stroke-width:0.999986;stroke-miterlimit:10;stroke-dasharray:none;paint-order:stroke fill markers"
     class="ColorScheme-Text"
     d="M 11,5 C 10.89086,5 10.78567,5.018781 10.6875,5.050781 L 16.949219,11.3125 C 16.981249,11.21431 17,11.10914 17,11 V 9.1230469 L 12.876953,5 Z M 14.150391,5 17,7.8496094 V 6 C 17,5.4460006 16.553999,5 16,5 Z m -4.09961,0.6875 C 10.018751,5.7856699 10,5.8908601 10,6 V 7.890625 L 14.109375,12 H 16 c 0.10914,0 0.21433,-0.01878 0.3125,-0.05078 z M 9,9 C 8.2239816,9 7.5000174,9.2210364 6.8867188,9.6035156 L 9.2539062,11.972656 C 9.0920666,11.684297 9,11.352249 9,11 Z m 1,0.1640625 V 11 c 0,0.553999 0.445989,1 1,1 h 1.835938 z M 6.1777344,10.166016 c -0.3361694,0.334789 -0.6118404,0.729476 -0.8125,1.166015 l 5.3027346,5.302735 c 0.436539,-0.20066 0.831226,-0.476332 1.166015,-0.8125 z M 5.0625,12.302734 C 5.02269,12.529194 5,12.76214 5,13 c 0,2.209136 1.7908644,4 4,4 0.2378596,0 0.4708062,-0.0227 0.6972656,-0.0625 z m 4.964844,0.44336 2.36914,2.367187 C 12.778964,14.499983 13,13.776018 13,13 h -2 c -0.352249,0 -0.684297,-0.0921 -0.972656,-0.253906 z" />
  <path
     id="path60"
     class="ColorScheme-Text"
     style="display:inline;fill:url(#oomox);stroke-miterlimit:10;paint-order:stroke fill markers"
     d="M 10.5,3 C 9.12365,3 8,4.12365 8,5.5 V 7.08398 C 5.16666,7.56189 3,10.03309 3,13 c 0,3.30778 2.69222,6 6,6 2.96691,0 5.43811,-2.16666 5.91602,-5 H 16.5 c 1.37635,0 2.5,-1.12365 2.5,-2.5 v -6 C 19,4.12365 17.87635,3 16.5,3 Z m 0,1 h 6 C 17.33965,4 18,4.66035 18,5.5 v 6 C 18,12.33965 17.33965,13 16.5,13 H 15 14 a 5,5 0 0 1 -0.11328,1 h 0.0137 c -0.46143,2.28611 -2.47553,4 -4.90039,4 -2.76734,0 -5,-2.23266 -5,-5 0,-2.42486 1.71389,-4.43896 4,-4.90039 v 0.0137 A 5,5 0 0 1 9,8 V 7 5.5 C 9,4.66035 9.66035,4 10.5,4 Z" />
  <metadata
     id="metadata24">
    <rdf:RDF>
      <cc:Work
         rdf:about="">
        <dc:creator>
          <cc:Agent>
            <dc:title>dreifacherspass</dc:title>
          </cc:Agent>
        </dc:creator>
        <cc:license
           rdf:resource="http://creativecommons.org/licenses/by-sa/4.0/" />
      </cc:Work>
      <cc:License
         rdf:about="http://creativecommons.org/licenses/by-sa/4.0/">
        <cc:permits
           rdf:resource="http://creativecommons.org/ns#Reproduction" />
        <cc:permits
           rdf:resource="http://creativecommons.org/ns#Distribution" />
        <cc:requires
           rdf:resource="http://creativecommons.org/ns#Notice" />
        <cc:requires
           rdf:resource="http://creativecommons.org/ns#Attribution" />
        <cc:permits
           rdf:resource="http://creativecommons.org/ns#DerivativeWorks" />
        <cc:requires
           rdf:resource="http://creativecommons.org/ns#ShareAlike" />
      </cc:License>
    </rdf:RDF>
  </metadata>
</svg>
