<?xml version="1.0" encoding="UTF-8" standalone="no"?>
<!-- Created with Inkscape (http://www.inkscape.org/) -->

<svg
   width="22"
   height="22"
   viewBox="0 0 22 22"
   version="1.1"
   id="svg689"
   xmlns:xlink="http://www.w3.org/1999/xlink"
   xmlns="http://www.w3.org/2000/svg"
   xmlns:svg="http://www.w3.org/2000/svg"
   xmlns:rdf="http://www.w3.org/1999/02/22-rdf-syntax-ns#"
   xmlns:cc="http://creativecommons.org/ns#"
   xmlns:dc="http://purl.org/dc/elements/1.1/">
  <defs>
   <style id="current-color-scheme" type="text/css">
   .ColorScheme-Text { color: #0abdc6; } .ColorScheme-Highlight { color:#5294e2; }
  </style>
  <linearGradient id="arrongin" x1="0%" x2="0%" y1="0%" y2="100%">
   <stop offset="0%" style="stop-color:#dd9b44; stop-opacity:1"/>
   <stop offset="100%" style="stop-color:#ad6c16; stop-opacity:1"/>
  </linearGradient>
  <linearGradient id="aurora" x1="0%" x2="0%" y1="0%" y2="100%">
   <stop offset="0%" style="stop-color:#09D4DF; stop-opacity:1"/>
   <stop offset="100%" style="stop-color:#9269F4; stop-opacity:1"/>
  </linearGradient>
  <linearGradient id="cyberneon" x1="0%" x2="0%" y1="0%" y2="100%">
    <stop offset="0" style="stop-color:#0abdc6; stop-opacity:1"/>
    <stop offset="1" style="stop-color:#ea00d9; stop-opacity:1"/>
  </linearGradient>
  <linearGradient id="fitdance" x1="0%" x2="0%" y1="0%" y2="100%">
   <stop offset="0%" style="stop-color:#1AD6AB; stop-opacity:1"/>
   <stop offset="100%" style="stop-color:#329DB6; stop-opacity:1"/>
  </linearGradient>
  <linearGradient id="oomox" x1="0%" x2="0%" y1="0%" y2="100%">
   <stop offset="0%" style="stop-color:#0abdc6; stop-opacity:1"/>
   <stop offset="100%" style="stop-color:#b800ff; stop-opacity:1"/>
  </linearGradient>
  <linearGradient id="rainblue" x1="0%" x2="0%" y1="0%" y2="100%">
   <stop offset="0%" style="stop-color:#00F260; stop-opacity:1"/>
   <stop offset="100%" style="stop-color:#0575E6; stop-opacity:1"/>
  </linearGradient>
  <linearGradient id="sunrise" x1="0%" x2="0%" y1="0%" y2="100%">
   <stop offset="0%" style="stop-color: #FF8501; stop-opacity:1"/>
   <stop offset="100%" style="stop-color: #FFCB01; stop-opacity:1"/>
  </linearGradient>
  <linearGradient id="telinkrin" x1="0%" x2="0%" y1="0%" y2="100%">
   <stop offset="0%" style="stop-color: #b2ced6; stop-opacity:1"/>
   <stop offset="100%" style="stop-color: #6da5b7; stop-opacity:1"/>
  </linearGradient>
  <linearGradient id="60spsycho" x1="0%" x2="0%" y1="0%" y2="100%">
   <stop offset="0%" style="stop-color: #df5940; stop-opacity:1"/>
   <stop offset="25%" style="stop-color: #d8d15f; stop-opacity:1"/>
   <stop offset="50%" style="stop-color: #e9882a; stop-opacity:1"/>
   <stop offset="100%" style="stop-color: #279362; stop-opacity:1"/>
  </linearGradient>
  <linearGradient id="90ssummer" x1="0%" x2="0%" y1="0%" y2="100%">
   <stop offset="0%" style="stop-color: #f618c7; stop-opacity:1"/>
   <stop offset="20%" style="stop-color: #94ffab; stop-opacity:1"/>
   <stop offset="50%" style="stop-color: #fbfd54; stop-opacity:1"/>
   <stop offset="100%" style="stop-color: #0f83ae; stop-opacity:1"/>
  </linearGradient>
 </defs>
  <path
     id="path63"
     class="ColorScheme-Text"
     style="opacity:0.402542;fill:url(#oomox);fill-opacity:1;stroke:none;stroke-width:1.37498;stroke-miterlimit:10;stroke-dasharray:none;paint-order:stroke fill markers"
     d="m 11,2.75 c -0.76175,0 -1.375,0.61325 -1.375,1.375 V 8.4245563 A 5.5,5.5 0 0 1 13.575444,12.375 H 17.875 c 0.76175,0 1.375,-0.61325 1.375,-1.375 V 4.125 C 19.25,3.36325 18.63675,2.75 17.875,2.75 Z" />
  <path
     id="path65-3"
     class="ColorScheme-Text"
     style="display:inline;opacity:0.800847;fill:url(#oomox);fill-opacity:1;stroke:none;stroke-width:1.375;stroke-miterlimit:10;stroke-dasharray:none;paint-order:stroke fill markers"
     d="m 8.25,8.25 c -3.0375645,0 -5.5,2.462436 -5.5,5.5 0,3.037565 2.4624355,5.5 5.5,5.5 3.037564,0 5.5,-2.462435 5.5,-5.5 H 11 C 9.4883953,13.75 8.25,12.511605 8.25,11 Z M 9.625,8.4245605 V 11 c 0,0.761749 0.613251,1.375 1.375,1.375 h 2.575439 A 5.5,5.5 0 0 0 9.625,8.4245605 Z" />
  <path
     id="path66"
     class="ColorScheme-Text"
     style="display:inline;fill:url(#oomox);stroke:none;stroke-width:1.375;stroke-miterlimit:10;-inkscape-stroke:none;paint-order:stroke fill markers"
     d="M 10.3125,0 C 8.4200187,0 6.875,1.5450188 6.875,3.4375 V 5.6154725 C 2.9791575,6.2725987 0,9.6704988 0,13.75 0,18.298197 3.7018025,22 8.25,22 c 4.079501,0 7.477401,-2.979158 8.134527,-6.875 H 18.5625 C 20.454981,15.125 22,13.579981 22,11.6875 v -8.25 C 22,1.5450188 20.454981,0 18.5625,0 Z m 0,1.375 h 8.25 c 1.154519,0 2.0625,0.9079813 2.0625,2.0625 v 8.25 c 0,1.154519 -0.907981,2.0625 -2.0625,2.0625 H 16.5 15.125 a 6.875,6.875 0 0 1 -0.15576,1.375 h 0.01884 c -0.634467,3.143401 -3.403854,5.5 -6.7380367,5.5 -3.8050925,0 -6.875,-3.069908 -6.875,-6.875 0,-3.334182 2.3565987,-6.10357 5.5,-6.7380362 v 0.018838 A 6.875,6.875 0 0 1 8.25,6.875 V 5.5 3.4375 C 8.25,2.2829813 9.1579813,1.375 10.3125,1.375 Z" />
  <metadata
     id="metadata15">
    <rdf:RDF>
      <cc:Work
         rdf:about="">
        <dc:creator>
          <cc:Agent>
            <dc:title>dreifacherspass</dc:title>
          </cc:Agent>
        </dc:creator>
        <cc:license
           rdf:resource="http://creativecommons.org/licenses/by-sa/4.0/" />
      </cc:Work>
      <cc:License
         rdf:about="http://creativecommons.org/licenses/by-sa/4.0/">
        <cc:permits
           rdf:resource="http://creativecommons.org/ns#Reproduction" />
        <cc:permits
           rdf:resource="http://creativecommons.org/ns#Distribution" />
        <cc:requires
           rdf:resource="http://creativecommons.org/ns#Notice" />
        <cc:requires
           rdf:resource="http://creativecommons.org/ns#Attribution" />
        <cc:permits
           rdf:resource="http://creativecommons.org/ns#DerivativeWorks" />
        <cc:requires
           rdf:resource="http://creativecommons.org/ns#ShareAlike" />
      </cc:License>
    </rdf:RDF>
  </metadata>
</svg>
