<?xml version="1.0" encoding="UTF-8" standalone="no"?>
<svg
   viewBox="0 0 48 48"
   version="1.1"
   id="svg9"
   width="48"
   height="48"
   sodipodi:docname="input-keyboard-virtual.svg"
   inkscape:version="1.2.2 (b0a8486541, 2022-12-01)"
   xmlns:inkscape="http://www.inkscape.org/namespaces/inkscape"
   xmlns:sodipodi="http://sodipodi.sourceforge.net/DTD/sodipodi-0.dtd"
   xmlns="http://www.w3.org/2000/svg"
   xmlns:svg="http://www.w3.org/2000/svg"
   xmlns:rdf="http://www.w3.org/1999/02/22-rdf-syntax-ns#"
   xmlns:cc="http://creativecommons.org/ns#"
   xmlns:dc="http://purl.org/dc/elements/1.1/">
  <sodipodi:namedview
     id="namedview43"
     pagecolor="#ffffff"
     bordercolor="#000000"
     borderopacity="0.25"
     inkscape:showpageshadow="2"
     inkscape:pageopacity="0.0"
     inkscape:pagecheckerboard="0"
     inkscape:deskcolor="#d1d1d1"
     showgrid="false"
     inkscape:zoom="4.9166667"
     inkscape:cx="11.389831"
     inkscape:cy="24"
     inkscape:window-width="1466"
     inkscape:window-height="472"
     inkscape:window-x="0"
     inkscape:window-y="0"
     inkscape:window-maximized="0"
     inkscape:current-layer="svg9" />
  <defs
     id="defs13">
    <style
       id="current-color-scheme"
       type="text/css">
      .ColorScheme-Text { color: #0abdc6; } .ColorScheme-Highlight { color:#5294e2; }
     </style>
    <linearGradient
       id="arrongin"
       x1="0%"
       x2="0%"
       y1="0%"
       y2="100%">
      <stop
         offset="0%"
         style="stop-color:#dd9b44; stop-opacity:1"
         id="stop9192" />
      <stop
         offset="100%"
         style="stop-color:#ad6c16; stop-opacity:1"
         id="stop9194" />
    </linearGradient>
    <linearGradient
       id="aurora"
       x1="0%"
       x2="0%"
       y1="0%"
       y2="100%">
      <stop
         offset="0%"
         style="stop-color:#09D4DF; stop-opacity:1"
         id="stop9197" />
      <stop
         offset="100%"
         style="stop-color:#9269F4; stop-opacity:1"
         id="stop9199" />
    </linearGradient>
    <linearGradient
       id="cyberneon"
       x1="0%"
       x2="0%"
       y1="0%"
       y2="100%">
      <stop
         offset="0"
         style="stop-color:#0abdc6; stop-opacity:1"
         id="stop9202" />
      <stop
         offset="1"
         style="stop-color:#ea00d9; stop-opacity:1"
         id="stop9204" />
    </linearGradient>
    <linearGradient
       id="fitdance"
       x1="0%"
       x2="0%"
       y1="0%"
       y2="100%">
      <stop
         offset="0%"
         style="stop-color:#1AD6AB; stop-opacity:1"
         id="stop9207" />
      <stop
         offset="100%"
         style="stop-color:#329DB6; stop-opacity:1"
         id="stop9209" />
    </linearGradient>
    <linearGradient
       id="oomox"
       x1="0%"
       x2="0%"
       y1="0%"
       y2="100%">
      <stop
         offset="0%"
         style="stop-color:#0abdc6; stop-opacity:1"
         id="stop9212" />
      <stop
         offset="100%"
         style="stop-color:#b800ff; stop-opacity:1"
         id="stop9214" />
    </linearGradient>
    <linearGradient
       id="rainblue"
       x1="0%"
       x2="0%"
       y1="0%"
       y2="100%">
      <stop
         offset="0%"
         style="stop-color:#00F260; stop-opacity:1"
         id="stop9217" />
      <stop
         offset="100%"
         style="stop-color:#0575E6; stop-opacity:1"
         id="stop9219" />
    </linearGradient>
    <linearGradient
       id="sunrise"
       x1="0%"
       x2="0%"
       y1="0%"
       y2="100%">
      <stop
         offset="0%"
         style="stop-color: #FF8501; stop-opacity:1"
         id="stop9222" />
      <stop
         offset="100%"
         style="stop-color: #FFCB01; stop-opacity:1"
         id="stop9224" />
    </linearGradient>
    <linearGradient
       id="telinkrin"
       x1="0%"
       x2="0%"
       y1="0%"
       y2="100%">
      <stop
         offset="0%"
         style="stop-color: #b2ced6; stop-opacity:1"
         id="stop9227" />
      <stop
         offset="100%"
         style="stop-color: #6da5b7; stop-opacity:1"
         id="stop9229" />
    </linearGradient>
    <linearGradient
       id="60spsycho"
       x1="0%"
       x2="0%"
       y1="0%"
       y2="100%">
      <stop
         offset="0%"
         style="stop-color: #df5940; stop-opacity:1"
         id="stop9232" />
      <stop
         offset="25%"
         style="stop-color: #d8d15f; stop-opacity:1"
         id="stop9234" />
      <stop
         offset="50%"
         style="stop-color: #e9882a; stop-opacity:1"
         id="stop9236" />
      <stop
         offset="100%"
         style="stop-color: #279362; stop-opacity:1"
         id="stop9238" />
    </linearGradient>
    <linearGradient
       id="90ssummer"
       x1="0%"
       x2="0%"
       y1="0%"
       y2="100%">
      <stop
         offset="0%"
         style="stop-color: #f618c7; stop-opacity:1"
         id="stop9241" />
      <stop
         offset="20%"
         style="stop-color: #94ffab; stop-opacity:1"
         id="stop9243" />
      <stop
         offset="50%"
         style="stop-color: #fbfd54; stop-opacity:1"
         id="stop9245" />
      <stop
         offset="100%"
         style="stop-color: #0f83ae; stop-opacity:1"
         id="stop9247" />
    </linearGradient>
  </defs>
  <g
     class="ColorScheme-Text"
     fill="url(#oomox)"
     id="g7"
     transform="matrix(2.6110769,0,0,2.6110769,-4.7221538,-8.6384612)"
     style="fill-opacity:1.0;fill:url(#oomox)">
    <path
       id="path3"
       style="fill-opacity:1.0;fill:url(#oomox)"
       class="ColorScheme-Text"
       d="M 2 5.9997486 L 2 14.999867 L 5.0002886 19.000251 L 5.0002886 14.999867 L 20.000236 14.999867 L 20.000236 5.9997486 L 2 5.9997486 z M 3.0000962 6.9998448 L 19.00014 6.9998448 L 19.00014 13.99977 L 3.0000962 13.99977 L 3.0000962 6.9998448 z M 4.0001924 7.999941 L 4.0001924 9.0000372 L 5.0002886 9.0000372 L 5.0002886 7.999941 L 4.0001924 7.999941 z M 5.9996368 7.999941 L 5.9996368 9.0000372 L 6.9997331 9.0000372 L 6.9997331 7.999941 L 5.9996368 7.999941 z M 7.9998293 7.999941 L 7.9998293 9.0000372 L 8.9999255 9.0000372 L 8.9999255 7.999941 L 7.9998293 7.999941 z M 10.000022 7.999941 L 10.000022 9.0000372 L 11.000118 9.0000372 L 11.000118 7.999941 L 10.000022 7.999941 z M 12.000214 7.999941 L 12.000214 9.0000372 L 13.00031 9.0000372 L 13.00031 7.999941 L 12.000214 7.999941 z M 13.999659 7.999941 L 13.999659 9.0000372 L 14.999755 9.0000372 L 14.999755 7.999941 L 13.999659 7.999941 z M 15.999851 7.999941 L 15.999851 9.0000372 L 18.000043 9.0000372 L 18.000043 7.999941 L 15.999851 7.999941 z M 4.0001924 10.000133 L 4.0001924 11.00023 L 5.9996368 11.00023 L 5.9996368 10.000133 L 4.0001924 10.000133 z M 6.9997331 10.000133 L 6.9997331 11.00023 L 7.9998293 11.00023 L 7.9998293 10.000133 L 6.9997331 10.000133 z M 8.9999255 10.000133 L 8.9999255 11.00023 L 10.000022 11.00023 L 10.000022 10.000133 L 8.9999255 10.000133 z M 11.000118 10.000133 L 11.000118 11.00023 L 12.000214 11.00023 L 12.000214 10.000133 L 11.000118 10.000133 z M 13.00031 10.000133 L 13.00031 11.00023 L 13.999659 11.00023 L 13.999659 10.000133 L 13.00031 10.000133 z M 14.999755 10.000133 L 14.999755 11.00023 L 18.000043 11.00023 L 18.000043 10.000133 L 14.999755 10.000133 z M 4.0001924 12.000326 L 4.0001924 12.999674 L 5.9996368 12.999674 L 5.9996368 12.000326 L 4.0001924 12.000326 z M 6.9997331 12.000326 L 6.9997331 12.999674 L 14.999755 12.999674 L 14.999755 12.000326 L 6.9997331 12.000326 z M 15.999851 12.000326 L 15.999851 12.999674 L 18.000043 12.999674 L 18.000043 12.000326 L 15.999851 12.000326 z " />
  </g>
  <metadata
     id="metadata242">
    <rdf:RDF>
      <cc:Work
         rdf:about="">
        <dc:creator>
          <cc:Agent>
            <dc:title>dreifacherspass</dc:title>
          </cc:Agent>
        </dc:creator>
        <cc:license
           rdf:resource="http://creativecommons.org/licenses/by-sa/4.0/" />
      </cc:Work>
      <cc:License
         rdf:about="http://creativecommons.org/licenses/by-sa/4.0/">
        <cc:permits
           rdf:resource="http://creativecommons.org/ns#Reproduction" />
        <cc:permits
           rdf:resource="http://creativecommons.org/ns#Distribution" />
        <cc:requires
           rdf:resource="http://creativecommons.org/ns#Notice" />
        <cc:requires
           rdf:resource="http://creativecommons.org/ns#Attribution" />
        <cc:permits
           rdf:resource="http://creativecommons.org/ns#DerivativeWorks" />
        <cc:requires
           rdf:resource="http://creativecommons.org/ns#ShareAlike" />
      </cc:License>
    </rdf:RDF>
  </metadata>
</svg>
