<?xml version="1.0" encoding="UTF-8" standalone="no"?>

<svg
   version="1.1"
   x="0px"
   y="0px"
   viewBox="0 0 16 16"
   enable-background="new 0 0 1000 1000"
   xml:space="preserve"
   id="svg44"
   width="16"
   height="16"
   xmlns="http://www.w3.org/2000/svg"
   xmlns:svg="http://www.w3.org/2000/svg"
   xmlns:rdf="http://www.w3.org/1999/02/22-rdf-syntax-ns#"
   xmlns:cc="http://creativecommons.org/ns#"
   xmlns:dc="http://purl.org/dc/elements/1.1/">
   <defs>
      <style id="current-color-scheme" type="text/css">
         .ColorScheme-Text { color: #0abdc6; } .ColorScheme-Highlight { color:#5294e2; }
      </style>
      <linearGradient id="arrongin" x1="0%" x2="0%" y1="0%" y2="100%">
         <stop offset="0%" style="stop-color:#dd9b44; stop-opacity:1"/>
         <stop offset="100%" style="stop-color:#ad6c16; stop-opacity:1"/>
      </linearGradient>
      <linearGradient id="aurora" x1="0%" x2="0%" y1="0%" y2="100%">
         <stop offset="0%" style="stop-color:#09D4DF; stop-opacity:1"/>
         <stop offset="100%" style="stop-color:#9269F4; stop-opacity:1"/>
      </linearGradient>
      <linearGradient id="cyberneon" x1="0%" x2="0%" y1="0%" y2="100%">
         <stop offset="0" style="stop-color:#0abdc6; stop-opacity:1"/>
         <stop offset="1" style="stop-color:#ea00d9; stop-opacity:1"/>
      </linearGradient>
      <linearGradient id="fitdance" x1="0%" x2="0%" y1="0%" y2="100%">
         <stop offset="0%" style="stop-color:#1AD6AB; stop-opacity:1"/>
         <stop offset="100%" style="stop-color:#329DB6; stop-opacity:1"/>
      </linearGradient>
      <linearGradient id="oomox" x1="0%" x2="0%" y1="0%" y2="100%">
         <stop offset="0%" style="stop-color:#0abdc6; stop-opacity:1"/>
         <stop offset="100%" style="stop-color:#b800ff; stop-opacity:1"/>
      </linearGradient>
      <linearGradient id="rainblue" x1="0%" x2="0%" y1="0%" y2="100%">
         <stop offset="0%" style="stop-color:#00F260; stop-opacity:1"/>
         <stop offset="100%" style="stop-color:#0575E6; stop-opacity:1"/>
      </linearGradient>
      <linearGradient id="sunrise" x1="0%" x2="0%" y1="0%" y2="100%">
         <stop offset="0%" style="stop-color: #FF8501; stop-opacity:1"/>
         <stop offset="100%" style="stop-color: #FFCB01; stop-opacity:1"/>
      </linearGradient>
      <linearGradient id="telinkrin" x1="0%" x2="0%" y1="0%" y2="100%">
         <stop offset="0%" style="stop-color: #b2ced6; stop-opacity:1"/>
         <stop offset="100%" style="stop-color: #6da5b7; stop-opacity:1"/>
      </linearGradient>
      <linearGradient id="60spsycho" x1="0%" x2="0%" y1="0%" y2="100%">
         <stop offset="0%" style="stop-color: #df5940; stop-opacity:1"/>
         <stop offset="25%" style="stop-color: #d8d15f; stop-opacity:1"/>
         <stop offset="50%" style="stop-color: #e9882a; stop-opacity:1"/>
         <stop offset="100%" style="stop-color: #279362; stop-opacity:1"/>
      </linearGradient>
      <linearGradient id="90ssummer" x1="0%" x2="0%" y1="0%" y2="100%">
         <stop offset="0%" style="stop-color: #f618c7; stop-opacity:1"/>
         <stop offset="20%" style="stop-color: #94ffab; stop-opacity:1"/>
         <stop offset="50%" style="stop-color: #fbfd54; stop-opacity:1"/>
         <stop offset="100%" style="stop-color: #0f83ae; stop-opacity:1"/>
      </linearGradient>
   </defs>
   <metadata
      id="metadata1">
      <rdf:RDF>
         <cc:Work
            rdf:about="">
            <dc:creator>
               <cc:Agent>
                  <dc:title>dreifacherspass</dc:title>
               </cc:Agent>
            </dc:creator>
            <cc:license
               rdf:resource="http://creativecommons.org/licenses/by-sa/4.0/" />
            </cc:Work>
            <cc:License
               rdf:about="http://creativecommons.org/licenses/by-sa/4.0/">
               <cc:permits
                  rdf:resource="http://creativecommons.org/ns#Reproduction" />
               <cc:permits
                  rdf:resource="http://creativecommons.org/ns#Distribution" />
               <cc:requires
                  rdf:resource="http://creativecommons.org/ns#Notice" />
               <cc:requires
                  rdf:resource="http://creativecommons.org/ns#Attribution" />
               <cc:permits
                  rdf:resource="http://creativecommons.org/ns#DerivativeWorks" />
               <cc:requires
                  rdf:resource="http://creativecommons.org/ns#ShareAlike" />
               </cc:License>
            </rdf:RDF>
         </metadata>
<path
   id="path4"
   class="ColorScheme-Text"
   style="fill:url(#oomox);fill-opacity:1;stroke-width:0.0163273"
   d="m 4.4181048,2.449228 c -1.5755887,0 -3.2186522,1.5624759 -3.99746664,3.7993227 -0.43267466,1.240878 -0.53517498,3.8801273 -0.29189751,4.9577323 0.25633931,1.136383 0.86718182,1.92662 1.71946925,2.222144 0.233481,0.08164 0.479662,0.122345 0.732736,0.122345 1.4025192,0 2.8822351,-2.614219 3.7361555,-4.5049257 H 9.683564 c 0.85392,1.8907067 2.334603,4.5049257 3.73549,4.5049257 0.253074,0 0.49992,-0.04071 0.7334,-0.122345 0.852288,-0.297157 1.462466,-1.085761 1.718805,-2.222144 C 16.114537,10.128678 16.012036,7.4894287 15.579362,6.2485507 14.800547,4.0117039 13.158149,2.449228 11.58256,2.449228 c -0.253074,0 -0.49992,0.040708 -0.733401,0.1223445 -0.437573,0.1518442 -0.821288,0.4445397 -1.1217103,0.8510904 H 6.2725519 C 5.9721289,3.0161122 5.5884139,2.7234167 5.1508409,2.5715725 4.9173602,2.4899356 4.6711791,2.449228 4.4181048,2.449228 Z M 3.5364283,4.5423794 h 0.2008043 c 0.2220519,0 0.4016083,0.1795567 0.4016083,0.4016083 v 0.460786 H 4.598962 c 0.2220516,0 0.4016083,0.1795566 0.4016083,0.4016083 v 0.2008043 h -0.00133 c 0,0.2220521 -0.1795563,0.4016087 -0.4016083,0.4016087 H 4.1368483 v 0.4601208 c 0,0.2220519 -0.1795563,0.4016086 -0.4016083,0.4016086 H 3.5344326 c -0.2220519,0 -0.4016085,-0.1795567 -0.4016085,-0.4016086 V 6.408795 H 2.6727032 c -0.2220518,0 -0.4016084,-0.1795566 -0.4016084,-0.4016087 V 5.806382 c 0,-0.2220517 0.1795566,-0.4016083 0.4016084,-0.4016083 H 3.134819 v -0.460786 c 0,-0.2220516 0.1795563,-0.4016083 0.4016082,-0.4016083 z m 8.8101187,0.014629 c 0.762487,0 1.381028,0.6208384 1.381028,1.3816932 0,0.7608541 -0.618541,1.3810276 -1.381028,1.3810276 -0.762488,0 -1.381693,-0.6201735 -1.381693,-1.3810276 0,-0.7624875 0.620838,-1.3816932 1.381693,-1.3816932 z m 0,0.7885891 c -0.326547,0 -0.592439,0.2665568 -0.592439,0.5931041 0,0.3265469 0.265892,0.5924389 0.592439,0.5924389 0.326547,0 0.592438,-0.265892 0.592438,-0.5924389 0,-0.3265473 -0.265891,-0.5931041 -0.592438,-0.5931041 z m -5.7701291,0.285913 h 0.7460345 c 0.1910297,0 0.3464205,0.1553908 0.3464205,0.3464209 0.00163,0.19103 -0.153758,0.3457556 -0.3464205,0.3457556 H 6.5764179 c -0.1910297,0 -0.3464205,-0.1547256 -0.3464205,-0.3457556 0,-0.1910301 0.1553908,-0.3464209 0.3464205,-0.3464209 z m 2.0998006,0 h 0.7460341 c 0.1910301,0 0.3464209,0.1553908 0.3464209,0.3464209 0.00163,0.19103 -0.1537581,0.3457556 -0.3464209,0.3457556 H 8.6762185 c -0.1910297,0 -0.3464205,-0.1547256 -0.3464205,-0.3457556 0,-0.1910301 0.1553908,-0.3464209 0.3464205,-0.3464209 z" />
</svg>
