<?xml version="1.0" encoding="UTF-8" standalone="no"?>
<svg
   width="16"
   height="16"
   version="1.1"
   id="svg25"
   xmlns:xlink="http://www.w3.org/1999/xlink"
   xmlns="http://www.w3.org/2000/svg"
   xmlns:svg="http://www.w3.org/2000/svg"
   xmlns:rdf="http://www.w3.org/1999/02/22-rdf-syntax-ns#"
   xmlns:cc="http://creativecommons.org/ns#"
   xmlns:dc="http://purl.org/dc/elements/1.1/">
   <defs>
      <style id="current-color-scheme" type="text/css">
         .ColorScheme-Text { color: #0abdc6; } .ColorScheme-Highlight { color:#5294e2; }
      </style>
      <linearGradient id="arrongin" x1="0%" x2="0%" y1="0%" y2="100%">
         <stop offset="0%" style="stop-color:#dd9b44; stop-opacity:1"/>
         <stop offset="100%" style="stop-color:#ad6c16; stop-opacity:1"/>
      </linearGradient>
      <linearGradient id="aurora" x1="0%" x2="0%" y1="0%" y2="100%">
         <stop offset="0%" style="stop-color:#09D4DF; stop-opacity:1"/>
         <stop offset="100%" style="stop-color:#9269F4; stop-opacity:1"/>
      </linearGradient>
      <linearGradient id="cyberneon" x1="0%" x2="0%" y1="0%" y2="100%">
         <stop offset="0" style="stop-color:#0abdc6; stop-opacity:1"/>
         <stop offset="1" style="stop-color:#ea00d9; stop-opacity:1"/>
      </linearGradient>
      <linearGradient id="fitdance" x1="0%" x2="0%" y1="0%" y2="100%">
         <stop offset="0%" style="stop-color:#1AD6AB; stop-opacity:1"/>
         <stop offset="100%" style="stop-color:#329DB6; stop-opacity:1"/>
      </linearGradient>
      <linearGradient id="oomox" x1="0%" x2="0%" y1="0%" y2="100%">
         <stop offset="0%" style="stop-color:#0abdc6; stop-opacity:1"/>
         <stop offset="100%" style="stop-color:#b800ff; stop-opacity:1"/>
      </linearGradient>
      <linearGradient id="rainblue" x1="0%" x2="0%" y1="0%" y2="100%">
         <stop offset="0%" style="stop-color:#00F260; stop-opacity:1"/>
         <stop offset="100%" style="stop-color:#0575E6; stop-opacity:1"/>
      </linearGradient>
      <linearGradient id="sunrise" x1="0%" x2="0%" y1="0%" y2="100%">
         <stop offset="0%" style="stop-color: #FF8501; stop-opacity:1"/>
         <stop offset="100%" style="stop-color: #FFCB01; stop-opacity:1"/>
      </linearGradient>
      <linearGradient id="telinkrin" x1="0%" x2="0%" y1="0%" y2="100%">
         <stop offset="0%" style="stop-color: #b2ced6; stop-opacity:1"/>
         <stop offset="100%" style="stop-color: #6da5b7; stop-opacity:1"/>
      </linearGradient>
      <linearGradient id="60spsycho" x1="0%" x2="0%" y1="0%" y2="100%">
         <stop offset="0%" style="stop-color: #df5940; stop-opacity:1"/>
         <stop offset="25%" style="stop-color: #d8d15f; stop-opacity:1"/>
         <stop offset="50%" style="stop-color: #e9882a; stop-opacity:1"/>
         <stop offset="100%" style="stop-color: #279362; stop-opacity:1"/>
      </linearGradient>
      <linearGradient id="90ssummer" x1="0%" x2="0%" y1="0%" y2="100%">
         <stop offset="0%" style="stop-color: #f618c7; stop-opacity:1"/>
         <stop offset="20%" style="stop-color: #94ffab; stop-opacity:1"/>
         <stop offset="50%" style="stop-color: #fbfd54; stop-opacity:1"/>
         <stop offset="100%" style="stop-color: #0f83ae; stop-opacity:1"/>
      </linearGradient>
   </defs>
  <path
     class="ColorScheme-Text"
     d="M 4.260398,2.1335 C 2.918318,2.1489663 1.9362487,2.1008609 1.1333153,2.5439097 0.731854,2.7654074 0.41520333,3.1405647 0.239566,3.6084554 0.063918,4.0763569 -1.8e-5,4.6319784 -1.8e-5,5.3334092 v 5.3331818 c 0,0.701431 0.06389333,1.257063 0.239584,1.724954 0.175648,0.467891 0.492288,0.843059 0.8937493,1.064546 0.8029334,0.442995 1.7850134,0.394868 3.1270827,0.410409 h 0.00427 7.470826 0.0043 c 1.342069,-0.01547 2.324149,0.03264 3.127083,-0.410409 0.401461,-0.221498 0.718101,-0.596655 0.893749,-1.064546 0.175456,-0.467902 0.239392,-1.023523 0.239392,-1.724954 V 5.3334092 c 0,-0.7014308 -0.06389,-1.2570523 -0.239584,-1.7249538 C 15.584761,3.1405647 15.26811,2.7654074 14.866649,2.5439097 14.063715,2.1008929 13.081646,2.1489876 11.739566,2.1335 h -0.0043 -7.4708263 z m 0.0064,1.0666364 h 7.466667 c 1.342421,0.01568 2.226314,0.063785 2.616661,0.2791601 0.195637,0.1079435 0.308437,0.2269162 0.412501,0.5041563 0.103926,0.2772295 0.170688,0.7180916 0.170688,1.3499564 v 5.3331818 c 0,0.631865 -0.06677,1.072737 -0.170837,1.349957 -0.104107,0.277229 -0.216864,0.396223 -0.412501,0.504156 -0.390347,0.215364 -1.27424,0.26347 -2.616662,0.27916 H 4.2728993 4.2666487 C 2.9242167,12.784185 2.040334,12.736079 1.6499873,12.520704 1.45435,12.412771 1.34155,12.293777 1.237486,12.016548 1.1334113,11.739328 1.0666487,11.298456 1.0666487,10.666591 V 5.3334092 c 0,-0.6318648 0.066773,-1.0727376 0.1708373,-1.3499564 C 1.3415927,3.7062234 1.45435,3.5872294 1.6499873,3.4792965 2.040334,3.2639319 2.9242167,3.2158266 4.2666487,3.2001364 Z"
     id="path24"
     style="fill:url(#oomox);stroke-width:1.06665" />
  <path
     class="ColorScheme-Text"
     fill-rule="evenodd"
     d="m 3.199982,5.3334092 v 1.066647 h 1.0666773 v -1.066647 z m 2.133344,0 v 1.066647 h 1.0666773 v -1.066647 z m 2.1333547,0 v 1.066647 h 1.0666666 v -1.066647 z m 2.133344,0 v 1.066647 h 1.0666773 v -1.066647 z m 2.1333443,0 v 1.066647 h 1.066677 v -1.066647 z m -7.4688003,2.1332834 0.00427,1.0666471 H 5.333326 V 7.4666926 Z m 2.1354346,0 V 8.5333397 H 7.4666807 V 7.4666926 Z m 2.133344,0 V 8.5333397 H 9.6000247 V 7.4666926 Z m 2.1333547,0 v 1.0666471 h 1.066667 V 7.4666926 Z M 3.199982,9.5999871 V 10.666623 H 4.2666593 V 9.5999871 Z m 2.133344,0 v 1.0666359 h 5.333376 V 9.5999871 Z m 6.400043,0 0.01248,1.0666359 h 1.060426 l -0.01248,-1.0666359 z"
     id="path25"
     style="fill:url(#oomox);stroke-width:1.06665" />
  <metadata
     id="metadata25">
    <rdf:RDF>
      <cc:License
         rdf:about="http://creativecommons.org/licenses/by-sa/4.0/">
        <cc:permits
           rdf:resource="http://creativecommons.org/ns#Reproduction" />
        <cc:permits
           rdf:resource="http://creativecommons.org/ns#Distribution" />
        <cc:requires
           rdf:resource="http://creativecommons.org/ns#Notice" />
        <cc:requires
           rdf:resource="http://creativecommons.org/ns#Attribution" />
        <cc:permits
           rdf:resource="http://creativecommons.org/ns#DerivativeWorks" />
        <cc:requires
           rdf:resource="http://creativecommons.org/ns#ShareAlike" />
      </cc:License>
      <cc:Work
         rdf:about="">
        <cc:license
           rdf:resource="http://creativecommons.org/licenses/by-sa/4.0/" />
        <dc:creator>
          <cc:Agent>
            <dc:title>dreifacherspass</dc:title>
          </cc:Agent>
        </dc:creator>
      </cc:Work>
    </rdf:RDF>
  </metadata>
</svg>
