<?xml version="1.0" encoding="UTF-8" standalone="no"?>

<svg
   height="16"
   width="16"
   version="1.1"
   id="_x32_"
   viewBox="0 0 10.24 10.24"
   xml:space="preserve"
   xmlns="http://www.w3.org/2000/svg"
   xmlns:svg="http://www.w3.org/2000/svg"
   xmlns:rdf="http://www.w3.org/1999/02/22-rdf-syntax-ns#"
   xmlns:cc="http://creativecommons.org/ns#"
   xmlns:dc="http://purl.org/dc/elements/1.1/">
      <defs>
            <style id="current-color-scheme" type="text/css">
                  .ColorScheme-Text { color: #0abdc6; } .ColorScheme-Highlight { color:#5294e2; }
            </style>
            <linearGradient id="arrongin" x1="0%" x2="0%" y1="0%" y2="100%">
                  <stop offset="0%" style="stop-color:#dd9b44; stop-opacity:1"/>
                  <stop offset="100%" style="stop-color:#ad6c16; stop-opacity:1"/>
            </linearGradient>
            <linearGradient id="aurora" x1="0%" x2="0%" y1="0%" y2="100%">
                  <stop offset="0%" style="stop-color:#09D4DF; stop-opacity:1"/>
                  <stop offset="100%" style="stop-color:#9269F4; stop-opacity:1"/>
            </linearGradient>
            <linearGradient id="cyberneon" x1="0%" x2="0%" y1="0%" y2="100%">
                  <stop offset="0" style="stop-color:#0abdc6; stop-opacity:1"/>
                  <stop offset="1" style="stop-color:#ea00d9; stop-opacity:1"/>
            </linearGradient>
            <linearGradient id="fitdance" x1="0%" x2="0%" y1="0%" y2="100%">
                  <stop offset="0%" style="stop-color:#1AD6AB; stop-opacity:1"/>
                  <stop offset="100%" style="stop-color:#329DB6; stop-opacity:1"/>
            </linearGradient>
            <linearGradient id="oomox" x1="0%" x2="0%" y1="0%" y2="100%">
                  <stop offset="0%" style="stop-color:#0abdc6; stop-opacity:1"/>
                  <stop offset="100%" style="stop-color:#b800ff; stop-opacity:1"/>
            </linearGradient>
            <linearGradient id="rainblue" x1="0%" x2="0%" y1="0%" y2="100%">
                  <stop offset="0%" style="stop-color:#00F260; stop-opacity:1"/>
                  <stop offset="100%" style="stop-color:#0575E6; stop-opacity:1"/>
            </linearGradient>
            <linearGradient id="sunrise" x1="0%" x2="0%" y1="0%" y2="100%">
                  <stop offset="0%" style="stop-color: #FF8501; stop-opacity:1"/>
                  <stop offset="100%" style="stop-color: #FFCB01; stop-opacity:1"/>
            </linearGradient>
            <linearGradient id="telinkrin" x1="0%" x2="0%" y1="0%" y2="100%">
                  <stop offset="0%" style="stop-color: #b2ced6; stop-opacity:1"/>
                  <stop offset="100%" style="stop-color: #6da5b7; stop-opacity:1"/>
            </linearGradient>
            <linearGradient id="60spsycho" x1="0%" x2="0%" y1="0%" y2="100%">
                  <stop offset="0%" style="stop-color: #df5940; stop-opacity:1"/>
                  <stop offset="25%" style="stop-color: #d8d15f; stop-opacity:1"/>
                  <stop offset="50%" style="stop-color: #e9882a; stop-opacity:1"/>
                  <stop offset="100%" style="stop-color: #279362; stop-opacity:1"/>
            </linearGradient>
            <linearGradient id="90ssummer" x1="0%" x2="0%" y1="0%" y2="100%">
                  <stop offset="0%" style="stop-color: #f618c7; stop-opacity:1"/>
                  <stop offset="20%" style="stop-color: #94ffab; stop-opacity:1"/>
                  <stop offset="50%" style="stop-color: #fbfd54; stop-opacity:1"/>
                  <stop offset="100%" style="stop-color: #0f83ae; stop-opacity:1"/>
            </linearGradient>
      </defs>
<path
   id="path1"
   class="ColorScheme-Text"
   style="fill:url(#oomox);fill-opacity:1"
   d="M 82 24.375 C 72.05201 24.375 64 32.47951 64 42.4375 L 64 92.3125 L 106.6875 92.3125 L 106.6875 42.4375 C 106.6875 32.47951 98.57299 24.375 88.625 24.375 L 82 24.375 z M 167.375 24.375 C 157.43501 24.375 149.375 32.47951 149.375 42.4375 L 149.375 92.3125 L 192 92.3125 L 192 42.4375 C 192 32.47951 183.94899 24.375 174 24.375 L 167.375 24.375 z M 252.6875 24.375 C 242.74751 24.375 234.6875 32.47951 234.6875 42.4375 L 234.6875 92.3125 L 277.3125 92.3125 L 277.3125 42.4375 C 277.3125 32.47951 269.26049 24.375 259.3125 24.375 L 252.6875 24.375 z M 338 24.375 C 328.06001 24.375 320 32.47951 320 42.4375 L 320 92.3125 L 362.6875 92.3125 L 362.6875 42.4375 C 362.6875 32.47951 354.62749 24.375 344.6875 24.375 L 338 24.375 z M 423.375 24.375 C 413.43501 24.375 405.3125 32.47951 405.3125 42.4375 L 405.3125 92.3125 L 448 92.3125 L 448 42.4375 C 448 32.47951 439.97599 24.375 430 24.375 L 423.375 24.375 z "
   transform="scale(0.02)" />
<path
   id="path5"
   class="ColorScheme-Text"
   d="M 64 419.6875 L 64 469.5625 C 64 479.52049 72.05201 487.625 82 487.625 L 88.625 487.625 C 98.57399 487.625 106.6875 479.51949 106.6875 469.5625 L 106.6875 419.6875 L 64 419.6875 z M 149.375 419.6875 L 149.375 469.5625 C 149.375 479.52049 157.43601 487.625 167.375 487.625 L 174 487.625 C 183.94899 487.625 192 479.51949 192 469.5625 L 192 419.6875 L 149.375 419.6875 z M 234.6875 419.6875 L 234.6875 469.5625 C 234.6875 479.52049 242.74851 487.625 252.6875 487.625 L 259.3125 487.625 C 269.26049 487.625 277.3125 479.51949 277.3125 469.5625 L 277.3125 419.6875 L 234.6875 419.6875 z M 320 419.6875 L 320 469.5625 C 320 479.52049 328.06001 487.625 338 487.625 L 344.6875 487.625 C 354.62749 487.625 362.6875 479.51949 362.6875 469.5625 L 362.6875 419.6875 L 320 419.6875 z M 405.3125 419.6875 L 405.3125 469.5625 C 405.3125 479.52049 413.43601 487.625 423.375 487.625 L 430 487.625 C 439.97599 487.625 448 479.51949 448 469.5625 L 448 419.6875 L 405.3125 419.6875 z "
   style="fill:url(#oomox);fill-opacity:1"
   transform="scale(0.02)" />
<path
   id="path11"
   class="ColorScheme-Text"
   style="fill:url(#oomox);fill-opacity:1"
   d="M 0 119 L 0 393.0625 L 512 393.0625 L 512 119 L 0 119 z M 133.875 209.9375 L 168.6875 209.9375 C 185.24848 209.9375 197.4375 220.91552 197.4375 236.8125 C 197.4375 248.60049 190.70099 257.7235 180.375 261.5625 L 199.3125 298.25 C 199.8425 299.176 199.3 300 198.375 300 L 183.6875 300 C 182.6295 300 182.0915 299.6205 181.6875 298.6875 L 164.5 263.5625 L 149 263.5625 C 148.471 263.5625 148.1875 263.846 148.1875 264.375 L 148.1875 298.6875 C 148.1875 299.4855 147.665 300 146.875 300 L 133.875 300 C 133.085 300 132.5625 299.4865 132.5625 298.6875 L 132.5625 211.25 C 132.5625 210.451 133.085 209.9375 133.875 209.9375 z M 244.8125 209.9375 L 257 209.9375 C 257.924 209.9375 258.49 210.451 258.75 211.25 L 289.1875 298.6875 C 289.4475 299.4865 289.2365 300 288.3125 300 L 275.3125 300 C 274.3975 300 273.8225 299.6205 273.5625 298.6875 L 267.625 281.1875 L 233.6875 281.1875 L 227.75 298.6875 C 227.481 299.6195 226.932 300 226 300 L 213.1875 300 C 212.2555 300 211.981 299.4865 212.25 298.6875 L 243.125 211.25 C 243.394 210.451 243.8975 209.9375 244.8125 209.9375 z M 302.8125 209.9375 L 314.625 209.9375 C 315.827 209.9375 316.481 210.326 316.875 211.25 L 341.625 266.75 L 342.1875 266.75 L 366.5625 211.25 C 366.9565 210.326 367.6185 209.9375 368.8125 209.9375 L 380.4375 209.9375 C 381.2355 209.9375 381.75 210.451 381.75 211.25 L 381.75 298.6875 C 381.75 299.4855 381.2355 300 380.4375 300 L 368.9375 300 C 368.1475 300 367.625 299.4865 367.625 298.6875 L 367.625 243.5625 L 367.0625 243.5625 L 348 285.9375 C 347.462 287.1305 346.693 287.6875 345.5 287.6875 L 337.8125 287.6875 C 336.6285 287.6875 335.78 287.1305 335.25 285.9375 L 316.1875 243.5625 L 315.6875 243.5625 L 315.6875 298.6875 C 315.6875 299.4855 315.173 300 314.375 300 L 302.8125 300 C 302.0235 300 301.5 299.4865 301.5 298.6875 L 301.5 211.25 C 301.5 210.451 302.0235 209.9375 302.8125 209.9375 z M 148.625 224 C 148.3287 224.09797 148.1875 224.3525 148.1875 224.75 L 148.1875 248.75 C 148.1875 249.279 148.471 249.5625 149 249.5625 L 168.1875 249.5625 C 176.39649 249.5625 181.9375 244.49149 181.9375 236.8125 C 181.9375 228.99951 176.39549 224 168.1875 224 L 149 224 C 148.86775 224 148.72377 223.96734 148.625 224 z M 250.5625 232.3125 L 238.5 267.3125 L 262.875 267.3125 L 250.9375 232.3125 L 250.5625 232.3125 z "
   transform="scale(0.02)" />
<metadata
   id="metadata12"><rdf:RDF><cc:Work
       rdf:about=""><dc:creator><cc:Agent><dc:title>dreifacherspass</dc:title></cc:Agent></dc:creator><cc:license
         rdf:resource="http://creativecommons.org/licenses/by-sa/4.0/" /></cc:Work><cc:License
       rdf:about="http://creativecommons.org/licenses/by-sa/4.0/"><cc:permits
         rdf:resource="http://creativecommons.org/ns#Reproduction" /><cc:permits
         rdf:resource="http://creativecommons.org/ns#Distribution" /><cc:requires
         rdf:resource="http://creativecommons.org/ns#Notice" /><cc:requires
         rdf:resource="http://creativecommons.org/ns#Attribution" /><cc:permits
         rdf:resource="http://creativecommons.org/ns#DerivativeWorks" /><cc:requires
         rdf:resource="http://creativecommons.org/ns#ShareAlike" /></cc:License></rdf:RDF></metadata></svg>
