<?xml version="1.0" encoding="UTF-8" standalone="no"?>
<svg
   width="16"
   height="16"
   version="1.1"
   id="svg24"
   xmlns:xlink="http://www.w3.org/1999/xlink"
   xmlns="http://www.w3.org/2000/svg"
   xmlns:svg="http://www.w3.org/2000/svg"
   xmlns:rdf="http://www.w3.org/1999/02/22-rdf-syntax-ns#"
   xmlns:cc="http://creativecommons.org/ns#"
   xmlns:dc="http://purl.org/dc/elements/1.1/">
   <defs>
      <style id="current-color-scheme" type="text/css">
         .ColorScheme-Text { color: #0abdc6; } .ColorScheme-Highlight { color:#5294e2; }
      </style>
      <linearGradient id="arrongin" x1="0%" x2="0%" y1="0%" y2="100%">
         <stop offset="0%" style="stop-color:#dd9b44; stop-opacity:1"/>
         <stop offset="100%" style="stop-color:#ad6c16; stop-opacity:1"/>
      </linearGradient>
      <linearGradient id="aurora" x1="0%" x2="0%" y1="0%" y2="100%">
         <stop offset="0%" style="stop-color:#09D4DF; stop-opacity:1"/>
         <stop offset="100%" style="stop-color:#9269F4; stop-opacity:1"/>
      </linearGradient>
      <linearGradient id="cyberneon" x1="0%" x2="0%" y1="0%" y2="100%">
         <stop offset="0" style="stop-color:#0abdc6; stop-opacity:1"/>
         <stop offset="1" style="stop-color:#ea00d9; stop-opacity:1"/>
      </linearGradient>
      <linearGradient id="fitdance" x1="0%" x2="0%" y1="0%" y2="100%">
         <stop offset="0%" style="stop-color:#1AD6AB; stop-opacity:1"/>
         <stop offset="100%" style="stop-color:#329DB6; stop-opacity:1"/>
      </linearGradient>
      <linearGradient id="oomox" x1="0%" x2="0%" y1="0%" y2="100%">
         <stop offset="0%" style="stop-color:#0abdc6; stop-opacity:1"/>
         <stop offset="100%" style="stop-color:#b800ff; stop-opacity:1"/>
      </linearGradient>
      <linearGradient id="rainblue" x1="0%" x2="0%" y1="0%" y2="100%">
         <stop offset="0%" style="stop-color:#00F260; stop-opacity:1"/>
         <stop offset="100%" style="stop-color:#0575E6; stop-opacity:1"/>
      </linearGradient>
      <linearGradient id="sunrise" x1="0%" x2="0%" y1="0%" y2="100%">
         <stop offset="0%" style="stop-color: #FF8501; stop-opacity:1"/>
         <stop offset="100%" style="stop-color: #FFCB01; stop-opacity:1"/>
      </linearGradient>
      <linearGradient id="telinkrin" x1="0%" x2="0%" y1="0%" y2="100%">
         <stop offset="0%" style="stop-color: #b2ced6; stop-opacity:1"/>
         <stop offset="100%" style="stop-color: #6da5b7; stop-opacity:1"/>
      </linearGradient>
      <linearGradient id="60spsycho" x1="0%" x2="0%" y1="0%" y2="100%">
         <stop offset="0%" style="stop-color: #df5940; stop-opacity:1"/>
         <stop offset="25%" style="stop-color: #d8d15f; stop-opacity:1"/>
         <stop offset="50%" style="stop-color: #e9882a; stop-opacity:1"/>
         <stop offset="100%" style="stop-color: #279362; stop-opacity:1"/>
      </linearGradient>
      <linearGradient id="90ssummer" x1="0%" x2="0%" y1="0%" y2="100%">
         <stop offset="0%" style="stop-color: #f618c7; stop-opacity:1"/>
         <stop offset="20%" style="stop-color: #94ffab; stop-opacity:1"/>
         <stop offset="50%" style="stop-color: #fbfd54; stop-opacity:1"/>
         <stop offset="100%" style="stop-color: #0f83ae; stop-opacity:1"/>
      </linearGradient>
   </defs>
  <path
     id="path4"
     class="ColorScheme-Text"
     style="fill:url(#oomox)"
     d="M 9.7421875 3.625 C 9.308519 3.64031 8.7818703 3.8787495 8.4707031 4.1992188 C 8.1912385 4.4835983 7.944141 4.9357847 8.0097656 5.3710938 C 8.4943022 5.4044537 8.9896861 5.1544638 9.2910156 4.8339844 C 9.5923451 4.512975 9.7979744 4.0690692 9.7421875 3.625 z M 9.578125 5.375 C 9.536565 5.37493 9.496369 5.3756426 9.4550781 5.3789062 C 8.8797628 5.4248362 8.354141 5.8027344 8.0566406 5.8027344 C 7.7181199 5.8027344 7.1937519 5.3933569 6.6386719 5.4042969 C 5.9091326 5.4163269 5.2356269 5.8569453 4.859375 6.5585938 C 4.1019423 7.9700909 4.6654597 10.06046 5.4042969 11.205078 C 5.7652324 11.765628 6.2066387 12.375 6.7617188 12.375 C 7.3168089 12.375 7.5120258 11.996094 8.1699219 11.996094 C 8.8278179 11.996094 9.0090496 12.375 9.5898438 12.375 C 10.171167 12.375 10.54555 11.792657 10.904297 11.230469 C 11.318289 10.580766 11.490162 9.9502386 11.5 9.9179688 C 11.486883 9.9113688 10.35719 9.4483716 10.345703 8.0527344 C 10.334766 6.8846066 11.23602 6.324215 11.275391 6.296875 C 10.770618 5.5038966 9.9836793 5.3928894 9.703125 5.3808594 C 9.6612947 5.3762094 9.6196953 5.37507 9.578125 5.375 z " />
  <path
     d="M 5.5,0 C 4.9584562,0 4.5159975,0.06359892 4.140625,0.23046875 3.7652625,0.39733858 3.474378,0.68595096 3.3046875,1.0253906 2.9653366,1.7042799 3.0019531,2.500001 3.0019531,3.5 v 9 c 5e-5,0.999989 -0.036617,1.793777 0.3027344,2.472656 0.1696905,0.33943 0.460585,0.630005 0.8359375,0.796875 C 4.5160075,15.936401 4.9584562,15.99999 5.5,16 h 5 c 0.541544,0 0.984002,-0.0636 1.359375,-0.230469 0.375363,-0.16687 0.666247,-0.457435 0.835938,-0.796875 0.33935,-0.678889 0.302734,-1.472657 0.302734,-2.472656 v -9 c -5e-5,-1.000009 0.03662,-1.7957301 -0.302734,-2.4746094 C 12.525612,0.68595096 12.234738,0.39732858 11.859375,0.23046875 11.484002,0.06359892 11.041514,-3.999996e-5 10.5,0 Z M 4.0703125,2 H 11.929688 C 11.980576,2.3739496 11.99997,2.8701106 12,3.5 v 9 c 0,0.629899 -0.01942,1.12662 -0.07031,1.5 H 4.0703125 C 4.0194244,13.62663 4.00003,13.129899 4,12.5 v -9 C 4,2.8701006 4.0194244,2.3739496 4.0703125,2 Z"
     style="fill:url(#oomox)"
     id="path1"
     class="ColorScheme-Text"/>
  <metadata
     id="metadata24">
    <rdf:RDF>
      <cc:Work
         rdf:about="">
        <dc:creator>
          <cc:Agent>
            <dc:title>dreifacherspass</dc:title>
          </cc:Agent>
        </dc:creator>
        <cc:license
           rdf:resource="http://creativecommons.org/licenses/by-sa/4.0/" />
      </cc:Work>
      <cc:License
         rdf:about="http://creativecommons.org/licenses/by-sa/4.0/">
        <cc:permits
           rdf:resource="http://creativecommons.org/ns#Reproduction" />
        <cc:permits
           rdf:resource="http://creativecommons.org/ns#Distribution" />
        <cc:requires
           rdf:resource="http://creativecommons.org/ns#Notice" />
        <cc:requires
           rdf:resource="http://creativecommons.org/ns#Attribution" />
        <cc:permits
           rdf:resource="http://creativecommons.org/ns#DerivativeWorks" />
        <cc:requires
           rdf:resource="http://creativecommons.org/ns#ShareAlike" />
      </cc:License>
    </rdf:RDF>
  </metadata>
</svg>
