<?xml version="1.0" encoding="UTF-8" standalone="no"?>
<!-- Created with Inkscape (http://www.inkscape.org/) -->

<svg
   width="48"
   height="48"
   viewBox="0 0 12.7 12.7"
   version="1.1"
   id="svg2943"
   xmlns="http://www.w3.org/2000/svg"
   xmlns:svg="http://www.w3.org/2000/svg"
   xmlns:rdf="http://www.w3.org/1999/02/22-rdf-syntax-ns#"
   xmlns:cc="http://creativecommons.org/ns#"
   xmlns:dc="http://purl.org/dc/elements/1.1/">
  <defs
     id="defs2940">
    <style
       id="current-color-scheme"
       type="text/css">
      .ColorScheme-Text { color: #0abdc6; } .ColorScheme-Highlight { color:#5294e2; }
     </style>
    <linearGradient
       id="arrongin"
       x1="0%"
       x2="0%"
       y1="0%"
       y2="100%">
      <stop
         offset="0%"
         style="stop-color:#dd9b44; stop-opacity:1"
         id="stop9192" />
      <stop
         offset="100%"
         style="stop-color:#ad6c16; stop-opacity:1"
         id="stop9194" />
    </linearGradient>
    <linearGradient
       id="aurora"
       x1="0%"
       x2="0%"
       y1="0%"
       y2="100%">
      <stop
         offset="0%"
         style="stop-color:#09D4DF; stop-opacity:1"
         id="stop9197" />
      <stop
         offset="100%"
         style="stop-color:#9269F4; stop-opacity:1"
         id="stop9199" />
    </linearGradient>
    <linearGradient
       id="cyberneon"
       x1="0%"
       x2="0%"
       y1="0%"
       y2="100%">
      <stop
         offset="0"
         style="stop-color:#0abdc6; stop-opacity:1"
         id="stop9202" />
      <stop
         offset="1"
         style="stop-color:#ea00d9; stop-opacity:1"
         id="stop9204" />
    </linearGradient>
    <linearGradient
       id="fitdance"
       x1="0%"
       x2="0%"
       y1="0%"
       y2="100%">
      <stop
         offset="0%"
         style="stop-color:#1AD6AB; stop-opacity:1"
         id="stop9207" />
      <stop
         offset="100%"
         style="stop-color:#329DB6; stop-opacity:1"
         id="stop9209" />
    </linearGradient>
    <linearGradient
       id="oomox"
       x1="0%"
       x2="0%"
       y1="0%"
       y2="100%">
      <stop
         offset="0%"
         style="stop-color:#0abdc6; stop-opacity:1"
         id="stop9212" />
      <stop
         offset="100%"
         style="stop-color:#b800ff; stop-opacity:1"
         id="stop9214" />
    </linearGradient>
    <linearGradient
       id="rainblue"
       x1="0%"
       x2="0%"
       y1="0%"
       y2="100%">
      <stop
         offset="0%"
         style="stop-color:#00F260; stop-opacity:1"
         id="stop9217" />
      <stop
         offset="100%"
         style="stop-color:#0575E6; stop-opacity:1"
         id="stop9219" />
    </linearGradient>
    <linearGradient
       id="sunrise"
       x1="0%"
       x2="0%"
       y1="0%"
       y2="100%">
      <stop
         offset="0%"
         style="stop-color: #FF8501; stop-opacity:1"
         id="stop9222" />
      <stop
         offset="100%"
         style="stop-color: #FFCB01; stop-opacity:1"
         id="stop9224" />
    </linearGradient>
    <linearGradient
       id="telinkrin"
       x1="0%"
       x2="0%"
       y1="0%"
       y2="100%">
      <stop
         offset="0%"
         style="stop-color: #b2ced6; stop-opacity:1"
         id="stop9227" />
      <stop
         offset="100%"
         style="stop-color: #6da5b7; stop-opacity:1"
         id="stop9229" />
    </linearGradient>
    <linearGradient
       id="60spsycho"
       x1="0%"
       x2="0%"
       y1="0%"
       y2="100%">
      <stop
         offset="0%"
         style="stop-color: #df5940; stop-opacity:1"
         id="stop9232" />
      <stop
         offset="25%"
         style="stop-color: #d8d15f; stop-opacity:1"
         id="stop9234" />
      <stop
         offset="50%"
         style="stop-color: #e9882a; stop-opacity:1"
         id="stop9236" />
      <stop
         offset="100%"
         style="stop-color: #279362; stop-opacity:1"
         id="stop9238" />
    </linearGradient>
    <linearGradient
       id="90ssummer"
       x1="0%"
       x2="0%"
       y1="0%"
       y2="100%">
      <stop
         offset="0%"
         style="stop-color: #f618c7; stop-opacity:1"
         id="stop9241" />
      <stop
         offset="20%"
         style="stop-color: #94ffab; stop-opacity:1"
         id="stop9243" />
      <stop
         offset="50%"
         style="stop-color: #fbfd54; stop-opacity:1"
         id="stop9245" />
      <stop
         offset="100%"
         style="stop-color: #0f83ae; stop-opacity:1"
         id="stop9247" />
    </linearGradient>
  </defs>
  <metadata
     id="metadata3170">
    <rdf:RDF>
      <cc:Work
         rdf:about="">
        <dc:creator>
          <cc:Agent>
            <dc:title>dreifacherspass</dc:title>
          </cc:Agent>
        </dc:creator>
        <cc:license
           rdf:resource="http://creativecommons.org/licenses/by-sa/4.0/" />
      </cc:Work>
      <cc:License
         rdf:about="http://creativecommons.org/licenses/by-sa/4.0/">
        <cc:permits
           rdf:resource="http://creativecommons.org/ns#Reproduction" />
        <cc:permits
           rdf:resource="http://creativecommons.org/ns#Distribution" />
        <cc:requires
           rdf:resource="http://creativecommons.org/ns#Notice" />
        <cc:requires
           rdf:resource="http://creativecommons.org/ns#Attribution" />
        <cc:permits
           rdf:resource="http://creativecommons.org/ns#DerivativeWorks" />
        <cc:requires
           rdf:resource="http://creativecommons.org/ns#ShareAlike" />
      </cc:License>
    </rdf:RDF>
  </metadata>
  <path
     d="m 4.6750935,1.2285371 q 0,-0.15875 -0.05715,-0.2921 -0.05715,-0.13969999 -0.1651,-0.24129999 -0.1016,-0.1016 -0.2413,-0.1524 -0.1397,-0.05715 -0.29845,-0.05715 -0.45085,0 -0.75565,0.38099999 -0.26035,0.3302 -0.31115,0.8128 l 0.01905,0.0381 h 0.08255 l 0.01905,-0.03175 q 0.04445,-0.3683 0.24765,-0.65405 0.23495,-0.34289999 0.57785,-0.34289999 0.3937,0 0.3937,0.44449999 0,0.8382 -1.4097,2.3876 -0.03175,-0.01905 -0.09525,-0.01905 -0.04445,0 -0.08255,0.0381 l -0.42545,0.64135 v 0.0381 l 0.06985,0.0381 h 0.0254 l 0.3556,-0.33655 q 0.06985,0.0254 0.2413,0.0889 0.17145,0.05715 0.4445,0.1651 0.31115,0.1143 0.4445,0.1143 0.3937,0 0.8382,-0.76835 l -0.00635,-0.0254 -0.05715,-0.03175 -0.01905,0.0127 q -0.32385,0.46355 -0.60325,0.46355 -0.14605,0 -0.50165,-0.15875 -0.0889,-0.0381 -0.20955,-0.09525 -0.12065,-0.05715 -0.2794,-0.127 1.00965,-1.03505 1.2954,-1.39065 0.46355,-0.57785 0.46355,-0.9398 z"
     id="path3178"
     class="ColorScheme-Text"
     style="font-size:6.35px;font-family:'Brock Script';-inkscape-font-specification:'Brock Script';stroke-width:0.200709;stop-color:#000000;fill-opacity:1;fill:url(#oomox)"
     transform="matrix(1.4915735,0,0,1.4915735,-1.0778805,-0.56358274)" />
  <path
     d="m 7.7865979,1.7809871 q 0,-0.52705 -0.1651,-0.86995 -0.2159,-0.44449999 -0.6921499,-0.44449999 -0.38735,0 -0.7747,0.3683 -0.48895,0.46989999 -0.74295,1.26999999 -0.1397,0.43815 -0.1397,0.88265 0,0.50165 0.2286,0.8636 0.27305,0.42545 0.74295,0.42545 0.50165,0 0.9017,-0.508 0.6413499,-0.83185 0.6413499,-1.98755 z m -0.2921,-0.26035 q 0,0.95885 -0.3873499,1.83515 -0.34925,0.80645 -0.80645,0.80645 -0.31115,0 -0.45085,-0.3048 -0.1143,-0.23495 -0.1143,-0.5715 0,-0.5588 0.1651,-1.16205 0.42545,-1.52399999 1.0668,-1.52399999 0.29845,0 0.4317999,0.33654999 0.09525,0.2413 0.09525,0.5842 z"
     id="path3180"
     class="ColorScheme-Text"
     style="font-size:6.35px;font-family:'Brock Script';-inkscape-font-specification:'Brock Script';stroke-width:0.200709;stop-color:#000000;fill-opacity:1;fill:url(#oomox)"
     transform="matrix(1.4915735,0,0,1.4915735,-1.0778805,-0.56358274)" />
  <path
     d="m 4.6306435,6.50495 q 0,-0.0508 -0.04445,-0.0508 l -0.254,0.03175 q -0.0762,0 -0.10795,0.0889 l -0.2159,0.81915 -1.41605,0.0254 q 0.4191,-0.4699 0.762,-0.8763 0.34925,-0.4064 0.6223,-0.76835 0.4445,-0.57785 0.4445,-0.66675 0,-0.06985 -0.0508,-0.06985 l -0.42545,0.0889 q -0.0762,0.01905 -0.1524,0.13335 l -0.09525,0.1905 q -0.4572,0.85725 -1.31445,2.0193 l -0.0127,0.04445 0.01905,0.04445 1.5748,-0.0381 -0.32385,1.14935 q -0.0127,0.0635 -0.0127,0.0762 0,0.0381 0.03175,0.0381 h 0.01905 l 0.3429,-0.0635 q 0.05715,-0.0063 0.0762,-0.09525 l 0.2794,-1.12395 h 0.1905 l 0.0381,-0.03175 0.00635,-0.0762 -0.0381,-0.01905 h -0.15875 l 0.20955,-0.81915 q 0.00635,-0.01905 0.00635,-0.0508 z"
     id="path3182"
     class="ColorScheme-Text"
     style="font-size:6.35px;font-family:'Brock Script';-inkscape-font-specification:'Brock Script';stroke-width:0.200709;stop-color:#000000;fill-opacity:1;fill:url(#oomox)"
     transform="matrix(1.4915735,0,0,1.4915735,-1.0778805,-0.56358274)" />
  <path
     d="m 7.6532479,5.7239 q 0,-0.3429 -0.20955,-0.5334 Q 7.240498,5 6.897598,5 q -0.18415,0 -0.3429,0.0635 -0.1524,0.05715 -0.2667,0.1651 -0.1143,0.10795 -0.1778,0.26035 -0.0635,0.1524 -0.0635,0.3302 0,0.37465 0.26035,0.762 -0.4191,0.381 -0.61595,0.62865 -0.33655,0.4318 -0.33655,0.78105 0,0.37465 0.28575,0.60325 0.2667,0.20955 0.6477,0.20955 0.4191,0 0.7366,-0.2667 0.31115,-0.27305 0.31115,-0.69215 0,-0.4064 -0.3429,-0.9398 0.6603999,-0.7366 0.6603999,-1.1811 z m -0.24765,-0.03175 q 0,0.5715 -0.4889499,1.0795 -0.508,-0.80645 -0.508,-1.0795 0,-0.2286 0.14605,-0.38735 0.1524,-0.15875 0.381,-0.15875 0.4698999,0 0.4698999,0.5461 z M 6.935698,7.94005 q 0,0.1524 -0.0508,0.2921 -0.04445,0.13335 -0.13335,0.23495 -0.0889,0.1016 -0.2159,0.15875 -0.12065,0.05715 -0.27305,0.05715 -0.29845,0 -0.4572,-0.20955 -0.14605,-0.19685 -0.14605,-0.4953 0,-0.61595 0.7112,-1.27 0.56515,0.8509 0.56515,1.2319 z"
     id="path3184"
     class="ColorScheme-Text"
     style="font-size:6.35px;font-family:'Brock Script';-inkscape-font-specification:'Brock Script';stroke-width:0.200709;stop-color:#000000;fill-opacity:1;fill:url(#oomox)"
     transform="matrix(1.4915735,0,0,1.4915735,-1.0778805,-0.56358274)" />
</svg>
