<?xml version="1.0" encoding="UTF-8" standalone="no"?>
<!-- Created with Inkscape (http://www.inkscape.org/) -->

<svg
   width="16"
   height="16"
   viewBox="0 0 4.2333333 4.2333333"
   version="1.1"
   id="svg2943"
   xmlns:xlink="http://www.w3.org/1999/xlink"
   xmlns="http://www.w3.org/2000/svg"
   xmlns:svg="http://www.w3.org/2000/svg"
   xmlns:rdf="http://www.w3.org/1999/02/22-rdf-syntax-ns#"
   xmlns:cc="http://creativecommons.org/ns#"
   xmlns:dc="http://purl.org/dc/elements/1.1/">
  <defs>
   <style id="current-color-scheme" type="text/css">
   .ColorScheme-Text { color: #0abdc6; } .ColorScheme-Highlight { color:#5294e2; }
  </style>
  <linearGradient id="arrongin" x1="0%" x2="0%" y1="0%" y2="100%">
   <stop offset="0%" style="stop-color:#dd9b44; stop-opacity:1"/>
   <stop offset="100%" style="stop-color:#ad6c16; stop-opacity:1"/>
  </linearGradient>
  <linearGradient id="aurora" x1="0%" x2="0%" y1="0%" y2="100%">
   <stop offset="0%" style="stop-color:#09D4DF; stop-opacity:1"/>
   <stop offset="100%" style="stop-color:#9269F4; stop-opacity:1"/>
  </linearGradient>
  <linearGradient id="cyberneon" x1="0%" x2="0%" y1="0%" y2="100%">
    <stop offset="0" style="stop-color:#0abdc6; stop-opacity:1"/>
    <stop offset="1" style="stop-color:#ea00d9; stop-opacity:1"/>
  </linearGradient>
  <linearGradient id="fitdance" x1="0%" x2="0%" y1="0%" y2="100%">
   <stop offset="0%" style="stop-color:#1AD6AB; stop-opacity:1"/>
   <stop offset="100%" style="stop-color:#329DB6; stop-opacity:1"/>
  </linearGradient>
  <linearGradient id="oomox" x1="0%" x2="0%" y1="0%" y2="100%">
   <stop offset="0%" style="stop-color:#0abdc6; stop-opacity:1"/>
   <stop offset="100%" style="stop-color:#b800ff; stop-opacity:1"/>
  </linearGradient>
  <linearGradient id="rainblue" x1="0%" x2="0%" y1="0%" y2="100%">
   <stop offset="0%" style="stop-color:#00F260; stop-opacity:1"/>
   <stop offset="100%" style="stop-color:#0575E6; stop-opacity:1"/>
  </linearGradient>
  <linearGradient id="sunrise" x1="0%" x2="0%" y1="0%" y2="100%">
   <stop offset="0%" style="stop-color: #FF8501; stop-opacity:1"/>
   <stop offset="100%" style="stop-color: #FFCB01; stop-opacity:1"/>
  </linearGradient>
  <linearGradient id="telinkrin" x1="0%" x2="0%" y1="0%" y2="100%">
   <stop offset="0%" style="stop-color: #b2ced6; stop-opacity:1"/>
   <stop offset="100%" style="stop-color: #6da5b7; stop-opacity:1"/>
  </linearGradient>
  <linearGradient id="60spsycho" x1="0%" x2="0%" y1="0%" y2="100%">
   <stop offset="0%" style="stop-color: #df5940; stop-opacity:1"/>
   <stop offset="25%" style="stop-color: #d8d15f; stop-opacity:1"/>
   <stop offset="50%" style="stop-color: #e9882a; stop-opacity:1"/>
   <stop offset="100%" style="stop-color: #279362; stop-opacity:1"/>
  </linearGradient>
  <linearGradient id="90ssummer" x1="0%" x2="0%" y1="0%" y2="100%">
   <stop offset="0%" style="stop-color: #f618c7; stop-opacity:1"/>
   <stop offset="20%" style="stop-color: #94ffab; stop-opacity:1"/>
   <stop offset="50%" style="stop-color: #fbfd54; stop-opacity:1"/>
   <stop offset="100%" style="stop-color: #0f83ae; stop-opacity:1"/>
  </linearGradient>
 </defs>
  <metadata
     id="metadata3170">
    <rdf:RDF>
      <cc:Work
         rdf:about="">
        <dc:creator>
          <cc:Agent>
            <dc:title>dreifacherspass</dc:title>
          </cc:Agent>
        </dc:creator>
        <cc:license
           rdf:resource="http://creativecommons.org/licenses/by-sa/4.0/" />
      </cc:Work>
      <cc:License
         rdf:about="http://creativecommons.org/licenses/by-sa/4.0/">
        <cc:permits
           rdf:resource="http://creativecommons.org/ns#Reproduction" />
        <cc:permits
           rdf:resource="http://creativecommons.org/ns#Distribution" />
        <cc:requires
           rdf:resource="http://creativecommons.org/ns#Notice" />
        <cc:requires
           rdf:resource="http://creativecommons.org/ns#Attribution" />
        <cc:permits
           rdf:resource="http://creativecommons.org/ns#DerivativeWorks" />
        <cc:requires
           rdf:resource="http://creativecommons.org/ns#ShareAlike" />
      </cc:License>
    </rdf:RDF>
  </metadata>
  <path
     d="m 1.9667956,0.44166496 q 0,-0.0780573 -0.028101,-0.14362541 -0.0281,-0.0686904 -0.081179,-0.11864708 -0.049957,-0.0499567 -0.1186471,-0.074935 -0.06869,-0.02810062 -0.1467476,-0.02810062 -0.2216827,0 -0.3715527,0.18733747 -0.1280139,0.16235919 -0.1529922,0.3996533 l 0.00937,0.0187336 h 0.04059 l 0.00937,-0.0156116 Q 1.1487554,0.48537703 1.2486686,0.34487394 1.3641934,0.17627018 1.5327972,0.17627018 q 0.193582,0 0.193582,0.2185604 0,0.41214248 -0.6931486,1.17398152 -0.015612,-0.00937 -0.0468344,-0.00937 -0.021856,0 -0.0405899,0.018734 L 0.7366128,1.8935279 v 0.018734 L 0.770958,1.9309959 H 0.7834472 L 0.95829551,1.7655162 q 0.0343453,0.012489 0.11864709,0.043712 0.084302,0.028101 0.2185604,0.08118 0.1529923,0.056201 0.2185604,0.056201 0.193582,0 0.4121424,-0.3777972 l -0.00312,-0.012489 -0.028101,-0.015611 -0.00937,0.00624 q -0.1592361,0.227927 -0.2966169,0.227927 -0.071813,0 -0.246661,-0.078057 Q 1.2986253,1.678092 1.2393018,1.649992 1.1799782,1.6218911 1.1019209,1.5875459 1.5983653,1.0786124 1.7388683,0.90376408 1.9667956,0.61963559 1.9667956,0.44166496 Z"
     id="path3178"
     class="ColorScheme-Text"
     style="font-size:6.35px;font-family:'Brock Script';-inkscape-font-specification:'Brock Script';fill:url(#oomox);fill-opacity:1;stroke:url(#oomox);stroke-width:0.13398;stroke-dasharray:none;stop-color:#000000" />
  <path
     d="m 3.4967205,0.71330433 q 0,-0.25915018 -0.081179,-0.42775395 -0.1061579,-0.21856039 -0.3403298,-0.21856039 -0.1904598,0 -0.3809195,0.1810929 -0.2404165,0.23104958 -0.3653081,0.62445828 -0.06869,0.21543813 -0.06869,0.43399843 0,0.2466611 0.1124025,0.4246316 0.1342585,0.2091936 0.3653081,0.2091936 0.246661,0 0.4433653,-0.2497833 Q 3.4967205,1.2815613 3.4967205,0.71330433 Z M 3.353095,0.58529036 q 0,0.47146594 -0.1904596,0.90234214 -0.171726,0.3965311 -0.396531,0.3965311 -0.1529923,0 -0.2216827,-0.1498701 -0.056201,-0.1155247 -0.056201,-0.2810061 0,-0.2747617 0.081179,-0.57137935 0.2091936,-0.74934995 0.524545,-0.74934995 0.1467477,0 0.2123157,0.16548145 0.046834,0.1186471 0.046835,0.28725081 z"
     id="path3180"
     class="ColorScheme-Text"
     style="font-size:6.35px;font-family:'Brock Script';-inkscape-font-specification:'Brock Script';fill:url(#oomox);fill-opacity:1;stroke:url(#oomox);stroke-width:0.13398;stroke-dasharray:none;stop-color:#000000" />
  <path
     d="m 1.9449396,3.0360741 q 0,-0.024978 -0.021856,-0.024978 L 1.798192,3.0267081 q -0.037467,0 -0.053079,0.043712 L 1.6389551,3.4731947 0.94268403,3.4856822 Q 1.1487553,3.2546345 1.3173591,3.0548079 1.4890851,2.8549812 1.6233436,2.6770106 1.841904,2.3928821 1.841904,2.34917 q 0,-0.034345 -0.024978,-0.034345 L 1.6077325,2.358537 Q 1.570265,2.367907 1.5327975,2.424105 L 1.4859631,2.517774 Q 1.2611578,2.9392831 0.83964842,3.5106623 l -0.006245,0.021855 0.009367,0.021855 0.77432828,-0.018734 -0.1592368,0.5651343 q -0.00624,0.031224 -0.00624,0.037468 0,0.018734 0.015611,0.018734 h 0.00937 L 1.6451996,4.125751 Q 1.6733,4.122651 1.682667,4.078917 L 1.8200479,3.5262708 h 0.093669 l 0.018734,-0.015608 0.00312,-0.037468 -0.018734,-0.00937 H 1.8387817 L 1.9418173,3.0610525 q 0.00312,-0.00937 0.00312,-0.024978 z"
     id="path3182"
     class="ColorScheme-Text"
     style="font-size:6.35px;font-family:'Brock Script';-inkscape-font-specification:'Brock Script';fill:url(#oomox);fill-opacity:1;stroke:url(#oomox);stroke-width:0.13398;stroke-dasharray:none;stop-color:#000000" />
  <path
     d="m 3.4311522,2.6520323 q 0,-0.1686038 -0.1030354,-0.2622725 -0.099913,-0.093669 -0.268517,-0.093669 -0.090546,0 -0.1686038,0.031223 -0.074935,0.0281 -0.1311362,0.08118 -0.056201,0.053079 -0.087424,0.1280139 -0.031223,0.074935 -0.031223,0.1623592 0,0.1842151 0.128014,0.3746749 Q 2.5631556,3.260879 2.4663645,3.3826484 2.3008831,3.5949639 2.3008831,3.7666899 q 0,0.1842151 0.1405031,0.2966179 0.1311362,0.1030355 0.3184737,0.1030355 0.2060713,0 0.3621858,-0.1311363 0.1529923,-0.1342584 0.1529923,-0.3403296 0,-0.1998267 -0.1686038,-0.462099 0.324718,-0.3621857 0.324718,-0.5807461 z M 3.3093831,2.6364209 q 0,0.2810062 -0.2404165,0.5307895 -0.2497833,-0.396531 -0.2497833,-0.5307895 0,-0.1124025 0.071813,-0.1904598 0.074935,-0.078057 0.1873375,-0.078057 0.2310496,0 0.2310493,0.2685168 z M 3.0783335,3.7417118 q 0,0.074935 -0.024978,0.1436252 -0.021856,0.065568 -0.065568,0.1155251 -0.043712,0.049957 -0.1061579,0.078057 -0.059324,0.028102 -0.1342585,0.028102 -0.1467477,0 -0.224805,-0.1030356 -0.071813,-0.096791 -0.071813,-0.2435384 0,-0.3028623 0.3496966,-0.6244584 0.2778839,0.4183869 0.2778839,0.6057244 z"
     id="path3184"
     class="ColorScheme-Text"
     style="font-size:6.35px;font-family:'Brock Script';-inkscape-font-specification:'Brock Script';fill:url(#oomox);fill-opacity:1;stroke:url(#oomox);stroke-width:0.13398;stroke-dasharray:none;stop-color:#000000" />
</svg>
