<?xml version="1.0" encoding="UTF-8" standalone="no"?>
<!-- Created with Inkscape (http://www.inkscape.org/) -->

<svg
   width="48"
   height="48"
   viewBox="0 0 12.7 12.7"
   version="1.1"
   id="svg2943"
   xmlns:xlink="http://www.w3.org/1999/xlink"
   xmlns="http://www.w3.org/2000/svg"
   xmlns:svg="http://www.w3.org/2000/svg"
   xmlns:rdf="http://www.w3.org/1999/02/22-rdf-syntax-ns#"
   xmlns:cc="http://creativecommons.org/ns#"
   xmlns:dc="http://purl.org/dc/elements/1.1/">
  <defs
     id="defs2940">
    <style
       id="current-color-scheme"
       type="text/css">
      .ColorScheme-Text { color: #0abdc6; } .ColorScheme-Highlight { color:#5294e2; }
     </style>
    <linearGradient
       id="arrongin"
       x1="0%"
       x2="0%"
       y1="0%"
       y2="100%">
      <stop
         offset="0%"
         style="stop-color:#dd9b44; stop-opacity:1"
         id="stop9192" />
      <stop
         offset="100%"
         style="stop-color:#ad6c16; stop-opacity:1"
         id="stop9194" />
    </linearGradient>
    <linearGradient
       id="aurora"
       x1="0%"
       x2="0%"
       y1="0%"
       y2="100%">
      <stop
         offset="0%"
         style="stop-color:#09D4DF; stop-opacity:1"
         id="stop9197" />
      <stop
         offset="100%"
         style="stop-color:#9269F4; stop-opacity:1"
         id="stop9199" />
    </linearGradient>
    <linearGradient
       id="cyberneon"
       x1="0%"
       x2="0%"
       y1="0%"
       y2="100%">
      <stop
         offset="0"
         style="stop-color:#0abdc6; stop-opacity:1"
         id="stop9202" />
      <stop
         offset="1"
         style="stop-color:#ea00d9; stop-opacity:1"
         id="stop9204" />
    </linearGradient>
    <linearGradient
       id="fitdance"
       x1="0%"
       x2="0%"
       y1="0%"
       y2="100%">
      <stop
         offset="0%"
         style="stop-color:#1AD6AB; stop-opacity:1"
         id="stop9207" />
      <stop
         offset="100%"
         style="stop-color:#329DB6; stop-opacity:1"
         id="stop9209" />
    </linearGradient>
    <linearGradient
       id="oomox"
       x1="0%"
       x2="0%"
       y1="0%"
       y2="100%">
      <stop
         offset="0%"
         style="stop-color:#0abdc6; stop-opacity:1"
         id="stop9212" />
      <stop
         offset="100%"
         style="stop-color:#b800ff; stop-opacity:1"
         id="stop9214" />
    </linearGradient>
    <linearGradient
       id="rainblue"
       x1="0%"
       x2="0%"
       y1="0%"
       y2="100%">
      <stop
         offset="0%"
         style="stop-color:#00F260; stop-opacity:1"
         id="stop9217" />
      <stop
         offset="100%"
         style="stop-color:#0575E6; stop-opacity:1"
         id="stop9219" />
    </linearGradient>
    <linearGradient
       id="sunrise"
       x1="0%"
       x2="0%"
       y1="0%"
       y2="100%">
      <stop
         offset="0%"
         style="stop-color: #FF8501; stop-opacity:1"
         id="stop9222" />
      <stop
         offset="100%"
         style="stop-color: #FFCB01; stop-opacity:1"
         id="stop9224" />
    </linearGradient>
    <linearGradient
       id="telinkrin"
       x1="0%"
       x2="0%"
       y1="0%"
       y2="100%">
      <stop
         offset="0%"
         style="stop-color: #b2ced6; stop-opacity:1"
         id="stop9227" />
      <stop
         offset="100%"
         style="stop-color: #6da5b7; stop-opacity:1"
         id="stop9229" />
    </linearGradient>
    <linearGradient
       id="60spsycho"
       x1="0%"
       x2="0%"
       y1="0%"
       y2="100%">
      <stop
         offset="0%"
         style="stop-color: #df5940; stop-opacity:1"
         id="stop9232" />
      <stop
         offset="25%"
         style="stop-color: #d8d15f; stop-opacity:1"
         id="stop9234" />
      <stop
         offset="50%"
         style="stop-color: #e9882a; stop-opacity:1"
         id="stop9236" />
      <stop
         offset="100%"
         style="stop-color: #279362; stop-opacity:1"
         id="stop9238" />
    </linearGradient>
    <linearGradient
       id="90ssummer"
       x1="0%"
       x2="0%"
       y1="0%"
       y2="100%">
      <stop
         offset="0%"
         style="stop-color: #f618c7; stop-opacity:1"
         id="stop9241" />
      <stop
         offset="20%"
         style="stop-color: #94ffab; stop-opacity:1"
         id="stop9243" />
      <stop
         offset="50%"
         style="stop-color: #fbfd54; stop-opacity:1"
         id="stop9245" />
      <stop
         offset="100%"
         style="stop-color: #0f83ae; stop-opacity:1"
         id="stop9247" />
    </linearGradient>
  </defs>
  <metadata
     id="metadata3170">
    <rdf:RDF>
      <cc:Work
         rdf:about="">
        <dc:creator>
          <cc:Agent>
            <dc:title>dreifacherspass</dc:title>
          </cc:Agent>
        </dc:creator>
        <cc:license
           rdf:resource="http://creativecommons.org/licenses/by-sa/4.0/" />
      </cc:Work>
      <cc:License
         rdf:about="http://creativecommons.org/licenses/by-sa/4.0/">
        <cc:permits
           rdf:resource="http://creativecommons.org/ns#Reproduction" />
        <cc:permits
           rdf:resource="http://creativecommons.org/ns#Distribution" />
        <cc:requires
           rdf:resource="http://creativecommons.org/ns#Notice" />
        <cc:requires
           rdf:resource="http://creativecommons.org/ns#Attribution" />
        <cc:permits
           rdf:resource="http://creativecommons.org/ns#DerivativeWorks" />
        <cc:requires
           rdf:resource="http://creativecommons.org/ns#ShareAlike" />
      </cc:License>
    </rdf:RDF>
  </metadata>
  <path
     d="m 5.9097537,1.4296826 q 0,-0.2292932 -0.082546,-0.4218996 Q 5.7446626,0.80600491 5.5887432,0.65925723 5.4419955,0.51250954 5.2402174,0.4391357 5.0384394,0.35659013 4.8091461,0.35659013 q -0.6511929,0 -1.0914359,0.5503038 Q 3.3416692,1.383824 3.2682954,2.0808754 l 0.027516,0.05503 h 0.1192325 l 0.027516,-0.045859 Q 3.5067605,1.5580868 3.8002557,1.145359 4.1396098,0.65008549 4.6348832,0.65008549 q 0.5686473,0 0.5686473,0.64202111 0,1.2106685 -2.0361241,3.4485706 -0.045859,-0.027516 -0.137576,-0.027516 -0.064202,0 -0.1192327,0.05503 L 2.2960918,5.6945373 v 0.05503 l 0.1008891,0.05503 h 0.036687 L 2.9472847,5.3184956 q 0.1008892,0.036687 0.3485259,0.1284043 0.2476367,0.082546 0.6420211,0.2384649 0.4494148,0.1650911 0.6420211,0.1650911 0.5686473,0 1.2106685,-1.1097794 l -0.00917,-0.036687 -0.082546,-0.045858 -0.027516,0.018344 q -0.4677561,0.6695356 -0.8713122,0.6695356 -0.2109499,0 -0.7245668,-0.2292933 Q 3.9470035,5.0616878 3.7727405,4.9791422 3.5984777,4.8965967 3.3691844,4.7957077 4.8274895,3.3007156 5.2402174,2.7870987 5.9097537,1.9524713 5.9097537,1.4296826 Z"
     id="path3178"
     class="ColorScheme-Text"
     style="font-size:6.35px;font-family:'Brock Script';-inkscape-font-specification:'Brock Script';fill:url(#oomox);fill-opacity:1;stroke:url(#oomox);stroke-width:0.393566;stroke-dasharray:none;stop-color:#000000" />
  <path
     d="m 10.403908,2.2276232 q 0,-0.7612536 -0.238465,-1.25652714 -0.3118388,-0.64202112 -0.9997185,-0.64202112 -0.5594756,0 -1.1189511,0.53196037 Q 7.3405501,1.5397434 6.973681,2.6953814 6.7719028,3.3282308 6.7719028,3.9702519 q 0,0.7245667 0.3301824,1.2473553 0.3943844,0.614506 1.0730924,0.614506 0.7245667,0 1.3023857,-0.7337384 Q 10.403908,3.896878 10.403908,2.2276232 Z M 9.9820079,1.8515822 q 0,1.3849313 -0.559475,2.6506301 -0.5044451,1.1648098 -1.1648097,1.1648098 -0.4494148,0 -0.6511929,-0.4402432 Q 7.4414392,4.887425 7.4414392,4.4013233 q 0,-0.8071123 0.238465,-1.6784267 0.614506,-2.20121533 1.5408507,-2.20121533 0.4310713,0 0.6236775,0.48610173 0.1375755,0.3485258 0.1375755,0.8437992 z"
     id="path3180"
     class="ColorScheme-Text"
     style="font-size:6.35px;font-family:'Brock Script';-inkscape-font-specification:'Brock Script';fill:url(#oomox);fill-opacity:1;stroke:url(#oomox);stroke-width:0.393566;stroke-dasharray:none;stop-color:#000000" />
  <path
     d="m 5.8455517,9.0507592 q 0,-0.073374 -0.064202,-0.073374 l -0.3668691,0.045859 q -0.1100607,0 -0.1559194,0.1284042 L 4.9467221,10.334801 2.901426,10.371483 Q 3.5067603,9.6927803 4.0020339,9.1057896 4.506479,8.5187988 4.9008634,7.9960102 5.5428846,7.1613827 5.5428846,7.0329786 q 0,-0.1008891 -0.073374,-0.1008891 L 4.8550047,7.0604937 Q 4.744944,7.0880094 4.6348832,7.2531001 L 4.4973073,7.528252 q -0.6603646,1.2381836 -1.8985484,2.91661 l -0.018344,0.0642 0.027516,0.0642 2.2745893,-0.05503 -0.4677582,1.660082 q -0.018344,0.09172 -0.018344,0.110061 0,0.05503 0.045858,0.05503 h 0.027516 l 0.4952734,-0.09172 q 0.082545,-0.0091 0.1100607,-0.137576 l 0.4035562,-1.623397 h 0.2751519 l 0.05503,-0.04585 0.00917,-0.110061 -0.05503,-0.02752 H 5.5337128 L 5.8363799,9.1241331 q 0.00917,-0.027515 0.00917,-0.073374 z"
     id="path3182"
     class="ColorScheme-Text"
     style="font-size:6.35px;font-family:'Brock Script';-inkscape-font-specification:'Brock Script';fill:url(#oomox);fill-opacity:1;stroke:url(#oomox);stroke-width:0.393566;stroke-dasharray:none;stop-color:#000000" />
  <path
     d="m 10.211301,7.9226363 q 0,-0.4952734 -0.3026665,-0.7704253 -0.2934952,-0.2751519 -0.7887687,-0.2751519 -0.2659801,0 -0.4952734,0.091717 -0.2201215,0.082545 -0.3852127,0.238465 -0.1650912,0.1559194 -0.2568084,0.3760409 -0.091717,0.2201216 -0.091717,0.4769301 0,0.541132 0.376041,1.1006075 -0.6053343,0.5503038 -0.8896579,0.9080014 -0.4861017,0.623677 -0.4861017,1.128122 0,0.541132 0.4127278,0.871315 0.3852127,0.302667 0.9355165,0.302667 0.6053343,0 1.0639208,-0.385213 0.4494147,-0.394384 0.4494147,-0.999718 0,-0.586991 -0.4952734,-1.3574161 Q 10.211301,8.5646575 10.211301,7.9226363 Z M 9.8536042,7.8767778 q 0,0.8254557 -0.7062232,1.5591941 -0.7337384,-1.1648097 -0.7337384,-1.5591941 0,-0.3301822 0.2109498,-0.5594756 Q 8.844714,7.088009 9.1748962,7.088009 q 0.678708,0 0.678708,0.7887688 z M 9.1748962,11.12357 q 0,0.220122 -0.073374,0.421899 -0.064202,0.192606 -0.1926064,0.339355 -0.1284042,0.146747 -0.3118387,0.229293 -0.174263,0.08255 -0.3943845,0.08255 -0.4310713,0 -0.6603645,-0.302667 -0.2109499,-0.284323 -0.2109499,-0.715394 0,-0.889658 1.0272338,-1.8343464 0.816284,1.2290114 0.816284,1.7793154 z"
     id="path3184"
     class="ColorScheme-Text"
     style="font-size:6.35px;font-family:'Brock Script';-inkscape-font-specification:'Brock Script';fill:url(#oomox);fill-opacity:1;stroke:url(#oomox);stroke-width:0.393566;stroke-dasharray:none;stop-color:#000000" />
</svg>
