<?xml version="1.0" encoding="UTF-8" standalone="no"?>
<svg
   width="16"
   height="16"
   version="1.1"
   id="svg24"
   xmlns:xlink="http://www.w3.org/1999/xlink"
   xmlns="http://www.w3.org/2000/svg"
   xmlns:svg="http://www.w3.org/2000/svg"
   xmlns:rdf="http://www.w3.org/1999/02/22-rdf-syntax-ns#"
   xmlns:cc="http://creativecommons.org/ns#"
   xmlns:dc="http://purl.org/dc/elements/1.1/">
   <defs>
   <style id="current-color-scheme" type="text/css">
   .ColorScheme-Text { color: #0abdc6; } .ColorScheme-Highlight { color:#5294e2; }
  </style>
  <linearGradient id="arrongin" x1="0%" x2="0%" y1="0%" y2="100%">
   <stop offset="0%" style="stop-color:#dd9b44; stop-opacity:1"/>
   <stop offset="100%" style="stop-color:#ad6c16; stop-opacity:1"/>
  </linearGradient>
  <linearGradient id="aurora" x1="0%" x2="0%" y1="0%" y2="100%">
   <stop offset="0%" style="stop-color:#09D4DF; stop-opacity:1"/>
   <stop offset="100%" style="stop-color:#9269F4; stop-opacity:1"/>
  </linearGradient>
  <linearGradient id="cyberneon" x1="0%" x2="0%" y1="0%" y2="100%">
    <stop offset="0" style="stop-color:#0abdc6; stop-opacity:1"/>
    <stop offset="1" style="stop-color:#ea00d9; stop-opacity:1"/>
  </linearGradient>
  <linearGradient id="fitdance" x1="0%" x2="0%" y1="0%" y2="100%">
   <stop offset="0%" style="stop-color:#1AD6AB; stop-opacity:1"/>
   <stop offset="100%" style="stop-color:#329DB6; stop-opacity:1"/>
  </linearGradient>
  <linearGradient id="oomox" x1="0%" x2="0%" y1="0%" y2="100%">
   <stop offset="0%" style="stop-color:#0abdc6; stop-opacity:1"/>
   <stop offset="100%" style="stop-color:#b800ff; stop-opacity:1"/>
  </linearGradient>
  <linearGradient id="rainblue" x1="0%" x2="0%" y1="0%" y2="100%">
   <stop offset="0%" style="stop-color:#00F260; stop-opacity:1"/>
   <stop offset="100%" style="stop-color:#0575E6; stop-opacity:1"/>
  </linearGradient>
  <linearGradient id="sunrise" x1="0%" x2="0%" y1="0%" y2="100%">
   <stop offset="0%" style="stop-color: #FF8501; stop-opacity:1"/>
   <stop offset="100%" style="stop-color: #FFCB01; stop-opacity:1"/>
  </linearGradient>
  <linearGradient id="telinkrin" x1="0%" x2="0%" y1="0%" y2="100%">
   <stop offset="0%" style="stop-color: #b2ced6; stop-opacity:1"/>
   <stop offset="100%" style="stop-color: #6da5b7; stop-opacity:1"/>
  </linearGradient>
  <linearGradient id="60spsycho" x1="0%" x2="0%" y1="0%" y2="100%">
   <stop offset="0%" style="stop-color: #df5940; stop-opacity:1"/>
   <stop offset="25%" style="stop-color: #d8d15f; stop-opacity:1"/>
   <stop offset="50%" style="stop-color: #e9882a; stop-opacity:1"/>
   <stop offset="100%" style="stop-color: #279362; stop-opacity:1"/>
  </linearGradient>
  <linearGradient id="90ssummer" x1="0%" x2="0%" y1="0%" y2="100%">
   <stop offset="0%" style="stop-color: #f618c7; stop-opacity:1"/>
   <stop offset="20%" style="stop-color: #94ffab; stop-opacity:1"/>
   <stop offset="50%" style="stop-color: #fbfd54; stop-opacity:1"/>
   <stop offset="100%" style="stop-color: #0f83ae; stop-opacity:1"/>
  </linearGradient>
 </defs>
  <path
     id="path28"
     class="ColorScheme-Text"
     style="fill:url(#oomox);stroke-width:1.39274"
     d="m 7.9996532,1.5000013 c -0.06163,0 -0.1224995,0.00351 -0.1832742,0.00951 -0.060773,0.00605 -0.1213753,0.014264 -0.1808937,0.026177 -0.059522,0.01193 -0.1182757,0.027593 -0.1761338,0.045229 -0.057858,0.017632 -0.1155755,0.038728 -0.1713726,0.061883 -0.055791,0.023156 -0.1108988,0.047667 -0.1642326,0.076166 -0.053323,0.028506 -0.1042465,0.059139 -0.1547118,0.092826 C 6.9185675,1.8454803 6.8686601,1.8825943 6.8214629,1.9212825 6.7742719,1.9599795 6.7293149,2.0015265 6.6857926,2.045052 6.6422706,2.088573 6.6007166,2.133528 6.5620235,2.1807224 6.5233255,2.2279133 6.4885956,2.2778283 6.454914,2.3282932 6.421231,2.3787592 6.39059,2.4296754 6.362085,2.4830052 6.333579,2.5363282 6.306693,2.5914394 6.283544,2.647238 6.260388,2.703027 6.239287,2.7607507 6.221661,2.8186108 6.20403,2.8764688 6.190744,2.935226 6.178819,2.9947446 6.166889,3.0542666 6.156309,3.114863 6.150254,3.1756382 c -0.00604,0.060774 -0.00943,0.1216448 -0.00943,0.1832741 0,0.061457 0.00351,0.1225942 0.00943,0.1832739 0.00604,0.06068 0.016636,0.1214085 0.028565,0.1808939 0.01193,0.059494 0.025215,0.1182617 0.042842,0.1761337 0.017632,0.057868 0.038726,0.1131499 0.061883,0.1689929 0.023156,0.055842 0.050041,0.1108433 0.078541,0.1642325 0.028506,0.053396 0.05914,0.1065742 0.092829,0.1570921 0.033683,0.05052 0.068415,0.097958 0.1071095,0.145191 0.038698,0.047228 0.080242,0.094526 0.1237691,0.1380502 0.043522,0.043522 0.088482,0.082734 0.1356703,0.1213894 0.047192,0.038652 0.097106,0.075871 0.1475716,0.109485 0.050466,0.033633 0.1013827,0.064403 0.1547118,0.092829 0.053323,0.028433 0.1084346,0.053091 0.1642326,0.076166 0.05579,0.023066 0.1135137,0.044342 0.1713726,0.061883 0.057858,0.017542 0.1166157,0.033366 0.1761338,0.045229 0.059522,0.011848 0.1201186,0.020169 0.1808937,0.026177 0.060774,0.00602 0.1216452,0.00943 0.1832742,0.00943 0.061456,0 0.1225946,-0.00354 0.1832742,-0.00943 0.060679,-0.00602 0.1214084,-0.014316 0.180894,-0.026177 0.059493,-0.011848 0.1182624,-0.027677 0.1761332,-0.045229 0.057868,-0.017542 0.1131499,-0.038821 0.1689929,-0.061883 0.055841,-0.023061 0.1108419,-0.047733 0.1642325,-0.076166 0.053396,-0.028433 0.1065753,-0.059202 0.1570918,-0.092829 0.050522,-0.033633 0.100341,-0.070834 0.1475711,-0.1094849 0.047232,-0.038652 0.09215,-0.077864 0.1356717,-0.1213894 0.043522,-0.043523 0.085113,-0.090824 0.123769,-0.1380502 0.038656,-0.047229 0.073478,-0.09467 0.1071086,-0.1451911 0.033623,-0.050522 0.064406,-0.1037064 0.09282,-0.1570921 0.028414,-0.053395 0.055501,-0.1083938 0.078511,-0.1642325 0.023093,-0.05584 0.04199,-0.1111215 0.059484,-0.1689929 0.017559,-0.057869 0.033382,-0.1166483 0.045268,-0.1761337 0.011895,-0.059487 0.020169,-0.1202137 0.026139,-0.1808938 0.00641,-0.060681 0.00971,-0.1218186 0.00971,-0.183274 0,-0.06163 -0.00316,-0.122499 -0.00971,-0.183274 C 9.8402995,3.114884 9.8322859,3.0542843 9.8204467,2.9947662 9.808561,2.9352625 9.7927475,2.8765076 9.7751882,2.8186497 9.7576196,2.760785 9.7387233,2.7030681 9.7157134,2.6472711 9.6926199,2.5914799 9.6655891,2.5363707 9.6371657,2.4830383 9.6087701,2.4296976 9.5779786,2.3787832 9.5443552,2.3283175 9.5107596,2.2778405 9.4759288,2.2279302 9.4372661,2.1807348 9.3986079,2.1335392 9.3570182,2.0885868 9.3134961,2.0450639 9.269988,2.0015398 9.22507,1.9599868 9.1778429,1.9212946 9.1306125,1.8826025 9.0807913,1.8454931 9.0302719,1.8118059 8.9797525,1.7781192 8.9265694,1.7474869 8.87318,1.7189786 8.8197909,1.6904711 8.7647882,1.6659676 8.7089475,1.6428132 8.6531076,1.6196588 8.597827,1.5985554 8.5399546,1.5809286 8.4820823,1.5633016 8.4233071,1.5476306 8.3638214,1.535706 8.3043359,1.5237767 8.2436067,1.5155731 8.1829274,1.5095238 8.1222483,1.5034733 8.0611081,1.4999972 7.9996532,1.4999972 Z m -5.572006,4.6437361 v 0.928271 l 1.1520076,0.00239 c 0.1211696,0 0.2379237,0.00305 0.3498869,0.011911 0.1119628,0.00888 0.2185232,0.022525 0.3213249,0.04046 0.1028044,0.017934 0.2014584,0.041731 0.2951426,0.069024 0.093686,0.027293 0.1819707,0.058301 0.2665803,0.095208 0.083212,0.034818 0.1625051,0.073824 0.2380178,0.1166294 0.075512,0.042802 0.1468432,0.089682 0.2142169,0.1404303 0.067365,0.050741 0.1316143,0.1055827 0.1904146,0.1642327 0.058791,0.058645 0.1120613,0.1215303 0.1618525,0.1880345 0.051524,0.064072 0.099241,0.1319164 0.1428106,0.2023157 0.043567,0.070396 0.083317,0.1424627 0.1190089,0.218977 0.035693,0.076514 0.067316,0.1556063 0.095207,0.2380175 0.027902,0.08241 0.053591,0.1689685 0.073791,0.2570598 0.020187,0.088431 0.034808,0.1777797 0.047601,0.2689607 0.012792,0.09118 0.022932,0.1846469 0.030944,0.2784835 0.016018,0.1876722 0.02555,0.3806132 0.038088,0.5783886 v 0.00418 l -0.00943,4.5532919 H 7.0714879 V 11.25105 c 0,-0.0642 0.00664,-0.127502 0.019038,-0.188036 0.012381,-0.06051 0.028846,-0.118162 0.052371,-0.173757 0.023525,-0.05565 0.052277,-0.110093 0.085686,-0.159468 0.033413,-0.04937 0.072208,-0.09365 0.1142505,-0.135672 0.042039,-0.04199 0.088628,-0.08088 0.1380505,-0.114257 0.049418,-0.03342 0.1015339,-0.06226 0.1570919,-0.08572 0.055548,-0.02346 0.1133168,-0.04245 0.1737534,-0.05471 0.060435,-0.01232 0.1239684,-0.01908 0.1880344,-0.01908 0.064072,0 0.127597,0.0079 0.1880342,0.01908 0.060438,0.01233 0.118195,0.03126 0.1737534,0.05471 0.055547,0.02346 0.1076629,0.05231 0.1570918,0.08572 0.049419,0.03342 0.096003,0.07233 0.138051,0.114257 0.042037,0.04199 0.08084,0.08614 0.1142502,0.135672 0.033413,0.04937 0.062164,0.103894 0.085685,0.159468 0.023524,0.05565 0.039977,0.113221 0.052371,0.173757 0.012381,0.06055 0.019044,0.123795 0.019044,0.188036 v 3.248953 h 0.928261 l 0.00971,-4.548532 c 3.344e-4,-0.1027178 0.00204,-0.2035725 0.00761,-0.3022859 0.00446,-0.09871 0.011644,-0.1932938 0.021413,-0.2880004 0.00996,-0.094704 0.023381,-0.187779 0.038062,-0.2784835 0.014681,-0.090708 0.030132,-0.179882 0.049985,-0.2665801 0.020187,-0.088435 0.045853,-0.174453 0.073784,-0.2570598 0.02788,-0.082606 0.05949,-0.1614171 0.09516,-0.2380181 0.03564,-0.076595 0.07548,-0.1509364 0.119013,-0.2213569 0.0436,-0.070429 0.08887,-0.138249 0.140429,-0.2023155 0.05015,-0.066524 0.105273,-0.1294029 0.164231,-0.1880342 0.05893,-0.058633 0.123044,-0.1111877 0.190414,-0.1618527 0.06737,-0.050667 0.138879,-0.097819 0.214214,-0.1404304 0.0754,-0.042611 0.155151,-0.08216 0.238021,-0.1166298 0.08461,-0.036909 0.177106,-0.067915 0.2761,-0.095207 0.09898,-0.027293 0.204823,-0.051089 0.311806,-0.069025 0.106939,-0.017934 0.215134,-0.031626 0.323704,-0.04046 0.108584,-0.00888 0.21756,-0.011912 0.321326,-0.011912 h 1.121066 v -0.930119 z" />
  <path
     d="M 8,0 C 7.8620716,0 7.7241188,0.00284536 7.5878906,0.00976563 7.4516625,0.01668589 7.3179533,0.02734348 7.1835937,0.04101562 7.0492342,0.05468777 6.9155256,0.07154125 6.7832031,0.09179687 6.6508806,0.1120525 6.5187889,0.13543864 6.3886719,0.16210937 6.2585548,0.18878011 6.1296964,0.21903568 6.0019531,0.25195313 5.8742099,0.28487057 5.7482479,0.32037922 5.6230469,0.359375 5.4978458,0.39837078 5.3744436,0.44142241 5.2519531,0.48632813 5.1294627,0.53123384 5.0082834,0.57825898 4.8886719,0.62890625 4.7690604,0.67955352 4.6497673,0.73284206 4.5332031,0.7890625 4.416639,0.84528294 4.3028015,0.90517166 4.1894531,0.96679688 4.0761047,1.0284221 3.9634799,1.0932946 3.8535156,1.1601562 3.7435514,1.2270179 3.6357086,1.2952579 3.5292969,1.3671875 3.4228852,1.4391171 3.3175346,1.5130145 3.2148438,1.5898437 3.1121529,1.666673 3.012864,1.7465645 2.9140625,1.828125 2.815261,1.9096855 2.7177907,1.9939548 2.6230469,2.0800781 2.528303,2.1662014 2.4362209,2.2551854 2.3457031,2.3457031 2.2551854,2.4362209 2.1662014,2.528303 2.0800781,2.6230469 1.9939548,2.7177907 1.9096855,2.815261 1.828125,2.9140625 1.7465645,3.012864 1.666673,3.1121529 1.5898437,3.2148438 1.5130145,3.3175346 1.4391171,3.4228852 1.3671875,3.5292969 1.2952579,3.6357086 1.2270179,3.7435514 1.1601562,3.8535156 1.0932946,3.9634799 1.0284221,4.0761047 0.96679688,4.1894531 0.90517166,4.3028015 0.84528294,4.416639 0.7890625,4.5332031 0.73284206,4.6497673 0.67955352,4.7690604 0.62890625,4.8886719 0.57825898,5.0082834 0.53123384,5.1294627 0.48632813,5.2519531 0.44142241,5.3744436 0.39837078,5.4978458 0.359375,5.6230469 0.32037922,5.7482479 0.28487057,5.8742099 0.25195313,6.0019531 0.21903568,6.1296964 0.18878011,6.2585548 0.16210937,6.3886719 0.13543864,6.5187889 0.1120525,6.6508806 0.09179687,6.7832031 0.07154125,6.9155256 0.05468777,7.0492342 0.04101562,7.1835937 0.02734348,7.3179533 0.01668589,7.4516625 0.00976563,7.5878906 0.00284536,7.7241188 0,7.8620716 0,8 c 0,0.1379284 0.00284536,0.2758812 0.00976563,0.4121094 0.00692026,0.1362281 0.01757785,0.2699373 0.03124999,0.4042969 0.01367215,0.1343595 0.03052563,0.2680681 0.05078125,0.4003906 0.02025563,0.1323225 0.04364177,0.2644142 0.0703125,0.3945312 0.0266707,0.1301171 0.0569263,0.2589755 0.0898438,0.3867188 0.0329174,0.1277431 0.0684261,0.2537051 0.10742187,0.3789061 0.0389958,0.125201 0.0820474,0.248603 0.12695313,0.371094 0.0449057,0.12249 0.0919308,0.24367 0.14257812,0.363281 0.0506473,0.119612 0.10393581,0.238905 0.16015625,0.355469 0.0562204,0.116564 0.11610916,0.230401 0.17773438,0.34375 0.0616252,0.113348 0.12649772,0.225973 0.19335932,0.335937 0.066862,0.109965 0.1351017,0.217807 0.2070313,0.324219 0.07193,0.106412 0.145827,0.211762 0.2226562,0.314453 0.076829,0.102691 0.1567208,0.20198 0.2382813,0.300782 0.08156,0.0988 0.1658298,0.196271 0.2519531,0.291015 0.086123,0.09474 0.1751073,0.186826 0.265625,0.277344 0.090518,0.09052 0.1825999,0.179502 0.2773438,0.265625 0.094744,0.08612 0.1922141,0.170393 0.2910156,0.251953 0.098801,0.08156 0.1980904,0.161452 0.3007813,0.238281 0.1026908,0.07683 0.2080414,0.150727 0.3144531,0.222657 0.1064117,0.07193 0.2142545,0.140169 0.3242187,0.207031 0.1099643,0.06686 0.2225891,0.131734 0.3359375,0.193359 0.1133484,0.06162 0.2271859,0.121514 0.34375,0.177735 0.1165642,0.05622 0.2358573,0.109508 0.3554688,0.160156 0.1196115,0.05065 0.2407908,0.09767 0.3632812,0.142578 0.1224905,0.04491 0.2458927,0.08796 0.3710938,0.126953 0.125201,0.039 0.251163,0.0745 0.3789062,0.107422 0.1277433,0.03292 0.2566017,0.06317 0.3867188,0.08984 0.130117,0.02667 0.2622087,0.05006 0.3945312,0.07031 0.1323225,0.02026 0.2660311,0.03711 0.4003906,0.05078 0.1343596,0.01367 0.2680688,0.02433 0.4042969,0.03125 C 7.7241188,15.997155 7.8620716,16 8,16 c 0.1379284,0 0.2758812,-0.0028 0.4121094,-0.0098 0.1362281,-0.0069 0.2699373,-0.01758 0.4042969,-0.03125 0.1343595,-0.01367 0.2680681,-0.03052 0.4003906,-0.05078 0.1323225,-0.02026 0.2644142,-0.04364 0.3945312,-0.07031 0.1301171,-0.02667 0.2589755,-0.05693 0.3867188,-0.08984 0.1277431,-0.03292 0.2537051,-0.06843 0.3789061,-0.107422 0.125201,-0.039 0.248603,-0.08205 0.371094,-0.126953 0.12249,-0.04491 0.24367,-0.09193 0.363281,-0.142578 0.119612,-0.05065 0.238905,-0.103936 0.355469,-0.160156 0.116564,-0.05622 0.230401,-0.11611 0.34375,-0.177735 0.113348,-0.06163 0.225973,-0.126498 0.335937,-0.193359 0.109965,-0.06686 0.217807,-0.135102 0.324219,-0.207031 0.106412,-0.07193 0.211762,-0.145828 0.314453,-0.222657 0.102691,-0.07683 0.20198,-0.156721 0.300782,-0.238281 0.0988,-0.08156 0.196271,-0.16583 0.291015,-0.251953 0.09474,-0.08612 0.186826,-0.175107 0.277344,-0.265625 0.09052,-0.09052 0.179502,-0.1826 0.265625,-0.277344 0.08612,-0.09474 0.170393,-0.192214 0.251953,-0.291015 0.08156,-0.0988 0.161452,-0.198091 0.238281,-0.300782 0.07683,-0.102691 0.150727,-0.208041 0.222657,-0.314453 0.07193,-0.106412 0.140169,-0.214254 0.207031,-0.324219 0.06686,-0.109964 0.131734,-0.222589 0.193359,-0.335937 0.06162,-0.113349 0.121514,-0.227186 0.177735,-0.34375 0.05622,-0.116564 0.109508,-0.235857 0.160156,-0.355469 0.05065,-0.119611 0.09767,-0.240791 0.142578,-0.363281 0.04491,-0.122491 0.08796,-0.245893 0.126953,-0.371094 0.039,-0.125201 0.0745,-0.251163 0.107422,-0.3789061 0.03292,-0.1277433 0.06317,-0.2566017 0.08984,-0.3867188 0.02667,-0.130117 0.05006,-0.2622087 0.07031,-0.3945312 0.02026,-0.1323225 0.03711,-0.2660311 0.05078,-0.4003906 0.01367,-0.1343596 0.02433,-0.2680688 0.03125,-0.4042969 C 15.997155,8.2758812 16,8.1379284 16,8 16,7.8620716 15.997155,7.7241188 15.990234,7.5878906 15.983314,7.4516625 15.972657,7.3179533 15.958984,7.1835937 15.945312,7.0492342 15.928459,6.9155256 15.908203,6.7832031 15.887947,6.6508806 15.864561,6.5187889 15.837891,6.3886719 15.81122,6.2585548 15.780964,6.1296964 15.748047,6.0019531 15.715129,5.8742099 15.679621,5.7482479 15.640625,5.6230469 15.601629,5.4978458 15.558578,5.3744436 15.513672,5.2519531 15.468766,5.1294627 15.421741,5.0082834 15.371094,4.8886719 15.320446,4.7690604 15.267158,4.6497673 15.210938,4.5332031 15.154717,4.416639 15.094828,4.3028015 15.033203,4.1894531 14.971578,4.0761047 14.906705,3.9634799 14.839844,3.8535156 14.772982,3.7435514 14.704742,3.6357086 14.632813,3.5292969 14.560883,3.4228852 14.486985,3.3175346 14.410156,3.2148438 14.333327,3.1121529 14.253435,3.012864 14.171875,2.9140625 14.090315,2.815261 14.006045,2.7177907 13.919922,2.6230469 13.833799,2.528303 13.744815,2.4362209 13.654297,2.3457031 13.563779,2.2551854 13.471697,2.1662014 13.376953,2.0800781 13.282209,1.9939548 13.184739,1.9096855 13.085938,1.828125 12.987136,1.7465645 12.887847,1.666673 12.785156,1.5898437 12.682465,1.5130145 12.577115,1.4391171 12.470703,1.3671875 12.364291,1.2952579 12.256449,1.2270179 12.146484,1.1601562 12.03652,1.0932946 11.923895,1.0284221 11.810547,0.96679688 11.697198,0.90517166 11.583361,0.84528294 11.466797,0.7890625 11.350233,0.73284206 11.23094,0.67955352 11.111328,0.62890625 10.991717,0.57825898 10.870537,0.53123384 10.748047,0.48632813 10.625556,0.44142241 10.502154,0.39837078 10.376953,0.359375 10.251752,0.32037922 10.12579,0.28487057 9.9980469,0.25195313 9.8703036,0.21903568 9.7414452,0.18878011 9.6113281,0.16210937 9.4812111,0.13543864 9.3491194,0.1120525 9.2167969,0.09179687 9.0844744,0.07154125 8.9507658,0.05468777 8.8164063,0.04101562 8.6820467,0.02734348 8.5483375,0.01668589 8.4121094,0.00976563 8.2758812,0.00284536 8.1379284,0 8,0 Z m 0,0.76171875 c 0.1250713,0 0.2495487,0.00352 0.3730469,0.009766 0.1234982,0.006246 0.245413,0.0150025 0.3671875,0.0273438 0.1217744,0.0123412 0.2433812,0.0266362 0.3632812,0.0449219 0.1199,0.0182856 0.239547,0.0403739 0.3574219,0.0644531 0.1178749,0.0240792 0.2339103,0.0503561 0.3496094,0.0800781 0.1156991,0.029722 0.2303771,0.0624422 0.3437501,0.0976563 0.113373,0.035214 0.225042,0.072726 0.335937,0.1132812 0.110896,0.040555 0.221811,0.085114 0.330079,0.1308594 0.108267,0.045746 0.214823,0.093746 0.320312,0.1445313 0.105489,0.050785 0.207987,0.1044825 0.310547,0.1601562 0.10256,0.055674 0.205207,0.1134165 0.304687,0.1738281 0.09948,0.060412 0.196719,0.1225012 0.292969,0.1875 0.09625,0.064999 0.190334,0.1317368 0.283203,0.2011719 0.09287,0.069435 0.184101,0.1411231 0.273438,0.2148438 0.08934,0.073721 0.178017,0.1506603 0.263672,0.2285156 0.08565,0.077855 0.168178,0.156442 0.25,0.2382813 0.08182,0.081839 0.162396,0.1662808 0.240234,0.2519531 0.07784,0.085672 0.152859,0.1743173 0.226563,0.2636719 0.0737,0.089354 0.145425,0.1805515 0.214843,0.2734375 0.06942,0.092886 0.138143,0.1869364 0.203125,0.2832031 0.06498,0.096267 0.127105,0.1934722 0.1875,0.2929687 0.0604,0.099496 0.11817,0.2001589 0.173828,0.3027344 0.05566,0.1025755 0.109386,0.2069963 0.160157,0.3125 0.05077,0.1055037 0.0988,0.2120314 0.144531,0.3203125 0.04573,0.1082811 0.08836,0.2191704 0.128906,0.3300781 0.04054,0.1109078 0.07808,0.222554 0.113281,0.3359375 0.0352,0.1133836 0.06794,0.2280415 0.09766,0.34375 0.02971,0.1157085 0.05796,0.2317267 0.08203,0.3496094 0.02407,0.1178827 0.04422,0.2375158 0.0625,0.3574219 0.01828,0.119906 0.03454,0.2415026 0.04687,0.3632812 0.01234,0.1217786 0.0211,0.2436872 0.02734,0.3671875 0.0062,0.1235004 0.0098,0.2479756 0.0098,0.3730469 0,0.1250713 -0.0035,0.2495465 -0.0098,0.3730469 -0.0062,0.1235003 -0.01501,0.2454089 -0.02734,0.3671875 -0.01234,0.1217786 -0.0286,0.2433752 -0.04687,0.3632812 -0.01828,0.1199061 -0.03843,0.2395392 -0.0625,0.3574219 -0.02407,0.1178827 -0.05232,0.2339009 -0.08203,0.3496094 -0.02971,0.1157085 -0.06245,0.2303661 -0.09766,0.3437501 -0.0352,0.113383 -0.07274,0.22503 -0.113281,0.335937 -0.04054,0.110908 -0.08317,0.221797 -0.128906,0.330079 -0.04573,0.108281 -0.09376,0.214808 -0.144531,0.320312 -0.05077,0.105504 -0.104498,0.209924 -0.160157,0.3125 -0.05566,0.102576 -0.113432,0.203238 -0.173828,0.302734 -0.06039,0.0995 -0.122518,0.196702 -0.1875,0.292969 -0.06498,0.09627 -0.133707,0.190317 -0.203125,0.283203 -0.06942,0.09289 -0.14114,0.184083 -0.214843,0.273438 -0.0737,0.08935 -0.148725,0.177999 -0.226563,0.263672 -0.07784,0.08567 -0.158413,0.170114 -0.240234,0.251953 -0.08182,0.08184 -0.164346,0.160426 -0.25,0.238281 -0.08566,0.07785 -0.174335,0.154795 -0.263672,0.228516 -0.08934,0.07372 -0.180569,0.145408 -0.273438,0.214843 -0.09287,0.06944 -0.186953,0.136173 -0.283203,0.201172 -0.09625,0.065 -0.193488,0.127089 -0.292969,0.1875 -0.09948,0.06041 -0.202127,0.118155 -0.304687,0.173828 -0.10256,0.05567 -0.205058,0.109372 -0.310547,0.160157 -0.105489,0.05078 -0.212045,0.09878 -0.320312,0.144531 -0.108268,0.04575 -0.219183,0.0903 -0.330079,0.130859 -0.110895,0.04055 -0.222564,0.07807 -0.335937,0.113282 -0.113373,0.03521 -0.228051,0.06793 -0.3437501,0.09766 -0.1156991,0.02972 -0.2317345,0.056 -0.3496094,0.08008 -0.1178749,0.02408 -0.2375219,0.04617 -0.3574219,0.06445 -0.1199,0.01829 -0.2415068,0.03258 -0.3632812,0.04492 -0.1217745,0.01234 -0.2436893,0.0211 -0.3671875,0.02734 -0.1234982,0.0062 -0.2479756,0.0098 -0.3730469,0.0098 -0.1250713,0 -0.2495487,-0.0035 -0.3730469,-0.0098 -0.1234982,-0.0062 -0.245413,-0.015 -0.3671875,-0.02734 -0.1217744,-0.01234 -0.2433812,-0.02664 -0.3632812,-0.04492 -0.1199,-0.01829 -0.239547,-0.04037 -0.3574219,-0.06445 -0.1178749,-0.02408 -0.2339103,-0.05036 -0.3496094,-0.08008 -0.1156991,-0.02972 -0.2303773,-0.06244 -0.34375,-0.09766 C 5.7323305,14.878849 5.6206612,14.841336 5.5097656,14.800781 5.3988701,14.760226 5.2879552,14.715667 5.1796875,14.669922 5.0714198,14.624176 4.9648643,14.576176 4.859375,14.525391 4.7538857,14.474606 4.6513883,14.420908 4.5488281,14.365234 4.446268,14.309561 4.343621,14.251818 4.2441406,14.191406 4.1446603,14.130995 4.0474218,14.068905 3.9511719,14.003906 3.854922,13.938907 3.7608375,13.872169 3.6679688,13.802734 3.5751,13.733299 3.4838682,13.661611 3.3945313,13.587891 3.3051943,13.51417 3.2165139,13.43723 3.1308594,13.359375 3.0452049,13.28152 2.9626807,13.202933 2.8808594,13.121094 2.799038,13.039255 2.7184625,12.954813 2.640625,12.869141 2.5627875,12.783468 2.4877656,12.694823 2.4140625,12.605469 2.3403594,12.516114 2.2686366,12.424917 2.1992188,12.332031 2.1298009,12.239145 2.0610758,12.145095 1.9960937,12.048828 1.9311117,11.952561 1.8689893,11.855356 1.8085937,11.755859 1.7481982,11.656363 1.6904241,11.555701 1.6347656,11.453125 1.5791072,11.350549 1.52538,11.246129 1.4746094,11.140625 1.4238388,11.035121 1.3758102,10.928594 1.3300781,10.820313 1.284346,10.712031 1.2417148,10.601142 1.2011719,10.490234 1.1606289,10.379327 1.1230937,10.26768 1.0878906,10.154297 1.0526875,10.040913 1.019947,9.9262554 0.99023438,9.8105469 0.96052179,9.6948384 0.93227453,9.5788202 0.90820313,9.4609375 0.88413172,9.3430548 0.86398268,9.2234217 0.84570313,9.1035156 0.82742357,8.9836096 0.81116517,8.862013 0.79882812,8.7402344 0.78649108,8.6184558 0.77772823,8.4965472 0.77148437,8.3730469 0.76524052,8.2495465 0.76171875,8.1250713 0.76171875,8 c 0,-0.1250713 0.003522,-0.2495465 0.009766,-0.3730469 0.006244,-0.1235003 0.0150067,-0.2454089 0.0273438,-0.3671875 0.012337,-0.1217786 0.0285954,-0.2433752 0.046875,-0.3632812 0.0182796,-0.1199061 0.0384286,-0.2395392 0.0625,-0.3574219 C 0.93227453,6.4211798 0.96052179,6.3051616 0.99023438,6.1894531 1.019947,6.0737446 1.0526875,5.9590867 1.0878906,5.8457031 1.1230937,5.7323196 1.1606289,5.6206734 1.2011719,5.5097656 1.2417148,5.3988579 1.284346,5.2879686 1.3300781,5.1796875 1.3758102,5.0714064 1.4238388,4.9648787 1.4746094,4.859375 1.52538,4.7538713 1.5791072,4.6494505 1.6347656,4.546875 1.6904241,4.4442995 1.7481982,4.3436371 1.8085937,4.2441406 1.8689893,4.1446441 1.9311117,4.0474385 1.9960937,3.9511719 2.0610758,3.8549052 2.1298009,3.7608547 2.1992188,3.6679688 2.2686366,3.5750828 2.3403594,3.4838858 2.4140625,3.3945313 2.4877656,3.3051767 2.5627875,3.2165317 2.640625,3.1308594 2.7184625,3.0451871 2.799038,2.9607455 2.8808594,2.8789063 2.9626807,2.797067 3.0452049,2.7184803 3.1308594,2.640625 3.2165139,2.5627697 3.3051943,2.48583 3.3945313,2.4121094 3.4838682,2.3383887 3.5751,2.2667008 3.6679688,2.1972656 3.7608375,2.1278305 3.854922,2.0610926 3.9511719,1.9960937 4.0474218,1.9310949 4.1446603,1.8690054 4.2441406,1.8085937 4.343621,1.7481821 4.446268,1.6904394 4.5488281,1.6347656 4.6513883,1.5790919 4.7538857,1.5253944 4.859375,1.4746094 4.9648643,1.4238243 5.0714198,1.3758236 5.1796875,1.3300781 5.2879552,1.2843326 5.3988701,1.2397739 5.5097656,1.1992187 5.6206612,1.1586636 5.7323305,1.1211515 5.8457031,1.0859375 5.9590758,1.0507235 6.073754,1.0180032 6.1894531,0.98828125 6.3051522,0.95855925 6.4211876,0.93228234 6.5390625,0.90820313 6.6569374,0.88412391 6.7765844,0.86203563 6.8964844,0.84375 7.0163844,0.82546437 7.1379912,0.81116935 7.2597656,0.79882812 7.3815401,0.7864869 7.5034549,0.77773039 7.6269531,0.77148437 7.7504513,0.76523836 7.8749287,0.76171875 8,0.76171875 Z"
     style="fill:url(#oomox);stroke-width:1.14285"
     id="path25"
     class="ColorScheme-Text" />
  <metadata
     id="metadata24">
    <rdf:RDF>
      <cc:Work
         rdf:about="">
        <cc:license
           rdf:resource="http://creativecommons.org/licenses/by-sa/4.0/" />
        <dc:creator>
          <cc:Agent>
            <dc:title>dreifacherspass</dc:title>
          </cc:Agent>
        </dc:creator>
      </cc:Work>
      <cc:License
         rdf:about="http://creativecommons.org/licenses/by-sa/4.0/">
        <cc:permits
           rdf:resource="http://creativecommons.org/ns#Reproduction" />
        <cc:permits
           rdf:resource="http://creativecommons.org/ns#Distribution" />
        <cc:requires
           rdf:resource="http://creativecommons.org/ns#Notice" />
        <cc:requires
           rdf:resource="http://creativecommons.org/ns#Attribution" />
        <cc:permits
           rdf:resource="http://creativecommons.org/ns#DerivativeWorks" />
        <cc:requires
           rdf:resource="http://creativecommons.org/ns#ShareAlike" />
      </cc:License>
    </rdf:RDF>
  </metadata>
</svg>
