<?xml version="1.0" encoding="UTF-8" standalone="no"?>
<!-- Created with Inkscape (http://www.inkscape.org/) -->

<svg
   width="16"
   height="16"
   viewBox="0 0 8.4666675 8.4666667"
   version="1.1"
   id="svg8"
   xmlns:xlink="http://www.w3.org/1999/xlink"
   xmlns="http://www.w3.org/2000/svg"
   xmlns:svg="http://www.w3.org/2000/svg"
   xmlns:rdf="http://www.w3.org/1999/02/22-rdf-syntax-ns#"
   xmlns:cc="http://creativecommons.org/ns#"
   xmlns:dc="http://purl.org/dc/elements/1.1/">
    <defs>
   <style id="current-color-scheme" type="text/css">
   .ColorScheme-Text { color: #0abdc6; } .ColorScheme-Highlight { color:#5294e2; }
  </style>
  <linearGradient id="arrongin" x1="0%" x2="0%" y1="0%" y2="100%">
   <stop offset="0%" style="stop-color:#dd9b44; stop-opacity:1"/>
   <stop offset="100%" style="stop-color:#ad6c16; stop-opacity:1"/>
  </linearGradient>
  <linearGradient id="aurora" x1="0%" x2="0%" y1="0%" y2="100%">
   <stop offset="0%" style="stop-color:#09D4DF; stop-opacity:1"/>
   <stop offset="100%" style="stop-color:#9269F4; stop-opacity:1"/>
  </linearGradient>
  <linearGradient id="cyberneon" x1="0%" x2="0%" y1="0%" y2="100%">
    <stop offset="0" style="stop-color:#0abdc6; stop-opacity:1"/>
    <stop offset="1" style="stop-color:#ea00d9; stop-opacity:1"/>
  </linearGradient>
  <linearGradient id="fitdance" x1="0%" x2="0%" y1="0%" y2="100%">
   <stop offset="0%" style="stop-color:#1AD6AB; stop-opacity:1"/>
   <stop offset="100%" style="stop-color:#329DB6; stop-opacity:1"/>
  </linearGradient>
  <linearGradient id="oomox" x1="0%" x2="0%" y1="0%" y2="100%">
   <stop offset="0%" style="stop-color:#0abdc6; stop-opacity:1"/>
   <stop offset="100%" style="stop-color:#b800ff; stop-opacity:1"/>
  </linearGradient>
  <linearGradient id="rainblue" x1="0%" x2="0%" y1="0%" y2="100%">
   <stop offset="0%" style="stop-color:#00F260; stop-opacity:1"/>
   <stop offset="100%" style="stop-color:#0575E6; stop-opacity:1"/>
  </linearGradient>
  <linearGradient id="sunrise" x1="0%" x2="0%" y1="0%" y2="100%">
   <stop offset="0%" style="stop-color: #FF8501; stop-opacity:1"/>
   <stop offset="100%" style="stop-color: #FFCB01; stop-opacity:1"/>
  </linearGradient>
  <linearGradient id="telinkrin" x1="0%" x2="0%" y1="0%" y2="100%">
   <stop offset="0%" style="stop-color: #b2ced6; stop-opacity:1"/>
   <stop offset="100%" style="stop-color: #6da5b7; stop-opacity:1"/>
  </linearGradient>
  <linearGradient id="60spsycho" x1="0%" x2="0%" y1="0%" y2="100%">
   <stop offset="0%" style="stop-color: #df5940; stop-opacity:1"/>
   <stop offset="25%" style="stop-color: #d8d15f; stop-opacity:1"/>
   <stop offset="50%" style="stop-color: #e9882a; stop-opacity:1"/>
   <stop offset="100%" style="stop-color: #279362; stop-opacity:1"/>
  </linearGradient>
  <linearGradient id="90ssummer" x1="0%" x2="0%" y1="0%" y2="100%">
   <stop offset="0%" style="stop-color: #f618c7; stop-opacity:1"/>
   <stop offset="20%" style="stop-color: #94ffab; stop-opacity:1"/>
   <stop offset="50%" style="stop-color: #fbfd54; stop-opacity:1"/>
   <stop offset="100%" style="stop-color: #0f83ae; stop-opacity:1"/>
  </linearGradient>
 </defs>
  <path
     id="path3"
     style="opacity:1;fill:url(#oomox);stroke:url(#oomox);stroke-width:0.155171;stroke-dasharray:none;stroke-opacity:1"
     class="ColorScheme-Text"
     d="M 1.3290162,2.6817026 0.11370568,5.785139 H 0.69256933 L 1.0400896,4.8880519 H 2.0634557 L 2.4150169,5.785139 h 0.066676 0.5192598 L 1.791703,2.6817026 Z m 2.0406711,0.013134 V 5.78514 h 0.9071894 c 0.4958317,0 0.897071,-0.12916 1.1850036,-0.3950011 C 5.754544,5.1197193 5.898301,4.7197028 5.898301,4.2122059 5.898301,3.8889198 5.8374457,3.6120402 5.7103977,3.3858351 5.5846254,3.1589941 5.4032943,2.9830465 5.1719434,2.8665752 4.9410386,2.750328 4.6707345,2.6948356 4.3647671,2.6948356 Z m 3.1842552,0 V 5.7851395 H 6.6509245 8.389536 V 5.2699201 H 7.1156322 V 2.6948356 Z M 1.3946814,2.778685 H 1.7260378 L 2.8605297,5.6901771 H 2.4806821 L 2.1301311,4.79309 H 0.9744244 L 0.62690416,5.6901771 H 0.25513834 Z m 2.070978,0.012123 h 0.8980974 c 0.2940573,0 0.5486383,0.054358 0.7637363,0.1626476 0.2150973,0.1082887 0.3809666,0.2676866 0.4980451,0.4788505 0.1170783,0.2084562 0.1757805,0.4685687 0.1757805,0.7799 0,0.4900079 -0.1345403,0.859161 -0.4040933,1.1082258 C 5.1303954,5.5667892 4.7570912,5.6901771 4.277887,5.6901771 H 3.4656594 Z m 3.1852655,0 H 7.0186497 V 5.364882 H 8.2925538 V 5.6901771 H 6.6509249 Z M 3.8333844,3.10297 v 2.274035 h 0.3960114 c 0.7895985,0 1.1839933,-0.3838229 1.1839933,-1.1526761 0,-0.3871335 -0.096622,-0.6699194 -0.2899369,-0.8485959 C 4.9328592,3.1943488 4.6624594,3.1029698 4.3112246,3.1029698 Z M 1.5542982,3.1565129 C 1.5352401,3.2404364 1.513135,3.3228034 1.4886336,3.40402 1.4641313,3.4825292 1.4433472,3.5448902 1.4270093,3.5909132 L 1.0966626,4.4677949 H 2.0200158 L 1.6927002,3.5909125 C 1.6845351,3.5692562 1.6713497,3.5295686 1.6522908,3.4727152 1.6332321,3.4158645 1.6137663,3.3575048 1.5947075,3.2979449 1.57837,3.2356815 1.5651853,3.1890018 1.5542982,3.1565129 Z m 2.3750584,0.042429 h 0.381868 c 0.3345324,0 0.5773554,0.084456 0.7465625,0.2454866 v 0.00202 C 5.2256525,3.6016062 5.317417,3.853074 5.317417,4.2243314 c 0,0.3681008 -0.093285,0.6262183 -0.2677118,0.7960637 C 4.8752774,5.1902484 4.6084477,5.2810353 4.2293958,5.2810353 H 3.9293566 Z M 1.5583391,3.4989814 c 4.345e-4,0.00126 0.00153,0.00278 0.00202,0.00404 0.019208,0.057286 0.032176,0.095697 0.04142,0.1202177 L 1.8795905,4.3708162 H 1.2360719 L 1.5189371,3.6232435 v -0.00101 c 0.011043,-0.031123 0.025168,-0.079124 0.039399,-0.1232484 z" />
  <metadata
     id="metadata5">
    <rdf:RDF>
      <cc:Work
         rdf:about="">
        <dc:format>image/svg+xml</dc:format>
        <dc:type
           rdf:resource="http://purl.org/dc/dcmitype/StillImage" />
        <dc:creator>
          <cc:Agent>
            <dc:title>dreifacherspass</dc:title>
          </cc:Agent>
        </dc:creator>
        <cc:license
           rdf:resource="http://creativecommons.org/licenses/by-sa/4.0/" />
      </cc:Work>
      <cc:License
         rdf:about="http://creativecommons.org/licenses/by-sa/4.0/">
        <cc:permits
           rdf:resource="http://creativecommons.org/ns#Reproduction" />
        <cc:permits
           rdf:resource="http://creativecommons.org/ns#Distribution" />
        <cc:requires
           rdf:resource="http://creativecommons.org/ns#Notice" />
        <cc:requires
           rdf:resource="http://creativecommons.org/ns#Attribution" />
        <cc:permits
           rdf:resource="http://creativecommons.org/ns#DerivativeWorks" />
        <cc:requires
           rdf:resource="http://creativecommons.org/ns#ShareAlike" />
      </cc:License>
    </rdf:RDF>
  </metadata>
</svg>
