<?xml version="1.0" encoding="UTF-8" standalone="no"?>
<svg
   version="1.0"
   width="16"
   height="16"
   viewBox="0 0 160 160"
   preserveAspectRatio="xMidYMid"
   id="svg2051"
   xmlns="http://www.w3.org/2000/svg"
   xmlns:svg="http://www.w3.org/2000/svg"
   xmlns:rdf="http://www.w3.org/1999/02/22-rdf-syntax-ns#"
   xmlns:cc="http://creativecommons.org/ns#"
   xmlns:dc="http://purl.org/dc/elements/1.1/">
  <defs>
   <style id="current-color-scheme" type="text/css">
   .ColorScheme-Text { color: #0abdc6; } .ColorScheme-Highlight { color:#5294e2; }
  </style>
  <linearGradient id="arrongin" x1="0%" x2="0%" y1="0%" y2="100%">
   <stop offset="0%" style="stop-color:#dd9b44; stop-opacity:1"/>
   <stop offset="100%" style="stop-color:#ad6c16; stop-opacity:1"/>
  </linearGradient>
  <linearGradient id="aurora" x1="0%" x2="0%" y1="0%" y2="100%">
   <stop offset="0%" style="stop-color:#09D4DF; stop-opacity:1"/>
   <stop offset="100%" style="stop-color:#9269F4; stop-opacity:1"/>
  </linearGradient>
  <linearGradient id="cyberneon" x1="0%" x2="0%" y1="0%" y2="100%">
    <stop offset="0" style="stop-color:#0abdc6; stop-opacity:1"/>
    <stop offset="1" style="stop-color:#ea00d9; stop-opacity:1"/>
  </linearGradient>
  <linearGradient id="fitdance" x1="0%" x2="0%" y1="0%" y2="100%">
   <stop offset="0%" style="stop-color:#1AD6AB; stop-opacity:1"/>
   <stop offset="100%" style="stop-color:#329DB6; stop-opacity:1"/>
  </linearGradient>
  <linearGradient id="oomox" x1="0%" x2="0%" y1="0%" y2="100%">
   <stop offset="0%" style="stop-color:#0abdc6; stop-opacity:1"/>
   <stop offset="100%" style="stop-color:#b800ff; stop-opacity:1"/>
  </linearGradient>
  <linearGradient id="rainblue" x1="0%" x2="0%" y1="0%" y2="100%">
   <stop offset="0%" style="stop-color:#00F260; stop-opacity:1"/>
   <stop offset="100%" style="stop-color:#0575E6; stop-opacity:1"/>
  </linearGradient>
  <linearGradient id="sunrise" x1="0%" x2="0%" y1="0%" y2="100%">
   <stop offset="0%" style="stop-color: #FF8501; stop-opacity:1"/>
   <stop offset="100%" style="stop-color: #FFCB01; stop-opacity:1"/>
  </linearGradient>
  <linearGradient id="telinkrin" x1="0%" x2="0%" y1="0%" y2="100%">
   <stop offset="0%" style="stop-color: #b2ced6; stop-opacity:1"/>
   <stop offset="100%" style="stop-color: #6da5b7; stop-opacity:1"/>
  </linearGradient>
  <linearGradient id="60spsycho" x1="0%" x2="0%" y1="0%" y2="100%">
   <stop offset="0%" style="stop-color: #df5940; stop-opacity:1"/>
   <stop offset="25%" style="stop-color: #d8d15f; stop-opacity:1"/>
   <stop offset="50%" style="stop-color: #e9882a; stop-opacity:1"/>
   <stop offset="100%" style="stop-color: #279362; stop-opacity:1"/>
  </linearGradient>
  <linearGradient id="90ssummer" x1="0%" x2="0%" y1="0%" y2="100%">
   <stop offset="0%" style="stop-color: #f618c7; stop-opacity:1"/>
   <stop offset="20%" style="stop-color: #94ffab; stop-opacity:1"/>
   <stop offset="50%" style="stop-color: #fbfd54; stop-opacity:1"/>
   <stop offset="100%" style="stop-color: #0f83ae; stop-opacity:1"/>
  </linearGradient>
 </defs>
  <path
     d="m 55.464493,135.90975 c -0.101331,-0.15012 -1.317249,-0.30025 -2.702049,-0.30025 -1.384797,0 -2.600718,-0.12011 -2.702042,-0.30025 -0.101328,-0.15011 -1.317249,-0.30024 -2.702045,-0.30024 -1.384797,0 -2.600718,-0.12009 -2.702045,-0.30025 -0.101328,-0.15011 -1.317246,-0.30024 -2.702046,-0.30024 -1.384797,0 -2.600718,-0.12009 -2.702045,-0.30025 -0.101328,-0.15012 -0.911939,-0.30024 -1.790104,-0.30024 -1.384796,0 -2.938473,-0.60049 -11.618793,-4.44362 l -9.997565,-4.47366 -3.242455,-2.91238 c -1.790105,-1.62132 -3.2424541,-3.06249 -3.2424541,-3.21262 0,-0.15012 -1.5198999,-1.62132 -3.3775554,-3.27267 -2.3980661,-2.16176 -3.3775583,-3.24264 -3.3775583,-3.75306 0,-0.39032 -0.1688766,-0.81066 -0.3377532,-0.90074 -0.2026545,-0.0901 -0.3377559,-0.90073 -0.3377559,-1.80146 0,-0.90074 -0.1351038,-1.7114 -0.3377557,-1.80148 -0.1688792,-0.0901 -0.3377559,-0.78063 -0.3377559,-1.50122 0,-0.72059 -0.1351037,-1.41115 -0.33775576,-1.50123 -0.16887912,-0.0901 -0.33775583,-0.90073 -0.33775583,-1.80147 0,-0.90073 -0.13510134,-1.71139 -0.33775579,-1.80147 C 0.03879368,100.51085 0.00277,98.615244 0.00277,96.82513 c 0,-1.790114 0.09547125,-3.126732 0.23867812,-3.222205 0.14320688,-0.09548 0.23867813,-2.100401 0.23867813,-5.250999 0,-3.150602 0.0954713,-5.155532 0.23867812,-5.251003 0.14320688,-0.09548 0.23867813,-1.265013 0.23867813,-2.744839 0,-2.172008 0.0716035,-2.744842 0.4773562,-3.46089 0.262546,-0.477362 0.4773563,-1.002464 0.4773563,-1.169539 0,-0.190945 0.3341493,-0.954728 0.7160344,-1.694641 0.4057529,-0.739914 0.3034147,-1.503462 0.3034147,-1.694408 0,-0.167078 0.2148102,-0.69218 0.4773561,-1.169542 0.2625464,-0.477363 0.4773563,-1.002465 0.4773563,-1.19341 0,-0.190944 0.2148104,-0.716046 0.4773563,-1.193409 0.2625462,-0.477362 0.4773562,-1.002464 0.4773562,-1.169539 0,-0.190949 0.3341496,-0.954728 0.7160344,-1.694642 0.4057529,-0.739913 0.7160343,-1.503697 0.7160343,-1.670775 0,-0.835386 1.5752758,-3.150599 3.2460227,-4.773638 1.0024476,-0.978594 1.9094256,-1.790113 2.0287646,-1.790113 0.119338,0 1.837821,-1.599169 3.794981,-3.580228 1.98103,-1.957189 3.699511,-3.580228 3.842718,-3.580228 0.119339,0 1.002449,-0.76378 1.909426,-1.694641 1.384332,-1.408222 2.171971,-1.95719 4.463281,-3.102863 1.503672,-0.78765 2.888005,-1.408224 3.031212,-1.408224 0.167074,0 1.121787,-0.429626 2.148103,-0.954728 1.026316,-0.525099 1.981029,-0.954725 2.148104,-0.954725 0.143205,0 1.336597,-0.548968 2.625458,-1.193409 1.288862,-0.668311 2.482251,-1.19341 2.625459,-1.19341 0.167076,0 1.121787,-0.429629 2.148104,-0.954728 1.026314,-0.525101 1.981029,-0.954727 2.148104,-0.954727 0.143205,0 1.336598,-0.548969 2.625459,-1.19341 2.291309,-1.16954 2.386781,-1.19341 4.439412,-1.19341 1.145656,0 2.17197,-0.09548 2.243576,-0.238681 0.09547,-0.143209 1.790083,-0.238681 4.296203,-0.238681 2.50612,0 4.200739,-0.09547 4.296207,-0.238684 0.09548,-0.143209 1.694615,-0.238682 4.03366,-0.238682 2.243575,0 3.96206,-0.09548 4.105265,-0.238681 0.143206,-0.143209 -25.857327,-0.261265 -12.658426,-0.285131 l 20.526321,-0.07161 0.07161,-0.596705 c 0.143205,-1.121804 2.267442,-5.083924 3.222154,-6.014783 0.525091,-0.501233 1.026316,-0.906992 1.145655,-0.906992 0.119339,0 0.668298,-0.429627 1.193393,-0.954727 0.572824,-0.548969 1.217255,-0.954728 1.551405,-0.954728 0.286414,0 0.620564,-0.11934 0.692167,-0.238681 0.07161,-0.143209 0.716033,-0.238682 1.43207,-0.238682 0.716034,0 1.360464,-0.09547 1.432067,-0.238682 0.07159,-0.119336 0.453481,-0.238677 0.835368,-0.238677 0.548958,0 1.169523,0.501232 3.198286,2.482291 2.506121,2.482292 3.484699,3.795042 3.484699,4.678165 0,0.238682 0.119339,0.5251 0.238677,0.596705 0.143209,0.0716 0.238681,0.405759 0.238681,0.716045 0,0.310286 0.09547,0.64444 0.238678,0.716046 0.143205,0.07161 0.238678,0.358023 0.238678,0.620574 0,0.859253 0.572828,1.16954 2.148103,1.16954 1.217259,0 1.551406,-0.09548 2.028765,-0.596704 0.334152,-0.310288 0.596692,-0.668311 0.596692,-0.81152 0,-0.38189 5.39412,-5.704496 6.32497,-6.229596 0.45349,-0.26255 1.16953,-0.477364 1.55141,-0.477364 0.38188,0 0.76377,-0.119341 0.83537,-0.238681 0.0716,-0.14321 0.40575,-0.238682 0.71604,-0.238682 0.31028,0 0.64443,-0.119341 0.71603,-0.238682 0.0716,-0.143209 0.50123,-0.238682 0.95471,-0.238682 0.45349,0 0.88311,-0.09547 0.95472,-0.238682 0.31028,-0.501232 1.07404,-0.190946 2.12423,0.859255 0.5967,0.596704 1.09792,1.193409 1.09792,1.31275 0,0.119341 0.95472,1.193409 2.14811,2.386819 1.16952,1.169541 2.1481,2.267477 2.1481,2.38682 0,0.119339 0.38189,0.596705 0.83537,1.050197 0.73991,0.763783 0.93084,0.83539 2.24357,0.83539 0.78764,0 1.50368,0.09548 1.57528,0.23868 0.0955,0.143209 1.47981,0.238682 3.34149,0.238682 1.86169,0 3.24603,0.09548 3.3415,0.238681 0.0955,0.143209 1.47981,0.238682 3.34149,0.238682 1.86169,0 3.24602,0.09548 3.3415,0.238684 0.0955,0.143208 1.4798,0.238681 3.34149,0.238681 1.86169,0 3.24602,0.09548 3.3415,0.238682 0.0716,0.119342 0.93083,0.238681 1.90942,0.238681 0.97858,0 1.83782,0.119341 1.90942,0.23868 0.0716,0.143213 0.50123,0.238685 0.95471,0.238685 0.4535,0 0.88312,0.119339 0.95472,0.238682 0.0716,0.143208 0.40575,0.23868 0.71603,0.23868 0.31028,0 0.64443,0.09548 0.71604,0.238682 0.0716,0.119342 0.50122,0.238681 0.95472,0.238681 0.45348,0 0.8831,0.119343 0.9547,0.238685 0.0716,0.143209 0.40576,0.23868 0.71604,0.23868 0.31028,0 0.64443,0.119339 0.71603,0.238682 0.0716,0.143209 0.40576,0.238681 0.71604,0.238681 0.31028,0 0.64443,0.119343 0.71603,0.238682 0.0716,0.143212 0.45349,0.238684 0.81151,0.238684 0.35801,0 1.00244,0.167076 1.4082,0.38189 0.7399,0.358024 0.76377,0.429626 0.76377,1.885586 0,0.835386 0.11934,1.59917 0.23867,1.670772 0.14321,0.07161 0.23868,1.097937 0.23868,2.26748 0,1.169539 -0.0955,2.195874 -0.23868,2.267476 -0.11933,0.07161 -0.23867,0.501233 -0.23867,0.954728 0,0.453497 -0.0955,0.883123 -0.23868,0.954729 -0.11934,0.07161 -0.23868,0.620571 -0.23868,1.193409 0,0.572835 -0.0955,1.121803 -0.23867,1.19341 -0.11935,0.0716 -0.23869,0.501231 -0.23869,0.930857 0,0.40576 -0.0955,0.859257 -0.21481,1.002465 -0.11934,0.119343 -0.26254,0.477362 -0.31028,0.81152 -0.0477,0.453492 -0.23868,0.620571 -0.76377,0.668306 -0.38189,0.04774 -0.78763,-0.02386 -0.93084,-0.167074 -0.1432,-0.143213 -0.50123,-0.262552 -0.78764,-0.262552 -0.42962,0 -0.71604,-0.381892 -1.52754,-2.028794 -0.54896,-1.097937 -1.07405,-2.076536 -1.19339,-2.148138 -0.23868,-0.143208 -1.43207,0.906991 -1.43207,1.265012 0,0.119342 -0.28642,0.525102 -0.64443,0.906992 -0.38188,0.381889 -0.81151,0.978595 -0.97858,1.312751 -0.42962,0.835386 -1.19339,1.265013 -1.59915,0.930859 -0.19093,-0.143209 -0.93084,-1.503697 -1.69461,-3.007393 -0.7399,-1.503694 -1.43207,-2.720973 -1.52754,-2.720973 -0.28642,0 -2.1481,1.837851 -2.1481,2.124268 0,0.286421 -3.05509,3.365416 -3.3415,3.365416 -0.28641,0 -2.86414,-2.601633 -2.86414,-2.88805 0,-0.381891 -1.16952,-1.45596 -1.43207,-1.288882 -0.1432,0.0716 -0.45348,0.620571 -0.71602,1.19341 -0.26255,0.572835 -0.62057,1.169539 -0.78765,1.360483 -0.16707,0.16708 -0.47735,0.692182 -0.71603,1.169544 -0.90698,1.957192 -1.36046,1.790114 -2.72093,-0.930859 -0.47736,-1.026333 -1.02631,-2.076534 -1.21725,-2.386818 l -0.35802,-0.525102 -0.31029,0.620575 c -0.19093,0.334153 -0.33415,0.835385 -0.33415,1.074066 0,0.238681 -0.0955,0.501232 -0.23867,0.572839 -0.11935,0.07161 -0.23868,0.501232 -0.23868,0.954725 0,0.453495 -0.0955,0.883125 -0.23868,0.954727 -0.11934,0.07161 -0.23868,0.40576 -0.23868,0.716048 0,0.310287 -0.0955,0.64444 -0.23868,0.716043 -0.11933,0.07161 -0.23867,0.40576 -0.23867,0.716047 0,0.310287 -0.0955,0.644441 -0.23868,0.716047 -0.11934,0.0716 -0.23868,0.501231 -0.23868,0.930857 0,0.40576 -0.11934,0.883123 -0.26254,1.026332 -0.11935,0.119342 -0.21482,0.906991 -0.16708,1.766248 l 0.0716,1.527562 0.78764,0.07161 c 0.73991,0.0716 1.4798,-0.358023 1.4798,-0.859255 0,-0.119343 0.31029,-0.548969 0.71604,-0.954729 0.38188,-0.429626 0.71603,-0.859255 0.71603,-0.978594 0,-0.238682 1.19339,-1.455961 1.43207,-1.455961 0.0955,0 1.02632,1.670772 2.05263,3.723437 1.71848,3.46089 1.88556,3.69957 2.41065,3.556361 0.31029,-0.07161 0.90698,-0.453495 1.31273,-0.835389 0.40576,-0.405756 0.83537,-0.716043 0.93085,-0.716043 0.11934,0 0.76376,-0.548969 1.43206,-1.19341 0.66831,-0.668311 1.31273,-1.193408 1.43207,-1.193408 0.11935,0 0.54896,-0.334155 0.97859,-0.716048 0.40575,-0.40576 0.97857,-0.716043 1.24112,-0.716043 0.28641,0 0.64443,-0.119343 0.78764,-0.262552 0.33414,-0.334153 1.12179,0.143209 1.5514,0.954729 0.16708,0.334154 0.81151,1.121803 1.45594,1.766244 0.62057,0.644441 1.12179,1.312752 1.12179,1.503697 0,0.835385 1.21726,0.262551 2.93574,-1.408224 0.64443,-0.620572 1.265,-1.121803 1.38433,-1.121803 0.14321,0 0.47736,-0.214816 0.73991,-0.477367 0.28641,-0.262547 0.64443,-0.453492 0.78763,-0.405756 0.33416,0.119339 0.4535,1.837851 0.14322,2.148134 -0.14322,0.143209 -0.26255,1.0502 -0.26255,1.981062 0,0.954725 -0.0955,1.813981 -0.23869,1.885587 -0.11933,0.0716 -0.23867,0.835386 -0.23867,1.670772 0,0.835385 -0.0955,1.599169 -0.23868,1.670771 -0.11934,0.07161 -0.23867,0.930862 -0.23867,1.885587 0,0.930862 -0.0955,1.813984 -0.21481,1.957192 -0.11935,0.119343 -0.26256,0.596706 -0.31028,1.050201 l -0.0716,0.835386 -4.65423,0.07161 c -2.60159,0.02386 -4.74969,0.167075 -4.86903,0.286418 -0.14321,0.143208 -3.65178,0.238681 -9.09364,0.238681 -5.44186,0 -8.95043,0.09548 -9.09363,0.238681 -0.11934,0.119342 -2.21971,0.262551 -4.72583,0.28642 l -4.51101,0.07161 -1.05019,2.028795 c -0.57283,1.097937 -1.12179,2.076535 -1.24112,2.148137 -0.0955,0.07161 -0.45349,0.739914 -0.83537,1.503696 -0.35802,0.739914 -0.78765,1.503697 -0.93085,1.670772 -0.16708,0.14321 -0.71604,1.145674 -1.24113,2.195875 l -0.95472,1.909455 -2.31518,1.16954 c -1.28885,0.644441 -2.48224,1.097937 -2.69705,1.026334 -0.23868,-0.119342 -0.35802,-0.477365 -0.35802,-1.217278 0,-0.596706 -0.0955,-1.145674 -0.23868,-1.217276 -0.14321,-0.07161 -0.23867,-1.050201 -0.23867,-2.148138 0,-1.097937 -0.0955,-2.076531 -0.23869,-2.148138 -0.1432,-0.07161 -0.23867,-1.02633 -0.23867,-2.124267 0,-1.074071 -0.0955,-2.052665 -0.21481,-2.195874 -0.11935,-0.119342 -0.26255,-0.525102 -0.31028,-0.930858 -0.0716,-0.716047 -0.0716,-0.716047 -1.62301,-0.716047 h -1.551415 l -0.07161,1.193409 c -0.04774,0.66831 -0.167075,1.288882 -0.310283,1.408224 -0.11934,0.143209 -0.214809,1.551429 -0.214809,3.150599 0,1.694641 -0.09548,2.983523 -0.238678,3.078995 -0.119339,0.07161 -0.238677,0.835389 -0.238677,1.670775 0,1.455961 -0.02386,1.527564 -0.763773,1.885587 -0.40575,0.214815 -1.050184,0.38189 -1.4082,0.38189 -0.358017,0 -0.739901,0.119342 -0.811506,0.238681 -0.262545,0.40576 -1.432068,0.262552 -1.981029,-0.238681 -0.286414,-0.262551 -0.596694,-0.477363 -0.716033,-0.477363 -0.548959,0 -1.479804,-1.288881 -1.479804,-2.052664 0,-0.429627 -0.09548,-0.859256 -0.23868,-0.930859 -0.119339,-0.07161 -0.238678,-0.716046 -0.238678,-1.432091 0,-0.716046 -0.09547,-1.360488 -0.238678,-1.432093 -0.119339,-0.0716 -0.238678,-0.78765 -0.238678,-1.5753 0,-0.763783 -0.09547,-1.599168 -0.214807,-1.83785 -0.119343,-0.214815 -0.286414,-0.596704 -0.358021,-0.811519 -0.119339,-0.38189 -0.477355,-0.429626 -3.102814,-0.429626 -1.718481,0 -3.031213,0.09548 -3.126685,0.238681 -0.09547,0.143209 -2.744797,0.238681 -7.160343,0.238681 -4.415547,0 -6.652252,0.09524 -6.747722,0.23845 -0.09548,0.143208 -2.744801,0.238681 -7.160343,0.238681 -17.268901,3.46316 29.336735,-6.656123 14.999166,-0.09766 -0.596695,0.572838 -1.07405,1.169543 -1.07405,1.288886 0,0.119339 -0.327285,0.978359 -1.258129,1.909218 -0.906978,0.930861 -1.670748,1.790114 -1.670748,1.885589 0,0.119339 -0.190941,0.405756 -0.405753,0.668307 -0.238677,0.262551 -0.548958,0.692177 -0.692167,0.930859 -0.358016,0.668311 -1.527539,1.265015 -2.410647,1.288881 -0.405753,0.02386 -0.835372,0.143212 -0.906975,0.262551 -0.07161,0.143209 -0.33415,0.238682 -0.596698,0.238682 -0.310281,0 -0.7399,-0.620571 -1.527539,-2.21974 -0.596695,-1.19341 -1.09792,-2.315213 -1.09792,-2.482291 0,-0.334154 -0.978582,-2.243611 -1.360464,-2.6255 -0.477356,-0.501233 -0.548962,-0.358024 -0.548962,0.978594 0,0.716047 -0.09547,1.384355 -0.238678,1.45596 -0.119339,0.07161 -0.238678,1.050201 -0.238678,2.148138 0,1.097933 -0.09547,2.076531 -0.238678,2.148134 -0.119338,0.07161 -0.238677,0.334157 -0.238677,0.572839 0,1.050201 -0.692167,1.742378 -2.768667,2.792578 -1.145654,0.572834 -2.243574,1.050201 -2.386782,1.050201 -0.334147,0 -1.050184,-1.312753 -1.050184,-1.933326 0,-0.238682 -0.09547,-0.50123 -0.238677,-0.572835 -0.119339,-0.07161 -0.238678,-0.40576 -0.238678,-0.716048 0,-0.310283 -0.09547,-0.64444 -0.238678,-0.716043 -0.119339,-0.07161 -0.238678,-0.40576 -0.238678,-0.716047 0,-0.310287 -0.09548,-0.644441 -0.238677,-0.716043 -0.119339,-0.07161 -0.238678,-0.501233 -0.238678,-0.954729 0,-0.453496 -0.09548,-0.883122 -0.238678,-0.954728 -0.119339,-0.07161 -0.238677,-0.405759 -0.238677,-0.716046 0,-0.310285 -0.09548,-0.644442 -0.238682,-0.716045 -0.119339,-0.07161 -0.238678,-0.40576 -0.238678,-0.739913 0,-0.501232 -0.09547,-0.572838 -0.930845,-0.572838 -0.525092,0 -1.026313,0.119343 -1.097916,0.238682 -0.07161,0.143208 -0.405753,0.237397 -0.716037,0.237397 -0.31028,0 -0.644431,0.119339 -0.716033,0.238681 -0.0716,0.143209 -0.405753,0.238681 -0.716033,0.238681 -0.310285,0 -0.644431,0.119343 -0.716038,0.238682 -2.481181,1.395965 -3.906708,2.45985 -5.506619,3.722589 -1.828067,1.504868 -2.846044,3.185127 -3.810389,4.681433 -0.692167,1.40822 -1.384333,2.697102 -1.527542,2.864181 -0.596695,0.596704 9.291453,8.337181 9.291453,9.147841 2.221463,1.10039 3.136033,1.50934 4.308782,2.03876 1.450749,0.282 2.849509,1.07129 3.681539,1.69752 0.743062,0.66054 1.5199,1.20098 1.688776,1.20098 0.168879,0 1.047045,0.63051 1.958983,1.44117 0.911942,0.78064 2.060311,1.5913 2.566942,1.8315 0.506634,0.2402 0.911941,0.54044 0.911941,0.69056 0,0.1201 0.810614,0.2402 1.82388,0.2402 1.013269,0 1.958983,0.15012 2.060311,0.30024 0.135103,0.18015 1.857655,0.30025 4.053066,0.30025 2.195411,0 3.917967,0.1201 4.053066,0.30024 0.135104,0.18015 1.85766,0.30025 4.05307,0.30025 2.195411,0 3.917963,0.1201 4.053067,0.30024 0.101327,0.18015 1.553676,0.30025 3.208676,0.30025 1.655004,0 3.107352,-0.1201 3.20868,-0.30025 0.101328,-0.15012 1.317249,-0.30024 2.702045,-0.30024 1.384797,0 2.600718,-0.1201 2.702046,-0.30025 0.101324,-0.15012 1.486124,-0.30024 3.0398,-0.30024 1.553673,0 2.938474,-0.1201 3.039796,-0.30025 0.10133,-0.15012 1.31725,-0.30024 2.70204,-0.30024 1.38481,0 2.60072,-0.1201 2.70205,-0.30025 0.10133,-0.15012 1.31725,-0.30024 2.66827,-0.30024 1.31724,0 2.60072,-0.15012 2.80337,-0.33027 0.43909,-0.39032 3.54644,-0.2402 3.71531,0.18015 0.0676,0.18014 -0.20265,0.63051 -0.57418,0.9908 -0.37153,0.33027 -0.67551,0.75062 -0.67551,0.93076 0,0.15013 -0.74306,0.96079 -1.68878,1.80148 -0.91193,0.84068 -1.68878,1.65134 -1.68878,1.80147 0,0.15012 -0.77683,0.96078 -1.68878,1.80147 -0.91194,0.84068 -1.68878,1.65134 -1.68878,1.80147 0,0.15012 -0.70928,0.93076 -1.58744,1.74142 -0.91194,0.81066 -1.82388,1.80147 -2.06031,2.22181 -0.50664,0.84068 -2.7696,2.07169 -3.782865,2.07169 -0.371531,0 -0.743062,0.15012 -0.844389,0.30024 -0.101325,0.18015 -0.574184,0.30025 -1.013266,0.30025 -0.439083,0 -0.911939,0.15012 -1.013269,0.30025 -0.101325,0.18014 -0.574183,0.30024 -1.013263,0.30024 -0.439086,0 -0.911942,0.15012 -1.013269,0.30025 -0.101325,0.18014 -0.574186,0.30024 -1.013266,0.30024 -0.439083,0 -0.911942,0.15012 -1.013269,0.30025 -0.101325,0.18014 -0.574183,0.30024 -1.013266,0.30024 -0.439083,0 -0.911941,0.15012 -1.013266,0.30025 -0.101327,0.18014 -0.574186,0.30024 -1.013269,0.30024 -0.439079,0 -0.911941,0.15012 -1.013265,0.30025 -0.101328,0.18014 -0.574183,0.30024 -1.01327,0.30024 -0.439079,0 -0.911937,0.15012 -1.013262,0.30025 -0.101331,0.18014 -0.574186,0.30024 -1.013269,0.30024 -0.439082,0 -0.911941,0.15012 -1.013266,0.30024 -0.101327,0.18015 -0.574183,0.30025 -1.013268,0.30025 -0.439083,0 -0.911939,0.15012 -1.013266,0.30024 -0.101328,0.18016 -0.574184,0.30025 -1.013266,0.30025 -0.439083,0 -0.911942,0.15012 -1.013269,0.30024 -0.101325,0.18016 -1.182142,0.30025 -2.364287,0.30025 -1.182149,0 -2.262966,0.15013 -2.36429,0.30024 -0.101328,0.18016 -1.621228,0.30025 -3.377556,0.30025 -1.756331,0 -3.276231,0.1201 -3.377556,0.30024 -0.101327,0.18014 -1.621228,0.30025 -3.377556,0.30025 -1.756331,0 -3.276228,0.1201 -3.377559,0.30025 -0.101324,0.18014 -1.553672,0.30024 -3.208676,0.30024 -1.655004,0 -3.107353,-0.1201 -3.208677,-0.30024 z M 112.07067,34.96031 c 0.28641,-0.167074 0.8831,-0.64444 1.31273,-1.074066 1.14565,-1.121807 1.07405,-1.933324 -0.28642,-3.293811 -0.90697,-0.930859 -1.19339,-1.074068 -2.02876,-1.074068 -0.83537,0 -1.12179,0.143209 -2.02877,1.074068 -1.36047,1.360487 -1.43206,2.172004 -0.28641,3.293811 1.43207,1.384354 2.29131,1.646906 3.31763,1.074066 z M 86.770785,34.482949 c 0.668296,-0.381894 0.954711,-0.668311 1.336597,-1.336619 0.644431,-1.145674 0.09548,-2.50616 -1.336597,-3.317679 -1.145657,-0.668309 -2.506121,-0.119341 -3.317627,1.312751 -1.09792,1.909456 1.408201,4.415614 3.317627,3.341547 z"
     id="path2048"
     style="fill:url(#oomox);fill-opacity:1;stroke-width:0.023868"
     class="ColorScheme-Text" />
  <metadata
     id="metadata2174">
    <rdf:RDF>
      <cc:Work
         rdf:about="">
        <dc:creator>
          <cc:Agent>
            <dc:title>dreifacherspass</dc:title>
          </cc:Agent>
        </dc:creator>
        <cc:license
           rdf:resource="http://creativecommons.org/licenses/by-sa/4.0/" />
      </cc:Work>
      <cc:License
         rdf:about="http://creativecommons.org/licenses/by-sa/4.0/">
        <cc:permits
           rdf:resource="http://creativecommons.org/ns#Reproduction" />
        <cc:permits
           rdf:resource="http://creativecommons.org/ns#Distribution" />
        <cc:requires
           rdf:resource="http://creativecommons.org/ns#Notice" />
        <cc:requires
           rdf:resource="http://creativecommons.org/ns#Attribution" />
        <cc:permits
           rdf:resource="http://creativecommons.org/ns#DerivativeWorks" />
        <cc:requires
           rdf:resource="http://creativecommons.org/ns#ShareAlike" />
      </cc:License>
    </rdf:RDF>
  </metadata>
</svg>
