<?xml version="1.0" encoding="UTF-8" standalone="no"?>
<svg
   width="16in"
   height="16in"
   style="fill-opacity:1;fill-rule:evenodd;stroke-linecap:butt;stroke-linejoin:miter;stroke-dasharray:none;stroke-opacity:1"
   viewBox="83431 -434208 737279.2 737279.1"
   version="1.1"
   id="svg38"
   xmlns:xlink="http://www.w3.org/1999/xlink"
   xmlns="http://www.w3.org/2000/svg"
   xmlns:svg="http://www.w3.org/2000/svg"
   xmlns:rdf="http://www.w3.org/1999/02/22-rdf-syntax-ns#"
   xmlns:cc="http://creativecommons.org/ns#"
   xmlns:dc="http://purl.org/dc/elements/1.1/">
  <defs>
   <style id="current-color-scheme" type="text/css">
   .ColorScheme-Text { color: #0abdc6; } .ColorScheme-Highlight { color:#5294e2; }
  </style>
  <linearGradient id="arrongin" x1="0%" x2="0%" y1="0%" y2="100%">
   <stop offset="0%" style="stop-color:#dd9b44; stop-opacity:1"/>
   <stop offset="100%" style="stop-color:#ad6c16; stop-opacity:1"/>
  </linearGradient>
  <linearGradient id="aurora" x1="0%" x2="0%" y1="0%" y2="100%">
   <stop offset="0%" style="stop-color:#09D4DF; stop-opacity:1"/>
   <stop offset="100%" style="stop-color:#9269F4; stop-opacity:1"/>
  </linearGradient>
  <linearGradient id="cyberneon" x1="0%" x2="0%" y1="0%" y2="100%">
    <stop offset="0" style="stop-color:#0abdc6; stop-opacity:1"/>
    <stop offset="1" style="stop-color:#ea00d9; stop-opacity:1"/>
  </linearGradient>
  <linearGradient id="fitdance" x1="0%" x2="0%" y1="0%" y2="100%">
   <stop offset="0%" style="stop-color:#1AD6AB; stop-opacity:1"/>
   <stop offset="100%" style="stop-color:#329DB6; stop-opacity:1"/>
  </linearGradient>
  <linearGradient id="oomox" x1="0%" x2="0%" y1="0%" y2="100%">
   <stop offset="0%" style="stop-color:#0abdc6; stop-opacity:1"/>
   <stop offset="100%" style="stop-color:#b800ff; stop-opacity:1"/>
  </linearGradient>
  <linearGradient id="rainblue" x1="0%" x2="0%" y1="0%" y2="100%">
   <stop offset="0%" style="stop-color:#00F260; stop-opacity:1"/>
   <stop offset="100%" style="stop-color:#0575E6; stop-opacity:1"/>
  </linearGradient>
  <linearGradient id="sunrise" x1="0%" x2="0%" y1="0%" y2="100%">
   <stop offset="0%" style="stop-color: #FF8501; stop-opacity:1"/>
   <stop offset="100%" style="stop-color: #FFCB01; stop-opacity:1"/>
  </linearGradient>
  <linearGradient id="telinkrin" x1="0%" x2="0%" y1="0%" y2="100%">
   <stop offset="0%" style="stop-color: #b2ced6; stop-opacity:1"/>
   <stop offset="100%" style="stop-color: #6da5b7; stop-opacity:1"/>
  </linearGradient>
  <linearGradient id="60spsycho" x1="0%" x2="0%" y1="0%" y2="100%">
   <stop offset="0%" style="stop-color: #df5940; stop-opacity:1"/>
   <stop offset="25%" style="stop-color: #d8d15f; stop-opacity:1"/>
   <stop offset="50%" style="stop-color: #e9882a; stop-opacity:1"/>
   <stop offset="100%" style="stop-color: #279362; stop-opacity:1"/>
  </linearGradient>
  <linearGradient id="90ssummer" x1="0%" x2="0%" y1="0%" y2="100%">
   <stop offset="0%" style="stop-color: #f618c7; stop-opacity:1"/>
   <stop offset="20%" style="stop-color: #94ffab; stop-opacity:1"/>
   <stop offset="50%" style="stop-color: #fbfd54; stop-opacity:1"/>
   <stop offset="100%" style="stop-color: #0f83ae; stop-opacity:1"/>
  </linearGradient>
 </defs>
  <g
     id="g6"
     style="stroke:none"
     transform="matrix(4.7428077,0,0,4.7428077,-318915.61,1653490.7)">
    <path
       style="fill:none;fill-opacity:1;stroke:url(#oomox);stroke-width:2560;stroke-linejoin:bevel;stroke-opacity:1"
       d="m 143728,-329616 -5120,29952 z"
       id="path2"
       class="ColorScheme-Text" />
    <path
       style="fill:url(#oomox);fill-opacity:1;stroke:none;stroke-width:2560;stroke-linejoin:bevel;stroke-opacity:1"
       d="m 136304,-318864 15104,2304 -5888,24576 h -34048 c -6144,0 -4700,-12937 0,-16896 5761,-4853 11520,-256 22272,2304 z"
       id="path4"
       class="ColorScheme-Text" />
  </g>
  <g
     id="g12"
     style="stroke:none"
     transform="matrix(4.7428077,0,0,4.7428077,-318915.61,1653490.7)">
    <path
       style="fill:none;fill-opacity:1;stroke:url(#oomox);stroke-width:2560;stroke-linejoin:bevel;stroke-opacity:1"
       d="m 168560,-328848 9728,24576 z"
       id="path8"
       class="ColorScheme-Text" />
    <path
       style="fill:url(#oomox);fill-opacity:1;stroke:none;stroke-width:2560;stroke-linejoin:bevel;stroke-opacity:1"
       d="m 176628,-320544 -15104,2304 5888,24576 h 34048 c 6144,0 4700,-12937 0,-16896 -5761,-4853 -11520,-256 -22272,2304 z"
       id="path10"
       class="ColorScheme-Text" />
  </g>
  <g
     style="fill:url(#oomox);fill-opacity:1;stroke:none"
     id="g16"
     transform="matrix(4.7428077,0,0,4.7428077,-318915.61,1653490.7)">
    <path
       d="m 190278,-351145 c -7517,7715 -21235,10228 -26121,179 -8832,9690 -21611,7895 -26121,-718 -4698,-8075 -3007,-17944 6389,-27275 12591,-11484 22551,-6639 24806,-1076 l 1879,-5383 h 8080 l -7516,26198 c -3007,7357 5637,9869 12966,3050 8457,-9510 9584,-23506 -1127,-33914 -11464,-10766 -35893,-13099 -52242,3768 -12779,15791 -12403,35888 4134,45937 12215,6819 27624,6280 39275,1794 l 3195,7178 c -17664,7178 -38148,6280 -53369,-5742 -16537,-13099 -13906,-43066 4510,-58139 18040,-15073 46980,-13458 60698,-179 15973,16329 11275,32479 564,44322 z m -24994,-22969 c -2631,-7895 -10899,-6280 -15785,-179 -4134,5024 -5638,10587 -4134,16688 2631,7177 9020,7716 15409,1256 3947,-4666 6202,-11305 4510,-17765 z"
       id="path14"
       class="ColorScheme-Text"
       style="fill:url(#oomox);fill-opacity:1;stroke:none;stroke-opacity:1" />
  </g>
  <g
     id="g22"
     style="stroke:none"
     transform="matrix(4.7428077,0,0,4.7428077,-318915.61,1653490.7)">
    <path
       style="fill:url(#oomox);fill-opacity:1;stroke:none;stroke-width:2560;stroke-opacity:1"
       d="m 84833,-420309 c 431,15881 9532,38102 18267,57044 5214,2192 11542,-727 13261,-6116 -8711,-18887 -18784,-40726 -31528,-50928 z"
       id="path18"
       class="ColorScheme-Text" />
    <path
       style="fill:url(#oomox);fill-opacity:1;stroke:none;stroke-width:2560;stroke-linejoin:round;stroke-opacity:1"
       d="m 93630,-358897 c 8450,-1600 25499,-9462 32202,-14852 l 5241,11366 c -4662,-148 -10345,2473 -12239,3348 l 6989,15153 c 2768,1020 4515,4809 3495,7578 -1021,2767 -6703,5388 -9472,4367 -2767,-1020 -4515,-4809 -3494,-7576 l -6989,-15154 c -1894,873 -7577,3494 -10492,7136 z"
       id="path20"
       class="ColorScheme-Text" />
  </g>
  <g
     id="g30"
     style="stroke:none"
     transform="matrix(4.7428077,0,0,4.7428077,-318915.61,1653490.7)">
    <path
       style="fill:url(#oomox);fill-opacity:1;stroke:none;stroke-width:2560;stroke-linejoin:round;stroke-opacity:1"
       d="m 201840,-430736 c -3072,9984 -10752,23808 -19200,26112 -3072,1024 -7205,-3197 -7168,-6400 43,-3813 3328,-6656 8704,-7424 3840,-1536 10496,-6144 17664,-12288 z"
       id="path24"
       class="ColorScheme-Text" />
    <path
       style="fill:url(#oomox);fill-opacity:1;stroke:none;stroke-width:2560;stroke-linejoin:round;stroke-opacity:1"
       d="m 122080,-432928 c 3072,9984 10752,23808 19200,26112 3072,1024 7205,-3197 7168,-6400 -43,-3813 -3328,-6656 -8704,-7424 -3840,-1536 -10496,-6144 -17664,-12288 z"
       id="path26"
       class="ColorScheme-Text" />
    <path
       style="fill:url(#oomox);fill-opacity:1;stroke:none;stroke-width:2560;stroke-linejoin:bevel;stroke-opacity:1"
       d="m 131604,-397797 c 16692,8346 41730,8346 58422,0 0,-12519 -17139,-21675 -29658,-21675 -12519,0 -28764,9156 -28764,21675 z"
       id="path28"
       class="ColorScheme-Text" />
  </g>
  <g
     id="g36"
     style="stroke:none"
     transform="matrix(4.7428077,0,0,4.7428077,-318915.61,1653490.7)">
    <path
       id="path32"
       class="ColorScheme-Text"
       style="fill:url(#oomox);fill-opacity:1;stroke:none;stroke-width:2688;stroke-linejoin:bevel;stroke-opacity:1"
       d="m 213079.21,-394941.98 c -6962.61,0 -13925.11,2977.26 -19237.1,8931.75 -10624.98,11910.97 -10624.98,31220.51 0,43131.49 10623.98,11908.98 27849.98,11908.98 38474.95,0 10623.98,-11910.98 10623.98,-31220.52 0,-43131.49 -5312.49,-5954.49 -12275.24,-8931.75 -19237.85,-8931.75 z m 1.35,19670.8 8961.55,10829.01 -8961.55,10824.38 -8964.38,-10824.38 z m -0.54,2787.19 -6656.03,8041.02 6656.03,8037.98 6654.01,-8037.98 z" />
  </g>
  <metadata
     id="metadata1799">
    <rdf:RDF>
      <cc:Work
         rdf:about="">
        <dc:contributor>
          <cc:Agent>
            <dc:title>dreifacherspass</dc:title>
          </cc:Agent>
        </dc:contributor>
        <cc:license
           rdf:resource="http://creativecommons.org/licenses/by-sa/4.0/" />
      </cc:Work>
      <cc:License
         rdf:about="http://creativecommons.org/licenses/by-sa/4.0/">
        <cc:permits
           rdf:resource="http://creativecommons.org/ns#Reproduction" />
        <cc:permits
           rdf:resource="http://creativecommons.org/ns#Distribution" />
        <cc:requires
           rdf:resource="http://creativecommons.org/ns#Notice" />
        <cc:requires
           rdf:resource="http://creativecommons.org/ns#Attribution" />
        <cc:permits
           rdf:resource="http://creativecommons.org/ns#DerivativeWorks" />
        <cc:requires
           rdf:resource="http://creativecommons.org/ns#ShareAlike" />
      </cc:License>
    </rdf:RDF>
  </metadata>
</svg>
