<?xml version="1.0" encoding="UTF-8" standalone="no"?>
<!-- Uploaded to: SVG Repo, www.svgrepo.com, Generator: SVG Repo Mixer Tools -->

<svg
   width="16"
   height="16"
   viewBox="0 0 10.24 10.24"
   version="1.1"
   id="svg1"
   xmlns="http://www.w3.org/2000/svg"
   xmlns:svg="http://www.w3.org/2000/svg"
   xmlns:rdf="http://www.w3.org/1999/02/22-rdf-syntax-ns#"
   xmlns:cc="http://creativecommons.org/ns#"
   xmlns:dc="http://purl.org/dc/elements/1.1/">
<defs>
   <style id="current-color-scheme" type="text/css">
   .ColorScheme-Text { color: #0abdc6; } .ColorScheme-Highlight { color:#5294e2; }
  </style>
  <linearGradient id="arrongin" x1="0%" x2="0%" y1="0%" y2="100%">
   <stop offset="0%" style="stop-color:#dd9b44; stop-opacity:1"/>
   <stop offset="100%" style="stop-color:#ad6c16; stop-opacity:1"/>
  </linearGradient>
  <linearGradient id="aurora" x1="0%" x2="0%" y1="0%" y2="100%">
   <stop offset="0%" style="stop-color:#09D4DF; stop-opacity:1"/>
   <stop offset="100%" style="stop-color:#9269F4; stop-opacity:1"/>
  </linearGradient>
  <linearGradient id="cyberneon" x1="0%" x2="0%" y1="0%" y2="100%">
    <stop offset="0" style="stop-color:#0abdc6; stop-opacity:1"/>
    <stop offset="1" style="stop-color:#ea00d9; stop-opacity:1"/>
  </linearGradient>
  <linearGradient id="fitdance" x1="0%" x2="0%" y1="0%" y2="100%">
   <stop offset="0%" style="stop-color:#1AD6AB; stop-opacity:1"/>
   <stop offset="100%" style="stop-color:#329DB6; stop-opacity:1"/>
  </linearGradient>
  <linearGradient id="oomox" x1="0%" x2="0%" y1="0%" y2="100%">
   <stop offset="0%" style="stop-color:#0abdc6; stop-opacity:1"/>
   <stop offset="100%" style="stop-color:#b800ff; stop-opacity:1"/>
  </linearGradient>
  <linearGradient id="rainblue" x1="0%" x2="0%" y1="0%" y2="100%">
   <stop offset="0%" style="stop-color:#00F260; stop-opacity:1"/>
   <stop offset="100%" style="stop-color:#0575E6; stop-opacity:1"/>
  </linearGradient>
  <linearGradient id="sunrise" x1="0%" x2="0%" y1="0%" y2="100%">
   <stop offset="0%" style="stop-color: #FF8501; stop-opacity:1"/>
   <stop offset="100%" style="stop-color: #FFCB01; stop-opacity:1"/>
  </linearGradient>
  <linearGradient id="telinkrin" x1="0%" x2="0%" y1="0%" y2="100%">
   <stop offset="0%" style="stop-color: #b2ced6; stop-opacity:1"/>
   <stop offset="100%" style="stop-color: #6da5b7; stop-opacity:1"/>
  </linearGradient>
  <linearGradient id="60spsycho" x1="0%" x2="0%" y1="0%" y2="100%">
   <stop offset="0%" style="stop-color: #df5940; stop-opacity:1"/>
   <stop offset="25%" style="stop-color: #d8d15f; stop-opacity:1"/>
   <stop offset="50%" style="stop-color: #e9882a; stop-opacity:1"/>
   <stop offset="100%" style="stop-color: #279362; stop-opacity:1"/>
  </linearGradient>
  <linearGradient id="90ssummer" x1="0%" x2="0%" y1="0%" y2="100%">
   <stop offset="0%" style="stop-color: #f618c7; stop-opacity:1"/>
   <stop offset="20%" style="stop-color: #94ffab; stop-opacity:1"/>
   <stop offset="50%" style="stop-color: #fbfd54; stop-opacity:1"/>
   <stop offset="100%" style="stop-color: #0f83ae; stop-opacity:1"/>
  </linearGradient>
 </defs>
  <path
     style="stroke-width:0.0216076;fill:url(#oomox)"
     d="m 7.5336519,7.0798564 c -0.022429,-4.32e-5 -0.044814,3.673e-4 -0.066875,7.131e-4 -0.1038892,0.00162 -0.2037594,0.00799 -0.3004532,0.018215 -0.7331881,0.077723 -1.287876,0.3884177 -1.8480955,0.7441647 v 0.00605 C 5.1766118,7.8060004 5.0368973,7.7977895 4.8988681,7.8280401 4.346449,7.4784945 3.7968173,7.1754483 3.07372,7.0987846 2.9528256,7.085993 2.8265294,7.0797052 2.6942046,7.0805911 2.0018981,7.0851935 1.1420681,7.2918699 2.1607569e-5,7.8571023 V 8.7760722 C 1.3131136,8.1532772 2.3058518,7.9751444 3.1162221,8.0610345 3.5169344,8.1034934 3.8689649,8.2089383 4.1911986,8.347983 4.090032,8.4790113 3.9900754,8.6346723 3.8913936,8.816608 H 6.42285 C 6.2947171,8.6389938 6.1679239,8.4835489 6.041995,8.3507488 6.3660221,8.2102348 6.7202566,8.1037743 7.1237131,8.0610345 7.9340618,7.975166 8.9268216,8.1532988 10.239957,8.7761154 V 7.8571455 C 9.0912984,7.2886503 8.227968,7.0822332 7.5336087,7.0799212 Z"
     id="path3"
     class="ColorScheme-Text"/>
  <path
     id="path2"
     class="ColorScheme-Text"
     style="fill:url(#oomox);stroke-width:0.0216076"
     d="M 2.83,1.42375 C 2.803336,1.4238581 2.777117,1.4243531 2.75,1.425 2.0172237,1.442417 1.1186217,1.6564744 0,2.15375 V 7.4125 c 1.3130894,-0.622729 2.3059245,-0.8008899 3.11625,-0.715 0.7238953,0.076707 1.289077,0.3598574 1.805,0.67375 v -5.25 C 4.419588,1.7378461 3.8367592,1.4723508 3.06375,1.43 2.9876916,1.4258513 2.9099694,1.4234043 2.83,1.42375 Z m 4.58,0 C 7.3300522,1.4234043 7.2523516,1.4258513 7.17625,1.43 6.403284,1.4723508 5.8204336,1.7378461 5.31875,2.12125 v 5.25 C 5.8346514,7.0573574 6.3998547,6.7742283 7.12375,6.6975 7.9340755,6.6116317 8.9269106,6.7897278 10.24,7.4125 V 2.15375 C 9.1213783,1.6564744 8.2227761,1.4424589 7.49,1.425 7.462882,1.424395 7.436664,1.42384 7.41,1.42375 Z" />
  <metadata
     id="metadata1">
    <rdf:RDF>
      <cc:Work
         rdf:about="">
        <dc:creator>
          <cc:Agent>
            <dc:title>dreifacherspass</dc:title>
          </cc:Agent>
        </dc:creator>
        <cc:license
           rdf:resource="http://creativecommons.org/licenses/by-sa/4.0/" />
      </cc:Work>
      <cc:License
         rdf:about="http://creativecommons.org/licenses/by-sa/4.0/">
        <cc:permits
           rdf:resource="http://creativecommons.org/ns#Reproduction" />
        <cc:permits
           rdf:resource="http://creativecommons.org/ns#Distribution" />
        <cc:requires
           rdf:resource="http://creativecommons.org/ns#Notice" />
        <cc:requires
           rdf:resource="http://creativecommons.org/ns#Attribution" />
        <cc:permits
           rdf:resource="http://creativecommons.org/ns#DerivativeWorks" />
        <cc:requires
           rdf:resource="http://creativecommons.org/ns#ShareAlike" />
      </cc:License>
    </rdf:RDF>
  </metadata>
</svg>
