<?xml version="1.0" encoding="UTF-8" standalone="no"?>
<!-- Created with Inkscape (http://www.inkscape.org/) -->

<svg
   width="16"
   height="16"
   id="svg2"
   version="1.0"
   xmlns:xlink="http://www.w3.org/1999/xlink"
   xmlns="http://www.w3.org/2000/svg"
   xmlns:svg="http://www.w3.org/2000/svg"
   xmlns:rdf="http://www.w3.org/1999/02/22-rdf-syntax-ns#"
   xmlns:cc="http://creativecommons.org/ns#"
   xmlns:dc="http://purl.org/dc/elements/1.1/">
  <defs>
   <style id="current-color-scheme" type="text/css">
   .ColorScheme-Text { color: #0abdc6; } .ColorScheme-Highlight { color:#5294e2; }
  </style>
  <linearGradient id="arrongin" x1="0%" x2="0%" y1="0%" y2="100%">
   <stop offset="0%" style="stop-color:#dd9b44; stop-opacity:1"/>
   <stop offset="100%" style="stop-color:#ad6c16; stop-opacity:1"/>
  </linearGradient>
  <linearGradient id="aurora" x1="0%" x2="0%" y1="0%" y2="100%">
   <stop offset="0%" style="stop-color:#09D4DF; stop-opacity:1"/>
   <stop offset="100%" style="stop-color:#9269F4; stop-opacity:1"/>
  </linearGradient>
  <linearGradient id="cyberneon" x1="0%" x2="0%" y1="0%" y2="100%">
    <stop offset="0" style="stop-color:#0abdc6; stop-opacity:1"/>
    <stop offset="1" style="stop-color:#ea00d9; stop-opacity:1"/>
  </linearGradient>
  <linearGradient id="fitdance" x1="0%" x2="0%" y1="0%" y2="100%">
   <stop offset="0%" style="stop-color:#1AD6AB; stop-opacity:1"/>
   <stop offset="100%" style="stop-color:#329DB6; stop-opacity:1"/>
  </linearGradient>
  <linearGradient id="oomox" x1="0%" x2="0%" y1="0%" y2="100%">
   <stop offset="0%" style="stop-color:#0abdc6; stop-opacity:1"/>
   <stop offset="100%" style="stop-color:#b800ff; stop-opacity:1"/>
  </linearGradient>
  <linearGradient id="rainblue" x1="0%" x2="0%" y1="0%" y2="100%">
   <stop offset="0%" style="stop-color:#00F260; stop-opacity:1"/>
   <stop offset="100%" style="stop-color:#0575E6; stop-opacity:1"/>
  </linearGradient>
  <linearGradient id="sunrise" x1="0%" x2="0%" y1="0%" y2="100%">
   <stop offset="0%" style="stop-color: #FF8501; stop-opacity:1"/>
   <stop offset="100%" style="stop-color: #FFCB01; stop-opacity:1"/>
  </linearGradient>
  <linearGradient id="telinkrin" x1="0%" x2="0%" y1="0%" y2="100%">
   <stop offset="0%" style="stop-color: #b2ced6; stop-opacity:1"/>
   <stop offset="100%" style="stop-color: #6da5b7; stop-opacity:1"/>
  </linearGradient>
  <linearGradient id="60spsycho" x1="0%" x2="0%" y1="0%" y2="100%">
   <stop offset="0%" style="stop-color: #df5940; stop-opacity:1"/>
   <stop offset="25%" style="stop-color: #d8d15f; stop-opacity:1"/>
   <stop offset="50%" style="stop-color: #e9882a; stop-opacity:1"/>
   <stop offset="100%" style="stop-color: #279362; stop-opacity:1"/>
  </linearGradient>
  <linearGradient id="90ssummer" x1="0%" x2="0%" y1="0%" y2="100%">
   <stop offset="0%" style="stop-color: #f618c7; stop-opacity:1"/>
   <stop offset="20%" style="stop-color: #94ffab; stop-opacity:1"/>
   <stop offset="50%" style="stop-color: #fbfd54; stop-opacity:1"/>
   <stop offset="100%" style="stop-color: #0f83ae; stop-opacity:1"/>
  </linearGradient>
 </defs>
  <metadata
     id="metadata7">
    <rdf:RDF>
      <cc:Work
         rdf:about="">
        <dc:format>image/svg+xml</dc:format>
        <dc:type
           rdf:resource="http://purl.org/dc/dcmitype/StillImage" />
        <dc:creator>
          <cc:Agent>
            <dc:title>dreifacherspass</dc:title>
          </cc:Agent>
        </dc:creator>
        <cc:license
           rdf:resource="http://creativecommons.org/licenses/by-sa/4.0/" />
      </cc:Work>
      <cc:License
         rdf:about="http://creativecommons.org/licenses/by-sa/4.0/">
        <cc:permits
           rdf:resource="http://creativecommons.org/ns#Reproduction" />
        <cc:permits
           rdf:resource="http://creativecommons.org/ns#Distribution" />
        <cc:requires
           rdf:resource="http://creativecommons.org/ns#Notice" />
        <cc:requires
           rdf:resource="http://creativecommons.org/ns#Attribution" />
        <cc:permits
           rdf:resource="http://creativecommons.org/ns#DerivativeWorks" />
        <cc:requires
           rdf:resource="http://creativecommons.org/ns#ShareAlike" />
      </cc:License>
    </rdf:RDF>
  </metadata>
  <path
     id="path2383-2-5"
     style="opacity:0.2;fill:url(#oomox);stroke:none;stroke-width:1.39355;stroke-miterlimit:4;stroke-dasharray:none"
     class="ColorScheme-Text"
     d="M 5.9492188 3.171875 C 4.5956481 3.1805142 3.2191501 3.5913246 2.1425781 4.4589844 C 0.65416732 5.6527376 -0.088485134 7.5684305 0.0078125 9.3554688 C 0.13867909 12.5679 2.6478564 15.439129 5.9082031 15.980469 C 7.6703719 16.291384 9.6567309 15.798293 11.013672 14.53125 C 12.347895 13.309397 12.997532 11.494561 12.888672 9.7929688 C 12.736485 6.8632422 10.629421 4.212071 7.75 3.4042969 C 7.1743141 3.2466167 6.5644781 3.1679481 5.9492188 3.171875 z M 6.0234375 4.1210938 C 6.5480774 4.1177452 7.0676986 4.1858566 7.5585938 4.3203125 C 10.013913 5.0091121 11.809681 7.2693616 11.939453 9.7675781 C 12.032279 11.218548 11.479506 12.766706 10.341797 13.808594 C 9.1847155 14.889018 7.4909055 15.308091 5.9882812 15.042969 C 3.2081404 14.581361 1.0686228 12.133814 0.95703125 9.3945312 C 0.87491694 7.8707003 1.5081561 6.2366792 2.7773438 5.21875 C 3.6953506 4.478885 4.8692297 4.1284606 6.0234375 4.1210938 z " />
  <path
     id="path2383-2"
     style="opacity:0.4;fill:url(#oomox);stroke:none;stroke-width:1.18832;stroke-miterlimit:4;stroke-dasharray:none"
     class="ColorScheme-Text"
     d="M 6.0234375 4.1210938 C 4.8692297 4.1284606 3.6953506 4.478885 2.7773438 5.21875 C 1.5081561 6.2366792 0.87491694 7.8707003 0.95703125 9.3945312 C 1.0686228 12.133814 3.2081404 14.581361 5.9882812 15.042969 C 7.4909055 15.308091 9.1847156 14.889018 10.341797 13.808594 C 11.479506 12.766706 12.032279 11.218548 11.939453 9.7675781 C 11.809681 7.2693616 10.013913 5.0091121 7.5585938 4.3203125 C 7.0676986 4.1858566 6.5480774 4.1177452 6.0234375 4.1210938 z M 6.0976562 5.0703125 C 6.5316765 5.0675424 6.9610835 5.1250964 7.3671875 5.2363281 C 9.3984065 5.8061531 10.884829 7.6754795 10.992188 9.7421875 C 11.06898 10.942529 10.611119 12.222062 9.6699219 13.083984 C 8.7126998 13.977794 7.3114391 14.326754 6.0683594 14.107422 C 3.7684247 13.725547 1.9985669 11.69972 1.90625 9.4335938 C 1.8383192 8.1729692 2.3621451 6.8225734 3.4121094 5.9804688 C 4.1715514 5.3683984 5.1428116 5.0764068 6.0976562 5.0703125 z " />
  <path
     id="path2383-2-6"
     style="opacity:0.6;fill:url(#oomox);stroke:none;stroke-width:0.983037;stroke-miterlimit:4;stroke-dasharray:none"
     class="ColorScheme-Text"
     d="M 6.0976562 5.0703125 C 5.1428115 5.0764068 4.1715514 5.3683984 3.4121094 5.9804688 C 2.3621451 6.8225734 1.8383192 8.1729691 1.90625 9.4335938 C 1.9985666 11.699721 3.7684249 13.725547 6.0683594 14.107422 C 7.3114393 14.326754 8.7127006 13.977794 9.6699219 13.083984 C 10.611119 12.222062 11.06898 10.94253 10.992188 9.7421875 C 10.884829 7.6754796 9.3984062 5.8061531 7.3671875 5.2363281 C 6.9610833 5.1250964 6.5316766 5.0675424 6.0976562 5.0703125 z M 6.1699219 6.0214844 C 6.5133225 6.0192926 6.8544682 6.0623831 7.1757812 6.1503906 C 8.7828996 6.601241 9.9580238 8.0815989 10.042969 9.7167969 C 10.103727 10.666518 9.7427301 11.679367 8.9980469 12.361328 C 8.2406846 13.068519 7.1319727 13.34346 6.1484375 13.169922 C 4.328709 12.86778 2.9285104 11.265637 2.8554688 9.4726562 C 2.8017211 8.4752384 3.2161341 7.4065149 4.046875 6.7402344 C 4.6477521 6.255959 5.4144405 6.0263062 6.1699219 6.0214844 z " />
  <path
     style="opacity:0.8;fill:url(#oomox);stroke:none;stroke-width:0.777786;stroke-miterlimit:4;stroke-dasharray:none"
     d="M 4.0460451,6.739982 C 3.2153034,7.4062632 2.8008902,8.4757378 2.8546379,9.4731566 2.9276796,11.266139 4.3283576,12.868413 6.1480879,13.170555 7.1316243,13.344093 8.2397971,13.06878 8.9971602,12.361588 9.7418438,11.679626 10.104199,10.667098 10.043441,9.7173757 9.9584959,8.0821761 8.7831119,6.6020377 7.1759921,6.1511869 6.1477892,5.8695624 4.920049,6.0355807 4.0460451,6.739982 Z"
     id="path2383-2-6-1"
     class="ColorScheme-Text" />
  <path
     style="opacity:0.6;fill:#000000;fill-opacity:1;fill-rule:evenodd;stroke:none;stroke-width:0.0530978;stroke-linecap:round;stroke-linejoin:miter;stroke-miterlimit:4;stroke-dasharray:none;stroke-opacity:1"
     d="M 8.68576,3.7334583 V 10.555727 C 8.0938703,10.241983 7.3306376,10.30081 6.7902037,10.686617 6.2807124,11.040069 5.8619464,11.609782 5.8836739,12.236776 5.8923639,12.591836 6.2024,12.884621 6.5610022,12.927233 7.248876,13.017943 7.9730103,12.77809 8.4794991,12.32959 8.9545015,11.892543 9.1528182,11.235357 9.0986733,10.611242 9.0955333,7.8817878 9.0923833,6.6723727 9.0892333,3.9429175 Z"
     id="path5436-5"
     class="ColorScheme-Text" />
  <path
     style="fill:url(#oomox);fill-rule:evenodd;stroke:url(#oomox);stroke-width:0.0497783;stroke-linecap:round;stroke-linejoin:miter;stroke-miterlimit:4;stroke-dasharray:none;stroke-opacity:1"
     d="M 15.850239,0.04315597 C 13.239198,0.56439028 10.627877,1.0843035 8.0170106,1.6063445 c 0,2.8555769 0,5.7111539 0,8.5667305 C 7.4671179,9.8762742 6.7580398,9.9319236 6.255952,10.296896 5.7826113,10.63126 5.3935585,11.170206 5.4137443,11.76334 c 0.00807,0.335885 0.2961112,0.612858 0.629269,0.653169 0.6390663,0.08581 1.3118202,-0.141088 1.7823714,-0.565368 0.441299,-0.413444 0.6255443,-1.035139 0.5752412,-1.625549 -0.00292,-2.5820533 -0.00584,-5.1641061 -0.00877,-7.746159 2.3605761,-0.4617619 4.7192391,-0.9327012 7.0750931,-1.4171204 0.02203,2.8235668 0.04408,5.6471454 0.0661,8.4707239 -0.659484,-0.2585479 -1.473646,-0.1775288 -2.005794,0.3044355 -0.38127,0.332458 -0.665953,0.877391 -0.495382,1.382655 0.143692,0.413209 0.627727,0.567683 1.037624,0.544851 0.543416,9.58e-4 1.059671,-0.284199 1.420221,-0.666263 0.371865,-0.391475 0.524995,-0.938581 0.476752,-1.4688413 -0.01716,-3.1996801 -0.03526,-6.3993484 -0.05184,-9.59901672 -0.02148,0.0046764 -0.04296,0.0081838 -0.06442,0.01227561 z"
     id="path5436"
     class="ColorScheme-Text" />
</svg>
