<?xml version="1.0" encoding="UTF-8" standalone="no"?>
<!-- Created with Inkscape (http://www.inkscape.org/) -->

<svg
   width="16"
   height="16"
   viewBox="0 0 4.2333332 4.2333333"
   version="1.1"
   id="svg1"
   xmlns="http://www.w3.org/2000/svg"
   xmlns:svg="http://www.w3.org/2000/svg"
   xmlns:rdf="http://www.w3.org/1999/02/22-rdf-syntax-ns#"
   xmlns:cc="http://creativecommons.org/ns#"
   xmlns:dc="http://purl.org/dc/elements/1.1/">
  <defs>
   <style id="current-color-scheme" type="text/css">
   .ColorScheme-Text { color: #0abdc6; } .ColorScheme-Highlight { color:#5294e2; }
  </style>
  <linearGradient id="arrongin" x1="0%" x2="0%" y1="0%" y2="100%">
   <stop offset="0%" style="stop-color:#dd9b44; stop-opacity:1"/>
   <stop offset="100%" style="stop-color:#ad6c16; stop-opacity:1"/>
  </linearGradient>
  <linearGradient id="aurora" x1="0%" x2="0%" y1="0%" y2="100%">
   <stop offset="0%" style="stop-color:#09D4DF; stop-opacity:1"/>
   <stop offset="100%" style="stop-color:#9269F4; stop-opacity:1"/>
  </linearGradient>
  <linearGradient id="cyberneon" x1="0%" x2="0%" y1="0%" y2="100%">
    <stop offset="0" style="stop-color:#0abdc6; stop-opacity:1"/>
    <stop offset="1" style="stop-color:#ea00d9; stop-opacity:1"/>
  </linearGradient>
  <linearGradient id="fitdance" x1="0%" x2="0%" y1="0%" y2="100%">
   <stop offset="0%" style="stop-color:#1AD6AB; stop-opacity:1"/>
   <stop offset="100%" style="stop-color:#329DB6; stop-opacity:1"/>
  </linearGradient>
  <linearGradient id="oomox" x1="0%" x2="0%" y1="0%" y2="100%">
   <stop offset="0%" style="stop-color:#0abdc6; stop-opacity:1"/>
   <stop offset="100%" style="stop-color:#b800ff; stop-opacity:1"/>
  </linearGradient>
  <linearGradient id="rainblue" x1="0%" x2="0%" y1="0%" y2="100%">
   <stop offset="0%" style="stop-color:#00F260; stop-opacity:1"/>
   <stop offset="100%" style="stop-color:#0575E6; stop-opacity:1"/>
  </linearGradient>
  <linearGradient id="sunrise" x1="0%" x2="0%" y1="0%" y2="100%">
   <stop offset="0%" style="stop-color: #FF8501; stop-opacity:1"/>
   <stop offset="100%" style="stop-color: #FFCB01; stop-opacity:1"/>
  </linearGradient>
  <linearGradient id="telinkrin" x1="0%" x2="0%" y1="0%" y2="100%">
   <stop offset="0%" style="stop-color: #b2ced6; stop-opacity:1"/>
   <stop offset="100%" style="stop-color: #6da5b7; stop-opacity:1"/>
  </linearGradient>
  <linearGradient id="60spsycho" x1="0%" x2="0%" y1="0%" y2="100%">
   <stop offset="0%" style="stop-color: #df5940; stop-opacity:1"/>
   <stop offset="25%" style="stop-color: #d8d15f; stop-opacity:1"/>
   <stop offset="50%" style="stop-color: #e9882a; stop-opacity:1"/>
   <stop offset="100%" style="stop-color: #279362; stop-opacity:1"/>
  </linearGradient>
  <linearGradient id="90ssummer" x1="0%" x2="0%" y1="0%" y2="100%">
   <stop offset="0%" style="stop-color: #f618c7; stop-opacity:1"/>
   <stop offset="20%" style="stop-color: #94ffab; stop-opacity:1"/>
   <stop offset="50%" style="stop-color: #fbfd54; stop-opacity:1"/>
   <stop offset="100%" style="stop-color: #0f83ae; stop-opacity:1"/>
  </linearGradient>
 </defs>
  <path
     style="fill:url(#oomox);fill-opacity:1"
     d="m -304.8,310.4 c -0.7,0 -1.4,-0.3 -1.9,-0.8 l -20,-19.1 v 29.2 h 43.9 v -29.2 l -20,19.1 c -0.6,0.5 -1.3,0.8 -2,0.8 z"
     id="path2924"
     class="ColorScheme-Text"
     transform="matrix(0.03649425,0,0,0.03649425,13.240116,-8.9775867)" />
  <path
     style="fill:url(#oomox);fill-opacity:1"
     d="m -246.8,304 c -8.9,0 -20.1,-6 -30.4,-14.6 v 29.3 c 10.3,-8.6 21.6,-14.7 30.4,-14.7 z"
     id="path2928"
     class="ColorScheme-Text"
     transform="matrix(0.03649425,0,0,0.03649425,13.240116,-8.9775867)" />
  <polygon
     style="fill:url(#oomox);fill-opacity:1"
     points="-321.7,287.5 -304.8,303.7 -287.8,287.5 "
     id="polygon2932"
     class="ColorScheme-Text"
     transform="matrix(0.03649425,0,0,0.03649425,13.240116,-8.9775867)" />
  <path
     style="fill:url(#oomox);fill-opacity:1"
     d="m -304.8,246 c 0,10.5 -8.4,24.3 -19.6,35.9 h 39.2 c -11.1,-11.5 -19.6,-25.4 -19.6,-35.9 z"
     id="path2936"
     class="ColorScheme-Text"
     transform="matrix(0.03649425,0,0,0.03649425,13.240116,-8.9775867)" />
  <path
     style="fill:url(#oomox);fill-opacity:1"
     d="m -304.8,362 c 0,-10.7 8.8,-24.9 20.3,-36.6 h -40.6 c 11.6,11.7 20.3,25.9 20.3,36.6 z"
     id="path2940"
     class="ColorScheme-Text"
     transform="matrix(0.03649425,0,0,0.03649425,13.240116,-8.9775867)" />
  <path
     style="fill:url(#oomox);fill-opacity:1"
     d="m -362.8,304 c 8.9,0 20.1,6 30.4,14.6 v -29.3 c -10.2,8.7 -21.5,14.7 -30.4,14.7 z"
     id="path2944"
     class="ColorScheme-Text"
     transform="matrix(0.03649425,0,0,0.03649425,13.240116,-8.9775867)" />
  <metadata
     id="metadata1">
    <rdf:RDF>
      <cc:Work
         rdf:about="">
        <dc:creator>
          <cc:Agent>
            <dc:title>dreifachespass</dc:title>
          </cc:Agent>
        </dc:creator>
        <cc:license
           rdf:resource="http://creativecommons.org/licenses/by-sa/4.0/" />
      </cc:Work>
      <cc:License
         rdf:about="http://creativecommons.org/licenses/by-sa/4.0/">
        <cc:permits
           rdf:resource="http://creativecommons.org/ns#Reproduction" />
        <cc:permits
           rdf:resource="http://creativecommons.org/ns#Distribution" />
        <cc:requires
           rdf:resource="http://creativecommons.org/ns#Notice" />
        <cc:requires
           rdf:resource="http://creativecommons.org/ns#Attribution" />
        <cc:permits
           rdf:resource="http://creativecommons.org/ns#DerivativeWorks" />
        <cc:requires
           rdf:resource="http://creativecommons.org/ns#ShareAlike" />
      </cc:License>
    </rdf:RDF>
  </metadata>
</svg>
