<?xml version="1.0" encoding="UTF-8" standalone="no"?>
<!-- Created with Inkscape (http://www.inkscape.org/) -->

<svg
   width="16"
   height="16"
   id="svg1"
   version="1.1"
   xmlns="http://www.w3.org/2000/svg"
   xmlns:svg="http://www.w3.org/2000/svg"
   xmlns:rdf="http://www.w3.org/1999/02/22-rdf-syntax-ns#"
   xmlns:cc="http://creativecommons.org/ns#"
   xmlns:dc="http://purl.org/dc/elements/1.1/">
   <defs>
   <style id="current-color-scheme" type="text/css">
   .ColorScheme-Text { color: #0abdc6; } .ColorScheme-Highlight { color:#5294e2; }
  </style>
  <linearGradient id="arrongin" x1="0%" x2="0%" y1="0%" y2="100%">
   <stop offset="0%" style="stop-color:#dd9b44; stop-opacity:1"/>
   <stop offset="100%" style="stop-color:#ad6c16; stop-opacity:1"/>
  </linearGradient>
  <linearGradient id="aurora" x1="0%" x2="0%" y1="0%" y2="100%">
   <stop offset="0%" style="stop-color:#09D4DF; stop-opacity:1"/>
   <stop offset="100%" style="stop-color:#9269F4; stop-opacity:1"/>
  </linearGradient>
  <linearGradient id="cyberneon" x1="0%" x2="0%" y1="0%" y2="100%">
    <stop offset="0" style="stop-color:#0abdc6; stop-opacity:1"/>
    <stop offset="1" style="stop-color:#ea00d9; stop-opacity:1"/>
  </linearGradient>
  <linearGradient id="fitdance" x1="0%" x2="0%" y1="0%" y2="100%">
   <stop offset="0%" style="stop-color:#1AD6AB; stop-opacity:1"/>
   <stop offset="100%" style="stop-color:#329DB6; stop-opacity:1"/>
  </linearGradient>
  <linearGradient id="oomox" x1="0%" x2="0%" y1="0%" y2="100%">
   <stop offset="0%" style="stop-color:#0abdc6; stop-opacity:1"/>
   <stop offset="100%" style="stop-color:#b800ff; stop-opacity:1"/>
  </linearGradient>
  <linearGradient id="rainblue" x1="0%" x2="0%" y1="0%" y2="100%">
   <stop offset="0%" style="stop-color:#00F260; stop-opacity:1"/>
   <stop offset="100%" style="stop-color:#0575E6; stop-opacity:1"/>
  </linearGradient>
  <linearGradient id="sunrise" x1="0%" x2="0%" y1="0%" y2="100%">
   <stop offset="0%" style="stop-color: #FF8501; stop-opacity:1"/>
   <stop offset="100%" style="stop-color: #FFCB01; stop-opacity:1"/>
  </linearGradient>
  <linearGradient id="telinkrin" x1="0%" x2="0%" y1="0%" y2="100%">
   <stop offset="0%" style="stop-color: #b2ced6; stop-opacity:1"/>
   <stop offset="100%" style="stop-color: #6da5b7; stop-opacity:1"/>
  </linearGradient>
  <linearGradient id="60spsycho" x1="0%" x2="0%" y1="0%" y2="100%">
   <stop offset="0%" style="stop-color: #df5940; stop-opacity:1"/>
   <stop offset="25%" style="stop-color: #d8d15f; stop-opacity:1"/>
   <stop offset="50%" style="stop-color: #e9882a; stop-opacity:1"/>
   <stop offset="100%" style="stop-color: #279362; stop-opacity:1"/>
  </linearGradient>
  <linearGradient id="90ssummer" x1="0%" x2="0%" y1="0%" y2="100%">
   <stop offset="0%" style="stop-color: #f618c7; stop-opacity:1"/>
   <stop offset="20%" style="stop-color: #94ffab; stop-opacity:1"/>
   <stop offset="50%" style="stop-color: #fbfd54; stop-opacity:1"/>
   <stop offset="100%" style="stop-color: #0f83ae; stop-opacity:1"/>
  </linearGradient>
 </defs>
  <metadata
     id="metadata4">
    <rdf:RDF>
      <cc:Work
         rdf:about="">
        <dc:format>image/svg+xml</dc:format>
        <dc:type
           rdf:resource="http://purl.org/dc/dcmitype/StillImage" />
        <dc:creator>
          <cc:Agent>
            <dc:title>dreifacherspass</dc:title>
          </cc:Agent>
        </dc:creator>
        <cc:license
           rdf:resource="http://creativecommons.org/licenses/by-sa/4.0/" />
      </cc:Work>
      <cc:License
         rdf:about="http://creativecommons.org/licenses/by-sa/4.0/">
        <cc:permits
           rdf:resource="http://creativecommons.org/ns#Reproduction" />
        <cc:permits
           rdf:resource="http://creativecommons.org/ns#Distribution" />
        <cc:requires
           rdf:resource="http://creativecommons.org/ns#Notice" />
        <cc:requires
           rdf:resource="http://creativecommons.org/ns#Attribution" />
        <cc:permits
           rdf:resource="http://creativecommons.org/ns#DerivativeWorks" />
        <cc:requires
           rdf:resource="http://creativecommons.org/ns#ShareAlike" />
      </cc:License>
    </rdf:RDF>
  </metadata>
  <path
     id="path2"
     class="ColorScheme-Text"
     style="fill:url(#oomox);fill-opacity:1;stroke:none;stroke-width:0.446965"
     d="M 7.4182197,0.00475921 C 7.3930897,0.01763826 6.949056,1.293095 6.2958627,2.5548008 4.7284786,5.5823514 3.7335319,6.9075379 2.1264402,8.0484395 1.4311129,8.5420636 0.33675686,9.1642906 0.09634607,9.5043743 -0.13225143,9.8277478 0.00748314,9.6295323 0.93545211,9.345807 3.2521124,8.6374915 3.0797456,8.0746831 1.3279372,10.311625 -1.0583612,13.358766 0.14156424,12.412306 2.6407311,9.9224148 3.7866678,8.7807314 5.0362741,7.9798018 5.3610572,7.8466266 5.7090768,7.7039234 5.9283725,7.6044183 6.3625705,7.5727377 c 0.5141565,-0.037516 0.810563,0.017958 1.0015134,0.6198534 0.1624075,0.5119273 0.5300598,1.4456079 1.109785,2.1766949 0.2346537,0.29592 0.4428565,0.438472 0.6561993,0.57977 0.1968695,0.130388 0.396106,0.268271 0.6708707,0.327239 0.5482891,0.129177 0.9143921,0.06337 1.2985181,0.0444 0.823211,-0.05219 2.221843,-0.851618 3.180481,-1.6721633 1.533778,-1.3128333 1.738805,-1.7159344 1.718814,-3.3731561 l -0.01353,-1.8883959 -0.730835,1.1532155 c -1.57146,2.4941036 -3.45432,4.1515767 -4.723352,4.1515767 -2.8053317,0 -3.1785761,-2.3072689 -0.514291,-3.4740625 2.299315,-1.0069585 5.171452,-3.0282946 5.900808,-4.2957289 0.0017,-0.094846 -0.0024,-0.1976566 -0.0034,-0.2847004 C 15.896119,1.3413995 15.831247,1.1167973 15.740017,0.8904243 15.633295,0.65917226 15.442148,0.50275192 15.284836,0.34892169 15.141535,0.24180684 15.055733,0.18069613 14.948178,0.19215629 14.811744,0.24132852 14.75609,0.31702697 14.713026,0.45162984 14.371564,1.5189011 9.3065589,5.7564228 7.973112,5.7564228 7.8445239,5.7564228 7.7927818,4.6684034 7.6823309,3.0235068 7.5674916,1.313249 7.6079309,-0.09247442 7.4182197,0.00475921 Z M 6.8497934,3.5006573 6.9580652,4.819435 C 6.9375633,5.687143 6.4865959,6.179151 5.9882638,6.401609 5.4935541,6.6224508 5.0067643,7.000241 5.0517189,6.4100831 5.07551,6.0977941 5.517947,5.5997351 6.0489674,4.8025463 Z M 1.5945338,15.538713 h 7.795562 V 16 h -7.795562 z m 0,-0.922572 H 13.720964 v 0.461286 H 1.5945338 Z m 0,-0.922573 H 13.720964 v 0.461287 H 1.5945338 Z" />
</svg>
