<?xml version="1.0" encoding="UTF-8" standalone="no"?>
<svg
   height="96"
   width="96"
   version="1.1"
   id="svg10"
   sodipodi:docname="audacious.svg"
   inkscape:version="1.2.2 (b0a8486541, 2022-12-01)"
   xmlns:inkscape="http://www.inkscape.org/namespaces/inkscape"
   xmlns:sodipodi="http://sodipodi.sourceforge.net/DTD/sodipodi-0.dtd"
   xmlns:xlink="http://www.w3.org/1999/xlink"
   xmlns="http://www.w3.org/2000/svg"
   xmlns:svg="http://www.w3.org/2000/svg">
  <defs
     id="defs14">
     <style
       id="current-color-scheme"
       type="text/css">
       .ColorScheme-Text { color: #0abdc6; } .ColorScheme-Highlight { color:#5294e2; }
     </style>
   <linearGradient
       id="arrongin"
       x1="0%"
       x2="0%"
       y1="0%"
       y2="100%">
      <stop
         offset="0%"
         style="stop-color:#dd9b44; stop-opacity:1"
         id="stop9192" />
      <stop
         offset="100%"
         style="stop-color:#ad6c16; stop-opacity:1"
         id="stop9194" />
    </linearGradient>
    <linearGradient
       id="aurora"
       x1="0%"
       x2="0%"
       y1="0%"
       y2="100%">
      <stop
         offset="0%"
         style="stop-color:#09D4DF; stop-opacity:1"
         id="stop9197" />
      <stop
         offset="100%"
         style="stop-color:#9269F4; stop-opacity:1"
         id="stop9199" />
    </linearGradient>
    <linearGradient
       id="cyberneon"
       x1="0%"
       x2="0%"
       y1="0%"
       y2="100%">
      <stop
         offset="0"
         style="stop-color:#0abdc6; stop-opacity:1"
         id="stop9202" />
      <stop
         offset="1"
         style="stop-color:#ea00d9; stop-opacity:1"
         id="stop9204" />
    </linearGradient>
    <linearGradient
       id="fitdance"
       x1="0%"
       x2="0%"
       y1="0%"
       y2="100%">
      <stop
         offset="0%"
         style="stop-color:#1AD6AB; stop-opacity:1"
         id="stop9207" />
      <stop
         offset="100%"
         style="stop-color:#329DB6; stop-opacity:1"
         id="stop9209" />
    </linearGradient>
    <linearGradient
       id="oomox"
       x1="0%"
       x2="0%"
       y1="0%"
       y2="100%">
      <stop
         offset="0%"
         style="stop-color:#0abdc6; stop-opacity:1"
         id="stop9212" />
      <stop
         offset="100%"
         style="stop-color:#b800ff; stop-opacity:1"
         id="stop9214" />
    </linearGradient>
    <linearGradient
       id="rainblue"
       x1="0%"
       x2="0%"
       y1="0%"
       y2="100%">
      <stop
         offset="0%"
         style="stop-color:#00F260; stop-opacity:1"
         id="stop9217" />
      <stop
         offset="100%"
         style="stop-color:#0575E6; stop-opacity:1"
         id="stop9219" />
    </linearGradient>
    <linearGradient
       id="sunrise"
       x1="0%"
       x2="0%"
       y1="0%"
       y2="100%">
      <stop
         offset="0%"
         style="stop-color: #FF8501; stop-opacity:1"
         id="stop9222" />
      <stop
         offset="100%"
         style="stop-color: #FFCB01; stop-opacity:1"
         id="stop9224" />
    </linearGradient>
    <linearGradient
       id="telinkrin"
       x1="0%"
       x2="0%"
       y1="0%"
       y2="100%">
      <stop
         offset="0%"
         style="stop-color: #b2ced6; stop-opacity:1"
         id="stop9227" />
      <stop
         offset="100%"
         style="stop-color: #6da5b7; stop-opacity:1"
         id="stop9229" />
    </linearGradient>
    <linearGradient
       id="60spsycho"
       x1="0%"
       x2="0%"
       y1="0%"
       y2="100%">
      <stop
         offset="0%"
         style="stop-color: #df5940; stop-opacity:1"
         id="stop9232" />
      <stop
         offset="25%"
         style="stop-color: #d8d15f; stop-opacity:1"
         id="stop9234" />
      <stop
         offset="50%"
         style="stop-color: #e9882a; stop-opacity:1"
         id="stop9236" />
      <stop
         offset="100%"
         style="stop-color: #279362; stop-opacity:1"
         id="stop9238" />
    </linearGradient>
    <linearGradient
       id="90ssummer"
       x1="0%"
       x2="0%"
       y1="0%"
       y2="100%">
      <stop
         offset="0%"
         style="stop-color: #f618c7; stop-opacity:1"
         id="stop9241" />
      <stop
         offset="20%"
         style="stop-color: #94ffab; stop-opacity:1"
         id="stop9243" />
      <stop
         offset="50%"
         style="stop-color: #fbfd54; stop-opacity:1"
         id="stop9245" />
      <stop
         offset="100%"
         style="stop-color: #0f83ae; stop-opacity:1"
         id="stop9247" />
    </linearGradient>
  </defs>
  <sodipodi:namedview
     id="namedview12"
     pagecolor="#ffffff"
     bordercolor="#000000"
     borderopacity="0.25"
     inkscape:showpageshadow="2"
     inkscape:pageopacity="0.0"
     inkscape:pagecheckerboard="0"
     inkscape:deskcolor="#d1d1d1"
     showgrid="false"
     inkscape:zoom="2.4583333"
     inkscape:cx="9.7627119"
     inkscape:cy="48.20339"
     inkscape:window-width="1680"
     inkscape:window-height="1021"
     inkscape:window-x="0"
     inkscape:window-y="0"
     inkscape:window-maximized="1"
     inkscape:current-layer="svg10" />
  <path
     id="path2"
     class="ColorScheme-Text"
     style="fill:url(#oomox);fill-opacity:1"
     d="M 48 0 A 48 48 0 0 0 0 48 A 48 48 0 0 0 48 96 A 48 48 0 0 0 96 48 A 48 48 0 0 0 48 0 z M 48 12 C 52.94299 12 57.59318 12.944082 61.951172 14.830078 C 66.373162 16.717074 70.210897 19.285117 73.462891 22.537109 C 76.714883 25.789103 79.283926 29.625838 81.169922 34.048828 C 83.055918 38.40682 84 43.05701 84 48 C 84 53.00899 83.055918 57.689836 81.169922 62.048828 C 79.282926 66.40682 76.714883 70.210897 73.462891 73.462891 C 70.210897 76.714883 66.374162 79.283926 61.951172 81.169922 C 57.59318 83.055918 52.94299 84 48 84 C 42.99101 84 38.310164 83.055918 33.951172 81.169922 C 29.59318 79.282926 25.789103 76.714883 22.537109 73.462891 C 19.285117 70.210897 16.716074 66.40682 14.830078 62.048828 C 12.944082 57.690836 12 53.00799 12 48 C 12 43.05701 12.944082 38.40682 14.830078 34.048828 C 16.717074 29.626838 19.285117 25.789103 22.537109 22.537109 C 25.789103 19.285117 29.59318 16.716074 33.951172 14.830078 C 38.309164 12.944082 42.99201 12 48 12 z M 48.878906 27.707031 A 51.967 51.967 0 0 0 45.853516 27.804688 C 44.813518 27.804688 43.869436 28.033283 43.023438 28.488281 C 42.698438 28.488281 42.07992 28.520938 41.169922 28.585938 C 40.323924 28.585937 39.771717 28.618594 39.511719 28.683594 C 38.925719 28.748594 38.308201 28.846564 37.658203 28.976562 C 37.073205 29.041562 36.519998 29.301861 36 29.755859 L 33.951172 31.804688 C 33.756172 32.128686 33.560234 32.488908 33.365234 32.878906 C 33.235236 33.268906 33.169922 33.691486 33.169922 34.146484 C 33.169922 35.187482 33.561799 36.098908 34.341797 36.878906 C 35.186795 37.593906 36.129924 37.951172 37.169922 37.951172 C 37.56092 37.951172 37.984455 37.918516 38.439453 37.853516 C 38.895453 37.788516 39.317033 37.690547 39.707031 37.560547 L 46.439453 37.560547 A 3.077 3.077 0 0 1 48.097656 38.048828 C 48.617656 38.373828 48.878906 38.829064 48.878906 39.414062 C 48.878906 39.934062 48.682967 40.325938 48.292969 40.585938 C 47.967969 40.781936 47.543436 40.942266 47.023438 41.072266 L 45.462891 41.267578 C 44.942891 41.267578 44.552967 41.332891 44.292969 41.462891 C 44.162969 41.527891 43.868062 41.657516 43.414062 41.853516 A 7.11 7.11 0 0 0 42.634766 42.146484 A 10.44 10.44 0 0 1 39.804688 42.732422 C 38.828688 42.732422 37.886562 42.991719 36.976562 43.511719 A 19.3 19.3 0 0 0 33.267578 46.439453 A 15.995 15.995 0 0 0 30.537109 50.048828 C 30.407111 50.178828 30.243828 50.407422 30.048828 50.732422 C 29.918828 51.058422 29.853516 51.251406 29.853516 51.316406 L 29.853516 56.195312 L 30.244141 57.462891 A 47.63 47.63 0 0 1 30.830078 59.316406 C 31.220078 60.617404 31.967268 61.757424 33.072266 62.732422 A 70.297 70.297 0 0 0 36.390625 65.169922 C 36.390625 65.234922 36.455938 65.300234 36.585938 65.365234 C 36.780936 65.430234 36.910564 65.462891 36.976562 65.462891 A 63.062 63.062 0 0 0 38.830078 66.146484 C 39.805076 66.472484 40.45625 66.667422 40.78125 66.732422 L 42.244141 66.732422 C 42.374139 66.797422 42.570078 66.764764 42.830078 66.634766 C 42.960078 66.569766 43.252033 66.406484 43.707031 66.146484 L 44.683594 65.658203 C 45.789592 65.203205 46.894002 64.780625 48 64.390625 A 9.877 9.877 0 0 1 51.609375 63.707031 L 52.292969 63.707031 C 52.682967 63.707031 52.942266 63.739688 53.072266 63.804688 C 53.982264 64.194686 54.927346 64.649922 55.902344 65.169922 A 7.08 7.08 0 0 0 58.927734 65.853516 A 5.356 5.356 0 0 0 61.169922 65.365234 A 7.51 7.51 0 0 0 63.316406 64 A 7.377 7.377 0 0 0 64.878906 62.048828 C 65.268906 61.33283 65.462891 60.584686 65.462891 59.804688 L 65.462891 59.21875 C 65.398891 58.95875 65.267264 58.470859 65.072266 57.755859 C 64.877266 57.039861 64.748594 56.552967 64.683594 56.292969 L 64.683594 56 A 23.663 23.663 0 0 1 64.78125 53.853516 L 65.169922 51.707031 A 1984.653 1984.653 0 0 1 65.169922 50.537109 C 65.234922 50.211111 65.267578 49.918203 65.267578 49.658203 L 65.267578 49.169922 C 65.397578 48.714922 65.560861 48.292342 65.755859 47.902344 C 65.950859 47.447344 66.048828 46.959453 66.048828 46.439453 C 66.048828 45.724455 65.983514 45.007967 65.853516 44.292969 C 65.787516 43.576969 65.690547 42.861484 65.560547 42.146484 C 65.299547 40.129488 64.944281 38.40656 64.488281 36.976562 C 64.033283 35.479566 63.383109 34.20992 62.537109 33.169922 C 61.692111 32.128924 60.584748 31.252109 59.21875 30.537109 C 57.917752 29.756111 56.292793 29.074281 54.341797 28.488281 C 52.455801 27.968283 50.634902 27.707031 48.878906 27.707031 z M 46.146484 50.439453 L 49.755859 50.439453 C 50.015859 50.439453 50.244453 50.602735 50.439453 50.927734 C 50.699453 51.187734 50.862734 51.414375 50.927734 51.609375 L 50.927734 53.365234 C 50.927734 53.690234 50.860469 53.951485 50.730469 54.146484 C 50.600469 54.276484 50.341171 54.503125 49.951172 54.828125 L 49.267578 55.511719 C 49.267578 55.641719 49.171562 55.707031 48.976562 55.707031 L 47.902344 55.707031 C 46.991345 55.707031 46.210546 55.511093 45.560547 55.121094 C 44.910548 54.666094 44.585938 53.918905 44.585938 52.878906 C 44.585938 52.488907 44.716563 51.999062 44.976562 51.414062 C 45.236562 50.763063 45.626485 50.439453 46.146484 50.439453 z " />
  <g
     font-size="56"
     font-weight="400"
     fill="#d9d9d9"
     font-family="Circulate BRK"
     id="g8" />
</svg>
