<?xml version="1.0" encoding="UTF-8" standalone="no"?>
<svg
   version="1.1"
   id="Layer_1"
   x="0px"
   y="0px"
   viewBox="0 0 16 16"
   xml:space="preserve"
   width="16"
   height="16"
   xmlns:xlink="http://www.w3.org/1999/xlink"
   xmlns="http://www.w3.org/2000/svg"
   xmlns:svg="http://www.w3.org/2000/svg"
   xmlns:rdf="http://www.w3.org/1999/02/22-rdf-syntax-ns#"
   xmlns:cc="http://creativecommons.org/ns#"
   xmlns:dc="http://purl.org/dc/elements/1.1/"><metadata
   id="metadata3769"><rdf:RDF><cc:Work
       rdf:about=""><dc:format>image/svg+xml</dc:format><dc:type
         rdf:resource="http://purl.org/dc/dcmitype/StillImage" /><dc:creator><cc:Agent><dc:title>dreifacherspass</dc:title></cc:Agent></dc:creator><cc:license
         rdf:resource="http://creativecommons.org/licenses/by-sa/4.0/" /></cc:Work><cc:License
       rdf:about="http://creativecommons.org/licenses/by-sa/4.0/"><cc:permits
         rdf:resource="http://creativecommons.org/ns#Reproduction" /><cc:permits
         rdf:resource="http://creativecommons.org/ns#Distribution" /><cc:requires
         rdf:resource="http://creativecommons.org/ns#Notice" /><cc:requires
         rdf:resource="http://creativecommons.org/ns#Attribution" /><cc:permits
         rdf:resource="http://creativecommons.org/ns#DerivativeWorks" /><cc:requires
         rdf:resource="http://creativecommons.org/ns#ShareAlike" /></cc:License></rdf:RDF></metadata>
   <defs>
   <style id="current-color-scheme" type="text/css">
   .ColorScheme-Text { color: #0abdc6; } .ColorScheme-Highlight { color:#5294e2; }
  </style>
  <linearGradient id="arrongin" x1="0%" x2="0%" y1="0%" y2="100%">
   <stop offset="0%" style="stop-color:#dd9b44; stop-opacity:1"/>
   <stop offset="100%" style="stop-color:#ad6c16; stop-opacity:1"/>
  </linearGradient>
  <linearGradient id="aurora" x1="0%" x2="0%" y1="0%" y2="100%">
   <stop offset="0%" style="stop-color:#09D4DF; stop-opacity:1"/>
   <stop offset="100%" style="stop-color:#9269F4; stop-opacity:1"/>
  </linearGradient>
  <linearGradient id="cyberneon" x1="0%" x2="0%" y1="0%" y2="100%">
    <stop offset="0" style="stop-color:#0abdc6; stop-opacity:1"/>
    <stop offset="1" style="stop-color:#ea00d9; stop-opacity:1"/>
  </linearGradient>
  <linearGradient id="fitdance" x1="0%" x2="0%" y1="0%" y2="100%">
   <stop offset="0%" style="stop-color:#1AD6AB; stop-opacity:1"/>
   <stop offset="100%" style="stop-color:#329DB6; stop-opacity:1"/>
  </linearGradient>
  <linearGradient id="oomox" x1="0%" x2="0%" y1="0%" y2="100%">
   <stop offset="0%" style="stop-color:#0abdc6; stop-opacity:1"/>
   <stop offset="100%" style="stop-color:#b800ff; stop-opacity:1"/>
  </linearGradient>
  <linearGradient id="rainblue" x1="0%" x2="0%" y1="0%" y2="100%">
   <stop offset="0%" style="stop-color:#00F260; stop-opacity:1"/>
   <stop offset="100%" style="stop-color:#0575E6; stop-opacity:1"/>
  </linearGradient>
  <linearGradient id="sunrise" x1="0%" x2="0%" y1="0%" y2="100%">
   <stop offset="0%" style="stop-color: #FF8501; stop-opacity:1"/>
   <stop offset="100%" style="stop-color: #FFCB01; stop-opacity:1"/>
  </linearGradient>
  <linearGradient id="telinkrin" x1="0%" x2="0%" y1="0%" y2="100%">
   <stop offset="0%" style="stop-color: #b2ced6; stop-opacity:1"/>
   <stop offset="100%" style="stop-color: #6da5b7; stop-opacity:1"/>
  </linearGradient>
  <linearGradient id="60spsycho" x1="0%" x2="0%" y1="0%" y2="100%">
   <stop offset="0%" style="stop-color: #df5940; stop-opacity:1"/>
   <stop offset="25%" style="stop-color: #d8d15f; stop-opacity:1"/>
   <stop offset="50%" style="stop-color: #e9882a; stop-opacity:1"/>
   <stop offset="100%" style="stop-color: #279362; stop-opacity:1"/>
  </linearGradient>
  <linearGradient id="90ssummer" x1="0%" x2="0%" y1="0%" y2="100%">
   <stop offset="0%" style="stop-color: #f618c7; stop-opacity:1"/>
   <stop offset="20%" style="stop-color: #94ffab; stop-opacity:1"/>
   <stop offset="50%" style="stop-color: #fbfd54; stop-opacity:1"/>
   <stop offset="100%" style="stop-color: #0f83ae; stop-opacity:1"/>
  </linearGradient>
 </defs>
 <path
   class="ColorScheme-Text"
   d="M 14.897232,9.634997 C 14.176985,9.7770142 13.476453,9.3119408 13.336911,8.5986911 l -0.0037,0.00108 c -6.39e-4,-0.00204 -9.11e-4,-0.00324 -0.0012,-0.00453 C 12.859534,6.1931589 10.140577,3.7700347 7.775685,3.7980884 8.1610034,3.412259 8.3544243,2.8462519 8.240661,2.2692314 8.1458231,1.7863672 7.853519,1.3927328 7.4666165,1.1527412 11.195771,0.97229185 15.193147,4.3136203 15.934319,8.0838385 c 0.01455,0.074572 0.0251,0.1481884 0.03815,0.2218011 0.01489,0.6311155 -0.429497,1.2022229 -1.075235,1.3293574"
   id="path3758"
   style="fill:url(#oomox);stroke-width:0.0327354" />
 <path
   d="M 0.0252181,10.592368 C -0.11028316,9.9008935 0.31349261,9.2293954 0.97874588,9.0532965 1.0165281,9.0458532 1.0549987,9.0415302 1.0921729,9.0340509 3.4920682,8.5615438 5.1530276,6.4358274 5.1288481,4.0729463 5.5144219,4.4682409 6.0873156,4.6685429 6.6710098,4.5535088 7.1458802,4.4605345 7.5346062,4.1764699 7.7756848,3.7980884 7.9352866,7.5116978 5.3600806,10.89744 1.6039809,11.636591 c -0.054884,0.0098 -0.1088245,0.01864 -0.1634048,0.02792 -0.66335123,0.0602 -1.28209599,-0.397469 -1.415358,-1.072134"
   id="path3762"
   class="ColorScheme-Text"
   style="fill:url(#oomox);stroke-width:0.0327354" />
 <path
   d="M 7.0736109,12.90837 C 7.7853394,13.048503 8.4806727,12.576575 8.622308,11.856323 8.7525031,11.194705 8.3699797,10.550095 7.7543356,10.34174 7.6947828,10.333041 7.6356494,10.322526 7.5770267,10.311366 5.1889294,9.84126 2.6589758,4.4267104 2.667031,2.0777406 2.2826522,2.4690364 1.712237,2.6656301 1.1319471,2.5508836 0.65240953,2.4566649 0.26093797,2.1677067 0.02033718,1.7838578 -0.13216735,5.4917398 3.3147314,12.176675 7.0655885,12.914222 c 0.00153,6.09e-4 0.00435,6.09e-4 0.00678,6.09e-4 z"
   id="path3756"
   class="ColorScheme-Text"
   style="fill:url(#oomox);stroke-width:0.0327354" />
 <path
   class="ColorScheme-Text"
   d="m 14.563607,0.01944328 c 0.662124,-0.05873261 1.278982,0.39783478 1.41106,1.07156872 0.136061,0.6934302 -0.289251,1.3665386 -0.956615,1.5414224 -0.02109,0.00352 -0.04127,0.0057 -0.06137,0.00976 C 12.56667,3.1125092 11.470372,10.594533 11.482132,12.945858 11.09651,12.565203 10.533572,12.375342 9.9607005,12.488009 9.4728193,12.583219 9.0754306,12.881034 8.837325,13.274171 8.6643603,9.5509003 10.680705,0.7792439 14.44486,0.03915135 14.48425,0.03156125 14.52392,0.02679521 14.563609,0.01944298"
   id="path3760"
   style="fill:url(#oomox);stroke-width:0.0327354" />
 <path
   style="fill:url(#oomox);fill-opacity:1;fill-rule:evenodd;stroke:url(#oomox);stroke-width:0.0491031"
   id="path3860"
   class="ColorScheme-Text"
   d="m 10.11338,14.189501 c 0.100819,0.07409 -0.05011,0.172484 -0.1231123,0.167605 -0.1978414,-0.01322 -0.2660853,-0.253655 -0.2120266,-0.413879 0.096698,-0.2866 0.4485059,-0.37226 0.7044739,-0.256535 0.375645,0.169831 0.480923,0.646002 0.300941,0.995359 -0.239887,0.465637 -0.8440831,0.590873 -1.2858363,0.345467 C 8.9419182,14.7187 8.7966752,13.98461 9.1079643,13.45068 c 0.3770125,-0.646662 1.2415327,-0.812024 1.8671997,-0.434402 0.737326,0.445015 0.922773,1.440802 0.47877,2.15832 -0.51262,0.828406 -1.6395763,1.034037 -2.4485626,0.523335 C 8.0861503,15.117641 7.860402,13.858848 8.4376872,12.95813 9.085314,11.947662 10.475578,11.70169 11.467611,12.345865 c 1.101347,0.715153 1.36745,2.237564 0.656599,3.321283" />
 <path
   style="fill:url(#oomox);fill-rule:evenodd;stroke:url(#oomox);stroke-width:0.0392824"
   id="path3860-3"
   class="ColorScheme-Text"
   d="M 6.5144047,2.5174386 C 6.4337481,2.4581696 6.5544895,2.3794525 6.6128946,2.3833559 6.7711675,2.3939339 6.8257627,2.5862794 6.7825158,2.714458 6.705157,2.9437394 6.4237107,3.0122672 6.2189358,2.9196869 5.9184204,2.783822 5.8341976,2.4028853 5.9781829,2.1233999 6.1700931,1.7508896 6.6534497,1.6507001 7.0068523,1.8470248 7.4515734,2.0940795 7.567768,2.681352 7.3187368,3.1084967 7.0171266,3.6258263 6.3255111,3.7581157 5.8249774,3.4560179 5.2351161,3.1000062 5.0867585,2.3033766 5.4419613,1.729361 5.8520573,1.0666374 6.753622,0.90213267 7.4008109,1.3106939 8.1361876,1.774927 8.3167867,2.7819617 7.8549582,3.5025354 7.3368567,4.3109106 6.2246458,4.5076877 5.431019,3.992349 4.5499429,3.4202249 4.3370598,2.2022973 4.9057402,1.3353223" />
 <path
   style="fill:url(#oomox);fill-opacity:1;fill-rule:evenodd;stroke:url(#oomox);stroke-width:0.0261882"
   id="path3860-3-5"
   class="ColorScheme-Text"
   d="m 1.2868067,0.96559881 c 0.053771,-0.039513 -0.026723,-0.0919908 -0.06566,-0.0893886 C 1.1156315,0.88326229 1.0792349,1.0114928 1.1080661,1.0969451 1.1596384,1.2497993 1.3472693,1.2954843 1.4837858,1.2337645 1.6841293,1.1431877 1.7402781,0.88922994 1.6442877,0.70290626 1.5163476,0.45456607 1.1941097,0.38777309 0.95850802,0.51865627 0.66202727,0.68335936 0.58456426,1.0748744 0.75058513,1.3596378 0.9516586,1.7045241 1.4127357,1.7927168 1.7464248,1.5913184 2.1396658,1.3539773 2.2385707,0.82289073 2.0017687,0.44021374 1.7283715,-0.00160202 1.1273282,-0.11127189 0.69586912,0.16110224 0.20561781,0.47059104 0.08521853,1.1419476 0.39310409,1.6223302 0.73850508,2.1612467 1.4799792,2.2924316 2.0090636,1.9488724 2.5964478,1.5674564 2.7383699,0.75550452 2.3592498,0.17752118" />
 </svg>
