<?xml version="1.0" encoding="UTF-8" standalone="no"?>
<svg
   width="16"
   height="16"
   version="1"
   id="svg5"
   xmlns="http://www.w3.org/2000/svg"
   xmlns:svg="http://www.w3.org/2000/svg">
  <defs>
   <style id="current-color-scheme" type="text/css">
   .ColorScheme-Text { color: #0abdc6; } .ColorScheme-Highlight { color:#5294e2; }
  </style>
  <linearGradient id="arrongin" x1="0%" x2="0%" y1="0%" y2="100%">
   <stop offset="0%" style="stop-color:#dd9b44; stop-opacity:1"/>
   <stop offset="100%" style="stop-color:#ad6c16; stop-opacity:1"/>
  </linearGradient>
  <linearGradient id="aurora" x1="0%" x2="0%" y1="0%" y2="100%">
   <stop offset="0%" style="stop-color:#09D4DF; stop-opacity:1"/>
   <stop offset="100%" style="stop-color:#9269F4; stop-opacity:1"/>
  </linearGradient>
  <linearGradient id="cyberneon" x1="0%" x2="0%" y1="0%" y2="100%">
    <stop offset="0" style="stop-color:#0abdc6; stop-opacity:1"/>
    <stop offset="1" style="stop-color:#ea00d9; stop-opacity:1"/>
  </linearGradient>
  <linearGradient id="fitdance" x1="0%" x2="0%" y1="0%" y2="100%">
   <stop offset="0%" style="stop-color:#1AD6AB; stop-opacity:1"/>
   <stop offset="100%" style="stop-color:#329DB6; stop-opacity:1"/>
  </linearGradient>
  <linearGradient id="oomox" x1="0%" x2="0%" y1="0%" y2="100%">
   <stop offset="0%" style="stop-color:#0abdc6; stop-opacity:1"/>
   <stop offset="100%" style="stop-color:#b800ff; stop-opacity:1"/>
  </linearGradient>
  <linearGradient id="rainblue" x1="0%" x2="0%" y1="0%" y2="100%">
   <stop offset="0%" style="stop-color:#00F260; stop-opacity:1"/>
   <stop offset="100%" style="stop-color:#0575E6; stop-opacity:1"/>
  </linearGradient>
  <linearGradient id="sunrise" x1="0%" x2="0%" y1="0%" y2="100%">
   <stop offset="0%" style="stop-color: #FF8501; stop-opacity:1"/>
   <stop offset="100%" style="stop-color: #FFCB01; stop-opacity:1"/>
  </linearGradient>
  <linearGradient id="telinkrin" x1="0%" x2="0%" y1="0%" y2="100%">
   <stop offset="0%" style="stop-color: #b2ced6; stop-opacity:1"/>
   <stop offset="100%" style="stop-color: #6da5b7; stop-opacity:1"/>
  </linearGradient>
  <linearGradient id="60spsycho" x1="0%" x2="0%" y1="0%" y2="100%">
   <stop offset="0%" style="stop-color: #df5940; stop-opacity:1"/>
   <stop offset="25%" style="stop-color: #d8d15f; stop-opacity:1"/>
   <stop offset="50%" style="stop-color: #e9882a; stop-opacity:1"/>
   <stop offset="100%" style="stop-color: #279362; stop-opacity:1"/>
  </linearGradient>
  <linearGradient id="90ssummer" x1="0%" x2="0%" y1="0%" y2="100%">
   <stop offset="0%" style="stop-color: #f618c7; stop-opacity:1"/>
   <stop offset="20%" style="stop-color: #94ffab; stop-opacity:1"/>
   <stop offset="50%" style="stop-color: #fbfd54; stop-opacity:1"/>
   <stop offset="100%" style="stop-color: #0f83ae; stop-opacity:1"/>
  </linearGradient>
 </defs>
  <rect
     style="opacity:1;fill:url(#oomox);stroke:none;stroke-width:1.45651"
     id="rect2"
     class="ColorScheme-Text"
     width="3.1508951"
     height="2.6393862"
     x="12.358056"
     y="0.56393862" />
  <path
     id="rect1"
     class="ColorScheme-Text"
     style="fill:url(#oomox)"
     d="M 0.76171875,0.5 C 0.339572,0.5 0,0.8226694 0,1.2226562 V 12.777344 C 0,13.177329 0.339572,13.5 0.76171875,13.5 H 15.238281 C 15.660429,13.5 16,13.177329 16,12.777344 V 1.2226562 C 16,0.8226694 15.660429,0.5 15.238281,0.5 Z M 2,1.5 a 1,1 0 0 1 1,1 1,1 0 0 1 -1,1 1,1 0 0 1 -1,-1 1,1 0 0 1 1,-1 z m 11,0 h 1 1 L 14.5,2.3339844 14,3.1660156 13.5,2.3339844 Z m -7,2 h 1.4609375 v 1.8046875 c 0,0.1878786 -0.00646,0.3709168 -0.019531,0.5527344 -0.01307,0.1818179 -0.025992,0.3266579 -0.039062,0.4296875 h 0.058594 C 7.6047281,6.0810493 7.7972329,5.906972 8.0390625,5.7675781 c 0.2418299,-0.1454545 0.5557861,-0.21875 0.9414063,-0.21875 0.6013054,0 1.0883902,0.2198872 1.4609372,0.65625 C 10.813955,6.6353803 11,7.3763273 11,8.21875 11,9.0672334 10.810724,9.4093402 10.431641,9.845703 10.052555,10.282067 9.5557842,10.5 8.9414062,10.5 8.5492498,10.5 8.2385235,10.435868 8.0097656,10.308594 7.7875442,10.175261 7.6047283,10.026917 7.4609375,9.863281 H 7.3632812 L 7.1171875,10.5 H 6 Z m 2.5585938,3.0996094 c -0.3964451,0 -0.6777509,0.1190787 -0.8417969,0.3574218 C 7.5527506,7.188932 7.4677775,7.541474 7.4609375,8.0117188 v 0.1542968 c 0,0.5088946 0.079117,0.5999597 0.2363281,0.8769532 0.1640462,0.270551 0.4570734,0.40625 0.8808594,0.40625 0.3144219,-1e-7 0.5634952,-0.135699 0.7480469,-0.40625 C 9.5107248,8.7659753 9.6035156,8.6715857 9.6035156,8.15625 9.6035156,7.6409134 9.507794,7.2537619 9.3164062,6.9960938 9.1318541,6.7319839 8.8798505,6.5996094 8.5585938,6.5996094 Z" />
  <path
     id="path2"
     style="opacity:0.3;fill:#000000;fill-opacity:1"
     d="m 0,3.5 v 9.277344 C 0,13.177454 0.33962392,13.5 0.76171875,13.5 H 15.238281 C 15.660376,13.5 16,13.177454 16,12.777344 V 3.5 H 7.4609375 v 1.8046875 c 0,0.1878788 -0.00646,0.3709166 -0.019531,0.5527344 -0.01307,0.1818181 -0.025993,0.3266578 -0.039062,0.4296875 h 0.058594 c 0.1437898,-0.2060603 0.3362954,-0.3801373 0.578125,-0.5195313 0.2418296,-0.1454547 0.5557859,-0.21875 0.9414063,-0.21875 0.6013058,0 1.0883862,0.2198867 1.4609372,0.65625 C 10.813955,6.6353807 11,7.3763265 11,8.21875 11,9.0672343 10.810725,9.4093396 10.431641,9.845703 10.052556,10.282067 9.5557852,10.5 8.9414062,10.5 8.54925,10.5 8.2385231,10.435868 8.0097656,10.308594 7.787544,10.175261 7.6047283,10.026917 7.4609375,9.863281 H 7.3632812 L 7.1171875,10.5 H 6 v -7 z m 8.5585938,3.0996094 c -0.3964454,0 -0.6777512,0.1190784 -0.8417969,0.3574218 -0.1640457,0.231901 -0.2490594,0.5844424 -0.2558594,1.0546876 v 0.1542968 c 0,0.5088953 0.079116,0.5999594 0.2363281,0.8769532 0.1640458,0.2705507 0.4570732,0.40625 0.8808594,0.40625 0.3144215,-1e-7 0.5634953,-0.1356993 0.7480469,-0.40625 C 9.5107275,8.765975 9.6035156,8.6715867 9.6035156,8.15625 9.6035156,7.6409129 9.507794,7.2537622 9.3164062,6.9960938 9.1318536,6.7319837 8.8798511,6.5996094 8.5585938,6.5996094 Z" />
  <circle
     style="fill:url(#oomox)"
     cx="8"
     cy="13.5"
     r="2"
     id="circle3"
     class="ColorScheme-Text" />
  <circle
     style="fill:url(#oomox)"
     cx="2"
     cy="2.5"
     r="0.667"
     class="ColorScheme-Text"
     id="circle5" />
</svg>
