<?xml version="1.0" encoding="UTF-8" standalone="no"?>

<svg
   width="16"
   height="16"
   fill-rule="evenodd"
   clip-rule="evenodd"
   image-rendering="optimizeQuality"
   shape-rendering="geometricPrecision"
   text-rendering="geometricPrecision"
   version="1.0"
   id="svg6"
   xmlns:xlink="http://www.w3.org/1999/xlink"
   xmlns="http://www.w3.org/2000/svg"
   xmlns:svg="http://www.w3.org/2000/svg"
   xmlns:rdf="http://www.w3.org/1999/02/22-rdf-syntax-ns#"
   xmlns:cc="http://creativecommons.org/ns#"
   xmlns:dc="http://purl.org/dc/elements/1.1/">
  <defs>
    <style id="current-color-scheme" type="text/css">
      .ColorScheme-Text { color: #0abdc6; } .ColorScheme-Highlight { color:#5294e2; }
    </style>
    <linearGradient id="arrongin" x1="0%" x2="0%" y1="0%" y2="100%">
      <stop offset="0%" style="stop-color:#dd9b44; stop-opacity:1"/>
      <stop offset="100%" style="stop-color:#ad6c16; stop-opacity:1"/>
    </linearGradient>
    <linearGradient id="aurora" x1="0%" x2="0%" y1="0%" y2="100%">
      <stop offset="0%" style="stop-color:#09D4DF; stop-opacity:1"/>
      <stop offset="100%" style="stop-color:#9269F4; stop-opacity:1"/>
    </linearGradient>
    <linearGradient id="cyberneon" x1="0%" x2="0%" y1="0%" y2="100%">
      <stop offset="0" style="stop-color:#0abdc6; stop-opacity:1"/>
      <stop offset="1" style="stop-color:#ea00d9; stop-opacity:1"/>
    </linearGradient>
    <linearGradient id="fitdance" x1="0%" x2="0%" y1="0%" y2="100%">
      <stop offset="0%" style="stop-color:#1AD6AB; stop-opacity:1"/>
      <stop offset="100%" style="stop-color:#329DB6; stop-opacity:1"/>
    </linearGradient>
    <linearGradient id="oomox" x1="0%" x2="0%" y1="0%" y2="100%">
      <stop offset="0%" style="stop-color:#0abdc6; stop-opacity:1"/>
      <stop offset="100%" style="stop-color:#b800ff; stop-opacity:1"/>
    </linearGradient>
    <linearGradient id="rainblue" x1="0%" x2="0%" y1="0%" y2="100%">
      <stop offset="0%" style="stop-color:#00F260; stop-opacity:1"/>
      <stop offset="100%" style="stop-color:#0575E6; stop-opacity:1"/>
    </linearGradient>
    <linearGradient id="sunrise" x1="0%" x2="0%" y1="0%" y2="100%">
      <stop offset="0%" style="stop-color: #FF8501; stop-opacity:1"/>
      <stop offset="100%" style="stop-color: #FFCB01; stop-opacity:1"/>
    </linearGradient>
    <linearGradient id="telinkrin" x1="0%" x2="0%" y1="0%" y2="100%">
      <stop offset="0%" style="stop-color: #b2ced6; stop-opacity:1"/>
      <stop offset="100%" style="stop-color: #6da5b7; stop-opacity:1"/>
    </linearGradient>
    <linearGradient id="60spsycho" x1="0%" x2="0%" y1="0%" y2="100%">
      <stop offset="0%" style="stop-color: #df5940; stop-opacity:1"/>
      <stop offset="25%" style="stop-color: #d8d15f; stop-opacity:1"/>
      <stop offset="50%" style="stop-color: #e9882a; stop-opacity:1"/>
      <stop offset="100%" style="stop-color: #279362; stop-opacity:1"/>
    </linearGradient>
    <linearGradient id="90ssummer" x1="0%" x2="0%" y1="0%" y2="100%">
      <stop offset="0%" style="stop-color: #f618c7; stop-opacity:1"/>
      <stop offset="20%" style="stop-color: #94ffab; stop-opacity:1"/>
      <stop offset="50%" style="stop-color: #fbfd54; stop-opacity:1"/>
      <stop offset="100%" style="stop-color: #0f83ae; stop-opacity:1"/>
    </linearGradient>
  </defs>
  <path
     d="m 8.0000041,0 c 0.6846953,0 1.3686615,0.08717302 2.0310169,0.26002626 v 7.464e-4 c 1.680103,0.44032618 3.145606,1.41335904 4.203573,2.72689084 0.01192,1.0579841 -0.125153,2.1904349 -0.410522,3.3974393 0.441072,-0.9484536 0.761453,-1.8969072 0.817329,-2.8453608 0.521528,0.7741075 0.910439,1.6435812 1.135454,2.5778705 -0.306199,0.8434189 -0.742811,1.5564255 -1.27031,2.1785444 0.470877,-0.2950378 0.94099,-0.7748539 1.411866,-1.4394484 0.117783,0.8221008 0.107988,1.6574549 -0.02904,2.4765678 -0.575182,0.5788969 -1.149636,0.9499287 -1.724054,1.2606237 0.467145,0.03426 0.969301,-0.07377 1.507979,-0.323349 -0.821045,2.778289 -3.142621,4.925536 -5.9522236,5.543923 C 9.2494493,15.318272 9.0520168,14.749807 8.6347945,14.025605 8.611708,14.473395 8.8471203,15.170762 9.1742014,15.915048 8.3971082,16.029057 7.6036289,16.029057 6.8265531,15.914319 7.1536168,15.169998 7.3883174,14.473395 7.3652136,14.025605 6.9479913,14.74979 6.7512878,15.318272 6.2796821,15.813728 3.4715721,15.19758 1.1477566,13.047347 0.3267124,10.270551 0.8653903,10.520145 1.3675465,10.628165 1.8346912,10.5939 1.2602553,10.283205 0.68581942,9.9121732 0.11063716,9.3332763 -0.0263947,8.51417 -0.03619593,7.6788219 0.08157949,6.8567258 0.55245616,7.521303 1.0233328,8.0011191 1.4934631,8.2961569 0.96671027,7.674038 0.52936971,6.9610314 0.22315321,6.1176298 0.44889697,5.1833232 0.83780807,4.3138495 1.358607,3.5397593 1.4145005,4.4881956 1.7348639,5.4366492 2.1759366,6.3851028 1.8905673,5.1781157 1.7534894,4.0456302 1.7654145,2.9876635 2.6296807,1.9140398 3.7666099,1.068399 5.0697268,0.55506407 V 0.55431766 C 6.0002667,0.18701755 7.000118,0 8.0000041,0 5.0860956,0 2.7235366,2.362559 2.7235366,5.2764674 c 0,1.488607 0.6169114,2.8334357 1.6093161,3.7923043 C 4.1696853,6.5817889 5.4176551,4.5671755 7.1938532,4.1909359 6.5769418,4.1290886 6.0673389,4.2460483 5.607641,4.5314176 5.8594741,4.1536678 6.2685034,3.9785754 6.5590802,3.8407337 5.9905982,3.8578836 5.5353787,3.9986935 4.9668967,4.3958151 7.4158823,1.3813331 12.956837,4.7720547 10.945938,6.8060572 11.1784,5.9760735 10.231439,5.4686925 9.2226309,5.4701679 6.0516992,5.4731535 6.7952562,9.4211958 9.5817552,9.6476859 11.988265,9.8428792 13.276454,7.3886861 13.276454,5.2764674 13.276454,2.362559 10.913895,0 8.0000041,0 Z M 8.5781719,4.068734 C 9.2002908,4.3026708 9.7665162,4.1335496 9.4997897,4.4986279 9.1645155,4.3980369 8.8635238,4.2453019 8.5781719,4.068734 Z"
     id="path_betterbird"
    class="ColorScheme-Text"
     style="fill:url(#oomox);stroke-width:0.0173582" />
  <metadata
     id="metadata6">
    <rdf:RDF>
      <cc:Work
         rdf:about="">
        <dc:creator>
          <cc:Agent>
            <dc:title>dreifacherspass</dc:title>
          </cc:Agent>
        </dc:creator>
        <cc:license
           rdf:resource="http://creativecommons.org/licenses/by-sa/4.0/" />
      </cc:Work>
      <cc:License
         rdf:about="http://creativecommons.org/licenses/by-sa/4.0/">
        <cc:permits
           rdf:resource="http://creativecommons.org/ns#Reproduction" />
        <cc:permits
           rdf:resource="http://creativecommons.org/ns#Distribution" />
        <cc:requires
           rdf:resource="http://creativecommons.org/ns#Notice" />
        <cc:requires
           rdf:resource="http://creativecommons.org/ns#Attribution" />
        <cc:permits
           rdf:resource="http://creativecommons.org/ns#DerivativeWorks" />
        <cc:requires
           rdf:resource="http://creativecommons.org/ns#ShareAlike" />
      </cc:License>
    </rdf:RDF>
  </metadata>
</svg>
