<?xml version="1.0" encoding="UTF-8" standalone="no"?>
<!-- Created with Inkscape (http://www.inkscape.org/) -->

<svg
   version="1.1"
   id="svg48"
   width="16"
   height="16"
   viewBox="0 0 16 16"
   xmlns="http://www.w3.org/2000/svg"
   xmlns:svg="http://www.w3.org/2000/svg"
   xmlns:rdf="http://www.w3.org/1999/02/22-rdf-syntax-ns#"
   xmlns:cc="http://creativecommons.org/ns#"
   xmlns:dc="http://purl.org/dc/elements/1.1/">
   <defs>
      <style id="current-color-scheme" type="text/css">
         .ColorScheme-Text { color: #0abdc6; } .ColorScheme-Highlight { color:#5294e2; }
      </style>
      <linearGradient id="arrongin" x1="0%" x2="0%" y1="0%" y2="100%">
         <stop offset="0%" style="stop-color:#dd9b44; stop-opacity:1"/>
         <stop offset="100%" style="stop-color:#ad6c16; stop-opacity:1"/>
      </linearGradient>
      <linearGradient id="aurora" x1="0%" x2="0%" y1="0%" y2="100%">
         <stop offset="0%" style="stop-color:#09D4DF; stop-opacity:1"/>
         <stop offset="100%" style="stop-color:#9269F4; stop-opacity:1"/>
      </linearGradient>
      <linearGradient id="cyberneon" x1="0%" x2="0%" y1="0%" y2="100%">
         <stop offset="0" style="stop-color:#0abdc6; stop-opacity:1"/>
         <stop offset="1" style="stop-color:#ea00d9; stop-opacity:1"/>
      </linearGradient>
      <linearGradient id="fitdance" x1="0%" x2="0%" y1="0%" y2="100%">
         <stop offset="0%" style="stop-color:#1AD6AB; stop-opacity:1"/>
         <stop offset="100%" style="stop-color:#329DB6; stop-opacity:1"/>
      </linearGradient>
      <linearGradient id="oomox" x1="0%" x2="0%" y1="0%" y2="100%">
         <stop offset="0%" style="stop-color:#0abdc6; stop-opacity:1"/>
         <stop offset="100%" style="stop-color:#b800ff; stop-opacity:1"/>
      </linearGradient>
      <linearGradient id="rainblue" x1="0%" x2="0%" y1="0%" y2="100%">
         <stop offset="0%" style="stop-color:#00F260; stop-opacity:1"/>
         <stop offset="100%" style="stop-color:#0575E6; stop-opacity:1"/>
      </linearGradient>
      <linearGradient id="sunrise" x1="0%" x2="0%" y1="0%" y2="100%">
         <stop offset="0%" style="stop-color: #FF8501; stop-opacity:1"/>
         <stop offset="100%" style="stop-color: #FFCB01; stop-opacity:1"/>
      </linearGradient>
      <linearGradient id="telinkrin" x1="0%" x2="0%" y1="0%" y2="100%">
         <stop offset="0%" style="stop-color: #b2ced6; stop-opacity:1"/>
         <stop offset="100%" style="stop-color: #6da5b7; stop-opacity:1"/>
      </linearGradient>
      <linearGradient id="60spsycho" x1="0%" x2="0%" y1="0%" y2="100%">
         <stop offset="0%" style="stop-color: #df5940; stop-opacity:1"/>
         <stop offset="25%" style="stop-color: #d8d15f; stop-opacity:1"/>
         <stop offset="50%" style="stop-color: #e9882a; stop-opacity:1"/>
         <stop offset="100%" style="stop-color: #279362; stop-opacity:1"/>
      </linearGradient>
      <linearGradient id="90ssummer" x1="0%" x2="0%" y1="0%" y2="100%">
         <stop offset="0%" style="stop-color: #f618c7; stop-opacity:1"/>
         <stop offset="20%" style="stop-color: #94ffab; stop-opacity:1"/>
         <stop offset="50%" style="stop-color: #fbfd54; stop-opacity:1"/>
         <stop offset="100%" style="stop-color: #0f83ae; stop-opacity:1"/>
      </linearGradient>
   </defs>
  <path
     id="path185"
     class="ColorScheme-Text"
     style="fill:url(#oomox);fill-opacity:1;stroke-width:0.0402796"
     d="m 12.495672,4.5044863 c -0.270453,0 -0.376164,0.065035 -0.486267,0.299265 -0.112204,0.2386912 -0.300588,0.420481 -0.559115,0.5394478 -0.292193,0.1344831 -0.537856,0.1539756 -0.831867,0.066084 -0.130609,-0.039043 -0.272109,-0.069144 -0.31445,-0.066949 -0.08735,0.00453 -0.4186481,0.3101691 -0.4640807,0.4281283 -0.017478,0.045366 8.338e-4,0.1769099 0.044055,0.3157858 0.096369,0.3096189 0.093534,0.4981259 -0.011879,0.7798669 -0.1034886,0.2765868 -0.3373161,0.541673 -0.577288,0.6544651 -0.2384259,0.11208 -0.3034344,0.2166858 -0.3034344,0.4882328 0,0.2704394 0.065033,0.376179 0.2992651,0.486266 0.239169,0.1124297 0.4204986,0.300695 0.5403131,0.5610039 0.1356468,0.2947236 0.1529714,0.5622454 0.05617,0.8687652 -0.091751,0.2905289 -0.077008,0.3420739 0.1644219,0.5762659 0.201771,0.195707 0.271741,0.209503 0.562499,0.110769 0.258991,-0.08795 0.463848,-0.08239 0.737463,0.01998 0.280011,0.104773 0.514768,0.310589 0.643058,0.563757 0.129261,0.255066 0.227837,0.317517 0.501135,0.317517 0.138099,0 0.258263,-0.02425 0.313977,-0.06325 0.04965,-0.03477 0.13392,-0.149185 0.187159,-0.254265 0.128289,-0.253169 0.36303,-0.458987 0.643057,-0.563758 0.273598,-0.102372 0.478485,-0.107926 0.737463,-0.01998 0.290758,0.09874 0.360714,0.08494 0.562498,-0.110769 0.240188,-0.232985 0.255784,-0.286067 0.167491,-0.5697356 -0.09637,-0.3096334 -0.09344,-0.4981404 0.01196,-0.7798668 0.103496,-0.2765868 0.33732,-0.5416585 0.57729,-0.6544653 C 15.935004,8.3849627 16,8.2803425 16,8.0088099 16,7.7383561 15.934869,7.6326454 15.700656,7.5225435 15.182415,7.278949 14.913054,6.623841 15.105509,6.0751524 15.153559,5.9381128 15.171489,5.8226775 15.152399,5.7730554 15.106269,5.6531197 14.775608,5.346908 14.687294,5.342331 14.644954,5.340141 14.503453,5.370238 14.372847,5.40928 13.825454,5.5729069 13.219496,5.3091042 12.98194,4.8037514 12.871856,4.5695215 12.766114,4.5044864 12.495672,4.5044863 Z m 0.02644,2.3361391 a 1.1872393,1.1854332 0 0 1 1.187226,1.1854162 1.1872393,1.1854332 0 0 1 -1.187226,1.1854165 1.1872393,1.1854332 0 0 1 -1.187305,-1.1854165 1.1872393,1.1854332 0 0 1 1.187305,-1.1854162 z" />
  <path
     id="path12845"
     class="ColorScheme-Text"
     style="fill:url(#oomox);fill-opacity:1;stroke:none;stroke-width:0.0140979;stroke-dasharray:none;stroke-opacity:1"
     d="m 4.8734887,11.74947 c -0.02662,-0.155306 -0.038862,-0.143908 0.1511407,-0.140732 0.088464,0.0015 0.1671438,0.005 0.1748441,0.0077 0.00847,0.0031 -0.046969,0.05079 -0.1401759,0.120668 -0.084797,0.06357 -0.1573103,0.115577 -0.1611402,0.115577 -0.00383,0 -0.01493,-0.04648 -0.024669,-0.103289 z M 0.5965751,10.713005 C 0.2920248,10.033603 0.07994095,9.2514561 0.03727316,8.6503493 L 0.01942083,8.3988443 H 1.8721244 3.7248276 l 0.01642,0.1922533 c 0.00903,0.1057397 0.023961,0.3140139 0.033177,0.4628325 0.023736,0.38329 0.1239029,1.4677539 0.1519673,1.6452869 l 0.023565,0.149078 H 2.3035891 0.65722018 Z m -0.54014234,3.610092 c -0.17540482,-0.175405 0.07463503,-0.992508 0.52104785,-1.702726 0.21930989,-0.303474 0.14046518,-0.399426 0.39767456,-0.07152 0.21485053,0.25754 0.76769503,0.798447 0.98056673,0.959395 0.080606,0.06094 0.1404957,0.126601 0.1330891,0.145903 -0.01311,0.03416 -0.7277752,0.388531 -1.085735,0.538363 -0.22209832,0.09297 -0.60825397,0.187092 -0.76863083,0.187356 -0.0832677,1.21e-4 -0.1388276,-0.01758 -0.17801241,-0.05676 z M 4.5423454,14.112294 C 4.0559804,13.948729 3.6456553,13.79197 3.6077917,13.755257 c -0.01889,-0.01832 0.7770759,-0.593865 0.8611636,-0.622692 0.013684,-0.0047 0.047708,0.05299 0.075609,0.128168 0.070915,0.191092 0.3337053,0.739045 0.4241222,0.884351 0.041428,0.06658 0.064984,0.120917 0.052347,0.120756 -0.012637,-1.61e-4 -0.2280462,-0.06926 -0.4786881,-0.153546 z M 2.531749,13.09522 C 2.2004245,12.841543 1.5157199,12.16126 1.2996858,11.87111 1.2111703,11.752228 1.1387483,11.646489 1.1387483,11.636134 c 0,-0.01037 0.6634716,-0.01882 1.4743811,-0.01882 H 4.087511 l 0.065721,0.30618 c 0.036148,0.168401 0.072359,0.334114 0.08047,0.368253 0.012902,0.05431 -0.071362,0.119549 -0.6735288,0.521505 -0.3785516,0.25269 -0.7045176,0.465668 -0.724369,0.473285 -0.019851,0.0076 -0.1566764,-0.07848 -0.3040552,-0.191312 z m 3.6625521,1.25379 C 6.0173897,14.247657 5.919754,14.160777 5.7879933,13.987462 5.6440485,13.798121 5.2958409,13.115078 5.1938538,12.822001 l -0.051571,-0.148202 0.070298,-0.07572 c 0.038664,-0.04164 0.3227762,-0.27935 0.6313608,-0.528245 L 6.405004,11.617306 h 0.7260663 c 0.399336,0 0.7330405,0.01128 0.7415657,0.02508 0.018618,0.03013 -0.1948579,0.781681 -0.3407542,1.19964 -0.2164256,0.620011 -0.5797493,1.227484 -0.8495889,1.420504 -0.1515186,0.108385 -0.3792982,0.14875 -0.4879918,0.08648 z m 1.5805111,-0.19647 c 0.033333,-0.04681 0.1233382,-0.21912 0.2000136,-0.382908 0.4952411,-1.057897 0.8128877,-2.468014 0.9836765,-4.3667978 0.022061,-0.2452699 0.061669,-0.2647967 0.1682426,-0.082943 0.083861,0.1430977 0.089656,0.2352489 0.027879,0.4432761 -0.05923,0.1994507 -0.058866,0.5891677 7.17e-4,0.7685587 0.08968,0.269999 0.5807455,0.757366 0.8339741,0.82769 0.15832,0.04396 0.602671,0.03677 0.764697,-0.01237 0.308419,-0.09357 0.450868,-0.02675 0.616835,0.289281 l 0.106759,0.203284 -0.181629,0.223515 c -0.592441,0.729073 -1.6193842,1.486551 -2.5240534,1.861756 -0.2150882,0.08921 -0.9422807,0.312777 -1.0173489,0.312777 -0.030315,0 -0.025275,-0.02119 0.02024,-0.08511 z m -0.455473,-3.316281 c 0,-0.03467 0.7842353,-0.697072 0.7932518,-0.670022 0.011291,0.03387 -0.046078,0.547756 -0.070581,0.632215 -0.012772,0.04402 -0.055818,0.04984 -0.3685652,0.04984 -0.194758,0 -0.3541057,-0.0055 -0.3541056,-0.01204 z M 4.6746841,10.599078 C 4.6191728,10.163556 4.5302281,9.1813664 4.5102499,8.7832752 L 4.4909567,8.3988443 H 6.3772389 8.2635215 L 8.2437845,8.6623027 C 8.2279868,8.8731758 8.2119266,8.9392621 8.1633208,8.9934039 8.043538,9.1268294 7.1806509,9.9313836 6.6703327,10.385463 L 6.1501772,10.848295 H 5.4283134 4.7064491 Z M 11.819362,3.4975419 C 11.701946,3.354254 11.455404,3.0918299 11.271491,2.9143773 11.07868,2.7283387 10.943165,2.5759814 10.951419,2.5545248 c 0.02966,-0.077092 1.17802,-0.6759698 1.508966,-0.7869299 0.204279,-0.068491 0.576465,-0.1474637 0.694972,-0.1474637 0.04887,0 0.119055,0.029256 0.164973,0.068771 0.07214,0.06207 0.07925,0.084483 0.07304,0.2300323 -0.01246,0.2924169 -0.292861,1.0047455 -0.611135,1.5525256 l -0.157214,0.2705787 -0.296089,0.00801 -0.296087,0.00801 z m -0.05683,-0.1783183 c 0,-0.0054 -0.02884,-0.034243 -0.06408,-0.064085 l -0.06408,-0.054258 0.05426,0.064085 c 0.05099,0.060223 0.07391,0.07705 0.07391,0.054258 z M 11.534674,3.0646191 c 0,-0.00445 -0.0737,-0.078148 -0.163772,-0.1637713 L 11.20713,2.7451695 11.362809,2.9089411 c 0.144629,0.1521486 0.171865,0.1768187 0.171865,0.155678 z M 11.192891,2.7504984 c 0,-0.0049 -0.04166,-0.046556 -0.09257,-0.092566 l -0.09257,-0.083655 0.08366,0.092566 c 0.07798,0.086284 0.101478,0.1056589 0.101478,0.083655 z M 8.9930506,6.8160127 C 8.9840465,6.8014439 8.9555115,6.5716563 8.9296395,6.3053743 8.7473385,4.4290804 8.4235887,3.1146504 7.8896409,2.0829634 7.7984321,1.9067312 7.7257512,1.7625411 7.7281278,1.7625411 c 0.00238,0 0.1351928,0.037407 0.2951479,0.083127 0.6818715,0.1948986 1.3315107,0.4911443 1.8843789,0.8593068 0.5447814,0.3627767 1.5420924,1.3242411 1.5412334,1.4858364 -2.02e-4,0.035147 -0.04259,0.140805 -0.09423,0.2347955 -0.07253,0.132014 -0.122671,0.1857993 -0.220395,0.2364188 -0.135174,0.070016 -0.164924,0.069482 -0.453164,-0.00815 -0.254408,-0.06852 -0.59312,-0.050098 -0.7853151,0.042712 C 9.6933209,4.794354 9.2768401,5.2135597 9.1872712,5.4097326 9.068064,5.6708179 9.0635007,5.9350541 9.1715378,6.3207631 9.1917417,6.3928952 9.1994627,6.4941952 9.189005,6.5499373 9.1688175,6.6575461 9.0199998,6.8596166 8.9930506,6.8160127 Z M 4.8698884,4.3809249 c 0,-0.061347 0.1496079,-0.618953 0.2468081,-0.9198844 0.2997037,-0.9278779 0.6941354,-1.5826023 1.067359,-1.7717291 0.1631231,-0.082661 0.2021739,-0.084244 0.3559312,-0.014424 0.4463118,0.202664 0.9177303,1.0697542 1.2245183,2.252285 0.054864,0.2114784 0.1061794,0.406936 0.1140333,0.4343499 0.013471,0.047023 -0.071244,0.049843 -1.4971852,0.049843 -1.0535004,0 -1.5114647,-0.00922 -1.5114647,-0.03044 z m -3.7311401,0.00478 c 0,-0.086401 0.658487,-0.8318324 1.0029046,-1.135326 C 2.8826413,2.5974375 3.7282055,2.1334517 4.672406,1.8616824 4.8618522,1.807154 5.0220782,1.7625399 5.0284633,1.7625399 c 0.00638,0 -0.034803,0.072553 -0.091527,0.1612296 C 4.706176,2.2845057 4.4110384,3.0762558 4.2033478,3.891725 L 4.0818823,4.3686429 3.5431006,4.3862913 C 2.6823939,4.4144843 1.1387483,4.414109 1.1387483,4.3857074 Z M 0.03727316,7.3783257 C 0.07564481,6.8377426 0.25291515,6.144543 0.51740773,5.5008022 L 0.66076142,5.1518978 H 2.3045386 3.9483154 L 3.9123826,5.4295972 C 3.8823701,5.6615482 3.8190251,6.4002368 3.7414132,7.4233361 L 3.7257489,7.6298308 H 1.8725849 0.01942083 Z m 4.46234944,0.082853 c 0,-0.223363 0.072878,-1.1155665 0.1430603,-1.7513926 0.030973,-0.2806023 0.056314,-0.5209193 0.056314,-0.5340372 0,-0.013117 0.7489245,-0.02385 1.6642771,-0.02385 1.5604563,0 1.6651906,0.00311 1.6789275,0.049843 0.033329,0.113391 0.216861,2.1247089 0.2170137,2.3782461 2.83e-5,0.046967 -0.108461,0.049843 -1.879781,0.049843 H 4.4996226 Z" />
  <metadata
     id="metadata1">
    <rdf:RDF>
      <cc:Work
         rdf:about="">
        <dc:creator>
          <cc:Agent>
            <dc:title>dreifacherspass</dc:title>
          </cc:Agent>
        </dc:creator>
        <cc:license
           rdf:resource="http://creativecommons.org/licenses/by-sa/4.0/" />
      </cc:Work>
      <cc:License
         rdf:about="http://creativecommons.org/licenses/by-sa/4.0/">
        <cc:permits
           rdf:resource="http://creativecommons.org/ns#Reproduction" />
        <cc:permits
           rdf:resource="http://creativecommons.org/ns#Distribution" />
        <cc:requires
           rdf:resource="http://creativecommons.org/ns#Notice" />
        <cc:requires
           rdf:resource="http://creativecommons.org/ns#Attribution" />
        <cc:permits
           rdf:resource="http://creativecommons.org/ns#DerivativeWorks" />
        <cc:requires
           rdf:resource="http://creativecommons.org/ns#ShareAlike" />
      </cc:License>
    </rdf:RDF>
  </metadata>
</svg>
