<?xml version="1.0" encoding="UTF-8" standalone="no"?>
<!-- Created with Inkscape (http://www.inkscape.org/) -->

<svg
   width="16"
   height="16"
   id="svg6345"
   version="1.1"
   xmlns:xlink="http://www.w3.org/1999/xlink"
   xmlns="http://www.w3.org/2000/svg"
   xmlns:svg="http://www.w3.org/2000/svg"
   xmlns:rdf="http://www.w3.org/1999/02/22-rdf-syntax-ns#"
   xmlns:cc="http://creativecommons.org/ns#"
   xmlns:dc="http://purl.org/dc/elements/1.1/">
   <defs>
   <style id="current-color-scheme" type="text/css">
   .ColorScheme-Text { color: #0abdc6; } .ColorScheme-Highlight { color:#5294e2; }
  </style>
  <linearGradient id="arrongin" x1="0%" x2="0%" y1="0%" y2="100%">
   <stop offset="0%" style="stop-color:#dd9b44; stop-opacity:1"/>
   <stop offset="100%" style="stop-color:#ad6c16; stop-opacity:1"/>
  </linearGradient>
  <linearGradient id="aurora" x1="0%" x2="0%" y1="0%" y2="100%">
   <stop offset="0%" style="stop-color:#09D4DF; stop-opacity:1"/>
   <stop offset="100%" style="stop-color:#9269F4; stop-opacity:1"/>
  </linearGradient>
  <linearGradient id="cyberneon" x1="0%" x2="0%" y1="0%" y2="100%">
    <stop offset="0" style="stop-color:#0abdc6; stop-opacity:1"/>
    <stop offset="1" style="stop-color:#ea00d9; stop-opacity:1"/>
  </linearGradient>
  <linearGradient id="fitdance" x1="0%" x2="0%" y1="0%" y2="100%">
   <stop offset="0%" style="stop-color:#1AD6AB; stop-opacity:1"/>
   <stop offset="100%" style="stop-color:#329DB6; stop-opacity:1"/>
  </linearGradient>
  <linearGradient id="oomox" x1="0%" x2="0%" y1="0%" y2="100%">
   <stop offset="0%" style="stop-color:#0abdc6; stop-opacity:1"/>
   <stop offset="100%" style="stop-color:#b800ff; stop-opacity:1"/>
  </linearGradient>
  <linearGradient id="rainblue" x1="0%" x2="0%" y1="0%" y2="100%">
   <stop offset="0%" style="stop-color:#00F260; stop-opacity:1"/>
   <stop offset="100%" style="stop-color:#0575E6; stop-opacity:1"/>
  </linearGradient>
  <linearGradient id="sunrise" x1="0%" x2="0%" y1="0%" y2="100%">
   <stop offset="0%" style="stop-color: #FF8501; stop-opacity:1"/>
   <stop offset="100%" style="stop-color: #FFCB01; stop-opacity:1"/>
  </linearGradient>
  <linearGradient id="telinkrin" x1="0%" x2="0%" y1="0%" y2="100%">
   <stop offset="0%" style="stop-color: #b2ced6; stop-opacity:1"/>
   <stop offset="100%" style="stop-color: #6da5b7; stop-opacity:1"/>
  </linearGradient>
  <linearGradient id="60spsycho" x1="0%" x2="0%" y1="0%" y2="100%">
   <stop offset="0%" style="stop-color: #df5940; stop-opacity:1"/>
   <stop offset="25%" style="stop-color: #d8d15f; stop-opacity:1"/>
   <stop offset="50%" style="stop-color: #e9882a; stop-opacity:1"/>
   <stop offset="100%" style="stop-color: #279362; stop-opacity:1"/>
  </linearGradient>
  <linearGradient id="90ssummer" x1="0%" x2="0%" y1="0%" y2="100%">
   <stop offset="0%" style="stop-color: #f618c7; stop-opacity:1"/>
   <stop offset="20%" style="stop-color: #94ffab; stop-opacity:1"/>
   <stop offset="50%" style="stop-color: #fbfd54; stop-opacity:1"/>
   <stop offset="100%" style="stop-color: #0f83ae; stop-opacity:1"/>
  </linearGradient>
 </defs>
  <metadata
     id="metadata6350">
    <rdf:RDF>
      <cc:Work
         rdf:about="">
        <dc:format>image/svg+xml</dc:format>
        <dc:type
           rdf:resource="http://purl.org/dc/dcmitype/StillImage" />
        <dc:creator>
          <cc:Agent>
            <dc:title>dreifacherspass</dc:title>
          </cc:Agent>
        </dc:creator>
        <cc:license
           rdf:resource="http://creativecommons.org/licenses/by-sa/4.0/" />
      </cc:Work>
      <cc:License
         rdf:about="http://creativecommons.org/licenses/by-sa/4.0/">
        <cc:permits
           rdf:resource="http://creativecommons.org/ns#Reproduction" />
        <cc:permits
           rdf:resource="http://creativecommons.org/ns#Distribution" />
        <cc:requires
           rdf:resource="http://creativecommons.org/ns#Notice" />
        <cc:requires
           rdf:resource="http://creativecommons.org/ns#Attribution" />
        <cc:permits
           rdf:resource="http://creativecommons.org/ns#DerivativeWorks" />
        <cc:requires
           rdf:resource="http://creativecommons.org/ns#ShareAlike" />
      </cc:License>
    </rdf:RDF>
  </metadata>
  <path
     style="display:inline;fill:url(#oomox);fill-opacity:0.7;stroke:url(#oomox);stroke-width:0.0622224;stroke-linecap:round;stroke-linejoin:round;stroke-miterlimit:4;stroke-dasharray:none;stroke-opacity:0.7"
     d="M 13.178441,1.9468337 10.194448,4.4991088 9.077227,4.4262758 9.1142837,5.9148 8.1181028,6.4519014 8.5092963,7.9506566 7.705607,8.9069219 6.0581757,7.4039851 6.0271085,6.5542166 7.7274609,5.0030925 7.6030913,4.8689823 6.0765902,6.2615727 6.6580569,4.0148133 6.3377562,3.9332911 5.8105427,5.9703586 3.3558717,4.6721632 1.8690894,4.736747 2.106402,3.684769 1.9271137,3.6450528 1.6374346,4.9291666 3.3137117,4.8563335 5.7636132,6.1519992 5.691718,6.4297906 5.70525,6.8014269 4.2231283,7.3674626 2.3712243,5.914473 1.6597302,5.8062164 1.6207878,6.0583752 2.2649384,6.1562858 4.178639,7.6577927 5.7151248,7.070964 5.7326499,7.5526158 7.6801886,9.3293843 8.5543291,11.16347 6.5321233,12.081669 5.1701553,10.95433 l -3.7535125,0.233014 0.017414,0.275592 3.6427889,-0.226084 1.4115606,1.168376 2.1848523,-0.992129 0.1480012,0.310466 0.4389015,0.207932 -1.8738719,1.312718 0.1060641,0.148742 1.9577462,-1.371467 1.3631873,0.645797 3.184584,2.666032 0.213348,-0.250508 L 11.028744,12.41843 13.830787,11.044323 13.700426,10.783034 10.70445,12.252305 10.440067,12.126996 12.768704,10.16595 12.578432,9.9438264 10.149389,11.989365 9.0700001,11.478008 7.9515571,9.1313543 7.9221537,9.1045069 9.5721371,7.1409313 12.878649,4.9379587 14.002417,4.7726036 h 0.02674 V 4.4810595 h -0.04848 L 12.769816,4.6592864 9.3733272,6.9223283 8.7119803,7.7093868 8.4174197,6.5808371 9.9860799,5.7351392 9.8632632,5.5110357 9.2956653,5.8171014 9.2658182,4.6211111 10.25745,4.6858049 13.298469,2.0847925 Z"
     id="path3236"
     class="ColorScheme-Text"/>
  <path
     id="path4188"
     class="ColorScheme-Text"
     style="display:inline;fill:none;fill-opacity:1;stroke:url(#oomox);stroke-width:0.365878;stroke-linejoin:round;stroke-miterlimit:4;stroke-dasharray:none;stroke-opacity:1"
     d="M 11.005683,0.18293747 11.04762,15.809035 15.582966,15.461382 15.817061,0.58317796 Z m -0.05968,0.00275 L 5.6825178,0.94150128 5.6534472,15.058171 11.000692,15.817065 Z M 0.18293886,0.39405781 0.3393721,15.645328 5.5268562,15.051788 5.5781125,0.95063181 Z" />
  <path
     id="path6289"
     class="ColorScheme-Text"
     style="display:inline;fill:url(#oomox);fill-opacity:1;fill-rule:nonzero;stroke:none;stroke-width:0.0365878"
     d="M 13.06894,1.3287605 A 0.35773577,0.25766029 0 0 0 12.711243,1.5864194 0.35773577,0.25766029 0 0 0 13.06894,1.8440786 0.35773577,0.25766029 0 0 0 13.426753,1.5864194 0.35773577,0.25766029 0 0 0 13.06894,1.3287605 Z m -0.866053,0.4809924 a 0.39539219,0.34354705 0 0 0 -0.39539,0.343472 0.39539219,0.34354705 0 0 0 0.39539,0.343582 0.39539219,0.34354705 0 0 0 0.395315,-0.343582 0.39539219,0.34354705 0 0 0 -0.395315,-0.343472 z m 1.035479,0.5496432 a 0.26359478,0.30919236 0 0 0 -0.26362,0.3092564 0.26359478,0.30919236 0 0 0 0.26362,0.3091473 0.26359478,0.30919236 0 0 0 0.263582,-0.3091473 0.26359478,0.30919236 0 0 0 -0.263582,-0.3092564 z M 1.8662247,2.840389 A 0.3389076,0.24048294 0 0 0 1.5272575,3.0808849 0.3389076,0.24048294 0 0 0 1.8662247,3.3213808 0.3389076,0.24048294 0 0 0 2.2051525,3.0808849 0.3389076,0.24048294 0 0 0 1.8662247,2.840389 Z M 6.2532174,3.0121245 A 0.2447666,0.41225646 0 0 0 6.0084823,3.4243569 0.2447666,0.41225646 0 0 0 6.2532174,3.8366984 0.2447666,0.41225646 0 0 0 6.4979514,3.4243569 0.2447666,0.41225646 0 0 0 6.2532174,3.0121245 Z M 7.0626916,3.1152096 A 0.45187677,0.22330558 0 0 0 6.6108006,3.3385432 0.45187677,0.22330558 0 0 0 7.0626916,3.5617678 0.45187677,0.22330558 0 0 0 7.5145453,3.3385432 0.45187677,0.22330558 0 0 0 7.0626916,3.1152096 Z M 2.6193131,3.2526204 A 0.45187677,0.25766029 0 0 0 2.1674221,3.5102797 0.45187677,0.25766029 0 0 0 2.6193131,3.767938 0.45187677,0.25766029 0 0 0 3.0711668,3.5102797 0.45187677,0.25766029 0 0 0 2.6193131,3.2526204 Z M 1.3766013,3.2869471 A 0.37656398,0.46378855 0 0 0 1.0000571,3.7507766 0.37656398,0.46378855 0 0 0 1.3766013,4.2146071 0.37656398,0.46378855 0 0 0 1.7531465,3.7507766 0.37656398,0.46378855 0 0 0 1.3766013,3.2869471 Z M 13.426753,3.5962035 A 0.45187677,0.37790178 0 0 0 12.974862,3.9741102 0.45187677,0.37790178 0 0 0 13.426753,4.3520179 0.45187677,0.37790178 0 0 0 13.878607,3.9741102 0.45187677,0.37790178 0 0 0 13.426753,3.5962035 Z M 6.9686128,3.6992886 A 0.24476659,0.25766029 0 0 0 6.7238404,3.9569478 0.24476659,0.25766029 0 0 0 6.9686128,4.2146071 0.24476659,0.25766029 0 0 0 7.2133478,3.9569478 0.24476659,0.25766029 0 0 0 6.9686128,3.6992886 Z M 8.0230147,4.111521 A 0.32007939,0.32636968 0 0 0 7.7029329,4.4378307 0.32007939,0.32636968 0 0 0 8.0230147,4.7642494 0.32007939,0.32636968 0 0 0 8.3430965,4.4378307 0.32007939,0.32636968 0 0 0 8.0230147,4.111521 Z m 6.5522183,0 A 0.35773577,0.34354705 0 0 0 14.217458,4.454993 0.35773577,0.34354705 0 0 0 14.575233,4.7985751 0.35773577,0.34354705 0 0 0 14.932931,4.454993 0.35773577,0.34354705 0 0 0 14.575233,4.111521 Z M 7.3263876,4.2832565 A 0.26359478,0.27483764 0 0 0 7.0627683,4.5580792 0.26359478,0.27483764 0 0 0 7.3263876,4.8328998 0.26359478,0.27483764 0 0 0 7.590007,4.5580792 0.26359478,0.27483764 0 0 0 7.3263876,4.2832565 Z M 9.8304283,4.7985751 A 0.28242299,0.32636968 0 0 0 9.5480769,5.1249938 0.28242299,0.32636968 0 0 0 9.8304283,5.4513035 0.28242299,0.32636968 0 0 0 10.112893,5.1249938 0.28242299,0.32636968 0 0 0 9.8304283,4.7985751 Z M 8.0794771,4.9359859 A 0.3389076,0.27483764 0 0 0 7.7405483,5.2108065 0.3389076,0.27483764 0 0 0 8.0794771,5.4857381 0.3389076,0.27483764 0 0 0 8.4184442,5.2108065 0.3389076,0.27483764 0 0 0 8.0794771,4.9359859 Z m 6.1003649,0.068763 a 0.26359478,0.292015 0 0 0 -0.263619,0.291985 0.26359478,0.292015 0 0 0 0.263619,0.291984 0.26359478,0.292015 0 0 0 0.26362,-0.291984 0.26359478,0.292015 0 0 0 -0.26362,-0.291985 z M 2.0544963,5.2108105 A 0.48953318,0.27483764 0 0 0 1.5649889,5.4857421 0.48953318,0.27483764 0 0 0 2.0544963,5.7605638 0.48953318,0.27483764 0 0 0 2.5440813,5.4857421 0.48953318,0.27483764 0 0 0 2.0544963,5.2108105 Z M 10.357743,5.3138966 A 0.24476659,0.22330558 0 0 0 10.113008,5.5372302 0.24476659,0.22330558 0 0 0 10.357743,5.7605638 0.24476659,0.22330558 0 0 0 10.602517,5.5372302 0.24476659,0.22330558 0 0 0 10.357743,5.3138966 Z M 1.2071757,5.4857421 A 0.24476659,0.34354705 0 0 0 0.96244067,5.8292142 0.24476659,0.34354705 0 0 0 1.2071757,6.1727962 0.24476659,0.34354705 0 0 0 1.4519491,5.8292142 0.24476659,0.34354705 0 0 0 1.2071757,5.4857421 Z M 10.131779,5.8292142 A 0.2071102,0.13741881 0 0 0 9.9246221,5.966625 0.2071102,0.13741881 0 0 0 10.131779,6.1040358 0.2071102,0.13741881 0 0 0 10.338897,5.966625 0.2071102,0.13741881 0 0 0 10.131779,5.8292142 Z M 1.7720309,6.2071209 A 0.47070499,0.36072441 0 0 0 1.3013695,6.5678663 0.47070499,0.36072441 0 0 0 1.7720309,6.9286107 0.47070499,0.36072441 0 0 0 2.2427689,6.5678663 0.47070499,0.36072441 0 0 0 1.7720309,6.2071209 Z M 12.880668,9.2303778 a 0.39539219,0.32636968 0 0 0 -0.395429,0.3263087 0.39539219,0.32636968 0 0 0 0.395429,0.3264197 0.39539219,0.32636968 0 0 0 0.39539,-0.3264197 0.39539219,0.32636968 0 0 0 -0.39539,-0.3263087 z m -0.885014,0.240495 a 0.37656398,0.36072441 0 0 0 -0.376545,0.3606354 0.37656398,0.36072441 0 0 0 0.376545,0.3607448 0.37656398,0.36072441 0 0 0 0.376545,-0.3607448 0.37656398,0.36072441 0 0 0 -0.376545,-0.3606354 z m 1.901837,0.2060622 a 0.43304859,0.51532059 0 0 0 -0.433045,0.515318 0.43304859,0.51532059 0 0 0 0.433045,0.515317 0.43304859,0.51532059 0 0 0 0.433123,-0.515317 0.43304859,0.51532059 0 0 0 -0.433123,-0.515318 z m -1.242827,0.721488 a 0.2071102,0.17177352 0 0 0 -0.207118,0.171736 0.2071102,0.17177352 0 0 0 0.207118,0.171846 0.2071102,0.17177352 0 0 0 0.207157,-0.171846 0.2071102,0.17177352 0 0 0 -0.207157,-0.171736 z m -11.2026,0.103086 a 0.37656398,0.27483764 0 0 0 -0.3766592,0.274822 0.37656398,0.27483764 0 0 0 0.3766592,0.27482 0.37656398,0.27483764 0 0 0 0.3765442,-0.27482 0.37656398,0.27483764 0 0 0 -0.3765442,-0.274822 z m 12.91605,0.377907 a 0.45187677,0.292015 0 0 0 -0.451891,0.291984 0.45187677,0.292015 0 0 0 0.451891,0.291985 0.45187677,0.292015 0 0 0 0.451892,-0.291985 0.45187677,0.292015 0 0 0 -0.451892,-0.291984 z m -0.734242,0.515317 a 0.32007939,0.24048294 0 0 0 -0.320082,0.240497 0.32007939,0.24048294 0 0 0 0.320082,0.240386 0.32007939,0.24048294 0 0 0 0.320082,-0.240386 0.32007939,0.24048294 0 0 0 -0.320082,-0.240497 z M 0.96244067,11.463387 A 0.3389076,0.292015 0 0 0 0.62351266,11.75548 0.3389076,0.292015 0 0 0 0.96244067,12.047465 0.3389076,0.292015 0 0 0 1.3013695,11.75548 0.3389076,0.292015 0 0 0 0.96244067,11.463387 Z m 0.99793943,0.137411 a 0.39539219,0.27483764 0 0 0 -0.3953912,0.27482 0.39539219,0.27483764 0 0 0 0.3953912,0.274932 0.39539219,0.27483764 0 0 0 0.3953136,-0.274932 0.39539219,0.27483764 0 0 0 -0.3953136,-0.27482 z m 5.0836571,0.961984 a 0.35773577,0.32636968 0 0 0 -0.3578132,0.326309 0.35773577,0.32636968 0 0 0 0.3578132,0.32642 0.35773577,0.32636968 0 0 0 0.3576982,-0.32642 0.35773577,0.32636968 0 0 0 -0.3576982,-0.326309 z m 0.8659377,0.721379 a 0.2071102,0.34354705 0 0 0 -0.207157,0.343581 0.2071102,0.34354705 0 0 0 0.207157,0.343582 0.2071102,0.34354705 0 0 0 0.2070036,-0.343582 0.2071102,0.34354705 0 0 0 -0.2070036,-0.343581 z M 7.2134628,13.524657 A 0.30125118,0.22330558 0 0 0 6.912227,13.74799 0.30125118,0.22330558 0 0 0 7.2134628,13.971324 0.30125118,0.22330558 0 0 0 7.5146602,13.74799 0.30125118,0.22330558 0 0 0 7.2134628,13.524657 Z" />
</svg>
