<?xml version="1.0" encoding="UTF-8" standalone="no"?>
<svg
   width="16"
   height="16"
   version="1.1"
   id="svg24"
   xmlns="http://www.w3.org/2000/svg"
   xmlns:svg="http://www.w3.org/2000/svg"
   xmlns:rdf="http://www.w3.org/1999/02/22-rdf-syntax-ns#"
   xmlns:cc="http://creativecommons.org/ns#"
   xmlns:dc="http://purl.org/dc/elements/1.1/">
   <defs>
      <style id="current-color-scheme" type="text/css">
         .ColorScheme-Text { color: #0abdc6; } .ColorScheme-Highlight { color:#5294e2; }
      </style>
      <linearGradient id="arrongin" x1="0%" x2="0%" y1="0%" y2="100%">
         <stop offset="0%" style="stop-color:#dd9b44; stop-opacity:1"/>
         <stop offset="100%" style="stop-color:#ad6c16; stop-opacity:1"/>
      </linearGradient>
      <linearGradient id="aurora" x1="0%" x2="0%" y1="0%" y2="100%">
         <stop offset="0%" style="stop-color:#09D4DF; stop-opacity:1"/>
         <stop offset="100%" style="stop-color:#9269F4; stop-opacity:1"/>
      </linearGradient>
      <linearGradient id="cyberneon" x1="0%" x2="0%" y1="0%" y2="100%">
         <stop offset="0" style="stop-color:#0abdc6; stop-opacity:1"/>
         <stop offset="1" style="stop-color:#ea00d9; stop-opacity:1"/>
      </linearGradient>
      <linearGradient id="fitdance" x1="0%" x2="0%" y1="0%" y2="100%">
         <stop offset="0%" style="stop-color:#1AD6AB; stop-opacity:1"/>
         <stop offset="100%" style="stop-color:#329DB6; stop-opacity:1"/>
      </linearGradient>
      <linearGradient id="oomox" x1="0%" x2="0%" y1="0%" y2="100%">
         <stop offset="0%" style="stop-color:#0abdc6; stop-opacity:1"/>
         <stop offset="100%" style="stop-color:#b800ff; stop-opacity:1"/>
      </linearGradient>
      <linearGradient id="rainblue" x1="0%" x2="0%" y1="0%" y2="100%">
         <stop offset="0%" style="stop-color:#00F260; stop-opacity:1"/>
         <stop offset="100%" style="stop-color:#0575E6; stop-opacity:1"/>
      </linearGradient>
      <linearGradient id="sunrise" x1="0%" x2="0%" y1="0%" y2="100%">
         <stop offset="0%" style="stop-color: #FF8501; stop-opacity:1"/>
         <stop offset="100%" style="stop-color: #FFCB01; stop-opacity:1"/>
      </linearGradient>
      <linearGradient id="telinkrin" x1="0%" x2="0%" y1="0%" y2="100%">
         <stop offset="0%" style="stop-color: #b2ced6; stop-opacity:1"/>
         <stop offset="100%" style="stop-color: #6da5b7; stop-opacity:1"/>
      </linearGradient>
      <linearGradient id="60spsycho" x1="0%" x2="0%" y1="0%" y2="100%">
         <stop offset="0%" style="stop-color: #df5940; stop-opacity:1"/>
         <stop offset="25%" style="stop-color: #d8d15f; stop-opacity:1"/>
         <stop offset="50%" style="stop-color: #e9882a; stop-opacity:1"/>
         <stop offset="100%" style="stop-color: #279362; stop-opacity:1"/>
      </linearGradient>
      <linearGradient id="90ssummer" x1="0%" x2="0%" y1="0%" y2="100%">
         <stop offset="0%" style="stop-color: #f618c7; stop-opacity:1"/>
         <stop offset="20%" style="stop-color: #94ffab; stop-opacity:1"/>
         <stop offset="50%" style="stop-color: #fbfd54; stop-opacity:1"/>
         <stop offset="100%" style="stop-color: #0f83ae; stop-opacity:1"/>
      </linearGradient>
      <linearGradient
         id="linearGradient2284"
         gradientTransform="matrix(1.6440072,0,0,0.60826983,-38.207552,-69.729474)"
         x1="0"
         y1="132.57439"
         x2="77.858536"
         y2="132.57439"
         gradientUnits="userSpaceOnUse">
         <stop
            style="stop-color:#41ff00;stop-opacity:1;"
            offset="0"
            id="stop2280" />
         <stop
            style="stop-color:#e7ff00;stop-opacity:1;"
            offset="1"
            id="stop2282" />
         </linearGradient>
      </defs>
  <path
     fill="url(#oomox)"
     class="ColorScheme-Text"
     d="M 6.5175781 0 C 2.9278181 0 1.7763568e-15 3.0459518 0 6.7695312 C 0 10.493099 2.9278181 13.539062 6.5175781 13.539062 C 8.0302052 13.539062 9.4230149 12.994241 10.53125 12.089844 L 13.962891 15.654297 C 14.185907 15.885865 14.500023 16 14.814453 16 L 16 16 L 16 14.769531 C 15.999964 14.442997 15.888997 14.116371 15.666016 13.884766 L 12.123047 10.203125 C 12.699953 9.1938545 13.037109 8.0225731 13.037109 6.7695312 C 13.037109 6.0965615 12.918841 5.4607038 12.740234 4.8457031 L 7.7773438 10 L 6.5175781 11.308594 L 5.2597656 10 L 1.703125 6.3085938 L 4.2226562 3.6914062 L 6.5175781 6.0761719 L 10.777344 1.6542969 C 9.6309492 0.6253039 8.1418507 -1.4802974e-16 6.5175781 0 z"
     id="path24" />
  <g
     id="g1840"
     transform="matrix(0.12499902,0,0,0.12579281,4.7759068,8.6699616)">
    <path
       d="m 89.792448,10.911526 v 47.359 h -128 v -47.359 z"
       id="path359"
       style="fill:url(#linearGradient2284);fill-opacity:1" />
    <path
       d="m -24.898552,10.911526 47.355,47.359 h 21.215 l -47.3590004,-47.359 z m 42.422,0 47.363,47.359 h 21.215 l -47.363,-47.359 z m 42.43,0 29.84,29.84 v -21.211 l -8.6289,-8.6289 z m -98.16,7.9062 v 21.215 l 18.238,18.238 H 1.2464476 Z"
       id="path361"
       style="fill:#000000;fill-opacity:1" />
  </g>
  <metadata
     id="metadata7">
     <rdf:RDF>
        <cc:Work
           rdf:about="">
           <dc:creator>
              <cc:Agent>
                 <dc:title>dreifacherspass</dc:title>
              </cc:Agent>
           </dc:creator>
           <cc:license
              rdf:resource="http://creativecommons.org/licenses/by-sa/4.0/" />
           </cc:Work>
           <cc:License
              rdf:about="http://creativecommons.org/licenses/by-sa/4.0/">
              <cc:permits
                 rdf:resource="http://creativecommons.org/ns#Reproduction" />
              <cc:permits
                 rdf:resource="http://creativecommons.org/ns#Distribution" />
              <cc:requires
                 rdf:resource="http://creativecommons.org/ns#Notice" />
              <cc:requires
                 rdf:resource="http://creativecommons.org/ns#Attribution" />
              <cc:permits
                 rdf:resource="http://creativecommons.org/ns#DerivativeWorks" />
              <cc:requires
                 rdf:resource="http://creativecommons.org/ns#ShareAlike" />
              </cc:License>
           </rdf:RDF>
        </metadata>
</svg>
