<?xml version="1.0" encoding="UTF-8" standalone="no"?>
<!-- Created with Inkscape (http://www.inkscape.org/) -->

<svg
   width="16"
   height="16"
   id="svg2"
   version="1.1"
   xmlns="http://www.w3.org/2000/svg"
   xmlns:svg="http://www.w3.org/2000/svg"
   xmlns:rdf="http://www.w3.org/1999/02/22-rdf-syntax-ns#"
   xmlns:cc="http://creativecommons.org/ns#"
   xmlns:dc="http://purl.org/dc/elements/1.1/">
   <defs>
   <style id="current-color-scheme" type="text/css">
   .ColorScheme-Text { color: #0abdc6; } .ColorScheme-Highlight { color:#5294e2; }
  </style>
  <linearGradient id="arrongin" x1="0%" x2="0%" y1="0%" y2="100%">
   <stop offset="0%" style="stop-color:#dd9b44; stop-opacity:1"/>
   <stop offset="100%" style="stop-color:#ad6c16; stop-opacity:1"/>
  </linearGradient>
  <linearGradient id="aurora" x1="0%" x2="0%" y1="0%" y2="100%">
   <stop offset="0%" style="stop-color:#09D4DF; stop-opacity:1"/>
   <stop offset="100%" style="stop-color:#9269F4; stop-opacity:1"/>
  </linearGradient>
  <linearGradient id="cyberneon" x1="0%" x2="0%" y1="0%" y2="100%">
    <stop offset="0" style="stop-color:#0abdc6; stop-opacity:1"/>
    <stop offset="1" style="stop-color:#ea00d9; stop-opacity:1"/>
  </linearGradient>
  <linearGradient id="fitdance" x1="0%" x2="0%" y1="0%" y2="100%">
   <stop offset="0%" style="stop-color:#1AD6AB; stop-opacity:1"/>
   <stop offset="100%" style="stop-color:#329DB6; stop-opacity:1"/>
  </linearGradient>
  <linearGradient id="oomox" x1="0%" x2="0%" y1="0%" y2="100%">
   <stop offset="0%" style="stop-color:#0abdc6; stop-opacity:1"/>
   <stop offset="100%" style="stop-color:#b800ff; stop-opacity:1"/>
  </linearGradient>
  <linearGradient id="rainblue" x1="0%" x2="0%" y1="0%" y2="100%">
   <stop offset="0%" style="stop-color:#00F260; stop-opacity:1"/>
   <stop offset="100%" style="stop-color:#0575E6; stop-opacity:1"/>
  </linearGradient>
  <linearGradient id="sunrise" x1="0%" x2="0%" y1="0%" y2="100%">
   <stop offset="0%" style="stop-color: #FF8501; stop-opacity:1"/>
   <stop offset="100%" style="stop-color: #FFCB01; stop-opacity:1"/>
  </linearGradient>
  <linearGradient id="telinkrin" x1="0%" x2="0%" y1="0%" y2="100%">
   <stop offset="0%" style="stop-color: #b2ced6; stop-opacity:1"/>
   <stop offset="100%" style="stop-color: #6da5b7; stop-opacity:1"/>
  </linearGradient>
  <linearGradient id="60spsycho" x1="0%" x2="0%" y1="0%" y2="100%">
   <stop offset="0%" style="stop-color: #df5940; stop-opacity:1"/>
   <stop offset="25%" style="stop-color: #d8d15f; stop-opacity:1"/>
   <stop offset="50%" style="stop-color: #e9882a; stop-opacity:1"/>
   <stop offset="100%" style="stop-color: #279362; stop-opacity:1"/>
  </linearGradient>
  <linearGradient id="90ssummer" x1="0%" x2="0%" y1="0%" y2="100%">
   <stop offset="0%" style="stop-color: #f618c7; stop-opacity:1"/>
   <stop offset="20%" style="stop-color: #94ffab; stop-opacity:1"/>
   <stop offset="50%" style="stop-color: #fbfd54; stop-opacity:1"/>
   <stop offset="100%" style="stop-color: #0f83ae; stop-opacity:1"/>
  </linearGradient>
 </defs>
  <metadata
     id="metadata7">
    <rdf:RDF>
      <cc:Work
         rdf:about="">
        <dc:format>image/svg+xml</dc:format>
        <dc:type
           rdf:resource="http://purl.org/dc/dcmitype/StillImage" />
        <dc:creator>
          <cc:Agent>
            <dc:title>dreifacherspass</dc:title>
          </cc:Agent>
        </dc:creator>
        <cc:license
           rdf:resource="http://creativecommons.org/licenses/by-sa/4.0/" />
      </cc:Work>
      <cc:License
         rdf:about="http://creativecommons.org/licenses/by-sa/4.0/">
        <cc:permits
           rdf:resource="http://creativecommons.org/ns#Reproduction" />
        <cc:permits
           rdf:resource="http://creativecommons.org/ns#Distribution" />
        <cc:requires
           rdf:resource="http://creativecommons.org/ns#Notice" />
        <cc:requires
           rdf:resource="http://creativecommons.org/ns#Attribution" />
        <cc:permits
           rdf:resource="http://creativecommons.org/ns#DerivativeWorks" />
        <cc:requires
           rdf:resource="http://creativecommons.org/ns#ShareAlike" />
      </cc:License>
    </rdf:RDF>
  </metadata>
  <path
     style="display:inline;overflow:visible;visibility:visible;fill:url(#oomox);fill-opacity:1;fill-rule:nonzero;stroke:none;stroke-width:0.1875;marker:none;enable-background:accumulate"
     d="m 4.6132812,808.18835 c -0.2001528,0.006 -0.4031923,0.0421 -0.6015624,0.11328 -0.5828529,0.20916 -1.0024558,0.66945 -1.1855469,1.21485 0.3667891,-0.36848 0.8104433,-0.6655 1.3183593,-0.85743 0.4134996,-0.15625 0.8374287,-0.23142 1.2539063,-0.23242 0.067668,-2.2e-4 0.1339304,0.002 0.2011719,0.006 -0.2998288,-0.16437 -0.637548,-0.25396 -0.9863282,-0.24414 z"
     transform="translate(0,-796.36218)"
     id="path26"
     class="ColorScheme-Text"/>
  <path
     style="display:inline;overflow:visible;visibility:visible;fill:url(#oomox);fill-opacity:1;fill-rule:nonzero;stroke:none;stroke-width:0.1875;marker:none;enable-background:accumulate;opacity:0.8"
     d="m 13.996094,803.26648 c 0.116891,1.57218 -0.623665,2.97236 -1.882813,3.39843 -1.3022,0.44065 -2.7947675,-0.28255 -3.644531,-1.69531 -0.2709664,0.31823 -0.4538853,0.70264 -0.5234375,1.11524 -0.016909,-10e-4 -0.031825,-0.004 -0.048828,-0.004 -0.1701004,-0.008 -0.3458473,0.0172 -0.515625,0.0781 -0.6995705,0.25104 -1.0635315,1.02113 -0.8125,1.72071 0.057936,0.16146 0.1459289,0.30549 0.2519531,0.42773 -0.1362176,0.0783 -0.2600322,0.17103 -0.3710937,0.27539 0.5742693,0.17562 1.1049934,0.4953 1.5429687,0.9336 0.3667046,-0.36795 0.8089668,-0.66569 1.3164063,-0.85743 1.8902841,-0.71427 3.9820611,0.26741 4.7382811,2.22657 l 0.05273,0.15429 c 0.148157,0.43478 0.220957,0.87741 0.222657,1.31446 -0.0035,0.002 -0.0082,0.005 -0.01172,0.008 h 0.130859 C 15.305123,812.36218 16,811.66925 16,810.80554 v -6.07031 c -0.189816,-0.0841 -0.387974,-0.14622 -0.59375,-0.18164 l -0.01172,-0.0293 c -0.257801,-0.63426 -0.785281,-1.08008 -1.398437,-1.25781 z"
     transform="translate(0,-796.36218)"
     id="path25"
     class="ColorScheme-Text"/>
  <path
     style="display:inline;overflow:visible;visibility:visible;fill:url(#oomox);fill-opacity:1;fill-rule:nonzero;stroke:none;stroke-width:0.1875;marker:none;enable-background:accumulate;opacity:0.8"
     d="m 11.070312,796.36218 c 0.352965,0.31281 0.776178,0.53868 1.230469,0.65625 -0.586923,0.74145 -0.806268,1.74826 -0.513672,2.70898 0.724073,0.3691 1.367313,1.03482 1.777344,1.90821 0.64051,0.24608 1.367983,0.27336 2.064453,0.0234 0.12789,-0.0459 0.247876,-0.1012 0.365235,-0.1621 0.0014,1.3e-4 0.0045,-1.2e-4 0.0059,0 v -3.57618 c 0,-0.86371 -0.694877,-1.55859 -1.558594,-1.55859 z"
     transform="translate(0,-796.36218)"
     id="path24"
     class="ColorScheme-Text"/>
  <path
     style="display:inline;overflow:visible;visibility:visible;fill:url(#oomox);fill-opacity:1;fill-rule:nonzero;stroke:none;stroke-width:0.1875;marker:none;enable-background:accumulate;opacity:0.8"
     d="M 1.5585938,796.36218 C 0.69487681,796.36218 0,797.05706 0,797.92077 v 7.33985 c 0.73870589,0.19972 1.5023319,0.0924 2.1425781,-0.25196 -0.3253116,-0.83042 -0.3614078,-1.85703 -0.015625,-2.8789 0.568639,-1.68047 1.9767725,-2.75657 3.3261719,-2.73047 h 0.00195 c -0.015009,-0.11605 -0.040043,-0.23034 -0.078125,-0.33984 0.633665,-0.12315 1.1951506,-0.55155 1.453125,-1.19532 l 0.029297,-0.0762 c 0.1698577,-0.48081 0.1423368,-0.98662 -0.042969,-1.42383 H 1.5585938 Z"
     transform="translate(0,-796.36218)"
     id="path300"
     class="ColorScheme-Text"/>
  <path
     style="font-style:normal;font-variant:normal;font-weight:normal;font-stretch:normal;font-size:medium;line-height:normal;font-family:Sans;-inkscape-font-specification:Sans;text-indent:0;text-align:start;text-decoration:none;text-decoration-line:none;letter-spacing:normal;word-spacing:normal;text-transform:none;writing-mode:lr-tb;direction:ltr;baseline-shift:baseline;text-anchor:start;display:inline;overflow:visible;visibility:visible;fill:url(#oomox);fill-opacity:1;fill-rule:nonzero;stroke:none;stroke-width:0.78125;marker:none;enable-background:accumulate"
     d="m 5.39712,807.97841 c -0.4693593,0.002 -0.947144,0.086 -1.4106613,0.26116 -1.698534,0.64182 -2.7514234,2.30959 -2.769986,4.08467 0.1101953,0.0245 0.223708,0.0379 0.3415046,0.0379 h 0.131692 c -0.00847,-0.007 -0.01849,-0.0132 -0.026785,-0.0201 0.011325,-1.60703 0.961902,-3.10848 2.48205,-3.6829 0.4135013,-0.15624 0.83794,-0.23298 1.254418,-0.23436 0.9669542,-0.003 1.8954154,0.39274 2.5914211,1.08924 0.3667031,-0.36795 0.8117093,-0.66314 1.3191475,-0.85488 1.8902871,-0.71427 3.9802051,0.26622 4.7364311,2.22538 l 0.05357,0.154 c 0.148158,0.43478 0.221507,0.87763 0.223207,1.31469 -0.0035,0.003 -0.0077,0.006 -0.01116,0.009 h 0.12946 c 0.112654,0 0.222356,-0.011 0.328112,-0.0335 -0.0043,-0.47811 -0.08654,-0.9621 -0.247758,-1.43521 v -0.002 l -0.05357,-0.15402 -0.0022,-0.007 -0.0022,-0.007 c -0.837774,-2.17029 -3.193718,-3.28485 -5.3123536,-2.48429 -0.429965,0.16246 -0.8173475,0.39447 -1.1584394,0.67408 -0.7332731,-0.60043 -1.6471794,-0.93841 -2.5958856,-0.93524 z"
     id="path301"
     class="ColorScheme-Text"
     transform="translate(0,-796.36218)" />
  <path
     id="path302"
     style="display:inline;overflow:visible;visibility:visible;opacity:1;fill:url(#oomox);fill-opacity:1;fill-rule:nonzero;stroke:none;stroke-width:0.1875;marker:none;enable-background:accumulate"
     class="ColorScheme-Text"
     d="M 5.3984375 808.42663 C 4.9819599 808.42763 4.5580314 808.5028 4.1445312 808.65905 C 2.6243848 809.23346 1.6753878 810.73562 1.6640625 812.34265 C 1.6723525 812.34965 1.6809831 812.35548 1.6894531 812.36218 L 3.734375 812.36218 C 3.9133688 811.64986 4.358865 811.04701 4.984375 810.77624 C 5.2072862 810.67977 5.4356405 810.63258 5.6601562 810.63171 C 6.4620008 810.62864 7.2205723 811.20596 7.5390625 812.15124 L 7.5703125 812.24499 C 7.5819085 812.28401 7.5897794 812.32288 7.5996094 812.36218 L 8.3359375 812.36218 C 8.514916 811.64981 8.9643056 811.04702 9.5898438 810.77624 C 9.8127554 810.67977 10.041109 810.63258 10.265625 810.63171 C 11.067469 810.62864 11.822133 811.206 12.140625 812.15124 L 12.171875 812.24499 C 12.183465 812.28401 12.191372 812.32288 12.201172 812.36218 L 14.310547 812.36218 C 14.314047 812.35918 14.318776 812.35637 14.322266 812.35437 C 14.320566 811.91732 14.247766 811.47274 14.099609 811.03796 L 14.046875 810.88562 C 13.290655 808.92646 11.198878 807.94478 9.3085938 808.65905 C 8.8011549 808.85079 8.3588915 809.14657 7.9921875 809.51452 C 7.2961832 808.81801 6.3653901 808.4234 5.3984375 808.42663 z "
     transform="translate(0,-796.36218)" />
  <path
     style="opacity:1;fill:url(#oomox);fill-opacity:1;stroke-width:0.13;stroke:url(#oomox);stroke-opacity:1;stroke-dasharray:none"
     d="M 4.2563287,10.387623 C 3.1873392,10.249841 2.3544441,9.4259734 2.0136499,8.1692509 1.9122374,7.7952789 1.8906565,6.9046776 1.9724695,6.4698101 2.2915999,4.7735091 3.4737015,3.4147322 4.8893876,3.1169334 5.2793507,3.0349021 5.5885261,3.0399957 5.9581977,3.1345419 6.5346563,3.2819751 7.0321531,3.6050559 7.3683017,4.0502814 7.5165522,4.246638 7.8498018,4.8594985 7.913163,5.0523048 7.9249104,5.0880527 8.0122143,4.9543553 8.1234897,4.7302099 8.480635,4.010798 8.8124203,3.6359448 9.3304661,3.3665582 9.7973541,3.1237741 9.9927691,3.076068 10.512054,3.0781008 c 0.416348,0.00163 0.508193,0.015808 0.82423,0.1272421 0.48843,0.172219 0.861775,0.4042998 1.266145,0.7870702 0.685769,0.6491381 1.128234,1.4824562 1.315415,2.477397 0.08914,0.4738274 0.06086,1.3252598 -0.0585,1.7611539 -0.641876,2.344097 -3.049742,2.905771 -4.7764169,1.1141766 C 8.6201663,8.8649773 8.353266,8.4377288 8.0874651,7.7516209 8.024524,7.5891526 7.9620791,7.456224 7.9486982,7.456224 c -0.013381,0 -0.068191,0.1145936 -0.1218,0.2546525 C 7.5666165,8.3908857 7.2231143,8.944151 6.789112,9.3823993 6.0535738,10.125133 5.1137498,10.498135 4.2563287,10.387623 Z M 9.6708631,7.7221028 C 9.9432202,7.5932572 10.238161,7.2840977 10.382484,6.9761762 c 0.09567,-0.2041215 0.109197,-0.2835574 0.109197,-0.6413195 0,-0.3783594 -0.0097,-0.4280861 -0.132416,-0.6772768 C 10.032138,4.9931893 9.3203041,4.6830118 8.640719,4.9087337 8.3613342,5.0015304 7.9978971,5.3382988 7.8490265,5.6423324 L 7.7365703,5.8719978 7.6573648,5.7713046 C 7.6138021,5.7159233 7.4829515,5.6231673 7.3665864,5.5651801 6.6953404,5.230684 5.9494776,5.7327594 5.9494776,6.519103 c 0,0.6452082 0.498887,1.1176871 1.104431,1.0459697 0.256752,-0.030408 0.538898,-0.1914241 0.6581878,-0.3756153 0.087851,-0.135647 0.1515716,-0.1791972 0.1515716,-0.1035917 0,0.020397 0.072996,0.1294326 0.1622132,0.2423011 0.3923624,0.4963755 1.0802333,0.6611051 1.6449819,0.393936 z"
     id="path303"
     class="ColorScheme-Text" />
</svg>
