<?xml version="1.0" encoding="UTF-8" standalone="no"?>
<svg
   width="16"
   height="16"
   version="1.1"
   viewBox="0 0 4.2333333 4.2333333"
   id="svg129"
   xmlns="http://www.w3.org/2000/svg"
   xmlns:svg="http://www.w3.org/2000/svg"
   xmlns:rdf="http://www.w3.org/1999/02/22-rdf-syntax-ns#"
   xmlns:cc="http://creativecommons.org/ns#"
   xmlns:dc="http://purl.org/dc/elements/1.1/">
  <defs>
   <style id="current-color-scheme" type="text/css">
   .ColorScheme-Text { color: #0abdc6; } .ColorScheme-Highlight { color:#5294e2; }
  </style>
  <linearGradient id="arrongin" x1="0%" x2="0%" y1="0%" y2="100%">
   <stop offset="0%" style="stop-color:#dd9b44; stop-opacity:1"/>
   <stop offset="100%" style="stop-color:#ad6c16; stop-opacity:1"/>
  </linearGradient>
  <linearGradient id="aurora" x1="0%" x2="0%" y1="0%" y2="100%">
   <stop offset="0%" style="stop-color:#09D4DF; stop-opacity:1"/>
   <stop offset="100%" style="stop-color:#9269F4; stop-opacity:1"/>
  </linearGradient>
  <linearGradient id="cyberneon" x1="0%" x2="0%" y1="0%" y2="100%">
    <stop offset="0" style="stop-color:#0abdc6; stop-opacity:1"/>
    <stop offset="1" style="stop-color:#ea00d9; stop-opacity:1"/>
  </linearGradient>
  <linearGradient id="fitdance" x1="0%" x2="0%" y1="0%" y2="100%">
   <stop offset="0%" style="stop-color:#1AD6AB; stop-opacity:1"/>
   <stop offset="100%" style="stop-color:#329DB6; stop-opacity:1"/>
  </linearGradient>
  <linearGradient id="oomox" x1="0%" x2="0%" y1="0%" y2="100%">
   <stop offset="0%" style="stop-color:#0abdc6; stop-opacity:1"/>
   <stop offset="100%" style="stop-color:#b800ff; stop-opacity:1"/>
  </linearGradient>
  <linearGradient id="rainblue" x1="0%" x2="0%" y1="0%" y2="100%">
   <stop offset="0%" style="stop-color:#00F260; stop-opacity:1"/>
   <stop offset="100%" style="stop-color:#0575E6; stop-opacity:1"/>
  </linearGradient>
  <linearGradient id="sunrise" x1="0%" x2="0%" y1="0%" y2="100%">
   <stop offset="0%" style="stop-color: #FF8501; stop-opacity:1"/>
   <stop offset="100%" style="stop-color: #FFCB01; stop-opacity:1"/>
  </linearGradient>
  <linearGradient id="telinkrin" x1="0%" x2="0%" y1="0%" y2="100%">
   <stop offset="0%" style="stop-color: #b2ced6; stop-opacity:1"/>
   <stop offset="100%" style="stop-color: #6da5b7; stop-opacity:1"/>
  </linearGradient>
  <linearGradient id="60spsycho" x1="0%" x2="0%" y1="0%" y2="100%">
   <stop offset="0%" style="stop-color: #df5940; stop-opacity:1"/>
   <stop offset="25%" style="stop-color: #d8d15f; stop-opacity:1"/>
   <stop offset="50%" style="stop-color: #e9882a; stop-opacity:1"/>
   <stop offset="100%" style="stop-color: #279362; stop-opacity:1"/>
  </linearGradient>
  <linearGradient id="90ssummer" x1="0%" x2="0%" y1="0%" y2="100%">
   <stop offset="0%" style="stop-color: #f618c7; stop-opacity:1"/>
   <stop offset="20%" style="stop-color: #94ffab; stop-opacity:1"/>
   <stop offset="50%" style="stop-color: #fbfd54; stop-opacity:1"/>
   <stop offset="100%" style="stop-color: #0f83ae; stop-opacity:1"/>
  </linearGradient>
 </defs>
  <metadata
     id="metadata55">
    <rdf:RDF>
      <cc:Work
         rdf:about="">
        <dc:format>image/svg+xml</dc:format>
        <dc:type
           rdf:resource="http://purl.org/dc/dcmitype/StillImage" />
        <dc:creator>
          <cc:Agent>
            <dc:title>dreifacherspass</dc:title>
          </cc:Agent>
        </dc:creator>
        <cc:license
           rdf:resource="http://creativecommons.org/licenses/by-sa/4.0/" />
      </cc:Work>
      <cc:License
         rdf:about="http://creativecommons.org/licenses/by-sa/4.0/">
        <cc:permits
           rdf:resource="http://creativecommons.org/ns#Reproduction" />
        <cc:permits
           rdf:resource="http://creativecommons.org/ns#Distribution" />
        <cc:requires
           rdf:resource="http://creativecommons.org/ns#Notice" />
        <cc:requires
           rdf:resource="http://creativecommons.org/ns#Attribution" />
        <cc:permits
           rdf:resource="http://creativecommons.org/ns#DerivativeWorks" />
        <cc:requires
           rdf:resource="http://creativecommons.org/ns#ShareAlike" />
      </cc:License>
    </rdf:RDF>
  </metadata>
  <path
     id="path11"
     class="ColorScheme-Text"
     style="display:inline;fill:url(#oomox);fill-opacity:1;stroke-width:0.402306;paint-order:normal"
     d="M 0.63500003,0.37922796 C 0.28321081,0.37922796 0,0.66571734 0,1.021579 V 1.235696 H 4.2333333 V 1.021579 c 0,-0.35586166 -0.2832106,-0.64235104 -0.6349999,-0.64235104 z M 3.3002638,0.60693639 c 0.00193,-1.0199e-4 0.00404,0 0.00599,0 0.062559,0 0.1141015,0.0527718 0.1141015,0.11604976 0,0.0632778 -0.051543,0.11542245 -0.1141015,0.11542245 -0.062558,0 -0.1141016,-0.0521446 -0.1141016,-0.11542245 0,-0.0613005 0.048212,-0.11288735 0.1081073,-0.11604976 z m -2.36554042,2.0909e-4 c 9.7362e-4,-2.567e-5 0.001917,0 0.002894,0 0.0625583,0 0.11410162,0.0529809 0.11410162,0.11625885 0,0.063278 -0.051543,0.11542248 -0.11410162,0.11542248 -0.0625579,0 -0.11410156,-0.0521445 -0.11410156,-0.11542248 0,-0.0622892 0.049977,-0.11464192 0.11120756,-0.11625885 z m 2.36967452,0.0794575 c -0.018939,9.6001e-4 -0.03328,0.0166626 -0.03328,0.0363832 0,0.0203569 0.015296,0.0355468 0.03514,0.0355468 0.019844,0 0.03514,-0.0151902 0.03514,-0.0355468 0,-0.0203569 -0.015296,-0.0363832 -0.03514,-0.0363832 -6.196e-4,0 -0.00125,-3.091e-5 -0.00186,0 z M 0.93575688,0.6870183 c -0.0189392,9.6e-4 -0.0332797,0.0166626 -0.0332797,0.0363832 0,0.0203569 0.015296,0.0355468 0.03514,0.0355468 0.0198441,0 0.03514,-0.0151902 0.03514,-0.0355468 0,-0.0203569 -0.015296,-0.0363832 -0.03514,-0.0363832 -6.1957e-4,0 -0.001249,-3.088e-5 -0.001859,0 z" />
  <path
     d="m 18.115234,-0.2109375 c -0.05619,-0.0164115 -0.120321,-0.004845 -0.167968,0.0234375 -0.0953,0.0565655 -0.145674,0.15565464 -0.189454,0.28710937 -0.08755,0.26289977 -0.111409,0.6274567 -0.06641,0.95507813 0.04715,0.3431878 0.236328,0.578125 0.236328,0.578125 a 0.11131392,0.11131392 0 1 0 0.173828,-0.1386719 c 0,0 -0.151226,-0.1905298 -0.189453,-0.46875 -0.04036,-0.29378453 -0.01397,-0.64346049 0.05664,-0.85546872 0.03449,-0.10355718 0.07869,-0.15429016 0.08984,-0.16210938 0.0025,0.00148774 0.0054,0.00235329 0.01758,0.01757813 0.04138,0.05185364 0.09426,0.18819729 0.121094,0.35937499 a 0.11174276,0.11174276 0 1 0 0.220703,-0.0351562 C 18.387781,0.15701908 18.338322,-0.0025989 18.25,-0.11328125 18.21464,-0.15759848 18.171429,-0.194526 18.115234,-0.2109375 Z"
     color-rendering="auto"
     dominant-baseline="auto"
     image-rendering="auto"
     style="fill:url(#oomox);fill-opacity:1;font-variant-ligatures:normal;font-variant-position:normal;font-variant-caps:normal;font-variant-numeric:normal;font-variant-alternates:normal;font-feature-settings:normal;text-indent:0;text-decoration-line:none;text-decoration-style:solid;text-decoration-color:#000000;text-transform:none;text-orientation:mixed;white-space:normal;shape-padding:0;isolation:auto;mix-blend-mode:normal;paint-order:markers fill stroke"
     id="path1"
     class="ColorScheme-Text"
     transform="matrix(0.40000002,0,0,0.4046306,-6.2709345,0.08876652)" />
  <path
     d="m 18.207031,-0.16015625 -0.148437,0.16601563 c 0.0037,0.00328219 0.01479,0.01605398 0.01758,0.01953125 0.06596,0.0826527 0.146743,0.36999135 0.146484,0.69140625 L 18.445312,0.71875 C 18.445595,0.3677309 18.39029,0.06252405 18.25,-0.11328125 c -0.01522,-0.0190027 -0.02829,-0.0336972 -0.04297,-0.046875 z"
     color-rendering="auto"
     dominant-baseline="auto"
     image-rendering="auto"
     style="fill:url(#oomox);fill-opacity:1;font-variant-ligatures:normal;font-variant-position:normal;font-variant-caps:normal;font-variant-numeric:normal;font-variant-alternates:normal;font-feature-settings:normal;text-indent:0;text-decoration-line:none;text-decoration-style:solid;text-decoration-color:#000000;text-transform:none;text-orientation:mixed;white-space:normal;shape-padding:0;isolation:auto;mix-blend-mode:normal;paint-order:markers fill stroke"
     id="path14"
     class="ColorScheme-Text"
     transform="matrix(0.40000002,0,0,0.4046306,-6.2709345,0.08876652)" />
  <path
     d="m 18.115234,-0.2109375 c -0.05619,-0.0164115 -0.120321,-0.004845 -0.167968,0.0234375 -0.0953,0.0565655 -0.145674,0.15565464 -0.189454,0.28710937 -0.08755,0.26289977 -0.111409,0.6274567 -0.06641,0.95507813 0.04715,0.3431878 0.236328,0.578125 0.236328,0.578125 0.09114,0.1263844 0.276804,-0.021733 0.173828,-0.1386719 -0.04899,-0.055627 -0.151226,-0.1905298 -0.189453,-0.46875 -0.04036,-0.29378453 -0.01397,-0.64346049 0.05664,-0.85546872 0.03449,-0.10355718 0.07869,-0.15429016 0.08984,-0.16210938 0.0025,0.00148774 0.0054,0.00235329 0.01758,0.01757813 0.04138,0.05185364 0.09426,0.18819729 0.121094,0.35937499 0.0234,0.14718946 0.244101,0.11203326 0.220703,-0.0351562 C 18.387781,0.15701908 18.338322,-0.0025989 18.25,-0.11328125 18.21464,-0.15759848 18.171429,-0.194526 18.115234,-0.2109375 Z"
     color-rendering="auto"
     dominant-baseline="auto"
     image-rendering="auto"
     style="fill:url(#oomox);fill-opacity:1;font-variant-ligatures:normal;font-variant-position:normal;font-variant-caps:normal;font-variant-numeric:normal;font-variant-alternates:normal;font-feature-settings:normal;text-indent:0;text-decoration-line:none;text-decoration-style:solid;text-decoration-color:#000000;text-transform:none;text-orientation:mixed;white-space:normal;shape-padding:0;display:inline;isolation:auto;mix-blend-mode:normal;paint-order:markers fill stroke"
     id="path17"
     class="ColorScheme-Text"
     transform="matrix(0.40000002,0,0,0.4046306,-3.9023967,0.08839977)" />
  <path
     d="m 18.207031,-0.16015625 -0.148437,0.16601563 c 0.0037,0.00328219 0.01479,0.01605398 0.01758,0.01953125 0.06596,0.0826527 0.146743,0.36999135 0.146484,0.69140625 L 18.445312,0.71875 C 18.445595,0.3677309 18.39029,0.06252405 18.25,-0.11328125 c -0.01522,-0.0190027 -0.02829,-0.0336972 -0.04297,-0.046875 z"
     color-rendering="auto"
     dominant-baseline="auto"
     image-rendering="auto"
     solid-color="#000000"
     style="fill:url(#oomox);fill-opacity:1;font-variant-ligatures:normal;font-variant-position:normal;font-variant-caps:normal;font-variant-numeric:normal;font-variant-alternates:normal;font-feature-settings:normal;text-indent:0;text-decoration-line:none;text-decoration-style:solid;text-decoration-color:#000000;text-transform:none;text-orientation:mixed;white-space:normal;shape-padding:0;isolation:auto;mix-blend-mode:normal;paint-order:markers fill stroke"
     id="path20"
     class="ColorScheme-Text"
     transform="matrix(0.40000002,0,0,0.4046306,-3.9023967,0.08839977)" />
  <path
     d="m 3.283314,1.5443256 c -0.058632,10e-8 -0.1058334,0.047748 -0.1058334,0.1070585 v 0.5352925 c 0,0.05931 0.047202,0.1070585 0.1058334,0.1070585 h 0.5291665 c 0.058632,10e-8 0.1058332,-0.047748 0.1058332,-0.1070585 V 1.6513841 c 0,-0.05931 -0.047202,-0.1070585 -0.1058332,-0.1070585 z m -2.85750013,0.012546 c -0.0586316,0 -0.10583332,0.047748 -0.10583332,0.1070585 v 0.5352925 c 0,0.05931 0.0472018,0.1070585 0.10583332,0.1070585 h 0.52916674 c 0.0586316,0 0.10583329,-0.047748 0.10583329,-0.1070585 V 1.66393 c 0,-0.05931 -0.047202,-0.1070584 -0.10583329,-0.1070584 z m 0.95250003,0 c -0.058632,0 -0.1058333,0.047748 -0.1058333,0.1070585 v 0.5352925 c 0,0.05931 0.047202,0.1070585 0.1058333,0.1070585 h 0.5291668 c 0.058631,0 0.1058333,-0.047748 0.1058333,-0.1070585 V 1.66393 c 0,-0.05931 -0.047202,-0.1070584 -0.1058333,-0.1070584 z m 0.9500196,0 c -0.058632,0 -0.1058334,0.047748 -0.1058334,0.1070585 v 0.5352925 c 0,0.05931 0.047202,0.1070585 0.1058334,0.1070585 h 0.5291666 c 0.058632,0 0.1058334,-0.047748 0.1058334,-0.1070585 V 1.66393 c 0,-0.05931 -0.047202,-0.1070584 -0.1058334,-0.1070584 z M 3.283314,2.5078521 c -0.058632,10e-8 -0.1058333,0.047748 -0.1058333,0.1070586 v 0.5352925 c 0,0.059311 0.047202,0.1070585 0.1058333,0.1070585 h 0.5291665 c 0.058632,0 0.1058336,-0.047748 0.1058336,-0.1070585 V 2.6149107 c 0,-0.05931 -0.047202,-0.1070586 -0.1058336,-0.1070586 z m -2.85750009,0.012546 c -0.0586316,0 -0.10583332,0.047748 -0.10583332,0.1070586 v 0.5352925 c 0,0.05931 0.0472018,0.1070585 0.10583332,0.1070585 h 0.52916673 c 0.0586316,0 0.10583336,-0.047748 0.10583336,-0.1070585 V 2.6274566 c 0,-0.05931 -0.047202,-0.1070585 -0.10583336,-0.1070585 z m 0.95250009,0 c -0.058632,0 -0.1058333,0.047748 -0.1058333,0.1070586 v 0.5352925 c 0,0.05931 0.047202,0.1070585 0.1058333,0.1070585 h 0.5291667 c 0.058632,0 0.1058333,-0.047748 0.1058333,-0.1070585 V 2.6274566 c 0,-0.05931 -0.047202,-0.1070585 -0.1058333,-0.1070585 z m 0.9500195,0 c -0.058631,0 -0.1058333,0.047748 -0.1058333,0.1070586 v 0.5352925 c 0,0.05931 0.047202,0.1070585 0.1058333,0.1070585 h 0.5291667 c 0.058632,0 0.1058333,-0.047748 0.1058333,-0.1070585 V 2.6274566 c 0,-0.05931 -0.047202,-0.1070585 -0.1058333,-0.1070585 z m 0.957461,0.9509807 c -0.058632,0 -0.1058334,0.047748 -0.1058334,0.1070585 V 4.11373 c 0,0.05931 0.047202,0.1070584 0.1058334,0.1070584 h 0.5291667 c 0.058632,0 0.1058332,-0.047748 0.1058332,-0.1070584 V 3.5784374 c 0,-0.05931 -0.047202,-0.1070585 -0.1058332,-0.1070585 z m -2.85750011,0.012545 c -0.0586316,0 -0.10583333,0.047748 -0.10583333,0.1070584 v 0.5352927 c 0,0.05931 0.0472018,0.1070585 0.10583333,0.1070585 h 0.52916669 c 0.0586315,0 0.10583332,-0.047748 0.10583332,-0.1070585 V 3.5909821 c 0,-0.05931 -0.047202,-0.1070584 -0.10583332,-0.1070584 z m 0.95250001,0 c -0.058632,0 -0.1058333,0.047748 -0.1058333,0.1070584 v 0.5352927 c 0,0.05931 0.047202,0.1070585 0.1058333,0.1070585 h 0.5291667 c 0.058632,0 0.1058333,-0.047748 0.1058333,-0.1070585 V 3.5909821 c 0,-0.05931 -0.047202,-0.1070584 -0.1058333,-0.1070584 z m 0.9500196,0 c -0.058632,0 -0.1058333,0.047748 -0.1058333,0.1070584 v 0.5352927 c 0,0.05931 0.047202,0.1070585 0.1058333,0.1070585 h 0.5291667 c 0.058632,0 0.1058334,-0.047748 0.1058334,-0.1070585 V 3.5909821 c 0,-0.05931 -0.047202,-0.1070584 -0.1058334,-0.1070584 z"
     style="fill:url(#oomox);fill-opacity:1;stroke-width:0.106444;paint-order:markers fill stroke"
     id="path25"
     class="ColorScheme-Text" />
</svg>
