<?xml version="1.0" encoding="UTF-8" standalone="no"?>
<svg
   width="48"
   height="48"
   version="1.1"
   viewBox="0 0 12.7 12.7"
   id="svg129"
   sodipodi:docname="calindori1.svg"
   inkscape:version="1.2.2 (b0a8486541, 2022-12-01)"
   xmlns:inkscape="http://www.inkscape.org/namespaces/inkscape"
   xmlns:sodipodi="http://sodipodi.sourceforge.net/DTD/sodipodi-0.dtd"
   xmlns="http://www.w3.org/2000/svg"
   xmlns:svg="http://www.w3.org/2000/svg"
   xmlns:rdf="http://www.w3.org/1999/02/22-rdf-syntax-ns#"
   xmlns:cc="http://creativecommons.org/ns#"
   xmlns:dc="http://purl.org/dc/elements/1.1/">
  <sodipodi:namedview
     id="namedview56"
     pagecolor="#ffffff"
     bordercolor="#000000"
     borderopacity="0.25"
     inkscape:showpageshadow="2"
     inkscape:pageopacity="0.0"
     inkscape:pagecheckerboard="0"
     inkscape:deskcolor="#d1d1d1"
     showgrid="false"
     inkscape:zoom="4.9166667"
     inkscape:cx="24"
     inkscape:cy="50.135593"
     inkscape:window-width="1680"
     inkscape:window-height="1021"
     inkscape:window-x="0"
     inkscape:window-y="0"
     inkscape:window-maximized="1"
     inkscape:current-layer="svg129" />
  <defs
     id="defs53">
    <style
       id="current-color-scheme"
       type="text/css">
      .ColorScheme-Text { color: #0abdc6; } .ColorScheme-Highlight { color:#5294e2; }
     </style>
    <linearGradient
       id="arrongin"
       x1="0%"
       x2="0%"
       y1="0%"
       y2="100%">
      <stop
         offset="0%"
         style="stop-color:#dd9b44; stop-opacity:1"
         id="stop9192" />
      <stop
         offset="100%"
         style="stop-color:#ad6c16; stop-opacity:1"
         id="stop9194" />
    </linearGradient>
    <linearGradient
       id="aurora"
       x1="0%"
       x2="0%"
       y1="0%"
       y2="100%">
      <stop
         offset="0%"
         style="stop-color:#09D4DF; stop-opacity:1"
         id="stop9197" />
      <stop
         offset="100%"
         style="stop-color:#9269F4; stop-opacity:1"
         id="stop9199" />
    </linearGradient>
    <linearGradient
       id="cyberneon"
       x1="0%"
       x2="0%"
       y1="0%"
       y2="100%">
      <stop
         offset="0"
         style="stop-color:#0abdc6; stop-opacity:1"
         id="stop9202" />
      <stop
         offset="1"
         style="stop-color:#ea00d9; stop-opacity:1"
         id="stop9204" />
    </linearGradient>
    <linearGradient
       id="fitdance"
       x1="0%"
       x2="0%"
       y1="0%"
       y2="100%">
      <stop
         offset="0%"
         style="stop-color:#1AD6AB; stop-opacity:1"
         id="stop9207" />
      <stop
         offset="100%"
         style="stop-color:#329DB6; stop-opacity:1"
         id="stop9209" />
    </linearGradient>
    <linearGradient
       id="oomox"
       x1="0%"
       x2="0%"
       y1="0%"
       y2="100%">
      <stop
         offset="0%"
         style="stop-color:#0abdc6; stop-opacity:1"
         id="stop9212" />
      <stop
         offset="100%"
         style="stop-color:#b800ff; stop-opacity:1"
         id="stop9214" />
    </linearGradient>
    <linearGradient
       id="rainblue"
       x1="0%"
       x2="0%"
       y1="0%"
       y2="100%">
      <stop
         offset="0%"
         style="stop-color:#00F260; stop-opacity:1"
         id="stop9217" />
      <stop
         offset="100%"
         style="stop-color:#0575E6; stop-opacity:1"
         id="stop9219" />
    </linearGradient>
    <linearGradient
       id="sunrise"
       x1="0%"
       x2="0%"
       y1="0%"
       y2="100%">
      <stop
         offset="0%"
         style="stop-color: #FF8501; stop-opacity:1"
         id="stop9222" />
      <stop
         offset="100%"
         style="stop-color: #FFCB01; stop-opacity:1"
         id="stop9224" />
    </linearGradient>
    <linearGradient
       id="telinkrin"
       x1="0%"
       x2="0%"
       y1="0%"
       y2="100%">
      <stop
         offset="0%"
         style="stop-color: #b2ced6; stop-opacity:1"
         id="stop9227" />
      <stop
         offset="100%"
         style="stop-color: #6da5b7; stop-opacity:1"
         id="stop9229" />
    </linearGradient>
    <linearGradient
       id="60spsycho"
       x1="0%"
       x2="0%"
       y1="0%"
       y2="100%">
      <stop
         offset="0%"
         style="stop-color: #df5940; stop-opacity:1"
         id="stop9232" />
      <stop
         offset="25%"
         style="stop-color: #d8d15f; stop-opacity:1"
         id="stop9234" />
      <stop
         offset="50%"
         style="stop-color: #e9882a; stop-opacity:1"
         id="stop9236" />
      <stop
         offset="100%"
         style="stop-color: #279362; stop-opacity:1"
         id="stop9238" />
    </linearGradient>
    <linearGradient
       id="90ssummer"
       x1="0%"
       x2="0%"
       y1="0%"
       y2="100%">
      <stop
         offset="0%"
         style="stop-color: #f618c7; stop-opacity:1"
         id="stop9241" />
      <stop
         offset="20%"
         style="stop-color: #94ffab; stop-opacity:1"
         id="stop9243" />
      <stop
         offset="50%"
         style="stop-color: #fbfd54; stop-opacity:1"
         id="stop9245" />
      <stop
         offset="100%"
         style="stop-color: #0f83ae; stop-opacity:1"
         id="stop9247" />
    </linearGradient>
  </defs>
  <metadata
     id="metadata55">
    <rdf:RDF>
      <cc:Work
         rdf:about="">
        <dc:format>image/svg+xml</dc:format>
        <dc:type
           rdf:resource="http://purl.org/dc/dcmitype/StillImage" />
        <dc:creator>
          <cc:Agent>
            <dc:title>dreifacherspass</dc:title>
          </cc:Agent>
        </dc:creator>
        <cc:license
           rdf:resource="http://creativecommons.org/licenses/by-sa/4.0/" />
      </cc:Work>
      <cc:License
         rdf:about="http://creativecommons.org/licenses/by-sa/4.0/">
        <cc:permits
           rdf:resource="http://creativecommons.org/ns#Reproduction" />
        <cc:permits
           rdf:resource="http://creativecommons.org/ns#Distribution" />
        <cc:requires
           rdf:resource="http://creativecommons.org/ns#Notice" />
        <cc:requires
           rdf:resource="http://creativecommons.org/ns#Attribution" />
        <cc:permits
           rdf:resource="http://creativecommons.org/ns#DerivativeWorks" />
        <cc:requires
           rdf:resource="http://creativecommons.org/ns#ShareAlike" />
      </cc:License>
    </rdf:RDF>
  </metadata>
  <path
     id="path11"
     class="ColorScheme-Text"
     style="display:inline;fill:url(#oomox);fill-opacity:1;stroke-width:1.18177;paint-order:normal"
     d="m 1.9976042,1.2462658 c -1.0333808,0 -1.86531253,0.8415565 -1.86531253,1.8868926 V 3.7621226 H 12.567708 V 3.1331584 c 0,-1.0453361 -0.831931,-1.8868926 -1.865312,-1.8868926 z m 7.8292121,0.6688887 c 0.00568,-2.996e-4 0.011866,0 0.017608,0 0.1837657,0 0.3351737,0.1550161 0.3351737,0.3408937 0,0.1858773 -0.151408,0.339051 -0.3351737,0.339051 -0.1837639,0 -0.3351733,-0.1531737 -0.3351733,-0.339051 0,-0.1800688 0.1416218,-0.3316042 0.3175653,-0.3408937 z m -6.9487748,6.142e-4 c 0.00286,-7.54e-5 0.00563,0 0.0085,0 0.1837651,0 0.3351733,0.1556303 0.3351733,0.3415079 0,0.1858777 -0.1514082,0.3390511 -0.3351733,0.3390511 -0.1837639,0 -0.3351733,-0.1531734 -0.3351733,-0.3390511 0,-0.1829733 0.1468073,-0.3367582 0.3266733,-0.3415079 z m 6.9609187,0.2334047 c -0.055634,0.00282 -0.097759,0.048946 -0.097759,0.1068748 0,0.059798 0.044932,0.104418 0.1032238,0.104418 0.058292,0 0.1032237,-0.044621 0.1032237,-0.104418 0,-0.059798 -0.044932,-0.1068748 -0.1032237,-0.1068748 -0.00182,0 -0.00367,-9.08e-5 -0.00546,0 z m -6.9578828,0.00122 c -0.055634,0.00282 -0.097759,0.048946 -0.097759,0.1068748 0,0.059798 0.044932,0.1044179 0.1032237,0.1044179 0.058292,0 0.1032238,-0.044621 0.1032238,-0.1044179 0,-0.059798 -0.044932,-0.1068748 -0.1032238,-0.1068748 -0.00182,0 -0.00367,-9.07e-5 -0.00546,0 z" />
  <g
     transform="matrix(1.175,0,0,1.1885938,-11.330998,0.39196412)"
     shape-rendering="auto"
     id="g13"
     style="fill:url(#oomox);fill-opacity:1">
    <g
       transform="translate(-5.921344,9.0638521e-4)"
       shape-rendering="auto"
       id="g15"
       style="fill:url(#oomox);fill-opacity:1">
      <path
         d="m 18.115234,-0.2109375 c -0.05619,-0.0164115 -0.120321,-0.004845 -0.167968,0.0234375 -0.0953,0.0565655 -0.145674,0.15565464 -0.189454,0.28710937 -0.08755,0.26289977 -0.111409,0.6274567 -0.06641,0.95507813 0.04715,0.3431878 0.236328,0.578125 0.236328,0.578125 a 0.11131392,0.11131392 0 1 0 0.173828,-0.1386719 c 0,0 -0.151226,-0.1905298 -0.189453,-0.46875 -0.04036,-0.29378453 -0.01397,-0.64346049 0.05664,-0.85546872 0.03449,-0.10355718 0.07869,-0.15429016 0.08984,-0.16210938 0.0025,0.00148774 0.0054,0.00235329 0.01758,0.01757813 0.04138,0.05185364 0.09426,0.18819729 0.121094,0.35937499 a 0.11174276,0.11174276 0 1 0 0.220703,-0.0351562 C 18.387781,0.15701908 18.338322,-0.0025989 18.25,-0.11328125 18.21464,-0.15759848 18.171429,-0.194526 18.115234,-0.2109375 Z"
         color-rendering="auto"
         dominant-baseline="auto"
         image-rendering="auto"
         style="font-variant-ligatures:normal;font-variant-position:normal;font-variant-caps:normal;font-variant-numeric:normal;font-variant-alternates:normal;font-feature-settings:normal;text-indent:0;text-decoration-line:none;text-decoration-style:solid;text-decoration-color:#000000;text-transform:none;text-orientation:mixed;white-space:normal;shape-padding:0;isolation:auto;mix-blend-mode:normal;fill:url(#oomox);fill-opacity:1;paint-order:markers fill stroke"
         id="path11"
         class="ColorScheme-Text"/>
      <path
         d="m 18.207031,-0.16015625 -0.148437,0.16601563 c 0.0037,0.00328219 0.01479,0.01605398 0.01758,0.01953125 0.06596,0.0826527 0.146743,0.36999135 0.146484,0.69140625 L 18.445312,0.71875 C 18.445595,0.3677309 18.39029,0.06252405 18.25,-0.11328125 c -0.01522,-0.0190027 -0.02829,-0.0336972 -0.04297,-0.046875 z"
         color-rendering="auto"
         dominant-baseline="auto"
         image-rendering="auto"
         style="font-variant-ligatures:normal;font-variant-position:normal;font-variant-caps:normal;font-variant-numeric:normal;font-variant-alternates:normal;font-feature-settings:normal;text-indent:0;text-decoration-line:none;text-decoration-style:solid;text-decoration-color:#000000;text-transform:none;text-orientation:mixed;white-space:normal;shape-padding:0;isolation:auto;mix-blend-mode:normal;fill:url(#oomox);fill-opacity:1;paint-order:markers fill stroke"
         id="path14"
         class="ColorScheme-Text"/>
    </g>
    <path
       d="m 18.115234,-0.2109375 c -0.05619,-0.0164115 -0.120321,-0.004845 -0.167968,0.0234375 -0.0953,0.0565655 -0.145674,0.15565464 -0.189454,0.28710937 -0.08755,0.26289977 -0.111409,0.6274567 -0.06641,0.95507813 0.04715,0.3431878 0.236328,0.578125 0.236328,0.578125 0.09114,0.1263844 0.276804,-0.021733 0.173828,-0.1386719 -0.04899,-0.055627 -0.151226,-0.1905298 -0.189453,-0.46875 -0.04036,-0.29378453 -0.01397,-0.64346049 0.05664,-0.85546872 0.03449,-0.10355718 0.07869,-0.15429016 0.08984,-0.16210938 0.0025,0.00148774 0.0054,0.00235329 0.01758,0.01757813 0.04138,0.05185364 0.09426,0.18819729 0.121094,0.35937499 0.0234,0.14718946 0.244101,0.11203326 0.220703,-0.0351562 C 18.387781,0.15701908 18.338322,-0.0025989 18.25,-0.11328125 18.21464,-0.15759848 18.171429,-0.194526 18.115234,-0.2109375 Z"
       color-rendering="auto"
       dominant-baseline="auto"
       image-rendering="auto"
       style="font-variant-ligatures:normal;font-variant-position:normal;font-variant-caps:normal;font-variant-numeric:normal;font-variant-alternates:normal;font-feature-settings:normal;text-indent:0;text-decoration-line:none;text-decoration-style:solid;text-decoration-color:#000000;text-transform:none;text-orientation:mixed;white-space:normal;shape-padding:0;display:inline;isolation:auto;mix-blend-mode:normal;fill:url(#oomox);fill-opacity:1;paint-order:markers fill stroke"
       id="path17"
       class="ColorScheme-Text"/>
    <path
       d="m 18.207031,-0.16015625 -0.148437,0.16601563 c 0.0037,0.00328219 0.01479,0.01605398 0.01758,0.01953125 0.06596,0.0826527 0.146743,0.36999135 0.146484,0.69140625 L 18.445312,0.71875 C 18.445595,0.3677309 18.39029,0.06252405 18.25,-0.11328125 c -0.01522,-0.0190027 -0.02829,-0.0336972 -0.04297,-0.046875 z"
       color-rendering="auto"
       dominant-baseline="auto"
       image-rendering="auto"
       solid-color="#000000"
       style="font-variant-ligatures:normal;font-variant-position:normal;font-variant-caps:normal;font-variant-numeric:normal;font-variant-alternates:normal;font-feature-settings:normal;text-indent:0;text-decoration-line:none;text-decoration-style:solid;text-decoration-color:#000000;text-transform:none;text-orientation:mixed;white-space:normal;shape-padding:0;isolation:auto;mix-blend-mode:normal;fill:url(#oomox);fill-opacity:1;paint-order:markers fill stroke"
       id="path20"
       class="ColorScheme-Text"/>
  </g>
  <path
     d="m 9.777026,4.6687154 c -0.1722304,3e-7 -0.3108854,0.140259 -0.3108854,0.3144821 v 1.5724104 c 0,0.1742235 0.138655,0.3144822 0.3108854,0.3144822 h 1.554427 c 0.17223,2e-7 0.310885,-0.1402587 0.310885,-0.3144822 V 4.9831975 c 0,-0.1742231 -0.138655,-0.3144821 -0.310885,-0.3144821 z M 1.3831199,4.705569 c -0.1722302,0 -0.3108854,0.1402589 -0.3108854,0.314482 v 1.5724104 c 0,0.1742232 0.1386552,0.3144822 0.3108854,0.3144822 h 1.5544272 c 0.1722302,0 0.3108854,-0.140259 0.3108854,-0.3144822 V 5.020051 c 0,-0.1742231 -0.1386552,-0.314482 -0.3108854,-0.314482 z m 2.7979688,0 c -0.1722305,0 -0.3108853,0.1402589 -0.3108853,0.314482 v 1.5724104 c 0,0.1742232 0.1386548,0.3144822 0.3108853,0.3144822 h 1.5544272 c 0.1722302,0 0.3108853,-0.140259 0.3108853,-0.3144822 V 5.020051 c 0,-0.1742231 -0.1386551,-0.314482 -0.3108853,-0.314482 z m 2.7906823,0 c -0.1722303,0 -0.3108855,0.1402589 -0.3108855,0.314482 v 1.5724104 c 0,0.1742232 0.1386552,0.3144822 0.3108855,0.3144822 h 1.554427 c 0.1722302,0 0.3108855,-0.140259 0.3108855,-0.3144822 V 5.020051 c 0,-0.1742231 -0.1386553,-0.314482 -0.3108855,-0.314482 z m 2.8052552,2.7934852 c -0.1722305,4e-7 -0.3108855,0.1402591 -0.3108855,0.3144822 v 1.5724104 c 0,0.1742234 0.138655,0.3144821 0.3108855,0.3144821 h 1.5544268 c 0.17223,0 0.310886,-0.1402587 0.310886,-0.3144821 V 7.8135364 c 0,-0.1742231 -0.138656,-0.3144822 -0.310886,-0.3144822 z M 1.38312,7.5359077 c -0.1722302,0 -0.3108854,0.1402591 -0.3108854,0.3144822 v 1.5724105 c 0,0.1742231 0.1386552,0.314482 0.3108854,0.314482 h 1.5544272 c 0.1722302,0 0.3108855,-0.1402589 0.3108855,-0.314482 V 7.8503899 c 0,-0.1742231 -0.1386553,-0.3144822 -0.3108855,-0.3144822 z m 2.7979688,0 c -0.1722304,0 -0.3108853,0.1402591 -0.3108853,0.3144822 v 1.5724105 c 0,0.1742231 0.1386549,0.314482 0.3108853,0.314482 H 5.735516 c 0.1722302,0 0.3108853,-0.1402589 0.3108853,-0.314482 V 7.8503899 c 0,-0.1742231 -0.1386551,-0.3144822 -0.3108853,-0.3144822 z m 2.7906823,0 c -0.1722302,0 -0.3108854,0.1402591 -0.3108854,0.3144822 v 1.5724105 c 0,0.1742231 0.1386552,0.314482 0.3108854,0.314482 h 1.5544271 c 0.1722302,0 0.3108854,-0.1402589 0.3108854,-0.314482 V 7.8503899 c 0,-0.1742231 -0.1386552,-0.3144822 -0.3108854,-0.3144822 z m 2.8125414,2.7934853 c -0.1722302,0 -0.3108854,0.140259 -0.3108854,0.314482 v 1.572411 c 0,0.174223 0.1386552,0.314482 0.3108854,0.314482 H 11.33874 c 0.17223,0 0.310885,-0.140259 0.310885,-0.314482 v -1.572411 c 0,-0.174223 -0.138655,-0.314482 -0.310885,-0.314482 z m -8.3939061,0.03685 c -0.1722302,0 -0.3108854,0.140259 -0.3108854,0.314482 v 1.572411 c 0,0.174223 0.1386552,0.314482 0.3108854,0.314482 h 1.5544271 c 0.1722302,0 0.3108854,-0.140259 0.3108854,-0.314482 v -1.572411 c 0,-0.174223 -0.1386552,-0.314482 -0.3108854,-0.314482 z m 2.7979687,0 c -0.1722302,0 -0.3108853,0.140259 -0.3108853,0.314482 v 1.572411 c 0,0.174223 0.1386551,0.314482 0.3108853,0.314482 h 1.554427 c 0.1722303,0 0.3108855,-0.140259 0.3108855,-0.314482 v -1.572411 c 0,-0.174223 -0.1386552,-0.314482 -0.3108855,-0.314482 z m 2.7906825,0 c -0.1722304,0 -0.3108854,0.140259 -0.3108854,0.314482 v 1.572411 c 0,0.174223 0.138655,0.314482 0.3108854,0.314482 h 1.5544271 c 0.1722302,0 0.3108854,-0.140259 0.3108854,-0.314482 v -1.572411 c 0,-0.174223 -0.1386552,-0.314482 -0.3108854,-0.314482 z"
     style="fill:url(#oomox);fill-opacity:1;stroke-width:0.312678;paint-order:markers fill stroke"
     id="path25"
     class="ColorScheme-Text"/>
</svg>
