<?xml version="1.0" encoding="UTF-8" standalone="no"?>
<svg
   width="16"
   height="16"
   version="1.1"
   id="svg24"
   xmlns:xlink="http://www.w3.org/1999/xlink"
   xmlns="http://www.w3.org/2000/svg"
   xmlns:svg="http://www.w3.org/2000/svg">
 <defs>
   <style id="current-color-scheme" type="text/css">
   .ColorScheme-Text { color: #0abdc6; } .ColorScheme-Highlight { color:#5294e2; }
  </style>
  <linearGradient id="arrongin" x1="0%" x2="0%" y1="0%" y2="100%">
   <stop offset="0%" style="stop-color:#dd9b44; stop-opacity:1"/>
   <stop offset="100%" style="stop-color:#ad6c16; stop-opacity:1"/>
  </linearGradient>
  <linearGradient id="aurora" x1="0%" x2="0%" y1="0%" y2="100%">
   <stop offset="0%" style="stop-color:#09D4DF; stop-opacity:1"/>
   <stop offset="100%" style="stop-color:#9269F4; stop-opacity:1"/>
  </linearGradient>
  <linearGradient id="cyberneon" x1="0%" x2="0%" y1="0%" y2="100%">
    <stop offset="0" style="stop-color:#0abdc6; stop-opacity:1"/>
    <stop offset="1" style="stop-color:#ea00d9; stop-opacity:1"/>
  </linearGradient>
  <linearGradient id="fitdance" x1="0%" x2="0%" y1="0%" y2="100%">
   <stop offset="0%" style="stop-color:#1AD6AB; stop-opacity:1"/>
   <stop offset="100%" style="stop-color:#329DB6; stop-opacity:1"/>
  </linearGradient>
  <linearGradient id="oomox" x1="0%" x2="0%" y1="0%" y2="100%">
   <stop offset="0%" style="stop-color:#0abdc6; stop-opacity:1"/>
   <stop offset="100%" style="stop-color:#b800ff; stop-opacity:1"/>
  </linearGradient>
  <linearGradient id="rainblue" x1="0%" x2="0%" y1="0%" y2="100%">
   <stop offset="0%" style="stop-color:#00F260; stop-opacity:1"/>
   <stop offset="100%" style="stop-color:#0575E6; stop-opacity:1"/>
  </linearGradient>
  <linearGradient id="sunrise" x1="0%" x2="0%" y1="0%" y2="100%">
   <stop offset="0%" style="stop-color: #FF8501; stop-opacity:1"/>
   <stop offset="100%" style="stop-color: #FFCB01; stop-opacity:1"/>
  </linearGradient>
  <linearGradient id="telinkrin" x1="0%" x2="0%" y1="0%" y2="100%">
   <stop offset="0%" style="stop-color: #b2ced6; stop-opacity:1"/>
   <stop offset="100%" style="stop-color: #6da5b7; stop-opacity:1"/>
  </linearGradient>
  <linearGradient id="60spsycho" x1="0%" x2="0%" y1="0%" y2="100%">
   <stop offset="0%" style="stop-color: #df5940; stop-opacity:1"/>
   <stop offset="25%" style="stop-color: #d8d15f; stop-opacity:1"/>
   <stop offset="50%" style="stop-color: #e9882a; stop-opacity:1"/>
   <stop offset="100%" style="stop-color: #279362; stop-opacity:1"/>
  </linearGradient>
  <linearGradient id="90ssummer" x1="0%" x2="0%" y1="0%" y2="100%">
   <stop offset="0%" style="stop-color: #f618c7; stop-opacity:1"/>
   <stop offset="20%" style="stop-color: #94ffab; stop-opacity:1"/>
   <stop offset="50%" style="stop-color: #fbfd54; stop-opacity:1"/>
   <stop offset="100%" style="stop-color: #0f83ae; stop-opacity:1"/>
  </linearGradient>
 </defs>
  <path
     fill="url(#oomox)"
     class="ColorScheme-Text"
     d="M 3.9941406,0 C 2.7359406,0.0145 1.81525,-0.03060437 1.0625,0.38476562 0.68613,0.59242563 0.38926937,0.9441525 0.22460938,1.3828125 0.05993937,1.8214825 0,2.34239 0,3 V 9 C 0,9.65761 0.05989937,10.178527 0.22460938,10.617188 0.38927937,11.055848 0.68613,11.407584 1.0625,11.615234 1.81525,12.030554 2.7359506,11.98543 3.9941406,12 H 3.9980469 6 v 1 h 4 v -1 h 2.001953 0.0039 c 1.25819,-0.0145 2.178891,0.0306 2.931641,-0.384766 0.37637,-0.20766 0.673221,-0.559386 0.837891,-0.998046 C 15.939881,10.178517 16,9.65761 16,9 V 3 C 16,2.34239 15.940101,1.8214825 15.775391,1.3828125 15.610731,0.9441525 15.31387,0.59242563 14.9375,0.38476562 14.18475,-0.03057438 13.264059,0.01452 12.005859,0 h -0.0039 -8.0039061 z M 4,1 h 8 c 1.25852,0.0147 2.087175,0.059799 2.453125,0.2617188 0.18341,0.1011999 0.289159,0.2127362 0.386719,0.4726562 C 14.937274,1.994285 15,2.40761 15,3 v 6 c 0,0.59239 -0.0626,1.005725 -0.160156,1.265625 -0.0976,0.25991 -0.203309,0.371466 -0.386719,0.472656 C 14.087175,10.940191 13.25852,10.98529 12,11 H 4.0058594 4 C 2.74147,10.9853 1.9108819,10.940201 1.5449219,10.738281 1.3615119,10.637091 1.2577162,10.525535 1.1601562,10.265625 1.0625862,10.005725 1,9.59239 1,9 V 3 C 1,2.40761 1.0625963,1.994275 1.1601562,1.734375 1.2577562,1.474465 1.3615119,1.3629088 1.5449219,1.2617188 1.9108819,1.0598087 2.74147,1.01471 4,1 Z M 3,14 0,15 v 1 h 16 v -1 l -3,-1 z"
     id="path24"/>
  <path
     id="rect24"
     class="ColorScheme-Text"
     style="opacity:0.3;fill:url(#oomox);stroke-width:2.41797"
     d="M 4.1779284,1.65 H 11.822069 C 12.086849,1.65 12.3,1.8631557 12.3,2.1279284 V 5.95 H 3.7 V 2.1279284 C 3.7,1.8631557 3.9131557,1.65 4.1779284,1.65 Z" />
  <path
     id="rect26"
     class="ColorScheme-Text"
     style="opacity:0.3;fill:url(#oomox);stroke-width:1.07113"
     d="M 12.3,5.95 H 3.7 v 4.3 h 8.6 z" />
  <circle
     style="fill:url(#oomox);stroke-width:0.573319"
     cx="5.9933338"
     cy="3.3700027"
     r="1.1466669"
     class="ColorScheme-Text"
     id="circle2" />
  <path
     id="rect3"
     class="ColorScheme-Text"
     style="fill:url(#oomox);stroke-width:0.573319"
     d="M 8.86,1.9366669 V 2.51 h 1.146668 V 1.9366669 Z m 0,1.1466659 v 0.5733343 h 1.72 V 3.0833328 Z M 8.86,4.23 V 4.8033328 H 9.72 V 4.23 Z m 0,1.1466671 V 5.95 h 2.293331 V 5.3766671 Z" />
  <circle
     style="fill:url(#oomox);stroke-width:0.573319"
     cx="5.9933338"
     cy="7.9566531"
     r="1.1466669"
     class="ColorScheme-Text"
     id="circle6" />
  <path
     id="rect8"
     class="ColorScheme-Text"
     style="fill:url(#oomox);stroke-width:0.573319"
     d="M 8.86,6.2366671 V 6.81 h 1.146668 V 6.2366671 Z m 0,1.1466648 v 0.573335 h 1.72 V 7.3833319 Z M 8.86,8.53 V 9.1033331 H 9.72 V 8.53 Z m 0,1.1466679 V 10.25 h 2.293331 V 9.6766679 Z" />
</svg>
