<?xml version="1.0" encoding="UTF-8" standalone="no"?>
<svg
   version="1.0"
   width="48"
   height="48"
   id="svg2"
   xmlns:xlink="http://www.w3.org/1999/xlink"
   xmlns="http://www.w3.org/2000/svg"
   xmlns:svg="http://www.w3.org/2000/svg">
  <defs
     id="defs">
    <style
       id="current-color-scheme"
       type="text/css">
      .ColorScheme-Text { color: #0abdc6; } .ColorScheme-Highlight { color:#5294e2; }
     </style>
    <linearGradient
       id="arrongin"
       x1="0%"
       x2="0%"
       y1="0%"
       y2="100%">
      <stop
         offset="0%"
         style="stop-color:#dd9b44; stop-opacity:1"
         id="stop9192" />
      <stop
         offset="100%"
         style="stop-color:#ad6c16; stop-opacity:1"
         id="stop9194" />
    </linearGradient>
    <linearGradient
       id="aurora"
       x1="0%"
       x2="0%"
       y1="0%"
       y2="100%">
      <stop
         offset="0%"
         style="stop-color:#09D4DF; stop-opacity:1"
         id="stop9197" />
      <stop
         offset="100%"
         style="stop-color:#9269F4; stop-opacity:1"
         id="stop9199" />
    </linearGradient>
    <linearGradient
       id="cyberneon"
       x1="0%"
       x2="0%"
       y1="0%"
       y2="100%">
      <stop
         offset="0"
         style="stop-color:#0abdc6; stop-opacity:1"
         id="stop9202" />
      <stop
         offset="1"
         style="stop-color:#ea00d9; stop-opacity:1"
         id="stop9204" />
    </linearGradient>
    <linearGradient
       id="fitdance"
       x1="0%"
       x2="0%"
       y1="0%"
       y2="100%">
      <stop
         offset="0%"
         style="stop-color:#1AD6AB; stop-opacity:1"
         id="stop9207" />
      <stop
         offset="100%"
         style="stop-color:#329DB6; stop-opacity:1"
         id="stop9209" />
    </linearGradient>
    <linearGradient
       id="oomox"
       x1="0%"
       x2="0%"
       y1="0%"
       y2="100%">
      <stop
         offset="0%"
         style="stop-color:#0abdc6; stop-opacity:1"
         id="stop9212" />
      <stop
         offset="100%"
         style="stop-color:#b800ff; stop-opacity:1"
         id="stop9214" />
    </linearGradient>
    <linearGradient
       id="rainblue"
       x1="0%"
       x2="0%"
       y1="0%"
       y2="100%">
      <stop
         offset="0%"
         style="stop-color:#00F260; stop-opacity:1"
         id="stop9217" />
      <stop
         offset="100%"
         style="stop-color:#0575E6; stop-opacity:1"
         id="stop9219" />
    </linearGradient>
    <linearGradient
       id="sunrise"
       x1="0%"
       x2="0%"
       y1="0%"
       y2="100%">
      <stop
         offset="0%"
         style="stop-color: #FF8501; stop-opacity:1"
         id="stop9222" />
      <stop
         offset="100%"
         style="stop-color: #FFCB01; stop-opacity:1"
         id="stop9224" />
    </linearGradient>
    <linearGradient
       id="telinkrin"
       x1="0%"
       x2="0%"
       y1="0%"
       y2="100%">
      <stop
         offset="0%"
         style="stop-color: #b2ced6; stop-opacity:1"
         id="stop9227" />
      <stop
         offset="100%"
         style="stop-color: #6da5b7; stop-opacity:1"
         id="stop9229" />
    </linearGradient>
    <linearGradient
       id="60spsycho"
       x1="0%"
       x2="0%"
       y1="0%"
       y2="100%">
      <stop
         offset="0%"
         style="stop-color: #df5940; stop-opacity:1"
         id="stop9232" />
      <stop
         offset="25%"
         style="stop-color: #d8d15f; stop-opacity:1"
         id="stop9234" />
      <stop
         offset="50%"
         style="stop-color: #e9882a; stop-opacity:1"
         id="stop9236" />
      <stop
         offset="100%"
         style="stop-color: #279362; stop-opacity:1"
         id="stop9238" />
    </linearGradient>
    <linearGradient
       id="90ssummer"
       x1="0%"
       x2="0%"
       y1="0%"
       y2="100%">
      <stop
         offset="0%"
         style="stop-color: #f618c7; stop-opacity:1"
         id="stop9241" />
      <stop
         offset="20%"
         style="stop-color: #94ffab; stop-opacity:1"
         id="stop9243" />
      <stop
         offset="50%"
         style="stop-color: #fbfd54; stop-opacity:1"
         id="stop9245" />
      <stop
         offset="100%"
         style="stop-color: #0f83ae; stop-opacity:1"
         id="stop9247" />
    </linearGradient>
  </defs>
  <path
     d="m 41.149452,37.335852 c -2.588239,6.346629 -9.260645,11.584022 -15.57388,8.988192 -6.756085,-0.953715 -9.885674,-8.853268 -8.9311,-15.643589 1.07216,-7.626766 7.184126,-10.385597 15.352453,-8.16713 8.168326,2.218467 12.059592,7.694112 9.152527,14.822527 z"
     id="cherry222"
     class="ColorScheme-Text"
     style="display:inline;fill:url(#oomox);stroke:none;stroke-width:1.01939;fill-opacity:1" />
  <path
     d="M 40.045364,2.5994553 C 39.758451,3.7925405 39.20261,4.7702526 45.51134,8.6174679 48.430824,10.39784 46.258269,13.890072 45.49066,18.608927 40.565751,13.512586 35.410816,7.8157559 40.045368,2.5994553 Z"
     id="leaf222"
     class="ColorScheme-Text"
     style="fill:url(#oomox);stroke:none;stroke-width:1.01993;fill-opacity:1.0" />
  <path
     d="m 25.326986,2.1959547 c 4.572088,-3.0295056 14.112944,0.8917145 14.112944,0.8917145 0,0 -7.623107,7.5613038 -11.230838,6.5450166 C 25.121591,8.7567153 16.760203,2.982197 16.760203,2.982197 c 0,0 4.571814,1.8488772 8.566783,-0.7862423 z"
     id="leaf111"
     class="ColorScheme-Text"
     style="display:inline;fill:url(#oomox);stroke:none;stroke-width:1.09051;fill-opacity:1.0" />
  <path
     d="M 22.617822,33.455589 C 18.758919,38.35556 11.527192,41.319788 6.5287119,37.561713 0.73414862,35.125415 -0.12890397,27.515407 2.3808679,21.841142 5.1997991,15.467907 11.326284,14.524427 18.071936,18.395907 c 6.745648,3.871488 8.880134,9.556124 4.545886,15.059682 z"
     id="cherry111"
     class="ColorScheme-Text"
     style="display:inline;fill:url(#oomox);stroke:none;stroke-width:1.1026;fill-opacity:1" />
  <path
     d="m 39.834921,2.4700653 c 0,0 -1.829409,1.2698413 -1.829409,1.2698413 C 19.275849,10.107337 17.380125,19.311525 14.868769,19.247763 c 0.630932,1.260837 1.870638,1.506675 3.524742,1.615434 -2.034943,-2.221626 5.987732,-10.742379 18.180252,-15.3005055 -4.687979,6.6941875 -5.831326,19.2775605 -7.478938,19.4133255 1.320909,0.898245 2.107764,1.254217 3.492654,0.537647 -1.320848,-1.458275 1.006914,-13.322947 5.400637,-19.9830773 0,0 2.996388,-1.8216221 2.996388,-1.8216221 z"
     id="cherry_stem"
     class="ColorScheme-Text"
     style="display:inline;fill:url(#oomox);stroke:none;stroke-width:1.1026;fill-opacity:1" />
</svg>
