<?xml version="1.0" encoding="UTF-8" standalone="no"?>
<svg
   version="1.1"
   id="svg111234"
   x="0px"
   y="0px"
   width="16"
   height="16"
   viewBox="0 0 16 16"
   enable-background="new 0 0 64 64"
   xml:space="preserve"
   xmlns:xlink="http://www.w3.org/1999/xlink"
   xmlns="http://www.w3.org/2000/svg"
   xmlns:svg="http://www.w3.org/2000/svg"
   xmlns:rdf="http://www.w3.org/1999/02/22-rdf-syntax-ns#"
   xmlns:cc="http://creativecommons.org/ns#"
   xmlns:dc="http://purl.org/dc/elements/1.1/">
  <defs>
   <style id="current-color-scheme" type="text/css">
   .ColorScheme-Text { color: #0abdc6; } .ColorScheme-Highlight { color:#5294e2; }
  </style>
  <linearGradient id="arrongin" x1="0%" x2="0%" y1="0%" y2="100%">
   <stop offset="0%" style="stop-color:#dd9b44; stop-opacity:1"/>
   <stop offset="100%" style="stop-color:#ad6c16; stop-opacity:1"/>
  </linearGradient>
  <linearGradient id="aurora" x1="0%" x2="0%" y1="0%" y2="100%">
   <stop offset="0%" style="stop-color:#09D4DF; stop-opacity:1"/>
   <stop offset="100%" style="stop-color:#9269F4; stop-opacity:1"/>
  </linearGradient>
  <linearGradient id="cyberneon" x1="0%" x2="0%" y1="0%" y2="100%">
    <stop offset="0" style="stop-color:#0abdc6; stop-opacity:1"/>
    <stop offset="1" style="stop-color:#ea00d9; stop-opacity:1"/>
  </linearGradient>
  <linearGradient id="fitdance" x1="0%" x2="0%" y1="0%" y2="100%">
   <stop offset="0%" style="stop-color:#1AD6AB; stop-opacity:1"/>
   <stop offset="100%" style="stop-color:#329DB6; stop-opacity:1"/>
  </linearGradient>
  <linearGradient id="oomox" x1="0%" x2="0%" y1="0%" y2="100%">
   <stop offset="0%" style="stop-color:#0abdc6; stop-opacity:1"/>
   <stop offset="100%" style="stop-color:#b800ff; stop-opacity:1"/>
  </linearGradient>
  <linearGradient id="rainblue" x1="0%" x2="0%" y1="0%" y2="100%">
   <stop offset="0%" style="stop-color:#00F260; stop-opacity:1"/>
   <stop offset="100%" style="stop-color:#0575E6; stop-opacity:1"/>
  </linearGradient>
  <linearGradient id="sunrise" x1="0%" x2="0%" y1="0%" y2="100%">
   <stop offset="0%" style="stop-color: #FF8501; stop-opacity:1"/>
   <stop offset="100%" style="stop-color: #FFCB01; stop-opacity:1"/>
  </linearGradient>
  <linearGradient id="telinkrin" x1="0%" x2="0%" y1="0%" y2="100%">
   <stop offset="0%" style="stop-color: #b2ced6; stop-opacity:1"/>
   <stop offset="100%" style="stop-color: #6da5b7; stop-opacity:1"/>
  </linearGradient>
  <linearGradient id="60spsycho" x1="0%" x2="0%" y1="0%" y2="100%">
   <stop offset="0%" style="stop-color: #df5940; stop-opacity:1"/>
   <stop offset="25%" style="stop-color: #d8d15f; stop-opacity:1"/>
   <stop offset="50%" style="stop-color: #e9882a; stop-opacity:1"/>
   <stop offset="100%" style="stop-color: #279362; stop-opacity:1"/>
  </linearGradient>
  <linearGradient id="90ssummer" x1="0%" x2="0%" y1="0%" y2="100%">
   <stop offset="0%" style="stop-color: #f618c7; stop-opacity:1"/>
   <stop offset="20%" style="stop-color: #94ffab; stop-opacity:1"/>
   <stop offset="50%" style="stop-color: #fbfd54; stop-opacity:1"/>
   <stop offset="100%" style="stop-color: #0f83ae; stop-opacity:1"/>
  </linearGradient>
 </defs>
 <path
   d="m 15.65825,14.159894 c 0,0.507589 -0.411707,0.918991 -0.918989,0.918991 H 1.2607397 c -0.50758889,0 -0.91899011,-0.411402 -0.91899011,-0.918991 V 3.3332723 c 0,-0.5075888 0.41140122,-0.9189901 0.91899011,-0.9189901 H 14.739261 c 0.507282,0 0.918989,0.4114013 0.918989,0.9189901 z"
   id="path19"
   class="ColorScheme-Text"
   style="fill:none;stroke:url(#oomox);stroke-width:0.683499" />
 <path
   id="path14"
   class="ColorScheme-Text"
   style="fill:url(#oomox);stroke-width:0.408059"
   d="M 6.2063784,0.12788171 5.6437048,1.6788207 h 0.3187953 l 0.1171566,-0.326765 h 0.6120868 l 0.1179539,0.326765 H 7.1452302 L 6.6000905,0.12788171 Z m 3.219035,0 v 0.276555 h 0.3435018 v -0.276555 z m 0.6041166,0 V 1.6788207 h 0.326765 V 0.12788171 Z m -3.6398443,0.302059 h 0.00877 L 6.6080588,1.0922377 H 6.1633392 Z m 1.4935557,0.141864 c -0.1175207,0.0057 -0.2126876,0.05635 -0.285322,0.151428 h -0.00877 l -0.00876,-0.125925 H 7.2623911 c 0,0.02816 0.00225,0.06656 0.00797,0.117158 v 0.10042 1.25764699 h 0.3195915 v -0.545139 h 0.00797 c 0.061617,0.111808 0.1712755,0.168164 0.3275618,0.168164 0.284824,-0.01102 0.4382158,-0.195651 0.4606589,-0.55311 C 8.3637003,0.77927671 8.1962238,0.58853471 7.8832437,0.57180471 Z m 1.3413314,0.01594 c -0.165739,-8.61e-4 -0.2781491,0.06966 -0.3355323,0.211202 h -0.00797 v -0.201639 h -0.294088 c 0,0.03387 0.00265,0.08104 0.00877,0.142661 v 0.07492 0.86393499 h 0.3179969 v -0.536373 -0.03347 c 0.01142,-0.06692 0.025508,-0.12022299 0.04224,-0.15939699 0.028156,-0.03346 0.081459,-0.05898 0.1593977,-0.07572 h 0.1426577 v -0.285321 c -0.011524,-6.9e-4 -0.022422,-7.39e-4 -0.033473,-7.96e-4 z m 0.2096074,0.0096 V 1.6788567 h 0.326765 V 0.59734371 Z m -1.6099159,0.184901 c 0.156694,0 0.2316493,0.119893 0.2263446,0.36023799 0.00531,0.234633 -0.06965,0.352269 -0.2263446,0.352269 -0.1452685,-0.0057 -0.224094,-0.123349 -0.2351115,-0.352269 0.011018,-0.23504099 0.089843,-0.35452599 0.2351115,-0.36023799 z" />
 <path
   d="M 5.4056912,13.370175 V 10.465554 C 5.1174347,10.72716 4.7777146,10.975899 4.3849995,11.211467 4.096743,10.923824 3.7570229,10.622701 3.3643079,10.308713 4.2278522,9.8642288 4.9342493,9.3146724 5.4838053,8.6600451 H 3.4427284 V 7.7572905 H 6.0725716 C 6.1509922,7.6004496 6.2294127,7.4304364 6.3081394,7.2469448 H 4.581357 V 6.3441901 H 6.6616443 C 6.7137204,6.1873492 6.7529306,6.0302018 6.779275,5.8730545 H 3.7570229 V 4.9702999 h 3.2578199 c 0.052076,-0.2876438 0.091286,-0.5492497 0.1176307,-0.7851238 0.182879,0.026344 0.4576571,0.065554 0.8243341,0.1176308 0.1304967,0.026344 0.2220893,0.03921 0.2747781,0.03921 0.2092234,0.052689 0.2481273,0.1706259 0.1176308,0.3531986 -0.052689,0.052689 -0.078421,0.091899 -0.078421,0.1176307 v 0.07842 l -0.03921,0.078421 H 12.195802 V 5.8724421 H 8.0747447 C 8.0484003,6.0295892 8.0091901,6.1864302 7.9571139,6.3435775 H 11.372081 V 7.2463321 H 9.6842027 c 0.025732,0.078421 0.078421,0.1834917 0.156841,0.3139882 0.052076,0.078421 0.091593,0.1442814 0.1179366,0.1963576 h 2.5511157 v 0.9027546 h -1.805814 c 0.471441,0.4711356 1.085939,0.8770229 1.845025,1.2170495 -0.07842,0.052688 -0.104765,0.078417 -0.07842,0.078417 -0.44571,0.366676 -0.74622,0.654626 -0.902755,0.863544 -0.366676,-0.235875 -0.706702,-0.471136 -1.020691,-0.706704 V 13.21333 H 9.251971 V 13.056187 H 6.7005482 v 0.313682 H 5.4056912 Z M 7.0151492,8.6600451 C 6.8316575,8.9219573 6.6356063,9.1967353 6.4263829,9.4843792 H 9.8808665 C 9.6189544,9.1967353 9.3830803,8.9219573 9.1741632,8.6600451 Z M 9.2522773,10.347923 H 6.7008545 v 0.510346 h 2.5514228 z m 0,1.37389 H 6.7008545 V 12.27137 H 9.2522773 Z M 8.5853969,7.7572905 C 8.5063637,7.6004496 8.414771,7.4304364 8.3103125,7.2469448 H 7.6431257 C 7.5904369,7.404092 7.5251886,7.5744115 7.4467682,7.7572905 Z"
   id="path29"
   class="ColorScheme-Text"
   style="display:inline;fill:url(#oomox);stroke-width:0.306331" />
 <rect
   x="11.997912"
   y="0.57936525"
   width="1.1619098"
   height="3.2777314"
   id="rect81"
   class="ColorScheme-Text"
   style="fill:url(#oomox);stroke-width:0.306331" />
 <rect
   x="2.8401771"
   y="0.57936525"
   width="1.1616035"
   height="3.2777314"
   id="rect55"
   class="ColorScheme-Text"
   style="display:inline;fill:url(#oomox);stroke-width:0.306331" />
 <metadata
   id="metadata101"><rdf:RDF><cc:Work
       rdf:about=""><dc:creator><cc:Agent><dc:title>dreifacherspass</dc:title></cc:Agent></dc:creator><cc:license
         rdf:resource="http://creativecommons.org/licenses/by-sa/4.0/" /></cc:Work><cc:License
       rdf:about="http://creativecommons.org/licenses/by-sa/4.0/"><cc:permits
         rdf:resource="http://creativecommons.org/ns#Reproduction" /><cc:permits
         rdf:resource="http://creativecommons.org/ns#Distribution" /><cc:requires
         rdf:resource="http://creativecommons.org/ns#Notice" /><cc:requires
         rdf:resource="http://creativecommons.org/ns#Attribution" /><cc:permits
         rdf:resource="http://creativecommons.org/ns#DerivativeWorks" /><cc:requires
         rdf:resource="http://creativecommons.org/ns#ShareAlike" /></cc:License></rdf:RDF></metadata></svg>
