<?xml version="1.0" encoding="UTF-8" standalone="no"?>
<svg
   version="1.1"
   viewBox="0 0 16 16"
   xml:space="preserve"
   id="svg50"
   width="16"
   height="16"
   xmlns:xlink="http://www.w3.org/1999/xlink"
   xmlns="http://www.w3.org/2000/svg"
   xmlns:svg="http://www.w3.org/2000/svg"
   xmlns:rdf="http://www.w3.org/1999/02/22-rdf-syntax-ns#"
   xmlns:cc="http://creativecommons.org/ns#"
   xmlns:dc="http://purl.org/dc/elements/1.1/">
  <metadata
     id="metadata1"><rdf:RDF><cc:Work
         rdf:about=""><dc:format>image/svg+xml</dc:format><dc:type
           rdf:resource="http://purl.org/dc/dcmitype/StillImage" /><dc:creator><cc:Agent><dc:title>dreifacherspass</dc:title></cc:Agent></dc:creator><cc:license
           rdf:resource="http://creativecommons.org/licenses/by-sa/4.0/" /></cc:Work><cc:License
         rdf:about="http://creativecommons.org/licenses/by-sa/4.0/"><cc:permits
           rdf:resource="http://creativecommons.org/ns#Reproduction" /><cc:permits
           rdf:resource="http://creativecommons.org/ns#Distribution" /><cc:requires
           rdf:resource="http://creativecommons.org/ns#Notice" /><cc:requires
           rdf:resource="http://creativecommons.org/ns#Attribution" /><cc:permits
           rdf:resource="http://creativecommons.org/ns#DerivativeWorks" /><cc:requires
           rdf:resource="http://creativecommons.org/ns#ShareAlike" /></cc:License></rdf:RDF>
  </metadata>
  <defs>
   <style id="current-color-scheme" type="text/css">
   .ColorScheme-Text { color: #0abdc6; } .ColorScheme-Highlight { color:#5294e2; }
  </style>
  <linearGradient id="arrongin" x1="0%" x2="0%" y1="0%" y2="100%">
   <stop offset="0%" style="stop-color:#dd9b44; stop-opacity:1"/>
   <stop offset="100%" style="stop-color:#ad6c16; stop-opacity:1"/>
  </linearGradient>
  <linearGradient id="aurora" x1="0%" x2="0%" y1="0%" y2="100%">
   <stop offset="0%" style="stop-color:#09D4DF; stop-opacity:1"/>
   <stop offset="100%" style="stop-color:#9269F4; stop-opacity:1"/>
  </linearGradient>
  <linearGradient id="cyberneon" x1="0%" x2="0%" y1="0%" y2="100%">
    <stop offset="0" style="stop-color:#0abdc6; stop-opacity:1"/>
    <stop offset="1" style="stop-color:#ea00d9; stop-opacity:1"/>
  </linearGradient>
  <linearGradient id="fitdance" x1="0%" x2="0%" y1="0%" y2="100%">
   <stop offset="0%" style="stop-color:#1AD6AB; stop-opacity:1"/>
   <stop offset="100%" style="stop-color:#329DB6; stop-opacity:1"/>
  </linearGradient>
  <linearGradient id="oomox" x1="0%" x2="0%" y1="0%" y2="100%">
   <stop offset="0%" style="stop-color:#0abdc6; stop-opacity:1"/>
   <stop offset="100%" style="stop-color:#b800ff; stop-opacity:1"/>
  </linearGradient>
  <linearGradient id="rainblue" x1="0%" x2="0%" y1="0%" y2="100%">
   <stop offset="0%" style="stop-color:#00F260; stop-opacity:1"/>
   <stop offset="100%" style="stop-color:#0575E6; stop-opacity:1"/>
  </linearGradient>
  <linearGradient id="sunrise" x1="0%" x2="0%" y1="0%" y2="100%">
   <stop offset="0%" style="stop-color: #FF8501; stop-opacity:1"/>
   <stop offset="100%" style="stop-color: #FFCB01; stop-opacity:1"/>
  </linearGradient>
  <linearGradient id="telinkrin" x1="0%" x2="0%" y1="0%" y2="100%">
   <stop offset="0%" style="stop-color: #b2ced6; stop-opacity:1"/>
   <stop offset="100%" style="stop-color: #6da5b7; stop-opacity:1"/>
  </linearGradient>
  <linearGradient id="60spsycho" x1="0%" x2="0%" y1="0%" y2="100%">
   <stop offset="0%" style="stop-color: #df5940; stop-opacity:1"/>
   <stop offset="25%" style="stop-color: #d8d15f; stop-opacity:1"/>
   <stop offset="50%" style="stop-color: #e9882a; stop-opacity:1"/>
   <stop offset="100%" style="stop-color: #279362; stop-opacity:1"/>
  </linearGradient>
  <linearGradient id="90ssummer" x1="0%" x2="0%" y1="0%" y2="100%">
   <stop offset="0%" style="stop-color: #f618c7; stop-opacity:1"/>
   <stop offset="20%" style="stop-color: #94ffab; stop-opacity:1"/>
   <stop offset="50%" style="stop-color: #fbfd54; stop-opacity:1"/>
   <stop offset="100%" style="stop-color: #0f83ae; stop-opacity:1"/>
  </linearGradient>
 </defs>
  <path
    d="m 640.25,512.56 c 0.366,-0.686 1.015,-1.901 1.507,-3.229 0.237,-0.588 0.284,-0.774 0.375,-1.057 0.174,-0.52 0.277,-0.819 0.368,-1.099 0.09,-0.28 0.019,-0.115 0.107,-0.392 0.087,-0.277 0.181,-0.577 0.264,-0.852 0.082,-0.276 0.15,-0.659 0.224,-0.934 0.076,-0.276 0.167,-0.604 0.233,-0.881 0.066,-0.276 0.257,-1.337 0.312,-1.615 0.316,-1.599 0.241,-2.12 0.401,-3.701 0.16,-1.58 0.244,-3.151 0.26,-4.712 0.016,-1.563 -0.038,-3.115 -0.154,-4.66 -0.117,-1.545 -0.296,-3.081 -0.533,-4.61 -0.237,-1.528 -0.531,-3.049 -0.877,-4.562 -0.345,-1.513 -0.742,-3.02 -1.184,-4.518 -0.442,-1.5 -0.93,-2.992 -1.457,-4.478 -0.527,-1.485 -1.094,-2.964 -1.694,-4.438 -1.181,-2.896 -2.451,-5.732 -3.805,-8.51 -1.353,-2.778 -2.789,-5.5 -4.302,-8.169 -1.512,-2.671 -3.099,-5.288 -4.755,-7.858 -1.656,-2.571 -3.38,-5.093 -5.165,-7.574 -1.785,-2.48 -3.631,-4.918 -5.53,-7.318 -1.9,-2.4 -3.853,-4.762 -5.852,-7.09 -1.999,-2.328 -4.044,-4.624 -6.129,-6.89 -2.084,-2.267 -4.207,-4.506 -6.362,-6.72 -2.218,-2.28 -4.472,-4.518 -6.76,-6.714 -2.287,-2.197 -4.608,-4.353 -6.961,-6.47 -2.353,-2.117 -4.737,-4.196 -7.152,-6.237 -2.415,-2.041 -4.86,-4.046 -7.334,-6.016 -2.473,-1.969 -4.975,-3.904 -7.504,-5.806 -2.528,-1.902 -5.084,-3.771 -7.664,-5.609 -2.581,-1.838 -5.187,-3.645 -7.816,-5.423 -2.63,-1.778 -5.282,-3.527 -7.957,-5.247 -3.325,-2.142 -6.677,-4.217 -10.058,-6.225 -3.381,-2.007 -6.792,-3.946 -10.232,-5.813 -3.441,-1.867 -6.912,-3.661 -10.416,-5.38 -3.504,-1.719 -7.041,-3.362 -10.611,-4.924 -3.571,-1.563 -7.177,-3.046 -10.818,-4.446 -1.846,-0.709 -3.702,-1.398 -5.566,-2.064 -1.814,-0.648 -3.636,-1.274 -5.468,-1.88 -3.716,-1.228 -7.47,-2.37 -11.263,-3.42 -3.794,-1.049 -7.627,-2.009 -11.502,-2.872 -1.624,-0.362 -3.249,-0.695 -4.876,-1 -1.627,-0.304 -3.255,-0.578 -4.886,-0.823 -1.631,-0.244 -3.262,-0.457 -4.896,-0.638 -1.634,-0.181 -3.269,-0.33 -4.907,-0.445 -1.636,-0.116 -3.275,-0.197 -4.915,-0.245 -1.639,-0.046 -3.28,-0.058 -4.923,-0.034 -1.641,0.024 -3.285,0.085 -4.929,0.183 -1.645,0.097 -3.29,0.233 -4.937,0.408 -1.337,0.142 -2.664,0.317 -3.979,0.531 -1.315,0.214 -2.617,0.466 -3.906,0.759 -1.288,0.294 -2.562,0.627 -3.819,1.007 -1.256,0.38 -2.496,0.805 -3.717,1.278 -1.22,0.475 -2.422,0.997 -3.602,1.571 -1.179,0.575 -2.337,1.201 -3.471,1.884 -1.133,0.683 -2.244,1.421 -3.326,2.22 -1.084,0.798 -2.656,1.973 -3.685,2.893 l -3.143,-7.259 c -3.143,-7.26 1.5,-6 3.143,-8.5 1.644,-2.5 0.357,-9 0.217,-15 -0.14,-6 6.64,-11.5 9.64,-14.5 3,-3.001 10,-10.5 14.5,-11.82 4.5,-1.319 23.5,-16.18 30,-18.181 6.5,-1.999 13.5,-6.999 22,-8.499 8.5,-1.5 19,-3 27.5,-3 8.5,0 26.5,-0.5 38.5,0 12,0.5 27,3 33,4 6,1 20,2.5 27.5,4.5 7.5,2 23.5,8 27,11.5 3.5,3.5 28,13.999 33.5,20 5.5,6 24,39.5 25,45.5 1,6 14,47.499 17,53 3,5.5 0,39.499 0,45.5 0,6 -10,45 -10,45 l -13.5,28.5 -14,14.5 z"
    id="path33" />
  <path
    d="M 7.1809287,6.9954548 C 7.0693301,7.5610668 7.0563255,8.1340689 7.0578723,8.756168 7.0638878,9.031326 7.0574126,9.3540337 7.0926469,9.6774861 7.1641429,10.334416 7.387283,10.485773 7.9873255,10.222302 9.0106179,9.7731583 9.9177283,9.1436121 10.728822,8.375255 10.95729,8.1587607 11.197731,7.9500573 11.364097,7.6762171 11.51723,7.4243184 11.484232,7.2820705 11.234281,7.1257864 11.154306,7.0757733 11.065336,7.0375618 10.976367,7.0053081 10.679554,6.8975482 10.372429,6.8265098 10.064444,6.7600552 9.3414031,6.6041724 8.6195074,6.4367171 7.875097,6.4264624 c -0.00458,-4.3e-5 -0.00911,-4.3e-5 -0.013692,-4.3e-5 -0.3696271,0 -0.6089797,0.2065258 -0.6804762,0.5690495"
    id="path37"
    class="ColorScheme-Text"
    style="fill:url(#oomox);stroke-width:0.0572888" />
  <path
    d="M 6.2454029,7.1020115 C 6.0596155,7.1946477 5.9118106,7.3401039 5.7664115,7.4849299 4.79382,8.4533968 3.8759965,9.4730795 2.978052,10.510866 c -0.2440499,0.28209 -0.4956051,0.562748 -0.6517171,0.91009 -0.1099371,0.244623 -0.053508,0.369741 0.2093333,0.43929 0.2706893,0.07155 0.5467642,0.102375 0.8270208,0.0778 0.6700497,-0.05878 1.306127,-0.247487 1.9280537,-0.497095 0.5754087,-0.23099 0.9360414,-0.64049 1.0623634,-1.251074 0.1656218,-0.8008401 0.2238271,-1.6141113 0.2645596,-2.428586 0,-0.1250041 0.0012,-0.2500082 -7.434e-4,-0.3749552 -5.715e-4,-0.036436 -0.00859,-0.072986 -0.015812,-0.1089629 -0.031222,-0.1559404 -0.082897,-0.2297283 -0.1778242,-0.2297283 -0.04755,0 -0.1058697,0.018504 -0.1778818,0.054367"
    id="path38"
    class="ColorScheme-Text"
    style="fill:url(#oomox);stroke-width:0.0572888" />
  <path
    d="M 13.772575,3.123879 C 13.607641,3.1533827 13.443967,3.1993855 13.285449,3.254612 12.384926,3.568669 11.529605,3.990601 10.662654,4.3833727 9.9224831,4.7187984 9.1827133,5.0585209 8.4809255,5.4726045 8.3426878,5.5542409 8.1742017,5.6501997 8.2079447,5.8346121 8.2368177,5.9922136 8.4232358,5.9943904 8.5525938,6.0247535 9.545924,6.2580906 10.558274,6.351987 11.492425,6.4290976 12.092467,6.4222776 12.576672,6.32678 12.954205,5.9232952 13.348352,5.5019935 13.677877,5.0359491 13.923474,4.5139337 14.077638,4.1862422 14.179956,3.8387284 14.18007,3.473054 14.180199,3.2351338 14.074945,3.1137388 13.87833,3.1137388 c -0.03271,0 -0.06806,0.00338 -0.105755,0.01014"
    id="path39"
    style="fill:url(#oomox);stroke-width:0.0572888"
    class="ColorScheme-Text"/>
  <path
    d="M 5.321908,6.9456136 C 5.300883,6.9515736 5.281233,6.9623416 5.260895,6.9706486 3.9687469,7.4957573 2.7281585,8.1306891 1.4875699,8.7649905 1.1745441,8.9249407 0.87183016,9.1052287 0.58905274,9.3179418 0.28559408,9.5461804 0.11263925,9.8323948 0.15073626,10.217032 c 0,0.05099 -0.002005,0.09521 2.8789e-4,0.139269 0.0227436,0.436941 0.24342003,0.743666 0.61940629,0.948645 0.34934696,0.19037 0.65022766,0.06714 0.93753086,-0.144368 0.070809,-0.05219 0.1431073,-0.103063 0.2090468,-0.161039 1.3086476,-1.1517334 2.4794582,-2.4384966 3.6290721,-3.7455973 0.072413,-0.082324 0.1974742,-0.1799442 0.115265,-0.3035733 -0.035118,-0.05282 -0.076366,-0.07058 -0.1204211,-0.070522 -0.07058,0 -0.1483205,0.045659 -0.2190148,0.065768"
    id="path40"
    style="fill:url(#oomox);stroke-width:0.0572888"
    class="ColorScheme-Text"/>
  <path
    d="M 11.846526,1.1668942 C 11.723069,1.2584417 11.607059,1.3605876 11.491622,1.4624471 10.670216,2.1869783 9.9399564,3.0030569 9.1852337,3.7939286 8.8717499,4.1224223 8.5625048,4.4577909 8.2905551,4.8240382 8.2431201,4.8879722 8.184227,4.959755 8.2430051,5.0431105 c 0.055685,0.079001 0.1443103,0.06571 0.2217075,0.042222 0.104896,-0.031853 0.2073859,-0.072872 0.3085575,-0.115609 C 10.1313,4.3954607 11.44562,3.7291351 12.754611,3.0526117 13.130884,2.8581736 13.509963,2.6599544 13.819495,2.3576416 13.935218,2.2445535 14.00723,2.1147371 14.010954,1.9316422 14.006829,1.799477 13.95693,1.6624995 13.883715,1.5329123 13.650951,1.1209486 13.178605,0.89379865 12.697551,0.89379865 c -0.298761,0 -0.600902,0.0876518 -0.851025,0.27309555"
    id="path41"
    style="fill:url(#oomox);stroke-width:0.0572888"
    class="ColorScheme-Text"/>
  <path
    d="M 1.742505,6.2111712 C 1.4067355,6.5932874 1.0890119,6.9859447 0.83081139,7.4240894 0.66616345,7.7034294 0.53434194,8.0006436 0.46674118,8.3196273 0.4198217,8.5411058 0.49034417,8.6323094 0.67933986,8.6356897 0.79838593,8.6343706 0.91067194,8.6009155 1.0214112,8.5612143 2.1065752,8.1724524 3.1390337,7.6621813 4.1820332,7.1763727 4.627396,6.9689871 5.0692071,6.7538678 5.4871286,6.493834 5.6124192,6.415864 5.7526051,6.3221395 5.7272258,6.1550284 5.7045398,6.0058481 5.5349649,6.0221754 5.4260591,5.9734802 5.3864149,5.9558351 5.3419017,5.9485022 5.2991644,5.9384194 4.6273388,5.7800157 3.9426235,5.70703 3.2582514,5.6345023 3.1791359,5.6260811 3.1016239,5.6218415 3.0257736,5.6218415 c -0.4988133,0 -0.927047,0.1839544 -1.2832686,0.5893297"
    id="path42"
    style="fill:url(#oomox);stroke-width:0.0572888"
    class="ColorScheme-Text"/>
  <path
    d="M 10.557529,0.78305943 C 9.7458049,0.86670105 8.9883899,1.1302294 8.2545779,1.4767693 7.8117356,1.6859879 7.5346299,2.0206117 7.4441705,2.505332 7.341452,3.0551324 7.2698984,3.6083129 7.277804,4.1692846 c 0,0.1545078 -0.0039,0.3090728 0.00126,0.4634087 C 7.282904,4.747099 7.256206,4.8842484 7.3839025,4.9479535 7.5110266,5.0114295 7.633166,4.9431435 7.730786,4.8682075 7.8931417,4.7434902 8.049712,4.6087466 8.1947669,4.4640926 9.0003044,3.6606747 9.7577769,2.811827 10.510379,1.9590835 c 0.232077,-0.2628982 0.4767,-0.5213279 0.628114,-0.8462699 0.09132,-0.19609944 0.04652,-0.28518351 -0.164992,-0.32654599 -0.06371,-0.012489 -0.127811,-0.0171866 -0.192089,-0.0171866 -0.07459,0 -0.149352,0.006302 -0.223885,0.0139784"
    id="path43"
    style="fill:url(#oomox);stroke-width:0.0572888"
    class="ColorScheme-Text"/>
  <path
    d="M 6.3250344,2.4513087 C 6.0991448,2.5221176 5.8980038,2.6423095 5.6947431,2.7588348 4.8582127,3.2379982 4.0813768,3.797366 3.415681,4.5007001 3.1067801,4.8270172 3.155819,5.0408762 3.5838238,5.1631875 4.3796793,5.3906239 5.1877948,5.5662714 6.0196852,5.5868383 6.4577151,5.5976657 6.6782196,5.3933167 6.756419,4.9660571 6.8363367,4.529803 6.8532371,4.0909709 6.8414928,3.5112084 6.8288891,3.3352173 6.8864073,3.0159469 6.8021353,2.7062438 6.748112,2.5073371 6.6573665,2.4183103 6.5080148,2.4183677 c -0.053221,0 -0.1138901,0.011286 -0.1829804,0.032941"
    id="path44"
    style="display:inline;fill:url(#oomox);stroke-width:0.0572888"
    class="ColorScheme-Text"/>
  <path
    d="m 14.822105,1.7844673 c 0.01358,0.033686 0.01627,0.044342 0.02148,0.060554 0.01,0.02979 0.01587,0.04692 0.02108,0.06296 0.0052,0.016041 0.0011,0.00659 0.0061,0.022457 0.005,0.015869 0.01037,0.033056 0.01512,0.04881 0.0047,0.015812 0.0086,0.037753 0.01283,0.053508 0.0044,0.015812 0.0096,0.034602 0.01335,0.050471 0.0038,0.015812 0.01472,0.076595 0.01787,0.092521 0.0181,0.091605 0.01381,0.1214522 0.02297,0.2120257 0.0092,0.090516 0.01398,0.180517 0.01489,0.2699448 9.15e-4,0.089542 -0.0022,0.1784545 -0.0088,0.2669657 -0.0067,0.088511 -0.01696,0.1765067 -0.03053,0.2641012 -0.01358,0.087537 -0.03042,0.1746735 -0.05024,0.2613515 -0.01976,0.086678 -0.04251,0.1730121 -0.06783,0.2588304 -0.02532,0.085933 -0.05328,0.1714083 -0.08347,0.2565393 -0.03019,0.085074 -0.06267,0.1698039 -0.09705,0.2542478 -0.06766,0.165908 -0.140415,0.328379 -0.217984,0.4875274 -0.07751,0.1591483 -0.159779,0.3150883 -0.246456,0.4679921 -0.08662,0.1530181 -0.177539,0.302943 -0.272409,0.4501751 -0.09487,0.1472893 -0.193636,0.2917719 -0.295896,0.4339051 -0.102261,0.1420764 -0.208016,0.2817462 -0.316807,0.4192393 -0.108849,0.137493 -0.220734,0.2728094 -0.335254,0.4061775 -0.11452,0.1333682 -0.231676,0.2649034 -0.351123,0.3947199 -0.11939,0.1298736 -0.241014,0.2581432 -0.364471,0.3849803 -0.127067,0.1306187 -0.256195,0.2588307 -0.387272,0.384637 -0.13102,0.1258635 -0.263987,0.2493779 -0.398788,0.3706584 -0.1348,0.1212805 -0.271377,0.2403838 -0.409729,0.35731 -0.138325,0.116928 -0.278396,0.2317917 -0.420129,0.344651 C 10.471882,9.2345291 10.328545,9.3453831 10.183662,9.4543465 10.038836,9.5633094 9.8924066,9.6703823 9.7446018,9.7756792 9.5967393,9.8809758 9.4474447,9.9844965 9.2968324,10.086356 9.1461628,10.188216 8.994233,10.288414 8.8409859,10.38695 8.6505004,10.509663 8.4584685,10.628537 8.264775,10.743573 c -0.1936931,0.114978 -0.3891052,0.226061 -0.5861786,0.33302 -0.1971309,0.106958 -0.39598,0.209734 -0.5967198,0.308213 -0.2007401,0.09848 -0.4033705,0.192605 -0.6078914,0.28209 -0.2045784,0.08954 -0.4111618,0.174502 -0.61975,0.254706 -0.105755,0.04062 -0.2120832,0.08009 -0.3188694,0.118244 -0.1039216,0.03712 -0.2083021,0.07299 -0.3132549,0.107703 -0.2128854,0.07035 -0.4279471,0.135774 -0.6452436,0.195928 -0.2173536,0.0601 -0.4369415,0.115093 -0.6589356,0.164533 -0.093037,0.02074 -0.1861312,0.03982 -0.2793401,0.05729 -0.093209,0.01742 -0.1864749,0.03311 -0.2799128,0.04715 -0.093438,0.01398 -0.1868762,0.02618 -0.280486,0.03655 -0.09361,0.01037 -0.1872771,0.0189 -0.2811159,0.02549 -0.093724,0.0066 -0.1876208,0.01129 -0.2815744,0.01404 -0.093896,0.0026 -0.1879072,0.0033 -0.2820327,0.0019 -0.094011,-0.0014 -0.1881936,-0.0049 -0.2823764,-0.01048 -0.09424,-0.0056 -0.18848,-0.01335 -0.2828347,-0.02337 C 1.5916637,12.64848 1.5156414,12.63842 1.4403067,12.62616 1.3649717,12.6139 1.2903819,12.59946 1.2165367,12.58268 1.1427487,12.56584 1.0697629,12.54676 0.99775088,12.52499 0.92579618,12.50322 0.85475808,12.47887 0.78480849,12.45178 0.71491619,12.42457 0.64605505,12.39466 0.5784543,12.36178 0.535545,12.34087 0.4931513,12.31876 0.45127321,12.29538 0.42136851,12.279 0.39180751,12.26198 0.36247561,12.24433 0.29751011,12.2052 0.23397687,12.16292 0.17187585,12.117207 0.12925295,12.085757 0.08737492,12.052757 0.04618427,12.018037 0.03002881,12.005185 0.01444629,11.99241 9.4984614e-6,11.98015 0.29676537,12.306753 0.60200001,12.610785 0.9158852,12.89127 c 0.3172653,0.28358 0.6431811,0.543098 0.9779195,0.777581 0.3347383,0.23454 0.6782418,0.444045 1.030453,0.627656 0.3522115,0.183553 0.7131884,0.341097 1.0828155,0.47183 0.3696843,0.130618 0.748134,0.234369 1.1352343,0.310219 0.3871575,0.07591 0.7830229,0.123858 1.1876536,0.142935 0.4046307,0.01908 0.8179693,0.0093 1.2400157,-0.03025 0.4221039,-0.03964 0.8528582,-0.109078 1.2924349,-0.209333 0.4689658,-0.106901 0.9153602,-0.238551 1.3391823,-0.394376 0.423765,-0.155768 0.825015,-0.33577 1.203752,-0.539317 0.378736,-0.203662 0.7349,-0.430926 1.068722,-0.681221 0.333764,-0.250409 0.645128,-0.523791 0.934036,-0.819859 0.289022,-0.296011 0.555587,-0.614652 0.799866,-0.955291 0.244279,-0.340696 0.46633,-0.703392 0.666039,-1.087627 0.199766,-0.384236 0.377304,-0.7899552 0.532557,-1.2166992 0.155367,-0.4267445 0.288563,-0.8744563 0.399589,-1.3426199 0.03139,-0.1323373 0.05872,-0.2649033 0.08204,-0.3978135 0.02337,-0.1327954 0.04279,-0.265877 0.05861,-0.399188 0.01575,-0.133311 0.02784,-0.266851 0.03649,-0.4005058 0.0086,-0.1336548 0.01381,-0.2675961 0.01581,-0.4015947 0.0019,-0.133998 7.44e-4,-0.2681684 -0.0035,-0.4023964 -0.0042,-0.1343418 -0.01146,-0.268684 -0.02143,-0.403141 -0.01,-0.1345141 -0.02269,-0.2690854 -0.03804,-0.4036567 -0.01524,-0.1345712 -0.03306,-0.2692 -0.05316,-0.4038285 C 15.860638,4.5828504 15.830733,4.4265667 15.795042,4.2673041 15.759351,4.1080986 15.717932,3.9459713 15.67233,3.7845315 15.626785,3.6230344 15.57723,3.4622248 15.525155,3.3056545 15.473194,3.1490843 15.418884,2.9968107 15.36383,2.8522138 15.30889,2.7076743 15.253205,2.5709832 15.198666,2.4455781 15.14407,2.3201729 15.090505,2.2061683 15.039804,2.1070587 c -0.05076,-0.09911 -0.09871,-0.1832668 -0.142133,-0.248977 -0.02721,-0.041076 -0.07161,-0.1048958 -0.111484,-0.1589764 0.01232,0.026467 0.02481,0.055398 0.03592,0.08536"
    id="path45"
    style="display:inline;fill:url(#oomox);stroke-width:0.0572888"
    class="ColorScheme-Text"/>
</svg>
