<?xml version="1.0" encoding="UTF-8" standalone="no"?>
<!-- Created with Inkscape (http://www.inkscape.org/) -->

<svg
   width="16"
   height="16"
   viewBox="0 0 16 16"
   version="1.1"
   id="svg13194"
   xml:space="preserve"
   xmlns:xlink="http://www.w3.org/1999/xlink"
   xmlns="http://www.w3.org/2000/svg"
   xmlns:svg="http://www.w3.org/2000/svg"
   xmlns:rdf="http://www.w3.org/1999/02/22-rdf-syntax-ns#"
   xmlns:cc="http://creativecommons.org/ns#"
   xmlns:dc="http://purl.org/dc/elements/1.1/"><defs
     id="defs13191">
   <style id="current-color-scheme" type="text/css">
   .ColorScheme-Text { color: #0abdc6; } .ColorScheme-Highlight { color:#5294e2; }
  </style>
  <linearGradient id="arrongin" x1="0%" x2="0%" y1="0%" y2="100%">
   <stop offset="0%" style="stop-color:#dd9b44; stop-opacity:1"/>
   <stop offset="100%" style="stop-color:#ad6c16; stop-opacity:1"/>
  </linearGradient>
  <linearGradient id="aurora" x1="0%" x2="0%" y1="0%" y2="100%">
   <stop offset="0%" style="stop-color:#09D4DF; stop-opacity:1"/>
   <stop offset="100%" style="stop-color:#9269F4; stop-opacity:1"/>
  </linearGradient>
  <linearGradient id="cyberneon" x1="0%" x2="0%" y1="0%" y2="100%">
    <stop offset="0" style="stop-color:#0abdc6; stop-opacity:1"/>
    <stop offset="1" style="stop-color:#ea00d9; stop-opacity:1"/>
  </linearGradient>
  <linearGradient id="fitdance" x1="0%" x2="0%" y1="0%" y2="100%">
   <stop offset="0%" style="stop-color:#1AD6AB; stop-opacity:1"/>
   <stop offset="100%" style="stop-color:#329DB6; stop-opacity:1"/>
  </linearGradient>
  <linearGradient id="oomox" x1="0%" x2="0%" y1="0%" y2="100%">
   <stop offset="0%" style="stop-color:#0abdc6; stop-opacity:1"/>
   <stop offset="100%" style="stop-color:#b800ff; stop-opacity:1"/>
  </linearGradient>
  <linearGradient id="rainblue" x1="0%" x2="0%" y1="0%" y2="100%">
   <stop offset="0%" style="stop-color:#00F260; stop-opacity:1"/>
   <stop offset="100%" style="stop-color:#0575E6; stop-opacity:1"/>
  </linearGradient>
  <linearGradient id="sunrise" x1="0%" x2="0%" y1="0%" y2="100%">
   <stop offset="0%" style="stop-color: #FF8501; stop-opacity:1"/>
   <stop offset="100%" style="stop-color: #FFCB01; stop-opacity:1"/>
  </linearGradient>
  <linearGradient id="telinkrin" x1="0%" x2="0%" y1="0%" y2="100%">
   <stop offset="0%" style="stop-color: #b2ced6; stop-opacity:1"/>
   <stop offset="100%" style="stop-color: #6da5b7; stop-opacity:1"/>
  </linearGradient>
  <linearGradient id="60spsycho" x1="0%" x2="0%" y1="0%" y2="100%">
   <stop offset="0%" style="stop-color: #df5940; stop-opacity:1"/>
   <stop offset="25%" style="stop-color: #d8d15f; stop-opacity:1"/>
   <stop offset="50%" style="stop-color: #e9882a; stop-opacity:1"/>
   <stop offset="100%" style="stop-color: #279362; stop-opacity:1"/>
  </linearGradient>
  <linearGradient id="90ssummer" x1="0%" x2="0%" y1="0%" y2="100%">
   <stop offset="0%" style="stop-color: #f618c7; stop-opacity:1"/>
   <stop offset="20%" style="stop-color: #94ffab; stop-opacity:1"/>
   <stop offset="50%" style="stop-color: #fbfd54; stop-opacity:1"/>
   <stop offset="100%" style="stop-color: #0f83ae; stop-opacity:1"/>
  </linearGradient>
<linearGradient
       id="linearGradient968"><stop
         style="stop-color:#000000;stop-opacity:0;"
         offset="0.88487101"
         id="stop964" /><stop
         style="stop-color:#ffffff;stop-opacity:1;"
         offset="1"
         id="stop966" /></linearGradient>
<radialGradient
       xlink:href="#linearGradient968"
       id="radialGradient970"
       cx="-65.573082"
       cy="-55.780399"
       fx="-65.573082"
       fy="-55.780399"
       r="60"
       gradientUnits="userSpaceOnUse"
       gradientTransform="matrix(0.15479164,-0.00258077,0.00261769,0.15642033,18.33784,14.810633)" />
<radialGradient
       xlink:href="#linearGradient968"
       id="radialGradient906"
       gradientUnits="userSpaceOnUse"
       gradientTransform="matrix(0.15479164,-0.00258077,0.00261769,0.15642033,2.3357011,-1.2214029)"
       cx="-65.573082"
       cy="-55.780399"
       fx="-65.573082"
       fy="-55.780399"
       r="60" /></defs>
<path
     id="path8877"
       class="ColorScheme-Text"
     style="display:inline;fill:url(#oomox);stroke-width:0.219166;enable-background:new"
     d="M 7.998931,0 A 7.998931,7.9839821 0 0 0 0,7.9839821 7.998931,7.9839821 0 0 0 7.998931,15.967964 7.998931,7.9839821 0 0 0 15.997862,7.9839821 7.998931,7.9839821 0 0 0 7.998931,0 Z m 0,3.7258583 A 4.2660965,4.2581238 0 0 1 12.265028,7.9839821 4.2660965,4.2581238 0 0 1 7.998931,12.242106 4.2660965,4.2581238 0 0 1 3.7328345,7.9839821 4.2660965,4.2581238 0 0 1 7.998931,3.7258583 Z" />
<path
     d="m 7.9596324,11.09586 c 1.4846201,0 2.4627226,-0.74964 2.4627226,-1.856666 0,-1.969983 -3.2137657,-1.4905623 -3.2137657,-2.6063049 0,-0.3225193 0.2969241,-0.5578712 0.7685093,-0.5578712 0.4715851,0 0.7772423,0.2353519 0.7772423,0.6014548 0,0.3748198 -0.3318564,0.636322 -0.8209077,0.6799057 l 1.021768,0.5230044 C 9.7673757,7.5830137 10.221495,7.0425759 10.221495,6.3975372 c 0,-0.9152575 -0.8907722,-1.5254292 -2.1657989,-1.5254292 -1.3972895,0 -2.3142607,0.7409227 -2.3142607,1.8392318 0,2.0135665 3.2137658,1.5428628 3.2137658,2.6150216 0,0.331236 -0.3405893,0.5665879 -0.8995051,0.5665879 -0.6113142,0 -1.0130349,-0.2963692 -1.0130349,-0.7583563 0,-0.4271201 0.3493224,-0.6711888 0.9606366,-0.6886223 L 7.1387249,7.8968162 C 6.1606222,8.071151 5.5755073,8.6290223 5.5755073,9.4135288 c 0,1.0024252 0.9693695,1.6823312 2.3841251,1.6823312 z"
     style="display:inline;fill:url(#oomox);stroke-width:0.727076;enable-background:new"
     id="path174"
  class="ColorScheme-Text"/>
<ellipse
     style="display:inline;opacity:0.3;fill:url(#radialGradient970);fill-opacity:1;stroke-width:0.225411"
     id="path962"
     cx="8.0010691"
     cy="8.0160179"
     rx="7.9989309"
     ry="7.9839821" />
<ellipse
     style="display:inline;opacity:0.3;fill:url(#radialGradient906);fill-opacity:1;stroke-width:0.225411"
     id="circle904"
     cx="-8.0010691"
     cy="-8.0160179"
     transform="scale(-1)"
     rx="7.9989309"
     ry="7.9839821" />
<metadata
     id="metadata3"><rdf:RDF><cc:Work
         rdf:about=""><dc:creator><cc:Agent><dc:title>dreifacherspass</dc:title></cc:Agent></dc:creator><cc:license
           rdf:resource="http://creativecommons.org/licenses/by-sa/4.0/" /></cc:Work><cc:License
         rdf:about="http://creativecommons.org/licenses/by-sa/4.0/"><cc:permits
           rdf:resource="http://creativecommons.org/ns#Reproduction" /><cc:permits
           rdf:resource="http://creativecommons.org/ns#Distribution" /><cc:requires
           rdf:resource="http://creativecommons.org/ns#Notice" /><cc:requires
           rdf:resource="http://creativecommons.org/ns#Attribution" /><cc:permits
           rdf:resource="http://creativecommons.org/ns#DerivativeWorks" /><cc:requires
           rdf:resource="http://creativecommons.org/ns#ShareAlike" /></cc:License></rdf:RDF>
  </metadata>
</svg>
