<?xml version="1.0" encoding="UTF-8" standalone="no"?>
<svg
   viewBox="0 0 16 16"
   height="16"
   width="16"
   id="svg1"
   version="1.1"
   xmlns:xlink="http://www.w3.org/1999/xlink"
   xmlns="http://www.w3.org/2000/svg"
   xmlns:svg="http://www.w3.org/2000/svg"
   xmlns:rdf="http://www.w3.org/1999/02/22-rdf-syntax-ns#"
   xmlns:cc="http://creativecommons.org/ns#"
   xmlns:dc="http://purl.org/dc/elements/1.1/">
  <metadata
     id="metadata15106">
    <rdf:RDF>
      <cc:Work
         rdf:about="">
        <dc:format>image/svg+xml</dc:format>
        <dc:type
           rdf:resource="http://purl.org/dc/dcmitype/StillImage" />
        <dc:creator>
          <cc:Agent>
            <dc:title>dreifacherspass</dc:title>
          </cc:Agent>
        </dc:creator>
        <cc:license
           rdf:resource="http://creativecommons.org/licenses/by-sa/4.0/" />
      </cc:Work>
      <cc:License
         rdf:about="http://creativecommons.org/licenses/by-sa/4.0/">
        <cc:permits
           rdf:resource="http://creativecommons.org/ns#Reproduction" />
        <cc:permits
           rdf:resource="http://creativecommons.org/ns#Distribution" />
        <cc:requires
           rdf:resource="http://creativecommons.org/ns#Notice" />
        <cc:requires
           rdf:resource="http://creativecommons.org/ns#Attribution" />
        <cc:permits
           rdf:resource="http://creativecommons.org/ns#DerivativeWorks" />
        <cc:requires
           rdf:resource="http://creativecommons.org/ns#ShareAlike" />
      </cc:License>
    </rdf:RDF>
  </metadata>
  <defs>
   <style id="current-color-scheme" type="text/css">
   .ColorScheme-Text { color: #0abdc6; } .ColorScheme-Highlight { color:#5294e2; }
  </style>
  <linearGradient id="arrongin" x1="0%" x2="0%" y1="0%" y2="100%">
   <stop offset="0%" style="stop-color:#dd9b44; stop-opacity:1"/>
   <stop offset="100%" style="stop-color:#ad6c16; stop-opacity:1"/>
  </linearGradient>
  <linearGradient id="aurora" x1="0%" x2="0%" y1="0%" y2="100%">
   <stop offset="0%" style="stop-color:#09D4DF; stop-opacity:1"/>
   <stop offset="100%" style="stop-color:#9269F4; stop-opacity:1"/>
  </linearGradient>
  <linearGradient id="cyberneon" x1="0%" x2="0%" y1="0%" y2="100%">
    <stop offset="0" style="stop-color:#0abdc6; stop-opacity:1"/>
    <stop offset="1" style="stop-color:#ea00d9; stop-opacity:1"/>
  </linearGradient>
  <linearGradient id="fitdance" x1="0%" x2="0%" y1="0%" y2="100%">
   <stop offset="0%" style="stop-color:#1AD6AB; stop-opacity:1"/>
   <stop offset="100%" style="stop-color:#329DB6; stop-opacity:1"/>
  </linearGradient>
  <linearGradient id="oomox" x1="0%" x2="0%" y1="0%" y2="100%">
   <stop offset="0%" style="stop-color:#0abdc6; stop-opacity:1"/>
   <stop offset="100%" style="stop-color:#b800ff; stop-opacity:1"/>
  </linearGradient>
  <linearGradient id="rainblue" x1="0%" x2="0%" y1="0%" y2="100%">
   <stop offset="0%" style="stop-color:#00F260; stop-opacity:1"/>
   <stop offset="100%" style="stop-color:#0575E6; stop-opacity:1"/>
  </linearGradient>
  <linearGradient id="sunrise" x1="0%" x2="0%" y1="0%" y2="100%">
   <stop offset="0%" style="stop-color: #FF8501; stop-opacity:1"/>
   <stop offset="100%" style="stop-color: #FFCB01; stop-opacity:1"/>
  </linearGradient>
  <linearGradient id="telinkrin" x1="0%" x2="0%" y1="0%" y2="100%">
   <stop offset="0%" style="stop-color: #b2ced6; stop-opacity:1"/>
   <stop offset="100%" style="stop-color: #6da5b7; stop-opacity:1"/>
  </linearGradient>
  <linearGradient id="60spsycho" x1="0%" x2="0%" y1="0%" y2="100%">
   <stop offset="0%" style="stop-color: #df5940; stop-opacity:1"/>
   <stop offset="25%" style="stop-color: #d8d15f; stop-opacity:1"/>
   <stop offset="50%" style="stop-color: #e9882a; stop-opacity:1"/>
   <stop offset="100%" style="stop-color: #279362; stop-opacity:1"/>
  </linearGradient>
  <linearGradient id="90ssummer" x1="0%" x2="0%" y1="0%" y2="100%">
   <stop offset="0%" style="stop-color: #f618c7; stop-opacity:1"/>
   <stop offset="20%" style="stop-color: #94ffab; stop-opacity:1"/>
   <stop offset="50%" style="stop-color: #fbfd54; stop-opacity:1"/>
   <stop offset="100%" style="stop-color: #0f83ae; stop-opacity:1"/>
  </linearGradient>
 </defs>
  <path
     id="ellipse156"
     style="opacity:0.2;fill:url(#oomox);fill-opacity:1;fill-rule:evenodd;stroke-width:0.999992"
     class="ColorScheme-Text"
     d="M 7.9999997,0 A 7.9999894,7.9999033 0 0 0 0,8.0000006 7.9999894,7.9999033 0 0 0 7.9999997,16 7.9999894,7.9999033 0 0 0 16,8.0000006 7.9999894,7.9999033 0 0 0 7.9999997,0 Z M 7.0170015,6.6005469 c 0.056401,-6.539e-4 0.112065,0.016267 0.1589833,0.047556 l 1.9585579,1.1188837 c 0.1660944,0.1107894 0.1660944,0.3545681 0,0.465357 L 7.1759848,9.3519057 C 6.990028,9.4758141 6.7405587,9.342308 6.7404767,9.1188844 V 6.8804379 c 0,-0.1532365 0.1232634,-0.2771119 0.2765248,-0.279891 z" />
  <path
     id="ellipse157"
     style="opacity:0.3;fill:url(#oomox);fill-opacity:1;fill-rule:evenodd;stroke-width:0.817243"
     class="ColorScheme-Text"
     d="M 7.9999591,1.4623654 A 6.538382,6.5375547 0 0 0 1.4616321,8.0000005 6.538382,6.5375547 0 0 0 7.9999591,14.537635 6.538382,6.5375547 0 0 0 14.538368,8.0000005 6.538382,6.5375547 0 0 0 7.9999591,1.4623654 Z M 7.0274181,6.6155948 C 7.0832191,6.614948 7.138291,6.6316868 7.18471,6.6626398 l 1.9377223,1.1068527 c 0.1643275,0.109598 0.1643275,0.3507554 0,0.4603531 L 7.18471,9.3373691 C 7.0007316,9.4599451 6.7539162,9.3278746 6.7538351,9.1068534 V 6.8924761 c 0,-0.1515887 0.121952,-0.2741321 0.273583,-0.2768813 z" />
  <path
     id="ellipse158"
     style="opacity:0.4;fill:url(#oomox);fill-opacity:1;fill-rule:evenodd;stroke-width:0.645198"
     class="ColorScheme-Text"
     d="M 7.9999594,2.8387089 A 5.1618805,5.1612272 0 0 0 2.838118,8.0000003 5.1618805,5.1612272 0 0 0 7.9999594,13.161291 5.1618805,5.1612272 0 0 0 13.161882,8.0000003 5.1618805,5.1612272 0 0 0 7.9999594,2.8387089 Z M 7.0274185,6.6155944 c 0.055801,-6.468e-4 0.1108728,0.016092 0.1572918,0.047045 l 1.9377225,1.1068527 c 0.1643275,0.109598 0.1643275,0.3507555 0,0.4603532 L 7.1847103,9.3373688 C 7.0007319,9.4599448 6.7539165,9.3278743 6.7538354,9.1068531 V 6.8924758 c 0,-0.1515888 0.1219521,-0.2741321 0.2735831,-0.2768814 z" />
  <path
     id="ellipse159"
     style="opacity:0.5;fill:url(#oomox);fill-opacity:1;fill-rule:evenodd;stroke-width:0.473144"
     class="ColorScheme-Text"
     d="M 7.999959,4.2150527 A 3.7853791,3.784946 0 0 0 4.2146031,8.0000006 3.7853791,3.784946 0 0 0 7.999959,11.784947 3.7853791,3.784946 0 0 0 11.785397,8.0000006 3.7853791,3.784946 0 0 0 7.999959,4.2150527 Z M 7.0274181,6.6155948 c 0.027901,-3.156e-4 0.055558,0.00359 0.082002,0.011425 0.026448,0.00784 0.05208,0.020143 0.07529,0.035619 l 1.9377225,1.1068528 c 0.010267,0.00685 0.019894,0.014359 0.028871,0.022179 0.00897,0.00781 0.017147,0.016211 0.024909,0.024865 0.00776,0.00876 0.014965,0.017392 0.021512,0.026877 0.012776,0.018717 0.023214,0.03836 0.03089,0.059141 0.00388,0.010379 0.00687,0.020885 0.00938,0.031585 0.00269,0.010914 0.00477,0.021814 0.00606,0.032936 0.00259,0.02158 0.00252,0.043591 0,0.065189 -0.0038,0.032943 -0.013341,0.064736 -0.028872,0.094752 -0.00517,0.00994 -0.011077,0.019544 -0.017464,0.028899 -1.622e-4,1.617e-4 8.06e-5,5.106e-4 0,6.809e-4 -0.019248,0.028082 -0.044478,0.052705 -0.07529,0.073259 l -1.93772,1.1075227 c -0.034531,0.022982 -0.071408,0.036824 -0.1082039,0.04301 -0.036877,0.00617 -0.073753,0.00442 -0.1089317,-0.00404 -0.082164,-0.019731 -0.1538955,-0.076089 -0.1894778,-0.1559147 -0.00136,-0.00303 -0.00211,-0.00631 -0.00341,-0.0094 -0.012858,-0.031738 -0.020786,-0.06641 -0.020865,-0.104172 V 6.8924901 c 0,-0.0097 4.085e-4,-0.018791 0.00136,-0.028228 0.00283,-0.027673 0.00978,-0.05399 0.020139,-0.078628 0.00356,-0.00838 0.00711,-0.016252 0.011483,-0.024194 0.00841,-0.015575 0.018441,-0.03008 0.029515,-0.043681 0.00558,-0.0068 0.011319,-0.013249 0.017471,-0.019486 0.012374,-0.012483 0.025801,-0.023629 0.040354,-0.033607 0.00728,-0.00499 0.015125,-0.00982 0.022887,-0.014111 0.023214,-0.012895 0.048442,-0.022366 0.07529,-0.028228 0.00865,-0.00191 0.017876,-0.00362 0.026849,-0.00471 0.00922,-0.00106 0.018764,-0.00187 0.028221,-0.00204 z" />
  <path
     id="ellipse160"
     style="display:inline;opacity:1;fill:url(#oomox);fill-opacity:1;fill-rule:evenodd;stroke-width:0.288803"
     class="ColorScheme-Text"
     d="M 8.0000397,5.6895161 C 6.7237521,5.6893949 5.6891842,6.7239021 5.6892652,7.9999954 5.6891035,9.2760887 6.7237521,10.310605 8.0000397,10.310484 9.2762467,10.310557 10.310897,9.2760563 10.310735,7.9999954 10.310816,6.7239345 9.2762467,5.6894432 8.0000397,5.6895161 Z M 7.0765061,6.664648 c 0.055801,-6.468e-4 0.1108728,0.016092 0.1572918,0.047061 l 1.9377223,1.1068524 c 0.1643275,0.109598 0.1643275,0.3507554 0,0.4603531 L 7.2337979,9.3864386 C 7.0498195,9.5090143 6.8030041,9.3769782 6.802923,9.1559226 V 6.9415457 c 0,-0.1515888 0.1219521,-0.2741324 0.2735831,-0.2768814 z" />
  <rect
     style="opacity:1;fill:url(#oomox);fill-opacity:1;stroke-width:1.27985;paint-order:markers fill stroke;stop-color:#000000"
     id="rect163"
     class="ColorScheme-Text"
     width="1.2"
     height="16"
     x="-16"
     y="0"
     rx="0"
     ry="0"
     transform="rotate(-90)" />
</svg>
