<?xml version="1.0" encoding="UTF-8" standalone="no"?>
<svg
   height="16"
   viewBox="0 0 16 16"
   width="16"
   version="1.1"
   id="svg23"
   xmlns="http://www.w3.org/2000/svg"
   xmlns:svg="http://www.w3.org/2000/svg"
   xmlns:rdf="http://www.w3.org/1999/02/22-rdf-syntax-ns#"
   xmlns:cc="http://creativecommons.org/ns#"
   xmlns:dc="http://purl.org/dc/elements/1.1/">
  <defs>
   <style id="current-color-scheme" type="text/css">
   .ColorScheme-Text { color: #0abdc6; } .ColorScheme-Highlight { color:#5294e2; }
  </style>
  <linearGradient id="arrongin" x1="0%" x2="0%" y1="0%" y2="100%">
   <stop offset="0%" style="stop-color:#dd9b44; stop-opacity:1"/>
   <stop offset="100%" style="stop-color:#ad6c16; stop-opacity:1"/>
  </linearGradient>
  <linearGradient id="aurora" x1="0%" x2="0%" y1="0%" y2="100%">
   <stop offset="0%" style="stop-color:#09D4DF; stop-opacity:1"/>
   <stop offset="100%" style="stop-color:#9269F4; stop-opacity:1"/>
  </linearGradient>
  <linearGradient id="cyberneon" x1="0%" x2="0%" y1="0%" y2="100%">
    <stop offset="0" style="stop-color:#0abdc6; stop-opacity:1"/>
    <stop offset="1" style="stop-color:#ea00d9; stop-opacity:1"/>
  </linearGradient>
  <linearGradient id="fitdance" x1="0%" x2="0%" y1="0%" y2="100%">
   <stop offset="0%" style="stop-color:#1AD6AB; stop-opacity:1"/>
   <stop offset="100%" style="stop-color:#329DB6; stop-opacity:1"/>
  </linearGradient>
  <linearGradient id="oomox" x1="0%" x2="0%" y1="0%" y2="100%">
   <stop offset="0%" style="stop-color:#0abdc6; stop-opacity:1"/>
   <stop offset="100%" style="stop-color:#b800ff; stop-opacity:1"/>
  </linearGradient>
  <linearGradient id="rainblue" x1="0%" x2="0%" y1="0%" y2="100%">
   <stop offset="0%" style="stop-color:#00F260; stop-opacity:1"/>
   <stop offset="100%" style="stop-color:#0575E6; stop-opacity:1"/>
  </linearGradient>
  <linearGradient id="sunrise" x1="0%" x2="0%" y1="0%" y2="100%">
   <stop offset="0%" style="stop-color: #FF8501; stop-opacity:1"/>
   <stop offset="100%" style="stop-color: #FFCB01; stop-opacity:1"/>
  </linearGradient>
  <linearGradient id="telinkrin" x1="0%" x2="0%" y1="0%" y2="100%">
   <stop offset="0%" style="stop-color: #b2ced6; stop-opacity:1"/>
   <stop offset="100%" style="stop-color: #6da5b7; stop-opacity:1"/>
  </linearGradient>
  <linearGradient id="60spsycho" x1="0%" x2="0%" y1="0%" y2="100%">
   <stop offset="0%" style="stop-color: #df5940; stop-opacity:1"/>
   <stop offset="25%" style="stop-color: #d8d15f; stop-opacity:1"/>
   <stop offset="50%" style="stop-color: #e9882a; stop-opacity:1"/>
   <stop offset="100%" style="stop-color: #279362; stop-opacity:1"/>
  </linearGradient>
  <linearGradient id="90ssummer" x1="0%" x2="0%" y1="0%" y2="100%">
   <stop offset="0%" style="stop-color: #f618c7; stop-opacity:1"/>
   <stop offset="20%" style="stop-color: #94ffab; stop-opacity:1"/>
   <stop offset="50%" style="stop-color: #fbfd54; stop-opacity:1"/>
   <stop offset="100%" style="stop-color: #0f83ae; stop-opacity:1"/>
  </linearGradient>
 </defs>
  <path
     id="path9"
     class="ColorScheme-Text"
     style="fill:url(#oomox);stroke-width:0.142852"
     d="M 15.998047,10.857422 C 15.998047,11.488538 15.486567,12 14.855469,12 H 1.1425781 C 0.51147984,12 0,11.488538 0,10.857422 v 2.285156 c 0,0.631116 0.51146191,1.142578 1.1425781,1.142578 H 14.857422 C 15.488537,14.285156 16,13.773694 16,13.142578 Z" />
  <path
     id="path10"
     class="ColorScheme-Text"
     style="opacity:0.5;stroke-width:0.142852;fill:url(#oomox)"
     d="M 1.1425781 1.7148438 C 0.51146191 1.7148437 3.2309192e-17 2.2263057 0 2.8574219 L 0 10.857422 C 0 11.488538 0.51146191 12 1.1425781 12 L 14.857422 12 C 15.488537 12 16 11.488538 16 10.857422 L 16 2.8574219 C 16 2.2263057 15.488537 1.7148438 14.857422 1.7148438 L 1.1425781 1.7148438 z M 9.8007812 4.7363281 C 10.008363 4.9400039 10.180251 5.1777436 10.308594 5.4394531 L 7.7148438 8.0351562 L 6.2675781 6.5878906 L 6.875 5.9824219 L 7.7148438 6.8222656 L 9.8007812 4.7363281 z " />
  <path
     id="path11"
     style="fill:url(#oomox)"
     class="ColorScheme-Text"
     d="M 26.742869 39.678585 C 22.824906 39.678585 20.234834 42.639832 20.234834 48.401539 C 20.234834 54.135902 22.824906 57.247544 26.742869 57.247544 C 30.664735 57.247544 33.250903 54.135902 33.250903 48.401539 C 33.250903 42.639832 30.664735 39.678585 26.742869 39.678585 z M 64.150394 39.678585 C 61.537119 39.678585 59.868935 40.586883 58.10722 42.372037 L 60.21276 44.477577 C 61.173695 43.571329 62.267567 42.754862 63.630846 42.754862 C 65.388654 42.754862 66.392658 43.65925 66.392658 45.31159 C 66.392658 47.737367 63.140419 50.6127 58.28496 54.690816 L 58.28496 56.93308 L 68.812663 56.93308 L 71.01391 54.745506 L 71.01391 53.624374 L 66.980569 53.624374 C 66.097758 53.624374 64.874994 53.733756 63.917965 53.843131 C 67.1953 50.960325 70.125208 47.917045 70.125208 45.065488 C 70.125208 41.811588 67.697263 39.678585 64.150394 39.678585 z M 102.1595 39.678585 C 99.546231 39.678585 97.864371 40.586883 96.102656 42.372037 L 98.208197 44.477577 C 99.169132 43.571329 100.263 42.754862 101.62628 42.754862 C 103.38409 42.754862 104.40177 43.65925 104.40177 45.31159 C 104.40177 47.737367 101.14953 50.6127 96.294069 54.690816 L 96.294069 56.93308 L 109.00935 56.93308 L 109.00935 53.624374 L 104.98968 53.624374 C 104.10686 53.624374 102.87043 53.733756 101.9134 53.843131 C 105.19074 50.960325 108.13432 47.917045 108.13432 45.065488 C 108.13432 41.811588 105.70638 39.678585 102.1595 39.678585 z M 39.403457 40.006722 L 39.403457 43.315428 L 47.907653 43.315428 C 44.360786 47.768545 43.210215 51.280748 42.889904 56.93308 L 46.84121 56.93308 C 47.161522 50.319812 47.825773 47.145467 52.118734 42.399381 L 52.118734 40.006722 L 39.403457 40.006722 z M 26.742869 42.727518 C 28.422552 42.727518 29.764456 44.003111 29.764456 48.401539 C 29.764456 52.799968 28.422552 54.212284 26.742869 54.212284 C 25.063183 54.212284 23.734953 52.799968 23.734953 48.401539 C 23.734953 44.003111 25.063183 42.727518 26.742869 42.727518 z M 85.178456 43.38379 C 81.144094 43.38379 77.631062 45.861333 77.549289 50.165271 C 78.583929 51.350156 79.465555 52.67172 80.160706 54.089233 L 79.230987 55.00528 C 80.564135 56.461288 82.574196 57.247544 84.891336 57.247544 C 86.703834 57.247544 88.735276 56.638099 90.332928 55.306072 L 88.760609 52.831378 C 87.799674 53.499345 86.647205 54.075561 85.26049 54.075561 C 83.0769 54.075561 81.555285 52.612539 81.555285 50.315667 C 81.555285 48.022703 83.127685 46.555773 85.397213 46.555773 C 86.381585 46.555773 87.311377 46.876123 88.323094 47.594871 L 90.141515 45.174867 C 89.020426 44.135807 87.256575 43.38379 85.178456 43.38379 z M 26.537783 46.323343 C 25.520262 46.415812 24.746707 47.19695 24.746707 48.34685 C 24.746707 49.573411 25.625683 50.370356 26.742869 50.370356 C 27.863958 50.370356 28.73903 49.573411 28.73903 48.34685 C 28.73903 47.12029 27.863958 46.323343 26.742869 46.323343 C 26.673044 46.323343 26.605618 46.317179 26.537783 46.323343 z "
     transform="matrix(0.14285227,0,0,0.14285227,-1.1425451,-2.2853635)" />
  <path
     id="path16"
     style="fill:url(#oomox)"
     class="ColorScheme-Text"
     d="M 29.969541 68.992085 C 26.107269 69.135869 24.41857 71.489591 24.41857 74.433677 L 24.41857 74.775486 L 20.932123 74.939554 L 20.932123 77.83809 L 24.41857 77.83809 L 24.41857 88.010312 L 28.342532 88.010312 L 28.342532 77.83809 L 32.909094 77.83809 L 32.909094 74.775486 L 28.342532 74.775486 L 28.342532 74.406333 C 28.342532 72.804772 29.151213 72.082034 30.830899 72.082034 C 31.842616 72.082034 32.764587 72.267598 33.592712 72.587911 L 34.34469 69.703047 C 33.223598 69.331954 31.858223 68.992085 30.338694 68.992085 C 30.209544 68.992085 30.094131 68.987447 29.969541 68.992085 z M 102.37826 70.755817 C 98.664572 70.934712 96.23938 73.883444 96.23938 79.465099 C 96.23938 85.199462 98.829455 88.324776 102.74741 88.324776 C 106.66928 88.324776 109.25545 85.199462 109.25545 79.465099 C 109.25545 73.703392 106.66928 70.755817 102.74741 70.755817 C 102.62498 70.755817 102.49806 70.750047 102.37826 70.755817 z M 59.788918 71.070281 L 59.324058 79.629167 L 61.060445 80.750299 C 62.208881 80.109676 62.796873 79.888941 63.917965 79.888941 C 65.703117 79.888941 67.007914 80.807004 67.007914 82.514031 C 67.007914 84.248403 65.644517 85.152793 63.726552 85.152793 C 62.124993 85.152793 60.855319 84.404687 59.734228 83.471095 L 57.970496 85.945789 C 59.357213 87.277816 61.353531 88.324776 64.287118 88.324776 C 67.783204 88.324776 70.931876 86.166362 70.931876 82.404652 C 70.931876 78.803097 68.242218 77.154473 65.121131 77.154473 C 64.265664 77.154473 63.652303 77.254096 62.878867 77.550971 L 63.165986 74.378988 L 70.152552 74.378988 L 70.152552 71.070281 L 63.165986 71.070281 L 61.990165 72.246103 L 60.814343 71.070281 L 59.788918 71.070281 z M 78.7798 71.070281 L 78.328612 79.629167 L 80.065 80.750299 C 81.213436 80.109676 81.801427 79.888941 82.922519 79.888941 C 84.707671 79.888941 86.012468 80.807004 86.012468 82.514031 C 86.012468 84.248403 84.649071 85.152793 82.731106 85.152793 C 81.129547 85.152793 79.846201 84.404687 78.72511 83.471095 L 76.975051 85.945789 C 78.361766 87.277816 80.358085 88.324776 83.291672 88.324776 C 86.78776 88.324776 89.93643 86.166362 89.93643 82.404652 C 89.93643 78.803097 87.2331 77.154473 84.112013 77.154473 C 83.256546 77.154473 82.643185 77.254096 81.869749 77.550971 L 82.17054 74.378988 L 89.157107 74.378988 L 89.157107 71.070281 L 78.7798 71.070281 z M 102.74741 73.791077 C 104.4271 73.791077 105.75533 75.066669 105.75533 79.465099 C 105.75533 83.863527 104.4271 85.275844 102.74741 85.275844 C 101.06774 85.275844 99.725827 83.863527 99.725827 79.465099 C 99.725827 75.066669 101.06774 73.791077 102.74741 73.791077 z M 45.6107 74.461022 C 43.505935 74.546795 41.553859 75.264307 39.854644 76.238426 L 41.23555 78.795154 C 42.727736 78.049063 43.977877 77.578316 45.255219 77.578316 C 47.044277 77.578316 47.952582 78.293228 48.085393 79.492443 C 41.819782 79.863537 39.376112 81.361755 39.376112 84.31878 C 39.376112 86.560964 41.046187 88.324776 43.710244 88.324776 C 45.417271 88.324776 47.081501 87.521979 48.41353 86.506355 L 48.509236 86.506355 L 48.810027 88.010312 L 52.009355 88.010312 L 52.009355 80.435835 C 52.009355 76.381155 49.741566 74.461022 46.034542 74.461022 C 45.892941 74.461022 45.751016 74.455304 45.6107 74.461022 z M 102.74741 77.386903 C 101.63024 77.386903 100.73758 78.183851 100.73758 79.410409 C 100.73758 80.63697 101.63024 81.447588 102.74741 81.447588 C 103.8685 81.447588 104.74358 80.63697 104.74358 79.410409 C 104.74358 78.183851 103.8685 77.386903 102.74741 77.386903 z M 48.085393 81.844086 L 48.085393 84.031661 C 47.151801 84.754315 46.143877 85.275844 44.9681 85.275844 C 43.850914 85.275844 43.122333 84.887127 43.122333 84.031661 C 43.122333 82.887131 44.190869 82.055024 48.085393 81.844086 z "
     transform="matrix(0.14285227,0,0,0.14285227,-1.1425451,-2.2853635)" />
  <path
     id="path21"
     style="opacity:0.5;fill:#000000;stroke-width:0.142852"
     d="M 5.4453125 6.8574219 C 5.434882 6.9515008 5.4277344 7.0457169 5.4277344 7.1425781 C 5.4277344 8.5627291 6.579849 9.7148438 8 9.7148438 C 9.420151 9.7148438 10.572266 8.5627291 10.572266 7.1425781 C 10.572266 7.0463771 10.564978 6.9528334 10.554688 6.859375 C 10.411297 8.1437083 9.3226156 9.1425781 8 9.1425781 C 6.6767097 9.1425781 5.5878111 8.1427006 5.4453125 6.8574219 z " />
  <path
     id="path22"
     class="ColorScheme-Text"
     style="opacity:1;stroke-width:0.142852;fill:url(#oomox)"
     d="M 8 4 C 6.579849 4 5.4277344 5.1521145 5.4277344 6.5722656 C 5.4277344 7.9924165 6.579849 9.1425781 8 9.1425781 C 9.420151 9.1425781 10.572266 7.9924165 10.572266 6.5722656 C 10.572266 6.0488983 10.415022 5.5624028 10.146484 5.15625 C 10.206443 5.247211 10.260465 5.3432652 10.308594 5.4414062 L 7.7128906 8.0351562 L 6.2675781 6.5898438 L 6.8730469 5.9824219 L 7.7128906 6.8222656 L 9.8007812 4.7363281 C 9.3369157 4.2812234 8.7012039 4 8 4 z M 9.8769531 4.8144531 C 9.9017696 4.840972 9.9255641 4.8689498 9.9492188 4.8964844 C 9.9253787 4.8687656 9.901936 4.8411251 9.8769531 4.8144531 z M 9.9492188 4.8964844 C 9.9965281 4.9515536 10.041505 5.0075355 10.083984 5.0664062 C 10.041632 5.0078895 9.9962337 4.9511484 9.9492188 4.8964844 z " />
  <metadata
     id="metadata24">
    <rdf:RDF>
      <cc:Work
         rdf:about="">
        <dc:creator>
          <cc:Agent>
            <dc:title>dreifacherspass</dc:title>
          </cc:Agent>
        </dc:creator>
        <cc:license
           rdf:resource="http://creativecommons.org/licenses/by-sa/4.0/" />
      </cc:Work>
      <cc:License
         rdf:about="http://creativecommons.org/licenses/by-sa/4.0/">
        <cc:permits
           rdf:resource="http://creativecommons.org/ns#Reproduction" />
        <cc:permits
           rdf:resource="http://creativecommons.org/ns#Distribution" />
        <cc:requires
           rdf:resource="http://creativecommons.org/ns#Notice" />
        <cc:requires
           rdf:resource="http://creativecommons.org/ns#Attribution" />
        <cc:permits
           rdf:resource="http://creativecommons.org/ns#DerivativeWorks" />
        <cc:requires
           rdf:resource="http://creativecommons.org/ns#ShareAlike" />
      </cc:License>
    </rdf:RDF>
  </metadata>
</svg>
