<?xml version="1.0" encoding="UTF-8" standalone="no"?>
<svg
   width="16"
   height="16"
   viewBox="0 0 16 16"
   version="1.1"
   id="svg16"
   xmlns:xlink="http://www.w3.org/1999/xlink"
   xmlns="http://www.w3.org/2000/svg"
   xmlns:svg="http://www.w3.org/2000/svg"
   xmlns:rdf="http://www.w3.org/1999/02/22-rdf-syntax-ns#"
   xmlns:cc="http://creativecommons.org/ns#"
   xmlns:dc="http://purl.org/dc/elements/1.1/">
  <defs>
   <style id="current-color-scheme" type="text/css">
   .ColorScheme-Text { color: #0abdc6; } .ColorScheme-Highlight { color:#5294e2; }
  </style>
  <linearGradient id="arrongin" x1="0%" x2="0%" y1="0%" y2="100%">
   <stop offset="0%" style="stop-color:#dd9b44; stop-opacity:1"/>
   <stop offset="100%" style="stop-color:#ad6c16; stop-opacity:1"/>
  </linearGradient>
  <linearGradient id="aurora" x1="0%" x2="0%" y1="0%" y2="100%">
   <stop offset="0%" style="stop-color:#09D4DF; stop-opacity:1"/>
   <stop offset="100%" style="stop-color:#9269F4; stop-opacity:1"/>
  </linearGradient>
  <linearGradient id="cyberneon" x1="0%" x2="0%" y1="0%" y2="100%">
    <stop offset="0" style="stop-color:#0abdc6; stop-opacity:1"/>
    <stop offset="1" style="stop-color:#ea00d9; stop-opacity:1"/>
  </linearGradient>
  <linearGradient id="fitdance" x1="0%" x2="0%" y1="0%" y2="100%">
   <stop offset="0%" style="stop-color:#1AD6AB; stop-opacity:1"/>
   <stop offset="100%" style="stop-color:#329DB6; stop-opacity:1"/>
  </linearGradient>
  <linearGradient id="oomox" x1="0%" x2="0%" y1="0%" y2="100%">
   <stop offset="0%" style="stop-color:#0abdc6; stop-opacity:1"/>
   <stop offset="100%" style="stop-color:#b800ff; stop-opacity:1"/>
  </linearGradient>
  <linearGradient id="rainblue" x1="0%" x2="0%" y1="0%" y2="100%">
   <stop offset="0%" style="stop-color:#00F260; stop-opacity:1"/>
   <stop offset="100%" style="stop-color:#0575E6; stop-opacity:1"/>
  </linearGradient>
  <linearGradient id="sunrise" x1="0%" x2="0%" y1="0%" y2="100%">
   <stop offset="0%" style="stop-color: #FF8501; stop-opacity:1"/>
   <stop offset="100%" style="stop-color: #FFCB01; stop-opacity:1"/>
  </linearGradient>
  <linearGradient id="telinkrin" x1="0%" x2="0%" y1="0%" y2="100%">
   <stop offset="0%" style="stop-color: #b2ced6; stop-opacity:1"/>
   <stop offset="100%" style="stop-color: #6da5b7; stop-opacity:1"/>
  </linearGradient>
  <linearGradient id="60spsycho" x1="0%" x2="0%" y1="0%" y2="100%">
   <stop offset="0%" style="stop-color: #df5940; stop-opacity:1"/>
   <stop offset="25%" style="stop-color: #d8d15f; stop-opacity:1"/>
   <stop offset="50%" style="stop-color: #e9882a; stop-opacity:1"/>
   <stop offset="100%" style="stop-color: #279362; stop-opacity:1"/>
  </linearGradient>
  <linearGradient id="90ssummer" x1="0%" x2="0%" y1="0%" y2="100%">
   <stop offset="0%" style="stop-color: #f618c7; stop-opacity:1"/>
   <stop offset="20%" style="stop-color: #94ffab; stop-opacity:1"/>
   <stop offset="50%" style="stop-color: #fbfd54; stop-opacity:1"/>
   <stop offset="100%" style="stop-color: #0f83ae; stop-opacity:1"/>
  </linearGradient>
 </defs>
  <path
     id="path11"
     class="ColorScheme-Text"
     style="display:inline;opacity:0.541667;fill:url(#oomox);fill-rule:nonzero;stroke:none;stroke-width:0.133333"
     d="M 7.9776041,0 C 4.0993131,0.01170924 0.9469648,3.0891901 0.8067708,6.9333333 H 0.8 V 7.2 8.8 c 0,1.909371 0.758336,3.74115 2.1088541,5.091145 C 4.2588515,15.241664 6.0906288,16 8,16 h 7.2 l -0.4,-0.4 0.4,-0.4 -0.4,-0.4 0.4,-0.4 H 12.523958 C 14.155793,13.080076 15.2,11.062396 15.2,8.8 V 7.2 6.9333333 H 15.1932 C 15.052735,3.0805303 11.887135,0 8,0 Z M 8,4.2666667 c 1.6197901,0 2.933333,1.3135432 2.933333,2.9333333 0,1.6197901 -1.3135429,2.933333 -2.933333,2.933333 C 6.3802099,10.133333 5.0666667,8.8197901 5.0666667,7.2 5.0666667,5.5802099 6.3802099,4.2666667 8,4.2666667 Z" />
  <path
     style="fill:url(#oomox);fill-rule:nonzero;stroke:none;stroke-width:0.133333"
     d="m 8,4.2666667 c -1.6197917,0 -2.9333333,1.3135416 -2.9333333,2.9333333 0,0.4385416 0.098437,0.8713541 0.2875,1.2666667 C 5.5223959,7.1333333 6.65625,6.1333333 8,6.1333333 c 1.34375,0 2.477604,1 2.645833,2.3333334 C 10.834896,8.0708333 10.933333,7.6385416 10.933333,7.2 10.933333,5.5802083 9.6197917,4.2666667 8,4.2666667 Z m 0,0"
     id="path12"
     class="ColorScheme-Text"/>
  <path
     style="fill:none;stroke:url(#oomox);stroke-width:0.8;stroke-linecap:round;stroke-linejoin:round;stroke-miterlimit:4;stroke-opacity:1"
     d="M 11.066667,7.2 C 11.066667,8.8937493 9.69375,10.266667 8,10.266667 6.30625,10.266667 4.9333333,8.8937493 4.9333333,7.2 4.9333333,5.5062493 6.30625,4.1333333 8,4.1333333 c 1.69375,0 3.066667,1.372916 3.066667,3.0666667 z m 0,0"
     id="path15"
     class="ColorScheme-Text"/>
  <path
     style="fill:url(#oomox);fill-opacity:1;fill-rule:nonzero;stroke:none;stroke-width:0.133333"
     d="M 0.80156253,7.0666667 C 0.8005208,7.1109375 0.8,7.1557292 0.8,7.2 c 0,3.976563 3.2234375,7.2 7.2,7.2 3.976563,0 7.2,-3.223437 7.2,-7.2 0,-0.044271 -5.33e-4,-0.089062 -0.0016,-0.1333333 -0.0724,3.9239583 -3.273961,7.0666663 -7.19844,7.0666663 -3.9244792,0 -7.1260416,-3.142708 -7.19843747,-7.0666663 z m 0,0"
     id="path16"
     class="ColorScheme-Text"/>
  <metadata
     id="metadata27">
    <rdf:RDF>
      <cc:Work
         rdf:about="">
        <dc:creator>
          <cc:Agent>
            <dc:title>dreifacherspass</dc:title>
          </cc:Agent>
        </dc:creator>
        <cc:license
           rdf:resource="http://creativecommons.org/licenses/by-sa/4.0/" />
      </cc:Work>
      <cc:License
         rdf:about="http://creativecommons.org/licenses/by-sa/4.0/">
        <cc:permits
           rdf:resource="http://creativecommons.org/ns#Reproduction" />
        <cc:permits
           rdf:resource="http://creativecommons.org/ns#Distribution" />
        <cc:requires
           rdf:resource="http://creativecommons.org/ns#Notice" />
        <cc:requires
           rdf:resource="http://creativecommons.org/ns#Attribution" />
        <cc:permits
           rdf:resource="http://creativecommons.org/ns#DerivativeWorks" />
        <cc:requires
           rdf:resource="http://creativecommons.org/ns#ShareAlike" />
      </cc:License>
    </rdf:RDF>
  </metadata>
</svg>
