<?xml version="1.0" encoding="UTF-8" standalone="no"?>
<svg
   width="128px"
   height="128px"
   viewBox="0 0 128 128"
   version="1.1"
   id="svg108"
   sodipodi:docname="com.github.johnfactotum.Foliate.svg"
   inkscape:version="1.2.2 (b0a8486541, 2022-12-01)"
   xmlns:inkscape="http://www.inkscape.org/namespaces/inkscape"
   xmlns:sodipodi="http://sodipodi.sourceforge.net/DTD/sodipodi-0.dtd"
   xmlns:xlink="http://www.w3.org/1999/xlink"
   xmlns="http://www.w3.org/2000/svg"
   xmlns:svg="http://www.w3.org/2000/svg">
  <sodipodi:namedview
     id="namedview110"
     pagecolor="#ffffff"
     bordercolor="#000000"
     borderopacity="0.25"
     inkscape:showpageshadow="2"
     inkscape:pageopacity="0.0"
     inkscape:pagecheckerboard="0"
     inkscape:deskcolor="#d1d1d1"
     showgrid="false"
     inkscape:zoom="18.087979"
     inkscape:cx="65.236697"
     inkscape:cy="47.683603"
     inkscape:window-width="1545"
     inkscape:window-height="779"
     inkscape:window-x="0"
     inkscape:window-y="0"
     inkscape:window-maximized="0"
     inkscape:current-layer="surface203855" />
  <defs
     id="defs55">
    <style
       id="current-color-scheme"
       type="text/css">
   .ColorScheme-Text { color: #0abdc6; } .ColorScheme-Highlight { color:#5294e2; }
  </style>
    <linearGradient
       id="arrongin"
       x1="0%"
       x2="0%"
       y1="0%"
       y2="100%">
      <stop
         offset="0%"
         style="stop-color:#dd9b44; stop-opacity:1"
         id="stop9192" />
      <stop
         offset="100%"
         style="stop-color:#ad6c16; stop-opacity:1"
         id="stop9194" />
    </linearGradient>
    <linearGradient
       id="aurora"
       x1="0%"
       x2="0%"
       y1="0%"
       y2="100%">
      <stop
         offset="0%"
         style="stop-color:#09D4DF; stop-opacity:1"
         id="stop9197" />
      <stop
         offset="100%"
         style="stop-color:#9269F4; stop-opacity:1"
         id="stop9199" />
    </linearGradient>
    <linearGradient
       id="cyberneon"
       x1="0%"
       x2="0%"
       y1="0%"
       y2="100%">
      <stop
         offset="0"
         style="stop-color:#0abdc6; stop-opacity:1"
         id="stop9202" />
      <stop
         offset="1"
         style="stop-color:#ea00d9; stop-opacity:1"
         id="stop9204" />
    </linearGradient>
    <linearGradient
       id="fitdance"
       x1="0%"
       x2="0%"
       y1="0%"
       y2="100%">
      <stop
         offset="0%"
         style="stop-color:#1AD6AB; stop-opacity:1"
         id="stop9207" />
      <stop
         offset="100%"
         style="stop-color:#329DB6; stop-opacity:1"
         id="stop9209" />
    </linearGradient>
    <linearGradient
       id="oomox"
       x1="0%"
       x2="0%"
       y1="0%"
       y2="100%">
      <stop
         offset="0%"
         style="stop-color:#0abdc6; stop-opacity:1"
         id="stop9212" />
      <stop
         offset="100%"
         style="stop-color:#b800ff; stop-opacity:1"
         id="stop9214" />
    </linearGradient>
    <linearGradient
       id="rainblue"
       x1="0%"
       x2="0%"
       y1="0%"
       y2="100%">
      <stop
         offset="0%"
         style="stop-color:#00F260; stop-opacity:1"
         id="stop9217" />
      <stop
         offset="100%"
         style="stop-color:#0575E6; stop-opacity:1"
         id="stop9219" />
    </linearGradient>
    <linearGradient
       id="sunrise"
       x1="0%"
       x2="0%"
       y1="0%"
       y2="100%">
      <stop
         offset="0%"
         style="stop-color: #FF8501; stop-opacity:1"
         id="stop9222" />
      <stop
         offset="100%"
         style="stop-color: #FFCB01; stop-opacity:1"
         id="stop9224" />
    </linearGradient>
    <linearGradient
       id="telinkrin"
       x1="0%"
       x2="0%"
       y1="0%"
       y2="100%">
      <stop
         offset="0%"
         style="stop-color: #b2ced6; stop-opacity:1"
         id="stop9227" />
      <stop
         offset="100%"
         style="stop-color: #6da5b7; stop-opacity:1"
         id="stop9229" />
    </linearGradient>
    <linearGradient
       id="60spsycho"
       x1="0%"
       x2="0%"
       y1="0%"
       y2="100%">
      <stop
         offset="0%"
         style="stop-color: #df5940; stop-opacity:1"
         id="stop9232" />
      <stop
         offset="25%"
         style="stop-color: #d8d15f; stop-opacity:1"
         id="stop9234" />
      <stop
         offset="50%"
         style="stop-color: #e9882a; stop-opacity:1"
         id="stop9236" />
      <stop
         offset="100%"
         style="stop-color: #279362; stop-opacity:1"
         id="stop9238" />
    </linearGradient>
    <linearGradient
       id="90ssummer"
       x1="0%"
       x2="0%"
       y1="0%"
       y2="100%">
      <stop
         offset="0%"
         style="stop-color: #f618c7; stop-opacity:1"
         id="stop9241" />
      <stop
         offset="20%"
         style="stop-color: #94ffab; stop-opacity:1"
         id="stop9243" />
      <stop
         offset="50%"
         style="stop-color: #fbfd54; stop-opacity:1"
         id="stop9245" />
      <stop
         offset="100%"
         style="stop-color: #0f83ae; stop-opacity:1"
         id="stop9247" />
    </linearGradient>
    <linearGradient
       id="linear0"
       gradientUnits="userSpaceOnUse"
       x1="64"
       y1="246"
       x2="120"
       y2="246"
       gradientTransform="matrix(1,0,0,1,0,-166)">
      <stop
         offset="0"
         style="stop-color:rgb(75.294119%,74.901962%,73.725492%);stop-opacity:1;"
         id="stop2" />
      <stop
         offset="0.857143"
         style="stop-color:rgb(75.294119%,74.901962%,73.725492%);stop-opacity:1;"
         id="stop4" />
      <stop
         offset="0.928571"
         style="stop-color:rgb(87.058824%,86.666667%,85.490197%);stop-opacity:1;"
         id="stop6" />
      <stop
         offset="1"
         style="stop-color:rgb(75.294119%,74.901962%,73.725492%);stop-opacity:1;"
         id="stop8" />
    </linearGradient>
    <linearGradient
       id="linear1"
       gradientUnits="userSpaceOnUse"
       x1="64"
       y1="246"
       x2="120"
       y2="246"
       gradientTransform="matrix(-1,0,0,1,128.000006,-166)">
      <stop
         offset="0"
         style="stop-color:rgb(75.294119%,74.901962%,73.725492%);stop-opacity:1;"
         id="stop11" />
      <stop
         offset="0.857143"
         style="stop-color:rgb(75.294119%,74.901962%,73.725492%);stop-opacity:1;"
         id="stop13" />
      <stop
         offset="0.928571"
         style="stop-color:rgb(87.058824%,86.666667%,85.490197%);stop-opacity:1;"
         id="stop15" />
      <stop
         offset="1"
         style="stop-color:rgb(75.294119%,74.901962%,73.725492%);stop-opacity:1;"
         id="stop17" />
    </linearGradient>
    <filter
       id="alpha"
       filterUnits="objectBoundingBox"
       x="0"
       y="0"
       width="1"
       height="1">
      <feColorMatrix
         type="matrix"
         in="SourceGraphic"
         values="0 0 0 0 1 0 0 0 0 1 0 0 0 0 1 0 0 0 1 0"
         id="feColorMatrix20" />
    </filter>
    <mask
       id="mask0">
      <g
         filter="url(#alpha)"
         id="g25">
        <rect
           x="0"
           y="0"
           width="128"
           height="128"
           style="fill:rgb(0%,0%,0%);fill-opacity:0.1;stroke:none;"
           id="rect23" />
      </g>
    </mask>
    <clipPath
       id="clip1">
      <rect
         x="0"
         y="0"
         width="192"
         height="152"
         id="rect28" />
    </clipPath>
    <g
       id="surface203859"
       clip-path="url(#clip1)">
      <path
         style="stroke:none;fill-rule:nonzero;fill:rgb(0%,0%,0%);fill-opacity:1;"
         d="M 128 107.65625 C 127.917969 111.746094 124.621094 115 120.507812 115 L 120.007812 115 L 120.007812 116 L 120.507812 116 C 123.753906 116 126.566406 114.1875 128 111.519531 Z M 96 115 L 120 116 L 120 115 Z M 96 115 "
         id="path31" />
      <path
         style=" stroke:none;fill-rule:nonzero;fill:rgb(0%,0%,0%);fill-opacity:1;"
         d="M 128 110.65625 C 127.917969 114.746094 124.621094 118 120.507812 118 L 120.007812 118 L 120.007812 119 L 120.507812 119 C 123.730469 119 126.53125 117.210938 127.972656 114.574219 C 127.984375 114.382812 128 114.191406 128 114 Z M 102 118 L 120 119 L 120 118 Z M 102 118 "
         id="path33" />
    </g>
  </defs>
  <g
     id="surface203855">
    <path
       style="display:inline;fill:url(#oomox);fill-opacity:1;fill-rule:nonzero;stroke:none"
       d="M 120,89.627247 V 101 c 0,4.43359 -3.56641,8 -8,8 H 90 c -9.683594,0 -18.023438,5.73828 -21.816406,14 H 59.816406 C 56.023438,114.73828 47.683594,109 38,109 H 16 c -4.433594,0 -8,-3.56641 -8,-8 V 90.057085 Z"
       id="path57"
       class="ColorScheme-Text"
       sodipodi:nodetypes="csssccssscc" />
    <use
       xlink:href="#surface203859"
       transform="matrix(1,0,0,1,-8,-16)"
       mask="url(#mask0)"
       id="use63" />
    <path
       id="path65"
       class="ColorScheme-Text"
       style="display:inline;fill:url(#oomox);fill-opacity:1;fill-rule:nonzero;stroke:none"
       d="M 88,21 C 74.746159,21 64,33.746159 64,47 v 73 C 64,106.74615 74.746159,96 88,96 h 24 c 4.43359,0 8,-3.566426 8,-8 V 29 c 0,-4.433574 -3.56641,-8 -8,-8 z m 2,11 h 12 v 6 H 90 c -4.374996,0.183594 -8.464848,1.296877 -12,3.28125 V 35.730469 C 81.531246,33.394533 85.625004,32 90,32 Z m 0,12 h 18 v 4 H 90 c -4.374992,0.183594 -8.464852,1.296879 -12,3.28125 V 47.730469 C 81.531242,45.394535 85.625008,44 90,44 Z m 0,8 h 18 v 4 H 90 c -4.374988,0.183594 -8.464856,1.296881 -12,3.28125 V 55.730469 C 81.531238,53.394537 85.625012,52 90,52 Z m 0,8 h 18 v 4 H 90 c -4.374984,0.183594 -8.46486,1.296883 -12,3.28125 V 63.730469 C 81.531234,61.394539 85.625016,60 90,60 Z m 0,8 h 10 v 4 H 90 c -4.37498,0.183594 -8.464864,1.296885 -12,3.28125 V 71.730469 C 81.53123,69.394541 85.62502,68 90,68 Z" />
    <path
       id="path67"
       class="ColorScheme-Text"
       style="display:inline;fill:url(#oomox);fill-opacity:1;fill-rule:nonzero;stroke:none"
       d="m 16,21 c -4.43357,0 -8,3.56643 -8,8 v 59 c 0,4.43357 3.56643,8 8,8 h 24 c 13.253828,0 24,10.74616 24,24 V 47 C 64,33.746172 53.253828,21 40,21 Z m 4,15 h 20 c 3.574215,0 6.953128,0.941407 10,2.558594 v 3.734375 C 46.953128,40.929689 43.574215,40.148438 40,40 H 20 Z m 0,8 h 20 c 3.574211,0 6.953131,0.941408 10,2.558594 v 3.734375 C 46.953131,48.92969 43.574211,48.148438 40,48 H 20 Z m 0,8 h 20 c 3.574207,0 6.953134,0.941409 10,2.558594 v 3.734375 C 46.953134,56.929691 43.574207,56.148438 40,56 H 20 Z m 0,8 h 20 c 3.574203,0 6.953137,0.94141 10,2.558594 v 3.734375 C 46.953137,64.929692 43.574203,64.148438 40,64 H 20 Z m 0,8 h 20 c 3.574199,0 6.95314,0.941411 10,2.558594 v 3.734375 C 46.95314,72.929693 43.574199,72.148438 40,72 H 20 Z m 0,8 h 16 v 4 H 20 Z" />
    <path
       style="opacity:1;fill:#000000;fill-opacity:1;stroke:none;stroke-width:0;stroke-linejoin:round;stroke-dasharray:none;stroke-opacity:1;paint-order:markers fill stroke;stop-color:#000000"
       d="m 64.285148,44.17579 c -0.201921,-0.184883 -1.129147,67.4596 -0.725452,67.73087 -0.115185,0.61335 0.353679,6.77637 1.091907,0.002"
       id="path4303"
       sodipodi:nodetypes="ccc" />
    <path
       style="display:inline;fill:url(#oomox);fill-opacity:1;fill-rule:nonzero;stroke:none"
       class="ColorScheme-Text"
       d="m 35.434082,0 c 0,0 -8.230469,20.4375 -8.207032,31.1875 0.01563,8 1.101563,17.027344 6.210938,23.183594 3.925781,4.726562 16.628906,7.964844 16.628906,7.964844 l 3.863282,-1.035157 c 0,0 9.378906,-9.15625 10.417968,-15.210937 C 65.6958,38.203125 62.121582,29.84375 58.137207,22.90625 52.781738,13.582031 35.434082,0 35.434082,0 Z m 0,0"
       id="path91" />
    <path
       style="display:inline;fill:#000003;fill-opacity:0.262069;fill-rule:nonzero;stroke:none"
       d="m 43.090332,30.066406 c 3.617187,-6.261718 4.914062,-7.515625 6.195312,-9.597656 -1.160156,2.152344 -1.636718,3.878906 -5.253906,10.140625 z m 0,0"
       id="path95" />
    <path
       style="display:inline;fill:#000003;fill-opacity:0.262069;fill-rule:nonzero;stroke:none"
       d="m 45.598144,39.785156 c 5.019532,-8.695312 6.820313,-10.4375 8.597656,-13.332031 -1.605468,2.992187 -2.269531,5.390625 -7.292968,14.085937 z m 0,0"
       id="path97" />
    <path
       style="display:inline;fill:#000003;fill-opacity:0.262069;fill-rule:nonzero;stroke:none"
       d="m 48.359863,50.210938 c 5.3125,-9.199219 7.214844,-11.042969 9.097656,-14.101563 -1.703125,3.164063 -2.40625,5.699219 -7.714843,14.898437 z m 0,0"
       id="path99" />
    <path
       style="display:inline;fill:#000003;fill-opacity:0.262069;fill-rule:nonzero;stroke:none"
       d="M 43.836426,29.867188 C 37.5708,26.253906 35.824707,25.816406 33.672363,24.652344 c 2.078125,1.285156 3.355469,2.542968 9.617187,6.15625 z m 0,0"
       id="path101" />
    <path
       style="fill:#000003;fill-opacity:0.262069;fill-rule:nonzero;stroke:none"
       d="m 46.523926,39.539062 c -8.695313,-5.023437 -11.125,-5.632812 -14.113282,-7.246093 2.890625,1.785156 4.660156,3.53125 13.359375,8.550781 z m 0,0"
       id="path103" />
    <path
       style="fill:#000003;fill-opacity:0.262069;fill-rule:nonzero;stroke:none"
       d="m 49.344238,49.945312 c -9.199219,-5.3125 -11.769531,-5.957031 -14.929688,-7.664062 3.054688,1.890625 4.933594,3.734375 14.132813,9.046875 z m 0,0"
       id="path105" />
    <path
       style="display:inline;fill:#000003;fill-opacity:0.355172;fill-rule:nonzero;stroke:none"
       d="M 54.215332,77.820312 C 43.441894,37.617188 43.72705,33.128906 38.457519,11.003906 c 6.53125,21.703125 8.847657,25.578125 19.621094,65.78125 z m 0,0"
       id="path93" />
  </g>
</svg>
