<?xml version="1.0" encoding="UTF-8" standalone="no"?>
<svg
   height="16"
   viewBox="0 0 16 16"
   width="16"
   version="1.1"
   id="svg7"
   xmlns:xlink="http://www.w3.org/1999/xlink"
   xmlns="http://www.w3.org/2000/svg"
   xmlns:svg="http://www.w3.org/2000/svg"
   xmlns:rdf="http://www.w3.org/1999/02/22-rdf-syntax-ns#"
   xmlns:cc="http://creativecommons.org/ns#"
   xmlns:dc="http://purl.org/dc/elements/1.1/">
  <defs>
   <style id="current-color-scheme" type="text/css">
   .ColorScheme-Text { color: #0abdc6; } .ColorScheme-Highlight { color:#5294e2; }
  </style>
  <linearGradient id="arrongin" x1="0%" x2="0%" y1="0%" y2="100%">
   <stop offset="0%" style="stop-color:#dd9b44; stop-opacity:1"/>
   <stop offset="100%" style="stop-color:#ad6c16; stop-opacity:1"/>
  </linearGradient>
  <linearGradient id="aurora" x1="0%" x2="0%" y1="0%" y2="100%">
   <stop offset="0%" style="stop-color:#09D4DF; stop-opacity:1"/>
   <stop offset="100%" style="stop-color:#9269F4; stop-opacity:1"/>
  </linearGradient>
  <linearGradient id="cyberneon" x1="0%" x2="0%" y1="0%" y2="100%">
    <stop offset="0" style="stop-color:#0abdc6; stop-opacity:1"/>
    <stop offset="1" style="stop-color:#ea00d9; stop-opacity:1"/>
  </linearGradient>
  <linearGradient id="fitdance" x1="0%" x2="0%" y1="0%" y2="100%">
   <stop offset="0%" style="stop-color:#1AD6AB; stop-opacity:1"/>
   <stop offset="100%" style="stop-color:#329DB6; stop-opacity:1"/>
  </linearGradient>
  <linearGradient id="oomox" x1="0%" x2="0%" y1="0%" y2="100%">
   <stop offset="0%" style="stop-color:#0abdc6; stop-opacity:1"/>
   <stop offset="100%" style="stop-color:#b800ff; stop-opacity:1"/>
  </linearGradient>
  <linearGradient id="rainblue" x1="0%" x2="0%" y1="0%" y2="100%">
   <stop offset="0%" style="stop-color:#00F260; stop-opacity:1"/>
   <stop offset="100%" style="stop-color:#0575E6; stop-opacity:1"/>
  </linearGradient>
  <linearGradient id="sunrise" x1="0%" x2="0%" y1="0%" y2="100%">
   <stop offset="0%" style="stop-color: #FF8501; stop-opacity:1"/>
   <stop offset="100%" style="stop-color: #FFCB01; stop-opacity:1"/>
  </linearGradient>
  <linearGradient id="telinkrin" x1="0%" x2="0%" y1="0%" y2="100%">
   <stop offset="0%" style="stop-color: #b2ced6; stop-opacity:1"/>
   <stop offset="100%" style="stop-color: #6da5b7; stop-opacity:1"/>
  </linearGradient>
  <linearGradient id="60spsycho" x1="0%" x2="0%" y1="0%" y2="100%">
   <stop offset="0%" style="stop-color: #df5940; stop-opacity:1"/>
   <stop offset="25%" style="stop-color: #d8d15f; stop-opacity:1"/>
   <stop offset="50%" style="stop-color: #e9882a; stop-opacity:1"/>
   <stop offset="100%" style="stop-color: #279362; stop-opacity:1"/>
  </linearGradient>
  <linearGradient id="90ssummer" x1="0%" x2="0%" y1="0%" y2="100%">
   <stop offset="0%" style="stop-color: #f618c7; stop-opacity:1"/>
   <stop offset="20%" style="stop-color: #94ffab; stop-opacity:1"/>
   <stop offset="50%" style="stop-color: #fbfd54; stop-opacity:1"/>
   <stop offset="100%" style="stop-color: #0f83ae; stop-opacity:1"/>
  </linearGradient>
 </defs>
  <path
     id="path6"
     class="ColorScheme-Text"
     style="display:inline;opacity:0.5;fill:url(#oomox);stroke-width:0.142855"
     d="M 6.2866379,0 V 9.7148438 H 15.999208 C 15.999208,8.7639519 15.237234,8 14.286374,8 H 12.571587 V 4.5722656 c 0,-0.633928 -0.508633,-1.1445312 -1.14254,-1.1445312 H 7.999472 V 1.7148438 C 7.999472,0.76395199 7.2374984,0 6.2866379,0 Z m 0,9.7148438 H 3.4293103 c 0,0.9508912 -0.7639268,1.7128902 -1.7147871,1.7128902 H -2.64e-4 v 3.429688 C -2.64e-4,15.49135 0.50836948,16 1.1422764,16 h 3.4295743 v -1.714844 c 0,-0.950892 0.7639269,-1.71289 1.7147872,-1.71289 z M 2.9273738,8.5 C 2.9660865,8.538714 3.0038403,8.580759 3.0386982,8.6230469 3.0035316,8.5803844 2.9664627,8.5390237 2.9273738,8.5 Z m 0.3671754,0.5449219 c 0.043211,0.1026436 0.076875,0.2103883 0.099606,0.3222656 -0.022731,-0.1118773 -0.056395,-0.219622 -0.099606,-0.3222656 z" />
  <path
     d="M 6.2857715,0 C 5.3349102,0 4.5715426,0.76339279 4.5715426,1.7142855 V 3.4285711 H 1.1430848 c -0.63390761,0 -1.14281931747,0.5089285 -1.14281931747,1.1428572 V 7.9999992 H 1.7144943 c 0.9508613,0 1.7142289,0.7633928 1.7142289,1.7142856 h 2.8570483 z m 0,9.7142848 v 2.8571432 c 0.9508614,0 1.714229,0.763393 1.714229,1.714286 v 1.714284 h 3.4284575 c 0.633908,0 1.14282,-0.508927 1.14282,-1.142856 V 11.42857 h 1.71423 c 0.950861,0 1.714228,-0.763393 1.714228,-1.7142852 z m 0,0"
     fill-opacity="1"
     id="path7"
     class="ColorScheme-Text"
     style="display:inline;fill:url(#oomox);stroke-width:0.142855" />
  <metadata
     id="metadata7">
    <rdf:RDF>
      <cc:Work
         rdf:about="">
        <dc:creator>
          <cc:Agent>
            <dc:title>dreifacherspass</dc:title>
          </cc:Agent>
        </dc:creator>
        <cc:license
           rdf:resource="http://creativecommons.org/licenses/by-sa/4.0/" />
      </cc:Work>
      <cc:License
         rdf:about="http://creativecommons.org/licenses/by-sa/4.0/">
        <cc:permits
           rdf:resource="http://creativecommons.org/ns#Reproduction" />
        <cc:permits
           rdf:resource="http://creativecommons.org/ns#Distribution" />
        <cc:requires
           rdf:resource="http://creativecommons.org/ns#Notice" />
        <cc:requires
           rdf:resource="http://creativecommons.org/ns#Attribution" />
        <cc:permits
           rdf:resource="http://creativecommons.org/ns#DerivativeWorks" />
        <cc:requires
           rdf:resource="http://creativecommons.org/ns#ShareAlike" />
      </cc:License>
    </rdf:RDF>
  </metadata>
</svg>
