<?xml version="1.0" encoding="UTF-8" standalone="no"?>
<svg
   height="48"
   width="48"
   version="1.1"
   id="svg42"
   xmlns:xlink="http://www.w3.org/1999/xlink"
   xmlns="http://www.w3.org/2000/svg"
   xmlns:svg="http://www.w3.org/2000/svg"
   xmlns:rdf="http://www.w3.org/1999/02/22-rdf-syntax-ns#"
   xmlns:cc="http://creativecommons.org/ns#"
   xmlns:dc="http://purl.org/dc/elements/1.1/">
  <defs
     id="defs46">
    <style
       id="current-color-scheme"
       type="text/css">
       .ColorScheme-Text { color: #0abdc6; } .ColorScheme-Highlight { color:#5294e2; }
     </style>
    <linearGradient
       id="arrongin"
       x1="0%"
       x2="0%"
       y1="0%"
       y2="100%">
      <stop
         offset="0%"
         style="stop-color:#dd9b44; stop-opacity:1"
         id="stop9192" />
      <stop
         offset="100%"
         style="stop-color:#ad6c16; stop-opacity:1"
         id="stop9194" />
    </linearGradient>
    <linearGradient
       id="aurora"
       x1="0%"
       x2="0%"
       y1="0%"
       y2="100%">
      <stop
         offset="0%"
         style="stop-color:#09D4DF; stop-opacity:1"
         id="stop9197" />
      <stop
         offset="100%"
         style="stop-color:#9269F4; stop-opacity:1"
         id="stop9199" />
    </linearGradient>
    <linearGradient
       id="cyberneon"
       x1="0%"
       x2="0%"
       y1="0%"
       y2="100%">
      <stop
         offset="0"
         style="stop-color:#0abdc6; stop-opacity:1"
         id="stop9202" />
      <stop
         offset="1"
         style="stop-color:#ea00d9; stop-opacity:1"
         id="stop9204" />
    </linearGradient>
    <linearGradient
       id="fitdance"
       x1="0%"
       x2="0%"
       y1="0%"
       y2="100%">
      <stop
         offset="0%"
         style="stop-color:#1AD6AB; stop-opacity:1"
         id="stop9207" />
      <stop
         offset="100%"
         style="stop-color:#329DB6; stop-opacity:1"
         id="stop9209" />
    </linearGradient>
    <linearGradient
       id="oomox"
       x1="0%"
       x2="0%"
       y1="0%"
       y2="100%">
      <stop
         offset="0%"
         style="stop-color:#0abdc6; stop-opacity:1"
         id="stop9212" />
      <stop
         offset="100%"
         style="stop-color:#b800ff; stop-opacity:1"
         id="stop9214" />
    </linearGradient>
    <linearGradient
       id="rainblue"
       x1="0%"
       x2="0%"
       y1="0%"
       y2="100%">
      <stop
         offset="0%"
         style="stop-color:#00F260; stop-opacity:1"
         id="stop9217" />
      <stop
         offset="100%"
         style="stop-color:#0575E6; stop-opacity:1"
         id="stop9219" />
    </linearGradient>
    <linearGradient
       id="sunrise"
       x1="0%"
       x2="0%"
       y1="0%"
       y2="100%">
      <stop
         offset="0%"
         style="stop-color: #FF8501; stop-opacity:1"
         id="stop9222" />
      <stop
         offset="100%"
         style="stop-color: #FFCB01; stop-opacity:1"
         id="stop9224" />
    </linearGradient>
    <linearGradient
       id="telinkrin"
       x1="0%"
       x2="0%"
       y1="0%"
       y2="100%">
      <stop
         offset="0%"
         style="stop-color: #b2ced6; stop-opacity:1"
         id="stop9227" />
      <stop
         offset="100%"
         style="stop-color: #6da5b7; stop-opacity:1"
         id="stop9229" />
    </linearGradient>
    <linearGradient
       id="60spsycho"
       x1="0%"
       x2="0%"
       y1="0%"
       y2="100%">
      <stop
         offset="0%"
         style="stop-color: #df5940; stop-opacity:1"
         id="stop9232" />
      <stop
         offset="25%"
         style="stop-color: #d8d15f; stop-opacity:1"
         id="stop9234" />
      <stop
         offset="50%"
         style="stop-color: #e9882a; stop-opacity:1"
         id="stop9236" />
      <stop
         offset="100%"
         style="stop-color: #279362; stop-opacity:1"
         id="stop9238" />
    </linearGradient>
    <linearGradient
       id="90ssummer"
       x1="0%"
       x2="0%"
       y1="0%"
       y2="100%">
      <stop
         offset="0%"
         style="stop-color: #f618c7; stop-opacity:1"
         id="stop9241" />
      <stop
         offset="20%"
         style="stop-color: #94ffab; stop-opacity:1"
         id="stop9243" />
      <stop
         offset="50%"
         style="stop-color: #fbfd54; stop-opacity:1"
         id="stop9245" />
      <stop
         offset="100%"
         style="stop-color: #0f83ae; stop-opacity:1"
         id="stop9247" />
    </linearGradient>
  </defs>
  <path
     d="M 0.50000013,6.0622161 V 6.9332787 H 47.156374 V 6.0622161 Z m 0,4.7651129 v 0.871062 H 47.156374 v -0.871062 z m 0,4.765112 v 0.871063 H 47.156374 v -0.871063 z m 0,4.765113 v 0.871062 H 47.156374 v -0.871062 z m 0,4.765112 v 0.871063 H 47.156374 v -0.871063 z m 0.0789292,4.765113 -0.0789292,0.871063 H 47.156374 v -0.871063 z m -0.0789292,4.765113 v 0.871062 H 47.156374 v -0.871062 z m 0,4.765112 v 0.871063 H 47.156374 v -0.871063 z m 0,4.765113 v 0.871062 H 47.050528 l 0.07893,-0.871062 z M 0.58737247,1.1430535 0.66630171,2.0141161 H 47.006959 V 1.1430535 Z"
     fill-rule="evenodd"
     fill-opacity=".6"
     id="path24"
     class="ColorScheme-Text"
     style="fill:url(#oomox);fill-opacity:1;stroke-width:0.476511" />
  <path
     d="m 26.588992,18.881322 c -1.857918,0 -2.689906,0.703807 -5.187779,4.612629 l -3.523324,5.572799 -1.665883,-5.701457 c -1.025929,-3.586701 -2.434973,-4.483971 -4.09895,-4.483971 -1.857441,0 -4.1003793,1.601078 -6.983749,4.867562 -0.3202156,0.257316 0.2568396,0.833895 0.5136792,0.513679 1.7292593,-1.794064 3.2016791,-2.626053 4.2905074,-2.626053 0.8972704,0 2.1795624,0.446491 3.2031084,3.841634 l 2.177657,7.303964 -4.483971,6.661628 c -1.0235464,1.47242 -1.9856227,1.921293 -2.8176113,1.921293 -1.2808623,0 -1.4095204,-1.280862 -2.8833697,-1.280862 -1.0240227,0 -1.7297359,0.640431 -1.8579174,1.537702 -0.2549335,1.729259 1.5377018,3.201679 3.2035852,3.201679 1.922723,0 2.7547116,-0.769089 5.1892072,-4.676005 l 3.970769,-6.276606 2.050904,6.917037 c 0.960647,3.331767 2.177657,4.035574 3.84211,4.035574 1.857441,0 4.10038,-1.664454 6.981844,-4.867563 0.322121,-0.320215 -0.191558,-0.831988 -0.511774,-0.577055 -1.729259,1.794542 -3.138303,2.62653 -4.227131,2.62653 -0.960647,0 -2.114757,-0.257316 -3.011551,-3.266961 l -2.561725,-8.647726 4.036051,-5.893015 c 1.025452,-1.40952 1.985622,-1.921293 2.817611,-1.921293 1.280862,0 1.409044,1.280862 2.883369,1.280862 1.024023,0 1.72926,-0.640431 1.857918,-1.537702 0.254933,-1.665883 -1.537702,-3.138303 -3.203585,-3.138303 z m 0,0"
     id="path26"
     class="ColorScheme-Text"
     style="fill:url(#oomox);fill-opacity:1;stroke-width:0.476511" />
  <g
     fill-rule="evenodd"
     id="g40"
     class="ColorScheme-Text"
     transform="matrix(0.47600511,-0.00916272,0.0124846,0.48393051,-9.8018127,-5.5473243)">
    <path
       d="M 77.802446,92.785316 C 76.192446,92.000316 77.73,81.804 77.395,76.461 l 13.156,6.777 c -4.32,3.04 -11.214846,10.445169 -12.667846,9.668169"
       id="path30"
       style="fill:url(#oomox);fill-opacity:1" />
    <path
       d="m 110.348,15.094 c -1.79,-0.918 -3.703,-0.656 -4.29,0.586 l -17.28,36.695 -10.298,21.867 -1.054,2.246 -0.04,3.66 8.544,4.387 4.632,-1.305 1.055,-2.246 10.297,-21.867 17.281,-36.695 c 0.586,-1.242 -0.386,-2.985 -2.175,-3.902 z m 0,0"
       id="path32"
       style="display:inline;fill:url(#oomox);fill-opacity:1" />
    <path
       d="M 111.633,15.781 93.305,54.7 83.008,76.566 l -2.453,5.211 4.254,2.184 3.632,-1.82 2.121,1.09 1.055,-2.247 10.297,-21.867 17.281,-36.695 c 0.586,-1.242 -0.074,-2.73 -1.25,-3.332 z"
       id="path34"
       style="display:inline;fill:url(#oomox);fill-opacity:1" />
    <path
       d="m 86.941,78.582 -2.457,5.211 3.29,1.687 2.788,-2.25 1.055,-2.246 27.578,-58.562 c 0.758,-1.61 0.457,-2.55 -2.226,-3.93 l -1.364,-0.699"
       id="path36"
       style="display:inline;fill:url(#oomox);fill-opacity:1" />
    <path
       d="m 110.348,15.094 c -1.79,-0.918 -3.703,-0.656 -4.29,0.586 l 13.137,6.742 c 1.043,-1.95 -0.386,-2.985 -2.175,-3.902 z m 0,0"
       id="path38"
       style="fill:url(#oomox);fill-opacity:1" />
  </g>
  <metadata
     id="metadata1341">
    <rdf:RDF>
      <cc:License
         rdf:about="http://creativecommons.org/licenses/by-sa/4.0/">
        <cc:permits
           rdf:resource="http://creativecommons.org/ns#Reproduction" />
        <cc:permits
           rdf:resource="http://creativecommons.org/ns#Distribution" />
        <cc:requires
           rdf:resource="http://creativecommons.org/ns#Notice" />
        <cc:requires
           rdf:resource="http://creativecommons.org/ns#Attribution" />
        <cc:permits
           rdf:resource="http://creativecommons.org/ns#DerivativeWorks" />
        <cc:requires
           rdf:resource="http://creativecommons.org/ns#ShareAlike" />
      </cc:License>
      <cc:Work
         rdf:about="">
        <cc:license
           rdf:resource="http://creativecommons.org/licenses/by-sa/4.0/" />
        <dc:contributor>
          <cc:Agent>
            <dc:title>dreifacherspass</dc:title>
          </cc:Agent>
        </dc:contributor>
      </cc:Work>
    </rdf:RDF>
  </metadata>
</svg>
