<?xml version="1.0" encoding="UTF-8" standalone="no"?>
<svg
   height="16"
   width="16"
   version="1.1"
   id="svg42"
   xmlns="http://www.w3.org/2000/svg"
   xmlns:svg="http://www.w3.org/2000/svg"
   xmlns:rdf="http://www.w3.org/1999/02/22-rdf-syntax-ns#"
   xmlns:cc="http://creativecommons.org/ns#"
   xmlns:dc="http://purl.org/dc/elements/1.1/">
  <defs>
   <style id="current-color-scheme" type="text/css">
   .ColorScheme-Text { color: #0abdc6; } .ColorScheme-Highlight { color:#5294e2; }
  </style>
  <linearGradient id="arrongin" x1="0%" x2="0%" y1="0%" y2="100%">
   <stop offset="0%" style="stop-color:#dd9b44; stop-opacity:1"/>
   <stop offset="100%" style="stop-color:#ad6c16; stop-opacity:1"/>
  </linearGradient>
  <linearGradient id="aurora" x1="0%" x2="0%" y1="0%" y2="100%">
   <stop offset="0%" style="stop-color:#09D4DF; stop-opacity:1"/>
   <stop offset="100%" style="stop-color:#9269F4; stop-opacity:1"/>
  </linearGradient>
  <linearGradient id="cyberneon" x1="0%" x2="0%" y1="0%" y2="100%">
    <stop offset="0" style="stop-color:#0abdc6; stop-opacity:1"/>
    <stop offset="1" style="stop-color:#ea00d9; stop-opacity:1"/>
  </linearGradient>
  <linearGradient id="fitdance" x1="0%" x2="0%" y1="0%" y2="100%">
   <stop offset="0%" style="stop-color:#1AD6AB; stop-opacity:1"/>
   <stop offset="100%" style="stop-color:#329DB6; stop-opacity:1"/>
  </linearGradient>
  <linearGradient id="oomox" x1="0%" x2="0%" y1="0%" y2="100%">
   <stop offset="0%" style="stop-color:#0abdc6; stop-opacity:1"/>
   <stop offset="100%" style="stop-color:#b800ff; stop-opacity:1"/>
  </linearGradient>
  <linearGradient id="rainblue" x1="0%" x2="0%" y1="0%" y2="100%">
   <stop offset="0%" style="stop-color:#00F260; stop-opacity:1"/>
   <stop offset="100%" style="stop-color:#0575E6; stop-opacity:1"/>
  </linearGradient>
  <linearGradient id="sunrise" x1="0%" x2="0%" y1="0%" y2="100%">
   <stop offset="0%" style="stop-color: #FF8501; stop-opacity:1"/>
   <stop offset="100%" style="stop-color: #FFCB01; stop-opacity:1"/>
  </linearGradient>
  <linearGradient id="telinkrin" x1="0%" x2="0%" y1="0%" y2="100%">
   <stop offset="0%" style="stop-color: #b2ced6; stop-opacity:1"/>
   <stop offset="100%" style="stop-color: #6da5b7; stop-opacity:1"/>
  </linearGradient>
  <linearGradient id="60spsycho" x1="0%" x2="0%" y1="0%" y2="100%">
   <stop offset="0%" style="stop-color: #df5940; stop-opacity:1"/>
   <stop offset="25%" style="stop-color: #d8d15f; stop-opacity:1"/>
   <stop offset="50%" style="stop-color: #e9882a; stop-opacity:1"/>
   <stop offset="100%" style="stop-color: #279362; stop-opacity:1"/>
  </linearGradient>
  <linearGradient id="90ssummer" x1="0%" x2="0%" y1="0%" y2="100%">
   <stop offset="0%" style="stop-color: #f618c7; stop-opacity:1"/>
   <stop offset="20%" style="stop-color: #94ffab; stop-opacity:1"/>
   <stop offset="50%" style="stop-color: #fbfd54; stop-opacity:1"/>
   <stop offset="100%" style="stop-color: #0f83ae; stop-opacity:1"/>
  </linearGradient>
 </defs>
  <path
     id="path24"
     style="fill:url(#oomox);fill-opacity:1;stroke-width:0.166833"
     class="ColorScheme-Text"
     d="M 0.02929682,0.23117891 0.05664056,0.54347347 H 13.644531 l 0.128907,-0.31229456 z m 14.72070318,0 0.599609,0.31229456 H 15.875 V 0.23117891 Z M -6.3884876e-8,1.9981087 V 2.3104033 H 12.917969 L 13.044922,1.9981087 Z M 15.673828,1.9981087 15.544922,2.3104033 h 0.380859 V 1.9981087 Z M -6.3884876e-8,3.7075105 V 4.0218596 H 12.210938 L 12.341797,3.7075105 Z M 14.96875,3.7075105 14.839844,4.0218596 h 1.085937 V 3.7075105 Z M -6.3884876e-8,5.4189669 v 0.314349 H 11.505859 l 0.13086,-0.314349 z m 14.263672063884875,0 -0.128906,0.314349 h 1.791015 V 5.4189669 Z M -6.3884876e-8,7.1304232 V 7.4427177 H 10.800781 L 10.929688,7.1304232 Z M 13.558594,7.1304232 13.429688,7.4427177 h 2.496093 V 7.1304232 Z M -6.3884876e-8,8.8418795 V 9.1541741 H 10.095703 L 10.224609,8.8418795 Z M 12.853516,8.8418795 12.724609,9.1541741 h 3.201172 V 8.8418795 Z M 0.02734369,10.553335 -6.3884876e-8,10.86563 H 9.390625 l 0.1289062,-0.312295 z m 12.12109431,0 -0.128907,0.312295 h 3.90625 V 10.553335 Z M -6.3884876e-8,12.264792 v 0.312294 H 15.925781 v -0.312294 z m 0,1.709402 v 0.31435 H 15.925781 v -0.31435 z m 0,1.711457 V 16 H 15.890625 l 0.02734,-0.314349 z" />
  <path
     d="m 8.9057651,6.6005709 c -0.6342208,0 -0.918229,0.2527309 -1.7709055,1.6563544 L 5.9321341,10.258067 5.3634666,8.2107254 C 5.0132544,6.9227727 4.5322617,6.6005709 3.9642448,6.6005709 c -0.634058,0 -1.3997097,0.574933 -2.3839798,1.7478986 -0.1093091,0.0924 0.087675,0.2994442 0.1753501,0.1844576 0.5903017,-0.6442325 1.0929285,-0.9429925 1.464612,-0.9429925 0.3062932,0 0.7440177,0.160331 1.0934164,1.3794969 L 5.0570107,11.59222 3.5263578,13.984352 c -0.3493989,0.528733 -0.6778142,0.689919 -0.9618227,0.689919 -0.4372365,0 -0.4811553,-0.459946 -0.9842701,-0.459946 -0.3495614,0 -0.59046447,0.229972 -0.63422064,0.552174 -0.0870244,0.620962 0.52491154,1.149696 1.09357924,1.149696 0.6563427,0 0.9403512,-0.276173 1.7713931,-1.679112 l 1.3554658,-2.253875 0.7000987,2.483848 c 0.3279274,1.196408 0.7433672,1.449139 1.3115466,1.449139 0.6340579,0 1.3997099,-0.597692 2.3833294,-1.747899 0.1099596,-0.114986 -0.06539,-0.29876 -0.1746997,-0.207216 -0.5903016,0.644405 -1.0712943,0.943164 -1.4429778,0.943164 -0.3279274,0 -0.7218956,-0.0924 -1.0280261,-1.173137 L 6.0412805,10.625786 7.419031,8.5096561 C 7.7690804,8.00351 8.096845,7.8197368 8.3808536,7.8197368 c 0.4372364,0 0.4809927,0.4599462 0.9842698,0.4599462 0.3495615,0 0.590302,-0.2299731 0.6342208,-0.5521751 0.087024,-0.598204 -0.5249115,-1.126937 -1.0935791,-1.126937 z m 0,0"
     id="path26"
     class="ColorScheme-Text"
     style="fill:url(#oomox);fill-opacity:1;stroke-width:0.166833" />
  <path
     d="M 9.5208789,13.696254 C 9.2559252,13.565137 9.4623074,11.788212 9.3851028,10.860833 l 2.1665952,1.134388 c -0.688999,0.542491 -1.7777811,1.852011 -2.0171898,1.721768"
     id="path30"
     class="ColorScheme-Text"
     style="fill:url(#oomox);fill-opacity:1;stroke-width:0.168079" />
  <path
     id="path32"
     style="display:inline;fill:url(#oomox);fill-opacity:1;stroke-width:0.168079"
     class="ColorScheme-Text"
     d="m 14.152345,0.00106707 c -0.170625,-0.003187 -0.312837,0.0673025 -0.369142,0.20340235 l -2.65039,6.43285718 -1.5800788,3.8338264 -0.1621094,0.394478 0.00781,0.636916 0.5234373,0.271203 0.3749999,-0.912229 1.580078,-3.8338262 2.8125,-6.82322533 1.01172,0.53829729 c -0.03845,-0.029374 -0.0801,-0.056739 -0.125002,-0.080128 L 14.478515,0.08735903 c -0.110538,-0.0576135 -0.223797,-0.0843797 -0.32617,-0.08629196 z m -2.94922,11.80966593 -0.582031,0.32873 0.185547,0.09657 0.746093,-0.24244 z" />
  <path
     id="path34"
     style="display:inline;opacity:0.8;fill:url(#oomox);fill-opacity:1;stroke-width:0.168079"
     class="ColorScheme-Text"
     d="M 14.689453,0.20446947 11.876953,7.0276948 10.296875,10.861521 9.9218748,11.77375 10.568359,12.112754 10.945312,11.19847 15.339843,0.54963723 Z" />
  <path
     d="m 10.945268,11.198002 -0.377029,0.913627 0.54178,0.282333 0.443432,-0.400167 0.161855,-0.393771 4.231561,-10.2673596 c 0.116305,-0.282272 0.06339,-0.44463034 -0.378451,-0.67561224 L 15.343801,0.5400712"
     id="path36"
     class="ColorScheme-Text"
     style="display:inline;opacity:0.5;fill:url(#oomox);fill-opacity:1;stroke-width:0.168205;stroke-dasharray:none" />
  <path
     d="M 14.478091,0.0883489 C 14.183322,-0.06528714 13.873596,-0.01346379 13.783508,0.20429635 L 15.946867,1.3326644 C 16.108033,0.99037116 15.871424,0.81521566 15.576822,0.66175006 Z m 0,0"
     id="path38"
     class="ColorScheme-Text"
     style="fill:url(#oomox);fill-opacity:1;stroke-width:0.168079" />
  <metadata
     id="metadata1341">
    <rdf:RDF>
      <cc:Work
         rdf:about="">
        <cc:license
           rdf:resource="http://creativecommons.org/licenses/by-sa/4.0/" />
        <dc:contributor>
          <cc:Agent>
            <dc:title>dreifacherspass</dc:title>
          </cc:Agent>
        </dc:contributor>
      </cc:Work>
      <cc:License
         rdf:about="http://creativecommons.org/licenses/by-sa/4.0/">
        <cc:permits
           rdf:resource="http://creativecommons.org/ns#Reproduction" />
        <cc:permits
           rdf:resource="http://creativecommons.org/ns#Distribution" />
        <cc:requires
           rdf:resource="http://creativecommons.org/ns#Notice" />
        <cc:requires
           rdf:resource="http://creativecommons.org/ns#Attribution" />
        <cc:permits
           rdf:resource="http://creativecommons.org/ns#DerivativeWorks" />
        <cc:requires
           rdf:resource="http://creativecommons.org/ns#ShareAlike" />
      </cc:License>
    </rdf:RDF>
  </metadata>
</svg>
