<?xml version="1.0" encoding="UTF-8" standalone="no"?>

<svg
   style="isolation:isolate"
   viewBox="0 0 48 48"
   width="48pt"
   height="48pt"
   version="1.1"
   id="svg7"
   xmlns="http://www.w3.org/2000/svg"
   xmlns:svg="http://www.w3.org/2000/svg">
  <defs
     id="defs11" />
<linearGradient
       id="arrongin"
       x1="0%"
       x2="0%"
       y1="0%"
       y2="100%">
      <stop
         offset="0%"
         style="stop-color:#dd9b44; stop-opacity:1"
         id="stop9192" />
      <stop
         offset="100%"
         style="stop-color:#ad6c16; stop-opacity:1"
         id="stop9194" />
    </linearGradient>
    <linearGradient
       id="aurora"
       x1="0%"
       x2="0%"
       y1="0%"
       y2="100%">
      <stop
         offset="0%"
         style="stop-color:#09D4DF; stop-opacity:1"
         id="stop9197" />
      <stop
         offset="100%"
         style="stop-color:#9269F4; stop-opacity:1"
         id="stop9199" />
    </linearGradient>
    <linearGradient
       id="cyberneon"
       x1="0%"
       x2="0%"
       y1="0%"
       y2="100%">
      <stop
         offset="0"
         style="stop-color:#0abdc6; stop-opacity:1"
         id="stop9202" />
      <stop
         offset="1"
         style="stop-color:#ea00d9; stop-opacity:1"
         id="stop9204" />
    </linearGradient>
    <linearGradient
       id="fitdance"
       x1="0%"
       x2="0%"
       y1="0%"
       y2="100%">
      <stop
         offset="0%"
         style="stop-color:#1AD6AB; stop-opacity:1"
         id="stop9207" />
      <stop
         offset="100%"
         style="stop-color:#329DB6; stop-opacity:1"
         id="stop9209" />
    </linearGradient>
    <linearGradient
       id="oomox"
       x1="0%"
       x2="0%"
       y1="0%"
       y2="100%">
      <stop
         offset="0%"
         style="stop-color:#0abdc6; stop-opacity:1"
         id="stop9212" />
      <stop
         offset="100%"
         style="stop-color:#b800ff; stop-opacity:1"
         id="stop9214" />
    </linearGradient>
    <linearGradient
       id="rainblue"
       x1="0%"
       x2="0%"
       y1="0%"
       y2="100%">
      <stop
         offset="0%"
         style="stop-color:#00F260; stop-opacity:1"
         id="stop9217" />
      <stop
         offset="100%"
         style="stop-color:#0575E6; stop-opacity:1"
         id="stop9219" />
    </linearGradient>
    <linearGradient
       id="sunrise"
       x1="0%"
       x2="0%"
       y1="0%"
       y2="100%">
      <stop
         offset="0%"
         style="stop-color: #FF8501; stop-opacity:1"
         id="stop9222" />
      <stop
         offset="100%"
         style="stop-color: #FFCB01; stop-opacity:1"
         id="stop9224" />
    </linearGradient>
    <linearGradient
       id="telinkrin"
       x1="0%"
       x2="0%"
       y1="0%"
       y2="100%">
      <stop
         offset="0%"
         style="stop-color: #b2ced6; stop-opacity:1"
         id="stop9227" />
      <stop
         offset="100%"
         style="stop-color: #6da5b7; stop-opacity:1"
         id="stop9229" />
    </linearGradient>
    <linearGradient
       id="60spsycho"
       x1="0%"
       x2="0%"
       y1="0%"
       y2="100%">
      <stop
         offset="0%"
         style="stop-color: #df5940; stop-opacity:1"
         id="stop9232" />
      <stop
         offset="25%"
         style="stop-color: #d8d15f; stop-opacity:1"
         id="stop9234" />
      <stop
         offset="50%"
         style="stop-color: #e9882a; stop-opacity:1"
         id="stop9236" />
      <stop
         offset="100%"
         style="stop-color: #279362; stop-opacity:1"
         id="stop9238" />
    </linearGradient>
    <linearGradient
       id="90ssummer"
       x1="0%"
       x2="0%"
       y1="0%"
       y2="100%">
      <stop
         offset="0%"
         style="stop-color: #f618c7; stop-opacity:1"
         id="stop9241" />
      <stop
         offset="20%"
         style="stop-color: #94ffab; stop-opacity:1"
         id="stop9243" />
      <stop
         offset="50%"
         style="stop-color: #fbfd54; stop-opacity:1"
         id="stop9245" />
      <stop
         offset="100%"
         style="stop-color: #0f83ae; stop-opacity:1"
         id="stop9247" />
    </linearGradient>
  <path
     d=" M 14.376 5 L 19.376 5 L 19.376 18.38 L 17.583 16.587 C 17.193 16.197 16.559 16.197 16.169 16.587 L 14.376 18.38 L 14.376 5 L 14.376 5 L 14.376 5 Z  M 11.376 35 L 7.876 35 C 7.533 35 7.199 35.034 6.876 35.1 L 6.876 8 C 6.876 6.344 8.22 5 9.876 5 L 11.376 5 L 11.376 5 L 11.376 22.62 C 11.376 24.276 12.326 24.669 13.497 23.499 L 16.876 20.12 L 20.255 23.499 C 21.425 24.669 22.376 24.276 22.376 22.62 L 22.376 5 L 33.876 5 C 35.532 5 36.876 6.344 36.876 8 L 36.876 20 L 36.876 20 C 36.876 21.104 37.772 22 38.876 22 L 38.876 22 C 39.98 22 40.876 21.104 40.876 20 L 40.876 20 L 40.876 6 C 40.876 3.24 38.635 1 35.876 1 L 7.876 1 C 5.116 1 2.876 3.24 2.876 6 L 2.876 39 L 2.876 40 L 2.876 41 L 2.876 42 C 2.876 44.76 5.116 47 7.876 47 L 23.876 47 L 23.876 47 C 24.98 47 25.876 46.104 25.876 45 L 25.876 45 C 25.876 43.896 24.98 43 23.876 43 L 23.876 43 L 8.876 43 C 7.772 43 6.876 42.104 6.876 41 L 6.876 41 L 6.876 41 C 6.876 39.896 7.772 39 8.876 39 L 19.876 39 C 20.98 39 21.876 38.104 21.876 37 L 21.876 37 C 21.876 35.896 20.98 35 19.876 35 L 14.376 35 L 14.376 30 L 14.376 30 C 14.376 29.172 13.704 28.5 12.876 28.5 L 12.876 28.5 C 12.048 28.5 11.376 29.172 11.376 30 L 11.376 30 L 11.376 35 L 11.376 35 Z  M 38.144 42.247 C 37.322 41.438 36.526 40.59 35.769 39.703 C 35.143 38.959 34.595 38.15 34.113 37.302 C 33.617 36.428 33.239 35.489 33.004 34.511 L 33.004 34.511 C 32.824 33.812 33.245 33.102 33.943 32.926 L 33.943 32.926 C 34.641 32.749 35.355 33.173 35.535 33.872 L 35.535 33.872 C 35.717 34.628 36.004 35.346 36.383 36.024 C 36.787 36.728 37.244 37.407 37.765 38.033 C 38.796 39.233 39.905 40.368 41.092 41.425 C 41.105 41.425 41.105 41.438 41.118 41.438 L 41.275 41.581 C 41.562 41.855 41.718 42.234 41.692 42.625 C 41.666 43.03 41.47 43.382 41.144 43.617 C 39.722 44.608 38.039 45.169 36.304 45.208 C 35.469 45.195 34.647 45.078 33.852 44.817 C 32.952 44.53 32.091 44.125 31.295 43.617 C 30.329 42.912 29.442 42.116 28.62 41.242 C 27.89 40.446 27.238 39.585 26.69 38.659 C 25.672 36.898 25.124 34.902 25.124 32.867 C 25.137 31.158 25.476 29.462 26.116 27.857 C 26.846 26.044 27.812 24.322 28.973 22.744 C 29.299 22.287 29.821 22.013 30.369 22 C 30.916 22.013 31.425 22.274 31.738 22.704 C 32.795 24.048 34.06 25.209 35.482 26.149 C 36.878 27.049 38.326 27.844 39.827 28.549 C 40.635 28.927 41.379 29.397 42.07 29.945 C 42.749 30.493 43.323 31.145 43.792 31.876 C 44.262 32.658 44.614 33.519 44.81 34.419 C 45.032 35.463 45.136 36.52 45.123 37.576 C 45.123 38.242 45.084 38.907 45.032 39.559 L 45.032 39.559 C 44.974 40.279 44.346 40.814 43.629 40.753 L 43.629 40.753 C 42.913 40.692 42.378 40.063 42.436 39.351 L 42.436 39.351 C 42.488 38.751 42.514 38.15 42.514 37.55 C 42.527 36.689 42.436 35.828 42.253 34.98 C 42.123 34.367 41.888 33.78 41.562 33.245 C 41.262 32.763 40.883 32.332 40.44 31.98 C 39.918 31.562 39.331 31.21 38.718 30.91 C 37.113 30.154 35.548 29.292 34.06 28.327 C 32.717 27.453 31.503 26.396 30.434 25.209 C 29.69 26.344 29.051 27.57 28.542 28.836 C 28.02 30.127 27.746 31.497 27.733 32.88 C 27.733 34.446 28.164 35.985 28.947 37.342 C 29.39 38.098 29.925 38.816 30.525 39.455 C 31.216 40.186 31.973 40.864 32.782 41.464 C 33.356 41.829 33.982 42.129 34.634 42.338 C 35.169 42.495 35.717 42.586 36.278 42.586 C 36.917 42.573 37.544 42.456 38.144 42.247 Z "
     fill-rule="evenodd"
     fill="url(#oomox)"
     id="path5" />
</svg>
