<?xml version="1.0" encoding="UTF-8" standalone="no"?>
<svg
   width="16"
   height="16"
   viewBox="0 0 16 16"
   version="1.1"
   id="svg108"
   xmlns:xlink="http://www.w3.org/1999/xlink"
   xmlns="http://www.w3.org/2000/svg"
   xmlns:svg="http://www.w3.org/2000/svg"
   xmlns:rdf="http://www.w3.org/1999/02/22-rdf-syntax-ns#"
   xmlns:cc="http://creativecommons.org/ns#"
   xmlns:dc="http://purl.org/dc/elements/1.1/">
<defs>
   <style id="current-color-scheme" type="text/css">
   .ColorScheme-Text { color: #0abdc6; } .ColorScheme-Highlight { color:#5294e2; }
  </style>
  <linearGradient id="arrongin" x1="0%" x2="0%" y1="0%" y2="100%">
   <stop offset="0%" style="stop-color:#dd9b44; stop-opacity:1"/>
   <stop offset="100%" style="stop-color:#ad6c16; stop-opacity:1"/>
  </linearGradient>
  <linearGradient id="aurora" x1="0%" x2="0%" y1="0%" y2="100%">
   <stop offset="0%" style="stop-color:#09D4DF; stop-opacity:1"/>
   <stop offset="100%" style="stop-color:#9269F4; stop-opacity:1"/>
  </linearGradient>
  <linearGradient id="cyberneon" x1="0%" x2="0%" y1="0%" y2="100%">
    <stop offset="0" style="stop-color:#0abdc6; stop-opacity:1"/>
    <stop offset="1" style="stop-color:#ea00d9; stop-opacity:1"/>
  </linearGradient>
  <linearGradient id="fitdance" x1="0%" x2="0%" y1="0%" y2="100%">
   <stop offset="0%" style="stop-color:#1AD6AB; stop-opacity:1"/>
   <stop offset="100%" style="stop-color:#329DB6; stop-opacity:1"/>
  </linearGradient>
  <linearGradient id="oomox" x1="0%" x2="0%" y1="0%" y2="100%">
   <stop offset="0%" style="stop-color:#0abdc6; stop-opacity:1"/>
   <stop offset="100%" style="stop-color:#b800ff; stop-opacity:1"/>
  </linearGradient>
  <linearGradient id="rainblue" x1="0%" x2="0%" y1="0%" y2="100%">
   <stop offset="0%" style="stop-color:#00F260; stop-opacity:1"/>
   <stop offset="100%" style="stop-color:#0575E6; stop-opacity:1"/>
  </linearGradient>
  <linearGradient id="sunrise" x1="0%" x2="0%" y1="0%" y2="100%">
   <stop offset="0%" style="stop-color: #FF8501; stop-opacity:1"/>
   <stop offset="100%" style="stop-color: #FFCB01; stop-opacity:1"/>
  </linearGradient>
  <linearGradient id="telinkrin" x1="0%" x2="0%" y1="0%" y2="100%">
   <stop offset="0%" style="stop-color: #b2ced6; stop-opacity:1"/>
   <stop offset="100%" style="stop-color: #6da5b7; stop-opacity:1"/>
  </linearGradient>
  <linearGradient id="60spsycho" x1="0%" x2="0%" y1="0%" y2="100%">
   <stop offset="0%" style="stop-color: #df5940; stop-opacity:1"/>
   <stop offset="25%" style="stop-color: #d8d15f; stop-opacity:1"/>
   <stop offset="50%" style="stop-color: #e9882a; stop-opacity:1"/>
   <stop offset="100%" style="stop-color: #279362; stop-opacity:1"/>
  </linearGradient>
  <linearGradient id="90ssummer" x1="0%" x2="0%" y1="0%" y2="100%">
   <stop offset="0%" style="stop-color: #f618c7; stop-opacity:1"/>
   <stop offset="20%" style="stop-color: #94ffab; stop-opacity:1"/>
   <stop offset="50%" style="stop-color: #fbfd54; stop-opacity:1"/>
   <stop offset="100%" style="stop-color: #0f83ae; stop-opacity:1"/>
  </linearGradient>
 </defs>
  <path
     style="display:inline;opacity:0.8;fill:url(#oomox);fill-opacity:1;fill-rule:nonzero;stroke:none;stroke-width:0.382114"
     d="m 45.398374,34.74781 v 4.345686 c 0,1.694136 -1.362775,3.056911 -3.056911,3.056911 h -8.406504 c -3.700235,0 -6.887004,2.192676 -8.33635,5.349593 h -3.197218 c -1.449346,-3.156917 -4.636115,-5.349593 -8.33635,-5.349593 H 5.6585366 c -1.6941376,0 -3.0569106,-1.362775 -3.0569106,-3.056911 v -4.181439 z"
     id="path57"
     class="ColorScheme-Text"
     transform="matrix(0.34042553,0,0,0.34042553,-0.17021272,-0.17021272)" />
  <path
     id="path65"
     class="ColorScheme-Text"
     style="display:inline;fill:url(#oomox);fill-opacity:1;fill-rule:nonzero;stroke:none;stroke-width:0.382114"
     d="M 33.170732,8.5243902 C 28.106256,8.5243902 24,13.394874 24,18.45935 v 27.894309 c 0,-5.06448 4.106256,-9.170732 9.170732,-9.170732 h 9.170731 c 1.694136,0 3.056911,-1.362781 3.056911,-3.056911 V 11.581301 c 0,-1.6941301 -1.362775,-3.0569108 -3.056911,-3.0569108 z m 0.764227,4.2032518 h 4.585366 v 2.292683 h -4.585366 c -1.671746,0.07015 -3.234535,0.495555 -4.585366,1.253811 v -2.12103 c 1.349338,-0.892593 2.91362,-1.425464 4.585366,-1.425464 z m 0,4.585366 h 6.878049 v 1.528455 h -6.878049 c -1.671745,0.07015 -3.234537,0.495556 -4.585366,1.253811 v -1.356802 c 1.349337,-0.892593 2.913621,-1.425464 4.585366,-1.425464 z m 0,3.056911 h 6.878049 v 1.528455 h -6.878049 c -1.671743,0.07015 -3.234538,0.495556 -4.585366,1.253811 v -1.356803 c 1.349335,-0.892591 2.913623,-1.425463 4.585366,-1.425463 z m 0,3.05691 h 6.878049 v 1.528456 h -6.878049 c -1.671742,0.07015 -3.23454,0.495556 -4.585366,1.253811 v -1.356803 c 1.349334,-0.892591 2.913624,-1.425464 4.585366,-1.425464 z m 0,3.056911 h 3.821139 v 1.528455 h -3.821139 c -1.67174,0.07015 -3.234541,0.495558 -4.585366,1.253811 v -1.356802 c 1.349332,-0.892591 2.913626,-1.425464 4.585366,-1.425464 z"
     transform="matrix(0.34042553,0,0,0.34042553,-0.17021272,-0.17021272)" />
  <path
     id="path67"
     class="ColorScheme-Text"
     style="display:inline;fill:url(#oomox);fill-opacity:1;fill-rule:nonzero;stroke:none;stroke-width:0.382114"
     d="m 5.6585366,8.5243902 c -1.6941284,0 -3.0569106,1.3627822 -3.0569106,3.0569108 v 22.544715 c 0,1.694129 1.3627822,3.056911 3.0569106,3.056911 H 14.829268 C 19.893739,37.182927 24,41.289183 24,46.353659 V 18.45935 C 24,13.394879 19.893739,8.5243902 14.829268,8.5243902 Z m 1.5284553,5.7317078 h 7.6422761 c 1.365757,0 2.656887,0.359724 3.821138,0.977674 v 1.426956 C 17.486155,16.1398 16.195025,15.841273 14.829268,15.784553 H 7.1869919 Z m 0,3.05691 h 7.6422761 c 1.365756,0 2.656888,0.359725 3.821138,0.977674 v 1.426957 c -1.16425,-0.520928 -2.455382,-0.819455 -3.821138,-0.876176 H 7.1869919 Z m 0,3.056911 h 7.6422761 c 1.365754,0 2.656889,0.359725 3.821138,0.977674 v 1.426956 C 17.486157,22.253622 16.195022,21.955094 14.829268,21.898374 H 7.1869919 Z m 0,3.05691 h 7.6422761 c 1.365753,0 2.65689,0.359726 3.821138,0.977674 V 25.83146 C 17.486158,25.310533 16.195021,25.012005 14.829268,24.955285 H 7.1869919 Z m 0,3.056911 h 7.6422761 c 1.365751,0 2.656891,0.359726 3.821138,0.977674 V 28.88837 C 17.486159,28.367444 16.195019,28.068915 14.829268,28.012195 H 7.1869919 Z m 0,3.05691 h 6.1138211 v 1.528456 H 7.1869919 Z"
     transform="matrix(0.34042553,0,0,0.34042553,-0.17021272,-0.17021272)" />
  <path
     style="opacity:1;fill:#000000;fill-opacity:1;stroke:none;stroke-width:0;stroke-linejoin:round;stroke-dasharray:none;stroke-opacity:1;paint-order:markers fill stroke;stop-color:#000000"
     d="m 24.108959,17.38018 c -0.07716,-0.07065 -0.431463,25.777245 -0.277205,25.880901 -0.04401,0.23437 0.135145,2.589345 0.417232,7.65e-4"
     id="path4303"
     transform="matrix(0.34042553,0,0,0.34042553,-0.17021272,-0.17021272)" />
  <path
     style="display:inline;fill:url(#oomox);fill-opacity:1;fill-rule:nonzero;stroke:none;stroke-width:0.382114"
     class="ColorScheme-Text"
     d="m 13.084568,0.5 c 0,0 -3.1449761,7.8094512 -3.1360205,11.917175 0.00597,3.05691 0.4209225,6.506383 2.3732855,8.858771 1.500095,1.806085 6.354135,3.043477 6.354135,3.043477 l 1.476213,-0.395547 c 0,0 3.58381,-3.49873 3.98085,-5.81231 0.514958,-3.013624 -0.8508,-6.207857 -2.373285,-8.8587713 C 19.713347,5.6898818 13.084568,0.5 13.084568,0.5 Z m 0,0"
     id="path91"
     transform="matrix(0.34042553,0,0,0.34042553,-0.17021272,-0.17021272)" />
  <path
     style="display:inline;opacity:1;fill:#000003;fill-opacity:0.39527;fill-rule:nonzero;stroke:none;stroke-width:0.382114"
     d="m 16.010127,11.988789 c 1.382177,-2.3926887 1.877731,-2.8718239 2.367314,-3.6673967 -0.443311,0.8224404 -0.625412,1.4821836 -2.00759,3.8748727 z m 0,0"
     id="path95"
     transform="matrix(0.34042553,0,0,0.34042553,-0.17021272,-0.17021272)" />
  <path
     style="display:inline;opacity:1;fill:#000003;fill-opacity:0.39527;fill-rule:nonzero;stroke:none;stroke-width:0.382114"
     d="m 16.968396,15.702458 c 1.918033,-3.322599 2.606136,-3.988313 3.285284,-5.094353 -0.613472,1.143356 -0.86722,2.059832 -2.786744,5.382431 z m 0,0"
     id="path97"
     transform="matrix(0.34042553,0,0,0.34042553,-0.17021272,-0.17021272)" />
  <path
     style="display:inline;opacity:1;fill:#000003;fill-opacity:0.39527;fill-rule:nonzero;stroke:none;stroke-width:0.382114"
     d="m 18.023687,19.686293 c 2.02998,-3.515148 2.756892,-4.219671 3.476341,-5.388402 -0.650788,1.209032 -0.919462,2.177751 -2.947949,5.692899 z m 0,0"
     id="path99"
     transform="matrix(0.34042553,0,0,0.34042553,-0.17021272,-0.17021272)" />
  <path
     style="display:inline;opacity:1;fill:#000003;fill-opacity:0.39527;fill-rule:nonzero;stroke:none;stroke-width:0.382114"
     d="m 16.29522,11.912665 c -2.394183,-1.380685 -3.061389,-1.547859 -3.883829,-1.9926636 0.79408,0.4910756 1.282171,0.9717036 3.67486,2.3523886 z m 0,0"
     id="path101"
     transform="matrix(0.34042553,0,0,0.34042553,-0.17021272,-0.17021272)" />
  <path
     style="opacity:1;fill:#000003;fill-opacity:0.39527;fill-rule:nonzero;stroke:none;stroke-width:0.382114"
     d="m 17.322151,15.608422 c -3.3226,-1.919525 -4.251017,-2.152375 -5.392881,-2.768832 1.104548,0.682133 1.78071,1.349339 5.104802,3.267371 z m 0,0"
     id="path103"
     transform="matrix(0.34042553,0,0,0.34042553,-0.17021272,-0.17021272)" />
  <path
     style="opacity:1;fill:#000003;fill-opacity:0.39527;fill-rule:nonzero;stroke:none;stroke-width:0.382114"
     d="m 18.399831,19.584794 c -3.515149,-2.02998 -4.497301,-2.276264 -5.70484,-2.928544 1.167238,0.722434 1.885194,1.426956 5.400343,3.456936 z m 0,0"
     id="path105"
     transform="matrix(0.34042553,0,0,0.34042553,-0.17021272,-0.17021272)" />
  <path
     style="display:inline;opacity:1;fill:#000003;fill-opacity:0.39527;fill-rule:nonzero;stroke:none;stroke-width:0.382114"
     d="M 20.261143,30.236217 C 16.144464,14.874047 16.253426,13.159013 14.239865,4.7047446 16.735546,12.997809 17.620677,14.4785 21.737356,29.840669 Z m 0,0"
     id="path93"
     transform="matrix(0.34042553,0,0,0.34042553,-0.17021272,-0.17021272)" />
  <metadata
     id="metadata309">
    <rdf:RDF>
      <cc:Work
         rdf:about="">
        <cc:license
           rdf:resource="http://creativecommons.org/licenses/by-sa/4.0/" />
        <dc:creator>
          <cc:Agent>
            <dc:title>dreifacherspass</dc:title>
          </cc:Agent>
        </dc:creator>
      </cc:Work>
      <cc:License
         rdf:about="http://creativecommons.org/licenses/by-sa/4.0/">
        <cc:permits
           rdf:resource="http://creativecommons.org/ns#Reproduction" />
        <cc:permits
           rdf:resource="http://creativecommons.org/ns#Distribution" />
        <cc:requires
           rdf:resource="http://creativecommons.org/ns#Notice" />
        <cc:requires
           rdf:resource="http://creativecommons.org/ns#Attribution" />
        <cc:permits
           rdf:resource="http://creativecommons.org/ns#DerivativeWorks" />
        <cc:requires
           rdf:resource="http://creativecommons.org/ns#ShareAlike" />
      </cc:License>
    </rdf:RDF>
  </metadata>
</svg>
