<?xml version="1.0" encoding="UTF-8" standalone="no"?>
<svg
   version="1.0"
   width="16"
   height="16"
   viewBox="0 0 12 12"
   preserveAspectRatio="xMidYMid"
   id="svg2"
   xmlns="http://www.w3.org/2000/svg"
   xmlns:svg="http://www.w3.org/2000/svg"
   xmlns:rdf="http://www.w3.org/1999/02/22-rdf-syntax-ns#"
   xmlns:cc="http://creativecommons.org/ns#"
   xmlns:dc="http://purl.org/dc/elements/1.1/">
   <defs>
      <style id="current-color-scheme" type="text/css">
         .ColorScheme-Text { color: #0abdc6; } .ColorScheme-Highlight { color:#5294e2; }
      </style>
      <linearGradient id="arrongin" x1="0%" x2="0%" y1="0%" y2="100%">
         <stop offset="0%" style="stop-color:#dd9b44; stop-opacity:1"/>
         <stop offset="100%" style="stop-color:#ad6c16; stop-opacity:1"/>
      </linearGradient>
      <linearGradient id="aurora" x1="0%" x2="0%" y1="0%" y2="100%">
         <stop offset="0%" style="stop-color:#09D4DF; stop-opacity:1"/>
         <stop offset="100%" style="stop-color:#9269F4; stop-opacity:1"/>
      </linearGradient>
      <linearGradient id="cyberneon" x1="0%" x2="0%" y1="0%" y2="100%">
         <stop offset="0" style="stop-color:#0abdc6; stop-opacity:1"/>
         <stop offset="1" style="stop-color:#ea00d9; stop-opacity:1"/>
      </linearGradient>
      <linearGradient id="fitdance" x1="0%" x2="0%" y1="0%" y2="100%">
         <stop offset="0%" style="stop-color:#1AD6AB; stop-opacity:1"/>
         <stop offset="100%" style="stop-color:#329DB6; stop-opacity:1"/>
      </linearGradient>
      <linearGradient id="oomox" x1="0%" x2="0%" y1="0%" y2="100%">
         <stop offset="0%" style="stop-color:#0abdc6; stop-opacity:1"/>
         <stop offset="100%" style="stop-color:#b800ff; stop-opacity:1"/>
      </linearGradient>
      <linearGradient id="rainblue" x1="0%" x2="0%" y1="0%" y2="100%">
         <stop offset="0%" style="stop-color:#00F260; stop-opacity:1"/>
         <stop offset="100%" style="stop-color:#0575E6; stop-opacity:1"/>
      </linearGradient>
      <linearGradient id="sunrise" x1="0%" x2="0%" y1="0%" y2="100%">
         <stop offset="0%" style="stop-color: #FF8501; stop-opacity:1"/>
         <stop offset="100%" style="stop-color: #FFCB01; stop-opacity:1"/>
      </linearGradient>
      <linearGradient id="telinkrin" x1="0%" x2="0%" y1="0%" y2="100%">
         <stop offset="0%" style="stop-color: #b2ced6; stop-opacity:1"/>
         <stop offset="100%" style="stop-color: #6da5b7; stop-opacity:1"/>
      </linearGradient>
      <linearGradient id="60spsycho" x1="0%" x2="0%" y1="0%" y2="100%">
         <stop offset="0%" style="stop-color: #df5940; stop-opacity:1"/>
         <stop offset="25%" style="stop-color: #d8d15f; stop-opacity:1"/>
         <stop offset="50%" style="stop-color: #e9882a; stop-opacity:1"/>
         <stop offset="100%" style="stop-color: #279362; stop-opacity:1"/>
      </linearGradient>
      <linearGradient id="90ssummer" x1="0%" x2="0%" y1="0%" y2="100%">
         <stop offset="0%" style="stop-color: #f618c7; stop-opacity:1"/>
         <stop offset="20%" style="stop-color: #94ffab; stop-opacity:1"/>
         <stop offset="50%" style="stop-color: #fbfd54; stop-opacity:1"/>
         <stop offset="100%" style="stop-color: #0f83ae; stop-opacity:1"/>
      </linearGradient>
      <linearGradient
         id="linearGradient2284"
         gradientTransform="matrix(1.6440072,0,0,0.60826983,-38.207552,-69.729474)"
         x1="0"
         y1="132.57439"
         x2="77.858536"
         y2="132.57439"
         gradientUnits="userSpaceOnUse">
         <stop
            style="stop-color:#41ff00;stop-opacity:1;"
            offset="0"
            id="stop2280" />
         <stop
            style="stop-color:#e7ff00;stop-opacity:1;"
            offset="1"
            id="stop2282" />
         </linearGradient>
      </defs>
  <metadata
     id="metadata1">
    <rdf:RDF>
      <cc:Work
         rdf:about="">
        <dc:creator>
          <cc:Agent>
            <dc:title>dreifacherspass</dc:title>
          </cc:Agent>
        </dc:creator>
        <cc:license
           rdf:resource="http://creativecommons.org/licenses/by-sa/4.0/" />
      </cc:Work>
      <cc:License
         rdf:about="http://creativecommons.org/licenses/by-sa/4.0/">
        <cc:permits
           rdf:resource="http://creativecommons.org/ns#Reproduction" />
        <cc:permits
           rdf:resource="http://creativecommons.org/ns#Distribution" />
        <cc:requires
           rdf:resource="http://creativecommons.org/ns#Notice" />
        <cc:requires
           rdf:resource="http://creativecommons.org/ns#Attribution" />
        <cc:permits
           rdf:resource="http://creativecommons.org/ns#DerivativeWorks" />
        <cc:requires
           rdf:resource="http://creativecommons.org/ns#ShareAlike" />
      </cc:License>
    </rdf:RDF>
  </metadata>
  <path
     d="m 9.9843325,1.1594739 c -0.1849241,0.015261 -0.4156301,0.048475 -0.4281978,0.061043 -0.00269,0.00179 0.018851,0.1059274 0.04668,0.2298085 0.027829,0.1247788 0.049374,0.2271154 0.047577,0.2280131 -0.0018,8.975e-4 -0.02693,0.01167 -0.056554,0.024237 -0.061043,0.025135 -0.064634,0.032316 -0.066428,0.1391418 -8.947e-4,0.051168 0.00359,0.071816 0.021545,0.1068251 0.018852,0.038601 0.023341,0.065531 0.03501,0.228013 0.00808,0.1014389 0.017954,0.2657161 0.023341,0.3644619 -0.011588,0.5273251 0.039054,0.7959829 0.033215,1.3662831 C 9.6306429,4.8570561 9.5704978,5.2394718 9.3397915,5.8130953 9.2625904,6.0043031 9.1925705,6.1524218 8.9591713,6.6120387 8.6575477,7.2090021 8.5677787,7.4011076 8.4717261,7.6632329 8.2582099,8.4600859 8.2499968,9.3948224 8.2499968,10.276406 l 0.00539,0.09156 c 0.00269,0.04937 0.01167,0.203775 0.018851,0.342018 0.00808,0.138245 0.017954,0.311499 0.023339,0.386006 0.00539,0.07361 0.014363,0.201083 0.019749,0.282772 l 0.010773,0.147222 c 2.8001162,0 3.0129062,8.95e-4 3.5772922,8.95e-4 8.95e-4,0 0.0063,-0.08797 0.01347,-0.1939 0.133832,-1.097344 0.08776,-2.1749687 -0.03411,-3.2720698 C 11.862299,7.9567772 11.797665,7.7476157 11.743804,7.6039853 11.645058,7.3409624 11.543619,7.1174378 11.294959,6.6210156 10.83624,5.7026794 10.718643,5.3507853 10.6576,4.7044489 10.63426,4.4548913 10.62887,4.3337033 10.62438,3.9117893 10.623477,3.8280873 10.64254,2.7196929 10.68093,2.1657836 10.6935,1.985348 10.69619,1.9673943 10.71684,1.9377706 10.73928,1.9036586 10.74287,1.8623646 10.7312,1.769005 L 10.7249,1.725019 10.67194,1.708861 c -0.02962,-0.00897 -0.05476,-0.017954 -0.05656,-0.019749 -0.0018,-0.0018 0.0045,-0.033215 0.01436,-0.069122 0.02334,-0.089769 0.08438,-0.3940855 0.079,-0.3994717 -0.0063,-0.00628 -0.122088,-0.029624 -0.227117,-0.043987 -0.09336,-0.013466 -0.412041,-0.024238 -0.4973215,-0.017057 z m 0.6508255,0.083485 c -0.02962,0.026931 -0.591578,0.037703 -0.857294,0.017056 -0.1472211,-0.01167 -0.1454257,-0.01167 0.345611,-0.016158 0.272,-0.00269 0.500013,-0.00538 0.507194,-0.00718 0.0072,-8.975e-4 0.009,8.975e-4 0.0045,0.00628 z"
     id="path1-7"
     style="stroke-width:0.000897689;fill:url(#oomox)" />
  <path
     d="M 1.2459533,0.4812763 C 1.1284279,0.4954147 1.0497831,0.5307607 1.0259246,0.5820124 c -0.00884,0.01944 -0.014139,0.053019 -0.014139,0.096318 0,0.060088 -0.00353,0.074227 -0.0371128,0.1440348 l -0.0379964,0.078645 -0.005294,0.2209124 -0.00618,0.2209123 0.0300435,0.02651 0.0300435,0.026509 v 0.1192929 c 0,0.06539 -0.004418,0.1988212 -0.008837,0.2960226 C 0.9720244,1.9083714 0.9623082,2.1107263 0.9552389,2.2618304 0.9481729,2.4120509 0.9375657,2.6426834 0.9322637,2.7743471 0.9216532,3.0429765 0.9119329,3.1322251 0.8871914,3.1993825 0.85096188,3.2948164 0.75110994,3.4273638 0.54787049,3.6491597 0.38351168,3.827657 0.30309959,3.9292767 0.21826921,4.067126 0.10339477,4.2526924 0.07600161,4.3180825 0.04065569,4.4886269 -0.00175997,4.6998191 7.3503847e-6,4.516904 7.3503847e-6,8.0939169 c 0,3.2067641 8.838480553e-4,3.3896681 0.015905869615,3.4329671 0.10807887,0 2.40092418,0 2.96729508,0 0.016789,-0.04418 0.016789,-0.09632 0.016789,-3.3817257 0,-2.2091239 -0.00353,-3.3720067 -0.00884,-3.4435822 C 2.9717208,4.4797904 2.9169346,4.3021768 2.8091293,4.1104249 2.7251826,3.9628553 2.6553743,3.8753742 2.4044178,3.6040937 2.2285716,3.414109 2.1357884,3.2744924 2.0898387,3.1278066 2.0721656,3.0721367 2.0695147,3.0350235 2.0615619,2.7787651 2.0518417,2.43856 2.050958,2.38289 2.0544927,2.2839213 c 8.835e-4,-0.041531 -0.00177,-0.1228272 -0.00795,-0.1811482 -0.012371,-0.13078 -0.037114,-0.6892465 -0.030928,-0.7060359 0.00265,-0.00618 0.014138,-0.015906 0.02651,-0.022092 0.011487,-0.00529 0.024742,-0.018557 0.028277,-0.02916 0.00442,-0.011487 0.00442,-0.1157581 0.00177,-0.2323998 l -0.00619,-0.2120756 -0.033579,-0.07511 C 2.0085429,0.771997 1.9970555,0.7313491 1.9917536,0.6836321 1.9811498,0.5722922 1.9546403,0.5404808 1.846835,0.50690214 1.7522846,0.4777417 1.4005921,0.46271966 1.2459533,0.4812763 Z"
     id="path1"
     style="stroke-width:0.000883648;fill:url(#oomox)" />
  <path
     d="m 5.3180936,1.6188695 c -0.105096,0.00759 -0.255832,0.025577 -0.289024,0.034536 -0.01525,0.00434 -0.03454,0.015245 -0.04422,0.024204 -0.01662,0.017268 -0.01727,0.019363 -0.01452,0.1085563 0.0029,0.1050955 0.0076,0.1175442 0.0643,0.1776999 0.01936,0.020736 0.03945,0.049781 0.04429,0.064303 0.0072,0.020736 0.0076,0.2731212 0.0051,1.1927394 -0.0043,1.1699226 -0.0076,2.5848455 -0.02832,2.7058505 -0.05397,0.3139134 -0.21781,0.6464967 -0.538638,1.0952442 -0.038,0.053249 -0.15765,0.2164262 -0.266893,0.363008 C 3.852551,7.9201915 3.7280852,8.1089531 3.5967122,8.3772334 3.5165069,8.5404111 3.4722535,8.6593425 3.4321473,8.819753 3.2959335,9.357701 3.2641289,9.861764 3.3408805,10.244127 c 0.067048,0.333277 0.1977495,0.593263 0.4121022,0.815903 0.040099,0.04147 0.081585,0.09127 0.092647,0.11063 0.071889,0.125846 0.2821089,0.257219 0.5531569,0.344338 l 2.3101133,0.01178 c -0.0043,0 0.03663,-0.01727 0.08989,-0.03735 0.18116,-0.06843 0.257218,-0.111323 0.430771,-0.242703 0.223333,-0.168712 0.371302,-0.343645 0.481238,-0.566978 0.208816,-0.426625 0.242008,-0.97148 0.100259,-1.6615365 C 7.7536919,8.739555 7.6976609,8.5715366 7.5925589,8.3599511 7.4639529,8.1027395 7.3222049,7.8877005 6.9681919,7.4126755 6.6860829,7.0337652 6.5872009,6.8947842 6.4800319,6.7246922 6.2705199,6.3927953 6.1515959,6.0961711 6.1280859,5.8430994 c -0.01864,-0.1942959 -0.02283,-2.2190703 -0.01178,-3.3398988 0.0036,-0.3775303 0.0065,-0.4701843 0.0138,-0.484013 0.0058,-0.00968 0.02485,-0.033885 0.04357,-0.053249 0.05253,-0.055994 0.06221,-0.084352 0.06293,-0.1853079 0.0015,-0.080899 6.93e-4,-0.08574 -0.01525,-0.1030219 -0.03735,-0.039376 -0.290411,-0.067048 -0.6112383,-0.065676 -0.118924,6.936e-4 -0.249611,0.00361 -0.291791,0.00723 z"
     id="path1-6"
     style="stroke-width:0.000691443;fill:url(#oomox)" />
  <g
     id="g1840"
     transform="matrix(0.09374926,0,0,0.09434461,3.5819302,6.5024711)">
    <path
       d="m 89.792448,10.911526 v 47.359 h -128 v -47.359 z"
       id="path359"
       style="fill:url(#linearGradient2284);fill-opacity:1" />
    <path
       d="m -24.898552,10.911526 47.355,47.359 h 21.215 l -47.3590004,-47.359 z m 42.422,0 47.363,47.359 h 21.215 l -47.363,-47.359 z m 42.43,0 29.84,29.84 v -21.211 l -8.6289,-8.6289 z m -98.16,7.9062 v 21.215 l 18.238,18.238 H 1.2464476 Z"
       id="path361"
       style="fill:#000000;fill-opacity:1" />
  </g>
</svg>
