<?xml version="1.0" encoding="UTF-8" standalone="no"?>
<svg
   width="16"
   height="16"
   version="1.1"
   viewBox="0 0 16 16"
   id="svg134"
   xmlns:xlink="http://www.w3.org/1999/xlink"
   xmlns="http://www.w3.org/2000/svg"
   xmlns:svg="http://www.w3.org/2000/svg"
   xmlns:rdf="http://www.w3.org/1999/02/22-rdf-syntax-ns#"
   xmlns:cc="http://creativecommons.org/ns#"
   xmlns:dc="http://purl.org/dc/elements/1.1/">
  <metadata
     id="metadata2">
    <rdf:RDF>
      <cc:Work
         rdf:about="">
        <dc:format>image/svg+xml</dc:format>
        <dc:type
           rdf:resource="http://purl.org/dc/dcmitype/StillImage" />
        <dc:contributor>
          <cc:Agent>
            <dc:title>dreifacherspass</dc:title>
          </cc:Agent>
        </dc:contributor>
        <cc:license
           rdf:resource="http://creativecommons.org/licenses/by-sa/4.0/" />
      </cc:Work>
      <cc:License
         rdf:about="http://creativecommons.org/licenses/by-sa/4.0/">
        <cc:permits
           rdf:resource="http://creativecommons.org/ns#Reproduction" />
        <cc:permits
           rdf:resource="http://creativecommons.org/ns#Distribution" />
        <cc:requires
           rdf:resource="http://creativecommons.org/ns#Notice" />
        <cc:requires
           rdf:resource="http://creativecommons.org/ns#Attribution" />
        <cc:permits
           rdf:resource="http://creativecommons.org/ns#DerivativeWorks" />
        <cc:requires
           rdf:resource="http://creativecommons.org/ns#ShareAlike" />
      </cc:License>
    </rdf:RDF>
  </metadata>
   <defs>
   <style id="current-color-scheme" type="text/css">
   .ColorScheme-Text { color: #0abdc6; } .ColorScheme-Highlight { color:#5294e2; }
  </style>
  <linearGradient id="arrongin" x1="0%" x2="0%" y1="0%" y2="100%">
   <stop offset="0%" style="stop-color:#dd9b44; stop-opacity:1"/>
   <stop offset="100%" style="stop-color:#ad6c16; stop-opacity:1"/>
  </linearGradient>
  <linearGradient id="aurora" x1="0%" x2="0%" y1="0%" y2="100%">
   <stop offset="0%" style="stop-color:#09D4DF; stop-opacity:1"/>
   <stop offset="100%" style="stop-color:#9269F4; stop-opacity:1"/>
  </linearGradient>
  <linearGradient id="cyberneon" x1="0%" x2="0%" y1="0%" y2="100%">
    <stop offset="0" style="stop-color:#0abdc6; stop-opacity:1"/>
    <stop offset="1" style="stop-color:#ea00d9; stop-opacity:1"/>
  </linearGradient>
  <linearGradient id="fitdance" x1="0%" x2="0%" y1="0%" y2="100%">
   <stop offset="0%" style="stop-color:#1AD6AB; stop-opacity:1"/>
   <stop offset="100%" style="stop-color:#329DB6; stop-opacity:1"/>
  </linearGradient>
  <linearGradient id="oomox" x1="0%" x2="0%" y1="0%" y2="100%">
   <stop offset="0%" style="stop-color:#0abdc6; stop-opacity:1"/>
   <stop offset="100%" style="stop-color:#b800ff; stop-opacity:1"/>
  </linearGradient>
  <linearGradient id="rainblue" x1="0%" x2="0%" y1="0%" y2="100%">
   <stop offset="0%" style="stop-color:#00F260; stop-opacity:1"/>
   <stop offset="100%" style="stop-color:#0575E6; stop-opacity:1"/>
  </linearGradient>
  <linearGradient id="sunrise" x1="0%" x2="0%" y1="0%" y2="100%">
   <stop offset="0%" style="stop-color: #FF8501; stop-opacity:1"/>
   <stop offset="100%" style="stop-color: #FFCB01; stop-opacity:1"/>
  </linearGradient>
  <linearGradient id="telinkrin" x1="0%" x2="0%" y1="0%" y2="100%">
   <stop offset="0%" style="stop-color: #b2ced6; stop-opacity:1"/>
   <stop offset="100%" style="stop-color: #6da5b7; stop-opacity:1"/>
  </linearGradient>
  <linearGradient id="60spsycho" x1="0%" x2="0%" y1="0%" y2="100%">
   <stop offset="0%" style="stop-color: #df5940; stop-opacity:1"/>
   <stop offset="25%" style="stop-color: #d8d15f; stop-opacity:1"/>
   <stop offset="50%" style="stop-color: #e9882a; stop-opacity:1"/>
   <stop offset="100%" style="stop-color: #279362; stop-opacity:1"/>
  </linearGradient>
  <linearGradient id="90ssummer" x1="0%" x2="0%" y1="0%" y2="100%">
   <stop offset="0%" style="stop-color: #f618c7; stop-opacity:1"/>
   <stop offset="20%" style="stop-color: #94ffab; stop-opacity:1"/>
   <stop offset="50%" style="stop-color: #fbfd54; stop-opacity:1"/>
   <stop offset="100%" style="stop-color: #0f83ae; stop-opacity:1"/>
  </linearGradient>
    <linearGradient
       id="linearGradient1360"
       x1="0"
       x2="0"
       y1="0"
       y2="1">
      <stop
         style="stop-color:#ffffff;stop-opacity:0.30000000"
         offset="0"
         id="stop1356" />
      <stop
         style="stop-color:#ffffff;stop-opacity:0;"
         offset="1"
         id="stop1358" />
    </linearGradient>
  </defs>
  <path
     id="rect1288"
     class="ColorScheme-Text"
     style="fill:url(#oomox);fill-opacity:1;stroke-width:8.90675;paint-order:stroke fill markers"
     d="m -140.95997,18.013905 c -6.648,0 -12,5.352 -12,12 v 36 30 13.999995 h 6 V 96.013905 h 6 V 110.0139 h 6 V 96.936975 h 6 v -30.92307 -36 c 0,-6.648 -5.352,-12 -12,-12 z"
     transform="matrix(0.16666667,0,0,0.16000002,25.493329,-2.8822253)" />
  <path
     d="m -93.883049,18.013905 v 0.0469 c 0.305816,-0.02318 0.611132,-0.0469 0.923077,-0.0469 z m 0.923077,0 c 6.648,0 12,5.352 12,12 0,28 0,-16 0,12 h 24 c 0,-28 0,16 0,-12 0,-6.648 -5.352,-12 -12,-12 -0.311945,0 -0.617262,0.0237 -0.923077,0.0469 v -0.0469 z"
     style="fill:url(#oomox);fill-opacity:1;stroke-width:11.0475;paint-order:stroke fill markers"
     id="path1348"
     class="ColorScheme-Text"
     transform="matrix(0.16666667,0,0,0.16000002,25.493329,-2.8822253)" />
  <rect
     y="42.013905"
     x="-80.959976"
     height="24"
     width="24"
     id="rect1350"
     class="ColorScheme-Text"
     style="opacity:0.5;fill:url(#oomox);fill-opacity:1;stroke-width:14.3428;paint-order:stroke fill markers"
     transform="matrix(0.16666667,0,0,0.16000002,25.493329,-2.8822253)" />
  <rect
     y="66.013901"
     x="-80.959976"
     height="24"
     width="24"
     id="rect1352"
     class="ColorScheme-Text"
     style="fill:url(#oomox);fill-opacity:1;stroke-width:14.3428;paint-order:stroke fill markers"
     transform="matrix(0.16666667,0,0,0.16000002,25.493329,-2.8822253)" />
  <path
     d="m -117.88305,18.013905 v 0.0469 c 0.30582,-0.02318 0.61113,-0.0469 0.92308,-0.0469 z m 0.92308,0 c 6.648,0 12,5.352 12,12 0,28 0,-16 0,12 h 23.999998 c 0,-28 0,16 0,-12 0,-6.648 -5.352,-12 -12,-12 -0.311945,0 -0.617261,0.0237 -0.923077,0.0469 v -0.0469 z"
     style="opacity:0.5;fill:url(#oomox);fill-opacity:1;stroke-width:11.0475;paint-order:stroke fill markers"
     id="path1318"
     class="ColorScheme-Text"
     transform="matrix(0.16666667,0,0,0.16000002,25.493329,-2.8822253)" />
  <rect
     y="42.013905"
     x="-104.95998"
     height="24"
     width="24"
     id="rect1322"
     class="ColorScheme-Text"
     style="fill:url(#oomox);fill-opacity:1;stroke-width:14.3428;paint-order:stroke fill markers"
     transform="matrix(0.16666667,0,0,0.16000002,25.493329,-2.8822253)" />
  <path
     id="path1320"
     class="ColorScheme-Text"
     style="fill:url(#oomox);fill-opacity:1;stroke-width:11.0475;paint-order:stroke fill markers"
     d="m -141.88305,18.013905 v 0.0469 c 0.30582,-0.02318 0.61114,-0.0469 0.92308,-0.0469 z m 0.92308,0 c 6.648,0 12,5.352 12,12 0,28 0,-16 0,12 h 24 c 0,-28 0,16 0,-12 0,-6.648 -5.352,-12 -12,-12 -0.31195,0 -0.61726,0.0237 -0.92308,0.0469 v -0.0469 z"
     transform="matrix(0.16666667,0,0,0.16000002,25.493329,-2.8822253)" />
  <rect
     style="opacity:0.5;fill:url(#oomox);fill-opacity:1;stroke-width:14.3428;paint-order:stroke fill markers"
     id="rect1325"
     class="ColorScheme-Text"
     width="24"
     height="24"
     x="-128.95998"
     y="42.013905"
     transform="matrix(0.16666667,0,0,0.16000002,25.493329,-2.8822253)" />
  <rect
     y="66.013901"
     x="-128.95998"
     height="24"
     width="24"
     id="rect1329"
     class="ColorScheme-Text"
     style="fill:url(#oomox);fill-opacity:1;stroke-width:14.3428;paint-order:stroke fill markers"
     transform="matrix(0.16666667,0,0,0.16000002,25.493329,-2.8822253)" />
  <rect
     y="66.013901"
     x="-104.95998"
     height="24"
     width="24"
     id="rect1331"
     class="ColorScheme-Text"
     style="opacity:0.5;fill:url(#oomox);fill-opacity:1;stroke-width:14.3428;paint-order:stroke fill markers"
     transform="matrix(0.16666667,0,0,0.16000002,25.493329,-2.8822253)" />
  <rect
     style="opacity:1;fill:url(#oomox);fill-opacity:1;stroke-width:21.0494;paint-order:stroke fill markers"
     id="rect1354"
     class="ColorScheme-Text"
     width="24"
     height="1.8461539"
     x="-80.959976"
     y="102.93697"
     transform="matrix(0.16666667,0,0,0.16000002,25.493329,-2.8822253)" />
  <path
     id="path1348-5"
     style="fill:url(#linearGradient1360);fill-opacity:1;stroke-width:1.80407;paint-order:stroke fill markers"
     d="M 1.8457031 0 L 1.8457031 0.0078125 C 1.8966731 0.0041025037 1.9480101 0 2 0 L 1.8457031 0 z M 2 0 C 3.1079989 0 4 0.85624274 4 1.9199219 L 4 3.8398438 L 8 3.8398438 L 12 3.8398438 L 16 3.8398438 L 16 1.9199219 C 16 0.85624303 15.108027 0 14 0 C 13.948009 0 13.896673 0.0041025037 13.845703 0.0078125 L 13.845703 0 L 10 0 L 9.8457031 0 L 6 0 L 5.8457031 0 L 2 0 z " />
  <path
     d="m -80.959972,90.013905 v 12.923825 13.07617 h 6 v -13.07617 h 6 v 13.07617 h 6 v -13.07617 h 6 V 90.013905 Z"
     style="opacity:0.5;fill:url(#oomox);fill-opacity:1;stroke-width:10.5246;paint-order:stroke fill markers"
     id="path1356"
     class="ColorScheme-Text"
     transform="matrix(0.16666667,0,0,0.16000002,25.493329,-2.8822253)" />
  <rect
     style="opacity:1;fill:url(#oomox);fill-opacity:1;stroke-width:21.0494;paint-order:stroke fill markers"
     id="rect1388"
     class="ColorScheme-Text"
     width="24"
     height="1.8461539"
     x="-104.95998"
     y="102.93697"
     transform="matrix(0.16666667,0,0,0.16000002,25.493329,-2.8822253)" />
  <path
     id="rect1335"
     class="ColorScheme-Text"
     style="fill:url(#oomox);fill-opacity:1;stroke-width:10.5246;paint-order:stroke fill markers"
     d="m -104.95997,90.013905 v 12.923825 13.07617 h 5.999998 v -13.07617 h 6 v 13.07617 h 6 v -13.07617 h 6 V 90.013905 Z"
     transform="matrix(0.16666667,0,0,0.16000002,25.493329,-2.8822253)" />
  <rect
     style="opacity:1;fill:url(#oomox);fill-opacity:1;stroke-width:9.99995;paint-order:stroke fill markers"
     id="rect1360"
     class="ColorScheme-Text"
     width="6"
     height="1.999993"
     x="-68.959976"
     y="116.0139"
     transform="matrix(0.16666667,0,0,0.16000002,25.493329,-2.8822253)" />
  <rect
     y="116.0139"
     x="-80.959976"
     height="1.999993"
     width="6"
     id="rect1358"
     class="ColorScheme-Text"
     style="opacity:1;fill:url(#oomox);fill-opacity:1;stroke-width:9.99995;paint-order:stroke fill markers"
     transform="matrix(0.16666667,0,0,0.16000002,25.493329,-2.8822253)" />
  <rect
     style="opacity:1;fill:url(#oomox);fill-opacity:1;stroke-width:21.0494;paint-order:stroke fill markers"
     id="rect1384"
     class="ColorScheme-Text"
     width="24"
     height="1.8461539"
     x="-128.95998"
     y="102.93697"
     transform="matrix(0.16666667,0,0,0.16000002,25.493329,-2.8822253)" />
  <rect
     style="opacity:1;fill:url(#oomox);fill-opacity:1;stroke-width:9.99995;paint-order:stroke fill markers"
     id="rect1372"
     class="ColorScheme-Text"
     width="6"
     height="1.999993"
     x="-128.95998"
     y="116.0139"
     transform="matrix(0.16666667,0,0,0.16000002,25.493329,-2.8822253)" />
  <path
     id="rect1337"
     class="ColorScheme-Text"
     style="opacity:0.5;fill:url(#oomox);fill-opacity:1;stroke-width:10.5246;paint-order:stroke fill markers"
     d="m -128.95997,90.013905 v 12.923825 13.07617 h 6 v -13.07617 h 6 v 13.07617 h 6 v -13.07617 h 6 V 90.013905 Z"
     transform="matrix(0.16666667,0,0,0.16000002,25.493329,-2.8822253)" />
  <rect
     y="116.0139"
     x="-104.95998"
     height="1.999993"
     width="6"
     id="rect1374"
     class="ColorScheme-Text"
     style="opacity:1;fill:url(#oomox);fill-opacity:1;stroke-width:9.99995;paint-order:stroke fill markers"
     transform="matrix(0.16666667,0,0,0.16000002,25.493329,-2.8822253)" />
  <rect
     y="116.0139"
     x="-116.95998"
     height="1.999993"
     width="6"
     id="rect1376"
     class="ColorScheme-Text"
     style="opacity:1;fill:url(#oomox);fill-opacity:1;stroke-width:9.99995;paint-order:stroke fill markers"
     transform="matrix(0.16666667,0,0,0.16000002,25.493329,-2.8822253)" />
  <rect
     style="opacity:1;fill:url(#oomox);fill-opacity:1;stroke-width:9.99995;paint-order:stroke fill markers"
     id="rect1378"
     class="ColorScheme-Text"
     width="6"
     height="1.999993"
     x="-92.959976"
     y="116.0139"
     transform="matrix(0.16666667,0,0,0.16000002,25.493329,-2.8822253)" />
</svg>
