<?xml version="1.0" encoding="UTF-8" standalone="no"?>
<!-- Created with Inkscape (http://www.inkscape.org/) -->

<svg
   width="48"
   height="48"
   viewBox="0 0 48 48.000002"
   id="svg2"
   version="1.1"
   xmlns:xlink="http://www.w3.org/1999/xlink"
   xmlns="http://www.w3.org/2000/svg"
   xmlns:svg="http://www.w3.org/2000/svg"
   xmlns:rdf="http://www.w3.org/1999/02/22-rdf-syntax-ns#"
   xmlns:cc="http://creativecommons.org/ns#"
   xmlns:dc="http://purl.org/dc/elements/1.1/">
  <defs
     id="defs4">
    <style
       id="current-color-scheme"
       type="text/css">
      .ColorScheme-Text { color: #0abdc6; } .ColorScheme-Highlight { color:#5294e2; }
     </style>
    <linearGradient
       id="arrongin"
       x1="0%"
       x2="0%"
       y1="0%"
       y2="100%">
      <stop
         offset="0%"
         style="stop-color:#dd9b44; stop-opacity:1"
         id="stop9192" />
      <stop
         offset="100%"
         style="stop-color:#ad6c16; stop-opacity:1"
         id="stop9194" />
    </linearGradient>
    <linearGradient
       id="aurora"
       x1="0%"
       x2="0%"
       y1="0%"
       y2="100%">
      <stop
         offset="0%"
         style="stop-color:#09D4DF; stop-opacity:1"
         id="stop9197" />
      <stop
         offset="100%"
         style="stop-color:#9269F4; stop-opacity:1"
         id="stop9199" />
    </linearGradient>
    <linearGradient
       id="cyberneon"
       x1="0%"
       x2="0%"
       y1="0%"
       y2="100%">
      <stop
         offset="0"
         style="stop-color:#0abdc6; stop-opacity:1"
         id="stop9202" />
      <stop
         offset="1"
         style="stop-color:#ea00d9; stop-opacity:1"
         id="stop9204" />
    </linearGradient>
    <linearGradient
       id="fitdance"
       x1="0%"
       x2="0%"
       y1="0%"
       y2="100%">
      <stop
         offset="0%"
         style="stop-color:#1AD6AB; stop-opacity:1"
         id="stop9207" />
      <stop
         offset="100%"
         style="stop-color:#329DB6; stop-opacity:1"
         id="stop9209" />
    </linearGradient>
    <linearGradient
       id="oomox"
       x1="0%"
       x2="0%"
       y1="0%"
       y2="100%">
      <stop
         offset="0%"
         style="stop-color:#0abdc6; stop-opacity:1"
         id="stop9212" />
      <stop
         offset="100%"
         style="stop-color:#b800ff; stop-opacity:1"
         id="stop9214" />
    </linearGradient>
    <linearGradient
       id="rainblue"
       x1="0%"
       x2="0%"
       y1="0%"
       y2="100%">
      <stop
         offset="0%"
         style="stop-color:#00F260; stop-opacity:1"
         id="stop9217" />
      <stop
         offset="100%"
         style="stop-color:#0575E6; stop-opacity:1"
         id="stop9219" />
    </linearGradient>
    <linearGradient
       id="sunrise"
       x1="0%"
       x2="0%"
       y1="0%"
       y2="100%">
      <stop
         offset="0%"
         style="stop-color: #FF8501; stop-opacity:1"
         id="stop9222" />
      <stop
         offset="100%"
         style="stop-color: #FFCB01; stop-opacity:1"
         id="stop9224" />
    </linearGradient>
    <linearGradient
       id="telinkrin"
       x1="0%"
       x2="0%"
       y1="0%"
       y2="100%">
      <stop
         offset="0%"
         style="stop-color: #b2ced6; stop-opacity:1"
         id="stop9227" />
      <stop
         offset="100%"
         style="stop-color: #6da5b7; stop-opacity:1"
         id="stop9229" />
    </linearGradient>
    <linearGradient
       id="60spsycho"
       x1="0%"
       x2="0%"
       y1="0%"
       y2="100%">
      <stop
         offset="0%"
         style="stop-color: #df5940; stop-opacity:1"
         id="stop9232" />
      <stop
         offset="25%"
         style="stop-color: #d8d15f; stop-opacity:1"
         id="stop9234" />
      <stop
         offset="50%"
         style="stop-color: #e9882a; stop-opacity:1"
         id="stop9236" />
      <stop
         offset="100%"
         style="stop-color: #279362; stop-opacity:1"
         id="stop9238" />
    </linearGradient>
    <linearGradient
       id="90ssummer"
       x1="0%"
       x2="0%"
       y1="0%"
       y2="100%">
      <stop
         offset="0%"
         style="stop-color: #f618c7; stop-opacity:1"
         id="stop9241" />
      <stop
         offset="20%"
         style="stop-color: #94ffab; stop-opacity:1"
         id="stop9243" />
      <stop
         offset="50%"
         style="stop-color: #fbfd54; stop-opacity:1"
         id="stop9245" />
      <stop
         offset="100%"
         style="stop-color: #0f83ae; stop-opacity:1"
         id="stop9247" />
    </linearGradient>
    <linearGradient
       id="linearGradient84">
      <stop
         style="stop-color:#000000;stop-opacity:1;"
         offset="0"
         id="stop80" />
      <stop
         style="stop-color:#000000;stop-opacity:0;"
         offset="1"
         id="stop82" />
    </linearGradient>
    <linearGradient
       xlink:href="#linearGradient84"
       id="linearGradient86"
       x1="86.205452"
       y1="1091.4032"
       x2="92.205452"
       y2="1091.4032"
       gradientUnits="userSpaceOnUse"
       gradientTransform="matrix(0.95918323,0,0,0.95918323,-47.656212,-1024.2937)" />
  </defs>
  <metadata
     id="metadata7">
    <rdf:RDF>
      <cc:Work
         rdf:about="">
        <dc:format>image/svg+xml</dc:format>
        <dc:type
           rdf:resource="http://purl.org/dc/dcmitype/StillImage" />
        <dc:creator>
          <cc:Agent>
            <dc:title>dreifacherspass</dc:title>
          </cc:Agent>
        </dc:creator>
        <cc:license
           rdf:resource="http://creativecommons.org/licenses/by-sa/4.0/" />
      </cc:Work>
      <cc:License
         rdf:about="http://creativecommons.org/licenses/by-sa/4.0/">
        <cc:permits
           rdf:resource="http://creativecommons.org/ns#Reproduction" />
        <cc:permits
           rdf:resource="http://creativecommons.org/ns#Distribution" />
        <cc:requires
           rdf:resource="http://creativecommons.org/ns#Notice" />
        <cc:requires
           rdf:resource="http://creativecommons.org/ns#Attribution" />
        <cc:permits
           rdf:resource="http://creativecommons.org/ns#DerivativeWorks" />
        <cc:requires
           rdf:resource="http://creativecommons.org/ns#ShareAlike" />
      </cc:License>
    </rdf:RDF>
  </metadata>
  <path
     id="rect70"
     style="display:inline;fill:url(#oomox);fill-opacity:1.0;stroke-width:0.959183"
     class="ColorScheme-Text"
     d="M 37.908203 6.2558594 C 37.37679 6.2558594 36.949219 6.6834568 36.949219 7.2148438 L 36.949219 13.927734 L 36.949219 14.888672 L 37.908203 14.888672 L 42.703125 14.888672 L 43.664062 14.888672 L 43.664062 13.927734 L 43.664062 7.2148438 C 43.664062 6.6834568 43.23454 6.2558594 42.703125 6.2558594 L 37.908203 6.2558594 z M 36.949219 15.847656 L 36.949219 24.478516 L 43.664062 24.478516 L 43.664062 15.847656 L 36.949219 15.847656 z M 36.949219 25.439453 L 36.949219 34.072266 L 43.664062 34.072266 L 43.664062 25.439453 L 36.949219 25.439453 z M 36.949219 35.03125 L 36.949219 35.990234 L 36.949219 42.703125 C 36.949219 43.234607 37.37679 43.664062 37.908203 43.664062 L 42.703125 43.664062 C 43.23454 43.664062 43.664062 43.234607 43.664062 42.703125 L 43.664062 35.990234 L 43.664062 35.03125 L 42.703125 35.03125 L 37.908203 35.03125 L 36.949219 35.03125 z " />
  <rect
     style="display:inline;fill:url(#linearGradient86);fill-opacity:1;stroke-width:0.959183"
     id="rect78"
     width="5.7550993"
     height="37.408127"
     x="35.030617"
     y="6.2550993" />
  <path
     id="rect47"
     class="ColorScheme-Text"
     style="fill:url(#oomox);fill-opacity:1;stroke-width:1.67857;font-variation-settings:normal;opacity:1;vector-effect:none;stroke-linecap:butt;stroke-linejoin:miter;stroke-miterlimit:4;stroke-dasharray:none;stroke-dashoffset:0;stroke-opacity:1;-inkscape-stroke:none;stop-color:#000000;stop-opacity:1"
     d="M 6.2558594 0.5 C 4.661674 0.5 3.3769531 1.7827678 3.3769531 3.3769531 L 3.3769531 44.623047 C 3.3769531 46.217232 4.661674 47.5 6.2558594 47.5 L 35.990234 47.5 C 37.58442 47.5 38.867188 46.217232 38.867188 44.623047 L 38.867188 3.3769531 C 38.867188 1.7827678 37.58442 0.5 35.990234 0.5 L 6.2558594 0.5 z M 21.601562 14.888672 C 24.250271 14.888672 26.398438 17.034908 26.398438 19.683594 C 26.398437 22.33228 24.250271 24.480469 21.601562 24.480469 C 18.952854 24.480469 16.806641 22.33228 16.806641 19.683594 C 16.806641 17.034908 18.952854 14.888672 21.601562 14.888672 z M 21.601562 16.806641 C 20.012337 16.806641 18.724609 18.094325 18.724609 19.683594 C 18.724609 21.272863 20.012337 22.560547 21.601562 22.560547 C 23.190788 22.560547 24.480469 21.272863 24.480469 19.683594 C 24.480469 18.094325 23.190788 16.806641 21.601562 16.806641 z M 16.632812 26.398438 L 26.572266 26.398438 C 28.069577 26.398533 29.275391 27.604183 29.275391 29.101562 L 29.275391 31.367188 C 29.275391 31.641705 29.230067 31.903916 29.154297 32.152344 L 29.275391 32.152344 L 29.275391 34.072266 L 27.357422 34.072266 L 27.357422 33.943359 L 27.357422 32.152344 L 27.357422 28.316406 L 15.847656 28.316406 L 15.847656 33.943359 L 15.847656 34.072266 L 13.927734 34.072266 L 13.927734 32.152344 L 14.050781 32.152344 C 13.97502 31.903916 13.927734 31.641705 13.927734 31.367188 L 13.927734 29.101562 C 13.927734 27.604183 15.135503 26.398438 16.632812 26.398438 z " />
</svg>
