<?xml version="1.0" encoding="UTF-8" standalone="no"?>
<!-- Created with Inkscape (http://www.inkscape.org/) -->

<svg
   width="48"
   height="48"
   viewBox="0 0 12.7 12.7"
   version="1.1"
   id="svg5"
   xmlns="http://www.w3.org/2000/svg"
   xmlns:svg="http://www.w3.org/2000/svg"
   xmlns:rdf="http://www.w3.org/1999/02/22-rdf-syntax-ns#"
   xmlns:cc="http://creativecommons.org/ns#"
   xmlns:dc="http://purl.org/dc/elements/1.1/">
  <defs
     id="defs2">
    <style
       id="current-color-scheme"
       type="text/css">
      .ColorScheme-Text { color: #0abdc6; } .ColorScheme-Highlight { color:#5294e2; }
     </style>
    <linearGradient
       id="arrongin"
       x1="0%"
       x2="0%"
       y1="0%"
       y2="100%">
      <stop
         offset="0%"
         style="stop-color:#dd9b44; stop-opacity:1"
         id="stop9192" />
      <stop
         offset="100%"
         style="stop-color:#ad6c16; stop-opacity:1"
         id="stop9194" />
    </linearGradient>
    <linearGradient
       id="aurora"
       x1="0%"
       x2="0%"
       y1="0%"
       y2="100%">
      <stop
         offset="0%"
         style="stop-color:#09D4DF; stop-opacity:1"
         id="stop9197" />
      <stop
         offset="100%"
         style="stop-color:#9269F4; stop-opacity:1"
         id="stop9199" />
    </linearGradient>
    <linearGradient
       id="cyberneon"
       x1="0%"
       x2="0%"
       y1="0%"
       y2="100%">
      <stop
         offset="0"
         style="stop-color:#0abdc6; stop-opacity:1"
         id="stop9202" />
      <stop
         offset="1"
         style="stop-color:#ea00d9; stop-opacity:1"
         id="stop9204" />
    </linearGradient>
    <linearGradient
       id="fitdance"
       x1="0%"
       x2="0%"
       y1="0%"
       y2="100%">
      <stop
         offset="0%"
         style="stop-color:#1AD6AB; stop-opacity:1"
         id="stop9207" />
      <stop
         offset="100%"
         style="stop-color:#329DB6; stop-opacity:1"
         id="stop9209" />
    </linearGradient>
    <linearGradient
       id="oomox"
       x1="0%"
       x2="0%"
       y1="0%"
       y2="100%">
      <stop
         offset="0%"
         style="stop-color:#0abdc6; stop-opacity:1"
         id="stop9212" />
      <stop
         offset="100%"
         style="stop-color:#b800ff; stop-opacity:1"
         id="stop9214" />
    </linearGradient>
    <linearGradient
       id="rainblue"
       x1="0%"
       x2="0%"
       y1="0%"
       y2="100%">
      <stop
         offset="0%"
         style="stop-color:#00F260; stop-opacity:1"
         id="stop9217" />
      <stop
         offset="100%"
         style="stop-color:#0575E6; stop-opacity:1"
         id="stop9219" />
    </linearGradient>
    <linearGradient
       id="sunrise"
       x1="0%"
       x2="0%"
       y1="0%"
       y2="100%">
      <stop
         offset="0%"
         style="stop-color: #FF8501; stop-opacity:1"
         id="stop9222" />
      <stop
         offset="100%"
         style="stop-color: #FFCB01; stop-opacity:1"
         id="stop9224" />
    </linearGradient>
    <linearGradient
       id="telinkrin"
       x1="0%"
       x2="0%"
       y1="0%"
       y2="100%">
      <stop
         offset="0%"
         style="stop-color: #b2ced6; stop-opacity:1"
         id="stop9227" />
      <stop
         offset="100%"
         style="stop-color: #6da5b7; stop-opacity:1"
         id="stop9229" />
    </linearGradient>
    <linearGradient
       id="60spsycho"
       x1="0%"
       x2="0%"
       y1="0%"
       y2="100%">
      <stop
         offset="0%"
         style="stop-color: #df5940; stop-opacity:1"
         id="stop9232" />
      <stop
         offset="25%"
         style="stop-color: #d8d15f; stop-opacity:1"
         id="stop9234" />
      <stop
         offset="50%"
         style="stop-color: #e9882a; stop-opacity:1"
         id="stop9236" />
      <stop
         offset="100%"
         style="stop-color: #279362; stop-opacity:1"
         id="stop9238" />
    </linearGradient>
    <linearGradient
       id="90ssummer"
       x1="0%"
       x2="0%"
       y1="0%"
       y2="100%">
      <stop
         offset="0%"
         style="stop-color: #f618c7; stop-opacity:1"
         id="stop9241" />
      <stop
         offset="20%"
         style="stop-color: #94ffab; stop-opacity:1"
         id="stop9243" />
      <stop
         offset="50%"
         style="stop-color: #fbfd54; stop-opacity:1"
         id="stop9245" />
      <stop
         offset="100%"
         style="stop-color: #0f83ae; stop-opacity:1"
         id="stop9247" />
    </linearGradient>
  </defs>
  <g
     id="layer1"
     transform="matrix(1.0891413,0,0,1.0891413,-0.6196617,-0.56969054)">
    <g
       aria-label="CRT"
       transform="scale(0.96549505,1.0357381)"
       id="text857"
       style="color:#0abdc6;font-weight:bold;font-size:6.71914px;-inkscape-font-specification:'sans-serif, Bold';text-align:center;text-anchor:middle;stroke-width:0.0543131;stroke-linejoin:round;paint-order:markers fill stroke;stop-color:#000000"
       class="ColorScheme-Text">
      <path
         d="m 1.4977813,0.63648872 h 2.0733346 q 0.057593,0.009599 0.057593,0.0575926 V 1.3467978 H 4.281425 q 0.057593,0.0096 0.057593,0.057593 v 0.6527165 q 0,0.057593 -0.057593,0.057593 H 3.6287085 q -0.057593,0 -0.057593,-0.057593 V 1.4043904 H 1.4977813 V 4.8983433 H 3.5711159 V 4.2456268 q 0.0096,-0.057593 0.057593,-0.057593 H 4.281425 q 0.057593,0.0096 0.057593,0.057593 v 0.6527165 q 0,0.057593 -0.057593,0.057593 H 3.6287085 v 0.6527165 q 0,0.057593 -0.057593,0.057593 H 1.4977813 q -0.057593,0 -0.057593,-0.057593 V 4.9559359 H 0.78747218 q -0.0575926,0 -0.0575926,-0.057593 V 1.4043904 q 0.009599,-0.057593 0.0575926,-0.057593 H 1.4401886 V 0.69408135 q 0.0096,-0.0575926 0.057593,-0.0575926 z"
         style="font-weight:normal;font-family:'LCD Solid';-inkscape-font-specification:'LCD Solid, Normal';fill:url(#oomox)"
         id="path374" />
      <path
         d="m 4.8957442,0.63648872 h 2.7788444 q 0.062392,0.009599 0.062392,0.0575926 V 1.3467978 h 0.6479171 q 0.057593,0.0096 0.057593,0.057593 v 1.3582262 q 0,0.062392 -0.057593,0.062392 H 7.7369806 v 0.6479171 q 0,0.062392 -0.062392,0.062392 H 7.0266715 v 0.6479171 h 0.6479171 q 0.062392,0.0096 0.062392,0.057593 v 0.6527165 h 0.6479171 q 0.057593,0.0096 0.057593,0.057593 V 5.603853 q 0,0.057593 -0.057593,0.057593 H 7.7369806 q -0.062392,0 -0.062392,-0.057593 V 4.9511365 H 7.0266715 q -0.062392,0 -0.062392,-0.057593 V 4.2408274 H 6.3163624 q -0.057593,0 -0.057593,-0.057593 V 3.5353177 H 5.6060533 V 5.603853 q 0,0.057593 -0.057593,0.057593 H 4.8957442 q -0.057593,0 -0.057593,-0.057593 V 0.69408135 q 0.0096,-0.0575926 0.057593,-0.0575926 z M 5.6060533,1.4043904 V 2.7626166 H 7.6745886 V 1.4043904 Z"
         style="font-weight:normal;font-family:'LCD Solid';-inkscape-font-specification:'LCD Solid, Normal';fill:url(#oomox)"
         id="path376" />
      <path
         d="m 8.9992169,0.62209057 h 3.4987521 q 0.05759,0.009599 0.05759,0.0575926 v 0.6527165 q 0,0.057593 -0.05759,0.057593 h -1.363025 v 4.2090613 q 0,0.057593 -0.06239,0.057593 h -0.647918 q -0.06239,0 -0.06239,-0.057593 V 1.3899923 H 8.9992169 q -0.057593,0 -0.057593,-0.057593 V 0.6796832 q 0.0096,-0.0575926 0.057593,-0.0575926 z"
         style="font-weight:normal;font-family:'LCD Solid';-inkscape-font-specification:'LCD Solid, Normal';fill:url(#oomox)"
         id="path378" />
    </g>
    <rect
       style="fill:url(#oomox);fill-opacity:1;stroke-width:0.0541783;stroke-linejoin:round;paint-order:markers fill stroke;stop-color:#000000"
       id="rect1100"
       class="ColorScheme-Text"
       width="3.4224169"
       height="5.0055084"
       x="0.69040936"
       y="6.8000002" />
  </g>
  <metadata
     id="metadata132">
    <rdf:RDF>
      <cc:Work
         rdf:about="">
        <dc:creator>
          <cc:Agent>
            <dc:title>dreifacherspass</dc:title>
          </cc:Agent>
        </dc:creator>
        <cc:license
           rdf:resource="http://creativecommons.org/licenses/by-sa/4.0/" />
      </cc:Work>
      <cc:License
         rdf:about="http://creativecommons.org/licenses/by-sa/4.0/">
        <cc:permits
           rdf:resource="http://creativecommons.org/ns#Reproduction" />
        <cc:permits
           rdf:resource="http://creativecommons.org/ns#Distribution" />
        <cc:requires
           rdf:resource="http://creativecommons.org/ns#Notice" />
        <cc:requires
           rdf:resource="http://creativecommons.org/ns#Attribution" />
        <cc:permits
           rdf:resource="http://creativecommons.org/ns#DerivativeWorks" />
        <cc:requires
           rdf:resource="http://creativecommons.org/ns#ShareAlike" />
      </cc:License>
    </rdf:RDF>
  </metadata>
</svg>
