<?xml version="1.0" encoding="UTF-8" standalone="no"?>
<svg
   width="16"
   height="16"
   viewBox="0 0 16 16"
   version="1.1"
   id="svg1"
   xmlns="http://www.w3.org/2000/svg"
   xmlns:svg="http://www.w3.org/2000/svg"
   xmlns:rdf="http://www.w3.org/1999/02/22-rdf-syntax-ns#"
   xmlns:cc="http://creativecommons.org/ns#"
   xmlns:dc="http://purl.org/dc/elements/1.1/">
  <defs>
   <style id="current-color-scheme" type="text/css">
   .ColorScheme-Text { color: #0abdc6; } .ColorScheme-Highlight { color:#5294e2; }
  </style>
  <linearGradient id="arrongin" x1="0%" x2="0%" y1="0%" y2="100%">
   <stop offset="0%" style="stop-color:#dd9b44; stop-opacity:1"/>
   <stop offset="100%" style="stop-color:#ad6c16; stop-opacity:1"/>
  </linearGradient>
  <linearGradient id="aurora" x1="0%" x2="0%" y1="0%" y2="100%">
   <stop offset="0%" style="stop-color:#09D4DF; stop-opacity:1"/>
   <stop offset="100%" style="stop-color:#9269F4; stop-opacity:1"/>
  </linearGradient>
  <linearGradient id="cyberneon" x1="0%" x2="0%" y1="0%" y2="100%">
    <stop offset="0" style="stop-color:#0abdc6; stop-opacity:1"/>
    <stop offset="1" style="stop-color:#ea00d9; stop-opacity:1"/>
  </linearGradient>
  <linearGradient id="fitdance" x1="0%" x2="0%" y1="0%" y2="100%">
   <stop offset="0%" style="stop-color:#1AD6AB; stop-opacity:1"/>
   <stop offset="100%" style="stop-color:#329DB6; stop-opacity:1"/>
  </linearGradient>
  <linearGradient id="oomox" x1="0%" x2="0%" y1="0%" y2="100%">
   <stop offset="0%" style="stop-color:#0abdc6; stop-opacity:1"/>
   <stop offset="100%" style="stop-color:#b800ff; stop-opacity:1"/>
  </linearGradient>
  <linearGradient id="rainblue" x1="0%" x2="0%" y1="0%" y2="100%">
   <stop offset="0%" style="stop-color:#00F260; stop-opacity:1"/>
   <stop offset="100%" style="stop-color:#0575E6; stop-opacity:1"/>
  </linearGradient>
  <linearGradient id="sunrise" x1="0%" x2="0%" y1="0%" y2="100%">
   <stop offset="0%" style="stop-color: #FF8501; stop-opacity:1"/>
   <stop offset="100%" style="stop-color: #FFCB01; stop-opacity:1"/>
  </linearGradient>
  <linearGradient id="telinkrin" x1="0%" x2="0%" y1="0%" y2="100%">
   <stop offset="0%" style="stop-color: #b2ced6; stop-opacity:1"/>
   <stop offset="100%" style="stop-color: #6da5b7; stop-opacity:1"/>
  </linearGradient>
  <linearGradient id="60spsycho" x1="0%" x2="0%" y1="0%" y2="100%">
   <stop offset="0%" style="stop-color: #df5940; stop-opacity:1"/>
   <stop offset="25%" style="stop-color: #d8d15f; stop-opacity:1"/>
   <stop offset="50%" style="stop-color: #e9882a; stop-opacity:1"/>
   <stop offset="100%" style="stop-color: #279362; stop-opacity:1"/>
  </linearGradient>
  <linearGradient id="90ssummer" x1="0%" x2="0%" y1="0%" y2="100%">
   <stop offset="0%" style="stop-color: #f618c7; stop-opacity:1"/>
   <stop offset="20%" style="stop-color: #94ffab; stop-opacity:1"/>
   <stop offset="50%" style="stop-color: #fbfd54; stop-opacity:1"/>
   <stop offset="100%" style="stop-color: #0f83ae; stop-opacity:1"/>
  </linearGradient>
 </defs>
  <path
     d="M 6.1113281,8.9257813 C 6.0899338,8.9251383 6.0696819,8.9299347 6.0507812,8.9375 6.0318806,8.9450653 6.0146237,8.9547246 6,8.96875 c -0.014624,0.014025 -0.026593,0.032044 -0.035156,0.050781 -0.00856,0.018737 -0.012952,0.038846 -0.013672,0.060547 0,0.00322 -0.00242,0.02571 -0.00781,0.060547 -0.00539,0.034837 -0.014834,0.082623 -0.033203,0.1347656 -0.00918,0.026072 -0.019353,0.052365 -0.033203,0.080078 -0.01385,0.027713 -0.031318,0.056418 -0.050781,0.083984 -0.019464,0.027566 -0.042335,0.054449 -0.068359,0.080078 -0.026025,0.025629 -0.054357,0.050363 -0.087891,0.072266 -0.018269,0.012056 -0.033469,0.025854 -0.044922,0.042969 -0.011453,0.017115 -0.019291,0.036808 -0.023437,0.056641 -0.00415,0.019832 -0.0056,0.040338 -0.00195,0.060547 0.00365,0.020209 0.011498,0.040349 0.023437,0.058594 0.00753,0.011574 0.017608,0.022359 0.027344,0.03125 0.00974,0.00889 0.019872,0.015416 0.03125,0.021484 0.022757,0.012137 0.048257,0.019531 0.074219,0.019531 0.014743,0 0.028506,-0.0016 0.042969,-0.00586 0.014463,-0.00426 0.029667,-0.010851 0.042969,-0.019531 0.034455,-0.022505 0.066617,-0.046948 0.095703,-0.072266 0.029087,-0.025318 0.053926,-0.052751 0.078125,-0.080078 0.066266,0.059879 0.134718,0.1155746 0.2050781,0.1679688 0.07036,0.052394 0.1428886,0.1015751 0.2167969,0.1464841 0.073908,0.04491 0.1496519,0.08562 0.2265625,0.123047 0.076911,0.03742 0.1550079,0.07162 0.234375,0.101563 0.079367,0.02994 0.1609099,0.05567 0.2421875,0.07813 0.081278,0.02245 0.1634514,0.04167 0.2460937,0.05664 0.082642,0.01497 0.1645858,0.02572 0.2480469,0.0332 0.083461,0.0075 0.1682191,0.01172 0.2519531,0.01172 0.083934,0 0.168293,-0.0042 0.2519532,-0.01172 0.08366,-0.0075 0.1671623,-0.01817 0.25,-0.0332 0.082838,-0.01503 0.164627,-0.03409 0.2460937,-0.05664 0.081467,-0.02255 0.1626402,-0.04806 0.2421875,-0.07813 0.079547,-0.03007 0.1572954,-0.06397 0.234375,-0.101563 0.07708,-0.03759 0.1524989,-0.07989 0.2265625,-0.125 0.074064,-0.045113 0.1462978,-0.093848 0.2167969,-0.1464842 0.070499,-0.052636 0.1386918,-0.1078084 0.2050781,-0.1679688 0.024359,0.027649 0.052504,0.054198 0.082031,0.080078 0.029527,0.025881 0.060286,0.051071 0.095703,0.074219 0.013141,0.00868 0.028466,0.015271 0.042969,0.019531 0.014503,0.00426 0.028225,0.00586 0.042969,0.00586 0.02564,0 0.05142,-0.00731 0.07422,-0.019531 0.0114,-0.00611 0.0234,-0.012563 0.0332,-0.021484 0.0098,-0.00892 0.01778,-0.019676 0.02539,-0.03125 0.01186,-0.018325 0.01983,-0.038319 0.02344,-0.058594 0.0036,-0.020274 0.0022,-0.040694 -0.002,-0.060547 -0.0041,-0.019853 -0.01202,-0.039581 -0.02344,-0.056641 -0.01141,-0.017059 -0.02478,-0.031073 -0.04297,-0.042969 -0.03345,-0.021902 -0.06387,-0.04667 -0.08984,-0.072266 -0.025973,-0.025596 -0.04892,-0.052562 -0.068359,-0.080078 -0.019439,-0.027516 -0.034979,-0.05437 -0.048828,-0.082031 -0.013849,-0.027661 -0.025951,-0.056 -0.035156,-0.082031 -0.018409,-0.052063 -0.027699,-0.097915 -0.033203,-0.1328125 -0.0055,-0.034898 -0.00765,-0.058963 -0.00781,-0.0625 -4.808e-4,-0.021862 -0.00342,-0.041819 -0.011719,-0.060547 -0.0083,-0.018728 -0.020693,-0.034843 -0.035156,-0.048828 -0.014463,-0.013985 -0.031821,-0.025568 -0.050781,-0.033203 -0.01896,-0.00764 -0.040705,-0.012041 -0.0625,-0.011719 -0.021795,4.017e-4 -0.041822,0.00531 -0.060547,0.013672 -0.018725,0.00836 -0.034826,0.020588 -0.048828,0.035156 -0.014002,0.014568 -0.025576,0.031768 -0.033203,0.050781 -0.00763,0.019014 -0.012119,0.038846 -0.011719,0.060547 3.2e-4,0.00579 0.00154,0.045936 0.011719,0.1074219 0.00509,0.030743 0.012911,0.068029 0.023437,0.1074219 0.010527,0.039393 0.025021,0.082426 0.042969,0.1269531 C 9.5322615,9.4843184 9.4697719,9.536416 9.40625,9.5859375 9.3427281,9.635459 9.2779154,9.6821497 9.2109375,9.7246094 9.1439596,9.7670691 9.0738096,9.8063982 9.0039063,9.8417969 8.9340029,9.8771956 8.8633139,9.9091615 8.7910156,9.9375 c -0.072298,0.028339 -0.1445873,0.05294 -0.21875,0.074219 -0.074163,0.02128 -0.1491128,0.03851 -0.2246093,0.05273 -0.075497,0.01422 -0.1522159,0.02409 -0.2285157,0.03125 -0.0763,0.0072 -0.151943,0.01161 -0.2285156,0.01172 -0.076573,1.05e-4 -0.1541539,-0.0028 -0.2304688,-0.0098 -0.076315,-0.0069 -0.152989,-0.01724 -0.2285156,-0.03125 C 7.3561141,10.0524 7.281239,10.034733 7.2070312,10.013672 7.1328235,9.992611 7.0606396,9.9675679 6.9882812,9.9394531 6.9159229,9.9113383 6.843416,9.8789179 6.7734375,9.84375 6.703459,9.8085821 6.6354274,9.7707359 6.5683594,9.7285156 6.5012914,9.6862954 6.4366739,9.6410686 6.3730469,9.5917969 6.3094198,9.5425251 6.2471555,9.4879631 6.1875,9.4316406 6.205929,9.38647 6.2196515,9.3446839 6.2304687,9.3046875 c 0.010817,-0.039996 0.018229,-0.07815 0.023437,-0.109375 0.010417,-0.062451 0.011719,-0.103588 0.011719,-0.109375 4.006e-4,-0.021701 -0.00413,-0.041583 -0.011719,-0.060547 -0.00759,-0.018963 -0.017328,-0.036253 -0.03125,-0.050781 -0.013922,-0.014528 -0.032177,-0.026762 -0.050781,-0.035156 -0.018605,-0.00839 -0.038912,-0.013109 -0.060547,-0.013672 z"
     style="fill:url(#oomox);stroke-width:0.0421053"
     id="path26"
     class="ColorScheme-Text"/>
  <path
     d="m 7.9394531,1.8730469 c -0.069638,0 -0.1398787,0.00251 -0.2089844,0.00586 -0.069106,0.00335 -0.1385525,0.00896 -0.2070312,0.015625 -0.1369574,0.01332 -0.2723678,0.032256 -0.40625,0.058594 C 6.9833053,1.9794631 6.8507537,2.0117284 6.7207031,2.0507813 6.5906526,2.0898341 6.4633531,2.1360352 6.3378906,2.1875 6.2124281,2.2389648 6.088868,2.2958012 5.96875,2.359375 5.848632,2.4229488 5.7331576,2.4929794 5.6191406,2.5683594 5.5051236,2.6437393 5.394269,2.7256167 5.2871094,2.8125 c -0.05358,0.043442 -0.1064795,0.088505 -0.1582032,0.1347656 -0.051724,0.046261 -0.1025708,0.093536 -0.1523437,0.1425782 -0.087183,0.085858 -0.1711796,0.1736677 -0.25,0.265625 C 4.6477421,3.447426 4.5741445,3.5430792 4.5039062,3.640625 4.433668,3.7381708 4.3680765,3.8387821 4.3066406,3.9414063 4.2452047,4.0440304 4.1871792,4.1486671 4.1347656,4.2558594 4.082352,4.3630517 4.0353587,4.4727341 3.9921875,4.5839844 3.9490163,4.6952346 3.9106618,4.8090302 3.8769531,4.9238281 3.8432444,5.0386261 3.8130887,5.153649 3.7890625,5.2714844 3.7650363,5.3893198 3.7465455,5.5085436 3.7324219,5.6289062 3.6128309,5.643102 3.494031,5.6633241 3.3769531,5.6875 3.2598753,5.7116759 3.1433564,5.7395089 3.0292969,5.7734375 2.9152373,5.8073661 2.8038955,5.8471711 2.6933594,5.890625 c -0.1105362,0.043454 -0.2196643,0.09178 -0.3261719,0.1445312 -0.1065076,0.052752 -0.2105261,0.1100531 -0.3125,0.171875 -0.1019739,0.061822 -0.201893,0.128554 -0.2988281,0.1992188 -0.096935,0.070665 -0.191812,0.1453292 -0.2832032,0.2246094 -0.091391,0.07928 -0.1783297,0.1623319 -0.2636718,0.25 C 1.1602718,6.9309468 1.1123615,6.9811502 1.0664062,7.0332031 1.020451,7.085256 0.97675336,7.1394365 0.93359375,7.1933594 0.84727453,7.3012052 0.76631315,7.4125911 0.69140625,7.5273437 0.61649935,7.6420964 0.54756324,7.7599639 0.484375,7.8808594 0.42118676,8.0017548 0.36366325,8.1256789 0.3125,8.2519531 0.26133675,8.3782273 0.21656631,8.507783 0.17773437,8.6386719 0.13890244,8.7695607 0.10627241,8.90237 0.08007812,9.0371094 0.05388384,9.1718488 0.03278156,9.3074866 0.01953125,9.4453125 0.00628094,9.5831384 0,9.723133 0,9.8632813 c 0,0.073472 0.00219307,0.1461787 0.00585938,0.2187497 0.0036663,0.07257 0.00838171,0.145218 0.015625,0.216797 0.0072433,0.07158 0.0166128,0.142393 0.02734374,0.212891 0.01073095,0.0705 0.0229801,0.139657 0.03710938,0.208984 0.01412928,0.06933 0.0294367,0.138966 0.046875,0.207031 0.0174383,0.06807 0.0379357,0.134458 0.0585938,0.201172 0.020658,0.06671 0.0426179,0.131993 0.0664063,0.197266 0.0237884,0.06527 0.0493424,0.131571 0.0761719,0.195312 0.0536589,0.127484 0.11244715,0.250276 0.17773437,0.371094 0.0652872,0.120818 0.13668964,0.238129 0.21289062,0.351563 0.076201,0.113433 0.15774044,0.222795 0.24414063,0.328125 0.0864002,0.105329 0.1775527,0.208182 0.2734375,0.304687 0.095885,0.09651 0.1961263,0.188429 0.3007812,0.275391 0.104655,0.08696 0.2134615,0.167443 0.3261719,0.24414 0.1127105,0.0767 0.229558,0.14913 0.3496094,0.214844 0.060026,0.03286 0.1199137,0.06377 0.1816406,0.09375 0.061727,0.02998 0.1261142,0.05893 0.1894532,0.08594 0.063339,0.027 0.1265447,0.05223 0.1914062,0.07617 0.064862,0.02394 0.1309708,0.04561 0.1972656,0.06641 0.066295,0.02079 0.1335331,0.04104 0.2011719,0.05859 0.067639,0.01755 0.1342315,0.03265 0.203125,0.04687 0.068894,0.01422 0.1389256,0.02631 0.2089844,0.03711 0.070059,0.0108 0.1417558,0.02005 0.2128906,0.02734 0.071135,0.0073 0.1427222,0.01389 0.2148437,0.01758 0.072122,0.0037 0.143778,0.0059 0.2167969,0.0059 h 7.5273439 c 0.07299,0 0.144701,-0.0022 0.216797,-0.0059 0.0721,-0.0037 0.14373,-0.01029 0.214844,-0.01758 0.07111,-0.0073 0.142849,-0.01654 0.21289,-0.02734 0.07004,-0.0108 0.138152,-0.02289 0.207031,-0.03711 0.06888,-0.01422 0.137451,-0.02932 0.205079,-0.04687 0.06763,-0.01755 0.134884,-0.0378 0.201171,-0.05859 0.06629,-0.02079 0.132409,-0.04246 0.197266,-0.06641 0.06486,-0.02395 0.128069,-0.04917 0.191406,-0.07617 0.06334,-0.02701 0.125773,-0.05596 0.1875,-0.08594 0.06173,-0.02998 0.123565,-0.06089 0.183594,-0.09375 0.120057,-0.06571 0.236885,-0.138149 0.349609,-0.214844 0.112725,-0.07669 0.221497,-0.157183 0.326172,-0.24414 0.104676,-0.08696 0.204872,-0.178891 0.300782,-0.275391 0.09591,-0.0965 0.187009,-0.197411 0.273437,-0.302734 0.08643,-0.105323 0.167911,-0.216652 0.244141,-0.330078 0.07623,-0.113426 0.147575,-0.230754 0.21289,-0.351563 0.06532,-0.120809 0.124049,-0.243622 0.177735,-0.371094 0.02684,-0.06374 0.05237,-0.128092 0.07617,-0.193359 0.0238,-0.06527 0.04574,-0.132511 0.06641,-0.199219 0.02067,-0.06671 0.04115,-0.133113 0.05859,-0.201172 0.01745,-0.06806 0.03274,-0.137712 0.04687,-0.207031 0.01414,-0.06932 0.02637,-0.138494 0.03711,-0.208984 0.01074,-0.07049 0.0201,-0.14132 0.02734,-0.212891 0.0072,-0.07157 0.01196,-0.144235 0.01563,-0.216797 C 15.997809,10.00947 16,9.9367435 16,9.8632813 16,9.7244198 15.99343,9.5866707 15.980469,9.4511719 15.967507,9.315673 15.947194,9.1823101 15.921875,9.0507813 15.896556,8.9192524 15.865197,8.7890607 15.828125,8.6621094 15.791053,8.535158 15.749393,8.4108289 15.701172,8.2890625 15.652951,8.1672961 15.599782,8.0495677 15.541016,7.9335937 15.482249,7.8176198 15.418317,7.7033241 15.349609,7.59375 15.280902,7.4841759 15.206951,7.3779574 15.128906,7.2753906 15.050862,7.1728239 14.967637,7.0734676 14.880859,6.9785156 14.794082,6.8835637 14.704281,6.793761 14.609375,6.7070312 14.514469,6.6203015 14.414931,6.5368844 14.3125,6.4589844 14.210069,6.3810844 14.103493,6.3086972 13.994141,6.2402344 13.884789,6.1717716 13.771919,6.1072463 13.65625,6.0488281 13.540581,5.99041 13.422163,5.938391 13.300781,5.890625 13.1794,5.842859 13.056177,5.8001783 12.929688,5.7636719 12.803198,5.7271654 12.673963,5.6965144 12.542969,5.671875 12.411974,5.6472356 12.279426,5.6293524 12.144531,5.6171875 12.130048,5.4974683 12.110199,5.3769708 12.085938,5.2597656 12.061676,5.1425605 12.031876,5.0282497 11.998047,4.9140625 11.964218,4.7998753 11.925999,4.6868371 11.882813,4.5761719 11.839626,4.4655066 11.792568,4.3566394 11.740234,4.25 11.687901,4.1433606 11.62963,4.0396096 11.568359,3.9375 11.507089,3.8353904 11.443045,3.7357477 11.373047,3.6386719 11.303049,3.5415961 11.228906,3.4470069 11.150391,3.3554688 11.071875,3.2639306 10.989166,3.1753402 10.902344,3.0898438 10.852571,3.040822 10.801726,2.9915555 10.75,2.9453125 10.698274,2.8990695 10.645381,2.8559262 10.591797,2.8125 10.484629,2.7256475 10.373795,2.6437167 10.259766,2.5683594 10.145736,2.493002 10.028334,2.4229331 9.9082031,2.359375 9.788072,2.2958169 9.664535,2.2389547 9.5390625,2.1875 9.41359,2.1360453 9.2863037,2.0898285 9.15625,2.0507813 9.0261963,2.011734 8.8936403,1.9794606 8.7597656,1.953125 8.625891,1.9267894 8.4904511,1.9078511 8.3535156,1.8945312 8.2850479,1.8878713 8.2155748,1.8822552 8.1464844,1.8789062 8.077394,1.8755573 8.0090712,1.8730469 7.9394531,1.8730469 Z M 7.9375,2.6679688 c 0.114258,0 0.2282692,0.00416 0.3398438,0.015625 0.1115745,0.011465 0.2217594,0.028416 0.3300781,0.050781 0.1083186,0.022365 0.213869,0.051285 0.3183594,0.083984 0.1044903,0.032699 0.208504,0.070813 0.3085937,0.1132812 0.1000897,0.042468 0.1978521,0.088953 0.2929688,0.140625 0.095117,0.051672 0.1858193,0.1076594 0.2753906,0.1679688 0.089571,0.060309 0.1763122,0.1249777 0.2597656,0.1933594 0.08345,0.068382 0.165424,0.1409083 0.242188,0.2167968 0.07676,0.075889 0.149249,0.1554515 0.21875,0.2382813 0.0695,0.08283 0.135599,0.1686069 0.197265,0.2578125 0.06167,0.089206 0.118617,0.1823278 0.171875,0.2773437 0.05326,0.095016 0.102206,0.1927081 0.146485,0.2929688 0.04428,0.1002607 0.08441,0.2017006 0.11914,0.3066406 0.03473,0.10494 0.06329,0.2132118 0.08789,0.3222656 0.0246,0.1090538 0.04469,0.2194291 0.05859,0.3320313 0.0139,0.1126021 0.02276,0.2262119 0.02539,0.3417968 6.89e-4,0.030987 0.0033,0.062693 0.0098,0.091797 0.0065,0.029104 0.01567,0.055379 0.02734,0.082031 0.01168,0.026652 0.02668,0.05254 0.04297,0.076172 0.01629,0.023632 0.03437,0.046363 0.05469,0.066406 0.02031,0.020043 0.04266,0.036849 0.06641,0.052734 0.02375,0.015885 0.04957,0.029857 0.07617,0.041016 0.0266,0.011159 0.05513,0.019527 0.08398,0.025391 0.02886,0.00586 0.05736,0.00977 0.08789,0.00977 h 0.03516 c 0.116934,0 0.231782,0.00583 0.345703,0.017578 0.113921,0.011745 0.225603,0.029824 0.335938,0.052734 0.110335,0.02291 0.219995,0.050489 0.326172,0.083984 0.106176,0.033495 0.209101,0.071734 0.310547,0.1152344 0.101445,0.043501 0.200733,0.091605 0.296875,0.1445312 0.09614,0.052926 0.189031,0.1120567 0.279296,0.1738282 0.09027,0.061771 0.177903,0.1272286 0.261719,0.1972656 0.08382,0.070037 0.163441,0.1429804 0.240235,0.2207031 0.07679,0.077723 0.151504,0.1593122 0.220703,0.2441406 0.0692,0.084828 0.134281,0.1742708 0.195312,0.265625 0.06103,0.091354 0.117631,0.185903 0.169922,0.2832032 0.05229,0.0973 0.0996,0.1961619 0.142578,0.2988281 0.04298,0.1026662 0.08214,0.208954 0.115235,0.3164063 0.03309,0.1074522 0.0594,0.2164665 0.08203,0.328125 0.02263,0.1116584 0.04113,0.2265121 0.05273,0.3417968 0.0116,0.1152848 0.01758,0.2312783 0.01758,0.3496094 0,0.1183515 -0.006,0.2362595 -0.01758,0.3515625 -0.0116,0.115303 -0.0301,0.22817 -0.05273,0.339844 -0.02263,0.111674 -0.04894,0.220659 -0.08203,0.328125 -0.03309,0.107466 -0.07226,0.213728 -0.115235,0.316406 -0.04298,0.102678 -0.09029,0.201518 -0.142578,0.298828 -0.05229,0.09731 -0.10889,0.191841 -0.169922,0.283203 -0.06103,0.09136 -0.126113,0.18079 -0.195312,0.265625 -0.0692,0.08483 -0.14391,0.166413 -0.220703,0.244141 -0.07679,0.07773 -0.156419,0.150662 -0.240235,0.220703 -0.08382,0.07004 -0.171454,0.137444 -0.261719,0.199219 -0.09026,0.06177 -0.183155,0.118947 -0.279296,0.171875 -0.09614,0.05293 -0.19543,0.101029 -0.296875,0.144531 -0.101446,0.0435 -0.204371,0.08174 -0.310547,0.115234 -0.106177,0.0335 -0.215837,0.06303 -0.326172,0.08594 -0.110335,0.02291 -0.222017,0.03904 -0.335938,0.05078 -0.113921,0.01174 -0.228769,0.01758 -0.345703,0.01758 h -0.0332 -7.5273438 c -0.00973,-6.57e-4 -0.019567,0 -0.029297,0 h -0.011719 -0.027344 c -0.116934,0 -0.2317822,-0.0058 -0.3457031,-0.01758 -0.113921,-0.01174 -0.2256024,-0.02787 -0.3359375,-0.05078 C 3.3935711,13.240761 3.2839111,13.21123 3.1777344,13.177734 3.0715577,13.144238 2.968633,13.106002 2.8671875,13.0625 2.765742,13.018998 2.6664541,12.970897 2.5703125,12.917969 2.4741709,12.865041 2.3812806,12.807868 2.2910156,12.746094 2.2007506,12.684319 2.1131126,12.616916 2.0292969,12.546875 1.9454812,12.476834 1.8658562,12.4039 1.7890625,12.326172 1.7122688,12.248444 1.6375583,12.166866 1.5683594,12.082031 1.4991604,11.997196 1.4340784,11.909722 1.3730469,11.818359 1.3120154,11.726997 1.2554164,11.632466 1.203125,11.535156 1.1508336,11.437846 1.1035254,11.337053 1.0605469,11.234375 1.0175684,11.131697 0.97840545,11.027388 0.9453125,10.919922 0.91221955,10.812456 0.88591592,10.701518 0.86328125,10.589844 0.84064658,10.47817 0.82215057,10.365303 0.81054688,10.25 0.79894318,10.134697 0.79296875,10.016789 0.79296875,9.8984375 c 0,-0.1156669 0.006247,-0.2288481 0.0175781,-0.3417969 0.0113316,-0.1129488 0.0286775,-0.224333 0.0507813,-0.3339843 C 0.8834319,9.1130049 0.91104282,9.0042122 0.94335938,8.8984375 0.97567593,8.7926628 1.0127176,8.6892093 1.0546875,8.5878906 1.0966574,8.4865719 1.1422955,8.3872991 1.1933594,8.2910156 1.2444233,8.1947321 1.2997765,8.1004346 1.359375,8.0097656 1.4189735,7.9190966 1.4832076,7.8325221 1.5507812,7.7480469 1.6183549,7.6635716 1.6906356,7.5816084 1.765625,7.5039062 1.8406144,7.4262041 1.9181543,7.3515999 2,7.28125 2.0818457,7.2109001 2.1677167,7.1444496 2.2558594,7.0820312 2.3440021,7.0196129 2.4354166,6.9621106 2.5292969,6.9082031 2.6231771,6.8542957 2.719301,6.804583 2.8183594,6.7597656 2.9174178,6.7149483 3.0193698,6.675773 3.1230469,6.640625 3.226724,6.605477 3.3317167,6.5737274 3.4394531,6.5488281 3.5471896,6.5239288 3.6563418,6.5043058 3.7675781,6.4902344 3.8788145,6.476163 3.993245,6.4675079 4.1074219,6.4648437 c 0.030085,-6.967e-4 0.057598,-0.0034 0.085937,-0.00977 0.02834,-0.00637 0.055988,-0.015859 0.082031,-0.027344 0.026043,-0.011484 0.051023,-0.024977 0.074219,-0.041016 0.023195,-0.016038 0.044656,-0.034655 0.064453,-0.054687 0.019797,-0.020033 0.038841,-0.040986 0.054687,-0.064453 0.015847,-0.023467 0.02967,-0.04983 0.041016,-0.076172 0.011345,-0.026342 0.019098,-0.053374 0.025391,-0.082031 0.00629,-0.028657 0.01103,-0.057478 0.011719,-0.087891 0.00262,-0.115585 0.00955,-0.2311431 0.023437,-0.34375 0.013892,-0.112607 0.033999,-0.2229685 0.058594,-0.3320313 C 4.6535014,5.2366403 4.6840247,5.1303431 4.71875,5.0253906 4.7534753,4.9204381 4.7916552,4.817073 4.8359375,4.7167969 4.8802198,4.6165208 4.9291558,4.5188616 4.9824219,4.4238281 5.035688,4.3287946 5.0945732,4.2357092 5.15625,4.1464844 5.2179268,4.0572596 5.2840014,3.9715218 5.3535156,3.8886719 5.4230298,3.8058219 5.4954872,3.7262996 5.5722656,3.6503906 5.6490441,3.5744816 5.7290305,3.5019956 5.8125,3.4335938 5.8959695,3.3651919 5.9826782,3.300563 6.0722656,3.2402344 6.1618531,3.1799058 6.2544772,3.1239548 6.3496094,3.0722656 6.4447415,3.0205765 6.5424744,2.9741242 6.6425781,2.9316406 6.7426818,2.889157 6.8447167,2.8510713 6.9492187,2.8183594 7.0537208,2.7856475 7.1612041,2.7567491 7.2695312,2.734375 7.3778584,2.7120009 7.4880302,2.6950639 7.5996094,2.6835938 7.7111885,2.6721236 7.823242,2.6679688 7.9375,2.6679688 Z"
     style="fill:url(#oomox);stroke-width:0.0421053"
     id="path24"
     class="ColorScheme-Text"/>
  <metadata
     id="metadata9">
    <rdf:RDF>
      <cc:Work
         rdf:about="">
        <dc:creator>
          <cc:Agent>
            <dc:title>dreifacherspass</dc:title>
          </cc:Agent>
        </dc:creator>
        <cc:license
           rdf:resource="http://creativecommons.org/licenses/by-sa/4.0/" />
      </cc:Work>
      <cc:License
         rdf:about="http://creativecommons.org/licenses/by-sa/4.0/">
        <cc:permits
           rdf:resource="http://creativecommons.org/ns#Reproduction" />
        <cc:permits
           rdf:resource="http://creativecommons.org/ns#Distribution" />
        <cc:requires
           rdf:resource="http://creativecommons.org/ns#Notice" />
        <cc:requires
           rdf:resource="http://creativecommons.org/ns#Attribution" />
        <cc:permits
           rdf:resource="http://creativecommons.org/ns#DerivativeWorks" />
        <cc:requires
           rdf:resource="http://creativecommons.org/ns#ShareAlike" />
      </cc:License>
    </rdf:RDF>
  </metadata>
</svg>
