<?xml version="1.0" encoding="UTF-8" standalone="no"?>
<svg
   width="16"
   height="16"
   viewBox="0 0 0.4 0.4"
   version="1.1"
   id="svg350"
   xmlns="http://www.w3.org/2000/svg"
   xmlns:svg="http://www.w3.org/2000/svg"
   xmlns:rdf="http://www.w3.org/1999/02/22-rdf-syntax-ns#"
   xmlns:cc="http://creativecommons.org/ns#"
   xmlns:dc="http://purl.org/dc/elements/1.1/">
  <defs>
   <style id="current-color-scheme" type="text/css">
   .ColorScheme-Text { color: #0abdc6; } .ColorScheme-Highlight { color:#5294e2; }
  </style>
  <linearGradient id="arrongin" x1="0%" x2="0%" y1="0%" y2="100%">
   <stop offset="0%" style="stop-color:#dd9b44; stop-opacity:1"/>
   <stop offset="100%" style="stop-color:#ad6c16; stop-opacity:1"/>
  </linearGradient>
  <linearGradient id="aurora" x1="0%" x2="0%" y1="0%" y2="100%">
   <stop offset="0%" style="stop-color:#09D4DF; stop-opacity:1"/>
   <stop offset="100%" style="stop-color:#9269F4; stop-opacity:1"/>
  </linearGradient>
  <linearGradient id="cyberneon" x1="0%" x2="0%" y1="0%" y2="100%">
    <stop offset="0" style="stop-color:#0abdc6; stop-opacity:1"/>
    <stop offset="1" style="stop-color:#ea00d9; stop-opacity:1"/>
  </linearGradient>
  <linearGradient id="fitdance" x1="0%" x2="0%" y1="0%" y2="100%">
   <stop offset="0%" style="stop-color:#1AD6AB; stop-opacity:1"/>
   <stop offset="100%" style="stop-color:#329DB6; stop-opacity:1"/>
  </linearGradient>
  <linearGradient id="oomox" x1="0%" x2="0%" y1="0%" y2="100%">
   <stop offset="0%" style="stop-color:#0abdc6; stop-opacity:1"/>
   <stop offset="100%" style="stop-color:#b800ff; stop-opacity:1"/>
  </linearGradient>
  <linearGradient id="rainblue" x1="0%" x2="0%" y1="0%" y2="100%">
   <stop offset="0%" style="stop-color:#00F260; stop-opacity:1"/>
   <stop offset="100%" style="stop-color:#0575E6; stop-opacity:1"/>
  </linearGradient>
  <linearGradient id="sunrise" x1="0%" x2="0%" y1="0%" y2="100%">
   <stop offset="0%" style="stop-color: #FF8501; stop-opacity:1"/>
   <stop offset="100%" style="stop-color: #FFCB01; stop-opacity:1"/>
  </linearGradient>
  <linearGradient id="telinkrin" x1="0%" x2="0%" y1="0%" y2="100%">
   <stop offset="0%" style="stop-color: #b2ced6; stop-opacity:1"/>
   <stop offset="100%" style="stop-color: #6da5b7; stop-opacity:1"/>
  </linearGradient>
  <linearGradient id="60spsycho" x1="0%" x2="0%" y1="0%" y2="100%">
   <stop offset="0%" style="stop-color: #df5940; stop-opacity:1"/>
   <stop offset="25%" style="stop-color: #d8d15f; stop-opacity:1"/>
   <stop offset="50%" style="stop-color: #e9882a; stop-opacity:1"/>
   <stop offset="100%" style="stop-color: #279362; stop-opacity:1"/>
  </linearGradient>
  <linearGradient id="90ssummer" x1="0%" x2="0%" y1="0%" y2="100%">
   <stop offset="0%" style="stop-color: #f618c7; stop-opacity:1"/>
   <stop offset="20%" style="stop-color: #94ffab; stop-opacity:1"/>
   <stop offset="50%" style="stop-color: #fbfd54; stop-opacity:1"/>
   <stop offset="100%" style="stop-color: #0f83ae; stop-opacity:1"/>
  </linearGradient>
 </defs>
  <path
     d="m 0.21197214,0.10083878 0.008982,0.0276091 a 0.08327044,0.08327044 0 0 1 0.0290188,-0.0160097 c 0.0118814,-0.003866 0.0223733,-0.006041 0.0318583,-0.00729 l -0.008659,-0.02664252 a 0.19060573,0.19060573 0 0 0 -0.031818,0.0074108 0.10572426,0.10572426 0 0 0 -0.0293821,0.01492217 z m 0.0186679,0.0574939 0.008982,0.0276091 a 0.08327044,0.08327044 0 0 1 0.0290188,-0.0160097 c 0.0118814,-0.003866 0.0223733,-0.006041 0.0318582,-0.00729 l -0.008659,-0.0266425 a 0.19060573,0.19060573 0 0 0 -0.031818,0.007411 0.10491874,0.10491874 0 0 0 -0.029382,0.0149221 z m 0.018688,0.0574737 0.008982,0.0276091 a 0.08327044,0.08327044 0 0 1 0.0290188,-0.0160097 c 0.0118814,-0.003866 0.0223733,-0.006041 0.0318582,-0.00729 l -0.008659,-0.0266425 a 0.19060573,0.19060573 0 0 0 -0.031818,0.007411 0.10491874,0.10491874 0 0 0 -0.029382,0.0149221 z m -0.14221423,0.0437396 0.008659,0.0266425 a 0.1761064,0.1761064 0 0 1 0.0300458,-0.0128077 0.08339127,0.08339127 0 0 1 0.0328853,-0.004088 l -0.008982,-0.0276092 a 0.10572426,0.10572426 0 0 0 -0.0325228,0.005175 0.18941759,0.18941759 0 0 0 -0.0300853,0.0126874 z m -0.0373559,-0.11496757 0.0086593,0.0266425 a 0.17771744,0.17771744 0 0 1 0.03004583,-0.0128077 0.08339127,0.08339127 0 0 1 0.0328853,-0.004088 l -0.008961,-0.0276293 a 0.10598605,0.10598605 0 0 0 -0.03254295,0.005196 0.18941759,0.18941759 0 0 0 -0.03008648,0.0126865 z m 0.01866788,0.0574939 0.0086593,0.0266425 a 0.1761064,0.1761064 0 0 1 0.03004582,-0.0128077 0.08339127,0.08339127 0 0 1 0.0328853,-0.004088 l -0.008961,-0.0276293 a 0.10572426,0.10572426 0 0 0 -0.0325228,0.005175 0.18963911,0.18963911 0 0 0 -0.03010662,0.0127075 z M 0.22141684,0.02459648 A 0.10592563,0.10592563 0 0 0 0.15993567,0.07612951 0.10586522,0.10586522 0 0 0 0.07992758,0.07059157 C 0.02911952,0.08710469 4.076926e-8,0.12349397 4.076926e-8,0.12349397 L 0.08246496,0.37697038 c 0.0025375,0.007793 0.01300913,0.009606 0.01768113,0.00288 0.0100488,-0.0144793 0.0294014,-0.0333886 0.0655893,-0.0451493 0.034597,-0.011237 0.0597896,0.001087 0.0736042,0.0116397 0.005478,0.004189 0.0133313,0.001209 0.0153451,-0.005397 0.005075,-0.016654 0.0182651,-0.0410813 0.0525601,-0.0522176 0.0362282,-0.0117807 0.0630116,-0.007834 0.0796657,-0.002014 0.007753,0.002699 0.0151033,-0.004873 0.0125862,-0.0126668 l -0.082324,-0.25361752 c 0,0 -0.0449479,-0.01232443 -0.0957558,0.0041686 z m -0.002276,0.2788301 a 0.10487846,0.10487846 0 0 0 -0.0632533,8.8613e-4 c -0.0251926,0.008176 -0.0428334,0.0191109 -0.0543523,0.0282737 L 0.03618794,0.13156929 c 0.0072094,-0.007209 0.02390377,-0.0209838 0.05360723,-0.0306298 0.02797162,-0.0090822 0.05090875,-0.0013089 0.06603235,0.007612 z m 0.13883121,-0.054151 c -0.014721,-6.4442e-4 -0.0354227,8.8613e-4 -0.0606152,0.009082 a 0.10481805,0.10481805 0 0 0 -0.0516941,0.0364497 L 0.18234921,0.09993257 c 0.006968,-0.01611037 0.0209435,-0.03588584 0.0489352,-0.04496805 0.0296833,-0.0096461 0.0512914,-0.008317 0.0613603,-0.0067261 z"
     id="path324481"
     class="ColorScheme-Text"
     style="fill:url(#oomox);fill-opacity:1;stroke-width:0.0201379" />
  <metadata
     id="metadata473">
    <rdf:RDF>
      <cc:Work
         rdf:about="">
        <dc:creator>
          <cc:Agent>
            <dc:title>dreifacherspass</dc:title>
          </cc:Agent>
        </dc:creator>
        <cc:license
           rdf:resource="http://creativecommons.org/licenses/by-sa/4.0/" />
      </cc:Work>
      <cc:License
         rdf:about="http://creativecommons.org/licenses/by-sa/4.0/">
        <cc:permits
           rdf:resource="http://creativecommons.org/ns#Reproduction" />
        <cc:permits
           rdf:resource="http://creativecommons.org/ns#Distribution" />
        <cc:requires
           rdf:resource="http://creativecommons.org/ns#Notice" />
        <cc:requires
           rdf:resource="http://creativecommons.org/ns#Attribution" />
        <cc:permits
           rdf:resource="http://creativecommons.org/ns#DerivativeWorks" />
        <cc:requires
           rdf:resource="http://creativecommons.org/ns#ShareAlike" />
      </cc:License>
    </rdf:RDF>
  </metadata>
</svg>
