<?xml version="1.0" encoding="UTF-8" standalone="no"?>
<svg
   height="16"
   viewBox="0 0 42 42"
   width="16"
   version="1.1"
   id="svg1"
   xmlns:xlink="http://www.w3.org/1999/xlink"
   xmlns="http://www.w3.org/2000/svg"
   xmlns:svg="http://www.w3.org/2000/svg"
   xmlns:rdf="http://www.w3.org/1999/02/22-rdf-syntax-ns#"
   xmlns:cc="http://creativecommons.org/ns#"
   xmlns:dc="http://purl.org/dc/elements/1.1/">
  <defs>
   <style id="current-color-scheme" type="text/css">
   .ColorScheme-Text { color: #0abdc6; } .ColorScheme-Highlight { color:#5294e2; }
  </style>
  <linearGradient id="arrongin" x1="0%" x2="0%" y1="0%" y2="100%">
   <stop offset="0%" style="stop-color:#dd9b44; stop-opacity:1"/>
   <stop offset="100%" style="stop-color:#ad6c16; stop-opacity:1"/>
  </linearGradient>
  <linearGradient id="aurora" x1="0%" x2="0%" y1="0%" y2="100%">
   <stop offset="0%" style="stop-color:#09D4DF; stop-opacity:1"/>
   <stop offset="100%" style="stop-color:#9269F4; stop-opacity:1"/>
  </linearGradient>
  <linearGradient id="cyberneon" x1="0%" x2="0%" y1="0%" y2="100%">
    <stop offset="0" style="stop-color:#0abdc6; stop-opacity:1"/>
    <stop offset="1" style="stop-color:#ea00d9; stop-opacity:1"/>
  </linearGradient>
  <linearGradient id="fitdance" x1="0%" x2="0%" y1="0%" y2="100%">
   <stop offset="0%" style="stop-color:#1AD6AB; stop-opacity:1"/>
   <stop offset="100%" style="stop-color:#329DB6; stop-opacity:1"/>
  </linearGradient>
  <linearGradient id="oomox" x1="0%" x2="0%" y1="0%" y2="100%">
   <stop offset="0%" style="stop-color:#0abdc6; stop-opacity:1"/>
   <stop offset="100%" style="stop-color:#b800ff; stop-opacity:1"/>
  </linearGradient>
  <linearGradient id="rainblue" x1="0%" x2="0%" y1="0%" y2="100%">
   <stop offset="0%" style="stop-color:#00F260; stop-opacity:1"/>
   <stop offset="100%" style="stop-color:#0575E6; stop-opacity:1"/>
  </linearGradient>
  <linearGradient id="sunrise" x1="0%" x2="0%" y1="0%" y2="100%">
   <stop offset="0%" style="stop-color: #FF8501; stop-opacity:1"/>
   <stop offset="100%" style="stop-color: #FFCB01; stop-opacity:1"/>
  </linearGradient>
  <linearGradient id="telinkrin" x1="0%" x2="0%" y1="0%" y2="100%">
   <stop offset="0%" style="stop-color: #b2ced6; stop-opacity:1"/>
   <stop offset="100%" style="stop-color: #6da5b7; stop-opacity:1"/>
  </linearGradient>
  <linearGradient id="60spsycho" x1="0%" x2="0%" y1="0%" y2="100%">
   <stop offset="0%" style="stop-color: #df5940; stop-opacity:1"/>
   <stop offset="25%" style="stop-color: #d8d15f; stop-opacity:1"/>
   <stop offset="50%" style="stop-color: #e9882a; stop-opacity:1"/>
   <stop offset="100%" style="stop-color: #279362; stop-opacity:1"/>
  </linearGradient>
  <linearGradient id="90ssummer" x1="0%" x2="0%" y1="0%" y2="100%">
   <stop offset="0%" style="stop-color: #f618c7; stop-opacity:1"/>
   <stop offset="20%" style="stop-color: #94ffab; stop-opacity:1"/>
   <stop offset="50%" style="stop-color: #fbfd54; stop-opacity:1"/>
   <stop offset="100%" style="stop-color: #0f83ae; stop-opacity:1"/>
  </linearGradient>
 </defs>
  <path
     style="fill:url(#oomox);fill-opacity:1;stroke-width:1.04983"
     d="m 20.99869,13.652594 a 13.66144,13.66144 0 0 1 5.24915,-1.049831 22.676332,22.676332 0 0 1 4.724236,0.524916 9.7760186,9.7760186 0 0 0 -9.973386,-8.9235569 c -6.082717,0 -9.633242,4.1993207 -9.973387,8.9235569 a 22.947189,22.947189 0 0 1 4.724236,-0.524916 13.457773,13.457773 0 0 1 5.249151,1.049831 z m 3.674405,-5.2491512 c 1.269245,0 2.624576,0.909153 2.624576,2.0996602 H 22.04852 c 0,-1.1905072 1.355331,-2.0996602 2.624575,-2.0996602 z m -7.348811,0 c 1.269245,0 2.624576,0.909153 2.624576,2.0996602 h -5.249152 c 0,-1.1905072 1.355331,-2.0996602 2.624576,-2.0996602 z"
     id="path4"
     class="ColorScheme-Text"/>
  <path
     style="fill:url(#oomox);fill-opacity:1;stroke-width:1.04983"
     d="m 41.651999,26.207512 a 3.171537,3.171537 0 0 0 -2.790448,-1.600991 1.6524327,1.6524327 0 0 0 -0.112332,-1.346932 l -0.782124,-1.435118 a 1.8676479,1.8676479 0 0 0 -1.382627,-0.935398 l -0.734881,-1.341684 a 2.5290409,2.5290409 0 0 0 0.240411,-2.793597 2.3967623,2.3967623 0 0 0 -2.493346,-1.526453 7.3897547,7.3897547 0 0 1 0,3.14949 3.4350443,3.4350443 0 0 0 0,1.574745 c 0.04934,0.159574 -0.04934,0.314949 0,0.524915 0.238311,0.042 -0.07244,0.163773 0.173222,0.146977 l 0.685539,1.259796 a 1.6576819,1.6576819 0 0 0 -0.01995,1.634585 l 0.782124,1.435118 a 1.8403523,1.8403523 0 0 0 1.097073,0.873459 2.7925483,2.7925483 0 0 0 -0.24986,3.061304 3.1379425,3.1379425 0 0 0 2.441905,1.584194 0.82936585,0.82936585 0 0 0 0.08609,0 0.74222994,0.74222994 0 0 0 0.752728,-0.629898 0.72228317,0.72228317 0 0 0 -0.667692,-0.786322 1.6230374,1.6230374 0 0 1 -1.259796,-0.818868 1.4781609,1.4781609 0 0 1 0.705486,-2.047169 1.7091235,1.7091235 0 0 1 1.23775,-0.09344 1.5873433,1.5873433 0 0 1 0.944847,0.754828 1.4382673,1.4382673 0 0 1 -0.02415,1.428819 0.6886886,0.6886886 0 0 0 0.298152,0.965843 0.78527298,0.78527298 0 0 0 1.029884,-0.279254 2.7799503,2.7799503 0 0 0 0.04199,-2.764203 z"
     id="path3"
     class="ColorScheme-Text"/>
  <path
     style="fill:url(#oomox);fill-opacity:1;stroke-width:1.04983"
     d="m 6.7797898,24.947716 0.7810737,-1.434068 a 1.6576819,1.6576819 0 0 0 -0.019946,-1.634586 l 0.6855391,-1.259796 c 0.2099661,0.0147 -0.031495,-0.118631 0.1732219,-0.146976 0.053541,-0.227813 -0.053541,-0.352743 0,-0.524915 a 3.4318948,3.4318948 0 0 0 0,-1.574746 7.5073357,7.5073357 0 0 1 0,-3.14949 2.4838982,2.4838982 0 0 0 -2.4964961,1.520154 2.5290409,2.5290409 0 0 0 0.2404111,2.793598 L 5.4087116,20.878574 A 1.8676479,1.8676479 0 0 0 4.0260852,21.813973 L 3.248161,23.25434 a 1.6555822,1.6555822 0 0 0 -0.019946,1.561097 3.1788858,3.1788858 0 0 0 -2.88283368,1.600992 2.7799503,2.7799503 0 0 0 0.0461925,2.762103 0.78527298,0.78527298 0 0 0 1.02988338,0.279254 0.6886886,0.6886886 0 0 0 0.2981518,-0.965843 1.4382673,1.4382673 0 0 1 -0.024146,-1.428819 1.6797283,1.6797283 0 0 1 2.182597,-0.661393 1.4781609,1.4781609 0 0 1 0.7054859,2.047168 1.6230374,1.6230374 0 0 1 -1.2597962,0.818868 0.72228317,0.72228317 0 0 0 -0.6676921,0.786323 0.74222994,0.74222994 0 0 0 0.7527283,0.629898 0.82831602,0.82831602 0 0 0 0.086086,0 3.1379425,3.1379425 0 0 0 2.4377057,-1.588393 2.8019968,2.8019968 0 0 0 -0.3957859,-3.237676 1.8550499,1.8550499 0 0 0 1.2429981,-0.910203 z"
     id="path2"
     class="ColorScheme-Text"/>
  <path
     style="fill:url(#oomox);fill-opacity:1;stroke-width:1.04983"
     d="m 33.239709,28.685111 a 1.5033568,1.5033568 0 0 0 -0.692887,-0.334895 h -1.574746 a 8.5298703,8.5298703 0 0 0 1.574746,-5.249152 11.576478,11.576478 0 0 0 -0.524915,-3.14949 2.6445223,2.6445223 0 0 1 0,-1.574745 13.634145,13.634145 0 0 0 0.524915,-3.674406 c -7.013915,-2.052417 -11.548132,0 -11.548132,0 0,0 -4.527918,-2.03247 -11.5481323,0 a 13.933347,13.933347 0 0 0 0.5249152,3.674406 2.6445223,2.6445223 0 0 1 0,1.574745 11.653115,11.653115 0 0 0 -0.5249152,3.14949 8.4353856,8.4353856 0 0 0 1.5747453,5.249152 H 9.4505577 a 1.9610828,1.9610828 0 0 0 -0.822017,0.334895 3.6502595,3.6502595 0 0 0 -1.7175221,2.264484 7.4097014,7.4097014 0 0 0 -0.2456603,3.338461 c 0.3222979,2.108058 1.3952244,3.510631 2.7851994,3.510631 h 4.1993203 a 0.39788564,0.39788564 0 0 0 0.290803,-0.196318 l 1.882346,-1.556898 a 3.4255959,3.4255959 0 0 0 0.765326,-2.177348 8.2485157,8.2485157 0 0 0 0.02835,-0.921751 24.320366,24.320366 0 0 0 4.381992,1.702824 25.615857,25.615857 0 0 0 4.252862,-1.694425 8.2390673,8.2390673 0 0 0 0.02835,0.912302 3.4255959,3.4255959 0 0 0 0.765326,2.177348 l 1.882346,1.557948 a 0.64039641,0.64039641 0 0 0 0.419932,0.196318 h 4.199321 c 1.389974,0 2.333772,-1.402573 2.65502,-3.509582 a 7.4086516,7.4086516 0 0 0 -0.24566,-3.33846 3.6502595,3.6502595 0 0 0 -1.716473,-2.265534 z m -17.919551,6.823897 c -0.01995,0.0094 -0.982641,0.813618 -1.530653,1.268195 a 0.43882902,0.43882902 0 0 1 -0.658243,-0.116531 9.786517,9.786517 0 0 1 -0.314948,-6.271687 16.63246,16.63246 0 0 0 3.038208,2.150053 c 0.05354,1.081325 -0.169023,2.775751 -0.534364,2.975219 z m 6.728362,-7.158792 h -2.09966 l 0.524915,-5.249152 a 2.0996604,2.0996604 0 1 1 1.04983,0 z m 6.697916,8.315705 a 0.43882902,0.43882902 0 0 1 -0.658243,0.116531 c -0.548012,-0.454577 -1.510706,-1.259796 -1.530652,-1.268195 -0.365342,-0.198418 -0.587905,-1.889695 -0.530164,-2.96892 a 16.62931,16.62931 0 0 0 3.044507,-2.138504 9.786517,9.786517 0 0 1 -0.325448,6.259088 z"
     id="path1"
     class="ColorScheme-Text"/>
  <metadata
     id="metadata1">
    <rdf:RDF>
      <cc:Work
         rdf:about="">
        <dc:creator>
          <cc:Agent>
            <dc:title>dreifacherfspass</dc:title>
          </cc:Agent>
        </dc:creator>
        <cc:license
           rdf:resource="http://creativecommons.org/licenses/by-sa/4.0/" />
      </cc:Work>
      <cc:License
         rdf:about="http://creativecommons.org/licenses/by-sa/4.0/">
        <cc:permits
           rdf:resource="http://creativecommons.org/ns#Reproduction" />
        <cc:permits
           rdf:resource="http://creativecommons.org/ns#Distribution" />
        <cc:requires
           rdf:resource="http://creativecommons.org/ns#Notice" />
        <cc:requires
           rdf:resource="http://creativecommons.org/ns#Attribution" />
        <cc:permits
           rdf:resource="http://creativecommons.org/ns#DerivativeWorks" />
        <cc:requires
           rdf:resource="http://creativecommons.org/ns#ShareAlike" />
      </cc:License>
    </rdf:RDF>
  </metadata>
</svg>
