<?xml version="1.0" encoding="UTF-8" standalone="no"?>
<!-- Created with Inkscape (http://www.inkscape.org/) -->

<svg
   version="1.1"
   width="16"
   height="16"
   id="svg2"
   xmlns:xlink="http://www.w3.org/1999/xlink"
   xmlns="http://www.w3.org/2000/svg"
   xmlns:svg="http://www.w3.org/2000/svg"
   xmlns:rdf="http://www.w3.org/1999/02/22-rdf-syntax-ns#"
   xmlns:cc="http://creativecommons.org/ns#"
   xmlns:dc="http://purl.org/dc/elements/1.1/">
  <defs>
   <style id="current-color-scheme" type="text/css">
   .ColorScheme-Text { color: #0abdc6; } .ColorScheme-Highlight { color:#5294e2; }
  </style>
  <linearGradient id="arrongin" x1="0%" x2="0%" y1="0%" y2="100%">
   <stop offset="0%" style="stop-color:#dd9b44; stop-opacity:1"/>
   <stop offset="100%" style="stop-color:#ad6c16; stop-opacity:1"/>
  </linearGradient>
  <linearGradient id="aurora" x1="0%" x2="0%" y1="0%" y2="100%">
   <stop offset="0%" style="stop-color:#09D4DF; stop-opacity:1"/>
   <stop offset="100%" style="stop-color:#9269F4; stop-opacity:1"/>
  </linearGradient>
  <linearGradient id="cyberneon" x1="0%" x2="0%" y1="0%" y2="100%">
    <stop offset="0" style="stop-color:#0abdc6; stop-opacity:1"/>
    <stop offset="1" style="stop-color:#ea00d9; stop-opacity:1"/>
  </linearGradient>
  <linearGradient id="fitdance" x1="0%" x2="0%" y1="0%" y2="100%">
   <stop offset="0%" style="stop-color:#1AD6AB; stop-opacity:1"/>
   <stop offset="100%" style="stop-color:#329DB6; stop-opacity:1"/>
  </linearGradient>
  <linearGradient id="oomox" x1="0%" x2="0%" y1="0%" y2="100%">
   <stop offset="0%" style="stop-color:#0abdc6; stop-opacity:1"/>
   <stop offset="100%" style="stop-color:#b800ff; stop-opacity:1"/>
  </linearGradient>
  <linearGradient id="rainblue" x1="0%" x2="0%" y1="0%" y2="100%">
   <stop offset="0%" style="stop-color:#00F260; stop-opacity:1"/>
   <stop offset="100%" style="stop-color:#0575E6; stop-opacity:1"/>
  </linearGradient>
  <linearGradient id="sunrise" x1="0%" x2="0%" y1="0%" y2="100%">
   <stop offset="0%" style="stop-color: #FF8501; stop-opacity:1"/>
   <stop offset="100%" style="stop-color: #FFCB01; stop-opacity:1"/>
  </linearGradient>
  <linearGradient id="telinkrin" x1="0%" x2="0%" y1="0%" y2="100%">
   <stop offset="0%" style="stop-color: #b2ced6; stop-opacity:1"/>
   <stop offset="100%" style="stop-color: #6da5b7; stop-opacity:1"/>
  </linearGradient>
  <linearGradient id="60spsycho" x1="0%" x2="0%" y1="0%" y2="100%">
   <stop offset="0%" style="stop-color: #df5940; stop-opacity:1"/>
   <stop offset="25%" style="stop-color: #d8d15f; stop-opacity:1"/>
   <stop offset="50%" style="stop-color: #e9882a; stop-opacity:1"/>
   <stop offset="100%" style="stop-color: #279362; stop-opacity:1"/>
  </linearGradient>
  <linearGradient id="90ssummer" x1="0%" x2="0%" y1="0%" y2="100%">
   <stop offset="0%" style="stop-color: #f618c7; stop-opacity:1"/>
   <stop offset="20%" style="stop-color: #94ffab; stop-opacity:1"/>
   <stop offset="50%" style="stop-color: #fbfd54; stop-opacity:1"/>
   <stop offset="100%" style="stop-color: #0f83ae; stop-opacity:1"/>
  </linearGradient>
 </defs>
  <metadata
     id="metadata7">
    <rdf:RDF>
      <cc:Work
         rdf:about="">
        <dc:format>image/svg+xml</dc:format>
        <dc:type
           rdf:resource="http://purl.org/dc/dcmitype/StillImage" />
        <dc:creator>
          <cc:Agent>
            <dc:title>dreifacherspass</dc:title>
          </cc:Agent>
        </dc:creator>
        <cc:license
           rdf:resource="http://creativecommons.org/licenses/by-sa/4.0/" />
      </cc:Work>
      <cc:License
         rdf:about="http://creativecommons.org/licenses/by-sa/4.0/">
        <cc:permits
           rdf:resource="http://creativecommons.org/ns#Reproduction" />
        <cc:permits
           rdf:resource="http://creativecommons.org/ns#Distribution" />
        <cc:requires
           rdf:resource="http://creativecommons.org/ns#Notice" />
        <cc:requires
           rdf:resource="http://creativecommons.org/ns#Attribution" />
        <cc:permits
           rdf:resource="http://creativecommons.org/ns#DerivativeWorks" />
        <cc:requires
           rdf:resource="http://creativecommons.org/ns#ShareAlike" />
      </cc:License>
    </rdf:RDF>
  </metadata>
  <path
     style="fill:url(#oomox);stroke-width:0.167586"
     d="M 8.9798494,0.49412977 C 9.422879,1.4824266 9.7977502,2.828555 9.8829482,3.680535 L 11.672106,3.1352678 C 11.535789,2.2662482 11.143879,0.97123858 10.64973,-1.8642426e-5 Z M 5.8786421,1.0223574 C 6.3727905,1.9084166 6.8669389,3.1011886 7.0202953,3.9020498 H 6.3727905 V 10.462296 H 9.763671 V 11.56987 H 5.5548897 v 1.806198 H 9.763671 v 2.692257 h 1.942514 v -2.692257 h 4.225821 V 11.56987 H 11.706185 V 10.462296 H 15.3697 V 3.9020498 H 13.870215 C 14.432521,3.0671094 15.080026,1.9936146 15.676412,1.0223574 L 13.853175,0.13629816 C 13.427185,1.2609118 12.643363,2.743357 12.012898,3.6634954 l 0.42599,0.2385544 H 7.1736517 L 8.7753742,3.2886242 C 8.5879386,2.4707234 8.0767506,1.3120306 7.4974041,0.44301097 Z M 8.1278694,7.8893163 H 9.763671 V 8.928732 H 8.1278694 Z m 3.5783156,0 h 1.806198 V 8.928732 H 11.706185 Z M 8.1278694,5.4356139 H 9.763671 v 1.022376 H 8.1278694 Z m 3.5783156,0 h 1.806198 v 1.022376 H 11.706185 Z M 0.54524719,4.6858715 C 0.46004918,6.5261483 0.23853438,8.8605736 -2.0026207e-5,10.360058 L 1.7720984,10.632692 1.874336,9.7977516 H 3.5101377 C 3.3738208,12.507048 3.2034248,13.614622 2.9307912,13.904295 c -0.170396,0.187436 -0.3237524,0.221515 -0.596386,0.204475 -0.340792,0 -1.0394156,0 -1.78915801,-0.06816 0.340792,0.562307 0.57934641,1.380208 0.63046521,1.993633 0.8179008,0.03408 1.6017224,0.03408 2.0788312,-0.05112 0.5623069,-0.06816 0.9201385,-0.221515 1.2950097,-0.681585 0.4941484,-0.613425 0.681584,-2.334425 0.8690196,-6.4750476 0.01704,-0.2555941 0.034079,-0.7838217 0.034079,-0.7838217 H 2.0617716 L 2.1980884,6.5091087 H 5.4526521 V 0.97123858 H 0.32373238 V 2.7944758 H 3.5101377 v 1.8913957 z"
     id="text3427"
     class="ColorScheme-Text"
     transform="scale(1.004269,0.99574915)"/>
</svg>
