<?xml version="1.0" encoding="UTF-8" standalone="no"?>
<svg
   width="16"
   height="16"
   version="1.1"
   id="svg7"
   xmlns:xlink="http://www.w3.org/1999/xlink"
   xmlns="http://www.w3.org/2000/svg"
   xmlns:svg="http://www.w3.org/2000/svg"
   xmlns:rdf="http://www.w3.org/1999/02/22-rdf-syntax-ns#"
   xmlns:cc="http://creativecommons.org/ns#"
   xmlns:dc="http://purl.org/dc/elements/1.1/">
  <defs>
   <style id="current-color-scheme" type="text/css">
   .ColorScheme-Text { color: #0abdc6; } .ColorScheme-Highlight { color:#5294e2; }
  </style>
  <linearGradient id="arrongin" x1="0%" x2="0%" y1="0%" y2="100%">
   <stop offset="0%" style="stop-color:#dd9b44; stop-opacity:1"/>
   <stop offset="100%" style="stop-color:#ad6c16; stop-opacity:1"/>
  </linearGradient>
  <linearGradient id="aurora" x1="0%" x2="0%" y1="0%" y2="100%">
   <stop offset="0%" style="stop-color:#09D4DF; stop-opacity:1"/>
   <stop offset="100%" style="stop-color:#9269F4; stop-opacity:1"/>
  </linearGradient>
  <linearGradient id="cyberneon" x1="0%" x2="0%" y1="0%" y2="100%">
    <stop offset="0" style="stop-color:#0abdc6; stop-opacity:1"/>
    <stop offset="1" style="stop-color:#ea00d9; stop-opacity:1"/>
  </linearGradient>
  <linearGradient id="fitdance" x1="0%" x2="0%" y1="0%" y2="100%">
   <stop offset="0%" style="stop-color:#1AD6AB; stop-opacity:1"/>
   <stop offset="100%" style="stop-color:#329DB6; stop-opacity:1"/>
  </linearGradient>
  <linearGradient id="oomox" x1="0%" x2="0%" y1="0%" y2="100%">
   <stop offset="0%" style="stop-color:#0abdc6; stop-opacity:1"/>
   <stop offset="100%" style="stop-color:#b800ff; stop-opacity:1"/>
  </linearGradient>
  <linearGradient id="rainblue" x1="0%" x2="0%" y1="0%" y2="100%">
   <stop offset="0%" style="stop-color:#00F260; stop-opacity:1"/>
   <stop offset="100%" style="stop-color:#0575E6; stop-opacity:1"/>
  </linearGradient>
  <linearGradient id="sunrise" x1="0%" x2="0%" y1="0%" y2="100%">
   <stop offset="0%" style="stop-color: #FF8501; stop-opacity:1"/>
   <stop offset="100%" style="stop-color: #FFCB01; stop-opacity:1"/>
  </linearGradient>
  <linearGradient id="telinkrin" x1="0%" x2="0%" y1="0%" y2="100%">
   <stop offset="0%" style="stop-color: #b2ced6; stop-opacity:1"/>
   <stop offset="100%" style="stop-color: #6da5b7; stop-opacity:1"/>
  </linearGradient>
  <linearGradient id="60spsycho" x1="0%" x2="0%" y1="0%" y2="100%">
   <stop offset="0%" style="stop-color: #df5940; stop-opacity:1"/>
   <stop offset="25%" style="stop-color: #d8d15f; stop-opacity:1"/>
   <stop offset="50%" style="stop-color: #e9882a; stop-opacity:1"/>
   <stop offset="100%" style="stop-color: #279362; stop-opacity:1"/>
  </linearGradient>
  <linearGradient id="90ssummer" x1="0%" x2="0%" y1="0%" y2="100%">
   <stop offset="0%" style="stop-color: #f618c7; stop-opacity:1"/>
   <stop offset="20%" style="stop-color: #94ffab; stop-opacity:1"/>
   <stop offset="50%" style="stop-color: #fbfd54; stop-opacity:1"/>
   <stop offset="100%" style="stop-color: #0f83ae; stop-opacity:1"/>
  </linearGradient>
 </defs>
  <path
     style="fill:url(#oomox);stroke-width:0.837696"
     d="m 3.124781,15.119634 c 0.1913768,0.0055 0.4062568,-0.01701 0.621079,-0.06047 0.6355736,-0.1325 1.1754019,-0.407716 1.5902626,-0.895655 0.2523008,-0.297547 0.4644088,-0.620003 0.6472386,-0.95914 C 6.198299,12.804767 6.3778952,12.388431 6.5345076,11.966993 6.7258843,11.457217 6.8883865,10.936304 7.0134689,10.409794 7.082939,10.114826 7.0048071,9.9300323 6.6623032,9.8284172 6.2271727,9.6989294 5.7888079,9.5831581 5.3419555,9.48928 4.6021465,9.3348825 3.8564468,9.2358464 3.0958495,9.2602622 2.8809695,9.2684716 2.6665511,9.290436 2.4544432,9.3262643 1.8391966,9.4283736 1.3169817,9.6984871 0.89045573,10.125522 c -0.72854767,0.7276 -1.01832686,1.59577 -0.83867299,2.585363 0.25819108,1.414049 1.57576736,2.419883 3.07299826,2.408745 z"
     id="path3"
     class="ColorScheme-Text"/>
  <path
     style="fill:url(#oomox);stroke-width:0.837696"
     d="m 4.9435111,3.9715906 c -0.00821,0.2154906 0.030073,0.4510612 0.09356,0.6866867 0.120955,0.4483158 0.3214157,0.8591029 0.5578027,1.2471238 0.5385006,0.8823858 1.2172574,1.6378329 1.953704,2.3392227 0.060314,0.057659 0.1321105,0.1063439 0.2089918,0.1434689 0.076993,0.040042 0.1538731,0.040042 0.2334341,0.0057 0.076884,-0.03432 0.1456704,-0.083175 0.2034145,-0.1466153 C 8.4499975,7.9829434 8.7026249,7.7183143 8.944534,7.4452185 9.2851983,7.0571976 9.6096214,6.6580219 9.9036419,6.2297865 10.170377,5.8418225 10.409279,5.4336658 10.584969,4.9911284 10.76066,4.5512809 10.846073,4.0975885 10.788384,3.6205573 10.6922,2.8334058 10.370838,2.1664541 9.7964126,1.6434871 9.1172176,1.0261324 8.3260896,0.7789498 7.4357709,0.91664212 5.9877038,1.1410566 4.9379337,2.4744451 4.9435111,3.9714967 Z"
     id="path4"
     class="ColorScheme-Text"/>
  <path
     style="fill:url(#oomox);stroke-width:0.837696"
     d="m 12.87522,15.119634 c -0.191377,0.0055 -0.406257,-0.01701 -0.621079,-0.06047 -0.635574,-0.1325 -1.175402,-0.407716 -1.590263,-0.895655 -0.252301,-0.297547 -0.464409,-0.620003 -0.647239,-0.95914 C 9.8017018,12.804767 9.6221056,12.388431 9.4654932,11.966993 9.2741164,11.457217 9.1116142,10.936304 8.9865319,10.409794 8.9170618,10.114826 8.9951937,9.9300323 9.3376976,9.8284172 9.7728281,9.6989294 10.211192,9.5831581 10.658045,9.48928 c 0.739809,-0.1543975 1.485509,-0.2534336 2.246106,-0.2290178 0.21488,0.00821 0.429299,0.030174 0.641407,0.066002 0.615246,0.1021093 1.137461,0.3722228 1.563987,0.7992578 0.728547,0.7276 1.018326,1.59577 0.838672,2.585363 -0.25819,1.414049 -1.575767,2.419883 -3.072997,2.408745 z"
     id="path5"
     class="ColorScheme-Text"/>
  <path
     style="display:inline;opacity:0.2;fill:#ffffff;stroke-width:0.837696"
     d="M 7.9253935,0.87961921 C 7.7655166,0.87847156 7.6031258,0.8914324 7.4361914,0.9172502 5.9881243,1.1416647 4.9371589,2.4748453 4.9427362,3.9718968 c -0.00477,0.1264115 0.00946,0.2596153 0.03272,0.395942 C 5.1545922,3.0583879 6.1328498,1.956932 7.4361897,1.7549466 7.6031258,1.7291288 7.7655158,1.7161679 7.9253935,1.7173156 8.618191,1.7222831 9.2452754,1.9797855 9.7971204,2.4813863 10.342562,2.9779641 10.656046,3.605872 10.76898,4.3416608 10.807974,4.1066193 10.818362,3.8661557 10.788615,3.6201298 10.692428,2.8329783 10.371547,2.1666569 9.7971204,1.6436899 9.2452754,1.1420892 8.618191,0.88459077 7.9253935,0.87961921 Z M 3.3802357,9.256583 C 3.2856095,9.2559101 3.1906256,9.2568033 3.0955496,9.25985 2.8806713,9.2680595 2.6662964,9.2911045 2.4541887,9.3269328 1.8389422,9.4290454 1.3165785,9.6983305 0.89005255,10.125366 0.1978418,10.816676 -0.0920039,11.636172 0.03435882,12.564829 0.1269809,11.975001 0.41414748,11.438348 0.89005255,10.963062 1.3165785,10.536027 1.8389422,10.266742 2.4541887,10.164633 c 0.2121077,-0.03583 0.4264817,-0.05887 0.6413609,-0.06708 0.095075,-0.003 0.1900599,-0.0039 0.2846861,-0.0033 0.6623874,0.0047 1.3143824,0.09723 1.9617148,0.23233 0.4468524,0.09388 0.885223,0.210826 1.3203535,0.340314 0.1116264,0.03312 0.1923711,0.07762 0.2519632,0.129257 0.035032,-0.128218 0.069169,-0.257192 0.099804,-0.386126 C 7.0835413,10.115087 7.0048062,9.9308457 6.662304,9.8292306 6.2271735,9.6997428 5.7888029,9.5827945 5.3419505,9.4889164 4.6946181,9.3538153 4.0426231,9.2612934 3.3802357,9.256583 Z m 9.2392013,0 C 11.957051,9.261273 11.305056,9.353815 10.657723,9.4889131 10.210869,9.5827912 9.7724997,9.6997395 9.3373692,9.8292272 8.9948653,9.9308423 8.9177688,10.115084 8.987239,10.410052 c 0.030626,0.128931 0.063288,0.257911 0.098167,0.386126 0.059359,-0.05164 0.1403367,-0.09614 0.2519631,-0.129254 0.4351305,-0.129488 0.8734999,-0.246436 1.3203539,-0.340315 0.647333,-0.135097 1.299328,-0.227638 1.961714,-0.23233 0.09463,-6.7e-4 0.189612,2.57e-4 0.284686,0.0033 0.21488,0.0082 0.429254,0.03125 0.641362,0.06708 0.615246,0.10211 1.137609,0.371395 1.564135,0.798429 0.477255,0.476634 0.765074,1.014865 0.857331,1.606676 0.127912,-0.930662 -0.163914,-1.751856 -0.857331,-2.444372 -0.426526,-0.4270346 -0.948889,-0.6963196 -1.564135,-0.7984289 -0.212108,-0.035828 -0.426482,-0.058873 -0.641362,-0.067083 -0.09507,-0.00302 -0.190059,-0.00394 -0.284686,-0.00327 z"
     id="path7" />
  <metadata
     id="metadata7">
    <rdf:RDF>
      <cc:Work
         rdf:about="">
        <dc:creator>
          <cc:Agent>
            <dc:title>dreifacherspass</dc:title>
          </cc:Agent>
        </dc:creator>
        <cc:license
           rdf:resource="http://creativecommons.org/licenses/by-sa/4.0/" />
      </cc:Work>
      <cc:License
         rdf:about="http://creativecommons.org/licenses/by-sa/4.0/">
        <cc:permits
           rdf:resource="http://creativecommons.org/ns#Reproduction" />
        <cc:permits
           rdf:resource="http://creativecommons.org/ns#Distribution" />
        <cc:requires
           rdf:resource="http://creativecommons.org/ns#Notice" />
        <cc:requires
           rdf:resource="http://creativecommons.org/ns#Attribution" />
        <cc:permits
           rdf:resource="http://creativecommons.org/ns#DerivativeWorks" />
        <cc:requires
           rdf:resource="http://creativecommons.org/ns#ShareAlike" />
      </cc:License>
    </rdf:RDF>
  </metadata>
</svg>
