<?xml version="1.0" encoding="UTF-8" standalone="no"?>
<!-- Created with Inkscape (http://www.inkscape.org/) -->

<svg
   width="15.999999"
   height="16"
   viewBox="0 0 15.999999 16"
   version="1.1"
   id="svg4043"
   xmlns:xlink="http://www.w3.org/1999/xlink"
   xmlns="http://www.w3.org/2000/svg"
   xmlns:svg="http://www.w3.org/2000/svg"
   xmlns:rdf="http://www.w3.org/1999/02/22-rdf-syntax-ns#"
   xmlns:cc="http://creativecommons.org/ns#"
   xmlns:dc="http://purl.org/dc/elements/1.1/">
  <defs>
   <style id="current-color-scheme" type="text/css">
   .ColorScheme-Text { color: #0abdc6; } .ColorScheme-Highlight { color:#5294e2; }
  </style>
  <linearGradient id="arrongin" x1="0%" x2="0%" y1="0%" y2="100%">
   <stop offset="0%" style="stop-color:#dd9b44; stop-opacity:1"/>
   <stop offset="100%" style="stop-color:#ad6c16; stop-opacity:1"/>
  </linearGradient>
  <linearGradient id="aurora" x1="0%" x2="0%" y1="0%" y2="100%">
   <stop offset="0%" style="stop-color:#09D4DF; stop-opacity:1"/>
   <stop offset="100%" style="stop-color:#9269F4; stop-opacity:1"/>
  </linearGradient>
  <linearGradient id="cyberneon" x1="0%" x2="0%" y1="0%" y2="100%">
    <stop offset="0" style="stop-color:#0abdc6; stop-opacity:1"/>
    <stop offset="1" style="stop-color:#ea00d9; stop-opacity:1"/>
  </linearGradient>
  <linearGradient id="fitdance" x1="0%" x2="0%" y1="0%" y2="100%">
   <stop offset="0%" style="stop-color:#1AD6AB; stop-opacity:1"/>
   <stop offset="100%" style="stop-color:#329DB6; stop-opacity:1"/>
  </linearGradient>
  <linearGradient id="oomox" x1="0%" x2="0%" y1="0%" y2="100%">
   <stop offset="0%" style="stop-color:#0abdc6; stop-opacity:1"/>
   <stop offset="100%" style="stop-color:#b800ff; stop-opacity:1"/>
  </linearGradient>
  <linearGradient id="rainblue" x1="0%" x2="0%" y1="0%" y2="100%">
   <stop offset="0%" style="stop-color:#00F260; stop-opacity:1"/>
   <stop offset="100%" style="stop-color:#0575E6; stop-opacity:1"/>
  </linearGradient>
  <linearGradient id="sunrise" x1="0%" x2="0%" y1="0%" y2="100%">
   <stop offset="0%" style="stop-color: #FF8501; stop-opacity:1"/>
   <stop offset="100%" style="stop-color: #FFCB01; stop-opacity:1"/>
  </linearGradient>
  <linearGradient id="telinkrin" x1="0%" x2="0%" y1="0%" y2="100%">
   <stop offset="0%" style="stop-color: #b2ced6; stop-opacity:1"/>
   <stop offset="100%" style="stop-color: #6da5b7; stop-opacity:1"/>
  </linearGradient>
  <linearGradient id="60spsycho" x1="0%" x2="0%" y1="0%" y2="100%">
   <stop offset="0%" style="stop-color: #df5940; stop-opacity:1"/>
   <stop offset="25%" style="stop-color: #d8d15f; stop-opacity:1"/>
   <stop offset="50%" style="stop-color: #e9882a; stop-opacity:1"/>
   <stop offset="100%" style="stop-color: #279362; stop-opacity:1"/>
  </linearGradient>
  <linearGradient id="90ssummer" x1="0%" x2="0%" y1="0%" y2="100%">
   <stop offset="0%" style="stop-color: #f618c7; stop-opacity:1"/>
   <stop offset="20%" style="stop-color: #94ffab; stop-opacity:1"/>
   <stop offset="50%" style="stop-color: #fbfd54; stop-opacity:1"/>
   <stop offset="100%" style="stop-color: #0f83ae; stop-opacity:1"/>
  </linearGradient>
     <linearGradient
       id="linearGradient2284"
       gradientTransform="matrix(1.6440072,0,0,0.60826983,-38.207552,-69.729474)"
       x1="0"
       y1="132.57439"
       x2="77.858536"
       y2="132.57439"
       gradientUnits="userSpaceOnUse">
      <stop
         style="stop-color:#41ff00;stop-opacity:1;"
         offset="0"
         id="stop2280" />
      <stop
         style="stop-color:#e7ff00;stop-opacity:1;"
         offset="1"
         id="stop2282" />
    </linearGradient>
 </defs>
  <metadata
     id="metadata4040">
    <rdf:RDF>
      <cc:Work
         rdf:about="">
        <dc:format>image/svg+xml</dc:format>
        <dc:type
           rdf:resource="http://purl.org/dc/dcmitype/StillImage" />
        <dc:creator>
          <cc:Agent>
            <dc:title>dreifacherspass</dc:title>
          </cc:Agent>
        </dc:creator>
        <cc:license
           rdf:resource="http://creativecommons.org/licenses/by-sa/4.0/" />
      </cc:Work>
      <cc:License
         rdf:about="http://creativecommons.org/licenses/by-sa/4.0/">
        <cc:permits
           rdf:resource="http://creativecommons.org/ns#Reproduction" />
        <cc:permits
           rdf:resource="http://creativecommons.org/ns#Distribution" />
        <cc:requires
           rdf:resource="http://creativecommons.org/ns#Notice" />
        <cc:requires
           rdf:resource="http://creativecommons.org/ns#Attribution" />
        <cc:permits
           rdf:resource="http://creativecommons.org/ns#DerivativeWorks" />
        <cc:requires
           rdf:resource="http://creativecommons.org/ns#ShareAlike" />
      </cc:License>
    </rdf:RDF>
  </metadata>
  <path
     style="display:inline;opacity:1;vector-effect:none;fill:url(#oomox);fill-opacity:1;stroke:none;stroke-width:4;stroke-linecap:round;stroke-linejoin:round;stroke-miterlimit:4;stroke-dasharray:none;stroke-dashoffset:0;stroke-opacity:1;enable-background:new"
     d="M 4 0 A 0.99998474 0.99998474 0 0 0 3 1 A 0.99998474 0.99998474 0 0 0 3.5 1.8632812 L 3.5 3.1347656 A 0.99998474 0.99998474 0 0 0 3 4 L 2 4 C 0.892 4 0 4.892 0 6 L 0 14 C 0 15.108 0.892 16 2 16 L 14 16 C 15.108 16 16 15.108 16 14 L 16 6 C 16 4.892 15.108 4 14 4 L 5 4 A 0.99998474 0.99998474 0 0 0 4.5 3.1367188 L 4.5 1.8652344 A 0.99998474 0.99998474 0 0 0 5 1 A 0.99998474 0.99998474 0 0 0 4 0 z M 5.5 6 C 6.4520125 6 7.3123764 6.3832888 7.9433594 7 L 3.0566406 7 C 3.6876232 6.3832888 4.547989 6 5.5 6 z M 2.3496094 8 L 8.6503906 8 C 8.7987581 8.3109665 8.898186 8.6466219 8.9492188 9 L 2.0507812 9 C 2.1018141 8.6466219 2.2012419 8.3109665 2.3496094 8 z M 12 8 C 13.10457 8 14 8.89543 14 10 C 14 11.104569 13.10457 12 12 12 C 10.89543 12 10 11.104569 10 10 C 10 8.89543 10.89543 8 12 8 z M 12 9 A 1 1 0 0 0 11 10 A 1 1 0 0 0 12 11 A 1 1 0 0 0 13 10 A 1 1 0 0 0 12 9 z M 2.0507812 10 L 8.9492188 10 C 8.898186 10.353378 8.7987581 10.689034 8.6503906 11 L 2.3496094 11 C 2.2012419 10.689034 2.101814 10.353378 2.0507812 10 z M 3.0566406 12 L 7.9433594 12 C 7.3123764 12.616711 6.4520125 13 5.5 13 C 4.547989 13 3.6876232 12.616711 3.0566406 12 z "
     id="rect2562"
     class="ColorScheme-Text"/>
  <circle
     style="display:inline;opacity:1;vector-effect:none;fill:url(#oomox);fill-opacity:1;stroke:none;stroke-width:3.99999976;stroke-linecap:round;stroke-linejoin:round;stroke-miterlimit:4;stroke-dasharray:none;stroke-dashoffset:0;stroke-opacity:1;enable-background:new"
     id="circle2634"
     class="ColorScheme-Text"
     cx="96.8507"
     cy="68.763771"
     r="0.99998474"
     transform="translate(-92.850717,-67.763788)" />
    <g
     id="g1840"
     transform="matrix(0.12499902,0,0,0.12579281,4.7759067,8.6699615)">
    <path
       d="m 89.792448,10.911526 v 47.359 h -128 v -47.359 z"
       id="path359"
       style="fill:url(#linearGradient2284);fill-opacity:1" />
    <path
       d="m -24.898552,10.911526 47.355,47.359 h 21.215 l -47.3590004,-47.359 z m 42.422,0 47.363,47.359 h 21.215 l -47.363,-47.359 z m 42.43,0 29.84,29.84 v -21.211 l -8.6289,-8.6289 z m -98.16,7.9062 v 21.215 l 18.238,18.238 H 1.2464476 Z"
       id="path361"
       style="fill:#000000;fill-opacity:1" />
  </g>
</svg>
