<?xml version="1.0" encoding="UTF-8" standalone="no"?>
<svg
   width="16"
   height="16"
   viewBox="0 0 16 16"
   fill="none"
   version="1.1"
   id="svg1"
   xmlns:xlink="http://www.w3.org/1999/xlink"
   xmlns="http://www.w3.org/2000/svg"
   xmlns:svg="http://www.w3.org/2000/svg"
   xmlns:rdf="http://www.w3.org/1999/02/22-rdf-syntax-ns#"
   xmlns:cc="http://creativecommons.org/ns#"
   xmlns:dc="http://purl.org/dc/elements/1.1/">
  <defs>
   <style id="current-color-scheme" type="text/css">
   .ColorScheme-Text { color: #0abdc6; } .ColorScheme-Highlight { color:#5294e2; }
  </style>
  <linearGradient id="arrongin" x1="0%" x2="0%" y1="0%" y2="100%">
   <stop offset="0%" style="stop-color:#dd9b44; stop-opacity:1"/>
   <stop offset="100%" style="stop-color:#ad6c16; stop-opacity:1"/>
  </linearGradient>
  <linearGradient id="aurora" x1="0%" x2="0%" y1="0%" y2="100%">
   <stop offset="0%" style="stop-color:#09D4DF; stop-opacity:1"/>
   <stop offset="100%" style="stop-color:#9269F4; stop-opacity:1"/>
  </linearGradient>
  <linearGradient id="cyberneon" x1="0%" x2="0%" y1="0%" y2="100%">
    <stop offset="0" style="stop-color:#0abdc6; stop-opacity:1"/>
    <stop offset="1" style="stop-color:#ea00d9; stop-opacity:1"/>
  </linearGradient>
  <linearGradient id="fitdance" x1="0%" x2="0%" y1="0%" y2="100%">
   <stop offset="0%" style="stop-color:#1AD6AB; stop-opacity:1"/>
   <stop offset="100%" style="stop-color:#329DB6; stop-opacity:1"/>
  </linearGradient>
  <linearGradient id="oomox" x1="0%" x2="0%" y1="0%" y2="100%">
   <stop offset="0%" style="stop-color:#0abdc6; stop-opacity:1"/>
   <stop offset="100%" style="stop-color:#b800ff; stop-opacity:1"/>
  </linearGradient>
  <linearGradient id="rainblue" x1="0%" x2="0%" y1="0%" y2="100%">
   <stop offset="0%" style="stop-color:#00F260; stop-opacity:1"/>
   <stop offset="100%" style="stop-color:#0575E6; stop-opacity:1"/>
  </linearGradient>
  <linearGradient id="sunrise" x1="0%" x2="0%" y1="0%" y2="100%">
   <stop offset="0%" style="stop-color: #FF8501; stop-opacity:1"/>
   <stop offset="100%" style="stop-color: #FFCB01; stop-opacity:1"/>
  </linearGradient>
  <linearGradient id="telinkrin" x1="0%" x2="0%" y1="0%" y2="100%">
   <stop offset="0%" style="stop-color: #b2ced6; stop-opacity:1"/>
   <stop offset="100%" style="stop-color: #6da5b7; stop-opacity:1"/>
  </linearGradient>
  <linearGradient id="60spsycho" x1="0%" x2="0%" y1="0%" y2="100%">
   <stop offset="0%" style="stop-color: #df5940; stop-opacity:1"/>
   <stop offset="25%" style="stop-color: #d8d15f; stop-opacity:1"/>
   <stop offset="50%" style="stop-color: #e9882a; stop-opacity:1"/>
   <stop offset="100%" style="stop-color: #279362; stop-opacity:1"/>
  </linearGradient>
  <linearGradient id="90ssummer" x1="0%" x2="0%" y1="0%" y2="100%">
   <stop offset="0%" style="stop-color: #f618c7; stop-opacity:1"/>
   <stop offset="20%" style="stop-color: #94ffab; stop-opacity:1"/>
   <stop offset="50%" style="stop-color: #fbfd54; stop-opacity:1"/>
   <stop offset="100%" style="stop-color: #0f83ae; stop-opacity:1"/>
  </linearGradient>
 </defs>
  <path
     id="path33"
     class="ColorScheme-Text"
     d="M 7.4841245,5.9750183 C 7.8979792,5.8184378 8.2508046,5.5312254 8.4777189,5.1662149 8.5406666,5.0649662 8.5526348,4.9433518 8.5102688,4.8356037 8.4679029,4.7278556 8.3757828,4.6456223 8.2598286,4.6120611 7.9290054,4.516299 7.6700729,4.2853621 7.5494075,3.9784776 7.4287422,3.6715928 7.4625047,3.3298613 7.642107,3.0409545 7.7050297,2.9397151 7.7169977,2.8181012 7.6746317,2.7103528 7.6322656,2.6026046 7.5401457,2.5203715 7.4242008,2.4868338 7.0062824,2.3658479 6.5481505,2.3854586 6.1342958,2.5420392 5.1273061,2.9230305 4.6108322,4.0030183 4.9829846,4.9495026 5.3551277,5.895963 6.4771347,6.3560096 7.4841245,5.9750183 Z"
     style="fill:url(#oomox);stroke-width:0.0261749" />
  <path
     id="path34"
     class="ColorScheme-Text"
     d="m 10.43368,10.124163 2.45141,-0.2585658 c 0.171028,-0.018039 0.318434,-0.1211684 0.385201,-0.2695072 0.06676,-0.1483435 0.04246,-0.3186727 -0.06353,-0.4451342 L 9.312268,4.5046483 C 9.2109343,4.3837334 9.0496472,4.3206353 8.8861046,4.3378852 8.7225306,4.3551386 8.5800682,4.4502748 8.5094968,4.5893519 L 7.4896405,6.5999938 10.282616,9.9434365 Z"
     style="fill:url(#oomox);fill-opacity:1;stroke-width:0.0305872" />
  <path
     id="path35"
     class="ColorScheme-Text"
     d="M 9.7625437,10.194954 6.2643418,6.007261 C 6.1627198,5.8917014 6.0052338,5.8316529 5.8454023,5.8485114 5.6815765,5.8657913 5.538894,5.9612191 5.4684901,6.100635 l -2.0631972,4.084802 c -0.073451,0.14542 -0.057058,0.316434 0.042869,0.446987 0.099869,0.130588 0.267674,0.200317 0.4385446,0.182295 L 8.9187884,10.28395 c 1.887e-4,-2e-5 4.403e-4,-4.6e-5 6.29e-4,-6.6e-5 z"
     style="fill:url(#oomox);stroke-width:0.0305872" />
  <path
     fill-rule="evenodd"
     clip-rule="evenodd"
     d="M 0.22597641,2.8174166 C 0.12892684,1.9988717 0.753775,1.2611052 1.6216145,1.1695682 L 12.621148,0.00937198 c 0.867862,-0.09153948 1.650036,0.49781876 1.747085,1.31636372 l 1.40579,11.8568473 c 0.09705,0.818568 -0.527776,1.556308 -1.395639,1.647848 L 3.3788517,15.990628 C 2.5110121,16.082165 1.7288183,15.492831 1.6317661,14.674264 Z M 1.7973383,2.6516742 12.796871,1.491478 13.763352,9.6430609 2.7638187,10.803256 Z"
     id="path1"
     class="ColorScheme-Text"
     style="opacity:0.5;fill:url(#oomox);stroke-width:0.767797" />
  <metadata
     id="metadata1">
    <rdf:RDF>
      <cc:Work
         rdf:about="">
        <dc:creator>
          <cc:Agent>
            <dc:title>dreifacherspass</dc:title>
          </cc:Agent>
        </dc:creator>
        <cc:license
           rdf:resource="http://creativecommons.org/licenses/by-sa/4.0/" />
      </cc:Work>
      <cc:License
         rdf:about="http://creativecommons.org/licenses/by-sa/4.0/">
        <cc:permits
           rdf:resource="http://creativecommons.org/ns#Reproduction" />
        <cc:permits
           rdf:resource="http://creativecommons.org/ns#Distribution" />
        <cc:requires
           rdf:resource="http://creativecommons.org/ns#Notice" />
        <cc:requires
           rdf:resource="http://creativecommons.org/ns#Attribution" />
        <cc:permits
           rdf:resource="http://creativecommons.org/ns#DerivativeWorks" />
        <cc:requires
           rdf:resource="http://creativecommons.org/ns#ShareAlike" />
      </cc:License>
    </rdf:RDF>
  </metadata>
</svg>
