<?xml version="1.0" encoding="UTF-8" standalone="no"?>
<svg
   version="1.1"
   viewBox="0 0 16 16"
   id="svg11"
   width="16"
   height="16"
   xmlns="http://www.w3.org/2000/svg"
   xmlns:svg="http://www.w3.org/2000/svg"
   xmlns:rdf="http://www.w3.org/1999/02/22-rdf-syntax-ns#"
   xmlns:cc="http://creativecommons.org/ns#"
   xmlns:dc="http://purl.org/dc/elements/1.1/">
  <defs>
   <style id="current-color-scheme" type="text/css">
   .ColorScheme-Text { color: #0abdc6; } .ColorScheme-Highlight { color:#5294e2; }
  </style>
  <linearGradient id="arrongin" x1="0%" x2="0%" y1="0%" y2="100%">
   <stop offset="0%" style="stop-color:#dd9b44; stop-opacity:1"/>
   <stop offset="100%" style="stop-color:#ad6c16; stop-opacity:1"/>
  </linearGradient>
  <linearGradient id="aurora" x1="0%" x2="0%" y1="0%" y2="100%">
   <stop offset="0%" style="stop-color:#09D4DF; stop-opacity:1"/>
   <stop offset="100%" style="stop-color:#9269F4; stop-opacity:1"/>
  </linearGradient>
  <linearGradient id="cyberneon" x1="0%" x2="0%" y1="0%" y2="100%">
    <stop offset="0" style="stop-color:#0abdc6; stop-opacity:1"/>
    <stop offset="1" style="stop-color:#ea00d9; stop-opacity:1"/>
  </linearGradient>
  <linearGradient id="fitdance" x1="0%" x2="0%" y1="0%" y2="100%">
   <stop offset="0%" style="stop-color:#1AD6AB; stop-opacity:1"/>
   <stop offset="100%" style="stop-color:#329DB6; stop-opacity:1"/>
  </linearGradient>
  <linearGradient id="oomox" x1="0%" x2="0%" y1="0%" y2="100%">
   <stop offset="0%" style="stop-color:#0abdc6; stop-opacity:1"/>
   <stop offset="100%" style="stop-color:#b800ff; stop-opacity:1"/>
  </linearGradient>
  <linearGradient id="rainblue" x1="0%" x2="0%" y1="0%" y2="100%">
   <stop offset="0%" style="stop-color:#00F260; stop-opacity:1"/>
   <stop offset="100%" style="stop-color:#0575E6; stop-opacity:1"/>
  </linearGradient>
  <linearGradient id="sunrise" x1="0%" x2="0%" y1="0%" y2="100%">
   <stop offset="0%" style="stop-color: #FF8501; stop-opacity:1"/>
   <stop offset="100%" style="stop-color: #FFCB01; stop-opacity:1"/>
  </linearGradient>
  <linearGradient id="telinkrin" x1="0%" x2="0%" y1="0%" y2="100%">
   <stop offset="0%" style="stop-color: #b2ced6; stop-opacity:1"/>
   <stop offset="100%" style="stop-color: #6da5b7; stop-opacity:1"/>
  </linearGradient>
  <linearGradient id="60spsycho" x1="0%" x2="0%" y1="0%" y2="100%">
   <stop offset="0%" style="stop-color: #df5940; stop-opacity:1"/>
   <stop offset="25%" style="stop-color: #d8d15f; stop-opacity:1"/>
   <stop offset="50%" style="stop-color: #e9882a; stop-opacity:1"/>
   <stop offset="100%" style="stop-color: #279362; stop-opacity:1"/>
  </linearGradient>
  <linearGradient id="90ssummer" x1="0%" x2="0%" y1="0%" y2="100%">
   <stop offset="0%" style="stop-color: #f618c7; stop-opacity:1"/>
   <stop offset="20%" style="stop-color: #94ffab; stop-opacity:1"/>
   <stop offset="50%" style="stop-color: #fbfd54; stop-opacity:1"/>
   <stop offset="100%" style="stop-color: #0f83ae; stop-opacity:1"/>
  </linearGradient>
 </defs>
  <path
     d="M 13.866668,3.7333308 16,3.7336802 13.866668,5.8666388 Z"
     style="display:inline;fill:url(#oomox);stroke-width:0.533333"
     id="path7"
     class="ColorScheme-Text"
     transform="translate(0,2.133337)" />
  <path
     id="path8"
     style="display:inline;fill:url(#oomox);stroke-width:0.533333"
     class="ColorScheme-Text"
     d="M 10.132812 -0.0005245 C 5.3328313 -0.0005245 5.3326726 5.3334599 2.6660156 5.3334599 C 1.4878333 5.3334599 0.53304316 4.1401857 0.53320312 2.6674442 C 0.53322072 2.4858022 0.54850379 2.3042733 0.578125 2.1264286 C 0.1966704 2.9734124 5.3333578e-05 3.8821803 0 4.8002567 C -0.00012474578 8.6294161 3.3430786 11.733851 7.4667969 11.73385 C 11.590515 11.73385 14.933594 8.6294161 14.933594 4.8002567 C 14.933594 2.1492799 12.78379 -0.0005245 10.132812 -0.0005245 z M 11.099609 1.866663 A 1.1 1.1 0 0 1 12.199219 2.9662724 A 1.1 1.1 0 0 1 11.099609 4.0658817 A 1.1 1.1 0 0 1 10 2.9662724 A 1.1 1.1 0 0 1 11.099609 1.866663 z M 11.435547 2.1733036 A 0.56532985 0.56532985 0 0 0 10.871094 2.7397099 A 0.56532985 0.56532985 0 0 0 11.435547 3.304163 A 0.56532985 0.56532985 0 0 0 12 2.7397099 A 0.56532985 0.56532985 0 0 0 11.435547 2.1733036 z M 7.4667969 5.3334599 C 8.350475 5.3334599 9.0664062 6.0493907 9.0664062 6.9330692 C 9.0664062 7.8167475 8.350475 8.5346317 7.4667969 8.5346317 L 3.1992188 8.5346317 C 5.8658811 7.4679668 5.8667995 5.3334599 7.4667969 5.3334599 z "
     transform="translate(0,2.133337)" />
  <path
     d="m 9.0666713,6.9333287 c 0,0.8836794 -0.7163195,1.5999989 -1.5999989,1.5999989 H 3.2000085 C 5.8666734,7.4666617 5.8666734,5.3333298 7.4666724,5.3333298 c 0.8836794,0 1.5999989,0.7163195 1.5999989,1.5999989 z"
     style="fill:url(#oomox);stroke-width:0.533333;opacity:0.5"
     id="path10"
     class="ColorScheme-Text"
     transform="translate(0,2.133337)" />
  <metadata
     id="metadata11">
    <rdf:RDF>
      <cc:Work
         rdf:about="">
        <dc:creator>
          <cc:Agent>
            <dc:title>dreifacherspass</dc:title>
          </cc:Agent>
        </dc:creator>
        <cc:license
           rdf:resource="http://creativecommons.org/licenses/by-sa/4.0/" />
      </cc:Work>
      <cc:License
         rdf:about="http://creativecommons.org/licenses/by-sa/4.0/">
        <cc:permits
           rdf:resource="http://creativecommons.org/ns#Reproduction" />
        <cc:permits
           rdf:resource="http://creativecommons.org/ns#Distribution" />
        <cc:requires
           rdf:resource="http://creativecommons.org/ns#Notice" />
        <cc:requires
           rdf:resource="http://creativecommons.org/ns#Attribution" />
        <cc:permits
           rdf:resource="http://creativecommons.org/ns#DerivativeWorks" />
        <cc:requires
           rdf:resource="http://creativecommons.org/ns#ShareAlike" />
      </cc:License>
    </rdf:RDF>
  </metadata>
</svg>
