<?xml version="1.0" encoding="UTF-8" standalone="no"?>
<!-- Created with Inkscape (http://www.inkscape.org/) -->

<svg
   width="16"
   height="16"
   viewBox="0 0 16 16"
   version="1.1"
   id="svg1"
   xml:space="preserve"
   xmlns="http://www.w3.org/2000/svg"
   xmlns:svg="http://www.w3.org/2000/svg"
   xmlns:rdf="http://www.w3.org/1999/02/22-rdf-syntax-ns#"
   xmlns:cc="http://creativecommons.org/ns#"
   xmlns:dc="http://purl.org/dc/elements/1.1/">
  <defs>
   <style id="current-color-scheme" type="text/css">
   .ColorScheme-Text { color: #0abdc6; } .ColorScheme-Highlight { color:#5294e2; }
  </style>
  <linearGradient id="arrongin" x1="0%" x2="0%" y1="0%" y2="100%">
   <stop offset="0%" style="stop-color:#dd9b44; stop-opacity:1"/>
   <stop offset="100%" style="stop-color:#ad6c16; stop-opacity:1"/>
  </linearGradient>
  <linearGradient id="aurora" x1="0%" x2="0%" y1="0%" y2="100%">
   <stop offset="0%" style="stop-color:#09D4DF; stop-opacity:1"/>
   <stop offset="100%" style="stop-color:#9269F4; stop-opacity:1"/>
  </linearGradient>
  <linearGradient id="cyberneon" x1="0%" x2="0%" y1="0%" y2="100%">
    <stop offset="0" style="stop-color:#0abdc6; stop-opacity:1"/>
    <stop offset="1" style="stop-color:#ea00d9; stop-opacity:1"/>
  </linearGradient>
  <linearGradient id="fitdance" x1="0%" x2="0%" y1="0%" y2="100%">
   <stop offset="0%" style="stop-color:#1AD6AB; stop-opacity:1"/>
   <stop offset="100%" style="stop-color:#329DB6; stop-opacity:1"/>
  </linearGradient>
  <linearGradient id="oomox" x1="0%" x2="0%" y1="0%" y2="100%">
   <stop offset="0%" style="stop-color:#0abdc6; stop-opacity:1"/>
   <stop offset="100%" style="stop-color:#b800ff; stop-opacity:1"/>
  </linearGradient>
  <linearGradient id="rainblue" x1="0%" x2="0%" y1="0%" y2="100%">
   <stop offset="0%" style="stop-color:#00F260; stop-opacity:1"/>
   <stop offset="100%" style="stop-color:#0575E6; stop-opacity:1"/>
  </linearGradient>
  <linearGradient id="sunrise" x1="0%" x2="0%" y1="0%" y2="100%">
   <stop offset="0%" style="stop-color: #FF8501; stop-opacity:1"/>
   <stop offset="100%" style="stop-color: #FFCB01; stop-opacity:1"/>
  </linearGradient>
  <linearGradient id="telinkrin" x1="0%" x2="0%" y1="0%" y2="100%">
   <stop offset="0%" style="stop-color: #b2ced6; stop-opacity:1"/>
   <stop offset="100%" style="stop-color: #6da5b7; stop-opacity:1"/>
  </linearGradient>
  <linearGradient id="60spsycho" x1="0%" x2="0%" y1="0%" y2="100%">
   <stop offset="0%" style="stop-color: #df5940; stop-opacity:1"/>
   <stop offset="25%" style="stop-color: #d8d15f; stop-opacity:1"/>
   <stop offset="50%" style="stop-color: #e9882a; stop-opacity:1"/>
   <stop offset="100%" style="stop-color: #279362; stop-opacity:1"/>
  </linearGradient>
  <linearGradient id="90ssummer" x1="0%" x2="0%" y1="0%" y2="100%">
   <stop offset="0%" style="stop-color: #f618c7; stop-opacity:1"/>
   <stop offset="20%" style="stop-color: #94ffab; stop-opacity:1"/>
   <stop offset="50%" style="stop-color: #fbfd54; stop-opacity:1"/>
   <stop offset="100%" style="stop-color: #0f83ae; stop-opacity:1"/>
  </linearGradient>
 </defs>
 <path
   id="rect24"
   class="ColorScheme-Text"
   style="fill:url(#oomox);stroke-width:0.985764;opacity:0.5"
   d="M 0 0 L 0 16 L 16 16 L 16 0 L 0 0 z M 4.7695312 6.5253906 L 6.3300781 6.5253906 L 6.3300781 14.876953 L 5.1230469 14.876953 L 4.7929688 14.097656 L 4.7265625 14.097656 C 4.5434095 14.390701 4.3023239 14.61373 4.0019531 14.767578 C 3.7089084 14.914101 3.3780247 14.988281 3.0117188 14.988281 C 2.4915644 14.988281 2.0679566 14.853098 1.7382812 14.582031 C 1.408606 14.30364 1.1655671 13.929809 1.0117188 13.460938 C 0.85787034 12.984739 0.78125 12.455717 0.78125 11.876953 C 0.78125 11.276212 0.86226315 10.746702 1.0234375 10.285156 C 1.1919378 9.8162851 1.4486407 9.4448946 1.7929688 9.1738281 C 2.144622 8.9027618 2.5906795 8.7675781 3.1328125 8.7675781 C 3.521097 8.7675781 3.8519807 8.8417589 4.1230469 8.9882812 C 4.4014396 9.1348037 4.6381326 9.3534396 4.8359375 9.6464844 L 4.890625 9.6464844 C 4.8539917 9.4193747 4.8247124 9.2031782 4.8027344 8.9980469 C 4.7807557 8.7855894 4.7695312 8.5625608 4.7695312 8.328125 L 4.7695312 6.5253906 z M 13.658203 6.5253906 L 15.21875 6.5253906 L 15.21875 14.876953 L 14.009766 14.876953 L 13.679688 14.097656 L 13.613281 14.097656 C 13.430128 14.390701 13.189043 14.61373 12.888672 14.767578 C 12.595627 14.914101 12.266697 14.988281 11.900391 14.988281 C 11.380235 14.988281 10.954676 14.853098 10.625 14.582031 C 10.295324 14.303639 10.054239 13.92981 9.9003906 13.460938 C 9.7465421 12.984739 9.6699219 12.455717 9.6699219 11.876953 C 9.6699219 11.276211 9.7489817 10.746702 9.9101562 10.285156 C 10.078657 9.8162844 10.33536 9.4448948 10.679688 9.1738281 C 11.031342 8.9027615 11.479351 8.7675781 12.021484 8.7675781 C 12.409769 8.7675781 12.738699 8.8417587 13.009766 8.9882812 C 13.288158 9.1348038 13.526804 9.3534393 13.724609 9.6464844 L 13.779297 9.6464844 C 13.742664 9.4193745 13.71338 9.2031784 13.691406 8.9980469 C 13.669426 8.7855892 13.658203 8.562561 13.658203 8.328125 L 13.658203 6.5253906 z M 3.6933594 10.085938 C 2.8288777 10.085938 2.3964844 10.705247 2.3964844 11.943359 C 2.3964844 12.544102 2.4999472 12.983326 2.7050781 13.261719 C 2.9102097 13.532784 3.2210834 13.669922 3.6386719 13.669922 C 4.4738495 13.669922 4.890625 13.138459 4.890625 12.076172 L 4.890625 11.900391 C 4.890625 11.548736 4.8545112 11.235909 4.78125 10.964844 C 4.7153168 10.686451 4.593797 10.470255 4.4179688 10.316406 C 4.2494677 10.162558 4.0083828 10.085937 3.6933594 10.085938 z M 12.582031 10.085938 C 11.717548 10.085938 11.285156 10.705245 11.285156 11.943359 C 11.285156 12.544102 11.386665 12.983326 11.591797 13.261719 C 11.796929 13.532785 12.107802 13.669922 12.525391 13.669922 C 13.360569 13.669922 13.779297 13.13846 13.779297 12.076172 L 13.779297 11.900391 C 13.779297 11.548736 13.743183 11.23591 13.669922 10.964844 C 13.603989 10.686451 13.48247 10.470255 13.306641 10.316406 C 13.13814 10.162558 12.897055 10.085938 12.582031 10.085938 z " />&#10; <path
   id="path29"
   class="ColorScheme-Text"
   style="font-weight:bold;font-size:10.9892px;font-family:Monospace;-inkscape-font-specification:'Monospace Bold';fill:url(#oomox);stroke-width:0.225279"
   d="M 5.1542969 8.8769531 L 7.1757812 11.822266 L 5.0546875 14.878906 L 6.9667969 14.878906 L 8.1640625 12.900391 L 9.296875 14.878906 L 11.169922 14.878906 C 10.966315 14.811219 10.784193 14.712923 10.625 14.582031 C 10.295324 14.303639 10.054239 13.92981 9.9003906 13.460938 C 9.8210072 13.215227 9.7610791 12.954658 9.7226562 12.681641 L 9.1425781 11.822266 L 9.7382812 10.972656 C 9.7783677 10.728445 9.8353479 10.499381 9.9101562 10.285156 C 10.078657 9.8162843 10.33536 9.4448948 10.679688 9.1738281 C 10.83252 9.0560195 11.004547 8.9650452 11.193359 8.8984375 L 11.208984 8.8769531 L 9.296875 8.8769531 L 8.1542969 10.767578 L 7.0664062 8.8769531 L 5.1542969 8.8769531 z " /> <metadata
   id="metadata24"><rdf:RDF><cc:Work
       rdf:about=""><dc:creator><cc:Agent><dc:title>dreifacherspass</dc:title></cc:Agent></dc:creator><cc:license
         rdf:resource="http://creativecommons.org/licenses/by-sa/4.0/" /></cc:Work><cc:License
       rdf:about="http://creativecommons.org/licenses/by-sa/4.0/"><cc:permits
         rdf:resource="http://creativecommons.org/ns#Reproduction" /><cc:permits
         rdf:resource="http://creativecommons.org/ns#Distribution" /><cc:requires
         rdf:resource="http://creativecommons.org/ns#Notice" /><cc:requires
         rdf:resource="http://creativecommons.org/ns#Attribution" /><cc:permits
         rdf:resource="http://creativecommons.org/ns#DerivativeWorks" /><cc:requires
         rdf:resource="http://creativecommons.org/ns#ShareAlike" /></cc:License></rdf:RDF></metadata></svg>
