<?xml version="1.0" encoding="UTF-8" standalone="no"?>
<svg
   version="1.1"
   x="0px"
   y="0px"
   viewBox="0 0 16 16"
   enable-background="new 0 0 1000 1000"
   xml:space="preserve"
   id="svg535"
   width="16"
   height="16"
   xmlns="http://www.w3.org/2000/svg"
   xmlns:svg="http://www.w3.org/2000/svg"
   xmlns:rdf="http://www.w3.org/1999/02/22-rdf-syntax-ns#"
   xmlns:cc="http://creativecommons.org/ns#"
   xmlns:dc="http://purl.org/dc/elements/1.1/">
  <defs>
   <style id="current-color-scheme" type="text/css">
   .ColorScheme-Text { color: #0abdc6; } .ColorScheme-Highlight { color:#5294e2; }
  </style>
  <linearGradient id="arrongin" x1="0%" x2="0%" y1="0%" y2="100%">
   <stop offset="0%" style="stop-color:#dd9b44; stop-opacity:1"/>
   <stop offset="100%" style="stop-color:#ad6c16; stop-opacity:1"/>
  </linearGradient>
  <linearGradient id="aurora" x1="0%" x2="0%" y1="0%" y2="100%">
   <stop offset="0%" style="stop-color:#09D4DF; stop-opacity:1"/>
   <stop offset="100%" style="stop-color:#9269F4; stop-opacity:1"/>
  </linearGradient>
  <linearGradient id="cyberneon" x1="0%" x2="0%" y1="0%" y2="100%">
    <stop offset="0" style="stop-color:#0abdc6; stop-opacity:1"/>
    <stop offset="1" style="stop-color:#ea00d9; stop-opacity:1"/>
  </linearGradient>
  <linearGradient id="fitdance" x1="0%" x2="0%" y1="0%" y2="100%">
   <stop offset="0%" style="stop-color:#1AD6AB; stop-opacity:1"/>
   <stop offset="100%" style="stop-color:#329DB6; stop-opacity:1"/>
  </linearGradient>
  <linearGradient id="oomox" x1="0%" x2="0%" y1="0%" y2="100%">
   <stop offset="0%" style="stop-color:#0abdc6; stop-opacity:1"/>
   <stop offset="100%" style="stop-color:#b800ff; stop-opacity:1"/>
  </linearGradient>
  <linearGradient id="rainblue" x1="0%" x2="0%" y1="0%" y2="100%">
   <stop offset="0%" style="stop-color:#00F260; stop-opacity:1"/>
   <stop offset="100%" style="stop-color:#0575E6; stop-opacity:1"/>
  </linearGradient>
  <linearGradient id="sunrise" x1="0%" x2="0%" y1="0%" y2="100%">
   <stop offset="0%" style="stop-color: #FF8501; stop-opacity:1"/>
   <stop offset="100%" style="stop-color: #FFCB01; stop-opacity:1"/>
  </linearGradient>
  <linearGradient id="telinkrin" x1="0%" x2="0%" y1="0%" y2="100%">
   <stop offset="0%" style="stop-color: #b2ced6; stop-opacity:1"/>
   <stop offset="100%" style="stop-color: #6da5b7; stop-opacity:1"/>
  </linearGradient>
  <linearGradient id="60spsycho" x1="0%" x2="0%" y1="0%" y2="100%">
   <stop offset="0%" style="stop-color: #df5940; stop-opacity:1"/>
   <stop offset="25%" style="stop-color: #d8d15f; stop-opacity:1"/>
   <stop offset="50%" style="stop-color: #e9882a; stop-opacity:1"/>
   <stop offset="100%" style="stop-color: #279362; stop-opacity:1"/>
  </linearGradient>
  <linearGradient id="90ssummer" x1="0%" x2="0%" y1="0%" y2="100%">
   <stop offset="0%" style="stop-color: #f618c7; stop-opacity:1"/>
   <stop offset="20%" style="stop-color: #94ffab; stop-opacity:1"/>
   <stop offset="50%" style="stop-color: #fbfd54; stop-opacity:1"/>
   <stop offset="100%" style="stop-color: #0f83ae; stop-opacity:1"/>
  </linearGradient>
 </defs>
 <metadata
   id="metadata525"> Svg Vector Icons : http://www.onlinewebfonts.com/icon <rdf:RDF><cc:Work
     rdf:about=""><cc:license
       rdf:resource="http://creativecommons.org/licenses/by-sa/4.0/" /><dc:creator><cc:Agent><dc:title>dreifacherspass</dc:title></cc:Agent></dc:creator></cc:Work><cc:License
     rdf:about="http://creativecommons.org/licenses/by-sa/4.0/"><cc:permits
       rdf:resource="http://creativecommons.org/ns#Reproduction" /><cc:permits
       rdf:resource="http://creativecommons.org/ns#Distribution" /><cc:requires
       rdf:resource="http://creativecommons.org/ns#Notice" /><cc:requires
       rdf:resource="http://creativecommons.org/ns#Attribution" /><cc:permits
       rdf:resource="http://creativecommons.org/ns#DerivativeWorks" /><cc:requires
       rdf:resource="http://creativecommons.org/ns#ShareAlike" /></cc:License></rdf:RDF>
   </metadata>
 <path
   id="path1"
   class="ColorScheme-Text"
   style="fill:url(#oomox);fill-opacity:1;stroke-width:0.00166173"
   d="m 1.3630186,11.287305 c -0.1919625,0.05976 -0.42620746,0.260575 -0.5171994,0.442781 -0.0909919,0.175839 -0.097588,0.474128 -0.01945,0.656334 0.0683285,0.153798 0.2536949,0.345474 0.4131844,0.423842 C 1.906433,13.143164 2.6675177,12.493197 2.4236324,11.80225 2.2802103,11.397184 1.7824609,11.15865 1.3630186,11.287305 Z M 9.8624747,0.08047478 C 9.7681001,0.12439368 9.6640854,0.19982318 9.6282298,0.24684416 9.5697108,0.3284778 9.5436648,0.33794731 9.2931833,0.35362097 8.33354,0.42578511 7.7187525,0.87493343 7.6277609,1.5688194 c -0.052092,0.4050662 0.1593203,1.3910373 0.5106032,2.3801107 0.2504815,0.712825 0.5073898,1.2906278 0.9043376,2.0379022 0.3025735,0.5714355 0.3155965,0.6060483 0.2570775,0.643763 -0.058519,0.037715 -0.052092,0.05649 0.1366573,0.3391061 0.5530548,0.8258061 1.0929175,1.35969 1.6393765,1.6202648 l 0.247268,0.1193483 -0.01302,2.3392935 c -0.0098,2.072515 -0.01624,2.361335 -0.06512,2.515133 -0.269931,0.869888 -1.057231,1.453895 -1.9581861,1.456997 -0.3643059,0 -0.5757181,-0.04702 -0.9237877,-0.207186 -0.5496721,-0.251268 -0.9790933,-0.797561 -1.0929176,-1.384833 -0.032472,-0.172737 -0.048709,-0.464659 -0.048709,-0.957726 0,-0.571599 -0.013023,-0.769316 -0.061733,-0.995441 C 6.9091274,10.31064 5.9398437,9.3937311 4.7166959,9.1676056 4.4531913,9.1173194 3.8253809,9.126789 3.5618767,9.1801775 2.8300514,9.3308729 2.228287,9.6889183 1.7794162,10.235211 c -0.1073976,0.128818 -0.2114125,0.244901 -0.2310316,0.25437 -0.01945,0.01257 -0.1138244,0.02825 -0.2114124,0.03772 -0.097588,0.01257 -0.2797409,0.06906 -0.40658838,0.125553 C 0.34806942,10.922893 0,11.450409 0,12.069029 c 0,0.455352 0.14968,0.797561 0.48472643,1.117891 0.25048143,0.238697 0.48793988,0.361147 0.84564967,0.430209 0.6634968,0.13192 1.3954912,-0.207349 1.7175146,-0.794458 0.3414738,-0.621722 0.2342453,-1.353323 -0.269931,-1.849492 L 2.6056163,10.803707 2.8072192,10.621501 c 0.9856894,-0.8855618 2.6347061,-0.571435 3.2039976,0.612252 0.1593203,0.339106 0.1757259,0.442781 0.2016029,1.403609 0.026047,1.026788 0.055305,1.196423 0.2927639,1.673653 0.1659166,0.339106 0.2895506,0.505476 0.5659088,0.788255 0.4065882,0.405066 0.8782917,0.67511 1.4507965,0.825806 0.3967788,0.100409 1.0961313,0.100409 1.4962931,-0.0031 1.080064,-0.27935 1.91269,-1.076911 2.215264,-2.122638 0.07475,-0.248003 0.07475,-0.273146 0.08456,-2.675298 l 0.01302,-2.4240296 0.182153,-0.078532 C 13.047015,8.382784 13.674825,7.7641642 14.214857,6.9447258 14.37756,6.6998249 14.383987,6.6808856 14.331895,6.6274974 14.279805,6.5710069 14.283185,6.552068 14.442506,6.2789217 14.992178,5.3399715 15.626585,3.7699933 15.854233,2.7934915 15.977867,2.2471991 16.01034,2.0021349 15.997317,1.6661308 15.987517,1.3991847 15.974487,1.3395921 15.880279,1.1542838 15.750226,0.89681123 15.551668,0.72097238 15.23624,0.57337874 14.992186,0.46039778 14.494606,0.34415146 14.250551,0.34415146 c -0.123634,0 -0.162703,-0.0187758 -0.295977,-0.13812413 -0.247268,-0.2261252 -0.520413,-0.26383995 -0.816391,-0.12245047 -0.253694,0.12555253 -0.364305,0.29518727 -0.377328,0.56833344 -0.01302,0.27314619 0.07476,0.4489851 0.292763,0.5934766 0.299361,0.1946146 0.634238,0.1663694 0.894529,-0.07543 0.126847,-0.1129809 0.16913,-0.135022 0.279741,-0.135022 0.214626,0 0.562695,0.084736 0.744848,0.1789409 0.247268,0.1286547 0.315596,0.2449009 0.315596,0.5400882 0,0.7536419 -0.504176,2.3110485 -1.171055,3.6299219 -0.374116,0.7379681 -0.439231,0.8383776 -0.533436,0.8132341 -0.06512,-0.015673 -0.09437,0.012572 -0.214626,0.1978801 -0.540032,0.8321733 -1.161246,1.3910373 -1.545171,1.3910373 -0.208199,0 -0.491154,-0.1537977 -0.764467,-0.4145355 C 10.812308,7.139173 10.444789,6.6807185 10.2464,6.3634901 10.145598,6.2033248 10.125979,6.184549 10.04801,6.2002228 9.966659,6.2189973 9.953636,6.1971249 9.6544447,5.6287873 9.2771159,4.9159623 9.029848,4.3602002 8.795772,3.6881922 8.4835584,2.7838546 8.2948092,1.923436 8.3435185,1.6032688 8.3890146,1.3080816 8.7533204,1.0945279 9.3063755,1.047507 L 9.5308108,1.0254658 9.6901314,1.1699574 C 10.002345,1.452573 10.37646,1.4494709 10.672438,1.1637531 11.026934,0.82464696 10.942369,0.2907629 10.496881,0.07737256 10.278873,-0.02630217 10.083697,-0.02630217 9.8624747,0.08047478 Z M 2.1273168,11.080119 c 0.4098018,0.194614 0.6376199,0.546292 0.6376199,0.992175 0,0.310861 -0.087778,0.530782 -0.2959774,0.753642 -0.4847264,0.508741 -1.3532087,0.471026 -1.77282009,-0.07543 -0.12684746,-0.16637 -0.24067192,-0.483598 -0.24067192,-0.675111 0,-0.458454 0.35787897,-0.929481 0.81639021,-1.073972 0.2406719,-0.07527 0.6017644,-0.04065 0.8554593,0.07869 z" />
 </svg>
