<?xml version="1.0" encoding="UTF-8" standalone="no"?>
<svg
   width="16"
   height="16"
   version="1.1"
   viewBox="0 0 16 16"
   id="svg13"
   xmlns:xlink="http://www.w3.org/1999/xlink"
   xmlns="http://www.w3.org/2000/svg"
   xmlns:svg="http://www.w3.org/2000/svg"
   xmlns:rdf="http://www.w3.org/1999/02/22-rdf-syntax-ns#"
   xmlns:cc="http://creativecommons.org/ns#"
   xmlns:dc="http://purl.org/dc/elements/1.1/">
  <defs>
   <style id="current-color-scheme" type="text/css">
   .ColorScheme-Text { color: #0abdc6; } .ColorScheme-Highlight { color:#5294e2; }
  </style>
  <linearGradient id="arrongin" x1="0%" x2="0%" y1="0%" y2="100%">
   <stop offset="0%" style="stop-color:#dd9b44; stop-opacity:1"/>
   <stop offset="100%" style="stop-color:#ad6c16; stop-opacity:1"/>
  </linearGradient>
  <linearGradient id="aurora" x1="0%" x2="0%" y1="0%" y2="100%">
   <stop offset="0%" style="stop-color:#09D4DF; stop-opacity:1"/>
   <stop offset="100%" style="stop-color:#9269F4; stop-opacity:1"/>
  </linearGradient>
  <linearGradient id="cyberneon" x1="0%" x2="0%" y1="0%" y2="100%">
    <stop offset="0" style="stop-color:#0abdc6; stop-opacity:1"/>
    <stop offset="1" style="stop-color:#ea00d9; stop-opacity:1"/>
  </linearGradient>
  <linearGradient id="fitdance" x1="0%" x2="0%" y1="0%" y2="100%">
   <stop offset="0%" style="stop-color:#1AD6AB; stop-opacity:1"/>
   <stop offset="100%" style="stop-color:#329DB6; stop-opacity:1"/>
  </linearGradient>
  <linearGradient id="oomox" x1="0%" x2="0%" y1="0%" y2="100%">
   <stop offset="0%" style="stop-color:#0abdc6; stop-opacity:1"/>
   <stop offset="100%" style="stop-color:#b800ff; stop-opacity:1"/>
  </linearGradient>
  <linearGradient id="rainblue" x1="0%" x2="0%" y1="0%" y2="100%">
   <stop offset="0%" style="stop-color:#00F260; stop-opacity:1"/>
   <stop offset="100%" style="stop-color:#0575E6; stop-opacity:1"/>
  </linearGradient>
  <linearGradient id="sunrise" x1="0%" x2="0%" y1="0%" y2="100%">
   <stop offset="0%" style="stop-color: #FF8501; stop-opacity:1"/>
   <stop offset="100%" style="stop-color: #FFCB01; stop-opacity:1"/>
  </linearGradient>
  <linearGradient id="telinkrin" x1="0%" x2="0%" y1="0%" y2="100%">
   <stop offset="0%" style="stop-color: #b2ced6; stop-opacity:1"/>
   <stop offset="100%" style="stop-color: #6da5b7; stop-opacity:1"/>
  </linearGradient>
  <linearGradient id="60spsycho" x1="0%" x2="0%" y1="0%" y2="100%">
   <stop offset="0%" style="stop-color: #df5940; stop-opacity:1"/>
   <stop offset="25%" style="stop-color: #d8d15f; stop-opacity:1"/>
   <stop offset="50%" style="stop-color: #e9882a; stop-opacity:1"/>
   <stop offset="100%" style="stop-color: #279362; stop-opacity:1"/>
  </linearGradient>
  <linearGradient id="90ssummer" x1="0%" x2="0%" y1="0%" y2="100%">
   <stop offset="0%" style="stop-color: #f618c7; stop-opacity:1"/>
   <stop offset="20%" style="stop-color: #94ffab; stop-opacity:1"/>
   <stop offset="50%" style="stop-color: #fbfd54; stop-opacity:1"/>
   <stop offset="100%" style="stop-color: #0f83ae; stop-opacity:1"/>
  </linearGradient>
 </defs>
  <path
     id="path7"
     style="fill:url(#oomox);fill-rule:evenodd;stroke-width:0.615385;opacity:0.5"
     class="ColorScheme-Text"
     d="M 9.8457031 4.3085938 L 9.8457031 6.1542969 L 15.384766 6.1542969 L 15.384766 6.7695312 L 9.8457031 6.7695312 L 9.8457031 9.8457031 L 15.384766 9.8457031 L 15.384766 10.460938 L 9.8457031 10.460938 L 9.8457031 11.076172 L 15.384766 11.076172 L 15.384766 11.691406 L 9.8457031 11.691406 L 6.7695312 11.691406 L 6.1542969 11.691406 L 6.1542969 16 L 16 16 L 16 6.1542969 L 14.154297 4.3085938 L 9.8457031 4.3085938 z M 6.7695312 12.308594 L 15.384766 12.308594 L 15.384766 12.923828 L 6.7695312 12.923828 L 6.7695312 12.308594 z M 6.7695312 13.539062 L 15.384766 13.539062 L 15.384766 14.154297 L 6.7695312 14.154297 L 6.7695312 13.539062 z M 6.7695312 14.769531 L 15.384766 14.769531 L 15.384766 15.384766 L 6.7695312 15.384766 L 6.7695312 14.769531 z " />
  <rect
     style="opacity:1;fill:url(#oomox);stroke-width:0.169426"
     id="rect16"
     class="ColorScheme-Text"
     width="0.61635166"
     height="8.6149998"
     x="3.0769999"
     y="-9.2299995"
     transform="rotate(90)" />
  <rect
     style="fill:url(#oomox);stroke-width:0.135938"
     id="rect16-7"
     class="ColorScheme-Text"
     width="0.61635166"
     height="5.5459461"
     x="7.3850002"
     y="-15.384"
     transform="rotate(90)" />
  <rect
     style="fill:url(#oomox);stroke-width:0.135938"
     id="rect16-7-3"
     class="ColorScheme-Text"
     width="0.61635166"
     height="5.5459461"
     x="8.6199999"
     y="-15.384"
     transform="rotate(90)" />
  <rect
     style="fill:url(#oomox);stroke-width:0.169426"
     id="rect16-9"
     class="ColorScheme-Text"
     width="0.61635166"
     height="8.6149998"
     x="4.3000002"
     y="-9.2299995"
     transform="rotate(90)" />
  <path
     id="path11"
     class="ColorScheme-Text"
     style="fill:url(#oomox);fill-rule:evenodd;stroke-width:0.615385;opacity:0.5"
     d="M 0 0 L 0 11.691406 L 9.8457031 11.691406 L 9.8457031 1.8457031 L 8 0 L 0 0 z M 0.61523438 1.8457031 L 9.2304688 1.8457031 L 9.2304688 2.4609375 L 0.61523438 2.4609375 L 0.61523438 1.8457031 z M 0.61523438 3.0761719 L 9.2304688 3.0761719 L 9.2304688 3.6914062 L 0.61523438 3.6914062 L 0.61523438 3.0761719 z M 0.61523438 4.3085938 L 9.2304688 4.3085938 L 9.2304688 4.9238281 L 0.61523438 4.9238281 L 0.61523438 4.3085938 z M 0.61523438 5.5390625 L 9.2304688 5.5390625 L 9.2304688 6.1542969 L 0.61523438 6.1542969 L 0.61523438 5.5390625 z M 0.61523438 6.7695312 L 9.2304688 6.7695312 L 9.2304688 7.3847656 L 0.61523438 7.3847656 L 0.61523438 6.7695312 z M 0.61523438 8 L 9.2304688 8 L 9.2304688 8.6152344 L 0.61523438 8.6152344 L 0.61523438 8 z M 0.61523438 9.2304688 L 9.2304688 9.2304688 L 9.2304688 9.8457031 L 0.61523438 9.8457031 L 0.61523438 9.2304688 z M 0.61523438 10.460938 L 9.2304688 10.460938 L 9.2304688 11.076172 L 0.61523438 11.076172 L 0.61523438 10.460938 z " />
  <metadata
     id="metadata13">
    <rdf:RDF>
      <cc:Work
         rdf:about="">
        <dc:creator>
          <cc:Agent>
            <dc:title>dreifacherspass</dc:title>
          </cc:Agent>
        </dc:creator>
        <cc:license
           rdf:resource="http://creativecommons.org/licenses/by-sa/4.0/" />
      </cc:Work>
      <cc:License
         rdf:about="http://creativecommons.org/licenses/by-sa/4.0/">
        <cc:permits
           rdf:resource="http://creativecommons.org/ns#Reproduction" />
        <cc:permits
           rdf:resource="http://creativecommons.org/ns#Distribution" />
        <cc:requires
           rdf:resource="http://creativecommons.org/ns#Notice" />
        <cc:requires
           rdf:resource="http://creativecommons.org/ns#Attribution" />
        <cc:permits
           rdf:resource="http://creativecommons.org/ns#DerivativeWorks" />
        <cc:requires
           rdf:resource="http://creativecommons.org/ns#ShareAlike" />
      </cc:License>
    </rdf:RDF>
  </metadata>
</svg>
