<?xml version="1.0" encoding="UTF-8" standalone="no"?>
<svg
   version="1.1"
   id="svg4801"
   width="16"
   height="16"
   viewBox="0 0 16 16"
   xmlns:xlink="http://www.w3.org/1999/xlink"
   xmlns="http://www.w3.org/2000/svg"
   xmlns:svg="http://www.w3.org/2000/svg"
   xmlns:rdf="http://www.w3.org/1999/02/22-rdf-syntax-ns#"
   xmlns:cc="http://creativecommons.org/ns#"
   xmlns:dc="http://purl.org/dc/elements/1.1/">
<defs>
   <style id="current-color-scheme" type="text/css">
   .ColorScheme-Text { color: #0abdc6; } .ColorScheme-Highlight { color:#5294e2; }
  </style>
  <linearGradient id="arrongin" x1="0%" x2="0%" y1="0%" y2="100%">
   <stop offset="0%" style="stop-color:#dd9b44; stop-opacity:1"/>
   <stop offset="100%" style="stop-color:#ad6c16; stop-opacity:1"/>
  </linearGradient>
  <linearGradient id="aurora" x1="0%" x2="0%" y1="0%" y2="100%">
   <stop offset="0%" style="stop-color:#09D4DF; stop-opacity:1"/>
   <stop offset="100%" style="stop-color:#9269F4; stop-opacity:1"/>
  </linearGradient>
  <linearGradient id="cyberneon" x1="0%" x2="0%" y1="0%" y2="100%">
    <stop offset="0" style="stop-color:#0abdc6; stop-opacity:1"/>
    <stop offset="1" style="stop-color:#ea00d9; stop-opacity:1"/>
  </linearGradient>
  <linearGradient id="fitdance" x1="0%" x2="0%" y1="0%" y2="100%">
   <stop offset="0%" style="stop-color:#1AD6AB; stop-opacity:1"/>
   <stop offset="100%" style="stop-color:#329DB6; stop-opacity:1"/>
  </linearGradient>
  <linearGradient id="oomox" x1="0%" x2="0%" y1="0%" y2="100%">
   <stop offset="0%" style="stop-color:#0abdc6; stop-opacity:1"/>
   <stop offset="100%" style="stop-color:#b800ff; stop-opacity:1"/>
  </linearGradient>
  <linearGradient id="rainblue" x1="0%" x2="0%" y1="0%" y2="100%">
   <stop offset="0%" style="stop-color:#00F260; stop-opacity:1"/>
   <stop offset="100%" style="stop-color:#0575E6; stop-opacity:1"/>
  </linearGradient>
  <linearGradient id="sunrise" x1="0%" x2="0%" y1="0%" y2="100%">
   <stop offset="0%" style="stop-color: #FF8501; stop-opacity:1"/>
   <stop offset="100%" style="stop-color: #FFCB01; stop-opacity:1"/>
  </linearGradient>
  <linearGradient id="telinkrin" x1="0%" x2="0%" y1="0%" y2="100%">
   <stop offset="0%" style="stop-color: #b2ced6; stop-opacity:1"/>
   <stop offset="100%" style="stop-color: #6da5b7; stop-opacity:1"/>
  </linearGradient>
  <linearGradient id="60spsycho" x1="0%" x2="0%" y1="0%" y2="100%">
   <stop offset="0%" style="stop-color: #df5940; stop-opacity:1"/>
   <stop offset="25%" style="stop-color: #d8d15f; stop-opacity:1"/>
   <stop offset="50%" style="stop-color: #e9882a; stop-opacity:1"/>
   <stop offset="100%" style="stop-color: #279362; stop-opacity:1"/>
  </linearGradient>
  <linearGradient id="90ssummer" x1="0%" x2="0%" y1="0%" y2="100%">
   <stop offset="0%" style="stop-color: #f618c7; stop-opacity:1"/>
   <stop offset="20%" style="stop-color: #94ffab; stop-opacity:1"/>
   <stop offset="50%" style="stop-color: #fbfd54; stop-opacity:1"/>
   <stop offset="100%" style="stop-color: #0f83ae; stop-opacity:1"/>
  </linearGradient>
 </defs>
<path
   id="path13"
   class="ColorScheme-Text"
   style="fill:url(#oomox);stroke-width:0.13569;stroke-linecap:round;stroke-linejoin:round;-inkscape-stroke:none"
   d="m 10.151292,6.5137041 a 0.09499235,0.09499235 0 0 0 -0.09488,0.094877 v 1.3881701 5.6038278 a 0.09499235,0.09499235 0 0 0 0.09488,0.09488 h 1.397181 a 0.09499235,0.09499235 0 0 0 0.09488,-0.09488 V 8.0916279 h 1.746741 l 0.950888,0.9111357 v 4.6068274 a 0.09499235,0.09499235 0 0 0 0.09488,0.09488 h 1.469267 A 0.09499235,0.09499235 0 0 0 16,13.609591 V 8.3653926 A 0.09499235,0.09499235 0 0 0 15.97429,8.3001976 L 14.316068,6.5433862 a 0.09499235,0.09499235 0 0 0 -0.06917,-0.029682 h -2.698424 z" />
<path
   id="path15"
   class="ColorScheme-Text"
   style="fill:url(#oomox);stroke-width:0.13569;stroke-linecap:square;stroke-linejoin:round;-inkscape-stroke:none"
   d="m 7.2689443,6.5296053 a 0.09357227,0.09357227 0 0 0 -0.093817,0.093552 v 6.9254787 a 0.09357227,0.09357227 0 0 0 0.093817,0.09355 h 1.344707 a 0.09357227,0.09357227 0 0 0 0.093817,-0.09355 V 6.623157 A 0.09357227,0.09357227 0 0 0 8.6136513,6.529605 Z" />
<path
   id="path11"
   class="ColorScheme-Text"
   style="fill:url(#oomox);stroke-width:0.13569;stroke-linecap:square;stroke-linejoin:round;-inkscape-stroke:none"
   d="m 4.3426033,5.1385198 a 0.09251115,0.09251115 0 0 0 -0.092492,0.092492 V 8.0118572 H 1.5893196 a 0.09251115,0.09251115 0 0 0 -0.06387,0.025707 L 0.02862206,9.4657521 A 0.09251115,0.09251115 0 0 0 0,9.5328019 v 4.1814711 a 0.09251115,0.09251115 0 0 0 0.09249167,0.09249 c 2.07852913,-0.0011 3.70038163,0.0023 5.62847603,-0.0026 a 0.09251115,0.09251115 0 0 0 0.092227,-0.09249 L 5.8116042,5.2310116 A 0.09251115,0.09251115 0 0 0 5.7191125,5.1385198 Z M 2.3756313,9.5047099 H 4.2501115 V 12.227781 H 1.5442664 v -1.902042 z" />
<path
   id="path10"
   class="ColorScheme-Text"
   style="fill:url(#oomox);stroke-width:0.13569;stroke-linecap:round;stroke-linejoin:round;-inkscape-stroke:none"
   d="m 7.3701817,2.1930974 a 0.09237058,0.09237058 0 0 0 -0.065725,0.027562 L 5.7771517,3.7773817 a 0.09237058,0.09237058 0 0 0 -0.026502,0.064665 v 0.9795106 a 0.09237058,0.09237058 0 0 0 0.027827,0.06599 l 1.5336657,1.5045131 a 0.09237058,0.09237058 0 0 0 0.064665,0.026502 h 1.03861 a 0.09237058,0.09237058 0 0 0 0.06599,-0.027562 l 1.477481,-1.5058388 a 0.09237058,0.09237058 0 0 0 0.026502,-0.064665 V 3.7853323 a 0.09237058,0.09237058 0 0 0 -0.027827,-0.06599 L 8.428933,2.2195993 a 0.09237058,0.09237058 0 0 0 -0.064665,-0.026502 z m 0.528978,1.8872011 c 0.00952,-3.49e-5 0.01904,0.0013 0.028622,0.00424 0.051139,0.015661 0.079788,0.069719 0.0644,0.1208487 0.00966,-7.73e-5 0.019608,7.056e-4 0.029417,0.00371 0.051246,0.015695 0.080086,0.069893 0.0644,0.1211137 -0.012568,0.041038 -0.04993,0.067228 -0.090636,0.06811 0.00637,0.018678 0.00727,0.039354 0.00106,0.059629 -0.015687,0.051221 -0.069842,0.080102 -0.1211138,0.0644 -0.030686,-0.0094 -0.05295,-0.032773 -0.06281,-0.060954 -0.023924,0.017835 -0.055412,0.024513 -0.086131,0.015106 -0.051238,-0.015692 -0.080086,-0.069893 -0.0644,-0.1211137 0.00621,-0.020276 0.018425,-0.036861 0.034187,-0.048764 -0.033235,-0.023525 -0.049406,-0.06603 -0.036838,-0.1070676 0.015687,-0.051222 0.069867,-0.080094 0.1211138,-0.0644 0.00981,0.003 0.018541,0.00777 0.026502,0.013251 0.012859,-0.041434 0.050983,-0.067959 0.092227,-0.068109 z" />
<metadata
   id="metadata16">
  <rdf:RDF>
    <cc:Work
       rdf:about="">
      <dc:creator>
        <cc:Agent>
          <dc:title>dreifacherspass</dc:title>
        </cc:Agent>
      </dc:creator>
      <cc:license
         rdf:resource="http://creativecommons.org/licenses/by-sa/4.0/" />
    </cc:Work>
    <cc:License
       rdf:about="http://creativecommons.org/licenses/by-sa/4.0/">
      <cc:permits
         rdf:resource="http://creativecommons.org/ns#Reproduction" />
      <cc:permits
         rdf:resource="http://creativecommons.org/ns#Distribution" />
      <cc:requires
         rdf:resource="http://creativecommons.org/ns#Notice" />
      <cc:requires
         rdf:resource="http://creativecommons.org/ns#Attribution" />
      <cc:permits
         rdf:resource="http://creativecommons.org/ns#DerivativeWorks" />
      <cc:requires
         rdf:resource="http://creativecommons.org/ns#ShareAlike" />
    </cc:License>
  </rdf:RDF>
</metadata>
</svg>
