<?xml version="1.0" encoding="UTF-8" standalone="no"?>

<svg
   width="16"
   height="16"
   viewBox="0 -0.5 0.42 0.42"
   version="1.1"
   id="svg1"
   xmlns:xlink="http://www.w3.org/1999/xlink"
   xmlns="http://www.w3.org/2000/svg"
   xmlns:svg="http://www.w3.org/2000/svg"
   xmlns:rdf="http://www.w3.org/1999/02/22-rdf-syntax-ns#"
   xmlns:cc="http://creativecommons.org/ns#"
   xmlns:dc="http://purl.org/dc/elements/1.1/">
  <defs>
   <style id="current-color-scheme" type="text/css">
   .ColorScheme-Text { color: #0abdc6; } .ColorScheme-Highlight { color:#5294e2; }
  </style>
  <linearGradient id="arrongin" x1="0%" x2="0%" y1="0%" y2="100%">
   <stop offset="0%" style="stop-color:#dd9b44; stop-opacity:1"/>
   <stop offset="100%" style="stop-color:#ad6c16; stop-opacity:1"/>
  </linearGradient>
  <linearGradient id="aurora" x1="0%" x2="0%" y1="0%" y2="100%">
   <stop offset="0%" style="stop-color:#09D4DF; stop-opacity:1"/>
   <stop offset="100%" style="stop-color:#9269F4; stop-opacity:1"/>
  </linearGradient>
  <linearGradient id="cyberneon" x1="0%" x2="0%" y1="0%" y2="100%">
    <stop offset="0" style="stop-color:#0abdc6; stop-opacity:1"/>
    <stop offset="1" style="stop-color:#ea00d9; stop-opacity:1"/>
  </linearGradient>
  <linearGradient id="fitdance" x1="0%" x2="0%" y1="0%" y2="100%">
   <stop offset="0%" style="stop-color:#1AD6AB; stop-opacity:1"/>
   <stop offset="100%" style="stop-color:#329DB6; stop-opacity:1"/>
  </linearGradient>
  <linearGradient id="oomox" x1="0%" x2="0%" y1="0%" y2="100%">
   <stop offset="0%" style="stop-color:#0abdc6; stop-opacity:1"/>
   <stop offset="100%" style="stop-color:#b800ff; stop-opacity:1"/>
  </linearGradient>
  <linearGradient id="rainblue" x1="0%" x2="0%" y1="0%" y2="100%">
   <stop offset="0%" style="stop-color:#00F260; stop-opacity:1"/>
   <stop offset="100%" style="stop-color:#0575E6; stop-opacity:1"/>
  </linearGradient>
  <linearGradient id="sunrise" x1="0%" x2="0%" y1="0%" y2="100%">
   <stop offset="0%" style="stop-color: #FF8501; stop-opacity:1"/>
   <stop offset="100%" style="stop-color: #FFCB01; stop-opacity:1"/>
  </linearGradient>
  <linearGradient id="telinkrin" x1="0%" x2="0%" y1="0%" y2="100%">
   <stop offset="0%" style="stop-color: #b2ced6; stop-opacity:1"/>
   <stop offset="100%" style="stop-color: #6da5b7; stop-opacity:1"/>
  </linearGradient>
  <linearGradient id="60spsycho" x1="0%" x2="0%" y1="0%" y2="100%">
   <stop offset="0%" style="stop-color: #df5940; stop-opacity:1"/>
   <stop offset="25%" style="stop-color: #d8d15f; stop-opacity:1"/>
   <stop offset="50%" style="stop-color: #e9882a; stop-opacity:1"/>
   <stop offset="100%" style="stop-color: #279362; stop-opacity:1"/>
  </linearGradient>
  <linearGradient id="90ssummer" x1="0%" x2="0%" y1="0%" y2="100%">
   <stop offset="0%" style="stop-color: #f618c7; stop-opacity:1"/>
   <stop offset="20%" style="stop-color: #94ffab; stop-opacity:1"/>
   <stop offset="50%" style="stop-color: #fbfd54; stop-opacity:1"/>
   <stop offset="100%" style="stop-color: #0f83ae; stop-opacity:1"/>
  </linearGradient>
 </defs>
  <path
     id="path26"
     class="ColorScheme-Text"
     style="stroke-width:0.0159965;fill:url(#oomox)"
     d="M 0.060446777 -0.5 C 0.042334105 -0.5 0.027685547 -0.48535135 0.027685547 -0.46723877 L 0.027685547 -0.43442627 C 0.027685547 -0.41631359 0.042334105 -0.40161377 0.060446777 -0.40161377 L 0.093259277 -0.40161377 C 0.11137195 -0.40161377 0.12602051 -0.41631359 0.12602051 -0.43442627 L 0.12602051 -0.46723877 C 0.12602051 -0.48535145 0.11137195 -0.5 0.093259277 -0.5 L 0.060446777 -0.5 z M 0.20743652 -0.5 C 0.18932384 -0.5 0.17467529 -0.48535135 0.17467529 -0.46723877 L 0.17467529 -0.43442627 C 0.17467529 -0.41631359 0.18932384 -0.40161377 0.20743652 -0.40161377 L 0.24024902 -0.40161377 C 0.25836171 -0.40161377 0.27301025 -0.41631359 0.27301025 -0.43442627 L 0.27301025 -0.46723877 C 0.27301025 -0.48535145 0.25836171 -0.5 0.24024902 -0.5 L 0.20743652 -0.5 z M 0.35442627 -0.5 C 0.33631359 -0.5 0.32161377 -0.48535135 0.32161377 -0.46723877 L 0.32161377 -0.43442627 C 0.32161377 -0.41631359 0.33631359 -0.40161377 0.35442627 -0.40161377 L 0.38723877 -0.40161377 C 0.40535145 -0.40161377 0.42 -0.41631359 0.42 -0.43442627 L 0.42 -0.46723877 C 0.42 -0.48535145 0.40535145 -0.5 0.38723877 -0.5 L 0.35442627 -0.5 z M 0.022250977 -0.47057129 C 0.0093061695 -0.46619146 -1.9428884e-18 -0.45398445 0 -0.43955322 L 0 -0.40679199 C 0 -0.38867931 0.014648549 -0.37397949 0.03276123 -0.37397949 L 0.06557373 -0.37397949 C 0.079991586 -0.37397949 0.092191051 -0.38329418 0.096591797 -0.39623047 C 0.0932766 -0.39510247 0.08972509 -0.3944873 0.086030273 -0.3944873 L 0.053269043 -0.3944873 C 0.035156371 -0.3944873 0.020507812 -0.40918712 0.020507812 -0.4272998 L 0.020507812 -0.46006104 C 0.020507812 -0.46374203 0.021133698 -0.46726925 0.022250977 -0.47057129 z M 0.16924072 -0.47057129 C 0.15629594 -0.46619129 0.14698975 -0.45398441 0.14698975 -0.43955322 L 0.14698975 -0.40679199 C 0.14698975 -0.38867931 0.16163829 -0.37397949 0.17975098 -0.37397949 L 0.21256348 -0.37397949 C 0.22698136 -0.37397949 0.23918075 -0.38329418 0.24358154 -0.39623047 C 0.24026655 -0.39510247 0.23671492 -0.3944873 0.23302002 -0.3944873 L 0.20025879 -0.3944873 C 0.18214611 -0.3944873 0.16749756 -0.40918712 0.16749756 -0.4272998 L 0.16749756 -0.46006104 C 0.16749756 -0.46374203 0.16812351 -0.46726929 0.16924072 -0.47057129 z M 0.31623047 -0.47057129 C 0.30328568 -0.46619129 0.29397949 -0.45398441 0.29397949 -0.43955322 L 0.29397949 -0.40679199 C 0.29397949 -0.38867931 0.30862804 -0.37397949 0.32674072 -0.37397949 L 0.35950195 -0.37397949 C 0.37391984 -0.37397949 0.38617049 -0.38329418 0.39057129 -0.39623047 C 0.38725629 -0.39510247 0.38370466 -0.3944873 0.38000977 -0.3944873 L 0.34724854 -0.3944873 C 0.32913585 -0.3944873 0.3144873 -0.40918712 0.3144873 -0.4272998 L 0.3144873 -0.46006104 C 0.3144873 -0.46374203 0.31511326 -0.46726929 0.31623047 -0.47057129 z M 0.060446777 -0.35301025 C 0.042334105 -0.35301025 0.027685547 -0.33836161 0.027685547 -0.32024902 L 0.027685547 -0.28743652 C 0.027685547 -0.26932384 0.042334105 -0.25462402 0.060446777 -0.25462402 L 0.093259277 -0.25462402 C 0.11137196 -0.25462402 0.12602051 -0.26932384 0.12602051 -0.28743652 L 0.12602051 -0.32024902 C 0.12602051 -0.33836171 0.11137196 -0.35301025 0.093259277 -0.35301025 L 0.060446777 -0.35301025 z M 0.20743652 -0.35301025 C 0.18932384 -0.35301025 0.17467529 -0.33836161 0.17467529 -0.32024902 L 0.17467529 -0.28743652 C 0.17467529 -0.26932384 0.18932384 -0.25462402 0.20743652 -0.25462402 L 0.24024902 -0.25462402 C 0.25836171 -0.25462402 0.27301025 -0.26932384 0.27301025 -0.28743652 L 0.27301025 -0.32024902 C 0.27301025 -0.33836171 0.25836171 -0.35301025 0.24024902 -0.35301025 L 0.20743652 -0.35301025 z M 0.35442627 -0.35301025 C 0.33631359 -0.35301025 0.32161377 -0.33836161 0.32161377 -0.32024902 L 0.32161377 -0.28743652 C 0.32161377 -0.26932384 0.33631359 -0.25462402 0.35442627 -0.25462402 L 0.38723877 -0.25462402 C 0.40535145 -0.25462402 0.42 -0.26932384 0.42 -0.28743652 L 0.42 -0.32024902 C 0.42 -0.33836171 0.40535145 -0.35301025 0.38723877 -0.35301025 L 0.35442627 -0.35301025 z M 0.022250977 -0.32358154 C 0.0093061695 -0.31920155 -1.9428884e-18 -0.30699466 0 -0.29256348 L 0 -0.25980225 C 0 -0.24168956 0.014648549 -0.22698975 0.03276123 -0.22698975 L 0.06557373 -0.22698975 C 0.079991616 -0.22698975 0.092191001 -0.23630444 0.096591797 -0.24924072 C 0.0932768 -0.24811272 0.08972517 -0.24744629 0.086030273 -0.24744629 L 0.053269043 -0.24744629 C 0.035156371 -0.24744629 0.020507813 -0.26214611 0.020507812 -0.28025879 L 0.020507812 -0.31307129 C 0.020507812 -0.31675229 0.021133718 -0.32027955 0.022250977 -0.32358154 z M 0.16924072 -0.32358154 C 0.15629594 -0.31920155 0.14698975 -0.30699466 0.14698975 -0.29256348 L 0.14698975 -0.25980225 C 0.14698975 -0.24168956 0.16163829 -0.22698975 0.17975098 -0.22698975 L 0.21256348 -0.22698975 C 0.22698136 -0.22698975 0.23918075 -0.23630444 0.24358154 -0.24924072 C 0.24026655 -0.24811272 0.23671492 -0.24744629 0.23302002 -0.24744629 L 0.20025879 -0.24744629 C 0.18214611 -0.24744629 0.16749756 -0.26214611 0.16749756 -0.28025879 L 0.16749756 -0.31307129 C 0.16749756 -0.31675229 0.16812351 -0.32027955 0.16924072 -0.32358154 z M 0.31623047 -0.32358154 C 0.30328568 -0.31920155 0.29397949 -0.30699466 0.29397949 -0.29256348 L 0.29397949 -0.25980225 C 0.29397949 -0.24168956 0.30862804 -0.22698975 0.32674072 -0.22698975 L 0.35950195 -0.22698975 C 0.37391984 -0.22698975 0.38617049 -0.23630444 0.39057129 -0.24924072 C 0.38725629 -0.24811272 0.38370466 -0.24744629 0.38000977 -0.24744629 L 0.34724854 -0.24744629 C 0.32913585 -0.24744629 0.3144873 -0.26214611 0.3144873 -0.28025879 L 0.3144873 -0.31307129 C 0.3144873 -0.31675229 0.31511326 -0.32027955 0.31623047 -0.32358154 z M 0.060446777 -0.20602051 C 0.042334105 -0.20602051 0.027685547 -0.19132059 0.027685547 -0.17320801 L 0.027685547 -0.14044678 C 0.027685547 -0.1223341 0.042334105 -0.10763428 0.060446777 -0.10763428 L 0.093259277 -0.10763428 C 0.11137196 -0.10763428 0.12602051 -0.1223341 0.12602051 -0.14044678 L 0.12602051 -0.17320801 C 0.12602051 -0.19132069 0.11137196 -0.20602051 0.093259277 -0.20602051 L 0.060446777 -0.20602051 z M 0.20743652 -0.20602051 C 0.18932384 -0.20602051 0.17467529 -0.19132059 0.17467529 -0.17320801 L 0.17467529 -0.14044678 C 0.17467529 -0.1223341 0.18932384 -0.10763428 0.20743652 -0.10763428 L 0.24024902 -0.10763428 C 0.25836171 -0.10763428 0.27301025 -0.1223341 0.27301025 -0.14044678 L 0.27301025 -0.17320801 C 0.27301025 -0.19132069 0.25836171 -0.20602051 0.24024902 -0.20602051 L 0.20743652 -0.20602051 z M 0.35442627 -0.20602051 C 0.33631359 -0.20602051 0.32161377 -0.19132059 0.32161377 -0.17320801 L 0.32161377 -0.14044678 C 0.32161377 -0.1223341 0.33631359 -0.10763428 0.35442627 -0.10763428 L 0.38723877 -0.10763428 C 0.40535145 -0.10763428 0.42 -0.1223341 0.42 -0.14044678 L 0.42 -0.17320801 C 0.42 -0.19132069 0.40535145 -0.20602051 0.38723877 -0.20602051 L 0.35442627 -0.20602051 z M 0.022250977 -0.1765918 C 0.0093061695 -0.1722118 -1.9428884e-18 -0.16000492 0 -0.14557373 L 0 -0.1128125 C 0 -0.094699818 0.014648549 -0.07994873 0.03276123 -0.07994873 L 0.06557373 -0.07994873 C 0.079991616 -0.07994873 0.092191001 -0.08926342 0.096591797 -0.10219971 C 0.0932768 -0.10107171 0.08972517 -0.10045654 0.086030273 -0.10045654 L 0.053269043 -0.10045654 C 0.035156371 -0.10045654 0.020507813 -0.11515636 0.020507812 -0.13326904 L 0.020507812 -0.16603027 C 0.020507812 -0.16971127 0.021133718 -0.1732898 0.022250977 -0.1765918 z M 0.16924072 -0.1765918 C 0.15629594 -0.1722118 0.14698975 -0.16000492 0.14698975 -0.14557373 L 0.14698975 -0.1128125 C 0.14698975 -0.094699818 0.16163829 -0.07994873 0.17975098 -0.07994873 L 0.21256348 -0.07994873 C 0.22698136 -0.07994873 0.23918075 -0.08926342 0.24358154 -0.10219971 C 0.24026655 -0.10107171 0.23671492 -0.10045654 0.23302002 -0.10045654 L 0.20025879 -0.10045654 C 0.18214611 -0.10045654 0.16749756 -0.11515636 0.16749756 -0.13326904 L 0.16749756 -0.16603027 C 0.16749756 -0.16971127 0.16812351 -0.1732898 0.16924072 -0.1765918 z M 0.31623047 -0.1765918 C 0.30328568 -0.1722118 0.29397949 -0.16000492 0.29397949 -0.14557373 L 0.29397949 -0.1128125 C 0.29397949 -0.094699818 0.30862804 -0.07994873 0.32674072 -0.07994873 L 0.35950195 -0.07994873 C 0.37391984 -0.07994873 0.38617049 -0.08926342 0.39057129 -0.10219971 C 0.38725629 -0.10107171 0.38370466 -0.10045654 0.38000977 -0.10045654 L 0.34724854 -0.10045654 C 0.32913585 -0.10045654 0.3144873 -0.11515636 0.3144873 -0.13326904 L 0.3144873 -0.16603027 C 0.3144873 -0.16971127 0.31511326 -0.1732898 0.31623047 -0.1765918 z " />
  <metadata
     id="metadata1">
    <rdf:RDF>
      <cc:Work
         rdf:about="">
        <dc:title></dc:title>
        <dc:creator>
          <cc:Agent>
            <dc:title>dreifacherspass</dc:title>
          </cc:Agent>
        </dc:creator>
        <cc:license
           rdf:resource="http://creativecommons.org/licenses/by-sa/4.0/" />
      </cc:Work>
      <cc:License
         rdf:about="http://creativecommons.org/licenses/by-sa/4.0/">
        <cc:permits
           rdf:resource="http://creativecommons.org/ns#Reproduction" />
        <cc:permits
           rdf:resource="http://creativecommons.org/ns#Distribution" />
        <cc:requires
           rdf:resource="http://creativecommons.org/ns#Notice" />
        <cc:requires
           rdf:resource="http://creativecommons.org/ns#Attribution" />
        <cc:permits
           rdf:resource="http://creativecommons.org/ns#DerivativeWorks" />
        <cc:requires
           rdf:resource="http://creativecommons.org/ns#ShareAlike" />
      </cc:License>
    </rdf:RDF>
  </metadata>
</svg>
