<?xml version="1.0" encoding="UTF-8" standalone="no"?>
<svg
   version="1.1"
   viewBox="0 0 16 16"
   id="svg14"
   width="16"
   height="16"
   xmlns:xlink="http://www.w3.org/1999/xlink"
   xmlns="http://www.w3.org/2000/svg"
   xmlns:svg="http://www.w3.org/2000/svg"
   xmlns:rdf="http://www.w3.org/1999/02/22-rdf-syntax-ns#"
   xmlns:cc="http://creativecommons.org/ns#"
   xmlns:dc="http://purl.org/dc/elements/1.1/">
   <defs>
   <style id="current-color-scheme" type="text/css">
   .ColorScheme-Text { color: #0abdc6; } .ColorScheme-Highlight { color:#5294e2; }
  </style>
  <linearGradient id="arrongin" x1="0%" x2="0%" y1="0%" y2="100%">
   <stop offset="0%" style="stop-color:#dd9b44; stop-opacity:1"/>
   <stop offset="100%" style="stop-color:#ad6c16; stop-opacity:1"/>
  </linearGradient>
  <linearGradient id="aurora" x1="0%" x2="0%" y1="0%" y2="100%">
   <stop offset="0%" style="stop-color:#09D4DF; stop-opacity:1"/>
   <stop offset="100%" style="stop-color:#9269F4; stop-opacity:1"/>
  </linearGradient>
  <linearGradient id="cyberneon" x1="0%" x2="0%" y1="0%" y2="100%">
    <stop offset="0" style="stop-color:#0abdc6; stop-opacity:1"/>
    <stop offset="1" style="stop-color:#ea00d9; stop-opacity:1"/>
  </linearGradient>
  <linearGradient id="fitdance" x1="0%" x2="0%" y1="0%" y2="100%">
   <stop offset="0%" style="stop-color:#1AD6AB; stop-opacity:1"/>
   <stop offset="100%" style="stop-color:#329DB6; stop-opacity:1"/>
  </linearGradient>
  <linearGradient id="oomox" x1="0%" x2="0%" y1="0%" y2="100%">
   <stop offset="0%" style="stop-color:#0abdc6; stop-opacity:1"/>
   <stop offset="100%" style="stop-color:#b800ff; stop-opacity:1"/>
  </linearGradient>
  <linearGradient id="rainblue" x1="0%" x2="0%" y1="0%" y2="100%">
   <stop offset="0%" style="stop-color:#00F260; stop-opacity:1"/>
   <stop offset="100%" style="stop-color:#0575E6; stop-opacity:1"/>
  </linearGradient>
  <linearGradient id="sunrise" x1="0%" x2="0%" y1="0%" y2="100%">
   <stop offset="0%" style="stop-color: #FF8501; stop-opacity:1"/>
   <stop offset="100%" style="stop-color: #FFCB01; stop-opacity:1"/>
  </linearGradient>
  <linearGradient id="telinkrin" x1="0%" x2="0%" y1="0%" y2="100%">
   <stop offset="0%" style="stop-color: #b2ced6; stop-opacity:1"/>
   <stop offset="100%" style="stop-color: #6da5b7; stop-opacity:1"/>
  </linearGradient>
  <linearGradient id="60spsycho" x1="0%" x2="0%" y1="0%" y2="100%">
   <stop offset="0%" style="stop-color: #df5940; stop-opacity:1"/>
   <stop offset="25%" style="stop-color: #d8d15f; stop-opacity:1"/>
   <stop offset="50%" style="stop-color: #e9882a; stop-opacity:1"/>
   <stop offset="100%" style="stop-color: #279362; stop-opacity:1"/>
  </linearGradient>
  <linearGradient id="90ssummer" x1="0%" x2="0%" y1="0%" y2="100%">
   <stop offset="0%" style="stop-color: #f618c7; stop-opacity:1"/>
   <stop offset="20%" style="stop-color: #94ffab; stop-opacity:1"/>
   <stop offset="50%" style="stop-color: #fbfd54; stop-opacity:1"/>
   <stop offset="100%" style="stop-color: #0f83ae; stop-opacity:1"/>
  </linearGradient>
 </defs>
  <path
     id="rect6"
     class="ColorScheme-Text"
     style="fill:url(#oomox);stroke-width:0.8"
     d="M 0.80078125 0 C 0.35758169 0 0 0.35758169 0 0.80078125 L 0 4 C 0 4.4431996 0.35758169 4.8007812 0.80078125 4.8007812 L 4 4.8007812 C 4.4431996 4.8007812 4.8007812 4.4431996 4.8007812 4 L 4.8007812 0.80078125 C 4.8007812 0.35758169 4.4431996 0 4 0 L 0.80078125 0 z M 6.4003906 0 C 5.9571911 0 5.5996094 0.35758169 5.5996094 0.80078125 L 5.5996094 4 C 5.5996094 4.4431996 5.9571911 4.8007812 6.4003906 4.8007812 L 9.5996094 4.8007812 C 10.042809 4.8007812 10.400391 4.4431996 10.400391 4 L 10.400391 0.80078125 C 10.400391 0.35758169 10.042809 0 9.5996094 0 L 6.4003906 0 z M 12 0 C 11.5568 0 11.199219 0.35758169 11.199219 0.80078125 L 11.199219 4 C 11.199219 4.4431996 11.5568 4.8007812 12 4.8007812 L 15.199219 4.8007812 C 15.642418 4.8007812 16 4.4431996 16 4 L 16 0.80078125 C 16 0.35758169 15.642418 0 15.199219 0 L 12 0 z M 0.80078125 5.5996094 C 0.35758169 5.5996094 0 5.9571911 0 6.4003906 L 0 9.5996094 C 0 10.042809 0.35758169 10.400391 0.80078125 10.400391 L 4 10.400391 C 4.4431996 10.400391 4.8007812 10.042809 4.8007812 9.5996094 L 4.8007812 6.4003906 C 4.8007812 5.9571911 4.4431996 5.5996094 4 5.5996094 L 0.80078125 5.5996094 z M 6.4003906 5.5996094 C 5.9571911 5.5996094 5.5996094 5.9571911 5.5996094 6.4003906 L 5.5996094 9.5996094 C 5.5996094 10.042809 5.9571911 10.400391 6.4003906 10.400391 L 9.5996094 10.400391 C 10.042809 10.400391 10.400391 10.042809 10.400391 9.5996094 L 10.400391 6.4003906 C 10.400391 5.9571911 10.042809 5.5996094 9.5996094 5.5996094 L 6.4003906 5.5996094 z M 12 5.5996094 C 11.5568 5.5996094 11.199219 5.9571911 11.199219 6.4003906 L 11.199219 9.5996094 C 11.199219 10.042809 11.5568 10.400391 12 10.400391 L 15.199219 10.400391 C 15.642418 10.400391 16 10.042809 16 9.5996094 L 16 6.4003906 C 16 5.9571911 15.642418 5.5996094 15.199219 5.5996094 L 12 5.5996094 z M 0.80078125 11.199219 C 0.35758169 11.199219 0 11.5568 0 12 L 0 15.199219 C 0 15.642418 0.35758169 16 0.80078125 16 L 4 16 C 4.4431996 16 4.8007812 15.642418 4.8007812 15.199219 L 4.8007812 12 C 4.8007812 11.5568 4.4431996 11.199219 4 11.199219 L 0.80078125 11.199219 z M 6.4003906 11.199219 C 5.9571911 11.199219 5.5996094 11.5568 5.5996094 12 L 5.5996094 15.199219 C 5.5996094 15.642418 5.9571911 16 6.4003906 16 L 9.5996094 16 C 10.042809 16 10.400391 15.642418 10.400391 15.199219 L 10.400391 12 C 10.400391 11.5568 10.042809 11.199219 9.5996094 11.199219 L 6.4003906 11.199219 z M 12 11.199219 C 11.5568 11.199219 11.199219 11.5568 11.199219 12 L 11.199219 15.199219 C 11.199219 15.642418 11.5568 16 12 16 L 15.199219 16 C 15.642418 16 16 15.642418 16 15.199219 L 16 12 C 16 11.5568 15.642418 11.199219 15.199219 11.199219 L 12 11.199219 z " />
  <metadata
     id="metadata14">
    <rdf:RDF>
      <cc:Work
         rdf:about="">
        <dc:creator>
          <cc:Agent>
            <dc:title>dreifacherspass</dc:title>
          </cc:Agent>
        </dc:creator>
        <cc:license
           rdf:resource="http://creativecommons.org/licenses/by-sa/4.0/" />
      </cc:Work>
      <cc:License
         rdf:about="http://creativecommons.org/licenses/by-sa/4.0/">
        <cc:permits
           rdf:resource="http://creativecommons.org/ns#Reproduction" />
        <cc:permits
           rdf:resource="http://creativecommons.org/ns#Distribution" />
        <cc:requires
           rdf:resource="http://creativecommons.org/ns#Notice" />
        <cc:requires
           rdf:resource="http://creativecommons.org/ns#Attribution" />
        <cc:permits
           rdf:resource="http://creativecommons.org/ns#DerivativeWorks" />
        <cc:requires
           rdf:resource="http://creativecommons.org/ns#ShareAlike" />
      </cc:License>
    </rdf:RDF>
  </metadata>
</svg>
