<?xml version="1.0" encoding="UTF-8" standalone="no"?>
<svg
   width="16"
   height="16"
   version="1.1"
   id="svg4"
   xmlns:xlink="http://www.w3.org/1999/xlink"
   xmlns="http://www.w3.org/2000/svg"
   xmlns:svg="http://www.w3.org/2000/svg"
   xmlns:rdf="http://www.w3.org/1999/02/22-rdf-syntax-ns#"
   xmlns:cc="http://creativecommons.org/ns#"
   xmlns:dc="http://purl.org/dc/elements/1.1/">
  <defs>
   <style id="current-color-scheme" type="text/css">
   .ColorScheme-Text { color: #0abdc6; } .ColorScheme-Highlight { color:#5294e2; }
  </style>
  <linearGradient id="arrongin" x1="0%" x2="0%" y1="0%" y2="100%">
   <stop offset="0%" style="stop-color:#dd9b44; stop-opacity:1"/>
   <stop offset="100%" style="stop-color:#ad6c16; stop-opacity:1"/>
  </linearGradient>
  <linearGradient id="aurora" x1="0%" x2="0%" y1="0%" y2="100%">
   <stop offset="0%" style="stop-color:#09D4DF; stop-opacity:1"/>
   <stop offset="100%" style="stop-color:#9269F4; stop-opacity:1"/>
  </linearGradient>
  <linearGradient id="cyberneon" x1="0%" x2="0%" y1="0%" y2="100%">
    <stop offset="0" style="stop-color:#0abdc6; stop-opacity:1"/>
    <stop offset="1" style="stop-color:#ea00d9; stop-opacity:1"/>
  </linearGradient>
  <linearGradient id="fitdance" x1="0%" x2="0%" y1="0%" y2="100%">
   <stop offset="0%" style="stop-color:#1AD6AB; stop-opacity:1"/>
   <stop offset="100%" style="stop-color:#329DB6; stop-opacity:1"/>
  </linearGradient>
  <linearGradient id="oomox" x1="0%" x2="0%" y1="0%" y2="100%">
   <stop offset="0%" style="stop-color:#0abdc6; stop-opacity:1"/>
   <stop offset="100%" style="stop-color:#b800ff; stop-opacity:1"/>
  </linearGradient>
  <linearGradient id="rainblue" x1="0%" x2="0%" y1="0%" y2="100%">
   <stop offset="0%" style="stop-color:#00F260; stop-opacity:1"/>
   <stop offset="100%" style="stop-color:#0575E6; stop-opacity:1"/>
  </linearGradient>
  <linearGradient id="sunrise" x1="0%" x2="0%" y1="0%" y2="100%">
   <stop offset="0%" style="stop-color: #FF8501; stop-opacity:1"/>
   <stop offset="100%" style="stop-color: #FFCB01; stop-opacity:1"/>
  </linearGradient>
  <linearGradient id="telinkrin" x1="0%" x2="0%" y1="0%" y2="100%">
   <stop offset="0%" style="stop-color: #b2ced6; stop-opacity:1"/>
   <stop offset="100%" style="stop-color: #6da5b7; stop-opacity:1"/>
  </linearGradient>
  <linearGradient id="60spsycho" x1="0%" x2="0%" y1="0%" y2="100%">
   <stop offset="0%" style="stop-color: #df5940; stop-opacity:1"/>
   <stop offset="25%" style="stop-color: #d8d15f; stop-opacity:1"/>
   <stop offset="50%" style="stop-color: #e9882a; stop-opacity:1"/>
   <stop offset="100%" style="stop-color: #279362; stop-opacity:1"/>
  </linearGradient>
  <linearGradient id="90ssummer" x1="0%" x2="0%" y1="0%" y2="100%">
   <stop offset="0%" style="stop-color: #f618c7; stop-opacity:1"/>
   <stop offset="20%" style="stop-color: #94ffab; stop-opacity:1"/>
   <stop offset="50%" style="stop-color: #fbfd54; stop-opacity:1"/>
   <stop offset="100%" style="stop-color: #0f83ae; stop-opacity:1"/>
  </linearGradient>
 </defs>
  <ellipse
     style="fill:none;fill-opacity:0.99784;stroke:url(#oomox);stroke-width:0.403847"
     id="path17"
     class="ColorScheme-Text"
     cx="7.9999995"
     cy="8.000001"
     rx="7.7980766"
     ry="7.7980771" />
  <path
     id="circle2"
     class="ColorScheme-Text"
     style="display:inline;fill:url(#oomox);stroke:none;stroke-width:0.389904"
     d="M 7.9999997,0.2019234 A 7.7980765,7.7980773 0 0 0 3.0767024,1.9694368 l 0.022084,0.2109441 c 0.076702,0.5169725 0.575916,3.0377091 3.1336995,4.114552 0,0 0.00444,-0.2873934 0.2695819,-0.425696 0.00543,-0.00363 0.012184,0.071165 0.012184,0.075392 C 6.8011344,7.166399 7.999999,7.9992395 7.999999,7.9992395 V 7.9984671 C 7.5017186,7.1262984 8.1286282,4.2505078 8.0525455,4.4032718 7.9202776,4.6744392 7.6260882,4.6797072 7.6260882,4.6797072 6.9931347,3.4319678 7.8531588,0.91180711 8.0434069,0.39000323 c 0,0 0.030498,-0.0823661 0.070061,-0.18505203 A 7.7980765,7.7980773 0 0 0 7.9999997,0.2019234 Z M 8.113468,0.2049684 A 7.7980765,7.7980773 0 0 1 10.167317,0.51110402 7.7980765,7.7980773 0 0 0 8.113468,0.2049684 Z m 2.053849,0.30613559 a 7.7980765,7.7980773 0 0 1 0.977805,0.35563495 7.7980765,7.7980773 0 0 0 -0.977805,-0.35563495 z m 0.977805,0.35563495 A 7.7980765,7.7980773 0 0 1 12.067337,1.3487881 7.7980765,7.7980773 0 0 0 11.145122,0.86673894 Z m 0.922215,0.48204916 c -0.0608,0.034071 -0.182767,0.1043298 -0.182767,0.1043298 -0.389558,0.2125867 -2.6418848,1.5619748 -2.7445585,4.3551953 0,0 0.2738396,-0.099435 0.5003257,0.09443 0.00543,0.00363 -0.064012,0.03718 -0.067015,0.0396 C 8.5175952,6.6459332 7.9999998,7.9984779 7.9999998,7.9984779 8.647448,7.2260386 11.759386,6.8155573 11.586049,6.8028744 11.282256,6.7769033 11.171776,6.5104462 11.171776,6.5104462 12.119393,5.4867681 14.588012,5.3532326 15.130975,5.3369271 l 0.193429,-0.0099 a 7.7980765,7.7980773 0 0 0 -3.257067,-3.978239 z m 3.257067,3.9782375 A 7.7980765,7.7980773 0 0 1 15.58104,6.1791788 7.7980765,7.7980773 0 0 0 15.324404,5.3270256 Z M 7.9999997,7.9984779 c 0.9421824,0.3774622 2.2603543,3.0732931 2.2229093,2.9060021 -0.06704,-0.292308 0.15916,-0.476718 0.15916,-0.476719 1.255639,0.577971 2.153114,2.938071 2.35846,3.522082 l 0.05407,0.176675 A 7.7980765,7.7980773 0 0 0 15.590174,9.7004996 L 15.445483,9.5740851 c -0.45116,-0.4118869 -2.378172,-1.9690965 -4.990312,-1.2649027 0,0 0.177462,0.2276336 0.05787,0.4988029 -0.0024,0.00604 -0.05441,-0.049814 -0.05864,-0.051023 C 9.4590827,7.9736536 7.9999997,7.9984779 7.9999997,7.9984779 Z m 7.5901783,1.7020217 a 7.7980765,7.7980773 0 0 0 0.14393,-0.8072227 7.7980765,7.7980773 0 0 1 -0.14393,0.8072227 z m -2.795579,4.4260184 a 7.7980765,7.7980773 0 0 1 -0.867384,0.590948 7.7980765,7.7980773 0 0 0 0.867384,-0.590948 z m -0.867384,0.590948 a 7.7980765,7.7980773 0 0 1 -0.935922,0.468341 7.7980765,7.7980773 0 0 0 0.935922,-0.468341 z M 3.0767024,1.9694368 A 7.7980765,7.7980773 0 0 0 2.513931,2.4857548 7.7980765,7.7980773 0 0 1 3.0767024,1.9694368 Z M 2.3220253,2.6776605 A 7.7980765,7.7980773 0 0 0 1.8841449,3.1901708 7.7980765,7.7980773 0 0 1 2.3220253,2.6776605 Z M 1.664824,3.4841221 A 7.7980765,7.7980773 0 0 0 1.3251812,3.9943477 7.7980765,7.7980773 0 0 1 1.664824,3.4841221 Z M 1.1073834,4.3926285 A 7.7980765,7.7980773 0 0 0 0.86140891,4.8815314 7.7980765,7.7980773 0 0 1 1.1073834,4.3926285 Z M 0.604773,5.5699553 A 7.7980765,7.7980773 0 0 0 0.5133893,5.8227838 7.7980765,7.7980773 0 0 1 0.604773,5.5699553 Z m -0.0913837,0.25359 A 7.7980765,7.7980773 0 0 0 0.20192318,8.0000008 7.7980765,7.7980773 0 0 0 0.8233324,11.016425 l 0.2063749,0.0396 c 0.5369231,0.07549 2.9996199,0.29473 4.7595681,-1.7918825 0,0 -0.2775655,-0.086306 -0.337358,-0.3761965 -0.0018,-0.00604 0.072688,0.00914 0.076915,0.00914 C 6.7995701,8.9762015 7.9999997,8.0000008 7.9999997,8.0000008 7.0082926,8.2228541 4.3407409,6.8908504 4.4687807,7.006203 4.6940594,7.2079183 4.6157565,7.4867288 4.6157561,7.4867288 3.1885915,7.7343442 1.0285724,6.2091803 0.6710262,5.9476746 Z m 7.4866104,2.1764555 c -0.044722,1.0007656 -2.100022,3.1945502 -1.9533269,3.1040002 0.2572885,-0.161854 0.5087028,-0.01294 0.5087028,-0.01294 -0.1274362,1.36732 -2.0969488,2.999428 -2.5686439,3.372059 l -0.1401216,0.130984 a 7.7980765,7.7980773 0 0 0 4.1533896,1.203979 7.7980765,7.7980773 0 0 0 0.9663829,-0.0693 l 0.092907,-0.194951 c 0.2512485,-0.582803 1.0921154,-2.91786 -0.4546341,-5.090835 0,0 -0.1571952,0.241533 -0.4561571,0.221605 -0.00664,0 0.027867,-0.06841 0.029699,-0.07082 C 8.5895191,9.4075038 8.0016763,8.003966 7.9999997,8.0000008 Z m 0.9663829,7.7287782 a 7.7980765,7.7980773 0 0 0 1.0113131,-0.19876 7.7980765,7.7980773 0 0 1 -1.0113131,0.19876 z M 0.82333239,11.016425 A 7.7980765,7.7980773 0 0 0 1.1797289,11.739118 7.7980765,7.7980773 0 0 1 0.82333239,11.016425 Z M 15.591701,6.2271566 a 7.7980765,7.7980773 0 0 1 0.146975,0.8308303 7.7980765,7.7980773 0 0 0 -0.146975,-0.8308303 z m 0.154591,0.8925147 a 7.7980765,7.7980773 0 0 1 0.05178,0.8803295 7.7980765,7.7980773 0 0 0 -0.05178,-0.8803295 z M 1.2863432,11.93407 a 7.7980765,7.7980773 0 0 0 0.3967576,0.60694 7.7980765,7.7980773 0 0 1 -0.3967576,-0.60694 z m 0.5802866,0.852153 a 7.7980765,7.7980773 0 0 0 0.4371187,0.517841 7.7980765,7.7980773 0 0 1 -0.4371187,-0.517841 z m 0.6952775,0.776 a 7.7980765,7.7980773 0 0 0 0.469103,0.434834 7.7980765,7.7980773 0 0 1 -0.469103,-0.434834 z M 3.3729377,14.25217 A 7.7980765,7.7980773 0 0 0 3.8458486,14.593336 7.7980765,7.7980773 0 0 1 3.3729377,14.25217 Z m 7.6054093,0.938968 A 7.7980765,7.7980773 0 0 1 9.9990183,15.52545 7.7980765,7.7980773 0 0 0 10.978347,15.191138 Z" />
  <metadata
     id="metadata19">
    <rdf:RDF>
      <cc:Work
         rdf:about="">
        <dc:creator>
          <cc:Agent>
            <dc:title>dreifacherspass</dc:title>
          </cc:Agent>
        </dc:creator>
        <cc:license
           rdf:resource="http://creativecommons.org/licenses/by-sa/4.0/" />
      </cc:Work>
      <cc:License
         rdf:about="http://creativecommons.org/licenses/by-sa/4.0/">
        <cc:permits
           rdf:resource="http://creativecommons.org/ns#Reproduction" />
        <cc:permits
           rdf:resource="http://creativecommons.org/ns#Distribution" />
        <cc:requires
           rdf:resource="http://creativecommons.org/ns#Notice" />
        <cc:requires
           rdf:resource="http://creativecommons.org/ns#Attribution" />
        <cc:permits
           rdf:resource="http://creativecommons.org/ns#DerivativeWorks" />
        <cc:requires
           rdf:resource="http://creativecommons.org/ns#ShareAlike" />
      </cc:License>
    </rdf:RDF>
  </metadata>
</svg>
