<?xml version="1.0" encoding="UTF-8" standalone="no"?>
<svg
   width="16"
   height="16"
   version="1.1"
   id="svg10"
   xmlns:xlink="http://www.w3.org/1999/xlink"
   xmlns="http://www.w3.org/2000/svg"
   xmlns:svg="http://www.w3.org/2000/svg"
   xmlns:rdf="http://www.w3.org/1999/02/22-rdf-syntax-ns#"
   xmlns:cc="http://creativecommons.org/ns#"
   xmlns:dc="http://purl.org/dc/elements/1.1/">
  <defs>
   <style id="current-color-scheme" type="text/css">
   .ColorScheme-Text { color: #0abdc6; } .ColorScheme-Highlight { color:#5294e2; }
  </style>
  <linearGradient id="arrongin" x1="0%" x2="0%" y1="0%" y2="100%">
   <stop offset="0%" style="stop-color:#dd9b44; stop-opacity:1"/>
   <stop offset="100%" style="stop-color:#ad6c16; stop-opacity:1"/>
  </linearGradient>
  <linearGradient id="aurora" x1="0%" x2="0%" y1="0%" y2="100%">
   <stop offset="0%" style="stop-color:#09D4DF; stop-opacity:1"/>
   <stop offset="100%" style="stop-color:#9269F4; stop-opacity:1"/>
  </linearGradient>
  <linearGradient id="cyberneon" x1="0%" x2="0%" y1="0%" y2="100%">
    <stop offset="0" style="stop-color:#0abdc6; stop-opacity:1"/>
    <stop offset="1" style="stop-color:#ea00d9; stop-opacity:1"/>
  </linearGradient>
  <linearGradient id="fitdance" x1="0%" x2="0%" y1="0%" y2="100%">
   <stop offset="0%" style="stop-color:#1AD6AB; stop-opacity:1"/>
   <stop offset="100%" style="stop-color:#329DB6; stop-opacity:1"/>
  </linearGradient>
  <linearGradient id="oomox" x1="0%" x2="0%" y1="0%" y2="100%">
   <stop offset="0%" style="stop-color:#0abdc6; stop-opacity:1"/>
   <stop offset="100%" style="stop-color:#b800ff; stop-opacity:1"/>
  </linearGradient>
  <linearGradient id="rainblue" x1="0%" x2="0%" y1="0%" y2="100%">
   <stop offset="0%" style="stop-color:#00F260; stop-opacity:1"/>
   <stop offset="100%" style="stop-color:#0575E6; stop-opacity:1"/>
  </linearGradient>
  <linearGradient id="sunrise" x1="0%" x2="0%" y1="0%" y2="100%">
   <stop offset="0%" style="stop-color: #FF8501; stop-opacity:1"/>
   <stop offset="100%" style="stop-color: #FFCB01; stop-opacity:1"/>
  </linearGradient>
  <linearGradient id="telinkrin" x1="0%" x2="0%" y1="0%" y2="100%">
   <stop offset="0%" style="stop-color: #b2ced6; stop-opacity:1"/>
   <stop offset="100%" style="stop-color: #6da5b7; stop-opacity:1"/>
  </linearGradient>
  <linearGradient id="60spsycho" x1="0%" x2="0%" y1="0%" y2="100%">
   <stop offset="0%" style="stop-color: #df5940; stop-opacity:1"/>
   <stop offset="25%" style="stop-color: #d8d15f; stop-opacity:1"/>
   <stop offset="50%" style="stop-color: #e9882a; stop-opacity:1"/>
   <stop offset="100%" style="stop-color: #279362; stop-opacity:1"/>
  </linearGradient>
  <linearGradient id="90ssummer" x1="0%" x2="0%" y1="0%" y2="100%">
   <stop offset="0%" style="stop-color: #f618c7; stop-opacity:1"/>
   <stop offset="20%" style="stop-color: #94ffab; stop-opacity:1"/>
   <stop offset="50%" style="stop-color: #fbfd54; stop-opacity:1"/>
   <stop offset="100%" style="stop-color: #0f83ae; stop-opacity:1"/>
  </linearGradient>
</defs>
  <circle
     cx="7.9805536"
     cy="6.2439022"
     r="6.2439022"
     style="display:inline;opacity:0.5;fill:url(#oomox);stroke-width:0.390244"
     id="circle2"
     class="ColorScheme-Text"/>
  <path
     d="M 15.390614,2.3300305 C 14.772284,2.3461705 14.273236,2.7850611 12.66348,3.5899391 11.629413,4.1069721 10.066299,5.1675805 9.0278097,5.894055 8.9134468,5.3787473 8.7610414,5.0731707 8.7610414,5.0731707 c 0,0 -0.025661,-0.034125 -0.054116,-0.078506 0.2622856,-0.12552 0.4443598,-0.3907754 0.4443598,-0.7019817 0,-0.4323902 -0.3480976,-0.7804878 -0.7804878,-0.7804878 H 8.2122609 C 8.1369134,3.1863301 8.0590808,2.8126263 7.9805535,2.3414634 7.9020263,2.8126263 7.8241937,3.1863301 7.7488462,3.5121951 H 7.5903096 c -0.4323902,0 -0.7804878,0.3480976 -0.7804878,0.7804878 0,0.3112063 0.1820742,0.5764617 0.4443598,0.7019817 -0.028455,0.044381 -0.054116,0.078506 -0.054116,0.078506 0,0 -0.1524054,0.3055766 -0.2667683,0.8208843 C 5.894808,5.1675805 4.3316935,4.1069721 3.2976267,3.5899391 1.6878706,2.7850611 1.2276953,2.346978 0.60936451,2.3307927 0.32830508,2.3234357 0.1756755,2.4029924 0.1756755,2.5754572 c 0,2.7317073 3.141794,3.8205744 5.0731707,4.0586891 L 6.7198827,6.844512 3.2976267,7.4146341 c -1.5609756,0.3902439 -3.1219512,0 -3.1219512,0.7804879 0,1.1634825 0.7804878,1.5609756 2.3414634,1.5609756 1.2902131,0 3.270887,-1.2058506 4.4596035,-2.0152437 0.074221,0.1853822 0.1650392,0.3693994 0.2682927,0.5365853 L 7.9805535,16 8.716072,8.2774392 C 8.8193255,8.1102533 8.9101438,7.9262361 8.9843647,7.7408539 10.173081,8.550247 12.153755,9.7560976 13.443969,9.7560976 c 1.560975,0 2.380334,-0.3974931 2.380334,-1.5609756 0,-0.7804879 -1.599847,-0.390244 -3.160823,-0.7804879 L 9.2412244,6.844512 10.71226,6.6341463 c 1.93161,-0.2759442 5.112043,-1.3269818 5.112043,-4.0586891 0,-0.1724648 -0.152629,-0.2527632 -0.433689,-0.2454267 z"
     style="opacity:0.2;stroke-width:0.390244"
     id="path3" />
  <rect
     x="6.8098216"
     y="3.1219511"
     width="2.3414633"
     height="1.5609756"
     ry="0.78048778"
     style="fill:url(#oomox);stroke-width:0.390244"
     id="rect3"
     class="ColorScheme-Text"/>
  <path
     d="M 7.2000657,7.4146341 7.9805535,15.609756 8.7610414,7.4146341 V 4.6829268 c 0,0 -0.3902439,-0.3902439 -0.7804879,-2.7317073 C 7.5903096,4.2926829 7.2000657,4.6829268 7.2000657,4.6829268 Z"
     style="fill:url(#oomox);stroke-width:0.390244"
     id="path5"
     class="ColorScheme-Text"/>
  <path
     d="m 7.2000657,5.0731707 v 2.3414634 l 0.088414,0.9268293 c 0.235616,0.3625588 0.5071411,0.6341464 0.6920733,0.6341464 0.1849323,0 0.4564574,-0.2715876 0.6920734,-0.6341464 L 8.7610414,7.4146341 V 5.0731707 Z"
     style="opacity:0.2;fill:#000000;stroke-width:0.390244"
     id="path6" />
  <path
     d="m 7.2000657,4.6829268 h 1.5609757 c 0,0 0.3902439,0.7804878 0.3902439,1.9512195 0,0.758498 -0.7804878,1.9512196 -1.1707318,1.9512196 -0.3902439,0 -1.1707317,-1.1927216 -1.1707317,-1.9512196 0,-1.1707317 0.3902439,-1.9512195 0.3902439,-1.9512195 z"
     style="fill:url(#oomox);stroke-width:0.390244"
     id="path8"
     class="ColorScheme-Text"/>
  <path
     d="m 6.8692732,5.8498474 c -0.035426,0.2344051 -0.059451,0.4972031 -0.059451,0.7842989 0,0.3038197 0.1273815,0.6751208 0.3025917,1.0137195 0.5147426,-0.3554088 0.86814,-0.6234756 0.86814,-0.6234756 0,0 0.3533975,0.2680668 0.8681401,0.6234756 0.1752102,-0.3385987 0.3025917,-0.7098998 0.3025917,-1.0137195 0,-0.2870958 -0.024025,-0.5498938 -0.059451,-0.7842989 -0.6194907,0.4324531 -1.1112812,0.7842989 -1.1112812,0.7842989 0,0 -0.4917904,-0.3518458 -1.1112803,-0.7842989 z"
     style="opacity:0.2;fill:#000000;stroke-width:0.390244"
     id="path9" />
  <path
     d="m 15.390635,1.9397866 c -0.61833,0.01614 -1.117399,0.4550306 -2.727155,1.2599086 -1.616361,0.8081807 -4.6829265,3.0442072 -4.6829265,3.0442072 0,0 -3.066565,-2.2360265 -4.6829268,-3.0442072 C 1.6878706,2.3948172 1.2278264,1.956734 0.6094956,1.9405488 c -0.28105944,-0.00736 -0.43368902,0.0722 -0.43368902,0.2446646 0,2.7317072 3.14166292,3.8205743 5.07303962,4.058689 l 1.4710365,0.2103657 -3.422256,0.5701221 c -1.5609756,0.3902439 -3.12182012,0 -3.12182012,0.7804878 0,1.1634826 0.78035672,1.5609757 2.34133232,1.5609757 1.9337975,0 5.4634146,-2.7317074 5.4634146,-2.7317074 0,0 3.5296175,2.7317074 5.4634155,2.7317074 1.560975,0 2.380355,-0.3974931 2.380355,-1.5609757 0,-0.7804878 -1.599869,-0.3902439 -3.160844,-0.7804878 L 9.2412244,6.4542681 10.71226,6.2439024 c 1.93161,-0.2759442 5.112064,-1.3269818 5.112064,-4.058689 0,-0.1724651 -0.152628,-0.2527633 -0.433689,-0.2454268 z"
     style="fill:url(#oomox);stroke-width:0.390244"
     id="path10"
     class="ColorScheme-Text"/>
  <metadata
     id="metadata10">
    <rdf:RDF>
      <cc:Work
         rdf:about="">
        <dc:creator>
          <cc:Agent>
            <dc:title>dreifacherspass</dc:title>
          </cc:Agent>
        </dc:creator>
        <cc:license
           rdf:resource="http://creativecommons.org/licenses/by-sa/4.0/" />
      </cc:Work>
      <cc:License
         rdf:about="http://creativecommons.org/licenses/by-sa/4.0/">
        <cc:permits
           rdf:resource="http://creativecommons.org/ns#Reproduction" />
        <cc:permits
           rdf:resource="http://creativecommons.org/ns#Distribution" />
        <cc:requires
           rdf:resource="http://creativecommons.org/ns#Notice" />
        <cc:requires
           rdf:resource="http://creativecommons.org/ns#Attribution" />
        <cc:permits
           rdf:resource="http://creativecommons.org/ns#DerivativeWorks" />
        <cc:requires
           rdf:resource="http://creativecommons.org/ns#ShareAlike" />
      </cc:License>
    </rdf:RDF>
  </metadata>
</svg>
