<?xml version="1.0" encoding="UTF-8" standalone="no"?>
<svg
   width="16"
   height="16"
   version="1.1"
   id="svg4"
   xmlns:xlink="http://www.w3.org/1999/xlink"
   xmlns="http://www.w3.org/2000/svg"
   xmlns:svg="http://www.w3.org/2000/svg"
   xmlns:rdf="http://www.w3.org/1999/02/22-rdf-syntax-ns#"
   xmlns:cc="http://creativecommons.org/ns#"
   xmlns:dc="http://purl.org/dc/elements/1.1/">
 <defs>
   <style id="current-color-scheme" type="text/css">
   .ColorScheme-Text { color: #0abdc6; } .ColorScheme-Highlight { color:#5294e2; }
  </style>
  <linearGradient id="arrongin" x1="0%" x2="0%" y1="0%" y2="100%">
   <stop offset="0%" style="stop-color:#dd9b44; stop-opacity:1"/>
   <stop offset="100%" style="stop-color:#ad6c16; stop-opacity:1"/>
  </linearGradient>
  <linearGradient id="aurora" x1="0%" x2="0%" y1="0%" y2="100%">
   <stop offset="0%" style="stop-color:#09D4DF; stop-opacity:1"/>
   <stop offset="100%" style="stop-color:#9269F4; stop-opacity:1"/>
  </linearGradient>
  <linearGradient id="cyberneon" x1="0%" x2="0%" y1="0%" y2="100%">
    <stop offset="0" style="stop-color:#0abdc6; stop-opacity:1"/>
    <stop offset="1" style="stop-color:#ea00d9; stop-opacity:1"/>
  </linearGradient>
  <linearGradient id="fitdance" x1="0%" x2="0%" y1="0%" y2="100%">
   <stop offset="0%" style="stop-color:#1AD6AB; stop-opacity:1"/>
   <stop offset="100%" style="stop-color:#329DB6; stop-opacity:1"/>
  </linearGradient>
  <linearGradient id="oomox" x1="0%" x2="0%" y1="0%" y2="100%">
   <stop offset="0%" style="stop-color:#0abdc6; stop-opacity:1"/>
   <stop offset="100%" style="stop-color:#b800ff; stop-opacity:1"/>
  </linearGradient>
  <linearGradient id="rainblue" x1="0%" x2="0%" y1="0%" y2="100%">
   <stop offset="0%" style="stop-color:#00F260; stop-opacity:1"/>
   <stop offset="100%" style="stop-color:#0575E6; stop-opacity:1"/>
  </linearGradient>
  <linearGradient id="sunrise" x1="0%" x2="0%" y1="0%" y2="100%">
   <stop offset="0%" style="stop-color: #FF8501; stop-opacity:1"/>
   <stop offset="100%" style="stop-color: #FFCB01; stop-opacity:1"/>
  </linearGradient>
  <linearGradient id="telinkrin" x1="0%" x2="0%" y1="0%" y2="100%">
   <stop offset="0%" style="stop-color: #b2ced6; stop-opacity:1"/>
   <stop offset="100%" style="stop-color: #6da5b7; stop-opacity:1"/>
  </linearGradient>
  <linearGradient id="60spsycho" x1="0%" x2="0%" y1="0%" y2="100%">
   <stop offset="0%" style="stop-color: #df5940; stop-opacity:1"/>
   <stop offset="25%" style="stop-color: #d8d15f; stop-opacity:1"/>
   <stop offset="50%" style="stop-color: #e9882a; stop-opacity:1"/>
   <stop offset="100%" style="stop-color: #279362; stop-opacity:1"/>
  </linearGradient>
  <linearGradient id="90ssummer" x1="0%" x2="0%" y1="0%" y2="100%">
   <stop offset="0%" style="stop-color: #f618c7; stop-opacity:1"/>
   <stop offset="20%" style="stop-color: #94ffab; stop-opacity:1"/>
   <stop offset="50%" style="stop-color: #fbfd54; stop-opacity:1"/>
   <stop offset="100%" style="stop-color: #0f83ae; stop-opacity:1"/>
  </linearGradient>
 </defs>
  <path
     id="path26"
     class="ColorScheme-Text"
     style="display:inline;fill:url(#oomox);stroke-width:0.470534"
     d="M 10.667433,1.3348655 A 5.332564,5.3325656 0 0 0 9.6266518,1.4359563 5.332564,5.3325656 0 0 0 8.6249286,1.7392304 5.332564,5.3325656 0 0 0 7.703619,2.2331995 5.332564,5.3325656 0 0 0 6.8948883,2.8948884 5.332564,5.3325656 0 0 0 6.2309021,3.7036192 5.332564,5.3325656 0 0 0 5.7392306,4.6272267 a 5.332564,5.3325656 0 0 0 -0.303274,0.999426 5.332564,5.3325656 0 0 0 -0.1033893,1.0407815 5.332564,5.3325656 0 0 0 0.1033893,1.0407815 5.332564,5.3325656 0 0 0 0.303274,0.9994259 5.332564,5.3325656 0 0 0 0.493969,0.9236075 5.332564,5.3325656 0 0 0 0.6616887,0.8064339 5.332564,5.3325656 0 0 0 0.8087307,0.663986 5.332564,5.3325656 0 0 0 0.9213096,0.491672 5.332564,5.3325656 0 0 0 1.0017232,0.303274 5.332564,5.3325656 0 0 0 1.0407812,0.103388 5.332564,5.3325656 0 0 0 1.040781,-0.103388 5.332564,5.3325656 0 0 0 0.999425,-0.303274 5.332564,5.3325656 0 0 0 0.92131,-0.491672 5.332564,5.3325656 0 0 0 0.80873,-0.663986 A 5.332564,5.3325656 0 0 0 15.099368,9.6289515 5.332564,5.3325656 0 0 0 15.593337,8.7076416 5.332564,5.3325656 0 0 0 15.896612,7.7082157 5.332564,5.3325656 0 0 0 16,6.6674342 5.332564,5.3325656 0 0 0 15.988472,6.3182095 5.332564,5.3325656 0 0 0 15.95405,5.9712829 5.332564,5.3325656 0 0 0 15.896612,5.6266533 5.332564,5.3325656 0 0 0 15.818495,5.2866187 5.332564,5.3325656 0 0 0 15.715107,4.9534767 5.332564,5.3325656 0 0 0 15.593337,4.6272273 5.332564,5.3325656 0 0 0 15.448593,4.3078705 5.332564,5.3325656 0 0 0 15.285468,4.0000014 5.332564,5.3325656 0 0 0 15.101666,3.7036198 5.332564,5.3325656 0 0 0 14.897185,3.4210236 5.332564,5.3325656 0 0 0 14.676623,3.1522124 5.332564,5.3325656 0 0 0 14.437679,2.8971866 5.332564,5.3325656 0 0 0 14.182653,2.6582434 5.332564,5.3325656 0 0 0 13.913843,2.4376804 5.332564,5.3325656 0 0 0 13.628949,2.2332 5.332564,5.3325656 0 0 0 13.332568,2.0493976 5.332564,5.3325656 0 0 0 13.024698,1.8839754 5.332564,5.3325656 0 0 0 12.707639,1.7415285 5.332564,5.3325656 0 0 0 12.38139,1.6174619 5.332564,5.3325656 0 0 0 12.048248,1.5163699 5.332564,5.3325656 0 0 0 11.708214,1.4359568 5.332564,5.3325656 0 0 0 11.363585,1.3808161 5.332564,5.3325656 0 0 0 11.016657,1.3463529 5.332564,5.3325656 0 0 0 10.667433,1.3348601 Z m 0,1.332568 a 3.9995406,3.9995418 0 0 1 0.298678,0.011493 3.9995406,3.9995418 0 0 1 0.296383,0.034463 3.9995406,3.9995418 0 0 1 0.294084,0.055141 3.9995406,3.9995418 0 0 1 0.289487,0.078116 3.9995406,3.9995418 0 0 1 0.282597,0.098793 3.9995406,3.9995418 0 0 1 0.273407,0.1194716 3.9995406,3.9995418 0 0 1 0.264215,0.1378518 3.9995406,3.9995418 0 0 1 0.252729,0.1608273 3.9995406,3.9995418 0 0 1 0.24124,0.1769098 3.9995406,3.9995418 0 0 1 0.227455,0.1952901 3.9995406,3.9995418 0 0 1 0.211374,0.2113729 3.9995406,3.9995418 0 0 1 0.195289,0.2274555 3.9995406,3.9995418 0 0 1 0.17691,0.2389433 3.9995406,3.9995418 0 0 1 0.15853,0.2550259 3.9995406,3.9995418 0 0 1 0.140149,0.264216 3.9995406,3.9995418 0 0 1 0.119472,0.2734062 3.9995406,3.9995418 0 0 1 0.09879,0.2825963 3.9995406,3.9995418 0 0 1 0.07812,0.2894889 3.9995406,3.9995418 0 0 1 0.05513,0.2940839 3.9995406,3.9995418 0 0 1 0.03447,0.2963815 3.9995406,3.9995418 0 0 1 0.01153,0.2986791 3.9995406,3.9995418 0 0 1 -0.01153,0.298679 3.9995406,3.9995418 0 0 1 -0.03447,0.2963815 3.9995406,3.9995418 0 0 1 -0.05513,0.294084 3.9995406,3.9995418 0 0 1 -0.07812,0.2894888 3.9995406,3.9995418 0 0 1 -0.09879,0.2825963 3.9995406,3.9995418 0 0 1 -0.119472,0.2734062 3.9995406,3.9995418 0 0 1 -0.140149,0.264216 3.9995406,3.9995418 0 0 1 -0.15853,0.255026 3.9995406,3.9995418 0 0 1 -0.17691,0.2389432 3.9995406,3.9995418 0 0 1 -0.195289,0.227451 3.9995406,3.9995418 0 0 1 -0.211374,0.2113728 3.9995406,3.9995418 0 0 1 -0.227455,0.1952901 3.9995406,3.9995418 0 0 1 -0.24124,0.1769099 3.9995406,3.9995418 0 0 1 -0.252729,0.1608266 3.9995406,3.9995418 0 0 1 -0.264215,0.137852 3.9995406,3.9995418 0 0 1 -0.273407,0.119472 3.9995406,3.9995418 0 0 1 -0.282597,0.09879 3.9995406,3.9995418 0 0 1 -0.289487,0.07812 3.9995406,3.9995418 0 0 1 -0.294084,0.05513 3.9995406,3.9995418 0 0 1 -0.296383,0.03447 3.9995406,3.9995418 0 0 1 -0.298678,0.01153 A 3.9995406,3.9995418 0 0 1 9.7759912,10.566379 3.9995406,3.9995418 0 0 1 8.9305001,10.269997 3.9995406,3.9995418 0 0 1 8.1723152,9.7944084 3.9995406,3.9995418 0 0 1 7.5404943,9.1602899 3.9995406,3.9995418 0 0 1 7.062608,8.4021048 3.9995406,3.9995418 0 0 1 6.7685241,7.5566134 3.9995406,3.9995418 0 0 1 6.6674334,6.6674689 3.9995406,3.9995418 0 0 1 6.7685241,5.7783244 3.9995406,3.9995418 0 0 1 7.062608,4.932833 3.9995406,3.9995418 0 0 1 7.5404943,4.1746479 3.9995406,3.9995418 0 0 1 8.1723152,3.5405293 3.9995406,3.9995418 0 0 1 8.9305001,3.0649404 3.9995406,3.9995418 0 0 1 9.7759912,2.768559 3.9995406,3.9995418 0 0 1 10.667433,2.6674682 Z" />
  <path
     d="M 8.0000004,0 A 7.9990813,7.9990836 0 0 0 6.7478464,0.09879339 7.9990813,7.9990836 0 0 0 5.5278578,0.39287735 7.9990813,7.9990836 0 0 0 4.3676051,0.87306175 7.9990813,7.9990836 0 0 0 3.2992534,1.5278581 7.9990813,7.9990836 0 0 0 2.343481,2.3434817 7.9990813,7.9990836 0 0 0 1.5278577,3.2992544 7.9990813,7.9990836 0 0 0 0.87306149,4.3676064 7.9990813,7.9990836 0 0 0 0.3928777,5.5278594 7.9990813,7.9990836 0 0 0 0.09879383,6.7478484 7.9990813,7.9990836 0 0 0 0,8.0000027 7.9990813,7.9990836 0 0 0 0.09879336,9.252157 a 7.9990813,7.9990836 0 0 0 0.29408387,1.21999 7.9990813,7.9990836 0 0 0 0.48018379,1.160253 7.9990813,7.9990836 0 0 0 0.65479618,1.068351 7.9990813,7.9990836 0 0 0 0.8156233,0.955773 7.9990813,7.9990836 0 0 0 0.9557725,0.815623 7.9990813,7.9990836 0 0 0 1.0683516,0.654797 7.9990813,7.9990836 0 0 0 1.1602527,0.480183 7.9990813,7.9990836 0 0 0 1.2199886,0.294084 A 7.9990813,7.9990836 0 0 0 8.0000004,16 a 7.9990813,7.9990836 0 0 0 1.1924182,-0.09191 7.9990813,7.9990836 0 0 0 1.1671444,-0.266513 7.9990813,7.9990836 0 0 0 1.114303,-0.438829 7.9990813,7.9990836 0 0 0 1.033888,-0.599656 7.9990813,7.9990836 0 0 0 0.935095,-0.746696 7.9990813,7.9990836 0 0 0 0.813325,-0.879955 7.9990813,7.9990836 0 0 0 0.673177,-0.990236 7.9990813,7.9990836 0 0 0 0.516944,-1.077542 7.9990813,7.9990836 0 0 0 0.349225,-1.1441596 5.999311,5.9993127 0 0 1 -0.601953,0.8294086 5.999311,5.9993127 0 0 1 -0.73521,0.714532 5.999311,5.9993127 0 0 1 -0.845491,0.578978 5.999311,5.9993127 0 0 1 -0.932796,0.427341 5.999311,5.9993127 0 0 1 -0.992533,0.261918 5.999311,5.9993127 0 0 1 -1.020104,0.0896 5.999311,5.9993127 0 0 1 -1.0430787,-0.0896 A 5.999311,5.9993127 0 0 1 8.6157385,12.305575 5.999311,5.9993127 0 0 1 7.6668585,11.862152 5.999311,5.9993127 0 0 1 6.8098796,11.262497 5.999311,5.9993127 0 0 1 6.0723725,10.522691 5.999311,5.9993127 0 0 1 5.4704196,9.6680102 5.999311,5.9993127 0 0 1 5.0292938,8.7191299 5.999311,5.9993127 0 0 1 4.7581852,7.7082162 5.999311,5.9993127 0 0 1 4.6685814,6.6674348 5.999311,5.9993127 0 0 1 4.7581852,5.6266533 5.999311,5.9993127 0 0 1 5.0292938,4.6157397 5.999311,5.9993127 0 0 1 5.4704196,3.6668593 5.999311,5.9993127 0 0 1 6.070075,2.8098803 5.999311,5.9993127 0 0 1 6.8098796,2.0700754 5.999311,5.9993127 0 0 1 7.6668585,1.4704199 5.999311,5.9993127 0 0 1 8.6157385,1.029294 5.999311,5.9993127 0 0 1 9.6243543,0.75818526 5.999311,5.9993127 0 0 1 10.667433,0.66628402 5.999311,5.9993127 0 0 1 11.248708,0.6961519 7.9990813,7.9990836 0 0 0 10.201034,0.3124642 7.9990813,7.9990836 0 0 0 9.112005,0.08041361 7.9990813,7.9990836 0 0 0 8.0000004,0 Z"
     style="display:inline;fill:url(#oomox);stroke-width:0.470534"
     id="path25"
     class="ColorScheme-Text"/>
  <metadata
     id="metadata4">
    <rdf:RDF>
      <cc:Work
         rdf:about="">
        <dc:creator>
          <cc:Agent>
            <dc:title>dreifacherspass</dc:title>
          </cc:Agent>
        </dc:creator>
        <cc:license
           rdf:resource="http://creativecommons.org/licenses/by-sa/4.0/" />
      </cc:Work>
      <cc:License
         rdf:about="http://creativecommons.org/licenses/by-sa/4.0/">
        <cc:permits
           rdf:resource="http://creativecommons.org/ns#Reproduction" />
        <cc:permits
           rdf:resource="http://creativecommons.org/ns#Distribution" />
        <cc:requires
           rdf:resource="http://creativecommons.org/ns#Notice" />
        <cc:requires
           rdf:resource="http://creativecommons.org/ns#Attribution" />
        <cc:permits
           rdf:resource="http://creativecommons.org/ns#DerivativeWorks" />
        <cc:requires
           rdf:resource="http://creativecommons.org/ns#ShareAlike" />
      </cc:License>
    </rdf:RDF>
  </metadata>
</svg>
