<?xml version="1.0" encoding="UTF-8" standalone="no"?>
<svg
   width="16"
   height="16"
   version="1.1"
   id="svg5"
   xmlns="http://www.w3.org/2000/svg"
   xmlns:svg="http://www.w3.org/2000/svg"
   xmlns:rdf="http://www.w3.org/1999/02/22-rdf-syntax-ns#"
   xmlns:cc="http://creativecommons.org/ns#"
   xmlns:dc="http://purl.org/dc/elements/1.1/">
  <defs>
   <style id="current-color-scheme" type="text/css">
   .ColorScheme-Text { color: #0abdc6; } .ColorScheme-Highlight { color:#5294e2; }
  </style>
  <linearGradient id="arrongin" x1="0%" x2="0%" y1="0%" y2="100%">
   <stop offset="0%" style="stop-color:#dd9b44; stop-opacity:1"/>
   <stop offset="100%" style="stop-color:#ad6c16; stop-opacity:1"/>
  </linearGradient>
  <linearGradient id="aurora" x1="0%" x2="0%" y1="0%" y2="100%">
   <stop offset="0%" style="stop-color:#09D4DF; stop-opacity:1"/>
   <stop offset="100%" style="stop-color:#9269F4; stop-opacity:1"/>
  </linearGradient>
  <linearGradient id="cyberneon" x1="0%" x2="0%" y1="0%" y2="100%">
    <stop offset="0" style="stop-color:#0abdc6; stop-opacity:1"/>
    <stop offset="1" style="stop-color:#ea00d9; stop-opacity:1"/>
  </linearGradient>
  <linearGradient id="fitdance" x1="0%" x2="0%" y1="0%" y2="100%">
   <stop offset="0%" style="stop-color:#1AD6AB; stop-opacity:1"/>
   <stop offset="100%" style="stop-color:#329DB6; stop-opacity:1"/>
  </linearGradient>
  <linearGradient id="oomox" x1="0%" x2="0%" y1="0%" y2="100%">
   <stop offset="0%" style="stop-color:#0abdc6; stop-opacity:1"/>
   <stop offset="100%" style="stop-color:#b800ff; stop-opacity:1"/>
  </linearGradient>
  <linearGradient id="rainblue" x1="0%" x2="0%" y1="0%" y2="100%">
   <stop offset="0%" style="stop-color:#00F260; stop-opacity:1"/>
   <stop offset="100%" style="stop-color:#0575E6; stop-opacity:1"/>
  </linearGradient>
  <linearGradient id="sunrise" x1="0%" x2="0%" y1="0%" y2="100%">
   <stop offset="0%" style="stop-color: #FF8501; stop-opacity:1"/>
   <stop offset="100%" style="stop-color: #FFCB01; stop-opacity:1"/>
  </linearGradient>
  <linearGradient id="telinkrin" x1="0%" x2="0%" y1="0%" y2="100%">
   <stop offset="0%" style="stop-color: #b2ced6; stop-opacity:1"/>
   <stop offset="100%" style="stop-color: #6da5b7; stop-opacity:1"/>
  </linearGradient>
  <linearGradient id="60spsycho" x1="0%" x2="0%" y1="0%" y2="100%">
   <stop offset="0%" style="stop-color: #df5940; stop-opacity:1"/>
   <stop offset="25%" style="stop-color: #d8d15f; stop-opacity:1"/>
   <stop offset="50%" style="stop-color: #e9882a; stop-opacity:1"/>
   <stop offset="100%" style="stop-color: #279362; stop-opacity:1"/>
  </linearGradient>
  <linearGradient id="90ssummer" x1="0%" x2="0%" y1="0%" y2="100%">
   <stop offset="0%" style="stop-color: #f618c7; stop-opacity:1"/>
   <stop offset="20%" style="stop-color: #94ffab; stop-opacity:1"/>
   <stop offset="50%" style="stop-color: #fbfd54; stop-opacity:1"/>
   <stop offset="100%" style="stop-color: #0f83ae; stop-opacity:1"/>
  </linearGradient>
 </defs>
  <path
     id="path2"
     class="ColorScheme-Text"
     style="display:inline;fill:url(#oomox);stroke-width:0.363636;fill-opacity:1"
     d="M 8.1503906 2 C 7.6663355 2 7.5223096 2.6230469 6.9335938 2.6230469 C 6.3710434 2.6230469 5.9529902 2.1562499 5.4296875 2.15625 C 4.9194669 2.15625 4.5923204 2.4927881 4.34375 3.1933594 C 4.34375 3.1933594 3.6365 5.165754 3.5449219 5.4511719 C 3.5435227 5.4567215 3.5172781 5.5151947 3.5097656 5.5332031 C 3.4966816 5.5855331 3.4830138 5.637123 3.4960938 5.6894531 C 3.4960938 6.4613251 6.580936 9 10.675781 9 C 11.722387 9 13.269531 8.7780004 13.269531 7.5351562 C 13.269531 7.4924589 13.268276 7.4461239 13.265625 7.4003906 L 13.212891 7.1757812 L 12.585938 4.4785156 C 12.44203 3.881733 12.323361 3.6087853 11.263672 3.0898438 C 10.452554 2.6746916 8.6736941 2 8.1503906 2 z M 3.5097656 5.5332031 C 3.4517772 5.6722091 3.2596419 6.0851294 3.2363281 6.1914062 L 3.5097656 5.5332031 z M 3.2265625 6.2167969 C 1.8274552 6.282103 -2.9566006e-16 6.543125 0 8.1367188 C 0 10.757373 6.2669046 14 11.238281 14 C 15.045308 14 16 12.287447 16 10.951172 C 16 9.8743685 15.071054 8.6815959 13.396484 7.9550781 L 13.359375 7.8007812 L 13.412109 8.0449219 C 13.556016 8.7382983 13.556641 8.8029531 13.556641 8.8945312 C 13.556641 10.071962 12.218497 10.726562 10.478516 10.726562 C 6.5537435 10.726563 3.0644531 8.4238281 3.0644531 6.90625 C 3.0644531 6.6969287 3.1037345 6.4872543 3.1953125 6.2910156 L 3.2265625 6.2167969 z " />
  <path
     style="display:inline;fill:url(#oomox);stroke-width:0.363636;fill-opacity:1;opacity:0.5"
     d="m 13.413083,8.0453429 c 0.143908,0.6933771 0.143908,0.7587898 0.143908,0.850368 0,1.1774321 -1.337858,1.8315621 -3.077841,1.8315621 -3.9247755,0 -7.4150085,-2.3025352 -7.4150085,-3.8201148 0,-0.2093215 0.039248,-0.4186426 0.1308261,-0.6148815 L 3.5089495,5.5334869 c -0.013084,0.05233 -0.026164,0.1046607 -0.013084,0.1569909 0,0.7718727 3.0846727,3.3098938 7.1795215,3.3098938 1.046607,0 2.593786,-0.222404 2.593786,-1.4652494 0,-0.091578 0,-0.1962386 -0.02616,-0.2878167 z"
     id="path5"
     class="ColorScheme-Text"/>
  <metadata
     id="metadata5">
    <rdf:RDF>
      <cc:Work
         rdf:about="">
        <dc:creator>
          <cc:Agent>
            <dc:title>dreifacherspass</dc:title>
          </cc:Agent>
        </dc:creator>
        <cc:license
           rdf:resource="http://creativecommons.org/licenses/by-sa/4.0/" />
      </cc:Work>
      <cc:License
         rdf:about="http://creativecommons.org/licenses/by-sa/4.0/">
        <cc:permits
           rdf:resource="http://creativecommons.org/ns#Reproduction" />
        <cc:permits
           rdf:resource="http://creativecommons.org/ns#Distribution" />
        <cc:requires
           rdf:resource="http://creativecommons.org/ns#Notice" />
        <cc:requires
           rdf:resource="http://creativecommons.org/ns#Attribution" />
        <cc:permits
           rdf:resource="http://creativecommons.org/ns#DerivativeWorks" />
        <cc:requires
           rdf:resource="http://creativecommons.org/ns#ShareAlike" />
      </cc:License>
    </rdf:RDF>
  </metadata>
</svg>
