<?xml version="1.0" encoding="UTF-8" standalone="no"?>
<svg
   width="16"
   height="16"
   version="1"
   id="svg18"
   xmlns:xlink="http://www.w3.org/1999/xlink"
   xmlns="http://www.w3.org/2000/svg"
   xmlns:svg="http://www.w3.org/2000/svg"
   xmlns:rdf="http://www.w3.org/1999/02/22-rdf-syntax-ns#"
   xmlns:cc="http://creativecommons.org/ns#"
   xmlns:dc="http://purl.org/dc/elements/1.1/">
  <defs>
   <style id="current-color-scheme" type="text/css">
   .ColorScheme-Text { color: #0abdc6; } .ColorScheme-Highlight { color:#5294e2; }
  </style>
  <linearGradient id="arrongin" x1="0%" x2="0%" y1="0%" y2="100%">
   <stop offset="0%" style="stop-color:#dd9b44; stop-opacity:1"/>
   <stop offset="100%" style="stop-color:#ad6c16; stop-opacity:1"/>
  </linearGradient>
  <linearGradient id="aurora" x1="0%" x2="0%" y1="0%" y2="100%">
   <stop offset="0%" style="stop-color:#09D4DF; stop-opacity:1"/>
   <stop offset="100%" style="stop-color:#9269F4; stop-opacity:1"/>
  </linearGradient>
  <linearGradient id="cyberneon" x1="0%" x2="0%" y1="0%" y2="100%">
    <stop offset="0" style="stop-color:#0abdc6; stop-opacity:1"/>
    <stop offset="1" style="stop-color:#ea00d9; stop-opacity:1"/>
  </linearGradient>
  <linearGradient id="fitdance" x1="0%" x2="0%" y1="0%" y2="100%">
   <stop offset="0%" style="stop-color:#1AD6AB; stop-opacity:1"/>
   <stop offset="100%" style="stop-color:#329DB6; stop-opacity:1"/>
  </linearGradient>
  <linearGradient id="oomox" x1="0%" x2="0%" y1="0%" y2="100%">
   <stop offset="0%" style="stop-color:#0abdc6; stop-opacity:1"/>
   <stop offset="100%" style="stop-color:#b800ff; stop-opacity:1"/>
  </linearGradient>
  <linearGradient id="rainblue" x1="0%" x2="0%" y1="0%" y2="100%">
   <stop offset="0%" style="stop-color:#00F260; stop-opacity:1"/>
   <stop offset="100%" style="stop-color:#0575E6; stop-opacity:1"/>
  </linearGradient>
  <linearGradient id="sunrise" x1="0%" x2="0%" y1="0%" y2="100%">
   <stop offset="0%" style="stop-color: #FF8501; stop-opacity:1"/>
   <stop offset="100%" style="stop-color: #FFCB01; stop-opacity:1"/>
  </linearGradient>
  <linearGradient id="telinkrin" x1="0%" x2="0%" y1="0%" y2="100%">
   <stop offset="0%" style="stop-color: #b2ced6; stop-opacity:1"/>
   <stop offset="100%" style="stop-color: #6da5b7; stop-opacity:1"/>
  </linearGradient>
  <linearGradient id="60spsycho" x1="0%" x2="0%" y1="0%" y2="100%">
   <stop offset="0%" style="stop-color: #df5940; stop-opacity:1"/>
   <stop offset="25%" style="stop-color: #d8d15f; stop-opacity:1"/>
   <stop offset="50%" style="stop-color: #e9882a; stop-opacity:1"/>
   <stop offset="100%" style="stop-color: #279362; stop-opacity:1"/>
  </linearGradient>
  <linearGradient id="90ssummer" x1="0%" x2="0%" y1="0%" y2="100%">
   <stop offset="0%" style="stop-color: #f618c7; stop-opacity:1"/>
   <stop offset="20%" style="stop-color: #94ffab; stop-opacity:1"/>
   <stop offset="50%" style="stop-color: #fbfd54; stop-opacity:1"/>
   <stop offset="100%" style="stop-color: #0f83ae; stop-opacity:1"/>
  </linearGradient>
 </defs>
  <path
     id="path248"
     style="display:inline;opacity:1;fill:url(#oomox);fill-opacity:1;stroke-width:0.470586"
     class="ColorScheme-Text"
     d="M 9.426862,0 C 8.2680274,0.70060476 7.0773479,1.3529102 5.9441492,2.09375 5.5283937,4.0802325 5.125417,6.0693571 4.7360373,8.0611705 5.173033,8.6159695 5.6524539,9.136172 6.1050534,9.6781918 5.6629499,9.5371117 5.1075845,9.2188255 4.6196808,9.0219414 5.0037605,10.440512 5.4055205,11.855293 5.8244682,13.263963 6.3846394,13.215763 6.9406779,13.125798 7.500665,13.075798 7.0986694,13.489945 6.6643532,13.87211 6.2599736,14.28391 6.9669047,13.98975 7.662474,13.668167 8.3670216,13.368351 8.5023814,13.590111 8.1006227,14.384352 8.0465427,14.81516 8.3553822,14.314988 8.6499961,13.805233 8.9434842,13.295878 l 0.00465,-0.002 C 8.4194603,12.655055 7.8911161,12.007461 7.3623664,11.370997 7.0959651,11.050181 7.0858102,11.132647 7.1210102,10.724056 7.2708859,7.7917326 7.8873411,4.6193991 8.8636962,1.9946673 8.2176251,4.6512656 7.5564321,7.9059209 7.3876325,10.845066 c -0.00928,0.1618 0.021072,0.163648 0.1323138,0.297208 0.5598119,0.682542 1.1197088,1.351668 1.6795214,2.033244 l 0.014628,-0.0066 c 0.6142115,0.09688 1.2267143,0.213956 1.8404253,0.306515 -0.552291,-0.271106 -1.1139275,-0.523439 -1.6662228,-0.794534 0.552307,-0.22896 1.1412808,-0.402296 1.7054518,-0.615692 -0.554851,-0.0052 -1.1100298,0.0096 -1.6648932,0.0033 0.08964,-0.19792 0.7597142,-0.54669 1.0498662,-0.817154 C 10.073436,10.78059 9.616328,10.356489 9.2081123,9.8883091 9.9141318,7.5762592 10.655276,5.2749373 11.380319,2.9687616 10.730103,1.9786182 10.095137,0.97796654 9.426862,0 Z" />
  <path
     d="M 8.9390723,13.286614 C 9.7361477,14.249953 10.53407,15.185439 11.335672,16 l -4.43e-4,-0.09336 C 10.621534,14.92806 9.9078409,14.03565 9.1941481,13.166841 9.1599578,13.039242 8.8667774,13.267243 8.939072,13.286614 Z"
     style="display:inline;opacity:1;fill:url(#oomox);fill-opacity:1;stroke-width:0.470586"
     id="path357"
     class="ColorScheme-Text" />
  <metadata
     id="metadata305">
    <rdf:RDF>
      <cc:Work
         rdf:about="">
        <dc:creator>
          <cc:Agent>
            <dc:title>dreifacherspass</dc:title>
          </cc:Agent>
        </dc:creator>
        <cc:license
           rdf:resource="http://creativecommons.org/licenses/by-sa/4.0/" />
      </cc:Work>
      <cc:License
         rdf:about="http://creativecommons.org/licenses/by-sa/4.0/">
        <cc:permits
           rdf:resource="http://creativecommons.org/ns#Reproduction" />
        <cc:permits
           rdf:resource="http://creativecommons.org/ns#Distribution" />
        <cc:requires
           rdf:resource="http://creativecommons.org/ns#Notice" />
        <cc:requires
           rdf:resource="http://creativecommons.org/ns#Attribution" />
        <cc:permits
           rdf:resource="http://creativecommons.org/ns#DerivativeWorks" />
        <cc:requires
           rdf:resource="http://creativecommons.org/ns#ShareAlike" />
      </cc:License>
    </rdf:RDF>
  </metadata>
</svg>
