<?xml version="1.0" encoding="UTF-8" standalone="no"?>
<svg
   width="16"
   height="16"
   version="1"
   id="svg8"
   xmlns:xlink="http://www.w3.org/1999/xlink"
   xmlns="http://www.w3.org/2000/svg"
   xmlns:svg="http://www.w3.org/2000/svg"
   xmlns:rdf="http://www.w3.org/1999/02/22-rdf-syntax-ns#"
   xmlns:cc="http://creativecommons.org/ns#"
   xmlns:dc="http://purl.org/dc/elements/1.1/">
   <defs>
   <style id="current-color-scheme" type="text/css">
   .ColorScheme-Text { color: #0abdc6; } .ColorScheme-Highlight { color:#5294e2; }
  </style>
  <linearGradient id="arrongin" x1="0%" x2="0%" y1="0%" y2="100%">
   <stop offset="0%" style="stop-color:#dd9b44; stop-opacity:1"/>
   <stop offset="100%" style="stop-color:#ad6c16; stop-opacity:1"/>
  </linearGradient>
  <linearGradient id="aurora" x1="0%" x2="0%" y1="0%" y2="100%">
   <stop offset="0%" style="stop-color:#09D4DF; stop-opacity:1"/>
   <stop offset="100%" style="stop-color:#9269F4; stop-opacity:1"/>
  </linearGradient>
  <linearGradient id="cyberneon" x1="0%" x2="0%" y1="0%" y2="100%">
    <stop offset="0" style="stop-color:#0abdc6; stop-opacity:1"/>
    <stop offset="1" style="stop-color:#ea00d9; stop-opacity:1"/>
  </linearGradient>
  <linearGradient id="fitdance" x1="0%" x2="0%" y1="0%" y2="100%">
   <stop offset="0%" style="stop-color:#1AD6AB; stop-opacity:1"/>
   <stop offset="100%" style="stop-color:#329DB6; stop-opacity:1"/>
  </linearGradient>
  <linearGradient id="oomox" x1="0%" x2="0%" y1="0%" y2="100%">
   <stop offset="0%" style="stop-color:#0abdc6; stop-opacity:1"/>
   <stop offset="100%" style="stop-color:#b800ff; stop-opacity:1"/>
  </linearGradient>
  <linearGradient id="rainblue" x1="0%" x2="0%" y1="0%" y2="100%">
   <stop offset="0%" style="stop-color:#00F260; stop-opacity:1"/>
   <stop offset="100%" style="stop-color:#0575E6; stop-opacity:1"/>
  </linearGradient>
  <linearGradient id="sunrise" x1="0%" x2="0%" y1="0%" y2="100%">
   <stop offset="0%" style="stop-color: #FF8501; stop-opacity:1"/>
   <stop offset="100%" style="stop-color: #FFCB01; stop-opacity:1"/>
  </linearGradient>
  <linearGradient id="telinkrin" x1="0%" x2="0%" y1="0%" y2="100%">
   <stop offset="0%" style="stop-color: #b2ced6; stop-opacity:1"/>
   <stop offset="100%" style="stop-color: #6da5b7; stop-opacity:1"/>
  </linearGradient>
  <linearGradient id="60spsycho" x1="0%" x2="0%" y1="0%" y2="100%">
   <stop offset="0%" style="stop-color: #df5940; stop-opacity:1"/>
   <stop offset="25%" style="stop-color: #d8d15f; stop-opacity:1"/>
   <stop offset="50%" style="stop-color: #e9882a; stop-opacity:1"/>
   <stop offset="100%" style="stop-color: #279362; stop-opacity:1"/>
  </linearGradient>
  <linearGradient id="90ssummer" x1="0%" x2="0%" y1="0%" y2="100%">
   <stop offset="0%" style="stop-color: #f618c7; stop-opacity:1"/>
   <stop offset="20%" style="stop-color: #94ffab; stop-opacity:1"/>
   <stop offset="50%" style="stop-color: #fbfd54; stop-opacity:1"/>
   <stop offset="100%" style="stop-color: #0f83ae; stop-opacity:1"/>
  </linearGradient>
 </defs>
  <path
     d="m 6.854252,6.19055 h -7.489e-4 c -0.4991044,0 -0.9055517,-0.4058938 -0.9060753,-0.9046541 -7.489e-4,-0.5004208 0.4057743,-0.9068981 0.9053274,-0.9074217 0.4998597,0 0.9062247,0.4058942 0.9068232,0.9046544 0,0.5004205 -0.4057744,0.9069727 -0.9053274,0.9074963 z"
     id="bubble_1"
     class="ColorScheme-Text"
     style="font-variation-settings:normal;opacity:1;fill:url(#oomox);fill-opacity:1;stroke-width:0.0748936;stroke-linecap:butt;stroke-linejoin:miter;stroke-miterlimit:4;stroke-dasharray:none;stroke-dashoffset:0;stroke-opacity:1;enable-background:new;stop-color:#000000;stop-opacity:1" />
  <path
     d="m 9.3015676,5.5256161 c -0.4660443,0 -0.845341,-0.37893 -0.8457151,-0.8445931 -7.49e-4,-0.4668749 0.3785563,-0.8463881 0.8448926,-0.8467622 0.4666653,0 0.8460139,0.3788476 0.8464629,0.8445185 0,0.4668746 -0.3786306,0.8463881 -0.8448921,0.8469117 h -7.49e-4 z"
     id="bubble_2"
     class="ColorScheme-Text"
     style="font-variation-settings:normal;opacity:1;fill:url(#oomox);fill-opacity:1;stroke-width:0.0748936;stroke-linecap:butt;stroke-linejoin:miter;stroke-miterlimit:4;stroke-dasharray:none;stroke-dashoffset:0;stroke-opacity:1;enable-background:new;stop-color:#000000;stop-opacity:1" />
  <path
     id="bubble_3"
     style="color:#0abdc6;opacity:1;fill:url(#oomox);stroke-width:0.0748936;enable-background:new;stop-color:#000000;stop-opacity:1"
     class="ColorScheme-Text"
     d="M 8.6050702,3.1109137 A 0.75509266,0.75509266 0 0 1 7.8499774,3.8660065 0.75509266,0.75509266 0 0 1 7.0948849,3.1109137 0.75509266,0.75509266 0 0 1 7.8499774,2.3558211 0.75509266,0.75509266 0 0 1 8.6050702,3.1109137 Z" />
  <path
     id="bubble_4"
     style="color:#0abdc6;opacity:1;fill:url(#oomox);stroke-width:0.0748936;enable-background:new;stop-color:#000000;stop-opacity:1"
     class="ColorScheme-Text"
     d="M 9.7529852,1.842427 A 0.69466631,0.69466631 0 0 1 9.0583189,2.5370933 0.69466631,0.69466631 0 0 1 8.3636526,1.842427 0.69466631,0.69466631 0 0 1 9.0583189,1.1477607 0.69466631,0.69466631 0 0 1 9.7529852,1.842427 Z" />
  <path
     id="bubble_5"
     style="color:#0abdc6;opacity:1;fill:url(#oomox);stroke-width:0.0748936;enable-background:new;stop-color:#000000;stop-opacity:1"
     class="ColorScheme-Text"
     d="M 8.1539083,0.60405578 A 0.60405578,0.60405578 0 0 1 7.5498524,1.2081116 0.60405578,0.60405578 0 0 1 6.9457965,0.60405578 0.60405578,0.60405578 0 0 1 7.5498524,0 0.60405578,0.60405578 0 0 1 8.1539083,0.60405578 Z" />
  <path
     d="M 4.3297742,7.0065633 C 3.5481592,8.0200453 2.9138915,9.1591841 2.9138915,10.539913 2.9138915,13.53219 5.1845396,16 7.9999998,16 c 2.8153112,0 5.0861092,-2.467735 5.0861092,-5.460087 0,-1.3808038 -0.634934,-2.4841152 -1.460761,-3.5331999 C 11.315679,6.6817555 10.868565,6.7300738 10.543129,6.9380088 9.590755,7.4308078 9.0766842,7.6276926 7.9999998,7.6228755 6.9586939,7.6182083 6.4115633,7.4481528 5.4591895,6.928966 5.1337236,6.730069 4.6391295,6.681751 4.329475,7.0067087 Z m 0.6783974,0.8407041 c 0.9871538,0.5458217 1.8675739,0.8227527 2.9918282,0.8227527 1.1252267,0 2.0041512,-0.276931 2.9918292,-0.8227527 0.53894,0.7599241 1.047139,1.7022006 1.047139,2.6926456 0,2.453374 -1.808186,4.412947 -4.0389682,4.412947 -2.2308566,0 -4.0389684,-1.959573 -4.0389684,-4.412947 0,-0.9891735 0.5070254,-1.932123 1.0471402,-2.6926456 z"
     id="cauldron"
     class="ColorScheme-Text"
     style="display:inline;fill:url(#oomox);stroke-width:0.0748936;stroke-dasharray:none;enable-background:new" />
  <metadata
     id="metadata12">
    <rdf:RDF>
      <cc:Work
         rdf:about="">
        <dc:creator>
          <cc:Agent>
            <dc:title>dreifacherspass</dc:title>
          </cc:Agent>
        </dc:creator>
        <cc:license
           rdf:resource="http://creativecommons.org/licenses/by-sa/4.0/" />
      </cc:Work>
      <cc:License
         rdf:about="http://creativecommons.org/licenses/by-sa/4.0/">
        <cc:permits
           rdf:resource="http://creativecommons.org/ns#Reproduction" />
        <cc:permits
           rdf:resource="http://creativecommons.org/ns#Distribution" />
        <cc:requires
           rdf:resource="http://creativecommons.org/ns#Notice" />
        <cc:requires
           rdf:resource="http://creativecommons.org/ns#Attribution" />
        <cc:permits
           rdf:resource="http://creativecommons.org/ns#DerivativeWorks" />
        <cc:requires
           rdf:resource="http://creativecommons.org/ns#ShareAlike" />
      </cc:License>
    </rdf:RDF>
  </metadata>
</svg>
