<?xml version="1.0" encoding="UTF-8" standalone="no"?>
<svg
   width="16"
   height="16"
   version="1"
   id="svg5"
   xmlns:xlink="http://www.w3.org/1999/xlink"
   xmlns="http://www.w3.org/2000/svg"
   xmlns:svg="http://www.w3.org/2000/svg"
   xmlns:rdf="http://www.w3.org/1999/02/22-rdf-syntax-ns#"
   xmlns:cc="http://creativecommons.org/ns#"
   xmlns:dc="http://purl.org/dc/elements/1.1/">
  <defs>
   <style id="current-color-scheme" type="text/css">
   .ColorScheme-Text { color: #0abdc6; } .ColorScheme-Highlight { color:#5294e2; }
  </style>
  <linearGradient id="arrongin" x1="0%" x2="0%" y1="0%" y2="100%">
   <stop offset="0%" style="stop-color:#dd9b44; stop-opacity:1"/>
   <stop offset="100%" style="stop-color:#ad6c16; stop-opacity:1"/>
  </linearGradient>
  <linearGradient id="aurora" x1="0%" x2="0%" y1="0%" y2="100%">
   <stop offset="0%" style="stop-color:#09D4DF; stop-opacity:1"/>
   <stop offset="100%" style="stop-color:#9269F4; stop-opacity:1"/>
  </linearGradient>
  <linearGradient id="cyberneon" x1="0%" x2="0%" y1="0%" y2="100%">
    <stop offset="0" style="stop-color:#0abdc6; stop-opacity:1"/>
    <stop offset="1" style="stop-color:#ea00d9; stop-opacity:1"/>
  </linearGradient>
  <linearGradient id="fitdance" x1="0%" x2="0%" y1="0%" y2="100%">
   <stop offset="0%" style="stop-color:#1AD6AB; stop-opacity:1"/>
   <stop offset="100%" style="stop-color:#329DB6; stop-opacity:1"/>
  </linearGradient>
  <linearGradient id="oomox" x1="0%" x2="0%" y1="0%" y2="100%">
   <stop offset="0%" style="stop-color:#0abdc6; stop-opacity:1"/>
   <stop offset="100%" style="stop-color:#b800ff; stop-opacity:1"/>
  </linearGradient>
  <linearGradient id="rainblue" x1="0%" x2="0%" y1="0%" y2="100%">
   <stop offset="0%" style="stop-color:#00F260; stop-opacity:1"/>
   <stop offset="100%" style="stop-color:#0575E6; stop-opacity:1"/>
  </linearGradient>
  <linearGradient id="sunrise" x1="0%" x2="0%" y1="0%" y2="100%">
   <stop offset="0%" style="stop-color: #FF8501; stop-opacity:1"/>
   <stop offset="100%" style="stop-color: #FFCB01; stop-opacity:1"/>
  </linearGradient>
  <linearGradient id="telinkrin" x1="0%" x2="0%" y1="0%" y2="100%">
   <stop offset="0%" style="stop-color: #b2ced6; stop-opacity:1"/>
   <stop offset="100%" style="stop-color: #6da5b7; stop-opacity:1"/>
  </linearGradient>
  <linearGradient id="60spsycho" x1="0%" x2="0%" y1="0%" y2="100%">
   <stop offset="0%" style="stop-color: #df5940; stop-opacity:1"/>
   <stop offset="25%" style="stop-color: #d8d15f; stop-opacity:1"/>
   <stop offset="50%" style="stop-color: #e9882a; stop-opacity:1"/>
   <stop offset="100%" style="stop-color: #279362; stop-opacity:1"/>
  </linearGradient>
  <linearGradient id="90ssummer" x1="0%" x2="0%" y1="0%" y2="100%">
   <stop offset="0%" style="stop-color: #f618c7; stop-opacity:1"/>
   <stop offset="20%" style="stop-color: #94ffab; stop-opacity:1"/>
   <stop offset="50%" style="stop-color: #fbfd54; stop-opacity:1"/>
   <stop offset="100%" style="stop-color: #0f83ae; stop-opacity:1"/>
  </linearGradient>
 </defs>
  <path
     style="fill:url(#oomox);fill-rule:evenodd;stroke-width:0.5"
     d="m 5.2515602,15.40514 c -0.4925425,-0.180087 -0.952629,-0.409174 -1.385994,-0.670715 2.1534425,0.165452 4.963604,-0.330902 6.8586828,-2.104413 0,0 3.612614,-2.8864876 0.999085,-7.6234856 0,0 0.421271,1.909053 -0.115816,3.479568 0,0 -0.512271,2.0854506 -2.7891633,2.7058936 C 5.4647412,12.105788 1.6434012,9.8084319 0.04613732,8.6712724 -0.07413283,7.5022959 0.03277382,6.2945009 0.46104721,5.1159789 1.0961317,3.3698314 2.1900087,2.0074034 3.6485477,1.0923304 c -0.364637,2.551132 -0.076367,4.899904 0.3379055,5.883703 0.556178,1.319156 1.6227415,2.807709 3.508275,3.004978 1.8855335,0.1979056 2.9253398,-1.516553 2.9253398,-1.516553 0.967267,-1.469971 1.118722,-3.580748 1.104085,-3.6316555 -0.01465,-0.051545 -0.257726,-0.1909055 -0.257726,-0.1909055 -0.650995,2.6344935 -1.7245313,3.414786 -1.7245313,3.414786 -1.692718,1.6341505 -2.89162,0.5008085 -2.89162,0.5008085 -1.2886285,-1.3840635 -0.2862755,-3.533784 -0.2862755,-3.533784 0.5046315,-1.5323335 1.875267,-3.774835 3.541891,-4.9151765 0.2774538,0.068726 0.5568148,0.111362 0.8310848,0.211269 1.00863,0.367811 1.891899,0.922073 2.638981,1.6029685 -1.218626,0.4448095 -3.186246,1.385336 -3.186246,1.385336 -3.1188018,1.313429 -3.3294348,3.300118 -3.3294348,3.300118 -0.322636,2.047777 1.3019915,1.081286 1.3019915,1.081286 1.6723525,-0.8145285 2.4938913,-3.253153 2.4938913,-3.253153 -0.521813,-0.099271 -0.9329003,0.059181 -0.9329003,0.059181 -0.667544,1.6475135 -2.02935,2.325227 -2.02935,2.325227 -0.535817,0.2838125 -0.6605415,-0.217632 -0.6605415,-0.217632 -0.090363,-0.3754475 0.3875415,-0.439718 0.3875415,-0.439718 0.741996,-0.2882675 1.21672,-1.0677975 1.324264,-1.38661 0.106907,-0.319448 0.3060875,-0.3442655 0.3060875,-0.3442655 1.0169018,-0.3245395 1.9440778,-0.496984 1.9440778,-0.496984 1.262539,-0.155269 3.19516,0.446719 3.19516,0.446719 0.433361,0.17436 0.848903,0.3048115 1.217994,0.4091735 0.708267,1.7696925 0.820265,3.884916 0.11836,5.8168776 -1.513262,4.164919 -6.1141398,6.313239 -10.2752918,4.796816 z"
     id="path5"
     class="ColorScheme-Text"/>
  <metadata
     id="metadata5">
    <rdf:RDF>
      <cc:Work
         rdf:about="">
        <dc:creator>
          <cc:Agent>
            <dc:title>dreifacherspass</dc:title>
          </cc:Agent>
        </dc:creator>
        <cc:license
           rdf:resource="http://creativecommons.org/licenses/by-sa/4.0/" />
      </cc:Work>
      <cc:License
         rdf:about="http://creativecommons.org/licenses/by-sa/4.0/">
        <cc:permits
           rdf:resource="http://creativecommons.org/ns#Reproduction" />
        <cc:permits
           rdf:resource="http://creativecommons.org/ns#Distribution" />
        <cc:requires
           rdf:resource="http://creativecommons.org/ns#Notice" />
        <cc:requires
           rdf:resource="http://creativecommons.org/ns#Attribution" />
        <cc:permits
           rdf:resource="http://creativecommons.org/ns#DerivativeWorks" />
        <cc:requires
           rdf:resource="http://creativecommons.org/ns#ShareAlike" />
      </cc:License>
    </rdf:RDF>
  </metadata>
</svg>
