<?xml version="1.0" encoding="UTF-8" standalone="no"?>
<!-- Created with Inkscape (http://www.inkscape.org/) -->

<svg
   width="16"
   height="16"
   viewBox="0 0 4.2333333 4.2333335"
   version="1.1"
   id="svg5"
   xmlns:xlink="http://www.w3.org/1999/xlink"
   xmlns="http://www.w3.org/2000/svg"
   xmlns:svg="http://www.w3.org/2000/svg"
   xmlns:rdf="http://www.w3.org/1999/02/22-rdf-syntax-ns#"
   xmlns:cc="http://creativecommons.org/ns#"
   xmlns:dc="http://purl.org/dc/elements/1.1/">
   <defs>
   <style id="current-color-scheme" type="text/css">
   .ColorScheme-Text { color: #0abdc6; } .ColorScheme-Highlight { color:#5294e2; }
  </style>
  <linearGradient id="arrongin" x1="0%" x2="0%" y1="0%" y2="100%">
   <stop offset="0%" style="stop-color:#dd9b44; stop-opacity:1"/>
   <stop offset="100%" style="stop-color:#ad6c16; stop-opacity:1"/>
  </linearGradient>
  <linearGradient id="aurora" x1="0%" x2="0%" y1="0%" y2="100%">
   <stop offset="0%" style="stop-color:#09D4DF; stop-opacity:1"/>
   <stop offset="100%" style="stop-color:#9269F4; stop-opacity:1"/>
  </linearGradient>
  <linearGradient id="cyberneon" x1="0%" x2="0%" y1="0%" y2="100%">
    <stop offset="0" style="stop-color:#0abdc6; stop-opacity:1"/>
    <stop offset="1" style="stop-color:#ea00d9; stop-opacity:1"/>
  </linearGradient>
  <linearGradient id="fitdance" x1="0%" x2="0%" y1="0%" y2="100%">
   <stop offset="0%" style="stop-color:#1AD6AB; stop-opacity:1"/>
   <stop offset="100%" style="stop-color:#329DB6; stop-opacity:1"/>
  </linearGradient>
  <linearGradient id="oomox" x1="0%" x2="0%" y1="0%" y2="100%">
   <stop offset="0%" style="stop-color:#0abdc6; stop-opacity:1"/>
   <stop offset="100%" style="stop-color:#b800ff; stop-opacity:1"/>
  </linearGradient>
  <linearGradient id="rainblue" x1="0%" x2="0%" y1="0%" y2="100%">
   <stop offset="0%" style="stop-color:#00F260; stop-opacity:1"/>
   <stop offset="100%" style="stop-color:#0575E6; stop-opacity:1"/>
  </linearGradient>
  <linearGradient id="sunrise" x1="0%" x2="0%" y1="0%" y2="100%">
   <stop offset="0%" style="stop-color: #FF8501; stop-opacity:1"/>
   <stop offset="100%" style="stop-color: #FFCB01; stop-opacity:1"/>
  </linearGradient>
  <linearGradient id="telinkrin" x1="0%" x2="0%" y1="0%" y2="100%">
   <stop offset="0%" style="stop-color: #b2ced6; stop-opacity:1"/>
   <stop offset="100%" style="stop-color: #6da5b7; stop-opacity:1"/>
  </linearGradient>
  <linearGradient id="60spsycho" x1="0%" x2="0%" y1="0%" y2="100%">
   <stop offset="0%" style="stop-color: #df5940; stop-opacity:1"/>
   <stop offset="25%" style="stop-color: #d8d15f; stop-opacity:1"/>
   <stop offset="50%" style="stop-color: #e9882a; stop-opacity:1"/>
   <stop offset="100%" style="stop-color: #279362; stop-opacity:1"/>
  </linearGradient>
  <linearGradient id="90ssummer" x1="0%" x2="0%" y1="0%" y2="100%">
   <stop offset="0%" style="stop-color: #f618c7; stop-opacity:1"/>
   <stop offset="20%" style="stop-color: #94ffab; stop-opacity:1"/>
   <stop offset="50%" style="stop-color: #fbfd54; stop-opacity:1"/>
   <stop offset="100%" style="stop-color: #0f83ae; stop-opacity:1"/>
  </linearGradient>
 </defs>
  <path
     style="fill:url(#oomox);stroke:none;stroke-dasharray:none"
     d="m 0.40120657,3.1771884 q 0.1541736,0 0.2245572,0.067032 0.0715008,0.065915 0.0715008,0.1821036 0,0.069266 -0.0290472,0.1307124 -0.0290472,0.060329 -0.0971964,0.097196 -0.067032,0.036868 -0.1832208,0.036868 h -0.072618 V 3.9748693 H 0.14648496 V 3.1771884 Z m -0.008938,0.1385328 h -0.0770868 v 0.2368464 h 0.05586 q 0.0715008,0 0.1128372,-0.02793 0.0424536,-0.029047 0.0424536,-0.092728 0,-0.1161888 -0.134064,-0.1161888 z M 1.3943977,3.364878 V 3.9748693 H 1.2670369 l -0.022344,-0.078204 h -0.00894 q -0.029047,0.046922 -0.080438,0.068149 -0.050274,0.021227 -0.1072512,0.021227 -0.0983136,0 -0.15752521,-0.052508 -0.0592116,-0.053626 -0.0592116,-0.1709317 V 3.364878 h 0.16646281 v 0.3563868 q 0,0.064798 0.0234612,0.098314 0.023461,0.033516 0.074852,0.033516 0.07597,0 0.1038996,-0.051391 0.02793,-0.052508 0.02793,-0.1497048 V 3.364878 Z M 1.9094265,3.353706 q 0.012289,0 0.029047,0.00112 0.016758,0.00112 0.026813,0.00335 l -0.012289,0.156408 q -0.00782,-0.00223 -0.023461,-0.00335 -0.014524,-0.00223 -0.025696,-0.00223 -0.042454,0 -0.081556,0.015641 -0.039102,0.014524 -0.06368,0.04804 -0.023461,0.033516 -0.023461,0.09161 V 3.9748693 H 1.5686805 V 3.364878 h 0.1262436 l 0.024578,0.1027824 h 0.00782 Q 1.7541357,3.420738 1.8010581,3.387222 1.8479805,3.353706 1.9094265,3.353706 Z m 0.3954887,0 q 0.1262436,0 0.1999788,0.072618 0.073735,0.071501 0.073735,0.2044476 V 3.71121 H 2.1853748 q 0.00223,0.070384 0.041336,0.1106028 0.040219,0.040219 0.1106028,0.040219 0.059212,0 0.1072512,-0.011172 0.04804,-0.012289 0.099431,-0.036868 v 0.1284781 q -0.044688,0.022344 -0.094962,0.032399 -0.049157,0.011172 -0.1195404,0.011172 -0.09161,0 -0.161994,-0.033516 -0.070384,-0.034633 -0.1106028,-0.1038997 -0.040219,-0.069266 -0.040219,-0.1742832 0,-0.1072512 0.03575,-0.1776348 0.036868,-0.071501 0.1016652,-0.1072512 0.064798,-0.03575 0.150822,-0.03575 z m 0.00112,0.1184232 q -0.04804,0 -0.080438,0.031282 -0.031282,0.031282 -0.036868,0.097196 h 0.2334948 q -0.00112,-0.05586 -0.029047,-0.09161 -0.02793,-0.036868 -0.087142,-0.036868 z M 3.451162,3.5749116 q 0,0.1240092 -0.041336,0.2167368 -0.040219,0.09161 -0.1240092,0.1430017 -0.08379,0.051391 -0.2145024,0.051391 -0.1295952,0 -0.2145024,-0.051391 -0.08379,-0.051391 -0.1251264,-0.1441189 -0.040219,-0.092728 -0.040219,-0.2167368 0,-0.1240092 0.040219,-0.2156196 0.041336,-0.09161 0.1251264,-0.1418844 0.084907,-0.051391 0.2156196,-0.051391 0.1295952,0 0.2133852,0.051391 0.08379,0.050274 0.1240092,0.1430016 0.041336,0.09161 0.041336,0.2156196 z m -0.5820612,0 q 0,0.1251264 0.04804,0.1977444 0.04804,0.071501 0.1541736,0.071501 0.1083684,0 0.1552908,-0.071501 0.046922,-0.072618 0.046922,-0.1977444 0,-0.1262436 -0.046922,-0.1977444 -0.046922,-0.071501 -0.1541736,-0.071501 -0.1072512,0 -0.1552908,0.071501 -0.04804,0.071501 -0.04804,0.1977444 z m 1.2177476,0.178752 q 0,0.106134 -0.077087,0.1698145 -0.07597,0.062563 -0.2167368,0.062563 -0.1262436,0 -0.2256744,-0.04804 V 3.7804764 q 0.056977,0.024578 0.117306,0.045805 0.061446,0.02011 0.1217748,0.02011 0.062563,0 0.088259,-0.023461 0.026813,-0.024578 0.026813,-0.061446 0,-0.030164 -0.021227,-0.051391 Q 3.8801664,3.688866 3.8455332,3.6709908 3.8109,3.6519984 3.766212,3.6307716 3.738282,3.6173652 3.7058832,3.59949 3.6734844,3.5804976 3.64332,3.5536848 3.6142728,3.5257548 3.5952804,3.4866528 3.576288,3.4475508 3.576288,3.392808 q 0,-0.1072512 0.072618,-0.1664628 0.072618,-0.060329 0.1977444,-0.060329 0.062563,0 0.1184232,0.014524 0.056977,0.014524 0.1184232,0.041336 L 4.028754,3.353706 q -0.054743,-0.022344 -0.098314,-0.034633 -0.043571,-0.012289 -0.089376,-0.012289 -0.04804,0 -0.073735,0.022344 -0.025696,0.022344 -0.025696,0.058094 0,0.042454 0.037985,0.067032 0.037985,0.024578 0.1128372,0.060329 0.061446,0.029047 0.1038996,0.060329 0.043571,0.031282 0.067032,0.073735 0.023461,0.042454 0.023461,0.1050168 z"
     id="text5423"
     class="ColorScheme-Text"/>
  <rect
     style="fill:none;stroke:url(#oomox);stroke-width:0.34774;stroke-miterlimit:4;stroke-dasharray:none;stroke-opacity:1"
     id="rect312"
     class="ColorScheme-Text"
     width="3.6236634"
     height="2.1875272"
     x="0.30483496"
     y="0.42116213" />
  <metadata
     id="metadata1">
    <rdf:RDF>
      <cc:Work
         rdf:about="">
        <dc:creator>
          <cc:Agent>
            <dc:title>dreifacherspass</dc:title>
          </cc:Agent>
        </dc:creator>
        <cc:license
           rdf:resource="http://creativecommons.org/licenses/by-sa/4.0/" />
      </cc:Work>
      <cc:License
         rdf:about="http://creativecommons.org/licenses/by-sa/4.0/">
        <cc:permits
           rdf:resource="http://creativecommons.org/ns#Reproduction" />
        <cc:permits
           rdf:resource="http://creativecommons.org/ns#Distribution" />
        <cc:requires
           rdf:resource="http://creativecommons.org/ns#Notice" />
        <cc:requires
           rdf:resource="http://creativecommons.org/ns#Attribution" />
        <cc:permits
           rdf:resource="http://creativecommons.org/ns#DerivativeWorks" />
        <cc:requires
           rdf:resource="http://creativecommons.org/ns#ShareAlike" />
      </cc:License>
    </rdf:RDF>
  </metadata>
</svg>
