<?xml version="1.0" encoding="UTF-8" standalone="no"?>
<!-- Created with Inkscape (http://www.inkscape.org/) -->

<svg
   width="16"
   height="16"
   viewBox="0 0 16 16"
   version="1.1"
   id="svg1"
   xmlns:xlink="http://www.w3.org/1999/xlink"
   xmlns="http://www.w3.org/2000/svg"
   xmlns:svg="http://www.w3.org/2000/svg"
   xmlns:rdf="http://www.w3.org/1999/02/22-rdf-syntax-ns#"
   xmlns:cc="http://creativecommons.org/ns#"
   xmlns:dc="http://purl.org/dc/elements/1.1/">
  <defs>
   <style id="current-color-scheme" type="text/css">
   .ColorScheme-Text { color: #0abdc6; } .ColorScheme-Highlight { color:#5294e2; }
  </style>
  <linearGradient id="arrongin" x1="0%" x2="0%" y1="0%" y2="100%">
   <stop offset="0%" style="stop-color:#dd9b44; stop-opacity:1"/>
   <stop offset="100%" style="stop-color:#ad6c16; stop-opacity:1"/>
  </linearGradient>
  <linearGradient id="aurora" x1="0%" x2="0%" y1="0%" y2="100%">
   <stop offset="0%" style="stop-color:#09D4DF; stop-opacity:1"/>
   <stop offset="100%" style="stop-color:#9269F4; stop-opacity:1"/>
  </linearGradient>
  <linearGradient id="cyberneon" x1="0%" x2="0%" y1="0%" y2="100%">
    <stop offset="0" style="stop-color:#0abdc6; stop-opacity:1"/>
    <stop offset="1" style="stop-color:#ea00d9; stop-opacity:1"/>
  </linearGradient>
  <linearGradient id="fitdance" x1="0%" x2="0%" y1="0%" y2="100%">
   <stop offset="0%" style="stop-color:#1AD6AB; stop-opacity:1"/>
   <stop offset="100%" style="stop-color:#329DB6; stop-opacity:1"/>
  </linearGradient>
  <linearGradient id="oomox" x1="0%" x2="0%" y1="0%" y2="100%">
   <stop offset="0%" style="stop-color:#0abdc6; stop-opacity:1"/>
   <stop offset="100%" style="stop-color:#b800ff; stop-opacity:1"/>
  </linearGradient>
  <linearGradient id="rainblue" x1="0%" x2="0%" y1="0%" y2="100%">
   <stop offset="0%" style="stop-color:#00F260; stop-opacity:1"/>
   <stop offset="100%" style="stop-color:#0575E6; stop-opacity:1"/>
  </linearGradient>
  <linearGradient id="sunrise" x1="0%" x2="0%" y1="0%" y2="100%">
   <stop offset="0%" style="stop-color: #FF8501; stop-opacity:1"/>
   <stop offset="100%" style="stop-color: #FFCB01; stop-opacity:1"/>
  </linearGradient>
  <linearGradient id="telinkrin" x1="0%" x2="0%" y1="0%" y2="100%">
   <stop offset="0%" style="stop-color: #b2ced6; stop-opacity:1"/>
   <stop offset="100%" style="stop-color: #6da5b7; stop-opacity:1"/>
  </linearGradient>
  <linearGradient id="60spsycho" x1="0%" x2="0%" y1="0%" y2="100%">
   <stop offset="0%" style="stop-color: #df5940; stop-opacity:1"/>
   <stop offset="25%" style="stop-color: #d8d15f; stop-opacity:1"/>
   <stop offset="50%" style="stop-color: #e9882a; stop-opacity:1"/>
   <stop offset="100%" style="stop-color: #279362; stop-opacity:1"/>
  </linearGradient>
  <linearGradient id="90ssummer" x1="0%" x2="0%" y1="0%" y2="100%">
   <stop offset="0%" style="stop-color: #f618c7; stop-opacity:1"/>
   <stop offset="20%" style="stop-color: #94ffab; stop-opacity:1"/>
   <stop offset="50%" style="stop-color: #fbfd54; stop-opacity:1"/>
   <stop offset="100%" style="stop-color: #0f83ae; stop-opacity:1"/>
  </linearGradient>
 </defs>
  <path
     d="m 16,3.118509 c 0,-0.014155 -0.07702,0.034613 -0.169193,0.1085385 -0.234274,0.1878872 -0.475642,0.2633108 -1.165203,0.3639271 -0.642341,0.093726 -0.95186,0.2002722 -1.034317,0.3543495 -0.02843,0.05311 -0.129399,0.1640197 -0.223465,0.2490024 -0.09407,0.084982 -0.182401,0.206306 -0.197926,0.2681564 -0.03882,0.154677 0.09603,0.4365365 0.351158,0.7310456 0.285203,0.3292375 0.427773,0.6219841 0.427774,0.8810854 0,0.184925 -0.02059,0.2291146 -0.172386,0.3735035 -0.260305,0.2476217 -0.586698,0.3362998 -1.21309,0.332004 C 11.690123,6.773858 10.834811,6.5362372 9.1460497,5.816035 7.7621339,5.2258402 7.1585561,5.0783116 6.5474858,5.1903368 6.219533,5.2504595 5.7200883,5.492729 5.462091,5.7138802 5.053145,6.0644234 4.2938619,7.1760835 3.8148443,8.130481 L 3.498803,8.7657565 3.2529928,8.5103688 C 2.8515331,8.0931142 2.726257,7.9272671 2.726257,7.8112466 c 0,-0.071969 -0.025918,-0.1117328 -0.073423,-0.1117328 -0.060402,0 -0.069028,0.036651 -0.051078,0.2234644 C 2.625345,8.1684688 2.8008858,8.4641183 3.1668,8.8711019 L 3.3647247,9.0913732 3.2019153,9.611724 C 3.1123392,9.8988756 3.0144271,10.273 2.9848364,10.441734 2.9330071,10.73728 2.9206975,10.762854 2.5953712,11.102548 2.2061883,11.508919 2.1529067,11.523067 1.688747,11.348357 1.3017913,11.202709 0.66903666,11.05147 0.44692728,11.05147 0.24002796,11.05147 0,11.155658 0,11.246203 c 0,0.04323 0.06916977,0.05995 0.25538707,0.05746 0.20955424,-0.0027 0.38643123,0.04571 0.95131673,0.258579 0.8953611,0.337396 0.9768502,0.358164 1.1843577,0.319235 0.1298703,-0.02437 0.2468752,-0.104528 0.4692737,-0.319235 l 0.2968875,-0.287309 0.086193,0.09258 c 0.1129424,0.125057 0.5187869,0.32854 0.8491619,0.424579 l 0.2649641,0.07661 -0.2043097,0.05107 c -0.2785469,0.07073 -0.4556224,0.209549 -0.5554669,0.430966 -0.082437,0.182813 -0.082992,0.188318 0,0.249003 0.1102828,0.08064 0.8931902,0.08264 1.0502794,0.0033 0.092228,-0.04667 0.2696995,-0.294694 0.3256185,-0.453312 0.00786,-0.02233 0.1106188,-0.0028 0.2266561,0.0415 0.2579723,0.09853 0.7498859,0.07167 1.0981645,-0.06066 0.1243053,-0.04724 0.2266558,-0.07007 0.2266558,-0.05107 0,0.01897 -0.090503,0.122428 -0.2011172,0.233042 -0.1331935,0.133193 -0.2011173,0.240572 -0.2011173,0.31604 0,0.252277 0.00779,0.255388 0.6320828,0.255388 0.4220136,0 0.5828671,-0.0134 0.5969674,-0.05427 v -0.0033 c 0.010605,-0.03073 0.024877,-0.408226 0.031925,-0.842777 0.011651,-0.718756 0.020719,-0.801481 0.1053466,-0.916202 0.2588888,-0.350943 1.493943,-0.847084 2.2889082,-0.919393 l 0.2330403,-0.02235 v 0.137268 c 0,0.07575 -0.094003,0.40417 -0.2106937,0.727854 l -0.2138877,0.587392 -0.2362329,0.05426 c -0.2662237,0.05957 -0.5046403,0.23944 -0.5905824,0.446926 -0.1028283,0.248246 -0.059469,0.268158 0.5363125,0.268158 0.629326,0 0.5818896,0.02714 0.9162032,-0.561852 0.182938,-0.322305 0.339981,-0.508295 0.865123,-1.03112 l 0.641661,-0.638469 0.194731,0.05107 c 0.396283,0.105993 1.940284,1.387945 2.14206,1.778132 0.07202,0.139258 0.05572,0.227538 -0.07342,0.395851 -0.104292,0.135939 -0.108882,0.303007 -0.0064,0.328811 0.176564,0.04442 0.950748,0.03682 1.03751,-0.0097 0.05059,-0.02707 0.09267,-0.09239 0.09258,-0.146841 -8.8e-5,-0.05445 -0.1616,-0.380528 -0.357541,-0.724662 C 14.323769,11.04268 14.265465,10.904215 13.781294,9.4776001 13.465098,8.5459246 13.407792,8.3275479 13.407792,8.0857408 c 0,-0.503049 0.2119,-0.8981741 0.699121,-1.299282 0.140157,-0.1153888 0.25986,-0.2426236 0.264963,-0.284118 0.0051,-0.041495 0.0304,-0.1708943 0.05426,-0.2873104 0.04684,-0.2286218 0.01536,-0.4828417 -0.07981,-0.6608141 -0.0328,-0.061406 -0.166732,-0.2415297 -0.300047,-0.3989952 -0.302532,-0.3573453 -0.354609,-0.4774174 -0.252194,-0.5905827 0.04315,-0.047678 0.135988,-0.083 0.217078,-0.083 0.237007,0 0.595726,-0.1293853 0.999203,-0.3607343 0.211219,-0.1211121 0.413547,-0.2202714 0.453311,-0.2202714 0.104018,0 0.236666,-0.1602605 0.395851,-0.4788507 0.07642,-0.1529298 0.140467,-0.289122 0.140467,-0.3032722 z"
     style="fill:url(#oomox);stroke-width:1.30758"
     id="path5"
     class="ColorScheme-Text"/>
  <metadata
     id="metadata2">
    <rdf:RDF>
      <cc:Work
         rdf:about="">
        <dc:creator>
          <cc:Agent>
            <dc:title>dreifacherspass</dc:title>
          </cc:Agent>
        </dc:creator>
        <cc:license
           rdf:resource="http://creativecommons.org/licenses/by-sa/4.0/" />
      </cc:Work>
      <cc:License
         rdf:about="http://creativecommons.org/licenses/by-sa/4.0/">
        <cc:permits
           rdf:resource="http://creativecommons.org/ns#Reproduction" />
        <cc:permits
           rdf:resource="http://creativecommons.org/ns#Distribution" />
        <cc:requires
           rdf:resource="http://creativecommons.org/ns#Notice" />
        <cc:requires
           rdf:resource="http://creativecommons.org/ns#Attribution" />
        <cc:permits
           rdf:resource="http://creativecommons.org/ns#DerivativeWorks" />
        <cc:requires
           rdf:resource="http://creativecommons.org/ns#ShareAlike" />
      </cc:License>
    </rdf:RDF>
  </metadata>
</svg>
