<?xml version="1.0" encoding="UTF-8" standalone="no"?>
<!-- Generator: Adobe Illustrator 13.0.2, SVG Export Plug-In  -->

<svg
   version="1.1"
   x="0px"
   y="0px"
   width="16"
   height="16"
   viewBox="-13.589 -12.875 16 16"
   enable-background="new -13.589 -12.875 475 475"
   xml:space="preserve"
   id="svg3"
   xmlns:xlink="http://www.w3.org/1999/xlink"
   xmlns="http://www.w3.org/2000/svg"
   xmlns:svg="http://www.w3.org/2000/svg"
   xmlns:rdf="http://www.w3.org/1999/02/22-rdf-syntax-ns#"
   xmlns:cc="http://creativecommons.org/ns#"
   xmlns:dc="http://purl.org/dc/elements/1.1/">
  <defs>
   <style id="current-color-scheme" type="text/css">
   .ColorScheme-Text { color: #0abdc6; } .ColorScheme-Highlight { color:#5294e2; }
  </style>
  <linearGradient id="arrongin" x1="0%" x2="0%" y1="0%" y2="100%">
   <stop offset="0%" style="stop-color:#dd9b44; stop-opacity:1"/>
   <stop offset="100%" style="stop-color:#ad6c16; stop-opacity:1"/>
  </linearGradient>
  <linearGradient id="aurora" x1="0%" x2="0%" y1="0%" y2="100%">
   <stop offset="0%" style="stop-color:#09D4DF; stop-opacity:1"/>
   <stop offset="100%" style="stop-color:#9269F4; stop-opacity:1"/>
  </linearGradient>
  <linearGradient id="cyberneon" x1="0%" x2="0%" y1="0%" y2="100%">
    <stop offset="0" style="stop-color:#0abdc6; stop-opacity:1"/>
    <stop offset="1" style="stop-color:#ea00d9; stop-opacity:1"/>
  </linearGradient>
  <linearGradient id="fitdance" x1="0%" x2="0%" y1="0%" y2="100%">
   <stop offset="0%" style="stop-color:#1AD6AB; stop-opacity:1"/>
   <stop offset="100%" style="stop-color:#329DB6; stop-opacity:1"/>
  </linearGradient>
  <linearGradient id="oomox" x1="0%" x2="0%" y1="0%" y2="100%">
   <stop offset="0%" style="stop-color:#0abdc6; stop-opacity:1"/>
   <stop offset="100%" style="stop-color:#b800ff; stop-opacity:1"/>
  </linearGradient>
  <linearGradient id="rainblue" x1="0%" x2="0%" y1="0%" y2="100%">
   <stop offset="0%" style="stop-color:#00F260; stop-opacity:1"/>
   <stop offset="100%" style="stop-color:#0575E6; stop-opacity:1"/>
  </linearGradient>
  <linearGradient id="sunrise" x1="0%" x2="0%" y1="0%" y2="100%">
   <stop offset="0%" style="stop-color: #FF8501; stop-opacity:1"/>
   <stop offset="100%" style="stop-color: #FFCB01; stop-opacity:1"/>
  </linearGradient>
  <linearGradient id="telinkrin" x1="0%" x2="0%" y1="0%" y2="100%">
   <stop offset="0%" style="stop-color: #b2ced6; stop-opacity:1"/>
   <stop offset="100%" style="stop-color: #6da5b7; stop-opacity:1"/>
  </linearGradient>
  <linearGradient id="60spsycho" x1="0%" x2="0%" y1="0%" y2="100%">
   <stop offset="0%" style="stop-color: #df5940; stop-opacity:1"/>
   <stop offset="25%" style="stop-color: #d8d15f; stop-opacity:1"/>
   <stop offset="50%" style="stop-color: #e9882a; stop-opacity:1"/>
   <stop offset="100%" style="stop-color: #279362; stop-opacity:1"/>
  </linearGradient>
  <linearGradient id="90ssummer" x1="0%" x2="0%" y1="0%" y2="100%">
   <stop offset="0%" style="stop-color: #f618c7; stop-opacity:1"/>
   <stop offset="20%" style="stop-color: #94ffab; stop-opacity:1"/>
   <stop offset="50%" style="stop-color: #fbfd54; stop-opacity:1"/>
   <stop offset="100%" style="stop-color: #0f83ae; stop-opacity:1"/>
  </linearGradient>
 </defs>
 <path
   d="m 340.694,344.777 c -2.481,-1.344 -5.427,-2.879 -5.929,-3.717 -0.724,-1.205 -1.69,-34.248 0.483,-38.106 2.17,-3.861 8.922,-13.512 10.852,-19.539 1.932,-6.031 0.24,-22.91 -0.722,-27.253 -0.966,-4.342 5.091,-7.482 7.938,-8.051 1.735,-0.348 5.552,-1.735 6.293,-4.492 1.001,-3.734 4.581,-6.031 4.34,-11.577 -0.123,-2.865 -3.077,-4.94 -5.239,-8.244 -2.023,-3.093 -3.231,-7.471 -4.165,-8.639 -1.929,-2.41 -9.384,-7.059 -9.714,-9.247 -0.333,-2.188 -5.738,-15.167 -9.79,-14.589 -4.301,0.615 -4.436,15.051 -4.436,15.051 0,0 -11.799,3.933 -14.575,11.682 -1.974,5.516 -3.335,10.859 -5.899,14.574 -4.799,6.962 -10.945,10.233 -12.989,12.436 -3.135,3.376 -6.27,9.165 -11.577,10.129 -5.308,0.967 -13.179,3.691 -23.546,9.238 -10.373,5.55 -17.978,18.857 -19.667,27.298 -1.686,8.439 -4.259,22.788 -1.849,31.23 2.411,8.44 2.373,9.654 2.614,12.791 0.238,3.137 -11.904,-6.91 -14.7,-11.348 -3.562,-5.653 -10.131,-14.773 -8.85,-24.173 1.619,-11.875 8.437,-17.698 10.583,-23.02 7.632,-18.908 -16.864,-33.873 -19.778,-28.451 -2.891,5.379 20.124,11.102 12.317,25.506 -3.652,6.734 -9.715,12.839 -11.622,24.46 -2.183,13.305 8.525,30.955 11.525,36.025 -56.779,-27.073 -96.017,-84.997 -96.017,-152.089 0,-53.428 24.888,-101.041 63.695,-131.891 -79.296,17.421 -138.644,88.076 -138.644,172.605 0,97.607 79.125,176.731 176.731,176.731 54.757,0 103.692,-24.903 136.11,-64 -7.635,3.463 -15.582,6.365 -23.773,8.67 z m -25.245,-18.58 c 2.063,-0.374 3.994,15.775 4.752,22.98 -3.967,0.595 -7.977,1.062 -12.029,1.376 1.263,-6.164 5.087,-23.955 7.277,-24.356 z"
   id="path3"
   class="ColorScheme-Text"
   transform="matrix(0.03555556,0,0,0.03555556,-13.589,-12.875)"
   style="fill:url(#oomox)" />
 <path
   d="m -5.589,-12.875 c -4.418276,0 -8,3.5817244 -8,8 0,4.41824 3.581724,8 8,8 4.41824,0 8,-3.58176 8,-8 0,-4.4182756 -3.58176,-8 -8,-8 z m 0,15.2339556 c -3.9952,0 -7.233991,-3.2387556 -7.233991,-7.2339556 0,-3.9952 3.238791,-7.233991 7.233991,-7.233991 3.9952,0 7.2339556,3.238791 7.2339556,7.233991 0,3.9952 -3.2387556,7.2339556 -7.2339556,7.2339556 z"
   id="path1"
   class="ColorScheme-Text"
   style="stroke-width:0.0355556;fill:url(#oomox)" />
 <metadata
   id="metadata3"><rdf:RDF><cc:Work
       rdf:about=""><dc:creator><cc:Agent><dc:title>dreifacherspass</dc:title></cc:Agent></dc:creator><cc:license
         rdf:resource="http://creativecommons.org/licenses/by-sa/4.0/" /></cc:Work><cc:License
       rdf:about="http://creativecommons.org/licenses/by-sa/4.0/"><cc:permits
         rdf:resource="http://creativecommons.org/ns#Reproduction" /><cc:permits
         rdf:resource="http://creativecommons.org/ns#Distribution" /><cc:requires
         rdf:resource="http://creativecommons.org/ns#Notice" /><cc:requires
         rdf:resource="http://creativecommons.org/ns#Attribution" /><cc:permits
         rdf:resource="http://creativecommons.org/ns#DerivativeWorks" /><cc:requires
         rdf:resource="http://creativecommons.org/ns#ShareAlike" /></cc:License></rdf:RDF></metadata></svg>
