<?xml version="1.0" encoding="UTF-8" standalone="no"?>
<svg
   width="16"
   height="16"
   version="1.1"
   id="svg12"
   xmlns:xlink="http://www.w3.org/1999/xlink"
   xmlns="http://www.w3.org/2000/svg"
   xmlns:svg="http://www.w3.org/2000/svg"
   xmlns:rdf="http://www.w3.org/1999/02/22-rdf-syntax-ns#"
   xmlns:cc="http://creativecommons.org/ns#"
   xmlns:dc="http://purl.org/dc/elements/1.1/">
  <defs>
   <style id="current-color-scheme" type="text/css">
   .ColorScheme-Text { color: #0abdc6; } .ColorScheme-Highlight { color:#5294e2; }
  </style>
  <linearGradient id="arrongin" x1="0%" x2="0%" y1="0%" y2="100%">
   <stop offset="0%" style="stop-color:#dd9b44; stop-opacity:1"/>
   <stop offset="100%" style="stop-color:#ad6c16; stop-opacity:1"/>
  </linearGradient>
  <linearGradient id="aurora" x1="0%" x2="0%" y1="0%" y2="100%">
   <stop offset="0%" style="stop-color:#09D4DF; stop-opacity:1"/>
   <stop offset="100%" style="stop-color:#9269F4; stop-opacity:1"/>
  </linearGradient>
  <linearGradient id="cyberneon" x1="0%" x2="0%" y1="0%" y2="100%">
    <stop offset="0" style="stop-color:#0abdc6; stop-opacity:1"/>
    <stop offset="1" style="stop-color:#ea00d9; stop-opacity:1"/>
  </linearGradient>
  <linearGradient id="fitdance" x1="0%" x2="0%" y1="0%" y2="100%">
   <stop offset="0%" style="stop-color:#1AD6AB; stop-opacity:1"/>
   <stop offset="100%" style="stop-color:#329DB6; stop-opacity:1"/>
  </linearGradient>
  <linearGradient id="oomox" x1="0%" x2="0%" y1="0%" y2="100%">
   <stop offset="0%" style="stop-color:#0abdc6; stop-opacity:1"/>
   <stop offset="100%" style="stop-color:#b800ff; stop-opacity:1"/>
  </linearGradient>
  <linearGradient id="rainblue" x1="0%" x2="0%" y1="0%" y2="100%">
   <stop offset="0%" style="stop-color:#00F260; stop-opacity:1"/>
   <stop offset="100%" style="stop-color:#0575E6; stop-opacity:1"/>
  </linearGradient>
  <linearGradient id="sunrise" x1="0%" x2="0%" y1="0%" y2="100%">
   <stop offset="0%" style="stop-color: #FF8501; stop-opacity:1"/>
   <stop offset="100%" style="stop-color: #FFCB01; stop-opacity:1"/>
  </linearGradient>
  <linearGradient id="telinkrin" x1="0%" x2="0%" y1="0%" y2="100%">
   <stop offset="0%" style="stop-color: #b2ced6; stop-opacity:1"/>
   <stop offset="100%" style="stop-color: #6da5b7; stop-opacity:1"/>
  </linearGradient>
  <linearGradient id="60spsycho" x1="0%" x2="0%" y1="0%" y2="100%">
   <stop offset="0%" style="stop-color: #df5940; stop-opacity:1"/>
   <stop offset="25%" style="stop-color: #d8d15f; stop-opacity:1"/>
   <stop offset="50%" style="stop-color: #e9882a; stop-opacity:1"/>
   <stop offset="100%" style="stop-color: #279362; stop-opacity:1"/>
  </linearGradient>
  <linearGradient id="90ssummer" x1="0%" x2="0%" y1="0%" y2="100%">
   <stop offset="0%" style="stop-color: #f618c7; stop-opacity:1"/>
   <stop offset="20%" style="stop-color: #94ffab; stop-opacity:1"/>
   <stop offset="50%" style="stop-color: #fbfd54; stop-opacity:1"/>
   <stop offset="100%" style="stop-color: #0f83ae; stop-opacity:1"/>
  </linearGradient>
 </defs>
  <path
     id="path4-6"
     class="ColorScheme-Text"
     style="display:inline;opacity:0.5;fill:url(#oomox);fill-opacity:1;stroke-width:0.4"
     d="M 8.0039054,0 C 3.5859517,0 0.0093752,3.578158 0.00156,7.9960936 H 0 V 14.186719 H 0.00156017 C 0.00368,15.188659 0.81683251,16 1.8195275,16 H 8.0046863 C 12.423422,15.99716 16,12.419453 16,8.0039064 16.000004,3.5859707 12.418735,0.0070312 7.9968739,0.0070312 Z M 9.799999,3.2 a 2.6000004,2.6 0 0 1 2.592188,2.4 H 12.4 v 0.3804688 a 0.80000014,0.8 0 0 1 0,0.00235 0.80000014,0.8 0 0 1 0,0.00235 0.80000014,0.8 0 0 1 0,0.00235 0.80000014,0.8 0 0 1 0,0.00235 0.80000014,0.8 0 0 1 0,0.00235 0.80000014,0.8 0 0 1 0,0.00235 0.80000014,0.8 0 0 1 0,0.00235 0.80000014,0.8 0 0 1 0,0.00235 0.80000014,0.8 0 0 0 0,7.829e-4 0.80000014,0.8 0 0 1 -0.8,0.8 0.80000014,0.8 0 0 1 -0.8,-0.8 V 5.8 a 1.0000001,1 0 0 0 -1.0000007,-1 1.0000001,1 0 0 0 -1,1 v 1.8 h 0.8 A 0.80000014,0.8 0 0 1 10.399999,8.4 0.80000014,0.8 0 0 1 9.5999993,9.2 h -0.8 v 1.4 a 3.0000004,3 0 0 0 0,7.83e-4 3.0000004,3 0 0 0 0,7.83e-4 3.0000004,3 0 0 0 0,7.83e-4 3.0000004,3 0 0 0 0,7.83e-4 3.0000004,3 0 0 0 0,7.83e-4 3.0000004,3 0 0 0 0,7.83e-4 3.0000004,3 0 0 0 0,7.83e-4 3.0000004,3 0 0 0 0,8.17e-4 3.0000004,3 0 0 0 0,7.83e-4 3.0000004,3 0 0 0 0,7.83e-4 3.0000004,3 0 0 0 0,7.83e-4 3.0000004,3 0 0 0 0,7.83e-4 3.0000004,3 0 0 0 0,7.83e-4 3.0000004,3 0 0 0 0,7.83e-4 3.0000004,3 0 0 0 0,7.83e-4 3.0000004,3 0 0 0 0,7.83e-4 3.0000004,3 0 0 0 0,7.83e-4 3.0000004,3 0 0 0 0,7.83e-4 3.0000004,3 0 0 0 0,7.83e-4 V 10.8 h -0.00625 a 3.0000004,3 0 0 1 -2.9937484,2.8 3.0000004,3 0 0 1 -3.0000004,-3 3.0000004,3 0 0 1 2.9851568,-3 3.0000004,3 0 0 1 0.014843,0 h 0.6 v 1.6 h -0.6 A 1.4000002,1.4 0 0 0 4.3999959,10.6 1.4000002,1.4 0 0 0 5.7999963,12 1.4000002,1.4 0 0 0 7.185934,10.8 h 0.014063 v -5 A 2.6000004,2.6 0 0 1 9.7999973,3.2 Z" />
  <path
     id="path4"
     class="ColorScheme-Text"
     style="font-variation-settings:normal;display:inline;opacity:1;vector-effect:none;fill:url(#oomox);fill-opacity:1;stroke-width:0.671428;stroke-linecap:butt;stroke-linejoin:miter;stroke-miterlimit:4;stroke-dasharray:none;stroke-dashoffset:0;stroke-opacity:1;-inkscape-stroke:none;stop-color:#000000;stop-opacity:1"
     d="m 8.0062468,0.73001876 c -4.4179537,0 -7.99453157,3.24813924 -8.00234533,7.66607484 H 0.00233892 V 14.186719 H 0.00390147 C 0.00602023,15.188658 0.81917651,16 1.8218705,16 h 6.1851572 c 4.3516553,-0.0028 7.8843123,-3.47325 7.9906263,-7.7960936 2.5e-5,-0.00106 -2.6e-5,-0.00208 0,-0.00313 C 15.889584,3.8770873 12.352901,0.73705001 7.9992153,0.73705001 Z M 9.8023404,3.2 c 1.3583256,5.66e-5 2.4877016,1.0456991 2.5921886,2.4 h 0.0078 v 0.3804688 7.829e-4 7.83e-4 7.83e-4 7.83e-4 7.83e-4 7.829e-4 7.83e-4 7.83e-4 7.83e-4 7.83e-4 7.829e-4 7.83e-4 7.83e-4 7.83e-4 7.829e-4 7.83e-4 7.83e-4 7.83e-4 7.83e-4 7.829e-4 7.83e-4 7.83e-4 7.83e-4 8.17e-4 7.83e-4 c 0,0.4418277 -0.358172,0.8 -0.8,0.8 -0.441827,0 -0.8,-0.3581723 -0.8,-0.8 V 5.8 c 0,-0.5522849 -0.447715,-1 -0.9999999,-1 -0.5522849,0 -1,0.4477154 -1,1 v 1.8 h 0.8 c 0.4418279,0 0.7999999,0.3581723 0.7999999,0.8 0,0.4418277 -0.358172,0.8 -0.7999999,0.8 h -0.8 v 1.4 7.83e-4 7.83e-4 7.83e-4 7.83e-4 7.83e-4 7.83e-4 7.83e-4 8.17e-4 7.83e-4 7.83e-4 7.83e-4 7.83e-4 7.83e-4 7.83e-4 7.83e-4 7.83e-4 7.83e-4 7.83e-4 7.83e-4 V 10.8 h -0.00625 c -0.1052923,1.57587 -1.4143649,2.800222 -2.9937484,2.8 -1.6568545,0 -3.0000007,-1.343146 -3.0000007,-3 -2.02e-5,-1.6510747 1.3341021,-2.9918308 2.9851568,-3 0.00495,-1.23e-5 0.0099,-1.23e-5 0.014842,0 h 0.6 v 1.6 h -0.6 c -0.773199,0 -1.4000003,0.6268014 -1.4000003,1.4 0,0.773199 0.6268013,1.4 1.4000003,1.4 0.6960521,1.48e-4 1.2865018,-0.511087 1.3859377,-1.2 h 0.014063 v -5 c 0,-1.4359404 1.1640599,-2.6 2.6000003,-2.6 z" />
  <metadata
     id="metadata1235">
    <rdf:RDF>
      <cc:Work
         rdf:about="">
        <dc:creator>
          <cc:Agent>
            <dc:title>dreifacherspass</dc:title>
          </cc:Agent>
        </dc:creator>
        <cc:license
           rdf:resource="http://creativecommons.org/licenses/by-sa/4.0/" />
      </cc:Work>
      <cc:License
         rdf:about="http://creativecommons.org/licenses/by-sa/4.0/">
        <cc:permits
           rdf:resource="http://creativecommons.org/ns#Reproduction" />
        <cc:permits
           rdf:resource="http://creativecommons.org/ns#Distribution" />
        <cc:requires
           rdf:resource="http://creativecommons.org/ns#Notice" />
        <cc:requires
           rdf:resource="http://creativecommons.org/ns#Attribution" />
        <cc:permits
           rdf:resource="http://creativecommons.org/ns#DerivativeWorks" />
        <cc:requires
           rdf:resource="http://creativecommons.org/ns#ShareAlike" />
      </cc:License>
    </rdf:RDF>
  </metadata>
</svg>
