<?xml version="1.0" encoding="UTF-8" standalone="no"?>
<svg
   width="16"
   height="16"
   version="1.1"
   id="svg6"
   xmlns:xlink="http://www.w3.org/1999/xlink"
   xmlns="http://www.w3.org/2000/svg"
   xmlns:svg="http://www.w3.org/2000/svg"
   xmlns:rdf="http://www.w3.org/1999/02/22-rdf-syntax-ns#"
   xmlns:cc="http://creativecommons.org/ns#"
   xmlns:dc="http://purl.org/dc/elements/1.1/">
  <defs>
   <style id="current-color-scheme" type="text/css">
   .ColorScheme-Text { color: #0abdc6; } .ColorScheme-Highlight { color:#5294e2; }
  </style>
  <linearGradient id="arrongin" x1="0%" x2="0%" y1="0%" y2="100%">
   <stop offset="0%" style="stop-color:#dd9b44; stop-opacity:1"/>
   <stop offset="100%" style="stop-color:#ad6c16; stop-opacity:1"/>
  </linearGradient>
  <linearGradient id="aurora" x1="0%" x2="0%" y1="0%" y2="100%">
   <stop offset="0%" style="stop-color:#09D4DF; stop-opacity:1"/>
   <stop offset="100%" style="stop-color:#9269F4; stop-opacity:1"/>
  </linearGradient>
  <linearGradient id="cyberneon" x1="0%" x2="0%" y1="0%" y2="100%">
    <stop offset="0" style="stop-color:#0abdc6; stop-opacity:1"/>
    <stop offset="1" style="stop-color:#ea00d9; stop-opacity:1"/>
  </linearGradient>
  <linearGradient id="fitdance" x1="0%" x2="0%" y1="0%" y2="100%">
   <stop offset="0%" style="stop-color:#1AD6AB; stop-opacity:1"/>
   <stop offset="100%" style="stop-color:#329DB6; stop-opacity:1"/>
  </linearGradient>
  <linearGradient id="oomox" x1="0%" x2="0%" y1="0%" y2="100%">
   <stop offset="0%" style="stop-color:#0abdc6; stop-opacity:1"/>
   <stop offset="100%" style="stop-color:#b800ff; stop-opacity:1"/>
  </linearGradient>
  <linearGradient id="rainblue" x1="0%" x2="0%" y1="0%" y2="100%">
   <stop offset="0%" style="stop-color:#00F260; stop-opacity:1"/>
   <stop offset="100%" style="stop-color:#0575E6; stop-opacity:1"/>
  </linearGradient>
  <linearGradient id="sunrise" x1="0%" x2="0%" y1="0%" y2="100%">
   <stop offset="0%" style="stop-color: #FF8501; stop-opacity:1"/>
   <stop offset="100%" style="stop-color: #FFCB01; stop-opacity:1"/>
  </linearGradient>
  <linearGradient id="telinkrin" x1="0%" x2="0%" y1="0%" y2="100%">
   <stop offset="0%" style="stop-color: #b2ced6; stop-opacity:1"/>
   <stop offset="100%" style="stop-color: #6da5b7; stop-opacity:1"/>
  </linearGradient>
  <linearGradient id="60spsycho" x1="0%" x2="0%" y1="0%" y2="100%">
   <stop offset="0%" style="stop-color: #df5940; stop-opacity:1"/>
   <stop offset="25%" style="stop-color: #d8d15f; stop-opacity:1"/>
   <stop offset="50%" style="stop-color: #e9882a; stop-opacity:1"/>
   <stop offset="100%" style="stop-color: #279362; stop-opacity:1"/>
  </linearGradient>
  <linearGradient id="90ssummer" x1="0%" x2="0%" y1="0%" y2="100%">
   <stop offset="0%" style="stop-color: #f618c7; stop-opacity:1"/>
   <stop offset="20%" style="stop-color: #94ffab; stop-opacity:1"/>
   <stop offset="50%" style="stop-color: #fbfd54; stop-opacity:1"/>
   <stop offset="100%" style="stop-color: #0f83ae; stop-opacity:1"/>
  </linearGradient>
 </defs>
  <path
     id="path2"
     class="ColorScheme-Text"
     style="fill:url(#oomox);stroke-width:0.394458"
     d="M 5.0742188 0 C 4.8566926 -1.9983407e-07 4.6493849 0.093617844 4.5019531 0.2578125 L 0.20703125 5.0410156 C 0.074525733 5.1886308 -1.8687366e-06 5.3812974 0 5.5820312 L 0 15.201172 C 4.298049e-05 15.642614 0.34928786 15.999956 0.77929688 16 L 10.925781 16 C 11.118767 16.000131 11.305981 15.925739 11.449219 15.792969 L 15.744141 11.810547 C 15.907421 11.658882 16.00013 11.442848 16 11.216797 L 16 0.79882812 C 15.999957 0.3573855 15.650713 4.4123328e-05 15.220703 0 L 5.0742188 0 z M 5.5976562 0.76171875 L 14.412109 0.76171875 C 14.89883 0.76176831 15.292927 1.1663492 15.292969 1.6660156 L 15.292969 10.714844 C 15.292807 10.973219 15.184255 11.219038 14.996094 11.390625 L 11.03125 15.009766 C 10.869577 15.157377 10.659755 15.238557 10.443359 15.238281 L 1.5878906 15.224609 C 1.0998159 15.223589 0.70421525 14.815491 0.70703125 14.314453 L 0.75 6.1855469 C 0.75131424 5.9638535 0.83206674 5.7506973 0.9765625 5.5859375 L 4.9433594 1.0605469 C 5.1104738 0.86993152 5.3478501 0.76176757 5.5976562 0.76171875 z " />
  <path
     d="M 5.8526755,1.5986729 C 5.6319786,1.5987164 5.4216647,1.6948951 5.2740233,1.863297 L 1.7701739,5.8599791 C 1.6425152,6.0055399 1.5713532,6.1941473 1.5701928,6.3900079 l -0.038019,7.1815391 c -0.00248,0.442661 0.3459099,0.803118 0.7771124,0.804019 l 7.8243508,0.01249 c 0.191175,2.41e-4 0.375756,-0.07172 0.518582,-0.202177 l 3.50385,-3.197345 c 0.166238,-0.151588 0.261426,-0.3689 0.261572,-0.597162 V 2.3980094 C 14.417598,1.9565663 14.069016,1.5987171 13.639008,1.5986729 Z"
     style="fill:url(#oomox);stroke-width:0.394458"
     id="path4"
     class="ColorScheme-Text"/>
  <metadata
     id="metadata6">
    <rdf:RDF>
      <cc:Work
         rdf:about="">
        <dc:creator>
          <cc:Agent>
            <dc:title>dreifacherspass</dc:title>
          </cc:Agent>
        </dc:creator>
        <cc:license
           rdf:resource="http://creativecommons.org/licenses/by-sa/4.0/" />
      </cc:Work>
      <cc:License
         rdf:about="http://creativecommons.org/licenses/by-sa/4.0/">
        <cc:permits
           rdf:resource="http://creativecommons.org/ns#Reproduction" />
        <cc:permits
           rdf:resource="http://creativecommons.org/ns#Distribution" />
        <cc:requires
           rdf:resource="http://creativecommons.org/ns#Notice" />
        <cc:requires
           rdf:resource="http://creativecommons.org/ns#Attribution" />
        <cc:permits
           rdf:resource="http://creativecommons.org/ns#DerivativeWorks" />
        <cc:requires
           rdf:resource="http://creativecommons.org/ns#ShareAlike" />
      </cc:License>
    </rdf:RDF>
  </metadata>
</svg>
