<?xml version="1.0" encoding="UTF-8" standalone="no"?>
<svg
   width="16"
   height="16"
   version="1.1"
   id="svg12"
   xmlns="http://www.w3.org/2000/svg"
   xmlns:svg="http://www.w3.org/2000/svg"
   xmlns:rdf="http://www.w3.org/1999/02/22-rdf-syntax-ns#"
   xmlns:cc="http://creativecommons.org/ns#"
   xmlns:dc="http://purl.org/dc/elements/1.1/">
  <defs>
   <style id="current-color-scheme" type="text/css">
   .ColorScheme-Text { color: #0abdc6; } .ColorScheme-Highlight { color:#5294e2; }
  </style>
  <linearGradient id="arrongin" x1="0%" x2="0%" y1="0%" y2="100%">
   <stop offset="0%" style="stop-color:#dd9b44; stop-opacity:1"/>
   <stop offset="100%" style="stop-color:#ad6c16; stop-opacity:1"/>
  </linearGradient>
  <linearGradient id="aurora" x1="0%" x2="0%" y1="0%" y2="100%">
   <stop offset="0%" style="stop-color:#09D4DF; stop-opacity:1"/>
   <stop offset="100%" style="stop-color:#9269F4; stop-opacity:1"/>
  </linearGradient>
  <linearGradient id="cyberneon" x1="0%" x2="0%" y1="0%" y2="100%">
    <stop offset="0" style="stop-color:#0abdc6; stop-opacity:1"/>
    <stop offset="1" style="stop-color:#ea00d9; stop-opacity:1"/>
  </linearGradient>
  <linearGradient id="fitdance" x1="0%" x2="0%" y1="0%" y2="100%">
   <stop offset="0%" style="stop-color:#1AD6AB; stop-opacity:1"/>
   <stop offset="100%" style="stop-color:#329DB6; stop-opacity:1"/>
  </linearGradient>
  <linearGradient id="oomox" x1="0%" x2="0%" y1="0%" y2="100%">
   <stop offset="0%" style="stop-color:#0abdc6; stop-opacity:1"/>
   <stop offset="100%" style="stop-color:#b800ff; stop-opacity:1"/>
  </linearGradient>
  <linearGradient id="rainblue" x1="0%" x2="0%" y1="0%" y2="100%">
   <stop offset="0%" style="stop-color:#00F260; stop-opacity:1"/>
   <stop offset="100%" style="stop-color:#0575E6; stop-opacity:1"/>
  </linearGradient>
  <linearGradient id="sunrise" x1="0%" x2="0%" y1="0%" y2="100%">
   <stop offset="0%" style="stop-color: #FF8501; stop-opacity:1"/>
   <stop offset="100%" style="stop-color: #FFCB01; stop-opacity:1"/>
  </linearGradient>
  <linearGradient id="telinkrin" x1="0%" x2="0%" y1="0%" y2="100%">
   <stop offset="0%" style="stop-color: #b2ced6; stop-opacity:1"/>
   <stop offset="100%" style="stop-color: #6da5b7; stop-opacity:1"/>
  </linearGradient>
  <linearGradient id="60spsycho" x1="0%" x2="0%" y1="0%" y2="100%">
   <stop offset="0%" style="stop-color: #df5940; stop-opacity:1"/>
   <stop offset="25%" style="stop-color: #d8d15f; stop-opacity:1"/>
   <stop offset="50%" style="stop-color: #e9882a; stop-opacity:1"/>
   <stop offset="100%" style="stop-color: #279362; stop-opacity:1"/>
  </linearGradient>
  <linearGradient id="90ssummer" x1="0%" x2="0%" y1="0%" y2="100%">
   <stop offset="0%" style="stop-color: #f618c7; stop-opacity:1"/>
   <stop offset="20%" style="stop-color: #94ffab; stop-opacity:1"/>
   <stop offset="50%" style="stop-color: #fbfd54; stop-opacity:1"/>
   <stop offset="100%" style="stop-color: #0f83ae; stop-opacity:1"/>
  </linearGradient>
 </defs>
  <path
     d="M 8,5.7773437 A 2.2222222,2.2222222 0 0 0 5.7773437,8 2.2222222,2.2222222 0 0 0 8,10.222656 2.2222222,2.2222222 0 0 0 10.222656,8 2.2222222,2.2222222 0 0 0 8,5.7773437 Z"
     style="display:inline;fill:url(#oomox);stroke-width:0.444446"
     id="path43"
     class="ColorScheme-Text"/>
  <path
     id="path38"
     class="ColorScheme-Text"
     style="display:inline;fill:url(#oomox);stroke-width:0.444446"
     d="M 8 2.2226562 A 0.88888889 0.88888889 0 0 0 7.1953125 2.734375 A 5.3333334 5.3333334 0 0 0 2.6660156 8 A 5.3333334 5.3333334 0 0 0 7.1972656 13.269531 A 0.88888889 0.88888889 0 0 0 8 13.777344 A 0.88888889 0.88888889 0 0 0 8.8046875 13.265625 A 5.3333334 5.3333334 0 0 0 13.333984 8 A 5.3333334 5.3333334 0 0 0 8.8027344 2.7304688 A 0.88888889 0.88888889 0 0 0 8 2.2226562 z M 8 2.6660156 A 0.44444446 0.44444446 0 0 1 8.4453125 3.1113281 A 0.44444446 0.44444446 0 0 1 8 3.5546875 A 0.44444446 0.44444446 0 0 1 7.5546875 3.1113281 A 0.44444446 0.44444446 0 0 1 8 2.6660156 z M 7.2695312 3.6171875 A 0.88888889 0.88888889 0 0 0 8 4 A 0.88888889 0.88888889 0 0 0 8.7285156 3.6210938 A 4.4444446 4.4444446 0 0 1 12.445312 8 A 4.4444446 4.4444446 0 0 1 8.7304688 12.382812 A 0.88888889 0.88888889 0 0 0 8 12 A 0.88888889 0.88888889 0 0 0 7.2714844 12.378906 A 4.4444446 4.4444446 0 0 1 3.5546875 8 A 4.4444446 4.4444446 0 0 1 7.2695312 3.6171875 z M 8 12.445312 A 0.44444446 0.44444446 0 0 1 8.4453125 12.888672 A 0.44444446 0.44444446 0 0 1 8 13.333984 A 0.44444446 0.44444446 0 0 1 7.5546875 12.888672 A 0.44444446 0.44444446 0 0 1 8 12.445312 z " />
  <path
     id="path35"
     class="ColorScheme-Text"
     style="display:inline;fill:url(#oomox);stroke-width:0.444446"
     d="M 8 0 A 0.88888889 0.88888889 0 0 0 7.2070312 0.48828125 A 7.5555557 7.5555557 0 0 0 3.2539062 2.1289062 A 0.88888889 0.88888889 0 0 0 2.984375 2.0820312 A 0.88888889 0.88888889 0 0 0 2.3417969 2.3417969 A 0.88888889 0.88888889 0 0 0 2.1269531 3.25 A 7.5555557 7.5555557 0 0 0 0.49609375 7.203125 A 0.88888889 0.88888889 0 0 0 0 8 A 0.88888889 0.88888889 0 0 0 0.48828125 8.7929688 A 7.5555557 7.5555557 0 0 0 2.1289062 12.746094 A 0.88888889 0.88888889 0 0 0 2.3417969 13.658203 A 0.88888889 0.88888889 0 0 0 3.25 13.873047 A 7.5555557 7.5555557 0 0 0 7.203125 15.503906 A 0.88888889 0.88888889 0 0 0 8 16 A 0.88888889 0.88888889 0 0 0 8.7929688 15.511719 A 7.5555557 7.5555557 0 0 0 12.746094 13.871094 A 0.88888889 0.88888889 0 0 0 13.658203 13.658203 A 0.88888889 0.88888889 0 0 0 13.873047 12.75 A 7.5555557 7.5555557 0 0 0 15.503906 8.796875 A 0.88888889 0.88888889 0 0 0 16 8 A 0.88888889 0.88888889 0 0 0 15.511719 7.2070312 A 7.5555557 7.5555557 0 0 0 13.871094 3.2539062 A 0.88888889 0.88888889 0 0 0 13.658203 2.3417969 A 0.88888889 0.88888889 0 0 0 13.015625 2.0820312 A 0.88888889 0.88888889 0 0 0 12.75 2.1269531 A 7.5555557 7.5555557 0 0 0 8.796875 0.49609375 A 0.88888889 0.88888889 0 0 0 8 0 z M 8 0.4453125 A 0.44444446 0.44444446 0 0 1 8.4453125 0.88867188 A 0.44444446 0.44444446 0 0 1 8 1.3339844 A 0.44444446 0.44444446 0 0 1 7.5546875 0.88867188 A 0.44444446 0.44444446 0 0 1 8 0.4453125 z M 8.7421875 1.3769531 A 6.6666672 6.6666672 0 0 1 12.158203 2.796875 A 0.88888889 0.88888889 0 0 0 12.400391 3.5996094 A 0.88888889 0.88888889 0 0 0 13.208984 3.8417969 A 6.6666672 6.6666672 0 0 1 14.617188 7.2617188 A 0.88888889 0.88888889 0 0 0 14.222656 8 A 0.88888889 0.88888889 0 0 0 14.623047 8.7421875 A 6.6666672 6.6666672 0 0 1 13.203125 12.158203 A 0.88888889 0.88888889 0 0 0 13.041016 12.138672 A 0.88888889 0.88888889 0 0 0 12.400391 12.400391 A 0.88888889 0.88888889 0 0 0 12.158203 13.208984 A 6.6666672 6.6666672 0 0 1 8.7382812 14.617188 A 0.88888889 0.88888889 0 0 0 8 14.222656 A 0.88888889 0.88888889 0 0 0 7.2578125 14.623047 A 6.6666672 6.6666672 0 0 1 3.8417969 13.203125 A 0.88888889 0.88888889 0 0 0 3.5996094 12.400391 A 0.88888889 0.88888889 0 0 0 2.9589844 12.138672 A 0.88888889 0.88888889 0 0 0 2.7890625 12.158203 A 6.6666672 6.6666672 0 0 1 1.3828125 8.7382812 A 0.88888889 0.88888889 0 0 0 1.7773438 8 A 0.88888889 0.88888889 0 0 0 1.3769531 7.2578125 A 6.6666672 6.6666672 0 0 1 2.796875 3.8417969 A 0.88888889 0.88888889 0 0 0 3.5996094 3.5996094 A 0.88888889 0.88888889 0 0 0 3.8417969 2.7910156 A 6.6666672 6.6666672 0 0 1 7.2617188 1.3828125 A 0.88888889 0.88888889 0 0 0 8 1.7773438 A 0.88888889 0.88888889 0 0 0 8.7421875 1.3769531 z M 2.9785156 2.5273438 A 0.44444446 0.44444446 0 0 1 3.2851562 2.6582031 A 0.44444446 0.44444446 0 0 1 3.2851562 3.2851562 A 0.44444446 0.44444446 0 0 1 2.6582031 3.2851562 A 0.44444446 0.44444446 0 0 1 2.6582031 2.6582031 A 0.44444446 0.44444446 0 0 1 2.9785156 2.5273438 z M 13.021484 2.5273438 A 0.44444446 0.44444446 0 0 1 13.341797 2.6582031 A 0.44444446 0.44444446 0 0 1 13.341797 3.2851562 A 0.44444446 0.44444446 0 0 1 12.714844 3.2851562 A 0.44444446 0.44444446 0 0 1 12.714844 2.6582031 A 0.44444446 0.44444446 0 0 1 13.021484 2.5273438 z M 0.88867188 7.5546875 A 0.44444446 0.44444446 0 0 1 1.3339844 8 A 0.44444446 0.44444446 0 0 1 0.88867188 8.4453125 A 0.44444446 0.44444446 0 0 1 0.4453125 8 A 0.44444446 0.44444446 0 0 1 0.88867188 7.5546875 z M 15.111328 7.5546875 A 0.44444446 0.44444446 0 0 1 15.554688 8 A 0.44444446 0.44444446 0 0 1 15.111328 8.4453125 A 0.44444446 0.44444446 0 0 1 14.666016 8 A 0.44444446 0.44444446 0 0 1 15.111328 7.5546875 z M 2.9648438 12.583984 A 0.44444446 0.44444446 0 0 1 3.2851562 12.714844 A 0.44444446 0.44444446 0 0 1 3.2851562 13.341797 A 0.44444446 0.44444446 0 0 1 2.6582031 13.341797 A 0.44444446 0.44444446 0 0 1 2.6582031 12.714844 A 0.44444446 0.44444446 0 0 1 2.9648438 12.583984 z M 13.035156 12.583984 A 0.44444446 0.44444446 0 0 1 13.341797 12.714844 A 0.44444446 0.44444446 0 0 1 13.341797 13.341797 A 0.44444446 0.44444446 0 0 1 12.714844 13.341797 A 0.44444446 0.44444446 0 0 1 12.714844 12.714844 A 0.44444446 0.44444446 0 0 1 13.035156 12.583984 z M 8 14.666016 A 0.44444446 0.44444446 0 0 1 8.4453125 15.111328 A 0.44444446 0.44444446 0 0 1 8 15.554688 A 0.44444446 0.44444446 0 0 1 7.5546875 15.111328 A 0.44444446 0.44444446 0 0 1 8 14.666016 z " />
  <metadata
     id="metadata188">
    <rdf:RDF>
      <cc:Work
         rdf:about="">
        <cc:license
           rdf:resource="http://creativecommons.org/licenses/by-sa/4.0/" />
        <dc:creator>
          <cc:Agent>
            <dc:title>dreifacherspass</dc:title>
          </cc:Agent>
        </dc:creator>
      </cc:Work>
      <cc:License
         rdf:about="http://creativecommons.org/licenses/by-sa/4.0/">
        <cc:permits
           rdf:resource="http://creativecommons.org/ns#Reproduction" />
        <cc:permits
           rdf:resource="http://creativecommons.org/ns#Distribution" />
        <cc:requires
           rdf:resource="http://creativecommons.org/ns#Notice" />
        <cc:requires
           rdf:resource="http://creativecommons.org/ns#Attribution" />
        <cc:permits
           rdf:resource="http://creativecommons.org/ns#DerivativeWorks" />
        <cc:requires
           rdf:resource="http://creativecommons.org/ns#ShareAlike" />
      </cc:License>
    </rdf:RDF>
  </metadata>
</svg>
