<?xml version="1.0" encoding="UTF-8" standalone="no"?>
<svg
   width="16"
   height="16"
   version="1"
   id="svg5"
   xmlns:xlink="http://www.w3.org/1999/xlink"
   xmlns="http://www.w3.org/2000/svg"
   xmlns:svg="http://www.w3.org/2000/svg"
   xmlns:rdf="http://www.w3.org/1999/02/22-rdf-syntax-ns#"
   xmlns:cc="http://creativecommons.org/ns#"
   xmlns:dc="http://purl.org/dc/elements/1.1/">
  <defs>
   <style id="current-color-scheme" type="text/css">
   .ColorScheme-Text { color: #0abdc6; } .ColorScheme-Highlight { color:#5294e2; }
  </style>
  <linearGradient id="arrongin" x1="0%" x2="0%" y1="0%" y2="100%">
   <stop offset="0%" style="stop-color:#dd9b44; stop-opacity:1"/>
   <stop offset="100%" style="stop-color:#ad6c16; stop-opacity:1"/>
  </linearGradient>
  <linearGradient id="aurora" x1="0%" x2="0%" y1="0%" y2="100%">
   <stop offset="0%" style="stop-color:#09D4DF; stop-opacity:1"/>
   <stop offset="100%" style="stop-color:#9269F4; stop-opacity:1"/>
  </linearGradient>
  <linearGradient id="cyberneon" x1="0%" x2="0%" y1="0%" y2="100%">
    <stop offset="0" style="stop-color:#0abdc6; stop-opacity:1"/>
    <stop offset="1" style="stop-color:#ea00d9; stop-opacity:1"/>
  </linearGradient>
  <linearGradient id="fitdance" x1="0%" x2="0%" y1="0%" y2="100%">
   <stop offset="0%" style="stop-color:#1AD6AB; stop-opacity:1"/>
   <stop offset="100%" style="stop-color:#329DB6; stop-opacity:1"/>
  </linearGradient>
  <linearGradient id="oomox" x1="0%" x2="0%" y1="0%" y2="100%">
   <stop offset="0%" style="stop-color:#0abdc6; stop-opacity:1"/>
   <stop offset="100%" style="stop-color:#b800ff; stop-opacity:1"/>
  </linearGradient>
  <linearGradient id="rainblue" x1="0%" x2="0%" y1="0%" y2="100%">
   <stop offset="0%" style="stop-color:#00F260; stop-opacity:1"/>
   <stop offset="100%" style="stop-color:#0575E6; stop-opacity:1"/>
  </linearGradient>
  <linearGradient id="sunrise" x1="0%" x2="0%" y1="0%" y2="100%">
   <stop offset="0%" style="stop-color: #FF8501; stop-opacity:1"/>
   <stop offset="100%" style="stop-color: #FFCB01; stop-opacity:1"/>
  </linearGradient>
  <linearGradient id="telinkrin" x1="0%" x2="0%" y1="0%" y2="100%">
   <stop offset="0%" style="stop-color: #b2ced6; stop-opacity:1"/>
   <stop offset="100%" style="stop-color: #6da5b7; stop-opacity:1"/>
  </linearGradient>
  <linearGradient id="60spsycho" x1="0%" x2="0%" y1="0%" y2="100%">
   <stop offset="0%" style="stop-color: #df5940; stop-opacity:1"/>
   <stop offset="25%" style="stop-color: #d8d15f; stop-opacity:1"/>
   <stop offset="50%" style="stop-color: #e9882a; stop-opacity:1"/>
   <stop offset="100%" style="stop-color: #279362; stop-opacity:1"/>
  </linearGradient>
  <linearGradient id="90ssummer" x1="0%" x2="0%" y1="0%" y2="100%">
   <stop offset="0%" style="stop-color: #f618c7; stop-opacity:1"/>
   <stop offset="20%" style="stop-color: #94ffab; stop-opacity:1"/>
   <stop offset="50%" style="stop-color: #fbfd54; stop-opacity:1"/>
   <stop offset="100%" style="stop-color: #0f83ae; stop-opacity:1"/>
  </linearGradient>
 </defs>
  <path
     style="fill:url(#oomox);fill-rule:evenodd;stroke-width:0.493988"
     d="m 5.3030935,15.523226 c -0.4833073,-0.17914 -0.9347672,-0.407024 -1.3600067,-0.66719 2.1130656,0.164583 4.8705367,-0.329163 6.7300822,-2.093355 0,0 3.544878,-2.8713185 0.980353,-7.5834242 0,0 0.413372,1.8990212 -0.113645,3.4612834 0,0 -0.502665,2.0744918 -2.7368663,2.6916738 C 5.5122774,12.241213 1.7625873,9.9559289 0.19527215,8.8247451 0.07725707,7.6619113 0.18215922,6.460463 0.6024025,5.288134 1.2255792,3.5511623 2.2989459,2.1958936 3.7301374,1.2856293 3.3723373,3.8233555 3.6552023,6.159785 4.0617072,7.1384143 4.6074569,8.4506384 5.6540224,9.9313691 7.5042022,10.127601 9.354382,10.324466 10.374692,8.6190178 10.374692,8.6190178 11.323823,7.1567713 11.472438,5.0570862 11.458075,5.0064462 11.443701,4.955172 11.205182,4.8165438 11.205182,4.8165438 10.566393,7.4371934 9.5129854,8.2133856 9.5129854,8.2133856 7.8520058,9.8389488 6.6755832,8.7115624 6.6755832,8.7115624 5.4111165,7.3347719 6.3946753,5.1963479 6.3946753,5.1963479 6.889845,3.6720666 8.2347811,1.4413492 9.8701559,0.307 10.142407,0.37536484 10.41653,0.41777681 10.685658,0.51715882 11.675376,0.88303702 12.542083,1.4343865 13.275158,2.111704 12.079382,2.554176 10.148654,3.4897602 10.148654,3.4897602 7.0883299,4.7962873 6.8816461,6.7725366 6.8816461,6.7725366 6.5650596,8.8095528 8.1592254,7.8481406 8.1592254,7.8481406 9.8002213,7.0378922 10.606356,4.6120824 10.606356,4.6120824 10.094327,4.5133331 9.6909479,4.6709525 9.6909479,4.6709525 9.0359202,6.3098085 7.699648,6.9839608 7.699648,6.9839608 7.1738777,7.2662818 7.0514917,6.7674724 7.0514917,6.7674724 6.9628231,6.3939977 7.4317669,6.3300649 7.4317669,6.3300649 8.1598504,6.0433124 8.6256733,5.2678786 8.7312009,4.9507415 8.8361034,4.632972 9.0315492,4.608285 9.0315492,4.608285 10.029384,4.2854509 10.939176,4.1139125 10.939176,4.1139125 c 1.238866,-0.154453 3.13525,0.4443716 3.13525,0.4443716 0.425236,0.1734437 0.832987,0.3032098 1.195157,0.4070232 0.694987,1.7603931 0.804885,3.8645015 0.116141,5.7863107 -1.484888,4.143033 -5.9994999,6.280063 -10.0826305,4.771608 z"
     id="path5"
     class="ColorScheme-Text" />
  <metadata
     id="metadata5">
    <rdf:RDF>
      <cc:Work
         rdf:about="">
        <dc:creator>
          <cc:Agent>
            <dc:title>dreifacherspass</dc:title>
          </cc:Agent>
        </dc:creator>
        <cc:license
           rdf:resource="http://creativecommons.org/licenses/by-sa/4.0/" />
      </cc:Work>
      <cc:License
         rdf:about="http://creativecommons.org/licenses/by-sa/4.0/">
        <cc:permits
           rdf:resource="http://creativecommons.org/ns#Reproduction" />
        <cc:permits
           rdf:resource="http://creativecommons.org/ns#Distribution" />
        <cc:requires
           rdf:resource="http://creativecommons.org/ns#Notice" />
        <cc:requires
           rdf:resource="http://creativecommons.org/ns#Attribution" />
        <cc:permits
           rdf:resource="http://creativecommons.org/ns#DerivativeWorks" />
        <cc:requires
           rdf:resource="http://creativecommons.org/ns#ShareAlike" />
      </cc:License>
    </rdf:RDF>
  </metadata>
  <circle
     style="fill:none;stroke:url(#oomox);stroke-width:0.338407;stroke-dasharray:none"
     id="path24"
     class="ColorScheme-Text"
     cx="8"
     cy="8"
     r="7.8307962" />
</svg>
