<?xml version="1.0" encoding="UTF-8" standalone="no"?>
<svg
   width="16"
   height="16"
   version="1.1"
   id="svg6"
   xmlns:xlink="http://www.w3.org/1999/xlink"
   xmlns="http://www.w3.org/2000/svg"
   xmlns:svg="http://www.w3.org/2000/svg"
   xmlns:rdf="http://www.w3.org/1999/02/22-rdf-syntax-ns#"
   xmlns:cc="http://creativecommons.org/ns#"
   xmlns:dc="http://purl.org/dc/elements/1.1/">
  <defs>
   <style id="current-color-scheme" type="text/css">
   .ColorScheme-Text { color: #0abdc6; } .ColorScheme-Highlight { color:#5294e2; }
  </style>
  <linearGradient id="arrongin" x1="0%" x2="0%" y1="0%" y2="100%">
   <stop offset="0%" style="stop-color:#dd9b44; stop-opacity:1"/>
   <stop offset="100%" style="stop-color:#ad6c16; stop-opacity:1"/>
  </linearGradient>
  <linearGradient id="aurora" x1="0%" x2="0%" y1="0%" y2="100%">
   <stop offset="0%" style="stop-color:#09D4DF; stop-opacity:1"/>
   <stop offset="100%" style="stop-color:#9269F4; stop-opacity:1"/>
  </linearGradient>
  <linearGradient id="cyberneon" x1="0%" x2="0%" y1="0%" y2="100%">
    <stop offset="0" style="stop-color:#0abdc6; stop-opacity:1"/>
    <stop offset="1" style="stop-color:#ea00d9; stop-opacity:1"/>
  </linearGradient>
  <linearGradient id="fitdance" x1="0%" x2="0%" y1="0%" y2="100%">
   <stop offset="0%" style="stop-color:#1AD6AB; stop-opacity:1"/>
   <stop offset="100%" style="stop-color:#329DB6; stop-opacity:1"/>
  </linearGradient>
  <linearGradient id="oomox" x1="0%" x2="0%" y1="0%" y2="100%">
   <stop offset="0%" style="stop-color:#0abdc6; stop-opacity:1"/>
   <stop offset="100%" style="stop-color:#b800ff; stop-opacity:1"/>
  </linearGradient>
  <linearGradient id="rainblue" x1="0%" x2="0%" y1="0%" y2="100%">
   <stop offset="0%" style="stop-color:#00F260; stop-opacity:1"/>
   <stop offset="100%" style="stop-color:#0575E6; stop-opacity:1"/>
  </linearGradient>
  <linearGradient id="sunrise" x1="0%" x2="0%" y1="0%" y2="100%">
   <stop offset="0%" style="stop-color: #FF8501; stop-opacity:1"/>
   <stop offset="100%" style="stop-color: #FFCB01; stop-opacity:1"/>
  </linearGradient>
  <linearGradient id="telinkrin" x1="0%" x2="0%" y1="0%" y2="100%">
   <stop offset="0%" style="stop-color: #b2ced6; stop-opacity:1"/>
   <stop offset="100%" style="stop-color: #6da5b7; stop-opacity:1"/>
  </linearGradient>
  <linearGradient id="60spsycho" x1="0%" x2="0%" y1="0%" y2="100%">
   <stop offset="0%" style="stop-color: #df5940; stop-opacity:1"/>
   <stop offset="25%" style="stop-color: #d8d15f; stop-opacity:1"/>
   <stop offset="50%" style="stop-color: #e9882a; stop-opacity:1"/>
   <stop offset="100%" style="stop-color: #279362; stop-opacity:1"/>
  </linearGradient>
  <linearGradient id="90ssummer" x1="0%" x2="0%" y1="0%" y2="100%">
   <stop offset="0%" style="stop-color: #f618c7; stop-opacity:1"/>
   <stop offset="20%" style="stop-color: #94ffab; stop-opacity:1"/>
   <stop offset="50%" style="stop-color: #fbfd54; stop-opacity:1"/>
   <stop offset="100%" style="stop-color: #0f83ae; stop-opacity:1"/>
  </linearGradient>
 </defs>
  <path
     style="display:inline;fill:url(#oomox);stroke-width:0.500002"
     d="M 11.08564,2.92534e-4 C 10.897067,0.00280253 10.701383,0.02058903 10.46776,0.06687253 10.04264,0.15109853 9.5995538,0.40830552 9.2251123,0.66907407 7.9538251,1.5544416 7.6179609,3.2847541 8.4724408,4.5346917 c 0.7147866,1.0455944 2.0510012,1.4117151 3.2163202,1.0116185 0.245988,-0.084456 0.344502,-0.0934 0.535233,-0.1093108 0.245936,-0.02052 0.641912,0.00986 0.996676,0.1848346 0.288626,0.1423507 0.535479,0.2664982 0.695606,0.597233 0.04168,0.086091 0.115094,0.2391291 0.130857,0.4322731 0.02505,0.3078831 -0.03629,0.4578062 -0.240068,0.8486474 C 14.131067,7.2386837 14.28628,7.1955814 14.767337,6.6105977 15.72492,5.4461508 15.774984,3.5006461 14.731917,1.9748381 13.958705,0.84377887 12.77495,0.12149883 11.659245,0.02811708 11.455221,0.01104047 11.274214,-0.00221347 11.085641,2.92784e-4 Z"
     id="path3"
     class="ColorScheme-Text"/>
  <path
     style="display:inline;fill:url(#oomox);stroke-width:0.500002"
     d="M 4.3341706,3.5005936 C 3.0194161,3.5296737 1.6471307,4.4087347 0.96378476,5.8493353 0.38486562,7.0697889 0.35669687,8.4421895 0.83096173,9.447158 1.004415,9.8147066 1.1453228,10.095919 1.4560115,10.452087 c 0.282682,0.324054 0.7212061,0.578758 1.1289961,0.772497 1.3842575,0.657641 3.0233489,0.09615 3.6633782,-1.2520114 0,0 0,-10e-4 0,-10e-4 C 6.7829872,8.8435206 6.4326263,7.5146348 5.5139525,6.7097031 5.3199811,6.5397478 5.263731,6.4595726 5.1555252,6.3034341 5.0160002,6.1021058 4.8447611,5.747064 4.8176082,5.3561252 4.7955182,5.0380678 4.7777032,4.7646486 4.9797296,4.4644822 5.0323171,4.3863492 5.1268981,4.2487062 5.2834651,4.1402481 5.5330812,3.9674266 5.6905576,3.9461826 6.1243522,3.9293007 5.7411408,3.7791827 5.6284871,3.6666856 4.8918321,3.5406107 4.7085372,3.5092407 4.5219926,3.4964157 4.3341706,3.5005706 Z"
     id="path4"
     class="ColorScheme-Text"/>
  <path
     style="display:inline;fill:url(#oomox);stroke-width:0.500002"
     d="m 12.375368,9.5006156 c -0.09012,-0.00205 -0.180961,0.0012 -0.272726,0.0086 v -10e-4 C 10.874443,9.6064256 9.9126698,10.551609 9.6779866,11.720854 9.6284476,11.96767 9.5874586,12.054475 9.5074128,12.222081 9.4041999,12.438197 9.1843559,12.75644 8.8636656,12.970109 8.6027622,13.143943 8.3775843,13.29168 8.021396,13.267414 7.928681,13.261114 7.7644116,13.248644 7.5944798,13.169264 7.3236376,13.042658 7.2283296,12.920576 6.9998803,12.562265 c 0.060779,0.397042 0.019915,0.546235 0.2756166,1.230197 0.5089919,1.361479 2.1183932,2.336901 3.9106721,2.193581 1.328591,-0.106242 2.515849,-0.751774 3.14068,-1.642803 0.22852,-0.325878 0.399182,-0.582367 0.55027,-1.018653 0.13746,-0.396954 0.138742,-0.892113 0.103115,-1.331204 -0.113415,-1.397618 -1.253042,-2.4619954 -2.604866,-2.4927914 z"
     id="path5"
     class="ColorScheme-Text"/>
  <metadata
     id="metadata13">
    <rdf:RDF>
      <cc:Work
         rdf:about="">
        <dc:creator>
          <cc:Agent>
            <dc:title>dreifacherspass</dc:title>
          </cc:Agent>
        </dc:creator>
        <cc:license
           rdf:resource="http://creativecommons.org/licenses/by-sa/4.0/" />
      </cc:Work>
      <cc:License
         rdf:about="http://creativecommons.org/licenses/by-sa/4.0/">
        <cc:permits
           rdf:resource="http://creativecommons.org/ns#Reproduction" />
        <cc:permits
           rdf:resource="http://creativecommons.org/ns#Distribution" />
        <cc:requires
           rdf:resource="http://creativecommons.org/ns#Notice" />
        <cc:requires
           rdf:resource="http://creativecommons.org/ns#Attribution" />
        <cc:permits
           rdf:resource="http://creativecommons.org/ns#DerivativeWorks" />
        <cc:requires
           rdf:resource="http://creativecommons.org/ns#ShareAlike" />
      </cc:License>
    </rdf:RDF>
  </metadata>
</svg>
