<?xml version="1.0" encoding="UTF-8" standalone="no"?>
<svg
   width="16"
   height="16"
   version="1.1"
   id="svg13"
   xmlns:xlink="http://www.w3.org/1999/xlink"
   xmlns="http://www.w3.org/2000/svg"
   xmlns:svg="http://www.w3.org/2000/svg"
   xmlns:rdf="http://www.w3.org/1999/02/22-rdf-syntax-ns#"
   xmlns:cc="http://creativecommons.org/ns#"
   xmlns:dc="http://purl.org/dc/elements/1.1/">
  <defs>
   <style id="current-color-scheme" type="text/css">
   .ColorScheme-Text { color: #0abdc6; } .ColorScheme-Highlight { color:#5294e2; }
  </style>
  <linearGradient id="arrongin" x1="0%" x2="0%" y1="0%" y2="100%">
   <stop offset="0%" style="stop-color:#dd9b44; stop-opacity:1"/>
   <stop offset="100%" style="stop-color:#ad6c16; stop-opacity:1"/>
  </linearGradient>
  <linearGradient id="aurora" x1="0%" x2="0%" y1="0%" y2="100%">
   <stop offset="0%" style="stop-color:#09D4DF; stop-opacity:1"/>
   <stop offset="100%" style="stop-color:#9269F4; stop-opacity:1"/>
  </linearGradient>
  <linearGradient id="cyberneon" x1="0%" x2="0%" y1="0%" y2="100%">
    <stop offset="0" style="stop-color:#0abdc6; stop-opacity:1"/>
    <stop offset="1" style="stop-color:#ea00d9; stop-opacity:1"/>
  </linearGradient>
  <linearGradient id="fitdance" x1="0%" x2="0%" y1="0%" y2="100%">
   <stop offset="0%" style="stop-color:#1AD6AB; stop-opacity:1"/>
   <stop offset="100%" style="stop-color:#329DB6; stop-opacity:1"/>
  </linearGradient>
  <linearGradient id="oomox" x1="0%" x2="0%" y1="0%" y2="100%">
   <stop offset="0%" style="stop-color:#0abdc6; stop-opacity:1"/>
   <stop offset="100%" style="stop-color:#b800ff; stop-opacity:1"/>
  </linearGradient>
  <linearGradient id="rainblue" x1="0%" x2="0%" y1="0%" y2="100%">
   <stop offset="0%" style="stop-color:#00F260; stop-opacity:1"/>
   <stop offset="100%" style="stop-color:#0575E6; stop-opacity:1"/>
  </linearGradient>
  <linearGradient id="sunrise" x1="0%" x2="0%" y1="0%" y2="100%">
   <stop offset="0%" style="stop-color: #FF8501; stop-opacity:1"/>
   <stop offset="100%" style="stop-color: #FFCB01; stop-opacity:1"/>
  </linearGradient>
  <linearGradient id="telinkrin" x1="0%" x2="0%" y1="0%" y2="100%">
   <stop offset="0%" style="stop-color: #b2ced6; stop-opacity:1"/>
   <stop offset="100%" style="stop-color: #6da5b7; stop-opacity:1"/>
  </linearGradient>
  <linearGradient id="60spsycho" x1="0%" x2="0%" y1="0%" y2="100%">
   <stop offset="0%" style="stop-color: #df5940; stop-opacity:1"/>
   <stop offset="25%" style="stop-color: #d8d15f; stop-opacity:1"/>
   <stop offset="50%" style="stop-color: #e9882a; stop-opacity:1"/>
   <stop offset="100%" style="stop-color: #279362; stop-opacity:1"/>
  </linearGradient>
  <linearGradient id="90ssummer" x1="0%" x2="0%" y1="0%" y2="100%">
   <stop offset="0%" style="stop-color: #f618c7; stop-opacity:1"/>
   <stop offset="20%" style="stop-color: #94ffab; stop-opacity:1"/>
   <stop offset="50%" style="stop-color: #fbfd54; stop-opacity:1"/>
   <stop offset="100%" style="stop-color: #0f83ae; stop-opacity:1"/>
  </linearGradient>
 </defs>
  <path
     style="display:inline;opacity:1;fill:url(#oomox);stroke-width:0.461921"
     d="m 12.157141,12.007346 q 0,1.75313 -0.965663,2.725455 -0.96027,0.972324 -2.7243589,0.972324 -1.7856684,0 -2.7459373,-0.962504 -0.9548743,-0.967414 -0.9548743,-2.745097 0,-1.777683 0.9602688,-2.7303646 0.9656636,-0.9526812 2.7513325,-0.9526812 1.7586942,0 2.7189632,0.9674134 0.96027,0.9674144 0.960269,2.7254544 z m -6.020562,0 q 0,1.325897 0.58803,2.013399 0.588029,0.68259 1.7425101,0.68259 1.1490853,0 1.7317209,-0.67768 0.58803,-0.677681 0.58803,-2.018309 0,-1.320987 -0.582635,-2.003578 -0.5772396,-0.6825905 -1.7263262,-0.6825905 -1.1598755,0 -1.7532998,0.6825905 -0.58803,0.682591 -0.58803,2.003578 z"
     id="path3"
     class="ColorScheme-Text"/>
  <path
     id="path9-1"
     style="display:inline;opacity:0.8;fill:#000000;fill-opacity:1;stroke-width:0.461921"
     d="m 1.5332031,12.607422 v 3.390625 h 2.2246094 c 1.3706288,0 2.4196117,-0.321154 3.1484375,-0.964844 0.6523584,-0.579171 0.9842893,-1.387606 1.0527343,-2.425781 H 6.6191406 c -0.1141205,1.583707 -1.0686794,2.375 -2.8613281,2.375 H 2.8320312 v -2.375 z" />
  <path
     style="display:inline;opacity:0.8;fill:#000000;fill-opacity:1;stroke-width:0.461921"
     d="m 14.929109,13.949502 c 0,0.639243 -0.324733,1.140804 -0.974193,1.504683 C 13.305454,15.818062 12.409565,16 11.267249,16 10.124934,16 9.1898935,15.873791 8.4621284,15.621372 v -1.111303 c 0.4606108,0.154074 0.9488586,0.275366 1.464743,0.363878 0.5204916,0.08851 1.0041326,0.132767 1.4509256,0.132767 0.654069,0 1.135408,-0.08851 1.444017,-0.265534 0.313216,-0.177021 0.469823,-0.414688 0.469823,-0.713002 0,-0.268811 -0.14279,-0.496643 -0.428369,-0.6835 -0.285579,-0.186856 -0.875161,-0.408133 -1.768747,-0.663831 -0.921222,-0.265532 -1.5706836,-0.568764 -1.9483857,-0.909693 -0.3777014,-0.34093 -0.5665522,-0.750703 -0.5665522,-1.229315 0,-0.599907 0.2993976,-1.0719648 0.8981929,-1.4161736 l 0.73928,1.3965036 c 0,0.186856 0.05527,0.347486 0.16582,0.481892 0.110546,0.131126 0.292489,0.255697 0.545824,0.373712 0.253337,0.118014 0.709341,0.273728 1.368015,0.46714 0.741583,0.219636 1.285104,0.424523 1.630562,0.614657 0.345459,0.190135 0.598795,0.404856 0.76001,0.644162 0.161214,0.239306 0.241821,0.52123 0.241822,0.84577 z"
     id="path11-5" />
  <path
     style="display:inline;fill:url(#oomox);stroke-width:0.461921"
     d="M 3.9962273,7.3906468 2.3301413,1.5940609 h -0.038747 q 0.00969,0.2070212 0.029055,0.6210629 0.019374,0.4140421 0.038747,0.89019 0.019374,0.476148 0.019374,0.8487857 V 7.3906468 H 1.0708906 V 0 h 1.9954282 l 1.6370261,5.6516706 h 0.029055 L 6.4662956,0 H 8.4617243 V 7.3906468 H 7.0959213 V 3.8919932 q 0,-0.3519358 0.00969,-0.8073816 0.019377,-0.4554457 0.029058,-0.8591367 0.019374,-0.414042 0.029064,-0.621063 H 7.1249811 L 5.3426566,7.3906468 Z"
     id="path6"
     class="ColorScheme-Text"/>
  <path
     style="display:inline;fill:url(#oomox);stroke-width:0.461921"
     d="m 14.928704,5.2962946 q 0,0.9565552 -0.822529,1.5304883 -0.810607,0.5638639 -2.312615,0.5638639 -1.347039,0 -2.4079816,-0.4329667 V 5.5379507 q 0.607956,0.2215181 1.2516736,0.412829 0.655638,0.1812423 1.299356,0.1812423 0.66756,0 0.941736,-0.2114492 0.286097,-0.2215181 0.286097,-0.553795 0,-0.2718631 -0.226494,-0.4631742 Q 12.723374,4.7122926 12.353834,4.5511885 11.984292,4.3800155 11.507464,4.1887045 11.209447,4.0678767 10.863745,3.9067726 10.518045,3.7355997 10.196186,3.4939435 9.8862474,3.2422185 9.6835954,2.8898034 9.4809443,2.5373888 9.4809443,2.0440077 q 0,-0.9666241 0.7748457,-1.5002815 Q 11.030635,2.8e-7 12.365753,2.8e-7 q 0.667559,0 1.263596,0.13089703 0.596035,0.13089699 1.263594,0.37255309 l -0.584114,1.188142 Q 13.724714,1.4902126 13.259807,1.3794537 12.794897,1.2686946 12.306149,1.2686946 q -0.51259,0 -0.786765,0.2013799 -0.274177,0.2013799 -0.274177,0.5235881 0,0.3826221 0.405303,0.6041401 0.405304,0.2215179 1.203992,0.5437256 0.655639,0.2617944 1.108626,0.5437263 0.464905,0.2819319 0.71524,0.664554 0.250336,0.382622 0.250336,0.946486 z"
     id="path7"
     class="ColorScheme-Text"/>
  <path
     style="display:inline;fill:url(#oomox);stroke-width:0.461921"
     d="m 14.928704,13.654626 q 0,0.958866 -0.974194,1.504683 -0.974193,0.545816 -2.687665,0.545816 -1.7134729,0 -2.8051207,-0.37863 v -1.111301 q 0.6909158,0.231111 1.4647431,0.363877 0.7807366,0.132766 1.4509246,0.132766 0.981103,0 1.444016,-0.265532 0.469823,-0.265533 0.469823,-0.713004 0,-0.403215 -0.428369,-0.683498 -0.428366,-0.280285 -1.768746,-0.663831 -1.3818326,-0.398298 -1.9483844,-0.909695 -0.5665523,-0.511394 -0.5665523,-1.229315 0,-0.899859 0.8981924,-1.4161719 0.8981913,-0.5163124 2.4112973,-0.5163124 1.450927,0 2.888032,0.4523884 L 14.251604,9.725732 q -1.347286,-0.4032154 -2.404388,-0.4032154 -0.801464,0 -1.216013,0.2507804 -0.414551,0.245863 -0.414551,0.653996 0,0.280284 0.16582,0.481892 0.16582,0.19669 0.545824,0.373713 0.380004,0.177021 1.368016,0.467139 1.112374,0.329456 1.630561,0.614658 0.518189,0.285202 0.760011,0.64416 0.241819,0.358962 0.24182,0.845771 z"
     id="path11"
     class="ColorScheme-Text"/>
  <path
     style="display:inline;opacity:1;fill:url(#oomox);stroke-width:0.461921"
     d="m 7.9997971,11.939029 q 0,1.829967 -1.09324,2.800558 -1.0932402,0.965538 -3.1491853,0.965538 H 1.5328176 V 8.3144777 h 2.4584316 q 1.8982131,0 2.9533808,0.9503702 1.0551671,0.9503711 1.0551671,2.6741811 z m -1.3706301,0.04044 q 0,-2.6539604 -2.6705516,-2.6539604 H 2.8327398 v 5.3635274 h 0.924632 q 2.8717952,0 2.8717952,-2.709567 z"
     id="path9"
     class="ColorScheme-Text"/>
  <path
     style="display:inline;opacity:0.5;fill:#000000;fill-opacity:1;stroke-width:0.461921"
     d="M 8.8704216,9.3519831 C 8.768586,9.4886098 8.6918537,9.636202 8.6439688,9.795855 c 0.6798833,0.03228 1.2047256,0.249411 1.5599062,0.669418 0.0361,0.04782 0.0361,0.04782 0.01263,-0.238176 0,-0.06169 0.0092,-0.119797 0.02346,-0.175925 -0.01244,-0.01554 -0.02322,-0.03275 -0.0361,-0.04781 C 9.8891464,9.631186 9.4400452,9.4196422 8.8704216,9.3519831 Z M 7.2491656,9.587452 c -0.2014044,0.106559 -0.3758229,0.245257 -0.5241792,0.415903 -0.1439858,0.167142 -0.2607223,0.363638 -0.3518581,0.588222 0.037167,0.08241 0.069278,0.169361 0.098339,0.259827 0.072641,-0.141573 0.1554149,-0.272251 0.2535189,-0.386131 C 6.9312233,10.228046 7.1902965,10.054523 7.4990754,9.941105 7.4239454,9.817207 7.3413315,9.698835 7.2491656,9.587452 Z"
     id="path12" />
  <metadata
     id="metadata25">
    <rdf:RDF>
      <cc:Work
         rdf:about="">
        <dc:creator>
          <cc:Agent>
            <dc:title>dreifacherspass</dc:title>
          </cc:Agent>
        </dc:creator>
        <cc:license
           rdf:resource="http://creativecommons.org/licenses/by-sa/4.0/" />
      </cc:Work>
      <cc:License
         rdf:about="http://creativecommons.org/licenses/by-sa/4.0/">
        <cc:permits
           rdf:resource="http://creativecommons.org/ns#Reproduction" />
        <cc:permits
           rdf:resource="http://creativecommons.org/ns#Distribution" />
        <cc:requires
           rdf:resource="http://creativecommons.org/ns#Notice" />
        <cc:requires
           rdf:resource="http://creativecommons.org/ns#Attribution" />
        <cc:permits
           rdf:resource="http://creativecommons.org/ns#DerivativeWorks" />
        <cc:requires
           rdf:resource="http://creativecommons.org/ns#ShareAlike" />
      </cc:License>
    </rdf:RDF>
  </metadata>
</svg>
