<?xml version="1.0" encoding="UTF-8" standalone="no"?>
<svg
   width="16"
   height="16"
   version="1.1"
   id="svg9"
   xmlns:xlink="http://www.w3.org/1999/xlink"
   xmlns="http://www.w3.org/2000/svg"
   xmlns:svg="http://www.w3.org/2000/svg"
   xmlns:rdf="http://www.w3.org/1999/02/22-rdf-syntax-ns#"
   xmlns:cc="http://creativecommons.org/ns#"
   xmlns:dc="http://purl.org/dc/elements/1.1/">
  <defs>
   <style id="current-color-scheme" type="text/css">
   .ColorScheme-Text { color: #0abdc6; } .ColorScheme-Highlight { color:#5294e2; }
  </style>
  <linearGradient id="arrongin" x1="0%" x2="0%" y1="0%" y2="100%">
   <stop offset="0%" style="stop-color:#dd9b44; stop-opacity:1"/>
   <stop offset="100%" style="stop-color:#ad6c16; stop-opacity:1"/>
  </linearGradient>
  <linearGradient id="aurora" x1="0%" x2="0%" y1="0%" y2="100%">
   <stop offset="0%" style="stop-color:#09D4DF; stop-opacity:1"/>
   <stop offset="100%" style="stop-color:#9269F4; stop-opacity:1"/>
  </linearGradient>
  <linearGradient id="cyberneon" x1="0%" x2="0%" y1="0%" y2="100%">
    <stop offset="0" style="stop-color:#0abdc6; stop-opacity:1"/>
    <stop offset="1" style="stop-color:#ea00d9; stop-opacity:1"/>
  </linearGradient>
  <linearGradient id="fitdance" x1="0%" x2="0%" y1="0%" y2="100%">
   <stop offset="0%" style="stop-color:#1AD6AB; stop-opacity:1"/>
   <stop offset="100%" style="stop-color:#329DB6; stop-opacity:1"/>
  </linearGradient>
  <linearGradient id="oomox" x1="0%" x2="0%" y1="0%" y2="100%">
   <stop offset="0%" style="stop-color:#0abdc6; stop-opacity:1"/>
   <stop offset="100%" style="stop-color:#b800ff; stop-opacity:1"/>
  </linearGradient>
  <linearGradient id="rainblue" x1="0%" x2="0%" y1="0%" y2="100%">
   <stop offset="0%" style="stop-color:#00F260; stop-opacity:1"/>
   <stop offset="100%" style="stop-color:#0575E6; stop-opacity:1"/>
  </linearGradient>
  <linearGradient id="sunrise" x1="0%" x2="0%" y1="0%" y2="100%">
   <stop offset="0%" style="stop-color: #FF8501; stop-opacity:1"/>
   <stop offset="100%" style="stop-color: #FFCB01; stop-opacity:1"/>
  </linearGradient>
  <linearGradient id="telinkrin" x1="0%" x2="0%" y1="0%" y2="100%">
   <stop offset="0%" style="stop-color: #b2ced6; stop-opacity:1"/>
   <stop offset="100%" style="stop-color: #6da5b7; stop-opacity:1"/>
  </linearGradient>
  <linearGradient id="60spsycho" x1="0%" x2="0%" y1="0%" y2="100%">
   <stop offset="0%" style="stop-color: #df5940; stop-opacity:1"/>
   <stop offset="25%" style="stop-color: #d8d15f; stop-opacity:1"/>
   <stop offset="50%" style="stop-color: #e9882a; stop-opacity:1"/>
   <stop offset="100%" style="stop-color: #279362; stop-opacity:1"/>
  </linearGradient>
  <linearGradient id="90ssummer" x1="0%" x2="0%" y1="0%" y2="100%">
   <stop offset="0%" style="stop-color: #f618c7; stop-opacity:1"/>
   <stop offset="20%" style="stop-color: #94ffab; stop-opacity:1"/>
   <stop offset="50%" style="stop-color: #fbfd54; stop-opacity:1"/>
   <stop offset="100%" style="stop-color: #0f83ae; stop-opacity:1"/>
  </linearGradient>
 </defs>
  <path
     id="rect2"
     class="ColorScheme-Text"
     style="fill:url(#oomox);opacity:0.7;stroke-width:0.390244"
     d="M 2.1464844 1.1699219 C 1.7140957 1.1699219 1.3652344 1.5187832 1.3652344 1.9511719 L 1.3652344 10.927734 L 9.0136719 10.927734 C 9.3163448 10.927734 9.5605469 11.169983 9.5605469 11.472656 L 9.5605469 14.283203 C 9.5605469 14.585876 9.3163448 14.830078 9.0136719 14.830078 L 1.3652344 14.830078 L 1.3652344 15.21875 C 1.3652344 15.65114 1.7140957 16 2.1464844 16 L 15.023438 16 C 15.455824 16 15.804687 15.65114 15.804688 15.21875 L 15.804688 1.9511719 C 15.804688 1.5187832 15.455824 1.1699219 15.023438 1.1699219 L 14.634766 1.1699219 L 14.634766 9.2089844 C 14.634766 9.5116229 14.390528 9.7558594 14.087891 9.7558594 L 11.277344 9.7558594 C 10.974705 9.7558594 10.732422 9.5116229 10.732422 9.2089844 L 10.732422 1.1699219 L 2.1464844 1.1699219 z M 3.0820312 2.3417969 L 9.0136719 2.3417969 C 9.31611 2.3417969 9.5605469 2.5863118 9.5605469 2.8886719 L 9.5605469 9.2089844 C 9.5605469 9.5114225 9.31611 9.7558594 9.0136719 9.7558594 L 3.0820312 9.7558594 C 2.7795934 9.7558594 2.5371094 9.5114225 2.5371094 9.2089844 L 2.5371094 5.4628906 L 7.609375 5.4628906 L 7.609375 3.5117188 L 2.5371094 3.5117188 L 2.5371094 2.8886719 C 2.5371094 2.5863118 2.7795934 2.3417969 3.0820312 2.3417969 z M 3.7070312 6.6347656 L 3.7070312 8.5859375 L 7.609375 8.5859375 L 7.609375 6.6347656 L 3.7070312 6.6347656 z M 11.277344 10.927734 L 14.087891 10.927734 C 14.390561 10.927734 14.634766 11.169986 14.634766 11.472656 L 14.634766 14.283203 C 14.634766 14.585876 14.390561 14.830078 14.087891 14.830078 L 11.277344 14.830078 C 10.974671 14.830078 10.732422 14.585876 10.732422 14.283203 L 10.732422 11.472656 C 10.732422 11.169986 10.974671 10.927734 11.277344 10.927734 z " />
  <rect
     style="fill:url(#oomox);stroke-width:0.390244"
     width="3.9024391"
     height="9.7560978"
     x="10.731708"
     y="-1.184465e-07"
     rx="0.54634148"
     ry="0.54634148"
     id="rect4"
     class="ColorScheme-Text"/>
  <rect
     style="fill:url(#oomox);stroke-width:0.390244"
     width="9.3658543"
     height="3.9024391"
     x="0.19512165"
     y="10.926829"
     rx="0.54634148"
     ry="0.54634148"
     id="rect6"
     class="ColorScheme-Text"/>
  <metadata
     id="metadata9">
    <rdf:RDF>
      <cc:Work
         rdf:about="">
        <dc:creator>
          <cc:Agent>
            <dc:title>dreifacherspass</dc:title>
          </cc:Agent>
        </dc:creator>
        <cc:license
           rdf:resource="http://creativecommons.org/licenses/by-sa/4.0/" />
      </cc:Work>
      <cc:License
         rdf:about="http://creativecommons.org/licenses/by-sa/4.0/">
        <cc:permits
           rdf:resource="http://creativecommons.org/ns#Reproduction" />
        <cc:permits
           rdf:resource="http://creativecommons.org/ns#Distribution" />
        <cc:requires
           rdf:resource="http://creativecommons.org/ns#Notice" />
        <cc:requires
           rdf:resource="http://creativecommons.org/ns#Attribution" />
        <cc:permits
           rdf:resource="http://creativecommons.org/ns#DerivativeWorks" />
        <cc:requires
           rdf:resource="http://creativecommons.org/ns#ShareAlike" />
      </cc:License>
    </rdf:RDF>
  </metadata>
</svg>
