<?xml version="1.0" encoding="UTF-8" standalone="no"?>
<svg
   width="16"
   height="16"
   version="1.1"
   id="svg6"
   xmlns="http://www.w3.org/2000/svg"
   xmlns:svg="http://www.w3.org/2000/svg"
   xmlns:rdf="http://www.w3.org/1999/02/22-rdf-syntax-ns#"
   xmlns:cc="http://creativecommons.org/ns#"
   xmlns:dc="http://purl.org/dc/elements/1.1/">
  <defs>
   <style id="current-color-scheme" type="text/css">
   .ColorScheme-Text { color: #0abdc6; } .ColorScheme-Highlight { color:#5294e2; }
  </style>
  <linearGradient id="arrongin" x1="0%" x2="0%" y1="0%" y2="100%">
   <stop offset="0%" style="stop-color:#dd9b44; stop-opacity:1"/>
   <stop offset="100%" style="stop-color:#ad6c16; stop-opacity:1"/>
  </linearGradient>
  <linearGradient id="aurora" x1="0%" x2="0%" y1="0%" y2="100%">
   <stop offset="0%" style="stop-color:#09D4DF; stop-opacity:1"/>
   <stop offset="100%" style="stop-color:#9269F4; stop-opacity:1"/>
  </linearGradient>
  <linearGradient id="cyberneon" x1="0%" x2="0%" y1="0%" y2="100%">
    <stop offset="0" style="stop-color:#0abdc6; stop-opacity:1"/>
    <stop offset="1" style="stop-color:#ea00d9; stop-opacity:1"/>
  </linearGradient>
  <linearGradient id="fitdance" x1="0%" x2="0%" y1="0%" y2="100%">
   <stop offset="0%" style="stop-color:#1AD6AB; stop-opacity:1"/>
   <stop offset="100%" style="stop-color:#329DB6; stop-opacity:1"/>
  </linearGradient>
  <linearGradient id="oomox" x1="0%" x2="0%" y1="0%" y2="100%">
   <stop offset="0%" style="stop-color:#0abdc6; stop-opacity:1"/>
   <stop offset="100%" style="stop-color:#b800ff; stop-opacity:1"/>
  </linearGradient>
  <linearGradient id="rainblue" x1="0%" x2="0%" y1="0%" y2="100%">
   <stop offset="0%" style="stop-color:#00F260; stop-opacity:1"/>
   <stop offset="100%" style="stop-color:#0575E6; stop-opacity:1"/>
  </linearGradient>
  <linearGradient id="sunrise" x1="0%" x2="0%" y1="0%" y2="100%">
   <stop offset="0%" style="stop-color: #FF8501; stop-opacity:1"/>
   <stop offset="100%" style="stop-color: #FFCB01; stop-opacity:1"/>
  </linearGradient>
  <linearGradient id="telinkrin" x1="0%" x2="0%" y1="0%" y2="100%">
   <stop offset="0%" style="stop-color: #b2ced6; stop-opacity:1"/>
   <stop offset="100%" style="stop-color: #6da5b7; stop-opacity:1"/>
  </linearGradient>
  <linearGradient id="60spsycho" x1="0%" x2="0%" y1="0%" y2="100%">
   <stop offset="0%" style="stop-color: #df5940; stop-opacity:1"/>
   <stop offset="25%" style="stop-color: #d8d15f; stop-opacity:1"/>
   <stop offset="50%" style="stop-color: #e9882a; stop-opacity:1"/>
   <stop offset="100%" style="stop-color: #279362; stop-opacity:1"/>
  </linearGradient>
  <linearGradient id="90ssummer" x1="0%" x2="0%" y1="0%" y2="100%">
   <stop offset="0%" style="stop-color: #f618c7; stop-opacity:1"/>
   <stop offset="20%" style="stop-color: #94ffab; stop-opacity:1"/>
   <stop offset="50%" style="stop-color: #fbfd54; stop-opacity:1"/>
   <stop offset="100%" style="stop-color: #0f83ae; stop-opacity:1"/>
  </linearGradient>
 </defs>
  <path
     id="circle2"
     class="ColorScheme-Text"
     style="opacity:0.8;display:inline;fill:url(#oomox);stroke-width:0.390243"
     d="M 8.0975609,8.298815e-8 A 7.8048779,7.8048779 0 0 0 0.292683,7.804878 7.8048779,7.8048779 0 0 0 8.0975609,15.609756 7.8048779,7.8048779 0 0 0 15.902439,7.804878 7.8048779,7.8048779 0 0 0 8.0975609,8.298815e-8 Z m 0,1.56097551701185 A 6.2439024,6.2439024 0 0 1 14.341463,7.804878 6.2439024,6.2439024 0 0 1 8.0975609,14.048781 6.2439024,6.2439024 0 0 1 1.8536586,7.804878 6.2439024,6.2439024 0 0 1 8.0975609,1.5609756 Z" />
  <path
     id="circle4"
     class="ColorScheme-Text"
     style="display:inline;opacity:0.2;fill:url(#oomox);stroke-width:0.390243"
     d="M 14.341463,7.804878 A 6.2439024,6.2439024 0 0 1 8.0975609,14.048781 6.2439024,6.2439024 0 0 1 1.8536586,7.804878 6.2439024,6.2439024 0 0 1 8.0975609,1.5609756 6.2439024,6.2439024 0 0 1 14.341463,7.804878 Z" />
  <path
     d="m 13.428773,15.075417 c -1.595861,-1.364569 -1.702937,-1.570452 -3.392593,-2.821712 -0.295861,-0.122615 -0.348283,0.04027 -0.7033685,0.246616 -1.3698633,0.796052 -1.6278942,0.942073 -2.3025748,0.942073 -0.5742426,0 -0.738188,-0.04317 -1.3103706,-0.345021 C 5.3601615,12.907612 5.0042754,12.663998 4.9290085,12.556008 4.4746172,11.904073 4.3094127,11.631389 4.0010268,11.024296 3.8120748,10.652322 3.6341367,10.165094 3.605609,9.9415656 3.577081,9.7180373 3.4792407,9.3858824 3.388185,9.2034432 3.2971298,9.0210037 3.1100663,8.427856 2.9724887,7.885337 2.775346,7.1079335 2.7348359,6.622393 2.7812908,6.1745186 2.855818,5.4560055 2.6346071,5.1812375 2.0762162,4.6239242 1.5543168,4.1030322 0.47322035,2.4980146 0.21205466,1.9166495 -0.01201314,1.4178659 0.11899726,1.1594852 0.37917196,1.5870589 1.1893642,2.9185364 2.1056601,4.1034887 2.7730615,4.4961471 c 0.3941101,0.2318694 0.42848,0.1577414 1.0518627,0.045901 1.1013971,-0.1976027 2.9620072,0.022213 3.5430192,0.41856 0.1972667,0.1345706 0.4132272,0.2446773 0.479912,0.2446773 0.066685,0 0.3613917,0.084736 0.6549024,0.1883013 0.2935107,0.1035654 0.6342443,0.1883014 0.7571867,0.1883014 0.3336845,0 0.9559365,0.2523306 1.1181955,0.5207978 0.07888,0.130504 0.35009,0.3738787 0.602698,0.540832 0.37179,0.2457227 0.526233,0.4380747 0.810694,1.0096798 0.398326,0.8004061 0.42169,1.064972 0.21239,1.7725219 -0.112455,0.3801637 -0.273245,0.6280474 -0.652185,1.0054484 -0.657539,0.654867 -0.894216,1.004649 -0.514445,1.555833 0.442671,0.642471 0.922206,0.928219 2.41732,2.256261 0.772699,0.686355 1.429108,1.311229 1.458687,1.388613 0.223534,0.584808 -0.254411,0.377761 -1.284526,-0.556458 z"
     id="path5"
     style="display:inline;fill:#000000;opacity:0.7;stroke-width:0.0939661" />
  <path
     style="display:inline;fill:url(#oomox);stroke-width:0.0939661"
     d="m 14.368746,14.726042 c -1.595861,-1.364569 -2.193358,-2.183479 -3.883014,-3.434739 -0.295861,-0.122614 -0.348283,0.04027 -0.703367,0.246616 -1.3698639,0.796052 -1.6278948,0.942073 -2.3025754,0.942073 -0.5742426,0 -0.738188,-0.04317 -1.3103706,-0.345021 C 5.8097144,11.94521 5.4538283,11.701596 5.3785614,11.593606 4.9241701,10.941671 4.7589656,10.668987 4.4505797,10.061894 4.2616277,9.6899203 4.0836896,9.202692 4.0551619,8.9791638 4.0266339,8.7556358 3.9287936,8.4234808 3.8377379,8.2410414 3.7466827,8.0586019 3.5596192,7.4654542 3.4220416,6.9229352 3.2248989,6.145532 3.1843888,5.6599912 3.2308437,5.2121171 3.3053709,4.4936037 3.08416,4.2188357 2.5257691,3.6615224 2.0038697,3.1406304 0.47322037,1.1269284 0.21205467,0.54556326 -0.01201313,0.04677968 0.11899727,-0.21160109 0.37917187,0.21597269 1.1893641,1.5474502 2.555213,3.1410869 3.2226144,3.5337453 c 0.3941101,0.2318694 0.42848,0.1577414 1.0518627,0.045901 1.1013971,-0.1976027 2.9620072,0.022213 3.5430192,0.41856 0.1972667,0.1345733 0.4132272,0.2446773 0.479912,0.2446773 0.066685,0 0.3613917,0.084736 0.6549024,0.1883013 0.2935107,0.1035654 0.6342443,0.1883014 0.7571873,0.1883014 0.333683,0 0.955935,0.2523306 1.118194,0.5207981 0.07888,0.130504 0.35009,0.3738784 0.602698,0.5408317 0.37179,0.2457227 0.526233,0.4380747 0.810694,1.0096798 0.398326,0.8004061 0.42169,1.064972 0.21239,1.7725221 -0.112455,0.3801635 -0.273245,0.6280472 -0.652185,1.0054483 -0.657539,0.6548667 -0.894216,1.0046487 -0.514445,1.5558327 0.442671,0.642471 1.412627,1.541247 2.907741,2.869288 0.772699,0.686355 1.429108,1.31123 1.458687,1.388613 0.223534,0.584808 -0.254411,0.377761 -1.284526,-0.556458 z"
     id="path6"
     class="ColorScheme-Text"/>
  <metadata
     id="metadata12">
    <rdf:RDF>
      <cc:Work
         rdf:about="">
        <dc:creator>
          <cc:Agent>
            <dc:title>dreifacherspass</dc:title>
          </cc:Agent>
        </dc:creator>
      </cc:Work>
    </rdf:RDF>
  </metadata>
</svg>
