<?xml version="1.0" encoding="UTF-8" standalone="no"?>
<svg
   height="16"
   width="16"
   version="1.1"
   id="Layer_1"
   viewBox="0 0 10.24002 10.24002"
   xml:space="preserve"
   xmlns="http://www.w3.org/2000/svg"
   xmlns:svg="http://www.w3.org/2000/svg"
   xmlns:rdf="http://www.w3.org/1999/02/22-rdf-syntax-ns#"
   xmlns:cc="http://creativecommons.org/ns#"
   xmlns:dc="http://purl.org/dc/elements/1.1/">
  <defs>
   <style id="current-color-scheme" type="text/css">
   .ColorScheme-Text { color: #0abdc6; } .ColorScheme-Highlight { color:#5294e2; }
  </style>
  <linearGradient id="arrongin" x1="0%" x2="0%" y1="0%" y2="100%">
   <stop offset="0%" style="stop-color:#dd9b44; stop-opacity:1"/>
   <stop offset="100%" style="stop-color:#ad6c16; stop-opacity:1"/>
  </linearGradient>
  <linearGradient id="aurora" x1="0%" x2="0%" y1="0%" y2="100%">
   <stop offset="0%" style="stop-color:#09D4DF; stop-opacity:1"/>
   <stop offset="100%" style="stop-color:#9269F4; stop-opacity:1"/>
  </linearGradient>
  <linearGradient id="cyberneon" x1="0%" x2="0%" y1="0%" y2="100%">
    <stop offset="0" style="stop-color:#0abdc6; stop-opacity:1"/>
    <stop offset="1" style="stop-color:#ea00d9; stop-opacity:1"/>
  </linearGradient>
  <linearGradient id="fitdance" x1="0%" x2="0%" y1="0%" y2="100%">
   <stop offset="0%" style="stop-color:#1AD6AB; stop-opacity:1"/>
   <stop offset="100%" style="stop-color:#329DB6; stop-opacity:1"/>
  </linearGradient>
  <linearGradient id="oomox" x1="0%" x2="0%" y1="0%" y2="100%">
   <stop offset="0%" style="stop-color:#0abdc6; stop-opacity:1"/>
   <stop offset="100%" style="stop-color:#b800ff; stop-opacity:1"/>
  </linearGradient>
  <linearGradient id="rainblue" x1="0%" x2="0%" y1="0%" y2="100%">
   <stop offset="0%" style="stop-color:#00F260; stop-opacity:1"/>
   <stop offset="100%" style="stop-color:#0575E6; stop-opacity:1"/>
  </linearGradient>
  <linearGradient id="sunrise" x1="0%" x2="0%" y1="0%" y2="100%">
   <stop offset="0%" style="stop-color: #FF8501; stop-opacity:1"/>
   <stop offset="100%" style="stop-color: #FFCB01; stop-opacity:1"/>
  </linearGradient>
  <linearGradient id="telinkrin" x1="0%" x2="0%" y1="0%" y2="100%">
   <stop offset="0%" style="stop-color: #b2ced6; stop-opacity:1"/>
   <stop offset="100%" style="stop-color: #6da5b7; stop-opacity:1"/>
  </linearGradient>
  <linearGradient id="60spsycho" x1="0%" x2="0%" y1="0%" y2="100%">
   <stop offset="0%" style="stop-color: #df5940; stop-opacity:1"/>
   <stop offset="25%" style="stop-color: #d8d15f; stop-opacity:1"/>
   <stop offset="50%" style="stop-color: #e9882a; stop-opacity:1"/>
   <stop offset="100%" style="stop-color: #279362; stop-opacity:1"/>
  </linearGradient>
  <linearGradient id="90ssummer" x1="0%" x2="0%" y1="0%" y2="100%">
   <stop offset="0%" style="stop-color: #f618c7; stop-opacity:1"/>
   <stop offset="20%" style="stop-color: #94ffab; stop-opacity:1"/>
   <stop offset="50%" style="stop-color: #fbfd54; stop-opacity:1"/>
   <stop offset="100%" style="stop-color: #0f83ae; stop-opacity:1"/>
  </linearGradient>
 </defs><path
   id="path1"
   style="fill:url(#oomox)"
   class="ColorScheme-Text"
   d="M 471.81251 0.062500185 C 461.07652 0.062500185 450.96707 4.2840427 443.37508 11.875035 C 427.7031 27.546019 427.7031 53.014719 443.37508 68.687703 C 459.04706 84.358687 484.57795 84.358687 500.24994 68.687703 C 507.84193 61.09571 511.99991 51.048608 511.99991 40.312619 C 511.99991 29.57663 507.84093 19.468027 500.24994 11.875035 C 492.65894 4.2830427 482.5485 0.062500185 471.81251 0.062500185 z M 406.75017 68.750203 C 405.88017 68.778445 404.96305 69.090208 404.25018 69.750206 L 274.75051 187.68805 L 325.56288 233.62569 L 440.31259 106.75032 C 442.02459 104.88932 441.47909 101.9463 439.25009 100.7503 C 433.50311 97.662302 428.09513 93.657752 423.25013 88.812762 C 417.86615 83.427774 413.59416 77.406697 410.37516 70.937709 C 409.65393 69.487713 408.20018 68.703133 406.75017 68.750203 z M 182.87574 271.4383 L 16.126169 423.25125 C -4.9487892 443.08921 -5.4647878 476.41051 15.001172 496.87647 C 35.50413 517.37943 68.933024 516.85492 88.750984 495.68896 L 237.37561 331.25098 L 182.87574 271.4383 z "
   transform="matrix(0.02000009,0,0,0.01999998,-2.4197434e-5,0)" />
   <path
   id="path6"
   style="fill:url(#oomox)"
   class="ColorScheme-Text"
   d="M 40.313607 0 C 29.577618 0 19.468172 4.1590423 11.87618 11.750035 C 4.2831872 19.341027 0.063709707 29.451629 0.063709707 40.187619 C 0.063709707 50.923608 4.2851872 61.03321 11.87618 68.625203 C 27.548164 84.297187 53.015551 84.297187 68.688535 68.625203 C 84.359519 52.953218 84.359519 27.422019 68.688535 11.750035 C 61.096543 4.1590423 51.049596 2.3684804e-15 40.313607 0 z M 103.50095 70.750209 C 102.38307 70.950709 101.34945 71.635716 100.75095 72.750215 C 97.662956 78.497209 93.658479 83.905267 88.813484 88.750262 C 83.429489 94.133257 77.407523 98.406303 70.938529 101.6253 C 68.618532 102.7793 67.991034 105.84832 69.751032 107.75032 L 423.25013 495.87646 C 443.08811 516.95344 476.40896 517.46745 496.87494 497.00147 C 517.37692 476.49749 516.85243 443.06923 495.68745 423.25125 L 106.75094 71.687712 C 105.81994 70.831213 104.61882 70.549709 103.50095 70.750209 z "
   transform="matrix(0.02000009,0,0,0.01999998,-2.4197434e-5,0)" />
   <metadata
   id="metadata26"><rdf:RDF><cc:Work
       rdf:about=""><dc:creator><cc:Agent><dc:title>dreifacherspass</dc:title></cc:Agent></dc:creator><cc:license
         rdf:resource="http://creativecommons.org/licenses/by-sa/4.0/" /></cc:Work><cc:License
       rdf:about="http://creativecommons.org/licenses/by-sa/4.0/"><cc:permits
         rdf:resource="http://creativecommons.org/ns#Reproduction" /><cc:permits
         rdf:resource="http://creativecommons.org/ns#Distribution" /><cc:requires
         rdf:resource="http://creativecommons.org/ns#Notice" /><cc:requires
         rdf:resource="http://creativecommons.org/ns#Attribution" /><cc:permits
         rdf:resource="http://creativecommons.org/ns#DerivativeWorks" /><cc:requires
         rdf:resource="http://creativecommons.org/ns#ShareAlike" /></cc:License></rdf:RDF></metadata></svg>
