<?xml version="1.0" encoding="UTF-8" standalone="no"?>
<svg
   width="16"
   height="16"
   viewBox="0 0 16 16"
   version="1.1"
   id="svg35"
   xmlns:xlink="http://www.w3.org/1999/xlink"
   xmlns="http://www.w3.org/2000/svg"
   xmlns:svg="http://www.w3.org/2000/svg"
   xmlns:rdf="http://www.w3.org/1999/02/22-rdf-syntax-ns#"
   xmlns:cc="http://creativecommons.org/ns#"
   xmlns:dc="http://purl.org/dc/elements/1.1/">
  <defs
     id="defs39">
    <linearGradient
       id="linearGradient2284"
       gradientTransform="matrix(0.20549929,0,0,0.07651597,0,-0.10150496)"
       x1="0"
       y1="132.57439"
       x2="77.858536"
       y2="132.57439"
       gradientUnits="userSpaceOnUse">
      <stop
         style="stop-color:#41ff00;stop-opacity:1;"
         offset="0"
         id="stop2280" />
      <stop
         style="stop-color:#e7ff00;stop-opacity:1;"
         offset="1"
         id="stop2282" />
    </linearGradient>
   <style id="current-color-scheme" type="text/css">
   .ColorScheme-Text { color: #0abdc6; } .ColorScheme-Highlight { color:#5294e2; }
  </style>
  <linearGradient id="arrongin" x1="0%" x2="0%" y1="0%" y2="100%">
   <stop offset="0%" style="stop-color:#dd9b44; stop-opacity:1"/>
   <stop offset="100%" style="stop-color:#ad6c16; stop-opacity:1"/>
  </linearGradient>
  <linearGradient id="aurora" x1="0%" x2="0%" y1="0%" y2="100%">
   <stop offset="0%" style="stop-color:#09D4DF; stop-opacity:1"/>
   <stop offset="100%" style="stop-color:#9269F4; stop-opacity:1"/>
  </linearGradient>
  <linearGradient id="cyberneon" x1="0%" x2="0%" y1="0%" y2="100%">
    <stop offset="0" style="stop-color:#0abdc6; stop-opacity:1"/>
    <stop offset="1" style="stop-color:#ea00d9; stop-opacity:1"/>
  </linearGradient>
  <linearGradient id="fitdance" x1="0%" x2="0%" y1="0%" y2="100%">
   <stop offset="0%" style="stop-color:#1AD6AB; stop-opacity:1"/>
   <stop offset="100%" style="stop-color:#329DB6; stop-opacity:1"/>
  </linearGradient>
  <linearGradient id="oomox" x1="0%" x2="0%" y1="0%" y2="100%">
   <stop offset="0%" style="stop-color:#0abdc6; stop-opacity:1"/>
   <stop offset="100%" style="stop-color:#b800ff; stop-opacity:1"/>
  </linearGradient>
  <linearGradient id="rainblue" x1="0%" x2="0%" y1="0%" y2="100%">
   <stop offset="0%" style="stop-color:#00F260; stop-opacity:1"/>
   <stop offset="100%" style="stop-color:#0575E6; stop-opacity:1"/>
  </linearGradient>
  <linearGradient id="sunrise" x1="0%" x2="0%" y1="0%" y2="100%">
   <stop offset="0%" style="stop-color: #FF8501; stop-opacity:1"/>
   <stop offset="100%" style="stop-color: #FFCB01; stop-opacity:1"/>
  </linearGradient>
  <linearGradient id="telinkrin" x1="0%" x2="0%" y1="0%" y2="100%">
   <stop offset="0%" style="stop-color: #b2ced6; stop-opacity:1"/>
   <stop offset="100%" style="stop-color: #6da5b7; stop-opacity:1"/>
  </linearGradient>
  <linearGradient id="60spsycho" x1="0%" x2="0%" y1="0%" y2="100%">
   <stop offset="0%" style="stop-color: #df5940; stop-opacity:1"/>
   <stop offset="25%" style="stop-color: #d8d15f; stop-opacity:1"/>
   <stop offset="50%" style="stop-color: #e9882a; stop-opacity:1"/>
   <stop offset="100%" style="stop-color: #279362; stop-opacity:1"/>
  </linearGradient>
  <linearGradient id="90ssummer" x1="0%" x2="0%" y1="0%" y2="100%">
   <stop offset="0%" style="stop-color: #f618c7; stop-opacity:1"/>
   <stop offset="20%" style="stop-color: #94ffab; stop-opacity:1"/>
   <stop offset="50%" style="stop-color: #fbfd54; stop-opacity:1"/>
   <stop offset="100%" style="stop-color: #0f83ae; stop-opacity:1"/>
  </linearGradient>
 </defs>
  <path
     id="3"
     class="ColorScheme-Text"
     style="display:inline;fill:url(#oomox);fill-opacity:1;stroke-width:0.13333"
     d="M 8.0000006,0 C 5.9526492,0 3.9053089,0.78120694 2.3433452,2.3434276 c -3.12446026,3.1239082 -3.12446026,8.1893334 0,11.3132434 3.1239273,3.124439 8.1893838,3.124439 11.3133118,0 3.124457,-3.12391 3.124457,-8.1893352 0,-11.3132434 C 12.094692,0.78120694 10.047353,0 8.0000006,0 Z M 7.99949,2.7996656 c 0.2947799,0 0.5333226,0.2385411 0.5333226,0.5333192 v 9.5997462 c 0,0.294779 -0.2385427,0.53332 -0.5333226,0.53332 -0.2947799,0 -0.5333226,-0.238541 -0.5333226,-0.53332 V 3.3329848 c 0,-0.2947781 0.2385427,-0.5333192 0.5333226,-0.5333192 z M 4.799555,3.866304 c 0.2947803,0 0.5333226,0.2385409 0.5333226,0.5333195 v 7.4664695 c 0,0.294778 -0.2385423,0.533319 -0.5333226,0.533319 -0.2947799,0 -0.5333222,-0.238541 -0.5333222,-0.533319 V 4.3996235 c 0,-0.2947786 0.2385423,-0.5333195 0.5333222,-0.5333195 z m 6.39987,0 c 0.29478,0 0.533322,0.2385409 0.533322,0.5333195 v 7.4664695 c 0,0.294778 -0.238542,0.533319 -0.533322,0.533319 -0.294781,0 -0.533323,-0.238541 -0.533323,-0.533319 V 4.3996235 c 0,-0.2947786 0.238542,-0.5333195 0.533323,-0.5333195 z" />
  <path
     d="m 5.8661899,8.5328473 c 0,0.5890512 -0.4775901,1.0666383 -1.0666447,1.0666383 -0.5890547,0 -1.0666451,-0.4775871 -1.0666451,-1.0666383 0,-0.5890513 0.4775904,-1.0666387 1.0666451,-1.0666387 0.5890546,0 1.0666447,0.4775874 1.0666447,1.0666387 z"
     fill="#241f31"
     fill-opacity="0.3"
     id="path19"
     style="display:inline;stroke-width:0.13333" />
  <path
     d="m 9.0661245,6.1329106 c 0,0.5890512 -0.4775901,1.0666386 -1.0666447,1.0666386 -0.5890546,0 -1.0666448,-0.4775874 -1.0666448,-1.0666386 0,-0.5890509 0.4775902,-1.0666383 1.0666448,-1.0666383 0.5890546,0 1.0666447,0.4775874 1.0666447,1.0666383 z"
     fill="#241f31"
     fill-opacity="0.3"
     id="path21"
     style="display:inline;stroke-width:0.13333" />
  <path
     d="m 12.26606,8.9074471 c 0,0.5890509 -0.477591,1.0666383 -1.066646,1.0666383 -0.589054,0 -1.066644,-0.4775874 -1.066644,-1.0666383 0,-0.5890512 0.47759,-1.0666386 1.066644,-1.0666386 0.589055,0 1.066646,0.4775874 1.066646,1.0666386 z"
     fill="#241f31"
     fill-opacity="0.3"
     id="path23"
     style="display:inline;stroke-width:0.13333" />
  <path
     d="m 5.8661899,8.1328578 c 0,0.5890513 -0.4775901,1.0666383 -1.0666447,1.0666383 -0.5890547,0 -1.0666451,-0.477587 -1.0666451,-1.0666383 0,-0.5890512 0.4775904,-1.0666386 1.0666451,-1.0666386 0.5890546,0 1.0666447,0.4775874 1.0666447,1.0666386 z"
     id="path27"
     class="ColorScheme-Text"
     style="fill:url(#oomox);fill-opacity:1;stroke-width:0.13333" />
  <path
     d="m 9.0661245,5.7329212 c 0,0.5890512 -0.4775901,1.0666386 -1.0666447,1.0666386 -0.5890546,0 -1.0666448,-0.4775874 -1.0666448,-1.0666386 0,-0.5890509 0.4775902,-1.0666383 1.0666448,-1.0666383 0.5890546,0 1.0666447,0.4775874 1.0666447,1.0666383 z"
     id="path29"
     class="ColorScheme-Text"
     style="fill:url(#oomox);fill-opacity:1;stroke-width:0.13333" />
  <path
     d="m 12.26606,8.5074577 c 0,0.5890508 -0.477591,1.0666382 -1.066646,1.0666382 -0.589054,0 -1.066644,-0.4775874 -1.066644,-1.0666382 0,-0.5890513 0.47759,-1.0666387 1.066644,-1.0666387 0.589055,0 1.066646,0.4775874 1.066646,1.0666387 z"
     id="path31"
     class="ColorScheme-Text"
     style="fill:url(#oomox);fill-opacity:1;stroke-width:0.13333" />
  <path
     d="m 15.999875,10.042553 v 5.957422 H 0 v -5.957422 z"
     id="path359"
     style="display:inline;fill:url(#linearGradient2284);fill-opacity:1;stroke-width:0.125395" />
  <path
     d="m 1.663612,10.042553 5.9193286,5.957422 H 10.234795 L 4.3149661,10.042553 Z m 5.3027086,0 5.9203284,5.957422 h 2.651854 L 9.6181749,10.042553 Z m 5.3037084,0 L 16,13.79621 V 11.128019 L 14.921396,10.042566 Z M 1.2499745e-4,11.037096 v 2.668695 L 2.2798572,16 h 2.6518541 z"
     id="path361"
     style="display:inline;fill:#000000;fill-opacity:1;stroke-width:0.125395" />
  <metadata
     id="metadata1480">
    <rdf:RDF>
      <cc:Work
         rdf:about="">
        <dc:creator>
          <cc:Agent>
            <dc:title>dreifacherspass</dc:title>
          </cc:Agent>
        </dc:creator>
        <cc:license
           rdf:resource="http://creativecommons.org/licenses/by-sa/4.0/" />
      </cc:Work>
      <cc:License
         rdf:about="http://creativecommons.org/licenses/by-sa/4.0/">
        <cc:permits
           rdf:resource="http://creativecommons.org/ns#Reproduction" />
        <cc:permits
           rdf:resource="http://creativecommons.org/ns#Distribution" />
        <cc:requires
           rdf:resource="http://creativecommons.org/ns#Notice" />
        <cc:requires
           rdf:resource="http://creativecommons.org/ns#Attribution" />
        <cc:permits
           rdf:resource="http://creativecommons.org/ns#DerivativeWorks" />
        <cc:requires
           rdf:resource="http://creativecommons.org/ns#ShareAlike" />
      </cc:License>
    </rdf:RDF>
  </metadata>
</svg>
