<?xml version="1.0" encoding="UTF-8" standalone="no"?>
<svg
   width="16"
   height="16"
   viewBox="0 0 16 16"
   version="1.1"
   id="svg35"
   xmlns="http://www.w3.org/2000/svg"
   xmlns:svg="http://www.w3.org/2000/svg"
   xmlns:rdf="http://www.w3.org/1999/02/22-rdf-syntax-ns#"
   xmlns:cc="http://creativecommons.org/ns#"
   xmlns:dc="http://purl.org/dc/elements/1.1/">
  <defs>
   <style id="current-color-scheme" type="text/css">
   .ColorScheme-Text { color: #0abdc6; } .ColorScheme-Highlight { color:#5294e2; }
  </style>
  <linearGradient id="arrongin" x1="0%" x2="0%" y1="0%" y2="100%">
   <stop offset="0%" style="stop-color:#dd9b44; stop-opacity:1"/>
   <stop offset="100%" style="stop-color:#ad6c16; stop-opacity:1"/>
  </linearGradient>
  <linearGradient id="aurora" x1="0%" x2="0%" y1="0%" y2="100%">
   <stop offset="0%" style="stop-color:#09D4DF; stop-opacity:1"/>
   <stop offset="100%" style="stop-color:#9269F4; stop-opacity:1"/>
  </linearGradient>
  <linearGradient id="cyberneon" x1="0%" x2="0%" y1="0%" y2="100%">
    <stop offset="0" style="stop-color:#0abdc6; stop-opacity:1"/>
    <stop offset="1" style="stop-color:#ea00d9; stop-opacity:1"/>
  </linearGradient>
  <linearGradient id="fitdance" x1="0%" x2="0%" y1="0%" y2="100%">
   <stop offset="0%" style="stop-color:#1AD6AB; stop-opacity:1"/>
   <stop offset="100%" style="stop-color:#329DB6; stop-opacity:1"/>
  </linearGradient>
  <linearGradient id="oomox" x1="0%" x2="0%" y1="0%" y2="100%">
   <stop offset="0%" style="stop-color:#0abdc6; stop-opacity:1"/>
   <stop offset="100%" style="stop-color:#b800ff; stop-opacity:1"/>
  </linearGradient>
  <linearGradient id="rainblue" x1="0%" x2="0%" y1="0%" y2="100%">
   <stop offset="0%" style="stop-color:#00F260; stop-opacity:1"/>
   <stop offset="100%" style="stop-color:#0575E6; stop-opacity:1"/>
  </linearGradient>
  <linearGradient id="sunrise" x1="0%" x2="0%" y1="0%" y2="100%">
   <stop offset="0%" style="stop-color: #FF8501; stop-opacity:1"/>
   <stop offset="100%" style="stop-color: #FFCB01; stop-opacity:1"/>
  </linearGradient>
  <linearGradient id="telinkrin" x1="0%" x2="0%" y1="0%" y2="100%">
   <stop offset="0%" style="stop-color: #b2ced6; stop-opacity:1"/>
   <stop offset="100%" style="stop-color: #6da5b7; stop-opacity:1"/>
  </linearGradient>
  <linearGradient id="60spsycho" x1="0%" x2="0%" y1="0%" y2="100%">
   <stop offset="0%" style="stop-color: #df5940; stop-opacity:1"/>
   <stop offset="25%" style="stop-color: #d8d15f; stop-opacity:1"/>
   <stop offset="50%" style="stop-color: #e9882a; stop-opacity:1"/>
   <stop offset="100%" style="stop-color: #279362; stop-opacity:1"/>
  </linearGradient>
  <linearGradient id="90ssummer" x1="0%" x2="0%" y1="0%" y2="100%">
   <stop offset="0%" style="stop-color: #f618c7; stop-opacity:1"/>
   <stop offset="20%" style="stop-color: #94ffab; stop-opacity:1"/>
   <stop offset="50%" style="stop-color: #fbfd54; stop-opacity:1"/>
   <stop offset="100%" style="stop-color: #0f83ae; stop-opacity:1"/>
  </linearGradient>
 </defs>
  <path
     id="3"
     class="ColorScheme-Text"
     style="display:inline;fill:url(#oomox);fill-opacity:1;stroke-width:0.13333"
     d="M 8.0000007,0 C 5.9526492,0 3.9053089,0.78120694 2.3433452,2.3434276 c -3.12446024,3.1239082 -3.12446024,8.1893334 0,11.3132434 3.1239273,3.124439 8.1893838,3.124439 11.3133118,0 3.124457,-3.12391 3.124457,-8.1893352 0,-11.3132434 C 12.094692,0.78120694 10.047353,0 8.0000007,0 Z M 7.99949,2.7996656 c 0.2947799,0 0.5333226,0.2385411 0.5333226,0.5333193 v 9.5997461 c 0,0.294779 -0.2385427,0.53332 -0.5333226,0.53332 -0.2947799,0 -0.5333225,-0.238541 -0.5333225,-0.53332 V 3.3329849 c 0,-0.2947782 0.2385426,-0.5333193 0.5333225,-0.5333193 z M 4.7995551,3.866304 c 0.2947802,0 0.5333225,0.2385409 0.5333225,0.5333195 v 7.4664695 c 0,0.294778 -0.2385423,0.533319 -0.5333225,0.533319 -0.29478,0 -0.5333223,-0.238541 -0.5333223,-0.533319 V 4.3996235 c 0,-0.2947786 0.2385423,-0.5333195 0.5333223,-0.5333195 z m 6.3998699,0 c 0.29478,0 0.533322,0.2385409 0.533322,0.5333195 v 7.4664695 c 0,0.294778 -0.238542,0.533319 -0.533322,0.533319 -0.294781,0 -0.533323,-0.238541 -0.533323,-0.533319 V 4.3996235 c 0,-0.2947786 0.238542,-0.5333195 0.533323,-0.5333195 z" />
  <path
     d="m 56,83 c 0,4.418 -3.582,8 -8,8 -4.418,0 -8,-3.582 -8,-8 0,-4.418 3.582,-8 8,-8 4.418,0 8,3.582 8,8 z"
     fill="#241f31"
     fill-opacity="0.3"
     id="path19"
     style="display:inline"
     transform="matrix(0.13333061,0,0,0.13332981,-1.6003244,-2.5335267)" />
  <path
     d="m 80,65 c 0,4.418 -3.582,8 -8,8 -4.418,0 -8,-3.582 -8,-8 0,-4.418 3.582,-8 8,-8 4.418,0 8,3.582 8,8 z"
     fill="#241f31"
     fill-opacity="0.3"
     id="path21"
     style="display:inline"
     transform="matrix(0.13333061,0,0,0.13332981,-1.6003244,-2.5335267)" />
  <path
     d="m 104,91 c 0,4.418 -3.582,8 -8,8 -4.418,0 -8,-3.582 -8,-8 0,-4.418 3.582,-8 8,-8 4.418,0 8,3.582 8,8 z"
     fill="#241f31"
     fill-opacity="0.3"
     id="path23"
     style="display:inline"
     transform="matrix(0.13333061,0,0,0.13332981,-1.6003244,-2.5335267)" />
  <path
     d="m 48,64 c 0,4.418 -3.582,8 -8,8 -4.418,0 -8,-3.582 -8,-8 0,-4.418 3.582,-8 8,-8 4.418,0 8,3.582 8,8 z"
     id="path27"
     class="ColorScheme-Text"
     style="fill:url(#oomox);fill-opacity:1"
     transform="matrix(0.13333061,0,0,0.13332981,-0.53367947,-0.40024984)" />
  <path
     d="m 72,46 c 0,4.418 -3.582,8 -8,8 -4.418,0 -8,-3.582 -8,-8 0,-4.418 3.582,-8 8,-8 4.418,0 8,3.582 8,8 z"
     id="path29"
     class="ColorScheme-Text"
     style="fill:url(#oomox);fill-opacity:1"
     transform="matrix(0.13333061,0,0,0.13332981,-0.53367947,-0.40024984)" />
  <path
     d="m 96,72 c 0,4.418 -3.582,8 -8,8 -4.418,0 -8,-3.582 -8,-8 0,-4.418 3.582,-8 8,-8 4.418,0 8,3.582 8,8 z"
     id="path31"
     class="ColorScheme-Text"
     style="fill:url(#oomox);fill-opacity:1"
     transform="matrix(0.13333061,0,0,0.13332981,-0.53367947,-0.40024984)" />
  <metadata
     id="metadata1480">
    <rdf:RDF>
      <cc:Work
         rdf:about="">
        <dc:creator>
          <cc:Agent>
            <dc:title>dreifacherspass</dc:title>
          </cc:Agent>
        </dc:creator>
        <cc:license
           rdf:resource="http://creativecommons.org/licenses/by-sa/4.0/" />
      </cc:Work>
      <cc:License
         rdf:about="http://creativecommons.org/licenses/by-sa/4.0/">
        <cc:permits
           rdf:resource="http://creativecommons.org/ns#Reproduction" />
        <cc:permits
           rdf:resource="http://creativecommons.org/ns#Distribution" />
        <cc:requires
           rdf:resource="http://creativecommons.org/ns#Notice" />
        <cc:requires
           rdf:resource="http://creativecommons.org/ns#Attribution" />
        <cc:permits
           rdf:resource="http://creativecommons.org/ns#DerivativeWorks" />
        <cc:requires
           rdf:resource="http://creativecommons.org/ns#ShareAlike" />
      </cc:License>
    </rdf:RDF>
  </metadata>
</svg>
