<?xml version="1.0" encoding="UTF-8" standalone="no"?>
<svg
   width="48"
   height="48"
   viewBox="0 0 48 48"
   version="1.1"
   id="svg35"
   xmlns="http://www.w3.org/2000/svg"
   xmlns:svg="http://www.w3.org/2000/svg"
   xmlns:rdf="http://www.w3.org/1999/02/22-rdf-syntax-ns#"
   xmlns:cc="http://creativecommons.org/ns#"
   xmlns:dc="http://purl.org/dc/elements/1.1/">
  <defs
     id="defs39">
    <style
       id="current-color-scheme"
       type="text/css">
      .ColorScheme-Text { color: #0abdc6; } .ColorScheme-Highlight { color:#5294e2; }
     </style>
    <linearGradient
       id="arrongin"
       x1="0%"
       x2="0%"
       y1="0%"
       y2="100%">
      <stop
         offset="0%"
         style="stop-color:#dd9b44; stop-opacity:1"
         id="stop9192" />
      <stop
         offset="100%"
         style="stop-color:#ad6c16; stop-opacity:1"
         id="stop9194" />
    </linearGradient>
    <linearGradient
       id="aurora"
       x1="0%"
       x2="0%"
       y1="0%"
       y2="100%">
      <stop
         offset="0%"
         style="stop-color:#09D4DF; stop-opacity:1"
         id="stop9197" />
      <stop
         offset="100%"
         style="stop-color:#9269F4; stop-opacity:1"
         id="stop9199" />
    </linearGradient>
    <linearGradient
       id="cyberneon"
       x1="0%"
       x2="0%"
       y1="0%"
       y2="100%">
      <stop
         offset="0"
         style="stop-color:#0abdc6; stop-opacity:1"
         id="stop9202" />
      <stop
         offset="1"
         style="stop-color:#ea00d9; stop-opacity:1"
         id="stop9204" />
    </linearGradient>
    <linearGradient
       id="fitdance"
       x1="0%"
       x2="0%"
       y1="0%"
       y2="100%">
      <stop
         offset="0%"
         style="stop-color:#1AD6AB; stop-opacity:1"
         id="stop9207" />
      <stop
         offset="100%"
         style="stop-color:#329DB6; stop-opacity:1"
         id="stop9209" />
    </linearGradient>
    <linearGradient
       id="oomox"
       x1="0%"
       x2="0%"
       y1="0%"
       y2="100%">
      <stop
         offset="0%"
         style="stop-color:#0abdc6; stop-opacity:1"
         id="stop9212" />
      <stop
         offset="100%"
         style="stop-color:#b800ff; stop-opacity:1"
         id="stop9214" />
    </linearGradient>
    <linearGradient
       id="rainblue"
       x1="0%"
       x2="0%"
       y1="0%"
       y2="100%">
      <stop
         offset="0%"
         style="stop-color:#00F260; stop-opacity:1"
         id="stop9217" />
      <stop
         offset="100%"
         style="stop-color:#0575E6; stop-opacity:1"
         id="stop9219" />
    </linearGradient>
    <linearGradient
       id="sunrise"
       x1="0%"
       x2="0%"
       y1="0%"
       y2="100%">
      <stop
         offset="0%"
         style="stop-color: #FF8501; stop-opacity:1"
         id="stop9222" />
      <stop
         offset="100%"
         style="stop-color: #FFCB01; stop-opacity:1"
         id="stop9224" />
    </linearGradient>
    <linearGradient
       id="telinkrin"
       x1="0%"
       x2="0%"
       y1="0%"
       y2="100%">
      <stop
         offset="0%"
         style="stop-color: #b2ced6; stop-opacity:1"
         id="stop9227" />
      <stop
         offset="100%"
         style="stop-color: #6da5b7; stop-opacity:1"
         id="stop9229" />
    </linearGradient>
    <linearGradient
       id="60spsycho"
       x1="0%"
       x2="0%"
       y1="0%"
       y2="100%">
      <stop
         offset="0%"
         style="stop-color: #df5940; stop-opacity:1"
         id="stop9232" />
      <stop
         offset="25%"
         style="stop-color: #d8d15f; stop-opacity:1"
         id="stop9234" />
      <stop
         offset="50%"
         style="stop-color: #e9882a; stop-opacity:1"
         id="stop9236" />
      <stop
         offset="100%"
         style="stop-color: #279362; stop-opacity:1"
         id="stop9238" />
    </linearGradient>
    <linearGradient
       id="90ssummer"
       x1="0%"
       x2="0%"
       y1="0%"
       y2="100%">
      <stop
         offset="0%"
         style="stop-color: #f618c7; stop-opacity:1"
         id="stop9241" />
      <stop
         offset="20%"
         style="stop-color: #94ffab; stop-opacity:1"
         id="stop9243" />
      <stop
         offset="50%"
         style="stop-color: #fbfd54; stop-opacity:1"
         id="stop9245" />
      <stop
         offset="100%"
         style="stop-color: #0f83ae; stop-opacity:1"
         id="stop9247" />
    </linearGradient>
  </defs>
  <path
     d="M 47.114137,24.384875 C 47.114137,37.150973 36.765111,47.5 23.999014,47.5 11.232916,47.5 0.88388962,37.150973 0.88388962,24.384875 c 0,-12.766097 10.55797638,17.63018 23.32407438,17.63018 12.766097,0 22.906173,-30.396277 22.906173,-17.63018 z"
     id="1"
     class="ColorScheme-Text"
     style="display:inline;fill:url(#oomox);fill-opacity:1;stroke-width:0.385252" />
  <path
     d="M 47.114137,24.384875 C 47.114137,37.150973 36.765111,47.5 23.999014,47.5 11.232916,47.5 0.88388962,37.150973 0.88388962,24.384875 c 0,-12.766097 10.14007638,18.674933 22.90617338,18.674933 12.766098,0 23.324074,-31.44103 23.324074,-18.674933 z"
     id="2"
     style="display:inline;opacity:0.4;fill:#000100;fill-opacity:1;stroke-width:0.385252" />
  <path
     id="3"
     class="ColorScheme-Text"
     style="display:inline;fill:url(#oomox);fill-opacity:1;stroke-width:0.385252"
     d="m 24.000518,0.5 c -5.915719,0 -11.831405,2.2572716 -16.3446194,6.7712565 -9.0279698,9.0264295 -9.0279698,23.6628085 0,32.6892415 9.0264294,9.027962 23.6628094,9.027962 32.6892404,0 9.027962,-9.026433 9.027962,-23.662812 0,-32.6892415 C 35.831922,2.7572716 29.916239,0.5 24.000518,0.5 Z m -0.0015,8.0895408 c 0.851751,0 1.541008,0.6892568 1.541008,1.5410082 v 27.738148 c 0,0.851754 -0.689257,1.54101 -1.541008,1.54101 -0.851752,0 -1.541009,-0.689256 -1.541009,-1.54101 V 10.130549 c 0,-0.8517514 0.689257,-1.5410082 1.541009,-1.5410082 z m -9.24605,3.0820162 c 0.851752,0 1.541008,0.689256 1.541008,1.541009 v 21.574115 c 0,0.851752 -0.689256,1.541008 -1.541008,1.541008 -0.851752,0 -1.541008,-0.689256 -1.541008,-1.541008 V 13.212566 c 0,-0.851753 0.689256,-1.541009 1.541008,-1.541009 z m 18.492099,0 c 0.851753,0 1.541008,0.689256 1.541008,1.541009 v 21.574115 c 0,0.851753 -0.689255,1.541008 -1.541008,1.541008 -0.851753,0 -1.541008,-0.689255 -1.541008,-1.541008 V 13.212566 c 0,-0.851753 0.689255,-1.541009 1.541008,-1.541009 z" />
  <g
     transform="matrix(0.38525206,0,0,0.38525206,-3.739135,-6.8205415)"
     id="g25"
     style="display:inline">
    <path
       d="m 56,83 c 0,4.418 -3.582,8 -8,8 -4.418,0 -8,-3.582 -8,-8 0,-4.418 3.582,-8 8,-8 4.418,0 8,3.582 8,8 z"
       fill="#241f31"
       fill-opacity="0.3"
       id="path19" />
    <path
       d="m 80,65 c 0,4.418 -3.582,8 -8,8 -4.418,0 -8,-3.582 -8,-8 0,-4.418 3.582,-8 8,-8 4.418,0 8,3.582 8,8 z"
       fill="#241f31"
       fill-opacity="0.3"
       id="path21" />
    <path
       d="m 104,91 c 0,4.418 -3.582,8 -8,8 -4.418,0 -8,-3.582 -8,-8 0,-4.418 3.582,-8 8,-8 4.418,0 8,3.582 8,8 z"
       fill="#241f31"
       fill-opacity="0.3"
       id="path23"
       style="display:inline" />
  </g>
  <g
     id="g33"
     transform="matrix(0.38525206,0,0,0.38525206,-0.65711858,-0.65650861)">
    <path
       d="m 48,64 c 0,4.418 -3.582,8 -8,8 -4.418,0 -8,-3.582 -8,-8 0,-4.418 3.582,-8 8,-8 4.418,0 8,3.582 8,8 z"
       id="path27"
       class="ColorScheme-Text"
       style="fill:url(#oomox);fill-opacity:1" />
    <path
       d="m 72,46 c 0,4.418 -3.582,8 -8,8 -4.418,0 -8,-3.582 -8,-8 0,-4.418 3.582,-8 8,-8 4.418,0 8,3.582 8,8 z"
       id="path29"
       class="ColorScheme-Text"
       style="fill:url(#oomox);fill-opacity:1" />
    <path
       d="m 96,72 c 0,4.418 -3.582,8 -8,8 -4.418,0 -8,-3.582 -8,-8 0,-4.418 3.582,-8 8,-8 4.418,0 8,3.582 8,8 z"
       id="path31"
       class="ColorScheme-Text"
       style="fill:url(#oomox);fill-opacity:1" />
  </g>
  <metadata
     id="metadata1480">
    <rdf:RDF>
      <cc:Work
         rdf:about="">
        <dc:creator>
          <cc:Agent>
            <dc:title>dreifacherspass</dc:title>
          </cc:Agent>
        </dc:creator>
        <cc:license
           rdf:resource="http://creativecommons.org/licenses/by-sa/4.0/" />
      </cc:Work>
      <cc:License
         rdf:about="http://creativecommons.org/licenses/by-sa/4.0/">
        <cc:permits
           rdf:resource="http://creativecommons.org/ns#Reproduction" />
        <cc:permits
           rdf:resource="http://creativecommons.org/ns#Distribution" />
        <cc:requires
           rdf:resource="http://creativecommons.org/ns#Notice" />
        <cc:requires
           rdf:resource="http://creativecommons.org/ns#Attribution" />
        <cc:permits
           rdf:resource="http://creativecommons.org/ns#DerivativeWorks" />
        <cc:requires
           rdf:resource="http://creativecommons.org/ns#ShareAlike" />
      </cc:License>
    </rdf:RDF>
  </metadata>
</svg>
