<?xml version="1.0" encoding="UTF-8" standalone="no"?>
<svg
   width="16"
   height="16"
   version="1.1"
   id="svg4"
   xmlns:xlink="http://www.w3.org/1999/xlink"
   xmlns="http://www.w3.org/2000/svg"
   xmlns:svg="http://www.w3.org/2000/svg"
   xmlns:rdf="http://www.w3.org/1999/02/22-rdf-syntax-ns#"
   xmlns:cc="http://creativecommons.org/ns#"
   xmlns:dc="http://purl.org/dc/elements/1.1/">
  <defs>
   <style id="current-color-scheme" type="text/css">
   .ColorScheme-Text { color: #0abdc6; } .ColorScheme-Highlight { color:#5294e2; }
  </style>
  <linearGradient id="arrongin" x1="0%" x2="0%" y1="0%" y2="100%">
   <stop offset="0%" style="stop-color:#dd9b44; stop-opacity:1"/>
   <stop offset="100%" style="stop-color:#ad6c16; stop-opacity:1"/>
  </linearGradient>
  <linearGradient id="aurora" x1="0%" x2="0%" y1="0%" y2="100%">
   <stop offset="0%" style="stop-color:#09D4DF; stop-opacity:1"/>
   <stop offset="100%" style="stop-color:#9269F4; stop-opacity:1"/>
  </linearGradient>
  <linearGradient id="cyberneon" x1="0%" x2="0%" y1="0%" y2="100%">
    <stop offset="0" style="stop-color:#0abdc6; stop-opacity:1"/>
    <stop offset="1" style="stop-color:#ea00d9; stop-opacity:1"/>
  </linearGradient>
  <linearGradient id="fitdance" x1="0%" x2="0%" y1="0%" y2="100%">
   <stop offset="0%" style="stop-color:#1AD6AB; stop-opacity:1"/>
   <stop offset="100%" style="stop-color:#329DB6; stop-opacity:1"/>
  </linearGradient>
  <linearGradient id="oomox" x1="0%" x2="0%" y1="0%" y2="100%">
   <stop offset="0%" style="stop-color:#0abdc6; stop-opacity:1"/>
   <stop offset="100%" style="stop-color:#b800ff; stop-opacity:1"/>
  </linearGradient>
  <linearGradient id="rainblue" x1="0%" x2="0%" y1="0%" y2="100%">
   <stop offset="0%" style="stop-color:#00F260; stop-opacity:1"/>
   <stop offset="100%" style="stop-color:#0575E6; stop-opacity:1"/>
  </linearGradient>
  <linearGradient id="sunrise" x1="0%" x2="0%" y1="0%" y2="100%">
   <stop offset="0%" style="stop-color: #FF8501; stop-opacity:1"/>
   <stop offset="100%" style="stop-color: #FFCB01; stop-opacity:1"/>
  </linearGradient>
  <linearGradient id="telinkrin" x1="0%" x2="0%" y1="0%" y2="100%">
   <stop offset="0%" style="stop-color: #b2ced6; stop-opacity:1"/>
   <stop offset="100%" style="stop-color: #6da5b7; stop-opacity:1"/>
  </linearGradient>
  <linearGradient id="60spsycho" x1="0%" x2="0%" y1="0%" y2="100%">
   <stop offset="0%" style="stop-color: #df5940; stop-opacity:1"/>
   <stop offset="25%" style="stop-color: #d8d15f; stop-opacity:1"/>
   <stop offset="50%" style="stop-color: #e9882a; stop-opacity:1"/>
   <stop offset="100%" style="stop-color: #279362; stop-opacity:1"/>
  </linearGradient>
  <linearGradient id="90ssummer" x1="0%" x2="0%" y1="0%" y2="100%">
   <stop offset="0%" style="stop-color: #f618c7; stop-opacity:1"/>
   <stop offset="20%" style="stop-color: #94ffab; stop-opacity:1"/>
   <stop offset="50%" style="stop-color: #fbfd54; stop-opacity:1"/>
   <stop offset="100%" style="stop-color: #0f83ae; stop-opacity:1"/>
  </linearGradient>
 </defs>
  <metadata
     id="metadata5">
    <rdf:RDF>
      <cc:Work
         rdf:about="">
        <dc:creator>
          <cc:Agent>
            <dc:title>dreifacherspass</dc:title>
          </cc:Agent>
        </dc:creator>
        <cc:license
           rdf:resource="http://creativecommons.org/licenses/by-sa/4.0/" />
      </cc:Work>
      <cc:License
         rdf:about="http://creativecommons.org/licenses/by-sa/4.0/">
        <cc:permits
           rdf:resource="http://creativecommons.org/ns#Reproduction" />
        <cc:permits
           rdf:resource="http://creativecommons.org/ns#Distribution" />
        <cc:requires
           rdf:resource="http://creativecommons.org/ns#Notice" />
        <cc:requires
           rdf:resource="http://creativecommons.org/ns#Attribution" />
        <cc:permits
           rdf:resource="http://creativecommons.org/ns#DerivativeWorks" />
        <cc:requires
           rdf:resource="http://creativecommons.org/ns#ShareAlike" />
      </cc:License>
    </rdf:RDF>
  </metadata>
  <path
     id="path32"
     class="ColorScheme-Text"
     style="font-weight:bold;font-size:8px;font-family:Monospace;-inkscape-font-specification:'Monospace Bold';stroke-width:1.27909;fill:url(#oomox)"
     d="m 14.064453,5.3632812 c -0.664027,0 -1.153457,0.2319272 -1.46875,0.6953125 -0.310516,0.4633854 -0.466797,1.1101788 -0.466797,1.9414064 0,0.8264501 0.156281,1.4732436 0.466797,1.9414062 0.310517,0.4633857 0.799947,0.6953127 1.46875,0.6953127 0.668804,0 1.158234,-0.231927 1.46875,-0.6953127 C 15.843719,9.4732437 16,8.8264502 16,8.0000001 16,7.1735496 15.843719,6.5297916 15.533203,6.0664062 15.222687,5.5982437 14.733257,5.3632812 14.064453,5.3632812 Z m -7.9687499,0.013672 c -0.5254886,0 -0.9689664,0.1103284 -1.3320312,0.3300781 C 4.4053842,5.926781 4.1335752,6.2415072 3.9472656,6.6523437 3.7657332,7.0584032 3.6738281,7.5467512 3.6738281,8.1152344 c 0,0.50638 0.077599,0.9498578 0.2304688,1.3320313 0.1576466,0.3773963 0.3936912,0.6726173 0.7089843,0.8828123 0.3200703,0.205418 0.7267015,0.306641 1.21875,0.306641 0.2149726,0 0.430641,-0.02146 0.6503907,-0.06445 0.224527,-0.043 0.4410661,-0.108453 0.6464843,-0.199219 V 9.4414063 C 6.894825,9.5465043 6.688474,9.6191154 6.5117188,9.6621094 6.3397407,9.705104 6.1711071,9.7265625 6.0039062,9.7265625 5.5548523,9.7265625 5.229938,9.5936933 5.0292969,9.3261719 4.8286558,9.0538733 4.7285156,8.6359716 4.7285156,8.0722657 c 0,-0.3582877 0.039882,-0.6719318 0.1210938,-0.9394532 0.085989,-0.2675215 0.226011,-0.4749547 0.421875,-0.6230469 0.1958638,-0.1480923 0.4594378,-0.2226562 0.7890625,-0.2226562 0.1385378,0 0.2815952,0.017341 0.4296875,0.050781 0.1528695,0.03344 0.3173854,0.094781 0.4941406,0.1855469 L 7.328125,5.671875 C 7.1322611,5.5763316 6.9391336,5.5048029 6.7480469,5.4570312 6.5617372,5.4044824 6.3441159,5.3769531 6.0957031,5.3769531 Z M 0,5.4492187 V 10.566406 H 3.2246094 V 9.6699219 H 1.0039062 V 8.3593751 H 3.1171875 V 7.4628906 H 1.0039062 V 6.3457031 H 3.2246094 V 5.4492187 Z m 7.9375,0 V 10.566406 H 8.9765625 V 8.3437501 h 1.5761715 v 2.2226559 h 1.039063 V 5.4492187 h -1.039063 v 2 H 8.9765625 v -2 z m 6.070312,0.8105469 c 0.01874,-0.00116 0.03723,0 0.05664,0 0.310516,0 0.53529,0.1471749 0.673828,0.4433594 0.138538,0.2914071 0.207031,0.7205793 0.207031,1.2890624 1e-6,0.5780376 -0.06849,1.0163156 -0.207031,1.3125001 -0.138538,0.2914072 -0.363312,0.4375 -0.673828,0.4375 -0.310516,0 -0.535291,-0.1460928 -0.673828,-0.4375 -0.138538,-0.2961845 -0.207031,-0.7314272 -0.207031,-1.3046874 0,-0.5684833 0.06849,-1.0006908 0.207031,-1.2968751 0.129879,-0.2776731 0.336155,-0.4260048 0.617187,-0.4433594 z" />
</svg>
