<?xml version="1.0" encoding="UTF-8" standalone="no"?>
<!-- Created with Inkscape (http://www.inkscape.org/) -->

<svg
   width="16"
   height="16"
   viewBox="0 0 4.2333333 4.2333332"
   version="1.1"
   id="svg1"
   xmlns:xlink="http://www.w3.org/1999/xlink"
   xmlns="http://www.w3.org/2000/svg"
   xmlns:svg="http://www.w3.org/2000/svg"
   xmlns:rdf="http://www.w3.org/1999/02/22-rdf-syntax-ns#"
   xmlns:cc="http://creativecommons.org/ns#"
   xmlns:dc="http://purl.org/dc/elements/1.1/">
   <defs>
   <style id="current-color-scheme" type="text/css">
   .ColorScheme-Text { color: #0abdc6; } .ColorScheme-Highlight { color:#5294e2; }
  </style>
  <linearGradient id="arrongin" x1="0%" x2="0%" y1="0%" y2="100%">
   <stop offset="0%" style="stop-color:#dd9b44; stop-opacity:1"/>
   <stop offset="100%" style="stop-color:#ad6c16; stop-opacity:1"/>
  </linearGradient>
  <linearGradient id="aurora" x1="0%" x2="0%" y1="0%" y2="100%">
   <stop offset="0%" style="stop-color:#09D4DF; stop-opacity:1"/>
   <stop offset="100%" style="stop-color:#9269F4; stop-opacity:1"/>
  </linearGradient>
  <linearGradient id="cyberneon" x1="0%" x2="0%" y1="0%" y2="100%">
    <stop offset="0" style="stop-color:#0abdc6; stop-opacity:1"/>
    <stop offset="1" style="stop-color:#ea00d9; stop-opacity:1"/>
  </linearGradient>
  <linearGradient id="fitdance" x1="0%" x2="0%" y1="0%" y2="100%">
   <stop offset="0%" style="stop-color:#1AD6AB; stop-opacity:1"/>
   <stop offset="100%" style="stop-color:#329DB6; stop-opacity:1"/>
  </linearGradient>
  <linearGradient id="oomox" x1="0%" x2="0%" y1="0%" y2="100%">
   <stop offset="0%" style="stop-color:#0abdc6; stop-opacity:1"/>
   <stop offset="100%" style="stop-color:#b800ff; stop-opacity:1"/>
  </linearGradient>
  <linearGradient id="rainblue" x1="0%" x2="0%" y1="0%" y2="100%">
   <stop offset="0%" style="stop-color:#00F260; stop-opacity:1"/>
   <stop offset="100%" style="stop-color:#0575E6; stop-opacity:1"/>
  </linearGradient>
  <linearGradient id="sunrise" x1="0%" x2="0%" y1="0%" y2="100%">
   <stop offset="0%" style="stop-color: #FF8501; stop-opacity:1"/>
   <stop offset="100%" style="stop-color: #FFCB01; stop-opacity:1"/>
  </linearGradient>
  <linearGradient id="telinkrin" x1="0%" x2="0%" y1="0%" y2="100%">
   <stop offset="0%" style="stop-color: #b2ced6; stop-opacity:1"/>
   <stop offset="100%" style="stop-color: #6da5b7; stop-opacity:1"/>
  </linearGradient>
  <linearGradient id="60spsycho" x1="0%" x2="0%" y1="0%" y2="100%">
   <stop offset="0%" style="stop-color: #df5940; stop-opacity:1"/>
   <stop offset="25%" style="stop-color: #d8d15f; stop-opacity:1"/>
   <stop offset="50%" style="stop-color: #e9882a; stop-opacity:1"/>
   <stop offset="100%" style="stop-color: #279362; stop-opacity:1"/>
  </linearGradient>
  <linearGradient id="90ssummer" x1="0%" x2="0%" y1="0%" y2="100%">
   <stop offset="0%" style="stop-color: #f618c7; stop-opacity:1"/>
   <stop offset="20%" style="stop-color: #94ffab; stop-opacity:1"/>
   <stop offset="50%" style="stop-color: #fbfd54; stop-opacity:1"/>
   <stop offset="100%" style="stop-color: #0f83ae; stop-opacity:1"/>
  </linearGradient>
 </defs>
  <path
     style="fill:url(#oomox);fill-opacity:1;stroke:none;stroke-opacity:1;filter:url(#filter2834);font-size:12px;fill-rule:evenodd;stroke-width:1"
     d="m 253.0964,451.5499 298.0828,199.0175 c 12.3337,-12.8429 12.3337,-12.8429 20.2182,-24.6206 67.0184,-100.1107 43.7081,-243.6352 -62.1011,-314.0059 -106.1899,-71.5505 -247.7678,-38.4091 -315.2532,61.7845 -64.5802,97.0834 -49.1298,239.61 62.3976,315.1319 97.5272,64.4282 188.9762,36.1043 245.0135,5.0054 L 473.477,645.883 C 413.0772,677.728 342.3128,681.5232 287.7821,644.4234 203.9245,588.8802 187.4273,479.7646 239.093,403.3519 c 50.833,-76.6977 156.0308,-100.0815 239.2262,-45.138 87.5816,59.3819 82.47,162.5595 60.7632,208.7355 -9.5889,-6.5965 -19.1778,-13.1929 -28.7667,-19.7894 24.9959,-64.7622 -0.4326,-128.689 -50.4879,-162.1982 -58.8887,-39.4226 -144.3998,-32.7074 -192.214,38.5467 -9.3484,14.1343 -9.3484,14.1343 -14.5174,28.0414 z"
     id="path582"
     class="ColorScheme-Text"
     transform="matrix(0.00298439,0,0,0.00298461,-0.07581835,1.7692698)" />
  <path
     id="path578"
     class="ColorScheme-Text"
     style="fill:url(#oomox);fill-opacity:1;stroke:none;stroke-opacity:1;fill-rule:evenodd;stroke-width:1pt;stroke-linecap:butt;stroke-linejoin:miter"
     d="M 381.93269 173.7064 C 377.72035 215.8301 371.93217 243.4334 356.13248 252.14018 C 338.82424 246.95025 327.42789 221.04407 314.5751 180.63212 C 319.13085 222.42077 319.11542 250.59575 305.74415 262.52876 L 305.571 262.52876 C 287.90286 260.31975 271.49844 237.4268 251.02693 201.06299 C 264.10675 241.42208 269.89141 269.18936 258.81894 283.47906 C 240.91874 285.54124 220.0653 266.23886 192.15397 234.47959 C 213.24992 271.18272 224.69362 297.15593 216.91525 313.4328 C 199.82847 319.01689 175.52676 304.6001 141.76565 279.32363 C 171.40962 312.5287 187.99945 336.10238 181.24516 353.94826 C 191.91595 339.69537 193.26516 338.48669 199.25336 331.9591 C 204.46698 326.27604 206.44281 324.03294 215.53 315.8568 C 217.01264 314.55377 217.95284 313.79992 219.16627 312.74023 C 219.38747 312.54261 219.45749 312.42456 219.68574 312.2208 C 228.94144 304.14879 231.23888 302.34737 237.52078 297.84993 C 243.85071 293.31832 246.24753 291.66522 257.08738 285.38363 C 258.09977 284.81369 258.61181 284.50313 259.51156 283.99849 C 260.29285 283.54804 260.72356 283.28416 261.58943 282.78649 C 272.51938 276.68436 275.24047 275.52199 282.36812 272.39791 C 289.34319 269.34087 292.0839 268.30201 303.31997 264.60647 C 320.28725 259.21008 322.01179 258.81968 330.67858 256.98818 C 338.28165 255.38149 341.14361 254.74829 353.53514 253.35218 C 355.31821 253.17387 356.38051 253.15012 357.86404 253.00589 C 358.21678 252.96728 358.36361 252.87267 358.72981 252.83275 C 371.20707 251.62952 374.14638 251.62075 381.93269 251.62075 C 389.86063 251.62075 392.74249 251.5627 405.82818 252.83275 C 423.52816 254.76235 425.21252 255.15668 433.87942 256.98818 C 441.29706 258.5557 444.36638 259.2088 455.52389 262.7019 C 472.46147 268.1911 474.07658 268.84201 482.18987 272.39791 C 489.32519 275.52534 492.0079 276.83981 502.96856 282.95963 C 518.40525 291.83212 519.83442 292.86658 527.03721 298.02307 C 534.23981 303.17967 535.65411 304.10311 549.028 315.8568 C 558.23704 324.13954 560.23795 326.24746 565.47779 331.9591 C 571.46599 338.48669 572.64205 339.86852 583.31284 354.1214 C 576.55854 336.27552 593.32154 312.5287 622.96551 279.32363 C 589.23389 304.57802 564.90033 318.97708 547.81591 313.4328 C 540.00774 297.15787 551.29446 271.37956 572.40402 234.65273 C 544.4927 266.41201 523.63926 285.54124 505.73906 283.47906 C 494.66659 269.18936 500.45125 241.42208 513.53107 201.06299 C 492.85687 237.78684 476.51223 260.71244 458.64069 262.52876 L 458.46753 262.35561 C 445.38741 250.27447 445.63347 222.11655 450.15606 180.63212 C 437.2143 221.32377 425.58948 247.37673 408.07921 252.31332 C 392.02305 243.81747 386.17516 216.13042 381.93269 173.7064 z M 182.11094 645.17478 C 188.86523 663.02067 172.10224 686.76749 142.45827 719.97256 C 176.20063 694.71013 200.52258 680.30461 217.60787 685.86339 C 225.35569 702.14223 213.92856 727.96464 192.8466 764.64345 C 220.84884 732.78073 241.74536 713.60962 259.68472 715.81713 C 270.71174 730.1196 264.95924 757.91509 251.89271 798.23319 C 272.49935 761.62936 288.80638 738.71571 306.60993 736.76743 L 306.78309 736.94057 C 319.86321 749.02172 319.79031 777.0065 315.26772 818.49092 C 328.09821 778.14911 339.56723 752.40873 356.8251 747.15601 C 372.62479 755.86279 378.41297 783.46609 382.62531 825.58979 C 386.85603 783.28328 392.81637 755.56177 408.77183 746.98287 C 426.2821 751.91946 437.90692 777.79927 450.84868 818.49092 C 446.32609 777.0065 446.42635 748.67543 459.50647 736.59429 C 477.31002 738.54257 493.61705 761.45622 514.22369 798.06005 C 501.14387 757.70097 495.35921 730.10682 506.43168 715.81713 C 524.3556 713.66707 545.13026 732.82153 573.09665 764.64345 C 552.07998 728.07825 540.72969 702.15123 548.33537 685.86339 C 565.42871 680.16632 589.81361 694.63364 623.65813 719.97256 C 594.01416 686.76749 577.25117 663.02067 584.00546 645.17478 C 573.33467 659.42767 572.15861 660.63635 566.17042 667.16394 C 560.93865 672.86678 558.89196 675.01649 549.72062 683.26624 C 549.67819 683.33259 549.58915 683.37268 549.54746 683.43939 C 547.95071 684.84238 547.02155 685.78274 545.73804 686.90225 C 536.44164 695.01075 534.02238 696.76805 527.72984 701.27311 C 521.39511 705.80816 519.0249 707.44557 508.16324 713.73941 C 492.64805 722.4739 491.16874 723.16914 483.05565 726.72513 C 474.97351 730.26738 472.97224 730.98946 456.21651 736.42114 C 445.04204 739.91983 442.1672 740.73956 434.74519 742.308 C 426.0783 744.1395 424.22079 744.3607 406.5208 746.29029 C 393.42664 747.56127 390.55519 747.67544 382.62531 747.67544 C 373.76712 747.67544 372.1174 747.71571 354.40092 745.94401 C 341.85812 744.53292 339.00933 743.9221 331.3712 742.308 C 322.70441 740.47651 320.97988 740.08611 304.01259 734.68971 C 292.8258 731.00958 290.02408 729.77703 283.06075 726.72513 C 274.94766 723.16914 273.29519 722.4739 257.78001 713.73941 C 247.032 707.5094 244.52305 705.7902 238.2134 701.27311 C 231.9315 696.77568 229.63406 694.97425 220.37836 686.90225 C 220.15011 686.69848 220.08009 686.58043 219.85889 686.38282 C 218.64546 685.32312 217.70527 684.56927 216.22262 683.26624 C 207.13543 675.09011 205.15961 673.02015 199.94598 667.33709 C 193.95779 660.80949 192.78173 659.42767 182.11094 645.17478 z "
     transform="matrix(0.00298439,0,0,0.00298461,-0.07581835,1.7692698)" />
  <path
     d="m 3.732147,0.17965746 c -0.1118728,0.1848935 -0.314116,0.4681104 -0.642284,0.7673609 -0.014349,0.01309 -0.022418,0.0317 -0.022138,0.05112 C 3.069525,1.1292418 3.044437,1.2795918 2.99315,1.4450068 l -0.020879,0.06732 -0.026428,-0.445592 c -9.32e-4,-0.02552 -0.1015596,0.08698 -0.1015596,0.08698 -0.6820112,0.529603 -0.7748844,1.091737 -0.7695528,1.379656 0.0018,0.09993 0.015109,0.195822 0.039447,0.28505 0.0094,0.03442 0.020129,0.06675 0.032058,0.0965 l -0.3624222,0.642226 -6.67e-4,0.137044 c -0.018009,0.0319 0.1316314,-0.08716 0.1316314,-0.08716 l 1.0440867,-1.603553 c 0.007,-0.0014 -0.574547,1.062257 -0.5672235,1.060295 0.109737,-0.02941 0.2477699,-0.120616 0.3991768,-0.263718 0.2041611,-0.192989 0.4179185,-0.462466 0.6181468,-0.779289 0.0096,-0.01522 0.1629001,-0.244515 0.1538348,-0.254989 -0.0091,-0.01047 -0.2275374,0.150483 -0.2430432,0.158721 l -0.1547197,0.08202 0.047877,-0.05176 c 0.1336232,-0.144465 0.2666185,-0.249381 0.3952681,-0.311863 0.013909,-0.0068 0.025118,-0.01808 0.031728,-0.03207 0.21828,-0.461732 0.2537634,-0.86968744 0.2450871,-1.13060514 -0.0032,-0.094833 -0.012499,-0.1880106 -0.027818,-0.2769299 -0.0023,-0.013551 -0.027988,-0.1978885 -0.038477,-0.20317420779 C 3.8082127,-0.00517444 3.7382677,0.16953676 3.732147,0.17965746 Z"
     id="path1"
     class="ColorScheme-Text"
     style="stroke-width:0.008;fill:url(#oomox);fill-opacity:1;stroke-dasharray:none" />
  <metadata
     id="metadata1">
    <rdf:RDF>
      <cc:Work
         rdf:about="">
        <dc:creator>
          <cc:Agent>
            <dc:title>dreifacherspass</dc:title>
          </cc:Agent>
        </dc:creator>
        <cc:license
           rdf:resource="http://creativecommons.org/licenses/by-sa/4.0/" />
      </cc:Work>
      <cc:License
         rdf:about="http://creativecommons.org/licenses/by-sa/4.0/">
        <cc:permits
           rdf:resource="http://creativecommons.org/ns#Reproduction" />
        <cc:permits
           rdf:resource="http://creativecommons.org/ns#Distribution" />
        <cc:requires
           rdf:resource="http://creativecommons.org/ns#Notice" />
        <cc:requires
           rdf:resource="http://creativecommons.org/ns#Attribution" />
        <cc:permits
           rdf:resource="http://creativecommons.org/ns#DerivativeWorks" />
        <cc:requires
           rdf:resource="http://creativecommons.org/ns#ShareAlike" />
      </cc:License>
    </rdf:RDF>
  </metadata>
</svg>
