<?xml version="1.0" encoding="UTF-8" standalone="no"?>
<svg
   width="16"
   height="16"
   viewBox="0 0 16 16"
   fill="none"
   version="1.1"
   id="svg390"
   xmlns="http://www.w3.org/2000/svg"
   xmlns:svg="http://www.w3.org/2000/svg"
   xmlns:rdf="http://www.w3.org/1999/02/22-rdf-syntax-ns#"
   xmlns:cc="http://creativecommons.org/ns#"
   xmlns:dc="http://purl.org/dc/elements/1.1/">
  <defs>
   <style id="current-color-scheme" type="text/css">
   .ColorScheme-Text { color: #0abdc6; } .ColorScheme-Highlight { color:#5294e2; }
  </style>
  <linearGradient id="arrongin" x1="0%" x2="0%" y1="0%" y2="100%">
   <stop offset="0%" style="stop-color:#dd9b44; stop-opacity:1"/>
   <stop offset="100%" style="stop-color:#ad6c16; stop-opacity:1"/>
  </linearGradient>
  <linearGradient id="aurora" x1="0%" x2="0%" y1="0%" y2="100%">
   <stop offset="0%" style="stop-color:#09D4DF; stop-opacity:1"/>
   <stop offset="100%" style="stop-color:#9269F4; stop-opacity:1"/>
  </linearGradient>
  <linearGradient id="cyberneon" x1="0%" x2="0%" y1="0%" y2="100%">
    <stop offset="0" style="stop-color:#0abdc6; stop-opacity:1"/>
    <stop offset="1" style="stop-color:#ea00d9; stop-opacity:1"/>
  </linearGradient>
  <linearGradient id="fitdance" x1="0%" x2="0%" y1="0%" y2="100%">
   <stop offset="0%" style="stop-color:#1AD6AB; stop-opacity:1"/>
   <stop offset="100%" style="stop-color:#329DB6; stop-opacity:1"/>
  </linearGradient>
  <linearGradient id="oomox" x1="0%" x2="0%" y1="0%" y2="100%">
   <stop offset="0%" style="stop-color:#0abdc6; stop-opacity:1"/>
   <stop offset="100%" style="stop-color:#b800ff; stop-opacity:1"/>
  </linearGradient>
  <linearGradient id="rainblue" x1="0%" x2="0%" y1="0%" y2="100%">
   <stop offset="0%" style="stop-color:#00F260; stop-opacity:1"/>
   <stop offset="100%" style="stop-color:#0575E6; stop-opacity:1"/>
  </linearGradient>
  <linearGradient id="sunrise" x1="0%" x2="0%" y1="0%" y2="100%">
   <stop offset="0%" style="stop-color: #FF8501; stop-opacity:1"/>
   <stop offset="100%" style="stop-color: #FFCB01; stop-opacity:1"/>
  </linearGradient>
  <linearGradient id="telinkrin" x1="0%" x2="0%" y1="0%" y2="100%">
   <stop offset="0%" style="stop-color: #b2ced6; stop-opacity:1"/>
   <stop offset="100%" style="stop-color: #6da5b7; stop-opacity:1"/>
  </linearGradient>
  <linearGradient id="60spsycho" x1="0%" x2="0%" y1="0%" y2="100%">
   <stop offset="0%" style="stop-color: #df5940; stop-opacity:1"/>
   <stop offset="25%" style="stop-color: #d8d15f; stop-opacity:1"/>
   <stop offset="50%" style="stop-color: #e9882a; stop-opacity:1"/>
   <stop offset="100%" style="stop-color: #279362; stop-opacity:1"/>
  </linearGradient>
  <linearGradient id="90ssummer" x1="0%" x2="0%" y1="0%" y2="100%">
   <stop offset="0%" style="stop-color: #f618c7; stop-opacity:1"/>
   <stop offset="20%" style="stop-color: #94ffab; stop-opacity:1"/>
   <stop offset="50%" style="stop-color: #fbfd54; stop-opacity:1"/>
   <stop offset="100%" style="stop-color: #0f83ae; stop-opacity:1"/>
  </linearGradient>
 </defs>
  <path
     id="path382"
     style="fill:url(#oomox);fill-opacity:1;stroke-width:0.296296"
     class="ColorScheme-Text"
     d="M 6.7207449,0 C 6.1905525,0 5.7606383,0.42991435 5.7606383,0.96010638 c 0,0.53019202 0.4299142,0.96010642 0.9601066,0.96010642 2.4742488,0 4.4793881,2.0058039 4.4793881,4.4800531 0,0.5301923 0.429914,0.9594417 0.960106,0.9594417 0.530192,0 0.960107,-0.4292494 0.960107,-0.9594417 C 13.120346,2.8656473 10.255378,0 6.7207449,0 Z M 6.4002659,2.8803191 C 2.8656473,2.8803191 -1.5319149e-7,5.7452868 0,9.2799203 c 2.3829781e-8,0.530192 0.42991431,0.9601067 0.96010638,0.9601067 0.53019202,0 0.96010642,-0.4299147 0.96010642,-0.9601067 0,-2.4742495 2.0058335,-4.4800534 4.4800531,-4.4800534 0.5301923,0 0.9594417,-0.4299142 0.9594417,-0.9601062 0,-0.5301924 -0.4292494,-0.9594416 -0.9594417,-0.9594416 z m 8.6396281,2.8796543 c -0.530193,0 -0.960107,0.4299143 -0.960107,0.9601063 0,2.4742495 -2.005833,4.4800533 -4.4800529,4.4800533 -0.5301923,0 -0.9594417,0.429914 -0.9594417,0.960106 0,0.530193 0.4292494,0.959442 0.9594417,0.959442 C 13.134367,13.119681 16,10.254713 16,6.7200797 16,6.1898877 15.570086,5.7599734 15.039894,5.7599734 Z M 3.8397607,8.6402924 c -0.530192,0 -0.9601064,0.4292494 -0.9601064,0.9594417 C 2.8796543,13.134367 5.7446516,16 9.2792551,16 c 0.5301924,0 0.9601069,-0.429914 0.9601069,-0.960106 0,-0.530193 -0.4299145,-0.960107 -0.9601069,-0.960107 -2.4742192,0 -4.4793882,-2.005833 -4.4793882,-4.4800529 0,-0.5301923 -0.4299142,-0.9594417 -0.9601062,-0.9594417 z" />
  <metadata
     id="metadata188">
    <rdf:RDF>
      <cc:Work
         rdf:about="">
        <cc:license
           rdf:resource="http://creativecommons.org/licenses/by-sa/4.0/" />
        <dc:creator>
          <cc:Agent>
            <dc:title>dreifacherspass</dc:title>
          </cc:Agent>
        </dc:creator>
      </cc:Work>
      <cc:License
         rdf:about="http://creativecommons.org/licenses/by-sa/4.0/">
        <cc:permits
           rdf:resource="http://creativecommons.org/ns#Reproduction" />
        <cc:permits
           rdf:resource="http://creativecommons.org/ns#Distribution" />
        <cc:requires
           rdf:resource="http://creativecommons.org/ns#Notice" />
        <cc:requires
           rdf:resource="http://creativecommons.org/ns#Attribution" />
        <cc:permits
           rdf:resource="http://creativecommons.org/ns#DerivativeWorks" />
        <cc:requires
           rdf:resource="http://creativecommons.org/ns#ShareAlike" />
      </cc:License>
    </rdf:RDF>
  </metadata>
</svg>
