<?xml version="1.0" encoding="UTF-8" standalone="no"?>
<!-- Created with Inkscape (http://www.inkscape.org/) -->

<svg
   width="16"
   height="16"
   viewBox="0 0 4.2333333 4.2333333"
   version="1.1"
   id="svg8"
   xmlns:xlink="http://www.w3.org/1999/xlink"
   xmlns="http://www.w3.org/2000/svg"
   xmlns:svg="http://www.w3.org/2000/svg"
   xmlns:rdf="http://www.w3.org/1999/02/22-rdf-syntax-ns#"
   xmlns:cc="http://creativecommons.org/ns#"
   xmlns:dc="http://purl.org/dc/elements/1.1/">
  <defs>
   <style id="current-color-scheme" type="text/css">
   .ColorScheme-Text { color: #0abdc6; } .ColorScheme-Highlight { color:#5294e2; }
  </style>
  <linearGradient id="arrongin" x1="0%" x2="0%" y1="0%" y2="100%">
   <stop offset="0%" style="stop-color:#dd9b44; stop-opacity:1"/>
   <stop offset="100%" style="stop-color:#ad6c16; stop-opacity:1"/>
  </linearGradient>
  <linearGradient id="aurora" x1="0%" x2="0%" y1="0%" y2="100%">
   <stop offset="0%" style="stop-color:#09D4DF; stop-opacity:1"/>
   <stop offset="100%" style="stop-color:#9269F4; stop-opacity:1"/>
  </linearGradient>
  <linearGradient id="cyberneon" x1="0%" x2="0%" y1="0%" y2="100%">
    <stop offset="0" style="stop-color:#0abdc6; stop-opacity:1"/>
    <stop offset="1" style="stop-color:#ea00d9; stop-opacity:1"/>
  </linearGradient>
  <linearGradient id="fitdance" x1="0%" x2="0%" y1="0%" y2="100%">
   <stop offset="0%" style="stop-color:#1AD6AB; stop-opacity:1"/>
   <stop offset="100%" style="stop-color:#329DB6; stop-opacity:1"/>
  </linearGradient>
  <linearGradient id="oomox" x1="0%" x2="0%" y1="0%" y2="100%">
   <stop offset="0%" style="stop-color:#0abdc6; stop-opacity:1"/>
   <stop offset="100%" style="stop-color:#b800ff; stop-opacity:1"/>
  </linearGradient>
  <linearGradient id="rainblue" x1="0%" x2="0%" y1="0%" y2="100%">
   <stop offset="0%" style="stop-color:#00F260; stop-opacity:1"/>
   <stop offset="100%" style="stop-color:#0575E6; stop-opacity:1"/>
  </linearGradient>
  <linearGradient id="sunrise" x1="0%" x2="0%" y1="0%" y2="100%">
   <stop offset="0%" style="stop-color: #FF8501; stop-opacity:1"/>
   <stop offset="100%" style="stop-color: #FFCB01; stop-opacity:1"/>
  </linearGradient>
  <linearGradient id="telinkrin" x1="0%" x2="0%" y1="0%" y2="100%">
   <stop offset="0%" style="stop-color: #b2ced6; stop-opacity:1"/>
   <stop offset="100%" style="stop-color: #6da5b7; stop-opacity:1"/>
  </linearGradient>
  <linearGradient id="60spsycho" x1="0%" x2="0%" y1="0%" y2="100%">
   <stop offset="0%" style="stop-color: #df5940; stop-opacity:1"/>
   <stop offset="25%" style="stop-color: #d8d15f; stop-opacity:1"/>
   <stop offset="50%" style="stop-color: #e9882a; stop-opacity:1"/>
   <stop offset="100%" style="stop-color: #279362; stop-opacity:1"/>
  </linearGradient>
  <linearGradient id="90ssummer" x1="0%" x2="0%" y1="0%" y2="100%">
   <stop offset="0%" style="stop-color: #f618c7; stop-opacity:1"/>
   <stop offset="20%" style="stop-color: #94ffab; stop-opacity:1"/>
   <stop offset="50%" style="stop-color: #fbfd54; stop-opacity:1"/>
   <stop offset="100%" style="stop-color: #0f83ae; stop-opacity:1"/>
  </linearGradient>
 </defs>
  <path
     style="display:inline;opacity:1;fill:none;fill-opacity:1;fill-rule:evenodd;stroke:url(#oomox);stroke-width:0.391432;stroke-miterlimit:4;stroke-dasharray:none;stroke-opacity:1;paint-order:markers fill stroke"
     d="m 36.784779,142.21469 c -0.520641,0 -0.939769,0.44731 -0.939769,1.00264 v 7.62975 c 0,0.55535 0.419128,1.0028 0.939769,1.0028 h 10.164457 c 0.520635,0 0.939759,-0.44745 0.939759,-1.0028 v -7.62975 c 0,-0.55533 -0.419124,-1.00264 -0.939759,-1.00264 z m 2.372326,3.91416 a 0.90329821,0.90329821 0 0 1 0.903301,0.90344 0.90329821,0.90329821 0 0 1 -0.903301,0.90327 0.90329821,0.90329821 0 0 1 -0.903298,-0.90327 0.90329821,0.90329821 0 0 1 0.903298,-0.90344 z m 5.419793,0 a 0.90329821,0.90329821 0 0 1 0.903301,0.90344 0.90329821,0.90329821 0 0 1 -0.903301,0.90327 0.90329821,0.90329821 0 0 1 -0.903295,-0.90327 0.90329821,0.90329821 0 0 1 0.903295,-0.90344 z"
     id="rect10"
     class="ColorScheme-Text"
     transform="matrix(0.34042551,0,0,0.34042551,-12.13595,-47.936875)" />
  <path
     style="font-size:2.70466px;line-height:1.25;font-family:'Nimbus Sans';-inkscape-font-specification:'Nimbus Sans';letter-spacing:0px;word-spacing:0px;fill-rule:evenodd;stroke-width:0.105833;fill:url(#oomox)"
     d="m 35.032043,161.46105 h 1.07375 v -0.22179 h -1.07375 v -0.63018 h 1.11432 V 160.3873 H 34.78051 v 1.97169 h 1.414537 v -0.22178 h -1.163004 z m 1.660663,-1.07375 h -0.227192 v 1.97169 h 0.227192 z m 0.595025,0.55445 h -0.224487 v 1.41724 h 0.224487 z m 0,-0.55445 H 37.06054 v 0.28399 h 0.227191 z m 1.379377,0.94933 c -0.0027,-0.27858 -0.186622,-0.43545 -0.513885,-0.43545 -0.329969,0 -0.543637,0.1704 -0.543637,0.43275 0,0.22178 0.113596,0.32726 0.448974,0.4084 l 0.210963,0.0514 c 0.15687,0.0379 0.219077,0.0947 0.219077,0.19474 0,0.13523 -0.132528,0.22448 -0.329968,0.22448 -0.12171,0 -0.224487,-0.0352 -0.281285,-0.0947 -0.03516,-0.0406 -0.05139,-0.0811 -0.06491,-0.18121 h -0.23801 c 0.01082,0.32726 0.194736,0.48413 0.565274,0.48413 0.357015,0 0.584207,-0.1758 0.584207,-0.44897 0,-0.21097 -0.119005,-0.32727 -0.40029,-0.39488 l -0.216373,-0.0514 c -0.183916,-0.0433 -0.262352,-0.10278 -0.262352,-0.20285 0,-0.13253 0.116301,-0.21367 0.300218,-0.21367 0.181212,0 0.27858,0.0784 0.283989,0.22719 z m 1.611979,0.88984 c -0.02434,0.005 -0.03516,0.005 -0.04868,0.005 -0.07844,0 -0.12171,-0.0406 -0.12171,-0.11089 v -0.83303 c 0,-0.25154 -0.183917,-0.38677 -0.532818,-0.38677 -0.208259,0 -0.373243,0.0595 -0.470611,0.16499 -0.06491,0.073 -0.09196,0.15416 -0.09737,0.2948 h 0.227191 c 0.01893,-0.17309 0.12171,-0.25153 0.332673,-0.25153 0.205554,0 0.316445,0.0757 0.316445,0.21096 v 0.0595 c -0.0027,0.0974 -0.05139,0.13252 -0.235305,0.15687 -0.31915,0.0406 -0.367834,0.0514 -0.454383,0.0866 -0.164984,0.0703 -0.248829,0.19473 -0.248829,0.37865 0,0.25694 0.178508,0.41922 0.465202,0.41922 0.178507,0 0.321854,-0.0622 0.481429,-0.20826 0.01623,0.14605 0.08655,0.20826 0.232601,0.20826 0.04868,0 0.07843,-0.005 0.154166,-0.0243 z m -0.394881,-0.31375 c 0,0.0757 -0.02164,0.12171 -0.08925,0.18392 -0.09196,0.0838 -0.20285,0.12712 -0.335378,0.12712 -0.175803,0 -0.27858,-0.0838 -0.27858,-0.22719 0,-0.14876 0.09737,-0.22449 0.340787,-0.25965 0.240715,-0.0325 0.286694,-0.0433 0.362424,-0.0784 z"
     id="text955"
     class="ColorScheme-Text"
     transform="matrix(0.43214713,0,0,0.34730198,-14.052073,-54.844958)"/>
  <path
     id="path891"
     class="ColorScheme-Text"
     style="display:inline;fill-rule:evenodd;fill:url(#oomox);fill-opacity:1;stroke:none;stroke-width:0.23334px;stroke-linecap:butt;stroke-linejoin:miter;stroke-opacity:1"
     d="m 38.427345,149.41365 -1.058165,1.85216 h 8.995643 l -1.058165,-1.85216 z m 1.058164,0.26466 a 0.52916664,0.52916664 0 0 1 0.529332,0.52884 0.52916664,0.52916664 0 0 1 -0.529332,0.52933 0.52916664,0.52916664 0 0 1 -0.528833,-0.52933 0.52916664,0.52916664 0 0 1 0.528833,-0.52884 z m 4.762985,0 a 0.52916664,0.52916664 0 0 1 0.528833,0.52884 0.52916664,0.52916664 0 0 1 -0.528833,0.52933 0.52916664,0.52916664 0 0 1 -0.529331,-0.52933 0.52916664,0.52916664 0 0 1 0.529331,-0.52884 z"
     transform="matrix(0.38740876,0,0,0.38740876,-14.102998,-54.783659)" />
  <path
     id="rect850"
     class="ColorScheme-Text"
     style="display:inline;fill:url(#oomox);fill-opacity:1;fill-rule:nonzero;stroke:none;stroke-width:0.2;stroke-dasharray:none;stroke-opacity:1;opacity:1;stroke-miterlimit:4;paint-order:markers fill stroke"
     d="m 14.818018,19.999683 c -2.114942,0 -3.818675,1.781049 -3.818675,3.993734 v 0.01201 c 0,2.212645 1.703733,3.993733 3.818675,3.993733 h 18.363966 c 2.114946,0 3.818676,-1.781086 3.818676,-3.993733 v -0.01201 c 0,-2.212683 -1.70373,-3.993734 -3.818676,-3.993734 z m 0.181924,1.000579 a 3,3 0 0 1 3.000019,3.00002 3,3 0 0 1 -3.000019,3.00002 3,3 0 0 1 -3.00002,-3.00002 3,3 0 0 1 3.00002,-3.00002 z m 18.000119,0 a 3,3 0 0 1 3.00002,3.00002 3,3 0 0 1 -3.00002,3.00002 3,3 0 0 1 -3.00002,-3.00002 3,3 0 0 1 3.00002,-3.00002 z M 19.00054,22.000841 h 9.998922 v 3.998882 H 19.00054 Z"
     transform="matrix(0.1025019,0,0,0.1025019,-0.34339985,-0.34340919)" />
  <metadata
     id="metadata173">
    <rdf:RDF>
      <cc:Work
         rdf:about="">
        <cc:license
           rdf:resource="http://creativecommons.org/licenses/by-sa/4.0/" />
        <dc:creator>
          <cc:Agent>
            <dc:title>dreifacherspass</dc:title>
          </cc:Agent>
        </dc:creator>
      </cc:Work>
      <cc:License
         rdf:about="http://creativecommons.org/licenses/by-sa/4.0/">
        <cc:permits
           rdf:resource="http://creativecommons.org/ns#Reproduction" />
        <cc:permits
           rdf:resource="http://creativecommons.org/ns#Distribution" />
        <cc:requires
           rdf:resource="http://creativecommons.org/ns#Notice" />
        <cc:requires
           rdf:resource="http://creativecommons.org/ns#Attribution" />
        <cc:permits
           rdf:resource="http://creativecommons.org/ns#DerivativeWorks" />
        <cc:requires
           rdf:resource="http://creativecommons.org/ns#ShareAlike" />
      </cc:License>
    </rdf:RDF>
  </metadata>
</svg>
