<?xml version="1.0" encoding="UTF-8" standalone="no"?>
<svg
   width="16"
   height="16"
   version="1.1"
   id="svg3"
   xmlns:xlink="http://www.w3.org/1999/xlink"
   xmlns="http://www.w3.org/2000/svg"
   xmlns:svg="http://www.w3.org/2000/svg"
   xmlns:rdf="http://www.w3.org/1999/02/22-rdf-syntax-ns#"
   xmlns:cc="http://creativecommons.org/ns#"
   xmlns:dc="http://purl.org/dc/elements/1.1/">
  <defs>
   <style id="current-color-scheme" type="text/css">
   .ColorScheme-Text { color: #0abdc6; } .ColorScheme-Highlight { color:#5294e2; }
  </style>
  <linearGradient id="arrongin" x1="0%" x2="0%" y1="0%" y2="100%">
   <stop offset="0%" style="stop-color:#dd9b44; stop-opacity:1"/>
   <stop offset="100%" style="stop-color:#ad6c16; stop-opacity:1"/>
  </linearGradient>
  <linearGradient id="aurora" x1="0%" x2="0%" y1="0%" y2="100%">
   <stop offset="0%" style="stop-color:#09D4DF; stop-opacity:1"/>
   <stop offset="100%" style="stop-color:#9269F4; stop-opacity:1"/>
  </linearGradient>
  <linearGradient id="cyberneon" x1="0%" x2="0%" y1="0%" y2="100%">
    <stop offset="0" style="stop-color:#0abdc6; stop-opacity:1"/>
    <stop offset="1" style="stop-color:#ea00d9; stop-opacity:1"/>
  </linearGradient>
  <linearGradient id="fitdance" x1="0%" x2="0%" y1="0%" y2="100%">
   <stop offset="0%" style="stop-color:#1AD6AB; stop-opacity:1"/>
   <stop offset="100%" style="stop-color:#329DB6; stop-opacity:1"/>
  </linearGradient>
  <linearGradient id="oomox" x1="0%" x2="0%" y1="0%" y2="100%">
   <stop offset="0%" style="stop-color:#0abdc6; stop-opacity:1"/>
   <stop offset="100%" style="stop-color:#b800ff; stop-opacity:1"/>
  </linearGradient>
  <linearGradient id="rainblue" x1="0%" x2="0%" y1="0%" y2="100%">
   <stop offset="0%" style="stop-color:#00F260; stop-opacity:1"/>
   <stop offset="100%" style="stop-color:#0575E6; stop-opacity:1"/>
  </linearGradient>
  <linearGradient id="sunrise" x1="0%" x2="0%" y1="0%" y2="100%">
   <stop offset="0%" style="stop-color: #FF8501; stop-opacity:1"/>
   <stop offset="100%" style="stop-color: #FFCB01; stop-opacity:1"/>
  </linearGradient>
  <linearGradient id="telinkrin" x1="0%" x2="0%" y1="0%" y2="100%">
   <stop offset="0%" style="stop-color: #b2ced6; stop-opacity:1"/>
   <stop offset="100%" style="stop-color: #6da5b7; stop-opacity:1"/>
  </linearGradient>
  <linearGradient id="60spsycho" x1="0%" x2="0%" y1="0%" y2="100%">
   <stop offset="0%" style="stop-color: #df5940; stop-opacity:1"/>
   <stop offset="25%" style="stop-color: #d8d15f; stop-opacity:1"/>
   <stop offset="50%" style="stop-color: #e9882a; stop-opacity:1"/>
   <stop offset="100%" style="stop-color: #279362; stop-opacity:1"/>
  </linearGradient>
  <linearGradient id="90ssummer" x1="0%" x2="0%" y1="0%" y2="100%">
   <stop offset="0%" style="stop-color: #f618c7; stop-opacity:1"/>
   <stop offset="20%" style="stop-color: #94ffab; stop-opacity:1"/>
   <stop offset="50%" style="stop-color: #fbfd54; stop-opacity:1"/>
   <stop offset="100%" style="stop-color: #0f83ae; stop-opacity:1"/>
  </linearGradient>
 </defs>
  <path
     id="rect1"
     class="ColorScheme-Text"
     style="display:inline;fill:url(#oomox)"
     d="M 1.0917969 2 C 0.48738408 2 -1.4802959e-16 2.5017512 0 3.125 L 0 12.875 C 0 13.498248 0.48738408 14 1.0917969 14 L 9.7558594 14 C 10.517619 11.931135 10.223089 10.366806 9.3476562 9.0839844 L 9.3496094 9.78125 L 9.3535156 10.525391 L 9.4628906 10.525391 L 9.5703125 10.525391 L 9.5703125 10.664062 L 9.5703125 10.802734 L 9.4628906 10.802734 L 9.3535156 10.802734 L 9.3535156 10.927734 L 9.3535156 11.052734 L 9.1816406 11.052734 L 9.0078125 11.052734 L 9.0078125 10.927734 L 9.0078125 10.802734 L 8.5078125 10.802734 C 8.2329993 10.802734 8.0078125 10.800075 8.0078125 10.796875 C 8.0078125 10.793683 8.3095535 10.39641 8.6777344 9.9140625 L 9.3300781 9.0585938 C 7.7648713 6.7917815 4.3765739 5.4072656 1.7597656 3.6816406 C 0.86120721 2.9782295 1.0053864 2.4542244 1.5566406 2 L 1.0917969 2 z M 7.0332031 9.0488281 C 7.1192049 9.0496485 7.2038998 9.059483 7.2558594 9.0761719 C 7.4201011 9.1289171 7.559072 9.2503713 7.6425781 9.4160156 C 7.6896079 9.5092504 7.6900793 9.5145989 7.6894531 9.6503906 C 7.688705 9.802726 7.6720976 9.8725327 7.6074219 9.9726562 C 7.5872656 10.003862 7.4370305 10.180736 7.2753906 10.367188 L 6.9824219 10.707031 L 7.3398438 10.708984 L 7.6972656 10.712891 L 7.6972656 10.863281 L 7.6972656 11.013672 L 6.984375 11.013672 L 6.2734375 11.013672 L 6.3242188 10.955078 C 6.3524067 10.922071 6.5792933 10.656407 6.8300781 10.367188 C 7.1146685 10.03898 7.2995336 9.8170316 7.3203125 9.7753906 C 7.3971292 9.6214669 7.3292496 9.458631 7.1582031 9.3828125 C 6.9619326 9.2958147 6.7113694 9.4447791 6.7109375 9.6484375 L 6.7109375 9.6835938 L 6.5292969 9.6835938 L 6.3515625 9.6835938 L 6.359375 9.6347656 C 6.4143441 9.3132906 6.5538802 9.1363327 6.8007812 9.0722656 C 6.8609703 9.0566485 6.9472017 9.0480036 7.0332031 9.0488281 z M 0.7265625 9.0800781 L 1.1933594 9.0800781 L 1.6582031 9.0800781 L 1.6679688 9.2148438 C 1.6725487 9.28844 1.6757812 9.367525 1.6757812 9.390625 L 1.6757812 9.4316406 L 1.375 9.4316406 L 1.0722656 9.4316406 L 1.0722656 9.6269531 L 1.0722656 9.8203125 L 1.3476562 9.8203125 L 1.625 9.8203125 L 1.625 9.9902344 L 1.625 10.160156 L 1.3476562 10.160156 L 1.0722656 10.160156 L 1.0722656 10.412109 L 1.0722656 10.662109 L 1.375 10.662109 L 1.6796875 10.662109 L 1.671875 10.796875 C 1.667295 10.870482 1.6621094 10.949556 1.6621094 10.972656 L 1.6621094 11.013672 L 1.1953125 11.013672 L 0.7265625 11.013672 L 0.7265625 10.046875 L 0.7265625 9.0800781 z M 2.5058594 9.7597656 C 2.6856429 9.7587477 2.863615 9.8285198 2.953125 9.9609375 C 3.0264269 10.069395 3.0332031 10.125316 3.0332031 10.59375 L 3.0332031 11.013672 L 2.8671875 11.013672 L 2.7011719 11.013672 L 2.6992188 10.613281 C 2.6981118 10.162843 2.6932228 10.129641 2.6230469 10.082031 C 2.5839756 10.055631 2.5668637 10.052941 2.4804688 10.056641 C 2.3621868 10.061852 2.3261538 10.083051 2.2792969 10.175781 C 2.2475389 10.238637 2.2460575 10.242678 2.2421875 10.626953 L 2.2382812 11.013672 L 2.0722656 11.013672 L 1.90625 11.013672 L 1.90625 10.40625 C 1.90625 10.071542 1.9090294 9.796875 1.9121094 9.796875 C 1.9151834 9.796875 1.9540169 9.8287845 1.9980469 9.8671875 L 2.078125 9.9375 L 2.125 9.8925781 C 2.2238347 9.8032832 2.366027 9.7605504 2.5058594 9.7597656 z M 3.3007812 9.8359375 L 3.4921875 9.8359375 L 3.6445312 10.130859 C 3.7277589 10.292811 3.7992344 10.425801 3.8027344 10.425781 C 3.806258 10.425756 3.8777906 10.292787 3.9609375 10.130859 L 4.1113281 9.8359375 L 4.3027344 9.8359375 C 4.4080816 9.8359375 4.4941406 9.8380038 4.4941406 9.8398438 C 4.4941406 9.841707 4.3378046 10.127507 4.1484375 10.474609 L 3.8046875 11.105469 L 3.4570312 10.476562 C 3.2658874 10.130625 3.1113281 9.8448169 3.1113281 9.8417969 C 3.1113281 9.8386569 3.1955152 9.8359375 3.3007812 9.8359375 z M 4.8066406 9.8359375 L 5.0019531 9.8359375 L 5.1738281 10.240234 C 5.2679365 10.462099 5.3491156 10.638012 5.3535156 10.632812 C 5.3579197 10.627627 5.4398665 10.447149 5.5371094 10.230469 L 5.7148438 9.8359375 L 5.9101562 9.8359375 L 6.1054688 9.8359375 L 5.9101562 10.255859 C 5.8029703 10.486633 5.6051262 10.916746 5.46875 11.210938 L 5.2207031 11.744141 L 5.015625 11.744141 C 4.8571379 11.744141 4.8132094 11.740936 4.8183594 11.728516 C 4.822016 11.719708 4.8935936 11.568741 4.9765625 11.392578 C 5.0595319 11.216414 5.1259423 11.063314 5.125 11.052734 C 5.1240461 11.042165 5.0084764 10.769205 4.8671875 10.445312 C 4.7258992 10.121422 4.609375 9.8512031 4.609375 9.8457031 C 4.609375 9.8401831 4.6984148 9.8359375 4.8066406 9.8359375 z M 8.9960938 10.019531 C 8.9945638 10.019531 8.9921244 10.021438 8.9902344 10.023438 C 8.9488267 10.066941 8.6230469 10.501952 8.6230469 10.513672 C 8.6230469 10.522032 8.6933581 10.525391 8.8164062 10.525391 L 9.0078125 10.525391 L 9.0078125 10.265625 C 9.0078125 10.072485 9.0065557 10.019099 8.9960938 10.019531 z " />
  <path
     id="path1"
     class="ColorScheme-Text"
     style="fill:url(#oomox);opacity:0.7"
     d="M 1.5585938 2 C 1.0073389 2.4542249 0.8631594 2.9782288 1.7617188 3.6816406 C 5.8649033 6.3874398 11.872697 8.250873 9.7558594 14 L 14.908203 14 C 15.512566 14 16 13.498248 16 12.875 L 16 3.125 C 16 2.5017507 15.512566 2 14.908203 2 L 1.5585938 2 z M 14.515625 2.7246094 C 14.646611 2.7258004 14.737207 2.7469725 14.779297 2.7890625 C 14.846826 2.8565927 14.794132 2.9737229 14.621094 3.1445312 C 14.436623 3.3266238 14.124451 3.5505876 13.6875 3.8125 C 12.736982 4.3822473 11.212251 5.09813 9.9433594 5.5722656 C 9.7797775 5.6333898 9.6335616 5.6870063 9.6191406 5.6914062 C 9.5976034 5.6979629 9.6151161 5.6619446 9.7167969 5.4863281 C 9.7848257 5.3688311 10.126773 4.776133 10.476562 4.1699219 C 10.826351 3.5637119 11.119553 3.0607944 11.126953 3.0527344 C 11.137553 3.041218 11.272575 3.0406488 11.753906 3.0429688 L 12.367188 3.0449219 L 11.847656 3.9433594 C 11.56218 4.4373087 11.325866 4.8482719 11.322266 4.8574219 C 11.316805 4.8711159 11.57597 4.7437355 11.710938 4.6660156 C 11.739226 4.6497257 11.840592 4.4824119 12.201172 3.8574219 C 12.450828 3.4246985 12.660869 3.0644675 12.667969 3.0546875 C 12.67847 3.0403252 12.722833 3.1079866 12.900391 3.4160156 C 13.02106 3.6253501 13.124959 3.796875 13.130859 3.796875 C 13.163896 3.796875 13.562409 3.4773172 13.699219 3.3417969 C 13.836313 3.2060002 13.889999 3.125099 13.890625 3.0488281 C 13.890995 2.9980062 13.888055 2.9863997 13.859375 2.9648438 C 13.829194 2.9422088 13.811397 2.940559 13.660156 2.9414062 C 13.528162 2.9420992 13.464301 2.9477373 13.345703 2.9726562 C 13.264013 2.9898252 13.194453 3.004164 13.189453 3.0039062 C 13.16221 3.0024843 13.257433 2.9658715 13.384766 2.9296875 C 13.869373 2.7919783 14.265561 2.7223594 14.515625 2.7246094 z M 9.5878906 3.0390625 L 10.207031 3.0390625 L 10.828125 3.0390625 L 10.332031 3.8984375 C 10.058839 4.3715384 9.6788936 5.0292405 9.4882812 5.359375 C 9.2976697 5.689503 9.1363894 5.9610906 9.1308594 5.9628906 C 9.1253244 5.9646388 8.9167102 5.612948 8.6679688 5.1816406 C 8.4192274 4.7503336 8.0410112 4.0927639 7.8261719 3.7207031 L 7.4355469 3.0449219 L 8.0507812 3.0429688 C 8.3888918 3.0413088 8.6691081 3.042015 8.6738281 3.046875 C 8.6855839 3.0590081 8.9746094 3.5620825 8.9746094 3.5703125 C 8.9746094 3.5739367 8.9077457 3.6950993 8.8242188 3.8398438 L 8.671875 4.1035156 L 8.7421875 4.2304688 C 8.7813967 4.3002266 8.818048 4.3575505 8.8222656 4.3574219 C 8.8264911 4.3572867 9.0006212 4.0595751 9.2089844 3.6972656 L 9.5878906 3.0390625 z M 13.408203 4.3085938 L 13.410156 4.3085938 C 13.415919 4.3143563 13.635919 4.6918857 13.898438 5.1464844 L 14.375 5.9726562 L 13.759766 5.9765625 C 13.210318 5.9792745 13.142939 5.9773885 13.130859 5.9609375 C 13.123419 5.9508076 13.018845 5.7706822 12.898438 5.5625 C 12.778031 5.3543177 12.675322 5.1899025 12.669922 5.1953125 C 12.664515 5.2007181 12.560735 5.376661 12.439453 5.5878906 L 12.21875 5.9726562 L 11.599609 5.9765625 C 11.259159 5.9781125 10.982422 5.9771094 10.982422 5.9746094 C 10.982422 5.965038 11.437942 5.1791706 11.451172 5.1660156 C 11.45876 5.1584676 11.560313 5.1143213 11.675781 5.0683594 C 12.194454 4.8619037 12.667818 4.6530882 13.144531 4.421875 C 13.285935 4.3532931 13.390603 4.3088427 13.408203 4.3085938 z M 8.3945312 5.0449219 L 8.3964844 5.0449219 C 8.4001091 5.049208 8.5193774 5.2574 8.5390625 5.2929688 C 8.541399 5.297194 8.4762438 5.3509304 8.3945312 5.4140625 C 8.1865623 5.5747427 7.9872123 5.7769007 7.9394531 5.8730469 C 7.8998658 5.9527482 7.8949485 5.977948 7.9140625 6.0136719 C 7.9547385 6.0896832 8.1410063 6.0993512 8.4394531 6.0390625 C 8.7523071 5.9758627 8.7341092 5.9916237 8.3828125 6.0898438 C 8.1207827 6.1631076 7.835016 6.2265873 7.625 6.2578125 C 7.202777 6.3206047 6.9963026 6.281459 7 6.140625 C 7.004603 5.965009 7.4193134 5.6163862 8.1230469 5.1953125 C 8.3054988 5.086145 8.3813625 5.0441852 8.3945312 5.0449219 z M 11.041016 5.3222656 C 11.050216 5.3217656 11.052128 5.3247581 11.048828 5.3300781 C 11.040084 5.3439096 10.952166 5.4944158 10.853516 5.6660156 L 10.673828 5.9785156 L 10.058594 5.9785156 C 9.7197986 5.9785156 9.4414062 5.9748631 9.4414062 5.9707031 C 9.4414062 5.9665331 9.4649295 5.9241641 9.4921875 5.8769531 C 9.5360755 5.8009522 9.5465837 5.7904759 9.5878906 5.7792969 C 9.7769779 5.7281614 10.308853 5.5598541 10.652344 5.4433594 C 10.913458 5.3548091 11.013156 5.3239256 11.041016 5.3222656 z " />
  <metadata
     id="metadata9">
    <rdf:RDF>
      <cc:Work
         rdf:about="">
        <dc:creator>
          <cc:Agent>
            <dc:title>dreifacherspass</dc:title>
          </cc:Agent>
        </dc:creator>
        <cc:license
           rdf:resource="http://creativecommons.org/licenses/by-sa/4.0/" />
      </cc:Work>
      <cc:License
         rdf:about="http://creativecommons.org/licenses/by-sa/4.0/">
        <cc:permits
           rdf:resource="http://creativecommons.org/ns#Reproduction" />
        <cc:permits
           rdf:resource="http://creativecommons.org/ns#Distribution" />
        <cc:requires
           rdf:resource="http://creativecommons.org/ns#Notice" />
        <cc:requires
           rdf:resource="http://creativecommons.org/ns#Attribution" />
        <cc:permits
           rdf:resource="http://creativecommons.org/ns#DerivativeWorks" />
        <cc:requires
           rdf:resource="http://creativecommons.org/ns#ShareAlike" />
      </cc:License>
    </rdf:RDF>
  </metadata>
</svg>
