<?xml version="1.0" encoding="UTF-8" standalone="no"?>
<svg
   fill="#000000"
   height="16"
   width="16"
   version="1.1"
   id="Layer_1"
   viewBox="0 0 10.24 10.24"
   xml:space="preserve"
   xmlns:xlink="http://www.w3.org/1999/xlink"
   xmlns="http://www.w3.org/2000/svg"
   xmlns:svg="http://www.w3.org/2000/svg"
   xmlns:rdf="http://www.w3.org/1999/02/22-rdf-syntax-ns#"
   xmlns:cc="http://creativecommons.org/ns#"
   xmlns:dc="http://purl.org/dc/elements/1.1/">
  <defs>
   <style id="current-color-scheme" type="text/css">
   .ColorScheme-Text { color: #0abdc6; } .ColorScheme-Highlight { color:#5294e2; }
  </style>
  <linearGradient id="arrongin" x1="0%" x2="0%" y1="0%" y2="100%">
   <stop offset="0%" style="stop-color:#dd9b44; stop-opacity:1"/>
   <stop offset="100%" style="stop-color:#ad6c16; stop-opacity:1"/>
  </linearGradient>
  <linearGradient id="aurora" x1="0%" x2="0%" y1="0%" y2="100%">
   <stop offset="0%" style="stop-color:#09D4DF; stop-opacity:1"/>
   <stop offset="100%" style="stop-color:#9269F4; stop-opacity:1"/>
  </linearGradient>
  <linearGradient id="cyberneon" x1="0%" x2="0%" y1="0%" y2="100%">
    <stop offset="0" style="stop-color:#0abdc6; stop-opacity:1"/>
    <stop offset="1" style="stop-color:#ea00d9; stop-opacity:1"/>
  </linearGradient>
  <linearGradient id="fitdance" x1="0%" x2="0%" y1="0%" y2="100%">
   <stop offset="0%" style="stop-color:#1AD6AB; stop-opacity:1"/>
   <stop offset="100%" style="stop-color:#329DB6; stop-opacity:1"/>
  </linearGradient>
  <linearGradient id="oomox" x1="0%" x2="0%" y1="0%" y2="100%">
   <stop offset="0%" style="stop-color:#0abdc6; stop-opacity:1"/>
   <stop offset="100%" style="stop-color:#b800ff; stop-opacity:1"/>
  </linearGradient>
  <linearGradient id="rainblue" x1="0%" x2="0%" y1="0%" y2="100%">
   <stop offset="0%" style="stop-color:#00F260; stop-opacity:1"/>
   <stop offset="100%" style="stop-color:#0575E6; stop-opacity:1"/>
  </linearGradient>
  <linearGradient id="sunrise" x1="0%" x2="0%" y1="0%" y2="100%">
   <stop offset="0%" style="stop-color: #FF8501; stop-opacity:1"/>
   <stop offset="100%" style="stop-color: #FFCB01; stop-opacity:1"/>
  </linearGradient>
  <linearGradient id="telinkrin" x1="0%" x2="0%" y1="0%" y2="100%">
   <stop offset="0%" style="stop-color: #b2ced6; stop-opacity:1"/>
   <stop offset="100%" style="stop-color: #6da5b7; stop-opacity:1"/>
  </linearGradient>
  <linearGradient id="60spsycho" x1="0%" x2="0%" y1="0%" y2="100%">
   <stop offset="0%" style="stop-color: #df5940; stop-opacity:1"/>
   <stop offset="25%" style="stop-color: #d8d15f; stop-opacity:1"/>
   <stop offset="50%" style="stop-color: #e9882a; stop-opacity:1"/>
   <stop offset="100%" style="stop-color: #279362; stop-opacity:1"/>
  </linearGradient>
  <linearGradient id="90ssummer" x1="0%" x2="0%" y1="0%" y2="100%">
   <stop offset="0%" style="stop-color: #f618c7; stop-opacity:1"/>
   <stop offset="20%" style="stop-color: #94ffab; stop-opacity:1"/>
   <stop offset="50%" style="stop-color: #fbfd54; stop-opacity:1"/>
   <stop offset="100%" style="stop-color: #0f83ae; stop-opacity:1"/>
  </linearGradient>
 </defs>
 <path
   d="M 7.458618,2.194561 C 6.743073,2.4171688 5.9414146,2.5375677 5.119954,2.5375677 c -0.023673,0 -0.047279,-3.773e-4 -0.070906,-5.42e-4 C 5.008114,3.1463296 4.981524,3.8140823 4.971728,4.5130451 5.020453,4.513491 5.06941,4.5137997 5.1186482,4.5137997 6.1842913,4.5137763 7.2201029,4.402872 8.0689698,4.2002174 7.9719403,3.4808771 7.7624877,2.8012093 7.458618,2.194561 Z"
   id="path2851"
   class="ColorScheme-Text"
   style="fill:url(#oomox);fill-opacity:1;stroke-width:0.0234129" />
 <path
   d="M 5.3884174,8.2255604e-4 C 5.2640753,0.46765941 5.1616347,1.1679382 5.0889328,2.0135513 c 0.010356,2.35e-5 0.020664,2.35e-4 0.030999,2.35e-4 0.7296795,0 1.4397664,-0.1001878 2.0770578,-0.2861092 C 6.7346529,0.98631746 6.1182599,0.38573266 5.3884174,8.2255604e-4 Z"
   id="path2857"
   class="ColorScheme-Text"
   style="fill:url(#oomox);fill-opacity:1;stroke-width:0.0234129" />
 <path
   d="M 3.0429897,1.7276771 C 3.5189233,1.8665249 4.035418,1.9574059 4.5704322,1.9945385 4.639892,1.1832848 4.7362215,0.4945688 4.8530301,0 4.1225578,0.38493361 3.5056518,0.9858004 3.0429897,1.7276771 Z"
   id="path2863"
   class="ColorScheme-Text"
   style="fill:url(#oomox);fill-opacity:1;stroke-width:0.0234129" />
 <path
   d="M 10.086947,3.8667978 C 9.7214542,4.2052686 9.1428233,4.4391336 8.6314135,4.5919649 c 0.012456,0.1744764 0.018938,0.3505743 0.018938,0.5279882 0,0.7080579 -0.1014607,1.3963981 -0.2907381,2.0403903 C 9.004042,6.9515547 9.5908598,6.6798518 10.091867,6.3527561 10.188406,5.9575521 10.24,5.5447455 10.24,5.1199531 10.24,4.6878751 10.18673,4.268159 10.086947,3.8667978 Z"
   id="path2869"
   class="ColorScheme-Text"
   style="fill:url(#oomox);fill-opacity:1;stroke-width:0.0234129" />
 <path
   d="m 1.589672,5.1199531 c 0,-0.177179 0.00651,-0.3529712 0.018893,-0.527189 C 1.1032657,4.4420478 0.52118284,4.2084884 0.15268127,3.8684429 0.05315622,4.2692872 0,4.6884627 0,5.1199295 0,5.5447455 0.05159349,5.9575757 0.14815635,6.3528265 0.64874396,6.6796405 1.2350251,6.9511318 1.8788008,7.1598498 1.6881941,6.5103347 1.589672,5.8223706 1.589672,5.1199531 Z"
   id="path2875"
   class="ColorScheme-Text"
   style="fill:url(#oomox);fill-opacity:1;stroke-width:0.0234129" />
 <path
   d="M 1.4085584,1.569793 C 0.94874191,2.0575934 0.58261938,2.6357106 0.33892645,3.2745796 0.47136217,3.5512411 0.94197786,3.8357051 1.6657328,4.0622142 1.7712755,3.3338979 1.9842736,2.6431841 2.2887265,2.0195912 1.9698825,1.8912487 1.6741996,1.7406501 1.4085584,1.569793 Z"
   id="path2881"
   class="ColorScheme-Text"
   style="fill:url(#oomox);fill-opacity:1;stroke-width:0.0234129" />
 <path
   d="M 8.1492289,7.7695531 C 7.7848792,8.6820283 7.2351238,9.4780297 6.5443496,10.075559 8.0386249,9.6388277 9.2532876,8.5330748 9.8465194,7.1027642 9.3347362,7.3735738 8.7623796,7.5976386 8.1492289,7.7695531 Z"
   id="path2887"
   class="ColorScheme-Text"
   style="fill:url(#oomox);fill-opacity:1;stroke-width:0.0234129" />
 <path
   d="m 1.7987516,1.1971272 c 0.2259198,0.1355106 0.4742543,0.255745 0.740152,0.359552 C 2.8562315,1.0239671 3.2453053,0.55266492 3.6941124,0.1648406 2.9877576,0.37153767 2.3439586,0.72777575 1.7987516,1.1971272 Z"
   id="path2893"
   class="ColorScheme-Text"
   style="fill:url(#oomox);fill-opacity:1;stroke-width:0.0234129" />
 <path
   d="M 6.5459121,0.1648406 C 6.9947428,0.55266492 7.38377,1.0239436 7.7011212,1.5566556 7.9669956,1.4528488 8.21533,1.3325909 8.44125,1.1970803 7.8960428,0.72775225 7.2522438,0.37153767 6.5459121,0.1648406 Z"
   id="path2899"
   class="ColorScheme-Text"
   style="fill:url(#oomox);fill-opacity:1;stroke-width:0.0234129" />
 <path
   d="M 8.83142,1.5697695 C 8.5658019,1.7406266 8.2701422,1.8912252 7.9512751,2.0195677 8.2556813,2.6431136 8.468656,3.3337569 8.5742455,4.0620025 9.2535675,3.8486545 9.72402,3.5782212 9.8821123,3.3052728 c 0.00592,-0.010246 0.012664,-0.019716 0.019687,-0.02886 C 9.6580819,2.6368151 9.2916795,2.0580399 8.83142,1.5697695 Z"
   id="path2905"
   class="ColorScheme-Text"
   style="fill:url(#oomox);fill-opacity:1;stroke-width:0.0234129" />
 <path
   d="M 2.451064,8.5291971 C 2.3146865,8.2852735 2.1940296,8.031291 2.0892332,7.7691301 1.4766888,7.597286 0.90486878,7.3734092 0.39355211,7.1028111 0.98666729,8.5328869 2.2010502,9.6384518 3.6949989,10.075324 3.2109251,9.6566421 2.7898271,9.1351169 2.451064,8.5291971 Z"
   id="path2911"
   class="ColorScheme-Text"
   style="fill:url(#oomox);fill-opacity:1;stroke-width:0.0234129" />
 <path
   d="M 2.781407,2.1945845 C 2.4774906,2.8013268 2.2680145,3.4810887 2.1709851,4.2005682 2.8064341,4.352483 3.5795898,4.4619539 4.4521309,4.4994861 4.4622075,3.8010168 4.4891699,3.1313135 4.5306174,2.5166277 3.9172566,2.4734786 3.3245149,2.3635614 2.781407,2.1945845 Z"
   id="path2917"
   class="ColorScheme-Text"
   style="fill:url(#oomox);fill-opacity:1;stroke-width:0.0234129" />
 <path
   d="m 4.4476291,5.1199295 c 0,-0.032267 4.67e-5,-0.064488 1.403e-4,-0.096662 C 3.6106111,4.9877564 2.8119852,4.8861821 2.1207445,4.7270994 c -0.00737,0.1300346 -0.011266,0.2610094 -0.011266,0.3928301 0,0.7787978 0.1296834,1.5283363 0.3688514,2.2117878 0.6458283,0.1624435 1.3360893,0.2654748 2.0461994,0.302584 -0.049727,-0.7708781 -0.0769,-1.6254451 -0.0769,-2.5143718 z"
   id="path2923"
   class="ColorScheme-Text"
   style="fill:url(#oomox);fill-opacity:1;stroke-width:0.0234129" />
 <path
   d="M 4.5630848,8.1608324 C 3.9306449,8.1311275 3.3114997,8.0510561 2.7213234,7.9249933 3.1997761,8.9375149 3.9366857,9.7576523 4.8529834,10.24 4.7319764,9.7280636 4.6329882,9.0089834 4.5630848,8.1608324 Z"
   id="path2929"
   class="ColorScheme-Text"
   style="fill:url(#oomox);fill-opacity:1;stroke-width:0.0234129" />
 <path
   d="M 8.1192336,4.7263239 C 7.2448733,4.927686 6.1943675,5.0375563 5.1186713,5.0375563 c -0.050451,0 -0.1007847,-3.053e-4 -0.1510952,-8.233e-4 -4.69e-5,0.027708 -9.36e-5,0.055417 -9.36e-5,0.083196 0,0.8903136 0.02848,1.7543281 0.07977,2.5296478 0.024259,1.644e-4 0.048445,5.832e-4 0.072725,5.832e-4 0.9177905,0 1.8144722,-0.1106225 2.6388717,-0.3176954 C 7.9996962,6.6472734 8.130546,5.8969598 8.130546,5.1199714 8.1305228,4.9878687 8.1266277,4.8565887 8.1192336,4.7263187 Z"
   id="path2935"
   class="ColorScheme-Text"
   style="fill:url(#oomox);fill-opacity:1;stroke-width:0.0234129" />
 <path
   d="m 5.119954,8.1739462 c -0.011149,0 -0.022274,-2.35e-4 -0.033423,-2.586e-4 0.073355,0.8702663 0.1772184,1.594094 0.3021668,2.0660544 0.00255,-0.0014 0.00487,-0.0031 0.00751,-0.0045 C 6.3050416,9.7531386 7.0379398,8.9336827 7.5153193,7.9256968 6.7538488,8.0881167 5.9441203,8.1739448 5.119954,8.1739448 Z"
   id="path2941"
   class="ColorScheme-Text"
   style="fill:url(#oomox);fill-opacity:1;stroke-width:0.0234129" />
 <metadata
   id="metadata3081"><rdf:RDF><cc:Work
       rdf:about=""><dc:creator><cc:Agent><dc:title>dreifacherspass</dc:title></cc:Agent></dc:creator><cc:license
         rdf:resource="http://creativecommons.org/licenses/by-sa/4.0/" /></cc:Work><cc:License
       rdf:about="http://creativecommons.org/licenses/by-sa/4.0/"><cc:permits
         rdf:resource="http://creativecommons.org/ns#Reproduction" /><cc:permits
         rdf:resource="http://creativecommons.org/ns#Distribution" /><cc:requires
         rdf:resource="http://creativecommons.org/ns#Notice" /><cc:requires
         rdf:resource="http://creativecommons.org/ns#Attribution" /><cc:permits
         rdf:resource="http://creativecommons.org/ns#DerivativeWorks" /><cc:requires
         rdf:resource="http://creativecommons.org/ns#ShareAlike" /></cc:License></rdf:RDF></metadata></svg>
