<?xml version="1.0" encoding="UTF-8" standalone="no"?>
<svg
   height="16"
   width="16"
   version="1.1"
   id="Layer_1"
   viewBox="0 0 9.63788 9.63788"
   xml:space="preserve"
   xmlns:xlink="http://www.w3.org/1999/xlink"
   xmlns="http://www.w3.org/2000/svg"
   xmlns:svg="http://www.w3.org/2000/svg"
   xmlns:rdf="http://www.w3.org/1999/02/22-rdf-syntax-ns#"
   xmlns:cc="http://creativecommons.org/ns#"
   xmlns:dc="http://purl.org/dc/elements/1.1/">
  <defs>
   <style id="current-color-scheme" type="text/css">
   .ColorScheme-Text { color: #0abdc6; } .ColorScheme-Highlight { color:#5294e2; }
  </style>
  <linearGradient id="arrongin" x1="0%" x2="0%" y1="0%" y2="100%">
   <stop offset="0%" style="stop-color:#dd9b44; stop-opacity:1"/>
   <stop offset="100%" style="stop-color:#ad6c16; stop-opacity:1"/>
  </linearGradient>
  <linearGradient id="aurora" x1="0%" x2="0%" y1="0%" y2="100%">
   <stop offset="0%" style="stop-color:#09D4DF; stop-opacity:1"/>
   <stop offset="100%" style="stop-color:#9269F4; stop-opacity:1"/>
  </linearGradient>
  <linearGradient id="cyberneon" x1="0%" x2="0%" y1="0%" y2="100%">
    <stop offset="0" style="stop-color:#0abdc6; stop-opacity:1"/>
    <stop offset="1" style="stop-color:#ea00d9; stop-opacity:1"/>
  </linearGradient>
  <linearGradient id="fitdance" x1="0%" x2="0%" y1="0%" y2="100%">
   <stop offset="0%" style="stop-color:#1AD6AB; stop-opacity:1"/>
   <stop offset="100%" style="stop-color:#329DB6; stop-opacity:1"/>
  </linearGradient>
  <linearGradient id="oomox" x1="0%" x2="0%" y1="0%" y2="100%">
   <stop offset="0%" style="stop-color:#0abdc6; stop-opacity:1"/>
   <stop offset="100%" style="stop-color:#b800ff; stop-opacity:1"/>
  </linearGradient>
  <linearGradient id="rainblue" x1="0%" x2="0%" y1="0%" y2="100%">
   <stop offset="0%" style="stop-color:#00F260; stop-opacity:1"/>
   <stop offset="100%" style="stop-color:#0575E6; stop-opacity:1"/>
  </linearGradient>
  <linearGradient id="sunrise" x1="0%" x2="0%" y1="0%" y2="100%">
   <stop offset="0%" style="stop-color: #FF8501; stop-opacity:1"/>
   <stop offset="100%" style="stop-color: #FFCB01; stop-opacity:1"/>
  </linearGradient>
  <linearGradient id="telinkrin" x1="0%" x2="0%" y1="0%" y2="100%">
   <stop offset="0%" style="stop-color: #b2ced6; stop-opacity:1"/>
   <stop offset="100%" style="stop-color: #6da5b7; stop-opacity:1"/>
  </linearGradient>
  <linearGradient id="60spsycho" x1="0%" x2="0%" y1="0%" y2="100%">
   <stop offset="0%" style="stop-color: #df5940; stop-opacity:1"/>
   <stop offset="25%" style="stop-color: #d8d15f; stop-opacity:1"/>
   <stop offset="50%" style="stop-color: #e9882a; stop-opacity:1"/>
   <stop offset="100%" style="stop-color: #279362; stop-opacity:1"/>
  </linearGradient>
  <linearGradient id="90ssummer" x1="0%" x2="0%" y1="0%" y2="100%">
   <stop offset="0%" style="stop-color: #f618c7; stop-opacity:1"/>
   <stop offset="20%" style="stop-color: #94ffab; stop-opacity:1"/>
   <stop offset="50%" style="stop-color: #fbfd54; stop-opacity:1"/>
   <stop offset="100%" style="stop-color: #0f83ae; stop-opacity:1"/>
  </linearGradient>
 </defs>
  <metadata
     id="metadata569">
    <rdf:RDF>
      <cc:Work
         rdf:about="">
        <dc:contributor>
          <cc:Agent>
            <dc:title>dreifacherspass</dc:title>
          </cc:Agent>
        </dc:contributor>
        <cc:license
           rdf:resource="http://creativecommons.org/licenses/by-sa/4.0/" />
      </cc:Work>
      <cc:License
         rdf:about="http://creativecommons.org/licenses/by-sa/4.0/">
        <cc:permits
           rdf:resource="http://creativecommons.org/ns#Reproduction" />
        <cc:permits
           rdf:resource="http://creativecommons.org/ns#Distribution" />
        <cc:requires
           rdf:resource="http://creativecommons.org/ns#Notice" />
        <cc:requires
           rdf:resource="http://creativecommons.org/ns#Attribution" />
        <cc:permits
           rdf:resource="http://creativecommons.org/ns#DerivativeWorks" />
        <cc:requires
           rdf:resource="http://creativecommons.org/ns#ShareAlike" />
      </cc:License>
    </rdf:RDF>
  </metadata>
<path
   d="m 2.2730524,8.7917451 v 0.720945 c 0,0.043746 0.035799,0.079556 0.079555,0.079556 h 4.9326555 c 0.04456,0 0.079554,-0.035821 0.079554,-0.079556 v -0.720945 z"
   id="path7"
   class="ColorScheme-Text"
   style="fill:url(#oomox);stroke-width:0.0105667" />
<path
   d="M 7.3417719,7.691573 6.4007356,8.632632 H 7.3648278 V 7.6406937 c -0.00127,0.018799 -0.00916,0.036973 -0.023056,0.050879 z"
   id="path1"
   class="ColorScheme-Text"
   style="fill:url(#oomox);stroke-width:0.0105667" />
<path
   d="M 7.2852729,4.5003462 H 2.3526071 c -0.043756,0 -0.079555,0.035008 -0.079555,0.079557 v 4.0527187 h 3.856073 V 7.6353155 c 0,-0.043969 0.035588,-0.079557 0.079555,-0.079557 h 1.0768464 c 0.032165,0 0.061222,0.019345 0.0735,0.049101 0.00363,0.00875 0.00541,0.017887 0.0058,0.027009 V 4.5799029 c -7e-7,-0.044549 -0.035008,-0.079557 -0.079556,-0.079557 z"
   id="path2"
   class="ColorScheme-Text"
   style="fill:url(#oomox);stroke-width:0.0105667" />
<path
   d="m 8.1317994,7.0412139 v 0.011496 c 2.61e-4,-0.00385 1.65e-4,-0.00765 0,-0.011496 z"
   id="path3"
   class="ColorScheme-Text"
   style="stroke-width:0.0137503;fill:url(#oomox)" />
<polygon
   points="379.994,380.425 456.2,304.219 379.994,304.219 "
   id="polygon5"
   class="ColorScheme-Text"
   transform="matrix(0.01056644,0,0,0.0105667,2.2730524,4.5002828)"
   style="opacity:0.8;fill:url(#oomox)" />
<path
   d="M 7.0944645,2.0748737 C 7.5883539,1.1659779 7.7733442,0.45638322 7.661652,0.35097358 7.5660155,0.2602237 6.7750945,0.55027453 6.3918507,0.84207043 6.3185525,0.89861463 6.021172,1.7513152 5.9276301,1.7883133 5.8477001,1.8211229 5.8599166,1.2724347 5.9049422,1.0319472 5.5332165,1.2047211 4.9087872,1.6504431 4.5639376,1.959342 4.5370614,1.9837748 4.4676028,3.1017442 4.4354913,3.1352519 4.369872,3.2008711 4.1723165,2.3781879 4.1171685,2.4486937 3.3269466,3.4539238 2.9719746,4.5750346 3.3014665,5.0567075 2.9866342,5.5635109 2.828869,5.891607 2.828869,5.891607 L 3.0714504,5.882177 C 3.2180467,5.6312244 3.3635956,5.3956236 3.5084462,5.1673525 l 0.00978,0.00523 c 0.3483401,0.034206 1.1965026,-0.063873 2.0432692,-0.8561909 0,0 -0.4712015,-0.2691085 -0.3944133,-0.3497363 C 5.2431658,3.8856841 5.9744009,3.6448477 6.0508403,3.5540978 6.3248352,3.2266998 6.4798082,3.0745192 6.687486,2.7561963 6.742285,2.6731252 6.1182048,2.8242588 6.1688151,2.7422349 6.2180297,2.6626541 6.3325141,2.2581187 7.0944645,2.0748737 Z"
   id="path1-3-7"
   style="opacity:0.5;fill:#000000;fill-opacity:1;stroke-width:0.349038" />
<path
   d="M 6.7967436,1.7408265 C 7.2906328,0.83193074 7.4756232,0.12233601 7.3639307,0.01692641 7.2682944,-0.07382352 6.4773737,0.21622731 6.0941298,0.50802327 6.0208316,0.56456745 5.7234511,1.417268 5.6299089,1.454266 5.5499792,1.4870757 5.5621954,0.9383874 5.6072214,0.69789999 5.2354956,0.87067399 4.6110663,1.3163959 4.266217,1.6252948 4.2393409,1.6497276 4.1698823,2.767697 4.1377708,2.8012047 4.0721517,2.8668239 3.874596,2.0441406 3.8194483,2.1146465 3.0292257,3.1198766 2.6742538,4.2409874 3.0037459,4.7226603 2.6889134,5.2294637 2.5311482,5.5575598 2.5311482,5.5575598 l 0.2425815,-0.00943 C 2.9203258,5.2971772 3.0658748,5.0615764 3.2107256,4.8333053 l 0.00978,0.00523 c 0.34834,0.034206 1.1965028,-0.063873 2.0432689,-0.8561909 0,0 -0.4712016,-0.2691085 -0.3944133,-0.3497363 C 4.9454453,3.5516371 5.67668,3.3108005 5.7531194,3.2200506 6.0271143,2.8926526 6.1820873,2.740472 6.3897652,2.4221491 6.4445641,2.3390781 5.8204836,2.4902111 5.8710943,2.4081881 5.9203092,2.3286071 6.0347932,1.9240719 6.7967436,1.7408265 Z"
   id="path1-3"
   class="ColorScheme-Text"
   style="fill:url(#oomox);stroke-width:0.349038" />
</svg>
