<?xml version="1.0" encoding="UTF-8" standalone="no"?>
<svg
   width="16"
   version="1.0"
   height="16"
   id="svg1"
   xmlns="http://www.w3.org/2000/svg"
   xmlns:svg="http://www.w3.org/2000/svg"
   xmlns:rdf="http://www.w3.org/1999/02/22-rdf-syntax-ns#"
   xmlns:cc="http://creativecommons.org/ns#"
   xmlns:dc="http://purl.org/dc/elements/1.1/">
  <defs>
   <style id="current-color-scheme" type="text/css">
   .ColorScheme-Text { color: #0abdc6; } .ColorScheme-Highlight { color:#5294e2; }
  </style>
  <linearGradient id="arrongin" x1="0%" x2="0%" y1="0%" y2="100%">
   <stop offset="0%" style="stop-color:#dd9b44; stop-opacity:1"/>
   <stop offset="100%" style="stop-color:#ad6c16; stop-opacity:1"/>
  </linearGradient>
  <linearGradient id="aurora" x1="0%" x2="0%" y1="0%" y2="100%">
   <stop offset="0%" style="stop-color:#09D4DF; stop-opacity:1"/>
   <stop offset="100%" style="stop-color:#9269F4; stop-opacity:1"/>
  </linearGradient>
  <linearGradient id="cyberneon" x1="0%" x2="0%" y1="0%" y2="100%">
    <stop offset="0" style="stop-color:#0abdc6; stop-opacity:1"/>
    <stop offset="1" style="stop-color:#ea00d9; stop-opacity:1"/>
  </linearGradient>
  <linearGradient id="fitdance" x1="0%" x2="0%" y1="0%" y2="100%">
   <stop offset="0%" style="stop-color:#1AD6AB; stop-opacity:1"/>
   <stop offset="100%" style="stop-color:#329DB6; stop-opacity:1"/>
  </linearGradient>
  <linearGradient id="oomox" x1="0%" x2="0%" y1="0%" y2="100%">
   <stop offset="0%" style="stop-color:#0abdc6; stop-opacity:1"/>
   <stop offset="100%" style="stop-color:#b800ff; stop-opacity:1"/>
  </linearGradient>
  <linearGradient id="rainblue" x1="0%" x2="0%" y1="0%" y2="100%">
   <stop offset="0%" style="stop-color:#00F260; stop-opacity:1"/>
   <stop offset="100%" style="stop-color:#0575E6; stop-opacity:1"/>
  </linearGradient>
  <linearGradient id="sunrise" x1="0%" x2="0%" y1="0%" y2="100%">
   <stop offset="0%" style="stop-color: #FF8501; stop-opacity:1"/>
   <stop offset="100%" style="stop-color: #FFCB01; stop-opacity:1"/>
  </linearGradient>
  <linearGradient id="telinkrin" x1="0%" x2="0%" y1="0%" y2="100%">
   <stop offset="0%" style="stop-color: #b2ced6; stop-opacity:1"/>
   <stop offset="100%" style="stop-color: #6da5b7; stop-opacity:1"/>
  </linearGradient>
  <linearGradient id="60spsycho" x1="0%" x2="0%" y1="0%" y2="100%">
   <stop offset="0%" style="stop-color: #df5940; stop-opacity:1"/>
   <stop offset="25%" style="stop-color: #d8d15f; stop-opacity:1"/>
   <stop offset="50%" style="stop-color: #e9882a; stop-opacity:1"/>
   <stop offset="100%" style="stop-color: #279362; stop-opacity:1"/>
  </linearGradient>
  <linearGradient id="90ssummer" x1="0%" x2="0%" y1="0%" y2="100%">
   <stop offset="0%" style="stop-color: #f618c7; stop-opacity:1"/>
   <stop offset="20%" style="stop-color: #94ffab; stop-opacity:1"/>
   <stop offset="50%" style="stop-color: #fbfd54; stop-opacity:1"/>
   <stop offset="100%" style="stop-color: #0f83ae; stop-opacity:1"/>
  </linearGradient>
 </defs>
  <path
     id="rect3790"
     class="ColorScheme-Text"
     style="fill:url(#oomox);stroke:none;stroke-width:0.450451;stroke-linecap:round;stroke-linejoin:round;opacity:0.1"
     d="M -0.0321862,1.0000004 V 14.407959 16 H 16.032186 V 14.407959 1.0000004 h -3.050179 v 0.6888137 c 0,0.3798225 -0.198626,0.6858253 -0.445582,0.6858253 -0.246956,0 -0.446313,-0.3060028 -0.446313,-0.6858253 V 1.0000004 h -0.892628 v 0.6888137 c 0,0.3798225 -0.199358,0.6858253 -0.446313,0.6858253 -0.246957,0 -0.445583,-0.3060028 -0.445583,-0.6858253 V 1.0000004 H 9.4122282 v 0.6888137 c 0,0.3798225 -0.198627,0.6858253 -0.4455816,0.6858253 -0.2469552,0 -0.4455812,-0.3060028 -0.4455812,-0.6858253 V 1.0000004 H 7.4789331 v 0.6888137 c 0,0.3798225 -0.1986258,0.6858253 -0.445581,0.6858253 -0.246955,0 -0.4455811,-0.3060028 -0.4455811,-0.6858253 V 1.0000004 H 5.6944104 v 0.6888137 c 0,0.3798225 -0.1986261,0.6858253 -0.4455813,0.6858253 -0.2469553,0 -0.4463139,-0.3060028 -0.4463139,-0.6858253 V 1.0000004 H 3.9098869 v 0.6888137 c 0,0.3798225 -0.1993582,0.6858253 -0.4463137,0.6858253 -0.2469552,0 -0.4455812,-0.3060028 -0.4455812,-0.6858253 V 1.0000004 Z" />
  <path
     d="m 7.7363281,11.826172 c -0.113873,0 -0.2050781,0.09485 -0.2050781,0.210937 0,0.116083 0.091205,0.208985 0.2050781,0.208985 h 0.8222657 c 0.1138729,0 0.2050781,-0.0929 0.2050781,-0.208985 0,-0.116083 -0.091205,-0.210937 -0.2050781,-0.210937 z"
     style="opacity:1;fill:url(#oomox);stroke-width:0.414998"
     id="path38"
     class="ColorScheme-Text" />
  <path
     d="m 4.4648437,11.826172 c -0.1235233,0 -0.2226562,0.09485 -0.2226562,0.210937 0,0.116083 0.099133,0.208985 0.2226562,0.208985 h 2.0214844 c 0.1235234,0 0.2226563,-0.0929 0.2226563,-0.208985 0,-0.116083 -0.099133,-0.210937 -0.2226563,-0.210937 z"
     style="opacity:1;fill:url(#oomox);stroke-width:0.414998"
     id="path37"
     class="ColorScheme-Text" />
  <path
     id="path36"
     style="opacity:1;fill:url(#oomox);stroke-width:0.414998"
     class="ColorScheme-Text"
     d="M 2.3046875 11.826172 C 2.1997237 11.826172 2.1152344 11.921022 2.1152344 12.037109 C 2.1152344 12.153192 2.1997235 12.246094 2.3046875 12.246094 L 2.3554688 12.246094 C 2.4059546 12.103857 2.4587079 11.964367 2.5136719 11.826172 L 2.3046875 11.826172 z M 3.1757812 11.826172 C 3.1422653 11.962093 3.1133992 12.102586 3.0859375 12.246094 L 3.640625 12.246094 C 3.7455888 12.246094 3.8320312 12.153194 3.8320312 12.037109 C 3.8320312 11.921026 3.7455892 11.826172 3.640625 11.826172 L 3.1757812 11.826172 z " />
  <path
     d="m 10.384766,10.570313 c -0.101787,0.01069 -0.181641,0.100156 -0.181641,0.208984 0,0.116083 0.08962,0.208984 0.201172,0.208984 h 3.296875 c 0.111556,0 0.201172,-0.0929 0.201172,-0.208984 0,-0.116083 -0.08962,-0.208984 -0.201172,-0.208984 h -3.296875 c -0.007,0 -0.01275,-7.12e-4 -0.01953,0 z"
     style="opacity:1;fill:url(#oomox);stroke-width:0.414998"
     id="path35"
     class="ColorScheme-Text" />
  <path
     d="m 4.8066406,10.570313 c -0.1082369,0 -0.1953125,0.0929 -0.1953125,0.208984 0,0.116083 0.087076,0.208984 0.1953125,0.208984 h 4.1328125 c 0.108237,0 0.1953125,-0.0929 0.1953125,-0.208984 0,-0.116083 -0.087075,-0.208984 -0.1953125,-0.208984 z"
     style="opacity:1;fill:url(#oomox);stroke-width:0.414998"
     id="path34"
     class="ColorScheme-Text" />
  <path
     id="path33"
     style="opacity:1;fill:url(#oomox);stroke-width:0.414998"
     class="ColorScheme-Text"
     d="M 2.4140625,10.570312 C 2.2854556,10.581004 2.1875,10.670469 2.1875,10.779297 c 0,0.116083 0.112955,0.208984 0.2539062,0.208984 h 0.4433594 c 0.069391,-0.141778 0.1407817,-0.280642 0.2148438,-0.417969 H 2.4414062 c -0.00881,0 -0.01877,-7.11e-4 -0.027344,0 z m 1.2011719,0.0039 C 3.5523655,10.711832 3.490686,10.849099 3.4375,10.988281 h 0.1386719 c 0.1409511,0 0.2558593,-0.0929 0.2558593,-0.208984 0,-0.104901 -0.094701,-0.18949 -0.2167968,-0.205078 z" />
  <path
     d="m 6.9082031,8.4746094 c -0.1127052,0.010692 -0.1992187,0.1001565 -0.1992187,0.2089844 0,0.1160829 0.099133,0.2089843 0.2226562,0.2089843 h 0.3769531 c 0.1235233,0 0.2226563,-0.092901 0.2226563,-0.2089843 0,-0.1160831 -0.099133,-0.2089844 -0.2226563,-0.2089844 H 6.9316406 c -0.00772,0 -0.015924,-7.128e-4 -0.023437,0 z"
     style="opacity:1;fill:url(#oomox);stroke-width:0.414998"
     id="path32"
     class="ColorScheme-Text" />
  <path
     d="m 2.5195313,8.4746094 c -0.1039001,0.010692 -0.1855469,0.1001565 -0.1855469,0.2089844 0,0.1160829 0.091205,0.2089843 0.2050781,0.2089843 h 0.6757813 c 0.1138729,0 0.2050781,-0.092901 0.2050781,-0.2089843 0,-0.1160831 -0.091205,-0.2089844 -0.2050781,-0.2089844 H 2.5390625 c -0.00712,0 -0.012605,-7.128e-4 -0.019531,0 z"
     style="opacity:1;fill:url(#oomox);stroke-width:0.414998"
     id="path31"
     class="ColorScheme-Text" />
  <path
     d="m 8.4042969,7.2167969 c -0.082878,0 -0.1484375,0.092901 -0.1484375,0.2089843 0,0.1160831 0.065559,0.2109376 0.1484375,0.2109375 H 9.4375 c 0.082878,0 0.1484375,-0.094854 0.1484375,-0.2109375 0,-0.1160829 -0.065559,-0.2089843 -0.1484375,-0.2089843 z"
     style="opacity:1;fill:url(#oomox);stroke-width:0.414998"
     id="path30"
     class="ColorScheme-Text" />
  <path
     d="m 2.6933594,7.2167969 c -0.1705366,0 -0.3066406,0.092901 -0.3066406,0.2089843 0,0.1160831 0.136104,0.2109376 0.3066406,0.2109375 h 1.5703125 c 0.1705364,0 0.3066406,-0.094854 0.3066406,-0.2109375 0,-0.1160829 -0.1361042,-0.2089843 -0.3066406,-0.2089843 z"
     style="opacity:1;fill:url(#oomox);stroke-width:0.414998"
     id="path29"
     class="ColorScheme-Text" />
  <path
     d="m 11.431641,6.3789062 c -0.112706,0.010692 -0.201172,0.1001566 -0.201172,0.2089844 0,0.116083 0.09913,0.2089844 0.222656,0.2089844 H 13.0625 c 0.123523,0 0.224609,-0.092901 0.224609,-0.2089844 0,-0.116083 -0.101086,-0.2089844 -0.224609,-0.2089844 h -1.609375 c -0.0077,0 -0.01397,-7.127e-4 -0.02148,0 z"
     style="opacity:1;fill:url(#oomox);stroke-width:0.414998"
     id="path28"
     class="ColorScheme-Text" />
  <path
     d="M 2.484375,6.3789062 C 2.4575544,6.3895984 2.4375,6.4790628 2.4375,6.5878906 c 0,0.116083 0.023339,0.2089844 0.052734,0.2089844 h 0.7851562 c 0.029395,0 0.052734,-0.092901 0.052734,-0.2089844 0,-0.116083 -0.023339,-0.2089844 -0.052734,-0.2089844 H 2.4902344 c -0.00184,0 -0.00407,-7.127e-4 -0.00586,0 z"
     style="opacity:1;fill:url(#oomox);stroke-width:0.414998"
     id="path27"
     class="ColorScheme-Text" />
  <path
     d="m 2.6484375,5.1210937 c -0.056039,0 -0.1015625,0.092901 -0.1015625,0.2089844 0,0.116083 0.045524,0.2109375 0.1015625,0.2109375 h 1.0097656 c 0.056039,0 0.1015625,-0.094854 0.1015625,-0.2109375 0,-0.116083 -0.045524,-0.2089843 -0.1015625,-0.2089844 z"
     style="opacity:1;fill:url(#oomox);stroke-width:0.414998"
     id="path26"
     class="ColorScheme-Text" />
  <path
     d="m 11.087891,4.2832031 c -0.148035,0 -0.267578,0.092901 -0.267578,0.2089844 0,0.116083 0.119543,0.2109375 0.267578,0.2109375 h 2.136718 c 0.148035,0 0.267578,-0.094855 0.267579,-0.2109375 0,-0.116083 -0.119544,-0.2089844 -0.267579,-0.2089844 z"
     style="opacity:1;fill:url(#oomox);stroke-width:0.414998"
     id="path25"
     class="ColorScheme-Text" />
  <path
     d="m 2.7890625,4.2832031 c -0.1060224,0 -0.1914063,0.092901 -0.1914062,0.2089844 0,0.116083 0.085384,0.2109375 0.1914062,0.2109375 H 4.703125 c 0.1060224,0 0.1914062,-0.094855 0.1914062,-0.2109375 0,-0.116083 -0.085384,-0.2089844 -0.1914062,-0.2089844 z"
     style="opacity:1;fill:url(#oomox);stroke-width:0.414998"
     id="path24"
     class="ColorScheme-Text" />
  <path
     style="fill:url(#oomox);stroke:none;stroke-width:0.319851;stroke-linecap:square;stroke-dashoffset:1.2"
     d="M 3.474258,0 C 3.311171,0 3.18,0.23244922 3.18,0.52097504 V 1.2224184 c 0,0.2885256 0.131171,0.5209748 0.294258,0.5209748 0.163087,0 0.294742,-0.2324492 0.294742,-0.5209748 V 0.52097504 C 3.769,0.23244922 3.637345,0 3.474258,0 Z"
     id="rect2776-9"
     class="ColorScheme-Text" />
  <path
     style="fill:url(#oomox);stroke:none;stroke-width:0.319851;stroke-linecap:square;stroke-dashoffset:1.2"
     d="M 5.264258,0 C 5.101171,0 4.97,0.23244922 4.97,0.52097504 V 1.2224184 c 0,0.2885256 0.131171,0.5209748 0.294258,0.5209748 0.163087,0 0.294742,-0.2324492 0.294742,-0.5209748 V 0.52097504 C 5.559,0.23244922 5.427345,0 5.264258,0 Z"
     id="rect2776-9-2"
     class="ColorScheme-Text" />
  <path
     style="fill:url(#oomox);stroke:none;stroke-width:0.319851;stroke-linecap:square;stroke-dashoffset:1.2"
     d="M 7.0446055,0 C 6.8815185,0 6.7503475,0.23244922 6.7503475,0.52097504 V 1.2224184 c 0,0.2885256 0.131171,0.5209748 0.294258,0.5209748 0.163087,0 0.294742,-0.2324492 0.294742,-0.5209748 V 0.52097504 C 7.3393475,0.23244922 7.2076925,0 7.0446055,0 Z"
     id="rect2776-9-3"
     class="ColorScheme-Text" />
  <path
     style="fill:url(#oomox);stroke:none;stroke-width:0.319851;stroke-linecap:square;stroke-dashoffset:1.2"
     d="m 8.9604889,0 c -0.163087,0 -0.294258,0.2324492 -0.294258,0.520975 v 0.7014434 c 0,0.2885256 0.131171,0.5209748 0.294258,0.5209748 0.163087,0 0.294742,-0.2324492 0.294742,-0.5209748 V 0.520975 C 9.2552309,0.2324492 9.1235759,0 8.9604889,0 Z"
     id="rect2776-9-29"
     class="ColorScheme-Text" />
  <path
     style="fill:url(#oomox);stroke:none;stroke-width:0.319851;stroke-linecap:square;stroke-dashoffset:1.2"
     d="M 10.761116,0 C 10.598029,0 10.466858,0.23244922 10.466858,0.52097504 V 1.2224184 c 0,0.2885256 0.131171,0.5209748 0.294258,0.5209748 0.163087,0 0.294742,-0.2324492 0.294742,-0.5209748 V 0.52097504 C 11.055858,0.23244922 10.924203,0 10.761116,0 Z"
     id="rect2776-9-9"
     class="ColorScheme-Text" />
  <path
     style="fill:url(#oomox);stroke:none;stroke-width:0.319851;stroke-linecap:square;stroke-dashoffset:1.2"
     d="M 12.550492,0 C 12.387405,0 12.256234,0.23244922 12.256234,0.52097504 V 1.2224184 c 0,0.2885256 0.131171,0.5209748 0.294258,0.5209748 0.163087,0 0.294742,-0.2324492 0.294742,-0.5209748 V 0.52097504 C 12.845234,0.23244922 12.713579,0 12.550492,0 Z"
     id="rect2776-9-8"
     class="ColorScheme-Text" />
  <path
     id="path2906"
     style="fill:url(#oomox);fill-rule:evenodd;stroke-width:0.349032"
     class="ColorScheme-Text"
     d="M 7.9980469,3.3027344 C 7.601835,3.3099999 7.3366269,3.3486388 7.328125,3.4296875 7.3072209,3.6289253 7.1965134,4.038875 7.1796875,4.4746094 7.0962192,4.1598018 7.0453315,3.8350602 7.03125,3.5 6.2642158,3.5507695 4.9540411,4.2570035 4.9492188,4.5898438 4.9464187,4.7823781 5.1261649,6.3577317 5.3417969,7.1308594 4.9417505,6.3701291 4.7701711,5.5938093 4.5878906,4.8183594 4.3568857,5.058719 3.2341789,5.0488974 4.0136719,8.3300781 3.6933321,7.8202229 3.6410742,7.250325 3.4804688,6.7050781 2.9283159,7.5924582 2.5679678,9.1271506 2.8632812,11.03125 4.2066727,8.2580217 6.463517,6.3443803 8.7929688,4.84375 l 0.042969,0.068359 C 7.8638945,5.708893 6.944055,6.435491 6.0273438,7.3847656 4.9963842,8.4618811 4.3138257,9.2221775 3.7109375,10.365234 3.5519309,10.687138 3.4235032,11.006854 3.3164062,11.339844 4.7627258,11.136976 5.5957715,10.577341 6.1035156,9.8789062 5.1840583,8.7110147 5.4250269,8.892387 6.1992188,9.6347656 6.5634756,9.9840539 7.14426,10.304278 7.5429688,9.2167969 7.8490543,8.3819496 8.2070312,8.1523438 8.2070312,8.1523438 7.6611196,7.9338137 6.6449863,7.176074 8.2851562,7.8417969 8.8051582,7.0624566 9.5316135,6.5361984 10.197266,5.9355469 8.7090223,5.9335736 9.1304463,5.3109941 10.439453,5.7558594 11.062458,4.6122409 12.575316,4.6299645 14.28125,4.9003906 13.028668,4.2808926 11.634608,3.4727931 11.230469,3.984375 L 11.171875,3.6015625 C 10.376245,3.4243376 8.869713,3.2867502 7.9980469,3.3027344 Z M 3.234375,11.349609 C 0,0 0,0 3.234375,11.349609 Z m -0.089844,0.613282 c -0.021224,0.09345 -0.04009,0.188086 -0.058594,0.285156 0.018411,-0.09633 0.0375,-0.192396 0.058594,-0.285156 z m -0.9648437,1.615234 c -0.016225,0.03014 -0.029934,0.0634 -0.042969,0.0957 0.013284,-0.03256 0.026464,-0.06535 0.042969,-0.0957 z" />
  <path
     id="path878"
     style="fill:url(#oomox);stroke-width:0.349032;opacity:1"
     class="ColorScheme-Text"
     d="M 8.7929688 4.84375 C 6.4557683 6.349372 4.1913628 8.2703974 2.8496094 11.058594 L 3.296875 11.396484 C 3.2758902 11.463451 3.2555042 11.531312 3.2363281 11.599609 C 3.3566898 11.169527 3.5108723 10.770259 3.7109375 10.365234 C 4.3138262 9.222176 4.9963832 8.4618822 6.0273438 7.3847656 C 6.944056 6.43549 7.8638937 5.7088938 8.8359375 4.9121094 L 8.7929688 4.84375 z M 3.2363281 11.599609 C 3.2058674 11.708099 3.1784945 11.816969 3.1523438 11.929688 C 3.1782101 11.818004 3.2062377 11.70713 3.2363281 11.599609 z M 3.1445312 11.962891 C 3.1234371 12.055651 3.1043486 12.151722 3.0859375 12.248047 C 3.1044418 12.150976 3.1233073 12.05634 3.1445312 11.962891 z M 3.0761719 12.291016 C 3.0556507 12.40135 3.0368457 12.514974 3.0195312 12.630859 C 3.0368573 12.514459 3.0556197 12.401813 3.0761719 12.291016 z M 3.0195312 12.630859 C 3.00105 12.754554 2.9838759 12.880678 2.96875 13.011719 C 2.9692993 13.011483 2.9701545 13.011955 2.9707031 13.011719 C 2.9857152 12.881313 3.001204 12.753986 3.0195312 12.630859 z M 2.1796875 13.578125 C 2.1631828 13.608478 2.150002 13.641263 2.1367188 13.673828 C 2.1497534 13.641528 2.1634628 13.608264 2.1796875 13.578125 z " />
  <path
     d="m 2.8503756,11.058005 c -0.3759419,0.780331 -0.679649,1.628625 -0.8924978,2.554804 l 0.1661057,0.08948 c 0.062943,-0.171847 0.1792162,-0.316282 0.2829014,-0.418484 0.1547548,-0.152535 0.3777358,-0.189227 0.5617516,-0.268428 0.069864,-0.606886 0.1739866,-1.129318 0.3276372,-1.619647"
     style="display:inline;opacity:1;fill:url(#oomox);stroke-width:0.349032"
     id="path1"
     class="ColorScheme-Text" />
  <metadata
     id="metadata14">
    <rdf:RDF>
      <cc:Work
         rdf:about="">
        <dc:creator>
          <cc:Agent>
            <dc:title>dreifacherspass</dc:title>
          </cc:Agent>
        </dc:creator>
        <cc:license
           rdf:resource="http://creativecommons.org/licenses/by-sa/4.0/" />
      </cc:Work>
      <cc:License
         rdf:about="http://creativecommons.org/licenses/by-sa/4.0/">
        <cc:permits
           rdf:resource="http://creativecommons.org/ns#Reproduction" />
        <cc:permits
           rdf:resource="http://creativecommons.org/ns#Distribution" />
        <cc:requires
           rdf:resource="http://creativecommons.org/ns#Notice" />
        <cc:requires
           rdf:resource="http://creativecommons.org/ns#Attribution" />
        <cc:permits
           rdf:resource="http://creativecommons.org/ns#DerivativeWorks" />
        <cc:requires
           rdf:resource="http://creativecommons.org/ns#ShareAlike" />
      </cc:License>
    </rdf:RDF>
  </metadata>
</svg>
