<?xml version="1.0" encoding="UTF-8" standalone="no"?>
<svg
   width="48"
   height="48"
   version="1.1"
   id="svg12"
   xmlns:xlink="http://www.w3.org/1999/xlink"
   xmlns="http://www.w3.org/2000/svg"
   xmlns:svg="http://www.w3.org/2000/svg"
   xmlns:rdf="http://www.w3.org/1999/02/22-rdf-syntax-ns#"
   xmlns:cc="http://creativecommons.org/ns#"
   xmlns:dc="http://purl.org/dc/elements/1.1/">
  <defs
     id="defs16">
    <style
       id="current-color-scheme"
       type="text/css">
      .ColorScheme-Text { color: #0abdc6; } .ColorScheme-Highlight { color:#5294e2; }
     </style>
    <linearGradient
       id="arrongin"
       x1="0%"
       x2="0%"
       y1="0%"
       y2="100%">
      <stop
         offset="0%"
         style="stop-color:#dd9b44; stop-opacity:1"
         id="stop9192" />
      <stop
         offset="100%"
         style="stop-color:#ad6c16; stop-opacity:1"
         id="stop9194" />
    </linearGradient>
    <linearGradient
       id="aurora"
       x1="0%"
       x2="0%"
       y1="0%"
       y2="100%">
      <stop
         offset="0%"
         style="stop-color:#09D4DF; stop-opacity:1"
         id="stop9197" />
      <stop
         offset="100%"
         style="stop-color:#9269F4; stop-opacity:1"
         id="stop9199" />
    </linearGradient>
    <linearGradient
       id="cyberneon"
       x1="0%"
       x2="0%"
       y1="0%"
       y2="100%">
      <stop
         offset="0"
         style="stop-color:#0abdc6; stop-opacity:1"
         id="stop9202" />
      <stop
         offset="1"
         style="stop-color:#ea00d9; stop-opacity:1"
         id="stop9204" />
    </linearGradient>
    <linearGradient
       id="fitdance"
       x1="0%"
       x2="0%"
       y1="0%"
       y2="100%">
      <stop
         offset="0%"
         style="stop-color:#1AD6AB; stop-opacity:1"
         id="stop9207" />
      <stop
         offset="100%"
         style="stop-color:#329DB6; stop-opacity:1"
         id="stop9209" />
    </linearGradient>
    <linearGradient
       id="oomox"
       x1="0%"
       x2="0%"
       y1="0%"
       y2="100%">
      <stop
         offset="0%"
         style="stop-color:#0abdc6; stop-opacity:1"
         id="stop9212" />
      <stop
         offset="100%"
         style="stop-color:#b800ff; stop-opacity:1"
         id="stop9214" />
    </linearGradient>
    <linearGradient
       id="rainblue"
       x1="0%"
       x2="0%"
       y1="0%"
       y2="100%">
      <stop
         offset="0%"
         style="stop-color:#00F260; stop-opacity:1"
         id="stop9217" />
      <stop
         offset="100%"
         style="stop-color:#0575E6; stop-opacity:1"
         id="stop9219" />
    </linearGradient>
    <linearGradient
       id="sunrise"
       x1="0%"
       x2="0%"
       y1="0%"
       y2="100%">
      <stop
         offset="0%"
         style="stop-color: #FF8501; stop-opacity:1"
         id="stop9222" />
      <stop
         offset="100%"
         style="stop-color: #FFCB01; stop-opacity:1"
         id="stop9224" />
    </linearGradient>
    <linearGradient
       id="telinkrin"
       x1="0%"
       x2="0%"
       y1="0%"
       y2="100%">
      <stop
         offset="0%"
         style="stop-color: #b2ced6; stop-opacity:1"
         id="stop9227" />
      <stop
         offset="100%"
         style="stop-color: #6da5b7; stop-opacity:1"
         id="stop9229" />
    </linearGradient>
    <linearGradient
       id="60spsycho"
       x1="0%"
       x2="0%"
       y1="0%"
       y2="100%">
      <stop
         offset="0%"
         style="stop-color: #df5940; stop-opacity:1"
         id="stop9232" />
      <stop
         offset="25%"
         style="stop-color: #d8d15f; stop-opacity:1"
         id="stop9234" />
      <stop
         offset="50%"
         style="stop-color: #e9882a; stop-opacity:1"
         id="stop9236" />
      <stop
         offset="100%"
         style="stop-color: #279362; stop-opacity:1"
         id="stop9238" />
    </linearGradient>
    <linearGradient
       id="90ssummer"
       x1="0%"
       x2="0%"
       y1="0%"
       y2="100%">
      <stop
         offset="0%"
         style="stop-color: #f618c7; stop-opacity:1"
         id="stop9241" />
      <stop
         offset="20%"
         style="stop-color: #94ffab; stop-opacity:1"
         id="stop9243" />
      <stop
         offset="50%"
         style="stop-color: #fbfd54; stop-opacity:1"
         id="stop9245" />
      <stop
         offset="100%"
         style="stop-color: #0f83ae; stop-opacity:1"
         id="stop9247" />
    </linearGradient>
  </defs>
  <path
     id="path4-6"
     class="ColorScheme-Text"
     style="display:inline;opacity:0.5;fill:url(#oomox);fill-opacity:1;stroke-width:1.175"
     d="M 24.011472,0.5 C 11.033733,0.5 0.52753965,11.010839 0.5045825,23.988525 H 0.5 V 42.173486 H 0.504583 C 0.51081,45.116686 2.8994455,47.5 5.844862,47.5 H 24.013766 C 36.993802,47.491658 47.5,36.982143 47.5,24.011475 47.500012,11.033789 36.980034,0.52065415 23.990817,0.52065415 Z m 5.276025,9.4 a 7.6375011,7.6375 0 0 1 7.614552,7.05 h 0.02295 v 1.117627 a 2.3500004,2.35 0 0 1 0,0.0069 2.3500004,2.35 0 0 1 0,0.0069 2.3500004,2.35 0 0 1 0,0.0069 2.3500004,2.35 0 0 1 0,0.0069 2.3500004,2.35 0 0 1 0,0.0069 2.3500004,2.35 0 0 1 0,0.0069 2.3500004,2.35 0 0 1 0,0.0069 2.3500004,2.35 0 0 1 0,0.0069 2.3500004,2.35 0 0 0 0,0.0023 2.3500004,2.35 0 0 1 -2.35,2.35 2.3500004,2.35 0 0 1 -2.35,-2.35 V 17.5375 A 2.9375004,2.9375 0 0 0 29.287498,14.6 a 2.9375004,2.9375 0 0 0 -2.9375,2.9375 v 5.2875 h 2.35 a 2.3500004,2.35 0 0 1 2.35,2.35 2.3500004,2.35 0 0 1 -2.35,2.35 h -2.35 v 4.1125 a 8.8125013,8.8125 0 0 0 0,0.0023 8.8125013,8.8125 0 0 0 0,0.0023 8.8125013,8.8125 0 0 0 0,0.0023 8.8125013,8.8125 0 0 0 0,0.0023 8.8125013,8.8125 0 0 0 0,0.0023 8.8125013,8.8125 0 0 0 0,0.0023 8.8125013,8.8125 0 0 0 0,0.0023 8.8125013,8.8125 0 0 0 0,0.0024 8.8125013,8.8125 0 0 0 0,0.0023 8.8125013,8.8125 0 0 0 0,0.0023 8.8125013,8.8125 0 0 0 0,0.0023 8.8125013,8.8125 0 0 0 0,0.0023 8.8125013,8.8125 0 0 0 0,0.0023 8.8125013,8.8125 0 0 0 0,0.0023 8.8125013,8.8125 0 0 0 0,0.0023 8.8125013,8.8125 0 0 0 0,0.0023 8.8125013,8.8125 0 0 0 0,0.0023 8.8125013,8.8125 0 0 0 0,0.0023 8.8125013,8.8125 0 0 0 0,0.0023 v 0.5437 h -0.01837 a 8.8125013,8.8125 0 0 1 -8.794136,8.225 8.8125013,8.8125 0 0 1 -8.812501,-8.8125 8.8125013,8.8125 0 0 1 8.768898,-8.8125 8.8125013,8.8125 0 0 1 0.0436,0 h 1.7625 v 4.7 h -1.7625 a 4.1125006,4.1125 0 0 0 -4.112501,4.1125 4.1125006,4.1125 0 0 0 4.112501,4.1125 4.1125006,4.1125 0 0 0 4.071192,-3.525 h 0.04131 V 17.5375 A 7.6375011,7.6375 0 0 1 29.287492,9.9 Z" />
  <path
     id="path4"
     class="ColorScheme-Text"
     style="font-variation-settings:normal;display:inline;opacity:1;vector-effect:none;fill:url(#oomox);fill-opacity:1;stroke-width:1.97232;stroke-linecap:butt;stroke-linejoin:miter;stroke-miterlimit:4;stroke-dasharray:none;stroke-dashoffset:0;stroke-opacity:1;-inkscape-stroke:none;stop-color:#000000;stop-opacity:1"
     d="m 24.01835,2.6444301 c -12.977739,0 -23.48393651,9.5414089 -23.50688943,22.5190949 h -0.00459 v 17.009961 h 0.00459 C 0.51768442,45.116683 2.906331,47.5 5.8517446,47.5 H 24.020644 C 36.803632,47.4918 47.18081,37.297328 47.493108,24.598975 c 7.5e-5,-0.0031 -7.7e-5,-0.0061 0,-0.0092 C 47.175653,11.888944 36.786648,2.6650844 23.997695,2.6650844 Z M 29.294375,9.9 c 3.990082,1.664e-4 7.307624,3.071741 7.614553,7.05 h 0.02295 v 1.117627 0.0023 0.0023 0.0023 0.0023 0.0023 0.0023 0.0023 0.0023 0.0023 0.0023 0.0023 0.0023 0.0023 0.0023 0.0023 0.0023 0.0023 0.0023 0.0023 0.0023 0.0023 0.0023 0.0023 0.0024 0.0023 c 0,1.297869 -1.052131,2.35 -2.35,2.35 -1.297869,0 -2.35,-1.052131 -2.35,-2.35 V 17.5375 c 0,-1.622337 -1.315164,-2.9375 -2.937501,-2.9375 -1.622337,0 -2.9375,1.315164 -2.9375,2.9375 v 5.2875 h 2.35 c 1.29787,0 2.350001,1.052131 2.350001,2.35 0,1.297869 -1.052131,2.35 -2.350001,2.35 h -2.35 v 4.1125 0.0023 0.0023 0.0023 0.0023 0.0023 0.0023 0.0023 0.0024 0.0023 0.0023 0.0023 0.0023 0.0023 0.0023 0.0023 0.0023 0.0023 0.0023 0.0023 0.5437 h -0.01836 c -0.309296,4.629117 -4.154697,8.225653 -8.794136,8.225 -4.86701,0 -8.812502,-3.94549 -8.812502,-8.8125 -5.94e-5,-4.850032 3.918925,-8.788503 8.768898,-8.8125 0.01453,-3.6e-5 0.02907,-3.6e-5 0.0436,0 h 1.7625 v 4.7 h -1.7625 c -2.271272,0 -4.112501,1.841229 -4.112501,4.1125 0,2.271271 1.841229,4.1125 4.112501,4.1125 2.044653,4.34e-4 3.779099,-1.501318 4.071192,-3.525 h 0.04131 V 17.5375 c 0,-4.218075 3.419426,-7.6374999 7.637501,-7.6375 z" />
  <metadata
     id="metadata1235">
    <rdf:RDF>
      <cc:Work
         rdf:about="">
        <dc:creator>
          <cc:Agent>
            <dc:title>dreifacherspass</dc:title>
          </cc:Agent>
        </dc:creator>
        <cc:license
           rdf:resource="http://creativecommons.org/licenses/by-sa/4.0/" />
      </cc:Work>
      <cc:License
         rdf:about="http://creativecommons.org/licenses/by-sa/4.0/">
        <cc:permits
           rdf:resource="http://creativecommons.org/ns#Reproduction" />
        <cc:permits
           rdf:resource="http://creativecommons.org/ns#Distribution" />
        <cc:requires
           rdf:resource="http://creativecommons.org/ns#Notice" />
        <cc:requires
           rdf:resource="http://creativecommons.org/ns#Attribution" />
        <cc:permits
           rdf:resource="http://creativecommons.org/ns#DerivativeWorks" />
        <cc:requires
           rdf:resource="http://creativecommons.org/ns#ShareAlike" />
      </cc:License>
    </rdf:RDF>
  </metadata>
</svg>
