<?xml version="1.0" encoding="UTF-8" standalone="no"?>
<svg
   version="1.1"
   id="svg2"
   viewBox="0 0 16 16.000001"
   height="16"
   width="16"
   xmlns:xlink="http://www.w3.org/1999/xlink"
   xmlns="http://www.w3.org/2000/svg"
   xmlns:svg="http://www.w3.org/2000/svg"
   xmlns:rdf="http://www.w3.org/1999/02/22-rdf-syntax-ns#"
   xmlns:cc="http://creativecommons.org/ns#"
   xmlns:dc="http://purl.org/dc/elements/1.1/">
  <defs>
   <style id="current-color-scheme" type="text/css">
   .ColorScheme-Text { color: #0abdc6; } .ColorScheme-Highlight { color:#5294e2; }
  </style>
  <linearGradient id="arrongin" x1="0%" x2="0%" y1="0%" y2="100%">
   <stop offset="0%" style="stop-color:#dd9b44; stop-opacity:1"/>
   <stop offset="100%" style="stop-color:#ad6c16; stop-opacity:1"/>
  </linearGradient>
  <linearGradient id="aurora" x1="0%" x2="0%" y1="0%" y2="100%">
   <stop offset="0%" style="stop-color:#09D4DF; stop-opacity:1"/>
   <stop offset="100%" style="stop-color:#9269F4; stop-opacity:1"/>
  </linearGradient>
  <linearGradient id="cyberneon" x1="0%" x2="0%" y1="0%" y2="100%">
    <stop offset="0" style="stop-color:#0abdc6; stop-opacity:1"/>
    <stop offset="1" style="stop-color:#ea00d9; stop-opacity:1"/>
  </linearGradient>
  <linearGradient id="fitdance" x1="0%" x2="0%" y1="0%" y2="100%">
   <stop offset="0%" style="stop-color:#1AD6AB; stop-opacity:1"/>
   <stop offset="100%" style="stop-color:#329DB6; stop-opacity:1"/>
  </linearGradient>
  <linearGradient id="oomox" x1="0%" x2="0%" y1="0%" y2="100%">
   <stop offset="0%" style="stop-color:#0abdc6; stop-opacity:1"/>
   <stop offset="100%" style="stop-color:#b800ff; stop-opacity:1"/>
  </linearGradient>
  <linearGradient id="rainblue" x1="0%" x2="0%" y1="0%" y2="100%">
   <stop offset="0%" style="stop-color:#00F260; stop-opacity:1"/>
   <stop offset="100%" style="stop-color:#0575E6; stop-opacity:1"/>
  </linearGradient>
  <linearGradient id="sunrise" x1="0%" x2="0%" y1="0%" y2="100%">
   <stop offset="0%" style="stop-color: #FF8501; stop-opacity:1"/>
   <stop offset="100%" style="stop-color: #FFCB01; stop-opacity:1"/>
  </linearGradient>
  <linearGradient id="telinkrin" x1="0%" x2="0%" y1="0%" y2="100%">
   <stop offset="0%" style="stop-color: #b2ced6; stop-opacity:1"/>
   <stop offset="100%" style="stop-color: #6da5b7; stop-opacity:1"/>
  </linearGradient>
  <linearGradient id="60spsycho" x1="0%" x2="0%" y1="0%" y2="100%">
   <stop offset="0%" style="stop-color: #df5940; stop-opacity:1"/>
   <stop offset="25%" style="stop-color: #d8d15f; stop-opacity:1"/>
   <stop offset="50%" style="stop-color: #e9882a; stop-opacity:1"/>
   <stop offset="100%" style="stop-color: #279362; stop-opacity:1"/>
  </linearGradient>
  <linearGradient id="90ssummer" x1="0%" x2="0%" y1="0%" y2="100%">
   <stop offset="0%" style="stop-color: #f618c7; stop-opacity:1"/>
   <stop offset="20%" style="stop-color: #94ffab; stop-opacity:1"/>
   <stop offset="50%" style="stop-color: #fbfd54; stop-opacity:1"/>
   <stop offset="100%" style="stop-color: #0f83ae; stop-opacity:1"/>
  </linearGradient>
 </defs>
  <metadata
     id="metadata7">
    <rdf:RDF>
      <cc:Work
         rdf:about="">
        <dc:format>image/svg+xml</dc:format>
        <dc:type
           rdf:resource="http://purl.org/dc/dcmitype/StillImage" />
        <dc:creator>
          <cc:Agent>
            <dc:title>dreifacherspass</dc:title>
          </cc:Agent>
        </dc:creator>
        <cc:license
           rdf:resource="http://creativecommons.org/licenses/by-sa/4.0/" />
      </cc:Work>
      <cc:License
         rdf:about="http://creativecommons.org/licenses/by-sa/4.0/">
        <cc:permits
           rdf:resource="http://creativecommons.org/ns#Reproduction" />
        <cc:permits
           rdf:resource="http://creativecommons.org/ns#Distribution" />
        <cc:requires
           rdf:resource="http://creativecommons.org/ns#Notice" />
        <cc:requires
           rdf:resource="http://creativecommons.org/ns#Attribution" />
        <cc:permits
           rdf:resource="http://creativecommons.org/ns#DerivativeWorks" />
        <cc:requires
           rdf:resource="http://creativecommons.org/ns#ShareAlike" />
      </cc:License>
    </rdf:RDF>
  </metadata>
  <path
     id="path41"
     style="display:inline;opacity:0.2;fill:url(#oomox);fill-opacity:1;stroke:none;stroke-width:0.307692;stroke-opacity:1"
     class="ColorScheme-Text"
     d="M 8,16 A 8,8 0 0 0 16,8 8,8 0 0 0 8,0 8,8 0 0 0 0,8 8,8 0 0 0 8,16 Z M 8,15.692153 A 7.6923074,7.6923074 0 0 1 0.30784579,8 7.6923074,7.6923074 0 0 1 8,0.30784681 7.6923074,7.6923074 0 0 1 15.692154,8 7.6923074,7.6923074 0 0 1 8,15.692153 Z" />
  <path
     id="circle42"
     style="display:inline;opacity:0.4;fill:url(#oomox);fill-opacity:1;stroke:none;stroke-width:0.307692;stroke-opacity:1"
     class="ColorScheme-Text"
     d="M 8,15.692154 A 7.6923074,7.6923074 0 0 0 15.692154,8 7.6923074,7.6923074 0 0 0 8,0.30784579 7.6923074,7.6923074 0 0 0 0.30784579,8 7.6923074,7.6923074 0 0 0 8,15.692154 Z M 8,14.611702 A 6.6116684,6.6116684 0 0 1 1.3882979,8 6.6116684,6.6116684 0 0 1 8,1.3882979 6.6116684,6.6116684 0 0 1 14.611702,8 6.6116684,6.6116684 0 0 1 8,14.611702 Z" />
  <path
     id="circle43"
     style="display:inline;opacity:0.5;fill:url(#oomox);fill-opacity:1;stroke:none;stroke-width:0.264466;stroke-opacity:1"
     class="ColorScheme-Text"
     d="M 8,14.611702 A 6.6116684,6.6116684 0 0 0 14.611702,8 6.6116684,6.6116684 0 0 0 8,1.3882979 6.6116684,6.6116684 0 0 0 1.3882979,8 6.6116684,6.6116684 0 0 0 8,14.611702 Z m 0,-0.8125 A 5.7993566,5.7993566 0 0 1 2.200798,8 5.7993566,5.7993566 0 0 1 8,2.200798 5.7993566,5.7993566 0 0 1 13.799202,8 5.7993566,5.7993566 0 0 1 8,13.799202 Z" />
  <path
     id="circle44"
     style="display:inline;opacity:0.6;fill:url(#oomox);fill-opacity:1;stroke:none;stroke-width:0.231974;stroke-opacity:1"
     class="ColorScheme-Text"
     d="M 8,13.799202 A 5.7993566,5.7993566 0 0 0 13.799202,8 5.7993566,5.7993566 0 0 0 8,2.200798 5.7993566,5.7993566 0 0 0 2.200798,8 5.7993566,5.7993566 0 0 0 8,13.799202 Z M 8,12.4375 A 4.4373147,4.4373147 0 0 1 3.5625001,8 4.4373147,4.4373147 0 0 1 8,3.5625001 4.4373147,4.4373147 0 0 1 12.4375,8 4.4373147,4.4373147 0 0 1 8,12.4375 Z" />
  <path
     id="circle45"
     style="display:inline;opacity:0.8;fill:url(#oomox);fill-opacity:1;stroke:none;stroke-width:0.177492;stroke-opacity:1"
     class="ColorScheme-Text"
     d="M 8,12.4375 A 4.4373147,4.4373147 0 0 0 12.4375,8 4.4373147,4.4373147 0 0 0 8,3.5625001 4.4373147,4.4373147 0 0 0 3.5625001,8 4.4373147,4.4373147 0 0 0 8,12.4375 Z M 8,11.417553 A 3.4173617,3.4173859 0 0 1 4.5831118,8 3.4173617,3.4173859 0 0 1 8,4.582447 3.4173617,3.4173859 0 0 1 11.417553,8 3.4173617,3.4173859 0 0 1 8,11.417553 Z" />
  <circle
     r="3.4173861"
     cy="8.0001459"
     cx="-8"
     id="circle46"
     class="ColorScheme-Text"
     style="display:inline;opacity:1;fill:url(#oomox);fill-opacity:1;stroke:none;stroke-width:0.136695;stroke-opacity:1"
     transform="scale(-1,1)" />
</svg>
