<?xml version="1.0" encoding="UTF-8" standalone="no"?>
<svg
   version="1.0"
   width="16pt"
   height="16pt"
   viewBox="0 0 16 16"
   preserveAspectRatio="xMidYMid"
   id="svg26"
   xmlns:xlink="http://www.w3.org/1999/xlink"
   xmlns="http://www.w3.org/2000/svg"
   xmlns:svg="http://www.w3.org/2000/svg"
   xmlns:rdf="http://www.w3.org/1999/02/22-rdf-syntax-ns#"
   xmlns:cc="http://creativecommons.org/ns#"
   xmlns:dc="http://purl.org/dc/elements/1.1/">
  <defs>
   <style id="current-color-scheme" type="text/css">
   .ColorScheme-Text { color: #0abdc6; } .ColorScheme-Highlight { color:#5294e2; }
  </style>
  <linearGradient id="arrongin" x1="0%" x2="0%" y1="0%" y2="100%">
   <stop offset="0%" style="stop-color:#dd9b44; stop-opacity:1"/>
   <stop offset="100%" style="stop-color:#ad6c16; stop-opacity:1"/>
  </linearGradient>
  <linearGradient id="aurora" x1="0%" x2="0%" y1="0%" y2="100%">
   <stop offset="0%" style="stop-color:#09D4DF; stop-opacity:1"/>
   <stop offset="100%" style="stop-color:#9269F4; stop-opacity:1"/>
  </linearGradient>
  <linearGradient id="cyberneon" x1="0%" x2="0%" y1="0%" y2="100%">
    <stop offset="0" style="stop-color:#0abdc6; stop-opacity:1"/>
    <stop offset="1" style="stop-color:#ea00d9; stop-opacity:1"/>
  </linearGradient>
  <linearGradient id="fitdance" x1="0%" x2="0%" y1="0%" y2="100%">
   <stop offset="0%" style="stop-color:#1AD6AB; stop-opacity:1"/>
   <stop offset="100%" style="stop-color:#329DB6; stop-opacity:1"/>
  </linearGradient>
  <linearGradient id="oomox" x1="0%" x2="0%" y1="0%" y2="100%">
   <stop offset="0%" style="stop-color:#0abdc6; stop-opacity:1"/>
   <stop offset="100%" style="stop-color:#b800ff; stop-opacity:1"/>
  </linearGradient>
  <linearGradient id="rainblue" x1="0%" x2="0%" y1="0%" y2="100%">
   <stop offset="0%" style="stop-color:#00F260; stop-opacity:1"/>
   <stop offset="100%" style="stop-color:#0575E6; stop-opacity:1"/>
  </linearGradient>
  <linearGradient id="sunrise" x1="0%" x2="0%" y1="0%" y2="100%">
   <stop offset="0%" style="stop-color: #FF8501; stop-opacity:1"/>
   <stop offset="100%" style="stop-color: #FFCB01; stop-opacity:1"/>
  </linearGradient>
  <linearGradient id="telinkrin" x1="0%" x2="0%" y1="0%" y2="100%">
   <stop offset="0%" style="stop-color: #b2ced6; stop-opacity:1"/>
   <stop offset="100%" style="stop-color: #6da5b7; stop-opacity:1"/>
  </linearGradient>
  <linearGradient id="60spsycho" x1="0%" x2="0%" y1="0%" y2="100%">
   <stop offset="0%" style="stop-color: #df5940; stop-opacity:1"/>
   <stop offset="25%" style="stop-color: #d8d15f; stop-opacity:1"/>
   <stop offset="50%" style="stop-color: #e9882a; stop-opacity:1"/>
   <stop offset="100%" style="stop-color: #279362; stop-opacity:1"/>
  </linearGradient>
  <linearGradient id="90ssummer" x1="0%" x2="0%" y1="0%" y2="100%">
   <stop offset="0%" style="stop-color: #f618c7; stop-opacity:1"/>
   <stop offset="20%" style="stop-color: #94ffab; stop-opacity:1"/>
   <stop offset="50%" style="stop-color: #fbfd54; stop-opacity:1"/>
   <stop offset="100%" style="stop-color: #0f83ae; stop-opacity:1"/>
  </linearGradient>
 </defs>
 <metadata
     id="metadata8">
    <rdf:RDF>
      <cc:Work
         rdf:about="">
        <dc:creator>
          <cc:Agent>
            <dc:title>dreifacherspass</dc:title>
          </cc:Agent>
        </dc:creator>
        <cc:license
           rdf:resource="http://creativecommons.org/licenses/by-sa/4.0/" />
      </cc:Work>
      <cc:License
         rdf:about="http://creativecommons.org/licenses/by-sa/4.0/">
        <cc:permits
           rdf:resource="http://creativecommons.org/ns#Reproduction" />
        <cc:permits
           rdf:resource="http://creativecommons.org/ns#Distribution" />
        <cc:requires
           rdf:resource="http://creativecommons.org/ns#Notice" />
        <cc:requires
           rdf:resource="http://creativecommons.org/ns#Attribution" />
        <cc:permits
           rdf:resource="http://creativecommons.org/ns#DerivativeWorks" />
        <cc:requires
           rdf:resource="http://creativecommons.org/ns#ShareAlike" />
      </cc:License>
    </rdf:RDF>
  </metadata>
  <path
     d="M 9.9227621,0.01255912 C 8.8097459,0.1576264 7.302797,0.8829628 5.9646764,1.9209442 4.7203493,2.8851414 3.6836185,4.121965 3.0333169,5.4213176 2.871992,5.7427167 2.7481846,6.0653663 2.5943633,6.5668489 2.2004306,7.8536957 2.0716208,9.0655077 2.214187,10.137255 c 0.025012,0.185086 0.093794,0.56026 0.1425661,0.775359 0.297638,1.313109 0.7290881,1.992174 1.500696,2.362346 0.5490046,0.262622 1.2668375,0.356415 1.8508584,0.238861 C 6.2973307,13.395016 6.826326,13.053607 7.1202123,12.602148 7.37408,12.211967 7.4578689,11.945593 7.4228527,11.639201 7.4003422,11.450364 7.3565719,11.307798 7.2290128,11.006408 7.0039084,10.474911 6.9413794,10.219793 6.9426299,9.812104 6.9438805,9.4431829 6.9976555,9.1705565 7.1477251,8.7691203 7.3703283,8.1788465 7.7567575,7.7361412 8.4245672,7.310944 8.8535162,7.037067 9.2399454,6.9007538 9.7914512,6.8294707 c 0.2238538,-0.030014 0.6027798,-0.030014 0.7978698,-0.00125 0.08129,0.012506 0.148819,0.020009 0.15132,0.018759 0.0013,-0.0025 0.02001,-0.045021 0.04127,-0.092543 0.296387,-0.6615568 0.702825,-1.5207053 0.934183,-1.9759164 0.236359,-0.4639652 0.295137,-0.610283 0.356415,-0.8966659 0.04252,-0.2038445 0.05628,-0.3476612 0.05628,-0.5915243 0,-0.265123 -0.02001,-0.4364524 -0.07879,-0.6765638 C 11.85866,1.8346542 11.249627,0.70287928 10.750646,0.19639438 10.595574,0.04007188 10.513036,0.00880738 10.235407,0.0013039 10.124105,-0.00244784 10.002799,0.00255448 9.9227621,0.01255912 Z"
     id="path1"
     class="ColorScheme-Text"
     style="stroke-width:0.00125058;fill:url(#oomox)" />
  <path
     d="M 10.195389,6.9857932 C 9.8289686,7.0520739 9.5138224,7.3034405 9.2899686,7.7073779 9.139899,7.9787537 9.0836229,8.3164103 9.1524048,8.5402641 c 0.047522,0.155072 0.2438631,0.3951833 0.3801763,0.4639652 0.035016,0.017508 0.1113016,0.04377 0.1688283,0.057527 0.1025476,0.023761 0.3201486,0.055025 0.3289026,0.046271 0.0025,-0.0025 -0.01251,-0.045021 -0.033766,-0.096295 -0.1113016,-0.2638724 -0.1113016,-0.5652622 0,-0.8441415 0.041269,-0.1025476 0.127559,-0.2538677 0.190088,-0.3326543 0.02001,-0.025012 0.03627,-0.056276 0.03627,-0.070032 0,-0.038768 0.03627,-0.077536 0.07879,-0.085039 0.02376,-0.005 0.08379,-0.036267 0.135062,-0.070032 0.253868,-0.1700789 0.599028,-0.288884 0.944188,-0.3239002 0.06753,-0.0075 0.123808,-0.015007 0.126309,-0.017508 0.0088,-0.00875 -0.331404,-0.1550719 -0.435202,-0.1888376 -0.238861,-0.076285 -0.353914,-0.095044 -0.592775,-0.1000464 -0.123807,-0.0025 -0.251366,0 -0.283881,0.00625 z"
     id="path2"
     class="ColorScheme-Text"
     style="stroke-width:0.00125058;fill:url(#oomox)" />
  <path
     d="m 9.5788526,7.1070995 c -0.098796,0.013756 -0.3001392,0.058777 -0.4164432,0.092543 -0.2551183,0.075035 -0.4251972,0.17258 -0.5965266,0.3426589 -0.2438631,0.2451137 -0.312645,0.4276984 -0.312645,0.8316357 0.00125,0.1738306 0.005,0.2238538 0.030014,0.3163967 0.033766,0.1338121 0.071283,0.2201021 0.1313109,0.3026404 0.088791,0.1238074 0.3063921,0.2551183 0.485225,0.2913851 0.090042,0.018759 0.1062993,0.018759 0.2188515,0 0.067531,-0.011255 0.163826,-0.033766 0.2150998,-0.050023 L 9.4250312,9.2055727 9.3487459,9.139292 C 9.2049292,9.014234 9.0898758,8.8303987 9.0348503,8.6365588 8.9835765,8.4589764 8.9898294,8.0450345 9.0448549,7.9399857 9.0936275,7.8474428 9.2311913,7.6223384 9.3074767,7.5110368 9.4025208,7.3709718 9.4738039,7.2834312 9.577602,7.1758814 c 0.041269,-0.04252 0.067531,-0.076285 0.057527,-0.076285 -0.010005,0.00125 -0.035016,0.005 -0.056276,0.0075 z"
     id="path3"
     class="ColorScheme-Text"
     style="stroke-width:0.00125058;fill:url(#oomox)" />
  <path
     d="m 11.379688,7.3697213 c -0.268875,0.035016 -0.556508,0.148819 -0.801622,0.3188979 -0.176332,0.1213062 -0.370172,0.3464106 -0.441455,0.5139883 -0.05377,0.1238075 -0.06753,0.2063457 -0.05753,0.3451601 0.02251,0.3501624 0.117554,0.5027332 0.463965,0.7490974 l 0.09004,0.062529 0.01501,-0.1238074 c 0.03252,-0.2626218 0.141316,-0.4877262 0.331404,-0.6803155 0.123808,-0.1275592 0.250116,-0.2176009 0.416443,-0.297638 0.06003,-0.030014 0.126309,-0.070032 0.146318,-0.088791 0.03377,-0.031265 0.04377,-0.033766 0.09379,-0.027513 0.07629,0.011255 0.06253,0.011255 0.231357,0.00125 0.327652,-0.020009 0.702826,0.053775 1.059241,0.2063457 0.130061,0.055025 0.131311,0.061278 -0.02751,-0.148819 -0.322649,-0.428949 -0.750348,-0.7353411 -1.136777,-0.8141276 -0.115053,-0.02251 -0.276378,-0.030014 -0.382677,-0.016258 z"
     id="path4"
     class="ColorScheme-Text"
     style="stroke-width:0.00125058;fill:url(#oomox)" />
  <path
     d="M 8.0869106,7.8999672 C 7.7630104,8.1425797 7.5979339,8.3626818 7.5279014,8.6415611 c -0.055026,0.2188515 -0.040019,0.3626682 0.061278,0.5765174 0.1275592,0.2701253 0.2988886,0.461464 0.4914779,0.547754 0.1388144,0.061279 0.3701717,0.073784 0.5314965,0.026262 0.078787,-0.023761 0.1975917,-0.101297 0.3076427,-0.2000928 L 8.9985835,9.5207189 8.8860313,9.4919555 C 8.5308665,9.4019138 8.2932563,9.1793105 8.1406856,8.7928813 c -0.035016,-0.08629 -0.035016,-0.087541 -0.026262,-0.3001392 0.010005,-0.2713759 0.055026,-0.577768 0.097545,-0.6603062 0.018759,-0.035016 -0.00375,-0.023761 -0.125058,0.067531 z"
     id="path5"
     class="ColorScheme-Text"
     style="stroke-width:0.00125058;fill:url(#oomox)" />
  <path
     d="m 11.811138,8.4064521 c -0.278879,0.050023 -0.532747,0.1738306 -0.701576,0.3426589 -0.05503,0.053775 -0.08754,0.1037981 -0.141315,0.2138492 -0.15007,0.3088932 -0.163826,0.4964802 -0.05878,0.7853642 0.04252,0.1175545 0.117554,0.2888836 0.126308,0.2876336 0.0038,0 0.02626,-0.03127 0.05002,-0.070033 0.05753,-0.093794 0.23636,-0.273877 0.336406,-0.3414083 0.247615,-0.1663271 0.521492,-0.2413619 0.857898,-0.2376102 0.102548,0.00125 0.198843,0.0025 0.212599,0.0025 0.01376,0 0.04877,-0.00375 0.07879,-0.00875 0.05002,-0.00875 0.05753,-0.00625 0.100046,0.035016 0.02501,0.023761 0.08879,0.062529 0.140065,0.08629 0.337656,0.1550719 0.674062,0.4452064 0.931682,0.8053735 0.03877,0.05377 0.07253,0.100046 0.07378,0.101297 0,0.0013 -0.0025,-0.06378 -0.0075,-0.143817 -0.02876,-0.4602132 -0.165077,-0.919176 -0.36642,-1.2330716 -0.223854,-0.351413 -0.532747,-0.5452529 -0.995462,-0.6265406 -0.132561,-0.023761 -0.505234,-0.02251 -0.636545,0.00125 z"
     id="path6"
     class="ColorScheme-Text"
     style="stroke-width:0.00125058;fill:url(#oomox)" />
  <path
     d="M 7.2977947,9.1042757 C 7.1552285,9.4181713 7.11521,9.672039 7.1714861,9.8946423 c 0.055026,0.2125987 0.1325615,0.3238997 0.3113944,0.4452067 0.1863364,0.127559 0.3651694,0.187587 0.5515058,0.186336 0.091292,0 0.1263086,-0.0063 0.226355,-0.04252 0.2951368,-0.107549 0.3639187,-0.178832 0.4064385,-0.422696 0.010005,-0.062529 0.017508,-0.1150529 0.015007,-0.1175541 -0.0025,-0.0025 -0.051274,0.010005 -0.110051,0.027513 C 8.4358225,10.012197 8.2244744,10.017199 8.0969153,9.9821829 7.9005742,9.9284079 7.6704675,9.7820901 7.6179431,9.6770414 7.6016856,9.6445263 7.5591659,9.5644892 7.5241496,9.4982084 7.4441125,9.35064 7.3903376,9.2205797 7.3590731,9.1055263 l -0.022511,-0.087541 z"
     id="path7"
     class="ColorScheme-Text"
     style="stroke-width:0.00125058;fill:url(#oomox)" />
  <path
     d="m 9.6889036,9.2543453 c -0.028763,0.00875 -0.071283,0.028763 -0.095044,0.04377 -0.050023,0.030014 -0.125058,0.1350627 -0.1463178,0.2063457 -0.030014,0.093794 0.0075,0.1975917 0.092543,0.2551183 0.075035,0.051274 0.077536,0.050023 0.072534,-0.046271 -0.005,-0.072534 0,-0.097545 0.026262,-0.1550719 0.017508,-0.037517 0.055026,-0.092543 0.083789,-0.1200557 0.046271,-0.04377 0.17258,-0.116304 0.2563689,-0.1450673 0.02126,-0.0075 0.017508,-0.011255 -0.025012,-0.027513 -0.072534,-0.026262 -0.202594,-0.031264 -0.2651231,-0.011255 z"
     id="path8"
     class="ColorScheme-Text"
     style="stroke-width:0.00125058;fill:url(#oomox)" />
  <path
     d="m 9.2812145,9.3906585 c -0.068782,0.050023 -0.1275591,0.1200557 -0.1475684,0.1800836 -0.031265,0.096295 0.016258,0.2663735 0.090042,0.3201484 0.04252,0.030014 0.1225568,0.040019 0.1788329,0.02126 0.025012,-0.0075 0.045021,-0.018759 0.045021,-0.02251 0,-0.005 -0.020009,-0.02126 -0.04377,-0.036267 C 9.381261,9.8383665 9.346245,9.7983475 9.326236,9.7658325 9.294971,9.7133085 9.29122,9.6932985 9.29122,9.6057583 9.29247,9.5369763 9.301225,9.4819509 9.318733,9.4306771 9.33374,9.3894081 9.343745,9.3543921 9.342494,9.3531411 c -0.00125,-0.0025 -0.028763,0.015007 -0.061278,0.037517 z"
     id="path9"
     class="ColorScheme-Text"
     style="stroke-width:0.00125058;fill:url(#oomox)" />
  <path
     d="m 10.076583,9.3919091 c -0.1788325,0.058777 -0.2926353,0.1988422 -0.2713754,0.3351555 0.013756,0.083789 0.1050487,0.2176009 0.1050487,0.1538213 0,-0.040019 0.078786,-0.1700789 0.1263087,-0.2075963 0.105049,-0.082538 0.256369,-0.1175545 0.423946,-0.098796 0.05127,0.005 0.09629,0.0075 0.100047,0.00375 0.01251,-0.012506 -0.120056,-0.1188051 -0.196341,-0.1563225 -0.09129,-0.045021 -0.206346,-0.057527 -0.287634,-0.030014 z"
     id="path10"
     class="ColorScheme-Text"
     style="stroke-width:0.00125058;fill:url(#oomox)" />
  <path
     d="m 11.998725,9.6545309 c -0.295137,0.052524 -0.480223,0.1563225 -0.706578,0.3964341 -0.121306,0.12881 -0.17383,0.222603 -0.192589,0.34516 -0.01501,0.09755 -0.04252,0.516489 -0.03502,0.525243 0.0025,0.0025 0.06378,-0.02376 0.135062,-0.05753 0.170079,-0.08254 0.293887,-0.113803 0.475221,-0.122557 0.312645,-0.01501 0.680315,0.0963 0.954192,0.287633 0.04252,0.03001 0.103798,0.06128 0.136313,0.07003 0.06503,0.01876 0.102548,0.05628 0.115054,0.116304 0.005,0.02126 0.03627,0.07378 0.06878,0.115053 0.15132,0.19384 0.313895,0.492729 0.405188,0.747847 0.05127,0.141315 0.110051,0.365169 0.140065,0.532747 0.01126,0.06378 0.02251,0.113803 0.02376,0.112552 0.01126,-0.01126 0.110051,-0.273877 0.148819,-0.396434 0.123807,-0.383928 0.175081,-0.680315 0.175081,-1.020473 0.0013,-0.393933 -0.05753,-0.589023 -0.256369,-0.856647 C 13.32559,10.098487 12.87163,9.7683337 12.525219,9.6782919 12.3764,9.6407745 12.14004,9.6295193 11.998725,9.6545309 Z"
     id="path11"
     class="ColorScheme-Text"
     style="stroke-width:0.00125058;fill:url(#oomox)" />
  <path
     d="m 8.9348039,9.7558279 c -0.060028,0.1313109 -0.023761,0.2626221 0.092543,0.3401581 0.087541,0.05878 0.1450673,0.05377 0.2238538,-0.01876 0.045021,-0.04252 0.04252,-0.05252 -0.00875,-0.05252 -0.060028,0 -0.1062993,-0.02001 -0.155072,-0.066281 C 9.0348547,9.908402 9.0110937,9.864632 8.9835806,9.7683368 l -0.02126,-0.075035 z"
     id="path12"
     class="ColorScheme-Text"
     style="stroke-width:0.00125058;fill:url(#oomox)" />
  <path
     d="m 10.24166,9.7308163 c -0.127559,0.047522 -0.195091,0.148819 -0.195091,0.2926357 0,0.04877 0.0025,0.09379 0.0063,0.100046 0.0038,0.0063 0.02751,-0.0088 0.05252,-0.03252 0.07754,-0.07253 0.160074,-0.1075495 0.275127,-0.1138024 0.153822,-0.00875 0.283882,0.036266 0.45271,0.1563224 0.04252,0.03001 0.07754,0.05252 0.07754,0.05002 0,-0.0025 -0.0088,-0.03502 -0.02001,-0.07253 C 10.840688,9.9434149 10.73814,9.8083523 10.614333,9.749575 10.538047,9.7120576 10.321697,9.702053 10.24166,9.7308163 Z"
     id="path13"
     class="ColorScheme-Text"
     style="stroke-width:0.00125058;fill:url(#oomox)" />
  <path
     d="m 10.302938,10.137255 c -0.06253,0.02001 -0.150069,0.106299 -0.191338,0.190088 -0.02126,0.04252 -0.03627,0.07879 -0.03252,0.08254 0.0025,0.0038 0.03126,-0.0013 0.06253,-0.01 0.03376,-0.01 0.09629,-0.01376 0.158823,-0.01 0.122557,0.0063 0.207597,0.04252 0.308893,0.131311 0.07128,0.06253 0.173831,0.210097 0.216351,0.312645 0.01501,0.03627 0.03126,0.06628 0.03627,0.06628 0.0075,0 0.02626,-0.09254 0.04127,-0.206346 0.01,-0.07754 -0.01376,-0.203845 -0.05628,-0.290135 -0.07253,-0.150069 -0.246365,-0.263872 -0.415193,-0.273877 -0.05002,-0.0025 -0.10755,0.0013 -0.12881,0.0075 z"
     id="path14"
     class="ColorScheme-Text"
     style="stroke-width:0.00125058;fill:url(#oomox)" />
  <path
     d="m 8.8485139,10.201034 c 0.026262,0.115054 0.083789,0.178833 0.1813341,0.200093 0.1113016,0.02501 0.187587,-0.01626 0.2050951,-0.113803 0.005,-0.02751 0.0075,-0.05002 0.00625,-0.05002 -0.00125,0 -0.030014,0.01126 -0.062529,0.02626 -0.045021,0.02001 -0.072534,0.02376 -0.1113016,0.01876 -0.058777,-0.01001 -0.1375638,-0.05252 -0.1813341,-0.100046 -0.04252,-0.04502 -0.050023,-0.04127 -0.037517,0.01876 z"
     id="path15"
     class="ColorScheme-Text"
     style="stroke-width:0.00125058;fill:url(#oomox)" />
  <path
     d="m 7.2465209,10.361109 c 0,0.06878 0.028763,0.28013 0.050023,0.370171 0.062529,0.25887 0.2463642,0.483975 0.4514594,0.552757 0.095044,0.03126 0.3951832,0.03252 0.5102366,0 0.1950905,-0.05377 0.3301531,-0.153822 0.4677169,-0.347662 0.101297,-0.143816 0.1188051,-0.23761 0.070032,-0.393932 -0.045021,-0.146318 -0.036267,-0.145068 -0.1563225,-0.03127 -0.081288,0.07754 -0.1338121,0.113803 -0.2213527,0.157573 -0.1563225,0.07754 -0.2626218,0.0988 -0.4514593,0.08879 -0.1288098,-0.005 -0.155072,-0.01 -0.1938399,-0.03627 -0.025012,-0.01626 -0.083789,-0.05252 -0.1325615,-0.08004 -0.1150534,-0.06753 -0.2338585,-0.155072 -0.3213991,-0.238861 -0.062529,-0.05878 -0.072534,-0.06503 -0.072534,-0.04127 z"
     id="path16"
     class="ColorScheme-Text"
     style="stroke-width:0.00125058;fill:url(#oomox)" />
  <path
     d="m 9.2874674,10.462406 c -0.033766,0.07378 -0.1588236,0.113802 -0.2688747,0.08379 -0.033766,-0.0088 -0.035016,-0.0088 -0.016258,0.02001 0.052524,0.08004 0.1925893,0.1088 0.2713759,0.05502 0.061278,-0.04127 0.080037,-0.08754 0.062529,-0.147568 -0.017508,-0.05878 -0.027513,-0.06128 -0.048773,-0.01126 z"
     id="path17"
     class="ColorScheme-Text"
     style="stroke-width:0.00125058;fill:url(#oomox)" />
  <path
     d="m 10.172878,10.516181 c -0.03877,0.01626 -0.09755,0.04752 -0.131311,0.07128 l -0.061278,0.04252 0.083789,0.02751 c 0.327652,0.110051 0.456461,0.437703 0.365169,0.924179 -0.0075,0.03376 0.0013,0.02876 0.08504,-0.05753 0.233859,-0.238861 0.290135,-0.500232 0.162576,-0.759102 C 10.56306,10.53243 10.36797,10.436135 10.172879,10.516173 Z"
     id="path18"
     class="ColorScheme-Text"
     style="stroke-width:0.00125058;fill:url(#oomox)" />
  <path
     d="m 9.4462911,10.594967 c 0.00375,0.05503 0.00125,0.06003 -0.061278,0.118805 l -0.06503,0.06128 h 0.045021 c 0.091292,0 0.1575731,-0.06253 0.1575731,-0.148819 0,-0.02501 -0.010005,-0.04502 -0.032515,-0.06253 -0.018759,-0.01501 -0.036267,-0.02626 -0.041269,-0.02626 -0.00375,0 -0.005,0.02626 -0.0025,0.05753 z"
     id="path19"
     class="ColorScheme-Text"
     style="stroke-width:0.00125058;fill:url(#oomox)" />
  <path
     d="m 8.9810753,10.787556 c -0.00375,0.01 -0.018759,0.05753 -0.033766,0.1063 -0.08629,0.278879 -0.312645,0.472719 -0.62529,0.539 -0.1000464,0.02126 -0.336406,0.02751 -0.4502088,0.01126 l -0.068782,-0.0088 0.068782,0.07128 c 0.2251044,0.232608 0.5440023,0.347661 0.8153781,0.292636 0.1750812,-0.03502 0.2226033,-0.05878 0.3301532,-0.166328 C 9.224938,11.425308 9.2837153,11.216461 9.1911724,11.01887 9.1499034,10.93383 8.989829,10.757498 8.9810749,10.787512 Z"
     id="path20"
     class="ColorScheme-Text"
     style="stroke-width:0.00125058;fill:url(#oomox)" />
  <path
     d="m 9.866486,10.880099 c -0.027513,0.01 -0.06503,0.02251 -0.082538,0.03001 l -0.033766,0.01376 0.066281,0.06628 c 0.110051,0.113803 0.1688283,0.283882 0.1500696,0.435202 -0.017508,0.147569 -0.1050487,0.348912 -0.2176009,0.498982 -0.028763,0.03752 -0.048773,0.07003 -0.046271,0.07253 0.010005,0.01 0.235109,-0.07128 0.2926357,-0.105048 0.2563696,-0.151321 0.3889306,-0.453961 0.3213996,-0.739093 -0.03252,-0.137564 -0.101297,-0.233859 -0.191339,-0.272627 -0.05252,-0.02126 -0.191339,-0.02126 -0.2588703,0 z"
     id="path21"
     class="ColorScheme-Text"
     style="stroke-width:0.00125058;fill:url(#oomox)" />
  <path
     d="m 9.3412424,10.948881 c 0.091292,0.235109 0.087541,0.41019 -0.013756,0.601529 -0.078786,0.15132 -0.2513666,0.311395 -0.4439559,0.413942 -0.071283,0.03877 -0.073784,0.04127 -0.046271,0.05252 0.015007,0.0063 0.08504,0.01376 0.1538214,0.01751 0.2526171,0.01376 0.4802227,-0.07003 0.649051,-0.238861 0.1025476,-0.102548 0.1375638,-0.165077 0.163826,-0.290135 0.068782,-0.322649 -0.070032,-0.521492 -0.3914316,-0.565262 -0.070032,-0.01 -0.077536,-0.0088 -0.071283,0.0088 z"
     id="path22"
     class="ColorScheme-Text"
     style="stroke-width:0.00125058;fill:url(#oomox)" />
  <path
     d="m 11.564774,10.956385 c -0.240112,0.04502 -0.407689,0.111301 -0.503984,0.201343 -0.06753,0.06378 -0.232608,0.277629 -0.337657,0.437703 l -0.06503,0.0988 0.08629,0.0088 c 0.411441,0.04502 0.675313,0.168828 0.952942,0.450209 0.140065,0.141315 0.247615,0.296387 0.352664,0.506485 l 0.08879,0.176331 0.05628,0.01501 c 0.136313,0.03377 0.15007,0.09254 0.04627,0.201344 l -0.04377,0.04377 0.01501,0.125058 c 0.01876,0.153821 0.0075,0.537749 -0.02001,0.71158 -0.04627,0.296388 -0.115054,0.525244 -0.265123,0.880408 -0.01876,0.04377 0.402687,-0.286382 0.615285,-0.482723 0.433951,-0.398935 0.717833,-0.831636 0.789116,-1.201808 0.04127,-0.213849 0.01001,-0.557759 -0.07754,-0.867902 -0.06878,-0.241362 -0.217601,-0.562761 -0.337656,-0.73159 -0.210098,-0.295137 -0.540251,-0.503983 -0.902919,-0.574016 -0.112552,-0.02126 -0.326402,-0.02126 -0.448958,0.0013 z"
     id="path23"
     class="ColorScheme-Text"
     style="stroke-width:0.00125058;fill:url(#oomox)" />
  <path
     d="m 7.6429547,11.750503 c -0.016258,0.287633 -0.070032,0.501483 -0.1888375,0.744095 -0.04377,0.08879 -0.116304,0.212599 -0.1588237,0.275128 -0.1563225,0.220102 -0.4427053,0.477721 -0.7165823,0.644048 -0.1125522,0.06753 -0.3314037,0.173831 -0.4089397,0.198843 -0.045021,0.01376 -0.046272,0.01626 -0.051274,0.08629 -0.005,0.06878 -0.047522,0.176331 -0.081288,0.203844 -0.028763,0.02501 -0.1062993,-0.01376 -0.1938399,-0.0988 -0.046271,-0.04377 -0.088791,-0.07754 -0.095044,-0.07253 -0.00625,0.0038 -0.1088004,0.01251 -0.2288561,0.01876 C 5.00298,13.778941 4.4777364,13.701411 3.963748,13.518824 3.8136784,13.465054 3.5760682,13.362502 3.4860264,13.311228 c -0.036267,-0.02126 -0.066281,-0.03377 -0.066281,-0.02876 0,0.01251 0.250116,0.34391 0.3539141,0.468968 0.7103295,0.854146 1.4069025,1.363132 2.015935,1.470682 0.2013434,0.03627 0.5990278,0.01 0.9191763,-0.05878 0.5452529,-0.118805 1.0955081,-0.385179 1.4181577,-0.687819 0.2751276,-0.256369 0.4602134,-0.657805 0.5189907,-1.124272 0.04377,-0.352663 0.041269,-0.537749 -0.012506,-0.719083 C 8.5683832,12.417064 8.473339,12.285753 8.2757473,12.143187 8.0931635,12.011874 7.9155812,11.863055 7.7705139,11.72299 L 7.6504582,11.606686 Z"
     id="path24"
     class="ColorScheme-Text"
     style="stroke-width:0.00125058;fill:url(#oomox)" />
  <path
     d="m 10.495528,11.900573 c -0.07754,0.01376 -0.161325,0.04127 -0.316397,0.106299 -0.1800835,0.07629 -0.4314501,0.196341 -0.4314501,0.206346 0,0.005 0.016258,0.01626 0.035016,0.02376 0.061278,0.02501 0.2188521,0.133812 0.3026401,0.210097 0.3214,0.286383 0.486476,0.657805 0.508987,1.148032 0.0063,0.142567 -0.0088,0.377676 -0.02876,0.445207 -0.0038,0.01376 0.01126,0.03126 0.04502,0.05377 0.05753,0.03752 0.116304,0.120056 0.110051,0.152571 -0.005,0.03126 -0.07503,0.07503 -0.157573,0.101297 -0.06253,0.02001 -0.07128,0.02751 -0.08879,0.07253 -0.03752,0.09755 -0.148819,0.316397 -0.218852,0.427699 -0.202594,0.328902 -0.526494,0.661556 -0.8641506,0.887911 -0.061278,0.04127 -0.1313109,0.08504 -0.1538214,0.09755 -0.023761,0.01126 -0.040019,0.02376 -0.036267,0.02626 0.00875,0.01 0.4402042,-0.06503 0.6603063,-0.113803 0.9029187,-0.201343 1.4881907,-0.488977 1.7570657,-0.865401 0.142566,-0.197592 0.292635,-0.611534 0.361417,-0.99171 0.02751,-0.153822 0.04002,-0.615286 0.02001,-0.765355 -0.04627,-0.34516 -0.177582,-0.621538 -0.405187,-0.851645 -0.09629,-0.09755 -0.250116,-0.210098 -0.367671,-0.268875 -0.171329,-0.08754 -0.525244,-0.137564 -0.731589,-0.102547 z"
     id="path25"
     class="ColorScheme-Text"
     style="stroke-width:0.00125058;fill:url(#oomox)" />
  <path
     d="m 8.6471705,12.191958 c 0,0.0025 0.030014,0.06253 0.067531,0.135062 0.2213527,0.426448 0.2601206,0.876657 0.1113016,1.324365 -0.082538,0.250116 -0.2326079,0.522742 -0.3976844,0.722835 l -0.06503,0.07879 0.026262,0.05252 c 0.015007,0.03252 0.027513,0.08504 0.030014,0.136313 l 0.005,0.08379 -0.052524,0.01501 c -0.041269,0.01251 -0.067531,0.01251 -0.1213063,0.0012 l -0.068782,-0.01376 -0.1025475,0.07253 c -0.4076891,0.293886 -0.9116729,0.501482 -1.4569257,0.602779 -0.1525708,0.02751 -0.4364525,0.06128 -0.530246,0.06128 l -0.06503,0.0012 0.04377,0.02251 c 0.1650765,0.08754 0.774109,0.297638 1.0817517,0.373923 0.8316357,0.207596 1.4819373,0.180084 1.9058839,-0.08129 0.6553039,-0.402686 1.2305702,-1.153034 1.3443742,-1.754563 0.07128,-0.373924 0.0013,-0.776611 -0.191339,-1.105513 C 10.077834,12.69219 9.7789454,12.440823 9.5125718,12.332023 9.4325347,12.299508 9.187421,12.254487 8.8622702,12.214468 8.6371658,12.185705 8.6471705,12.186955 8.6471705,12.191958 Z"
     id="path26"
     class="ColorScheme-Text"
     style="stroke-width:0.00125058;fill:url(#oomox)" />
</svg>
