<?xml version="1.0" encoding="UTF-8" standalone="no"?>
<!-- Created with Inkscape (http://www.inkscape.org/) -->

<svg
   width="16"
   height="16"
   id="svg5453"
   version="1.1"
   xmlns:xlink="http://www.w3.org/1999/xlink"
   xmlns="http://www.w3.org/2000/svg"
   xmlns:svg="http://www.w3.org/2000/svg"
   xmlns:rdf="http://www.w3.org/1999/02/22-rdf-syntax-ns#"
   xmlns:cc="http://creativecommons.org/ns#"
   xmlns:dc="http://purl.org/dc/elements/1.1/">
   <defs>
   <style id="current-color-scheme" type="text/css">
   .ColorScheme-Text { color: #0abdc6; } .ColorScheme-Highlight { color:#5294e2; }
  </style>
  <linearGradient id="arrongin" x1="0%" x2="0%" y1="0%" y2="100%">
   <stop offset="0%" style="stop-color:#dd9b44; stop-opacity:1"/>
   <stop offset="100%" style="stop-color:#ad6c16; stop-opacity:1"/>
  </linearGradient>
  <linearGradient id="aurora" x1="0%" x2="0%" y1="0%" y2="100%">
   <stop offset="0%" style="stop-color:#09D4DF; stop-opacity:1"/>
   <stop offset="100%" style="stop-color:#9269F4; stop-opacity:1"/>
  </linearGradient>
  <linearGradient id="cyberneon" x1="0%" x2="0%" y1="0%" y2="100%">
    <stop offset="0" style="stop-color:#0abdc6; stop-opacity:1"/>
    <stop offset="1" style="stop-color:#ea00d9; stop-opacity:1"/>
  </linearGradient>
  <linearGradient id="fitdance" x1="0%" x2="0%" y1="0%" y2="100%">
   <stop offset="0%" style="stop-color:#1AD6AB; stop-opacity:1"/>
   <stop offset="100%" style="stop-color:#329DB6; stop-opacity:1"/>
  </linearGradient>
  <linearGradient id="oomox" x1="0%" x2="0%" y1="0%" y2="100%">
   <stop offset="0%" style="stop-color:#0abdc6; stop-opacity:1"/>
   <stop offset="100%" style="stop-color:#b800ff; stop-opacity:1"/>
  </linearGradient>
  <linearGradient id="rainblue" x1="0%" x2="0%" y1="0%" y2="100%">
   <stop offset="0%" style="stop-color:#00F260; stop-opacity:1"/>
   <stop offset="100%" style="stop-color:#0575E6; stop-opacity:1"/>
  </linearGradient>
  <linearGradient id="sunrise" x1="0%" x2="0%" y1="0%" y2="100%">
   <stop offset="0%" style="stop-color: #FF8501; stop-opacity:1"/>
   <stop offset="100%" style="stop-color: #FFCB01; stop-opacity:1"/>
  </linearGradient>
  <linearGradient id="telinkrin" x1="0%" x2="0%" y1="0%" y2="100%">
   <stop offset="0%" style="stop-color: #b2ced6; stop-opacity:1"/>
   <stop offset="100%" style="stop-color: #6da5b7; stop-opacity:1"/>
  </linearGradient>
  <linearGradient id="60spsycho" x1="0%" x2="0%" y1="0%" y2="100%">
   <stop offset="0%" style="stop-color: #df5940; stop-opacity:1"/>
   <stop offset="25%" style="stop-color: #d8d15f; stop-opacity:1"/>
   <stop offset="50%" style="stop-color: #e9882a; stop-opacity:1"/>
   <stop offset="100%" style="stop-color: #279362; stop-opacity:1"/>
  </linearGradient>
  <linearGradient id="90ssummer" x1="0%" x2="0%" y1="0%" y2="100%">
   <stop offset="0%" style="stop-color: #f618c7; stop-opacity:1"/>
   <stop offset="20%" style="stop-color: #94ffab; stop-opacity:1"/>
   <stop offset="50%" style="stop-color: #fbfd54; stop-opacity:1"/>
   <stop offset="100%" style="stop-color: #0f83ae; stop-opacity:1"/>
  </linearGradient>
 </defs>
  <metadata
     id="metadata5458">
    <rdf:RDF>
      <cc:Work
         rdf:about="">
        <dc:format>image/svg+xml</dc:format>
        <dc:type
           rdf:resource="http://purl.org/dc/dcmitype/StillImage" />
        <cc:license
           rdf:resource="http://creativecommons.org/licenses/by-sa/4.0/" />
        <dc:creator>
          <cc:Agent>
            <dc:title>dreifacherspass</dc:title>
          </cc:Agent>
        </dc:creator>
      </cc:Work>
      <cc:License
         rdf:about="http://creativecommons.org/licenses/by-sa/4.0/">
        <cc:permits
           rdf:resource="http://creativecommons.org/ns#Reproduction" />
        <cc:permits
           rdf:resource="http://creativecommons.org/ns#Distribution" />
        <cc:requires
           rdf:resource="http://creativecommons.org/ns#Notice" />
        <cc:requires
           rdf:resource="http://creativecommons.org/ns#Attribution" />
        <cc:permits
           rdf:resource="http://creativecommons.org/ns#DerivativeWorks" />
        <cc:requires
           rdf:resource="http://creativecommons.org/ns#ShareAlike" />
      </cc:License>
    </rdf:RDF>
  </metadata>
  <path
     style="fill:url(#oomox);fill-opacity:0.4;stroke:none;stroke-width:1.12;stroke-miterlimit:4;stroke-dasharray:none;stroke-opacity:0.550265"
     d="M 8.0000034,0 C 3.5680019,0 0,3.5680019 0,7.9999966 H 0.40000138 2.7999959 c 0,-2.8807944 2.3192063,-5.2000007 5.2000075,-5.2000007 z m 5.2000006,7.9999966 c 0,2.8808014 -2.319206,5.2000074 -5.2000006,5.2000074 V 16 C 12.431998,16 16,12.431998 16,7.9999966 Z"
     id="rect4176"
     class="ColorScheme-Text" />
  <path
     style="fill:url(#oomox);fill-opacity:0.6;stroke:none;stroke-width:1.12;stroke-miterlimit:4;stroke-dasharray:none;stroke-opacity:0.550265"
     d="m 8.0000034,1.2000041 c -3.7672043,0 -6.7999993,3.032795 -6.7999993,6.7999925 0,3.7672044 3.032795,6.7999994 6.7999993,6.7999994 3.7671976,0 6.7999926,-3.032795 6.7999926,-6.7999994 H 12 C 12,10.21599 10.215994,12 8.0000034,12 5.7840062,12 4.0000002,10.21599 4.0000002,7.9999966 c 0,-2.215987 1.784006,-3.9999964 4.0000032,-3.9999964 z"
     id="rect4181"
     class="ColorScheme-Text" />
  <path
     style="fill:url(#oomox);fill-opacity:1;stroke:none;stroke-width:1.12;stroke-miterlimit:4;stroke-dasharray:none;stroke-opacity:0.550265"
     d="m 8.0000034,3.1999972 c -2.6591989,0 -4.8000062,2.1408073 -4.8000062,4.7999994 0,2.6591984 2.1408073,4.8000064 4.8000062,4.8000064 2.6591916,0 4.7999996,-2.140808 4.7999996,-4.8000064 0,-2.6591921 -2.140808,-4.7999994 -4.7999996,-4.7999994 z m 0,2.000007 c 1.5511935,0 2.7999926,1.2487993 2.7999926,2.7999924 0,1.5512003 -1.2487991,2.7999994 -2.7999926,2.7999994 -1.5511999,0 -2.7999992,-1.2487991 -2.7999992,-2.7999994 0,-1.5511931 1.2487993,-2.7999924 2.7999992,-2.7999924 z"
     id="rect4197"
     class="ColorScheme-Text" />
</svg>
