<?xml version="1.0" encoding="UTF-8" standalone="no"?>
<!-- Created with Inkscape (http://www.inkscape.org/) -->

<svg
   width="16"
   height="16"
   viewBox="0 0 16 16"
   version="1.1"
   id="svg1"
   xmlns:xlink="http://www.w3.org/1999/xlink"
   xmlns="http://www.w3.org/2000/svg"
   xmlns:svg="http://www.w3.org/2000/svg"
   xmlns:rdf="http://www.w3.org/1999/02/22-rdf-syntax-ns#"
   xmlns:cc="http://creativecommons.org/ns#"
   xmlns:dc="http://purl.org/dc/elements/1.1/">
  <defs>
   <style id="current-color-scheme" type="text/css">
   .ColorScheme-Text { color: #0abdc6; } .ColorScheme-Highlight { color:#5294e2; }
  </style>
  <linearGradient id="arrongin" x1="0%" x2="0%" y1="0%" y2="100%">
   <stop offset="0%" style="stop-color:#dd9b44; stop-opacity:1"/>
   <stop offset="100%" style="stop-color:#ad6c16; stop-opacity:1"/>
  </linearGradient>
  <linearGradient id="aurora" x1="0%" x2="0%" y1="0%" y2="100%">
   <stop offset="0%" style="stop-color:#09D4DF; stop-opacity:1"/>
   <stop offset="100%" style="stop-color:#9269F4; stop-opacity:1"/>
  </linearGradient>
  <linearGradient id="cyberneon" x1="0%" x2="0%" y1="0%" y2="100%">
    <stop offset="0" style="stop-color:#0abdc6; stop-opacity:1"/>
    <stop offset="1" style="stop-color:#ea00d9; stop-opacity:1"/>
  </linearGradient>
  <linearGradient id="fitdance" x1="0%" x2="0%" y1="0%" y2="100%">
   <stop offset="0%" style="stop-color:#1AD6AB; stop-opacity:1"/>
   <stop offset="100%" style="stop-color:#329DB6; stop-opacity:1"/>
  </linearGradient>
  <linearGradient id="oomox" x1="0%" x2="0%" y1="0%" y2="100%">
   <stop offset="0%" style="stop-color:#0abdc6; stop-opacity:1"/>
   <stop offset="100%" style="stop-color:#b800ff; stop-opacity:1"/>
  </linearGradient>
  <linearGradient id="rainblue" x1="0%" x2="0%" y1="0%" y2="100%">
   <stop offset="0%" style="stop-color:#00F260; stop-opacity:1"/>
   <stop offset="100%" style="stop-color:#0575E6; stop-opacity:1"/>
  </linearGradient>
  <linearGradient id="sunrise" x1="0%" x2="0%" y1="0%" y2="100%">
   <stop offset="0%" style="stop-color: #FF8501; stop-opacity:1"/>
   <stop offset="100%" style="stop-color: #FFCB01; stop-opacity:1"/>
  </linearGradient>
  <linearGradient id="telinkrin" x1="0%" x2="0%" y1="0%" y2="100%">
   <stop offset="0%" style="stop-color: #b2ced6; stop-opacity:1"/>
   <stop offset="100%" style="stop-color: #6da5b7; stop-opacity:1"/>
  </linearGradient>
  <linearGradient id="60spsycho" x1="0%" x2="0%" y1="0%" y2="100%">
   <stop offset="0%" style="stop-color: #df5940; stop-opacity:1"/>
   <stop offset="25%" style="stop-color: #d8d15f; stop-opacity:1"/>
   <stop offset="50%" style="stop-color: #e9882a; stop-opacity:1"/>
   <stop offset="100%" style="stop-color: #279362; stop-opacity:1"/>
  </linearGradient>
  <linearGradient id="90ssummer" x1="0%" x2="0%" y1="0%" y2="100%">
   <stop offset="0%" style="stop-color: #f618c7; stop-opacity:1"/>
   <stop offset="20%" style="stop-color: #94ffab; stop-opacity:1"/>
   <stop offset="50%" style="stop-color: #fbfd54; stop-opacity:1"/>
   <stop offset="100%" style="stop-color: #0f83ae; stop-opacity:1"/>
  </linearGradient>
 </defs>
  <path
     id="path37"
     style="opacity:0.2;fill:url(#oomox);stroke-width:1.39051"
     class="ColorScheme-Text"
     d="M 0,0 H 16 V 16 H 0 Z" />
  <path
     id="path32"
     style="opacity:0.6;fill:url(#oomox);stroke-width:0.252386"
     class="ColorScheme-Text"
     d="M 12.400391 0 L 12.400391 7.5996094 L 13.199219 7.5996094 L 13.199219 0 L 12.400391 0 z M 12.400391 8.4003906 L 12.400391 16 L 13.199219 16 L 13.199219 8.4003906 L 12.400391 8.4003906 z " />
  <path
     id="path34"
     style="opacity:0.8;fill:url(#oomox);stroke-width:0.223792"
     class="ColorScheme-Text"
     d="M 0,7.6 H 16 V 8.4 H 0 Z" />
  <path
     id="path36"
     class="ColorScheme-Text"
     style="fill:url(#oomox);stroke:none;stroke-width:0.435648"
     d="M 12.400391,6.5976562 C 11.729885,6.7775447 11.262709,7.383914 11.259766,8.078125 v 0.7695312 h -0.373047 c -0.190117,0.00118 -0.343643,0.1555823 -0.34375,0.3457032 v 3.0117186 c 0.0012,0.189359 0.154391,0.342574 0.34375,0.34375 h 3.826172 c 0.189359,-0.0012 0.342574,-0.154391 0.34375,-0.34375 V 9.1933594 C 15.056534,9.0032385 14.903008,8.8488406 14.712891,8.8476562 H 14.339844 V 8.078125 C 14.336901,7.383914 13.869725,6.7775447 13.199219,6.5976562 v 0.5058594 c 0.395815,0.1621407 0.654874,0.546874 0.65625,0.9746094 V 8.8476562 H 11.742188 V 8.078125 c 0.0017,-0.4282126 0.261621,-0.8130798 0.658203,-0.9746094 z" />
  <path
     id="path38"
     style="opacity:0.6;fill:url(#oomox);stroke-width:0.252386"
     class="ColorScheme-Text"
     d="M 2.8,0 H 3.6 V 16 H 2.8 Z" />
  <path
     id="path39"
     style="opacity:0.6;fill:url(#oomox);stroke-width:0.252386"
     class="ColorScheme-Text"
     d="M 6,0 H 6.8 V 16 H 6 Z" />
  <path
     id="path40"
     style="opacity:0.6;fill:url(#oomox);stroke-width:0.252386"
     class="ColorScheme-Text"
     d="m 9.1999998,0 h 0.8 v 16 h -0.8 z" />
  <metadata
     id="metadata15">
    <rdf:RDF>
      <cc:Work
         rdf:about="">
        <dc:creator>
          <cc:Agent>
            <dc:title>dreifacherspass</dc:title>
          </cc:Agent>
        </dc:creator>
        <cc:license
           rdf:resource="http://creativecommons.org/licenses/by-sa/4.0/" />
      </cc:Work>
      <cc:License
         rdf:about="http://creativecommons.org/licenses/by-sa/4.0/">
        <cc:permits
           rdf:resource="http://creativecommons.org/ns#Reproduction" />
        <cc:permits
           rdf:resource="http://creativecommons.org/ns#Distribution" />
        <cc:requires
           rdf:resource="http://creativecommons.org/ns#Notice" />
        <cc:requires
           rdf:resource="http://creativecommons.org/ns#Attribution" />
        <cc:permits
           rdf:resource="http://creativecommons.org/ns#DerivativeWorks" />
        <cc:requires
           rdf:resource="http://creativecommons.org/ns#ShareAlike" />
      </cc:License>
    </rdf:RDF>
  </metadata>
  <path
     id="rect853"
     style="display:inline;opacity:1;fill:url(#oomox);stroke-width:0.15895;enable-background:new"
     class="ColorScheme-Text"
     d="m 3.6372912,8.2365217 0.9016321,-0.8993129 6.7453197,6.7476322 -0.89901,0.89932 z" />
  <path
     id="rect853-3"
     style="display:inline;fill:url(#oomox);stroke-width:0.0851244;enable-background:new"
     class="ColorScheme-Text"
     d="M 0.93614264,5.5356113 1.8370159,4.6347382 4.5396352,7.3373575 3.6387621,8.2382307 Z" />
  <path
     style="display:inline;fill:url(#oomox);fill-opacity:1;stroke:url(#oomox);stroke-width:0.119574;stroke-linecap:butt;stroke-miterlimit:4;stroke-dasharray:none;stroke-opacity:1;enable-background:new"
     d="m 2.5314204,10.65054 -0.1051946,0.204508 -0.2208432,0.02548 0.1541982,0.167265 -0.04443,0.226724 0.199935,-0.101274 0.1934011,0.114342 -0.030709,-0.229337 0.1646524,-0.156159 -0.2195365,-0.04051 z"
     id="path41-7-0"
     class="ColorScheme-Text"/>
  <path
     style="display:inline;fill:url(#oomox);fill-opacity:1;stroke:url(#oomox);stroke-width:0.119574;stroke-linecap:butt;stroke-miterlimit:4;stroke-dasharray:none;stroke-opacity:1;enable-background:new"
     d="m 0.79578818,8.914907 -0.1051946,0.2045085 -0.2208432,0.025481 0.1541982,0.1672658 -0.04443,0.2267234 0.199935,-0.101274 L 0.97285465,9.551954 0.94214555,9.3226169 1.106798,9.1664584 0.88726145,9.1259487 Z"
     id="path41-7-6"
     class="ColorScheme-Text"/>
  <path
     style="display:inline;fill:url(#oomox);fill-opacity:1;stroke:url(#oomox);stroke-width:0.119574;stroke-linecap:butt;stroke-miterlimit:4;stroke-dasharray:none;stroke-opacity:1;enable-background:new"
     d="M 4.5109863,2.8740386 4.4057917,3.0785471 4.1849485,3.1040286 4.3391467,3.2712944 4.2947167,3.4980178 4.4946517,3.3967438 4.6880528,3.5110856 4.6573437,3.2817485 4.8219961,3.12559 4.6024596,3.0850803 Z"
     id="path41-1"
     class="ColorScheme-Text"/>
  <path
     style="display:inline;fill:url(#oomox);fill-opacity:1;stroke:url(#oomox);stroke-width:0.119574;stroke-linecap:butt;stroke-miterlimit:4;stroke-dasharray:none;stroke-opacity:1;enable-background:new"
     d="M 5.756197,4.9149071 5.6510024,5.1194156 5.4301592,5.1448971 5.5843574,5.3121629 5.5399274,5.5388863 5.7398624,5.4376123 5.9332635,5.5519541 5.9025544,5.322617 6.0672068,5.1664585 5.8476703,5.1259488 Z"
     id="path41-7"
     class="ColorScheme-Text"/>
  <path
     style="display:inline;fill:url(#oomox);fill-opacity:1;stroke:url(#oomox);stroke-width:0.119574;stroke-linecap:butt;stroke-miterlimit:4;stroke-dasharray:none;stroke-opacity:1;enable-background:new"
     d="M 1.3219696,2.7705903 1.216775,2.9750988 0.9959318,3.0005803 1.15013,3.1678461 1.1057,3.3945695 1.305635,3.2932955 1.4990361,3.4076373 1.468327,3.1783002 1.6329794,3.0221417 1.4134429,2.981632 Z"
     id="path41"
     class="ColorScheme-Text"/>
</svg>
