<?xml version="1.0" encoding="UTF-8" standalone="no"?>
<svg
   version="1.1"
   viewBox="0 0 16 16"
   id="svg11"
   width="16"
   height="16"
   xmlns:xlink="http://www.w3.org/1999/xlink"
   xmlns="http://www.w3.org/2000/svg"
   xmlns:svg="http://www.w3.org/2000/svg"
   xmlns:rdf="http://www.w3.org/1999/02/22-rdf-syntax-ns#"
   xmlns:cc="http://creativecommons.org/ns#"
   xmlns:dc="http://purl.org/dc/elements/1.1/">
  <defs>
   <style id="current-color-scheme" type="text/css">
   .ColorScheme-Text { color: #0abdc6; } .ColorScheme-Highlight { color:#5294e2; }
  </style>
  <linearGradient id="arrongin" x1="0%" x2="0%" y1="0%" y2="100%">
   <stop offset="0%" style="stop-color:#dd9b44; stop-opacity:1"/>
   <stop offset="100%" style="stop-color:#ad6c16; stop-opacity:1"/>
  </linearGradient>
  <linearGradient id="aurora" x1="0%" x2="0%" y1="0%" y2="100%">
   <stop offset="0%" style="stop-color:#09D4DF; stop-opacity:1"/>
   <stop offset="100%" style="stop-color:#9269F4; stop-opacity:1"/>
  </linearGradient>
  <linearGradient id="cyberneon" x1="0%" x2="0%" y1="0%" y2="100%">
    <stop offset="0" style="stop-color:#0abdc6; stop-opacity:1"/>
    <stop offset="1" style="stop-color:#ea00d9; stop-opacity:1"/>
  </linearGradient>
  <linearGradient id="fitdance" x1="0%" x2="0%" y1="0%" y2="100%">
   <stop offset="0%" style="stop-color:#1AD6AB; stop-opacity:1"/>
   <stop offset="100%" style="stop-color:#329DB6; stop-opacity:1"/>
  </linearGradient>
  <linearGradient id="oomox" x1="0%" x2="0%" y1="0%" y2="100%">
   <stop offset="0%" style="stop-color:#0abdc6; stop-opacity:1"/>
   <stop offset="100%" style="stop-color:#b800ff; stop-opacity:1"/>
  </linearGradient>
  <linearGradient id="rainblue" x1="0%" x2="0%" y1="0%" y2="100%">
   <stop offset="0%" style="stop-color:#00F260; stop-opacity:1"/>
   <stop offset="100%" style="stop-color:#0575E6; stop-opacity:1"/>
  </linearGradient>
  <linearGradient id="sunrise" x1="0%" x2="0%" y1="0%" y2="100%">
   <stop offset="0%" style="stop-color: #FF8501; stop-opacity:1"/>
   <stop offset="100%" style="stop-color: #FFCB01; stop-opacity:1"/>
  </linearGradient>
  <linearGradient id="telinkrin" x1="0%" x2="0%" y1="0%" y2="100%">
   <stop offset="0%" style="stop-color: #b2ced6; stop-opacity:1"/>
   <stop offset="100%" style="stop-color: #6da5b7; stop-opacity:1"/>
  </linearGradient>
  <linearGradient id="60spsycho" x1="0%" x2="0%" y1="0%" y2="100%">
   <stop offset="0%" style="stop-color: #df5940; stop-opacity:1"/>
   <stop offset="25%" style="stop-color: #d8d15f; stop-opacity:1"/>
   <stop offset="50%" style="stop-color: #e9882a; stop-opacity:1"/>
   <stop offset="100%" style="stop-color: #279362; stop-opacity:1"/>
  </linearGradient>
  <linearGradient id="90ssummer" x1="0%" x2="0%" y1="0%" y2="100%">
   <stop offset="0%" style="stop-color: #f618c7; stop-opacity:1"/>
   <stop offset="20%" style="stop-color: #94ffab; stop-opacity:1"/>
   <stop offset="50%" style="stop-color: #fbfd54; stop-opacity:1"/>
   <stop offset="100%" style="stop-color: #0f83ae; stop-opacity:1"/>
  </linearGradient>
 </defs>
  <path
     d="M 4.8567498,0.56935707 C 4.4521277,0.56920277 4.0795097,0.78252658 3.8737697,1.1305701 l -3.71475,6.2865 c -0.21202651,0.3589021 -0.21202651,0.8058151 0,1.1658601 l 3.71475,6.2864998 c 0.20574,0.348044 0.58293,0.561785 0.9829801,0.561213 H 11.14325 c 0.404622,1.55e-4 0.77724,-0.213169 0.98298,-0.561213 l 3.71475,-6.2864998 c 0.212027,-0.358902 0.212027,-0.805815 0,-1.1658601 l -3.71475,-6.2865 C 11.92049,0.78252658 11.5433,0.56878557 11.14325,0.56935707 Z"
     style="fill:url(#oomox);opacity:0.2;stroke-width:0.5715"
     id="path7"
     class="ColorScheme-Text"/>
  <path
     d="M 5.1424998,2.8553571 V 13.142357 H 10.57175 c 0.206312,-1.14e-4 0.396621,-0.111442 0.497777,-0.291465 l 2.57175,-4.5719998 c 0.09773,-0.173736 0.09773,-0.386334 0,-0.56007 l -2.57175,-4.5720001 z"
     style="fill:url(#oomox);opacity:0.5;stroke-width:0.5715"
     id="path9"
     class="ColorScheme-Text"/>
  <path
     d="m 5.1424998,2.2838571 c -0.208026,-1.72e-5 -0.3994786,0.1125855 -0.5000626,0.294894 l -2.8575,5.1435001 c -0.096012,0.172593 -0.096012,0.3823335 0,0.5549265 l 2.8575,5.1435003 c 0.2863216,0.516636 1.0744201,0.31261 1.0744201,-0.277749 v -2.8575 a 0.57150001,0.57150001 0 0 1 0.5715,-0.5715003 h 6.8580007 c 0.216598,1.71e-5 0.414337,-0.122301 0.511492,-0.3160395 l 0.5715,-1.143 c 0.189738,-0.3800475 -0.0863,-0.828675 -0.511492,-0.828675 H 6.2883573 a 0.57150001,0.57150001 0 0 1 -0.5715,-0.5715001 v -1.7145 a 0.57150001,0.57150001 0 0 1 0.5715,-0.5715 h 5.1435007 c 0.448627,-4.286e-4 0.72009,-0.493776 0.484632,-0.874395 l -0.714375,-1.143 C 11.09753,2.3838696 10.91465,2.2827141 10.717483,2.2821426 Z"
     style="fill:url(#oomox);stroke-width:0.5715"
     id="path11"
     class="ColorScheme-Text"/>
  <metadata
     id="metadata21">
    <rdf:RDF>
      <cc:Work
         rdf:about="">
        <dc:creator>
          <cc:Agent>
            <dc:title>dreifacherspass</dc:title>
          </cc:Agent>
        </dc:creator>
        <cc:license
           rdf:resource="http://creativecommons.org/licenses/by-sa/4.0/" />
      </cc:Work>
      <cc:License
         rdf:about="http://creativecommons.org/licenses/by-sa/4.0/">
        <cc:permits
           rdf:resource="http://creativecommons.org/ns#Reproduction" />
        <cc:permits
           rdf:resource="http://creativecommons.org/ns#Distribution" />
        <cc:requires
           rdf:resource="http://creativecommons.org/ns#Notice" />
        <cc:requires
           rdf:resource="http://creativecommons.org/ns#Attribution" />
        <cc:permits
           rdf:resource="http://creativecommons.org/ns#DerivativeWorks" />
        <cc:requires
           rdf:resource="http://creativecommons.org/ns#ShareAlike" />
      </cc:License>
    </rdf:RDF>
  </metadata>
</svg>
