<?xml version="1.0" encoding="UTF-8" standalone="no"?>
<svg
   width="16"
   height="16"
   viewBox="0 0 16 16"
   version="1.1"
   xml:space="preserve"
   style="clip-rule:evenodd;fill-rule:evenodd;stroke-linejoin:round;stroke-miterlimit:1.41421"
   id="svg18"
   xmlns:xlink="http://www.w3.org/1999/xlink"
   xmlns="http://www.w3.org/2000/svg"
   xmlns:svg="http://www.w3.org/2000/svg"
   xmlns:rdf="http://www.w3.org/1999/02/22-rdf-syntax-ns#"
   xmlns:cc="http://creativecommons.org/ns#"
   xmlns:dc="http://purl.org/dc/elements/1.1/">
  <defs>
   <style id="current-color-scheme" type="text/css">
   .ColorScheme-Text { color: #0abdc6; } .ColorScheme-Highlight { color:#5294e2; }
  </style>
  <linearGradient id="arrongin" x1="0%" x2="0%" y1="0%" y2="100%">
   <stop offset="0%" style="stop-color:#dd9b44; stop-opacity:1"/>
   <stop offset="100%" style="stop-color:#ad6c16; stop-opacity:1"/>
  </linearGradient>
  <linearGradient id="aurora" x1="0%" x2="0%" y1="0%" y2="100%">
   <stop offset="0%" style="stop-color:#09D4DF; stop-opacity:1"/>
   <stop offset="100%" style="stop-color:#9269F4; stop-opacity:1"/>
  </linearGradient>
  <linearGradient id="cyberneon" x1="0%" x2="0%" y1="0%" y2="100%">
    <stop offset="0" style="stop-color:#0abdc6; stop-opacity:1"/>
    <stop offset="1" style="stop-color:#ea00d9; stop-opacity:1"/>
  </linearGradient>
  <linearGradient id="fitdance" x1="0%" x2="0%" y1="0%" y2="100%">
   <stop offset="0%" style="stop-color:#1AD6AB; stop-opacity:1"/>
   <stop offset="100%" style="stop-color:#329DB6; stop-opacity:1"/>
  </linearGradient>
  <linearGradient id="oomox" x1="0%" x2="0%" y1="0%" y2="100%">
   <stop offset="0%" style="stop-color:#0abdc6; stop-opacity:1"/>
   <stop offset="100%" style="stop-color:#b800ff; stop-opacity:1"/>
  </linearGradient>
  <linearGradient id="rainblue" x1="0%" x2="0%" y1="0%" y2="100%">
   <stop offset="0%" style="stop-color:#00F260; stop-opacity:1"/>
   <stop offset="100%" style="stop-color:#0575E6; stop-opacity:1"/>
  </linearGradient>
  <linearGradient id="sunrise" x1="0%" x2="0%" y1="0%" y2="100%">
   <stop offset="0%" style="stop-color: #FF8501; stop-opacity:1"/>
   <stop offset="100%" style="stop-color: #FFCB01; stop-opacity:1"/>
  </linearGradient>
  <linearGradient id="telinkrin" x1="0%" x2="0%" y1="0%" y2="100%">
   <stop offset="0%" style="stop-color: #b2ced6; stop-opacity:1"/>
   <stop offset="100%" style="stop-color: #6da5b7; stop-opacity:1"/>
  </linearGradient>
  <linearGradient id="60spsycho" x1="0%" x2="0%" y1="0%" y2="100%">
   <stop offset="0%" style="stop-color: #df5940; stop-opacity:1"/>
   <stop offset="25%" style="stop-color: #d8d15f; stop-opacity:1"/>
   <stop offset="50%" style="stop-color: #e9882a; stop-opacity:1"/>
   <stop offset="100%" style="stop-color: #279362; stop-opacity:1"/>
  </linearGradient>
  <linearGradient id="90ssummer" x1="0%" x2="0%" y1="0%" y2="100%">
   <stop offset="0%" style="stop-color: #f618c7; stop-opacity:1"/>
   <stop offset="20%" style="stop-color: #94ffab; stop-opacity:1"/>
   <stop offset="50%" style="stop-color: #fbfd54; stop-opacity:1"/>
   <stop offset="100%" style="stop-color: #0f83ae; stop-opacity:1"/>
  </linearGradient>
 </defs>
 <path
   d="m 9.6547062,0.39289796 c 0.7253508,0 1.3902558,0.24178339 1.7227078,0.65734894 0.81602,-0.82357494 1.57915,-1.05024707552951 2.236499,-1.05024707552951 1.057803,0 1.390256,0.67246022552951 1.390256,1.11824877552951 0,0.5591247 -0.355121,0.9520229 -0.891578,0.9520229 -0.581791,0 -0.294673,-1.32980972 -1.118248,-1.32980972 -0.672461,0 -1.231586,1.77559832 -1.511148,3.32452452 h 1.450701 c 0.166226,0 0.19645,0.1208916 0.19645,0.2493395 0,0.3475639 -0.158671,0.6422378 -0.445789,0.6422378 h -1.428034 c 0,0 -0.656458,3.1068514 -1.140917,5.0472324 -0.652052,2.611641 -2.6520636,3.339636 -3.9063159,3.339636 -0.5969035,0 -1.2315855,-0.21156 -1.6547068,-0.649793 -0.5666801,0.581792 -1.4280343,1.042692 -2.3498343,1.042692 -0.4533442,0 -1.208918,-0.30223 -1.208918,-0.876466 0,-0.324897 0.3248967,-0.81602 0.6724607,-0.81602 0.6120147,0 0.6875721,0.664906 1.3751442,0.664906 0.3324526,0 0.5628873,-0.09171 0.8386868,-1.088027 C 4.4865815,9.4371158 5.400826,4.9565636 5.400826,4.9565636 H 4.3203556 c -0.1737822,0 -0.1964494,-0.1057804 -0.1964494,-0.2191165 0,-0.3022297 0.1133362,-0.6724608 0.498679,-0.6724608 H 5.6274979 C 6.1790671,2.1684963 7.4030967,0.39289796 9.6547062,0.39289796 Z M 9.0653593,1.1484717 c -1.0653598,0 -1.5489264,1.7680427 -1.7831549,2.9165146 H 9.8058212 C 9.9871586,3.3698585 10.289389,2.6596192 10.614285,2.0778276 10.25161,1.5035912 9.6244832,1.1484717 9.0653593,1.1484717 Z M 6.7986377,12.421632 c 0.589347,0 1.0578033,-0.196449 1.3449209,-1.224029 C 8.8235749,8.7495437 9.5791489,4.9565636 9.5791489,4.9565636 H 7.0857554 C 6.7236469,6.628429 6.3244847,8.4306538 5.9736869,9.7846798 5.7349787,10.706087 5.534593,11.223504 5.3252686,11.658503 c 0.4306772,0.506235 0.9898018,0.763129 1.4733691,0.763129 z"
   style="clip-rule:evenodd;fill:url(#oomox);fill-opacity:1;fill-rule:nonzero;stroke-width:0.00755573;stroke-linejoin:round;stroke-miterlimit:1.41421"
   id="path111"
   class="ColorScheme-Text" />
 <path
   d="m 6.008921,15.377504 -0.023918,0.596481 c -0.108665,-0.0042 -0.2173294,-0.0085 -0.32589,-0.01315 l 0.023813,-0.596094 -0.5964803,-0.02392 0.013151,-0.325889 0.5965838,0.02353 0.023428,-0.596197 0.3263797,0.01287 -0.015993,0.396812 2.3502439,-2.169646 c -0.06973,-0.13719 -0.088149,-0.30041 -0.038689,-0.458701 0.1005735,-0.322768 0.4434004,-0.502726 0.7657821,-0.402256 0.049737,0.0154 0.09589,0.03646 0.1378829,0.06222 l 2.3871259,-2.2036858 -0.377605,-0.014992 0.01315,-0.3258898 0.596481,0.023919 0.02392,-0.5964799 0.32589,0.013151 -0.02381,0.5960935 0.59648,0.023919 -0.01315,0.3258889 -0.596584,-0.023531 -0.02342,0.5961971 c -0.109051,-0.0043 -0.217715,-0.0086 -0.326379,-0.01287 l 0.01422,-0.3546101 -2.373525,2.1915841 c 0.072332,0.138302 0.091676,0.304256 0.041982,0.46497 C 9.4094168,12.909996 9.0665906,13.089954 8.7438222,12.98938 8.6921472,12.97346 8.6438872,12.951 8.5998851,12.92346 l -2.3166132,2.138466 0.3352993,0.0136 -0.013151,0.325889 z"
   style="clip-rule:evenodd;fill:url(#oomox);fill-opacity:1;fill-rule:evenodd;stroke:url(#oomox);stroke-width:0.0520309px;stroke-linejoin:round;stroke-miterlimit:1.41421"
   id="path222"
   class="ColorScheme-Text" />
 <metadata
   id="metadata325"><rdf:RDF><cc:Work
     rdf:about=""><dc:creator><cc:Agent><dc:title>dreifacherspass</dc:title></cc:Agent></dc:creator><cc:license
       rdf:resource="http://creativecommons.org/licenses/by-sa/4.0/" /></cc:Work><cc:License
     rdf:about="http://creativecommons.org/licenses/by-sa/4.0/"><cc:permits
       rdf:resource="http://creativecommons.org/ns#Reproduction" /><cc:permits
       rdf:resource="http://creativecommons.org/ns#Distribution" /><cc:requires
       rdf:resource="http://creativecommons.org/ns#Notice" /><cc:requires
       rdf:resource="http://creativecommons.org/ns#Attribution" /><cc:permits
       rdf:resource="http://creativecommons.org/ns#DerivativeWorks" /><cc:requires
       rdf:resource="http://creativecommons.org/ns#ShareAlike" /></cc:License></rdf:RDF>
   </metadata>
   </svg>
