<?xml version="1.0" encoding="UTF-8" standalone="no"?>
<svg
   width="100%"
   height="100%"
   viewBox="0 0 48 48"
   version="1.1"
   xml:space="preserve"
   style="fill-rule:evenodd;clip-rule:evenodd;stroke-linejoin:round;stroke-miterlimit:1.41421;"
   id="svg18"
   xmlns:xlink="http://www.w3.org/1999/xlink"
   xmlns="http://www.w3.org/2000/svg"
   xmlns:svg="http://www.w3.org/2000/svg"
   xmlns:rdf="http://www.w3.org/1999/02/22-rdf-syntax-ns#"
   xmlns:cc="http://creativecommons.org/ns#"
   xmlns:dc="http://purl.org/dc/elements/1.1/"><defs
   id="defs22"><style
       id="current-color-scheme"
       type="text/css">
      .ColorScheme-Text { color: #0abdc6; } .ColorScheme-Highlight { color:#5294e2; }
     </style>
    <linearGradient
       id="arrongin"
       x1="0%"
       x2="0%"
       y1="0%"
       y2="100%">
      <stop
         offset="0%"
         style="stop-color:#dd9b44; stop-opacity:1"
         id="stop9192" />
      <stop
         offset="100%"
         style="stop-color:#ad6c16; stop-opacity:1"
         id="stop9194" />
    </linearGradient>
    <linearGradient
       id="aurora"
       x1="0%"
       x2="0%"
       y1="0%"
       y2="100%">
      <stop
         offset="0%"
         style="stop-color:#09D4DF; stop-opacity:1"
         id="stop9197" />
      <stop
         offset="100%"
         style="stop-color:#9269F4; stop-opacity:1"
         id="stop9199" />
    </linearGradient>
    <linearGradient
       id="cyberneon"
       x1="0%"
       x2="0%"
       y1="0%"
       y2="100%">
      <stop
         offset="0"
         style="stop-color:#0abdc6; stop-opacity:1"
         id="stop9202" />
      <stop
         offset="1"
         style="stop-color:#ea00d9; stop-opacity:1"
         id="stop9204" />
    </linearGradient>
    <linearGradient
       id="fitdance"
       x1="0%"
       x2="0%"
       y1="0%"
       y2="100%">
      <stop
         offset="0%"
         style="stop-color:#1AD6AB; stop-opacity:1"
         id="stop9207" />
      <stop
         offset="100%"
         style="stop-color:#329DB6; stop-opacity:1"
         id="stop9209" />
    </linearGradient>
    <linearGradient
       id="oomox"
       x1="0%"
       x2="0%"
       y1="0%"
       y2="100%">
      <stop
         offset="0%"
         style="stop-color:#0abdc6; stop-opacity:1"
         id="stop9212" />
      <stop
         offset="100%"
         style="stop-color:#b800ff; stop-opacity:1"
         id="stop9214" />
    </linearGradient>
    <linearGradient
       id="rainblue"
       x1="0%"
       x2="0%"
       y1="0%"
       y2="100%">
      <stop
         offset="0%"
         style="stop-color:#00F260; stop-opacity:1"
         id="stop9217" />
      <stop
         offset="100%"
         style="stop-color:#0575E6; stop-opacity:1"
         id="stop9219" />
    </linearGradient>
    <linearGradient
       id="sunrise"
       x1="0%"
       x2="0%"
       y1="0%"
       y2="100%">
      <stop
         offset="0%"
         style="stop-color: #FF8501; stop-opacity:1"
         id="stop9222" />
      <stop
         offset="100%"
         style="stop-color: #FFCB01; stop-opacity:1"
         id="stop9224" />
    </linearGradient>
    <linearGradient
       id="telinkrin"
       x1="0%"
       x2="0%"
       y1="0%"
       y2="100%">
      <stop
         offset="0%"
         style="stop-color: #b2ced6; stop-opacity:1"
         id="stop9227" />
      <stop
         offset="100%"
         style="stop-color: #6da5b7; stop-opacity:1"
         id="stop9229" />
    </linearGradient>
    <linearGradient
       id="60spsycho"
       x1="0%"
       x2="0%"
       y1="0%"
       y2="100%">
      <stop
         offset="0%"
         style="stop-color: #df5940; stop-opacity:1"
         id="stop9232" />
      <stop
         offset="25%"
         style="stop-color: #d8d15f; stop-opacity:1"
         id="stop9234" />
      <stop
         offset="50%"
         style="stop-color: #e9882a; stop-opacity:1"
         id="stop9236" />
      <stop
         offset="100%"
         style="stop-color: #279362; stop-opacity:1"
         id="stop9238" />
    </linearGradient>
    <linearGradient
       id="90ssummer"
       x1="0%"
       x2="0%"
       y1="0%"
       y2="100%">
      <stop
         offset="0%"
         style="stop-color: #f618c7; stop-opacity:1"
         id="stop9241" />
      <stop
         offset="20%"
         style="stop-color: #94ffab; stop-opacity:1"
         id="stop9243" />
      <stop
         offset="50%"
         style="stop-color: #fbfd54; stop-opacity:1"
         id="stop9245" />
      <stop
         offset="100%"
         style="stop-color: #0f83ae; stop-opacity:1"
         id="stop9247" />
    </linearGradient>
    </defs>
    <path
   d="m 28.8607,1.6541382 c 2.130718,0 4.083877,0.7102387 5.060456,1.9309626 2.397057,-2.4192515 4.638751,-3.0851009 6.569714,-3.0851009 3.107297,0 4.083876,1.9753519 4.083876,3.284856 0,1.6424288 -1.043165,2.7965671 -2.619008,2.7965671 -1.709013,0 -0.865605,-3.9063161 -3.284856,-3.9063161 -1.975354,0 -3.617782,5.2158202 -4.438996,9.7657911 h 4.261435 c 0.488289,0 0.57707,0.355119 0.57707,0.732435 0,1.020969 -0.466095,1.886573 -1.309505,1.886573 h -4.194849 c 0,0 -1.928346,9.126376 -3.351444,14.826245 -1.915403,7.671695 -7.790437,9.810182 -11.474803,9.810182 -1.753404,0 -3.617782,-0.62146 -4.860701,-1.908768 -1.664623,1.709013 -4.1948508,3.062907 -6.9026383,3.062907 -1.3316988,0 -3.5511967,-0.8878 -3.5511967,-2.574618 0,-0.954385 0.9543841,-2.397058 1.9753532,-2.397058 1.7977933,0 2.0197431,1.953159 4.0394862,1.953159 0.9765796,0 1.6534816,-0.269403 2.4636426,-3.196078 1.775598,-6.414349 4.461191,-19.575971 4.461191,-19.575971 h -3.173882 c -0.510485,0 -0.57707,-0.31073 -0.57707,-0.643655 0,-0.887799 0.332925,-1.975353 1.464869,-1.975353 h 2.951932 C 18.65101,6.8699584 22.246597,1.6541382 28.8607,1.6541382 Z m -1.731207,2.2194979 c -3.129494,0 -4.549971,5.1936255 -5.238017,8.5672619 H 29.3046 C 29.837279,10.39896 30.725079,8.312632 31.679463,6.6036192 30.614104,4.9167995 28.77192,3.8736361 27.129493,3.8736361 Z M 20.470999,36.988545 c 1.731207,0 3.107297,-0.577069 3.950705,-3.595586 1.997548,-7.191174 4.217046,-18.333053 4.217046,-18.333053 h -7.324343 c -1.063694,4.911105 -2.236233,10.20514 -3.266701,14.182592 -0.701206,2.706633 -1.289839,4.226545 -1.904729,5.504354 1.265114,1.487065 2.907543,2.241693 4.328022,2.241693 z"
   style="clip-rule:evenodd;fill:url(#oomox);fill-rule:nonzero;stroke-width:0.022195;stroke-linejoin:round;stroke-miterlimit:1.41421;fill-opacity:1.0"
   id="path111"
   class="ColorScheme-Text"/>
    <path
   d="m 18.151206,45.671419 -0.07026,1.752161 c -0.319202,-0.01244 -0.638403,-0.02501 -0.9573,-0.03863 l 0.06995,-1.751026 -1.752161,-0.07026 0.03863,-0.957301 1.752465,0.06912 0.06882,-1.751329 0.95874,0.0378 -0.04698,1.165634 6.903841,-6.373337 c -0.204831,-0.402995 -0.258937,-0.882452 -0.113648,-1.347433 0.295435,-0.948132 1.302489,-1.476757 2.249485,-1.181627 0.146103,0.04524 0.281676,0.107117 0.405031,0.182777 l 7.012184,-6.473326 -1.109216,-0.04404 0.03863,-0.957301 1.752162,0.07026 0.07026,-1.75216 0.9573,0.03863 -0.06995,1.751025 1.75216,0.07026 -0.03863,0.957299 -1.752465,-0.06912 -0.06881,1.751329 c -0.320337,-0.01275 -0.63954,-0.0253 -0.95874,-0.0378 l 0.04177,-1.041663 -6.972228,6.437779 c 0.212476,0.406261 0.269297,0.893749 0.123321,1.365848 -0.295436,0.948131 -1.302489,1.476757 -2.250621,1.181322 -0.151795,-0.04676 -0.29356,-0.112747 -0.422815,-0.193627 l -6.805051,6.281741 0.984941,0.03995 -0.03863,0.957301 z"
   style="fill-rule:evenodd;clip-rule:evenodd;stroke-linejoin:round;stroke-miterlimit:1.41421;fill:url(#oomox);stroke:url(#oomox);stroke-width:0.152841px;fill-opacity:1"
   id="path222"
   class="ColorScheme-Text"/>
<metadata
   id="metadata325"><rdf:RDF><cc:Work
       rdf:about=""><dc:creator><cc:Agent><dc:title>dreifacherspass</dc:title></cc:Agent></dc:creator><cc:license
         rdf:resource="http://creativecommons.org/licenses/by-sa/4.0/" /></cc:Work><cc:License
       rdf:about="http://creativecommons.org/licenses/by-sa/4.0/"><cc:permits
         rdf:resource="http://creativecommons.org/ns#Reproduction" /><cc:permits
         rdf:resource="http://creativecommons.org/ns#Distribution" /><cc:requires
         rdf:resource="http://creativecommons.org/ns#Notice" /><cc:requires
         rdf:resource="http://creativecommons.org/ns#Attribution" /><cc:permits
         rdf:resource="http://creativecommons.org/ns#DerivativeWorks" /><cc:requires
         rdf:resource="http://creativecommons.org/ns#ShareAlike" /></cc:License></rdf:RDF>
  </metadata>
</svg>
