<?xml version="1.0" encoding="UTF-8" standalone="no"?>
<svg
   version="1.1"
   viewBox="0 0 16 16"
   id="svg8"
   width="16"
   height="16"
   xmlns="http://www.w3.org/2000/svg"
   xmlns:svg="http://www.w3.org/2000/svg"
   xmlns:rdf="http://www.w3.org/1999/02/22-rdf-syntax-ns#"
   xmlns:cc="http://creativecommons.org/ns#"
   xmlns:dc="http://purl.org/dc/elements/1.1/">
   <defs>
   <style id="current-color-scheme" type="text/css">
   .ColorScheme-Text { color: #0abdc6; } .ColorScheme-Highlight { color:#5294e2; }
  </style>
  <linearGradient id="arrongin" x1="0%" x2="0%" y1="0%" y2="100%">
   <stop offset="0%" style="stop-color:#dd9b44; stop-opacity:1"/>
   <stop offset="100%" style="stop-color:#ad6c16; stop-opacity:1"/>
  </linearGradient>
  <linearGradient id="aurora" x1="0%" x2="0%" y1="0%" y2="100%">
   <stop offset="0%" style="stop-color:#09D4DF; stop-opacity:1"/>
   <stop offset="100%" style="stop-color:#9269F4; stop-opacity:1"/>
  </linearGradient>
  <linearGradient id="cyberneon" x1="0%" x2="0%" y1="0%" y2="100%">
    <stop offset="0" style="stop-color:#0abdc6; stop-opacity:1"/>
    <stop offset="1" style="stop-color:#ea00d9; stop-opacity:1"/>
  </linearGradient>
  <linearGradient id="fitdance" x1="0%" x2="0%" y1="0%" y2="100%">
   <stop offset="0%" style="stop-color:#1AD6AB; stop-opacity:1"/>
   <stop offset="100%" style="stop-color:#329DB6; stop-opacity:1"/>
  </linearGradient>
  <linearGradient id="oomox" x1="0%" x2="0%" y1="0%" y2="100%">
   <stop offset="0%" style="stop-color:#0abdc6; stop-opacity:1"/>
   <stop offset="100%" style="stop-color:#b800ff; stop-opacity:1"/>
  </linearGradient>
  <linearGradient id="rainblue" x1="0%" x2="0%" y1="0%" y2="100%">
   <stop offset="0%" style="stop-color:#00F260; stop-opacity:1"/>
   <stop offset="100%" style="stop-color:#0575E6; stop-opacity:1"/>
  </linearGradient>
  <linearGradient id="sunrise" x1="0%" x2="0%" y1="0%" y2="100%">
   <stop offset="0%" style="stop-color: #FF8501; stop-opacity:1"/>
   <stop offset="100%" style="stop-color: #FFCB01; stop-opacity:1"/>
  </linearGradient>
  <linearGradient id="telinkrin" x1="0%" x2="0%" y1="0%" y2="100%">
   <stop offset="0%" style="stop-color: #b2ced6; stop-opacity:1"/>
   <stop offset="100%" style="stop-color: #6da5b7; stop-opacity:1"/>
  </linearGradient>
  <linearGradient id="60spsycho" x1="0%" x2="0%" y1="0%" y2="100%">
   <stop offset="0%" style="stop-color: #df5940; stop-opacity:1"/>
   <stop offset="25%" style="stop-color: #d8d15f; stop-opacity:1"/>
   <stop offset="50%" style="stop-color: #e9882a; stop-opacity:1"/>
   <stop offset="100%" style="stop-color: #279362; stop-opacity:1"/>
  </linearGradient>
  <linearGradient id="90ssummer" x1="0%" x2="0%" y1="0%" y2="100%">
   <stop offset="0%" style="stop-color: #f618c7; stop-opacity:1"/>
   <stop offset="20%" style="stop-color: #94ffab; stop-opacity:1"/>
   <stop offset="50%" style="stop-color: #fbfd54; stop-opacity:1"/>
   <stop offset="100%" style="stop-color: #0f83ae; stop-opacity:1"/>
  </linearGradient>
 </defs>
  <path
     d="M 1.6666668,0 C 0.9333335,0 0.3333335,0.59666667 0.3333335,1.3333333 0.3333335,2.07 0.93000017,2.6666667 1.6666668,2.6666667 2.4033335,2.6666667 3.0000002,2.07 3.0000002,1.3333333 3.0000002,0.59666667 2.4033335,0 1.6666668,0 Z m 2.3333334,0.66666667 c -0.552,0 -1,0.44800003 -1,1.00000003 0,0.552 0.448,1 1,1 0.552,0 1,-0.448 1,-1 0,-0.552 -0.448,-1.00000003 -1,-1.00000003 z M 5.6666668,1.3333333 c -0.368,0 -0.6666666,0.448 -0.6666666,1 0,0.552 0.2986666,1 0.6666666,1 0.368,0 0.6666667,-0.448 0.6666667,-1 0,-0.552 -0.2986667,-1 -0.6666667,-1 z M 7.0000002,2 c -0.368,0 -0.6666667,0.448 -0.6666667,1 0,0.552 0.2986667,1 0.6666667,1 0.368,0 0.6666666,-0.448 0.6666666,-1 0,-0.552 -0.2986666,-1 -0.6666666,-1 z m 1.3333333,0.6666667 c -0.368,0 -0.6666667,0.448 -0.6666667,1 0,0.552 0.2986667,1 0.6666667,1 0.368,0 0.6666667,-0.448 0.6666667,-1 0,-0.552 -0.2986667,-1 -0.6666667,-1 z m -6,0.6666666 c -1.3333333,0 -2,0.6666667 -2,1.6666667 0,2.6666667 2.6666667,2.3333333 2.6666667,4.3333333 0,1.9999997 -2,2.6666667 -2,4.9999997 0,1 0.6666666,1.666667 2,1.666667 2.6666666,0 5.3333333,-5 5.3333333,-8.3333333 0,-3 -4,-4.3333334 -6,-4.3333334 z m 7,10.6666667 c -0.1846667,0 -0.3333333,0.148667 -0.3333333,0.333333 v 1.333334 C 9.0000002,15.851333 9.1486668,16 9.3333335,16 h 6.0000005 c 0.184666,0 0.333333,-0.148667 0.333333,-0.333333 V 14.333333 C 15.666667,14.148667 15.518,14 15.333334,14 Z"
     style="fill:url(#oomox);stroke-width:0.666667"
     id="path8"
     class="ColorScheme-Text"/>
  <metadata
     id="metadata8">
    <rdf:RDF>
      <cc:Work
         rdf:about="">
        <dc:creator>
          <cc:Agent>
            <dc:title>dreifacherspass</dc:title>
          </cc:Agent>
        </dc:creator>
        <cc:license
           rdf:resource="http://creativecommons.org/licenses/by-sa/4.0/" />
      </cc:Work>
      <cc:License
         rdf:about="http://creativecommons.org/licenses/by-sa/4.0/">
        <cc:permits
           rdf:resource="http://creativecommons.org/ns#Reproduction" />
        <cc:permits
           rdf:resource="http://creativecommons.org/ns#Distribution" />
        <cc:requires
           rdf:resource="http://creativecommons.org/ns#Notice" />
        <cc:requires
           rdf:resource="http://creativecommons.org/ns#Attribution" />
        <cc:permits
           rdf:resource="http://creativecommons.org/ns#DerivativeWorks" />
        <cc:requires
           rdf:resource="http://creativecommons.org/ns#ShareAlike" />
      </cc:License>
    </rdf:RDF>
  </metadata>
</svg>
