<?xml version="1.0" encoding="UTF-8" standalone="no"?>
<svg
   width="16"
   height="16"
   version="1.1"
   id="svg24"
   xmlns:xlink="http://www.w3.org/1999/xlink"
   xmlns="http://www.w3.org/2000/svg"
   xmlns:svg="http://www.w3.org/2000/svg"
   xmlns:rdf="http://www.w3.org/1999/02/22-rdf-syntax-ns#"
   xmlns:cc="http://creativecommons.org/ns#"
   xmlns:dc="http://purl.org/dc/elements/1.1/">
  <defs>
   <style id="current-color-scheme" type="text/css">
   .ColorScheme-Text { color: #0abdc6; } .ColorScheme-Highlight { color:#5294e2; }
  </style>
  <linearGradient id="arrongin" x1="0%" x2="0%" y1="0%" y2="100%">
   <stop offset="0%" style="stop-color:#dd9b44; stop-opacity:1"/>
   <stop offset="100%" style="stop-color:#ad6c16; stop-opacity:1"/>
  </linearGradient>
  <linearGradient id="aurora" x1="0%" x2="0%" y1="0%" y2="100%">
   <stop offset="0%" style="stop-color:#09D4DF; stop-opacity:1"/>
   <stop offset="100%" style="stop-color:#9269F4; stop-opacity:1"/>
  </linearGradient>
  <linearGradient id="cyberneon" x1="0%" x2="0%" y1="0%" y2="100%">
    <stop offset="0" style="stop-color:#0abdc6; stop-opacity:1"/>
    <stop offset="1" style="stop-color:#ea00d9; stop-opacity:1"/>
  </linearGradient>
  <linearGradient id="fitdance" x1="0%" x2="0%" y1="0%" y2="100%">
   <stop offset="0%" style="stop-color:#1AD6AB; stop-opacity:1"/>
   <stop offset="100%" style="stop-color:#329DB6; stop-opacity:1"/>
  </linearGradient>
  <linearGradient id="oomox" x1="0%" x2="0%" y1="0%" y2="100%">
   <stop offset="0%" style="stop-color:#0abdc6; stop-opacity:1"/>
   <stop offset="100%" style="stop-color:#b800ff; stop-opacity:1"/>
  </linearGradient>
  <linearGradient id="rainblue" x1="0%" x2="0%" y1="0%" y2="100%">
   <stop offset="0%" style="stop-color:#00F260; stop-opacity:1"/>
   <stop offset="100%" style="stop-color:#0575E6; stop-opacity:1"/>
  </linearGradient>
  <linearGradient id="sunrise" x1="0%" x2="0%" y1="0%" y2="100%">
   <stop offset="0%" style="stop-color: #FF8501; stop-opacity:1"/>
   <stop offset="100%" style="stop-color: #FFCB01; stop-opacity:1"/>
  </linearGradient>
  <linearGradient id="telinkrin" x1="0%" x2="0%" y1="0%" y2="100%">
   <stop offset="0%" style="stop-color: #b2ced6; stop-opacity:1"/>
   <stop offset="100%" style="stop-color: #6da5b7; stop-opacity:1"/>
  </linearGradient>
  <linearGradient id="60spsycho" x1="0%" x2="0%" y1="0%" y2="100%">
   <stop offset="0%" style="stop-color: #df5940; stop-opacity:1"/>
   <stop offset="25%" style="stop-color: #d8d15f; stop-opacity:1"/>
   <stop offset="50%" style="stop-color: #e9882a; stop-opacity:1"/>
   <stop offset="100%" style="stop-color: #279362; stop-opacity:1"/>
  </linearGradient>
  <linearGradient id="90ssummer" x1="0%" x2="0%" y1="0%" y2="100%">
   <stop offset="0%" style="stop-color: #f618c7; stop-opacity:1"/>
   <stop offset="20%" style="stop-color: #94ffab; stop-opacity:1"/>
   <stop offset="50%" style="stop-color: #fbfd54; stop-opacity:1"/>
   <stop offset="100%" style="stop-color: #0f83ae; stop-opacity:1"/>
  </linearGradient>
 </defs>
  <path
     class="ColorScheme-Text"
     fill-rule="evenodd"
     d="M 0,0 V 15.999999 H 1.3329999 V 9.3329995 L 7.9999997,7.9999997 v 1.3329998 l 7.9999993,-1.3329998 -2.667,-1.3329999 2.667,-1.334 -7.9999993,-2.6659999 v -1.334 L 1.3329999,0 Z"
     id="path24"
     style="fill:url(#oomox);stroke-width:1" />
  <metadata
     id="metadata1">
    <rdf:RDF>
      <cc:Work
         rdf:about="">
        <dc:creator>
          <cc:Agent>
            <dc:title>dreifacherspass</dc:title>
          </cc:Agent>
        </dc:creator>
        <cc:license
           rdf:resource="http://creativecommons.org/licenses/by-sa/4.0/" />
      </cc:Work>
      <cc:License
         rdf:about="http://creativecommons.org/licenses/by-sa/4.0/">
        <cc:permits
           rdf:resource="http://creativecommons.org/ns#Reproduction" />
        <cc:permits
           rdf:resource="http://creativecommons.org/ns#Distribution" />
        <cc:requires
           rdf:resource="http://creativecommons.org/ns#Notice" />
        <cc:requires
           rdf:resource="http://creativecommons.org/ns#Attribution" />
        <cc:permits
           rdf:resource="http://creativecommons.org/ns#DerivativeWorks" />
        <cc:requires
           rdf:resource="http://creativecommons.org/ns#ShareAlike" />
      </cc:License>
    </rdf:RDF>
  </metadata>
  <path
     d="m 12.865248,10.212766 c -0.133588,0 -0.241135,0.107546 -0.241135,0.241135 v 3.617021 c -0.267177,0 -0.482269,0.215092 -0.482269,0.482269 0,0.267178 0.215092,0.48227 0.482269,0.48227 v 0.723404 C 12.624113,15.892454 12.73166,16 12.865248,16 h 0.48227 c 0.133588,0 0.241135,-0.107546 0.241135,-0.241135 v -0.723404 c 0.267177,0 0.482269,-0.215092 0.482269,-0.48227 0,-0.267177 -0.215092,-0.482269 -0.482269,-0.482269 v -3.617021 c 0,-0.133589 -0.107547,-0.241135 -0.241135,-0.241135 z m -1.929078,0.48227 c -0.133589,0 -0.241134,0.107545 -0.241134,0.241134 v 0.723404 c -0.267178,0 -0.48227,0.215093 -0.48227,0.48227 0,0.267177 0.215092,0.482269 0.48227,0.482269 v 2.666951 c 0,0.133589 0.107545,0.241134 0.241134,0.241134 h 0.48227 c 0.133588,0 0.241134,-0.107545 0.241134,-0.241134 v -2.666951 c 0.267178,0 0.48227,-0.215092 0.48227,-0.482269 0,-0.267177 -0.215092,-0.48227 -0.48227,-0.48227 V 10.93617 c 0,-0.133589 -0.107546,-0.241134 -0.241134,-0.241134 z m 3.858156,0 c -0.133588,0 -0.241135,0.107545 -0.241135,0.241134 v 0.723404 c -0.267177,0 -0.482269,0.215093 -0.482269,0.48227 0,0.267177 0.215092,0.482269 0.482269,0.482269 v 2.652483 c 0,0.133589 0.107547,0.241134 0.241135,0.241134 h 0.48227 c 0.133589,0 0.241134,-0.107545 0.241134,-0.241134 v -2.652483 c 0.267178,0 0.48227,-0.215092 0.48227,-0.482269 0,-0.267177 -0.215092,-0.48227 -0.48227,-0.48227 V 10.93617 c 0,-0.133589 -0.107545,-0.241134 -0.241134,-0.241134 z"
     style="fill:url(#oomox);stroke-width:0.482271"
     id="path13"
     class="ColorScheme-Text" />
</svg>
