<?xml version="1.0" encoding="UTF-8" standalone="no"?>
<svg
   width="16"
   height="16"
   version="1.1"
   id="svg24"
   xmlns:xlink="http://www.w3.org/1999/xlink"
   xmlns="http://www.w3.org/2000/svg"
   xmlns:svg="http://www.w3.org/2000/svg"
   xmlns:rdf="http://www.w3.org/1999/02/22-rdf-syntax-ns#"
   xmlns:cc="http://creativecommons.org/ns#"
   xmlns:dc="http://purl.org/dc/elements/1.1/">
  <defs>
   <style id="current-color-scheme" type="text/css">
   .ColorScheme-Text { color: #0abdc6; } .ColorScheme-Highlight { color:#5294e2; }
  </style>
  <linearGradient id="arrongin" x1="0%" x2="0%" y1="0%" y2="100%">
   <stop offset="0%" style="stop-color:#dd9b44; stop-opacity:1"/>
   <stop offset="100%" style="stop-color:#ad6c16; stop-opacity:1"/>
  </linearGradient>
  <linearGradient id="aurora" x1="0%" x2="0%" y1="0%" y2="100%">
   <stop offset="0%" style="stop-color:#09D4DF; stop-opacity:1"/>
   <stop offset="100%" style="stop-color:#9269F4; stop-opacity:1"/>
  </linearGradient>
  <linearGradient id="cyberneon" x1="0%" x2="0%" y1="0%" y2="100%">
    <stop offset="0" style="stop-color:#0abdc6; stop-opacity:1"/>
    <stop offset="1" style="stop-color:#ea00d9; stop-opacity:1"/>
  </linearGradient>
  <linearGradient id="fitdance" x1="0%" x2="0%" y1="0%" y2="100%">
   <stop offset="0%" style="stop-color:#1AD6AB; stop-opacity:1"/>
   <stop offset="100%" style="stop-color:#329DB6; stop-opacity:1"/>
  </linearGradient>
  <linearGradient id="oomox" x1="0%" x2="0%" y1="0%" y2="100%">
   <stop offset="0%" style="stop-color:#0abdc6; stop-opacity:1"/>
   <stop offset="100%" style="stop-color:#b800ff; stop-opacity:1"/>
  </linearGradient>
  <linearGradient id="rainblue" x1="0%" x2="0%" y1="0%" y2="100%">
   <stop offset="0%" style="stop-color:#00F260; stop-opacity:1"/>
   <stop offset="100%" style="stop-color:#0575E6; stop-opacity:1"/>
  </linearGradient>
  <linearGradient id="sunrise" x1="0%" x2="0%" y1="0%" y2="100%">
   <stop offset="0%" style="stop-color: #FF8501; stop-opacity:1"/>
   <stop offset="100%" style="stop-color: #FFCB01; stop-opacity:1"/>
  </linearGradient>
  <linearGradient id="telinkrin" x1="0%" x2="0%" y1="0%" y2="100%">
   <stop offset="0%" style="stop-color: #b2ced6; stop-opacity:1"/>
   <stop offset="100%" style="stop-color: #6da5b7; stop-opacity:1"/>
  </linearGradient>
  <linearGradient id="60spsycho" x1="0%" x2="0%" y1="0%" y2="100%">
   <stop offset="0%" style="stop-color: #df5940; stop-opacity:1"/>
   <stop offset="25%" style="stop-color: #d8d15f; stop-opacity:1"/>
   <stop offset="50%" style="stop-color: #e9882a; stop-opacity:1"/>
   <stop offset="100%" style="stop-color: #279362; stop-opacity:1"/>
  </linearGradient>
  <linearGradient id="90ssummer" x1="0%" x2="0%" y1="0%" y2="100%">
   <stop offset="0%" style="stop-color: #f618c7; stop-opacity:1"/>
   <stop offset="20%" style="stop-color: #94ffab; stop-opacity:1"/>
   <stop offset="50%" style="stop-color: #fbfd54; stop-opacity:1"/>
   <stop offset="100%" style="stop-color: #0f83ae; stop-opacity:1"/>
  </linearGradient>
 </defs>
  <path
     id="path453757"
     class="ColorScheme-Text"
     style="fill:url(#oomox);fill-rule:evenodd;stroke-width:0.207861;stroke-linecap:round;stroke-linejoin:round;stroke-miterlimit:4.1;-inkscape-stroke:none"
     d="m 11.011658,10.180047 a 0.20787877,0.20787905 0 0 0 -0.186613,0.115565 l -0.623305,1.254184 a 0.20787877,0.20787905 0 0 0 -0.02084,0.0881 0.20787877,0.20787905 0 0 0 -9.19e-4,0.0047 v 4.149973 A 0.20787877,0.20787905 0 0 0 10.387427,16 h 5.40511 a 0.20787877,0.20787905 0 0 0 0.207453,-0.207452 v -4.149991 a 0.20787877,0.20787905 0 0 0 0,-0.0011 0.20787877,0.20787905 0 0 0 -0.02181,-0.09188 L 15.354886,10.295564 A 0.20787877,0.20787905 0 0 0 15.16828,10.179999 Z m 0.12788,0.415851 h 1.291126 l -0.136407,0.838334 h -1.571516 z m 1.711715,0 h 0.894221 l 0.140194,0.838334 h -1.170819 z m 1.315757,0 h 0.872439 l 0.417741,0.838334 h -1.150927 z m -3.571204,1.254183 h 1.662462 v 2.071681 a 0.20787877,0.20787905 0 0 0 0.355222,0.146826 l 0.683931,-0.684876 0.68487,0.684876 a 0.20787877,0.20787905 0 0 0 0.355233,-0.146826 v -2.071681 h 1.246601 v 3.734135 h -4.988319 z m 2.078307,0 h 1.247553 v 1.56963 l -0.476469,-0.476482 a 0.20787877,0.20787905 0 0 0 -0.294605,0 l -0.476479,0.476482 z m -1.455004,2.902432 a 0.20785797,0.20785825 0 0 0 -0.207451,0.208402 0.20785797,0.20785825 0 0 0 0.207451,0.207452 h 1.247554 a 0.20785797,0.20785825 0 0 0 0.20745,-0.207452 0.20785797,0.20785825 0 0 0 -0.20745,-0.208402 z" />
  <path
     class="ColorScheme-Text"
     fill-rule="evenodd"
     d="M 0,0 V 16 H 1.333 V 9.3329999 L 8,8 V 9.3329999 L 16,8 13.333,6.6670001 16,5.3330001 8,2.667 V 1.333 L 1.333,0 Z"
     id="path24"
     style="fill:url(#oomox);stroke-width:1" />
  <metadata
     id="metadata1">
    <rdf:RDF>
      <cc:Work
         rdf:about="">
        <dc:creator>
          <cc:Agent>
            <dc:title>dreifacherspass</dc:title>
          </cc:Agent>
        </dc:creator>
        <cc:license
           rdf:resource="http://creativecommons.org/licenses/by-sa/4.0/" />
      </cc:Work>
      <cc:License
         rdf:about="http://creativecommons.org/licenses/by-sa/4.0/">
        <cc:permits
           rdf:resource="http://creativecommons.org/ns#Reproduction" />
        <cc:permits
           rdf:resource="http://creativecommons.org/ns#Distribution" />
        <cc:requires
           rdf:resource="http://creativecommons.org/ns#Notice" />
        <cc:requires
           rdf:resource="http://creativecommons.org/ns#Attribution" />
        <cc:permits
           rdf:resource="http://creativecommons.org/ns#DerivativeWorks" />
        <cc:requires
           rdf:resource="http://creativecommons.org/ns#ShareAlike" />
      </cc:License>
    </rdf:RDF>
  </metadata>
</svg>
