<?xml version="1.0" encoding="UTF-8" standalone="no"?>
<svg
   width="48"
   height="48"
   version="1.1"
   id="svg24"
   xmlns:xlink="http://www.w3.org/1999/xlink"
   xmlns="http://www.w3.org/2000/svg"
   xmlns:svg="http://www.w3.org/2000/svg"
   xmlns:rdf="http://www.w3.org/1999/02/22-rdf-syntax-ns#"
   xmlns:cc="http://creativecommons.org/ns#"
   xmlns:dc="http://purl.org/dc/elements/1.1/">
  <defs
     id="defs24">
    <style
       id="current-color-scheme"
       type="text/css">&#10;   .ColorScheme-Text { color: #0abdc6; } .ColorScheme-Highlight { color:#5294e2; }&#10;  </style>
    <linearGradient
       id="arrongin"
       x1="0"
       x2="0"
       y1="0"
       y2="1">
      <stop
         offset="0%"
         style="stop-color:#dd9b44; stop-opacity:1"
         id="stop1" />
      <stop
         offset="100%"
         style="stop-color:#ad6c16; stop-opacity:1"
         id="stop2" />
    </linearGradient>
    <linearGradient
       id="aurora"
       x1="0"
       x2="0"
       y1="0"
       y2="1">
      <stop
         offset="0%"
         style="stop-color:#09D4DF; stop-opacity:1"
         id="stop3" />
      <stop
         offset="100%"
         style="stop-color:#9269F4; stop-opacity:1"
         id="stop4" />
    </linearGradient>
    <linearGradient
       id="cyberneon"
       x1="0"
       x2="0"
       y1="0"
       y2="1">
      <stop
         offset="0"
         style="stop-color:#0abdc6; stop-opacity:1"
         id="stop5" />
      <stop
         offset="1"
         style="stop-color:#ea00d9; stop-opacity:1"
         id="stop6" />
    </linearGradient>
    <linearGradient
       id="fitdance"
       x1="0"
       x2="0"
       y1="0"
       y2="1">
      <stop
         offset="0%"
         style="stop-color:#1AD6AB; stop-opacity:1"
         id="stop7" />
      <stop
         offset="100%"
         style="stop-color:#329DB6; stop-opacity:1"
         id="stop8" />
    </linearGradient>
    <linearGradient
       id="oomox"
       x1="0"
       x2="0"
       y1="0"
       y2="1">
      <stop
         offset="0%"
         style="stop-color:#0abdc6; stop-opacity:1"
         id="stop9" />
      <stop
         offset="100%"
         style="stop-color:#b800ff; stop-opacity:1"
         id="stop10" />
    </linearGradient>
    <linearGradient
       id="rainblue"
       x1="0"
       x2="0"
       y1="0"
       y2="1">
      <stop
         offset="0%"
         style="stop-color:#00F260; stop-opacity:1"
         id="stop11" />
      <stop
         offset="100%"
         style="stop-color:#0575E6; stop-opacity:1"
         id="stop12" />
    </linearGradient>
    <linearGradient
       id="sunrise"
       x1="0"
       x2="0"
       y1="0"
       y2="1">
      <stop
         offset="0%"
         style="stop-color: #FF8501; stop-opacity:1"
         id="stop13" />
      <stop
         offset="100%"
         style="stop-color: #FFCB01; stop-opacity:1"
         id="stop14" />
    </linearGradient>
    <linearGradient
       id="telinkrin"
       x1="0"
       x2="0"
       y1="0"
       y2="1">
      <stop
         offset="0%"
         style="stop-color: #b2ced6; stop-opacity:1"
         id="stop15" />
      <stop
         offset="100%"
         style="stop-color: #6da5b7; stop-opacity:1"
         id="stop16" />
    </linearGradient>
    <linearGradient
       id="60spsycho"
       x1="0"
       x2="0"
       y1="0"
       y2="1">
      <stop
         offset="0%"
         style="stop-color: #df5940; stop-opacity:1"
         id="stop17" />
      <stop
         offset="25%"
         style="stop-color: #d8d15f; stop-opacity:1"
         id="stop18" />
      <stop
         offset="50%"
         style="stop-color: #e9882a; stop-opacity:1"
         id="stop19" />
      <stop
         offset="100%"
         style="stop-color: #279362; stop-opacity:1"
         id="stop20" />
    </linearGradient>
    <linearGradient
       id="90ssummer"
       x1="0"
       x2="0"
       y1="0"
       y2="1">
      <stop
         offset="0%"
         style="stop-color: #f618c7; stop-opacity:1"
         id="stop21" />
      <stop
         offset="20%"
         style="stop-color: #94ffab; stop-opacity:1"
         id="stop22" />
      <stop
         offset="50%"
         style="stop-color: #fbfd54; stop-opacity:1"
         id="stop23" />
      <stop
         offset="100%"
         style="stop-color: #0f83ae; stop-opacity:1"
         id="stop24" />
    </linearGradient>
  </defs>
  <path
     class="ColorScheme-Text"
     fill-rule="evenodd"
     d="M 0.5,0.5 V 47.499998 H 4.4156873 V 27.915686 L 23.999999,23.999999 v 3.915687 L 47.499998,23.999999 39.665686,20.084312 47.499998,16.165687 23.999999,8.3343121 V 4.4156873 L 4.4156873,0.5 Z"
     id="path24"
     style="fill:url(#oomox);stroke-width:2.9375" />
  <metadata
     id="metadata1">
    <rdf:RDF>
      <cc:Work
         rdf:about="">
        <dc:creator>
          <cc:Agent>
            <dc:title>dreifacherspass</dc:title>
          </cc:Agent>
        </dc:creator>
        <cc:license
           rdf:resource="http://creativecommons.org/licenses/by-sa/4.0/" />
      </cc:Work>
      <cc:License
         rdf:about="http://creativecommons.org/licenses/by-sa/4.0/">
        <cc:permits
           rdf:resource="http://creativecommons.org/ns#Reproduction" />
        <cc:permits
           rdf:resource="http://creativecommons.org/ns#Distribution" />
        <cc:requires
           rdf:resource="http://creativecommons.org/ns#Notice" />
        <cc:requires
           rdf:resource="http://creativecommons.org/ns#Attribution" />
        <cc:permits
           rdf:resource="http://creativecommons.org/ns#DerivativeWorks" />
        <cc:requires
           rdf:resource="http://creativecommons.org/ns#ShareAlike" />
      </cc:License>
    </rdf:RDF>
  </metadata>
  <path
     d="m 38.291667,30.5 c -0.392417,0 -0.708334,0.315917 -0.708334,0.708333 v 10.625 c -0.784833,0 -1.416666,0.631834 -1.416666,1.416667 0,0.784833 0.631833,1.416667 1.416666,1.416667 v 2.125 c 0,0.392416 0.315917,0.708333 0.708334,0.708333 h 1.416666 c 0.392417,0 0.708334,-0.315917 0.708334,-0.708333 v -2.125 c 0.784833,0 1.416666,-0.631834 1.416666,-1.416667 0,-0.784833 -0.631833,-1.416667 -1.416666,-1.416667 v -10.625 C 40.416667,30.815917 40.10075,30.5 39.708333,30.5 Z M 32.625,31.916667 c -0.392417,0 -0.708333,0.315916 -0.708333,0.708333 V 34.75 C 31.131833,34.75 30.5,35.381833 30.5,36.166667 c 0,0.784833 0.631833,1.416666 1.416667,1.416666 V 45.4175 c 0,0.392417 0.315916,0.708333 0.708333,0.708333 h 1.416667 c 0.392416,0 0.708333,-0.315916 0.708333,-0.708333 v -7.834167 c 0.784833,0 1.416667,-0.631833 1.416667,-1.416666 C 36.166667,35.381833 35.534833,34.75 34.75,34.75 v -2.125 c 0,-0.392417 -0.315917,-0.708333 -0.708333,-0.708333 z m 11.333333,0 C 43.565917,31.916667 43.25,32.232583 43.25,32.625 v 2.125 c -0.784833,0 -1.416667,0.631833 -1.416667,1.416667 0,0.784833 0.631834,1.416666 1.416667,1.416666 V 45.375 c 0,0.392417 0.315917,0.708333 0.708333,0.708333 H 45.375 c 0.392417,0 0.708333,-0.315916 0.708333,-0.708333 V 37.583333 C 46.868167,37.583333 47.5,36.9515 47.5,36.166667 47.5,35.381833 46.868167,34.75 46.083333,34.75 v -2.125 c 0,-0.392417 -0.315916,-0.708333 -0.708333,-0.708333 z"
     style="fill:url(#oomox);stroke-width:1.41667"
     id="path13"
     class="ColorScheme-Text"/>
</svg>
