<?xml version="1.0" encoding="UTF-8" standalone="no"?>
<svg
   width="16"
   height="16"
   version="1.1"
   id="svg24"
   xmlns:xlink="http://www.w3.org/1999/xlink"
   xmlns="http://www.w3.org/2000/svg"
   xmlns:svg="http://www.w3.org/2000/svg">
  <defs>
   <style id="current-color-scheme" type="text/css">
   .ColorScheme-Text { color: #0abdc6; } .ColorScheme-Highlight { color:#5294e2; }
  </style>
  <linearGradient id="arrongin" x1="0%" x2="0%" y1="0%" y2="100%">
   <stop offset="0%" style="stop-color:#dd9b44; stop-opacity:1"/>
   <stop offset="100%" style="stop-color:#ad6c16; stop-opacity:1"/>
  </linearGradient>
  <linearGradient id="aurora" x1="0%" x2="0%" y1="0%" y2="100%">
   <stop offset="0%" style="stop-color:#09D4DF; stop-opacity:1"/>
   <stop offset="100%" style="stop-color:#9269F4; stop-opacity:1"/>
  </linearGradient>
  <linearGradient id="cyberneon" x1="0%" x2="0%" y1="0%" y2="100%">
    <stop offset="0" style="stop-color:#0abdc6; stop-opacity:1"/>
    <stop offset="1" style="stop-color:#ea00d9; stop-opacity:1"/>
  </linearGradient>
  <linearGradient id="fitdance" x1="0%" x2="0%" y1="0%" y2="100%">
   <stop offset="0%" style="stop-color:#1AD6AB; stop-opacity:1"/>
   <stop offset="100%" style="stop-color:#329DB6; stop-opacity:1"/>
  </linearGradient>
  <linearGradient id="oomox" x1="0%" x2="0%" y1="0%" y2="100%">
   <stop offset="0%" style="stop-color:#0abdc6; stop-opacity:1"/>
   <stop offset="100%" style="stop-color:#b800ff; stop-opacity:1"/>
  </linearGradient>
  <linearGradient id="rainblue" x1="0%" x2="0%" y1="0%" y2="100%">
   <stop offset="0%" style="stop-color:#00F260; stop-opacity:1"/>
   <stop offset="100%" style="stop-color:#0575E6; stop-opacity:1"/>
  </linearGradient>
  <linearGradient id="sunrise" x1="0%" x2="0%" y1="0%" y2="100%">
   <stop offset="0%" style="stop-color: #FF8501; stop-opacity:1"/>
   <stop offset="100%" style="stop-color: #FFCB01; stop-opacity:1"/>
  </linearGradient>
  <linearGradient id="telinkrin" x1="0%" x2="0%" y1="0%" y2="100%">
   <stop offset="0%" style="stop-color: #b2ced6; stop-opacity:1"/>
   <stop offset="100%" style="stop-color: #6da5b7; stop-opacity:1"/>
  </linearGradient>
  <linearGradient id="60spsycho" x1="0%" x2="0%" y1="0%" y2="100%">
   <stop offset="0%" style="stop-color: #df5940; stop-opacity:1"/>
   <stop offset="25%" style="stop-color: #d8d15f; stop-opacity:1"/>
   <stop offset="50%" style="stop-color: #e9882a; stop-opacity:1"/>
   <stop offset="100%" style="stop-color: #279362; stop-opacity:1"/>
  </linearGradient>
  <linearGradient id="90ssummer" x1="0%" x2="0%" y1="0%" y2="100%">
   <stop offset="0%" style="stop-color: #f618c7; stop-opacity:1"/>
   <stop offset="20%" style="stop-color: #94ffab; stop-opacity:1"/>
   <stop offset="50%" style="stop-color: #fbfd54; stop-opacity:1"/>
   <stop offset="100%" style="stop-color: #0f83ae; stop-opacity:1"/>
  </linearGradient>
 </defs>
  <path
     id="path24"
     class="ColorScheme-Text"
     d="M 0 0 L 0 16 L 1.3320312 16 L 1.3320312 9.3320312 L 8 8 L 8 9.3320312 L 16 8 L 13.332031 6.6679688 L 16 5.3320312 L 8 2.6679688 L 8 1.3320312 L 1.3320312 0 L 0 0 z M 5.8164062 3.5859375 C 6.0923651 3.5859375 6.3282772 3.6377353 6.5253906 3.7402344 C 6.7264464 3.8387911 6.8798869 3.9749777 6.9863281 4.1484375 C 7.0967117 4.3179551 7.1523437 4.5116908 7.1523438 4.7285156 C 7.1523438 4.9611095 7.1043801 5.1740163 7.0097656 5.3671875 C 6.9190934 5.5603586 6.7867771 5.7502242 6.609375 5.9394531 C 6.4359151 6.1286821 6.2249255 6.3377546 5.9765625 6.5664062 L 5.4316406 7.0761719 L 5.4316406 7.1171875 L 7.2714844 7.1171875 L 7.2714844 7.8671875 L 4.3203125 7.8671875 L 4.3203125 7.2460938 L 5.3789062 6.1757812 C 5.5917888 5.9550141 5.7624833 5.772817 5.8925781 5.6269531 C 6.0226731 5.4771469 6.1186004 5.3428775 6.1777344 5.2246094 C 6.2368683 5.102399 6.265625 4.9719638 6.265625 4.8339844 C 6.265625 4.6644668 6.2176614 4.5378658 6.1230469 4.4550781 C 6.0323747 4.3722905 5.9096439 4.3320312 5.7519531 4.3320312 C 5.5903201 4.3320312 5.4310923 4.3684562 5.2773438 4.4433594 C 5.1235952 4.5182625 4.9624863 4.6256924 4.7929688 4.7636719 L 4.3085938 4.1894531 C 4.4308041 4.0830118 4.5593222 3.9852034 4.6933594 3.8945312 C 4.8313388 3.803859 4.9886135 3.730973 5.1660156 3.6757812 C 5.34736 3.6166473 5.564101 3.5859375 5.8164062 3.5859375 z M 9.1757812 3.6464844 L 9.9082031 3.6464844 L 9.9082031 7.8671875 L 9.015625 7.8671875 L 9.015625 5.4257812 C 9.015625 5.3232822 9.0175444 5.1890128 9.0214844 5.0234375 C 9.029369 4.8578622 9.0351205 4.7120901 9.0390625 4.5859375 C 9.0193512 4.6095908 8.9752217 4.6537203 8.9082031 4.7167969 C 8.8451265 4.7759308 8.7876134 4.8276926 8.7324219 4.875 L 8.2460938 5.265625 L 7.8144531 4.7285156 L 9.1757812 3.6464844 z "
     style="fill:url(#oomox)" />
    <metadata
     id="metadata1">
    <rdf:RDF>
      <cc:Work
         rdf:about="">
        <dc:creator>
          <cc:Agent>
            <dc:title>dreifacherspass</dc:title>
          </cc:Agent>
        </dc:creator>
        <cc:license
           rdf:resource="http://creativecommons.org/licenses/by-sa/4.0/" />
      </cc:Work>
      <cc:License
         rdf:about="http://creativecommons.org/licenses/by-sa/4.0/">
        <cc:permits
           rdf:resource="http://creativecommons.org/ns#Reproduction" />
        <cc:permits
           rdf:resource="http://creativecommons.org/ns#Distribution" />
        <cc:requires
           rdf:resource="http://creativecommons.org/ns#Notice" />
        <cc:requires
           rdf:resource="http://creativecommons.org/ns#Attribution" />
        <cc:permits
           rdf:resource="http://creativecommons.org/ns#DerivativeWorks" />
        <cc:requires
           rdf:resource="http://creativecommons.org/ns#ShareAlike" />
      </cc:License>
    </rdf:RDF>
  </metadata>
</svg>
