<?xml version="1.0" encoding="UTF-8" standalone="no"?>
<svg
   width="48"
   height="48"
   version="1.1"
   id="svg24"
   xmlns:xlink="http://www.w3.org/1999/xlink"
   xmlns="http://www.w3.org/2000/svg"
   xmlns:svg="http://www.w3.org/2000/svg"
   xmlns:rdf="http://www.w3.org/1999/02/22-rdf-syntax-ns#"
   xmlns:cc="http://creativecommons.org/ns#"
   xmlns:dc="http://purl.org/dc/elements/1.1/">
  <defs
     id="defs24">
    <style
       id="current-color-scheme"
       type="text/css">&#10;   .ColorScheme-Text { color: #0abdc6; } .ColorScheme-Highlight { color:#5294e2; }&#10;  </style>
    <linearGradient
       id="arrongin"
       x1="0"
       x2="0"
       y1="0"
       y2="1">
      <stop
         offset="0%"
         style="stop-color:#dd9b44; stop-opacity:1"
         id="stop1" />
      <stop
         offset="100%"
         style="stop-color:#ad6c16; stop-opacity:1"
         id="stop2" />
    </linearGradient>
    <linearGradient
       id="aurora"
       x1="0"
       x2="0"
       y1="0"
       y2="1">
      <stop
         offset="0%"
         style="stop-color:#09D4DF; stop-opacity:1"
         id="stop3" />
      <stop
         offset="100%"
         style="stop-color:#9269F4; stop-opacity:1"
         id="stop4" />
    </linearGradient>
    <linearGradient
       id="cyberneon"
       x1="0"
       x2="0"
       y1="0"
       y2="1">
      <stop
         offset="0"
         style="stop-color:#0abdc6; stop-opacity:1"
         id="stop5" />
      <stop
         offset="1"
         style="stop-color:#ea00d9; stop-opacity:1"
         id="stop6" />
    </linearGradient>
    <linearGradient
       id="fitdance"
       x1="0"
       x2="0"
       y1="0"
       y2="1">
      <stop
         offset="0%"
         style="stop-color:#1AD6AB; stop-opacity:1"
         id="stop7" />
      <stop
         offset="100%"
         style="stop-color:#329DB6; stop-opacity:1"
         id="stop8" />
    </linearGradient>
    <linearGradient
       id="oomox"
       x1="0"
       x2="0"
       y1="0"
       y2="1">
      <stop
         offset="0%"
         style="stop-color:#0abdc6; stop-opacity:1"
         id="stop9" />
      <stop
         offset="100%"
         style="stop-color:#b800ff; stop-opacity:1"
         id="stop10" />
    </linearGradient>
    <linearGradient
       id="rainblue"
       x1="0"
       x2="0"
       y1="0"
       y2="1">
      <stop
         offset="0%"
         style="stop-color:#00F260; stop-opacity:1"
         id="stop11" />
      <stop
         offset="100%"
         style="stop-color:#0575E6; stop-opacity:1"
         id="stop12" />
    </linearGradient>
    <linearGradient
       id="sunrise"
       x1="0"
       x2="0"
       y1="0"
       y2="1">
      <stop
         offset="0%"
         style="stop-color: #FF8501; stop-opacity:1"
         id="stop13" />
      <stop
         offset="100%"
         style="stop-color: #FFCB01; stop-opacity:1"
         id="stop14" />
    </linearGradient>
    <linearGradient
       id="telinkrin"
       x1="0"
       x2="0"
       y1="0"
       y2="1">
      <stop
         offset="0%"
         style="stop-color: #b2ced6; stop-opacity:1"
         id="stop15" />
      <stop
         offset="100%"
         style="stop-color: #6da5b7; stop-opacity:1"
         id="stop16" />
    </linearGradient>
    <linearGradient
       id="60spsycho"
       x1="0"
       x2="0"
       y1="0"
       y2="1">
      <stop
         offset="0%"
         style="stop-color: #df5940; stop-opacity:1"
         id="stop17" />
      <stop
         offset="25%"
         style="stop-color: #d8d15f; stop-opacity:1"
         id="stop18" />
      <stop
         offset="50%"
         style="stop-color: #e9882a; stop-opacity:1"
         id="stop19" />
      <stop
         offset="100%"
         style="stop-color: #279362; stop-opacity:1"
         id="stop20" />
    </linearGradient>
    <linearGradient
       id="90ssummer"
       x1="0"
       x2="0"
       y1="0"
       y2="1">
      <stop
         offset="0%"
         style="stop-color: #f618c7; stop-opacity:1"
         id="stop21" />
      <stop
         offset="20%"
         style="stop-color: #94ffab; stop-opacity:1"
         id="stop22" />
      <stop
         offset="50%"
         style="stop-color: #fbfd54; stop-opacity:1"
         id="stop23" />
      <stop
         offset="100%"
         style="stop-color: #0f83ae; stop-opacity:1"
         id="stop24" />
    </linearGradient>
  </defs>
  <path
     id="path453757"
     class="ColorScheme-Text"
     style="fill:url(#oomox);fill-rule:evenodd;stroke-width:0.610592;stroke-linecap:round;stroke-linejoin:round;stroke-miterlimit:4.1;-inkscape-stroke:none"
     d="m 32.846744,30.403887 a 0.61064386,0.61064468 0 0 0 -0.548176,0.339472 l -1.830958,3.684165 a 0.61064386,0.61064468 0 0 0 -0.06122,0.258794 0.61064386,0.61064468 0 0 0 -0.0027,0.01381 v 12.190545 a 0.61064386,0.61064468 0 0 0 0.609373,0.609329 h 15.87751 a 0.61064386,0.61064468 0 0 0 0.609393,-0.60939 V 34.700013 a 0.61064386,0.61064468 0 0 0 0,-0.0032 0.61064386,0.61064468 0 0 0 -0.06407,-0.269897 L 45.60497,30.743253 a 0.61064386,0.61064468 0 0 0 -0.548155,-0.339472 z m 0.375647,1.221562 h 3.792683 l -0.400696,2.462606 H 31.99805 Z m 5.028163,0 h 2.626774 l 0.41182,2.462606 h -3.439281 z m 3.865036,0 h 2.562789 l 1.227115,2.462606 h -3.380848 z m -10.490411,3.684162 h 4.883482 v 6.085563 a 0.61064386,0.61064468 0 0 0 1.043464,0.431301 l 2.009047,-2.011823 2.011806,2.011823 a 0.61064386,0.61064468 0 0 0 1.043497,-0.431301 v -6.085563 h 3.66189 V 46.278632 H 31.625179 Z m 6.105026,0 h 3.664687 v 4.610788 l -1.399628,-1.399666 a 0.61064386,0.61064468 0 0 0 -0.865402,0 l -1.399657,1.399666 z m -4.274074,8.525894 a 0.61058276,0.61058358 0 0 0 -0.609387,0.612181 0.61058276,0.61058358 0 0 0 0.609387,0.60939 h 3.66469 a 0.61058276,0.61058358 0 0 0 0.609384,-0.60939 0.61058276,0.61058358 0 0 0 -0.609384,-0.612181 z" />
  <path
     class="ColorScheme-Text"
     fill-rule="evenodd"
     d="M 0.5,0.5 V 47.499998 H 4.4156873 V 27.915686 L 23.999999,23.999999 v 3.915687 L 47.499998,23.999999 39.665686,20.084312 47.499998,16.165687 23.999999,8.3343121 V 4.4156873 L 4.4156873,0.5 Z"
     id="path24"
     style="fill:url(#oomox);stroke-width:2.9375" />
  <metadata
     id="metadata1">
    <rdf:RDF>
      <cc:Work
         rdf:about="">
        <dc:creator>
          <cc:Agent>
            <dc:title>dreifacherspass</dc:title>
          </cc:Agent>
        </dc:creator>
        <cc:license
           rdf:resource="http://creativecommons.org/licenses/by-sa/4.0/" />
      </cc:Work>
      <cc:License
         rdf:about="http://creativecommons.org/licenses/by-sa/4.0/">
        <cc:permits
           rdf:resource="http://creativecommons.org/ns#Reproduction" />
        <cc:permits
           rdf:resource="http://creativecommons.org/ns#Distribution" />
        <cc:requires
           rdf:resource="http://creativecommons.org/ns#Notice" />
        <cc:requires
           rdf:resource="http://creativecommons.org/ns#Attribution" />
        <cc:permits
           rdf:resource="http://creativecommons.org/ns#DerivativeWorks" />
        <cc:requires
           rdf:resource="http://creativecommons.org/ns#ShareAlike" />
      </cc:License>
    </rdf:RDF>
  </metadata>
</svg>
