<?xml version="1.0" encoding="UTF-8" standalone="no"?>
<svg
   width="16"
   height="16"
   version="1.1"
   id="svg24"
   xmlns:xlink="http://www.w3.org/1999/xlink"
   xmlns="http://www.w3.org/2000/svg"
   xmlns:svg="http://www.w3.org/2000/svg"
   xmlns:rdf="http://www.w3.org/1999/02/22-rdf-syntax-ns#"
   xmlns:cc="http://creativecommons.org/ns#"
   xmlns:dc="http://purl.org/dc/elements/1.1/">
  <defs>
   <style id="current-color-scheme" type="text/css">
   .ColorScheme-Text { color: #0abdc6; } .ColorScheme-Highlight { color:#5294e2; }
  </style>
  <linearGradient id="arrongin" x1="0%" x2="0%" y1="0%" y2="100%">
   <stop offset="0%" style="stop-color:#dd9b44; stop-opacity:1"/>
   <stop offset="100%" style="stop-color:#ad6c16; stop-opacity:1"/>
  </linearGradient>
  <linearGradient id="aurora" x1="0%" x2="0%" y1="0%" y2="100%">
   <stop offset="0%" style="stop-color:#09D4DF; stop-opacity:1"/>
   <stop offset="100%" style="stop-color:#9269F4; stop-opacity:1"/>
  </linearGradient>
  <linearGradient id="cyberneon" x1="0%" x2="0%" y1="0%" y2="100%">
    <stop offset="0" style="stop-color:#0abdc6; stop-opacity:1"/>
    <stop offset="1" style="stop-color:#ea00d9; stop-opacity:1"/>
  </linearGradient>
  <linearGradient id="fitdance" x1="0%" x2="0%" y1="0%" y2="100%">
   <stop offset="0%" style="stop-color:#1AD6AB; stop-opacity:1"/>
   <stop offset="100%" style="stop-color:#329DB6; stop-opacity:1"/>
  </linearGradient>
  <linearGradient id="oomox" x1="0%" x2="0%" y1="0%" y2="100%">
   <stop offset="0%" style="stop-color:#0abdc6; stop-opacity:1"/>
   <stop offset="100%" style="stop-color:#b800ff; stop-opacity:1"/>
  </linearGradient>
  <linearGradient id="rainblue" x1="0%" x2="0%" y1="0%" y2="100%">
   <stop offset="0%" style="stop-color:#00F260; stop-opacity:1"/>
   <stop offset="100%" style="stop-color:#0575E6; stop-opacity:1"/>
  </linearGradient>
  <linearGradient id="sunrise" x1="0%" x2="0%" y1="0%" y2="100%">
   <stop offset="0%" style="stop-color: #FF8501; stop-opacity:1"/>
   <stop offset="100%" style="stop-color: #FFCB01; stop-opacity:1"/>
  </linearGradient>
  <linearGradient id="telinkrin" x1="0%" x2="0%" y1="0%" y2="100%">
   <stop offset="0%" style="stop-color: #b2ced6; stop-opacity:1"/>
   <stop offset="100%" style="stop-color: #6da5b7; stop-opacity:1"/>
  </linearGradient>
  <linearGradient id="60spsycho" x1="0%" x2="0%" y1="0%" y2="100%">
   <stop offset="0%" style="stop-color: #df5940; stop-opacity:1"/>
   <stop offset="25%" style="stop-color: #d8d15f; stop-opacity:1"/>
   <stop offset="50%" style="stop-color: #e9882a; stop-opacity:1"/>
   <stop offset="100%" style="stop-color: #279362; stop-opacity:1"/>
  </linearGradient>
  <linearGradient id="90ssummer" x1="0%" x2="0%" y1="0%" y2="100%">
   <stop offset="0%" style="stop-color: #f618c7; stop-opacity:1"/>
   <stop offset="20%" style="stop-color: #94ffab; stop-opacity:1"/>
   <stop offset="50%" style="stop-color: #fbfd54; stop-opacity:1"/>
   <stop offset="100%" style="stop-color: #0f83ae; stop-opacity:1"/>
  </linearGradient>
 </defs>
  <path
     id="path453757"
     class="ColorScheme-Text"
     style="fill:url(#oomox);fill-rule:evenodd;stroke-width:0.207861;stroke-linecap:round;stroke-linejoin:round;stroke-miterlimit:4.1;-inkscape-stroke:none"
     d="m 11.011658,10.180047 a 0.20787877,0.20787905 0 0 0 -0.186613,0.115565 l -0.623305,1.254184 a 0.20787877,0.20787905 0 0 0 -0.02084,0.0881 0.20787877,0.20787905 0 0 0 -9.19e-4,0.0047 v 4.149973 A 0.20787877,0.20787905 0 0 0 10.387427,16 h 5.40511 a 0.20787877,0.20787905 0 0 0 0.207453,-0.207452 v -4.149991 a 0.20787877,0.20787905 0 0 0 0,-0.0011 0.20787877,0.20787905 0 0 0 -0.02181,-0.09188 L 15.354886,10.295564 A 0.20787877,0.20787905 0 0 0 15.16828,10.179999 Z m 0.12788,0.415851 h 1.291126 l -0.136407,0.838334 h -1.571516 z m 1.711715,0 h 0.894221 l 0.140194,0.838334 h -1.170819 z m 1.315757,0 h 0.872439 l 0.417741,0.838334 h -1.150927 z m -3.571204,1.254183 h 1.662462 v 2.071681 a 0.20787877,0.20787905 0 0 0 0.355222,0.146826 l 0.683931,-0.684876 0.68487,0.684876 a 0.20787877,0.20787905 0 0 0 0.355233,-0.146826 v -2.071681 h 1.246601 v 3.734135 h -4.988319 z m 2.078307,0 h 1.247553 v 1.56963 l -0.476469,-0.476482 a 0.20787877,0.20787905 0 0 0 -0.294605,0 l -0.476479,0.476482 z m -1.455004,2.902432 a 0.20785797,0.20785825 0 0 0 -0.207451,0.208402 0.20785797,0.20785825 0 0 0 0.207451,0.207452 h 1.247554 a 0.20785797,0.20785825 0 0 0 0.20745,-0.207452 0.20785797,0.20785825 0 0 0 -0.20745,-0.208402 z" />
  <metadata
     id="metadata1">
    <rdf:RDF>
      <cc:Work
         rdf:about="">
        <dc:creator>
          <cc:Agent>
            <dc:title>dreifacherspass</dc:title>
          </cc:Agent>
        </dc:creator>
        <cc:license
           rdf:resource="http://creativecommons.org/licenses/by-sa/4.0/" />
      </cc:Work>
      <cc:License
         rdf:about="http://creativecommons.org/licenses/by-sa/4.0/">
        <cc:permits
           rdf:resource="http://creativecommons.org/ns#Reproduction" />
        <cc:permits
           rdf:resource="http://creativecommons.org/ns#Distribution" />
        <cc:requires
           rdf:resource="http://creativecommons.org/ns#Notice" />
        <cc:requires
           rdf:resource="http://creativecommons.org/ns#Attribution" />
        <cc:permits
           rdf:resource="http://creativecommons.org/ns#DerivativeWorks" />
        <cc:requires
           rdf:resource="http://creativecommons.org/ns#ShareAlike" />
      </cc:License>
    </rdf:RDF>
  </metadata>
  <path
     id="path24"
     class="ColorScheme-Text"
     d="M 0,0 V 16 H 1.3320312 V 9.3320312 L 8,8 V 9.3320312 L 16,8 13.332031,6.6679688 16,5.3320312 8,2.6679688 V 1.3320312 L 1.3320312,0 Z m 5.8164062,3.5859375 c 0.2759589,0 0.511871,0.051798 0.7089844,0.1542969 0.2010558,0.098557 0.3544963,0.2347433 0.4609375,0.4082031 0.1103836,0.1695176 0.1660156,0.3632533 0.1660157,0.5800781 0,0.2325939 -0.047964,0.4455007 -0.1425782,0.6386719 C 6.9190934,5.5603586 6.7867771,5.7502242 6.609375,5.9394531 6.4359151,6.1286821 6.2249255,6.3377546 5.9765625,6.5664062 L 5.4316406,7.0761719 v 0.041016 h 1.8398438 v 0.75 H 4.3203125 V 7.2460938 L 5.3789062,6.1757812 C 5.5917888,5.9550141 5.7624833,5.772817 5.8925781,5.6269531 6.0226731,5.4771469 6.1186004,5.3428775 6.1777344,5.2246094 6.2368683,5.102399 6.265625,4.9719638 6.265625,4.8339844 6.265625,4.6644668 6.217661,4.5378658 6.1230469,4.4550781 6.0323749,4.3722901 5.9096439,4.3320312 5.7519531,4.3320312 c -0.161633,0 -0.3208608,0.036425 -0.4746093,0.1113282 -0.1537486,0.074903 -0.3148575,0.182333 -0.484375,0.3203125 L 4.3085938,4.1894531 C 4.4308041,4.0830118 4.5593222,3.9852034 4.6933594,3.8945312 4.8313388,3.803859 4.9886135,3.730973 5.1660156,3.6757812 5.34736,3.6166473 5.564101,3.5859375 5.8164062,3.5859375 Z m 3.3593748,0.060547 h 0.732422 v 4.220703 H 9.015625 V 5.4257812 c 0,-0.102499 0.0019,-0.2367684 0.0059,-0.4023437 0.0079,-0.1655753 0.01364,-0.3113474 0.01758,-0.4375 C 9.019395,4.6095905 8.975264,4.6537205 8.9082456,4.7167969 8.8451265,4.7759308 8.7876134,4.8276926 8.7324219,4.875 L 8.2460938,5.265625 7.8144531,4.7285156 Z"
     style="fill:url(#oomox)" />
</svg>
