<?xml version="1.0" encoding="UTF-8" standalone="no"?>
<!-- Uploaded to: SVG Repo, www.svgrepo.com, Generator: SVG Repo Mixer Tools -->

<svg
   height="16"
   width="16"
   version="1.1"
   id="_x32_"
   viewBox="0 0 10.24 10.24"
   xml:space="preserve"
   xmlns:xlink="http://www.w3.org/1999/xlink"
   xmlns="http://www.w3.org/2000/svg"
   xmlns:svg="http://www.w3.org/2000/svg"
   xmlns:rdf="http://www.w3.org/1999/02/22-rdf-syntax-ns#"
   xmlns:cc="http://creativecommons.org/ns#"
   xmlns:dc="http://purl.org/dc/elements/1.1/">
  <defs>
   <style id="current-color-scheme" type="text/css">
   .ColorScheme-Text { color: #0abdc6; } .ColorScheme-Highlight { color:#5294e2; }
  </style>
  <linearGradient id="arrongin" x1="0%" x2="0%" y1="0%" y2="100%">
   <stop offset="0%" style="stop-color:#dd9b44; stop-opacity:1"/>
   <stop offset="100%" style="stop-color:#ad6c16; stop-opacity:1"/>
  </linearGradient>
  <linearGradient id="aurora" x1="0%" x2="0%" y1="0%" y2="100%">
   <stop offset="0%" style="stop-color:#09D4DF; stop-opacity:1"/>
   <stop offset="100%" style="stop-color:#9269F4; stop-opacity:1"/>
  </linearGradient>
  <linearGradient id="cyberneon" x1="0%" x2="0%" y1="0%" y2="100%">
    <stop offset="0" style="stop-color:#0abdc6; stop-opacity:1"/>
    <stop offset="1" style="stop-color:#ea00d9; stop-opacity:1"/>
  </linearGradient>
  <linearGradient id="fitdance" x1="0%" x2="0%" y1="0%" y2="100%">
   <stop offset="0%" style="stop-color:#1AD6AB; stop-opacity:1"/>
   <stop offset="100%" style="stop-color:#329DB6; stop-opacity:1"/>
  </linearGradient>
  <linearGradient id="oomox" x1="0%" x2="0%" y1="0%" y2="100%">
   <stop offset="0%" style="stop-color:#0abdc6; stop-opacity:1"/>
   <stop offset="100%" style="stop-color:#b800ff; stop-opacity:1"/>
  </linearGradient>
  <linearGradient id="rainblue" x1="0%" x2="0%" y1="0%" y2="100%">
   <stop offset="0%" style="stop-color:#00F260; stop-opacity:1"/>
   <stop offset="100%" style="stop-color:#0575E6; stop-opacity:1"/>
  </linearGradient>
  <linearGradient id="sunrise" x1="0%" x2="0%" y1="0%" y2="100%">
   <stop offset="0%" style="stop-color: #FF8501; stop-opacity:1"/>
   <stop offset="100%" style="stop-color: #FFCB01; stop-opacity:1"/>
  </linearGradient>
  <linearGradient id="telinkrin" x1="0%" x2="0%" y1="0%" y2="100%">
   <stop offset="0%" style="stop-color: #b2ced6; stop-opacity:1"/>
   <stop offset="100%" style="stop-color: #6da5b7; stop-opacity:1"/>
  </linearGradient>
  <linearGradient id="60spsycho" x1="0%" x2="0%" y1="0%" y2="100%">
   <stop offset="0%" style="stop-color: #df5940; stop-opacity:1"/>
   <stop offset="25%" style="stop-color: #d8d15f; stop-opacity:1"/>
   <stop offset="50%" style="stop-color: #e9882a; stop-opacity:1"/>
   <stop offset="100%" style="stop-color: #279362; stop-opacity:1"/>
  </linearGradient>
  <linearGradient id="90ssummer" x1="0%" x2="0%" y1="0%" y2="100%">
   <stop offset="0%" style="stop-color: #f618c7; stop-opacity:1"/>
   <stop offset="20%" style="stop-color: #94ffab; stop-opacity:1"/>
   <stop offset="50%" style="stop-color: #fbfd54; stop-opacity:1"/>
   <stop offset="100%" style="stop-color: #0f83ae; stop-opacity:1"/>
  </linearGradient>
 </defs>
 <path
   id="path1"
   class="ColorScheme-Text"
   d="M 2.3211569,0.00103005 C 1.9731107,-0.012475 1.6151074,0.14231877 1.4799069,0.50728005 0.26340268,0.64238052 0.02578686,0.91312853 0.04740694,1.34603 0.07440703,1.8866519 0.84097536,2.3393383 1.2911569,2.8322801 c 0.4975418,0.5449019 1.202918,1.4225374 1.77,2.1225 -0.2741809,0.07444 -0.8183089,0.04692 -1.11625,-0.025 -0.035,-0.1252803 -0.1486995,-0.2187499 -0.285,-0.2187499 -0.1642605,0 -0.2975,0.1332394 -0.2975,0.2975001 0,0.1641205 0.1332395,0.2974999 0.2975,0.2974999 0.07674,0 0.1459898,-0.02964 0.19875,-0.0775 0.2949411,0.0453 0.7492297,0.0595 0.85125,0.0725 0.1378806,0.01758 0.1572313,0.1908197 -0.1862499,0.3025 -0.2545409,0.083 -0.5716693,0.06798 -0.7837501,0.045 -0.05346,-0.05116 -0.1251597,-0.08375 -0.205,-0.08375 -0.1643405,0 -0.2975,0.1332394 -0.2975,0.2974999 0,0.1642608 0.1331595,0.2975002 0.2975,0.2975002 0.1215605,0 0.2264799,-0.07294 0.2725,-0.1775 0.3754814,0.00618 1.0029294,-0.0613 1.2062499,-0.1850001 0.259201,-0.1577805 -0.1784388,0.38199 -0.4949998,0.4187499 -0.03048,-0.01046 -0.06344,-0.0175 -0.0975,-0.0175 -0.1641806,0 -0.2975,0.1332394 -0.2975,0.2975 0,0.1639405 0.1333194,0.2974999 0.2975,0.2974999 0.1541205,0 0.2800198,-0.1187493 0.2949999,-0.26875 0.2387809,-0.1752006 0.5917991,-0.5473584 0.855,-0.9725 C 3.8696579,5.8624211 4.2129756,6.1406192 4.608657,6.3772801 4.4702964,6.7805615 4.3288874,7.1145298 4.2249069,7.1785301 3.9516661,7.3466106 3.2394181,7.4581301 2.906157,7.43103 2.8565767,7.3423096 2.7650573,7.2794301 2.656157,7.2710301 2.4831763,7.25757 2.332037,7.3871394 2.3186569,7.55978 c -0.0134,0.1729806 0.1158493,0.32404 0.2887501,0.3375001 0.1076403,0.00822 0.2071797,-0.0391 0.27,-0.1175001 0.3212211,-0.00776 0.8867894,-0.1131099 1.00875,-0.12375 0.1522005,-0.0133 0.2130811,0.1683694 -0.13,0.3687501 -0.272201,0.1587205 -0.6443493,0.2132997 -0.8762502,0.2349998 -0.04246,-0.0274 -0.09106,-0.04588 -0.1449998,-0.05 C 2.5619264,8.19648 2.4107869,8.3257094 2.3974069,8.49853 c -0.0134,0.1729606 0.1158495,0.3240399 0.2887501,0.3374999 0.1506604,0.01156 0.2841198,-0.085599 0.325,-0.225 0.3957014,-0.06908 1.1177793,-0.3024392 1.3175,-0.4924998 0.2283408,-0.2173208 -0.067159,0.3801393 -0.3800002,0.5424998 -0.01316,-0.0027 -0.02497,-0.0064 -0.03875,-0.0075 C 3.7369263,8.64007 3.585787,8.7694594 3.572407,8.94228 3.5589469,9.1152606 3.6881163,9.2663199 3.8611569,9.2797799 4.0339776,9.29324 4.1851969,9.1638506 4.198657,8.99103 c 0.0011,-0.01458 -4.5e-4,-0.02824 -0.00125,-0.0425 0.2784808,-0.325841 0.6726394,-1.0253976 0.8025,-1.685 0.03414,-0.1733005 0.08591,-0.3816593 0.14625,-0.6050001 0.2571608,0.1169005 0.5340388,0.2182098 0.83,0.3037502 0.1240403,0.2910009 0.3862589,0.4873898 0.6849999,0.53125 C 7.276239,7.5839701 8.5778765,6.9005098 8.7036568,6.9735299 8.8297574,7.0467099 7.9675485,7.7125697 7.5199069,7.78353 7.2043859,7.83359 6.4980183,7.77191 6.108657,7.73103 6.062177,7.6000297 5.9393274,7.50603 5.7924069,7.50603 c -0.1866806,0 -0.3387499,0.1509195 -0.3387499,0.3375002 0,0.1866006 0.1520693,0.3387499 0.3387499,0.3387499 0.09758,0 0.1845499,-0.04253 0.24625,-0.1087499 l 0.89375,0.17 -0.9825,0.6587499 c -0.04736,-0.02518 -0.1000797,-0.04125 -0.1575,-0.04125 -0.1866806,0 -0.3387499,0.1508993 -0.3387499,0.3374999 0,0.1866007 0.1520893,0.3387502 0.3387499,0.3387502 0.1637206,0 0.30029,-0.1166696 0.3312501,-0.27125 0.3683613,-0.245841 1.1082596,-0.7250403 1.2249999,-0.6875001 0.1031203,0.0331 -0.239709,0.6034987 -0.4862499,0.99 -0.01426,-0.00174 -0.0277,-0.005 -0.0425,-0.005 -0.1866807,0 -0.3387502,0.1521693 -0.3387502,0.3387499 0,0.186601 0.1520695,0.3375 0.3387502,0.3375 0.1866006,0 0.3374999,-0.150899 0.3374999,-0.3375 0,-0.04088 -0.00811,-0.08013 -0.02125,-0.1162499 0.2209609,-0.3411812 0.5650394,-0.8604094 0.735,-1.04875 C 8.1321979,8.447879 10.071027,6.6551919 10.172407,6.09603 10.286727,5.4656277 9.9556605,5.0457401 8.921157,5.0447801 9.0885776,3.0492531 6.2331699,1.4611506 5.399907,1.29103 4.0752022,1.020649 3.9134097,1.1020821 3.1024068,0.50728005 3.0077666,0.19633896 2.6692031,0.0145351 2.3211569,0.00103005 Z m -0.0575,0.99250001 c 0.2985811,0 0.54125,0.24266894 0.54125,0.54124994 0,0.298741 -0.2426689,0.5412501 -0.54125,0.5412501 -0.298581,0 -0.54,-0.2425091 -0.54,-0.5412501 0,-0.298581 0.241419,-0.54124994 0.54,-0.54124994 z M 2.2324069,1.35978 c -0.088576,0.009 -0.1574999,0.084118 -0.1574999,0.175 0,0.0971 0.07925,0.17625 0.17625,0.17625 0.09702,0 0.175,-0.07915 0.175,-0.17625 0,-0.09694 -0.07798,-0.175 -0.175,-0.175 -0.00606,0 -0.012845,-6.002e-4 -0.01875,0 z"
   style="stroke-width:0.0200001;fill:url(#oomox)" /><metadata
   id="metadata2"><rdf:RDF><cc:Work
       rdf:about=""><dc:creator><cc:Agent><dc:title>dreifacherspass</dc:title></cc:Agent></dc:creator><cc:license
         rdf:resource="http://creativecommons.org/licenses/by-sa/4.0/" /></cc:Work><cc:License
       rdf:about="http://creativecommons.org/licenses/by-sa/4.0/"><cc:permits
         rdf:resource="http://creativecommons.org/ns#Reproduction" /><cc:permits
         rdf:resource="http://creativecommons.org/ns#Distribution" /><cc:requires
         rdf:resource="http://creativecommons.org/ns#Notice" /><cc:requires
         rdf:resource="http://creativecommons.org/ns#Attribution" /><cc:permits
         rdf:resource="http://creativecommons.org/ns#DerivativeWorks" /><cc:requires
         rdf:resource="http://creativecommons.org/ns#ShareAlike" /></cc:License></rdf:RDF></metadata></svg>
