<?xml version="1.0" encoding="UTF-8" standalone="no"?>
<svg
   version="1.1"
   viewBox="0 0 16 16"
   id="svg7"
   width="16"
   height="16"
   xmlns="http://www.w3.org/2000/svg"
   xmlns:svg="http://www.w3.org/2000/svg"
   xmlns:rdf="http://www.w3.org/1999/02/22-rdf-syntax-ns#"
   xmlns:cc="http://creativecommons.org/ns#"
   xmlns:dc="http://purl.org/dc/elements/1.1/">
  <defs>
   <style id="current-color-scheme" type="text/css">
   .ColorScheme-Text { color: #0abdc6; } .ColorScheme-Highlight { color:#5294e2; }
  </style>
  <linearGradient id="arrongin" x1="0%" x2="0%" y1="0%" y2="100%">
   <stop offset="0%" style="stop-color:#dd9b44; stop-opacity:1"/>
   <stop offset="100%" style="stop-color:#ad6c16; stop-opacity:1"/>
  </linearGradient>
  <linearGradient id="aurora" x1="0%" x2="0%" y1="0%" y2="100%">
   <stop offset="0%" style="stop-color:#09D4DF; stop-opacity:1"/>
   <stop offset="100%" style="stop-color:#9269F4; stop-opacity:1"/>
  </linearGradient>
  <linearGradient id="cyberneon" x1="0%" x2="0%" y1="0%" y2="100%">
    <stop offset="0" style="stop-color:#0abdc6; stop-opacity:1"/>
    <stop offset="1" style="stop-color:#ea00d9; stop-opacity:1"/>
  </linearGradient>
  <linearGradient id="fitdance" x1="0%" x2="0%" y1="0%" y2="100%">
   <stop offset="0%" style="stop-color:#1AD6AB; stop-opacity:1"/>
   <stop offset="100%" style="stop-color:#329DB6; stop-opacity:1"/>
  </linearGradient>
  <linearGradient id="oomox" x1="0%" x2="0%" y1="0%" y2="100%">
   <stop offset="0%" style="stop-color:#0abdc6; stop-opacity:1"/>
   <stop offset="100%" style="stop-color:#b800ff; stop-opacity:1"/>
  </linearGradient>
  <linearGradient id="rainblue" x1="0%" x2="0%" y1="0%" y2="100%">
   <stop offset="0%" style="stop-color:#00F260; stop-opacity:1"/>
   <stop offset="100%" style="stop-color:#0575E6; stop-opacity:1"/>
  </linearGradient>
  <linearGradient id="sunrise" x1="0%" x2="0%" y1="0%" y2="100%">
   <stop offset="0%" style="stop-color: #FF8501; stop-opacity:1"/>
   <stop offset="100%" style="stop-color: #FFCB01; stop-opacity:1"/>
  </linearGradient>
  <linearGradient id="telinkrin" x1="0%" x2="0%" y1="0%" y2="100%">
   <stop offset="0%" style="stop-color: #b2ced6; stop-opacity:1"/>
   <stop offset="100%" style="stop-color: #6da5b7; stop-opacity:1"/>
  </linearGradient>
  <linearGradient id="60spsycho" x1="0%" x2="0%" y1="0%" y2="100%">
   <stop offset="0%" style="stop-color: #df5940; stop-opacity:1"/>
   <stop offset="25%" style="stop-color: #d8d15f; stop-opacity:1"/>
   <stop offset="50%" style="stop-color: #e9882a; stop-opacity:1"/>
   <stop offset="100%" style="stop-color: #279362; stop-opacity:1"/>
  </linearGradient>
  <linearGradient id="90ssummer" x1="0%" x2="0%" y1="0%" y2="100%">
   <stop offset="0%" style="stop-color: #f618c7; stop-opacity:1"/>
   <stop offset="20%" style="stop-color: #94ffab; stop-opacity:1"/>
   <stop offset="50%" style="stop-color: #fbfd54; stop-opacity:1"/>
   <stop offset="100%" style="stop-color: #0f83ae; stop-opacity:1"/>
  </linearGradient>
 </defs>
  <path
     style="fill:url(#oomox);stroke-width:0.533498"
     d="m 5.890542,5.8714685 c -0.8856101,0 -1.6004999,0.71488 -1.6004999,1.6004775 A 0.53349987,0.53349251 0 0 0 4.823542,8.0054386 0.53349987,0.53349251 0 0 0 5.357042,7.471946 c 0,-0.2944879 0.2390078,-0.5334925 0.5335,-0.5334925 0.1413771,2.13e-5 0.2736853,0.059751 0.3771839,0.1563133 l 2.7581947,2.5767689 c 0.3104969,0.2896864 0.7095546,0.4689403 1.1310204,0.4689403 0.88561,0 1.600499,-0.7148803 1.600499,-1.600478 a 0.53349987,0.53349251 0 0 0 -0.533499,-0.5334925 0.53349987,0.53349251 0 0 0 -0.5335,0.5334925 c 0,0.2944878 -0.239008,0.5334926 -0.5335,0.5334926 C 10.015563,9.0734693 9.8832548,9.0137393 9.7797556,8.9171772 L 7.0215615,6.3404084 C 6.7110646,6.050722 6.3120063,5.8714685 5.890542,5.8714685 Z"
     id="path25"
     class="ColorScheme-Text"/>
  <path
     style="fill:url(#oomox);stroke-width:0.533498"
     d="m 11.652341,3.7428333 a 0.53349987,0.53349251 0 0 0 -0.293959,0.1499115 0.53349987,0.53349251 0 0 0 0,0.7522244 l 3.355714,3.3556679 -3.355714,3.3556679 a 0.53349987,0.53349251 0 0 0 0,0.752224 0.53349987,0.53349251 0 0 0 0.752236,0 l 3.734498,-3.7344472 a 0.53349987,0.53349251 0 0 0 0,-0.7522244 L 12.110618,3.8874098 A 0.53349987,0.53349251 0 0 0 11.650207,3.7374984 Z"
     id="path24"
     class="ColorScheme-Text"/>
  <path
     style="fill:url(#oomox);stroke-width:0.533498"
     d="M 4.1833421,3.7428333 A 0.53349987,0.53349251 0 0 0 3.8893837,3.8927448 L 0.15488441,7.6271924 a 0.53349987,0.53349251 0 0 0 0,0.7522243 L 3.8893837,12.113864 a 0.53349987,0.53349251 0 0 0 0.7522348,0 0.53349987,0.53349251 0 0 0 0,-0.752224 L 1.2859043,8.005972 4.6416185,4.6503041 a 0.53349987,0.53349251 0 0 0 0,-0.7522244 0.53349987,0.53349251 0 0 0 -0.4604104,-0.1499114 z"
     id="path7"
     class="ColorScheme-Text"/>
  <metadata
     id="metadata7">
    <rdf:RDF>
      <cc:Work
         rdf:about="">
        <dc:creator>
          <cc:Agent>
            <dc:title>dreifacherspass</dc:title>
          </cc:Agent>
        </dc:creator>
        <cc:license
           rdf:resource="http://creativecommons.org/licenses/by-sa/4.0/" />
      </cc:Work>
      <cc:License
         rdf:about="http://creativecommons.org/licenses/by-sa/4.0/">
        <cc:permits
           rdf:resource="http://creativecommons.org/ns#Reproduction" />
        <cc:permits
           rdf:resource="http://creativecommons.org/ns#Distribution" />
        <cc:requires
           rdf:resource="http://creativecommons.org/ns#Notice" />
        <cc:requires
           rdf:resource="http://creativecommons.org/ns#Attribution" />
        <cc:permits
           rdf:resource="http://creativecommons.org/ns#DerivativeWorks" />
        <cc:requires
           rdf:resource="http://creativecommons.org/ns#ShareAlike" />
      </cc:License>
    </rdf:RDF>
  </metadata>
</svg>
