<?xml version="1.0" encoding="UTF-8" standalone="no"?>
<svg
   id="svg4197"
   viewBox="0 0 16 16"
   version="1.1"
   width="16"
   height="16"
   xmlns:xlink="http://www.w3.org/1999/xlink"
   xmlns="http://www.w3.org/2000/svg"
   xmlns:svg="http://www.w3.org/2000/svg"
   xmlns:rdf="http://www.w3.org/1999/02/22-rdf-syntax-ns#"
   xmlns:cc="http://creativecommons.org/ns#"
   xmlns:dc="http://purl.org/dc/elements/1.1/">
  <defs>
   <style id="current-color-scheme" type="text/css">
   .ColorScheme-Text { color: #0abdc6; } .ColorScheme-Highlight { color:#5294e2; }
  </style>
  <linearGradient id="arrongin" x1="0%" x2="0%" y1="0%" y2="100%">
   <stop offset="0%" style="stop-color:#dd9b44; stop-opacity:1"/>
   <stop offset="100%" style="stop-color:#ad6c16; stop-opacity:1"/>
  </linearGradient>
  <linearGradient id="aurora" x1="0%" x2="0%" y1="0%" y2="100%">
   <stop offset="0%" style="stop-color:#09D4DF; stop-opacity:1"/>
   <stop offset="100%" style="stop-color:#9269F4; stop-opacity:1"/>
  </linearGradient>
  <linearGradient id="cyberneon" x1="0%" x2="0%" y1="0%" y2="100%">
    <stop offset="0" style="stop-color:#0abdc6; stop-opacity:1"/>
    <stop offset="1" style="stop-color:#ea00d9; stop-opacity:1"/>
  </linearGradient>
  <linearGradient id="fitdance" x1="0%" x2="0%" y1="0%" y2="100%">
   <stop offset="0%" style="stop-color:#1AD6AB; stop-opacity:1"/>
   <stop offset="100%" style="stop-color:#329DB6; stop-opacity:1"/>
  </linearGradient>
  <linearGradient id="oomox" x1="0%" x2="0%" y1="0%" y2="100%">
   <stop offset="0%" style="stop-color:#0abdc6; stop-opacity:1"/>
   <stop offset="100%" style="stop-color:#b800ff; stop-opacity:1"/>
  </linearGradient>
  <linearGradient id="rainblue" x1="0%" x2="0%" y1="0%" y2="100%">
   <stop offset="0%" style="stop-color:#00F260; stop-opacity:1"/>
   <stop offset="100%" style="stop-color:#0575E6; stop-opacity:1"/>
  </linearGradient>
  <linearGradient id="sunrise" x1="0%" x2="0%" y1="0%" y2="100%">
   <stop offset="0%" style="stop-color: #FF8501; stop-opacity:1"/>
   <stop offset="100%" style="stop-color: #FFCB01; stop-opacity:1"/>
  </linearGradient>
  <linearGradient id="telinkrin" x1="0%" x2="0%" y1="0%" y2="100%">
   <stop offset="0%" style="stop-color: #b2ced6; stop-opacity:1"/>
   <stop offset="100%" style="stop-color: #6da5b7; stop-opacity:1"/>
  </linearGradient>
  <linearGradient id="60spsycho" x1="0%" x2="0%" y1="0%" y2="100%">
   <stop offset="0%" style="stop-color: #df5940; stop-opacity:1"/>
   <stop offset="25%" style="stop-color: #d8d15f; stop-opacity:1"/>
   <stop offset="50%" style="stop-color: #e9882a; stop-opacity:1"/>
   <stop offset="100%" style="stop-color: #279362; stop-opacity:1"/>
  </linearGradient>
  <linearGradient id="90ssummer" x1="0%" x2="0%" y1="0%" y2="100%">
   <stop offset="0%" style="stop-color: #f618c7; stop-opacity:1"/>
   <stop offset="20%" style="stop-color: #94ffab; stop-opacity:1"/>
   <stop offset="50%" style="stop-color: #fbfd54; stop-opacity:1"/>
   <stop offset="100%" style="stop-color: #0f83ae; stop-opacity:1"/>
  </linearGradient>
 </defs>
  <path
     id="path398"
     style="font-variation-settings:normal;display:inline;opacity:1;vector-effect:none;fill:url(#oomox);fill-opacity:1;stroke-width:0.0561755;stroke-linecap:butt;stroke-linejoin:miter;stroke-miterlimit:4;stroke-dasharray:none;stroke-dashoffset:0;stroke-opacity:1;-inkscape-stroke:none;stop-color:#000000;stop-opacity:1"
     class="ColorScheme-Text"
     d="M 0.48632812 3.3027344 L 0.26367188 7.1113281 C 0.14091236 9.2073405 0.036349975 10.968963 0.03125 11.027344 L 0.033203125 11.027344 L 0.0234375 11.134766 L 15.976562 11.134766 L 15.966797 11.027344 C 15.961697 10.969335 15.857134 9.2073405 15.734375 7.1113281 L 15.511719 3.3027344 L 0.48632812 3.3027344 z M 10.40625 4.5 C 10.485067 4.5068278 10.560025 4.5405866 10.617188 4.5976562 L 12.998047 6.9785156 C 13.129132 7.1109914 13.129132 7.324556 12.998047 7.4570312 L 10.617188 9.8378906 C 10.484711 9.9689605 10.273101 9.9689605 10.140625 9.8378906 C 10.009549 9.7054148 10.009549 9.4918499 10.140625 9.359375 L 12.279297 7.21875 L 10.140625 5.0820312 C 10.007194 4.9491456 10.007194 4.7344475 10.140625 4.6015625 C 10.191505 4.5505996 10.256988 4.5170544 10.328125 4.5058594 L 10.328125 4.5019531 C 10.354754 4.4979719 10.379978 4.4977241 10.40625 4.5 z M 5.5664062 4.5058594 L 5.5664062 4.5097656 C 5.6740853 4.4926616 5.7823694 4.5282848 5.859375 4.6054688 C 5.9904505 4.7379445 5.9904505 4.949556 5.859375 5.0820312 L 3.7207031 7.2226562 L 5.859375 9.3632812 C 5.9904505 9.4957581 5.9904505 9.7073679 5.859375 9.8398438 C 5.7268991 9.9709136 5.5152887 9.9709136 5.3828125 9.8398438 L 3.0019531 7.4609375 C 2.8708776 7.3284616 2.8708776 7.114897 3.0019531 6.9824219 L 5.3828125 4.6015625 C 5.4327445 4.5512556 5.4965316 4.5177604 5.5664062 4.5058594 z M 6.6542969 5.8613281 C 6.9228906 5.8613281 7.179078 5.9794493 7.3769531 6.1640625 L 9.1328125 7.8027344 C 9.1987734 7.8642733 9.2849014 7.9023298 9.375 7.9023438 C 9.5626771 7.9023436 9.7148438 7.7501721 9.7148438 7.5625 C 9.7147868 7.3746514 9.8668356 7.2226022 10.054688 7.2226562 C 10.242538 7.2226022 10.394587 7.374652 10.394531 7.5625 C 10.394531 8.1268792 9.9393871 8.5839844 9.375 8.5839844 C 9.1064057 8.5839844 8.8541248 8.46977 8.65625 8.2851562 L 6.8945312 6.6425781 C 6.8285737 6.5810426 6.7443956 6.5429814 6.6542969 6.5429688 C 6.4666198 6.5429687 6.3144531 6.6951386 6.3144531 6.8828125 C 6.314519 7.0692858 6.1630281 7.220767 5.9765625 7.2226562 C 5.7887114 7.2227102 5.6366622 7.0706605 5.6367188 6.8828125 C 5.6367188 6.3184332 6.0899094 5.8613281 6.6542969 5.8613281 z " />
  <path
     id="rect28"
     class="ColorScheme-Text"
     d="m 0.534891,11.310934 c -0.01573,0 -0.02893,0.0133 -0.02893,0.0301 v 0.20745 c 0,0.005 0.002,0.0107 0.0037,0.0133 h -0.0037 c 0,0.13359 0.07892,0.24797 0.189579,0.29181 0.0032,0.024 0.0232,0.19011 0.04901,0.40806 0.0272,0.23037 0.05023,0.4223 0.05149,0.4275 0.0023,0.0107 0.0027,0.0107 0.0037,0.003 0.0026,-0.016 0.09282,-0.78226 0.09911,-0.83953 0.109535,-0.0445 0.188379,-0.15811 0.188379,-0.2909 h -0.0037 c 0.0018,-0.003 0.0037,-0.008 0.0037,-0.0133 v -0.20745 c 0,-0.016 -0.01306,-0.0301 -0.02882,-0.0301 z m 1.108029,0 c -0.01573,0 -0.02882,0.0133 -0.02882,0.0301 v 0.20745 c 0,0.005 0.002,0.0107 0.0037,0.0133 H 1.6141 c 0,0.13359 0.07892,0.24797 0.189579,0.29181 0.0032,0.024 0.0232,0.19011 0.04901,0.40806 0.0272,0.23037 0.05013,0.4223 0.05138,0.4275 0.0023,0.0107 0.0027,0.0107 0.0037,0.003 0.0026,-0.016 0.09292,-0.78226 0.09919,-0.83953 0.109535,-0.0445 0.188379,-0.15811 0.188379,-0.2909 h -0.0037 c 0.0018,-0.003 0.0037,-0.008 0.0037,-0.0133 v -0.20745 c 0,-0.016 -0.01333,-0.0301 -0.02893,-0.0301 z m 1.108493,0 c -0.01573,0 -0.02882,0.0133 -0.02882,0.0301 v 0.20745 c 0,0.005 0.002,0.0107 0.0037,0.0133 h -0.0037 c 0,0.13359 0.07892,0.24797 0.189579,0.29181 0.0032,0.024 0.0232,0.19011 0.04901,0.40806 0.0272,0.23037 0.05013,0.4223 0.05141,0.4275 0.0023,0.0107 0.0027,0.0107 0.0037,0.003 0.0026,-0.016 0.09292,-0.78226 0.09919,-0.83953 0.109535,-0.0445 0.188379,-0.15811 0.188379,-0.2909 h -0.0037 c 0.0018,-0.003 0.0037,-0.008 0.0037,-0.0133 v -0.20745 c 0,-0.016 -0.01333,-0.0301 -0.02893,-0.0301 z m 1.108123,0 c -0.01573,0 -0.02893,0.0133 -0.02893,0.0301 v 0.20745 c 0,0.005 0.002,0.0107 0.0037,0.0133 h -0.0037 c 0,0.13359 0.079,0.24797 0.189659,0.29181 0.0032,0.024 0.0232,0.19011 0.0489,0.40806 0.0272,0.23037 0.05023,0.4223 0.05149,0.4275 0.0023,0.0107 0.0027,0.0107 0.0037,0.003 0.0026,-0.016 0.09292,-0.78226 0.09919,-0.83953 0.109535,-0.0445 0.1883,-0.15811 0.1883,-0.2909 h -0.0037 c 0.0018,-0.003 0.0037,-0.008 0.0037,-0.0133 v -0.20745 c 0,-0.016 -0.01307,-0.0301 -0.02882,-0.0301 z m 1.10812,0 c -0.01573,0 -0.02893,0.0133 -0.02893,0.0301 v 0.20745 c 0,0.005 0.002,0.0107 0.0037,0.0133 h -0.0037 c 0,0.13359 0.07892,0.24797 0.189579,0.29181 0.0032,0.024 0.0232,0.19011 0.04901,0.40806 0.0272,0.23037 0.05024,0.4223 0.05149,0.4275 0.0023,0.0107 0.0027,0.0107 0.0037,0.003 0.0026,-0.016 0.09282,-0.78226 0.09911,-0.83953 0.109561,-0.0445 0.188379,-0.15811 0.188379,-0.2909 h -0.0037 c 0.0018,-0.003 0.0037,-0.008 0.0037,-0.0133 v -0.20745 c 0,-0.016 -0.01333,-0.0301 -0.02893,-0.0301 z m 1.108493,0 c -0.01573,0 -0.02893,0.0133 -0.02893,0.0301 v 0.20745 c 0,0.005 0.002,0.0107 0.0037,0.0133 h -0.0037 c 0,0.13359 0.07892,0.24797 0.189579,0.29181 0.0032,0.024 0.0232,0.19011 0.04901,0.40806 0.0272,0.23037 0.05023,0.4223 0.05149,0.4275 0.0023,0.0107 0.0027,0.0107 0.0037,0.003 0.0026,-0.016 0.09282,-0.78226 0.09911,-0.83953 0.109535,-0.0445 0.188379,-0.15811 0.188379,-0.2909 h -0.0037 c 0.0018,-0.003 0.0037,-0.008 0.0037,-0.0133 v -0.20745 c 0,-0.016 -0.01306,-0.0301 -0.02882,-0.0301 z m 1.108029,0 c -0.01573,0 -0.02882,0.0133 -0.02882,0.0301 v 0.20745 c 0,0.005 0.002,0.0107 0.0037,0.0133 h -0.0037 c 0,0.13359 0.07892,0.24797 0.189579,0.29181 0.0032,0.024 0.0232,0.19011 0.04901,0.40806 0.0272,0.23037 0.05013,0.4223 0.05138,0.4275 0.0023,0.0107 0.0027,0.0107 0.0037,0.003 0.0026,-0.016 0.09292,-0.78226 0.09919,-0.83953 0.109535,-0.0445 0.18838,-0.15811 0.18838,-0.2909 h -0.0037 c 0.0018,-0.003 0.0037,-0.008 0.0037,-0.0133 v -0.20745 c 0,-0.016 -0.01333,-0.0301 -0.02893,-0.0301 z m 1.108125,0 c -0.01573,0 -0.02893,0.0133 -0.02893,0.0301 v 0.20745 c 0,0.005 0.002,0.0107 0.0037,0.0133 h -0.0037 c 0,0.13359 0.079,0.24797 0.189659,0.29181 0.0032,0.024 0.0232,0.19011 0.0489,0.40806 0.02722,0.23037 0.05024,0.4223 0.05149,0.4275 0.0023,0.0107 0.0027,0.0107 0.0037,0.003 0.0026,-0.016 0.09292,-0.78226 0.09919,-0.83953 0.109561,-0.0445 0.188299,-0.15811 0.188299,-0.2909 h -0.0037 c 0.0018,-0.003 0.0037,-0.008 0.0037,-0.0133 v -0.20745 c 0,-0.016 -0.01306,-0.0301 -0.02882,-0.0301 z m 1.108488,0 c -0.01573,0 -0.02893,0.0133 -0.02893,0.0301 v 0.20745 c 0,0.005 0.002,0.0107 0.0037,0.0133 h -0.0037 c 0,0.13359 0.07901,0.24797 0.189659,0.29181 0.0032,0.024 0.0232,0.19011 0.0489,0.40806 0.0272,0.23037 0.05024,0.4223 0.05149,0.4275 0.0023,0.0107 0.0027,0.0107 0.0037,0.003 0.0026,-0.016 0.09292,-0.78226 0.09919,-0.83953 0.109534,-0.0445 0.188299,-0.15811 0.188299,-0.2909 h -0.0037 c 0.0018,-0.003 0.0037,-0.008 0.0037,-0.0133 v -0.20745 c 0,-0.016 -0.01306,-0.0301 -0.02882,-0.0301 z m 1.108123,0 c -0.01573,0 -0.02893,0.0133 -0.02893,0.0301 v 0.20745 c 0,0.005 0.002,0.0107 0.0037,0.0133 h -0.0037 c 0,0.13359 0.07892,0.24797 0.18958,0.29181 0.0032,0.024 0.0232,0.19011 0.04901,0.40806 0.0272,0.23037 0.05023,0.4223 0.05149,0.4275 0.0023,0.0107 0.0027,0.0107 0.0037,0.003 0.0026,-0.016 0.09282,-0.78226 0.09911,-0.83953 0.10956,-0.0445 0.188378,-0.15811 0.188378,-0.2909 h -0.0037 c 0.0018,-0.003 0.0037,-0.008 0.0037,-0.0133 v -0.20745 c 0,-0.016 -0.01333,-0.0301 -0.02893,-0.0301 z m 1.108032,0 c -0.01573,0 -0.02882,0.0133 -0.02882,0.0301 v 0.20745 c 0,0.005 0.002,0.0107 0.0037,0.0133 h -0.0037 c 0,0.13359 0.07892,0.24797 0.189579,0.29181 0.0032,0.024 0.0232,0.19011 0.04901,0.40806 0.0272,0.23037 0.05013,0.4223 0.05138,0.4275 0.0023,0.0107 0.0027,0.0107 0.0037,0.003 0.0026,-0.016 0.09292,-0.78226 0.09919,-0.83953 0.109534,-0.0445 0.188378,-0.15811 0.188378,-0.2909 h -0.0037 c 0.0018,-0.003 0.0037,-0.008 0.0037,-0.0133 v -0.20745 c 0,-0.016 -0.01333,-0.0301 -0.02893,-0.0301 z m 1.108492,0 c -0.01573,0 -0.02882,0.0133 -0.02882,0.0301 v 0.20745 c 0,0.005 0.002,0.0107 0.0037,0.0133 h -0.0037 c 0,0.13359 0.07892,0.24797 0.189579,0.29181 0.0032,0.024 0.0232,0.19011 0.04901,0.40806 0.0272,0.23037 0.05013,0.4223 0.05138,0.4275 0.0023,0.0107 0.0027,0.0107 0.0037,0.003 0.0026,-0.016 0.09292,-0.78226 0.09919,-0.83953 0.109561,-0.0445 0.188378,-0.15811 0.188378,-0.2909 h -0.0037 c 0.0018,-0.003 0.0037,-0.008 0.0037,-0.0133 v -0.20745 c 0,-0.016 -0.01333,-0.0301 -0.02893,-0.0301 z m 1.10812,0 c -0.01573,0 -0.02893,0.0133 -0.02893,0.0301 v 0.20745 c 0,0.005 0.002,0.0107 0.0037,0.0133 h -0.0037 c 0,0.13359 0.079,0.24797 0.189658,0.29181 0.0032,0.024 0.0232,0.19011 0.0489,0.40806 0.0272,0.23037 0.05023,0.4223 0.05149,0.4275 0.0023,0.0107 0.0027,0.0107 0.0037,0.003 0.0026,-0.016 0.09292,-0.78226 0.09919,-0.83953 0.109562,-0.0445 0.188301,-0.15811 0.188301,-0.2909 h -0.0037 c 0.0018,-0.003 0.0037,-0.008 0.0037,-0.0133 v -0.20745 c 0,-0.016 -0.01307,-0.0301 -0.02882,-0.0301 z m 1.108033,0 c -0.01573,0 -0.02882,0.0133 -0.02882,0.0301 v 0.20745 c 0,0.005 0.002,0.0107 0.0037,0.0133 h -0.0037 c 0,0.13359 0.07892,0.24797 0.189578,0.29181 0.0032,0.024 0.0232,0.19011 0.04901,0.40806 0.0272,0.23037 0.05024,0.4223 0.05149,0.4275 0.0023,0.0107 0.0027,0.0107 0.0037,0.003 0.0026,-0.016 0.09282,-0.78226 0.09911,-0.83953 0.109534,-0.0445 0.188378,-0.15811 0.188378,-0.2909 h -0.0037 c 0.0018,-0.003 0.0037,-0.008 0.0037,-0.0133 v -0.20745 c 0,-0.016 -0.01333,-0.0301 -0.02893,-0.0301 H 14.94163 Z"
     style="fill:url(#oomox);stroke-width:0.0379521" />
   <metadata
     id="metadata24">
    <rdf:RDF>
      <cc:Work
         rdf:about="">
        <dc:creator>
          <cc:Agent>
            <dc:title>dreifacherspass</dc:title>
          </cc:Agent>
        </dc:creator>
        <cc:license
           rdf:resource="http://creativecommons.org/licenses/by-sa/4.0/" />
      </cc:Work>
      <cc:License
         rdf:about="http://creativecommons.org/licenses/by-sa/4.0/">
        <cc:permits
           rdf:resource="http://creativecommons.org/ns#Reproduction" />
        <cc:permits
           rdf:resource="http://creativecommons.org/ns#Distribution" />
        <cc:requires
           rdf:resource="http://creativecommons.org/ns#Notice" />
        <cc:requires
           rdf:resource="http://creativecommons.org/ns#Attribution" />
        <cc:permits
           rdf:resource="http://creativecommons.org/ns#DerivativeWorks" />
        <cc:requires
           rdf:resource="http://creativecommons.org/ns#ShareAlike" />
      </cc:License>
    </rdf:RDF>
  </metadata>
</svg>
