<?xml version="1.0" encoding="UTF-8" standalone="no"?>
<svg
   width="16"
   height="16"
   version="1.1"
   id="svg15"
   xmlns="http://www.w3.org/2000/svg"
   xmlns:svg="http://www.w3.org/2000/svg"
   xmlns:rdf="http://www.w3.org/1999/02/22-rdf-syntax-ns#"
   xmlns:cc="http://creativecommons.org/ns#"
   xmlns:dc="http://purl.org/dc/elements/1.1/">
  <defs>
    <style id="current-color-scheme" type="text/css">
      .ColorScheme-Text { color: #0abdc6; } .ColorScheme-Highlight { color:#5294e2; }
    </style>
    <linearGradient id="arrongin" x1="0%" x2="0%" y1="0%" y2="100%">
      <stop offset="0%" style="stop-color:#dd9b44; stop-opacity:1"/>
      <stop offset="100%" style="stop-color:#ad6c16; stop-opacity:1"/>
    </linearGradient>
    <linearGradient id="aurora" x1="0%" x2="0%" y1="0%" y2="100%">
      <stop offset="0%" style="stop-color:#09D4DF; stop-opacity:1"/>
      <stop offset="100%" style="stop-color:#9269F4; stop-opacity:1"/>
    </linearGradient>
    <linearGradient id="cyberneon" x1="0%" x2="0%" y1="0%" y2="100%">
      <stop offset="0" style="stop-color:#0abdc6; stop-opacity:1"/>
      <stop offset="1" style="stop-color:#ea00d9; stop-opacity:1"/>
    </linearGradient>
    <linearGradient id="fitdance" x1="0%" x2="0%" y1="0%" y2="100%">
      <stop offset="0%" style="stop-color:#1AD6AB; stop-opacity:1"/>
      <stop offset="100%" style="stop-color:#329DB6; stop-opacity:1"/>
    </linearGradient>
    <linearGradient id="oomox" x1="0%" x2="0%" y1="0%" y2="100%">
      <stop offset="0%" style="stop-color:#0abdc6; stop-opacity:1"/>
      <stop offset="100%" style="stop-color:#b800ff; stop-opacity:1"/>
    </linearGradient>
    <linearGradient id="rainblue" x1="0%" x2="0%" y1="0%" y2="100%">
      <stop offset="0%" style="stop-color:#00F260; stop-opacity:1"/>
      <stop offset="100%" style="stop-color:#0575E6; stop-opacity:1"/>
    </linearGradient>
    <linearGradient id="sunrise" x1="0%" x2="0%" y1="0%" y2="100%">
      <stop offset="0%" style="stop-color: #FF8501; stop-opacity:1"/>
      <stop offset="100%" style="stop-color: #FFCB01; stop-opacity:1"/>
    </linearGradient>
    <linearGradient id="telinkrin" x1="0%" x2="0%" y1="0%" y2="100%">
      <stop offset="0%" style="stop-color: #b2ced6; stop-opacity:1"/>
      <stop offset="100%" style="stop-color: #6da5b7; stop-opacity:1"/>
    </linearGradient>
    <linearGradient id="60spsycho" x1="0%" x2="0%" y1="0%" y2="100%">
      <stop offset="0%" style="stop-color: #df5940; stop-opacity:1"/>
      <stop offset="25%" style="stop-color: #d8d15f; stop-opacity:1"/>
      <stop offset="50%" style="stop-color: #e9882a; stop-opacity:1"/>
      <stop offset="100%" style="stop-color: #279362; stop-opacity:1"/>
    </linearGradient>
    <linearGradient id="90ssummer" x1="0%" x2="0%" y1="0%" y2="100%">
      <stop offset="0%" style="stop-color: #f618c7; stop-opacity:1"/>
      <stop offset="20%" style="stop-color: #94ffab; stop-opacity:1"/>
      <stop offset="50%" style="stop-color: #fbfd54; stop-opacity:1"/>
      <stop offset="100%" style="stop-color: #0f83ae; stop-opacity:1"/>
    </linearGradient>
  </defs>
  <path
     id="path3"
     style="display:inline;fill:url(#oomox);stroke-width:0.571416"
     class="ColorScheme-Text"
     d="M 4.3925781 2.9082031 C 4.0690199 2.9058032 3.744289 2.9593309 3.4472656 3.0664062 C 2.3647563 3.4806421 1.8840267 4.6294993 1.8730469 5.7929688 C 1.8729363 5.8046872 1.8730612 5.8164029 1.8730469 5.828125 C 1.873063 5.8165004 1.8748903 5.8045909 1.875 5.7929688 L 2.4765625 6.3632812 C 2.500952 5.5467303 2.7370805 4.7441093 3.5195312 4.4472656 C 4.2879098 4.064337 5.2118344 4.5007189 5.6054688 5.2148438 C 6.350607 6.5470675 6.6635806 8.0266057 6.9941406 9.4921875 C 7.2177974 9.030369 7.640625 8.1699219 7.640625 8.1699219 C 7.3873087 6.6850376 7.0167954 5.1298382 6.203125 3.8242188 C 5.8110178 3.1981002 5.1044117 2.9135464 4.3925781 2.9082031 z M 10.201172 6.1738281 L 8.6484375 6.3867188 C 8.1828208 7.411563 7.7252394 8.4398706 7.2480469 9.4589844 C 6.589889 10.989438 5.7240865 12.456426 5.3535156 14.09375 C 5.1863502 14.800276 5.2865561 15.79992 6.1523438 15.964844 C 6.6100219 16.064934 7.1277564 15.948883 7.4804688 15.634766 C 8.0674643 14.959362 8.0981895 13.997083 8.1640625 13.146484 C 8.1622325 12.87827 8.1546522 12.520231 8.1445312 12.144531 L 7.328125 12.855469 C 7.315062 12.982806 7.2996899 13.108409 7.2792969 13.234375 C 7.2073589 13.706972 6.8644051 15.263937 6.359375 14.574219 C 5.8980931 13.944239 6.5687739 13.071894 6.828125 12.378906 C 7.7852053 10.223702 8.948602 8.1706578 10.201172 6.1738281 z M 8.0800781 10.195312 L 7.453125 11.46875 L 7.328125 12.853516 L 8.1445312 12.142578 L 8.0800781 10.195312 z " />
  <path
     id="path4"
     class="ColorScheme-Text"
     style="display:inline;fill:url(#oomox);stroke-width:0.571416;opacity:1"
     d="M 14.126953 0 L 11.152344 0.9765625 L 10.333984 2.8222656 L 12.429688 2.7363281 L 12.429688 2.734375 L 14.126953 0 z " />
  <path
     id="path7"
     class="ColorScheme-Text"
     style="fill:url(#oomox);stroke-width:0.571416;opacity:1"
     d="M 12.429688 2.7363281 L 10.333984 2.8222656 L 9.46875 4.6132812 L 11.361328 4.3886719 L 12.429688 2.7363281 z " />
  <path
     id="path9"
     class="ColorScheme-Text"
     style="fill:url(#oomox);stroke-width:0.571416;opacity:1"
     d="M 11.361328 4.3886719 L 9.46875 4.6132812 L 8.6503906 6.3867188 L 10.201172 6.1738281 L 11.361328 4.3886719 z " />
  <metadata
     id="metadata15">
    <rdf:RDF>
      <cc:Work
         rdf:about="">
        <dc:creator>
          <cc:Agent>
            <dc:title>dreifacherspass</dc:title>
          </cc:Agent>
        </dc:creator>
        <cc:license
           rdf:resource="http://creativecommons.org/licenses/by-sa/4.0/" />
      </cc:Work>
      <cc:License
         rdf:about="http://creativecommons.org/licenses/by-sa/4.0/">
        <cc:permits
           rdf:resource="http://creativecommons.org/ns#Reproduction" />
        <cc:permits
           rdf:resource="http://creativecommons.org/ns#Distribution" />
        <cc:requires
           rdf:resource="http://creativecommons.org/ns#Notice" />
        <cc:requires
           rdf:resource="http://creativecommons.org/ns#Attribution" />
        <cc:permits
           rdf:resource="http://creativecommons.org/ns#DerivativeWorks" />
        <cc:requires
           rdf:resource="http://creativecommons.org/ns#ShareAlike" />
      </cc:License>
    </rdf:RDF>
  </metadata>
</svg>
