<?xml version="1.0" encoding="UTF-8" standalone="no"?>
<!-- Uploaded to: SVG Repo, www.svgrepo.com, Generator: SVG Repo Mixer Tools -->

<svg
   fill="#000000"
   width="16"
   height="16"
   viewBox="0 0 0.64 0.64"
   version="1.1"
   id="svg1"
   xmlns="http://www.w3.org/2000/svg"
   xmlns:svg="http://www.w3.org/2000/svg"
   xmlns:rdf="http://www.w3.org/1999/02/22-rdf-syntax-ns#"
   xmlns:cc="http://creativecommons.org/ns#"
   xmlns:dc="http://purl.org/dc/elements/1.1/"
   xmlns:sketch="http://www.bohemiancoding.com/sketch/ns">
  <defs>
    <style id="current-color-scheme" type="text/css">
      .ColorScheme-Text { color: #0abdc6; } .ColorScheme-Highlight { color:#5294e2; }
    </style>
    <linearGradient id="arrongin" x1="0%" x2="0%" y1="0%" y2="100%">
      <stop offset="0%" style="stop-color:#dd9b44; stop-opacity:1"/>
      <stop offset="100%" style="stop-color:#ad6c16; stop-opacity:1"/>
    </linearGradient>
    <linearGradient id="aurora" x1="0%" x2="0%" y1="0%" y2="100%">
      <stop offset="0%" style="stop-color:#09D4DF; stop-opacity:1"/>
      <stop offset="100%" style="stop-color:#9269F4; stop-opacity:1"/>
    </linearGradient>
    <linearGradient id="cyberneon" x1="0%" x2="0%" y1="0%" y2="100%">
      <stop offset="0" style="stop-color:#0abdc6; stop-opacity:1"/>
      <stop offset="1" style="stop-color:#ea00d9; stop-opacity:1"/>
    </linearGradient>
    <linearGradient id="fitdance" x1="0%" x2="0%" y1="0%" y2="100%">
      <stop offset="0%" style="stop-color:#1AD6AB; stop-opacity:1"/>
      <stop offset="100%" style="stop-color:#329DB6; stop-opacity:1"/>
    </linearGradient>
    <linearGradient id="oomox" x1="0%" x2="0%" y1="0%" y2="100%">
      <stop offset="0%" style="stop-color:#0abdc6; stop-opacity:1"/>
      <stop offset="100%" style="stop-color:#b800ff; stop-opacity:1"/>
    </linearGradient>
    <linearGradient id="rainblue" x1="0%" x2="0%" y1="0%" y2="100%">
      <stop offset="0%" style="stop-color:#00F260; stop-opacity:1"/>
      <stop offset="100%" style="stop-color:#0575E6; stop-opacity:1"/>
    </linearGradient>
    <linearGradient id="sunrise" x1="0%" x2="0%" y1="0%" y2="100%">
      <stop offset="0%" style="stop-color: #FF8501; stop-opacity:1"/>
      <stop offset="100%" style="stop-color: #FFCB01; stop-opacity:1"/>
    </linearGradient>
    <linearGradient id="telinkrin" x1="0%" x2="0%" y1="0%" y2="100%">
      <stop offset="0%" style="stop-color: #b2ced6; stop-opacity:1"/>
      <stop offset="100%" style="stop-color: #6da5b7; stop-opacity:1"/>
    </linearGradient>
    <linearGradient id="60spsycho" x1="0%" x2="0%" y1="0%" y2="100%">
      <stop offset="0%" style="stop-color: #df5940; stop-opacity:1"/>
      <stop offset="25%" style="stop-color: #d8d15f; stop-opacity:1"/>
      <stop offset="50%" style="stop-color: #e9882a; stop-opacity:1"/>
      <stop offset="100%" style="stop-color: #279362; stop-opacity:1"/>
    </linearGradient>
    <linearGradient id="90ssummer" x1="0%" x2="0%" y1="0%" y2="100%">
      <stop offset="0%" style="stop-color: #f618c7; stop-opacity:1"/>
      <stop offset="20%" style="stop-color: #94ffab; stop-opacity:1"/>
      <stop offset="50%" style="stop-color: #fbfd54; stop-opacity:1"/>
      <stop offset="100%" style="stop-color: #0f83ae; stop-opacity:1"/>
    </linearGradient>
  </defs>
  <path
     d="M 0.17920004,0 C 0.0616807,0 0,0.09268515 0,0.177012 0,0.27162261 0.08804651,0.33111528 0.08804651,0.48583121 h 0.08916241 c 0,0 0.0837361,3.9383e-4 0.0862742,3.9383e-4 0.002538,-0.15585359 0.0892281,-0.21716253 0.0892281,-0.30995697 C 0.35273305,0.0970831 0.29671937,0 0.17920004,0 Z m 0.0731679,0.50871805 H 0.0992055 c -0.006039,0 -0.01094016,0.004902 -0.01094016,0.0109389 0,0.006039 0.0049011,0.0109414 0.01094016,0.0109414 h 0.15316242 c 0.006017,0 0.0109402,-0.004902 0.0109402,-0.0109414 0,-0.006039 -0.004923,-0.0109389 -0.0109402,-0.0109389 z m 0,0.0437606 H 0.0992055 c -0.006039,0 -0.01094016,0.004902 -0.01094016,0.0109414 0,0.006039 0.0049011,0.0109389 0.01094016,0.0109389 h 0.15316242 c 0.006017,0 0.0109402,-0.004902 0.0109402,-0.0109389 0,-0.006039 -0.004923,-0.0109414 -0.0109402,-0.0109414 z m -0.14222226,0.0437606 c 0,0 0,0.009782 0,0.0218803 0,0.0120781 0.00978,0.0218803 0.0218803,0.0218803 h 0.0878277 c 0.0120998,0 0.0218803,-0.009802 0.0218803,-0.0218803 0,-0.0120986 0,-0.0218803 0,-0.0218803 z"
     id="path_lamp"
     class="ColorScheme-Text"
     style="stroke-width:0.0218803;fill:url(#oomox);opacity:0.5" />
  <metadata
     id="metadata1">
    <rdf:RDF>
      <cc:Work
         rdf:about="">
        <dc:creator>
          <cc:Agent>
            <dc:title>dreifacherspass</dc:title>
          </cc:Agent>
        </dc:creator>
        <cc:license
           rdf:resource="http://creativecommons.org/licenses/by-sa/4.0/" />
      </cc:Work>
      <cc:License
         rdf:about="http://creativecommons.org/licenses/by-sa/4.0/">
        <cc:permits
           rdf:resource="http://creativecommons.org/ns#Reproduction" />
        <cc:permits
           rdf:resource="http://creativecommons.org/ns#Distribution" />
        <cc:requires
           rdf:resource="http://creativecommons.org/ns#Notice" />
        <cc:requires
           rdf:resource="http://creativecommons.org/ns#Attribution" />
        <cc:permits
           rdf:resource="http://creativecommons.org/ns#DerivativeWorks" />
        <cc:requires
           rdf:resource="http://creativecommons.org/ns#ShareAlike" />
      </cc:License>
    </rdf:RDF>
  </metadata>
  <path
     d="m 0.49892882,0.21864724 c -0.041063,0.0711231 -0.12213298,0.10491105 -0.20007116,0.090768 0.014366,0.0169496 0.0316957,0.0319213 0.0521153,0.0437106 0.0932056,0.0538123 0.21139834,0.0235909 0.26398282,-0.0674881 0.0525907,-0.0910898 0.0196606,-0.20854762 -0.073545,-0.26235989 C 0.52098948,0.01148761 0.49934888,0.00398257 0.47749868,0 c 0.0512186,0.06042793 0.0624973,0.14751683 0.0214282,0.21865071"
     id="path_moon"
     sketch:type="MSShapeGroup"
     class="ColorScheme-Text"
     style="stroke-width:0.0119025;fill:url(#oomox);opacity:0.8" />
</svg>
