<?xml version="1.0" encoding="UTF-8" standalone="no"?>
<!-- Created with Inkscape (http://www.inkscape.org/) -->

<svg
   version="1.0"
   width="16"
   height="16"
   id="svg2"
   xmlns:xlink="http://www.w3.org/1999/xlink"
   xmlns="http://www.w3.org/2000/svg"
   xmlns:svg="http://www.w3.org/2000/svg"
   xmlns:rdf="http://www.w3.org/1999/02/22-rdf-syntax-ns#"
   xmlns:cc="http://creativecommons.org/ns#"
   xmlns:dc="http://purl.org/dc/elements/1.1/">
  <defs>
   <style id="current-color-scheme" type="text/css">
   .ColorScheme-Text { color: #0abdc6; } .ColorScheme-Highlight { color:#5294e2; }
  </style>
  <linearGradient id="arrongin" x1="0%" x2="0%" y1="0%" y2="100%">
   <stop offset="0%" style="stop-color:#dd9b44; stop-opacity:1"/>
   <stop offset="100%" style="stop-color:#ad6c16; stop-opacity:1"/>
  </linearGradient>
  <linearGradient id="aurora" x1="0%" x2="0%" y1="0%" y2="100%">
   <stop offset="0%" style="stop-color:#09D4DF; stop-opacity:1"/>
   <stop offset="100%" style="stop-color:#9269F4; stop-opacity:1"/>
  </linearGradient>
  <linearGradient id="cyberneon" x1="0%" x2="0%" y1="0%" y2="100%">
    <stop offset="0" style="stop-color:#0abdc6; stop-opacity:1"/>
    <stop offset="1" style="stop-color:#ea00d9; stop-opacity:1"/>
  </linearGradient>
  <linearGradient id="fitdance" x1="0%" x2="0%" y1="0%" y2="100%">
   <stop offset="0%" style="stop-color:#1AD6AB; stop-opacity:1"/>
   <stop offset="100%" style="stop-color:#329DB6; stop-opacity:1"/>
  </linearGradient>
  <linearGradient id="oomox" x1="0%" x2="0%" y1="0%" y2="100%">
   <stop offset="0%" style="stop-color:#0abdc6; stop-opacity:1"/>
   <stop offset="100%" style="stop-color:#b800ff; stop-opacity:1"/>
  </linearGradient>
  <linearGradient id="rainblue" x1="0%" x2="0%" y1="0%" y2="100%">
   <stop offset="0%" style="stop-color:#00F260; stop-opacity:1"/>
   <stop offset="100%" style="stop-color:#0575E6; stop-opacity:1"/>
  </linearGradient>
  <linearGradient id="sunrise" x1="0%" x2="0%" y1="0%" y2="100%">
   <stop offset="0%" style="stop-color: #FF8501; stop-opacity:1"/>
   <stop offset="100%" style="stop-color: #FFCB01; stop-opacity:1"/>
  </linearGradient>
  <linearGradient id="telinkrin" x1="0%" x2="0%" y1="0%" y2="100%">
   <stop offset="0%" style="stop-color: #b2ced6; stop-opacity:1"/>
   <stop offset="100%" style="stop-color: #6da5b7; stop-opacity:1"/>
  </linearGradient>
  <linearGradient id="60spsycho" x1="0%" x2="0%" y1="0%" y2="100%">
   <stop offset="0%" style="stop-color: #df5940; stop-opacity:1"/>
   <stop offset="25%" style="stop-color: #d8d15f; stop-opacity:1"/>
   <stop offset="50%" style="stop-color: #e9882a; stop-opacity:1"/>
   <stop offset="100%" style="stop-color: #279362; stop-opacity:1"/>
  </linearGradient>
  <linearGradient id="90ssummer" x1="0%" x2="0%" y1="0%" y2="100%">
   <stop offset="0%" style="stop-color: #f618c7; stop-opacity:1"/>
   <stop offset="20%" style="stop-color: #94ffab; stop-opacity:1"/>
   <stop offset="50%" style="stop-color: #fbfd54; stop-opacity:1"/>
   <stop offset="100%" style="stop-color: #0f83ae; stop-opacity:1"/>
  </linearGradient>
 </defs>
  <metadata
     id="metadata7">
    <rdf:RDF>
      <cc:Work
         rdf:about="">
        <dc:format>image/svg+xml</dc:format>
        <dc:type
           rdf:resource="http://purl.org/dc/dcmitype/StillImage" />
        <dc:creator>
          <cc:Agent>
            <dc:title>dreifacherspass</dc:title>
          </cc:Agent>
        </dc:creator>
        <cc:license
           rdf:resource="http://creativecommons.org/licenses/by-sa/4.0/" />
      </cc:Work>
      <cc:License
         rdf:about="http://creativecommons.org/licenses/by-sa/4.0/">
        <cc:permits
           rdf:resource="http://creativecommons.org/ns#Reproduction" />
        <cc:permits
           rdf:resource="http://creativecommons.org/ns#Distribution" />
        <cc:requires
           rdf:resource="http://creativecommons.org/ns#Notice" />
        <cc:requires
           rdf:resource="http://creativecommons.org/ns#Attribution" />
        <cc:permits
           rdf:resource="http://creativecommons.org/ns#DerivativeWorks" />
        <cc:requires
           rdf:resource="http://creativecommons.org/ns#ShareAlike" />
      </cc:License>
    </rdf:RDF>
  </metadata>
  <path
     d="m 197.89974,8.0000086 c -0.009,1.1270345 -0.85233,2.5778824 -1.88883,4.2710614 -0.80301,1.311774 -1.51366,1.822433 -3.4995,3.404449 -1.71873,1.369227 -3.94281,2.379555 -6.77351,3.792563 -2.57702,1.286375 -5.62493,2.23274 -9.17481,3.427902 -6.53585,2.200466 -14.64759,3.78129 -24.17095,5.11957 -8.97785,1.26162 -18.33506,1.635803 -29.04528,1.59383 -10.61406,-0.0416 -21.324,-0.485203 -30.370458,-1.835142 C 83.591287,26.373768 75.499203,25.282446 68.920382,23.002459 65.432319,21.79362 62.412116,21.048554 59.843989,19.739592 57.09436,18.338119 54.906869,16.925882 53.205682,15.553541 51.326651,14.037734 50.088386,12.788059 49.297899,11.505506 48.38693,10.02747 48.047848,9.1546447 47.999995,8.0000086 c -0.05708,-1.3772081 0.289101,-2.746259 1.003236,-4.1261109 0.814145,-1.5730905 2.094093,-3.13153599 3.730981,-4.62988324 1.816503,-1.66275926 4.053937,-3.23524406 6.562295,-4.68035436 2.687846,-1.5485159 5.746459,-2.9857877 9.087822,-4.2792244 2.655605,-1.0279817 5.926042,-1.2258937 9.04245,-2.0941167 5.022771,-1.39933 9.956757,-2.375448 15.277022,-3.245033 9.190539,-1.502174 19.138879,-2.053942 29.584249,-2.088041 l 0.37861,0.0335 c 10.76285,-0.01487 20.84308,0.738346 30.01491,2.211264 4.12689,0.662743 8.12637,1.238383 12.25152,2.252542 3.70967,0.912011 8.01224,1.217401 12.08249,2.7367692 3.3289,1.242632 6.43172,2.6297588 9.18568,4.1500592 2.74799,1.5170016 4.97448,3.0704856 6.71353,4.6151977 1.98873,1.76648537 3.17856,3.3769367 3.88636,4.7375413 0.88812,1.7072342 1.00526,2.868665 1.05026,3.4147664 0.0329,0.3991866 0.0483,0.915859 0.0483,0.9911198 z m 4.2005,0 c 0,-0.1590104 0.0151,-0.6533051 -0.0761,-1.319639 -0.12828,-0.9378694 -0.52636,-2.8083868 -1.96941,-5.0186414 -1.11371,-1.70581656 -2.75662,-3.4834063 -5.13023,-5.2716241 -2.06963,-1.5592113 -4.58854,-3.0461878 -7.55205,-4.4439709 -2.97343,-1.4024611 -6.25139,-2.6476652 -9.70539,-3.7441042 -4.22936,-1.342566 -8.43777,-2.372312 -12.21619,-3.169937 -4.19873,-0.886355 -8.44688,-1.584941 -12.61447,-2.132633 -9.18937,-1.207636 -19.45608,-1.870923 -30.16976,-1.885689 l -0.37967,-2.51e-4 c -10.43381,5.83e-4 -20.541,0.62246 -29.800667,1.813414 -5.379255,0.691866 -10.748707,1.611128 -15.8986,2.79992 -3.192794,0.737019 -6.198984,1.532362 -8.988057,2.382062 -3.505826,1.068061 -6.814424,2.266191 -9.803255,3.6149392 -2.779715,1.2543817 -5.423573,2.7023653 -7.70329,4.3788112 -2.035594,1.4969246 -3.919407,3.27790629 -5.285609,5.3792874 -1.216172,1.870618 -2.082536,4.0935571 -2.140847,6.6180514 -0.04975,2.1540818 0.491867,4.4556408 1.846179,6.7930708 1.146772,1.979234 2.836277,3.916005 5.108807,5.782895 2.056783,1.689653 4.592364,3.322897 7.627271,4.873111 2.838457,1.449869 6.11113,2.825536 9.814691,4.096576 6.977955,2.394791 15.434378,4.398635 25.108657,5.779549 9.33347,1.332268 19.63466,2.059671 30.49438,2.018095 10.9594,-0.04196 21.24267,-0.865946 30.45919,-2.259407 9.77187,-1.477425 18.16323,-3.565133 24.99372,-5.973669 3.71241,-1.309052 6.94433,-2.705236 9.71628,-4.148261 3.04261,-1.583929 5.51721,-3.216692 7.49206,-4.856983 2.2851,-1.897981 3.88527,-3.792305 4.95385,-5.631867 1.40679,-2.421783 1.82811,-4.637189 1.81849,-6.4731054 z"
     id="path3580"
     class="ColorScheme-Text"
     style="fill:url(#oomox);fill-opacity:1;display:inline;overflow:visible;visibility:visible;fill-rule:nonzero;stroke:none;stroke-width:9.72911;stroke-linecap:butt;stroke-linejoin:miter;stroke-miterlimit:4;stroke-dasharray:none;stroke-dashoffset:0;stroke-opacity:1;marker:none;enable-background:accumulate"
     transform="matrix(0.06223283,0,0,0.06179526,0.06837599,13.692261)" />
  <path
     d="m 140.46998,-108.80586 a 15.407715,9.9710269 0 1 1 -30.81543,0 15.407715,9.9710269 0 1 1 30.81543,0 z"
     id="path3628"
     class="ColorScheme-Text"
     style="fill:none;fill-opacity:1;display:inline;overflow:visible;visibility:visible;fill-rule:evenodd;stroke:url(#oomox);stroke-width:6.40064px;stroke-linecap:butt;stroke-linejoin:miter;stroke-miterlimit:4;stroke-dasharray:none;stroke-dashoffset:0;stroke-opacity:1;marker:none;enable-background:accumulate"
     transform="matrix(0.06223283,0,0,0.06179526,0.06837599,13.692261)" />
  <path
     d="m 35.291335,-218.78155 c -15.454613,0 -27.9974923,12.4829 -27.9974923,27.86367 0,3.93043 0.9723749,7.57932 2.4497826,10.97129 -4.8670598,4.09008 -8.0492777,10.06124 -8.0492777,16.89242 0,8.37614 4.6797461,15.52169 11.5489624,19.33041 -0.180643,0.98173 -0.349969,1.9271 -0.349969,2.96054 0,2.63717 0.655568,5.09522 1.749843,7.3142 -4.363641,2.36012 -7.3493413,6.90324 -7.3493413,12.19035 0,7.69039 6.2714393,13.93182 13.9987443,13.93182 7.727308,0 13.998748,-6.24143 13.998748,-13.93182 0,-1.27646 -0.201445,-2.4824 -0.524963,-3.65711 6.755464,-2.1659 11.723947,-8.407 11.723947,-15.84744 0,-3.86105 -1.288226,-7.44361 -3.499678,-10.27476 2.208132,-3.45344 3.499678,-7.62242 3.499678,-12.01619 0,-0.77239 -0.272783,-1.51168 -0.34996,-2.26395 10.047599,-4.2318 17.148463,-14.06417 17.148463,-25.59976 0,-15.38077 -12.542874,-27.86367 -27.997487,-27.86367 z"
     id="path18113"
     class="ColorScheme-Text"
     style="fill:none;fill-opacity:1;display:inline;overflow:visible;visibility:visible;stroke:url(#oomox);stroke-width:5.58612px;stroke-linecap:butt;stroke-linejoin:miter;stroke-miterlimit:4;stroke-dasharray:none;stroke-dashoffset:0;stroke-opacity:1;marker:none;enable-background:accumulate"
     transform="matrix(0.06223283,0,0,0.06179526,0.06837599,13.692261)" />
  <path
     d="m 218.66667,-151.99999 c -19.20534,0 -32,15.46133 -32,34.66667 l 8.36896,16.13081 c -1e-5,-15.81615 2.04704,-34.79748 18.2977,-34.79748 16.25066,0 29.33334,12.68384 29.33334,28.5 v 48.333332 c -2.01694,25.120549 -39.38884,30.080149 -59,33.833333 -2.38743,3.49384 -4.94455,6.552198 -7.66667,9.333334 25.99077,-7.042443 74.57723,-7.396886 77.33333,-42.666667 v -58.666662 c 0,-19.20534 -15.46133,-34.66667 -34.66666,-34.66667 z"
     id="rect19335"
     class="ColorScheme-Text"
     style="fill:url(#oomox);fill-opacity:1;display:inline;stroke:url(#oomox);stroke-width:5.33333;stroke-linecap:round;stroke-linejoin:round;stroke-miterlimit:4;stroke-dashoffset:0;stroke-opacity:1"
     transform="matrix(0.06223283,0,0,0.06179526,0.06837599,13.692261)" />
  <path
     id="path2196"
     style="display:inline;overflow:visible;visibility:visible;fill:none;fill-opacity:1;fill-rule:evenodd;stroke:url(#oomox);stroke-width:8.63039;stroke-linecap:butt;stroke-linejoin:miter;stroke-miterlimit:4;stroke-dasharray:none;stroke-dashoffset:0;stroke-opacity:1;marker:none;enable-background:accumulate"
     class="ColorScheme-Text"
     d="m 120.93991,-135.99504 c -40.539014,0 -73.433472,16.68664 -73.433474,37.296218 0,5.419928 -0.819133,16.937953 0.590129,30.439977 C 34.825456,-73.372718 32.918196,-80.966196 31.755363,-94.63229 H 19.663088 C 12.501786,-94.54873 3.9126912,-95.670949 3.9126912,-94.72886 8.8069652,-34.748764 70.535011,0.39603492 120.93991,2.6640472 c 20.2695,0 45.45158,-5.5025261 61.09442,-32.2854752 15.6429,-26.782938 12.33905,-58.772625 12.33906,-69.077397 0,-20.609565 -32.89447,-37.296215 -73.43348,-37.296215 z m 1.72747,5.09658 c 36.79984,0 66.66309,10.80856 66.66309,24.12022 0,13.311643 -29.86325,24.109494 -66.66309,24.109494 -36.799845,0 -66.66309,-10.797851 -66.66309,-24.109494 0,-13.31166 29.863245,-24.12022 66.66309,-24.12022 z"
     transform="matrix(0.06223283,0,0,0.06179526,0.06837599,13.692261)" />
  <path
     d="m 147.26391,-143.50583 c 0,-10.3589 -11.47999,-58.90876 -21.71551,-58.90876 -10.23553,0 -24.35961,48.54986 -24.35961,58.90876 0,10.35889 14.12408,33.77899 24.35961,33.77899 10.23552,0 21.71551,-23.4201 21.71551,-33.77899 z"
     id="path2201"
     class="ColorScheme-Text"
     style="fill:none;fill-opacity:1;display:inline;overflow:visible;visibility:visible;fill-rule:evenodd;stroke:url(#oomox);stroke-width:6.30622px;stroke-linecap:butt;stroke-linejoin:miter;stroke-miterlimit:4;stroke-dashoffset:0;stroke-opacity:1;marker:none;enable-background:accumulate"
     transform="matrix(0.06223283,0,0,0.06179526,0.06837599,13.692261)" />
  <path
     d="M 7.7006691,9.162908 8.7,11.162224 7.7006691,13.162908 6.7,11.162224 Z"
     style="display:inline;overflow:visible;visibility:visible;fill:url(#oomox);fill-opacity:1;fill-rule:evenodd;stroke:none;stroke-width:17.3954;stroke-linecap:butt;stroke-linejoin:miter;stroke-miterlimit:4;stroke-dasharray:none;stroke-dashoffset:0;stroke-opacity:1;marker:none;enable-background:accumulate"
     id="path1"
     class="ColorScheme-Text" />
  <path
     d="M 4.8005347,8.737 5.6,10.311475 4.8005347,11.887 4,10.311475 Z"
     style="display:inline;overflow:visible;visibility:visible;fill:url(#oomox);fill-opacity:1;fill-rule:evenodd;stroke:none;stroke-width:13.8072;stroke-linecap:butt;stroke-linejoin:miter;stroke-miterlimit:4;stroke-dasharray:none;stroke-dashoffset:0;stroke-opacity:1;marker:none;enable-background:accumulate"
     id="path1-2"
     class="ColorScheme-Text"/>
  <path
     d="M 10.60054,8.737 11.4,10.311482 10.60054,11.887001 9.8,10.311482 Z"
     style="display:inline;overflow:visible;visibility:visible;fill:url(#oomox);fill-opacity:1;fill-rule:evenodd;stroke:none;stroke-width:13.8075;stroke-linecap:butt;stroke-linejoin:miter;stroke-miterlimit:4;stroke-dasharray:none;stroke-dashoffset:0;stroke-opacity:1;marker:none;enable-background:accumulate"
     id="path1-2-2"
     class="ColorScheme-Text" />
</svg>
