<?xml version="1.0" encoding="UTF-8" standalone="no"?>
<!-- Created with Inkscape (http://www.inkscape.org/) -->

<svg
   width="16"
   height="16"
   id="svg3832"
   version="1.1"
   xmlns:xlink="http://www.w3.org/1999/xlink"
   xmlns="http://www.w3.org/2000/svg"
   xmlns:svg="http://www.w3.org/2000/svg"
   xmlns:rdf="http://www.w3.org/1999/02/22-rdf-syntax-ns#"
   xmlns:cc="http://creativecommons.org/ns#"
   xmlns:dc="http://purl.org/dc/elements/1.1/">
 <defs>
   <style id="current-color-scheme" type="text/css">
   .ColorScheme-Text { color: #0abdc6; } .ColorScheme-Highlight { color:#5294e2; }
  </style>
  <linearGradient id="arrongin" x1="0%" x2="0%" y1="0%" y2="100%">
   <stop offset="0%" style="stop-color:#dd9b44; stop-opacity:1"/>
   <stop offset="100%" style="stop-color:#ad6c16; stop-opacity:1"/>
  </linearGradient>
  <linearGradient id="aurora" x1="0%" x2="0%" y1="0%" y2="100%">
   <stop offset="0%" style="stop-color:#09D4DF; stop-opacity:1"/>
   <stop offset="100%" style="stop-color:#9269F4; stop-opacity:1"/>
  </linearGradient>
  <linearGradient id="cyberneon" x1="0%" x2="0%" y1="0%" y2="100%">
    <stop offset="0" style="stop-color:#0abdc6; stop-opacity:1"/>
    <stop offset="1" style="stop-color:#ea00d9; stop-opacity:1"/>
  </linearGradient>
  <linearGradient id="fitdance" x1="0%" x2="0%" y1="0%" y2="100%">
   <stop offset="0%" style="stop-color:#1AD6AB; stop-opacity:1"/>
   <stop offset="100%" style="stop-color:#329DB6; stop-opacity:1"/>
  </linearGradient>
  <linearGradient id="oomox" x1="0%" x2="0%" y1="0%" y2="100%">
   <stop offset="0%" style="stop-color:#0abdc6; stop-opacity:1"/>
   <stop offset="100%" style="stop-color:#b800ff; stop-opacity:1"/>
  </linearGradient>
  <linearGradient id="rainblue" x1="0%" x2="0%" y1="0%" y2="100%">
   <stop offset="0%" style="stop-color:#00F260; stop-opacity:1"/>
   <stop offset="100%" style="stop-color:#0575E6; stop-opacity:1"/>
  </linearGradient>
  <linearGradient id="sunrise" x1="0%" x2="0%" y1="0%" y2="100%">
   <stop offset="0%" style="stop-color: #FF8501; stop-opacity:1"/>
   <stop offset="100%" style="stop-color: #FFCB01; stop-opacity:1"/>
  </linearGradient>
  <linearGradient id="telinkrin" x1="0%" x2="0%" y1="0%" y2="100%">
   <stop offset="0%" style="stop-color: #b2ced6; stop-opacity:1"/>
   <stop offset="100%" style="stop-color: #6da5b7; stop-opacity:1"/>
  </linearGradient>
  <linearGradient id="60spsycho" x1="0%" x2="0%" y1="0%" y2="100%">
   <stop offset="0%" style="stop-color: #df5940; stop-opacity:1"/>
   <stop offset="25%" style="stop-color: #d8d15f; stop-opacity:1"/>
   <stop offset="50%" style="stop-color: #e9882a; stop-opacity:1"/>
   <stop offset="100%" style="stop-color: #279362; stop-opacity:1"/>
  </linearGradient>
  <linearGradient id="90ssummer" x1="0%" x2="0%" y1="0%" y2="100%">
   <stop offset="0%" style="stop-color: #f618c7; stop-opacity:1"/>
   <stop offset="20%" style="stop-color: #94ffab; stop-opacity:1"/>
   <stop offset="50%" style="stop-color: #fbfd54; stop-opacity:1"/>
   <stop offset="100%" style="stop-color: #0f83ae; stop-opacity:1"/>
  </linearGradient>
 </defs>
  <metadata
     id="metadata3837">
    <rdf:RDF>
      <cc:Work
         rdf:about="">
        <dc:format>image/svg+xml</dc:format>
        <dc:type
           rdf:resource="http://purl.org/dc/dcmitype/StillImage" />
        <dc:creator>
          <cc:Agent>
            <dc:title>dreifacherspass</dc:title>
          </cc:Agent>
        </dc:creator>
        <cc:license
           rdf:resource="http://creativecommons.org/licenses/by-sa/4.0/" />
      </cc:Work>
      <cc:License
         rdf:about="http://creativecommons.org/licenses/by-sa/4.0/">
        <cc:permits
           rdf:resource="http://creativecommons.org/ns#Reproduction" />
        <cc:permits
           rdf:resource="http://creativecommons.org/ns#Distribution" />
        <cc:requires
           rdf:resource="http://creativecommons.org/ns#Notice" />
        <cc:requires
           rdf:resource="http://creativecommons.org/ns#Attribution" />
        <cc:permits
           rdf:resource="http://creativecommons.org/ns#DerivativeWorks" />
        <cc:requires
           rdf:resource="http://creativecommons.org/ns#ShareAlike" />
      </cc:License>
    </rdf:RDF>
  </metadata>
  <path
     style="display:inline;overflow:visible;visibility:visible;fill:url(#oomox);stroke:#ffffff;stroke-width:0;stroke-linecap:butt;stroke-linejoin:miter;stroke-miterlimit:4;stroke-dasharray:none;stroke-dashoffset:0;stroke-opacity:1;marker:none"
     id="path2777"
     class="ColorScheme-Text"
     d="M 10.378961,3.0764694 7.8388748,6.0210671 5.241797,3.0936557 H 6.5498518 V -1.664425e-7 H 9.1278984 V 3.0936557 l 1.2510626,-0.017185 z" />
  <path
     style="display:inline;overflow:visible;visibility:visible;fill:url(#oomox);fill-opacity:1;stroke:#ffffff;stroke-width:0;stroke-dasharray:none;stroke-opacity:1;marker:none;enable-background:accumulate"
     id="path4243"
     class="ColorScheme-Text"
     d="m 7.5488446,7.202417 c -0.00601,0.027745 -0.016113,0.051664 -0.016113,0.096677 V 8.4753272 A 0.24844872,0.24844872 0 0 1 7.3393785,8.7170189 C 7.010179,8.7919803 6.7008361,8.9269292 6.4209494,9.103726 A 0.24844872,0.24844872 0 0 1 6.1148064,9.0714993 L 5.2769414,8.233634 C 5.2494336,8.206125 5.2338624,8.1994334 5.2124902,8.1852968 L 4.5840915,8.8136955 c 0.014138,0.021373 0.02083,0.036944 0.048338,0.064452 l 0.837865,0.8378643 a 0.24844872,0.24844872 0 0 1 0.032226,0.3061432 c -0.1767962,0.279886 -0.3117451,0.589228 -0.386707,0.918429 A 0.24844872,0.24844872 0 0 1 4.8741217,11.133937 H 3.6978881 c -0.045008,0 -0.068934,0.0101 -0.096677,0.01611 v 0.902316 c 0.027745,0.006 0.051667,0.01612 0.096677,0.01612 h 1.1762336 a 0.24844872,0.24844872 0 0 1 0.2416918,0.193355 c 0.074962,0.329199 0.2099108,0.638542 0.386707,0.918428 a 0.24844872,0.24844872 0 0 1 -0.032226,0.306143 l -0.8378651,0.837865 c -0.027508,0.02751 -0.034201,0.04308 -0.048338,0.06445 l 0.6283987,0.628398 c 0.021372,-0.01414 0.036943,-0.02083 0.064451,-0.04834 l 0.837865,-0.837865 a 0.24844872,0.24844872 0 0 1 0.306143,-0.03223 c 0.2798866,0.176797 0.5892284,0.311745 0.918429,0.386708 a 0.24844872,0.24844872 0 0 1 0.1933534,0.241691 v 1.176234 c 0,0.045 0.010101,0.06893 0.016113,0.09668 h 0.9023161 c 0.00601,-0.02774 0.016113,-0.05167 0.016113,-0.09668 V 14.727081 A 0.24844872,0.24844872 0 0 1 8.6606267,14.48539 c 0.3292008,-0.07496 0.6385427,-0.209911 0.918429,-0.386708 a 0.24844872,0.24844872 0 0 1 0.3061432,0.03223 l 0.8378661,0.837865 c 0.02751,0.02751 0.04308,0.0342 0.06445,0.04834 l 0.628399,-0.628396 c -0.01414,-0.02137 -0.02083,-0.03694 -0.04834,-0.06445 l -0.837866,-0.837867 a 0.24844872,0.24844872 0 0 1 -0.03223,-0.306143 c 0.176795,-0.279886 0.311745,-0.589229 0.386707,-0.918428 a 0.24844872,0.24844872 0 0 1 0.241691,-0.193355 h 1.176233 c 0.045,0 0.06893,-0.0101 0.09668,-0.01611 v -0.902316 c -0.02774,-0.006 -0.05167,-0.01611 -0.09668,-0.01611 h -1.176225 a 0.24844872,0.24844872 0 0 1 -0.241691,-0.193354 c -0.07496,-0.329204 -0.209912,-0.638547 -0.386707,-0.918433 a 0.24844872,0.24844872 0 0 1 0.03223,-0.3061435 l 0.837862,-0.8378643 c 0.02751,-0.027509 0.0342,-0.043081 0.04834,-0.064452 L 10.787516,8.1852968 c -0.02137,0.014137 -0.03694,0.020828 -0.06445,0.048337 L 9.8851993,9.0714993 A 0.24844872,0.24844872 0 0 1 9.5790561,9.103726 C 9.2991698,8.9269292 8.9898264,8.7919803 8.6606271,8.7170189 A 0.24844872,0.24844872 0 0 1 8.4672737,8.4753272 V 7.2990937 c 0,-0.045011 -0.010101,-0.068935 -0.016113,-0.096677 z m 0.4511581,2.7230608 c 0.9238839,0 1.6757306,0.7518472 1.6757306,1.6757302 0,0.923883 -0.7518467,1.67573 -1.6757306,1.67573 -0.9238825,0 -1.67573,-0.751847 -1.67573,-1.67573 0,-0.923883 0.7518475,-1.6757302 1.67573,-1.6757302 z" />
</svg>
