<?xml version="1.0" encoding="UTF-8" standalone="no"?>
<!-- Created with Inkscape (http://www.inkscape.org/) -->

<svg
   width="16"
   height="16"
   viewBox="0 0 16 16"
   version="1.1"
   id="svg8"
   xmlns:xlink="http://www.w3.org/1999/xlink"
   xmlns="http://www.w3.org/2000/svg"
   xmlns:svg="http://www.w3.org/2000/svg"
   xmlns:rdf="http://www.w3.org/1999/02/22-rdf-syntax-ns#"
   xmlns:cc="http://creativecommons.org/ns#"
   xmlns:dc="http://purl.org/dc/elements/1.1/">
  <defs>
   <style id="current-color-scheme" type="text/css">
   .ColorScheme-Text { color: #0abdc6; } .ColorScheme-Highlight { color:#5294e2; }
  </style>
  <linearGradient id="arrongin" x1="0%" x2="0%" y1="0%" y2="100%">
   <stop offset="0%" style="stop-color:#dd9b44; stop-opacity:1"/>
   <stop offset="100%" style="stop-color:#ad6c16; stop-opacity:1"/>
  </linearGradient>
  <linearGradient id="aurora" x1="0%" x2="0%" y1="0%" y2="100%">
   <stop offset="0%" style="stop-color:#09D4DF; stop-opacity:1"/>
   <stop offset="100%" style="stop-color:#9269F4; stop-opacity:1"/>
  </linearGradient>
  <linearGradient id="cyberneon" x1="0%" x2="0%" y1="0%" y2="100%">
    <stop offset="0" style="stop-color:#0abdc6; stop-opacity:1"/>
    <stop offset="1" style="stop-color:#ea00d9; stop-opacity:1"/>
  </linearGradient>
  <linearGradient id="fitdance" x1="0%" x2="0%" y1="0%" y2="100%">
   <stop offset="0%" style="stop-color:#1AD6AB; stop-opacity:1"/>
   <stop offset="100%" style="stop-color:#329DB6; stop-opacity:1"/>
  </linearGradient>
  <linearGradient id="oomox" x1="0%" x2="0%" y1="0%" y2="100%">
   <stop offset="0%" style="stop-color:#0abdc6; stop-opacity:1"/>
   <stop offset="100%" style="stop-color:#b800ff; stop-opacity:1"/>
  </linearGradient>
  <linearGradient id="rainblue" x1="0%" x2="0%" y1="0%" y2="100%">
   <stop offset="0%" style="stop-color:#00F260; stop-opacity:1"/>
   <stop offset="100%" style="stop-color:#0575E6; stop-opacity:1"/>
  </linearGradient>
  <linearGradient id="sunrise" x1="0%" x2="0%" y1="0%" y2="100%">
   <stop offset="0%" style="stop-color: #FF8501; stop-opacity:1"/>
   <stop offset="100%" style="stop-color: #FFCB01; stop-opacity:1"/>
  </linearGradient>
  <linearGradient id="telinkrin" x1="0%" x2="0%" y1="0%" y2="100%">
   <stop offset="0%" style="stop-color: #b2ced6; stop-opacity:1"/>
   <stop offset="100%" style="stop-color: #6da5b7; stop-opacity:1"/>
  </linearGradient>
  <linearGradient id="60spsycho" x1="0%" x2="0%" y1="0%" y2="100%">
   <stop offset="0%" style="stop-color: #df5940; stop-opacity:1"/>
   <stop offset="25%" style="stop-color: #d8d15f; stop-opacity:1"/>
   <stop offset="50%" style="stop-color: #e9882a; stop-opacity:1"/>
   <stop offset="100%" style="stop-color: #279362; stop-opacity:1"/>
  </linearGradient>
  <linearGradient id="90ssummer" x1="0%" x2="0%" y1="0%" y2="100%">
   <stop offset="0%" style="stop-color: #f618c7; stop-opacity:1"/>
   <stop offset="20%" style="stop-color: #94ffab; stop-opacity:1"/>
   <stop offset="50%" style="stop-color: #fbfd54; stop-opacity:1"/>
   <stop offset="100%" style="stop-color: #0f83ae; stop-opacity:1"/>
  </linearGradient>
 </defs>
  <metadata
     id="metadata5">
    <rdf:RDF>
      <cc:Work
         rdf:about="">
        <dc:format>image/svg+xml</dc:format>
        <dc:type
           rdf:resource="http://purl.org/dc/dcmitype/StillImage" />
        <dc:creator>
          <cc:Agent>
            <dc:title>dreifacherspass</dc:title>
          </cc:Agent>
        </dc:creator>
        <cc:license
           rdf:resource="http://creativecommons.org/licenses/by-sa/4.0/" />
      </cc:Work>
      <cc:License
         rdf:about="http://creativecommons.org/licenses/by-sa/4.0/">
        <cc:permits
           rdf:resource="http://creativecommons.org/ns#Reproduction" />
        <cc:permits
           rdf:resource="http://creativecommons.org/ns#Distribution" />
        <cc:requires
           rdf:resource="http://creativecommons.org/ns#Notice" />
        <cc:requires
           rdf:resource="http://creativecommons.org/ns#Attribution" />
        <cc:permits
           rdf:resource="http://creativecommons.org/ns#DerivativeWorks" />
        <cc:requires
           rdf:resource="http://creativecommons.org/ns#ShareAlike" />
      </cc:License>
    </rdf:RDF>
  </metadata>
  <path
     style="fill:url(#oomox);fill-opacity:0.2;stroke:url(#oomox);stroke-width:0.163272px;stroke-linecap:butt;stroke-linejoin:miter;stroke-opacity:1"
     d="M 15.988111,11.014306 C 10.828957,10.223598 10.532445,11.122045 8.198274,10.787607 6.3170499,10.518066 2.1923558,10.962756 0.56257504,10.878286 -0.24556172,9.7976617 0.14382037,6.0267763 0.43760465,5.0319756 5.0753107,5.6096277 4.1484179,4.9424382 8.1993719,5.1902561 13.772404,5.5311863 10.033255,4.9866359 15.988111,4.9866359"
     id="path10"
     class="ColorScheme-Text"/>
  <path
     id="path4493"
     class="ColorScheme-Text"
     style="font-style:normal;font-variant:normal;font-weight:normal;font-stretch:normal;font-size:medium;line-height:1.25;font-family:FreeSans;-inkscape-font-specification:FreeSans;letter-spacing:0px;word-spacing:0px;fill:url(#oomox);fill-opacity:1;stroke:none;stroke-width:0.116613"
     d="M 1.0789737,6.2930848 V 9.6935687 H 3.1919395 V 9.3110606 H 1.5126643 V 6.2930848 Z m 12.4333643,0 v 3.4004839 h 0.387133 V 8.345461 c 0,-0.4991029 0.261346,-0.8256063 0.662495,-0.8256063 0.200573,0 0.503686,0.098077 0.503686,0.4805675 v 1.6931465 h 0.387133 V 7.8463981 c 0,-0.4104757 -0.293862,-0.6669585 -0.769642,-0.6669585 -0.345173,0 -0.55511,0.1072597 -0.783672,0.4057874 V 6.2930848 Z M 4.5563107,7.1794396 c -0.438464,0 -0.9563078,0.1305602 -0.9796303,0.7929202 h 0.3919158 c 0.032652,-0.2985285 0.2098516,-0.4338497 0.5736834,-0.4338497 0.3498382,0 0.5457803,0.1306279 0.5457803,0.3638535 v 0.1026823 c 0,0.1632579 -0.09793,0.2332615 -0.4057875,0.270578 -0.7136701,0.093291 -1.2127391,0.1491366 -1.2127391,0.8021687 0,0.4431285 0.3077299,0.7230831 0.802168,0.7230831 0.3078577,0 0.5551836,-0.1073462 0.8303898,-0.3592296 0.027987,0.2472187 0.1492802,0.3592296 0.4011637,0.3592296 0.079297,0 0.1398531,-0.00928 0.2657949,-0.041934 V 9.4650846 c -0.041981,0.00933 -0.060546,0.00925 -0.083868,0.00925 -0.1352707,0 -0.2099891,-0.069897 -0.2099891,-0.1911749 V 7.8463981 c 0,-0.4337983 -0.31716,-0.6669585 -0.9188819,-0.6669585 z m 5.2620049,0 c -0.3638314,0 -0.5971671,0.1398986 -0.8117347,0.4804083 V 7.2494358 H 8.6475113 V 9.6935687 H 9.0392679 V 8.345461 c 0,-0.4991029 0.2611865,-0.8256063 0.6623346,-0.8256063 0.3078565,0 0.5038455,0.1867028 0.5038455,0.4805675 v 1.6931465 h 0.387133 V 7.8463981 c 0,-0.4058119 -0.303149,-0.6669585 -0.7742654,-0.6669585 z m 2.2813394,0 c -0.657696,0 -1.086777,0.5224524 -1.086777,1.334077 0,0.7883019 0.419792,1.2873591 1.082154,1.2873591 0.583064,0 0.95164,-0.3498871 0.998285,-0.9469441 h -0.391916 c -0.0653,0.3918179 -0.265782,0.5877145 -0.596963,0.5877145 -0.429134,0 -0.685773,-0.3497304 -0.685773,-0.9281295 0,-0.6110518 0.251895,-0.9750065 0.676367,-0.9750065 0.326514,0 0.531821,0.1912394 0.578466,0.531749 h 0.391756 C 13.018608,7.4871954 12.659396,7.1794396 12.099655,7.1794396 Z m -5.9575039,0.069996 v 1.8843215 c 0,0.4058127 0.3031091,0.6671184 0.778889,0.6671184 0.3591674,0 0.5877977,-0.1260294 0.8163587,-0.4478812 V 9.6935687 H 8.0872215 V 7.2494358 H 7.7000887 v 1.3852586 c 0,0.4991029 -0.2613057,0.8256063 -0.6671181,0.8256063 -0.3078577,0 -0.5036869,-0.1865436 -0.5036869,-0.4804074 V 7.2494358 Z M 5.0880599,8.4854543 v 0.4384735 c 0,0.2332255 -0.2705446,0.5363729 -0.732331,0.5363729 -0.3031931,0 -0.4804079,-0.1445379 -0.4804079,-0.3917566 0,-0.5364186 0.8162555,-0.4011749 1.2127389,-0.5830898 z" />
</svg>
