<?xml version="1.0" encoding="UTF-8" standalone="no"?>

<svg
   version="1.1"
   id="Capa_1"
   width="16"
   height="16"
   viewBox="0 0 0.62054 0.62054"
   xml:space="preserve"
   xmlns:xlink="http://www.w3.org/1999/xlink"
   xmlns="http://www.w3.org/2000/svg"
   xmlns:svg="http://www.w3.org/2000/svg"
   xmlns:rdf="http://www.w3.org/1999/02/22-rdf-syntax-ns#"
   xmlns:cc="http://creativecommons.org/ns#"
   xmlns:dc="http://purl.org/dc/elements/1.1/">
  <defs>
   <style id="current-color-scheme" type="text/css">
   .ColorScheme-Text { color: #0abdc6; } .ColorScheme-Highlight { color:#5294e2; }
  </style>
  <linearGradient id="arrongin" x1="0%" x2="0%" y1="0%" y2="100%">
   <stop offset="0%" style="stop-color:#dd9b44; stop-opacity:1"/>
   <stop offset="100%" style="stop-color:#ad6c16; stop-opacity:1"/>
  </linearGradient>
  <linearGradient id="aurora" x1="0%" x2="0%" y1="0%" y2="100%">
   <stop offset="0%" style="stop-color:#09D4DF; stop-opacity:1"/>
   <stop offset="100%" style="stop-color:#9269F4; stop-opacity:1"/>
  </linearGradient>
  <linearGradient id="cyberneon" x1="0%" x2="0%" y1="0%" y2="100%">
    <stop offset="0" style="stop-color:#0abdc6; stop-opacity:1"/>
    <stop offset="1" style="stop-color:#ea00d9; stop-opacity:1"/>
  </linearGradient>
  <linearGradient id="fitdance" x1="0%" x2="0%" y1="0%" y2="100%">
   <stop offset="0%" style="stop-color:#1AD6AB; stop-opacity:1"/>
   <stop offset="100%" style="stop-color:#329DB6; stop-opacity:1"/>
  </linearGradient>
  <linearGradient id="oomox" x1="0%" x2="0%" y1="0%" y2="100%">
   <stop offset="0%" style="stop-color:#0abdc6; stop-opacity:1"/>
   <stop offset="100%" style="stop-color:#b800ff; stop-opacity:1"/>
  </linearGradient>
  <linearGradient id="rainblue" x1="0%" x2="0%" y1="0%" y2="100%">
   <stop offset="0%" style="stop-color:#00F260; stop-opacity:1"/>
   <stop offset="100%" style="stop-color:#0575E6; stop-opacity:1"/>
  </linearGradient>
  <linearGradient id="sunrise" x1="0%" x2="0%" y1="0%" y2="100%">
   <stop offset="0%" style="stop-color: #FF8501; stop-opacity:1"/>
   <stop offset="100%" style="stop-color: #FFCB01; stop-opacity:1"/>
  </linearGradient>
  <linearGradient id="telinkrin" x1="0%" x2="0%" y1="0%" y2="100%">
   <stop offset="0%" style="stop-color: #b2ced6; stop-opacity:1"/>
   <stop offset="100%" style="stop-color: #6da5b7; stop-opacity:1"/>
  </linearGradient>
  <linearGradient id="60spsycho" x1="0%" x2="0%" y1="0%" y2="100%">
   <stop offset="0%" style="stop-color: #df5940; stop-opacity:1"/>
   <stop offset="25%" style="stop-color: #d8d15f; stop-opacity:1"/>
   <stop offset="50%" style="stop-color: #e9882a; stop-opacity:1"/>
   <stop offset="100%" style="stop-color: #279362; stop-opacity:1"/>
  </linearGradient>
  <linearGradient id="90ssummer" x1="0%" x2="0%" y1="0%" y2="100%">
   <stop offset="0%" style="stop-color: #f618c7; stop-opacity:1"/>
   <stop offset="20%" style="stop-color: #94ffab; stop-opacity:1"/>
   <stop offset="50%" style="stop-color: #fbfd54; stop-opacity:1"/>
   <stop offset="100%" style="stop-color: #0f83ae; stop-opacity:1"/>
  </linearGradient>
 </defs>
<path
   d="M 0.46942,0.00546 V 0 H 0.14398 V 0.00546 H 0.11024 V 0.62054 H 0.5103 V 0.00546 Z m -0.2299,0.025 h 0.1479 v 0.0109 h -0.1479 z m 0.07396,0.54318 c -0.04916,0 -0.08916,-0.04 -0.08916,-0.08914 0,-0.04918 0.04,-0.08918 0.08916,-0.08918 0.04916,0 0.08916,0.04 0.08916,0.08918 2e-5,0.04914 -0.03998,0.08914 -0.08916,0.08914 z m 0.1393,-0.2302 H 0.16776 V 0.06968 h 0.285 v 0.27376 z"
   id="path1"
   class="ColorScheme-Text"
   style="stroke-width:0.02;fill:url(#oomox)" />
<path
   d="m 0.31348,0.41032 c -0.04088,0 -0.07416,0.03328 -0.07416,0.07418 0,0.04086 0.03328,0.07414 0.07416,0.07414 0.04088,0 0.07416,-0.03328 0.07416,-0.07414 2e-5,-0.0409 -0.03326,-0.07418 -0.07416,-0.07418 z m -4e-4,0.10418 c -0.01542,0 -0.02792,-0.0125 -0.02792,-0.02792 0,-0.01542 0.0125,-0.02792 0.02792,-0.02792 0.01542,0 0.02792,0.0125 0.02792,0.02792 0,0.01542 -0.0125,0.02792 -0.02792,0.02792 z"
   id="path2"
   class="ColorScheme-Text"
   style="stroke-width:0.02;fill:url(#oomox)" />
<path
   d="m 0.10423485,0.47989999 c 0.001244,-0.003036 0.00158,-0.006465 9.3814e-4,-0.009656 -5.0097e-4,-0.002489 -7.5414e-4,-0.005031 -7.5414e-4,-0.007553 0,-0.002522 2.5355e-4,-0.005065 7.5414e-4,-0.007553 6.4155e-4,-0.003191 3.0771e-4,-0.00662 -9.3814e-4,-0.009656 -0.00659,-0.0160669 -0.02163498,-0.0264514 -0.03833071,-0.0264514 -0.0088481,0 -0.01604744,0.007533 -0.01604744,0.0167924 v 0.003359 H 0.0434378 v 0.0470187 h 0.0064189 v 0.003359 c 0,0.009259 0.0071987,0.0167924 0.01604734,0.0167924 0.01669554,0 0.03174168,-0.0103845 0.03833081,-0.0264521 z"
   id="path1-3"
   class="ColorScheme-Text"
   style="stroke-width:0.00328322;fill:url(#oomox)" />
<path
   d="m 0.5714588,0.50970972 c 0,-0.009259 -0.007199,-0.0167924 -0.0160475,-0.0167924 -0.0166959,0 -0.0317421,0.0103844 -0.0383312,0.0264514 -0.001245,0.003036 -0.001579,0.006465 -9.3718e-4,0.009656 5.0069e-4,0.002489 7.5424e-4,0.005031 7.5424e-4,0.007553 0,0.002522 -2.5355e-4,0.005065 -7.5424e-4,0.007553 -6.4189e-4,0.003191 -3.0811e-4,0.00662 9.3718e-4,0.009656 0.006589,0.016067 0.0216353,0.0264514 0.0383312,0.0264514 0.008848,0 0.0160475,-0.007533 0.0160475,-0.0167924 v -0.003358 h 0.006419 v -0.0470187 h -0.006419 z"
   id="path2-6"
   class="ColorScheme-Text"
   style="stroke-width:0.00328315;fill:url(#oomox)" />
<path
   d="m 0,0.4694081 v 0.0548104 c 0,0.004964 0.00402635,0.009001 0.00897726,0.009001 H 0.01339857 V 0.62054 h 0.0066993 V 0.5332195 h 0.0044223 c 0.0049509,0 0.0089773,-0.004036 0.0089773,-0.009001 V 0.4884843 c 0,-0.001259 0.0010193,-0.002282 0.002276,-0.002282 h 0.0010712 V 0.4391834 H 0.03014528 C 0.01352443,0.4391834 -1.4959199e-6,0.4527416 0,0.4694081 Z"
   id="path3"
   class="ColorScheme-Text"
   style="stroke-width:0.00335415;fill:url(#oomox)" />
<path
   d="M 0.590394,0.5130682 H 0.583695 v 0.0470187 h 0.001072 c 0.001256,0 0.002278,0.001024 0.002278,0.002284 v 0.0357342 c 0,0.004964 0.004026,0.009001 0.008977,0.009001 H 0.600443 V 0.62054 H 0.607142 V 0.6071061 h 0.004421 c 0.004951,0 0.008977,-0.004037 0.008977,-0.009001 V 0.5432947 c 0,-0.0166681 -0.013525,-0.0302263 -0.030146,-0.0302265 z"
   id="path4"
   class="ColorScheme-Text"
   style="stroke-width:0.00335396;fill:url(#oomox)" />
<metadata
   id="metadata3"><rdf:RDF><cc:Work
       rdf:about=""><dc:creator><cc:Agent><dc:title>dreifacherspass</dc:title></cc:Agent></dc:creator><cc:license
         rdf:resource="http://creativecommons.org/licenses/by-sa/4.0/" /></cc:Work><cc:License
       rdf:about="http://creativecommons.org/licenses/by-sa/4.0/"><cc:permits
         rdf:resource="http://creativecommons.org/ns#Reproduction" /><cc:permits
         rdf:resource="http://creativecommons.org/ns#Distribution" /><cc:requires
         rdf:resource="http://creativecommons.org/ns#Notice" /><cc:requires
         rdf:resource="http://creativecommons.org/ns#Attribution" /><cc:permits
         rdf:resource="http://creativecommons.org/ns#DerivativeWorks" /><cc:requires
         rdf:resource="http://creativecommons.org/ns#ShareAlike" /></cc:License></rdf:RDF></metadata></svg>
