<?xml version="1.0" encoding="UTF-8" standalone="no"?>

<svg
   width="48"
   height="48"
   viewBox="0 0 12.7 12.7"
   version="1.1"
   id="svg181"
   xmlns:xlink="http://www.w3.org/1999/xlink"
   xmlns="http://www.w3.org/2000/svg"
   xmlns:svg="http://www.w3.org/2000/svg"
   xmlns:rdf="http://www.w3.org/1999/02/22-rdf-syntax-ns#"
   xmlns:cc="http://creativecommons.org/ns#"
   xmlns:dc="http://purl.org/dc/elements/1.1/">
  <defs
     id="defs2940">
    <style
       id="current-color-scheme"
       type="text/css">
      .ColorScheme-Text { color: #0abdc6; } .ColorScheme-Highlight { color:#5294e2; }
     </style>
    <linearGradient
       id="arrongin"
       x1="0%"
       x2="0%"
       y1="0%"
       y2="100%">
      <stop
         offset="0%"
         style="stop-color:#dd9b44; stop-opacity:1"
         id="stop9192" />
      <stop
         offset="100%"
         style="stop-color:#ad6c16; stop-opacity:1"
         id="stop9194" />
    </linearGradient>
    <linearGradient
       id="aurora"
       x1="0%"
       x2="0%"
       y1="0%"
       y2="100%">
      <stop
         offset="0%"
         style="stop-color:#09D4DF; stop-opacity:1"
         id="stop9197" />
      <stop
         offset="100%"
         style="stop-color:#9269F4; stop-opacity:1"
         id="stop9199" />
    </linearGradient>
    <linearGradient
       id="cyberneon"
       x1="0%"
       x2="0%"
       y1="0%"
       y2="100%">
      <stop
         offset="0"
         style="stop-color:#0abdc6; stop-opacity:1"
         id="stop9202" />
      <stop
         offset="1"
         style="stop-color:#ea00d9; stop-opacity:1"
         id="stop9204" />
    </linearGradient>
    <linearGradient
       id="fitdance"
       x1="0%"
       x2="0%"
       y1="0%"
       y2="100%">
      <stop
         offset="0%"
         style="stop-color:#1AD6AB; stop-opacity:1"
         id="stop9207" />
      <stop
         offset="100%"
         style="stop-color:#329DB6; stop-opacity:1"
         id="stop9209" />
    </linearGradient>
    <linearGradient
       id="oomox"
       x1="0%"
       x2="0%"
       y1="0%"
       y2="100%">
      <stop
         offset="0%"
         style="stop-color:#0abdc6; stop-opacity:1"
         id="stop9212" />
      <stop
         offset="100%"
         style="stop-color:#b800ff; stop-opacity:1"
         id="stop9214" />
    </linearGradient>
    <linearGradient
       id="rainblue"
       x1="0%"
       x2="0%"
       y1="0%"
       y2="100%">
      <stop
         offset="0%"
         style="stop-color:#00F260; stop-opacity:1"
         id="stop9217" />
      <stop
         offset="100%"
         style="stop-color:#0575E6; stop-opacity:1"
         id="stop9219" />
    </linearGradient>
    <linearGradient
       id="sunrise"
       x1="0%"
       x2="0%"
       y1="0%"
       y2="100%">
      <stop
         offset="0%"
         style="stop-color: #FF8501; stop-opacity:1"
         id="stop9222" />
      <stop
         offset="100%"
         style="stop-color: #FFCB01; stop-opacity:1"
         id="stop9224" />
    </linearGradient>
    <linearGradient
       id="telinkrin"
       x1="0%"
       x2="0%"
       y1="0%"
       y2="100%">
      <stop
         offset="0%"
         style="stop-color: #b2ced6; stop-opacity:1"
         id="stop9227" />
      <stop
         offset="100%"
         style="stop-color: #6da5b7; stop-opacity:1"
         id="stop9229" />
    </linearGradient>
    <linearGradient
       id="60spsycho"
       x1="0%"
       x2="0%"
       y1="0%"
       y2="100%">
      <stop
         offset="0%"
         style="stop-color: #df5940; stop-opacity:1"
         id="stop9232" />
      <stop
         offset="25%"
         style="stop-color: #d8d15f; stop-opacity:1"
         id="stop9234" />
      <stop
         offset="50%"
         style="stop-color: #e9882a; stop-opacity:1"
         id="stop9236" />
      <stop
         offset="100%"
         style="stop-color: #279362; stop-opacity:1"
         id="stop9238" />
    </linearGradient>
    <linearGradient
       id="90ssummer"
       x1="0%"
       x2="0%"
       y1="0%"
       y2="100%">
      <stop
         offset="0%"
         style="stop-color: #f618c7; stop-opacity:1"
         id="stop9241" />
      <stop
         offset="20%"
         style="stop-color: #94ffab; stop-opacity:1"
         id="stop9243" />
      <stop
         offset="50%"
         style="stop-color: #fbfd54; stop-opacity:1"
         id="stop9245" />
      <stop
         offset="100%"
         style="stop-color: #0f83ae; stop-opacity:1"
         id="stop9247" />
    </linearGradient>
  </defs>
  <path
     id="chip"
     class="ColorScheme-Text"
     style="display:inline;overflow:visible;visibility:visible;fill-opacity:1.0;stroke:none;stroke-width:0.26458333;marker:none;enable-background:accumulate;fill:url(#oomox);font-variation-settings:normal;opacity:1;vector-effect:none;stroke-linecap:butt;stroke-linejoin:miter;stroke-miterlimit:4;stroke-dasharray:none;stroke-dashoffset:0;stroke-opacity:1;-inkscape-stroke:none;stop-color:#000000;stop-opacity:1"
     d="M 1.3115479 0.13229167 L 0.13229167 1.3115479 L 0.13229167 11.388452 L 1.3115479 12.567708 L 11.388452 12.567708 L 12.567708 11.388452 L 12.567708 1.3115479 L 11.388452 0.13229167 L 1.3115479 0.13229167 z M 10.738879 1.1523844 C 10.872062 1.1523844 10.980208 1.2610425 10.980208 1.3942301 C 10.980208 1.4851444 10.928418 1.5644858 10.854118 1.6055868 L 10.854118 4.1335978 L 10.854118 4.2555542 L 10.731645 4.2555542 L 8.7457194 4.2555542 L 8.7457194 4.0100911 L 10.608655 4.0100911 L 10.608655 1.5968018 C 10.541727 1.5539438 10.497034 1.4795931 10.497034 1.3942301 C 10.497034 1.2610463 10.605691 1.1523844 10.738879 1.1523844 z M 6.9840698 3.1827515 L 8.5839722 3.1827515 C 8.6707779 3.1827515 8.7415853 3.2535657 8.7415853 3.3403646 L 8.7415853 3.9992391 L 7.9602376 3.9992391 C 7.9186406 3.9470401 7.8557929 3.9134562 7.784021 3.9134562 C 7.6589284 3.9134562 7.558195 4.0152248 7.558195 4.1403158 C 7.558195 4.2654105 7.6589168 4.3661418 7.784021 4.3661418 C 7.8622067 4.3661418 7.9313133 4.3265142 7.9721232 4.2664062 L 8.7415853 4.2664062 L 8.7415853 4.6193563 L 8.7415853 4.9402669 L 8.7415853 6.2192586 C 8.7415853 6.3060494 8.6718056 6.3758382 8.5850057 6.3758382 L 6.9851034 6.3758382 C 6.8983091 6.3758382 6.8285238 6.3060575 6.8285238 6.2192586 L 6.8285238 5.5464315 L 7.5985026 5.5464315 C 7.6393079 5.6065394 7.7068726 5.646167 7.7850545 5.646167 C 7.9101554 5.646167 8.0119141 5.5443984 8.0119141 5.4193075 C 8.0119141 5.2942127 7.9101578 5.1934814 7.7850545 5.1934814 C 7.7132767 5.1934814 7.6509476 5.2275961 7.6093547 5.2797811 L 6.8285238 5.2797811 L 6.8285238 4.9557699 C 6.8279909 4.9504659 6.8285238 4.9456869 6.8285238 4.9402669 L 6.8285238 4.6193563 C 6.8285238 4.6138893 6.8279909 4.6091433 6.8285238 4.6038534 L 6.8285238 3.3403646 C 6.8285238 3.253563 6.8972709 3.1827515 6.9840698 3.1827515 z M 4.6172892 4.9263143 L 6.2182251 4.9263143 C 6.3050197 4.9263143 6.3748047 4.996095 6.3748047 5.0828939 L 6.3748047 6.6827962 C 6.3748047 6.7695917 6.305024 6.8393758 6.2182251 6.8393758 L 4.6172892 6.8393758 C 4.530496 6.8393758 4.4612264 6.7695951 4.4612264 6.6827962 L 4.4612264 5.0828939 C 4.4612264 4.9961031 4.5304903 4.9263143 4.6172892 4.9263143 z M 5.4177572 5.657019 C 5.2926637 5.657019 5.1914144 5.7587876 5.1914144 5.8838786 C 5.1914144 6.0089696 5.2926662 6.1097046 5.4177572 6.1097046 C 5.5428582 6.1097046 5.6446167 6.0089696 5.6446167 5.8838786 C 5.6446167 5.7587801 5.5428607 5.657019 5.4177572 5.657019 z M 6.5618734 6.8393758 L 8.1628092 6.8393758 C 8.2496028 6.8393758 8.3193888 6.9091565 8.3193888 6.9959554 L 8.3193888 8.5968913 C 8.3193888 8.6836814 8.2496082 8.7534709 8.1628092 8.7534709 L 6.5618734 8.7534709 C 6.4750791 8.7534709 6.4052938 8.6836902 6.4052938 8.5968913 L 6.4052938 6.9959554 C 6.4052938 6.9091624 6.4750745 6.8393758 6.5618734 6.8393758 z M 4.2193807 7.3189331 L 5.8203166 7.3189331 C 5.9071109 7.3189331 5.9768962 7.388197 5.9768962 7.4749959 L 5.9768962 9.0748983 C 5.9768962 9.1617006 5.9071155 9.2325114 5.8203166 9.2325114 L 4.2193807 9.2325114 C 4.1325874 9.2325114 4.0628011 9.1616982 4.0628011 9.0748983 L 4.0628011 7.4749959 C 4.0628011 7.3882029 4.1325818 7.3189331 4.2193807 7.3189331 z M 7.3618245 7.5700806 C 7.2367312 7.5700806 7.1359985 7.6718492 7.1359985 7.7969401 C 7.1359985 7.9220311 7.2367211 8.0227661 7.3618245 8.0227661 C 7.4869256 8.0227661 7.5886841 7.9220311 7.5886841 7.7969401 C 7.5886841 7.6718376 7.4869282 7.5700806 7.3618245 7.5700806 z M 1.8763713 7.720459 L 3.4762736 7.720459 C 3.5630765 7.720459 3.6338867 7.7912732 3.6338867 7.8780721 L 3.6338867 9.4779744 C 3.6338867 9.5647696 3.5630725 9.634554 3.4762736 9.634554 L 1.8763713 9.634554 C 1.789577 9.634554 1.7197917 9.5647734 1.7197917 9.4779744 L 1.7197917 7.8780721 C 1.7197917 7.7912664 1.7895723 7.720459 1.8763713 7.720459 z M 5.0193319 8.0491211 C 4.8942397 8.0491211 4.7935059 8.150889 4.7935059 8.2759806 C 4.7935059 8.4010765 4.8942409 8.5018066 5.0193319 8.5018066 C 5.1444329 8.5018066 5.2461914 8.4010715 5.2461914 8.2759806 C 5.2461914 8.1508789 5.1444354 8.0491211 5.0193319 8.0491211 z M 2.6763224 8.4511637 C 2.5512302 8.4511637 2.4504964 8.5529199 2.4504964 8.6780233 C 2.4504964 8.8031158 2.5512189 8.9038493 2.6763224 8.9038493 C 2.8014235 8.9038493 2.903182 8.8031142 2.903182 8.6780233 C 2.903182 8.5529224 2.801426 8.4511637 2.6763224 8.4511637 z M 3.8049357 9.634554 C 3.8102517 9.6338872 3.8150186 9.634554 3.8204386 9.634554 L 5.420341 9.634554 C 5.5071439 9.634554 5.5779541 9.7043347 5.5779541 9.7911336 L 5.5779541 11.391036 C 5.5779541 11.477829 5.5071399 11.547616 5.420341 11.547616 L 3.8204386 11.547616 C 3.7336442 11.547616 3.663859 11.477836 3.663859 11.391036 L 3.663859 9.7911336 C 3.663859 9.7097527 3.7257448 9.642634 3.8049357 9.634554 z M 4.6203898 10.364225 C 4.4952963 10.364225 4.3945638 10.465994 4.3945638 10.591085 C 4.3945638 10.71618 4.4952862 10.816911 4.6203898 10.816911 C 4.7454909 10.816911 4.8472493 10.716189 4.8472493 10.591085 C 4.8472493 10.465987 4.7454809 10.364225 4.6203898 10.364225 z " />
  <metadata
     id="metadata2012">
    <rdf:RDF>
      <cc:Work
         rdf:about="">
        <dc:creator>
          <cc:Agent>
            <dc:title>dreifacherspass</dc:title>
          </cc:Agent>
        </dc:creator>
        <cc:license
           rdf:resource="http://creativecommons.org/licenses/by-sa/4.0/" />
      </cc:Work>
      <cc:License
         rdf:about="http://creativecommons.org/licenses/by-sa/4.0/">
        <cc:permits
           rdf:resource="http://creativecommons.org/ns#Reproduction" />
        <cc:permits
           rdf:resource="http://creativecommons.org/ns#Distribution" />
        <cc:requires
           rdf:resource="http://creativecommons.org/ns#Notice" />
        <cc:requires
           rdf:resource="http://creativecommons.org/ns#Attribution" />
        <cc:permits
           rdf:resource="http://creativecommons.org/ns#DerivativeWorks" />
        <cc:requires
           rdf:resource="http://creativecommons.org/ns#ShareAlike" />
      </cc:License>
    </rdf:RDF>
  </metadata>
</svg>
