<?xml version="1.0" encoding="UTF-8" standalone="no"?>
<!-- Uploaded to: SVG Repo, www.svgrepo.com, Generator: SVG Repo Mixer Tools -->

<svg
   width="16"
   height="16"
   viewBox="0 0 16 16"
   fill="none"
   version="1.1"
   id="svg3"
   xmlns:xlink="http://www.w3.org/1999/xlink"
   xmlns="http://www.w3.org/2000/svg"
   xmlns:svg="http://www.w3.org/2000/svg"
   xmlns:rdf="http://www.w3.org/1999/02/22-rdf-syntax-ns#"
   xmlns:cc="http://creativecommons.org/ns#"
   xmlns:dc="http://purl.org/dc/elements/1.1/">
   <defs>
   <style id="current-color-scheme" type="text/css">
   .ColorScheme-Text { color: #0abdc6; } .ColorScheme-Highlight { color:#5294e2; }
  </style>
  <linearGradient id="arrongin" x1="0%" x2="0%" y1="0%" y2="100%">
   <stop offset="0%" style="stop-color:#dd9b44; stop-opacity:1"/>
   <stop offset="100%" style="stop-color:#ad6c16; stop-opacity:1"/>
  </linearGradient>
  <linearGradient id="aurora" x1="0%" x2="0%" y1="0%" y2="100%">
   <stop offset="0%" style="stop-color:#09D4DF; stop-opacity:1"/>
   <stop offset="100%" style="stop-color:#9269F4; stop-opacity:1"/>
  </linearGradient>
  <linearGradient id="cyberneon" x1="0%" x2="0%" y1="0%" y2="100%">
    <stop offset="0" style="stop-color:#0abdc6; stop-opacity:1"/>
    <stop offset="1" style="stop-color:#ea00d9; stop-opacity:1"/>
  </linearGradient>
  <linearGradient id="fitdance" x1="0%" x2="0%" y1="0%" y2="100%">
   <stop offset="0%" style="stop-color:#1AD6AB; stop-opacity:1"/>
   <stop offset="100%" style="stop-color:#329DB6; stop-opacity:1"/>
  </linearGradient>
  <linearGradient id="oomox" x1="0%" x2="0%" y1="0%" y2="100%">
   <stop offset="0%" style="stop-color:#0abdc6; stop-opacity:1"/>
   <stop offset="100%" style="stop-color:#b800ff; stop-opacity:1"/>
  </linearGradient>
  <linearGradient id="rainblue" x1="0%" x2="0%" y1="0%" y2="100%">
   <stop offset="0%" style="stop-color:#00F260; stop-opacity:1"/>
   <stop offset="100%" style="stop-color:#0575E6; stop-opacity:1"/>
  </linearGradient>
  <linearGradient id="sunrise" x1="0%" x2="0%" y1="0%" y2="100%">
   <stop offset="0%" style="stop-color: #FF8501; stop-opacity:1"/>
   <stop offset="100%" style="stop-color: #FFCB01; stop-opacity:1"/>
  </linearGradient>
  <linearGradient id="telinkrin" x1="0%" x2="0%" y1="0%" y2="100%">
   <stop offset="0%" style="stop-color: #b2ced6; stop-opacity:1"/>
   <stop offset="100%" style="stop-color: #6da5b7; stop-opacity:1"/>
  </linearGradient>
  <linearGradient id="60spsycho" x1="0%" x2="0%" y1="0%" y2="100%">
   <stop offset="0%" style="stop-color: #df5940; stop-opacity:1"/>
   <stop offset="25%" style="stop-color: #d8d15f; stop-opacity:1"/>
   <stop offset="50%" style="stop-color: #e9882a; stop-opacity:1"/>
   <stop offset="100%" style="stop-color: #279362; stop-opacity:1"/>
  </linearGradient>
  <linearGradient id="90ssummer" x1="0%" x2="0%" y1="0%" y2="100%">
   <stop offset="0%" style="stop-color: #f618c7; stop-opacity:1"/>
   <stop offset="20%" style="stop-color: #94ffab; stop-opacity:1"/>
   <stop offset="50%" style="stop-color: #fbfd54; stop-opacity:1"/>
   <stop offset="100%" style="stop-color: #0f83ae; stop-opacity:1"/>
  </linearGradient>
 </defs>
  <path
     d="M 5.6,9.6 C 6.041824,9.6 6.4,9.24184 6.4,8.8 6.4,8.35816 6.041824,8 5.6,8 5.158168,8 4.8,8.35816 4.8,8.8 c 0,0.44184 0.358168,0.8 0.8,0.8 z"
     id="path1"
     class="ColorScheme-Text"
     style="stroke-width:0.8;fill:url(#oomox)" />
  <path
     d="m 11.2,8.8 c 0,0.44184 -0.35816,0.8 -0.8,0.8 C 9.95816,9.6 9.6,9.24184 9.6,8.8 9.6,8.35816 9.95816,8 10.4,8 c 0.44184,0 0.8,0.35816 0.8,0.8 z"
     id="path2"
     class="ColorScheme-Text"
     style="stroke-width:0.8;fill:url(#oomox)" />
  <path
     fill-rule="evenodd"
     clip-rule="evenodd"
     d="m 8,16 c 4.41824,0 8,-3.58176 8,-8 C 16,6.857907 15.760672,5.7717115 15.329434,4.7888284 15.19876,4.4909966 15.050466,4.2026509 14.885869,3.9251106 14.462755,3.2116618 13.931916,2.5696156 13.315762,2.0213815 12.549726,1.3397862 11.65182,0.80319477 10.665112,0.45467084 9.831472,0.16021377 8.9344443,0 8,0 7.3282662,0 6.6758692,0.08279033 6.0524561,0.23872382 5.5015401,0.37652374 4.9732589,0.57144427 4.4742702,0.81682764 1.8239521,2.120152 0,4.8470714 0,8 c 0,4.41824 3.58172,8 8,8 z m 0,-1.6 c 3.53464,0 6.4,-2.86536 6.4,-6.4 0,-0.66904 -0.10264,-1.31408 -0.29304,-1.920216 -0.66768,0.180664 -1.37,0.277048 -2.0948,0.277048 -2.97848,0 -5.5768,-1.62772 -6.953944,-4.04216 C 3.003752,3.379888 1.6,5.526008 1.6,8 c 0,3.53464 2.865376,6.4 6.4,6.4 z"
     id="path3"
     class="ColorScheme-Text"
     style="opacity:0.8;fill:url(#oomox);stroke-width:0.8" />
  <path
     id="path3-6"
     class="ColorScheme-Text"
     style="opacity:0.5;fill:url(#oomox);stroke-width:0.0113345"
     d="m 14.10625,7.1796872 a 0.34003467,0.34003467 0 0 0 -0.08281,0.014064 l -1.571876,0.4124992 a 1.0903778,1.0903778 0 0 0 -0.575,-0.2687496 9.8440032,9.8440032 0 0 0 -2.7312492,0 1.0869775,1.0869775 0 0 0 -0.6093752,0.3 C 8.3059112,7.5203168 8.0644304,7.461192 7.8140624,7.4656256 7.5980728,7.4689056 7.3742784,7.5182336 7.1468752,7.6125008 a 1.0869775,1.0869775 0 0 0 -0.5812504,-0.275 9.8440032,9.8440032 0 0 0 -2.7312498,0 1.0903778,1.0903778 0 0 0 -0.575,0.2687496 l -1.5703125,-0.4125 A 0.34014624,0.34014624 0 0 0 1.515625,7.8515624 l 1.4109375,0.3703128 a 1.0019688,1.0019688 0 0 0 -0.014062,0.1343744 v 0.8390632 c 0,0.5803248 0.2489757,1.1300092 0.6796875,1.5312492 0.4307118,0.401241 1.0014201,0.621876 1.6078125,0.621876 0.6063965,0 1.1718677,-0.213834 1.6093751,-0.621876 C 7.2468856,10.318522 7.4875,9.7756376 7.4875,9.1953128 V 8.3562496 A 1.0019688,1.0019688 0 0 0 7.453124,8.1171872 c 0.2883288,-0.1019976 0.5487896,-0.09329 0.7968752,0.02656 a 1.0019688,1.0019688 0 0 0 -0.02656,0.2124992 v 0.8390632 c 0,0.5803248 0.2462792,1.1300094 0.6781248,1.5312494 0.4318456,0.401241 1.0029784,0.621875 1.609375,0.621875 0.606397,0 1.171868,-0.213833 1.609375,-0.621875 0.437512,-0.408041 0.678125,-0.9509246 0.678125,-1.5312494 V 8.3562464 A 1.0019688,1.0019688 0 0 0 12.785935,8.221872 L 14.19531,7.8515592 A 0.34003467,0.34003467 0 0 0 14.106247,7.179684 Z" />
  <metadata
     id="metadata3">
    <rdf:RDF>
      <cc:Work
         rdf:about="">
        <dc:creator>
          <cc:Agent>
            <dc:title>dreifacherspass</dc:title>
          </cc:Agent>
        </dc:creator>
        <cc:license
           rdf:resource="http://creativecommons.org/licenses/by-sa/4.0/" />
      </cc:Work>
      <cc:License
         rdf:about="http://creativecommons.org/licenses/by-sa/4.0/">
        <cc:permits
           rdf:resource="http://creativecommons.org/ns#Reproduction" />
        <cc:permits
           rdf:resource="http://creativecommons.org/ns#Distribution" />
        <cc:requires
           rdf:resource="http://creativecommons.org/ns#Notice" />
        <cc:requires
           rdf:resource="http://creativecommons.org/ns#Attribution" />
        <cc:permits
           rdf:resource="http://creativecommons.org/ns#DerivativeWorks" />
        <cc:requires
           rdf:resource="http://creativecommons.org/ns#ShareAlike" />
      </cc:License>
    </rdf:RDF>
  </metadata>
  <path
     id="path1-3"
     class="ColorScheme-Text"
     style="clip-rule:evenodd;fill:url(#oomox);fill-rule:evenodd;stroke-width:0.8"
     d="M 4.453125,0.81640625 15.330985,4.7666719 C 15.200311,4.4688404 15.074858,4.1833571 14.910261,3.9058171 14.487148,3.192369 13.911075,2.5697179 13.294922,2.0214844 12.528887,1.3398898 11.631238,0.80360178 10.644531,0.45507812 9.8108923,0.16062142 8.912959,0 7.9785156,0 7.3067825,0 6.6546625,0.08234761 6.03125,0.23828125 5.4803346,0.37608101 4.9521132,0.5710232 4.453125,0.81640625 M 5.0371094,2.3144531 C 6.3752156,4.8223881 8.608412,6.3302862 11.992188,6.3554688 13.697849,6.3681626 15.009033,5.9512227 15.637527,5.7232703 15.75232,5.6816353 15.384812,4.9261699 15.329233,4.7674205 L 4.4593102,0.82029436" />
</svg>
