<?xml version="1.0" encoding="UTF-8" standalone="no"?>
<svg
   width="16"
   height="16"
   version="1.1"
   id="svg7"
   xmlns="http://www.w3.org/2000/svg"
   xmlns:svg="http://www.w3.org/2000/svg"
   xmlns:rdf="http://www.w3.org/1999/02/22-rdf-syntax-ns#"
   xmlns:cc="http://creativecommons.org/ns#"
   xmlns:dc="http://purl.org/dc/elements/1.1/">
  <defs>
   <style id="current-color-scheme" type="text/css">
   .ColorScheme-Text { color: #0abdc6; } .ColorScheme-Highlight { color:#5294e2; }
  </style>
  <linearGradient id="arrongin" x1="0%" x2="0%" y1="0%" y2="100%">
   <stop offset="0%" style="stop-color:#dd9b44; stop-opacity:1"/>
   <stop offset="100%" style="stop-color:#ad6c16; stop-opacity:1"/>
  </linearGradient>
  <linearGradient id="aurora" x1="0%" x2="0%" y1="0%" y2="100%">
   <stop offset="0%" style="stop-color:#09D4DF; stop-opacity:1"/>
   <stop offset="100%" style="stop-color:#9269F4; stop-opacity:1"/>
  </linearGradient>
  <linearGradient id="cyberneon" x1="0%" x2="0%" y1="0%" y2="100%">
    <stop offset="0" style="stop-color:#0abdc6; stop-opacity:1"/>
    <stop offset="1" style="stop-color:#ea00d9; stop-opacity:1"/>
  </linearGradient>
  <linearGradient id="fitdance" x1="0%" x2="0%" y1="0%" y2="100%">
   <stop offset="0%" style="stop-color:#1AD6AB; stop-opacity:1"/>
   <stop offset="100%" style="stop-color:#329DB6; stop-opacity:1"/>
  </linearGradient>
  <linearGradient id="oomox" x1="0%" x2="0%" y1="0%" y2="100%">
   <stop offset="0%" style="stop-color:#0abdc6; stop-opacity:1"/>
   <stop offset="100%" style="stop-color:#b800ff; stop-opacity:1"/>
  </linearGradient>
  <linearGradient id="rainblue" x1="0%" x2="0%" y1="0%" y2="100%">
   <stop offset="0%" style="stop-color:#00F260; stop-opacity:1"/>
   <stop offset="100%" style="stop-color:#0575E6; stop-opacity:1"/>
  </linearGradient>
  <linearGradient id="sunrise" x1="0%" x2="0%" y1="0%" y2="100%">
   <stop offset="0%" style="stop-color: #FF8501; stop-opacity:1"/>
   <stop offset="100%" style="stop-color: #FFCB01; stop-opacity:1"/>
  </linearGradient>
  <linearGradient id="telinkrin" x1="0%" x2="0%" y1="0%" y2="100%">
   <stop offset="0%" style="stop-color: #b2ced6; stop-opacity:1"/>
   <stop offset="100%" style="stop-color: #6da5b7; stop-opacity:1"/>
  </linearGradient>
  <linearGradient id="60spsycho" x1="0%" x2="0%" y1="0%" y2="100%">
   <stop offset="0%" style="stop-color: #df5940; stop-opacity:1"/>
   <stop offset="25%" style="stop-color: #d8d15f; stop-opacity:1"/>
   <stop offset="50%" style="stop-color: #e9882a; stop-opacity:1"/>
   <stop offset="100%" style="stop-color: #279362; stop-opacity:1"/>
  </linearGradient>
  <linearGradient id="90ssummer" x1="0%" x2="0%" y1="0%" y2="100%">
   <stop offset="0%" style="stop-color: #f618c7; stop-opacity:1"/>
   <stop offset="20%" style="stop-color: #94ffab; stop-opacity:1"/>
   <stop offset="50%" style="stop-color: #fbfd54; stop-opacity:1"/>
   <stop offset="100%" style="stop-color: #0f83ae; stop-opacity:1"/>
  </linearGradient>
 </defs>
  <path
     id="path2"
     style="opacity:0.8;fill:url(#oomox);stroke-width:0.4"
     class="ColorScheme-Text"
     d="M 2.4003906 0 C 1.9571915 0 1.5996094 0.35758213 1.5996094 0.80078125 L 1.5996094 15.199219 C 1.5996094 15.642418 1.9571915 16 2.4003906 16 L 13.599609 16 C 14.042809 16 14.400391 15.642418 14.400391 15.199219 L 14.400391 4.8007812 L 10.953125 4.1113281 L 10.953125 3.0703125 L 10.214844 3.0703125 L 9.5996094 0 L 2.4003906 0 z M 10.326172 3.25 L 10.773438 3.25 L 10.773438 3.4726562 L 10.326172 3.4726562 L 10.326172 3.25 z M 10.326172 3.6074219 L 10.773438 3.6074219 L 10.773438 3.8300781 L 10.367188 3.8300781 L 10.326172 3.6289062 L 10.326172 3.6074219 z M 10.392578 3.9648438 L 10.773438 3.9648438 L 10.773438 4.0742188 L 10.400391 4 L 10.392578 3.9648438 z M 5.0917969 7.8183594 L 10.908203 7.8183594 L 10.908203 13.091797 L 5.0917969 13.091797 L 5.0917969 7.8183594 z M 5.8183594 8.5449219 L 5.8183594 9.4550781 L 7.6367188 9.4550781 L 7.6367188 8.5449219 L 5.8183594 8.5449219 z M 8.3632812 8.5449219 L 8.3632812 9.4550781 L 10.181641 9.4550781 L 10.181641 8.5449219 L 8.3632812 8.5449219 z M 5.8183594 10 L 5.8183594 10.908203 L 7.6367188 10.908203 L 7.6367188 10 L 5.8183594 10 z M 8.3632812 10 L 8.3632812 10.908203 L 10.181641 10.908203 L 10.181641 10 L 8.3632812 10 z M 5.8183594 11.455078 L 5.8183594 12.363281 L 7.6367188 12.363281 L 7.6367188 11.455078 L 5.8183594 11.455078 z M 8.3632812 11.455078 L 8.3632812 12.363281 L 10.181641 12.363281 L 10.181641 11.455078 L 8.3632812 11.455078 z " />
  <path
     style="fill:url(#oomox);stroke-width:0.4"
     d="M 14.4,4.8 9.6,0 v 4 c 0,0.4432 0.3568,0.8 0.8,0.8 z"
     id="path4"
     class="ColorScheme-Text" />
  <metadata
     id="metadata7">
    <rdf:RDF>
      <cc:Work
         rdf:about="">
        <dc:creator>
          <cc:Agent>
            <dc:title>dreifacherspass</dc:title>
          </cc:Agent>
        </dc:creator>
        <cc:license
           rdf:resource="http://creativecommons.org/licenses/by-sa/4.0/" />
      </cc:Work>
      <cc:License
         rdf:about="http://creativecommons.org/licenses/by-sa/4.0/">
        <cc:permits
           rdf:resource="http://creativecommons.org/ns#Reproduction" />
        <cc:permits
           rdf:resource="http://creativecommons.org/ns#Distribution" />
        <cc:requires
           rdf:resource="http://creativecommons.org/ns#Notice" />
        <cc:requires
           rdf:resource="http://creativecommons.org/ns#Attribution" />
        <cc:permits
           rdf:resource="http://creativecommons.org/ns#DerivativeWorks" />
        <cc:requires
           rdf:resource="http://creativecommons.org/ns#ShareAlike" />
      </cc:License>
    </rdf:RDF>
  </metadata>
</svg>
