<?xml version="1.0" encoding="UTF-8" standalone="no"?>

<svg
   version="1.1"
   id="Layer_1"
   x="0px"
   y="0px"
   viewBox="0 0 16 16"
   xml:space="preserve"
   width="16"
   height="16"
   xmlns:xlink="http://www.w3.org/1999/xlink"
   xmlns="http://www.w3.org/2000/svg"
   xmlns:svg="http://www.w3.org/2000/svg"
   xmlns:rdf="http://www.w3.org/1999/02/22-rdf-syntax-ns#"
   xmlns:cc="http://creativecommons.org/ns#"
   xmlns:dc="http://purl.org/dc/elements/1.1/"><metadata
   id="metadata14"><rdf:RDF><cc:Work
       rdf:about=""><dc:format>image/svg+xml</dc:format><dc:type
         rdf:resource="http://purl.org/dc/dcmitype/StillImage" /><dc:creator><cc:Agent><dc:title>dreifacherspass</dc:title></cc:Agent></dc:creator></cc:Work></rdf:RDF></metadata>
  <defs>
   <style id="current-color-scheme" type="text/css">
   .ColorScheme-Text { color: #0abdc6; } .ColorScheme-Highlight { color:#5294e2; }
  </style>
  <linearGradient id="arrongin" x1="0%" x2="0%" y1="0%" y2="100%">
   <stop offset="0%" style="stop-color:#dd9b44; stop-opacity:1"/>
   <stop offset="100%" style="stop-color:#ad6c16; stop-opacity:1"/>
  </linearGradient>
  <linearGradient id="aurora" x1="0%" x2="0%" y1="0%" y2="100%">
   <stop offset="0%" style="stop-color:#09D4DF; stop-opacity:1"/>
   <stop offset="100%" style="stop-color:#9269F4; stop-opacity:1"/>
  </linearGradient>
  <linearGradient id="cyberneon" x1="0%" x2="0%" y1="0%" y2="100%">
    <stop offset="0" style="stop-color:#0abdc6; stop-opacity:1"/>
    <stop offset="1" style="stop-color:#ea00d9; stop-opacity:1"/>
  </linearGradient>
  <linearGradient id="fitdance" x1="0%" x2="0%" y1="0%" y2="100%">
   <stop offset="0%" style="stop-color:#1AD6AB; stop-opacity:1"/>
   <stop offset="100%" style="stop-color:#329DB6; stop-opacity:1"/>
  </linearGradient>
  <linearGradient id="oomox" x1="0%" x2="0%" y1="0%" y2="100%">
   <stop offset="0%" style="stop-color:#0abdc6; stop-opacity:1"/>
   <stop offset="100%" style="stop-color:#b800ff; stop-opacity:1"/>
  </linearGradient>
  <linearGradient id="rainblue" x1="0%" x2="0%" y1="0%" y2="100%">
   <stop offset="0%" style="stop-color:#00F260; stop-opacity:1"/>
   <stop offset="100%" style="stop-color:#0575E6; stop-opacity:1"/>
  </linearGradient>
  <linearGradient id="sunrise" x1="0%" x2="0%" y1="0%" y2="100%">
   <stop offset="0%" style="stop-color: #FF8501; stop-opacity:1"/>
   <stop offset="100%" style="stop-color: #FFCB01; stop-opacity:1"/>
  </linearGradient>
  <linearGradient id="telinkrin" x1="0%" x2="0%" y1="0%" y2="100%">
   <stop offset="0%" style="stop-color: #b2ced6; stop-opacity:1"/>
   <stop offset="100%" style="stop-color: #6da5b7; stop-opacity:1"/>
  </linearGradient>
  <linearGradient id="60spsycho" x1="0%" x2="0%" y1="0%" y2="100%">
   <stop offset="0%" style="stop-color: #df5940; stop-opacity:1"/>
   <stop offset="25%" style="stop-color: #d8d15f; stop-opacity:1"/>
   <stop offset="50%" style="stop-color: #e9882a; stop-opacity:1"/>
   <stop offset="100%" style="stop-color: #279362; stop-opacity:1"/>
  </linearGradient>
  <linearGradient id="90ssummer" x1="0%" x2="0%" y1="0%" y2="100%">
   <stop offset="0%" style="stop-color: #f618c7; stop-opacity:1"/>
   <stop offset="20%" style="stop-color: #94ffab; stop-opacity:1"/>
   <stop offset="50%" style="stop-color: #fbfd54; stop-opacity:1"/>
   <stop offset="100%" style="stop-color: #0f83ae; stop-opacity:1"/>
  </linearGradient>
 </defs>
<path
   id="path_background_disc"
  class="ColorScheme-Text"
   style="opacity:0.2;fill:url(#oomox);stroke-width:0.246154"
   d="M -8.0390625 0 A 8 8 0 0 1 -0.0390625 8 A 8 8 0 0 1 -8.0390625 16 A 8 8 0 0 1 -16.039062 8 A 8 8 0 0 1 -8.0390625 0 z M -7.9667969 8.0097656 C -7.977866 8.0092114 -7.9887841 8.0097656 -8 8.0097656 C -8.3589086 8.0097656 -8.6464844 8.2973411 -8.6464844 8.65625 C -8.6464844 8.9074861 -8.5024542 9.1227961 -8.2871094 9.2304688 L -8.6464844 11.095703 L -7.3535156 11.095703 L -7.7128906 9.2304688 C -7.4975448 9.1227961 -7.3535156 8.9074861 -7.3535156 8.65625 C -7.3535156 8.308557 -7.623654 8.0269466 -7.9667969 8.0097656 z "
   transform="scale(-1,1)" />
<path
   id="path_left_hemisphere"
   class="ColorScheme-Text"
   style="opacity:0.2;fill:url(#oomox);stroke-width:0.246154"
   d="M 8.0390625 0 C 3.6329129 -5.9211835e-16 0.0390625 3.5692354 0.0390625 8 C 0.0390625 12.356919 3.6329129 16 8.0390625 16 L 8.0390625 11.095703 L 7.3535156 11.095703 L 7.7128906 9.2304688 C 7.4975448 9.1227959 7.3535156 8.9074867 7.3535156 8.65625 C 7.3535156 8.2973414 7.6410914 8.0097656 8 8.0097656 C 8.0131883 8.0097656 8.0260787 8.0109541 8.0390625 8.0117188 L 8.0390625 0 z " />
<path
   d="M 8.0388227,2.1230043e-7 V 0.14769252 L 7.7434377,0.07384636 C 7.6695917,2.1230043e-7 7.6449767,2.1230043e-7 7.5957457,2.1230043e-7 h 0.270769 z M 6.2418997,0.22153867 c 0.02462,0 -0.09846,0.22153845 -0.270769,0.44307692 C 5.7742067,1.0338463 5.7003607,1.1815387 5.6511297,1.1815387 5.5772797,1.1076927 5.1834377,0.88615403 4.9126687,0.66461559 5.3311297,0.44307712 5.7742067,0.29538483 6.2418997,0.22153867 Z M 3.7065147,1.7476925 c 0.02462,0 0.09846,0 0.221539,0.1476923 l 0.196923,0.2215384 -0.147693,0.1476923 c -0.07385,0.1476924 -0.196923,0.2215385 -0.246153,0.2953847 -0.123077,0.1476922 -0.147693,0.1476922 -0.02462,0.3692307 0.04923,0.1476922 0.07385,0.2215385 0.07385,0.2215385 -0.02462,0.073846 -0.07385,0.073846 -0.344615,0.073846 h -0.393846 c -0.02462,0 -0.07385,-0.1476925 -0.09846,-0.2953847 l -0.02461,-0.2215385 0.270769,-0.2215384 c 0.246154,-0.2215385 0.246154,-0.2215385 0.344615,-0.443077 0.07385,-0.1476922 0.147693,-0.2953845 0.172308,-0.2953845 z m 0.738462,0.5907692 c 0.04923,0 0.32,0.516923 0.32,0.5907692 0,0 -0.07385,0.1476922 -0.172308,0.2215385 -0.09846,0.073846 -0.172308,0.1476922 -0.172308,0.1476922 -0.02462,0 -0.295384,-0.2953845 -0.344615,-0.3692307 -0.02462,-0.073846 0.02462,-0.1476923 0.147692,-0.2953845 0.09846,-0.1723079 0.196923,-0.2953847 0.221539,-0.2953847 z m -2.338462,0.2707693 -0.04923,0.073846 c 0,0.073846 0.172308,0.2215385 0.344616,0.3692309 0.295384,0.2215383 0.344615,0.2953845 0.492307,0.2953845 0.147693,0 0.221539,0.073846 0.443077,0.2215385 0.147693,0.1476922 0.295385,0.2215384 0.295385,0.2953847 0,0 -0.04923,0.073846 -0.147692,0.2215383 -0.172308,0.1476924 -0.172308,0.2215384 -0.04923,0.4430769 l 0.09846,0.073846 h 0.27077 c 0.147692,0 0.36923,0 0.443077,-0.073846 0.221538,0 0.196923,0 0.02461,0.5169231 -0.246154,0.7384615 -0.270769,0.7876923 -0.32,0.7876923 -0.02462,0 -0.32,-0.2953847 -0.689231,-0.5907692 C 2.8942027,4.9476923 2.5988187,4.6523078 2.5742027,4.6523078 l -0.147692,0.073846 c -0.09846,0.073846 -0.123077,0 -0.32,-0.1476922 L 1.9095877,4.4307693 1.7126647,4.5784616 c -0.467692,0.2953847 -0.541538,0.3692307 -0.566154,0.5907692 -0.04923,0.3692307 -0.07385,0.4430769 -0.123077,0.4430769 -0.02462,0 -0.31999995,-0.3692307 -0.39384595,-0.4430769 -0.02461,-0.073846 0.02462,-0.1476923 0.270769,-0.516923 C 1.0726647,4.4307693 1.1711267,4.2092309 1.1711267,4.1353847 c 0,0 -0.02462,0 -0.07385,-0.073846 -0.04923,0 -0.09846,0.073846 -0.24615295,0.2215385 C 1.2449697,3.7169232 1.6388157,3.126154 2.1065077,2.6092311 Z m -0.689231,2.633846 c 0.04923,0 0.221539,0.2215385 0.196923,0.2953845 l -0.123076,0.073846 h -0.09846 c -0.04923,0 -0.07385,0 -0.04923,-0.073846 0.02462,-0.1476923 0.04923,-0.2953845 0.07385,-0.2953845 z m 0.64,0.2953845 h 0.59077 l 0.590769,0.073846 1.107692,0.8615385 1.083077,0.9353845 v 0.8615384 c 0,0.5169232 0,0.9353847 -0.02462,0.9353847 -0.02462,0 -0.172308,0.2215383 -0.369231,0.3692307 -0.196923,0.2215385 -0.369231,0.3692308 -0.443077,0.4430767 -0.09846,0.07385 -0.123077,0.07385 -0.984615,0.147693 l -0.836924,0.07385 -0.393846,0.221538 c -0.196923,0.147693 -0.36923,0.295385 -0.393846,0.295385 -0.02462,0 0.07385,0.07385 0.147692,0.147692 l 0.147693,0.147693 -0.246154,0.295384 c -0.123077,0.147692 -0.32,0.369231 -0.418462,0.443077 l -0.147692,0.221538 v 0.418462 0.221538 C 0.55574075,11.421542 0.01420275,9.8215422 -0.03502825,8.1476961 c -0.02462,-0.6646154 0.07385,-1.3046154 0.196923,-1.9692308 l 0.147692,-0.073846 c 0.02462,0 0.123077,0.073846 0.246154,0.1476922 0.123077,0.073846 0.246154,0.2215385 0.270769,0.2215385 0.02462,0 0.19692295,-0.073846 0.44307695,-0.1476923 L 1.7126687,6.1784615 V 5.956923 c 0,-0.1476922 0,-0.2215384 0.147692,-0.3692307 z m 5.981539,6.3261535 v 0.07385 h -0.04923 z"
   id="path_left_continent"
   class="ColorScheme-Text"
   style="opacity:0.8;display:inline;fill:url(#oomox);stroke-width:0.246154" />
<path
   d="M 8.0388227,2.1230043e-7 C 8.8018997,2.1230043e-7 9.5649757,0.12307713 10.254206,0.3200002 10.180356,0.4184618 10.180356,0.4184618 10.106514,0.54153867 9.7372837,1.1569233 9.6880527,1.2307693 9.5895917,1.2553847 c -0.07385,0 -0.221539,0.024615 -0.393846,0.024615 H 8.9003607 L 8.6788227,0.7876925 8.4818997,0.3200002 8.0388227,0.17230791 Z M 12.198821,1.1569233 c 0.689231,0.4184615 1.329231,0.9599999 1.87077,1.5753845 0.935384,1.0584615 1.550769,2.3630769 1.821538,3.7907692 -0.123077,0 -0.221538,-0.024615 -0.443077,-0.024615 -0.689231,0.024615 -0.615385,0 -0.836923,0.3446153 C 14.488052,7.04 14.463437,7.04 14.266514,7.04 c -0.246154,0.024615 -0.221539,0 -0.123077,-0.3938462 0.04923,-0.1476922 0.07385,-0.2953846 0.07385,-0.3446153 0,-0.049231 -0.123077,-0.1723076 -0.418462,-0.3938461 C 13.331133,5.5384615 13.355749,5.5876923 13.429595,5.1938462 13.454206,5.12 13.404975,5.0461539 13.281898,4.8984617 13.109591,4.7261538 13.109591,4.7507693 12.937283,4.7507693 h -0.172308 l -0.02462,-0.2953845 c -0.02462,-0.1723077 -0.02462,-0.3200001 -0.04923,-0.3200001 0,0 -0.467692,-0.2707691 -1.009231,-0.5661538 -0.541538,-0.2953847 -1.00923,-0.5415384 -1.033846,-0.5661538 -0.04923,-0.049231 0.07385,-0.1969231 0.664616,-0.9353847 0.36923,-0.4676922 0.68923,-0.8861537 0.713846,-0.9107691 z m 1.427693,5.6615382 c 0.02462,0 0.02462,0.073846 0.02462,0.1476922 0,0.1476925 0,0.1723079 -0.147692,0.2461539 -0.196923,0.098462 -0.221539,0.123077 -0.196923,0.049231 0.02462,-0.098462 0.295384,-0.4676923 0.32,-0.4430769 z m 0.836923,0.5169231 0.123077,0.4430768 c -0.02462,0.024615 -0.221539,0.073846 -0.443077,0.123077 -0.246154,0.049231 -0.393846,0.098461 -0.443077,0.073846 L 13.577283,7.6553843 Z m 0.935384,0.2461537 0.27077,0.1476925 c 0.147692,0.073846 0.295384,0.1476922 0.344615,0.1476922 h 0.02462 c 0,0.3446153 -0.02462,0.6892308 -0.07385,1.0338461 l -0.147692,0.098462 -0.246154,-0.024615 h -0.246154 l -0.147692,0.3446153 c -0.07385,0.1723076 -0.172308,0.3446153 -0.196923,0.3692307 -0.02462,0.024615 -0.246154,0.024615 -0.443077,0.024615 h -0.369231 l 0.02462,0.2953839 c 0,0.295385 0,0.32 0.147692,0.541539 0.09846,0.123077 0.147692,0.295384 0.147692,0.344615 0,0.04923 -0.172308,0.516923 -0.393846,1.058462 l -0.369231,0.984615 -0.393846,0.196923 c -0.295385,0.147692 -0.369231,0.196923 -0.369231,0.246154 0,0.02461 0.09846,0.516923 0.147693,0.763077 -0.738462,0.615384 -1.575385,1.107692 -2.51077,1.427692 C 9.7372887,14.695384 8.9249807,13.833846 8.8019047,13.710769 l -0.172308,-0.172308 -0.04923,-0.467692 C 8.5311367,12.8 8.4819067,12.553846 8.4819067,12.52923 c 0,-0.02462 -0.123077,-0.147692 -0.246154,-0.295384 -0.123077,-0.123077 -0.196923,-0.246154 -0.196923,-0.270769 v -0.04923 c 0.02462,-0.02462 0.344615,-0.270769 0.738461,-0.541539 l 0.763077,-0.516923 0.270769,-0.02462 c 0.1969223,0 0.2953843,0 0.3199993,-0.04923 0.02462,-0.02461 0.07385,-0.196923 0.09846,-0.393846 0.02462,-0.196923 0.04923,-0.369231 0.07385,-0.3938456 0,-0.024615 0.196923,-0.024615 0.418462,-0.024615 0.221538,0 0.418461,-0.024615 0.443076,-0.049231 0.02462,-0.024615 0.02462,-0.1723076 0.04923,-0.3692307 0.02461,-0.1723076 0.04923,-0.3200001 0.07385,-0.3446153 0.02462,-0.024615 0.270769,-0.049231 0.566154,-0.073846 0.492308,-0.024615 0.590769,-0.024615 0.836923,-0.1476922 l 0.295385,-0.1476925 0.393846,0.1723077 0.418461,0.2215384 0.443077,-0.024615 c 0.492308,0 0.467693,0.049231 0.516923,-0.3938463 0.02462,-0.1476922 0.02462,-0.2953845 0.04923,-0.2953845 0.02462,-0.024615 0.123077,-0.024615 0.221539,-0.049231 l 0.172307,-0.049231 -0.02462,-0.1230769 c 0,-0.073846 0,-0.2461538 -0.02462,-0.3446153 l -0.02462,-0.196923 0.123077,-0.1230771 z m -2.24,0.2707693 c 0.02462,0.024615 0.02462,0.098462 0.04923,0.1476923 l 0.02462,0.123077 -0.713846,0.2953845 c -0.713846,0.2707693 -0.836923,0.2953847 -0.96,0.1723078 -0.04923,-0.049231 -0.02461,-0.049231 0.07385,-0.098462 0.07385,-0.024615 0.418461,-0.2215385 0.787692,-0.3938461 0.418461,-0.1723077 0.713846,-0.2707693 0.738461,-0.2461539 z"
   id="path_right_continents"
   class="ColorScheme-Text"
   style="opacity:0.8;fill:url(#oomox);stroke-width:0.246154" />
<path
   id="path_locket_bottom_part"
   class="ColorScheme-Text"
   style="fill:url(#oomox);fill-opacity:1;stroke-width:0.358909"
   d="M 5.2539062 6.8261719 C 4.8232157 6.8261719 4.4648438 7.1845438 4.4648438 7.6152344 L 4.4648438 11.490234 C 4.4648438 11.920926 4.8232157 12.28125 5.2539062 12.28125 L 10.708984 12.28125 C 11.139675 12.28125 11.5 11.920926 11.5 11.490234 L 11.535156 11.490234 L 11.535156 7.6152344 C 11.535156 7.1845438 11.176784 6.8261719 10.746094 6.8261719 L 5.2539062 6.8261719 z M 8 8.0097656 C 8.3589086 8.0097656 8.6464844 8.2973414 8.6464844 8.65625 C 8.6464844 8.9074867 8.5024542 9.1227959 8.2871094 9.2304688 L 8.6464844 11.095703 L 7.3535156 11.095703 L 7.7128906 9.2304688 C 7.4975448 9.1227959 7.3535156 8.9074867 7.3535156 8.65625 C 7.3535156 8.2973414 7.6410914 8.0097656 8 8.0097656 z " />
<path
   style="fill:url(#oomox);stroke-width:0.358909"
   id="path_locket_top_part"
   class="ColorScheme-Text"
   d="m 5.5055817,6.8252628 h 1.1844 V 5.4972984 c 0,-0.7537094 0.610146,-1.3638553 1.363856,-1.3638553 0.753709,0 1.363855,0.6101459 1.363855,1.3638553 V 6.8611537 H 10.53031 V 5.4972984 c 0,-1.3997462 -1.1485083,-2.512365 -2.5123633,-2.512365 -1.399747,0 -2.512365,1.1485097 -2.512365,2.512365 z" /></svg>
