<?xml version="1.0" encoding="UTF-8" standalone="no"?>
<svg
   width="16"
   height="16"
   version="1.1"
   id="svg3"
   xmlns:xlink="http://www.w3.org/1999/xlink"
   xmlns="http://www.w3.org/2000/svg"
   xmlns:svg="http://www.w3.org/2000/svg"
   xmlns:rdf="http://www.w3.org/1999/02/22-rdf-syntax-ns#"
   xmlns:cc="http://creativecommons.org/ns#"
   xmlns:dc="http://purl.org/dc/elements/1.1/">
  <defs>
   <style id="current-color-scheme" type="text/css">
   .ColorScheme-Text { color: #0abdc6; } .ColorScheme-Highlight { color:#5294e2; }
  </style>
  <linearGradient id="arrongin" x1="0%" x2="0%" y1="0%" y2="100%">
   <stop offset="0%" style="stop-color:#dd9b44; stop-opacity:1"/>
   <stop offset="100%" style="stop-color:#ad6c16; stop-opacity:1"/>
  </linearGradient>
  <linearGradient id="aurora" x1="0%" x2="0%" y1="0%" y2="100%">
   <stop offset="0%" style="stop-color:#09D4DF; stop-opacity:1"/>
   <stop offset="100%" style="stop-color:#9269F4; stop-opacity:1"/>
  </linearGradient>
  <linearGradient id="cyberneon" x1="0%" x2="0%" y1="0%" y2="100%">
    <stop offset="0" style="stop-color:#0abdc6; stop-opacity:1"/>
    <stop offset="1" style="stop-color:#ea00d9; stop-opacity:1"/>
  </linearGradient>
  <linearGradient id="fitdance" x1="0%" x2="0%" y1="0%" y2="100%">
   <stop offset="0%" style="stop-color:#1AD6AB; stop-opacity:1"/>
   <stop offset="100%" style="stop-color:#329DB6; stop-opacity:1"/>
  </linearGradient>
  <linearGradient id="oomox" x1="0%" x2="0%" y1="0%" y2="100%">
   <stop offset="0%" style="stop-color:#0abdc6; stop-opacity:1"/>
   <stop offset="100%" style="stop-color:#b800ff; stop-opacity:1"/>
  </linearGradient>
  <linearGradient id="rainblue" x1="0%" x2="0%" y1="0%" y2="100%">
   <stop offset="0%" style="stop-color:#00F260; stop-opacity:1"/>
   <stop offset="100%" style="stop-color:#0575E6; stop-opacity:1"/>
  </linearGradient>
  <linearGradient id="sunrise" x1="0%" x2="0%" y1="0%" y2="100%">
   <stop offset="0%" style="stop-color: #FF8501; stop-opacity:1"/>
   <stop offset="100%" style="stop-color: #FFCB01; stop-opacity:1"/>
  </linearGradient>
  <linearGradient id="telinkrin" x1="0%" x2="0%" y1="0%" y2="100%">
   <stop offset="0%" style="stop-color: #b2ced6; stop-opacity:1"/>
   <stop offset="100%" style="stop-color: #6da5b7; stop-opacity:1"/>
  </linearGradient>
  <linearGradient id="60spsycho" x1="0%" x2="0%" y1="0%" y2="100%">
   <stop offset="0%" style="stop-color: #df5940; stop-opacity:1"/>
   <stop offset="25%" style="stop-color: #d8d15f; stop-opacity:1"/>
   <stop offset="50%" style="stop-color: #e9882a; stop-opacity:1"/>
   <stop offset="100%" style="stop-color: #279362; stop-opacity:1"/>
  </linearGradient>
  <linearGradient id="90ssummer" x1="0%" x2="0%" y1="0%" y2="100%">
   <stop offset="0%" style="stop-color: #f618c7; stop-opacity:1"/>
   <stop offset="20%" style="stop-color: #94ffab; stop-opacity:1"/>
   <stop offset="50%" style="stop-color: #fbfd54; stop-opacity:1"/>
   <stop offset="100%" style="stop-color: #0f83ae; stop-opacity:1"/>
  </linearGradient>
 </defs>
  <path
     d="M 0.27586279,7.999995 H 2.4827593 L 4.6896559,3.5862019 5.7931041,12.413787 9.1034489,6.8965468 10.206897,10.206892 12.413793,7.999995 h 3.310344"
     style="fill:none;stroke:url(#oomox);stroke-width:0.551725;stroke-linecap:round;stroke-linejoin:round;stroke-dasharray:none"
     id="path1"
     class="ColorScheme-Text"/>
  <path
     id="rect2"
     class="ColorScheme-Text"
     style="opacity:1;fill:url(#oomox);stroke-width:1.05039"
     d="M 11.310547 0 L 11.310547 1 L 14.621094 1 L 14.621094 0 L 11.310547 0 z M 11.310547 1.5 L 11.310547 2.5 L 14.621094 2.5 L 14.621094 1.5 L 11.310547 1.5 z M 11.310547 3 L 11.310547 4 L 14.621094 4 L 14.621094 3 L 11.310547 3 z M 11.310547 4.5 L 11.310547 5.5 L 14.621094 5.5 L 14.621094 4.5 L 11.310547 4.5 z " />
  <metadata
     id="metadata3">
    <rdf:RDF>
      <cc:Work
         rdf:about="">
        <dc:creator>
          <cc:Agent>
            <dc:title>dreifacherspass</dc:title>
          </cc:Agent>
        </dc:creator>
        <cc:license
           rdf:resource="http://creativecommons.org/licenses/by-sa/4.0/" />
      </cc:Work>
      <cc:License
         rdf:about="http://creativecommons.org/licenses/by-sa/4.0/">
        <cc:permits
           rdf:resource="http://creativecommons.org/ns#Reproduction" />
        <cc:permits
           rdf:resource="http://creativecommons.org/ns#Distribution" />
        <cc:requires
           rdf:resource="http://creativecommons.org/ns#Notice" />
        <cc:requires
           rdf:resource="http://creativecommons.org/ns#Attribution" />
        <cc:permits
           rdf:resource="http://creativecommons.org/ns#DerivativeWorks" />
        <cc:requires
           rdf:resource="http://creativecommons.org/ns#ShareAlike" />
      </cc:License>
    </rdf:RDF>
  </metadata>
  <path
     style="font-weight:bold;font-size:2.66667px;font-family:Monospace;-inkscape-font-specification:'Monospace Bold';text-align:end;text-anchor:end;opacity:1;stroke-width:0.5;fill:url(#oomox)"
     d="m 6.9466496,15.426666 v -0.333334 h 0.800001 v 0.333334 z m 1.3520028,0.546667 v -0.28 L 8.762653,15.229332 q 0.1120001,-0.112 0.2053336,-0.210667 0.093333,-0.09867 0.1493335,-0.194666 0.056,-0.09867 0.056,-0.205334 0,-0.114667 -0.066667,-0.176 -0.066667,-0.064 -0.1760002,-0.064 -0.1066668,0 -0.2053336,0.048 -0.098667,0.048 -0.2133336,0.146667 L 8.2933191,14.314665 q 0.1040001,-0.09067 0.1973335,-0.149334 0.096,-0.06133 0.2053336,-0.09067 0.1120002,-0.032 0.2640004,-0.032 0.1946669,0 0.3306671,0.06933 0.1386668,0.06933 0.2106669,0.189333 0.074667,0.117334 0.074667,0.269334 0,0.170667 -0.074667,0.312 -0.074667,0.138667 -0.1973336,0.264001 -0.1200001,0.125333 -0.2640003,0.253333 L 8.794653,15.616 v 0.02667 h 0.8320011 v 0.330667 z M 10.55199,16 q -0.346667,0 -0.509334,-0.253334 -0.1626672,-0.256 -0.1626672,-0.736001 0,-0.477333 0.1600002,-0.722667 0.16,-0.245334 0.498667,-0.245334 0.346667,0 0.509334,0.256001 0.165334,0.253333 0.165334,0.736 0,0.282668 -0.064,0.501334 -0.06133,0.218667 -0.205334,0.341334 Q 10.79999,16 10.55199,16 Z m -0.298667,-0.965335 q 0,0.101334 0.0053,0.184001 l 0.464001,-0.768001 q -0.06667,-0.08533 -0.178667,-0.08533 -0.162667,0 -0.226667,0.173334 -0.064,0.170667 -0.064,0.496 z M 10.54399,15.688 q 0.165333,0 0.226667,-0.162667 0.06133,-0.162667 0.06133,-0.485334 0,-0.064 -0.0027,-0.12 -0.0027,-0.05867 -0.0053,-0.112 L 10.346656,15.584 q 0.06933,0.104 0.197334,0.104 z M 13.594662,16 q -0.189333,0 -0.309333,-0.09867 -0.12,-0.101333 -0.176001,-0.272 -0.056,-0.173334 -0.056,-0.384001 0,-0.218667 0.05867,-0.386667 0.06133,-0.170667 0.186667,-0.269333 0.128,-0.09867 0.325334,-0.09867 0.141333,0 0.24,0.05333 0.101334,0.05333 0.173334,0.16 h 0.01333 q -0.01333,-0.08267 -0.02133,-0.157333 -0.008,-0.07733 -0.008,-0.162667 v -0.437334 h 0.378667 v 2.026669 h -0.293334 l -0.08,-0.189333 h -0.016 q -0.06667,0.106667 -0.176,0.162667 Q 13.727996,16 13.594662,16 Z m 0.152001,-0.32 q 0.304,0 0.304,-0.386668 v -0.04267 q 0,-0.128 -0.02667,-0.226667 -0.024,-0.101334 -0.088,-0.157334 -0.06133,-0.056 -0.176,-0.056 -0.314667,0 -0.314667,0.450667 0,0.218667 0.07467,0.320001 0.07467,0.09867 0.226667,0.09867 z M 15.490666,16 q -0.122667,0 -0.234667,-0.048 -0.109334,-0.048 -0.184001,-0.138667 h -0.02667 l -0.05867,0.16 h -0.293334 v -2.026669 h 0.378667 v 0.472001 q 0,0.09067 -0.016,0.288 h 0.016 q 0.06933,-0.109333 0.181334,-0.162667 0.114667,-0.05333 0.245334,-0.05333 0.189333,0 0.309333,0.101333 0.12,0.101334 0.176001,0.272001 0.056,0.168 0.056,0.376 0,0.213334 -0.05867,0.386667 -0.05867,0.170667 -0.181334,0.272001 Q 15.679999,16 15.490666,16 Z m -0.130667,-0.32 q 0.288,0 0.288,-0.442668 0,-0.221333 -0.07467,-0.322667 -0.07467,-0.104 -0.216,-0.104 -0.128,0 -0.208,0.096 -0.07733,0.09333 -0.07733,0.330667 0,0.226667 0.07467,0.336001 Q 15.223999,15.68 15.359999,15.68 Z"
     id="text3"
     class="ColorScheme-Text"
     aria-label="-20 db" />
</svg>
