<?xml version="1.0" encoding="UTF-8" standalone="no"?>
<!-- Created with Inkscape (http://www.inkscape.org/) -->

<svg
   width="48"
   height="48"
   viewBox="0 0 12.7 12.7"
   version="1.1"
   id="svg1139"
   xmlns="http://www.w3.org/2000/svg"
   xmlns:svg="http://www.w3.org/2000/svg"
   xmlns:rdf="http://www.w3.org/1999/02/22-rdf-syntax-ns#"
   xmlns:cc="http://creativecommons.org/ns#"
   xmlns:dc="http://purl.org/dc/elements/1.1/">
  <defs
     id="defs1133">
    <style
       id="current-color-scheme"
       type="text/css">
      .ColorScheme-Text { color: #0abdc6; } .ColorScheme-Highlight { color:#5294e2; }
     </style>
    <linearGradient
       id="arrongin"
       x1="0%"
       x2="0%"
       y1="0%"
       y2="100%">
      <stop
         offset="0%"
         style="stop-color:#dd9b44; stop-opacity:1"
         id="stop9192" />
      <stop
         offset="100%"
         style="stop-color:#ad6c16; stop-opacity:1"
         id="stop9194" />
    </linearGradient>
    <linearGradient
       id="aurora"
       x1="0%"
       x2="0%"
       y1="0%"
       y2="100%">
      <stop
         offset="0%"
         style="stop-color:#09D4DF; stop-opacity:1"
         id="stop9197" />
      <stop
         offset="100%"
         style="stop-color:#9269F4; stop-opacity:1"
         id="stop9199" />
    </linearGradient>
    <linearGradient
       id="cyberneon"
       x1="0%"
       x2="0%"
       y1="0%"
       y2="100%">
      <stop
         offset="0"
         style="stop-color:#0abdc6; stop-opacity:1"
         id="stop9202" />
      <stop
         offset="1"
         style="stop-color:#ea00d9; stop-opacity:1"
         id="stop9204" />
    </linearGradient>
    <linearGradient
       id="fitdance"
       x1="0%"
       x2="0%"
       y1="0%"
       y2="100%">
      <stop
         offset="0%"
         style="stop-color:#1AD6AB; stop-opacity:1"
         id="stop9207" />
      <stop
         offset="100%"
         style="stop-color:#329DB6; stop-opacity:1"
         id="stop9209" />
    </linearGradient>
    <linearGradient
       id="oomox"
       x1="0%"
       x2="0%"
       y1="0%"
       y2="100%">
      <stop
         offset="0%"
         style="stop-color:#0abdc6; stop-opacity:1"
         id="stop9212" />
      <stop
         offset="100%"
         style="stop-color:#b800ff; stop-opacity:1"
         id="stop9214" />
    </linearGradient>
    <linearGradient
       id="rainblue"
       x1="0%"
       x2="0%"
       y1="0%"
       y2="100%">
      <stop
         offset="0%"
         style="stop-color:#00F260; stop-opacity:1"
         id="stop9217" />
      <stop
         offset="100%"
         style="stop-color:#0575E6; stop-opacity:1"
         id="stop9219" />
    </linearGradient>
    <linearGradient
       id="sunrise"
       x1="0%"
       x2="0%"
       y1="0%"
       y2="100%">
      <stop
         offset="0%"
         style="stop-color: #FF8501; stop-opacity:1"
         id="stop9222" />
      <stop
         offset="100%"
         style="stop-color: #FFCB01; stop-opacity:1"
         id="stop9224" />
    </linearGradient>
    <linearGradient
       id="telinkrin"
       x1="0%"
       x2="0%"
       y1="0%"
       y2="100%">
      <stop
         offset="0%"
         style="stop-color: #b2ced6; stop-opacity:1"
         id="stop9227" />
      <stop
         offset="100%"
         style="stop-color: #6da5b7; stop-opacity:1"
         id="stop9229" />
    </linearGradient>
    <linearGradient
       id="60spsycho"
       x1="0%"
       x2="0%"
       y1="0%"
       y2="100%">
      <stop
         offset="0%"
         style="stop-color: #df5940; stop-opacity:1"
         id="stop9232" />
      <stop
         offset="25%"
         style="stop-color: #d8d15f; stop-opacity:1"
         id="stop9234" />
      <stop
         offset="50%"
         style="stop-color: #e9882a; stop-opacity:1"
         id="stop9236" />
      <stop
         offset="100%"
         style="stop-color: #279362; stop-opacity:1"
         id="stop9238" />
    </linearGradient>
    <linearGradient
       id="90ssummer"
       x1="0%"
       x2="0%"
       y1="0%"
       y2="100%">
      <stop
         offset="0%"
         style="stop-color: #f618c7; stop-opacity:1"
         id="stop9241" />
      <stop
         offset="20%"
         style="stop-color: #94ffab; stop-opacity:1"
         id="stop9243" />
      <stop
         offset="50%"
         style="stop-color: #fbfd54; stop-opacity:1"
         id="stop9245" />
      <stop
         offset="100%"
         style="stop-color: #0f83ae; stop-opacity:1"
         id="stop9247" />
    </linearGradient>
  </defs>
  <metadata
     id="metadata1136">
    <rdf:RDF>
      <cc:Work
         rdf:about="">
        <dc:format>image/svg+xml</dc:format>
        <dc:type
           rdf:resource="http://purl.org/dc/dcmitype/StillImage" />
        <dc:contributor>
          <cc:Agent>
            <dc:title>dreifacherspass</dc:title>
          </cc:Agent>
        </dc:contributor>
      </cc:Work>
    </rdf:RDF>
  </metadata>
  <g
     id="layer1"
     transform="translate(-107.817,-115.05301)">
    <path
       style="fill:url(#oomox);stroke-linecap:round;stroke-linejoin:round;-inkscape-stroke:none"
       d="m 108.99023,115.25195 c -0.57394,0 -1.04101,0.46512 -1.04101,1.03907 v 9.86914 c 0,0.57394 0.46707,1.39379 1.04101,1.3938 l 10.35352,1.1e-4 c 0.57394,1e-5 1.04102,-0.81997 1.04102,-1.39391 v -9.86914 c 0,-0.57395 -0.46708,-1.03907 -1.04102,-1.03907 z m 0,0.26563 h 10.35352 c 0.43143,0 0.77539,0.34201 0.77539,0.77344 v 9.86914 c 0,0.43143 -0.34396,0.77539 -0.77539,0.77539 h -10.35352 c -0.43143,0 -0.77539,-0.34396 -0.77539,-0.77539 v -9.86914 c 0,-0.43143 0.34396,-0.77344 0.77539,-0.77344 z"
       id="path441"
       class="ColorScheme-Text" />
    <g
       id="g1221"
       transform="matrix(0.08052102,0,0,0.08051114,101.28352,99.348543)"
       style="display:inline;fill:#9ca02c;fill-opacity:1;stroke-width:4.34557;enable-background:new">
      <path
         d="m 167.90957,239.43955 c -6.35808,-37.85434 -65.91954,-42.65397 -50.26131,10.53465 22.4349,-20.31612 22.62473,6.33681 50.26131,-10.53465 z"
         id="path14259-3"
         class="ColorScheme-Text"
         style="display:inline;fill:none;fill-opacity:1;fill-rule:evenodd;stroke:url(#oomox);stroke-width:4.35583;stroke-linecap:butt;stroke-linejoin:miter;stroke-miterlimit:4;stroke-dasharray:none;stroke-opacity:1" />
      <path
         d="m 161.38837,276.59744 c 17.78064,-36.61747 81.74182,-24.21876 49.52717,25.71188 -18.25276,-25.4951 -24.68496,-2.50386 -49.52717,-25.71188 z"
         id="path14263-0"
         class="ColorScheme-Text"
         style="display:inline;fill:none;fill-opacity:1;fill-rule:evenodd;stroke:url(#oomox);stroke-width:4.35583;stroke-linecap:butt;stroke-linejoin:miter;stroke-miterlimit:4;stroke-dasharray:none;stroke-opacity:1" />
      <path
         d="m 144.87015,243.51575 c 18.85497,-37.97435 90.66837,-23.42981 56.05313,28.15912 -21.10103,-27.17807 -27.65222,-3.22081 -56.05313,-28.15912 z"
         id="path14261-6"
         class="ColorScheme-Text"
         style="display:inline;fill:none;fill-opacity:1;fill-rule:evenodd;stroke:url(#oomox);stroke-width:4.35583;stroke-linecap:butt;stroke-linejoin:miter;stroke-miterlimit:4;stroke-dasharray:none;stroke-opacity:1;enable-background:new"
         transform="translate(1.5060515e-6)" />
      <path
         d="m 143.23535,280.30817 c -6.43859,-39.85824 -55.995632,-41.30017 -40.41531,14.75067 21.65777,-21.21287 13.67986,2.80315 40.41531,-14.75067 z"
         id="path14265-6"
         class="ColorScheme-Text"
         style="display:inline;fill:none;fill-opacity:1;fill-rule:evenodd;stroke:url(#oomox);stroke-width:4.35583;stroke-linecap:butt;stroke-linejoin:miter;stroke-miterlimit:4;stroke-dasharray:none;stroke-opacity:1" />
      <path
         d="m 156.45207,261.9426 c 40.55192,7.85315 7.01942,32.11205 3.61575,43.55461 -39.67876,-17.11634 -26.66372,-48.01801 -3.61575,-43.55461 z"
         id="path14267-2"
         class="ColorScheme-Text"
         style="display:inline;fill:none;fill-opacity:1;fill-rule:evenodd;stroke:url(#oomox);stroke-width:4.35583;stroke-linecap:butt;stroke-linejoin:miter;stroke-miterlimit:4;stroke-dasharray:none;stroke-opacity:1" />
      <ellipse
         ry="15.393767"
         rx="18.288076"
         cy="231.65738"
         cx="186.63148"
         style="display:inline;fill:url(#oomox);fill-opacity:1;stroke-width:4.35594;enable-background:new;fill-rule:nonzero;stroke:none;stroke-linecap:round;stroke-linejoin:miter;stroke-miterlimit:4;stroke-dasharray:none;stroke-opacity:1"
         transform="matrix(0.99328845,0.11566367,-0.12605826,0.99202284,-9.3143383e-7,-5.6927945e-7)"
         id="path14273-1"
         class="ColorScheme-Text" />
      <path
         id="path1227"
         style="opacity:1;fill:url(#oomox);fill-opacity:1;stroke:url(#oomox);stroke-width:2.24784;stroke-linecap:round;stroke-linejoin:round;stroke-miterlimit:4;stroke-dasharray:none;stroke-dashoffset:0;stroke-opacity:1"
         class="ColorScheme-Text"
         transform="matrix(1.4671439,0,0,1.4671455,80.675953,-68.023951)"
         d="m 79.944488,267.42184 -2.170586,-1.36827 -1.999531,1.60795 0.630559,-2.48717 -2.147139,-1.40479 2.560293,-0.16888 0.672526,-2.47615 0.951789,2.3828 2.562783,-0.12557 -1.972055,1.64153 z m 13.236695,0 -2.170586,-1.36827 -1.999531,1.60795 0.630559,-2.48717 -2.147139,-1.40479 2.560293,-0.16888 0.672526,-2.47615 0.951789,2.3828 2.562783,-0.12557 -1.972055,1.64153 z M 67.94703,254.51577 c -3.584189,2.40001 -12.802698,-15.12102 -19.25788,-18.55576 -7.03841,1.68445 -15.697725,15.89996 -19.239852,13.29988 -4.050918,-2.97354 0.923352,-21.30883 3.255973,-25.31803 3.006324,-5.16715 -17.306163,-5.57592 -15.592813,-9.94805 1.690304,-4.31334 18.3646,-8.29678 23.614978,-9.04034 1.904067,-5.12486 6.836139,-13.19433 13.582915,-12.3192 6.746809,0.8751 10.508969,10.77319 11.910284,15.84966 7.011187,1.2096 18.49854,6.00871 19.359335,10.65024 0.849194,4.57909 -23.19688,3.78549 -20.133131,9.09685 2.23672,3.8776 5.184276,23.72897 2.500184,26.28475 z" />
      <ellipse
         ry="15.393767"
         rx="18.288076"
         cy="231.65459"
         cx="186.6105"
         style="display:inline;fill:#000000;fill-opacity:1;stroke-width:4.35594;enable-background:new;fill-rule:nonzero;stroke:none;stroke-linecap:round;stroke-linejoin:miter;stroke-miterlimit:4;stroke-dasharray:none;stroke-opacity:1;opacity:0.5"
         transform="matrix(0.99328845,0.11566364,-0.12605826,0.99202284,-9.3143383e-7,-5.6927945e-7)"
         id="path14273-1-5" />
      <path
         style="display:inline;fill:#9ca02c;fill-opacity:1;stroke:url(#oomox);stroke-width:4.35582;stroke-linecap:round;stroke-linejoin:miter;stroke-miterlimit:4;stroke-dasharray:none;stroke-opacity:1"
         d="m 160.19886,261.30301 7.64557,-22.32367"
         id="path14275-8"
         class="ColorScheme-Text" />
      <path
         style="display:inline;fill:#9ca02c;fill-opacity:1;stroke:url(#oomox);stroke-width:4.35582;stroke-linecap:round;stroke-linejoin:miter;stroke-miterlimit:4;stroke-dasharray:none;stroke-opacity:1"
         d="m 149.9281,262.75759 -8.04454,-19.81422"
         id="path14277-7"
         class="ColorScheme-Text" />
      <path
         style="display:inline;fill:#9ca02c;fill-opacity:1;stroke:url(#oomox);stroke-width:4.35582;stroke-linecap:round;stroke-linejoin:miter;stroke-miterlimit:4;stroke-dasharray:none;stroke-opacity:1"
         d="m 154.33618,256.89492 0.77164,-31.53956"
         class="ColorScheme-Text"
         id="path14279-9" />
    </g>
    <path
       style="fill:none;fill-opacity:1;fill-rule:evenodd;stroke:url(#oomox);stroke-width:0.531069;stroke-linecap:round;stroke-linejoin:miter;stroke-miterlimit:4;stroke-dasharray:none;stroke-opacity:1"
       d="m 109.59887,124.83067 h 5.43545"
       id="path1088"
       class="ColorScheme-Text" />
    <path
       style="fill:none;fill-rule:evenodd;stroke:url(#oomox);stroke-width:0.531069;stroke-linecap:round;stroke-linejoin:miter;stroke-miterlimit:4;stroke-dasharray:none;stroke-opacity:1"
       d="m 109.59887,125.69332 h 4.06685"
       id="path1092"
       class="ColorScheme-Text" />
  </g>
</svg>
