<?xml version="1.0" encoding="UTF-8" standalone="no"?>
<!-- Created with Inkscape (http://www.inkscape.org/) -->

<svg
   width="16"
   height="16"
   viewBox="0 0 4.2333333 4.2333333"
   version="1.1"
   id="svg1139"
   xmlns:xlink="http://www.w3.org/1999/xlink"
   xmlns="http://www.w3.org/2000/svg"
   xmlns:svg="http://www.w3.org/2000/svg"
   xmlns:rdf="http://www.w3.org/1999/02/22-rdf-syntax-ns#"
   xmlns:cc="http://creativecommons.org/ns#"
   xmlns:dc="http://purl.org/dc/elements/1.1/">
  <defs>
   <style id="current-color-scheme" type="text/css">
   .ColorScheme-Text { color: #0abdc6; } .ColorScheme-Highlight { color:#5294e2; }
  </style>
  <linearGradient id="arrongin" x1="0%" x2="0%" y1="0%" y2="100%">
   <stop offset="0%" style="stop-color:#dd9b44; stop-opacity:1"/>
   <stop offset="100%" style="stop-color:#ad6c16; stop-opacity:1"/>
  </linearGradient>
  <linearGradient id="aurora" x1="0%" x2="0%" y1="0%" y2="100%">
   <stop offset="0%" style="stop-color:#09D4DF; stop-opacity:1"/>
   <stop offset="100%" style="stop-color:#9269F4; stop-opacity:1"/>
  </linearGradient>
  <linearGradient id="cyberneon" x1="0%" x2="0%" y1="0%" y2="100%">
    <stop offset="0" style="stop-color:#0abdc6; stop-opacity:1"/>
    <stop offset="1" style="stop-color:#ea00d9; stop-opacity:1"/>
  </linearGradient>
  <linearGradient id="fitdance" x1="0%" x2="0%" y1="0%" y2="100%">
   <stop offset="0%" style="stop-color:#1AD6AB; stop-opacity:1"/>
   <stop offset="100%" style="stop-color:#329DB6; stop-opacity:1"/>
  </linearGradient>
  <linearGradient id="oomox" x1="0%" x2="0%" y1="0%" y2="100%">
   <stop offset="0%" style="stop-color:#0abdc6; stop-opacity:1"/>
   <stop offset="100%" style="stop-color:#b800ff; stop-opacity:1"/>
  </linearGradient>
  <linearGradient id="rainblue" x1="0%" x2="0%" y1="0%" y2="100%">
   <stop offset="0%" style="stop-color:#00F260; stop-opacity:1"/>
   <stop offset="100%" style="stop-color:#0575E6; stop-opacity:1"/>
  </linearGradient>
  <linearGradient id="sunrise" x1="0%" x2="0%" y1="0%" y2="100%">
   <stop offset="0%" style="stop-color: #FF8501; stop-opacity:1"/>
   <stop offset="100%" style="stop-color: #FFCB01; stop-opacity:1"/>
  </linearGradient>
  <linearGradient id="telinkrin" x1="0%" x2="0%" y1="0%" y2="100%">
   <stop offset="0%" style="stop-color: #b2ced6; stop-opacity:1"/>
   <stop offset="100%" style="stop-color: #6da5b7; stop-opacity:1"/>
  </linearGradient>
  <linearGradient id="60spsycho" x1="0%" x2="0%" y1="0%" y2="100%">
   <stop offset="0%" style="stop-color: #df5940; stop-opacity:1"/>
   <stop offset="25%" style="stop-color: #d8d15f; stop-opacity:1"/>
   <stop offset="50%" style="stop-color: #e9882a; stop-opacity:1"/>
   <stop offset="100%" style="stop-color: #279362; stop-opacity:1"/>
  </linearGradient>
  <linearGradient id="90ssummer" x1="0%" x2="0%" y1="0%" y2="100%">
   <stop offset="0%" style="stop-color: #f618c7; stop-opacity:1"/>
   <stop offset="20%" style="stop-color: #94ffab; stop-opacity:1"/>
   <stop offset="50%" style="stop-color: #fbfd54; stop-opacity:1"/>
   <stop offset="100%" style="stop-color: #0f83ae; stop-opacity:1"/>
  </linearGradient>
 </defs>
  <metadata
     id="metadata1136">
    <rdf:RDF>
      <cc:Work
         rdf:about="">
        <dc:format>image/svg+xml</dc:format>
        <dc:type
           rdf:resource="http://purl.org/dc/dcmitype/StillImage" />
        <dc:creator>
          <cc:Agent>
            <dc:title>dreifacherspass</dc:title>
          </cc:Agent>
        </dc:creator>
        <cc:license
           rdf:resource="http://creativecommons.org/licenses/by-sa/4.0/" />
      </cc:Work>
      <cc:License
         rdf:about="http://creativecommons.org/licenses/by-sa/4.0/">
        <cc:permits
           rdf:resource="http://creativecommons.org/ns#Reproduction" />
        <cc:permits
           rdf:resource="http://creativecommons.org/ns#Distribution" />
        <cc:requires
           rdf:resource="http://creativecommons.org/ns#Notice" />
        <cc:requires
           rdf:resource="http://creativecommons.org/ns#Attribution" />
        <cc:permits
           rdf:resource="http://creativecommons.org/ns#DerivativeWorks" />
        <cc:requires
           rdf:resource="http://creativecommons.org/ns#ShareAlike" />
      </cc:License>
    </rdf:RDF>
  </metadata>
  <path
     style="display:inline;fill:url(#oomox);stroke-width:0.342263;stroke-linecap:round;stroke-linejoin:round;-inkscape-stroke:none"
     d="M 0.35438258,1.247558e-8 C 0.15900085,1.247558e-8 0,0.16005437 0,0.35755868 V 3.7536692 c 0,0.1975009 0.15900085,0.4796229 0.35438258,0.4796263 l 3.52456472,3.78e-5 c 0.1953817,3.5e-6 0.354386,-0.2821632 0.354386,-0.4796641 V 0.35755868 C 4.2333333,0.16005437 4.074329,1.247558e-8 3.8789473,1.247558e-8 Z m 0,0.09140702752442 H 3.8789473 c 0.1468682,0 0.2639597,0.11769048 0.2639597,0.26615164 V 3.7536692 c 0,0.1484612 -0.1170915,0.2668227 -0.2639597,0.2668227 H 0.35438258 c -0.14686821,0 -0.26395972,-0.1183615 -0.26395972,-0.2668227 V 0.35755868 c 0,-0.14846116 0.11709151,-0.26615164 0.26395972,-0.26615164 z"
     id="path441"
     class="ColorScheme-Text" />
  <path
     id="path14259-3"
     style="display:inline;fill:none;fill-opacity:1;fill-rule:evenodd;stroke:url(#oomox);stroke-width:0.120037;stroke-linecap:butt;stroke-linejoin:miter;stroke-miterlimit:4;stroke-dasharray:none;stroke-opacity:1;enable-background:new"
     class="ColorScheme-Text"
     d="M 1.4538097,0.36028011 C 1.0613365,0.36052946 0.73447535,0.69320028 0.95578614,1.4530204 1.2557802,1.1784454 1.3775837,1.1993424 1.5454902,1.2530544 1.6444622,1.1095763 1.8634159,1.0128522 2.0602277,1.0358687 c 0.094597,0.011135 0.1843584,0.044937 0.2587752,0.097449 0.0033,-0.00201 0.00634,-0.00364 0.00968,-0.00569 C 2.2442608,0.61963649 1.8224969,0.36004821 1.4538097,0.36028011 Z" />
  <path
     d="M 2.1546853,2.1905508 C 2.6420725,1.176063 4.39532,1.5195696 3.5122803,2.902899 3.0119519,2.1965567 2.8356381,2.8335295 2.1546853,2.1905508 Z"
     id="path14263-0"
     class="ColorScheme-Text"
     style="display:inline;fill:none;fill-opacity:1;fill-rule:evenodd;stroke:url(#oomox);stroke-width:0.120037;stroke-linecap:butt;stroke-linejoin:miter;stroke-miterlimit:4;stroke-dasharray:none;stroke-opacity:1;enable-background:new" />
  <path
     id="path14261-6"
     style="display:inline;fill:none;fill-opacity:1;fill-rule:evenodd;stroke:url(#oomox);stroke-width:0.120037;stroke-linecap:butt;stroke-linejoin:miter;stroke-miterlimit:4;stroke-dasharray:none;stroke-opacity:1;enable-background:new"
     class="ColorScheme-Text"
     d="M 2.6653562,0.68161151 C 2.354561,0.68822548 2.0349438,0.7982865 1.8221236,1.0726199 1.9013596,1.0450238 1.9882753,1.0356503 2.07439,1.045413 c 0.2750152,0.032374 0.493012,0.2623743 0.4636034,0.4960463 -0.00409,0.029262 -0.011759,0.057987 -0.022869,0.085712 0.2395964,0.017348 0.4081844,0.016993 0.7231968,0.4270791 0.5930256,-0.893294 0.046525,-1.38582003 -0.572965,-1.37263889 z" />
  <path
     d="M 1.6570908,2.2933566 C 1.4806018,1.1890832 0.12218796,1.1491346 0.54926199,2.7020243 1.1429256,2.1143213 0.92424224,2.7796856 1.6570908,2.2933566 Z"
     id="path14265-6"
     class="ColorScheme-Text"
     style="display:inline;fill:none;fill-opacity:1;fill-rule:evenodd;stroke:url(#oomox);stroke-width:0.120037;stroke-linecap:butt;stroke-linejoin:miter;stroke-miterlimit:4;stroke-dasharray:none;stroke-opacity:1;enable-background:new" />
  <path
     id="path14267-2"
     style="display:inline;fill:none;fill-opacity:1;fill-rule:evenodd;stroke:url(#oomox);stroke-width:0.120037;stroke-linecap:butt;stroke-linejoin:miter;stroke-miterlimit:4;stroke-dasharray:none;stroke-opacity:1;enable-background:new"
     class="ColorScheme-Text"
     d="M 1.693058,1.8366217 C 1.3038969,2.0009981 1.2405843,2.6084767 2.1184276,2.9912145 2.2029042,2.7041728 2.9644437,2.1498826 2.282559,1.8816118 2.1866568,1.9320554 2.0723761,1.9524486 1.9586942,1.9394051 1.8610555,1.9277986 1.768679,1.892055 1.693058,1.8366217 Z" />
  <ellipse
     ry="0.42641312"
     rx="0.50136894"
     cy="1.2469946"
     cx="2.1823361"
     style="display:inline;opacity:0.5;fill:url(#oomox);fill-opacity:1;fill-rule:nonzero;stroke:none;stroke-width:0.120038;stroke-linecap:round;stroke-linejoin:miter;stroke-miterlimit:4;stroke-dasharray:none;stroke-opacity:1;enable-background:new"
     transform="matrix(0.99314523,0.11688692,-0.12474192,0.99218922,0,0)"
     id="path14273-1"
     class="ColorScheme-Text" />
  <path
     id="path1227"
     style="display:inline;opacity:1;fill:url(#oomox);fill-opacity:1;stroke:url(#oomox);stroke-width:0.0908825;stroke-linecap:round;stroke-linejoin:round;stroke-miterlimit:4;stroke-dasharray:none;stroke-dashoffset:0;stroke-opacity:1;enable-background:new"
     class="ColorScheme-Text"
     d="M 2.0763831,0.47035478 C 1.8307438,0.47784285 1.6519069,0.77830972 1.5801188,0.97360209 1.3689695,1.0038259 0.69849136,1.1656647 0.63051409,1.3409903 0.56160997,1.5187055 1.3783877,1.5353359 1.2574854,1.7453662 1.1636766,1.9083294 0.9636907,2.6537565 1.1266025,2.7746229 1.2690527,2.8803088 1.6172325,2.3025004 1.9002893,2.2340321 2.159891,2.3736446 2.5307139,3.0857454 2.6748557,2.9881915 2.7827992,2.8843063 2.6641826,2.0774274 2.5742307,1.9198135 2.4510189,1.7039214 3.4181318,1.7360633 3.3839807,1.5499356 3.3493629,1.3612704 2.8873301,1.1662743 2.6053681,1.1171074 2.5490129,0.910763 2.3976735,0.5084145 2.1263438,0.47284404 c -0.016958,-0.002223 -0.033585,-0.002987 -0.049961,-0.002488 z M 1.9929981,1.0650044 a 0.50140992,0.42636491 5.5281693 0 1 0.071423,0.00409 0.50140992,0.42636491 5.5281693 0 1 0.44472,0.4817267 A 0.50140992,0.42636491 5.5281693 0 1 1.9579904,1.9153679 0.50140992,0.42636491 5.5281693 0 1 1.51327,1.4336377 0.50140992,0.42636491 5.5281693 0 1 1.9929981,1.0650044 Z m 1.0657104,2.1918824 -0.027091,0.100649 -0.1029119,0.00676 0.0862,0.057081 -0.025332,0.101183 0.080395,-0.06544 0.087431,0.05566 -0.036767,-0.097449 0.079339,-0.066685 -0.1030879,0.00498 z m 0.5323277,0 -0.027091,0.100649 -0.1029119,0.00676 0.0862,0.057081 -0.025331,0.101183 0.080394,-0.06544 0.087431,0.05566 -0.036767,-0.097449 0.079339,-0.066685 -0.1030879,0.00498 z" />
  <rect
     style="opacity:1;fill:url(#oomox);stroke-width:0.102624;-inkscape-stroke:none;paint-order:markers fill stroke"
     id="rect7"
     class="ColorScheme-Text"
     width="0.1310419"
     height="0.70517719"
     x="-1.1100858"
     y="-2.3735237"
     transform="matrix(-0.92769995,0.37332666,-0.37808011,-0.92577288,0,0)"
     ry="0.065196522" />
  <rect
     style="opacity:1;fill:url(#oomox);stroke-width:0.16258;-inkscape-stroke:none;paint-order:markers fill stroke"
     id="rect8"
     class="ColorScheme-Text"
     width="0.11686981"
     height="0.98969936"
     x="-2.0450833"
     y="-1.6896349"
     ry="0.051660135"
     transform="matrix(-0.99997952,-0.00640053,0.01686201,-0.99985783,0,0)" />
  <rect
     style="opacity:1;fill:url(#oomox);stroke-width:0.180482;-inkscape-stroke:none;paint-order:markers fill stroke"
     id="rect10"
     class="ColorScheme-Text"
     width="0.12124397"
     height="0.77186608"
     x="-2.629988"
     y="-1.0979071"
     ry="0.0599031"
     transform="matrix(-0.95267985,-0.3039755,0.31218652,-0.95002083,0,0)" />
  <rect
     style="fill:url(#oomox);stroke-width:0.152739;-inkscape-stroke:none;paint-order:markers fill stroke"
     id="rect1"
     class="ColorScheme-Text"
     width="0.18209371"
     height="2.0310776"
     x="3.2047677"
     y="-2.5022578"
     ry="0.09006995"
     transform="rotate(90)" />
  <rect
     style="fill:url(#oomox);stroke-width:0.142927;-inkscape-stroke:none;paint-order:markers fill stroke"
     id="rect3"
     class="ColorScheme-Text"
     width="0.18209371"
     height="1.5652356"
     x="3.5016713"
     y="-2.0364161"
     ry="0.09006995"
     transform="rotate(90)" />
</svg>
