<?xml version="1.0" encoding="UTF-8" standalone="no"?>
<!-- Created with Inkscape (http://www.inkscape.org/) -->

<svg
   height="48"
   width="48"
   version="1.1"
   id="svg232"
   xmlns:xlink="http://www.w3.org/1999/xlink"
   xmlns="http://www.w3.org/2000/svg"
   xmlns:svg="http://www.w3.org/2000/svg"
   xmlns:rdf="http://www.w3.org/1999/02/22-rdf-syntax-ns#"
   xmlns:cc="http://creativecommons.org/ns#"
   xmlns:dc="http://purl.org/dc/elements/1.1/">
  <defs
     id="defs150">
    <style
       id="current-color-scheme"
       type="text/css">
   .ColorScheme-Text { color: #0abdc6; } .ColorScheme-Highlight { color:#5294e2; }
  </style>
    <linearGradient
       id="arrongin"
       x1="0%"
       x2="0%"
       y1="0%"
       y2="100%">
      <stop
         offset="0%"
         style="stop-color:#dd9b44; stop-opacity:1"
         id="stop9192" />
      <stop
         offset="100%"
         style="stop-color:#ad6c16; stop-opacity:1"
         id="stop9194" />
    </linearGradient>
    <linearGradient
       id="aurora"
       x1="0%"
       x2="0%"
       y1="0%"
       y2="100%">
      <stop
         offset="0%"
         style="stop-color:#09D4DF; stop-opacity:1"
         id="stop9197" />
      <stop
         offset="100%"
         style="stop-color:#9269F4; stop-opacity:1"
         id="stop9199" />
    </linearGradient>
    <linearGradient
       id="cyberneon"
       x1="0%"
       x2="0%"
       y1="0%"
       y2="100%">
      <stop
         offset="0"
         style="stop-color:#0abdc6; stop-opacity:1"
         id="stop9202" />
      <stop
         offset="1"
         style="stop-color:#ea00d9; stop-opacity:1"
         id="stop9204" />
    </linearGradient>
    <linearGradient
       id="fitdance"
       x1="0%"
       x2="0%"
       y1="0%"
       y2="100%">
      <stop
         offset="0%"
         style="stop-color:#1AD6AB; stop-opacity:1"
         id="stop9207" />
      <stop
         offset="100%"
         style="stop-color:#329DB6; stop-opacity:1"
         id="stop9209" />
    </linearGradient>
    <linearGradient
       id="oomox"
       x1="0%"
       x2="0%"
       y1="0%"
       y2="100%">
      <stop
         offset="0%"
         style="stop-color:#0abdc6; stop-opacity:1"
         id="stop9212" />
      <stop
         offset="100%"
         style="stop-color:#b800ff; stop-opacity:1"
         id="stop9214" />
    </linearGradient>
    <linearGradient
       id="rainblue"
       x1="0%"
       x2="0%"
       y1="0%"
       y2="100%">
      <stop
         offset="0%"
         style="stop-color:#00F260; stop-opacity:1"
         id="stop9217" />
      <stop
         offset="100%"
         style="stop-color:#0575E6; stop-opacity:1"
         id="stop9219" />
    </linearGradient>
    <linearGradient
       id="sunrise"
       x1="0%"
       x2="0%"
       y1="0%"
       y2="100%">
      <stop
         offset="0%"
         style="stop-color: #FF8501; stop-opacity:1"
         id="stop9222" />
      <stop
         offset="100%"
         style="stop-color: #FFCB01; stop-opacity:1"
         id="stop9224" />
    </linearGradient>
    <linearGradient
       id="telinkrin"
       x1="0%"
       x2="0%"
       y1="0%"
       y2="100%">
      <stop
         offset="0%"
         style="stop-color: #b2ced6; stop-opacity:1"
         id="stop9227" />
      <stop
         offset="100%"
         style="stop-color: #6da5b7; stop-opacity:1"
         id="stop9229" />
    </linearGradient>
    <linearGradient
       id="60spsycho"
       x1="0%"
       x2="0%"
       y1="0%"
       y2="100%">
      <stop
         offset="0%"
         style="stop-color: #df5940; stop-opacity:1"
         id="stop9232" />
      <stop
         offset="25%"
         style="stop-color: #d8d15f; stop-opacity:1"
         id="stop9234" />
      <stop
         offset="50%"
         style="stop-color: #e9882a; stop-opacity:1"
         id="stop9236" />
      <stop
         offset="100%"
         style="stop-color: #279362; stop-opacity:1"
         id="stop9238" />
    </linearGradient>
    <linearGradient
       id="90ssummer"
       x1="0%"
       x2="0%"
       y1="0%"
       y2="100%">
      <stop
         offset="0%"
         style="stop-color: #f618c7; stop-opacity:1"
         id="stop9241" />
      <stop
         offset="20%"
         style="stop-color: #94ffab; stop-opacity:1"
         id="stop9243" />
      <stop
         offset="50%"
         style="stop-color: #fbfd54; stop-opacity:1"
         id="stop9245" />
      <stop
         offset="100%"
         style="stop-color: #0f83ae; stop-opacity:1"
         id="stop9247" />
    </linearGradient>
    <linearGradient
       id="lg2">
      <stop
         offset="0"
         stop-color="#fff"
         id="stop27" />
      <stop
         offset="1"
         stop-color="#fff"
         stop-opacity="0"
         id="stop29" />
    </linearGradient>
    <radialGradient
       id="radialGradient5041"
       cx="6.4061999"
       cy="72.568199"
       gradientUnits="userSpaceOnUse"
       r="2.0318"
       xlink:href="#lg2" />
    <linearGradient
       xlink:href="#lg2"
       id="linearGradient2757"
       gradientTransform="scale(2.091711,0.47807752)"
       x1="11.067016"
       y1="183.87918"
       x2="50.070971"
       y2="183.87918"
       gradientUnits="userSpaceOnUse" />
    <linearGradient
       xlink:href="#lg2"
       id="linearGradient1165"
       gradientTransform="scale(1.545004,0.64724753)"
       x1="14.474397"
       y1="23.904885"
       x2="59.08658"
       y2="23.904885"
       gradientUnits="userSpaceOnUse" />
  </defs>
  <g
     id="g1133"
     style="display:inline"
     transform="matrix(0.39166667,0,0,0.39166667,-1.0666669,-0.40783735)">
    <path
       d="m 4.094,72.619503 c 0.167,0.359 17.174,35.980997 52.787,40.120997 H 56.88 c 35.908,4.175 52.623,-22.471997 52.623,-22.471997 C 109.268,90.395503 85.76,105.9425 61.094,104.4595 29.77,102.5785 6.001,71.832503 5.765,71.552503 Z"
       id="path160"
       class="ColorScheme-Text"
       style="display:inline;fill:url(#oomox);fill-opacity:1" />
    <path
       d="M 59.094,105.4605 C 83.76,106.9425 109.268,90.396503 109.503,90.269503 109.268,90.396503 85.76,102.9435 61.094,101.4605 29.77,99.578503 6.001,71.832503 5.765,71.552503 c 0.236,0.28 22.005,32.025997 53.329,33.907997 z"
       id="path162"
       class="ColorScheme-Text"
       style="display:inline;fill:url(#oomox);fill-opacity:1" />
    <path
       d="m 89.953,97.865503 c -8.961,3.399997 -19.99,6.248997 -30.859,5.595997 -14.388,-0.864 -26.75,-8.029997 -35.945,-15.552997 8.57,8.511 21.011,17.572997 35.811,18.552997 22.398,1.482 45.56,-15.063997 45.774,-15.190997 -0.112,0.065 -5.998,3.52 -14.781,6.595 z"
       opacity="0.8"
       id="path220"
       style="display:inline;fill:url(#linearGradient2757);fill-opacity:1" />
  </g>
  <g
     transform="matrix(0.39166667,0,0,0.39166667,0.49999984,4.0773347)"
     id="g200"
     style="display:inline">
    <path
       id="path367"
       class="ColorScheme-Text"
       style="display:inline;fill:url(#oomox);fill-opacity:1"
       d="m 57.327128,15.286935 c -0.912468,-0.0016 -1.83551,0.04183 -2.762633,0.134641 C 39.730525,16.905574 28.86906,30.181683 30.354056,45.017653 31.838054,59.851623 45.116163,70.713088 59.950133,69.228092 74.783103,67.744094 85.644568,54.465985 84.160572,39.632015 82.769324,25.723293 71.014139,15.310779 57.327128,15.286935 Z m 0.748005,19.562833 a 7.395319,7.395319 0 0 1 7.395279,7.395279 7.395319,7.395319 0 0 1 -7.395279,7.395279 7.395319,7.395319 0 0 1 -7.395279,-7.395279 7.395319,7.395319 0 0 1 7.395279,-7.395279 z m -0.03989,5.011635 c -0.09184,1.65e-4 -0.18588,0.0056 -0.279255,0.01496 -1.494996,0.151 -2.588484,1.442318 -2.443484,2.882314 0.144,1.440998 1.47109,2.483777 2.967088,2.333777 1.493996,-0.149 2.588484,-1.436331 2.443484,-2.877327 -0.135,-1.350936 -1.310171,-2.356192 -2.687833,-2.353724 z" />
    <ellipse
       cx="58.042"
       cy="42.623001"
       fill="none"
       opacity="0.5"
       rx="13.083"
       ry="12.88"
       stroke="#ffffff"
       transform="matrix(0.995,-0.0996,0.0996,0.995,-3.9556,5.9912)"
       id="ellipse168"
       style="display:inline" />
    <ellipse
       cx="58.042"
       cy="42.623001"
       fill="none"
       opacity="0.5"
       rx="20.334"
       ry="20.018"
       stroke="#ffffff"
       transform="matrix(0.995,-0.0996,0.0996,0.995,-3.9555,5.991)"
       id="ellipse170"
       style="display:inline" />
  </g>
  <g
     id="g1140"
     style="display:inline"
     transform="matrix(0.39166667,0,0,0.39166667,-1.0666669,-0.40783735)">
    <path
       d="m 50.67,14.956503 c -33.137,12.531 -46.67,57.941 -46.67,57.941 0,0 40.192,25.092 73.33,12.562 33.137,-12.532 46.67,-57.942 46.67,-57.942 0,0 -40.192,-25.091 -73.33,-12.561 z m 24.201,64.002 c -30.996,11.721 -66.996,-7.526 -66.996,-7.526 0,0 16.146,-33.254 47.144,-44.976 30.996,-11.722 65.106,2.526 65.106,2.526 0,0 -14.256,38.255 -45.254,49.976 z"
       id="path202"
       class="ColorScheme-Text"
       style="display:inline;fill:url(#oomox);fill-opacity:1" />
    <path
       d="m 52.085,18.698503 c -12.858,4.862 -22.651,15.206 -29.722,25.649 7.87,-8.341 18.259,-16.723 31.24,-21.632 12.929,-4.889 26.266,-5.493 37.686,-4.452 -12.203,-3.144 -26.36,-4.422 -39.204,0.435 z"
       id="path204"
       style="display:inline;fill:url(#linearGradient1165)" />
    <path
       class="ColorScheme-Text"
       d="m 55.019,26.456503 c -30.998,11.722 -47.144,44.976 -47.144,44.976 0,0 36,19.247 66.996,7.526 30.998,-11.722 45.254,-49.976 45.254,-49.976 0,0 -34.11,-14.247 -65.106,-2.526 z m 15.758,50.929 c -28.323,10.524 -61.148,-6.579 -61.148,-6.579 0,0 14.81,-29.705 43.133,-40.228 28.321,-10.523 59.433,2.118 59.433,2.118 0,0 -13.096,34.165 -41.418,44.689 z"
       id="path206"
       style="display:inline;fill:url(#oomox);fill-opacity:1" />
    <path
       d="m 6.896,69.535503 -2.07,3.211 c -0.155,0.241 -0.135,0.555 0.051,0.773 l 1.827,2.148 c 0.221,0.261 0.605,0.305 0.879,0.104 0.275,-0.201 0.347,-0.582 0.166,-0.87 -1.164,-1.849 0.258,-4.689 0.272,-4.718 0.157,-0.309 0.045,-0.686 -0.254,-0.859 -0.302,-0.171 -0.684,-0.079 -0.871,0.211 z"
       opacity="0.6"
       id="path228"
       style="display:inline;fill:url(#radialGradient5041)" />
  </g>
  <metadata
     id="metadata873">
    <rdf:RDF>
      <cc:License
         rdf:about="http://creativecommons.org/licenses/by-sa/4.0/">
        <cc:permits
           rdf:resource="http://creativecommons.org/ns#Reproduction" />
        <cc:permits
           rdf:resource="http://creativecommons.org/ns#Distribution" />
        <cc:requires
           rdf:resource="http://creativecommons.org/ns#Notice" />
        <cc:requires
           rdf:resource="http://creativecommons.org/ns#Attribution" />
        <cc:permits
           rdf:resource="http://creativecommons.org/ns#DerivativeWorks" />
        <cc:requires
           rdf:resource="http://creativecommons.org/ns#ShareAlike" />
      </cc:License>
      <cc:Work
         rdf:about="">
        <cc:license
           rdf:resource="http://creativecommons.org/licenses/by-sa/4.0/" />
        <dc:contributor>
          <cc:Agent>
            <dc:title>dreifacherspass</dc:title>
          </cc:Agent>
        </dc:contributor>
      </cc:Work>
    </rdf:RDF>
  </metadata>
</svg>
