<?xml version="1.0" encoding="UTF-8" standalone="no"?>
<svg
   width="16"
   height="16"
   viewBox="0 0 0.0466666 0.0466666"
   xml:space="preserve"
   version="1.1"
   id="svg_gxmessage"
   xmlns="http://www.w3.org/2000/svg"
   xmlns:svg="http://www.w3.org/2000/svg"
   xmlns:rdf="http://www.w3.org/1999/02/22-rdf-syntax-ns#"
   xmlns:cc="http://creativecommons.org/ns#"
   xmlns:dc="http://purl.org/dc/elements/1.1/">
<defs>
   <style id="current-color-scheme" type="text/css">
   .ColorScheme-Text { color: #0abdc6; } .ColorScheme-Highlight { color:#5294e2; }
  </style>
  <linearGradient id="arrongin" x1="0%" x2="0%" y1="0%" y2="100%">
   <stop offset="0%" style="stop-color:#dd9b44; stop-opacity:1"/>
   <stop offset="100%" style="stop-color:#ad6c16; stop-opacity:1"/>
  </linearGradient>
  <linearGradient id="aurora" x1="0%" x2="0%" y1="0%" y2="100%">
   <stop offset="0%" style="stop-color:#09D4DF; stop-opacity:1"/>
   <stop offset="100%" style="stop-color:#9269F4; stop-opacity:1"/>
  </linearGradient>
  <linearGradient id="cyberneon" x1="0%" x2="0%" y1="0%" y2="100%">
    <stop offset="0" style="stop-color:#0abdc6; stop-opacity:1"/>
    <stop offset="1" style="stop-color:#ea00d9; stop-opacity:1"/>
  </linearGradient>
  <linearGradient id="fitdance" x1="0%" x2="0%" y1="0%" y2="100%">
   <stop offset="0%" style="stop-color:#1AD6AB; stop-opacity:1"/>
   <stop offset="100%" style="stop-color:#329DB6; stop-opacity:1"/>
  </linearGradient>
  <linearGradient id="oomox" x1="0%" x2="0%" y1="0%" y2="100%">
   <stop offset="0%" style="stop-color:#0abdc6; stop-opacity:1"/>
   <stop offset="100%" style="stop-color:#b800ff; stop-opacity:1"/>
  </linearGradient>
  <linearGradient id="rainblue" x1="0%" x2="0%" y1="0%" y2="100%">
   <stop offset="0%" style="stop-color:#00F260; stop-opacity:1"/>
   <stop offset="100%" style="stop-color:#0575E6; stop-opacity:1"/>
  </linearGradient>
  <linearGradient id="sunrise" x1="0%" x2="0%" y1="0%" y2="100%">
   <stop offset="0%" style="stop-color: #FF8501; stop-opacity:1"/>
   <stop offset="100%" style="stop-color: #FFCB01; stop-opacity:1"/>
  </linearGradient>
  <linearGradient id="telinkrin" x1="0%" x2="0%" y1="0%" y2="100%">
   <stop offset="0%" style="stop-color: #b2ced6; stop-opacity:1"/>
   <stop offset="100%" style="stop-color: #6da5b7; stop-opacity:1"/>
  </linearGradient>
  <linearGradient id="60spsycho" x1="0%" x2="0%" y1="0%" y2="100%">
   <stop offset="0%" style="stop-color: #df5940; stop-opacity:1"/>
   <stop offset="25%" style="stop-color: #d8d15f; stop-opacity:1"/>
   <stop offset="50%" style="stop-color: #e9882a; stop-opacity:1"/>
   <stop offset="100%" style="stop-color: #279362; stop-opacity:1"/>
  </linearGradient>
  <linearGradient id="90ssummer" x1="0%" x2="0%" y1="0%" y2="100%">
   <stop offset="0%" style="stop-color: #f618c7; stop-opacity:1"/>
   <stop offset="20%" style="stop-color: #94ffab; stop-opacity:1"/>
   <stop offset="50%" style="stop-color: #fbfd54; stop-opacity:1"/>
   <stop offset="100%" style="stop-color: #0f83ae; stop-opacity:1"/>
  </linearGradient>
 </defs>
<path
   id="path1"
   style="clip-rule:evenodd;fill-rule:evenodd;stroke-width:0.045722;image-rendering:optimizeQuality;shape-rendering:geometricPrecision;text-rendering:geometricPrecision;fill:url(#oomox)"
   class="ColorScheme-Text"
   d="M 0.012122379 0.017875951 C 0.010116903 0.017978491 0.00851073 0.019651464 0.00851073 0.021681284 C 0.00851073 0.023776582 0.010220765 0.025492314 0.012316063 0.025492314 C 0.014411361 0.025492314 0.016127093 0.023776582 0.016127093 0.021681284 C 0.016127093 0.019585986 0.014411361 0.017875951 0.012316063 0.017875951 C 0.012250585 0.017875951 0.012187071 0.017872643 0.012122379 0.017875951 z M 0.023105436 0.017875951 C 0.021099951 0.017978491 0.019493787 0.019651464 0.019493787 0.021681284 C 0.019493787 0.023776582 0.021203822 0.025492314 0.02329912 0.025492314 C 0.025394418 0.025492314 0.02711015 0.023776582 0.02711015 0.021681284 C 0.02711015 0.019585986 0.025394418 0.017875951 0.02329912 0.017875951 C 0.023233642 0.017875951 0.023170129 0.017872643 0.023105436 0.017875951 z M 0.034088493 0.017875951 C 0.032083179 0.017978491 0.030476844 0.019651464 0.030476844 0.021681284 C 0.030476844 0.023776582 0.032192776 0.025492314 0.034287874 0.025492314 C 0.036446772 0.025492314 0.038093207 0.023776582 0.038093207 0.021681284 C 0.038093207 0.019585986 0.036383172 0.017875951 0.034287874 0.017875951 C 0.034222402 0.017875951 0.034153181 0.017872643 0.034088493 0.017875951 z M 0.012196434 0.019653292 C 0.012236443 0.019651339 0.012274799 0.019653292 0.012316063 0.019653292 C 0.014910161 0.019653292 0.014910161 0.023714973 0.012316063 0.023714973 C 0.0096453777 0.023714973 0.0096758805 0.019776339 0.012196434 0.019653292 z M 0.023202278 0.019653292 C 0.023235733 0.019651457 0.023265392 0.019653292 0.02329912 0.019653292 C 0.024378569 0.019653292 0.025332809 0.020601985 0.025332809 0.021681284 C 0.025332809 0.022760463 0.024378419 0.023714973 0.02329912 0.023714973 C 0.022219951 0.023714973 0.021271128 0.022760383 0.021271128 0.021681284 C 0.021271128 0.020635655 0.022165177 0.019710178 0.023202278 0.019653292 z M 0.034185335 0.019653292 C 0.03421879 0.019651457 0.034254146 0.019653292 0.034287874 0.019653292 C 0.035430883 0.019653292 0.036315866 0.020601985 0.036315866 0.021681284 C 0.036315866 0.022760463 0.035367173 0.023714973 0.034287874 0.023714973 C 0.033208695 0.023714973 0.032254186 0.022760383 0.032254186 0.021681284 C 0.032254186 0.020635655 0.033148235 0.019710178 0.034185335 0.019653292 z " />
<path
   class="ColorScheme-Text"
   d="m 0.0448888,0.04352389 c -1.2711e-4,0 -2.5421e-4,0 -3.8086e-4,-6.355e-5 l -0.01117466,-0.005016 c -0.0031746,0.0012062 -0.0065396,0.001778 -0.01003176,0.001778 C 0.01047622,0.04022234 0,0.03190469 0,0.02168253 0,0.01146018 0.01047622,0.00314271 0.02330152,0.00314271 c 0.01288905,0 0.02336508,0.00831747 0.02336508,0.01853982 0,0.004508 -0.0020317,0.0087619 -0.0057143,0.01212699 l 0.0046984,0.008381 c 2.8393e-4,4.8964e-4 1.656e-5,0.0013333 -7.619e-4,0.0013334 z M 0.03333328,0.03653973 c 1.9066e-4,0 3.1731e-4,6.356e-5 5.0797e-4,1.2712e-4 l 0.0088889,0.004 -0.0036826,-0.0065397 c -2.6427e-4,-4.0509e-4 -1.7969e-4,-9.2775e-4 1.9066e-4,-0.00127 0.01277189,-0.01137278 0.0018442,-0.02780974 -0.01599987,-0.02780974 -0.01187306,0 -0.02146022,0.00749213 -0.02146022,0.01669853 0,0.0092065 0.00965071,0.01669867 0.02146022,0.01669867 0.0060603,0 0.0095123,-0.0019047 0.01009494,-0.0019049 z m -2.5421e-4,0.0017778 z m 0.0067936,-0.004762 z m 6.3489e-4,-5.7153e-4 c 0,0 6.355e-5,6.356e-5 6.355e-5,6.356e-5 0,1.8e-7 -6.355e-5,1.8e-7 -6.355e-5,-6.356e-5 z m 0,0 z m 0,0 z m 0,0 z m 0,0 z"
   id="path8"
   style="clip-rule:evenodd;fill-rule:evenodd;stroke-width:0.045722;image-rendering:optimizeQuality;shape-rendering:geometricPrecision;text-rendering:geometricPrecision;fill:url(#oomox)" />

<metadata
   id="metadata8"><rdf:RDF><cc:Work
       rdf:about=""><dc:creator><cc:Agent><dc:title>dreifacherspass</dc:title></cc:Agent></dc:creator><cc:license
         rdf:resource="http://creativecommons.org/licenses/by-sa/4.0/" /></cc:Work><cc:License
       rdf:about="http://creativecommons.org/licenses/by-sa/4.0/"><cc:permits
         rdf:resource="http://creativecommons.org/ns#Reproduction" /><cc:permits
         rdf:resource="http://creativecommons.org/ns#Distribution" /><cc:requires
         rdf:resource="http://creativecommons.org/ns#Notice" /><cc:requires
         rdf:resource="http://creativecommons.org/ns#Attribution" /><cc:permits
         rdf:resource="http://creativecommons.org/ns#DerivativeWorks" /><cc:requires
         rdf:resource="http://creativecommons.org/ns#ShareAlike" /></cc:License></rdf:RDF>
</metadata>
</svg>
