<?xml version="1.0" encoding="UTF-8" standalone="no"?>

<svg
   version="1.1"
   id="hdspconf"
   width="16"
   height="16"
   viewBox="0 0 1.29354 1.29354"
   xml:space="preserve"
   xmlns:xlink="http://www.w3.org/1999/xlink"
   xmlns="http://www.w3.org/2000/svg"
   xmlns:svg="http://www.w3.org/2000/svg"
   xmlns:rdf="http://www.w3.org/1999/02/22-rdf-syntax-ns#"
   xmlns:cc="http://creativecommons.org/ns#"
   xmlns:dc="http://purl.org/dc/elements/1.1/">
  <defs>
    <style id="current-color-scheme" type="text/css">
      .ColorScheme-Text { color: #0abdc6; } .ColorScheme-Highlight { color:#5294e2; }
    </style>
    <linearGradient id="arrongin" x1="0%" x2="0%" y1="0%" y2="100%">
      <stop offset="0%" style="stop-color:#dd9b44; stop-opacity:1"/>
      <stop offset="100%" style="stop-color:#ad6c16; stop-opacity:1"/>
    </linearGradient>
    <linearGradient id="aurora" x1="0%" x2="0%" y1="0%" y2="100%">
      <stop offset="0%" style="stop-color:#09D4DF; stop-opacity:1"/>
      <stop offset="100%" style="stop-color:#9269F4; stop-opacity:1"/>
    </linearGradient>
    <linearGradient id="cyberneon" x1="0%" x2="0%" y1="0%" y2="100%">
      <stop offset="0" style="stop-color:#0abdc6; stop-opacity:1"/>
      <stop offset="1" style="stop-color:#ea00d9; stop-opacity:1"/>
    </linearGradient>
    <linearGradient id="fitdance" x1="0%" x2="0%" y1="0%" y2="100%">
      <stop offset="0%" style="stop-color:#1AD6AB; stop-opacity:1"/>
      <stop offset="100%" style="stop-color:#329DB6; stop-opacity:1"/>
    </linearGradient>
    <linearGradient id="oomox" x1="0%" x2="0%" y1="0%" y2="100%">
      <stop offset="0%" style="stop-color:#0abdc6; stop-opacity:1"/>
      <stop offset="100%" style="stop-color:#b800ff; stop-opacity:1"/>
    </linearGradient>
    <linearGradient id="rainblue" x1="0%" x2="0%" y1="0%" y2="100%">
      <stop offset="0%" style="stop-color:#00F260; stop-opacity:1"/>
      <stop offset="100%" style="stop-color:#0575E6; stop-opacity:1"/>
    </linearGradient>
    <linearGradient id="sunrise" x1="0%" x2="0%" y1="0%" y2="100%">
      <stop offset="0%" style="stop-color: #FF8501; stop-opacity:1"/>
      <stop offset="100%" style="stop-color: #FFCB01; stop-opacity:1"/>
    </linearGradient>
    <linearGradient id="telinkrin" x1="0%" x2="0%" y1="0%" y2="100%">
      <stop offset="0%" style="stop-color: #b2ced6; stop-opacity:1"/>
      <stop offset="100%" style="stop-color: #6da5b7; stop-opacity:1"/>
    </linearGradient>
    <linearGradient id="60spsycho" x1="0%" x2="0%" y1="0%" y2="100%">
      <stop offset="0%" style="stop-color: #df5940; stop-opacity:1"/>
      <stop offset="25%" style="stop-color: #d8d15f; stop-opacity:1"/>
      <stop offset="50%" style="stop-color: #e9882a; stop-opacity:1"/>
      <stop offset="100%" style="stop-color: #279362; stop-opacity:1"/>
    </linearGradient>
    <linearGradient id="90ssummer" x1="0%" x2="0%" y1="0%" y2="100%">
      <stop offset="0%" style="stop-color: #f618c7; stop-opacity:1"/>
      <stop offset="20%" style="stop-color: #94ffab; stop-opacity:1"/>
      <stop offset="50%" style="stop-color: #fbfd54; stop-opacity:1"/>
      <stop offset="100%" style="stop-color: #0f83ae; stop-opacity:1"/>
    </linearGradient>
  </defs>
<path
   id="path_base"
   class="ColorScheme-Text"
   d="m -2.165e-5,1.29354 h 0.07776257 0.11894392 0.0253208 0.11896392 0.0253408 0.11896393 0.0261809 0.11898393 0.0262009 0.11896393 0.0261609 0.11898393 0.0265609 0.11898392 0.025661 0.118984 0.082623 V 1.2518586 H -2.165e-5 Z"
   style="stroke-width:0.0200007;fill:url(#oomox);opacity:1" />
<path
   id="path_matrix"
   style="stroke-width:0.0200007;opacity:1;fill:url(#oomox)"
   d="M 0.51144727 0.22343251 L 0.51144727 0.26875062 L 0.63034811 0.26875062 L 0.63034811 0.22343251 L 0.51144727 0.22343251 z M 0.51144727 0.29369927 L 0.51144727 0.33901738 L 0.63034811 0.33901738 L 0.63034811 0.29369927 L 0.51144727 0.29369927 z M 0.51144727 0.36380812 L 0.51144727 0.40912624 L 0.63034811 0.40912624 L 0.63034811 0.36380812 L 0.51144727 0.36380812 z M 0.51144727 0.43391698 L 0.51144727 0.479393 L 0.63034811 0.479393 L 0.63034811 0.43391698 L 0.51144727 0.43391698 z M 0.51144727 0.50418374 L 0.51144727 0.54950186 L 0.63034811 0.54950186 L 0.63034811 0.50418374 L 0.51144727 0.50418374 z M 0.51144727 0.5742926 L 0.51144727 0.61961071 L 0.63034811 0.61961071 L 0.63034811 0.5742926 L 0.51144727 0.5742926 z M 0.077688193 0.64455936 L 0.077688193 0.68987747 L 0.19674693 0.68987747 L 0.19674693 0.64455936 L 0.077688193 0.64455936 z M 0.51144727 0.64455936 L 0.51144727 0.68987747 L 0.63034811 0.68987747 L 0.63034811 0.64455936 L 0.51144727 0.64455936 z M 0.80183058 0.64455936 L 0.80183058 0.68987747 L 0.92073141 0.68987747 L 0.92073141 0.64455936 L 0.80183058 0.64455936 z M 0.077688193 0.71466822 L 0.077688193 0.75998633 L 0.19674693 0.75998633 L 0.19674693 0.71466822 L 0.077688193 0.71466822 z M 0.51144727 0.71466822 L 0.51144727 0.75998633 L 0.63034811 0.75998633 L 0.63034811 0.71466822 L 0.51144727 0.71466822 z M 0.80183058 0.71466822 L 0.80183058 0.75998633 L 0.92073141 0.75998633 L 0.92073141 0.71466822 L 0.80183058 0.71466822 z M 0.80183058 0.78477708 L 0.80183058 0.83025309 L 0.92073141 0.83025309 L 0.92073141 0.78477708 L 0.80183058 0.78477708 z M 0.077688193 0.78493498 L 0.077688193 0.83025309 L 0.19674693 0.83025309 L 0.19674693 0.78493498 L 0.077688193 0.78493498 z M 0.51144727 0.78493498 L 0.51144727 0.83025309 L 0.63034811 0.83025309 L 0.63034811 0.78493498 L 0.51144727 0.78493498 z M 0.077688193 0.85504384 L 0.077688193 0.90051985 L 0.19674693 0.90051985 L 0.19674693 0.85504384 L 0.077688193 0.85504384 z M 0.51144727 0.85504384 L 0.51144727 0.90036195 L 0.63034811 0.90036195 L 0.63034811 0.85504384 L 0.51144727 0.85504384 z M 0.80183058 0.85504384 L 0.80183058 0.90036195 L 0.92073141 0.90036195 L 0.92073141 0.85504384 L 0.80183058 0.85504384 z M 0.077688193 0.9253106 L 0.077688193 0.97062871 L 0.19674693 0.97062871 L 0.19674693 0.9253106 L 0.077688193 0.9253106 z M 0.36633457 0.9253106 L 0.36633457 0.97062871 L 0.4852354 0.97062871 L 0.4852354 0.9253106 L 0.36633457 0.9253106 z M 0.51144727 0.9253106 L 0.51144727 0.97062871 L 0.63034811 0.97062871 L 0.63034811 0.9253106 L 0.51144727 0.9253106 z M 0.80183058 0.9253106 L 0.80183058 0.97062871 L 0.92073141 0.97062871 L 0.92073141 0.9253106 L 0.80183058 0.9253106 z M 0.94725909 0.9253106 L 0.94725909 0.97062871 L 1.0663178 0.97062871 L 1.0663178 0.9253106 L 0.94725909 0.9253106 z M 0.36633457 0.99541945 L 0.36633457 1.0408955 L 0.4852354 1.0408955 L 0.4852354 0.99541945 L 0.36633457 0.99541945 z M 0.51144727 0.99541945 L 0.51144727 1.0408955 L 0.63034811 1.0408955 L 0.63034811 0.99541945 L 0.51144727 0.99541945 z M 0.65671788 0.99541945 L 0.65671788 1.0408955 L 0.77561871 1.0408955 L 0.77561871 0.99541945 L 0.65671788 0.99541945 z M 0.80183058 0.99541945 L 0.80183058 1.0408955 L 0.92073141 1.0408955 L 0.92073141 0.99541945 L 0.80183058 0.99541945 z M 0.94725909 0.99541945 L 0.94725909 1.0408955 L 1.0663178 1.0408955 L 1.0663178 0.99541945 L 0.94725909 0.99541945 z M 0.077688193 0.99557736 L 0.077688193 1.0408955 L 0.19674693 1.0408955 L 0.19674693 0.99557736 L 0.077688193 0.99557736 z M 0.077688193 1.0656862 L 0.077688193 1.1111622 L 0.19674693 1.1111622 L 0.19674693 1.0656862 L 0.077688193 1.0656862 z M 0.22201138 1.0656862 L 0.22201138 1.1110043 L 0.34091221 1.1110043 L 0.34091221 1.0656862 L 0.22201138 1.0656862 z M 0.36633457 1.0656862 L 0.36633457 1.1110043 L 0.4852354 1.1110043 L 0.4852354 1.0656862 L 0.36633457 1.0656862 z M 0.51144727 1.0656862 L 0.51144727 1.1110043 L 0.63034811 1.1110043 L 0.63034811 1.0656862 L 0.51144727 1.0656862 z M 0.65671788 1.0656862 L 0.65671788 1.1110043 L 0.77561871 1.1110043 L 0.77561871 1.0656862 L 0.65671788 1.0656862 z M 0.80183058 1.0656862 L 0.80183058 1.1110043 L 0.92073141 1.1110043 L 0.92073141 1.0656862 L 0.80183058 1.0656862 z M 0.94725909 1.0656862 L 0.94725909 1.1110043 L 1.0663178 1.1110043 L 1.0663178 1.0656862 L 0.94725909 1.0656862 z M 1.0918981 1.0656862 L 1.0918981 1.1110043 L 1.2109568 1.1110043 L 1.2109568 1.0656862 L 1.0918981 1.0656862 z M 0.077688193 1.135953 L 0.077688193 1.1812711 L 0.19674693 1.1812711 L 0.19674693 1.135953 L 0.077688193 1.135953 z M 0.22201138 1.135953 L 0.22201138 1.1812711 L 0.34091221 1.1812711 L 0.34091221 1.135953 L 0.22201138 1.135953 z M 0.36633457 1.135953 L 0.36633457 1.1812711 L 0.4852354 1.1812711 L 0.4852354 1.135953 L 0.36633457 1.135953 z M 0.51144727 1.135953 L 0.51144727 1.1812711 L 0.63034811 1.1812711 L 0.63034811 1.135953 L 0.51144727 1.135953 z M 0.65671788 1.135953 L 0.65671788 1.1812711 L 0.77561871 1.1812711 L 0.77561871 1.135953 L 0.65671788 1.135953 z M 0.80183058 1.135953 L 0.80183058 1.1812711 L 0.92073141 1.1812711 L 0.92073141 1.135953 L 0.80183058 1.135953 z M 0.94725909 1.135953 L 0.94725909 1.1812711 L 1.0663178 1.1812711 L 1.0663178 1.135953 L 0.94725909 1.135953 z M 1.0918981 1.135953 L 1.0918981 1.1812711 L 1.2109568 1.1812711 L 1.2109568 1.135953 L 1.0918981 1.135953 z M 0.077688193 1.2060618 L 0.077688193 1.2513799 L 0.19674693 1.2513799 L 0.19674693 1.2060618 L 0.077688193 1.2060618 z M 0.22201138 1.2060618 L 0.22201138 1.2513799 L 0.34091221 1.2513799 L 0.34091221 1.2060618 L 0.22201138 1.2060618 z M 0.36633457 1.2060618 L 0.36633457 1.2513799 L 0.4852354 1.2513799 L 0.4852354 1.2060618 L 0.36633457 1.2060618 z M 0.51144727 1.2060618 L 0.51144727 1.2513799 L 0.63034811 1.2513799 L 0.63034811 1.2060618 L 0.51144727 1.2060618 z M 0.65671788 1.2060618 L 0.65671788 1.2513799 L 0.77561871 1.2513799 L 0.77561871 1.2060618 L 0.65671788 1.2060618 z M 0.80183058 1.2060618 L 0.80183058 1.2513799 L 0.92073141 1.2513799 L 0.92073141 1.2060618 L 0.80183058 1.2060618 z M 0.94725909 1.2060618 L 0.94725909 1.2513799 L 1.0663178 1.2513799 L 1.0663178 1.2060618 L 0.94725909 1.2060618 z M 1.0918981 1.2060618 L 1.0918981 1.2513799 L 1.2109568 1.2513799 L 1.2109568 1.2060618 L 1.0918981 1.2060618 z " /><metadata
   id="metadata65"><rdf:RDF><cc:Work
       rdf:about=""><dc:creator><cc:Agent><dc:title>dreifacherspass</dc:title></cc:Agent></dc:creator><cc:license
         rdf:resource="http://creativecommons.org/licenses/by-sa/4.0/" /></cc:Work><cc:License
       rdf:about="http://creativecommons.org/licenses/by-sa/4.0/"><cc:permits
         rdf:resource="http://creativecommons.org/ns#Reproduction" /><cc:permits
         rdf:resource="http://creativecommons.org/ns#Distribution" /><cc:requires
         rdf:resource="http://creativecommons.org/ns#Notice" /><cc:requires
         rdf:resource="http://creativecommons.org/ns#Attribution" /><cc:permits
         rdf:resource="http://creativecommons.org/ns#DerivativeWorks" /><cc:requires
         rdf:resource="http://creativecommons.org/ns#ShareAlike" /></cc:License></rdf:RDF></metadata>
<path
   d="m 0.97015497,0 v 0.08495246 c -0.0253025,0.005221 -0.0493694,0.01524428 -0.0708975,0.02952757 L 0.83909627,0.05431888 0.78193447,0.1114807 0.84209557,0.1716419 c -0.0142277,0.02154 -0.0241972,0.0456063 -0.0293695,0.0708975 H 0.72761597 V 0.323385 h 0.0849524 c 0.005221,0.0253025 0.0152443,0.0493694 0.0295277,0.0708975 l -0.0601612,0.0601612 0.0571618,0.0571618 0.0601612,-0.0601611 c 0.02154,0.0142277 0.0456062,0.0241972 0.0708975,0.0293696 V 0.5659241 H 1.051001 V 0.4809715 C 1.076304,0.4757505 1.10037,0.4657272 1.121899,0.4514439 L 1.18206,0.5116051 1.239222,0.4544433 1.179061,0.3942821 C 1.193289,0.3727421 1.203257,0.3486758 1.208431,0.3233846 H 1.29354 v -0.0808455 h -0.084953 c -0.00523,-0.0253025 -0.015245,-0.0493694 -0.029528,-0.0708975 L 1.2392208,0.11148051 1.1820588,0.05431867 1.1218975,0.11447984 C 1.100358,0.10025198 1.0762923,0.09028247 1.0510011,0.08511009 V 0 Z m 0.0404227,0.16169098 c 0.066974,0 0.1212684,0.0542936 0.1212684,0.12126825 0,0.0669746 -0.054294,0.12126824 -0.1212684,0.12126824 -0.0669746,0 -0.1212682,-0.0542936 -0.1212682,-0.12126824 0,-0.0669746 0.0542936,-0.12126825 0.1212682,-0.12126825 z"
   style="fill:url(#oomox);fill-opacity:1;stroke-width:0.0404228"
   id="path_cog"
   class="ColorScheme-Text"/>
</svg>
