<?xml version="1.0" encoding="UTF-8" standalone="no"?>
<svg
   width="16"
   height="16"
   version="1"
   id="svg8"
   xmlns="http://www.w3.org/2000/svg"
   xmlns:svg="http://www.w3.org/2000/svg"
   xmlns:rdf="http://www.w3.org/1999/02/22-rdf-syntax-ns#"
   xmlns:cc="http://creativecommons.org/ns#"
   xmlns:dc="http://purl.org/dc/elements/1.1/">
  <defs>
   <style id="current-color-scheme" type="text/css">
   .ColorScheme-Text { color: #0abdc6; } .ColorScheme-Highlight { color:#5294e2; }
  </style>
  <linearGradient id="arrongin" x1="0%" x2="0%" y1="0%" y2="100%">
   <stop offset="0%" style="stop-color:#dd9b44; stop-opacity:1"/>
   <stop offset="100%" style="stop-color:#ad6c16; stop-opacity:1"/>
  </linearGradient>
  <linearGradient id="aurora" x1="0%" x2="0%" y1="0%" y2="100%">
   <stop offset="0%" style="stop-color:#09D4DF; stop-opacity:1"/>
   <stop offset="100%" style="stop-color:#9269F4; stop-opacity:1"/>
  </linearGradient>
  <linearGradient id="cyberneon" x1="0%" x2="0%" y1="0%" y2="100%">
    <stop offset="0" style="stop-color:#0abdc6; stop-opacity:1"/>
    <stop offset="1" style="stop-color:#ea00d9; stop-opacity:1"/>
  </linearGradient>
  <linearGradient id="fitdance" x1="0%" x2="0%" y1="0%" y2="100%">
   <stop offset="0%" style="stop-color:#1AD6AB; stop-opacity:1"/>
   <stop offset="100%" style="stop-color:#329DB6; stop-opacity:1"/>
  </linearGradient>
  <linearGradient id="oomox" x1="0%" x2="0%" y1="0%" y2="100%">
   <stop offset="0%" style="stop-color:#0abdc6; stop-opacity:1"/>
   <stop offset="100%" style="stop-color:#b800ff; stop-opacity:1"/>
  </linearGradient>
  <linearGradient id="rainblue" x1="0%" x2="0%" y1="0%" y2="100%">
   <stop offset="0%" style="stop-color:#00F260; stop-opacity:1"/>
   <stop offset="100%" style="stop-color:#0575E6; stop-opacity:1"/>
  </linearGradient>
  <linearGradient id="sunrise" x1="0%" x2="0%" y1="0%" y2="100%">
   <stop offset="0%" style="stop-color: #FF8501; stop-opacity:1"/>
   <stop offset="100%" style="stop-color: #FFCB01; stop-opacity:1"/>
  </linearGradient>
  <linearGradient id="telinkrin" x1="0%" x2="0%" y1="0%" y2="100%">
   <stop offset="0%" style="stop-color: #b2ced6; stop-opacity:1"/>
   <stop offset="100%" style="stop-color: #6da5b7; stop-opacity:1"/>
  </linearGradient>
  <linearGradient id="60spsycho" x1="0%" x2="0%" y1="0%" y2="100%">
   <stop offset="0%" style="stop-color: #df5940; stop-opacity:1"/>
   <stop offset="25%" style="stop-color: #d8d15f; stop-opacity:1"/>
   <stop offset="50%" style="stop-color: #e9882a; stop-opacity:1"/>
   <stop offset="100%" style="stop-color: #279362; stop-opacity:1"/>
  </linearGradient>
  <linearGradient id="90ssummer" x1="0%" x2="0%" y1="0%" y2="100%">
   <stop offset="0%" style="stop-color: #f618c7; stop-opacity:1"/>
   <stop offset="20%" style="stop-color: #94ffab; stop-opacity:1"/>
   <stop offset="50%" style="stop-color: #fbfd54; stop-opacity:1"/>
   <stop offset="100%" style="stop-color: #0f83ae; stop-opacity:1"/>
  </linearGradient>
 </defs>
  <rect
     style="fill:url(#oomox);stroke-width:0.399997"
     width="0.80000001"
     height="16"
     x="7.5999999"
     y="1.7713884e-09"
     id="rect3"
     class="ColorScheme-Text"/>
  <path
     style="fill:url(#oomox);stroke-width:0.399997"
     d="m 3.1085237,6.3096592 c 0,0 0.2208253,0.7092971 0.6062429,1.1290227 1.1988436,1.3055594 2.7624131,1.185709 3.454139,2.5378541 v 5.974325 c 0,0 -0.2039253,-0.832226 -0.3776904,-1.370638 C 6.2656179,12.951652 2.6670397,10.319774 2.7328925,7.4365531 2.7468325,6.8262131 3.1085237,6.3096592 3.1085237,6.3096592 Z"
     id="path4"
     class="ColorScheme-Text"/>
  <path
     style="fill:url(#oomox);stroke-width:0.399997"
     d="m 5.022455,3.357 c 0,0 0.1473349,1.4429838 0.5366159,2.0212542 0.3709214,0.5509955 1.6098347,1.1984424 1.6098347,1.1984424 V 9.8858289 C 6.0890523,8.8996742 3.8180422,7.3352539 5.022455,3.357 Z"
     id="path5"
     class="ColorScheme-Text"/>
  <path
     style="fill:url(#oomox);stroke-width:0.399997"
     d="m 6.4629197,2.9826397 c 0,0 0.6200584,1.3545499 0.6702112,1.7615216 0.055075,0.4469032 0.035776,0.8321227 0.035776,0.8321227 0,0 -0.8082088,-0.3640493 -0.9617213,-0.737792 C 5.9699269,4.2608571 6.4629216,2.9826397 6.4629197,2.9826397 Z"
     id="path6"
     class="ColorScheme-Text"/>
  <path
     style="fill:url(#oomox);stroke-width:0.399997"
     d="M 3.2695089,4.6282627 3.6451397,4.0022101 3.4304934,6.1486747 C 3.0864013,5.5309851 2.9303513,5.1935251 3.2695089,4.6282627 Z"
     id="path7"
     class="ColorScheme-Text"/>
  <path
     style="fill:url(#oomox);stroke-width:0.399997"
     d="M 5.5633941,1.9114262 5.4053501,1.584 C 5.3654022,2.163491 4.9676922,2.6356685 5.3086502,3.0458688 5.7911115,2.7143702 5.8026107,2.4070187 5.5633941,1.9114262 Z"
     id="path8"
     class="ColorScheme-Text"/>
  <metadata
     id="metadata8">
    <rdf:RDF>
      <cc:Work
         rdf:about="">
        <dc:creator>
          <cc:Agent>
            <dc:title>dreifacherspass</dc:title>
          </cc:Agent>
        </dc:creator>
        <cc:license
           rdf:resource="http://creativecommons.org/licenses/by-sa/4.0/" />
      </cc:Work>
      <cc:License
         rdf:about="http://creativecommons.org/licenses/by-sa/4.0/">
        <cc:permits
           rdf:resource="http://creativecommons.org/ns#Reproduction" />
        <cc:permits
           rdf:resource="http://creativecommons.org/ns#Distribution" />
        <cc:requires
           rdf:resource="http://creativecommons.org/ns#Notice" />
        <cc:requires
           rdf:resource="http://creativecommons.org/ns#Attribution" />
        <cc:permits
           rdf:resource="http://creativecommons.org/ns#DerivativeWorks" />
        <cc:requires
           rdf:resource="http://creativecommons.org/ns#ShareAlike" />
      </cc:License>
    </rdf:RDF>
  </metadata>
  <path
     transform="matrix(-0.55286831,0,0,0.6121617,16.24335,0.54886496)"
     id="path1"
     class="ColorScheme-Text"
     d="m 11.991174,1.1155472 c 0,0 0.186979,3.0899656 0.57626,3.668236 0.370921,0.5509955 1.609834,1.1984424 1.609834,1.1984424 V 9.2913579 C 13.097415,8.3052032 10.786761,5.0938011 11.991174,1.1155472 Z"
     style="opacity:0.5;fill:url(#oomox);stroke-width:0.399997" />
  <path
     transform="matrix(-0.55701849,0,0,0.55701849,18.637676,0.84065188)"
     id="path2"
     class="ColorScheme-Text"
     d="m 14.309723,6.0991658 c 0,0 0.220825,0.7092971 0.606243,1.1290227 1.198844,1.3055594 2.762413,1.185709 3.454139,2.5378541 v 5.9743254 c 0,0 -0.203926,-0.832226 -0.377691,-1.370638 -0.525597,-1.628571 -4.124175,-4.260449 -4.058322,-7.1436703 0.01394,-0.61034 0.375631,-1.1268939 0.375631,-1.1268939 z"
     style="opacity:0.5;fill:url(#oomox);stroke-width:0.399997" />
  <path
     transform="matrix(-0.58938372,0,0,0.58938372,16.668798,-0.15160577)"
     id="path3"
     class="ColorScheme-Text"
     d="m 13.320299,4 c 0,0 0.620058,1.3545499 0.670211,1.7615216 0.05508,0.4469032 0.03578,0.8321227 0.03578,0.8321227 0,0 -0.808209,-0.3640493 -0.961722,-0.737792 C 12.827306,5.2782174 13.320301,4 13.320299,4 Z"
     style="opacity:0.5;fill:url(#oomox);stroke-width:0.399997" />
  <path
     id="path9"
     class="ColorScheme-Text"
     d="M 11.863025,1.0123577 11.704981,0.68493151 C 11.665033,1.2644225 11.267323,1.7366 11.608281,2.1468003 12.090743,1.8153017 12.102242,1.5079502 11.863025,1.0123577 Z"
     style="opacity:0.5;fill:url(#oomox);stroke-width:0.399997"
     transform="matrix(-0.71819687,0,0,0.74511889,17.92993,-0.51035541)" />
  <path
     id="path12"
     class="ColorScheme-Text"
     d="M 13.578113,2.8945458 13.953744,2.2684932 13.739098,4.4149578 C 13.395006,3.7972682 13.238956,3.4598082 13.578113,2.8945458 Z"
     style="opacity:0.5;fill:url(#oomox);stroke-width:0.399997"
     transform="matrix(-0.805935,0,0,0.58134407,21.707856,1.4725539)" />
</svg>
