<?xml version="1.0" encoding="UTF-8" standalone="no"?>
<svg
   width="16"
   height="16"
   version="1.1"
   id="svg5"
   xmlns="http://www.w3.org/2000/svg"
   xmlns:svg="http://www.w3.org/2000/svg"
   xmlns:rdf="http://www.w3.org/1999/02/22-rdf-syntax-ns#"
   xmlns:cc="http://creativecommons.org/ns#"
   xmlns:dc="http://purl.org/dc/elements/1.1/">
  <defs>
   <style id="current-color-scheme" type="text/css">
   .ColorScheme-Text { color: #0abdc6; } .ColorScheme-Highlight { color:#5294e2; }
  </style>
  <linearGradient id="arrongin" x1="0%" x2="0%" y1="0%" y2="100%">
   <stop offset="0%" style="stop-color:#dd9b44; stop-opacity:1"/>
   <stop offset="100%" style="stop-color:#ad6c16; stop-opacity:1"/>
  </linearGradient>
  <linearGradient id="aurora" x1="0%" x2="0%" y1="0%" y2="100%">
   <stop offset="0%" style="stop-color:#09D4DF; stop-opacity:1"/>
   <stop offset="100%" style="stop-color:#9269F4; stop-opacity:1"/>
  </linearGradient>
  <linearGradient id="cyberneon" x1="0%" x2="0%" y1="0%" y2="100%">
    <stop offset="0" style="stop-color:#0abdc6; stop-opacity:1"/>
    <stop offset="1" style="stop-color:#ea00d9; stop-opacity:1"/>
  </linearGradient>
  <linearGradient id="fitdance" x1="0%" x2="0%" y1="0%" y2="100%">
   <stop offset="0%" style="stop-color:#1AD6AB; stop-opacity:1"/>
   <stop offset="100%" style="stop-color:#329DB6; stop-opacity:1"/>
  </linearGradient>
  <linearGradient id="oomox" x1="0%" x2="0%" y1="0%" y2="100%">
   <stop offset="0%" style="stop-color:#0abdc6; stop-opacity:1"/>
   <stop offset="100%" style="stop-color:#b800ff; stop-opacity:1"/>
  </linearGradient>
  <linearGradient id="rainblue" x1="0%" x2="0%" y1="0%" y2="100%">
   <stop offset="0%" style="stop-color:#00F260; stop-opacity:1"/>
   <stop offset="100%" style="stop-color:#0575E6; stop-opacity:1"/>
  </linearGradient>
  <linearGradient id="sunrise" x1="0%" x2="0%" y1="0%" y2="100%">
   <stop offset="0%" style="stop-color: #FF8501; stop-opacity:1"/>
   <stop offset="100%" style="stop-color: #FFCB01; stop-opacity:1"/>
  </linearGradient>
  <linearGradient id="telinkrin" x1="0%" x2="0%" y1="0%" y2="100%">
   <stop offset="0%" style="stop-color: #b2ced6; stop-opacity:1"/>
   <stop offset="100%" style="stop-color: #6da5b7; stop-opacity:1"/>
  </linearGradient>
  <linearGradient id="60spsycho" x1="0%" x2="0%" y1="0%" y2="100%">
   <stop offset="0%" style="stop-color: #df5940; stop-opacity:1"/>
   <stop offset="25%" style="stop-color: #d8d15f; stop-opacity:1"/>
   <stop offset="50%" style="stop-color: #e9882a; stop-opacity:1"/>
   <stop offset="100%" style="stop-color: #279362; stop-opacity:1"/>
  </linearGradient>
  <linearGradient id="90ssummer" x1="0%" x2="0%" y1="0%" y2="100%">
   <stop offset="0%" style="stop-color: #f618c7; stop-opacity:1"/>
   <stop offset="20%" style="stop-color: #94ffab; stop-opacity:1"/>
   <stop offset="50%" style="stop-color: #fbfd54; stop-opacity:1"/>
   <stop offset="100%" style="stop-color: #0f83ae; stop-opacity:1"/>
  </linearGradient>
 </defs>
  <path
     id="circle2"
     class="ColorScheme-Text"
     style="display:inline;opacity:0.3;fill:url(#oomox);stroke-width:0.800022"
     d="M 8,2.4004774 A 6.4000001,6.4003472 0 0 0 1.5996094,8.8012151 6.4000001,6.4003472 0 0 0 8,15.2 6.4000001,6.4003472 0 0 0 12.800781,13.026054 V 8.0394551 c 0,0 -0.977483,-1.1322938 -3.2011716,-1.4395312 v 4.0881121 1.746189 C 9.0955759,12.685218 8.5524994,12.804979 8,12.799479 Z" />
  <path
     id="rect2"
     style="display:inline;opacity:0.1;fill:#072640;stroke-width:0.800022"
     d="M 2.4003906,4.8009982 V 8.8012151 H 8 V 4.8009982 Z m 7.1992188,1.7989257 v 2.2012912 h 3.2011716 v -0.76176 c 0,0 -0.977483,-1.1322939 -3.2011716,-1.4395312 z" />
  <path
     id="path3"
     class="ColorScheme-Text"
     style="display:inline;fill:url(#oomox);fill-opacity:1;stroke-width:0.800022"
     d="m 8,0.80078131 c -4.4182736,0 -8,3.58192069 -8,8.00043379 0.00809519,2.5091159 1.1920152,4.8679289 3.1992188,6.3733929 V 8.0394551 c 0,0 0.9774824,-1.132294 3.2011718,-1.4395312 v 4.0881121 1.746189 C 6.9246381,12.671979 7.4660223,12.794226 8,12.799479 Z M 8,12.799479 c 0.069215,6.81e-4 0.1381663,-6.14e-4 0.2070312,-0.0039 -0.068721,0.0032 -0.1379688,0.0046 -0.2070312,0.0039 z m 0.2070312,-0.0039 c 0.064965,-0.0031 0.1307608,-0.009 0.1953126,-0.01563 -0.065052,0.0067 -0.1298453,0.01253 -0.1953126,0.01563 z M 12.033203,7.4359068 c 0.13051,0.080394 0.24355,0.1587124 0.339844,0.2304812 C 12.276757,7.594619 12.163713,7.5163006 12.033203,7.4359068 Z M 8.7382812,12.729163 c -0.040738,0.0082 -0.082062,0.01667 -0.1230468,0.02344 0.041052,-0.0068 0.082244,-0.01516 0.1230468,-0.02344 z" />
  <path
     style="opacity:0.8;fill:url(#oomox);stroke-width:0.800022"
     d="M 8,0.79999997 V 12.799869 c 0.5525,0.0055 1.0959664,-0.11465 1.6,-0.365644 V 10.688818 6.6003146 c 2.223691,0.3072374 3.2,1.4399221 3.2,1.4399221 V 15.174998 C 14.807206,13.669532 15.991905,11.309552 16,8.8004339 16,4.3819163 12.418278,0.79999997 8,0.79999997 Z"
     id="path4"
     class="ColorScheme-Text" />
  <metadata
     id="metadata24">
    <rdf:RDF>
      <cc:Work
         rdf:about="">
        <dc:creator>
          <cc:Agent>
            <dc:title>dreifacherspass</dc:title>
          </cc:Agent>
        </dc:creator>
        <cc:license
           rdf:resource="http://creativecommons.org/licenses/by-sa/4.0/" />
      </cc:Work>
      <cc:License
         rdf:about="http://creativecommons.org/licenses/by-sa/4.0/">
        <cc:permits
           rdf:resource="http://creativecommons.org/ns#Reproduction" />
        <cc:permits
           rdf:resource="http://creativecommons.org/ns#Distribution" />
        <cc:requires
           rdf:resource="http://creativecommons.org/ns#Notice" />
        <cc:requires
           rdf:resource="http://creativecommons.org/ns#Attribution" />
        <cc:permits
           rdf:resource="http://creativecommons.org/ns#DerivativeWorks" />
        <cc:requires
           rdf:resource="http://creativecommons.org/ns#ShareAlike" />
      </cc:License>
    </rdf:RDF>
  </metadata>
</svg>
