<?xml version="1.0" encoding="UTF-8" standalone="no"?>
<svg
   width="16"
   height="16"
   version="1.1"
   viewBox="0 0 4.2333333 4.2333332"
   id="svg46"
   xmlns="http://www.w3.org/2000/svg"
   xmlns:svg="http://www.w3.org/2000/svg"
   xmlns:rdf="http://www.w3.org/1999/02/22-rdf-syntax-ns#"
   xmlns:cc="http://creativecommons.org/ns#"
   xmlns:dc="http://purl.org/dc/elements/1.1/">
   <defs>
      <style id="current-color-scheme" type="text/css">
         .ColorScheme-Text { color: #0abdc6; } .ColorScheme-Highlight { color:#5294e2; }
      </style>
      <linearGradient id="arrongin" x1="0%" x2="0%" y1="0%" y2="100%">
         <stop offset="0%" style="stop-color:#dd9b44; stop-opacity:1"/>
         <stop offset="100%" style="stop-color:#ad6c16; stop-opacity:1"/>
      </linearGradient>
      <linearGradient id="aurora" x1="0%" x2="0%" y1="0%" y2="100%">
         <stop offset="0%" style="stop-color:#09D4DF; stop-opacity:1"/>
         <stop offset="100%" style="stop-color:#9269F4; stop-opacity:1"/>
      </linearGradient>
      <linearGradient id="cyberneon" x1="0%" x2="0%" y1="0%" y2="100%">
         <stop offset="0" style="stop-color:#0abdc6; stop-opacity:1"/>
         <stop offset="1" style="stop-color:#ea00d9; stop-opacity:1"/>
      </linearGradient>
      <linearGradient id="fitdance" x1="0%" x2="0%" y1="0%" y2="100%">
         <stop offset="0%" style="stop-color:#1AD6AB; stop-opacity:1"/>
         <stop offset="100%" style="stop-color:#329DB6; stop-opacity:1"/>
      </linearGradient>
      <linearGradient id="oomox" x1="0%" x2="0%" y1="0%" y2="100%">
         <stop offset="0%" style="stop-color:#0abdc6; stop-opacity:1"/>
         <stop offset="100%" style="stop-color:#b800ff; stop-opacity:1"/>
      </linearGradient>
      <linearGradient id="rainblue" x1="0%" x2="0%" y1="0%" y2="100%">
         <stop offset="0%" style="stop-color:#00F260; stop-opacity:1"/>
         <stop offset="100%" style="stop-color:#0575E6; stop-opacity:1"/>
      </linearGradient>
      <linearGradient id="sunrise" x1="0%" x2="0%" y1="0%" y2="100%">
         <stop offset="0%" style="stop-color: #FF8501; stop-opacity:1"/>
         <stop offset="100%" style="stop-color: #FFCB01; stop-opacity:1"/>
      </linearGradient>
      <linearGradient id="telinkrin" x1="0%" x2="0%" y1="0%" y2="100%">
         <stop offset="0%" style="stop-color: #b2ced6; stop-opacity:1"/>
         <stop offset="100%" style="stop-color: #6da5b7; stop-opacity:1"/>
      </linearGradient>
      <linearGradient id="60spsycho" x1="0%" x2="0%" y1="0%" y2="100%">
         <stop offset="0%" style="stop-color: #df5940; stop-opacity:1"/>
         <stop offset="25%" style="stop-color: #d8d15f; stop-opacity:1"/>
         <stop offset="50%" style="stop-color: #e9882a; stop-opacity:1"/>
         <stop offset="100%" style="stop-color: #279362; stop-opacity:1"/>
      </linearGradient>
      <linearGradient id="90ssummer" x1="0%" x2="0%" y1="0%" y2="100%">
         <stop offset="0%" style="stop-color: #f618c7; stop-opacity:1"/>
         <stop offset="20%" style="stop-color: #94ffab; stop-opacity:1"/>
         <stop offset="50%" style="stop-color: #fbfd54; stop-opacity:1"/>
         <stop offset="100%" style="stop-color: #0f83ae; stop-opacity:1"/>
      </linearGradient>
   </defs>
  <path
     transform="matrix(0.13916587,0,0,0.17979335,-11.413453,-47.40396)"
     d="m 82.188,271.97 0.0251,6.963 2.7061,-0.008 v -1.2194 h -1.0357 v -4.602 h 1.019 v -1.1442 z"
     id="path19"
     class="ColorScheme-Text"
     style="fill:url(#oomox);opacity:1" />
  <path
     id="path20"
     class="ColorScheme-Text"
     style="fill:url(#oomox);opacity:0.5"
     d="M 85.399833 263.81898 L 85.399833 263.82473 L 85.399833 270.83781 L 87.171076 270.83781 L 87.171076 263.81898 L 85.399833 263.81898 z M 88.136533 263.81898 L 88.136533 263.82473 L 88.136533 270.83781 L 89.907776 270.83781 L 89.907776 263.81898 L 88.136533 263.81898 z M 90.869521 263.81898 L 90.869521 263.82473 L 90.869521 270.83781 L 92.640764 270.83781 L 92.640764 263.81898 L 90.869521 263.81898 z M 101.80147 263.81898 L 101.80147 263.82473 L 101.80147 270.83781 L 103.57271 270.83781 L 103.57271 263.81898 L 101.80147 263.81898 z M 104.53817 263.81898 L 104.53817 263.82473 L 104.53817 270.83781 L 106.31313 270.83781 L 106.31313 263.81898 L 104.53817 263.81898 z M 85.399833 271.94726 L 85.399833 271.95013 L 85.399833 278.96321 L 87.171076 278.96321 L 87.171076 271.94726 L 85.399833 271.94726 z M 88.136533 271.94726 L 88.136533 271.95013 L 88.136533 278.96321 L 89.907776 278.96321 L 89.907776 271.94726 L 88.136533 271.94726 z M 90.869521 271.94726 L 90.869521 271.95013 L 90.869521 278.96321 L 92.640764 278.96321 L 92.640764 271.94726 L 90.869521 271.94726 z M 93.602508 271.94726 L 93.602508 271.95013 L 93.602508 278.96321 L 95.373751 278.96321 L 95.373751 271.94726 L 93.602508 271.94726 z M 96.335495 271.94726 L 96.335495 271.95013 L 96.335495 278.96321 L 98.106738 278.96321 L 98.106738 271.94726 L 96.335495 271.94726 z M 99.068482 271.94726 L 99.068482 271.95013 L 99.068482 278.96321 L 100.83973 278.96321 L 100.83973 271.94726 L 99.068482 271.94726 z M 101.80147 271.94726 L 101.80147 271.95013 L 101.80147 278.96321 L 103.57271 278.96321 L 103.57271 271.94726 L 101.80147 271.94726 z M 85.399833 280.02954 L 85.399833 280.03242 L 85.399833 287.0455 L 87.171076 287.0455 L 87.171076 280.02954 L 85.399833 280.02954 z M 88.136533 280.02954 L 88.136533 280.03242 L 88.136533 287.0455 L 89.907776 287.0455 L 89.907776 280.02954 L 88.136533 280.02954 z M 90.869521 280.02954 L 90.869521 280.03242 L 90.869521 287.0455 L 92.640764 287.0455 L 92.640764 280.02954 L 90.869521 280.02954 z "
     transform="matrix(0.13916587,0,0,0.17979335,-11.413453,-47.40396)" />
  <path
     transform="matrix(-0.13916587,0,0,0.17979335,13.257165,-5.922398)"
     d="m 65.017,41.255 0.02508,6.963 2.7061,-0.0084 v -1.2194 h -1.0357 v -4.602 h 1.019 V 41.244 Z"
     id="path21"
     class="ColorScheme-Text"
     style="fill:url(#oomox);opacity:1" />
  <path
     id="path28"
     class="ColorScheme-Text"
     style="fill:url(#oomox)"
     d="M 107.27116 263.81898 L 107.27116 263.82473 L 107.27116 270.83781 L 109.0424 270.83781 L 109.0424 263.81898 L 107.27116 263.81898 z M 104.53817 271.94726 L 104.53817 271.95013 L 104.53817 278.96321 L 106.31313 278.96321 L 106.31313 271.94726 L 104.53817 271.94726 z M 107.27116 271.94726 L 107.27116 271.95013 L 107.27116 278.96321 L 109.0424 278.96321 L 109.0424 271.94726 L 107.27116 271.94726 z M 101.80147 280.02954 L 101.80147 280.03242 L 101.80147 287.0455 L 103.57271 287.0455 L 103.57271 280.02954 L 101.80147 280.02954 z M 104.53817 280.02954 L 104.53817 280.03242 L 104.53817 287.0455 L 106.31313 287.0455 L 106.31313 280.02954 L 104.53817 280.02954 z M 107.27116 280.02954 L 107.27116 280.03242 L 107.27116 287.0455 L 109.0424 287.0455 L 109.0424 280.02954 L 107.27116 280.02954 z "
     transform="matrix(0.13916587,0,0,0.17979335,-11.413453,-47.40396)" />
  <path
     transform="matrix(0.13916587,0,0,0.17979335,-11.413453,-46.810045)"
     d="m 82.188,260.54 0.0251,6.963 2.7061,-0.008 v -1.2194 h -1.0357 v -4.602 h 1.019 v -1.1442 z"
     id="path30"
     class="ColorScheme-Text"
     style="fill:url(#oomox);opacity:1" />
  <path
     transform="matrix(-0.13916587,0,0,0.17979335,13.257165,-7.3836063)"
     d="m 65.017,41.255 0.02508,6.963 2.7061,-0.0084 v -1.2194 h -1.0357 v -4.602 h 1.019 V 41.244 Z"
     id="path32"
     class="ColorScheme-Text"
     style="fill:url(#oomox);opacity:1" />
  <path
     transform="matrix(0.13916587,0,0,0.17979335,-11.413453,-48.004069)"
     d="m 82.188,283.39 0.0251,6.963 2.7061,-0.008 v -1.2194 h -1.0357 v -4.602 h 1.019 v -1.1442 z"
     id="path37"
     class="ColorScheme-Text"
     style="fill:url(#oomox);opacity:1" />
  <path
     transform="matrix(-0.13916587,0,0,0.17979335,13.257165,-4.4682284)"
     d="m 65.017,41.255 0.02508,6.963 2.7061,-0.0084 v -1.2194 h -1.0357 v -4.602 h 1.019 V 41.244 Z"
     id="path39"
     class="ColorScheme-Text"
     style="fill:url(#oomox);opacity:1" />
  <metadata
     id="metadata75">
    <rdf:RDF>
      <cc:Work
         rdf:about="">
        <dc:creator>
          <cc:Agent>
            <dc:title>dreifacherspass</dc:title>
          </cc:Agent>
        </dc:creator>
        <cc:license
           rdf:resource="http://creativecommons.org/licenses/by-sa/4.0/" />
      </cc:Work>
      <cc:License
         rdf:about="http://creativecommons.org/licenses/by-sa/4.0/">
        <cc:permits
           rdf:resource="http://creativecommons.org/ns#Reproduction" />
        <cc:permits
           rdf:resource="http://creativecommons.org/ns#Distribution" />
        <cc:requires
           rdf:resource="http://creativecommons.org/ns#Notice" />
        <cc:requires
           rdf:resource="http://creativecommons.org/ns#Attribution" />
        <cc:permits
           rdf:resource="http://creativecommons.org/ns#DerivativeWorks" />
        <cc:requires
           rdf:resource="http://creativecommons.org/ns#ShareAlike" />
      </cc:License>
    </rdf:RDF>
  </metadata>
</svg>
