<?xml version="1.0" encoding="UTF-8" standalone="no"?>
<svg
   width="16"
   height="16"
   viewBox="0 0 0.64 0.64"
   version="1.1"
   id="svg_camera_controls"
   xmlns:xlink="http://www.w3.org/1999/xlink"
   xmlns="http://www.w3.org/2000/svg"
   xmlns:svg="http://www.w3.org/2000/svg"
   xmlns:rdf="http://www.w3.org/1999/02/22-rdf-syntax-ns#"
   xmlns:cc="http://creativecommons.org/ns#"
   xmlns:dc="http://purl.org/dc/elements/1.1/">
   <defs>
      <style id="current-color-scheme" type="text/css">
         .ColorScheme-Text { color: #0abdc6; } .ColorScheme-Highlight { color:#5294e2; }
      </style>
      <linearGradient id="arrongin" x1="0%" x2="0%" y1="0%" y2="100%">
         <stop offset="0%" style="stop-color:#dd9b44; stop-opacity:1"/>
         <stop offset="100%" style="stop-color:#ad6c16; stop-opacity:1"/>
      </linearGradient>
      <linearGradient id="aurora" x1="0%" x2="0%" y1="0%" y2="100%">
         <stop offset="0%" style="stop-color:#09D4DF; stop-opacity:1"/>
         <stop offset="100%" style="stop-color:#9269F4; stop-opacity:1"/>
      </linearGradient>
      <linearGradient id="cyberneon" x1="0%" x2="0%" y1="0%" y2="100%">
         <stop offset="0" style="stop-color:#0abdc6; stop-opacity:1"/>
         <stop offset="1" style="stop-color:#ea00d9; stop-opacity:1"/>
      </linearGradient>
      <linearGradient id="fitdance" x1="0%" x2="0%" y1="0%" y2="100%">
         <stop offset="0%" style="stop-color:#1AD6AB; stop-opacity:1"/>
         <stop offset="100%" style="stop-color:#329DB6; stop-opacity:1"/>
      </linearGradient>
      <linearGradient id="oomox" x1="0%" x2="0%" y1="0%" y2="100%">
         <stop offset="0%" style="stop-color:#0abdc6; stop-opacity:1"/>
         <stop offset="100%" style="stop-color:#b800ff; stop-opacity:1"/>
      </linearGradient>
      <linearGradient id="rainblue" x1="0%" x2="0%" y1="0%" y2="100%">
         <stop offset="0%" style="stop-color:#00F260; stop-opacity:1"/>
         <stop offset="100%" style="stop-color:#0575E6; stop-opacity:1"/>
      </linearGradient>
      <linearGradient id="sunrise" x1="0%" x2="0%" y1="0%" y2="100%">
         <stop offset="0%" style="stop-color: #FF8501; stop-opacity:1"/>
         <stop offset="100%" style="stop-color: #FFCB01; stop-opacity:1"/>
      </linearGradient>
      <linearGradient id="telinkrin" x1="0%" x2="0%" y1="0%" y2="100%">
         <stop offset="0%" style="stop-color: #b2ced6; stop-opacity:1"/>
         <stop offset="100%" style="stop-color: #6da5b7; stop-opacity:1"/>
      </linearGradient>
      <linearGradient id="60spsycho" x1="0%" x2="0%" y1="0%" y2="100%">
         <stop offset="0%" style="stop-color: #df5940; stop-opacity:1"/>
         <stop offset="25%" style="stop-color: #d8d15f; stop-opacity:1"/>
         <stop offset="50%" style="stop-color: #e9882a; stop-opacity:1"/>
         <stop offset="100%" style="stop-color: #279362; stop-opacity:1"/>
      </linearGradient>
      <linearGradient id="90ssummer" x1="0%" x2="0%" y1="0%" y2="100%">
         <stop offset="0%" style="stop-color: #f618c7; stop-opacity:1"/>
         <stop offset="20%" style="stop-color: #94ffab; stop-opacity:1"/>
         <stop offset="50%" style="stop-color: #fbfd54; stop-opacity:1"/>
         <stop offset="100%" style="stop-color: #0f83ae; stop-opacity:1"/>
      </linearGradient>
   </defs>
  <path
     d="M 0.6,0.13998547 H 0.46001454 L 0.40002911,0.05998546 H 0.24002909 L 0.18004364,0.13998547 H 0.04 c -0.02202182,0 -0.04,0.0179782 -0.04,0.0400291 v 0.35999997 c 0,0.0219929 0.01797818,0.04 0.04,0.04 H 0.6 c 0.0220218,0 0.04,-0.0179489 0.04,-0.04 V 0.18001456 C 0.64,0.15796366 0.6220218,0.13998546 0.6,0.13998547 Z M 0.32,0.53751271 C 0.08024587,0.54056371 0.08027546,0.17936791 0.32002909,0.18245819 0.55371961,0.18547032 0.55369101,0.53453887 0.32,0.53751271 Z M 0.6,0.23499637 H 0.52 v -0.04 H 0.6 Z"
     id="path502"
     class="ColorScheme-Text"
     style="fill:url(#oomox);fill-opacity:1;stroke-width:0.0290909" />
  <metadata
     id="metadata5727">
    <rdf:RDF>
      <cc:Work
         rdf:about="">
        <dc:creator>
          <cc:Agent>
            <dc:title>dreifacherspass</dc:title>
          </cc:Agent>
        </dc:creator>
        <cc:license
           rdf:resource="http://creativecommons.org/licenses/by-sa/4.0/" />
      </cc:Work>
      <cc:License
         rdf:about="http://creativecommons.org/licenses/by-sa/4.0/">
        <cc:permits
           rdf:resource="http://creativecommons.org/ns#Reproduction" />
        <cc:permits
           rdf:resource="http://creativecommons.org/ns#Distribution" />
        <cc:requires
           rdf:resource="http://creativecommons.org/ns#Notice" />
        <cc:requires
           rdf:resource="http://creativecommons.org/ns#Attribution" />
        <cc:permits
           rdf:resource="http://creativecommons.org/ns#DerivativeWorks" />
        <cc:requires
           rdf:resource="http://creativecommons.org/ns#ShareAlike" />
      </cc:License>
    </rdf:RDF>
  </metadata>
  <path
     class="ColorScheme-Text"
     d="m 0.33568737,0.25009095 -0.0362011,0.005438 v 0.0111455 a 0.09611221,0.09634799 0 0 0 -0.0289234,0.0104993 l -0.008916,-0.0106609 -0.0275805,0.0235023 0.008755,0.0104723 a 0.09611221,0.09634799 0 0 0 -0.008728,0.0126799 c -0.002636,0.004581 -0.004715,0.009314 -0.006526,0.0141069 l -0.0138037,-0.00245 -0.006042,0.0357515 0.0136696,0.002422 c 1.9476e-4,0.0103109 0.001993,0.0204884 0.005371,0.0301787 l -0.0122729,0.007134 0.0182885,0.0313093 0.0121388,-0.007027 c 0.006552,0.007574 0.0143563,0.0142523 0.023391,0.0196524 l -0.004861,0.0134608 0.0341065,0.0121682 0.004807,-0.0132451 c 0.0101949,0.00164 0.0204871,0.001691 0.0305078,8.132e-5 l 0.004861,0.0133798 0.0339452,-0.0125994 -0.00478,-0.0131645 c 0.008692,-0.005174 0.016624,-0.0117654 0.0234447,-0.0196793 l 0.0122729,0.007081 0.0179124,-0.0315247 -0.0120848,-0.007 c 0.003417,-0.00987 0.005135,-0.0200525 0.005264,-0.0301794 l 0.0140184,-0.002478 -0.006526,-0.0356975 -0.0137768,0.002423 c -0.003609,-0.009521 -0.008801,-0.018441 -0.0153075,-0.0264892 l 0.009184,-0.0109569 -0.0279028,-0.0231522 -0.008916,0.0106608 a 0.09597471,0.09621015 0 0 0 -0.0287889,-0.01058 z m -0.0181812,0.0286711 a 0.08249975,0.08270214 0 0 1 0.0824997,0.0827021 0.08249975,0.08270214 0 0 1 -0.0824997,0.0827021 0.08249975,0.08270214 0 0 1 -0.0824997,-0.0827021 0.08249975,0.08270214 0 0 1 0.0824997,-0.0827021 z"
     id="path241"
     style="fill:url(#oomox);stroke-width:0.0137668" />
  <path
     class="ColorScheme-Text"
     d="m 0.31289332,0.29273637 a 0.06859854,0.06876683 0 0 0 -0.0547524,0.0342111 0.06892854,0.06909764 0 0 0 0.025245,0.0941977 0.06877729,0.06894601 0 0 0 0.0939122,-0.025169 0.06888729,0.06905629 0 0 0 -0.025245,-0.0941702 0.0684198,0.06858764 0 0 0 -0.0391598,-0.00907 z m 0.00484,0.0135907 a 0.05499984,0.05513476 0 0 1 0.0549999,0.0551348 0.05499984,0.05513476 0 0 1 -0.0549999,0.0551348 0.05499984,0.05513476 0 0 1 -0.0549998,-0.0551348 0.05499984,0.05513476 0 0 1 0.0549998,-0.0551348 z"
     id="path25"
     style="fill:url(#oomox);stroke-width:0.0137668" />
</svg>
