<?xml version="1.0" encoding="UTF-8" standalone="no"?>
<svg
   version="1.1"
   id="svg2"
   height="16"
   width="16"
   xmlns="http://www.w3.org/2000/svg"
   xmlns:svg="http://www.w3.org/2000/svg"
   xmlns:rdf="http://www.w3.org/1999/02/22-rdf-syntax-ns#"
   xmlns:cc="http://creativecommons.org/ns#"
   xmlns:dc="http://purl.org/dc/elements/1.1/">
  <defs>
   <style id="current-color-scheme" type="text/css">
   .ColorScheme-Text { color: #0abdc6; } .ColorScheme-Highlight { color:#5294e2; }
  </style>
  <linearGradient id="arrongin" x1="0%" x2="0%" y1="0%" y2="100%">
   <stop offset="0%" style="stop-color:#dd9b44; stop-opacity:1"/>
   <stop offset="100%" style="stop-color:#ad6c16; stop-opacity:1"/>
  </linearGradient>
  <linearGradient id="aurora" x1="0%" x2="0%" y1="0%" y2="100%">
   <stop offset="0%" style="stop-color:#09D4DF; stop-opacity:1"/>
   <stop offset="100%" style="stop-color:#9269F4; stop-opacity:1"/>
  </linearGradient>
  <linearGradient id="cyberneon" x1="0%" x2="0%" y1="0%" y2="100%">
    <stop offset="0" style="stop-color:#0abdc6; stop-opacity:1"/>
    <stop offset="1" style="stop-color:#ea00d9; stop-opacity:1"/>
  </linearGradient>
  <linearGradient id="fitdance" x1="0%" x2="0%" y1="0%" y2="100%">
   <stop offset="0%" style="stop-color:#1AD6AB; stop-opacity:1"/>
   <stop offset="100%" style="stop-color:#329DB6; stop-opacity:1"/>
  </linearGradient>
  <linearGradient id="oomox" x1="0%" x2="0%" y1="0%" y2="100%">
   <stop offset="0%" style="stop-color:#0abdc6; stop-opacity:1"/>
   <stop offset="100%" style="stop-color:#b800ff; stop-opacity:1"/>
  </linearGradient>
  <linearGradient id="rainblue" x1="0%" x2="0%" y1="0%" y2="100%">
   <stop offset="0%" style="stop-color:#00F260; stop-opacity:1"/>
   <stop offset="100%" style="stop-color:#0575E6; stop-opacity:1"/>
  </linearGradient>
  <linearGradient id="sunrise" x1="0%" x2="0%" y1="0%" y2="100%">
   <stop offset="0%" style="stop-color: #FF8501; stop-opacity:1"/>
   <stop offset="100%" style="stop-color: #FFCB01; stop-opacity:1"/>
  </linearGradient>
  <linearGradient id="telinkrin" x1="0%" x2="0%" y1="0%" y2="100%">
   <stop offset="0%" style="stop-color: #b2ced6; stop-opacity:1"/>
   <stop offset="100%" style="stop-color: #6da5b7; stop-opacity:1"/>
  </linearGradient>
  <linearGradient id="60spsycho" x1="0%" x2="0%" y1="0%" y2="100%">
   <stop offset="0%" style="stop-color: #df5940; stop-opacity:1"/>
   <stop offset="25%" style="stop-color: #d8d15f; stop-opacity:1"/>
   <stop offset="50%" style="stop-color: #e9882a; stop-opacity:1"/>
   <stop offset="100%" style="stop-color: #279362; stop-opacity:1"/>
  </linearGradient>
  <linearGradient id="90ssummer" x1="0%" x2="0%" y1="0%" y2="100%">
   <stop offset="0%" style="stop-color: #f618c7; stop-opacity:1"/>
   <stop offset="20%" style="stop-color: #94ffab; stop-opacity:1"/>
   <stop offset="50%" style="stop-color: #fbfd54; stop-opacity:1"/>
   <stop offset="100%" style="stop-color: #0f83ae; stop-opacity:1"/>
  </linearGradient>
 </defs>
  <metadata
     id="metadata7">
    <rdf:RDF>
      <cc:Work
         rdf:about="">
        <dc:format>image/svg+xml</dc:format>
        <dc:type
           rdf:resource="http://purl.org/dc/dcmitype/StillImage" />
        <dc:creator>
          <cc:Agent>
            <dc:title>dreifacherspass</dc:title>
          </cc:Agent>
        </dc:creator>
        <cc:license
           rdf:resource="http://creativecommons.org/licenses/by-sa/4.0/" />
      </cc:Work>
      <cc:License
         rdf:about="http://creativecommons.org/licenses/by-sa/4.0/">
        <cc:permits
           rdf:resource="http://creativecommons.org/ns#Reproduction" />
        <cc:permits
           rdf:resource="http://creativecommons.org/ns#Distribution" />
        <cc:requires
           rdf:resource="http://creativecommons.org/ns#Notice" />
        <cc:requires
           rdf:resource="http://creativecommons.org/ns#Attribution" />
        <cc:permits
           rdf:resource="http://creativecommons.org/ns#DerivativeWorks" />
        <cc:requires
           rdf:resource="http://creativecommons.org/ns#ShareAlike" />
      </cc:License>
    </rdf:RDF>
  </metadata>
  <path
     style="fill:url(#oomox);fill-opacity:1;stroke:none;stroke-width:0.0487162"
     d="m 3.8636383,8.5483484 c -0.028831,0 -0.057314,0.00918 -0.079406,0.031243 L 2.8602277,9.5024379 c -0.044186,0.044129 -0.044186,0.1168878 0,0.1610177 l 1.1165049,1.1151064 c 0.044186,0.04413 0.1146283,0.04413 0.1588138,0 L 5.0595503,9.855715 C 5.1037347,9.811584 5.1365508,9.771601 5.1365508,9.771601 L 3.943045,8.579591 C 3.9209523,8.557526 3.8924696,8.548348 3.8636383,8.5483484 Z"
     id="path25"
     class="ColorScheme-Text"/>
  <path
     style="fill:url(#oomox);fill-opacity:1;stroke:none;stroke-width:0.0487162"
     d="m 4.0441082,8.3536857 c -0.025137,0.00241 -0.05045,0.014339 -0.069782,0.033646 -0.020729,0.020703 -0.072547,0.07162 -0.1323444,0.1321786 0.062082,-0.045331 0.1323442,0.026435 0.1323442,0.026435 l 1.195912,1.1944138 c 0,0 0.037628,-0.035178 0.081812,-0.079307 0.044184,-0.044129 0.044186,-0.1144846 0,-0.1586142 L 4.1355458,8.3873309 c -0.024854,-0.024823 -0.05912,-0.036748 -0.091438,-0.033645 z"
     id="rect3597-1-0-4-8"
     class="ColorScheme-Text"/>
  <path
     style="fill:url(#oomox);fill-opacity:1;stroke:none;stroke-width:0.0487162"
     d="m 5.2905513,7.1208202 c -0.028832,0 -0.057314,0.011579 -0.079407,0.033646 l -0.924004,0.9228462 c -0.044185,0.044129 -0.044185,0.1144847 -3e-7,0.1586145 l 1.1165054,1.1151067 c 0.044184,0.044129 0.1146282,0.044129 0.1588133,-3e-7 L 6.486463,8.4281864 c 0.044184,-0.044129 0.077001,-0.08171 0.077001,-0.08171 L 5.3723641,7.1544656 c -0.022093,-0.022065 -0.05298,-0.033645 -0.081813,-0.033645 z"
     id="path26"
     class="ColorScheme-Text"/>
  <path
     style="fill:url(#oomox);fill-opacity:1;stroke:none;stroke-width:0.0487162"
     d="m 5.483052,6.926157 c -0.028831,0 -0.057314,0.011579 -0.079407,0.033646 -0.022093,0.022065 -0.079731,0.078336 -0.1443757,0.1441948 0.064645,-0.065857 0.1443756,0.01442 0.1443756,0.01442 l 1.1959119,1.1944138 0.079407,-0.079307 c 0.044184,-0.044129 0.044184,-0.1144847 -3e-7,-0.1586146 L 5.5624587,6.9598026 C 5.540366,6.9377376 5.5118841,6.926157 5.483052,6.926157 Z"
     id="rect3597-1-0-7"
     class="ColorScheme-Text"/>
  <path
     style="fill:url(#oomox);fill-opacity:1;stroke:none;stroke-width:0.0487162"
     d="m 2.4246946,7.1112072 c -0.028831,0 -0.057314,0.00918 -0.079407,0.031242 L 1.4212839,8.0652955 c -0.044186,0.04413 -0.044186,0.1168878 0,0.1610177 l 1.1165049,1.1151072 c 0.044184,0.044129 0.1146282,0.044129 0.1588134,-4e-7 L 3.6206063,8.4185734 c 0.044186,-0.044129 0.077,-0.084113 0.077,-0.084113 L 2.5041012,7.1424494 c -0.022093,-0.022065 -0.050575,-0.031243 -0.079407,-0.031242 z"
     id="path24"
     class="ColorScheme-Text"/>
  <path
     style="fill:url(#oomox);fill-opacity:1;stroke:none;stroke-width:0.0487162"
     d="m 2.6051641,6.9165441 c -0.025136,0.00241 -0.05045,0.014339 -0.069783,0.033646 -0.020729,0.020703 -0.072547,0.07162 -0.1323442,0.1321786 0.062082,-0.045332 0.1323441,0.026435 0.1323441,0.026435 l 1.1959119,1.1944138 c 0,0 0.037628,-0.035178 0.081812,-0.079307 0.044184,-0.044129 0.044186,-0.1144847 0,-0.1586142 L 2.6966021,6.9501897 c -0.024854,-0.024823 -0.059121,-0.036748 -0.091438,-0.033646 z"
     id="rect3597-1-0-4"
     class="ColorScheme-Text"/>
  <path
     style="fill:url(#oomox);fill-opacity:1;stroke:none;stroke-width:0.0487162"
     d="m 3.8516072,5.6836785 c -0.028831,0 -0.057314,0.011579 -0.079407,0.033646 L 2.8481965,6.6401709 c -0.044186,0.04413 -0.044186,0.1144846 0,0.1586148 l 1.1165047,1.115106 c 0.044184,0.044131 0.1146283,0.044129 0.1588135,-3e-7 L 5.0475189,6.9910447 c 0.044185,-0.044129 0.077,-0.08171 0.077,-0.08171 L 3.93342,5.717324 C 3.9113274,5.695259 3.8804387,5.683678 3.8516072,5.6836785 Z"
     id="path27"
     class="ColorScheme-Text"/>
  <path
     style="fill:url(#oomox);fill-opacity:1;stroke:none;stroke-width:0.0487162"
     d="m 4.0441082,5.4890157 c -0.028831,0 -0.057314,0.011579 -0.079407,0.033646 -0.022093,0.022065 -0.079731,0.078336 -0.1443756,0.1441948 0.064645,-0.065857 0.1443755,0.01442 0.1443755,0.01442 L 5.1606135,6.8756903 5.24002,6.7963833 c 0.044184,-0.044129 0.044185,-0.1144847 10e-8,-0.1586143 L 4.1235147,5.522661 C 4.1014227,5.500596 4.0729397,5.489015 4.0441082,5.4890157 Z"
     id="rect3597-1-0"
     class="ColorScheme-Text"/>
  <path
     id="rect3597"
     class="ColorScheme-Text"
     style="display:inline;fill:url(#oomox);fill-opacity:1;stroke:none;stroke-width:0.0587089"
     d="M 7.9951879,0 C 7.8074814,0 7.6216723,0.0726417 7.4778416,0.21629216 7.3340131,0.35994055 6.9554516,0.7224027 6.5345873,1.1511552 6.95545,0.72240436 7.4778416,1.2520914 7.4778416,1.2520914 l 7.7818494,7.7721002 c 0,0 0.236904,-0.2245926 0.524564,-0.5118915 0.287661,-0.2873009 0.287659,-0.7485004 0,-1.0357993 L 8.5149402,0.21629216 C 8.3711115,0.07264378 8.1828943,0 7.9951879,0 Z M 6.7511511,1.2665112 C 6.5634443,1.2665108 6.3752292,1.3367497 6.2313985,1.4804 L 0.21574595,7.4909199 c -0.28766127,0.2873009 -0.28766127,0.7484991 0,1.0358001 l 7.26690815,7.257805 c 0.2876612,0.2873 0.7494378,0.2873 1.0370992,0 L 14.535405,9.776408 C 14.823066,9.4891091 15.035907,9.2404837 15.035907,9.2404837 L 7.2684971,1.4804 C 7.1246684,1.3367517 6.9388558,1.2665096 6.7511511,1.2665112 Z M 4.3136084,4.4532161 c 0.080177,0 0.1599401,0.032367 0.2213763,0.093727 l 3.1064828,3.1001885 c 0.1228728,0.1227189 0.1228716,0.3194799 0,0.4421979 C 7.5185962,8.2120463 7.4176853,8.308024 7.4176853,8.308024 L 4.0922322,4.9891404 c 0,0 -0.2220774,-0.2263961 -0.4018455,-0.043258 0.1797702,-0.1831383 0.3404098,-0.33758 0.401846,-0.3989392 0.061435,-0.061358 0.1411987,-0.093727 0.2213757,-0.093727 z M 3.7818251,4.9939467 c 0.080177,0 0.1599398,0.032367 0.2213759,0.093727 L 7.321435,8.401751 c 0,0 -0.091285,0.1055896 -0.2141571,0.2283082 L 4.537391,11.196727 c -0.1228716,0.122717 -0.3198801,0.122719 -0.4427523,0 L 0.99056209,8.0965385 c -0.12287223,-0.1227189 -0.12287186,-0.3194798 0,-0.4421977 L 3.5604489,5.0876732 c 0.061436,-0.061359 0.1411987,-0.093727 0.2213762,-0.093726 z m 4.3336758,3.2563992 c 0.080177,5e-7 0.15994,0.029964 0.2213762,0.091324 L 11.44336,11.444261 c 0.122872,0.122718 0.122872,0.31948 0,0.442198 -0.122871,0.122716 -0.226188,0.218695 -0.226188,0.218695 L 7.8941248,8.7862702 c 0,0 -0.2244851,-0.2263943 -0.4042516,-0.043258 C 7.6696418,8.559876 7.8326885,8.4030292 7.8941248,8.34167 7.9555611,8.2803105 8.0353237,8.2503463 8.1155009,8.2503459 Z M 7.5837176,8.7910765 c 0.080177,9e-7 0.1599406,0.029965 0.2213753,0.091324 l 3.3182341,3.3140775 c 0,0 -0.09128,0.107994 -0.214156,0.23071 l -2.5698875,2.566669 c -0.1228716,0.122714 -0.3198802,0.122714 -0.4427524,0 L 4.7924545,11.893668 c -0.1228716,-0.122717 -0.1228716,-0.321882 0,-0.4446 l 2.569887,-2.5666679 c 0.061436,-0.06136 0.1411987,-0.091323 0.2213761,-0.091324 z" />
</svg>
