<?xml version="1.0" encoding="UTF-8" standalone="no"?>
<svg
   version="1.1"
   width="16"
   height="16"
   id="svg3082"
   xmlns:xlink="http://www.w3.org/1999/xlink"
   xmlns="http://www.w3.org/2000/svg"
   xmlns:svg="http://www.w3.org/2000/svg"
   xmlns:rdf="http://www.w3.org/1999/02/22-rdf-syntax-ns#"
   xmlns:cc="http://creativecommons.org/ns#"
   xmlns:dc="http://purl.org/dc/elements/1.1/">
  <metadata
     id="metadata59">
    <rdf:RDF>
      <cc:Work
         rdf:about="">
        <dc:format>image/svg+xml</dc:format>
        <dc:type
           rdf:resource="http://purl.org/dc/dcmitype/StillImage" />
        <dc:creator>
          <cc:Agent>
            <dc:title>dreifacherspass</dc:title>
          </cc:Agent>
        </dc:creator>
        <cc:license
           rdf:resource="http://creativecommons.org/licenses/by-sa/4.0/" />
      </cc:Work>
      <cc:License
         rdf:about="http://creativecommons.org/licenses/by-sa/4.0/">
        <cc:permits
           rdf:resource="http://creativecommons.org/ns#Reproduction" />
        <cc:permits
           rdf:resource="http://creativecommons.org/ns#Distribution" />
        <cc:requires
           rdf:resource="http://creativecommons.org/ns#Notice" />
        <cc:requires
           rdf:resource="http://creativecommons.org/ns#Attribution" />
        <cc:permits
           rdf:resource="http://creativecommons.org/ns#DerivativeWorks" />
        <cc:requires
           rdf:resource="http://creativecommons.org/ns#ShareAlike" />
      </cc:License>
    </rdf:RDF>
  </metadata>
   <defs>
   <style id="current-color-scheme" type="text/css">
   .ColorScheme-Text { color: #0abdc6; } .ColorScheme-Highlight { color:#5294e2; }
  </style>
  <linearGradient id="arrongin" x1="0%" x2="0%" y1="0%" y2="100%">
   <stop offset="0%" style="stop-color:#dd9b44; stop-opacity:1"/>
   <stop offset="100%" style="stop-color:#ad6c16; stop-opacity:1"/>
  </linearGradient>
  <linearGradient id="aurora" x1="0%" x2="0%" y1="0%" y2="100%">
   <stop offset="0%" style="stop-color:#09D4DF; stop-opacity:1"/>
   <stop offset="100%" style="stop-color:#9269F4; stop-opacity:1"/>
  </linearGradient>
  <linearGradient id="cyberneon" x1="0%" x2="0%" y1="0%" y2="100%">
    <stop offset="0" style="stop-color:#0abdc6; stop-opacity:1"/>
    <stop offset="1" style="stop-color:#ea00d9; stop-opacity:1"/>
  </linearGradient>
  <linearGradient id="fitdance" x1="0%" x2="0%" y1="0%" y2="100%">
   <stop offset="0%" style="stop-color:#1AD6AB; stop-opacity:1"/>
   <stop offset="100%" style="stop-color:#329DB6; stop-opacity:1"/>
  </linearGradient>
  <linearGradient id="oomox" x1="0%" x2="0%" y1="0%" y2="100%">
   <stop offset="0%" style="stop-color:#0abdc6; stop-opacity:1"/>
   <stop offset="100%" style="stop-color:#b800ff; stop-opacity:1"/>
  </linearGradient>
  <linearGradient id="rainblue" x1="0%" x2="0%" y1="0%" y2="100%">
   <stop offset="0%" style="stop-color:#00F260; stop-opacity:1"/>
   <stop offset="100%" style="stop-color:#0575E6; stop-opacity:1"/>
  </linearGradient>
  <linearGradient id="sunrise" x1="0%" x2="0%" y1="0%" y2="100%">
   <stop offset="0%" style="stop-color: #FF8501; stop-opacity:1"/>
   <stop offset="100%" style="stop-color: #FFCB01; stop-opacity:1"/>
  </linearGradient>
  <linearGradient id="telinkrin" x1="0%" x2="0%" y1="0%" y2="100%">
   <stop offset="0%" style="stop-color: #b2ced6; stop-opacity:1"/>
   <stop offset="100%" style="stop-color: #6da5b7; stop-opacity:1"/>
  </linearGradient>
  <linearGradient id="60spsycho" x1="0%" x2="0%" y1="0%" y2="100%">
   <stop offset="0%" style="stop-color: #df5940; stop-opacity:1"/>
   <stop offset="25%" style="stop-color: #d8d15f; stop-opacity:1"/>
   <stop offset="50%" style="stop-color: #e9882a; stop-opacity:1"/>
   <stop offset="100%" style="stop-color: #279362; stop-opacity:1"/>
  </linearGradient>
  <linearGradient id="90ssummer" x1="0%" x2="0%" y1="0%" y2="100%">
   <stop offset="0%" style="stop-color: #f618c7; stop-opacity:1"/>
   <stop offset="20%" style="stop-color: #94ffab; stop-opacity:1"/>
   <stop offset="50%" style="stop-color: #fbfd54; stop-opacity:1"/>
   <stop offset="100%" style="stop-color: #0f83ae; stop-opacity:1"/>
  </linearGradient>
 </defs>
  <path
     id="rect521"
     style="font-variation-settings:normal;display:inline;overflow:visible;visibility:visible;vector-effect:none;fill:url(#oomox);fill-opacity:1;fill-rule:nonzero;stroke:none;stroke-width:0.421052;stroke-linecap:butt;stroke-linejoin:miter;stroke-miterlimit:4;stroke-dasharray:none;stroke-dashoffset:0;stroke-opacity:1;-inkscape-stroke:none;marker:none;enable-background:accumulate;stop-color:#000000"
     class="ColorScheme-Text"
     d="M 1.4734043,0 C 0.65698962,0 0,0.65698962 0,1.4734043 V 14.526596 C 0,15.34301 0.65698962,16 1.4734043,16 H 14.526596 C 15.34301,16 16,15.34301 16,14.526596 V 1.4734043 C 16,0.65698962 15.34301,0 14.526596,0 Z m 8.6402927,3.5791224 h 2.408244 c 0.005,0 0.01029,5.447e-4 0.01529,6.808e-4 h 0.152926 c 0.317677,-2.01e-5 0.573138,0.2789886 0.573138,0.6256651 v 1.273936 c -10e-7,0.3466723 -0.255456,0.625665 -0.573138,0.625665 H 10.113696 Z M 3.3098403,3.5798032 H 9.6941488 V 6.1050693 H 3.3098403 c -0.3178929,0 -0.5731382,-0.2791401 -0.5731382,-0.625665 v -1.273936 c 0,-0.3466724 0.2554559,-0.6256651 0.5731382,-0.6256651 z m 7.6376327,1.0518618 0.420878,0.8417553 h 0.420878 L 12.210771,4.631665 Z M 4.0425532,7.368351 c 0.014243,-1.6e-4 0.029409,-2.73e-5 0.044548,6.808e-4 l 1.926862,0.02194 c 0,0 0.5323615,-2.084e-4 0.5113031,0.4454784 V 9.8264773 C 6.5463282,10.335831 6.0771275,10.315174 6.0771275,10.315174 H 3.9926863 c 0,0 -0.4536872,0.04194 -0.4115694,-0.4674201 V 7.7613178 c 0,0 0.019864,-0.3879918 0.4614363,-0.3929522 z m 7.3191488,0 c 0.813468,0 1.474069,0.6606019 1.474069,1.4740691 0,0.8134676 -0.660601,1.4734039 -1.474069,1.4734039 -0.813467,0 -1.4734041,-0.6599363 -1.4734041,-1.4734039 0,-0.8134672 0.6599371,-1.4740691 1.4734041,-1.4740691 z m -7.3164894,4.210771 c 0.015197,-1.86e-4 0.031656,-2.4e-5 0.047873,6.81e-4 l 1.9215424,0.01396 c 0,0 0.5252794,9.2e-4 0.5039895,0.478059 l 0.00665,1.96875 c 0.021021,0.507006 -0.4474734,0.486037 -0.4474734,0.486037 h -2.081119 c 0,0 -0.4379108,-0.02179 -0.4168882,-0.509308 l 0.00731,-2.03258 c 0,0 -0.012963,-0.399811 0.4581117,-0.405585 z m 7.3164894,0 c 0.813469,0 1.474069,0.659936 1.474069,1.473405 0,0.813468 -0.6606,1.474069 -1.474069,1.474069 -0.813468,0 -1.4734041,-0.660601 -1.4734041,-1.474069 0,-0.813469 0.6599361,-1.473405 1.4734041,-1.473405 z" />
  <path
     style="display:inline;fill:none;fill-opacity:1;fill-rule:evenodd;stroke:url(#oomox);stroke-width:0.421052px;stroke-linecap:round;stroke-linejoin:round;stroke-opacity:1"
     d="M 4.0807006,8.7976708 4.7407891,9.639776 6.0245624,8.04416"
     id="path4232"
     class="ColorScheme-Text" />
  <path
     id="path4245"
     class="ColorScheme-Text"
     d="m 10.389838,8.7978145 0.660088,0.8421052 1.283773,-1.595616"
     style="display:inline;fill:none;fill-opacity:1;fill-rule:evenodd;stroke:url(#oomox);stroke-width:0.421052px;stroke-linecap:round;stroke-linejoin:round;stroke-opacity:1" />
</svg>
