<?xml version="1.0" encoding="UTF-8" standalone="no"?>
<svg
   width="54"
   height="54"
   viewBox="0 0 54 54"
   fill="none"
   version="1.1"
   id="svg390"
   sodipodi:docname="Element_(software)_logo.svg"
   inkscape:version="1.2.2 (b0a8486541, 2022-12-01)"
   xmlns:inkscape="http://www.inkscape.org/namespaces/inkscape"
   xmlns:sodipodi="http://sodipodi.sourceforge.net/DTD/sodipodi-0.dtd"
   xmlns:xlink="http://www.w3.org/1999/xlink"
   xmlns="http://www.w3.org/2000/svg"
   xmlns:svg="http://www.w3.org/2000/svg">
  <defs
     id="defs394">
    <linearGradient
       id="oomox"
       x1="0"
       x2="0"
       y1="0"
       y2="1">
      <stop
         offset="0%"
         style="stop-color:#0abdc6; stop-opacity:1"
         id="stop9212" />
      <stop
         offset="100%"
         style="stop-color:#b800ff; stop-opacity:1"
         id="stop9214" />
    </linearGradient>
    <linearGradient
       inkscape:collect="always"
       xlink:href="#oomox"
       id="linearGradient718"
       x1="29.16"
       y1="31.8599"
       x2="54"
       y2="31.8599"
       gradientUnits="userSpaceOnUse" />
    <linearGradient
       inkscape:collect="always"
       xlink:href="#oomox"
       id="linearGradient720"
       x1="-1.4162502e-07"
       y1="22.140085"
       x2="24.84"
       y2="22.140085"
       gradientUnits="userSpaceOnUse" />
    <linearGradient
       inkscape:collect="always"
       xlink:href="#oomox"
       id="linearGradient722"
       x1="9.7186098"
       y1="41.580002"
       x2="34.558601"
       y2="41.580002"
       gradientUnits="userSpaceOnUse" />
    <linearGradient
       inkscape:collect="always"
       xlink:href="#oomox"
       id="linearGradient724"
       x1="19.441401"
       y1="12.42"
       x2="44.281399"
       y2="12.42"
       gradientUnits="userSpaceOnUse" />
  </defs>
  <sodipodi:namedview
     id="namedview392"
     pagecolor="#ffffff"
     bordercolor="#000000"
     borderopacity="0.25"
     inkscape:showpageshadow="2"
     inkscape:pageopacity="0.0"
     inkscape:pagecheckerboard="0"
     inkscape:deskcolor="#d1d1d1"
     showgrid="false"
     inkscape:zoom="4.3703704"
     inkscape:cx="27"
     inkscape:cy="27"
     inkscape:window-width="1680"
     inkscape:window-height="1018"
     inkscape:window-x="0"
     inkscape:window-y="0"
     inkscape:window-maximized="1"
     inkscape:current-layer="svg390" />
  <path
     fill-rule="evenodd"
     clip-rule="evenodd"
     d="M19.4414 3.24C19.4414 1.4506 20.892 0 22.6814 0C34.6108 0 44.2814 9.67065 44.2814 21.6C44.2814 23.3894 42.8308 24.84 41.0414 24.84C39.252 24.84 37.8014 23.3894 37.8014 21.6C37.8014 13.2494 31.032 6.48 22.6814 6.48C20.892 6.48 19.4414 5.0294 19.4414 3.24Z"
     id="path382"
     style="fill-opacity:1.0;fill:url(#linearGradient724)" />
  <path
     fill-rule="evenodd"
     clip-rule="evenodd"
     d="M34.5586 50.76C34.5586 52.5494 33.108 54 31.3186 54C19.3893 54 9.71861 44.3294 9.71861 32.4C9.71861 30.6106 11.1692 29.16 12.9586 29.16C14.748 29.16 16.1986 30.6106 16.1986 32.4C16.1986 40.7505 22.9681 47.52 31.3186 47.52C33.108 47.52 34.5586 48.9706 34.5586 50.76Z"
     id="path384"
     style="fill-opacity:1.0;fill:url(#linearGradient722)" />
  <path
     fill-rule="evenodd"
     clip-rule="evenodd"
     d="M3.24 34.5601C1.4506 34.5601 -6.34076e-08 33.1095 -1.41625e-07 31.3201C-6.63074e-07 19.3907 9.67065 9.72007 21.6 9.72007C23.3894 9.72007 24.84 11.1707 24.84 12.9601C24.84 14.7495 23.3894 16.2001 21.6 16.2001C13.2495 16.2001 6.48 22.9695 6.48 31.3201C6.48 33.1095 5.0294 34.5601 3.24 34.5601Z"
     id="path386"
     style="fill-opacity:1.0;fill:url(#linearGradient720)" />
  <path
     fill-rule="evenodd"
     clip-rule="evenodd"
     d="M50.76 19.4399C52.5494 19.4399 54 20.8905 54 22.6799C54 34.6093 44.3294 44.2799 32.4 44.2799C30.6106 44.2799 29.16 42.8293 29.16 41.0399C29.16 39.2505 30.6106 37.7999 32.4 37.7999C40.7505 37.7999 47.52 31.0305 47.52 22.6799C47.52 20.8905 48.9706 19.4399 50.76 19.4399Z"
     id="path388"
     style="fill-opacity:1.0;fill:url(#linearGradient718)" />
</svg>
