<?xml version="1.0" encoding="UTF-8" standalone="no"?>
<svg
   version="1.1"
   width="16"
   height="16"
   id="svg4296"
   xmlns:xlink="http://www.w3.org/1999/xlink"
   xmlns="http://www.w3.org/2000/svg"
   xmlns:svg="http://www.w3.org/2000/svg"
   xmlns:rdf="http://www.w3.org/1999/02/22-rdf-syntax-ns#"
   xmlns:cc="http://creativecommons.org/ns#"
   xmlns:dc="http://purl.org/dc/elements/1.1/">
  <defs>
   <style id="current-color-scheme" type="text/css">
   .ColorScheme-Text { color: #0abdc6; } .ColorScheme-Highlight { color:#5294e2; }
  </style>
  <linearGradient id="arrongin" x1="0%" x2="0%" y1="0%" y2="100%">
   <stop offset="0%" style="stop-color:#dd9b44; stop-opacity:1"/>
   <stop offset="100%" style="stop-color:#ad6c16; stop-opacity:1"/>
  </linearGradient>
  <linearGradient id="aurora" x1="0%" x2="0%" y1="0%" y2="100%">
   <stop offset="0%" style="stop-color:#09D4DF; stop-opacity:1"/>
   <stop offset="100%" style="stop-color:#9269F4; stop-opacity:1"/>
  </linearGradient>
  <linearGradient id="cyberneon" x1="0%" x2="0%" y1="0%" y2="100%">
    <stop offset="0" style="stop-color:#0abdc6; stop-opacity:1"/>
    <stop offset="1" style="stop-color:#ea00d9; stop-opacity:1"/>
  </linearGradient>
  <linearGradient id="fitdance" x1="0%" x2="0%" y1="0%" y2="100%">
   <stop offset="0%" style="stop-color:#1AD6AB; stop-opacity:1"/>
   <stop offset="100%" style="stop-color:#329DB6; stop-opacity:1"/>
  </linearGradient>
  <linearGradient id="oomox" x1="0%" x2="0%" y1="0%" y2="100%">
   <stop offset="0%" style="stop-color:#0abdc6; stop-opacity:1"/>
   <stop offset="100%" style="stop-color:#b800ff; stop-opacity:1"/>
  </linearGradient>
  <linearGradient id="rainblue" x1="0%" x2="0%" y1="0%" y2="100%">
   <stop offset="0%" style="stop-color:#00F260; stop-opacity:1"/>
   <stop offset="100%" style="stop-color:#0575E6; stop-opacity:1"/>
  </linearGradient>
  <linearGradient id="sunrise" x1="0%" x2="0%" y1="0%" y2="100%">
   <stop offset="0%" style="stop-color: #FF8501; stop-opacity:1"/>
   <stop offset="100%" style="stop-color: #FFCB01; stop-opacity:1"/>
  </linearGradient>
  <linearGradient id="telinkrin" x1="0%" x2="0%" y1="0%" y2="100%">
   <stop offset="0%" style="stop-color: #b2ced6; stop-opacity:1"/>
   <stop offset="100%" style="stop-color: #6da5b7; stop-opacity:1"/>
  </linearGradient>
  <linearGradient id="60spsycho" x1="0%" x2="0%" y1="0%" y2="100%">
   <stop offset="0%" style="stop-color: #df5940; stop-opacity:1"/>
   <stop offset="25%" style="stop-color: #d8d15f; stop-opacity:1"/>
   <stop offset="50%" style="stop-color: #e9882a; stop-opacity:1"/>
   <stop offset="100%" style="stop-color: #279362; stop-opacity:1"/>
  </linearGradient>
  <linearGradient id="90ssummer" x1="0%" x2="0%" y1="0%" y2="100%">
   <stop offset="0%" style="stop-color: #f618c7; stop-opacity:1"/>
   <stop offset="20%" style="stop-color: #94ffab; stop-opacity:1"/>
   <stop offset="50%" style="stop-color: #fbfd54; stop-opacity:1"/>
   <stop offset="100%" style="stop-color: #0f83ae; stop-opacity:1"/>
  </linearGradient>
 </defs>
  <g
     id="g17"
     transform="matrix(0.43835616,0,0,0.43835616,-3.9452054,-5.2603174)">
    <path
       id="path44-4"
       class="ColorScheme-Text"
       style="font-variation-settings:normal;display:inline;opacity:1;vector-effect:none;fill:url(#oomox);fill-opacity:1;fill-rule:evenodd;stroke:none;stroke-width:1.67857;stroke-linecap:butt;stroke-linejoin:miter;stroke-miterlimit:4;stroke-dasharray:none;stroke-dashoffset:0;stroke-opacity:1;-inkscape-stroke:none;stop-color:#000000;stop-opacity:1"
       d="m 17,15 v 2 h 5 v -2 z m 9,0 v 2 h 5 V 15 Z M 9,23 v 5 h 2 v -5 z m 28,0 v 5 h 2 V 23 Z M 17,34 v 2 h 5 v -2 z m 9,0 v 2 h 5 v -2 z" />
    <path
       id="path44-0"
       class="ColorScheme-Text"
       style="font-variation-settings:normal;display:inline;opacity:1;vector-effect:none;fill:none;fill-opacity:1;stroke:url(#oomox);stroke-width:1.67857;stroke-linecap:butt;stroke-linejoin:miter;stroke-miterlimit:4;stroke-dasharray:none;stroke-dashoffset:0;stroke-opacity:1;-inkscape-stroke:none;stop-color:#000000;stop-opacity:1"
       d="m 35.333515,35.000293 c 2.666687,0 2.666687,0 2.666687,-2.666685 M 12.666698,16.000106 c -2.666685,0 -2.666685,0 -2.666685,2.666684 m 28.000189,0 c 0,-2.666684 0,-2.666684 -2.666687,-2.666684 M 10.000013,32.333608 c 0,2.666685 0,2.666685 2.666685,2.666685" />
  </g>
  <g
     id="g108"
     transform="matrix(0.43835616,0,0,0.43835616,-3.9452054,-5.2602302)">
    <path
       style="display:inline;fill:url(#oomox);fill-opacity:1;stroke:none"
       id="path3782"
       class="ColorScheme-Text"
       d="m 37.553316,35 -5.3,-9.8 c 0,0 -3.699999,7.8 5.3,12.8 z" />
    <path
       style="fill:url(#oomox);fill-opacity:1;stroke:none"
       id="path2990"
       class="ColorScheme-Text"
       d="m 38.5,35 5.3,-9.8 c 0,0 3.7,7.8 -5.3,12.8 z" />
    <path
       id="path3788"
       class="ColorScheme-Text"
       d="M 35.5625,38 C 34.182113,38.07364 30.5,38.911225 30.5,41.5 c 0,2.9585 2.187468,4 3.5,4 1.312532,0 3.44908,-1.0004 3.5,-4 C 37.54059,39.1088 36.684728,38.1472 36,38 35.91441,37.9816 35.759698,37.98948 35.5625,38 Z M 40,38 c -0.684728,0.1472 -1.54059,1.1088 -1.5,3.5 0.05092,2.9996 2.187468,4 3.5,4 1.312532,0 3.5,-1.0415 3.5,-4 0,-2.9586 -4.815272,-3.6472 -5.5,-3.5 z m -4.4375,1.875 c 0,0 0.438286,5.1337 -2.25,3.125 -2.98936,-2.2336 2.25,-3.125 2.25,-3.125 z m 4.875,0 c 0,0 5.23936,0.8914 2.25,3.125 -2.688286,2.0087 -2.25,-3.125 -2.25,-3.125 z"
       style="display:inline;overflow:visible;visibility:visible;fill:url(#oomox);fill-opacity:1;fill-rule:nonzero;stroke:none;stroke-width:1;stroke-linecap:butt;stroke-linejoin:miter;stroke-opacity:0.7;marker:none;enable-background:accumulate" />
  </g>
  <metadata
     id="metadata1620">
    <rdf:RDF>
      <cc:Work
         rdf:about="">
        <dc:creator>
          <cc:Agent>
            <dc:title>dreifacherspass</dc:title>
          </cc:Agent>
        </dc:creator>
        <cc:license
           rdf:resource="http://creativecommons.org/licenses/by-sa/4.0/" />
      </cc:Work>
      <cc:License
         rdf:about="http://creativecommons.org/licenses/by-sa/4.0/">
        <cc:permits
           rdf:resource="http://creativecommons.org/ns#Reproduction" />
        <cc:permits
           rdf:resource="http://creativecommons.org/ns#Distribution" />
        <cc:requires
           rdf:resource="http://creativecommons.org/ns#Notice" />
        <cc:requires
           rdf:resource="http://creativecommons.org/ns#Attribution" />
        <cc:permits
           rdf:resource="http://creativecommons.org/ns#DerivativeWorks" />
        <cc:requires
           rdf:resource="http://creativecommons.org/ns#ShareAlike" />
      </cc:License>
    </rdf:RDF>
  </metadata>
</svg>
