<?xml version="1.0" encoding="UTF-8" standalone="no"?>
<svg
   version="1.1"
   width="16"
   height="16"
   id="svg3049"
   xmlns:xlink="http://www.w3.org/1999/xlink"
   xmlns="http://www.w3.org/2000/svg"
   xmlns:svg="http://www.w3.org/2000/svg"
   xmlns:rdf="http://www.w3.org/1999/02/22-rdf-syntax-ns#"
   xmlns:cc="http://creativecommons.org/ns#"
   xmlns:dc="http://purl.org/dc/elements/1.1/">
  <defs>
   <style id="current-color-scheme" type="text/css">
   .ColorScheme-Text { color: #0abdc6; } .ColorScheme-Highlight { color:#5294e2; }
  </style>
  <linearGradient id="arrongin" x1="0%" x2="0%" y1="0%" y2="100%">
   <stop offset="0%" style="stop-color:#dd9b44; stop-opacity:1"/>
   <stop offset="100%" style="stop-color:#ad6c16; stop-opacity:1"/>
  </linearGradient>
  <linearGradient id="aurora" x1="0%" x2="0%" y1="0%" y2="100%">
   <stop offset="0%" style="stop-color:#09D4DF; stop-opacity:1"/>
   <stop offset="100%" style="stop-color:#9269F4; stop-opacity:1"/>
  </linearGradient>
  <linearGradient id="cyberneon" x1="0%" x2="0%" y1="0%" y2="100%">
    <stop offset="0" style="stop-color:#0abdc6; stop-opacity:1"/>
    <stop offset="1" style="stop-color:#ea00d9; stop-opacity:1"/>
  </linearGradient>
  <linearGradient id="fitdance" x1="0%" x2="0%" y1="0%" y2="100%">
   <stop offset="0%" style="stop-color:#1AD6AB; stop-opacity:1"/>
   <stop offset="100%" style="stop-color:#329DB6; stop-opacity:1"/>
  </linearGradient>
  <linearGradient id="oomox" x1="0%" x2="0%" y1="0%" y2="100%">
   <stop offset="0%" style="stop-color:#0abdc6; stop-opacity:1"/>
   <stop offset="100%" style="stop-color:#b800ff; stop-opacity:1"/>
  </linearGradient>
  <linearGradient id="rainblue" x1="0%" x2="0%" y1="0%" y2="100%">
   <stop offset="0%" style="stop-color:#00F260; stop-opacity:1"/>
   <stop offset="100%" style="stop-color:#0575E6; stop-opacity:1"/>
  </linearGradient>
  <linearGradient id="sunrise" x1="0%" x2="0%" y1="0%" y2="100%">
   <stop offset="0%" style="stop-color: #FF8501; stop-opacity:1"/>
   <stop offset="100%" style="stop-color: #FFCB01; stop-opacity:1"/>
  </linearGradient>
  <linearGradient id="telinkrin" x1="0%" x2="0%" y1="0%" y2="100%">
   <stop offset="0%" style="stop-color: #b2ced6; stop-opacity:1"/>
   <stop offset="100%" style="stop-color: #6da5b7; stop-opacity:1"/>
  </linearGradient>
  <linearGradient id="60spsycho" x1="0%" x2="0%" y1="0%" y2="100%">
   <stop offset="0%" style="stop-color: #df5940; stop-opacity:1"/>
   <stop offset="25%" style="stop-color: #d8d15f; stop-opacity:1"/>
   <stop offset="50%" style="stop-color: #e9882a; stop-opacity:1"/>
   <stop offset="100%" style="stop-color: #279362; stop-opacity:1"/>
  </linearGradient>
  <linearGradient id="90ssummer" x1="0%" x2="0%" y1="0%" y2="100%">
   <stop offset="0%" style="stop-color: #f618c7; stop-opacity:1"/>
   <stop offset="20%" style="stop-color: #94ffab; stop-opacity:1"/>
   <stop offset="50%" style="stop-color: #fbfd54; stop-opacity:1"/>
   <stop offset="100%" style="stop-color: #0f83ae; stop-opacity:1"/>
  </linearGradient>
 </defs>
  <metadata
     id="metadata3054">
    <rdf:RDF>
      <cc:Work
         rdf:about="">
        <dc:format>image/svg+xml</dc:format>
        <dc:type
           rdf:resource="http://purl.org/dc/dcmitype/StillImage" />
        <dc:creator>
          <cc:Agent>
            <dc:title>dreifacherspass</dc:title>
          </cc:Agent>
        </dc:creator>
        <cc:license
           rdf:resource="http://creativecommons.org/licenses/by-sa/4.0/" />
      </cc:Work>
      <cc:License
         rdf:about="http://creativecommons.org/licenses/by-sa/4.0/">
        <cc:permits
           rdf:resource="http://creativecommons.org/ns#Reproduction" />
        <cc:permits
           rdf:resource="http://creativecommons.org/ns#Distribution" />
        <cc:requires
           rdf:resource="http://creativecommons.org/ns#Notice" />
        <cc:requires
           rdf:resource="http://creativecommons.org/ns#Attribution" />
        <cc:permits
           rdf:resource="http://creativecommons.org/ns#DerivativeWorks" />
        <cc:requires
           rdf:resource="http://creativecommons.org/ns#ShareAlike" />
      </cc:License>
    </rdf:RDF>
  </metadata>
  <path
     id="path140-1"
     class="ColorScheme-Text"
     style="font-variation-settings:normal;display:inline;vector-effect:none;fill:url(#oomox);fill-opacity:0.4;stroke:none;stroke-width:0.150943px;stroke-linecap:butt;stroke-linejoin:miter;stroke-miterlimit:4;stroke-dasharray:none;stroke-dashoffset:0;stroke-opacity:0.4;-inkscape-stroke:none;marker:none;stop-color:#000000"
     d="M 2.4886991,8.8800151 A 7.5861851,7.5861851 0 0 0 1.2073767,9.0005177 v 4.9428783 c 0,0.470379 0.3786792,0.849057 0.8490566,0.849057 h 7.829446 A 7.5861851,7.5861851 0 0 0 2.4886991,8.8800151 Z" />
  <path
     id="path140"
     class="ColorScheme-Text"
     style="font-variation-settings:normal;display:inline;vector-effect:none;fill:url(#oomox);fill-opacity:1;stroke:none;stroke-width:0.150943;stroke-linecap:round;stroke-linejoin:round;stroke-miterlimit:4;stroke-dasharray:none;stroke-dashoffset:0;stroke-opacity:0.5;-inkscape-stroke:none;marker:none;stop-color:#000000"
     d="m 2.4886279,10.873231 c -0.4319517,0.0045 -0.8618537,0.05926 -1.28125,0.162736 v 3.228183 c 0,0.29268 0.2356227,0.528303 0.5283019,0.528303 H 7.8229439 C 7.0920036,12.461011 4.9319653,10.87398 2.4886279,10.873231 Z" />
  <rect
     style="font-variation-settings:normal;display:inline;overflow:visible;visibility:visible;opacity:1;fill:none;fill-opacity:1;fill-rule:nonzero;stroke:url(#oomox);stroke-width:0.603773;stroke-linecap:butt;stroke-linejoin:miter;stroke-miterlimit:4;stroke-dasharray:none;stroke-dashoffset:0;stroke-opacity:1;marker:none;enable-background:accumulate;stop-color:#000000;stop-opacity:1"
     id="rect55"
     class="ColorScheme-Text"
     y="0.3018865"
     x="0.30171588"
     ry="1.4339623"
     rx="1.4339622"
     height="15.396227"
     width="15.396227" />
  <path
     id="path44"
     class="ColorScheme-Text"
     style="display:inline;opacity:0.7;fill:url(#oomox);fill-opacity:1;stroke-width:0.150943"
     d="m 7.4558949,1.2075808 c -0.00255,0.025636 3.019e-4,0.050767 0.012166,0.076282 0.04033,0.086462 0.1613433,0.098788 0.3161856,0.030957 0.1381389,-0.06051 0.270883,-0.068665 0.2951803,-0.016585 0.024282,0.052086 -0.023265,0.1251012 -0.1061328,0.161409 -0.1976286,0.086572 -0.1744754,0.1203708 0.2984982,0.4444283 0.3661584,0.2508741 0.4354626,0.2587838 0.8236256,0.089549 0.3355441,-0.1462896 0.4256151,-0.1501001 0.4322687,-0.017689 0.00487,0.096894 0.067603,0.1449651 0.1481434,0.1138708 0.076521,-0.029542 0.055151,0.0285 -0.046431,0.1293481 -0.1196032,0.1187304 -0.1399022,0.2254008 -0.057491,0.302919 0.10776,0.1013553 0.00934,0.171408 -0.6467395,0.4588 C 8.0838556,3.349404 7.2506541,3.9405639 6.7483553,4.5253122 6.4357923,4.889178 5.8497485,6.114493 5.9180942,6.2610122 5.9372262,6.3020332 6.1124836,6.2667622 6.3072458,6.1814132 6.5984685,6.0538401 6.6600654,5.970812 6.6554859,5.7148749 L 6.6499461,5.4042176 6.7969832,5.6131652 6.9451267,5.8232183 7.0656307,5.4373839 C 7.178722,5.0787353 7.190328,5.0701615 7.2391991,5.2947692 c 0.032451,0.1491394 0.1156256,0.2366161 0.2177916,0.2299527 0.1232273,-0.00805 0.1595548,0.04543 0.1459336,0.2133695 -0.016585,0.2043537 0.020915,0.2076072 0.409049,0.03759 C 8.3556911,5.6251172 8.4593893,5.5202218 8.5437409,5.2306495 L 8.6476594,4.8702427 8.786959,5.1521561 c 0.1326415,0.2676167 0.1424121,0.2685644 0.2012091,0.03206 0.053875,-0.2166302 0.071946,-0.2269877 0.1370853,-0.087338 0.054238,0.1162709 0.1609781,0.1220614 0.3891502,0.02211 C 9.8078723,4.9904345 9.7928382,5.0329983 9.3010359,5.7657303 9.0113591,6.1973186 8.6023402,7.0060135 8.3911734,7.5622359 8.0236655,8.5302671 7.6323583,10.16156 7.7842315,10.095032 7.9939597,10.003162 8.8759115,9.2325643 8.8455522,9.1674836 8.8260519,9.1256526 8.8032579,8.9494429 8.7958028,8.7761206 8.7823839,8.4641855 8.7860971,8.4624768 8.9704791,8.6357175 9.2308534,8.880356 9.4405907,8.7494987 9.4314903,8.348276 9.4233998,7.991088 9.556568,7.8352754 9.6669711,8.0718911 9.7206088,8.1868768 9.7673636,8.172332 9.9323009,7.9933974 10.082223,7.8307493 10.099673,7.7035042 9.9997394,7.4892702 9.8766058,7.2253056 9.8831493,7.2107765 10.082655,7.316806 c 0.225863,0.1200413 0.427037,-0.030385 0.327239,-0.244325 -0.03779,-0.081027 0.03812,-0.1457887 0.220003,-0.1890475 0.152255,-0.036215 0.273476,-0.032021 0.269754,0.00885 -0.0617,0.6763836 -0.07261,2.3068305 -0.01879,2.9131036 0.06483,0.7304959 0.432909,2.0516699 0.556087,1.9977129 0.02982,-0.01305 0.187714,-0.454064 0.351562,-0.980615 0.189637,-0.609416 0.254055,-1.010571 0.17578,-1.1033303 -0.09063,-0.1073977 -0.06353,-0.1722174 0.106133,-0.2465358 0.267357,-0.1171155 0.40059,-0.6456498 0.207843,-0.8269449 -0.09394,-0.088369 -0.0777,-0.1247879 0.05969,-0.1337705 0.237906,-0.015538 0.208948,-0.079166 -0.173568,-0.3681465 -0.30188,-0.2280682 -0.303306,-0.2307726 -0.03206,-0.152565 0.151122,0.043573 0.305628,0.067106 0.342717,0.050854 0.10648,-0.046648 -0.09034,-0.3973582 -0.232162,-0.4134735 -0.07027,-0.00799 -0.149944,-0.058483 -0.175782,-0.1138707 -0.0298,-0.063887 0.02871,-0.082381 0.158093,-0.04975 0.360818,0.091004 0.498421,-0.1666238 0.256485,-0.4809111 -0.117391,-0.1524945 -0.276267,-0.3074721 -0.352666,-0.3438235 -0.0971,-0.046207 -0.05613,-0.085021 0.134875,-0.1304536 0.16637,-0.039572 0.251623,-0.1090975 0.220001,-0.1768866 -0.02858,-0.061234 0.0051,-0.1049983 0.07296,-0.097289 0.06788,0.00771 0.156239,-0.1811891 0.196789,-0.4201057 0.04054,-0.2389153 0.09992,-0.446972 0.132665,-0.4621163 0.922241,0.9307835 1.594368,5.347409 1.752281,7.942213 h 0.153688 V 7.0216254 C 14.324962,6.0483342 13.831022,5.2104816 13.384926,4.764109 12.826692,4.2055262 12.801137,4.1239823 13.225727,4.250032 c 0.237758,0.070585 0.253432,0.057559 0.239905,-0.1912584 -0.01387,-0.2551401 -0.0057,-0.2529973 0.210053,0.035378 0.17608,0.2354008 0.377876,0.3265182 0.928654,0.4201057 0.07126,0.012113 0.121489,0.018379 0.187942,0.028743 V 2.2401564 c -0.01169,4.86e-5 -0.02255,-0.00119 -0.03427,-0.00113 l -0.490859,0.00442 0.367039,-0.1636199 c 0.05461,-0.024289 0.10475,-0.053643 0.15146,-0.082916 0,0 0.005,-0.1591713 0.005,-0.2387589 -3e-6,-0.3267895 -0.231178,-0.5505985 -0.569524,-0.5505985 H 13.40261 l -1.056895,0.4676404 -0.06081,-0.3261349 c -0.0078,-0.041428 -0.02422,-0.093598 -0.03648,-0.1415094 h -1.637306 c -6.03e-4,6.189e-4 9.07e-4,0.00633 0,0.00664 -0.0033,0.0013 -0.01975,-0.00578 -0.02651,-0.00664 z m 2.7384281,2.9341084 c 0.0086,-0.00159 0.01647,-0.00101 0.02431,0 0.109772,0.014151 0.127335,0.2825161 0.0033,0.4355834 -0.08173,0.1007359 -0.176215,0.1941219 -0.210054,0.2089475 -0.08793,0.038519 0.06567,-0.5912228 0.154777,-0.6345812 0.0097,-0.0047 0.01902,-0.00839 0.02765,-0.00995 z" />
</svg>
