<?xml version="1.0" encoding="UTF-8" standalone="no"?>
<svg
   height="48"
   viewBox="0 0 48 48"
   width="48"
   version="1.1"
   id="svg1138"
   xmlns="http://www.w3.org/2000/svg"
   xmlns:svg="http://www.w3.org/2000/svg"
   xmlns:rdf="http://www.w3.org/1999/02/22-rdf-syntax-ns#"
   xmlns:cc="http://creativecommons.org/ns#"
   xmlns:dc="http://purl.org/dc/elements/1.1/">
  <defs
     id="defs1142">
    <style
       id="current-color-scheme"
       type="text/css">
      .ColorScheme-Text { color: #0abdc6; } .ColorScheme-Highlight { color:#5294e2; }
     </style>
    <linearGradient
       id="arrongin"
       x1="0%"
       x2="0%"
       y1="0%"
       y2="100%">
      <stop
         offset="0%"
         style="stop-color:#dd9b44; stop-opacity:1"
         id="stop9192" />
      <stop
         offset="100%"
         style="stop-color:#ad6c16; stop-opacity:1"
         id="stop9194" />
    </linearGradient>
    <linearGradient
       id="aurora"
       x1="0%"
       x2="0%"
       y1="0%"
       y2="100%">
      <stop
         offset="0%"
         style="stop-color:#09D4DF; stop-opacity:1"
         id="stop9197" />
      <stop
         offset="100%"
         style="stop-color:#9269F4; stop-opacity:1"
         id="stop9199" />
    </linearGradient>
    <linearGradient
       id="cyberneon"
       x1="0%"
       x2="0%"
       y1="0%"
       y2="100%">
      <stop
         offset="0"
         style="stop-color:#0abdc6; stop-opacity:1"
         id="stop9202" />
      <stop
         offset="1"
         style="stop-color:#ea00d9; stop-opacity:1"
         id="stop9204" />
    </linearGradient>
    <linearGradient
       id="fitdance"
       x1="0%"
       x2="0%"
       y1="0%"
       y2="100%">
      <stop
         offset="0%"
         style="stop-color:#1AD6AB; stop-opacity:1"
         id="stop9207" />
      <stop
         offset="100%"
         style="stop-color:#329DB6; stop-opacity:1"
         id="stop9209" />
    </linearGradient>
    <linearGradient
       id="oomox"
       x1="0%"
       x2="0%"
       y1="0%"
       y2="100%">
      <stop
         offset="0%"
         style="stop-color:#0abdc6; stop-opacity:1"
         id="stop9212" />
      <stop
         offset="100%"
         style="stop-color:#b800ff; stop-opacity:1"
         id="stop9214" />
    </linearGradient>
    <linearGradient
       id="rainblue"
       x1="0%"
       x2="0%"
       y1="0%"
       y2="100%">
      <stop
         offset="0%"
         style="stop-color:#00F260; stop-opacity:1"
         id="stop9217" />
      <stop
         offset="100%"
         style="stop-color:#0575E6; stop-opacity:1"
         id="stop9219" />
    </linearGradient>
    <linearGradient
       id="sunrise"
       x1="0%"
       x2="0%"
       y1="0%"
       y2="100%">
      <stop
         offset="0%"
         style="stop-color: #FF8501; stop-opacity:1"
         id="stop9222" />
      <stop
         offset="100%"
         style="stop-color: #FFCB01; stop-opacity:1"
         id="stop9224" />
    </linearGradient>
    <linearGradient
       id="telinkrin"
       x1="0%"
       x2="0%"
       y1="0%"
       y2="100%">
      <stop
         offset="0%"
         style="stop-color: #b2ced6; stop-opacity:1"
         id="stop9227" />
      <stop
         offset="100%"
         style="stop-color: #6da5b7; stop-opacity:1"
         id="stop9229" />
    </linearGradient>
    <linearGradient
       id="60spsycho"
       x1="0%"
       x2="0%"
       y1="0%"
       y2="100%">
      <stop
         offset="0%"
         style="stop-color: #df5940; stop-opacity:1"
         id="stop9232" />
      <stop
         offset="25%"
         style="stop-color: #d8d15f; stop-opacity:1"
         id="stop9234" />
      <stop
         offset="50%"
         style="stop-color: #e9882a; stop-opacity:1"
         id="stop9236" />
      <stop
         offset="100%"
         style="stop-color: #279362; stop-opacity:1"
         id="stop9238" />
    </linearGradient>
    <linearGradient
       id="90ssummer"
       x1="0%"
       x2="0%"
       y1="0%"
       y2="100%">
      <stop
         offset="0%"
         style="stop-color: #f618c7; stop-opacity:1"
         id="stop9241" />
      <stop
         offset="20%"
         style="stop-color: #94ffab; stop-opacity:1"
         id="stop9243" />
      <stop
         offset="50%"
         style="stop-color: #fbfd54; stop-opacity:1"
         id="stop9245" />
      <stop
         offset="100%"
         style="stop-color: #0f83ae; stop-opacity:1"
         id="stop9247" />
    </linearGradient>
    <linearGradient
       id="linearGradient2284"
       gradientTransform="scale(1.6440072,0.60826983)"
       x1="0"
       y1="132.57439"
       x2="77.858536"
       y2="132.57439"
       gradientUnits="userSpaceOnUse">
      <stop
         style="stop-color:#41ff00;stop-opacity:1;"
         offset="0"
         id="stop2280" />
      <stop
         style="stop-color:#e7ff00;stop-opacity:1;"
         offset="1"
         id="stop2282" />
    </linearGradient>
  </defs>
  <path
     id="path1132"
     class="ColorScheme-Text"
     d="M 0.5,0.5 V 6.375 H 3.4375 V 3.4375 H 6.375 V 0.5 Z m 41.125,0 v 2.9375 h 2.9375 V 6.375 H 47.5 V 0.5 Z M 17.436523,11.022217 c -1.124512,0 -2.031004,1.09009 -2.053955,2.168701 0,0 -0.0459,-0.883532 -0.0459,10.740234 l 0.01149,10.83203 c 0.14917,1.594972 1.101564,2.134279 2.111329,2.226076 L 29.74879,36.95483 h 12.140138 c 1.744138,0 2.271972,-1.170408 2.363769,-2.260497 V 13.431885 c 0,-1.514647 -0.975344,-2.409668 -2.283446,-2.409668 l -12.231935,0.01149 c -8.043693,0 -12.300782,-0.01149 -12.300782,-0.01149 z M 3.7473146,13.890869 v 20.195313 h 0.5966797 l 1.0097656,-0.01146 4.5898438,-5.002932 c 2.7653773,-2.765394 5.0144043,-5.094743 5.0144043,-5.18654 0,-0.0918 -2.203128,-2.375246 -4.911133,-5.071777 L 5.5603026,13.90234 4.4472656,13.89087 Z m 26.0588394,0.74585 c 0.378661,0 0.745849,0.02294 1.12451,0.06885 5.117668,0.619627 8.778075,5.255375 8.181396,10.384522 l -0.02291,0.172119 c -0.688512,5.106197 -5.381629,8.697755 -10.487829,8.043703 -4.876703,-0.665529 -8.410889,-4.991461 -8.101074,-9.902589 0.321289,-4.911128 4.383307,-8.743653 9.30591,-8.766601 z m -0.131953,5.169311 c -2.032069,0.06422 -3.774437,1.597842 -4.044806,3.677613 -0.286868,2.294919 1.342531,4.394774 3.637451,4.693115 2.283443,0.298341 4.394774,-1.319582 4.704589,-3.614502 l 0.01146,-0.06885 c 0.263905,-2.29492 -1.376956,-4.383302 -3.671875,-4.658692 -0.215142,-0.02582 -0.426628,-0.03533 -0.636841,-0.0287 z M 0.5,41.625 V 47.5 H 6.375 V 44.5625 H 3.4375 V 41.625 Z m 44.0625,0 v 2.9375 H 41.625 V 47.5 H 47.5 v -5.875 z"
     style="stroke-width:2.938;stroke-dasharray:none;fill-opacity:1.0;fill:url(#oomox)" />
  <metadata
     id="metadata2383">
    <rdf:RDF>
      <cc:Work
         rdf:about="">
        <dc:creator>
          <cc:Agent>
            <dc:title>dreifacherspass</dc:title>
          </cc:Agent>
        </dc:creator>
      </cc:Work>
    </rdf:RDF>
  </metadata>
  <g
     id="g299">
    <g
       id="g1840"
       transform="matrix(0.36718463,0,0,0.36951638,14.525836,25.968012)">
      <path
         d="M 128,80.641 V 128 H 0 V 80.641 Z"
         id="path359"
         style="fill:url(#linearGradient2284);fill-opacity:1"
         transform="translate(-38.19832,-69.729474)" />
      <path
         d="M 13.309,80.641 60.664,128 H 81.879 L 34.52,80.641 Z m 42.422,0 47.363,47.359 h 21.215 L 76.946,80.641 Z m 42.43,0 29.84,29.84 V 89.27 l -8.6289,-8.6289 z m -98.16,7.9062 v 21.215 l 18.238,18.238 h 21.215 z"
         id="path361"
         transform="translate(-38.19832,-69.729474)"
         style="fill:#000000;fill-opacity:1" />
    </g>
  </g>
</svg>
