<?xml version="1.0" encoding="UTF-8" standalone="no"?>
<svg
   width="16"
   height="16"
   viewBox="0 0 16 16"
   version="1.1"
   id="svg3"
   xmlns:xlink="http://www.w3.org/1999/xlink"
   xmlns="http://www.w3.org/2000/svg"
   xmlns:svg="http://www.w3.org/2000/svg"
   xmlns:rdf="http://www.w3.org/1999/02/22-rdf-syntax-ns#"
   xmlns:cc="http://creativecommons.org/ns#"
   xmlns:dc="http://purl.org/dc/elements/1.1/">
  <defs>
   <style id="current-color-scheme" type="text/css">
   .ColorScheme-Text { color: #0abdc6; } .ColorScheme-Highlight { color:#5294e2; }
  </style>
  <linearGradient id="arrongin" x1="0%" x2="0%" y1="0%" y2="100%">
   <stop offset="0%" style="stop-color:#dd9b44; stop-opacity:1"/>
   <stop offset="100%" style="stop-color:#ad6c16; stop-opacity:1"/>
  </linearGradient>
  <linearGradient id="aurora" x1="0%" x2="0%" y1="0%" y2="100%">
   <stop offset="0%" style="stop-color:#09D4DF; stop-opacity:1"/>
   <stop offset="100%" style="stop-color:#9269F4; stop-opacity:1"/>
  </linearGradient>
  <linearGradient id="cyberneon" x1="0%" x2="0%" y1="0%" y2="100%">
    <stop offset="0" style="stop-color:#0abdc6; stop-opacity:1"/>
    <stop offset="1" style="stop-color:#ea00d9; stop-opacity:1"/>
  </linearGradient>
  <linearGradient id="fitdance" x1="0%" x2="0%" y1="0%" y2="100%">
   <stop offset="0%" style="stop-color:#1AD6AB; stop-opacity:1"/>
   <stop offset="100%" style="stop-color:#329DB6; stop-opacity:1"/>
  </linearGradient>
  <linearGradient id="oomox" x1="0%" x2="0%" y1="0%" y2="100%">
   <stop offset="0%" style="stop-color:#0abdc6; stop-opacity:1"/>
   <stop offset="100%" style="stop-color:#b800ff; stop-opacity:1"/>
  </linearGradient>
  <linearGradient id="rainblue" x1="0%" x2="0%" y1="0%" y2="100%">
   <stop offset="0%" style="stop-color:#00F260; stop-opacity:1"/>
   <stop offset="100%" style="stop-color:#0575E6; stop-opacity:1"/>
  </linearGradient>
  <linearGradient id="sunrise" x1="0%" x2="0%" y1="0%" y2="100%">
   <stop offset="0%" style="stop-color: #FF8501; stop-opacity:1"/>
   <stop offset="100%" style="stop-color: #FFCB01; stop-opacity:1"/>
  </linearGradient>
  <linearGradient id="telinkrin" x1="0%" x2="0%" y1="0%" y2="100%">
   <stop offset="0%" style="stop-color: #b2ced6; stop-opacity:1"/>
   <stop offset="100%" style="stop-color: #6da5b7; stop-opacity:1"/>
  </linearGradient>
  <linearGradient id="60spsycho" x1="0%" x2="0%" y1="0%" y2="100%">
   <stop offset="0%" style="stop-color: #df5940; stop-opacity:1"/>
   <stop offset="25%" style="stop-color: #d8d15f; stop-opacity:1"/>
   <stop offset="50%" style="stop-color: #e9882a; stop-opacity:1"/>
   <stop offset="100%" style="stop-color: #279362; stop-opacity:1"/>
  </linearGradient>
  <linearGradient id="90ssummer" x1="0%" x2="0%" y1="0%" y2="100%">
   <stop offset="0%" style="stop-color: #f618c7; stop-opacity:1"/>
   <stop offset="20%" style="stop-color: #94ffab; stop-opacity:1"/>
   <stop offset="50%" style="stop-color: #fbfd54; stop-opacity:1"/>
   <stop offset="100%" style="stop-color: #0f83ae; stop-opacity:1"/>
  </linearGradient>
 </defs>
  <path
     id="rect3"
     class="ColorScheme-Text"
     style="display:inline;fill:url(#oomox);fill-opacity:0.3;stroke:none;stroke-width:1.12905;stroke-linecap:square;stroke-linejoin:round"
     d="M 2.0047433,2.2857143 C 0.89404071,2.2857143 0,3.179755 0,4.2904576 v 7.4190844 c 0,1.110703 0.89404071,2.004744 2.0047433,2.004744 H 4.4760044 C 2.8735324,12.827411 1.3110401,11.910409 1.2142857,11.75 c -0.1958861,-0.324758 -0.1958861,-7.1752414 0,-7.5 C 1.3110401,4.0895913 2.8735324,3.1725887 4.4760044,2.2857143 Z M 8,8 C -1.1428571,-1.1428571 -1.1428571,-1.1428571 8,8 Z M 11.523996,2.2857143 C 13.126471,3.1725906 14.68896,4.089591 14.785714,4.25 c 0.195887,0.3247586 0.195887,7.175242 0,7.5 -0.09675,0.160409 -1.659243,1.077409 -3.261718,1.964286 h 2.471261 C 15.105959,13.714286 16,12.820245 16,11.709542 V 4.2904576 C 16,3.179755 15.105959,2.2857143 13.995257,2.2857143 Z" />
  <path
     id="path4"
     class="ColorScheme-Text"
     style="display:inline;fill:url(#oomox);fill-opacity:1;stroke:none;stroke-width:0.791489;stroke-linecap:square;stroke-linejoin:round"
     d="m 8.0000001,0.5 c -0.3917728,0 -6.5898281,3.4252411 -6.7857144,3.75 -0.1958863,0.3247589 -0.1958863,7.175241 0,7.5 0.1958863,0.324759 6.3939416,3.75 6.7857144,3.75 0.3917725,0 6.5898289,-3.425241 6.7857139,-3.75 0.195886,-0.324759 0.195886,-7.1752411 0,-7.5 C 14.589829,3.9252411 8.3917726,0.5 8.0000001,0.5 Z m 0,1.7857143 L 12.948661,5.1428571 8.0000001,8 v 5.714286 L 3.0513393,10.857143 V 5.1428571 L 8.0000001,8 Z m 4.1813619,5.1079798 c 0.08935,-0.00861 0.160993,0.048257 0.160993,0.1464845 v 0.3928571 l 0.889509,-0.5136718 c 0.0704,-0.040647 0.126953,-0.014801 0.126953,0.057757 v 0.2619977 c 0,0.072557 -0.05655,0.1635938 -0.126953,0.2042411 l -0.381418,0.220145 v 2.4882813 c 0,0.130969 -0.126825,0.335391 -0.253906,0.408761 l -2.287667,1.320591 c -0.127081,0.07337 -0.254186,0.01573 -0.254186,-0.115234 V 9.7776227 L 9.673549,9.997768 C 9.6031461,10.038415 9.5465959,10.012569 9.5465959,9.9400113 V 9.6780134 c 0,-0.072557 0.05655,-0.163594 0.1269531,-0.204241 l 0.889509,-0.513672 V 8.5672433 c -10e-7,-0.130969 0.127104,-0.3351119 0.254185,-0.4084822 L 12.08817,7.4249443 c 0.03177,-0.018343 0.06341,-0.028379 0.09319,-0.03125 z M 11.88058,7.9489397 c -0.01491,0.00141 -0.03064,0.00641 -0.0466,0.015625 l -0.762555,0.44029 c -0.06351,0.036669 -0.126954,0.1385524 -0.126954,0.204241 V 8.7402343 L 11.960938,8.1531809 V 8.0220424 c 0,-0.048782 -0.03564,-0.077328 -0.08036,-0.073103 z m 0.461775,0.5080914 -1.779297,1.0270649 v 2.226562 l 1.779297,-1.027343 z m -0.465123,0.6947546 c 0.05069,0.00597 0.08371,0.046654 0.08371,0.1146763 v 1.047712 c 0,0.108836 -0.08497,0.245391 -0.19057,0.306362 -0.105604,0.06097 -0.190569,0.02262 -0.190569,-0.08622 V 9.4866071 c 0,-0.1088357 0.08497,-0.24567 0.190569,-0.3066405 0.0396,-0.022864 0.07645,-0.031763 0.106864,-0.028181 z m -0.635603,0.3669086 c 0.05069,0.00597 0.08399,0.046654 0.08399,0.1146763 v 1.0477124 c 0,0.108835 -0.08497,0.245391 -0.190569,0.306361 -0.105605,0.06097 -0.19057,0.02262 -0.19057,-0.08622 V 9.8532367 c 0,-0.1088357 0.08496,-0.2453911 0.19057,-0.3063617 0.0396,-0.022864 0.07617,-0.031762 0.106584,-0.028181 z" />
  <metadata
     id="metadata1">
    <rdf:RDF>
      <cc:Work
         rdf:about="">
        <dc:creator>
          <cc:Agent>
            <dc:title>dreifacherspass</dc:title>
          </cc:Agent>
        </dc:creator>
        <cc:license
           rdf:resource="http://creativecommons.org/licenses/by-sa/4.0/" />
      </cc:Work>
      <cc:License
         rdf:about="http://creativecommons.org/licenses/by-sa/4.0/">
        <cc:permits
           rdf:resource="http://creativecommons.org/ns#Reproduction" />
        <cc:permits
           rdf:resource="http://creativecommons.org/ns#Distribution" />
        <cc:requires
           rdf:resource="http://creativecommons.org/ns#Notice" />
        <cc:requires
           rdf:resource="http://creativecommons.org/ns#Attribution" />
        <cc:permits
           rdf:resource="http://creativecommons.org/ns#DerivativeWorks" />
        <cc:requires
           rdf:resource="http://creativecommons.org/ns#ShareAlike" />
      </cc:License>
    </rdf:RDF>
  </metadata>
</svg>
