<?xml version="1.0" encoding="UTF-8" standalone="no"?>
<svg
   viewBox="0 0 16 16"
   style="display:inline;enable-background:new"
   version="1.0"
   id="svg11300"
   height="16"
   width="16"
   xmlns="http://www.w3.org/2000/svg"
   xmlns:svg="http://www.w3.org/2000/svg"
   xmlns:rdf="http://www.w3.org/1999/02/22-rdf-syntax-ns#"
   xmlns:cc="http://creativecommons.org/ns#"
   xmlns:dc="http://purl.org/dc/elements/1.1/">
  <defs>
   <style id="current-color-scheme" type="text/css">
   .ColorScheme-Text { color: #0abdc6; } .ColorScheme-Highlight { color:#5294e2; }
  </style>
  <linearGradient id="arrongin" x1="0%" x2="0%" y1="0%" y2="100%">
   <stop offset="0%" style="stop-color:#dd9b44; stop-opacity:1"/>
   <stop offset="100%" style="stop-color:#ad6c16; stop-opacity:1"/>
  </linearGradient>
  <linearGradient id="aurora" x1="0%" x2="0%" y1="0%" y2="100%">
   <stop offset="0%" style="stop-color:#09D4DF; stop-opacity:1"/>
   <stop offset="100%" style="stop-color:#9269F4; stop-opacity:1"/>
  </linearGradient>
  <linearGradient id="cyberneon" x1="0%" x2="0%" y1="0%" y2="100%">
    <stop offset="0" style="stop-color:#0abdc6; stop-opacity:1"/>
    <stop offset="1" style="stop-color:#ea00d9; stop-opacity:1"/>
  </linearGradient>
  <linearGradient id="fitdance" x1="0%" x2="0%" y1="0%" y2="100%">
   <stop offset="0%" style="stop-color:#1AD6AB; stop-opacity:1"/>
   <stop offset="100%" style="stop-color:#329DB6; stop-opacity:1"/>
  </linearGradient>
  <linearGradient id="oomox" x1="0%" x2="0%" y1="0%" y2="100%">
   <stop offset="0%" style="stop-color:#0abdc6; stop-opacity:1"/>
   <stop offset="100%" style="stop-color:#b800ff; stop-opacity:1"/>
  </linearGradient>
  <linearGradient id="rainblue" x1="0%" x2="0%" y1="0%" y2="100%">
   <stop offset="0%" style="stop-color:#00F260; stop-opacity:1"/>
   <stop offset="100%" style="stop-color:#0575E6; stop-opacity:1"/>
  </linearGradient>
  <linearGradient id="sunrise" x1="0%" x2="0%" y1="0%" y2="100%">
   <stop offset="0%" style="stop-color: #FF8501; stop-opacity:1"/>
   <stop offset="100%" style="stop-color: #FFCB01; stop-opacity:1"/>
  </linearGradient>
  <linearGradient id="telinkrin" x1="0%" x2="0%" y1="0%" y2="100%">
   <stop offset="0%" style="stop-color: #b2ced6; stop-opacity:1"/>
   <stop offset="100%" style="stop-color: #6da5b7; stop-opacity:1"/>
  </linearGradient>
  <linearGradient id="60spsycho" x1="0%" x2="0%" y1="0%" y2="100%">
   <stop offset="0%" style="stop-color: #df5940; stop-opacity:1"/>
   <stop offset="25%" style="stop-color: #d8d15f; stop-opacity:1"/>
   <stop offset="50%" style="stop-color: #e9882a; stop-opacity:1"/>
   <stop offset="100%" style="stop-color: #279362; stop-opacity:1"/>
  </linearGradient>
  <linearGradient id="90ssummer" x1="0%" x2="0%" y1="0%" y2="100%">
   <stop offset="0%" style="stop-color: #f618c7; stop-opacity:1"/>
   <stop offset="20%" style="stop-color: #94ffab; stop-opacity:1"/>
   <stop offset="50%" style="stop-color: #fbfd54; stop-opacity:1"/>
   <stop offset="100%" style="stop-color: #0f83ae; stop-opacity:1"/>
  </linearGradient>
 </defs>
  <path
     id="rect1"
     class="ColorScheme-Text"
     style="display:inline;opacity:1;vector-effect:none;fill:url(#oomox);fill-opacity:1;stroke:none;stroke-width:0.0474386;stroke-linecap:butt;stroke-linejoin:bevel;stroke-miterlimit:4;stroke-dasharray:0.0474386, 0.0948769;stroke-dashoffset:0;stroke-opacity:0.948819;marker:none;marker-start:none;marker-mid:none;marker-end:none;paint-order:normal;enable-background:new"
     d="M 0,1.7140965 V 14.285904 h 1.1429521 v -1.142952 h 1.1429522 v 1.142952 H 13.714761 v -1.142952 h 1.142287 v 1.142952 H 16 V 1.7140965 H 14.857048 V 2.8570483 H 13.714761 V 1.7140965 H 2.2859043 V 2.8570483 H 1.1429521 V 1.7140965 Z M 1.1429521,4.0000002 H 2.2859043 V 5.142952 H 1.1429521 Z m 12.5718089,0 h 1.142287 V 5.142952 H 13.714761 Z M 8,4.2852393 A 2.857176,2.857176 0 0 1 10.857048,7.1429523 2.857176,2.857176 0 0 1 8,9.9999998 2.857176,2.857176 0 0 1 5.1429522,7.1429523 2.857176,2.857176 0 0 1 8,4.2852393 Z M 6.8703459,5.7140958 v 2.8570475 h 0.2593082 0.026598 c 0.049975,2.856e-4 0.099463,-0.010611 0.1429521,-0.035239 l 2,-1.1429519 c 0.088772,-0.049112 0.1336436,-0.1495561 0.1336436,-0.25 0,-0.1004439 -0.044872,-0.2008895 -0.1336436,-0.25 l -2,-1.1429518 C 7.2557147,5.7253435 7.2062264,5.7136672 7.1562516,5.7140958 H 7.1296541 Z M 1.1429521,6.2859038 H 2.2859043 V 7.4281915 H 1.1429521 Z m 12.5718089,0 h 1.142287 V 7.4281915 H 13.714761 Z M 1.1429521,8.5711433 H 2.2859043 V 9.7140951 H 1.1429521 Z m 12.5718089,0 h 1.142287 V 9.7140951 H 13.714761 Z M 1.1429521,10.857048 h 1.1429522 v 1.142953 H 1.1429521 Z m 12.5718089,0 h 1.142287 v 1.142953 h -1.142287 z m -8.2859048,0.285904 c 0.374323,0 0.6898127,0.237958 0.8071812,0.571143 h 6.0498666 c 0.158288,0 0.285905,0.127618 0.285905,0.285905 0,0.158287 -0.127617,0.285904 -0.285905,0.285904 H 6.2360374 c -0.1173685,0.333186 -0.4328582,0.571143 -0.8071812,0.571143 -0.3743534,0 -0.6905005,-0.237914 -0.8078455,-0.571143 h -0.906915 c -0.1582874,0 -0.2852392,-0.127617 -0.2852392,-0.285904 0,-0.158288 0.1269518,-0.285905 0.2852392,-0.285905 h 0.906915 c 0.117345,-0.333228 0.4334921,-0.571143 0.8078455,-0.571143 z" />
  <metadata
     id="metadata3381">
    <rdf:RDF>
      <cc:Work
         rdf:about="">
        <dc:creator>
          <cc:Agent>
            <dc:title>dreifacherspass</dc:title>
          </cc:Agent>
        </dc:creator>
        <cc:license
           rdf:resource="http://creativecommons.org/licenses/by-sa/4.0/" />
      </cc:Work>
      <cc:License
         rdf:about="http://creativecommons.org/licenses/by-sa/4.0/">
        <cc:permits
           rdf:resource="http://creativecommons.org/ns#Reproduction" />
        <cc:permits
           rdf:resource="http://creativecommons.org/ns#Distribution" />
        <cc:requires
           rdf:resource="http://creativecommons.org/ns#Notice" />
        <cc:requires
           rdf:resource="http://creativecommons.org/ns#Attribution" />
        <cc:permits
           rdf:resource="http://creativecommons.org/ns#DerivativeWorks" />
        <cc:requires
           rdf:resource="http://creativecommons.org/ns#ShareAlike" />
      </cc:License>
    </rdf:RDF>
  </metadata>
</svg>
