<?xml version="1.0" encoding="UTF-8" standalone="no"?>
<svg
   width="16"
   height="16"
   fill="none"
   version="1.1"
   id="svg16"
   xmlns:xlink="http://www.w3.org/1999/xlink"
   xmlns="http://www.w3.org/2000/svg"
   xmlns:svg="http://www.w3.org/2000/svg"
   xmlns:rdf="http://www.w3.org/1999/02/22-rdf-syntax-ns#"
   xmlns:cc="http://creativecommons.org/ns#"
   xmlns:dc="http://purl.org/dc/elements/1.1/">
   <defs>
   <style id="current-color-scheme" type="text/css">
   .ColorScheme-Text { color: #0abdc6; } .ColorScheme-Highlight { color:#5294e2; }
  </style>
  <linearGradient id="arrongin" x1="0%" x2="0%" y1="0%" y2="100%">
   <stop offset="0%" style="stop-color:#dd9b44; stop-opacity:1"/>
   <stop offset="100%" style="stop-color:#ad6c16; stop-opacity:1"/>
  </linearGradient>
  <linearGradient id="aurora" x1="0%" x2="0%" y1="0%" y2="100%">
   <stop offset="0%" style="stop-color:#09D4DF; stop-opacity:1"/>
   <stop offset="100%" style="stop-color:#9269F4; stop-opacity:1"/>
  </linearGradient>
  <linearGradient id="cyberneon" x1="0%" x2="0%" y1="0%" y2="100%">
    <stop offset="0" style="stop-color:#0abdc6; stop-opacity:1"/>
    <stop offset="1" style="stop-color:#ea00d9; stop-opacity:1"/>
  </linearGradient>
  <linearGradient id="fitdance" x1="0%" x2="0%" y1="0%" y2="100%">
   <stop offset="0%" style="stop-color:#1AD6AB; stop-opacity:1"/>
   <stop offset="100%" style="stop-color:#329DB6; stop-opacity:1"/>
  </linearGradient>
  <linearGradient id="oomox" x1="0%" x2="0%" y1="0%" y2="100%">
   <stop offset="0%" style="stop-color:#0abdc6; stop-opacity:1"/>
   <stop offset="100%" style="stop-color:#b800ff; stop-opacity:1"/>
  </linearGradient>
  <linearGradient id="rainblue" x1="0%" x2="0%" y1="0%" y2="100%">
   <stop offset="0%" style="stop-color:#00F260; stop-opacity:1"/>
   <stop offset="100%" style="stop-color:#0575E6; stop-opacity:1"/>
  </linearGradient>
  <linearGradient id="sunrise" x1="0%" x2="0%" y1="0%" y2="100%">
   <stop offset="0%" style="stop-color: #FF8501; stop-opacity:1"/>
   <stop offset="100%" style="stop-color: #FFCB01; stop-opacity:1"/>
  </linearGradient>
  <linearGradient id="telinkrin" x1="0%" x2="0%" y1="0%" y2="100%">
   <stop offset="0%" style="stop-color: #b2ced6; stop-opacity:1"/>
   <stop offset="100%" style="stop-color: #6da5b7; stop-opacity:1"/>
  </linearGradient>
  <linearGradient id="60spsycho" x1="0%" x2="0%" y1="0%" y2="100%">
   <stop offset="0%" style="stop-color: #df5940; stop-opacity:1"/>
   <stop offset="25%" style="stop-color: #d8d15f; stop-opacity:1"/>
   <stop offset="50%" style="stop-color: #e9882a; stop-opacity:1"/>
   <stop offset="100%" style="stop-color: #279362; stop-opacity:1"/>
  </linearGradient>
  <linearGradient id="90ssummer" x1="0%" x2="0%" y1="0%" y2="100%">
   <stop offset="0%" style="stop-color: #f618c7; stop-opacity:1"/>
   <stop offset="20%" style="stop-color: #94ffab; stop-opacity:1"/>
   <stop offset="50%" style="stop-color: #fbfd54; stop-opacity:1"/>
   <stop offset="100%" style="stop-color: #0f83ae; stop-opacity:1"/>
  </linearGradient>
       <linearGradient
       id="linearGradient2284"
       gradientTransform="matrix(1.6440072,0,0,0.60826983,-38.207552,-69.729474)"
       x1="0"
       y1="132.57439"
       x2="77.858536"
       y2="132.57439"
       gradientUnits="userSpaceOnUse">
      <stop
         style="stop-color:#41ff00;stop-opacity:1;"
         offset="0"
         id="stop2280" />
      <stop
         style="stop-color:#e7ff00;stop-opacity:1;"
         offset="1"
         id="stop2282" />
    </linearGradient>
 </defs>
  <path
     fill-rule="evenodd"
     clip-rule="evenodd"
     d="M 1.8163292,0 H 3.1831613 V 0.56450166 A 0.41004963,0.41004963 0 0 0 3.5932109,0.97455129 H 4.6866766 A 0.41004963,0.41004963 0 0 0 5.0967263,0.56450166 V 0 h 5.4673287 v 0.56450166 a 0.41004963,0.41004963 0 0 0 0.410049,0.41004963 H 12.06757 A 0.41004963,0.41004963 0 0 0 12.477619,0.56450166 V 0 h 1.366833 v 15.035153 h -1.366833 v -0.425221 a 0.41004963,0.41004963 0 0 0 -0.410049,-0.41005 h -1.093466 a 0.41004963,0.41004963 0 0 0 -0.410049,0.41005 v 0.425221 H 5.0967263 V 14.609932 A 0.41004963,0.41004963 0 0 0 4.6866766,14.199882 H 3.5932109 a 0.41004963,0.41004963 0 0 0 -0.4100496,0.41005 v 0.425221 H 1.8163292 Z m 9.1577748,2.5058133 a 0.41004963,0.41004963 0 0 0 -0.410049,0.4100496 v 0.572156 a 0.41004963,0.41004963 0 0 0 0.410049,0.4100496 H 12.06757 A 0.41004963,0.41004963 0 0 0 12.477619,3.4880189 V 2.9158629 A 0.41004963,0.41004963 0 0 0 12.06757,2.5058133 Z m -0.410049,3.3337035 a 0.41004963,0.41004963 0 0 1 0.410049,-0.4100496 h 1.093466 a 0.41004963,0.41004963 0 0 1 0.410049,0.4100496 V 6.4113994 A 0.41004963,0.41004963 0 0 1 12.06757,6.821449 H 10.974104 A 0.41004963,0.41004963 0 0 1 10.564055,6.4113994 V 5.8393801 Z m 0.410049,2.5133309 a 0.41004963,0.41004963 0 0 0 -0.410049,0.4100496 v 0.5720193 a 0.41004963,0.41004963 0 0 0 0.410049,0.4100496 H 12.06757 A 0.41004963,0.41004963 0 0 0 12.477619,9.3349166 V 8.7628973 A 0.41004963,0.41004963 0 0 0 12.06757,8.3528477 Z m -0.410049,3.3335673 a 0.41004963,0.41004963 0 0 1 0.410049,-0.41005 h 1.093466 a 0.41004963,0.41004963 0 0 1 0.410049,0.41005 v 0.572019 A 0.41004963,0.41004963 0 0 1 12.06757,12.668483 H 10.974104 A 0.41004963,0.41004963 0 0 1 10.564055,12.258434 Z M 3.5932109,2.5058133 A 0.41004963,0.41004963 0 0 0 3.1831613,2.9158629 v 0.572156 A 0.41004963,0.41004963 0 0 0 3.5932109,3.8980685 H 4.6866766 A 0.41004963,0.41004963 0 0 0 5.0967263,3.4880189 V 2.9158629 A 0.41004963,0.41004963 0 0 0 4.6866766,2.5058133 Z M 3.1831613,5.8395168 A 0.41004963,0.41004963 0 0 1 3.5932109,5.4294672 H 4.6866766 A 0.41004963,0.41004963 0 0 1 5.0967263,5.8395168 V 6.4113994 A 0.41004963,0.41004963 0 0 1 4.6866766,6.821449 H 3.5932109 A 0.41004963,0.41004963 0 0 1 3.1831613,6.4113994 V 5.8393801 Z M 3.5932109,8.3528477 A 0.41004963,0.41004963 0 0 0 3.1831613,8.7628973 V 9.3349166 A 0.41004963,0.41004963 0 0 0 3.5932109,9.7449662 H 4.6866766 A 0.41004963,0.41004963 0 0 0 5.0967263,9.3349166 V 8.7628973 A 0.41004963,0.41004963 0 0 0 4.6866766,8.3528477 Z M 3.1831613,11.686415 a 0.41004963,0.41004963 0 0 1 0.4100496,-0.41005 h 1.0934657 a 0.41004963,0.41004963 0 0 1 0.4100497,0.41005 v 0.572019 A 0.41004963,0.41004963 0 0 1 4.6866766,12.668483 H 3.5932109 A 0.41004963,0.41004963 0 0 1 3.1831613,12.258434 Z"
     id="path2"
     class="ColorScheme-Text"
     style="fill:url(#oomox);stroke-width:0.136683;opacity:0.5" />
  <path
     id="path3"
     class="ColorScheme-Text"
     style="stroke-width:0.136683;fill:url(#oomox)"
     d="M 7.1015625 3.625 C 6.9277008 3.6274372 6.7517883 3.6502167 6.5761719 3.6972656 C 5.4333647 4.0035723 4.7543769 5.1795952 5.0605469 6.3222656 C 5.3412939 7.3695314 6.3519918 8.0258441 7.3984375 7.8925781 L 8.9101562 10.025391 L 9.5859375 9.84375 L 10.259766 10.025391 L 11.773438 7.8925781 C 12.819882 8.0258441 13.828764 7.3695314 14.109375 6.3222656 C 14.415545 5.1795952 13.738374 4.0035723 12.595703 3.6972656 C 11.471622 3.3961527 10.317277 4.0473402 9.9882812 5.15625 L 9.9863281 5.15625 L 9.9765625 5.1972656 A 1.985187 1.985187 0 0 0 9.96875 5.2285156 L 9.5859375 6.6582031 L 9.1992188 5.2148438 L 9.1992188 5.2128906 L 9.1992188 5.2109375 L 9.1835938 5.15625 C 8.9061186 4.2204921 8.0404154 3.6118391 7.1015625 3.625 z M 7.1308594 4.7832031 A 0.98416332 0.98416332 0 0 1 7.3847656 6.71875 A 0.98473001 0.98473001 0 1 1 6.875 4.8164062 A 0.98416332 0.98416332 0 0 1 7.1308594 4.7832031 z M 12.041016 4.7832031 A 0.98416332 0.98416332 0 0 1 12.294922 4.8164062 A 0.98447769 0.98447769 0 1 1 11.787109 6.71875 A 0.98416332 0.98416332 0 0 1 12.041016 4.7832031 z " />
  <path
     d="m 10.018415,9.960379 -1.2302853,-0.32968 -1.388428,5.181524 a 0.88844087,0.88844087 0 0 0 0.6283327,1.088135 L 8.4000861,16 Z"
     id="path4"
     class="ColorScheme-Text"
     style="fill:url(#oomox);stroke-width:0.136683" />
  <path
     d="m 9.1526639,9.960379 1.2302851,-0.32968 1.388428,5.181524 a 0.88844087,0.88844087 0 0 1 -0.628196,1.088135 L 10.770993,16 Z"
     id="path7"
     class="ColorScheme-Text"
     style="fill:url(#oomox);stroke-width:0.136683" />
          <g
     id="g1840"
     transform="matrix(0.12499902,0,0,0.12579281,4.7759067,8.6699615)">
    <path
       d="m 89.792448,10.911526 v 47.359 h -128 v -47.359 z"
       id="path359"
       style="fill:url(#linearGradient2284);fill-opacity:1" />
    <path
       d="m -24.898552,10.911526 47.355,47.359 h 21.215 l -47.3590004,-47.359 z m 42.422,0 47.363,47.359 h 21.215 l -47.363,-47.359 z m 42.43,0 29.84,29.84 v -21.211 l -8.6289,-8.6289 z m -98.16,7.9062 v 21.215 l 18.238,18.238 H 1.2464476 Z"
       id="path361"
       style="fill:#000000;fill-opacity:1" />
  </g>
  <metadata
     id="metadata16">
    <rdf:RDF>
      <cc:Work
         rdf:about="">
        <dc:creator>
          <cc:Agent>
            <dc:title>dreifacherspass</dc:title>
          </cc:Agent>
        </dc:creator>
        <cc:license
           rdf:resource="http://creativecommons.org/licenses/by-sa/4.0/" />
      </cc:Work>
      <cc:License
         rdf:about="http://creativecommons.org/licenses/by-sa/4.0/">
        <cc:permits
           rdf:resource="http://creativecommons.org/ns#Reproduction" />
        <cc:permits
           rdf:resource="http://creativecommons.org/ns#Distribution" />
        <cc:requires
           rdf:resource="http://creativecommons.org/ns#Notice" />
        <cc:requires
           rdf:resource="http://creativecommons.org/ns#Attribution" />
        <cc:permits
           rdf:resource="http://creativecommons.org/ns#DerivativeWorks" />
        <cc:requires
           rdf:resource="http://creativecommons.org/ns#ShareAlike" />
      </cc:License>
    </rdf:RDF>
  </metadata>
</svg>
