<?xml version="1.0" encoding="UTF-8" standalone="no"?>
<!-- Created with Inkscape (http://www.inkscape.org/) -->

<svg
   width="16"
   height="16"
   viewBox="0 0 4.2333332 4.2333333"
   version="1.1"
   id="svg1"
   xmlns:xlink="http://www.w3.org/1999/xlink"
   xmlns="http://www.w3.org/2000/svg"
   xmlns:svg="http://www.w3.org/2000/svg"
   xmlns:rdf="http://www.w3.org/1999/02/22-rdf-syntax-ns#"
   xmlns:cc="http://creativecommons.org/ns#"
   xmlns:dc="http://purl.org/dc/elements/1.1/">
  <defs>
   <style id="current-color-scheme" type="text/css">
   .ColorScheme-Text { color: #0abdc6; } .ColorScheme-Highlight { color:#5294e2; }
  </style>
  <linearGradient id="arrongin" x1="0%" x2="0%" y1="0%" y2="100%">
   <stop offset="0%" style="stop-color:#dd9b44; stop-opacity:1"/>
   <stop offset="100%" style="stop-color:#ad6c16; stop-opacity:1"/>
  </linearGradient>
  <linearGradient id="aurora" x1="0%" x2="0%" y1="0%" y2="100%">
   <stop offset="0%" style="stop-color:#09D4DF; stop-opacity:1"/>
   <stop offset="100%" style="stop-color:#9269F4; stop-opacity:1"/>
  </linearGradient>
  <linearGradient id="cyberneon" x1="0%" x2="0%" y1="0%" y2="100%">
    <stop offset="0" style="stop-color:#0abdc6; stop-opacity:1"/>
    <stop offset="1" style="stop-color:#ea00d9; stop-opacity:1"/>
  </linearGradient>
  <linearGradient id="fitdance" x1="0%" x2="0%" y1="0%" y2="100%">
   <stop offset="0%" style="stop-color:#1AD6AB; stop-opacity:1"/>
   <stop offset="100%" style="stop-color:#329DB6; stop-opacity:1"/>
  </linearGradient>
  <linearGradient id="oomox" x1="0%" x2="0%" y1="0%" y2="100%">
   <stop offset="0%" style="stop-color:#0abdc6; stop-opacity:1"/>
   <stop offset="100%" style="stop-color:#b800ff; stop-opacity:1"/>
  </linearGradient>
  <linearGradient id="rainblue" x1="0%" x2="0%" y1="0%" y2="100%">
   <stop offset="0%" style="stop-color:#00F260; stop-opacity:1"/>
   <stop offset="100%" style="stop-color:#0575E6; stop-opacity:1"/>
  </linearGradient>
  <linearGradient id="sunrise" x1="0%" x2="0%" y1="0%" y2="100%">
   <stop offset="0%" style="stop-color: #FF8501; stop-opacity:1"/>
   <stop offset="100%" style="stop-color: #FFCB01; stop-opacity:1"/>
  </linearGradient>
  <linearGradient id="telinkrin" x1="0%" x2="0%" y1="0%" y2="100%">
   <stop offset="0%" style="stop-color: #b2ced6; stop-opacity:1"/>
   <stop offset="100%" style="stop-color: #6da5b7; stop-opacity:1"/>
  </linearGradient>
  <linearGradient id="60spsycho" x1="0%" x2="0%" y1="0%" y2="100%">
   <stop offset="0%" style="stop-color: #df5940; stop-opacity:1"/>
   <stop offset="25%" style="stop-color: #d8d15f; stop-opacity:1"/>
   <stop offset="50%" style="stop-color: #e9882a; stop-opacity:1"/>
   <stop offset="100%" style="stop-color: #279362; stop-opacity:1"/>
  </linearGradient>
  <linearGradient id="90ssummer" x1="0%" x2="0%" y1="0%" y2="100%">
   <stop offset="0%" style="stop-color: #f618c7; stop-opacity:1"/>
   <stop offset="20%" style="stop-color: #94ffab; stop-opacity:1"/>
   <stop offset="50%" style="stop-color: #fbfd54; stop-opacity:1"/>
   <stop offset="100%" style="stop-color: #0f83ae; stop-opacity:1"/>
  </linearGradient>
 </defs>
  <rect
     style="stroke-opacity:0.3;fill-opacity:0.2;fill:url(#oomox);stroke:url(#oomox);stroke-width:0.0805945;stroke-dasharray:none"
     id="rect1"
     class="ColorScheme-Text"
     width="1.9766889"
     height="1.9766889"
     x="0.040297169"
     y="0.040297169"
     ry="0.080594443"
     rx="0.08059445" />
  <rect
     style="stroke-opacity:0.3;fill-opacity:0.2;fill:url(#oomox);stroke:url(#oomox);stroke-width:0.0805945;stroke-dasharray:none"
     id="rect1-2"
     class="ColorScheme-Text"
     width="1.9766889"
     height="1.9766889"
     x="0.040297169"
     y="2.2163472"
     ry="0.080594443"
     rx="0.08059445" />
  <rect
     style="stroke-opacity:0.3;fill-opacity:0.2;fill:url(#oomox);stroke:url(#oomox);stroke-width:0.0805945;stroke-dasharray:none"
     id="rect1-2-7"
     class="ColorScheme-Text"
     width="1.976689"
     height="1.9766887"
     x="2.2163472"
     y="0.040297169"
     ry="0.080594443"
     rx="0.08059445" />
  <rect
     style="stroke-opacity:1;fill-opacity:0.3;fill:url(#oomox);stroke:url(#oomox);stroke-width:0.0805945;stroke-dasharray:none"
     id="rect1-5"
     class="ColorScheme-Text"
     width="1.9766889"
     height="1.9766889"
     x="2.2163472"
     y="2.2163472"
     ry="0.080594443"
     rx="0.08059445" />
  <path
     style="-inkscape-font-specification:'Ginza Display';fill:url(#oomox);stroke-width:0.0437832"
     d="M 1.707649,0.35702142 H 1.6351142 L 1.0286412,1.634779 0.42015344,0.35702142 h -0.0705201 c -0.007388,0 -0.0137683,0.003134 -0.0191412,0.009403 -0.004702,0.006269 -0.007052,0.0138802 -0.007052,0.0228351 V 1.8345858 h -0.0604456 c -0.010746,0 -0.0201486,-0.00537 -0.028208,-0.016119 -0.008059,-0.010746 -0.0120892,-0.023283 -0.0120892,-0.037611 V 0.38925919 c 0,-0.0456701 0.0124249,-0.0846241 0.0372749,-0.11686188 0.02485,-0.0331333 0.0547371,-0.0496999 0.0896613,-0.0496999 h 0.0725349 c 0.0221635,0 0.047685,0.0179099 0.0765647,0.0537296 L 1.0286412,1.4440388 1.5585494,0.27642701 c 0.028879,-0.0358197 0.054402,-0.0537296 0.076564,-0.0537296 h 0.072535 c 0.034924,0 0.064812,0.0165666 0.089661,0.0496999 0.02485,0.0322378 0.037275,0.0711918 0.037275,0.11686188 V 1.7808562 c 0,0.014328 -0.00403,0.026865 -0.012089,0.037611 -0.00805,0.010746 -0.017462,0.016119 -0.028209,0.016119 H 1.7338422 V 0.38925919 c 0,-0.008954 -0.00269,-0.0165666 -0.00805,-0.0228351 -0.0047,-0.006269 -0.010746,-0.009403 -0.018133,-0.009403 z M 1.5827277,1.7808562 V 0.71432339 L 1.1434882,1.76373 C 1.1146092,1.79955 1.0890862,1.81746 1.0669242,1.81746 H 0.9903586 C 0.9681949,1.81746 0.9426735,1.79955 0.913794,1.76373 L 0.4745547,0.71432339 V 1.7808562 c 0,0.014328 -0.004029,0.026865 -0.0120892,0.037611 -0.00806,0.010746 -0.0174622,0.016119 -0.028208,0.016119 H 0.37381171 V 0.39194572 L 0.99237366,1.6831357 h 0.07455 L 1.6834707,0.39194572 V 1.8345858 h -0.060446 c -0.010746,0 -0.020148,-0.00537 -0.028207,-0.016119 -0.00805,-0.010746 -0.01209,-0.023283 -0.012089,-0.037611 z"
     id="text2"
     class="ColorScheme-Text"
     aria-label="M" />
  <path
     style="-inkscape-font-specification:'Ginza Display';fill:url(#oomox);stroke-width:0.0468064"
     d="M 2.5714499,0.42149715 H 3.8379352 V 0.99237527 H 2.5714499 Z M 2.686585,1.1911751 v 0.5896831 c 0,0.014328 -0.0046,0.026865 -0.013816,0.037611 -0.00921,0.010746 -0.019957,0.016119 -0.032238,0.016119 H 2.571449 v -0.777737 h 1.1974043 c 0.035309,0 0.064859,-0.013432 0.088654,-0.040297 0.02533,-0.0286559 0.037995,-0.0617891 0.037995,-0.0993999 V 0.49671866 c 0,-0.0385063 -0.012665,-0.0711918 -0.037995,-0.0980566 C 3.8337137,0.37090168 3.8041624,0.3570215 3.7688542,0.3570215 H 2.5138825 v 1.4775664 h -0.069081 c -0.012281,0 -0.023027,-0.00537 -0.032238,-0.016119 -0.00921,-0.010746 -0.013816,-0.023283 -0.013816,-0.037611 V 0.27642697 c 0,-0.014328 0.00461,-0.0268648 0.013816,-0.0376108 0.00921,-0.010746 0.019956,-0.0161189 0.032238,-0.0161189 h 1.3240527 c 0.066011,0 0.1228106,0.0268648 0.1703998,0.0805945 0.047589,0.0537297 0.071384,0.11820534 0.071384,0.19342685 v 0.42043505 c 0,0.0752216 -0.023796,0.13969723 -0.071384,0.19342693 -0.047589,0.05373 -0.1043894,0.080594 -0.1703998,0.080594 z m 0,-0.33312403 H 3.7228002 V 0.55582137 H 2.686585 Z"
     id="text2-6"
     class="ColorScheme-Text"
     aria-label="P" />
  <path
     style="-inkscape-font-specification:'Ginza Display';fill:url(#oomox);stroke-width:0.0477491"
     d="m 0.27062519,2.3987479 h 0.071892 V 4.010637 h -0.071892 c -0.0127807,0 -0.0239641,-0.00538 -0.0335496,-0.016119 -0.009586,-0.010746 -0.0143784,-0.023282 -0.0143784,-0.03761 V 2.4524775 c 0,-0.014328 0.004793,-0.026865 0.0143784,-0.037611 0.009586,-0.010746 0.0207688,-0.016119 0.0335496,-0.016119 z M 0.47431913,4.010637 h -0.071892 V 3.2208114 h 0.404057 L 1.638969,4.010637 H 1.5215455 c -0.031952,0 -0.063905,-0.01791 -0.095856,-0.053729 L 0.7297993,3.3202112 H 0.5222471 v 0.6366967 c 0,0.014328 -0.004793,0.026864 -0.0143784,0.03761 -0.009586,0.010746 -0.0207688,0.016119 -0.0335496,0.016119 z M 1.4879959,2.3987479 H 1.603023 L 0.80408765,3.1536495 H 0.40242716 V 2.3987479 h 0.071892 c 0.0127807,0 0.0239641,0.00537 0.0335496,0.016119 0.009586,0.010746 0.0143784,0.023283 0.0143784,0.037611 V 3.0542496 H 0.72740292 L 1.3921399,2.4524775 c 0.035585,-0.032214 0.063904,-0.05373 0.095856,-0.05373 z M 0.84722285,3.1858872 1.674915,2.3987479 h 0.069496 c 0.023964,0 0.040339,0.00582 0.049126,0.017462 0.00959,0.011642 0.00999,0.023731 0.0012,0.036268 L 1.0125728,3.1858872 1.828283,3.9569079 c 0.00879,0.012536 0.00839,0.024625 -0.0012,0.036268 -0.00879,0.011641 -0.025162,0.017462 -0.049127,0.017462 H 1.71086 Z"
     id="text3"
     class="ColorScheme-Text"
     aria-label="K" />
  <path
     style="-inkscape-font-specification:'Ginza Display';fill:url(#oomox);stroke-width:0.0505567"
     d="m 3.8763153,3.8064662 v -0.402973 q 0,-0.05373 -0.080595,-0.1208917 Q 3.717812,3.2154388 3.6157258,3.2046932 3.7178122,3.1939468 3.7957205,3.126785 3.8763153,3.0569362 3.8763153,3.0032063 V 2.60292 q 0,-0.028208 -0.021492,-0.048357 Q 3.8333313,2.533071 3.8037803,2.533071 H 2.3987473 V 2.452476 q 0,-0.021492 0.016119,-0.037611 0.016119,-0.016119 0.037611,-0.016119 h 1.3916003 q 0.068505,0 0.1168622,0.0497 0.0497,0.0497 0.0497,0.1195486 v 0.4567027 q 0,0.069849 -0.0497,0.119549 -0.048357,0.049699 -0.1168622,0.049699 v 0.010746 q 0.068505,0 0.1168622,0.0497 0.0497,0.049699 0.0497,0.1195481 V 3.841388 q 0,0.069849 -0.0497,0.119549 -0.048357,0.0497 -0.1168622,0.0497 H 2.452477 q -0.021492,0 -0.037611,-0.016119 Q 2.398747,3.978399 2.398747,3.956907 V 3.876313 h 1.4050328 q 0.030895,0 0.051043,-0.020149 0.021492,-0.020149 0.021492,-0.0497 z M 3.6775151,3.3685692 H 2.5599365 q -0.021492,0 -0.03761,-0.01612 -0.016119,-0.016119 -0.016119,-0.03761 V 3.236931 h 1.1148922 q 0.061789,0 0.1249217,0.060446 0.063133,0.059103 0.063133,0.1061163 V 3.8118394 H 2.3987473 V 3.728558 q 0,-0.021492 0.016119,-0.037611 0.016119,-0.016119 0.037611,-0.016119 h 1.2250379 z m 0,-0.6340113 H 2.452477 q -0.021492,0 -0.037611,-0.016119 -0.016119,-0.016119 -0.016119,-0.037611 v -0.083281 h 1.4104059 v 0.4056594 q 0,0.0497 -0.063133,0.1088033 -0.061789,0.057759 -0.1249217,0.057759 H 2.5062068 v -0.083281 q 0,-0.021492 0.016119,-0.037611 0.016119,-0.016119 0.03761,-0.016119 h 1.1175785 z"
     id="text4"
     class="ColorScheme-Text"
     aria-label="3" />
  <metadata
     id="metadata15">
    <rdf:RDF>
      <cc:Work
         rdf:about="">
        <dc:creator>
          <cc:Agent>
            <dc:title>dreifacherspass</dc:title>
          </cc:Agent>
        </dc:creator>
        <cc:license
           rdf:resource="http://creativecommons.org/licenses/by-sa/4.0/" />
      </cc:Work>
      <cc:License
         rdf:about="http://creativecommons.org/licenses/by-sa/4.0/">
        <cc:permits
           rdf:resource="http://creativecommons.org/ns#Reproduction" />
        <cc:permits
           rdf:resource="http://creativecommons.org/ns#Distribution" />
        <cc:requires
           rdf:resource="http://creativecommons.org/ns#Notice" />
        <cc:requires
           rdf:resource="http://creativecommons.org/ns#Attribution" />
        <cc:permits
           rdf:resource="http://creativecommons.org/ns#DerivativeWorks" />
        <cc:requires
           rdf:resource="http://creativecommons.org/ns#ShareAlike" />
      </cc:License>
    </rdf:RDF>
  </metadata>
</svg>
