<?xml version="1.0" encoding="UTF-8" standalone="no"?>
<svg
   height="16"
   viewBox="0 0 16 16"
   width="16"
   version="1.1"
   id="svg1138"
   xmlns="http://www.w3.org/2000/svg"
   xmlns:svg="http://www.w3.org/2000/svg"
   xmlns:rdf="http://www.w3.org/1999/02/22-rdf-syntax-ns#"
   xmlns:cc="http://creativecommons.org/ns#"
   xmlns:dc="http://purl.org/dc/elements/1.1/">
  <defs>
   <style id="current-color-scheme" type="text/css">
   .ColorScheme-Text { color: #0abdc6; } .ColorScheme-Highlight { color:#5294e2; }
  </style>
  <linearGradient id="arrongin" x1="0%" x2="0%" y1="0%" y2="100%">
   <stop offset="0%" style="stop-color:#dd9b44; stop-opacity:1"/>
   <stop offset="100%" style="stop-color:#ad6c16; stop-opacity:1"/>
  </linearGradient>
  <linearGradient id="aurora" x1="0%" x2="0%" y1="0%" y2="100%">
   <stop offset="0%" style="stop-color:#09D4DF; stop-opacity:1"/>
   <stop offset="100%" style="stop-color:#9269F4; stop-opacity:1"/>
  </linearGradient>
  <linearGradient id="cyberneon" x1="0%" x2="0%" y1="0%" y2="100%">
    <stop offset="0" style="stop-color:#0abdc6; stop-opacity:1"/>
    <stop offset="1" style="stop-color:#ea00d9; stop-opacity:1"/>
  </linearGradient>
  <linearGradient id="fitdance" x1="0%" x2="0%" y1="0%" y2="100%">
   <stop offset="0%" style="stop-color:#1AD6AB; stop-opacity:1"/>
   <stop offset="100%" style="stop-color:#329DB6; stop-opacity:1"/>
  </linearGradient>
  <linearGradient id="oomox" x1="0%" x2="0%" y1="0%" y2="100%">
   <stop offset="0%" style="stop-color:#0abdc6; stop-opacity:1"/>
   <stop offset="100%" style="stop-color:#b800ff; stop-opacity:1"/>
  </linearGradient>
  <linearGradient id="rainblue" x1="0%" x2="0%" y1="0%" y2="100%">
   <stop offset="0%" style="stop-color:#00F260; stop-opacity:1"/>
   <stop offset="100%" style="stop-color:#0575E6; stop-opacity:1"/>
  </linearGradient>
  <linearGradient id="sunrise" x1="0%" x2="0%" y1="0%" y2="100%">
   <stop offset="0%" style="stop-color: #FF8501; stop-opacity:1"/>
   <stop offset="100%" style="stop-color: #FFCB01; stop-opacity:1"/>
  </linearGradient>
  <linearGradient id="telinkrin" x1="0%" x2="0%" y1="0%" y2="100%">
   <stop offset="0%" style="stop-color: #b2ced6; stop-opacity:1"/>
   <stop offset="100%" style="stop-color: #6da5b7; stop-opacity:1"/>
  </linearGradient>
  <linearGradient id="60spsycho" x1="0%" x2="0%" y1="0%" y2="100%">
   <stop offset="0%" style="stop-color: #df5940; stop-opacity:1"/>
   <stop offset="25%" style="stop-color: #d8d15f; stop-opacity:1"/>
   <stop offset="50%" style="stop-color: #e9882a; stop-opacity:1"/>
   <stop offset="100%" style="stop-color: #279362; stop-opacity:1"/>
  </linearGradient>
  <linearGradient id="90ssummer" x1="0%" x2="0%" y1="0%" y2="100%">
   <stop offset="0%" style="stop-color: #f618c7; stop-opacity:1"/>
   <stop offset="20%" style="stop-color: #94ffab; stop-opacity:1"/>
   <stop offset="50%" style="stop-color: #fbfd54; stop-opacity:1"/>
   <stop offset="100%" style="stop-color: #0f83ae; stop-opacity:1"/>
  </linearGradient>
 </defs>
  <path
     id="path7"
     class="ColorScheme-Text"
     style="fill:url(#oomox);fill-opacity:1;stroke-width:1.00017;stroke-dasharray:none"
     d="M 0 0 L 0 2 L 1 2 L 1 1 L 2 1 L 2 0 L 0 0 z M 14 0 L 14 1 L 15 1 L 15 2 L 16 2 L 16 0 L 14 0 z M 0 14 L 0 16 L 2 16 L 2 15 L 1 15 L 1 14 L 0 14 z M 15 14 L 15 15 L 14 15 L 14 16 L 16 16 L 16 14 L 15 14 z " />
  <path
     style="fill:url(#oomox);fill-opacity:1;stroke-width:1.00017;stroke-dasharray:none"
     d="m 1.1054688,4.5585937 v 6.8750003 h 0.203125 l 0.34375,-0.0039 1.5625,-1.7031262 C 4.1562489,8.7851561 4.9218751,7.9921862 4.9218751,7.9609362 4.9218751,7.9296851 4.171874,7.1523418 3.25,6.2343738 L 1.7226562,4.5624987 1.34375,4.558594 Z"
     id="path3"
     class="ColorScheme-Text"/>
  <path
     style="fill:url(#oomox);fill-opacity:1;stroke-width:1.00017;stroke-dasharray:none"
     d="m 5.7656249,3.5820313 c -0.3828126,0 -0.6914057,0.3710945 -0.6992188,0.7382812 0,0 -0.015625,-0.3007768 -0.015625,3.6562499 l 0.00391,3.6874996 c 0.050781,0.542969 0.3750005,0.726563 0.7187503,0.757813 l 4.1835925,-0.01172 h 4.1328131 c 0.593749,0 0.773437,-0.398437 0.804687,-0.769531 V 4.4023438 c 0,-0.5156245 -0.332032,-0.8203125 -0.777343,-0.8203125 l -4.1640631,0.00391 c -2.7382785,0 -4.1875003,-0.00391 -4.1875003,-0.00391 z"
     id="path2"
     class="ColorScheme-Text"/>
  <metadata
     id="metadata2383">
    <rdf:RDF>
      <cc:Work
         rdf:about="">
        <dc:creator>
          <cc:Agent>
            <dc:title>dreifacherspass</dc:title>
          </cc:Agent>
        </dc:creator>
      </cc:Work>
    </rdf:RDF>
  </metadata>
</svg>
