<?xml version="1.0" encoding="UTF-8" standalone="no"?>
<svg
   viewBox="0 0 48 48"
   style="display:inline;enable-background:new"
   version="1.0"
   id="svg11300"
   height="48"
   width="48"
   xmlns="http://www.w3.org/2000/svg"
   xmlns:svg="http://www.w3.org/2000/svg"
   xmlns:rdf="http://www.w3.org/1999/02/22-rdf-syntax-ns#"
   xmlns:cc="http://creativecommons.org/ns#"
   xmlns:dc="http://purl.org/dc/elements/1.1/">
  <defs
     id="defs3">
    <style
       id="current-color-scheme"
       type="text/css">
      .ColorScheme-Text { color: #0abdc6; } .ColorScheme-Highlight { color:#5294e2; }
     </style>
    <linearGradient
       id="arrongin"
       x1="0%"
       x2="0%"
       y1="0%"
       y2="100%">
      <stop
         offset="0%"
         style="stop-color:#dd9b44; stop-opacity:1"
         id="stop9192" />
      <stop
         offset="100%"
         style="stop-color:#ad6c16; stop-opacity:1"
         id="stop9194" />
    </linearGradient>
    <linearGradient
       id="aurora"
       x1="0%"
       x2="0%"
       y1="0%"
       y2="100%">
      <stop
         offset="0%"
         style="stop-color:#09D4DF; stop-opacity:1"
         id="stop9197" />
      <stop
         offset="100%"
         style="stop-color:#9269F4; stop-opacity:1"
         id="stop9199" />
    </linearGradient>
    <linearGradient
       id="cyberneon"
       x1="0%"
       x2="0%"
       y1="0%"
       y2="100%">
      <stop
         offset="0"
         style="stop-color:#0abdc6; stop-opacity:1"
         id="stop9202" />
      <stop
         offset="1"
         style="stop-color:#ea00d9; stop-opacity:1"
         id="stop9204" />
    </linearGradient>
    <linearGradient
       id="fitdance"
       x1="0%"
       x2="0%"
       y1="0%"
       y2="100%">
      <stop
         offset="0%"
         style="stop-color:#1AD6AB; stop-opacity:1"
         id="stop9207" />
      <stop
         offset="100%"
         style="stop-color:#329DB6; stop-opacity:1"
         id="stop9209" />
    </linearGradient>
    <linearGradient
       id="oomox"
       x1="0%"
       x2="0%"
       y1="0%"
       y2="100%">
      <stop
         offset="0%"
         style="stop-color:#0abdc6; stop-opacity:1"
         id="stop9212" />
      <stop
         offset="100%"
         style="stop-color:#b800ff; stop-opacity:1"
         id="stop9214" />
    </linearGradient>
    <linearGradient
       id="rainblue"
       x1="0%"
       x2="0%"
       y1="0%"
       y2="100%">
      <stop
         offset="0%"
         style="stop-color:#00F260; stop-opacity:1"
         id="stop9217" />
      <stop
         offset="100%"
         style="stop-color:#0575E6; stop-opacity:1"
         id="stop9219" />
    </linearGradient>
    <linearGradient
       id="sunrise"
       x1="0%"
       x2="0%"
       y1="0%"
       y2="100%">
      <stop
         offset="0%"
         style="stop-color: #FF8501; stop-opacity:1"
         id="stop9222" />
      <stop
         offset="100%"
         style="stop-color: #FFCB01; stop-opacity:1"
         id="stop9224" />
    </linearGradient>
    <linearGradient
       id="telinkrin"
       x1="0%"
       x2="0%"
       y1="0%"
       y2="100%">
      <stop
         offset="0%"
         style="stop-color: #b2ced6; stop-opacity:1"
         id="stop9227" />
      <stop
         offset="100%"
         style="stop-color: #6da5b7; stop-opacity:1"
         id="stop9229" />
    </linearGradient>
    <linearGradient
       id="60spsycho"
       x1="0%"
       x2="0%"
       y1="0%"
       y2="100%">
      <stop
         offset="0%"
         style="stop-color: #df5940; stop-opacity:1"
         id="stop9232" />
      <stop
         offset="25%"
         style="stop-color: #d8d15f; stop-opacity:1"
         id="stop9234" />
      <stop
         offset="50%"
         style="stop-color: #e9882a; stop-opacity:1"
         id="stop9236" />
      <stop
         offset="100%"
         style="stop-color: #279362; stop-opacity:1"
         id="stop9238" />
    </linearGradient>
    <linearGradient
       id="90ssummer"
       x1="0%"
       x2="0%"
       y1="0%"
       y2="100%">
      <stop
         offset="0%"
         style="stop-color: #f618c7; stop-opacity:1"
         id="stop9241" />
      <stop
         offset="20%"
         style="stop-color: #94ffab; stop-opacity:1"
         id="stop9243" />
      <stop
         offset="50%"
         style="stop-color: #fbfd54; stop-opacity:1"
         id="stop9245" />
      <stop
         offset="100%"
         style="stop-color: #0f83ae; stop-opacity:1"
         id="stop9247" />
    </linearGradient>
  </defs>
  <path
     id="rect1"
     class="ColorScheme-Text"
     style="display:inline;opacity:1;vector-effect:none;fill:url(#oomox);fill-opacity:1;stroke:none;stroke-width:0.139351;stroke-linecap:butt;stroke-linejoin:bevel;stroke-miterlimit:4;stroke-dasharray:0.139351, 0.278701;stroke-dashoffset:0;stroke-opacity:0.948819;marker:none;marker-start:none;marker-mid:none;marker-end:none;paint-order:normal;enable-background:new"
     d="M 0.5,5.5351579 V 42.464842 h 3.3574219 v -3.357421 h 3.3574219 v 3.357421 H 40.78711 v -3.357421 h 3.355469 v 3.357421 H 47.5 V 5.5351579 h -3.357421 v 3.357421 H 40.78711 V 5.5351579 H 7.2148438 v 3.357421 H 3.8574219 V 5.5351579 Z M 3.8574219,12.25 h 3.3574219 v 3.357421 H 3.8574219 Z m 36.9296881,0 h 3.355469 v 3.357421 H 40.78711 Z M 24,13.08789 A 8.3929546,8.3929546 0 0 1 32.392578,21.482422 8.3929546,8.3929546 0 0 1 24,29.874999 8.3929546,8.3929546 0 0 1 15.607422,21.482422 8.3929546,8.3929546 0 0 1 24,13.08789 Z m -3.318359,4.197266 v 8.392577 h 0.761718 0.07813 c 0.146801,8.39e-4 0.292173,-0.03117 0.419922,-0.103515 l 5.875,-3.357421 c 0.260768,-0.144266 0.392578,-0.439321 0.392578,-0.734375 0,-0.295054 -0.13181,-0.590113 -0.392578,-0.734375 l -5.875,-3.357421 c -0.127749,-0.07243 -0.273121,-0.106729 -0.419922,-0.10547 h -0.07813 z M 3.8574219,18.964842 h 3.3574219 v 3.35547 H 3.8574219 Z m 36.9296881,0 h 3.355469 v 3.35547 H 40.78711 Z M 3.8574219,25.677733 h 3.3574219 v 3.357421 H 3.8574219 Z m 36.9296881,0 h 3.355469 v 3.357421 H 40.78711 Z M 3.8574219,32.392579 H 7.2148438 V 35.75 H 3.8574219 Z m 36.9296881,0 h 3.355469 V 35.75 H 40.78711 Z M 16.447265,33.23242 c 1.099574,0 2.026325,0.699003 2.371095,1.677735 h 17.771484 c 0.464969,0 0.839844,0.374875 0.839844,0.839845 0,0.46497 -0.374875,0.839845 -0.839844,0.839845 H 18.81836 c -0.34477,0.978732 -1.271521,1.677731 -2.371095,1.677731 -1.099663,0 -2.028345,-0.698873 -2.373046,-1.677731 h -2.664063 c -0.464969,0 -0.83789,-0.374875 -0.83789,-0.839845 0,-0.46497 0.372921,-0.839845 0.83789,-0.839845 h 2.664063 c 0.344701,-0.978858 1.273383,-1.677735 2.373046,-1.677735 z" />
  <metadata
     id="metadata3381">
    <rdf:RDF>
      <cc:Work
         rdf:about="">
        <dc:creator>
          <cc:Agent>
            <dc:title>dreifacherspass</dc:title>
          </cc:Agent>
        </dc:creator>
        <cc:license
           rdf:resource="http://creativecommons.org/licenses/by-sa/4.0/" />
      </cc:Work>
      <cc:License
         rdf:about="http://creativecommons.org/licenses/by-sa/4.0/">
        <cc:permits
           rdf:resource="http://creativecommons.org/ns#Reproduction" />
        <cc:permits
           rdf:resource="http://creativecommons.org/ns#Distribution" />
        <cc:requires
           rdf:resource="http://creativecommons.org/ns#Notice" />
        <cc:requires
           rdf:resource="http://creativecommons.org/ns#Attribution" />
        <cc:permits
           rdf:resource="http://creativecommons.org/ns#DerivativeWorks" />
        <cc:requires
           rdf:resource="http://creativecommons.org/ns#ShareAlike" />
      </cc:License>
    </rdf:RDF>
  </metadata>
</svg>
