<?xml version="1.0" encoding="UTF-8" standalone="no"?>
<svg
   width="16"
   height="16"
   version="1.1"
   id="svg24"
   xmlns:xlink="http://www.w3.org/1999/xlink"
   xmlns="http://www.w3.org/2000/svg"
   xmlns:svg="http://www.w3.org/2000/svg">
  <defs>
   <style id="current-color-scheme" type="text/css">
   .ColorScheme-Text { color: #0abdc6; } .ColorScheme-Highlight { color:#5294e2; }
  </style>
  <linearGradient id="arrongin" x1="0%" x2="0%" y1="0%" y2="100%">
   <stop offset="0%" style="stop-color:#dd9b44; stop-opacity:1"/>
   <stop offset="100%" style="stop-color:#ad6c16; stop-opacity:1"/>
  </linearGradient>
  <linearGradient id="aurora" x1="0%" x2="0%" y1="0%" y2="100%">
   <stop offset="0%" style="stop-color:#09D4DF; stop-opacity:1"/>
   <stop offset="100%" style="stop-color:#9269F4; stop-opacity:1"/>
  </linearGradient>
  <linearGradient id="cyberneon" x1="0%" x2="0%" y1="0%" y2="100%">
    <stop offset="0" style="stop-color:#0abdc6; stop-opacity:1"/>
    <stop offset="1" style="stop-color:#ea00d9; stop-opacity:1"/>
  </linearGradient>
  <linearGradient id="fitdance" x1="0%" x2="0%" y1="0%" y2="100%">
   <stop offset="0%" style="stop-color:#1AD6AB; stop-opacity:1"/>
   <stop offset="100%" style="stop-color:#329DB6; stop-opacity:1"/>
  </linearGradient>
  <linearGradient id="oomox" x1="0%" x2="0%" y1="0%" y2="100%">
   <stop offset="0%" style="stop-color:#0abdc6; stop-opacity:1"/>
   <stop offset="100%" style="stop-color:#b800ff; stop-opacity:1"/>
  </linearGradient>
  <linearGradient id="rainblue" x1="0%" x2="0%" y1="0%" y2="100%">
   <stop offset="0%" style="stop-color:#00F260; stop-opacity:1"/>
   <stop offset="100%" style="stop-color:#0575E6; stop-opacity:1"/>
  </linearGradient>
  <linearGradient id="sunrise" x1="0%" x2="0%" y1="0%" y2="100%">
   <stop offset="0%" style="stop-color: #FF8501; stop-opacity:1"/>
   <stop offset="100%" style="stop-color: #FFCB01; stop-opacity:1"/>
  </linearGradient>
  <linearGradient id="telinkrin" x1="0%" x2="0%" y1="0%" y2="100%">
   <stop offset="0%" style="stop-color: #b2ced6; stop-opacity:1"/>
   <stop offset="100%" style="stop-color: #6da5b7; stop-opacity:1"/>
  </linearGradient>
  <linearGradient id="60spsycho" x1="0%" x2="0%" y1="0%" y2="100%">
   <stop offset="0%" style="stop-color: #df5940; stop-opacity:1"/>
   <stop offset="25%" style="stop-color: #d8d15f; stop-opacity:1"/>
   <stop offset="50%" style="stop-color: #e9882a; stop-opacity:1"/>
   <stop offset="100%" style="stop-color: #279362; stop-opacity:1"/>
  </linearGradient>
  <linearGradient id="90ssummer" x1="0%" x2="0%" y1="0%" y2="100%">
   <stop offset="0%" style="stop-color: #f618c7; stop-opacity:1"/>
   <stop offset="20%" style="stop-color: #94ffab; stop-opacity:1"/>
   <stop offset="50%" style="stop-color: #fbfd54; stop-opacity:1"/>
   <stop offset="100%" style="stop-color: #0f83ae; stop-opacity:1"/>
  </linearGradient>
       <linearGradient
       id="linearGradient2284"
       gradientTransform="matrix(1.6440072,0,0,0.60826983,-38.207552,-69.729474)"
       x1="0"
       y1="132.57439"
       x2="77.858536"
       y2="132.57439"
       gradientUnits="userSpaceOnUse">
      <stop
         style="stop-color:#41ff00;stop-opacity:1;"
         offset="0"
         id="stop2280" />
      <stop
         style="stop-color:#e7ff00;stop-opacity:1;"
         offset="1"
         id="stop2282" />
    </linearGradient>
 </defs>
   <metadata
     id="metadata7">
    <rdf:RDF>
      <cc:Work
         rdf:about="">
        <dc:format>image/svg+xml</dc:format>
        <dc:type
           rdf:resource="http://purl.org/dc/dcmitype/StillImage" />
        <dc:creator>
          <cc:Agent>
            <dc:title>dreifacherspass</dc:title>
          </cc:Agent>
        </dc:creator>
        <cc:license
           rdf:resource="http://creativecommons.org/licenses/by-sa/4.0/" />
      </cc:Work>
      <cc:License
         rdf:about="http://creativecommons.org/licenses/by-sa/4.0/">
        <cc:permits
           rdf:resource="http://creativecommons.org/ns#Reproduction" />
        <cc:permits
           rdf:resource="http://creativecommons.org/ns#Distribution" />
        <cc:requires
           rdf:resource="http://creativecommons.org/ns#Notice" />
        <cc:requires
           rdf:resource="http://creativecommons.org/ns#Attribution" />
        <cc:permits
           rdf:resource="http://creativecommons.org/ns#DerivativeWorks" />
        <cc:requires
           rdf:resource="http://creativecommons.org/ns#ShareAlike" />
      </cc:License>
    </rdf:RDF>
  </metadata>
  <path
     id="path24"
     style="fill:url(#oomox);stroke-width:0.8125"
     class="ColorScheme-Text"
     d="m 9.4804688,1.4902344 c -1.9117743,0.0022 -3.7256376,0.8459074 -4.9589844,2.3066406 0.1851545,0.031271 0.348246,0.088555 0.4941406,0.1816406 0.0892,0.056973 0.1713986,0.1307216 0.2460938,0.21875 1.0566178,-1.1810606 2.5580823,-1.8677275 4.1425781,-1.8945312 0.02539,-1.7e-4 0.050782,-1.7e-4 0.076172,0 3.1411192,0 5.6875002,2.5463805 5.6875002,5.6875 0,3.1411196 -2.546381,5.6874996 -5.6875002,5.6874996 -1.3624251,-0.0067 -2.6771811,-0.502239 -3.7050782,-1.396484 -0.00483,0.364559 -0.015861,0.696057 -0.046875,0.998047 1.0951244,0.782345 2.4060963,1.205459 3.7519532,1.210937 3.5898512,0 6.5000002,-2.910149 6.5000002,-6.4999996 0,-3.5898509 -2.910149,-6.5 -6.5000002,-6.5 z m 0,4.0625 c -1.3461941,10e-8 -2.4374999,1.0913059 -2.4375,2.4375 3e-7,1.3461939 1.0913061,2.4374996 2.4375,2.4374996 1.3461942,0 2.4375002,-1.0913056 2.4375002,-2.4374996 0,-1.3461941 -1.091306,-2.4375001 -2.4375002,-2.4375 z m 0,1.21875 c 0.6730972,-1e-7 1.2187502,0.5456529 1.2187502,1.21875 0,0.6730971 -0.545653,1.2187501 -1.2187502,1.21875 -0.673097,0 -1.21875,-0.545653 -1.21875,-1.21875 0,-0.673097 0.545653,-1.21875 1.21875,-1.21875 z" />
  <path
     fill="url(#oomox)"
     class="ColorScheme-Text"
     d="m 1.4883412,4.370117 c -0.3262494,0 -0.58468005,0.050566 -0.80231023,0.1896063 C 0.46840568,4.6987308 0.29391261,4.9493193 0.19088967,5.2670351 -0.0151613,5.9024752 0.0072135,6.6796917 0,7.741803 v 0.00338 3.379926 0.0034 c 0.0072461,1.062111 -0.01518136,1.839328 0.19088967,2.474769 0.10301795,0.317714 0.27751601,0.568304 0.4951413,0.707311 0.21762528,0.138833 0.47606083,0.189432 0.80231023,0.189432 h 2.4805686 c 0.3262498,0 0.5846803,-0.05056 0.8023104,-0.189606 0.217625,-0.138999 0.391151,-0.389596 0.4941741,-0.707312 0.2060459,-0.63544 0.1846434,-1.412648 0.1918571,-2.474768 v -0.0034 -3.3799253 -0.00338 C 5.4500578,6.6795313 5.4724325,5.9023232 5.2663614,5.2668831 5.1633386,4.9491673 4.9888452,4.6985705 4.7712202,4.5595714 4.5535901,4.4207159 4.2951596,4.370117 3.9689098,4.370117 Z m 0,0.8441582 h 2.4805686 c 0.2938928,0 0.4989463,0.052844 0.6278916,0.1352004 0.1289499,0.08239 0.1842866,0.1716258 0.2344934,0.3264529 C 4.93147,5.9848481 4.953849,6.6843598 4.9611377,7.7467499 v 3.3716861 c -0.00725,1.066628 -0.029419,1.766123 -0.1298429,2.075769 -0.050203,0.154827 -0.1055483,0.244098 -0.2344934,0.326453 -0.12894,0.08237 -0.3339988,0.135201 -0.6278916,0.135201 H 1.4883412 c -0.2938929,0 -0.49895159,-0.05285 -0.62789154,-0.135201 C 0.73150478,13.438273 0.67615829,13.349032 0.62595654,13.194205 0.52578628,12.885285 0.50342636,12.185781 0.49611372,11.123384 v -0.0051 -3.3667403 -0.00483 C 0.50340688,6.6843898 0.52578138,5.9848782 0.62595654,5.6759584 0.67615829,5.5211314 0.73150478,5.4318616 0.86044966,5.3495056 0.98938961,5.267141 1.1944483,5.2143053 1.4883412,5.2143053 Z"
     id="path24-3"
     style="color:#0abdc6;fill:url(#linearGradient3);stroke-width:0.622879" />
  <path
     class="ColorScheme-Text"
     fill-rule="evenodd"
     d="M 0.9922274,1.4999791 V 4.0324538 H 1.4883412 V 2.3441373 H 3.9689098 V 4.0324538 H 4.465024 V 1.4999791 Z M 1.9844549,3.1882954 V 4.0324538 H 2.4805686 V 3.1882954 Z m 0.9922274,0 V 4.0324538 H 3.472796 V 3.1882954 Z"
     id="path25"
     style="color:#0abdc6;fill:url(#oomox);stroke-width:0.622879" />
  <path
     class="ColorScheme-Text"
     fill-rule="evenodd"
     d="M 0.9922274,1.5 V 4.0324747 H 1.4883412 V 2.3441582 H 3.9689098 V 4.0324747 H 4.465024 V 1.5 Z M 1.9844549,3.1883163 V 4.0324747 H 2.4805686 V 3.1883163 Z m 0.9922274,0 V 4.0324747 H 3.472796 V 3.1883163 Z"
     id="path25-9"
     style="color:#0abdc6;fill:url(#oomox);stroke-width:0.622879" />
          <g
     id="g1840"
     transform="matrix(0.12499902,0,0,0.12579281,4.7759067,8.6699615)">
    <path
       d="m 89.792448,10.911526 v 47.359 h -128 v -47.359 z"
       id="path359"
       style="fill:url(#linearGradient2284);fill-opacity:1" />
    <path
       d="m -24.898552,10.911526 47.355,47.359 h 21.215 l -47.3590004,-47.359 z m 42.422,0 47.363,47.359 h 21.215 l -47.363,-47.359 z m 42.43,0 29.84,29.84 v -21.211 l -8.6289,-8.6289 z m -98.16,7.9062 v 21.215 l 18.238,18.238 H 1.2464476 Z"
       id="path361"
       style="fill:#000000;fill-opacity:1" />
  </g>
</svg>
