<?xml version="1.0" encoding="UTF-8" standalone="no"?>
<svg
   width="16"
   height="16"
   viewBox="-6.468 0 4.2333441 4.2333441"
   version="1.1"
   id="svg3290"
   xmlns="http://www.w3.org/2000/svg"
   xmlns:svg="http://www.w3.org/2000/svg"
   xmlns:rdf="http://www.w3.org/1999/02/22-rdf-syntax-ns#"
   xmlns:cc="http://creativecommons.org/ns#"
   xmlns:dc="http://purl.org/dc/elements/1.1/">
   <defs>
      <style id="current-color-scheme" type="text/css">
         .ColorScheme-Text { color: #0abdc6; } .ColorScheme-Highlight { color:#5294e2; }
      </style>
      <linearGradient id="arrongin" x1="0%" x2="0%" y1="0%" y2="100%">
         <stop offset="0%" style="stop-color:#dd9b44; stop-opacity:1"/>
         <stop offset="100%" style="stop-color:#ad6c16; stop-opacity:1"/>
      </linearGradient>
      <linearGradient id="aurora" x1="0%" x2="0%" y1="0%" y2="100%">
         <stop offset="0%" style="stop-color:#09D4DF; stop-opacity:1"/>
         <stop offset="100%" style="stop-color:#9269F4; stop-opacity:1"/>
      </linearGradient>
      <linearGradient id="cyberneon" x1="0%" x2="0%" y1="0%" y2="100%">
         <stop offset="0" style="stop-color:#0abdc6; stop-opacity:1"/>
         <stop offset="1" style="stop-color:#ea00d9; stop-opacity:1"/>
      </linearGradient>
      <linearGradient id="fitdance" x1="0%" x2="0%" y1="0%" y2="100%">
         <stop offset="0%" style="stop-color:#1AD6AB; stop-opacity:1"/>
         <stop offset="100%" style="stop-color:#329DB6; stop-opacity:1"/>
      </linearGradient>
      <linearGradient id="oomox" x1="0%" x2="0%" y1="0%" y2="100%">
         <stop offset="0%" style="stop-color:#0abdc6; stop-opacity:1"/>
         <stop offset="100%" style="stop-color:#b800ff; stop-opacity:1"/>
      </linearGradient>
      <linearGradient id="rainblue" x1="0%" x2="0%" y1="0%" y2="100%">
         <stop offset="0%" style="stop-color:#00F260; stop-opacity:1"/>
         <stop offset="100%" style="stop-color:#0575E6; stop-opacity:1"/>
      </linearGradient>
      <linearGradient id="sunrise" x1="0%" x2="0%" y1="0%" y2="100%">
         <stop offset="0%" style="stop-color: #FF8501; stop-opacity:1"/>
         <stop offset="100%" style="stop-color: #FFCB01; stop-opacity:1"/>
      </linearGradient>
      <linearGradient id="telinkrin" x1="0%" x2="0%" y1="0%" y2="100%">
         <stop offset="0%" style="stop-color: #b2ced6; stop-opacity:1"/>
         <stop offset="100%" style="stop-color: #6da5b7; stop-opacity:1"/>
      </linearGradient>
      <linearGradient id="60spsycho" x1="0%" x2="0%" y1="0%" y2="100%">
         <stop offset="0%" style="stop-color: #df5940; stop-opacity:1"/>
         <stop offset="25%" style="stop-color: #d8d15f; stop-opacity:1"/>
         <stop offset="50%" style="stop-color: #e9882a; stop-opacity:1"/>
         <stop offset="100%" style="stop-color: #279362; stop-opacity:1"/>
      </linearGradient>
      <linearGradient id="90ssummer" x1="0%" x2="0%" y1="0%" y2="100%">
         <stop offset="0%" style="stop-color: #f618c7; stop-opacity:1"/>
         <stop offset="20%" style="stop-color: #94ffab; stop-opacity:1"/>
         <stop offset="50%" style="stop-color: #fbfd54; stop-opacity:1"/>
         <stop offset="100%" style="stop-color: #0f83ae; stop-opacity:1"/>
      </linearGradient>
   </defs>
  <metadata
     id="metadata3287">
    <rdf:RDF>
      <cc:Work
         rdf:about="">
        <dc:format>image/svg+xml</dc:format>
        <dc:type
           rdf:resource="http://purl.org/dc/dcmitype/StillImage" />
        <cc:license
           rdf:resource="http://creativecommons.org/licenses/by-sa/4.0/" />
        <dc:creator>
          <cc:Agent>
            <dc:title>dreifacherspass</dc:title>
          </cc:Agent>
        </dc:creator>
      </cc:Work>
      <cc:License
         rdf:about="http://creativecommons.org/licenses/by-sa/4.0/">
        <cc:permits
           rdf:resource="http://creativecommons.org/ns#Reproduction" />
        <cc:permits
           rdf:resource="http://creativecommons.org/ns#Distribution" />
        <cc:requires
           rdf:resource="http://creativecommons.org/ns#Notice" />
        <cc:requires
           rdf:resource="http://creativecommons.org/ns#Attribution" />
        <cc:permits
           rdf:resource="http://creativecommons.org/ns#DerivativeWorks" />
        <cc:requires
           rdf:resource="http://creativecommons.org/ns#ShareAlike" />
      </cc:License>
    </rdf:RDF>
  </metadata>
  <path
     d="m -2.5548486,0.89799968 c 0,0 -0.5449397,-0.81196024 -1.3405519,-0.89370121 0,0 -1.5083204,-0.17316588 -1.8528125,1.67841443 -0.058538,0.3146594 -0.05248,0.6028006 0.00216,0.8599116 0.1642976,0.175474 0.4035852,0.3489176 0.7061135,0.4749306 0.3324307,0.1384564 0.4656979,0.3671401 0.5178316,0.5497644 0.3235624,-0.4659062 0.021832,-1.192533 0.021832,-1.192533 0.3378626,0.1089879 0.4740976,0.6212314 0.4740976,0.6212314 0.1798301,-0.1961784 0.3324133,-0.752017 -0.00545,-1.1661712 -0.2469931,-0.3027713 -0.2397735,-0.7302193 -0.2016277,-0.89370117 0.055049,-0.23593812 0.2617967,-0.43867654 0.5040693,-0.43867654 0.2422726,0 0.4386765,0.19640392 0.4386765,0.43867654 0,0.14293377 -0.1323996,0.26313297 -0.2123182,0.36906647 -0.3721383,0.4933094 0.1196784,0.6881166 0.1523748,1.2058094 0.07565,1.1977221 -0.8828024,1.1116945 -0.8828024,1.1116945 -0.027542,0.10097 -0.1502749,0.2251434 -0.1882993,0.2617967 5.41e-5,0 1.23e-4,1.74e-5 1.919e-4,3.47e-5 0.00113,-7.463e-4 0.00179,-0.00115 0.00179,-0.00115 l 0.090974,0.014734 c 0.4605262,0.052065 0.9205491,-0.1272626 1.1961255,-0.5915026 0.7084205,-1.1934184 -1.0026904,-1.5040341 0.577635,-2.40863407"
     style="fill:url(#oomox);fill-opacity:1;fill-rule:nonzero;stroke:none;stroke-width:0.0173548"
     id="path_body"
     class="ColorScheme-Text"/>
  <path
     d="m -3.6338345,1.0723805 c 0.088787,0 0.1607572,-0.071971 0.1607572,-0.16075734 0,-0.0229259 -0.00488,-0.0446882 -0.013519,-0.0644208 -0.010569,0.0103435 -0.025026,0.0167473 -0.040975,0.0167473 -0.032349,0 -0.058573,-0.0262404 -0.058573,-0.0585897 0,-0.0159491 0.00638,-0.0304056 0.01673,-0.0409746 -0.019732,-0.008643 -0.041495,-0.0135193 -0.064421,-0.0135193 -0.088787,0 -0.1607572,0.0719702 -0.1607572,0.1607572 0,0.088787 0.071971,0.16075734 0.1607572,0.16075734"
     style="fill:url(#oomox);fill-opacity:1;fill-rule:nonzero;stroke:none;stroke-width:0.0173548"
     id="path_eye"
     class="ColorScheme-Text"/>
  <path
     d="m -4.4213731,3.8845421 c -2.264e-4,1.376e-4 -4.871e-4,3.295e-4 -7.463e-4,5.032e-4 -0.00262,0.00173 -0.00713,0.00488 -0.013016,0.00953 -0.034484,0.027282 -0.1141249,0.1054303 -0.1103937,0.2432445 0.00474,0.1756303 0.146752,0.072491 0.137016,-0.019194 -0.00974,-0.091668 0.09316,-0.2183405 0.09316,-0.2183405 l -0.013242,-0.00216 -0.090991,-0.014734 c 0,0 -6.592e-4,3.985e-4 -0.00179,0.00115"
     style="fill:url(#oomox);fill-opacity:1;fill-rule:nonzero;stroke:none;stroke-width:0.0173548"
     id="path_leaf_petiole"
     class="ColorScheme-Text"/>
  <path
     d="M -4.5221089,3.5673108 C -4.5742426,3.3847039 -4.7075273,3.1560028 -5.0399579,3.0175463 -5.3424862,2.8915508 -5.5817564,2.7181072 -5.746054,2.5426331 -5.9188902,2.3580304 -6.0087532,2.171189 -6.0018286,2.0350061 c 0,0 -0.4513628,1.1397745 0.2332134,1.7598605 0.6000585,0.543534 1.2378463,0.1327813 1.2378463,0.1327813 0,0 -0.7900064,-0.1061591 -1.1395836,-0.8663328 0,0 0.4242894,0.5297718 0.9143881,0.722375 0.086357,0.033946 0.1747625,0.057496 0.2632545,0.065757 0,0 0.015827,-0.1237394 -0.029399,-0.2821365"
     style="fill:url(#oomox);fill-opacity:1;fill-rule:nonzero;stroke:none;stroke-width:0.0173548"
     id="path_leaf"
     class="ColorScheme-Text"/>
</svg>
