<?xml version="1.0" encoding="UTF-8" standalone="no"?>
<!-- Created with Inkscape (http://www.inkscape.org/) -->

<svg
   width="16"
   height="16"
   version="1.1"
   viewBox="0 0 16 16"
   id="svg37"
   xmlns:xlink="http://www.w3.org/1999/xlink"
   xmlns="http://www.w3.org/2000/svg"
   xmlns:svg="http://www.w3.org/2000/svg"
   xmlns:rdf="http://www.w3.org/1999/02/22-rdf-syntax-ns#"
   xmlns:cc="http://creativecommons.org/ns#"
   xmlns:dc="http://purl.org/dc/elements/1.1/">
   <defs>
      <style id="current-color-scheme" type="text/css">
         .ColorScheme-Text { color: #0abdc6; } .ColorScheme-Highlight { color:#5294e2; }
      </style>
      <linearGradient id="arrongin" x1="0%" x2="0%" y1="0%" y2="100%">
         <stop offset="0%" style="stop-color:#dd9b44; stop-opacity:1"/>
         <stop offset="100%" style="stop-color:#ad6c16; stop-opacity:1"/>
      </linearGradient>
      <linearGradient id="aurora" x1="0%" x2="0%" y1="0%" y2="100%">
         <stop offset="0%" style="stop-color:#09D4DF; stop-opacity:1"/>
         <stop offset="100%" style="stop-color:#9269F4; stop-opacity:1"/>
      </linearGradient>
      <linearGradient id="cyberneon" x1="0%" x2="0%" y1="0%" y2="100%">
         <stop offset="0" style="stop-color:#0abdc6; stop-opacity:1"/>
         <stop offset="1" style="stop-color:#ea00d9; stop-opacity:1"/>
      </linearGradient>
      <linearGradient id="fitdance" x1="0%" x2="0%" y1="0%" y2="100%">
         <stop offset="0%" style="stop-color:#1AD6AB; stop-opacity:1"/>
         <stop offset="100%" style="stop-color:#329DB6; stop-opacity:1"/>
      </linearGradient>
      <linearGradient id="oomox" x1="0%" x2="0%" y1="0%" y2="100%">
         <stop offset="0%" style="stop-color:#0abdc6; stop-opacity:1"/>
         <stop offset="100%" style="stop-color:#b800ff; stop-opacity:1"/>
      </linearGradient>
      <linearGradient id="rainblue" x1="0%" x2="0%" y1="0%" y2="100%">
         <stop offset="0%" style="stop-color:#00F260; stop-opacity:1"/>
         <stop offset="100%" style="stop-color:#0575E6; stop-opacity:1"/>
      </linearGradient>
      <linearGradient id="sunrise" x1="0%" x2="0%" y1="0%" y2="100%">
         <stop offset="0%" style="stop-color: #FF8501; stop-opacity:1"/>
         <stop offset="100%" style="stop-color: #FFCB01; stop-opacity:1"/>
      </linearGradient>
      <linearGradient id="telinkrin" x1="0%" x2="0%" y1="0%" y2="100%">
         <stop offset="0%" style="stop-color: #b2ced6; stop-opacity:1"/>
         <stop offset="100%" style="stop-color: #6da5b7; stop-opacity:1"/>
      </linearGradient>
      <linearGradient id="60spsycho" x1="0%" x2="0%" y1="0%" y2="100%">
         <stop offset="0%" style="stop-color: #df5940; stop-opacity:1"/>
         <stop offset="25%" style="stop-color: #d8d15f; stop-opacity:1"/>
         <stop offset="50%" style="stop-color: #e9882a; stop-opacity:1"/>
         <stop offset="100%" style="stop-color: #279362; stop-opacity:1"/>
      </linearGradient>
      <linearGradient id="90ssummer" x1="0%" x2="0%" y1="0%" y2="100%">
         <stop offset="0%" style="stop-color: #f618c7; stop-opacity:1"/>
         <stop offset="20%" style="stop-color: #94ffab; stop-opacity:1"/>
         <stop offset="50%" style="stop-color: #fbfd54; stop-opacity:1"/>
         <stop offset="100%" style="stop-color: #0f83ae; stop-opacity:1"/>
      </linearGradient>
   </defs>
  <path
     id="path18"
     class="ColorScheme-Text"
     style="display:inline;stroke-width:0.142857;fill:url(#oomox);fill-opacity:0.5"
     d="M 1.1428571,1.857143 C 0.51171714,1.857143 0,2.3688601 0,3.0000001 V 13 c 0,0.631143 0.51171714,1.142857 1.1428571,1.142857 H 14.857143 C 15.488286,14.142857 16,13.631143 16,13 V 3.0000001 C 16,2.3688601 15.488286,1.857143 14.857143,1.857143 Z m 0.2857143,0.8571429 h 3.4285715 c 0.3155771,3.15e-5 0.571397,0.2558514 0.5714285,0.5714285 V 12.428572 C 5.4285399,12.74415 5.17272,12.999969 4.8571429,13 H 1.4285714 C 1.1129943,12.999969 0.85717443,12.74415 0.85714286,12.428572 V 3.2857144 C 0.85717443,2.9701373 1.1129943,2.7143174 1.4285714,2.7142859 Z m 5.4285715,0 h 7.7142861 c 0.751202,0.010624 0.751202,1.1322332 0,1.1428571 H 6.8571429 C 6.4219319,3.8510963 6.1529586,3.3801621 6.3688616,3.0022323 6.4691963,2.826604 6.6548944,2.717095 6.8571429,2.7142859 Z m 0,1.7142857 h 7.7142861 c 0.315578,3.15e-5 0.571397,0.2558508 0.571428,0.5714285 v 5.1428569 c -3.1e-5,0.315578 -0.25585,0.571397 -0.571428,0.571429 H 6.8571429 C 6.5415651,10.714254 6.2857459,10.458435 6.2857143,10.142857 V 5.0000001 C 6.2857459,4.6844224 6.5415651,4.4286031 6.8571429,4.4285716 Z M 6.5714286,11.285714 h 8.2857144 a 0.28574286,0.28574286 0 0 1 0,0.571429 H 6.5714286 a 0.28574286,0.28574286 0 0 1 -0.281808,-0.285714 0.28574286,0.28574286 0 0 1 0.281808,-0.285715 z m 0,1.142858 h 8.2857144 a 0.28574286,0.28574286 0 0 1 0,0.571428 H 6.5714286 a 0.28574286,0.28574286 0 0 1 -0.281808,-0.285714 0.28574286,0.28574286 0 0 1 0.281808,-0.285714 z" />
  <path
     d="m 1.4285559,11.409524 h 1.2857268 l 0.3571487,-0.74888 0.2142805,1.269534 0.285722,-0.520654 h 1.2857267"
     stroke-miterlimit="10"
     stroke-width="0.2"
     id="path36"
     class="ColorScheme-Text"
     style="display:inline;stroke:url(#oomox)" />
  <path
     d="M 1.4285714,9.1148613 H 2.7142983 L 3.071447,8.3659813 3.2857274,9.635517 3.5714494,9.1148613 h 1.2857267"
     stroke-miterlimit="10"
     stroke-width="0.2"
     id="path36-3"
     class="ColorScheme-Text"
     style="display:inline;stroke:url(#oomox)" />
  <path
     d="m 1.429,6.8290038 h 1.2857269 l 0.3571486,-0.74888 0.2142804,1.2695357 0.285722,-0.5206557 h 1.2857267"
     stroke-miterlimit="10"
     stroke-width="0.2"
     id="path36-3-6"
     class="ColorScheme-Text"
     style="display:inline;stroke:url(#oomox)" />
  <path
     d="m 1.429,4.5430038 h 1.2857269 l 0.3571486,-0.74888 0.2142804,1.2695357 0.285722,-0.5206557 h 1.2857267"
     stroke-miterlimit="10"
     stroke-width="0.2"
     id="path36-3-6-7"
     class="ColorScheme-Text"
     style="display:inline;stroke:url(#oomox)" />
  <metadata
     id="metadata37">
    <rdf:RDF>
      <cc:Work
         rdf:about="">
        <dc:creator>
          <cc:Agent>
            <dc:title>dreifacherspass</dc:title>
          </cc:Agent>
        </dc:creator>
        <cc:license
           rdf:resource="http://creativecommons.org/licenses/by-sa/4.0/" />
      </cc:Work>
      <cc:License
         rdf:about="http://creativecommons.org/licenses/by-sa/4.0/">
        <cc:permits
           rdf:resource="http://creativecommons.org/ns#Reproduction" />
        <cc:permits
           rdf:resource="http://creativecommons.org/ns#Distribution" />
        <cc:requires
           rdf:resource="http://creativecommons.org/ns#Notice" />
        <cc:requires
           rdf:resource="http://creativecommons.org/ns#Attribution" />
        <cc:permits
           rdf:resource="http://creativecommons.org/ns#DerivativeWorks" />
        <cc:requires
           rdf:resource="http://creativecommons.org/ns#ShareAlike" />
      </cc:License>
    </rdf:RDF>
  </metadata>
  <path
     d="m 6.857,7.8865545 h 2.892825 l 0.803567,-1.8756008 0.482137,3.1801822 0.64286,-1.3046945 h 2.892825"
     stroke-miterlimit="10"
     stroke-width="0.323793"
     id="path28-0"
     class="ColorScheme-Text"
     style="stroke:url(#oomox)" />
</svg>
