<?xml version="1.0" encoding="UTF-8" standalone="no"?>
<svg
   width="48"
   height="48"
   viewBox="0 0 48 48"
   version="1.1"
   id="svg1984"
   xmlns:xlink="http://www.w3.org/1999/xlink"
   xmlns="http://www.w3.org/2000/svg"
   xmlns:svg="http://www.w3.org/2000/svg"
   xmlns:rdf="http://www.w3.org/1999/02/22-rdf-syntax-ns#"
   xmlns:cc="http://creativecommons.org/ns#"
   xmlns:dc="http://purl.org/dc/elements/1.1/">
  <defs
     id="defs184">
    <style
       id="current-color-scheme"
       type="text/css">
      .ColorScheme-Text { color: #0abdc6; } .ColorScheme-Highlight { color:#5294e2; }
     </style>
    <linearGradient
       id="arrongin"
       x1="0%"
       x2="0%"
       y1="0%"
       y2="100%">
      <stop
         offset="0%"
         style="stop-color:#dd9b44; stop-opacity:1"
         id="stop9192" />
      <stop
         offset="100%"
         style="stop-color:#ad6c16; stop-opacity:1"
         id="stop9194" />
    </linearGradient>
    <linearGradient
       id="aurora"
       x1="0%"
       x2="0%"
       y1="0%"
       y2="100%">
      <stop
         offset="0%"
         style="stop-color:#09D4DF; stop-opacity:1"
         id="stop9197" />
      <stop
         offset="100%"
         style="stop-color:#9269F4; stop-opacity:1"
         id="stop9199" />
    </linearGradient>
    <linearGradient
       id="cyberneon"
       x1="0%"
       x2="0%"
       y1="0%"
       y2="100%">
      <stop
         offset="0"
         style="stop-color:#0abdc6; stop-opacity:1"
         id="stop9202" />
      <stop
         offset="1"
         style="stop-color:#ea00d9; stop-opacity:1"
         id="stop9204" />
    </linearGradient>
    <linearGradient
       id="fitdance"
       x1="0%"
       x2="0%"
       y1="0%"
       y2="100%">
      <stop
         offset="0%"
         style="stop-color:#1AD6AB; stop-opacity:1"
         id="stop9207" />
      <stop
         offset="100%"
         style="stop-color:#329DB6; stop-opacity:1"
         id="stop9209" />
    </linearGradient>
    <linearGradient
       id="oomox"
       x1="0%"
       x2="0%"
       y1="0%"
       y2="100%">
      <stop
         offset="0%"
         style="stop-color:#0abdc6; stop-opacity:1"
         id="stop9212" />
      <stop
         offset="100%"
         style="stop-color:#b800ff; stop-opacity:1"
         id="stop9214" />
    </linearGradient>
    <linearGradient
       id="rainblue"
       x1="0%"
       x2="0%"
       y1="0%"
       y2="100%">
      <stop
         offset="0%"
         style="stop-color:#00F260; stop-opacity:1"
         id="stop9217" />
      <stop
         offset="100%"
         style="stop-color:#0575E6; stop-opacity:1"
         id="stop9219" />
    </linearGradient>
    <linearGradient
       id="sunrise"
       x1="0%"
       x2="0%"
       y1="0%"
       y2="100%">
      <stop
         offset="0%"
         style="stop-color: #FF8501; stop-opacity:1"
         id="stop9222" />
      <stop
         offset="100%"
         style="stop-color: #FFCB01; stop-opacity:1"
         id="stop9224" />
    </linearGradient>
    <linearGradient
       id="telinkrin"
       x1="0%"
       x2="0%"
       y1="0%"
       y2="100%">
      <stop
         offset="0%"
         style="stop-color: #b2ced6; stop-opacity:1"
         id="stop9227" />
      <stop
         offset="100%"
         style="stop-color: #6da5b7; stop-opacity:1"
         id="stop9229" />
    </linearGradient>
    <linearGradient
       id="60spsycho"
       x1="0%"
       x2="0%"
       y1="0%"
       y2="100%">
      <stop
         offset="0%"
         style="stop-color: #df5940; stop-opacity:1"
         id="stop9232" />
      <stop
         offset="25%"
         style="stop-color: #d8d15f; stop-opacity:1"
         id="stop9234" />
      <stop
         offset="50%"
         style="stop-color: #e9882a; stop-opacity:1"
         id="stop9236" />
      <stop
         offset="100%"
         style="stop-color: #279362; stop-opacity:1"
         id="stop9238" />
    </linearGradient>
    <linearGradient
       id="90ssummer"
       x1="0%"
       x2="0%"
       y1="0%"
       y2="100%">
      <stop
         offset="0%"
         style="stop-color: #f618c7; stop-opacity:1"
         id="stop9241" />
      <stop
         offset="20%"
         style="stop-color: #94ffab; stop-opacity:1"
         id="stop9243" />
      <stop
         offset="50%"
         style="stop-color: #fbfd54; stop-opacity:1"
         id="stop9245" />
      <stop
         offset="100%"
         style="stop-color: #0f83ae; stop-opacity:1"
         id="stop9247" />
    </linearGradient>
  </defs>
  <path
     d="m 26.930138,0.50000007 c 1.412938,0 2.558078,1.14510923 2.558078,2.55758363 0,1.4124741 -1.145144,2.5572382 -2.558078,2.5572382 -0.437805,0 -0.849701,-0.1101915 -1.210448,-0.3036353 l -5.117884,2.9537951 c -0.02244,0.014805 -0.04524,0.029375 -0.06874,0.042887 -1.346939,0.777568 -2.254343,2.0373623 -2.629952,3.4398183 -0.376306,1.403493 -0.22184,2.947576 0.5546,4.292001 l 0.04876,0.0839 c 0.01457,0.02491 0.02797,0.05006 0.04077,0.07567 l 10.597899,18.350071 c 0.05593,0.07837 0.102225,0.161668 0.139602,0.248371 0.46718,0.89018 0.550804,1.896425 0.306158,2.808712 -0.248442,0.928179 -0.835872,1.76896 -1.703542,2.305075 -0.529032,0.370994 -1.264353,0.320904 -1.73706,-0.151646 -0.529373,-0.529208 -0.529373,-1.38795 0,-1.917151 h 3.26e-4 l 0.0021,0.0017 c 0.08154,-0.08119 0.174159,-0.153373 0.27851,-0.213827 0.275397,-0.158895 0.463033,-0.42488 0.54285,-0.722989 0.08049,-0.300177 0.05217,-0.624889 -0.10434,-0.898476 l -0.0018,-0.0031 -10.659786,-18.45787 c -0.01486,-0.02244 -0.02938,-0.04524 -0.04285,-0.06874 l -0.04907,-0.08389 c -1.152391,-1.995958 -1.384252,-4.278232 -0.829997,-6.347029 0.554602,-2.0694873 1.896358,-3.9303325 3.890505,-5.0813143 0.02491,-0.014511 0.05006,-0.027636 0.07567,-0.04042 l 5.121023,-2.9555094 c 0.04561,-1.372404 1.172784,-2.47122523 2.556696,-2.47122523 M 17.252774,38.132128 c 0.01457,0.02526 0.02797,0.05006 0.04042,0.07567 l 1.440582,2.494369 0.0021,-0.0014 c 1.126825,1.950654 2.952,3.264681 4.983466,3.80839 2.032847,0.544754 4.270259,0.31987 6.21914,-0.805204 0.0235,-0.01351 0.04665,-0.02597 0.07015,-0.03795 1.911913,-1.126865 3.201491,-2.933132 3.740197,-4.943551 0.545273,-2.034598 0.320322,-4.273001 -0.805813,-6.222969 L 23.766664,16.610289 c -1.372511,-0.0456 -2.471693,-1.172052 -2.471693,-2.555857 0,-1.412128 1.145484,-2.557237 2.558424,-2.557237 1.412939,0 2.558079,1.145108 2.558079,2.557237 0,0.438005 -0.110215,0.84976 -0.303738,1.21005 l 9.176669,15.889904 c 1.501397,2.599382 1.803406,5.572521 1.081211,8.267241 -0.711474,2.654303 -2.418823,5.045732 -4.955823,6.552859 -0.06604,0.04735 -0.13684,0.08906 -0.211476,0.124702 -2.577767,1.453924 -5.513527,1.739595 -8.178379,1.025935 -2.668307,-0.714355 -5.070199,-2.431507 -6.574015,-4.980795 -0.04389,-0.06392 -0.08224,-0.131953 -0.115068,-0.203463 L 14.9542,39.55669 c -0.01451,-0.02244 -0.02937,-0.04524 -0.04285,-0.06874 -0.158952,-0.27496 -0.425368,-0.462877 -0.72392,-0.542672 -0.299243,-0.07978 -0.623365,-0.05111 -0.896347,0.106338 -0.646516,0.374096 -1.474445,0.153713 -1.849017,-0.492595 -0.374227,-0.646309 -0.153767,-1.473963 0.492749,-1.84841 0.923991,-0.533697 1.989655,-0.638366 2.952001,-0.381358 0.963728,0.258041 1.833468,0.88085 2.365955,1.802814"
     id="jacktrip"
     class="ColorScheme-Text"
     style="fill:url(#oomox);fill-opacity:1;stroke-width:0.0408341" />
  <metadata
     id="metadata2864">
    <rdf:RDF>
      <cc:Work
         rdf:about="">
        <dc:creator>
          <cc:Agent>
            <dc:title>dreifacherspass</dc:title>
          </cc:Agent>
        </dc:creator>
        <cc:license
           rdf:resource="http://creativecommons.org/licenses/by-sa/4.0/" />
      </cc:Work>
      <cc:License
         rdf:about="http://creativecommons.org/licenses/by-sa/4.0/">
        <cc:permits
           rdf:resource="http://creativecommons.org/ns#Reproduction" />
        <cc:permits
           rdf:resource="http://creativecommons.org/ns#Distribution" />
        <cc:requires
           rdf:resource="http://creativecommons.org/ns#Notice" />
        <cc:requires
           rdf:resource="http://creativecommons.org/ns#Attribution" />
        <cc:permits
           rdf:resource="http://creativecommons.org/ns#DerivativeWorks" />
        <cc:requires
           rdf:resource="http://creativecommons.org/ns#ShareAlike" />
      </cc:License>
    </rdf:RDF>
  </metadata>
</svg>
