<?xml version="1.0" encoding="UTF-8" standalone="no"?>
<svg
   width="16"
   height="16"
   viewBox="0 0 16 16"
   version="1.1"
   id="svg1984"
   xmlns="http://www.w3.org/2000/svg"
   xmlns:svg="http://www.w3.org/2000/svg"
   xmlns:rdf="http://www.w3.org/1999/02/22-rdf-syntax-ns#"
   xmlns:cc="http://creativecommons.org/ns#"
   xmlns:dc="http://purl.org/dc/elements/1.1/">
  <defs>
   <style id="current-color-scheme" type="text/css">
   .ColorScheme-Text { color: #0abdc6; } .ColorScheme-Highlight { color:#5294e2; }
  </style>
  <linearGradient id="arrongin" x1="0%" x2="0%" y1="0%" y2="100%">
   <stop offset="0%" style="stop-color:#dd9b44; stop-opacity:1"/>
   <stop offset="100%" style="stop-color:#ad6c16; stop-opacity:1"/>
  </linearGradient>
  <linearGradient id="aurora" x1="0%" x2="0%" y1="0%" y2="100%">
   <stop offset="0%" style="stop-color:#09D4DF; stop-opacity:1"/>
   <stop offset="100%" style="stop-color:#9269F4; stop-opacity:1"/>
  </linearGradient>
  <linearGradient id="cyberneon" x1="0%" x2="0%" y1="0%" y2="100%">
    <stop offset="0" style="stop-color:#0abdc6; stop-opacity:1"/>
    <stop offset="1" style="stop-color:#ea00d9; stop-opacity:1"/>
  </linearGradient>
  <linearGradient id="fitdance" x1="0%" x2="0%" y1="0%" y2="100%">
   <stop offset="0%" style="stop-color:#1AD6AB; stop-opacity:1"/>
   <stop offset="100%" style="stop-color:#329DB6; stop-opacity:1"/>
  </linearGradient>
  <linearGradient id="oomox" x1="0%" x2="0%" y1="0%" y2="100%">
   <stop offset="0%" style="stop-color:#0abdc6; stop-opacity:1"/>
   <stop offset="100%" style="stop-color:#b800ff; stop-opacity:1"/>
  </linearGradient>
  <linearGradient id="rainblue" x1="0%" x2="0%" y1="0%" y2="100%">
   <stop offset="0%" style="stop-color:#00F260; stop-opacity:1"/>
   <stop offset="100%" style="stop-color:#0575E6; stop-opacity:1"/>
  </linearGradient>
  <linearGradient id="sunrise" x1="0%" x2="0%" y1="0%" y2="100%">
   <stop offset="0%" style="stop-color: #FF8501; stop-opacity:1"/>
   <stop offset="100%" style="stop-color: #FFCB01; stop-opacity:1"/>
  </linearGradient>
  <linearGradient id="telinkrin" x1="0%" x2="0%" y1="0%" y2="100%">
   <stop offset="0%" style="stop-color: #b2ced6; stop-opacity:1"/>
   <stop offset="100%" style="stop-color: #6da5b7; stop-opacity:1"/>
  </linearGradient>
  <linearGradient id="60spsycho" x1="0%" x2="0%" y1="0%" y2="100%">
   <stop offset="0%" style="stop-color: #df5940; stop-opacity:1"/>
   <stop offset="25%" style="stop-color: #d8d15f; stop-opacity:1"/>
   <stop offset="50%" style="stop-color: #e9882a; stop-opacity:1"/>
   <stop offset="100%" style="stop-color: #279362; stop-opacity:1"/>
  </linearGradient>
  <linearGradient id="90ssummer" x1="0%" x2="0%" y1="0%" y2="100%">
   <stop offset="0%" style="stop-color: #f618c7; stop-opacity:1"/>
   <stop offset="20%" style="stop-color: #94ffab; stop-opacity:1"/>
   <stop offset="50%" style="stop-color: #fbfd54; stop-opacity:1"/>
   <stop offset="100%" style="stop-color: #0f83ae; stop-opacity:1"/>
  </linearGradient>
 </defs>
  <path
     d="m 8.9974933,1.4956706e-7 c 0.4810005,0 0.8708352,0.38982440043294 0.8708352,0.87066675043294 0,0.4808422 -0.3898363,0.8705491 -0.8708352,0.8705491 -0.14904,0 -0.28926,-0.037512 -0.4120672,-0.1033653 L 6.8431674,2.643398 c -0.00763,0.00504 -0.015413,0.01 -0.023413,0.0146 -0.45852,0.264704 -0.7674234,0.6935701 -0.8952903,1.1710019 -0.1281042,0.477785 -0.07552,1.0034301 0.1888,1.4611066 l 0.0166,0.028563 c 0.00496,0.00848 0.00952,0.01704 0.01388,0.02576 l 3.6077956,6.2468315 c 0.01904,0.02668 0.0348,0.05504 0.047525,0.08455 0.15904,0.30304 0.1875066,0.645592 0.104224,0.956157 -0.084576,0.315976 -0.284552,0.6022 -0.5799288,0.784707 -0.180096,0.126296 -0.4304182,0.109245 -0.59134,-0.05162 -0.1802107,-0.180155 -0.1802107,-0.472494 0,-0.652647 h 1.112e-4 l 7.149e-4,5.78e-4 c 0.027757,-0.02764 0.059288,-0.05221 0.094811,-0.07279 0.093752,-0.05409 0.1576293,-0.14464 0.1848,-0.246125 0.027403,-0.102187 0.01776,-0.212728 -0.03552,-0.305864 l -6.15e-4,-0.0011 -3.6288633,-6.2835304 c -0.00506,-0.00763 -0.010003,-0.015413 -0.014587,-0.023413 l -0.016704,-0.02856 C 4.9238633,5.0721839 4.8449319,4.2952396 5.0336145,3.5909684 5.2224151,2.886462 5.6791831,2.2529827 6.3580418,1.8611591 c 0.00848,-0.00494 0.01704,-0.00941 0.02576,-0.01376 L 8.127129,0.84126829 C 8.1426557,0.37406693 8.5263746,1.4956706e-7 8.9974933,1.4956706e-7 M 5.7030715,12.810937 c 0.00496,0.0086 0.00952,0.01704 0.01376,0.02576 l 0.4904108,0.849148 7.149e-4,-4.77e-4 c 0.3836001,0.664053 1.0049364,1.111381 1.6964993,1.296473 0.6920328,0.185448 1.4537051,0.108891 2.1171535,-0.274112 0.008,-0.0046 0.01589,-0.0089 0.02389,-0.01291 0.650853,-0.383623 1.089858,-0.998522 1.273247,-1.68292 0.185625,-0.69263 0.109046,-1.454639 -0.274319,-2.118458 L 7.9205664,5.484354 C 7.4533288,5.4688303 7.0791392,5.0853575 7.0791392,4.6142748 c 0,-0.4807243 0.3899517,-0.8705488 0.8709528,-0.8705488 0.4810005,0 0.8708352,0.3898243 0.8708352,0.8705488 0,0.1491093 -0.03752,0.2892803 -0.1034,0.411932 l 3.1239718,5.4093292 c 0.511115,0.884896 0.613926,1.897028 0.368072,2.81438 -0.242203,0.903592 -0.823429,1.717696 -1.687088,2.23076 -0.02248,0.01611 -0.04658,0.03032 -0.07199,0.04245 -0.877538,0.494955 -1.8769457,0.592204 -2.7841292,0.349256 -0.9083602,-0.243184 -1.7260256,-0.827747 -2.237963,-1.695589 -0.014941,-0.02176 -0.027997,-0.04492 -0.039172,-0.06926 L 4.9205782,13.295894 c -0.00494,-0.0076 -0.01,-0.01541 -0.014587,-0.02341 -0.054112,-0.0936 -0.1448062,-0.157576 -0.2464411,-0.184739 -0.1018699,-0.02716 -0.2122094,-0.01739 -0.3051394,0.0362 -0.2200907,0.127352 -0.5019388,0.05233 -0.6294526,-0.167693 -0.1273965,-0.220021 -0.052346,-0.501775 0.1677443,-0.629246 0.3145501,-0.181682 0.6773294,-0.217314 1.0049366,-0.129824 0.3280776,0.08784 0.6241593,0.299864 0.8054315,0.613724"
     id="jacktrip"
     class="ColorScheme-Text"
     style="fill:url(#oomox);fill-opacity:1;stroke-width:0.013901" />
  <metadata
     id="metadata2864">
    <rdf:RDF>
      <cc:Work
         rdf:about="">
        <dc:creator>
          <cc:Agent>
            <dc:title>dreifacherspass</dc:title>
          </cc:Agent>
        </dc:creator>
        <cc:license
           rdf:resource="http://creativecommons.org/licenses/by-sa/4.0/" />
      </cc:Work>
      <cc:License
         rdf:about="http://creativecommons.org/licenses/by-sa/4.0/">
        <cc:permits
           rdf:resource="http://creativecommons.org/ns#Reproduction" />
        <cc:permits
           rdf:resource="http://creativecommons.org/ns#Distribution" />
        <cc:requires
           rdf:resource="http://creativecommons.org/ns#Notice" />
        <cc:requires
           rdf:resource="http://creativecommons.org/ns#Attribution" />
        <cc:permits
           rdf:resource="http://creativecommons.org/ns#DerivativeWorks" />
        <cc:requires
           rdf:resource="http://creativecommons.org/ns#ShareAlike" />
      </cc:License>
    </rdf:RDF>
  </metadata>
</svg>
