<?xml version="1.0" encoding="UTF-8" standalone="no"?>
<svg
   height="16"
   width="16"
   version="1.1"
   id="_jukx32_"
   viewBox="0 0 10.24 10.24"
   xml:space="preserve"
   xmlns="http://www.w3.org/2000/svg"
   xmlns:svg="http://www.w3.org/2000/svg"
   xmlns:rdf="http://www.w3.org/1999/02/22-rdf-syntax-ns#"
   xmlns:cc="http://creativecommons.org/ns#"
   xmlns:dc="http://purl.org/dc/elements/1.1/">
  <defs
   id="defs24">
   <style
   id="current-color-scheme"
   type="text/css">
   .ColorScheme-Text { color: #0abdc6; } .ColorScheme-Highlight { color:#5294e2; }
  </style>
  <linearGradient
   id="arrongin"
   x1="0%"
   x2="0%"
   y1="0%"
   y2="100%">
   <stop
   offset="0%"
   style="stop-color:#dd9b44; stop-opacity:1"
   id="stop1" />
   <stop
   offset="100%"
   style="stop-color:#ad6c16; stop-opacity:1"
   id="stop2" />
  </linearGradient>
  <linearGradient
   id="aurora"
   x1="0%"
   x2="0%"
   y1="0%"
   y2="100%">
   <stop
   offset="0%"
   style="stop-color:#09D4DF; stop-opacity:1"
   id="stop3" />
   <stop
   offset="100%"
   style="stop-color:#9269F4; stop-opacity:1"
   id="stop4" />
  </linearGradient>
  <linearGradient
   id="cyberneon"
   x1="0%"
   x2="0%"
   y1="0%"
   y2="100%">
    <stop
   offset="0"
   style="stop-color:#0abdc6; stop-opacity:1"
   id="stop5" />
    <stop
   offset="1"
   style="stop-color:#ea00d9; stop-opacity:1"
   id="stop6" />
  </linearGradient>
  <linearGradient
   id="fitdance"
   x1="0%"
   x2="0%"
   y1="0%"
   y2="100%">
   <stop
   offset="0%"
   style="stop-color:#1AD6AB; stop-opacity:1"
   id="stop7" />
   <stop
   offset="100%"
   style="stop-color:#329DB6; stop-opacity:1"
   id="stop8" />
  </linearGradient>
  <linearGradient
   id="oomox"
   x1="0%"
   x2="0%"
   y1="0%"
   y2="100%">
   <stop
   offset="0%"
   style="stop-color:#0abdc6; stop-opacity:1"
   id="stop9" />
   <stop
   offset="100%"
   style="stop-color:#b800ff; stop-opacity:1"
   id="stop10" />
  </linearGradient>
  <linearGradient
   id="rainblue"
   x1="0%"
   x2="0%"
   y1="0%"
   y2="100%">
   <stop
   offset="0%"
   style="stop-color:#00F260; stop-opacity:1"
   id="stop11" />
   <stop
   offset="100%"
   style="stop-color:#0575E6; stop-opacity:1"
   id="stop12" />
  </linearGradient>
  <linearGradient
   id="sunrise"
   x1="0%"
   x2="0%"
   y1="0%"
   y2="100%">
   <stop
   offset="0%"
   style="stop-color: #FF8501; stop-opacity:1"
   id="stop13" />
   <stop
   offset="100%"
   style="stop-color: #FFCB01; stop-opacity:1"
   id="stop14" />
  </linearGradient>
  <linearGradient
   id="telinkrin"
   x1="0%"
   x2="0%"
   y1="0%"
   y2="100%">
   <stop
   offset="0%"
   style="stop-color: #b2ced6; stop-opacity:1"
   id="stop15" />
   <stop
   offset="100%"
   style="stop-color: #6da5b7; stop-opacity:1"
   id="stop16" />
  </linearGradient>
  <linearGradient
   id="60spsycho"
   x1="0%"
   x2="0%"
   y1="0%"
   y2="100%">
   <stop
   offset="0%"
   style="stop-color: #df5940; stop-opacity:1"
   id="stop17" />
   <stop
   offset="25%"
   style="stop-color: #d8d15f; stop-opacity:1"
   id="stop18" />
   <stop
   offset="50%"
   style="stop-color: #e9882a; stop-opacity:1"
   id="stop19" />
   <stop
   offset="100%"
   style="stop-color: #279362; stop-opacity:1"
   id="stop20" />
  </linearGradient>
  <linearGradient
   id="90ssummer"
   x1="0%"
   x2="0%"
   y1="0%"
   y2="100%">
   <stop
   offset="0%"
   style="stop-color: #f618c7; stop-opacity:1"
   id="stop21" />
   <stop
   offset="20%"
   style="stop-color: #94ffab; stop-opacity:1"
   id="stop22" />
   <stop
   offset="50%"
   style="stop-color: #fbfd54; stop-opacity:1"
   id="stop23" />
   <stop
   offset="100%"
   style="stop-color: #0f83ae; stop-opacity:1"
   id="stop24" />
  </linearGradient>
 </defs>
<path
   id="path2"
   style="fill:url(#oomox);stroke-width:0.0105713"
   class="ColorScheme-Text"
   d="M 8.3962999,3.7849384 C 8.4997057,3.6610182 8.5819806,3.5492402 8.6379458,3.448772 L 8.4149731,3.3261907 c -0.042094,0.076232 -0.1164872,0.1792184 -0.2131283,0.295132 -0.013468,0.016101 -0.027954,0.032938 -0.04344,0.050491 0.050137,0.068918 0.1207598,0.1229212 0.2036113,0.1523535 0.012831,-0.012567 0.023194,-0.026409 0.034285,-0.03923 z M 8.3488099,1.8990144 6.910132,3.0618273 C 6.8048792,3.1462413 6.7375433,3.2665095 6.7167992,3.3980511 l -0.066178,0.4194561 -0.0354,-0.087627 C 6.2228059,3.8910816 5.8994992,4.0719799 5.64335,4.2583216 5.3408929,4.4783505 5.133496,4.7028517 5.0168759,4.9167301 4.9591579,5.0232175 4.9252209,5.1282202 4.9180799,5.23095 c -0.00775,0.101664 0.016443,0.2037823 0.076294,0.2860535 0.056853,0.078152 0.1417615,0.1331608 0.2405849,0.1651191 0.097994,0.031019 0.212784,0.042304 0.3426916,0.032732 C 5.7941358,5.6988656 6.0307497,5.6148246 6.2810264,5.48945 6.3193304,5.470941 6.3576524,5.450064 6.3956123,5.428767 L 6.4463807,5.1069718 C 6.3516159,5.164854 6.2577152,5.216452 6.1667384,5.2622155 5.9352985,5.3786574 5.7214942,5.449149 5.5602582,5.4610653 5.4536234,5.4679812 5.3705137,5.4591617 5.3125298,5.4400327 5.2527244,5.4205552 5.2213749,5.394431 5.200117,5.3673306 5.1801554,5.3377712 5.1689659,5.3031266 5.1713687,5.2479373 5.1761519,5.1658133 5.2225465,5.043954 5.3253521,4.9063257 5.4280802,4.7686092 5.5831733,4.6167264 5.7930235,4.464066 6.0100972,4.3061507 6.2854727,4.1467831 6.6204003,4.0038959 L 6.4463777,5.1069714 C 6.5952876,5.0175338 6.7478698,4.9159892 6.8991541,4.8059341 7.3866445,4.4512979 7.8625621,4.0126369 8.1586142,3.6714558 8.0912389,3.57884 8.0581783,3.460408 8.077512,3.3378794 8.1166531,3.0954325 8.3435813,2.9303483 8.5863112,2.9677418 8.8297738,3.0061579 8.9956535,3.2341796 8.9564494,3.4765418 8.9180422,3.7199976 8.691106,3.8850876 8.4476502,3.8466793 8.4174507,3.8419013 8.3883109,3.8346054 8.3617859,3.8241088 8.2664609,3.937392 8.1517804,4.0572398 8.0255489,4.1820915 7.7441528,4.459157 7.4016179,4.7550326 7.0488274,5.0116782 6.8307446,5.1703275 6.6094137,5.3140845 6.3956113,5.4287683 6.3429609,5.7938678 5.8868033,8.8965326 5.8342884,9.2294104 5.7877694,9.5242336 5.9890886,9.8009714 6.2839829,9.8475696 L 8.734404,10.233331 c 0.2949237,0.04646 0.5715438,-0.154788 0.6181606,-0.4496927 0.058738,-0.371875 0.8345734,-5.5222028 0.8806624,-5.8300099 0.02097,-0.1332726 -0.007,-0.2676931 -0.08044,-0.3794125 L 9.1412958,2.0240367 C 9.0577176,1.8962124 8.9236825,1.810044 8.77271,1.7862176 8.6216392,1.7624758 8.4677159,1.8031403 8.3488099,1.8990144 Z" />
<path
   class="ColorScheme-Text"
   d="M 2.8706997,0.52949405 C 1.537197,0.62802735 0,0 0,0 L 0.43707373,0.75703379 3.8658395,6.6958304 C 3.4711863,6.7642028 3.0658666,6.9510763 2.7134003,7.2567378 1.8664173,7.9897856 1.6446305,9.1199204 2.2166081,9.7804893 2.789227,10.441201 3.9393999,10.38254 4.7857381,9.6488184 5.5373469,8.9978128 5.7954109,8.0347621 5.4429437,7.3639645 l 0.00548,-0.00316 L 2.464806,2.1930267 C 5.3935773,0.94774459 6.0622999,3.1436975 6.2007708,3.8207362 6.7579865,1.1440102 5.209684,0.35614511 2.8709034,0.52942509 Z"
   id="path1-6"
   style="fill:url(#oomox);stroke-width:0.0210862" />
<metadata
   id="metadata2"><rdf:RDF><cc:Work
       rdf:about=""><dc:creator><cc:Agent><dc:title>dreifacherspass</dc:title></cc:Agent></dc:creator><cc:license
         rdf:resource="http://creativecommons.org/licenses/by-sa/4.0/" /></cc:Work><cc:License
       rdf:about="http://creativecommons.org/licenses/by-sa/4.0/"><cc:permits
         rdf:resource="http://creativecommons.org/ns#Reproduction" /><cc:permits
         rdf:resource="http://creativecommons.org/ns#Distribution" /><cc:requires
         rdf:resource="http://creativecommons.org/ns#Notice" /><cc:requires
         rdf:resource="http://creativecommons.org/ns#Attribution" /><cc:permits
         rdf:resource="http://creativecommons.org/ns#DerivativeWorks" /><cc:requires
         rdf:resource="http://creativecommons.org/ns#ShareAlike" /></cc:License></rdf:RDF></metadata></svg>
