<?xml version="1.0" encoding="UTF-8" standalone="no"?>
<svg
   width="16"
   height="16"
   viewBox="0 0 16 16"
   version="2.0"
   id="svg40"
   xmlns:xlink="http://www.w3.org/1999/xlink"
   xmlns="http://www.w3.org/2000/svg"
   xmlns:svg="http://www.w3.org/2000/svg"
   xmlns:rdf="http://www.w3.org/1999/02/22-rdf-syntax-ns#"
   xmlns:cc="http://creativecommons.org/ns#"
   xmlns:dc="http://purl.org/dc/elements/1.1/">
   <defs>
   <style id="current-color-scheme" type="text/css">
   .ColorScheme-Text { color: #0abdc6; } .ColorScheme-Highlight { color:#5294e2; }
  </style>
  <linearGradient id="arrongin" x1="0%" x2="0%" y1="0%" y2="100%">
   <stop offset="0%" style="stop-color:#dd9b44; stop-opacity:1"/>
   <stop offset="100%" style="stop-color:#ad6c16; stop-opacity:1"/>
  </linearGradient>
  <linearGradient id="aurora" x1="0%" x2="0%" y1="0%" y2="100%">
   <stop offset="0%" style="stop-color:#09D4DF; stop-opacity:1"/>
   <stop offset="100%" style="stop-color:#9269F4; stop-opacity:1"/>
  </linearGradient>
  <linearGradient id="cyberneon" x1="0%" x2="0%" y1="0%" y2="100%">
    <stop offset="0" style="stop-color:#0abdc6; stop-opacity:1"/>
    <stop offset="1" style="stop-color:#ea00d9; stop-opacity:1"/>
  </linearGradient>
  <linearGradient id="fitdance" x1="0%" x2="0%" y1="0%" y2="100%">
   <stop offset="0%" style="stop-color:#1AD6AB; stop-opacity:1"/>
   <stop offset="100%" style="stop-color:#329DB6; stop-opacity:1"/>
  </linearGradient>
  <linearGradient id="oomox" x1="0%" x2="0%" y1="0%" y2="100%">
   <stop offset="0%" style="stop-color:#0abdc6; stop-opacity:1"/>
   <stop offset="100%" style="stop-color:#b800ff; stop-opacity:1"/>
  </linearGradient>
  <linearGradient id="rainblue" x1="0%" x2="0%" y1="0%" y2="100%">
   <stop offset="0%" style="stop-color:#00F260; stop-opacity:1"/>
   <stop offset="100%" style="stop-color:#0575E6; stop-opacity:1"/>
  </linearGradient>
  <linearGradient id="sunrise" x1="0%" x2="0%" y1="0%" y2="100%">
   <stop offset="0%" style="stop-color: #FF8501; stop-opacity:1"/>
   <stop offset="100%" style="stop-color: #FFCB01; stop-opacity:1"/>
  </linearGradient>
  <linearGradient id="telinkrin" x1="0%" x2="0%" y1="0%" y2="100%">
   <stop offset="0%" style="stop-color: #b2ced6; stop-opacity:1"/>
   <stop offset="100%" style="stop-color: #6da5b7; stop-opacity:1"/>
  </linearGradient>
  <linearGradient id="60spsycho" x1="0%" x2="0%" y1="0%" y2="100%">
   <stop offset="0%" style="stop-color: #df5940; stop-opacity:1"/>
   <stop offset="25%" style="stop-color: #d8d15f; stop-opacity:1"/>
   <stop offset="50%" style="stop-color: #e9882a; stop-opacity:1"/>
   <stop offset="100%" style="stop-color: #279362; stop-opacity:1"/>
  </linearGradient>
  <linearGradient id="90ssummer" x1="0%" x2="0%" y1="0%" y2="100%">
   <stop offset="0%" style="stop-color: #f618c7; stop-opacity:1"/>
   <stop offset="20%" style="stop-color: #94ffab; stop-opacity:1"/>
   <stop offset="50%" style="stop-color: #fbfd54; stop-opacity:1"/>
   <stop offset="100%" style="stop-color: #0f83ae; stop-opacity:1"/>
  </linearGradient>
 </defs>
  <path
     id="sphere_upper_right"
     class="ColorScheme-Text"
     d="m 13.720452,0.91015068 c 0.008,0.18808402 -0.03924,0.37434392 -0.136143,0.53525702 -0.09684,0.1608812 -0.238873,0.2891829 -0.408075,0.3686793 -0.169202,0.079497 -0.35799,0.1065714 -0.542458,0.077832 C 12.44934,1.8631163 12.27745,1.7799074 12.139931,1.6526298 12.002413,1.5253523 11.905411,1.3597986 11.861182,1.1769311 c -0.0442,-0.18289947 -0.03364,-0.37488794 0.0304,-0.5517388 0.06401,-0.17681886 0.178579,-0.33053125 0.329219,-0.4416791 0.150675,-0.11111585 0.33063,-0.17470663 0.517114,-0.18267548091 0.249819,-0.0105611291 0.493621,0.0790804309 0.677864,0.24959462091 0.184244,0.17048217 0.293856,0.40778748 0.304705,0.65971834 z"
     style="mix-blend-mode:normal;fill:url(#oomox);stroke-width:0.320034" />
  <path
     id="crescent_lower"
     class="ColorScheme-Text"
     d="m 8.2194177,12.098576 c -2.5122999,0 -4.7063899,-0.920579 -5.8452953,-2.2831559 0.4241732,1.2226579 1.2147215,2.2820989 2.2621932,3.0316829 1.0475037,0.749584 2.3001173,1.152251 3.5845103,1.152251 1.2843929,0 2.5370061,-0.402667 3.5845101,-1.152251 1.047471,-0.749584 1.83802,-1.809025 2.262193,-3.0316829 -1.141722,1.3625769 -3.335779,2.2831559 -5.8481113,2.2831559 z"
     style="mix-blend-mode:normal;fill:url(#oomox);stroke-width:0.320034" />
  <path
     id="crescent_upper"
     class="ColorScheme-Text"
     d="m 8.2190017,3.2352944 c 2.5123323,0 4.7064213,0.9205782 5.8453263,2.2831555 C 13.640155,4.2957915 12.849607,3.2363505 11.802136,2.4867668 10.754632,1.7371828 9.5020185,1.3345159 8.2176255,1.3345159 6.9332326,1.3345159 5.680619,1.7371828 4.6331153,2.4867668 3.5856436,3.2363505 2.7950952,4.2957915 2.370922,5.5184499 3.5126438,4.1586889 5.7067018,3.2352944 8.2190017,3.2352944 Z"
     style="mix-blend-mode:normal;fill:url(#oomox);stroke-width:0.320034" />
  <path
     id="sphere_lower_right"
     class="ColorScheme-Text"
     d="M 4.7705059,14.748234 C 4.780747,14.985347 4.7211246,15.22022 4.5989676,15.42309 4.4768426,15.625992 4.2977835,15.787769 4.0844167,15.88794 3.871082,15.98811 3.6330406,16.022194 3.4004718,15.98587 3.167903,15.949546 2.9512719,15.844447 2.7779414,15.683886 2.6046429,15.523293 2.4824859,15.31447 2.426928,15.083822 2.3713701,14.853173 2.3849395,14.611099 2.4658761,14.38826 2.5468128,14.165388 2.6915002,13.971735 2.8816325,13.831848 3.0717328,13.691961 3.298733,13.612113 3.533894,13.602416 c 0.3145296,-0.01312 0.6213143,0.100363 0.853115,0.315138 0.2318007,0.214806 0.3697034,0.513494 0.3834969,0.83068 z"
     style="mix-blend-mode:normal;fill:url(#oomox);stroke-width:0.320034" />
  <path
     id="sphere_upper_left"
     class="ColorScheme-Text"
     d="M 2.6604569,2.9271017 C 2.5224902,2.9331824 2.3858676,2.8976586 2.267871,2.8253629 2.1498744,2.7530352 2.0557844,2.6470079 1.9975702,2.5207544 1.939324,2.3944689 1.9195459,2.2535899 1.9407321,2.1159752 1.9618544,1.9783606 2.0231089,1.8501869 2.1165589,1.747648 2.2100088,1.645109 2.3315258,1.5728453 2.4657161,1.5400098 2.5999064,1.5071423 2.7407535,1.5150472 2.8704313,1.5630523 3.0000771,1.6109614 3.1127291,1.6966025 3.1941138,1.8091265 3.2754985,1.9216185 3.3219674,2.0559688 3.3276,2.1951197 3.3352809,2.3813475 3.2691938,2.5629989 3.1441245,2.7002295 3.0190551,2.8374282 2.8451166,2.9190369 2.6604569,2.9270697 Z"
     style="mix-blend-mode:normal;fill:url(#oomox);stroke-width:0.320034" />
  <metadata
     id="metadata271">
    <rdf:RDF>
      <cc:Work
         rdf:about="">
        <dc:creator>
          <cc:Agent>
            <dc:title>dreifachrspass</dc:title>
          </cc:Agent>
        </dc:creator>
        <cc:license
           rdf:resource="http://creativecommons.org/licenses/by-sa/4.0/" />
      </cc:Work>
      <cc:License
         rdf:about="http://creativecommons.org/licenses/by-sa/4.0/">
        <cc:permits
           rdf:resource="http://creativecommons.org/ns#Reproduction" />
        <cc:permits
           rdf:resource="http://creativecommons.org/ns#Distribution" />
        <cc:requires
           rdf:resource="http://creativecommons.org/ns#Notice" />
        <cc:requires
           rdf:resource="http://creativecommons.org/ns#Attribution" />
        <cc:permits
           rdf:resource="http://creativecommons.org/ns#DerivativeWorks" />
        <cc:requires
           rdf:resource="http://creativecommons.org/ns#ShareAlike" />
      </cc:License>
    </rdf:RDF>
  </metadata>
</svg>
