<?xml version="1.0" encoding="UTF-8" standalone="no"?>
<!-- Created with Inkscape (http://www.inkscape.org/) -->

<svg
   width="16"
   height="16"
   id="svg2"
   version="1.1"
   xmlns="http://www.w3.org/2000/svg"
   xmlns:svg="http://www.w3.org/2000/svg"
   xmlns:rdf="http://www.w3.org/1999/02/22-rdf-syntax-ns#"
   xmlns:cc="http://creativecommons.org/ns#"
   xmlns:dc="http://purl.org/dc/elements/1.1/">
  <defs>
   <style id="current-color-scheme" type="text/css">
   .ColorScheme-Text { color: #0abdc6; } .ColorScheme-Highlight { color:#5294e2; }
  </style>
  <linearGradient id="arrongin" x1="0%" x2="0%" y1="0%" y2="100%">
   <stop offset="0%" style="stop-color:#dd9b44; stop-opacity:1"/>
   <stop offset="100%" style="stop-color:#ad6c16; stop-opacity:1"/>
  </linearGradient>
  <linearGradient id="aurora" x1="0%" x2="0%" y1="0%" y2="100%">
   <stop offset="0%" style="stop-color:#09D4DF; stop-opacity:1"/>
   <stop offset="100%" style="stop-color:#9269F4; stop-opacity:1"/>
  </linearGradient>
  <linearGradient id="cyberneon" x1="0%" x2="0%" y1="0%" y2="100%">
    <stop offset="0" style="stop-color:#0abdc6; stop-opacity:1"/>
    <stop offset="1" style="stop-color:#ea00d9; stop-opacity:1"/>
  </linearGradient>
  <linearGradient id="fitdance" x1="0%" x2="0%" y1="0%" y2="100%">
   <stop offset="0%" style="stop-color:#1AD6AB; stop-opacity:1"/>
   <stop offset="100%" style="stop-color:#329DB6; stop-opacity:1"/>
  </linearGradient>
  <linearGradient id="oomox" x1="0%" x2="0%" y1="0%" y2="100%">
   <stop offset="0%" style="stop-color:#0abdc6; stop-opacity:1"/>
   <stop offset="100%" style="stop-color:#b800ff; stop-opacity:1"/>
  </linearGradient>
  <linearGradient id="rainblue" x1="0%" x2="0%" y1="0%" y2="100%">
   <stop offset="0%" style="stop-color:#00F260; stop-opacity:1"/>
   <stop offset="100%" style="stop-color:#0575E6; stop-opacity:1"/>
  </linearGradient>
  <linearGradient id="sunrise" x1="0%" x2="0%" y1="0%" y2="100%">
   <stop offset="0%" style="stop-color: #FF8501; stop-opacity:1"/>
   <stop offset="100%" style="stop-color: #FFCB01; stop-opacity:1"/>
  </linearGradient>
  <linearGradient id="telinkrin" x1="0%" x2="0%" y1="0%" y2="100%">
   <stop offset="0%" style="stop-color: #b2ced6; stop-opacity:1"/>
   <stop offset="100%" style="stop-color: #6da5b7; stop-opacity:1"/>
  </linearGradient>
  <linearGradient id="60spsycho" x1="0%" x2="0%" y1="0%" y2="100%">
   <stop offset="0%" style="stop-color: #df5940; stop-opacity:1"/>
   <stop offset="25%" style="stop-color: #d8d15f; stop-opacity:1"/>
   <stop offset="50%" style="stop-color: #e9882a; stop-opacity:1"/>
   <stop offset="100%" style="stop-color: #279362; stop-opacity:1"/>
  </linearGradient>
  <linearGradient id="90ssummer" x1="0%" x2="0%" y1="0%" y2="100%">
   <stop offset="0%" style="stop-color: #f618c7; stop-opacity:1"/>
   <stop offset="20%" style="stop-color: #94ffab; stop-opacity:1"/>
   <stop offset="50%" style="stop-color: #fbfd54; stop-opacity:1"/>
   <stop offset="100%" style="stop-color: #0f83ae; stop-opacity:1"/>
  </linearGradient>
 </defs>
  <metadata
     id="metadata7">
    <rdf:RDF>
      <cc:Work
         rdf:about="">
        <dc:format>image/svg+xml</dc:format>
        <dc:type
           rdf:resource="http://purl.org/dc/dcmitype/StillImage" />
        <dc:creator>
          <cc:Agent>
            <dc:title>dreifacherspass</dc:title>
          </cc:Agent>
        </dc:creator>
      </cc:Work>
    </rdf:RDF>
  </metadata>
  <rect
     y="0.98635203"
     x="0.00011431488"
     height="1.3150597"
     width="15.999886"
     id="rect12"
     class="ColorScheme-Text"
     style="display:inline;overflow:visible;visibility:visible;fill:url(#oomox);fill-opacity:1;fill-rule:nonzero;stroke:none;stroke-width:0.0338618px;marker:none;enable-background:accumulate" />
  <path
     id="rect797"
     class="ColorScheme-Text"
     d="M 1.1428214e-4,13.698588 H 15.999998 v 1.31506 H 1.1428214e-4 Z"
     style="display:inline;overflow:visible;visibility:visible;fill:url(#oomox);fill-opacity:1;fill-rule:nonzero;stroke:none;stroke-width:0.0338618px;marker:none;enable-background:accumulate" />
  <path
     id="rect10"
     class="ColorScheme-Text"
     style="display:inline;overflow:visible;visibility:visible;opacity:0.1;fill:url(#oomox);fill-opacity:1;fill-rule:nonzero;stroke:none;stroke-width:0.0338618px;marker:none;enable-background:accumulate"
     d="M 16 6.8417969 C 15.905332 6.8434969 15.811437 6.8453766 15.716797 6.8476562 C 15.686666 6.8483808 15.657049 6.8488236 15.626953 6.8496094 C 15.618183 7.0547878 15.516538 7.158205 15.320312 7.1582031 C 15.131151 7.158205 15.030589 7.0617507 15.015625 6.8710938 C 14.694266 6.88387 14.373682 6.8989619 14.056641 6.9179688 L 14.056641 10.050781 L 12.775391 10.050781 L 12.775391 9.6855469 L 13.615234 9.6855469 L 13.615234 6.9472656 C 12.065328 7.0553038 10.569691 7.2380024 9.1445312 7.4882812 L 9.1445312 9.6855469 L 9.9824219 9.6855469 L 9.9824219 10.050781 L 8.7011719 10.050781 L 8.7011719 7.5703125 C 5.3096857 8.205772 2.3333613 9.2215102 0 10.507812 L 0 13.699219 L 16 13.699219 L 16 6.8417969 z M 15.320312 8.6074219 C 15.52572 8.6074225 15.628904 8.720494 15.628906 8.9453125 C 15.628904 9.1717487 15.525716 9.2851563 15.320312 9.2851562 C 15.114901 9.2851562 15.013671 9.1717487 15.013672 8.9453125 C 15.013671 8.720494 15.114898 8.6074225 15.320312 8.6074219 z " />
  <path
     id="rect793"
     class="ColorScheme-Text"
     style="display:inline;overflow:visible;visibility:visible;opacity:0.3;fill:url(#oomox);fill-opacity:1;fill-rule:nonzero;stroke:none;stroke-width:0.0338618px;marker:none;enable-background:accumulate"
     d="M 0 2.2285156 L 0 3.3085938 L 0 3.3710938 L 0 10.507812 C 2.3337033 9.2213213 5.3092083 8.2038921 8.7011719 7.5683594 L 8.7011719 5.7167969 L 9.9824219 5.7167969 L 9.9824219 6.078125 L 9.1445312 6.078125 L 9.1445312 7.4863281 C 10.56931 7.2361301 12.065224 7.0547539 13.615234 6.9472656 L 13.615234 6.078125 L 12.775391 6.078125 L 12.775391 5.7167969 L 14.056641 5.7167969 L 14.056641 6.9179688 C 14.373688 6.8990581 14.694255 6.8839003 15.015625 6.8710938 C 15.01434 6.8547153 15.013672 6.838098 15.013672 6.8203125 C 15.013671 6.5954963 15.114898 6.4824246 15.320312 6.4824219 C 15.52572 6.4824246 15.628904 6.5954963 15.628906 6.8203125 C 15.628906 6.8303582 15.627363 6.8400125 15.626953 6.8496094 C 15.657043 6.8488228 15.686674 6.8483806 15.716797 6.8476562 C 15.811437 6.8453765 15.905332 6.8434969 16 6.8417969 L 16 3.3710938 L 16 3.3085938 L 16 2.2285156 L 0 2.2285156 z " />
  <path
     id="path_leftbracket"
     class="ColorScheme-Text"
     style="font-weight:normal;font-size:147.908px;font-family:'Droid Sans Mono';display:inline;fill:url(#oomox);fill-rule:evenodd;stroke-width:0.0335931;opacity:0.5"
     d="M 9.9827881,10.050244 H 8.701804 V 5.7172174 H 9.9827881 V 6.0787076 H 9.1433553 v 3.6076198 h 0.8394328 v 0.3639166" />
  <path
     id="path_rightbracket"
     class="ColorScheme-Text"
     style="font-weight:normal;font-size:147.908px;font-family:'Droid Sans Mono';display:inline;fill:url(#oomox);fill-rule:evenodd;stroke-width:0.0335931;opacity:0.5"
     d="m 12.776359,9.6863274 h 0.839433 V 6.0787076 H 12.776359 V 5.7172174 h 1.280984 V 10.050244 H 12.776359 V 9.6863274" />
  <path
     id="path_colon"
     class="ColorScheme-Text"
     style="font-weight:normal;font-size:147.908px;font-family:'Droid Sans Mono';display:inline;fill:url(#oomox);fill-rule:evenodd;stroke-width:0.0335931;opacity:0.5"
     d="m 15.321189,6.4826543 c 0.205408,2.7e-6 0.308113,0.1124125 0.308115,0.3372289 -2e-6,0.2248214 -0.102711,0.3372308 -0.308115,0.3372288 -0.205412,2e-6 -0.308117,-0.1124074 -0.308116,-0.3372288 -1e-6,-0.2248164 0.102701,-0.3372262 0.308116,-0.3372289 m 0,2.1252694 c 0.205408,6e-7 0.308113,0.11241 0.308115,0.3372287 -2e-6,0.2264364 -0.102711,0.3396547 -0.308115,0.3396547 -0.205412,0 -0.308117,-0.1132183 -0.308116,-0.3396547 -1e-6,-0.2248187 0.102701,-0.3372281 0.308116,-0.3372287" />
  <path
     id="path_I"
     class="ColorScheme-Text"
     style="font-weight:normal;font-size:204.032px;font-family:'Droid Sans Mono';fill:url(#oomox);fill-rule:evenodd;stroke-width:0.0335931"
     d="M 3.1108789,10.050244 H 0.51383822 V 9.6385995 L 1.5011154,9.5716655 V 5.635944 L 0.51383822,5.56901 V 5.1573654 H 3.1108789 V 5.56901 L 2.1269485,5.635944 v 3.9357215 l 0.9839304,0.066934 v 0.4116445" />
  <path
     id="path_P"
     class="ColorScheme-Text"
     style="font-weight:normal;font-size:204.032px;font-family:'Droid Sans Mono';display:inline;fill:url(#oomox);fill-rule:evenodd;stroke-width:0.0335931"
     d="M 5.0820864,8.1459702 V 10.050244 H 4.4595998 V 5.1573654 h 1.3520673 c 1.1468001,5.1e-6 1.7202013,0.4774675 1.7202047,1.4323884 -3.4e-6,0.4886217 -0.1550672,0.8701455 -0.4651916,1.1445724 -0.3078994,0.2744312 -0.7563569,0.411646 -1.3453741,0.411644 H 5.0820864 m 0,-0.5287787 H 5.6510256 C 6.0927879,7.6171939 6.4084931,7.5368733 6.5981423,7.3762291 6.7900166,7.21559 6.8859553,6.9645879 6.8859583,6.6232208 6.8859553,6.0007384 6.5088938,5.6894955 5.7547735,5.689491 H 5.0820864 v 1.9277005" />
  <path
     id="path_y"
     class="ColorScheme-Text"
     style="font-weight:normal;font-size:131.462px;font-family:'Droid Sans Mono';display:inline;fill:url(#oomox);fill-rule:evenodd;stroke-width:0.0335931"
     d="m 10.416908,6.6216392 h 0.405394 l 0.564965,1.4102563 c 0.117879,0.2947025 0.181851,0.5031497 0.191916,0.6253424 h 0.01294 c 0.03307,-0.1610068 0.09775,-0.3708918 0.194072,-0.6296554 l 0.515368,-1.4059433 h 0.407551 l -1.024268,2.6760361 c -0.09632,0.250137 -0.208449,0.4377395 -0.336391,0.5628091 -0.127945,0.1265048 -0.304766,0.1897576 -0.530463,0.1897586 -0.123633,-10e-7 -0.244388,-0.01222 -0.362269,-0.03666 v -0.31267 c 0.08913,0.01725 0.186884,0.025875 0.293265,0.025876 0.138007,-7e-7 0.245106,-0.029471 0.321297,-0.088411 0.07763,-0.05894 0.146631,-0.1602893 0.20701,-0.304046 L 11.402361,9.0108806 10.416908,6.6216392" />
</svg>
