<?xml version="1.0" encoding="UTF-8" standalone="no"?>
<svg
   version="1.1"
   x="0px"
   y="0px"
   viewBox="0 0 16 16"
   enable-background="new 0 0 1000 1000"
   xml:space="preserve"
   id="svg2363"
   width="16"
   height="16"
   xmlns:xlink="http://www.w3.org/1999/xlink"
   xmlns="http://www.w3.org/2000/svg"
   xmlns:svg="http://www.w3.org/2000/svg"
   xmlns:rdf="http://www.w3.org/1999/02/22-rdf-syntax-ns#"
   xmlns:cc="http://creativecommons.org/ns#"
   xmlns:dc="http://purl.org/dc/elements/1.1/">
  <defs>
   <style id="current-color-scheme" type="text/css">
   .ColorScheme-Text { color: #0abdc6; } .ColorScheme-Highlight { color:#5294e2; }
  </style>
  <linearGradient id="arrongin" x1="0%" x2="0%" y1="0%" y2="100%">
   <stop offset="0%" style="stop-color:#dd9b44; stop-opacity:1"/>
   <stop offset="100%" style="stop-color:#ad6c16; stop-opacity:1"/>
  </linearGradient>
  <linearGradient id="aurora" x1="0%" x2="0%" y1="0%" y2="100%">
   <stop offset="0%" style="stop-color:#09D4DF; stop-opacity:1"/>
   <stop offset="100%" style="stop-color:#9269F4; stop-opacity:1"/>
  </linearGradient>
  <linearGradient id="cyberneon" x1="0%" x2="0%" y1="0%" y2="100%">
    <stop offset="0" style="stop-color:#0abdc6; stop-opacity:1"/>
    <stop offset="1" style="stop-color:#ea00d9; stop-opacity:1"/>
  </linearGradient>
  <linearGradient id="fitdance" x1="0%" x2="0%" y1="0%" y2="100%">
   <stop offset="0%" style="stop-color:#1AD6AB; stop-opacity:1"/>
   <stop offset="100%" style="stop-color:#329DB6; stop-opacity:1"/>
  </linearGradient>
  <linearGradient id="oomox" x1="0%" x2="0%" y1="0%" y2="100%">
   <stop offset="0%" style="stop-color:#0abdc6; stop-opacity:1"/>
   <stop offset="100%" style="stop-color:#b800ff; stop-opacity:1"/>
  </linearGradient>
  <linearGradient id="rainblue" x1="0%" x2="0%" y1="0%" y2="100%">
   <stop offset="0%" style="stop-color:#00F260; stop-opacity:1"/>
   <stop offset="100%" style="stop-color:#0575E6; stop-opacity:1"/>
  </linearGradient>
  <linearGradient id="sunrise" x1="0%" x2="0%" y1="0%" y2="100%">
   <stop offset="0%" style="stop-color: #FF8501; stop-opacity:1"/>
   <stop offset="100%" style="stop-color: #FFCB01; stop-opacity:1"/>
  </linearGradient>
  <linearGradient id="telinkrin" x1="0%" x2="0%" y1="0%" y2="100%">
   <stop offset="0%" style="stop-color: #b2ced6; stop-opacity:1"/>
   <stop offset="100%" style="stop-color: #6da5b7; stop-opacity:1"/>
  </linearGradient>
  <linearGradient id="60spsycho" x1="0%" x2="0%" y1="0%" y2="100%">
   <stop offset="0%" style="stop-color: #df5940; stop-opacity:1"/>
   <stop offset="25%" style="stop-color: #d8d15f; stop-opacity:1"/>
   <stop offset="50%" style="stop-color: #e9882a; stop-opacity:1"/>
   <stop offset="100%" style="stop-color: #279362; stop-opacity:1"/>
  </linearGradient>
  <linearGradient id="90ssummer" x1="0%" x2="0%" y1="0%" y2="100%">
   <stop offset="0%" style="stop-color: #f618c7; stop-opacity:1"/>
   <stop offset="20%" style="stop-color: #94ffab; stop-opacity:1"/>
   <stop offset="50%" style="stop-color: #fbfd54; stop-opacity:1"/>
   <stop offset="100%" style="stop-color: #0f83ae; stop-opacity:1"/>
  </linearGradient>
 </defs>
 <path
   style="fill:url(#oomox);fill-opacity:1;stroke-width:0.0163265"
   d="M 8,9 7.9140625,9.2011719 8,9.0117188 8.1035156,9.2382812 Z"
   id="path22"
   class="ColorScheme-Text"/>
 <path
   style="fill:url(#oomox);fill-opacity:1;stroke-width:0.0163265"
   d="M 8,6 C 6.8946949,6 6,6.8946949 6,8 6,8.9576566 6.6743729,9.7573818 7.5742188,9.9511719 l 0.017578,-0.041016 C 7.244418,9.7531207 7,9.4068408 7,9 7,8.448164 7.4484844,7.9980469 8.0019531,7.9980469 c 0.5534688,0 1,0.4484844 1,1.0019531 0,0.4083958 -0.2442396,0.7559428 -0.59375,0.9121094 l 0.019531,0.041016 C 9.3266752,9.7570505 10,8.9570148 10,8 10,6.8946949 9.1053051,6 8,6 Z"
   id="path21"
   class="ColorScheme-Text"/>
 <path
   style="fill:url(#oomox);fill-opacity:1;stroke-width:0.0163265"
   d="M 8,3 C 5.2391865,3 3,5.2375538 3,8 c 0,2.171945 1.3851953,4.019026 3.3203125,4.708984 l 0.03125,-0.06641 C 4.9653153,12.015436 4,10.620638 4,9 4,6.7910225 5.7910225,4.8125 8,4.8125 c 2.208978,0 4,1.9785225 4,4.1875 0,1.620342 -0.965723,3.015215 -2.3515625,3.642578 l 0.03125,0.06641 C 11.614804,12.019026 13,10.171945 13,8 13,5.2391865 10.762446,3 8,3 Z"
   id="path20"
   class="ColorScheme-Text"/>
 <path
   style="fill:url(#oomox);fill-opacity:1;stroke-width:0.0163265"
   d="M 8,0 C 3.5820453,0 0,3.5820453 0,8 c 0,3.387264 2.105949,6.280252 5.078125,7.447266 l 0.033203,-0.07617 C 2.6892662,14.270208 1.0019531,11.833384 1.0019531,9 1.0019531,5.1355141 4.135514,1.8164063 8,1.8164062 c 3.864486,0 6.998047,3.3191079 6.998047,7.1835938 0,2.833384 -1.687313,5.270208 -4.109375,6.371094 l 0.0332,0.07617 C 13.894051,14.280252 16,11.387264 16,8 16,3.5820453 12.417955,0 8,0 Z"
   id="path2361"
   class="ColorScheme-Text"/>
 <metadata
   id="metadata3701"><rdf:RDF><cc:Work
       rdf:about=""><dc:creator><cc:Agent><dc:title>dreifacherspass</dc:title></cc:Agent></dc:creator><cc:license
         rdf:resource="http://creativecommons.org/licenses/by-sa/4.0/" /></cc:Work><cc:License
       rdf:about="http://creativecommons.org/licenses/by-sa/4.0/"><cc:permits
         rdf:resource="http://creativecommons.org/ns#Reproduction" /><cc:permits
         rdf:resource="http://creativecommons.org/ns#Distribution" /><cc:requires
         rdf:resource="http://creativecommons.org/ns#Notice" /><cc:requires
         rdf:resource="http://creativecommons.org/ns#Attribution" /><cc:permits
         rdf:resource="http://creativecommons.org/ns#DerivativeWorks" /><cc:requires
         rdf:resource="http://creativecommons.org/ns#ShareAlike" /></cc:License></rdf:RDF></metadata>
 <path
   id="path19-6"
   class="ColorScheme-Text"
   style="fill:url(#oomox);stroke-width:0.39"
   transform="matrix(2.2271237,0,0,2.8071556,-9.7372554,-11.700658)"
   d="m 9.3889178,9.867874 -2.8494385,0 1.4247193,-2.4676862 z" />
</svg>
