<?xml version="1.0" encoding="UTF-8" standalone="no"?>
<svg
   height="48"
   width="48"
   version="1.1"
   id="Layer_1"
   viewBox="0 0 30 30"
   xml:space="preserve"
   xmlns="http://www.w3.org/2000/svg"
   xmlns:svg="http://www.w3.org/2000/svg"
   xmlns:rdf="http://www.w3.org/1999/02/22-rdf-syntax-ns#"
   xmlns:cc="http://creativecommons.org/ns#"
   xmlns:dc="http://purl.org/dc/elements/1.1/">
  <defs
   id="defs3693">
    <style
       id="current-color-scheme"
       type="text/css">
      .ColorScheme-Text { color: #0abdc6; } .ColorScheme-Highlight { color:#5294e2; }
     </style>
    <linearGradient
       id="arrongin"
       x1="0"
       x2="0"
       y1="0"
       y2="1">
      <stop
         offset="0%"
         style="stop-color:#dd9b44; stop-opacity:1"
         id="stop9192" />
      <stop
         offset="100%"
         style="stop-color:#ad6c16; stop-opacity:1"
         id="stop9194" />
    </linearGradient>
    <linearGradient
       id="aurora"
       x1="0"
       x2="0"
       y1="0"
       y2="1">
      <stop
         offset="0%"
         style="stop-color:#09D4DF; stop-opacity:1"
         id="stop9197" />
      <stop
         offset="100%"
         style="stop-color:#9269F4; stop-opacity:1"
         id="stop9199" />
    </linearGradient>
    <linearGradient
       id="cyberneon"
       x1="0"
       x2="0"
       y1="0"
       y2="1">
      <stop
         offset="0"
         style="stop-color:#0abdc6; stop-opacity:1"
         id="stop9202" />
      <stop
         offset="1"
         style="stop-color:#ea00d9; stop-opacity:1"
         id="stop9204" />
    </linearGradient>
    <linearGradient
       id="fitdance"
       x1="0"
       x2="0"
       y1="0"
       y2="1">
      <stop
         offset="0%"
         style="stop-color:#1AD6AB; stop-opacity:1"
         id="stop9207" />
      <stop
         offset="100%"
         style="stop-color:#329DB6; stop-opacity:1"
         id="stop9209" />
    </linearGradient>
    <linearGradient
       id="oomox"
       x1="0"
       x2="0"
       y1="0"
       y2="1">
      <stop
         offset="0%"
         style="stop-color:#0abdc6; stop-opacity:1"
         id="stop9212" />
      <stop
         offset="100%"
         style="stop-color:#b800ff; stop-opacity:1"
         id="stop9214" />
    </linearGradient>
    <linearGradient
       id="rainblue"
       x1="0"
       x2="0"
       y1="0"
       y2="1">
      <stop
         offset="0%"
         style="stop-color:#00F260; stop-opacity:1"
         id="stop9217" />
      <stop
         offset="100%"
         style="stop-color:#0575E6; stop-opacity:1"
         id="stop9219" />
    </linearGradient>
    <linearGradient
       id="sunrise"
       x1="0"
       x2="0"
       y1="0"
       y2="1">
      <stop
         offset="0%"
         style="stop-color: #FF8501; stop-opacity:1"
         id="stop9222" />
      <stop
         offset="100%"
         style="stop-color: #FFCB01; stop-opacity:1"
         id="stop9224" />
    </linearGradient>
    <linearGradient
       id="telinkrin"
       x1="0"
       x2="0"
       y1="0"
       y2="1">
      <stop
         offset="0%"
         style="stop-color: #b2ced6; stop-opacity:1"
         id="stop9227" />
      <stop
         offset="100%"
         style="stop-color: #6da5b7; stop-opacity:1"
         id="stop9229" />
    </linearGradient>
    <linearGradient
       id="60spsycho"
       x1="0"
       x2="0"
       y1="0"
       y2="1">
      <stop
         offset="0%"
         style="stop-color: #df5940; stop-opacity:1"
         id="stop9232" />
      <stop
         offset="25%"
         style="stop-color: #d8d15f; stop-opacity:1"
         id="stop9234" />
      <stop
         offset="50%"
         style="stop-color: #e9882a; stop-opacity:1"
         id="stop9236" />
      <stop
         offset="100%"
         style="stop-color: #279362; stop-opacity:1"
         id="stop9238" />
    </linearGradient>
    <linearGradient
       id="90ssummer"
       x1="0"
       x2="0"
       y1="0"
       y2="1">
      <stop
         offset="0%"
         style="stop-color: #f618c7; stop-opacity:1"
         id="stop9241" />
      <stop
         offset="20%"
         style="stop-color: #94ffab; stop-opacity:1"
         id="stop9243" />
      <stop
         offset="50%"
         style="stop-color: #fbfd54; stop-opacity:1"
         id="stop9245" />
      <stop
         offset="100%"
         style="stop-color: #0f83ae; stop-opacity:1"
         id="stop9247" />
    </linearGradient>
  </defs>
<path
   d="m 26.241695,22.794401 c -0.699125,0 -1.348665,0.210606 -1.892455,0.569293 l -5.189035,-5.214836 c -0.04395,-0.04396 -0.09306,-0.07827 -0.14429,-0.107889 0.641785,-0.846182 1.02366,-1.899915 1.02366,-3.041087 0,-1.625376 -0.773855,-3.072348 -1.971415,-3.994922 l 2.137325,-3.7558767 c 0.351325,0.1163501 0.72568,0.1816942 1.11531,0.1816942 1.96225,0 3.558605,-1.5964648 3.558605,-3.5591387 0,-1.9624389 -1.596355,-3.5591388 -3.558605,-3.5591388 -1.96225,0 -3.55837,1.5969349 -3.55837,3.5593738 0,1.0791181 0.48457,2.0454118 1.24503,2.6986179 L 16.87248,10.321667 C 16.29297,10.088967 15.661525,9.9592187 15,9.9592187 c -1.139045,0 -2.190435,0.3805473 -3.035495,1.0203553 -0.01058,-0.01222 -0.01857,-0.02562 -0.03008,-0.0369 L 9.01079,8.0040664 C 9.168945,7.6923891 9.260125,7.3412232 9.260125,6.9684327 c 0,-1.2669237 -1.03024,-2.2976213 -2.29689,-2.2976213 -1.26665,0 -2.29689,1.0309327 -2.29689,2.2976213 0,1.2666886 1.03024,2.2973862 2.29689,2.2973862 0.393155,0 0.763515,-0.099661 1.08711,-0.2743042 l 2.908125,2.9228563 c 0.01151,0.01152 0.02491,0.01974 0.03713,0.03032 -0.6486,0.848298 -1.035175,1.907437 -1.035175,3.055425 0,1.009543 0.29939,1.949746 0.812395,2.738811 l -4.80622,4.16745 c -0.58938,-0.433903 -1.314355,-0.69387 -2.100665,-0.69387 -1.95943,0 -3.553435,1.59435 -3.553435,3.554203 0,1.959853 1.594005,3.554203 3.553435,3.554203 1.95943,0 3.553435,-1.59435 3.553435,-3.554203 0,-0.675771 -0.192935,-1.306177 -0.5217,-1.844913 l 4.774965,-4.140655 c 0.888535,0.782954 2.05296,1.259402 3.327365,1.259402 1.15996,0 2.228975,-0.39512 3.081555,-1.056318 0.02843,0.04819 0.06133,0.09449 0.10293,0.136094 l 5.188565,5.214602 c -0.364015,0.546258 -0.577395,1.201344 -0.577395,1.905791 0,1.900386 1.546065,3.446785 3.44604,3.446785 1.90021,0 3.445805,-1.546164 3.445805,-3.446785 0,-1.90015 -1.545595,-3.446314 -3.445805,-3.446314 z"
   id="path3684"
  class="ColorScheme-Text"
   style="fill:url(#oomox);fill-opacity:1;stroke-width:0.0587563" />
<metadata
   id="metadata5002"><rdf:RDF><cc:Work
       rdf:about=""><dc:creator><cc:Agent><dc:title>dreifacherspass</dc:title></cc:Agent></dc:creator><cc:license
         rdf:resource="http://creativecommons.org/licenses/by-sa/4.0/" /></cc:Work><cc:License
       rdf:about="http://creativecommons.org/licenses/by-sa/4.0/"><cc:permits
         rdf:resource="http://creativecommons.org/ns#Reproduction" /><cc:permits
         rdf:resource="http://creativecommons.org/ns#Distribution" /><cc:requires
         rdf:resource="http://creativecommons.org/ns#Notice" /><cc:requires
         rdf:resource="http://creativecommons.org/ns#Attribution" /><cc:permits
         rdf:resource="http://creativecommons.org/ns#DerivativeWorks" /><cc:requires
         rdf:resource="http://creativecommons.org/ns#ShareAlike" /></cc:License></rdf:RDF></metadata></svg>
