<?xml version="1.0" encoding="UTF-8" standalone="no"?>

<svg
   width="16"
   height="16"
   viewBox="0 0 0.48 0.48"
   fill="none"
   version="1.1"
   id="svg4"
   xmlns="http://www.w3.org/2000/svg"
   xmlns:svg="http://www.w3.org/2000/svg"
   xmlns:rdf="http://www.w3.org/1999/02/22-rdf-syntax-ns#"
   xmlns:cc="http://creativecommons.org/ns#"
   xmlns:dc="http://purl.org/dc/elements/1.1/">
  <defs>
   <style id="current-color-scheme" type="text/css">
   .ColorScheme-Text { color: #0abdc6; } .ColorScheme-Highlight { color:#5294e2; }
  </style>
  <linearGradient id="arrongin" x1="0%" x2="0%" y1="0%" y2="100%">
   <stop offset="0%" style="stop-color:#dd9b44; stop-opacity:1"/>
   <stop offset="100%" style="stop-color:#ad6c16; stop-opacity:1"/>
  </linearGradient>
  <linearGradient id="aurora" x1="0%" x2="0%" y1="0%" y2="100%">
   <stop offset="0%" style="stop-color:#09D4DF; stop-opacity:1"/>
   <stop offset="100%" style="stop-color:#9269F4; stop-opacity:1"/>
  </linearGradient>
  <linearGradient id="cyberneon" x1="0%" x2="0%" y1="0%" y2="100%">
    <stop offset="0" style="stop-color:#0abdc6; stop-opacity:1"/>
    <stop offset="1" style="stop-color:#ea00d9; stop-opacity:1"/>
  </linearGradient>
  <linearGradient id="fitdance" x1="0%" x2="0%" y1="0%" y2="100%">
   <stop offset="0%" style="stop-color:#1AD6AB; stop-opacity:1"/>
   <stop offset="100%" style="stop-color:#329DB6; stop-opacity:1"/>
  </linearGradient>
  <linearGradient id="oomox" x1="0%" x2="0%" y1="0%" y2="100%">
   <stop offset="0%" style="stop-color:#0abdc6; stop-opacity:1"/>
   <stop offset="100%" style="stop-color:#b800ff; stop-opacity:1"/>
  </linearGradient>
  <linearGradient id="rainblue" x1="0%" x2="0%" y1="0%" y2="100%">
   <stop offset="0%" style="stop-color:#00F260; stop-opacity:1"/>
   <stop offset="100%" style="stop-color:#0575E6; stop-opacity:1"/>
  </linearGradient>
  <linearGradient id="sunrise" x1="0%" x2="0%" y1="0%" y2="100%">
   <stop offset="0%" style="stop-color: #FF8501; stop-opacity:1"/>
   <stop offset="100%" style="stop-color: #FFCB01; stop-opacity:1"/>
  </linearGradient>
  <linearGradient id="telinkrin" x1="0%" x2="0%" y1="0%" y2="100%">
   <stop offset="0%" style="stop-color: #b2ced6; stop-opacity:1"/>
   <stop offset="100%" style="stop-color: #6da5b7; stop-opacity:1"/>
  </linearGradient>
  <linearGradient id="60spsycho" x1="0%" x2="0%" y1="0%" y2="100%">
   <stop offset="0%" style="stop-color: #df5940; stop-opacity:1"/>
   <stop offset="25%" style="stop-color: #d8d15f; stop-opacity:1"/>
   <stop offset="50%" style="stop-color: #e9882a; stop-opacity:1"/>
   <stop offset="100%" style="stop-color: #279362; stop-opacity:1"/>
  </linearGradient>
  <linearGradient id="90ssummer" x1="0%" x2="0%" y1="0%" y2="100%">
   <stop offset="0%" style="stop-color: #f618c7; stop-opacity:1"/>
   <stop offset="20%" style="stop-color: #94ffab; stop-opacity:1"/>
   <stop offset="50%" style="stop-color: #fbfd54; stop-opacity:1"/>
   <stop offset="100%" style="stop-color: #0f83ae; stop-opacity:1"/>
  </linearGradient>
 </defs>
  <path
     id="path3"
     style="opacity:0.3;fill:url(#oomox);stroke-width:0.024"
     class="ColorScheme-Text"
     d="M 0.18703125,0 C 0.14901769,0 0.12248425,4.1667924e-5 0.10248047,0.00275391 0.08304819,0.00538861 0.0727788,0.01018685 0.06544922,0.01757813 0.05811983,0.02496962 0.05335483,0.0353645 0.05074219,0.05496094 0.04805279,0.07513362 0.04798828,0.1018802 0.04798828,0.14021484 v 0.28458985 c 0,-0.003158 6.012e-4,-0.006346 0.0023437,-0.0110742 0.0030372,-0.008239 0.0043389,-0.009483 0.0069727,-0.0120703 0.0078096,-0.00767 0.01855758,-0.0134051 0.0308789,-0.0160547 0.0069674,-0.001498 0.0160049,-0.001582 0.04201172,-0.001582 h 0.0138281 v 0.0486328 c 0,0.00665 -4.988e-5,0.0100234 0.002227,0.0113672 0.002277,0.001344 0.005433,-1.9014e-4 0.0116602,-0.003164 l 0.0298242,-0.0142383 c 0.002107,-0.001006 0.003144,-0.001465 0.004277,-0.001465 0.001133,0 0.002169,4.5928e-4 0.004277,0.001465 l 0.0298242,0.0142383 c 0.006228,0.002974 0.009326,0.004508 0.0116016,0.003164 C 0.23999269,0.44267939 0.24,0.43930663 0.24,0.43265625 v -0.0486328 h 0.19201172 v -0.2438086 c 0,-0.0383347 -6.582e-5,-0.06508122 -0.002754,-0.0852539 -0.002614,-0.01959644 -0.007377,-0.02999131 -0.014707,-0.03738281 -0.006369,-0.0064231 -0.0149852,-0.01085969 -0.0298828,-0.01365235 -0.001562,-6.908e-5 -0.003086,-5.0781e-4 -0.004629,-7.6172e-4 -8.548e-4,-1.303e-4 -0.001627,-2.8911e-4 -0.00252,-4.1015e-4 C 0.35751618,4.1657924e-5 0.33098227,0 0.29296875,0 Z" />
  <path
     id="path4"
     style="display:inline;fill:url(#oomox);fill-opacity:1;stroke-width:0.024"
     class="ColorScheme-Text"
     d="M 0.18703125 0 C 0.16299005 0 0.14354501 -1.135143e-05 0.12744141 0.000703125 L 0.12744141 0.34154297 L 0.12832031 0.34154297 L 0.43201172 0.34154297 L 0.43201172 0.1434375 C 0.43201172 0.10421904 0.43194588 0.076887739 0.42925781 0.05625 C 0.42664382 0.03620194 0.42188077 0.025550164 0.41455078 0.017988281 C 0.40796479 0.011193588 0.39893482 0.0065225634 0.38308594 0.0036914062 L 0.3796875 0.0031640625 C 0.37894761 0.0030505426 0.37828753 0.0029190499 0.37751953 0.0028125 C 0.35751585 3.7633875e-05 0.33098215 -5.5511096e-19 0.29296875 0 L 0.18703125 0 z M 0.087714844 0.0057421875 C 0.077330814 0.0085993546 0.070648064 0.012624557 0.065449219 0.017988281 C 0.058119896 0.025549924 0.053354795 0.0362017 0.050742188 0.05625 C 0.04805275 0.076887739 0.047988281 0.10421906 0.047988281 0.1434375 L 0.047988281 0.36 C 0.057316372 0.35327501 0.067826208 0.348132 0.079160156 0.345 C 0.081895454 0.344244 0.084735547 0.34364859 0.087714844 0.34318359 L 0.087714844 0.0057421875 z M 0.16541016 0.035507812 L 0.2034375 0.035507812 L 0.2034375 0.16916016 L 0.33855469 0.035507812 L 0.38337891 0.035507812 L 0.26396484 0.15134766 L 0.39925781 0.30222656 L 0.35208984 0.30222656 L 0.24005859 0.17349609 L 0.2034375 0.19998047 L 0.2034375 0.30222656 L 0.16541016 0.30222656 L 0.16541016 0.035507812 z M 0.11367187 0.38402344 C 0.099816519 0.38413209 0.093409159 0.38448263 0.088183594 0.38560547 C 0.075862296 0.38825547 0.06511425 0.39398946 0.057304687 0.40166016 C 0.05467089 0.40424715 0.053369228 0.40549118 0.050332031 0.41373047 C 0.047294834 0.42197246 0.047788101 0.42549168 0.04875 0.43248047 C 0.04891992 0.43371447 0.049080304 0.43493728 0.049277344 0.43611328 C 0.051900041 0.45176607 0.056685246 0.46003351 0.064042969 0.4659375 C 0.071400661 0.47184149 0.08174288 0.47566954 0.10125 0.47777344 C 0.12133074 0.47994084 0.14793367 0.48 0.18609375 0.48 L 0.29244141 0.48 C 0.33060127 0.48 0.35720458 0.47994172 0.37728516 0.47777344 C 0.39679234 0.47566844 0.40713379 0.47184139 0.41449219 0.4659375 C 0.42184818 0.46003351 0.42663462 0.45176607 0.42925781 0.43611328 C 0.43146081 0.42296609 0.43192772 0.40633362 0.43201172 0.38402344 L 0.24 0.38402344 L 0.24 0.43265625 C 0.24 0.43930624 0.23999252 0.44267964 0.23771484 0.44402344 C 0.23543985 0.44536744 0.23234088 0.44383323 0.22611328 0.44085937 L 0.19628906 0.42662109 C 0.19418206 0.42561309 0.19314472 0.42515625 0.19201172 0.42515625 C 0.19087872 0.42515625 0.18984137 0.42561537 0.18773437 0.42662109 L 0.15791016 0.44085937 C 0.15168416 0.44383337 0.1485262 0.44536744 0.14625 0.44402344 C 0.143974 0.44267944 0.14402344 0.43930644 0.14402344 0.43265625 L 0.14402344 0.38402344 L 0.13019531 0.38402344 C 0.12369332 0.38402344 0.1182911 0.38398654 0.11367187 0.38402344 z " />
  <metadata
     id="metadata4">
    <rdf:RDF>
      <cc:Work
         rdf:about="">
        <dc:creator>
          <cc:Agent>
            <dc:title>dreifacherspass</dc:title>
          </cc:Agent>
        </dc:creator>
        <cc:license
           rdf:resource="http://creativecommons.org/licenses/by-sa/4.0/" />
      </cc:Work>
      <cc:License
         rdf:about="http://creativecommons.org/licenses/by-sa/4.0/">
        <cc:permits
           rdf:resource="http://creativecommons.org/ns#Reproduction" />
        <cc:permits
           rdf:resource="http://creativecommons.org/ns#Distribution" />
        <cc:requires
           rdf:resource="http://creativecommons.org/ns#Notice" />
        <cc:requires
           rdf:resource="http://creativecommons.org/ns#Attribution" />
        <cc:permits
           rdf:resource="http://creativecommons.org/ns#DerivativeWorks" />
        <cc:requires
           rdf:resource="http://creativecommons.org/ns#ShareAlike" />
      </cc:License>
    </rdf:RDF>
  </metadata>
</svg>
