<?xml version="1.0" encoding="UTF-8" standalone="no"?>
<!-- Created with Inkscape (http://www.inkscape.org/) -->

<svg
   width="16"
   height="16"
   viewBox="0 0 4.2333333 4.2333333"
   version="1.1"
   id="svg3814"
   xmlns:xlink="http://www.w3.org/1999/xlink"
   xmlns="http://www.w3.org/2000/svg"
   xmlns:svg="http://www.w3.org/2000/svg"
   xmlns:rdf="http://www.w3.org/1999/02/22-rdf-syntax-ns#"
   xmlns:cc="http://creativecommons.org/ns#"
   xmlns:dc="http://purl.org/dc/elements/1.1/">
  <defs>
   <style id="current-color-scheme" type="text/css">
   .ColorScheme-Text { color: #0abdc6; } .ColorScheme-Highlight { color:#5294e2; }
  </style>
  <linearGradient id="arrongin" x1="0%" x2="0%" y1="0%" y2="100%">
   <stop offset="0%" style="stop-color:#dd9b44; stop-opacity:1"/>
   <stop offset="100%" style="stop-color:#ad6c16; stop-opacity:1"/>
  </linearGradient>
  <linearGradient id="aurora" x1="0%" x2="0%" y1="0%" y2="100%">
   <stop offset="0%" style="stop-color:#09D4DF; stop-opacity:1"/>
   <stop offset="100%" style="stop-color:#9269F4; stop-opacity:1"/>
  </linearGradient>
  <linearGradient id="cyberneon" x1="0%" x2="0%" y1="0%" y2="100%">
    <stop offset="0" style="stop-color:#0abdc6; stop-opacity:1"/>
    <stop offset="1" style="stop-color:#ea00d9; stop-opacity:1"/>
  </linearGradient>
  <linearGradient id="fitdance" x1="0%" x2="0%" y1="0%" y2="100%">
   <stop offset="0%" style="stop-color:#1AD6AB; stop-opacity:1"/>
   <stop offset="100%" style="stop-color:#329DB6; stop-opacity:1"/>
  </linearGradient>
  <linearGradient id="oomox" x1="0%" x2="0%" y1="0%" y2="100%">
   <stop offset="0%" style="stop-color:#0abdc6; stop-opacity:1"/>
   <stop offset="100%" style="stop-color:#b800ff; stop-opacity:1"/>
  </linearGradient>
  <linearGradient id="rainblue" x1="0%" x2="0%" y1="0%" y2="100%">
   <stop offset="0%" style="stop-color:#00F260; stop-opacity:1"/>
   <stop offset="100%" style="stop-color:#0575E6; stop-opacity:1"/>
  </linearGradient>
  <linearGradient id="sunrise" x1="0%" x2="0%" y1="0%" y2="100%">
   <stop offset="0%" style="stop-color: #FF8501; stop-opacity:1"/>
   <stop offset="100%" style="stop-color: #FFCB01; stop-opacity:1"/>
  </linearGradient>
  <linearGradient id="telinkrin" x1="0%" x2="0%" y1="0%" y2="100%">
   <stop offset="0%" style="stop-color: #b2ced6; stop-opacity:1"/>
   <stop offset="100%" style="stop-color: #6da5b7; stop-opacity:1"/>
  </linearGradient>
  <linearGradient id="60spsycho" x1="0%" x2="0%" y1="0%" y2="100%">
   <stop offset="0%" style="stop-color: #df5940; stop-opacity:1"/>
   <stop offset="25%" style="stop-color: #d8d15f; stop-opacity:1"/>
   <stop offset="50%" style="stop-color: #e9882a; stop-opacity:1"/>
   <stop offset="100%" style="stop-color: #279362; stop-opacity:1"/>
  </linearGradient>
  <linearGradient id="90ssummer" x1="0%" x2="0%" y1="0%" y2="100%">
   <stop offset="0%" style="stop-color: #f618c7; stop-opacity:1"/>
   <stop offset="20%" style="stop-color: #94ffab; stop-opacity:1"/>
   <stop offset="50%" style="stop-color: #fbfd54; stop-opacity:1"/>
   <stop offset="100%" style="stop-color: #0f83ae; stop-opacity:1"/>
  </linearGradient>
 </defs>
  <path
     d="m 0.862843,0.69807443 c -0.0186293,-0.001144 -0.0365715,0.004571 -0.0513715,0.0194853 L 0.49048282,1.0385432 c -0.0296,0.0296 -0.0296,0.077286 0,0.1068971 l 0.3316173,0.5208974 c -0.0265147,0.053543 -0.0495429,0.1087944 -0.0688059,0.1653659 L 0.15089405,1.9654751 c -0.0418857,0 -0.07559432,0.033714 -0.07559432,0.075594 v 0.4535717 c 0,0.041886 0.03474287,0.066508 0.07559432,0.075594 l 0.60269749,0.1340629 c 0.0186853,0.056 0.0409715,0.1107654 0.0667371,0.1638907 l -0.3322059,0.5220745 c -0.022456,0.035315 -0.0296,0.077285 0,0.1068987 l 0.3206916,0.3209888 c 0.0296,0.0296 0.07728,0.0296 0.10689146,0 L 1.4377861,3.4856478 c 0.054,0.026915 0.1097486,0.050171 0.1668459,0.069691 l 0.1337659,0.6023947 c 0,0.041885 0.033714,0.0756 0.075594,0.0756 h 0.4535716 c 0.041886,0 0.066508,-0.034744 0.075594,-0.0756 L 2.4772212,3.5550414 c 0.056857,-0.01896 0.1123944,-0.041656 0.1662515,-0.06792 l 0.5197201,0.3310288 c 0.0296,0.0296 0.07728,0.0296 0.106896,0 L 3.5910731,3.4971614 c 0.0296,-0.0296 0.022507,-0.07156 0,-0.1068987 L 3.4493302,3.1676128 3.3436158,3.2098414 3.0049126,2.7019382 C 2.8342211,3.0814814 2.456941,3.3257614 2.0407808,3.3261899 1.4562777,3.3261899 0.98244308,2.8523555 0.98244308,2.2678524 0.98291287,1.859515 1.2182661,1.4878749 1.5872091,1.3128748 V 0.98745747 C 1.5363521,1.0048868 1.4865406,1.025286 1.4380833,1.0485831 L 0.91836876,0.71756019 c -0.017656,-0.011256 -0.0369144,-0.0186293 -0.0555429,-0.0194853 z"
     id="path3627"
     class="ColorScheme-Text"
     style="fill:url(#oomox);fill-opacity:1;stroke-width:0.15119" />
  <path
     d="M 2.4943467,-2e-7 1.7383921,0.06998841 V 3.0238128 L 2.4943467,2.8726235 V 1.6630978 L 3.4014902,3.0238128 4.1574392,2.7214296 3.1747014,1.4493034 4.1580336,0.15119415 3.366347,-2e-7 2.4943467,1.2851205 Z"
     id="path3629"
     class="ColorScheme-Text"
     style="fill:url(#oomox);fill-opacity:1;stroke-width:0.15119" />
  <metadata
     id="metadata3935">
    <rdf:RDF>
      <cc:Work
         rdf:about="">
        <dc:creator>
          <cc:Agent>
            <dc:title>dreifacherspass</dc:title>
          </cc:Agent>
        </dc:creator>
        <cc:license
           rdf:resource="http://creativecommons.org/licenses/by-sa/4.0/" />
      </cc:Work>
      <cc:License
         rdf:about="http://creativecommons.org/licenses/by-sa/4.0/">
        <cc:permits
           rdf:resource="http://creativecommons.org/ns#Reproduction" />
        <cc:permits
           rdf:resource="http://creativecommons.org/ns#Distribution" />
        <cc:requires
           rdf:resource="http://creativecommons.org/ns#Notice" />
        <cc:requires
           rdf:resource="http://creativecommons.org/ns#Attribution" />
        <cc:permits
           rdf:resource="http://creativecommons.org/ns#DerivativeWorks" />
        <cc:requires
           rdf:resource="http://creativecommons.org/ns#ShareAlike" />
      </cc:License>
    </rdf:RDF>
  </metadata>
</svg>
