<?xml version="1.0" encoding="UTF-8" standalone="no"?>
<!-- Created with Inkscape (http://www.inkscape.org/) -->

<svg
   width="16"
   version="1.1"
   height="16"
   id="svg2"
   xmlns:xlink="http://www.w3.org/1999/xlink"
   xmlns="http://www.w3.org/2000/svg"
   xmlns:svg="http://www.w3.org/2000/svg"
   xmlns:rdf="http://www.w3.org/1999/02/22-rdf-syntax-ns#"
   xmlns:cc="http://creativecommons.org/ns#"
   xmlns:dc="http://purl.org/dc/elements/1.1/">
  <defs>
   <style id="current-color-scheme" type="text/css">
   .ColorScheme-Text { color: #0abdc6; } .ColorScheme-Highlight { color:#5294e2; }
  </style>
  <linearGradient id="arrongin" x1="0%" x2="0%" y1="0%" y2="100%">
   <stop offset="0%" style="stop-color:#dd9b44; stop-opacity:1"/>
   <stop offset="100%" style="stop-color:#ad6c16; stop-opacity:1"/>
  </linearGradient>
  <linearGradient id="aurora" x1="0%" x2="0%" y1="0%" y2="100%">
   <stop offset="0%" style="stop-color:#09D4DF; stop-opacity:1"/>
   <stop offset="100%" style="stop-color:#9269F4; stop-opacity:1"/>
  </linearGradient>
  <linearGradient id="cyberneon" x1="0%" x2="0%" y1="0%" y2="100%">
    <stop offset="0" style="stop-color:#0abdc6; stop-opacity:1"/>
    <stop offset="1" style="stop-color:#ea00d9; stop-opacity:1"/>
  </linearGradient>
  <linearGradient id="fitdance" x1="0%" x2="0%" y1="0%" y2="100%">
   <stop offset="0%" style="stop-color:#1AD6AB; stop-opacity:1"/>
   <stop offset="100%" style="stop-color:#329DB6; stop-opacity:1"/>
  </linearGradient>
  <linearGradient id="oomox" x1="0%" x2="0%" y1="0%" y2="100%">
   <stop offset="0%" style="stop-color:#0abdc6; stop-opacity:1"/>
   <stop offset="100%" style="stop-color:#b800ff; stop-opacity:1"/>
  </linearGradient>
  <linearGradient id="rainblue" x1="0%" x2="0%" y1="0%" y2="100%">
   <stop offset="0%" style="stop-color:#00F260; stop-opacity:1"/>
   <stop offset="100%" style="stop-color:#0575E6; stop-opacity:1"/>
  </linearGradient>
  <linearGradient id="sunrise" x1="0%" x2="0%" y1="0%" y2="100%">
   <stop offset="0%" style="stop-color: #FF8501; stop-opacity:1"/>
   <stop offset="100%" style="stop-color: #FFCB01; stop-opacity:1"/>
  </linearGradient>
  <linearGradient id="telinkrin" x1="0%" x2="0%" y1="0%" y2="100%">
   <stop offset="0%" style="stop-color: #b2ced6; stop-opacity:1"/>
   <stop offset="100%" style="stop-color: #6da5b7; stop-opacity:1"/>
  </linearGradient>
  <linearGradient id="60spsycho" x1="0%" x2="0%" y1="0%" y2="100%">
   <stop offset="0%" style="stop-color: #df5940; stop-opacity:1"/>
   <stop offset="25%" style="stop-color: #d8d15f; stop-opacity:1"/>
   <stop offset="50%" style="stop-color: #e9882a; stop-opacity:1"/>
   <stop offset="100%" style="stop-color: #279362; stop-opacity:1"/>
  </linearGradient>
  <linearGradient id="90ssummer" x1="0%" x2="0%" y1="0%" y2="100%">
   <stop offset="0%" style="stop-color: #f618c7; stop-opacity:1"/>
   <stop offset="20%" style="stop-color: #94ffab; stop-opacity:1"/>
   <stop offset="50%" style="stop-color: #fbfd54; stop-opacity:1"/>
   <stop offset="100%" style="stop-color: #0f83ae; stop-opacity:1"/>
  </linearGradient>
 </defs>
  <path
     id="path4"
     class="ColorScheme-Text"
     style="fill:url(#oomox);stroke-width:3;stroke-linecap:round;stroke-linejoin:round"
     d="M 5.2128906 6.375 C 4.8852169 6.3824911 4.5870908 6.476327 4.3417969 6.6640625 C 3.4183372 7.3708321 3.4042483 9.195207 4.5507812 10.685547 C 5.6973127 12.175886 7.5706813 12.767317 8.4941406 12.060547 C 9.4176007 11.353777 9.2344224 9.5743246 8.0878906 8.0839844 C 7.2459061 6.9895163 6.1188128 6.3542955 5.2128906 6.375 z M 6.8164062 8.8007812 L 6.015625 11.201172 L 4.4101562 9.5996094 L 6.8164062 8.8007812 z " />
  <path
     d="M 8.0214844,0 A 8.0239603,8.0032865 0 0 0 7.1992187,0.04101562 L 7.0078125,1.28125 A 6.8203662,6.8027935 0 0 0 5.5292969,1.6757812 L 4.7441406,0.69921875 A 8.0239603,8.0032865 0 0 0 3.3203125,1.5214844 L 3.7753906,2.6855469 A 6.8203662,6.8027935 0 0 0 2.6875,3.7636719 L 1.5273437,3.3125 A 8.0239603,8.0032865 0 0 0 0.70507812,4.734375 L 1.6777344,5.5117187 a 6.8203662,6.8027935 0 0 0 -0.2460938,0.7285157 6.8203662,6.8027935 0 0 0 -0.1464844,0.75 L 0.04296875,7.1796875 a 8.0239603,8.0032865 0 0 0 -0.0019531,1.640625 L 1.2851562,9.0097656 a 6.8203662,6.8027935 0 0 0 0.3945313,1.4765624 l -0.97851563,0.78125 A 8.0239603,8.0032865 0 0 0 1.5253906,12.6875 l 1.1660157,-0.453125 a 6.8203662,6.8027935 0 0 0 1.0820312,1.083984 l -0.4511719,1.158204 a 8.0239603,8.0032865 0 0 0 1.4238281,0.820312 l 0.7792969,-0.96875 a 6.8203662,6.8027935 0 0 0 0.7304688,0.242188 6.8203662,6.8027935 0 0 0 0.7519531,0.148437 l 0.1914062,1.238281 a 8.0239603,8.0032865 0 0 0 1.6425782,0.002 L 9.0332031,14.71875 a 6.8203662,6.8027935 0 0 0 1.4785159,-0.394531 l 0.785156,0.976562 a 8.0239603,8.0032865 0 0 0 1.423828,-0.820312 l -0.455078,-1.166016 a 6.8203662,6.8027935 0 0 0 1.087891,-1.078125 l 1.160156,0.451172 a 8.0239603,8.0032865 0 0 0 0.822266,-1.421875 l -0.972657,-0.777344 a 6.8203662,6.8027935 0 0 0 0.246094,-0.7285154 6.8203662,6.8027935 0 0 0 0.146484,-0.75 L 15.998047,8.8203125 A 8.0239603,8.0032865 0 0 0 16,7.1796875 L 14.755859,6.9902344 A 6.8203662,6.8027935 0 0 0 14.361328,5.515625 L 15.339844,4.7324219 A 8.0239603,8.0032865 0 0 0 14.517578,3.3125 L 13.349609,3.765625 A 6.8203662,6.8027935 0 0 0 12.267578,2.6816406 L 12.71875,1.5234375 A 8.0239603,8.0032865 0 0 0 11.294922,0.703125 L 10.515625,1.6738281 A 6.8203662,6.8027935 0 0 0 9.7851563,1.4296875 6.8203662,6.8027935 0 0 0 9.0332031,1.28125 L 8.8417969,0.04296875 A 8.0239603,8.0032865 0 0 0 8.0214844,0 Z M 7.7265625,2.40625 A 5.6167722,5.6023005 0 0 1 9.4746094,2.5878906 5.6167722,5.6023005 0 0 1 13.445313,9.4511719 5.6167722,5.6023005 0 0 1 6.5664062,13.412109 5.6167722,5.6023005 0 0 1 2.5957031,6.5507812 5.6167722,5.6023005 0 0 1 7.7265625,2.40625 Z"
     style="fill:url(#oomox);stroke-width:3;stroke-linecap:round;stroke-linejoin:round"
     id="path2"
     class="ColorScheme-Text"/>
  <metadata
     id="metadata588">
    <rdf:RDF>
      <cc:Work
         rdf:about="">
        <cc:license
           rdf:resource="http://creativecommons.org/licenses/by-sa/4.0/" />
        <dc:creator>
          <cc:Agent>
            <dc:title>dreifacherspass</dc:title>
          </cc:Agent>
        </dc:creator>
      </cc:Work>
      <cc:License
         rdf:about="http://creativecommons.org/licenses/by-sa/4.0/">
        <cc:permits
           rdf:resource="http://creativecommons.org/ns#Reproduction" />
        <cc:permits
           rdf:resource="http://creativecommons.org/ns#Distribution" />
        <cc:requires
           rdf:resource="http://creativecommons.org/ns#Notice" />
        <cc:requires
           rdf:resource="http://creativecommons.org/ns#Attribution" />
        <cc:permits
           rdf:resource="http://creativecommons.org/ns#DerivativeWorks" />
        <cc:requires
           rdf:resource="http://creativecommons.org/ns#ShareAlike" />
      </cc:License>
    </rdf:RDF>
  </metadata>
</svg>
