<?xml version="1.0" encoding="UTF-8" standalone="no"?>
<svg
   width="16"
   height="16"
   version="1.1"
   id="svg12"
   xmlns="http://www.w3.org/2000/svg"
   xmlns:svg="http://www.w3.org/2000/svg"
   xmlns:rdf="http://www.w3.org/1999/02/22-rdf-syntax-ns#"
   xmlns:cc="http://creativecommons.org/ns#"
   xmlns:dc="http://purl.org/dc/elements/1.1/">
   <defs>
   <style id="current-color-scheme" type="text/css">
   .ColorScheme-Text { color: #0abdc6; } .ColorScheme-Highlight { color:#5294e2; }
  </style>
  <linearGradient id="arrongin" x1="0%" x2="0%" y1="0%" y2="100%">
   <stop offset="0%" style="stop-color:#dd9b44; stop-opacity:1"/>
   <stop offset="100%" style="stop-color:#ad6c16; stop-opacity:1"/>
  </linearGradient>
  <linearGradient id="aurora" x1="0%" x2="0%" y1="0%" y2="100%">
   <stop offset="0%" style="stop-color:#09D4DF; stop-opacity:1"/>
   <stop offset="100%" style="stop-color:#9269F4; stop-opacity:1"/>
  </linearGradient>
  <linearGradient id="cyberneon" x1="0%" x2="0%" y1="0%" y2="100%">
    <stop offset="0" style="stop-color:#0abdc6; stop-opacity:1"/>
    <stop offset="1" style="stop-color:#ea00d9; stop-opacity:1"/>
  </linearGradient>
  <linearGradient id="fitdance" x1="0%" x2="0%" y1="0%" y2="100%">
   <stop offset="0%" style="stop-color:#1AD6AB; stop-opacity:1"/>
   <stop offset="100%" style="stop-color:#329DB6; stop-opacity:1"/>
  </linearGradient>
  <linearGradient id="oomox" x1="0%" x2="0%" y1="0%" y2="100%">
   <stop offset="0%" style="stop-color:#0abdc6; stop-opacity:1"/>
   <stop offset="100%" style="stop-color:#b800ff; stop-opacity:1"/>
  </linearGradient>
  <linearGradient id="rainblue" x1="0%" x2="0%" y1="0%" y2="100%">
   <stop offset="0%" style="stop-color:#00F260; stop-opacity:1"/>
   <stop offset="100%" style="stop-color:#0575E6; stop-opacity:1"/>
  </linearGradient>
  <linearGradient id="sunrise" x1="0%" x2="0%" y1="0%" y2="100%">
   <stop offset="0%" style="stop-color: #FF8501; stop-opacity:1"/>
   <stop offset="100%" style="stop-color: #FFCB01; stop-opacity:1"/>
  </linearGradient>
  <linearGradient id="telinkrin" x1="0%" x2="0%" y1="0%" y2="100%">
   <stop offset="0%" style="stop-color: #b2ced6; stop-opacity:1"/>
   <stop offset="100%" style="stop-color: #6da5b7; stop-opacity:1"/>
  </linearGradient>
  <linearGradient id="60spsycho" x1="0%" x2="0%" y1="0%" y2="100%">
   <stop offset="0%" style="stop-color: #df5940; stop-opacity:1"/>
   <stop offset="25%" style="stop-color: #d8d15f; stop-opacity:1"/>
   <stop offset="50%" style="stop-color: #e9882a; stop-opacity:1"/>
   <stop offset="100%" style="stop-color: #279362; stop-opacity:1"/>
  </linearGradient>
  <linearGradient id="90ssummer" x1="0%" x2="0%" y1="0%" y2="100%">
   <stop offset="0%" style="stop-color: #f618c7; stop-opacity:1"/>
   <stop offset="20%" style="stop-color: #94ffab; stop-opacity:1"/>
   <stop offset="50%" style="stop-color: #fbfd54; stop-opacity:1"/>
   <stop offset="100%" style="stop-color: #0f83ae; stop-opacity:1"/>
  </linearGradient>
 </defs>
  <path
     id="path324"
     class="ColorScheme-Text"
     style="display:inline;fill:url(#oomox);stroke-width:0.799967"
     d="M 8.0000002,2.4005 A 7.9996657,7.9996657 0 0 0 3.345e-4,10.400166 7.9996657,7.9996657 0 0 0 0.67716791,13.5995 H 15.322833 A 7.9996657,7.9996657 0 0 0 15.999665,10.400166 7.9996657,7.9996657 0 0 0 8.0000002,2.4005 Z m 0,1.5996673 c 1.107455,0 2.2145878,0.2870791 3.2059838,0.8610013 1.982794,1.1478441 3.202015,2.8696291 3.194015,5.1606884 -8.51e-4,0.220904 -0.180673,0.399106 -0.401579,0.398255 -0.220906,-8.51e-4 -0.399804,-0.180675 -0.398919,-0.401579 0.007,-2.0058927 -1.057106,-3.458937 -2.793102,-4.4639095 -1.7359952,-1.0049732 -3.8768021,-1.0049732 -5.6127976,0 C 3.4576051,6.559596 2.3935006,8.012641 2.4005001,10.018533 2.4013648,10.239438 2.2224857,10.419261 2.0015807,10.420112 1.7806758,10.420976 1.6008663,10.242761 1.6000018,10.021857 1.5920044,7.7307977 2.8112238,6.0090127 4.7940171,4.8611686 5.7854132,4.2872464 6.8925452,4.0001673 8.0000002,4.0001673 Z m 3.5902768,3.9998328 c 0.09218,-0.00194 0.183556,0.028244 0.256636,0.085767 0.174175,0.1366023 0.204255,0.3886935 0.06716,0.5624765 L 9.8483274,11.273135 c 0.3438246,0.415456 0.5518386,0.947942 0.5518386,1.526531 H 9.5996674 C 9.5996674,11.911312 8.8883549,11.2 8.0000002,11.2 7.1116455,11.2 6.4003329,11.911312 6.4003329,12.799666 H 5.5998346 c 0,-1.320687 1.079478,-2.3995 2.4001656,-2.3995 0.4547599,0 0.8806682,0.127992 1.243964,0.349719 L 11.285767,8.1529193 c 0.06525,-0.083124 0.161072,-0.1366421 0.265947,-0.1495947 0.01319,-0.0016 0.0254,-0.00306 0.03856,-0.00334 z" />
  <metadata
     id="metadata1929">
    <rdf:RDF>
      <cc:Work
         rdf:about="">
        <dc:creator>
          <cc:Agent>
            <dc:title>dreifacherspass</dc:title>
          </cc:Agent>
        </dc:creator>
        <cc:license
           rdf:resource="http://creativecommons.org/licenses/by-sa/4.0/" />
      </cc:Work>
      <cc:License
         rdf:about="http://creativecommons.org/licenses/by-sa/4.0/">
        <cc:permits
           rdf:resource="http://creativecommons.org/ns#Reproduction" />
        <cc:permits
           rdf:resource="http://creativecommons.org/ns#Distribution" />
        <cc:requires
           rdf:resource="http://creativecommons.org/ns#Notice" />
        <cc:requires
           rdf:resource="http://creativecommons.org/ns#Attribution" />
        <cc:permits
           rdf:resource="http://creativecommons.org/ns#DerivativeWorks" />
        <cc:requires
           rdf:resource="http://creativecommons.org/ns#ShareAlike" />
      </cc:License>
    </rdf:RDF>
  </metadata>
</svg>
