<?xml version="1.0" encoding="UTF-8" standalone="no"?>
<svg
   width="16"
   height="16"
   version="1.1"
   id="svg2"
   xmlns:xlink="http://www.w3.org/1999/xlink"
   xmlns="http://www.w3.org/2000/svg"
   xmlns:svg="http://www.w3.org/2000/svg"
   xmlns:rdf="http://www.w3.org/1999/02/22-rdf-syntax-ns#"
   xmlns:cc="http://creativecommons.org/ns#"
   xmlns:dc="http://purl.org/dc/elements/1.1/">
  <metadata
     id="metadata8">
    <rdf:RDF>
      <cc:Work
         rdf:about="">
        <dc:format>image/svg+xml</dc:format>
        <dc:type
           rdf:resource="http://purl.org/dc/dcmitype/StillImage" />
        <dc:creator>
          <cc:Agent>
            <dc:title>dreifacherspass</dc:title>
          </cc:Agent>
        </dc:creator>
        <cc:license
           rdf:resource="http://creativecommons.org/licenses/by-sa/4.0/" />
      </cc:Work>
      <cc:License
         rdf:about="http://creativecommons.org/licenses/by-sa/4.0/">
        <cc:permits
           rdf:resource="http://creativecommons.org/ns#Reproduction" />
        <cc:permits
           rdf:resource="http://creativecommons.org/ns#Distribution" />
        <cc:requires
           rdf:resource="http://creativecommons.org/ns#Notice" />
        <cc:requires
           rdf:resource="http://creativecommons.org/ns#Attribution" />
        <cc:permits
           rdf:resource="http://creativecommons.org/ns#DerivativeWorks" />
        <cc:requires
           rdf:resource="http://creativecommons.org/ns#ShareAlike" />
      </cc:License>
    </rdf:RDF>
  </metadata>
  <defs>
   <style id="current-color-scheme" type="text/css">
   .ColorScheme-Text { color: #0abdc6; } .ColorScheme-Highlight { color:#5294e2; }
  </style>
  <linearGradient id="arrongin" x1="0%" x2="0%" y1="0%" y2="100%">
   <stop offset="0%" style="stop-color:#dd9b44; stop-opacity:1"/>
   <stop offset="100%" style="stop-color:#ad6c16; stop-opacity:1"/>
  </linearGradient>
  <linearGradient id="aurora" x1="0%" x2="0%" y1="0%" y2="100%">
   <stop offset="0%" style="stop-color:#09D4DF; stop-opacity:1"/>
   <stop offset="100%" style="stop-color:#9269F4; stop-opacity:1"/>
  </linearGradient>
  <linearGradient id="cyberneon" x1="0%" x2="0%" y1="0%" y2="100%">
    <stop offset="0" style="stop-color:#0abdc6; stop-opacity:1"/>
    <stop offset="1" style="stop-color:#ea00d9; stop-opacity:1"/>
  </linearGradient>
  <linearGradient id="fitdance" x1="0%" x2="0%" y1="0%" y2="100%">
   <stop offset="0%" style="stop-color:#1AD6AB; stop-opacity:1"/>
   <stop offset="100%" style="stop-color:#329DB6; stop-opacity:1"/>
  </linearGradient>
  <linearGradient id="oomox" x1="0%" x2="0%" y1="0%" y2="100%">
   <stop offset="0%" style="stop-color:#0abdc6; stop-opacity:1"/>
   <stop offset="100%" style="stop-color:#b800ff; stop-opacity:1"/>
  </linearGradient>
  <linearGradient id="rainblue" x1="0%" x2="0%" y1="0%" y2="100%">
   <stop offset="0%" style="stop-color:#00F260; stop-opacity:1"/>
   <stop offset="100%" style="stop-color:#0575E6; stop-opacity:1"/>
  </linearGradient>
  <linearGradient id="sunrise" x1="0%" x2="0%" y1="0%" y2="100%">
   <stop offset="0%" style="stop-color: #FF8501; stop-opacity:1"/>
   <stop offset="100%" style="stop-color: #FFCB01; stop-opacity:1"/>
  </linearGradient>
  <linearGradient id="telinkrin" x1="0%" x2="0%" y1="0%" y2="100%">
   <stop offset="0%" style="stop-color: #b2ced6; stop-opacity:1"/>
   <stop offset="100%" style="stop-color: #6da5b7; stop-opacity:1"/>
  </linearGradient>
  <linearGradient id="60spsycho" x1="0%" x2="0%" y1="0%" y2="100%">
   <stop offset="0%" style="stop-color: #df5940; stop-opacity:1"/>
   <stop offset="25%" style="stop-color: #d8d15f; stop-opacity:1"/>
   <stop offset="50%" style="stop-color: #e9882a; stop-opacity:1"/>
   <stop offset="100%" style="stop-color: #279362; stop-opacity:1"/>
  </linearGradient>
  <linearGradient id="90ssummer" x1="0%" x2="0%" y1="0%" y2="100%">
   <stop offset="0%" style="stop-color: #f618c7; stop-opacity:1"/>
   <stop offset="20%" style="stop-color: #94ffab; stop-opacity:1"/>
   <stop offset="50%" style="stop-color: #fbfd54; stop-opacity:1"/>
   <stop offset="100%" style="stop-color: #0f83ae; stop-opacity:1"/>
  </linearGradient>
 </defs>
  <path
     id="path568"
     class="ColorScheme-Text"
     d="M 7.9999998,0 C 5.4136906,0 3.3170732,2.0966178 3.3170732,4.682927 3.3192519,5.8204187 3.5293496,5.850401 4.2817336,6.7035199 L 4.4878047,4.682927 C 4.6846081,2.7532047 6.0602676,1.1707317 7.9999998,1.1707317 c 1.9397318,0 3.2426442,1.5912835 3.5121952,3.5121953 l 0.299739,2.1360438 C 12.565011,5.9650642 12.681466,5.8214692 12.682927,4.682927 12.682927,2.0966178 10.586309,0 7.9999998,0 Z M 11.886869,6.7815036 4.2442664,6.6473237 Z"
     style="display:inline;opacity:1;fill:url(#oomox);fill-opacity:1;stroke:none;stroke-width:0.585365;stroke-miterlimit:4;stroke-dasharray:none;stroke-opacity:1" />
  <path
     id="path532"
     class="ColorScheme-Text"
     style="display:inline;opacity:1;fill:url(#oomox);fill-opacity:1;stroke:none;stroke-width:0.7561;stroke-miterlimit:4;stroke-dasharray:none;stroke-opacity:1"
     d="M 7.9999998,3.9024391 C 6.7389521,3.907365 5.5109739,4.3062951 4.4878047,5.043445 L 4.1693319,5.3011393 3.7854156,5.6758134 3.3170732,6.1387197 C 2.4372515,7.214864 1.9549183,8.5611979 1.9512195,9.9512194 1.9512195,13.291869 4.6593506,16 7.9999998,16 11.340649,16 14.04878,13.291869 14.04878,9.9512194 14.048765,8.5557014 13.566218,7.2031147 12.682927,6.1227137 L 12.326985,5.6383463 11.980538,5.3386071 11.512195,5.0289634 C 10.487295,4.2969625 9.2594618,3.903139 7.9999998,3.9024391 Z m 0,1.1707315 c 2.6940722,0 4.8780482,2.1839772 4.8780482,4.8780488 0,2.6940716 -2.183976,4.8780496 -4.8780482,4.8780496 -2.6940718,0 -4.8780486,-2.183978 -4.8780486,-4.8780496 0,-2.6940716 2.1839768,-4.8780488 4.8780486,-4.8780488 z m 0,0.3902439 c -2.4785463,0 -4.4878049,2.0092586 -4.4878049,4.4878049 0,2.4785466 2.0092586,4.4878056 4.4878049,4.4878056 2.4785462,0 4.4878042,-2.009259 4.4878042,-4.4878056 0,-2.4785463 -2.009258,-4.4878049 -4.4878042,-4.4878049 z m 0,1.9512198 c 0.054167,2.992e-4 0.1083105,0.00235 0.1623477,0.0061 0.017542,0.00109 0.035075,0.00238 0.052591,0.00382 0.052507,0.00421 0.1048696,0.010056 0.1570123,0.017528 0.00204,2.577e-4 0.00407,5.107e-4 0.0061,7.83e-4 0.00712,0.00126 0.014233,0.00255 0.021341,0.00382 0.04365,0.00699 0.08711,0.015125 0.1303352,0.024391 0.021147,0.00456 0.042237,0.00939 0.063262,0.014481 0.052004,0.01234 0.1036052,0.026321 0.154726,0.041921 l 0.00153,7.83e-4 c 0.051101,0.015925 0.1016853,0.033463 0.1516768,0.052591 0.012994,0.00472 0.025954,0.00955 0.038872,0.014482 0.052314,0.020885 0.1039181,0.043512 0.154726,0.067835 0.00204,0.00102 0.00407,0.00204 0.0061,0.00303 0.00458,0.00255 0.00915,0.00507 0.013722,0.00762 0.048545,0.02337 0.096334,0.048281 0.1432926,0.074695 0.00355,0.00204 0.00712,0.00406 0.010669,0.0061 0.00204,0.00129 0.00407,0.00255 0.0061,0.00382 0.045834,0.026532 0.090825,0.054493 0.1349084,0.083842 0.00231,0.00153 0.00458,0.00303 0.00686,0.00458 0.014849,0.010512 0.029586,0.021181 0.044207,0.03201 0.033086,0.023101 0.065615,0.046992 0.097561,0.071646 0.011251,0.00854 0.02243,0.017181 0.033538,0.025916 0.041215,0.033286 0.081377,0.067857 0.1204272,0.1036587 0.015421,0.014291 0.030669,0.028773 0.045731,0.043445 0.023829,0.022914 0.047208,0.046293 0.070122,0.070122 0.014669,0.015064 0.029154,0.030311 0.043445,0.045731 0.035801,0.03905 0.070372,0.079212 0.1036587,0.1204268 0.00874,0.011105 0.017368,0.022287 0.025916,0.033538 0.02466,0.031945 0.04854,0.064475 0.07165,0.097561 0.01083,0.014621 0.0215,0.029358 0.03201,0.044207 0.0015,0.00231 0.003,0.00457 0.0046,0.00686 0.02935,0.044083 0.05731,0.089075 0.08384,0.134908 0.0013,0.00204 0.0026,0.00406 0.0038,0.0061 0.002,0.00355 0.0041,0.00711 0.0061,0.010669 0.02642,0.046959 0.05133,0.094747 0.0747,0.1432923 0.0025,0.00456 0.0051,0.00914 0.0076,0.013722 0.001,0.00204 0.002,0.00406 0.003,0.0061 0.02432,0.050808 0.04695,0.1024114 0.06784,0.1547257 0.0049,0.012916 0.0098,0.025875 0.01448,0.038872 0.01912,0.049992 0.03667,0.1005759 0.05259,0.1516769 l 7.83e-4,0.00153 c 0.0156,0.051121 0.02958,0.1027222 0.04192,0.1547263 0.0051,0.021024 0.0099,0.042114 0.01448,0.063262 0.0093,0.043225 0.01739,0.086685 0.02439,0.1303352 0.0013,0.00711 0.0026,0.014223 0.0038,0.021341 2.62e-4,0.00204 5.1e-4,0.00407 7.83e-4,0.0061 0.0075,0.052143 0.01332,0.1045057 0.01753,0.1570126 0.0014,0.017518 0.0027,0.035048 0.0038,0.052591 0.0037,0.054011 0.0057,0.1081284 0.006,0.1622681 -0.002,0.1678431 -0.02062,0.3350761 -0.05564,0.4992371 -0.0077,0.03933 -0.01635,0.07846 -0.02592,0.117379 -0.03926,0.160714 -0.09414,0.317199 -0.163872,0.467226 -0.01018,0.01893 -0.0206,0.03774 -0.03125,0.0564 -0.06886,0.135274 -0.149723,0.264094 -0.241616,0.384909 -0.020252,0.02837 -0.041093,0.05633 -0.0625,0.08384 -0.1041265,0.12653 -0.2202688,0.242672 -0.346799,0.346798 -0.027516,0.02141 -0.055468,0.04225 -0.083842,0.0625 -0.1208149,0.09189 -0.2496345,0.172757 -0.3849081,0.241616 -0.018669,0.01065 -0.037471,0.02107 -0.056402,0.03125 -0.1500254,0.06973 -0.3065121,0.124615 -0.4672258,0.163872 -0.038915,0.0096 -0.078053,0.01821 -0.117378,0.02592 -0.1641619,0.03502 -0.3313936,0.05366 -0.4992364,0.05564 -0.1678438,-0.002 -0.3350766,-0.02062 -0.4992381,-0.05564 -0.039325,-0.0077 -0.078462,-0.01635 -0.1173777,-0.02592 -0.1607137,-0.03926 -0.3172003,-0.09414 -0.4672258,-0.163872 -0.018931,-0.01018 -0.037737,-0.02059 -0.056402,-0.03125 -0.1352737,-0.06886 -0.2640933,-0.149723 -0.3849082,-0.241616 -0.028374,-0.02025 -0.056327,-0.04109 -0.083842,-0.0625 C 6.2644715,11.802882 6.1483292,11.68674 6.0442028,11.56021 c -0.021409,-0.02752 -0.042245,-0.05547 -0.0625,-0.08384 -0.091893,-0.120816 -0.1727565,-0.249635 -0.2416163,-0.384909 -0.010655,-0.01867 -0.021072,-0.03747 -0.031251,-0.0564 -0.069729,-0.150026 -0.124615,-0.306513 -0.1638718,-0.467226 -0.00957,-0.03891 -0.018206,-0.07805 -0.025916,-0.117378 -0.035017,-0.164159 -0.053655,-0.331392 -0.055638,-0.4992356 0.00197,-0.1678435 0.020619,-0.335076 0.05564,-0.4992378 0.00771,-0.039325 0.01635,-0.078462 0.025916,-0.117378 0.039257,-0.1607134 0.094142,-0.3172004 0.1638718,-0.4672255 0.010179,-0.018931 0.020595,-0.037736 0.031251,-0.056402 0.06886,-0.135274 0.1497228,-0.2640933 0.2416162,-0.3849085 0.020255,-0.028374 0.041093,-0.056326 0.0625,-0.083841 0.1041265,-0.12653 0.2202688,-0.2426726 0.346799,-0.346799 0.027516,-0.021409 0.055468,-0.042245 0.083841,-0.0625 0.1208153,-0.091893 0.2496346,-0.1727565 0.3849086,-0.2416163 0.018669,-0.010659 0.037471,-0.021072 0.056402,-0.031251 0.1500251,-0.06973 0.3065121,-0.124615 0.4672258,-0.1638718 0.038915,-0.00957 0.078052,-0.018206 0.1173777,-0.025916 0.1641611,-0.035018 0.3313929,-0.053656 0.4992357,-0.055638 z" />
</svg>
