<?xml version="1.0" encoding="UTF-8" standalone="no"?>


<svg
   width="48"
   height="48"
   version="1.1"
   id="svg2"
   xmlns:xlink="http://www.w3.org/1999/xlink"
   xmlns="http://www.w3.org/2000/svg"
   xmlns:svg="http://www.w3.org/2000/svg"
   xmlns:rdf="http://www.w3.org/1999/02/22-rdf-syntax-ns#"
   xmlns:cc="http://creativecommons.org/ns#"
   xmlns:dc="http://purl.org/dc/elements/1.1/">
  <metadata
     id="metadata8">
    <rdf:RDF>
      <cc:Work
         rdf:about="">
        <dc:format>image/svg+xml</dc:format>
        <dc:type
           rdf:resource="http://purl.org/dc/dcmitype/StillImage" />
        <dc:creator>
          <cc:Agent>
            <dc:title>dreifacherspass</dc:title>
          </cc:Agent>
        </dc:creator>
        <cc:license
           rdf:resource="http://creativecommons.org/licenses/by-sa/4.0/" />
      </cc:Work>
      <cc:License
         rdf:about="http://creativecommons.org/licenses/by-sa/4.0/">
        <cc:permits
           rdf:resource="http://creativecommons.org/ns#Reproduction" />
        <cc:permits
           rdf:resource="http://creativecommons.org/ns#Distribution" />
        <cc:requires
           rdf:resource="http://creativecommons.org/ns#Notice" />
        <cc:requires
           rdf:resource="http://creativecommons.org/ns#Attribution" />
        <cc:permits
           rdf:resource="http://creativecommons.org/ns#DerivativeWorks" />
        <cc:requires
           rdf:resource="http://creativecommons.org/ns#ShareAlike" />
      </cc:License>
    </rdf:RDF>
  </metadata>
  <defs
     id="defs6">
    <style
       id="current-color-scheme"
       type="text/css">
      .ColorScheme-Text { color: #0abdc6; } .ColorScheme-Highlight { color:#5294e2; }
     </style>
    <linearGradient
       id="arrongin"
       x1="0"
       x2="0"
       y1="0"
       y2="1">
      <stop
         offset="0%"
         style="stop-color:#dd9b44; stop-opacity:1"
         id="stop9192" />
      <stop
         offset="100%"
         style="stop-color:#ad6c16; stop-opacity:1"
         id="stop9194" />
    </linearGradient>
    <linearGradient
       id="aurora"
       x1="0"
       x2="0"
       y1="0"
       y2="1">
      <stop
         offset="0%"
         style="stop-color:#09D4DF; stop-opacity:1"
         id="stop9197" />
      <stop
         offset="100%"
         style="stop-color:#9269F4; stop-opacity:1"
         id="stop9199" />
    </linearGradient>
    <linearGradient
       id="cyberneon"
       x1="0"
       x2="0"
       y1="0"
       y2="1">
      <stop
         offset="0"
         style="stop-color:#0abdc6; stop-opacity:1"
         id="stop9202" />
      <stop
         offset="1"
         style="stop-color:#ea00d9; stop-opacity:1"
         id="stop9204" />
    </linearGradient>
    <linearGradient
       id="fitdance"
       x1="0"
       x2="0"
       y1="0"
       y2="1">
      <stop
         offset="0%"
         style="stop-color:#1AD6AB; stop-opacity:1"
         id="stop9207" />
      <stop
         offset="100%"
         style="stop-color:#329DB6; stop-opacity:1"
         id="stop9209" />
    </linearGradient>
    <linearGradient
       id="oomox"
       x1="0"
       x2="0"
       y1="0"
       y2="1">
      <stop
         offset="0%"
         style="stop-color:#0abdc6; stop-opacity:1"
         id="stop9212" />
      <stop
         offset="100%"
         style="stop-color:#b800ff; stop-opacity:1"
         id="stop9214" />
    </linearGradient>
    <linearGradient
       id="rainblue"
       x1="0"
       x2="0"
       y1="0"
       y2="1">
      <stop
         offset="0%"
         style="stop-color:#00F260; stop-opacity:1"
         id="stop9217" />
      <stop
         offset="100%"
         style="stop-color:#0575E6; stop-opacity:1"
         id="stop9219" />
    </linearGradient>
    <linearGradient
       id="sunrise"
       x1="0"
       x2="0"
       y1="0"
       y2="1">
      <stop
         offset="0%"
         style="stop-color: #FF8501; stop-opacity:1"
         id="stop9222" />
      <stop
         offset="100%"
         style="stop-color: #FFCB01; stop-opacity:1"
         id="stop9224" />
    </linearGradient>
    <linearGradient
       id="telinkrin"
       x1="0"
       x2="0"
       y1="0"
       y2="1">
      <stop
         offset="0%"
         style="stop-color: #b2ced6; stop-opacity:1"
         id="stop9227" />
      <stop
         offset="100%"
         style="stop-color: #6da5b7; stop-opacity:1"
         id="stop9229" />
    </linearGradient>
    <linearGradient
       id="60spsycho"
       x1="0"
       x2="0"
       y1="0"
       y2="1">
      <stop
         offset="0%"
         style="stop-color: #df5940; stop-opacity:1"
         id="stop9232" />
      <stop
         offset="25%"
         style="stop-color: #d8d15f; stop-opacity:1"
         id="stop9234" />
      <stop
         offset="50%"
         style="stop-color: #e9882a; stop-opacity:1"
         id="stop9236" />
      <stop
         offset="100%"
         style="stop-color: #279362; stop-opacity:1"
         id="stop9238" />
    </linearGradient>
    <linearGradient
       id="90ssummer"
       x1="0"
       x2="0"
       y1="0"
       y2="1">
      <stop
         offset="0%"
         style="stop-color: #f618c7; stop-opacity:1"
         id="stop9241" />
      <stop
         offset="20%"
         style="stop-color: #94ffab; stop-opacity:1"
         id="stop9243" />
      <stop
         offset="50%"
         style="stop-color: #fbfd54; stop-opacity:1"
         id="stop9245" />
      <stop
         offset="100%"
         style="stop-color: #0f83ae; stop-opacity:1"
         id="stop9247" />
    </linearGradient>
  </defs>
  <path
     id="path568"
     class="ColorScheme-Text"
     d="m 24,0.5 c -7.597283,0 -13.756097,6.1588147 -13.756097,13.756098 0.0064,3.341382 0.623562,3.429455 2.83369,5.935491 l 0.605334,-5.935491 C 14.261037,8.5875388 18.302037,3.9390244 24,3.9390244 c 5.697962,0 9.525266,4.6743953 10.317073,10.3170736 l 0.880485,6.274629 c 2.212162,-2.508351 2.55425,-2.930161 2.558539,-6.274629 C 37.756097,6.6588147 31.597283,0.5 24,0.5 Z M 35.417679,20.420667 12.967533,20.026513 Z"
     style="display:inline;opacity:1;fill:url(#oomox);fill-opacity:1;stroke:none;stroke-width:1.71951;stroke-miterlimit:4;stroke-dasharray:none;stroke-opacity:1" />
  <path
     id="path532"
     class="ColorScheme-Text"
     style="display:inline;opacity:1;fill:url(#oomox);fill-opacity:1;stroke:none;stroke-width:2.22104;stroke-miterlimit:4;stroke-dasharray:none;stroke-opacity:1"
     d="m 24,11.963415 c -3.704328,0.01447 -7.311513,1.186327 -10.317073,3.351705 l -0.935514,0.756977 -1.127754,1.100605 -1.375756,1.359787 C 7.6594269,21.693663 6.2425731,25.648519 6.2317079,29.731707 6.2317079,39.544865 14.186843,47.5 24,47.5 c 9.813157,0 17.768292,-7.955135 17.768292,-17.768293 -4.2e-5,-4.099334 -1.417525,-8.072558 -4.012195,-11.246236 L 36.710521,17.062642 35.692829,16.182158 34.317073,15.27258 C 31.306429,13.122327 27.69967,11.965471 24,11.963415 Z m 0,3.439024 c 7.913836,0 14.329268,6.415432 14.329268,14.329268 0,7.913836 -6.415432,14.329269 -14.329268,14.329269 -7.913836,0 -14.3292677,-6.415433 -14.3292677,-14.329269 0,-7.913836 6.4154317,-14.329268 14.3292677,-14.329268 z m 0,1.146341 c -7.28073,0 -13.182927,5.902197 -13.182927,13.182927 0,7.28073 5.902197,13.182927 13.182927,13.182927 7.28073,0 13.182927,-5.902197 13.182927,-13.182927 C 37.182927,22.450977 31.28073,16.54878 24,16.54878 Z m 0,5.731708 c 0.159115,8.79e-4 0.318162,0.0069 0.476896,0.01792 0.05153,0.0032 0.103033,0.007 0.154487,0.01123 0.154239,0.01237 0.308054,0.02954 0.461223,0.05149 0.006,7.57e-4 0.01195,0.0015 0.01792,0.0023 0.02091,0.0037 0.04181,0.0075 0.06269,0.01123 0.128223,0.02054 0.255886,0.04443 0.38286,0.07165 0.06212,0.01339 0.124072,0.02757 0.185832,0.04254 0.152762,0.03625 0.30434,0.07732 0.454507,0.123141 l 0.0045,0.0023 c 0.15011,0.04678 0.298701,0.0983 0.445551,0.154486 0.03817,0.01387 0.07624,0.02805 0.114187,0.04254 0.153673,0.06135 0.305259,0.127816 0.454507,0.199266 0.006,0.003 0.01195,0.006 0.01791,0.0089 0.01346,0.0075 0.02689,0.01488 0.04031,0.02239 0.142602,0.06865 0.28298,0.141826 0.420922,0.219418 0.01043,0.006 0.02091,0.01192 0.03134,0.01792 0.006,0.0038 0.01195,0.0075 0.01792,0.01123 0.134637,0.07794 0.2668,0.160073 0.396294,0.246285 0.0068,0.0045 0.01345,0.0089 0.02015,0.01344 0.04362,0.03088 0.08691,0.06222 0.12986,0.09403 0.09719,0.06786 0.192744,0.138038 0.286585,0.210462 0.03305,0.0251 0.06589,0.05047 0.09852,0.07613 0.121069,0.09778 0.239045,0.199328 0.353755,0.304497 0.0453,0.04198 0.09009,0.08452 0.134336,0.12762 0.07,0.06731 0.138672,0.135987 0.205984,0.205984 0.04309,0.04425 0.08564,0.08904 0.12762,0.134336 0.105165,0.11471 0.206717,0.232686 0.304497,0.353754 0.02566,0.03262 0.05102,0.06547 0.07613,0.09852 0.07243,0.09384 0.142597,0.189396 0.210462,0.286585 0.03181,0.04295 0.06315,0.08624 0.09403,0.12986 0.0045,0.0068 0.0089,0.01342 0.01343,0.02015 0.08622,0.129494 0.168347,0.261657 0.246285,0.396293 0.0038,0.006 0.0075,0.01193 0.01123,0.01792 0.006,0.01043 0.01197,0.02088 0.01792,0.03134 0.0776,0.137941 0.150767,0.27832 0.219418,0.420921 0.0075,0.01341 0.01497,0.02685 0.02239,0.04031 0.003,0.006 0.006,0.01193 0.0089,0.01791 0.07145,0.149248 0.13791,0.300834 0.199267,0.454507 0.01449,0.03794 0.02867,0.07601 0.04254,0.114187 0.05618,0.14685 0.107711,0.295441 0.154487,0.445551 l 0.0023,0.0045 c 0.04583,0.150168 0.08689,0.301746 0.123141,0.454508 0.01497,0.06176 0.02915,0.123709 0.04254,0.185832 0.02721,0.126973 0.0511,0.254637 0.07165,0.38286 0.0038,0.02089 0.0076,0.04178 0.01123,0.06269 7.72e-4,0.006 0.0015,0.01195 0.0023,0.01792 0.02195,0.15317 0.03912,0.306985 0.05149,0.461224 0.0042,0.05146 0.008,0.102953 0.01123,0.154487 0.011,0.158658 0.01687,0.317628 0.01769,0.476663 -0.0058,0.493041 -0.06057,0.984287 -0.163443,1.466512 -0.02265,0.115517 -0.04803,0.230482 -0.07613,0.344797 -0.115317,0.472096 -0.276543,0.931776 -0.481374,1.372476 -0.0299,0.05561 -0.0605,0.110851 -0.0918,0.165682 -0.202275,0.397366 -0.439811,0.775774 -0.709747,1.130668 -0.05949,0.08335 -0.12071,0.16546 -0.183593,0.246285 -0.305872,0.371682 -0.64704,0.71285 -1.018722,1.018722 -0.08083,0.06289 -0.162936,0.124095 -0.246285,0.183593 -0.354894,0.269936 -0.733302,0.507472 -1.130668,0.709747 -0.05484,0.0313 -0.110072,0.0619 -0.165682,0.0918 -0.4407,0.204831 -0.90038,0.366057 -1.372476,0.481374 -0.114313,0.0281 -0.22928,0.05348 -0.344798,0.07613 -0.482226,0.102865 -0.973469,0.157614 -1.466507,0.163436 -0.493041,-0.0058 -0.984287,-0.06057 -1.466512,-0.163443 -0.115517,-0.02265 -0.230482,-0.04803 -0.344797,-0.07613 -0.472096,-0.115317 -0.931776,-0.276543 -1.372476,-0.481374 -0.05561,-0.0299 -0.110851,-0.06049 -0.165682,-0.0918 -0.397366,-0.202275 -0.775774,-0.439811 -1.130668,-0.709747 -0.08335,-0.05949 -0.16546,-0.12071 -0.246285,-0.183593 -0.371682,-0.305872 -0.71285,-0.64704 -1.018722,-1.018722 -0.06289,-0.08083 -0.124095,-0.162936 -0.183593,-0.246284 -0.269936,-0.354895 -0.507472,-0.733302 -0.709747,-1.130669 -0.0313,-0.05484 -0.0619,-0.110072 -0.0918,-0.165682 -0.204831,-0.440699 -0.366057,-0.90038 -0.481374,-1.372476 -0.0281,-0.114313 -0.05348,-0.229279 -0.07613,-0.344797 -0.102862,-0.482218 -0.157611,-0.973464 -0.163436,-1.466505 0.0058,-0.49304 0.06057,-0.984286 0.163443,-1.466511 0.02265,-0.115518 0.04803,-0.230482 0.07613,-0.344798 0.115317,-0.472095 0.276543,-0.931776 0.481374,-1.372475 0.0299,-0.05561 0.0605,-0.110851 0.0918,-0.165682 0.202275,-0.397367 0.439811,-0.775774 0.709747,-1.130669 0.0595,-0.08335 0.12071,-0.165459 0.183593,-0.246284 0.305872,-0.371682 0.64704,-0.712851 1.018722,-1.018722 0.08083,-0.06289 0.162936,-0.124095 0.246284,-0.183593 0.354895,-0.269936 0.733302,-0.507472 1.130669,-0.709747 0.05484,-0.03131 0.110072,-0.0619 0.165682,-0.0918 0.440699,-0.204831 0.90038,-0.366057 1.372476,-0.481374 0.114313,-0.0281 0.229279,-0.05348 0.344797,-0.07613 0.482224,-0.102866 0.973467,-0.157614 1.466505,-0.163436 z" />
</svg>
