<?xml version="1.0" encoding="UTF-8" standalone="no"?>
<svg
   width="16"
   height="16"
   version="1.1"
   id="svg361"
   xmlns:xlink="http://www.w3.org/1999/xlink"
   xmlns="http://www.w3.org/2000/svg"
   xmlns:svg="http://www.w3.org/2000/svg"
   xmlns:rdf="http://www.w3.org/1999/02/22-rdf-syntax-ns#"
   xmlns:cc="http://creativecommons.org/ns#"
   xmlns:dc="http://purl.org/dc/elements/1.1/">
  <defs>
   <style id="current-color-scheme" type="text/css">
   .ColorScheme-Text { color: #0abdc6; } .ColorScheme-Highlight { color:#5294e2; }
  </style>
  <linearGradient id="arrongin" x1="0%" x2="0%" y1="0%" y2="100%">
   <stop offset="0%" style="stop-color:#dd9b44; stop-opacity:1"/>
   <stop offset="100%" style="stop-color:#ad6c16; stop-opacity:1"/>
  </linearGradient>
  <linearGradient id="aurora" x1="0%" x2="0%" y1="0%" y2="100%">
   <stop offset="0%" style="stop-color:#09D4DF; stop-opacity:1"/>
   <stop offset="100%" style="stop-color:#9269F4; stop-opacity:1"/>
  </linearGradient>
  <linearGradient id="cyberneon" x1="0%" x2="0%" y1="0%" y2="100%">
    <stop offset="0" style="stop-color:#0abdc6; stop-opacity:1"/>
    <stop offset="1" style="stop-color:#ea00d9; stop-opacity:1"/>
  </linearGradient>
  <linearGradient id="fitdance" x1="0%" x2="0%" y1="0%" y2="100%">
   <stop offset="0%" style="stop-color:#1AD6AB; stop-opacity:1"/>
   <stop offset="100%" style="stop-color:#329DB6; stop-opacity:1"/>
  </linearGradient>
  <linearGradient id="oomox" x1="0%" x2="0%" y1="0%" y2="100%">
   <stop offset="0%" style="stop-color:#0abdc6; stop-opacity:1"/>
   <stop offset="100%" style="stop-color:#b800ff; stop-opacity:1"/>
  </linearGradient>
  <linearGradient id="rainblue" x1="0%" x2="0%" y1="0%" y2="100%">
   <stop offset="0%" style="stop-color:#00F260; stop-opacity:1"/>
   <stop offset="100%" style="stop-color:#0575E6; stop-opacity:1"/>
  </linearGradient>
  <linearGradient id="sunrise" x1="0%" x2="0%" y1="0%" y2="100%">
   <stop offset="0%" style="stop-color: #FF8501; stop-opacity:1"/>
   <stop offset="100%" style="stop-color: #FFCB01; stop-opacity:1"/>
  </linearGradient>
  <linearGradient id="telinkrin" x1="0%" x2="0%" y1="0%" y2="100%">
   <stop offset="0%" style="stop-color: #b2ced6; stop-opacity:1"/>
   <stop offset="100%" style="stop-color: #6da5b7; stop-opacity:1"/>
  </linearGradient>
  <linearGradient id="60spsycho" x1="0%" x2="0%" y1="0%" y2="100%">
   <stop offset="0%" style="stop-color: #df5940; stop-opacity:1"/>
   <stop offset="25%" style="stop-color: #d8d15f; stop-opacity:1"/>
   <stop offset="50%" style="stop-color: #e9882a; stop-opacity:1"/>
   <stop offset="100%" style="stop-color: #279362; stop-opacity:1"/>
  </linearGradient>
  <linearGradient id="90ssummer" x1="0%" x2="0%" y1="0%" y2="100%">
   <stop offset="0%" style="stop-color: #f618c7; stop-opacity:1"/>
   <stop offset="20%" style="stop-color: #94ffab; stop-opacity:1"/>
   <stop offset="50%" style="stop-color: #fbfd54; stop-opacity:1"/>
   <stop offset="100%" style="stop-color: #0f83ae; stop-opacity:1"/>
  </linearGradient>
 </defs>
  <path
     class="ColorScheme-Text"
     d="M 4.4505068,7.1349119 C 3.3312078,7.1441034 2.5121597,7.1155417 1.8425102,7.3785561 1.5076904,7.5100423 1.2436025,7.7327684 1.0971198,8.0105334 0.95063731,8.2883101 0.89730649,8.6181609 0.89730649,9.0345734 v 5.0657656 c 0,0.416411 0.0532806,0.74627 0.19981331,1.024038 0.1464983,0.277772 0.4105706,0.50049 0.7453904,0.631982 C 2.5121597,16.019345 3.3312183,15.990776 4.4505068,16 h 0.00362 7.1202972 0.0036 c 1.119291,-0.0092 1.938348,0.01935 2.607998,-0.243641 0.33482,-0.131492 0.5989,-0.354213 0.74539,-0.631982 0.146327,-0.277774 0.199653,-0.607627 0.199653,-1.024038 V 9.0345734 c 0,-0.4164125 -0.05328,-0.7462633 -0.199812,-1.02404 C 14.784785,7.7327684 14.520695,7.5100508 14.185876,7.3785561 13.516227,7.1155522 12.697178,7.1441054 11.577877,7.1349119 h -0.0036 -7.1202973 z m 0.00532,0.6332206 h 7.1168292 c 1.119582,0.00941 1.856755,0.037856 2.182304,0.1657286 0.163161,0.064086 0.257238,0.1347026 0.344028,0.2992977 0.08668,0.1645885 0.142352,0.4263018 0.142352,0.8014169 v 5.0657653 c 0,0.375113 -0.05569,0.636843 -0.142476,0.801417 -0.08682,0.164588 -0.180865,0.235222 -0.344029,0.299295 -0.325551,0.127855 -1.06272,0.15642 -2.182305,0.165729 H 4.4609153 4.4557497 C 3.3361548,15.357395 2.5972578,15.328927 2.2716987,15.201053 2.1085395,15.136988 2.0162089,15.066329 1.929419,14.901758 1.842615,14.737187 1.7869411,14.475454 1.7869411,14.100341 V 9.0345757 c 0,-0.3751151 0.055689,-0.6368444 0.1424779,-0.8014169 C 2.016239,8.0685886 2.1085395,7.997936 2.2717025,7.9338611 2.5972617,7.8060096 3.3361586,7.7774418 4.45575,7.7681325 Z"
     id="path6189"
     style="isolation:isolate;fill:url(#oomox);stroke-width:0.750533" />
  <path
     class="ColorScheme-Text"
     d="m 3.3446621,9.1274414 a 0.25490545,0.29687406 0 0 0 -0.1393806,0.536872 l 0.7477132,0.6528236 -0.7477132,0.652826 a 0.25527812,0.2973081 0 1 0 0.3066517,0.475415 l 1.0195186,-0.890533 a 0.25490545,0.29687406 0 0 0 0,-0.475412 L 3.5119332,9.1888981 A 0.25490545,0.29687406 0 0 0 3.3446699,9.1274452 Z"
     id="path6191"
     style="isolation:isolate;fill:url(#oomox);stroke-width:0.550148" />
  <path
     class="ColorScheme-Text"
     d="m 5.0806173,10.911432 h 1.1512511 c 0.1047169,0 0.1890127,0.09818 0.1890127,0.220132 v 0.153432 c 0,0.121955 -0.084299,0.220133 -0.1890127,0.220133 H 5.0806173 c -0.1047169,0 -0.1890148,-0.09818 -0.1890148,-0.220133 v -0.153432 c 0,-0.121956 0.084303,-0.220132 0.1890148,-0.220132 z"
     id="path6193"
     style="isolation:isolate;fill:url(#oomox);stroke-width:0.550148" />
  <path
     d="M 3.3787128,0.02067191 C 3.3005593,0.04672933 3.2106676,0.11186339 3.1696341,0.17177874 2.9117003,0.54955123 3.222399,1.9772619 3.8320491,3.2173969 3.9473393,3.4544876 3.9903268,3.647274 3.9610118,3.8009897 3.9356296,3.9286598 3.8867531,3.9286598 3.7616972,3.803679 3.6229575,3.6654578 3.1891677,3.3814838 2.9644522,3.27988 2.4466321,3.0506131 1.9170874,3.0115308 1.4442134,3.1704688 1.2449023,3.2356019 1.2585808,3.27988 1.4930673,3.3398116 c 0.871501,0.216243 1.6472516,0.6018327 2.2627742,1.1202819 0.1289626,0.1068129 0.1973555,0.2396867 0.1993078,0.3751669 0,0.080774 -0.021501,0.075553 -0.1836758,-0.041677 C 3.4392881,4.5486708 2.9625017,4.3141929 2.5677871,4.2021691 2.2825011,4.1213978 1.8193915,4.0927571 1.5419194,4.1370335 1.1960537,4.1969518 0.79157004,4.3636867 0.48674108,4.5799256 l -0.11724572,0.080774 0.30287975,-0.018312 c 0.83046279,-0.052115 1.42448839,0.010431 2.04196149,0.2162447 0.2071297,0.070353 0.595981,0.2370815 0.6194318,0.2683485 0.00783,0.010431 -0.048854,0.052096 -0.1270068,0.09119 C 3.0699778,5.2911227 3.0621719,5.2911227 2.8863004,5.2624661 2.6654925,5.2259888 2.1554911,5.2259888 1.971812,5.2597767 1.5282454,5.3457501 1.1647954,5.572417 0.94789814,5.9006868 c -0.0723023,0.1094298 -0.10160222,0.1927959 -0.068392,0.1927959 0.007828,0 0.12505116,-0.033876 0.25988426,-0.078154 C 1.579051,5.8772414 1.833074,5.8303478 2.2141101,5.8147172 c 0.2423017,-0.010431 0.355635,-0.00788 0.3478196,0.010431 -0.00783,0.015581 -0.062525,0.039077 -0.1250671,0.057315 -0.3067797,0.080779 -0.566664,0.3647557 -0.6506897,0.7112608 l -0.021493,0.099011 -0.4533358,0.00515 -0.45333431,0.00788 -0.005788,0.1328684 c -0.005788,0.1198495 -0.002063,0.1354876 0.0390767,0.1511073 0.0254042,0.00788 0.22666941,0.015581 0.44747121,0.015581 h 0.4044871 l 0.023448,0.1224493 c 0.037121,0.2058223 0.085975,0.3256653 0.193448,0.4819856 0.1836804,0.2657446 0.4611529,0.390803 0.744488,0.3308779 0.078154,-0.015578 0.1621852,-0.020817 0.1914927,-0.010431 0.027362,0.00788 0.097707,0.072954 0.1543668,0.1432877 C 3.1794623,8.232425 3.3240675,8.3236093 3.5018816,8.3626905 3.7559117,8.420004 4.0216572,8.2897358 4.1779775,8.0370233 4.2600435,7.9015374 4.3030304,7.8780981 4.5414297,7.8390149 4.8599358,7.7843003 5.0436157,7.6853083 5.2057988,7.4846966 5.291775,7.3778674 5.4012037,7.1329759 5.4012037,7.0469974 c 0,-0.020817 0.019523,-0.041676 0.04494,-0.046877 0.023476,-0.00515 1.1939146,-0.00515 2.5988596,0 l 2.5558737,0.00515 0.02931,0.099011 c 0.128963,0.4350878 0.384948,0.6565407 0.848048,0.7346966 0.242304,0.039077 0.26966,0.054716 0.388856,0.2240575 0.175867,0.2475107 0.381038,0.3386968 0.65265,0.2944057 0.170002,-0.028643 0.318506,-0.1224493 0.457243,-0.2917987 l 0.109424,-0.1354856 0.26575,0.00788 c 0.222758,0.00788 0.283334,0 0.375171,-0.041677 0.275522,-0.1276681 0.498278,-0.4507216 0.537359,-0.7815985 l 0.0136,-0.1094301 h 0.431841 c 0.236437,0 0.451386,-0.00788 0.476785,-0.015581 0.03712,-0.012994 0.043,-0.033876 0.043,-0.1406876 0,-0.088591 -0.0079,-0.1302682 -0.03129,-0.1406869 -0.01758,-0.00788 -0.236433,-0.015581 -0.486553,-0.015581 H 14.256787 L 14.198173,6.5573294 C 14.077018,6.2707467 13.830816,6.0154269 13.578744,5.9112145 13.502526,5.8799532 13.428287,5.84868 13.412649,5.8408615 c -0.01757,-0.010431 -0.0039,-0.023466 0.03908,-0.039077 0.04495,-0.018312 0.175864,-0.015581 0.390808,0.00269 0.414254,0.039077 0.664371,0.088593 1.000462,0.2006113 0.369315,0.1250492 0.39276,0.096392 0.162184,-0.1927945 -0.177814,-0.2214474 -0.416209,-0.388195 -0.70345,-0.4924016 -0.193449,-0.070353 -0.201264,-0.072953 -0.810924,-0.072953 -0.552992,0 -0.627245,-0.00515 -0.726898,-0.052099 -0.06253,-0.026063 -0.113336,-0.057313 -0.113336,-0.065133 0,-0.026063 0.494373,-0.2266672 0.73667,-0.2996149 0.494376,-0.1511073 0.717134,-0.179764 1.315069,-0.1823645 0.306778,0 0.642877,0.010431 0.748397,0.020817 0.166088,0.020817 0.187586,0.018315 0.177816,-0.015581 -0.0136,-0.052117 -0.302881,-0.250114 -0.488509,-0.3386978 C 14.825414,4.163156 14.631969,4.126689 14.164951,4.126689 c -0.44747,0 -0.562762,0.015578 -0.910576,0.1328701 -0.355637,0.1172459 -0.840235,0.3829749 -1.051271,0.5783777 -0.101606,0.091188 -0.138739,0.08337 -0.138739,-0.033876 0,-0.1537082 0.06839,-0.2422989 0.369316,-0.4715672 0.633105,-0.487189 1.352189,-0.8232761 2.108401,-0.9900151 0.134828,-0.031265 0.199311,-0.054718 0.199311,-0.078154 0,-0.078155 -0.451383,-0.1927938 -0.765983,-0.1927938 -0.551039,0 -1.164606,0.2553184 -1.672654,0.6930143 -0.08793,0.078155 -0.173909,0.1406866 -0.189542,0.1406866 -0.03908,0 -0.07424,-0.1979993 -0.06058,-0.336085 0.0079,-0.083371 0.05277,-0.1980037 0.160232,-0.4168489 0.265749,-0.544516 0.5354,-1.3365322 0.654603,-1.9305405 0.03516,-0.1745637 0.04494,-0.29179415 0.0469,-0.56014244 0,-0.31003652 -0.0039,-0.34651122 -0.0469,-0.4376954 -0.0723,-0.15632559 -0.170002,-0.20842916 -0.422072,-0.22145606 -0.183681,-0.00787353 -0.257932,0 -0.508048,0.0703347 -0.465064,0.12504327 -0.799202,0.2839783 -1.307249,0.61746067 -0.179771,0.11984909 -0.271613,0.16674494 -0.328276,0.16674494 -0.04689,0 -0.181729,-0.0547151 -0.3478166,-0.14328776 C 9.0141192,0.21867272 8.0976776,0.09362147 7.0913568,0.32289108 6.7415857,0.40104468 6.3976726,0.53391695 6.0654892,0.71889825 5.9208843,0.797052 5.7723829,0.87000521 5.7372094,0.87522407 5.6863992,0.88566151 5.6238753,0.85691258 5.4245658,0.71889825 4.9184672,0.3723891 4.3009926,0.09622533 3.8769689,0.02587786 3.6932918,-0.00537987 3.4685769,-0.00799845 3.378691,0.02075071 Z M 6.67712,3.2929524 C 7.0386191,3.4180036 7.3395355,3.8062036 7.445049,4.2829681 7.486082,4.4679461 7.489993,4.8509329 7.454779,5.0254894 7.271095,5.8904526 6.548108,6.3151249 5.9443127,5.908696 5.6082175,5.6820323 5.3796034,5.1818043 5.3776446,4.6711631 c 0,-0.388195 0.1035601,-0.7164584 0.3165521,-1.0004331 0.2071264,-0.2761654 0.4435634,-0.4116462 0.7229928,-0.4142505 0.082062,-0.00269 0.1993109,0.015581 0.2598842,0.036477 z m 3.1694378,0 C 10.204148,3.4180036 10.518747,3.834864 10.6184,4.3220493 10.65554,4.496612 10.65162,4.8561411 10.6105,5.0385168 10.481538,5.6247138 10.112222,6.0233268 9.6608407,6.0598054 9.275967,6.0910599 8.9340076,5.8696131 8.7249275,5.4527618 8.5959655,5.1948341 8.5432022,4.9759851 8.5412489,4.673767 8.5353119,3.7671248 9.1958526,3.0688934 9.8465408,3.2929524 Z m -1.494835,3.1342007 c 0.1172459,0.041695 0.1309167,0.052113 0.1700034,0.1537249 l 0.042987,0.1120299 H 8.0195394 c -0.3693099,0 -0.5471318,-0.00788 -0.5471318,-0.026063 0,-0.065135 0.06057,-0.1771645 0.1113797,-0.2058202 C 7.7440181,6.375052 8.1445964,6.356814 8.3517228,6.4271456 Z"
     id="path283"
     class="ColorScheme-Text"
     style="isolation:isolate;fill:url(#oomox);fill-opacity:1;stroke-width:0.351459;stroke-miterlimit:4;stroke-dasharray:none" />
  <path
     d="m 6.3722956,4.3477286 c -0.1621865,0.2370747 -0.1485011,1.258369 0.015659,1.4016633 0.109424,0.096391 0.1817239,-0.091192 0.2051728,-0.52367 0.027353,-0.5471188 -0.042988,-0.9248944 -0.171954,-0.9248944 -0.00973,0 -0.031268,0.020817 -0.048853,0.046897 z"
     id="path285"
     class="ColorScheme-Text"
     style="isolation:isolate;fill:url(#oomox);fill-opacity:1;stroke-width:0.351459;stroke-miterlimit:4;stroke-dasharray:none" />
  <path
     d="m 9.5482597,4.3503291 c -0.078169,0.10421 -0.1328735,0.5940206 -0.099663,0.9066551 0.042986,0.4324795 0.09769,0.5627515 0.2032204,0.5002225 0.089885,-0.054715 0.1289627,-0.2735604 0.1289627,-0.7164652 0,-0.4168513 -0.046897,-0.6721768 -0.1289627,-0.7138606 -0.06448,-0.033859 -0.06057,-0.033859 -0.1035717,0.023462 z"
     id="path287"
     class="ColorScheme-Text"
     style="isolation:isolate;fill:url(#oomox);fill-opacity:1;stroke-width:0.351459;stroke-miterlimit:4;stroke-dasharray:none" />
  <metadata
     id="metadata173">
    <rdf:RDF>
      <cc:Work
         rdf:about="">
        <cc:license
           rdf:resource="http://creativecommons.org/licenses/by-sa/4.0/" />
        <dc:creator>
          <cc:Agent>
            <dc:title>dreifacherspass</dc:title>
          </cc:Agent>
        </dc:creator>
      </cc:Work>
      <cc:License
         rdf:about="http://creativecommons.org/licenses/by-sa/4.0/">
        <cc:permits
           rdf:resource="http://creativecommons.org/ns#Reproduction" />
        <cc:permits
           rdf:resource="http://creativecommons.org/ns#Distribution" />
        <cc:requires
           rdf:resource="http://creativecommons.org/ns#Notice" />
        <cc:requires
           rdf:resource="http://creativecommons.org/ns#Attribution" />
        <cc:permits
           rdf:resource="http://creativecommons.org/ns#DerivativeWorks" />
        <cc:requires
           rdf:resource="http://creativecommons.org/ns#ShareAlike" />
      </cc:License>
    </rdf:RDF>
  </metadata>
</svg>
