<?xml version="1.0" encoding="UTF-8" standalone="no"?>
<svg
   width="48"
   height="48"
   version="1.1"
   id="svg361"
   xmlns="http://www.w3.org/2000/svg"
   xmlns:svg="http://www.w3.org/2000/svg">
  <defs
     id="defs353">
     <style
       id="current-color-scheme"
       type="text/css">
       .ColorScheme-Text { color: #0abdc6; } .ColorScheme-Highlight { color:#5294e2; }
    </style>
    <linearGradient
       id="arrongin"
       x1="0%"
       x2="0%"
       y1="0%"
       y2="100%">
      <stop
         offset="0%"
         style="stop-color:#dd9b44; stop-opacity:1"
         id="stop9192" />
      <stop
         offset="100%"
         style="stop-color:#ad6c16; stop-opacity:1"
         id="stop9194" />
    </linearGradient>
    <linearGradient
       id="aurora"
       x1="0%"
       x2="0%"
       y1="0%"
       y2="100%">
      <stop
         offset="0%"
         style="stop-color:#09D4DF; stop-opacity:1"
         id="stop9197" />
      <stop
         offset="100%"
         style="stop-color:#9269F4; stop-opacity:1"
         id="stop9199" />
    </linearGradient>
    <linearGradient
       id="cyberneon"
       x1="0%"
       x2="0%"
       y1="0%"
       y2="100%">
      <stop
         offset="0"
         style="stop-color:#0abdc6; stop-opacity:1"
         id="stop9202" />
      <stop
         offset="1"
         style="stop-color:#ea00d9; stop-opacity:1"
         id="stop9204" />
    </linearGradient>
    <linearGradient
       id="fitdance"
       x1="0%"
       x2="0%"
       y1="0%"
       y2="100%">
      <stop
         offset="0%"
         style="stop-color:#1AD6AB; stop-opacity:1"
         id="stop9207" />
      <stop
         offset="100%"
         style="stop-color:#329DB6; stop-opacity:1"
         id="stop9209" />
    </linearGradient>
    <linearGradient
       id="oomox"
       x1="0%"
       x2="0%"
       y1="0%"
       y2="100%">
      <stop
         offset="0%"
         style="stop-color:#0abdc6; stop-opacity:1"
         id="stop9212" />
      <stop
         offset="100%"
         style="stop-color:#b800ff; stop-opacity:1"
         id="stop9214" />
    </linearGradient>
    <linearGradient
       id="rainblue"
       x1="0%"
       x2="0%"
       y1="0%"
       y2="100%">
      <stop
         offset="0%"
         style="stop-color:#00F260; stop-opacity:1"
         id="stop9217" />
      <stop
         offset="100%"
         style="stop-color:#0575E6; stop-opacity:1"
         id="stop9219" />
    </linearGradient>
    <linearGradient
       id="sunrise"
       x1="0%"
       x2="0%"
       y1="0%"
       y2="100%">
      <stop
         offset="0%"
         style="stop-color: #FF8501; stop-opacity:1"
         id="stop9222" />
      <stop
         offset="100%"
         style="stop-color: #FFCB01; stop-opacity:1"
         id="stop9224" />
    </linearGradient>
    <linearGradient
       id="telinkrin"
       x1="0%"
       x2="0%"
       y1="0%"
       y2="100%">
      <stop
         offset="0%"
         style="stop-color: #b2ced6; stop-opacity:1"
         id="stop9227" />
      <stop
         offset="100%"
         style="stop-color: #6da5b7; stop-opacity:1"
         id="stop9229" />
    </linearGradient>
    <linearGradient
       id="60spsycho"
       x1="0%"
       x2="0%"
       y1="0%"
       y2="100%">
      <stop
         offset="0%"
         style="stop-color: #df5940; stop-opacity:1"
         id="stop9232" />
      <stop
         offset="25%"
         style="stop-color: #d8d15f; stop-opacity:1"
         id="stop9234" />
      <stop
         offset="50%"
         style="stop-color: #e9882a; stop-opacity:1"
         id="stop9236" />
      <stop
         offset="100%"
         style="stop-color: #279362; stop-opacity:1"
         id="stop9238" />
    </linearGradient>
    <linearGradient
       id="90ssummer"
       x1="0%"
       x2="0%"
       y1="0%"
       y2="100%">
      <stop
         offset="0%"
         style="stop-color: #f618c7; stop-opacity:1"
         id="stop9241" />
      <stop
         offset="20%"
         style="stop-color: #94ffab; stop-opacity:1"
         id="stop9243" />
      <stop
         offset="50%"
         style="stop-color: #fbfd54; stop-opacity:1"
         id="stop9245" />
      <stop
         offset="100%"
         style="stop-color: #0f83ae; stop-opacity:1"
         id="stop9247" />
    </linearGradient>
  </defs>
  <path
     class="ColorScheme-Text"
     d="m 13.53364,21.449116 c -3.300468,0.0271 -5.7155874,-0.05712 -7.6901771,0.718432 C 4.8561827,22.55526 4.0774691,23.21201 3.6455367,24.031054 3.2136051,24.850131 3.056349,25.82276 3.056349,27.050631 v 14.93738 c 0,1.227866 0.1571082,2.200519 0.5891877,3.019572 0.4319784,0.819064 1.210646,1.47579 2.1979262,1.863519 1.9745897,0.775465 4.3897411,0.691225 7.6901771,0.718423 h 0.01068 20.995559 0.01068 c 3.300444,-0.027 5.715591,0.05706 7.69018,-0.718423 0.987282,-0.387729 1.765972,-1.044465 2.197926,-1.863519 0.431473,-0.81907 0.588713,-1.791706 0.588713,-3.019572 v -14.93738 c 0,-1.227871 -0.157111,-2.2005 -0.589182,-3.019577 -0.431961,-0.819044 -1.210679,-1.475769 -2.197957,-1.863506 -1.974588,-0.775518 -4.389712,-0.691323 -7.690184,-0.718432 h -0.01068 -20.99556 z m 0.01569,1.867172 h 20.985334 c 3.301302,0.02774 5.474998,0.111626 6.434941,0.488683 0.481111,0.18897 0.758515,0.397196 1.014434,0.882536 0.2556,0.485321 0.419751,1.257033 0.419751,2.363131 v 14.93738 c 0,1.106092 -0.164218,1.877852 -0.420118,2.36313 -0.256021,0.485321 -0.533316,0.693597 -1.014436,0.88253 -0.959949,0.377005 -3.133632,0.461234 -6.434943,0.488684 H 13.564332 13.5491 C 10.24776,45.69468 8.0689806,45.610739 7.1090072,45.233678 6.6279012,45.044769 6.3556469,44.836419 6.09973,44.351148 5.843772,43.86588 5.6796067,43.09411 5.6796067,41.988018 v -14.93738 c 0,-1.106098 0.1642112,-1.877857 0.4201233,-2.363131 0.2560056,-0.485267 0.5281712,-0.693599 1.0092886,-0.882536 0.9599736,-0.376995 3.1387524,-0.461233 6.4400824,-0.488683 z"
     id="path6189"
     style="isolation:isolate;fill:url(#oomox);stroke-width:2.21309" />
  <path
     class="ColorScheme-Text"
     d="m 10.272845,27.324471 a 0.7516375,0.87538997 0 0 0 -0.4109902,1.58307 l 2.2047762,1.924976 -2.2047762,1.924981 a 0.75273632,0.87666975 0 1 0 0.9042212,1.401851 l 3.006246,-2.625906 a 0.7516375,0.87538997 0 0 0 0,-1.401842 l -3.006246,-2.625914 a 0.7516375,0.87538997 0 0 0 -0.493208,-0.181205 z"
     id="path6191"
     style="isolation:isolate;fill:url(#oomox);stroke-width:1.62222" />
  <path
     class="ColorScheme-Text"
     d="m 15.391641,32.58491 h 3.394685 c 0.308777,0 0.55734,0.289506 0.55734,0.649099 v 0.452424 c 0,0.359607 -0.248572,0.649104 -0.55734,0.649104 h -3.394685 c -0.308777,0 -0.557346,-0.289512 -0.557346,-0.649104 v -0.452424 c 0,-0.359609 0.248584,-0.649099 0.557346,-0.649099 z"
     id="path6193"
     style="isolation:isolate;fill:url(#oomox);stroke-width:1.62222" />
  <path
     d="M 10.37325,0.47141691 C 10.142799,0.54825216 9.8777369,0.74031246 9.7567415,0.91698445 8.9961744,2.0309189 9.9123291,6.2407972 11.709999,9.8975725 c 0.339955,0.6991085 0.466712,1.2675755 0.380271,1.7208355 -0.07484,0.37646 -0.218966,0.37646 -0.587717,0.0079 C 11.093452,11.218767 9.8143402,10.381415 9.1517234,10.081817 7.6248319,9.4057787 6.0633681,9.2905369 4.6690086,9.759196 c -0.5877068,0.192058 -0.5473732,0.322621 0.144055,0.499341 2.5697873,0.637633 4.8572366,1.774618 6.6722224,3.303365 0.380271,0.314958 0.581941,0.706762 0.587698,1.106252 0,0.238176 -0.0634,0.222783 -0.541604,-0.122894 C 10.551868,13.823089 9.1459721,13.131686 7.9820806,12.801363 7.1408602,12.563193 5.7752929,12.47874 4.9571133,12.609298 c -1.0198512,0.17668 -2.2125485,0.66833 -3.111395,1.305952 l -0.3457215,0.238176 0.8930989,-0.054 c 2.4487783,-0.15367 4.2003764,0.03076 6.0211142,0.637639 0.6107615,0.20745 1.7573641,0.69908 1.8265131,0.791277 0.02308,0.03076 -0.144055,0.153615 -0.3745039,0.268892 -0.4033332,0.215117 -0.4263503,0.215117 -0.944941,0.130617 -0.6510945,-0.10756 -2.1549313,-0.10756 -2.6965441,-0.0079 -1.307941,0.253509 -2.3796429,0.92188 -3.0192059,1.889846 -0.213197,0.322675 -0.2995936,0.568496 -0.201667,0.568496 0.023084,0 0.3687373,-0.09989 0.7663185,-0.230452 1.2964234,-0.407177 2.0454589,-0.545452 3.1690166,-0.591542 0.714473,-0.03076 1.048658,-0.02324 1.0256127,0.03076 -0.023084,0.04594 -0.1843681,0.115226 -0.3687843,0.169004 -0.9045985,0.238191 -1.6709173,1.075551 -1.9186832,2.097288 l -0.063376,0.291953 -1.3367472,0.01518 -1.3367429,0.02324 -0.017066,0.391788 c -0.017066,0.353399 -0.00608,0.399511 0.1152252,0.445569 0.074909,0.02324 0.6683783,0.04594 1.3194546,0.04594 h 1.1927061 l 0.069139,0.361065 c 0.1094595,0.606907 0.2535145,0.960287 0.5704185,1.421227 0.5416168,0.783599 1.3597975,1.152357 2.1952653,0.975657 0.230451,-0.04594 0.478234,-0.06138 0.5646529,-0.03076 0.080681,0.02324 0.2881089,0.215117 0.4551799,0.422511 0.3802694,0.468647 0.8066662,0.737521 1.3309842,0.85276 0.749058,0.169005 1.53266,-0.215116 1.9936,-0.960287 0.241988,-0.399506 0.368743,-0.468621 1.071709,-0.583865 0.939176,-0.161337 1.480791,-0.453234 1.959019,-1.044775 0.253517,-0.315007 0.576189,-1.037116 0.576189,-1.290641 0,-0.06138 0.05757,-0.12289 0.132515,-0.138226 0.06922,-0.01518 3.520486,-0.01518 7.663235,0 l 7.536484,0.01518 0.08644,0.291953 c 0.38027,1.28294 1.135091,1.935936 2.50063,2.166394 0.71448,0.115226 0.795143,0.161339 1.146618,0.660676 0.518576,0.729833 1.123561,0.998713 1.924463,0.868112 0.501283,-0.08446 0.939174,-0.361065 1.348269,-0.860424 l 0.322656,-0.399506 0.783615,0.02324 c 0.656845,0.02324 0.835465,0 1.106265,-0.122892 0.812427,-0.376453 1.469266,-1.329039 1.584505,-2.304692 l 0.0401,-0.322676 h 1.273367 c 0.69718,0 1.330998,-0.02324 1.405891,-0.04594 0.10945,-0.03832 0.126781,-0.09989 0.126781,-0.414845 0,-0.261227 -0.02317,-0.38412 -0.09225,-0.414842 -0.05183,-0.02324 -0.697168,-0.04594 -1.434695,-0.04594 h -1.342507 l -0.172833,-0.399439 c -0.35725,-0.845044 -1.083221,-1.597904 -1.826506,-1.905194 -0.224742,-0.09218 -0.443651,-0.184395 -0.489762,-0.207449 -0.05181,-0.03076 -0.01151,-0.06919 0.115234,-0.115226 0.132528,-0.05399 0.518569,-0.04594 1.152373,0.0079 1.221508,0.115227 1.959024,0.261232 2.950055,0.591541 1.088993,0.368731 1.158126,0.284229 0.478229,-0.568492 -0.524317,-0.65298 -1.227271,-1.144667 -2.074258,-1.45194 -0.570419,-0.207449 -0.593466,-0.215116 -2.391164,-0.215116 -1.630604,0 -1.849553,-0.01518 -2.143399,-0.153624 -0.184376,-0.07685 -0.334192,-0.168997 -0.334192,-0.192056 0,-0.07685 1.457755,-0.668372 2.172213,-0.883472 1.457762,-0.445569 2.114608,-0.530069 3.877733,-0.537737 0.904594,0 1.895644,0.03076 2.206792,0.06138 0.489741,0.06138 0.553133,0.054 0.524324,-0.04594 -0.0401,-0.153677 -0.893102,-0.737509 -1.440463,-0.998716 -0.927669,-0.445567 -1.498078,-0.553097 -2.87517,-0.553097 -1.319453,0 -1.659413,0.04594 -2.685008,0.391793 -1.048663,0.345722 -2.477595,1.129275 -3.099875,1.705458 -0.299605,0.268886 -0.409098,0.245833 -0.409098,-0.09989 0,-0.453238 0.201665,-0.714464 1.088998,-1.390506 1.866832,-1.43657 3.987191,-2.427587 6.217024,-2.919249 0.397566,-0.09219 0.587708,-0.161347 0.587708,-0.230452 0,-0.2304545 -1.330989,-0.5684905 -2.258648,-0.5684905 -1.624843,0 -3.434064,0.7528565 -4.932141,2.0434865 -0.259262,0.230453 -0.512804,0.414841 -0.558899,0.414841 -0.115233,0 -0.218922,-0.583839 -0.178617,-0.991011 0.02317,-0.245836 0.155603,-0.583852 0.472473,-1.2291595 0.783612,-1.6056097 1.578731,-3.9410209 1.930222,-5.6925681 0.103691,-0.5147345 0.132524,-0.8604111 0.138284,-1.6516874 0,-0.914202 -0.01154,-1.0217547 -0.138284,-1.2906287 -0.2132,-0.46095594 -0.501283,-0.6145933 -1.244559,-0.6530056 -0.541619,-0.0232166 -0.760561,0 -1.498077,0.20739532 C 34.238714,0.99383505 33.253444,1.4624854 31.755371,2.445822 31.225281,2.79922 30.954465,2.9375014 30.787384,2.9375014 30.649104,2.9375014 30.25152,2.7761635 29.76178,2.51499 26.990325,1.0552602 24.288021,0.68652267 21.320692,1.362568 20.289325,1.5930189 19.275231,1.9848182 18.295725,2.530271 17.86933,2.7607223 17.431445,2.9758388 17.327729,2.9912276 17.177905,3.0220042 16.993542,2.9372326 16.405839,2.530271 14.913511,1.5085224 13.092769,0.69420063 11.842454,0.48676767 11.300846,0.39459825 10.638232,0.38687691 10.373186,0.47164931 Z m 9.725985,9.64894609 c 1.06595,0.368738 1.953259,1.51342 2.264386,2.919251 0.120992,0.545443 0.132527,1.674753 0.02868,2.189466 -0.541616,2.55051 -2.673481,3.802737 -4.453887,2.604304 -0.991041,-0.668362 -1.665154,-2.143379 -1.67093,-3.649103 0,-1.144667 0.305367,-2.112614 0.933415,-2.949968 0.610752,-0.814327 1.307931,-1.213818 2.131882,-1.221497 0.241977,-0.0079 0.587707,0.04594 0.766319,0.10756 z m 9.345694,0 c 1.054423,0.368738 1.98208,1.59793 2.275926,3.034489 0.109517,0.514732 0.09796,1.574872 -0.02317,2.112642 -0.38027,1.728514 -1.46927,2.903901 -2.800254,3.011465 -1.135,0.09216 -2.143333,-0.560818 -2.759845,-1.789984 -0.38027,-0.76055 -0.535852,-1.405868 -0.541612,-2.297016 -0.01751,-2.673408 1.930224,-4.7322774 3.848903,-4.071596 z m -4.407807,9.241791 c 0.345722,0.122946 0.386033,0.153666 0.501288,0.453287 l 0.126755,0.330342 h -1.607549 c -1.088981,0 -1.613323,-0.02324 -1.613323,-0.07685 0,-0.192062 0.178602,-0.522403 0.328424,-0.6069 0.472472,-0.253507 1.653653,-0.307285 2.264405,-0.0999 z"
     id="path283"
     class="ColorScheme-Text"
     style="isolation:isolate;fill:url(#oomox);fill-opacity:1;stroke-width:1.03634;stroke-miterlimit:4;stroke-dasharray:none" />
  <path
     d="m 19.200402,13.230573 c -0.478238,0.69906 -0.437884,3.710542 0.04618,4.133072 0.322658,0.284228 0.535848,-0.268896 0.604991,-1.544141 0.08066,-1.613285 -0.126758,-2.727228 -0.507039,-2.727228 -0.02868,0 -0.0922,0.06138 -0.144051,0.138286 z"
     id="path285"
     class="ColorScheme-Text"
     style="isolation:isolate;fill:url(#oomox);fill-opacity:1;stroke-width:1.03634;stroke-miterlimit:4;stroke-dasharray:none" />
  <path
     d="m 28.56534,13.238241 c -0.230497,0.307283 -0.391803,1.751583 -0.293876,2.673446 0.126751,1.275249 0.288058,1.65938 0.599234,1.475002 0.265044,-0.161339 0.380271,-0.806646 0.380271,-2.112635 0,-1.229166 -0.138286,-1.982042 -0.380271,-2.104955 -0.190132,-0.09984 -0.178603,-0.09984 -0.305401,0.06918 z"
     id="path287"
     class="ColorScheme-Text"
     style="isolation:isolate;fill:url(#oomox);fill-opacity:1;stroke-width:1.03634;stroke-miterlimit:4;stroke-dasharray:none" />
</svg>
