<?xml version="1.0" encoding="UTF-8" standalone="no"?>
<!-- Generator: Adobe Illustrator 24.1.2, SVG Export Plug-In . SVG Version: 6.00 Build 0)  -->

<svg
   version="1.1"
   id="Layer_1"
   x="0px"
   y="0px"
   viewBox="0 0 48 48"
   xml:space="preserve"
   width="48"
   height="48"
   xmlns:xlink="http://www.w3.org/1999/xlink"
   xmlns="http://www.w3.org/2000/svg"
   xmlns:svg="http://www.w3.org/2000/svg"
   xmlns:rdf="http://www.w3.org/1999/02/22-rdf-syntax-ns#"
   xmlns:cc="http://creativecommons.org/ns#"
   xmlns:dc="http://purl.org/dc/elements/1.1/">
  <defs
   id="defs11">
   <style
       id="current-color-scheme"
       type="text/css">
      .ColorScheme-Text { color: #0abdc6; } .ColorScheme-Highlight { color:#5294e2; }
     </style>
    <linearGradient
       id="arrongin"
       x1="0%"
       x2="0%"
       y1="0%"
       y2="100%">
      <stop
         offset="0%"
         style="stop-color:#dd9b44; stop-opacity:1"
         id="stop9192" />
      <stop
         offset="100%"
         style="stop-color:#ad6c16; stop-opacity:1"
         id="stop9194" />
    </linearGradient>
    <linearGradient
       id="aurora"
       x1="0%"
       x2="0%"
       y1="0%"
       y2="100%">
      <stop
         offset="0%"
         style="stop-color:#09D4DF; stop-opacity:1"
         id="stop9197" />
      <stop
         offset="100%"
         style="stop-color:#9269F4; stop-opacity:1"
         id="stop9199" />
    </linearGradient>
    <linearGradient
       id="cyberneon"
       x1="0%"
       x2="0%"
       y1="0%"
       y2="100%">
      <stop
         offset="0"
         style="stop-color:#0abdc6; stop-opacity:1"
         id="stop9202" />
      <stop
         offset="1"
         style="stop-color:#ea00d9; stop-opacity:1"
         id="stop9204" />
    </linearGradient>
    <linearGradient
       id="fitdance"
       x1="0%"
       x2="0%"
       y1="0%"
       y2="100%">
      <stop
         offset="0%"
         style="stop-color:#1AD6AB; stop-opacity:1"
         id="stop9207" />
      <stop
         offset="100%"
         style="stop-color:#329DB6; stop-opacity:1"
         id="stop9209" />
    </linearGradient>
    <linearGradient
       id="oomox"
       x1="0%"
       x2="0%"
       y1="0%"
       y2="100%">
      <stop
         offset="0%"
         style="stop-color:#0abdc6; stop-opacity:1"
         id="stop9212" />
      <stop
         offset="100%"
         style="stop-color:#b800ff; stop-opacity:1"
         id="stop9214" />
    </linearGradient>
    <linearGradient
       id="rainblue"
       x1="0%"
       x2="0%"
       y1="0%"
       y2="100%">
      <stop
         offset="0%"
         style="stop-color:#00F260; stop-opacity:1"
         id="stop9217" />
      <stop
         offset="100%"
         style="stop-color:#0575E6; stop-opacity:1"
         id="stop9219" />
    </linearGradient>
    <linearGradient
       id="sunrise"
       x1="0%"
       x2="0%"
       y1="0%"
       y2="100%">
      <stop
         offset="0%"
         style="stop-color: #FF8501; stop-opacity:1"
         id="stop9222" />
      <stop
         offset="100%"
         style="stop-color: #FFCB01; stop-opacity:1"
         id="stop9224" />
    </linearGradient>
    <linearGradient
       id="telinkrin"
       x1="0%"
       x2="0%"
       y1="0%"
       y2="100%">
      <stop
         offset="0%"
         style="stop-color: #b2ced6; stop-opacity:1"
         id="stop9227" />
      <stop
         offset="100%"
         style="stop-color: #6da5b7; stop-opacity:1"
         id="stop9229" />
    </linearGradient>
    <linearGradient
       id="60spsycho"
       x1="0%"
       x2="0%"
       y1="0%"
       y2="100%">
      <stop
         offset="0%"
         style="stop-color: #df5940; stop-opacity:1"
         id="stop9232" />
      <stop
         offset="25%"
         style="stop-color: #d8d15f; stop-opacity:1"
         id="stop9234" />
      <stop
         offset="50%"
         style="stop-color: #e9882a; stop-opacity:1"
         id="stop9236" />
      <stop
         offset="100%"
         style="stop-color: #279362; stop-opacity:1"
         id="stop9238" />
    </linearGradient>
    <linearGradient
       id="90ssummer"
       x1="0%"
       x2="0%"
       y1="0%"
       y2="100%">
      <stop
         offset="0%"
         style="stop-color: #f618c7; stop-opacity:1"
         id="stop9241" />
      <stop
         offset="20%"
         style="stop-color: #94ffab; stop-opacity:1"
         id="stop9243" />
      <stop
         offset="50%"
         style="stop-color: #fbfd54; stop-opacity:1"
         id="stop9245" />
      <stop
         offset="100%"
         style="stop-color: #0f83ae; stop-opacity:1"
         id="stop9247" />
    </linearGradient>
  </defs>

<path
   style="stroke-width:0.0436448;fill-opacity:1.0;fill:url(#oomox)"
   d="M 47.43752,29.938764 C 47.075268,28.350094 44.447853,23.771758 39.075182,19.70843 38.093175,18.962104 37.207186,18.342349 36.469589,17.849163 37.54325,13.253369 31.961085,7.7104828 26.514217,10.32044 22.603646,6.6411859 18.243534,5.1398059 14.232579,5.2009085 3.6138065,5.3493008 -4.5783165,16.41325 4.2335623,26.970919 c 0.00436,0.0044 0.00873,0.0087 0.017458,0.01746 0.1352988,0.161486 0.274962,0.322972 0.4146253,0.484457 0.5717466,0.685223 0.9514561,1.291885 1.2744274,2.361182 l 2.6274151,8.611113 H 7.6378544 c -0.8554375,0 -1.5537538,0.693952 -1.5537538,1.553754 h 3.5264973 l 5.9269601,2.801994 c 0.366616,-0.776877 0.03492,-1.702146 -0.737597,-2.064397 l -1.553753,-0.733233 h 4.469224 c 0,-0.855437 -0.693952,-1.553753 -1.553754,-1.553753 h -4.050234 c -0.707046,0 -1.33553,-0.462635 -1.540661,-1.139129 L 8.4889274,30.47123 c -0.5193728,-1.798165 0.6721294,-2.972209 1.7938006,-3.111872 1.021287,-0.12657 1.536296,0.532466 2.016388,2.129865 l 1.850538,6.066622 h -0.929633 c -0.855438,0 -1.553754,0.693952 -1.553754,1.553754 h 3.526497 l 5.92696,2.801994 c 0.366616,-0.776876 0.03492,-1.702146 -0.737597,-2.064397 l -1.553753,-0.733232 h 3.277722 c 0.3317,0.563017 0.737596,1.095483 1.222053,1.575576 3.055134,3.055134 8.017544,3.055134 11.072678,0 3.055134,-3.055134 3.055134,-8.017544 0,-11.072678 -3.055134,-3.055134 -8.017544,-3.055134 -11.072678,0 -2.147322,2.147323 -2.788901,5.237372 -1.916005,7.943348 h -3.709806 c -0.707045,0 -1.335529,-0.462635 -1.54066,-1.139129 l -3.072592,-10.099399 0.523738,-0.279327 c 7.293041,-3.059498 15.092361,2.404827 20.52177,-2.845638 0.01309,-0.01309 0.02619,-0.02619 0.03492,-0.03492 0.672129,-0.611027 1.344259,-1.235147 3.330096,0.0087 2.138593,1.339894 6.856593,4.83584 8.995187,10.815173 0.0044,0 1.300614,-0.462634 0.942727,-2.046939 z M 32.432448,16.692576 c -0.01746,-0.816157 -0.680858,-1.470828 -1.505745,-1.470828 -0.82925,0 -1.505744,0.672129 -1.505744,1.505744 0,0.453906 0.200766,0.855438 0.515008,1.1304 -1.091119,-0.209495 -1.911641,-1.160951 -1.911641,-2.308809 0,-1.300614 1.051839,-2.352453 2.352453,-2.352453 1.300615,0 2.352453,1.051839 2.352453,2.352453 0,0.414626 -0.109111,0.803064 -0.296784,1.143493 z"
   id="path6"
   class="ColorScheme-Text"/>
<metadata
   id="metadata294"><rdf:RDF><cc:Work
       rdf:about=""><dc:contributor><cc:Agent><dc:title>dreifacherspass</dc:title></cc:Agent></dc:contributor><cc:license
         rdf:resource="http://creativecommons.org/licenses/by-sa/4.0/" /></cc:Work><cc:License
       rdf:about="http://creativecommons.org/licenses/by-sa/4.0/"><cc:permits
         rdf:resource="http://creativecommons.org/ns#Reproduction" /><cc:permits
         rdf:resource="http://creativecommons.org/ns#Distribution" /><cc:requires
         rdf:resource="http://creativecommons.org/ns#Notice" /><cc:requires
         rdf:resource="http://creativecommons.org/ns#Attribution" /><cc:permits
         rdf:resource="http://creativecommons.org/ns#DerivativeWorks" /><cc:requires
         rdf:resource="http://creativecommons.org/ns#ShareAlike" /></cc:License></rdf:RDF></metadata></svg>
