<?xml version="1.0" encoding="UTF-8" standalone="no"?>
<!-- Generator: Adobe Illustrator 24.1.2, SVG Export Plug-In . SVG Version: 6.00 Build 0)  -->

<svg
   version="1.1"
   id="Layer_1"
   x="0px"
   y="0px"
   viewBox="0 0 16 16"
   xml:space="preserve"
   width="16"
   height="16"
   xmlns:xlink="http://www.w3.org/1999/xlink"
   xmlns="http://www.w3.org/2000/svg"
   xmlns:svg="http://www.w3.org/2000/svg"
   xmlns:rdf="http://www.w3.org/1999/02/22-rdf-syntax-ns#"
   xmlns:cc="http://creativecommons.org/ns#"
   xmlns:dc="http://purl.org/dc/elements/1.1/">
  <defs>
   <style id="current-color-scheme" type="text/css">
   .ColorScheme-Text { color: #0abdc6; } .ColorScheme-Highlight { color:#5294e2; }
  </style>
  <linearGradient id="arrongin" x1="0%" x2="0%" y1="0%" y2="100%">
   <stop offset="0%" style="stop-color:#dd9b44; stop-opacity:1"/>
   <stop offset="100%" style="stop-color:#ad6c16; stop-opacity:1"/>
  </linearGradient>
  <linearGradient id="aurora" x1="0%" x2="0%" y1="0%" y2="100%">
   <stop offset="0%" style="stop-color:#09D4DF; stop-opacity:1"/>
   <stop offset="100%" style="stop-color:#9269F4; stop-opacity:1"/>
  </linearGradient>
  <linearGradient id="cyberneon" x1="0%" x2="0%" y1="0%" y2="100%">
    <stop offset="0" style="stop-color:#0abdc6; stop-opacity:1"/>
    <stop offset="1" style="stop-color:#ea00d9; stop-opacity:1"/>
  </linearGradient>
  <linearGradient id="fitdance" x1="0%" x2="0%" y1="0%" y2="100%">
   <stop offset="0%" style="stop-color:#1AD6AB; stop-opacity:1"/>
   <stop offset="100%" style="stop-color:#329DB6; stop-opacity:1"/>
  </linearGradient>
  <linearGradient id="oomox" x1="0%" x2="0%" y1="0%" y2="100%">
   <stop offset="0%" style="stop-color:#0abdc6; stop-opacity:1"/>
   <stop offset="100%" style="stop-color:#b800ff; stop-opacity:1"/>
  </linearGradient>
  <linearGradient id="rainblue" x1="0%" x2="0%" y1="0%" y2="100%">
   <stop offset="0%" style="stop-color:#00F260; stop-opacity:1"/>
   <stop offset="100%" style="stop-color:#0575E6; stop-opacity:1"/>
  </linearGradient>
  <linearGradient id="sunrise" x1="0%" x2="0%" y1="0%" y2="100%">
   <stop offset="0%" style="stop-color: #FF8501; stop-opacity:1"/>
   <stop offset="100%" style="stop-color: #FFCB01; stop-opacity:1"/>
  </linearGradient>
  <linearGradient id="telinkrin" x1="0%" x2="0%" y1="0%" y2="100%">
   <stop offset="0%" style="stop-color: #b2ced6; stop-opacity:1"/>
   <stop offset="100%" style="stop-color: #6da5b7; stop-opacity:1"/>
  </linearGradient>
  <linearGradient id="60spsycho" x1="0%" x2="0%" y1="0%" y2="100%">
   <stop offset="0%" style="stop-color: #df5940; stop-opacity:1"/>
   <stop offset="25%" style="stop-color: #d8d15f; stop-opacity:1"/>
   <stop offset="50%" style="stop-color: #e9882a; stop-opacity:1"/>
   <stop offset="100%" style="stop-color: #279362; stop-opacity:1"/>
  </linearGradient>
  <linearGradient id="90ssummer" x1="0%" x2="0%" y1="0%" y2="100%">
   <stop offset="0%" style="stop-color: #f618c7; stop-opacity:1"/>
   <stop offset="20%" style="stop-color: #94ffab; stop-opacity:1"/>
   <stop offset="50%" style="stop-color: #fbfd54; stop-opacity:1"/>
   <stop offset="100%" style="stop-color: #0f83ae; stop-opacity:1"/>
  </linearGradient>
 </defs>
<path
   style="fill:url(#oomox);fill-opacity:1;stroke-width:0.0148583"
   d="M 15.978982,10.021773 C 15.855658,9.480932 14.96119,7.9223001 13.132139,6.5389957 12.797827,6.2849193 12.496204,6.0739322 12.245099,5.9060337 12.610613,4.3414585 10.710241,2.4544588 8.8559296,3.3429829 7.524629,2.0904313 6.0402887,1.579307 4.6748138,1.6001085 c -3.6150159,0.050518 -6.403912,3.8170883 -3.4040285,7.4113023 0.00148,0.0015 0.00297,0.00296 0.00594,0.00594 0.04606,0.054976 0.093607,0.1099514 0.1411535,0.1649268 0.1946433,0.2332748 0.3239103,0.4398046 0.4338614,0.8038321 L 2.7462077,12.917646 H 2.4297266 c -0.291222,0 -0.5289543,0.236245 -0.5289543,0.528955 h 1.200548 L 5.119073,14.4005 C 5.2438855,14.136028 5.1309642,13.821032 4.8679712,13.697709 L 4.3390173,13.44809 h 1.5214862 c 0,-0.291223 -0.2362465,-0.528955 -0.5289543,-0.528955 H 3.9527025 c -0.2407042,0 -0.4546629,-0.157497 -0.524497,-0.3878 L 2.7194661,10.203044 C 2.5426528,9.590883 2.9482833,9.1911959 3.330141,9.1436495 3.6778242,9.1005601 3.853152,9.3249202 4.0165928,9.8687328 L 4.6465832,11.934032 H 4.3301024 c -0.2912222,0 -0.5289543,0.236246 -0.5289543,0.528953 h 1.2005476 l 2.0177524,0.953902 C 7.1442576,13.152409 7.0313362,12.837413 6.7683433,12.71409 L 6.2393894,12.464471 H 7.355245 c 0.1129228,0.191672 0.2511044,0.372942 0.4160312,0.536383 1.0400786,1.040081 2.7294638,1.040081 3.7695418,0 1.040078,-1.040078 1.040078,-2.729462 0,-3.7695409 -1.040078,-1.0400785 -2.7294632,-1.0400785 -3.7695418,0 C 7.0402498,9.9623399 6.821833,11.014305 7.1189986,11.935518 H 5.8560458 c -0.2407038,0 -0.4546626,-0.157498 -0.5244966,-0.387802 L 4.2855273,8.1095143 4.4638267,8.0144212 c 2.4828161,-1.0415643 5.1379879,0.8186904 6.9863553,-0.9687585 0.0045,-0.00446 0.0089,-0.00892 0.01189,-0.011888 0.228819,-0.2080158 0.457635,-0.420489 1.133685,0.00296 0.728056,0.4561485 2.334234,1.6462955 3.062289,3.6818773 0.0015,0 0.442776,-0.157497 0.32094,-0.696852 z M 10.87071,5.5122894 C 10.86481,5.23444 10.638921,5.0115662 10.358099,5.0115662 c -0.282307,0 -0.512609,0.2288171 -0.512609,0.51261 0,0.154526 0.068348,0.2912221 0.175327,0.3848292 C 9.6493609,5.8376854 9.3700255,5.5137756 9.3700255,5.123003 c 0,-0.4427764 0.3580841,-0.8008604 0.8008595,-0.8008604 0.442777,0 0.800862,0.358084 0.800862,0.8008604 0,0.1411537 -0.03714,0.273392 -0.101037,0.3892864 z"
   id="path6"
   class="ColorScheme-Text" />
<metadata
   id="metadata294"><rdf:RDF><cc:Work
       rdf:about=""><cc:license
         rdf:resource="http://creativecommons.org/licenses/by-sa/4.0/" /><dc:creator><cc:Agent><dc:title>dreifacherspass</dc:title></cc:Agent></dc:creator></cc:Work><cc:License
       rdf:about="http://creativecommons.org/licenses/by-sa/4.0/"><cc:permits
         rdf:resource="http://creativecommons.org/ns#Reproduction" /><cc:permits
         rdf:resource="http://creativecommons.org/ns#Distribution" /><cc:requires
         rdf:resource="http://creativecommons.org/ns#Notice" /><cc:requires
         rdf:resource="http://creativecommons.org/ns#Attribution" /><cc:permits
         rdf:resource="http://creativecommons.org/ns#DerivativeWorks" /><cc:requires
         rdf:resource="http://creativecommons.org/ns#ShareAlike" /></cc:License></rdf:RDF></metadata><circle
   style="opacity:1;fill:url(#oomox);stroke-width:1.07931"
   id="path1"
   class="ColorScheme-Text"
   cx="9.650835"
   cy="11.109115"
   r="2.6675224" /></svg>
