<?xml version="1.0" encoding="UTF-8" standalone="no"?>
<svg
   version="1.0"
   width="16pt"
   height="16pt"
   viewBox="0 0 16 16"
   preserveAspectRatio="xMidYMid"
   id="svg1571"
   xmlns:xlink="http://www.w3.org/1999/xlink"
   xmlns="http://www.w3.org/2000/svg"
   xmlns:svg="http://www.w3.org/2000/svg"
   xmlns:rdf="http://www.w3.org/1999/02/22-rdf-syntax-ns#"
   xmlns:cc="http://creativecommons.org/ns#"
   xmlns:dc="http://purl.org/dc/elements/1.1/">
  <defs>
   <style id="current-color-scheme" type="text/css">
   .ColorScheme-Text { color: #0abdc6; } .ColorScheme-Highlight { color:#5294e2; }
  </style>
  <linearGradient id="arrongin" x1="0%" x2="0%" y1="0%" y2="100%">
   <stop offset="0%" style="stop-color:#dd9b44; stop-opacity:1"/>
   <stop offset="100%" style="stop-color:#ad6c16; stop-opacity:1"/>
  </linearGradient>
  <linearGradient id="aurora" x1="0%" x2="0%" y1="0%" y2="100%">
   <stop offset="0%" style="stop-color:#09D4DF; stop-opacity:1"/>
   <stop offset="100%" style="stop-color:#9269F4; stop-opacity:1"/>
  </linearGradient>
  <linearGradient id="cyberneon" x1="0%" x2="0%" y1="0%" y2="100%">
    <stop offset="0" style="stop-color:#0abdc6; stop-opacity:1"/>
    <stop offset="1" style="stop-color:#ea00d9; stop-opacity:1"/>
  </linearGradient>
  <linearGradient id="fitdance" x1="0%" x2="0%" y1="0%" y2="100%">
   <stop offset="0%" style="stop-color:#1AD6AB; stop-opacity:1"/>
   <stop offset="100%" style="stop-color:#329DB6; stop-opacity:1"/>
  </linearGradient>
  <linearGradient id="oomox" x1="0%" x2="0%" y1="0%" y2="100%">
   <stop offset="0%" style="stop-color:#0abdc6; stop-opacity:1"/>
   <stop offset="100%" style="stop-color:#b800ff; stop-opacity:1"/>
  </linearGradient>
  <linearGradient id="rainblue" x1="0%" x2="0%" y1="0%" y2="100%">
   <stop offset="0%" style="stop-color:#00F260; stop-opacity:1"/>
   <stop offset="100%" style="stop-color:#0575E6; stop-opacity:1"/>
  </linearGradient>
  <linearGradient id="sunrise" x1="0%" x2="0%" y1="0%" y2="100%">
   <stop offset="0%" style="stop-color: #FF8501; stop-opacity:1"/>
   <stop offset="100%" style="stop-color: #FFCB01; stop-opacity:1"/>
  </linearGradient>
  <linearGradient id="telinkrin" x1="0%" x2="0%" y1="0%" y2="100%">
   <stop offset="0%" style="stop-color: #b2ced6; stop-opacity:1"/>
   <stop offset="100%" style="stop-color: #6da5b7; stop-opacity:1"/>
  </linearGradient>
  <linearGradient id="60spsycho" x1="0%" x2="0%" y1="0%" y2="100%">
   <stop offset="0%" style="stop-color: #df5940; stop-opacity:1"/>
   <stop offset="25%" style="stop-color: #d8d15f; stop-opacity:1"/>
   <stop offset="50%" style="stop-color: #e9882a; stop-opacity:1"/>
   <stop offset="100%" style="stop-color: #279362; stop-opacity:1"/>
  </linearGradient>
  <linearGradient id="90ssummer" x1="0%" x2="0%" y1="0%" y2="100%">
   <stop offset="0%" style="stop-color: #f618c7; stop-opacity:1"/>
   <stop offset="20%" style="stop-color: #94ffab; stop-opacity:1"/>
   <stop offset="50%" style="stop-color: #fbfd54; stop-opacity:1"/>
   <stop offset="100%" style="stop-color: #0f83ae; stop-opacity:1"/>
  </linearGradient>
 </defs>
   <metadata
     id="metadata8">
    <rdf:RDF>
      <cc:Work
         rdf:about="">
        <dc:creator>
          <cc:Agent>
            <dc:title>dreifacherspass</dc:title>
          </cc:Agent>
        </dc:creator>
        <cc:license
           rdf:resource="http://creativecommons.org/licenses/by-sa/4.0/" />
      </cc:Work>
      <cc:License
         rdf:about="http://creativecommons.org/licenses/by-sa/4.0/">
        <cc:permits
           rdf:resource="http://creativecommons.org/ns#Reproduction" />
        <cc:permits
           rdf:resource="http://creativecommons.org/ns#Distribution" />
        <cc:requires
           rdf:resource="http://creativecommons.org/ns#Notice" />
        <cc:requires
           rdf:resource="http://creativecommons.org/ns#Attribution" />
        <cc:permits
           rdf:resource="http://creativecommons.org/ns#DerivativeWorks" />
        <cc:requires
           rdf:resource="http://creativecommons.org/ns#ShareAlike" />
      </cc:License>
    </rdf:RDF>
  </metadata>
  <path
     id="path155-0-1-1"
     style="fill:url(#oomox);fill-opacity:1;stroke-width:0.0010339"
     class="ColorScheme-Text"
     d="m 10.793185,8.8127577 c -0.217907,0.022669 -0.338779,0.132132 -0.363529,0.3281237 -0.0051,0.043306 -0.04063,0.7220273 -0.07779,1.5079736 -0.07201,1.54195 -0.07217,1.495577 -0.01945,1.59873 0.04661,0.09179 0.141997,0.158599 0.2623,0.184507 0.07665,0.01663 4.247028,0.01663 4.325947,0 0.163787,-0.03404 0.268494,-0.139294 0.298703,-0.300198 0.0082,-0.04124 -0.0066,-0.405226 -0.05635,-1.483039 -0.03737,-0.7859463 -0.07073,-1.4617896 -0.0768,-1.5019896 -0.02458,-0.1939165 -0.148717,-0.3115753 -0.350061,-0.3331106 l -5.11e-4,-9.872e-4 c -0.119882,-0.011449 -3.822168,-0.012265 -3.942471,0 z m 0.837763,0.3530571 h 0.35954 l 0.18351,1.8465692 c 0.01362,0.111659 0.02348,0.224712 0.02892,0.339094 0.0082,0.114383 0.0107,0.220607 0.008,0.318649 h 0.008 c 0.04085,-0.09804 0.08738,-0.200469 0.139129,-0.306681 0.05175,-0.108935 0.11017,-0.227052 0.175531,-0.355052 l 0.947969,-1.8425792 h 0.40442 l -1.552356,2.9167112 h -0.388462 z m 3.666709,0.069813 c -0.0021,0 -0.0025,0.017678 -0.0025,0.038398 0.0027,0.021631 0.01105,0.1730768 0.01945,0.3380971 0.02897,0.5528331 0.09958,1.8630201 0.124169,2.3312741 l 0.02743,0.46426 0.16456,0.809339 c 0.09047,0.445593 0.16157,0.810113 0.16157,0.81283 -0.0021,0.0021 -0.01735,-0.03296 -0.03391,-0.07729 -0.125365,-0.322832 -0.409487,-1.02856 -0.425863,-1.064657 -0.03422,-0.06601 -0.0885,-0.119386 -0.149601,-0.14611 l -0.05386,-0.02493 h -2.373163 -2.37366 l -0.05386,0.02493 c -0.06233,0.02787 -0.115824,0.08142 -0.151097,0.152593 -0.01449,0.02682 -0.120317,0.288561 -0.2353716,0.58045 -0.2065933,0.52079 -0.2335893,0.590202 -0.2229047,0.536567 0.00337,-0.01446 0.077824,-0.385917 0.1670543,-0.825296 l 0.160572,-0.799366 0.02992,-0.561999 c 0.03023,-0.543535 0.06948,-1.28597 0.114196,-2.1183426 0.01304,-0.2207097 0.01895,-0.4168046 0.01895,-0.4353376 -0.0019,-0.025791 -0.05051,0.083158 -0.2174192,0.4936815 l -0.2154249,0.5280897 -0.1371338,1.77127 -0.1356383,1.770771 0.018951,0.09076 c 0.030863,0.157833 0.1127067,0.27361 0.240358,0.339593 0.1251321,0.06503 -0.099414,0.06084 2.9994912,0.06084 h 2.834929 l 0.07031,-0.02393 c 0.188748,-0.06498 0.298235,-0.201091 0.329122,-0.408409 0.01047,-0.06395 -0.0051,-0.289952 -0.124169,-1.837094 L 15.736467,10.292819 15.52204,9.7647293 h -0.0045 C 15.399158,9.473865 15.299875,9.2356283 15.297658,9.2356283 Z" />
  <path
     id="path156-1-0-0"
     style="fill:url(#oomox);fill-opacity:1;stroke-width:0.0010339"
     class="ColorScheme-Text"
     d="m 3.2767578,8.8127577 c -0.2179071,0.022669 -0.3387787,0.132132 -0.3635294,0.3281237 -0.00506,0.043306 -0.04063,0.7220269 -0.077792,1.5079736 -0.072014,1.54195 -0.07217,1.495078 -0.019448,1.598231 0.04661,0.09179 0.1419979,0.159098 0.262299,0.185006 0.076657,0.01663 4.2470292,0.01663 4.3259481,0 0.1637869,-0.03404 0.2684936,-0.139294 0.2987029,-0.300198 0.00819,-0.04124 -0.00659,-0.405226 -0.05635,-1.483039 C 7.6092163,9.8629083 7.5758581,9.1870654 7.5697931,9.1468654 7.5452043,8.9529489 7.4210727,8.8352901 7.2197281,8.8137552 l -5.107e-4,-9.873e-4 c -0.1198817,-0.011448 -3.8221683,-0.012265 -3.9424715,0 z m 4.5044704,0.4228706 c -0.00214,0 -0.00249,0.017178 -0.00249,0.037899 0.00272,0.021631 0.01105,0.1735752 0.019448,0.3385955 0.028974,0.5528332 0.099581,1.8625212 0.124168,2.3307762 l 0.027428,0.46426 0.1645601,0.809837 c 0.090466,0.445593 0.161568,0.809615 0.161568,0.812331 -0.00211,0.0021 -0.017348,-0.03296 -0.03391,-0.07729 C 8.1166418,13.629201 7.8325196,12.923972 7.8161432,12.887875 7.7819214,12.821863 7.7276397,12.76799 7.6665434,12.741267 l -0.053857,-0.02493 H 5.2390172 2.8658546 l -0.053856,0.02493 c -0.062332,0.02787 -0.1158241,0.08142 -0.1510968,0.152592 -0.014487,0.02682 -0.1203167,0.28906 -0.2353711,0.580949 -0.2065933,0.52079 -0.2335893,0.589703 -0.2229051,0.536068 0.00336,-0.01446 0.077825,-0.385418 0.1670546,-0.824797 L 2.530251,12.386713 2.560171,11.824215 C 2.5904036,11.28068 2.6296474,10.538246 2.6743665,9.7058727 2.6874078,9.485163 2.6933155,9.2890681 2.6933155,9.2705351 2.6914262,9.2447445 2.6428086,9.3541913 2.475896,9.7647157 l -0.2154239,0.5280893 -0.1371346,1.770771 -0.1356377,1.77127 0.01895,0.09076 c 0.030864,0.157833 0.1127066,0.273111 0.2403579,0.339095 0.1251322,0.06503 -0.099415,0.06084 2.9994899,0.06084 h 2.8349295 l 0.070312,-0.02344 c 0.1887478,-0.06498 0.2982347,-0.20159 0.3291214,-0.408908 0.010475,-0.06395 -0.00512,-0.289453 -0.1241687,-1.836596 L 8.2200566,10.292805 8.0056291,9.764715 h -0.00449 C 7.8827291,9.473864 7.7834461,9.2356276 7.7812293,9.2356276 Z M 5.2908791,9.4884532 c 0.1443393,0 0.2611912,0.03794 0.3510626,0.114195 0.089871,0.076255 0.1568899,0.1650251 0.2004642,0.2657903 h 0.020446 L 5.9935029,9.529344 H 6.2672714 L 5.8015152,11.718996 H 5.5152803 l 0.053357,-0.404419 h -0.016456 c -0.092596,0.119829 -0.2013528,0.224788 -0.3266279,0.314659 -0.1252768,0.08715 -0.2643785,0.130652 -0.4168866,0.130652 -0.1742979,0 -0.3171964,-0.06272 -0.4288549,-0.187998 -0.1089354,-0.128 -0.1635636,-0.314401 -0.1635636,-0.559506 0,-0.204254 0.026049,-0.397983 0.077792,-0.58045 0.054468,-0.18519 0.1295812,-0.347309 0.2249003,-0.4862018 C 4.6142587,9.804116 4.7273119,9.6928273 4.8580345,9.6111258 4.9887574,9.529424 5.1329213,9.4884532 5.2908791,9.4884532 Z m 0.036902,0.3021929 c -0.1062127,0 -0.2043424,0.034142 -0.2942147,0.1022271 -0.089871,0.065361 -0.168782,0.1566628 -0.2368672,0.2737688 -0.068084,0.114383 -0.1214467,0.244891 -0.1595742,0.391954 -0.035404,0.147063 -0.052858,0.301087 -0.052858,0.461766 0,0.147063 0.029845,0.257086 0.08976,0.330618 0.059915,0.07353 0.1443882,0.110704 0.2533236,0.110704 0.1007659,0 0.1988956,-0.03717 0.2942147,-0.110704 0.098041,-0.07353 0.1863122,-0.172928 0.2652903,-0.298204 0.078979,-0.125276 0.1391678,-0.265144 0.1800191,-0.420377 0.021787,-0.07898 0.034946,-0.151061 0.040392,-0.216422 0.00817,-0.06808 0.012466,-0.130807 0.012466,-0.187998 0,-0.128 -0.035408,-0.2329585 -0.1062165,-0.3146603 C 5.542709,9.8316172 5.4476091,9.7906461 5.3277801,9.7906461 Z" />
  <path
     id="path174-1-0-0"
     style="fill:url(#oomox);fill-opacity:1;stroke-width:0.0010339"
     class="ColorScheme-Text"
     d="m 8.8059921,1.6827979 c -0.2179056,0.02267 -0.3392767,0.1316333 -0.3640276,0.3276251 -0.00506,0.043307 -0.04063,0.7220272 -0.077792,1.5079732 -0.072014,1.5419513 -0.071671,1.4955773 -0.018951,1.5987305 0.046609,0.091787 0.1419971,0.1585989 0.2622999,0.1845072 0.076657,0.016633 4.2470286,0.016633 4.3259476,0 0.163786,-0.034036 0.268493,-0.1387954 0.298702,-0.2996995 0.0082,-0.041245 -0.0066,-0.4057248 -0.05635,-1.4835382 -0.03737,-0.785946 -0.07073,-1.4612905 -0.07679,-1.5014905 C 13.074441,1.8229893 12.950311,1.70533 12.748966,1.6837953 l -5.1e-4,-9.974e-4 c -0.119884,-0.01145 -3.8221695,-0.012265 -3.9424724,0 z m 1.8076729,0.3530572 h 0.36353 l -0.551527,2.5895847 h 1.11951 l -0.06981,0.3271263 H 9.9968124 Z m 2.6963,0.069315 c -0.0021,0 -0.002,0.017678 -0.002,0.038397 0.0027,0.021632 0.01055,0.1730767 0.01895,0.3380972 0.02897,0.552833 0.100078,1.8630199 0.124666,2.3312744 l 0.02693,0.4642603 0.164561,0.8093386 c 0.09047,0.4455925 0.162067,0.8101133 0.162067,0.8128292 -0.0021,0.00208 -0.01784,-0.032956 -0.03441,-0.077293 C 13.645379,6.4992416 13.361757,5.7935139 13.345381,5.757417 13.311161,5.691405 13.256881,5.6380306 13.19578,5.6113073 L 13.14192,5.5863743 H 10.768253 8.3950894 l -0.053856,0.024933 C 8.2789013,5.6391809 8.2254097,5.6927266 8.190137,5.7638994 8.1756486,5.790718 8.0698192,6.052461 7.954765,6.3443493 7.7481727,6.8651392 7.7211764,6.9345513 7.7318609,6.8809165 7.7352309,6.8664585 7.8096849,6.4949993 7.8989146,6.0556205 L 8.0589865,5.256255 8.0894065,4.6942559 c 0.030233,-0.543535 0.069475,-1.28597 0.1141943,-2.118343 0.013042,-0.2207097 0.018951,-0.4168045 0.018951,-0.4353374 -0.00191,-0.02579 -0.050507,0.083157 -0.2174197,0.4936816 L 7.7892095,3.1623469 7.6525744,4.9336167 7.5164381,6.7043878 7.5358861,6.7951458 C 7.5667491,6.9529787 7.6485935,7.0687556 7.776244,7.134739 7.9013762,7.199773 7.676829,7.195577 10.775736,7.195577 h 2.83443 l 0.07031,-0.023935 c 0.188747,-0.06498 0.298732,-0.201091 0.329619,-0.4084094 0.01047,-0.063948 -0.0051,-0.2899516 -0.124168,-1.8370939 L 13.749292,3.1623469 13.534366,2.6342571 h -0.0045 C 13.411465,2.3434064 13.312182,2.10517 13.309965,2.10517 Z" />
  <path
     id="path165-0-1-1"
     style="fill:url(#oomox);fill-opacity:1;stroke-width:0.0010339"
     class="ColorScheme-Text"
     d="m 1.2895643,1.682798 c -0.2179071,0.02267 -0.33927746,0.1321319 -0.36402811,0.3281237 -0.005063,0.043306 -0.0406292,0.7220272 -0.0777915,1.5079732 -0.0720138,1.541951 -0.0716719,1.4955773 -0.0189501,1.5987305 0.0466096,0.091787 0.14199695,0.1585989 0.26229987,0.1845072 0.076657,0.01663 4.2470301,0.01663 4.3259469,0 C 5.5808284,5.268097 5.685535,5.1628385 5.7157443,5.0019344 5.7239315,4.96069 5.7091537,4.5967084 5.6593952,3.5188949 5.6220234,2.7329489 5.5886653,2.0571056 5.5825999,2.0169057 5.5580111,1.8229892 5.4338781,1.7053302 5.2325349,1.6837953 l -5.107e-4,-9.975e-4 c -0.1198834,-0.01145 -3.822169,-0.012265 -3.942472,0 z M 2.6254966,2.0358552 H 2.9890261 L 2.6868335,3.4535692 2.9401562,3.1837897 4.0591684,2.0358552 H 4.5004896 L 3.2338721,3.3184299 3.9245282,4.9525661 H 3.5240974 L 2.956114,3.5393401 2.6170199,3.7886743 2.3721738,4.9525661 H 2.0086444 Z m 3.1680404,0.069813 c -0.00214,0 -0.00201,0.017678 -0.00201,0.038398 0.00272,0.021632 0.010553,0.1730766 0.018948,0.3380971 0.028974,0.552833 0.1000793,1.8630199 0.1246678,2.3312745 l 0.026928,0.4637615 0.16456,0.8098373 c 0.090466,0.4455925 0.1620678,0.810113 0.1620678,0.8128293 -0.00211,0.00208 -0.017845,-0.032957 -0.034408,-0.077294 C 6.1289264,6.49974 5.8448052,5.794012 5.8284288,5.7579154 5.7942059,5.6919034 5.740423,5.638529 5.6793267,5.6118057 L 5.6254709,5.586873 H 3.2518248 0.87866198 L 0.82480528,5.611806 C 0.76247294,5.6396796 0.70898221,5.6932253 0.67370949,5.7643981 0.65922274,5.7912168 0.55339179,6.0529594 0.43833744,6.344848 0.23174419,6.8656379 0.20425033,6.9350501 0.21493465,6.8814152 0.21829123,6.8669574 0.29325715,6.495498 0.38248696,6.0561192 L 0.54255908,5.2567537 0.57297769,4.6947546 c 0.0302325,-0.5435353 0.0694762,-1.2864687 0.11419528,-2.1188417 0.0130413,-0.2207097 0.0189499,-0.4163058 0.0189499,-0.4348388 -0.00189,-0.02579 -0.0505069,0.083157 -0.2174195,0.4936817 L 0.27277984,3.1628456 0.13614486,4.9341154 8.5401933e-6,6.7048865 0.01945619,6.7956443 c 0.03086385,0.1578329 0.1127066,0.2736099 0.24035795,0.3395929 0.12513215,0.065035 -0.0994146,0.060838 2.99948976,0.060838 H 6.093735 L 6.164047,7.1721402 C 6.3527948,7.1071594 6.4627801,6.9710486 6.4936671,6.7637302 6.504142,6.6997818 6.4885403,6.4737783 6.3694991,4.926636 L 6.2328633,3.1628456 6.0179372,2.6347558 h -0.00449 C 5.8950365,2.3439051 5.7957538,2.1056686 5.793537,2.1056687 Z" />
</svg>
