<?xml version="1.0" encoding="UTF-8" standalone="no"?>
<!-- Created with Inkscape (http://www.inkscape.org/) -->

<svg
   width="16"
   height="16"
   viewBox="0 0 4.2333333 4.2333333"
   version="1.1"
   id="svg2773"
   xmlns:xlink="http://www.w3.org/1999/xlink"
   xmlns="http://www.w3.org/2000/svg"
   xmlns:svg="http://www.w3.org/2000/svg"
   xmlns:rdf="http://www.w3.org/1999/02/22-rdf-syntax-ns#"
   xmlns:cc="http://creativecommons.org/ns#"
   xmlns:dc="http://purl.org/dc/elements/1.1/">
 <defs>
   <style id="current-color-scheme" type="text/css">
   .ColorScheme-Text { color: #0abdc6; } .ColorScheme-Highlight { color:#5294e2; }
  </style>
  <linearGradient id="arrongin" x1="0%" x2="0%" y1="0%" y2="100%">
   <stop offset="0%" style="stop-color:#dd9b44; stop-opacity:1"/>
   <stop offset="100%" style="stop-color:#ad6c16; stop-opacity:1"/>
  </linearGradient>
  <linearGradient id="aurora" x1="0%" x2="0%" y1="0%" y2="100%">
   <stop offset="0%" style="stop-color:#09D4DF; stop-opacity:1"/>
   <stop offset="100%" style="stop-color:#9269F4; stop-opacity:1"/>
  </linearGradient>
  <linearGradient id="cyberneon" x1="0%" x2="0%" y1="0%" y2="100%">
    <stop offset="0" style="stop-color:#0abdc6; stop-opacity:1"/>
    <stop offset="1" style="stop-color:#ea00d9; stop-opacity:1"/>
  </linearGradient>
  <linearGradient id="fitdance" x1="0%" x2="0%" y1="0%" y2="100%">
   <stop offset="0%" style="stop-color:#1AD6AB; stop-opacity:1"/>
   <stop offset="100%" style="stop-color:#329DB6; stop-opacity:1"/>
  </linearGradient>
  <linearGradient id="oomox" x1="0%" x2="0%" y1="0%" y2="100%">
   <stop offset="0%" style="stop-color:#0abdc6; stop-opacity:1"/>
   <stop offset="100%" style="stop-color:#b800ff; stop-opacity:1"/>
  </linearGradient>
  <linearGradient id="rainblue" x1="0%" x2="0%" y1="0%" y2="100%">
   <stop offset="0%" style="stop-color:#00F260; stop-opacity:1"/>
   <stop offset="100%" style="stop-color:#0575E6; stop-opacity:1"/>
  </linearGradient>
  <linearGradient id="sunrise" x1="0%" x2="0%" y1="0%" y2="100%">
   <stop offset="0%" style="stop-color: #FF8501; stop-opacity:1"/>
   <stop offset="100%" style="stop-color: #FFCB01; stop-opacity:1"/>
  </linearGradient>
  <linearGradient id="telinkrin" x1="0%" x2="0%" y1="0%" y2="100%">
   <stop offset="0%" style="stop-color: #b2ced6; stop-opacity:1"/>
   <stop offset="100%" style="stop-color: #6da5b7; stop-opacity:1"/>
  </linearGradient>
  <linearGradient id="60spsycho" x1="0%" x2="0%" y1="0%" y2="100%">
   <stop offset="0%" style="stop-color: #df5940; stop-opacity:1"/>
   <stop offset="25%" style="stop-color: #d8d15f; stop-opacity:1"/>
   <stop offset="50%" style="stop-color: #e9882a; stop-opacity:1"/>
   <stop offset="100%" style="stop-color: #279362; stop-opacity:1"/>
  </linearGradient>
  <linearGradient id="90ssummer" x1="0%" x2="0%" y1="0%" y2="100%">
   <stop offset="0%" style="stop-color: #f618c7; stop-opacity:1"/>
   <stop offset="20%" style="stop-color: #94ffab; stop-opacity:1"/>
   <stop offset="50%" style="stop-color: #fbfd54; stop-opacity:1"/>
   <stop offset="100%" style="stop-color: #0f83ae; stop-opacity:1"/>
  </linearGradient>
 </defs>
  <path
     d="m 0.3414837,2.515246 0.0108949,0.00908 C 0.3405758,2.4426119 0.3342204,2.3536352 0.3578261,2.2755536 0.39323469,2.1502599 0.43772235,2.0285978 0.46042015,1.8987643 0.4785784,1.7979845 0.49946039,1.6844937 0.48765754,1.5873457 0.47403884,1.6400054 0.46042015,1.6917572 0.43136699,1.7371535 0.32150963,1.9069356 0.20892855,2.1066794 0.28610107,2.3227657 c -0.001816,0.00272 -0.00454,0.00545 -0.007263,0.00363 C 0.24796877,2.2546713 0.24070547,2.1738659 0.22073141,2.0976002 0.1671646,1.8951326 0.01191166,1.7253505 0.05730726,1.4911056 0.03279363,1.5419494 0.02371451,1.5991487 0.01100375,1.6545322 c -0.02723736,0.1434523 0,0.2950759 0.03904021,0.4276332 C 0.0981633,2.2464999 0.25886371,2.3645303 0.3414837,2.515246 Z"
     id="path2283"
     class="ColorScheme-Text"
     style="fill:url(#oomox);fill-opacity:1;stroke-width:0.00907918" />
  <path
     d="M 0.29971975,1.4638678 C 0.33603623,1.3894179 0.3950505,1.3185997 0.46586764,1.26594 0.62202849,1.1479097 0.79271593,0.99537817 0.79543967,0.79563442 0.74278078,0.93908671 0.585712,0.99900983 0.48130214,1.0970658 0.4259195,1.1488176 0.38324765,1.2114645 0.35873401,1.2768352 l -0.003632,-0.00272 C 0.36781315,1.2160041 0.39232675,1.1642523 0.4095771,1.107961 0.45497269,0.95542936 0.44680149,0.77293627 0.59569904,0.6703407 0.51943444,0.69031501 0.45497269,0.73934306 0.39777425,0.80289783 v 0 C 0.27702195,0.93636297 0.28791689,1.1333829 0.30335135,1.3077046 c 0.005447,0.054476 0.002724,0.1007797 -0.003632,0.1561632 z"
     id="path2285"
     class="ColorScheme-Text"
     style="fill:url(#oomox);fill-opacity:1;stroke-width:0.00907918" />
  <path
     d="M 0.48130214,1.0289714 C 0.56483004,0.95088979 0.66106869,0.8927825 0.73188583,0.80017409 0.81632163,0.68849918 0.88986252,0.56320547 1.0006278,0.4669653 0.85082232,0.52507259 0.68921398,0.5849957 0.59206739,0.73934306 0.53486889,0.82922776 0.52578989,0.93545506 0.48130214,1.0289714 Z"
     id="path2287"
     class="ColorScheme-Text"
     style="fill:url(#oomox);fill-opacity:1;stroke-width:0.00907918" />
  <path
     d="m 0.54394805,1.4239191 c 0.0363165,-0.073542 0.0590143,-0.1570711 0.0690013,-0.2378765 -0.0136187,0.034501 -0.0345007,0.066279 -0.0635538,0.093516 -0.1216602,0.1153065 -0.26420238,0.2278893 -0.29143974,0.3913159 -0.003632,0.023606 -0.006355,0.047212 -0.0127108,0.06991 -0.005447,0.00272 -0.005447,-0.00363 -0.007263,-0.00545 l 0.0154345,-0.2015596 c 0.0145266,-0.1970198 -0.0889754,-0.4158299 0.0245136,-0.58924371 -0.003632,-9.0891e-4 -0.006355,0.00272 -0.009079,0.00363 C 0.16534915,1.0798108 0.09634784,1.225079 0.09634784,1.4021244 c 0,0.2188102 0.12619976,0.3722496 0.14163427,0.577441 0.0326848,-0.2142706 0.21245137,-0.3668021 0.30596628,-0.5556507 z"
     id="path2289"
     class="ColorScheme-Text"
     style="fill:url(#oomox);fill-opacity:1;stroke-width:0.00907918" />
  <path
     d="m 0.30335139,2.7685573 c 0.11712065,0.092608 0.2569391,0.1643346 0.36407269,0.246048 C 0.64654213,2.9610376 0.61204144,2.9120096 0.59842278,2.8566262 0.53577684,2.6033148 0.57027749,2.3091469 0.46223599,2.074902 c 0.0199741,0.1334651 -0.0326848,0.2514955 -0.0444877,0.378605 -0.009987,0.1044114 0.008171,0.2060992 0.0490272,0.2932601 0.0118028,0.02633 0.0335928,0.049028 0.0399482,0.076266 C 0.46768345,2.7876238 0.43953819,2.7431354 0.41320875,2.699555 0.28700898,2.4952716 0.0228066,2.3627145 0.00464837,2.1139428 v 0 c -0.00907912,0.110767 9.079e-4,0.2278894 0.03722438,0.3259454 0.04993516,0.1343729 0.14798965,0.2387844 0.26147864,0.3286691 z"
     id="path2291"
     class="ColorScheme-Text"
     style="fill:url(#oomox);fill-opacity:1;stroke-width:0.00907918" />
  <path
     d="m 1.895829,3.4395145 c -0.2042802,0 -0.3876784,0.098964 -0.5665371,0.173414 -0.1625162,0.067186 -0.37769138,0.054476 -0.52204937,-0.045397 0.0708171,0.088977 0.16614788,0.1443602 0.26511027,0.1815852 0.1824903,0.072634 0.3958497,0.017249 0.5520105,-0.082621 0.1116732,-0.071726 0.2079118,-0.1734139 0.3413749,-0.1734139 0.2151751,0 0.4412452,0.2206261 0.6346304,0.4203699 0.029961,-0.024514 0.061738,-0.049936 0.086252,-0.078082 C 2.4841559,3.6428898 2.1981637,3.4395145 1.895829,3.4395145 Z"
     id="path2293"
     class="ColorScheme-Text"
     style="fill:url(#oomox);fill-opacity:1;stroke-width:0.00907918" />
  <path
     d="m 1.5308484,3.4613049 c 0.031777,-0.00817 0.069909,-0.00545 0.098962,-0.016344 C 1.5081506,3.4204479 1.3910299,3.3832233 1.2966071,3.2969701 1.1613282,3.1734922 1.0414838,3.041843 0.89712582,2.9456028 1.0106148,3.0981343 1.0423917,3.3196682 1.2493957,3.396842 1.2857127,3.410459 1.3283837,3.413186 1.3601609,3.433159 1.3202129,3.439519 1.2857119,3.426799 1.2484878,3.418633 0.98156162,3.3614339 0.65652914,3.434977 0.4567885,3.2079944 0.5321452,3.3568943 0.68830608,3.4740167 0.83901943,3.5230446 1.070537,3.6011262 1.3129495,3.5148744 1.5308484,3.4613049 Z"
     id="path2295"
     class="ColorScheme-Text"
     style="fill:url(#oomox);fill-opacity:1;stroke-width:0.00907918" />
  <path
     d="M 1.0841557,3.3496298 C 0.91074448,3.2098093 0.88441503,3.0000784 0.80724253,2.8166773 0.75912318,2.7022787 0.68104278,2.5996831 0.59751488,2.4998113 c 0.0916991,0.183401 0.051751,0.4194617 0.17068744,0.5919677 0.0372244,0.054476 0.0889754,0.1062272 0.1370947,0.1488997 l -0.001814,0.00272 C 0.85990142,3.2234282 0.82086122,3.1925587 0.78091308,3.1598734 0.57300124,2.9864595 0.25977162,2.9646693 0.13538768,2.6823044 v 0 c 0.0335928,0.2070071 0.19792481,0.3904081 0.37587556,0.5066225 0.1688716,0.110767 0.38586258,0.098963 0.57289246,0.1607029 z"
     id="path2297"
     class="ColorScheme-Text"
     style="fill:url(#oomox);fill-opacity:1;stroke-width:0.00907918" />
  <path
     d="m 3.5001093,0.80017409 c 0.070817,0.0935163 0.167056,0.1507157 0.2505838,0.22879731 C 3.7062055,0.93545506 3.6971261,0.82922773 3.6408358,0.73934306 3.543689,0.5849957 3.3820808,0.52507259 3.2322754,0.4669653 3.3412248,0.56320547 3.4147657,0.68759127 3.5001093,0.80017409 Z"
     id="path2301"
     class="ColorScheme-Text"
     style="fill:url(#oomox);fill-opacity:1;stroke-width:0.00907918" />
  <path
     d="m 3.8224182,1.107961 c 0.016344,0.055384 0.040856,0.1080431 0.054475,0.1661504 l -0.00363,0.00272 C 3.8487474,1.2114645 3.8060756,1.1488176 3.7506931,1.0970658 3.6462832,0.99810191 3.4892145,0.93908671 3.4374636,0.79472651 c 0.00272,0.20065166 0.173411,0.35318319 0.3295718,0.47030559 0.069909,0.05266 0.1298316,0.1234778 0.1661481,0.1979278 -0.00636,-0.055384 -0.00908,-0.1016877 -0.00363,-0.1552553 0.016344,-0.1752296 0.026328,-0.37134163 -0.093515,-0.50480677 v 0 C 3.7788378,0.73934306 3.714376,0.6894071 3.6381114,0.6703407 3.7851932,0.77293627 3.777022,0.95542936 3.8224182,1.107961 Z"
     id="path2303"
     class="ColorScheme-Text"
     style="fill:url(#oomox);fill-opacity:1;stroke-width:0.00907918" />
  <path
     d="m 3.978579,1.5328701 0.015435,0.2015596 c -0.0018,0.00181 -0.0018,0.00726 -0.00726,0.00545 C 3.980394,1.7171814 3.977674,1.6935751 3.974043,1.6699697 3.9468007,1.5074481 3.8033502,1.3939574 3.682598,1.2786509 3.653543,1.2514131 3.6326629,1.2196357 3.619044,1.1851346 3.629034,1.2659398 3.651728,1.349469 3.688045,1.4230111 3.78156,1.6118596 3.9613264,1.7643912 3.9940113,1.9795697 4.0094463,1.7734705 4.1356457,1.6209389 4.1356457,1.4021287 c 0,-0.1770454 -0.069001,-0.3223135 -0.1725035,-0.45396275 -0.00272,-0.00181 -0.00545,-0.00454 -0.00908,-0.00363 0.113489,0.17341385 0.00908,0.39222395 0.024514,0.58833595 z"
     id="path2305"
     class="ColorScheme-Text"
     style="fill:url(#oomox);fill-opacity:1;stroke-width:0.00907918" />
  <path
     d="m 4.0112639,2.0966922 c -0.019973,0.076266 -0.027237,0.1579791 -0.058107,0.2287973 -0.00272,0.00181 -0.00545,-0.00181 -0.00726,-0.00363 0.077172,-0.2160863 -0.035409,-0.4149221 -0.145266,-0.5856122 -0.029055,-0.044489 -0.042672,-0.097148 -0.05629,-0.1498077 -0.011802,0.098056 0.00908,0.2106388 0.027237,0.3114186 0.023605,0.1298334 0.067185,0.2514955 0.1025941,0.3767892 0.023605,0.078081 0.017249,0.1661504 0.00545,0.2487717 l 0.010893,-0.00908 C 3.972231,2.3636231 4.133839,2.2455927 4.1828662,2.0803503 4.2219062,1.948701 4.2491442,1.7961694 4.2219062,1.6527171 v 0 C 4.209188,1.5973329 4.1992,1.5401335 4.1755959,1.4892898 4.2200835,1.7244426 4.0648306,1.8942248 4.0112639,2.0966922 Z"
     id="path2307"
     class="ColorScheme-Text"
     style="fill:url(#oomox);fill-opacity:1;stroke-width:0.00907918" />
  <path
     d="m 2.9017954,3.6129285 c -0.1797666,-0.07445 -0.3622569,-0.173414 -0.566537,-0.173414 -0.3014268,0 -0.588327,0.2042832 -0.7889755,0.3958555 0.024514,0.028146 0.056291,0.054476 0.086252,0.078082 0.1924773,-0.1988359 0.4194553,-0.4203699 0.6346305,-0.4203699 0.133463,0 0.2297017,0.1016877 0.3413748,0.1734139 0.155253,0.098965 0.3686123,0.1552553 0.5520105,0.082621 C 3.2586047,3.711892 3.353936,3.656509 3.4256609,3.5675318 3.2803951,3.6664948 3.0643121,3.6801146 2.9017954,3.6129285 Z"
     id="path2309"
     class="ColorScheme-Text"
     style="fill:url(#oomox);fill-opacity:1;stroke-width:0.00907918" />
  <path
     d="m 3.8196945,2.6977391 c -0.027237,0.043581 -0.054475,0.088976 -0.093515,0.1234779 0.00636,-0.02633 0.028146,-0.049936 0.039948,-0.076266 C 3.8069835,2.6568824 3.8251419,2.5561027 3.815155,2.4516912 3.802444,2.3245816 3.7497852,2.2065512 3.770667,2.0730862 3.6617176,2.307331 3.6971261,2.601499 3.6344804,2.8548102 3.6208615,2.9111017 3.5863609,2.9601296 3.5654791,3.0127893 3.6726127,2.9310761 3.8124309,2.8593499 3.9295519,2.7667415 4.0430409,2.6777647 4.1410952,2.5724453 4.192846,2.4362564 4.2300704,2.3382004 4.2391498,2.221078 4.2300704,2.1103112 4.2110044,2.3608986 3.9458942,2.4934558 3.8196945,2.6977391 Z"
     id="path2313"
     class="ColorScheme-Text"
     style="fill:url(#oomox);fill-opacity:1;stroke-width:0.00907918" />
  <path
     d="m 3.4492664,3.1598734 c -0.039948,0.032685 -0.078988,0.063555 -0.1225682,0.083529 l -0.00181,-0.00272 C 3.3730017,3.1970983 3.4247526,3.1453466 3.461977,3.091779 3.5809134,2.919273 3.5409653,2.6823044 3.6326646,2.4998113 3.5491365,2.5996831 3.4710561,2.7022787 3.4229368,2.8166773 3.3457644,3.0000784 3.3194349,3.2098093 3.1460237,3.3496298 3.3330536,3.2878908 3.5500447,3.2996939 3.7180083,3.1898348 3.8950512,3.0736204 4.0593832,2.8902194 4.0938838,2.6832123 3.9704079,2.9646693 3.6580859,2.9864595 3.4492664,3.1598734 Z"
     id="path2315"
     class="ColorScheme-Text"
     style="fill:url(#oomox);fill-opacity:1;stroke-width:0.00907918" />
  <path
     d="M 2.9835075,3.41954 C 2.9462835,3.42771 2.9117825,3.439513 2.8718343,3.434066 2.9036113,3.414094 2.9453753,3.411367 2.9825996,3.397749 3.1896035,3.319668 3.2213804,3.098135 3.3348694,2.9465115 3.1905114,3.0427515 3.070667,3.1744008 2.9353882,3.2978788 2.8409652,3.3841318 2.7238447,3.4204486 2.6021845,3.4458707 c 0.029053,0.010893 0.067185,0.00817 0.098962,0.016344 0.2188068,0.054476 0.4603113,0.1398203 0.6927368,0.062647 C 3.543689,3.4749236 3.6998499,3.3578011 3.7761145,3.2098093 3.575466,3.4358828 3.2495257,3.3632487 2.9835075,3.41954 Z"
     id="path2319"
     class="ColorScheme-Text"
     style="fill:url(#oomox);fill-opacity:1;stroke-width:0.00907918" />
  <path
     d="m 2.1155437,0.31988135 c -0.8261999,0 -1.49805477,0.67186507 -1.49805477,1.49807755 0,0.8262126 0.67185487,1.4980777 1.49805477,1.4980777 0.8261998,0 1.4980546,-0.6718651 1.4980546,-1.4980777 0,-0.82621248 -0.6718548,-1.49807755 -1.4980546,-1.49807755 z m 0,1.78407435 c -0.1579767,0 -0.2859923,-0.1280177 -0.2859923,-0.2859968 0,-0.1579791 0.1280156,-0.2859967 0.2859923,-0.2859967 0.1579767,0 0.2859922,0.1280176 0.2859922,0.2859967 0,0.1579791 -0.1280155,0.2859968 -0.2859922,0.2859968 z M 2.3307188,1.5773585 C 2.2780599,1.5301464 2.2099665,1.5001848 2.1346098,1.4956452 V 1.2505053 C 2.277152,1.2550448 2.4069834,1.3122442 2.50413,1.4039447 Z M 2.0973854,1.4956452 c -0.075357,0.00454 -0.1434501,0.034501 -0.196109,0.081713 L 1.7278652,1.4039447 c 0.097147,-0.0917 0.226978,-0.1488998 0.3695202,-0.1534394 z M 1.8758549,1.6036884 c -0.047211,0.05266 -0.077173,0.1207542 -0.081712,0.1961119 H 1.5490066 C 1.5535466,1.657256 1.6107446,1.5274226 1.7024437,1.4302746 Z m -0.081712,0.232429 c 0.00454,0.075358 0.034501,0.1434523 0.081712,0.1961121 L 1.7024437,2.2056433 C 1.6107446,2.1084952 1.5535462,1.9786617 1.5490066,1.8361174 Z m 0.1071336,0.222442 c 0.052659,0.047212 0.1207523,0.077174 0.196109,0.081713 v 0.24514 C 1.9548432,2.380873 1.8250118,2.3236736 1.7278652,2.2319731 Z m 0.2324255,0.080805 c 0.075357,-0.00454 0.1434501,-0.034501 0.196109,-0.081713 l 0.1734111,0.1734138 c -0.097147,0.0917 -0.226978,0.1488999 -0.3695202,0.1534394 z M 2.3561403,2.0322295 c 0.047211,-0.05266 0.077173,-0.1207542 0.081712,-0.1961121 H 2.6829885 C 2.6784485,1.9786617 2.6212505,2.1084952 2.5295514,2.2056433 Z M 2.4378523,1.7998003 C 2.4333123,1.7244422 2.4033513,1.6563481 2.3561403,1.6036884 L 2.5295515,1.4302746 c 0.091699,0.097148 0.1488976,0.2269814 0.1534371,0.3695257 z M 2.5295515,1.3785228 C 2.4251416,1.2804668 2.287139,1.2187279 2.1337019,1.2141883 V 0.94181055 c 0.2278859,0.00454 0.4348898,0.0971484 0.5883269,0.24423205 z M 2.0973854,1.2141883 C 1.9448562,1.2187279 1.8059457,1.2804668 1.7015358,1.3785228 L 1.5090585,1.1860426 C 1.6624956,1.0389585 1.8694995,0.94635012 2.0973854,0.94181055 Z M 1.6761143,1.4039447 C 1.5780598,1.5083562 1.5163218,1.6463609 1.5117822,1.7998003 H 1.2394086 C 1.2439482,1.5719109 1.3365552,1.3649039 1.483637,1.2114645 Z M 1.5126901,1.8361174 c 0.00454,0.1525315 0.066278,0.2914443 0.1643321,0.3958557 L 1.483637,2.4244535 C 1.3365552,2.271014 1.2439482,2.0640068 1.2394086,1.8361174 Z M 1.7024437,2.2573951 C 1.8068536,2.3554501 1.9448562,2.41719 2.0982933,2.4217296 V 2.6941074 C 1.8704074,2.6895678 1.6634035,2.5969593 1.5099664,2.4498753 Z M 2.1337019,2.4208217 C 2.2862311,2.4162816 2.4251416,2.3545427 2.5295515,2.2564872 L 2.7220288,2.4489674 C 2.5685917,2.5960514 2.3615878,2.6886598 2.1337019,2.6931995 Z M 2.554973,2.2310652 C 2.6530275,2.1266538 2.7147655,1.9886489 2.7193051,1.8352095 H 2.9916787 C 2.9871391,2.0630989 2.8945321,2.270106 2.7474504,2.4235454 Z M 2.7193051,1.7998003 C 2.7147655,1.6472688 2.6530275,1.5083562 2.554973,1.4039447 L 2.7474504,1.2114645 C 2.8945321,1.3649039 2.9871391,1.5719109 2.9916787,1.7998003 Z M 2.7474504,1.1606207 C 2.5876579,1.0071811 2.3715748,0.91094108 2.1337019,0.90640141 V 0.66489312 c 0.3041505,0.00454 0.5801557,0.12801756 0.783528,0.32503747 z M 2.0973854,0.9054935 C 1.8595125,0.91003307 1.6434294,1.0062732 1.483637,1.1597127 L 1.3138574,0.98993059 C 1.5172297,0.79291068 1.7932349,0.66943279 2.0973854,0.66489312 Z m -0.63917,0.2805491 C 1.3047783,1.3458375 1.2085396,1.5619238 1.2040001,1.7998003 H 0.96340337 C 0.96794296,1.4956452 1.091419,1.2196358 1.2884359,1.0162604 Z M 1.2040001,1.8361174 c 0.00454,0.2378767 0.1007782,0.453963 0.2542153,0.6137579 L 1.2884359,2.6196574 C 1.091419,2.416282 0.96794296,2.1402726 0.96340337,1.8361174 Z M 1.483637,2.4752972 C 1.6434294,2.6287368 1.8595125,2.7249768 2.0973854,2.7295165 V 2.9701169 C 1.7932349,2.9655772 1.5172297,2.8420993 1.3138574,2.6450794 Z M 2.1337019,2.7304244 C 2.3715748,2.7258848 2.5876579,2.6296447 2.7474504,2.4762051 L 2.9172299,2.6459873 C 2.7138576,2.8430073 2.4378524,2.9664851 2.1337019,2.9710248 Z M 2.7737798,2.4498753 C 2.9272169,2.2900804 3.0234556,2.0739941 3.0279952,1.8361174 H 3.2685918 C 3.2640523,2.1402726 3.1405763,2.416282 2.9435594,2.6196574 Z M 3.0279952,1.7998003 C 3.0234556,1.5619238 2.9272169,1.3458375 2.7737798,1.1860426 L 2.9435594,1.0162604 C 3.1405763,1.2196358 3.2640523,1.4956452 3.2685918,1.7998003 Z M 2.9435594,0.9645087 C 2.7329238,0.76022538 2.4487474,0.63311574 2.1337019,0.62857607 V 0.3561984 c 0.3894942,0.00454 0.742672,0.16251869 1.0023348,0.41582996 z M 2.0973854,0.62857607 C 1.7832479,0.63311574 1.4981636,0.76022538 1.287528,0.9645087 L 1.0959585,0.77202836 C 1.3556214,0.51871709 1.7087991,0.36073797 2.0982933,0.3561984 V 0.62857607 Z M 1.2621064,0.98993059 C 1.0578262,1.2005694 0.93071856,1.4847501 0.92617898,1.7998003 H 0.65380539 C 0.65834539,1.4103002 0.81632163,1.0571171 1.0696291,0.79745035 Z M 0.92708691,1.8361174 c 0.00454,0.3141425 0.13164729,0.5992311 0.33592749,0.8098699 L 1.0696291,2.8375597 C 0.81632163,2.5788008 0.65925288,2.2256177 0.65471333,1.8361174 Z M 1.2884359,2.6714092 c 0.2106356,0.2042833 0.494812,0.331393 0.8098574,0.3359327 V 3.2797195 C 1.7087991,3.27518 1.3556214,3.1172008 1.0959585,2.8638896 Z m 0.845266,0.3359327 C 2.4478394,3.0028022 2.7329238,2.8756925 2.9435594,2.6714092 L 3.1360367,2.8638896 C 2.8763739,3.1172008 2.5231961,3.27518 2.1337019,3.2797195 Z M 2.9689809,2.6450794 C 3.1732611,2.4344406 3.3003688,2.1502599 3.3049083,1.8352095 H 3.5772818 C 3.5727423,2.2247098 3.4147657,2.5778929 3.1614582,2.8375597 Z M 3.3049083,1.7998003 C 3.3003688,1.485658 3.1732611,1.2005694 2.9689809,0.98993059 L 3.1614582,0.79745035 C 3.4147657,1.0571171 3.5727423,1.4103002 3.5772818,1.7998003 Z"
     id="path2325"
     class="ColorScheme-Text"
     style="display:inline;opacity:0.5;fill:url(#oomox);fill-opacity:1;stroke-width:0.00907918" />
  <path
     id="polygon59"
     class="ColorScheme-Text"
     d="m 2.3861725,0.42255402 -0.013722,0.00897 -0.010027,-0.00633 -0.0044,0.00809 0.011786,0.00739 0.00264,0.00176 0.00193,-0.00176 0.01724,-0.0109072 z m 0.06896,0.0362396 -0.011786,0.0100272 -0.00739,-0.00827 -0.00633,0.00739 0.010027,0.00985 0.00369,0.00369 0.00264,-0.00264 0.015481,-0.0128422 z m -0.108893,0.0270914 c -0.00636,5.6851e-4 -0.012814,0.00333 -0.013722,0.00651 -9.089e-4,0.00545 -0.010027,0.00721 -0.010027,0.00721 l -0.03448,0.00282 c -0.00363,0.00908 -0.020877,0.0153272 -0.022693,0.00897 -0.00363,-0.0136192 -0.022613,0.0172463 -0.00264,0.0226943 0.019974,0.00636 0.039054,0 0.039054,0 l 0.0044,-0.00897 0.075469,0.00176 c 0.00636,-0.00636 0.00897,-0.0154812 0.00897,-0.0154812 0,0 0.018245,-0.00627 0.025508,-0.00264 0.00726,0.00272 0.00184,-0.0217513 -0.00633,-0.0181203 -0.00726,0.00272 -0.022694,0.00176 -0.022694,0.00176 h -0.027267 c -9.09e-4,-0.00545 -0.00719,-0.00708 -0.013546,-0.00651 z m -0.1308827,0.0292024 -0.019879,0.00721 -0.020934,0.0137222 -0.022693,0.00264 -0.011786,0.0137222 0.048026,0.0044 0.00915,0.0154812 0.03448,0.00282 0.022693,0.0226944 c 0.020882,0.00908 0.025524,-1.18e-5 0.013722,-0.0109072 l -0.020055,-0.0200553 v -0.0172403 l -0.00633,-0.00633 -0.00633,-0.0218143 z m 0.602166,0.18647555 c -0.012512,-2.129e-4 -0.030366,0.00804 -0.028323,0.0168883 9.089e-4,0.00817 0.00734,0.0153962 0.020055,0.0181203 l 0.022693,0.00739 c 0,0 0.027999,0.0335825 0.027091,0.0172403 -0.00272,-0.0453957 -0.024402,-0.0472157 -0.031665,-0.0562949 -0.00204,-0.00227 -0.00568,-0.00327 -0.00985,-0.00334 z m -0.7022631,0.00844 c -0.00164,1.844e-4 -0.00289,0.00195 -0.00334,0.00581 -0.00181,0.0154342 -0.010963,0.0153172 -0.00915,0.0262124 0.00272,0.00999 0.00739,0.0263314 0.012842,0.0281474 0.023606,0.00726 0.031785,0.00178 0.0336,-0.00457 0.00181,-0.00636 0.00271,-0.00716 0.011786,-0.00897 0.00908,-0.00181 -0.00183,-0.0199353 -0.010907,-0.0181203 -0.00908,0.00181 -0.018239,-0.00274 -0.020055,-0.0109072 -0.00136,-0.00545 -0.00984,-0.0181453 -0.014777,-0.0175923 z m 0.2290447,0.00932 -0.00633,0.0146012 0.00827,0.00352 0.00633,-0.0135462 z m 0.027619,0.0153052 c -0.00212,0.00145 -0.00939,0.0119952 -0.015129,0.0146012 0.00722,0.00376 0.016536,0.00915 0.016536,0.00915 0.011803,0 0.020055,0.00918 0.020055,0.0137222 0,0.00454 0.01636,0.00264 0.01636,0.00264 l 0.00176,-0.0109072 -0.011786,-0.0154812 -0.010907,-0.00721 c 0,0 -0.01636,-0.00179 -0.01636,-0.00633 0,-4.5271e-4 -1.426e-4,-4.3911e-4 -5.276e-4,-1.759e-4 z m 0.3681956,0.00106 -0.0044,0.00721 -0.029202,0.00193 -0.00176,0.00897 c -0.012711,0.00636 -0.072597,3.45e-5 -0.074413,0.00457 -0.00454,0.0136182 -0.00646,0.0318415 -0.013722,0.0318415 -0.00726,0 -0.0044,0.0198783 -0.0044,0.0198783 0,0 0.019885,1.193e-4 0.025332,0.00193 0.00636,0.00181 0.00633,0.0172403 0.00633,0.0172403 0.022698,-0.00181 0.03175,0.0289474 0.029026,0.0371196 -0.00272,0.00726 0.00915,0.00739 0.00915,0.00739 0,0 8.17e-5,0.0244304 -0.00264,0.0307865 -0.00272,0.00636 0.019885,0.0109762 0.025332,0.0200553 0.00636,0.00908 -0.00267,0.0398776 -0.00721,0.0416926 -0.00454,0.00181 0.011815,0.00628 0.010907,0.0135462 -0.00181,0.00726 0.00452,1.3141e-4 0.00633,0.0128422 0.00181,0.0118032 0.00457,0.0379986 0.00457,0.0379986 l 0.020758,0.00193 c 0.00272,-0.019974 0.041846,-0.020843 0.048201,-0.01812 0.025422,0.00908 0.045387,0.048975 0.045387,0.058054 0,0.00908 -0.01636,0.010907 -0.01636,0.010907 l 0.00282,0.044508 c 0.025422,0.00726 0.047083,0.044486 0.043452,0.050841 -0.00272,0.00636 0.018295,0.0044 0.018295,0.0044 0.00272,-0.027237 0.028998,-0.018051 0.029906,-0.00897 0.00181,0.00908 0.00633,0.029027 0.00633,0.029027 l 0.00721,0.013546 0.010907,0.010907 0.01636,-0.00176 0.00457,0.00915 0.019879,0.00264 c 0,0 0.016479,0.018154 0.018296,0.022693 0.00181,0.00454 0.024459,0.00276 0.029906,0.00457 0.00636,0.00181 0.015452,0.00628 0.01636,0.013546 0.00181,0.00726 0.010907,0.020054 0.010907,0.020054 0,0 0.018063,0.00455 0.019879,0.010907 0.00181,0.00636 0.00915,0.019878 0.00915,0.019878 l 0.015481,0.012842 0.00176,0.013546 0.01636,0.00176 0.00457,0.018295 0.027267,-0.00193 0.015305,-0.010907 c 0.019974,-0.010895 0.033572,-0.02443 0.03448,-0.030786 0.00181,-0.00636 0.00462,-0.028992 0.020055,-0.024452 0.015434,0.00454 0.00457,-0.033601 0.00457,-0.033601 0,0 -0.020962,-0.01543 -0.020055,-0.022694 0.00181,-0.00726 -0.020786,-0.022847 -0.019879,-0.029202 0.00181,-0.00636 -0.020111,-0.018097 -0.018295,-0.024452 0.00181,-0.00636 -0.010907,-0.022694 -0.010907,-0.022694 L 3.129581,1.1533071 3.126941,1.1397609 3.108821,1.1378309 3.072406,1.0934992 3.074336,1.080657 3.063429,1.078897 V 1.061657 L 3.052522,1.055327 3.036162,1.053397 3.002562,1.017157 2.999742,0.9999167 H 2.983558 l 0.00264,-0.0318415 c 0.010895,-0.0136182 0.00457,-0.0399336 0.00457,-0.0399336 0,0 -0.020946,0.0108732 -0.031841,0.00633 -0.010895,-0.00454 0.00457,-0.0153052 0.00457,-0.0153052 V 0.9073812 l -0.00915,-0.00915 c 0,0 -0.025276,0.00278 -0.027091,-0.00176 -0.00181,-0.00454 -0.00651,-0.0246284 -0.00651,-0.0246284 l -0.00176,-0.0262124 -0.010907,-0.00457 -0.00176,-0.00915 -0.01636,0.00176 V 0.8155501 l -0.00915,-0.00264 -0.00897,-0.00457 -0.00193,-0.0181203 -0.0336,-0.00193 L 2.825578,0.7729846 2.813616,0.7546893 2.775618,0.7520493 2.766468,0.7428993 2.750987,0.7402593 Z m -0.4339888,0.00915 -8.783e-4,0.00897 0.012842,8.7831e-4 0.00985,0.0154812 0.00739,-0.00545 -0.010027,-0.0163602 -0.00193,-0.00176 h -0.00176 z m -0.3488448,0.0380001 c -0.00817,3.4051e-4 -0.015583,0.00185 -0.015129,0.00457 0.00181,0.00726 0.013546,0.0163602 0.013546,0.0163602 0,0 0.022813,0.00179 0.024628,0.00633 0.00181,0.00454 0.016304,0.00647 0.01812,0.00193 9.089e-4,-0.00454 0.00729,-0.0137222 -0.00633,-0.0137222 -0.013618,0 -0.010941,-0.00813 -0.015481,-0.0126662 -0.00227,-0.00227 -0.01118,-0.00316 -0.019351,-0.00282 z m 0.3835003,0.0154812 v 0.0137222 l 0.016184,0.00176 -0.0044,-0.0126662 z m 0.074413,0.0716001 c -0.0017,2.1281e-4 -0.00282,7.9992e-4 -0.00282,0.00193 0,0.00454 0.00642,0.00464 0.00915,0.0137222 0.00272,0.00908 0.00186,0.0245434 0.015481,0.0272674 0.013619,0.00272 0.016303,0.00631 0.01812,0.0126662 0.00181,0.00636 0.01812,0.00721 0.01812,0.00721 l 0.011786,0.00633 0.035359,0.0309615 v -0.0117862 c 0,0 -0.00171,-0.0119622 -0.00897,-0.0119622 -0.00726,0 -0.020843,-0.00895 -0.01812,-0.0153052 0.00272,-0.00636 -0.025508,-0.0128422 -0.025508,-0.0128422 0,0 -0.025439,-0.0243614 -0.01636,-0.0216383 0.00908,0.00272 0.00457,-0.0109072 0.00457,-0.0109072 0,0 -0.018154,0.00267 -0.022693,0.00176 -0.00454,-0.00181 -0.00282,-0.0154812 -0.00282,-0.0154812 0,0 -0.010198,-0.00257 -0.015305,-0.00193 z m -0.8308589,0.0110832 -0.00633,0.00633 0.00915,0.00915 0.00633,-0.00651 z m 1.0087116,0.067377 c -0.00209,1.7031e-4 -0.00372,0.00107 -0.0044,0.00334 -0.00272,0.00908 -0.00908,0.0155152 0,0.0200543 0.00908,0.00454 0.00722,-0.00735 0.01812,0.00264 0.010895,0.0108952 0.029956,0.0245214 0.022693,0.0336005 -0.00726,0.00908 -0.01636,0.012842 -0.01636,0.012842 l 0.010907,0.012666 h 0.01636 l 0.00264,0.026388 c 0,0 0.018154,0.00898 0.022693,0.019879 0.00454,0.010895 0.00454,0.017246 0,0.022693 -0.00454,0.00636 -0.013602,0.017281 -0.011786,0.027267 0.00181,0.010895 0.013721,0.015481 0.013721,0.015481 l 0.011786,0.00176 0.00897,0.00457 v 0.019879 c 0.011803,-0.00272 0.031898,0.013734 0.030082,0.024628 -0.00181,0.010895 0.00269,0.00441 0.01812,0.015305 0.015434,0.010895 0.010771,0.012791 0.020758,0.020055 0.00999,0.00636 0.019209,0.00183 0.023749,-0.011786 l 0.010907,-0.0336 c -0.015434,-0.00272 -0.011962,-0.020055 -0.011962,-0.020055 -0.00181,-0.013619 -0.022643,-0.028993 -0.029906,-0.024452 -0.00726,0.00454 -0.00457,-0.031841 -0.00457,-0.031841 0,0 0.013699,-0.00894 0.020055,-0.0044 0.00636,0.00454 -0.051703,-0.0764 -0.063506,-0.069137 -0.011803,0.00726 -0.039082,-0.00711 -0.038174,-0.021638 0.00181,-0.013618 -0.054534,-0.0599889 -0.054534,-0.0599889 0,0 -0.010104,-0.00667 -0.01636,-0.00616 z m -0.030786,0.0334245 c 0,0 -8.919e-4,0.0117522 -0.011786,0.00721 -0.010895,-0.00454 -0.00464,-0.00276 -0.013721,-0.00457 -0.00908,-9.0891e-4 -0.00621,0.0200323 -0.0044,0.0263884 0,0 -0.00642,0.021707 -0.00915,0.030787 -9.089e-4,0.00908 0.018097,0.0092 0.024453,0.00739 0.00635,-9.09e-4 0.016445,-0.020946 0.013721,-0.031842 -0.00272,-0.00999 0.012615,-0.014442 0.019879,-0.00264 l 0.015481,-0.00193 0.00264,-0.0135462 -0.020758,-0.0172403 z M 1.858595,1.1670484 l -0.00545,0.00721 0.00915,0.00721 0.00545,-0.00721 z m -0.034304,0.00809 0.00158,0.015481 h 0.022693 c 0.00908,0 -0.00721,-0.010907 -0.00721,-0.010907 0,0 -0.015289,0.00153 -0.017064,-0.00457 z m 1.0039618,8.783e-4 -0.00915,8.783e-4 0.00193,0.013722 0.00897,-8.783e-4 z m -0.011786,0.039055 -0.020055,0.011786 -0.019879,0.026388 c 0,0.02179 0.010799,0.011786 0.019879,0.011786 0.00908,0 -0.00267,0.035473 0.020934,0.031842 0.024514,-0.00272 0.0019,0.010879 0.020055,0.011786 0.018158,0.00181 0.013523,-0.013734 0.019879,-0.024628 0.00636,-0.010895 0.00277,-0.017155 -0.00721,-0.019879 -0.010895,-0.00272 -0.010998,-0.00277 -0.013721,-0.015481 -0.00272,-0.011803 -0.015305,-0.015481 -0.015305,-0.015481 z m 0.074941,0.018649 c -0.00204,2.27e-4 -0.00317,0.00175 -0.00317,0.00493 0,0.00636 0.00712,0.00998 0.0044,0.01724 -0.00272,0.00726 0.00279,0.013721 0.00915,0.013721 0.00545,0 0.010005,0.00361 0.01636,0.00633 0.00636,0.00272 0.010941,0.00719 0.015481,0.013546 l 0.014425,-0.00545 c 0,0 0.00178,-0.015447 -0.00457,-0.010907 -0.00545,0.00454 -0.00983,-0.010788 -0.016184,-0.00897 -0.00636,0.00181 -0.00913,-0.00646 -0.015481,-0.013722 -0.00545,-0.00726 -0.00452,-0.00901 -0.011786,-0.013546 -0.00363,-0.00227 -0.00658,-0.00339 -0.00862,-0.00317 z m 0.046618,0.069488 -0.018999,8.783e-4 c 0.00454,0.00636 0.013722,0.010885 0.013722,0.01724 0,0.00636 -0.00275,0.010879 0.00633,0.011786 0.00908,0.00181 0.015396,-0.00184 0.01812,0.00633 0.00272,0.00726 0.00267,0.020032 0.00176,0.026388 -0.00181,0.00636 0.00189,0.015481 0.00915,0.015481 0.00726,0 0.00897,0.00179 0.00897,0.00633 0,0.00454 0.00915,-0.01724 0.00915,-0.01724 -0.00726,-0.00636 -0.013546,-0.020055 -0.013546,-0.020055 0,0 -0.00739,-0.021729 -0.00739,-0.024453 0,-0.00272 -0.010766,-0.00648 -0.015305,-0.00739 -0.00454,-0.00181 -0.011962,-0.015305 -0.011962,-0.015305 z m -0.145132,0.00545 -0.015481,8.783e-4 8.782e-4,0.00897 0.015481,-8.783e-4 z m 0.00985,0.00985 v 0.00739 h 0.00915 v -0.00739 z m 0.104495,0.00282 c 0,0 -0.017297,0.00271 -0.015481,0.011786 0.00181,0.00908 -0.024436,0.00913 -0.036239,0.015481 l 0.012666,0.01724 0.00457,0.015481 0.036239,-0.00193 c 0,0 -0.01001,-0.00725 0.00633,-0.011786 0.00775,-0.00215 0.010718,-0.00269 0.011786,-0.00264 l -0.00176,-0.01636 -0.013546,-0.00915 z m -0.1171611,0.012666 c 0,0 -0.00911,0.012689 -0.027267,0.00633 0,0 -0.00271,0.02918 -0.011786,0.035535 h -0.020758 c 0,0 0.00443,0.00813 0.00897,0.012666 0.00454,0.00454 0.015469,0.013523 0.00457,0.019879 -0.00999,0.00636 0.00176,0.00457 0.00176,0.00457 0,0 -0.00169,0.031807 -0.015305,0.027267 -0.013619,-0.00454 -0.018296,0.016338 -0.018296,0.022693 0,0.00636 0.053558,0.00817 0.045387,0 -0.00454,-0.00454 0.00457,-0.014601 0.00457,-0.014601 0,0 0.036364,0.00282 0.043628,0.00282 0.00726,0 0.013687,-0.00189 0.00915,-0.00915 -0.00454,-0.00817 -0.018295,-0.00633 -0.018295,-0.00633 0,0 -0.018137,0.00451 -0.03448,-0.00457 -0.016342,-0.00999 0.00361,-0.012666 0.00633,-0.012666 0.00363,0 0.017262,-0.010856 0.010907,-0.01812 -0.00636,-0.00817 0,-0.021836 0,-0.015481 0,0.00636 0.017331,0.00911 0.020055,0.00457 0.00363,-0.00454 5.45e-5,-0.018154 -0.00721,-0.022693 -0.00817,-0.00454 0.013568,-0.00822 0.00721,-0.015481 -0.00636,-0.00817 -0.00915,-0.01724 -0.00915,-0.01724 z m 0.030962,0.046267 v 0.010907 h 0.00897 v -0.010905 z m 0.019879,0.00545 -0.00457,0.00915 0.00827,0.00457 0.00457,-0.010028 z m 0.054886,0.00141 c -0.01264,-0.00153 -0.020407,0.012314 -0.020407,0.012314 l -0.024452,0.00264 v 0.024628 l -0.011786,0.0044 0.00176,0.015481 0.01636,-0.00176 c 0,0 3.64e-5,0.01817 0.00457,0.010907 0.00454,-0.00726 0.042685,0.00172 0.039054,0.019879 -9.09e-4,0.00726 0.03814,0.027382 0.0336,0.051897 0.019974,0.00272 0.015481,0.022693 0.015481,0.022693 l 0.025332,0.00264 0.00721,-0.015481 0.00739,0.00193 v -0.00915 l -0.01636,-0.00457 -0.00282,-0.049082 -0.010907,-0.00721 0.00282,-0.012666 -0.011786,-0.00457 0.00633,-0.019878 -0.010907,-0.020055 h -0.021814 c 9.021e-4,-3.643e-4 3.295e-4,-0.00296 -0.014601,-0.01724 -0.00522,-0.00499 -0.00986,-0.00723 -0.014073,-0.00774 z m -0.4329333,0.00457 c -0.00119,4.97e-4 -0.00186,0.00178 -0.00141,0.00405 0.00181,0.00908 -0.010822,0.013631 -0.013546,0.010907 -0.00454,-0.00363 -0.013722,0.00915 -0.013722,0.00915 0,0.00454 -0.00275,0.01085 0.00633,0.012666 0.00908,0.00181 0.025451,-0.00644 0.027267,0.00264 0.00181,0.00908 0.00192,0.015515 0.013721,0.020055 0.011803,0.00454 0.019947,0.00633 0.029026,0.00633 0.00908,0 0.029026,-0.00264 0.029026,-0.00264 0,0 0.0217,0.00358 0.025332,0.00721 0.016342,0.01725 0.027301,0.021716 0.031841,0.013546 0.00454,-0.00726 -0.00191,-0.02443 -0.00282,-0.030786 -0.00181,-0.00636 -0.022643,-0.035383 -0.029906,-0.029027 -0.00726,0.00636 -0.00907,3.64e-5 -0.022693,0.00457 -0.013618,0.00454 -0.04272,0.00178 -0.043628,-0.00457 -0.00181,-0.00636 -0.022693,-0.00913 -0.022693,-0.015481 0,-0.00477 -0.00856,-0.010109 -0.012139,-0.00862 z m 0.5240586,0.00721 c -0.00319,0.00117 0.00327,0.018023 -7.047e-4,0.020407 -0.00454,0.00272 -0.00725,0.00918 -0.011786,0.013722 -0.00454,0.00454 0.00915,0.010765 0.00915,0.015305 0,0.00454 0.00264,0.027268 0.00264,0.027268 0,0 0.00997,0.00455 0.011786,0.010907 0.00181,0.00636 3.63e-5,0.018239 0.00457,0.020055 0.00454,0.00181 0.013631,0.00719 0.010907,0.013546 -0.00272,0.00636 -0.00282,0.01812 -0.00282,0.01812 l 0.00633,0.013722 0.011962,0.00721 c 0,0 0.00445,-0.036359 -0.00282,-0.038175 -0.00726,-9.09e-4 -0.00457,-0.022693 -0.00457,-0.022693 0,0 0.00723,-0.029026 -0.00457,-0.029026 -0.012711,0 -0.00347,-0.015339 -0.010731,-0.019879 -0.00817,-0.00454 -0.00379,-0.025486 -0.00651,-0.031842 -0.00363,-0.00545 -0.00347,-0.01358 -0.010731,-0.01812 -9.089e-4,-5.685e-4 -0.00165,-6.945e-4 -0.00211,-5.277e-4 z m -0.3657327,0.028675 -0.015305,0.00176 8.783e-4,0.00915 0.015305,-0.00193 z m -0.2302762,7.046e-4 c -0.00477,0 -0.00932,0.00106 -0.00932,0.00106 l -0.022694,0.00282 -0.00193,0.010907 0.01636,0.00176 c 0,0 0.00739,0.00637 0.00739,0.010907 0,0.00454 0.010913,0.00897 0.01636,0.00897 0.00636,0 0.022693,-0.012666 0.022693,-0.012666 0,0 0.00721,-0.021694 0.00176,-0.019879 -0.00636,0.00181 -0.018239,0.010838 -0.020055,0.00176 -9.089e-4,-0.00454 -0.00579,-0.00563 -0.010555,-0.00563 z m -0.095699,0.00475 -0.00897,0.00176 0.00369,0.013546 0.00809,-0.00176 z m 0.049961,0.00264 -0.0336,8.784e-4 0.00106,0.00915 0.032545,-8.783e-4 z m -0.2841069,0.00282 v 0.00897 h 0.011786 v -0.00897 z m 0.078107,0.00176 -8.783e-4,0.00915 0.00985,8.782e-4 0.00193,-0.00915 z m 0.018999,0.00457 -8.783e-4,0.00897 0.010907,0.00193 8.782e-4,-0.00915 z m -0.1215591,0.00264 -0.00193,0.00915 0.010907,0.00176 8.783e-4,-0.00897 z m 0.2487475,8.783e-4 -0.00457,0.00106 0.00264,0.00897 0.00457,-0.00176 z m 0.3648531,0.00369 -0.0044,0.010907 0.00809,0.00369 0.00457,-0.010907 z m -0.4711073,0.00457 v 0.00915 h 0.011786 v -0.00915 z m -0.1525206,0.00176 -0.00282,0.00915 0.012842,0.00369 0.00176,-0.00915 z m 0.236961,0.00457 c 0,0 -0.0246,-0.00184 -0.025508,0.00633 -0.00181,0.00726 -0.01636,0.012666 -0.01636,0.012666 0,0 -0.011752,0.00455 -0.00721,0.010907 0.00454,0.00636 -0.00897,0.00915 -0.00897,0.00915 0,0 0.0026,0.00991 -0.00193,0.013546 -0.011803,0.012711 -0.042606,0.0019 -0.047146,-0.00264 l -0.01812,-0.00721 -0.018295,-0.011786 -0.020758,0.00897 -0.00633,0.00633 h -0.022693 l -0.00193,0.018296 0.040813,0.0044 0.00282,0.038175 -0.01636,-0.00545 h -0.010907 l -0.00457,-0.00915 -0.00897,-0.00176 v 0.0336 l 0.00897,0.00721 0.00739,0.00739 0.015305,0.00176 0.00282,0.01812 0.038174,0.00193 0.0044,0.00721 0.022693,0.00176 0.043628,0.044508 -0.00264,0.013546 -0.00739,0.00457 c 0.00272,0.010895 -0.019879,0.00457 -0.019879,0.00457 v 0.00915 l 0.010907,0.00176 0.010907,0.00633 0.015305,-0.026388 c 0.016342,-0.010894 0.0246,0.00464 0.025508,0.013722 0.00181,0.00908 -0.00721,0.00721 -0.00721,0.00721 v 0.021814 l 0.00897,0.00282 c 0.015434,0.018157 -0.00633,0.029027 -0.00633,0.029027 l -0.00457,0.015305 c -0.00454,0.013619 -0.020758,0.010907 -0.020758,0.010907 l -0.00633,0.00915 -0.018296,0.00457 0.035535,0.00457 c 0.00363,-0.012711 0.0127,-0.015503 0.01724,-0.00915 0.00454,0.00635 0.0044,0.01724 0.0044,0.01724 l 0.00915,0.00176 -0.00176,0.01724 0.00897,0.00282 v 0.049082 l 0.010907,0.011786 c 0.018157,-0.00726 0.018227,0.00455 0.00915,0.010907 -0.00908,0.00636 -0.00282,0.033601 -0.00282,0.033601 l -0.00721,0.00721 v 0.012666 l -0.00897,0.00633 v 0.01724 c -0.015434,-0.00726 -0.033635,-0.00454 -0.038174,0 -0.013619,-0.00908 -0.042748,-0.00624 -0.042748,0.00193 0.00908,0.011803 -0.010907,0.015305 -0.010907,0.015305 l -0.010907,0.011786 c 0.00726,0.015434 -0.00721,0.017416 -0.00721,0.017416 v 0.029026 l -0.01812,0.01724 0.00176,0.039934 c 0,0.010895 0.022728,0.01178 0.027267,0.00633 0.00454,-0.00636 0.022693,0.012666 0.022693,0.012666 h 0.013546 l 0.00282,-0.027267 -0.00915,-0.0044 v -0.04451 l 0.015481,-0.01724 c 0.018157,-0.00636 0.011786,0.039793 0.011786,0.044332 0.00181,0.01725 0.0091,0.015594 0.01636,0.011962 0.015434,-0.00636 0.00266,0.017121 -0.00915,0.015305 -0.011803,-0.00181 -0.0044,0.015481 -0.0044,0.015481 l 0.00721,0.00282 -0.013721,0.010731 -0.011786,0.013721 -0.015305,-0.00457 -0.018295,-0.00176 -0.00633,-0.010907 -0.010907,-0.00176 -0.00176,0.021638 -0.00721,0.00915 -0.01812,0.01812 c 0.024514,0 -0.00279,0.01724 -0.00915,0.01724 0.013618,0.00454 -0.00191,0.018283 -0.036415,0.00739 v 0.010731 l -0.011786,0.00193 0.010907,0.011786 0.011786,0.00176 -0.0044,0.026388 c 0,0.019974 -0.049995,0.0063 -0.054535,0.00176 l -0.00176,0.027267 -0.00915,0.00176 0.00176,0.018295 -0.00176,0.026212 0.01636,-0.00264 v 0.010907 l 0.040813,0.00176 0.059108,-0.062628 0.03448,-0.00721 c 0.00272,-0.015434 0.01812,0.00264 0.01812,0.00264 0.015434,-0.00181 0.01812,0.00915 0.01812,0.00915 l 0.020055,0.00264 c 0.016342,0.00454 0.0063,0.00631 0.00721,0.012666 0.00181,0.00908 0.00915,0.00651 0.00915,0.00651 l 0.00264,-0.020055 0.00915,0.00176 -0.00915,-0.010907 -0.01636,-0.00721 -0.01812,-0.00721 c -0.011802,-0.01725 0.00277,-0.013602 0.015481,-0.011786 h 0.019879 c 0,0 0.022693,0.030911 0.022693,0.038175 0,0.00726 0.010907,0.00897 0.010907,0.00897 l 0.013722,-0.00176 0.0044,0.010907 h 0.013721 l 0.00457,0.00897 h 0.027091 l 0.00193,-0.013546 -0.025508,-0.00457 -0.00176,-0.015481 -0.01812,-0.0044 c -0.00636,-0.02633 0.00452,-0.033618 0.011786,-0.021814 l 0.00897,0.00176 -0.00264,-0.022693 0.010907,-0.00264 -0.00282,-0.031842 -0.00897,-0.00282 v -0.010907 l 0.038174,0.00193 c -0.00272,-0.019974 0.00176,-0.029026 0.00176,-0.029026 h 0.010907 l 0.00176,0.00721 0.046266,0.00457 7.046e-4,-8.783e-4 h 3.507e-4 c 0.018158,0.010894 0.00899,0.024368 0.00264,0.027091 -0.00635,0.00272 -0.01636,0.00282 -0.01636,0.00282 l -0.00264,0.00633 -0.039054,0.00282 -0.00282,0.015305 c -0.019974,-0.00272 -0.027233,0.018131 -0.022694,0.029026 0.00454,0.010895 0,0.020055 0,0.020055 l 0.01636,0.00721 0.020934,-0.00633 c 0.00272,-0.015434 0.016316,-0.018188 0.029026,-0.027267 0.011803,-0.00908 0.031687,0.017224 0.025332,0.029027 -0.00636,0.011803 -0.00633,0.01724 -0.00633,0.01724 l 0.00193,0.013721 -0.015481,0.00633 -0.011786,0.00633 -0.00193,0.00721 h -0.040814 l -0.00721,0.00739 -0.020055,0.00176 -0.00633,0.00915 -0.013546,0.00176 c 0,0 -0.022801,0.01089 -0.013722,0.022693 0.00908,0.012711 -0.038038,0.010917 -0.048026,-0.00633 -0.00272,0.015434 -0.020055,0.00176 -0.020055,0.00176 l -0.01636,-0.00457 -0.00176,-0.022694 c -0.00272,-0.015434 -0.031722,-0.015293 -0.029906,-0.0044 0.00181,0.010895 -0.054534,0.0044 -0.054534,0.0044 l -0.01812,0.00915 -0.01636,0.010027 -0.00176,0.00721 -0.027267,0.00282 -0.011786,0.00633 -0.00457,-0.00915 h -0.011785 l -0.011786,0.01724 c -0.031777,0.00181 -0.061832,0.020004 -0.059108,0.027267 0.00272,0.00726 -0.011786,0.015481 -0.011786,0.015481 l -0.013546,0.0044 -0.00915,0.013722 -0.01812,0.00633 -0.00264,0.031842 -0.00915,0.00633 v 0.013546 l -0.010907,0.00282 v 0.00721 l -0.015481,0.00176 0.00915,0.022694 0.011786,0.00633 c 0.020882,0.00272 0.011786,0.029202 0.011786,0.029202 l 0.011786,0.00176 0.00633,0.01724 0.011786,0.024452 c 0.00454,0.018158 0.018273,0.01375 0.024628,0.012842 0.00636,-0.00181 0.011786,0.01812 0.011786,0.01812 l 0.059812,0.00176 c 0,0 -0.0026,0.00642 0.00739,0.00915 0.010895,0.00272 0.079782,0.0063 0.082505,0.00176 -0.00272,-0.013618 0.038192,-0.017285 0.054534,-0.00457 0.016343,0.011802 0.039054,0.00457 0.039054,0.00457 l 0.022694,0.027267 0.015481,0.0336 0.025332,0.00721 0.01812,0.00457 0.00651,0.026388 0.013546,0.00176 0.00457,0.01724 c 0.016342,0.011803 -0.00457,0.038175 -0.00457,0.038175 v 0.0336 l 0.011786,0.00633 -0.00176,0.012666 0.019879,0.020055 0.022693,0.00176 0.057173,0.060868 0.045563,0.013546 0.00721,0.024452 0.011786,-0.00176 0.00915,-0.00721 0.036239,-0.00176 0.01812,-0.01724 0.020055,-0.00282 L 2.7466545,2.82574 2.7311735,2.81659 V 2.782989 c 0.027237,-0.019974 0.028968,-0.05533 0.00264,-0.058054 -0.019066,-0.00272 -0.01077,-0.022756 0.00739,-0.026388 l 0.010731,-0.00457 V 2.680431 L 2.7865905,2.648589 V 2.624137 L 2.7111235,2.561501 c -0.033593,-0.011803 -3.6e-6,-0.085349 0.022694,-0.084442 0.022698,0.00181 -0.00176,-0.1134686 -0.00176,-0.1134686 l -0.011786,-0.00633 0.00264,-0.037295 h -0.01636 l -0.027091,0.03536 -0.00739,0.024628 c -0.00272,0.031778 -0.096261,0.026353 -0.1008007,0.021814 -0.00454,-0.00454 -0.036239,-0.018295 -0.036239,-0.018295 0,0 -0.024487,-0.019901 -0.029026,-0.013546 -0.00454,0.00636 -0.025508,-0.00735 -0.025508,-0.00282 0,0.00454 -0.019879,-0.010731 -0.019879,-0.010731 l -0.030082,-0.010907 0.022869,-0.00457 -0.00457,-0.01812 0.039054,0.019879 c 0.00454,0.00636 0.024452,0.00457 0.024452,0.00457 l 0.00633,0.00721 c 0,0 0.011883,-0.00187 0.020055,0.00721 0.00726,0.00908 0.047146,0.00193 0.047146,0.00193 l 0.010907,0.00897 0.01636,0.00651 0.047146,0.00176 0.00193,-0.029027 0.00897,-0.00915 -0.00176,-0.01812 0.010907,-0.00915 v -0.015305 l 0.00897,-0.00282 0.00193,-0.033601 0.00721,-0.00176 v -0.073516 l -0.022709,-0.02174 c -0.00181,0.00726 -0.025508,0.00721 -0.025508,0.00721 0,0 -0.00619,0.010907 -0.010731,0.010907 -0.00454,0 0.00627,0.013614 0.00264,0.022693 -0.00272,0.00908 -0.015481,0.00915 -0.015481,0.00915 l -0.022693,0.00633 -0.00633,0.00721 H 2.573172 l -0.00282,-0.019879 0.027267,-0.00739 0.015481,-0.00721 0.00721,-0.015481 c 0.00181,-0.015435 0.020055,-0.013546 0.020055,-0.013546 0,0 0.034423,-0.029129 0.036239,-0.042749 0.00181,-0.013619 0.013598,-0.051721 0.03448,-0.051721 h 0.039054 c 0.015434,-0.00635 0.010907,-0.026388 0.010907,-0.026388 l 0.020055,-0.00264 0.00264,0.010907 c 0,0 0.027182,0.00278 0.029906,-0.00176 0.00272,-0.00454 0.0091,-0.015447 0.01636,-0.010907 0.00726,0.00454 0.031841,-0.010907 0.031841,-0.010907 0.00181,-0.010895 0.039054,-0.00633 0.039054,-0.00633 l 0.00457,-0.013721 c 0,0 -0.025542,-0.035359 -0.030082,-0.035359 -0.00454,0 -0.028942,-0.021893 -0.031665,-0.013722 C 2.819211,1.9549637 2.821031,1.9213901 2.821031,1.9213901 L 2.81189,1.8997567 c 0,-0.012711 -0.022727,-0.038258 -0.027267,-0.035535 -0.022698,-0.01725 -0.00636,-0.036359 0,-0.038175 0.00635,-0.00181 0.020934,-0.022693 0.020934,-0.022693 l 0.00721,-0.021638 0.025508,-0.00739 0.00264,-0.019879 -0.013546,-0.00193 c 0,0 0.01543,-0.027091 0.022693,-0.027091 0.00726,0 0.057208,-9.08e-5 0.061747,-0.00282 0.00454,-0.00272 0.013546,-0.027301 0.013546,-0.031842 0,-0.00454 0.011821,-0.0063 0.01636,-0.00721 0.00454,-0.00181 0.015396,-0.013523 0.01812,-0.019879 0.00817,-0.015434 -0.00174,-0.053678 -0.00809,-0.047323 -0.00636,0.00636 -0.020055,0.00915 -0.020055,0.00915 l -0.0044,0.01724 -0.00739,0.00633 c 0,0 0.00181,0.00459 0,0.015481 -0.00181,0.010895 -0.015305,0.01724 -0.015305,0.01724 l -0.00651,0.00721 c 0,0 -0.036273,0.00181 -0.040813,0 -0.013619,-0.00636 -0.00451,-0.024509 0.00457,-0.022693 0.00908,0.00181 -0.00176,-0.026388 -0.00176,-0.026388 l 0.011786,-0.00176 c 0,0 0.00179,-0.027267 0.00633,-0.027267 0.00454,0 -0.00177,-0.00901 -0.00721,-0.013546 -0.00636,-0.00454 -0.013699,-0.019935 -0.020055,-0.01812 -0.00636,0.00181 -0.029906,0 -0.029906,0 l -0.00457,0.00897 -0.01636,0.00282 c 0,0 0.00187,0.011849 -0.00176,0.015481 -0.00908,0.010895 -0.043553,0.033559 -0.029026,-0.00457 l 0.0044,-0.00915 v -0.013546 l -0.027092,-0.00193 c 0,0 -0.013722,-0.00455 -0.013722,-0.010907 0,-0.00636 -0.00176,-0.013546 -0.00176,-0.013546 l -0.031841,-0.035359 -0.038174,-0.00457 -0.00264,-0.00721 -0.022693,-0.00282 c -0.027236,-0.013619 -0.051685,-0.00179 -0.047146,0.021814 0.00454,0.022698 0.011712,0.031841 -0.00282,0.031841 -0.015434,0 -0.01812,-0.011786 -0.01812,-0.011786 0,0 -0.011786,-0.0046 -0.011786,0.00176 0,0.00636 -0.00454,0.018097 0,0.024452 0.00454,0.00636 -0.00637,0.015447 -0.010907,0.010907 -0.00454,-0.00454 -0.016445,-0.018154 -0.013721,-0.022693 0.00272,-0.00454 -0.020791,-0.033635 0.00282,-0.038175 0.024514,-0.00454 -0.00187,-0.018006 0.00721,-0.021638 l 0.011786,-0.00651 h 0.011786 l 0.00739,-0.00633 -0.020055,-0.00264 -0.011786,-0.00193 -0.022693,-0.00176 c -0.022697,0.015434 -0.027267,0.0336 -0.027267,0.0336 -0.011802,0.022698 -0.040801,-0.0091 -0.029906,-0.021814 0.010895,-0.012711 -0.03355,-0.00178 -0.040813,0.00457 -0.00726,0.00636 -0.030082,0.00282 -0.030082,0.00282 -0.00454,0.013619 -0.025326,-0.00183 -0.019879,-0.010907 0.00636,-0.00908 0.00633,-0.015481 0.00633,-0.015481 l -0.00721,-0.00176 -0.00915,0.01724 c -0.020882,0 -0.027233,0.011707 -0.022694,0.019878 0.00454,0.00726 -0.00642,-0.00175 -0.00915,0.00915 -0.00272,0.010895 0.00183,0.010765 0.010907,0.015305 0.00908,0.00454 -0.00442,0.0047 0.00193,0.011962 0.00636,0.00726 0.024441,-1.643e-4 0.013546,0.010731 -0.010895,0.010895 -0.031841,0.00651 -0.031841,0.00651 -0.00181,0.013619 -0.029969,0.010873 -0.0336,0.00633 -0.00272,-0.00454 -0.025332,-0.031842 -0.025332,-0.031842 L 2.23451,1.5347352 c -0.00272,-0.021789 0.013523,-0.010925 0.019879,-0.027268 0.00636,-0.01725 0.00915,-0.044508 0.00915,-0.044508 z m -0.2415349,0.00827 -0.00915,0.00176 0.00193,0.00897 0.00897,-0.00176 z m 0.1797878,0 -0.00915,8.783e-4 v 0.010907 l 0.00915,-0.00106 z m 0.469876,0.00387 c -0.00445,1.863e-4 -0.00871,7.252e-4 -0.011435,0.00141 -0.00726,0.00181 -0.00545,0.00822 0,0.015481 l 0.01812,-0.00264 c 0,0 0.013631,-0.00637 0.010907,-0.010907 -0.00227,-0.00284 -0.01018,-0.00365 -0.017592,-0.00334 z m -0.6714775,0.011435 -0.00897,0.011786 -0.00282,0.013721 -0.015481,0.00264 v 0.00739 h -0.010907 v 0.019879 l -0.042572,0.035361 -0.084441,-0.00264 c -0.00636,0.013619 -0.020934,-0.00176 -0.020934,-0.00176 -0.00272,-0.00908 -0.024452,0 -0.024452,0 0,0.01725 -0.029026,-0.00739 -0.029026,-0.00739 l -0.052775,-0.037999 c -0.029961,-0.027238 -0.075236,0.00713 -0.077052,0.015305 0.00181,0.02179 -0.03448,0.00457 -0.03448,0.00457 0,0 -0.030116,-0.00899 -0.034656,0.00282 -0.00454,0.011803 -0.024452,0.00897 -0.024452,0.00897 l -0.00264,0.00633 -0.015481,0.00282 -0.00282,0.00897 -0.01812,0.00282 0.045387,-0.00176 c 0.011803,-0.00181 -0.00452,0.026268 -0.011786,0.024452 l -0.020934,0.00176 -0.00721,0.00721 H 1.483715 l -0.00915,0.012842 -0.029026,-0.00193 c 0,0 -0.016389,0.013756 -0.015481,0.018296 0.00181,0.00454 -0.00267,0.01812 -0.00721,0.01812 -0.00454,0 -0.01363,0.01358 -0.010907,0.01812 0.00272,0.00454 -0.00915,0.020055 -0.00915,0.020055 l -0.00264,0.015305 -0.00915,0.00282 v 0.041693 l -0.01812,0.012666 v 0.018295 l -0.027267,0.029027 0.00282,0.024452 -0.022693,0.024628 0.00264,0.024452 -0.013546,0.00457 -0.00282,0.010907 -0.00633,0.031665 0.015481,0.00193 c 0.00726,-0.00272 0.00636,0.01997 0,0.022693 -0.00636,0.00272 -0.022801,0.00895 -0.013721,0.015305 0.00908,0.00636 -0.024452,0.00468 -0.024452,-0.0044 0,-0.00908 -0.018154,-0.017353 -0.022694,-0.013722 -0.00454,0.00272 -0.011786,-0.013546 -0.011786,-0.013546 -0.016342,-0.01725 -0.06808,0.00176 -0.06808,0.00176 l -0.00739,0.024453 c -0.016343,0.00272 -0.027091,0.030963 -0.027091,0.030963 -0.013619,0.00454 -0.024594,0.021848 -0.020055,0.026388 0.00454,0.00454 -0.00721,0.00633 -0.00721,0.00633 v 0.0336 l -0.00721,0.010907 0.00176,0.03624 c 0.00908,0 0.00721,0.01724 0.00721,0.01724 -0.015434,0.00181 -0.011786,0.021814 -0.011786,0.021814 L 1.07682,2.1666134 1.07049,2.1755836 1.031436,2.1738235 1.020529,2.1847307 1.009798,2.1738235 h -0.0754694 l -0.002638,-0.00721 -0.0154807,-0.00282 -0.00176,-0.01724 -0.0226935,0.00193 -0.004574,0.00897 -0.0246285,0.00193 c 0.001814,0.015434 -0.0243677,0.038022 -0.0270914,0.031666 -0.002723,-0.00636 -0.0199575,-0.02258 -0.0117864,-0.026212 0.007263,-0.00272 0.0270914,-0.00651 0.0270914,-0.00651 v -0.010907 l -0.0562936,-0.00176 -0.006333,0.00915 -0.0226935,0.00176 v 0.024452 l -0.0109068,0.00282 c -0.007263,0.00454 0.001934,0.021814 0.001934,0.021814 0.0108948,0.010895 -0.001934,0.027267 -0.001934,0.027267 -0.009079,0.00908 0.007389,0.026212 0.007389,0.026212 0.0118027,0.00272 -0.007389,0.011786 -0.007389,0.011786 0.002723,0.015434 0.0117864,0.020055 0.0117864,0.020055 -0.009079,0.015434 0.006333,0.022693 0.006333,0.022693 l 0.001934,0.026388 0.0109068,0.00633 v 0.01724 l 0.006333,0.010907 h 0.0244525 l -0.001757,-0.038175 c -0.0208818,-0.024514 0.0180628,-0.030893 0.0198786,-0.021814 0.001814,0.00908 0.0182953,0.013722 0.0182953,0.013722 0.002723,0.022698 0.0289756,0.036243 0.036239,0.013546 0.007263,-0.022698 0.0135801,-0.00914 0.0181196,0.00176 0.00454,0.010895 0.0336003,0.037296 0.0336003,0.037296 h 0.0226935 l 0.002815,0.021814 c 0.0254216,-0.00181 0.0336404,0.00174 0.0436276,0.03624 0.010895,0.03541 0.038878,0.044508 0.038878,0.044508 l 0.020934,-0.00176 c 0,-0.018158 0.020934,0.00268 0.020934,0.012666 0,0.00908 0.040813,0.044508 0.040813,0.044508 l 0.040813,0.00897 0.038174,0.030962 0.029026,-0.00282 h 0.011786 c 0.00726,-0.02633 0.04369,0.00183 0.047322,0.010907 0.00272,0.00908 0.027182,0.024503 0.029906,0.01724 0.00272,-0.00726 0.01997,-0.00264 0.022694,0.020055 0.00272,0.022698 0.013546,0.01812 0.013546,0.01812 l 0.086376,-0.00176 0.029906,-0.026388 0.077228,-0.00176 c 0.039039,-0.00181 0.015383,-0.055413 0.00721,-0.055413 -0.013618,-0.010895 0.00457,-0.055415 0.00457,-0.055415 L 1.4599657,2.398984 c -0.025422,0 -0.00264,-0.037295 -0.00264,-0.037295 C 1.4772997,2.348978 1.4527557,2.330024 1.4527557,2.330024 1.4554757,2.311866 1.4418487,2.29009 1.4418487,2.29009 1.4146097,2.271965 1.4219677,2.236468 1.4219677,2.236468 V 2.212015 c -0.022698,-0.02179 0.00897,-0.024452 0.00897,-0.024452 0.010895,-0.018158 -0.00721,-0.031841 -0.00721,-0.031841 L 1.421968,2.1356664 1.39734,2.1330264 1.3947,2.0612513 1.340165,1.983143 C 1.32927,1.980423 1.337525,1.9613287 1.337525,1.9613287 1.351143,1.9540686 1.334705,1.9351163 1.334705,1.9351163 l -0.00176,-0.0336 0.031665,-0.00282 0.00739,-0.011786 h 0.015305 l -0.00176,-0.039934 c 0.00726,-0.019974 0.025508,-0.00897 0.025508,-0.00897 l 0.020758,0.00176 0.011786,-0.022693 0.00282,-0.01812 -0.01636,-0.00193 C 1.4119,1.786126 1.420907,1.7461794 1.420907,1.7461794 1.44996,1.7035067 1.482654,1.7280601 1.482654,1.7280601 l 0.020934,-0.00176 c 0.031777,0.02179 0.00282,0.060869 0.00282,0.060869 -0.00636,0.00908 -0.00282,0.037999 -0.00282,0.037999 l 0.00721,0.049082 -0.019879,0.01724 c -0.016342,0.00908 -0.016399,0.03082 0.00176,0.03536 0.011803,0.00181 0.00725,0.030881 -0.010907,0.010907 -0.027237,0 0.015526,0.024651 0.00282,0.018295 0.027238,0.013618 0.020758,-0.011962 0.020758,-0.011962 l 0.036415,-0.029026 c 0.013619,-0.010895 0.038174,0.022727 0.038174,0.027267 0,0.00454 0.059812,0.00176 0.059812,0.00176 0.016342,0.010895 0.022693,0.038175 0.022693,0.038175 0.016342,-0.02179 0.051837,-0.0018 0.025508,0.010907 0.024514,0.015434 0.024452,0.029026 0.024452,0.029026 0.019974,-0.00636 0.020055,0.00918 0.020055,0.013722 0,0.00454 0.00633,-0.022693 0.00633,-0.022693 -0.022698,-0.01725 0.030007,-0.022748 0.015481,0.00721 l -0.00915,0.013546 0.015481,0.011786 0.00176,0.035535 c 0.033592,-0.00272 0.024452,-0.044508 0.024452,-0.044508 l 0.015481,-0.00282 c 0,-0.013619 0.010907,-0.00633 0.010907,-0.00633 -0.010895,-0.051752 0.024452,-0.060868 0.024452,-0.060868 0.019974,-0.00454 0.020934,-0.046267 0.020934,-0.046267 -0.013619,-0.00636 -0.00629,-0.02713 0.00915,-0.00897 0.015434,0.018158 -0.00915,-0.037296 -0.00915,-0.037296 l -0.011786,-0.010907 -0.01636,-0.00176 -0.00176,-0.01724 H 1.801414 l -0.00457,0.021814 -0.010027,0.0044 -0.00264,-0.00633 -0.00457,0.01724 H 1.752343 l -0.00176,-0.01812 0.01636,-0.00457 0.00633,-0.00897 0.00457,-0.024628 h 0.019879 l 0.025508,-0.00721 c 0.00181,-0.026329 0.015481,-0.020054 0.015481,-0.020054 l 0.00897,0.00739 0.013721,0.010907 0.00176,0.00897 -0.00915,0.00457 -0.00176,0.012666 0.00457,0.01724 h 0.011786 c 0.00454,-0.024514 0.036308,-0.024406 0.045387,-0.00897 l 0.00897,-0.021814 c -0.020882,-0.010895 5.9e-6,-0.027319 0.00545,-0.020055 0.00636,0.00726 0.020054,-0.019879 0.020054,-0.019879 0,0 0.010895,0.013585 0,-0.00457 -0.010895,-0.018158 0.00721,-0.027267 0.00721,-0.027267 -0.00272,-0.018159 0.020054,-0.015306 0.020054,-0.015306 l 0.00176,-0.024628 -0.020934,-0.00176 c -0.00454,0.02179 -0.022625,0.00278 -0.013546,-0.00176 0.00908,-0.00454 0.01812,-0.013721 0.01812,-0.013721 v -0.015481 l 0.00915,-0.00264 0.00176,-0.015481 H 1.994736 L 2.01479,1.657351 2.01936,1.6499609 2.040118,1.6482009 2.0702,1.6209335 2.06738,1.6091473 c -0.018158,0 0,-0.013546 0,-0.013546 L 2.06914,1.5700927 H 2.052987 l -0.00282,-0.0336 0.00915,-0.00633 V 1.5129248 H 2.00654 l -0.00176,-0.01724 0.00721,-0.00457 z m 1.0006193,0.079868 -0.027267,0.00457 -0.015481,0.029027 c 0,0 0.00719,0.00459 0.013546,0.015481 0.00636,0.010895 0.00919,0.073546 -0.00897,0.084441 -0.018158,0.010895 0.00176,0.00457 0.00176,0.00457 l -0.00264,0.033601 c 0.00454,0.015434 0.011821,0.00726 0.01636,0 0.00454,-0.00726 0.00895,-0.00907 0.015305,-0.01724 0.00636,-0.00726 0.015452,-0.021854 0.01636,-0.031841 0.00181,-0.010895 0.00911,-0.027125 0.00457,-0.031666 -0.00454,-0.00454 0.00457,-0.026388 0.00457,-0.026388 0,0 0.00635,-0.01265 0,-0.024452 -0.00636,-0.012711 0.00179,-0.026394 0.00633,-0.031842 l -0.012666,-0.00633 z m 0.030786,0.052776 -8.783e-4,0.011786 0.00915,0.00176 8.783e-4,-0.012666 z m -0.00545,0.040814 -0.00457,0.00915 0.00827,0.0044 0.00457,-0.00897 z m -1.0414322,0.089015 -0.00352,0.00809 h -0.00739 l -0.00176,0.011786 h 0.00915 l 0.00176,0.010027 -0.00633,0.00545 -0.00282,0.00827 -0.011786,0.00264 -0.027091,0.026388 -0.00193,0.011786 -0.00721,0.010907 -0.00915,0.022693 -0.031665,0.00176 -0.00633,0.027267 0.0044,0.023573 0.027267,0.010907 0.00282,-0.015481 0.00897,-0.00457 0.00193,-0.015305 0.00633,-0.010907 0.00897,-0.010907 0.00282,-0.011786 0.015481,-0.00915 0.01812,-0.00352 0.00721,-0.00915 0.00282,-0.01812 0.00176,-0.013722 0.00633,-0.010027 0.01812,-0.00721 v -0.029026 h -0.00897 l -0.00193,-0.010907 z m 0.9469645,0.010027 -0.00176,0.00897 0.01636,0.00282 0.00176,-0.00915 z m -0.037998,0.012666 -0.00457,0.00264 -0.010907,0.00633 -0.010027,-0.00633 -0.00457,0.00827 0.011786,0.00721 0.00282,0.00176 0.00176,-0.00176 0.00915,-0.00457 8.783e-4,0.00282 0.00915,-0.00369 -0.00369,-0.00721 z m -0.8762457,0.030787 -0.01636,0.015481 -0.00264,0.021814 v 0.013546 l -0.015481,0.00282 -0.00264,0.041693 -0.011786,0.00457 0.00176,0.015481 -0.01636,0.00457 -0.01636,0.0044 -0.00264,0.020055 -0.011962,0.00721 -0.00633,0.01812 -0.00721,0.044508 c 0,0 0.013671,0.026432 0.020934,0.013722 0.00726,-0.011803 0.019879,-0.013722 0.019879,-0.013722 l 0.00457,-0.010907 0.040813,0.00193 c 0.00272,-0.01725 0.022693,-0.010986 0.022693,-0.00282 0,0.00726 0.015481,0.00193 0.015481,0.00193 l 0.010907,-0.017416 h 0.01636 l 0.00176,-0.01812 0.00739,-0.00457 v -0.027064 c 0.024514,-0.00726 0.020758,-0.030962 0.020758,-0.030962 l 0.00633,-0.00721 -0.00264,-0.010907 c -0.011803,-0.00454 -0.00641,-0.01539 0.00176,-0.012666 0.00726,0.00272 -0.010907,-0.013722 -0.010907,-0.013722 -0.00908,0.00726 -0.01636,-0.00897 -0.01636,-0.00897 h -0.026212 v -0.021814 l -0.00282,-0.020055 z m 0.2054718,0.054359 c -0.0025,-3.405e-4 -0.00529,0.00149 -0.00756,0.00739 v 0.020055 c 0,0 0.021763,0.033636 0.029026,0.038175 0.00726,0.00454 0.019226,-0.00546 0.011962,-0.010907 -0.022698,-0.015434 -0.020912,-0.035463 -0.027267,-0.049082 -0.00136,-0.00272 -0.00366,-0.00529 -0.00616,-0.00563 z m -0.7891664,0.013722 0.00176,0.010907 h 0.00721 c 0.011803,0.02179 0.00193,0.073534 0.00193,0.073534 0,0 -0.018211,0.00187 -0.020934,-0.00721 -0.00272,-0.00908 -0.010929,0.019913 -0.00457,0.024452 0.00636,0.00454 0.027211,-9.2e-6 0.029026,0.01724 0.00181,0.017251 0.013722,-0.010731 0.013722,-0.010731 l -8.79e-4,-0.1053638 z m 0.7263638,0.030083 -0.027267,0.019879 c 0.012711,0.00181 0.014544,0.015458 0.01636,0.021814 0.00363,0.013619 0.00262,-0.021694 0.00897,-0.019878 0.00636,0.00181 0.00193,-0.021814 0.00193,-0.021814 z m 0.7592577,0.048744 c -0.011633,8.886e-4 -0.024203,0.0091 -0.020231,0.014777 0.00908,0.011803 0.024459,0.0054 0.029906,0.00721 0.00636,0.00181 0.012688,0.00461 0.00633,-0.013546 -0.00238,-0.00681 -0.00903,-0.00898 -0.016009,-0.00844 z m -1.4312657,0.02111 a 0.00635538,0.00635548 0 0 0 -0.00633,0.00633 0.00635538,0.00635548 0 0 0 0.00633,0.00633 0.00635538,0.00635548 0 0 0 0.00633,-0.00633 0.00635538,0.00635548 0 0 0 -0.00633,-0.00633 z m -0.01724,0.020934 -0.022694,0.015481 -0.014425,-0.00915 v 0.03624 l 0.023573,0.032722 0.00897,-0.021814 0.00369,-0.013546 -0.010907,-0.00457 0.00193,-0.022693 0.00897,-0.00176 z m 0.5583625,0.038175 -0.013546,0.00176 0.00176,0.021814 0.00915,0.00721 0.01636,0.00457 c 0,0 0.022637,-0.00647 0.024452,-0.024628 l -0.03536,-0.00176 z m -0.5564275,0.055239 -0.010907,0.00193 -8.783e-4,0.011786 0.011786,0.00176 z m 0.9756391,0.00352 c 0.00601,-0.00136 0.011593,-3.005e-4 0.00932,0.00651 -0.00454,0.013619 0,0.020055 0,0.020055 0.019973,-0.018158 0.036296,0.00179 0.03448,0.00633 -0.00181,0.00454 0.011032,0.00911 0.018296,0.00457 0.00726,-0.00454 0.016269,0.013614 0.013546,0.022693 -0.00272,0.00908 -0.030025,0.00714 -0.031841,-0.00193 -0.00181,-0.00908 -0.00625,-0.0063 -0.00897,-0.00176 -0.00272,0.00454 -0.016458,0.00718 -0.024628,0.00264 -0.00121,-6.059e-4 -0.00135,-0.00115 -0.00176,-0.00176 -0.00181,-0.00272 0.00363,-0.00446 0,-0.00809 -0.00454,-0.00454 -0.010856,-3.63e-5 -0.01812,-0.00457 -0.00726,-0.00454 5.44e-5,-0.030968 -0.00176,-0.036416 -9.089e-4,-0.00318 0.00542,-0.00691 0.011434,-0.00827 z m 0.9116052,0.010203 c -0.00626,2.978e-4 -0.013858,0.00361 -0.017944,0.00633 l 0.00545,0.00721 c 0.00545,-0.00363 0.013693,-0.00548 0.014601,-0.00457 v -8.783e-4 l 0.00809,-8.784e-4 c -9.089e-4,-0.00272 -0.00185,-0.00543 -0.00457,-0.00633 -0.00159,-6.808e-4 -0.00354,-9.804e-4 -0.00563,-8.783e-4 z m -1.8840777,0.015481 c -0.00295,5.719e-4 -0.0051,0.00316 -0.0051,0.00633 0,0.00363 0.0027,0.00633 0.00633,0.00633 0.00363,0 0.00651,-0.0027 0.00651,-0.00633 0,-0.00363 -0.00288,-0.00633 -0.00651,-0.00633 -4.528e-4,0 -8.102e-4,-8.17e-5 -0.00123,0 z m 0.6264425,0.00756 c -0.00613,4.528e-4 -0.012286,0.00377 -0.013194,0.00968 l -8.783e-4,0.00897 c 0,0 -0.00548,0.013637 8.783e-4,0.01636 0.00726,0.00272 0.00446,0.00358 0.00809,0.00721 l -0.00352,0.00827 c -0.00545,-0.00726 -0.00909,0.00534 -0.00545,0.00897 0.00272,0.00272 -0.00827,9.125e-4 -0.00827,0.00545 0,0.00454 -0.00363,0.00642 0,0.00915 0.00363,0.00272 -9.123e-4,0.00358 -0.00545,0.00721 -0.00454,0.00363 0.019175,0.00457 0.019175,0.00457 0,0 -0.00457,-0.00915 8.782e-4,-0.00915 0.00636,0 0.00813,9.08e-5 0.012666,0.00282 0.00454,0.00181 0.00728,0.00451 0.010907,8.783e-4 0.00363,-0.00363 0.00369,-0.00906 0.00369,-0.011786 0,-0.00272 3.63e-5,-0.00809 0.00457,-0.00809 0.00454,0 0.0026,-0.00918 -0.00193,-0.00827 -0.00454,0.00181 -0.00716,-0.00727 -0.00897,-0.00545 l -0.00369,-0.00545 c 0.00363,-0.00363 -0.00175,-0.00721 0.00369,-0.00721 0.00545,0 0.00633,-0.00721 0.00633,-0.00721 l -0.00633,-0.00282 c 0,0 9.09e-4,-0.00725 0,-0.01724 -9.089e-4,-0.00499 -0.00707,-0.00731 -0.013194,-0.00686 z m -0.6151839,0.024101 a 0.00635538,0.00635548 0 0 0 -0.00633,0.00633 0.00635538,0.00635548 0 0 0 0.00633,0.00633 0.00635538,0.00635548 0 0 0 0.00633,-0.00633 0.00635538,0.00635548 0 0 0 -0.00633,-0.00633 z m 0.5705008,0.00563 c -0.00752,-4.221e-4 -0.013535,0.022495 -0.016712,0.028851 0,0 0.0037,0.012694 0.00915,0.011786 0.00726,-9.089e-4 0.011793,-0.00455 0.01724,-0.00545 0.00545,-0.00181 0.00821,-0.010799 0.010027,-0.019879 0.00272,-0.00908 -0.00176,-0.013722 -0.00176,-0.013722 0,0 -0.00552,0.00908 -0.014601,0 -0.00113,-0.00113 -0.00227,-0.00152 -0.00334,-0.00158 z m -0.5986476,0.01161 -0.012666,0.00193 v 0.010731 l 0.012666,-0.00176 z m 2.0010629,0.070016 -0.00809,0.0044 c 9.192e-4,0.00181 8.511e-4,0.00469 0.00177,0.00651 0,0.00272 8.17e-4,0.0054 0.00266,0.00721 0.0018,9.089e-4 0.00379,0.00179 0.00651,8.783e-4 l -0.00177,-0.00862 c 2.978e-4,4.255e-4 0.00109,7.285e-4 0.00177,0.00141 v -0.00193 c 0,-0.00272 -9.873e-4,-0.00622 -0.00283,-0.00985 z m -0.00915,0.01636 -0.00809,0.00264 c 0.00272,0.00908 0.00545,0.018091 0.00545,0.018999 l 0.00809,-0.00352 c 0,0 -0.00364,-0.00904 -0.00545,-0.018119 z m -0.7080684,0.00985 v 0.029026 h 0.010907 v -0.029026 z m -0.3259753,0.00739 -0.012666,0.00721 0.00545,0.00809 0.011786,-0.00809 z m 0.9832035,0.020758 c -9.089e-4,0.00726 10e-4,0.016332 0.00827,0.01724 l 0.00177,-0.00897 c 0,0 -8.851e-4,-0.00376 -8.851e-4,-0.00739 z M 2.190901,2.303668 v 0.019175 z m 1.204332,0.00123 c -0.00272,3.404e-4 -0.00632,0.00328 -0.0095,0.0051 -0.00908,0.00545 -0.00545,0.028141 0,0.022694 0.00545,-0.00545 0.012638,9.1e-6 0.013546,-0.01724 4.527e-4,-0.00863 -0.00132,-0.010895 -0.00405,-0.010555 z M 0.81821877,2.4062314 v 0.015481 h 0.0117864 v 0.020055 h 0.008972 l -0.001759,-0.022693 -0.0117865,-0.00457 v -0.00827 z m 2.20424773,0.00827 -8.783e-4,0.013546 0.014601,8.783e-4 8.783e-4,-0.012666 z m -0.011786,0.032721 -0.00264,0.00897 c 9.09e-4,0 0.00173,0.00103 0.00264,0.00193 l 0.00193,0.00809 c -9.089e-4,9.089e-4 -0.00193,0.00173 -0.00193,0.00264 l 0.00633,0.00651 c 0.00454,-0.00726 0.00636,-0.011792 0.00545,-0.01724 -0.00181,-0.00817 -0.010879,-0.010907 -0.011786,-0.010907 z m -2.1171685,0.029907 0.0100275,0.027267 0.006333,0.013546 0.0117864,0.01724 0.01724,0.015481 0.005454,-0.010907 L 0.9343258,2.5170634 0.923419,2.5089734 0.916207,2.4880394 Z m 2.0044053,0.010027 c -0.00122,-2.252e-4 -0.00212,8.17e-5 -0.00246,8.783e-4 -0.00272,0.00636 -0.022694,0.00177 -0.022694,0.00721 0,0.00636 -0.01178,0.036428 -0.00633,0.047323 0.00636,0.010895 -0.00452,0.010743 -0.00633,0.021638 -0.00181,0.00908 -0.017353,0.027308 -0.013722,0.037296 l 0.013722,0.00633 0.00176,0.026388 c 0.018158,0.018158 0.077228,0.0026 0.077228,-0.00193 0,-0.00454 -0.00282,-0.056295 -0.00282,-0.056295 l -0.00721,-0.00721 -0.00176,-0.038175 c 0.00556,-0.017477 -0.020863,-0.041876 -0.029378,-0.043453 z m -0.077932,0.048554 c -0.00284,-3.405e-4 -0.0063,8.681e-4 -0.00721,0.00405 -0.00272,0.011803 -0.013523,0.018085 -0.019879,0.013546 -0.00636,-0.00454 0.00728,0.00737 0.010907,0.013722 0.00272,0.00636 0.011673,0.00636 0.015305,0 0.00272,-0.00636 0.00185,-0.020032 0.00457,-0.026388 0.00136,-0.00272 -8.579e-4,-0.00459 -0.00369,-0.00493 z m -0.9260303,0.2056508 -0.00897,0.00809 -0.00457,0.00369 0.00457,0.00369 0.010907,0.00721 0.00545,-0.00721 -0.00651,-0.00457 0.00457,-0.00369 z m 0.1071338,0.1097742 -0.00352,0.00827 0.00897,0.00457 -0.00264,0.00352 0.00633,0.00633 0.00721,-0.00721 0.00457,-0.00457 -0.00545,-0.00352 z m -0.7634825,0.078109 0.011786,0.01812 0.00176,0.013721 0.014601,0.00457 0.00633,0.00897 0.010907,-0.00633 -0.00809,-0.020055 -0.019175,-0.016184 z"
     style="display:inline;fill:url(#oomox);fill-opacity:1;stroke-width:0.00907918" />
  <metadata
     id="metadata2894">
    <rdf:RDF>
      <cc:Work
         rdf:about="">
        <dc:creator>
          <cc:Agent>
            <dc:title>dreifacherspass</dc:title>
          </cc:Agent>
        </dc:creator>
        <cc:license
           rdf:resource="http://creativecommons.org/licenses/by-sa/4.0/" />
      </cc:Work>
      <cc:License
         rdf:about="http://creativecommons.org/licenses/by-sa/4.0/">
        <cc:permits
           rdf:resource="http://creativecommons.org/ns#Reproduction" />
        <cc:permits
           rdf:resource="http://creativecommons.org/ns#Distribution" />
        <cc:requires
           rdf:resource="http://creativecommons.org/ns#Notice" />
        <cc:requires
           rdf:resource="http://creativecommons.org/ns#Attribution" />
        <cc:permits
           rdf:resource="http://creativecommons.org/ns#DerivativeWorks" />
        <cc:requires
           rdf:resource="http://creativecommons.org/ns#ShareAlike" />
      </cc:License>
    </rdf:RDF>
  </metadata>
</svg>
