<?xml version="1.0" encoding="UTF-8" standalone="no"?>
<!-- Created with Inkscape (http://www.inkscape.org/) -->

<svg
   width="16"
   height="16"
   viewBox="0 0 4.2333333 4.2333333"
   version="1.1"
   id="svg1"
   xmlns:xlink="http://www.w3.org/1999/xlink"
   xmlns="http://www.w3.org/2000/svg"
   xmlns:svg="http://www.w3.org/2000/svg"
   xmlns:rdf="http://www.w3.org/1999/02/22-rdf-syntax-ns#"
   xmlns:cc="http://creativecommons.org/ns#"
   xmlns:dc="http://purl.org/dc/elements/1.1/">
  <defs>
   <style id="current-color-scheme" type="text/css">
   .ColorScheme-Text { color: #0abdc6; } .ColorScheme-Highlight { color:#5294e2; }
  </style>
  <linearGradient id="arrongin" x1="0%" x2="0%" y1="0%" y2="100%">
   <stop offset="0%" style="stop-color:#dd9b44; stop-opacity:1"/>
   <stop offset="100%" style="stop-color:#ad6c16; stop-opacity:1"/>
  </linearGradient>
  <linearGradient id="aurora" x1="0%" x2="0%" y1="0%" y2="100%">
   <stop offset="0%" style="stop-color:#09D4DF; stop-opacity:1"/>
   <stop offset="100%" style="stop-color:#9269F4; stop-opacity:1"/>
  </linearGradient>
  <linearGradient id="cyberneon" x1="0%" x2="0%" y1="0%" y2="100%">
    <stop offset="0" style="stop-color:#0abdc6; stop-opacity:1"/>
    <stop offset="1" style="stop-color:#ea00d9; stop-opacity:1"/>
  </linearGradient>
  <linearGradient id="fitdance" x1="0%" x2="0%" y1="0%" y2="100%">
   <stop offset="0%" style="stop-color:#1AD6AB; stop-opacity:1"/>
   <stop offset="100%" style="stop-color:#329DB6; stop-opacity:1"/>
  </linearGradient>
  <linearGradient id="oomox" x1="0%" x2="0%" y1="0%" y2="100%">
   <stop offset="0%" style="stop-color:#0abdc6; stop-opacity:1"/>
   <stop offset="100%" style="stop-color:#b800ff; stop-opacity:1"/>
  </linearGradient>
  <linearGradient id="rainblue" x1="0%" x2="0%" y1="0%" y2="100%">
   <stop offset="0%" style="stop-color:#00F260; stop-opacity:1"/>
   <stop offset="100%" style="stop-color:#0575E6; stop-opacity:1"/>
  </linearGradient>
  <linearGradient id="sunrise" x1="0%" x2="0%" y1="0%" y2="100%">
   <stop offset="0%" style="stop-color: #FF8501; stop-opacity:1"/>
   <stop offset="100%" style="stop-color: #FFCB01; stop-opacity:1"/>
  </linearGradient>
  <linearGradient id="telinkrin" x1="0%" x2="0%" y1="0%" y2="100%">
   <stop offset="0%" style="stop-color: #b2ced6; stop-opacity:1"/>
   <stop offset="100%" style="stop-color: #6da5b7; stop-opacity:1"/>
  </linearGradient>
  <linearGradient id="60spsycho" x1="0%" x2="0%" y1="0%" y2="100%">
   <stop offset="0%" style="stop-color: #df5940; stop-opacity:1"/>
   <stop offset="25%" style="stop-color: #d8d15f; stop-opacity:1"/>
   <stop offset="50%" style="stop-color: #e9882a; stop-opacity:1"/>
   <stop offset="100%" style="stop-color: #279362; stop-opacity:1"/>
  </linearGradient>
  <linearGradient id="90ssummer" x1="0%" x2="0%" y1="0%" y2="100%">
   <stop offset="0%" style="stop-color: #f618c7; stop-opacity:1"/>
   <stop offset="20%" style="stop-color: #94ffab; stop-opacity:1"/>
   <stop offset="50%" style="stop-color: #fbfd54; stop-opacity:1"/>
   <stop offset="100%" style="stop-color: #0f83ae; stop-opacity:1"/>
  </linearGradient>
 </defs>
  <path
     d="M 3.5689508,2.6592437 C 3.0837076,3.1565789 2.3742617,3.4724533 1.7071545,3.2753871 1.3325283,3.1670162 0.969475,2.9484627 0.69913169,2.6561902 1.2122831,3.1308712 1.9287933,3.4399839 2.6015864,3.2230571 2.9575966,3.1185191 3.288929,2.905565 3.5689508,2.6592437 Z"
     id="path884"
     class="ColorScheme-Text"
     style="display:inline;fill:url(#oomox);stroke:url(#oomox);stroke-width:0.13335;stroke-dasharray:none" />
  <path
     d="M 0.70402431,2.7319842 C 1.1975252,2.2184206 1.939737,1.9304269 2.6137472,2.1430598 2.9703791,2.2532183 3.309313,2.4477183 3.5738487,2.7319842 3.0936167,2.3443832 2.5000636,2.0225342 1.8841877,2.1340743 1.4475934,2.2069993 1.0555286,2.4538228 0.70402431,2.7319842 Z"
     id="path886"
     class="ColorScheme-Text"
     style="display:inline;fill:url(#oomox);stroke:url(#oomox);stroke-width:0.13335;stroke-dasharray:none" />
  <ellipse
     cx="2.1166658"
     cy="2.1166663"
     style="display:inline;fill:none;stroke:url(#oomox);stroke-width:0.204179"
     id="circle2188"
     class="ColorScheme-Text"
     rx="2.0145764"
     ry="2.0145769" />
  <path
     style="display:inline;fill:url(#oomox);stroke-width:0.0476419"
     d="m 2.3276449,0.71462882 a 0.20418005,0.20418009 0 0 1 -0.2041801,0.20418009 0.20418005,0.20418009 0 0 1 -0.20418,-0.20418009 0.20418005,0.20418009 0 0 1 0.20418,-0.2041801 0.20418005,0.20418009 0 0 1 0.2041801,0.2041801 z"
     id="path5"
     class="ColorScheme-Text"/>
  <path
     style="display:inline;fill:url(#oomox);stroke-width:0.0476419"
     d="M 3.7433043,2.1165884 A 0.20418005,0.20418009 0 0 1 3.5391243,2.3207685 0.20418005,0.20418009 0 0 1 3.3349442,2.1165884 0.20418005,0.20418009 0 0 1 3.5391243,1.9124083 0.20418005,0.20418009 0 0 1 3.7433043,2.1165884 Z"
     id="path4"
     class="ColorScheme-Text"/>
  <path
     style="display:inline;fill:url(#oomox);stroke-width:0.0476419"
     d="M 3.3349476,1.1296926 A 0.20418005,0.20418009 0 0 1 3.1307676,1.3338727 0.20418005,0.20418009 0 0 1 2.9265875,1.1296926 0.20418005,0.20418009 0 0 1 3.1307676,0.92551249 0.20418005,0.20418009 0 0 1 3.3349476,1.1296926 Z"
     id="path3"
     class="ColorScheme-Text"/>
  <path
     style="display:inline;fill:url(#oomox);stroke-width:0.0476419"
     d="M 0.91881596,2.1166663 A 0.20418005,0.20418009 0 0 1 0.71463591,2.3208464 0.20418005,0.20418009 0 0 1 0.51045586,2.1166663 0.20418005,0.20418009 0 0 1 0.71463591,1.9124862 0.20418005,0.20418009 0 0 1 0.91881596,2.1166663 Z"
     id="path2"
     class="ColorScheme-Text"/>
  <path
     style="display:inline;fill:url(#oomox);stroke-width:0.0476419"
     d="M 1.3407864,1.129795 A 0.20418005,0.20418009 0 0 1 1.1366063,1.333975 0.20418005,0.20418009 0 0 1 0.93242629,1.129795 0.20418005,0.20418009 0 0 1 1.1366063,0.92561486 0.20418005,0.20418009 0 0 1 1.3407864,1.129795 Z"
     id="path1"
     class="ColorScheme-Text"/>
  <path
     style="display:inline;fill:url(#oomox);stroke-width:0.0476419"
     d="m 2.0213384,3.5226624 h 0.2177921 c 0.1131157,0 0.20418,0.091064 0.20418,0.20418 v 0.00681 c 0,0.1131157 -0.091064,0.20418 -0.20418,0.20418 H 2.0213384 c -0.1131158,0 -0.2041801,-0.091064 -0.2041801,-0.20418 v -0.00681 c 0,-0.1131157 0.091064,-0.20418 0.2041801,-0.20418 z"
     id="rect2194"
     class="ColorScheme-Text"/>
  <metadata
     id="metadata1">
    <rdf:RDF>
      <cc:Work
         rdf:about="">
        <dc:creator>
          <cc:Agent>
            <dc:title>dreifacherspass</dc:title>
          </cc:Agent>
        </dc:creator>
        <cc:license
           rdf:resource="http://creativecommons.org/licenses/by-sa/4.0/" />
      </cc:Work>
      <cc:License
         rdf:about="http://creativecommons.org/licenses/by-sa/4.0/">
        <cc:permits
           rdf:resource="http://creativecommons.org/ns#Reproduction" />
        <cc:permits
           rdf:resource="http://creativecommons.org/ns#Distribution" />
        <cc:requires
           rdf:resource="http://creativecommons.org/ns#Notice" />
        <cc:requires
           rdf:resource="http://creativecommons.org/ns#Attribution" />
        <cc:permits
           rdf:resource="http://creativecommons.org/ns#DerivativeWorks" />
        <cc:requires
           rdf:resource="http://creativecommons.org/ns#ShareAlike" />
      </cc:License>
    </rdf:RDF>
  </metadata>
  <path
     d="m 1.939616,2.6650169 c 0,-0.09863 0.079971,-0.1785931 0.1785926,-0.1785931 0.098631,0 0.1785923,0.07997 0.1785923,0.1785931 0,0.09863 -0.079971,0.1785923 -0.1785923,0.1785923 -0.098631,0 -0.1785926,-0.07997 -0.1785926,-0.1785923 z"
     id="path1-7"
     class="ColorScheme-Text"
     style="display:none;fill:url(#oomox);stroke-width:0.0793747" />
  <path
     id="path31"
     class="ColorScheme-Text"
     style="opacity:1;fill:url(#oomox);stroke:#ffffff;stroke-width:0.142653;stroke-dasharray:none;stroke-opacity:0"
     d="M 2.1166667 2.3042521 A 0.39169437 0.39169416 0 0 0 1.7249593 2.6959595 A 0.39169437 0.39169416 0 0 0 2.1166667 3.0876668 A 0.39169437 0.39169416 0 0 0 2.508374 2.6959595 A 0.39169437 0.39169416 0 0 0 2.1166667 2.3042521 z M 2.1166667 2.6101766 A 0.085597254 0.085597418 0 0 1 2.2024495 2.6959595 A 0.085597254 0.085597418 0 0 1 2.1166667 2.7812256 A 0.085597254 0.085597418 0 0 1 2.0308838 2.6959595 A 0.085597254 0.085597418 0 0 1 2.1166667 2.6101766 z " />
</svg>
