<?xml version="1.0" encoding="UTF-8" standalone="no"?>
<!-- Created with Inkscape (http://www.inkscape.org/) -->

<svg
   id="svg1307"
   viewBox="0 0 16.000001 16"
   version="1.1"
   width="16"
   height="16"
   xmlns="http://www.w3.org/2000/svg"
   xmlns:svg="http://www.w3.org/2000/svg"
   xmlns:rdf="http://www.w3.org/1999/02/22-rdf-syntax-ns#"
   xmlns:cc="http://creativecommons.org/ns#"
   xmlns:dc="http://purl.org/dc/elements/1.1/">
  <defs
     id="defs10">
    <style
       id="current-color-scheme"
       type="text/css">&#10;      .ColorScheme-Text { color: #0abdc6; } .ColorScheme-Highlight { color:#5294e2; }&#10;     </style>
    <linearGradient
       id="arrongin"
       x1="0"
       x2="0"
       y1="0"
       y2="1">
      <stop
         offset="0%"
         style="stop-color:#dd9b44; stop-opacity:1"
         id="stop9192" />
      <stop
         offset="100%"
         style="stop-color:#ad6c16; stop-opacity:1"
         id="stop9194" />
    </linearGradient>
    <linearGradient
       id="aurora"
       x1="0"
       x2="0"
       y1="0"
       y2="1">
      <stop
         offset="0%"
         style="stop-color:#09D4DF; stop-opacity:1"
         id="stop9197" />
      <stop
         offset="100%"
         style="stop-color:#9269F4; stop-opacity:1"
         id="stop9199" />
    </linearGradient>
    <linearGradient
       id="cyberneon"
       x1="0"
       x2="0"
       y1="0"
       y2="1">
      <stop
         offset="0"
         style="stop-color:#0abdc6; stop-opacity:1"
         id="stop9202" />
      <stop
         offset="1"
         style="stop-color:#ea00d9; stop-opacity:1"
         id="stop9204" />
    </linearGradient>
    <linearGradient
       id="fitdance"
       x1="0"
       x2="0"
       y1="0"
       y2="1">
      <stop
         offset="0%"
         style="stop-color:#1AD6AB; stop-opacity:1"
         id="stop9207" />
      <stop
         offset="100%"
         style="stop-color:#329DB6; stop-opacity:1"
         id="stop9209" />
    </linearGradient>
    <linearGradient
       id="oomox"
       x1="350.61002"
       x2="350.61002"
       y1="-44.049"
       y2="2.9510007"
       gradientUnits="userSpaceOnUse">
      <stop
         offset="0%"
         style="stop-color:#0abdc6; stop-opacity:1"
         id="stop9212" />
      <stop
         offset="100%"
         style="stop-color:#b800ff; stop-opacity:1"
         id="stop9214" />
    </linearGradient>
    <linearGradient
       id="rainblue"
       x1="0"
       x2="0"
       y1="0"
       y2="1">
      <stop
         offset="0%"
         style="stop-color:#00F260; stop-opacity:1"
         id="stop9217" />
      <stop
         offset="100%"
         style="stop-color:#0575E6; stop-opacity:1"
         id="stop9219" />
    </linearGradient>
    <linearGradient
       id="sunrise"
       x1="0"
       x2="0"
       y1="0"
       y2="1">
      <stop
         offset="0%"
         style="stop-color: #FF8501; stop-opacity:1"
         id="stop9222" />
      <stop
         offset="100%"
         style="stop-color: #FFCB01; stop-opacity:1"
         id="stop9224" />
    </linearGradient>
    <linearGradient
       id="telinkrin"
       x1="0"
       x2="0"
       y1="0"
       y2="1">
      <stop
         offset="0%"
         style="stop-color: #b2ced6; stop-opacity:1"
         id="stop9227" />
      <stop
         offset="100%"
         style="stop-color: #6da5b7; stop-opacity:1"
         id="stop9229" />
    </linearGradient>
    <linearGradient
       id="60spsycho"
       x1="0"
       x2="0"
       y1="0"
       y2="1">
      <stop
         offset="0%"
         style="stop-color: #df5940; stop-opacity:1"
         id="stop9232" />
      <stop
         offset="25%"
         style="stop-color: #d8d15f; stop-opacity:1"
         id="stop9234" />
      <stop
         offset="50%"
         style="stop-color: #e9882a; stop-opacity:1"
         id="stop9236" />
      <stop
         offset="100%"
         style="stop-color: #279362; stop-opacity:1"
         id="stop9238" />
    </linearGradient>
    <linearGradient
       id="90ssummer"
       x1="0"
       x2="0"
       y1="0"
       y2="1">
      <stop
         offset="0%"
         style="stop-color: #f618c7; stop-opacity:1"
         id="stop9241" />
      <stop
         offset="20%"
         style="stop-color: #94ffab; stop-opacity:1"
         id="stop9243" />
      <stop
         offset="50%"
         style="stop-color: #fbfd54; stop-opacity:1"
         id="stop9245" />
      <stop
         offset="100%"
         style="stop-color: #0f83ae; stop-opacity:1"
         id="stop9247" />
    </linearGradient>
  </defs>
  <g
     id="layer1"
     transform="matrix(0.34042553,0,0,0.34042553,-119.3566,14.995404)">
    <path
       id="path3755"
       class="ColorScheme-Text"
       style="fill:url(#oomox);fill-opacity:1;fill-rule:evenodd;stroke-width:1.20808"
       d="m 374.02397,-44.049001 c -7.89826,-3e-6 -14.88585,4.970914 -16.40822,12.781372 -0.72384,-0.866319 -1.56258,-1.388651 -2.48174,-1.388651 -2.4999,0 -4.52401,3.699765 -4.52401,8.296333 0,4.596695 2.02411,8.336092 4.52401,8.336092 0.18075,0 0.36338,-0.0017 0.53857,-0.03969 -2.79931,9.1690024 5.33345,19.0145457 18.34766,19.0145457 13.04753,2.03e-5 21.212,-9.9042297 18.34765,-19.0933017 0.23726,0.07087 0.46995,0.119087 0.7181,0.119087 2.4999,0 4.52401,-3.739397 4.52401,-8.336092 0,-4.596695 -2.02411,-8.296331 -4.52401,-8.296331 -0.98723,0 -1.87762,0.606499 -2.62099,1.587826 -1.44309,-7.92313 -8.48044,-12.980802 -16.44384,-12.980802 z m -7.10915,6.351307 c 0.13244,-0.0091 0.29676,0 0.43085,0 2.81598,0 5.31438,2.025941 6.6783,5.041414 1.36393,-3.015473 3.82637,-5.041414 6.64234,-5.041414 4.29111,0 7.71959,4.395487 7.71959,10.162093 0,2.432805 -0.57684,4.972057 -1.61566,6.748265 2.42809,2.242392 3.91587,4.054674 3.91357,8.296331 -0.003,7.123374 -6.31925,12.89950725 -16.65984,12.90077745 -10.34059,0.00216 -16.65639,-5.77765755 -16.65984,-12.90077745 -0.002,-4.241657 1.44964,-6.054067 3.87772,-8.296331 -1.03887,-1.776208 -1.57981,-4.31546 -1.57981,-6.748265 0,-5.586356 3.14733,-9.882126 7.25278,-10.162093 z m -11.1305,7.661202 c 0.56749,0 1.10551,0.236752 1.57981,0.635131 -0.2011,2.513975 0.13311,5.268918 1.14895,8.217067 -0.66939,0.789404 -1.22133,1.594433 -1.68758,2.421373 -0.32679,0.169542 -0.68165,0.27787 -1.04124,0.27787 -1.91784,0 -3.44686,-2.598829 -3.44686,-5.795568 0,-3.19674 1.52902,-5.755809 3.44686,-5.755809 z m 36.65854,0 c 1.91784,0 3.44687,2.559196 3.44687,5.75581 0,3.196739 -1.52903,5.795567 -3.44687,5.795567 -0.45226,0 -0.89545,-0.134139 -1.29257,-0.396956 -0.45269,-0.785276 -0.97902,-1.551497 -1.61566,-2.302349 0.99475,-2.886924 1.32371,-5.586356 1.14895,-8.058286 0.51616,-0.498044 1.11972,-0.793914 1.75928,-0.793914 z m -24.09357,0.476348 c -1.77066,0 -3.19548,1.819141 -3.19548,4.048958 0,2.229818 1.42494,4.048959 3.19548,4.048959 1.77065,0 3.19547,-1.819141 3.19547,-4.048959 0,-2.229817 -1.42494,-4.048958 -3.19547,-4.048958 z m 11.2023,0 c -1.77065,0 -3.23143,1.819141 -3.23143,4.048958 0,2.229818 1.46078,4.048959 3.23143,4.048959 1.77066,0 3.19548,-1.819141 3.19548,-4.048959 0,-2.229817 -1.42494,-4.048958 -3.19548,-4.048958 z m -10.77145,0.674827 c 0.66298,0 1.22077,0.576978 1.22077,1.309894 0,0.732978 -0.55779,1.349652 -1.22077,1.349652 -0.66298,0 -1.1848,-0.616674 -1.1848,-1.349652 0,-0.73298 0.52188,-1.309894 1.1848,-1.309894 z m 11.20231,0 c 0.66298,0 1.1848,0.576978 1.1848,1.309894 0,0.732978 -0.52188,1.349652 -1.1848,1.349652 -0.66298,0 -1.22076,-0.616674 -1.22076,-1.349652 0,-0.73298 0.55778,-1.309894 1.22076,-1.309894 z m 5.45754,15.799512 a 0.76939747,0.85063064 0 0 0 -0.45959,0.278187 c -3.41664,2.450081 -6.87902,4.1477867 -10.48421,4.4062846 -3.60772,0.2578634 -7.37629,-0.9196692 -11.60444,-4.4065376 a 0.76939747,0.85063064 0 0 0 -0.61038,-0.158783 0.76939747,0.85063064 0 0 0 -0.32315,1.548195 c 4.44956,3.6746131 8.66037,5.0088959 12.63851,4.7238497 3.97814,-0.2851491 7.66364,-2.1862474 11.2023,-4.7238497 a 0.77507881,0.85691181 0 0 0 -0.35904,-1.667219 z" />
  </g>
  <metadata
     id="metadata7">
    <rdf:RDF>
      <cc:Work>
        <dc:format>image/svg+xml</dc:format>
        <dc:type
           rdf:resource="http://purl.org/dc/dcmitype/StillImage" />
        <cc:license
           rdf:resource="http://creativecommons.org/licenses/by-sa/4.0/" />
        <dc:publisher>
          <cc:Agent
             rdf:about="http://openclipart.org/">
            <dc:title>Openclipart</dc:title>
          </cc:Agent>
        </dc:publisher>
        <dc:source>https://openclipart.org/detail/102055/funny-monkey-face-simple-path-by-martouf</dc:source>
        <dc:creator>
          <cc:Agent>
            <dc:title>Martouf</dc:title>
          </cc:Agent>
        </dc:creator>
        <dc:contributor>
          <cc:Agent>
            <dc:title>dreifacherspass</dc:title>
          </cc:Agent>
        </dc:contributor>
      </cc:Work>
      <cc:License
         rdf:about="http://creativecommons.org/licenses/by-sa/4.0/">
        <cc:permits
           rdf:resource="http://creativecommons.org/ns#Reproduction" />
        <cc:permits
           rdf:resource="http://creativecommons.org/ns#Distribution" />
        <cc:requires
           rdf:resource="http://creativecommons.org/ns#Notice" />
        <cc:requires
           rdf:resource="http://creativecommons.org/ns#Attribution" />
        <cc:permits
           rdf:resource="http://creativecommons.org/ns#DerivativeWorks" />
        <cc:requires
           rdf:resource="http://creativecommons.org/ns#ShareAlike" />
      </cc:License>
    </rdf:RDF>
  </metadata>
</svg>
