<?xml version="1.0" encoding="UTF-8" standalone="no"?>
<svg
   xml:space="preserve"
   width="64"
   height="64"
   overflow="visible"
   viewBox="0 0 256 256"
   version="1.1"
   id="svg2174"
   sodipodi:docname="konqueror.svg"
   inkscape:version="1.2.2 (b0a8486541, 2022-12-01)"
   xmlns:inkscape="http://www.inkscape.org/namespaces/inkscape"
   xmlns:sodipodi="http://sodipodi.sourceforge.net/DTD/sodipodi-0.dtd"
   xmlns:xlink="http://www.w3.org/1999/xlink"
   xmlns="http://www.w3.org/2000/svg"
   xmlns:svg="http://www.w3.org/2000/svg"><defs
   id="defs2178"><linearGradient
     id="oomox"
     x1="0"
     x2="0"
     y1="0"
     y2="1"><stop
       offset="0%"
       style="stop-color:#0abdc6; stop-opacity:1"
       id="stop9212" /><stop
       offset="100%"
       style="stop-color:#b800ff; stop-opacity:1"
       id="stop9214" /></linearGradient><linearGradient
     inkscape:collect="always"
     xlink:href="#oomox"
     id="linearGradient550"
     x1="1.031"
     y1="1"
     x2="1.031"
     y2="15"
     gradientUnits="userSpaceOnUse" /><linearGradient
     inkscape:collect="always"
     xlink:href="#oomox"
     id="linearGradient552"
     x1="2.156"
     y1="2.188"
     x2="2.156"
     y2="13.813"
     gradientUnits="userSpaceOnUse" /><linearGradient
     inkscape:collect="always"
     xlink:href="#oomox"
     id="linearGradient2800"
     x1="7.296"
     y1="125.78938"
     x2="246.7773"
     y2="125.78938"
     gradientUnits="userSpaceOnUse"
     gradientTransform="matrix(1.0265277,0,0,1.0265277,-3.4904436,-0.46311924)" /><linearGradient
     inkscape:collect="always"
     xlink:href="#oomox"
     id="linearGradient2816"
     x1="7.296"
     y1="125.78938"
     x2="246.7773"
     y2="125.78938"
     gradientUnits="userSpaceOnUse"
     gradientTransform="matrix(1.0265277,0,0,1.0265277,-3.4904436,-0.46311924)" /><linearGradient
     inkscape:collect="always"
     xlink:href="#oomox"
     id="linearGradient2824"
     x1="73.82959"
     y1="111.94046"
     x2="205.242"
     y2="111.94046"
     gradientUnits="userSpaceOnUse"
     gradientTransform="matrix(1.0265277,0,0,1.0265277,-3.4904436,-0.46311924)" /></defs><sodipodi:namedview
   id="namedview2176"
   pagecolor="#ffffff"
   bordercolor="#000000"
   borderopacity="0.25"
   inkscape:showpageshadow="2"
   inkscape:pageopacity="0.0"
   inkscape:pagecheckerboard="0"
   inkscape:deskcolor="#d1d1d1"
   showgrid="false"
   inkscape:zoom="3.6875"
   inkscape:cx="30.101695"
   inkscape:cy="32"
   inkscape:window-width="1680"
   inkscape:window-height="1018"
   inkscape:window-x="0"
   inkscape:window-y="0"
   inkscape:window-maximized="1"
   inkscape:current-layer="g2172" />
  
  <g
   stroke="#000000"
   id="g2172"
   transform="translate(1.0839987,-0.66488757)">
    <path
   id="path2100"
   style="fill:url(#linearGradient2816);fill-opacity:1;stroke:url(#linearGradient2800);stroke-width:1.02652"
   d="M 58.831006,4.6695188 55.767463,7.7330614 32.967325,30.533199 c 0,0 21.990595,32.147128 25.093784,36.682323 -3.230476,5.700301 -5.844213,11.702164 -7.81925,17.932152 -5.097734,1.079904 -45.7285961,9.687853 -45.7285961,9.687853 v 36.698353 c 0,0 39.6095321,7.26375 44.9987961,8.2523 1.917555,6.67963 4.560997,13.11057 7.907469,19.21539 -3.229451,4.529 -27.267135,38.26216 -27.267134,38.26216 l 26.360904,27.82853 c 0,0 34.288208,-25.03415 38.83161,-28.34979 5.567882,3.01592 11.405792,5.46251 17.450962,7.29793 0.88379,5.52683 7.80319,48.7761 7.80319,48.77611 h 38.158 c 0,0 6.79392,-42.81755 7.68289,-48.41517 6.39733,-1.84572 12.57164,-4.36599 18.44541,-7.52252 4.51878,3.31155 38.6151,28.29362 38.6151,28.29362 l 25.6712,-28.61443 c 0,0 -25.5495,-34.84139 -26.72181,-36.44176 7.99155,-14.1281 12.25417,-30.08302 12.25417,-46.42629 0,-52.083911 -42.37861,-94.456581 -94.46455,-94.456581 -15.70693,0 -31.12955,3.962144 -44.86248,11.388039 C 90.896203,27.439186 58.831006,4.6695188 58.831006,4.6695188 Z M 140.23947,37.374041 c 42.15328,0 76.32392,34.165705 76.32392,76.315919 0,42.15228 -34.16963,76.32397 -76.32392,76.32397 -42.150224,0 -76.315926,-34.17169 -76.315926,-76.32397 -9.88e-4,-42.150214 34.165702,-76.315919 76.315926,-76.315919 z" />


    <radialGradient
   id="e"
   cx="-102.7876"
   cy="511.35449"
   r="89.141197"
   fx="-102.7876"
   fy="511.35449"
   gradientTransform="matrix(1,0,0,-1,224.5,604.5)"
   gradientUnits="userSpaceOnUse">
      <stop
   offset="0"
   stop-color="#6095c1"
   id="stop2140" />
      <stop
   offset=".5562"
   stop-color="#567eb9"
   id="stop2142" />
      <stop
   offset="1"
   stop-color="#0e2b8d"
   id="stop2144" />
    </radialGradient>
    <path
   fill="url(#e)"
   stroke="none"
   d="m 117.06393,52.111514 c -0.34081,0 -0.71341,0.140637 -1.09525,0.35723 0.8961,-0.263815 1.31897,-0.35723 1.09525,-0.35723 z m 22.19866,4.331947 0.22374,-3.246904 -3.42751,0.215566 0.45369,3.031338 z m -38.67545,56.121319 c -0.687781,-0.64985 -0.2279,-3.46867 -0.2279,-3.46867 0,0 -10.300175,-5.41281 -21.512937,-8.66594 -1.383759,-0.40138 -0.684692,-3.247936 0.68264,-4.327845 L 79.073169,93.0597 c -0.226866,-1.512075 2.290181,-8.877414 4.808252,-9.524124 2.518075,-0.653897 -0.228919,4.32989 -0.228919,4.32989 l -2.517043,1.517212 c 0,0 2.972825,3.464528 3.663679,3.464528 0.684694,0 1.828243,-1.733804 1.828243,-1.733804 l -3.202765,-2.160841 2.97488,-1.30369 0.186827,-1.142525 0.498892,-0.158083 4.925277,-7.459775 c 3.40294,-1.393001 7.587068,-3.118593 8.118798,-3.374196 0.91671,-0.43012 7.32325,-4.110219 8.46778,-4.978661 1.14673,-0.869469 3.65863,-0.64979 4.57216,-0.64979 0.91984,0 2.29225,-0.434224 2.52011,-2.821926 0.22898,-2.382574 1.14574,-2.816791 1.83346,-2.164947 0.68567,0.646712 -0.68881,1.731752 0.91461,2.164947 1.60239,0.435248 2.9728,1.518233 4.11953,0.435248 0.83659,-0.794533 -0.28232,-1.696851 -1.03686,-2.37949 h 12.70636 l 1.3755,-3.906966 -2.97488,-0.433193 -10.98996,-1.082988 v -1.300609 l -0.87559,0.147821 c 1.18968,-6.536929 8.25634,-5.460102 2.93685,-9.243884 -0.32331,-0.231993 -4.97761,7.333516 -6.1602,7.18672 -2.14542,-0.283321 -4.91804,-0.304875 -5.51038,0.392133 -0.77908,0.920797 1.75534,-3.168887 3.93982,-4.409963 -3.48506,1.027555 -14.49661,4.793886 -26.137452,17.194339 -11.128587,11.855365 -15.56421,27.825054 -15.56421,28.383485 0,1.081971 2.290184,1.517197 2.5191,2.818832 0.227889,1.29448 -4.346319,5.63155 -4.346319,7.79851 0,0.99783 -1.080932,14.35295 2.741857,25.35427 4.466419,12.83981 13.996701,23.5608 15.105352,24.26704 l 2.287102,-1.0881 c 0,0 -5.263005,-9.31363 -5.490895,-10.18417 -0.22789,-0.8633 5.949753,-13.43212 8.925656,-12.99477 2.972818,0.42599 2.289154,1.29954 4.119459,0.21453 1.8303,-1.08198 2.97385,-9.9697 5.03305,-10.82992 2.06127,-0.87147 4.34842,-1.95236 4.12356,-4.11943 -0.23204,-2.17315 -8.01206,-6.0688 -8.69672,-6.71858 z m 49.66028,-63.70325 -6.17764,-2.169054 1.14352,3.469661 z m -23.11535,8.017177 c 0.68877,0 14.41966,-9.097082 13.04519,-9.316762 -1.37041,-0.214546 -1.60148,0 -5.2671,-0.433194 -3.65862,-0.434221 -7.55319,5.200385 -8.46483,6.068831 -0.91353,0.86844 -0.60661,3.681125 0.68674,3.681125 z m 63.00933,65.330243 1.77279,-2.2984 -1.77279,-0.62409 -1.32835,1.67226 -1.55007,2.29116 1.32833,0.62929 z m 7.75028,7.5224 -0.44451,-3.34241 h -2.87322 l -0.22278,2.50272 -2.66282,-0.41163 -0.66105,-2.71829 -1.32834,-0.83349 -1.55414,1.87651 -1.546,-0.41476 -0.44652,1.45667 1.7738,0.42391 v 13.57072 l 6.26801,1.50999 c -0.14371,0.25152 -0.2525,0.46092 -0.28847,0.57594 -0.44757,1.46481 1.76976,2.09615 3.31676,1.46481 0.57894,-0.23197 2.401,-2.07353 3.54562,-4.79794 1.59624,-3.79511 2.99022,-8.80553 3.27052,-10.57842 l 0.71751,-1.53355 -4.43047,1.668 -2.43701,-0.4146 z m 9.30444,-25.27005 -1.15587,-2.23983 C 204.66983,94.497865 201.52762,84.606245 194.79569,74.389213 184.66277,59.028258 156.47029,50.168297 156.47029,50.168297 l -1.54704,1.875466 -0.88685,-1.456641 -2.21638,-0.838674 v 1.879572 l 1.99565,1.673242 -1.32933,0.625152 -5.09572,0.415747 -11.51765,6.266949 1.10354,5.010481 -1.33039,0.420877 -0.66008,1.041925 3.76432,5.635635 0.22277,1.882653 -3.1012,0.625153 v 3.757091 l -1.77075,0.41677 0.22276,2.925605 -15.06531,10.445944 0.44244,5.840941 c 1.10559,1.463835 9.7489,10.237525 9.7489,10.237525 0,0 9.96351,0.41163 12.17977,-0.83763 2.21527,-1.25241 0.66414,1.25142 1.3304,1.87862 0.66313,0.63125 0.88487,5.01042 1.548,5.43131 0.66312,0.4157 0,2.91943 0.88592,3.76012 0.88593,0.82943 0.88593,10.86178 0.88593,10.86178 0,0 5.31637,8.97287 5.31637,11.27328 0,2.29636 -0.22174,2.08693 3.98906,1.8806 4.20877,-0.2094 5.0926,-1.8806 5.9764,-2.50369 0.89,-0.62827 0.89,-2.09002 1.77587,-3.34552 0.88801,-1.25539 2.43289,-6.05443 4.42951,-7.72354 1.99146,-1.67528 7.30784,-2.92868 7.74927,-5.84812 0.44343,-2.92461 2.43592,-5.22301 2.43592,-5.22301 l 9.57754,-10.1307 -0.26998,1.36316 -0.22278,5.21574 2.88041,-1.04182 -0.22069,-5.64181 -1.03573,-1.09428 0.14885,-0.15811 c 0,0 -0.66624,-1.25034 -1.55006,-1.25034 -0.8859,0 -6.20538,1.25034 -7.08818,1.04392 -0.88694,-0.21038 -4.6553,-10.234414 -5.31943,-10.648105 -0.66419,-0.418825 -4.87093,-7.311958 -4.87093,-7.311958 0,0 9.74486,11.696253 11.29487,16.287873 0.90028,2.6741 4.28065,0.18476 7.03172,-2.60733 l 0.7268,1.77492 1.76973,-0.42298 -0.22173,-2.08696 h 1.99248 v 3.13295 l -0.66414,1.67121 -0.2279,2.71312 1.77484,1.67428 0.88903,-1.45974 2.87322,-2.71728 3.32595,-1.67116 0.88592,1.67116 0.44445,2.29839 -0.88897,2.50385 -1.77077,1.46279 -0.8859,3.76011 v 1.87444 l -1.99042,-1.25132 -0.22174,-3.96444 -2.87938,0.21138 -1.32833,3.54367 1.99353,2.92966 4.64913,0.62618 3.76837,-3.55584 0.44141,-6.88495 1.6753,-2.21213 c 1.09121,2.80543 1.87032,5.74234 1.87032,8.47703 0,2.99851 1.37041,-2.07769 0.20429,-11.22103 z m -55.8195,-21.300407 -11.96006,-0.423954 5.09157,-4.174892 h 2.6597 l 4.20879,2.920471 z m 14.62183,-1.460748 v 1.879571 h -5.09359 l 0.44243,1.253389 -3.1032,0.421905 -0.21963,1.039873 -2.21427,-0.414716 -3.98908,-0.8397 0.66523,-1.04193 0.66519,-1.258519 2.21317,-2.293262 0.88688,1.672213 3.3239,-0.210438 1.77074,-1.880598 6.86439,1.25339 -2.21216,0.420877 z m 0.43941,-2.71722 -2.65565,0.41677 -0.44241,-1.881624 3.31771,-0.415742 0.44652,-1.878547 2.44005,2.508836 -3.10622,1.247226 z m 12.85005,64.940145 -1.55311,1.25337 0.2207,3.1382 h 1.99451 v -2.71212 l 1.77486,-2.30149 v -4.80204 l -1.10861,-0.21454 -1.32627,5.63862 z m -14.83745,-6.2567 c 0,0 -1.55204,0.40865 0.21868,1.04097 1.76976,0.62926 8.8589,-10.22731 8.8589,-10.22731 l -5.98056,3.75397 -3.10005,5.43237 z m -12.05863,40.02335 -1.32414,-1.26164 -2.65977,-0.42498 -0.44146,1.26473 -3.54145,-0.41681 -0.22275,-1.68247 h -2.65669 l -2.8784,1.68247 h -5.09153 l -0.44139,-1.26365 -8.19072,-0.84383 -1.33034,1.26059 -3.31876,-0.83455 -0.44244,-2.94921 -1.54905,-0.21451 -1.77185,3.16372 -5.97535,-0.21246 c 1.06765,0.50603 9.99423,5.83066 23.68197,6.94546 18.15311,1.46694 26.78825,-2.94717 26.78825,-2.94717 l -0.66415,-0.63233 -7.97099,-0.62929 v -0.004 z"
   id="path2147"
   style="display:inline;fill:url(#linearGradient2824);fill-opacity:1;stroke-width:1.02652" />
  </g>
</svg>
