<?xml version="1.0" encoding="UTF-8" standalone="no"?>
<svg
   xml:space="preserve"
   width="16"
   height="16"
   overflow="visible"
   viewBox="0 0 64 64"
   version="1.1"
   id="svg2174"
   xmlns="http://www.w3.org/2000/svg"
   xmlns:svg="http://www.w3.org/2000/svg"
   xmlns:rdf="http://www.w3.org/1999/02/22-rdf-syntax-ns#"
   xmlns:cc="http://creativecommons.org/ns#"
   xmlns:dc="http://purl.org/dc/elements/1.1/">
  <defs>
   <style id="current-color-scheme" type="text/css">
   .ColorScheme-Text { color: #0abdc6; } .ColorScheme-Highlight { color:#5294e2; }
  </style>
  <linearGradient id="arrongin" x1="0%" x2="0%" y1="0%" y2="100%">
   <stop offset="0%" style="stop-color:#dd9b44; stop-opacity:1"/>
   <stop offset="100%" style="stop-color:#ad6c16; stop-opacity:1"/>
  </linearGradient>
  <linearGradient id="aurora" x1="0%" x2="0%" y1="0%" y2="100%">
   <stop offset="0%" style="stop-color:#09D4DF; stop-opacity:1"/>
   <stop offset="100%" style="stop-color:#9269F4; stop-opacity:1"/>
  </linearGradient>
  <linearGradient id="cyberneon" x1="0%" x2="0%" y1="0%" y2="100%">
    <stop offset="0" style="stop-color:#0abdc6; stop-opacity:1"/>
    <stop offset="1" style="stop-color:#ea00d9; stop-opacity:1"/>
  </linearGradient>
  <linearGradient id="fitdance" x1="0%" x2="0%" y1="0%" y2="100%">
   <stop offset="0%" style="stop-color:#1AD6AB; stop-opacity:1"/>
   <stop offset="100%" style="stop-color:#329DB6; stop-opacity:1"/>
  </linearGradient>
  <linearGradient id="oomox" x1="0%" x2="0%" y1="0%" y2="100%">
   <stop offset="0%" style="stop-color:#0abdc6; stop-opacity:1"/>
   <stop offset="100%" style="stop-color:#b800ff; stop-opacity:1"/>
  </linearGradient>
  <linearGradient id="rainblue" x1="0%" x2="0%" y1="0%" y2="100%">
   <stop offset="0%" style="stop-color:#00F260; stop-opacity:1"/>
   <stop offset="100%" style="stop-color:#0575E6; stop-opacity:1"/>
  </linearGradient>
  <linearGradient id="sunrise" x1="0%" x2="0%" y1="0%" y2="100%">
   <stop offset="0%" style="stop-color: #FF8501; stop-opacity:1"/>
   <stop offset="100%" style="stop-color: #FFCB01; stop-opacity:1"/>
  </linearGradient>
  <linearGradient id="telinkrin" x1="0%" x2="0%" y1="0%" y2="100%">
   <stop offset="0%" style="stop-color: #b2ced6; stop-opacity:1"/>
   <stop offset="100%" style="stop-color: #6da5b7; stop-opacity:1"/>
  </linearGradient>
  <linearGradient id="60spsycho" x1="0%" x2="0%" y1="0%" y2="100%">
   <stop offset="0%" style="stop-color: #df5940; stop-opacity:1"/>
   <stop offset="25%" style="stop-color: #d8d15f; stop-opacity:1"/>
   <stop offset="50%" style="stop-color: #e9882a; stop-opacity:1"/>
   <stop offset="100%" style="stop-color: #279362; stop-opacity:1"/>
  </linearGradient>
  <linearGradient id="90ssummer" x1="0%" x2="0%" y1="0%" y2="100%">
   <stop offset="0%" style="stop-color: #f618c7; stop-opacity:1"/>
   <stop offset="20%" style="stop-color: #94ffab; stop-opacity:1"/>
   <stop offset="50%" style="stop-color: #fbfd54; stop-opacity:1"/>
   <stop offset="100%" style="stop-color: #0f83ae; stop-opacity:1"/>
  </linearGradient>
 </defs>
 <path
   id="path2100"
   class="ColorScheme-Text"
   style="fill:url(#oomox);fill-opacity:1;stroke:none;stroke-width:0.264761"
   d="M 14.460061,1.465373e-6 13.669047,0.78834333 7.7898875,6.6701753 c 0,0 5.6693725,8.2903827 6.4697475,9.4601027 -0.833205,1.470225 -1.505545,3.018988 -2.014948,4.62583 -1.31481,0.278529 -11.79573214,2.498643 -11.79573214,2.498643 v 9.465447 c 0,0 10.21599414,1.872219 11.60599614,2.127187 0.494576,1.722817 1.178548,3.38264 2.041671,4.957201 -0.832941,1.168119 -7.0336128,9.868971 -7.0336124,9.868971 l 6.7984464,7.177921 c 0,0 8.844114,-6.459044 10.01595,-7.314212 1.436072,0.777866 2.941056,1.410612 4.50023,1.884006 0.227947,1.425481 2.012276,12.578724 2.012276,12.578727 h 9.842246 c 0,0 1.753599,-11.041457 1.982882,-12.485197 1.650003,-0.476049 3.241811,-1.125984 4.756775,-1.940121 1.165488,0.854117 9.959832,7.295501 9.959832,7.295501 l 6.619398,-7.378345 c 0,0 -6.589615,-8.98587 -6.891979,-9.398638 2.061186,-3.643926 3.161385,-7.759515 3.161385,-11.97478 0,-13.433507 -10.92974,-24.3637723 -24.363771,-24.3637723 -4.051139,0 -8.029252,1.0216172 -11.571257,2.9369074 C 22.729737,5.8707912 14.460061,1.465373e-6 14.460061,1.465373e-6 Z M 35.45668,8.4339232 c 10.872195,0 19.684494,8.8130928 19.684494,19.6844958 0,10.871937 -8.812042,19.684496 -19.684494,19.684496 -10.871407,0 -19.684497,-8.812559 -19.684497,-19.684496 C 15.771928,17.247016 24.585273,8.4339232 35.45668,8.4339232 Z m 0.988766,2.4024388 0.293959,0.895236 1.298759,-0.334043 z m -2.362353,0.114911 c -0.94363,-0.111994 -1.948175,1.339332 -2.183306,1.563322 -0.235618,0.223988 -0.157207,0.951355 0.176375,0.951355 0.177647,0 3.718986,-2.348451 3.364482,-2.405111 -0.353458,-0.05534 -0.412107,0.0022 -1.357551,-0.109566 z m -2.89415,0.55852 c -0.08339,-0.05984 -1.282359,1.89247 -1.587373,1.854608 -0.553348,-0.07307 -1.268911,-0.07822 -1.421688,0.101549 -0.200941,0.237492 0.452069,-0.81832 1.015491,-1.138419 -0.898868,0.265028 -3.737243,1.23509 -6.739654,4.433421 -2.870291,3.057741 -4.016536,7.178195 -4.016536,7.322226 0,0.279062 0.59301,0.391159 0.652053,0.726878 0.05878,0.333872 -1.122385,1.453373 -1.122385,2.012276 0,0.257361 -0.277804,3.701764 0.708171,6.539229 1.151981,3.311652 3.610336,6.07648 3.89628,6.258634 l 0.587916,-0.280599 c 0,0 -1.357566,-2.402384 -1.416343,-2.626912 -0.05878,-0.222665 1.536015,-3.463924 2.303561,-3.351123 0.766751,0.109873 0.588848,0.333293 1.060921,0.05345 0.472072,-0.279067 0.76765,-2.570733 1.29876,-2.792601 0.531644,-0.22477 1.12159,-0.50199 1.063594,-1.060921 -0.05985,-0.5605 -2.06551,-1.566761 -2.242098,-1.734352 -0.177393,-0.16761 -0.05879,-0.895236 -0.05879,-0.895236 0,0 -2.655788,-1.395032 -5.547788,-2.234081 -0.3569,-0.103524 -0.178961,-0.838509 0.173702,-1.11704 l -0.117583,-0.782997 c -0.05851,-0.389995 0.593178,-2.291758 1.24264,-2.458558 0.649464,-0.168653 -0.06146,1.117041 -0.06146,1.117041 L 20.213627,21.8491 c 0,0 0.765152,0.892564 0.943338,0.892564 0.176596,0 0.473005,-0.446282 0.473005,-0.446282 l -0.828427,-0.55852 0.769635,-0.336716 0.0481,-0.293958 0.128273,-0.04009 1.269364,-1.924088 c 0.877688,-0.359284 1.957975,-0.80526 2.095119,-0.871185 0.236438,-0.110937 1.888108,-1.058737 2.183306,-1.282726 0.295765,-0.224254 0.942886,-0.168358 1.178504,-0.168358 0.237246,0 0.59061,-0.11104 0.64938,-0.726878 0.05906,-0.614514 0.295628,-0.726644 0.473005,-0.55852 0.176848,0.1668 -0.175716,0.446791 0.237839,0.55852 0.413289,0.11226 0.765156,0.391563 1.060921,0.112239 0.215773,-0.204926 -0.07262,-0.438573 -0.267234,-0.61464 h 3.278968 l 0.35275,-1.007474 -0.766964,-0.112238 -2.832686,-0.277924 v -0.336715 l -0.22715,0.03741 c 0.306843,-1.686008 2.12828,-1.407817 0.756274,-2.383732 z m 7.255417,0.114911 v 0.486367 l 0.51309,0.430248 -0.34206,0.163013 -1.314794,0.106893 -2.971648,1.616769 0.285942,1.290743 -0.34206,0.109566 -0.17103,0.267235 0.970062,1.453756 0.05879,0.486367 -0.801704,0.16034 v 0.970061 l -0.456972,0.106894 0.05879,0.756274 -3.885591,2.693724 0.114911,1.50453 c 0.285154,0.377554 2.514677,2.64295 2.514677,2.64295 0,0 2.568388,0.10575 3.140005,-0.21646 0.571364,-0.323022 0.170213,0.321927 0.34206,0.483695 0.171031,0.162811 0.229817,1.291753 0.400854,1.400309 0.17103,0.107217 -0.0014,0.75323 0.227148,0.970061 0.2285,0.213927 0.22982,2.800618 0.22982,2.800618 0,0 1.370916,2.314189 1.370916,2.907513 0,0.592277 -0.0572,0.539583 1.028852,0.486365 1.085525,-0.054 1.31399,-0.486002 1.541943,-0.646706 0.229549,-0.162044 0.228486,-0.539346 0.456972,-0.863168 0.229033,-0.323791 0.628799,-1.5604 1.143763,-1.990898 0.513641,-0.432089 1.885056,-0.754219 1.998915,-1.507203 0.114367,-0.754316 0.628002,-1.349534 0.628002,-1.349534 l 2.469247,-2.610882 -0.06948,0.350078 -0.05612,1.346862 0.74291,-0.269907 -0.05879,-1.453756 -0.267234,-0.283269 0.04009,-0.04009 c 0,0 -0.172898,-0.323354 -0.400854,-0.323354 -0.228493,0 -1.600192,0.323147 -1.827884,0.269907 -0.22876,-0.05426 -1.199616,-2.640471 -1.370912,-2.747171 -0.171308,-0.108023 -1.258676,-1.886675 -1.258676,-1.886675 0,0 2.51575,3.016654 2.91553,4.200926 0.2322,0.689705 1.102295,0.04938 1.811848,-0.670758 l 0.187066,0.456971 0.456972,-0.109566 -0.05612,-0.537142 h 0.51309 v 0.807049 l -0.17103,0.43292 -0.05879,0.697481 0.456972,0.43292 0.22982,-0.3768 0.740239,-0.700155 0.857825,-0.430247 0.22982,0.430247 0.114912,0.593261 -0.229823,0.644035 -0.456969,0.376801 -0.227152,0.970061 v 0.483695 l -0.515761,-0.320682 -0.05612,-1.023508 -0.742914,0.05345 -0.34206,0.913942 0.513091,0.756274 1.199885,0.163013 0.972734,-0.919287 0.112237,-1.774437 0.432921,-0.571882 c 0.281447,0.723578 0.483694,1.480646 0.483694,2.185978 0,0.773378 0.351542,-0.535895 0.05078,-2.89415 L 52.72538,25.737358 52.428749,25.160131 C 52.075288,23.168057 51.262878,20.617395 49.526577,17.982214 46.91309,14.020309 39.641571,11.73427 39.641571,11.73427 l -0.398179,0.483695 -0.227148,-0.376801 z m -3.182764,0.889891 -0.884544,0.05612 0.117583,0.782998 h 0.710843 z m 7.124474,5.681406 0.628002,0.646708 -0.801703,0.323353 -0.684121,0.106894 -0.114911,-0.483694 0.857822,-0.109566 z m -5.828384,0.860495 h 0.686792 l 1.08497,0.753602 v 0.43292 l -3.086556,-0.109567 z m 4.34256,0.379474 1.771766,0.323353 -0.571884,0.106894 v 0.486367 h -1.314793 l 0.114911,0.323354 -0.799032,0.106894 -0.05879,0.269906 -0.569212,-0.106894 -1.028852,-0.216459 0.17103,-0.269907 0.17103,-0.323354 0.571884,-0.593261 0.227148,0.43292 0.857822,-0.05612 z m 7.426449,10.125516 -0.34206,0.430248 -0.400854,0.590588 0.344732,0.163013 0.398182,-0.430248 0.456968,-0.593261 z m -0.114912,1.453756 -0.400853,0.483694 -0.398179,-0.106894 -0.114912,0.376801 0.456972,0.109566 v 3.500773 l 1.616768,0.38749 c -0.03706,0.06487 -0.06555,0.119984 -0.07482,0.149651 -0.115439,0.377802 0.458822,0.539637 0.857825,0.3768 0.149323,-0.05983 0.618718,-0.534616 0.91394,-1.237294 0.411701,-0.978839 0.769496,-2.271201 0.84179,-2.728466 l 0.187062,-0.395507 -1.143763,0.430248 -0.627999,-0.106894 -0.114912,-0.863168 h -0.740238 l -0.05879,0.646708 -0.686792,-0.106894 -0.168358,-0.700154 z m -4.168859,0.916614 -1.541942,0.967389 -0.801704,1.402981 c -0.0058,0.0017 -0.394532,0.105355 0.05879,0.267235 0.456459,0.162301 2.284856,-2.637605 2.284856,-2.637605 z m 1.827885,2.52804 -0.342061,1.456427 -0.400853,0.323353 0.05612,0.80705 h 0.515761 v -0.697481 l 0.456974,-0.593263 v -1.239968 z m -16.071486,8.698484 -0.456971,0.815065 -1.541943,-0.05345 c 0.275369,0.130516 2.578632,1.502941 6.108982,1.79047 4.682062,0.378359 6.908012,-0.758946 6.908012,-0.758946 l -0.17103,-0.163013 -2.055033,-0.163012 -0.34206,-0.326028 -0.686792,-0.109565 -0.11224,0.326028 -0.913941,-0.106894 -0.05879,-0.435593 h -0.68412 l -0.742911,0.435593 H 33.73836 l -0.114911,-0.326028 -2.111152,-0.21913 -0.344733,0.326024 -0.85515,-0.216459 -0.114911,-0.758946 z" /><metadata
   id="metadata143"><rdf:RDF><cc:Work
       rdf:about=""><cc:license
         rdf:resource="http://creativecommons.org/licenses/by-sa/4.0/" /><dc:creator><cc:Agent><dc:title>dreifacherspass</dc:title></cc:Agent></dc:creator></cc:Work><cc:License
       rdf:about="http://creativecommons.org/licenses/by-sa/4.0/"><cc:permits
         rdf:resource="http://creativecommons.org/ns#Reproduction" /><cc:permits
         rdf:resource="http://creativecommons.org/ns#Distribution" /><cc:requires
         rdf:resource="http://creativecommons.org/ns#Notice" /><cc:requires
         rdf:resource="http://creativecommons.org/ns#Attribution" /><cc:permits
         rdf:resource="http://creativecommons.org/ns#DerivativeWorks" /><cc:requires
         rdf:resource="http://creativecommons.org/ns#ShareAlike" /></cc:License></rdf:RDF></metadata></svg>
