<?xml version="1.0" encoding="UTF-8" standalone="no"?>
<svg
   xml:space="preserve"
   width="48"
   height="48"
   overflow="visible"
   viewBox="0 0 192 192"
   version="1.1"
   id="svg2174"
   xmlns="http://www.w3.org/2000/svg"
   xmlns:svg="http://www.w3.org/2000/svg"
   xmlns:rdf="http://www.w3.org/1999/02/22-rdf-syntax-ns#"
   xmlns:cc="http://creativecommons.org/ns#"
   xmlns:dc="http://purl.org/dc/elements/1.1/"><defs
   id="defs2178">
    <style
   id="current-color-scheme"
   type="text/css">
      .ColorScheme-Text { color: #0abdc6; } .ColorScheme-Highlight { color:#5294e2; }
    </style>
    <linearGradient
   id="arrongin"
   x1="0%"
   x2="0%"
   y1="0%"
   y2="100%">
      <stop
   offset="0%"
   style="stop-color:#dd9b44; stop-opacity:1"
   id="stop9192" />
      <stop
   offset="100%"
   style="stop-color:#ad6c16; stop-opacity:1"
   id="stop9194" />
    </linearGradient>
    <linearGradient
   id="aurora"
   x1="0%"
   x2="0%"
   y1="0%"
   y2="100%">
      <stop
   offset="0%"
   style="stop-color:#09D4DF; stop-opacity:1"
   id="stop9197" />
      <stop
   offset="100%"
   style="stop-color:#9269F4; stop-opacity:1"
   id="stop9199" />
    </linearGradient>
    <linearGradient
   id="cyberneon"
   x1="0%"
   x2="0%"
   y1="0%"
   y2="100%">
      <stop
   offset="0"
   style="stop-color:#0abdc6; stop-opacity:1"
   id="stop9202" />
      <stop
   offset="1"
   style="stop-color:#ea00d9; stop-opacity:1"
   id="stop9204" />
    </linearGradient>
    <linearGradient
   id="fitdance"
   x1="0%"
   x2="0%"
   y1="0%"
   y2="100%">
      <stop
   offset="0%"
   style="stop-color:#1AD6AB; stop-opacity:1"
   id="stop9207" />
      <stop
   offset="100%"
   style="stop-color:#329DB6; stop-opacity:1"
   id="stop9209" />
    </linearGradient>
    <linearGradient
   id="oomox"
   x1="0%"
   x2="0%"
   y1="0%"
   y2="100%">
      <stop
   offset="0%"
   style="stop-color:#0abdc6; stop-opacity:1"
   id="stop9212" />
      <stop
   offset="100%"
   style="stop-color:#b800ff; stop-opacity:1"
   id="stop9214" />
    </linearGradient>
    <linearGradient
   id="rainblue"
   x1="0%"
   x2="0%"
   y1="0%"
   y2="100%">
      <stop
   offset="0%"
   style="stop-color:#00F260; stop-opacity:1"
   id="stop9217" />
      <stop
   offset="100%"
   style="stop-color:#0575E6; stop-opacity:1"
   id="stop9219" />
    </linearGradient>
    <linearGradient
   id="sunrise"
   x1="0%"
   x2="0%"
   y1="0%"
   y2="100%">
      <stop
   offset="0%"
   style="stop-color: #FF8501; stop-opacity:1"
   id="stop9222" />
      <stop
   offset="100%"
   style="stop-color: #FFCB01; stop-opacity:1"
   id="stop9224" />
    </linearGradient>
    <linearGradient
   id="telinkrin"
   x1="0%"
   x2="0%"
   y1="0%"
   y2="100%">
      <stop
   offset="0%"
   style="stop-color: #b2ced6; stop-opacity:1"
   id="stop9227" />
      <stop
   offset="100%"
   style="stop-color: #6da5b7; stop-opacity:1"
   id="stop9229" />
    </linearGradient>
    <linearGradient
   id="60spsycho"
   x1="0%"
   x2="0%"
   y1="0%"
   y2="100%">
      <stop
   offset="0%"
   style="stop-color: #df5940; stop-opacity:1"
   id="stop9232" />
      <stop
   offset="25%"
   style="stop-color: #d8d15f; stop-opacity:1"
   id="stop9234" />
      <stop
   offset="50%"
   style="stop-color: #e9882a; stop-opacity:1"
   id="stop9236" />
      <stop
   offset="100%"
   style="stop-color: #279362; stop-opacity:1"
   id="stop9238" />
    </linearGradient>
    <linearGradient
   id="90ssummer"
   x1="0%"
   x2="0%"
   y1="0%"
   y2="100%">
      <stop
   offset="0%"
   style="stop-color: #f618c7; stop-opacity:1"
   id="stop9241" />
      <stop
   offset="20%"
   style="stop-color: #94ffab; stop-opacity:1"
   id="stop9243" />
      <stop
   offset="50%"
   style="stop-color: #fbfd54; stop-opacity:1"
   id="stop9245" />
      <stop
   offset="100%"
   style="stop-color: #0f83ae; stop-opacity:1"
   id="stop9247" />
    </linearGradient>
  </defs>
  <g
   stroke="#000000"
   id="g2172"
   transform="translate(1.0839987,-0.66488757)">
    <path
   id="path2100"
   class="ColorScheme-Text"
   style="fill:url(#oomox);fill-opacity:1;stroke:none;stroke-width:0.774018"
   d="M 43.580064 3.1727001 L 41.267564 5.4773876 L 24.080064 22.6727 C 24.080064 22.6727 40.654258 46.909318 42.994126 50.32895 C 40.558281 54.627095 38.59272 59.154847 37.103501 63.852388 C 33.259704 64.666658 2.6191263 71.157075 2.6191263 71.157075 L 2.6191263 98.82895 C 2.6191263 98.82895 32.485197 104.30231 36.548814 105.0477 C 37.99469 110.08429 39.994255 114.93672 42.517564 119.53989 C 40.082491 122.95484 21.955063 148.39145 21.955064 148.39145 L 41.830064 169.37583 C 41.830064 169.37583 67.685495 150.49306 71.111314 147.99301 C 75.309614 150.26707 79.709379 152.11688 84.267564 153.50083 C 84.933959 157.66817 90.150376 190.27425 90.150376 190.27426 L 118.92381 190.27426 C 118.92381 190.27426 124.05039 157.99498 124.72069 153.77426 C 129.54441 152.38255 134.198 150.48249 138.62694 148.10239 C 142.0342 150.59937 167.74413 169.43051 167.74413 169.43051 L 187.09569 147.8602 C 187.09569 147.8602 167.8312 121.59035 166.94725 120.38364 C 172.97305 109.73076 176.18944 97.69899 176.18944 85.375825 C 176.18944 46.103477 144.23676 14.149263 104.96288 14.149263 C 93.119529 14.149263 81.489667 17.135922 71.134751 22.7352 C 67.756146 20.335731 43.580064 3.1727001 43.580064 3.1727001 z M 104.96288 27.82895 C 136.74733 27.82895 162.50975 53.593691 162.50975 85.375825 C 162.50975 117.15952 136.74808 142.9227 104.96288 142.9227 C 73.180736 142.9227 47.416001 117.15952 47.416001 85.375825 C 47.415256 53.593691 73.180736 27.82895 104.96288 27.82895 z M 107.8535 34.852388 L 108.71288 37.469575 L 112.50975 36.493013 L 107.8535 34.852388 z M 100.94725 35.188325 C 98.188585 34.860914 95.251835 39.103811 94.564439 39.758638 C 93.875618 40.413459 94.104851 42.539888 95.080064 42.539888 C 95.59941 42.539888 105.95238 35.67428 104.916 35.508638 C 103.88268 35.346865 103.71122 35.514963 100.94725 35.188325 z M 92.486314 36.821138 C 92.242532 36.64621 88.737386 42.3537 87.845689 42.243013 C 86.227997 42.029384 84.136075 42.014329 83.689439 42.539888 C 83.101996 43.234188 85.011045 40.147561 86.658189 39.211763 C 84.030381 39.986561 75.7325 42.822501 66.955064 52.1727 C 58.563878 61.111892 55.212876 73.157881 55.212876 73.57895 C 55.212876 74.394778 56.946518 74.72249 57.119126 75.70395 C 57.29096 76.680013 53.837876 79.95283 53.837876 81.586763 C 53.837876 82.339147 53.025727 92.408729 55.908189 100.70395 C 59.275961 110.38544 66.462868 118.46831 67.298814 119.00083 L 69.017564 118.18051 C 69.017564 118.18051 65.048773 111.15723 64.876939 110.50083 C 64.705106 109.84988 69.367421 100.37418 71.611314 100.70395 C 73.85288 101.02516 73.332789 101.67832 74.712876 100.8602 C 76.092961 100.04436 76.957072 93.344761 78.509751 92.696138 C 80.063992 92.039032 81.788676 91.22859 81.619126 89.594575 C 81.444164 87.955975 75.580687 85.01421 75.064439 84.524263 C 74.545837 84.034262 74.892564 81.907075 74.892564 81.907075 C 74.892564 81.907075 67.128468 77.828751 58.673814 75.375825 C 57.630431 75.073176 58.150629 72.924474 59.181626 72.1102 L 58.837876 69.821138 C 58.666814 68.681002 60.572011 63.121271 62.470689 62.633638 C 64.36937 62.140586 62.291001 65.899263 62.291001 65.899263 L 60.400376 67.0477 C 60.400376 67.0477 62.63727 69.657075 63.158189 69.657075 C 63.674461 69.657075 64.541001 68.352388 64.541001 68.352388 L 62.119126 66.719575 L 64.369126 65.7352 L 64.509751 64.875825 L 64.884751 64.758638 L 68.595689 59.133638 C 71.161576 58.083287 74.319754 56.779492 74.720689 56.586763 C 75.411907 56.262443 80.240502 53.491586 81.103501 52.836763 C 81.968159 52.181165 83.859993 52.344575 84.548814 52.344575 C 85.242392 52.344575 86.27544 52.019952 86.447251 50.219575 C 86.619907 48.423065 87.311508 48.095258 87.830064 48.586763 C 88.347073 49.074396 87.316365 49.892937 88.525376 50.219575 C 89.733612 50.547761 90.76228 51.364294 91.626939 50.5477 C 92.257744 49.948607 91.414627 49.265549 90.845689 48.750825 L 100.43163 48.750825 L 101.46288 45.805513 L 99.220689 45.477388 L 90.939439 44.664888 L 90.939439 43.680513 L 90.275376 43.789888 C 91.172419 38.860907 96.49732 39.674188 92.486314 36.821138 z M 113.69725 37.157075 L 113.69725 38.57895 L 115.19725 39.836763 L 114.19725 40.313325 L 110.3535 40.625825 L 101.666 45.352388 L 102.50194 49.125825 L 101.50194 49.446138 L 101.00194 50.227388 L 103.83788 54.477388 L 104.00975 55.899263 L 101.666 56.368013 L 101.666 59.20395 L 100.33006 59.51645 L 100.50194 61.727388 L 89.142564 69.602388 L 89.478501 74.000825 C 90.312138 75.104587 96.830064 81.727388 96.830064 81.727388 C 96.830064 81.727388 104.33865 82.036544 106.00975 81.094575 C 107.68011 80.150233 106.50736 82.035715 107.00975 82.508638 C 107.50975 82.984612 107.68161 86.285029 108.18163 86.602388 C 108.68163 86.915834 108.17769 88.804427 108.84569 89.438325 C 109.5137 90.063732 109.51756 97.625825 109.51756 97.625825 C 109.51756 97.625825 113.52538 104.39127 113.52538 106.12583 C 113.52538 107.85733 113.35815 107.70328 116.53319 107.5477 C 119.70668 107.38982 120.37459 106.12689 121.041 105.65708 C 121.71208 105.18335 121.70897 104.08032 122.37694 103.13364 C 123.04651 102.18705 124.21521 98.571869 125.72069 97.313325 C 127.2223 96.050129 131.23158 95.108394 131.56444 92.907075 C 131.89879 90.701859 133.40038 88.961763 133.40038 88.961763 L 140.61913 81.32895 L 140.416 82.352388 L 140.25194 86.289888 L 142.42381 85.500825 L 142.25194 81.250825 L 141.47069 80.4227 L 141.58788 80.305513 C 141.58788 80.305513 141.08242 79.3602 140.416 79.3602 C 139.74801 79.3602 135.7379 80.304906 135.07225 80.149263 C 134.40348 79.990632 131.56522 72.429944 131.06444 72.118013 C 130.56363 71.80221 127.38475 66.602388 127.38475 66.602388 C 127.38475 66.602388 134.73945 75.421462 135.90819 78.883638 C 136.58702 80.899964 139.13071 79.027995 141.20506 76.9227 L 141.75194 78.258638 L 143.08788 77.938325 L 142.92381 76.368013 L 144.42381 76.368013 L 144.42381 78.727388 L 143.92381 79.993013 L 143.75194 82.032075 L 145.08788 83.2977 L 145.75975 82.196138 L 147.92381 80.149263 L 150.43163 78.89145 L 151.1035 80.149263 L 151.43944 81.883638 L 150.76756 83.76645 L 149.43163 84.868013 L 148.76756 87.70395 L 148.76756 89.118013 L 147.25975 88.180513 L 147.09569 85.188325 L 144.92381 85.344575 L 143.92381 88.01645 L 145.42381 90.227388 L 148.93163 90.70395 L 151.77538 88.01645 L 152.1035 82.82895 L 153.36913 81.157075 C 154.19193 83.272429 154.78319 85.485688 154.78319 87.5477 C 154.78319 89.80864 155.81091 85.981031 154.93163 79.086763 L 155.44725 78.414888 L 154.58006 76.727388 C 153.54675 70.90363 151.1717 63.446866 146.09569 55.743013 C 138.45526 44.160534 117.19725 37.477388 117.19725 37.477388 L 116.03319 38.89145 L 115.36913 37.789888 L 113.69725 37.157075 z M 104.39256 39.758638 L 101.80663 39.9227 L 102.15038 42.211763 L 104.2285 42.211763 L 104.39256 39.758638 z M 125.22069 56.368013 L 127.05663 58.258638 L 124.71288 59.20395 L 122.71288 59.51645 L 122.37694 58.102388 L 124.88475 57.782075 L 125.22069 56.368013 z M 108.18163 58.883638 L 110.18944 58.883638 L 113.36131 61.086763 L 113.36131 62.352388 L 104.33788 62.032075 L 108.18163 58.883638 z M 120.87694 59.993013 L 126.05663 60.938325 L 124.38475 61.250825 L 124.38475 62.6727 L 120.541 62.6727 L 120.87694 63.618013 L 118.541 63.930513 L 118.36913 64.719575 L 116.70506 64.407075 L 113.69725 63.774263 L 114.19725 62.9852 L 114.69725 62.039888 L 116.36913 60.305513 L 117.03319 61.571138 L 119.541 61.407075 L 120.87694 59.993013 z M 142.58788 89.594575 L 141.58788 90.852388 L 140.416 92.57895 L 141.42381 93.055513 L 142.58788 91.7977 L 143.92381 90.063325 L 142.58788 89.594575 z M 142.25194 93.844575 L 141.08006 95.258638 L 139.916 94.946138 L 139.58006 96.0477 L 140.916 96.368013 L 140.916 106.60239 L 145.64256 107.7352 C 145.5342 107.92485 145.45093 108.08597 145.42381 108.1727 C 145.08633 109.27719 146.76516 109.75031 147.93163 109.27426 C 148.36817 109.09935 149.74043 107.71133 150.6035 105.65708 C 151.80709 102.79548 152.85309 99.017309 153.06444 97.680513 L 153.61131 96.524263 L 150.26756 97.782075 L 148.43163 97.469575 L 148.09569 94.946138 L 145.93163 94.946138 L 145.75975 96.836763 L 143.75194 96.524263 L 143.25975 94.477388 L 142.25194 93.844575 z M 130.06444 96.524263 L 125.55663 99.352388 L 123.21288 103.45395 C 123.19587 103.45847 122.05948 103.76195 123.38475 104.2352 C 124.71919 104.70968 130.06444 96.524263 130.06444 96.524263 z M 135.40819 103.91489 L 134.40819 108.1727 L 133.23631 109.11801 L 133.40038 111.47739 L 134.90819 111.47739 L 134.90819 109.43833 L 136.24413 107.70395 L 136.24413 104.07895 L 135.40819 103.91489 z M 88.423814 129.34458 L 87.087876 131.72739 L 82.580064 131.57114 C 83.385095 131.9527 90.118596 135.96493 100.43944 136.80551 C 114.12727 137.91163 120.63475 134.58676 120.63475 134.58676 L 120.13475 134.1102 L 114.12694 133.63364 L 113.12694 132.68051 L 111.11913 132.3602 L 110.791 133.31333 L 108.11913 133.00083 L 107.94725 131.72739 L 105.94725 131.72739 L 103.77538 133.00083 L 99.939439 133.00083 L 99.603501 132.0477 L 93.431626 131.40708 L 92.423814 132.3602 L 89.923814 131.72739 L 89.587876 129.50864 L 88.423814 129.34458 z " />
  </g>
<metadata
   id="metadata143"><rdf:RDF><cc:License
       rdf:about="http://creativecommons.org/licenses/by-nc-sa/4.0/"><cc:permits
         rdf:resource="http://creativecommons.org/ns#Reproduction" /><cc:permits
         rdf:resource="http://creativecommons.org/ns#Distribution" /><cc:requires
         rdf:resource="http://creativecommons.org/ns#Notice" /><cc:requires
         rdf:resource="http://creativecommons.org/ns#Attribution" /><cc:prohibits
         rdf:resource="http://creativecommons.org/ns#CommercialUse" /><cc:permits
         rdf:resource="http://creativecommons.org/ns#DerivativeWorks" /><cc:requires
         rdf:resource="http://creativecommons.org/ns#ShareAlike" /></cc:License><cc:Work
       rdf:about=""><cc:license
         rdf:resource="http://creativecommons.org/licenses/by-nc-sa/4.0/" /><dc:contributor><cc:Agent><dc:title>dreifacherspass</dc:title></cc:Agent></dc:contributor></cc:Work></rdf:RDF></metadata></svg>
