<?xml version="1.0" encoding="UTF-8" standalone="no"?>
<svg
   version="1.1"
   width="16"
   height="16"
   id="svg2985"
   enable-background="new"
   xmlns="http://www.w3.org/2000/svg"
   xmlns:svg="http://www.w3.org/2000/svg"
   xmlns:rdf="http://www.w3.org/1999/02/22-rdf-syntax-ns#"
   xmlns:cc="http://creativecommons.org/ns#"
   xmlns:dc="http://purl.org/dc/elements/1.1/">
  <defs>
   <style id="current-color-scheme" type="text/css">
   .ColorScheme-Text { color: #0abdc6; } .ColorScheme-Highlight { color:#5294e2; }
  </style>
  <linearGradient id="arrongin" x1="0%" x2="0%" y1="0%" y2="100%">
   <stop offset="0%" style="stop-color:#dd9b44; stop-opacity:1"/>
   <stop offset="100%" style="stop-color:#ad6c16; stop-opacity:1"/>
  </linearGradient>
  <linearGradient id="aurora" x1="0%" x2="0%" y1="0%" y2="100%">
   <stop offset="0%" style="stop-color:#09D4DF; stop-opacity:1"/>
   <stop offset="100%" style="stop-color:#9269F4; stop-opacity:1"/>
  </linearGradient>
  <linearGradient id="cyberneon" x1="0%" x2="0%" y1="0%" y2="100%">
    <stop offset="0" style="stop-color:#0abdc6; stop-opacity:1"/>
    <stop offset="1" style="stop-color:#ea00d9; stop-opacity:1"/>
  </linearGradient>
  <linearGradient id="fitdance" x1="0%" x2="0%" y1="0%" y2="100%">
   <stop offset="0%" style="stop-color:#1AD6AB; stop-opacity:1"/>
   <stop offset="100%" style="stop-color:#329DB6; stop-opacity:1"/>
  </linearGradient>
  <linearGradient id="oomox" x1="0%" x2="0%" y1="0%" y2="100%">
   <stop offset="0%" style="stop-color:#0abdc6; stop-opacity:1"/>
   <stop offset="100%" style="stop-color:#b800ff; stop-opacity:1"/>
  </linearGradient>
  <linearGradient id="rainblue" x1="0%" x2="0%" y1="0%" y2="100%">
   <stop offset="0%" style="stop-color:#00F260; stop-opacity:1"/>
   <stop offset="100%" style="stop-color:#0575E6; stop-opacity:1"/>
  </linearGradient>
  <linearGradient id="sunrise" x1="0%" x2="0%" y1="0%" y2="100%">
   <stop offset="0%" style="stop-color: #FF8501; stop-opacity:1"/>
   <stop offset="100%" style="stop-color: #FFCB01; stop-opacity:1"/>
  </linearGradient>
  <linearGradient id="telinkrin" x1="0%" x2="0%" y1="0%" y2="100%">
   <stop offset="0%" style="stop-color: #b2ced6; stop-opacity:1"/>
   <stop offset="100%" style="stop-color: #6da5b7; stop-opacity:1"/>
  </linearGradient>
  <linearGradient id="60spsycho" x1="0%" x2="0%" y1="0%" y2="100%">
   <stop offset="0%" style="stop-color: #df5940; stop-opacity:1"/>
   <stop offset="25%" style="stop-color: #d8d15f; stop-opacity:1"/>
   <stop offset="50%" style="stop-color: #e9882a; stop-opacity:1"/>
   <stop offset="100%" style="stop-color: #279362; stop-opacity:1"/>
  </linearGradient>
  <linearGradient id="90ssummer" x1="0%" x2="0%" y1="0%" y2="100%">
   <stop offset="0%" style="stop-color: #f618c7; stop-opacity:1"/>
   <stop offset="20%" style="stop-color: #94ffab; stop-opacity:1"/>
   <stop offset="50%" style="stop-color: #fbfd54; stop-opacity:1"/>
   <stop offset="100%" style="stop-color: #0f83ae; stop-opacity:1"/>
  </linearGradient>
 </defs>
  <metadata
     id="metadata2990">
    <rdf:RDF>
      <cc:Work
         rdf:about="">
        <dc:format>image/svg+xml</dc:format>
        <dc:type
           rdf:resource="http://purl.org/dc/dcmitype/StillImage" />
        <cc:license
           rdf:resource="http://creativecommons.org/licenses/by-sa/4.0/" />
        <dc:description>Based on Krita icon by Timothée Giet, 2013</dc:description>
        <dc:creator>
          <cc:Agent>
            <dc:title>dreifacherspass</dc:title>
          </cc:Agent>
        </dc:creator>
      </cc:Work>
      <cc:License
         rdf:about="http://creativecommons.org/licenses/by-sa/4.0/">
        <cc:permits
           rdf:resource="http://creativecommons.org/ns#Reproduction" />
        <cc:permits
           rdf:resource="http://creativecommons.org/ns#Distribution" />
        <cc:requires
           rdf:resource="http://creativecommons.org/ns#Notice" />
        <cc:requires
           rdf:resource="http://creativecommons.org/ns#Attribution" />
        <cc:permits
           rdf:resource="http://creativecommons.org/ns#DerivativeWorks" />
        <cc:requires
           rdf:resource="http://creativecommons.org/ns#ShareAlike" />
      </cc:License>
    </rdf:RDF>
  </metadata>
  <path
     id="path1393"
     style="display:inline;opacity:1;fill:url(#oomox);fill-opacity:1;stroke:none;stroke-width:3.48822;stroke-linecap:butt;stroke-linejoin:miter;stroke-miterlimit:4;stroke-dasharray:none;stroke-dashoffset:0;stroke-opacity:1"
     class="ColorScheme-Text"
     d="M 0.5 0 C 0.36464813 0.0075730407 0.23709125 0.067490347 0.125 0.20117188 C -0.16212959 0.56721599 0.09520858 0.93450992 0.41992188 1.2324219 C 0.74465073 1.5303448 5.1871446 6.1243386 6.3769531 7.4863281 C 7.3103542 8.5548014 9.2757025 10.132141 10.748047 10.003906 C 10.610334 9.9005893 10.464844 9.7910156 10.464844 9.7910156 C 10.342718 9.4979361 10.490438 9.0942768 10.765625 8.7753906 C 11.020854 8.4403234 11.383338 8.2144248 11.695312 8.2734375 C 11.695312 8.2734375 11.817826 8.3798007 11.890625 8.4433594 C 11.619309 7.0124989 9.745009 5.4890485 8.5429688 4.8164062 C 6.9647568 3.9332722 1.553841 0.5336027 1.1953125 0.27734375 C 0.97124681 0.11718775 0.72558644 -0.012621735 0.5 0 z " />
  <path
     id="path1395"
     class="ColorScheme-Text"
     d="m 13.961804,11.368119 c -0.454157,0.208001 -0.405042,0.35834 -0.808294,0.293486 -0.27813,-0.04473 -2.687562,-1.8711164 -2.687562,-1.8711164 -0.122126,-0.2930798 0.02437,-0.6959851 0.299557,-1.0148716 0.255229,-0.3350676 0.619233,-0.5615534 0.931208,-0.5025406 0,0 2.284293,1.9806676 2.385458,2.2435796 0.146675,0.381193 -0.01057,0.364159 -0.120367,0.851463 z"
     style="display:inline;opacity:0.7;fill:url(#oomox);fill-opacity:1;stroke:none;stroke-width:3.48822;stroke-linecap:butt;stroke-linejoin:miter;stroke-miterlimit:4;stroke-dasharray:none;stroke-dashoffset:0;stroke-opacity:1" />
  <path
     style="display:inline;opacity:1;fill:url(#oomox);fill-opacity:1;stroke:none;stroke-width:3.48822;stroke-linecap:butt;stroke-linejoin:miter;stroke-miterlimit:4;stroke-dasharray:none;stroke-dashoffset:0;stroke-opacity:1"
     d="m 14.086485,15.408 c 1.794824,-1.01522 2.317212,-2.783454 1.608509,-4.077372 -0.550729,-1.005494 -1.454998,-1.195596 -2.079571,-0.709412 -0.619592,0.482307 -0.674211,1.057018 -0.489392,1.627807 0.376913,1.16415 1.892799,1.958312 0.960454,3.158977 z"
     id="path1399"
     class="ColorScheme-Text" />
  <path
     id="path5524"
     style="fill:url(#oomox);fill-opacity:1;fill-rule:nonzero;stroke:none;stroke-width:0.148982;stroke-dasharray:none;image-rendering:optimizeQuality;shape-rendering:geometricPrecision;text-rendering:geometricPrecision"
     class="ColorScheme-Text"
     d="M 3.1368889,8.8517624 C 2.4334676,8.8406236 1.8112309,8.9864404 1.2718545,9.289929 0.44196774,9.7597062 0.01911273,10.508444 5.7273936e-4,11.534619 -0.01662356,12.486422 0.35341789,13.404789 1.1102845,14.28995 c 0.756867,0.885159 1.6217029,1.424414 2.5964205,1.617693 l 0.5039915,0.06583 c 0.4694219,0.05577 1.0312891,0.02359 1.6868421,-0.09641 0.6555404,-0.119999 1.4228607,-0.327825 2.3018713,-0.623673 1.8481201,-0.618606 3.1706451,-0.849358 3.9667721,-0.691492 0.386919,0.07672 1.081681,0.573319 1.62932,0.846102 -0.108523,-0.265612 -0.683552,-0.939538 -0.714926,-0.988147 0,0 -0.208813,-0.30606 -0.417415,-0.5327 -0.217806,-0.224464 -0.495789,-0.464389 -0.803764,-0.618514 -0.347257,-0.173783 -0.796308,-0.251852 -0.796308,-0.251852 -0.72117,-0.103634 -0.899853,-0.113239 -1.318056,-0.12061 -0.4163,-0.0073 -1.3009331,0.248237 -1.4170827,0.267195 -0.098464,0.01607 -1.0202993,0.38268 -1.9722982,0.667141 -0.6038043,0.178673 -1.1156969,0.295155 -1.5359107,0.3504 -0.420223,0.05525 -0.7761598,0.0572 -1.0671588,0.004 C 2.9927579,14.045955 2.363597,13.711245 1.8656069,13.181569 1.3941799,12.676692 1.1651143,12.143694 1.1761094,11.582493 1.1878919,10.981559 1.4747828,10.527867 2.0378151,10.222115 2.5735065,9.9313042 3.1961796,9.8513499 3.9075034,9.9814229 c 0.4095595,0.074893 1.5241864,0.3459141 1.6941562,0.4434861 0.4880568,0.208867 1.5442681,0.0648 1.9813913,0.388965 -0.0034,-0.005 -0.00941,-0.01081 -0.013297,-0.01596 0.030979,0.02431 0.06229,0.04771 0.093086,0.07247 C 7.2228513,10.424931 6.6770019,10.037427 6.0258645,9.7068202 5.5005388,9.4384695 4.8738839,9.1905117 4.1462023,8.9641309 3.7927745,8.8940509 3.456626,8.8568283 3.1368892,8.8517648 Z" />
</svg>
