<?xml version="1.0" encoding="UTF-8" standalone="no"?>
<svg
   style="isolation:isolate"
   viewBox="0 0 12 12"
   width="16"
   height="16"
   version="1.1"
   id="svg39"
   xmlns:xlink="http://www.w3.org/1999/xlink"
   xmlns="http://www.w3.org/2000/svg"
   xmlns:svg="http://www.w3.org/2000/svg"
   xmlns:rdf="http://www.w3.org/1999/02/22-rdf-syntax-ns#"
   xmlns:cc="http://creativecommons.org/ns#"
   xmlns:dc="http://purl.org/dc/elements/1.1/">
  <defs
     id="defs43">
    <linearGradient
       id="attention"
       x1="0"
       x2="0"
       y1="1"
       y2="0">
      <stop
         style="stop-color:#41ff00;stop-opacity:1;"
         offset="0"
         id="stop2280" />
      <stop
         style="stop-color:#e7ff00;stop-opacity:1;"
         offset="1"
         id="stop2282" />
    </linearGradient>
    <linearGradient
       xlink:href="#attention"
       id="linearGradient1"
       x1="0.5"
       y1="47.5"
       x2="0.5"
       y2="0.5"
       gradientUnits="userSpaceOnUse"
       gradientTransform="matrix(0.25531915,0,0,0.25531915,-0.12765957,-0.12765957)" />
    <linearGradient
       xlink:href="#attention"
       id="linearGradient2"
       x1="20.65896"
       y1="31.359678"
       x2="20.65896"
       y2="14.325264"
       gradientTransform="matrix(0.21916201,0,0,0.29744145,-0.12765957,-0.12765957)"
       gradientUnits="userSpaceOnUse" />
  </defs>
  <path
     id="path447"
     style="fill:url(#linearGradient1);fill-opacity:1;stroke-width:0.266668"
     d="M 6.4000001,2.7906666 H 11.162667 V 6 6 6 c 0,0.2309334 0.187733,0.4186667 0.418666,0.4186667 v 0 C 11.812533,6.4186667 12,6.2309334 12,6 V 6 0.83733332 C 12,0.37519999 11.6248,0 11.162667,0 H 0.83733332 C 0.37519999,0 0,0.37519999 0,0.83733332 V 2.372 v 0 c 0,0.2312001 0.37519999,0.4186666 0.83733332,0.4186666 v 0 0 V 2.372 1.1162667 c 0,-0.15413338 0.1248,-0.27893338 0.27893338,-0.27893338 h 9.7674663 c 0.154134,0 0.278934,0.1248 0.278934,0.27893338 V 1.9536 v 0 0 H 1.2557333 0.83733332 v 0.8370666 0 H 1.2557333 5.5999999 v 0.00133 1.2906669 0 C 5.5999999,4.3034612 5.7792,4.482661 6,4.482661 v 0 c 0.2208,0 0.4000001,-0.1791998 0.4000001,-0.3999998 v 0 -1.29066 z m 0,8.3720004 h 4.4837329 c 0.154134,0 0.278934,-0.1248 0.278934,-0.278934 v -2.3719997 0 c 0,-0.2311999 0.187733,-0.4186665 0.418666,-0.4186665 v 0 C 11.812533,8.0930668 12,8.2805334 12,8.5117333 v 0 2.6509337 C 12,11.6248 11.6248,12 11.162667,12 H 0.83733332 C 0.37519999,12 0,11.6248 0,11.162667 v -6.5456004 0 C 0,4.3861333 0.18746668,4.1983999 0.41866667,4.1983999 v 0 c 0.23093334,0 0.41866665,0.1877334 0.41866665,0.4186667 v 0 0 0 6.2666664 c 0,0.154134 0.1248,0.278934 0.27893338,0.278934 h 4.4837332 v -1.1706671 0 C 5.5999999,9.7711999 5.7792,9.5920001 6,9.5920001 v 0 c 0.2208,0 0.4000001,0.1791998 0.4000001,0.3999998 v 0 z" />
  <path
     style="font-variation-settings:normal;opacity:1;vector-effect:none;fill:url(#linearGradient2);fill-opacity:1;stroke-width:0.0705351;stroke-linecap:butt;stroke-linejoin:miter;stroke-miterlimit:4;stroke-dasharray:none;stroke-dashoffset:0;stroke-opacity:1;-inkscape-stroke:none;stop-color:#000000;stop-opacity:1"
     d="m 4.6213333,4.1333334 c 0.0512,0.00133 0.1002666,0.020267 0.1384001,0.0536 L 8.0608001,6.812 c 0.1370665,0.1197335 0.0688,0.3416002 -0.1128,0.3672 L 6.6679999,7.3600001 7.2677334,8.3989333 c 0.1341334,0.2322666 0.054667,0.5274666 -0.1776,0.6613335 L 6.9616001,9.1349334 C 6.7293332,9.2688 6.4344,9.1896 6.3002668,8.9573334 L 5.6773333,7.8781333 4.7645334,8.6181332 C 4.6240001,8.7325333 4.4112,8.6346651 4.4109332,8.4557334 L 4.4000004,4.3453333 C 4.3997196,4.2261332 4.4997337,4.1304 4.6213333,4.1333334 Z"
     id="path37"
     class="ColorScheme-Text" />
  <metadata
     id="metadata1008">
    <rdf:RDF>
      <cc:Work
         rdf:about="">
        <dc:contributor>
          <cc:Agent><dc:title>dreifacherspass</dc:title>
</cc:Agent>
        </dc:contributor>
        <cc:license
           rdf:resource="http://creativecommons.org/licenses/by-sa/4.0/" />
      </cc:Work>
      <cc:License
         rdf:about="http://creativecommons.org/licenses/by-sa/4.0/">
        <cc:permits
           rdf:resource="http://creativecommons.org/ns#Reproduction" />
        <cc:permits
           rdf:resource="http://creativecommons.org/ns#Distribution" />
        <cc:requires
           rdf:resource="http://creativecommons.org/ns#Notice" />
        <cc:requires
           rdf:resource="http://creativecommons.org/ns#Attribution" />
        <cc:permits
           rdf:resource="http://creativecommons.org/ns#DerivativeWorks" />
        <cc:requires
           rdf:resource="http://creativecommons.org/ns#ShareAlike" />
      </cc:License>
    </rdf:RDF>
  </metadata>
</svg>
