<?xml version="1.0" encoding="UTF-8" standalone="no"?>
<!-- Generator: Gravit.io -->

<svg
   style="isolation:isolate"
   viewBox="0 0 48 48"
   width="48pt"
   height="48pt"
   version="1.1"
   id="svg39"
   xmlns:xlink="http://www.w3.org/1999/xlink"
   xmlns="http://www.w3.org/2000/svg"
   xmlns:svg="http://www.w3.org/2000/svg"
   xmlns:rdf="http://www.w3.org/1999/02/22-rdf-syntax-ns#"
   xmlns:cc="http://creativecommons.org/ns#"
   xmlns:dc="http://purl.org/dc/elements/1.1/">
  <defs
     id="defs43">
    <linearGradient
       id="attention"
       x1="0%"
       x2="0%"
       y1="100%"
       y2="0%">
      <stop
         style="stop-color:#41ff00;stop-opacity:1;"
         offset="0"
         id="stop2280" />
      <stop
         style="stop-color:#e7ff00;stop-opacity:1;"
         offset="1"
         id="stop2282" />
    </linearGradient>
  </defs>
  <path
     id="path447"
     style="fill:url(#attention);stroke-width:1.04445;fill-opacity:1"
     d="M 25.566667,11.430111 H 44.220445 V 24 v 0 0 c 0,0.904489 0.735288,1.639778 1.639777,1.639778 v 0 C 46.765755,25.639778 47.5,24.904489 47.5,24 V 24 3.7795555 C 47.5,1.9695333 46.030467,0.5 44.220445,0.5 H 3.7795555 C 1.9695333,0.5 0.5,1.9695333 0.5,3.7795555 v 6.0107778 0 c 0,0.9055337 1.4695333,1.6397777 3.2795555,1.6397777 v 0 0 -1.6397777 -4.9182888 c 0,-0.603689 0.4888,-1.092489 1.092489,-1.092489 H 43.127955 c 0.60369,0 1.09249,0.4888 1.09249,1.092489 V 8.1516 v 0 0 H 5.4182889 3.7795555 v 3.278511 0 H 5.4182889 22.433333 v 0.0052 5.055112 0 c 0,0.8648 0.701867,1.566666 1.566667,1.566666 v 0 c 0.8648,0 1.566667,-0.701866 1.566667,-1.566666 v 0 -5.055085 z m 0,32.790334 h 17.561288 c 0.60369,0 1.09249,-0.4888 1.09249,-1.09249 v -9.290333 0 c 0,-0.905533 0.735288,-1.639777 1.639777,-1.639777 v 0 c 0.905533,0 1.639778,0.734244 1.639778,1.639777 v 0 10.382823 C 47.5,46.030467 46.030467,47.5 44.220445,47.5 H 3.7795555 C 1.9695333,47.5 0.5,46.030467 0.5,44.220445 v -25.636934 0 c 0,-0.904489 0.7342445,-1.639778 1.6397778,-1.639778 v 0 c 0.9044889,0 1.6397777,0.735289 1.6397777,1.639778 v 0 0 0 24.544444 c 0,0.60369 0.4888,1.09249 1.092489,1.09249 H 22.433333 v -4.585112 0 c 0,-0.8648 0.701867,-1.566666 1.566667,-1.566666 v 0 c 0.8648,0 1.566667,0.701866 1.566667,1.566666 v 0 z" />
  <path
     style="fill:url(#attention);stroke-width:0.2762615;fill-opacity:1;font-variation-settings:normal;opacity:1;vector-effect:none;stroke-linecap:butt;stroke-linejoin:miter;stroke-miterlimit:4;stroke-dasharray:none;stroke-dashoffset:0;stroke-opacity:1;-inkscape-stroke:none;stop-color:#000000;stop-opacity:1"
     d="m 18.600222,16.688889 c 0.200533,0.0052 0.392711,0.07938 0.542067,0.209933 l 12.929178,10.281511 c 0.536844,0.468956 0.269466,1.337934 -0.4418,1.4382 l -5.013334,0.708134 2.348956,4.069155 c 0.525356,0.909711 0.214111,2.065911 -0.6956,2.590223 l -0.503422,0.292444 C 26.856555,36.8028 25.7014,36.4926 25.176045,35.582889 l -2.439823,-4.226867 -3.575133,2.898333 c -0.550422,0.448067 -1.383889,0.06475 -1.384934,-0.636066 l -0.04282,-16.099067 c -0.0011,-0.466867 0.390622,-0.841822 0.866889,-0.830333 z"
     id="path37"
     class="ColorScheme-Text" />
  <metadata
     id="metadata1008">
    <rdf:RDF>
      <cc:Work
         rdf:about="">
        <dc:contributor>
          <cc:Agent>foomox
            <dc:title>dreifacherspass</dc:title>
</cc:Agent>
        </dc:contributor>
        <cc:license
           rdf:resource="http://creativecommons.org/licenses/by-sa/4.0/" />
      </cc:Work>
      <cc:License
         rdf:about="http://creativecommons.org/licenses/by-sa/4.0/">
        <cc:permits
           rdf:resource="http://creativecommons.org/ns#Reproduction" />
        <cc:permits
           rdf:resource="http://creativecommons.org/ns#Distribution" />
        <cc:requires
           rdf:resource="http://creativecommons.org/ns#Notice" />
        <cc:requires
           rdf:resource="http://creativecommons.org/ns#Attribution" />
        <cc:permits
           rdf:resource="http://creativecommons.org/ns#DerivativeWorks" />
        <cc:requires
           rdf:resource="http://creativecommons.org/ns#ShareAlike" />
      </cc:License>
    </rdf:RDF>
  </metadata>
</svg>
