<?xml version="1.0" encoding="UTF-8" standalone="no"?>
<!-- Generator: Gravit.io -->

<svg
   style="isolation:isolate"
   viewBox="0 0 48 48"
   width="48pt"
   height="48pt"
   version="1.1"
   id="svg9"
   sodipodi:docname="test1krusader_root.svg"
   inkscape:version="1.2.2 (b0a8486541, 2022-12-01)"
   xmlns:inkscape="http://www.inkscape.org/namespaces/inkscape"
   xmlns:sodipodi="http://sodipodi.sourceforge.net/DTD/sodipodi-0.dtd"
   xmlns="http://www.w3.org/2000/svg"
   xmlns:svg="http://www.w3.org/2000/svg">
  <defs
     id="defs13">
    <filter
       inkscape:menu-tooltip="In and out glow with a possible offset and colorizable flood"
       inkscape:menu="Shadows and Glows"
       inkscape:label="Cutout Glow"
       style="color-interpolation-filters:sRGB;"
       id="filter903"
       x="-0.16"
       y="-0.16"
       width="1.3866667"
       height="1.3866667">
      <feOffset
         dy="3"
         dx="3"
         id="feOffset893" />
      <feGaussianBlur
         stdDeviation="3"
         result="blur"
         id="feGaussianBlur895" />
      <feFlood
         flood-color="rgb(0,0,0)"
         flood-opacity="1"
         result="flood"
         id="feFlood897" />
      <feComposite
         in="flood"
         in2="SourceGraphic"
         operator="in"
         result="composite"
         id="feComposite899" />
      <feBlend
         in="blur"
         in2="composite"
         mode="normal"
         id="feBlend901" />
    </filter>
  </defs>
  <sodipodi:namedview
     id="namedview11"
     pagecolor="#ffffff"
     bordercolor="#000000"
     borderopacity="0.25"
     inkscape:showpageshadow="2"
     inkscape:pageopacity="0.0"
     inkscape:pagecheckerboard="0"
     inkscape:deskcolor="#d1d1d1"
     inkscape:document-units="pt"
     showgrid="false"
     inkscape:zoom="3.6875"
     inkscape:cx="28.338983"
     inkscape:cy="32.542373"
     inkscape:window-width="1467"
     inkscape:window-height="730"
     inkscape:window-x="0"
     inkscape:window-y="0"
     inkscape:window-maximized="0"
     inkscape:current-layer="svg9" />
  <path
     d=" M 18.83 17 C 19.022 17.005 19.206 17.076 19.349 17.201 L 31.728 27.045 C 32.242 27.494 31.986 28.326 31.305 28.422 L 26.505 29.1 L 28.754 32.996 C 29.257 33.867 28.959 34.974 28.088 35.476 L 27.606 35.756 C 26.735 36.258 25.629 35.961 25.126 35.09 L 22.79 31.043 L 19.367 33.818 C 18.84 34.247 18.042 33.88 18.041 33.209 L 18 17.795 C 17.999 17.348 18.374 16.989 18.83 17 L 18.83 17 Z  M 25.5 11.965 L 43.36 11.965 L 43.36 24 L 43.36 24 L 43.36 24 C 43.36 24.866 44.064 25.57 44.93 25.57 L 44.93 25.57 C 45.797 25.57 46.5 24.866 46.5 24 L 46.5 24 L 46.5 4.64 C 46.5 2.907 45.093 1.5 43.36 1.5 L 4.64 1.5 C 2.907 1.5 1.5 2.907 1.5 4.64 L 1.5 10.395 L 1.5 10.395 C 1.5 11.262 2.907 11.965 4.64 11.965 L 4.64 11.965 L 4.64 11.965 L 4.64 10.395 L 4.64 5.686 C 4.64 5.108 5.108 4.64 5.686 4.64 L 42.314 4.64 C 42.892 4.64 43.36 5.108 43.36 5.686 L 43.36 8.826 L 43.36 8.826 L 43.36 8.826 L 6.209 8.826 L 4.64 8.826 L 4.64 11.965 L 4.64 11.965 L 6.209 11.965 L 22.5 11.965 L 22.5 11.97 L 22.5 16.81 L 22.5 16.81 C 22.5 17.638 23.172 18.31 24 18.31 L 24 18.31 C 24.828 18.31 25.5 17.638 25.5 16.81 L 25.5 16.81 L 25.5 11.97 L 25.5 11.965 L 25.5 11.965 Z  M 25.5 43.36 L 42.314 43.36 C 42.892 43.36 43.36 42.892 43.36 42.314 L 43.36 33.419 L 43.36 33.419 C 43.36 32.552 44.064 31.849 44.93 31.849 L 44.93 31.849 C 45.797 31.849 46.5 32.552 46.5 33.419 L 46.5 33.419 L 46.5 43.36 C 46.5 45.093 45.093 46.5 43.36 46.5 L 4.64 46.5 C 2.907 46.5 1.5 45.093 1.5 43.36 L 1.5 18.814 L 1.5 18.814 C 1.5 17.948 2.203 17.244 3.07 17.244 L 3.07 17.244 C 3.936 17.244 4.64 17.948 4.64 18.814 L 4.64 18.814 L 4.64 18.814 L 4.64 18.814 L 4.64 42.314 C 4.64 42.892 5.108 43.36 5.686 43.36 L 22.5 43.36 L 22.5 38.97 L 22.5 38.97 C 22.5 38.142 23.172 37.47 24 37.47 L 24 37.47 C 24.828 37.47 25.5 38.142 25.5 38.97 L 25.5 38.97 L 25.5 43.36 L 25.5 43.36 L 25.5 43.36 Z "
     fill-rule="evenodd"
     id="path7"
     style="fill:#00ff00;fill-opacity:1;filter:url(#filter903)" />
</svg>
