<?xml version="1.0" encoding="UTF-8" standalone="no"?>

<svg
   style="isolation:isolate"
   viewBox="0 0 12 12"
   width="16"
   height="16"
   version="1.1"
   id="svg39"
   xmlns:xlink="http://www.w3.org/1999/xlink"
   xmlns="http://www.w3.org/2000/svg"
   xmlns:svg="http://www.w3.org/2000/svg"
   xmlns:rdf="http://www.w3.org/1999/02/22-rdf-syntax-ns#"
   xmlns:cc="http://creativecommons.org/ns#"
   xmlns:dc="http://purl.org/dc/elements/1.1/">
  <defs>
   <style id="current-color-scheme" type="text/css">
   .ColorScheme-Text { color: #0abdc6; } .ColorScheme-Highlight { color:#5294e2; }
  </style>
  <linearGradient id="arrongin" x1="0%" x2="0%" y1="0%" y2="100%">
   <stop offset="0%" style="stop-color:#dd9b44; stop-opacity:1"/>
   <stop offset="100%" style="stop-color:#ad6c16; stop-opacity:1"/>
  </linearGradient>
  <linearGradient id="aurora" x1="0%" x2="0%" y1="0%" y2="100%">
   <stop offset="0%" style="stop-color:#09D4DF; stop-opacity:1"/>
   <stop offset="100%" style="stop-color:#9269F4; stop-opacity:1"/>
  </linearGradient>
  <linearGradient id="cyberneon" x1="0%" x2="0%" y1="0%" y2="100%">
    <stop offset="0" style="stop-color:#0abdc6; stop-opacity:1"/>
    <stop offset="1" style="stop-color:#ea00d9; stop-opacity:1"/>
  </linearGradient>
  <linearGradient id="fitdance" x1="0%" x2="0%" y1="0%" y2="100%">
   <stop offset="0%" style="stop-color:#1AD6AB; stop-opacity:1"/>
   <stop offset="100%" style="stop-color:#329DB6; stop-opacity:1"/>
  </linearGradient>
  <linearGradient id="oomox" x1="0%" x2="0%" y1="0%" y2="100%">
   <stop offset="0%" style="stop-color:#0abdc6; stop-opacity:1"/>
   <stop offset="100%" style="stop-color:#b800ff; stop-opacity:1"/>
  </linearGradient>
  <linearGradient id="rainblue" x1="0%" x2="0%" y1="0%" y2="100%">
   <stop offset="0%" style="stop-color:#00F260; stop-opacity:1"/>
   <stop offset="100%" style="stop-color:#0575E6; stop-opacity:1"/>
  </linearGradient>
  <linearGradient id="sunrise" x1="0%" x2="0%" y1="0%" y2="100%">
   <stop offset="0%" style="stop-color: #FF8501; stop-opacity:1"/>
   <stop offset="100%" style="stop-color: #FFCB01; stop-opacity:1"/>
  </linearGradient>
  <linearGradient id="telinkrin" x1="0%" x2="0%" y1="0%" y2="100%">
   <stop offset="0%" style="stop-color: #b2ced6; stop-opacity:1"/>
   <stop offset="100%" style="stop-color: #6da5b7; stop-opacity:1"/>
  </linearGradient>
  <linearGradient id="60spsycho" x1="0%" x2="0%" y1="0%" y2="100%">
   <stop offset="0%" style="stop-color: #df5940; stop-opacity:1"/>
   <stop offset="25%" style="stop-color: #d8d15f; stop-opacity:1"/>
   <stop offset="50%" style="stop-color: #e9882a; stop-opacity:1"/>
   <stop offset="100%" style="stop-color: #279362; stop-opacity:1"/>
  </linearGradient>
  <linearGradient id="90ssummer" x1="0%" x2="0%" y1="0%" y2="100%">
   <stop offset="0%" style="stop-color: #f618c7; stop-opacity:1"/>
   <stop offset="20%" style="stop-color: #94ffab; stop-opacity:1"/>
   <stop offset="50%" style="stop-color: #fbfd54; stop-opacity:1"/>
   <stop offset="100%" style="stop-color: #0f83ae; stop-opacity:1"/>
  </linearGradient>
 </defs>
  <path
     id="path447"
     class="ColorScheme-Text"
     style="fill:url(#oomox);stroke-width:0.266667"
     d="M 6.3999998,2.7906667 H 11.162667 V 6 6 6 c 0,0.2309333 0.187733,0.4186667 0.418667,0.4186667 v 0 C 11.812533,6.4186667 12,6.2309333 12,6 V 6 0.8373333 C 12,0.3752 11.6248,0 11.162667,0 H 0.8373333 C 0.37520003,0 0,0.3752 0,0.8373333 V 2.372 v 0 c 0,0.2312001 0.37520003,0.4186667 0.8373333,0.4186667 v 0 0 V 2.372 1.1162667 c 0,-0.1541334 0.1248,-0.2789334 0.2789334,-0.2789334 h 9.7674663 c 0.154134,0 0.278934,0.1248 0.278934,0.2789334 V 1.9536 v 0 0 h -9.9069337 -0.4184 v 0.8370667 0 h 0.4184 4.344267 v 0.00133 1.2906669 0 c 0,0.2208 0.1791997,0.3999998 0.3999997,0.3999998 v 0 c 0.2208,0 0.3999998,-0.1791998 0.3999998,-0.3999998 v 0 -1.29066 z m 0,8.3720003 h 4.4837332 c 0.154134,0 0.278934,-0.1248 0.278934,-0.278934 v -2.3719995 0 c 0,-0.2312002 0.187733,-0.4186665 0.418667,-0.4186665 v 0 C 11.812533,8.093067 12,8.2805333 12,8.5117335 v 0 2.6509335 C 12,11.6248 11.6248,12 11.162667,12 H 0.8373333 C 0.37520003,12 0,11.6248 0,11.162667 v -6.5456003 0 C 0,4.3861333 0.1874667,4.1984 0.41866665,4.1984 v 0 c 0.23093333,0 0.41866665,0.1877333 0.41866665,0.4186667 v 0 0 0 6.2666663 c 0,0.154134 0.1248,0.278934 0.2789334,0.278934 h 4.4837336 v -1.1706667 0 C 5.6000003,9.7712003 5.7792,9.5919998 6,9.5919998 v 0 c 0.2208,0 0.3999998,0.1792005 0.3999998,0.4000005 v 0 z" />
  <path
     style="fill:url(#oomox);fill-opacity:1;stroke-width:0.266667"
     d="m 4.6213335,4.1333333 c 0.051202,0.00133 0.1002668,0.020267 0.1383998,0.0536 L 8.0607998,6.812 c 0.137067,0.1197333 0.068798,0.3416001 -0.1128,0.3672 L 6.6680003,7.3600001 7.2677333,8.3989335 C 7.401867,8.6312003 7.3224003,8.9264003 7.0901332,9.060267 L 6.9615997,9.134937 C 6.729333,9.2688 6.4344,9.1896 6.300267,8.9573333 L 5.6773335,7.8781335 4.7645333,8.618133 C 4.6239998,8.7325335 4.4112,8.634663 4.410933,8.4557333 L 4.4,4.3453333 C 4.3997197,4.2261332 4.4997338,4.1304 4.6213335,4.1333333 Z"
     id="path37"
     class="ColorScheme-Text" />
  <metadata
     id="metadata1008">
    <rdf:RDF>
      <cc:Work
         rdf:about="">
        <dc:contributor>
          <cc:Agent>
             <dc:title>dreifacherspass</dc:title>
         </cc:Agent>
        </dc:contributor>
        <cc:license
           rdf:resource="http://creativecommons.org/licenses/by-sa/4.0/" />
      </cc:Work>
      <cc:License
         rdf:about="http://creativecommons.org/licenses/by-sa/4.0/">
        <cc:permits
           rdf:resource="http://creativecommons.org/ns#Reproduction" />
        <cc:permits
           rdf:resource="http://creativecommons.org/ns#Distribution" />
        <cc:requires
           rdf:resource="http://creativecommons.org/ns#Notice" />
        <cc:requires
           rdf:resource="http://creativecommons.org/ns#Attribution" />
        <cc:permits
           rdf:resource="http://creativecommons.org/ns#DerivativeWorks" />
        <cc:requires
           rdf:resource="http://creativecommons.org/ns#ShareAlike" />
      </cc:License>
    </rdf:RDF>
  </metadata>
</svg>
