<?xml version="1.0" encoding="UTF-8" standalone="no"?>
<svg
   width="16"
   height="16"
   version="1.1"
   id="svg2421"
   xmlns="http://www.w3.org/2000/svg"
   xmlns:svg="http://www.w3.org/2000/svg"
   xmlns:rdf="http://www.w3.org/1999/02/22-rdf-syntax-ns#"
   xmlns:cc="http://creativecommons.org/ns#"
   xmlns:dc="http://purl.org/dc/elements/1.1/">
  <defs>
   <style id="current-color-scheme" type="text/css">
   .ColorScheme-Text { color: #0abdc6; } .ColorScheme-Highlight { color:#5294e2; }
  </style>
  <linearGradient id="arrongin" x1="0%" x2="0%" y1="0%" y2="100%">
   <stop offset="0%" style="stop-color:#dd9b44; stop-opacity:1"/>
   <stop offset="100%" style="stop-color:#ad6c16; stop-opacity:1"/>
  </linearGradient>
  <linearGradient id="aurora" x1="0%" x2="0%" y1="0%" y2="100%">
   <stop offset="0%" style="stop-color:#09D4DF; stop-opacity:1"/>
   <stop offset="100%" style="stop-color:#9269F4; stop-opacity:1"/>
  </linearGradient>
  <linearGradient id="cyberneon" x1="0%" x2="0%" y1="0%" y2="100%">
    <stop offset="0" style="stop-color:#0abdc6; stop-opacity:1"/>
    <stop offset="1" style="stop-color:#ea00d9; stop-opacity:1"/>
  </linearGradient>
  <linearGradient id="fitdance" x1="0%" x2="0%" y1="0%" y2="100%">
   <stop offset="0%" style="stop-color:#1AD6AB; stop-opacity:1"/>
   <stop offset="100%" style="stop-color:#329DB6; stop-opacity:1"/>
  </linearGradient>
  <linearGradient id="oomox" x1="0%" x2="0%" y1="0%" y2="100%">
   <stop offset="0%" style="stop-color:#0abdc6; stop-opacity:1"/>
   <stop offset="100%" style="stop-color:#b800ff; stop-opacity:1"/>
  </linearGradient>
  <linearGradient id="rainblue" x1="0%" x2="0%" y1="0%" y2="100%">
   <stop offset="0%" style="stop-color:#00F260; stop-opacity:1"/>
   <stop offset="100%" style="stop-color:#0575E6; stop-opacity:1"/>
  </linearGradient>
  <linearGradient id="sunrise" x1="0%" x2="0%" y1="0%" y2="100%">
   <stop offset="0%" style="stop-color: #FF8501; stop-opacity:1"/>
   <stop offset="100%" style="stop-color: #FFCB01; stop-opacity:1"/>
  </linearGradient>
  <linearGradient id="telinkrin" x1="0%" x2="0%" y1="0%" y2="100%">
   <stop offset="0%" style="stop-color: #b2ced6; stop-opacity:1"/>
   <stop offset="100%" style="stop-color: #6da5b7; stop-opacity:1"/>
  </linearGradient>
  <linearGradient id="60spsycho" x1="0%" x2="0%" y1="0%" y2="100%">
   <stop offset="0%" style="stop-color: #df5940; stop-opacity:1"/>
   <stop offset="25%" style="stop-color: #d8d15f; stop-opacity:1"/>
   <stop offset="50%" style="stop-color: #e9882a; stop-opacity:1"/>
   <stop offset="100%" style="stop-color: #279362; stop-opacity:1"/>
  </linearGradient>
  <linearGradient id="90ssummer" x1="0%" x2="0%" y1="0%" y2="100%">
   <stop offset="0%" style="stop-color: #f618c7; stop-opacity:1"/>
   <stop offset="20%" style="stop-color: #94ffab; stop-opacity:1"/>
   <stop offset="50%" style="stop-color: #fbfd54; stop-opacity:1"/>
   <stop offset="100%" style="stop-color: #0f83ae; stop-opacity:1"/>
  </linearGradient>
 </defs>
  <path
     id="path24"
     class="ColorScheme-Text"
     d="M 3.9394529,0 C 2.7680442,1.4764985 2.4173341,2.2047322 2.8398437,3.1445314 3.2228833,3.9964504 4.2125433,4.4302226 3.7148435,6.4003905 4.5323329,5.4404814 5.1809817,4.2217004 4.5390624,3.2382812 3.886053,2.2380723 3.5287935,1.6298684 3.9394529,0 Z m 3.199219,0 C 5.9672629,1.4764985 5.6165528,2.2047322 6.0390624,3.1445314 6.4221017,3.9964504 7.411762,4.4302226 6.9140622,6.4003905 7.7315516,5.4404814 8.3821535,4.2217004 7.7402341,3.2382812 7.0872251,2.2380723 6.7280122,1.6298684 7.1386719,0 Z M 10.339844,0 C 9.168435,1.4764985 8.8177245,2.2047322 9.2402345,3.1445314 9.6232741,3.9964504 10.612934,4.4302226 10.115234,6.4003905 10.932724,5.4404814 11.581372,4.2217004 10.939453,3.2382812 10.286444,2.2380723 9.9291839,1.6298684 10.339844,0 Z M 0.533203,7.4667969 V 10.666016 C 0.533203,13.866012 2.6671906,16 5.8671873,16 h 2.1328126 c 3.1999971,0 5.0765831,-1.670981 5.2890621,-4.267578 h 0.578126 c 1.599998,0 1.599609,-1.599609 1.599609,-1.59961 V 9.0664061 c 0,-1.5999983 -1.59961,-1.5996092 -1.599609,-1.5996092 h -0.533204 z m 6.5859374,1.0195313 c 1.7671983,0 3.1992186,1.4320218 3.1992186,3.1992188 0,1.767198 -1.4320203,3.201172 -3.1992186,3.201172 -1.7671983,0 -3.2011714,-1.433974 -3.2011714,-3.201172 -4e-7,-1.767197 1.4339731,-3.1992188 3.2011714,-3.1992188 z m 6.7480476,0.046875 c 0.533339,-0.0344 0.548828,0.5664064 0.548828,0.5664064 v 1.0664064 c 0,0.499999 -0.548829,0.5 -0.548828,0.5 h -0.533204 l 0.0098,-2.1152346 z m -6.7480476,1.152344 c -0.2211006,0 -0.4003905,0.1792906 -0.4003905,0.4003908 v 1.599609 c 0,0.0523 0.010849,0.103544 0.031248,0.152344 0.0203,0.0493 0.048838,0.09416 0.085937,0.130859 l 0.7929688,0.792969 c 0.1565999,0.1566 0.4176187,0.164412 0.5742189,0.0078 0.1563006,-0.156301 0.1586536,-0.4058 0.00194,-0.5625 l -0.6855468,-0.6875 v -1.433593 c 0,-0.2210998 -0.179292,-0.4003907 -0.4003909,-0.4003907 z"
     style="fill:url(#oomox);fill-opacity:1;stroke-width:1" />
  <metadata
     id="metadata3694">
    <rdf:RDF>
      <cc:Work
         rdf:about="">
        <dc:creator>
          <cc:Agent>
            <dc:title>dreifacherspass</dc:title>
          </cc:Agent>
        </dc:creator>
        <cc:license
           rdf:resource="http://creativecommons.org/licenses/by-sa/4.0/" />
      </cc:Work>
      <cc:License
         rdf:about="http://creativecommons.org/licenses/by-sa/4.0/">
        <cc:permits
           rdf:resource="http://creativecommons.org/ns#Reproduction" />
        <cc:permits
           rdf:resource="http://creativecommons.org/ns#Distribution" />
        <cc:requires
           rdf:resource="http://creativecommons.org/ns#Notice" />
        <cc:requires
           rdf:resource="http://creativecommons.org/ns#Attribution" />
        <cc:permits
           rdf:resource="http://creativecommons.org/ns#DerivativeWorks" />
        <cc:requires
           rdf:resource="http://creativecommons.org/ns#ShareAlike" />
      </cc:License>
    </rdf:RDF>
  </metadata>
</svg>
