<?xml version="1.0" encoding="UTF-8" standalone="no"?>
<svg
   width="48"
   height="48"
   version="1.1"
   id="svg2421"
   xmlns:xlink="http://www.w3.org/1999/xlink"
   xmlns="http://www.w3.org/2000/svg"
   xmlns:svg="http://www.w3.org/2000/svg"
   xmlns:rdf="http://www.w3.org/1999/02/22-rdf-syntax-ns#"
   xmlns:cc="http://creativecommons.org/ns#"
   xmlns:dc="http://purl.org/dc/elements/1.1/">
  <defs
     id="defs2417">
    <style
       id="current-color-scheme"
       type="text/css">
   .ColorScheme-Text { color: #0abdc6; } .ColorScheme-Highlight { color:#5294e2; }
  </style>
    <linearGradient
       id="arrongin"
       x1="0"
       x2="0"
       y1="0"
       y2="1">
      <stop
         offset="0%"
         style="stop-color:#dd9b44; stop-opacity:1"
         id="stop2359" />
      <stop
         offset="100%"
         style="stop-color:#ad6c16; stop-opacity:1"
         id="stop2361" />
    </linearGradient>
    <linearGradient
       id="aurora"
       x1="0"
       x2="0"
       y1="0"
       y2="1">
      <stop
         offset="0%"
         style="stop-color:#09D4DF; stop-opacity:1"
         id="stop2364" />
      <stop
         offset="100%"
         style="stop-color:#9269F4; stop-opacity:1"
         id="stop2366" />
    </linearGradient>
    <linearGradient
       id="cyberneon"
       x1="0"
       x2="0"
       y1="0"
       y2="1">
      <stop
         offset="0"
         style="stop-color:#0abdc6; stop-opacity:1"
         id="stop2369" />
      <stop
         offset="1"
         style="stop-color:#ea00d9; stop-opacity:1"
         id="stop2371" />
    </linearGradient>
    <linearGradient
       id="fitdance"
       x1="0"
       x2="0"
       y1="0"
       y2="1">
      <stop
         offset="0%"
         style="stop-color:#1AD6AB; stop-opacity:1"
         id="stop2374" />
      <stop
         offset="100%"
         style="stop-color:#329DB6; stop-opacity:1"
         id="stop2376" />
    </linearGradient>
    <linearGradient
       id="oomox"
       x1="0"
       x2="0"
       y1="0"
       y2="1">
      <stop
         offset="0%"
         style="stop-color:#0abdc6; stop-opacity:1"
         id="stop2379" />
      <stop
         offset="100%"
         style="stop-color:#b800ff; stop-opacity:1"
         id="stop2381" />
    </linearGradient>
    <linearGradient
       id="rainblue"
       x1="0"
       x2="0"
       y1="0"
       y2="1">
      <stop
         offset="0%"
         style="stop-color:#00F260; stop-opacity:1"
         id="stop2384" />
      <stop
         offset="100%"
         style="stop-color:#0575E6; stop-opacity:1"
         id="stop2386" />
    </linearGradient>
    <linearGradient
       id="sunrise"
       x1="0"
       x2="0"
       y1="0"
       y2="1">
      <stop
         offset="0%"
         style="stop-color: #FF8501; stop-opacity:1"
         id="stop2389" />
      <stop
         offset="100%"
         style="stop-color: #FFCB01; stop-opacity:1"
         id="stop2391" />
    </linearGradient>
    <linearGradient
       id="telinkrin"
       x1="0"
       x2="0"
       y1="0"
       y2="1">
      <stop
         offset="0%"
         style="stop-color: #b2ced6; stop-opacity:1"
         id="stop2394" />
      <stop
         offset="100%"
         style="stop-color: #6da5b7; stop-opacity:1"
         id="stop2396" />
    </linearGradient>
    <linearGradient
       id="60spsycho"
       x1="0"
       x2="0"
       y1="0"
       y2="1">
      <stop
         offset="0%"
         style="stop-color: #df5940; stop-opacity:1"
         id="stop2399" />
      <stop
         offset="25%"
         style="stop-color: #d8d15f; stop-opacity:1"
         id="stop2401" />
      <stop
         offset="50%"
         style="stop-color: #e9882a; stop-opacity:1"
         id="stop2403" />
      <stop
         offset="100%"
         style="stop-color: #279362; stop-opacity:1"
         id="stop2405" />
    </linearGradient>
    <linearGradient
       id="90ssummer"
       x1="0"
       x2="0"
       y1="0"
       y2="1">
      <stop
         offset="0%"
         style="stop-color: #f618c7; stop-opacity:1"
         id="stop2408" />
      <stop
         offset="20%"
         style="stop-color: #94ffab; stop-opacity:1"
         id="stop2410" />
      <stop
         offset="50%"
         style="stop-color: #fbfd54; stop-opacity:1"
         id="stop2412" />
      <stop
         offset="100%"
         style="stop-color: #0f83ae; stop-opacity:1"
         id="stop2414" />
    </linearGradient>
  </defs>
  <path
     id="path24"
     class="ColorScheme-Text"
     d="M 12.072143,0.5 C 8.6311299,4.8372144 7.600919,6.9764008 8.8420411,9.737061 c 1.1251787,2.502512 4.0323049,3.776718 2.5703119,9.564086 2.401375,-2.819733 4.306781,-6.399902 2.421143,-9.288696 C 11.915281,7.0743373 10.865831,5.2877383 12.072143,0.5 Z m 9.397706,0 c -3.441014,4.3372144 -4.471225,6.4764008 -3.230103,9.237061 1.125178,2.502512 4.032305,3.776718 2.570312,9.564086 2.401375,-2.819733 4.312518,-6.399902 2.42688,-9.288696 C 21.318724,7.0743373 20.263536,5.2877383 21.469849,0.5 Z m 9.403443,0 c -3.441014,4.3372144 -4.471226,6.4764008 -3.230103,9.237061 1.125179,2.502512 4.032304,3.776718 2.57031,9.564086 2.401378,-2.819733 4.306781,-6.399902 2.421144,-9.288696 C 30.71643,7.0743373 29.666978,5.2877383 30.873292,0.5 Z M 2.066284,22.433716 v 9.397705 C 2.066284,41.23141 8.3348726,47.5 17.734863,47.5 H 24 c 9.399991,0 14.912463,-4.908507 15.53662,-12.53601 h 1.698244 c 4.699994,0 4.698852,-4.698852 4.698852,-4.698855 v -3.132567 c 0,-4.699995 -4.698854,-4.698852 -4.698852,-4.698852 h -1.566286 z m 19.346191,2.994873 c 5.191145,0 9.397704,4.206564 9.397704,9.397706 0,5.191144 -4.206559,9.403441 -9.397704,9.403441 -5.191145,0 -9.403441,-4.212297 -9.403441,-9.403441 -10e-7,-5.191142 4.212296,-9.397706 9.403441,-9.397706 z m 19.822389,0.137695 c 1.566683,-0.101051 1.612183,1.663819 1.612183,1.663819 v 3.132569 c 0,1.468747 -1.612185,1.468749 -1.612183,1.468749 h -1.566286 l 0.02878,-6.213501 z m -19.822389,3.385011 c -0.649483,0 -1.176147,0.526666 -1.176147,1.176148 v 4.698852 c 0,0.153631 0.03187,0.30416 0.09179,0.44751 0.05963,0.144819 0.143462,0.276594 0.25244,0.384398 l 2.329346,2.329347 c 0.460012,0.460012 1.226755,0.482959 1.686768,0.02291 0.459133,-0.459135 0.466045,-1.192037 0.0057,-1.652344 l -2.013794,-2.019531 v -4.21118 c 0,-0.649481 -0.52667,-1.176148 -1.176148,-1.176148 z"
     style="fill:url(#oomox);fill-opacity:1;stroke-width:2.9375" />
  <metadata
     id="metadata3694">
    <rdf:RDF>
      <cc:Work
         rdf:about="">
        <dc:creator>
          <cc:Agent>
            <dc:title>dreifacherspass</dc:title>
          </cc:Agent>
        </dc:creator>
        <cc:license
           rdf:resource="http://creativecommons.org/licenses/by-sa/4.0/" />
      </cc:Work>
      <cc:License
         rdf:about="http://creativecommons.org/licenses/by-sa/4.0/">
        <cc:permits
           rdf:resource="http://creativecommons.org/ns#Reproduction" />
        <cc:permits
           rdf:resource="http://creativecommons.org/ns#Distribution" />
        <cc:requires
           rdf:resource="http://creativecommons.org/ns#Notice" />
        <cc:requires
           rdf:resource="http://creativecommons.org/ns#Attribution" />
        <cc:permits
           rdf:resource="http://creativecommons.org/ns#DerivativeWorks" />
        <cc:requires
           rdf:resource="http://creativecommons.org/ns#ShareAlike" />
      </cc:License>
    </rdf:RDF>
  </metadata>
</svg>
