<?xml version="1.0" encoding="UTF-8" standalone="no"?>
<svg
   height="16"
   viewBox="0 0 16 16"
   width="16"
   version="1.1"
   id="svg20"
   xmlns:xlink="http://www.w3.org/1999/xlink"
   xmlns="http://www.w3.org/2000/svg"
   xmlns:svg="http://www.w3.org/2000/svg"
   xmlns:rdf="http://www.w3.org/1999/02/22-rdf-syntax-ns#"
   xmlns:cc="http://creativecommons.org/ns#"
   xmlns:dc="http://purl.org/dc/elements/1.1/">
  <defs>
   <style id="current-color-scheme" type="text/css">
   .ColorScheme-Text { color: #0abdc6; } .ColorScheme-Highlight { color:#5294e2; }
  </style>
  <linearGradient id="arrongin" x1="0%" x2="0%" y1="0%" y2="100%">
   <stop offset="0%" style="stop-color:#dd9b44; stop-opacity:1"/>
   <stop offset="100%" style="stop-color:#ad6c16; stop-opacity:1"/>
  </linearGradient>
  <linearGradient id="aurora" x1="0%" x2="0%" y1="0%" y2="100%">
   <stop offset="0%" style="stop-color:#09D4DF; stop-opacity:1"/>
   <stop offset="100%" style="stop-color:#9269F4; stop-opacity:1"/>
  </linearGradient>
  <linearGradient id="cyberneon" x1="0%" x2="0%" y1="0%" y2="100%">
    <stop offset="0" style="stop-color:#0abdc6; stop-opacity:1"/>
    <stop offset="1" style="stop-color:#ea00d9; stop-opacity:1"/>
  </linearGradient>
  <linearGradient id="fitdance" x1="0%" x2="0%" y1="0%" y2="100%">
   <stop offset="0%" style="stop-color:#1AD6AB; stop-opacity:1"/>
   <stop offset="100%" style="stop-color:#329DB6; stop-opacity:1"/>
  </linearGradient>
  <linearGradient id="oomox" x1="0%" x2="0%" y1="0%" y2="100%">
   <stop offset="0%" style="stop-color:#0abdc6; stop-opacity:1"/>
   <stop offset="100%" style="stop-color:#b800ff; stop-opacity:1"/>
  </linearGradient>
  <linearGradient id="rainblue" x1="0%" x2="0%" y1="0%" y2="100%">
   <stop offset="0%" style="stop-color:#00F260; stop-opacity:1"/>
   <stop offset="100%" style="stop-color:#0575E6; stop-opacity:1"/>
  </linearGradient>
  <linearGradient id="sunrise" x1="0%" x2="0%" y1="0%" y2="100%">
   <stop offset="0%" style="stop-color: #FF8501; stop-opacity:1"/>
   <stop offset="100%" style="stop-color: #FFCB01; stop-opacity:1"/>
  </linearGradient>
  <linearGradient id="telinkrin" x1="0%" x2="0%" y1="0%" y2="100%">
   <stop offset="0%" style="stop-color: #b2ced6; stop-opacity:1"/>
   <stop offset="100%" style="stop-color: #6da5b7; stop-opacity:1"/>
  </linearGradient>
  <linearGradient id="60spsycho" x1="0%" x2="0%" y1="0%" y2="100%">
   <stop offset="0%" style="stop-color: #df5940; stop-opacity:1"/>
   <stop offset="25%" style="stop-color: #d8d15f; stop-opacity:1"/>
   <stop offset="50%" style="stop-color: #e9882a; stop-opacity:1"/>
   <stop offset="100%" style="stop-color: #279362; stop-opacity:1"/>
  </linearGradient>
  <linearGradient id="90ssummer" x1="0%" x2="0%" y1="0%" y2="100%">
   <stop offset="0%" style="stop-color: #f618c7; stop-opacity:1"/>
   <stop offset="20%" style="stop-color: #94ffab; stop-opacity:1"/>
   <stop offset="50%" style="stop-color: #fbfd54; stop-opacity:1"/>
   <stop offset="100%" style="stop-color: #0f83ae; stop-opacity:1"/>
  </linearGradient>
 </defs>
  <path
     id="rect24"
     class="ColorScheme-Text"
     style="opacity:1;fill:url(#oomox);stroke-width:0.139128"
     transform="matrix(0.71303341,0.70113005,-0.71303341,0.70113005,0,0)"
     d="m 10.331962,-8.2995176 h 3.41626 l -0.02626,2.0584375 h -3.41626 z" />
  <path
     d="m 7.74,2.4 c 0.8145984,0 1.6204376,0.160584 2.372263,0.4729928 0.751825,0.3109492 1.435036,0.7678836 2.011679,1.343066 0.575182,0.5751824 1.032116,1.259854 1.343066,2.0116788 C 13.779416,6.9795628 13.94,7.785402 13.94,8.6000004 h -6.2 z m 0,0"
     id="path16"
     class="ColorScheme-Text"
     style="display:inline;opacity:0.4;fill:url(#oomox);stroke-width:0.4" />
  <rect
     style="display:inline;fill:url(#oomox);stroke-width:0.122753"
     id="rect27"
     class="ColorScheme-Text"
     width="1.2029999"
     height="5.9590793"
     x="8"
     y="-13.95908"
     transform="rotate(90)" />
  <path
     d="m 7.74,9.6 c 0.5519996,0 1,-0.4464468 1,-0.9989992 C 8.74,8.0484488 8.2919996,7.6 7.74,7.6 c -0.5519996,0 -1,0.4484488 -1,1.0010008 C 6.74,9.1535532 7.1880004,9.6 7.74,9.6 Z m 0,0"
     fill-opacity="1"
     id="path18"
     class="ColorScheme-Text"
     style="stroke-width:0.4;fill:url(#oomox)" />
  <metadata
     id="metadata20">
    <rdf:RDF>
      <cc:Work
         rdf:about="">
        <dc:creator>
          <cc:Agent>
            <dc:title>dreifacherspass</dc:title>
          </cc:Agent>
        </dc:creator>
        <cc:license
           rdf:resource="http://creativecommons.org/licenses/by-sa/4.0/" />
      </cc:Work>
      <cc:License
         rdf:about="http://creativecommons.org/licenses/by-sa/4.0/">
        <cc:permits
           rdf:resource="http://creativecommons.org/ns#Reproduction" />
        <cc:permits
           rdf:resource="http://creativecommons.org/ns#Distribution" />
        <cc:requires
           rdf:resource="http://creativecommons.org/ns#Notice" />
        <cc:requires
           rdf:resource="http://creativecommons.org/ns#Attribution" />
        <cc:permits
           rdf:resource="http://creativecommons.org/ns#DerivativeWorks" />
        <cc:requires
           rdf:resource="http://creativecommons.org/ns#ShareAlike" />
      </cc:License>
    </rdf:RDF>
  </metadata>
  <path
     id="path12"
     class="ColorScheme-Text"
     d="m 4.34,0 v 1.2 h 3.4 3.8 V 0 Z m 3.4,1.2 c -4.0865856,0 -7.4,3.3134144 -7.4,7.4 0,4.086586 3.3134144,7.4 7.4,7.4 4.086585,0 7.4,-3.313414 7.4,-7.4 0,-4.0865856 -3.313415,-7.4 -7.4,-7.4 z m -8e-4,1.2 C 11.162976,2.4 13.94,5.177024 13.94,8.6007812 13.94,12.024538 11.162975,14.8 7.7392188,14.8 4.3154608,14.8 1.54,12.024538 1.54,8.6007812 1.54,5.177024 4.3154608,2.4 7.7392188,2.4 Z"
     style="stroke-width:0.4;fill:url(#oomox)" />
</svg>
