<?xml version="1.0" encoding="UTF-8" standalone="no"?>
<svg
   width="16"
   version="1.1"
   height="16"
   viewBox="0 0 16 16"
   id="svg26"
   xmlns:xlink="http://www.w3.org/1999/xlink"
   xmlns="http://www.w3.org/2000/svg"
   xmlns:svg="http://www.w3.org/2000/svg"
   xmlns:rdf="http://www.w3.org/1999/02/22-rdf-syntax-ns#"
   xmlns:cc="http://creativecommons.org/ns#"
   xmlns:dc="http://purl.org/dc/elements/1.1/">
   <defs>
      <style id="current-color-scheme" type="text/css">
         .ColorScheme-Text { color: #0abdc6; } .ColorScheme-Highlight { color:#5294e2; }
      </style>
      <linearGradient id="arrongin" x1="0%" x2="0%" y1="0%" y2="100%">
         <stop offset="0%" style="stop-color:#dd9b44; stop-opacity:1"/>
         <stop offset="100%" style="stop-color:#ad6c16; stop-opacity:1"/>
      </linearGradient>
      <linearGradient id="aurora" x1="0%" x2="0%" y1="0%" y2="100%">
         <stop offset="0%" style="stop-color:#09D4DF; stop-opacity:1"/>
         <stop offset="100%" style="stop-color:#9269F4; stop-opacity:1"/>
      </linearGradient>
      <linearGradient id="cyberneon" x1="0%" x2="0%" y1="0%" y2="100%">
         <stop offset="0" style="stop-color:#0abdc6; stop-opacity:1"/>
         <stop offset="1" style="stop-color:#ea00d9; stop-opacity:1"/>
      </linearGradient>
      <linearGradient id="fitdance" x1="0%" x2="0%" y1="0%" y2="100%">
         <stop offset="0%" style="stop-color:#1AD6AB; stop-opacity:1"/>
         <stop offset="100%" style="stop-color:#329DB6; stop-opacity:1"/>
      </linearGradient>
      <linearGradient id="oomox" x1="0%" x2="0%" y1="0%" y2="100%">
         <stop offset="0%" style="stop-color:#0abdc6; stop-opacity:1"/>
         <stop offset="100%" style="stop-color:#b800ff; stop-opacity:1"/>
      </linearGradient>
      <linearGradient id="rainblue" x1="0%" x2="0%" y1="0%" y2="100%">
         <stop offset="0%" style="stop-color:#00F260; stop-opacity:1"/>
         <stop offset="100%" style="stop-color:#0575E6; stop-opacity:1"/>
      </linearGradient>
      <linearGradient id="sunrise" x1="0%" x2="0%" y1="0%" y2="100%">
         <stop offset="0%" style="stop-color: #FF8501; stop-opacity:1"/>
         <stop offset="100%" style="stop-color: #FFCB01; stop-opacity:1"/>
      </linearGradient>
      <linearGradient id="telinkrin" x1="0%" x2="0%" y1="0%" y2="100%">
         <stop offset="0%" style="stop-color: #b2ced6; stop-opacity:1"/>
         <stop offset="100%" style="stop-color: #6da5b7; stop-opacity:1"/>
      </linearGradient>
      <linearGradient id="60spsycho" x1="0%" x2="0%" y1="0%" y2="100%">
         <stop offset="0%" style="stop-color: #df5940; stop-opacity:1"/>
         <stop offset="25%" style="stop-color: #d8d15f; stop-opacity:1"/>
         <stop offset="50%" style="stop-color: #e9882a; stop-opacity:1"/>
         <stop offset="100%" style="stop-color: #279362; stop-opacity:1"/>
      </linearGradient>
      <linearGradient id="90ssummer" x1="0%" x2="0%" y1="0%" y2="100%">
         <stop offset="0%" style="stop-color: #f618c7; stop-opacity:1"/>
         <stop offset="20%" style="stop-color: #94ffab; stop-opacity:1"/>
         <stop offset="50%" style="stop-color: #fbfd54; stop-opacity:1"/>
         <stop offset="100%" style="stop-color: #0f83ae; stop-opacity:1"/>
      </linearGradient>
   </defs>
  <path
     style="fill:url(#oomox);stroke-width:1.39999;stroke-opacity:0.550265"
     d="M 7.5000008,0 C 7.2459999,0 6.9968821,0.01913348 6.7500009,0.04492245 V 1.5527334 c 0.2464392,-0.030257 0.4950459,-0.052734 0.7499999,-0.052734 0.2542507,0 0.5035204,0.01777 0.7499989,0.0459 V 0.03710937 C 8.0028965,0.01431218 7.7532506,0 7.5000008,0 Z M 8.8349606,0.11914045 8.4443361,1.5751938 c 0.5050014,0.073102 0.9913284,0.2012704 1.4511696,0.3828121 L 10.285154,0.50488227 C 9.8204423,0.33301893 9.336356,0.20288321 8.8349606,0.11914045 Z M 10.832029,0.72851484 10.080076,2.0302714 c 0.464456,0.2000452 0.896457,0.457238 1.296875,0.7548817 L 12.131832,1.476561 C 11.725087,1.1878038 11.290701,0.93811198 10.832029,0.72851484 Z M 6.4267601,1.0917958 C 5.9305306,1.1686039 5.444007,1.2985836 4.9755895,1.4794904 L 5.1044951,1.9589825 C 5.572087,1.7753681 6.0593883,1.6465788 6.5566421,1.5751938 Z M 4.6718784,1.6025374 C 4.213917,1.8060427 3.7791329,2.0581389 3.375005,2.3544895 L 3.6259811,2.78906 C 4.0285821,2.4901214 4.4644223,2.2387756 4.9248074,2.0400369 Z M 12.60644,1.8330061 11.536129,2.9033179 c 0.393507,0.3115778 0.748967,0.6670379 1.060547,1.060545 L 13.666985,2.8935514 C 13.347427,2.5075834 12.99241,2.1525663 12.60644,1.8330061 Z M 3.113286,2.5527318 C 2.7219401,2.8661655 2.3654026,3.2207394 2.0498106,3.6103482 L 2.409185,3.9697226 C 2.7187834,3.575035 3.073028,3.2175126 3.4648489,2.9042943 Z M 14.023432,3.3681601 12.71484,4.1230422 c 0.29747,0.4001849 0.55489,0.8317454 0.754881,1.2958981 L 14.771478,4.6679639 C 14.561881,4.2092916 14.312189,3.774907 14.023432,3.3681601 Z M 1.8544983,3.8749955 C 1.5590447,4.2798734 1.3079299,4.7153131 1.1054761,5.1738228 L 1.5351627,5.422846 C 1.73588,4.9628615 1.9891947,4.5276715 2.2900449,4.1259726 Z M 14.99511,5.2148385 13.541987,5.6044866 c 0.18154,0.459841 0.30971,0.9461691 0.382813,1.4511705 L 15.380851,6.6650326 C 15.297106,6.1636362 15.166973,5.67955 14.99511,5.2148385 Z M 0.97168678,5.4746035 C 0.79218046,5.9428585 0.66351206,6.4290473 0.58789815,6.9247976 L 1.0771556,7.0556571 C 1.1493184,6.5589878 1.278761,6.0723473 1.4628972,5.605463 Z M 0.5488357,7.2499924 c -0.0296947,0.2489446 -0.0459945,0.4993055 -0.0488282,0.7499989 9.0004e-4,0.2505893 0.0152299,0.5009491 0.0429696,0.7499999 H 1.0517662 C 1.0200569,8.5011996 1.0027754,8.2507803 1.0000076,7.9999913 c 0.00144,-0.2507126 0.017451,-0.5011308 0.04785,-0.7499989 z m 13.4052603,0 c 0.02813,0.2464785 0.0459,0.4957482 0.0459,0.7499989 0,0.2542507 -0.01777,0.5035214 -0.0459,0.7499999 h 1.508786 c 0.0228,-0.2471032 0.03711,-0.4967501 0.03711,-0.7499999 0,-0.2532498 -0.01431,-0.5028956 -0.03711,-0.7499989 z M 1.0752026,8.9443265 0.59180464,9.0742096 C 0.66868069,9.5701065 0.7986599,10.0563 0.97949923,10.524403 L 1.4589913,10.395497 C 1.2754495,9.9282186 1.1466615,9.4412487 1.0752026,8.9443265 Z m 12.8495964,0 c -0.0731,0.5050015 -0.201272,0.9913295 -0.382812,1.4511705 l 1.453122,0.389648 c 0.171864,-0.464711 0.302,-0.9487975 0.385742,-1.450194 z M 1.5400457,10.575185 1.1025461,10.828113 c 0.2035053,0.457962 0.4556015,0.892746 0.7519522,1.296874 l 0.4345701,-0.250976 c -0.2989382,-0.4026 -0.550284,-0.838442 -0.7490227,-1.298826 z m 11.9296753,0.0049 c -0.200045,0.464455 -0.457238,0.896456 -0.754881,1.296873 l 1.308591,0.754882 c 0.288757,-0.406745 0.538449,-0.841131 0.748047,-1.299803 z M 2.4043028,12.035148 2.0527406,12.386711 c 0.3134345,0.391346 0.6680073,0.747884 1.0576161,1.063475 L 3.469731,13.090811 C 3.0750435,12.781214 2.7175211,12.426969 2.4043028,12.035148 Z m 10.1923732,0.001 c -0.31158,0.393506 -0.66704,0.748967 -1.060547,1.060545 l 1.070311,1.070312 c 0.385969,-0.319561 0.740986,-0.674578 1.060545,-1.060545 z M 3.6240282,13.21388 2.8701225,14.518567 c 0.4064399,0.288929 0.8378612,0.545647 1.295897,0.755859 l 0.7558586,-1.30858 C 4.4580697,13.76534 4.0241823,13.51148 3.6240282,13.213893 Z m 7.7529228,0.001 c -0.400186,0.29747 -0.831746,0.554891 -1.295899,0.754881 l 0.750977,1.301757 c 0.458672,-0.209597 0.893058,-0.459289 1.299804,-0.748046 z m -6.2714795,0.824218 -0.391601,1.458983 c 0.4641091,0.172439 0.9483122,0.30447 1.4492177,0.388672 l 0.391601,-1.45996 C 6.0495857,14.353195 5.5652073,14.221316 5.1054715,14.039035 Z m 4.7900342,0.003 C 9.4353755,14.22373 8.9487032,14.35181 8.4433586,14.424886 L 8.8339842,15.88094 C 9.3357163,15.7972 9.8201479,15.66717 10.285154,15.495197 Z M 6.7500009,14.45217 v 1.510741 C 6.9969151,15.985805 7.246836,16 7.5000008,16 c 0.2532498,0 0.5028957,-0.01431 0.7499989,-0.03711 V 14.4541 C 8.0035212,14.482235 7.7542515,14.5 7.5000008,14.5 7.2456673,14.5 6.9964476,14.48044 6.7500009,14.452156 Z"
     id="path13"
     class="ColorScheme-Text"/>
  <path
     id="rect14"
     class="ColorScheme-Text"
     style="opacity:1;fill:url(#oomox);stroke-width:1;stroke-linecap:round;stroke-linejoin:round"
     d="m 2.7367207,6.0004995 c -0.1324568,0.00667 -0.236572,0.1169267 -0.236572,0.2510983 0,0.1384997 0.1105235,0.2490232 0.2490232,0.2490232 h 0.5001215 c 0.1384998,0 0.2490232,-0.1105235 0.2490232,-0.2490232 0,-0.1384997 -0.1105234,-0.2510983 -0.2490232,-0.2510983 H 2.7491719 c -0.00432,0 -0.00818,-2.152e-4 -0.012451,0 z m 2.5151341,0 c -0.1384965,0 -0.2510983,0.1126018 -0.2510983,0.2510983 0,0.1384956 0.1126018,0.2490232 0.2510983,0.2490232 h 0.5001217 c 0.1384965,0 0.2490232,-0.1105276 0.2490232,-0.2490232 0,-0.1384965 -0.1105267,-0.2510983 -0.2490232,-0.2510983 z m 3.9988973,0 c -0.1384966,0 -0.2490232,0.1126018 -0.2490232,0.2510983 0,0.1384956 0.1105266,0.2490232 0.2490232,0.2490232 h 0.500122 c 0.1384946,0 0.2510979,-0.1105276 0.2510979,-0.2490232 0,-0.1384965 -0.1126033,-0.2510983 -0.2510979,-0.2510983 z m 2.5006079,0 c -0.138496,0 -0.249024,0.1126018 -0.249024,0.2510983 0,0.1384956 0.110528,0.2490232 0.249024,0.2490232 h 0.500121 c 0.138497,0 0.249023,-0.1105276 0.249023,-0.2490232 0,-0.1384965 -0.110526,-0.2510983 -0.249023,-0.2510983 z M 2.2365992,6.500621 C 2.1041423,6.507292 2.0000272,6.6175478 2.0000272,6.7517194 V 7.251841 c 0,0.1384997 0.1105234,0.2490232 0.2490232,0.2490232 0.1384997,0 0.2510983,-0.1105235 0.2510983,-0.2490232 V 6.7517194 c 0,-0.1384998 -0.1125986,-0.2510984 -0.2510983,-0.2510984 -0.00432,0 -0.00818,-2.152e-4 -0.012451,0 z m 1.5148909,0 c -0.1384987,0 -0.2510983,0.1125986 -0.2510983,0.2510984 v 0.4980464 c 0,0.1384997 0.1125997,0.2510984 0.2510983,0.2510984 0.1384977,0 0.2490232,-0.1125987 0.2490232,-0.2510984 V 6.7517194 c 0,-0.1384998 -0.1105255,-0.2510984 -0.2490232,-0.2510984 z m 0.9857168,0 C 4.6047501,6.507292 4.4985597,6.6175478 4.4985597,6.7517194 V 7.251841 c 0,0.1384997 0.1125987,0.2490232 0.2510984,0.2490232 0.1384997,0 0.2490232,-0.1105235 0.2490232,-0.2490232 V 6.7517194 c 0,-0.1384998 -0.1105235,-0.2510984 -0.2490232,-0.2510984 -0.00432,0 -0.00818,-2.152e-4 -0.012451,0 z m 1.5148911,0 c -0.1384977,0 -0.2510983,0.1125986 -0.2510983,0.2510984 v 0.4980464 c 0,0.1384997 0.1126006,0.2510984 0.2510983,0.2510984 0.1384986,0 0.2490232,-0.1125987 0.2490232,-0.2510984 V 6.7517194 c 0,-0.1384998 -0.1105246,-0.2510984 -0.2490232,-0.2510984 z m 1.2492662,0 c -0.2761419,-4e-7 -0.5001214,0.2239795 -0.5001215,0.5001216 1e-7,0.276142 0.2239796,0.500122 0.5001215,0.5001216 0.2761417,-2e-7 0.5001216,-0.22398 0.5001216,-0.5001216 0,-0.2761416 -0.2239799,-0.5001215 -0.5001216,-0.5001216 z m 1.23474,0 C 8.6036474,6.507292 8.4995321,6.6175478 8.4995321,6.7517194 V 7.251841 c 0,0.1384997 0.1105235,0.2490232 0.2490232,0.2490232 0.1384998,0 0.2510985,-0.1105235 0.2510985,-0.2490232 V 6.7517194 c 0,-0.1384998 -0.1125987,-0.2510984 -0.2510985,-0.2510984 -0.00432,0 -0.00818,-2.152e-4 -0.012451,0 z m 1.5148908,0 c -0.138498,0 -0.249023,0.1125986 -0.249023,0.2510984 v 0.4980464 c 0,0.1384997 0.110525,0.2510984 0.249023,0.2510984 0.138499,0 0.251099,-0.1125987 0.251099,-0.2510984 V 6.7517194 c 0,-0.1384998 -0.1126,-0.2510984 -0.251099,-0.2510984 z m 0.985716,0 c -0.132455,0.00667 -0.23657,0.1169268 -0.23657,0.2510984 V 7.251841 c 0,0.1384997 0.110523,0.2490232 0.249022,0.2490232 0.1385,0 0.251099,-0.1105235 0.251099,-0.2490232 V 6.7517194 c 0,-0.1384998 -0.112599,-0.2510984 -0.251099,-0.2510984 -0.0044,0 -0.0082,-2.152e-4 -0.01245,0 z m 1.514892,0 c -0.138497,0 -0.251099,0.1125986 -0.251099,0.2510984 v 0.4980464 c 0,0.1384997 0.112602,0.2510984 0.251099,0.2510984 0.138499,0 0.249022,-0.1125987 0.249022,-0.2510984 V 6.7517194 c 0,-0.1384998 -0.110523,-0.2510984 -0.249022,-0.2510984 z m 1.203613,0.7491448 v 1.5003646 c 0.02813,-0.2464782 0.02813,-1.2538864 0,-1.5003646 z M 2.7367207,7.5008642 c -0.1324568,0.00667 -0.236572,0.1169267 -0.236572,0.2510983 0,0.1384997 0.1105235,0.2490232 0.2490232,0.2490232 h 0.5001215 c 0.1384998,0 0.2490232,-0.1105235 0.2490232,-0.2490232 0,-0.1384997 -0.1105234,-0.2510983 -0.2490232,-0.2510983 H 2.7491719 c -0.00432,0 -0.00818,-2.153e-4 -0.012451,0 z m 2.5151341,0 c -0.1384965,0 -0.2510983,0.1105276 -0.2510983,0.2490231 0,0.1384966 0.1126018,0.2510984 0.2510983,0.2510984 h 0.5001217 c 0.1384965,0 0.2490232,-0.1126018 0.2490232,-0.2510984 0,-0.1384955 -0.1105267,-0.2490231 -0.2490232,-0.2490231 z m 3.9988973,0 c -0.1384966,0 -0.2490232,0.1105276 -0.2490232,0.2490231 0,0.1384966 0.1105266,0.2510984 0.2490232,0.2510984 h 0.500122 c 0.1384946,0 0.2510979,-0.1126018 0.2510979,-0.2510984 0,-0.1384955 -0.1126033,-0.2490231 -0.2510979,-0.2490231 z m 2.4860809,0 c -0.132457,0.00667 -0.236572,0.1169267 -0.236572,0.2510983 0,0.1384997 0.110523,0.2490232 0.249023,0.2490232 h 0.500122 c 0.1385,0 0.249023,-0.1105235 0.249023,-0.2490232 0,-0.1384997 -0.110523,-0.2510983 -0.249023,-0.2510983 h -0.500122 c -0.0044,0 -0.0082,-2.153e-4 -0.01245,0 z M 2.2365992,8.0009857 c -0.1324569,0.00667 -0.236572,0.1148515 -0.236572,0.2490232 v 0.5001215 c 0,0.1384997 0.1105234,0.2510983 0.2490232,0.2510983 0.1384997,0 0.2510983,-0.1125986 0.2510983,-0.2510983 V 8.2500089 c 0,-0.1384997 -0.1125986,-0.2490232 -0.2510983,-0.2490232 -0.00432,0 -0.00818,-2.152e-4 -0.012451,0 z m 1.5148909,0 c -0.1384987,0 -0.2510983,0.1105233 -0.2510983,0.2490232 v 0.5001215 c 0,0.1384998 0.1125997,0.2510984 0.2510983,0.2510983 0.1384977,0 0.2490232,-0.1125985 0.2490232,-0.2510983 V 8.2500089 c 0,-0.1384999 -0.1105255,-0.2490232 -0.2490232,-0.2490232 z m 0.9857168,0 C 4.6047501,8.0076582 4.4985597,8.1158372 4.4985597,8.2500089 v 0.5001215 c 0,0.1384997 0.1125987,0.2510983 0.2510984,0.2510983 0.1384997,0 0.2490232,-0.1125986 0.2490232,-0.2510983 V 8.2500089 c 0,-0.1384997 -0.1105235,-0.2490232 -0.2490232,-0.2490232 -0.00432,0 -0.00818,-2.152e-4 -0.012451,0 z m 1.5148911,0 c -0.1384977,0 -0.2510983,0.1105233 -0.2510983,0.2490232 v 0.5001215 c 0,0.1384998 0.1126006,0.2510984 0.2510983,0.2510983 0.1384986,0 0.2490232,-0.1125985 0.2490232,-0.2510983 V 8.2500089 c 0,-0.1384999 -0.1105246,-0.2490232 -0.2490232,-0.2490232 z m 1.2492662,0 c -0.2761424,-4e-7 -0.5001219,0.2239791 -0.5001215,0.5001215 1e-7,0.2761421 0.2239796,0.500122 0.5001215,0.5001215 0.2761417,0 0.5001216,-0.2239798 0.5001216,-0.5001215 4e-7,-0.276142 -0.2239795,-0.5001214 -0.5001216,-0.5001215 z m 1.23474,0 C 8.6036474,8.0076567 8.4995321,8.1158372 8.4995321,8.2500089 v 0.5001215 c 0,0.1384997 0.1105235,0.2510983 0.2490232,0.2510983 0.1384998,0 0.2510985,-0.1125986 0.2510985,-0.2510983 V 8.2500089 c 0,-0.1384997 -0.1125987,-0.2490232 -0.2510985,-0.2490232 -0.00432,0 -0.00818,-2.152e-4 -0.012451,0 z m 1.5148908,0 c -0.138498,0 -0.249023,0.1105233 -0.249023,0.2490232 v 0.5001215 c 0,0.1384998 0.110525,0.2510984 0.249023,0.2510983 0.138499,0 0.251099,-0.1125985 0.251099,-0.2510983 V 8.2500089 c 0,-0.1384999 -0.1126,-0.2490232 -0.251099,-0.2490232 z m 0.985716,0 c -0.132455,0.00667 -0.23657,0.1148515 -0.23657,0.2490232 v 0.5001215 c 0,0.1384997 0.110523,0.2510983 0.249022,0.2510983 0.1385,0 0.251099,-0.1125986 0.251099,-0.2510983 V 8.2500089 c 0,-0.1384997 -0.112599,-0.2490232 -0.251099,-0.2490232 -0.0044,0 -0.0082,-2.152e-4 -0.01245,0 z m 1.514892,0 c -0.138497,0 -0.251099,0.1105233 -0.251099,0.2490232 v 0.5001215 c 0,0.1384998 0.112602,0.2510984 0.251099,0.2510983 0.138499,0 0.249022,-0.1125985 0.249022,-0.2510983 V 8.2500089 c 0,-0.1384999 -0.110523,-0.2490232 -0.249022,-0.2490232 z M 2.7367207,9.0012287 c -0.1324568,0.00667 -0.236572,0.1148517 -0.236572,0.2490232 0,0.1384998 0.1105235,0.2510985 0.2490232,0.2510985 h 0.5001215 c 0.1384998,0 0.2490232,-0.1125987 0.2490232,-0.2510985 0,-0.1384997 -0.1105234,-0.2490232 -0.2490232,-0.2490232 H 2.7491719 c -0.00432,0 -0.00818,-2.151e-4 -0.012451,0 z m 2.5151341,0 c -0.1384965,0 -0.2510983,0.1105267 -0.2510983,0.2490232 0,0.1384966 0.1126018,0.2510985 0.2510983,0.2510985 h 0.5001217 c 0.1384965,0 0.2490232,-0.1126019 0.2490232,-0.2510985 0,-0.1384965 -0.1105267,-0.2490232 -0.2490232,-0.2490232 z m 3.9988973,0 c -0.1384966,0 -0.2490232,0.1105267 -0.2490232,0.2490232 0,0.1384966 0.1105266,0.2510985 0.2490232,0.2510985 h 0.500122 c 0.1384946,0 0.2510979,-0.1126019 0.2510979,-0.2510985 0,-0.1384965 -0.1126033,-0.2490232 -0.2510979,-0.2490232 z m 2.4860809,0 c -0.132457,0.00667 -0.236572,0.1148517 -0.236572,0.2490232 0,0.1384998 0.110523,0.2510985 0.249023,0.2510985 h 0.500122 c 0.1385,0 0.249023,-0.1125987 0.249023,-0.2510985 0,-0.1384997 -0.110523,-0.2490232 -0.249023,-0.2490232 h -0.500122 c -0.0044,0 -0.0082,-2.151e-4 -0.01245,0 z" />
  <metadata
     id="metadata26">
    <rdf:RDF>
      <cc:Work
         rdf:about="">
        <dc:creator>
          <cc:Agent>
            <dc:title>dreifacherspass</dc:title>
          </cc:Agent>
        </dc:creator>
        <cc:license
           rdf:resource="http://creativecommons.org/licenses/by-sa/4.0/" />
      </cc:Work>
      <cc:License
         rdf:about="http://creativecommons.org/licenses/by-sa/4.0/">
        <cc:permits
           rdf:resource="http://creativecommons.org/ns#Reproduction" />
        <cc:permits
           rdf:resource="http://creativecommons.org/ns#Distribution" />
        <cc:requires
           rdf:resource="http://creativecommons.org/ns#Notice" />
        <cc:requires
           rdf:resource="http://creativecommons.org/ns#Attribution" />
        <cc:permits
           rdf:resource="http://creativecommons.org/ns#DerivativeWorks" />
        <cc:requires
           rdf:resource="http://creativecommons.org/ns#ShareAlike" />
      </cc:License>
    </rdf:RDF>
  </metadata>
</svg>
