<?xml version="1.0" encoding="UTF-8" standalone="no"?>
<svg
   width="16"
   height="16"
   version="1.1"
   id="svg31"
   xmlns:xlink="http://www.w3.org/1999/xlink"
   xmlns="http://www.w3.org/2000/svg"
   xmlns:svg="http://www.w3.org/2000/svg"
   xmlns:rdf="http://www.w3.org/1999/02/22-rdf-syntax-ns#"
   xmlns:cc="http://creativecommons.org/ns#"
   xmlns:dc="http://purl.org/dc/elements/1.1/">
  <defs>
   <style id="current-color-scheme" type="text/css">
   .ColorScheme-Text { color: #0abdc6; } .ColorScheme-Highlight { color:#5294e2; }
  </style>
  <linearGradient id="arrongin" x1="0%" x2="0%" y1="0%" y2="100%">
   <stop offset="0%" style="stop-color:#dd9b44; stop-opacity:1"/>
   <stop offset="100%" style="stop-color:#ad6c16; stop-opacity:1"/>
  </linearGradient>
  <linearGradient id="aurora" x1="0%" x2="0%" y1="0%" y2="100%">
   <stop offset="0%" style="stop-color:#09D4DF; stop-opacity:1"/>
   <stop offset="100%" style="stop-color:#9269F4; stop-opacity:1"/>
  </linearGradient>
  <linearGradient id="cyberneon" x1="0%" x2="0%" y1="0%" y2="100%">
    <stop offset="0" style="stop-color:#0abdc6; stop-opacity:1"/>
    <stop offset="1" style="stop-color:#ea00d9; stop-opacity:1"/>
  </linearGradient>
  <linearGradient id="fitdance" x1="0%" x2="0%" y1="0%" y2="100%">
   <stop offset="0%" style="stop-color:#1AD6AB; stop-opacity:1"/>
   <stop offset="100%" style="stop-color:#329DB6; stop-opacity:1"/>
  </linearGradient>
  <linearGradient id="oomox" x1="0%" x2="0%" y1="0%" y2="100%">
   <stop offset="0%" style="stop-color:#0abdc6; stop-opacity:1"/>
   <stop offset="100%" style="stop-color:#b800ff; stop-opacity:1"/>
  </linearGradient>
  <linearGradient id="rainblue" x1="0%" x2="0%" y1="0%" y2="100%">
   <stop offset="0%" style="stop-color:#00F260; stop-opacity:1"/>
   <stop offset="100%" style="stop-color:#0575E6; stop-opacity:1"/>
  </linearGradient>
  <linearGradient id="sunrise" x1="0%" x2="0%" y1="0%" y2="100%">
   <stop offset="0%" style="stop-color: #FF8501; stop-opacity:1"/>
   <stop offset="100%" style="stop-color: #FFCB01; stop-opacity:1"/>
  </linearGradient>
  <linearGradient id="telinkrin" x1="0%" x2="0%" y1="0%" y2="100%">
   <stop offset="0%" style="stop-color: #b2ced6; stop-opacity:1"/>
   <stop offset="100%" style="stop-color: #6da5b7; stop-opacity:1"/>
  </linearGradient>
  <linearGradient id="60spsycho" x1="0%" x2="0%" y1="0%" y2="100%">
   <stop offset="0%" style="stop-color: #df5940; stop-opacity:1"/>
   <stop offset="25%" style="stop-color: #d8d15f; stop-opacity:1"/>
   <stop offset="50%" style="stop-color: #e9882a; stop-opacity:1"/>
   <stop offset="100%" style="stop-color: #279362; stop-opacity:1"/>
  </linearGradient>
  <linearGradient id="90ssummer" x1="0%" x2="0%" y1="0%" y2="100%">
   <stop offset="0%" style="stop-color: #f618c7; stop-opacity:1"/>
   <stop offset="20%" style="stop-color: #94ffab; stop-opacity:1"/>
   <stop offset="50%" style="stop-color: #fbfd54; stop-opacity:1"/>
   <stop offset="100%" style="stop-color: #0f83ae; stop-opacity:1"/>
  </linearGradient>
 </defs>
  <path
     d="M 5.146204,0.4052629 V 10.540237 H 11.23065 V 0.4052629 Z"
     id="path19"
     class="ColorScheme-Text"
     style="fill:none;fill-opacity:1;stroke:url(#oomox);stroke-width:0.810526" />
  <path
     d="m 8.7607483,4.3046108 c -0.314871,0 -0.5704188,0.2619505 -0.5704188,0.5847108 0,0.3227604 0.2555478,0.5847109 0.5704188,0.5847109 0.314871,0 0.5704185,-0.2619505 0.5704185,-0.5847109 0,-0.3227603 -0.2555475,-0.5847108 -0.5704185,-0.5847108 m 6.6548837,3.5082658 c -0.209914,0 -0.380279,0.1746338 -0.380279,0.3898072 0,0.2151737 0.170365,0.3898074 0.380279,0.3898074 0.209914,0 0.380279,-0.1746337 0.380279,-0.3898074 0,-0.2151734 -0.170365,-0.3898072 -0.380279,-0.3898072 M 1.9157251,5.4740325 c -0.3148711,0 -0.5704186,0.2619505 -0.5704186,0.5847112 0,0.3227604 0.2555475,0.5847109 0.5704186,0.5847109 0.3148711,0 0.5704186,-0.2619505 0.5704186,-0.5847109 0,-0.3227607 -0.2555475,-0.5847112 -0.5704186,-0.5847112 M 6.393511,5.9028207 c -0.025477,0.00313 -0.050197,0.010526 -0.074154,0.02144 -0.1924213,0.086537 -0.257449,0.367978 -0.00456,0.959316 0.253264,0.5913376 0.6141486,1.0010252 0.80657,0.914488 C 7.313788,7.7115272 7.2643518,7.1622887 7.0114664,6.5709511 6.790144,6.053287 6.5730047,5.8806022 6.3935127,5.9032112 M 4.1164016,6.1507389 C 3.9661917,6.1374861 3.7600805,6.2906796 3.9471776,6.5085818 4.1962603,6.7993782 4.3274565,7.3170423 4.1053736,7.4207311 3.8821498,7.5244199 3.8985018,7.0348219 3.8787272,6.7744305 3.8593332,6.5140392 3.2409995,6.3573366 3.0128319,6.6800973 c -0.2281674,0.3227603 0.00152,0.6704684 0.2274067,0.7406338 0.2258859,0.070555 0.2608717,0.335624 0.39511,0.6112178 0.1346188,0.2755941 0.7894594,0.206598 0.9491767,0 C 4.7442424,7.8253512 4.8434954,7.4413909 4.532427,7.0870561 4.2213589,6.7327213 4.3156679,6.4037236 4.2316264,6.2228533 4.2107107,6.1776356 4.1665987,6.1550266 4.1164016,6.1503491 m 7.4131604,0.030403 c -0.201928,-0.048726 -0.285209,0.3410817 -0.332744,0.7067207 -0.04753,0.3656393 -0.225886,0.7429729 -0.07149,0.8162566 0.214097,0.097452 0.323237,-0.5020719 0.565095,-0.726211 0.241857,-0.224529 0.04069,-0.7476504 -0.161238,-0.7963765 m -6.3814634,0.073284 c -0.2099141,0 -0.380279,0.1746335 -0.380279,0.3898072 0,0.2151737 0.1703649,0.3898074 0.380279,0.3898074 0.2099141,0 0.3802789,-0.1746337 0.3802789,-0.3898074 0,-0.2151737 -0.1703648,-0.3898072 -0.3802789,-0.3898072 m 4.6211511,0.091995 C 9.5216885,6.3651306 9.2756478,6.7974279 9.1547192,7.0971895 9.0162975,7.4394406 9.1836213,8.1067907 8.8577212,8.3570469 8.5318221,8.6076929 8.2933872,8.6147094 8.1306274,8.5145291 7.967868,8.4143487 8.2701899,8.4272123 8.0884167,8.0455907 7.9062629,7.6639695 7.4708432,7.7832504 7.3567595,8.0806736 7.2426759,8.3780965 7.4792095,8.3644532 7.3974496,8.5398666 7.3160699,8.7152799 6.6232014,8.9047263 6.4684277,8.3784862 6.3136544,7.8522465 5.7637707,7.2796194 5.592645,7.4215093 5.4215196,7.5633993 5.6131795,8.0865208 6.0611489,8.5040045 6.5091177,8.9214878 5.9463047,9.1464069 5.556899,8.8322222 5.1674932,8.5176477 4.7096371,9.0711739 4.3552172,9.441491 4.0004167,9.811418 3.6836441,9.8367555 3.431139,9.6149551 3.1790138,9.3935448 3.4007151,8.7909024 3.1094228,8.185142 2.8185093,7.5793813 2.2401048,7.8810921 2.1587251,8.2903899 2.0773454,8.6996874 2.8888609,8.9752815 2.7314254,9.2025389 2.5739898,9.4297967 1.944628,9.3783421 1.7590518,8.949944 1.5738559,8.5215456 1.1699995,8.6603169 1.1620137,9.0107538 1.154028,9.3615806 1.4746031,9.1167814 1.7248267,9.3732745 L 8.189569,16 14.654313,9.3732752 C 15.414871,8.5936606 14.544032,8.9277255 14.364541,9.1031388 14.185429,9.2785522 13.631362,9.4208319 13.565954,9.2286567 13.500927,9.0364818 14.18657,8.7141113 14.382033,8.4969883 14.577497,8.2798657 14.768777,7.6631906 14.452765,7.4371022 14.136754,7.2110141 13.688404,7.6191423 13.494082,7.9196837 13.298618,8.2202252 13.468223,8.9861966 13.207351,9.2200811 12.94648,9.4539655 12.803115,9.3116858 12.754439,9.1113247 12.705383,8.9109639 13.317252,8.6291333 13.060564,8.1305694 12.803495,7.6320059 12.328907,7.8580943 12.109105,8.091589 11.889304,8.3254732 12.241442,8.6856551 12.323203,9.0532437 12.404582,9.4208319 11.57063,9.4114764 11.244731,9.2777726 10.918832,9.1440685 10.812734,8.3040339 10.674313,8.2537486 10.535891,8.2034637 10.182992,8.5320712 9.734643,8.3901812 9.2866742,8.2482912 9.6585872,7.9652912 9.7970089,7.6312264 9.9354303,7.2971615 10.154091,6.4922094 9.8742055,6.3659119 9.8392196,6.3499289 9.8038538,6.3440838 9.768868,6.3468106 m 3.935128,-0.4818019 c -0.314871,0 -0.570419,0.2619505 -0.570419,0.5847108 0,0.3227607 0.255548,0.5847112 0.570419,0.5847112 0.314871,0 0.570418,-0.2619505 0.570418,-0.5847112 0,-0.3227603 -0.255547,-0.5847108 -0.570418,-0.5847108 M 0.58436807,7.4242385 c -0.20991405,0 -0.38027907,0.1746338 -0.38027907,0.3898075 0,0.2151737 0.17036502,0.3898075 0.38027907,0.3898075 0.20991404,0 0.38027906,-0.1746338 0.38027906,-0.3898075 0,-0.2151737 -0.17036502,-0.3898075 -0.38027906,-0.3898075"
     id="path23"
     class="ColorScheme-Text"
     style="display:inline;fill:url(#oomox);fill-opacity:1;stroke:none;stroke-width:0.385014" />
  <metadata
     id="metadata167">
    <rdf:RDF>
      <cc:Work
         rdf:about="">
        <dc:creator>
          <cc:Agent>
            <dc:title>drefacherspass</dc:title>
          </cc:Agent>
        </dc:creator>
        <cc:license
           rdf:resource="http://creativecommons.org/licenses/by-sa/4.0/" />
      </cc:Work>
      <cc:License
         rdf:about="http://creativecommons.org/licenses/by-sa/4.0/">
        <cc:permits
           rdf:resource="http://creativecommons.org/ns#Reproduction" />
        <cc:permits
           rdf:resource="http://creativecommons.org/ns#Distribution" />
        <cc:requires
           rdf:resource="http://creativecommons.org/ns#Notice" />
        <cc:requires
           rdf:resource="http://creativecommons.org/ns#Attribution" />
        <cc:permits
           rdf:resource="http://creativecommons.org/ns#DerivativeWorks" />
        <cc:requires
           rdf:resource="http://creativecommons.org/ns#ShareAlike" />
      </cc:License>
    </rdf:RDF>
  </metadata>
</svg>
