<?xml version="1.0" encoding="UTF-8" standalone="no"?>
<svg
   id="svg13"
   fill="none"
   version="1.1"
   viewBox="0 0 16 16"
   width="16"
   height="16"
   xmlns:xlink="http://www.w3.org/1999/xlink"
   xmlns="http://www.w3.org/2000/svg"
   xmlns:svg="http://www.w3.org/2000/svg"
   xmlns:rdf="http://www.w3.org/1999/02/22-rdf-syntax-ns#"
   xmlns:cc="http://creativecommons.org/ns#"
   xmlns:dc="http://purl.org/dc/elements/1.1/">
   <defs>
      <style id="current-color-scheme" type="text/css">
         .ColorScheme-Text { color: #0abdc6; } .ColorScheme-Highlight { color:#5294e2; }
      </style>
      <linearGradient id="arrongin" x1="0%" x2="0%" y1="0%" y2="100%">
         <stop offset="0%" style="stop-color:#dd9b44; stop-opacity:1"/>
         <stop offset="100%" style="stop-color:#ad6c16; stop-opacity:1"/>
      </linearGradient>
      <linearGradient id="aurora" x1="0%" x2="0%" y1="0%" y2="100%">
         <stop offset="0%" style="stop-color:#09D4DF; stop-opacity:1"/>
         <stop offset="100%" style="stop-color:#9269F4; stop-opacity:1"/>
      </linearGradient>
      <linearGradient id="cyberneon" x1="0%" x2="0%" y1="0%" y2="100%">
         <stop offset="0" style="stop-color:#0abdc6; stop-opacity:1"/>
         <stop offset="1" style="stop-color:#ea00d9; stop-opacity:1"/>
      </linearGradient>
      <linearGradient id="fitdance" x1="0%" x2="0%" y1="0%" y2="100%">
         <stop offset="0%" style="stop-color:#1AD6AB; stop-opacity:1"/>
         <stop offset="100%" style="stop-color:#329DB6; stop-opacity:1"/>
      </linearGradient>
      <linearGradient id="oomox" x1="0%" x2="0%" y1="0%" y2="100%">
         <stop offset="0%" style="stop-color:#0abdc6; stop-opacity:1"/>
         <stop offset="100%" style="stop-color:#b800ff; stop-opacity:1"/>
      </linearGradient>
      <linearGradient id="rainblue" x1="0%" x2="0%" y1="0%" y2="100%">
         <stop offset="0%" style="stop-color:#00F260; stop-opacity:1"/>
         <stop offset="100%" style="stop-color:#0575E6; stop-opacity:1"/>
      </linearGradient>
      <linearGradient id="sunrise" x1="0%" x2="0%" y1="0%" y2="100%">
         <stop offset="0%" style="stop-color: #FF8501; stop-opacity:1"/>
         <stop offset="100%" style="stop-color: #FFCB01; stop-opacity:1"/>
      </linearGradient>
      <linearGradient id="telinkrin" x1="0%" x2="0%" y1="0%" y2="100%">
         <stop offset="0%" style="stop-color: #b2ced6; stop-opacity:1"/>
         <stop offset="100%" style="stop-color: #6da5b7; stop-opacity:1"/>
      </linearGradient>
      <linearGradient id="60spsycho" x1="0%" x2="0%" y1="0%" y2="100%">
         <stop offset="0%" style="stop-color: #df5940; stop-opacity:1"/>
         <stop offset="25%" style="stop-color: #d8d15f; stop-opacity:1"/>
         <stop offset="50%" style="stop-color: #e9882a; stop-opacity:1"/>
         <stop offset="100%" style="stop-color: #279362; stop-opacity:1"/>
      </linearGradient>
      <linearGradient id="90ssummer" x1="0%" x2="0%" y1="0%" y2="100%">
         <stop offset="0%" style="stop-color: #f618c7; stop-opacity:1"/>
         <stop offset="20%" style="stop-color: #94ffab; stop-opacity:1"/>
         <stop offset="50%" style="stop-color: #fbfd54; stop-opacity:1"/>
         <stop offset="100%" style="stop-color: #0f83ae; stop-opacity:1"/>
      </linearGradient>
   </defs>
  <path
     id="path1"
     class="ColorScheme-Text"
     style="fill:url(#oomox);stroke-width:0.0377269;opacity:0.5"
     d="M 9.2363281 0.46289062 C 9.2012219 0.46260224 9.1648305 0.46582304 9.1289062 0.47265625 L 0.83984375 2.0488281 C 0.55246807 2.1035319 0.36103448 2.3732249 0.41210938 2.6523438 L 2.7753906 15.564453 C 2.8264656 15.843572 3.1012776 16.025369 3.3886719 15.970703 L 11.677734 14.394531 C 11.965129 14.339871 12.156582 14.068143 12.105469 13.789062 L 11.054688 8.0429688 C 11.034844 8.0632067 11.013481 8.0826459 10.994141 8.1035156 C 10.898731 8.2162455 10.815087 8.3389133 10.742188 8.4707031 C 10.670228 8.594375 10.627253 8.7249044 10.611328 8.8632812 C 10.607528 8.8958312 10.60121 8.9446737 10.59375 9.0097656 C 10.58625 9.0748956 10.583438 9.1318797 10.585938 9.1816406 L 8.9746094 8.9960938 C 8.9677094 8.9128438 8.96565 8.8212382 8.96875 8.7226562 C 8.98091 8.6168614 8.99157 8.5283261 9 8.4550781 C 9.02621 8.2272144 9.0786791 8.0260075 9.15625 7.8535156 C 9.2347599 7.6729048 9.3262659 7.5115234 9.4335938 7.3671875 C 9.5499826 7.2156737 9.6784134 7.0774239 9.8164062 6.953125 C 9.9544001 6.8288271 10.095063 6.7089889 10.240234 6.59375 C 10.410513 6.4586076 10.566854 6.3255725 10.714844 6.1933594 L 10.443359 4.7070312 C 10.401196 4.6986952 10.358703 4.6908606 10.3125 4.6855469 C 10.019507 4.6518469 9.7375937 4.6559388 9.46875 4.6992188 C 9.1999073 4.7424987 8.8986327 4.8268751 8.5625 4.953125 L 8.2070312 3.515625 C 8.5478329 3.3486732 8.9412701 3.2358604 9.3847656 3.1796875 C 9.6464745 3.1418065 9.9027694 3.1240087 10.154297 3.125 L 9.7421875 0.87890625 C 9.6974643 0.63467732 9.4820719 0.46490934 9.2363281 0.46289062 z M 9.625 9.6933594 C 9.6610849 9.6944212 9.697751 9.6969554 9.734375 9.7011719 C 10.027332 9.7348718 10.277035 9.864382 10.482422 10.085938 C 10.695964 10.308399 10.781423 10.596992 10.740234 10.955078 C 10.699044 11.313164 10.549509 11.577923 10.291016 11.746094 C 10.040676 11.915206 9.7695552 11.982915 9.4765625 11.949219 C 9.1836058 11.915519 8.9303387 11.786951 8.7167969 11.564453 C 8.5114101 11.342932 8.4295142 11.053399 8.4707031 10.695312 C 8.5118931 10.337227 8.6578634 10.073408 8.9082031 9.9042969 C 9.1343851 9.7571474 9.3724055 9.6859269 9.625 9.6933594 z " />
  <path
     id="path3"
     class="ColorScheme-Text"
     style="fill:url(#oomox);stroke-width:0.0348469"
     d="M 7.3515625 0 C 7.1217182 0.0061784734 6.920496 0.17296528 6.8789062 0.40820312 L 4.6796875 12.845703 C 4.6321565 13.114547 4.8131531 13.370438 5.0820312 13.417969 L 12.835938 14.789062 C 13.104815 14.836592 13.360672 14.657516 13.408203 14.388672 L 15.607422 1.9511719 C 15.654953 1.6823007 15.475875 1.4264373 15.207031 1.3789062 L 7.4511719 0.0078125 C 7.4175665 0.0018715522 7.3843974 -0.00088263906 7.3515625 0 z M 10.041016 3.125 C 10.255894 3.1208625 10.466298 3.132375 10.673828 3.15625 C 11.194684 3.2161899 11.613872 3.3330228 11.931641 3.5097656 C 12.257528 3.6874494 12.506741 3.8948405 12.677734 4.1289062 C 12.848692 4.362972 12.955779 4.610369 13 4.8710938 C 13.05234 5.1327235 13.065272 5.37757 13.039062 5.6054688 C 13.012823 5.8333315 12.95119 6.0396787 12.855469 6.2265625 C 12.768839 6.4062673 12.663604 6.5720484 12.539062 6.7226562 C 12.414555 6.8732301 12.274348 7.0139604 12.119141 7.1445312 C 11.963933 7.2751021 11.815129 7.3964799 11.669922 7.5117188 C 11.561025 7.5981387 11.447058 7.693134 11.328125 7.7949219 C 11.210169 7.8885518 11.097706 7.9917617 10.994141 8.1035156 C 10.898731 8.2162455 10.815087 8.3389133 10.742188 8.4707031 C 10.670228 8.594375 10.627253 8.7249044 10.611328 8.8632812 C 10.607528 8.8958312 10.60121 8.9446737 10.59375 9.0097656 C 10.58625 9.0748956 10.583438 9.1318797 10.585938 9.1816406 L 8.9746094 8.9960938 C 8.9677094 8.9128438 8.96565 8.8212382 8.96875 8.7226562 C 8.98091 8.6168614 8.99157 8.5283261 9 8.4550781 C 9.02621 8.2272144 9.0786791 8.0260075 9.15625 7.8535156 C 9.2347599 7.6729048 9.328219 7.5115234 9.4355469 7.3671875 C 9.5519358 7.2156737 9.6784134 7.0774239 9.8164062 6.953125 C 9.9544001 6.8288271 10.095063 6.7089889 10.240234 6.59375 C 10.448966 6.4280892 10.641161 6.2647875 10.816406 6.1035156 C 10.992556 5.9341258 11.093914 5.7321115 11.121094 5.4960938 C 11.143534 5.3007769 11.085988 5.1248978 10.947266 4.96875 C 10.816694 4.8135422 10.605492 4.7192438 10.3125 4.6855469 C 10.019507 4.6518469 9.7375937 4.6559388 9.46875 4.6992188 C 9.1999073 4.7424987 8.8986327 4.8268751 8.5625 4.953125 L 8.2070312 3.515625 C 8.5478329 3.3486732 8.9412701 3.2358604 9.3847656 3.1796875 C 9.6069839 3.1475225 9.8261371 3.1291375 10.041016 3.125 z M 9.625 9.6933594 C 9.6610849 9.6944212 9.697751 9.6989085 9.734375 9.703125 C 10.027333 9.736825 10.277035 9.8643822 10.482422 10.085938 C 10.695964 10.308399 10.781423 10.596992 10.740234 10.955078 C 10.699044 11.313164 10.549509 11.577923 10.291016 11.746094 C 10.040676 11.915206 9.7695552 11.982915 9.4765625 11.949219 C 9.1836058 11.915519 8.9303387 11.786951 8.7167969 11.564453 C 8.5114101 11.342932 8.4295142 11.053399 8.4707031 10.695312 C 8.5118931 10.337227 8.6578634 10.073408 8.9082031 9.9042969 C 9.1343851 9.7571474 9.3724055 9.6859269 9.625 9.6933594 z " />
  <path
     id="path4"
     d="m 10.521655,9.1319323 c 0.0473,-0.3021076 0.117629,-0.6084467 0.372309,-0.9486471 L 11.995098,7.2608327 12.725067,6.4658166 C 13.004719,6.1650973 13.068972,5.401794 13.063182,4.900954 12.915618,4.5551615 12.834356,4.2372582 12.373025,3.7594827 L 11.399382,3.2118224 c 1.122746,0.5554703 2.400306,1.7564448 3.484507,2.8285319 l -0.991881,5.6110407 z"
     fill="url(#paint2_linear_629_39)"
     style="fill:url(#paint2_linear_629_39);stroke-width:0.0348469" />
  <path
     id="path5"
     d="m 9.7344644,9.7020273 0.5912116,0.238875 3.436075,2.4468417 -0.357041,2.018052 -4.7335489,-2.779318 c 0.8843096,0.702491 1.6115099,0.151424 1.9509609,-0.163001 0.260014,-0.916777 0.114717,-1.429384 -0.8680375,-1.7744443 z"
     fill="url(#paint3_linear_629_39)"
     style="fill:url(#paint3_linear_629_39);stroke-width:0.0348469" />
  <defs
     id="defs13">
    <linearGradient
       id="linearGradient1">
      <stop
         style="stop-color:#000000;stop-opacity:1;"
         offset="0"
         id="stop1" />
      <stop
         style="stop-color:#000000;stop-opacity:0;"
         offset="1"
         id="stop2" />
    </linearGradient>
    <linearGradient
       id="paint0_linear_629_39"
       x1="59.194"
       x2="494.17001"
       y1="72.804001"
       y2="343.14999"
       gradientUnits="userSpaceOnUse"
       gradientTransform="matrix(0.0373628,0,0,0.03809459,-2.6090956,-3.2487387)">
      <stop
         id="stop6"
         stop-color="#FEC200"
         offset="0" />
      <stop
         id="stop7"
         stop-color="#FE0200"
         offset="1" />
    </linearGradient>
    <linearGradient
       id="paint1_linear_629_39"
       x1="184.82001"
       x2="634.97998"
       y1="67.538002"
       y2="457.59"
       gradientUnits="userSpaceOnUse"
       gradientTransform="matrix(0.03484686,0,0,0.03484686,-1.6165526,-1.6071727)">
      <stop
         id="stop8"
         stop-color="#02FFFD"
         offset="0" />
      <stop
         id="stop9"
         stop-color="#002DD4"
         offset="1" />
    </linearGradient>
    <linearGradient
       id="paint2_linear_629_39"
       x1="356.79001"
       x2="495.73999"
       y1="221.27"
       y2="346.92999"
       gradientUnits="userSpaceOnUse"
       gradientTransform="matrix(0.03484686,0,0,0.03484686,-1.6165526,-1.6071727)">
      <stop
         id="stop10"
         stop-opacity=".24336"
         offset="0" />
      <stop
         id="stop11"
         stop-opacity=".014573"
         offset="1" />
    </linearGradient>
    <linearGradient
       id="paint3_linear_629_39"
       x1="243.28"
       x2="448.59"
       y1="312.25"
       y2="476.63"
       gradientUnits="userSpaceOnUse"
       gradientTransform="matrix(0.03484686,0,0,0.03484686,-1.6165526,-1.6071727)">
      <stop
         id="stop12"
         stop-opacity=".33422"
         offset="0" />
      <stop
         id="stop13"
         stop-opacity="0"
         offset="1" />
    </linearGradient>
    <linearGradient
       xlink:href="#linearGradient1"
       id="linearGradient2"
       x1="4.6721068"
       y1="7.3982717"
       x2="15.615065"
       y2="7.3982717"
       gradientUnits="userSpaceOnUse" />
    <linearGradient
       xlink:href="#linearGradient1"
       id="linearGradient3"
       x1="0.4038618"
       y1="8.2216404"
       x2="12.113727"
       y2="8.2216404"
       gradientUnits="userSpaceOnUse" />
  </defs>
  <metadata
     id="metadata1">
    <rdf:RDF>
      <cc:Work
         rdf:about="">
        <dc:creator>
          <cc:Agent>
            <dc:title>dreifacherspass</dc:title>
          </cc:Agent>
        </dc:creator>
        <cc:license
           rdf:resource="http://creativecommons.org/licenses/by-sa/4.0/" />
      </cc:Work>
      <cc:License
         rdf:about="http://creativecommons.org/licenses/by-sa/4.0/">
        <cc:permits
           rdf:resource="http://creativecommons.org/ns#Reproduction" />
        <cc:permits
           rdf:resource="http://creativecommons.org/ns#Distribution" />
        <cc:requires
           rdf:resource="http://creativecommons.org/ns#Notice" />
        <cc:requires
           rdf:resource="http://creativecommons.org/ns#Attribution" />
        <cc:permits
           rdf:resource="http://creativecommons.org/ns#DerivativeWorks" />
        <cc:requires
           rdf:resource="http://creativecommons.org/ns#ShareAlike" />
      </cc:License>
    </rdf:RDF>
  </metadata>
</svg>
