<?xml version="1.0" encoding="UTF-8" standalone="no"?>
<svg
   width="16"
   height="16"
   viewBox="0 0 0.48 0.48"
   version="1.1"
   id="svg3"
   xml:space="preserve"
   xmlns="http://www.w3.org/2000/svg"
   xmlns:svg="http://www.w3.org/2000/svg"
   xmlns:rdf="http://www.w3.org/1999/02/22-rdf-syntax-ns#"
   xmlns:cc="http://creativecommons.org/ns#"
   xmlns:dc="http://purl.org/dc/elements/1.1/">
   <defs>
   <style id="current-color-scheme" type="text/css">
   .ColorScheme-Text { color: #0abdc6; } .ColorScheme-Highlight { color:#5294e2; }
  </style>
  <linearGradient id="arrongin" x1="0%" x2="0%" y1="0%" y2="100%">
   <stop offset="0%" style="stop-color:#dd9b44; stop-opacity:1"/>
   <stop offset="100%" style="stop-color:#ad6c16; stop-opacity:1"/>
  </linearGradient>
  <linearGradient id="aurora" x1="0%" x2="0%" y1="0%" y2="100%">
   <stop offset="0%" style="stop-color:#09D4DF; stop-opacity:1"/>
   <stop offset="100%" style="stop-color:#9269F4; stop-opacity:1"/>
  </linearGradient>
  <linearGradient id="cyberneon" x1="0%" x2="0%" y1="0%" y2="100%">
    <stop offset="0" style="stop-color:#0abdc6; stop-opacity:1"/>
    <stop offset="1" style="stop-color:#ea00d9; stop-opacity:1"/>
  </linearGradient>
  <linearGradient id="fitdance" x1="0%" x2="0%" y1="0%" y2="100%">
   <stop offset="0%" style="stop-color:#1AD6AB; stop-opacity:1"/>
   <stop offset="100%" style="stop-color:#329DB6; stop-opacity:1"/>
  </linearGradient>
  <linearGradient id="oomox" x1="0%" x2="0%" y1="0%" y2="100%">
   <stop offset="0%" style="stop-color:#0abdc6; stop-opacity:1"/>
   <stop offset="100%" style="stop-color:#b800ff; stop-opacity:1"/>
  </linearGradient>
  <linearGradient id="rainblue" x1="0%" x2="0%" y1="0%" y2="100%">
   <stop offset="0%" style="stop-color:#00F260; stop-opacity:1"/>
   <stop offset="100%" style="stop-color:#0575E6; stop-opacity:1"/>
  </linearGradient>
  <linearGradient id="sunrise" x1="0%" x2="0%" y1="0%" y2="100%">
   <stop offset="0%" style="stop-color: #FF8501; stop-opacity:1"/>
   <stop offset="100%" style="stop-color: #FFCB01; stop-opacity:1"/>
  </linearGradient>
  <linearGradient id="telinkrin" x1="0%" x2="0%" y1="0%" y2="100%">
   <stop offset="0%" style="stop-color: #b2ced6; stop-opacity:1"/>
   <stop offset="100%" style="stop-color: #6da5b7; stop-opacity:1"/>
  </linearGradient>
  <linearGradient id="60spsycho" x1="0%" x2="0%" y1="0%" y2="100%">
   <stop offset="0%" style="stop-color: #df5940; stop-opacity:1"/>
   <stop offset="25%" style="stop-color: #d8d15f; stop-opacity:1"/>
   <stop offset="50%" style="stop-color: #e9882a; stop-opacity:1"/>
   <stop offset="100%" style="stop-color: #279362; stop-opacity:1"/>
  </linearGradient>
  <linearGradient id="90ssummer" x1="0%" x2="0%" y1="0%" y2="100%">
   <stop offset="0%" style="stop-color: #f618c7; stop-opacity:1"/>
   <stop offset="20%" style="stop-color: #94ffab; stop-opacity:1"/>
   <stop offset="50%" style="stop-color: #fbfd54; stop-opacity:1"/>
   <stop offset="100%" style="stop-color: #0f83ae; stop-opacity:1"/>
  </linearGradient>
 </defs>
  <path
   id="path1"
   style="fill:url(#oomox);stroke-width:0.764143;stroke-linecap:round;stroke-linejoin:round;-inkscape-stroke:none"
   class="ColorScheme-Text"
   d="M 0.16113281 0.17548828 A 0.01520187 0.01520187 0 0 0 0.16083984 0.17560547 A 0.01520187 0.01520187 0 0 0 0.15521484 0.17771484 A 0.01520187 0.01520187 0 0 0 0.15328125 0.17953125 A 0.01520187 0.01520187 0 0 0 0.15117187 0.18152344 L 0.15035156 0.18251953 A 0.01520187 0.01520187 0 0 0 0.15029297 0.18269531 L 0.11537109 0.22775391 C 0.10676011 0.23918417 0.10162259 0.25381513 0.10042969 0.26806641 L 0.088535156 0.42480469 C 0.087836488 0.43315067 0.089229949 0.44116796 0.092988281 0.44865234 L 0.095976563 0.45462891 C 0.10372514 0.47005807 0.11902332 0.48 0.13628906 0.48 L 0.34371094 0.48 C 0.3609769 0.48 0.37627416 0.47005787 0.38402344 0.45462891 L 0.38701172 0.44865234 C 0.3907697 0.44117036 0.39216184 0.43314907 0.39146484 0.42480469 L 0.37804688 0.26806641 C 0.37685519 0.25381384 0.37171369 0.23918317 0.36310547 0.22775391 L 0.33796875 0.19529297 A 0.02912167 0.02925477 38.277397 0 1 0.31048828 0.22458984 A 0.02912167 0.02925477 38.277397 0 1 0.30386719 0.22417969 L 0.31388672 0.31435547 C 0.30419774 0.31729547 0.2756836 0.32777344 0.23923828 0.32777344 C 0.20279306 0.32777344 0.17427892 0.31729567 0.16458984 0.31435547 L 0.17789062 0.208125 C 0.1908782 0.21036208 0.21525333 0.21433594 0.23923828 0.21433594 C 0.24250274 0.21433594 0.24573619 0.21425338 0.24890625 0.21410156 C 0.26149397 0.21359237 0.27358122 0.21228393 0.28394531 0.21087891 A 0.02912167 0.02925477 38.277397 0 1 0.27960937 0.19728516 A 0.02912167 0.02925477 38.277397 0 1 0.28441406 0.17953125 C 0.28134265 0.17990175 0.27840793 0.18029155 0.27509766 0.18064453 C 0.27099734 0.18108176 0.26682689 0.18146663 0.26267578 0.18181641 C 0.25437374 0.18251391 0.24620509 0.18298828 0.23923828 0.18298828 C 0.23228834 0.18298828 0.2242327 0.1825111 0.21609375 0.18181641 L 0.21603516 0.18181641 C 0.21195557 0.18146766 0.20785858 0.18108047 0.20384766 0.18064453 C 0.19279244 0.17944 0.18294766 0.17804921 0.17589844 0.17701172 C 0.17524849 0.17691624 0.17420506 0.17680711 0.17361328 0.17671875 C 0.16893441 0.17601921 0.16611327 0.17554685 0.16611328 0.17554687 A 0.01520187 0.01520187 0 0 0 0.16113281 0.17548828 z M 0.33685547 0.24392578 L 0.33925781 0.24714844 C 0.34442581 0.25400942 0.34750866 0.26252301 0.34822266 0.27105469 L 0.35548828 0.3553125 L 0.34681641 0.32824219 A 0.01520187 0.01520187 0 0 0 0.34669922 0.32625 L 0.33685547 0.24392578 z M 0.14208984 0.24533203 L 0.13330078 0.32625 A 0.01520187 0.01520187 0 0 0 0.13335938 0.32771484 L 0.12451172 0.35537109 L 0.13177734 0.27105469 C 0.13249155 0.26252171 0.13557419 0.25400872 0.14074219 0.24714844 L 0.14208984 0.24533203 z M 0.32132812 0.34669922 L 0.35214844 0.44654297 C 0.34974679 0.44795038 0.34685519 0.44865234 0.34371094 0.44865234 L 0.13628906 0.44865234 C 0.13316681 0.44865234 0.13030192 0.44798872 0.12791016 0.44660156 L 0.15867187 0.34681641 C 0.17623805 0.35123539 0.20705794 0.35759766 0.23923828 0.35759766 C 0.27169612 0.35759766 0.30340526 0.3511209 0.32132812 0.34669922 z " />
  
  <path
   style="fill:url(#oomox);stroke-width:0.00399924"
   d="m 0.2438329,0.26765842 a 0.0074743,0.00751004 55.79898 0 0 -0.007062,0.007952 0.0074743,0.00751004 55.79898 0 0 0.007967,0.007016 0.0074743,0.00751004 55.79898 0 0 0.007006,-0.007952 0.0074743,0.00751004 55.79898 0 0 -0.00791,-0.007016 z"
   id="path26"
   class="ColorScheme-Text" /><path
   style="fill:url(#oomox);stroke-width:0.00319879"
   d="m 0.26219336,0.24516152 a 0.01047845,0.01052705 53.277955 0 0 -0.009849,0.0111336 0.01047845,0.01052705 53.277955 0 0 0.0111146,0.009824 0.01047845,0.01052705 53.277955 0 0 0.009849,-0.0111336 0.01047845,0.01052705 53.277955 0 0 -0.0111146,-0.009824 z"
   id="path25"
   class="ColorScheme-Text" /><path
   style="fill:url(#oomox);stroke-width:0.0033518"
   d="M 0.28243565,0.2178897 A 0.01346161,0.01352314 38.27328 0 0 0.26976305,0.2322199 0.01346161,0.01352314 38.27328 0 0 0.28404335,0.2448324 0.01346161,0.01352314 38.27328 0 0 0.29671595,0.2305022 0.01346161,0.01352314 38.27328 0 0 0.28243565,0.2178897 Z"
   id="path24"
   class="ColorScheme-Text" /><path
   style="fill:url(#oomox);stroke-width:0.00409664"
   d="m 0.30883413,0.18136309 a 0.01645306,0.01652826 38.277397 0 0 -0.0154887,0.0175147 0.01645306,0.01652826 38.277397 0 0 0.0174537,0.0154152 0.01645306,0.01652826 38.277397 0 0 0.0154887,-0.0175147 0.01645306,0.01652826 38.277397 0 0 -0.0174537,-0.0154152 z"
   id="path24-3"
   class="ColorScheme-Text" /><path
   id="path3-3"
   style="opacity:1;fill:url(#oomox);stroke-width:0.00598463"
   class="ColorScheme-Text"
   d="m 0.31760724,0.15931192 c 0.00398,0.0129215 0.0162731,0.0214203 0.0297862,0.0205919 0.002599,-1.8287e-4 0.005164,-7.1004e-4 0.007627,-0.001568 -0.003306,-0.001287 -0.006666,-0.0027 -0.0100841,-0.004237 l -0.0127961,-0.006228 c -0.005006,-0.002663 -0.009843,-0.005546 -0.014533,-0.008559 z" />
  <path
   style="fill:url(#oomox);fill-opacity:1;stroke-width:0.00106748"
   d="m 0.40260061,0.18671779 -0.001059,0.009024 0.00689,8.0872e-4 c 0.004389,5.1871e-4 0.007535,0.004493 0.007017,0.008883 -5.1536e-4,0.00439 -0.004493,0.007535 -0.008883,0.007017 l -0.0148322,-0.001738 -8.98e-6,-8.5e-7 -5.3e-6,-1.43e-6 -0.0148354,-0.001738 c -9.1607e-4,-1.0842e-4 -0.00178,-3.6638e-4 -0.002566,-7.4858e-4 -0.002976,-0.001447 -0.004858,-0.004661 -0.004451,-0.008134 5.1538e-4,-0.00439 0.004493,-0.007535 0.008883,-0.007018 l 0.006889,8.0798e-4 0.001014,-0.0100842 c -0.0133726,-0.003017 -0.0269723,-0.007473 -0.0415812,-0.0140429 l -0.014387,-0.007028 c -0.0132017,-0.007021 -0.0256825,-0.0153132 -0.0362491,-0.0240005 l -0.007237,0.007321 0.004935,0.004938 c 0.003119,0.003135 0.003126,0.008212 -7.99e-6,0.0113313 -0.00248,0.002466 -0.00616,0.002981 -0.009137,0.001531 -7.867e-4,-3.8208e-4 -0.001518,-8.9739e-4 -0.002172,-0.001554 l -0.0105316,-0.0105868 -4.8e-6,-4.74e-6 -7.8e-6,-9.7e-6 -0.0105311,-0.0105831 c -0.003119,-0.003135 -0.003104,-0.008203 2.912e-5,-0.0113217 0.003135,-0.003119 0.008203,-0.003108 0.0113217,2.912e-5 l 0.004893,0.004918 0.006683,-0.00665 c -0.0251372,-0.0247736 -0.0364903,-0.0519479 -0.0268137,-0.07186243 0.007099,-0.01461209 0.0242719,-0.02273783 0.0467432,-0.02427258 -3.9002e-4,7.2291e-4 -7.9477e-4,0.0014343 -0.001168,0.0021709 -1.33e-4,2.6164e-4 -2.6663e-4,5.1584e-4 -3.9442e-4,7.7454e-4 -0.007461,0.01505447 -0.003254,0.0336099 0.0100024,0.0441219 0.0162974,0.01292213 0.0346805,0.02439035 0.0546401,0.03408866 0.019346,0.0094 0.0391086,0.0166176 0.0587387,0.0214504 0.0162718,0.004007 0.0334219,-0.003933 0.0407015,-0.0189142 l 8.845e-5,-1.7898e-4 c 5.5948e-4,-0.001151 0.001239,-0.002238 0.001746,-0.003404 0.0124848,0.0184901 0.0166888,0.0369016 0.009636,0.0514176 -0.009768,0.0201032 -0.0385136,0.0279735 -0.0739844,0.0232441 z m -0.0832573,-0.0674089 c 0.001782,-0.003668 2.5339e-4,-0.008085 -0.003414,-0.009867 -0.003668,-0.001782 -0.008085,-2.534e-4 -0.009867,0.003414 -0.001782,0.003668 -2.5341e-4,0.008085 0.003414,0.009867 0.003668,0.001782 0.008086,2.5255e-4 0.009867,-0.003414 z m 0.0426518,0.0249763 c 0.002705,-0.005568 3.8393e-4,-0.0122737 -0.005182,-0.0149789 -0.005568,-0.002705 -0.0122737,-3.8396e-4 -0.0149788,0.005182 -0.002705,0.005568 -3.8531e-4,0.0122737 0.005182,0.0149788 0.005568,0.002705 0.0122736,3.8529e-4 0.0149788,-0.005182 z m 0.0292469,0.0181664 c 0.003668,0.001782 0.008085,2.5348e-4 0.009867,-0.003414 0.001782,-0.003668 2.5346e-4,-0.008085 -0.003414,-0.009867 -0.003668,-0.001782 -0.008085,-2.5346e-4 -0.009867,0.003414 -0.001782,0.003668 -2.5344e-4,0.008085 0.003414,0.009867 z"
   id="path3"
   class="ColorScheme-Text" />
  <path
   style="fill:url(#oomox);fill-opacity:1;stroke-width:0.00106748"
   d="m 0.3153963,0.04200653 c 1.0648e-4,-2.141e-4 2.3302e-4,-4.1849e-4 3.4112e-4,-6.3201e-4 0.0187454,-0.03695455 0.063084,-0.05175046 0.10025085,-0.03369121 2.6522e-4,1.2874e-4 4.5573e-4,2.2398e-4 7.1976e-4,3.5606e-4 0.0369011,0.01845232 0.0521726,0.06321672 0.0340941,0.10042293 -2.393e-5,4.995e-5 -4.891e-5,9.781e-5 -7.282e-5,1.4683e-4 -0.004044,0.008328 -0.0134945,0.0126103 -0.0224849,0.0103977 -0.0179976,-0.004432 -0.0368918,-0.0112305 -0.0556455,-0.020343 -0.019353,-0.009404 -0.0367286,-0.02038526 -0.051646,-0.03221315 -0.007379,-0.0058493 -0.009737,-0.01600872 -0.005557,-0.02444415 z"
   id="path1-3"
   class="ColorScheme-Text" />
  <metadata
   id="metadata5"><rdf:RDF><cc:Work
       rdf:about=""><dc:creator><cc:Agent><dc:title>dreifacherspass</dc:title></cc:Agent></dc:creator><cc:license
         rdf:resource="http://creativecommons.org/licenses/by-sa/4.0/" /></cc:Work><cc:License
       rdf:about="http://creativecommons.org/licenses/by-sa/4.0/"><cc:permits
         rdf:resource="http://creativecommons.org/ns#Reproduction" /><cc:permits
         rdf:resource="http://creativecommons.org/ns#Distribution" /><cc:requires
         rdf:resource="http://creativecommons.org/ns#Notice" /><cc:requires
         rdf:resource="http://creativecommons.org/ns#Attribution" /><cc:permits
         rdf:resource="http://creativecommons.org/ns#DerivativeWorks" /><cc:requires
         rdf:resource="http://creativecommons.org/ns#ShareAlike" /></cc:License></rdf:RDF></metadata></svg>
