<?xml version="1.0" encoding="UTF-8" standalone="no"?>
<!-- Created with Inkscape (http://www.inkscape.org/) -->

<svg
   width="16"
   height="16"
   id="svg2"
   version="1.0"
   xmlns:xlink="http://www.w3.org/1999/xlink"
   xmlns="http://www.w3.org/2000/svg"
   xmlns:svg="http://www.w3.org/2000/svg"
   xmlns:rdf="http://www.w3.org/1999/02/22-rdf-syntax-ns#"
   xmlns:cc="http://creativecommons.org/ns#"
   xmlns:dc="http://purl.org/dc/elements/1.1/">
  <defs>
   <style id="current-color-scheme" type="text/css">
   .ColorScheme-Text { color: #0abdc6; } .ColorScheme-Highlight { color:#5294e2; }
  </style>
  <linearGradient id="arrongin" x1="0%" x2="0%" y1="0%" y2="100%">
   <stop offset="0%" style="stop-color:#dd9b44; stop-opacity:1"/>
   <stop offset="100%" style="stop-color:#ad6c16; stop-opacity:1"/>
  </linearGradient>
  <linearGradient id="aurora" x1="0%" x2="0%" y1="0%" y2="100%">
   <stop offset="0%" style="stop-color:#09D4DF; stop-opacity:1"/>
   <stop offset="100%" style="stop-color:#9269F4; stop-opacity:1"/>
  </linearGradient>
  <linearGradient id="cyberneon" x1="0%" x2="0%" y1="0%" y2="100%">
    <stop offset="0" style="stop-color:#0abdc6; stop-opacity:1"/>
    <stop offset="1" style="stop-color:#ea00d9; stop-opacity:1"/>
  </linearGradient>
  <linearGradient id="fitdance" x1="0%" x2="0%" y1="0%" y2="100%">
   <stop offset="0%" style="stop-color:#1AD6AB; stop-opacity:1"/>
   <stop offset="100%" style="stop-color:#329DB6; stop-opacity:1"/>
  </linearGradient>
  <linearGradient id="oomox" x1="0%" x2="0%" y1="0%" y2="100%">
   <stop offset="0%" style="stop-color:#0abdc6; stop-opacity:1"/>
   <stop offset="100%" style="stop-color:#b800ff; stop-opacity:1"/>
  </linearGradient>
  <linearGradient id="rainblue" x1="0%" x2="0%" y1="0%" y2="100%">
   <stop offset="0%" style="stop-color:#00F260; stop-opacity:1"/>
   <stop offset="100%" style="stop-color:#0575E6; stop-opacity:1"/>
  </linearGradient>
  <linearGradient id="sunrise" x1="0%" x2="0%" y1="0%" y2="100%">
   <stop offset="0%" style="stop-color: #FF8501; stop-opacity:1"/>
   <stop offset="100%" style="stop-color: #FFCB01; stop-opacity:1"/>
  </linearGradient>
  <linearGradient id="telinkrin" x1="0%" x2="0%" y1="0%" y2="100%">
   <stop offset="0%" style="stop-color: #b2ced6; stop-opacity:1"/>
   <stop offset="100%" style="stop-color: #6da5b7; stop-opacity:1"/>
  </linearGradient>
  <linearGradient id="60spsycho" x1="0%" x2="0%" y1="0%" y2="100%">
   <stop offset="0%" style="stop-color: #df5940; stop-opacity:1"/>
   <stop offset="25%" style="stop-color: #d8d15f; stop-opacity:1"/>
   <stop offset="50%" style="stop-color: #e9882a; stop-opacity:1"/>
   <stop offset="100%" style="stop-color: #279362; stop-opacity:1"/>
  </linearGradient>
  <linearGradient id="90ssummer" x1="0%" x2="0%" y1="0%" y2="100%">
   <stop offset="0%" style="stop-color: #f618c7; stop-opacity:1"/>
   <stop offset="20%" style="stop-color: #94ffab; stop-opacity:1"/>
   <stop offset="50%" style="stop-color: #fbfd54; stop-opacity:1"/>
   <stop offset="100%" style="stop-color: #0f83ae; stop-opacity:1"/>
  </linearGradient>
 </defs>
  <metadata
     id="metadata7">
    <rdf:RDF>
      <cc:Work
         rdf:about="">
        <dc:format>image/svg+xml</dc:format>
        <dc:type
           rdf:resource="http://purl.org/dc/dcmitype/StillImage" />
        <dc:creator>
          <cc:Agent>
            <dc:title>dreifacherspass</dc:title>
          </cc:Agent>
        </dc:creator>
        <cc:license
           rdf:resource="http://creativecommons.org/licenses/by-sa/4.0/" />
      </cc:Work>
      <cc:License
         rdf:about="http://creativecommons.org/licenses/by-sa/4.0/">
        <cc:permits
           rdf:resource="http://creativecommons.org/ns#Reproduction" />
        <cc:permits
           rdf:resource="http://creativecommons.org/ns#Distribution" />
        <cc:requires
           rdf:resource="http://creativecommons.org/ns#Notice" />
        <cc:requires
           rdf:resource="http://creativecommons.org/ns#Attribution" />
        <cc:permits
           rdf:resource="http://creativecommons.org/ns#DerivativeWorks" />
        <cc:requires
           rdf:resource="http://creativecommons.org/ns#ShareAlike" />
      </cc:License>
    </rdf:RDF>
  </metadata>
  <path
     id="path2157"
     class="ColorScheme-Text"
     style="fill:url(#oomox);fill-rule:evenodd;stroke-linecap:round;stroke-linejoin:round;-inkscape-stroke:none"
     d="M 15.634766,0.00195313 C 15.584441,0.0043998 15.535485,0.01915382 15.492188,0.04492187 12.333585,1.961482 8.1190426,1.5298942 5.015625,2.4511719 3.4639163,2.9118106 2.1672075,3.7671978 1.5507812,5.4453125 0.94663006,7.0900111 0.99585907,9.5000124 1.8554688,13.066406 l -1.72460942,1.69336 c -0.12532071,0.122978 -0.12265367,0.325674 0.005859,0.445312 l 0.7578125,0.710938 c 0.12168972,0.114243 0.31223142,0.110779 0.42968752,-0.0078 l 1.6777343,-1.693359 c 4.3398325,0.632956 7.0447523,0.456859 8.7246093,-0.335938 1.705403,-0.804853 2.309232,-2.264692 2.464844,-3.86914 0.09997,-1.0307356 0.103151,-1.9658959 0.06345,-3.0719169 l -0.599609,0.5996094 c 0.03383,0.9105515 -10e-7,1.6185663 -0.07712,2.4137134 -0.145281,1.4979291 -0.610173,2.6607881 -2.115234,3.3710941 -1.5050643,0.710303 -4.1298542,0.931491 -8.5332039,0.271484 -0.097507,-0.01492 -0.1962638,0.01775 -0.265625,0.08789 L 1.0976562,15.261719 0.79101562,14.974609 2.3984375,13.396484 C 2.4761664,13.320489 2.5080836,13.20915 2.4824219,13.103516 1.5851047,9.4736152 1.5831727,7.1438693 2.1289062,5.6582031 2.6746398,4.1725369 3.742794,3.4710494 5.1914062,3.0410156 7.8347884,2.2563037 11.640012,2.474067 14.871094,0.96875 c -0.79797,1.1249797 -1.338851,2.1351132 -1.338851,3.4513329 0,0.045244 0.01262,0.07112 0.02331,0.059401 l 0.621736,-0.5847495 c 0.138804,-1.3897259 0.599795,-2.355786 1.684039,-3.36153128 0.15913,-0.14898528 0.117398,-0.41159094 -0.08008,-0.50390624 -0.04585,-0.02096584 -0.09615,-0.03035515 -0.146484,-0.02734375 z" />
  <path
     id="path3093"
     class="ColorScheme-Text"
     style="opacity:0.4;fill:url(#oomox);fill-rule:evenodd;stroke:none;stroke-linecap:round;-inkscape-stroke:none"
     d="m 13.879471,1.5946952 a 0.17550351,0.17550351 0 0 0 -0.107422,0.080078 C 12.3083,4.1393929 10.661571,4.6879424 8.7720485,5.7978202 7.5863892,6.4942588 6.3245715,7.4107553 5.0103297,9.1357108 4.9985843,9.0490982 4.9183062,8.9833671 4.8208766,8.983367 H 4.5005641 c -0.00659,0 -0.013116,-5.969e-4 -0.019531,0 -0.096232,0.00896 -0.171875,0.082676 -0.171875,0.1738282 0,0.097229 0.085938,0.1757812 0.1914063,0.1757812 h 0.3203125 c 0.016772,0 0.033311,-0.00213 0.048828,-0.00586 -0.7355678,0.99531 -1.4873389,2.243137 -2.25,3.859375 a 0.17550351,0.17550351 0 0 0 0.083984,0.232422 0.17550351,0.17550351 0 0 0 0.234375,-0.08398 C 5.092915,8.7683473 7.0940486,7.1905855 8.9497828,6.1005546 10.805517,5.0105237 12.563098,4.3997959 14.074783,1.8544608 a 0.17550351,0.17550351 0 0 0 -0.0625,-0.2402344 0.17550351,0.17550351 0 0 0 -0.132812,-0.019531 z M 8.3501735,3.3661796 c -0.1008668,0.00468 -0.1796876,0.081591 -0.1796876,0.1757812 0,0.097229 0.083985,0.1757812 0.1894532,0.1757812 h 0.3222656 c 0.1054684,0 0.1894531,-0.078552 0.1894531,-0.1757812 0,-0.097229 -0.083985,-0.1757812 -0.1894531,-0.1757812 H 8.3599391 c -0.0033,0 -0.00651,-1.511e-4 -0.00977,0 z m 0.8242187,0 c -0.097229,0 -0.1757813,0.078552 -0.1757813,0.1757812 0,0.097229 0.078553,0.1757812 0.1757813,0.1757812 h 0.5761719 c 0.097229,0 0.1757812,-0.078552 0.1757812,-0.1757812 0,-0.097229 -0.078552,-0.1757812 -0.1757812,-0.1757812 z m -2.125,0.703125 c -0.088713,0.00896 -0.15625,0.082676 -0.15625,0.1738281 0,0.097229 0.078552,0.1757812 0.1757813,0.1757812 h 0.5742187 c 0.097229,0 0.1757813,-0.078552 0.1757813,-0.1757812 0,-0.097229 -0.078553,-0.1738281 -0.1757813,-0.1738281 H 7.0689235 c -0.00608,0 -0.013617,-5.971e-4 -0.019531,0 z m 1.2910156,0 c -0.096232,0.00896 -0.1699219,0.082676 -0.1699219,0.1738281 0,0.097229 0.083985,0.1757812 0.1894532,0.1757812 h 0.3222656 c 0.1021725,0 0.1843731,-0.073029 0.1894531,-0.1660156 0.00503,0.093029 0.089201,0.1660156 0.1914063,0.1660156 h 1.0234379 c 0.105468,0 0.189453,-0.078552 0.189453,-0.1757812 0,-0.097229 -0.08399,-0.1738281 -0.189453,-0.1738281 H 9.0630641 c -0.1025745,0 -0.1869217,0.07251 -0.1914063,0.1660156 C 8.8665778,4.1423336 8.7843772,4.0693046 8.6822047,4.0693046 H 8.3599391 c -0.00659,0 -0.013116,-5.971e-4 -0.019531,0 z M 3.4146266,5.1220389 c -0.088713,0.00896 -0.1582032,0.084629 -0.1582031,0.1757813 0,0.097229 0.078553,0.1738281 0.1757812,0.1738281 h 1.7539062 c 0.097229,0 0.1757813,-0.076599 0.1757813,-0.1738281 0,-0.097229 -0.078552,-0.1757813 -0.1757813,-0.1757813 H 3.4322047 c -0.00608,0 -0.011664,-5.97e-4 -0.017578,0 z m 2.4570312,0 c -0.088713,0.00896 -0.1582031,0.084629 -0.1582031,0.1757813 0,0.097229 0.078553,0.1738281 0.1757812,0.1738281 h 0.3515626 c 0.097229,0 0.1738281,-0.076599 0.1738281,-0.1738281 0,-0.097229 -0.0766,-0.1757813 -0.1738281,-0.1757813 H 5.8892359 c -0.00608,0 -0.011664,-5.97e-4 -0.017578,0 z m 1.0527344,0 c -0.088713,0.00896 -0.1582031,0.084629 -0.1582031,0.1757813 0,0.097229 0.078552,0.1738281 0.1757812,0.1738281 h 0.3515625 c 0.097229,0 0.1757813,-0.076599 0.1757813,-0.1738281 0,-0.097229 -0.078553,-0.1757813 -0.1757813,-0.1757813 H 6.9419703 c -0.00608,0 -0.011664,-5.97e-4 -0.017578,0 z m 4.2109378,0 c -0.08871,0.00896 -0.15625,0.084629 -0.15625,0.1757813 0,0.097229 0.07855,0.1738281 0.175781,0.1738281 h 1.402344 c 0.09723,0 0.175781,-0.076599 0.175781,-0.1738281 0,-0.097229 -0.07855,-0.1757813 -0.175781,-0.1757813 h -1.402344 c -0.0061,0 -0.01362,-5.97e-4 -0.01953,0 z M 3.0279078,5.8232108 c -0.092986,0.00468 -0.1660156,0.081591 -0.1660156,0.1757812 0,0.097229 0.078552,0.1757813 0.1757813,0.1757813 h 0.3945312 c 0.097229,0 0.1757812,-0.078552 0.1757812,-0.1757813 0,-0.097229 -0.078553,-0.1757812 -0.1757812,-0.1757812 H 3.0376735 c -0.00304,0 -0.00677,-1.511e-4 -0.00977,0 z m 1.1210938,0 c -0.1054684,0 -0.1914063,0.078553 -0.1914063,0.1757812 0,0.097229 0.085938,0.1757813 0.1914063,0.1757813 h 1.0234375 c 0.1054684,0 0.1894531,-0.078552 0.1894531,-0.1757813 0,-0.097229 -0.083985,-0.1757812 -0.1894531,-0.1757812 z m 1.7539062,0 c -0.1054684,0 -0.1894531,0.078553 -0.1894531,0.1757812 0,0.097229 0.083985,0.1757813 0.1894531,0.1757813 h 1.0234375 c 0.1054684,0 0.1914063,-0.078552 0.1914063,-0.1757813 0,-0.097229 -0.085938,-0.1757812 -0.1914063,-0.1757812 z m 4.8906252,0 c -0.09299,0.00468 -0.166015,0.081591 -0.166016,0.1757812 0,0.097229 0.07855,0.1757813 0.175782,0.1757813 h 0.351562 c 0.09723,0 0.173828,-0.078552 0.173828,-0.1757813 0,-0.097229 -0.0766,-0.1757812 -0.173828,-0.1757812 h -0.351562 c -0.003,0 -0.0068,-1.511e-4 -0.0098,0 z M 3.2954859,6.8759452 c -0.097229,0 -0.1757812,0.078552 -0.1757812,0.1757812 0,0.097229 0.078553,0.1757813 0.1757812,0.1757813 h 2.59375 c 0.097229,0 0.1757813,-0.078553 0.1757813,-0.1757813 0,-0.097229 -0.078552,-0.1757812 -0.1757813,-0.1757812 z m 5.0546876,0 c -0.1008668,0.00468 -0.1796876,0.081591 -0.1796876,0.1757812 0,0.097229 0.083985,0.1757813 0.1894532,0.1757813 h 0.3222656 c 0.1054684,0 0.1894531,-0.078553 0.1894531,-0.1757813 0,-0.097229 -0.083985,-0.1757812 -0.1894531,-0.1757812 H 8.3599391 c -0.0033,0 -0.00651,-1.511e-4 -0.00977,0 z m 1.0644531,0 c -0.1054684,0 -0.1914063,0.078552 -0.1914063,0.1757812 0,0.097229 0.085938,0.1757813 0.1914063,0.1757813 h 0.6718754 c 0.105468,0 0.189453,-0.078553 0.189453,-0.1757813 0,-0.097229 -0.08399,-0.1757812 -0.189453,-0.1757812 z m 1.4023444,0 c -0.105469,0 -0.189453,0.078552 -0.189454,0.1757812 0,0.097229 0.08399,0.1757813 0.189454,0.1757813 h 1.375 c 0.105468,0 0.191406,-0.078553 0.191406,-0.1757813 0,-0.097229 -0.08594,-0.1757812 -0.191406,-0.1757812 z M 2.8990016,7.9286796 c -0.096296,0 -0.1738281,0.078552 -0.1738281,0.1757812 0,0.097229 0.077532,0.1757812 0.1738281,0.1757812 h 0.8847656 c 0.096296,0 0.1738281,-0.078552 0.1738281,-0.1757812 0,-0.097229 -0.077532,-0.1757812 -0.1738281,-0.1757812 z m 1.6015625,0 c -0.1054684,0 -0.1914063,0.078552 -0.1914063,0.1757812 0,0.097229 0.085938,0.1757812 0.1914063,0.1757812 h 0.3203125 c 0.1054684,0 0.1914062,-0.078552 0.1914062,-0.1757812 0,-0.097229 -0.085938,-0.1757812 -0.1914062,-0.1757812 z m 2.8066406,0 c -0.1054684,0 -0.1894531,0.078552 -0.1894531,0.1757812 0,0.097229 0.083985,0.1757812 0.1894531,0.1757812 h 1.0234375 c 0.1054684,0 0.1914063,-0.078552 0.1914063,-0.1757812 0,-0.097229 -0.085938,-0.1757812 -0.1914063,-0.1757812 z m 1.7558594,0 c -0.1054684,0 -0.1914063,0.078552 -0.1914063,0.1757812 0,0.097229 0.085938,0.1757812 0.1914063,0.1757812 h 0.3203125 c 0.1054684,0 0.1914062,-0.078552 0.1914062,-0.1757812 0,-0.097229 -0.085938,-0.1757812 -0.1914062,-0.1757812 z m 1.0527349,0 c -0.105469,0 -0.1894537,0.078552 -0.1894537,0.1757812 0,0.097229 0.083985,0.1757812 0.1894537,0.1757812 h 0.320312 c 0.105469,0 0.191407,-0.078552 0.191406,-0.1757812 0,-0.097229 -0.08594,-0.1757812 -0.191406,-0.1757812 z m -2.1250005,0.703125 c -0.096232,0.00896 -0.171875,0.084629 -0.171875,0.1757812 -1e-7,0.097229 0.085938,0.1757812 0.1914062,0.1757812 h 1.0234375 c 0.1054684,0 0.1894531,-0.078552 0.1894531,-0.1757812 0,-0.097229 -0.083985,-0.1757812 -0.1894531,-0.1757812 H 8.0103297 c -0.00659,0 -0.013116,-5.971e-4 -0.019531,0 z m 1.7539062,0 c -0.096232,0.00896 -0.1699219,0.084629 -0.1699219,0.1757812 0,0.097229 0.083985,0.1757812 0.1894531,0.1757812 h 0.3222661 c 0.105468,0 0.189453,-0.078552 0.189453,-0.1757812 0,-0.097229 -0.08399,-0.1757812 -0.189453,-0.1757812 H 9.7642359 c -0.00659,0 -0.013116,-5.971e-4 -0.019531,0 z M 3.1880641,8.983367 c -0.088713,0.00896 -0.15625,0.082676 -0.15625,0.1738282 0,0.097229 0.078552,0.1757812 0.1757812,0.1757812 h 0.5761719 c 0.097229,0 0.1738281,-0.078552 0.1738281,-0.1757812 0,-0.097229 -0.076599,-0.1738281 -0.1738281,-0.1738282 H 3.2075953 c -0.00608,0 -0.013617,-5.969e-4 -0.019531,0 z m 2.7148437,1.402344 c -0.1054684,0 -0.1894531,0.07855 -0.1894531,0.175781 0,0.09723 0.083985,0.175782 0.1894531,0.175781 h 1.375 c 0.1054684,0 0.1914063,-0.07855 0.1914063,-0.175781 0,-0.09723 -0.085938,-0.175781 -0.1914063,-0.175781 z m 2.1074219,0 c -0.1054684,0 -0.1914062,0.07855 -0.1914062,0.175781 -1e-7,0.09723 0.085938,0.175782 0.1914062,0.175781 h 1.0234375 c 0.1054684,0 0.1894531,-0.07855 0.1894531,-0.175781 0,-0.09723 -0.083985,-0.175781 -0.1894531,-0.175781 z m 2.1074223,0.002 c -0.105469,0 -0.1894535,0.07855 -0.1894535,0.175781 0,0.09723 0.083984,0.175782 0.1894535,0.175782 h 1.023437 c 0.105469,0 0.191407,-0.07855 0.191407,-0.175782 0,-0.09723 -0.08594,-0.175781 -0.191407,-0.175781 z m -5.2871098,1.052735 c -0.096232,0.009 -0.1699219,0.08268 -0.1699219,0.173828 0,0.09723 0.083985,0.175781 0.1894532,0.175781 h 1.7265624 c 0.1054685,0 0.1894532,-0.07855 0.1894532,-0.175781 0,-0.09723 -0.083985,-0.173828 -0.1894532,-0.173828 H 4.8501735 c -0.00659,0 -0.013116,-5.98e-4 -0.019531,0 z m 2.7949219,0 c -0.088713,0.009 -0.15625,0.08268 -0.15625,0.173828 0,0.09723 0.076599,0.175781 0.1738281,0.175781 h 0.703125 c 0.097229,0 0.1757813,-0.07855 0.1757813,-0.175781 0,-0.09723 -0.078553,-0.173828 -0.1757813,-0.173828 h -0.703125 c -0.00608,0 -0.011664,-5.98e-4 -0.017578,0 z" />
  <path
     style="display:inline;opacity:0.2;fill:url(#oomox);fill-opacity:1;fill-rule:evenodd;stroke:none;stroke-width:0.702014;stroke-linecap:butt;stroke-linejoin:miter;stroke-miterlimit:4;stroke-dasharray:none;stroke-opacity:1"
     d="m 16.000002,9.1572721 -6.9909677,1.5696069 -0.043876,0.02276 -0.032907,0.02731 -0.9652687,1.001485 2.6106134,-0.295893 0.09872,-0.0091 0.06581,-0.02731 5.257872,-0.941403 z"
     id="path2334"
     class="ColorScheme-Text" />
  <path
     id="path2273-1"
     class="ColorScheme-Text"
     d="M 8.8061617,9.6179502 13.49985,4.9242619 c 0.763458,0.1263487 1.082758,0.6080229 1.228525,1.228524 l -4.69369,4.6936881 z"
     style="display:inline;fill:url(#oomox);fill-opacity:1;fill-rule:evenodd;stroke:none;stroke-width:0.351007;stroke-linecap:butt;stroke-linejoin:miter;stroke-miterlimit:4;stroke-dasharray:none;stroke-opacity:1" />
  <path
     style="display:inline;fill:url(#oomox);fill-opacity:1;fill-rule:evenodd;stroke:none;stroke-width:0.351007;stroke-linecap:butt;stroke-linejoin:round;stroke-miterlimit:4;stroke-dasharray:none;stroke-opacity:1"
     d="M 14.94698,5.9318285 16,4.8788081 C 15.854234,4.258307 15.534933,3.7766329 14.771476,3.6502841 l -1.05302,1.0530206 c 0.763457,0.1263488 1.082757,0.6080228 1.228524,1.2285238 z"
     id="path3716"
     class="ColorScheme-Text" />
  <path
     id="path2298"
     d="M 7.8943331,11.632211 8.5997354,9.8251559 c 0.2254013,0.2254011 0.9534435,0.9746321 1.2405942,1.2617831 z"
     style="fill:url(#oomox);fill-opacity:1;fill-rule:evenodd;stroke:none;stroke-width:0.13919;stroke-linecap:butt;stroke-linejoin:miter;stroke-miterlimit:4;stroke-dasharray:none;stroke-opacity:1"
     class="ColorScheme-Text" />
</svg>
