<?xml version="1.0" encoding="UTF-8" standalone="no"?>
<!-- Uploaded to: SVG Repo, www.svgrepo.com, Generator: SVG Repo Mixer Tools -->

<svg
   width="16"
   height="16"
   viewBox="0 0 0.32 0.32"
   version="1.1"
   id="svg1"
   xmlns="http://www.w3.org/2000/svg"
   xmlns:svg="http://www.w3.org/2000/svg"
   xmlns:rdf="http://www.w3.org/1999/02/22-rdf-syntax-ns#"
   xmlns:cc="http://creativecommons.org/ns#"
   xmlns:dc="http://purl.org/dc/elements/1.1/">
  <defs>
   <style id="current-color-scheme" type="text/css">
   .ColorScheme-Text { color: #0abdc6; } .ColorScheme-Highlight { color:#5294e2; }
  </style>
  <linearGradient id="arrongin" x1="0%" x2="0%" y1="0%" y2="100%">
   <stop offset="0%" style="stop-color:#dd9b44; stop-opacity:1"/>
   <stop offset="100%" style="stop-color:#ad6c16; stop-opacity:1"/>
  </linearGradient>
  <linearGradient id="aurora" x1="0%" x2="0%" y1="0%" y2="100%">
   <stop offset="0%" style="stop-color:#09D4DF; stop-opacity:1"/>
   <stop offset="100%" style="stop-color:#9269F4; stop-opacity:1"/>
  </linearGradient>
  <linearGradient id="cyberneon" x1="0%" x2="0%" y1="0%" y2="100%">
    <stop offset="0" style="stop-color:#0abdc6; stop-opacity:1"/>
    <stop offset="1" style="stop-color:#ea00d9; stop-opacity:1"/>
  </linearGradient>
  <linearGradient id="fitdance" x1="0%" x2="0%" y1="0%" y2="100%">
   <stop offset="0%" style="stop-color:#1AD6AB; stop-opacity:1"/>
   <stop offset="100%" style="stop-color:#329DB6; stop-opacity:1"/>
  </linearGradient>
  <linearGradient id="oomox" x1="0%" x2="0%" y1="0%" y2="100%">
   <stop offset="0%" style="stop-color:#0abdc6; stop-opacity:1"/>
   <stop offset="100%" style="stop-color:#b800ff; stop-opacity:1"/>
  </linearGradient>
  <linearGradient id="rainblue" x1="0%" x2="0%" y1="0%" y2="100%">
   <stop offset="0%" style="stop-color:#00F260; stop-opacity:1"/>
   <stop offset="100%" style="stop-color:#0575E6; stop-opacity:1"/>
  </linearGradient>
  <linearGradient id="sunrise" x1="0%" x2="0%" y1="0%" y2="100%">
   <stop offset="0%" style="stop-color: #FF8501; stop-opacity:1"/>
   <stop offset="100%" style="stop-color: #FFCB01; stop-opacity:1"/>
  </linearGradient>
  <linearGradient id="telinkrin" x1="0%" x2="0%" y1="0%" y2="100%">
   <stop offset="0%" style="stop-color: #b2ced6; stop-opacity:1"/>
   <stop offset="100%" style="stop-color: #6da5b7; stop-opacity:1"/>
  </linearGradient>
  <linearGradient id="60spsycho" x1="0%" x2="0%" y1="0%" y2="100%">
   <stop offset="0%" style="stop-color: #df5940; stop-opacity:1"/>
   <stop offset="25%" style="stop-color: #d8d15f; stop-opacity:1"/>
   <stop offset="50%" style="stop-color: #e9882a; stop-opacity:1"/>
   <stop offset="100%" style="stop-color: #279362; stop-opacity:1"/>
  </linearGradient>
  <linearGradient id="90ssummer" x1="0%" x2="0%" y1="0%" y2="100%">
   <stop offset="0%" style="stop-color: #f618c7; stop-opacity:1"/>
   <stop offset="20%" style="stop-color: #94ffab; stop-opacity:1"/>
   <stop offset="50%" style="stop-color: #fbfd54; stop-opacity:1"/>
   <stop offset="100%" style="stop-color: #0f83ae; stop-opacity:1"/>
  </linearGradient>
 </defs>
  <path
     d="m 0.3,0.08417 v -0.014 C 0.27682,0.04691 0.24532,0.03197 0.21032,0.03019 0.20808,0.02995 0.20588,0.02983 0.20364,0.02983 0.18616,0.02983 0.1705,0.03771 0.16006,0.05009 0.14894,0.03775 0.13292,0.02995 0.11508,0.02995 c -0.0018,0 -0.00356,8e-5 -0.00532,2.4e-4 C 0.07468,0.03197 0.04316,0.04691 0.02,0.07017 v 0.014 L 0,0.09017 v 0.2 l 0.134,-0.028 0.006,0.008 h 0.04 l 0.006,-0.008 0.134,0.028 v -0.2 z M 0.1096,0.21637 C 0.0841,0.21711 0.06026,0.22353 0.03908,0.23441 L 0.04,0.07857 C 0.0577,0.06187 0.08132,0.05127 0.10738,0.05017 0.1235,0.05125 0.13806,0.05623 0.15056,0.06419 L 0.15018,0.22157 C 0.13908,0.21825 0.12632,0.21633 0.1131,0.21633 c -0.00124,0 -0.00248,2e-5 -0.0037,6e-5 z M 0.28,0.23397 C 0.25974,0.22353 0.2359,0.21711 0.21064,0.21637 c -0.00112,-2e-5 -0.00216,-4e-5 -0.00322,-4e-5 -0.0132,0 -0.02594,0.00192 -0.03798,0.00548 L 0.17038,0.06377 C 0.1824,0.05615 0.19682,0.05123 0.2123,0.05019 0.23878,0.05129 0.26232,0.06191 0.28002,0.07863 l -6e-5,0.15536 z"
     id="book"
     class="ColorScheme-Text"
     style="stroke-width:0.02;fill:url(#oomox)" />
  <metadata
     id="metadata1">
    <rdf:RDF>
      <cc:Work
         rdf:about="">
        <dc:creator>
          <cc:Agent>
            <dc:title>dreifacherspass</dc:title>
          </cc:Agent>
        </dc:creator>
        <cc:license
           rdf:resource="http://creativecommons.org/licenses/by-sa/4.0/" />
      </cc:Work>
      <cc:License
         rdf:about="http://creativecommons.org/licenses/by-sa/4.0/">
        <cc:permits
           rdf:resource="http://creativecommons.org/ns#Reproduction" />
        <cc:permits
           rdf:resource="http://creativecommons.org/ns#Distribution" />
        <cc:requires
           rdf:resource="http://creativecommons.org/ns#Notice" />
        <cc:requires
           rdf:resource="http://creativecommons.org/ns#Attribution" />
        <cc:permits
           rdf:resource="http://creativecommons.org/ns#DerivativeWorks" />
        <cc:requires
           rdf:resource="http://creativecommons.org/ns#ShareAlike" />
      </cc:License>
    </rdf:RDF>
  </metadata>
  <path
     id="key-shadow"
     d="m 0.26006682,0.14447119 c -0.00223,-0.00223 -0.00531,-0.003612 -0.008713,-0.00361 l -0.0174251,-4.8e-7 -0.017426,-4.8e-7 -0.0174251,4.8e-7 h -0.0784139 -3.08e-6 a 0.03696473,0.03696473 0 0 0 -0.008712,-0.013815 0.03696473,0.03696473 0 0 0 -0.0522757,0 0.03696473,0.03696473 0 0 0 0,0.0522756 0.03696473,0.03696473 0 0 0 0.0522757,0 0.03696473,0.03696473 0 0 0 0.008711,-0.0138145 l 3.02e-6,-5e-8 h 0.0660925 v 0.0225287 0.0123224 h 0.0246429 v -0.00871 l 0.0102072,9.6e-7 v 0.005103 0.0123224 l 0.0246424,-4.8e-7 9.5e-7,-0.0123214 v -0.0312417 h 0.005103 c 0.006801,0 0.0123196,-0.005518 0.0123215,-0.0123214 0,-0.003405 -0.001381,-0.006484 -0.003609,-0.008712 z"
     style="fill:#000000;stroke-width:0.0123216;fill-opacity:1;opacity:0.4" />
  <path
     id="key"
     class="ColorScheme-Text"
     d="m 0.26006679,0.12382469 c -0.00223,-0.00223 -0.00531,-0.003612 -0.008713,-0.00361 l -0.0174251,-4.8e-7 -0.017426,-4.8e-7 -0.0174251,4.8e-7 h -0.0784139 -3.08e-6 a 0.03696473,0.03696473 0 0 0 -0.008712,-0.013815 0.03696473,0.03696473 0 0 0 -0.05227565,0 0.03696473,0.03696473 0 0 0 0,0.0522756 0.03696473,0.03696473 0 0 0 0.05227565,0 0.03696473,0.03696473 0 0 0 0.008711,-0.0138145 l 3.02e-6,-5e-8 h 0.0660925 v 0.0225287 0.0123224 h 0.0246429 v -0.00871 l 0.0102072,9.6e-7 v 0.005103 0.0123224 l 0.0246424,-4.8e-7 9.6e-7,-0.0123214 v -0.0312417 h 0.005103 c 0.006801,0 0.0123196,-0.005518 0.0123215,-0.0123214 0,-0.003405 -0.001381,-0.006484 -0.003609,-0.008712 z"
     style="fill:url(#oomox);stroke-width:0.0123216" />
</svg>
