<?xml version="1.0" encoding="UTF-8" standalone="no"?>
<!-- Uploaded to: SVG Repo, www.svgrepo.com, Generator: SVG Repo Mixer Tools -->

<svg
   width="16"
   height="16"
   viewBox="0 0 0.48 0.48"
   version="1.1"
   id="svg9"
   xmlns:xlink="http://www.w3.org/1999/xlink"
   xmlns="http://www.w3.org/2000/svg"
   xmlns:svg="http://www.w3.org/2000/svg"
   xmlns:rdf="http://www.w3.org/1999/02/22-rdf-syntax-ns#"
   xmlns:cc="http://creativecommons.org/ns#">
  <defs>
   <style id="current-color-scheme" type="text/css">
   .ColorScheme-Text { color: #0abdc6; } .ColorScheme-Highlight { color:#5294e2; }
  </style>
  <linearGradient id="arrongin" x1="0%" x2="0%" y1="0%" y2="100%">
   <stop offset="0%" style="stop-color:#dd9b44; stop-opacity:1"/>
   <stop offset="100%" style="stop-color:#ad6c16; stop-opacity:1"/>
  </linearGradient>
  <linearGradient id="aurora" x1="0%" x2="0%" y1="0%" y2="100%">
   <stop offset="0%" style="stop-color:#09D4DF; stop-opacity:1"/>
   <stop offset="100%" style="stop-color:#9269F4; stop-opacity:1"/>
  </linearGradient>
  <linearGradient id="cyberneon" x1="0%" x2="0%" y1="0%" y2="100%">
    <stop offset="0" style="stop-color:#0abdc6; stop-opacity:1"/>
    <stop offset="1" style="stop-color:#ea00d9; stop-opacity:1"/>
  </linearGradient>
  <linearGradient id="fitdance" x1="0%" x2="0%" y1="0%" y2="100%">
   <stop offset="0%" style="stop-color:#1AD6AB; stop-opacity:1"/>
   <stop offset="100%" style="stop-color:#329DB6; stop-opacity:1"/>
  </linearGradient>
  <linearGradient id="oomox" x1="0%" x2="0%" y1="0%" y2="100%">
   <stop offset="0%" style="stop-color:#0abdc6; stop-opacity:1"/>
   <stop offset="100%" style="stop-color:#b800ff; stop-opacity:1"/>
  </linearGradient>
  <linearGradient id="rainblue" x1="0%" x2="0%" y1="0%" y2="100%">
   <stop offset="0%" style="stop-color:#00F260; stop-opacity:1"/>
   <stop offset="100%" style="stop-color:#0575E6; stop-opacity:1"/>
  </linearGradient>
  <linearGradient id="sunrise" x1="0%" x2="0%" y1="0%" y2="100%">
   <stop offset="0%" style="stop-color: #FF8501; stop-opacity:1"/>
   <stop offset="100%" style="stop-color: #FFCB01; stop-opacity:1"/>
  </linearGradient>
  <linearGradient id="telinkrin" x1="0%" x2="0%" y1="0%" y2="100%">
   <stop offset="0%" style="stop-color: #b2ced6; stop-opacity:1"/>
   <stop offset="100%" style="stop-color: #6da5b7; stop-opacity:1"/>
  </linearGradient>
  <linearGradient id="60spsycho" x1="0%" x2="0%" y1="0%" y2="100%">
   <stop offset="0%" style="stop-color: #df5940; stop-opacity:1"/>
   <stop offset="25%" style="stop-color: #d8d15f; stop-opacity:1"/>
   <stop offset="50%" style="stop-color: #e9882a; stop-opacity:1"/>
   <stop offset="100%" style="stop-color: #279362; stop-opacity:1"/>
  </linearGradient>
  <linearGradient id="90ssummer" x1="0%" x2="0%" y1="0%" y2="100%">
   <stop offset="0%" style="stop-color: #f618c7; stop-opacity:1"/>
   <stop offset="20%" style="stop-color: #94ffab; stop-opacity:1"/>
   <stop offset="50%" style="stop-color: #fbfd54; stop-opacity:1"/>
   <stop offset="100%" style="stop-color: #0f83ae; stop-opacity:1"/>
  </linearGradient>
 </defs>
  <path
     d="M 0,0 V 0.12631576 H 0.02526315 V 0.05052632 L 0.07578946,0.12631576 H 0.10105261 V 0 H 0.07578946 V 0.07578946 L 0.02526315,0 Z M 0.12631576,0 V 0.12631576 H 0.2273684 V 0.10105256 H 0.1515789 V 0.07578936 H 0.2021052 V 0.05052631 H 0.15157892 V 0.02526315 h 0.0757894 V 0 Z m 0.12631577,0 v 0.12631576 h 0.0252632 l 0.0252632,-0.0505263 0.0252632,0.0505263 h 0.0252632 V 0 H 0.32842099 V 0.07578946 L 0.30315783,0.02526315 0.27789468,0.07578946 V 0 Z m 0.1642105,0 c -0.0209179,0 -0.0378948,0.01696673 -0.0378948,0.03789472 0,0.02092801 0.0169769,0.03789474 0.0378948,0.03789474 h 0.0252632 c 0.006973,0 0.0126316,0.005657 0.0126316,0.0126316 0,0.006975 -0.005659,0.0126316 -0.0126316,0.0126316 h -0.02448 -0.0386779 v 0.0252632 h 0.0386779 0.02448 C 0.4630231,0.12631584 0.48,0.10934911 0.48,0.08842105 0.48,0.06749312 0.4630231,0.05052639 0.44210522,0.05052639 h -0.0126316 -0.0126316 c -0.006973,0 -0.0126316,-0.0056564 -0.0126316,-0.01263158 0,-0.0069752 0.005659,-0.01263157 0.0126316,-0.01263157 H 0.42947362 0.44210522 0.48 V 0 H 0.4421052 Z"
     id="path3"
     class="ColorScheme-Text"
     style="stroke-width:0.0252632;fill:url(#oomox)" />
  <path
     id="rect4"
     class="ColorScheme-Text"
     style="opacity:0.7;fill:url(#oomox);stroke-width:0.026138"
     d="M 0.25265625,0.18 V 0.2070333 H 0.48 V 0.18 Z m 0,0.0545683 v 0.027096 H 0.48 v -0.027096 z m 0,0.054631 V 0.3162325 H 0.48 V 0.2891992 Z m 0,0.0545683 V 0.3708009 H 0.48 V 0.3437675 Z M 0,0.39839848 v 0.0270333 h 0.22734375 v -0.0270333 z m 0.25265625,0 v 0.0270333 H 0.48 V 0.39839848 Z M 0,0.45296674 V 0.48 H 0.22734375 V 0.4529667 Z m 0.25265625,0 v 0.0270332 H 0.48 v -0.0270333 z" />
  <metadata
     id="metadata9">
    <rdf:RDF>
      <cc:License
         rdf:about="http://creativecommons.org/licenses/by-sa/4.0/">
        <cc:permits
           rdf:resource="http://creativecommons.org/ns#Reproduction" />
        <cc:permits
           rdf:resource="http://creativecommons.org/ns#Distribution" />
        <cc:requires
           rdf:resource="http://creativecommons.org/ns#Notice" />
        <cc:requires
           rdf:resource="http://creativecommons.org/ns#Attribution" />
        <cc:permits
           rdf:resource="http://creativecommons.org/ns#DerivativeWorks" />
        <cc:requires
           rdf:resource="http://creativecommons.org/ns#ShareAlike" />
      </cc:License>
      <cc:Work
         rdf:about="">
        <cc:license
           rdf:resource="http://creativecommons.org/licenses/by-sa/4.0/" />
      </cc:Work>
    </rdf:RDF>
  </metadata>
  <path
     id="path3214"
     class="ColorScheme-Text"
     d="m 0.22916782,0.26164704 c 0,0.0566779 -0.0498844,0.10262466 -0.11141041,0.10262466 -0.0615316,0 -0.11141322,-0.0459473 -0.11141322,-0.10262466 0,-0.0566752 0.04988162,-0.10261738 0.11141322,-0.10261738 0.061526,0 0.11141041,0.0459421 0.11141041,0.10261738 z"
     style="display:inline;fill:url(#oomox);fill-opacity:0.3;fill-rule:nonzero;stroke:none;stroke-width:0.0103662;stroke-miterlimit:4;stroke-opacity:1" />
  <path
     id="path4144"
     class="ColorScheme-Text"
     d="m 0.11824685,0.1651938 -0.012269,0.001288 -0.01519322,0.003864 -0.0028607,0.002576 0.0094084,0.005972 v 0.003455 l -0.003687,0.003396 0.0049585,0.009017 0.0032421,-0.001756 0.004132,-0.005972 c 0.006339,-0.001805 0.0120291,-0.003874 0.0180539,-0.006441 l 0.004895,-0.011535 z m -0.02911506,8.7828e-4 -0.0052763,7.0263e-4 -0.0024792,0.002284 -0.004132,5.8551e-4 -0.0036871,0.001581 -0.0017799,7.6119e-4 -0.0010807,0.001347 0.0053399,8.7828e-4 0.0020342,-0.001698 0.0041321,-8.7831e-4 c 0.0028108,-0.001259 0.0055995,-0.002098 0.0085819,-0.002986 z m -0.02422017,0.0102467 -7.6281e-4,0.001757 3.8139e-4,0.004274 -0.0033056,0.002576 -0.0020342,0.004684 h 0.0041321 l 0.0020342,-0.004274 c 0.0017695,-0.001153 0.0035376,-0.002345 0.0053399,-0.003455 l 0.0040685,0.001288 c 0.0027341,0.001711 0.0054642,0.003444 0.0082005,0.005153 l 0.0041321,-0.003396 -0.0045135,-0.001757 -0.0020343,-0.003806 -0.0078191,-8.7829e-4 -3.8142e-4,-0.002166 -0.0036871,8.7829e-4 -0.0016528,0.002986 z m -0.0097898,0.003455 -0.0020978,0.004684 c 0,0 -0.0034406,6.192e-4 -0.0043228,8.196e-4 -0.0112667,0.009563 -0.03399752,0.0302381 -0.03928627,0.0692093 2.094e-4,9.036e-4 0.0038142,0.006148 0.0038142,0.006148 l 0.0086455,0.004684 0.008582,0.002108 0.0036871,0.004333 0.0057849,0.003806 0.0032421,-4.098e-4 0.0024792,9.954e-4 v 7.026e-4 l -0.0033056,0.008139 -0.0024157,0.003396 8.2641e-4,0.001756 -0.0020978,0.006382 0.0074377,0.0124132 0.0073741,0.005972 0.0032421,0.004274 -3.8139e-4,0.009017 0.0024792,0.005094 -0.0024792,0.009837 c 0,0 -1.872e-4,-4.8e-5 1.272e-4,9.369e-4 3.1734e-4,9.852e-4 0.01310621,0.007585 0.01392183,0.007026 8.1279e-4,-5.688e-4 0.0015257,-0.001112 0.0015257,-0.001112 l -8.2641e-4,-0.002108 0.0033056,-0.002986 0.0012078,-0.002986 0.0053399,-0.001756 0.0041321,-0.009368 -0.0012714,-0.002576 0.0028607,-0.003865 0.0061663,-0.001288 0.0033057,-0.006851 -8.2641e-4,-0.008549 0.0049585,-0.006382 7.6281e-4,-0.006441 c -0.006736,-0.003077 -0.0134025,-0.006259 -0.0200882,-0.009427 l -0.0032421,-0.005973 -0.0061663,-0.001288 -0.0033056,-0.008139 -0.0082005,8.784e-4 -0.0069927,-0.004684 -0.0073741,0.005972 v 9.369e-4 c -0.0022352,-5.943e-4 -0.0050025,-6.879e-4 -0.0069927,-0.001815 l -0.0015894,-0.004273 v -0.004684 l -0.0049585,4.098e-4 c 4.1091e-4,-0.002995 8.5767e-4,-0.005963 0.0012714,-0.008959 h -0.0029242 l -0.0028606,0.003396 -0.0028607,0.001288 -0.004132,-0.002108 -3.8142e-4,-0.004743 8.2641e-4,-0.005094 0.0061663,-0.004333 h 0.0048949 l 8.2641e-4,-0.002518 0.0061663,0.00123 0.0045135,0.005153 8.2641e-4,-0.008549 0.0077555,-0.005972 0.0029242,-0.006441 0.0057213,-0.002108 0.0033056,-0.004274 0.0073741,-0.001288 0.0036871,-0.005153 H 0.06414878 l 0.0069291,-0.002986 h 0.0049585 l 0.0069291,-0.002166 8.2641e-4,-0.002518 -0.0024157,-0.002167 -0.0029242,-8.784e-4 8.2641e-4,-0.002518 -0.0020342,-0.003865 -0.0048949,0.001698 8.2641e-4,-0.003396 -0.0057849,-0.003045 -0.0045135,0.007319 4.4499e-4,0.002518 -0.0045135,0.001756 -0.0029242,0.005563 -0.0012078,-0.005153 -0.0078191,-0.002986 -0.0012078,-0.003864 0.01023477,-0.005563 0.0045135,-0.003864 4.4499e-4,-0.004684 -0.0024792,-0.001288 z m 0.11493455,0 -0.007819,0.001698 -0.004895,0.002986 v 0.002576 l -0.007819,0.004684 0.001653,0.006851 0.004513,-0.002986 0.002861,0.002986 0.003306,0.001698 0.002034,-0.005094 -0.001208,-0.002986 0.001208,-0.002166 0.004513,-0.003864 h 0.002034 l -0.002034,0.004274 v 0.003865 c 0.001885,-4.725e-4 0.003792,-5.988e-4 0.005721,-8.199e-4 l -0.00534,0.003396 -3.8139e-4,0.002167 -0.006166,0.004684 -0.006166,-0.001288 v -0.003396 l -0.002861,0.001698 0.001208,0.002986 h -0.004513 l -0.002416,0.003864 -0.003115,0.003162 -0.005531,0.001112 0.003306,0.002986 8.2641e-4,0.002986 h -0.004132 l -0.00534,0.002576 v 0.00767 h 0.002479 l 0.002289,0.002401 0.005086,-0.002401 0.002034,-0.004684 0.003751,-0.002166 7.6287e-4,-0.001698 0.006166,-0.001288 0.003306,0.003455 0.003687,0.001698 -0.002034,0.003864 0.003242,-8.784e-4 0.001653,-0.003864 -0.004068,-0.004274 h 0.001653 l 0.004068,0.002986 8.2641e-4,0.004333 0.003687,0.003806 8.2641e-4,-0.005563 0.002034,-8.199e-4 c 0.002029,0.00194 0.003631,0.004199 0.00534,0.006382 l 0.006166,4.683e-4 0.003687,0.002108 -0.001653,0.002167 -0.003687,0.002986 h -0.00534 l -0.006993,-0.002166 -0.003687,4.683e-4 -0.00267,0.002752 -0.007565,-0.007026 -0.00534,-0.001288 -0.007819,8.196e-4 -0.006929,0.001698 c -0.003914,0.004087 -0.007802,0.008169 -0.0115062,0.0124135 l -0.004514,0.009837 0.002034,0.002167 -0.003687,0.005094 0.004132,0.009017 c 0.003489,0.003635 0.006942,0.007253 0.0104255,0.0108908 l 0.005149,-0.00404 0.002225,0.002342 0.005594,-0.00322 0.001844,0.001932 h 0.005531 l 0.003178,0.003337 -0.001971,0.005855 0.003941,0.004099 -2.541e-4,0.007026 0.002924,0.005153 -0.002098,0.004274 c -2.043e-4,0.003147 -3.8139e-4,0.006279 -3.8139e-4,0.009427 0.001681,0.004265 0.003307,0.008528 0.004895,0.0128231 l 0.001208,0.006851 v 0.003396 h 0.002924 l 0.004513,-0.002576 h 0.00534 l 0.007946,-0.008315 -0.001017,-0.00281 0.00534,-0.004274 -0.003878,-0.00404 0.004704,-0.00363 0.004513,-0.002576 0.002034,-0.002167 -0.001208,-0.004684 v -0.0120033 l 0.003687,-0.00726 0.004513,-0.004684 0.004958,-0.0111251 v -0.002986 c -0.002449,2.85e-4 -0.004851,4.857e-4 -0.007247,6.441e-4 l 0.004958,-0.004509 0.006738,-0.004274 0.003751,-0.003864 v -0.004274 c -8.2125e-4,-0.001426 -0.001652,-0.002848 -0.002479,-0.004274 l -0.003306,0.003455 -0.002416,-0.002576 -0.003751,-0.002576 v -0.005563 l 0.004323,0.004509 0.004768,-6.441e-4 c 0.002149,0.001797 0.004218,0.003516 0.006103,0.005563 l 0.003115,-0.00322 c 0,-0.003402 -0.004232,-0.0201598 -0.0132226,-0.0343705 -0.00899,-0.014206 -0.0247288,-0.0271685 -0.0247288,-0.0271685 l -0.001271,0.001874 -0.004068,0.004274 -0.00534,-0.005153 h 0.00534 l 0.002416,-0.002576 -0.00979,-0.001698 z m -0.0406848,0.005563 -0.003306,0.001698 -0.001653,-4.098e-4 -3.8145e-4,0.002576 0.002861,0.001698 0.004895,-0.002986 z m -0.05416164,8.196e-4 -0.0033057,0.002166 0.0041321,0.002576 h 0.003242 v -0.002986 z m 0.06484139,0.009837 v 0.002576 l 0.001589,0.001698 v 0.003864 l -8.2641e-4,0.005153 0.004513,-8.784e-4 0.003306,-0.002986 -0.002861,-0.002576 c -9.6459e-4,-0.002366 -0.002098,-0.004581 -0.003306,-0.006851 z m -0.001653,0.005153 -0.002861,8.784e-4 8.2641e-4,0.004684 0.003687,-0.001698 z m -0.05664086,0.007729 0.0012078,0.005972 0.0024792,-0.003455 z m 0.10717901,0.0333751 0.004704,0.00486 0.005531,0.0109494 0.003306,0.003396 -0.001653,0.003864 0.003115,0.003279 c -0.001434,9e-5 -0.002912,1.17e-4 -0.004386,1.17e-4 -0.002613,-0.005057 -0.004558,-0.0101092 -0.006548,-0.0153996 l -0.003496,-0.00363 -0.001844,-0.006207 z"
     style="display:inline;fill:url(#oomox);fill-opacity:1;fill-rule:nonzero;stroke:none;stroke-width:0.00541707;stroke-miterlimit:4" />
</svg>
