<?xml version="1.0" encoding="UTF-8" standalone="no"?>
<svg
   height="16"
   width="16"
   version="1.1"
   id="Layer_1"
   viewBox="0 0 10.24 10.24"
   xml:space="preserve"
   xmlns="http://www.w3.org/2000/svg"
   xmlns:svg="http://www.w3.org/2000/svg"
   xmlns:rdf="http://www.w3.org/1999/02/22-rdf-syntax-ns#"
   xmlns:cc="http://creativecommons.org/ns#"
   xmlns:dc="http://purl.org/dc/elements/1.1/">
  <defs>
   <style id="current-color-scheme" type="text/css">
   .ColorScheme-Text { color: #0abdc6; } .ColorScheme-Highlight { color:#5294e2; }
  </style>
  <linearGradient id="arrongin" x1="0%" x2="0%" y1="0%" y2="100%">
   <stop offset="0%" style="stop-color:#dd9b44; stop-opacity:1"/>
   <stop offset="100%" style="stop-color:#ad6c16; stop-opacity:1"/>
  </linearGradient>
  <linearGradient id="aurora" x1="0%" x2="0%" y1="0%" y2="100%">
   <stop offset="0%" style="stop-color:#09D4DF; stop-opacity:1"/>
   <stop offset="100%" style="stop-color:#9269F4; stop-opacity:1"/>
  </linearGradient>
  <linearGradient id="cyberneon" x1="0%" x2="0%" y1="0%" y2="100%">
    <stop offset="0" style="stop-color:#0abdc6; stop-opacity:1"/>
    <stop offset="1" style="stop-color:#ea00d9; stop-opacity:1"/>
  </linearGradient>
  <linearGradient id="fitdance" x1="0%" x2="0%" y1="0%" y2="100%">
   <stop offset="0%" style="stop-color:#1AD6AB; stop-opacity:1"/>
   <stop offset="100%" style="stop-color:#329DB6; stop-opacity:1"/>
  </linearGradient>
  <linearGradient id="oomox" x1="0%" x2="0%" y1="0%" y2="100%">
   <stop offset="0%" style="stop-color:#0abdc6; stop-opacity:1"/>
   <stop offset="100%" style="stop-color:#b800ff; stop-opacity:1"/>
  </linearGradient>
  <linearGradient id="rainblue" x1="0%" x2="0%" y1="0%" y2="100%">
   <stop offset="0%" style="stop-color:#00F260; stop-opacity:1"/>
   <stop offset="100%" style="stop-color:#0575E6; stop-opacity:1"/>
  </linearGradient>
  <linearGradient id="sunrise" x1="0%" x2="0%" y1="0%" y2="100%">
   <stop offset="0%" style="stop-color: #FF8501; stop-opacity:1"/>
   <stop offset="100%" style="stop-color: #FFCB01; stop-opacity:1"/>
  </linearGradient>
  <linearGradient id="telinkrin" x1="0%" x2="0%" y1="0%" y2="100%">
   <stop offset="0%" style="stop-color: #b2ced6; stop-opacity:1"/>
   <stop offset="100%" style="stop-color: #6da5b7; stop-opacity:1"/>
  </linearGradient>
  <linearGradient id="60spsycho" x1="0%" x2="0%" y1="0%" y2="100%">
   <stop offset="0%" style="stop-color: #df5940; stop-opacity:1"/>
   <stop offset="25%" style="stop-color: #d8d15f; stop-opacity:1"/>
   <stop offset="50%" style="stop-color: #e9882a; stop-opacity:1"/>
   <stop offset="100%" style="stop-color: #279362; stop-opacity:1"/>
  </linearGradient>
  <linearGradient id="90ssummer" x1="0%" x2="0%" y1="0%" y2="100%">
   <stop offset="0%" style="stop-color: #f618c7; stop-opacity:1"/>
   <stop offset="20%" style="stop-color: #94ffab; stop-opacity:1"/>
   <stop offset="50%" style="stop-color: #fbfd54; stop-opacity:1"/>
   <stop offset="100%" style="stop-color: #0f83ae; stop-opacity:1"/>
  </linearGradient>
 </defs>
 <circle
   style="opacity:0.5;fill:url(#oomox);stroke-width:0.02"
   cx="-5.1199999"
   cy="-5.1199999"
   id="circle1"
   class="ColorScheme-Text"
   r="5.1199999"
   transform="scale(-1)" />
 <path
   id="path1"
   style="fill:url(#oomox);stroke-width:0.02"
   class="ColorScheme-Text"
   d="M 5.25125 0.00375 C 6.5987847 0.077731046 7.66875 1.1939916 7.66875 2.56 C 7.66875 3.9738572 6.5226072 5.12 5.10875 5.12 C 3.6948928 5.12 2.54875 6.2661428 2.54875 7.68 C 2.54875 9.0938572 3.6948928 10.24 5.10875 10.24 L 5.12 10.24 C 7.9476944 10.24 10.24 7.9476944 10.24 5.12 C 10.24 2.336284 8.0181529 0.073525798 5.25125 0.00375 z M 5.12 2.21875 A 0.56945997 0.56945997 0 0 0 4.55 2.7875 A 0.56945997 0.56945997 0 0 0 5.12 3.3575 A 0.56945997 0.56945997 0 0 0 5.69 2.7875 A 0.56945997 0.56945997 0 0 0 5.12 2.21875 z M 5.12 7.11 A 0.56945997 0.56945997 0 0 1 5.69 7.68 A 0.56945997 0.56945997 0 0 1 5.12 8.25 A 0.56945997 0.56945997 0 0 1 4.55 7.68 A 0.56945997 0.56945997 0 0 1 5.12 7.11 z " />
 <metadata
   id="metadata12"><rdf:RDF><cc:Work
       rdf:about=""><dc:creator><cc:Agent><dc:title>dreifacherspass</dc:title></cc:Agent></dc:creator><cc:license
         rdf:resource="http://creativecommons.org/licenses/by-sa/4.0/" /></cc:Work><cc:License
       rdf:about="http://creativecommons.org/licenses/by-sa/4.0/"><cc:permits
         rdf:resource="http://creativecommons.org/ns#Reproduction" /><cc:permits
         rdf:resource="http://creativecommons.org/ns#Distribution" /><cc:requires
         rdf:resource="http://creativecommons.org/ns#Notice" /><cc:requires
         rdf:resource="http://creativecommons.org/ns#Attribution" /><cc:permits
         rdf:resource="http://creativecommons.org/ns#DerivativeWorks" /><cc:requires
         rdf:resource="http://creativecommons.org/ns#ShareAlike" /></cc:License></rdf:RDF></metadata></svg>
