<?xml version="1.0" encoding="UTF-8" standalone="no"?>
<svg
   id="svg30"
   width="16"
   height="16"
   version="1.1"
   viewBox="0 0 16 16"
   xmlns:xlink="http://www.w3.org/1999/xlink"
   xmlns="http://www.w3.org/2000/svg"
   xmlns:svg="http://www.w3.org/2000/svg"
   xmlns:rdf="http://www.w3.org/1999/02/22-rdf-syntax-ns#"
   xmlns:cc="http://creativecommons.org/ns#"
   xmlns:dc="http://purl.org/dc/elements/1.1/">
  <metadata
     id="metadata36">
    <rdf:RDF>
      <cc:Work
         rdf:about="">
        <cc:license
           rdf:resource="http://creativecommons.org/licenses/by-sa/4.0/" />
        <dc:creator>
          <cc:Agent>
            <dc:title>dreifacherspass</dc:title>
          </cc:Agent>
        </dc:creator>
      </cc:Work>
      <cc:License
         rdf:about="http://creativecommons.org/licenses/by-sa/4.0/">
        <cc:permits
           rdf:resource="http://creativecommons.org/ns#Reproduction" />
        <cc:permits
           rdf:resource="http://creativecommons.org/ns#Distribution" />
        <cc:requires
           rdf:resource="http://creativecommons.org/ns#Notice" />
        <cc:requires
           rdf:resource="http://creativecommons.org/ns#Attribution" />
        <cc:permits
           rdf:resource="http://creativecommons.org/ns#DerivativeWorks" />
        <cc:requires
           rdf:resource="http://creativecommons.org/ns#ShareAlike" />
      </cc:License>
    </rdf:RDF>
  </metadata>
  <defs>
   <style id="current-color-scheme" type="text/css">
   .ColorScheme-Text { color: #0abdc6; } .ColorScheme-Highlight { color:#5294e2; }
  </style>
  <linearGradient id="arrongin" x1="0%" x2="0%" y1="0%" y2="100%">
   <stop offset="0%" style="stop-color:#dd9b44; stop-opacity:1"/>
   <stop offset="100%" style="stop-color:#ad6c16; stop-opacity:1"/>
  </linearGradient>
  <linearGradient id="aurora" x1="0%" x2="0%" y1="0%" y2="100%">
   <stop offset="0%" style="stop-color:#09D4DF; stop-opacity:1"/>
   <stop offset="100%" style="stop-color:#9269F4; stop-opacity:1"/>
  </linearGradient>
  <linearGradient id="cyberneon" x1="0%" x2="0%" y1="0%" y2="100%">
    <stop offset="0" style="stop-color:#0abdc6; stop-opacity:1"/>
    <stop offset="1" style="stop-color:#ea00d9; stop-opacity:1"/>
  </linearGradient>
  <linearGradient id="fitdance" x1="0%" x2="0%" y1="0%" y2="100%">
   <stop offset="0%" style="stop-color:#1AD6AB; stop-opacity:1"/>
   <stop offset="100%" style="stop-color:#329DB6; stop-opacity:1"/>
  </linearGradient>
  <linearGradient id="oomox" x1="0%" x2="0%" y1="0%" y2="100%">
   <stop offset="0%" style="stop-color:#0abdc6; stop-opacity:1"/>
   <stop offset="100%" style="stop-color:#b800ff; stop-opacity:1"/>
  </linearGradient>
  <linearGradient id="rainblue" x1="0%" x2="0%" y1="0%" y2="100%">
   <stop offset="0%" style="stop-color:#00F260; stop-opacity:1"/>
   <stop offset="100%" style="stop-color:#0575E6; stop-opacity:1"/>
  </linearGradient>
  <linearGradient id="sunrise" x1="0%" x2="0%" y1="0%" y2="100%">
   <stop offset="0%" style="stop-color: #FF8501; stop-opacity:1"/>
   <stop offset="100%" style="stop-color: #FFCB01; stop-opacity:1"/>
  </linearGradient>
  <linearGradient id="telinkrin" x1="0%" x2="0%" y1="0%" y2="100%">
   <stop offset="0%" style="stop-color: #b2ced6; stop-opacity:1"/>
   <stop offset="100%" style="stop-color: #6da5b7; stop-opacity:1"/>
  </linearGradient>
  <linearGradient id="60spsycho" x1="0%" x2="0%" y1="0%" y2="100%">
   <stop offset="0%" style="stop-color: #df5940; stop-opacity:1"/>
   <stop offset="25%" style="stop-color: #d8d15f; stop-opacity:1"/>
   <stop offset="50%" style="stop-color: #e9882a; stop-opacity:1"/>
   <stop offset="100%" style="stop-color: #279362; stop-opacity:1"/>
  </linearGradient>
  <linearGradient id="90ssummer" x1="0%" x2="0%" y1="0%" y2="100%">
   <stop offset="0%" style="stop-color: #f618c7; stop-opacity:1"/>
   <stop offset="20%" style="stop-color: #94ffab; stop-opacity:1"/>
   <stop offset="50%" style="stop-color: #fbfd54; stop-opacity:1"/>
   <stop offset="100%" style="stop-color: #0f83ae; stop-opacity:1"/>
  </linearGradient>
 </defs>
  <ellipse
     style="opacity:0.354561;fill:url(#oomox);stroke-width:1.60274"
     id="path5"
     class="ColorScheme-Text"
     cx="-9.5758972"
     cy="-8.8755703"
     rx="5.6697545"
     ry="6.2832284"
     transform="scale(-1)" />
  <path
     id="path3970-2-2"
     style="display:inline;fill:url(#oomox);fill-opacity:1;stroke:none;stroke-width:0.0766906"
     class="ColorScheme-Text"
     d="M 7.8553633,0 C 6.9065034,8.0595892e-5 5.9969676,0.16986733 5.1548938,0.48138546 5.0345717,0.52589839 4.9152871,0.57346593 4.7978015,0.62367297 2.5658615,1.5776993 0.86086843,3.5443489 0.24737011,5.9534686 v 8.17e-4 C 0.08601264,6.5881339 0,7.2529549 0,7.9376669 c 0,0.068494 0.00119674,0.135989 0.00319155,0.2041247 1.875e-4,-0.00737 0.00119674,-0.014587 0.00119674,-0.021961 0.09650091,4.3025764 3.58896511,7.8758674 7.85137781,7.8763424 2.8200459,0.08469 5.4363579,-1.242115 6.2986549,-3.403596 -0.232697,0.108497 -0.472304,0.321927 -0.692905,0.523939 -1.180535,0.992044 -3.116837,1.306342 -4.0324168,1.30652 -2.8676038,0 -5.2114203,-2.155211 -5.2114203,-5.052539 0,-0.981469 0.2571085,-1.8230848 0.7168453,-2.5285946 C 5.306513,6.990118 5.6451655,7.227073 5.897411,7.6364504 5.934872,7.6909775 5.961446,7.7537612 6.0031393,7.8053344 6.2085483,8.059275 6.4305096,8.1247348 6.6541544,8.1351236 7.1320552,8.1491866 7.3576867,7.7886713 7.3789786,7.3040055 7.3797616,7.2660048 7.37857,7.2841382 7.3757786,7.2508126 7.3607776,6.9303 6.8973112,5.7540595 6.1262893,5.6025396 c 0.136276,-0.099616 0.2771912,-0.1956177 0.4255832,-0.28524 0.5043027,-0.3045745 1.5753,-0.6511277 3.0608888,-0.4248675 0.7534077,0.1147396 1.3705207,0.2792032 2.3220977,0.5857726 1.104396,0.3557974 1.71977,0.8526814 2.569468,0.9514636 0.741851,0.086241 1.512199,-0.4367559 1.49287,-1.3304563 -0.0225,0.2242251 -0.223258,0.4582426 -0.472799,0.4687522 -0.271773,0.011445 -0.855175,-0.392815 -0.61643,-0.876997 0.112435,-0.115413 0.232354,-0.032722 0.300569,-0.065822 0.166129,-0.080608 0.243381,-0.2147633 0.243381,-0.2147633 0,0 0.466216,0.2238421 0.537966,0.5558519 -0.02521,-0.2367657 -0.102401,-0.4962433 -0.249365,-0.7759303 a 0.3075923,0.38658784 0 0 1 -0.132334,0.038565 0.3075923,0.38658784 0 0 1 -0.307882,-0.3869719 0.3075923,0.38658784 0 0 1 0.307882,-0.3863027 0.3075923,0.38658784 0 0 1 0.03459,0.00201 c 0.002,-0.046894 0.0028,-0.046455 0.0047,-0.1043873 4.09e-4,0.00931 0.0016,0.018659 0.002,0.027925 0.0024,-0.070626 0.0032,-0.1530028 0.0032,-0.2367054 -2.8e-5,-0.00754 7.83e-4,-0.013701 7.83e-4,-0.021277 -1.6e-5,-0.00161 1.5e-5,-0.00322 0,-0.00463 -2.32e-4,-0.026234 -0.002,-0.052943 -0.0028,-0.079786 -0.0016,-0.05879 -0.004,-0.1171619 -0.008,-0.1768631 -0.0045,-0.069066 -0.0098,-0.1371334 -0.01863,-0.2034555 -0.0095,-0.070884 -0.0223,-0.1374397 -0.0379,-0.200135 -0.0028,-0.011001 -0.0057,-0.021922 -0.0087,-0.032561 -0.0065,-0.023453 -0.01301,-0.046266 -0.02063,-0.067817 -0.0061,-0.017328 -0.01317,-0.032641 -0.01995,-0.048539 -0.0055,-0.012935 -0.0099,-0.027967 -0.01596,-0.039895 C 15.444508,2.1193069 15.375672,2.0014318 15.264929,1.882505 15.191189,1.803159 15.098449,1.723244 14.972339,1.6331704 14.78317,1.4980599 14.518494,1.3397137 14.127819,1.1251884 13.932479,1.0179317 13.741249,0.94230483 13.559266,0.88981694 c -0.191314,-0.0551717 -0.370916,-0.08363 -0.535309,-0.0964084 -0.08873,-0.006931 -0.172604,-0.009228 -0.250693,-0.007979 -0.09814,0.001614 -0.188825,0.007939 -0.26666,0.0172879 -1.95e-4,2.417e-5 -7.83e-4,-2.417e-5 -0.0012,0 -0.07237,0.008704 -0.135398,0.0194237 -0.186858,0.0299412 -0.09907,0.0202295 -0.153084,0.0383635 -0.1576,0.0398949 l -0.0028,0.001209 h -0.0012 c -3.6e-4,-3.1397e-4 -0.06431,-0.055127 -0.1383,-0.12233976 -0.0582,-0.0529029 -0.122827,-0.11331742 -0.167573,-0.16356476 -0.05096,-0.0572027 -0.09859,-0.11156044 -0.15361,-0.15026645 H 11.69668 C 11.65552,0.40873263 11.6103,0.38824112 11.557019,0.38240196 h -7.84e-4 c -0.01763,-0.002015 -0.03626,-0.002822 -0.05586,-0.001209 -0.01508,0.001209 -0.03012,0.006206 -0.04522,0.0139432 -0.009,0.004473 -0.01772,0.011485 -0.02661,0.0179326 -0.0069,0.005077 -0.0138,0.009188 -0.02063,0.0152729 -4.08e-4,3.7447e-4 -7.83e-4,8.0681e-4 -0.0012,0.001209 -0.02506,0.0226877 -0.04885,0.0524234 -0.07182,0.084444 -0.05819,0.0804707 -0.107451,0.17679048 -0.135653,0.23869595 C 10.311762,0.33023244 9.3323791,0.07094831 8.3006065,0.01266157 8.1533555,0.00431992 8.0050275,4.8357535e-5 7.8557382,4.8357535e-5 Z m 5.5578727,2.8211484 a 0.59336947,0.59951378 0 0 1 0.59316,0.5997361 0.59336947,0.59951378 0 0 1 -0.59316,0.5990714 0.59336947,0.59951378 0 0 1 -0.59316,-0.5990714 0.59336947,0.59951378 0 0 1 0.59316,-0.5997361 z" />
  <ellipse
     style="display:inline;opacity:0.5;fill:url(#oomox);fill-opacity:1;stroke:none;stroke-width:0.0334006"
     id="path3026-6-2"
     class="ColorScheme-Text"
     cx="13.413247"
     cy="3.4206927"
     rx="0.59336948"
     ry="0.59951377" />
  <ellipse
     style="display:inline;opacity:0.5;fill:url(#oomox);fill-opacity:1;stroke:none;stroke-width:0.019311"
     id="path3026-4-1-7"
     class="ColorScheme-Text"
     cx="15.608179"
     cy="3.8420439"
     rx="0.3075923"
     ry="0.38658786" />
  <path
     style="display:inline;opacity:0.5;fill:url(#oomox);fill-opacity:1;stroke:none;stroke-width:0.0766906"
     id="path3950-2-5"
     class="ColorScheme-Text"
     d="m 15.452079,4.4103046 c 0,0 -0.07703,0.1345057 -0.243158,0.2151136 -0.06822,0.033086 -0.188015,-0.049929 -0.300449,0.065484 -0.238745,0.484182 0.344465,0.8884254 0.616239,0.8769847 0.271773,-0.011445 0.486182,-0.2881091 0.47486,-0.5283764 -0.01133,-0.3718359 -0.547492,-0.6292059 -0.547492,-0.6292059 z" />
</svg>
