<?xml version="1.0" encoding="UTF-8" standalone="no"?>
<svg
   id="svg30"
   width="48"
   height="48"
   version="1.1"
   viewBox="0 0 48 48"
   xmlns:xlink="http://www.w3.org/1999/xlink"
   xmlns="http://www.w3.org/2000/svg"
   xmlns:svg="http://www.w3.org/2000/svg"
   xmlns:rdf="http://www.w3.org/1999/02/22-rdf-syntax-ns#"
   xmlns:cc="http://creativecommons.org/ns#"
   xmlns:dc="http://purl.org/dc/elements/1.1/">
  <metadata
     id="metadata36">
    <rdf:RDF>
      <cc:Work
         rdf:about="">
        <cc:license
           rdf:resource="http://creativecommons.org/licenses/by-sa/4.0/" />
        <dc:contributor>
          <cc:Agent>
            <dc:title>dreifacherspass</dc:title>
          </cc:Agent>
        </dc:contributor>
      </cc:Work>
      <cc:License
         rdf:about="http://creativecommons.org/licenses/by-sa/4.0/">
        <cc:permits
           rdf:resource="http://creativecommons.org/ns#Reproduction" />
        <cc:permits
           rdf:resource="http://creativecommons.org/ns#Distribution" />
        <cc:requires
           rdf:resource="http://creativecommons.org/ns#Notice" />
        <cc:requires
           rdf:resource="http://creativecommons.org/ns#Attribution" />
        <cc:permits
           rdf:resource="http://creativecommons.org/ns#DerivativeWorks" />
        <cc:requires
           rdf:resource="http://creativecommons.org/ns#ShareAlike" />
      </cc:License>
    </rdf:RDF>
  </metadata>
  <defs
     id="defs34">
    <style
       id="current-color-scheme"
       type="text/css">
      .ColorScheme-Text { color: #0abdc6; } .ColorScheme-Highlight { color:#5294e2; }
     </style>
    <linearGradient
       id="arrongin"
       x1="0%"
       x2="0%"
       y1="0%"
       y2="100%">
      <stop
         offset="0%"
         style="stop-color:#dd9b44; stop-opacity:1"
         id="stop9192" />
      <stop
         offset="100%"
         style="stop-color:#ad6c16; stop-opacity:1"
         id="stop9194" />
    </linearGradient>
    <linearGradient
       id="aurora"
       x1="0%"
       x2="0%"
       y1="0%"
       y2="100%">
      <stop
         offset="0%"
         style="stop-color:#09D4DF; stop-opacity:1"
         id="stop9197" />
      <stop
         offset="100%"
         style="stop-color:#9269F4; stop-opacity:1"
         id="stop9199" />
    </linearGradient>
    <linearGradient
       id="cyberneon"
       x1="0%"
       x2="0%"
       y1="0%"
       y2="100%">
      <stop
         offset="0"
         style="stop-color:#0abdc6; stop-opacity:1"
         id="stop9202" />
      <stop
         offset="1"
         style="stop-color:#ea00d9; stop-opacity:1"
         id="stop9204" />
    </linearGradient>
    <linearGradient
       id="fitdance"
       x1="0%"
       x2="0%"
       y1="0%"
       y2="100%">
      <stop
         offset="0%"
         style="stop-color:#1AD6AB; stop-opacity:1"
         id="stop9207" />
      <stop
         offset="100%"
         style="stop-color:#329DB6; stop-opacity:1"
         id="stop9209" />
    </linearGradient>
    <linearGradient
       id="oomox"
       x1="0%"
       x2="0%"
       y1="0%"
       y2="100%">
      <stop
         offset="0%"
         style="stop-color:#0abdc6; stop-opacity:1"
         id="stop9212" />
      <stop
         offset="100%"
         style="stop-color:#b800ff; stop-opacity:1"
         id="stop9214" />
    </linearGradient>
    <linearGradient
       id="rainblue"
       x1="0%"
       x2="0%"
       y1="0%"
       y2="100%">
      <stop
         offset="0%"
         style="stop-color:#00F260; stop-opacity:1"
         id="stop9217" />
      <stop
         offset="100%"
         style="stop-color:#0575E6; stop-opacity:1"
         id="stop9219" />
    </linearGradient>
    <linearGradient
       id="sunrise"
       x1="0%"
       x2="0%"
       y1="0%"
       y2="100%">
      <stop
         offset="0%"
         style="stop-color: #FF8501; stop-opacity:1"
         id="stop9222" />
      <stop
         offset="100%"
         style="stop-color: #FFCB01; stop-opacity:1"
         id="stop9224" />
    </linearGradient>
    <linearGradient
       id="telinkrin"
       x1="0%"
       x2="0%"
       y1="0%"
       y2="100%">
      <stop
         offset="0%"
         style="stop-color: #b2ced6; stop-opacity:1"
         id="stop9227" />
      <stop
         offset="100%"
         style="stop-color: #6da5b7; stop-opacity:1"
         id="stop9229" />
    </linearGradient>
    <linearGradient
       id="60spsycho"
       x1="0%"
       x2="0%"
       y1="0%"
       y2="100%">
      <stop
         offset="0%"
         style="stop-color: #df5940; stop-opacity:1"
         id="stop9232" />
      <stop
         offset="25%"
         style="stop-color: #d8d15f; stop-opacity:1"
         id="stop9234" />
      <stop
         offset="50%"
         style="stop-color: #e9882a; stop-opacity:1"
         id="stop9236" />
      <stop
         offset="100%"
         style="stop-color: #279362; stop-opacity:1"
         id="stop9238" />
    </linearGradient>
    <linearGradient
       id="90ssummer"
       x1="0%"
       x2="0%"
       y1="0%"
       y2="100%">
      <stop
         offset="0%"
         style="stop-color: #f618c7; stop-opacity:1"
         id="stop9241" />
      <stop
         offset="20%"
         style="stop-color: #94ffab; stop-opacity:1"
         id="stop9243" />
      <stop
         offset="50%"
         style="stop-color: #fbfd54; stop-opacity:1"
         id="stop9245" />
      <stop
         offset="100%"
         style="stop-color: #0f83ae; stop-opacity:1"
         id="stop9247" />
    </linearGradient>
  </defs>
  <path
     style="display:inline;opacity:0.5;fill:url(#oomox);fill-opacity:1;stroke:none;stroke-width:0.191269"
     id="path2996-71-2"
     class="ColorScheme-Text"
     d="m 287.92406,334.62549 -0.0424,1.51824 -11.29671,0.88898 -8.5131,5.52862 -2.01718,9.24185 c 0,0 1.37131,5.97343 2.54145,7.18421 1.17014,1.21079 3.58993,4.6835 6.57581,5.28889 2.98588,0.6054 5.52791,1.28961 7.94889,0.68422 2.42098,-0.6054 4.03685,-1.33097 4.03685,-1.33097 l 1.00859,-0.48443 c 0,0 -0.24822,0.21746 -0.64659,0.49692 4.81772,-3.08945 8.0088,-8.49396 8.0088,-14.64311 0,-5.97531 -3.01336,-11.24541 -7.60437,-14.37342 z"
     transform="matrix(1.1717564,0,0,1.1837458,-301.06171,-386.63989)" />
  <path
     style="display:inline;opacity:0.16;fill:#000000;fill-opacity:1;stroke:none;stroke-width:0.191269"
     id="path2996-71-9-9"
     d="m 287.92692,334.6261 -0.90245,1.23145 -10.43485,1.17167 -8.51641,5.52955 -2.01406,9.24182 c 0,0 1.36984,5.97463 2.53998,7.18542 1.17014,1.21079 3.5882,4.68504 6.57408,5.29043 2.98588,0.6054 5.52767,1.28688 7.94865,0.68149 2.42099,-0.6054 4.04007,-1.3271 4.04007,-1.3271 l 1.01002,-0.4842 c 0,0 -0.25306,0.2167 -0.65143,0.49616 0.54559,-0.34988 1.0702,-0.73481 1.5718,-1.14178 -2.79571,1.75013 -6.20536,2.6299 -8.1399,2.63027 -7.18803,0 -13.01667,-5.82408 -13.01667,-13.01387 0,-2.53818 0.61268,-5.01743 1.85867,-7.03598 0.87747,0.37687 1.80135,1.01761 2.3846,1.95477 0.0938,0.13533 0.15839,0.29047 0.26296,0.41845 0.51488,0.63017 1.07098,0.79321 1.63157,0.81897 1.1979,0.0349 1.76347,-0.85966 1.81683,-2.06236 0.002,-0.0943 0.009,-0.0472 0.002,-0.12977 -0.0379,-0.80153 -1.21885,-3.76303 -3.18151,-4.10258 0.34352,-0.26441 0.70149,-0.51151 1.07575,-0.73528 1.26409,-0.75582 3.94991,-1.61358 7.67374,-1.05211 1.8885,0.28474 3.43578,0.69187 5.82105,1.45263 2.76831,0.88292 4.30672,2.11613 6.43661,2.36126 0.35841,0.0412 0.72021,0.0248 1.06979,-0.0418 -1.16138,-3.84491 -3.61527,-7.12607 -6.86095,-9.33747 z"
     transform="matrix(1.1717564,0,0,1.1837458,-301.06171,-386.63989)" />
  <path
     id="path3970-2-2"
     style="display:inline;fill:url(#oomox);fill-opacity:1;stroke:none;stroke-width:0.191269"
     class="ColorScheme-Text"
     d="M 277.04903 327.04647 C 274.67061 327.04667 272.39076 327.468 270.28001 328.24104 C 269.97841 328.3515 269.67941 328.46954 269.38492 328.59413 C 263.79032 330.96157 259.51657 335.84186 257.97877 341.82015 L 257.97877 341.8218 C 257.57431 343.39471 257.35871 345.04448 257.35871 346.74361 C 257.35871 346.91358 257.36204 347.08107 257.36704 347.25015 C 257.36751 347.23185 257.37037 347.214 257.37037 347.1957 C 257.61226 357.87265 266.3665 366.73986 277.0507 366.74104 C 284.11945 366.9512 290.67752 363.6587 292.83896 358.29493 C 292.25568 358.56417 291.65508 359.0938 291.10212 359.5951 C 288.14298 362.05688 283.28943 362.83682 280.99443 362.83726 C 273.80647 362.83726 267.93144 357.48905 267.93144 350.29926 C 267.93144 347.86372 268.57591 345.77523 269.72829 344.02449 C 270.66072 344.39229 271.50959 344.9803 272.14187 345.99618 C 272.23577 346.13149 272.30238 346.28729 272.40689 346.41527 C 272.92177 347.04543 273.47814 347.20787 274.03873 347.23365 C 275.23664 347.26855 275.80221 346.37392 275.85558 345.17121 C 275.85758 345.07691 275.85428 345.12191 275.84724 345.03921 C 275.80964 344.24385 274.64791 341.32498 272.71526 340.94898 C 273.05685 340.70178 273.41007 340.46355 273.78203 340.24115 C 275.04612 339.48534 277.73069 338.62536 281.45448 339.18683 C 283.34298 339.47156 284.88984 339.87968 287.27507 340.64044 C 290.04336 341.52336 291.58586 342.75639 293.71572 343.00152 C 295.57525 343.21553 297.50621 341.9177 297.45776 339.69996 C 297.40141 340.25638 296.89814 340.8371 296.27264 340.86318 C 295.59141 340.89157 294.12905 339.8884 294.72749 338.68689 C 295.00932 338.40049 295.30991 338.60565 295.4809 338.52355 C 295.89732 338.32352 296.09096 337.99061 296.09096 337.99061 C 296.09096 337.99061 297.25958 338.54608 297.43943 339.36997 C 297.37627 338.78243 297.18275 338.13853 296.81437 337.44448 A 0.77101345 0.95932736 0 0 1 296.48266 337.54018 A 0.77101345 0.95932736 0 0 1 295.71092 336.5799 A 0.77101345 0.95932736 0 0 1 296.48266 335.62128 A 0.77101345 0.95932736 0 0 1 296.56934 335.62623 C 296.57461 335.50986 296.5764 335.51095 296.58101 335.36719 C 296.58201 335.39029 296.58501 335.41349 296.58601 335.43649 C 296.59201 335.26123 296.59434 335.05681 296.59434 334.8491 C 296.59427 334.8304 296.59601 334.8151 296.59601 334.7963 C 296.59597 334.7923 296.59605 334.78825 296.59601 334.78475 C 296.59543 334.71965 296.59134 334.65337 296.58934 334.58676 C 296.58534 334.44087 296.57934 334.29602 296.56934 334.14787 C 296.55804 333.97648 296.54487 333.80757 296.52267 333.64299 C 296.49897 333.46709 296.46676 333.30193 296.42766 333.14635 C 296.42066 333.11905 296.41339 333.0919 296.40599 333.0655 C 296.38969 333.0073 296.37342 332.95069 296.35432 332.89721 C 296.33912 332.85421 296.32131 332.81621 296.30431 332.77676 C 296.29041 332.74466 296.27951 332.70736 296.26431 332.67776 C 296.07271 332.30512 295.90017 332.01261 295.62258 331.71749 C 295.43775 331.52059 295.20528 331.32228 294.88917 331.09876 C 294.415 330.76348 293.75156 330.37054 292.77229 329.83819 C 292.28265 329.57203 291.80331 329.38436 291.34715 329.25411 C 290.8676 329.1172 290.41741 329.04658 290.00534 329.01487 C 289.78294 328.99767 289.57269 328.99197 289.37695 328.99507 C 289.13095 328.99907 288.90364 329.01477 288.70854 329.03797 C 288.70805 329.03803 288.70621 329.03791 288.70521 329.03797 C 288.52381 329.05957 288.36582 329.08612 288.23683 329.11222 C 287.98851 329.16242 287.85311 329.20741 287.84179 329.21121 L 287.83512 329.21451 L 287.83179 329.21451 C 287.83085 329.21373 287.67056 329.07771 287.48509 328.91092 C 287.3392 328.77964 287.17721 328.62972 287.06505 328.50503 C 286.93732 328.36308 286.81793 328.22819 286.68001 328.13214 L 286.67834 328.13214 C 286.57521 328.06054 286.46186 328.00969 286.3283 327.9952 L 286.32664 327.9952 C 286.28244 327.9902 286.23573 327.9879 286.18662 327.9919 C 286.14882 327.9949 286.11113 328.00725 286.07328 328.02655 C 286.05078 328.03765 286.0289 328.05509 286.0066 328.07109 C 285.9893 328.08369 285.97203 328.09394 285.95493 328.10904 C 285.95393 328.10997 285.9526 328.11134 285.9516 328.11234 C 285.8888 328.16864 285.82915 328.24243 285.77158 328.32189 C 285.62571 328.52158 285.50224 328.7606 285.43155 328.91422 C 283.20699 327.86588 280.75206 327.22246 278.16581 327.07782 C 277.79671 327.05715 277.42491 327.04651 277.0507 327.04647 L 277.04903 327.04647 z M 290.98044 334.04722 A 1.4873449 1.4877083 0 0 1 292.46726 335.53548 A 1.4873449 1.4877083 0 0 1 290.98044 337.02209 A 1.4873449 1.4877083 0 0 1 289.49362 335.53548 A 1.4873449 1.4877083 0 0 1 290.98044 334.04722 z "
     transform="matrix(1.1717564,0,0,1.1837458,-301.06171,-386.63989)" />
  <ellipse
     style="display:inline;fill:url(#oomox);fill-opacity:1;stroke:none;stroke-width:0.0833022;opacity:0.5"
     id="path3026-6-2"
     class="ColorScheme-Text"
     cx="290.98047"
     cy="335.535"
     rx="1.487345"
     ry="1.4877083"
     transform="matrix(1.1717564,0,0,1.1837458,-301.06171,-386.63989)" />
  <ellipse
     style="display:inline;fill:url(#oomox);fill-opacity:1;stroke:none;stroke-width:0.0481622;opacity:0.5"
     id="path3026-4-1-7"
     class="ColorScheme-Text"
     cx="296.4823"
     cy="336.5806"
     rx="0.77101344"
     ry="0.95932734"
     transform="matrix(1.1717564,0,0,1.1837458,-301.06171,-386.63989)" />
  <path
     style="display:inline;fill:url(#oomox);fill-opacity:1;stroke:none;stroke-width:0.191269;opacity:0.5"
     id="path3950-2-5"
     class="ColorScheme-Text"
     d="m 296.09102,337.99075 c 0,0 -0.19308,0.33378 -0.6095,0.53381 -0.17099,0.0821 -0.47128,-0.1239 -0.75311,0.1625 -0.59844,1.20151 0.86344,2.20465 1.54467,2.17626 0.68123,-0.0284 1.21867,-0.71495 1.19029,-1.31118 -0.0284,-0.92272 -1.37235,-1.56139 -1.37235,-1.56139 z"
     transform="matrix(1.1717564,0,0,1.1837458,-301.06171,-386.63989)" />
</svg>
