<?xml version="1.0" encoding="UTF-8" standalone="no"?>
<svg
   version="1.0"
   id="Layer_1"
   width="16"
   height="16"
   viewBox="0 0 1.28 1.28"
   enable-background="new 0 0 64 64"
   xml:space="preserve"
   xmlns:xlink="http://www.w3.org/1999/xlink"
   xmlns="http://www.w3.org/2000/svg"
   xmlns:svg="http://www.w3.org/2000/svg"
   xmlns:rdf="http://www.w3.org/1999/02/22-rdf-syntax-ns#"
   xmlns:cc="http://creativecommons.org/ns#"
   xmlns:dc="http://purl.org/dc/elements/1.1/">
  <defs>
   <style id="current-color-scheme" type="text/css">
   .ColorScheme-Text { color: #0abdc6; } .ColorScheme-Highlight { color:#5294e2; }
  </style>
  <linearGradient id="arrongin" x1="0%" x2="0%" y1="0%" y2="100%">
   <stop offset="0%" style="stop-color:#dd9b44; stop-opacity:1"/>
   <stop offset="100%" style="stop-color:#ad6c16; stop-opacity:1"/>
  </linearGradient>
  <linearGradient id="aurora" x1="0%" x2="0%" y1="0%" y2="100%">
   <stop offset="0%" style="stop-color:#09D4DF; stop-opacity:1"/>
   <stop offset="100%" style="stop-color:#9269F4; stop-opacity:1"/>
  </linearGradient>
  <linearGradient id="cyberneon" x1="0%" x2="0%" y1="0%" y2="100%">
    <stop offset="0" style="stop-color:#0abdc6; stop-opacity:1"/>
    <stop offset="1" style="stop-color:#ea00d9; stop-opacity:1"/>
  </linearGradient>
  <linearGradient id="fitdance" x1="0%" x2="0%" y1="0%" y2="100%">
   <stop offset="0%" style="stop-color:#1AD6AB; stop-opacity:1"/>
   <stop offset="100%" style="stop-color:#329DB6; stop-opacity:1"/>
  </linearGradient>
  <linearGradient id="oomox" x1="0%" x2="0%" y1="0%" y2="100%">
   <stop offset="0%" style="stop-color:#0abdc6; stop-opacity:1"/>
   <stop offset="100%" style="stop-color:#b800ff; stop-opacity:1"/>
  </linearGradient>
  <linearGradient id="rainblue" x1="0%" x2="0%" y1="0%" y2="100%">
   <stop offset="0%" style="stop-color:#00F260; stop-opacity:1"/>
   <stop offset="100%" style="stop-color:#0575E6; stop-opacity:1"/>
  </linearGradient>
  <linearGradient id="sunrise" x1="0%" x2="0%" y1="0%" y2="100%">
   <stop offset="0%" style="stop-color: #FF8501; stop-opacity:1"/>
   <stop offset="100%" style="stop-color: #FFCB01; stop-opacity:1"/>
  </linearGradient>
  <linearGradient id="telinkrin" x1="0%" x2="0%" y1="0%" y2="100%">
   <stop offset="0%" style="stop-color: #b2ced6; stop-opacity:1"/>
   <stop offset="100%" style="stop-color: #6da5b7; stop-opacity:1"/>
  </linearGradient>
  <linearGradient id="60spsycho" x1="0%" x2="0%" y1="0%" y2="100%">
   <stop offset="0%" style="stop-color: #df5940; stop-opacity:1"/>
   <stop offset="25%" style="stop-color: #d8d15f; stop-opacity:1"/>
   <stop offset="50%" style="stop-color: #e9882a; stop-opacity:1"/>
   <stop offset="100%" style="stop-color: #279362; stop-opacity:1"/>
  </linearGradient>
  <linearGradient id="90ssummer" x1="0%" x2="0%" y1="0%" y2="100%">
   <stop offset="0%" style="stop-color: #f618c7; stop-opacity:1"/>
   <stop offset="20%" style="stop-color: #94ffab; stop-opacity:1"/>
   <stop offset="50%" style="stop-color: #fbfd54; stop-opacity:1"/>
   <stop offset="100%" style="stop-color: #0f83ae; stop-opacity:1"/>
  </linearGradient>
 </defs>
<path
   d="m 56,64 c 2.211,0 4,-1.789 4,-4 V 51.414 L 47.414,64 Z"
   id="path1"
   class="ColorScheme-Text"
   style="fill:url(#oomox)"
   transform="scale(0.02)" />
<path
   d="m 4,60 c 0,2.211 1.789,4 4,4 h 8.586 L 4,51.414 Z"
   id="path2"
   class="ColorScheme-Text"
   style="fill:url(#oomox)"
   transform="scale(0.02)" />
<path
   d="m 0.42,0.472 h 0.44 c 0.01106,0 0.02,-0.00894 0.02,-0.02 0,-0.01106 -0.00894,-0.02 -0.02,-0.02 H 0.42 c -0.01106,0 -0.02,0.00894 -0.02,0.02 0,0.01106 0.00894,0.02 0.02,0.02 z"
   id="path3"
   class="ColorScheme-Text"
   style="fill:url(#oomox);stroke-width:0.02" />
<path
   d="M 60,0 H 4 C 1.789,0 0,1.789 0,4 v 8 c 0,2.211 1.789,4 4,4 h 56 c 2.211,0 4,-1.789 4,-4 V 4 C 64,1.789 62.211,0 60,0 Z"
   id="path4"
   class="ColorScheme-Text"
   transform="scale(0.02)"
   style="fill:url(#oomox)" />
<path
   id="path5"
   style="opacity:0.4;fill:url(#oomox)"
   class="ColorScheme-Text"
   d="M 4,18 V 48.585938 L 19.414062,64 H 44.585938 L 60,48.585938 V 18 Z m 17,1.359375 h 22 c 1.656998,0 3,1.344002 3,3 0,1.655998 -1.343002,3 -3,3 H 21 c -1.656998,0 -3,-1.344002 -3,-3 0,-1.655998 1.343002,-3 3,-3 z"
   transform="scale(0.02)" />
<metadata
   id="metadata5"><rdf:RDF><cc:Work
       rdf:about=""><dc:creator><cc:Agent><dc:title>dreifacherspass</dc:title></cc:Agent></dc:creator><cc:license
         rdf:resource="http://creativecommons.org/licenses/by-sa/4.0/" /></cc:Work><cc:License
       rdf:about="http://creativecommons.org/licenses/by-sa/4.0/"><cc:permits
         rdf:resource="http://creativecommons.org/ns#Reproduction" /><cc:permits
         rdf:resource="http://creativecommons.org/ns#Distribution" /><cc:requires
         rdf:resource="http://creativecommons.org/ns#Notice" /><cc:requires
         rdf:resource="http://creativecommons.org/ns#Attribution" /><cc:permits
         rdf:resource="http://creativecommons.org/ns#DerivativeWorks" /><cc:requires
         rdf:resource="http://creativecommons.org/ns#ShareAlike" /></cc:License></rdf:RDF></metadata>

  <path
   id="path831-0"
   d="m 0.65586097,0.82251135 c -0.0166853,-0.0157257 -0.0284125,-0.0366227 -0.0332634,-0.059012 -0.004853,-0.0224429 -0.002717,-0.0462713 0.005974,-0.0675413 0.008691,-0.0212168 0.0239348,-0.0396608 0.043072,-0.0522419 0.0191902,-0.0126337 0.0422189,-0.0192439 0.065141,-0.0187642 0.0216427,4.265e-4 0.043125,0.0072 0.0611426,0.0191907 0.0179642,0.0119943 0.0324636,0.0292129 0.041206,0.0490434 L 1.0233601,0.73412585 H 0.80170888 c -0.0123672,-0.0203638 -0.0335832,-0.0351297 -0.0569851,-0.0395543 -0.0160984,-0.003095 -0.0330498,-0.001387 -0.0481892,0.004797 -0.015139,0.006184 -0.0284657,0.0168454 -0.0377945,0.0302789 -0.009328,0.0134867 -0.0147125,0.0296394 -0.0151922,0.0460047 -5.3316e-4,0.0163657 0.003838,0.032891 0.012314,0.0468576"
   style="opacity:0.8;fill:#000000;fill-opacity:1;stroke-width:0.036391" />
  <path
   id="path833-9"
   d="m 0.40926503,0.66589192 c -0.0262268,0.0270805 -0.0412594,0.064663 -0.0409393,0.10235135 3.2023e-4,0.0382217 0.0164717,0.0760706 0.043818,0.10277785 0.0273464,0.0267072 0.0655669,0.0419533 0.10378799,0.04142 -0.0210026,-0.002878 -0.0409393,-0.0131673 -0.0554922,-0.0286263 -0.0145562,-0.0154062 -0.0236147,-0.0359296 -0.0252675,-0.0570395 -0.001548,-0.0204702 0.003838,-0.0413669 0.0150326,-0.0585324 L 0.67537365,0.8910661 Z"
   style="opacity:0.8;fill:#000000;fill-opacity:1;stroke-width:0.036391" />
  <path
   id="path835-3"
   d="m 0.38879515,0.87059478 c -0.007087,0.0270805 -0.004902,0.0564533 0.006079,0.0822009 0.0110346,0.025694 0.0308111,0.047551 0.0553323,0.061089 0.0187105,0.010347 0.0400302,0.015834 0.0614093,0.015834 0.0213759,0 0.0426985,-0.00547 0.0614091,-0.015834 -0.0172182,0.00156 -0.0347557,-0.00124 -0.0505882,-0.00818 -0.0158323,-0.00689 -0.0299048,-0.017858 -0.0404598,-0.031508 -0.0121537,-0.015778 -0.0196699,-0.03513 -0.0212162,-0.0549607 l 0.19414199,0.033265 z"
   style="opacity:0.8;fill:#000000;fill-opacity:1;stroke-width:0.036391" />
  <path
   id="path837-6"
   d="m 0.77852025,0.8023617 c -0.0114079,0.0134869 -0.0188706,0.0302788 -0.0212695,0.0477638 -0.002241,0.0165253 0,0.033424 0.00437,0.0495232 0.00437,0.0160456 0.0108746,0.0315051 0.0172714,0.0469113 0.006393,0.015406 0.0127405,0.030865 0.0168982,0.047018 0.004104,0.016149 0.005974,0.03316 0.003201,0.049575 -0.004636,0.027509 -0.0221756,0.051978 -0.0450438,0.067916 -0.0228685,0.015939 -0.0507479,0.023829 -0.078574,0.025638 -0.035129,0.00232 -0.0707914,-0.00489 -0.10234881,-0.02047 L 0.57382533,1.28 0.61476503,1.198547 c 0.0541065,0.015834 0.11460926,0.00803 0.16295826,-0.020898 0.0244145,-0.014609 0.0458437,-0.034491 0.0607698,-0.058693 0.0149794,-0.024203 0.0232414,-0.05272 0.0219088,-0.081083 -0.001919,-0.040463 -0.0225489,-0.07735 -0.042272,-0.11269345 -0.0197768,-0.0353435 -0.0396603,-0.0728186 -0.0399268,-0.1133331 0,-0.003144 1.0554e-4,-0.006345 3.2026e-4,-0.009489"
   style="opacity:0.8;fill:#000000;fill-opacity:1;stroke-width:0.036391" />
  <path
   id="path831"
     class="ColorScheme-Text"
   d="m 0.61410031,0.77082236 c -0.0166852,-0.0157257 -0.0284124,-0.0366228 -0.0332634,-0.059012 -0.004853,-0.0224427 -0.002717,-0.0462713 0.005974,-0.0675413 0.008691,-0.0212168 0.0239348,-0.0396609 0.043072,-0.0522419 0.0191902,-0.0126339 0.0422189,-0.019244 0.0651407,-0.0187642 0.0216427,4.2652e-4 0.043125,0.0072 0.0611426,0.0191907 0.017964,0.0119944 0.0324636,0.0292129 0.041206,0.0490433 l 0.18422911,0.0409397 h -0.2216536 c -0.0123672,-0.0203638 -0.0335834,-0.0351297 -0.0569847,-0.0395543 -0.0160984,-0.003088 -0.0330501,-0.001387 -0.0481892,0.004797 -0.015139,0.006184 -0.0284657,0.0168454 -0.0377945,0.0302789 -0.009328,0.0134867 -0.0147125,0.0296394 -0.0151922,0.0460047 -5.3313e-4,0.0163657 0.003838,0.032891 0.012314,0.0468578"
   style="fill:url(#oomox);stroke-width:0.036391" />
<path
   id="path833"
   class="ColorScheme-Text"
   d="m 0.36750442,0.61420293 c -0.0262268,0.0270805 -0.0412594,0.0646629 -0.0409393,0.10235146 3.2018e-4,0.0382217 0.0164717,0.0760706 0.0438179,0.10277785 0.0273464,0.0267072 0.0655669,0.0419533 0.10378809,0.04142 -0.0210026,-0.002878 -0.0409393,-0.0131673 -0.0554922,-0.0286264 -0.0145562,-0.0154062 -0.0236147,-0.0359296 -0.0252675,-0.0570396 -0.001548,-0.0204702 0.003838,-0.0413669 0.0150326,-0.0585324 l 0.22516895,0.12282329 z"
   style="fill:url(#oomox);stroke-width:0.036391" />
<path
   id="path835"
   class="ColorScheme-Text"
   d="m 0.34703451,0.81890575 c -0.007087,0.0270805 -0.004902,0.0564534 0.006079,0.0822011 0.0110346,0.0256946 0.0308111,0.0475505 0.0553323,0.0610907 0.0187105,0.010347 0.0400302,0.015833 0.0614094,0.015833 0.0213759,0 0.0426985,-0.00547 0.0614093,-0.015833 -0.0172182,0.00156 -0.0347558,-0.00125 -0.0505882,-0.0082 -0.0158323,-0.00688 -0.0299048,-0.017858 -0.0404598,-0.0315053 -0.0121537,-0.0157793 -0.0196699,-0.03513 -0.0212162,-0.0549606 l 0.194142,0.0332649 z"
   style="fill:url(#oomox);stroke-width:0.036391" />
<path
   id="path837"
   class="ColorScheme-Text"
   d="m 0.73675959,0.75067269 c -0.0114079,0.0134869 -0.0188705,0.0302788 -0.0212695,0.0477637 -0.002241,0.0165253 0,0.0334243 0.00437,0.0495231 0.00437,0.0160456 0.0108748,0.031505 0.0172714,0.0469114 0.006393,0.0154062 0.0127405,0.0308655 0.0168982,0.0470179 0.004104,0.016153 0.005974,0.033157 0.003201,0.049576 -0.004636,0.027509 -0.0221756,0.051977 -0.0450437,0.067916 -0.0228685,0.015939 -0.0507479,0.023832 -0.078574,0.025638 -0.035129,0.00232 -0.0707914,-0.00489 -0.1023488,-0.02047 l 8.0059e-4,0.1637631 0.0409397,-0.081453 c 0.0541065,0.015834 0.11460926,0.00803 0.16295825,-0.020898 0.0244145,-0.014609 0.0458437,-0.034491 0.0607698,-0.058693 0.0149794,-0.024203 0.0232414,-0.05272 0.0219088,-0.081083 -0.001919,-0.040461 -0.0225489,-0.0773502 -0.042272,-0.11269349 -0.0197769,-0.0353434 -0.0396602,-0.0728187 -0.0399268,-0.1133331 0,-0.003144 1.0553e-4,-0.006345 3.2023e-4,-0.009489"
   style="fill:url(#oomox);stroke-width:0.036391" />
</svg>
