<?xml version="1.0" encoding="UTF-8" standalone="no"?>
<svg
   width="16"
   height="16"
   version="1"
   id="svg8"
   xmlns:xlink="http://www.w3.org/1999/xlink"
   xmlns="http://www.w3.org/2000/svg"
   xmlns:svg="http://www.w3.org/2000/svg"
   xmlns:rdf="http://www.w3.org/1999/02/22-rdf-syntax-ns#"
   xmlns:cc="http://creativecommons.org/ns#"
   xmlns:dc="http://purl.org/dc/elements/1.1/">
   <defs>
      <style id="current-color-scheme" type="text/css">
         .ColorScheme-Text { color: #0abdc6; } .ColorScheme-Highlight { color:#5294e2; }
      </style>
      <linearGradient id="arrongin" x1="0%" x2="0%" y1="0%" y2="100%">
         <stop offset="0%" style="stop-color:#dd9b44; stop-opacity:1"/>
         <stop offset="100%" style="stop-color:#ad6c16; stop-opacity:1"/>
      </linearGradient>
      <linearGradient id="aurora" x1="0%" x2="0%" y1="0%" y2="100%">
         <stop offset="0%" style="stop-color:#09D4DF; stop-opacity:1"/>
         <stop offset="100%" style="stop-color:#9269F4; stop-opacity:1"/>
      </linearGradient>
      <linearGradient id="cyberneon" x1="0%" x2="0%" y1="0%" y2="100%">
         <stop offset="0" style="stop-color:#0abdc6; stop-opacity:1"/>
         <stop offset="1" style="stop-color:#ea00d9; stop-opacity:1"/>
      </linearGradient>
      <linearGradient id="fitdance" x1="0%" x2="0%" y1="0%" y2="100%">
         <stop offset="0%" style="stop-color:#1AD6AB; stop-opacity:1"/>
         <stop offset="100%" style="stop-color:#329DB6; stop-opacity:1"/>
      </linearGradient>
      <linearGradient id="oomox" x1="0%" x2="0%" y1="0%" y2="100%">
         <stop offset="0%" style="stop-color:#0abdc6; stop-opacity:1"/>
         <stop offset="100%" style="stop-color:#b800ff; stop-opacity:1"/>
      </linearGradient>
      <linearGradient id="rainblue" x1="0%" x2="0%" y1="0%" y2="100%">
         <stop offset="0%" style="stop-color:#00F260; stop-opacity:1"/>
         <stop offset="100%" style="stop-color:#0575E6; stop-opacity:1"/>
      </linearGradient>
      <linearGradient id="sunrise" x1="0%" x2="0%" y1="0%" y2="100%">
         <stop offset="0%" style="stop-color: #FF8501; stop-opacity:1"/>
         <stop offset="100%" style="stop-color: #FFCB01; stop-opacity:1"/>
      </linearGradient>
      <linearGradient id="telinkrin" x1="0%" x2="0%" y1="0%" y2="100%">
         <stop offset="0%" style="stop-color: #b2ced6; stop-opacity:1"/>
         <stop offset="100%" style="stop-color: #6da5b7; stop-opacity:1"/>
      </linearGradient>
      <linearGradient id="60spsycho" x1="0%" x2="0%" y1="0%" y2="100%">
         <stop offset="0%" style="stop-color: #df5940; stop-opacity:1"/>
         <stop offset="25%" style="stop-color: #d8d15f; stop-opacity:1"/>
         <stop offset="50%" style="stop-color: #e9882a; stop-opacity:1"/>
         <stop offset="100%" style="stop-color: #279362; stop-opacity:1"/>
      </linearGradient>
      <linearGradient id="90ssummer" x1="0%" x2="0%" y1="0%" y2="100%">
         <stop offset="0%" style="stop-color: #f618c7; stop-opacity:1"/>
         <stop offset="20%" style="stop-color: #94ffab; stop-opacity:1"/>
         <stop offset="50%" style="stop-color: #fbfd54; stop-opacity:1"/>
         <stop offset="100%" style="stop-color: #0f83ae; stop-opacity:1"/>
      </linearGradient>
   </defs>
  <path
     d="m 6.854252,6.19055 h -7.489e-4 c -0.4991044,0 -0.9055517,-0.4058938 -0.9060753,-0.9046541 -7.489e-4,-0.5004208 0.4057743,-0.9068981 0.9053274,-0.9074217 0.4998597,0 0.9062247,0.4058942 0.9068232,0.9046544 0,0.5004205 -0.4057744,0.9069727 -0.9053274,0.9074963 z"
     id="bubble_1"
     class="ColorScheme-Text"
     style="font-variation-settings:normal;opacity:1;fill:url(#oomox);fill-opacity:1;stroke-width:0.0748936;stroke-linecap:butt;stroke-linejoin:miter;stroke-miterlimit:4;stroke-dasharray:none;stroke-dashoffset:0;stroke-opacity:1;enable-background:new;stop-color:#000000;stop-opacity:1" />
  <path
     d="m 9.3015676,5.5256161 c -0.4660443,0 -0.845341,-0.37893 -0.8457151,-0.8445931 -7.49e-4,-0.4668749 0.3785563,-0.8463881 0.8448926,-0.8467622 0.4666653,0 0.8460139,0.3788476 0.8464629,0.8445185 0,0.4668746 -0.3786306,0.8463881 -0.8448921,0.8469117 h -7.49e-4 z"
     id="bubble_2"
     class="ColorScheme-Text"
     style="font-variation-settings:normal;opacity:1;fill:url(#oomox);fill-opacity:1;stroke-width:0.0748936;stroke-linecap:butt;stroke-linejoin:miter;stroke-miterlimit:4;stroke-dasharray:none;stroke-dashoffset:0;stroke-opacity:1;enable-background:new;stop-color:#000000;stop-opacity:1" />
  <path
     id="bubble_3"
     style="opacity:1;fill:url(#oomox);stroke-width:0.0748936;enable-background:new;stop-color:#000000;stop-opacity:1"
     class="ColorScheme-Text"
     d="M 8.6050702,3.1109137 A 0.75509266,0.75509266 0 0 1 7.8499774,3.8660065 0.75509266,0.75509266 0 0 1 7.0948849,3.1109137 0.75509266,0.75509266 0 0 1 7.8499774,2.3558211 0.75509266,0.75509266 0 0 1 8.6050702,3.1109137 Z" />
  <path
     id="bubble_4"
     style="opacity:1;fill:url(#oomox);stroke-width:0.0748936;enable-background:new;stop-color:#000000;stop-opacity:1"
     class="ColorScheme-Text"
     d="M 9.7529852,1.842427 A 0.69466631,0.69466631 0 0 1 9.0583189,2.5370933 0.69466631,0.69466631 0 0 1 8.3636526,1.842427 0.69466631,0.69466631 0 0 1 9.0583189,1.1477607 0.69466631,0.69466631 0 0 1 9.7529852,1.842427 Z" />
  <path
     id="bubble_5"
     style="opacity:1;fill:url(#oomox);stroke-width:0.0748936;enable-background:new;stop-color:#000000;stop-opacity:1"
     class="ColorScheme-Text"
     d="M 8.1539083,0.60405578 A 0.60405578,0.60405578 0 0 1 7.5498524,1.2081116 0.60405578,0.60405578 0 0 1 6.9457965,0.60405578 0.60405578,0.60405578 0 0 1 7.5498524,0 0.60405578,0.60405578 0 0 1 8.1539083,0.60405578 Z" />
  <path
     d="M 4.3297742,7.0065633 C 3.5481592,8.0200453 2.9138915,9.1591841 2.9138915,10.539913 2.9138915,13.53219 5.1845396,16 7.9999998,16 c 2.8153112,0 5.0861092,-2.467735 5.0861092,-5.460087 0,-1.3808038 -0.634934,-2.4841152 -1.460761,-3.5331999 C 11.315679,6.6817555 10.868565,6.7300738 10.543129,6.9380088 9.590755,7.4308078 9.0766842,7.6276926 7.9999998,7.6228755 6.9586939,7.6182083 6.4115633,7.4481528 5.4591895,6.928966 5.1337236,6.730069 4.6391295,6.681751 4.329475,7.0067087 Z m 0.6783974,0.8407041 c 0.9871538,0.5458217 1.8675739,0.8227527 2.9918282,0.8227527 1.1252267,0 2.0041512,-0.276931 2.9918292,-0.8227527 0.53894,0.7599241 1.047139,1.7022006 1.047139,2.6926456 0,2.453374 -1.808186,4.412947 -4.0389682,4.412947 -2.2308566,0 -4.0389684,-1.959573 -4.0389684,-4.412947 0,-0.9891735 0.5070254,-1.932123 1.0471402,-2.6926456 z"
     id="cauldron"
     class="ColorScheme-Text"
     style="display:inline;fill:url(#oomox);stroke-width:0.0748936;stroke-dasharray:none;enable-background:new" />
  <metadata
     id="metadata12">
    <rdf:RDF>
      <cc:Work
         rdf:about="">
        <dc:creator>
          <cc:Agent>
            <dc:title>dreifacherspass</dc:title>
          </cc:Agent>
        </dc:creator>
        <cc:license
           rdf:resource="http://creativecommons.org/licenses/by-sa/4.0/" />
      </cc:Work>
      <cc:License
         rdf:about="http://creativecommons.org/licenses/by-sa/4.0/">
        <cc:permits
           rdf:resource="http://creativecommons.org/ns#Reproduction" />
        <cc:permits
           rdf:resource="http://creativecommons.org/ns#Distribution" />
        <cc:requires
           rdf:resource="http://creativecommons.org/ns#Notice" />
        <cc:requires
           rdf:resource="http://creativecommons.org/ns#Attribution" />
        <cc:permits
           rdf:resource="http://creativecommons.org/ns#DerivativeWorks" />
        <cc:requires
           rdf:resource="http://creativecommons.org/ns#ShareAlike" />
      </cc:License>
    </rdf:RDF>
  </metadata>
  <path
     d="m 7.9990793,9.1941277 h 0.00184 c 1.5328058,0 2.7764887,1.2413873 2.7764887,2.7764873 v 0.02594 c 0,1.532806 -1.2413888,2.776488 -2.7764882,2.776488 h -0.00184 c -1.5328046,0 -2.7764878,-1.241388 -2.7764878,-2.776488 v -0.02594 c 0,-1.532805 1.2413888,-2.7764873 2.7764878,-2.7764873"
     style="display:inline;opacity:0.4;fill:url(#oomox);stroke-width:0.229462"
     id="path9"
     class="ColorScheme-Text" />
  <path
     d="m 5.3602689,12.131239 c 0.00158,-0.125518 0.043826,-0.175309 0.1558045,-0.09477 0.1206966,0.04337 0.2363454,0.0959 0.3189521,0.196419 0.061727,0.08328 0.1500678,0.110826 0.250113,0.113595 0.055529,0.121848 -0.1977959,0.3832 -0.1415777,0.582831 0.041075,0.300596 0.3923793,0.424505 0.4543342,0.697564 -0.004,0.12529 0.010666,0.247819 0.049792,0.36714 -0.1670483,0.247819 0.1282688,0.493343 0.3579602,0.461217 -0.022369,-0.108527 0.053462,-0.211333 0.14066,-0.282237 0.09431,-0.04175 0.1266634,-0.126432 0.1436435,-0.221889 0.031437,-0.09569 0.0335,-0.21317 0.1452493,-0.250113 0.1994021,-0.06724 0.1578695,-0.293712 0.1785211,-0.458925 L 7.5493329,12.85658 C 7.3595682,12.81184 7.1684264,12.67324 7.0215708,12.606467 c 0.00133,-0.111754 -0.065626,-0.170259 -0.1663599,-0.202385 -0.104404,0.02869 -0.078935,-0.09041 -0.1099124,-0.185175 -0.082146,-0.04475 -0.2205123,0.0046 -0.305184,-0.06792 -0.1344643,-0.14479 -0.2569972,0.04865 -0.3464872,0.110598 -0.06356,0.03305 -0.1193202,-0.175308 -0.117484,-0.03969 -0.067463,-0.06585 -0.058741,-0.369435 -0.1764564,-0.236347 -0.027992,-0.116567 0.10647,-0.335014 -0.1046336,-0.205827 -0.078017,0.09316 -0.105782,-0.134236 -0.159935,-0.192977 -0.021774,0.126204 -0.033729,0.339604 -0.054843,0.09431 -0.00557,-0.236344 0.2845328,-0.335013 0.4818698,-0.300594 -0.00674,0.09407 0.1874708,0.220514 0.1335471,0.01031 0.06815,-0.161081 0.2193652,-0.270763 0.2845327,-0.435975 0.1450191,-0.163412 0.3694329,-0.200353 0.5392347,-0.328164 -0.06425,-0.125746 -0.4245044,-0.01813 -0.1523625,-0.1067 0.1617706,-0.01743 0.4864589,-0.107842 0.2569972,-0.291416 -0.081688,-0.159246 -0.2218897,-0.04842 -0.2074335,-0.190912 -0.09798,-0.071362 -0.1665895,-0.062181 -0.1929772,0.06357 -0.044054,0.125061 -0.1390543,0.2173 -0.2202835,0.318951 C 6.4254271,10.230359 5.9444766,10.214526 6.2664111,10.020861 6.3588841,9.973143 6.5165248,9.8152628 6.4768275,9.946059 6.6369918,9.999517 6.7521818,9.5972772 6.8577343,9.799433 6.9281793,9.9208115 7.335015,9.862998 7.0917858,9.784297 7.0915658,9.5770926 6.6718705,9.6792098 6.9653522,9.5718142 c 0.084442,-0.015212 0.207204,-0.1477723 0.263881,-0.07733 0.1551164,0.09936 0.2615864,0.2223479 0.1459379,0.3946755 0.044745,0.1794373 0.1363002,0.2707633 0.2363457,0.08604 C 7.729917,9.7663721 8.0383138,9.8441607 8.1599285,9.6401685 8.1481806,9.5075396 8.3563478,9.3510464 8.3496935,9.3579307 8.21477,9.3686694 8.1929709,9.3434046 8.2308321,9.298048 8.0048124,9.1323761 7.6824185,9.2101636 7.420832,9.2406823 6.6268938,9.390521 5.9339197,9.9175948 5.5346557,10.615159 5.335942,10.963941 5.2409448,11.358615 5.2455342,11.762468 c 0.057366,0.132629 0.1273509,0.212022 0.1096825,0.371727 M 9.2560674,9.656009 C 9.1007218,9.6922613 8.9990703,9.7707339 8.9187589,9.9061223 8.7875064,9.9368765 8.7179794,10.225074 8.8687332,10.174593 c 0.1204669,-0.137906 0.2363455,0.236345 0.2661753,-0.0358 -0.033272,-0.1922892 0.2914168,-0.3946752 0.073199,-0.1608519 -0.036941,-0.019707 0.059661,0.1135819 0.037633,0.046118 0.026389,-0.1876994 0.050026,0.263882 -0.088802,0.270765 -0.1346944,0.09269 -0.200779,-0.053 -0.245524,-0.05851 0.00354,0.111297 -0.08513,0.14915 -0.1750795,0.111525 -0.00918,-0.118636 -0.2432297,-0.344194 -0.1844874,-0.114039 0.047498,0.194813 0.00503,0.04176 -0.1379066,0.05691 -0.018586,0.09018 0.1167958,0.231755 0.05943,0.148461 0.05507,-0.146627 0.073428,-0.06701 0.08536,0.04657 0.088342,-0.0038 0.1941246,-0.01517 0.016498,0.02775 0.012647,0.07297 -0.103028,0.039 0.00255,0.150756 0.111059,0.130564 -0.3120681,0.08055 -0.1961899,0.325836 0.1239091,0.293712 0.3396032,-0.186324 0.5346462,-0.226249 0.1452491,-0.01706 0.1684252,0.406148 0.2707649,0.129416 -0.076641,-0.309773 0.1704898,0.35796 0.1943541,0.07273 0.060345,-0.184026 0.2058273,0.163836 0.3740236,0.134466 0.122991,0.120921 -0.250114,0.231757 -0.3648451,0.116565 -0.1418058,0.03856 -0.2129392,0.07481 -0.3258344,-0.05829 -0.1360707,-0.136529 -0.3671391,-0.09753 -0.5323515,-0.05599 -0.1236794,0.113126 -0.4153259,0.39697 -0.4130314,0.676914 -0.018863,0.132399 -0.1053226,0.266174 -0.00135,0.390084 0.1062403,0.245525 0.3189518,0.403854 0.5598865,0.277649 0.2363461,-0.119321 0.3556658,0.109684 0.318952,0.309773 0.083754,0.184947 0.1399723,0.385497 0.097292,0.587423 -0.039009,0.174162 0.00668,0.346488 0.072511,0.507111 0.050254,0.202845 0.051858,0.435977 0.3074788,0.263881 0.1429546,-0.05943 0.2592915,-0.177374 0.2868277,-0.332719 0.1184024,-0.06631 0.026392,-0.181964 0.067915,-0.270767 0.2914165,-0.09523 0.2083505,-0.3832 0.2010085,-0.617252 0.04681,-0.26847 0.364843,-0.491047 0.323541,-0.754929 -0.309774,0.06929 0.02387,-0.144791 0.123909,-0.243228 0.144101,-0.108999 0.08512,-0.431389 -0.06494,-0.245524 -0.07136,-0.07436 -0.254703,-0.37632 -0.04383,-0.20927 0.156721,0.07366 0.424504,0.325836 0.364844,-0.01662 C 10.591338,10.814938 10.274452,10.227516 9.7788151,9.8374318 9.6555936,9.7162691 9.4415062,9.7628574 9.2487578,9.6561563"
     style="display:inline;fill:url(#oomox);stroke-width:0.229462"
     id="path10"
     class="ColorScheme-Text" />
</svg>
