<?xml version="1.0" encoding="UTF-8" standalone="no"?>
<!-- Created with Inkscape (http://www.inkscape.org/) -->

<svg
   width="16"
   height="16"
   id="svg3408"
   version="1.0"
   xmlns:xlink="http://www.w3.org/1999/xlink"
   xmlns="http://www.w3.org/2000/svg"
   xmlns:svg="http://www.w3.org/2000/svg"
   xmlns:rdf="http://www.w3.org/1999/02/22-rdf-syntax-ns#"
   xmlns:cc="http://creativecommons.org/ns#"
   xmlns:dc="http://purl.org/dc/elements/1.1/">
   <defs>
      <style id="current-color-scheme" type="text/css">
         .ColorScheme-Text { color: #0abdc6; } .ColorScheme-Highlight { color:#5294e2; }
      </style>
      <linearGradient id="arrongin" x1="0%" x2="0%" y1="0%" y2="100%">
         <stop offset="0%" style="stop-color:#dd9b44; stop-opacity:1"/>
         <stop offset="100%" style="stop-color:#ad6c16; stop-opacity:1"/>
      </linearGradient>
      <linearGradient id="aurora" x1="0%" x2="0%" y1="0%" y2="100%">
         <stop offset="0%" style="stop-color:#09D4DF; stop-opacity:1"/>
         <stop offset="100%" style="stop-color:#9269F4; stop-opacity:1"/>
      </linearGradient>
      <linearGradient id="cyberneon" x1="0%" x2="0%" y1="0%" y2="100%">
         <stop offset="0" style="stop-color:#0abdc6; stop-opacity:1"/>
         <stop offset="1" style="stop-color:#ea00d9; stop-opacity:1"/>
      </linearGradient>
      <linearGradient id="fitdance" x1="0%" x2="0%" y1="0%" y2="100%">
         <stop offset="0%" style="stop-color:#1AD6AB; stop-opacity:1"/>
         <stop offset="100%" style="stop-color:#329DB6; stop-opacity:1"/>
      </linearGradient>
      <linearGradient id="oomox" x1="0%" x2="0%" y1="0%" y2="100%">
         <stop offset="0%" style="stop-color:#0abdc6; stop-opacity:1"/>
         <stop offset="100%" style="stop-color:#b800ff; stop-opacity:1"/>
      </linearGradient>
      <linearGradient id="rainblue" x1="0%" x2="0%" y1="0%" y2="100%">
         <stop offset="0%" style="stop-color:#00F260; stop-opacity:1"/>
         <stop offset="100%" style="stop-color:#0575E6; stop-opacity:1"/>
      </linearGradient>
      <linearGradient id="sunrise" x1="0%" x2="0%" y1="0%" y2="100%">
         <stop offset="0%" style="stop-color: #FF8501; stop-opacity:1"/>
         <stop offset="100%" style="stop-color: #FFCB01; stop-opacity:1"/>
      </linearGradient>
      <linearGradient id="telinkrin" x1="0%" x2="0%" y1="0%" y2="100%">
         <stop offset="0%" style="stop-color: #b2ced6; stop-opacity:1"/>
         <stop offset="100%" style="stop-color: #6da5b7; stop-opacity:1"/>
      </linearGradient>
      <linearGradient id="60spsycho" x1="0%" x2="0%" y1="0%" y2="100%">
         <stop offset="0%" style="stop-color: #df5940; stop-opacity:1"/>
         <stop offset="25%" style="stop-color: #d8d15f; stop-opacity:1"/>
         <stop offset="50%" style="stop-color: #e9882a; stop-opacity:1"/>
         <stop offset="100%" style="stop-color: #279362; stop-opacity:1"/>
      </linearGradient>
      <linearGradient id="90ssummer" x1="0%" x2="0%" y1="0%" y2="100%">
         <stop offset="0%" style="stop-color: #f618c7; stop-opacity:1"/>
         <stop offset="20%" style="stop-color: #94ffab; stop-opacity:1"/>
         <stop offset="50%" style="stop-color: #fbfd54; stop-opacity:1"/>
         <stop offset="100%" style="stop-color: #0f83ae; stop-opacity:1"/>
      </linearGradient>
   </defs>
  <metadata
     id="metadata3413">
    <rdf:RDF>
      <cc:Work
         rdf:about="">
        <dc:format>image/svg+xml</dc:format>
        <dc:type
           rdf:resource="http://purl.org/dc/dcmitype/StillImage" />
        <dc:creator>
          <cc:Agent>
            <dc:title>dreifacherspass</dc:title>
          </cc:Agent>
        </dc:creator>
        <cc:license
           rdf:resource="http://creativecommons.org/licenses/by-sa/4.0/" />
      </cc:Work>
      <cc:License
         rdf:about="http://creativecommons.org/licenses/by-sa/4.0/">
        <cc:permits
           rdf:resource="http://creativecommons.org/ns#Reproduction" />
        <cc:permits
           rdf:resource="http://creativecommons.org/ns#Distribution" />
        <cc:requires
           rdf:resource="http://creativecommons.org/ns#Notice" />
        <cc:requires
           rdf:resource="http://creativecommons.org/ns#Attribution" />
        <cc:permits
           rdf:resource="http://creativecommons.org/ns#DerivativeWorks" />
        <cc:requires
           rdf:resource="http://creativecommons.org/ns#ShareAlike" />
      </cc:License>
    </rdf:RDF>
  </metadata>
  <path
     id="path345"
     class="ColorScheme-Text"
     style="opacity:1;fill:url(#oomox);fill-opacity:1;stroke:none;stroke-width:0.137931;stroke-linecap:round;stroke-linejoin:round;stroke-miterlimit:4;stroke-dasharray:none;stroke-dashoffset:0;stroke-opacity:1"
     d="M 0.828125 0 L 0.55078125 0.55078125 L 0 1.6542969 L 0.55078125 1.6542969 L 0.55078125 3.8613281 L 0 3.8613281 L 0 4.4140625 L 0.55078125 4.4140625 L 0.55078125 6.6210938 L 0 6.6210938 L 0 7.171875 L 0.55078125 7.171875 L 0.55078125 9.3789062 L 0 9.3789062 L 0 9.9316406 L 0.55078125 9.9316406 L 0.55078125 12.138672 L 0 12.138672 L 0 12.689453 L 0.55078125 12.689453 L 0.55078125 14.896484 L 0.55078125 15.449219 L 3.8613281 15.449219 L 3.8613281 16 L 4.4140625 16 L 4.4140625 15.449219 L 6.6210938 15.449219 L 6.6210938 16 L 7.171875 16 L 7.171875 15.449219 L 9.3789062 15.449219 L 9.3789062 16 L 9.9316406 16 L 9.9316406 15.449219 L 12.138672 15.449219 L 12.138672 16 L 12.689453 16 L 12.689453 15.449219 L 14.345703 15.449219 L 14.345703 16 L 15.449219 15.449219 L 16 15.171875 L 15.449219 14.896484 L 14.345703 14.345703 L 14.345703 14.896484 L 12.689453 14.896484 L 12.138672 14.896484 L 9.9316406 14.896484 L 9.3789062 14.896484 L 7.171875 14.896484 L 6.6210938 14.896484 L 4.4140625 14.896484 L 3.8613281 14.896484 L 1.1035156 14.896484 L 1.1035156 12.689453 L 1.1035156 12.138672 L 1.1035156 9.9316406 L 1.1035156 9.3789062 L 1.1035156 7.171875 L 1.1035156 6.6210938 L 1.1035156 4.4140625 L 1.1035156 3.8613281 L 1.1035156 1.6542969 L 1.6542969 1.6542969 L 1.1035156 0.55078125 L 0.828125 0 z " />
  <path
     d="M 13.83393,1.7064177 11.437152,8.1064166 9.2067014,5.1369634 6.8470699,10.235303 4.4319965,9.2543329 2.4776501,11.550218 v 3.297515 l 5.521e-4,-6.68e-4 H 13.833929 Z"
     id="path344"
     class="ColorScheme-Text"
     style="stroke-width:0.627641;fill:url(#oomox)" />
</svg>
