<?xml version="1.0" encoding="UTF-8" standalone="no"?>
<svg
   width="16"
   height="16"
   version="1.1"
   id="svg2351"
   xmlns:xlink="http://www.w3.org/1999/xlink"
   xmlns="http://www.w3.org/2000/svg"
   xmlns:svg="http://www.w3.org/2000/svg"
   xmlns:rdf="http://www.w3.org/1999/02/22-rdf-syntax-ns#"
   xmlns:cc="http://creativecommons.org/ns#"
   xmlns:dc="http://purl.org/dc/elements/1.1/">
  <defs>
   <style id="current-color-scheme" type="text/css">
   .ColorScheme-Text { color: #0abdc6; } .ColorScheme-Highlight { color:#5294e2; }
  </style>
  <linearGradient id="arrongin" x1="0%" x2="0%" y1="0%" y2="100%">
   <stop offset="0%" style="stop-color:#dd9b44; stop-opacity:1"/>
   <stop offset="100%" style="stop-color:#ad6c16; stop-opacity:1"/>
  </linearGradient>
  <linearGradient id="aurora" x1="0%" x2="0%" y1="0%" y2="100%">
   <stop offset="0%" style="stop-color:#09D4DF; stop-opacity:1"/>
   <stop offset="100%" style="stop-color:#9269F4; stop-opacity:1"/>
  </linearGradient>
  <linearGradient id="cyberneon" x1="0%" x2="0%" y1="0%" y2="100%">
    <stop offset="0" style="stop-color:#0abdc6; stop-opacity:1"/>
    <stop offset="1" style="stop-color:#ea00d9; stop-opacity:1"/>
  </linearGradient>
  <linearGradient id="fitdance" x1="0%" x2="0%" y1="0%" y2="100%">
   <stop offset="0%" style="stop-color:#1AD6AB; stop-opacity:1"/>
   <stop offset="100%" style="stop-color:#329DB6; stop-opacity:1"/>
  </linearGradient>
  <linearGradient id="oomox" x1="0%" x2="0%" y1="0%" y2="100%">
   <stop offset="0%" style="stop-color:#0abdc6; stop-opacity:1"/>
   <stop offset="100%" style="stop-color:#b800ff; stop-opacity:1"/>
  </linearGradient>
  <linearGradient id="rainblue" x1="0%" x2="0%" y1="0%" y2="100%">
   <stop offset="0%" style="stop-color:#00F260; stop-opacity:1"/>
   <stop offset="100%" style="stop-color:#0575E6; stop-opacity:1"/>
  </linearGradient>
  <linearGradient id="sunrise" x1="0%" x2="0%" y1="0%" y2="100%">
   <stop offset="0%" style="stop-color: #FF8501; stop-opacity:1"/>
   <stop offset="100%" style="stop-color: #FFCB01; stop-opacity:1"/>
  </linearGradient>
  <linearGradient id="telinkrin" x1="0%" x2="0%" y1="0%" y2="100%">
   <stop offset="0%" style="stop-color: #b2ced6; stop-opacity:1"/>
   <stop offset="100%" style="stop-color: #6da5b7; stop-opacity:1"/>
  </linearGradient>
  <linearGradient id="60spsycho" x1="0%" x2="0%" y1="0%" y2="100%">
   <stop offset="0%" style="stop-color: #df5940; stop-opacity:1"/>
   <stop offset="25%" style="stop-color: #d8d15f; stop-opacity:1"/>
   <stop offset="50%" style="stop-color: #e9882a; stop-opacity:1"/>
   <stop offset="100%" style="stop-color: #279362; stop-opacity:1"/>
  </linearGradient>
  <linearGradient id="90ssummer" x1="0%" x2="0%" y1="0%" y2="100%">
   <stop offset="0%" style="stop-color: #f618c7; stop-opacity:1"/>
   <stop offset="20%" style="stop-color: #94ffab; stop-opacity:1"/>
   <stop offset="50%" style="stop-color: #fbfd54; stop-opacity:1"/>
   <stop offset="100%" style="stop-color: #0f83ae; stop-opacity:1"/>
  </linearGradient>
 </defs>
  <path
     d="m 7.9999992,3.4287681 c 2.5247508,0 4.5712328,2.0464815 4.5712328,4.571232 0,2.5247509 -2.046482,4.5712319 -4.5712328,4.5712319 C 6.6471138,12.570918 5.3638239,11.971759 4.49548,10.934321 l 1.4998708,-0.899372 c 0.5342525,0.526719 1.2544088,0.821855 2.0046484,0.822243 1.5779685,0 2.8571918,-1.2792224 2.8571918,-2.8571919 0,-1.5779692 -1.2792233,-2.8571922 -2.8571918,-2.8571922 C 7.251007,5.1428801 6.5316585,5.4373447 5.9974166,5.9622967 L 4.4975458,5.0622365 C 5.366028,4.0266452 6.6484405,3.428913 7.9999992,3.4287681 Z"
     style="opacity:1;vector-effect:none;fill:url(#oomox);stroke-width:0.591841;stop-color:#000000;stop-opacity:1"
     id="path3"
     class="ColorScheme-Text"/>
  <path
     d="M 0.00664894,3.0345746 V 3.3523937 L 0,12.965425 8.2759309,7.9980056 Z"
     style="opacity:1;vector-effect:none;fill:url(#oomox);stroke-width:0.571428;stop-color:#000000;stop-opacity:1"
     id="path2"
     class="ColorScheme-Text"/>
  <path
     d="M 7.9999992,-3.135874e-8 A 8.0000713,8.0000713 0 0 0 1.5363683,3.2855298 L 3.0142025,4.1718171 A 6.2857702,6.2857702 0 0 1 7.9999992,1.7140398 6.2857702,6.2857702 0 0 1 14.28596,8.0000001 6.2857702,6.2857702 0 0 1 7.9999992,14.28596 6.2857702,6.2857702 0 0 1 3.0121367,11.824739 L 1.5343024,12.712404 A 8.0000713,8.0000713 0 0 0 7.9999992,16 8.0000713,8.0000713 0 0 0 16,8.0000001 8.0000713,8.0000713 0 0 0 7.9999992,-3.135874e-8 Z"
     style="opacity:1;vector-effect:none;fill:url(#oomox);stroke-width:0.591841;stop-color:#000000;stop-opacity:1"
     id="path1"
     class="ColorScheme-Text"/>
  <metadata
     id="metadata130">
    <rdf:RDF>
      <cc:Work
         rdf:about="">
        <dc:creator>
          <cc:Agent>
            <dc:title>dreifacherspass</dc:title>
          </cc:Agent>
        </dc:creator>
        <cc:license
           rdf:resource="http://creativecommons.org/licenses/by-sa/4.0/" />
      </cc:Work>
      <cc:License
         rdf:about="http://creativecommons.org/licenses/by-sa/4.0/">
        <cc:permits
           rdf:resource="http://creativecommons.org/ns#Reproduction" />
        <cc:permits
           rdf:resource="http://creativecommons.org/ns#Distribution" />
        <cc:requires
           rdf:resource="http://creativecommons.org/ns#Notice" />
        <cc:requires
           rdf:resource="http://creativecommons.org/ns#Attribution" />
        <cc:permits
           rdf:resource="http://creativecommons.org/ns#DerivativeWorks" />
        <cc:requires
           rdf:resource="http://creativecommons.org/ns#ShareAlike" />
      </cc:License>
    </rdf:RDF>
  </metadata>
</svg>
