<?xml version="1.0" encoding="UTF-8" standalone="no"?>
<!-- Uploaded to: SVG Repo, www.svgrepo.com, Generator: SVG Repo Mixer Tools -->

<svg
   version="1.1"
   id="_x32_"
   width="16"
   height="16"
   viewBox="0 0 10.24 10.24"
   xml:space="preserve"
   xmlns:xlink="http://www.w3.org/1999/xlink"
   xmlns="http://www.w3.org/2000/svg"
   xmlns:svg="http://www.w3.org/2000/svg"
   xmlns:rdf="http://www.w3.org/1999/02/22-rdf-syntax-ns#"
   xmlns:cc="http://creativecommons.org/ns#"
   xmlns:dc="http://purl.org/dc/elements/1.1/">
  <defs>
   <style id="current-color-scheme" type="text/css">
   .ColorScheme-Text { color: #0abdc6; } .ColorScheme-Highlight { color:#5294e2; }
  </style>
  <linearGradient id="arrongin" x1="0%" x2="0%" y1="0%" y2="100%">
   <stop offset="0%" style="stop-color:#dd9b44; stop-opacity:1"/>
   <stop offset="100%" style="stop-color:#ad6c16; stop-opacity:1"/>
  </linearGradient>
  <linearGradient id="aurora" x1="0%" x2="0%" y1="0%" y2="100%">
   <stop offset="0%" style="stop-color:#09D4DF; stop-opacity:1"/>
   <stop offset="100%" style="stop-color:#9269F4; stop-opacity:1"/>
  </linearGradient>
  <linearGradient id="cyberneon" x1="0%" x2="0%" y1="0%" y2="100%">
    <stop offset="0" style="stop-color:#0abdc6; stop-opacity:1"/>
    <stop offset="1" style="stop-color:#ea00d9; stop-opacity:1"/>
  </linearGradient>
  <linearGradient id="fitdance" x1="0%" x2="0%" y1="0%" y2="100%">
   <stop offset="0%" style="stop-color:#1AD6AB; stop-opacity:1"/>
   <stop offset="100%" style="stop-color:#329DB6; stop-opacity:1"/>
  </linearGradient>
  <linearGradient id="oomox" x1="0%" x2="0%" y1="0%" y2="100%">
   <stop offset="0%" style="stop-color:#0abdc6; stop-opacity:1"/>
   <stop offset="100%" style="stop-color:#b800ff; stop-opacity:1"/>
  </linearGradient>
  <linearGradient id="rainblue" x1="0%" x2="0%" y1="0%" y2="100%">
   <stop offset="0%" style="stop-color:#00F260; stop-opacity:1"/>
   <stop offset="100%" style="stop-color:#0575E6; stop-opacity:1"/>
  </linearGradient>
  <linearGradient id="sunrise" x1="0%" x2="0%" y1="0%" y2="100%">
   <stop offset="0%" style="stop-color: #FF8501; stop-opacity:1"/>
   <stop offset="100%" style="stop-color: #FFCB01; stop-opacity:1"/>
  </linearGradient>
  <linearGradient id="telinkrin" x1="0%" x2="0%" y1="0%" y2="100%">
   <stop offset="0%" style="stop-color: #b2ced6; stop-opacity:1"/>
   <stop offset="100%" style="stop-color: #6da5b7; stop-opacity:1"/>
  </linearGradient>
  <linearGradient id="60spsycho" x1="0%" x2="0%" y1="0%" y2="100%">
   <stop offset="0%" style="stop-color: #df5940; stop-opacity:1"/>
   <stop offset="25%" style="stop-color: #d8d15f; stop-opacity:1"/>
   <stop offset="50%" style="stop-color: #e9882a; stop-opacity:1"/>
   <stop offset="100%" style="stop-color: #279362; stop-opacity:1"/>
  </linearGradient>
  <linearGradient id="90ssummer" x1="0%" x2="0%" y1="0%" y2="100%">
   <stop offset="0%" style="stop-color: #f618c7; stop-opacity:1"/>
   <stop offset="20%" style="stop-color: #94ffab; stop-opacity:1"/>
   <stop offset="50%" style="stop-color: #fbfd54; stop-opacity:1"/>
   <stop offset="100%" style="stop-color: #0f83ae; stop-opacity:1"/>
  </linearGradient>
 </defs>
 <path
   id="path1"
   class="ColorScheme-Text"
   d="M 8.3530835,0 7.9196607,1.2528189 7.0496649,1.4956427 7.4977627,0.20064902 6.3977681,0.50752252 5.9496703,1.8025162 5.0799745,2.045015 5.5280973,0.75002134 4.4277777,1.0568948 3.9796799,2.3522135 3.1099841,2.5947123 3.558107,1.2999937 2.4577874,1.6068672 2.0099896,2.9018608 1.1402938,3.1443596 1.5881166,1.849366 1.2177934,1.9528155 C 0.8637355,2.051575 0.65653626,2.4187586 0.75529567,2.7731365 l 0.1240744,0.4437478 -0.0259499,0.0075 0.10877447,0.3893731 0.0265499,-0.0075 v 1.0418699 0.0444 4.8818512 C 0.98874454,9.9418763 1.2868684,10.24 1.6543663,10.24 h 7.1893398 c 0.3678178,0 0.6656218,-0.2981237 0.6656218,-0.6656215 V 4.6924771 4.6481023 3.4943329 H 8.248409 v 2e-5 L 9.0468552,4.6481223 H 8.1440346 L 7.3452635,3.4943579 H 6.203094 L 7.0018651,4.6481273 H 6.0987445 L 5.3002984,3.4943579 H 4.158129 L 4.9565751,4.6481273 H 4.0537545 L 3.2553084,3.4943579 H 2.1131391 l 0.798446,1.1537694 H 2.0084396 L 1.2393933,3.5365577 9.1955794,1.3168686 9.1059049,0.99594514 9.086855,0.92717047 8.9627806,0.48312264 C 8.8837209,0.19938431 8.631842,0.01311992 8.3530835,0 Z M 9.1680796,5.8581214 8.2248342,8.7300324 7.1759893,8.810157 5.591897,6.1313451 6.4762427,6.0637704 7.6176121,8.0431857 8.2837339,5.9256961 Z M 5.1325993,6.1664449 5.4530227,8.9418063 4.6212268,9.005356 4.3869029,6.9753909 3.7735559,8.5319083 3.2160086,8.5744831 2.2571634,7.1381151 2.4915122,9.1680552 1.6574663,9.2317799 1.3370678,6.4564185 l 1.1196696,-0.08555 0.9484203,1.425943 0.610022,-1.5449924 z"
   style="stroke-width:0.0199999;stroke:none;fill:url(#oomox)" />
 <metadata
   id="metadata2"><rdf:RDF><cc:Work
       rdf:about=""><dc:creator><cc:Agent><dc:title>dreifacherspass</dc:title></cc:Agent></dc:creator><cc:license
         rdf:resource="http://creativecommons.org/licenses/by-sa/4.0/" /></cc:Work><cc:License
       rdf:about="http://creativecommons.org/licenses/by-sa/4.0/"><cc:permits
         rdf:resource="http://creativecommons.org/ns#Reproduction" /><cc:permits
         rdf:resource="http://creativecommons.org/ns#Distribution" /><cc:requires
         rdf:resource="http://creativecommons.org/ns#Notice" /><cc:requires
         rdf:resource="http://creativecommons.org/ns#Attribution" /><cc:permits
         rdf:resource="http://creativecommons.org/ns#DerivativeWorks" /><cc:requires
         rdf:resource="http://creativecommons.org/ns#ShareAlike" /></cc:License></rdf:RDF></metadata></svg>
