<?xml version="1.0" encoding="UTF-8" standalone="no"?>
<svg
   version="1.1"
   viewBox="0 0 16 16"
   id="svg17"
   width="16"
   height="16"
   xmlns:xlink="http://www.w3.org/1999/xlink"
   xmlns="http://www.w3.org/2000/svg"
   xmlns:svg="http://www.w3.org/2000/svg"
   xmlns:rdf="http://www.w3.org/1999/02/22-rdf-syntax-ns#"
   xmlns:cc="http://creativecommons.org/ns#"
   xmlns:dc="http://purl.org/dc/elements/1.1/">
  <defs>
   <style id="current-color-scheme" type="text/css">
   .ColorScheme-Text { color: #0abdc6; } .ColorScheme-Highlight { color:#5294e2; }
  </style>
  <linearGradient id="arrongin" x1="0%" x2="0%" y1="0%" y2="100%">
   <stop offset="0%" style="stop-color:#dd9b44; stop-opacity:1"/>
   <stop offset="100%" style="stop-color:#ad6c16; stop-opacity:1"/>
  </linearGradient>
  <linearGradient id="aurora" x1="0%" x2="0%" y1="0%" y2="100%">
   <stop offset="0%" style="stop-color:#09D4DF; stop-opacity:1"/>
   <stop offset="100%" style="stop-color:#9269F4; stop-opacity:1"/>
  </linearGradient>
  <linearGradient id="cyberneon" x1="0%" x2="0%" y1="0%" y2="100%">
    <stop offset="0" style="stop-color:#0abdc6; stop-opacity:1"/>
    <stop offset="1" style="stop-color:#ea00d9; stop-opacity:1"/>
  </linearGradient>
  <linearGradient id="fitdance" x1="0%" x2="0%" y1="0%" y2="100%">
   <stop offset="0%" style="stop-color:#1AD6AB; stop-opacity:1"/>
   <stop offset="100%" style="stop-color:#329DB6; stop-opacity:1"/>
  </linearGradient>
  <linearGradient id="oomox" x1="0%" x2="0%" y1="0%" y2="100%">
   <stop offset="0%" style="stop-color:#0abdc6; stop-opacity:1"/>
   <stop offset="100%" style="stop-color:#b800ff; stop-opacity:1"/>
  </linearGradient>
  <linearGradient id="rainblue" x1="0%" x2="0%" y1="0%" y2="100%">
   <stop offset="0%" style="stop-color:#00F260; stop-opacity:1"/>
   <stop offset="100%" style="stop-color:#0575E6; stop-opacity:1"/>
  </linearGradient>
  <linearGradient id="sunrise" x1="0%" x2="0%" y1="0%" y2="100%">
   <stop offset="0%" style="stop-color: #FF8501; stop-opacity:1"/>
   <stop offset="100%" style="stop-color: #FFCB01; stop-opacity:1"/>
  </linearGradient>
  <linearGradient id="telinkrin" x1="0%" x2="0%" y1="0%" y2="100%">
   <stop offset="0%" style="stop-color: #b2ced6; stop-opacity:1"/>
   <stop offset="100%" style="stop-color: #6da5b7; stop-opacity:1"/>
  </linearGradient>
  <linearGradient id="60spsycho" x1="0%" x2="0%" y1="0%" y2="100%">
   <stop offset="0%" style="stop-color: #df5940; stop-opacity:1"/>
   <stop offset="25%" style="stop-color: #d8d15f; stop-opacity:1"/>
   <stop offset="50%" style="stop-color: #e9882a; stop-opacity:1"/>
   <stop offset="100%" style="stop-color: #279362; stop-opacity:1"/>
  </linearGradient>
  <linearGradient id="90ssummer" x1="0%" x2="0%" y1="0%" y2="100%">
   <stop offset="0%" style="stop-color: #f618c7; stop-opacity:1"/>
   <stop offset="20%" style="stop-color: #94ffab; stop-opacity:1"/>
   <stop offset="50%" style="stop-color: #fbfd54; stop-opacity:1"/>
   <stop offset="100%" style="stop-color: #0f83ae; stop-opacity:1"/>
  </linearGradient>
 </defs>
  <ellipse
     cx="-8"
     cy="-14.915916"
     rx="1.2358553"
     ry="1.0840837"
     style="fill:url(#oomox);stroke-width:0.542;stroke-dasharray:none"
     id="ellipse7"
     class="ColorScheme-Text"
     transform="scale(-1)" />
  <path
     d="M 1.0986907,7.2217051 C 2.3307518,5.5679355 5.3108977,5.7712012 5.639375,6.442249 L 5.4539967,7.3192726 C 3.9178502,8.2515846 3.0576299,8.0895141 1.0959805,7.2217051 Z"
     style="fill:url(#oomox);stroke-width:0.542042;opacity:0.7"
     id="path8"
     class="ColorScheme-Text" />
  <path
     d="M 5.8448088,5.8042657 4.7422959,4.6193621 C 4.9488138,3.5076343 5.4160538,1.2158814 4.9076186,1.2017884 4.2463276,1.1833589 4.200254,3.5076343 4.2739717,4.3299117 c 0,0 -0.221153,0.00976 -0.3599158,-0.4737445 C 3.5340846,2.5346692 2.8727936,-0.24166902 2.2071662,0.01688493 1.3312266,0.35674515 4.0511925,4.5581113 3.2684841,4.7711338 l 1.6261255,1.1301574 0.9095461,0.220611 z"
     style="fill:url(#oomox);stroke-width:0.542042;opacity:0.7"
     id="path9"
     class="ColorScheme-Text" />
  <path
     d="M 6.3922711,6.1143136 C 6.274648,6.1674337 4.9894669,6.1641815 3.5275801,4.7472839 2.9091104,4.1477857 2.5421481,2.6143494 2.1881948,2.7460655 1.4835404,3.0685804 2.7817306,4.8551503 2.5204664,5.0231832 2.1030942,5.292036 0.63090861,2.2761153 0.06447491,2.7037863 -0.39192431,3.0485249 1.5762296,6.209713 5.9206947,6.8027068 Z"
     style="fill:url(#oomox);stroke-width:0.542042;opacity:0.7"
     id="path10"
     class="ColorScheme-Text" />
  <path
     d="M 14.709903,7.221273 C 13.477842,5.5675031 10.497696,5.770769 10.169219,6.4418168 l 0.185378,0.8770237 c 1.536146,0.9323119 2.396367,0.7702414 4.358016,-0.097568 z"
     style="opacity:0.7;fill:url(#oomox);stroke-width:0.542042"
     id="path11"
     class="ColorScheme-Text" />
  <path
     d="M 10.329121,5.8042657 11.431634,4.6193621 C 11.225116,3.5076343 10.757876,1.2158814 11.266311,1.2017884 c 0.661291,-0.01843 0.707365,2.3058459 0.633647,3.1281233 0,0 0.221153,0.00976 0.359916,-0.4737445 0.379971,-1.321498 1.041262,-4.09783622 1.70689,-3.83928227 0.875939,0.33986022 -1.844027,4.54122637 -1.061318,4.75424887 l -1.626126,1.1301574 -0.909546,0.220611 z"
     style="opacity:0.7;fill:url(#oomox);stroke-width:0.542042"
     id="path12"
     class="ColorScheme-Text" />
  <path
     class="ColorScheme-Text"
     id="path5-9"
     d="m 9.608,6.1141408 c 0.117618,0.05312 1.402745,0.04987 2.86457,-1.3670294 0.618443,-0.5994982 0.98539,-2.1329345 1.339328,-2.0012184 0.704625,0.3225149 -0.593511,2.1090848 -0.332257,2.2771178 0.417354,0.268853 1.889477,-2.747068 2.455887,-2.319397 0.45638,0.3447386 -1.511691,3.505927 -5.855972,4.09892 z"
     style="opacity:0.7;fill:url(#oomox);stroke-width:0.542031" />
  <path
     id="path14"
     style="fill:url(#oomox);stroke-width:0.542042"
     class="ColorScheme-Text"
     d="M 7.9589844 4.8710938 C 4.164707 4.8710938 4.1643486 8.3961866 6.140625 10.447266 C 3.8326202 14.627473 6.1252648 15.712985 7.9589844 14.628906 C 9.7927043 15.712985 12.35933 14.352627 10.050781 10.171875 C 11.448703 7.8037037 11.753262 4.8710938 7.9589844 4.8710938 z M 9.3164062 6.3535156 C 10.047895 6.3241511 10.677211 7.2624098 9.4472656 8.9472656 L 8.25 8.2792969 C 8.1159071 6.9833489 8.7474608 6.3763596 9.3164062 6.3535156 z M 6.6230469 6.3945312 C 7.2066484 6.3750619 7.8869217 6.980051 7.7480469 8.3222656 L 6.5527344 8.9882812 C 5.3569471 7.3502276 5.9186703 6.418034 6.6230469 6.3945312 z M 6.0976562 12.152344 C 6.3269396 12.886807 6.646861 13.504812 7.4160156 13.544922 L 7.4160156 14.087891 L 6.875 14.087891 C 5.9459377 13.817412 5.9204098 13.040747 6.0976562 12.152344 z M 10.361328 12.152344 C 10.538575 13.040747 10.513041 13.817412 9.5839844 14.087891 L 9.0429688 14.087891 L 9.0429688 13.544922 C 9.8121234 13.504812 10.132044 12.886807 10.361328 12.152344 z " />
  <path
     d="m 6.0974003,12.15266 c -0.1772477,0.888406 -0.1519939,1.663743 0.7770712,1.934222 H 7.4165133 V 13.54484 C 6.647356,13.504729 6.326684,12.887126 6.0974003,12.15266 Z m 4.2643517,0 c -0.229284,0.734466 -0.5499559,1.352069 -1.3191132,1.39218 v 0.542042 H 9.5846806 C 10.51374,13.816403 10.538999,13.041066 10.361752,12.15266 Z"
     style="fill:url(#oomox);stroke-width:0.542042;opacity:0.2"
     id="path15"
     class="ColorScheme-Text" />
  <path
     d="M 9.3164747,6.3534221 C 8.7475278,6.3762666 8.1168028,6.9838796 8.250896,8.2798289 L 9.4481075,8.946337 C 10.678054,7.2614799 10.04797,6.3240575 9.31648,6.3534221 Z M 6.6222543,6.3941635 C 5.917877,6.4176659 5.356472,7.3500391 6.5522605,8.9880947 L 7.7484021,8.3215866 C 7.8872772,6.9793706 7.2058246,6.3746941 6.6222222,6.3941635 Z"
     style="opacity:0.2;fill:url(#oomox);stroke-width:0.534875"
     id="path16"
     class="ColorScheme-Text" />
  <path
     id="path26"
     class="ColorScheme-Text"
     style="opacity:0.8;fill:url(#oomox);stroke-width:0.557637"
     d="M 9.2734375 7.3398438 L 9.2734375 7.3417969 C 9.0283675 7.3530553 8.7054681 7.681337 8.5488281 8.4414062 L 9.1523438 8.7792969 C 9.7807997 7.9428428 9.6247651 7.3540649 9.296875 7.3417969 L 9.296875 7.3398438 C 9.289145 7.3395478 9.2813395 7.3394808 9.2734375 7.3398438 z M 6.7246094 7.3574219 C 6.4004687 7.3698889 6.248745 7.9615894 6.8964844 8.796875 L 7.4609375 8.4824219 C 7.3086239 7.6802008 6.9707069 7.3482072 6.7246094 7.3574219 z " />
  <metadata
     id="metadata17">
    <rdf:RDF>
      <cc:Work
         rdf:about="">
        <dc:creator>
          <cc:Agent>
            <dc:title>dreifacherspass</dc:title>
          </cc:Agent>
        </dc:creator>
        <cc:license
           rdf:resource="http://creativecommons.org/licenses/by-sa/4.0/" />
      </cc:Work>
      <cc:License
         rdf:about="http://creativecommons.org/licenses/by-sa/4.0/">
        <cc:permits
           rdf:resource="http://creativecommons.org/ns#Reproduction" />
        <cc:permits
           rdf:resource="http://creativecommons.org/ns#Distribution" />
        <cc:requires
           rdf:resource="http://creativecommons.org/ns#Notice" />
        <cc:requires
           rdf:resource="http://creativecommons.org/ns#Attribution" />
        <cc:permits
           rdf:resource="http://creativecommons.org/ns#DerivativeWorks" />
        <cc:requires
           rdf:resource="http://creativecommons.org/ns#ShareAlike" />
      </cc:License>
    </rdf:RDF>
  </metadata>
  <path
     d="M 12.074616,6.1062368 V 5.3538191 c 0,-1.141807 -2.9180458,-2.0675547 -4.0598538,-2.0675547 -1.1418067,0 -4.1625478,0.9257477 -4.1625478,2.0675547 V 6.1062368 C 3.4514534,6.2486395 3.1630295,6.6271743 3.1630295,7.0767813 v 0.6891852 c 0,0.5710756 0.4627015,1.0337768 1.0337774,1.0337768 h 0.6891848 c 0.1904735,0 0.3445925,-0.1541185 0.3445925,-0.3445921 V 6.3875964 c 0,-0.1904735 -0.154119,-0.3445924 -0.3445925,-0.3445924 H 4.5413993 V 5.3538191 c 0,-0.7612047 2.6710804,-1.3783698 3.4322846,-1.3783698 0.761205,0 3.4117461,0.6171651 3.4117461,1.3783698 V 6.043004 h -0.344592 c -0.190474,0 -0.344593,0.1541189 -0.344593,0.3445924 v 2.0675548 c 0,0.1904736 0.154119,0.3445921 0.344593,0.3445921 h 0.689185 c 0.571076,0 1.033778,-0.4627012 1.033778,-1.0337768 V 7.0767813 c 0,-0.449607 -0.288425,-0.8281418 -0.689185,-0.9705445 z"
     id="path1"
     class="ColorScheme-Text"
     style="stroke-width:0.086148;fill:url(#oomox)" />
</svg>
