<?xml version="1.0" encoding="UTF-8" standalone="no"?>
<svg
   width="16"
   height="16"
   id="svg11300"
   version="1.1"
   xmlns="http://www.w3.org/2000/svg"
   xmlns:svg="http://www.w3.org/2000/svg"
   xmlns:rdf="http://www.w3.org/1999/02/22-rdf-syntax-ns#"
   xmlns:cc="http://creativecommons.org/ns#"
   xmlns:dc="http://purl.org/dc/elements/1.1/">
  <defs>
   <style id="current-color-scheme" type="text/css">
   .ColorScheme-Text { color: #0abdc6; } .ColorScheme-Highlight { color:#5294e2; }
  </style>
  <linearGradient id="arrongin" x1="0%" x2="0%" y1="0%" y2="100%">
   <stop offset="0%" style="stop-color:#dd9b44; stop-opacity:1"/>
   <stop offset="100%" style="stop-color:#ad6c16; stop-opacity:1"/>
  </linearGradient>
  <linearGradient id="aurora" x1="0%" x2="0%" y1="0%" y2="100%">
   <stop offset="0%" style="stop-color:#09D4DF; stop-opacity:1"/>
   <stop offset="100%" style="stop-color:#9269F4; stop-opacity:1"/>
  </linearGradient>
  <linearGradient id="cyberneon" x1="0%" x2="0%" y1="0%" y2="100%">
    <stop offset="0" style="stop-color:#0abdc6; stop-opacity:1"/>
    <stop offset="1" style="stop-color:#ea00d9; stop-opacity:1"/>
  </linearGradient>
  <linearGradient id="fitdance" x1="0%" x2="0%" y1="0%" y2="100%">
   <stop offset="0%" style="stop-color:#1AD6AB; stop-opacity:1"/>
   <stop offset="100%" style="stop-color:#329DB6; stop-opacity:1"/>
  </linearGradient>
  <linearGradient id="oomox" x1="0%" x2="0%" y1="0%" y2="100%">
   <stop offset="0%" style="stop-color:#0abdc6; stop-opacity:1"/>
   <stop offset="100%" style="stop-color:#b800ff; stop-opacity:1"/>
  </linearGradient>
  <linearGradient id="rainblue" x1="0%" x2="0%" y1="0%" y2="100%">
   <stop offset="0%" style="stop-color:#00F260; stop-opacity:1"/>
   <stop offset="100%" style="stop-color:#0575E6; stop-opacity:1"/>
  </linearGradient>
  <linearGradient id="sunrise" x1="0%" x2="0%" y1="0%" y2="100%">
   <stop offset="0%" style="stop-color: #FF8501; stop-opacity:1"/>
   <stop offset="100%" style="stop-color: #FFCB01; stop-opacity:1"/>
  </linearGradient>
  <linearGradient id="telinkrin" x1="0%" x2="0%" y1="0%" y2="100%">
   <stop offset="0%" style="stop-color: #b2ced6; stop-opacity:1"/>
   <stop offset="100%" style="stop-color: #6da5b7; stop-opacity:1"/>
  </linearGradient>
  <linearGradient id="60spsycho" x1="0%" x2="0%" y1="0%" y2="100%">
   <stop offset="0%" style="stop-color: #df5940; stop-opacity:1"/>
   <stop offset="25%" style="stop-color: #d8d15f; stop-opacity:1"/>
   <stop offset="50%" style="stop-color: #e9882a; stop-opacity:1"/>
   <stop offset="100%" style="stop-color: #279362; stop-opacity:1"/>
  </linearGradient>
  <linearGradient id="90ssummer" x1="0%" x2="0%" y1="0%" y2="100%">
   <stop offset="0%" style="stop-color: #f618c7; stop-opacity:1"/>
   <stop offset="20%" style="stop-color: #94ffab; stop-opacity:1"/>
   <stop offset="50%" style="stop-color: #fbfd54; stop-opacity:1"/>
   <stop offset="100%" style="stop-color: #0f83ae; stop-opacity:1"/>
  </linearGradient>
 </defs>
  <metadata
     id="metadata4">
    <rdf:RDF>
      <cc:Work
         rdf:about="">
        <dc:format>image/svg+xml</dc:format>
        <dc:type
           rdf:resource="http://purl.org/dc/dcmitype/StillImage" />
        <cc:license
           rdf:resource="http://creativecommons.org/licenses/by-sa/4.0/" />
        <dc:creator>
          <cc:Agent>
            <dc:title>dreifacherspass</dc:title>
          </cc:Agent>
        </dc:creator>
      </cc:Work>
      <cc:License
         rdf:about="http://creativecommons.org/licenses/by-sa/4.0/">
        <cc:permits
           rdf:resource="http://creativecommons.org/ns#Reproduction" />
        <cc:permits
           rdf:resource="http://creativecommons.org/ns#Distribution" />
        <cc:requires
           rdf:resource="http://creativecommons.org/ns#Notice" />
        <cc:requires
           rdf:resource="http://creativecommons.org/ns#Attribution" />
        <cc:permits
           rdf:resource="http://creativecommons.org/ns#DerivativeWorks" />
        <cc:requires
           rdf:resource="http://creativecommons.org/ns#ShareAlike" />
      </cc:License>
    </rdf:RDF>
  </metadata>
  <path
     style="display:inline;fill:none;fill-opacity:0.3;fill-rule:nonzero;stroke:url(#oomox);stroke-width:0.392202;stroke-miterlimit:4;stroke-dasharray:none;stroke-opacity:1"
     d="m 15.803899,7.9997236 c 0,4.3102114 -3.494183,7.8043534 -7.8038006,7.8043534 -4.3100138,0 -7.80399775,-3.494181 -7.80399775,-7.8043534 0,-4.3100138 3.49398395,-7.80380071 7.80399775,-7.80380071 4.3096176,0 7.8038006,3.49378691 7.8038006,7.80380071 z"
     id="path64"
     class="ColorScheme-Text" />
  <path
     id="path64-1"
     style="display:inline;fill:url(#oomox);fill-opacity:0.3;fill-rule:nonzero;stroke:none;stroke-width:0.402053;stroke-miterlimit:4;stroke-dasharray:none;stroke-opacity:1"
     class="ColorScheme-Text"
     d="M 8 0 C 3.5816859 -1.1842367e-15 0 3.5817868 0 8 C 0 12.418376 3.5816859 16 8 16 C 12.417907 16 16 12.418416 16 8 C 16 3.5817868 12.417907 0 8 0 z M 8 0.4296875 C 12.178222 0.4296875 15.570312 3.8214038 15.570312 8 C 15.570312 12.178779 12.178232 15.570312 8 15.570312 C 3.8214037 15.570312 0.4296875 12.178737 0.4296875 8 C 0.4296875 3.8214098 3.8214157 0.4296875 8 0.4296875 z M 8 0.82226562 C 4.0333667 0.82226562 0.82226562 4.0333728 0.82226562 8 C 0.82226562 11.966782 4.0333786 15.177734 8 15.177734 C 11.96624 15.177734 15.177734 11.966814 15.177734 8 C 15.177734 4.0333787 11.966251 0.82226562 8 0.82226562 z " />
  <path
     style="opacity:1;fill:url(#oomox);stroke-width:0.392202"
     d="m 5.5524027,6.6291766 1.757056,3.5454884 h 1.49036 L 10.447059,6.6448646 V 10.613929 H 9.9607307 c -0.407888,0 -0.533392,0.03138 -0.690272,0.125504 -0.251008,0.141192 -0.407888,0.407888 -0.407888,0.690272 0,0.251008 0.125504,0.502016 0.345136,0.658896 0.15688,0.109816 0.376512,0.15688 0.753024,0.15688 h 2.0394403 c 0.721648,0 1.09816,-0.282384 1.09816,-0.815776 0,-0.266696 -0.125504,-0.502016 -0.345136,-0.658896 -0.15688,-0.109816 -0.266696,-0.141192 -0.611832,-0.15688 V 5.0133127 c 0.533392,-0.07844 0.815776,-0.345136 0.815776,-0.815776 0,-0.251008 -0.125504,-0.486328 -0.345136,-0.643208 -0.172568,-0.125504 -0.329448,-0.15688 -0.753024,-0.15688 H 10.101923 L 8.0154187,7.7587126 5.8818507,3.3974487 H 4.1404828 c -0.31376,0 -0.423576,0.015688 -0.564768,0.062752 -0.31376,0.094128 -0.533392,0.423576 -0.533392,0.737336 0,0.47064 0.282384,0.737336 0.815776,0.815776 v 5.6006163 c -0.596144,0.01569 -0.956968,0.31376 -0.956968,0.815776 0,0.533392 0.376512,0.815776 1.113848,0.815776 h 2.0237519 c 0.721648,0 1.09816,-0.266696 1.09816,-0.815776 0,-0.266696 -0.125504,-0.502016 -0.345136,-0.658896 -0.172568,-0.125504 -0.31376,-0.15688 -0.753024,-0.15688 h -0.486328 z"
     id="text66"
     class="ColorScheme-Text"
     aria-label="M" />
</svg>
