<?xml version="1.0" encoding="UTF-8" standalone="no"?>
<svg
   viewBox="0 0 16 16"
   version="1.1"
   id="svg24"
   width="16"
   height="16"
   xmlns:xlink="http://www.w3.org/1999/xlink"
   xmlns="http://www.w3.org/2000/svg"
   xmlns:svg="http://www.w3.org/2000/svg"
   xmlns:rdf="http://www.w3.org/1999/02/22-rdf-syntax-ns#"
   xmlns:cc="http://creativecommons.org/ns#"
   xmlns:dc="http://purl.org/dc/elements/1.1/">
   <defs>
      <style id="current-color-scheme" type="text/css">
         .ColorScheme-Text { color: #0abdc6; } .ColorScheme-Highlight { color:#5294e2; }
      </style>
      <linearGradient id="arrongin" x1="0%" x2="0%" y1="0%" y2="100%">
         <stop offset="0%" style="stop-color:#dd9b44; stop-opacity:1"/>
         <stop offset="100%" style="stop-color:#ad6c16; stop-opacity:1"/>
      </linearGradient>
      <linearGradient id="aurora" x1="0%" x2="0%" y1="0%" y2="100%">
         <stop offset="0%" style="stop-color:#09D4DF; stop-opacity:1"/>
         <stop offset="100%" style="stop-color:#9269F4; stop-opacity:1"/>
      </linearGradient>
      <linearGradient id="cyberneon" x1="0%" x2="0%" y1="0%" y2="100%">
         <stop offset="0" style="stop-color:#0abdc6; stop-opacity:1"/>
         <stop offset="1" style="stop-color:#ea00d9; stop-opacity:1"/>
      </linearGradient>
      <linearGradient id="fitdance" x1="0%" x2="0%" y1="0%" y2="100%">
         <stop offset="0%" style="stop-color:#1AD6AB; stop-opacity:1"/>
         <stop offset="100%" style="stop-color:#329DB6; stop-opacity:1"/>
      </linearGradient>
      <linearGradient id="oomox" x1="0%" x2="0%" y1="0%" y2="100%">
         <stop offset="0%" style="stop-color:#0abdc6; stop-opacity:1"/>
         <stop offset="100%" style="stop-color:#b800ff; stop-opacity:1"/>
      </linearGradient>
      <linearGradient id="rainblue" x1="0%" x2="0%" y1="0%" y2="100%">
         <stop offset="0%" style="stop-color:#00F260; stop-opacity:1"/>
         <stop offset="100%" style="stop-color:#0575E6; stop-opacity:1"/>
      </linearGradient>
      <linearGradient id="sunrise" x1="0%" x2="0%" y1="0%" y2="100%">
         <stop offset="0%" style="stop-color: #FF8501; stop-opacity:1"/>
         <stop offset="100%" style="stop-color: #FFCB01; stop-opacity:1"/>
      </linearGradient>
      <linearGradient id="telinkrin" x1="0%" x2="0%" y1="0%" y2="100%">
         <stop offset="0%" style="stop-color: #b2ced6; stop-opacity:1"/>
         <stop offset="100%" style="stop-color: #6da5b7; stop-opacity:1"/>
      </linearGradient>
      <linearGradient id="60spsycho" x1="0%" x2="0%" y1="0%" y2="100%">
         <stop offset="0%" style="stop-color: #df5940; stop-opacity:1"/>
         <stop offset="25%" style="stop-color: #d8d15f; stop-opacity:1"/>
         <stop offset="50%" style="stop-color: #e9882a; stop-opacity:1"/>
         <stop offset="100%" style="stop-color: #279362; stop-opacity:1"/>
      </linearGradient>
      <linearGradient id="90ssummer" x1="0%" x2="0%" y1="0%" y2="100%">
         <stop offset="0%" style="stop-color: #f618c7; stop-opacity:1"/>
         <stop offset="20%" style="stop-color: #94ffab; stop-opacity:1"/>
         <stop offset="50%" style="stop-color: #fbfd54; stop-opacity:1"/>
         <stop offset="100%" style="stop-color: #0f83ae; stop-opacity:1"/>
      </linearGradient>
   </defs>
  <path
     d="m 14.443303,11.921235 a 5.8560688,5.8636205 0 0 1 -0.662479,0.294119 6.3685529,6.3767655 0 0 1 -2.243681,0.400504 c -2.9561586,0 -5.5310789,-2.033806 -5.5310789,-4.6495945 A 1.9686891,1.9712278 0 0 1 7.0310324,6.257866 c -2.6749172,0.1126416 -3.3623959,2.9036499 -3.3623959,4.536953 0,4.630821 4.2561182,5.093903 5.1748398,5.093903 0.4937347,0 1.2374617,-0.143931 1.6874477,-0.287862 l 0.08125,-0.02503 a 8.0185018,8.0288421 0 0 0 4.162371,-3.304153 0.24999226,0.25031464 0 0 0 -0.33124,-0.350441 z"
     style="opacity:0.5;fill:url(#oomox);stroke-width:0.0625384"
     id="path19"
     class="ColorScheme-Text"/>
  <path
     id="path21"
     class="ColorScheme-Text"
     style="opacity:1;fill:url(#oomox);stroke-width:0.0625384"
     d="m 5.0060706,3.0100092 c -2.7436623,0 -4.99984521,2.6033479 -4.99984521,4.8937244 a 8.1372482,8.1477416 0 0 0 0.7562022,3.5044044 7.9997524,8.0100685 0 0 0 9.36897241,4.30155 c -0.4192706,0.09956 -0.9219056,0.179058 -1.2879237,0.179058 -0.9187191,0 -5.1748886,-0.46311 -5.1748886,-5.093927 0,-1.6333012 0.6875362,-4.4243114 3.3624447,-4.536953 C 7.2310262,6.1639982 7.5622422,6.0012936 8.0059779,6.0075515 A 2.0249373,2.0275486 0 0 1 9.6122513,6.821074 1.9936883,1.9962593 0 0 1 10.005916,7.9912462 c 0,-0.012516 1.531196,-4.981237 -4.9998454,-4.981237 z M 10.53715,15.600909 a 4.718604,4.7246889 0 0 1 -0.04687,0.01112 c -0.06256,0.01935 -0.135315,0.03798 -0.206659,0.05683 a 7.9997524,8.0100685 0 0 0 0.253533,-0.06796 z" />
  <path
     d="m 9.5247052,9.3117047 c -0.056248,0.062579 -0.2124934,0.1564466 -0.2124934,0.3504405 0,0.1627045 0.1062467,0.325409 0.2999907,0.4568238 0.8937225,0.625787 2.5874195,0.538177 2.5936695,0.538177 a 3.7248847,3.7296881 0 0 0 1.893692,-0.519403 3.8373812,3.8423297 0 0 0 1.899941,-3.3104111 C 16.018254,5.4255698 15.49952,4.4931479 15.293277,4.0801287 13.962068,1.4893721 11.105906,3.9159642e-8 7.9997524,3.9159642e-8 A 7.9997524,8.0100685 0 0 0 0,7.8974269 C 0.03124903,5.6133058 2.2999288,3.7672354 4.9998453,3.7672354 c 0.2187432,0 1.4687045,0.018773 2.6249187,0.6257866 a 4.5373596,4.5432108 0 0 1 1.9311903,1.8335547 c 0.3812382,0.6633339 0.4499857,1.5081458 0.4499857,1.8460705 0,0.3379248 -0.1687444,0.8322962 -0.4874846,1.2453153 z"
     style="fill:url(#oomox);stroke-width:0.0625384"
     id="path23"
     class="ColorScheme-Text"/>
  <metadata
     id="metadata26">
    <rdf:RDF>
      <cc:Work
         rdf:about="">
        <dc:creator>
          <cc:Agent>
            <dc:title>dreifacherspass</dc:title>
          </cc:Agent>
        </dc:creator>
        <cc:license
           rdf:resource="http://creativecommons.org/licenses/by-sa/4.0/" />
      </cc:Work>
      <cc:License
         rdf:about="http://creativecommons.org/licenses/by-sa/4.0/">
        <cc:permits
           rdf:resource="http://creativecommons.org/ns#Reproduction" />
        <cc:permits
           rdf:resource="http://creativecommons.org/ns#Distribution" />
        <cc:requires
           rdf:resource="http://creativecommons.org/ns#Notice" />
        <cc:requires
           rdf:resource="http://creativecommons.org/ns#Attribution" />
        <cc:permits
           rdf:resource="http://creativecommons.org/ns#DerivativeWorks" />
        <cc:requires
           rdf:resource="http://creativecommons.org/ns#ShareAlike" />
      </cc:License>
    </rdf:RDF>
  </metadata>
</svg>
