<?xml version="1.0" encoding="UTF-8" standalone="no"?>
<!-- Generator: Adobe Illustrator 18.1.1, SVG Export Plug-In . SVG Version: 6.00 Build 0)  -->

<svg
   version="1.1"
   id="Layer_1"
   x="0px"
   y="0px"
   viewBox="0 0 48.000001 48.000001"
   enable-background="new 0 0 960 560"
   xml:space="preserve"
   width="48"
   height="48"
   xmlns:xlink="http://www.w3.org/1999/xlink"
   xmlns="http://www.w3.org/2000/svg"
   xmlns:svg="http://www.w3.org/2000/svg"
   xmlns:rdf="http://www.w3.org/1999/02/22-rdf-syntax-ns#"
   xmlns:cc="http://creativecommons.org/ns#"
   xmlns:dc="http://purl.org/dc/elements/1.1/"><metadata
     id="metadata9"><rdf:RDF><cc:Work
         rdf:about=""><dc:format>image/svg+xml</dc:format><dc:type
           rdf:resource="http://purl.org/dc/dcmitype/StillImage" /><cc:license
           rdf:resource="http://creativecommons.org/licenses/by-sa/4.0/" /><dc:contributor><cc:Agent><dc:title>dreifacherspass</dc:title></cc:Agent></dc:contributor></cc:Work><cc:License
         rdf:about="http://creativecommons.org/licenses/by-sa/4.0/"><cc:permits
           rdf:resource="http://creativecommons.org/ns#Reproduction" /><cc:permits
           rdf:resource="http://creativecommons.org/ns#Distribution" /><cc:requires
           rdf:resource="http://creativecommons.org/ns#Notice" /><cc:requires
           rdf:resource="http://creativecommons.org/ns#Attribution" /><cc:permits
           rdf:resource="http://creativecommons.org/ns#DerivativeWorks" /><cc:requires
           rdf:resource="http://creativecommons.org/ns#ShareAlike" /></cc:License></rdf:RDF></metadata><defs
     id="defs7"><style
       id="current-color-scheme"
       type="text/css">
      .ColorScheme-Text { color: #0abdc6; } .ColorScheme-Highlight { color:#5294e2; }
     </style>
    <linearGradient
       id="arrongin"
       x1="0%"
       x2="0%"
       y1="0%"
       y2="100%">
      <stop
         offset="0%"
         style="stop-color:#dd9b44; stop-opacity:1"
         id="stop9192" />
      <stop
         offset="100%"
         style="stop-color:#ad6c16; stop-opacity:1"
         id="stop9194" />
    </linearGradient>
    <linearGradient
       id="aurora"
       x1="0%"
       x2="0%"
       y1="0%"
       y2="100%">
      <stop
         offset="0%"
         style="stop-color:#09D4DF; stop-opacity:1"
         id="stop9197" />
      <stop
         offset="100%"
         style="stop-color:#9269F4; stop-opacity:1"
         id="stop9199" />
    </linearGradient>
    <linearGradient
       id="cyberneon"
       x1="0%"
       x2="0%"
       y1="0%"
       y2="100%">
      <stop
         offset="0"
         style="stop-color:#0abdc6; stop-opacity:1"
         id="stop9202" />
      <stop
         offset="1"
         style="stop-color:#ea00d9; stop-opacity:1"
         id="stop9204" />
    </linearGradient>
    <linearGradient
       id="fitdance"
       x1="0%"
       x2="0%"
       y1="0%"
       y2="100%">
      <stop
         offset="0%"
         style="stop-color:#1AD6AB; stop-opacity:1"
         id="stop9207" />
      <stop
         offset="100%"
         style="stop-color:#329DB6; stop-opacity:1"
         id="stop9209" />
    </linearGradient>
    <linearGradient
       id="oomox"
       x1="0%"
       x2="0%"
       y1="0%"
       y2="100%">
      <stop
         offset="0%"
         style="stop-color:#0abdc6; stop-opacity:1"
         id="stop9212" />
      <stop
         offset="100%"
         style="stop-color:#b800ff; stop-opacity:1"
         id="stop9214" />
    </linearGradient>
    <linearGradient
       id="rainblue"
       x1="0%"
       x2="0%"
       y1="0%"
       y2="100%">
      <stop
         offset="0%"
         style="stop-color:#00F260; stop-opacity:1"
         id="stop9217" />
      <stop
         offset="100%"
         style="stop-color:#0575E6; stop-opacity:1"
         id="stop9219" />
    </linearGradient>
    <linearGradient
       id="sunrise"
       x1="0%"
       x2="0%"
       y1="0%"
       y2="100%">
      <stop
         offset="0%"
         style="stop-color: #FF8501; stop-opacity:1"
         id="stop9222" />
      <stop
         offset="100%"
         style="stop-color: #FFCB01; stop-opacity:1"
         id="stop9224" />
    </linearGradient>
    <linearGradient
       id="telinkrin"
       x1="0%"
       x2="0%"
       y1="0%"
       y2="100%">
      <stop
         offset="0%"
         style="stop-color: #b2ced6; stop-opacity:1"
         id="stop9227" />
      <stop
         offset="100%"
         style="stop-color: #6da5b7; stop-opacity:1"
         id="stop9229" />
    </linearGradient>
    <linearGradient
       id="60spsycho"
       x1="0%"
       x2="0%"
       y1="0%"
       y2="100%">
      <stop
         offset="0%"
         style="stop-color: #df5940; stop-opacity:1"
         id="stop9232" />
      <stop
         offset="25%"
         style="stop-color: #d8d15f; stop-opacity:1"
         id="stop9234" />
      <stop
         offset="50%"
         style="stop-color: #e9882a; stop-opacity:1"
         id="stop9236" />
      <stop
         offset="100%"
         style="stop-color: #279362; stop-opacity:1"
         id="stop9238" />
    </linearGradient>
    <linearGradient
       id="90ssummer"
       x1="0%"
       x2="0%"
       y1="0%"
       y2="100%">
      <stop
         offset="0%"
         style="stop-color: #f618c7; stop-opacity:1"
         id="stop9241" />
      <stop
         offset="20%"
         style="stop-color: #94ffab; stop-opacity:1"
         id="stop9243" />
      <stop
         offset="50%"
         style="stop-color: #fbfd54; stop-opacity:1"
         id="stop9245" />
      <stop
         offset="100%"
         style="stop-color: #0f83ae; stop-opacity:1"
         id="stop9247" />
    </linearGradient></defs><path
     style="display:inline;fill:url(#oomox);fill-opacity:1;stroke-width:0.145143"
     d="M 6.0279297,47.196644 C 5.0254574,46.68852 4.793187,46.154779 4.8120485,44.402638 4.843556,41.47573 6.085279,36.533607 9.4434425,25.969464 11.617136,19.131441 11.639446,19.04755 11.913768,16.680303 c 0.459184,-3.962462 1.22848,-9.7723027 1.441136,-10.8836663 0.341402,-1.7842143 0.76631,-2.8953868 1.475638,-3.8589389 0.764498,-1.03849847 1.487876,-1.43290094 2.636827,-1.43766239 2.360869,-0.009819 2.790735,2.02016609 1.401359,6.61763059 -0.58274,1.9282912 -1.764683,5.089806 -2.673404,7.150938 -0.330271,0.749114 -0.903202,2.218686 -1.273181,3.265721 -0.658771,1.864312 -0.672881,1.941237 -0.682053,3.717987 -0.0086,1.664954 0.02193,1.88103 0.370885,2.625128 0.719829,1.534962 2.04157,2.456669 3.984605,2.778642 2.030218,0.336416 3.571175,-0.272944 5.638959,-2.22989 1.751716,-1.657821 2.939626,-3.230516 3.921312,-5.191496 1.424821,-2.846174 1.736692,-3.905614 2.767541,-9.4014376 0.521457,-2.7800787 1.07966,-5.4536672 1.24045,-5.9413055 0.761511,-2.3094635 2.292653,-3.58367941 3.998826,-3.32782229 1.365422,0.20475771 1.961448,1.06837459 1.956979,2.83557939 -0.0053,2.1155792 -1.947121,7.819181 -5.040173,14.804598 l -0.996145,2.249718 0.01568,1.378858 c 0.01189,1.034265 0.0937,1.58124 0.327733,2.188664 0.807107,2.094828 2.759302,3.181133 4.975878,2.768843 2.503835,-0.465721 3.914121,-2.049887 4.87809,-5.479533 0.316607,-1.126432 0.433148,-1.364835 0.6672,-1.364835 0.271814,0 0.279685,0.07983 0.189591,1.923148 -0.187469,3.835536 -1.044095,6.161489 -2.987469,8.111713 -0.985024,0.988495 -1.213944,1.142311 -2.113656,1.420203 -1.094972,0.338205 -2.969302,0.421699 -3.817383,0.170045 -1.380554,-0.409645 -2.378029,-1.59058 -2.892523,-3.424526 -0.263641,-0.939766 -0.404997,-4.279955 -0.222664,-5.261438 0.208764,-1.123755 -0.08305,-0.96903 -0.689671,0.365671 -1.35286,2.976601 -3.727058,5.677164 -6.326339,7.195981 -1.857864,1.085592 -4.631861,1.681899 -6.456872,1.38799 -2.096852,-0.337687 -3.599552,-1.736534 -4.443489,-4.136386 -0.385313,-1.095693 -0.403772,-1.269951 -0.402268,-3.797256 0.0014,-2.426653 -0.01973,-2.648861 -0.252445,-2.648861 -0.325334,0 -0.554154,0.456715 -1.125505,2.246462 -1.132279,3.546842 -2.1424563,8.548392 -2.7590188,13.660347 l -0.2992459,2.481073 0.3681232,1.36522 c 0.7279639,2.699708 0.8367002,3.394278 0.6602132,4.217204 -0.4216603,1.966139 -1.7825675,2.768209 -3.349409,1.974026 z"
     id="path210"
     class="ColorScheme-Text" /></svg>
