<?xml version="1.0" encoding="UTF-8" standalone="no"?>
<svg
   height="16"
   viewBox="0 0 16 16"
   width="16"
   version="1.1"
   id="svg44"
   xmlns="http://www.w3.org/2000/svg"
   xmlns:svg="http://www.w3.org/2000/svg"
   xmlns:rdf="http://www.w3.org/1999/02/22-rdf-syntax-ns#"
   xmlns:cc="http://creativecommons.org/ns#"
   xmlns:dc="http://purl.org/dc/elements/1.1/">
  <defs>
   <style id="current-color-scheme" type="text/css">
   .ColorScheme-Text { color: #0abdc6; } .ColorScheme-Highlight { color:#5294e2; }
  </style>
  <linearGradient id="arrongin" x1="0%" x2="0%" y1="0%" y2="100%">
   <stop offset="0%" style="stop-color:#dd9b44; stop-opacity:1"/>
   <stop offset="100%" style="stop-color:#ad6c16; stop-opacity:1"/>
  </linearGradient>
  <linearGradient id="aurora" x1="0%" x2="0%" y1="0%" y2="100%">
   <stop offset="0%" style="stop-color:#09D4DF; stop-opacity:1"/>
   <stop offset="100%" style="stop-color:#9269F4; stop-opacity:1"/>
  </linearGradient>
  <linearGradient id="cyberneon" x1="0%" x2="0%" y1="0%" y2="100%">
    <stop offset="0" style="stop-color:#0abdc6; stop-opacity:1"/>
    <stop offset="1" style="stop-color:#ea00d9; stop-opacity:1"/>
  </linearGradient>
  <linearGradient id="fitdance" x1="0%" x2="0%" y1="0%" y2="100%">
   <stop offset="0%" style="stop-color:#1AD6AB; stop-opacity:1"/>
   <stop offset="100%" style="stop-color:#329DB6; stop-opacity:1"/>
  </linearGradient>
  <linearGradient id="oomox" x1="0%" x2="0%" y1="0%" y2="100%">
   <stop offset="0%" style="stop-color:#0abdc6; stop-opacity:1"/>
   <stop offset="100%" style="stop-color:#b800ff; stop-opacity:1"/>
  </linearGradient>
  <linearGradient id="rainblue" x1="0%" x2="0%" y1="0%" y2="100%">
   <stop offset="0%" style="stop-color:#00F260; stop-opacity:1"/>
   <stop offset="100%" style="stop-color:#0575E6; stop-opacity:1"/>
  </linearGradient>
  <linearGradient id="sunrise" x1="0%" x2="0%" y1="0%" y2="100%">
   <stop offset="0%" style="stop-color: #FF8501; stop-opacity:1"/>
   <stop offset="100%" style="stop-color: #FFCB01; stop-opacity:1"/>
  </linearGradient>
  <linearGradient id="telinkrin" x1="0%" x2="0%" y1="0%" y2="100%">
   <stop offset="0%" style="stop-color: #b2ced6; stop-opacity:1"/>
   <stop offset="100%" style="stop-color: #6da5b7; stop-opacity:1"/>
  </linearGradient>
  <linearGradient id="60spsycho" x1="0%" x2="0%" y1="0%" y2="100%">
   <stop offset="0%" style="stop-color: #df5940; stop-opacity:1"/>
   <stop offset="25%" style="stop-color: #d8d15f; stop-opacity:1"/>
   <stop offset="50%" style="stop-color: #e9882a; stop-opacity:1"/>
   <stop offset="100%" style="stop-color: #279362; stop-opacity:1"/>
  </linearGradient>
  <linearGradient id="90ssummer" x1="0%" x2="0%" y1="0%" y2="100%">
   <stop offset="0%" style="stop-color: #f618c7; stop-opacity:1"/>
   <stop offset="20%" style="stop-color: #94ffab; stop-opacity:1"/>
   <stop offset="50%" style="stop-color: #fbfd54; stop-opacity:1"/>
   <stop offset="100%" style="stop-color: #0f83ae; stop-opacity:1"/>
  </linearGradient>
 </defs>
  <path
     id="path21"
     class="ColorScheme-Text"
     style="fill:url(#oomox);stroke-width:0.142857"
     d="m 4.5714287,13.939726 c -0.6311378,0 -1.1428571,-1.341901 -1.1428571,-0.710763 v 1.62818 C 3.4285716,15.48828 3.9402909,16 4.5714287,16 h 8.0000003 c 0.631138,0 1.142857,-0.51172 1.142857,-1.142857 v -1.62818 c 0,-0.631138 -0.511719,0.710763 -1.142857,0.710763 z m 3.6428572,0.77456 h 0.7142857 c 0.1981026,0 0.3571429,0.15904 0.3571429,0.357143 0,0.198102 -0.1590403,0.357142 -0.3571429,0.357142 H 8.2142859 c -0.1981026,0 -0.3571429,-0.15904 -0.3571429,-0.357142 0,-0.198103 0.1590403,-0.357143 0.3571429,-0.357143 z m -2.1428572,0.142857 c 0.1183035,0 0.2142858,0.09598 0.2142858,0.214286 0,0.118302 -0.095982,0.214285 -0.2142858,0.214285 -0.1183034,0 -0.2142857,-0.09598 -0.2142857,-0.214285 0,-0.118303 0.095982,-0.214286 0.2142857,-0.214286 z m 0.5714286,0 c 0.1183034,0 0.2142857,0.09598 0.2142857,0.214286 0,0.118302 -0.095982,0.214285 -0.2142857,0.214285 -0.1183034,0 -0.2142857,-0.09598 -0.2142857,-0.214285 0,-0.118303 0.095982,-0.214286 0.2142857,-0.214286 z m 0.5714286,0 c 0.1183034,0 0.2142857,0.09598 0.2142857,0.214286 0,0.118302 -0.095982,0.214285 -0.2142857,0.214285 -0.1183034,0 -0.2142857,-0.09598 -0.2142857,-0.214285 0,-0.118303 0.095982,-0.214286 0.2142857,-0.214286 z m 2.7142857,0 c 0.1183034,0 0.2142854,0.09598 0.2142854,0.214286 0,0.118302 -0.09598,0.214285 -0.2142854,0.214285 -0.1183034,0 -0.2142857,-0.09598 -0.2142857,-0.214285 0,-0.118303 0.095982,-0.214286 0.2142857,-0.214286 z m 0.5714284,0 c 0.118304,0 0.214286,0.09598 0.214286,0.214286 0,0.118302 -0.09598,0.214285 -0.214286,0.214285 -0.118303,0 -0.214285,-0.09598 -0.214285,-0.214285 0,-0.118303 0.09598,-0.214286 0.214285,-0.214286 z m 0.571429,0 c 0.118303,0 0.214286,0.09598 0.214286,0.214286 0,0.118302 -0.09598,0.214285 -0.214286,0.214285 -0.118304,0 -0.214286,-0.09598 -0.214286,-0.214285 0,-0.118303 0.09598,-0.214286 0.214286,-0.214286 z" />
  <path
     id="path22"
     class="ColorScheme-Text"
     style="font-variation-settings:normal;opacity:1;vector-effect:none;fill:url(#oomox);fill-opacity:1;stroke-width:0.142857;stroke-linecap:butt;stroke-linejoin:miter;stroke-miterlimit:4;stroke-dasharray:none;stroke-dashoffset:0;stroke-opacity:1;-inkscape-stroke:none;stop-color:#000000;stop-opacity:1"
     d="M 4.5714287,0 C 3.9402909,0 3.4285716,0.51171929 3.4285716,1.1428571 V 13.142857 c 0,0.631137 0.5117193,1.142857 1.1428571,1.142857 h 8.0000003 c 0.631138,0 1.142857,-0.51172 1.142857,-1.142857 V 1.1428571 C 13.714286,0.51171929 13.202567,0 12.571429,0 Z m 0,0.57142857 h 8.0000003 c 0.315848,0 0.571428,0.25558057 0.571428,0.57142853 V 13.142857 c 0,0.315849 -0.25558,0.571429 -0.571428,0.571429 H 4.5714287 c -0.315848,0 -0.5714285,-0.25558 -0.5714285,-0.571429 V 1.1428571 c 0,-0.31584796 0.2555805,-0.57142853 0.5714285,-0.57142853 z" />
  <path
     id="path34"
     style="opacity:0.2;fill:url(#oomox);fill-opacity:1;stroke-width:0.142857"
     class="ColorScheme-Text"
     d="M 7.3496094 5.7148438 C 7.8966307 5.9151092 8.2871094 6.4401861 8.2871094 7.0566406 C 8.2871094 7.8457023 7.6464841 8.4863281 6.8574219 8.4863281 C 6.0722514 8.4863281 5.4359511 7.852051 5.4296875 7.0683594 C 5.4284534 7.0927105 5.4277344 7.1179199 5.4277344 7.1425781 C 5.4277344 7.9316399 6.0683602 8.5722656 6.8574219 8.5722656 L 10.285156 8.5722656 C 11.074217 8.5722656 11.714844 7.9316399 11.714844 7.1425781 C 11.714844 6.3535164 11.074217 5.7148437 10.285156 5.7148438 L 7.3496094 5.7148438 z " />
  <path
     id="path34-1"
     style="opacity:0.5;fill:url(#oomox);fill-opacity:1;stroke-width:0.142857"
     class="ColorScheme-Text"
     d="M 6.8574219 2 C 6.0683598 2 5.4296875 2.6386727 5.4296875 3.4277344 C 5.4296875 4.2167962 6.0683598 4.8574219 6.8574219 4.8574219 L 10.287109 4.8574219 C 11.076171 4.8574219 11.714844 4.2167962 11.714844 3.4277344 C 11.714844 3.4130655 11.71333 3.399328 11.712891 3.3847656 C 11.690317 4.1540706 11.059896 4.7714844 10.285156 4.7714844 C 9.496134 4.7714844 8.8574219 4.1308587 8.8574219 3.3417969 C 8.8574219 2.7253424 9.2479282 2.2002654 9.7949219 2 L 6.8574219 2 z " />
  <path
     d="m 8.857143,3.1428571 c 0,0.7890626 0.6395089,1.4285715 1.428572,1.4285715 0.789062,0 1.428571,-0.6395089 1.428571,-1.4285715 0,-0.7890625 -0.639509,-1.4285714 -1.428571,-1.4285714 -0.7890631,0 -1.428572,0.6395089 -1.428572,1.4285714 z m 0,0"
     style="fill:url(#oomox);stroke-width:0.142857"
     id="path33"
     class="ColorScheme-Text" />
  <path
     d="m 8.2857145,6.8571429 c 0,0.7890625 -0.6395089,1.4285714 -1.4285715,1.4285714 -0.7890625,0 -1.4285714,-0.6395089 -1.4285714,-1.4285714 0,-0.7890626 0.6395089,-1.4285715 1.4285714,-1.4285715 0.7890626,0 1.4285715,0.6395089 1.4285715,1.4285715 z m 0,0"
     style="fill:url(#oomox);stroke-width:0.142857"
     id="path37"
     class="ColorScheme-Text" />
  <path
     id="path34-18"
     style="opacity:0.5;fill:url(#oomox);fill-opacity:1;stroke-width:0.142857"
     class="ColorScheme-Text"
     d="M 6.8574219 9.4296875 C 6.0683607 9.4296875 5.4296875 10.068361 5.4296875 10.857422 C 5.4296875 11.646484 6.0683607 12.287109 6.8574219 12.287109 L 10.287109 12.287109 C 11.076171 12.287109 11.714844 11.646484 11.714844 10.857422 C 11.714844 10.843139 11.713307 10.828635 11.712891 10.814453 C 11.690316 11.583758 11.059934 12.199219 10.285156 12.199219 C 9.4960938 12.199219 8.8574219 11.560546 8.8574219 10.771484 C 8.8574219 10.155029 9.2479005 9.629953 9.7949219 9.4296875 L 6.8574219 9.4296875 z " />
  <path
     d="M 8.857143,10.571429 C 8.857143,11.360491 9.4966519,12 10.285715,12 c 0.789062,0 1.428571,-0.639509 1.428571,-1.428571 0,-0.789063 -0.639509,-1.4285719 -1.428571,-1.4285719 -0.7890631,0 -1.428572,0.6395089 -1.428572,1.4285719 z m 0,0"
     style="fill:url(#oomox);stroke-width:0.142857"
     id="path41"
     class="ColorScheme-Text" />
  <metadata
     id="metadata42">
    <rdf:RDF>
      <cc:Work
         rdf:about="">
        <dc:creator>
          <cc:Agent>
            <dc:title>dreifacherspass</dc:title>
          </cc:Agent>
        </dc:creator>
        <cc:license
           rdf:resource="http://creativecommons.org/licenses/by-sa/4.0/" />
      </cc:Work>
      <cc:License
         rdf:about="http://creativecommons.org/licenses/by-sa/4.0/">
        <cc:permits
           rdf:resource="http://creativecommons.org/ns#Reproduction" />
        <cc:permits
           rdf:resource="http://creativecommons.org/ns#Distribution" />
        <cc:requires
           rdf:resource="http://creativecommons.org/ns#Notice" />
        <cc:requires
           rdf:resource="http://creativecommons.org/ns#Attribution" />
        <cc:permits
           rdf:resource="http://creativecommons.org/ns#DerivativeWorks" />
        <cc:requires
           rdf:resource="http://creativecommons.org/ns#ShareAlike" />
      </cc:License>
    </rdf:RDF>
  </metadata>
</svg>
