<?xml version="1.0" encoding="UTF-8" standalone="no"?>
<svg
   width="48"
   height="48"
   version="1.1"
   id="svg14732"
   xmlns:xlink="http://www.w3.org/1999/xlink"
   xmlns="http://www.w3.org/2000/svg"
   xmlns:svg="http://www.w3.org/2000/svg"
   xmlns:rdf="http://www.w3.org/1999/02/22-rdf-syntax-ns#"
   xmlns:cc="http://creativecommons.org/ns#"
   xmlns:dc="http://purl.org/dc/elements/1.1/">
  <defs
     id="defs14728">
    <style
       id="current-color-scheme"
       type="text/css">
   .ColorScheme-Text { color: #0abdc6; } .ColorScheme-Highlight { color:#5294e2; }
  </style>
    <linearGradient
       id="arrongin"
       x1="0"
       x2="0"
       y1="0"
       y2="1">
      <stop
         offset="0%"
         style="stop-color:#dd9b44; stop-opacity:1"
         id="stop14670" />
      <stop
         offset="100%"
         style="stop-color:#ad6c16; stop-opacity:1"
         id="stop14672" />
    </linearGradient>
    <linearGradient
       id="aurora"
       x1="0"
       x2="0"
       y1="0"
       y2="1">
      <stop
         offset="0%"
         style="stop-color:#09D4DF; stop-opacity:1"
         id="stop14675" />
      <stop
         offset="100%"
         style="stop-color:#9269F4; stop-opacity:1"
         id="stop14677" />
    </linearGradient>
    <linearGradient
       id="cyberneon"
       x1="0"
       x2="0"
       y1="0"
       y2="1">
      <stop
         offset="0"
         style="stop-color:#0abdc6; stop-opacity:1"
         id="stop14680" />
      <stop
         offset="1"
         style="stop-color:#ea00d9; stop-opacity:1"
         id="stop14682" />
    </linearGradient>
    <linearGradient
       id="fitdance"
       x1="0"
       x2="0"
       y1="0"
       y2="1">
      <stop
         offset="0%"
         style="stop-color:#1AD6AB; stop-opacity:1"
         id="stop14685" />
      <stop
         offset="100%"
         style="stop-color:#329DB6; stop-opacity:1"
         id="stop14687" />
    </linearGradient>
    <linearGradient
       id="oomox"
       x1="0"
       x2="0"
       y1="0"
       y2="1">
      <stop
         offset="0%"
         style="stop-color:#0abdc6; stop-opacity:1"
         id="stop14690" />
      <stop
         offset="100%"
         style="stop-color:#b800ff; stop-opacity:1"
         id="stop14692" />
    </linearGradient>
    <linearGradient
       id="rainblue"
       x1="0"
       x2="0"
       y1="0"
       y2="1">
      <stop
         offset="0%"
         style="stop-color:#00F260; stop-opacity:1"
         id="stop14695" />
      <stop
         offset="100%"
         style="stop-color:#0575E6; stop-opacity:1"
         id="stop14697" />
    </linearGradient>
    <linearGradient
       id="sunrise"
       x1="0"
       x2="0"
       y1="0"
       y2="1">
      <stop
         offset="0%"
         style="stop-color: #FF8501; stop-opacity:1"
         id="stop14700" />
      <stop
         offset="100%"
         style="stop-color: #FFCB01; stop-opacity:1"
         id="stop14702" />
    </linearGradient>
    <linearGradient
       id="telinkrin"
       x1="0"
       x2="0"
       y1="0"
       y2="1">
      <stop
         offset="0%"
         style="stop-color: #b2ced6; stop-opacity:1"
         id="stop14705" />
      <stop
         offset="100%"
         style="stop-color: #6da5b7; stop-opacity:1"
         id="stop14707" />
    </linearGradient>
    <linearGradient
       id="60spsycho"
       x1="0"
       x2="0"
       y1="0"
       y2="1">
      <stop
         offset="0%"
         style="stop-color: #df5940; stop-opacity:1"
         id="stop14710" />
      <stop
         offset="25%"
         style="stop-color: #d8d15f; stop-opacity:1"
         id="stop14712" />
      <stop
         offset="50%"
         style="stop-color: #e9882a; stop-opacity:1"
         id="stop14714" />
      <stop
         offset="100%"
         style="stop-color: #279362; stop-opacity:1"
         id="stop14716" />
    </linearGradient>
    <linearGradient
       id="90ssummer"
       x1="0"
       x2="0"
       y1="0"
       y2="1">
      <stop
         offset="0%"
         style="stop-color: #f618c7; stop-opacity:1"
         id="stop14719" />
      <stop
         offset="20%"
         style="stop-color: #94ffab; stop-opacity:1"
         id="stop14721" />
      <stop
         offset="50%"
         style="stop-color: #fbfd54; stop-opacity:1"
         id="stop14723" />
      <stop
         offset="100%"
         style="stop-color: #0f83ae; stop-opacity:1"
         id="stop14725" />
    </linearGradient>
  </defs>
  <metadata
     id="metadata405">
    <rdf:RDF>
      <cc:Work
         rdf:about="">
        <dc:creator>
          <cc:Agent>
            <dc:title>dreifacherspass</dc:title>
          </cc:Agent>
        </dc:creator>
        <cc:license
           rdf:resource="http://creativecommons.org/licenses/by-sa/4.0/" />
      </cc:Work>
      <cc:License
         rdf:about="http://creativecommons.org/licenses/by-sa/4.0/">
        <cc:permits
           rdf:resource="http://creativecommons.org/ns#Reproduction" />
        <cc:permits
           rdf:resource="http://creativecommons.org/ns#Distribution" />
        <cc:requires
           rdf:resource="http://creativecommons.org/ns#Notice" />
        <cc:requires
           rdf:resource="http://creativecommons.org/ns#Attribution" />
        <cc:permits
           rdf:resource="http://creativecommons.org/ns#DerivativeWorks" />
        <cc:requires
           rdf:resource="http://creativecommons.org/ns#ShareAlike" />
      </cc:License>
    </rdf:RDF>
  </metadata>
  <path
     class="ColorScheme-Text"
     d="m 35.565443,8.8465439 c -0.122871,0.02633 -0.236964,0.08952 -0.322971,0.182551 L 23.346923,20.894898 c -0.24223,0.242232 -0.24223,0.633663 0,0.875893 l 1.813206,1.809711 c 0.115848,0.11585 0.273824,0.180796 0.438821,0.180796 0.164996,0 0.322972,-0.0667 0.438821,-0.182551 L 37.863108,11.658528 c 0.240474,-0.24223 0.238719,-0.631906 -0.0035,-0.872382 L 36.118384,9.0290949 c -0.117606,-0.11585 -0.273825,-0.182551 -0.438821,-0.182551 -0.03686,-0.007 -0.07548,-0.007 -0.114094,0 z M 21.756637,21.826961 c -0.15622,-0.0052 -0.307175,0.04915 -0.426534,0.150955 l -6.810496,5.797745 c -0.131645,0.112339 -0.210633,0.273826 -0.219409,0.445845 -0.007,0.173775 0.05792,0.340528 0.180793,0.463399 l 0.191326,0.191326 c -1.14971,1.174294 -4.663785,4.942915 -4.7024006,7.407351 l -0.01229,0.628397 h 0.6283906 c 2.541649,0 6.257581,-3.531657 7.423088,-4.697174 l 0.184305,0.184307 c 0.115847,0.115849 0.273824,0.180795 0.437066,0.180795 h 0.02984 c 0.173773,-0.0088 0.33526,-0.08952 0.447597,-0.222922 l 5.725731,-6.889539 c 0.205368,-0.247497 0.18606,-0.607333 -0.03862,-0.83201 l -2.625899,-2.625924 c -0.108827,-0.110583 -0.256271,-0.175529 -0.412491,-0.18255 z m -6.215455,7.919897 1.599062,1.59732 c -1.339281,1.318228 -3.952896,3.614156 -5.78541,4.195159 0.602062,-1.800934 2.878663,-4.433879 4.186348,-5.792479 z"
     id="path4387"
     style="fill:url(#oomox);stroke-width:1.75529"
     transform="matrix(1.6735063,0,0,1.6735063,-16.16415,-14.295961)" />
  <path
     class="ColorScheme-Text"
     d="M 26.551803,10.322341 C 26.38167,10.220626 27.711846,8.6693346 28.038532,8.8375679 28.515855,9.3109641 26.530284,10.359506 26.551803,10.322341 Z M 25.626504,9.2581559 c -0.0313,-0.1076082 1.907317,-1.2793749 2.187066,-1.0113642 0.504698,0.183881 -2.169451,1.1463345 -2.187066,1.0113642 z M 24.922268,5.7819457 c 0.215202,0.9292108 0.551674,1.2226394 1.55911,1.1932968 -1.281309,1.1756867 -2.061864,-0.837263 -1.55911,-1.1932968 z m 1.136563,-0.3501648 c 0.279744,0 0.506668,0.258222 0.506668,0.577086 0,0.3169118 -0.226924,0.5751329 -0.506668,0.5751329 -0.279727,0 -0.506639,-0.2582211 -0.506639,-0.5751329 0,-0.318864 0.226912,-0.577086 0.506639,-0.577086 z M 25.31351,4.2873899 C 25.268554,4.1837101 25.571729,0.51774668 23.862003,1.1945993 22.809549,1.5858446 23.666379,3.9215752 23.734785,4.2247929 23.797385,4.5025742 23.267256,4.4712746 23.167474,4.3499902 22.944528,4.078075 22.207037,1.644532 21.336519,2.0788141 20.117792,2.7517543 21.266084,4.8507824 21.02155,4.9192497 20.569673,5.1716033 20.595103,5.7878145 20.233201,6.2905642 19.636529,7.14543 15.164624,5.889539 13.720922,5.8015076 12.662609,5.7389076 11.651246,6.6055134 11.555385,6.495969 10.26819,5.2068158 7.6038326,2.9610698 4.6831719,2.2137922 3.0458152,1.7697298 0.61030755,0.48449177 0.51251018,0.50014168 0.346281,0.59208329 1.8427526,1.5662823 4.6362229,2.7165417 7.4316826,3.8668017 11.291298,6.7815815 10.988086,7.2530234 10.08039,8.5323977 9.5463341,10.060199 9.9160659,12.679589 c 0.06649,0.461672 -1.3673945,1.261761 -1.261777,1.956227 0.086165,0.530126 1.6002091,-0.524271 1.7664861,-0.314969 0.101664,0.373653 -0.8098765,2.263364 -0.4421093,2.398344 0.2699673,0.08019 2.6389473,-2.247699 2.7758973,-2.208574 3.906567,1.179596 8.988837,0.289523 9.086653,0.252352 -0.0078,-0.02167 3.658117,1.721472 3.977005,1.514115 0.804004,-0.870514 -1.523907,-2.097086 -1.136572,-2.588082 0.170172,-0.256263 2.834571,0.964418 2.965634,0.631845 0.191704,-0.577075 -1.236331,-1.787978 -1.451529,-2.145954 -0.185788,-0.330609 -0.226923,-0.864659 0.252369,-1.19918 C 26.9274,10.641204 31.827737,8.7671427 31.622333,7.3156234 31.268259,4.6805903 25.407409,4.5084425 25.31351,4.2873899 Z M 31.796437,3.1429988 C 31.634007,3.009975 30.366452,5.011193 30.646178,5.2185532 30.816351,5.3457027 31.868815,3.2153799 31.796437,3.1429988 Z"
     id="path2006"
     style="color:#0abdc6;fill:url(#oomox);stroke-width:1.95624" />
</svg>
