<?xml version="1.0" encoding="UTF-8" standalone="no"?>
<!-- Created with Inkscape (http://www.inkscape.org/) -->

<svg
   width="16"
   height="16"
   viewBox="0 0 4.2333333 4.2333333"
   version="1.1"
   id="svg917"
   xmlns="http://www.w3.org/2000/svg"
   xmlns:svg="http://www.w3.org/2000/svg"
   xmlns:rdf="http://www.w3.org/1999/02/22-rdf-syntax-ns#"
   xmlns:cc="http://creativecommons.org/ns#"
   xmlns:dc="http://purl.org/dc/elements/1.1/">
  <defs>
   <style id="current-color-scheme" type="text/css">
   .ColorScheme-Text { color: #0abdc6; } .ColorScheme-Highlight { color:#5294e2; }
  </style>
  <linearGradient id="arrongin" x1="0%" x2="0%" y1="0%" y2="100%">
   <stop offset="0%" style="stop-color:#dd9b44; stop-opacity:1"/>
   <stop offset="100%" style="stop-color:#ad6c16; stop-opacity:1"/>
  </linearGradient>
  <linearGradient id="aurora" x1="0%" x2="0%" y1="0%" y2="100%">
   <stop offset="0%" style="stop-color:#09D4DF; stop-opacity:1"/>
   <stop offset="100%" style="stop-color:#9269F4; stop-opacity:1"/>
  </linearGradient>
  <linearGradient id="cyberneon" x1="0%" x2="0%" y1="0%" y2="100%">
    <stop offset="0" style="stop-color:#0abdc6; stop-opacity:1"/>
    <stop offset="1" style="stop-color:#ea00d9; stop-opacity:1"/>
  </linearGradient>
  <linearGradient id="fitdance" x1="0%" x2="0%" y1="0%" y2="100%">
   <stop offset="0%" style="stop-color:#1AD6AB; stop-opacity:1"/>
   <stop offset="100%" style="stop-color:#329DB6; stop-opacity:1"/>
  </linearGradient>
  <linearGradient id="oomox" x1="0%" x2="0%" y1="0%" y2="100%">
   <stop offset="0%" style="stop-color:#0abdc6; stop-opacity:1"/>
   <stop offset="100%" style="stop-color:#b800ff; stop-opacity:1"/>
  </linearGradient>
  <linearGradient id="rainblue" x1="0%" x2="0%" y1="0%" y2="100%">
   <stop offset="0%" style="stop-color:#00F260; stop-opacity:1"/>
   <stop offset="100%" style="stop-color:#0575E6; stop-opacity:1"/>
  </linearGradient>
  <linearGradient id="sunrise" x1="0%" x2="0%" y1="0%" y2="100%">
   <stop offset="0%" style="stop-color: #FF8501; stop-opacity:1"/>
   <stop offset="100%" style="stop-color: #FFCB01; stop-opacity:1"/>
  </linearGradient>
  <linearGradient id="telinkrin" x1="0%" x2="0%" y1="0%" y2="100%">
   <stop offset="0%" style="stop-color: #b2ced6; stop-opacity:1"/>
   <stop offset="100%" style="stop-color: #6da5b7; stop-opacity:1"/>
  </linearGradient>
  <linearGradient id="60spsycho" x1="0%" x2="0%" y1="0%" y2="100%">
   <stop offset="0%" style="stop-color: #df5940; stop-opacity:1"/>
   <stop offset="25%" style="stop-color: #d8d15f; stop-opacity:1"/>
   <stop offset="50%" style="stop-color: #e9882a; stop-opacity:1"/>
   <stop offset="100%" style="stop-color: #279362; stop-opacity:1"/>
  </linearGradient>
  <linearGradient id="90ssummer" x1="0%" x2="0%" y1="0%" y2="100%">
   <stop offset="0%" style="stop-color: #f618c7; stop-opacity:1"/>
   <stop offset="20%" style="stop-color: #94ffab; stop-opacity:1"/>
   <stop offset="50%" style="stop-color: #fbfd54; stop-opacity:1"/>
   <stop offset="100%" style="stop-color: #0f83ae; stop-opacity:1"/>
  </linearGradient>
 </defs>
  <path
     id="rect3"
     class="ColorScheme-Text"
     style="opacity:0.2;fill:url(#oomox);stroke:none;stroke-width:0.708817"
     d="M 0.38343912 0.85369465 L 0.38343912 3.9429118 L 3.6834961 3.9429118 L 3.6834961 0.85369465 L 3.6126994 0.85369465 L 1.153418 3.2954061 L 0.93224283 3.0747477 L 0.93172607 3.0742309 L 0.71055094 2.8530558 L 2.7243815 0.85369465 L 0.38343912 0.85369465 z " />
  <path
     id="rect1167"
     class="ColorScheme-Text"
     style="display:inline;vector-effect:none;fill:url(#oomox);fill-opacity:1;stroke:none;stroke-width:0.528726;stroke-linecap:butt;stroke-linejoin:miter;stroke-miterlimit:4;stroke-dasharray:none;stroke-dashoffset:0;stroke-opacity:1;marker:none;marker-start:none;marker-mid:none;marker-end:none;paint-order:normal;enable-background:new"
     d="m 0.37387968,3.6239624 v 0.2924201 c 0,0.1755433 0.13388474,0.3169509 0.30008993,0.3169509 H 3.3739374 c 0.1662053,0 0.3000902,-0.1414076 0.3000902,-0.3169509 V 3.6239624 c 0,0.162 -0.1338849,0.2924201 -0.3000902,0.2924201 H 0.67396961 c -0.16620519,0 -0.30008993,-0.1304201 -0.30008993,-0.2924201 z" />
  <path
     id="path1543-7"
     class="ColorScheme-Text"
     style="fill:url(#oomox);fill-opacity:1;stroke:none;stroke-width:0;stroke-linecap:butt;stroke-linejoin:round;stroke-dasharray:none;stroke-opacity:1;paint-order:markers fill stroke;stop-color:#000000"
     d="M 0.38343912 0 L 0.38343912 0.32917887 L 0.38343912 0.85369465 L 0.39997558 0.85369465 L 2.7243815 0.85369465 L 3.4338989 0.14934489 L 3.653007 0.37207031 L 3.6535237 0.37258707 L 3.6834961 0.40204264 L 3.6834961 0 L 0.59996337 0 L 0.38343912 0 z M 1.3218831 0.079064941 C 1.3262231 0.078337053 1.4346073 0.13579137 1.5074015 0.15554606 C 1.6372077 0.188718 1.7555393 0.28836453 1.8128092 0.34571533 C 1.8170592 0.35062431 1.8624102 0.31193237 1.9094442 0.31470947 C 1.973689 0.31860047 2.1722721 0.37447779 2.1988322 0.33641357 C 2.2149382 0.31406751 2.2138782 0.28666496 2.2339722 0.27543538 C 2.24479 0.27240838 2.1936908 0.17924742 2.2479248 0.14934489 C 2.2865946 0.13001823 2.3196457 0.2385052 2.3295735 0.25063069 C 2.3340235 0.25605569 2.3571762 0.25730525 2.3543782 0.24494629 C 2.3513482 0.23152101 2.3132578 0.12749225 2.3600626 0.1100708 C 2.4360856 0.07996638 2.4226792 0.24289629 2.4246582 0.24753011 C 2.4288682 0.25739509 2.6894625 0.26520113 2.7052612 0.3824056 C 2.7144012 0.44690896 2.496614 0.53033192 2.4753011 0.54518636 C 2.4539951 0.56004062 2.4556233 0.58371212 2.4639323 0.59841308 C 2.4734823 0.61435746 2.5370208 0.66786606 2.5285278 0.69349772 C 2.5226878 0.70830308 2.4043179 0.65418536 2.3967529 0.66559244 C 2.3795009 0.6873815 2.482618 0.74212884 2.446879 0.78083089 C 2.4327112 0.79009887 2.2702528 0.71222366 2.2706624 0.71313476 C 2.2662824 0.71479776 2.0402356 0.75478961 1.8665527 0.70228271 C 1.8604327 0.70055471 1.7550265 0.80402825 1.743046 0.80046793 C 1.7266662 0.79446195 1.7671881 0.71010389 1.7626831 0.69349772 C 1.7553231 0.68424574 1.6880099 0.73098311 1.6841349 0.70745035 C 1.6795049 0.67652271 1.7429075 0.64113151 1.7399455 0.62063395 C 1.7235165 0.50418859 1.7476447 0.43614721 1.7880045 0.37930501 C 1.8014641 0.35837937 1.6295861 0.22891751 1.5053345 0.17776693 C 1.3810906 0.12661622 1.3144962 0.083109523 1.3218831 0.079064941 z M 2.6799398 0.15606282 L 2.6804565 0.15606282 C 2.6873165 0.16106282 2.6740179 0.25832048 2.6665039 0.25269775 C 2.6580239 0.24857577 2.6755888 0.15794152 2.6799398 0.15606282 z M 2.7445353 0.16846517 C 2.7448649 0.16845959 2.7453482 0.16879602 2.7455688 0.16898193 C 2.7487888 0.17216093 2.7019262 0.26658868 2.6944092 0.26096598 C 2.6826902 0.252289 2.7313988 0.17390143 2.7435018 0.16898193 C 2.7439111 0.16881809 2.744208 0.1684716 2.7445353 0.16846517 z M 3.6834961 0.78341471 L 3.6126994 0.85369465 L 3.6834961 0.85369465 L 3.6834961 0.78341471 z " />
  <path
     id="path1986-3"
     class="ColorScheme-Text"
     d="m 95.044522,-45.877501 46.965458,-32.855055 -8.76718,51.098302 z"
     style="display:inline;stroke-width:3.68834;enable-background:new;opacity:1;fill:none;fill-opacity:1;stroke:url(#oomox);stroke-linecap:round;stroke-linejoin:miter;stroke-miterlimit:4;stroke-dasharray:none;stroke-dashoffset:0;stroke-opacity:1;marker:none;marker-start:none;marker-mid:none;marker-end:none;paint-order:normal"
     transform="matrix(0.01383269,-0.00978116,0.01383269,0.00978116,-0.14481507,5.0768819)" />
  <path
     id="path1990"
     class="ColorScheme-Text"
     d="m 91.30972,-45.511411 21.40227,-14.972131 -3.85584,23.352172 z"
     style="display:inline;stroke-width:28.5442;enable-background:new;opacity:1;fill:url(#oomox);fill-opacity:1;stroke:none;stroke-linecap:round;stroke-linejoin:miter;stroke-miterlimit:4;stroke-dasharray:none;stroke-dashoffset:0;stroke-opacity:1;marker:none;marker-start:none;marker-mid:none;marker-end:none;paint-order:normal"
     transform="matrix(0.01383269,-0.00978116,0.01383269,0.00978116,-0.14425646,5.0769245)" />
  <path
     id="path1996-2"
     class="ColorScheme-Text"
     d="m 137.93717,-44.138836 -3.31373,19.313711 236.65538,-39.775235 3.13972,-19.283855 z"
     style="display:inline;stroke-width:0.815548;enable-background:new;fill:url(#oomox);fill-opacity:0.7;stroke:none;stroke-linecap:butt;stroke-linejoin:miter;stroke-dasharray:none;stroke-opacity:1"
     transform="matrix(0.01383269,-0.00978116,0.01383269,0.00978116,-0.14481507,5.0768819)" />
  <path
     id="path1996-2-9"
     class="ColorScheme-Text"
     d="m 141.29095,-63.458488 -3.31373,19.31372 236.65538,-39.77524 3.13972,-19.283862 z"
     style="display:inline;stroke-width:0.815548;enable-background:new;fill:url(#oomox);fill-opacity:1;stroke:none;stroke-linecap:butt;stroke-linejoin:miter;stroke-dasharray:none;stroke-opacity:1;opacity:0.64236111"
     transform="matrix(0.01383269,-0.00978116,0.01383269,0.00978116,-0.14481509,5.0768819)" />
  <path
     id="path1994-3"
     class="ColorScheme-Text"
     d="M 2.9050551,9.199347 2.2616583,8.5559539 10.178646,0.69585417 l 0.6376,0.64918993 z"
     style="display:inline;stroke-width:0.0391326px;enable-background:new;fill:url(#oomox);fill-opacity:0.4;stroke:none;stroke-linecap:butt;stroke-linejoin:miter;stroke-opacity:1"
     transform="matrix(0.3439922,0,0,0.34399207,-0.06740056,-0.08985771)" />
  <metadata
     id="metadata1038">
    <rdf:RDF>
      <cc:Work
         rdf:about="">
        <dc:creator>
          <cc:Agent>
            <dc:title>dreifacherspass</dc:title>
          </cc:Agent>
        </dc:creator>
        <cc:license
           rdf:resource="http://creativecommons.org/licenses/by-sa/4.0/" />
      </cc:Work>
      <cc:License
         rdf:about="http://creativecommons.org/licenses/by-sa/4.0/">
        <cc:permits
           rdf:resource="http://creativecommons.org/ns#Reproduction" />
        <cc:permits
           rdf:resource="http://creativecommons.org/ns#Distribution" />
        <cc:requires
           rdf:resource="http://creativecommons.org/ns#Notice" />
        <cc:requires
           rdf:resource="http://creativecommons.org/ns#Attribution" />
        <cc:permits
           rdf:resource="http://creativecommons.org/ns#DerivativeWorks" />
        <cc:requires
           rdf:resource="http://creativecommons.org/ns#ShareAlike" />
      </cc:License>
    </rdf:RDF>
  </metadata>
</svg>
