<?xml version="1.0" encoding="UTF-8" standalone="no"?>
<!-- Created with Inkscape (http://www.inkscape.org/) -->

<svg
   width="64"
   height="64"
   viewBox="0 0 63.999999 63.999999"
   id="svg2"
   version="1.1"
   inkscape:version="1.2.2 (b0a8486541, 2022-12-01)"
   sodipodi:docname="mpv-symbolic.svg"
   xmlns:inkscape="http://www.inkscape.org/namespaces/inkscape"
   xmlns:sodipodi="http://sodipodi.sourceforge.net/DTD/sodipodi-0.dtd"
   xmlns:xlink="http://www.w3.org/1999/xlink"
   xmlns="http://www.w3.org/2000/svg"
   xmlns:svg="http://www.w3.org/2000/svg"
   xmlns:rdf="http://www.w3.org/1999/02/22-rdf-syntax-ns#"
   xmlns:cc="http://creativecommons.org/ns#"
   xmlns:dc="http://purl.org/dc/elements/1.1/">
  <defs
     id="defs4">
    <linearGradient
       id="oomox"
       x1="0"
       x2="0"
       y1="0"
       y2="1">
      <stop
         offset="0%"
         style="stop-color:#0abdc6; stop-opacity:1"
         id="stop9212" />
      <stop
         offset="100%"
         style="stop-color:#b800ff; stop-opacity:1"
         id="stop9214" />
    </linearGradient>
    <linearGradient
       inkscape:collect="always"
       xlink:href="#oomox"
       id="linearGradient588"
       x1="1.031"
       y1="1"
       x2="1.031"
       y2="15"
       gradientUnits="userSpaceOnUse" />
    <linearGradient
       inkscape:collect="always"
       xlink:href="#oomox"
       id="linearGradient590"
       x1="2.156"
       y1="2.188"
       x2="2.156"
       y2="13.813"
       gradientUnits="userSpaceOnUse" />
    <linearGradient
       inkscape:collect="always"
       xlink:href="#oomox"
       id="linearGradient1977"
       x1="14.806488"
       y1="28.292814"
       x2="54.806488"
       y2="28.292814"
       gradientUnits="userSpaceOnUse" />
    <linearGradient
       inkscape:collect="always"
       xlink:href="#oomox"
       id="linearGradient1985"
       x1="4.6328125"
       y1="30.859375"
       x2="60.53125"
       y2="30.859375"
       gradientUnits="userSpaceOnUse" />
  </defs>
  <sodipodi:namedview
     id="base"
     pagecolor="#ffffff"
     bordercolor="#666666"
     borderopacity="1.0"
     inkscape:pageopacity="0.0"
     inkscape:pageshadow="2"
     inkscape:zoom="5.3710484"
     inkscape:cx="7.0749688"
     inkscape:cy="44.870197"
     inkscape:document-units="px"
     inkscape:current-layer="layer1"
     showgrid="false"
     units="px"
     inkscape:window-width="1680"
     inkscape:window-height="1018"
     inkscape:window-x="0"
     inkscape:window-y="0"
     inkscape:window-maximized="1"
     inkscape:showpageshadow="2"
     inkscape:pagecheckerboard="0"
     inkscape:deskcolor="#d1d1d1" />
  <metadata
     id="metadata7">
    <rdf:RDF>
      <cc:Work
         rdf:about="">
        <dc:format>image/svg+xml</dc:format>
        <dc:type
           rdf:resource="http://purl.org/dc/dcmitype/StillImage" />
        <dc:title />
      </cc:Work>
    </rdf:RDF>
  </metadata>
  <g
     inkscape:label="Layer 1"
     inkscape:groupmode="layer"
     id="layer1"
     transform="translate(0,-988.3622)">
    <path
       style="opacity:1;fill:url(#linearGradient1985);fill-opacity:1.0;fill-rule:nonzero;stroke:none;stroke-width:0.10161044;stroke-linecap:round;stroke-linejoin:bevel;stroke-miterlimit:1;stroke-dasharray:none;stroke-dashoffset:0;stroke-opacity:0.99215686"
       d="M 32.582031 2.9101562 A 27.949194 27.949194 0 0 0 4.6328125 30.859375 A 27.949194 27.949194 0 0 0 32.582031 58.808594 A 27.949194 27.949194 0 0 0 60.53125 30.859375 A 27.949194 27.949194 0 0 0 32.582031 2.9101562 z M 33.308594 4.0546875 A 25.950588 25.950588 0 0 1 59.259766 30.005859 A 25.950588 25.950588 0 0 1 33.308594 55.955078 A 25.950588 25.950588 0 0 1 7.359375 30.005859 A 25.950588 25.950588 0 0 1 33.308594 4.0546875 z "
       transform="translate(0,988.3622)"
       id="path4380" />
    <path
       id="path4412"
       transform="translate(0,988.3622)"
       style="fill:url(#linearGradient1977);fill-opacity:1.0;fill-rule:evenodd;stroke:none;stroke-width:0.1;stroke-linecap:butt;stroke-linejoin:miter;stroke-miterlimit:4;stroke-dasharray:none;stroke-opacity:1"
       d="m 32.214844,18.128906 a 12.848894,12.848894 0 0 0 -12.84961,12.84961 12.848894,12.848894 0 0 0 12.84961,12.847656 12.848894,12.848894 0 0 0 12.849609,-12.847656 12.848894,12.848894 0 0 0 -12.849609,-12.84961 z m -3.257813,7.078125 9.214844,5.583985 -9.214844,5.865234 0,-11.449219 z M 54.806488,28.2928 a 20,20 0 0 1 -20,20 20,20 0 0 1 -20,-20 20,20 0 0 1 20,-19.99997 20,20 0 0 1 20,19.99997 z" />
  </g>
</svg>
