<?xml version="1.0" encoding="UTF-8" standalone="no"?>
<svg
   version="1.1"
   id="mullvad_vpn_logo_icon"
   x="0px"
   y="0px"
   viewBox="0 0 16.000001 16"
   xml:space="preserve"
   width="16"
   height="16"
   xmlns:xlink="http://www.w3.org/1999/xlink"
   xmlns="http://www.w3.org/2000/svg"
   xmlns:svg="http://www.w3.org/2000/svg"
   xmlns:rdf="http://www.w3.org/1999/02/22-rdf-syntax-ns#"
   xmlns:cc="http://creativecommons.org/ns#"
   xmlns:dc="http://purl.org/dc/elements/1.1/">
      <defs>
            <style id="current-color-scheme" type="text/css">
                  .ColorScheme-Text { color: #0abdc6; } .ColorScheme-Highlight { color:#5294e2; }
            </style>
            <linearGradient id="arrongin" x1="0%" x2="0%" y1="0%" y2="100%">
                  <stop offset="0%" style="stop-color:#dd9b44; stop-opacity:1"/>
                  <stop offset="100%" style="stop-color:#ad6c16; stop-opacity:1"/>
            </linearGradient>
            <linearGradient id="aurora" x1="0%" x2="0%" y1="0%" y2="100%">
                  <stop offset="0%" style="stop-color:#09D4DF; stop-opacity:1"/>
                  <stop offset="100%" style="stop-color:#9269F4; stop-opacity:1"/>
            </linearGradient>
            <linearGradient id="cyberneon" x1="0%" x2="0%" y1="0%" y2="100%">
                  <stop offset="0" style="stop-color:#0abdc6; stop-opacity:1"/>
                  <stop offset="1" style="stop-color:#ea00d9; stop-opacity:1"/>
            </linearGradient>
            <linearGradient id="fitdance" x1="0%" x2="0%" y1="0%" y2="100%">
                  <stop offset="0%" style="stop-color:#1AD6AB; stop-opacity:1"/>
                  <stop offset="100%" style="stop-color:#329DB6; stop-opacity:1"/>
            </linearGradient>
            <linearGradient id="oomox" x1="0%" x2="0%" y1="0%" y2="100%">
                  <stop offset="0%" style="stop-color:#0abdc6; stop-opacity:1"/>
                  <stop offset="100%" style="stop-color:#b800ff; stop-opacity:1"/>
            </linearGradient>
            <linearGradient id="rainblue" x1="0%" x2="0%" y1="0%" y2="100%">
                  <stop offset="0%" style="stop-color:#00F260; stop-opacity:1"/>
                  <stop offset="100%" style="stop-color:#0575E6; stop-opacity:1"/>
            </linearGradient>
            <linearGradient id="sunrise" x1="0%" x2="0%" y1="0%" y2="100%">
                  <stop offset="0%" style="stop-color: #FF8501; stop-opacity:1"/>
                  <stop offset="100%" style="stop-color: #FFCB01; stop-opacity:1"/>
            </linearGradient>
            <linearGradient id="telinkrin" x1="0%" x2="0%" y1="0%" y2="100%">
                  <stop offset="0%" style="stop-color: #b2ced6; stop-opacity:1"/>
                  <stop offset="100%" style="stop-color: #6da5b7; stop-opacity:1"/>
            </linearGradient>
            <linearGradient id="60spsycho" x1="0%" x2="0%" y1="0%" y2="100%">
                  <stop offset="0%" style="stop-color: #df5940; stop-opacity:1"/>
                  <stop offset="25%" style="stop-color: #d8d15f; stop-opacity:1"/>
                  <stop offset="50%" style="stop-color: #e9882a; stop-opacity:1"/>
                  <stop offset="100%" style="stop-color: #279362; stop-opacity:1"/>
            </linearGradient>
            <linearGradient id="90ssummer" x1="0%" x2="0%" y1="0%" y2="100%">
                  <stop offset="0%" style="stop-color: #f618c7; stop-opacity:1"/>
                  <stop offset="20%" style="stop-color: #94ffab; stop-opacity:1"/>
                  <stop offset="50%" style="stop-color: #fbfd54; stop-opacity:1"/>
                  <stop offset="100%" style="stop-color: #0f83ae; stop-opacity:1"/>
            </linearGradient>
      </defs>
<path
   id="path_light_beam"
   class="ColorScheme-Text"
   style="opacity:0.5;fill:url(#oomox);stroke-width:0.371357"
   d="M 0.23632812,0 C -0.15648559,0.84041459 -0.02166692,1.7600323 0.359375,2.6347656 L 6.8652344,2.1875 C 6.893383,1.998246 6.946493,1.8042262 7.0253906,1.6152344 c 0.00258,-0.00596 0.0052,-0.011654 0.00781,-0.017578 z M 7.3808594,1.6796875 c -0.00528,0.011543 -0.012481,0.021511 -0.017578,0.033203 z" />
<path
   id="path_face"
   class="ColorScheme-Text"
   d="M 0.4639422,6.3120272 1.2655616,5.1930998 c 0,0.00835 -0.050101,1.6115893 -0.050101,1.6115893 L 1.4409159,5.5939095 c 0.6680162,1.352733 2.3046559,3.2231782 3.7993421,4.2252025 0.1586539,0.1085527 0.2922571,0.225455 0.3841093,0.342358 0.1920547,0.07515 0.3841093,0.116903 0.576164,0.150304 0.1002024,0.0167 0.2087551,0.02505 0.3089575,0.0334 0.1002024,0.0084 0.208755,0.0084 0.3089575,0.0084 0.1002024,0 0.2004048,-0.0084 0.3006073,-0.0167 0.1002024,-0.0084 0.2004048,-0.02505 0.3006072,-0.04175 0.1002025,-0.0167 0.2004049,-0.0334 0.2922571,-0.0668 0.1002025,-0.02505 0.1920547,-0.0501 0.2922571,-0.0835 0.091852,-0.02505 0.1920547,-0.0668 0.2839069,-0.100203 0.091852,-0.04175 0.1837045,-0.075152 0.2755567,-0.1252525 C 8.6554908,9.8692132 8.747343,9.8274622 8.8308451,9.777361 8.9226973,9.73561 9.0061993,9.6771586 9.0980515,9.6270574 9.1899038,9.5769562 9.2734058,9.5185047 9.365258,9.4684035 9.4571102,9.4183023 9.5406123,9.3598509 9.6241143,9.3097497 9.7076163,9.2512983 9.7994685,9.201197 9.8829706,9.1427456 9.9664726,9.0842942 10.058325,9.034193 10.150177,8.9757416 l 0.0835,-0.050101 0.04175,0.025051 0.601215,0.4008097 -0.609565,-0.1586539 c -0.05845,0.066802 -0.116903,0.1336033 -0.183705,0.2004049 -0.07515,0.075152 -0.1586534,0.1503036 -0.2338052,0.2254555 -0.083502,0.066802 -0.1670041,0.1419534 -0.2588563,0.2004048 -0.091852,0.066802 -0.1753543,0.1252531 -0.2755567,0.1837044 -0.1837044,0.116903 -0.3841093,0.217105 -0.5928644,0.300607 -0.1002024,0.04175 -0.208755,0.0835 -0.3089575,0.116903 -0.1085526,0.0334 -0.208755,0.0668 -0.3173077,0.09185 -0.1085526,0.02505 -0.2171052,0.0501 -0.3256578,0.0668 -0.1085527,0.0167 -0.2171053,0.02505 -0.3256579,0.04175 -0.2171053,0.0084 -0.4425608,0.0084 -0.659666,-0.02505 -0.1085527,-0.0167 -0.2171053,-0.0334 -0.3256579,-0.05845 -0.1085527,-0.02505 -0.2087551,-0.05845 -0.3089575,-0.09185 -0.1753543,-0.0668 -0.3507085,-0.150304 -0.5093624,-0.250506 0,0 -0.5761639,0.0835 -0.3423583,0.517712 0.2338057,0.434211 0.5845142,0.39246 0.4175101,0.901822 -0.1169028,0.275557 -0.2839068,0.542763 -0.4676113,0.793269 -0.3841093,0.517713 -0.9853239,0.976974 -0.9268725,1.252531 2.7305162,3.365131 8.8846153,2.89752 11.2226723,-0.108553 -0.0334,-0.43421 -0.718118,-0.642965 -1.194079,-1.703441 0.133603,0.04175 0.334008,0.100202 0.334008,0.09185 0,-0.0084 -0.567814,-0.926872 -0.592864,-1.018725 l 0.367409,0.02505 c 0,0 -0.484312,-0.601215 -0.501013,-0.659666 l 0.492662,-0.0668 c 0,0 -0.617915,-0.7097669 -0.626265,-0.7682183 l 0.626265,0.1002024 -0.684716,-0.82667 H 14.09147 L 13.70736,8.1657727 c -0.0668,-0.025051 -0.133603,-0.041751 -0.200405,-0.058451 -0.0835,-0.025051 -0.167004,-0.050101 -0.250506,-0.075152 C 12.32123,7.7399118 11.436108,7.4727053 10.584388,6.9382923 9.3903086,6.1951243 8.3214827,5.284952 7.5198633,4.5751848 L 5.9082742,3.7902658 C 4.3634867,3.6733629 2.9105515,3.7151139 2.0254301,3.8904682 L 2.5932438,2.9218447 1.7248228,3.96562 C 1.6663714,3.9489196 1.649671,3.9155188 1.649671,3.9155188 L 1.7081224,2.6295876 1.4325657,3.7902658 c -0.083502,-0.041751 -0.1837045,-0.058451 -0.2839069,-0.058451 -0.38410931,0 -0.6930668,0.3089575 -0.6930668,0.6930669 0,0.3507085 0.25885628,0.6429655 0.6012146,0.6847166 z"
   style="display:inline;fill:url(#oomox);stroke-width:0.083502" />
<path
   id="path_nose"
   class="ColorScheme-Text"
   d="M 1.4325657,3.7735654 C 1.3490637,3.7401644 1.2488612,3.7151144 1.157009,3.7151144 c -0.38410931,0 -0.6930668,0.3089575 -0.6930668,0.6930668 0,0.3340081 0.24215587,0.617915 0.5594636,0.6847167 0.00835,0 0.00835,0 0.0167,0 C 1.2488612,5.0260957 1.6663714,4.4666322 1.5995697,4.1159237 1.5745191,3.9906706 1.5160677,3.8737678 1.4325657,3.7735654 Z"
   style="stroke-width:0.083502;fill:url(#oomox)" />
<path
   id="path_helmet"
   class="ColorScheme-Text"
   d="M 11.042177,2.0658732e-4 C 10.655104,0.00432324 10.279013,0.07020466 9.9330025,0.207983 9.5989944,0.34158624 9.2984522,0.53373943 9.0395959,0.76754427 8.9560939,0.73414346 8.8726245,0.71731279 8.7807722,0.71731279 8.3298613,0.71731279 7.8539323,1.1014229 7.6034263,1.6775861 7.428072,2.0950962 7.3946712,2.5376903 7.5199242,2.8800478 6.8686093,3.0220012 5.4072896,2.8466144 5.0231811,2.8466144 c 0.025051,0.0167 0.058419,0.033531 0.09182,0.050231 l 2.6803824,1.2691656 0.025116,0.025116 c 0.7932684,0.701417 1.853648,1.6032397 3.0310265,2.3380569 0.734817,0.4676113 3.373514,1.2858335 3.498766,1.3192343 C 14.032984,7.0635 14.884803,6.0280406 15.118608,5.3099238 15.402515,4.4331534 15.502685,3.4728784 15.168678,2.596108 14.605562,1.1238646 12.719495,-0.01762975 11.042178,2.0628732e-4 Z M 8.8559566,0.95118357 c 0.066802,0 0.133473,0.0167004 0.2002746,0.041751 C 9.2315855,1.0680864 9.3569688,1.2434415 9.3987198,1.4939467 9.448821,1.7611532 9.40707,2.0701441 9.2734667,2.3624004 9.0647117,2.8383619 8.663902,3.1806225 8.3131935,3.1806225 c -0.075152,0 -0.1420186,-0.0167 -0.1921198,-0.041751 C 7.9874704,3.0804201 7.8873006,2.9718674 7.820499,2.8048634 7.7035961,2.5209565 7.7370295,2.128497 7.8956833,1.7610881 8.1044384,1.2851274 8.4968979,0.95118357 8.8559566,0.95118357 Z"
   style="stroke-width:0.083502;fill:url(#oomox)" />

<metadata
   id="metadata12"><rdf:RDF><cc:Work
       rdf:about=""><dc:creator><cc:Agent><dc:title>dreifacherspass</dc:title></cc:Agent></dc:creator><cc:license
         rdf:resource="http://creativecommons.org/licenses/by-sa/4.0/" /></cc:Work><cc:License
       rdf:about="http://creativecommons.org/licenses/by-sa/4.0/"><cc:permits
         rdf:resource="http://creativecommons.org/ns#Reproduction" /><cc:permits
         rdf:resource="http://creativecommons.org/ns#Distribution" /><cc:requires
         rdf:resource="http://creativecommons.org/ns#Notice" /><cc:requires
         rdf:resource="http://creativecommons.org/ns#Attribution" /><cc:permits
         rdf:resource="http://creativecommons.org/ns#DerivativeWorks" /><cc:requires
         rdf:resource="http://creativecommons.org/ns#ShareAlike" /></cc:License></rdf:RDF></metadata></svg>
