<?xml version="1.0" encoding="UTF-8" standalone="no"?>
<svg
   width="16"
   height="16"
   version="1.1"
   id="svg12"
   xmlns="http://www.w3.org/2000/svg"
   xmlns:svg="http://www.w3.org/2000/svg"
   xmlns:rdf="http://www.w3.org/1999/02/22-rdf-syntax-ns#"
   xmlns:cc="http://creativecommons.org/ns#"
   xmlns:dc="http://purl.org/dc/elements/1.1/">
  <defs>
   <style id="current-color-scheme" type="text/css">
   .ColorScheme-Text { color: #0abdc6; } .ColorScheme-Highlight { color:#5294e2; }
  </style>
  <linearGradient id="arrongin" x1="0%" x2="0%" y1="0%" y2="100%">
   <stop offset="0%" style="stop-color:#dd9b44; stop-opacity:1"/>
   <stop offset="100%" style="stop-color:#ad6c16; stop-opacity:1"/>
  </linearGradient>
  <linearGradient id="aurora" x1="0%" x2="0%" y1="0%" y2="100%">
   <stop offset="0%" style="stop-color:#09D4DF; stop-opacity:1"/>
   <stop offset="100%" style="stop-color:#9269F4; stop-opacity:1"/>
  </linearGradient>
  <linearGradient id="cyberneon" x1="0%" x2="0%" y1="0%" y2="100%">
    <stop offset="0" style="stop-color:#0abdc6; stop-opacity:1"/>
    <stop offset="1" style="stop-color:#ea00d9; stop-opacity:1"/>
  </linearGradient>
  <linearGradient id="fitdance" x1="0%" x2="0%" y1="0%" y2="100%">
   <stop offset="0%" style="stop-color:#1AD6AB; stop-opacity:1"/>
   <stop offset="100%" style="stop-color:#329DB6; stop-opacity:1"/>
  </linearGradient>
  <linearGradient id="oomox" x1="0%" x2="0%" y1="0%" y2="100%">
   <stop offset="0%" style="stop-color:#0abdc6; stop-opacity:1"/>
   <stop offset="100%" style="stop-color:#b800ff; stop-opacity:1"/>
  </linearGradient>
  <linearGradient id="rainblue" x1="0%" x2="0%" y1="0%" y2="100%">
   <stop offset="0%" style="stop-color:#00F260; stop-opacity:1"/>
   <stop offset="100%" style="stop-color:#0575E6; stop-opacity:1"/>
  </linearGradient>
  <linearGradient id="sunrise" x1="0%" x2="0%" y1="0%" y2="100%">
   <stop offset="0%" style="stop-color: #FF8501; stop-opacity:1"/>
   <stop offset="100%" style="stop-color: #FFCB01; stop-opacity:1"/>
  </linearGradient>
  <linearGradient id="telinkrin" x1="0%" x2="0%" y1="0%" y2="100%">
   <stop offset="0%" style="stop-color: #b2ced6; stop-opacity:1"/>
   <stop offset="100%" style="stop-color: #6da5b7; stop-opacity:1"/>
  </linearGradient>
  <linearGradient id="60spsycho" x1="0%" x2="0%" y1="0%" y2="100%">
   <stop offset="0%" style="stop-color: #df5940; stop-opacity:1"/>
   <stop offset="25%" style="stop-color: #d8d15f; stop-opacity:1"/>
   <stop offset="50%" style="stop-color: #e9882a; stop-opacity:1"/>
   <stop offset="100%" style="stop-color: #279362; stop-opacity:1"/>
  </linearGradient>
  <linearGradient id="90ssummer" x1="0%" x2="0%" y1="0%" y2="100%">
   <stop offset="0%" style="stop-color: #f618c7; stop-opacity:1"/>
   <stop offset="20%" style="stop-color: #94ffab; stop-opacity:1"/>
   <stop offset="50%" style="stop-color: #fbfd54; stop-opacity:1"/>
   <stop offset="100%" style="stop-color: #0f83ae; stop-opacity:1"/>
  </linearGradient>
 </defs>
  <path
     style="fill:url(#oomox);fill-opacity:1;stroke:none;stroke-width:0.444434;stroke-opacity:1"
     d="m 12.88887,1.5555655 c -1.74713,0 -3.1111069,1.3002476 -3.1111069,3.0069422 1.636e-4,0.7314442 1.3333329,0.7314442 1.3333329,0 0,-0.9752443 0.461354,-1.6736056 1.777774,-1.6736056 1.316421,0 1.777769,0.6983613 1.777769,1.6736056 0,0.7314442 1.333337,0.7314442 1.333337,0 0,-1.7066946 -1.363952,-3.0069422 -3.111106,-3.0069422 z m 0,2.2222193 c -0.491126,0 -0.888892,0.3964223 -0.888892,0.8862867 0,0.4898278 0.397766,0.8871427 0.888892,0.8871427 0.491134,0 0.888886,-0.3973149 0.888886,-0.8871427 0,-0.4898644 -0.397752,-0.8862867 -0.888886,-0.8862867 z M 7.9999895,6.0000071 c -0.9234824,0 -2.0119771,0.5577132 -2.5147597,1.2534706 C 4.9824845,6.5577203 4.0345885,6.088549 3.1111109,6.088549 1.5852018,6.088549 0,7.0255611 0,9.5998271 v 4.2413099 c 0,0 6.3513522e-5,0.603298 0.61544928,0.603298 0.61538402,0 0.71788732,-0.603298 0.71788732,-0.603298 V 9.5998271 C 1.3328309,7.6434206 2.1680455,7.3333437 3.1111109,7.3333437 c 0.9430541,0 1.7777671,0.597881 1.7777671,1.9218642 v 4.5859291 c 0,0 0.033912,0.603298 0.6493073,0.603298 0.6153824,0 0.6840247,-0.603298 0.6840247,-0.603298 V 9.2552086 c 0,-1.3239832 0.8347153,-1.9218644 1.7777795,-1.9218644 0.5987137,0 1.7621571,0.079486 1.7621571,1.9218644 l 0.035602,1.5650984 c -5e-7,2.893076 1.8563004,3.624128 3.0911404,3.624128 1.234846,0 3.073376,-0.853471 3.111111,-3.413188 V 6.9826486 c 0,-0.7046038 -1.333334,-0.7046038 -1.333334,0 v 3.9878354 c 0,1.941844 -1.160351,2.140625 -1.777777,2.140625 -0.617424,0 -1.776031,-0.07548 -1.776031,-2.350688 l -0.0356,-1.4210087 C 11.07726,7.1450021 9.5689669,6.0000076 8.0000132,6.0000076 Z"
     id="path8"
     class="ColorScheme-Text" />
  <metadata
     id="metadata215">
    <rdf:RDF>
      <cc:Work
         rdf:about="">
        <cc:license
           rdf:resource="http://creativecommons.org/licenses/by-sa/4.0/" />
        <dc:creator>
          <cc:Agent>
            <dc:title>dreifacherspass</dc:title>
          </cc:Agent>
        </dc:creator>
      </cc:Work>
      <cc:License
         rdf:about="http://creativecommons.org/licenses/by-sa/4.0/">
        <cc:permits
           rdf:resource="http://creativecommons.org/ns#Reproduction" />
        <cc:permits
           rdf:resource="http://creativecommons.org/ns#Distribution" />
        <cc:requires
           rdf:resource="http://creativecommons.org/ns#Notice" />
        <cc:requires
           rdf:resource="http://creativecommons.org/ns#Attribution" />
        <cc:permits
           rdf:resource="http://creativecommons.org/ns#DerivativeWorks" />
        <cc:requires
           rdf:resource="http://creativecommons.org/ns#ShareAlike" />
      </cc:License>
    </rdf:RDF>
  </metadata>
</svg>
