<?xml version="1.0" encoding="UTF-8" standalone="no"?>


<svg
   height="16"
   width="16"
   version="1.1"
   id="_x32_"
   viewBox="0 0 10.24 10.24"
   xml:space="preserve"
   xmlns:xlink="http://www.w3.org/1999/xlink"
   xmlns="http://www.w3.org/2000/svg"
   xmlns:svg="http://www.w3.org/2000/svg"
   xmlns:rdf="http://www.w3.org/1999/02/22-rdf-syntax-ns#"
   xmlns:cc="http://creativecommons.org/ns#"
   xmlns:dc="http://purl.org/dc/elements/1.1/">
  <defs>
   <style id="current-color-scheme" type="text/css">
   .ColorScheme-Text { color: #0abdc6; } .ColorScheme-Highlight { color:#5294e2; }
  </style>
  <linearGradient id="arrongin" x1="0%" x2="0%" y1="0%" y2="100%">
   <stop offset="0%" style="stop-color:#dd9b44; stop-opacity:1"/>
   <stop offset="100%" style="stop-color:#ad6c16; stop-opacity:1"/>
  </linearGradient>
  <linearGradient id="aurora" x1="0%" x2="0%" y1="0%" y2="100%">
   <stop offset="0%" style="stop-color:#09D4DF; stop-opacity:1"/>
   <stop offset="100%" style="stop-color:#9269F4; stop-opacity:1"/>
  </linearGradient>
  <linearGradient id="cyberneon" x1="0%" x2="0%" y1="0%" y2="100%">
    <stop offset="0" style="stop-color:#0abdc6; stop-opacity:1"/>
    <stop offset="1" style="stop-color:#ea00d9; stop-opacity:1"/>
  </linearGradient>
  <linearGradient id="fitdance" x1="0%" x2="0%" y1="0%" y2="100%">
   <stop offset="0%" style="stop-color:#1AD6AB; stop-opacity:1"/>
   <stop offset="100%" style="stop-color:#329DB6; stop-opacity:1"/>
  </linearGradient>
  <linearGradient id="oomox" x1="0%" x2="0%" y1="0%" y2="100%">
   <stop offset="0%" style="stop-color:#0abdc6; stop-opacity:1"/>
   <stop offset="100%" style="stop-color:#b800ff; stop-opacity:1"/>
  </linearGradient>
  <linearGradient id="rainblue" x1="0%" x2="0%" y1="0%" y2="100%">
   <stop offset="0%" style="stop-color:#00F260; stop-opacity:1"/>
   <stop offset="100%" style="stop-color:#0575E6; stop-opacity:1"/>
  </linearGradient>
  <linearGradient id="sunrise" x1="0%" x2="0%" y1="0%" y2="100%">
   <stop offset="0%" style="stop-color: #FF8501; stop-opacity:1"/>
   <stop offset="100%" style="stop-color: #FFCB01; stop-opacity:1"/>
  </linearGradient>
  <linearGradient id="telinkrin" x1="0%" x2="0%" y1="0%" y2="100%">
   <stop offset="0%" style="stop-color: #b2ced6; stop-opacity:1"/>
   <stop offset="100%" style="stop-color: #6da5b7; stop-opacity:1"/>
  </linearGradient>
  <linearGradient id="60spsycho" x1="0%" x2="0%" y1="0%" y2="100%">
   <stop offset="0%" style="stop-color: #df5940; stop-opacity:1"/>
   <stop offset="25%" style="stop-color: #d8d15f; stop-opacity:1"/>
   <stop offset="50%" style="stop-color: #e9882a; stop-opacity:1"/>
   <stop offset="100%" style="stop-color: #279362; stop-opacity:1"/>
  </linearGradient>
  <linearGradient id="90ssummer" x1="0%" x2="0%" y1="0%" y2="100%">
   <stop offset="0%" style="stop-color: #f618c7; stop-opacity:1"/>
   <stop offset="20%" style="stop-color: #94ffab; stop-opacity:1"/>
   <stop offset="50%" style="stop-color: #fbfd54; stop-opacity:1"/>
   <stop offset="100%" style="stop-color: #0f83ae; stop-opacity:1"/>
  </linearGradient>
 </defs>
 <path
   d="m 456.967,17.542 c 0,0 -27.005,-39.468 -99.721,0 C 335.334,29.442 247.13,86.956 165.078,88.19 95.484,89.221 43.536,32.09 56.008,81.946 69.698,136.707 161.957,480.843 161.957,480.843 H 139.105 V 512 H 251.297 L 112.101,125.589 c 0,0 34.068,6.379 89.333,2.069 66.48,-5.198 120.496,-49.864 162.048,-33.24 41.553,16.624 -20.775,220.225 -126.732,334.478 l 12.472,37.4 c -0.001,0 224.369,-182.826 207.745,-448.754 z"
   id="path1"
   class="ColorScheme-Text"
   transform="matrix(0.02000003,0,0,0.02000003,-1.2618253e-6,-1.4346677e-5)"
   style="stroke:none;fill:url(#oomox)" />
 <path
   class="ColorScheme-Text"
   d="m 146.145,195.613 5.883,16.33 36.835,-75.146 c -4.738,0.248 -9.455,0.444 -14.126,0.519 z"
   id="path2"
   transform="matrix(0.02000003,0,0,0.02000003,-1.2618253e-6,-1.4346677e-5)"
   style="stroke:none;fill:url(#oomox)" />
 <path
   d="m 250.921,126.01 c -5.266,1.625 -10.621,3.13 -16.082,4.468 l -64.63,131.892 5.882,16.324 z"
   id="path3"
   class="ColorScheme-Text"
   transform="matrix(0.02000003,0,0,0.02000003,-1.2618253e-6,-1.4346677e-5)"
   style="stroke:none;fill:url(#oomox)" />
 <path
   d="m 319.063,102.744 c -5.28,1.392 -10.704,3.136 -16.375,5.092 h -0.016 l -108.43,221.256 5.882,16.338 z"
   id="path4"
   class="ColorScheme-Text"
   transform="matrix(0.02000003,0,0,0.02000003,-1.2618253e-6,-1.4346677e-5)"
   style="stroke:none;fill:url(#oomox)" />
 <polygon
   class="ColorScheme-Text"
   points="361.843,102.978 218.283,395.85 224.165,412.158 367.784,119.202 367.784,119.18 "
   id="polygon4"
   transform="matrix(0.02000003,0,0,0.02000003,-1.2618253e-6,-1.4346677e-5)"
   style="stroke:none;fill:url(#oomox)" />
 <metadata
   id="metadata4"><rdf:RDF><cc:Work
       rdf:about=""><dc:creator><cc:Agent><dc:title>dreifacherspass</dc:title></cc:Agent></dc:creator><cc:license
         rdf:resource="http://creativecommons.org/licenses/by-sa/4.0/" /></cc:Work><cc:License
       rdf:about="http://creativecommons.org/licenses/by-sa/4.0/"><cc:permits
         rdf:resource="http://creativecommons.org/ns#Reproduction" /><cc:permits
         rdf:resource="http://creativecommons.org/ns#Distribution" /><cc:requires
         rdf:resource="http://creativecommons.org/ns#Notice" /><cc:requires
         rdf:resource="http://creativecommons.org/ns#Attribution" /><cc:permits
         rdf:resource="http://creativecommons.org/ns#DerivativeWorks" /><cc:requires
         rdf:resource="http://creativecommons.org/ns#ShareAlike" /></cc:License></rdf:RDF></metadata></svg>
