<?xml version="1.0" encoding="UTF-8" standalone="no"?>
<svg
   width="48"
   height="48"
   version="1.1"
   id="svg12"
   sodipodi:docname="mscore.svg"
   inkscape:version="1.2.2 (b0a8486541, 2022-12-01)"
   xmlns:inkscape="http://www.inkscape.org/namespaces/inkscape"
   xmlns:sodipodi="http://sodipodi.sourceforge.net/DTD/sodipodi-0.dtd"
   xmlns:xlink="http://www.w3.org/1999/xlink"
   xmlns="http://www.w3.org/2000/svg"
   xmlns:svg="http://www.w3.org/2000/svg">
  <defs
     id="defs16">
    <linearGradient
       id="oomox"
       x1="0"
       x2="0"
       y1="0"
       y2="1">
      <stop
         offset="0%"
         style="stop-color:#0abdc6; stop-opacity:1"
         id="stop9212" />
      <stop
         offset="100%"
         style="stop-color:#b800ff; stop-opacity:1"
         id="stop9214" />
    </linearGradient>
    <linearGradient
       inkscape:collect="always"
       xlink:href="#oomox"
       id="linearGradient498"
       x1="1.031"
       y1="1"
       x2="1.031"
       y2="15"
       gradientUnits="userSpaceOnUse" />
    <linearGradient
       inkscape:collect="always"
       xlink:href="#oomox"
       id="linearGradient500"
       x1="2.1559999"
       y1="2.188"
       x2="2.1559999"
       y2="13.813"
       gradientUnits="userSpaceOnUse" />
    <linearGradient
       inkscape:collect="always"
       xlink:href="#oomox"
       id="linearGradient1227"
       x1="24.762724"
       y1="1.7627119"
       x2="24.762724"
       y2="46.779659"
       gradientUnits="userSpaceOnUse"
       gradientTransform="matrix(0.93902182,0,0,0.93902182,1.4634654,1.4634785)" />
    <linearGradient
       inkscape:collect="always"
       xlink:href="#oomox"
       id="linearGradient1235"
       x1="26.843103"
       y1="1.8546432"
       x2="26.843103"
       y2="46.38269"
       gradientUnits="userSpaceOnUse"
       gradientTransform="matrix(0.93902182,0,0,0.93902182,1.4634654,1.4634785)" />
  </defs>
  <sodipodi:namedview
     id="namedview14"
     pagecolor="#ffffff"
     bordercolor="#000000"
     borderopacity="0.25"
     inkscape:showpageshadow="2"
     inkscape:pageopacity="0.0"
     inkscape:pagecheckerboard="0"
     inkscape:deskcolor="#d1d1d1"
     showgrid="false"
     inkscape:zoom="3.6875"
     inkscape:cx="31.864407"
     inkscape:cy="32"
     inkscape:window-width="1680"
     inkscape:window-height="1018"
     inkscape:window-x="0"
     inkscape:window-y="0"
     inkscape:window-maximized="1"
     inkscape:current-layer="svg12" />
  <path
     style="fill:none;fill-opacity:1;stroke:url(#linearGradient1227);stroke-width:3.76279;stroke-dasharray:none;stroke-opacity:1"
     d="m 24.000001,45.218607 c 11.718717,0 21.218606,-9.499889 21.218606,-21.218606 0,-11.718724 -9.499889,-21.2186078 -21.218606,-21.2186078 -11.718724,0 -21.2186079,9.4998838 -21.2186079,21.2186078 0,11.718717 9.4998839,21.218606 21.2186079,21.218606 z"
     id="path4" />
  <path
     style="fill:url(#linearGradient1235);fill-opacity:1;stroke:none;stroke-width:0.757795;stroke-opacity:1"
     d="m 32.335884,11.875073 c -2.978979,0 -5.304657,2.217016 -5.304657,5.12704 2.83e-4,1.247176 2.273419,1.247176 2.273419,0 0,-1.662847 0.786649,-2.853615 3.031238,-2.853615 2.244583,0 3.031223,1.190768 3.031223,2.853615 0,1.247176 2.273423,1.247176 2.273423,0 0,-2.910024 -2.325635,-5.12704 -5.304646,-5.12704 z m 0,3.789046 c -0.837413,0 -1.515623,0.675924 -1.515623,1.511169 0,0.835204 0.67821,1.51265 1.515623,1.51265 0.837408,0 1.515609,-0.677446 1.515609,-1.51265 0,-0.835245 -0.678201,-1.511169 -1.515609,-1.511169 z m -8.335883,3.789044 c -1.574603,0 -3.430564,0.950928 -4.287833,2.137247 -0.857214,-1.186319 -2.473457,-1.986286 -4.048049,-1.986286 -2.601773,0 -5.304654,1.597672 -5.304654,5.986979 v 7.231731 c 0,0 1.17e-4,1.028659 1.049387,1.028659 1.049267,0 1.224037,-1.028659 1.224037,-1.028659 v -7.231731 c -8.54e-4,-3.335815 1.423235,-3.864516 3.03123,-3.864516 1.607984,0 3.031226,1.01943 3.031226,3.276914 v 7.819333 c 0,0 0.05782,1.028659 1.107117,1.028659 1.049258,0 1.166302,-1.028659 1.166302,-1.028659 v -7.819333 c 0,-2.257484 1.423245,-3.276914 3.031237,-3.276914 1.020848,0 3.004595,0.135526 3.004595,3.276914 l 0.06071,2.668606 c -2e-6,4.932885 3.165119,6.179386 5.27061,6.179386 2.105489,0 5.240317,-1.455233 5.304651,-5.81972 v -6.903149 c 0,-1.201386 -2.273422,-1.201386 -2.273422,0 v 6.799543 c 0,3.310984 -1.978485,3.649907 -3.031229,3.649907 -1.052749,0 -3.028264,-0.128703 -3.028264,-4.00809 l -0.06071,-2.422908 c 3e-6,-3.741623 -2.571743,-5.693913 -5.246919,-5.693913 z"
     id="path8" />
</svg>
