<?xml version="1.0" encoding="UTF-8" standalone="no"?>
<svg
   width="16"
   height="16"
   version="1.1"
   id="svg9256"
   sodipodi:docname="ncspot.svg"
   inkscape:version="1.2.2 (b0a8486541, 2022-12-01)"
   xmlns:inkscape="http://www.inkscape.org/namespaces/inkscape"
   xmlns:sodipodi="http://sodipodi.sourceforge.net/DTD/sodipodi-0.dtd"
   xmlns="http://www.w3.org/2000/svg"
   xmlns:svg="http://www.w3.org/2000/svg">
  <sodipodi:namedview
     id="namedview9258"
     pagecolor="#ffffff"
     bordercolor="#000000"
     borderopacity="0.25"
     inkscape:showpageshadow="2"
     inkscape:pageopacity="0.0"
     inkscape:pagecheckerboard="0"
     inkscape:deskcolor="#d1d1d1"
     showgrid="false"
     inkscape:zoom="14.75"
     inkscape:cx="7.8983051"
     inkscape:cy="8"
     inkscape:window-width="1375"
     inkscape:window-height="487"
     inkscape:window-x="0"
     inkscape:window-y="0"
     inkscape:window-maximized="0"
     inkscape:current-layer="svg9256" />
  <defs
     id="defs9250">
    <style
       id="current-color-scheme"
       type="text/css">
   .ColorScheme-Text { color: #0abdc6; } .ColorScheme-Highlight { color:#5294e2; }
  </style>
    <linearGradient
       id="arrongin"
       x1="0%"
       x2="0%"
       y1="0%"
       y2="100%">
      <stop
         offset="0%"
         style="stop-color:#dd9b44; stop-opacity:1"
         id="stop9192" />
      <stop
         offset="100%"
         style="stop-color:#ad6c16; stop-opacity:1"
         id="stop9194" />
    </linearGradient>
    <linearGradient
       id="aurora"
       x1="0%"
       x2="0%"
       y1="0%"
       y2="100%">
      <stop
         offset="0%"
         style="stop-color:#09D4DF; stop-opacity:1"
         id="stop9197" />
      <stop
         offset="100%"
         style="stop-color:#9269F4; stop-opacity:1"
         id="stop9199" />
    </linearGradient>
    <linearGradient
       id="cyberneon"
       x1="0%"
       x2="0%"
       y1="0%"
       y2="100%">
      <stop
         offset="0"
         style="stop-color:#0abdc6; stop-opacity:1"
         id="stop9202" />
      <stop
         offset="1"
         style="stop-color:#ea00d9; stop-opacity:1"
         id="stop9204" />
    </linearGradient>
    <linearGradient
       id="fitdance"
       x1="0%"
       x2="0%"
       y1="0%"
       y2="100%">
      <stop
         offset="0%"
         style="stop-color:#1AD6AB; stop-opacity:1"
         id="stop9207" />
      <stop
         offset="100%"
         style="stop-color:#329DB6; stop-opacity:1"
         id="stop9209" />
    </linearGradient>
    <linearGradient
       id="oomox"
       x1="0%"
       x2="0%"
       y1="0%"
       y2="100%">
      <stop
         offset="0%"
         style="stop-color:#0abdc6; stop-opacity:1"
         id="stop9212" />
      <stop
         offset="100%"
         style="stop-color:#b800ff; stop-opacity:1"
         id="stop9214" />
    </linearGradient>
    <linearGradient
       id="rainblue"
       x1="0%"
       x2="0%"
       y1="0%"
       y2="100%">
      <stop
         offset="0%"
         style="stop-color:#00F260; stop-opacity:1"
         id="stop9217" />
      <stop
         offset="100%"
         style="stop-color:#0575E6; stop-opacity:1"
         id="stop9219" />
    </linearGradient>
    <linearGradient
       id="sunrise"
       x1="0%"
       x2="0%"
       y1="0%"
       y2="100%">
      <stop
         offset="0%"
         style="stop-color: #FF8501; stop-opacity:1"
         id="stop9222" />
      <stop
         offset="100%"
         style="stop-color: #FFCB01; stop-opacity:1"
         id="stop9224" />
    </linearGradient>
    <linearGradient
       id="telinkrin"
       x1="0%"
       x2="0%"
       y1="0%"
       y2="100%">
      <stop
         offset="0%"
         style="stop-color: #b2ced6; stop-opacity:1"
         id="stop9227" />
      <stop
         offset="100%"
         style="stop-color: #6da5b7; stop-opacity:1"
         id="stop9229" />
    </linearGradient>
    <linearGradient
       id="60spsycho"
       x1="0%"
       x2="0%"
       y1="0%"
       y2="100%">
      <stop
         offset="0%"
         style="stop-color: #df5940; stop-opacity:1"
         id="stop9232" />
      <stop
         offset="25%"
         style="stop-color: #d8d15f; stop-opacity:1"
         id="stop9234" />
      <stop
         offset="50%"
         style="stop-color: #e9882a; stop-opacity:1"
         id="stop9236" />
      <stop
         offset="100%"
         style="stop-color: #279362; stop-opacity:1"
         id="stop9238" />
    </linearGradient>
    <linearGradient
       id="90ssummer"
       x1="0%"
       x2="0%"
       y1="0%"
       y2="100%">
      <stop
         offset="0%"
         style="stop-color: #f618c7; stop-opacity:1"
         id="stop9241" />
      <stop
         offset="20%"
         style="stop-color: #94ffab; stop-opacity:1"
         id="stop9243" />
      <stop
         offset="50%"
         style="stop-color: #fbfd54; stop-opacity:1"
         id="stop9245" />
      <stop
         offset="100%"
         style="stop-color: #0f83ae; stop-opacity:1"
         id="stop9247" />
    </linearGradient>
    <linearGradient
       id="oomox-3"
       x1="1.031"
       x2="1.031"
       y1="1"
       y2="15"
       gradientUnits="userSpaceOnUse">
      <stop
         offset="0%"
         style="stop-color:#0abdc6; stop-opacity:1"
         id="stop9212-6" />
      <stop
         offset="100%"
         style="stop-color:#b800ff; stop-opacity:1"
         id="stop9214-7" />
    </linearGradient>
    <linearGradient
       id="oomox-36"
       x1="2.156"
       x2="2.156"
       y1="2.188"
       y2="13.813"
       gradientUnits="userSpaceOnUse">
      <stop
         offset="0%"
         style="stop-color:#0abdc6; stop-opacity:1"
         id="stop9212-7" />
      <stop
         offset="100%"
         style="stop-color:#b800ff; stop-opacity:1"
         id="stop9214-5" />
    </linearGradient>
  </defs>
  <path
     d="M 7.1313739,5.6724891 A 0.5600427,0.6560815 0 0 0 6.7259013,6.3029834 V 9.2054881 A 1.0024764,1.1743859 0 1 0 7.2064197,10.207325 V 7.0404191 L 9.759655,6.1802962 v 2.0108899 a 1.0030364,1.175042 0 1 0 0.475475,1.115338 h 0.0048 V 5.0610212 A 0.28002136,0.32804075 0 0 0 9.882864,4.7454459 Z M 3.7313545,11.389583 A 0.20889593,0.2447184 0 0 1 3.5532609,11.274113 5.2498404,6.150108 0 0 1 5.2087461,2.7949156 0.21015245,0.24619038 0 0 1 5.4327665,3.2115274 4.8309283,5.659359 0 0 0 3.9116883,11.012993 0.20945597,0.24537448 0 0 1 3.7341547,11.389583 Z"
     id="path303"
     style="font-variation-settings:normal;fill:url(#oomox);fill-opacity:1;stroke-width:1;stroke-linecap:butt;stroke-linejoin:miter;stroke-miterlimit:4;stroke-dasharray:none;stroke-dashoffset:0;stroke-opacity:1;stop-color:#000000;opacity:1;vector-effect:none;-inkscape-stroke:none;stop-opacity:1" />
  <path
     d="M 2.3082861,12.518043 A 0.28002136,0.32804075 0 0 1 2.071388,12.36452 7.0005348,8.2010188 0 0 1 4.2779561,1.058924 0.28002136,0.32804075 0 1 1 4.5753386,1.6139689 6.4404909,7.5449373 0 0 0 2.5451841,12.016141 a 0.28002136,0.32804075 0 0 1 -0.089607,0.449416 0.28394165,0.33263332 0 0 1 -0.1472913,0.05249 z m 8.3720779,0.734812 A 0.21001601,0.24603056 0 0 1 10.568355,12.79819 4.8309283,5.659359 0 0 0 12.091111,4.9967252 0.21015195,0.24618982 0 1 1 12.446738,4.7342926 5.2498404,6.150108 0 0 1 10.791253,13.21349 0.2072158,0.24275016 0 0 1 10.680364,13.25286 Z"
     id="path305"
     style="font-variation-settings:normal;fill:url(#oomox);fill-opacity:1;stroke-width:1;stroke-linecap:butt;stroke-linejoin:miter;stroke-miterlimit:4;stroke-dasharray:none;stroke-dashoffset:0;stroke-opacity:1;stop-color:#000000;opacity:1;vector-effect:none;-inkscape-stroke:none;stop-opacity:1" />
  <path
     d="M 11.573633,15 A 0.28002136,0.32804075 0 0 1 11.424662,14.394436 6.4404909,7.5449373 0 0 0 13.454816,3.9922644 0.28002136,0.32804075 0 1 1 13.928612,3.6438851 7.0005348,8.2010188 0 0 1 11.722044,14.949481 0.28002136,0.32804075 0 0 1 11.573633,15.000001 Z"
     id="path307"
     style="font-variation-settings:normal;fill:url(#oomox);fill-opacity:1;stroke-width:1;stroke-linecap:butt;stroke-linejoin:miter;stroke-miterlimit:4;stroke-dasharray:none;stroke-dashoffset:0;stroke-opacity:1;stop-color:#000000;opacity:1;vector-effect:none;-inkscape-stroke:none;stop-opacity:1" />
</svg>
