<?xml version="1.0" encoding="UTF-8" standalone="no"?>
<svg
   width="48"
   height="48"
   version="1.1"
   id="svg12"
   xmlns="http://www.w3.org/2000/svg"
   xmlns:svg="http://www.w3.org/2000/svg"
   xmlns:rdf="http://www.w3.org/1999/02/22-rdf-syntax-ns#"
   xmlns:cc="http://creativecommons.org/ns#"
   xmlns:dc="http://purl.org/dc/elements/1.1/">
  <defs
     id="defs16">
    <style
       id="current-color-scheme"
       type="text/css">
      .ColorScheme-Text { color: #0abdc6; } .ColorScheme-Highlight { color:#5294e2; }
     </style>
    <linearGradient
       id="arrongin"
       x1="0%"
       x2="0%"
       y1="0%"
       y2="100%">
      <stop
         offset="0%"
         style="stop-color:#dd9b44; stop-opacity:1"
         id="stop9192" />
      <stop
         offset="100%"
         style="stop-color:#ad6c16; stop-opacity:1"
         id="stop9194" />
    </linearGradient>
    <linearGradient
       id="aurora"
       x1="0%"
       x2="0%"
       y1="0%"
       y2="100%">
      <stop
         offset="0%"
         style="stop-color:#09D4DF; stop-opacity:1"
         id="stop9197" />
      <stop
         offset="100%"
         style="stop-color:#9269F4; stop-opacity:1"
         id="stop9199" />
    </linearGradient>
    <linearGradient
       id="cyberneon"
       x1="0%"
       x2="0%"
       y1="0%"
       y2="100%">
      <stop
         offset="0"
         style="stop-color:#0abdc6; stop-opacity:1"
         id="stop9202" />
      <stop
         offset="1"
         style="stop-color:#ea00d9; stop-opacity:1"
         id="stop9204" />
    </linearGradient>
    <linearGradient
       id="fitdance"
       x1="0%"
       x2="0%"
       y1="0%"
       y2="100%">
      <stop
         offset="0%"
         style="stop-color:#1AD6AB; stop-opacity:1"
         id="stop9207" />
      <stop
         offset="100%"
         style="stop-color:#329DB6; stop-opacity:1"
         id="stop9209" />
    </linearGradient>
    <linearGradient
       id="oomox"
       x1="0%"
       x2="0%"
       y1="0%"
       y2="100%">
      <stop
         offset="0%"
         style="stop-color:#0abdc6; stop-opacity:1"
         id="stop9212" />
      <stop
         offset="100%"
         style="stop-color:#b800ff; stop-opacity:1"
         id="stop9214" />
    </linearGradient>
    <linearGradient
       id="rainblue"
       x1="0%"
       x2="0%"
       y1="0%"
       y2="100%">
      <stop
         offset="0%"
         style="stop-color:#00F260; stop-opacity:1"
         id="stop9217" />
      <stop
         offset="100%"
         style="stop-color:#0575E6; stop-opacity:1"
         id="stop9219" />
    </linearGradient>
    <linearGradient
       id="sunrise"
       x1="0%"
       x2="0%"
       y1="0%"
       y2="100%">
      <stop
         offset="0%"
         style="stop-color: #FF8501; stop-opacity:1"
         id="stop9222" />
      <stop
         offset="100%"
         style="stop-color: #FFCB01; stop-opacity:1"
         id="stop9224" />
    </linearGradient>
    <linearGradient
       id="telinkrin"
       x1="0%"
       x2="0%"
       y1="0%"
       y2="100%">
      <stop
         offset="0%"
         style="stop-color: #b2ced6; stop-opacity:1"
         id="stop9227" />
      <stop
         offset="100%"
         style="stop-color: #6da5b7; stop-opacity:1"
         id="stop9229" />
    </linearGradient>
    <linearGradient
       id="60spsycho"
       x1="0%"
       x2="0%"
       y1="0%"
       y2="100%">
      <stop
         offset="0%"
         style="stop-color: #df5940; stop-opacity:1"
         id="stop9232" />
      <stop
         offset="25%"
         style="stop-color: #d8d15f; stop-opacity:1"
         id="stop9234" />
      <stop
         offset="50%"
         style="stop-color: #e9882a; stop-opacity:1"
         id="stop9236" />
      <stop
         offset="100%"
         style="stop-color: #279362; stop-opacity:1"
         id="stop9238" />
    </linearGradient>
    <linearGradient
       id="90ssummer"
       x1="0%"
       x2="0%"
       y1="0%"
       y2="100%">
      <stop
         offset="0%"
         style="stop-color: #f618c7; stop-opacity:1"
         id="stop9241" />
      <stop
         offset="20%"
         style="stop-color: #94ffab; stop-opacity:1"
         id="stop9243" />
      <stop
         offset="50%"
         style="stop-color: #fbfd54; stop-opacity:1"
         id="stop9245" />
      <stop
         offset="100%"
         style="stop-color: #0f83ae; stop-opacity:1"
         id="stop9247" />
    </linearGradient>
  </defs>
  <path
     d="M 24.000001,0.5 A 2.6111111,2.6111111 0 0 0 21.669583,1.9331083 22.194445,22.194445 0 0 0 10.056666,6.7549167 2.6111111,2.6111111 0 0 0 9.2668047,6.6178334 2.6111111,2.6111111 0 0 0 7.3815833,7.3815833 2.6111111,2.6111111 0 0 0 6.7496945,10.048835 22.194445,22.194445 0 0 0 1.9559555,21.661751 2.6111111,2.6111111 0 0 0 0.5,23.999999 a 2.6111111,2.6111111 0 0 0 1.4331082,2.330418 22.194445,22.194445 0 0 0 4.8218085,11.612916 2.6111111,2.6111111 0 0 0 0.6266666,2.675084 2.6111111,2.6111111 0 0 0 2.6672497,0.631888 22.194445,22.194445 0 0 0 11.612917,4.794 A 2.6111111,2.6111111 0 0 0 24.000001,47.5 2.6111111,2.6111111 0 0 0 26.330417,46.066501 22.194445,22.194445 0 0 0 37.943332,41.245083 2.6111111,2.6111111 0 0 0 40.618417,40.618417 2.6111111,2.6111111 0 0 0 41.250305,37.951166 22.194445,22.194445 0 0 0 46.044306,26.338249 2.6111111,2.6111111 0 0 0 47.5,23.999999 2.6111111,2.6111111 0 0 0 46.066499,21.669583 22.194445,22.194445 0 0 0 41.245082,10.056667 2.6111111,2.6111111 0 0 0 40.618417,7.3815833 2.6111111,2.6111111 0 0 0 38.733195,6.6178334 2.6111111,2.6111111 0 0 0 37.951166,6.7496945 22.194445,22.194445 0 0 0 26.33825,1.9559556 2.6111111,2.6111111 0 0 0 24.000001,0.5 Z m 0,1.3055556 A 1.3055556,1.3055556 0 0 1 25.305555,3.1111112 1.3055556,1.3055556 0 0 1 24.000001,4.4166667 1.3055556,1.3055556 0 0 1 22.694444,3.1111112 1.3055556,1.3055556 0 0 1 24.000001,1.8055556 Z M 26.180279,4.5467 A 19.583335,19.583335 0 0 1 36.213471,8.7158604 2.6111111,2.6111111 0 0 0 36.925,11.075 a 2.6111111,2.6111111 0 0 0 2.377418,0.708915 19.583335,19.583335 0 0 1 4.135999,10.046251 2.6111111,2.6111111 0 0 0 -1.160639,2.169833 2.6111111,2.6111111 0 0 0 1.175,2.180278 19.583335,19.583335 0 0 1 -4.166027,10.031889 2.6111111,2.6111111 0 0 0 -0.47653,-0.05222 A 2.6111111,2.6111111 0 0 0 36.925,36.925002 2.6111111,2.6111111 0 0 0 36.216083,39.302419 19.583335,19.583335 0 0 1 26.169832,43.43842 2.6111111,2.6111111 0 0 0 24.000001,42.277779 2.6111111,2.6111111 0 0 0 21.819721,43.452781 19.583335,19.583335 0 0 1 11.786528,39.284138 2.6111111,2.6111111 0 0 0 11.075,36.924999 2.6111111,2.6111111 0 0 0 9.1897778,36.159943 2.6111111,2.6111111 0 0 0 8.6949718,36.213466 19.583335,19.583335 0 0 1 4.561975,26.169829 2.6111111,2.6111111 0 0 0 5.7222221,23.999994 2.6111111,2.6111111 0 0 0 4.5467,21.819716 19.583335,19.583335 0 0 1 8.7158607,11.786523 2.6111111,2.6111111 0 0 0 11.075,11.074994 2.6111111,2.6111111 0 0 0 11.783917,8.6975781 19.583335,19.583335 0 0 1 21.830167,4.5619694 2.6111111,2.6111111 0 0 0 24.000001,5.7222167 2.6111111,2.6111111 0 0 0 26.180279,4.5466946 Z M 24.000001,7.0277778 A 2.6111111,2.6111111 0 0 0 21.63825,8.5317776 15.666667,15.666667 0 0 0 8.3333333,23.999999 15.666667,15.666667 0 0 0 21.640862,39.477361 a 2.6111111,2.6111111 0 0 0 2.359139,1.494861 2.6111111,2.6111111 0 0 0 2.361748,-1.504 A 15.666667,15.666667 0 0 0 39.666666,23.999999 15.666667,15.666667 0 0 0 26.359139,8.5226386 2.6111111,2.6111111 0 0 0 24.000001,7.0277778 Z M 9.2485269,7.9233889 a 1.3055556,1.3055556 0 0 1 0.9034451,0.3825279 1.3055556,1.3055556 0 0 1 0,1.8460562 1.3055556,1.3055556 0 0 1 -1.8460554,0 1.3055556,1.3055556 0 0 1 0,-1.8460562 1.3055556,1.3055556 0 0 1 0.9426103,-0.3825279 z m 29.5029461,0 a 1.3055556,1.3055556 0 0 1 0.942611,0.3825279 1.3055556,1.3055556 0 0 1 0,1.8460562 1.3055556,1.3055556 0 0 1 -1.846055,0 1.3055556,1.3055556 0 0 1 0,-1.8460562 1.3055556,1.3055556 0 0 1 0.903444,-0.3825279 z M 24.000001,8.3333333 A 1.3055556,1.3055556 0 0 1 25.305555,9.6388889 1.3055556,1.3055556 0 0 1 24.000001,10.944444 1.3055556,1.3055556 0 0 1 22.694444,9.6388889 1.3055556,1.3055556 0 0 1 24.000001,8.3333333 Z M 21.85236,11.125917 a 2.6111111,2.6111111 0 0 0 2.147641,1.124082 2.6111111,2.6111111 0 0 0 2.137193,-1.114943 A 13.055556,13.055556 0 0 1 37.055555,23.999999 13.055556,13.055556 0 0 1 26.147639,36.874083 2.6111111,2.6111111 0 0 0 24.000001,35.749999 2.6111111,2.6111111 0 0 0 21.862805,36.864946 13.055556,13.055556 0 0 1 10.944443,23.999999 13.055556,13.055556 0 0 1 21.85236,11.125917 Z m 2.147641,6.346305 a 6.5277777,6.5277777 0 0 0 -6.527778,6.527777 6.5277777,6.5277777 0 0 0 6.527778,6.527779 6.5277777,6.5277777 0 0 0 6.527776,-6.527779 6.5277777,6.5277777 0 0 0 -6.527776,-6.527777 z M 3.111111,22.694444 A 1.3055556,1.3055556 0 0 1 4.4166666,23.999999 1.3055556,1.3055556 0 0 1 3.111111,25.305555 1.3055556,1.3055556 0 0 1 1.8055556,23.999999 1.3055556,1.3055556 0 0 1 3.111111,22.694444 Z m 41.777777,0 a 1.3055556,1.3055556 0 0 1 1.305556,1.305555 1.3055556,1.3055556 0 0 1 -1.305556,1.305556 1.3055556,1.3055556 0 0 1 -1.305555,-1.305556 1.3055556,1.3055556 0 0 1 1.305555,-1.305555 z M 24.000001,37.055555 a 1.3055556,1.3055556 0 0 1 1.305554,1.305555 1.3055556,1.3055556 0 0 1 -1.305554,1.305557 1.3055556,1.3055556 0 0 1 -1.305557,-1.305557 1.3055556,1.3055556 0 0 1 1.305557,-1.305555 z M 9.2106657,37.4655 a 1.3055556,1.3055556 0 0 1 0.9413063,0.382528 1.3055556,1.3055556 0 0 1 0,1.846056 1.3055556,1.3055556 0 0 1 -1.8460554,0 1.3055556,1.3055556 0 0 1 0,-1.846056 1.3055556,1.3055556 0 0 1 0.9047491,-0.382528 z m 29.5786683,0 a 1.3055556,1.3055556 0 0 1 0.90475,0.382528 1.3055556,1.3055556 0 0 1 0,1.846056 1.3055556,1.3055556 0 0 1 -1.846055,0 1.3055556,1.3055556 0 0 1 0,-1.846056 1.3055556,1.3055556 0 0 1 0.941305,-0.382528 z m -14.789333,6.117834 a 1.3055556,1.3055556 0 0 1 1.305554,1.305555 1.3055556,1.3055556 0 0 1 -1.305554,1.305556 1.3055556,1.3055556 0 0 1 -1.305557,-1.305556 1.3055556,1.3055556 0 0 1 1.305557,-1.305555 z"
     id="path10"
     class="ColorScheme-Text"
     style="display:inline;fill:url(#oomox);fill-opacity:1;stroke-width:1.30556" />
  <metadata
     id="metadata188">
    <rdf:RDF>
      <cc:License
         rdf:about="http://creativecommons.org/licenses/by-sa/4.0/">
        <cc:permits
           rdf:resource="http://creativecommons.org/ns#Reproduction" />
        <cc:permits
           rdf:resource="http://creativecommons.org/ns#Distribution" />
        <cc:requires
           rdf:resource="http://creativecommons.org/ns#Notice" />
        <cc:requires
           rdf:resource="http://creativecommons.org/ns#Attribution" />
        <cc:permits
           rdf:resource="http://creativecommons.org/ns#DerivativeWorks" />
        <cc:requires
           rdf:resource="http://creativecommons.org/ns#ShareAlike" />
      </cc:License>
      <cc:Work
         rdf:about="">
        <cc:license
           rdf:resource="http://creativecommons.org/licenses/by-sa/4.0/" />
        <dc:creator>
          <cc:Agent>
            <dc:title>dreifacherspass</dc:title>
          </cc:Agent>
        </dc:creator>
      </cc:Work>
    </rdf:RDF>
  </metadata>
</svg>
