<?xml version="1.0" encoding="UTF-8" standalone="no"?>
<svg
   x="0px"
   y="0px"
   width="16"
   height="16"
   viewBox="0 0 16 16.000001"
   version="1.1"
   id="svg436"
   xmlns="http://www.w3.org/2000/svg"
   xmlns:svg="http://www.w3.org/2000/svg"
   xmlns:rdf="http://www.w3.org/1999/02/22-rdf-syntax-ns#"
   xmlns:cc="http://creativecommons.org/ns#"
   xmlns:dc="http://purl.org/dc/elements/1.1/">
  <metadata
     id="metadata442">
    <rdf:RDF>
      <cc:Work
         rdf:about="">
        <dc:format>image/svg+xml</dc:format>
        <dc:type
           rdf:resource="http://purl.org/dc/dcmitype/StillImage" />
        <dc:creator>
          <cc:Agent>
            <dc:title>dreifacherspass</dc:title>
          </cc:Agent>
        </dc:creator>
        <cc:license
           rdf:resource="http://creativecommons.org/licenses/by-sa/4.0/" />
      </cc:Work>
      <cc:License
         rdf:about="http://creativecommons.org/licenses/by-sa/4.0/">
        <cc:permits
           rdf:resource="http://creativecommons.org/ns#Reproduction" />
        <cc:permits
           rdf:resource="http://creativecommons.org/ns#Distribution" />
        <cc:requires
           rdf:resource="http://creativecommons.org/ns#Notice" />
        <cc:requires
           rdf:resource="http://creativecommons.org/ns#Attribution" />
        <cc:permits
           rdf:resource="http://creativecommons.org/ns#DerivativeWorks" />
        <cc:requires
           rdf:resource="http://creativecommons.org/ns#ShareAlike" />
      </cc:License>
    </rdf:RDF>
  </metadata>
  <defs>
   <style id="current-color-scheme" type="text/css">
   .ColorScheme-Text { color: #0abdc6; } .ColorScheme-Highlight { color:#5294e2; }
  </style>
  <linearGradient id="arrongin" x1="0%" x2="0%" y1="0%" y2="100%">
   <stop offset="0%" style="stop-color:#dd9b44; stop-opacity:1"/>
   <stop offset="100%" style="stop-color:#ad6c16; stop-opacity:1"/>
  </linearGradient>
  <linearGradient id="aurora" x1="0%" x2="0%" y1="0%" y2="100%">
   <stop offset="0%" style="stop-color:#09D4DF; stop-opacity:1"/>
   <stop offset="100%" style="stop-color:#9269F4; stop-opacity:1"/>
  </linearGradient>
  <linearGradient id="cyberneon" x1="0%" x2="0%" y1="0%" y2="100%">
    <stop offset="0" style="stop-color:#0abdc6; stop-opacity:1"/>
    <stop offset="1" style="stop-color:#ea00d9; stop-opacity:1"/>
  </linearGradient>
  <linearGradient id="fitdance" x1="0%" x2="0%" y1="0%" y2="100%">
   <stop offset="0%" style="stop-color:#1AD6AB; stop-opacity:1"/>
   <stop offset="100%" style="stop-color:#329DB6; stop-opacity:1"/>
  </linearGradient>
  <linearGradient id="oomox" x1="0%" x2="0%" y1="0%" y2="100%">
   <stop offset="0%" style="stop-color:#0abdc6; stop-opacity:1"/>
   <stop offset="100%" style="stop-color:#b800ff; stop-opacity:1"/>
  </linearGradient>
  <linearGradient id="rainblue" x1="0%" x2="0%" y1="0%" y2="100%">
   <stop offset="0%" style="stop-color:#00F260; stop-opacity:1"/>
   <stop offset="100%" style="stop-color:#0575E6; stop-opacity:1"/>
  </linearGradient>
  <linearGradient id="sunrise" x1="0%" x2="0%" y1="0%" y2="100%">
   <stop offset="0%" style="stop-color: #FF8501; stop-opacity:1"/>
   <stop offset="100%" style="stop-color: #FFCB01; stop-opacity:1"/>
  </linearGradient>
  <linearGradient id="telinkrin" x1="0%" x2="0%" y1="0%" y2="100%">
   <stop offset="0%" style="stop-color: #b2ced6; stop-opacity:1"/>
   <stop offset="100%" style="stop-color: #6da5b7; stop-opacity:1"/>
  </linearGradient>
  <linearGradient id="60spsycho" x1="0%" x2="0%" y1="0%" y2="100%">
   <stop offset="0%" style="stop-color: #df5940; stop-opacity:1"/>
   <stop offset="25%" style="stop-color: #d8d15f; stop-opacity:1"/>
   <stop offset="50%" style="stop-color: #e9882a; stop-opacity:1"/>
   <stop offset="100%" style="stop-color: #279362; stop-opacity:1"/>
  </linearGradient>
  <linearGradient id="90ssummer" x1="0%" x2="0%" y1="0%" y2="100%">
   <stop offset="0%" style="stop-color: #f618c7; stop-opacity:1"/>
   <stop offset="20%" style="stop-color: #94ffab; stop-opacity:1"/>
   <stop offset="50%" style="stop-color: #fbfd54; stop-opacity:1"/>
   <stop offset="100%" style="stop-color: #0f83ae; stop-opacity:1"/>
  </linearGradient>
 </defs>
  <path
     id="path-upper-cog"
     style="display:inline;opacity:1;fill:url(#oomox);fill-opacity:1;stroke-width:0.153021"
     class="ColorScheme-Text"
     d="M 8 0 C 7.9226427 0 7.8466181 0.033473016 7.8046875 0.1015625 L 7.3867188 0.77539062 L 7.1914062 0.79296875 L 6.6523438 0.21484375 C 6.5430796 0.097943514 6.3216342 0.14240617 6.265625 0.29296875 L 5.9902344 1.03125 L 5.8007812 1.0898438 L 5.1796875 0.64257812 L 5.1796875 2.8183594 C 5.7176475 2.5221518 6.302448 2.3089395 6.9140625 2.1933594 L 7.6464844 2.9628906 C 7.812064 3.1362519 8.0865342 3.1422716 8.2597656 2.9765625 L 9.078125 2.1933594 C 9.6854992 2.307117 10.263426 2.5162466 10.794922 2.8046875 L 10.785156 0.66992188 L 10.201172 1.0898438 L 10.009766 1.03125 L 9.734375 0.29296875 C 9.6783659 0.14240617 9.456921 0.097943514 9.3476562 0.21484375 L 8.8085938 0.79296875 L 8.6132812 0.77539062 L 8.1972656 0.1015625 C 8.155182 0.033472706 8.0773567 1.8503699e-17 8 0 z M 5.0507812 0.58984375 C 4.9362108 0.58198477 4.8142038 0.66086697 4.7949219 0.77929688 L 4.7578125 1.0058594 L 5.140625 0.61914062 C 5.112734 0.60330954 5.0819527 0.59198196 5.0507812 0.58984375 z M 10.949219 0.58984375 C 10.911072 0.59247064 10.874316 0.60549572 10.841797 0.62890625 L 10.837891 0.63085938 L 11.248047 1.0429688 L 11.205078 0.77929688 C 11.185796 0.66086628 11.063658 0.58196309 10.949219 0.58984375 z M 3.6621094 1.3085938 C 3.5480961 1.3232262 3.4426747 1.4229318 3.4472656 1.5429688 L 3.4746094 2.3007812 L 4.234375 1.5332031 L 3.7753906 1.3242188 C 3.7388927 1.3075405 3.7001137 1.3037162 3.6621094 1.3085938 z M 12.28125 1.3085938 C 12.262143 1.3112156 12.242858 1.3159179 12.224609 1.3242188 L 11.746094 1.5429688 L 12.525391 2.328125 L 12.552734 1.5429688 C 12.558072 1.4029256 12.414998 1.2902409 12.28125 1.3085938 z M 7.9765625 1.4101562 C 8.2385876 1.4110281 8.4511244 1.6227739 8.4511719 1.8847656 C 8.4511719 2.5189232 7.5 2.5189232 7.5 1.8847656 C 7.5000475 1.62149 7.7132531 1.4092128 7.9765625 1.4101562 z M 2.4960938 2.2714844 C 2.3614082 2.2795769 2.243254 2.4178579 2.2753906 2.5546875 L 2.4570312 3.3242188 L 2.4335938 3.3515625 L 3.3203125 2.4570312 L 2.5546875 2.2773438 C 2.5351378 2.2727917 2.5153345 2.2703283 2.4960938 2.2714844 z M 13.505859 2.2714844 C 13.486652 2.2703816 13.466815 2.2727534 13.447266 2.2773438 L 12.675781 2.4589844 L 12.564453 2.3671875 L 13.664062 3.4707031 L 13.542969 3.3242188 L 13.724609 2.5546875 C 13.756748 2.4178578 13.640311 2.2792037 13.505859 2.2714844 z M 1.5410156 3.4492188 C 1.3815571 3.4446288 1.2558503 3.6291124 1.3222656 3.7753906 L 1.6503906 4.4941406 L 1.5566406 4.6699219 L 0.77734375 4.796875 C 0.6191096 4.8225809 0.53360379 5.0300972 0.62695312 5.1601562 L 1.0878906 5.7988281 L 1.0292969 5.9902344 L 0.29101562 6.2675781 C 0.14104503 6.3235806 0.097621874 6.5427884 0.21484375 6.6523438 L 0.79296875 7.1914062 L 0.7734375 7.3867188 L 0.1015625 7.8046875 C 0.01192303 7.8600754 -0.018588259 7.9751708 0.009765625 8.0722656 L 2.1445312 8.0722656 C 2.141766 7.9383137 2.1439668 7.8038688 2.1503906 7.6699219 L 2.1503906 6.6425781 C 1.9725952 6.5888991 1.8261719 6.440025 1.8261719 6.1914062 C 1.8260774 5.9818224 1.9622888 5.8056368 2.1503906 5.7421875 L 2.1503906 3.6386719 L 2.3125 3.4765625 L 1.5410156 3.4492188 z M 14.458984 3.4492188 L 13.667969 3.4765625 L 13.855469 3.6640625 L 13.861328 5.7890625 C 14.01752 5.8668354 14.124967 6.0266808 14.125 6.2128906 C 14.125 6.4314649 14.01138 6.5727219 13.863281 6.640625 L 13.867188 8.0722656 L 15.990234 8.0722656 C 16.018584 7.9751718 15.988096 7.8600748 15.898438 7.8046875 L 15.226562 7.3867188 L 15.207031 7.1914062 L 15.785156 6.6523438 C 15.902684 6.5427877 15.859254 6.32358 15.708984 6.2675781 L 14.970703 5.9902344 L 14.912109 5.7988281 L 15.373047 5.1601562 C 15.467007 5.0300972 15.380896 4.8228869 15.222656 4.796875 L 14.443359 4.6699219 L 14.349609 4.4941406 L 14.677734 3.7753906 C 14.744764 3.6291124 14.619973 3.4430985 14.458984 3.4492188 z " />
  <path
     d="M 2.1497981,3.6397832 5.17942,0.58141013 V 14.805435 L 2.1497981,11.782384 Z"
     id="path-Left"
     class="ColorScheme-Text"
     style="display:inline;opacity:0.8;fill:url(#oomox);stroke-width:0.0670275" />
  <path
     d="M 5.1774001,0.58384299 13.054099,12.601788 10.849962,14.805576 2.9691396,2.8142332 Z"
     id="path-Center"
     class="ColorScheme-Text"
     style="display:inline;fill:url(#oomox);stroke-width:0.0670275;opacity:1" />
  <path
     d="m 13.856046,3.663133 -3.071123,-3.08559625 0.06225,14.22428625 3.029622,-3.02305 z"
     id="path-Right"
     class="ColorScheme-Text"
     style="display:inline;fill:url(#oomox);stroke-width:0.0670275;opacity:0.8" />
  <path
     d="M 5.1801106,6.1580862 5.1759206,6.6314382 2.7439534,3.0415043 2.9691394,2.8121388 Z"
     id="Shadow"
     style="display:inline;fill:#000000;fill-opacity:0.5;stroke-width:0.0670275" />
  <path
     id="path-lower-cog"
     class="ColorScheme-Text"
     style="display:inline;opacity:1;fill:url(#oomox);fill-opacity:1;stroke-width:0.153021"
     d="M 5.1389271e-4,8.0148519 C 0.00450205,8.0872094 0.03739434,8.1578444 0.10123971,8.1971501 l 0.6725018,0.4162981 0.0191289,0.1957462 -0.57805264,0.539125 c -0.11722215,0.10925 -0.0734551,0.3295069 0.0765158,0.3858151 l 0.73885533,0.2761375 0.057985,0.190666 -0.46088782,0.640136 c -0.0936553,0.130365 -0.007595,0.338002 0.15064044,0.363402 L 1.556833,11.331188 1.650684,11.506314 1.3231008,12.22445 c -0.066721,0.145973 0.059329,0.333667 0.2187873,0.32724 l 0.7902644,-0.02749 0.1249358,0.151816 -0.181426,0.770136 c -0.036728,0.156071 0.1221669,0.314354 0.2785651,0.277631 l 0.769641,-0.181103 0.151836,0.124322 -0.027498,0.790756 c -0.00612,0.160051 0.1812921,0.285173 0.3272842,0.218459 l 0.718232,-0.32724 0.1748505,0.09384 0.1270281,0.778504 c 0.025709,0.158519 0.2336719,0.244256 0.3637487,0.150919 l 0.6402218,-0.461125 0.1906916,0.05798 0.2761741,0.738457 c 0.056009,0.14995 0.2766019,0.194018 0.3858663,0.0765 l 0.5391975,-0.577676 0.1960712,0.01943 0.4160544,0.672411 c 0.083862,0.135568 0.3094707,0.135874 0.3936382,0 l 0.4160543,-0.672411 0.1960713,-0.01943 0.5388981,0.577676 c 0.109265,0.117513 0.3298575,0.07345 0.3858669,-0.0765 l 0.2761734,-0.738457 0.190692,-0.05798 0.640222,0.461125 c 0.130076,0.09334 0.33774,0.0073 0.36345,-0.150919 l 0.127028,-0.778504 0.17515,-0.09384 0.718232,0.32724 c 0.145991,0.06671 0.333099,-0.0581 0.327283,-0.218459 l -0.0278,-0.790756 0.151837,-0.124322 0.76994,0.181103 c 0.156398,0.03672 0.314992,-0.12156 0.278266,-0.277631 l -0.181426,-0.770136 0.124637,-0.151816 0.790563,0.02749 c 0.159459,0.0064 0.285517,-0.181267 0.218488,-0.32724 l -0.327284,-0.718136 0.09355,-0.175126 0.778608,-0.126712 c 0.158541,-0.0254 0.2449,-0.233037 0.150938,-0.363402 l -0.460886,-0.640136 0.05768,-0.190666 0.738855,-0.2761375 c 0.150276,-0.056308 0.194044,-0.2765651 0.07652,-0.3858151 l -0.577455,-0.539125 0.01913,-0.1957462 0.672203,-0.4162981 c 0.06385,-0.039306 0.09674,-0.1099407 0.100727,-0.1822982 h -2.138856 c -0.01494,1.3431419 -0.490496,2.6412691 -1.350085,3.6758521 l -0.0021,-0.0018 c -0.105739,0.125747 -0.216726,0.246988 -0.332664,0.363401 l -1.006063,-0.216367 c -0.234291,-0.05019 -0.464793,0.0988 -0.514987,0.333516 l -0.238514,1.114112 c -1.55357,0.7037 -3.3367794,0.695188 -4.8835586,-0.02331 L 5.2941354,12.146151 C 5.2439414,11.911738 5.0135856,11.762593 4.7794474,11.812934 l -0.983644,0.210987 C 3.6446428,11.868279 3.5022514,11.704356 3.3692875,11.532911 l -0.00478,0.0036 C 2.8609348,10.887085 2.4997271,10.139107 2.3043557,9.3411476 l 0.00598,-0.0015 C 2.2043178,8.9051857 2.1498765,8.4605238 2.1450471,8.0148463 Z M 4.4527747,12.41661 h 3.063e-4 c 0.2621425,8.75e-4 0.4741567,0.213659 0.474039,0.475769 0,0.634159 -0.9513659,0.634159 -0.9513659,0 -1.188e-4,-0.263276 0.2137177,-0.476547 0.4770279,-0.475769 z m 7.0475203,0.02241 c 0.262026,9.19e-4 0.473991,0.213479 0.474039,0.47547 0,0.634159 -0.951366,0.634159 -0.951366,0 4.7e-5,-0.263276 0.214017,-0.476414 0.477327,-0.47547 z" />
</svg>
