<?xml version="1.0" encoding="UTF-8" standalone="no"?>
<svg
   width="16"
   height="16"
   version="1.1"
   id="svg14"
   xmlns:xlink="http://www.w3.org/1999/xlink"
   xmlns="http://www.w3.org/2000/svg"
   xmlns:svg="http://www.w3.org/2000/svg"
   xmlns:rdf="http://www.w3.org/1999/02/22-rdf-syntax-ns#"
   xmlns:cc="http://creativecommons.org/ns#"
   xmlns:dc="http://purl.org/dc/elements/1.1/">
   <defs>
      <style id="current-color-scheme" type="text/css">
         .ColorScheme-Text { color: #0abdc6; } .ColorScheme-Highlight { color:#5294e2; }
      </style>
      <linearGradient id="arrongin" x1="0%" x2="0%" y1="0%" y2="100%">
         <stop offset="0%" style="stop-color:#dd9b44; stop-opacity:1"/>
         <stop offset="100%" style="stop-color:#ad6c16; stop-opacity:1"/>
      </linearGradient>
      <linearGradient id="aurora" x1="0%" x2="0%" y1="0%" y2="100%">
         <stop offset="0%" style="stop-color:#09D4DF; stop-opacity:1"/>
         <stop offset="100%" style="stop-color:#9269F4; stop-opacity:1"/>
      </linearGradient>
      <linearGradient id="cyberneon" x1="0%" x2="0%" y1="0%" y2="100%">
         <stop offset="0" style="stop-color:#0abdc6; stop-opacity:1"/>
         <stop offset="1" style="stop-color:#ea00d9; stop-opacity:1"/>
      </linearGradient>
      <linearGradient id="fitdance" x1="0%" x2="0%" y1="0%" y2="100%">
         <stop offset="0%" style="stop-color:#1AD6AB; stop-opacity:1"/>
         <stop offset="100%" style="stop-color:#329DB6; stop-opacity:1"/>
      </linearGradient>
      <linearGradient id="oomox" x1="0%" x2="0%" y1="0%" y2="100%">
         <stop offset="0%" style="stop-color:#0abdc6; stop-opacity:1"/>
         <stop offset="100%" style="stop-color:#b800ff; stop-opacity:1"/>
      </linearGradient>
      <linearGradient id="rainblue" x1="0%" x2="0%" y1="0%" y2="100%">
         <stop offset="0%" style="stop-color:#00F260; stop-opacity:1"/>
         <stop offset="100%" style="stop-color:#0575E6; stop-opacity:1"/>
      </linearGradient>
      <linearGradient id="sunrise" x1="0%" x2="0%" y1="0%" y2="100%">
         <stop offset="0%" style="stop-color: #FF8501; stop-opacity:1"/>
         <stop offset="100%" style="stop-color: #FFCB01; stop-opacity:1"/>
      </linearGradient>
      <linearGradient id="telinkrin" x1="0%" x2="0%" y1="0%" y2="100%">
         <stop offset="0%" style="stop-color: #b2ced6; stop-opacity:1"/>
         <stop offset="100%" style="stop-color: #6da5b7; stop-opacity:1"/>
      </linearGradient>
      <linearGradient id="60spsycho" x1="0%" x2="0%" y1="0%" y2="100%">
         <stop offset="0%" style="stop-color: #df5940; stop-opacity:1"/>
         <stop offset="25%" style="stop-color: #d8d15f; stop-opacity:1"/>
         <stop offset="50%" style="stop-color: #e9882a; stop-opacity:1"/>
         <stop offset="100%" style="stop-color: #279362; stop-opacity:1"/>
      </linearGradient>
      <linearGradient id="90ssummer" x1="0%" x2="0%" y1="0%" y2="100%">
         <stop offset="0%" style="stop-color: #f618c7; stop-opacity:1"/>
         <stop offset="20%" style="stop-color: #94ffab; stop-opacity:1"/>
         <stop offset="50%" style="stop-color: #fbfd54; stop-opacity:1"/>
         <stop offset="100%" style="stop-color: #0f83ae; stop-opacity:1"/>
      </linearGradient>
   </defs>
  <path
     id="path1"
     class="ColorScheme-Text"
     style="opacity:1;fill:url(#oomox);stroke-width:0.0174972"
     d="M 8.000001,0 A 2.3152797,2.3151685 0 0 0 7.3722753,0.0874837 C 6.7908138,0.25146297 6.2930411,0.74893148 5.2988122,1.7431126 L 1.7424293,5.2993248 C 0.7482004,6.2935059 0.250708,6.7912547 0.08672086,7.3726883 a 2.3152447,2.3151335 0 0 0 0,1.2553912 C 0.250708,9.2095131 0.7482004,9.7072613 1.7424293,10.701442 l 3.5563829,3.556213 c 0.9942289,0.994182 1.4920016,1.49165 2.0734631,1.655629 a 2.3152622,2.315151 0 0 0 1.2554514,0 c 0.5814615,-0.163979 1.0792336,-0.661447 2.0734623,-1.655629 l 3.556384,-3.556213 c 0.994228,-0.9941796 1.491721,-1.4919289 1.655708,-2.0733625 a 2.3152797,2.3151685 0 0 0 0,-1.2553911 C 15.749294,6.7912547 15.251801,6.2935059 14.257573,5.2993248 L 10.701189,1.7431126 C 9.7069603,0.74893148 9.2091882,0.25146297 8.6277267,0.0874837 A 2.3152797,2.3151685 0 0 0 8.000001,0 Z m -0.00218,1.2553909 a 1.9293881,1.9292955 0 0 1 0.5249274,0.072174 c 0.4845739,0.1366499 0.8971676,0.551586 1.7256946,1.3800557 l 3.046766,3.0466197 c 0.828527,0.8284874 1.243466,1.2432486 1.380122,1.727803 a 1.9293705,1.9292779 0 0 1 0,1.0476172 c -0.136659,0.4845536 -0.551599,0.8971461 -1.380125,1.7256165 l -3.046767,3.048805 c -0.8285264,0.82847 -1.2411369,1.241219 -1.7256978,1.377869 a 1.9293705,1.9292779 0 0 1 -1.0476676,0 C 6.9904958,14.545301 6.5756975,14.13257 5.7471876,13.304082 L 2.7004217,10.255277 C 1.8719122,9.4268062 1.4569562,9.0142137 1.3203001,8.5296602 a 1.9293881,1.9292955 0 0 1 0,-1.0476172 C 1.4569562,6.9974888 1.8718947,6.5827273 2.7004217,5.7542399 L 5.7471876,2.7076204 C 6.5756975,1.8791506 6.9904958,1.4642145 7.4750736,1.3275651 a 1.9293881,1.9292955 0 0 1 0.5227402,-0.072174 z" />
  <path
     id="path2"
     class="ColorScheme-Text"
     style="opacity:0.5;fill:url(#oomox);stroke-width:0.0174972"
     d="M 7.9978138,1.2553909 A 1.9293881,1.9292955 0 0 0 7.4750736,1.3275651 C 6.9904962,1.4642145 6.5756972,1.8791506 5.7471877,2.7076204 L 2.7004217,5.7542399 C 1.8718947,6.5827273 1.4569561,6.9974888 1.3203002,7.482043 a 1.9293881,1.9292955 0 0 0 0,1.0476174 c 0.1366559,0.484554 0.5516121,0.8971461 1.3801215,1.7256166 l 3.046766,3.046618 c 0.8285095,0.828489 1.2433085,1.243407 1.7278859,1.380056 a 1.9293705,1.9292779 0 0 0 1.0454804,0 c 0.4845599,-0.136649 0.8993589,-0.551585 1.727886,-1.380056 l 3.046766,-3.046618 c 0.828527,-0.8284705 1.243466,-1.2410626 1.380122,-1.7256166 a 1.9293705,1.9292779 0 0 0 0,-1.0476174 C 14.538672,6.9974888 14.123733,6.5827273 13.295206,5.7542399 L 10.24844,2.7076204 C 9.4199129,1.8791506 9.0051314,1.4642145 8.520554,1.3275651 A 1.9293881,1.9292955 0 0 0 7.9978138,1.2553909 Z m 0.00218,0.7676696 a 1.607835,1.6077578 0 0 1 0.4374395,0.061238 c 0.4037946,0.1138692 0.7487429,0.4578208 1.4391794,1.1482242 l 2.8914753,2.891336 c 0.690436,0.6904206 1.036574,1.037522 1.150466,1.4412939 a 1.6078175,1.6077403 0 0 1 0,0.8726499 c -0.113892,0.4037892 -0.46003,0.7487211 -1.150466,1.4391069 L 9.8766164,12.768246 c -0.6904544,0.690403 -1.0353848,1.036522 -1.4391759,1.15041 a 1.6078175,1.6077403 0 0 1 -0.8726918,0 C 7.1609576,13.804768 6.8138221,13.458649 6.1233857,12.768246 L 3.2319107,9.8769093 C 2.5414569,9.1864886 2.1975063,8.8415918 2.0836321,8.4378024 a 1.6078175,1.6077403 0 0 1 0,-0.8726499 C 2.1975063,7.1613806 2.5414745,6.8142617 3.2319107,6.1238587 L 6.1233857,3.2325226 C 6.8138389,2.5421018 7.1609576,2.1981676 7.5647487,2.084299 A 1.607835,1.6077578 0 0 1 8.000001,2.023061 Z" />
  <path
     id="path4"
     class="ColorScheme-Text"
     style="opacity:1;fill:url(#oomox);stroke-width:0.0174972"
     d="M 8.000001,2.0230605 A 1.607835,1.6077578 0 0 0 7.5647487,2.084299 C 7.1609578,2.1981675 6.8160259,2.5421026 6.1255729,3.2325226 L 3.2319107,6.1260457 C 2.5414752,6.8164481 2.197506,7.1613809 2.0836321,7.5651525 a 1.6078175,1.6077403 0 0 0 0,0.8726499 C 2.197506,8.8415915 2.5414577,9.1864893 3.2319107,9.8769093 l 2.8936622,2.8913367 c 0.6904355,0.690401 1.0353849,1.036523 1.4391758,1.15041 a 1.6078175,1.6077403 0 0 0 0.8726918,0 c 0.4037909,-0.113887 0.7487228,-0.460009 1.4391759,-1.15041 L 12.768092,9.8769093 c 0.690434,-0.690385 1.036574,-1.0353178 1.150466,-1.4391069 a 1.6078175,1.6077403 0 0 0 0,-0.8726499 C 13.804666,7.1613809 13.458526,6.8164656 12.768092,6.1260457 L 9.8766164,3.2325226 C 9.1861807,2.5421201 8.8412314,2.1981675 8.4374405,2.084299 A 1.607835,1.6077578 0 0 0 8.000001,2.0230605 Z M 7.5494384,3.1822194 C 7.698679,3.1745489 7.8674655,3.2027866 7.956257,3.2915738 L 9.7760053,5.1112346 C 9.894376,5.2295999 9.9070486,5.4886749 9.8678673,5.6558209 9.7994,5.9480157 9.5944675,6.202594 9.5944675,6.202594 L 6.138696,9.6582001 c 0,0 -0.2545897,0.2049044 -0.5467993,0.2733865 C 5.4247424,9.9707457 5.1656721,9.9581113 5.0472846,9.839729 L 3.2275364,8.0222553 C 3.109148,7.9038721 3.0965145,7.6426104 3.135674,7.4754817 3.2041594,7.1832868 3.4090737,6.9308957 3.4090737,6.9308957 L 6.8648455,3.4731029 c 0,0 0.2545911,-0.2027176 0.5467994,-0.2711995 0.041788,-0.0098 0.088047,-0.017125 0.1377935,-0.019684 z M 10.508716,6.202594 c 0.149241,-0.00767 0.318027,0.022754 0.406819,0.1115412 l 1.817561,1.8174739 c 0.118389,0.1183653 0.13102,0.3796269 0.09186,0.5467731 -0.06849,0.2921951 -0.2734,0.544586 -0.2734,0.544586 L 9.0957859,12.678574 c 0,0 -0.2545894,0.204904 -0.5467993,0.273387 -0.1671536,0.03916 -0.4262245,0.02871 -0.5446122,-0.08968 L 6.1846272,11.042627 C 6.066256,10.924247 6.0557752,10.662984 6.094952,10.495857 6.1634376,10.203661 6.3661645,9.9512704 6.3661645,9.9512704 L 9.8241237,6.4956643 c 0,0 0.2524203,-0.2049044 0.5446123,-0.2733865 0.04179,-0.0098 0.09023,-0.017125 0.13998,-0.019684 z" />
  <path
     fill-rule="evenodd"
     class="ColorScheme-Text"
     d="m 6.1376987,9.6584974 c 0,0 -0.2534875,0.2043619 -0.5456971,0.2728442 -0.1671543,0.039158 -0.4273258,0.027435 -0.5457145,-0.090949 L 3.2272388,8.0214325 C 3.1088503,7.9030495 3.0971268,7.6428905 3.1362865,7.4757618 3.2047719,7.1835661 3.4091436,6.9300734 3.4091436,6.9300734 L 6.865318,3.4740649 c 0,0 0.2535049,-0.2043619 0.5457145,-0.2728441 0.1671543,-0.039175 0.4273259,-0.027435 0.5457145,0.090949 l 1.8190483,1.8189611 c 0.1183711,0.118365 0.130112,0.3785241 0.090935,0.5456704 -0.068468,0.2921956 -0.2728572,0.5456885 -0.2728572,0.5456885 z"
     id="path6"
     style="opacity:0.5;fill:url(#oomox);stroke-width:0.0174972" />
  <path
     fill-rule="evenodd"
     d="m 9.094982,12.679939 c 0,0 -0.2535049,0.204361 -0.5457145,0.272844 -0.1671543,0.03916 -0.4273259,0.02744 -0.5457145,-0.09095 L 6.1845047,11.042875 C 6.0661336,10.924491 6.0543927,10.664333 6.0935698,10.497204 6.1620553,10.205008 6.366427,9.9515154 6.366427,9.9515154 L 9.8226013,6.4954892 c 0,0 0.2535047,-0.2043618 0.5456967,-0.2728441 0.167155,-0.039175 0.427326,-0.027435 0.545715,0.090949 l 1.819049,1.8189611 c 0.118387,0.1183655 0.130111,0.3785244 0.09095,0.5456707 -0.06849,0.2921956 -0.272857,0.5456883 -0.272857,0.5456883 z"
     id="path8"
     class="ColorScheme-Text"
     style="opacity:0.5;fill:url(#oomox);stroke-width:0.0174972" />
  <path
     fill-rule="evenodd"
     d="m 6.2856232,8.3674305 c 0,0 -0.1454924,0.117298 -0.3132066,0.1565957 -0.095939,0.022483 -0.2452461,0.015746 -0.3132067,-0.052192 L 4.6151818,7.4278556 C 4.5472387,7.3598983 4.5405022,7.2105986 4.5629865,7.1146641 4.6022861,6.9469577 4.7195899,6.8014723 4.7195899,6.8014723 L 6.7032555,4.817902 c 0,0 0.1454922,-0.1172982 0.3132066,-0.1565958 0.095922,-0.022483 0.2452461,-0.015747 0.3132067,0.05221 l 1.0440105,1.0439604 c 0.067961,0.067957 0.074697,0.2172744 0.052213,0.3131915 C 8.3865923,6.238375 8.269289,6.3838603 8.269289,6.3838603 Z"
     id="path10"
     class="ColorScheme-Text"
     style="fill:url(#oomox);stroke-width:0.0174972" />
  <path
     fill-rule="evenodd"
     class="ColorScheme-Text"
     d="m 10.890654,8.5757641 c 0.12558,0.1255566 0.329181,0.1255566 0.454762,0 l 0.349146,-0.3491474 c 0.125581,-0.1255566 0.125581,-0.3291662 0,-0.4547401 L 11.345416,7.4227464 c -0.125581,-0.1255565 -0.329182,-0.1255565 -0.454762,0 L 10.541507,7.771894 c -0.12558,0.1255565 -0.12558,0.3291661 0,0.4547403 z"
     id="path12"
     style="fill:url(#oomox);stroke-width:0.0174972" />
  <path
     fill-rule="evenodd"
     d="m 7.6107149,11.791228 c 0.12558,0.125573 0.3291819,0.125573 0.4547621,0 l 0.3491466,-0.349131 c 0.1255801,-0.125573 0.1255801,-0.329166 0,-0.45474 L 8.065477,10.638227 c -0.1255802,-0.125557 -0.3291821,-0.125557 -0.4547621,0 l -0.3491467,0.349147 c -0.1255802,0.125557 -0.1255802,0.32915 0,0.454741 z"
     id="path14"
     class="ColorScheme-Text"
     style="fill:url(#oomox);stroke-width:0.0174972" />
  <metadata
     id="metadata22">
    <rdf:RDF>
      <cc:Work
         rdf:about="">
        <dc:creator>
          <cc:Agent>
            <dc:title>dreifacherspass</dc:title>
          </cc:Agent>
        </dc:creator>
        <cc:license
           rdf:resource="http://creativecommons.org/licenses/by-sa/4.0/" />
      </cc:Work>
      <cc:License
         rdf:about="http://creativecommons.org/licenses/by-sa/4.0/">
        <cc:permits
           rdf:resource="http://creativecommons.org/ns#Reproduction" />
        <cc:permits
           rdf:resource="http://creativecommons.org/ns#Distribution" />
        <cc:requires
           rdf:resource="http://creativecommons.org/ns#Notice" />
        <cc:requires
           rdf:resource="http://creativecommons.org/ns#Attribution" />
        <cc:permits
           rdf:resource="http://creativecommons.org/ns#DerivativeWorks" />
        <cc:requires
           rdf:resource="http://creativecommons.org/ns#ShareAlike" />
      </cc:License>
    </rdf:RDF>
  </metadata>
</svg>
