<?xml version="1.0" encoding="UTF-8" standalone="no"?>
<svg
   width="16"
   height="16"
   version="1.1"
   id="svg6"
   xmlns="http://www.w3.org/2000/svg"
   xmlns:svg="http://www.w3.org/2000/svg"
   xmlns:rdf="http://www.w3.org/1999/02/22-rdf-syntax-ns#"
   xmlns:cc="http://creativecommons.org/ns#"
   xmlns:dc="http://purl.org/dc/elements/1.1/">
  <defs>
   <style id="current-color-scheme" type="text/css">
   .ColorScheme-Text { color: #0abdc6; } .ColorScheme-Highlight { color:#5294e2; }
  </style>
  <linearGradient id="arrongin" x1="0%" x2="0%" y1="0%" y2="100%">
   <stop offset="0%" style="stop-color:#dd9b44; stop-opacity:1"/>
   <stop offset="100%" style="stop-color:#ad6c16; stop-opacity:1"/>
  </linearGradient>
  <linearGradient id="aurora" x1="0%" x2="0%" y1="0%" y2="100%">
   <stop offset="0%" style="stop-color:#09D4DF; stop-opacity:1"/>
   <stop offset="100%" style="stop-color:#9269F4; stop-opacity:1"/>
  </linearGradient>
  <linearGradient id="cyberneon" x1="0%" x2="0%" y1="0%" y2="100%">
    <stop offset="0" style="stop-color:#0abdc6; stop-opacity:1"/>
    <stop offset="1" style="stop-color:#ea00d9; stop-opacity:1"/>
  </linearGradient>
  <linearGradient id="fitdance" x1="0%" x2="0%" y1="0%" y2="100%">
   <stop offset="0%" style="stop-color:#1AD6AB; stop-opacity:1"/>
   <stop offset="100%" style="stop-color:#329DB6; stop-opacity:1"/>
  </linearGradient>
  <linearGradient id="oomox" x1="0%" x2="0%" y1="0%" y2="100%">
   <stop offset="0%" style="stop-color:#0abdc6; stop-opacity:1"/>
   <stop offset="100%" style="stop-color:#b800ff; stop-opacity:1"/>
  </linearGradient>
  <linearGradient id="rainblue" x1="0%" x2="0%" y1="0%" y2="100%">
   <stop offset="0%" style="stop-color:#00F260; stop-opacity:1"/>
   <stop offset="100%" style="stop-color:#0575E6; stop-opacity:1"/>
  </linearGradient>
  <linearGradient id="sunrise" x1="0%" x2="0%" y1="0%" y2="100%">
   <stop offset="0%" style="stop-color: #FF8501; stop-opacity:1"/>
   <stop offset="100%" style="stop-color: #FFCB01; stop-opacity:1"/>
  </linearGradient>
  <linearGradient id="telinkrin" x1="0%" x2="0%" y1="0%" y2="100%">
   <stop offset="0%" style="stop-color: #b2ced6; stop-opacity:1"/>
   <stop offset="100%" style="stop-color: #6da5b7; stop-opacity:1"/>
  </linearGradient>
  <linearGradient id="60spsycho" x1="0%" x2="0%" y1="0%" y2="100%">
   <stop offset="0%" style="stop-color: #df5940; stop-opacity:1"/>
   <stop offset="25%" style="stop-color: #d8d15f; stop-opacity:1"/>
   <stop offset="50%" style="stop-color: #e9882a; stop-opacity:1"/>
   <stop offset="100%" style="stop-color: #279362; stop-opacity:1"/>
  </linearGradient>
  <linearGradient id="90ssummer" x1="0%" x2="0%" y1="0%" y2="100%">
   <stop offset="0%" style="stop-color: #f618c7; stop-opacity:1"/>
   <stop offset="20%" style="stop-color: #94ffab; stop-opacity:1"/>
   <stop offset="50%" style="stop-color: #fbfd54; stop-opacity:1"/>
   <stop offset="100%" style="stop-color: #0f83ae; stop-opacity:1"/>
  </linearGradient>
 </defs>
  <path
     style="opacity:0.5;fill:none;stroke:url(#oomox);stroke-width:2.08696;stroke-linecap:round;stroke-linejoin:round"
     d="M 8,14.956518 V 1.0434778 M 1.0434778,7.999998 8,1.0434778 14.956522,7.999998"
     id="path3"
     class="ColorScheme-Text" />
  <path
     style="opacity:0.5;fill:none;stroke:#000000;stroke-width:1.00869;stroke-opacity:1"
     d="m 5.4782604,11.821946 1.0086957,-1.008695 1.0086957,1.008695 1.008696,-1.008695 1.008695,1.008695 1.0086972,-1.008695"
     id="path5-5"
     class="ColorScheme-Text" />
  <path
     style="fill:none;stroke:url(#oomox);stroke-width:1.00869"
     d="m 5.4782608,11.021946 1.0086957,-1.008695 1.0086957,1.008695 1.0086956,-1.008695 1.0086957,1.008695 1.0086965,-1.008695"
     id="path5"
     class="ColorScheme-Text" />
  <path
     d="m 2.3554,6.5322741 q 0.4716647,0 0.6869899,0.2050716 0.2187431,0.2016537 0.2187431,0.5571111 0,0.2119074 -0.088864,0.3998897 Q 3.0834042,7.8789109 2.8749147,7.9917003 2.6698431,8.1044897 2.3143856,8.1044897 H 2.0922248 V 8.9726261 H 1.576128 V 6.5322741 Z M 2.3280571,6.9560887 H 2.0922248 V 7.680675 h 0.170893 q 0.2187431,0 0.3452039,-0.085446 0.1298787,-0.088864 0.1298787,-0.2836824 0,-0.3554574 -0.4101433,-0.3554579 z m 3.3802644,1.1552367 q 0,0.2529216 -0.1127893,0.4579932 -0.1093717,0.2016538 -0.3349503,0.3212789 -0.2221609,0.1162072 -0.563947,0.1162072 -0.4853362,0 -0.7382577,-0.2460859 Q 3.7054556,8.511215 3.7054556,8.1044897 V 6.5322741 h 0.5160966 v 1.4936048 q 0,0.3007717 0.123043,0.4238146 0.1230429,0.123043 0.3657111,0.123043 0.2529216,0 0.365711,-0.1332965 Q 5.1922247,8.3061434 5.1922247,8.022461 V 6.5322741 H 5.7083215 Z M 7.0857209,6.5322741 q 0.4716645,0 0.6869895,0.2050716 0.218743,0.2016537 0.218743,0.5571111 0,0.2119074 -0.08886,0.3998897 -0.08886,0.1845644 -0.297354,0.2973538 Q 7.400164,8.1044897 7.0447066,8.1044897 H 6.8225457 V 8.9726261 H 6.3064488 V 6.5322741 Z M 7.058378,6.9560887 H 6.8225457 V 7.680675 h 0.170893 q 0.218743,0 0.3452038,-0.085446 0.1298787,-0.088864 0.1298787,-0.2836824 0,-0.3554574 -0.4101432,-0.3554579 z M 9.3791055,7.6020642 H 10.34636 v 1.2646083 q -0.1914,0.064939 -0.3998895,0.1025358 -0.205072,0.037596 -0.468247,0.037596 -0.546857,0 -0.840793,-0.3212788 -0.293936,-0.3212789 -0.293936,-0.9364937 0,-0.3828003 0.146968,-0.6630648 0.150385,-0.2802641 0.434068,-0.4340678 0.283682,-0.1538037 0.693825,-0.1538037 0.194818,0 0.3828005,0.041014 0.187982,0.041014 0.341786,0.1093715 l -0.170893,0.4135614 q -0.112789,-0.058104 -0.2563395,-0.0957 -0.14355,-0.037596 -0.300772,-0.037596 -0.225578,0 -0.393053,0.1025358 -0.164058,0.1025358 -0.25634,0.2905181 -0.08886,0.1845645 -0.08886,0.4374861 0,0.2392502 0.06494,0.4238146 0.06494,0.1845645 0.205071,0.2905182 0.140133,0.1025358 0.365711,0.1025358 0.109372,0 0.184565,-0.010254 0.07861,-0.010254 0.1435499,-0.023925 V 8.0327146 h -0.461411 z m 3.5340705,0.5092612 q 0,0.2529216 -0.112789,0.4579932 -0.109372,0.2016538 -0.334951,0.3212789 -0.222161,0.1162072 -0.563947,0.1162072 -0.485336,0 -0.738257,-0.2460859 Q 10.91031,8.511215 10.91031,8.1044897 V 6.5322741 h 0.516097 v 1.4936048 q 0,0.3007717 0.123043,0.4238146 0.123043,0.123043 0.365711,0.123043 0.252922,0 0.365711,-0.1332965 0.116207,-0.1332966 0.116207,-0.416979 V 6.5322741 h 0.516097 z m 1.510696,0.8613007 H 13.313068 V 8.6786902 L 13.610422,8.5419758 V 6.9629244 L 13.313068,6.82621 V 6.5322741 h 1.110804 V 6.82621 l -0.297354,0.1367144 v 1.5790514 l 0.297354,0.1367144 z"
     id="text6-7"
     style="opacity:0.5;fill:#000000;fill-opacity:1;stroke:#000000;stroke-width:0.196191;stroke-linecap:square;stroke-opacity:1" />
  <metadata
     id="metadata6">
    <rdf:RDF>
      <cc:Work
         rdf:about="">
        <dc:creator>
          <cc:Agent>
            <dc:title>dreifacherspass</dc:title>
          </cc:Agent>
        </dc:creator>
        <cc:license
           rdf:resource="http://creativecommons.org/licenses/by-sa/4.0/" />
      </cc:Work>
      <cc:License
         rdf:about="http://creativecommons.org/licenses/by-sa/4.0/">
        <cc:permits
           rdf:resource="http://creativecommons.org/ns#Reproduction" />
        <cc:permits
           rdf:resource="http://creativecommons.org/ns#Distribution" />
        <cc:requires
           rdf:resource="http://creativecommons.org/ns#Notice" />
        <cc:requires
           rdf:resource="http://creativecommons.org/ns#Attribution" />
        <cc:permits
           rdf:resource="http://creativecommons.org/ns#DerivativeWorks" />
        <cc:requires
           rdf:resource="http://creativecommons.org/ns#ShareAlike" />
      </cc:License>
    </rdf:RDF>
  </metadata>
  <path
     d="m 2.3553998,5.7322741 q 0.4716647,0 0.6869899,0.2050716 0.2187431,0.2016537 0.2187431,0.5571111 0,0.2119074 -0.088864,0.3998897 Q 3.083404,7.0789109 2.8749146,7.1917003 2.669843,7.3044897 2.3143855,7.3044897 H 2.0922246 V 8.1726261 H 1.5761278 V 5.7322741 Z M 2.328057,6.1560887 H 2.0922246 V 6.880675 h 0.170893 q 0.2187431,0 0.3452039,-0.085446 0.1298787,-0.088864 0.1298787,-0.2836824 0,-0.3554574 -0.4101432,-0.3554579 z m 3.3802643,1.1552367 q 0,0.2529216 -0.1127893,0.4579932 Q 5.4861604,7.9709724 5.2605817,8.0905975 5.0384208,8.2068047 4.6966348,8.2068047 4.2112986,8.2068047 3.958377,7.9607188 3.7054554,7.711215 3.7054554,7.3044897 V 5.7322741 h 0.5160968 v 1.4936048 q 0,0.3007717 0.123043,0.4238146 0.1230429,0.123043 0.365711,0.123043 0.2529217,0 0.365711,-0.1332965 Q 5.1922245,7.5061434 5.1922245,7.222461 V 5.7322741 H 5.7083213 Z M 7.0857208,5.7322741 q 0.4716647,0 0.6869898,0.2050716 0.2187431,0.2016537 0.2187431,0.5571111 0,0.2119074 -0.088864,0.3998897 Q 7.813725,7.0789109 7.6052355,7.1917003 7.4001639,7.3044897 7.0447065,7.3044897 H 6.8225456 V 8.1726261 H 6.3064487 V 5.7322741 Z M 7.0583779,6.1560887 H 6.8225456 V 6.880675 h 0.170893 q 0.218743,0 0.3452038,-0.085446 0.1298787,-0.088864 0.1298787,-0.2836824 0,-0.3554574 -0.4101432,-0.3554579 z M 9.3791054,6.8020642 H 10.34636 v 1.2646083 q -0.1914,0.064939 -0.3998898,0.1025358 -0.2050716,0.037596 -0.4682468,0.037596 -0.5468576,0 -0.8407936,-0.3212788 -0.293936,-0.3212789 -0.293936,-0.9364937 0,-0.3828003 0.146968,-0.6630648 Q 8.6408477,6.0057029 8.92453,5.8518992 9.2082124,5.6980955 9.6183556,5.6980955 q 0.194818,0 0.3828004,0.041014 0.187982,0.041014 0.341786,0.1093715 l -0.170893,0.4135614 q -0.112789,-0.058104 -0.2563396,-0.0957 -0.1435501,-0.037597 -0.3007716,-0.037597 -0.2255788,0 -0.3930539,0.1025358 Q 9.0578266,6.3338174 8.9655444,6.5217997 8.87668,6.7063642 8.87668,6.9592858 q 0,0.2392502 0.064939,0.4238146 0.064939,0.1845645 0.2050716,0.2905182 0.1401323,0.1025358 0.3657111,0.1025358 0.1093715,0 0.1845644,-0.010254 0.078611,-0.010254 0.1435501,-0.023925 V 7.2327146 H 9.3791054 Z m 3.5340706,0.5092612 q 0,0.2529216 -0.112789,0.4579932 -0.109372,0.2016538 -0.334951,0.3212789 -0.222161,0.1162072 -0.563947,0.1162072 -0.485336,0 -0.738257,-0.2460859 Q 10.91031,7.711215 10.91031,7.3044897 V 5.7322741 h 0.516097 v 1.4936048 q 0,0.3007717 0.123043,0.4238146 0.123043,0.123043 0.365711,0.123043 0.252922,0 0.365711,-0.1332965 0.116207,-0.1332966 0.116207,-0.416979 V 5.7322741 h 0.516097 z m 1.510696,0.8613007 H 13.313068 V 7.8786902 L 13.610422,7.7419758 V 6.1629244 L 13.313068,6.02621 V 5.7322741 h 1.110804 V 6.02621 l -0.297354,0.1367144 v 1.5790514 l 0.297354,0.1367144 z"
     id="text6"
     class="ColorScheme-Text"
     style="opacity:1;fill:url(#oomox);stroke:url(#oomox);stroke-width:0.196191;stroke-linecap:square" />
</svg>
