<?xml version="1.0" encoding="UTF-8" standalone="no"?>
<svg
   height="16"
   viewBox="0 0 16 16"
   width="16"
   version="1.1"
   id="svg31"
   xmlns:xlink="http://www.w3.org/1999/xlink"
   xmlns="http://www.w3.org/2000/svg"
   xmlns:svg="http://www.w3.org/2000/svg"
   xmlns:rdf="http://www.w3.org/1999/02/22-rdf-syntax-ns#"
   xmlns:cc="http://creativecommons.org/ns#"
   xmlns:dc="http://purl.org/dc/elements/1.1/">
   <defs>
      <style id="current-color-scheme" type="text/css">
         .ColorScheme-Text { color: #0abdc6; } .ColorScheme-Highlight { color:#5294e2; }
      </style>
      <linearGradient id="arrongin" x1="0%" x2="0%" y1="0%" y2="100%">
         <stop offset="0%" style="stop-color:#dd9b44; stop-opacity:1"/>
         <stop offset="100%" style="stop-color:#ad6c16; stop-opacity:1"/>
      </linearGradient>
      <linearGradient id="aurora" x1="0%" x2="0%" y1="0%" y2="100%">
         <stop offset="0%" style="stop-color:#09D4DF; stop-opacity:1"/>
         <stop offset="100%" style="stop-color:#9269F4; stop-opacity:1"/>
      </linearGradient>
      <linearGradient id="cyberneon" x1="0%" x2="0%" y1="0%" y2="100%">
         <stop offset="0" style="stop-color:#0abdc6; stop-opacity:1"/>
         <stop offset="1" style="stop-color:#ea00d9; stop-opacity:1"/>
      </linearGradient>
      <linearGradient id="fitdance" x1="0%" x2="0%" y1="0%" y2="100%">
         <stop offset="0%" style="stop-color:#1AD6AB; stop-opacity:1"/>
         <stop offset="100%" style="stop-color:#329DB6; stop-opacity:1"/>
      </linearGradient>
      <linearGradient id="oomox" x1="0%" x2="0%" y1="0%" y2="100%">
         <stop offset="0%" style="stop-color:#0abdc6; stop-opacity:1"/>
         <stop offset="100%" style="stop-color:#b800ff; stop-opacity:1"/>
      </linearGradient>
      <linearGradient id="rainblue" x1="0%" x2="0%" y1="0%" y2="100%">
         <stop offset="0%" style="stop-color:#00F260; stop-opacity:1"/>
         <stop offset="100%" style="stop-color:#0575E6; stop-opacity:1"/>
      </linearGradient>
      <linearGradient id="sunrise" x1="0%" x2="0%" y1="0%" y2="100%">
         <stop offset="0%" style="stop-color: #FF8501; stop-opacity:1"/>
         <stop offset="100%" style="stop-color: #FFCB01; stop-opacity:1"/>
      </linearGradient>
      <linearGradient id="telinkrin" x1="0%" x2="0%" y1="0%" y2="100%">
         <stop offset="0%" style="stop-color: #b2ced6; stop-opacity:1"/>
         <stop offset="100%" style="stop-color: #6da5b7; stop-opacity:1"/>
      </linearGradient>
      <linearGradient id="60spsycho" x1="0%" x2="0%" y1="0%" y2="100%">
         <stop offset="0%" style="stop-color: #df5940; stop-opacity:1"/>
         <stop offset="25%" style="stop-color: #d8d15f; stop-opacity:1"/>
         <stop offset="50%" style="stop-color: #e9882a; stop-opacity:1"/>
         <stop offset="100%" style="stop-color: #279362; stop-opacity:1"/>
      </linearGradient>
      <linearGradient id="90ssummer" x1="0%" x2="0%" y1="0%" y2="100%">
         <stop offset="0%" style="stop-color: #f618c7; stop-opacity:1"/>
         <stop offset="20%" style="stop-color: #94ffab; stop-opacity:1"/>
         <stop offset="50%" style="stop-color: #fbfd54; stop-opacity:1"/>
         <stop offset="100%" style="stop-color: #0f83ae; stop-opacity:1"/>
      </linearGradient>
   </defs>
  <path
     id="path11"
     class="ColorScheme-Text"
     d="m 8,1.672656 c -4.418216,0 -8,3.581784 -8,8 0,1.686974 0.52239843,3.252088 1.4140625,4.542708 0.048437,0.07083 0.1296879,0.11198 0.215625,0.11198 H 14.370312 c 0.08594,0 0.166667,-0.04115 0.215625,-0.11198 C 15.4776,12.924744 16,11.35963 16,9.672656 c 0,-4.418216 -3.581784,-8 -8,-8 z m 0,0.7270833 c 4.016655,0 7.272396,3.256262 7.272396,7.2729167 0,0.858331 -0.14844,1.682294 -0.421875,2.446875 -0.03698,0.103646 -0.136458,0.171354 -0.246354,0.171354 H 1.3953125 c -0.1098954,0 -0.2093754,-0.06771 -0.2463541,-0.171354 C 0.8760424,11.35495 0.72708333,10.530987 0.72708333,9.672656 0.72708333,5.6560013 3.9833453,2.3997393 8,2.3997393 Z M 2.7635416,12.58151 c 0.321354,0 0.5817709,0.260938 0.5817709,0.582292 0,0.321354 -0.2604169,0.581771 -0.5817709,0.581771 -0.3213537,0 -0.5817708,-0.260417 -0.5817708,-0.581771 0,-0.321354 0.2604171,-0.582292 0.5817708,-0.582292 z m 1.4546876,0 C 4.5395825,12.58151 4.8,12.842448 4.8,13.163802 c 0,0.321354 -0.2604175,0.581771 -0.5817708,0.581771 -0.3213537,0 -0.5817708,-0.260417 -0.5817708,-0.581771 0,-0.321354 0.2604171,-0.582292 0.5817708,-0.582292 z"
     style="stroke-width:0.133333;fill:url(#oomox)" />
  <path
     id="path14"
     class="ColorScheme-Text"
     style="fill:url(#oomox);stroke-width:0.133333"
     d="M 3.4707031,6.0195312 C 2.9332075,6.6856728 2.5502582,7.4631575 2.3476562,8.2949219 2.1658865,9.0397082 2.1337251,9.8121153 2.2519531,10.568359 c 0.022396,0.145312 0.1618511,0.238151 0.3066407,0.208985 l 1.7578124,-0.357422 c 0.1442699,-0.02917 0.2369792,-0.170054 0.21875,-0.316406 C 4.4830729,9.6837272 4.5069022,9.2576791 4.6074219,8.8457031 4.728775,8.346749 4.9608094,7.8799448 5.2832031,7.4804688 5.6055958,7.0804719 6.0112021,6.7576802 6.4726562,6.5332031 6.9346322,6.3087259 7.4415407,6.1884116 7.9550781,6.1816406 c 0.5135375,-0.00677 1.021098,0.1000021 1.4882813,0.3125 0.4582414,0.2081992 0.8660056,0.5139195 1.1953126,0.8945313 0.305043,0.3521528 0.537381,0.7615987 0.68164,1.2070312 0.148437,0.4583321 0.201172,0.9423192 0.154297,1.4199219 -0.01458,0.146354 0.07982,0.285027 0.22461,0.310547 l 1.767578,0.310547 c 0.145272,0.02552 0.283983,-0.07096 0.302734,-0.216797 0.226531,-1.7502809 -0.355077,-3.4852289 -1.535156,-4.7382814 -0.001,-0.00108 -0.0029,-8.918e-4 -0.0039,-0.00195 -0.002,-0.00199 -0.0039,-0.00395 -0.0059,-0.00586 C 9.9396075,3.2598534 5.7864514,3.1495306 3.4707031,6.0195312 Z" />
  <path
     id="path23-5-5"
     class="ColorScheme-Text"
     d="M 13.587215,4.248351 C 13.472312,4.2441278 13.35598,4.2816283 13.26292,4.3617139 L 7.1940558,8.9410253 c -0.058654,0.05189 -0.1139261,0.1060332 -0.1624281,0.1624281 -0.3789998,0.287633 -0.6237712,0.7433361 -0.6237712,1.2554376 0,0.86967 0.7049864,1.574656 1.5746555,1.574656 0.5527087,0 1.039996,-0.28425 1.3208623,-0.715136 0.032709,-0.0327 0.064283,-0.06768 0.094757,-0.103771 L 13.930687,5.0204512 C 14.087481,4.833208 14.075073,4.5579809 13.902485,4.3854002 13.815642,4.2985468 13.702134,4.2525821 13.587215,4.248351 Z M 7.982512,9.7283504 c 0.3474162,0 0.629411,0.2831256 0.629411,0.6305406 0,0.347417 -0.2819948,0.630541 -0.629411,0.630541 -0.3485447,0 -0.6305397,-0.283124 -0.6305397,-0.630541 0,-0.347415 0.281995,-0.6305406 0.6305397,-0.6305406 z"
     style="opacity:0;fill:#000000;fill-opacity:1;stroke-width:0.288763" />
  <path
     id="path23-5"
     class="ColorScheme-Text"
     d="m 10.464057,7.7419811 c -0.03592,-0.00132 -0.07229,0.010403 -0.101381,0.035439 L 7.2457828,10.458111 c -0.018336,0.01622 -0.035615,0.03315 -0.050779,0.05078 C 7.0765207,10.59881 7,10.741273 7,10.901366 c 0,0.271877 0.2203938,0.492271 0.492271,0.492271 0.1727883,0 0.3251245,-0.08886 0.4129293,-0.223567 0.010226,-0.01022 0.0201,-0.02116 0.029621,-0.03244 L 10.571433,7.9833561 c 0.04902,-0.058536 0.04514,-0.1445781 -0.0088,-0.1985305 -0.02715,-0.027152 -0.06263,-0.041522 -0.09856,-0.042844 z M 7.492271,10.704246 c 0.1086098,0 0.1967674,0.08851 0.1967674,0.19712 0,0.10861 -0.088158,0.19712 -0.1967674,0.19712 -0.1089625,0 -0.1971201,-0.08851 -0.1971201,-0.19712 0,-0.108609 0.088158,-0.19712 0.1971201,-0.19712 z"
     style="fill:url(#linearGradient24);fill-opacity:1;stroke-width:0.090273" />
  <metadata
     id="metadata69">
    <rdf:RDF>
      <cc:Work
         rdf:about="">
        <dc:creator>
          <cc:Agent>
            <dc:title>dreifacherspass</dc:title>
          </cc:Agent>
        </dc:creator>
        <cc:license
           rdf:resource="http://creativecommons.org/licenses/by-sa/4.0/" />
      </cc:Work>
      <cc:License
         rdf:about="http://creativecommons.org/licenses/by-sa/4.0/">
        <cc:permits
           rdf:resource="http://creativecommons.org/ns#Reproduction" />
        <cc:permits
           rdf:resource="http://creativecommons.org/ns#Distribution" />
        <cc:requires
           rdf:resource="http://creativecommons.org/ns#Notice" />
        <cc:requires
           rdf:resource="http://creativecommons.org/ns#Attribution" />
        <cc:permits
           rdf:resource="http://creativecommons.org/ns#DerivativeWorks" />
        <cc:requires
           rdf:resource="http://creativecommons.org/ns#ShareAlike" />
      </cc:License>
    </rdf:RDF>
  </metadata>
</svg>
