<?xml version="1.0" encoding="UTF-8" standalone="no"?>
<svg
   version="1.1"
   viewBox="0 0 16 16"
   id="svg7"
   width="16"
   height="16"
   xmlns:xlink="http://www.w3.org/1999/xlink"
   xmlns="http://www.w3.org/2000/svg"
   xmlns:svg="http://www.w3.org/2000/svg"
   xmlns:rdf="http://www.w3.org/1999/02/22-rdf-syntax-ns#"
   xmlns:cc="http://creativecommons.org/ns#"
   xmlns:dc="http://purl.org/dc/elements/1.1/">
  <defs>
   <style id="current-color-scheme" type="text/css">
   .ColorScheme-Text { color: #0abdc6; } .ColorScheme-Highlight { color:#5294e2; }
  </style>
  <linearGradient id="arrongin" x1="0%" x2="0%" y1="0%" y2="100%">
   <stop offset="0%" style="stop-color:#dd9b44; stop-opacity:1"/>
   <stop offset="100%" style="stop-color:#ad6c16; stop-opacity:1"/>
  </linearGradient>
  <linearGradient id="aurora" x1="0%" x2="0%" y1="0%" y2="100%">
   <stop offset="0%" style="stop-color:#09D4DF; stop-opacity:1"/>
   <stop offset="100%" style="stop-color:#9269F4; stop-opacity:1"/>
  </linearGradient>
  <linearGradient id="cyberneon" x1="0%" x2="0%" y1="0%" y2="100%">
    <stop offset="0" style="stop-color:#0abdc6; stop-opacity:1"/>
    <stop offset="1" style="stop-color:#ea00d9; stop-opacity:1"/>
  </linearGradient>
  <linearGradient id="fitdance" x1="0%" x2="0%" y1="0%" y2="100%">
   <stop offset="0%" style="stop-color:#1AD6AB; stop-opacity:1"/>
   <stop offset="100%" style="stop-color:#329DB6; stop-opacity:1"/>
  </linearGradient>
  <linearGradient id="oomox" x1="0%" x2="0%" y1="0%" y2="100%">
   <stop offset="0%" style="stop-color:#0abdc6; stop-opacity:1"/>
   <stop offset="100%" style="stop-color:#b800ff; stop-opacity:1"/>
  </linearGradient>
  <linearGradient id="rainblue" x1="0%" x2="0%" y1="0%" y2="100%">
   <stop offset="0%" style="stop-color:#00F260; stop-opacity:1"/>
   <stop offset="100%" style="stop-color:#0575E6; stop-opacity:1"/>
  </linearGradient>
  <linearGradient id="sunrise" x1="0%" x2="0%" y1="0%" y2="100%">
   <stop offset="0%" style="stop-color: #FF8501; stop-opacity:1"/>
   <stop offset="100%" style="stop-color: #FFCB01; stop-opacity:1"/>
  </linearGradient>
  <linearGradient id="telinkrin" x1="0%" x2="0%" y1="0%" y2="100%">
   <stop offset="0%" style="stop-color: #b2ced6; stop-opacity:1"/>
   <stop offset="100%" style="stop-color: #6da5b7; stop-opacity:1"/>
  </linearGradient>
  <linearGradient id="60spsycho" x1="0%" x2="0%" y1="0%" y2="100%">
   <stop offset="0%" style="stop-color: #df5940; stop-opacity:1"/>
   <stop offset="25%" style="stop-color: #d8d15f; stop-opacity:1"/>
   <stop offset="50%" style="stop-color: #e9882a; stop-opacity:1"/>
   <stop offset="100%" style="stop-color: #279362; stop-opacity:1"/>
  </linearGradient>
  <linearGradient id="90ssummer" x1="0%" x2="0%" y1="0%" y2="100%">
   <stop offset="0%" style="stop-color: #f618c7; stop-opacity:1"/>
   <stop offset="20%" style="stop-color: #94ffab; stop-opacity:1"/>
   <stop offset="50%" style="stop-color: #fbfd54; stop-opacity:1"/>
   <stop offset="100%" style="stop-color: #0f83ae; stop-opacity:1"/>
  </linearGradient>
 </defs>
  <path
     d="M 7.2857144,6.75 H 9.785715 L 8.1785717,9.826923 H 10.5 L 6.392857,14.75 H 5.8571429 L 7.2857144,11.057692 H 5.5 Z"
     style="fill:url(#oomox);stroke-width:0.180218;stroke-linejoin:round;stroke-opacity:0.45871"
     id="path7"
     class="ColorScheme-Text"/>
  <metadata
     id="metadata7">
    <rdf:RDF>
      <cc:Work
         rdf:about="">
        <dc:creator>
          <cc:Agent>
            <dc:title>dreifacherspass</dc:title>
          </cc:Agent>
        </dc:creator>
        <cc:license
           rdf:resource="http://creativecommons.org/licenses/by-sa/4.0/" />
      </cc:Work>
      <cc:License
         rdf:about="http://creativecommons.org/licenses/by-sa/4.0/">
        <cc:permits
           rdf:resource="http://creativecommons.org/ns#Reproduction" />
        <cc:permits
           rdf:resource="http://creativecommons.org/ns#Distribution" />
        <cc:requires
           rdf:resource="http://creativecommons.org/ns#Notice" />
        <cc:requires
           rdf:resource="http://creativecommons.org/ns#Attribution" />
        <cc:permits
           rdf:resource="http://creativecommons.org/ns#DerivativeWorks" />
        <cc:requires
           rdf:resource="http://creativecommons.org/ns#ShareAlike" />
      </cc:License>
    </rdf:RDF>
  </metadata>
  <path
     style="font-weight:bold;font-size:8px;font-family:Monospace;-inkscape-font-specification:'Monospace Bold';opacity:1;stroke-width:0;stroke-linejoin:round;fill:url(#oomox)"
     d="M 1.85e-6,6.286519 V 1.319565 H 1.3704359 l 1.3078255,3.999998 h 0.020869 Q 2.6713044,4.832607 2.6573914,4.422172 2.6504314,4.011738 2.6504314,3.809999 V 1.319565 H 3.5478222 V 6.286519 H 2.163479 L 0.85565359,2.251738 h -0.0278261 q 0.0347826,0.493913 0.0486956,0.925217 0.0208696,0.424348 0.0208696,0.633044 v 2.47652 z m 4.41739165,0 V 1.319565 H 7.5478266 V 2.18913 H 5.391306 V 3.274347 H 7.4434789 V 4.143911 H 5.391306 v 1.273043 h 2.1565206 v 0.869565 z m 4.0556528,0 -0.3686955,-4.966954 h 0.8765213 q 0.076522,0.751304 0.1182608,1.25913 0.041739,0.500869 0.055652,0.834782 0.02087,0.333913 0.02087,0.570434 0.00696,0.229566 0.00696,0.438261 0,0.257391 0,0.528695 0,0.264348 -0.013913,0.493913 h 0.048696 q 0.034778,-0.250434 0.069561,-0.521739 0.034783,-0.27826 0.069565,-0.514782 0.034783,-0.236522 0.048696,-0.347826 L 9.6486979,2.48826 h 0.9600001 l 0.236521,1.572173 q 0.0487,0.306087 0.111305,0.681739 0.06261,0.368695 0.111304,0.709565 h 0.0487 q -0.007,-0.215652 -0.02087,-0.45913 -0.007,-0.243479 -0.01391,-0.459131 0,-0.215652 0,-0.347826 0,-0.146086 0.007,-0.333912 0.007,-0.187826 0.02783,-0.493913 0.02087,-0.313043 0.05565,-0.8 0.03478,-0.493912 0.09043,-1.23826 h 0.876521 l -0.34783,4.966954 H 10.539132 L 10.288698,4.589129 Q 10.260868,4.38739 10.219128,4.095216 10.184348,3.803042 10.149558,3.524781 h -0.04174 Q 10.079988,3.803042 10.038248,4.095216 9.996509,4.38739 9.961726,4.589129 l -0.2504196,1.69739 z m 5.6486957,0.06956 q -0.375652,0 -0.744348,-0.06956 -0.361739,-0.07652 -0.681739,-0.229565 V 5.138693 q 0.389565,0.194783 0.751304,0.292174 0.361739,0.09043 0.702609,0.09043 0.361739,0 0.591304,-0.118261 0.229565,-0.125217 0.229565,-0.445217 0,-0.222608 -0.125218,-0.347826 Q 14.726959,4.484776 14.497393,4.373472 14.267828,4.255211 13.947829,4.088255 13.627829,3.914342 13.363481,3.712603 13.099133,3.510864 12.94609,3.239559 12.793047,2.961299 12.793047,2.571734 q 0,-0.667826 0.445217,-0.994782 Q 13.690437,1.25 14.420872,1.25 q 0.292174,0 0.695652,0.06957 0.403478,0.06261 0.793043,0.250435 l -0.32,0.786086 q -0.34087,-0.146087 -0.61913,-0.208695 -0.278261,-0.06261 -0.493913,-0.06261 -0.340869,0 -0.500869,0.13913 -0.153044,0.139131 -0.153044,0.396522 0,0.201739 0.09739,0.326956 0.09739,0.125218 0.292174,0.229565 0.194783,0.09739 0.493913,0.250435 0.410435,0.201739 0.695652,0.396522 0.292174,0.187826 0.445217,0.43826 Q 16,4.512607 16,4.902172 q 0,0.48 -0.236521,0.806956 -0.229565,0.32 -0.653913,0.486956 -0.424348,0.16 -0.987825,0.16 z"
     id="text7"
     class="ColorScheme-Text"
     aria-label="NEWS" />
</svg>
