<?xml version="1.0" encoding="UTF-8" standalone="no"?>
<svg
   width="48"
   height="48"
   viewBox="0 0 36 36"
   version="1.1"
   id="svg9"
   xmlns="http://www.w3.org/2000/svg"
   xmlns:svg="http://www.w3.org/2000/svg"
   xmlns:rdf="http://www.w3.org/1999/02/22-rdf-syntax-ns#"
   xmlns:cc="http://creativecommons.org/ns#"
   xmlns:dc="http://purl.org/dc/elements/1.1/">
  <defs
     id="defs13">
    <style
       id="current-color-scheme"
       type="text/css">
      .ColorScheme-Text { color: #0abdc6; } .ColorScheme-Highlight { color:#5294e2; }
     </style>
    <linearGradient
       id="arrongin"
       x1="0%"
       x2="0%"
       y1="0%"
       y2="100%">
      <stop
         offset="0%"
         style="stop-color:#dd9b44; stop-opacity:1"
         id="stop9192" />
      <stop
         offset="100%"
         style="stop-color:#ad6c16; stop-opacity:1"
         id="stop9194" />
    </linearGradient>
    <linearGradient
       id="aurora"
       x1="0%"
       x2="0%"
       y1="0%"
       y2="100%">
      <stop
         offset="0%"
         style="stop-color:#09D4DF; stop-opacity:1"
         id="stop9197" />
      <stop
         offset="100%"
         style="stop-color:#9269F4; stop-opacity:1"
         id="stop9199" />
    </linearGradient>
    <linearGradient
       id="cyberneon"
       x1="0%"
       x2="0%"
       y1="0%"
       y2="100%">
      <stop
         offset="0"
         style="stop-color:#0abdc6; stop-opacity:1"
         id="stop9202" />
      <stop
         offset="1"
         style="stop-color:#ea00d9; stop-opacity:1"
         id="stop9204" />
    </linearGradient>
    <linearGradient
       id="fitdance"
       x1="0%"
       x2="0%"
       y1="0%"
       y2="100%">
      <stop
         offset="0%"
         style="stop-color:#1AD6AB; stop-opacity:1"
         id="stop9207" />
      <stop
         offset="100%"
         style="stop-color:#329DB6; stop-opacity:1"
         id="stop9209" />
    </linearGradient>
    <linearGradient
       id="oomox"
       x1="0%"
       x2="0%"
       y1="0%"
       y2="100%">
      <stop
         offset="0%"
         style="stop-color:#0abdc6; stop-opacity:1"
         id="stop9212" />
      <stop
         offset="100%"
         style="stop-color:#b800ff; stop-opacity:1"
         id="stop9214" />
    </linearGradient>
    <linearGradient
       id="rainblue"
       x1="0%"
       x2="0%"
       y1="0%"
       y2="100%">
      <stop
         offset="0%"
         style="stop-color:#00F260; stop-opacity:1"
         id="stop9217" />
      <stop
         offset="100%"
         style="stop-color:#0575E6; stop-opacity:1"
         id="stop9219" />
    </linearGradient>
    <linearGradient
       id="sunrise"
       x1="0%"
       x2="0%"
       y1="0%"
       y2="100%">
      <stop
         offset="0%"
         style="stop-color: #FF8501; stop-opacity:1"
         id="stop9222" />
      <stop
         offset="100%"
         style="stop-color: #FFCB01; stop-opacity:1"
         id="stop9224" />
    </linearGradient>
    <linearGradient
       id="telinkrin"
       x1="0%"
       x2="0%"
       y1="0%"
       y2="100%">
      <stop
         offset="0%"
         style="stop-color: #b2ced6; stop-opacity:1"
         id="stop9227" />
      <stop
         offset="100%"
         style="stop-color: #6da5b7; stop-opacity:1"
         id="stop9229" />
    </linearGradient>
    <linearGradient
       id="60spsycho"
       x1="0%"
       x2="0%"
       y1="0%"
       y2="100%">
      <stop
         offset="0%"
         style="stop-color: #df5940; stop-opacity:1"
         id="stop9232" />
      <stop
         offset="25%"
         style="stop-color: #d8d15f; stop-opacity:1"
         id="stop9234" />
      <stop
         offset="50%"
         style="stop-color: #e9882a; stop-opacity:1"
         id="stop9236" />
      <stop
         offset="100%"
         style="stop-color: #279362; stop-opacity:1"
         id="stop9238" />
    </linearGradient>
    <linearGradient
       id="90ssummer"
       x1="0%"
       x2="0%"
       y1="0%"
       y2="100%">
      <stop
         offset="0%"
         style="stop-color: #f618c7; stop-opacity:1"
         id="stop9241" />
      <stop
         offset="20%"
         style="stop-color: #94ffab; stop-opacity:1"
         id="stop9243" />
      <stop
         offset="50%"
         style="stop-color: #fbfd54; stop-opacity:1"
         id="stop9245" />
      <stop
         offset="100%"
         style="stop-color: #0f83ae; stop-opacity:1"
         id="stop9247" />
    </linearGradient>
  </defs>
  <path
     style="fill:url(#oomox);fill-opacity:1;fill-rule:nonzero;stroke:none"
     d="m 19.042969,2.9375 h -0.08594 L 5.453125,8.640625 C 5.285156,8.722656 5.199219,8.808594 5.199219,8.976562 v 11.828126 c 0,0.08203 0,0.08203 0,0.167968 0.671875,1.675782 4.449219,10.316406 13.675781,13.921875 0.08203,0 0.167969,0 0.167969,0 9.058593,-3.6875 12.917969,-12.246093 13.671875,-13.921875 0,-0.08594 0,-0.08594 0,-0.167968 V 8.976562 c 0,-0.167968 -0.08203,-0.335937 -0.25,-0.335937 L 19.125,2.9375 c 0,0 0,0 -0.08203,0 m 0,35.0625 C 18.621094,38 18.203125,37.917969 17.867188,37.75 7.550781,33.636719 3.273438,23.992188 2.515625,22.144531 c -0.167969,-0.417969 -0.25,-0.835937 -0.25,-1.257812 V 9.058594 c 0,-1.339844 0.839844,-2.597656 2.011719,-3.101563 L 17.785156,0.25 c 0.835938,-0.3320312 1.675782,-0.3320312 2.515625,0 L 33.804688,5.871094 C 35.0625,6.375 35.820312,7.632812 35.820312,8.976562 v 11.828126 c 0,0.417968 -0.08594,0.835937 -0.253906,1.257812 C 34.8125,23.992188 30.535156,33.554688 20.300781,37.664062 19.878906,37.832031 19.460938,38 19.042969,38"
     id="path6"
     class="ColorScheme-Text"
     transform="matrix(0.92765542,0,0,0.92765542,0.33468706,0.37409405)" />
  <path
     id="path2260"
     class="ColorScheme-Text"
     style="fill:url(#oomox);fill-opacity:1.0;stroke:none;stroke-width:0.00240123"
     d="m 14.875082,6.2909342 0.0054,0.6027846 c -0.0023,0.3270066 0.01008,1.6481023 0.02409,2.928732 0.01425,1.2805032 0.02579,2.3475932 0.02743,2.3725072 -9.72e-4,0.0201 0.807283,0.01072 1.797714,-0.02601 0.985671,-0.03384 2.326003,-0.08313 2.974723,-0.104883 l 1.174279,-0.04014 -0.02929,-2.9251283 c -0.01487,-1.6123932 -0.04299,-2.9503013 -0.05727,-2.9741148 -0.0143,-0.023811 -1.211717,-0.00202 -2.66221,0.051273 -1.450496,0.053284 -2.773603,0.1000111 -2.946793,0.108814 z m 0.996962,0.9553913 0.354883,-0.0161 c 0.196754,-0.00351 0.40788,-0.016529 0.473176,-0.017712 0.06054,0.00175 0.124008,0.020833 0.138304,0.044644 0.03715,0.061874 0.05326,1.894627 0.01458,1.9184445 -0.01444,0.00893 -0.234957,0.028243 -0.489118,0.034777 l -0.464505,0.019213 -0.0087,-0.3006251 c 0.001,-0.1634369 -0.0078,-0.6074867 -0.01192,-0.9890802 z m 3.001102,-0.095367 c 0.0096,-0.00568 0.225688,-0.021275 0.471951,-0.029638 0.249281,-0.0038 0.458945,0.00355 0.467496,0.017794 0.02567,0.042738 0.05141,1.6739235 0.03027,1.8369172 -0.01536,0.1070267 -0.05168,0.1226569 -0.469401,0.1323388 -0.249278,0.0038 -0.467957,0.014114 -0.483421,0.010535 -0.0306,-0.00709 -0.05082,-1.94706 -0.01689,-1.9679484 z" />
  <path
     id="path1468"
     class="ColorScheme-Text"
     style="fill:url(#oomox);fill-opacity:1.0;stroke:none;stroke-width:0.00240123"
     d="m 13.664741,12.081624 c -0.01475,0.0084 -0.03028,0.115127 -0.03495,0.22866 -0.0018,0.118216 0.02989,3.257819 0.06894,6.971954 0.04627,4.432226 0.09428,6.915931 0.152827,7.21216 0.181846,0.975466 0.695964,1.831424 1.474029,2.465953 1.082163,0.876842 2.558294,1.152893 3.965126,0.729543 0.55551,-0.166176 1.477568,-0.746707 1.887757,-1.188015 0.557499,-0.603661 0.837948,-1.12879 1.046606,-1.960585 l 0.188726,-0.733637 -0.07168,-6.944496 c -0.04378,-3.82161 -0.09444,-6.980402 -0.112533,-7.021392 -0.02664,-0.05523 -1.382755,-0.03466 -4.283869,0.0717 -2.333154,0.08222 -4.261538,0.156183 -4.28098,0.168155 z M 16.84594,24.6698 c 0.203775,-0.255659 0.769782,-0.558562 1.098184,-0.584887 0.390887,-0.0322 0.654272,0.02032 0.966755,0.199203 1.050357,0.603449 1.04082,2.119482 -0.01736,2.771097 -0.715045,0.440311 -1.587623,0.288334 -2.118047,-0.374916 -0.430306,-0.529493 -0.402156,-1.419788 0.07049,-2.010497 z" />
  <metadata
     id="metadata296">
    <rdf:RDF>
      <cc:Work
         rdf:about="">
        <cc:license
           rdf:resource="http://creativecommons.org/licenses/by-sa/4.0/" />
        <dc:creator>
          <cc:Agent>
            <dc:title>dreifacherspass</dc:title>
          </cc:Agent>
        </dc:creator>
      </cc:Work>
      <cc:License
         rdf:about="http://creativecommons.org/licenses/by-sa/4.0/">
        <cc:permits
           rdf:resource="http://creativecommons.org/ns#Reproduction" />
        <cc:permits
           rdf:resource="http://creativecommons.org/ns#Distribution" />
        <cc:requires
           rdf:resource="http://creativecommons.org/ns#Notice" />
        <cc:requires
           rdf:resource="http://creativecommons.org/ns#Attribution" />
        <cc:permits
           rdf:resource="http://creativecommons.org/ns#DerivativeWorks" />
        <cc:requires
           rdf:resource="http://creativecommons.org/ns#ShareAlike" />
      </cc:License>
    </rdf:RDF>
  </metadata>
</svg>
