<?xml version="1.0" encoding="UTF-8" standalone="no"?>
<!-- Created with Inkscape (http://www.inkscape.org/) -->

<svg
   width="48"
   height="48"
   viewBox="0 0 12.7 12.7"
   version="1.1"
   id="svg8"
   xmlns:xlink="http://www.w3.org/1999/xlink"
   xmlns="http://www.w3.org/2000/svg"
   xmlns:svg="http://www.w3.org/2000/svg"
   xmlns:rdf="http://www.w3.org/1999/02/22-rdf-syntax-ns#"
   xmlns:cc="http://creativecommons.org/ns#"
   xmlns:dc="http://purl.org/dc/elements/1.1/">
  <defs
     id="defs2">
    <style
       id="current-color-scheme"
       type="text/css">
      .ColorScheme-Text { color: #0abdc6; } .ColorScheme-Highlight { color:#5294e2; }
     </style>
    <linearGradient
       id="arrongin"
       x1="0%"
       x2="0%"
       y1="0%"
       y2="100%">
      <stop
         offset="0%"
         style="stop-color:#dd9b44; stop-opacity:1"
         id="stop9192" />
      <stop
         offset="100%"
         style="stop-color:#ad6c16; stop-opacity:1"
         id="stop9194" />
    </linearGradient>
    <linearGradient
       id="aurora"
       x1="0%"
       x2="0%"
       y1="0%"
       y2="100%">
      <stop
         offset="0%"
         style="stop-color:#09D4DF; stop-opacity:1"
         id="stop9197" />
      <stop
         offset="100%"
         style="stop-color:#9269F4; stop-opacity:1"
         id="stop9199" />
    </linearGradient>
    <linearGradient
       id="cyberneon"
       x1="0%"
       x2="0%"
       y1="0%"
       y2="100%">
      <stop
         offset="0"
         style="stop-color:#0abdc6; stop-opacity:1"
         id="stop9202" />
      <stop
         offset="1"
         style="stop-color:#ea00d9; stop-opacity:1"
         id="stop9204" />
    </linearGradient>
    <linearGradient
       id="fitdance"
       x1="0%"
       x2="0%"
       y1="0%"
       y2="100%">
      <stop
         offset="0%"
         style="stop-color:#1AD6AB; stop-opacity:1"
         id="stop9207" />
      <stop
         offset="100%"
         style="stop-color:#329DB6; stop-opacity:1"
         id="stop9209" />
    </linearGradient>
    <linearGradient
       id="oomox"
       x1="0%"
       x2="0%"
       y1="0%"
       y2="100%">
      <stop
         offset="0%"
         style="stop-color:#0abdc6; stop-opacity:1"
         id="stop9212" />
      <stop
         offset="100%"
         style="stop-color:#b800ff; stop-opacity:1"
         id="stop9214" />
    </linearGradient>
    <linearGradient
       id="rainblue"
       x1="0%"
       x2="0%"
       y1="0%"
       y2="100%">
      <stop
         offset="0%"
         style="stop-color:#00F260; stop-opacity:1"
         id="stop9217" />
      <stop
         offset="100%"
         style="stop-color:#0575E6; stop-opacity:1"
         id="stop9219" />
    </linearGradient>
    <linearGradient
       id="sunrise"
       x1="0%"
       x2="0%"
       y1="0%"
       y2="100%">
      <stop
         offset="0%"
         style="stop-color: #FF8501; stop-opacity:1"
         id="stop9222" />
      <stop
         offset="100%"
         style="stop-color: #FFCB01; stop-opacity:1"
         id="stop9224" />
    </linearGradient>
    <linearGradient
       id="telinkrin"
       x1="0%"
       x2="0%"
       y1="0%"
       y2="100%">
      <stop
         offset="0%"
         style="stop-color: #b2ced6; stop-opacity:1"
         id="stop9227" />
      <stop
         offset="100%"
         style="stop-color: #6da5b7; stop-opacity:1"
         id="stop9229" />
    </linearGradient>
    <linearGradient
       id="60spsycho"
       x1="0%"
       x2="0%"
       y1="0%"
       y2="100%">
      <stop
         offset="0%"
         style="stop-color: #df5940; stop-opacity:1"
         id="stop9232" />
      <stop
         offset="25%"
         style="stop-color: #d8d15f; stop-opacity:1"
         id="stop9234" />
      <stop
         offset="50%"
         style="stop-color: #e9882a; stop-opacity:1"
         id="stop9236" />
      <stop
         offset="100%"
         style="stop-color: #279362; stop-opacity:1"
         id="stop9238" />
    </linearGradient>
    <linearGradient
       id="90ssummer"
       x1="0%"
       x2="0%"
       y1="0%"
       y2="100%">
      <stop
         offset="0%"
         style="stop-color: #f618c7; stop-opacity:1"
         id="stop9241" />
      <stop
         offset="20%"
         style="stop-color: #94ffab; stop-opacity:1"
         id="stop9243" />
      <stop
         offset="50%"
         style="stop-color: #fbfd54; stop-opacity:1"
         id="stop9245" />
      <stop
         offset="100%"
         style="stop-color: #0f83ae; stop-opacity:1"
         id="stop9247" />
    </linearGradient>
    <linearGradient
       id="linearGradient3891">
      <stop
         style="stop-color:#000000;stop-opacity:1;"
         offset="0"
         id="stop3887" />
      <stop
         style="stop-color:#000000;stop-opacity:0;"
         offset="1"
         id="stop3889" />
    </linearGradient>
    <linearGradient
       id="linearGradient3628">
      <stop
         style="stop-color:#000000;stop-opacity:1"
         offset="0"
         id="stop3624" />
      <stop
         style="stop-color:#000000;stop-opacity:0"
         offset="1"
         id="stop3626" />
    </linearGradient>
    <radialGradient
       xlink:href="#linearGradient3628"
       id="radialGradient4190"
       gradientUnits="userSpaceOnUse"
       gradientTransform="matrix(0.08340607,0.0653637,-0.06814122,0.08967833,1.6785243,-19.469373)"
       cx="80.745285"
       cy="31.199144"
       fx="80.745285"
       fy="31.199144"
       r="17.514044" />
    <radialGradient
       xlink:href="#linearGradient3628"
       id="radialGradient4200"
       gradientUnits="userSpaceOnUse"
       gradientTransform="matrix(0.12469944,-0.17623565,0.04036328,0.029456,-8.6475039,-0.32394484)"
       cx="63.691868"
       cy="24.91503"
       fx="63.691868"
       fy="24.91503"
       r="16.80954" />
    <radialGradient
       xlink:href="#linearGradient3891"
       id="radialGradient4208"
       gradientUnits="userSpaceOnUse"
       gradientTransform="matrix(0.60348022,-0.0046914,0.00258257,0.3426326,0.87170929,-93.179361)"
       cx="10.145939"
       cy="261.29977"
       fx="10.145939"
       fy="261.29977"
       r="7.9343286" />
    <radialGradient
       xlink:href="#linearGradient3891"
       id="radialGradient4271"
       cx="36.437771"
       cy="11.167927"
       fx="36.437771"
       fy="11.167927"
       r="0.92064488"
       gradientTransform="matrix(0.62477119,-0.84311487,0.52444676,0.4008226,-26.904894,18.009029)"
       gradientUnits="userSpaceOnUse" />
  </defs>
  <metadata
     id="metadata5">
    <rdf:RDF>
      <cc:Work
         rdf:about="">
        <dc:format>image/svg+xml</dc:format>
        <dc:type
           rdf:resource="http://purl.org/dc/dcmitype/StillImage" />
        <dc:creator>
          <cc:Agent>
            <dc:title>Léo Villeveygoux</dc:title>
          </cc:Agent>
        </dc:creator>
        <dc:contributor>
          <cc:Agent>
            <dc:title>dreifacherspass</dc:title>
          </cc:Agent>
        </dc:contributor>
        <cc:license
           rdf:resource="http://creativecommons.org/licenses/by-sa/4.0/" />
      </cc:Work>
      <cc:License
         rdf:about="http://creativecommons.org/licenses/by-sa/4.0/">
        <cc:permits
           rdf:resource="http://creativecommons.org/ns#Reproduction" />
        <cc:permits
           rdf:resource="http://creativecommons.org/ns#Distribution" />
        <cc:requires
           rdf:resource="http://creativecommons.org/ns#Notice" />
        <cc:requires
           rdf:resource="http://creativecommons.org/ns#Attribution" />
        <cc:permits
           rdf:resource="http://creativecommons.org/ns#DerivativeWorks" />
        <cc:requires
           rdf:resource="http://creativecommons.org/ns#ShareAlike" />
      </cc:License>
    </rdf:RDF>
  </metadata>
  <path
     id="path4098"
     class="ColorScheme-Text"
     style="display:inline;font-style:normal;font-variant:normal;font-weight:normal;font-stretch:normal;font-size:10.5833px;line-height:80%;font-family:'DejaVu Sans';-inkscape-font-specification:'DejaVu Sans';letter-spacing:0px;word-spacing:0px;fill:url(#oomox);fill-opacity:1;stroke:none;stroke-width:0.835782;stroke-linecap:square;stroke-linejoin:miter;stroke-miterlimit:4;stroke-dasharray:none;stroke-opacity:1;paint-order:markers stroke fill"
     d="m 5.6616683,-16.801044 c -0.025843,-0.0053 -0.2480455,0.211811 -0.5415691,0.52865 -0.273708,0.295451 -0.5192866,0.536163 -0.5457031,0.535367 -0.026412,-8.75e-4 -0.4206546,-0.228833 -0.8759155,-0.506429 -0.4552601,-0.277596 -0.8420058,-0.504362 -0.8593791,-0.504362 -0.042223,0 -0.040616,0.04832 0.026355,0.865581 0.031745,0.387445 0.057856,0.75747 0.057878,0.822172 6.11e-5,0.180113 -0.1857589,0.442741 -0.6232178,0.880566 -0.5205412,0.520964 -0.5168722,0.512211 -0.5188313,1.173572 -0.00152,0.518778 -0.00398,0.533378 -0.098185,0.807186 -0.1258705,0.365829 -0.2703747,0.626803 -0.74155677,1.335836 -0.21456017,0.32287 -0.43860457,0.680231 -0.49816081,0.794266 -0.26856757,0.5142604 -0.37292442,1.0661143 -0.27440185,1.4505577 0.14982564,0.5846436 0.62320548,0.9392802 1.30431313,0.9766846 0.1255823,0.0069 0.1321687,0.011864 0.1483114,0.1100708 0.023942,0.1457012 0.076099,0.2288994 0.1834513,0.2945557 0.2548062,0.1557924 0.6416501,-0.031464 0.9146729,-0.4397665 0.06145,-0.091903 0.1997581,-0.3380372 0.306958,-0.5467366 0.432276,-0.8415707 0.6277748,-1.0209086 1.7709513,-1.6241903 0.566399,-0.2989074 0.9894757,-0.5519064 1.2738241,-0.7611934 0.076196,-0.05611 0.1384565,-0.08346 0.1539957,-0.0677 0.048915,0.04968 0.084989,0.487688 0.069247,0.840776 -0.025314,0.5675729 -0.1443563,1.0317528 -0.3958415,1.5409912 -0.2283606,0.462419 -0.4246671,0.6772528 -1.1601359,1.3497884 -0.8816509,0.8062192 -1.0686061,1.0409953 -1.1782227,1.4681274 -0.1096218,0.4271322 -0.1305504,0.7702673 -0.1157552,1.1110433 h 9.1229575 l -0.0062,-0.5725748 c -0.02007,-1.9335026 -0.452035,-4.4960804 -1.067118,-6.3655025 -0.433611,-1.317884 -0.879355,-2.12192 -1.5626949,-2.81895 -0.59391,-0.605796 -1.2797928,-0.983375 -2.089795,-1.1498 -0.2316743,-0.04759 -0.871266,-0.06201 -1.3487548,-0.03049 l -0.1152385,0.0078 -0.3358968,-0.748275 c -0.1999194,-0.444896 -0.3542904,-0.752005 -0.3803385,-0.757576 z m 1.6717325,1.886706 c 0.8690845,-0.0076 1.5409907,0.28228 2.0629232,0.731222 0.5964951,0.513074 1.003652,1.217171 1.374076,1.916162 0.199816,0.377051 0.487662,1.279571 0.766879,2.5631509 0.27922,1.2835789 0.535782,2.9265024 0.615466,4.6973877 0.0189,0.286962 -0.409004,0.3061431 -0.414962,0.018604 -0.07837,-1.7416382 -0.329966,-3.3635214 -0.604614,-4.6260742 -0.274644,-1.2625524 -0.586143,-2.1891314 -0.726571,-2.4541134 -0.36476,-0.688312 -0.7544424,-1.344938 -1.2779579,-1.79524 -0.523513,-0.450307 -1.1739858,-0.709937 -2.1383708,-0.610815 -0.2904433,0.04834 -0.3354529,-0.406865 -0.041341,-0.418063 0.1323538,-0.0136 0.2603178,-0.02113 0.3844726,-0.02222 z m -3.8049357,1.489832 c 0.051085,-6.9e-5 0.1005069,0.0085 0.1467611,0.02635 0.040781,0.01576 0.073897,0.04625 0.073897,0.06718 0,0.09148 -0.2343349,0.435942 -0.434082,0.638204 -0.1580599,0.160051 -0.2825115,0.254159 -0.4795573,0.356567 -0.1970449,0.102408 -0.3291789,0.142318 -0.3291789,0.09457 0,-0.04257 0.5004624,-0.870503 0.5860107,-0.96945 0.117354,-0.135441 0.2828937,-0.213217 0.4361491,-0.213423 z m 6.0595785,1.804541 c 0.176288,0 0.3232733,0.01965 0.4408004,0.05943 0.122421,0.03979 0.220585,0.09471 0.294038,0.164331 0.07345,0.06465 0.124611,0.144254 0.153996,0.238745 0.02939,0.08952 0.04393,0.18424 0.04393,0.283703 0,0.09448 -0.02154,0.183659 -0.06563,0.268201 -0.03917,0.07957 -0.108244,0.161955 -0.206189,0.246497 0.142007,0.06465 0.242513,0.154339 0.301274,0.268717 0.06366,0.1094137 0.0956,0.2310797 0.0956,0.3653525 0,0.1243263 -0.01975,0.2386993 -0.05891,0.3431316 -0.03917,0.1044324 -0.103054,0.1963782 -0.191203,0.2759521 -0.08814,0.074601 -0.203188,0.1340429 -0.345198,0.1788005 -0.142008,0.044779 -0.315745,0.067179 -0.5214156,0.067179 -0.1469054,0 -0.3060978,-0.015106 -0.4774902,-0.044958 -0.1664924,-0.034821 -0.2984214,-0.079153 -0.3963582,-0.1338419 l 0.1539957,-0.5896281 c 0.1469075,0.064656 0.27182,0.1067169 0.3746542,0.1266072 0.1028341,0.014905 0.2155415,0.022738 0.3379638,0.022738 0.1567009,0 0.2647327,-0.025202 0.3234945,-0.074931 0.06365,-0.049734 0.095085,-0.1091757 0.095085,-0.1788004 0,-0.1790296 -0.1540018,-0.2682015 -0.462504,-0.2682015 H 9.2061547 v -0.544669 h 0.2718181 c 0.1028342,0 0.1859369,-0.02014 0.2495971,-0.05994 0.06366,-0.03979 0.095601,-0.101493 0.095601,-0.186035 0,-0.139245 -0.095825,-0.20929 -0.2868042,-0.20929 -0.1028353,0 -0.2028193,0.01737 -0.3007568,0.05219 -0.097938,0.03482 -0.1937628,0.07237 -0.2868042,0.112137 l -0.2495972,-0.522448 c 0.1077329,-0.06962 0.2425147,-0.129074 0.4041097,-0.178801 0.1664951,-0.0547 0.3280247,-0.08216 0.484725,-0.08216 z M 1.160651,-9.5193183 c 0.050515,-7.804e-4 0.1036471,0.011806 0.1576131,0.039791 0.094609,0.049063 0.1748537,0.1795044 0.1746664,0.2842204 h -5.168e-4 c -1.92e-4,0.1186745 -0.1086043,0.2524257 -0.4128947,0.4645711 -0.30429349,0.2121373 -0.31530187,0.2177349 -0.33693033,0.1612305 -0.0102655,-0.027027 -0.0117782,-0.1531028 -0.003101,-0.2800863 0.0277515,-0.406016 0.20226875,-0.666345 0.42116333,-0.6697267 z m 6.8781331,0.6898804 c 0.3686006,0 0.6742352,0.052864 0.9177735,0.1586467 0.2435405,0.09913 0.4348674,0.2450044 0.5730916,0.4366658 0.1448083,0.1850561 0.2466858,0.4095075 0.3059245,0.6738607 0.059243,0.2577476 0.088884,0.5452431 0.088884,0.8624796 v 2.0892782 H 8.6806054 v -1.8009237 c 0,-0.4068876 -0.047345,-0.6997305 -0.1415934,-0.8784993 -0.094244,-0.1787848 -0.2856256,-0.2682007 -0.5746419,-0.2682007 -0.087962,0 -0.1761058,0.00317 -0.2640666,0.0093 -0.081678,0.00557 -0.1698224,0.015132 -0.2640666,0.027388 v 2.9109334 H 6.1923852 V -8.581391 c 0.2172105,-0.059449 0.4840085,-0.1155897 0.7999512,-0.1684652 0.3225262,-0.052923 0.6712655,-0.079582 1.0464477,-0.079582 z"
     transform="translate(1.6666665e-6,16.933336)" />
  <path
     style="display:inline;font-style:normal;font-variant:normal;font-weight:normal;font-stretch:normal;font-size:10.5833px;line-height:80%;font-family:'DejaVu Sans';-inkscape-font-specification:'DejaVu Sans';letter-spacing:0px;word-spacing:0px;fill:url(#radialGradient4190);fill-opacity:1;stroke:none;stroke-width:0.835782;stroke-linecap:square;stroke-linejoin:miter;stroke-miterlimit:4;stroke-dasharray:none;stroke-opacity:1;paint-order:markers stroke fill"
     d="m 10.703282,-4.3656356 c -0.02536,-0.2956302 -0.0445,-0.5725821 -0.132421,-1.0816164 -0.124254,-0.7194064 -0.30029,-1.5958397 -0.496882,-2.4704425 C 9.8773861,-8.7922974 9.6600703,-9.6651335 9.4527741,-10.377449 9.2454748,-11.089764 9.0482789,-11.641463 8.8919079,-11.874023 8.7429148,-12.095625 8.5957774,-12.292166 8.44362,-12.4646 8.2914626,-12.637027 8.1342399,-12.785259 7.9645549,-12.911225 7.7948717,-13.03719 7.6129608,-13.140769 7.4113844,-13.222963 c -0.1028708,-0.04194 -0.2281882,-0.06311 -0.3421898,-0.09418 0.060709,0.05531 0.1227078,0.104024 0.1785854,0.182597 0.077885,0.153549 0.1243597,0.328856 0.1312056,0.519834 0.00682,0.190985 -0.025664,0.397346 -0.1065029,0.613607 -0.080835,0.216254 -0.2096654,0.442225 -0.3948333,0.671585 -0.1832065,0.226942 -0.4237253,0.457241 -0.7252787,0.685162 0.024951,-0.01043 0.06592,-0.03955 0.073293,-0.03207 0.048915,0.04966 0.084991,0.487531 0.06925,0.8406209 -0.025311,0.5675763 -0.1445612,1.0317572 -0.3960479,1.5409984 -0.2283615,0.4624221 -0.4247291,0.6776249 -1.160203,1.3501643 -0.8816565,0.8062244 -1.0684035,1.0410684 -1.1780206,1.468203 -0.1096227,0.4271346 -0.1306133,0.7700376 -0.1158181,1.1108158 z"
     id="path4106"
     transform="translate(1.6666665e-6,16.933336)" />
  <path
     id="path4116"
     d="m 5.6615627,-16.800934 c -0.025844,-0.0056 -0.2479031,0.211629 -0.5414281,0.528469 -0.2737099,0.295455 -0.5194658,0.536259 -0.5458823,0.535464 -0.026409,-7.96e-4 -0.4206589,-0.228669 -0.8759226,-0.506265 -0.4552637,-0.277597 -0.8419463,-0.504618 -0.8593196,-0.504618 -0.042223,0 -0.040648,0.04847 0.026322,0.865706 0.031746,0.387446 0.057888,0.757407 0.057911,0.822109 6.03e-5,0.180114 -0.1857682,0.442685 -0.6232299,0.880516 -0.5205441,0.520964 -0.5167912,0.512369 -0.5187503,1.173735 -0.00149,0.518783 -0.00376,0.533498 -0.098,0.807307 -0.1258714,0.365831 -0.2706968,0.626325 -0.74188161,1.335362 -0.21456156,0.322871 -0.4385408,0.680521 -0.49809748,0.794557 -0.26856922,0.5142631 -0.37308411,1.0660738 -0.27456093,1.4505196 0.14982654,0.584647 0.62366094,0.9393443 1.30477202,0.9767488 0.066868,0.00398 0.097034,0.00398 0.1158182,0.02101 0.3721484,-0.5684835 0.7760641,-1.2503104 1.2610371,-2.006954 0.5035313,-0.7855964 1.0466168,-1.5967234 1.5845983,-2.2759154 0.2689908,-0.339601 0.5368156,-0.646325 0.7977663,-0.900253 0.2609506,-0.253929 0.5150554,-0.455117 0.7568649,-0.583995 0.1209055,-0.06446 0.2386795,-0.110741 0.352718,-0.136534 0.1140385,-0.02578 0.2242568,-0.03096 0.3300403,-0.01313 0.1057837,0.01775 0.2071719,0.05833 0.3033128,0.124612 0.033023,0.02276 0.061782,0.06653 0.093546,0.09541 0.011182,0.0032 0.022247,0.0064 0.033611,0.0091 l -0.7212288,-1.987623 -0.00368,4.06e-4 -0.3361143,-0.748495 c -0.1999584,-0.444913 -0.3542071,-0.751558 -0.3802552,-0.757129 z"
     style="display:inline;font-style:normal;font-variant:normal;font-weight:normal;font-stretch:normal;font-size:10.5833px;line-height:80%;font-family:'DejaVu Sans';-inkscape-font-specification:'DejaVu Sans';letter-spacing:0px;word-spacing:0px;fill:url(#radialGradient4200);fill-opacity:1;stroke:none;stroke-width:0.835782;stroke-linecap:square;stroke-linejoin:miter;stroke-miterlimit:4;stroke-dasharray:none;stroke-opacity:1;paint-order:markers stroke fill"
     transform="translate(1.6666665e-6,16.933336)" />
  <path
     style="display:inline;opacity:0.332;fill:url(#radialGradient4271);fill-opacity:1;fill-rule:evenodd;stroke:none;stroke-width:0.208945px;stroke-linecap:butt;stroke-linejoin:miter;stroke-opacity:1"
     d="M 1.5314012,-7.6561382 C 2.1922922,-8.1167505 2.8272649,-9.3933053 2.840224,-9.1300975 2.853185,-8.8668906 2.4514647,-7.0244412 1.7776155,-7.4850535 1.1037664,-7.9456659 1.5314012,-7.6561382 1.5314012,-7.6561382 Z"
     id="path4262"
     transform="translate(1.6666665e-6,16.933336)" />
</svg>
