<?xml version="1.0" encoding="UTF-8" standalone="no"?>
<svg
   version="1.1"
   viewBox="0 0 16 16"
   id="svg18"
   width="16"
   height="16"
   xml:space="preserve"
   xmlns="http://www.w3.org/2000/svg"
   xmlns:svg="http://www.w3.org/2000/svg"
   xmlns:rdf="http://www.w3.org/1999/02/22-rdf-syntax-ns#"
   xmlns:cc="http://creativecommons.org/ns#"
   xmlns:dc="http://purl.org/dc/elements/1.1/">
  <defs>
   <style id="current-color-scheme" type="text/css">
   .ColorScheme-Text { color: #0abdc6; } .ColorScheme-Highlight { color:#5294e2; }
  </style>
  <linearGradient id="arrongin" x1="0%" x2="0%" y1="0%" y2="100%">
   <stop offset="0%" style="stop-color:#dd9b44; stop-opacity:1"/>
   <stop offset="100%" style="stop-color:#ad6c16; stop-opacity:1"/>
  </linearGradient>
  <linearGradient id="aurora" x1="0%" x2="0%" y1="0%" y2="100%">
   <stop offset="0%" style="stop-color:#09D4DF; stop-opacity:1"/>
   <stop offset="100%" style="stop-color:#9269F4; stop-opacity:1"/>
  </linearGradient>
  <linearGradient id="cyberneon" x1="0%" x2="0%" y1="0%" y2="100%">
    <stop offset="0" style="stop-color:#0abdc6; stop-opacity:1"/>
    <stop offset="1" style="stop-color:#ea00d9; stop-opacity:1"/>
  </linearGradient>
  <linearGradient id="fitdance" x1="0%" x2="0%" y1="0%" y2="100%">
   <stop offset="0%" style="stop-color:#1AD6AB; stop-opacity:1"/>
   <stop offset="100%" style="stop-color:#329DB6; stop-opacity:1"/>
  </linearGradient>
  <linearGradient id="oomox" x1="0%" x2="0%" y1="0%" y2="100%">
   <stop offset="0%" style="stop-color:#0abdc6; stop-opacity:1"/>
   <stop offset="100%" style="stop-color:#b800ff; stop-opacity:1"/>
  </linearGradient>
  <linearGradient id="rainblue" x1="0%" x2="0%" y1="0%" y2="100%">
   <stop offset="0%" style="stop-color:#00F260; stop-opacity:1"/>
   <stop offset="100%" style="stop-color:#0575E6; stop-opacity:1"/>
  </linearGradient>
  <linearGradient id="sunrise" x1="0%" x2="0%" y1="0%" y2="100%">
   <stop offset="0%" style="stop-color: #FF8501; stop-opacity:1"/>
   <stop offset="100%" style="stop-color: #FFCB01; stop-opacity:1"/>
  </linearGradient>
  <linearGradient id="telinkrin" x1="0%" x2="0%" y1="0%" y2="100%">
   <stop offset="0%" style="stop-color: #b2ced6; stop-opacity:1"/>
   <stop offset="100%" style="stop-color: #6da5b7; stop-opacity:1"/>
  </linearGradient>
  <linearGradient id="60spsycho" x1="0%" x2="0%" y1="0%" y2="100%">
   <stop offset="0%" style="stop-color: #df5940; stop-opacity:1"/>
   <stop offset="25%" style="stop-color: #d8d15f; stop-opacity:1"/>
   <stop offset="50%" style="stop-color: #e9882a; stop-opacity:1"/>
   <stop offset="100%" style="stop-color: #279362; stop-opacity:1"/>
  </linearGradient>
  <linearGradient id="90ssummer" x1="0%" x2="0%" y1="0%" y2="100%">
   <stop offset="0%" style="stop-color: #f618c7; stop-opacity:1"/>
   <stop offset="20%" style="stop-color: #94ffab; stop-opacity:1"/>
   <stop offset="50%" style="stop-color: #fbfd54; stop-opacity:1"/>
   <stop offset="100%" style="stop-color: #0f83ae; stop-opacity:1"/>
  </linearGradient>
 </defs>
 <path
   id="path7"
   style="fill:url(#oomox);stroke-width:0.402;stroke-dasharray:none;opacity:0.8"
   class="ColorScheme-Text"
   d="M 0 5.8808594 L 0 14.144531 L 0 16 L 14.609375 16 L 16 16 L 16 5.8808594 L 0 5.8808594 z M 1.5371094 11.595703 C 1.9501516 11.595703 2.1774393 11.855564 2.1796875 12.330078 L 1.8652344 12.330078 C 1.8540104 12.097535 1.73474 11.972656 1.5214844 11.972656 C 1.3463904 11.972656 1.2382812 12.083023 1.2382812 12.255859 C 1.2382812 12.422411 1.308635 12.488695 1.5488281 12.554688 L 1.8046875 12.623047 C 2.1077349 12.704751 2.2382812 12.892521 2.2382812 13.253906 C 2.2382813 13.722135 1.9884277 13.996094 1.5664062 13.996094 C 1.1488744 13.996094 0.90887518 13.728508 0.88867188 13.238281 L 1.2167969 13.238281 C 1.2280208 13.483394 1.3550153 13.619141 1.5839844 13.619141 C 1.7882607 13.619141 1.9140625 13.502238 1.9140625 13.310547 C 1.9140625 13.125141 1.8319014 13.038218 1.6074219 12.978516 L 1.3789062 12.916016 C 1.0466766 12.828026 0.91796875 12.653927 0.91796875 12.298828 C 0.91796875 11.852597 1.1442703 11.595703 1.5371094 11.595703 z M 4.6953125 11.595703 C 4.9287712 11.595703 5.1144373 11.698421 5.2558594 11.912109 C 5.3995262 12.128941 5.484375 12.452817 5.484375 12.789062 C 5.484375 13.097025 5.4146824 13.411062 5.3046875 13.599609 L 5.484375 13.839844 L 5.3125 14.09375 L 5.1210938 13.839844 C 4.9908957 13.94983 4.8659169 13.996094 4.6953125 13.996094 C 4.4618538 13.996094 4.2781409 13.893376 4.1367188 13.679688 C 3.9930519 13.462856 3.9082031 13.139404 3.9082031 12.796875 C 3.9082031 12.454345 3.9908071 12.128941 4.1367188 11.912109 C 4.2781409 11.698421 4.4618538 11.595703 4.6953125 11.595703 z M 11.158203 11.595703 C 11.402885 11.595703 11.60476 11.724488 11.730469 11.957031 C 11.800057 12.085873 11.830573 12.21218 11.841797 12.410156 L 11.519531 12.410156 C 11.474636 12.130476 11.36522 11.998047 11.169922 11.998047 C 10.905037 11.998047 10.746094 12.29875 10.746094 12.804688 C 10.746094 13.304342 10.897807 13.599609 11.158203 13.599609 C 11.366969 13.599609 11.497083 13.434828 11.519531 13.142578 L 11.847656 13.142578 C 11.827454 13.667372 11.558943 13.996094 11.150391 13.996094 C 10.694697 13.996094 10.408203 13.53731 10.408203 12.798828 C 10.408203 12.057203 10.695775 11.595703 11.158203 11.595703 z M 2.4921875 11.632812 L 3.6738281 11.632812 L 3.6738281 12.025391 L 2.828125 12.025391 L 2.828125 12.544922 L 3.6113281 12.544922 L 3.6113281 12.9375 L 2.828125 12.9375 L 2.828125 13.53125 L 3.7148438 13.53125 L 3.7148438 13.923828 L 2.4921875 13.923828 L 2.4921875 11.632812 z M 5.7304688 11.632812 L 6.0683594 11.632812 L 6.0683594 13.185547 C 6.0683594 13.462085 6.1678955 13.59375 6.3789062 13.59375 C 6.589917 13.59375 6.6914062 13.462085 6.6914062 13.185547 L 6.6914062 11.632812 L 7.0292969 11.632812 L 7.0292969 13.185547 C 7.0292969 13.44323 6.9791356 13.625403 6.8691406 13.763672 C 6.7501665 13.914506 6.5764482 13.996094 6.3789062 13.996094 C 6.1813642 13.996094 6.0095991 13.914511 5.890625 13.763672 C 5.7806304 13.625403 5.7304688 13.44323 5.7304688 13.185547 L 5.7304688 11.632812 z M 7.359375 11.632812 L 8.5410156 11.632812 L 8.5410156 12.025391 L 7.6953125 12.025391 L 7.6953125 12.544922 L 8.4785156 12.544922 L 8.4785156 12.9375 L 7.6953125 12.9375 L 7.6953125 13.53125 L 8.5820312 13.53125 L 8.5820312 13.923828 L 7.359375 13.923828 L 7.359375 11.632812 z M 8.8300781 11.632812 L 9.1757812 11.632812 L 9.8261719 13.191406 L 9.8261719 11.632812 L 10.162109 11.632812 L 10.162109 13.923828 L 9.8261719 13.923828 L 9.1679688 12.339844 L 9.1679688 13.923828 L 8.8300781 13.923828 L 8.8300781 11.632812 z M 12.109375 11.632812 L 13.291016 11.632812 L 13.291016 12.025391 L 12.445312 12.025391 L 12.445312 12.544922 L 13.228516 12.544922 L 13.228516 12.9375 L 12.445312 12.9375 L 12.445312 13.53125 L 13.332031 13.53125 L 13.332031 13.923828 L 12.109375 13.923828 L 12.109375 11.632812 z M 13.607422 11.632812 L 14.486328 11.632812 C 14.625506 11.632813 14.728654 11.684172 14.802734 11.791016 C 14.881302 11.904145 14.925781 12.069689 14.925781 12.251953 C 14.925781 12.531633 14.834464 12.717802 14.650391 12.818359 C 14.859153 12.944059 14.867977 12.974758 14.876953 13.650391 L 14.876953 13.923828 L 14.537109 13.923828 L 14.537109 13.53125 C 14.537109 13.496681 14.536781 13.440562 14.539062 13.380859 L 14.539062 13.287109 C 14.539062 13.098566 14.475989 13.015625 14.330078 13.015625 L 13.945312 13.015625 L 13.945312 13.923828 L 13.607422 13.923828 L 13.607422 11.632812 z M 4.6953125 11.998047 C 4.4214475 11.998047 4.2441406 12.312933 4.2441406 12.796875 C 4.2441406 13.277673 4.423984 13.59375 4.6933594 13.59375 C 4.7651928 13.59375 4.8367495 13.572864 4.890625 13.535156 L 4.71875 13.304688 L 4.8886719 13.050781 L 5.0742188 13.294922 C 5.1236038 13.156653 5.1464844 12.987376 5.1464844 12.798828 C 5.1464844 12.311744 4.9691774 11.998047 4.6953125 11.998047 z M 13.945312 12.025391 L 13.945312 12.623047 L 14.351562 12.623047 C 14.448094 12.623047 14.491137 12.60649 14.529297 12.5625 C 14.569705 12.515362 14.589844 12.428347 14.589844 12.318359 C 14.589844 12.211514 14.569705 12.133075 14.529297 12.085938 C 14.486645 12.0388 14.448089 12.025391 14.351562 12.025391 L 13.945312 12.025391 z " />
 <path
   id="path9"
   class="ColorScheme-Text"
   style="font-variation-settings:normal;opacity:1;vector-effect:none;fill:url(#oomox);fill-opacity:1;stroke-width:0.031;stroke-linecap:butt;stroke-linejoin:miter;stroke-miterlimit:4;stroke-dasharray:none;stroke-dashoffset:0;stroke-opacity:1;-inkscape-stroke:none;stop-color:#000000;stop-opacity:1"
   d="M 0.013671875 -0.015625 C 0.012207126 -0.014096772 0.0078119522 -8.9165146e-05 0 0 C -0.00030502809 3.4815717e-06 0.013960295 -3.4696794e-06 0.013671875 0 C 0.013593655 -0.0017684682 0.014049475 -0.01601897 0.013671875 -0.015625 z M 0.013671875 0 C 0.014503844 0.018811361 1.7347217e-18 0.17204511 0 1.0449219 L 0 5.9277344 L 8 9.9238281 L 16 5.9277344 L 16 1.0449219 L 16 0 C 10.671245 0 -0.32357302 0.0040570559 0.013671875 0 z M 2.0039062 1.8007812 L 2.890625 1.8007812 C 3.0136848 1.8007812 3.1132813 1.900377 3.1132812 2.0234375 C 3.1132812 2.1465015 3.0136856 2.2480469 2.890625 2.2480469 L 2.890625 5.3554688 C 2.890625 5.6015871 2.6914313 5.8007812 2.4453125 5.8007812 L 2.0039062 5.8007812 C 1.7577871 5.8007812 1.5585937 5.6015871 1.5585938 5.3554688 L 1.5585938 2.2480469 C 1.5585938 2.001927 1.7577871 1.8007812 2.0039062 1.8007812 z M 3.5566406 1.8007812 C 3.6792355 1.8008414 3.7792369 1.9008373 3.7792969 2.0234375 C 3.7806269 2.1469997 3.6802162 2.247995 3.5566406 2.2480469 C 3.4330648 2.2479938 3.3346101 2.1470056 3.3359375 2.0234375 C 3.3359973 1.9008456 3.4340451 1.8008414 3.5566406 1.8007812 z M 4.2226562 1.8007812 L 5.1132812 1.8007812 C 5.3594017 1.8007812 5.5585938 2.0019259 5.5585938 2.2480469 L 5.5585938 5.3554688 C 5.5585938 5.6015883 5.3594017 5.8007812 5.1132812 5.8007812 L 4.6679688 5.8007812 C 4.4218496 5.8007812 4.2226563 5.6015883 4.2226562 5.3554688 L 4.2226562 2.2480469 C 4.0995953 2.2480469 4 2.146498 4 2.0234375 C 4 1.9003734 4.0995957 1.8007812 4.2226562 1.8007812 z M 6.4453125 1.8007812 L 7.3339844 1.8007812 C 7.4570455 1.8007812 7.5546875 1.900377 7.5546875 2.0234375 C 7.5546875 2.1465015 7.457044 2.2480469 7.3339844 2.2480469 L 7.3339844 5.3554688 C 7.4570455 5.3554688 7.5546875 5.4550668 7.5546875 5.578125 C 7.5546875 5.701189 7.4570439 5.8007812 7.3339844 5.8007812 L 6.4453125 5.8007812 C 6.1991928 5.8007812 6.001953 5.6015883 6.0019531 5.3554688 L 6.0019531 2.2480469 C 6.0019531 2.0019259 6.1991928 1.8007812 6.4453125 1.8007812 z M 8 1.8007812 C 8.1225949 1.8008414 8.2206432 1.9008373 8.2207031 2.0234375 C 8.2220331 2.1469997 8.1235766 2.2479938 8 2.2480469 C 7.8764243 2.247995 7.7779694 2.1470056 7.7792969 2.0234375 C 7.7793567 1.9008456 7.8774045 1.8008414 8 1.8007812 z M 8.6660156 1.8007812 L 9.5546875 1.8007812 C 9.8008084 1.8007812 10.001953 2.0019259 10.001953 2.2480469 L 10.001953 5.3554688 C 10.001953 5.6015895 9.8008084 5.8007812 9.5546875 5.8007812 L 8.6660156 5.8007812 C 8.5429545 5.8007812 8.4453125 5.7011836 8.4453125 5.578125 C 8.4453125 5.4550611 8.5429559 5.3554688 8.6660156 5.3554688 L 8.6660156 2.2480469 C 8.5429545 2.2480469 8.4453125 2.146498 8.4453125 2.0234375 C 8.4453125 1.9003734 8.542956 1.8007812 8.6660156 1.8007812 z M 10.888672 1.8007812 L 11.777344 1.8007812 C 11.900408 1.8007812 12 1.900377 12 2.0234375 C 12 2.1465015 11.900405 2.2480469 11.777344 2.2480469 L 11.777344 5.3554688 C 11.777344 5.6015895 11.580108 5.8007812 11.333984 5.8007812 L 10.888672 5.8007812 C 10.64255 5.8007812 10.443359 5.6015895 10.443359 5.3554688 L 10.443359 2.2480469 C 10.443359 2.0019259 10.64255 1.8007812 10.888672 1.8007812 z M 12.443359 1.8007812 C 12.565951 1.8008402 12.664004 1.9008373 12.664062 2.0234375 C 12.665362 2.1469997 12.566934 2.247995 12.443359 2.2480469 C 12.319785 2.2479938 12.219376 2.1470056 12.220703 2.0234375 C 12.220762 1.9008456 12.320763 1.8008414 12.443359 1.8007812 z M 13.109375 1.8007812 L 13.996094 1.8007812 C 14.242213 1.8007812 14.441406 2.0019259 14.441406 2.2480469 L 14.441406 5.3554688 C 14.441406 5.6015895 14.242213 5.8007812 13.996094 5.8007812 L 13.554688 5.8007812 C 13.308566 5.8007812 13.109375 5.6015895 13.109375 5.3554688 L 13.109375 2.2480469 C 12.986312 2.2480469 12.886719 2.146498 12.886719 2.0234375 C 12.886719 1.9003734 12.986329 1.8007812 13.109375 1.8007812 z M 8 5.3554688 C 8.1225949 5.3555289 8.2206434 5.4555271 8.2207031 5.578125 C 8.2206432 5.7007156 8.1225956 5.8007211 8 5.8007812 C 7.8774052 5.8007211 7.7793567 5.7007226 7.7792969 5.578125 C 7.7793565 5.4555344 7.8774045 5.3555289 8 5.3554688 z " /><metadata
   id="metadata18"><rdf:RDF><cc:Work
       rdf:about=""><dc:creator><cc:Agent><dc:title>dreifacherspass</dc:title></cc:Agent></dc:creator><cc:license
         rdf:resource="http://creativecommons.org/licenses/by-sa/4.0/" /></cc:Work><cc:License
       rdf:about="http://creativecommons.org/licenses/by-sa/4.0/"><cc:permits
         rdf:resource="http://creativecommons.org/ns#Reproduction" /><cc:permits
         rdf:resource="http://creativecommons.org/ns#Distribution" /><cc:requires
         rdf:resource="http://creativecommons.org/ns#Notice" /><cc:requires
         rdf:resource="http://creativecommons.org/ns#Attribution" /><cc:permits
         rdf:resource="http://creativecommons.org/ns#DerivativeWorks" /><cc:requires
         rdf:resource="http://creativecommons.org/ns#ShareAlike" /></cc:License></rdf:RDF></metadata><path
   style="font-weight:bold;font-size:2.65598px;font-family:'Nimbus Sans';-inkscape-font-specification:'Nimbus Sans Bold';display:none;stroke-width:0.200199"
   d="M 2.1797584,12.331339 C 2.1775084,11.856825 1.950789,11.596 1.5377464,11.596 c -0.3928395,0 -0.6195641,0.257684 -0.6195641,0.703915 0,0.3551 0.1279535,0.527936 0.4601835,0.615926 l 0.2289693,0.06285 c 0.2244797,0.0597 0.3075373,0.147697 0.3075373,0.333104 0,0.191691 -0.1257087,0.307962 -0.3299853,0.307962 -0.2289693,0 -0.3569227,-0.135126 -0.3681467,-0.380239 H 0.889 c 0.020203,0.490227 0.2603964,0.757338 0.6779287,0.757338 0.4220219,0 0.6711944,-0.273396 0.6711944,-0.741625 0,-0.361386 -0.1301982,-0.549935 -0.4332459,-0.631639 l -0.2559068,-0.06914 c -0.2401934,-0.06599 -0.309782,-0.131984 -0.309782,-0.298536 0,-0.172836 0.1077502,-0.282823 0.2828444,-0.282823 0.2132558,0 0.33223,0.125699 0.343454,0.358242 z m 0.648746,0.6065 H 3.6119387 V 12.545028 H 2.8285044 V 12.026519 H 3.674793 v -0.39281 H 2.4917848 v 2.290868 h 1.2234145 v -0.39281 H 2.8285044 Z m 2.4760105,0.663062 c 0.109995,-0.188548 0.179584,-0.502796 0.179584,-0.810759 0,-0.336245 -0.0853,-0.659921 -0.228969,-0.876752 -0.141422,-0.213689 -0.325496,-0.31739 -0.558955,-0.31739 -0.233459,0 -0.417532,0.103701 -0.558954,0.31739 -0.145912,0.216831 -0.2289689,0.540507 -0.2289689,0.883037 0,0.34253 0.0853,0.666205 0.2289689,0.883037 0.141422,0.213689 0.325495,0.31739 0.558954,0.31739 0.170605,0 0.294069,-0.04714 0.424267,-0.157124 l 0.193053,0.254541 0.170604,-0.254541 z m -0.415287,-0.549933 -0.170605,0.25454 0.17285,0.229402 c -0.05388,0.03771 -0.125709,0.0597 -0.197542,0.0597 -0.269376,0 -0.44896,-0.317391 -0.44896,-0.798189 0,-0.483942 0.177339,-0.79819 0.451204,-0.79819 0.273866,0 0.451205,0.314248 0.451205,0.801332 0,0.188548 -0.02469,0.358242 -0.07408,0.496511 z m 1.802571,-1.417259 v 1.552385 c 0,0.276538 -0.101016,0.408522 -0.312027,0.408522 -0.211011,0 -0.312027,-0.131984 -0.312027,-0.408522 v -1.552385 h -0.336719 v 1.552385 c 0,0.257683 0.04938,0.439947 0.15938,0.578216 0.118974,0.150839 0.291824,0.232544 0.489366,0.232544 0.197542,0 0.370391,-0.08171 0.489366,-0.232544 0.109995,-0.138269 0.15938,-0.320533 0.15938,-0.578216 v -1.552385 z m 1.003424,1.30413 h 0.783434 v -0.392811 h -0.783434 v -0.518509 h 0.846288 v -0.39281 h -1.183007 v 2.290868 h 1.223414 v -0.39281 h -0.886695 z m 2.130312,0.986738 H 10.162254 V 11.633709 H 9.8255349 v 1.55867 l -0.648746,-1.55867 h -0.345699 v 2.290868 h 0.336719 v -1.58381 z M 11.841362,12.409902 C 11.830142,12.211925 11.800952,12.086226 11.731367,11.957385 11.605658,11.724841 11.403626,11.596 11.158943,11.596 c -0.462428,0 -0.749762,0.461944 -0.749762,1.20357 0,0.738482 0.285089,1.197284 0.740783,1.197284 0.408553,0 0.677929,-0.32996 0.698131,-0.854755 h -0.32774 c -0.02245,0.292251 -0.152645,0.458802 -0.361412,0.458802 -0.260396,0 -0.413043,-0.295393 -0.413043,-0.795047 0,-0.505939 0.159381,-0.807616 0.424267,-0.807616 0.195298,0 0.305293,0.131983 0.350188,0.411664 z m 0.60385,0.527937 h 0.783434 v -0.392811 h -0.783434 v -0.518509 h 0.846289 v -0.39281 h -1.183009 v 2.290868 h 1.223415 v -0.39281 h -0.886695 z m 1.499525,0.07856 h 0.386105 c 0.145911,0 0.208766,0.08171 0.208766,0.270252 v 0.09428 c -0.0023,0.0597 -0.0025,0.11627 -0.0025,0.150839 0,0.216831 -3.8e-5,0.282627 -3.8e-5,0.39268 h 0.339 c 0,-0.209509 2e-6,-0.04704 2e-6,-0.273265 -0.009,-0.675634 -0.01767,-0.707058 -0.226436,-0.832758 0.184074,-0.100558 0.27611,-0.285965 0.27611,-0.565646 0,-0.182264 -0.0449,-0.348815 -0.123464,-0.461944 -0.07408,-0.106844 -0.177338,-0.157124 -0.316516,-0.157124 H 13.60798 v 2.290867 l 0.336719,-1.3e-4 z m 0,-0.39281 V 12.02652 h 0.406308 c 0.09653,0 0.134688,0.01257 0.177339,0.0597 0.04041,0.04714 0.06061,0.125699 0.06061,0.232544 0,0.109988 -0.0202,0.197975 -0.06061,0.245113 -0.03816,0.04399 -0.08081,0.0597 -0.177339,0.0597 z"
   id="text24-4"
   aria-label="SEQUENCER" /></svg>
