<?xml version="1.0" encoding="UTF-8" standalone="no"?>
<svg
   version="1.1"
   viewBox="0 0 16 16"
   id="svg18"
   width="16"
   height="16"
   xml:space="preserve"
   xmlns="http://www.w3.org/2000/svg"
   xmlns:svg="http://www.w3.org/2000/svg"
   xmlns:rdf="http://www.w3.org/1999/02/22-rdf-syntax-ns#"
   xmlns:cc="http://creativecommons.org/ns#"
   xmlns:dc="http://purl.org/dc/elements/1.1/">
   <defs>
   <style id="current-color-scheme" type="text/css">
   .ColorScheme-Text { color: #0abdc6; } .ColorScheme-Highlight { color:#5294e2; }
  </style>
  <linearGradient id="arrongin" x1="0%" x2="0%" y1="0%" y2="100%">
   <stop offset="0%" style="stop-color:#dd9b44; stop-opacity:1"/>
   <stop offset="100%" style="stop-color:#ad6c16; stop-opacity:1"/>
  </linearGradient>
  <linearGradient id="aurora" x1="0%" x2="0%" y1="0%" y2="100%">
   <stop offset="0%" style="stop-color:#09D4DF; stop-opacity:1"/>
   <stop offset="100%" style="stop-color:#9269F4; stop-opacity:1"/>
  </linearGradient>
  <linearGradient id="cyberneon" x1="0%" x2="0%" y1="0%" y2="100%">
    <stop offset="0" style="stop-color:#0abdc6; stop-opacity:1"/>
    <stop offset="1" style="stop-color:#ea00d9; stop-opacity:1"/>
  </linearGradient>
  <linearGradient id="fitdance" x1="0%" x2="0%" y1="0%" y2="100%">
   <stop offset="0%" style="stop-color:#1AD6AB; stop-opacity:1"/>
   <stop offset="100%" style="stop-color:#329DB6; stop-opacity:1"/>
  </linearGradient>
  <linearGradient id="oomox" x1="0%" x2="0%" y1="0%" y2="100%">
   <stop offset="0%" style="stop-color:#0abdc6; stop-opacity:1"/>
   <stop offset="100%" style="stop-color:#b800ff; stop-opacity:1"/>
  </linearGradient>
  <linearGradient id="rainblue" x1="0%" x2="0%" y1="0%" y2="100%">
   <stop offset="0%" style="stop-color:#00F260; stop-opacity:1"/>
   <stop offset="100%" style="stop-color:#0575E6; stop-opacity:1"/>
  </linearGradient>
  <linearGradient id="sunrise" x1="0%" x2="0%" y1="0%" y2="100%">
   <stop offset="0%" style="stop-color: #FF8501; stop-opacity:1"/>
   <stop offset="100%" style="stop-color: #FFCB01; stop-opacity:1"/>
  </linearGradient>
  <linearGradient id="telinkrin" x1="0%" x2="0%" y1="0%" y2="100%">
   <stop offset="0%" style="stop-color: #b2ced6; stop-opacity:1"/>
   <stop offset="100%" style="stop-color: #6da5b7; stop-opacity:1"/>
  </linearGradient>
  <linearGradient id="60spsycho" x1="0%" x2="0%" y1="0%" y2="100%">
   <stop offset="0%" style="stop-color: #df5940; stop-opacity:1"/>
   <stop offset="25%" style="stop-color: #d8d15f; stop-opacity:1"/>
   <stop offset="50%" style="stop-color: #e9882a; stop-opacity:1"/>
   <stop offset="100%" style="stop-color: #279362; stop-opacity:1"/>
  </linearGradient>
  <linearGradient id="90ssummer" x1="0%" x2="0%" y1="0%" y2="100%">
   <stop offset="0%" style="stop-color: #f618c7; stop-opacity:1"/>
   <stop offset="20%" style="stop-color: #94ffab; stop-opacity:1"/>
   <stop offset="50%" style="stop-color: #fbfd54; stop-opacity:1"/>
   <stop offset="100%" style="stop-color: #0f83ae; stop-opacity:1"/>
  </linearGradient>
 </defs>
 <path
   id="path7"
   style="fill:url(#oomox);stroke-width:0.402;stroke-dasharray:none"
   class="ColorScheme-Text"
   d="M 0 5.8808594 L 0 14.144531 L 0 16 L 14.609375 16 L 16 16 L 16 5.8808594 L 0 5.8808594 z M 4.2734375 10.566406 C 4.6333119 10.566406 4.8300748 10.805419 4.8320312 11.240234 L 4.5585938 11.240234 C 4.5488146 11.027148 4.4455703 10.912109 4.2597656 10.912109 C 4.1072097 10.912109 4.0136719 11.013497 4.0136719 11.171875 C 4.0136719 11.324492 4.0739283 11.384844 4.2832031 11.445312 L 4.5058594 11.507812 C 4.7698977 11.58268 4.8828125 11.754786 4.8828125 12.085938 C 4.8828125 12.514991 4.666526 12.765625 4.2988281 12.765625 C 3.935042 12.765625 3.7265874 12.521478 3.7089844 12.072266 L 3.9941406 12.072266 C 4.0039199 12.296867 4.1149574 12.419922 4.3144531 12.419922 C 4.4924343 12.419922 4.6015625 12.314325 4.6015625 12.138672 C 4.6015625 11.968777 4.5295683 11.888684 4.3339844 11.833984 L 4.1347656 11.775391 C 3.8453014 11.694764 3.734375 11.536328 3.734375 11.210938 C 3.734375 10.802039 3.9311656 10.566406 4.2734375 10.566406 z M 6.8632812 10.566406 C 7.2231557 10.566406 7.419915 10.805419 7.421875 11.240234 L 7.1484375 11.240234 C 7.1386583 11.027148 7.0354141 10.912109 6.8496094 10.912109 C 6.6970534 10.912109 6.6035156 11.013497 6.6035156 11.171875 C 6.6035156 11.324492 6.6637719 11.384844 6.8730469 11.445312 L 7.0957031 11.507812 C 7.3597415 11.58268 7.4726562 11.754786 7.4726562 12.085938 C 7.4726562 12.514991 7.2563696 12.765625 6.8886719 12.765625 C 6.5248856 12.765625 6.314478 12.521478 6.296875 12.072266 L 6.5839844 12.072266 C 6.5937636 12.296867 6.7048013 12.419922 6.9042969 12.419922 C 7.0822783 12.419922 7.1914063 12.314325 7.1914062 12.138672 C 7.1914062 11.968777 7.1194121 11.888684 6.9238281 11.833984 L 6.7246094 11.775391 C 6.4351451 11.694764 6.3222656 11.536328 6.3222656 11.210938 C 6.3222656 10.802039 6.5210093 10.566406 6.8632812 10.566406 z M 8.1757812 10.566406 C 8.5356557 10.566406 8.7324098 10.805419 8.734375 11.240234 L 8.4609375 11.240234 C 8.4511582 11.027148 8.3479141 10.912109 8.1621094 10.912109 C 8.0095542 10.912109 7.9140625 11.013497 7.9140625 11.171875 C 7.9140625 11.324492 7.976272 11.384844 8.1855469 11.445312 L 8.4082031 11.507812 C 8.6722419 11.58268 8.7851562 11.754786 8.7851562 12.085938 C 8.7851562 12.514991 8.5688698 12.765625 8.2011719 12.765625 C 7.8373855 12.765625 7.626978 12.521478 7.609375 12.072266 L 7.8945312 12.072266 C 7.9043104 12.296867 8.0173014 12.419922 8.2167969 12.419922 C 8.3947783 12.419922 8.5039063 12.314325 8.5039062 12.138672 C 8.5039063 11.968777 8.431912 11.888684 8.2363281 11.833984 L 8.0371094 11.775391 C 7.747645 11.694764 7.6347656 11.536328 7.6347656 11.210938 C 7.6347656 10.802039 7.8335094 10.566406 8.1757812 10.566406 z M 10.158203 10.566406 C 10.365523 10.566406 10.521312 10.658732 10.646484 10.857422 C 10.77361 11.056112 10.847656 11.353369 10.847656 11.681641 C 10.847656 11.978236 10.769703 12.28168 10.646484 12.474609 C 10.523266 12.670417 10.363564 12.765625 10.160156 12.765625 C 9.9567489 12.765625 9.7970462 12.670421 9.6738281 12.474609 C 9.5466974 12.275922 9.4746094 11.979888 9.4746094 11.666016 C 9.4746094 11.352141 9.5466984 11.058992 9.6738281 10.857422 C 9.7950904 10.664495 9.9587073 10.566406 10.158203 10.566406 z M 5.1035156 10.601562 L 6.1347656 10.601562 L 6.1347656 10.960938 L 5.3984375 10.960938 L 5.3984375 11.435547 L 6.0800781 11.435547 L 6.0800781 11.796875 L 5.3984375 11.796875 L 5.3984375 12.339844 L 6.1699219 12.339844 L 6.1699219 12.699219 L 5.1035156 12.699219 L 5.1035156 10.601562 z M 8.9746094 10.601562 L 9.2675781 10.601562 L 9.2675781 12.699219 L 8.9746094 12.699219 L 8.9746094 10.601562 z M 11.050781 10.601562 L 11.351562 10.601562 L 11.916016 12.029297 L 11.916016 10.601562 L 12.210938 10.601562 L 12.210938 12.699219 L 11.916016 12.699219 L 11.34375 11.248047 L 11.34375 12.699219 L 11.050781 12.699219 L 11.050781 10.601562 z M 10.160156 10.935547 C 9.9215423 10.935547 9.7675781 11.22256 9.7675781 11.666016 C 9.7675781 12.109469 9.9215423 12.398438 10.160156 12.398438 C 10.394856 12.398438 10.552734 12.109671 10.552734 11.677734 C 10.552734 11.222762 10.400724 10.935547 10.160156 10.935547 z M 9.5039062 13.183594 C 9.8448154 13.183594 10.080374 13.453854 10.115234 13.888672 L 9.8417969 13.888672 C 9.8166189 13.779241 9.7965373 13.729574 9.7558594 13.677734 C 9.6919391 13.594223 9.6065827 13.550781 9.5058594 13.550781 C 9.2579246 13.550781 9.109375 13.82525 9.109375 14.277344 C 9.109375 14.70928 9.2773592 15.013672 9.5136719 15.013672 C 9.6240794 15.013672 9.7310523 14.939203 9.8007812 14.8125 C 9.8433882 14.737632 9.8632938 14.66494 9.8710938 14.546875 L 9.5488281 14.546875 L 9.5488281 14.1875 L 10.115234 14.1875 L 10.115234 15.322266 L 9.9414062 15.322266 L 9.90625 15.044922 C 9.7977797 15.281054 9.6702934 15.382812 9.4804688 15.382812 C 9.0988825 15.382813 8.8183594 14.919589 8.8183594 14.283203 C 8.8183594 13.629539 9.097139 13.183594 9.5039062 13.183594 z M 3.1523438 13.216797 L 3.5859375 13.216797 L 3.8417969 14.886719 L 4.0898438 13.216797 L 4.5273438 13.216797 L 4.5273438 15.316406 L 4.2363281 15.316406 L 4.2363281 13.681641 L 3.9863281 15.316406 L 3.6953125 15.316406 L 3.4414062 13.681641 L 3.4414062 15.316406 L 3.1523438 15.316406 L 3.1523438 13.216797 z M 5.1816406 13.216797 L 5.5039062 13.216797 L 5.9921875 15.316406 L 5.6933594 15.316406 L 5.5996094 14.892578 L 5.0703125 14.892578 L 4.9765625 15.316406 L 4.6796875 15.316406 L 5.1816406 13.216797 z M 6.1601562 13.216797 L 6.4589844 13.216797 L 7.0175781 14.646484 L 7.0175781 13.216797 L 7.3085938 13.216797 L 7.3085938 15.316406 L 7.0175781 15.316406 L 6.4511719 13.865234 L 6.4511719 15.316406 L 6.1601562 15.316406 L 6.1601562 13.216797 z M 7.9667969 13.216797 L 8.2890625 13.216797 L 8.7773438 15.316406 L 8.4785156 15.316406 L 8.3847656 14.892578 L 7.8574219 14.892578 L 7.7617188 15.316406 L 7.4648438 15.316406 L 7.9667969 13.216797 z M 10.398438 13.216797 L 11.417969 13.216797 L 11.417969 13.578125 L 10.689453 13.578125 L 10.689453 14.052734 L 11.365234 14.052734 L 11.365234 14.412109 L 10.689453 14.412109 L 10.689453 14.957031 L 11.453125 14.957031 L 11.453125 15.316406 L 10.398438 15.316406 L 10.398438 13.216797 z M 11.691406 13.216797 L 12.449219 13.216797 C 12.569313 13.216797 12.658736 13.263418 12.722656 13.361328 C 12.79045 13.464995 12.828125 13.618141 12.828125 13.785156 C 12.828125 14.041438 12.748677 14.210584 12.589844 14.302734 C 12.769986 14.417917 12.782656 14.447252 12.785156 15.066406 C 12.785995 15.277468 12.785156 15.316406 12.785156 15.316406 L 12.494141 15.316406 L 12.494141 14.957031 C 12.494141 14.925352 12.494194 14.873069 12.496094 14.818359 L 12.496094 14.732422 C 12.496094 14.559639 12.44231 14.484375 12.316406 14.484375 L 11.982422 14.484375 L 11.982422 15.316406 L 11.691406 15.316406 L 11.691406 13.216797 z M 11.982422 13.578125 L 11.982422 14.125 L 12.333984 14.125 C 12.417276 14.125 12.453398 14.110622 12.486328 14.070312 C 12.521198 14.027118 12.539062 13.946483 12.539062 13.845703 C 12.539062 13.747799 12.521188 13.676002 12.486328 13.632812 C 12.449525 13.589673 12.417274 13.578125 12.333984 13.578125 L 11.982422 13.578125 z M 5.3359375 13.712891 L 5.1523438 14.533203 L 5.5214844 14.533203 L 5.3359375 13.712891 z M 8.1210938 13.712891 L 7.9375 14.533203 L 8.3066406 14.533203 L 8.1210938 13.712891 z " /> <path
   id="path9"
   class="ColorScheme-Text"
   style="font-variation-settings:normal;display:inline;opacity:1;vector-effect:none;fill:url(#oomox);fill-opacity:1;stroke-width:0.031;stroke-linecap:butt;stroke-linejoin:miter;stroke-miterlimit:4;stroke-dasharray:none;stroke-dashoffset:0;stroke-opacity:1;-inkscape-stroke:none;stop-color:#000000;stop-opacity:1"
   d="M 0.01367188,-0.015625 C 0.01220713,-0.01409677 0.00781195,-8.9165146e-5 0,0 c -3.0502809e-4,3.4815717e-6 0.0139603,-3.4696794e-6 0.01367188,0 -7.822e-5,-0.00176847 3.776e-4,-0.01601897 0,-0.015625 z m 0,0.015625 C 0.01450384,0.01881136 0,0.17204511 0,1.0449219 V 5.9277344 L 8,9.9238281 16,5.9277344 V 1.0449219 0 C 10.671245,0 -0.32357302,0.00405706 0.01367188,0 Z M 2.0039062,1.8007812 H 2.890625 c 0.1230598,0 0.2226563,0.099596 0.2226562,0.2226563 0,0.123064 -0.099596,0.2246094 -0.2226562,0.2246094 v 3.1074219 c 0,0.2461183 -0.1991937,0.4453124 -0.4453125,0.4453124 H 2.0039062 c -0.2461191,0 -0.4453125,-0.1991941 -0.4453124,-0.4453124 V 2.2480469 c 0,-0.2461199 0.1991933,-0.4472657 0.4453124,-0.4472657 z m 1.5527344,0 C 3.6792355,1.8008414 3.7792369,1.9008373 3.7792969,2.0234375 3.7806269,2.1469997 3.6802162,2.247995 3.5566406,2.2480469 3.4330648,2.2479938 3.3346101,2.1470056 3.3359375,2.0234375 3.3359973,1.9008456 3.4340451,1.8008414 3.5566406,1.8007812 Z m 0.6660156,0 h 0.890625 c 0.2461205,0 0.4453126,0.2011447 0.4453126,0.4472657 v 3.1074219 c 0,0.2461195 -0.1991921,0.4453124 -0.4453126,0.4453124 H 4.6679688 c -0.2461192,0 -0.4453125,-0.1991929 -0.4453126,-0.4453124 V 2.2480469 C 4.0995953,2.2480469 4,2.146498 4,2.0234375 4,1.9003734 4.0995957,1.8007812 4.2226562,1.8007812 Z m 2.2226563,0 h 0.8886719 c 0.1230611,0 0.2207031,0.099596 0.2207031,0.2226563 0,0.123064 -0.097644,0.2246094 -0.2207031,0.2246094 v 3.1074219 c 0.1230611,0 0.2207031,0.099598 0.2207031,0.2226562 0,0.123064 -0.097644,0.2226562 -0.2207031,0.2226562 H 6.4453125 c -0.2461197,0 -0.4433595,-0.1991929 -0.4433594,-0.4453124 V 2.2480469 c 0,-0.246121 0.1972397,-0.4472657 0.4433594,-0.4472657 z M 8,1.8007812 C 8.1225949,1.8008414 8.2206432,1.9008373 8.2207031,2.0234375 8.2220331,2.1469997 8.1235766,2.2479938 8,2.2480469 7.8764243,2.247995 7.7779694,2.1470056 7.7792969,2.0234375 7.7793567,1.9008456 7.8774045,1.8008414 8,1.8007812 Z m 0.6660156,0 h 0.8886719 c 0.2461209,0 0.4472655,0.2011447 0.4472655,0.4472657 v 3.1074219 c 0,0.2461207 -0.2011446,0.4453124 -0.4472655,0.4453124 H 8.6660156 c -0.1230611,0 -0.2207031,-0.099598 -0.2207031,-0.2226562 0,-0.1230639 0.097643,-0.2226562 0.2207031,-0.2226562 V 2.2480469 c -0.1230611,0 -0.2207031,-0.1015489 -0.2207031,-0.2246094 0,-0.1230641 0.097644,-0.2226563 0.2207031,-0.2226563 z m 2.2226564,0 h 0.888672 C 11.900408,1.8007812 12,1.900377 12,2.0234375 c 0,0.123064 -0.0996,0.2246094 -0.222656,0.2246094 v 3.1074219 c 0,0.2461207 -0.197236,0.4453124 -0.44336,0.4453124 h -0.445312 c -0.246122,0 -0.445313,-0.1991917 -0.445313,-0.4453124 V 2.2480469 c 0,-0.246121 0.199191,-0.4472657 0.445313,-0.4472657 z m 1.554687,0 c 0.122592,5.9e-5 0.220645,0.1000561 0.220703,0.2226563 0.0013,0.1235622 -0.09713,0.2245575 -0.220703,0.2246094 -0.123574,-5.31e-5 -0.223983,-0.1010413 -0.222656,-0.2246094 5.9e-5,-0.1225919 0.10006,-0.2225961 0.222656,-0.2226563 z m 0.666016,0 h 0.886719 c 0.246119,0 0.445312,0.2011447 0.445312,0.4472657 v 3.1074219 c 0,0.2461207 -0.199193,0.4453124 -0.445312,0.4453124 h -0.441406 c -0.246122,0 -0.445313,-0.1991917 -0.445313,-0.4453124 V 2.2480469 c -0.123063,0 -0.222656,-0.1015489 -0.222656,-0.2246094 0,-0.1230641 0.09961,-0.2226563 0.222656,-0.2226563 z M 8,5.3554688 C 8.1225949,5.3555289 8.2206434,5.4555271 8.2207031,5.578125 8.2206432,5.7007156 8.1225956,5.8007211 8,5.8007812 7.8774052,5.8007211 7.7793567,5.7007226 7.7792969,5.578125 7.7793565,5.4555344 7.8774045,5.3555289 8,5.3554688 Z" />
 <metadata
   id="metadata18"><rdf:RDF><cc:Work
       rdf:about=""><dc:creator><cc:Agent><dc:title>dreifacherspass</dc:title></cc:Agent></dc:creator><cc:license
         rdf:resource="http://creativecommons.org/licenses/by-sa/4.0/" /></cc:Work><cc:License
       rdf:about="http://creativecommons.org/licenses/by-sa/4.0/"><cc:permits
         rdf:resource="http://creativecommons.org/ns#Reproduction" /><cc:permits
         rdf:resource="http://creativecommons.org/ns#Distribution" /><cc:requires
         rdf:resource="http://creativecommons.org/ns#Notice" /><cc:requires
         rdf:resource="http://creativecommons.org/ns#Attribution" /><cc:permits
         rdf:resource="http://creativecommons.org/ns#DerivativeWorks" /><cc:requires
         rdf:resource="http://creativecommons.org/ns#ShareAlike" /></cc:License></rdf:RDF>
   </metadata>
</svg>
