<?xml version="1.0" encoding="UTF-8" standalone="no"?>
<svg
   version="1.1"
   viewBox="0 0 16 16"
   id="svg18"
   width="16"
   height="16"
   xml:space="preserve"
   xmlns="http://www.w3.org/2000/svg"
   xmlns:svg="http://www.w3.org/2000/svg"
   xmlns:rdf="http://www.w3.org/1999/02/22-rdf-syntax-ns#"
   xmlns:cc="http://creativecommons.org/ns#"
   xmlns:dc="http://purl.org/dc/elements/1.1/">
  <defs>
   <style id="current-color-scheme" type="text/css">
   .ColorScheme-Text { color: #0abdc6; } .ColorScheme-Highlight { color:#5294e2; }
  </style>
  <linearGradient id="arrongin" x1="0%" x2="0%" y1="0%" y2="100%">
   <stop offset="0%" style="stop-color:#dd9b44; stop-opacity:1"/>
   <stop offset="100%" style="stop-color:#ad6c16; stop-opacity:1"/>
  </linearGradient>
  <linearGradient id="aurora" x1="0%" x2="0%" y1="0%" y2="100%">
   <stop offset="0%" style="stop-color:#09D4DF; stop-opacity:1"/>
   <stop offset="100%" style="stop-color:#9269F4; stop-opacity:1"/>
  </linearGradient>
  <linearGradient id="cyberneon" x1="0%" x2="0%" y1="0%" y2="100%">
    <stop offset="0" style="stop-color:#0abdc6; stop-opacity:1"/>
    <stop offset="1" style="stop-color:#ea00d9; stop-opacity:1"/>
  </linearGradient>
  <linearGradient id="fitdance" x1="0%" x2="0%" y1="0%" y2="100%">
   <stop offset="0%" style="stop-color:#1AD6AB; stop-opacity:1"/>
   <stop offset="100%" style="stop-color:#329DB6; stop-opacity:1"/>
  </linearGradient>
  <linearGradient id="oomox" x1="0%" x2="0%" y1="0%" y2="100%">
   <stop offset="0%" style="stop-color:#0abdc6; stop-opacity:1"/>
   <stop offset="100%" style="stop-color:#b800ff; stop-opacity:1"/>
  </linearGradient>
  <linearGradient id="rainblue" x1="0%" x2="0%" y1="0%" y2="100%">
   <stop offset="0%" style="stop-color:#00F260; stop-opacity:1"/>
   <stop offset="100%" style="stop-color:#0575E6; stop-opacity:1"/>
  </linearGradient>
  <linearGradient id="sunrise" x1="0%" x2="0%" y1="0%" y2="100%">
   <stop offset="0%" style="stop-color: #FF8501; stop-opacity:1"/>
   <stop offset="100%" style="stop-color: #FFCB01; stop-opacity:1"/>
  </linearGradient>
  <linearGradient id="telinkrin" x1="0%" x2="0%" y1="0%" y2="100%">
   <stop offset="0%" style="stop-color: #b2ced6; stop-opacity:1"/>
   <stop offset="100%" style="stop-color: #6da5b7; stop-opacity:1"/>
  </linearGradient>
  <linearGradient id="60spsycho" x1="0%" x2="0%" y1="0%" y2="100%">
   <stop offset="0%" style="stop-color: #df5940; stop-opacity:1"/>
   <stop offset="25%" style="stop-color: #d8d15f; stop-opacity:1"/>
   <stop offset="50%" style="stop-color: #e9882a; stop-opacity:1"/>
   <stop offset="100%" style="stop-color: #279362; stop-opacity:1"/>
  </linearGradient>
  <linearGradient id="90ssummer" x1="0%" x2="0%" y1="0%" y2="100%">
   <stop offset="0%" style="stop-color: #f618c7; stop-opacity:1"/>
   <stop offset="20%" style="stop-color: #94ffab; stop-opacity:1"/>
   <stop offset="50%" style="stop-color: #fbfd54; stop-opacity:1"/>
   <stop offset="100%" style="stop-color: #0f83ae; stop-opacity:1"/>
  </linearGradient>
 </defs>
 <path
   id="path7"
   style="fill:url(#oomox);stroke-width:0.402;stroke-dasharray:none"
   class="ColorScheme-Text"
   d="M 0 5.8808594 L 0 14.144531 L 0 16 L 14.609375 16 L 16 16 L 16 5.8808594 L 0 5.8808594 z M 1.3671875 11.595703 L 3.0351562 11.595703 L 3.0351562 12.089844 L 2.4277344 12.089844 L 2.4277344 14.472656 L 2 14.472656 L 2 12.089844 L 1.3671875 12.089844 L 1.3671875 11.595703 z M 3.2539062 11.595703 L 3.6816406 11.595703 L 3.6816406 14.472656 L 3.2539062 14.472656 L 3.2539062 11.595703 z M 4.0546875 11.595703 L 4.6953125 11.595703 L 5.0722656 13.884766 L 5.4375 11.595703 L 6.0839844 11.595703 L 6.0839844 14.472656 L 5.6542969 14.472656 L 5.6542969 12.230469 L 5.2871094 14.472656 L 4.8574219 14.472656 L 4.484375 12.230469 L 4.484375 14.472656 L 4.0546875 14.472656 L 4.0546875 11.595703 z M 6.4726562 11.595703 L 7.9765625 11.595703 L 7.9765625 12.089844 L 6.9003906 12.089844 L 6.9003906 12.740234 L 7.8964844 12.740234 L 7.8964844 13.234375 L 6.9003906 13.234375 L 6.9003906 13.978516 L 8.0292969 13.978516 L 8.0292969 14.472656 L 6.4726562 14.472656 L 6.4726562 11.595703 z M 8.3789062 11.595703 L 8.8085938 11.595703 L 8.8085938 13.978516 L 9.8046875 13.978516 L 9.8046875 14.472656 L 8.3789062 14.472656 L 8.3789062 11.595703 z M 10.076172 11.595703 L 10.503906 11.595703 L 10.503906 14.472656 L 10.076172 14.472656 L 10.076172 11.595703 z M 10.884766 11.595703 L 11.324219 11.595703 L 12.150391 13.552734 L 12.150391 11.595703 L 12.578125 11.595703 L 12.578125 14.472656 L 12.150391 14.472656 L 11.3125 12.484375 L 11.3125 14.472656 L 10.884766 14.472656 L 10.884766 11.595703 z M 12.978516 11.595703 L 14.482422 11.595703 L 14.482422 12.089844 L 13.40625 12.089844 L 13.40625 12.740234 L 14.402344 12.740234 L 14.402344 13.234375 L 13.40625 13.234375 L 13.40625 13.978516 L 14.535156 13.978516 L 14.535156 14.472656 L 12.978516 14.472656 L 12.978516 11.595703 z " />&#10; <path
   id="path9"
   class="ColorScheme-Text"
   style="font-variation-settings:normal;opacity:1;vector-effect:none;fill:url(#oomox);fill-opacity:1;stroke-width:0.031;stroke-linecap:butt;stroke-linejoin:miter;stroke-miterlimit:4;stroke-dasharray:none;stroke-dashoffset:0;stroke-opacity:1;-inkscape-stroke:none;stop-color:#000000;stop-opacity:1"
   d="M 0.013671875 -0.015625 C 0.012207126 -0.014096772 0.0078119522 -8.9165146e-05 0 0 C -0.00030502809 3.4815717e-06 0.013960295 -3.4696794e-06 0.013671875 0 C 0.013593655 -0.0017684682 0.014049475 -0.01601897 0.013671875 -0.015625 z M 0.013671875 0 C 0.014503844 0.018811361 1.7347217e-18 0.17204511 0 1.0449219 L 0 5.9277344 L 8 9.9238281 L 16 5.9277344 L 16 1.0449219 L 16 0 C 10.671245 0 -0.32357302 0.0040570559 0.013671875 0 z M 2.0039062 1.8007812 L 2.890625 1.8007812 C 3.0136848 1.8007812 3.1132813 1.900377 3.1132812 2.0234375 C 3.1132812 2.1465015 3.0136856 2.2480469 2.890625 2.2480469 L 2.890625 5.3554688 C 2.890625 5.6015871 2.6914313 5.8007812 2.4453125 5.8007812 L 2.0039062 5.8007812 C 1.7577871 5.8007812 1.5585937 5.6015871 1.5585938 5.3554688 L 1.5585938 2.2480469 C 1.5585938 2.001927 1.7577871 1.8007812 2.0039062 1.8007812 z M 3.5566406 1.8007812 C 3.6792355 1.8008414 3.7792369 1.9008373 3.7792969 2.0234375 C 3.7806269 2.1469997 3.6802162 2.247995 3.5566406 2.2480469 C 3.4330648 2.2479938 3.3346101 2.1470056 3.3359375 2.0234375 C 3.3359973 1.9008456 3.4340451 1.8008414 3.5566406 1.8007812 z M 4.2226562 1.8007812 L 5.1132812 1.8007812 C 5.3594017 1.8007812 5.5585938 2.0019259 5.5585938 2.2480469 L 5.5585938 5.3554688 C 5.5585938 5.6015883 5.3594017 5.8007812 5.1132812 5.8007812 L 4.6679688 5.8007812 C 4.4218496 5.8007812 4.2226563 5.6015883 4.2226562 5.3554688 L 4.2226562 2.2480469 C 4.0995953 2.2480469 4 2.146498 4 2.0234375 C 4 1.9003734 4.0995957 1.8007812 4.2226562 1.8007812 z M 6.4453125 1.8007812 L 7.3339844 1.8007812 C 7.4570455 1.8007812 7.5546875 1.900377 7.5546875 2.0234375 C 7.5546875 2.1465015 7.457044 2.2480469 7.3339844 2.2480469 L 7.3339844 5.3554688 C 7.4570455 5.3554688 7.5546875 5.4550668 7.5546875 5.578125 C 7.5546875 5.701189 7.4570439 5.8007812 7.3339844 5.8007812 L 6.4453125 5.8007812 C 6.1991928 5.8007812 6.001953 5.6015883 6.0019531 5.3554688 L 6.0019531 2.2480469 C 6.0019531 2.0019259 6.1991928 1.8007812 6.4453125 1.8007812 z M 8 1.8007812 C 8.1225949 1.8008414 8.2206432 1.9008373 8.2207031 2.0234375 C 8.2220331 2.1469997 8.1235766 2.2479938 8 2.2480469 C 7.8764243 2.247995 7.7779694 2.1470056 7.7792969 2.0234375 C 7.7793567 1.9008456 7.8774045 1.8008414 8 1.8007812 z M 8.6660156 1.8007812 L 9.5546875 1.8007812 C 9.8008084 1.8007812 10.001953 2.0019259 10.001953 2.2480469 L 10.001953 5.3554688 C 10.001953 5.6015895 9.8008084 5.8007812 9.5546875 5.8007812 L 8.6660156 5.8007812 C 8.5429545 5.8007812 8.4453125 5.7011836 8.4453125 5.578125 C 8.4453125 5.4550611 8.5429559 5.3554688 8.6660156 5.3554688 L 8.6660156 2.2480469 C 8.5429545 2.2480469 8.4453125 2.146498 8.4453125 2.0234375 C 8.4453125 1.9003734 8.542956 1.8007812 8.6660156 1.8007812 z M 10.888672 1.8007812 L 11.777344 1.8007812 C 11.900408 1.8007812 12 1.900377 12 2.0234375 C 12 2.1465015 11.900405 2.2480469 11.777344 2.2480469 L 11.777344 5.3554688 C 11.777344 5.6015895 11.580108 5.8007812 11.333984 5.8007812 L 10.888672 5.8007812 C 10.64255 5.8007812 10.443359 5.6015895 10.443359 5.3554688 L 10.443359 2.2480469 C 10.443359 2.0019259 10.64255 1.8007812 10.888672 1.8007812 z M 12.443359 1.8007812 C 12.565951 1.8008402 12.664004 1.9008373 12.664062 2.0234375 C 12.665362 2.1469997 12.566934 2.247995 12.443359 2.2480469 C 12.319785 2.2479938 12.219376 2.1470056 12.220703 2.0234375 C 12.220762 1.9008456 12.320763 1.8008414 12.443359 1.8007812 z M 13.109375 1.8007812 L 13.996094 1.8007812 C 14.242213 1.8007812 14.441406 2.0019259 14.441406 2.2480469 L 14.441406 5.3554688 C 14.441406 5.6015895 14.242213 5.8007812 13.996094 5.8007812 L 13.554688 5.8007812 C 13.308566 5.8007812 13.109375 5.6015895 13.109375 5.3554688 L 13.109375 2.2480469 C 12.986312 2.2480469 12.886719 2.146498 12.886719 2.0234375 C 12.886719 1.9003734 12.986329 1.8007812 13.109375 1.8007812 z M 8 5.3554688 C 8.1225949 5.3555289 8.2206434 5.4555271 8.2207031 5.578125 C 8.2206432 5.7007156 8.1225956 5.8007211 8 5.8007812 C 7.8774052 5.8007211 7.7793567 5.7007226 7.7792969 5.578125 C 7.7793565 5.4555344 7.8774045 5.3555289 8 5.3554688 z " /><metadata
   id="metadata18"><rdf:RDF><cc:Work
       rdf:about=""><dc:creator><cc:Agent><dc:title>dreifacherspass</dc:title></cc:Agent></dc:creator><cc:license
         rdf:resource="http://creativecommons.org/licenses/by-sa/4.0/" /></cc:Work><cc:License
       rdf:about="http://creativecommons.org/licenses/by-sa/4.0/"><cc:permits
         rdf:resource="http://creativecommons.org/ns#Reproduction" /><cc:permits
         rdf:resource="http://creativecommons.org/ns#Distribution" /><cc:requires
         rdf:resource="http://creativecommons.org/ns#Notice" /><cc:requires
         rdf:resource="http://creativecommons.org/ns#Attribution" /><cc:permits
         rdf:resource="http://creativecommons.org/ns#DerivativeWorks" /><cc:requires
         rdf:resource="http://creativecommons.org/ns#ShareAlike" /></cc:License></rdf:RDF></metadata><path
   d="m 2.4276005,12.089232 h 0.608342 V 11.596 h -1.667942 v 0.493232 h 0.631191 v 2.383288 h 0.428409 z M 3.6814145,11.596 h -0.42841 v 2.87652 h 0.42841 z m 0.802554,0.635281 0.374144,2.24124 h 0.42841 l 0.368432,-2.24124 v 2.24124 h 0.42841 v -2.87652 h -0.64547 l -0.365577,2.28859 -0.377001,-2.28859 h -0.639758 v 2.87652 h 0.42841 z m 2.416232,1.002244 h 0.996767 v -0.493231 h -0.996767 v -0.651062 h 1.076737 V 11.596 h -1.505147 v 2.87652 h 1.556556 V 13.979289 H 6.9002005 Z M 8.8080515,11.596 h -0.428409 v 2.87652 H 9.804818 V 13.979289 H 8.8080515 Z m 1.6965025,0 h -0.42841 v 2.87652 h 0.42841 z m 1.645094,2.87652 h 0.428411 V 11.596 h -0.428411 v 1.957137 L 11.324245,11.596 h -0.439834 v 2.87652 h 0.428409 v -1.988705 z m 1.256669,-1.238995 h 0.996766 v -0.493231 h -0.996766 v -0.651062 h 1.076737 V 11.596 h -1.505147 v 2.87652 h 1.556556 v -0.493231 h -1.128146 z"
   id="text1-5"
   style="font-weight:bold;font-size:5.33333px;font-family:'Nimbus Sans';-inkscape-font-specification:'Nimbus Sans Bold';display:none;fill:#000000;fill-opacity:1;stroke:#000000;stroke-width:0;stroke-dasharray:none;stroke-opacity:1"
   aria-label="TIMELINE" /></svg>
