<?xml version="1.0" encoding="UTF-8" standalone="no"?>
<svg
   width="48"
   height="48"
   version="1.1"
   id="svg6819"
   xmlns:xlink="http://www.w3.org/1999/xlink"
   xmlns="http://www.w3.org/2000/svg"
   xmlns:svg="http://www.w3.org/2000/svg"
   xmlns:rdf="http://www.w3.org/1999/02/22-rdf-syntax-ns#"
   xmlns:cc="http://creativecommons.org/ns#"
   xmlns:dc="http://purl.org/dc/elements/1.1/">
  <defs
     id="defs6801">
    <style
       id="current-color-scheme"
       type="text/css">
   .ColorScheme-Text { color: #0abdc6; } .ColorScheme-Highlight { color:#5294e2; }
  </style>
    <linearGradient
       id="arrongin"
       x1="0"
       x2="0"
       y1="0"
       y2="1">
      <stop
         offset="0%"
         style="stop-color:#dd9b44; stop-opacity:1"
         id="stop6743" />
      <stop
         offset="100%"
         style="stop-color:#ad6c16; stop-opacity:1"
         id="stop6745" />
    </linearGradient>
    <linearGradient
       id="aurora"
       x1="0"
       x2="0"
       y1="0"
       y2="1">
      <stop
         offset="0%"
         style="stop-color:#09D4DF; stop-opacity:1"
         id="stop6748" />
      <stop
         offset="100%"
         style="stop-color:#9269F4; stop-opacity:1"
         id="stop6750" />
    </linearGradient>
    <linearGradient
       id="cyberneon"
       x1="0"
       x2="0"
       y1="0"
       y2="1">
      <stop
         offset="0"
         style="stop-color:#0abdc6; stop-opacity:1"
         id="stop6753" />
      <stop
         offset="1"
         style="stop-color:#ea00d9; stop-opacity:1"
         id="stop6755" />
    </linearGradient>
    <linearGradient
       id="fitdance"
       x1="0"
       x2="0"
       y1="0"
       y2="1">
      <stop
         offset="0%"
         style="stop-color:#1AD6AB; stop-opacity:1"
         id="stop6758" />
      <stop
         offset="100%"
         style="stop-color:#329DB6; stop-opacity:1"
         id="stop6760" />
    </linearGradient>
    <linearGradient
       id="oomox"
       x1="0"
       x2="0"
       y1="0"
       y2="1">
      <stop
         offset="0%"
         style="stop-color:#0abdc6; stop-opacity:1"
         id="stop6763" />
      <stop
         offset="100%"
         style="stop-color:#b800ff; stop-opacity:1"
         id="stop6765" />
    </linearGradient>
    <linearGradient
       id="rainblue"
       x1="0"
       x2="0"
       y1="0"
       y2="1">
      <stop
         offset="0%"
         style="stop-color:#00F260; stop-opacity:1"
         id="stop6768" />
      <stop
         offset="100%"
         style="stop-color:#0575E6; stop-opacity:1"
         id="stop6770" />
    </linearGradient>
    <linearGradient
       id="sunrise"
       x1="0"
       x2="0"
       y1="0"
       y2="1">
      <stop
         offset="0%"
         style="stop-color: #FF8501; stop-opacity:1"
         id="stop6773" />
      <stop
         offset="100%"
         style="stop-color: #FFCB01; stop-opacity:1"
         id="stop6775" />
    </linearGradient>
    <linearGradient
       id="telinkrin"
       x1="0"
       x2="0"
       y1="0"
       y2="1">
      <stop
         offset="0%"
         style="stop-color: #b2ced6; stop-opacity:1"
         id="stop6778" />
      <stop
         offset="100%"
         style="stop-color: #6da5b7; stop-opacity:1"
         id="stop6780" />
    </linearGradient>
    <linearGradient
       id="60spsycho"
       x1="0"
       x2="0"
       y1="0"
       y2="1">
      <stop
         offset="0%"
         style="stop-color: #df5940; stop-opacity:1"
         id="stop6783" />
      <stop
         offset="25%"
         style="stop-color: #d8d15f; stop-opacity:1"
         id="stop6785" />
      <stop
         offset="50%"
         style="stop-color: #e9882a; stop-opacity:1"
         id="stop6787" />
      <stop
         offset="100%"
         style="stop-color: #279362; stop-opacity:1"
         id="stop6789" />
    </linearGradient>
    <linearGradient
       id="90ssummer"
       x1="0"
       x2="0"
       y1="0"
       y2="1">
      <stop
         offset="0%"
         style="stop-color: #f618c7; stop-opacity:1"
         id="stop6792" />
      <stop
         offset="20%"
         style="stop-color: #94ffab; stop-opacity:1"
         id="stop6794" />
      <stop
         offset="50%"
         style="stop-color: #fbfd54; stop-opacity:1"
         id="stop6796" />
      <stop
         offset="100%"
         style="stop-color: #0f83ae; stop-opacity:1"
         id="stop6798" />
    </linearGradient>
  </defs>
  <g
     fill="url(#oomox)"
     class="ColorScheme-Text"
     id="g6817"
     style="fill:url(#oomox)"
     transform="matrix(2.9420125,0,0,2.9420125,0.500615,0.45858846)">
    <path
       d="m 6.041,11.957 q 0.188,0.292 -0.046,0.374 C 5.152,12.197 5.469,10.84 6.592,11.313 7.563,11.594 7.317,13.724 6.229,13.794 4.192,14.35 2.852,11.014 3.22,8.662 L 2.618,8.784 c -0.047,0.457 -0.014,1.109 0.017,1.417 0.258,2.516 1.721,4.307 3.734,4.062 1.791,-0.398 1.689,-2.892 0.41,-3.395 -0.9,-0.325 -1.686,0.129 -1.768,0.89 -0.035,0.632 0.558,1.112 0.984,1.018 0.632,-0.047 0.632,-0.796 0.046,-0.819 z"
       id="path6803"
       style="fill:url(#oomox)" />
    <path
       d="M 14.469,2.569 C 15.534,3.552 14.727,5.53 12.491,6.291 10.028,5.292 12.429,1.324 14.469,2.569 Z"
       id="path6805"
       style="fill:url(#oomox)" />
    <path
       d="m 13.334,9.124 0.006,1.135 q 1.088,0.024 2.45,-0.408 c 0.247,-0.078 0.247,-0.205 0,-0.283 Q 14.343,9.109 13.334,9.124 Z"
       id="path6807"
       style="fill:url(#oomox)" />
    <path
       d="M 0.376,9.124 H 8.523 C 8.464,9.375 8.437,9.602 8.442,9.803 c 0.004,0.17 0.032,0.323 0.081,0.456 H 0.376 C 0.273,10.259 0.15,10.185 0.102,10.093 -0.032,9.837 -0.031,9.46 0.086,9.281 0.143,9.194 0.273,9.124 0.376,9.124 Z"
       id="path6809"
       style="fill:url(#oomox)" />
    <path
       d="m 2.342,9.124 h 11.167 c -0.109,0.464 -0.107,0.844 0,1.135 H 2.342 C 2.201,9.872 2.204,9.496 2.342,9.124 Z"
       id="path6811"
       style="fill:url(#oomox)" />
    <path
       d="m 9.878,8.002 c 0.289,0.424 0.673,0.795 1.15,1.11 -0.218,0.139 0.068,0.189 0.433,0.012 0.445,0 0.715,0.011 1.194,0.023 Q 12.339,8.855 11.953,8.702 11.59,8.749 11.157,8.96 C 10.975,8.584 10.784,8.177 10.579,7.731 10.681,7.674 10.784,7.612 10.887,7.544 11.64,7.953 12.657,7.757 13.755,6.888 13.457,6.02 12.867,5.508 11.988,5.355 L 8.16,4.044 Q 6.404,3.014 4.672,4.032 2.799,5.565 2.6,9.124 L 3.039,9.118 C 3.53,7.903 4.059,7.201 4.625,7.255 4.366,7.842 4.465,8.687 4.786,9.149 4.54,9.215 4.294,9.301 5.219,9.219 4.777,8.906 4.607,8.155 4.973,7.323 5.228,7.399 5.38,7.497 5.281,7.778 5.627,7.908 5.964,8.009 6.29,8.075 6.256,8.488 6.179,8.981 5.959,9.147 L 6.275,9.159 C 6.423,8.894 6.6,8.539 6.708,8.137 7.226,8.227 7.711,8.222 8.17,8.138 8.252,8.438 8.419,8.8 8.563,9.188 8.71,9.585 8.966,9.578 9.609,9.25 Q 9.576,8.866 9.377,8.784 9.178,8.855 9.026,9.124 C 8.666,9.048 8.495,8.702 8.523,8.069 8.602,8.049 8.68,8.026 8.757,8 9.117,8.106 9.49,8.109 9.878,8.002 Z"
       id="path6813"
       style="fill:url(#oomox)" />
    <path
       d="M 10.513,6.104 C 8.301,6.104 7.914,2.276 9.682,1.738 q 1.896,-0.246 2.107,2.154 0.035,2.177 -1.276,2.212 z"
       id="path6815"
       style="fill:url(#oomox)" />
  </g>
  <metadata
     id="metadata6979">
    <rdf:RDF>
      <cc:Work
         rdf:about="">
        <dc:contributor>
          <cc:Agent>
            <dc:title>dreifacherspass</dc:title>
          </cc:Agent>
        </dc:contributor>
        <cc:license
           rdf:resource="http://creativecommons.org/licenses/by-sa/4.0/" />
      </cc:Work>
      <cc:License
         rdf:about="http://creativecommons.org/licenses/by-sa/4.0/">
        <cc:permits
           rdf:resource="http://creativecommons.org/ns#Reproduction" />
        <cc:permits
           rdf:resource="http://creativecommons.org/ns#Distribution" />
        <cc:requires
           rdf:resource="http://creativecommons.org/ns#Notice" />
        <cc:requires
           rdf:resource="http://creativecommons.org/ns#Attribution" />
        <cc:permits
           rdf:resource="http://creativecommons.org/ns#DerivativeWorks" />
        <cc:requires
           rdf:resource="http://creativecommons.org/ns#ShareAlike" />
      </cc:License>
    </rdf:RDF>
  </metadata>
  <g
     transform="matrix(0.00582677,0,0,-0.00583366,-10.185014,8.7950094)"
     id="g1370">
    <path
       d="m 6636,-4316.7 v -343.6 l -339.7,-11.7 -343.6,-11.7 v -191.3 -191.3 l 343.6,-11.7 339.7,-11.7 3.9,-331.9 7.8,-331.9 179.6,-11.7 179.6,-11.7 v 351.4 355.3 h 351.4 351.4 v 195.2 195.2 h -351.4 -351.4 v 351.4 351.4 H 6823.4 6636 Z"
       id="path1366"
       class="ColorScheme-Text"
       style="fill:url(#oomox);fill-opacity:1" />
    <path
       d="m 8802.9,-4328.5 v -351.4 h -351.4 -351.4 v -195.1 -195.2 h 351.4 351.4 v -351.4 -351.4 h 195.2 195.2 v 351.4 347.5 l 343.6,11.7 339.7,11.7 11.7,187.4 11.7,183.5 h -351.4 -355.3 v 351.4 351.4 h -195.2 -195.2 z"
       id="path1368"
       class="ColorScheme-Text"
       style="fill:url(#oomox);fill-opacity:1" />
  </g>
</svg>
