<?xml version="1.0" encoding="UTF-8" standalone="no"?>
<!-- Created with Inkscape (http://www.inkscape.org/) -->

<svg
   width="16"
   height="16"
   viewBox="0 0 16 16"
   version="1.1"
   id="svg1"
   xmlns:xlink="http://www.w3.org/1999/xlink"
   xmlns="http://www.w3.org/2000/svg"
   xmlns:svg="http://www.w3.org/2000/svg"
   xmlns:rdf="http://www.w3.org/1999/02/22-rdf-syntax-ns#"
   xmlns:cc="http://creativecommons.org/ns#"
   xmlns:dc="http://purl.org/dc/elements/1.1/">
  <defs>
   <style id="current-color-scheme" type="text/css">
   .ColorScheme-Text { color: #0abdc6; } .ColorScheme-Highlight { color:#5294e2; }
  </style>
  <linearGradient id="arrongin" x1="0%" x2="0%" y1="0%" y2="100%">
   <stop offset="0%" style="stop-color:#dd9b44; stop-opacity:1"/>
   <stop offset="100%" style="stop-color:#ad6c16; stop-opacity:1"/>
  </linearGradient>
  <linearGradient id="aurora" x1="0%" x2="0%" y1="0%" y2="100%">
   <stop offset="0%" style="stop-color:#09D4DF; stop-opacity:1"/>
   <stop offset="100%" style="stop-color:#9269F4; stop-opacity:1"/>
  </linearGradient>
  <linearGradient id="cyberneon" x1="0%" x2="0%" y1="0%" y2="100%">
    <stop offset="0" style="stop-color:#0abdc6; stop-opacity:1"/>
    <stop offset="1" style="stop-color:#ea00d9; stop-opacity:1"/>
  </linearGradient>
  <linearGradient id="fitdance" x1="0%" x2="0%" y1="0%" y2="100%">
   <stop offset="0%" style="stop-color:#1AD6AB; stop-opacity:1"/>
   <stop offset="100%" style="stop-color:#329DB6; stop-opacity:1"/>
  </linearGradient>
  <linearGradient id="oomox" x1="0%" x2="0%" y1="0%" y2="100%">
   <stop offset="0%" style="stop-color:#0abdc6; stop-opacity:1"/>
   <stop offset="100%" style="stop-color:#b800ff; stop-opacity:1"/>
  </linearGradient>
  <linearGradient id="rainblue" x1="0%" x2="0%" y1="0%" y2="100%">
   <stop offset="0%" style="stop-color:#00F260; stop-opacity:1"/>
   <stop offset="100%" style="stop-color:#0575E6; stop-opacity:1"/>
  </linearGradient>
  <linearGradient id="sunrise" x1="0%" x2="0%" y1="0%" y2="100%">
   <stop offset="0%" style="stop-color: #FF8501; stop-opacity:1"/>
   <stop offset="100%" style="stop-color: #FFCB01; stop-opacity:1"/>
  </linearGradient>
  <linearGradient id="telinkrin" x1="0%" x2="0%" y1="0%" y2="100%">
   <stop offset="0%" style="stop-color: #b2ced6; stop-opacity:1"/>
   <stop offset="100%" style="stop-color: #6da5b7; stop-opacity:1"/>
  </linearGradient>
  <linearGradient id="60spsycho" x1="0%" x2="0%" y1="0%" y2="100%">
   <stop offset="0%" style="stop-color: #df5940; stop-opacity:1"/>
   <stop offset="25%" style="stop-color: #d8d15f; stop-opacity:1"/>
   <stop offset="50%" style="stop-color: #e9882a; stop-opacity:1"/>
   <stop offset="100%" style="stop-color: #279362; stop-opacity:1"/>
  </linearGradient>
  <linearGradient id="90ssummer" x1="0%" x2="0%" y1="0%" y2="100%">
   <stop offset="0%" style="stop-color: #f618c7; stop-opacity:1"/>
   <stop offset="20%" style="stop-color: #94ffab; stop-opacity:1"/>
   <stop offset="50%" style="stop-color: #fbfd54; stop-opacity:1"/>
   <stop offset="100%" style="stop-color: #0f83ae; stop-opacity:1"/>
  </linearGradient>
 </defs>
  <path
     id="path1886"
     class="ColorScheme-Text"
     style="font-style:normal;font-weight:normal;font-size:67.6707px;line-height:1.25;font-family:'Sturkopf Grotesk';letter-spacing:0px;word-spacing:0px;fill:url(#oomox);fill-opacity:1;stroke:none;stroke-width:1.45009;font-variant:normal;font-stretch:normal;-inkscape-font-specification:'Sturkopf Grotesk';text-align:center;text-anchor:middle"
     d="m 236.41654,123.6475 0.13535,0.27068 v 45.33937 h 5.00763 v -29.70743 l 8.79719,29.70743 h 5.34598 l -0.13534,-0.40602 V 123.6475 h -5.21064 v 29.63977 l -8.72952,-29.63977 z"
     transform="matrix(0.26097085,0,0,0.26097085,-61.697825,-30.246331)" />
  <path
     id="path1888"
     class="ColorScheme-Text"
     style="font-style:normal;font-weight:normal;font-size:67.6707px;line-height:1.25;font-family:'Sturkopf Grotesk';letter-spacing:0px;word-spacing:0px;fill:url(#oomox);fill-opacity:1;stroke:none;stroke-width:1.45009;font-variant:normal;font-stretch:normal;-inkscape-font-specification:'Sturkopf Grotesk';text-align:center;text-anchor:middle"
     d="m 269.64283,169.52824 c 1.35341,0 2.50382,-0.4737 3.45121,-1.35342 1.01506,-0.94739 1.48875,-2.09779 1.48875,-3.4512 v -14.48153 c 0,-1.28575 -0.47369,-2.43615 -1.35341,-3.45121 -0.94739,-0.94739 -2.16546,-1.6241 -3.58655,-2.09779 l -3.65422,-1.1504 c -0.40602,-0.13534 -0.81205,-0.4737 -1.1504,-0.94739 -0.33835,-0.54137 -0.47369,-1.01506 -0.47369,-1.48876 v -10.82731 c 0,-0.4737 0.13534,-0.81205 0.47369,-1.1504 0.33835,-0.33836 0.67671,-0.4737 1.1504,-0.4737 h 1.6241 c 0.47369,0 0.81205,0.13534 1.1504,0.4737 0.33836,0.33835 0.4737,0.6767 0.4737,1.1504 v 3.51888 h 5.00763 v -5.27832 c 0,-1.42108 -0.4737,-2.57148 -1.42109,-3.51887 -1.01506,-0.94739 -2.16546,-1.42109 -3.51887,-1.42109 h -4.93996 c -1.42109,0 -2.57149,0.4737 -3.51888,1.42109 -0.94739,0.94739 -1.42108,2.09779 -1.42108,3.51887 v 14.21085 c 0,1.28574 0.47369,2.50381 1.35341,3.51888 0.94739,1.01506 2.16546,1.69176 3.58655,2.16546 l 3.65421,1.08273 c 0.4737,0.13534 0.81205,0.40602 1.15041,0.87972 0.33835,0.47369 0.47369,0.87972 0.47369,1.35341 v 11.16567 c 0,0.47369 -0.13534,0.87972 -0.47369,1.21807 -0.33836,0.33835 -0.67671,0.47369 -1.15041,0.47369 h -1.62409 c -0.4737,0 -0.81205,-0.13534 -1.1504,-0.47369 -0.33836,-0.33835 -0.4737,-0.74438 -0.4737,-1.21807 v -3.51888 h -5.00763 v 5.34599 c 0,1.35341 0.47369,2.50381 1.42108,3.4512 1.01506,0.87972 2.16547,1.35342 3.51888,1.35342 z"
     transform="matrix(0.26097085,0,0,0.26097085,-61.697825,-30.246331)" />
  <path
     id="path1890"
     class="ColorScheme-Text"
     style="font-style:normal;font-weight:normal;font-size:67.6707px;line-height:1.25;font-family:'Sturkopf Grotesk';letter-spacing:0px;word-spacing:0px;fill:url(#oomox);fill-opacity:1;stroke:none;stroke-width:1.45009;font-variant:normal;font-stretch:normal;-inkscape-font-specification:'Sturkopf Grotesk';text-align:center;text-anchor:middle"
     d="m 278.30458,123.91818 0.13534,45.33937 h 5.14298 v -31.94057 l 4.19558,15.97029 h 0.67671 l 3.99257,-15.97029 v 31.94057 h 5.27831 v -45.33937 h -4.80462 l -4.80462,15.0229 -4.87229,-15.0229 z"
     transform="matrix(0.26097085,0,0,0.26097085,-61.697825,-30.246331)" />
  <metadata
     id="metadata7">
    <rdf:RDF>
      <cc:Work
         rdf:about="">
        <dc:creator>
          <cc:Agent>
            <dc:title>dreifacherspass</dc:title>
          </cc:Agent>
        </dc:creator>
        <cc:license
           rdf:resource="http://creativecommons.org/licenses/by-sa/4.0/" />
      </cc:Work>
      <cc:License
         rdf:about="http://creativecommons.org/licenses/by-sa/4.0/">
        <cc:permits
           rdf:resource="http://creativecommons.org/ns#Reproduction" />
        <cc:permits
           rdf:resource="http://creativecommons.org/ns#Distribution" />
        <cc:requires
           rdf:resource="http://creativecommons.org/ns#Notice" />
        <cc:requires
           rdf:resource="http://creativecommons.org/ns#Attribution" />
        <cc:permits
           rdf:resource="http://creativecommons.org/ns#DerivativeWorks" />
        <cc:requires
           rdf:resource="http://creativecommons.org/ns#ShareAlike" />
      </cc:License>
    </rdf:RDF>
  </metadata>
</svg>
