<?xml version="1.0" encoding="UTF-8" standalone="no"?>
<svg
   width="16"
   height="16"
   viewBox="0 0 4.2333332 4.2333333"
   version="1.1"
   id="svg143"
   xmlns:xlink="http://www.w3.org/1999/xlink"
   xmlns="http://www.w3.org/2000/svg"
   xmlns:svg="http://www.w3.org/2000/svg"
   xmlns:rdf="http://www.w3.org/1999/02/22-rdf-syntax-ns#"
   xmlns:cc="http://creativecommons.org/ns#"
   xmlns:dc="http://purl.org/dc/elements/1.1/">
   <defs>
      <style id="current-color-scheme" type="text/css">
         .ColorScheme-Text { color: #0abdc6; } .ColorScheme-Highlight { color:#5294e2; }
      </style>
      <linearGradient id="arrongin" x1="0%" x2="0%" y1="0%" y2="100%">
         <stop offset="0%" style="stop-color:#dd9b44; stop-opacity:1"/>
         <stop offset="100%" style="stop-color:#ad6c16; stop-opacity:1"/>
      </linearGradient>
      <linearGradient id="aurora" x1="0%" x2="0%" y1="0%" y2="100%">
         <stop offset="0%" style="stop-color:#09D4DF; stop-opacity:1"/>
         <stop offset="100%" style="stop-color:#9269F4; stop-opacity:1"/>
      </linearGradient>
      <linearGradient id="cyberneon" x1="0%" x2="0%" y1="0%" y2="100%">
         <stop offset="0" style="stop-color:#0abdc6; stop-opacity:1"/>
         <stop offset="1" style="stop-color:#ea00d9; stop-opacity:1"/>
      </linearGradient>
      <linearGradient id="fitdance" x1="0%" x2="0%" y1="0%" y2="100%">
         <stop offset="0%" style="stop-color:#1AD6AB; stop-opacity:1"/>
         <stop offset="100%" style="stop-color:#329DB6; stop-opacity:1"/>
      </linearGradient>
      <linearGradient id="oomox" x1="0%" x2="0%" y1="0%" y2="100%">
         <stop offset="0%" style="stop-color:#0abdc6; stop-opacity:1"/>
         <stop offset="100%" style="stop-color:#b800ff; stop-opacity:1"/>
      </linearGradient>
      <linearGradient id="rainblue" x1="0%" x2="0%" y1="0%" y2="100%">
         <stop offset="0%" style="stop-color:#00F260; stop-opacity:1"/>
         <stop offset="100%" style="stop-color:#0575E6; stop-opacity:1"/>
      </linearGradient>
      <linearGradient id="sunrise" x1="0%" x2="0%" y1="0%" y2="100%">
         <stop offset="0%" style="stop-color: #FF8501; stop-opacity:1"/>
         <stop offset="100%" style="stop-color: #FFCB01; stop-opacity:1"/>
      </linearGradient>
      <linearGradient id="telinkrin" x1="0%" x2="0%" y1="0%" y2="100%">
         <stop offset="0%" style="stop-color: #b2ced6; stop-opacity:1"/>
         <stop offset="100%" style="stop-color: #6da5b7; stop-opacity:1"/>
      </linearGradient>
      <linearGradient id="60spsycho" x1="0%" x2="0%" y1="0%" y2="100%">
         <stop offset="0%" style="stop-color: #df5940; stop-opacity:1"/>
         <stop offset="25%" style="stop-color: #d8d15f; stop-opacity:1"/>
         <stop offset="50%" style="stop-color: #e9882a; stop-opacity:1"/>
         <stop offset="100%" style="stop-color: #279362; stop-opacity:1"/>
      </linearGradient>
      <linearGradient id="90ssummer" x1="0%" x2="0%" y1="0%" y2="100%">
         <stop offset="0%" style="stop-color: #f618c7; stop-opacity:1"/>
         <stop offset="20%" style="stop-color: #94ffab; stop-opacity:1"/>
         <stop offset="50%" style="stop-color: #fbfd54; stop-opacity:1"/>
         <stop offset="100%" style="stop-color: #0f83ae; stop-opacity:1"/>
      </linearGradient>
   </defs>
  <metadata
     id="metadata1">
    <rdf:RDF>
      <cc:Work
         rdf:about="">
        <dc:creator>
          <cc:Agent>
            <dc:title>dreifacherspass</dc:title>
          </cc:Agent>
        </dc:creator>
        <cc:license
           rdf:resource="http://creativecommons.org/licenses/by-sa/4.0/" />
      </cc:Work>
      <cc:License
         rdf:about="http://creativecommons.org/licenses/by-sa/4.0/">
        <cc:permits
           rdf:resource="http://creativecommons.org/ns#Reproduction" />
        <cc:permits
           rdf:resource="http://creativecommons.org/ns#Distribution" />
        <cc:requires
           rdf:resource="http://creativecommons.org/ns#Notice" />
        <cc:requires
           rdf:resource="http://creativecommons.org/ns#Attribution" />
        <cc:permits
           rdf:resource="http://creativecommons.org/ns#DerivativeWorks" />
        <cc:requires
           rdf:resource="http://creativecommons.org/ns#ShareAlike" />
      </cc:License>
    </rdf:RDF>
  </metadata>
  <path
     id="path26"
     class="ColorScheme-Text"
     style="display:inline;fill:url(#oomox);stroke:url(#oomox);stroke-width:0.0447653;stroke-linecap:round;stroke-linejoin:round;stroke-dasharray:none"
     d="m 0.03823284,1.0373132 c -0.0087268,3.54e-5 -0.01591773,0.00713 -0.01585029,0.01585 v 2.1270069 c 3.453e-5,0.00865 0.0071978,0.015816 0.01585029,0.01585 H 1.8103978 c 0.00865,-3.46e-5 0.015816,-0.00719 0.01585,-0.01585 V 1.1978613 c 0.00518,0.00408 0.011346,0.00642 0.017895,0.00716 h 0.3885879 v 1.8590858 c 0,0.019632 0.015649,0.035356 0.03528,0.03528 0.01956,-2.57e-5 0.03528,-0.01572 0.03528,-0.03528 V 1.2050195 H 2.762438 v 1.8590858 c -1e-6,0.019561 0.015719,0.035252 0.03528,0.03528 h 0.6360569 c 0.019558,-2.67e-5 0.035278,-0.015721 0.03528,-0.03528 v -1.030269 h 0.7066163 c 0.01954,-2.67e-5 0.035252,-0.015739 0.03528,-0.03528 V 1.1692285 c -2.65e-5,-0.019541 -0.015738,-0.035252 -0.03528,-0.03528 H 3.4337745 2.7977176 2.2680111 1.8441435 c -0.00655,7.42e-4 -0.012711,0.00358 -0.017895,0.00767 v -0.088455 c 6.73e-5,-0.00873 -0.00713,-0.015816 -0.01585,-0.01585 z m 0.01521299,0.0317 H 1.7950588 v 2.0953069 l -1.74148697,9.65e-5 z M 2.8335086,1.2050195 H 3.3984948 V 1.9985567 3.0283144 H 2.8335086 Z m 0.6355455,0 H 4.1403908 V 1.9627657 H 3.4690541 Z" />
  <path
     d="m 0.30656308,1.3404757 c -0.001217,3.752e-4 -0.002569,6.722e-4 -0.003712,0.00124 -0.001162,-1.853e-4 -0.002128,1.3e-5 -0.003299,0 -0.001648,0.00104 -0.003195,0.00231 -0.004538,0.00371 -0.002522,0.00141 -0.004743,0.00315 -0.0066,0.00537 -0.001702,0.00257 -0.003102,0.00524 -0.003712,0.00825 -9.0983e-4,0.00165 -0.001563,0.00354 -0.002062,0.00537 v 1.5274161 c 2.075e-5,0.013133 0.0107916,0.023491 0.023924,0.023513 0.0131764,4.07e-5 0.0239033,-0.010335 0.0239239,-0.023513 V 1.520728 l 0.42980495,1.3780983 c 0.001076,0.00165 0.002265,0.00278 0.003712,0.00413 0.001363,0.00251 0.003204,0.00513 0.005362,0.00703 0.002564,0.0017 0.005645,0.00268 0.008663,0.0033 0.001647,9.046e-4 0.003133,0.00157 0.004949,0.00205 0.001165,-3.831e-4 0.002621,-6.797e-4 0.003712,-0.00124 0.001208,1.803e-4 0.002078,6.9e-6 0.003299,0 0.003442,-0.00114 0.006902,-0.00282 0.009487,-0.00537 2.754e-4,-1.313e-4 5.5453e-4,-2.708e-4 8.2562e-4,-4.126e-4 0.003696,-0.00412 0.005549,-0.00932 0.005774,-0.014849 2.5701e-4,-5.508e-4 6.1048e-4,-0.0011 8.2563e-4,-0.00166 V 1.5578529 L 1.1414241,2.896353 c 5.906e-4,4.002e-4 0.00103,8.959e-4 0.00166,0.00124 0.00211,0.00768 0.00811,0.01358 0.015674,0.016087 0.00207,-8.959e-4 0.00403,-0.00188 0.00578,-0.0033 0.00175,0.00143 0.00368,0.00241 0.00578,0.0033 0.00846,-0.00218 0.014796,-0.00884 0.016911,-0.017324 0,0 4.124e-4,0 4.124e-4,0 l 0.38112,-1.525352 C 1.5719315,1.358256 1.5641815,1.34534 1.5514385,1.34213 1.5386545,1.33889 1.5257745,1.34666 1.5225655,1.359454 L 1.164523,2.7919954 0.80607727,1.3586248 c 0,0 -4.1246e-4,-4.126e-4 -4.1246e-4,-4.126e-4 -0.002663,-0.010322 -0.0120235,-0.017491 -0.0226863,-0.017736 -0.001414,4.31e-4 -0.002815,9.655e-4 -0.004125,0.00166 -5.4518e-4,-3.459e-4 -0.001079,-5.264e-4 -0.00165,-8.199e-4 -5.1245e-4,7.184e-4 -8.0755e-4,0.00129 -0.001238,0.00205 -0.009317,0.00294 -0.0157906,0.011295 -0.0164993,0.021036 V 2.7350789 L 0.32924957,1.3573932 c -1.3457e-4,-1.507e-4 -2.7405e-4,-6.777e-4 -4.1249e-4,-8.201e-4 -0.00191,-0.00535 -0.005807,-0.00955 -0.0107245,-0.012375 -4.1666e-4,-2.892e-4 -8.0673e-4,-5.653e-4 -0.001238,-8.199e-4 -0.003251,-0.00175 -0.006627,-0.00277 -0.010312,-0.00289 z"
     style="display:inline;fill:url(#oomox);stroke:url(#oomox);stroke-width:0.0361135;stroke-linecap:round;stroke-linejoin:round;stroke-dasharray:none"
     id="path28"
     class="ColorScheme-Text"/>
</svg>
