<?xml version="1.0" encoding="UTF-8" standalone="no"?>

<svg
   version="1.1"
   id="_x32_"
   viewBox="0 0 16 16"
   xml:space="preserve"
   width="16"
   height="16"
   xmlns:xlink="http://www.w3.org/1999/xlink"
   xmlns="http://www.w3.org/2000/svg"
   xmlns:svg="http://www.w3.org/2000/svg"
   xmlns:rdf="http://www.w3.org/1999/02/22-rdf-syntax-ns#"
   xmlns:cc="http://creativecommons.org/ns#"
   xmlns:dc="http://purl.org/dc/elements/1.1/">
  <defs>
   <style id="current-color-scheme" type="text/css">
   .ColorScheme-Text { color: #0abdc6; } .ColorScheme-Highlight { color:#5294e2; }
  </style>
  <linearGradient id="arrongin" x1="0%" x2="0%" y1="0%" y2="100%">
   <stop offset="0%" style="stop-color:#dd9b44; stop-opacity:1"/>
   <stop offset="100%" style="stop-color:#ad6c16; stop-opacity:1"/>
  </linearGradient>
  <linearGradient id="aurora" x1="0%" x2="0%" y1="0%" y2="100%">
   <stop offset="0%" style="stop-color:#09D4DF; stop-opacity:1"/>
   <stop offset="100%" style="stop-color:#9269F4; stop-opacity:1"/>
  </linearGradient>
  <linearGradient id="cyberneon" x1="0%" x2="0%" y1="0%" y2="100%">
    <stop offset="0" style="stop-color:#0abdc6; stop-opacity:1"/>
    <stop offset="1" style="stop-color:#ea00d9; stop-opacity:1"/>
  </linearGradient>
  <linearGradient id="fitdance" x1="0%" x2="0%" y1="0%" y2="100%">
   <stop offset="0%" style="stop-color:#1AD6AB; stop-opacity:1"/>
   <stop offset="100%" style="stop-color:#329DB6; stop-opacity:1"/>
  </linearGradient>
  <linearGradient id="oomox" x1="0%" x2="0%" y1="0%" y2="100%">
   <stop offset="0%" style="stop-color:#0abdc6; stop-opacity:1"/>
   <stop offset="100%" style="stop-color:#b800ff; stop-opacity:1"/>
  </linearGradient>
  <linearGradient id="rainblue" x1="0%" x2="0%" y1="0%" y2="100%">
   <stop offset="0%" style="stop-color:#00F260; stop-opacity:1"/>
   <stop offset="100%" style="stop-color:#0575E6; stop-opacity:1"/>
  </linearGradient>
  <linearGradient id="sunrise" x1="0%" x2="0%" y1="0%" y2="100%">
   <stop offset="0%" style="stop-color: #FF8501; stop-opacity:1"/>
   <stop offset="100%" style="stop-color: #FFCB01; stop-opacity:1"/>
  </linearGradient>
  <linearGradient id="telinkrin" x1="0%" x2="0%" y1="0%" y2="100%">
   <stop offset="0%" style="stop-color: #b2ced6; stop-opacity:1"/>
   <stop offset="100%" style="stop-color: #6da5b7; stop-opacity:1"/>
  </linearGradient>
  <linearGradient id="60spsycho" x1="0%" x2="0%" y1="0%" y2="100%">
   <stop offset="0%" style="stop-color: #df5940; stop-opacity:1"/>
   <stop offset="25%" style="stop-color: #d8d15f; stop-opacity:1"/>
   <stop offset="50%" style="stop-color: #e9882a; stop-opacity:1"/>
   <stop offset="100%" style="stop-color: #279362; stop-opacity:1"/>
  </linearGradient>
  <linearGradient id="90ssummer" x1="0%" x2="0%" y1="0%" y2="100%">
   <stop offset="0%" style="stop-color: #f618c7; stop-opacity:1"/>
   <stop offset="20%" style="stop-color: #94ffab; stop-opacity:1"/>
   <stop offset="50%" style="stop-color: #fbfd54; stop-opacity:1"/>
   <stop offset="100%" style="stop-color: #0f83ae; stop-opacity:1"/>
  </linearGradient>
 </defs>
<path
   class="ColorScheme-Text"
   d="M 5.2285625,0.46853125 C 5.2285625,0.20975 5.0188437,0 4.760375,0 H 4.5880625 C 4.329625,0 4.119875,0.20975 4.119875,0.46853125 V 1.7643437 h 1.1086875 z"
   id="path1"
   style="fill:url(#oomox);stroke:none;stroke-width:0.0312501" /><path
   class="ColorScheme-Text"
   d="M 7.4456562,0.46853125 C 7.4456562,0.20975 7.2359062,0 6.9774687,0 H 6.8055 C 6.5470312,0 6.3373125,0.20975 6.3373125,0.46853125 V 1.7643437 h 1.108375 V 0.46853125 Z"
   id="path2"
   style="fill:url(#oomox);stroke:none;stroke-width:0.0312501" /><path
   class="ColorScheme-Text"
   d="M 9.6627188,0.46853125 C 9.6627188,0.20975 9.453,0 9.1945313,0 h -0.172 C 8.7640938,0 8.5543438,0.20975 8.5543438,0.46853125 V 1.7643437 h 1.108375 z"
   id="path3"
   style="fill:url(#oomox);stroke:none;stroke-width:0.0312501" /><path
   class="ColorScheme-Text"
   d="M 11.880125,0.46853125 C 11.880125,0.20975 11.670406,0 11.411938,0 H 11.239625 C 10.981156,0 10.771438,0.20975 10.771438,0.46853125 V 1.7643437 h 1.108687 z"
   id="path4"
   style="fill:url(#oomox);stroke:none;stroke-width:0.0312501" /><path
   class="ColorScheme-Text"
   d="M 4.119875,15.531469 C 4.119875,15.790281 4.3295938,16 4.5880625,16 H 4.760375 c 0.2584687,0 0.4681875,-0.209719 0.4681875,-0.468531 V 14.235938 H 4.119875 Z"
   id="path5"
   style="fill:url(#oomox);stroke:none;stroke-width:0.0312501" /><path
   class="ColorScheme-Text"
   d="M 6.3372812,15.531469 C 6.3372812,15.790281 6.5470312,16 6.8054687,16 H 6.9774375 C 7.235875,16 7.445625,15.790281 7.445625,15.531469 V 14.235938 H 6.33725 v 1.295531 z"
   id="path6"
   style="fill:url(#oomox);stroke:none;stroke-width:0.0312501" /><path
   class="ColorScheme-Text"
   d="M 8.5543437,15.531469 C 8.5543437,15.790281 8.7640937,16 9.0225313,16 h 0.172 c 0.2585,0 0.4681875,-0.209719 0.4681875,-0.468531 V 14.235938 H 8.5543437 Z"
   id="path7"
   style="fill:url(#oomox);stroke:none;stroke-width:0.0312501" /><path
   class="ColorScheme-Text"
   d="m 10.771437,15.531469 c 0,0.258812 0.20975,0.468531 0.468188,0.468531 h 0.172313 c 0.258437,0 0.468187,-0.209719 0.468187,-0.468531 v -1.295531 h -1.108688 z"
   id="path8"
   style="fill:url(#oomox);stroke:none;stroke-width:0.0312501" /><path
   class="ColorScheme-Text"
   d="M 15.531812,4.119875 H 14.236 v 1.1087187 h 1.295812 C 15.790312,5.2285937 16,5.0188437 16,4.7600625 V 4.5884062 C 16,4.329625 15.790281,4.119875 15.531812,4.119875 Z"
   id="path9"
   style="fill:url(#oomox);stroke:none;stroke-width:0.0312501" /><path
   class="ColorScheme-Text"
   d="M 15.531812,6.3372812 H 14.236 v 1.1083751 h 1.295812 C 15.790312,7.4456562 16,7.2359062 16,6.9774687 V 6.8057812 c 0,-0.2587812 -0.209719,-0.4685 -0.468188,-0.4685 z"
   id="path10"
   style="fill:url(#oomox);stroke:none;stroke-width:0.0312501" /><path
   class="ColorScheme-Text"
   d="M 15.531812,8.5543437 H 14.236 v 1.1083751 h 1.295812 C 15.790312,9.6627188 16,9.453 16,9.1942187 V 9.0225313 C 16,8.7640938 15.790281,8.5543438 15.531812,8.5543437 Z"
   id="path11"
   style="fill:url(#oomox);stroke:none;stroke-width:0.0312501" /><path
   class="ColorScheme-Text"
   d="M 15.531812,10.771437 H 14.236 v 1.108719 h 1.295812 c 0.2585,0 0.468188,-0.20975 0.468188,-0.468531 v -0.171656 c 0,-0.258781 -0.209719,-0.468531 -0.468188,-0.468532 z"
   id="path12"
   style="fill:url(#oomox);stroke:none;stroke-width:0.0312501" /><path
   class="ColorScheme-Text"
   d="M 0,4.588375 V 4.7600312 C 0,5.0188125 0.20975,5.2285625 0.4681875,5.2285625 H 1.764375 V 4.1198437 H 0.4681875 C 0.20975,4.119875 0,4.329625 0,4.588375 Z"
   id="path13"
   style="fill:url(#oomox);stroke:none;stroke-width:0.0312501" /><path
   class="ColorScheme-Text"
   d="M 0,6.8057812 V 6.9774687 C 0,7.2359062 0.20975,7.4456562 0.4681875,7.4456562 H 1.764375 V 6.3372812 H 0.4681875 C 0.20975,6.3372812 0,6.547 0,6.8057812 Z"
   id="path14"
   style="fill:url(#oomox);stroke:none;stroke-width:0.0312501" /><path
   class="ColorScheme-Text"
   d="m 0,9.0225313 v 0.1716875 c 0,0.2587812 0.20975,0.4685 0.4681875,0.4685 H 1.764375 V 8.5543437 H 0.4681875 C 0.20975,8.5543437 0,8.7640938 0,9.0225313 Z"
   id="path15"
   style="fill:url(#oomox);stroke:none;stroke-width:0.0312501" /><path
   class="ColorScheme-Text"
   d="m 0,11.239969 v 0.171656 c 0,0.258781 0.20975,0.468531 0.4681875,0.468531 H 1.764375 V 10.771437 H 0.4681875 C 0.20975,10.771437 0,10.981188 0,11.239969 Z"
   id="path16"
   style="fill:url(#oomox);stroke:none;stroke-width:0.0312501" /><path
   class="ColorScheme-Text"
   d="M 2.457125,13.543188 H 13.543188 V 2.457125 H 2.457125 Z M 4.3620625,4.361875 h 7.2762185 v 7.27625 H 4.3620625 Z"
   id="path17"
   style="fill:url(#oomox);stroke:none;stroke-width:0.0312501" /><rect
   x="5.7613125"
   y="5.7613125"
   class="ColorScheme-Text"
   width="4.4777498"
   height="4.4777188"
   id="rect17"
   style="fill:url(#oomox);stroke:none;stroke-width:0.0312501" />
<metadata
   id="metadata17"><rdf:RDF><cc:Work
       rdf:about=""><dc:creator><cc:Agent><dc:title>dreifacherspass</dc:title></cc:Agent></dc:creator><cc:license
         rdf:resource="http://creativecommons.org/licenses/by-sa/4.0/" /></cc:Work><cc:License
       rdf:about="http://creativecommons.org/licenses/by-sa/4.0/"><cc:permits
         rdf:resource="http://creativecommons.org/ns#Reproduction" /><cc:permits
         rdf:resource="http://creativecommons.org/ns#Distribution" /><cc:requires
         rdf:resource="http://creativecommons.org/ns#Notice" /><cc:requires
         rdf:resource="http://creativecommons.org/ns#Attribution" /><cc:permits
         rdf:resource="http://creativecommons.org/ns#DerivativeWorks" /><cc:requires
         rdf:resource="http://creativecommons.org/ns#ShareAlike" /></cc:License></rdf:RDF></metadata></svg>
