<?xml version="1.0" encoding="UTF-8" standalone="no"?>
<!-- Created with Inkscape (http://www.inkscape.org/) -->

<svg
   width="16"
   height="16"
   id="svg2"
   version="1.0"
   xmlns:xlink="http://www.w3.org/1999/xlink"
   xmlns="http://www.w3.org/2000/svg"
   xmlns:svg="http://www.w3.org/2000/svg"
   xmlns:rdf="http://www.w3.org/1999/02/22-rdf-syntax-ns#"
   xmlns:cc="http://creativecommons.org/ns#"
   xmlns:dc="http://purl.org/dc/elements/1.1/">
   <defs>
      <style id="current-color-scheme" type="text/css">
         .ColorScheme-Text { color: #0abdc6; } .ColorScheme-Highlight { color:#5294e2; }
      </style>
      <linearGradient id="arrongin" x1="0%" x2="0%" y1="0%" y2="100%">
         <stop offset="0%" style="stop-color:#dd9b44; stop-opacity:1"/>
         <stop offset="100%" style="stop-color:#ad6c16; stop-opacity:1"/>
      </linearGradient>
      <linearGradient id="aurora" x1="0%" x2="0%" y1="0%" y2="100%">
         <stop offset="0%" style="stop-color:#09D4DF; stop-opacity:1"/>
         <stop offset="100%" style="stop-color:#9269F4; stop-opacity:1"/>
      </linearGradient>
      <linearGradient id="cyberneon" x1="0%" x2="0%" y1="0%" y2="100%">
         <stop offset="0" style="stop-color:#0abdc6; stop-opacity:1"/>
         <stop offset="1" style="stop-color:#ea00d9; stop-opacity:1"/>
      </linearGradient>
      <linearGradient id="fitdance" x1="0%" x2="0%" y1="0%" y2="100%">
         <stop offset="0%" style="stop-color:#1AD6AB; stop-opacity:1"/>
         <stop offset="100%" style="stop-color:#329DB6; stop-opacity:1"/>
      </linearGradient>
      <linearGradient id="oomox" x1="0%" x2="0%" y1="0%" y2="100%">
         <stop offset="0%" style="stop-color:#0abdc6; stop-opacity:1"/>
         <stop offset="100%" style="stop-color:#b800ff; stop-opacity:1"/>
      </linearGradient>
      <linearGradient id="rainblue" x1="0%" x2="0%" y1="0%" y2="100%">
         <stop offset="0%" style="stop-color:#00F260; stop-opacity:1"/>
         <stop offset="100%" style="stop-color:#0575E6; stop-opacity:1"/>
      </linearGradient>
      <linearGradient id="sunrise" x1="0%" x2="0%" y1="0%" y2="100%">
         <stop offset="0%" style="stop-color: #FF8501; stop-opacity:1"/>
         <stop offset="100%" style="stop-color: #FFCB01; stop-opacity:1"/>
      </linearGradient>
      <linearGradient id="telinkrin" x1="0%" x2="0%" y1="0%" y2="100%">
         <stop offset="0%" style="stop-color: #b2ced6; stop-opacity:1"/>
         <stop offset="100%" style="stop-color: #6da5b7; stop-opacity:1"/>
      </linearGradient>
      <linearGradient id="60spsycho" x1="0%" x2="0%" y1="0%" y2="100%">
         <stop offset="0%" style="stop-color: #df5940; stop-opacity:1"/>
         <stop offset="25%" style="stop-color: #d8d15f; stop-opacity:1"/>
         <stop offset="50%" style="stop-color: #e9882a; stop-opacity:1"/>
         <stop offset="100%" style="stop-color: #279362; stop-opacity:1"/>
      </linearGradient>
      <linearGradient id="90ssummer" x1="0%" x2="0%" y1="0%" y2="100%">
         <stop offset="0%" style="stop-color: #f618c7; stop-opacity:1"/>
         <stop offset="20%" style="stop-color: #94ffab; stop-opacity:1"/>
         <stop offset="50%" style="stop-color: #fbfd54; stop-opacity:1"/>
         <stop offset="100%" style="stop-color: #0f83ae; stop-opacity:1"/>
      </linearGradient>
   </defs>
  <rect
     y="3.0232918"
     x="-0.41291723"
     height="13.0281"
     width="10.205794"
     id="rect3245"
     class="ColorScheme-Text"
     style="display:inline;opacity:1;fill:none;fill-opacity:1;stroke:url(#oomox);stroke-width:0.753261;stroke-linecap:round;stroke-linejoin:round;stroke-miterlimit:4;stroke-dasharray:none;stroke-opacity:1"
     transform="matrix(0.9652703,-0.26125323,0.2564042,0.96656965,0,0)" />
  <path
     id="path6210"
     class="ColorScheme-Text"
     d="M 7.0205303,1.6046799 C 6.3813894,1.7905347 6.2985582,1.8023493 5.592626,2.0076258 5.1204013,2.6176515 4.7521757,3.3317977 4.5209888,4.1161496 4.1640136,5.3272582 4.245824,6.2413377 4.7724588,6.8602214 5.299089,7.4790963 6.1903653,7.7077301 7.4434221,7.5486119 8.7605213,7.3813566 9.8950277,6.9014156 10.846648,6.1046176 10.992215,5.9827302 11.131627,5.8536928 11.263494,5.7213939 11.164772,5.3650441 11.098332,5.0813701 10.952019,4.5532348 10.674789,5.0921865 10.339756,5.5879001 9.9512026,5.982406 9.2637863,6.6803381 8.4693041,7.0854303 7.5645544,7.2003147 6.703827,7.3096128 6.1191879,7.0756997 5.8117624,6.4975623 5.5093338,5.9155237 5.5235707,5.0644696 5.8545335,3.941564 6.1259329,3.0207761 6.513563,2.2410991 7.0205205,1.6046799 Z"
     style="display:inline;fill:url(#oomox);fill-opacity:1;stroke-width:0.753256" />
  <ellipse
     style="opacity:0.2;fill:url(#oomox);stroke-width:30.0608"
     id="path27"
     class="ColorScheme-Text"
     cx="6.5107369"
     cy="11.051502"
     rx="2.2166929"
     ry="2.2384944" />
  <ellipse
     style="opacity:0.2;fill:url(#oomox);stroke-width:30.0608"
     id="path27-7"
     class="ColorScheme-Text"
     cx="12.913817"
     cy="9.1960888"
     rx="2.2166929"
     ry="2.2384944" />
  <metadata
     id="metadata340">
    <rdf:RDF>
      <cc:Work
         rdf:about="">
        <cc:license
           rdf:resource="http://creativecommons.org/licenses/by-sa/4.0/" />
        <dc:contributor>
          <cc:Agent>
            <dc:title>dreifacherspass</dc:title>
          </cc:Agent>
        </dc:contributor>
      </cc:Work>
      <cc:License
         rdf:about="http://creativecommons.org/licenses/by-sa/4.0/">
        <cc:permits
           rdf:resource="http://creativecommons.org/ns#Reproduction" />
        <cc:permits
           rdf:resource="http://creativecommons.org/ns#Distribution" />
        <cc:requires
           rdf:resource="http://creativecommons.org/ns#Notice" />
        <cc:requires
           rdf:resource="http://creativecommons.org/ns#Attribution" />
        <cc:permits
           rdf:resource="http://creativecommons.org/ns#DerivativeWorks" />
        <cc:requires
           rdf:resource="http://creativecommons.org/ns#ShareAlike" />
      </cc:License>
    </rdf:RDF>
  </metadata>
  <path
     d="m 15.40245,8.2721584 -0.122307,0.032761 C 14.792768,7.0666771 13.456105,6.3634376 12.149108,6.7135623 10.934507,7.0389353 10.145396,8.1670075 10.186707,9.3834312 L 9.5205836,9.2315889 c -0.067202,-0.015159 -0.1381097,0.00384 -0.1890151,0.050636 L 8.8275648,9.7475263 C 8.2667531,8.6702671 7.0273121,8.0856129 5.8127116,8.4109862 4.5053296,8.7612134 3.6900886,10.041331 3.8740961,11.360429 l -0.1223036,0.03276 c -0.1694613,0.0454 -0.2703067,0.220772 -0.2253529,0.3919 0.044852,0.170742 0.2185194,0.272578 0.3879807,0.227182 l 0.1223036,-0.03277 c 0.4877596,1.238144 1.824038,1.941481 3.1314202,1.591253 1.4108994,-0.377959 2.2515679,-1.839345 1.8771874,-3.264513 -0.012611,-0.04802 -0.029592,-0.09361 -0.04469,-0.140532 L 9.5350187,9.672385 10.241297,9.8333621 c 0.0095,0.04801 0.01757,0.096418 0.03018,0.1444179 0.374276,1.424775 1.821819,2.273607 3.232716,1.895649 1.307001,-0.350127 2.122343,-1.62985 1.938234,-2.949338 L 15.56473,8.891327 C 15.734192,8.8459336 15.835039,8.6705605 15.790085,8.4994318 15.745137,8.3283051 15.571469,8.226469 15.402009,8.2718644 Z M 7.0597267,13.158047 C 5.8761813,13.4751 4.6580903,12.760822 4.3441232,11.565632 4.0301573,10.370445 4.7374829,9.1403732 5.9210283,8.8233195 7.1045734,8.5062653 8.3226653,9.2205486 8.6366311,10.415734 8.9505983,11.610923 8.2432718,12.840994 7.0597267,13.158047 Z M 13.395738,11.460726 C 12.212197,11.777778 10.994104,11.0635 10.680136,9.8683094 10.366171,8.6731238 11.073601,7.4434379 12.257142,7.1263865 c 1.183548,-0.3170555 2.401635,0.3972279 2.7155,1.5920265 0.313865,1.1947976 -0.393355,2.42526 -1.576904,2.742313 z"
     id="path1"
     class="ColorScheme-Text"
     style="fill:url(#oomox);stroke:url(#oomox);stroke-width:0.399;stroke-dasharray:none" />
</svg>
