<?xml version="1.0" encoding="UTF-8" standalone="no"?>
<!-- Created with Inkscape (http://www.inkscape.org/) -->

<svg
   width="16"
   height="16"
   id="svg2"
   version="1.0"
   xmlns="http://www.w3.org/2000/svg"
   xmlns:svg="http://www.w3.org/2000/svg"
   xmlns:rdf="http://www.w3.org/1999/02/22-rdf-syntax-ns#"
   xmlns:cc="http://creativecommons.org/ns#"
   xmlns:dc="http://purl.org/dc/elements/1.1/">
  <defs>
   <style id="current-color-scheme" type="text/css">
   .ColorScheme-Text { color: #0abdc6; } .ColorScheme-Highlight { color:#5294e2; }
  </style>
  <linearGradient id="arrongin" x1="0%" x2="0%" y1="0%" y2="100%">
   <stop offset="0%" style="stop-color:#dd9b44; stop-opacity:1"/>
   <stop offset="100%" style="stop-color:#ad6c16; stop-opacity:1"/>
  </linearGradient>
  <linearGradient id="aurora" x1="0%" x2="0%" y1="0%" y2="100%">
   <stop offset="0%" style="stop-color:#09D4DF; stop-opacity:1"/>
   <stop offset="100%" style="stop-color:#9269F4; stop-opacity:1"/>
  </linearGradient>
  <linearGradient id="cyberneon" x1="0%" x2="0%" y1="0%" y2="100%">
    <stop offset="0" style="stop-color:#0abdc6; stop-opacity:1"/>
    <stop offset="1" style="stop-color:#ea00d9; stop-opacity:1"/>
  </linearGradient>
  <linearGradient id="fitdance" x1="0%" x2="0%" y1="0%" y2="100%">
   <stop offset="0%" style="stop-color:#1AD6AB; stop-opacity:1"/>
   <stop offset="100%" style="stop-color:#329DB6; stop-opacity:1"/>
  </linearGradient>
  <linearGradient id="oomox" x1="0%" x2="0%" y1="0%" y2="100%">
   <stop offset="0%" style="stop-color:#0abdc6; stop-opacity:1"/>
   <stop offset="100%" style="stop-color:#b800ff; stop-opacity:1"/>
  </linearGradient>
  <linearGradient id="rainblue" x1="0%" x2="0%" y1="0%" y2="100%">
   <stop offset="0%" style="stop-color:#00F260; stop-opacity:1"/>
   <stop offset="100%" style="stop-color:#0575E6; stop-opacity:1"/>
  </linearGradient>
  <linearGradient id="sunrise" x1="0%" x2="0%" y1="0%" y2="100%">
   <stop offset="0%" style="stop-color: #FF8501; stop-opacity:1"/>
   <stop offset="100%" style="stop-color: #FFCB01; stop-opacity:1"/>
  </linearGradient>
  <linearGradient id="telinkrin" x1="0%" x2="0%" y1="0%" y2="100%">
   <stop offset="0%" style="stop-color: #b2ced6; stop-opacity:1"/>
   <stop offset="100%" style="stop-color: #6da5b7; stop-opacity:1"/>
  </linearGradient>
  <linearGradient id="60spsycho" x1="0%" x2="0%" y1="0%" y2="100%">
   <stop offset="0%" style="stop-color: #df5940; stop-opacity:1"/>
   <stop offset="25%" style="stop-color: #d8d15f; stop-opacity:1"/>
   <stop offset="50%" style="stop-color: #e9882a; stop-opacity:1"/>
   <stop offset="100%" style="stop-color: #279362; stop-opacity:1"/>
  </linearGradient>
  <linearGradient id="90ssummer" x1="0%" x2="0%" y1="0%" y2="100%">
   <stop offset="0%" style="stop-color: #f618c7; stop-opacity:1"/>
   <stop offset="20%" style="stop-color: #94ffab; stop-opacity:1"/>
   <stop offset="50%" style="stop-color: #fbfd54; stop-opacity:1"/>
   <stop offset="100%" style="stop-color: #0f83ae; stop-opacity:1"/>
  </linearGradient>
 </defs>
  <rect
     y="9.4550714"
     x="-0.8751812"
     height="37.933479"
     width="29.968805"
     id="rect3245"
     class="ColorScheme-Text"
     style="display:inline;opacity:1;fill:none;fill-opacity:1;stroke:url(#oomox);stroke-width:2.20256;stroke-linecap:round;stroke-linejoin:round;stroke-miterlimit:4;stroke-dasharray:none;stroke-opacity:1"
     transform="matrix(0.33162525,-0.08888118,0.08883923,0.33163649,-0.1716676,-0.1845748)" />
  <path
     id="path6210"
     class="ColorScheme-Text"
     d="m 21.123694,5.2119729 c -1.878048,0.5407959 -2.121439,0.5751737 -4.195746,1.1724822 -1.387583,1.7750385 -2.469575,3.8530439 -3.148893,6.1353329 -1.048934,3.524055 -0.808543,6.183822 0.738918,7.984635 1.547447,1.800788 4.166369,2.466062 7.848344,2.003064 3.870157,-0.486676 7.203785,-1.883198 10.000024,-4.201702 0.427731,-0.354665 0.837374,-0.730135 1.224857,-1.115095 -0.290088,-1.036898 -0.485311,-1.862326 -0.915237,-3.399082 -0.814615,1.568229 -1.799074,3.010645 -2.940797,4.158569 -2.019899,2.030826 -4.354401,3.209553 -7.012913,3.543841 -2.529156,0.318035 -4.247057,-0.362602 -5.150394,-2.044852 -0.888655,-1.693602 -0.846821,-4.169979 0.125678,-7.437383 0.797479,-2.6792871 1.936489,-4.9479727 3.42613,-6.7998101 z"
     style="display:inline;fill:url(#oomox);fill-opacity:1;stroke-width:2.20256"
     transform="matrix(0.34332954,0,0,0.34332954,-0.1716676,-0.1845748)" />
  <path
     id="path2949"
     d="m 10.845619,14.632063 c 1.551568,0.568324 3.29451,0.328548 5.797214,1.19957 m -16.28566659,0 C 3.0165226,14.906092 4.5482788,15.159019 6.1535727,14.611233"
     style="display:inline;fill:none;fill-rule:evenodd;stroke:#000000;stroke-width:1px;stroke-linecap:round;stroke-linejoin:round;stroke-opacity:1"
     transform="matrix(0.7562069,0,0,0.7562069,3.0012956,0.41058242)" />
  <path
     id="path2304"
     class="ColorScheme-Text"
     style="fill:#000000;fill-opacity:0.2;stroke:url(#oomox);stroke-width:1;stroke-linecap:butt;stroke-linejoin:miter;stroke-miterlimit:4;stroke-opacity:1"
     d="m 7.4999965,12.730297 c 0,1.141998 -0.7375135,2.068837 -3.4999878,2.068837 -2.8375717,0 -3.4999878,-0.926839 -3.4999878,-2.068837 0,-1.141998 0.0153366,-2.068839 3.4999878,-2.068839 3.5430027,0 3.4999878,0.926841 3.4999878,2.068839 z m 2.0000034,-0.921014 c -0.5988477,-0.553975 -1.4262925,-0.52614 -2,0.06728 m 8.9999961,0.853734 c 0,1.141998 -0.737516,2.068836 -3.499998,2.068836 -2.837581,0 -3.4999984,-0.926838 -3.4999984,-2.068836 0,-1.141998 0.015337,-2.068839 3.4999984,-2.068839 3.543013,0 3.499998,0.926841 3.499998,2.068839 z"
     transform="matrix(0.7562069,0,0,0.7562069,3.0012956,0.41058242)" />
  <metadata
     id="metadata340">
    <rdf:RDF>
      <cc:Work
         rdf:about="">
        <cc:license
           rdf:resource="http://creativecommons.org/licenses/by-sa/4.0/" />
        <dc:contributor>
          <cc:Agent>
            <dc:title>dreifacherspass</dc:title>
          </cc:Agent>
        </dc:contributor>
      </cc:Work>
      <cc:License
         rdf:about="http://creativecommons.org/licenses/by-sa/4.0/">
        <cc:permits
           rdf:resource="http://creativecommons.org/ns#Reproduction" />
        <cc:permits
           rdf:resource="http://creativecommons.org/ns#Distribution" />
        <cc:requires
           rdf:resource="http://creativecommons.org/ns#Notice" />
        <cc:requires
           rdf:resource="http://creativecommons.org/ns#Attribution" />
        <cc:permits
           rdf:resource="http://creativecommons.org/ns#DerivativeWorks" />
        <cc:requires
           rdf:resource="http://creativecommons.org/ns#ShareAlike" />
      </cc:License>
    </rdf:RDF>
  </metadata>
</svg>
