<?xml version="1.0" encoding="UTF-8" standalone="no"?>
<svg
   width="16"
   height="16"
   viewBox="0 0 16 16"
   version="1.1"
   id="only_office"
   xmlns:xlink="http://www.w3.org/1999/xlink"
   xmlns="http://www.w3.org/2000/svg"
   xmlns:svg="http://www.w3.org/2000/svg"
   xmlns:rdf="http://www.w3.org/1999/02/22-rdf-syntax-ns#"
   xmlns:cc="http://creativecommons.org/ns#"
   xmlns:dc="http://purl.org/dc/elements/1.1/">
   <defs>
   <style id="current-color-scheme" type="text/css">
   .ColorScheme-Text { color: #0abdc6; } .ColorScheme-Highlight { color:#5294e2; }
  </style>
  <linearGradient id="arrongin" x1="0%" x2="0%" y1="0%" y2="100%">
   <stop offset="0%" style="stop-color:#dd9b44; stop-opacity:1"/>
   <stop offset="100%" style="stop-color:#ad6c16; stop-opacity:1"/>
  </linearGradient>
  <linearGradient id="aurora" x1="0%" x2="0%" y1="0%" y2="100%">
   <stop offset="0%" style="stop-color:#09D4DF; stop-opacity:1"/>
   <stop offset="100%" style="stop-color:#9269F4; stop-opacity:1"/>
  </linearGradient>
  <linearGradient id="cyberneon" x1="0%" x2="0%" y1="0%" y2="100%">
    <stop offset="0" style="stop-color:#0abdc6; stop-opacity:1"/>
    <stop offset="1" style="stop-color:#ea00d9; stop-opacity:1"/>
  </linearGradient>
  <linearGradient id="fitdance" x1="0%" x2="0%" y1="0%" y2="100%">
   <stop offset="0%" style="stop-color:#1AD6AB; stop-opacity:1"/>
   <stop offset="100%" style="stop-color:#329DB6; stop-opacity:1"/>
  </linearGradient>
  <linearGradient id="oomox" x1="0%" x2="0%" y1="0%" y2="100%">
   <stop offset="0%" style="stop-color:#0abdc6; stop-opacity:1"/>
   <stop offset="100%" style="stop-color:#b800ff; stop-opacity:1"/>
  </linearGradient>
  <linearGradient id="rainblue" x1="0%" x2="0%" y1="0%" y2="100%">
   <stop offset="0%" style="stop-color:#00F260; stop-opacity:1"/>
   <stop offset="100%" style="stop-color:#0575E6; stop-opacity:1"/>
  </linearGradient>
  <linearGradient id="sunrise" x1="0%" x2="0%" y1="0%" y2="100%">
   <stop offset="0%" style="stop-color: #FF8501; stop-opacity:1"/>
   <stop offset="100%" style="stop-color: #FFCB01; stop-opacity:1"/>
  </linearGradient>
  <linearGradient id="telinkrin" x1="0%" x2="0%" y1="0%" y2="100%">
   <stop offset="0%" style="stop-color: #b2ced6; stop-opacity:1"/>
   <stop offset="100%" style="stop-color: #6da5b7; stop-opacity:1"/>
  </linearGradient>
  <linearGradient id="60spsycho" x1="0%" x2="0%" y1="0%" y2="100%">
   <stop offset="0%" style="stop-color: #df5940; stop-opacity:1"/>
   <stop offset="25%" style="stop-color: #d8d15f; stop-opacity:1"/>
   <stop offset="50%" style="stop-color: #e9882a; stop-opacity:1"/>
   <stop offset="100%" style="stop-color: #279362; stop-opacity:1"/>
  </linearGradient>
  <linearGradient id="90ssummer" x1="0%" x2="0%" y1="0%" y2="100%">
   <stop offset="0%" style="stop-color: #f618c7; stop-opacity:1"/>
   <stop offset="20%" style="stop-color: #94ffab; stop-opacity:1"/>
   <stop offset="50%" style="stop-color: #fbfd54; stop-opacity:1"/>
   <stop offset="100%" style="stop-color: #0f83ae; stop-opacity:1"/>
  </linearGradient>
 </defs>
  <path
     fill-rule="evenodd"
     clip-rule="evenodd"
     d="M 7.0007554,15.153547 0.42041047,12.132716 c -0.56054729,-0.263734 -0.56054729,-0.671313 0,-0.911048 L 2.711342,10.166754 6.9763776,12.132716 c 0.5605573,0.263711 1.4623156,0.263711 1.9984951,0 l 4.2650353,-1.965962 2.290941,1.054914 c 0.560534,0.263712 0.560534,0.671291 0,0.911048 l -6.5803542,3.020831 c -0.5118016,0.239735 -1.4135599,0.239735 -1.9497394,0 z"
     id="path1"
     class="ColorScheme-Text"
     style="fill:url(#oomox);stroke-width:0.222223;stroke:none" />
  <path
     fill-rule="evenodd"
     clip-rule="evenodd"
     d="M 7.0007554,11.437402 0.42041047,8.4165485 c -0.56054729,-0.263712 -0.56054729,-0.671291 0,-0.9110473 L 2.6626085,6.4745868 7.0007554,8.4645042 c 0.5605573,0.2637118 1.4622934,0.2637118 1.9984729,0 l 4.3381687,-1.9899174 2.242185,1.0309144 c 0.560557,0.2637341 0.560557,0.6713132 0,0.9110473 L 8.9992283,11.437402 c -0.5605351,0.263712 -1.4622934,0.263712 -1.9984729,0 z"
     id="path2"
     class="ColorScheme-Text"
     style="fill:url(#oomox);stroke-width:0.222223;stroke:none" />
  <path
     fill-rule="evenodd"
     clip-rule="evenodd"
     d="M 7.0007554,7.8171688 0.42041047,4.7963372 c -0.56054729,-0.2637343 -0.56054729,-0.6713133 0,-0.9110473 L 7.0007554,0.86444487 c 0.5605573,-0.26372416 1.4622934,-0.26372416 1.9984729,0 L 15.579582,3.8852899 c 0.560557,0.2637118 0.560557,0.6712909 0,0.9110473 L 8.9992283,7.8171688 c -0.5605351,0.2397563 -1.4622934,0.2397563 -1.9984729,0 z"
     id="path3"
     class="ColorScheme-Text"
     style="fill:url(#oomox);stroke-width:0.222223;stroke:none" />
  <metadata
     id="metadata8">
    <rdf:RDF>
      <cc:Work
         rdf:about="">
        <dc:creator>
          <cc:Agent>
            <dc:title>dreifacherspass</dc:title>
          </cc:Agent>
        </dc:creator>
        <cc:license
           rdf:resource="http://creativecommons.org/licenses/by-sa/4.0/" />
      </cc:Work>
      <cc:License
         rdf:about="http://creativecommons.org/licenses/by-sa/4.0/">
        <cc:permits
           rdf:resource="http://creativecommons.org/ns#Reproduction" />
        <cc:permits
           rdf:resource="http://creativecommons.org/ns#Distribution" />
        <cc:requires
           rdf:resource="http://creativecommons.org/ns#Notice" />
        <cc:requires
           rdf:resource="http://creativecommons.org/ns#Attribution" />
        <cc:permits
           rdf:resource="http://creativecommons.org/ns#DerivativeWorks" />
        <cc:requires
           rdf:resource="http://creativecommons.org/ns#ShareAlike" />
      </cc:License>
    </rdf:RDF>
  </metadata>
</svg>
