<?xml version="1.0" encoding="UTF-8" standalone="no"?>
<svg
   version="1.1"
   id="Layer_1"
   x="0px"
   y="0px"
   width="16"
   height="16"
   viewBox="0 0 16 16"
   enable-background="new 0 0 360 360"
   xml:space="preserve"
   xmlns:xlink="http://www.w3.org/1999/xlink"
   xmlns="http://www.w3.org/2000/svg"
   xmlns:svg="http://www.w3.org/2000/svg"
   xmlns:rdf="http://www.w3.org/1999/02/22-rdf-syntax-ns#"
   xmlns:cc="http://creativecommons.org/ns#"
   xmlns:dc="http://purl.org/dc/elements/1.1/">
   <defs>
      <style id="current-color-scheme" type="text/css">
         .ColorScheme-Text { color: #0abdc6; } .ColorScheme-Highlight { color:#5294e2; }
      </style>
      <linearGradient id="arrongin" x1="0%" x2="0%" y1="0%" y2="100%">
         <stop offset="0%" style="stop-color:#dd9b44; stop-opacity:1"/>
         <stop offset="100%" style="stop-color:#ad6c16; stop-opacity:1"/>
      </linearGradient>
      <linearGradient id="aurora" x1="0%" x2="0%" y1="0%" y2="100%">
         <stop offset="0%" style="stop-color:#09D4DF; stop-opacity:1"/>
         <stop offset="100%" style="stop-color:#9269F4; stop-opacity:1"/>
      </linearGradient>
      <linearGradient id="cyberneon" x1="0%" x2="0%" y1="0%" y2="100%">
         <stop offset="0" style="stop-color:#0abdc6; stop-opacity:1"/>
         <stop offset="1" style="stop-color:#ea00d9; stop-opacity:1"/>
      </linearGradient>
      <linearGradient id="fitdance" x1="0%" x2="0%" y1="0%" y2="100%">
         <stop offset="0%" style="stop-color:#1AD6AB; stop-opacity:1"/>
         <stop offset="100%" style="stop-color:#329DB6; stop-opacity:1"/>
      </linearGradient>
      <linearGradient id="oomox" x1="0%" x2="0%" y1="0%" y2="100%">
         <stop offset="0%" style="stop-color:#0abdc6; stop-opacity:1"/>
         <stop offset="100%" style="stop-color:#b800ff; stop-opacity:1"/>
      </linearGradient>
      <linearGradient id="rainblue" x1="0%" x2="0%" y1="0%" y2="100%">
         <stop offset="0%" style="stop-color:#00F260; stop-opacity:1"/>
         <stop offset="100%" style="stop-color:#0575E6; stop-opacity:1"/>
      </linearGradient>
      <linearGradient id="sunrise" x1="0%" x2="0%" y1="0%" y2="100%">
         <stop offset="0%" style="stop-color: #FF8501; stop-opacity:1"/>
         <stop offset="100%" style="stop-color: #FFCB01; stop-opacity:1"/>
      </linearGradient>
      <linearGradient id="telinkrin" x1="0%" x2="0%" y1="0%" y2="100%">
         <stop offset="0%" style="stop-color: #b2ced6; stop-opacity:1"/>
         <stop offset="100%" style="stop-color: #6da5b7; stop-opacity:1"/>
      </linearGradient>
      <linearGradient id="60spsycho" x1="0%" x2="0%" y1="0%" y2="100%">
         <stop offset="0%" style="stop-color: #df5940; stop-opacity:1"/>
         <stop offset="25%" style="stop-color: #d8d15f; stop-opacity:1"/>
         <stop offset="50%" style="stop-color: #e9882a; stop-opacity:1"/>
         <stop offset="100%" style="stop-color: #279362; stop-opacity:1"/>
      </linearGradient>
      <linearGradient id="90ssummer" x1="0%" x2="0%" y1="0%" y2="100%">
         <stop offset="0%" style="stop-color: #f618c7; stop-opacity:1"/>
         <stop offset="20%" style="stop-color: #94ffab; stop-opacity:1"/>
         <stop offset="50%" style="stop-color: #fbfd54; stop-opacity:1"/>
         <stop offset="100%" style="stop-color: #0f83ae; stop-opacity:1"/>
      </linearGradient>
   </defs>
   <metadata
   id="metadata4432"><rdf:RDF><cc:Work
   rdf:about=""><dc:format>image/svg+xml</dc:format><dc:type
     rdf:resource="http://purl.org/dc/dcmitype/StillImage" /><cc:license
     rdf:resource="http://creativecommons.org/licenses/by-sa/4.0/" /><dc:creator><cc:Agent><dc:title>dreifacherspass</dc:title></cc:Agent></dc:creator></cc:Work>
       <cc:License
   rdf:about="http://creativecommons.org/licenses/by-sa/4.0/"><cc:permits
     rdf:resource="http://creativecommons.org/ns#Reproduction" /><cc:permits
     rdf:resource="http://creativecommons.org/ns#Distribution" /><cc:requires
     rdf:resource="http://creativecommons.org/ns#Notice" /><cc:requires
     rdf:resource="http://creativecommons.org/ns#Attribution" /><cc:permits
     rdf:resource="http://creativecommons.org/ns#DerivativeWorks" /><cc:requires
     rdf:resource="http://creativecommons.org/ns#ShareAlike" /></cc:License></rdf:RDF>
    </metadata>
    <path
   style="fill:none;fill-opacity:1;stroke:url(#oomox);stroke-width:0.557542;stroke-dasharray:none"
   d="M 6.5476612,15.084969 C 8.3246426,13.896293 10.18339,12.727039 11.565573,11.067251 12.044016,10.492714 12.613364,9.2648933 12.022376,8.6272007 11.197853,7.7375172 9.9248118,7.5174614 8.830212,7.1053419 7.9127614,6.7599196 6.7904265,6.5215659 6.2403972,5.6433321 5.760791,4.8775428 6.3935948,3.99544 6.9088247,3.4078193 7.69826,2.5074674 8.6980278,1.5977359 9.6597575,0.89212955"
   id="path4155-7"
   class="ColorScheme-Text" />
    <path
   style="display:inline;fill:url(#oomox);fill-opacity:1;stroke-width:0.0552078"
   id="path4117"
   class="ColorScheme-Text"
   d="M 2.1784542,3.3435235 C 1.2297535,3.6090183 1.440594,4.2529184 1.440594,4.2529184 l 0.074642,0.3644858 c -5.51e-5,-6.09e-5 1.6118642,-1.5393228 0.6632182,-1.2738807 z m -0.6533359,0.6000029 -0.062661,0.060456 0.089493,-0.2378959 0.067851,-0.065587 z m 0.1329419,-0.095231 -0.081598,0.054267 0.090542,-0.2398249 0.085904,-0.057417 z M 1.819158,3.7664784 1.724365,3.8113054 1.810656,3.5727499 1.913951,3.5235559 Z" />
    <path
   style="fill:url(#oomox);fill-opacity:1;stroke-width:0.0552078"
   id="path4121"
   class="ColorScheme-Text"
   d="m 15.415272,10.052224 0.300942,-0.2186771 c 0,0 0.589961,-0.3331854 0.06863,-1.1690925 -0.521278,-0.8358546 -0.369567,1.3877696 -0.369567,1.3877696 z m 0.541157,-0.7473498 0.0059,0.094129 -0.09435,0.2360146 -0.0055,-0.086897 z m -0.03399,-0.1600552 0.02464,0.1002622 -0.09495,0.2380589 -0.02359,-0.095128 z m -0.06366,-0.169156 0.04306,0.1061082 -0.09722,0.2343098 -0.03981,-0.097059 z" />
    <path
   style="display:inline;opacity:1;fill:url(#oomox);fill-opacity:1;stroke-width:0.0553018;stroke-dasharray:none"
   id="path4188"
   class="ColorScheme-Text"
   d="M 5.4527553,15.175894 C 4.1165422,14.657545 2.9105177,13.761953 2.0097377,12.516838 0.81166029,10.861033 0.32505351,8.8369777 0.63952024,6.8175152 0.95393239,4.797985 2.0329252,3.0176833 3.6775842,1.8044789 c 0.00961,-0.00706 0.01952,-0.013583 0.029505,-0.019491 0.00873,-0.00789 0.017978,-0.015349 0.027694,-0.022468 C 5.401475,0.55665855 7.4380595,0.07198387 9.4692857,0.39787887 11.500573,0.72366395 13.283358,1.8210961 14.489275,3.4878368 15.695026,5.1544644 16.17976,7.1910469 15.853916,9.2222214 15.528085,11.2535 14.430705,13.03624 12.763966,14.242097 10.568438,15.830667 7.8089034,16.090088 5.4527192,15.175893 Z M 4.0846882,2.3012992 c -0.00805,0.00718 -0.016487,0.014131 -0.025416,0.0207 -3.10335285,2.2892175 -3.78909634,6.6935229 -1.5286988,9.8178758 2.2815958,3.153341 6.7031825,3.862658 9.8564116,1.581226 1.527672,-1.105161 2.533344,-2.739053 2.831911,-4.6007387 C 15.517578,7.2588493 15.073476,5.3923601 13.968206,3.8648 12.862933,2.3372395 11.229099,1.3315633 9.3674722,1.032886 7.505847,0.73420897 5.6394113,1.1784156 4.1117984,2.2836325 c -0.00883,0.00635 -0.017859,0.01226 -0.027115,0.017663 z" />
    <path
   id="path4376-5"
   class="ColorScheme-Text"
   style="display:inline;fill:url(#oomox);fill-opacity:1;stroke:url(#oomox);stroke-width:0.0552078"
   d="M 0.97066935,8.0639469 1.792998,5.9565286 C 2.1571527,6.343984 2.6565127,6.7490495 3.2544727,7.1533961 L 2.4321457,9.2607557 C 1.8341841,8.8565164 1.3348241,8.4513967 0.97066935,8.0639469 M 3.1125893,9.6951881 3.9348642,7.5877756 c 0.00432,0.00235 0.00848,0.00511 0.012657,0.0077 0.6609552,0.3988221 1.4059884,0.7901947 2.1991128,1.1560616 0.005,0.00204 0.010182,0.00465 0.015159,0.00698 L 5.3395237,10.865929 c -0.00506,-0.0021 -0.010135,-0.0048 -0.015163,-0.0071 -0.7932878,-0.365854 -1.5381559,-0.757171 -2.1990571,-1.1559405 -0.0042,-0.00235 -0.0085,-0.00517 -0.012697,-0.0077 m 3.1039213,1.5557785 0.822385,-2.1074201 c 0.8290686,0.3468745 1.6935207,0.661234 2.5568106,0.9245201 L 8.7735066,12.175486 C 7.9101034,11.912191 7.0455975,11.597838 6.2165303,11.250963 m 3.5095452,1.1941 0.8222705,-2.107524 c 0.129024,0.03362 0.257659,0.06586 0.385855,0.09684 0.724002,0.174457 1.381034,0.292547 1.960557,0.357752 l -0.822325,2.1073 c -0.579523,-0.06515 -1.236448,-0.183178 -1.960566,-0.357746 -0.1280788,-0.03086 -0.2567726,-0.06311 -0.3857925,-0.09662 m 3.0381705,0.508854 0.822383,-2.107413 c 0.602711,0.02454 1.091967,-0.02211 1.450605,-0.134873 l -0.822282,2.107411 c -0.358579,0.112738 -0.847892,0.159446 -1.450712,0.134875 m 1.797089,-0.288682 0.822332,-2.10742 c 0.152096,-0.0949 0.256716,-0.211775 0.310548,-0.349685 -0.274056,0.702527 -0.548223,1.404884 -0.822334,2.107411 -0.05382,0.13791 -0.158393,0.25479 -0.310546,0.349694 M 0.86417243,8.1927475 C 2.3798639,9.8451935 6.3973803,11.834125 10.044994,12.7131 c 2.701569,0.65107 4.469894,0.517355 4.760014,-0.226132 0.311651,-0.798701 0.623304,-1.5974 0.934957,-2.396048 -0.290118,0.743491 -2.058389,0.87721 -4.760072,0.226137 C 7.3323308,9.4380282 3.3147611,7.4490914 1.7990712,5.7965947 L 0.86417243,8.1927475 m -0.24937631,0.34102 0.094848,-0.2429141 c 0.038314,0.04422 0.0784509,0.08861 0.12051963,0.1332739 l -0.0947925,0.242914 C 0.69341249,8.6224327 0.65316586,8.5779949 0.61479612,8.5337675 M 0.814595,8.7494144 0.9094984,8.5066046 c 0.0440559,0.044834 0.0899895,0.09016 0.1376345,0.1354308 L 0.95228504,8.8849498 C 0.90469556,8.8395663 0.85870635,8.7944064 0.814595,8.7494144 m 0.2269616,0.2188998 0.094848,-0.2429147 c 0.049688,0.045602 0.1010318,0.091316 0.1540871,0.1371366 L 1.1955881,9.1054502 C 1.1426433,9.059571 1.0912995,9.0138628 1.0415566,8.9683142 m 0.2534067,0.2218253 0.094793,-0.2429174 c 0.054932,0.046047 0.1114654,0.092198 0.1694342,0.1384674 L 1.4644529,9.3287183 C 1.4063737,9.2823411 1.349896,9.2361831 1.2949633,9.1901395 m 0.2776981,0.2234322 0.094793,-0.2428095 c 0.059846,0.046375 0.1213478,0.092863 0.1840647,0.1392933 l -0.094793,0.242914 C 1.6938995,9.5063768 1.632618,9.4599462 1.5726614,9.4135717 m 0.3013274,0.2250267 0.094793,-0.2429167 c 0.064539,0.046707 0.1305126,0.093249 0.1978114,0.1398427 L 2.0717452,9.7784412 C 2.0045014,9.7317338 1.9386381,9.685199 1.8739888,9.6385984 m 0.3228039,0.2253645 0.094792,-0.2429171 c 0.0689,0.046595 0.1391806,0.093189 0.2106203,0.139731 L 2.4074124,10.00369 C 2.3359177,9.9570978 2.2656927,9.9105555 2.1967927,9.8639629 m 0.343617,0.2253561 0.094738,-0.2429163 c 0.072985,0.046596 0.1472961,0.093085 0.2226553,0.139294 L 2.76312,10.228613 c -0.075525,-0.04632 -0.1496697,-0.0928 -0.2227104,-0.139294 m 0.3622225,0.224312 0.094848,-0.242916 c 0.076739,0.04626 0.1546933,0.09242 0.2336971,0.138461 l -0.094904,0.242921 c -0.078893,-0.0461 -0.156847,-0.09226 -0.2336412,-0.138466 m 0.3803325,0.222989 0.094791,-0.242916 c 0.080274,0.04582 0.1615952,0.09154 0.2439683,0.137023 l -0.09485,0.242917 c -0.08232,-0.04549 -0.1636398,-0.0912 -0.2439087,-0.137024 m 0.3960099,0.220389 0.094736,-0.242917 c 0.083748,0.04538 0.1683316,0.0906 0.253793,0.135538 L 3.932767,10.892545 C 3.847193,10.847555 3.7625577,10.802395 3.6789751,10.757009 m 0.4114111,0.217576 0.094683,-0.242803 c 0.086454,0.04455 0.1736813,0.08894 0.2617974,0.13305 l -0.094797,0.242921 c -0.088106,-0.04411 -0.1754475,-0.08851 -0.2616834,-0.133168 m 0.4246076,0.214045 0.094789,-0.242914 c 0.089055,0.04378 0.1788255,0.08723 0.2693072,0.130453 l -0.094738,0.24281 C 4.69387,11.275859 4.6040422,11.232409 4.514994,11.18863 m 0.4361474,0.209183 0.094843,-0.242803 c 0.091316,0.04278 0.1833481,0.08518 0.275935,0.127365 l -0.094736,0.242803 c -0.092589,-0.04206 -0.1846193,-0.08452 -0.2760416,-0.127365 m 0.4472937,0.204437 0.094738,-0.242914 c 0.093362,0.04162 0.1874363,0.08303 0.2819547,0.123779 l -0.094797,0.242917 C 5.5858123,11.685172 5.4918487,11.643989 5.398435,11.60225 m 0.4559149,0.198313 0.094738,-0.24281 c 0.09512,0.0403 0.1907438,0.08022 0.2868034,0.119805 L 6.1411533,11.92036 C 6.0450355,11.88089 5.9494191,11.840919 5.8543499,11.800563 m 0.4641388,0.192067 0.094736,-0.242915 c 0.09661,0.03892 0.1936678,0.0774 0.2909985,0.115384 l -0.094901,0.242915 C 6.5121032,12.070024 6.4151564,12.031554 6.3184888,11.99263 m 0.4698738,0.184338 0.094795,-0.242801 c 0.097775,0.03731 0.1958792,0.07419 0.2941481,0.110523 l -0.094902,0.242809 c -0.098217,-0.03622 -0.1963741,-0.0731 -0.2940408,-0.110531 m 0.4754045,0.176891 0.09479,-0.24292 c 0.09866,0.03566 0.1974264,0.07072 0.2964701,0.105117 l -0.094851,0.242921 c -0.09899,-0.03452 -0.197808,-0.06956 -0.2964086,-0.105118 m 0.478268,0.167888 0.094789,-0.243028 c 0.099271,0.03372 0.1985859,0.06697 0.2979599,0.09954 l -0.094789,0.242917 c -0.099323,-0.03256 -0.1986975,-0.06581 -0.2979591,-0.09943 m 0.4810886,0.158506 0.094736,-0.242921 c 0.099481,0.03182 0.1989669,0.06299 0.298508,0.09336 l -0.09479,0.242914 c -0.099488,-0.03052 -0.1990277,-0.06166 -0.2984545,-0.09335 m 0.4811391,0.148345 0.094678,-0.242916 c 0.099765,0.02965 0.1992507,0.05863 0.2989045,0.0869 l -0.094797,0.242803 c -0.099653,-0.0281 -0.199138,-0.05714 -0.298785,-0.08678 m 0.4809743,0.137685 0.094739,-0.242803 c 0.099094,0.02717 0.1981984,0.05372 0.2970165,0.07944 L 9.4822568,13.04585 C 9.3833778,13.02014 9.2842837,12.99357 9.1852379,12.96629 m 0.4786546,0.126206 0.094848,-0.242913 c 0.071053,0.01786 0.1418883,0.03538 0.2126101,0.05239 0.027414,0.0066 0.054989,0.01312 0.082261,0.01958 l -0.094791,0.242915 c -0.027265,-0.0065 -0.054712,-0.01301 -0.082266,-0.01958 -0.070721,-0.01708 -0.141663,-0.03464 -0.2126615,-0.0524 m 0.4724199,0.113176 0.09479,-0.242916 c 0.09595,0.02188 0.19075,0.04268 0.284215,0.06245 l -0.09468,0.24291 c -0.09358,-0.0198 -0.188317,-0.04053 -0.284323,-0.06244 m 0.454915,0.09772 0.09474,-0.242915 c 0.09198,0.01858 0.182573,0.03612 0.271792,0.0525 l -0.09485,0.242918 c -0.08932,-0.01649 -0.179756,-0.03394 -0.27168,-0.0525 m 0.433938,0.0816 0.0948,-0.242803 c 0.08761,0.01526 0.173905,0.0295 0.25887,0.04278 l -0.0948,0.242917 c -0.08485,-0.01324 -0.171202,-0.02753 -0.258871,-0.0429 m 0.413621,0.06625 0.0948,-0.242917 c 0.08331,0.01213 0.165074,0.02319 0.245455,0.03326 l -0.09469,0.242908 c -0.08044,-0.01013 -0.162308,-0.02118 -0.245566,-0.03325 m 0.391543,0.05057 0.09479,-0.242802 c 0.07873,0.0088 0.155967,0.01669 0.231822,0.02376 l -0.0948,0.242811 c -0.07586,-0.0069 -0.153089,-0.01477 -0.231815,-0.02377 m 0.369725,0.03543 0.09474,-0.242916 c 0.07415,0.0058 0.14669,0.01058 0.217635,0.01436 l -0.09474,0.243026 c -0.07106,-0.0038 -0.143655,-0.0087 -0.217637,-0.01446 m 0.346377,0.02038 0.0948,-0.242802 c 0.06923,0.0023 0.136973,0.0044 0.203108,0.0052 l -0.09474,0.242916 c -0.0662,-7.83e-4 -0.133987,-0.0023 -0.203169,-0.0053 m 0.323252,0.0057 0.09474,-0.242805 c 0.06432,-4.08e-4 0.127035,-0.0015 0.188204,-0.0038 l -0.09485,0.242905 c -0.06106,0.0019 -0.123884,0.0032 -0.188089,0.0036 m 0.298505,-0.009 0.0948,-0.242917 c 0.0594,-0.0031 0.117152,-0.0076 0.17324,-0.01281 l -0.0949,0.242917 c -0.05609,0.0051 -0.113786,0.0095 -0.173135,0.01281 m 0.274111,-0.02344 0.09474,-0.242915 c 0.05405,-0.0063 0.106446,-0.01344 0.157128,-0.02159 l -0.09491,0.242915 c -0.05057,0.0081 -0.10296,0.01538 -0.156957,0.02158 m 0.248161,-0.0374 0.0948,-0.242915 c 0.04875,-0.0093 0.09589,-0.01931 0.141163,-0.03042 l -0.09474,0.242822 c -0.04532,0.01116 -0.09242,0.02123 -0.141224,0.03052 m 0.222327,-0.05151 0.09474,-0.242915 c 0.04323,-0.01212 0.08464,-0.02504 0.124329,-0.03881 l -0.09468,0.242805 c -0.0398,0.01388 -0.08127,0.02685 -0.124382,0.03892 m 0.195327,-0.06536 0.09485,-0.242809 c 0.03752,-0.01493 0.07326,-0.03062 0.107267,-0.04731 l -0.09474,0.242926 c -0.03399,0.01654 -0.06973,0.03239 -0.107382,0.0472 m 0.167557,-0.07873 0.09485,-0.242808 c 0.03182,-0.01766 0.06172,-0.03622 0.08999,-0.05554 l -0.09479,0.242808 c -0.02824,0.01941 -0.05814,0.03788 -0.09004,0.05554 m 0.139731,-0.09209 0.09474,-0.242915 c 0.02587,-0.02041 0.04991,-0.04164 0.07216,-0.06372 l -0.09484,0.242918 c -0.02216,0.02211 -0.04616,0.04322 -0.07205,0.06371 m 0.110582,-0.105116 0.09474,-0.242915 c 0.01984,-0.02305 0.03799,-0.04704 0.05394,-0.07172 l -0.0948,0.242922 c -0.01606,0.02464 -0.03403,0.04864 -0.05388,0.07171 m 0.08132,-0.118204 0.09468,-0.242914 c 0.01111,-0.02071 0.02081,-0.04207 0.0293,-0.06382 l -0.09468,0.242919 c -0.0085,0.02183 -0.01844,0.043 -0.0293,0.06382 M 0.86417243,8.1927475 1.7990712,5.7965947 c 1.5156899,1.6525484 5.5332596,3.6414335 9.1808218,4.5204623 2.701683,0.651073 4.469954,0.517354 4.760072,-0.226137 -0.311653,0.798699 -0.623306,1.5974 -0.934957,2.396048 -0.29012,0.743487 -2.058445,0.877202 -4.760014,0.226132 C 6.3973803,11.834125 2.3798639,9.8451935 0.86417243,8.1927475 M 1.7722398,5.5674192 1.867033,5.3244521 c 0.03837,0.044166 0.078616,0.088609 0.1205195,0.1332735 L 1.8927045,5.7006924 C 1.8508012,5.6560306 1.8106652,5.6115863 1.7722398,5.5674192 m 0.199744,0.2157586 0.094848,-0.2429753 c 0.044167,0.044939 0.0901,0.090159 0.1376899,0.1354819 L 2.1097287,5.9186008 C 2.0621942,5.8732762 2.0162059,5.8281188 1.9719838,5.7831778 M 2.199001,6.0019656 2.293793,5.7590488 c 0.049688,0.045551 0.1010867,0.091319 0.1540315,0.1371973 L 2.3531424,6.1391629 C 2.3000877,6.093281 2.2487439,6.0475673 2.199001,6.0019656 m 0.2534067,0.2217709 0.094737,-0.2429668 c 0.054987,0.046044 0.1115759,0.092308 0.1696002,0.1385715 L 2.6219521,6.3622556 C 2.563818,6.3159925 2.5073947,6.2698417 2.4524077,6.2237365 m 0.2776979,0.2235448 0.094793,-0.2429746 c 0.059956,0.046428 0.121293,0.092858 0.1840652,0.1393474 L 2.9141705,6.5866216 C 2.851343,6.5400255 2.7899512,6.493651 2.7301056,6.4472813 m 0.3013275,0.2250264 0.094848,-0.2429144 c 0.064539,0.046482 0.1304006,0.093083 0.1977548,0.1397287 L 3.229246,6.8120384 C 3.1619453,6.765443 3.0959715,6.7188504 3.0314331,6.6723077 m 0.3228034,0.2253035 0.094789,-0.2429671 c 0.068955,0.046646 0.139182,0.093188 0.2106254,0.139731 L 3.5649133,7.0373429 C 3.4933653,6.9908075 3.4231386,6.9441535 3.3542365,6.8976112 M 3.6977953,7.122976 3.7925923,6.8800541 c 0.073037,0.046542 0.1472405,0.092972 0.2227115,0.139294 L 3.9203955,7.2623765 C 3.8450967,7.2159462 3.7708418,7.1694573 3.6977953,7.122976 m 0.3621726,0.2242536 0.094901,-0.2429164 c 0.076907,0.046263 0.1547466,0.092363 0.2336994,0.1384599 L 4.2936595,7.4856949 C 4.2147676,7.4396507 4.1368138,7.3934921 4.0599679,7.3472296 m 0.3803813,0.2229889 0.094797,-0.2429167 c 0.080327,0.045821 0.1616486,0.091587 0.2439074,0.1370781 l -0.09479,0.2429208 C 4.6020047,7.6617525 4.5206763,7.6160973 4.4403492,7.5702185 m 0.3960694,0.2203881 0.09479,-0.2429168 c 0.083643,0.045386 0.1682784,0.090597 0.2538515,0.1355966 l -0.09491,0.2429168 C 5.0046893,7.8812619 4.9200544,7.8360435 4.8364186,7.7906066 m 0.411246,0.2176902 0.094901,-0.2429164 c 0.086348,0.044604 0.1736279,0.088996 0.2616909,0.1330499 L 5.5094593,8.1414052 C 5.4214062,8.0972898 5.3341769,8.0529586 5.2476646,8.0082968 m 0.5196773,-0.028916 c 0.088881,0.043725 0.1787091,0.087177 0.2692507,0.130403 l -0.094683,0.242974 C 5.8512544,8.3095285 5.7614862,8.2660769 5.6724908,8.2222941 m 0,0 m 0.4360943,0.2092953 0.094789,-0.2429692 c 0.091369,0.042731 0.1834012,0.085184 0.2760994,0.1272518 L 6.3846259,8.5589004 C 6.2919863,8.5167768 6.1999536,8.4743765 6.1085851,8.4315864 m 0.447295,0.2043298 0.094795,-0.2429191 c 0.093354,0.041737 0.1874904,0.082927 0.2819496,0.1237797 L 6.8378276,8.7596902 C 6.7431495,8.7188354 6.6492418,8.6776456 6.5558801,8.6359077 m 0.4559135,0.1983118 0.094789,-0.2429164 c 0.095128,0.040303 0.1907459,0.080327 0.2866992,0.1197981 L 7.2985459,8.9540218 C 7.2024857,8.9145453 7.1068087,8.8746274 7.0117936,8.8342182 m 0.464078,0.1920136 0.094797,-0.2429147 c 0.09667,0.038919 0.1935564,0.077404 0.290945,0.1153841 L 7.7668775,9.1416153 C 7.6694886,9.1036803 7.572435,9.0651513 7.4758716,9.0262304 m 0.4699935,0.1845042 0.094789,-0.242914 c 0.097669,0.037306 0.1958254,0.074201 0.2940433,0.1105273 L 8.2399611,9.3212643 C 8.1415785,9.2849358 8.043526,9.2480544 7.9458651,9.2107339 m 0.4752844,0.1766138 0.094851,-0.2428092 c 0.098601,0.035606 0.1974261,0.070616 0.2965229,0.1052283 L 8.7176741,9.4925763 C 8.6186896,9.4581882 8.5198116,9.4230645 8.4211495,9.3873474 M 8.8995318,9.555235 8.9943288,9.3123183 c 0.09915,0.033719 0.1985825,0.066971 0.2978989,0.099539 L 9.1974372,9.6547748 C 9.0980636,9.6222233 8.9987403,9.5890808 8.8995318,9.555235 m 0.4810353,0.1587238 0.094736,-0.2430284 c 0.099481,0.031816 0.1990277,0.062994 0.2985082,0.093361 l -0.09479,0.2428031 C 9.5794818,9.7767288 9.4799945,9.7456476 9.3805671,9.7139588 m 0.4810274,0.1482893 0.094902,-0.2429137 c 0.0996,0.029658 0.1992465,0.058628 0.2988455,0.086785 L 10.160382,9.949041 C 10.060952,9.92085 9.961299,9.8918944 9.8615945,9.8622481 m 0.4809745,0.137693 0.09485,-0.2429209 c 0.09916,0.027265 0.198199,0.053832 0.297078,0.079559 l -0.0948,0.2429168 c -0.09888,-0.02577 -0.197867,-0.05229 -0.29713,-0.079555 m 0.478766,0.126262 0.0948,-0.243028 c 0.07105,0.017862 0.141775,0.035272 0.21255,0.05239 0.02758,0.00655 0.05499,0.013117 0.08226,0.019578 l -0.09474,0.242914 c -0.02732,-0.0065 -0.05471,-0.01291 -0.08226,-0.01958 -0.07072,-0.01703 -0.14161,-0.03454 -0.212608,-0.05228 m 0.47242,0.113122 0.09479,-0.2429163 c 0.09601,0.021886 0.19075,0.042672 0.284157,0.062441 l -0.09474,0.242913 c -0.09347,-0.01975 -0.188205,-0.04058 -0.284212,-0.06244 m 0.45481,0.09766 0.09484,-0.242914 c 0.09181,0.01846 0.18252,0.03599 0.271681,0.0525 l -0.09468,0.242916 c -0.08933,-0.01632 -0.179928,-0.03394 -0.271846,-0.0525 m 0.434044,0.08166 0.09485,-0.242811 c 0.08767,0.01516 0.173855,0.02956 0.25882,0.04268 l -0.09485,0.243026 c -0.08485,-0.01322 -0.171255,-0.02759 -0.258819,-0.04289 m 0.413621,0.06619 0.0948,-0.242917 c 0.08325,0.01213 0.165128,0.02319 0.24551,0.03326 l -0.09479,0.242912 c -0.08049,-0.01013 -0.162256,-0.02112 -0.245514,-0.03325 m 0.391543,0.05068 0.09484,-0.243028 c 0.07867,0.009 0.155912,0.01685 0.231714,0.02376 l -0.09474,0.243028 c -0.07586,-0.007 -0.153088,-0.01489 -0.231814,-0.02376 m 0.369671,0.03538 0.09479,-0.242915 c 0.07409,0.0058 0.146689,0.01058 0.217742,0.01446 l -0.09479,0.242921 c -0.07117,-0.0039 -0.143655,-0.0087 -0.217744,-0.01446 m 0.34638,0.02051 0.09485,-0.243028 c 0.06917,0.0025 0.136913,0.0044 0.203107,0.0052 l -0.09474,0.243027 c -0.0662,-6.8e-4 -0.134099,-0.0023 -0.203219,-0.0052 m 0.323242,0.0054 0.0948,-0.242916 c 0.06432,-3.31e-4 0.127088,-0.0015 0.188204,-0.0038 l -0.0948,0.243026 c -0.06112,0.002 -0.123939,0.0032 -0.188205,0.0036 m 0.298515,-0.009 0.0949,-0.242916 c 0.0593,-0.0031 0.117046,-0.0077 0.173188,-0.01281 l -0.09485,0.242924 c -0.05604,0.0052 -0.113843,0.0095 -0.173244,0.01281 m 0.274107,-0.0233 0.09485,-0.243027 c 0.05399,-0.0063 0.106386,-0.01344 0.157009,-0.02158 l -0.09474,0.242917 c -0.05073,0.0081 -0.103071,0.01538 -0.157123,0.02174 m 0.248216,-0.03748 0.09474,-0.243027 c 0.04886,-0.0092 0.09584,-0.01931 0.141218,-0.03032 l -0.09479,0.24292 c -0.04538,0.01101 -0.09242,0.02112 -0.141171,0.03042 m 0.222273,-0.05157 0.09474,-0.242917 c 0.04318,-0.0121 0.08464,-0.02503 0.124382,-0.03881 l -0.09485,0.242917 c -0.03963,0.01383 -0.08116,0.02674 -0.12427,0.03881 m 0.195434,-0.06526 0.09469,-0.24292 c 0.03759,-0.01493 0.07331,-0.03073 0.107267,-0.04731 l -0.09474,0.242929 c -0.03393,0.01659 -0.06973,0.03244 -0.107214,0.04731 m 0.262354,-0.321759 c 0.03177,-0.01766 0.06178,-0.03611 0.08982,-0.05554 l -0.09468,0.243021 c -0.02824,0.01931 -0.05813,0.03788 -0.08999,0.05554 m 5.3e-5,5.5e-5 m 0.139678,-0.0922 0.0948,-0.2429181 c 0.02587,-0.020392 0.04991,-0.041629 0.07204,-0.063712 L 15.64488,10.17559 c -0.02216,0.02211 -0.04627,0.04334 -0.07205,0.06371 m 0.110692,-0.105175 0.09469,-0.2429146 c 0.01979,-0.023043 0.03788,-0.047038 0.05394,-0.071715 l -0.09485,0.2429156 c -0.01611,0.02471 -0.0341,0.04869 -0.05377,0.07171 m 0.179537,-0.3588505 c 0.01101,-0.020814 0.01726,-0.044335 0.02572,-0.065976 l -0.09485,0.2428065 m -5.9865192,3.369385 c 2.7017932,0.651184 4.4699532,0.517359 4.7601232,-0.226132 0.466733,-1.196035 0.933245,-2.39196 1.40003,-3.587884 -0.29017,0.743388 -2.058444,0.877213 -4.760118,0.2261409 C 7.4238147,8.8217903 3.2254886,6.695217 1.8509118,5.0091537 L 0.45347673,8.6000779 C 1.8279454,10.286196 6.023891,12.409783 9.8074328,13.321604 M 0.360837,6.697923 1.1831664,4.590564 c 0.0919,-0.2355104 0.0014,0.5442479 0.2414818,0.9014955 L 0.60237372,7.5994798 C 0.3622177,7.2422774 0.28752037,6.9399598 0.360837,6.697923 M 0.67359309,7.9713072 1.6149516,5.5642778 C 1.2513486,5.103011 1.1316571,4.7175455 1.2441162,4.4292994 L 0.30916241,6.8253426 C 0.19670277,7.1135884 0.29574454,7.5235108 0.67359309,7.9713072 M 0.12266853,7.3121712 c 0.00475,-0.01586 0.0101578,-0.031489 0.0161746,-0.046872 l 0.0947377,-0.2429143 c -0.00596,0.01538 -0.0113716,0.030996 -0.0160095,0.046925 l -0.0949029,0.2428613 m -0.0130255,0.052232 0.0947923,-0.2429215 c -0.005795,0.029018 -0.009771,0.058741 -0.0117025,0.089331 L 0.09799486,7.4537804 c 0.0018015,-0.03057 0.0058523,-0.060453 0.01165133,-0.089377 m -0.012861,0.1462465 0.09473756,-0.242975 c 6.2979e-4,0.03154 0.003251,0.063769 0.007952,0.096782 L 0.10468055,7.6073706 C 0.09993045,7.5743286 0.09733615,7.5421146 0.09678805,7.5106496 M 0.1155041,7.6690431 0.2102967,7.4261802 c 0.00723,0.033937 0.0165048,0.068732 0.0278264,0.1042846 L 0.14332691,7.7732735 C 0.13195452,7.7377899 0.12273338,7.7031009 0.11561368,7.6690968 m 0.0508469,0.1701488 0.0947928,-0.2428623 c 0.0139132,0.036454 0.0299755,0.073593 0.0481419,0.1115813 l -0.0947445,0.2429133 c -0.018275,-0.038041 -0.0342848,-0.075194 -0.0481981,-0.1116323 m 0.0840822,0.1823009 0.0947931,-0.242975 c 0.0207608,0.038921 0.04378,0.078451 0.0689554,0.118812 l -0.0948518,0.2428626 c -0.0251756,-0.040249 -0.0480316,-0.07989 -0.068901,-0.1186996 m 0.11748382,0.193503 0.094848,-0.2428024 c 0.0277733,0.041183 0.0578582,0.083138 0.0900998,0.125871 L 0.45816987,8.34104 C 0.42592817,8.298303 0.39583939,8.2563445 0.36801443,8.2150495 M 0.66807231,7.9630788 C 0.3044692,7.5017576 0.19488067,7.1218723 0.30728486,6.8336238 L 1.2422393,4.4375833 C 1.1297248,4.7257685 1.2393457,5.1056561 1.6029156,5.5669232 L 0.66807231,7.9630788 M 1.2801678,4.3458842 c 0.00469,-0.015908 0.010101,-0.03154 0.016123,-0.046873 l 0.094738,-0.2429757 c -0.00596,0.015431 -0.011319,0.030996 -0.016123,0.046871 l -0.094738,0.2429777 m -0.013087,0.052171 0.094903,-0.2429168 c -0.00591,0.028967 -0.00982,0.058793 -0.01176,0.089379 l -0.094902,0.2428612 c 0.00191,-0.030516 0.00591,-0.060341 0.011759,-0.089323 m -0.012862,0.146193 0.094738,-0.2429753 c 5.787e-4,0.03154 0.00325,0.063823 0.00784,0.096728 l -0.094683,0.2429675 c -0.00475,-0.032994 -0.00739,-0.065256 -0.00789,-0.09672 m 0.018716,0.1584467 0.094738,-0.2429757 c 0.00718,0.033927 0.016393,0.068738 0.027827,0.104289 L 1.3007057,4.8069242 C 1.2893886,4.7714509 1.280113,4.7366985 1.2729365,4.7026948 m 0.050957,0.1702073 0.094793,-0.2429215 c 0.013966,0.036455 0.029975,0.073594 0.048197,0.1115823 L 1.3720907,4.9844766 C 1.3538178,4.9465433 1.3378073,4.9093351 1.3238935,4.8729021 m 0.084027,0.1822427 0.094848,-0.2429212 c 0.020812,0.038814 0.04378,0.078456 0.068956,0.1187578 L 1.476931,5.1739509 C 1.4517555,5.1335942 1.4287884,5.0940126 1.4079196,5.0551448 m 0.1175386,0.1935561 0.094793,-0.2429161 c 0.027826,0.041244 0.057913,0.083199 0.090155,0.1258785 l -0.094792,0.2429746 c -0.032297,-0.042677 -0.06233,-0.084695 -0.090156,-0.125937 M 0.4729104,8.6240337 1.8676952,5.0297481 C 1.4746667,4.5476149 1.3535947,4.1519363 1.4698082,3.8541368 L 0.06988888,7.442131 c -0.11615833,0.2977406 0.0047501,0.6933658 0.39783214,1.1754989" />
    <path
   d="M 5.4848887,9.619392 C 5.1782048,8.7799516 4.417927,8.1398604 4.417927,8.1398604 c 0,0 -0.5792429,0.8009631 -0.7612163,1.5443449 l 0.0063,-0.012705 c 0,0 0.9707802,0.2131567 1.8233678,-0.054989 z"
   id="path4426"
   class="ColorScheme-Text"
   style="fill:url(#oomox);fill-opacity:1;stroke-width:0.0552078" />
</svg>
