<?xml version="1.0" encoding="UTF-8" standalone="no"?>
<svg
   version="1.1"
   id="Layer_1"
   x="0px"
   y="0px"
   width="48"
   height="48"
   viewBox="0 0 48 48"
   enable-background="new 0 0 360 360"
   xml:space="preserve"
   sodipodi:docname="openshot.svg"
   inkscape:version="1.2.2 (b0a8486541, 2022-12-01)"
   xmlns:inkscape="http://www.inkscape.org/namespaces/inkscape"
   xmlns:sodipodi="http://sodipodi.sourceforge.net/DTD/sodipodi-0.dtd"
   xmlns:xlink="http://www.w3.org/1999/xlink"
   xmlns="http://www.w3.org/2000/svg"
   xmlns:svg="http://www.w3.org/2000/svg"
   xmlns:rdf="http://www.w3.org/1999/02/22-rdf-syntax-ns#"
   xmlns:cc="http://creativecommons.org/ns#"
   xmlns:dc="http://purl.org/dc/elements/1.1/"><defs
   id="defs13"><linearGradient
     id="linearGradient6293"
     x1="0"
     x2="0"
     y1="0"
     y2="1"><stop
       offset="-99"
       style="stop-color:#b800ff; stop-opacity:1"
       id="stop6291" /><stop
       offset="1"
       style="stop-color:#0abdc6; stop-opacity:1"
       id="stop6289" /></linearGradient><linearGradient
     id="linearGradient6285"
     x1="0"
     x2="0"
     y1="0"
     y2="1"><stop
       offset="-99"
       style="stop-color:#b800ff; stop-opacity:1"
       id="stop6283" /><stop
       offset="1"
       style="stop-color:#0abdc6; stop-opacity:1"
       id="stop6281" /></linearGradient><linearGradient
     inkscape:collect="always"
     xlink:href="#linearGradient6293"
     id="linearGradient5999"
     x1="8.8683653"
     y1="26.525568"
     x2="38.818996"
     y2="34.550816"
     gradientUnits="userSpaceOnUse" /><linearGradient
     inkscape:collect="always"
     xlink:href="#oomox"
     id="linearGradient6001"
     x1="25.547621"
     y1="2.6820548"
     x2="25.547621"
     y2="45.212975"
     gradientUnits="userSpaceOnUse" /><linearGradient
     inkscape:collect="always"
     xlink:href="#oomox"
     id="linearGradient6003"
     x1="45.260792"
     y1="27.635271"
     x2="47.000999"
     y2="27.635271"
     gradientUnits="userSpaceOnUse" /><linearGradient
     inkscape:collect="always"
     xlink:href="#oomox"
     id="linearGradient6005"
     x1="5.0834918"
     y1="12.399098"
     x2="8.1220074"
     y2="12.399098"
     gradientUnits="userSpaceOnUse" /><linearGradient
     inkscape:collect="always"
     xlink:href="#oomox"
     id="linearGradient6007"
     x1="313.35901"
     y1="211.82001"
     x2="320.496"
     y2="211.82001"
     gradientUnits="userSpaceOnUse" /><linearGradient
     inkscape:collect="always"
     xlink:href="#oomox"
     id="linearGradient6009"
     x1="54.597"
     y1="113.025"
     x2="60.549"
     y2="113.025"
     gradientUnits="userSpaceOnUse" /><linearGradient
     id="oomox"
     x1="0"
     x2="0"
     y1="0"
     y2="1"><stop
       offset="0%"
       style="stop-color:#0abdc6; stop-opacity:1"
       id="stop9212" /><stop
       offset="100%"
       style="stop-color:#b800ff; stop-opacity:1"
       id="stop9214" /></linearGradient><linearGradient
     inkscape:collect="always"
     xlink:href="#oomox"
     id="linearGradient5280"
     x1="1.031"
     y1="1"
     x2="1.031"
     y2="15"
     gradientUnits="userSpaceOnUse" /><linearGradient
     inkscape:collect="always"
     xlink:href="#oomox"
     id="linearGradient5282"
     x1="2.156"
     y1="2.188"
     x2="2.156"
     y2="13.813"
     gradientUnits="userSpaceOnUse" /><linearGradient
     inkscape:collect="always"
     xlink:href="#linearGradient6285"
     id="linearGradient6279"
     x1="8.8683653"
     y1="26.525568"
     x2="38.818996"
     y2="34.550816"
     gradientUnits="userSpaceOnUse" /><linearGradient
     inkscape:collect="always"
     xlink:href="#oomox"
     id="linearGradient6305"
     x1="42.650154"
     y1="2.3576348"
     x2="42.650154"
     y2="30.646935"
     gradientTransform="scale(0.67921031,1.472298)"
     gradientUnits="userSpaceOnUse" /></defs><sodipodi:namedview
   id="namedview1727"
   pagecolor="#ffffff"
   bordercolor="#000000"
   borderopacity="0.25"
   inkscape:showpageshadow="2"
   inkscape:pageopacity="0.0"
   inkscape:pagecheckerboard="0"
   inkscape:deskcolor="#d1d1d1"
   showgrid="false"
   inkscape:zoom="10.842421"
   inkscape:cx="23.149811"
   inkscape:cy="30.482122"
   inkscape:window-width="1268"
   inkscape:window-height="985"
   inkscape:window-x="0"
   inkscape:window-y="0"
   inkscape:window-maximized="0"
   inkscape:current-layer="Layer_1" /><metadata
   id="metadata4432"><rdf:RDF><cc:Work
       rdf:about=""><dc:format>image/svg+xml</dc:format><dc:type
         rdf:resource="http://purl.org/dc/dcmitype/StillImage" /></cc:Work></rdf:RDF></metadata>
    <path
   style="fill:none;stroke:url(#linearGradient6305);stroke-width:1.603;stroke-dasharray:none;fill-opacity:1"
   d="M 19.824346,44.370174 C 24.93339,40.952581 30.277523,37.59083 34.251471,32.81873 c 1.375583,-1.651865 3.01253,-5.182004 1.313366,-7.01545 -2.370607,-2.557951 -6.03076,-3.190639 -9.177872,-4.375534 -2.637785,-0.993132 -5.864638,-1.678429 -7.446041,-4.203461 -1.378928,-2.20174 0.440462,-4.737896 1.921813,-6.427378 2.269725,-2.5886245 5.144182,-5.2042161 7.909275,-7.2329225"
   id="path4155-7"
   sodipodi:nodetypes="csssssc" /><polygon
   points="58.409,105.417 60.549,111.477 55.421,120.633 54.597,115.189 "
   id="polygon4111"
   style="fill:url(#linearGradient6009);fill-opacity:1.0"
   transform="matrix(0.15873095,0,0,0.15873095,-4.2221775,-4.188987)" /><polygon
   points="317.171,204.285 320.496,209.064 316.188,219.355 313.359,214.057 "
   id="polygon4113"
   style="fill:url(#linearGradient6007);fill-opacity:1.0"
   transform="matrix(0.15873095,0,0,0.15873095,-4.2221775,-4.188987)" /><path
   style="fill:url(#linearGradient6005);stroke-width:0.158729;fill-opacity:1.0"
   id="path4117"
   d="m 7.2623301,10.612048 c -2.727633,0.76333 -2.1214403,2.614624 -2.1214403,2.614624 l 0.2146046,1.047942 c -1.578e-4,-1.75e-4 4.6343117,-4.4257449 1.9068357,-3.662566 z m -1.8784223,1.725083 -0.1801592,0.173818 0.2573027,-0.68398 0.1950808,-0.188572 z m 0.3822247,-0.273802 -0.2346048,0.156025 0.2603192,-0.689527 0.2469854,-0.165082 z m 0.4631761,-0.235234 -0.2725403,0.128884 0.248096,-0.685877 0.296986,-0.141437 z" /><path
   style="fill:url(#linearGradient6003);stroke-width:0.158729;fill-opacity:1.0"
   id="path4121"
   d="m 45.319837,29.9004 0.865245,-0.628724 c 0,0 1.696212,-0.957949 0.197305,-3.361287 -1.498739,-2.403186 -1.06255,3.990011 -1.06255,3.990011 z m 1.555892,-2.148724 0.01689,0.270633 -0.271262,0.678571 -0.01573,-0.24984 z m -0.09772,-0.460178 0.07085,0.288266 -0.273006,0.684449 -0.06783,-0.273505 z m -0.183015,-0.486345 0.123811,0.305074 -0.279517,0.67367 -0.114454,-0.279058 z" /><path
   style="opacity:1;fill:url(#linearGradient6001);fill-opacity:1;stroke-width:0.159;stroke-dasharray:none"
   id="path4188"
   d="M 16.676355,44.631594 C 12.834576,43.141276 9.3671042,40.566337 6.7772492,36.986475 3.3326269,32.225829 1.9335716,26.406415 2.8377028,20.600208 3.741677,14.793807 6.843916,9.675217 11.572517,6.1871028 c 0.02762,-0.020312 0.05612,-0.039053 0.08483,-0.056039 0.02509,-0.022692 0.05169,-0.044131 0.07962,-0.064598 4.791947,-3.4670019 10.647382,-4.8605021 16.487411,-3.9235133 5.840204,0.9366728 10.965933,4.0919273 14.433096,8.8840155 3.466686,4.791762 4.860355,10.647191 3.923514,16.487072 -0.936806,5.840181 -4.091911,10.965781 -8.883994,14.432771 -6.312415,4.567336 -14.246423,5.313204 -21.020746,2.684778 z M 12.742991,7.6155231 c -0.02316,0.020641 -0.0474,0.040629 -0.07307,0.059515 C 3.7473895,14.256824 1.7757912,26.919753 8.2747165,35.90266 14.83459,44.968908 27.547204,47.008283 36.613132,40.44888 41.005381,37.271404 43.896814,32.573761 44.755232,27.221181 45.613978,21.869099 44.337131,16.502709 41.15934,12.110783 37.981543,7.7188561 33.284067,4.8274113 27.931656,3.9686769 22.579251,3.1099431 17.213015,4.3870927 12.820936,7.5647293 c -0.02539,0.01826 -0.05135,0.035248 -0.07796,0.050784 z" /><path
   id="path4376-5"
   style="fill:url(#linearGradient5999);fill-opacity:1;stroke:url(#linearGradient6279);stroke-width:0.158729"
   d="m 3.7897978,24.183855 2.3642977,-6.059091 c 1.0469902,1.113983 2.4827125,2.278597 4.2019225,3.441144 L 7.9917249,27.62483 C 6.2725105,26.462592 4.8367883,25.297822 3.7897978,24.183855 m 6.1582875,4.690022 2.3641437,-6.059074 c 0.01243,0.0068 0.02439,0.01469 0.03639,0.02213 1.900329,1.146664 4.042393,2.271909 6.322724,3.323822 0.01438,0.0059 0.02928,0.01338 0.04359,0.02007 l -2.364127,6.059073 c -0.01453,-0.0062 -0.02914,-0.01367 -0.04359,-0.02037 -2.280804,-1.051918 -4.422393,-2.177005 -6.3225667,-3.323517 -0.012063,-0.0068 -0.024439,-0.01488 -0.036505,-0.02213 m 8.9241617,4.47305 2.364459,-6.059097 c 2.383676,0.997308 4.869084,1.901131 7.35115,2.65811 l -2.363976,6.059094 c -2.482401,-0.757 -4.967963,-1.660803 -7.351635,-2.658111 m 10.090381,3.433187 2.364132,-6.059397 c 0.370958,0.09666 0.7408,0.189358 1.109379,0.278414 2.081598,0.501585 3.970647,0.841108 5.636848,1.02858 l -2.364288,6.058751 c -1.666202,-0.187303 -3.554942,-0.526658 -5.636871,-1.028564 -0.368244,-0.08872 -0.738255,-0.181445 -1.109203,-0.277786 m 8.735122,1.463019 2.364454,-6.059075 c 1.732869,0.07056 3.139541,-0.06356 4.170668,-0.387776 l -2.364163,6.059068 c -1.030958,0.324137 -2.437794,0.458427 -4.170979,0.387782 m 5.166857,-0.829995 2.364308,-6.059095 c 0.437293,-0.272855 0.738089,-0.60888 0.892863,-1.005391 -0.787945,2.019853 -1.57621,4.039218 -2.364312,6.059071 -0.15475,0.396509 -0.4554,0.732555 -0.892859,1.005415 M 3.4836059,24.554173 c 4.3578022,4.750989 15.9086641,10.469415 26.3960101,12.99658 7.76735,1.871907 12.851503,1.487461 13.685634,-0.650157 0.896036,-2.296366 1.792079,-4.592726 2.68812,-6.888939 -0.834128,2.137629 -5.918127,2.522088 -13.685801,0.650172 C 22.08037,28.134511 10.529355,22.416069 6.1715566,17.664934 L 3.4836059,24.554173 M 2.7666178,25.534648 3.0393177,24.83624 c 0.1101575,0.127137 0.2255562,0.254764 0.346509,0.383179 L 3.1132865,25.917827 C 2.9926497,25.789572 2.8769356,25.661807 2.7666178,25.534648 m 0.5744468,0.620012 0.2728592,-0.698109 c 0.1266663,0.128905 0.258731,0.259221 0.3957166,0.389381 L 3.7369406,26.544341 C 3.6001149,26.413858 3.4678902,26.284018 3.3410646,26.15466 m 0.6525429,0.629364 0.2726999,-0.69841 c 0.1428591,0.131111 0.290479,0.262546 0.4430196,0.394285 L 4.4364673,27.178307 C 4.2842444,27.046399 4.1366245,26.914982 3.9936075,26.784024 M 4.7221834,27.4218 4.9947253,26.723382 c 0.1579363,0.13239 0.3204768,0.265081 0.4871443,0.398111 L 5.2094873,27.820231 C 5.0425022,27.686891 4.8801219,27.554181 4.7221834,27.4218 m 0.7984168,0.642395 0.2725417,-0.698108 C 5.9652058,27.499421 6.142032,27.63308 6.322351,27.766573 L 6.0498092,28.464981 C 5.8691747,28.331021 5.692983,28.197528 5.5206002,28.064195 m 0.8663539,0.64698 0.272542,-0.698416 c 0.185557,0.134289 0.37524,0.268104 0.5687324,0.402065 L 6.9555286,29.11324 C 6.7621942,28.978951 6.5728289,28.845157 6.3869541,28.711175 m 0.9281016,0.647951 0.2725399,-0.698417 c 0.1980964,0.133967 0.4001618,0.267929 0.6055598,0.401744 L 7.9206136,29.760861 C 7.7150575,29.626901 7.5131518,29.493086 7.3150557,29.359126 M 8.3029973,30.007054 8.57538,29.308638 c 0.2098418,0.133969 0.4234945,0.26763 0.6401618,0.400488 L 8.9433177,30.407541 C 8.7261743,30.274355 8.5129987,30.140715 8.3029973,30.007054 m 1.041435,0.644926 0.2727001,-0.698415 c 0.2206354,0.133012 0.4447626,0.265722 0.6719086,0.398092 L 10.01618,31.050085 C 9.7893535,30.91755 9.5652254,30.784838 9.3444323,30.65198 m 1.0935037,0.64112 0.272535,-0.698415 c 0.230798,0.131739 0.464607,0.263178 0.70144,0.393961 l -0.272707,0.698416 C 10.902525,31.556272 10.668719,31.42484 10.437936,31.2931 m 1.13858,0.633645 0.272378,-0.698416 c 0.240785,0.130489 0.483974,0.260477 0.729686,0.38969 L 12.3062,32.31643 c -0.246037,-0.129362 -0.489374,-0.259203 -0.729684,-0.389685 m 1.182858,0.625559 0.272225,-0.698089 c 0.248567,0.128086 0.499356,0.255721 0.752701,0.382536 l -0.272554,0.69843 C 13.25843,32.808349 13.007313,32.680717 12.759374,32.552304 m 1.2208,0.615406 0.27253,-0.698408 c 0.256043,0.125859 0.514145,0.250789 0.774292,0.375069 l -0.272384,0.698108 C 14.494464,33.4185 14.236199,33.293591 13.980174,33.16771 m 1.253978,0.601427 0.272685,-0.698089 c 0.262544,0.12301 0.527148,0.244915 0.793347,0.366192 l -0.272378,0.698089 c -0.266205,-0.120936 -0.530803,-0.243016 -0.793654,-0.366192 m 1.286025,0.587782 0.272384,-0.698408 c 0.268427,0.119676 0.538903,0.238733 0.810655,0.355882 l -0.272554,0.698414 c -0.271751,-0.117475 -0.541908,-0.235883 -0.810485,-0.355888 m 1.310813,0.570176 0.272383,-0.69811 c 0.273483,0.115878 0.548413,0.230632 0.824596,0.344454 l -0.272384,0.698088 c -0.27635,-0.113482 -0.551259,-0.228403 -0.824595,-0.344432 m 1.334457,0.552216 0.272378,-0.69841 c 0.277767,0.111897 0.556819,0.222544 0.836657,0.331744 l -0.272853,0.698409 c -0.279516,-0.109213 -0.558251,-0.219839 -0.836182,-0.331743 m 1.350946,0.529996 0.272547,-0.698085 c 0.281115,0.107265 0.563177,0.213322 0.845712,0.317767 l -0.272855,0.698107 c -0.282387,-0.104148 -0.5646,-0.210167 -0.845404,-0.317789 m 1.366847,0.508584 0.272532,-0.698426 c 0.283659,0.102534 0.567625,0.203335 0.852388,0.302225 l -0.272708,0.698426 c -0.284609,-0.09926 -0.568723,-0.200001 -0.852212,-0.302225 m 1.37508,0.482698 0.27253,-0.698737 c 0.285415,0.09695 0.570959,0.19255 0.856672,0.28619 l -0.272532,0.698417 c -0.285566,-0.0936 -0.57128,-0.189208 -0.85667,-0.28587 m 1.38319,0.455723 0.272378,-0.698428 c 0.286019,0.09148 0.572055,0.181113 0.858248,0.268423 l -0.272532,0.698408 c -0.286041,-0.08774 -0.572229,-0.177294 -0.858094,-0.268403 m 1.383335,0.426511 0.272211,-0.698414 c 0.286838,0.08525 0.572871,0.168562 0.859388,0.249838 l -0.272554,0.698089 c -0.286515,-0.08078 -0.572547,-0.164285 -0.859045,-0.249513 m 1.382862,0.395863 0.272386,-0.698088 c 0.284909,0.07811 0.569846,0.154449 0.85396,0.228403 l -0.27238,0.69843 c -0.284288,-0.07393 -0.569197,-0.150321 -0.853966,-0.228745 m 1.376191,0.362858 0.272699,-0.698406 c 0.204285,0.05135 0.407947,0.101708 0.611281,0.150626 0.07882,0.01884 0.158101,0.03771 0.236505,0.0563 l -0.272533,0.698409 c -0.07839,-0.01856 -0.157305,-0.0374 -0.236523,-0.0563 -0.203333,-0.04911 -0.407299,-0.0996 -0.611429,-0.15065 m 1.358267,0.325397 0.272534,-0.698415 c 0.275877,0.06292 0.54843,0.122705 0.817156,0.179542 l -0.272225,0.698398 c -0.269054,-0.05692 -0.541433,-0.116517 -0.817465,-0.179534 m 1.307938,0.280955 0.272384,-0.69841 c 0.264443,0.05343 0.52492,0.103857 0.781436,0.150947 l -0.272705,0.698419 c -0.256818,-0.04742 -0.51682,-0.09759 -0.781115,-0.150956 m 1.247628,0.234606 0.272552,-0.698089 c 0.251892,0.04388 0.5,0.08481 0.744284,0.123008 l -0.272551,0.698417 c -0.243959,-0.03806 -0.492225,-0.07916 -0.744285,-0.123335 m 1.18921,0.190481 0.272551,-0.698417 c 0.23953,0.03486 0.47461,0.06668 0.705714,0.09563 l -0.27223,0.698392 c -0.231271,-0.02914 -0.466656,-0.0609 -0.706035,-0.09559 m 1.125736,0.145395 0.272531,-0.698086 c 0.226348,0.02538 0.448423,0.04799 0.666517,0.06831 l -0.272552,0.698111 c -0.218094,-0.01993 -0.440148,-0.04246 -0.666496,-0.06833 m 1.063006,0.101857 0.272382,-0.698414 c 0.213186,0.01675 0.421753,0.03041 0.625729,0.04128 l -0.272378,0.698731 c -0.204303,-0.01103 -0.413026,-0.02499 -0.625733,-0.04157 m 0.995878,0.05861 0.272552,-0.698086 c 0.199039,0.0068 0.393814,0.01278 0.583962,0.01485 l -0.272378,0.698413 c -0.190321,-0.0023 -0.385231,-0.0068 -0.584136,-0.01518 m 0.929388,0.01625 0.272378,-0.698093 c 0.184922,-0.0012 0.365242,-0.0042 0.541111,-0.01102 l -0.272708,0.698381 c -0.175558,0.0056 -0.356182,0.0091 -0.540781,0.0103 m 0.858241,-0.02581 0.272552,-0.698416 c 0.170792,-0.009 0.336828,-0.02182 0.498088,-0.03682 l -0.272855,0.698417 c -0.161267,0.01469 -0.327149,0.02719 -0.497785,0.03682 m 0.788102,-0.06738 0.27238,-0.698411 c 0.155401,-0.01798 0.306047,-0.03864 0.451765,-0.06206 l -0.272874,0.698412 c -0.145396,0.0233 -0.296022,0.04422 -0.451271,0.06204 m 0.713495,-0.107537 0.272551,-0.698413 c 0.140165,-0.02674 0.275705,-0.05552 0.405863,-0.08746 l -0.272378,0.698144 c -0.130309,0.03208 -0.265718,0.06104 -0.406036,0.08774 m 0.639217,-0.148097 0.272378,-0.698414 c 0.124282,-0.03484 0.243337,-0.07198 0.35746,-0.111582 l -0.272224,0.698095 c -0.11443,0.03991 -0.233652,0.07719 -0.357614,0.111901 m 0.561591,-0.187932 0.272708,-0.698105 c 0.107884,-0.04294 0.210621,-0.08803 0.308404,-0.136025 l -0.272377,0.698442 c -0.09773,0.04755 -0.200485,0.09314 -0.308735,0.135715 m 0.481747,-0.226371 0.272706,-0.698103 c 0.09148,-0.05078 0.177465,-0.104141 0.258719,-0.159684 l -0.272534,0.698103 c -0.08119,0.05581 -0.16715,0.108899 -0.258891,0.159684 m 0.401743,-0.264769 0.272381,-0.698412 c 0.07438,-0.05868 0.143494,-0.119716 0.207463,-0.18321 l -0.272687,0.698418 c -0.06372,0.06356 -0.132713,0.124279 -0.207157,0.183168 m 0.317937,-0.302221 0.272398,-0.698412 c 0.05704,-0.06627 0.109211,-0.13524 0.155075,-0.206191 l -0.272552,0.698431 c -0.04617,0.07085 -0.09785,0.139842 -0.154921,0.206189 m 0.23382,-0.33985 0.272215,-0.69841 c 0.03193,-0.05955 0.05984,-0.120955 0.08423,-0.183496 l -0.272224,0.698424 c -0.02453,0.06278 -0.05301,0.123643 -0.08423,0.183482 M 3.4836059,24.554173 6.1715566,17.664934 c 4.3577984,4.751283 15.9088134,10.469577 26.3960124,12.996895 7.767674,1.871916 12.851673,1.487457 13.685801,-0.650172 -0.896041,2.29636 -1.792084,4.592724 -2.68812,6.888939 -0.834131,2.137618 -5.918284,2.522064 -13.685634,0.650157 C 19.39227,35.023588 7.8414081,29.305162 3.4836059,24.554173 M 6.094413,17.006026 6.3669552,16.307465 c 0.1103176,0.126984 0.2260318,0.254762 0.3465088,0.383178 l -0.2726999,0.69856 C 6.320287,17.260795 6.2048908,17.133012 6.094413,17.006026 m 0.574289,0.620333 0.2727,-0.698584 c 0.1269843,0.129206 0.2590489,0.259219 0.3958757,0.389527 l -0.272542,0.698415 C 6.9280681,17.885403 6.7958461,17.75557 6.668702,17.626359 m 0.6527028,0.629042 0.27254,-0.698416 c 0.1428591,0.130965 0.2906369,0.262553 0.4428597,0.394459 L 7.7645806,18.649861 C 7.6120417,18.517944 7.4644218,18.386512 7.3214048,18.255401 m 0.7285758,0.637619 0.2723821,-0.69856 c 0.1580949,0.132382 0.3207947,0.265398 0.4876216,0.398411 L 8.5374421,19.29128 C 8.3702992,19.158268 8.2080752,19.025578 8.0499806,18.89302 m 0.7984161,0.64272 0.2725405,-0.698583 c 0.172382,0.133487 0.3487325,0.266978 0.5292105,0.400641 L 9.3776065,19.93636 C 9.1969695,19.802391 9.0204605,19.669058 8.8483967,19.53574 m 0.8663543,0.646979 0.2727002,-0.69841 c 0.1855588,0.133641 0.3749178,0.267624 0.5685698,0.401738 l -0.272534,0.698415 C 10.08999,20.450494 9.900307,20.316535 9.714751,20.182719 m 0.9281,0.647775 0.272532,-0.698561 c 0.198255,0.134114 0.400165,0.267929 0.605574,0.401745 l -0.272384,0.698563 c -0.205709,-0.133796 -0.407619,-0.267932 -0.605722,-0.401747 m 0.987775,0.647952 0.272553,-0.698431 c 0.209991,0.133815 0.423335,0.267305 0.640323,0.400488 l -0.272873,0.698737 c -0.216493,-0.133493 -0.429985,-0.267154 -0.640003,-0.400794 m 1.041291,0.644757 0.272854,-0.698415 c 0.221118,0.133012 0.444916,0.265554 0.671915,0.39809 l -0.272876,0.698431 c -0.226824,-0.132383 -0.450951,-0.265095 -0.671893,-0.398106 m 1.093644,0.641121 0.272552,-0.698416 c 0.230951,0.13174 0.46476,0.263325 0.701264,0.394117 l -0.272531,0.698428 c -0.236505,-0.130957 -0.470334,-0.262221 -0.701285,-0.394129 m 1.138749,0.633644 0.272532,-0.698416 c 0.240485,0.13049 0.483821,0.260477 0.729855,0.389857 l -0.272876,0.698416 c -0.245712,-0.129212 -0.489048,-0.25922 -0.729511,-0.389857 m 1.182384,0.625886 0.272853,-0.698415 c 0.24826,0.128243 0.499202,0.255874 0.752394,0.382535 l -0.272555,0.698584 C 16.586223,24.27972 16.335428,24.152262 16.086694,24.023854 m 1.494137,-0.08314 c 0.255543,0.125715 0.513811,0.250644 0.774129,0.374925 l -0.272225,0.69858 c -0.260645,-0.12429 -0.51874,-0.249219 -0.774613,-0.3751 m 0,0 m 1.253826,0.60175 0.272531,-0.698566 c 0.262697,0.122856 0.527302,0.244915 0.793821,0.365864 l -0.2727,0.698737 c -0.266351,-0.12111 -0.530956,-0.243016 -0.793652,-0.366043 m 1.286029,0.587474 0.272548,-0.698423 c 0.268405,0.119997 0.539058,0.238426 0.81064,0.355882 L 20.658611,26.1842 C 20.3864,26.066741 20.116403,25.948316 19.847977,25.828314 m 1.310808,0.570171 0.272531,-0.698415 c 0.273504,0.115877 0.548418,0.230951 0.824296,0.344435 l -0.272378,0.698427 c -0.276185,-0.1135 -0.551268,-0.228269 -0.824449,-0.344451 m 1.334282,0.552064 0.272553,-0.698411 c 0.277938,0.111898 0.556499,0.222545 0.836504,0.331744 l -0.272378,0.698408 C 23.04974,27.173219 22.770699,27.062443 22.493067,26.950541 m 1.35129,0.530472 0.272532,-0.698408 c 0.28081,0.10726 0.563022,0.213337 0.845411,0.31778 L 24.68992,27.7988 c -0.282862,-0.104449 -0.564775,-0.210488 -0.845563,-0.317789 m 1.366503,0.507787 0.272707,-0.698107 c 0.283491,0.102371 0.567625,0.203031 0.852541,0.302545 l -0.272703,0.698107 c -0.284593,-0.09887 -0.56888,-0.199855 -0.852545,-0.302546 m 1.375408,0.482698 0.272554,-0.698416 c 0.285069,0.09695 0.57095,0.19255 0.856497,0.286188 l -0.272535,0.698417 c -0.285712,-0.09359 -0.571279,-0.188878 -0.856516,-0.286189 m 1.383037,0.456351 0.272378,-0.698738 c 0.286021,0.09148 0.572229,0.181116 0.858248,0.268426 l -0.272532,0.698089 c -0.286189,-0.08731 -0.572228,-0.176668 -0.858094,-0.267777 m 1.383014,0.42635 0.272854,-0.698407 c 0.286362,0.08527 0.572859,0.168563 0.859219,0.249517 l -0.273027,0.698429 c -0.285868,-0.08105 -0.572383,-0.164302 -0.859046,-0.249539 m 1.382861,0.395884 0.272708,-0.698427 c 0.285084,0.07839 0.569847,0.154774 0.854135,0.228742 l -0.272555,0.698416 C 31.305181,29.904731 31.020575,29.828484 30.73518,29.75008 m 1.376513,0.363021 0.272551,-0.698737 c 0.204286,0.05136 0.40762,0.10141 0.611108,0.150626 0.07928,0.01884 0.1581,0.03771 0.236505,0.05629 l -0.272378,0.698408 c -0.07854,-0.01856 -0.157305,-0.03711 -0.236513,-0.05629 -0.203334,-0.04897 -0.407144,-0.09931 -0.611273,-0.150321 m 1.358268,0.325239 0.272535,-0.698414 c 0.276032,0.06292 0.548429,0.122688 0.816987,0.179524 l -0.272378,0.698408 c -0.268735,-0.05678 -0.541113,-0.116671 -0.817144,-0.179516 m 1.307636,0.280783 0.272685,-0.698409 c 0.263968,0.05307 0.524766,0.10348 0.781115,0.150948 l -0.27221,0.698416 c -0.256837,-0.04691 -0.517315,-0.09758 -0.78159,-0.150954 m 1.247928,0.234781 0.272699,-0.698111 c 0.252068,0.04359 0.499853,0.08498 0.744139,0.122705 l -0.2727,0.698735 c -0.243964,-0.03803 -0.492378,-0.07932 -0.744138,-0.123329 m 1.189213,0.190306 0.272549,-0.698417 c 0.239356,0.03487 0.474762,0.06668 0.705869,0.09563 l -0.272533,0.698407 c -0.231428,-0.02914 -0.466507,-0.06072 -0.705885,-0.0956 m 1.125734,0.145717 0.272686,-0.698738 c 0.226194,0.02581 0.448267,0.04846 0.666208,0.06832 l -0.272397,0.698736 c -0.218096,-0.02007 -0.440148,-0.0428 -0.666497,-0.06832 m 1.062852,0.101708 0.272537,-0.69841 c 0.213033,0.01661 0.421752,0.03041 0.626037,0.04157 l -0.272534,0.698429 c -0.204614,-0.01128 -0.413026,-0.02495 -0.62604,-0.04157 m 0.995885,0.05896 0.272699,-0.698737 c 0.198884,0.007 0.393644,0.01275 0.583961,0.01485 l -0.272378,0.698734 c -0.190319,-0.002 -0.385552,-0.0068 -0.584282,-0.01484 m 0.929361,0.01561 0.272552,-0.698414 c 0.184922,-9.51e-4 0.365394,-0.0042 0.541111,-0.01101 l -0.27255,0.698732 c -0.175716,0.0059 -0.35634,0.0093 -0.541113,0.0103 m 0.858268,-0.02581 0.272853,-0.698411 c 0.170486,-0.009 0.336521,-0.02214 0.497935,-0.03682 l -0.272689,0.698439 c -0.161122,0.01487 -0.327315,0.02733 -0.498099,0.03682 m 0.788092,-0.06699 0.272708,-0.698735 c 0.15523,-0.01798 0.305875,-0.03864 0.45142,-0.06204 l -0.27238,0.698418 c -0.145869,0.0233 -0.296342,0.04422 -0.451748,0.06249 m 0.713653,-0.107763 0.272398,-0.698731 c 0.14047,-0.02642 0.275556,-0.05552 0.406019,-0.08717 l -0.272534,0.698424 c -0.130484,0.03164 -0.265724,0.06072 -0.405883,0.08745 m 0.639063,-0.148257 0.272378,-0.698416 c 0.124135,-0.03479 0.243336,-0.07198 0.357613,-0.111584 l -0.272699,0.698418 c -0.113956,0.03976 -0.233334,0.07688 -0.357292,0.111582 m 0.561896,-0.187616 0.272234,-0.698424 c 0.108073,-0.04294 0.210786,-0.08835 0.308405,-0.136026 l -0.272384,0.69845 c -0.09754,0.04769 -0.200476,0.09327 -0.308255,0.136028 m 0.754301,-0.925088 c 0.09134,-0.05078 0.177618,-0.103806 0.258245,-0.159681 l -0.272224,0.698715 c -0.08119,0.05552 -0.167143,0.108903 -0.258727,0.159685 m 1.53e-4,1.59e-4 m 0.401591,-0.265083 0.272552,-0.698417 c 0.07439,-0.05863 0.14349,-0.119687 0.207134,-0.18318 l -0.272531,0.698423 c -0.06372,0.06356 -0.133029,0.124595 -0.207155,0.183174 m 0.318255,-0.30239 0.272232,-0.69841 c 0.0569,-0.06625 0.108908,-0.13524 0.155076,-0.206188 l -0.272705,0.698413 c -0.04632,0.07104 -0.09804,0.140001 -0.154603,0.206185 m 0.51619,-1.031741 c 0.03165,-0.05984 0.04961,-0.127468 0.07394,-0.189688 l -0.272706,0.698099 m -17.211996,9.687397 c 7.767994,1.872235 12.851673,1.487471 13.68595,-0.650157 1.341915,-3.43875 2.683196,-6.877184 4.02526,-10.315616 C 46.073498,30.471506 40.98949,30.85627 33.221841,28.984357 22.343397,26.36275 10.272685,20.248586 6.3206048,15.400943 L 2.3028044,25.725299 C 6.2545736,30.5731 18.318442,36.678677 29.196597,39.300279 M 2.0364536,20.256366 4.4007533,14.197445 c 0.2642239,-0.677122 0.00403,1.564781 0.6942903,2.591913 L 2.7309019,22.848454 C 2.0404233,21.821453 1.8256592,20.952252 2.0364536,20.256366 m 0.8992129,3.661138 2.7065232,-6.92051 C 4.5967856,15.670795 4.2526577,14.562533 4.5759918,13.733789 l -2.6881091,6.888924 c -0.3233355,0.828743 -0.038578,2.007321 1.0477838,3.294791 m -1.583977,-1.895098 c 0.013657,-0.0456 0.029205,-0.09054 0.046504,-0.134763 l 0.2723826,-0.698409 c -0.017136,0.04422 -0.032695,0.08912 -0.046029,0.134916 l -0.2728576,0.698256 m -0.03745,0.150173 0.2725397,-0.69843 c -0.016661,0.08343 -0.028094,0.168887 -0.033646,0.256838 L 1.2807501,22.42955 c 0.00518,-0.08789 0.016826,-0.17381 0.033499,-0.256971 m -0.036977,0.420477 0.2723824,-0.698583 c 0.00181,0.09068 0.00935,0.183344 0.022863,0.27826 L 1.2999717,22.87114 c -0.013657,-0.095 -0.021116,-0.187618 -0.022692,-0.278084 m 0.053811,0.455401 0.2725405,-0.698261 c 0.020787,0.09757 0.047454,0.197612 0.080004,0.299831 l -0.2725503,0.698106 c -0.032697,-0.10202 -0.059209,-0.201755 -0.079679,-0.299521 m 0.1461913,0.489199 0.2725411,-0.69826 c 0.040002,0.104811 0.086183,0.211588 0.1384138,0.32081 l -0.272402,0.698407 C 1.5636073,23.749397 1.517577,23.642575 1.4775745,23.537811 m 0.241747,0.524138 0.272542,-0.698584 c 0.05969,0.111904 0.1258728,0.225556 0.1982553,0.341599 L 1.917408,24.403225 C 1.8450249,24.287502 1.7793112,24.17353 1.719309,24.061949 m 0.3377806,0.556345 0.2727,-0.698087 c 0.079852,0.118406 0.1663495,0.239033 0.2590481,0.361895 l -0.2725399,0.69843 C 2.2235993,24.857658 2.1370899,24.737022 2.0570896,24.618294 M 2.9197935,23.893847 C 1.8743892,22.567491 1.5593085,21.475273 1.8824846,20.646523 L 4.5705952,13.757607 C 4.2471021,14.586175 4.5622752,15.6784 5.6075848,17.0046 L 2.9197935,23.893847 M 4.6796446,13.49396 c 0.013486,-0.04574 0.029042,-0.09068 0.046356,-0.134765 L 4.9983829,12.66061 c -0.017138,0.04437 -0.032544,0.08912 -0.046356,0.134759 L 4.6796448,13.49396 m -0.037627,0.149998 0.2728575,-0.698416 c -0.016988,0.08328 -0.028244,0.169037 -0.033811,0.256975 l -0.2728567,0.698257 c 0.00549,-0.08774 0.016988,-0.173489 0.033809,-0.256816 m -0.03698,0.420323 0.2723823,-0.698584 c 0.00166,0.09068 0.00935,0.183498 0.02254,0.278106 l -0.2722263,0.698561 c -0.013657,-0.09486 -0.021261,-0.187618 -0.022692,-0.278083 m 0.053811,0.455554 0.272383,-0.698585 c 0.020641,0.09754 0.047131,0.197629 0.080005,0.299844 l -0.2725461,0.698414 c -0.032538,-0.10199 -0.059206,-0.201908 -0.07984,-0.299673 m 0.1465072,0.489368 0.2725418,-0.69843 c 0.040154,0.104813 0.086183,0.21159 0.1385716,0.320813 L 4.9439344,15.329993 C 4.8913974,15.22093 4.8453654,15.113952 4.8053615,15.009203 m 0.2415886,0.52397 0.2727,-0.698429 c 0.059838,0.111595 0.1258738,0.225573 0.1982559,0.341444 L 5.2453632,15.874756 C 5.1729806,15.758725 5.1069472,15.644923 5.046947,15.533173 m 0.337938,0.556498 0.2725424,-0.698414 c 0.080004,0.11858 0.1665077,0.239208 0.2592066,0.361916 L 5.6440936,16.451756 C 5.5512352,16.329054 5.4648857,16.208246 5.384885,16.089671 M 2.3586787,25.794175 6.3688592,15.460154 C 5.2388532,14.073961 4.8907561,12.936336 5.2248844,12.080125 l -4.024943,10.315932 c -0.33396972,0.856041 0.013657,1.993513 1.1438171,3.379706" /><path
   d="m 16.768743,28.655954 c -0.881755,-2.413496 -3.067648,-4.253838 -3.067648,-4.253838 0,0 -1.665396,2.302869 -2.188592,4.440184 l 0.01812,-0.03653 c 0,0 2.791115,0.612852 5.242411,-0.1581 z"
   id="path4426"
   style="fill:#b900ff;fill-opacity:1;stroke-width:0.158729" /></svg>
