<?xml version="1.0" encoding="UTF-8" standalone="no"?>
<svg
   width="16"
   height="16"
   version="1"
   id="svg9"
   xmlns:xlink="http://www.w3.org/1999/xlink"
   xmlns="http://www.w3.org/2000/svg"
   xmlns:svg="http://www.w3.org/2000/svg"
   xmlns:rdf="http://www.w3.org/1999/02/22-rdf-syntax-ns#"
   xmlns:cc="http://creativecommons.org/ns#"
   xmlns:dc="http://purl.org/dc/elements/1.1/">
   <defs>
   <style id="current-color-scheme" type="text/css">
   .ColorScheme-Text { color: #0abdc6; } .ColorScheme-Highlight { color:#5294e2; }
  </style>
  <linearGradient id="arrongin" x1="0%" x2="0%" y1="0%" y2="100%">
   <stop offset="0%" style="stop-color:#dd9b44; stop-opacity:1"/>
   <stop offset="100%" style="stop-color:#ad6c16; stop-opacity:1"/>
  </linearGradient>
  <linearGradient id="aurora" x1="0%" x2="0%" y1="0%" y2="100%">
   <stop offset="0%" style="stop-color:#09D4DF; stop-opacity:1"/>
   <stop offset="100%" style="stop-color:#9269F4; stop-opacity:1"/>
  </linearGradient>
  <linearGradient id="cyberneon" x1="0%" x2="0%" y1="0%" y2="100%">
    <stop offset="0" style="stop-color:#0abdc6; stop-opacity:1"/>
    <stop offset="1" style="stop-color:#ea00d9; stop-opacity:1"/>
  </linearGradient>
  <linearGradient id="fitdance" x1="0%" x2="0%" y1="0%" y2="100%">
   <stop offset="0%" style="stop-color:#1AD6AB; stop-opacity:1"/>
   <stop offset="100%" style="stop-color:#329DB6; stop-opacity:1"/>
  </linearGradient>
  <linearGradient id="oomox" x1="0%" x2="0%" y1="0%" y2="100%">
   <stop offset="0%" style="stop-color:#0abdc6; stop-opacity:1"/>
   <stop offset="100%" style="stop-color:#b800ff; stop-opacity:1"/>
  </linearGradient>
  <linearGradient id="rainblue" x1="0%" x2="0%" y1="0%" y2="100%">
   <stop offset="0%" style="stop-color:#00F260; stop-opacity:1"/>
   <stop offset="100%" style="stop-color:#0575E6; stop-opacity:1"/>
  </linearGradient>
  <linearGradient id="sunrise" x1="0%" x2="0%" y1="0%" y2="100%">
   <stop offset="0%" style="stop-color: #FF8501; stop-opacity:1"/>
   <stop offset="100%" style="stop-color: #FFCB01; stop-opacity:1"/>
  </linearGradient>
  <linearGradient id="telinkrin" x1="0%" x2="0%" y1="0%" y2="100%">
   <stop offset="0%" style="stop-color: #b2ced6; stop-opacity:1"/>
   <stop offset="100%" style="stop-color: #6da5b7; stop-opacity:1"/>
  </linearGradient>
  <linearGradient id="60spsycho" x1="0%" x2="0%" y1="0%" y2="100%">
   <stop offset="0%" style="stop-color: #df5940; stop-opacity:1"/>
   <stop offset="25%" style="stop-color: #d8d15f; stop-opacity:1"/>
   <stop offset="50%" style="stop-color: #e9882a; stop-opacity:1"/>
   <stop offset="100%" style="stop-color: #279362; stop-opacity:1"/>
  </linearGradient>
  <linearGradient id="90ssummer" x1="0%" x2="0%" y1="0%" y2="100%">
   <stop offset="0%" style="stop-color: #f618c7; stop-opacity:1"/>
   <stop offset="20%" style="stop-color: #94ffab; stop-opacity:1"/>
   <stop offset="50%" style="stop-color: #fbfd54; stop-opacity:1"/>
   <stop offset="100%" style="stop-color: #0f83ae; stop-opacity:1"/>
  </linearGradient>
 </defs>
  <path
     id="path4"
     class="ColorScheme-Text"
     style="fill:url(#oomox);stroke-width:0.355555"
     d="M 8 0 A 6.3800871 6.3800871 0 0 0 3.4746094 1.875 A 6.379376 6.379376 0 0 0 1.5996094 6.4003906 C 1.5996094 8.038433 2.2251886 9.6760052 3.4746094 10.925781 C 4.6734178 12.127979 6.3029509 12.801918 5.9882812 12.580078 L 7.0566406 8.5253906 C 6.7956453 8.4094823 6.5574818 8.2467734 6.3554688 8.0449219 A 2.3271105 2.3271105 0 0 1 5.671875 6.4003906 A 2.3271105 2.3271105 0 0 1 6.3554688 4.7558594 A 2.3271105 2.3271105 0 0 1 8 4.0722656 A 2.3271105 2.3271105 0 0 1 9.6445312 4.7558594 A 2.3271105 2.3271105 0 0 1 10.326172 6.4003906 A 2.3271105 2.3271105 0 0 1 9.6445312 8.0449219 C 9.4425452 8.2463681 9.2041518 8.407825 8.9433594 8.5234375 L 9.8847656 12.244141 C 9.3567075 12.457213 11.025399 12.197788 12.523438 10.923828 L 12.525391 10.923828 A 6.379376 6.379376 0 0 0 14.400391 6.4003906 C 14.400391 4.7623483 13.775166 3.1247758 12.525391 1.875 A 6.379376 6.379376 0 0 0 8 0 z " />
  <path
     d="m 5.8664924,11.733335 c -0.196978,0 -0.355556,0.158578 -0.355556,0.355555 0,0.196978 0.158578,0.355556 0.355556,0.355556 -0.196978,0 -0.355556,0.158577 -0.355556,0.355555 0,0.196978 0.158578,0.355556 0.355556,0.355556 -0.196978,0 -0.355556,0.158577 -0.355556,0.355555 0,0.196978 0.158578,0.355556 0.355556,0.355556 -0.196978,0 -0.355556,0.158577 -0.355556,0.355555 0,0.196978 0.158578,0.355555 0.355556,0.355555 h 1.066666 v 0.355556 c 0,0.590933 0.475733,1.066666 1.066666,1.066666 0.590934,0 1.066667,-0.475733 1.066667,-1.066666 v -0.355556 h 1.0666656 c 0.196978,0 0.355556,-0.158577 0.355556,-0.355555 0,-0.196978 -0.158578,-0.355555 -0.355556,-0.355555 0.196978,0 0.355556,-0.158578 0.355556,-0.355556 0,-0.196978 -0.158578,-0.355555 -0.355556,-0.355555 0.196978,0 0.355556,-0.158578 0.355556,-0.355556 0,-0.196978 -0.158578,-0.355555 -0.355556,-0.355555 0.196978,0 0.355556,-0.158578 0.355556,-0.355556 0,-0.196977 -0.158578,-0.355555 -0.355556,-0.355555 z"
     id="path9"
     class="ColorScheme-Text"
     style="stroke-width:0.355555;fill:url(#oomox);opacity:1" />
  <metadata
     id="metadata9">
    <rdf:RDF>
      <cc:Work
         rdf:about="">
        <dc:creator>
          <cc:Agent>
            <dc:title>dreifacherspass</dc:title>
          </cc:Agent>
        </dc:creator>
        <cc:license
           rdf:resource="http://creativecommons.org/licenses/by-sa/4.0/" />
      </cc:Work>
      <cc:License
         rdf:about="http://creativecommons.org/licenses/by-sa/4.0/">
        <cc:permits
           rdf:resource="http://creativecommons.org/ns#Reproduction" />
        <cc:permits
           rdf:resource="http://creativecommons.org/ns#Distribution" />
        <cc:requires
           rdf:resource="http://creativecommons.org/ns#Notice" />
        <cc:requires
           rdf:resource="http://creativecommons.org/ns#Attribution" />
        <cc:permits
           rdf:resource="http://creativecommons.org/ns#DerivativeWorks" />
        <cc:requires
           rdf:resource="http://creativecommons.org/ns#ShareAlike" />
      </cc:License>
    </rdf:RDF>
  </metadata>
</svg>
