<?xml version="1.0" encoding="UTF-8" standalone="no"?>
<svg
   version="1.1"
   id="Layer_1"
   x="0px"
   y="0px"
   width="48"
   height="48"
   viewBox="0 0 48 48"
   enable-background="new 0 0 360 360"
   xml:space="preserve"
   xmlns:xlink="http://www.w3.org/1999/xlink"
   xmlns="http://www.w3.org/2000/svg"
   xmlns:svg="http://www.w3.org/2000/svg"
   xmlns:rdf="http://www.w3.org/1999/02/22-rdf-syntax-ns#"
   xmlns:cc="http://creativecommons.org/ns#"
   xmlns:dc="http://purl.org/dc/elements/1.1/"><defs
   id="defs13"><style
   id="current-color-scheme"
   type="text/css">
      .ColorScheme-Text { color: #0abdc6; } .ColorScheme-Highlight { color:#5294e2; }
     </style>
    <linearGradient
   id="arrongin"
   x1="0%"
   x2="0%"
   y1="0%"
   y2="100%">
      <stop
   offset="0%"
   style="stop-color:#dd9b44; stop-opacity:1"
   id="stop9192" />
      <stop
   offset="100%"
   style="stop-color:#ad6c16; stop-opacity:1"
   id="stop9194" />
    </linearGradient>
    <linearGradient
   id="aurora"
   x1="0%"
   x2="0%"
   y1="0%"
   y2="100%">
      <stop
   offset="0%"
   style="stop-color:#09D4DF; stop-opacity:1"
   id="stop9197" />
      <stop
   offset="100%"
   style="stop-color:#9269F4; stop-opacity:1"
   id="stop9199" />
    </linearGradient>
    <linearGradient
   id="cyberneon"
   x1="0%"
   x2="0%"
   y1="0%"
   y2="100%">
      <stop
   offset="0"
   style="stop-color:#0abdc6; stop-opacity:1"
   id="stop9202" />
      <stop
   offset="1"
   style="stop-color:#ea00d9; stop-opacity:1"
   id="stop9204" />
    </linearGradient>
    <linearGradient
   id="fitdance"
   x1="0%"
   x2="0%"
   y1="0%"
   y2="100%">
      <stop
   offset="0%"
   style="stop-color:#1AD6AB; stop-opacity:1"
   id="stop9207" />
      <stop
   offset="100%"
   style="stop-color:#329DB6; stop-opacity:1"
   id="stop9209" />
    </linearGradient>
    <linearGradient
   id="oomox"
   x1="0%"
   x2="0%"
   y1="0%"
   y2="100%">
      <stop
   offset="0%"
   style="stop-color:#0abdc6; stop-opacity:1"
   id="stop9212" />
      <stop
   offset="100%"
   style="stop-color:#b800ff; stop-opacity:1"
   id="stop9214" />
    </linearGradient>
    <linearGradient
   id="rainblue"
   x1="0%"
   x2="0%"
   y1="0%"
   y2="100%">
      <stop
   offset="0%"
   style="stop-color:#00F260; stop-opacity:1"
   id="stop9217" />
      <stop
   offset="100%"
   style="stop-color:#0575E6; stop-opacity:1"
   id="stop9219" />
    </linearGradient>
    <linearGradient
   id="sunrise"
   x1="0%"
   x2="0%"
   y1="0%"
   y2="100%">
      <stop
   offset="0%"
   style="stop-color: #FF8501; stop-opacity:1"
   id="stop9222" />
      <stop
   offset="100%"
   style="stop-color: #FFCB01; stop-opacity:1"
   id="stop9224" />
    </linearGradient>
    <linearGradient
   id="telinkrin"
   x1="0%"
   x2="0%"
   y1="0%"
   y2="100%">
      <stop
   offset="0%"
   style="stop-color: #b2ced6; stop-opacity:1"
   id="stop9227" />
      <stop
   offset="100%"
   style="stop-color: #6da5b7; stop-opacity:1"
   id="stop9229" />
    </linearGradient>
    <linearGradient
   id="60spsycho"
   x1="0%"
   x2="0%"
   y1="0%"
   y2="100%">
      <stop
   offset="0%"
   style="stop-color: #df5940; stop-opacity:1"
   id="stop9232" />
      <stop
   offset="25%"
   style="stop-color: #d8d15f; stop-opacity:1"
   id="stop9234" />
      <stop
   offset="50%"
   style="stop-color: #e9882a; stop-opacity:1"
   id="stop9236" />
      <stop
   offset="100%"
   style="stop-color: #279362; stop-opacity:1"
   id="stop9238" />
    </linearGradient>
    <linearGradient
   id="90ssummer"
   x1="0%"
   x2="0%"
   y1="0%"
   y2="100%">
      <stop
   offset="0%"
   style="stop-color: #f618c7; stop-opacity:1"
   id="stop9241" />
      <stop
   offset="20%"
   style="stop-color: #94ffab; stop-opacity:1"
   id="stop9243" />
      <stop
   offset="50%"
   style="stop-color: #fbfd54; stop-opacity:1"
   id="stop9245" />
      <stop
   offset="100%"
   style="stop-color: #0f83ae; stop-opacity:1"
   id="stop9247" />
    </linearGradient>
    </defs>
   <metadata
    id="metadata4432"><rdf:RDF><cc:Work
       rdf:about=""><dc:format>image/svg+xml</dc:format><dc:type
         rdf:resource="http://purl.org/dc/dcmitype/StillImage" /><dc:contributor><cc:Agent><dc:title>dreifacherspass</dc:title></cc:Agent></dc:contributor><cc:license
         rdf:resource="http://creativecommons.org/licenses/by-sa/4.0/" /></cc:Work><cc:License
       rdf:about="http://creativecommons.org/licenses/by-sa/4.0/"><cc:permits
         rdf:resource="http://creativecommons.org/ns#Reproduction" /><cc:permits
         rdf:resource="http://creativecommons.org/ns#Distribution" /><cc:requires
         rdf:resource="http://creativecommons.org/ns#Notice" /><cc:requires
         rdf:resource="http://creativecommons.org/ns#Attribution" /><cc:permits
         rdf:resource="http://creativecommons.org/ns#DerivativeWorks" /><cc:requires
         rdf:resource="http://creativecommons.org/ns#ShareAlike" /></cc:License>
       </rdf:RDF>
    </metadata>
    <path
   style="fill:none;fill-opacity:1;stroke:url(#oomox);stroke-width:1.63778;stroke-dasharray:none"
   d="M 19.733757,44.812099 C 24.95364,41.320363 30.413712,37.885679 34.473874,33.01005 35.8793,31.322348 37.55176,27.715624 35.815733,25.842402 33.393696,23.228957 29.654137,22.582543 26.43875,21.371942 23.743739,20.357264 20.44688,19.6571 18.831169,17.077288 17.422326,14.827782 19.281187,12.236605 20.794675,10.510469 23.113641,7.8656853 26.050459,5.1933491 28.87554,3.1206305"
   id="path4155-7"
   class="ColorScheme-Text"/>
    <polygon
   points="55.421,120.633 54.597,115.189 58.409,105.417 60.549,111.477 "
   id="polygon4111"
   class="ColorScheme-Text"
   style="fill:url(#oomox);fill-opacity:1"
   transform="matrix(0.16217457,0,0,0.16217457,-4.8344493,-4.8005395)" />
    <polygon
   points="316.188,219.355 313.359,214.057 317.171,204.285 320.496,209.064 "
   id="polygon4113"
   class="ColorScheme-Text"
   style="fill:url(#oomox);fill-opacity:1"
   transform="matrix(0.16217457,0,0,0.16217457,-4.8344493,-4.8005395)" />
    <path
   style="fill:url(#oomox);fill-opacity:1;stroke-width:0.162173"
   id="path4117"
   class="ColorScheme-Text"
   d="m 6.8992115,10.3216 c -2.7868082,0.779891 -2.1674644,2.671348 -2.1674644,2.671348 l 0.2192604,1.070677 C 4.9508463,14.063446 9.6858593,9.5418639 6.8992115,10.3216 Z m -1.9191742,1.762509 -0.1840677,0.177589 0.2628848,-0.698819 0.1993131,-0.192663 z m 0.390517,-0.279742 -0.2396945,0.159409 0.2659668,-0.704486 0.2523436,-0.168663 z m 0.4732246,-0.240338 -0.278453,0.13168 0.2534784,-0.700757 0.303429,-0.144506 z" /><path
   style="fill:url(#oomox);fill-opacity:1;stroke-width:0.162173"
   id="path4121"
   class="ColorScheme-Text"
   d="m 45.782365,30.028408 0.884016,-0.642364 c 0,0 1.733011,-0.978732 0.201586,-3.434209 -1.531254,-2.455323 -1.085602,4.076573 -1.085602,4.076573 z m 1.589647,-2.19534 0.01726,0.276504 -0.277147,0.693293 -0.01607,-0.255261 z m -0.09984,-0.470162 0.07239,0.29452 -0.278929,0.699298 -0.0693,-0.279438 z m -0.186986,-0.496896 0.126497,0.311693 -0.285581,0.688285 -0.116937,-0.285112 z" /><path
   style="opacity:1;fill:url(#oomox);fill-opacity:1;stroke-width:0.162449;stroke-dasharray:none"
   id="path4188"
   class="ColorScheme-Text"
   d="M 16.517471,45.079191 C 12.592345,43.556541 9.0496481,40.925739 6.4036069,37.268213 2.8842545,32.404286 1.4548471,26.458622 2.3785931,20.526451 3.3021788,14.594081 6.47172,9.3644445 11.302906,5.8006566 c 0.02822,-0.020753 0.05734,-0.0399 0.08667,-0.057255 0.02563,-0.023184 0.05281,-0.045088 0.08135,-0.065999 C 16.366833,2.135185 22.3493,0.71145315 28.316027,1.6687697 c 5.966905,0.9569937 11.203836,4.1807005 14.746218,9.0767513 3.541895,4.895719 4.965799,10.87818 4.008633,16.844755 -0.957129,5.966882 -4.180683,11.203681 -9.076729,14.745886 -6.449361,4.666423 -14.555495,5.428473 -21.476786,2.743024 z M 12.498774,7.2600661 c -0.02366,0.021089 -0.04843,0.04151 -0.07466,0.060806 C 3.3080152,14.045449 1.2936437,26.983096 7.9335613,36.160885 14.635749,45.423823 27.62416,47.507441 36.886771,40.805734 41.374308,37.559324 44.32847,32.759767 45.205511,27.291064 46.082887,21.82287 44.77834,16.340058 41.531607,11.85285 38.284869,7.3656409 33.485482,4.411467 28.016952,3.5341026 22.548428,2.6567388 17.065773,3.9615958 12.57841,7.2081704 c -0.02594,0.018656 -0.05246,0.036013 -0.07965,0.051886 z" /><path
   id="path4376-5"
   class="ColorScheme-Text"
   style="fill:url(#oomox);fill-opacity:1;stroke:url(#oomox);stroke-width:0.162173"
   d="M 3.3513436,24.187844 5.766934,17.997303 c 1.0697044,1.13815 2.5365743,2.32803 4.293082,3.515798 L 7.6444303,27.70347 C 5.887918,26.516017 4.4210482,25.325978 3.3513436,24.187844 m 6.2918898,4.791771 2.4154326,-6.190524 c 0.0127,0.0069 0.02492,0.01501 0.03718,0.02261 1.941556,1.17154 4.130091,2.321197 6.459894,3.395931 0.01469,0.006 0.02991,0.01367 0.04453,0.02051 l -2.415416,6.190523 c -0.01485,-0.0063 -0.02977,-0.01397 -0.04454,-0.02081 -2.330285,-1.074739 -4.518335,-2.224235 -6.4597324,-3.39562 -0.012325,-0.0069 -0.024969,-0.0152 -0.037297,-0.02261 m 9.1177684,4.570091 2.415756,-6.190547 c 2.435389,1.018944 4.974717,1.942375 7.510631,2.715777 L 26.272178,36.26549 C 23.735931,35.492061 21.196445,34.568651 18.76106,33.549706 m 10.309289,3.507669 2.415421,-6.190854 c 0.379006,0.09876 0.756872,0.193466 1.133447,0.284454 2.126758,0.512467 4.056789,0.859356 5.759138,1.050895 l -2.415581,6.190194 C 34.260425,38.200698 32.330709,37.85398 30.203613,37.341186 29.82738,37.250536 29.449342,37.155804 29.070346,37.057373 m 8.924628,1.494759 2.41575,-6.190525 c 1.770463,0.07209 3.207653,-0.06494 4.26115,-0.396189 l -2.415453,6.190518 c -1.053324,0.331169 -2.490681,0.468373 -4.261467,0.396195 m 5.27895,-0.848002 2.415601,-6.190545 c 0.44678,-0.278774 0.754102,-0.622089 0.912234,-1.027203 -0.80504,2.063674 -1.610406,4.126848 -2.415605,6.190521 -0.158108,0.405111 -0.46528,0.748448 -0.91223,1.027227 M 3.0385089,24.566196 c 4.4523435,4.85406 16.2537981,10.696546 26.9686641,13.278537 7.93586,1.912518 13.130313,1.519731 13.98254,-0.664262 0.915475,-2.346185 1.830957,-4.692364 2.746438,-7.038393 -0.852224,2.184005 -6.046519,2.576804 -13.982711,0.664278 C 22.038724,28.224208 10.237113,22.381706 5.784774,17.527497 l -2.7462651,7.038699 m -0.7325429,1.001746 0.278616,-0.71356 c 0.1125474,0.129895 0.2304496,0.260291 0.3540264,0.391492 l -0.2784528,0.71356 C 2.5369016,25.828396 2.4186771,25.69786 2.305966,25.567942 m 0.5869092,0.633463 0.2787788,-0.713254 c 0.1294143,0.131701 0.2643441,0.264844 0.4043016,0.397828 L 3.2973397,26.59954 C 3.1575456,26.466226 3.0224523,26.333569 2.8928752,26.201405 m 0.6666997,0.643018 0.278616,-0.713562 c 0.1459584,0.133955 0.2967809,0.268242 0.4526308,0.402839 L 4.0120424,27.24726 C 3.8565171,27.11249 3.7056946,26.978222 3.5595749,26.844423 m 0.7443821,0.651612 0.2784546,-0.71357 c 0.1613627,0.135262 0.3274295,0.270832 0.4977128,0.406748 L 4.8018328,27.90311 C 4.631225,27.766877 4.4653219,27.631288 4.303957,27.496035 m 0.8157382,0.656332 0.2784545,-0.713253 c 0.1757967,0.136226 0.3564591,0.272785 0.5406901,0.409174 l -0.2784545,0.71356 C 5.475832,28.424982 5.2958178,28.288592 5.1196952,28.152367 m 0.8851492,0.661016 0.2784548,-0.713568 c 0.1895826,0.137202 0.3833807,0.27392 0.5810709,0.410788 L 6.585754,29.224171 C 6.3882253,29.086968 6.1947517,28.950272 6.0048444,28.813383 m 0.9482366,0.662008 0.2784525,-0.713569 c 0.2023941,0.136873 0.4088432,0.273742 0.6186973,0.41046 L 7.5717763,29.885841 C 7.3617607,29.748975 7.1554747,29.612257 6.953081,29.475391 m 1.0093747,0.661985 0.2782919,-0.713568 c 0.2143943,0.136875 0.4326821,0.273436 0.65405,0.409176 l -0.27813,0.713567 C 8.3948134,30.410476 8.177013,30.273936 7.9624557,30.137376 m 1.0640286,0.658917 0.2786163,-0.713567 c 0.225422,0.135898 0.4544116,0.271487 0.6864854,0.406729 l -0.2787806,0.71358 C 9.4810579,31.067625 9.2520674,30.932033 9.0264843,30.796293 m 1.1172267,0.655029 0.278448,-0.713567 c 0.235805,0.134597 0.474686,0.268888 0.716657,0.402508 l -0.278623,0.713568 C 10.618379,31.720203 10.379501,31.58592 10.143711,31.451322 m 1.163281,0.647392 0.278287,-0.713568 c 0.246009,0.13332 0.494474,0.266128 0.745517,0.398144 l -0.278289,0.713563 c -0.251375,-0.132169 -0.499991,-0.264826 -0.745515,-0.398139 m 1.20852,0.63913 0.278131,-0.713234 c 0.253959,0.130865 0.510189,0.261269 0.76903,0.390835 l -0.278466,0.713582 C 13.025395,32.999444 12.76883,32.869043 12.515512,32.737844 m 1.247285,0.628757 0.278442,-0.71356 c 0.261598,0.12859 0.5253,0.25623 0.79109,0.383206 l -0.278293,0.713254 c -0.265792,-0.126669 -0.52966,-0.254288 -0.791239,-0.3829 m 1.281183,0.614475 0.2786,-0.713234 c 0.26824,0.125679 0.538585,0.250228 0.810559,0.374137 l -0.278287,0.713233 C 15.582871,34.231653 15.312533,34.106924 15.04398,33.981076 m 1.313925,0.600534 0.278293,-0.71356 c 0.27425,0.122272 0.550594,0.243912 0.828242,0.363603 l -0.278467,0.713566 C 16.908326,34.825195 16.632308,34.704218 16.357905,34.58161 m 1.33925,0.582545 0.278293,-0.713255 c 0.279416,0.118392 0.56031,0.235636 0.842485,0.351927 L 18.53964,35.51606 c -0.282346,-0.115944 -0.563219,-0.233358 -0.842485,-0.351905 m 1.363408,0.564197 0.278287,-0.713562 c 0.283793,0.114324 0.568899,0.227372 0.854808,0.338941 l -0.278772,0.713561 c -0.28558,-0.111583 -0.570362,-0.224609 -0.854323,-0.33894 m 1.380254,0.541494 0.27846,-0.71323 c 0.287214,0.109592 0.575395,0.21795 0.86406,0.324661 l -0.278775,0.713252 c -0.288513,-0.106407 -0.576849,-0.214726 -0.863745,-0.324683 m 1.396501,0.519617 0.278444,-0.713578 c 0.289813,0.104759 0.57994,0.207746 0.870881,0.308782 l -0.278625,0.713578 c -0.290783,-0.101413 -0.581061,-0.20434 -0.8707,-0.308782 m 1.404912,0.49317 0.278442,-0.713896 c 0.291607,0.09905 0.583346,0.196728 0.875257,0.292399 l -0.278444,0.713569 c -0.291761,-0.09563 -0.583674,-0.193313 -0.875255,-0.292072 m 1.413198,0.46561 0.278287,-0.71358 c 0.292224,0.09347 0.584465,0.185042 0.876867,0.274246 l -0.278444,0.71356 c -0.292247,-0.08964 -0.584644,-0.18114 -0.87671,-0.274226 m 1.413346,0.435764 0.278116,-0.713566 c 0.293061,0.0871 0.585299,0.172219 0.878032,0.255258 l -0.278467,0.713234 c -0.29273,-0.08253 -0.584968,-0.167849 -0.877681,-0.254926 m 1.412862,0.404451 0.278296,-0.713233 c 0.29109,0.07981 0.582208,0.1578 0.872486,0.233359 l -0.278289,0.713582 c -0.290456,-0.07553 -0.581546,-0.153582 -0.872493,-0.233708 m 1.406048,0.37073 0.278615,-0.713557 c 0.208717,0.05246 0.416797,0.103914 0.624542,0.153893 0.08053,0.01925 0.161531,0.03853 0.241636,0.05752 l -0.278445,0.713561 c -0.08009,-0.01896 -0.160718,-0.03821 -0.241655,-0.05752 -0.207744,-0.05018 -0.416135,-0.101761 -0.624693,-0.153918 m 1.387734,0.332456 0.278446,-0.713567 c 0.281862,0.06428 0.560328,0.125367 0.834884,0.183438 l -0.278131,0.713549 c -0.274891,-0.05815 -0.553179,-0.119045 -0.835199,-0.183429 m 1.336313,0.28705 0.278293,-0.713561 c 0.27018,0.05459 0.536308,0.10611 0.798389,0.154221 l -0.278621,0.713571 c -0.262389,-0.04845 -0.528032,-0.09971 -0.798061,-0.154231 m 1.274695,0.239696 0.278465,-0.713234 c 0.257357,0.04483 0.510847,0.08665 0.760431,0.125677 l -0.278464,0.713569 c -0.249252,-0.03889 -0.502904,-0.08088 -0.760432,-0.126011 m 1.21501,0.194614 0.278464,-0.713569 c 0.244726,0.03562 0.484906,0.06813 0.721024,0.0977 l -0.278136,0.713544 c -0.236289,-0.02977 -0.47678,-0.06222 -0.721352,-0.09766 m 1.150158,0.148549 0.278444,-0.713231 c 0.231258,0.02593 0.458151,0.04903 0.680977,0.06979 l -0.278465,0.713257 c -0.222826,-0.02036 -0.449697,-0.04338 -0.680956,-0.06981 m 1.086068,0.104067 0.278291,-0.713566 c 0.217811,0.01711 0.430903,0.03107 0.639304,0.04218 l -0.278287,0.713889 c -0.208735,-0.01127 -0.421987,-0.02553 -0.639308,-0.04247 m 1.017483,0.05988 0.278465,-0.713231 c 0.203357,0.0069 0.402358,0.01306 0.596631,0.01517 l -0.278287,0.713564 c -0.19445,-0.0023 -0.393589,-0.0069 -0.596809,-0.01551 m 0.949551,0.0166 0.278287,-0.713238 c 0.188934,-0.0012 0.373166,-0.0043 0.55285,-0.01126 l -0.278624,0.713532 c -0.179367,0.0057 -0.363909,0.0093 -0.552513,0.01052 m 0.87686,-0.02637 0.278465,-0.713568 c 0.174497,-0.0092 0.344135,-0.02229 0.508894,-0.03762 l -0.278775,0.713569 c -0.164765,0.01501 -0.334246,0.02778 -0.508584,0.03762 m 0.8052,-0.06884 0.278289,-0.713563 c 0.158772,-0.01837 0.312687,-0.03948 0.461566,-0.06341 l -0.278794,0.713564 c -0.14855,0.02381 -0.302444,0.04518 -0.461061,0.06339 m 0.728974,-0.10987 0.278464,-0.713565 c 0.143206,-0.02732 0.281686,-0.05672 0.414668,-0.08936 l -0.278287,0.71329 c -0.133136,0.03278 -0.271483,0.06236 -0.414845,0.08964 m 0.653085,-0.15131 0.278287,-0.713565 c 0.126978,-0.0356 0.248616,-0.07354 0.365215,-0.114003 l -0.27813,0.71324 c -0.116913,0.04078 -0.238721,0.07886 -0.365372,0.114328 m 0.573774,-0.192009 0.278624,-0.71325 c 0.110225,-0.04387 0.215191,-0.08994 0.315095,-0.138976 l -0.278286,0.713595 c -0.09985,0.04858 -0.204834,0.09516 -0.315433,0.138659 m 0.492198,-0.231282 0.278623,-0.713248 c 0.09346,-0.05188 0.181315,-0.106401 0.264332,-0.163149 l -0.278447,0.713249 c -0.08295,0.05702 -0.170776,0.111261 -0.264508,0.163148 m 0.410459,-0.270513 0.27829,-0.713564 c 0.07599,-0.05995 0.146607,-0.122313 0.211964,-0.187185 l -0.278603,0.71357 c -0.0651,0.06494 -0.135592,0.126975 -0.211651,0.187142 m 0.324835,-0.308778 0.278307,-0.713563 c 0.05828,-0.06771 0.111581,-0.138174 0.15844,-0.210665 l -0.278465,0.713584 c -0.04717,0.07239 -0.09997,0.142875 -0.158282,0.210662 m 0.238892,-0.347223 0.278121,-0.713562 c 0.03262,-0.06084 0.06114,-0.123579 0.08606,-0.187477 l -0.278129,0.713576 c -0.02506,0.06414 -0.05416,0.126326 -0.08606,0.187463 M 3.0385089,24.566196 5.784774,17.527497 c 4.452339,4.854361 16.25395,10.696711 26.968666,13.278859 7.936192,1.912526 13.130487,1.519727 13.982711,-0.664278 -0.915481,2.346179 -1.830963,4.692362 -2.746438,7.038393 -0.852227,2.183993 -6.04668,2.57678 -13.98254,0.664262 C 19.292307,35.262742 7.4908524,29.420256 3.0385089,24.566196 m 2.6674479,-7.711902 0.2784549,-0.713716 c 0.1127109,0.129739 0.2309355,0.260289 0.3540262,0.391491 L 6.0598218,17.245784 C 5.936731,17.11459 5.8188313,16.984035 5.7059568,16.854294 m 0.586748,0.633791 0.2786161,-0.71374 c 0.1297392,0.132009 0.2646689,0.264843 0.4044642,0.397978 L 6.6973303,17.88589 C 6.5576978,17.752749 6.4226072,17.620099 6.2927048,17.488085 m 0.666863,0.642689 0.2784527,-0.713568 c 0.1459584,0.133806 0.2969422,0.268249 0.4524674,0.403017 L 7.4123582,18.533791 C 7.25651,18.399013 7.1056875,18.264729 6.9595678,18.130774 m 0.744382,0.651452 0.2782914,-0.713715 c 0.1615247,0.135254 0.3277542,0.271155 0.4982004,0.407054 L 8.2019867,19.189126 C 8.0312177,19.053228 7.8654743,18.91766 7.7039498,18.782226 m 0.8157376,0.656663 0.2784531,-0.713738 c 0.1761218,0.136383 0.3562982,0.27277 0.5406916,0.409333 L 9.0603782,19.848201 C 8.8758223,19.711325 8.695484,19.5751 8.5196874,19.438889 m 0.8851496,0.661015 0.2786163,-0.713561 c 0.1895845,0.13654 0.3830517,0.27343 0.5809047,0.410453 L 9.9859115,20.510363 C 9.7882167,20.373489 9.5944186,20.236623 9.404837,20.099904 m 0.948235,0.661829 0.278444,-0.713716 c 0.202556,0.137023 0.408847,0.273741 0.618712,0.41046 l -0.278293,0.713718 c -0.210172,-0.136698 -0.416463,-0.273744 -0.618863,-0.410462 m 1.009204,0.662009 0.278466,-0.713583 c 0.214547,0.136718 0.432519,0.273104 0.654215,0.409176 l -0.278793,0.713896 c -0.22119,-0.136389 -0.439314,-0.27295 -0.653888,-0.409489 m 1.063882,0.658745 0.278773,-0.713567 c 0.225915,0.135897 0.454568,0.271315 0.686492,0.406726 l -0.278796,0.713583 c -0.231745,-0.135255 -0.460734,-0.270846 -0.686469,-0.406742 m 1.11737,0.65503 0.278465,-0.713568 c 0.235961,0.134598 0.474843,0.269037 0.716478,0.402667 l -0.278444,0.71358 c -0.241636,-0.133798 -0.480538,-0.26791 -0.716499,-0.402679 m 1.163454,0.64739 0.278444,-0.713568 c 0.245703,0.133321 0.494318,0.266128 0.745689,0.398315 l -0.278796,0.713568 c -0.251042,-0.132015 -0.499657,-0.264844 -0.745337,-0.398315 m 1.208035,0.639465 0.278773,-0.713567 c 0.253646,0.131025 0.510032,0.261425 0.768717,0.390834 l -0.278468,0.713739 c -0.258656,-0.129589 -0.514892,-0.259812 -0.769022,-0.391006 m 1.526552,-0.08494 c 0.261087,0.128442 0.524958,0.256082 0.790924,0.383059 l -0.278131,0.713735 c -0.2663,-0.126986 -0.529994,-0.254625 -0.791418,-0.383237 m 0,0 m 1.281027,0.614805 0.278444,-0.713722 c 0.268396,0.125522 0.538741,0.250229 0.811042,0.373802 l -0.278616,0.713896 c -0.272129,-0.123738 -0.542475,-0.248289 -0.81087,-0.373985 m 1.313929,0.600219 0.278461,-0.713575 c 0.274228,0.122601 0.550753,0.243599 0.828227,0.363603 L 20.586121,26.23159 C 20.308004,26.111579 20.03215,25.990584 19.7579,25.867979 m 1.339246,0.582541 0.278443,-0.713567 c 0.279438,0.118391 0.560316,0.235961 0.842179,0.351907 l -0.278287,0.713579 c -0.282177,-0.115962 -0.563228,-0.233221 -0.842335,-0.351923 m 1.363229,0.56404 0.278466,-0.713562 c 0.283967,0.114325 0.568572,0.227373 0.854651,0.338941 l -0.278287,0.71356 c -0.28608,-0.111434 -0.571175,-0.224613 -0.85483,-0.338943 m 1.380606,0.541981 0.278444,-0.71356 c 0.286902,0.109587 0.575237,0.217965 0.863752,0.324674 l -0.278289,0.713567 C 24.415889,27.774499 24.12786,27.66616 23.840981,27.556531 m 1.396148,0.518803 0.278624,-0.713252 c 0.289641,0.104592 0.579939,0.207436 0.871036,0.309108 l -0.278619,0.713253 c -0.290767,-0.101015 -0.581221,-0.204191 -0.871041,-0.30911 m 1.405248,0.49317 0.278467,-0.713568 c 0.291253,0.09905 0.583336,0.196727 0.875078,0.292397 l -0.278448,0.713569 c -0.29191,-0.09562 -0.583672,-0.192976 -0.875097,-0.292398 m 1.413041,0.466251 0.278287,-0.713896 c 0.292226,0.09346 0.584644,0.185045 0.876868,0.274249 l -0.278445,0.713234 c -0.292398,-0.0892 -0.584642,-0.180501 -0.87671,-0.273587 m 1.413018,0.4356 0.278774,-0.713559 c 0.292574,0.08712 0.585287,0.17222 0.877859,0.25493 l -0.27895,0.713582 c -0.29207,-0.08281 -0.584801,-0.167867 -0.877683,-0.254953 m 1.412862,0.404473 0.278624,-0.71358 c 0.291269,0.08009 0.58221,0.158132 0.872666,0.233705 L 31.75412,30.10852 c -0.290455,-0.07569 -0.581235,-0.153588 -0.872822,-0.233693 m 1.406376,0.370896 0.278464,-0.713896 c 0.208718,0.05247 0.416463,0.10361 0.624366,0.153894 0.081,0.01925 0.16153,0.03853 0.241636,0.05751 l -0.278287,0.71356 c -0.08024,-0.01896 -0.160718,-0.03791 -0.241644,-0.05751 -0.207746,-0.05003 -0.415977,-0.101465 -0.624535,-0.153582 m 1.387735,0.332295 0.278448,-0.713566 c 0.28202,0.06429 0.560327,0.125349 0.834711,0.183419 l -0.278287,0.713559 c -0.274565,-0.05801 -0.552852,-0.119202 -0.834872,-0.18341 m 1.336005,0.286874 0.278601,-0.713561 c 0.269695,0.05422 0.536151,0.105725 0.798061,0.154223 L 35.809961,31.0191 c -0.262409,-0.04793 -0.528538,-0.0997 -0.798547,-0.154229 m 1.275002,0.239875 0.278615,-0.713257 c 0.257536,0.04454 0.510697,0.08682 0.760283,0.125367 l -0.278617,0.713894 c -0.249256,-0.03885 -0.50306,-0.08104 -0.760281,-0.126004 m 1.215012,0.194434 0.278462,-0.713569 c 0.244549,0.03563 0.485062,0.06813 0.721183,0.09771 l -0.278446,0.713559 c -0.236449,-0.02977 -0.476628,-0.06204 -0.721199,-0.09767 m 1.150157,0.148878 0.278602,-0.713897 c 0.231101,0.02637 0.457992,0.04951 0.680661,0.0698 l -0.278307,0.713895 c -0.222827,-0.0205 -0.449697,-0.04373 -0.680956,-0.0698 m 1.08591,0.103915 0.27845,-0.713562 c 0.217654,0.01697 0.430901,0.03107 0.639618,0.04247 L 40.377117,31.59449 C 40.168064,31.58297 39.95513,31.569 39.737495,31.55202 m 1.01749,0.06024 0.278616,-0.713896 c 0.203198,0.0072 0.402184,0.01303 0.596629,0.01517 l -0.278287,0.713893 c -0.194448,-0.002 -0.393916,-0.0069 -0.596958,-0.01516 m 0.949524,0.01595 0.278465,-0.713566 c 0.188933,-9.72e-4 0.373321,-0.0043 0.55285,-0.01125 l -0.278463,0.713891 c -0.179528,0.006 -0.364071,0.0095 -0.552852,0.01052 m 0.876888,-0.02637 0.278772,-0.713563 c 0.174185,-0.0092 0.343822,-0.02262 0.508738,-0.03762 l -0.278605,0.713591 c -0.164618,0.01519 -0.334416,0.02792 -0.508905,0.03762 m 0.805189,-0.06844 0.278624,-0.713894 c 0.158598,-0.01837 0.312511,-0.03948 0.461214,-0.06339 l -0.278289,0.71357 c -0.149034,0.0238 -0.302772,0.04518 -0.461549,0.06385 m 0.729135,-0.110101 0.278308,-0.71389 c 0.143518,-0.02699 0.281534,-0.05672 0.414828,-0.08906 l -0.278447,0.713576 c -0.133315,0.03233 -0.271489,0.06204 -0.414689,0.08935 M 44.768649,31.271568 45.046936,30.558 c 0.126828,-0.03554 0.248615,-0.07354 0.365371,-0.114005 l -0.278615,0.71357 c -0.116428,0.04062 -0.238396,0.07855 -0.365043,0.114003 m 0.574086,-0.191686 0.27814,-0.713577 c 0.110418,-0.04387 0.215359,-0.09027 0.315096,-0.138977 l -0.278294,0.713603 c -0.09966,0.04872 -0.204825,0.09529 -0.314942,0.138979 M 46.1134,30.13474 c 0.09332,-0.05188 0.181472,-0.106058 0.263848,-0.163146 l -0.27813,0.713874 c -0.08295,0.05672 -0.170769,0.111265 -0.26434,0.163149 m 1.56e-4,1.63e-4 m 0.410304,-0.270834 0.278465,-0.713569 c 0.076,-0.0599 0.146603,-0.122284 0.211627,-0.187154 l -0.278443,0.713575 c -0.0651,0.06494 -0.135915,0.127298 -0.211649,0.187148 m 0.325159,-0.308951 0.278138,-0.713561 c 0.05814,-0.06769 0.111271,-0.138174 0.158441,-0.210662 l -0.278622,0.713565 c -0.04733,0.07258 -0.100167,0.143039 -0.157957,0.210658 m 0.527389,-1.054124 c 0.03234,-0.06114 0.05069,-0.130233 0.07554,-0.193803 l -0.278622,0.713244 m -17.585406,9.897562 c 7.936519,1.912853 13.130487,1.519742 13.982863,-0.664262 1.371028,-3.513352 2.741407,-7.026382 4.112587,-10.53941 -0.852375,2.183702 -6.04668,2.576813 -13.982846,0.664289 C 22.307458,26.414009 9.9748752,20.1672 5.9370557,15.214389 L 1.8320903,25.762729 C 5.869592,30.715702 18.195182,36.953738 29.309336,39.632214 M 1.5599611,20.175149 3.9755536,13.984782 c 0.2699561,-0.691812 0.00412,1.598728 0.7093527,2.648143 L 2.2694752,22.823472 C 1.5640169,21.77419 1.3445935,20.886132 1.5599611,20.175149 m 0.918721,3.740566 2.7652405,-7.070649 C 4.1758387,15.490095 3.8242451,14.35779 4.1545938,13.511067 L 1.408167,20.549444 c -0.3303502,0.846722 -0.039415,2.050869 1.0705151,3.366271 M 0.86034124,21.979503 c 0.0139533,-0.04659 0.0298386,-0.0925 0.0475129,-0.137687 L 1.186146,21.128255 c -0.017508,0.04518 -0.033404,0.09105 -0.047028,0.137843 l -0.27877715,0.713405 m -0.0382625,0.153431 0.27845235,-0.713582 c -0.017023,0.08524 -0.028703,0.172551 -0.034376,0.26241 L 0.78786231,22.39548 c 0.005292,-0.0898 0.017191,-0.177581 0.0342258,-0.262546 m -0.0377792,0.429599 0.27829159,-0.713739 c 0.00185,0.09265 0.00955,0.187322 0.023359,0.284297 L 0.80750144,22.84665 c -0.0139533,-0.09706 -0.0215741,-0.191688 -0.0231843,-0.284117 m 0.0549784,0.465281 0.27845316,-0.71341 c 0.021238,0.09969 0.048483,0.201899 0.08174,0.306336 l -0.27846349,0.713251 c -0.0334064,-0.104233 -0.0604935,-0.206132 -0.0814076,-0.306019 m 0.14936288,0.499812 0.27845373,-0.713408 c 0.04087,0.107084 0.088053,0.216178 0.1414167,0.32777 L 1.1305392,23.855704 C 1.0768565,23.74396 1.0298276,23.634821 0.98895728,23.527784 m 0.24699162,0.535509 0.2784547,-0.713739 c 0.060985,0.114331 0.1286036,0.230449 0.2025564,0.34901 L 1.4383328,24.411973 C 1.3643794,24.29374 1.29724,24.177295 1.2359361,24.063293 m 0.3451087,0.568415 0.2786161,-0.713232 c 0.081584,0.120975 0.1699584,0.244219 0.2646681,0.369746 l -0.2784526,0.713583 c -0.09471,-0.12554 -0.1830958,-0.248793 -0.2648316,-0.370097 m 0.88142,-0.740164 C 1.3943807,22.536413 1.0724644,21.4205 1.4026517,20.57377 l 2.7464285,-7.038369 c -0.3305112,0.846544 -0.0085,1.962464 1.0594868,3.317436 L 2.4624648,23.891544 M 4.2604953,13.266035 c 0.013779,-0.04673 0.029672,-0.09265 0.047362,-0.137689 l 0.2782916,-0.713741 c -0.01751,0.04533 -0.03325,0.09105 -0.047362,0.137683 l -0.2782913,0.713747 m -0.038443,0.153252 0.2787771,-0.713568 c -0.017356,0.08509 -0.028857,0.172704 -0.034544,0.26255 l -0.2787763,0.713405 c 0.00561,-0.08964 0.017357,-0.177252 0.034542,-0.262387 m -0.037783,0.429442 0.2782916,-0.71374 c 0.0017,0.09265 0.00955,0.187479 0.023029,0.284139 l -0.2781319,0.713717 c -0.013953,-0.09692 -0.021722,-0.191689 -0.023184,-0.284116 m 0.054978,0.465437 0.2782922,-0.713741 c 0.021089,0.09966 0.048154,0.201917 0.081741,0.306349 l -0.278459,0.713566 c -0.033244,-0.104203 -0.060491,-0.206288 -0.081572,-0.306174 m 0.1496856,0.499984 0.2784545,-0.713582 c 0.041025,0.107087 0.088053,0.216181 0.1415779,0.327773 L 4.5305188,15.1419 C 4.4768421,15.030471 4.4298114,14.921172 4.3889396,14.81415 m 0.2468298,0.535338 0.2786162,-0.713581 c 0.061136,0.114016 0.1286046,0.230466 0.202557,0.348851 L 4.8384871,15.698481 C 4.7645341,15.579933 4.6970682,15.463662 4.6357663,15.349488 m 0.3452694,0.568571 0.2784552,-0.713566 c 0.08174,0.121153 0.17012,0.244398 0.26483,0.369768 L 5.2458678,16.287999 C 5.1509949,16.162635 5.062772,16.039206 4.9810357,15.918059 M 1.8891767,25.833099 5.986357,15.274885 C 4.8318358,13.858619 4.4761869,12.696313 4.817564,11.821527 L 0.70530101,22.36126 c -0.3412151,0.874613 0.0139533,2.036762 1.16863189,3.453028" /><path
   d="m 16.611863,28.756964 c -0.900884,-2.465856 -3.1342,-4.346124 -3.1342,-4.346124 0,0 -1.701526,2.352829 -2.236073,4.536513 l 0.01851,-0.03732 c 0,0 2.851667,0.626148 5.356143,-0.16153 z"
   id="path4426"
   class="ColorScheme-Text"
   style="fill:url(#oomox);fill-opacity:1;stroke-width:0.162173" /></svg>
