<?xml version="1.0" encoding="UTF-8" standalone="no"?>
<!-- Created with Inkscape (http://www.inkscape.org/) -->

<svg
   width="16"
   height="16"
   viewBox="0 0 3.1746033 3.1746033"
   version="1.1"
   id="svg8"
   xmlns="http://www.w3.org/2000/svg"
   xmlns:svg="http://www.w3.org/2000/svg"
   xmlns:rdf="http://www.w3.org/1999/02/22-rdf-syntax-ns#"
   xmlns:cc="http://creativecommons.org/ns#"
   xmlns:dc="http://purl.org/dc/elements/1.1/">
  <defs>
   <style id="current-color-scheme" type="text/css">
   .ColorScheme-Text { color: #0abdc6; } .ColorScheme-Highlight { color:#5294e2; }
  </style>
  <linearGradient id="arrongin" x1="0%" x2="0%" y1="0%" y2="100%">
   <stop offset="0%" style="stop-color:#dd9b44; stop-opacity:1"/>
   <stop offset="100%" style="stop-color:#ad6c16; stop-opacity:1"/>
  </linearGradient>
  <linearGradient id="aurora" x1="0%" x2="0%" y1="0%" y2="100%">
   <stop offset="0%" style="stop-color:#09D4DF; stop-opacity:1"/>
   <stop offset="100%" style="stop-color:#9269F4; stop-opacity:1"/>
  </linearGradient>
  <linearGradient id="cyberneon" x1="0%" x2="0%" y1="0%" y2="100%">
    <stop offset="0" style="stop-color:#0abdc6; stop-opacity:1"/>
    <stop offset="1" style="stop-color:#ea00d9; stop-opacity:1"/>
  </linearGradient>
  <linearGradient id="fitdance" x1="0%" x2="0%" y1="0%" y2="100%">
   <stop offset="0%" style="stop-color:#1AD6AB; stop-opacity:1"/>
   <stop offset="100%" style="stop-color:#329DB6; stop-opacity:1"/>
  </linearGradient>
  <linearGradient id="oomox" x1="0%" x2="0%" y1="0%" y2="100%">
   <stop offset="0%" style="stop-color:#0abdc6; stop-opacity:1"/>
   <stop offset="100%" style="stop-color:#b800ff; stop-opacity:1"/>
  </linearGradient>
  <linearGradient id="rainblue" x1="0%" x2="0%" y1="0%" y2="100%">
   <stop offset="0%" style="stop-color:#00F260; stop-opacity:1"/>
   <stop offset="100%" style="stop-color:#0575E6; stop-opacity:1"/>
  </linearGradient>
  <linearGradient id="sunrise" x1="0%" x2="0%" y1="0%" y2="100%">
   <stop offset="0%" style="stop-color: #FF8501; stop-opacity:1"/>
   <stop offset="100%" style="stop-color: #FFCB01; stop-opacity:1"/>
  </linearGradient>
  <linearGradient id="telinkrin" x1="0%" x2="0%" y1="0%" y2="100%">
   <stop offset="0%" style="stop-color: #b2ced6; stop-opacity:1"/>
   <stop offset="100%" style="stop-color: #6da5b7; stop-opacity:1"/>
  </linearGradient>
  <linearGradient id="60spsycho" x1="0%" x2="0%" y1="0%" y2="100%">
   <stop offset="0%" style="stop-color: #df5940; stop-opacity:1"/>
   <stop offset="25%" style="stop-color: #d8d15f; stop-opacity:1"/>
   <stop offset="50%" style="stop-color: #e9882a; stop-opacity:1"/>
   <stop offset="100%" style="stop-color: #279362; stop-opacity:1"/>
  </linearGradient>
  <linearGradient id="90ssummer" x1="0%" x2="0%" y1="0%" y2="100%">
   <stop offset="0%" style="stop-color: #f618c7; stop-opacity:1"/>
   <stop offset="20%" style="stop-color: #94ffab; stop-opacity:1"/>
   <stop offset="50%" style="stop-color: #fbfd54; stop-opacity:1"/>
   <stop offset="100%" style="stop-color: #0f83ae; stop-opacity:1"/>
  </linearGradient>
 </defs>
  <metadata
     id="metadata5">
    <rdf:RDF>
      <cc:Work
         rdf:about="">
        <dc:format>image/svg+xml</dc:format>
        <dc:type
           rdf:resource="http://purl.org/dc/dcmitype/StillImage" />
        <dc:creator>
          <cc:Agent>
            <dc:title>dreifacherspass</dc:title>
          </cc:Agent>
        </dc:creator>
        <cc:license
           rdf:resource="http://creativecommons.org/licenses/by-sa/4.0/" />
      </cc:Work>
      <cc:License
         rdf:about="http://creativecommons.org/licenses/by-sa/4.0/">
        <cc:permits
           rdf:resource="http://creativecommons.org/ns#Reproduction" />
        <cc:permits
           rdf:resource="http://creativecommons.org/ns#Distribution" />
        <cc:requires
           rdf:resource="http://creativecommons.org/ns#Notice" />
        <cc:requires
           rdf:resource="http://creativecommons.org/ns#Attribution" />
        <cc:permits
           rdf:resource="http://creativecommons.org/ns#DerivativeWorks" />
        <cc:requires
           rdf:resource="http://creativecommons.org/ns#ShareAlike" />
      </cc:License>
    </rdf:RDF>
  </metadata>
  <path
     id="path27"
     class="ColorScheme-Text"
     style="fill:url(#oomox);stroke-width:0.00617133"
     d="M 1.7372738 1.1959016 L 1.7357237 1.2935578 L 1.7341736 1.3908266 L 1.3369606 1.3908266 L 0.93974768 1.3908266 L 0.93974768 1.4892579 L 0.93974768 1.5873016 L 1.3369606 1.5873016 L 1.7341736 1.5873016 L 1.7341736 1.6861205 L 1.7341736 1.7849393 L 1.7481244 1.7760262 C 1.7558044 1.7711462 1.866511 1.7056501 1.9938152 1.6303169 C 2.0574671 1.5926429 2.1149396 1.5576426 2.1565756 1.5318856 C 2.1773936 1.5190066 2.1942443 1.5084566 2.2057913 1.5008836 C 2.2173382 1.4933136 2.2238544 1.4888123 2.2236174 1.4880953 C 2.2231391 1.4866753 2.1953532 1.4693213 2.1511503 1.4423674 C 2.1069464 1.4154098 2.0460656 1.3787656 1.9794768 1.3392858 L 1.7372738 1.1959016 z M 1.4330668 1.7845518 L 1.1912513 1.9283235 C 1.1246624 1.9678054 1.0638539 2.0042765 1.0199653 2.0314051 C 0.99802104 2.0449691 0.98033338 2.0563177 0.96803699 2.0643447 C 0.9557406 2.0723747 0.94904828 2.0770531 0.94904828 2.0779081 C 0.94904828 2.0787533 0.9557403 2.083838 0.96803699 2.091859 C 0.98033338 2.099879 0.99802114 2.1108441 1.0199653 2.124411 C 1.0638543 2.151545 1.124662 2.1880121 1.1912513 2.2274926 L 1.4330668 2.3712644 L 1.4350044 2.2736081 L 1.4365545 2.1759518 L 1.8337674 2.1759518 L 2.2309804 2.1759518 L 2.2309804 2.0779081 L 2.2309804 1.9798643 L 1.8337674 1.9798643 L 1.4365545 1.9798643 L 1.4350044 1.882208 L 1.4330668 1.7845518 z " />
  <path
     d="m 1.9965279,0.41038878 c -0.016631,-1.8699e-4 -0.033362,-2.507e-5 -0.050378,7.7505e-4 -0.019155,9.0848e-4 -0.038126,0.002249 -0.056579,0.004263 -0.018453,0.002013 -0.036417,0.004604 -0.054253,0.00775 -0.017836,0.003146 -0.035398,0.006931 -0.052703,0.0112382 -0.017305,0.004307 -0.034294,0.009231 -0.051153,0.0147259 -0.016859,0.005495 -0.033492,0.0115021 -0.049991,0.0182137 -0.016499,0.006712 -0.032992,0.0141333 -0.049216,0.0220889 -0.016224,0.007956 -0.032406,0.0167367 -0.048441,0.0259642 -0.016034,0.009227 -0.031736,0.0189248 -0.047665,0.0294519 -0.01355,0.008953 -0.028727,0.020334 -0.044565,0.0329396 -0.015838,0.0126056 -0.032597,0.0264792 -0.048441,0.0406901 -0.015844,0.0142109 -0.030998,0.0284711 -0.044565,0.0422402 -0.013568,0.0137691 -0.02548,0.0270849 -0.03449,0.038365 -0.00453,0.005673 -0.00787,0.009707 -0.010851,0.0127883 -0.00298,0.003082 -0.00565,0.00522 -0.00853,0.0062 -0.00287,9.8069e-4 -0.00588,0.001018 -0.010076,3.8752e-4 -0.0042,-6.3008e-4 -0.00932,-0.002125 -0.016276,-0.003875 -0.00785,-0.001953 -0.026444,-0.003434 -0.050378,-0.00465 -0.023934,-0.001216 -0.053528,-0.002008 -0.083318,-0.001938 -0.023346,4.623e-5 -0.04199,-3.313e-5 -0.057741,3.8753e-4 -0.015751,4.2065e-4 -0.028373,0.001203 -0.039915,0.002325 -0.011542,0.001122 -0.021834,0.002887 -0.032552,0.005038 -0.010718,0.002151 -0.021985,0.004631 -0.035265,0.008138 -0.018752,0.004946 -0.037018,0.0108063 -0.0550286,0.0170511 -0.0180105,0.006245 -0.0358709,0.0130532 -0.0530909,0.0205388 -0.01722,0.007486 -0.0339975,0.0153584 -0.0503782,0.0240265 -0.0163807,0.008668 -0.0321729,0.0181096 -0.0476656,0.0279018 -0.0154927,0.009792 -0.0303971,0.020144 -0.0449529,0.031002 -0.0145558,0.010858 -0.02867,0.0222368 -0.0422402,0.0341022 -0.0135702,0.0118653 -0.0266042,0.0240005 -0.03914,0.0368149 -0.0125358,0.0128144 -0.0245871,0.0262101 -0.0360398,0.0399151 -0.0114527,0.013705 -0.0226189,0.0280904 -0.0329396,0.0426277 -0.0103207,0.0145373 -0.0199243,0.0292542 -0.0290644,0.0445654 -0.00914,0.015311 -0.017666,0.030864 -0.0255766,0.04689 -0.007911,0.016027 -0.015069,0.032532 -0.0217014,0.049216 -0.006632,0.016684 -0.0125208,0.03387 -0.0178261,0.051153 -0.005305,0.017283 -0.0100213,0.03488 -0.0139509,0.052703 -0.00393,0.017823 -0.007183,0.035561 -0.009688,0.053866 -0.002505,0.018305 -0.004394,0.037074 -0.005425,0.055804 l -0.003875,0.068204 -0.023639,0.00698 c -0.0106727,0.00316 -0.0217097,0.00687 -0.0329396,0.011238 -0.0112299,0.00437 -0.0229082,0.00928 -0.0344897,0.014726 -0.0115815,0.00545 -0.0231496,0.011423 -0.0348772,0.017826 -0.0117276,0.0064 -0.0235966,0.013309 -0.0352648,0.020539 -0.0116682,0.00723 -0.0230865,0.014935 -0.0344897,0.022864 -0.0114032,0.00793 -0.0227819,0.016301 -0.0337147,0.024802 -0.0109328,0.0085 -0.0215203,0.017019 -0.031777,0.025964 -0.0102568,0.00895 -0.0200766,0.018252 -0.0294519,0.027514 -0.0111817,0.011047 -0.021884,0.022148 -0.0321646,0.033715 -0.0102806,0.011567 -0.0200624,0.023548 -0.0294519,0.035652 -0.009389,0.012105 -0.0182309,0.024543 -0.0267392,0.037202 -0.008508,0.012659 -0.0167768,0.025521 -0.02441407,0.038752 -0.0076373,0.013231 -0.01492519,0.026869 -0.02170139,0.04069 -0.0067762,0.013821 -0.01306355,0.027812 -0.01898871,0.04224 -0.0059252,0.014428 -0.0111919,0.029126 -0.01627604,0.044178 -0.0050841,0.015052 -0.01008527,0.030422 -0.01433842,0.046116 -0.0036027,0.013278 -0.00634304,0.024273 -0.00852555,0.034877 -0.00218251,0.010604 -0.00354164,0.021047 -0.0046503,0.032552 -0.00110866,0.011505 -0.001943989,0.024322 -0.002325145,0.040303 C 6.3688571e-6,2.0349848 0,2.0538769 0,2.0779081 c 0,0.024031 4.9243273e-6,0.043311 3.8752482e-4,0.059291 3.8260049e-4,0.015981 0.001215335,0.028797 0.002325145,0.040303 0.00110982,0.011505 0.00246866,0.02156 0.0046503,0.032165 0.00218165,0.010605 0.00492746,0.021598 0.00852555,0.034877 0.0046261,0.01707 0.01011373,0.033895 0.01588851,0.050378 0.0057748,0.016483 0.01211368,0.032587 0.01898872,0.048441 0.0068751,0.015853 0.01416205,0.031323 0.02208892,0.046503 0.0079269,0.01518 0.01625885,0.030102 0.02518911,0.044565 0.0089303,0.014463 0.01840409,0.028537 0.02828931,0.04224 0.009885,0.013703 0.0202102,0.027016 0.031002,0.039915 0.0107917,0.012899 0.0220648,0.025537 0.0337147,0.03759 0.0116498,0.012052 0.0239678,0.023715 0.0364273,0.034877 0.0124595,0.011162 0.0251442,0.021936 0.038365,0.032165 0.0132207,0.010228 0.0267566,0.019813 0.0406901,0.029064 0.0139335,0.00925 0.0284174,0.018121 0.0430153,0.026352 0.0145979,0.00823 0.0293515,0.015697 0.0445654,0.022864 0.0152138,0.00717 0.0307216,0.014092 0.046503,0.020151 0.0157813,0.00606 0.0317527,0.011367 0.0480531,0.016276 0.0163004,0.00491 0.0328322,0.00907 0.0496032,0.012788 0.016771,0.00371 0.03396,0.00682 0.0511533,0.0093 0.00505,7.279e-4 0.0352205,0.00166 0.085643,0.00233 0.0504225,6.666e-4 0.121072,0.00139 0.20655073,0.00194 0.17095744,0.00109 0.40175784,0.00171 0.65104174,0.00194 0.2428321,1.924e-4 0.424092,3.407e-4 0.5611359,0 0.1370439,-3.406e-4 0.2296281,-0.00126 0.2956814,-0.0031 0.033027,-9.222e-4 0.059577,-0.00201 0.08138,-0.00349 0.021804,-0.00148 0.038936,-0.00327 0.053866,-0.00543 0.01493,-0.00216 0.027508,-0.00479 0.039915,-0.00775 0.012407,-0.00296 0.02452,-0.00619 0.038753,-0.010076 0.013442,-0.00367 0.027761,-0.00823 0.04224,-0.013563 0.014479,-0.00533 0.02945,-0.011455 0.044565,-0.018214 0.015116,-0.00676 0.030376,-0.014136 0.045728,-0.022089 0.015352,-0.00795 0.03054,-0.016664 0.045728,-0.025577 0.015187,-0.00891 0.03033,-0.018265 0.044953,-0.027902 0.014623,-0.00964 0.02897,-0.019326 0.042628,-0.029452 0.013658,-0.010126 0.02646,-0.020622 0.038752,-0.031002 0.012292,-0.01038 0.023963,-0.020602 0.03449,-0.031002 0.011017,-0.010884 0.02212,-0.022767 0.03294,-0.035265 0.01082,-0.012498 0.021355,-0.025755 0.031777,-0.039528 0.010422,-0.013772 0.020403,-0.027921 0.030227,-0.042628 0.00982,-0.014707 0.019651,-0.030039 0.028677,-0.04534 0.00903,-0.015302 0.017549,-0.030946 0.025577,-0.046503 0.00803,-0.015557 0.01526,-0.03103 0.022089,-0.046503 0.00683,-0.015473 0.013171,-0.030678 0.018601,-0.045728 0.00543,-0.01505 0.01012,-0.029892 0.013951,-0.044178 0.0047,-0.017513 0.00888,-0.035206 0.012401,-0.052703 0.00352,-0.017498 0.00617,-0.034872 0.00853,-0.052316 0.00235,-0.017444 0.00423,-0.034578 0.00543,-0.051928 0.0012,-0.017351 0.00188,-0.03471 0.00194,-0.051928 5.55e-5,-0.017219 -4.72e-4,-0.034493 -0.00155,-0.051541 -0.00108,-0.017048 -0.00284,-0.033928 -0.00504,-0.050766 -0.0022,-0.016838 -0.00482,-0.033789 -0.00814,-0.050378 -0.00331,-0.016589 -0.00721,-0.032914 -0.011626,-0.049216 -0.00442,-0.016301 -0.00922,-0.032466 -0.014726,-0.048441 -0.00551,-0.015974 -0.011626,-0.03167 -0.018214,-0.047278 -0.00659,-0.015608 -0.013656,-0.030912 -0.021314,-0.046115 -0.00766,-0.015204 -0.016084,-0.030193 -0.024802,-0.044953 -0.00872,-0.01476 -0.017747,-0.029513 -0.027514,-0.04379 -0.00977,-0.014277 -0.020196,-0.028097 -0.031002,-0.041853 -0.010806,-0.013755 -0.022269,-0.027496 -0.034102,-0.04069 -0.011833,-0.013194 -0.023964,-0.026158 -0.036815,-0.038752 -0.018166,-0.017803 -0.040515,-0.037355 -0.061616,-0.055028 -0.021101,-0.017674 -0.041179,-0.033228 -0.055029,-0.04224 l -0.049991,-0.03294 0.00271,-0.068979 c 7.413e-4,-0.016597 0.00103,-0.032943 7.75e-4,-0.049216 -2.504e-4,-0.016272 -6.884e-4,-0.03246 -0.00194,-0.048441 -0.00125,-0.015981 -0.00317,-0.031942 -0.00543,-0.047666 -0.00226,-0.015723 -0.00487,-0.031392 -0.00814,-0.046891 -0.00327,-0.015498 -0.00734,-0.030808 -0.011626,-0.0461154 -0.00429,-0.0153073 -0.00902,-0.0305784 -0.014338,-0.0457279 -0.00531,-0.0151495 -0.01109,-0.0299278 -0.017439,-0.0449529 -0.00635,-0.015025 -0.013149,-0.0300189 -0.020539,-0.0449529 -0.010277,-0.0207696 -0.021095,-0.0407858 -0.032552,-0.0600664 -0.011457,-0.0192806 -0.023745,-0.0379658 -0.036427,-0.0558036 -0.012682,-0.0178378 -0.02596,-0.0350995 -0.039915,-0.0515408 -0.013955,-0.0164413 -0.028515,-0.0321869 -0.04379,-0.047278 -0.015275,-0.0150911 -0.031024,-0.029228 -0.047665,-0.0430153 -0.016642,-0.0137872 -0.034261,-0.0269979 -0.052316,-0.0395275 -0.018055,-0.0125296 -0.036676,-0.0247215 -0.056191,-0.0360398 -0.019515,-0.0113183 -0.039819,-0.0220113 -0.060841,-0.0321646 -0.015281,-0.007376 -0.030399,-0.0142196 -0.045728,-0.0205388 -0.015329,-0.006319 -0.03069,-0.0117789 -0.046115,-0.0170511 -0.015426,-0.005272 -0.030933,-0.0101032 -0.046503,-0.0143384 -0.01557,-0.004235 -0.031515,-0.00803 -0.047278,-0.0112382 -0.015763,-0.003208 -0.031274,-0.005947 -0.047278,-0.008138 -0.016004,-0.002191 -0.032147,-0.003854 -0.048441,-0.005038 -0.016293,-0.001184 -0.032973,-0.001751 -0.049603,-0.001938 z M 1.982577,0.60957654 c 0.026672,0 0.050108,9.2962e-4 0.071692,0.002713 0.010792,8.9153e-4 0.021346,0.002037 0.031389,0.003488 0.010043,0.00145 0.019809,0.002953 0.029452,0.005038 0.00964,0.002085 0.019086,0.004569 0.028677,0.007363 0.00959,0.002794 0.019177,0.006109 0.029064,0.009688 0.019775,0.007158 0.0405,0.0159894 0.063554,0.0267392 0.016075,0.007495 0.031521,0.0155126 0.046503,0.0240265 0.014982,0.008514 0.029502,0.0171954 0.043403,0.0267392 0.013901,0.009544 0.027471,0.019642 0.040303,0.0302269 0.012831,0.0105849 0.025042,0.02169 0.036815,0.0333271 0.011773,0.0116372 0.022989,0.0241143 0.033715,0.0368149 0.010725,0.0127006 0.020925,0.0257524 0.030614,0.0395275 0.00969,0.0137751 0.01885,0.0281544 0.027514,0.0430153 0.00866,0.0148608 0.016763,0.0301577 0.024414,0.0461154 0.00874,0.0182204 0.016501,0.0366472 0.023251,0.0554161 0.00675,0.0187689 0.01268,0.0377851 0.017439,0.0569662 0.00476,0.019181 0.00848,0.038672 0.011238,0.058129 0.00276,0.019457 0.00428,0.038919 0.00504,0.058516 7.607e-4,0.019597 4.714e-4,0.039304 -7.75e-4,0.058904 -0.00125,0.0196 -0.00333,0.039049 -0.00659,0.058516 -0.00326,0.019467 -0.00751,0.03893 -0.012788,0.058129 -0.00528,0.019198 -0.011689,0.038173 -0.018989,0.056966 -4.717e-4,0.00121 3.07e-4,0.00287 0.00233,0.00465 0.00202,0.00178 0.00529,0.00392 0.00969,0.0062 0.0088,0.00456 0.022227,0.010025 0.039915,0.016276 0.011058,0.00391 0.022145,0.00813 0.03294,0.012788 0.010794,0.00466 0.021279,0.00974 0.031777,0.015114 0.010498,0.00538 0.020833,0.010994 0.031002,0.017051 0.010168,0.00606 0.02042,0.012675 0.030227,0.019376 0.00981,0.0067 0.019264,0.013617 0.028677,0.020926 0.00941,0.00731 0.018528,0.014983 0.027514,0.022864 0.00899,0.00788 0.017824,0.015997 0.026352,0.024414 0.00853,0.00842 0.016765,0.017047 0.024802,0.025964 0.00804,0.00892 0.016127,0.018133 0.023639,0.027514 0.00751,0.00938 0.014745,0.018868 0.021701,0.028677 0.00696,0.00981 0.013396,0.020026 0.019764,0.030227 0.00637,0.010201 0.012468,0.020445 0.018214,0.031002 0.00575,0.010557 0.011184,0.021288 0.016276,0.032165 0.00509,0.010876 0.00993,0.021779 0.014339,0.03294 0.00441,0.01116 0.00833,0.022694 0.012013,0.034102 0.00369,0.011408 0.00714,0.02287 0.010076,0.03449 0.00243,0.00963 0.00438,0.019793 0.0062,0.030614 0.00182,0.010822 0.00344,0.022041 0.00465,0.033715 0.00243,0.023347 0.0035,0.048137 0.00349,0.072855 -8.5e-6,0.024718 -0.00104,0.049479 -0.00349,0.072855 -0.00122,0.011688 -0.00282,0.023258 -0.00465,0.034102 -0.00183,0.010844 -0.00376,0.020954 -0.0062,0.030614 -0.00396,0.015661 -0.00993,0.033323 -0.016664,0.051541 -0.00673,0.018218 -0.014441,0.037017 -0.022864,0.055416 -0.00842,0.018399 -0.017327,0.0365 -0.026352,0.052703 -0.00903,0.016203 -0.0182,0.030609 -0.026739,0.04224 -0.010351,0.014097 -0.021387,0.027557 -0.03294,0.04069 -0.011552,0.013134 -0.023383,0.025873 -0.03604,0.037978 -0.012657,0.012104 -0.025863,0.02348 -0.039528,0.03449 -0.013664,0.01101 -0.028052,0.021539 -0.042628,0.031389 -0.014575,0.00985 -0.029563,0.019277 -0.044953,0.027902 -0.01539,0.00863 -0.031171,0.016692 -0.047278,0.024027 -0.016107,0.00733 -0.032487,0.013785 -0.049216,0.019764 -0.016728,0.00598 -0.033901,0.011331 -0.051153,0.015888 l -0.052316,0.013951 -0.912621,7.75e-4 c -0.258275,3e-4 -0.490023,3.5e-5 -0.6595672,-7.75e-4 -0.0847721,-4.05e-4 -0.15425576,-9.332e-4 -0.20345053,-0.00155 -0.0491948,-6.169e-4 -0.0782426,-0.00115 -0.0829303,-0.00194 -0.009111,-0.00154 -0.0225728,-0.00469 -0.0372024,-0.00853 -0.0146296,-0.00384 -0.0303173,-0.0085 -0.0434028,-0.012788 -0.01625,-0.00535 -0.0326122,-0.011561 -0.0484406,-0.018989 -0.0158284,-0.00743 -0.0313371,-0.015909 -0.046503,-0.025189 -0.0151659,-0.00928 -0.0299152,-0.019708 -0.0441778,-0.030614 -0.0142627,-0.010907 -0.027959,-0.02257 -0.0410776,-0.034877 C 0.3375913,2.4186357 0.32524147,2.4060604 0.31350758,2.3925782 0.30177368,2.379096 0.29067633,2.364769 0.28056797,2.350338 0.2704596,2.335907 0.26129578,2.3213141 0.25305371,2.3061602 c -0.008242,-0.015154 -0.0155664,-0.030852 -0.0217014,-0.046503 -0.005674,-0.014476 -0.0107768,-0.028763 -0.0151135,-0.043015 -0.004337,-0.014252 -0.007849,-0.028526 -0.0108507,-0.042628 -0.003001,-0.014101 -0.005308,-0.027828 -0.006975,-0.041853 -0.001668,-0.014025 -0.002764,-0.028217 -0.0031,-0.04224 -3.3603e-4,-0.014023 1.6859e-4,-0.028145 0.001163,-0.04224 9.9398e-4,-0.014095 0.002716,-0.027999 0.005038,-0.04224 0.002322,-0.014242 0.005264,-0.028553 0.008913,-0.043015 0.003649,-0.014462 0.007815,-0.029033 0.0127883,-0.04379 0.005364,-0.015919 0.0118869,-0.031741 0.0193762,-0.047278 0.007489,-0.015537 0.0158091,-0.030815 0.0251891,-0.045728 0.00938,-0.014913 0.0199657,-0.029745 0.031002,-0.04379 0.0110362,-0.014045 0.0228066,-0.027368 0.0352648,-0.040303 0.0124581,-0.012935 0.0254944,-0.025234 0.03914,-0.036815 0.0136457,-0.011581 0.0276414,-0.022569 0.0422402,-0.032552 0.0145988,-0.00998 0.0296353,-0.018984 0.0449529,-0.027127 0.0153176,-0.00814 0.0310885,-0.015255 0.0468905,-0.021314 0.0153726,-0.0059 0.0317015,-0.011242 0.0484406,-0.015888 0.0167392,-0.00465 0.0337394,-0.00889 0.0503782,-0.012013 0.0166388,-0.00312 0.0329816,-0.00527 0.0480531,-0.00659 0.0150715,-0.00132 0.0290403,-0.00154 0.0410776,-7.751e-4 0.0170812,0.00109 0.0269825,0.00138 0.0321646,3.875e-4 0.002591,-4.968e-4 0.004073,-0.00151 0.00465,-0.00271 5.7738e-4,-0.0012 2.045e-5,-0.00263 -7.7505e-4,-0.00465 -0.005931,-0.015152 -0.010929,-0.030108 -0.015501,-0.044953 -0.004572,-0.014845 -0.008798,-0.029578 -0.0120133,-0.044178 -0.003216,-0.0146 -0.005501,-0.028984 -0.007363,-0.043403 -0.001862,-0.014418 -0.002978,-0.029103 -0.003488,-0.043403 -5.0993e-4,-0.014299 -4.5208e-4,-0.028385 3.8753e-4,-0.042628 8.3961e-4,-0.014243 0.002463,-0.028378 0.00465,-0.042628 0.002187,-0.014249 0.004994,-0.028697 0.008526,-0.043015 0.003532,-0.014318 0.007526,-0.028565 0.0124008,-0.043015 0.004304,-0.012759 0.009356,-0.025347 0.0147259,-0.03759 0.00537,-0.012243 0.011068,-0.024357 0.0174386,-0.03604 0.006371,-0.011683 0.0132337,-0.023024 0.0205388,-0.034102 0.007305,-0.011078 0.0150777,-0.021735 0.0232515,-0.032165 0.008174,-0.01043 0.0169876,-0.02049 0.0259642,-0.030227 0.008977,-0.00974 0.0181882,-0.01929 0.0279018,-0.028289 0.009714,-0.009 0.0198422,-0.017359 0.0302269,-0.025577 0.0103847,-0.00822 0.0211745,-0.0162476 0.0321646,-0.023639 0.01099,-0.007391 0.0221851,-0.0144053 0.0337147,-0.0209263 0.0115295,-0.006521 0.0232616,-0.0126072 0.0352648,-0.0182137 0.0120032,-0.005606 0.0244038,-0.0104659 0.0368148,-0.0151135 0.012411,-0.004648 0.024837,-0.008757 0.03759,-0.0124008 0.012753,-0.003644 0.025723,-0.007091 0.038753,-0.009688 0.013029,-0.002597 0.026288,-0.004308 0.039527,-0.005813 0.01324,-0.001505 0.026531,-0.002731 0.039915,-0.0031 0.013384,-3.6875e-4 0.02684,-3.665e-5 0.040303,7.7505e-4 0.015545,9.365e-4 0.031956,0.002961 0.048828,0.005813 0.016873,0.002852 0.034226,0.006417 0.051153,0.0108507 0.016927,0.004434 0.033507,0.009818 0.049216,0.015501 0.015709,0.005683 0.030186,0.0116154 0.043403,0.0182137 l 0.028677,0.0143384 0.017051,-0.0348772 c 0.0093,-0.0187412 0.020018,-0.036707 0.03139,-0.0542535 0.011372,-0.0175465 0.023535,-0.0345415 0.036815,-0.0507657 0.01328,-0.0162242 0.027601,-0.0317287 0.042628,-0.046503 0.015027,-0.0147743 0.030665,-0.0290434 0.047278,-0.0422402 0.016614,-0.0131968 0.034276,-0.0253231 0.052316,-0.0368149 0.01804,-0.0114917 0.036499,-0.022118 0.055804,-0.031777 0.019305,-0.009659 0.039269,-0.0182654 0.059679,-0.0259642 0.02041,-0.007699 0.041425,-0.0145404 0.062779,-0.0201513 0.010814,-0.002842 0.020576,-0.00514 0.030227,-0.006975 0.00965,-0.001835 0.018917,-0.003237 0.029452,-0.004263 0.010535,-0.001025 0.022185,-0.001524 0.035652,-0.001938 0.013467,-4.1381e-4 0.028831,-7.7505e-4 0.047278,-7.7505e-4 z"
     style="fill:url(#oomox);stroke-width:0.00617133"
     id="path24"
     class="ColorScheme-Text"/>
</svg>
