<?xml version="1.0" encoding="UTF-8" standalone="no"?>
<!-- Created with Inkscape (http://www.inkscape.org/) -->

<svg
   width="16"
   height="16"
   viewBox="0 0 16 16"
   version="1.1"
   id="svg1"
   xmlns:xlink="http://www.w3.org/1999/xlink"
   xmlns="http://www.w3.org/2000/svg"
   xmlns:svg="http://www.w3.org/2000/svg"
   xmlns:rdf="http://www.w3.org/1999/02/22-rdf-syntax-ns#"
   xmlns:cc="http://creativecommons.org/ns#"
   xmlns:dc="http://purl.org/dc/elements/1.1/">
  <defs>
   <style id="current-color-scheme" type="text/css">
   .ColorScheme-Text { color: #0abdc6; } .ColorScheme-Highlight { color:#5294e2; }
  </style>
  <linearGradient id="arrongin" x1="0%" x2="0%" y1="0%" y2="100%">
   <stop offset="0%" style="stop-color:#dd9b44; stop-opacity:1"/>
   <stop offset="100%" style="stop-color:#ad6c16; stop-opacity:1"/>
  </linearGradient>
  <linearGradient id="aurora" x1="0%" x2="0%" y1="0%" y2="100%">
   <stop offset="0%" style="stop-color:#09D4DF; stop-opacity:1"/>
   <stop offset="100%" style="stop-color:#9269F4; stop-opacity:1"/>
  </linearGradient>
  <linearGradient id="cyberneon" x1="0%" x2="0%" y1="0%" y2="100%">
    <stop offset="0" style="stop-color:#0abdc6; stop-opacity:1"/>
    <stop offset="1" style="stop-color:#ea00d9; stop-opacity:1"/>
  </linearGradient>
  <linearGradient id="fitdance" x1="0%" x2="0%" y1="0%" y2="100%">
   <stop offset="0%" style="stop-color:#1AD6AB; stop-opacity:1"/>
   <stop offset="100%" style="stop-color:#329DB6; stop-opacity:1"/>
  </linearGradient>
  <linearGradient id="oomox" x1="0%" x2="0%" y1="0%" y2="100%">
   <stop offset="0%" style="stop-color:#0abdc6; stop-opacity:1"/>
   <stop offset="100%" style="stop-color:#b800ff; stop-opacity:1"/>
  </linearGradient>
  <linearGradient id="rainblue" x1="0%" x2="0%" y1="0%" y2="100%">
   <stop offset="0%" style="stop-color:#00F260; stop-opacity:1"/>
   <stop offset="100%" style="stop-color:#0575E6; stop-opacity:1"/>
  </linearGradient>
  <linearGradient id="sunrise" x1="0%" x2="0%" y1="0%" y2="100%">
   <stop offset="0%" style="stop-color: #FF8501; stop-opacity:1"/>
   <stop offset="100%" style="stop-color: #FFCB01; stop-opacity:1"/>
  </linearGradient>
  <linearGradient id="telinkrin" x1="0%" x2="0%" y1="0%" y2="100%">
   <stop offset="0%" style="stop-color: #b2ced6; stop-opacity:1"/>
   <stop offset="100%" style="stop-color: #6da5b7; stop-opacity:1"/>
  </linearGradient>
  <linearGradient id="60spsycho" x1="0%" x2="0%" y1="0%" y2="100%">
   <stop offset="0%" style="stop-color: #df5940; stop-opacity:1"/>
   <stop offset="25%" style="stop-color: #d8d15f; stop-opacity:1"/>
   <stop offset="50%" style="stop-color: #e9882a; stop-opacity:1"/>
   <stop offset="100%" style="stop-color: #279362; stop-opacity:1"/>
  </linearGradient>
  <linearGradient id="90ssummer" x1="0%" x2="0%" y1="0%" y2="100%">
   <stop offset="0%" style="stop-color: #f618c7; stop-opacity:1"/>
   <stop offset="20%" style="stop-color: #94ffab; stop-opacity:1"/>
   <stop offset="50%" style="stop-color: #fbfd54; stop-opacity:1"/>
   <stop offset="100%" style="stop-color: #0f83ae; stop-opacity:1"/>
  </linearGradient>
 </defs>
  <path
     style="fill:none;stroke:url(#oomox);stroke-width:0.4;stroke-linejoin:round;stroke-dasharray:none"
     d="m 5.463785,7.977297 q 0,0.814573 -0.322118,1.432909 -0.322118,0.618336 -0.921923,0.947867 -0.599806,0.325829 -1.399547,0.325829 -1.229231,0 -1.9290043,-0.722008 Q 0.195122,9.236183 0.195122,7.977297 q 0,-1.255184 0.6960707,-1.95868 0.6960703,-0.703495 1.9364093,-0.703495 1.240339,0 1.93641,0.710901 0.699773,0.7109 0.699773,1.951274 z m -1.114454,0 q 0,-0.844195 -0.39987,-1.321831 Q 3.54959,6.174127 2.827602,6.174127 q -0.733096,0 -1.132966,0.477636 -0.39987,0.473934 -0.39987,1.325534 0,0.859004 0.407275,1.355154 0.410978,0.492447 1.118156,0.492447 0.733096,0 1.129264,-0.481339 0.39987,-0.481339 0.39987,-1.366262 z M 10.580645,7.04424 q 0,0.503554 -0.229555,0.899733 Q 10.121535,8.340152 9.692044,8.558606 9.266257,8.773357 8.677558,8.773357 H 7.381682 v 1.836494 H 6.289444 V 5.392877 h 2.343684 q 0.936734,0 1.440274,0.433205 0.507243,0.429502 0.507243,1.218158 z M 9.481002,7.06275 q 0,-0.821978 -0.970056,-0.821978 H 7.381682 v 1.692091 h 1.158883 q 0.451707,0 0.696072,-0.222156 Q 9.481002,7.484848 9.481002,7.06275 Z m 5.04281,3.547099 -2.273338,-4.017329 q 0.06664,0.585011 0.06664,0.940462 v 3.076867 H 11.347062 V 5.392875 h 1.247744 l 2.30666,4.050652 Q 14.834826,8.884434 14.834826,8.42531 V 5.392875 h 0.970056 v 5.216974 z"
     id="text1-9"
     class="ColorScheme-Text"/>
  <path
     style="opacity:0.5;fill:url(#oomox);stroke:none;stroke-width:0.390244;stroke-linejoin:round;stroke-dasharray:none"
     d="m 5.4637848,7.9777846 q 0,0.8145735 -0.322118,1.432909 Q 4.8195493,10.02903 4.2197436,10.358561 3.6199379,10.68439 2.8201972,10.68439 1.5909659,10.68439 0.89119271,9.9623817 0.19512198,9.236671 0.19512198,7.9777846 q 0,-1.2551839 0.69607073,-1.9586792 Q 1.5872634,5.31561 2.8276021,5.31561 q 1.2403389,0 1.9364096,0.7109006 0.6997731,0.7109005 0.6997731,1.951274 z m -1.1144536,0 q 0,-0.8441946 -0.3998704,-1.3218308 -0.3998704,-0.481339 -1.1218587,-0.481339 -0.7330957,0 -1.1329661,0.4776364 -0.3998704,0.4739337 -0.3998704,1.3255334 0,0.8590049 0.4072754,1.3551542 0.4109779,0.4924468 1.1181562,0.4924468 0.7330957,0 1.1292636,-0.481339 0.3998704,-0.4813389 0.3998704,-1.366262 z M 10.580645,7.0447275 q 0,0.5035546 -0.229555,0.8997337 Q 10.121535,8.3406401 9.6920443,8.5590939 9.266257,8.7738451 8.6775584,8.7738451 H 7.3816821 V 10.610339 H 6.2894436 V 5.3933647 h 2.3436846 q 0.9367337,0 1.4402738,0.4332051 0.507243,0.4295024 0.507243,1.2181577 z m -1.0996427,0.018513 q 0,-0.8219788 -0.9700565,-0.8219788 H 7.3816821 v 1.6920915 h 1.1588832 q 0.4517063,0 0.6960712,-0.2221564 Q 9.4810023,7.4853379 9.4810023,7.0632405 Z M 14.523812,10.610339 12.250474,6.5930096 q 0.06664,0.5850119 0.06664,0.9404622 V 10.610339 H 11.347062 V 5.3933648 h 1.247744 l 2.30666,4.0506524 Q 14.834822,8.8849238 14.834822,8.4258005 V 5.3933647 h 0.970056 v 5.2169743 z"
     id="text1"
     class="ColorScheme-Text"/>
  <metadata
     id="metadata11">
    <rdf:RDF>
      <cc:Work
         rdf:about="">
        <dc:creator>
          <cc:Agent>
            <dc:title>dreifacherspass</dc:title>
          </cc:Agent>
        </dc:creator>
        <cc:license
           rdf:resource="http://creativecommons.org/licenses/by-sa/4.0/" />
      </cc:Work>
      <cc:License
         rdf:about="http://creativecommons.org/licenses/by-sa/4.0/">
        <cc:permits
           rdf:resource="http://creativecommons.org/ns#Reproduction" />
        <cc:permits
           rdf:resource="http://creativecommons.org/ns#Distribution" />
        <cc:requires
           rdf:resource="http://creativecommons.org/ns#Notice" />
        <cc:requires
           rdf:resource="http://creativecommons.org/ns#Attribution" />
        <cc:permits
           rdf:resource="http://creativecommons.org/ns#DerivativeWorks" />
        <cc:requires
           rdf:resource="http://creativecommons.org/ns#ShareAlike" />
      </cc:License>
    </rdf:RDF>
  </metadata>
</svg>
