<?xml version="1.0" encoding="UTF-8" standalone="no"?>
<svg
   width="16"
   height="16"
   version="1.1"
   id="svg65"
   xmlns="http://www.w3.org/2000/svg"
   xmlns:svg="http://www.w3.org/2000/svg"
   xmlns:rdf="http://www.w3.org/1999/02/22-rdf-syntax-ns#"
   xmlns:cc="http://creativecommons.org/ns#"
   xmlns:dc="http://purl.org/dc/elements/1.1/">
  <defs>
   <style id="current-color-scheme" type="text/css">
   .ColorScheme-Text { color: #0abdc6; } .ColorScheme-Highlight { color:#5294e2; }
  </style>
  <linearGradient id="arrongin" x1="0%" x2="0%" y1="0%" y2="100%">
   <stop offset="0%" style="stop-color:#dd9b44; stop-opacity:1"/>
   <stop offset="100%" style="stop-color:#ad6c16; stop-opacity:1"/>
  </linearGradient>
  <linearGradient id="aurora" x1="0%" x2="0%" y1="0%" y2="100%">
   <stop offset="0%" style="stop-color:#09D4DF; stop-opacity:1"/>
   <stop offset="100%" style="stop-color:#9269F4; stop-opacity:1"/>
  </linearGradient>
  <linearGradient id="cyberneon" x1="0%" x2="0%" y1="0%" y2="100%">
    <stop offset="0" style="stop-color:#0abdc6; stop-opacity:1"/>
    <stop offset="1" style="stop-color:#ea00d9; stop-opacity:1"/>
  </linearGradient>
  <linearGradient id="fitdance" x1="0%" x2="0%" y1="0%" y2="100%">
   <stop offset="0%" style="stop-color:#1AD6AB; stop-opacity:1"/>
   <stop offset="100%" style="stop-color:#329DB6; stop-opacity:1"/>
  </linearGradient>
  <linearGradient id="oomox" x1="0%" x2="0%" y1="0%" y2="100%">
   <stop offset="0%" style="stop-color:#0abdc6; stop-opacity:1"/>
   <stop offset="100%" style="stop-color:#b800ff; stop-opacity:1"/>
  </linearGradient>
  <linearGradient id="rainblue" x1="0%" x2="0%" y1="0%" y2="100%">
   <stop offset="0%" style="stop-color:#00F260; stop-opacity:1"/>
   <stop offset="100%" style="stop-color:#0575E6; stop-opacity:1"/>
  </linearGradient>
  <linearGradient id="sunrise" x1="0%" x2="0%" y1="0%" y2="100%">
   <stop offset="0%" style="stop-color: #FF8501; stop-opacity:1"/>
   <stop offset="100%" style="stop-color: #FFCB01; stop-opacity:1"/>
  </linearGradient>
  <linearGradient id="telinkrin" x1="0%" x2="0%" y1="0%" y2="100%">
   <stop offset="0%" style="stop-color: #b2ced6; stop-opacity:1"/>
   <stop offset="100%" style="stop-color: #6da5b7; stop-opacity:1"/>
  </linearGradient>
  <linearGradient id="60spsycho" x1="0%" x2="0%" y1="0%" y2="100%">
   <stop offset="0%" style="stop-color: #df5940; stop-opacity:1"/>
   <stop offset="25%" style="stop-color: #d8d15f; stop-opacity:1"/>
   <stop offset="50%" style="stop-color: #e9882a; stop-opacity:1"/>
   <stop offset="100%" style="stop-color: #279362; stop-opacity:1"/>
  </linearGradient>
  <linearGradient id="90ssummer" x1="0%" x2="0%" y1="0%" y2="100%">
   <stop offset="0%" style="stop-color: #f618c7; stop-opacity:1"/>
   <stop offset="20%" style="stop-color: #94ffab; stop-opacity:1"/>
   <stop offset="50%" style="stop-color: #fbfd54; stop-opacity:1"/>
   <stop offset="100%" style="stop-color: #0f83ae; stop-opacity:1"/>
  </linearGradient>
    <linearGradient
       id="linearGradient2284"
       gradientTransform="matrix(1.6440072,0,0,0.60826983,-38.207552,-69.729474)"
       x1="0"
       y1="132.57439"
       x2="77.858536"
       y2="132.57439"
       gradientUnits="userSpaceOnUse">
      <stop
         style="stop-color:#41ff00;stop-opacity:1;"
         offset="0"
         id="stop2280" />
      <stop
         style="stop-color:#e7ff00;stop-opacity:1;"
         offset="1"
         id="stop2282" />
    </linearGradient>
  </defs>
  <path
     class="ColorScheme-Text"
     d="M 0,7.3089362e-6 V 10.071066 l 0.6782928,-7e-6 V 9.2963595 l 0.6782862,8.2e-6 v 2.536e-4 0.7744447 H 2.0348717 8.1394872 8.81778 V 9.2966141 9.2963595 h 0.678286 v 0.7746995 h 0.678293 V 0 H 9.496066 V 0.77469913 H 8.81778 V 0.77443758 0 H 2.0348717 1.356579 v 0.77443758 2.6877e-4 l -0.6782862,-7.22e-6 V 0 Z M 2.0348717,0.77469913 H 8.1394872 V 4.6481797 H 2.0348717 Z M 0.6782928,1.549391 l 0.6782862,7.1e-6 v 0.7746992 l -0.6782862,-7.4e-6 z m 8.1394872,7.1e-6 H 9.496066 V 2.3240973 H 8.81778 Z m -8.1394872,1.549391 0.6782862,7.2e-6 v 0.774692 l -0.6782862,-7.4e-6 z m 8.1394872,7.2e-6 h 0.678286 v 0.774692 H 8.81778 Z m -8.1394872,1.5493834 0.6782862,7.5e-6 v 0.129118 0.5162094 0.1293722 l -0.6782862,-7.5e-6 z m 8.1394872,7.5e-6 H 9.496066 V 5.4228865 H 8.81778 Z M 2.0348717,5.422879 H 8.1394872 V 9.2963595 H 2.0348717 Z m -1.3565789,0.7746921 0.6782862,7.1e-6 V 6.9722764 L 0.6782928,6.97227 Z m 8.1394872,7.1e-6 H 9.496066 V 6.9722764 H 8.81778 Z m -8.1394872,1.549391 0.6782862,7.1e-6 v 0.7746914 l -0.6782862,-6.8e-6 z m 8.1394872,7.1e-6 H 9.496066 V 8.5216677 H 8.81778 Z"
     id="path63"
     style="opacity:0.5;fill:url(#oomox);stroke-width:0.632663" />
  <path
     class="ColorScheme-Text"
     d="M 5.8256411,5.9289416 V 16 l 0.6782928,-7e-6 v -0.774699 l 0.6782863,8e-6 V 15.225556 16 h 0.6782928 6.104615 0.678293 v -0.774451 -2.55e-4 h 0.678287 v 0.774699 H 16 V 5.9289341 H 15.321708 V 6.7036334 H 14.643421 V 6.7033719 5.9289341 H 7.860513 7.1822202 v 0.7744378 2.69e-4 l -0.6782863,-7.5e-6 V 5.9289341 Z M 7.860513,6.7036334 h 6.104615 V 10.577114 H 7.860513 Z m -1.3565791,0.774692 0.6782863,7.2e-6 v 0.7746992 l -0.6782863,-7.5e-6 z m 8.1394871,7.2e-6 h 0.678287 v 0.7746992 h -0.678287 z m -8.1394871,1.549391 0.6782863,6.8e-6 v 0.7746921 l -0.6782863,-7.2e-6 z m 8.1394871,6.8e-6 h 0.678287 v 0.7746921 h -0.678287 z m -8.1394871,1.5493836 0.6782863,8e-6 v 0.129118 0.516209 0.129372 l -0.6782863,-7e-6 z m 8.1394871,8e-6 h 0.678287 v 0.774699 h -0.678287 z m -6.782908,0.774692 h 6.104615 v 3.87348 H 7.860513 Z m -1.3565791,0.774691 0.6782863,7e-6 v 0.774699 l -0.6782863,-7e-6 z m 8.1394871,7e-6 h 0.678287 v 0.774699 h -0.678287 z m -8.1394871,1.549391 0.6782863,7e-6 v 0.774691 l -0.6782863,-6e-6 z m 8.1394871,7e-6 h 0.678287 v 0.774691 h -0.678287 z"
     id="path63-7"
     style="fill:url(#oomox);stroke-width:0.632663" />
  <metadata
     id="metadata416">
    <rdf:RDF>
      <cc:Work
         rdf:about="">
        <dc:creator>
          <cc:Agent>
            <dc:title>dreifacherspass</dc:title>
          </cc:Agent>
        </dc:creator>
        <cc:license
           rdf:resource="http://creativecommons.org/licenses/by-sa/4.0/" />
      </cc:Work>
      <cc:License
         rdf:about="http://creativecommons.org/licenses/by-sa/4.0/">
        <cc:permits
           rdf:resource="http://creativecommons.org/ns#Reproduction" />
        <cc:permits
           rdf:resource="http://creativecommons.org/ns#Distribution" />
        <cc:requires
           rdf:resource="http://creativecommons.org/ns#Notice" />
        <cc:requires
           rdf:resource="http://creativecommons.org/ns#Attribution" />
        <cc:permits
           rdf:resource="http://creativecommons.org/ns#DerivativeWorks" />
        <cc:requires
           rdf:resource="http://creativecommons.org/ns#ShareAlike" />
      </cc:License>
    </rdf:RDF>
  </metadata>
  <g
     id="g1"
     transform="scale(3.7795276)">
    <g
       id="g1840"
       transform="matrix(0.03307266,0,0,0.03352041,1.2636253,2.2800747)"
       style="display:inline;enable-background:new">
      <path
         d="m 89.792448,10.911526 v 47.359 h -128 v -47.359 z"
         id="path359-5"
         style="fill:url(#linearGradient2284);fill-opacity:1" />
      <path
         d="m -24.898552,10.911526 47.355,47.359 h 21.215 l -47.3590004,-47.359 z m 42.422,0 47.363,47.359 h 21.215 l -47.363,-47.359 z m 42.43,0 29.84,29.84 v -21.211 l -8.6289,-8.6289 z m -98.16,7.9062 v 21.215 l 18.238,18.238 H 1.2464476 Z"
         id="path361-3"
         style="fill:#000000;fill-opacity:1" />
    </g>
  </g>
</svg>
