<?xml version="1.0" encoding="UTF-8" standalone="no"?>
<svg
   version="1.0"
   viewBox="0 0 16 16"
   id="svg4982"
   width="16"
   height="16"
   xmlns:xlink="http://www.w3.org/1999/xlink"
   xmlns="http://www.w3.org/2000/svg"
   xmlns:svg="http://www.w3.org/2000/svg"
   xmlns:rdf="http://www.w3.org/1999/02/22-rdf-syntax-ns#"
   xmlns:cc="http://creativecommons.org/ns#"
   xmlns:dc="http://purl.org/dc/elements/1.1/">
  <defs>
   <style id="current-color-scheme" type="text/css">
   .ColorScheme-Text { color: #0abdc6; } .ColorScheme-Highlight { color:#5294e2; }
  </style>
  <linearGradient id="arrongin" x1="0%" x2="0%" y1="0%" y2="100%">
   <stop offset="0%" style="stop-color:#dd9b44; stop-opacity:1"/>
   <stop offset="100%" style="stop-color:#ad6c16; stop-opacity:1"/>
  </linearGradient>
  <linearGradient id="aurora" x1="0%" x2="0%" y1="0%" y2="100%">
   <stop offset="0%" style="stop-color:#09D4DF; stop-opacity:1"/>
   <stop offset="100%" style="stop-color:#9269F4; stop-opacity:1"/>
  </linearGradient>
  <linearGradient id="cyberneon" x1="0%" x2="0%" y1="0%" y2="100%">
    <stop offset="0" style="stop-color:#0abdc6; stop-opacity:1"/>
    <stop offset="1" style="stop-color:#ea00d9; stop-opacity:1"/>
  </linearGradient>
  <linearGradient id="fitdance" x1="0%" x2="0%" y1="0%" y2="100%">
   <stop offset="0%" style="stop-color:#1AD6AB; stop-opacity:1"/>
   <stop offset="100%" style="stop-color:#329DB6; stop-opacity:1"/>
  </linearGradient>
  <linearGradient id="oomox" x1="0%" x2="0%" y1="0%" y2="100%">
   <stop offset="0%" style="stop-color:#0abdc6; stop-opacity:1"/>
   <stop offset="100%" style="stop-color:#b800ff; stop-opacity:1"/>
  </linearGradient>
  <linearGradient id="rainblue" x1="0%" x2="0%" y1="0%" y2="100%">
   <stop offset="0%" style="stop-color:#00F260; stop-opacity:1"/>
   <stop offset="100%" style="stop-color:#0575E6; stop-opacity:1"/>
  </linearGradient>
  <linearGradient id="sunrise" x1="0%" x2="0%" y1="0%" y2="100%">
   <stop offset="0%" style="stop-color: #FF8501; stop-opacity:1"/>
   <stop offset="100%" style="stop-color: #FFCB01; stop-opacity:1"/>
  </linearGradient>
  <linearGradient id="telinkrin" x1="0%" x2="0%" y1="0%" y2="100%">
   <stop offset="0%" style="stop-color: #b2ced6; stop-opacity:1"/>
   <stop offset="100%" style="stop-color: #6da5b7; stop-opacity:1"/>
  </linearGradient>
  <linearGradient id="60spsycho" x1="0%" x2="0%" y1="0%" y2="100%">
   <stop offset="0%" style="stop-color: #df5940; stop-opacity:1"/>
   <stop offset="25%" style="stop-color: #d8d15f; stop-opacity:1"/>
   <stop offset="50%" style="stop-color: #e9882a; stop-opacity:1"/>
   <stop offset="100%" style="stop-color: #279362; stop-opacity:1"/>
  </linearGradient>
  <linearGradient id="90ssummer" x1="0%" x2="0%" y1="0%" y2="100%">
   <stop offset="0%" style="stop-color: #f618c7; stop-opacity:1"/>
   <stop offset="20%" style="stop-color: #94ffab; stop-opacity:1"/>
   <stop offset="50%" style="stop-color: #fbfd54; stop-opacity:1"/>
   <stop offset="100%" style="stop-color: #0f83ae; stop-opacity:1"/>
  </linearGradient>
 </defs>
  <rect
     x="9.7559996"
     y="14.45"
     width="3.0779531"
     height="1.55"
     ry="0"
     id="rect51-3-9-2"
     class="ColorScheme-Text"
     style="opacity:0.5;fill:url(#oomox);fill-opacity:1;stroke-width:0.149512" />
  <rect
     x="9.7559996"
     y="12.04"
     width="5.4104338"
     height="1.55"
     ry="0"
     id="rect51-3-5"
     class="ColorScheme-Text"
     style="opacity:0.5;fill:url(#oomox);fill-opacity:1;stroke-width:0.198226" />
  <rect
     x="9.7562981"
     y="9.632"
     width="6.2437024"
     height="1.5609342"
     ry="0"
     id="rect49"
     class="ColorScheme-Text"
     style="opacity:0.5;fill:url(#oomox);fill-opacity:1;stroke-width:0.174478" />
  <rect
     x="9.7562981"
     y="7.224"
     width="4.1623521"
     height="1.5609342"
     ry="0"
     id="rect50"
     class="ColorScheme-Text"
     style="opacity:0.5;fill:url(#oomox);fill-opacity:1;stroke-width:0.174478" />
  <rect
     x="0.035102531"
     y="14.45"
     width="5.7377996"
     height="1.55"
     ry="0"
     id="rect51-3-9"
     class="ColorScheme-Text"
     style="opacity:0.5;fill:url(#oomox);fill-opacity:1;stroke-width:0.204135" />
  <rect
     x="0"
     y="12.04"
     width="1.9935541"
     height="1.55"
     ry="0"
     id="rect51-3"
     class="ColorScheme-Text"
     style="opacity:0.5;fill:url(#oomox);fill-opacity:1;stroke-width:0.120326" />
  <rect
     x="6.3441846e-08"
     y="9.632"
     width="3.8145258"
     height="1.55"
     ry="0"
     id="rect51"
     class="ColorScheme-Text"
     style="opacity:0.5;fill:url(#oomox);fill-opacity:1;stroke-width:0.166443" />
  <rect
     x="6.3441846e-08"
     y="7.224"
     width="7.4130554"
     height="1.55"
     ry="0"
     stroke-width="0.299606"
     id="rect52"
     class="ColorScheme-Text"
     style="opacity:0.5;fill:url(#oomox);fill-opacity:1" />
  <rect
     x="6.3441846e-08"
     y="4.816"
     width="6.2437024"
     height="1.55"
     ry="0"
     stroke-width="0.274969"
     id="rect53"
     class="ColorScheme-Text"
     style="opacity:0.5;fill:url(#oomox);fill-opacity:1" />
  <rect
     x="6.3441846e-08"
     y="2.408"
     width="7.0635757"
     height="1.55"
     ry="0"
     stroke-width="0.29246"
     id="rect54"
     class="ColorScheme-Text"
     style="opacity:0.5;fill:url(#oomox);fill-opacity:1" />
  <rect
     x="6.3441846e-08"
     y="0"
     width="7.999825"
     height="1.55"
     ry="0"
     stroke-width="0.32885"
     id="rect55"
     class="ColorScheme-Text"
     style="fill:url(#oomox);fill-opacity:1" />
  <path
     id="path4948"
     class="ColorScheme-Text"
     style="fill:url(#oomox);fill-opacity:1;stroke-width:0.174478"
     d="M 9.755777,2.0425533e-7 V 0.51696046 v 0.007385 h 0.00221 a 0.51703127,0.51703127 0 0 0 0.514745,0.50957494 0.51703127,0.51703127 0 0 0 0.0074,-0.00221 v 0.016987 a 4.6386776,4.6386776 0 0 1 4.646734,4.6363941 0.51703127,0.51703127 0 0 0 -7.49e-4,0.00221 0.51703127,0.51703127 0 0 0 7.49e-4,0.00221 4.6386776,4.6386776 0 0 1 0,0.00517 h 0.0015 a 0.51703127,0.51703127 0 0 0 0.514746,0.5095748 0.51703127,0.51703127 0 0 0 0.0074,-0.00221 v 0.00221 h 0.509576 V 5.6946858 h 7.49e-4 C 15.960259,2.6041716 13.4748,0.08114792 10.398285,0.0177246 A 0.51703127,0.51703127 0 0 0 10.280123,7.3872343e-4 V 0 h -0.0074 z m 0,2.06857919574467 v 0.51696 0.00738 h 0.00221 a 0.51703127,0.51703127 0 0 0 0.514745,0.5095752 0.51703127,0.51703127 0 0 0 0.0074,-0.00221 v 0.0096 c 1.423581,0 2.56789,1.1342425 2.584801,2.5530446 a 0.51703127,0.51703127 0 0 0 -0.0066,0.024371 0.51703127,0.51703127 0 0 0 0.51696,0.51696 0.51703127,0.51703127 0 0 0 0.0074,-0.00221 v 0.00221 H 13.89219 V 5.6946865 h 0.0074 c 0,-1.9626438 -1.577968,-3.5694443 -3.5301,-3.6172441 a 0.51703127,0.51703127 0 0 0 -0.08936,-0.00812 v -7.489e-4 h -0.0074 z m 1.03392,2.0678408 a 1.0340451,1.0340451 0 0 0 -1.03392,1.0339204 1.0340451,1.0340451 0 0 0 1.03392,1.03392 1.0340451,1.0340451 0 0 0 1.034659,-1.03392 1.0340451,1.0340451 0 0 0 -1.034659,-1.0339204 z" />
  <metadata
     id="metadata6081">
    <rdf:RDF>
      <cc:Work
         rdf:about="">
        <dc:creator>
          <cc:Agent>
            <dc:title>dreifacherspass</dc:title>
          </cc:Agent>
        </dc:creator>
        <cc:license
           rdf:resource="http://creativecommons.org/licenses/by-sa/4.0/" />
      </cc:Work>
      <cc:License
         rdf:about="http://creativecommons.org/licenses/by-sa/4.0/">
        <cc:permits
           rdf:resource="http://creativecommons.org/ns#Reproduction" />
        <cc:permits
           rdf:resource="http://creativecommons.org/ns#Distribution" />
        <cc:requires
           rdf:resource="http://creativecommons.org/ns#Notice" />
        <cc:requires
           rdf:resource="http://creativecommons.org/ns#Attribution" />
        <cc:permits
           rdf:resource="http://creativecommons.org/ns#DerivativeWorks" />
        <cc:requires
           rdf:resource="http://creativecommons.org/ns#ShareAlike" />
      </cc:License>
    </rdf:RDF>
  </metadata>
</svg>
