<?xml version="1.0" encoding="UTF-8" standalone="no"?>
<svg
   width="48"
   height="48"
   version="1.1"
   id="svg601"
   xmlns="http://www.w3.org/2000/svg"
   xmlns:svg="http://www.w3.org/2000/svg"
   xmlns:rdf="http://www.w3.org/1999/02/22-rdf-syntax-ns#"
   xmlns:cc="http://creativecommons.org/ns#"
   xmlns:dc="http://purl.org/dc/elements/1.1/">
  <defs
     id="defs597">
    <style
       id="current-color-scheme"
       type="text/css">
   .ColorScheme-Text { color: #0abdc6; } .ColorScheme-Highlight { color:#5294e2; }
  </style>
    <linearGradient
       id="arrongin"
       x1="0"
       x2="0"
       y1="0"
       y2="1">
      <stop
         offset="0%"
         style="stop-color:#dd9b44; stop-opacity:1"
         id="stop539" />
      <stop
         offset="100%"
         style="stop-color:#ad6c16; stop-opacity:1"
         id="stop541" />
    </linearGradient>
    <linearGradient
       id="aurora"
       x1="0"
       x2="0"
       y1="0"
       y2="1">
      <stop
         offset="0%"
         style="stop-color:#09D4DF; stop-opacity:1"
         id="stop544" />
      <stop
         offset="100%"
         style="stop-color:#9269F4; stop-opacity:1"
         id="stop546" />
    </linearGradient>
    <linearGradient
       id="cyberneon"
       x1="0"
       x2="0"
       y1="0"
       y2="1">
      <stop
         offset="0"
         style="stop-color:#0abdc6; stop-opacity:1"
         id="stop549" />
      <stop
         offset="1"
         style="stop-color:#ea00d9; stop-opacity:1"
         id="stop551" />
    </linearGradient>
    <linearGradient
       id="fitdance"
       x1="0"
       x2="0"
       y1="0"
       y2="1">
      <stop
         offset="0%"
         style="stop-color:#1AD6AB; stop-opacity:1"
         id="stop554" />
      <stop
         offset="100%"
         style="stop-color:#329DB6; stop-opacity:1"
         id="stop556" />
    </linearGradient>
    <linearGradient
       id="oomox"
       x1="0"
       x2="0"
       y1="0"
       y2="16"
       gradientUnits="userSpaceOnUse"
       gradientTransform="matrix(0,1.5625,-2.9374999,0,47.499994,11.5)">
      <stop
         offset="0%"
         style="stop-color:#0abdc6; stop-opacity:1"
         id="stop559" />
      <stop
         offset="100%"
         style="stop-color:#b800ff; stop-opacity:1"
         id="stop561" />
    </linearGradient>
    <linearGradient
       id="rainblue"
       x1="0"
       x2="0"
       y1="0"
       y2="1">
      <stop
         offset="0%"
         style="stop-color:#00F260; stop-opacity:1"
         id="stop564" />
      <stop
         offset="100%"
         style="stop-color:#0575E6; stop-opacity:1"
         id="stop566" />
    </linearGradient>
    <linearGradient
       id="sunrise"
       x1="0"
       x2="0"
       y1="0"
       y2="1">
      <stop
         offset="0%"
         style="stop-color: #FF8501; stop-opacity:1"
         id="stop569" />
      <stop
         offset="100%"
         style="stop-color: #FFCB01; stop-opacity:1"
         id="stop571" />
    </linearGradient>
    <linearGradient
       id="telinkrin"
       x1="0"
       x2="0"
       y1="0"
       y2="1">
      <stop
         offset="0%"
         style="stop-color: #b2ced6; stop-opacity:1"
         id="stop574" />
      <stop
         offset="100%"
         style="stop-color: #6da5b7; stop-opacity:1"
         id="stop576" />
    </linearGradient>
    <linearGradient
       id="60spsycho"
       x1="0"
       x2="0"
       y1="0"
       y2="1">
      <stop
         offset="0%"
         style="stop-color: #df5940; stop-opacity:1"
         id="stop579" />
      <stop
         offset="25%"
         style="stop-color: #d8d15f; stop-opacity:1"
         id="stop581" />
      <stop
         offset="50%"
         style="stop-color: #e9882a; stop-opacity:1"
         id="stop583" />
      <stop
         offset="100%"
         style="stop-color: #279362; stop-opacity:1"
         id="stop585" />
    </linearGradient>
    <linearGradient
       id="90ssummer"
       x1="0"
       x2="0"
       y1="0"
       y2="1">
      <stop
         offset="0%"
         style="stop-color: #f618c7; stop-opacity:1"
         id="stop588" />
      <stop
         offset="20%"
         style="stop-color: #94ffab; stop-opacity:1"
         id="stop590" />
      <stop
         offset="50%"
         style="stop-color: #fbfd54; stop-opacity:1"
         id="stop592" />
      <stop
         offset="100%"
         style="stop-color: #0f83ae; stop-opacity:1"
         id="stop594" />
    </linearGradient>
    <linearGradient
       id="linearGradient2284"
       gradientTransform="scale(1.6440072,0.60826983)"
       x1="0"
       y1="132.57439"
       x2="77.858536"
       y2="132.57439"
       gradientUnits="userSpaceOnUse">
      <stop
         style="stop-color:#41ff00;stop-opacity:1;"
         offset="0"
         id="stop2280" />
      <stop
         style="stop-color:#e7ff00;stop-opacity:1;"
         offset="1"
         id="stop2282" />
    </linearGradient>
  </defs>
  <path
     id="path1123"
     d="M 1.0744314,16.5 H 11.177734 v 15 H 1.0744314 Z m 0,20 h 31.6404126 3.771484 10.292969 v -5 H 36.486328 v -15 h 10.292969 v -5 H 36.486328 32.714844 1.0744314 Z M 3.9472656,13.166016 H 7.5625 v 1.667968 H 3.9472656 Z m 7.2304684,0 h 3.617188 v 1.667968 h -0.603516 -2.408203 -0.605469 z m 7.232422,0 h 3.615235 v 1.667968 h -3.615235 z m 7.230469,0 h 3.615234 v 1.667968 h -3.615234 z m 7.230469,0 h 3.458984 v 1.667968 h -0.002 -3.457031 z m 7.074218,0 h 3.615235 v 1.667968 H 39.945312 Z M 14.794922,16.5 h 17.919922 v 15 H 14.794922 Z M 3.9472656,33.166016 H 7.5625 v 1.667968 H 3.9472656 Z m 7.2304684,0 h 3.617188 v 1.667968 h -3.617188 z m 7.232422,0 h 3.615235 v 1.667968 h -3.615235 z m 7.230469,0 h 3.615234 v 1.667968 h -3.615234 z m 7.230469,0 h 3.457031 0.002 v 1.667968 h -3.458984 z m 7.074218,0 h 3.615235 v 1.667968 h -3.615235 z"
     style="display:inline;fill:url(#oomox);stroke-width:2.1424;opacity:0.5"
     class="ColorScheme-Text"
     transform="translate(0.0731358)" />
  <path
     id="path1123-7"
     d="m 1.148,16.5 h 10.103303 v 15 H 1.148 Z m 0,20 h 31.640413 3.771484 10.292969 v -5 H 36.559897 v -15 h 10.292969 v -5 H 36.559897 32.788413 1.148 Z M 4.0208346,13.166016 H 7.636069 v 1.667968 H 4.0208346 Z m 7.2304684,0 h 3.617188 v 1.667968 h -0.603516 -2.408203 -0.605469 z m 7.232422,0 h 3.615235 v 1.667968 h -3.615235 z m 7.230469,0 h 3.615234 v 1.667968 h -3.615234 z m 7.230469,0 h 3.458984 v 1.667968 h -0.002 -3.457031 z m 7.074218,0 h 3.615235 v 1.667968 H 40.018881 Z M 14.868491,16.5 h 17.919922 v 15 H 14.868491 Z M 4.0208346,33.166016 H 7.636069 v 1.667968 H 4.0208346 Z m 7.2304684,0 h 3.617188 v 1.667968 h -3.617188 z m 7.232422,0 h 3.615235 v 1.667968 h -3.615235 z m 7.230469,0 h 3.615234 v 1.667968 h -3.615234 z m 7.230469,0 h 3.457031 0.002 v 1.667968 H 32.94471 Z m 7.074218,0 h 3.615235 v 1.667968 h -3.615235 z"
     style="display:none;fill:#000000;fill-opacity:0.4;stroke-width:2.1424" />
  <path
     style="fill:none;stroke:url(#oomox);stroke-width:2.03501;stroke-linecap:butt;stroke-linejoin:miter;stroke-miterlimit:4;stroke-dasharray:none;stroke-opacity:1"
     d="M 14.971286,1.517505 H 7.7483123 v 44.964992 h 7.2229737"
     id="path55"
     class="ColorScheme-Text" />
  <path
     style="fill:none;stroke:url(#oomox);stroke-width:2.03501;stroke-linecap:butt;stroke-linejoin:miter;stroke-miterlimit:4;stroke-dasharray:none;stroke-opacity:1"
     d="m 33.028724,1.517505 h 7.222964 v 44.964992 h -7.222964"
     id="path63"
     class="ColorScheme-Text" />
  <metadata
     id="metadata784">
    <rdf:RDF>
      <cc:Work
         rdf:about="">
        <dc:creator>
          <cc:Agent>
            <dc:title>dreifacherspass</dc:title>
          </cc:Agent>
        </dc:creator>
        <cc:license
           rdf:resource="http://creativecommons.org/licenses/by-sa/4.0/" />
      </cc:Work>
      <cc:License
         rdf:about="http://creativecommons.org/licenses/by-sa/4.0/">
        <cc:permits
           rdf:resource="http://creativecommons.org/ns#Reproduction" />
        <cc:permits
           rdf:resource="http://creativecommons.org/ns#Distribution" />
        <cc:requires
           rdf:resource="http://creativecommons.org/ns#Notice" />
        <cc:requires
           rdf:resource="http://creativecommons.org/ns#Attribution" />
        <cc:permits
           rdf:resource="http://creativecommons.org/ns#DerivativeWorks" />
        <cc:requires
           rdf:resource="http://creativecommons.org/ns#ShareAlike" />
      </cc:License>
    </rdf:RDF>
  </metadata>
  <g
     id="g299">
    <g
       id="g1840"
       transform="matrix(0.36718463,0,0,0.36951638,14.525836,25.968012)">
      <path
         d="M 128,80.641 V 128 H 0 V 80.641 Z"
         id="path359"
         style="fill:url(#linearGradient2284);fill-opacity:1"
         transform="translate(-38.19832,-69.729474)" />
      <path
         d="M 13.309,80.641 60.664,128 H 81.879 L 34.52,80.641 Z m 42.422,0 47.363,47.359 h 21.215 L 76.946,80.641 Z m 42.43,0 29.84,29.84 V 89.27 l -8.6289,-8.6289 z m -98.16,7.9062 v 21.215 l 18.238,18.238 h 21.215 z"
         id="path361"
         transform="translate(-38.19832,-69.729474)"
         style="fill:#000000;fill-opacity:1" />
    </g>
  </g>
</svg>
