<?xml version="1.0" encoding="UTF-8" standalone="no"?>
<svg
   viewBox="0 0 16 16"
   version="1.1"
   id="svg2"
   width="16"
   height="16"
   xmlns="http://www.w3.org/2000/svg"
   xmlns:svg="http://www.w3.org/2000/svg"
   xmlns:rdf="http://www.w3.org/1999/02/22-rdf-syntax-ns#"
   xmlns:cc="http://creativecommons.org/ns#"
   xmlns:dc="http://purl.org/dc/elements/1.1/">
   <defs>
      <style id="current-color-scheme" type="text/css">
         .ColorScheme-Text { color: #0abdc6; } .ColorScheme-Highlight { color:#5294e2; }
      </style>
      <linearGradient id="arrongin" x1="0%" x2="0%" y1="0%" y2="100%">
         <stop offset="0%" style="stop-color:#dd9b44; stop-opacity:1"/>
         <stop offset="100%" style="stop-color:#ad6c16; stop-opacity:1"/>
      </linearGradient>
      <linearGradient id="aurora" x1="0%" x2="0%" y1="0%" y2="100%">
         <stop offset="0%" style="stop-color:#09D4DF; stop-opacity:1"/>
         <stop offset="100%" style="stop-color:#9269F4; stop-opacity:1"/>
      </linearGradient>
      <linearGradient id="cyberneon" x1="0%" x2="0%" y1="0%" y2="100%">
         <stop offset="0" style="stop-color:#0abdc6; stop-opacity:1"/>
         <stop offset="1" style="stop-color:#ea00d9; stop-opacity:1"/>
      </linearGradient>
      <linearGradient id="fitdance" x1="0%" x2="0%" y1="0%" y2="100%">
         <stop offset="0%" style="stop-color:#1AD6AB; stop-opacity:1"/>
         <stop offset="100%" style="stop-color:#329DB6; stop-opacity:1"/>
      </linearGradient>
      <linearGradient id="oomox" x1="0%" x2="0%" y1="0%" y2="100%">
         <stop offset="0%" style="stop-color:#0abdc6; stop-opacity:1"/>
         <stop offset="100%" style="stop-color:#b800ff; stop-opacity:1"/>
      </linearGradient>
      <linearGradient id="rainblue" x1="0%" x2="0%" y1="0%" y2="100%">
         <stop offset="0%" style="stop-color:#00F260; stop-opacity:1"/>
         <stop offset="100%" style="stop-color:#0575E6; stop-opacity:1"/>
      </linearGradient>
      <linearGradient id="sunrise" x1="0%" x2="0%" y1="0%" y2="100%">
         <stop offset="0%" style="stop-color: #FF8501; stop-opacity:1"/>
         <stop offset="100%" style="stop-color: #FFCB01; stop-opacity:1"/>
      </linearGradient>
      <linearGradient id="telinkrin" x1="0%" x2="0%" y1="0%" y2="100%">
         <stop offset="0%" style="stop-color: #b2ced6; stop-opacity:1"/>
         <stop offset="100%" style="stop-color: #6da5b7; stop-opacity:1"/>
      </linearGradient>
      <linearGradient id="60spsycho" x1="0%" x2="0%" y1="0%" y2="100%">
         <stop offset="0%" style="stop-color: #df5940; stop-opacity:1"/>
         <stop offset="25%" style="stop-color: #d8d15f; stop-opacity:1"/>
         <stop offset="50%" style="stop-color: #e9882a; stop-opacity:1"/>
         <stop offset="100%" style="stop-color: #279362; stop-opacity:1"/>
      </linearGradient>
      <linearGradient id="90ssummer" x1="0%" x2="0%" y1="0%" y2="100%">
         <stop offset="0%" style="stop-color: #f618c7; stop-opacity:1"/>
         <stop offset="20%" style="stop-color: #94ffab; stop-opacity:1"/>
         <stop offset="50%" style="stop-color: #fbfd54; stop-opacity:1"/>
         <stop offset="100%" style="stop-color: #0f83ae; stop-opacity:1"/>
      </linearGradient>
   </defs>
  <path
     id="path1"
     style="fill:url(#oomox);stroke-width:0.0689655"
     class="ColorScheme-Text"
     d="M 0 0 L 0 16 L 16 16 L 16 0 L 0 0 z M 0.68359375 0.61914062 L 0.86328125 0.61914062 L 0.86328125 1.9667969 L 1.546875 1.9667969 L 1.5429688 2.1035156 L 0.68359375 2.1035156 L 0.68359375 0.61914062 z M 13.957031 0.73242188 L 13.957031 1.0273438 L 14.242188 1.0273438 L 14.242188 1.1347656 L 13.957031 1.1347656 L 13.957031 1.78125 C 13.957031 1.8676009 13.970354 1.9237237 13.996094 1.9492188 C 14.021844 1.9743287 14.079854 1.9888575 14.169922 1.9921875 L 14.255859 1.9960938 L 14.248047 2.1113281 L 14.177734 2.1113281 C 14.099834 2.1113281 14.036452 2.1058181 13.988281 2.0957031 C 13.940241 2.0854481 13.901581 2.0674066 13.871094 2.0410156 C 13.841374 2.0146237 13.820124 1.9821462 13.808594 1.9414062 C 13.797054 1.9007933 13.791016 1.8469731 13.791016 1.78125 L 13.791016 1.1347656 L 13.625 1.1347656 L 13.628906 1.0390625 L 13.794922 1.0273438 L 13.822266 0.7421875 L 13.957031 0.73242188 z M 2.1777344 1.0058594 C 2.3125139 1.0058594 2.4158639 1.0498875 2.4863281 1.1386719 C 2.5574331 1.2268158 2.5917969 1.3506134 2.5917969 1.5078125 L 2.5859375 1.5917969 L 1.859375 1.5917969 C 1.864765 1.7287536 1.9004 1.8301198 1.9648438 1.8964844 C 2.0292877 1.9623363 2.1131501 1.9960938 2.2167969 1.9960938 C 2.2730408 1.9960938 2.323146 1.9888334 2.3691406 1.9746094 C 2.4152636 1.9603794 2.4665527 1.9385992 2.5234375 1.9101562 L 2.5605469 2.0292969 C 2.4539546 2.0922029 2.3326851 2.125 2.1972656 2.125 C 2.0463446 2.125 1.9242439 2.075468 1.8300781 1.9765625 C 1.7357833 1.8770157 1.6875 1.7404517 1.6875 1.5703125 C 1.6875 1.39774 1.7340567 1.2620091 1.8261719 1.1601562 C 1.9182877 1.0579178 2.0353964 1.0058594 2.1777344 1.0058594 z M 3.2167969 1.0058594 C 3.3463228 1.0058594 3.4458015 1.0366713 3.515625 1.0976562 C 3.5860889 1.1580002 3.6210937 1.2556209 3.6210938 1.3925781 L 3.6210938 2.1035156 L 3.4941406 2.1035156 L 3.4746094 1.9550781 C 3.3823655 2.0682063 3.2629531 2.1230469 3.1152344 2.1230469 C 3.0163285 2.1230469 2.9372964 2.0959776 2.8769531 2.0410156 C 2.8173783 1.9860535 2.7871094 1.909996 2.7871094 1.8125 C 2.7871094 1.6959128 2.8257615 1.6108341 2.9042969 1.5566406 C 2.9834738 1.5016787 3.1103733 1.4746094 3.2832031 1.4746094 L 3.4550781 1.4746094 L 3.4550781 1.3691406 C 3.4550781 1.2906047 3.4363605 1.2320514 3.3984375 1.1933594 C 3.3611555 1.1547954 3.3020564 1.1347656 3.2207031 1.1347656 C 3.1657412 1.1347656 3.1060023 1.1407159 3.0429688 1.1542969 C 2.9799352 1.1672454 2.9244539 1.1872355 2.875 1.2109375 L 2.828125 1.0859375 C 2.943174 1.0323836 3.0731777 1.0058595 3.2167969 1.0058594 z M 5.4316406 1.0058594 C 5.5664202 1.0058594 5.667817 1.0498875 5.7382812 1.1386719 C 5.8093862 1.2268158 5.8457031 1.3506132 5.8457031 1.5078125 L 5.8398438 1.5917969 L 5.1132812 1.5917969 C 5.1186712 1.7287536 5.1523532 1.8301198 5.2167969 1.8964844 C 5.2812408 1.9623363 5.3651037 1.9960938 5.46875 1.9960938 C 5.5249939 1.9960938 5.5770521 1.9888334 5.6230469 1.9746094 C 5.6691698 1.9603794 5.7204589 1.9385992 5.7773438 1.9101562 L 5.8125 2.0292969 C 5.7059072 2.0923308 5.5867195 2.1230469 5.4511719 2.1230469 C 5.3001225 2.1230469 5.1761971 2.0735148 5.0820312 1.9746094 C 4.9877363 1.8750625 4.9414062 1.7404517 4.9414062 1.5703125 C 4.9414062 1.39774 4.9879633 1.2620091 5.0800781 1.1601562 C 5.1721939 1.0579196 5.2893029 1.0058594 5.4316406 1.0058594 z M 7.0390625 1.0058594 C 7.1202884 1.0058594 7.1843462 1.0258912 7.2304688 1.0644531 C 7.2765897 1.1030171 7.3109548 1.1560681 7.3359375 1.2246094 C 7.4166504 1.0789399 7.5354879 1.0058594 7.6914062 1.0058594 C 7.9109984 1.0058594 8.0214844 1.14047 8.0214844 1.4101562 L 8.0214844 2.1035156 L 7.8515625 2.1035156 L 7.8515625 1.4628906 C 7.8515625 1.4303497 7.8510271 1.4043686 7.8496094 1.3847656 C 7.8488376 1.3643956 7.8472 1.3396287 7.84375 1.3105469 C 7.84029 1.2814649 7.8342299 1.2577874 7.8261719 1.2402344 C 7.8181119 1.2219174 7.8065506 1.20518 7.7929688 1.1875 C 7.7800208 1.169815 7.7626554 1.1566375 7.7402344 1.1484375 C 7.7184544 1.1395975 7.6931445 1.1347656 7.6640625 1.1347656 C 7.5989776 1.1347656 7.5410962 1.1565548 7.4902344 1.1992188 C 7.4393724 1.2418807 7.4050393 1.3022275 7.3867188 1.3828125 C 7.3813288 1.4011295 7.3790031 1.4572556 7.3769531 1.5507812 L 7.3769531 2.1035156 L 7.2070312 2.1035156 L 7.2070312 1.5 C 7.2070312 1.3685511 7.1938166 1.2743526 7.1660156 1.21875 C 7.1382157 1.1625061 7.0869245 1.1347656 7.0117188 1.1347656 C 6.9290828 1.1347656 6.8632647 1.1631792 6.8144531 1.2207031 C 6.7664092 1.2777161 6.7349231 1.3530992 6.7207031 1.4472656 L 6.7207031 2.1035156 L 6.5527344 2.1035156 L 6.5527344 1.0273438 L 6.6875 1.0273438 L 6.7070312 1.1875 C 6.7904365 1.0669429 6.9014649 1.0058594 7.0390625 1.0058594 z M 8.7246094 1.0058594 C 8.8593889 1.0058594 8.9627389 1.0498875 9.0332031 1.1386719 C 9.1043081 1.2268158 9.140625 1.3486599 9.140625 1.5058594 L 9.1328125 1.5917969 L 8.40625 1.5917969 C 8.41164 1.7287536 8.447275 1.8301197 8.5117188 1.8964844 C 8.5761627 1.9623363 8.6600258 1.9960938 8.7636719 1.9960938 C 8.8199158 1.9960938 8.871974 1.9888334 8.9179688 1.9746094 C 8.9640917 1.9603794 9.0153809 1.9385992 9.0722656 1.9101562 L 9.1074219 2.0292969 C 9.0008291 2.0922018 8.8795602 2.1230469 8.7441406 2.1230469 C 8.5932196 2.1230469 8.471119 2.0735148 8.3769531 1.9746094 C 8.2826586 1.8750629 8.234375 1.7404516 8.234375 1.5703125 C 8.234375 1.39774 8.2809311 1.262009 8.3730469 1.1601562 C 8.4651628 1.0579199 8.5822715 1.0058594 8.7246094 1.0058594 z M 10.238281 1.0058594 C 10.367808 1.0058594 10.467285 1.0366713 10.537109 1.0976562 C 10.607579 1.1580002 10.642578 1.2556209 10.642578 1.3925781 L 10.642578 2.1035156 L 10.515625 2.1035156 L 10.498047 1.9550781 C 10.405807 2.0682063 10.284438 2.1230469 10.136719 2.1230469 C 10.037809 2.1230469 9.9587808 2.0959776 9.8984375 2.0410156 C 9.8388646 1.9860537 9.8085938 1.909996 9.8085938 1.8125 C 9.8085938 1.6959128 9.8491989 1.6108341 9.9277344 1.5566406 C 10.006911 1.5016787 10.131858 1.4746094 10.304688 1.4746094 L 10.476562 1.4746094 L 10.476562 1.3691406 C 10.476562 1.2906047 10.457842 1.2320514 10.419922 1.1933594 C 10.382642 1.1547954 10.323541 1.1347656 10.242188 1.1347656 C 10.187228 1.1347656 10.127486 1.1407159 10.064453 1.1542969 C 10.001423 1.1672449 9.945938 1.1872355 9.8964844 1.2109375 L 9.8515625 1.0859375 C 9.9668683 1.0323838 10.094662 1.0058594 10.238281 1.0058594 z M 11.919922 1.0058594 C 12.042531 1.0058594 12.133113 1.0420784 12.191406 1.1152344 C 12.250336 1.1880043 12.279297 1.2975945 12.279297 1.4453125 L 12.279297 2.1035156 L 12.111328 2.1035156 L 12.111328 1.4277344 C 12.111328 1.3307495 12.09505 1.2577957 12.0625 1.2089844 C 12.02996 1.1595304 11.97067 1.1347656 11.888672 1.1347656 C 11.66767 1.1347656 11.558594 1.2579227 11.558594 1.5039062 L 11.558594 2.1035156 L 11.388672 2.1035156 L 11.388672 1.0273438 L 11.535156 1.0273438 L 11.554688 1.1757812 C 11.636037 1.061886 11.757853 1.0058594 11.919922 1.0058594 z M 12.998047 1.0058594 C 13.157297 1.0058594 13.281668 1.0571506 13.371094 1.1601562 C 13.460524 1.2625209 13.505859 1.3976763 13.505859 1.5664062 C 13.505859 1.7297554 13.460078 1.8643348 13.367188 1.96875 C 13.274298 2.0723965 13.150507 2.125 12.998047 2.125 C 12.842128 2.125 12.719741 2.0717569 12.628906 1.96875 C 12.538196 1.8649754 12.492187 1.7310365 12.492188 1.5664062 C 12.492188 1.3975491 12.537528 1.2625216 12.626953 1.1601562 C 12.717023 1.0571509 12.840078 1.0058594 12.998047 1.0058594 z M 14.902344 1.0058594 C 15.037123 1.0058594 15.140473 1.0498855 15.210938 1.1386719 C 15.282047 1.2268158 15.316406 1.3486597 15.316406 1.5058594 L 15.310547 1.5917969 L 14.583984 1.5917969 C 14.589384 1.7287536 14.625134 1.8301197 14.689453 1.8964844 C 14.753893 1.9623363 14.83776 1.9960938 14.941406 1.9960938 C 14.997646 1.9960938 15.047757 1.9888334 15.09375 1.9746094 C 15.13987 1.9603794 15.19117 1.9385992 15.248047 1.9101562 L 15.283203 2.0292969 C 15.17661 2.0923308 15.057423 2.1230469 14.921875 2.1230469 C 14.770825 2.1230469 14.646901 2.0735148 14.552734 1.9746094 C 14.458434 1.8750625 14.412109 1.7404518 14.412109 1.5703125 C 14.412109 1.3977399 14.458669 1.260056 14.550781 1.1582031 C 14.642901 1.0559667 14.760006 1.0058594 14.902344 1.0058594 z M 3.8125 1.0273438 L 3.984375 1.0273438 C 3.993345 1.0504047 4.038457 1.1759611 4.1210938 1.4023438 C 4.2043706 1.628726 4.2684271 1.7998135 4.3125 1.9160156 C 4.3477312 1.81711 4.401553 1.6678749 4.4726562 1.4707031 C 4.5445307 1.2734031 4.5975813 1.12625 4.6328125 1.0273438 L 4.8046875 1.0273438 L 4.3984375 2.1035156 L 4.2285156 2.1035156 L 3.8125 1.0273438 z M 2.1816406 1.1347656 C 2.0942657 1.1347656 2.0223686 1.1661227 1.9648438 1.2285156 C 1.9079588 1.2907796 1.8747164 1.3753154 1.8652344 1.4824219 L 2.4511719 1.4824219 C 2.4429719 1.2506587 2.3524203 1.1347656 2.1816406 1.1347656 z M 5.4355469 1.1347656 C 5.348172 1.1347656 5.2762744 1.1661237 5.21875 1.2285156 C 5.1618651 1.2907796 5.1286216 1.3753155 5.1191406 1.4824219 L 5.703125 1.4824219 C 5.6949253 1.2506587 5.6063268 1.1347652 5.4355469 1.1347656 z M 8.7285156 1.1347656 C 8.6411407 1.1347656 8.5692437 1.1661227 8.5117188 1.2285156 C 8.4548338 1.2907806 8.4215894 1.3753157 8.4121094 1.4824219 L 8.9980469 1.4824219 C 8.9898472 1.2506585 8.8992954 1.1347656 8.7285156 1.1347656 z M 13 1.1347656 C 12.891485 1.1347656 12.808837 1.1746007 12.751953 1.2539062 C 12.694943 1.3324422 12.666016 1.4375513 12.666016 1.5683594 C 12.666016 1.6964753 12.694943 1.8003706 12.751953 1.8789062 C 12.808833 1.9574422 12.891484 1.9960938 13 1.9960938 C 13.07456 1.9960938 13.136637 1.9786872 13.1875 1.9414062 C 13.239 1.9034833 13.27577 1.8514551 13.298828 1.7890625 C 13.321888 1.7260286 13.333984 1.6524038 13.333984 1.5683594 C 13.333984 1.4369125 13.30625 1.3325702 13.25 1.2539062 C 13.193752 1.1746018 13.110438 1.1347656 13 1.1347656 z M 14.90625 1.1347656 C 14.81888 1.1347656 14.746977 1.1661237 14.689453 1.2285156 C 14.632573 1.2907806 14.597373 1.3753157 14.587891 1.4824219 L 15.173828 1.4824219 C 15.165628 1.2506587 15.077028 1.1347652 14.90625 1.1347656 z M 3.3261719 1.5859375 C 3.2637789 1.5859375 3.2100877 1.5896831 3.1660156 1.5957031 C 3.1219437 1.6017231 3.0870345 1.6095708 3.0585938 1.6210938 C 3.0301528 1.6318497 3.0065034 1.6483668 2.9902344 1.6679688 C 2.9739614 1.6869307 2.9631802 1.7074068 2.9570312 1.7304688 C 2.9510113 1.7527607 2.9492188 1.7812692 2.9492188 1.8144531 C 2.9492188 1.8740281 2.966052 1.9205837 3 1.953125 C 3.033823 1.985666 3.0760911 2.0019531 3.1269531 2.0019531 C 3.2658327 2.0019531 3.3744928 1.9428539 3.4550781 1.8242188 L 3.4550781 1.5859375 L 3.3261719 1.5859375 z M 10.349609 1.5859375 C 10.287219 1.5859375 10.233525 1.5896831 10.189453 1.5957031 C 10.145383 1.6017231 10.108513 1.6115229 10.080078 1.6230469 C 10.051638 1.6338029 10.029942 1.6483668 10.013672 1.6679688 C 9.9973989 1.6869307 9.9846646 1.7074068 9.9785156 1.7304688 C 9.9724956 1.7527607 9.9707031 1.7812692 9.9707031 1.8144531 C 9.9707031 1.8740281 9.9875364 1.9205837 10.021484 1.953125 C 10.055304 1.985666 10.097574 2.0019531 10.148438 2.0019531 C 10.287316 2.0019529 10.397931 1.9428529 10.478516 1.8242188 L 10.478516 1.5859375 L 10.349609 1.5859375 z M 0.55273438 2.4804688 L 15.449219 2.4804688 L 15.449219 2.6210938 L 15.449219 2.6894531 L 15.449219 2.8984375 L 0.55273438 2.8984375 L 0.55273438 2.6894531 L 0.55273438 2.6210938 L 0.55273438 2.4804688 z M 0.75976562 14.207031 L 0.828125 14.207031 L 0.828125 15.171875 L 1.65625 15.171875 L 1.65625 14.207031 L 1.7246094 14.207031 L 1.7246094 15.171875 L 1.7929688 15.171875 L 1.7929688 15.242188 L 1.7246094 15.242188 L 1.7246094 15.310547 L 1.65625 15.310547 L 1.65625 15.242188 L 0.828125 15.242188 L 0.828125 15.310547 L 0.75976562 15.310547 L 0.75976562 15.242188 L 0.69140625 15.242188 L 0.69140625 15.171875 L 0.75976562 15.171875 L 0.75976562 14.207031 z M 14.792969 14.207031 C 14.876689 14.207031 14.947029 14.266801 14.962891 14.345703 L 15.310547 14.345703 L 15.310547 14.414062 L 14.962891 14.414062 C 14.947031 14.492962 14.876691 14.552734 14.792969 14.552734 C 14.709249 14.552734 14.640862 14.492964 14.625 14.414062 L 14.207031 14.414062 L 14.207031 14.345703 L 14.625 14.345703 C 14.64086 14.266803 14.70925 14.207031 14.792969 14.207031 z M 0.89648438 14.275391 L 1.5878906 14.275391 L 1.5878906 14.414062 L 1.3105469 14.414062 L 1.3105469 15.103516 L 1.1738281 15.103516 L 1.1738281 14.414062 L 0.89648438 14.414062 L 0.89648438 14.275391 z M 14.380859 14.966797 C 14.464579 14.966797 14.532966 15.024617 14.548828 15.103516 L 15.310547 15.103516 L 15.310547 15.171875 L 14.548828 15.171875 C 14.532968 15.250775 14.464578 15.310547 14.380859 15.310547 C 14.285339 15.310547 14.207031 15.234187 14.207031 15.138672 C 14.207031 15.043152 14.285341 14.966798 14.380859 14.966797 z M 14.380859 15.035156 C 14.323549 15.035156 14.277344 15.081366 14.277344 15.138672 C 14.277344 15.195982 14.323554 15.242188 14.380859 15.242188 C 14.438169 15.242188 14.484375 15.195978 14.484375 15.138672 C 14.484375 15.081362 14.438165 15.035156 14.380859 15.035156 z " />
  <metadata
     id="metadata2">
    <rdf:RDF>
      <cc:Work
         rdf:about="">
        <dc:creator>
          <cc:Agent>
            <dc:title>dreifacherspass</dc:title>
          </cc:Agent>
        </dc:creator>
        <cc:license
           rdf:resource="http://creativecommons.org/licenses/by-sa/4.0/" />
      </cc:Work>
      <cc:License
         rdf:about="http://creativecommons.org/licenses/by-sa/4.0/">
        <cc:permits
           rdf:resource="http://creativecommons.org/ns#Reproduction" />
        <cc:permits
           rdf:resource="http://creativecommons.org/ns#Distribution" />
        <cc:requires
           rdf:resource="http://creativecommons.org/ns#Notice" />
        <cc:requires
           rdf:resource="http://creativecommons.org/ns#Attribution" />
        <cc:permits
           rdf:resource="http://creativecommons.org/ns#DerivativeWorks" />
        <cc:requires
           rdf:resource="http://creativecommons.org/ns#ShareAlike" />
      </cc:License>
    </rdf:RDF>
  </metadata>
</svg>
