<?xml version="1.0" encoding="UTF-8" standalone="no"?>
<!-- Created with Inkscape (http://www.inkscape.org/) -->

<svg
   id="svg2"
   xml:space="preserve"
   viewBox="0 0 16 16"
   version="1.1"
   width="16"
   height="16"
   xmlns:xlink="http://www.w3.org/1999/xlink"
   xmlns="http://www.w3.org/2000/svg"
   xmlns:svg="http://www.w3.org/2000/svg"
   xmlns:rdf="http://www.w3.org/1999/02/22-rdf-syntax-ns#"
   xmlns:cc="http://creativecommons.org/ns#"
   xmlns:dc="http://purl.org/dc/elements/1.1/">
  <defs>
   <style id="current-color-scheme" type="text/css">
   .ColorScheme-Text { color: #0abdc6; } .ColorScheme-Highlight { color:#5294e2; }
  </style>
  <linearGradient id="arrongin" x1="0%" x2="0%" y1="0%" y2="100%">
   <stop offset="0%" style="stop-color:#dd9b44; stop-opacity:1"/>
   <stop offset="100%" style="stop-color:#ad6c16; stop-opacity:1"/>
  </linearGradient>
  <linearGradient id="aurora" x1="0%" x2="0%" y1="0%" y2="100%">
   <stop offset="0%" style="stop-color:#09D4DF; stop-opacity:1"/>
   <stop offset="100%" style="stop-color:#9269F4; stop-opacity:1"/>
  </linearGradient>
  <linearGradient id="cyberneon" x1="0%" x2="0%" y1="0%" y2="100%">
    <stop offset="0" style="stop-color:#0abdc6; stop-opacity:1"/>
    <stop offset="1" style="stop-color:#ea00d9; stop-opacity:1"/>
  </linearGradient>
  <linearGradient id="fitdance" x1="0%" x2="0%" y1="0%" y2="100%">
   <stop offset="0%" style="stop-color:#1AD6AB; stop-opacity:1"/>
   <stop offset="100%" style="stop-color:#329DB6; stop-opacity:1"/>
  </linearGradient>
  <linearGradient id="oomox" x1="0%" x2="0%" y1="0%" y2="100%">
   <stop offset="0%" style="stop-color:#0abdc6; stop-opacity:1"/>
   <stop offset="100%" style="stop-color:#b800ff; stop-opacity:1"/>
  </linearGradient>
  <linearGradient id="rainblue" x1="0%" x2="0%" y1="0%" y2="100%">
   <stop offset="0%" style="stop-color:#00F260; stop-opacity:1"/>
   <stop offset="100%" style="stop-color:#0575E6; stop-opacity:1"/>
  </linearGradient>
  <linearGradient id="sunrise" x1="0%" x2="0%" y1="0%" y2="100%">
   <stop offset="0%" style="stop-color: #FF8501; stop-opacity:1"/>
   <stop offset="100%" style="stop-color: #FFCB01; stop-opacity:1"/>
  </linearGradient>
  <linearGradient id="telinkrin" x1="0%" x2="0%" y1="0%" y2="100%">
   <stop offset="0%" style="stop-color: #b2ced6; stop-opacity:1"/>
   <stop offset="100%" style="stop-color: #6da5b7; stop-opacity:1"/>
  </linearGradient>
  <linearGradient id="60spsycho" x1="0%" x2="0%" y1="0%" y2="100%">
   <stop offset="0%" style="stop-color: #df5940; stop-opacity:1"/>
   <stop offset="25%" style="stop-color: #d8d15f; stop-opacity:1"/>
   <stop offset="50%" style="stop-color: #e9882a; stop-opacity:1"/>
   <stop offset="100%" style="stop-color: #279362; stop-opacity:1"/>
  </linearGradient>
  <linearGradient id="90ssummer" x1="0%" x2="0%" y1="0%" y2="100%">
   <stop offset="0%" style="stop-color: #f618c7; stop-opacity:1"/>
   <stop offset="20%" style="stop-color: #94ffab; stop-opacity:1"/>
   <stop offset="50%" style="stop-color: #fbfd54; stop-opacity:1"/>
   <stop offset="100%" style="stop-color: #0f83ae; stop-opacity:1"/>
  </linearGradient>
    <linearGradient
       id="linearGradient2284"
       gradientTransform="matrix(1.6440072,0,0,0.60826983,-38.207552,-69.729474)"
       x1="0"
       y1="132.57439"
       x2="77.858536"
       y2="132.57439"
       gradientUnits="userSpaceOnUse">
      <stop
         style="stop-color:#41ff00;stop-opacity:1;"
         offset="0"
         id="stop2280" />
      <stop
         style="stop-color:#e7ff00;stop-opacity:1;"
         offset="1"
         id="stop2282" />
    </linearGradient>
  </defs>
  <path
   id="path30"
   style="display:inline;fill:url(#oomox);fill-opacity:1;fill-rule:evenodd;stroke-width:0.618151"
   class="ColorScheme-Text"
   d="m 9.7459354,2.4633429 c -0.042121,-5.544e-4 -0.084578,8.709e-4 -0.1268735,0.00133 0.1062062,0.014359 0.2201181,0.034342 0.3507286,0.065774 0.2539075,0.05287 0.4754615,0.059566 0.6669165,0.019932 -0.293049,-0.05291 -0.589652,-0.083079 -0.8907716,-0.087037 z m 1.1571386,0.1455003 c -0.03565,0.018707 -0.07176,0.036376 -0.110267,0.051822 -0.144633,0.058109 -0.41051,0.088363 -0.8017602,0.088363 -0.3473654,0 -0.5574013,0.021171 -0.6297172,0.064445 l -0.2178769,0.1514797 0.4131688,0.044513 c 0.3479837,0.07233 0.7173985,0.1738467 1.1086485,0.3042884 0.90987,0.313283 1.800583,0.4794942 2.670985,0.4982886 -5.11e-4,-3.877e-4 -8.17e-4,-9.422e-4 -0.0013,-0.00133 C 12.557435,3.2033941 11.74656,2.8056714 10.903077,2.608842 Z m -2.9360239,0.070424 c -0.066997,0.00841 -0.1331664,0.016703 -0.1986133,0.024583 0.062714,0.035057 0.1224117,0.069617 0.1733714,0.1029796 0.00806,-0.045055 0.01694,-0.083944 0.025242,-0.1275626 z M 5.9603243,3.0845429 C 5.5970728,3.0950839 5.2264867,3.1704864 4.8463621,3.3137557 4.3246952,3.5140545 3.9546631,3.608345 3.737714,3.5941261 3.6357365,3.5907584 3.5383362,3.5801405 3.4447759,3.5635643 3.1101779,3.7530095 2.77402,3.9772623 2.4357668,4.2458878 1.0308547,5.3469102 0.2342801,6.771115 0.04576347,8.5218688 -0.1569691,10.405537 0.31389845,12.01179 1.4579778,13.344638 c 1.043331,1.200553 2.4313533,1.990053 4.1675601,2.366539 1.694795,0.362268 3.2645994,0.383485 4.7109231,0.06511 1.506279,-0.333213 2.786473,-1.028237 3.843402,-2.083512 1.072381,-1.072584 1.671055,-2.49702 1.80147,-4.2793025 0.152329,-2.118409 -0.627766,-3.9003641 -2.335534,-5.348963 -0.163256,0.012735 -0.382265,0.033356 -0.723378,0.072418 C 12.575056,4.1659868 12.154274,4.151193 11.661658,4.093081 11.125776,4.0355857 10.635735,3.9335896 10.187003,3.7907839 L 9.6868164,3.594126 10.533746,4.1156681 c 0.620561,0.3907058 1.113784,0.7382623 1.475983,1.0424202 0.7244,0.6231505 1.267708,0.9643309 1.627435,1.0218239 0.304099,0.04142 0.557179,0.0194 0.759912,-0.067767 -0.07232,0.08964 -0.195027,0.1699856 -0.369328,0.2398429 C 13.668021,6.4675925 13.233962,6.4598399 12.727129,6.3293974 12.263562,6.2014287 11.90057,6.027503 11.639737,5.8105127 11.306587,5.5063551 10.974506,5.2236402 10.641356,4.9627577 10.122162,4.5714332 9.5858953,4.2463299 9.0351783,3.9854473 L 8.3609555,3.7050783 C 7.8689573,3.9943982 7.4000841,4.4048951 6.9507341,4.9414987 6.733785,5.2165997 6.5018722,5.5198216 6.2552551,5.8530347 6.0234718,6.0558061 5.6105806,6.2087456 5.0190693,6.3101315 4.4974033,6.3972985 3.8678691,6.2443589 3.129253,5.8530347 L 4.0419448,6.1573233 C 4.694028,6.271072 5.150813,6.0930119 5.4116463,5.6145205 5.6143799,5.2813077 5.7845182,4.947834 5.9297683,4.6146212 6.0311353,4.3827939 6.1474238,4.1797606 6.2778398,4.0060448 6.6109897,3.600502 7.0388566,3.3621681 7.5605238,3.2898377 7.5889562,3.2484187 7.1752151,3.1798672 6.3210169,3.095173 6.2014168,3.0843545 6.0814079,3.0810293 5.9603243,3.0845429 Z M 10.406209,6.8243655 8.377562,10.843894 c -0.067889,0.130445 -0.1561817,0.252639 -0.2657036,0.362089 -0.5757667,0.576355 -1.5106694,0.576355 -2.0864368,0 -0.5762432,-0.575875 -0.5762432,-1.5102919 0,-2.0861676 C 6.1348592,9.0102666 6.257678,8.9219659 6.3881069,8.8540615 l 0.059783,-0.029897 z M 7.0683079,9.5729259 c -0.1510247,0 -0.3019055,0.057469 -0.4171544,0.1727402 -0.2304987,0.2305418 -0.2304987,0.6039249 0,0.8344669 0.2304981,0.230541 0.6044743,0.230541 0.8349734,0 0.2304983,-0.230542 0.2304983,-0.6039251 0,-0.8344669 C 7.3708773,9.6303947 7.219333,9.5729259 7.0683079,9.5729259 Z" /><path
   id="path254"
   class="ColorScheme-Text"
   style="fill:url(#oomox);fill-opacity:0.5;fill-rule:evenodd;stroke-width:0.618151"
   d="M 8.6657955,0 8.3606134,0.65201543 C 8.1968836,1.0010056 8.0566536,2.1625323 7.9414715,2.806662 7.8803486,2.7666454 7.8125907,2.7255167 7.7338323,2.6830211 7.3567978,2.509305 6.8932299,2.414835 6.3431309,2.399998 5.8647296,2.3857793 5.4245334,2.4872814 5.0190665,2.7042719 4.4973999,2.9651547 4.048859,3.1252708 3.6718246,3.1833817 3.1384139,3.2699307 2.7693751,3.1322251 2.5660238,2.7699559 L 2.4356455,2.227093 2.4143987,2.6830211 c 0,0.231827 0.1238886,0.434754 0.369888,0.6066149 0.2608335,0.1904076 0.5786484,0.2919098 0.95321,0.3042739 C 3.9544458,3.6081285 4.3245275,3.5140841 4.8461951,3.3137851 5.3530282,3.1227591 5.8425172,3.0522063 6.320918,3.0954808 7.1751172,3.180175 7.588426,3.2482168 7.5599946,3.289636 7.038327,3.3619662 6.6106084,3.6008265 6.2774582,4.0063697 6.1470419,4.1800859 6.0311496,4.3830903 5.9297826,4.6149179 5.7845325,4.948131 5.613901,5.2814611 5.4111674,5.6146742 5.1503338,6.0931661 4.6937968,6.2712864 4.0417128,6.1575372 L 3.1290647,5.8532637 C 3.8676814,6.2445882 4.4973999,6.397324 5.0190665,6.3101571 5.6105782,6.2087708 6.0234626,6.056035 6.2552462,5.8532637 6.5018637,5.5200501 6.7336473,5.2165096 6.9505967,4.9414083 7.3999471,4.4048043 7.8686144,3.9943145 8.3606134,3.7049943 l 0.6741037,0.2801249 c 0.5507173,0.2608828 1.0868729,0.586215 1.6060679,0.9775399 0.33315,0.2608828 0.665451,0.543945 0.998601,0.8481029 0.260833,0.2169904 0.623884,0.3907449 1.087451,0.5187137 0.506833,0.1304414 0.941158,0.137821 1.300886,0.022216 0.174301,-0.069857 0.296605,-0.1499158 0.368922,-0.2395557 -0.202733,0.087168 -0.455957,0.109037 -0.760058,0.067617 C 13.27686,6.12226 12.733674,5.7809309 12.009273,5.1577798 11.647074,4.8536219 11.154146,4.5062273 10.533584,4.1155211 L 9.6866096,3.5939092 10.186875,3.7909623 c 0.448733,0.1428059 0.93884,0.244849 1.474723,0.3023423 0.492617,0.058111 0.912958,0.072523 1.260323,0.043467 0.507452,-0.058111 0.818854,-0.086936 0.931963,-0.086936 0.535884,0 1.180012,0.1232942 1.933462,0.3699588 C 14.845997,4.0426915 14.042556,3.842237 13.378728,3.8131814 12.494861,3.7989612 11.58959,3.6321611 10.664928,3.3137851 10.273679,3.1833434 9.9042147,3.0818413 9.5562307,3.0095111 L 9.142883,2.9650807 9.3611463,2.8134266 c 0.072316,-0.043274 0.2823127,-0.064719 0.6296784,-0.064719 0.3912503,0 0.6569523,-0.029791 0.8015853,-0.087901 0.234256,-0.093968 0.415781,-0.2479783 0.543726,-0.4655871 -0.0921,0.082222 -0.258594,0.1814054 -0.500267,0.292682 -0.231783,0.101386 -0.518926,0.1148321 -0.8662907,0.042502 C 9.6073781,2.443236 9.3387789,2.4217916 9.1650964,2.4656844 9.0968447,2.481634 9.0286735,2.5018989 8.9603531,2.5246056 8.9484748,2.3001836 8.951822,1.392419 8.9700161,1.1282283 8.9990671,0.73937671 9.0925533,0.48521578 9.2520193,0.36899353 c 0.053156,-0.035856 0.101908,-0.0579198 0.1525912,-0.0647189 H 9.3823985 C 9.4256637,0.21710747 9.3536195,0.1370497 9.1651004,0.06471949 9.0346841,0.021445 8.9117602,1.2102296e-6 8.7961774,6.4012146e-7 Z" />
<metadata
   id="metadata2275"><rdf:RDF><cc:Work><dc:format>image/svg+xml</dc:format><dc:type
         rdf:resource="http://purl.org/dc/dcmitype/StillImage" /><cc:license
         rdf:resource="http://creativecommons.org/licenses/by-sa/4.0/" /><dc:creator><cc:Agent><dc:title>dreifacherspass</dc:title></cc:Agent></dc:creator></cc:Work><cc:License
       rdf:about="http://creativecommons.org/licenses/by-sa/4.0/"><cc:permits
         rdf:resource="http://creativecommons.org/ns#Reproduction" /><cc:permits
         rdf:resource="http://creativecommons.org/ns#Distribution" /><cc:requires
         rdf:resource="http://creativecommons.org/ns#Notice" /><cc:requires
         rdf:resource="http://creativecommons.org/ns#Attribution" /><cc:permits
         rdf:resource="http://creativecommons.org/ns#DerivativeWorks" /><cc:requires
         rdf:resource="http://creativecommons.org/ns#ShareAlike" /></cc:License></rdf:RDF></metadata>
  <g
     id="g1840"
     transform="matrix(0.12499902,0,0,0.12669133,4.7759066,8.6176042)">
    <path
       d="m 89.792448,10.911526 v 47.359 h -128 v -47.359 z"
       id="path359"
       style="fill:url(#linearGradient2284);fill-opacity:1" />
    <path
       d="m -24.898552,10.911526 47.355,47.359 h 21.215 l -47.3590004,-47.359 z m 42.422,0 47.363,47.359 h 21.215 l -47.363,-47.359 z m 42.43,0 29.84,29.84 v -21.211 l -8.6289,-8.6289 z m -98.16,7.9062 v 21.215 l 18.238,18.238 H 1.2464476 Z"
       id="path361"
       style="fill:#000000;fill-opacity:1" />
  </g>
</svg>
