<?xml version="1.0" encoding="UTF-8" standalone="no"?>

<svg
   version="1.1"
   id="dune3d"
   x="0px"
   y="0px"
   width="16"
   height="16"
   viewBox="0 0 16 16"
   xml:space="preserve"
   xmlns="http://www.w3.org/2000/svg"
   xmlns:svg="http://www.w3.org/2000/svg"
   xmlns:rdf="http://www.w3.org/1999/02/22-rdf-syntax-ns#"
   xmlns:cc="http://creativecommons.org/ns#"
   xmlns:dc="http://purl.org/dc/elements/1.1/">
  <defs>
   <style id="current-color-scheme" type="text/css">
   .ColorScheme-Text { color: #0abdc6; } .ColorScheme-Highlight { color:#5294e2; }
  </style>
  <linearGradient id="arrongin" x1="0%" x2="0%" y1="0%" y2="100%">
   <stop offset="0%" style="stop-color:#dd9b44; stop-opacity:1"/>
   <stop offset="100%" style="stop-color:#ad6c16; stop-opacity:1"/>
  </linearGradient>
  <linearGradient id="aurora" x1="0%" x2="0%" y1="0%" y2="100%">
   <stop offset="0%" style="stop-color:#09D4DF; stop-opacity:1"/>
   <stop offset="100%" style="stop-color:#9269F4; stop-opacity:1"/>
  </linearGradient>
  <linearGradient id="cyberneon" x1="0%" x2="0%" y1="0%" y2="100%">
    <stop offset="0" style="stop-color:#0abdc6; stop-opacity:1"/>
    <stop offset="1" style="stop-color:#ea00d9; stop-opacity:1"/>
  </linearGradient>
  <linearGradient id="fitdance" x1="0%" x2="0%" y1="0%" y2="100%">
   <stop offset="0%" style="stop-color:#1AD6AB; stop-opacity:1"/>
   <stop offset="100%" style="stop-color:#329DB6; stop-opacity:1"/>
  </linearGradient>
  <linearGradient id="oomox" x1="0%" x2="0%" y1="0%" y2="100%">
   <stop offset="0%" style="stop-color:#0abdc6; stop-opacity:1"/>
   <stop offset="100%" style="stop-color:#b800ff; stop-opacity:1"/>
  </linearGradient>
  <linearGradient id="rainblue" x1="0%" x2="0%" y1="0%" y2="100%">
   <stop offset="0%" style="stop-color:#00F260; stop-opacity:1"/>
   <stop offset="100%" style="stop-color:#0575E6; stop-opacity:1"/>
  </linearGradient>
  <linearGradient id="sunrise" x1="0%" x2="0%" y1="0%" y2="100%">
   <stop offset="0%" style="stop-color: #FF8501; stop-opacity:1"/>
   <stop offset="100%" style="stop-color: #FFCB01; stop-opacity:1"/>
  </linearGradient>
  <linearGradient id="telinkrin" x1="0%" x2="0%" y1="0%" y2="100%">
   <stop offset="0%" style="stop-color: #b2ced6; stop-opacity:1"/>
   <stop offset="100%" style="stop-color: #6da5b7; stop-opacity:1"/>
  </linearGradient>
  <linearGradient id="60spsycho" x1="0%" x2="0%" y1="0%" y2="100%">
   <stop offset="0%" style="stop-color: #df5940; stop-opacity:1"/>
   <stop offset="25%" style="stop-color: #d8d15f; stop-opacity:1"/>
   <stop offset="50%" style="stop-color: #e9882a; stop-opacity:1"/>
   <stop offset="100%" style="stop-color: #279362; stop-opacity:1"/>
  </linearGradient>
  <linearGradient id="90ssummer" x1="0%" x2="0%" y1="0%" y2="100%">
   <stop offset="0%" style="stop-color: #f618c7; stop-opacity:1"/>
   <stop offset="20%" style="stop-color: #94ffab; stop-opacity:1"/>
   <stop offset="50%" style="stop-color: #fbfd54; stop-opacity:1"/>
   <stop offset="100%" style="stop-color: #0f83ae; stop-opacity:1"/>
  </linearGradient>
 </defs>
  <path
   id="rect17"
   class="ColorScheme-Text"
   style="opacity:0.5;fill:url(#oomox);fill-opacity:1;stroke:none;stroke-width:90.5256;stroke-dasharray:none;stroke-opacity:1"
   d="m -1.5920666,15.872635 c 6.7309196,-6.6043174 6.7309196,-6.6043174 0,0 z M 0.79123623,4.5552308 7.7544895,0.20678177 0.67814599,4.3285339 0.75363652,5.4797775 V 11.396072 L 7.8239491,15.454666 V 8.9917748 C 5.4608979,7.6490807 3.1285185,5.9425636 0.79123623,4.5552308 Z" />
  <path
   d="M 7.8976144,0.60428385 0.72573945,4.4402213 7.719948,8.9360081 7.4704488,15.828843 7.9865166,8.9618966 15.221833,4.4597526 Z"
   style="display:inline;opacity:0.2;fill:url(#oomox);stroke:none;stroke-width:16;stroke-dasharray:none;stroke-opacity:1"
   id="path1-3"
   class="ColorScheme-Text" />
  <path
   id="rect18"
   class="ColorScheme-Text"
   style="display:inline;opacity:0.2;fill:url(#oomox);fill-opacity:1;stroke:none;stroke-width:16;stroke-dasharray:none;stroke-opacity:1"
   d="M 15.726374,4.8376386 15.535366,4.2134402 7.8843584,0.2609706 15.13803,4.4700421 8.2752016,8.9020918 v 6.4667962 l 7.4511724,-4.064452 z" />
  <path
   id="path1"
   class="ColorScheme-Text"
   d="m 7.8839977,0.20531736 c -0.030813,1.4394e-4 -0.061607,0.007727 -0.08951,0.0227607 L 0.22808051,4.2745762 c -0.001157,5.634e-4 -0.002083,0.00156 -0.003215,0.0023 -9.5155e-4,3.842e-4 -0.001912,5.378e-4 -0.002863,0.00111 -0.005915,0.00361 -0.0108959,0.00856 -0.0164252,0.012756 l 0.0182845,7.1520568 7.56680899,4.309863 c 0.029421,0.01655 0.061875,0.04167 0.094381,0.04167 0.032096,0 0.06402,5.74e-4 0.092874,-0.01541 l 7.7212162,-4.339589 c 0.06269,-0.03484 0.09533,-0.03939 0.09554,-0.229708 -0.02059,-1.7300536 -0.0043,-6.4881578 -0.0043,-6.84006 C 15.38396,4.1414473 10.581786,1.59284 7.9737583,0.22732768 7.9456618,0.21248553 7.9148107,0.2051733 7.8839977,0.20531736 Z m 0.00166,0.4058904 L 15.209127,4.4664414 7.886007,8.5003586 0.71365144,4.446807 Z M 15.487223,4.7659568 V 11.23269 L 8.0343353,15.297247 V 8.8305133 Z M 0.58144677,4.7692082 C 2.9146248,6.1635727 5.2920041,7.4819854 7.6521372,8.8301632 V 15.293795 L 0.58144677,11.233641 Z"
   style="display:inline;fill:none;fill-opacity:1;stroke:url(#oomox);stroke-width:0.410636;stroke-dasharray:none;stroke-opacity:1" />
<metadata
   id="metadata17"><rdf:RDF><cc:Work
       rdf:about=""><dc:creator><cc:Agent><dc:title>dreifacherspass</dc:title></cc:Agent></dc:creator><cc:license
         rdf:resource="http://creativecommons.org/licenses/by-sa/4.0/" /></cc:Work><cc:License
       rdf:about="http://creativecommons.org/licenses/by-sa/4.0/"><cc:permits
         rdf:resource="http://creativecommons.org/ns#Reproduction" /><cc:permits
         rdf:resource="http://creativecommons.org/ns#Distribution" /><cc:requires
         rdf:resource="http://creativecommons.org/ns#Notice" /><cc:requires
         rdf:resource="http://creativecommons.org/ns#Attribution" /><cc:permits
         rdf:resource="http://creativecommons.org/ns#DerivativeWorks" /><cc:requires
         rdf:resource="http://creativecommons.org/ns#ShareAlike" /></cc:License></rdf:RDF></metadata></svg>
