<?xml version="1.0" encoding="UTF-8" standalone="no"?>
<svg
   width="16"
   height="16"
   viewBox="0 0 4.2333333 4.2333333"
   version="1.1"
   id="svg8"
   xmlns:xlink="http://www.w3.org/1999/xlink"
   xmlns="http://www.w3.org/2000/svg"
   xmlns:svg="http://www.w3.org/2000/svg"
   xmlns:rdf="http://www.w3.org/1999/02/22-rdf-syntax-ns#"
   xmlns:cc="http://creativecommons.org/ns#"
   xmlns:dc="http://purl.org/dc/elements/1.1/">
  <defs>
   <style id="current-color-scheme" type="text/css">
   .ColorScheme-Text { color: #0abdc6; } .ColorScheme-Highlight { color:#5294e2; }
  </style>
  <linearGradient id="arrongin" x1="0%" x2="0%" y1="0%" y2="100%">
   <stop offset="0%" style="stop-color:#dd9b44; stop-opacity:1"/>
   <stop offset="100%" style="stop-color:#ad6c16; stop-opacity:1"/>
  </linearGradient>
  <linearGradient id="aurora" x1="0%" x2="0%" y1="0%" y2="100%">
   <stop offset="0%" style="stop-color:#09D4DF; stop-opacity:1"/>
   <stop offset="100%" style="stop-color:#9269F4; stop-opacity:1"/>
  </linearGradient>
  <linearGradient id="cyberneon" x1="0%" x2="0%" y1="0%" y2="100%">
    <stop offset="0" style="stop-color:#0abdc6; stop-opacity:1"/>
    <stop offset="1" style="stop-color:#ea00d9; stop-opacity:1"/>
  </linearGradient>
  <linearGradient id="fitdance" x1="0%" x2="0%" y1="0%" y2="100%">
   <stop offset="0%" style="stop-color:#1AD6AB; stop-opacity:1"/>
   <stop offset="100%" style="stop-color:#329DB6; stop-opacity:1"/>
  </linearGradient>
  <linearGradient id="oomox" x1="0%" x2="0%" y1="0%" y2="100%">
   <stop offset="0%" style="stop-color:#0abdc6; stop-opacity:1"/>
   <stop offset="100%" style="stop-color:#b800ff; stop-opacity:1"/>
  </linearGradient>
  <linearGradient id="rainblue" x1="0%" x2="0%" y1="0%" y2="100%">
   <stop offset="0%" style="stop-color:#00F260; stop-opacity:1"/>
   <stop offset="100%" style="stop-color:#0575E6; stop-opacity:1"/>
  </linearGradient>
  <linearGradient id="sunrise" x1="0%" x2="0%" y1="0%" y2="100%">
   <stop offset="0%" style="stop-color: #FF8501; stop-opacity:1"/>
   <stop offset="100%" style="stop-color: #FFCB01; stop-opacity:1"/>
  </linearGradient>
  <linearGradient id="telinkrin" x1="0%" x2="0%" y1="0%" y2="100%">
   <stop offset="0%" style="stop-color: #b2ced6; stop-opacity:1"/>
   <stop offset="100%" style="stop-color: #6da5b7; stop-opacity:1"/>
  </linearGradient>
  <linearGradient id="60spsycho" x1="0%" x2="0%" y1="0%" y2="100%">
   <stop offset="0%" style="stop-color: #df5940; stop-opacity:1"/>
   <stop offset="25%" style="stop-color: #d8d15f; stop-opacity:1"/>
   <stop offset="50%" style="stop-color: #e9882a; stop-opacity:1"/>
   <stop offset="100%" style="stop-color: #279362; stop-opacity:1"/>
  </linearGradient>
  <linearGradient id="90ssummer" x1="0%" x2="0%" y1="0%" y2="100%">
   <stop offset="0%" style="stop-color: #f618c7; stop-opacity:1"/>
   <stop offset="20%" style="stop-color: #94ffab; stop-opacity:1"/>
   <stop offset="50%" style="stop-color: #fbfd54; stop-opacity:1"/>
   <stop offset="100%" style="stop-color: #0f83ae; stop-opacity:1"/>
  </linearGradient>
 </defs>
  <metadata
     id="metadata5">
    <rdf:RDF>
      <cc:Work
         rdf:about="">
        <dc:format>image/svg+xml</dc:format>
        <dc:type
           rdf:resource="http://purl.org/dc/dcmitype/StillImage" />
        <dc:creator>
          <cc:Agent>
            <dc:title>Dreifacherspass</dc:title>
          </cc:Agent>
        </dc:creator>
        <cc:license
           rdf:resource="http://creativecommons.org/licenses/by-sa/4.0/" />
      </cc:Work>
      <cc:License
         rdf:about="http://creativecommons.org/licenses/by-sa/4.0/">
        <cc:permits
           rdf:resource="http://creativecommons.org/ns#Reproduction" />
        <cc:permits
           rdf:resource="http://creativecommons.org/ns#Distribution" />
        <cc:requires
           rdf:resource="http://creativecommons.org/ns#Notice" />
        <cc:requires
           rdf:resource="http://creativecommons.org/ns#Attribution" />
        <cc:permits
           rdf:resource="http://creativecommons.org/ns#DerivativeWorks" />
        <cc:requires
           rdf:resource="http://creativecommons.org/ns#ShareAlike" />
      </cc:License>
    </rdf:RDF>
  </metadata>
  <path
     d="m 0.57663308,1.503657 c 0,-0.1099191 0.10943402,-0.1775616 0.37460101,-0.1775616 L 0.86284504,1.8122757 C 0.69869406,1.7023566 0.57663308,1.600893 0.57663308,1.503657 Z M 1.2837451,2.7043109 c 0,0.1141467 -0.1136431,0.1902444 -0.37460102,0.2029274 L 1.001742,2.3914644 c 0.1641511,0.109919 0.2820031,0.2071551 0.2820031,0.3128465 z M 0.82075503,3.7612245 0.90072603,3.2834996 C 1.5362851,3.2243124 1.7846161,2.9664255 1.7846161,2.6831726 c 0,-0.2917082 -0.353556,-0.5200015 -0.6776491,-0.7187013 l 0.1178521,-0.625693 c 0.1346879,0.012683 0.29463,0.038049 0.484035,0.076098 L 1.7635711,0.97942772 C 1.6204651,0.95828943 1.4857771,0.94983408 1.359507,0.94137873 L 1.4563141,0.4763367 1.0396231,0.47210885 0.95965203,0.94560617 C 0.32409305,0.99633805 0.07576206,1.2626803 0.07576206,1.5459332 c 0,0.2874805 0.35355599,0.5073185 0.67764897,0.697563 L 0.63555904,2.8987827 C 0.48403502,2.8903271 0.29883902,2.8649615 0.08418,2.8269126 L 0,3.2623611 c 0.18098706,0.021138 0.34934708,0.033821 0.500871,0.038049 L 0.4082731,3.7569968 Z"
     style="font-style:normal;font-variant:normal;font-weight:normal;font-stretch:normal;font-size:47.9778px;line-height:1.25;font-family:'Operator Mono';-inkscape-font-specification:'Operator Mono';fill:url(#oomox);fill-opacity:1;stroke-width:0.0232627"
     id="path154"
     class="ColorScheme-Text" />
  <path
     d="m 3.5641023,3.4272398 h 0.471408 C 4.0944363,2.9326042 4.1786164,1.9348777 4.2333333,0.80609385 H 3.7829704 C 3.770344,1.0724361 3.7240444,2.6578066 3.7072083,2.788864 H 3.694582 C 3.5809384,2.3618709 3.4883402,2.0152031 3.3746975,1.5924376 H 3.1179484 C 3.0085144,2.0152031 2.9327524,2.3322773 2.8191094,2.788864 H 2.8022734 C 2.7896464,2.6578066 2.7180934,1.0724361 2.7096754,0.80609385 h -0.467199 c 0.054717,1.12878385 0.134688,2.12651035 0.193614,2.62114595 h 0.46299 l 0.324093,-1.2556134 z"
     style="fill:url(#oomox);fill-opacity:1;stroke-width:0.0232627"
     id="path155"
     class="ColorScheme-Text" />
</svg>
