<?xml version="1.0" encoding="UTF-8" standalone="no"?>
<svg
   height="48"
   viewBox="0 0 48 48"
   width="48"
   version="1.1"
   id="svg3864"
   xmlns="http://www.w3.org/2000/svg"
   xmlns:svg="http://www.w3.org/2000/svg"
   xmlns:rdf="http://www.w3.org/1999/02/22-rdf-syntax-ns#"
   xmlns:cc="http://creativecommons.org/ns#"
   xmlns:dc="http://purl.org/dc/elements/1.1/">
  <defs
     id="defs3868">
    <style
       id="current-color-scheme"
       type="text/css">
      .ColorScheme-Text { color: #0abdc6; } .ColorScheme-Highlight { color:#5294e2; }
     </style>
    <linearGradient
       id="arrongin"
       x1="0"
       x2="0"
       y1="0"
       y2="1">
      <stop
         offset="0%"
         style="stop-color:#dd9b44; stop-opacity:1"
         id="stop9192" />
      <stop
         offset="100%"
         style="stop-color:#ad6c16; stop-opacity:1"
         id="stop9194" />
    </linearGradient>
    <linearGradient
       id="aurora"
       x1="0"
       x2="0"
       y1="0"
       y2="1">
      <stop
         offset="0%"
         style="stop-color:#09D4DF; stop-opacity:1"
         id="stop9197" />
      <stop
         offset="100%"
         style="stop-color:#9269F4; stop-opacity:1"
         id="stop9199" />
    </linearGradient>
    <linearGradient
       id="cyberneon"
       x1="0"
       x2="0"
       y1="0"
       y2="1">
      <stop
         offset="0"
         style="stop-color:#0abdc6; stop-opacity:1"
         id="stop9202" />
      <stop
         offset="1"
         style="stop-color:#ea00d9; stop-opacity:1"
         id="stop9204" />
    </linearGradient>
    <linearGradient
       id="fitdance"
       x1="0"
       x2="0"
       y1="0"
       y2="1">
      <stop
         offset="0%"
         style="stop-color:#1AD6AB; stop-opacity:1"
         id="stop9207" />
      <stop
         offset="100%"
         style="stop-color:#329DB6; stop-opacity:1"
         id="stop9209" />
    </linearGradient>
    <linearGradient
       id="oomox"
       x1="0"
       x2="0"
       y1="0"
       y2="1">
      <stop
         offset="0%"
         style="stop-color:#0abdc6; stop-opacity:1"
         id="stop9212" />
      <stop
         offset="100%"
         style="stop-color:#b800ff; stop-opacity:1"
         id="stop9214" />
    </linearGradient>
    <linearGradient
       id="rainblue"
       x1="0"
       x2="0"
       y1="0"
       y2="1">
      <stop
         offset="0%"
         style="stop-color:#00F260; stop-opacity:1"
         id="stop9217" />
      <stop
         offset="100%"
         style="stop-color:#0575E6; stop-opacity:1"
         id="stop9219" />
    </linearGradient>
    <linearGradient
       id="sunrise"
       x1="0"
       x2="0"
       y1="0"
       y2="1">
      <stop
         offset="0%"
         style="stop-color: #FF8501; stop-opacity:1"
         id="stop9222" />
      <stop
         offset="100%"
         style="stop-color: #FFCB01; stop-opacity:1"
         id="stop9224" />
    </linearGradient>
    <linearGradient
       id="telinkrin"
       x1="0"
       x2="0"
       y1="0"
       y2="1">
      <stop
         offset="0%"
         style="stop-color: #b2ced6; stop-opacity:1"
         id="stop9227" />
      <stop
         offset="100%"
         style="stop-color: #6da5b7; stop-opacity:1"
         id="stop9229" />
    </linearGradient>
    <linearGradient
       id="60spsycho"
       x1="0"
       x2="0"
       y1="0"
       y2="1">
      <stop
         offset="0%"
         style="stop-color: #df5940; stop-opacity:1"
         id="stop9232" />
      <stop
         offset="25%"
         style="stop-color: #d8d15f; stop-opacity:1"
         id="stop9234" />
      <stop
         offset="50%"
         style="stop-color: #e9882a; stop-opacity:1"
         id="stop9236" />
      <stop
         offset="100%"
         style="stop-color: #279362; stop-opacity:1"
         id="stop9238" />
    </linearGradient>
    <linearGradient
       id="90ssummer"
       x1="0"
       x2="0"
       y1="0"
       y2="1">
      <stop
         offset="0%"
         style="stop-color: #f618c7; stop-opacity:1"
         id="stop9241" />
      <stop
         offset="20%"
         style="stop-color: #94ffab; stop-opacity:1"
         id="stop9243" />
      <stop
         offset="50%"
         style="stop-color: #fbfd54; stop-opacity:1"
         id="stop9245" />
      <stop
         offset="100%"
         style="stop-color: #0f83ae; stop-opacity:1"
         id="stop9247" />
    </linearGradient>
  </defs>
  <path
     id="path40"
     class="ColorScheme-Text"
     style="display:inline;fill:url(#oomox);fill-opacity:1;stroke-width:0.471161"
     d="M 24.903846,24.903846 V 47.5 H 43.884615 C 45.888257,47.5 47.5,45.748256 47.5,43.570384 V 24.903846 Z m 5.476037,2.502348 c 0.566665,0 0.935622,0.333418 0.935622,0.843825 0,0.431987 -0.265308,0.874127 -0.796162,1.333702 h 0.861479 v 0.589619 h -1.772386 v -0.480169 c 0.654934,-0.589079 1.055664,-0.997755 1.055664,-1.335467 0,-0.212991 -0.158881,-0.358361 -0.40779,-0.358361 -0.180063,0 -0.379547,0.07863 -0.582557,0.23214 l -0.158879,-0.499587 c 0.241847,-0.216826 0.538424,-0.325702 0.865009,-0.325702 z m -2.031889,0.03796 h 0.591384 v 1.665584 l 0.441331,0.0018 v 0.57373 h -0.441331 v 0.506648 h -0.610802 v -0.506648 h -1.149227 v -0.358361 z m -0.01942,0.759972 -0.525184,0.901198 0.525184,0.0027 z" />
  <path
     id="path4505"
     class="ColorScheme-Text"
     d="M 23.096154,24.903846 V 47.5 H 4.1153846 C 2.111743,47.5 0.5,45.748107 0.5,43.570235 V 24.903846 Z"
     style="display:inline;fill:url(#oomox);fill-opacity:1;stroke-width:0.471161" />
  <path
     style="display:inline;fill:url(#oomox);fill-opacity:1;stroke-width:0.443147"
     d="M 24.903846,0.5 V 23.096154 H 47.5 V 3.9763315 C 47.5,2.0497599 45.888257,0.5 43.884615,0.5 Z m 5.370117,5.2144973 h 3.339995 l 4.727538,7.3787167 0.03178,-7.3787167 h 2.799806 V 17.012574 H 37.900165 L 33.040227,9.5778417 v 7.4347323 h -2.766264 z"
     id="path4087"
     class="ColorScheme-Text" />
  <path
     id="path4091"
     class="ColorScheme-Text"
     style="display:inline;fill:url(#oomox);fill-opacity:1;stroke-width:0.443147"
     d="M 4.1153846,0.5 C 2.111752,0.5 0.5,2.0493545 0.5,3.9759243 V 23.096154 H 23.096154 V 0.5 Z m 2.1025016,2.2137167 c 0.6249229,0 1.0468374,0.4902182 1.0468374,1.2269011 0,0.7536559 -0.4289749,1.2542628 -1.0662561,1.2542628 -0.6284546,0 -1.0521334,-0.4937485 -1.0521334,-1.2304315 0,-0.750261 0.4325053,-1.2507324 1.0715521,-1.2507324 z m -2.2737379,0.033542 h 0.593149 v 1.473163 L 4.976863,4.222184 V 4.7297148 H 4.5372973 V 5.1781075 H 3.9247296 V 4.7296977 H 2.7755032 V 4.4128219 Z m 2.2596153,0.4801682 c -0.2471454,0 -0.4130861,0.2855761 -0.4130861,0.7167216 0,0.4413304 0.1659416,0.7370228 0.4219126,0.7370228 0.2436141,0 0.4095553,-0.2853723 0.4095553,-0.7114255 0,-0.4464227 -0.169472,-0.7423189 -0.4183818,-0.7423189 z m -2.279034,0.1924198 -0.5243013,0.796162 0.5243013,0.00267 z M 13.134427,5.578839 c 1.332812,0 2.665646,0.2599805 3.661284,0.7131911 L 15.985427,8.4986855 C 15.208689,8.2389816 14.045329,8.0600015 13.049692,8.060002 c -2.377876,0 -3.6436299,1.1208578 -3.6436299,3.213774 0,2.140442 1.3151809,3.453857 3.4247299,3.453857 0.653167,0 1.20925,-0.12235 1.620568,-0.334529 V 12.70104 h -2.482047 v -2.369948 h 5.265963 v 5.223596 c -1.316923,1.071071 -2.902204,1.607327 -4.759314,1.607327 -3.6771499,0 -6.1415646,-2.272536 -6.1415646,-5.662278 0,-3.5204431 2.6497769,-5.920898 6.8000296,-5.920898 z" />
  <metadata
     id="metadata5658">
    <rdf:RDF>
      <cc:Work
         rdf:about="">
        <dc:creator>
          <cc:Agent>
            <dc:title>dreifacherspass</dc:title>
          </cc:Agent>
        </dc:creator>
        <cc:license
           rdf:resource="http://creativecommons.org/licenses/by-sa/4.0/" />
      </cc:Work>
      <cc:License
         rdf:about="http://creativecommons.org/licenses/by-sa/4.0/">
        <cc:permits
           rdf:resource="http://creativecommons.org/ns#Reproduction" />
        <cc:permits
           rdf:resource="http://creativecommons.org/ns#Distribution" />
        <cc:requires
           rdf:resource="http://creativecommons.org/ns#Notice" />
        <cc:requires
           rdf:resource="http://creativecommons.org/ns#Attribution" />
        <cc:permits
           rdf:resource="http://creativecommons.org/ns#DerivativeWorks" />
        <cc:requires
           rdf:resource="http://creativecommons.org/ns#ShareAlike" />
      </cc:License>
    </rdf:RDF>
  </metadata>
</svg>
