<?xml version="1.0" encoding="UTF-8" standalone="no"?>
<svg
   width="16"
   height="16"
   version="1.1"
   id="svg81"
   xmlns:xlink="http://www.w3.org/1999/xlink"
   xmlns="http://www.w3.org/2000/svg"
   xmlns:svg="http://www.w3.org/2000/svg"
   xmlns:rdf="http://www.w3.org/1999/02/22-rdf-syntax-ns#"
   xmlns:cc="http://creativecommons.org/ns#"
   xmlns:dc="http://purl.org/dc/elements/1.1/">
  <defs>
   <style id="current-color-scheme" type="text/css">
   .ColorScheme-Text { color: #0abdc6; } .ColorScheme-Highlight { color:#5294e2; }
  </style>
  <linearGradient id="arrongin" x1="0%" x2="0%" y1="0%" y2="100%">
   <stop offset="0%" style="stop-color:#dd9b44; stop-opacity:1"/>
   <stop offset="100%" style="stop-color:#ad6c16; stop-opacity:1"/>
  </linearGradient>
  <linearGradient id="aurora" x1="0%" x2="0%" y1="0%" y2="100%">
   <stop offset="0%" style="stop-color:#09D4DF; stop-opacity:1"/>
   <stop offset="100%" style="stop-color:#9269F4; stop-opacity:1"/>
  </linearGradient>
  <linearGradient id="cyberneon" x1="0%" x2="0%" y1="0%" y2="100%">
    <stop offset="0" style="stop-color:#0abdc6; stop-opacity:1"/>
    <stop offset="1" style="stop-color:#ea00d9; stop-opacity:1"/>
  </linearGradient>
  <linearGradient id="fitdance" x1="0%" x2="0%" y1="0%" y2="100%">
   <stop offset="0%" style="stop-color:#1AD6AB; stop-opacity:1"/>
   <stop offset="100%" style="stop-color:#329DB6; stop-opacity:1"/>
  </linearGradient>
  <linearGradient id="oomox" x1="0%" x2="0%" y1="0%" y2="100%">
   <stop offset="0%" style="stop-color:#0abdc6; stop-opacity:1"/>
   <stop offset="100%" style="stop-color:#b800ff; stop-opacity:1"/>
  </linearGradient>
  <linearGradient id="rainblue" x1="0%" x2="0%" y1="0%" y2="100%">
   <stop offset="0%" style="stop-color:#00F260; stop-opacity:1"/>
   <stop offset="100%" style="stop-color:#0575E6; stop-opacity:1"/>
  </linearGradient>
  <linearGradient id="sunrise" x1="0%" x2="0%" y1="0%" y2="100%">
   <stop offset="0%" style="stop-color: #FF8501; stop-opacity:1"/>
   <stop offset="100%" style="stop-color: #FFCB01; stop-opacity:1"/>
  </linearGradient>
  <linearGradient id="telinkrin" x1="0%" x2="0%" y1="0%" y2="100%">
   <stop offset="0%" style="stop-color: #b2ced6; stop-opacity:1"/>
   <stop offset="100%" style="stop-color: #6da5b7; stop-opacity:1"/>
  </linearGradient>
  <linearGradient id="60spsycho" x1="0%" x2="0%" y1="0%" y2="100%">
   <stop offset="0%" style="stop-color: #df5940; stop-opacity:1"/>
   <stop offset="25%" style="stop-color: #d8d15f; stop-opacity:1"/>
   <stop offset="50%" style="stop-color: #e9882a; stop-opacity:1"/>
   <stop offset="100%" style="stop-color: #279362; stop-opacity:1"/>
  </linearGradient>
  <linearGradient id="90ssummer" x1="0%" x2="0%" y1="0%" y2="100%">
   <stop offset="0%" style="stop-color: #f618c7; stop-opacity:1"/>
   <stop offset="20%" style="stop-color: #94ffab; stop-opacity:1"/>
   <stop offset="50%" style="stop-color: #fbfd54; stop-opacity:1"/>
   <stop offset="100%" style="stop-color: #0f83ae; stop-opacity:1"/>
  </linearGradient>
   <linearGradient
       id="linearGradient2284"
       gradientTransform="matrix(0.20549929,0,0,0.07651597,0,-0.1015053)"
       x1="0"
       y1="132.57439"
       x2="77.858536"
       y2="132.57439"
       gradientUnits="userSpaceOnUse">
      <stop
         style="stop-color:#41ff00;stop-opacity:1;"
         offset="0"
         id="stop2280" />
      <stop
         style="stop-color:#e7ff00;stop-opacity:1;"
         offset="1"
         id="stop2282" />
    </linearGradient>
  </defs>
  <metadata
     id="metadata189">
    <rdf:RDF>
      <cc:Work
         rdf:about="">
        <dc:creator>
          <cc:Agent>
            <dc:title>dreifacherspass</dc:title>
          </cc:Agent>
        </dc:creator>
        <cc:license
           rdf:resource="http://creativecommons.org/licenses/by-sa/4.0/" />
      </cc:Work>
      <cc:License
         rdf:about="http://creativecommons.org/licenses/by-sa/4.0/">
        <cc:permits
           rdf:resource="http://creativecommons.org/ns#Reproduction" />
        <cc:permits
           rdf:resource="http://creativecommons.org/ns#Distribution" />
        <cc:requires
           rdf:resource="http://creativecommons.org/ns#Notice" />
        <cc:requires
           rdf:resource="http://creativecommons.org/ns#Attribution" />
        <cc:permits
           rdf:resource="http://creativecommons.org/ns#DerivativeWorks" />
        <cc:requires
           rdf:resource="http://creativecommons.org/ns#ShareAlike" />
      </cc:License>
    </rdf:RDF>
  </metadata>
  <path
     id="path611"
     class="ColorScheme-Text"
     style="font-variation-settings:normal;display:inline;opacity:1;vector-effect:none;fill:url(#oomox);fill-opacity:1;stroke-width:0.580946;stroke-linecap:butt;stroke-linejoin:miter;stroke-miterlimit:4;stroke-dasharray:none;stroke-dashoffset:0;stroke-opacity:1;-inkscape-stroke:none;stop-color:#000000;stop-opacity:1"
     d="M 7.9939877,2.0027789e-4 C 6.3465879,0.01220077 4.6762662,0.54377079 3.4366162,1.6292814 2.8163242,2.1714367 2.3105091,2.8468086 1.9839625,3.6031057 1.6578159,4.3598032 1.5135169,5.1972184 1.5932534,6.0169852 c 0.09267,0.954705 0.4794727,1.859088 0.9612255,2.688322 A 12.094236,12.094236 0 0 0 4.474226,11.19895 l 0.90512,1.602043 H 5.7186819 L 4.9392916,11.200978 C 3.2037547,8.6492749 1.8347901,7.06069 2.7153591,3.7666897 3.6908654,1.1092487 5.8663435,0.34918485 8.1623037,0.00290415 8.1352354,0.02010482 4.4972089,0.88644735 4.4972089,5.8277144 c 0,1.6846233 1.6203554,5.0380646 2.2773337,6.9732786 H 8.7841934 C 9.0372184,10.899694 9.2972528,7.6883203 9.2972528,5.8277144 9.2977859,2.301038 8.1723135,0.02783856 8.1629794,0.00290415 14.518485,1.7367087 13.361465,6.9996824 10.128017,12.800993 h 0.312972 l 1.153201,-1.73318 A 15.222899,15.222899 0 0 0 13.344269,8.7140943 C 13.846423,7.8816609 14.274308,6.9815574 14.394046,6.0169852 14.496183,5.1945518 14.366736,4.3480671 14.045923,3.583503 13.72551,2.8189387 13.216333,2.1370679 12.591241,1.5927792 11.34119,0.50366839 9.6519217,-0.01166687 7.9939877,2.0027789e-4 Z" />
  <path
     d="M 8.1620378,0.00253412 C 5.8660752,0.34881518 3.6909188,1.1092467 2.7154116,3.7666904 1.8348417,7.0606938 3.2034317,8.6491598 4.9389702,11.200866 L 5.719136,12.801999 H 6.7754465 C 6.1187527,10.866985 4.4972187,7.5127129 4.4972187,5.8277093 c 0,-4.94127182 3.6377508,-5.80797446 3.6648191,-5.82517518 z m 5.106e-4,0 c 0.00933,0.02493437 1.134847,2.29849538 1.1343136,5.82517518 0,1.8610104 -0.2598775,5.0731437 -0.5129546,6.9742897 H 10.127163 C 13.361187,7.000158 14.518568,1.7364727 8.1625709,0.00253412 Z m 0,0"
     id="path631"
     class="ColorScheme-Text"
     style="display:inline;opacity:0.5;fill:url(#oomox);fill-opacity:1;stroke-width:0.133339" />
  <path
     d="M 9.727169,11.200866 9.0604746,14.134321"
     stroke-width="0.266678"
     id="path491"
     class="ColorScheme-Text"
     style="fill:none;fill-opacity:1;stroke:url(#oomox)" />
  <path
     d="m 4.4545505,10.986857 1.6140667,3.014124"
     stroke-width="0.266678"
     id="path44"
     class="ColorScheme-Text"
     style="display:inline;fill:none;fill-opacity:1;stroke:url(#oomox)" />
  <path
     d="m 6.3936977,10.934188 0.6666941,3.066793"
     stroke-width="0.266678"
     id="path571"
     class="ColorScheme-Text"
     style="fill:none;fill-opacity:1;stroke:url(#oomox)" />
  <path
     d="M 11.527244,11.067527 9.9187772,14.000981"
     stroke-width="0.266678"
     id="path671"
     class="ColorScheme-Text"
     style="display:inline;fill:none;fill-opacity:1;stroke:url(#oomox);stroke-opacity:1" />
  <path
     d="m 4.2602757,10.66751 v 0.266678 c 0,0 0,0.266678 0.2494772,0.266678 h 6.9681551 c 0.249344,0 0.249344,-0.266678 0.249344,-0.266678 V 10.66751 Z m 0,0"
     id="path46"
     class="ColorScheme-Text"
     style="display:inline;fill:url(#oomox);fill-opacity:1;stroke-width:0.133339" />
  <path
     d="m 10.127186,13.867643 v 1.508862 A 0.62215918,0.62215918 0 0 1 9.5036933,15.999998 H 6.4838346 A 0.62215918,0.62215918 0 0 1 5.8603421,15.376505 v -1.508862 z m 0,0"
     id="path391"
     class="ColorScheme-Text"
     style="color:#0abdc6;display:inline;fill:url(#oomox);fill-opacity:1;stroke-width:0.133339" />
  <path
     d="m 15.999875,10.042553 v 5.957421 H 0 v -5.957421 z"
     id="path359"
     style="display:inline;fill:url(#linearGradient2284);fill-opacity:1;stroke-width:0.125395" />
  <path
     d="m 1.663612,10.042553 5.9193286,5.957421 H 10.234795 L 4.3149661,10.042553 Z m 5.3027087,0 5.9203283,5.957421 h 2.651854 L 9.618175,10.042553 Z m 5.3037083,0 L 16,13.79621 V 11.128019 L 14.921396,10.042565 Z M 1.2499745e-4,11.037096 V 13.70579 L 2.2798572,16 h 2.6518541 z"
     id="path361"
     style="display:inline;fill:#000000;fill-opacity:1;stroke-width:0.125395" />
</svg>
