<?xml version="1.0" encoding="UTF-8" standalone="no"?>
<svg
   width="16"
   height="16"
   version="1.1"
   id="svg81"
   xmlns:xlink="http://www.w3.org/1999/xlink"
   xmlns="http://www.w3.org/2000/svg"
   xmlns:svg="http://www.w3.org/2000/svg"
   xmlns:rdf="http://www.w3.org/1999/02/22-rdf-syntax-ns#"
   xmlns:cc="http://creativecommons.org/ns#"
   xmlns:dc="http://purl.org/dc/elements/1.1/">
  <defs>
   <style id="current-color-scheme" type="text/css">
   .ColorScheme-Text { color: #0abdc6; } .ColorScheme-Highlight { color:#5294e2; }
  </style>
  <linearGradient id="arrongin" x1="0%" x2="0%" y1="0%" y2="100%">
   <stop offset="0%" style="stop-color:#dd9b44; stop-opacity:1"/>
   <stop offset="100%" style="stop-color:#ad6c16; stop-opacity:1"/>
  </linearGradient>
  <linearGradient id="aurora" x1="0%" x2="0%" y1="0%" y2="100%">
   <stop offset="0%" style="stop-color:#09D4DF; stop-opacity:1"/>
   <stop offset="100%" style="stop-color:#9269F4; stop-opacity:1"/>
  </linearGradient>
  <linearGradient id="cyberneon" x1="0%" x2="0%" y1="0%" y2="100%">
    <stop offset="0" style="stop-color:#0abdc6; stop-opacity:1"/>
    <stop offset="1" style="stop-color:#ea00d9; stop-opacity:1"/>
  </linearGradient>
  <linearGradient id="fitdance" x1="0%" x2="0%" y1="0%" y2="100%">
   <stop offset="0%" style="stop-color:#1AD6AB; stop-opacity:1"/>
   <stop offset="100%" style="stop-color:#329DB6; stop-opacity:1"/>
  </linearGradient>
  <linearGradient id="oomox" x1="0%" x2="0%" y1="0%" y2="100%">
   <stop offset="0%" style="stop-color:#0abdc6; stop-opacity:1"/>
   <stop offset="100%" style="stop-color:#b800ff; stop-opacity:1"/>
  </linearGradient>
  <linearGradient id="rainblue" x1="0%" x2="0%" y1="0%" y2="100%">
   <stop offset="0%" style="stop-color:#00F260; stop-opacity:1"/>
   <stop offset="100%" style="stop-color:#0575E6; stop-opacity:1"/>
  </linearGradient>
  <linearGradient id="sunrise" x1="0%" x2="0%" y1="0%" y2="100%">
   <stop offset="0%" style="stop-color: #FF8501; stop-opacity:1"/>
   <stop offset="100%" style="stop-color: #FFCB01; stop-opacity:1"/>
  </linearGradient>
  <linearGradient id="telinkrin" x1="0%" x2="0%" y1="0%" y2="100%">
   <stop offset="0%" style="stop-color: #b2ced6; stop-opacity:1"/>
   <stop offset="100%" style="stop-color: #6da5b7; stop-opacity:1"/>
  </linearGradient>
  <linearGradient id="60spsycho" x1="0%" x2="0%" y1="0%" y2="100%">
   <stop offset="0%" style="stop-color: #df5940; stop-opacity:1"/>
   <stop offset="25%" style="stop-color: #d8d15f; stop-opacity:1"/>
   <stop offset="50%" style="stop-color: #e9882a; stop-opacity:1"/>
   <stop offset="100%" style="stop-color: #279362; stop-opacity:1"/>
  </linearGradient>
  <linearGradient id="90ssummer" x1="0%" x2="0%" y1="0%" y2="100%">
   <stop offset="0%" style="stop-color: #f618c7; stop-opacity:1"/>
   <stop offset="20%" style="stop-color: #94ffab; stop-opacity:1"/>
   <stop offset="50%" style="stop-color: #fbfd54; stop-opacity:1"/>
   <stop offset="100%" style="stop-color: #0f83ae; stop-opacity:1"/>
  </linearGradient>
 </defs>
  <path
     id="path611"
     style="fill:url(#oomox);fill-opacity:1;font-variation-settings:normal;display:inline;opacity:1;vector-effect:none;stroke-width:1.67857;stroke-linecap:butt;stroke-linejoin:miter;stroke-miterlimit:4;stroke-dasharray:none;stroke-dashoffset:0;stroke-opacity:1;-inkscape-stroke:none;stop-color:#000000;stop-opacity:1"
     class="ColorScheme-Text"
     d="M 23.982422,0.5 C 19.222461,0.53467395 14.396271,2.0705807 10.814453,5.2070312 9.0221951,6.7735228 7.560704,8.7249274 6.6171875,10.910156 c -0.9423608,2.186385 -1.3592953,4.605994 -1.1289063,6.97461 0.26776,2.758504 1.3853777,5.371608 2.7773438,7.767578 a 34.944818,34.944818 0 0 0 5.546875,7.205078 l 2.615234,4.628906 h 0.980469 L 15.15625,32.863281 C 10.141628,25.490446 6.1861721,20.900424 8.7304688,11.382812 11.549075,3.7044602 17.834854,1.5083483 24.46875,0.5078125 24.39054,0.55751175 13.878906,3.0607028 13.878906,17.337891 c 0,4.867514 4.681819,14.556872 6.580078,20.148437 h 5.806641 C 26.99671,31.992756 27.748047,22.713885 27.748047,17.337891 27.749588,7.1479897 24.497673,0.57985743 24.470703,0.5078125 42.834161,5.5174291 39.491091,20.72415 30.148438,37.486328 h 0.904296 l 3.332032,-5.007812 a 43.984708,43.984708 0 0 0 5.05664,-6.800782 C 40.892319,23.272519 42.128641,20.67178 42.474609,17.884766 42.769723,15.508445 42.3957,13.062631 41.46875,10.853516 40.542956,8.6444006 39.071751,6.6742183 37.265625,5.1015625 33.653756,1.9547097 28.77282,0.46571132 23.982422,0.5 Z"
     transform="matrix(0.34609527,0,0,0.34609527,-0.3062151,-0.17284735)" />
  <path
     d="M 24.467982,0.50674336 C 17.834079,1.5072802 11.549229,3.7044544 8.7306203,11.382814 6.1863211,20.900435 10.140695,25.490113 15.155322,32.862956 l 2.254194,4.626279 h 3.05208 c -1.897437,-5.590986 -6.582661,-15.282747 -6.582661,-20.151359 0,-14.2772017 10.510837,-16.78143328 10.589047,-16.83113264 z m 0.0015,0 c 0.02697,0.0720448 3.279002,6.64122204 3.277461,16.83113264 0,5.377163 -0.750884,14.658231 -1.48212,20.151359 h 3.881174 C 39.490289,20.725524 42.834401,5.5167475 24.469523,0.50674336 Z m 0,0"
     id="path631"
     class="ColorScheme-Text"
     style="fill:url(#oomox);fill-opacity:1;display:inline;opacity:0.5;stroke-width:0.385266"
     transform="matrix(0.34609527,0,0,0.34609527,-0.3062151,-0.17284735)" />
  <path
     d="m 28.990238,32.862956 -1.926332,8.47586"
     stroke-width="0.770533"
     id="path491"
     class="ColorScheme-Text"
     style="fill:none;fill-opacity:1;stroke:url(#oomox)"
     transform="matrix(0.34609527,0,0,0.34609527,-0.2999791,-0.17284735)" />
  <path
     d="m 13.75565,32.244604 4.663649,8.708945"
     stroke-width="0.770533"
     id="path44"
     class="ColorScheme-Text"
     style="display:inline;fill:none;fill-opacity:1;stroke:url(#oomox)"
     transform="matrix(0.34609527,0,0,0.34609527,-0.2999791,-0.17284735)" />
  <path
     d="m 19.358579,32.092423 1.926332,8.861126"
     stroke-width="0.770533"
     id="path571"
     class="ColorScheme-Text"
     style="fill:none;fill-opacity:1;stroke:url(#oomox)"
     transform="matrix(0.34609527,0,0,0.34609527,-0.2999791,-0.17284735)" />
  <path
     d="m 34.191335,32.47769 -4.647469,8.475859"
     stroke-width="0.770533"
     id="path671"
     class="ColorScheme-Text"
     style="display:inline;fill:none;fill-opacity:1;stroke:url(#oomox);stroke-opacity:1"
     transform="matrix(0.34609527,0,0,0.34609527,-0.2999791,-0.17284735)" />
  <path
     d="m 13.194317,31.321891 v 0.770532 c 0,0 0,0.770533 0.720833,0.770533 h 20.133636 c 0.720448,0 0.720448,-0.770533 0.720448,-0.770533 v -0.770532 z m 0,0"
     id="path46"
     class="ColorScheme-Text"
     style="display:inline;fill:url(#oomox);fill-opacity:1;stroke-width:0.385266"
     transform="matrix(0.34609527,0,0,0.34609527,-0.2999791,-0.17284735)" />
  <path
     d="m 30.146038,40.568283 v 4.359674 a 1.797653,1.797653 0 0 1 -1.801506,1.801506 h -8.725513 a 1.797653,1.797653 0 0 1 -1.801506,-1.801506 v -4.359674 z m 0,0"
     id="path391"
     class="ColorScheme-Text"
     style="display:inline;fill:url(#oomox);fill-opacity:1;stroke-width:0.385266"
     transform="matrix(0.34609527,0,0,0.34609527,-0.2999791,-0.17284735)" />
  <metadata
     id="metadata189">
    <rdf:RDF>
      <cc:Work
         rdf:about="">
        <dc:creator>
          <cc:Agent>
            <dc:title>dreifacherspass</dc:title>
          </cc:Agent>
        </dc:creator>
        <cc:license
           rdf:resource="http://creativecommons.org/licenses/by-sa/4.0/" />
      </cc:Work>
      <cc:License
         rdf:about="http://creativecommons.org/licenses/by-sa/4.0/">
        <cc:permits
           rdf:resource="http://creativecommons.org/ns#Reproduction" />
        <cc:permits
           rdf:resource="http://creativecommons.org/ns#Distribution" />
        <cc:requires
           rdf:resource="http://creativecommons.org/ns#Notice" />
        <cc:requires
           rdf:resource="http://creativecommons.org/ns#Attribution" />
        <cc:permits
           rdf:resource="http://creativecommons.org/ns#DerivativeWorks" />
        <cc:requires
           rdf:resource="http://creativecommons.org/ns#ShareAlike" />
      </cc:License>
    </rdf:RDF>
  </metadata>
</svg>
