<?xml version="1.0" encoding="UTF-8" standalone="no"?>
<svg
   viewBox="0 0 16 16"
   style="display:inline;enable-background:new"
   version="1.0"
   id="svg11300"
   height="16"
   width="16"
   xmlns="http://www.w3.org/2000/svg"
   xmlns:svg="http://www.w3.org/2000/svg"
   xmlns:rdf="http://www.w3.org/1999/02/22-rdf-syntax-ns#"
   xmlns:cc="http://creativecommons.org/ns#"
   xmlns:dc="http://purl.org/dc/elements/1.1/">
   <defs>
      <style id="current-color-scheme" type="text/css">
         .ColorScheme-Text { color: #0abdc6; } .ColorScheme-Highlight { color:#5294e2; }
      </style>
      <linearGradient id="arrongin" x1="0%" x2="0%" y1="0%" y2="100%">
         <stop offset="0%" style="stop-color:#dd9b44; stop-opacity:1"/>
         <stop offset="100%" style="stop-color:#ad6c16; stop-opacity:1"/>
      </linearGradient>
      <linearGradient id="aurora" x1="0%" x2="0%" y1="0%" y2="100%">
         <stop offset="0%" style="stop-color:#09D4DF; stop-opacity:1"/>
         <stop offset="100%" style="stop-color:#9269F4; stop-opacity:1"/>
      </linearGradient>
      <linearGradient id="cyberneon" x1="0%" x2="0%" y1="0%" y2="100%">
         <stop offset="0" style="stop-color:#0abdc6; stop-opacity:1"/>
         <stop offset="1" style="stop-color:#ea00d9; stop-opacity:1"/>
      </linearGradient>
      <linearGradient id="fitdance" x1="0%" x2="0%" y1="0%" y2="100%">
         <stop offset="0%" style="stop-color:#1AD6AB; stop-opacity:1"/>
         <stop offset="100%" style="stop-color:#329DB6; stop-opacity:1"/>
      </linearGradient>
      <linearGradient id="oomox" x1="0%" x2="0%" y1="0%" y2="100%">
         <stop offset="0%" style="stop-color:#0abdc6; stop-opacity:1"/>
         <stop offset="100%" style="stop-color:#b800ff; stop-opacity:1"/>
      </linearGradient>
      <linearGradient id="rainblue" x1="0%" x2="0%" y1="0%" y2="100%">
         <stop offset="0%" style="stop-color:#00F260; stop-opacity:1"/>
         <stop offset="100%" style="stop-color:#0575E6; stop-opacity:1"/>
      </linearGradient>
      <linearGradient id="sunrise" x1="0%" x2="0%" y1="0%" y2="100%">
         <stop offset="0%" style="stop-color: #FF8501; stop-opacity:1"/>
         <stop offset="100%" style="stop-color: #FFCB01; stop-opacity:1"/>
      </linearGradient>
      <linearGradient id="telinkrin" x1="0%" x2="0%" y1="0%" y2="100%">
         <stop offset="0%" style="stop-color: #b2ced6; stop-opacity:1"/>
         <stop offset="100%" style="stop-color: #6da5b7; stop-opacity:1"/>
      </linearGradient>
      <linearGradient id="60spsycho" x1="0%" x2="0%" y1="0%" y2="100%">
         <stop offset="0%" style="stop-color: #df5940; stop-opacity:1"/>
         <stop offset="25%" style="stop-color: #d8d15f; stop-opacity:1"/>
         <stop offset="50%" style="stop-color: #e9882a; stop-opacity:1"/>
         <stop offset="100%" style="stop-color: #279362; stop-opacity:1"/>
      </linearGradient>
      <linearGradient id="90ssummer" x1="0%" x2="0%" y1="0%" y2="100%">
         <stop offset="0%" style="stop-color: #f618c7; stop-opacity:1"/>
         <stop offset="20%" style="stop-color: #94ffab; stop-opacity:1"/>
         <stop offset="50%" style="stop-color: #fbfd54; stop-opacity:1"/>
         <stop offset="100%" style="stop-color: #0f83ae; stop-opacity:1"/>
      </linearGradient>
   </defs>
  <path
     id="path_keyboard_base"
     class="ColorScheme-Text"
     style="display:inline;vector-effect:none;fill:url(#oomox);stroke-width:0.669525;stroke-linejoin:round;enable-background:new"
     d="M 0 12.451172 L 0 12.716797 C -1.4802959e-16 13.585979 0.509436 14.285156 1.1425781 14.285156 L 14.857422 14.285156 C 15.490564 14.285156 16 13.585979 16 12.716797 L 16 12.451172 C 16 13.150937 15.490542 13.712891 14.857422 13.712891 L 1.1425781 13.712891 C 0.50945776 13.712891 -1.4802959e-16 13.150937 0 12.451172 z " />
  <path
     id="path_keyboard_top"
     class="ColorScheme-Text"
     style="display:inline;opacity:0.1;vector-effect:none;fill:url(#oomox);stroke-width:0.60073;stroke-linejoin:round;enable-background:new"
     d="M 1.1430937,1.7145 H 14.856905 c 0.633121,0 1.142818,0.5633491 1.142818,1.2631146 v 9.4733574 c 0,0.699766 -0.509697,1.263115 -1.142818,1.263115 H 1.1430937 c -0.63312095,0 -1.14281761129,-0.563349 -1.14281761129,-1.263115 V 2.9776146 C 2.7608871e-4,2.2778491 0.50997275,1.7145 1.1430937,1.7145 Z" />
  <path
     id="path_key_shadows"
     class="ColorScheme-Text"
     style="display:inline;opacity:0.5;vector-effect:none;fill:url(#oomox);fill-opacity:1;stroke:none;stroke-width:0.666458;stroke-linecap:butt;stroke-linejoin:round;stroke-miterlimit:4;stroke-dasharray:none;stroke-dashoffset:0;stroke-opacity:1;enable-background:new"
     d="M 0.83562577,2.835 C 0.46640935,2.835 0.2061272,3.133852 0.16938885,3.5012399 L 0.00249717,5.1674967 C -0.0342412,5.5348778 0.29951763,5.8337332 0.66873411,5.8337332 H 2.0018729 c 0.3692164,0 0.7029752,-0.2988554 0.6662369,-0.6662365 L 2.501883,3.5012399 C 2.4651447,3.133852 2.2041976,2.835 1.8349812,2.835 Z m 3.33251453,0 C 3.7989236,2.835 3.537977,3.133852 3.5012382,3.5012399 L 3.3350117,5.1674967 c -0.036738,0.3673811 0.29702,0.6662365 0.6662367,0.6662365 h 1.3331389 c 0.3692167,0 0.7029752,-0.2988554 0.6662368,-0.6662365 L 5.8337326,3.5012399 C 5.7969941,3.133852 5.5367114,2.835 5.1674957,2.835 Z m 3.3318494,0 C 7.130773,2.835 6.8704913,3.133852 6.8337528,3.5012399 L 6.666861,5.1674967 C 6.630123,5.5348778 6.9645467,5.8337332 7.333763,5.8337332 h 1.3324736 c 0.3692164,0 0.7036402,-0.2988554 0.6669022,-0.6662365 L 9.1662469,3.5012399 C 9.1295084,3.133852 8.8692267,2.835 8.50001,2.835 Z m 3.3325143,0 c -0.369215,0 -0.629498,0.298852 -0.666237,0.6662399 L 9.9993756,5.1674967 c -0.036738,0.3673811 0.2970204,0.6662365 0.6662374,0.6662365 h 1.333139 c 0.369217,0 0.702975,-0.2988554 0.666237,-0.6662365 L 12.498762,3.5012399 C 12.462023,3.133852 12.201077,2.835 11.83186,2.835 Z m 3.332515,0 c -0.369217,0 -0.630163,0.298852 -0.666902,0.6662399 L 13.33189,5.1674967 c -0.03674,0.3673811 0.297021,0.6662365 0.666237,0.6662365 h 1.333139 c 0.369216,0 0.702975,-0.2988554 0.666237,-0.6662365 L 15.830612,3.5012399 C 15.793873,3.133852 15.53359,2.835 15.164375,2.835 Z M 2.501883,6.5006335 c -0.3692164,0 -0.6301634,0.2988555 -0.6669018,0.6662365 L 1.6687544,8.8331303 C 1.6320162,9.200508 1.9657749,9.4993668 2.3349913,9.4993668 h 1.3331388 c 0.3692167,0 0.7029757,-0.2988588 0.6662368,-0.6662365 L 4.1681403,7.16687 C 4.1314015,6.799489 3.8704549,6.5006335 3.5012382,6.5006335 Z m 3.3318496,0 c -0.3692164,0 -0.6294991,0.2988555 -0.6662369,0.6662365 L 5.0012686,8.8331303 C 4.9645294,9.200508 5.2982891,9.4993668 5.6675058,9.4993668 h 1.3331386 c 0.369216,0 0.7029753,-0.2988588 0.6662368,-0.6662365 L 7.4999897,7.16687 C 7.4632516,6.799489 7.2029692,6.5006335 6.8337528,6.5006335 Z m 3.3325143,0 C 8.7970305,6.5006335 8.5367481,6.799489 8.50001,7.16687 L 8.3331184,8.8331303 C 8.2963801,9.200508 8.6308041,9.4993668 9.0000201,9.4993668 h 1.3324739 c 0.369217,0 0.703641,-0.2988588 0.666902,-0.6662365 L 10.832504,7.16687 C 10.795766,6.799489 10.535484,6.5006335 10.166267,6.5006335 Z M 1.5018628,10.166267 c -0.3692157,0 -0.62949872,0.298856 -0.66623703,0.666237 L 0.66873411,12.49876 C 0.63199579,12.866145 0.96642025,13.165 1.335636,13.165 h 1.3324738 c 0.3692157,0 0.7036403,-0.298855 0.6669019,-0.66624 L 3.16812,10.832504 C 3.1313816,10.465123 2.8710988,10.166267 2.501883,10.166267 Z m 11.9962542,0 c -0.369216,0 -0.629498,0.298856 -0.666237,0.666237 l -0.166891,1.666256 c -0.03674,0.367385 0.297685,0.66624 0.666901,0.66624 h 1.332474 c 0.369216,0 0.70364,-0.298855 0.666902,-0.66624 l -0.166891,-1.666256 c -0.03674,-0.367381 -0.297022,-0.666237 -0.666238,-0.666237 z" />
  <path
     style="display:inline;opacity:0.5;vector-effect:none;fill:url(#oomox);fill-opacity:1;stroke:none;stroke-width:0.666458;stroke-linecap:butt;stroke-linejoin:round;stroke-miterlimit:4;stroke-dasharray:none;stroke-dashoffset:0;stroke-opacity:1;enable-background:new"
     d="m 12.498615,6.5004735 h 1.1663 c 0.369216,0 0.629717,0.29907 0.666457,0.6664578 l 0.166613,1.6661411 c 0.03674,0.3673845 -0.29724,0.6664544 -0.666457,0.6664544 H 12.332 c -0.369217,0 -0.703195,-0.2990699 -0.666457,-0.6664544 l 0.166614,-1.6661411 c 0.03674,-0.3673878 0.29724,-0.6664578 0.666458,-0.6664578 z"
     id="path_shadow_right_key"
     class="ColorScheme-Text" />
  <path
     d="m 4.8343772,10.166268 c -0.3692167,0 -0.6294985,0.298853 -0.6662369,0.666236 l -0.1668919,1.666258 c -0.036739,0.367384 0.2970208,0.666237 0.6662372,0.666237 h 6.6650294 c 0.369216,0 0.702975,-0.298853 0.666237,-0.666237 L 11.83186,10.832504 c -0.03674,-0.367383 -0.29702,-0.666236 -0.666237,-0.666236 z"
     style="display:inline;opacity:0.5;vector-effect:none;fill:url(#oomox);stroke-width:0.666458;stroke-linejoin:round;enable-background:new"
     id="path_shadow_spacebar"
     class="ColorScheme-Text" />
  <path
     id="path_keys"
     class="ColorScheme-Text"
     style="display:inline;opacity:1;vector-effect:none;fill:url(#oomox);fill-opacity:1;stroke:none;stroke-width:0.666458;stroke-linecap:butt;stroke-linejoin:round;stroke-miterlimit:4;stroke-dasharray:none;stroke-dashoffset:0;stroke-opacity:1;enable-background:new"
     d="m 0.83562577,2.835 c -0.36921642,0 -0.66623692,0.2970205 -0.66623692,0.6662399 v 0.6669004 c 0,0.3692194 0.2970205,0.6662365 0.66623692,0.6662365 H 1.8349812 c 0.3692164,0 0.6669018,-0.2970171 0.6669018,-0.6662365 V 3.5012399 C 2.501883,3.1320205 2.2041976,2.835 1.8349812,2.835 Z m 3.33251453,0 c -0.3692167,0 -0.6669021,0.2970205 -0.6669021,0.6662399 v 0.6669004 c 0,0.3692194 0.2976854,0.6662365 0.6669021,0.6662365 h 0.9993554 c 0.3692157,0 0.6662369,-0.2970171 0.6662369,-0.6662365 V 3.5012399 C 5.8337326,3.1320205 5.5367114,2.835 5.1674957,2.835 Z m 3.3318494,0 c -0.3692167,0 -0.6662369,0.2970205 -0.6662369,0.6662399 v 0.6669004 c 0,0.3692194 0.2970202,0.6662365 0.6662369,0.6662365 H 8.50001 c 0.3692167,0 0.6662369,-0.2970171 0.6662369,-0.6662365 V 3.5012399 C 9.1662469,3.1320205 8.8692267,2.835 8.50001,2.835 Z m 3.3325143,0 c -0.369215,0 -0.666237,0.2970205 -0.666237,0.6662399 v 0.6669004 c 0,0.3692194 0.297022,0.6662365 0.666237,0.6662365 h 0.999356 c 0.369217,0 0.666902,-0.2970171 0.666902,-0.6662365 V 3.5012399 C 12.498762,3.1320205 12.201077,2.835 11.83186,2.835 Z m 3.332515,0 c -0.369217,0 -0.666902,0.2970205 -0.666902,0.6662399 v 0.6669004 c 0,0.3692194 0.297685,0.6662365 0.666902,0.6662365 h 0.999356 c 0.369215,0 0.666237,-0.2970171 0.666237,-0.6662365 V 3.5012399 C 15.830612,3.1320205 15.53359,2.835 15.164375,2.835 Z M 2.501883,6.5006335 c -0.3692164,0 -0.6669018,0.2970239 -0.6669018,0.6662365 v 0.66624 c 0,0.3692092 0.2976854,0.6669003 0.6669018,0.6669003 h 0.9993552 c 0.3692167,0 0.6669021,-0.2976911 0.6669021,-0.6669003 V 7.16687 c 0,-0.3692126 -0.2976854,-0.6662365 -0.6669021,-0.6662365 z m 3.3318496,0 c -0.3692164,0 -0.6662372,0.2970239 -0.6662369,0.6662365 v 0.66624 c -3e-7,0.3692092 0.2970205,0.6669003 0.6662369,0.6669003 h 1.0000202 c 0.3692164,0 0.6662369,-0.2976911 0.6662369,-0.6669003 V 7.16687 c 0,-0.3692126 -0.2970205,-0.6662365 -0.6662369,-0.6662365 z m 3.3325143,0 C 8.7970305,6.5006335 8.50001,6.7976574 8.50001,7.16687 v 0.66624 c 0,0.3692092 0.2970205,0.6669003 0.6662369,0.6669003 h 1.0000201 c 0.369217,0 0.666237,-0.2976911 0.666237,-0.6669003 V 7.16687 c 0,-0.3692126 -0.29702,-0.6662365 -0.666237,-0.6662365 z M 1.5018628,10.166267 c -0.3692157,0 -0.66623703,0.297024 -0.66623703,0.666237 v 0.666236 c 0,0.369219 0.29702133,0.666904 0.66623703,0.666904 H 2.501883 c 0.3692158,0 0.666237,-0.297684 0.666237,-0.666904 v -0.666236 c 0,-0.369213 -0.2970212,-0.666237 -0.666237,-0.666237 z m 11.9962542,0 c -0.369216,0 -0.666237,0.297024 -0.666237,0.666237 v 0.666236 c 0,0.369219 0.297021,0.666904 0.666237,0.666904 h 1.00002 c 0.369216,0 0.666238,-0.297684 0.666238,-0.666904 v -0.666236 c 0,-0.369213 -0.297022,-0.666237 -0.666238,-0.666237 z" />
  <path
     style="display:inline;opacity:1;vector-effect:none;fill:url(#oomox);fill-opacity:1;stroke:none;stroke-width:0.666458;stroke-linecap:butt;stroke-linejoin:round;stroke-miterlimit:4;stroke-dasharray:none;stroke-dashoffset:0;stroke-opacity:1;enable-background:new"
     d="m 14.331372,7.1669313 v 0.6664544 c 0,0.369216 -0.297241,0.6664578 -0.666457,0.6664578 h -1.1663 c -0.369218,0 -0.666458,-0.2972418 -0.666458,-0.6664578 V 7.1669313 c 0,-0.3692194 0.29724,-0.6664578 0.666458,-0.6664578 h 1.1663 c 0.369216,0 0.666457,0.2972384 0.666457,0.6664578 z"
     id="path_key_right" />
  <path
     d="m 4.8343772,10.166268 c -0.3692167,0 -0.6662369,0.297021 -0.6662369,0.666236 v 0.666238 c 0,0.369218 0.2970202,0.666901 0.6662369,0.666901 h 6.3312458 c 0.369217,0 0.666237,-0.297683 0.666237,-0.666901 v -0.666238 c 0,-0.369215 -0.29702,-0.666236 -0.666237,-0.666236 z"
     style="display:inline;opacity:1;vector-effect:none;fill:url(#oomox);stroke-width:0.666458;stroke-linejoin:round;enable-background:new"
     id="path_key_spacebar"
     class="ColorScheme-Text" />
  <metadata
     id="metadata24">
    <rdf:RDF>
      <cc:Work
         rdf:about="">
        <dc:creator>
          <cc:Agent>
            <dc:title>dreifacherspass</dc:title>
          </cc:Agent>
        </dc:creator>
        <cc:license
           rdf:resource="http://creativecommons.org/licenses/by-sa/4.0/" />
      </cc:Work>
      <cc:License
         rdf:about="http://creativecommons.org/licenses/by-sa/4.0/">
        <cc:permits
           rdf:resource="http://creativecommons.org/ns#Reproduction" />
        <cc:permits
           rdf:resource="http://creativecommons.org/ns#Distribution" />
        <cc:requires
           rdf:resource="http://creativecommons.org/ns#Notice" />
        <cc:requires
           rdf:resource="http://creativecommons.org/ns#Attribution" />
        <cc:permits
           rdf:resource="http://creativecommons.org/ns#DerivativeWorks" />
        <cc:requires
           rdf:resource="http://creativecommons.org/ns#ShareAlike" />
      </cc:License>
    </rdf:RDF>
  </metadata>
</svg>
