<?xml version="1.0" encoding="UTF-8" standalone="no"?>
<svg
   width="16"
   height="16"
   version="1.1"
   id="svg4"
   xmlns:xlink="http://www.w3.org/1999/xlink"
   xmlns="http://www.w3.org/2000/svg"
   xmlns:svg="http://www.w3.org/2000/svg"
   xmlns:rdf="http://www.w3.org/1999/02/22-rdf-syntax-ns#"
   xmlns:cc="http://creativecommons.org/ns#"
   xmlns:dc="http://purl.org/dc/elements/1.1/">
  <defs>
   <style id="current-color-scheme" type="text/css">
   .ColorScheme-Text { color: #0abdc6; } .ColorScheme-Highlight { color:#5294e2; }
  </style>
  <linearGradient id="arrongin" x1="0%" x2="0%" y1="0%" y2="100%">
   <stop offset="0%" style="stop-color:#dd9b44; stop-opacity:1"/>
   <stop offset="100%" style="stop-color:#ad6c16; stop-opacity:1"/>
  </linearGradient>
  <linearGradient id="aurora" x1="0%" x2="0%" y1="0%" y2="100%">
   <stop offset="0%" style="stop-color:#09D4DF; stop-opacity:1"/>
   <stop offset="100%" style="stop-color:#9269F4; stop-opacity:1"/>
  </linearGradient>
  <linearGradient id="cyberneon" x1="0%" x2="0%" y1="0%" y2="100%">
    <stop offset="0" style="stop-color:#0abdc6; stop-opacity:1"/>
    <stop offset="1" style="stop-color:#ea00d9; stop-opacity:1"/>
  </linearGradient>
  <linearGradient id="fitdance" x1="0%" x2="0%" y1="0%" y2="100%">
   <stop offset="0%" style="stop-color:#1AD6AB; stop-opacity:1"/>
   <stop offset="100%" style="stop-color:#329DB6; stop-opacity:1"/>
  </linearGradient>
  <linearGradient id="oomox" x1="0%" x2="0%" y1="0%" y2="100%">
   <stop offset="0%" style="stop-color:#0abdc6; stop-opacity:1"/>
   <stop offset="100%" style="stop-color:#b800ff; stop-opacity:1"/>
  </linearGradient>
  <linearGradient id="rainblue" x1="0%" x2="0%" y1="0%" y2="100%">
   <stop offset="0%" style="stop-color:#00F260; stop-opacity:1"/>
   <stop offset="100%" style="stop-color:#0575E6; stop-opacity:1"/>
  </linearGradient>
  <linearGradient id="sunrise" x1="0%" x2="0%" y1="0%" y2="100%">
   <stop offset="0%" style="stop-color: #FF8501; stop-opacity:1"/>
   <stop offset="100%" style="stop-color: #FFCB01; stop-opacity:1"/>
  </linearGradient>
  <linearGradient id="telinkrin" x1="0%" x2="0%" y1="0%" y2="100%">
   <stop offset="0%" style="stop-color: #b2ced6; stop-opacity:1"/>
   <stop offset="100%" style="stop-color: #6da5b7; stop-opacity:1"/>
  </linearGradient>
  <linearGradient id="60spsycho" x1="0%" x2="0%" y1="0%" y2="100%">
   <stop offset="0%" style="stop-color: #df5940; stop-opacity:1"/>
   <stop offset="25%" style="stop-color: #d8d15f; stop-opacity:1"/>
   <stop offset="50%" style="stop-color: #e9882a; stop-opacity:1"/>
   <stop offset="100%" style="stop-color: #279362; stop-opacity:1"/>
  </linearGradient>
  <linearGradient id="90ssummer" x1="0%" x2="0%" y1="0%" y2="100%">
   <stop offset="0%" style="stop-color: #f618c7; stop-opacity:1"/>
   <stop offset="20%" style="stop-color: #94ffab; stop-opacity:1"/>
   <stop offset="50%" style="stop-color: #fbfd54; stop-opacity:1"/>
   <stop offset="100%" style="stop-color: #0f83ae; stop-opacity:1"/>
  </linearGradient>
 </defs>
  <path
     style="fill:url(#oomox);stroke-width:0.56149"
     d="M 8.2758621,0 A 7.7241379,8 0 0 0 2.8976292,2.2857143 H 5.7866378 A 6.0689655,6.2857143 0 0 1 8.2758621,1.7142857 6.0689655,6.2857143 0 0 1 14.344828,8 6.0689655,6.2857143 0 0 1 8.2758621,14.285714 6.0689655,6.2857143 0 0 1 5.7866378,13.714286 H 2.8976292 A 7.7241379,8 0 0 0 8.2758621,16 7.7241379,8 0 0 0 16,8 7.7241379,8 0 0 0 8.2758621,0 Z M 0.70797407,4 C 0.31588483,4 0,4.3271663 0,4.7332589 V 6.6953126 C 0,7.1014051 0.31588483,7.4285714 0.70797407,7.4285714 H 3.705819 c 0.3920894,0 0.7079741,-0.3271663 0.7079741,-0.7332588 V 4.7332589 C 4.4137931,4.3271663 4.0979084,4 3.705819,4 Z M 6.2252154,4 C 5.8331261,4 5.5172414,4.3271663 5.5172414,4.7332589 v 1.9620537 c 0,0.4060925 0.3158847,0.7332588 0.707974,0.7332588 h 2.997845 c 0.3920894,0 0.7079741,-0.3271663 0.7079741,-0.7332588 V 4.7332589 C 9.9310345,4.3271663 9.6151498,4 9.2230604,4 Z M 0.70797407,8.5714286 C 0.31588483,8.5714286 0,8.8985949 0,9.3046871 V 11.266741 C 0,11.672834 0.31588483,12 0.70797407,12 H 3.705819 c 0.3920894,0 0.7079741,-0.327166 0.7079741,-0.733259 V 9.3046871 c 0,-0.4060922 -0.3158847,-0.7332585 -0.7079741,-0.7332585 z m 5.51724133,0 c -0.3920893,0 -0.707974,0.3271663 -0.707974,0.7332585 V 11.266741 C 5.5172414,11.672834 5.8331261,12 6.2252154,12 h 2.997845 c 0.3920894,0 0.7079741,-0.327166 0.7079741,-0.733259 V 9.3046871 c 0,-0.4060922 -0.3158847,-0.7332585 -0.7079741,-0.7332585 z"
     id="path3"
     class="ColorScheme-Text"/>
  <metadata
     id="metadata4">
    <rdf:RDF>
      <cc:Work
         rdf:about="">
        <dc:creator>
          <cc:Agent>
            <dc:title>dreifacherspass</dc:title>
          </cc:Agent>
        </dc:creator>
        <cc:license
           rdf:resource="http://creativecommons.org/licenses/by-sa/4.0/" />
      </cc:Work>
      <cc:License
         rdf:about="http://creativecommons.org/licenses/by-sa/4.0/">
        <cc:permits
           rdf:resource="http://creativecommons.org/ns#Reproduction" />
        <cc:permits
           rdf:resource="http://creativecommons.org/ns#Distribution" />
        <cc:requires
           rdf:resource="http://creativecommons.org/ns#Notice" />
        <cc:requires
           rdf:resource="http://creativecommons.org/ns#Attribution" />
        <cc:permits
           rdf:resource="http://creativecommons.org/ns#DerivativeWorks" />
        <cc:requires
           rdf:resource="http://creativecommons.org/ns#ShareAlike" />
      </cc:License>
    </rdf:RDF>
  </metadata>
</svg>
