<?xml version="1.0" encoding="UTF-8" standalone="no"?>
<svg
   height="16px"
   viewBox="0 0 16 16"
   width="16px"
   version="1.1"
   id="svg1"
   xmlns:xlink="http://www.w3.org/1999/xlink"
   xmlns="http://www.w3.org/2000/svg"
   xmlns:svg="http://www.w3.org/2000/svg"
   xmlns:rdf="http://www.w3.org/1999/02/22-rdf-syntax-ns#"
   xmlns:cc="http://creativecommons.org/ns#"
   xmlns:dc="http://purl.org/dc/elements/1.1/">
  <defs>
   <style id="current-color-scheme" type="text/css">
   .ColorScheme-Text { color: #0abdc6; } .ColorScheme-Highlight { color:#5294e2; }
  </style>
  <linearGradient id="arrongin" x1="0%" x2="0%" y1="0%" y2="100%">
   <stop offset="0%" style="stop-color:#dd9b44; stop-opacity:1"/>
   <stop offset="100%" style="stop-color:#ad6c16; stop-opacity:1"/>
  </linearGradient>
  <linearGradient id="aurora" x1="0%" x2="0%" y1="0%" y2="100%">
   <stop offset="0%" style="stop-color:#09D4DF; stop-opacity:1"/>
   <stop offset="100%" style="stop-color:#9269F4; stop-opacity:1"/>
  </linearGradient>
  <linearGradient id="cyberneon" x1="0%" x2="0%" y1="0%" y2="100%">
    <stop offset="0" style="stop-color:#0abdc6; stop-opacity:1"/>
    <stop offset="1" style="stop-color:#ea00d9; stop-opacity:1"/>
  </linearGradient>
  <linearGradient id="fitdance" x1="0%" x2="0%" y1="0%" y2="100%">
   <stop offset="0%" style="stop-color:#1AD6AB; stop-opacity:1"/>
   <stop offset="100%" style="stop-color:#329DB6; stop-opacity:1"/>
  </linearGradient>
  <linearGradient id="oomox" x1="0%" x2="0%" y1="0%" y2="100%">
   <stop offset="0%" style="stop-color:#0abdc6; stop-opacity:1"/>
   <stop offset="100%" style="stop-color:#b800ff; stop-opacity:1"/>
  </linearGradient>
  <linearGradient id="rainblue" x1="0%" x2="0%" y1="0%" y2="100%">
   <stop offset="0%" style="stop-color:#00F260; stop-opacity:1"/>
   <stop offset="100%" style="stop-color:#0575E6; stop-opacity:1"/>
  </linearGradient>
  <linearGradient id="sunrise" x1="0%" x2="0%" y1="0%" y2="100%">
   <stop offset="0%" style="stop-color: #FF8501; stop-opacity:1"/>
   <stop offset="100%" style="stop-color: #FFCB01; stop-opacity:1"/>
  </linearGradient>
  <linearGradient id="telinkrin" x1="0%" x2="0%" y1="0%" y2="100%">
   <stop offset="0%" style="stop-color: #b2ced6; stop-opacity:1"/>
   <stop offset="100%" style="stop-color: #6da5b7; stop-opacity:1"/>
  </linearGradient>
  <linearGradient id="60spsycho" x1="0%" x2="0%" y1="0%" y2="100%">
   <stop offset="0%" style="stop-color: #df5940; stop-opacity:1"/>
   <stop offset="25%" style="stop-color: #d8d15f; stop-opacity:1"/>
   <stop offset="50%" style="stop-color: #e9882a; stop-opacity:1"/>
   <stop offset="100%" style="stop-color: #279362; stop-opacity:1"/>
  </linearGradient>
  <linearGradient id="90ssummer" x1="0%" x2="0%" y1="0%" y2="100%">
   <stop offset="0%" style="stop-color: #f618c7; stop-opacity:1"/>
   <stop offset="20%" style="stop-color: #94ffab; stop-opacity:1"/>
   <stop offset="50%" style="stop-color: #fbfd54; stop-opacity:1"/>
   <stop offset="100%" style="stop-color: #0f83ae; stop-opacity:1"/>
  </linearGradient>
 </defs>
  <path
     id="path1"
     style="fill:url(#oomox)"
     class="ColorScheme-Text"
     d="M 8.1757812 -0.00390625 C 6.7583222 -0.0022991629 5.3399404 -1.1564812e-18 4 0 C 2.3554722 0 1 1.3554722 1 3 L 1 13 C 1 14.644527 2.3554722 16 4 16 L 12 16 C 13.644527 16 15 14.644527 15 13 L 15 5.3535156 C 14.516135 5.6541341 13.946135 5.828125 13.335938 5.828125 C 13.222212 5.828125 13.110681 5.8223144 13 5.8105469 L 13 7 L 3 7 L 3 3 C 3 2.4296892 3.4296892 2 4 2 L 10.240234 2 C 10.420209 1.1626086 10.935021 0.4482359 11.634766 0 C 10.505204 -0.0036250593 9.3510249 -0.0052387181 8.1757812 -0.00390625 z M 6.4648438 3.4296875 C 6.4453118 3.4296875 6.425781 3.4336 6.40625 3.4375 L 6.34375 3.4375 C 6.1289064 3.5078143 5.988281 3.7109384 6 3.9375 L 6 4 C 6 4.546874 6.453126 5 7 5 L 9 5 C 9.546874 5 10 4.546874 10 4 L 10 3.9375 C 10.01172 3.2617204 8.988281 3.2617204 9 3.9375 L 9 4 L 7 4 L 7 3.9375 C 7.003906 3.6406256 6.7539052 3.4101555 6.4648438 3.4296875 z M 3 8 L 13 8 L 13 12 C 13 12.57031 12.57031 13 12 13 L 4 13 C 3.4296892 13 3 12.57031 3 12 L 3 8 z M 6.4648438 9.4296875 C 6.4453118 9.4296875 6.425781 9.4336 6.40625 9.4375 L 6.34375 9.4375 C 6.1289064 9.5078143 5.988281 9.7109384 6 9.9375 L 6 10 C 6 10.546873 6.453126 11 7 11 L 9 11 C 9.546874 11 10 10.546873 10 10 L 10 9.9375 C 10.01172 9.2617204 8.988281 9.2617204 9 9.9375 L 9 10 L 7 10 L 7 9.9375 C 7.003906 9.6406256 6.7539052 9.4101555 6.4648438 9.4296875 z " />
  <metadata
     id="metadata1">
    <rdf:RDF>
      <cc:Work
         rdf:about="">
        <dc:creator>
          <cc:Agent>
            <dc:title>dreifacherspass</dc:title>
          </cc:Agent>
        </dc:creator>
        <cc:license
           rdf:resource="http://creativecommons.org/licenses/by-sa/4.0/" />
      </cc:Work>
      <cc:License
         rdf:about="http://creativecommons.org/licenses/by-sa/4.0/">
        <cc:permits
           rdf:resource="http://creativecommons.org/ns#Reproduction" />
        <cc:permits
           rdf:resource="http://creativecommons.org/ns#Distribution" />
        <cc:requires
           rdf:resource="http://creativecommons.org/ns#Notice" />
        <cc:requires
           rdf:resource="http://creativecommons.org/ns#Attribution" />
        <cc:permits
           rdf:resource="http://creativecommons.org/ns#DerivativeWorks" />
        <cc:requires
           rdf:resource="http://creativecommons.org/ns#ShareAlike" />
      </cc:License>
    </rdf:RDF>
  </metadata>
  <path
     style="fill:url(#oomox);stroke-linecap:round;stroke-linejoin:round;-inkscape-stroke:none"
     d="m 13.335938,0 c -1.468657,0 -2.666016,1.1954055 -2.666016,2.6640625 0,1.4686688 1.197361,2.664063 2.666016,2.664063 C 14.804605,5.3281255 16,4.1327297 16,2.6640625 16,1.1954074 14.804607,0 13.335938,0 Z m 0,0.53125005 c 1.18062,0 2.130859,0.95220545 2.130859,2.13281245 0,1.1806221 -0.950237,2.132813 -2.130859,2.132813 -1.180607,0 -2.132813,-0.9521929 -2.132813,-2.132813 0,-1.1806055 0.952208,-2.13281245 2.132813,-2.13281245 z m 0,0.53320305 a 0.266496,0.266496 0 0 0 -0.267579,0.2675782 v 1.3320312 a 0.26652265,0.26652265 0 0 0 0.128907,0.2285157 l 0.666015,0.4003906 a 0.266496,0.266496 0 0 0 0.367188,-0.091797 0.266496,0.266496 0 0 0 -0.0918,-0.3652343 L 13.601563,2.513672 V 1.3320313 A 0.266496,0.266496 0 0 0 13.335938,1.0644531 Z"
     id="path1-5-2"
     class="ColorScheme-Text"/>
</svg>
