<?xml version="1.0" encoding="UTF-8" standalone="no"?>
<svg
   height="16"
   viewBox="0 0 16 16"
   width="16"
   version="1.1"
   id="svg9"
   xmlns:xlink="http://www.w3.org/1999/xlink"
   xmlns="http://www.w3.org/2000/svg"
   xmlns:svg="http://www.w3.org/2000/svg"
   xmlns:rdf="http://www.w3.org/1999/02/22-rdf-syntax-ns#"
   xmlns:cc="http://creativecommons.org/ns#"
   xmlns:dc="http://purl.org/dc/elements/1.1/">
   <defs>
      <style id="current-color-scheme" type="text/css">
         .ColorScheme-Text { color: #0abdc6; } .ColorScheme-Highlight { color:#5294e2; }
      </style>
      <linearGradient id="arrongin" x1="0%" x2="0%" y1="0%" y2="100%">
         <stop offset="0%" style="stop-color:#dd9b44; stop-opacity:1"/>
         <stop offset="100%" style="stop-color:#ad6c16; stop-opacity:1"/>
      </linearGradient>
      <linearGradient id="aurora" x1="0%" x2="0%" y1="0%" y2="100%">
         <stop offset="0%" style="stop-color:#09D4DF; stop-opacity:1"/>
         <stop offset="100%" style="stop-color:#9269F4; stop-opacity:1"/>
      </linearGradient>
      <linearGradient id="cyberneon" x1="0%" x2="0%" y1="0%" y2="100%">
         <stop offset="0" style="stop-color:#0abdc6; stop-opacity:1"/>
         <stop offset="1" style="stop-color:#ea00d9; stop-opacity:1"/>
      </linearGradient>
      <linearGradient id="fitdance" x1="0%" x2="0%" y1="0%" y2="100%">
         <stop offset="0%" style="stop-color:#1AD6AB; stop-opacity:1"/>
         <stop offset="100%" style="stop-color:#329DB6; stop-opacity:1"/>
      </linearGradient>
      <linearGradient id="oomox" x1="0%" x2="0%" y1="0%" y2="100%">
         <stop offset="0%" style="stop-color:#0abdc6; stop-opacity:1"/>
         <stop offset="100%" style="stop-color:#b800ff; stop-opacity:1"/>
      </linearGradient>
      <linearGradient id="rainblue" x1="0%" x2="0%" y1="0%" y2="100%">
         <stop offset="0%" style="stop-color:#00F260; stop-opacity:1"/>
         <stop offset="100%" style="stop-color:#0575E6; stop-opacity:1"/>
      </linearGradient>
      <linearGradient id="sunrise" x1="0%" x2="0%" y1="0%" y2="100%">
         <stop offset="0%" style="stop-color: #FF8501; stop-opacity:1"/>
         <stop offset="100%" style="stop-color: #FFCB01; stop-opacity:1"/>
      </linearGradient>
      <linearGradient id="telinkrin" x1="0%" x2="0%" y1="0%" y2="100%">
         <stop offset="0%" style="stop-color: #b2ced6; stop-opacity:1"/>
         <stop offset="100%" style="stop-color: #6da5b7; stop-opacity:1"/>
      </linearGradient>
      <linearGradient id="60spsycho" x1="0%" x2="0%" y1="0%" y2="100%">
         <stop offset="0%" style="stop-color: #df5940; stop-opacity:1"/>
         <stop offset="25%" style="stop-color: #d8d15f; stop-opacity:1"/>
         <stop offset="50%" style="stop-color: #e9882a; stop-opacity:1"/>
         <stop offset="100%" style="stop-color: #279362; stop-opacity:1"/>
      </linearGradient>
      <linearGradient id="90ssummer" x1="0%" x2="0%" y1="0%" y2="100%">
         <stop offset="0%" style="stop-color: #f618c7; stop-opacity:1"/>
         <stop offset="20%" style="stop-color: #94ffab; stop-opacity:1"/>
         <stop offset="50%" style="stop-color: #fbfd54; stop-opacity:1"/>
         <stop offset="100%" style="stop-color: #0f83ae; stop-opacity:1"/>
      </linearGradient>
   </defs>
  <path
     id="path4"
     class="ColorScheme-Text"
     d="M 1.146135,1.9719027 C 0.51117684,1.9719027 0,2.4830795 0,3.1180377 v 8.0229453 c 0,0.634957 0.51117684,1.146134 1.146135,1.146134 H 3.1518713 V 15.43899 L 7.4498775,12.287118 H 13.75362 c 0.634958,0 1.146135,-0.511177 1.146135,-1.146135 V 3.1180377 c 0,-0.6349582 -0.511177,-1.146135 -1.146135,-1.146135 z M 4.58454,3.1885519 4.8436516,3.977639 5.6747116,3.980449 5.0042673,4.4712478 5.2583419,5.2620139 4.58454,4.7756802 3.9107381,5.2620041 4.1648128,4.471238 3.4943685,3.9804372 4.3254284,3.9776292 Z m 5.1576076,0.1326336 0.7778944,2.3672614 2.49206,0.0084 -2.010773,1.4718434 0.761665,2.372298 L 9.7421476,8.0831304 7.7213012,9.5409829 8.4829661,7.1686848 6.4721932,5.6968415 l 2.4920599,-0.0084 z"
     style="opacity:0.5;stroke-width:0.286534;fill:url(#oomox)" />
  <path
     d="m 5.7899964,0.5610105 v 5.5874e-4 C 2.2758333,0.54865402 0.17848824,2.558782 0.61839803,5.6872784 1.1069025,9.3686219 4.6415846,12.817708 9.0381252,13.680563 13.447454,14.442666 15.741681,12.74784 16,9.2835008 v -0.049248 c -0.05115,-1.17803 -0.450051,-2.320365 -1.099685,-3.3718083 v 0.8942988 a 3.342803,3.3765028 0 0 1 0.36824,1.2530255 v 0.041413 c 0.168803,1.165113 0.02052,2.1074182 -0.36824,2.8256042 l -5.6e-4,0.03078 v 0.233368 c 0,0.634959 -0.50632,1.146135 -1.134942,1.146135 h -0.297727 -0.01119 -0.20091 C 12.121421,12.736101 10.607489,12.721118 8.910528,12.241179 5.3707889,11.393824 2.0429206,8.158765 1.7897167,5.2524411 1.5186094,2.139445 3.5672002,0.51487599 7.2450506,1.1581423 8.0430265,1.2976459 8.8638245,1.586797 9.6643582,1.9768901 H 10.710878 C 9.8029245,1.4602104 8.8540408,1.0055792 7.8488981,0.75240608 7.1813608,0.58190173 6.4421882,0.5610105 5.7899964,0.5610105 Z"
     stroke-width="0.286537"
     id="path6"
     class="ColorScheme-Text"
     style="fill:url(#oomox)" />
  <metadata
     id="metadata9">
    <rdf:RDF>
      <cc:Work
         rdf:about="">
        <dc:creator>
          <cc:Agent>
            <dc:title>dreifacherspass</dc:title>
          </cc:Agent>
        </dc:creator>
        <cc:license
           rdf:resource="http://creativecommons.org/licenses/by-sa/4.0/" />
      </cc:Work>
      <cc:License
         rdf:about="http://creativecommons.org/licenses/by-sa/4.0/">
        <cc:permits
           rdf:resource="http://creativecommons.org/ns#Reproduction" />
        <cc:permits
           rdf:resource="http://creativecommons.org/ns#Distribution" />
        <cc:requires
           rdf:resource="http://creativecommons.org/ns#Notice" />
        <cc:requires
           rdf:resource="http://creativecommons.org/ns#Attribution" />
        <cc:permits
           rdf:resource="http://creativecommons.org/ns#DerivativeWorks" />
        <cc:requires
           rdf:resource="http://creativecommons.org/ns#ShareAlike" />
      </cc:License>
    </rdf:RDF>
  </metadata>
</svg>
