<?xml version="1.0" encoding="UTF-8" standalone="no"?>
<svg
   fill="none"
   height="48"
   viewBox="0 0 48 48"
   width="48"
   version="1.1"
   id="svg61"
   xmlns:xlink="http://www.w3.org/1999/xlink"
   xmlns="http://www.w3.org/2000/svg"
   xmlns:svg="http://www.w3.org/2000/svg"
   xmlns:rdf="http://www.w3.org/1999/02/22-rdf-syntax-ns#"
   xmlns:cc="http://creativecommons.org/ns#"
   xmlns:dc="http://purl.org/dc/elements/1.1/">
  <defs
     id="defs65">
    <style
       id="current-color-scheme"
       type="text/css">
      .ColorScheme-Text { color: #0abdc6; } .ColorScheme-Highlight { color:#5294e2; }
     </style>
    <linearGradient
       id="arrongin"
       x1="0%"
       x2="0%"
       y1="0%"
       y2="100%">
      <stop
         offset="0%"
         style="stop-color:#dd9b44; stop-opacity:1"
         id="stop9192" />
      <stop
         offset="100%"
         style="stop-color:#ad6c16; stop-opacity:1"
         id="stop9194" />
    </linearGradient>
    <linearGradient
       id="aurora"
       x1="0%"
       x2="0%"
       y1="0%"
       y2="100%">
      <stop
         offset="0%"
         style="stop-color:#09D4DF; stop-opacity:1"
         id="stop9197" />
      <stop
         offset="100%"
         style="stop-color:#9269F4; stop-opacity:1"
         id="stop9199" />
    </linearGradient>
    <linearGradient
       id="cyberneon"
       x1="0%"
       x2="0%"
       y1="0%"
       y2="100%">
      <stop
         offset="0"
         style="stop-color:#0abdc6; stop-opacity:1"
         id="stop9202" />
      <stop
         offset="1"
         style="stop-color:#ea00d9; stop-opacity:1"
         id="stop9204" />
    </linearGradient>
    <linearGradient
       id="fitdance"
       x1="0%"
       x2="0%"
       y1="0%"
       y2="100%">
      <stop
         offset="0%"
         style="stop-color:#1AD6AB; stop-opacity:1"
         id="stop9207" />
      <stop
         offset="100%"
         style="stop-color:#329DB6; stop-opacity:1"
         id="stop9209" />
    </linearGradient>
    <linearGradient
       id="oomox"
       x1="0%"
       x2="0%"
       y1="0%"
       y2="100%">
      <stop
         offset="0%"
         style="stop-color:#0abdc6; stop-opacity:1"
         id="stop9212" />
      <stop
         offset="100%"
         style="stop-color:#b800ff; stop-opacity:1"
         id="stop9214" />
    </linearGradient>
    <linearGradient
       id="rainblue"
       x1="0%"
       x2="0%"
       y1="0%"
       y2="100%">
      <stop
         offset="0%"
         style="stop-color:#00F260; stop-opacity:1"
         id="stop9217" />
      <stop
         offset="100%"
         style="stop-color:#0575E6; stop-opacity:1"
         id="stop9219" />
    </linearGradient>
    <linearGradient
       id="sunrise"
       x1="0%"
       x2="0%"
       y1="0%"
       y2="100%">
      <stop
         offset="0%"
         style="stop-color: #FF8501; stop-opacity:1"
         id="stop9222" />
      <stop
         offset="100%"
         style="stop-color: #FFCB01; stop-opacity:1"
         id="stop9224" />
    </linearGradient>
    <linearGradient
       id="telinkrin"
       x1="0%"
       x2="0%"
       y1="0%"
       y2="100%">
      <stop
         offset="0%"
         style="stop-color: #b2ced6; stop-opacity:1"
         id="stop9227" />
      <stop
         offset="100%"
         style="stop-color: #6da5b7; stop-opacity:1"
         id="stop9229" />
    </linearGradient>
    <linearGradient
       id="60spsycho"
       x1="0%"
       x2="0%"
       y1="0%"
       y2="100%">
      <stop
         offset="0%"
         style="stop-color: #df5940; stop-opacity:1"
         id="stop9232" />
      <stop
         offset="25%"
         style="stop-color: #d8d15f; stop-opacity:1"
         id="stop9234" />
      <stop
         offset="50%"
         style="stop-color: #e9882a; stop-opacity:1"
         id="stop9236" />
      <stop
         offset="100%"
         style="stop-color: #279362; stop-opacity:1"
         id="stop9238" />
    </linearGradient>
    <linearGradient
       id="90ssummer"
       x1="0%"
       x2="0%"
       y1="0%"
       y2="100%">
      <stop
         offset="0%"
         style="stop-color: #f618c7; stop-opacity:1"
         id="stop9241" />
      <stop
         offset="20%"
         style="stop-color: #94ffab; stop-opacity:1"
         id="stop9243" />
      <stop
         offset="50%"
         style="stop-color: #fbfd54; stop-opacity:1"
         id="stop9245" />
      <stop
         offset="100%"
         style="stop-color: #0f83ae; stop-opacity:1"
         id="stop9247" />
    </linearGradient>
  </defs>
  <path
     id="path219"
     style="display:inline;fill:url(#oomox);fill-opacity:1;stroke-width:1.17475"
     class="ColorScheme-Text"
     d="M 4.0253906 0.5 C 2.0725566 0.5 0.5 2.0714306 0.5 4.0234375 L 0.5 4.1152344 A 3.525 3.6153847 0 0 1 4.0253906 0.5 z M 24 0.5 L 7.6308594 22.326172 L 22.8125 47.480469 L 43.974609 47.480469 C 45.927441 47.480469 47.5 45.909036 47.5 43.957031 L 47.5 4.0234375 C 47.5 2.0714306 45.927441 0.5 43.974609 0.5 L 24 0.5 z M 22.824219 9.8964844 L 29.875 9.8964844 C 30.525949 9.8964844 31.050781 10.419645 31.050781 11.070312 L 31.050781 12.244141 C 31.050781 12.89481 30.525949 13.419922 29.875 13.419922 L 22.824219 13.419922 C 22.173275 13.419922 21.650391 12.894809 21.650391 12.244141 L 21.650391 11.070312 C 21.650391 10.419645 22.173275 9.8964844 22.824219 9.8964844 z M 34.574219 9.8964844 L 41.625 9.8964844 C 42.275949 9.8964844 42.800781 10.419645 42.800781 11.070312 L 42.800781 12.244141 C 42.800781 12.89481 42.275949 13.419922 41.625 13.419922 L 34.574219 13.419922 C 33.923279 13.419922 33.400391 12.894809 33.400391 12.244141 L 33.400391 11.070312 C 33.400391 10.419645 33.923279 9.8964844 34.574219 9.8964844 z M 22.824219 15.767578 L 29.875 15.767578 C 30.525942 15.767578 31.050781 16.292692 31.050781 16.943359 L 31.050781 23.990234 C 31.050781 24.640903 30.525942 25.164062 29.875 25.164062 L 22.824219 25.164062 C 22.173274 25.164062 21.650391 24.640903 21.650391 23.990234 L 21.650391 16.943359 C 21.650391 16.292692 22.173274 15.767578 22.824219 15.767578 z M 34.574219 15.767578 L 41.625 15.767578 C 42.275943 15.767578 42.800781 16.292691 42.800781 16.943359 L 42.800781 23.990234 C 42.800781 24.640904 42.275943 25.164062 41.625 25.164062 L 34.574219 25.164062 C 33.923273 25.164062 33.400391 24.640904 33.400391 23.990234 L 33.400391 16.943359 C 33.400391 16.292691 33.923273 15.767578 34.574219 15.767578 z M 29.099609 17.986328 C 28.975883 17.98939 28.853048 18.024713 28.744141 18.095703 L 28.742188 18.095703 C 28.714658 18.113733 28.690296 18.13438 28.666016 18.15625 C 28.656006 18.16185 28.647965 18.169004 28.640625 18.177734 L 25.867188 21.492188 L 24.554688 20.115234 C 24.333798 19.885757 23.964463 19.847807 23.693359 20.023438 C 23.682489 20.030635 23.673086 20.040011 23.666016 20.050781 C 23.403636 20.246182 23.34093 20.603106 23.542969 20.859375 L 25.478516 23.427734 C 25.481016 23.431134 25.485081 23.4343 25.488281 23.4375 C 25.710643 23.660233 26.072271 23.694872 26.339844 23.521484 L 26.341797 23.521484 C 26.408727 23.477804 26.465179 23.422515 26.509766 23.359375 L 29.664062 18.90625 C 29.805834 18.705005 29.803289 18.434105 29.644531 18.232422 C 29.538992 18.099017 29.38477 18.018315 29.222656 17.994141 C 29.182125 17.988096 29.140852 17.985308 29.099609 17.986328 z M 22.824219 27.513672 L 29.875 27.513672 C 30.525946 27.513672 31.050781 28.03683 31.050781 28.6875 L 31.050781 35.734375 C 31.050781 36.385045 30.525946 36.910156 29.875 36.910156 L 22.824219 36.910156 C 22.17327 36.910156 21.650391 36.385045 21.650391 35.734375 L 21.650391 28.6875 C 21.650391 28.03683 22.17327 27.513672 22.824219 27.513672 z M 34.574219 27.513672 L 41.625 27.513672 C 42.275945 27.513672 42.800781 28.036831 42.800781 28.6875 L 42.800781 35.734375 C 42.800781 36.385044 42.275945 36.910156 41.625 36.910156 L 34.574219 36.910156 C 33.923271 36.910156 33.400391 36.385044 33.400391 35.734375 L 33.400391 28.6875 C 33.400391 28.036831 33.923271 27.513672 34.574219 27.513672 z M 3.7246094 27.535156 L 0.5 31.833984 L 0.5 43.957031 C 0.5 45.909036 2.0725566 47.480469 4.0253906 47.480469 L 15.763672 47.480469 L 3.7246094 27.535156 z " />
  <path
     d="M 4.025,0.5 A 3.525,3.6153847 0 0 0 0.5,4.1153847 V 22.192308 31.833333 L 3.724365,27.535357 15.775,47.5 h 7.049999 L 7.630322,22.326472 23.999999,0.5 Z"
     id="path220-7"
     class="ColorScheme-Text"
     style="display:inline;opacity:0.5;fill:url(#oomox);fill-opacity:1.0" />
  <metadata
     id="metadata1518">
    <rdf:RDF>
      <cc:Work
         rdf:about="">
        <dc:creator>
          <cc:Agent>
            <dc:title>dreifacherspass</dc:title>
          </cc:Agent>
        </dc:creator>
        <cc:license
           rdf:resource="http://creativecommons.org/licenses/by-sa/4.0/" />
      </cc:Work>
      <cc:License
         rdf:about="http://creativecommons.org/licenses/by-sa/4.0/">
        <cc:permits
           rdf:resource="http://creativecommons.org/ns#Reproduction" />
        <cc:permits
           rdf:resource="http://creativecommons.org/ns#Distribution" />
        <cc:requires
           rdf:resource="http://creativecommons.org/ns#Notice" />
        <cc:requires
           rdf:resource="http://creativecommons.org/ns#Attribution" />
        <cc:permits
           rdf:resource="http://creativecommons.org/ns#DerivativeWorks" />
        <cc:requires
           rdf:resource="http://creativecommons.org/ns#ShareAlike" />
      </cc:License>
    </rdf:RDF>
  </metadata>
  <path
     d="m 22.825,9.8962468 h 7.05 c 0.650944,0 1.175,0.5238332 1.175,1.1745012 v 1.174502 c 0,0.65067 -0.524056,1.174503 -1.175,1.174503 h -7.05 c -0.650944,0 -1.175,-0.523834 -1.175,-1.174503 v -1.174502 c 0,-0.650668 0.524056,-1.1745012 1.175,-1.1745012 z m 11.75,0 h 7.05 c 0.650944,0 1.175,0.5238332 1.175,1.1745012 v 1.174502 c 0,0.65067 -0.524056,1.174503 -1.175,1.174503 h -7.05 c -0.650944,0 -1.175,-0.523834 -1.175,-1.174503 v -1.174502 c 0,-0.650668 0.524056,-1.1745012 1.175,-1.1745012 z"
     style="display:inline;fill:url(#oomox);fill-opacity:1.0;stroke-width:1.17475;opacity:0.5"
     id="path222"
     class="ColorScheme-Text"/>
</svg>
