<?xml version="1.0" encoding="UTF-8" standalone="no"?>
<!-- Created with Inkscape (http://www.inkscape.org/) -->

<svg
   id="svg7364"
   viewBox="0 0 48 48"
   version="1.0"
   y="0"
   x="0"
   width="48"
   height="48"
   xmlns="http://www.w3.org/2000/svg"
   xmlns:svg="http://www.w3.org/2000/svg"
   xmlns:rdf="http://www.w3.org/1999/02/22-rdf-syntax-ns#"
   xmlns:cc="http://creativecommons.org/ns#"
   xmlns:dc="http://purl.org/dc/elements/1.1/">
  <defs
     id="defs7366">
    <style
       id="current-color-scheme"
       type="text/css">
      .ColorScheme-Text { color: #0abdc6; } .ColorScheme-Highlight { color:#5294e2; }
     </style>
    <linearGradient
       id="arrongin"
       x1="0%"
       x2="0%"
       y1="0%"
       y2="100%">
      <stop
         offset="0%"
         style="stop-color:#dd9b44; stop-opacity:1"
         id="stop9192" />
      <stop
         offset="100%"
         style="stop-color:#ad6c16; stop-opacity:1"
         id="stop9194" />
    </linearGradient>
    <linearGradient
       id="aurora"
       x1="0%"
       x2="0%"
       y1="0%"
       y2="100%">
      <stop
         offset="0%"
         style="stop-color:#09D4DF; stop-opacity:1"
         id="stop9197" />
      <stop
         offset="100%"
         style="stop-color:#9269F4; stop-opacity:1"
         id="stop9199" />
    </linearGradient>
    <linearGradient
       id="cyberneon"
       x1="0%"
       x2="0%"
       y1="0%"
       y2="100%">
      <stop
         offset="0"
         style="stop-color:#0abdc6; stop-opacity:1"
         id="stop9202" />
      <stop
         offset="1"
         style="stop-color:#ea00d9; stop-opacity:1"
         id="stop9204" />
    </linearGradient>
    <linearGradient
       id="fitdance"
       x1="0%"
       x2="0%"
       y1="0%"
       y2="100%">
      <stop
         offset="0%"
         style="stop-color:#1AD6AB; stop-opacity:1"
         id="stop9207" />
      <stop
         offset="100%"
         style="stop-color:#329DB6; stop-opacity:1"
         id="stop9209" />
    </linearGradient>
    <linearGradient
       id="oomox"
       x1="0%"
       x2="0%"
       y1="0%"
       y2="100%">
      <stop
         offset="0%"
         style="stop-color:#0abdc6; stop-opacity:1"
         id="stop9212" />
      <stop
         offset="100%"
         style="stop-color:#b800ff; stop-opacity:1"
         id="stop9214" />
    </linearGradient>
    <linearGradient
       id="rainblue"
       x1="0%"
       x2="0%"
       y1="0%"
       y2="100%">
      <stop
         offset="0%"
         style="stop-color:#00F260; stop-opacity:1"
         id="stop9217" />
      <stop
         offset="100%"
         style="stop-color:#0575E6; stop-opacity:1"
         id="stop9219" />
    </linearGradient>
    <linearGradient
       id="sunrise"
       x1="0%"
       x2="0%"
       y1="0%"
       y2="100%">
      <stop
         offset="0%"
         style="stop-color: #FF8501; stop-opacity:1"
         id="stop9222" />
      <stop
         offset="100%"
         style="stop-color: #FFCB01; stop-opacity:1"
         id="stop9224" />
    </linearGradient>
    <linearGradient
       id="telinkrin"
       x1="0%"
       x2="0%"
       y1="0%"
       y2="100%">
      <stop
         offset="0%"
         style="stop-color: #b2ced6; stop-opacity:1"
         id="stop9227" />
      <stop
         offset="100%"
         style="stop-color: #6da5b7; stop-opacity:1"
         id="stop9229" />
    </linearGradient>
    <linearGradient
       id="60spsycho"
       x1="0%"
       x2="0%"
       y1="0%"
       y2="100%">
      <stop
         offset="0%"
         style="stop-color: #df5940; stop-opacity:1"
         id="stop9232" />
      <stop
         offset="25%"
         style="stop-color: #d8d15f; stop-opacity:1"
         id="stop9234" />
      <stop
         offset="50%"
         style="stop-color: #e9882a; stop-opacity:1"
         id="stop9236" />
      <stop
         offset="100%"
         style="stop-color: #279362; stop-opacity:1"
         id="stop9238" />
    </linearGradient>
    <linearGradient
       id="90ssummer"
       x1="0%"
       x2="0%"
       y1="0%"
       y2="100%">
      <stop
         offset="0%"
         style="stop-color: #f618c7; stop-opacity:1"
         id="stop9241" />
      <stop
         offset="20%"
         style="stop-color: #94ffab; stop-opacity:1"
         id="stop9243" />
      <stop
         offset="50%"
         style="stop-color: #fbfd54; stop-opacity:1"
         id="stop9245" />
      <stop
         offset="100%"
         style="stop-color: #0f83ae; stop-opacity:1"
         id="stop9247" />
    </linearGradient>
  </defs>
  <path
     id="path716"
     class="ColorScheme-Text"
     style="display:inline;fill:url(#oomox);fill-opacity:1;stroke:none;stroke-width:0.158605;stroke-opacity:0.21569"
     d="m 13.163192,0.5 c -0.04107,0.10078747 -0.08242,0.20200496 -0.110656,0.30257737 0.340082,0.44699483 0.892603,1.09902223 1.686127,1.97955543 3.223494,3.5765657 5.847744,7.4584522 7.987915,11.4363732 0.542103,1.297787 0.96699,2.621194 1.643585,3.886362 0.676885,1.266788 1.366574,1.266788 0.689975,0 C 24.383235,16.8397 23.949732,15.516293 23.407916,14.218506 21.267444,10.240585 18.643193,6.3586985 15.419994,2.7821328 14.288173,1.526455 13.610091,0.87406925 13.163193,0.5001254 Z m 1.27732,0.3282177 c 0.341269,0.4466179 0.877724,1.0852076 1.660839,1.9539329 3.223192,3.5765659 5.847445,7.4584524 7.987909,11.4363734 0.541813,1.297787 0.96669,2.621194 1.643581,3.886362 0.676597,1.266788 1.366284,1.266788 0.689688,0 -0.676591,-1.265168 -1.110103,-2.588575 -1.65221,-3.886362 C 22.630151,10.240603 20.005897,6.3587165 16.782403,2.7821506 16.156986,2.0883743 15.716636,1.6477766 15.292352,1.2231252 14.995415,1.0844416 14.718706,0.95142029 14.440512,0.82828934 Z m -1.456133,0.8257584 c 0.01201,0.274321 0.04699,0.5466708 0.127657,0.8204542 0.11214,0.1264995 0.140427,0.1705775 0.264209,0.3076487 3.223187,3.5765658 5.84744,7.458453 7.987902,11.436374 0.541806,1.297786 0.966689,2.621194 1.643585,3.88636 0.676594,1.266788 1.366576,1.266788 0.689686,0 C 23.020814,16.839647 22.58731,15.516239 22.045202,14.218453 19.905029,10.240532 17.280777,6.3586448 14.057284,2.782079 13.605328,2.2805609 13.332786,2.0148399 12.984379,1.6539761 Z m 3.704302,0.2153711 c 0.267191,0.3135614 0.409411,0.5070735 0.775074,0.9127318 3.223496,3.5765658 5.847753,7.458453 7.987919,11.436374 0.542109,1.297786 0.966984,2.621194 1.643583,3.88636 0.675402,1.266788 1.365684,1.266788 0.690277,0 -0.677189,-1.265166 -1.110693,-2.588574 -1.652507,-3.88636 C 23.992562,10.240532 21.368306,6.3586448 18.145113,2.782079 18.029967,2.6545042 17.980874,2.6134727 17.872577,2.4948564 17.475361,2.2800229 17.076967,2.0666223 16.688681,1.8693472 Z m 2.546306,1.3999158 c 3.029495,3.4428993 5.53414,7.147936 7.579396,10.94919 0.541811,1.297786 0.96818,2.621194 1.643577,3.88636 0.675408,1.266788 1.365691,1.266788 0.690284,0 -0.678379,-1.265166 -1.109803,-2.588574 -1.652805,-3.88636 C 25.618588,10.729863 23.339473,7.3299669 20.640237,4.1309286 20.177277,3.8340309 19.712825,3.5489593 19.234987,3.269263 Z m -5.169073,1.1436911 c 0.744134,1.1671635 1.617105,2.3425691 2.052391,3.5437761 1.439178,2.0397596 2.738512,4.1341678 3.883126,6.2617228 0.542108,1.297786 0.96699,2.621194 1.643583,3.88636 0.676889,1.266788 1.366577,1.266788 0.689985,0 -0.676893,-1.265166 -1.110398,-2.588574 -1.652209,-3.88636 -1.821807,-3.386101 -4.022669,-6.6883447 -6.616876,-9.8054989 z m 8.183688,0.8204549 c 2.299052,2.8738308 4.265752,5.89692 5.928673,8.985044 0.541521,1.297786 0.964018,2.621194 1.642396,3.88636 0.675403,1.266788 1.365687,1.266788 0.690279,0 -0.678375,-1.265166 -1.109803,-2.588574 -1.654293,-3.88636 C 27.490377,11.676281 25.89946,9.185352 24.106222,6.7772039 23.554886,6.2554382 22.94078,5.7401231 22.249602,5.233409 Z m -5.892971,4.0667957 c -0.001,0.1320542 0.03669,0.262137 0.017,0.3949083 -0.05171,0.201037 -0.06966,0.404403 -0.05951,0.610274 0.820896,1.29062 1.614713,2.593243 2.324935,3.913066 0.541807,1.297786 0.966686,2.621194 1.643577,3.88636 0.676594,1.266788 1.366579,1.266788 0.689689,0 -0.676612,-1.265166 -1.11012,-2.588574 -1.651931,-3.88636 -0.895287,-1.663665 -1.890838,-3.304032 -2.963749,-4.9182483 z" />
  <path
     id="path448"
     class="ColorScheme-Text"
     style="display:inline;fill:url(#oomox);fill-opacity:1;fill-rule:evenodd;stroke:url(#oomox);stroke-width:0.202985pt"
     d="m 38.544384,27.529564 c -0.752765,5.214073 -4.858735,10.128918 -7.393734,14.941627 -0.764662,1.449547 -2.838479,3.671349 -4.302944,4.732084 0.163059,-1.128818 1.285944,-2.547908 1.803653,-3.083647 1.017575,-1.049984 1.541232,-2.003207 2.243416,-3.110527 1.451966,-2.295264 1.675118,-4.576195 2.856327,-6.586571 1.219894,-2.080251 1.752483,-3.660598 1.68702,-5.826859" />
  <path
     id="path448-5"
     style="display:inline;fill:#000000;fill-opacity:1;fill-rule:evenodd;stroke:url(#oomox);stroke-width:0.202985pt;opacity:0.5"
     d="m 38.536678,27.53 c -0.752765,5.214073 -4.858735,10.128918 -7.393734,14.941627 -0.764662,1.449547 -2.838479,3.671349 -4.302944,4.732084 0.163059,-1.128818 1.285944,-2.547908 1.803653,-3.083647 1.017575,-1.049984 1.541232,-2.003207 2.243416,-3.110527 1.451966,-2.295264 1.675118,-4.576195 2.856327,-6.586571 1.219894,-2.080251 1.752483,-3.660598 1.68702,-5.826859" />
  <path
     id="path697"
     class="ColorScheme-Text"
     style="display:inline;fill:url(#oomox);fill-opacity:1;stroke:none;stroke-width:0.167672;stroke-opacity:0.21569"
     d="m 18.323935,22.315494 c -0.171676,0 -0.515333,0.35477 -0.86018,1.062523 -0.597451,1.225576 -1.012805,2.495947 -1.473382,3.759148 -0.04171,0.514247 -0.0235,1.023106 -0.01694,1.533761 0.161259,-0.317143 0.337999,-0.630707 0.493911,-0.949644 0.555493,-1.449546 0.996439,-2.929551 1.686126,-4.343265 0.345144,-0.707753 0.341871,-1.062523 0.170489,-1.062523 z m 1.362409,0 c -0.171375,0 -0.515029,0.35477 -0.859881,1.062523 -0.689977,1.413714 -1.130926,2.893719 -1.686417,4.343265 -0.357045,0.72746 -0.748902,1.447757 -1.132427,2.169843 0.02887,0.379856 0.07377,0.741797 0.119009,1.101946 0.599231,-1.080445 1.164845,-2.173428 1.703385,-3.271789 0.555201,-1.449546 0.996435,-2.929551 1.686128,-4.343265 0.344841,-0.707753 0.341868,-1.062523 0.170188,-1.062523 z m 1.362711,0 c -0.171682,0 -0.515333,0.35477 -0.860173,1.062523 -0.689685,1.413714 -1.130937,2.893719 -1.686133,4.343265 -0.701291,1.429844 -1.468923,2.841758 -2.273756,4.241138 0.04878,0.324317 0.08272,0.64862 0.102104,0.980101 1.025302,-1.716517 1.995558,-3.456336 2.861386,-5.221239 0.5555,-1.449546 0.996447,-2.929551 1.686133,-4.343265 0.344842,-0.707753 0.341869,-1.062523 0.170489,-1.062523 z m 1.362406,0 c -0.171377,0 -0.515028,0.35477 -0.86017,1.062523 -0.689684,1.413714 -1.130635,2.893719 -1.686129,4.343265 -1.063094,2.166267 -2.245201,4.307434 -3.551073,6.394855 -0.02524,0.431816 -0.08272,0.863635 -0.170191,1.291873 1.64358,-2.495945 3.125894,-5.067148 4.411247,-7.686728 0.555199,-1.449546 0.996444,-2.929551 1.686126,-4.343265 0.344846,-0.707753 0.341866,-1.062523 0.17019,-1.062523 z m 1.362714,0 c -0.17168,0 -0.51533,0.35477 -0.860177,1.062523 -0.689684,1.413714 -1.130927,2.893719 -1.68613,4.343265 -1.623648,3.309414 -3.517454,6.559698 -5.722776,9.652305 -0.423098,0.870808 -1.049109,1.687854 -1.856321,2.435025 -0.180902,0.229346 -0.343653,0.465859 -0.528125,0.693418 -0.535566,0.655788 -0.803936,1.035644 -1.132713,1.476423 0.26659,-0.0861 0.519199,-0.18276 0.783405,-0.272349 0.341277,-0.392401 0.601915,-0.668337 1.038993,-1.204074 3.260384,-3.997457 5.925997,-8.335351 8.107225,-12.780748 0.555201,-1.449546 0.996442,-2.929551 1.686129,-4.343265 0.344843,-0.707753 0.341867,-1.062523 0.17049,-1.062523 z m 1.362409,0 c -0.171385,0 -0.515036,0.35477 -0.860174,1.062523 -0.689684,1.413714 -1.130635,2.893719 -1.686127,4.343265 -2.181229,4.445397 -4.846846,8.783291 -8.107228,12.780748 -0.293665,0.360145 -0.390661,0.514237 -0.62155,0.809883 0.296942,-0.107505 0.594774,-0.211433 0.885765,-0.324315 0.161556,-0.19351 0.248441,-0.268766 0.425775,-0.485568 3.260085,-3.997457 5.925993,-8.335351 8.107217,-12.780748 0.555204,-1.449546 0.996148,-2.929551 1.686132,-4.343265 0.344841,-0.707753 0.341871,-1.062523 0.17019,-1.062523 z m 1.362711,0 c -0.171681,0 -0.515333,0.35477 -0.860178,1.062523 -0.689685,1.413714 -1.130928,2.893719 -1.68613,4.343265 -2.181221,4.445397 -4.847131,8.783291 -8.107223,12.780748 -0.03542,0.04307 -0.04225,0.05383 -0.07676,0.09685 0.351089,-0.146924 0.702772,-0.295641 1.038996,-0.451527 3.132142,-3.900698 5.716822,-8.109588 7.834676,-12.425976 0.555203,-1.449547 0.996444,-2.929552 1.686126,-4.343266 0.344845,-0.707751 0.341867,-1.062524 0.17049,-1.062524 z m 1.363597,0 c -0.172568,0 -0.51652,0.35477 -0.86136,1.062523 -0.689685,1.413714 -1.130631,2.893719 -1.686126,4.343265 -2.019371,4.115715 -4.480281,8.125712 -7.417248,11.872314 0.434705,-0.23114 0.848574,-0.469444 1.243402,-0.723877 2.689413,-3.538756 4.973287,-7.296115 6.863823,-11.148437 0.555202,-1.449546 0.996149,-2.929551 1.686132,-4.343265 0.343946,-0.707753 0.340973,-1.062523 0.171377,-1.062523 z m -15.900548,18.74915 c -0.324015,0.193516 -0.688496,0.365525 -1.05595,0.539329 -0.239813,0.313565 -0.5552,0.705959 -0.715275,0.933517 0.22821,-0.06995 0.452848,-0.145136 0.681356,-0.215014 0.302292,-0.333272 0.679569,-0.768671 1.089869,-1.257832 z M 9.6546649,42.16301 c -0.014523,0.0054 -0.02797,0.01077 -0.042552,0.01615 -0.2201759,0.04666 -0.4397569,0.118253 -0.6557667,0.193508 -0.2695667,0.376278 -0.3826291,0.566204 -0.4683196,0.734631 0.1252631,-0.05564 0.2044066,-0.08255 0.3490084,-0.148718 0.036003,-0.01078 0.074976,-0.02154 0.110687,-0.0323 0.1910172,-0.188135 0.4260693,-0.451526 0.7069415,-0.763294 z" />
  <path
     id="path777"
     class="ColorScheme-Text"
     style="display:inline;fill:url(#oomox);fill-opacity:1;stroke:none;stroke-width:0.158605;stroke-opacity:0.21569"
     d="m 0.5,13.546536 c 0.0448083,0.199249 0.25778404,0.475359 0.5023575,0.769211 7.743637,0.480376 5.505581,3.61885 13.7362835,4.097254 l 0.09378,-0.261595 c -0.285042,-0.0036 -0.527233,-0.02333 -0.783412,-0.04129 -0.083,0.0341 -0.206187,0.05564 -0.272539,0.09331 -0.117823,-0.03948 -0.225235,-0.0951 -0.34068,-0.137978 -5.4377892,-0.59312 -4.0956101,-4.13206 -12.93566249,-4.518905 z m 1.36253,1.753971 c 0.3085434,0.327714 0.5867387,0.663855 0.8857608,1.020599 5.583833,0.536993 2.8896559,2.387542 12.0328972,2.677804 V 18.737313 C 6.245513,18.303709 8.4172187,15.850044 1.86253,15.300507 Z m 1.7117169,2.148519 c 0.1669165,0.301019 0.2993195,0.598457 0.3493066,0.886927 3.6921069,0.265183 2.4284775,0.920974 10.7639135,1.184367 l 0.09378,-0.229344 C 6.2901431,19.022206 7.6718946,17.902349 3.5742469,17.449026 Z m 0.2213659,1.754156 c -0.041657,0.08971 -0.063373,0.180968 -0.1276526,0.266971 0.1463912,0.11109 0.2079767,0.256223 0.2383253,0.415694 H 14.653541 l 0.03391,-0.159471 C 6.3118634,19.461193 7.6552322,19.316053 3.7956128,19.203182 Z M 14.696096,20.084729 C 6.2249833,20.353496 7.7251535,20.518344 3.7361062,20.638393 3.6123287,20.932241 3.4519604,21.235051 3.2166105,21.56653 7.815306,21.326433 5.8518749,20.5703 14.696096,20.290789 Z m 0.102052,0.437198 c -9.0754032,0.49811 -6.3859877,1.775649 -12.3649463,2.082041 -0.2817654,0.344021 -0.550737,0.6755 -0.800666,0.994437 7.2381257,-0.292059 3.786129,-2.003205 13.1656123,-2.784423 z m 0,0.553658 C 6.2461102,22.222322 8.5615254,24.259571 0.97706929,24.562384 0.84520197,24.816814 0.79405576,25.030038 0.8576981,25.182339 8.7149913,24.908196 6.9532889,22.903198 14.747208,21.398104 l 0.05086,-0.322519 z" />
  <path
     id="path888"
     class="ColorScheme-Text"
     style="display:inline;fill:url(#oomox);fill-opacity:1;fill-rule:evenodd;stroke:url(#oomox);stroke-width:0.211468pt"
     d="m 37.746991,28.063514 c -2.192825,5.212278 -6.670724,10.010661 -11.081972,14.529516 -1.317186,1.349214 -4.614761,3.313 -6.428237,4.239348 0.473972,-1.127029 2.482926,-2.289893 3.167553,-2.780841 1.343073,-0.962182 2.310952,-1.739813 3.33983,-2.791585 2.136295,-2.182384 2.368372,-4.769705 4.141679,-6.6905 1.832812,-1.987078 2.81468,-3.535176 3.332394,-5.737264" />
  <path
     id="path784"
     style="font-variation-settings:normal;display:inline;opacity:1;vector-effect:none;fill:url(#oomox);fill-opacity:1;fill-rule:evenodd;stroke:none;stroke-width:0.649918;stroke-linecap:butt;stroke-linejoin:miter;stroke-miterlimit:4;stroke-dasharray:none;stroke-dashoffset:0;stroke-opacity:1;-inkscape-stroke:none;stop-color:#000000;stop-opacity:1"
     class="ColorScheme-Text"
     d="M 25.521484 8.6875 C 23.984644 8.6350451 24.52029 10.487595 23.261719 10.955078 C 21.746379 11.428462 19.751167 11.653601 19.337891 12.849609 C 18.452728 14.122128 18.841359 15.623017 17.673828 16.824219 C 16.896969 17.80199 14.137466 17.701312 13.560547 18.353516 C 13.888726 19.554005 13.890922 20.794797 13.464844 21.986328 C 15.904625 21.574223 18.491635 22.746579 18.890625 24.205078 C 19.921582 25.830213 21.412536 27.367124 21.925781 29.101562 C 22.563994 30.832414 22.446045 32.633574 21.806641 34.355469 C 21.576051 35.505787 20.242762 36.611712 20.892578 37.787109 C 22.861357 36.842849 23.910419 35.405619 25.197266 34.140625 C 26.658445 32.576408 27.897249 30.829684 30.265625 29.675781 C 32.761936 28.658055 35.965156 29.093869 38.681641 28.53125 C 42.305605 27.40602 43.715555 24.938418 46.214844 23.148438 C 46.97653 22.449644 48.11101 21.346735 46.667969 20.664062 C 42.886311 19.261111 41.585535 17.576593 38.875 15.822266 C 36.887471 14.857038 32.995838 13.341077 31.421875 12.125 C 29.478978 11.052267 27.179663 10.138854 25.857422 8.7246094 C 25.735396 8.7032084 25.62394 8.690997 25.521484 8.6875 z M 40.396484 19.005859 A 2.05 2.0451379 0 0 1 42.599609 21.048828 A 2.05 2.0451379 0 1 1 38.5 21.048828 A 2.05 2.0451379 0 0 1 40.396484 19.005859 z " />
  <path
     id="path445"
     style="display:inline;opacity:1;fill:url(#oomox);fill-opacity:1;fill-rule:evenodd;stroke:none;stroke-width:0.211468pt"
     class="ColorScheme-Text"
     d="M 34.90625 14.029297 C 34.70095 14.631513 34.762327 15.27167 35.107422 15.839844 C 36.369996 17.200463 37.838742 18.531614 38.8125 19.980469 A 2.05 2.0451379 0 0 1 41 19.064453 C 40.471787 18.104078 39.906417 17.149529 39.382812 16.1875 C 39.207263 16.065476 39.061514 15.946956 38.871094 15.824219 C 37.856503 15.331478 36.34929 14.695835 34.90625 14.029297 z M 42.457031 21.763672 A 2.05 2.0451379 0 0 1 39.859375 22.972656 C 39.807841 24.837606 38.508679 26.659466 38.591797 28.541016 C 38.618597 28.535616 38.647934 28.53665 38.677734 28.53125 C 39.516783 28.271446 40.232326 27.930799 40.875 27.552734 C 42.594504 25.83553 43.18127 23.715822 42.457031 21.763672 z " />
  <path
     id="path445-2"
     style="display:inline;opacity:0.2;fill:#000000;fill-opacity:1;fill-rule:evenodd;stroke:none;stroke-width:0.211468pt"
     d="M 34.90625 14.029297 C 34.70095 14.631512 34.762327 15.27167 35.107422 15.839844 C 36.368291 17.198625 37.834817 18.528026 38.808594 19.974609 A 2.05 2.0451379 0 0 1 38.810547 19.972656 A 2.05 2.0451379 0 0 1 39.113281 19.595703 A 2.05 2.0451379 0 0 1 39.142578 19.568359 A 2.05 2.0451379 0 0 1 39.972656 19.087891 A 2.05 2.0451379 0 0 1 40 19.080078 A 2.05 2.0451379 0 0 1 40.474609 19.005859 A 2.05 2.0451379 0 0 1 40.507812 19.005859 A 2.05 2.0451379 0 0 1 40.988281 19.048828 C 40.462635 18.093933 39.903463 17.1441 39.382812 16.1875 C 39.207264 16.065476 39.061514 15.946956 38.871094 15.824219 C 37.856504 15.331478 36.349289 14.695834 34.90625 14.029297 z M 42.460938 21.777344 A 2.05 2.0451379 0 0 1 41.193359 22.986328 A 2.05 2.0451379 0 0 1 40.298828 23.076172 A 2.05 2.0451379 0 0 1 39.859375 22.972656 C 39.807841 24.837604 38.508679 26.659468 38.591797 28.541016 C 38.618597 28.535616 38.647934 28.53665 38.677734 28.53125 C 39.516783 28.271446 40.232327 27.930799 40.875 27.552734 C 42.590618 25.83941 43.177629 23.725836 42.460938 21.777344 z " />
  <path
     id="path747"
     class="ColorScheme-Text"
     style="display:inline;opacity:1;fill:url(#oomox);fill-opacity:1;fill-rule:evenodd;stroke:none;stroke-width:0.211468pt"
     d="m 27.155056,9.7925852 c -0.09414,0.1811484 -0.145512,0.3599678 -0.102392,0.5128018 0.854819,3.027749 1.979496,6.025211 2.589443,9.098469 0.312415,3.354205 1.740582,6.715582 0.833101,10.076957 -0.04171,0.06461 -0.04171,0.09508 -0.07443,0.154092 0.598048,-0.232934 1.234771,-0.388821 1.89828,-0.492741 0.133896,-0.216807 0.22612,-0.431818 0.220174,-0.625333 1.395448,-3.321953 -1.258563,-6.582989 -0.365963,-9.928234 0.612937,-2.354395 -0.812259,-4.57333 -1.472786,-6.847277 -1.208008,-0.627122 -2.469551,-1.234893 -3.525507,-1.9487348 z" />
  <path
     id="path747-9"
     style="fill:#000000;fill-opacity:1;fill-rule:evenodd;stroke:none;stroke-width:0.211468pt;opacity:0.4"
     d="m 27.15483,9.793 c -0.09414,0.181149 -0.145512,0.359968 -0.102392,0.512802 0.854819,3.027749 1.979496,6.025211 2.589443,9.098469 0.312415,3.354205 1.740582,6.715582 0.833101,10.076957 -0.04171,0.06461 -0.04171,0.09508 -0.07443,0.154092 0.598048,-0.232934 1.234771,-0.388821 1.89828,-0.492741 0.133896,-0.216807 0.22612,-0.431818 0.220174,-0.625333 1.395448,-3.321953 -1.258563,-6.582989 -0.365963,-9.928234 0.612937,-2.354395 -0.812259,-4.57333 -1.472786,-6.847277 C 29.472249,11.114613 28.210706,10.506842 27.15475,9.793 Z" />
  <path
     id="path694"
     class="ColorScheme-Text"
     style="display:inline;opacity:1;fill:url(#oomox);fill-opacity:1;fill-rule:evenodd;stroke:none;stroke-width:0.211468pt"
     d="m 22.590283,11.146453 c -1.382642,0.36713 -2.898289,0.675858 -3.252944,1.702725 -0.140228,0.201037 -0.210656,0.415154 -0.29813,0.625688 0.159471,0.773872 0.214817,1.555622 0.04244,2.333249 -0.46326,2.337916 0.330861,4.672601 1.422216,6.90874 0.340376,1.178987 0.182685,2.338266 -0.187447,3.486797 0.682246,0.935306 1.309451,1.883155 1.609658,2.897302 0.638214,1.730854 0.520099,3.535174 -0.119307,5.257073 -0.163956,0.817049 -0.869695,1.610811 -1.038988,2.426064 0.177032,-0.04846 0.343648,-0.103923 0.493902,-0.186344 2.657584,-1.985287 3.694789,-4.608449 3.551378,-7.122313 -1.558784,-4.706997 -1.776287,-9.521497 -2.393072,-14.292825 0.329367,-1.326632 0.439455,-2.698057 0.170192,-4.036156 z" />
  <path
     id="path694-1"
     style="display:inline;opacity:0.5;fill:#000000;fill-opacity:1;fill-rule:evenodd;stroke:none;stroke-width:0.211203pt"
     d="m 22.590387,11.146 c -1.382642,0.36621 -2.898289,0.674164 -3.252944,1.698457 -0.140228,0.200533 -0.210656,0.414113 -0.29813,0.62412 0.159471,0.771932 0.214817,1.551722 0.04244,2.3274 -0.46326,2.332056 0.330861,4.660889 1.422216,6.891423 0.340376,1.176032 0.182685,2.332405 -0.187447,3.478057 0.682246,0.932962 1.309451,1.878435 1.609658,2.89004 0.638214,1.726515 0.520099,3.526313 -0.119307,5.243896 -0.163956,0.815001 -0.869695,1.606773 -1.038988,2.419983 0.177032,-0.04834 0.343648,-0.103663 0.493902,-0.185877 2.657584,-1.980311 3.694789,-4.596898 3.551378,-7.104461 -1.558784,-4.695198 -1.776287,-9.49763 -2.393072,-14.256999 0.329367,-1.323307 0.439455,-2.691294 0.170192,-4.026039 z" />
  <path
     id="path717-7"
     class="ColorScheme-Text"
     style="display:inline;fill:url(#oomox);fill-opacity:1;fill-rule:evenodd;stroke:none;stroke-width:0.0866317pt"
     d="m 41.999922,21.1515 a 0.74996221,0.74968004 0 1 0 -1.49992,0 0.74996221,0.74968004 0 1 0 1.49992,0 z" />
  <metadata
     id="metadata312">
    <rdf:RDF>
      <cc:Work>
        <dc:format>image/svg+xml</dc:format>
        <dc:type
           rdf:resource="http://purl.org/dc/dcmitype/StillImage" />
        <cc:license
           rdf:resource="http://creativecommons.org/licenses/by-sa/4.0/" />
        <dc:description>Originally posted by Jonathon Love from OCAL 0.18</dc:description>
        <dc:creator>
          <cc:Agent>
            <dc:title>dreifacherspass</dc:title>
          </cc:Agent>
        </dc:creator>
      </cc:Work>
      <cc:License
         rdf:about="http://creativecommons.org/licenses/by-sa/4.0/">
        <cc:permits
           rdf:resource="http://creativecommons.org/ns#Reproduction" />
        <cc:permits
           rdf:resource="http://creativecommons.org/ns#Distribution" />
        <cc:requires
           rdf:resource="http://creativecommons.org/ns#Notice" />
        <cc:requires
           rdf:resource="http://creativecommons.org/ns#Attribution" />
        <cc:permits
           rdf:resource="http://creativecommons.org/ns#DerivativeWorks" />
        <cc:requires
           rdf:resource="http://creativecommons.org/ns#ShareAlike" />
      </cc:License>
    </rdf:RDF>
  </metadata>
</svg>
