<?xml version="1.0" encoding="UTF-8" standalone="no"?>
<!-- Created with Inkscape (http://www.inkscape.org/) -->

<svg
   width="48"
   height="48"
   viewBox="0 0 12.7 12.7"
   version="1.1"
   id="svg3073"
   xmlns="http://www.w3.org/2000/svg"
   xmlns:svg="http://www.w3.org/2000/svg"
   xmlns:rdf="http://www.w3.org/1999/02/22-rdf-syntax-ns#"
   xmlns:cc="http://creativecommons.org/ns#"
   xmlns:dc="http://purl.org/dc/elements/1.1/">
  <defs>
   <style id="current-color-scheme" type="text/css">
   .ColorScheme-Text { color: #0abdc6; } .ColorScheme-Highlight { color:#5294e2; }
  </style>
  <linearGradient id="arrongin" x1="0%" x2="0%" y1="0%" y2="100%">
   <stop offset="0%" style="stop-color:#dd9b44; stop-opacity:1"/>
   <stop offset="100%" style="stop-color:#ad6c16; stop-opacity:1"/>
  </linearGradient>
  <linearGradient id="aurora" x1="0%" x2="0%" y1="0%" y2="100%">
   <stop offset="0%" style="stop-color:#09D4DF; stop-opacity:1"/>
   <stop offset="100%" style="stop-color:#9269F4; stop-opacity:1"/>
  </linearGradient>
  <linearGradient id="cyberneon" x1="0%" x2="0%" y1="0%" y2="100%">
    <stop offset="0" style="stop-color:#0abdc6; stop-opacity:1"/>
    <stop offset="1" style="stop-color:#ea00d9; stop-opacity:1"/>
  </linearGradient>
  <linearGradient id="fitdance" x1="0%" x2="0%" y1="0%" y2="100%">
   <stop offset="0%" style="stop-color:#1AD6AB; stop-opacity:1"/>
   <stop offset="100%" style="stop-color:#329DB6; stop-opacity:1"/>
  </linearGradient>
  <linearGradient id="oomox" x1="0%" x2="0%" y1="0%" y2="100%">
   <stop offset="0%" style="stop-color:#0abdc6; stop-opacity:1"/>
   <stop offset="100%" style="stop-color:#b800ff; stop-opacity:1"/>
  </linearGradient>
  <linearGradient id="rainblue" x1="0%" x2="0%" y1="0%" y2="100%">
   <stop offset="0%" style="stop-color:#00F260; stop-opacity:1"/>
   <stop offset="100%" style="stop-color:#0575E6; stop-opacity:1"/>
  </linearGradient>
  <linearGradient id="sunrise" x1="0%" x2="0%" y1="0%" y2="100%">
   <stop offset="0%" style="stop-color: #FF8501; stop-opacity:1"/>
   <stop offset="100%" style="stop-color: #FFCB01; stop-opacity:1"/>
  </linearGradient>
  <linearGradient id="telinkrin" x1="0%" x2="0%" y1="0%" y2="100%">
   <stop offset="0%" style="stop-color: #b2ced6; stop-opacity:1"/>
   <stop offset="100%" style="stop-color: #6da5b7; stop-opacity:1"/>
  </linearGradient>
  <linearGradient id="60spsycho" x1="0%" x2="0%" y1="0%" y2="100%">
   <stop offset="0%" style="stop-color: #df5940; stop-opacity:1"/>
   <stop offset="25%" style="stop-color: #d8d15f; stop-opacity:1"/>
   <stop offset="50%" style="stop-color: #e9882a; stop-opacity:1"/>
   <stop offset="100%" style="stop-color: #279362; stop-opacity:1"/>
  </linearGradient>
  <linearGradient id="90ssummer" x1="0%" x2="0%" y1="0%" y2="100%">
   <stop offset="0%" style="stop-color: #f618c7; stop-opacity:1"/>
   <stop offset="20%" style="stop-color: #94ffab; stop-opacity:1"/>
   <stop offset="50%" style="stop-color: #fbfd54; stop-opacity:1"/>
   <stop offset="100%" style="stop-color: #0f83ae; stop-opacity:1"/>
  </linearGradient>
 </defs>
  <path
     id="path39"
     style="display:inline;opacity:1;fill:url(#oomox);fill-opacity:1;filter:url(#filter4577)"
     class="ColorScheme-Text"
     d="m 19.001015,0.99992485 c -2.999997,0 -5.001846,1.99959455 -5.001846,4.99959155 V 49.000409 C 13.999169,52.000406 17.001017,54 19.001015,54 h 34.99971 V 44.000817 H 23.00073 V 0.99992485 Z"
     transform="matrix(0.23462771,0,0,0.23463017,-1.6273297,-0.10232087)" />
  <path
     style="display:inline;fill:url(#oomox);fill-opacity:1"
     d="m 16,48 c 0,2 1,4 4,4 H 52 V 44 H 20 c -3,0 -4,2 -4,4 z"
     id="path38"
     class="ColorScheme-Text"
     transform="matrix(0.23462771,0,0,0.23463017,-1.6273297,-0.10232087)" />
  <path
     id="path32"
     style="display:inline;opacity:0.6;fill:url(#oomox);fill-opacity:1;filter:url(#filter4577)"
     class="ColorScheme-Text"
     d="M 23.000729 0.99992485 L 23.000729 44.000817 L 54.000724 44.000817 L 54.000724 0.99992485 L 23.000729 0.99992485 z M 38.426944 8.298888 C 38.517214 8.2967144 38.59512 8.3054265 38.700052 8.3165077 C 38.947253 8.3324477 39.127334 8.3957964 39.127334 8.3957964 C 39.776673 8.6061438 40.302211 9.1702276 40.457636 9.8362073 C 40.537784 10.162562 40.518343 10.504989 40.462041 10.833923 C 41.006408 10.722919 41.588636 10.840742 42.058844 11.133458 C 42.833602 11.578282 43.274342 12.511988 43.173302 13.393185 C 43.117639 14.054075 42.73849 14.663379 42.1976 15.040628 C 41.53216 15.527295 40.604851 15.586827 39.85856 15.256469 C 39.603475 15.1473 39.391049 14.966112 39.184599 14.785142 C 39.278705 15.096862 39.481816 15.359133 39.603071 15.65952 C 39.45897 15.826007 39.329061 16.006551 39.175789 16.166087 C 39.274925 16.207437 39.384414 16.207214 39.481935 16.251983 C 39.668315 16.363899 39.807585 16.57739 39.783675 16.800396 C 39.776856 17.135569 39.456222 17.435177 39.116322 17.381846 C 39.147819 17.972322 39.135051 18.56592 39.140549 19.157032 C 39.156319 23.253775 39.167408 27.349896 39.180194 31.446777 C 39.345094 31.460458 39.510373 31.470898 39.673551 31.440169 C 39.664643 30.880898 39.664458 30.320983 39.669146 29.761892 C 39.952275 29.755201 40.236799 29.745754 40.519306 29.766297 C 40.580083 29.907444 40.626156 30.054817 40.669075 30.202385 C 40.780528 30.234563 40.897856 30.228456 41.01046 30.211195 C 41.050093 30.059748 41.1162 29.917344 41.147014 29.764095 C 41.797959 29.761836 42.450212 29.726644 43.10062 29.755285 C 43.104711 30.249739 43.080519 30.745428 43.111632 31.239745 C 42.648469 31.265999 42.183262 31.255558 41.719661 31.246352 C 41.689869 31.468579 41.724204 31.692418 41.702041 31.915901 C 42.161286 31.94028 42.622944 31.906994 43.083 31.909294 C 43.115349 32.308398 43.106301 32.709394 43.09181 33.109636 C 42.633394 33.136658 42.173874 33.096925 41.715256 33.131661 C 41.708466 33.339052 41.717031 33.548978 41.710851 33.757161 C 42.169154 33.829572 42.637237 33.746729 43.098417 33.790197 C 43.118023 34.280931 43.096331 34.772411 43.111632 35.263645 C 42.464118 35.297443 41.815229 35.27686 41.166837 35.27686 C 41.122042 35.126811 41.058255 34.98324 41.02808 34.82976 C 40.91228 34.802355 40.792292 34.815881 40.675682 34.834165 C 40.640307 34.980326 40.586399 35.122158 40.539128 35.265848 C 40.429934 35.307871 40.313828 35.270041 40.199945 35.27686 C 40.024987 35.265353 39.849859 35.27756 39.675753 35.29448 C 39.666833 35.227336 39.664844 35.160526 39.666943 35.094056 C 39.687359 34.594438 39.664133 34.093955 39.680158 33.594178 C 39.525061 33.580497 39.369368 33.589758 39.213231 33.585368 C 39.175768 34.12861 39.209536 34.673559 39.204421 35.217394 C 39.121993 35.216104 39.041284 35.210888 38.957743 35.212989 C 38.901113 35.244702 38.936933 35.306465 38.97316 35.340732 C 39.083505 35.446489 39.205899 35.553352 39.255079 35.704138 C 39.386392 36.054885 39.190717 36.472763 38.860833 36.633578 C 38.523747 36.798716 38.074295 36.649178 37.896144 36.320828 C 37.794477 36.089085 37.765442 35.805247 37.900549 35.5808 C 37.972493 35.439655 38.180648 35.387155 38.173658 35.206381 C 38.078656 35.201736 37.982843 35.234498 37.887334 35.215191 C 37.854517 29.275565 37.922567 23.336569 37.88293 17.397264 C 37.424538 17.452534 37.080383 16.890693 37.290461 16.496456 C 37.396843 16.302743 37.616464 16.217248 37.819057 16.166087 C 37.684973 15.99137 37.543434 15.822726 37.39618 15.65952 C 37.538236 15.36868 37.722656 15.096294 37.823462 14.787345 C 37.650549 14.93421 37.480022 15.088778 37.277246 15.1948 C 36.693982 15.530614 35.968389 15.541898 35.339058 15.33796 C 34.871782 15.183867 34.473956 14.851829 34.20698 14.441558 C 33.811209 13.850926 33.708349 13.078335 33.922859 12.402077 L 33.925062 12.402077 C 34.11417 11.796144 34.581152 11.298775 35.143037 11.016728 C 35.573569 10.803635 36.06517 10.792817 36.535008 10.803089 C 36.28508 9.9010372 36.784256 8.8608896 37.631846 8.4706801 C 37.855435 8.3676713 37.855606 8.3795618 38.078951 8.3407348 C 38.23392 8.3138841 38.336673 8.3010582 38.426944 8.298888 z M 38.448969 9.2041004 C 38.046843 9.2177815 37.666333 9.4741518 37.495292 9.8384098 C 37.332221 10.162635 37.333211 10.570716 37.521722 10.88458 C 37.61813 11.060005 37.769511 11.195463 37.931384 11.309655 C 37.722159 11.598233 37.464383 11.846571 37.244208 12.126769 C 36.974506 11.882517 36.638214 11.699313 36.272912 11.659847 C 35.545941 11.569637 34.830011 12.140328 34.698134 12.849177 C 34.624827 13.205286 34.693439 13.589796 34.883143 13.899752 C 35.126933 14.297595 35.559438 14.583872 36.028436 14.617755 C 36.559736 14.671197 37.107303 14.400702 37.391775 13.950409 C 37.500245 13.784593 37.56926 13.595176 37.607619 13.401995 C 37.621262 13.358595 37.618256 13.283368 37.684706 13.287467 C 37.793431 13.278455 37.903241 13.312909 38.008471 13.274252 C 38.01067 13.15596 37.890579 13.100977 37.819057 13.027577 C 37.657359 12.893734 37.638106 12.649874 37.728755 12.470353 C 37.835179 12.236292 38.088732 12.108603 38.332237 12.07391 C 38.640383 12.025259 38.99441 12.099076 39.200016 12.349218 C 39.364933 12.539696 39.367157 12.858605 39.182396 13.036386 C 39.110197 13.101476 38.98497 13.151876 38.992983 13.267645 C 39.114025 13.317639 39.242825 13.276455 39.367405 13.276455 C 39.422471 13.59144 39.53157 13.907601 39.763853 14.137618 C 40.237448 14.680421 41.12962 14.774929 41.702041 14.33584 C 42.046161 14.081504 42.291901 13.682958 42.323142 13.252228 C 42.361501 12.884876 42.239277 12.51142 42.014794 12.221475 C 41.702768 11.825681 41.183569 11.596814 40.680087 11.655442 C 40.326933 11.68924 40.011337 11.881527 39.757245 12.120162 C 39.524708 11.85405 39.289845 11.590788 39.056855 11.325072 C 39.326002 11.10673 39.573352 10.819444 39.611881 10.461707 C 39.674448 9.844945 39.153396 9.2298856 38.53046 9.2041004 C 38.503609 9.2028201 38.475777 9.2031892 38.448969 9.2041004 z "
     transform="matrix(0.23462771,0,0,0.23463017,-1.6273295,-0.10232087)" />
  <metadata
     id="metadata3194">
    <rdf:RDF>
      <cc:Work
         rdf:about="">
        <dc:creator>
          <cc:Agent>
            <dc:title>dreifacherspass</dc:title>
          </cc:Agent>
        </dc:creator>
        <cc:license
           rdf:resource="http://creativecommons.org/licenses/by-sa/4.0/" />
      </cc:Work>
      <cc:License
         rdf:about="http://creativecommons.org/licenses/by-sa/4.0/">
        <cc:permits
           rdf:resource="http://creativecommons.org/ns#Reproduction" />
        <cc:permits
           rdf:resource="http://creativecommons.org/ns#Distribution" />
        <cc:requires
           rdf:resource="http://creativecommons.org/ns#Notice" />
        <cc:requires
           rdf:resource="http://creativecommons.org/ns#Attribution" />
        <cc:permits
           rdf:resource="http://creativecommons.org/ns#DerivativeWorks" />
        <cc:requires
           rdf:resource="http://creativecommons.org/ns#ShareAlike" />
      </cc:License>
    </rdf:RDF>
  </metadata>
</svg>
