<?xml version="1.0" encoding="UTF-8" standalone="no"?>
<svg
   width="16"
   height="16"
   version="1.1"
   id="svg9"
   xmlns:xlink="http://www.w3.org/1999/xlink"
   xmlns="http://www.w3.org/2000/svg"
   xmlns:svg="http://www.w3.org/2000/svg"
   xmlns:rdf="http://www.w3.org/1999/02/22-rdf-syntax-ns#"
   xmlns:cc="http://creativecommons.org/ns#"
   xmlns:dc="http://purl.org/dc/elements/1.1/">
  <defs>
   <style id="current-color-scheme" type="text/css">
   .ColorScheme-Text { color: #0abdc6; } .ColorScheme-Highlight { color:#5294e2; }
  </style>
  <linearGradient id="arrongin" x1="0%" x2="0%" y1="0%" y2="100%">
   <stop offset="0%" style="stop-color:#dd9b44; stop-opacity:1"/>
   <stop offset="100%" style="stop-color:#ad6c16; stop-opacity:1"/>
  </linearGradient>
  <linearGradient id="aurora" x1="0%" x2="0%" y1="0%" y2="100%">
   <stop offset="0%" style="stop-color:#09D4DF; stop-opacity:1"/>
   <stop offset="100%" style="stop-color:#9269F4; stop-opacity:1"/>
  </linearGradient>
  <linearGradient id="cyberneon" x1="0%" x2="0%" y1="0%" y2="100%">
    <stop offset="0" style="stop-color:#0abdc6; stop-opacity:1"/>
    <stop offset="1" style="stop-color:#ea00d9; stop-opacity:1"/>
  </linearGradient>
  <linearGradient id="fitdance" x1="0%" x2="0%" y1="0%" y2="100%">
   <stop offset="0%" style="stop-color:#1AD6AB; stop-opacity:1"/>
   <stop offset="100%" style="stop-color:#329DB6; stop-opacity:1"/>
  </linearGradient>
  <linearGradient id="oomox" x1="0%" x2="0%" y1="0%" y2="100%">
   <stop offset="0%" style="stop-color:#0abdc6; stop-opacity:1"/>
   <stop offset="100%" style="stop-color:#b800ff; stop-opacity:1"/>
  </linearGradient>
  <linearGradient id="rainblue" x1="0%" x2="0%" y1="0%" y2="100%">
   <stop offset="0%" style="stop-color:#00F260; stop-opacity:1"/>
   <stop offset="100%" style="stop-color:#0575E6; stop-opacity:1"/>
  </linearGradient>
  <linearGradient id="sunrise" x1="0%" x2="0%" y1="0%" y2="100%">
   <stop offset="0%" style="stop-color: #FF8501; stop-opacity:1"/>
   <stop offset="100%" style="stop-color: #FFCB01; stop-opacity:1"/>
  </linearGradient>
  <linearGradient id="telinkrin" x1="0%" x2="0%" y1="0%" y2="100%">
   <stop offset="0%" style="stop-color: #b2ced6; stop-opacity:1"/>
   <stop offset="100%" style="stop-color: #6da5b7; stop-opacity:1"/>
  </linearGradient>
  <linearGradient id="60spsycho" x1="0%" x2="0%" y1="0%" y2="100%">
   <stop offset="0%" style="stop-color: #df5940; stop-opacity:1"/>
   <stop offset="25%" style="stop-color: #d8d15f; stop-opacity:1"/>
   <stop offset="50%" style="stop-color: #e9882a; stop-opacity:1"/>
   <stop offset="100%" style="stop-color: #279362; stop-opacity:1"/>
  </linearGradient>
  <linearGradient id="90ssummer" x1="0%" x2="0%" y1="0%" y2="100%">
   <stop offset="0%" style="stop-color: #f618c7; stop-opacity:1"/>
   <stop offset="20%" style="stop-color: #94ffab; stop-opacity:1"/>
   <stop offset="50%" style="stop-color: #fbfd54; stop-opacity:1"/>
   <stop offset="100%" style="stop-color: #0f83ae; stop-opacity:1"/>
  </linearGradient>
 </defs>
  <path
     style="display:inline;opacity:0.3;fill:url(#oomox);stroke-width:0.3"
     d="M 8,4.1335936 C 5.8683252,4.1335936 4.1335936,5.8683252 4.1335936,8 c 0,2.131674 1.7347316,3.866406 3.8664064,3.866406 2.131675,0 3.866406,-1.734732 3.866406,-3.866406 C 11.866406,5.8683252 10.131675,4.1335936 8,4.1335936 Z M 8,5.2 c 1.5500156,0 2.8,1.249984 2.8,2.8 0,1.550016 -1.2499844,2.8 -2.8,2.8 C 6.4499844,10.8 5.2,9.550016 5.2,8 5.2,6.449984 6.4499844,5.2 8,5.2 Z"
     id="path6"
     class="ColorScheme-Text"/>
  <path
     id="path8"
     class="ColorScheme-Text"
     style="display:inline;opacity:0.6;fill:url(#oomox);stroke-width:0.6"
     d="M 8 3.1992188 C 5.3554754 3.1992188 3.1992187 5.3554758 3.1992188 8 C 3.1992188 10.644523 5.3554754 12.800781 8 12.800781 C 10.644524 12.800781 12.800781 10.644523 12.800781 8 C 12.800781 5.3554758 10.644524 3.1992188 8 3.1992188 z M 8 4.1347656 C 10.131673 4.1347656 11.867188 5.8683273 11.867188 8 C 11.867187 10.131671 10.131673 11.867188 8 11.867188 C 5.8683281 11.867187 4.1347656 10.131671 4.1347656 8 C 4.1347656 5.8683273 5.8683281 4.1347656 8 4.1347656 z " />
  <path
     style="display:inline;fill:url(#oomox);stroke-width:0.4;opacity:1"
     d="m 7.3335936,12.8 a 0.53338668,0.53338668 0 0 0 -0.5296872,0.599219 l 0.2671872,2.133593 A 0.53338668,0.53338668 0 0 0 7.6,16 H 8.4 A 0.53338668,0.53338668 0 0 0 8.9289064,15.532812 L 9.1960936,13.399219 A 0.53338668,0.53338668 0 0 0 8.6664064,12.8 Z"
     id="path27"
     class="ColorScheme-Text"/>
  <path
     style="display:inline;fill:url(#oomox);stroke-width:0.4;opacity:1"
     d="m 11.191406,11.754688 a 0.53338668,0.53338668 0 0 0 -0.214062,0.06875 l -1.1546876,0.666406 a 0.53338668,0.53338668 0 0 0 -0.158594,0.784375 l 1.2976566,1.714062 a 0.53338668,0.53338668 0 0 0 0.692187,0.139844 l 0.692188,-0.4 a 0.53338668,0.53338668 0 0 0 0.225,-0.669531 l -0.835156,-1.980469 a 0.53338668,0.53338668 0 0 0 -0.321876,-0.298437 0.53338668,0.53338668 0 0 0 -0.222656,-0.025 z"
     id="path26"
     class="ColorScheme-Text"/>
  <path
     style="display:inline;fill:url(#oomox);stroke-width:0.4;opacity:1"
     d="m 4.8085936,11.754688 a 0.53338668,0.53338668 0 0 0 -0.222656,0.025 0.53338668,0.53338668 0 0 0 -0.3218752,0.298437 l -0.835156,1.980469 a 0.53338668,0.53338668 0 0 0 0.225,0.669531 l 0.6921872,0.4 A 0.53338668,0.53338668 0 0 0 5.0382812,14.988281 L 6.3359376,13.274219 A 0.53338668,0.53338668 0 0 0 6.1773436,12.489844 L 5.0218752,11.823438 a 0.53338668,0.53338668 0 0 0 -0.2132816,-0.06875 z"
     id="path25"
     class="ColorScheme-Text"/>
  <path
     style="display:inline;fill:url(#oomox);stroke-width:0.4;opacity:1"
     d="m 12.958594,9.5554688 a 0.53338668,0.53338668 0 0 0 -0.1125,0.010936 0.53338668,0.53338668 0 0 0 -0.35625,0.25625 l -0.666406,1.1546872 a 0.53338668,0.53338668 0 0 0 0.254687,0.758594 l 1.980469,0.835156 a 0.53338668,0.53338668 0 0 0 0.669531,-0.225 l 0.4,-0.692187 A 0.53338668,0.53338668 0 0 0 14.988281,10.961717 L 13.274219,9.6640608 A 0.53338668,0.53338668 0 0 0 12.958594,9.5554672 Z"
     id="path24"
     class="ColorScheme-Text"/>
  <path
     style="display:inline;fill:url(#oomox);stroke-width:0.4;opacity:1"
     d="M 3.0414064,9.5554688 A 0.53338668,0.53338668 0 0 0 2.7257812,9.6640624 L 1.0117188,10.961719 A 0.53338668,0.53338668 0 0 0 0.871875,11.653906 l 0.4,0.692188 a 0.53338668,0.53338668 0 0 0 0.6695312,0.225 l 1.980469,-0.835156 A 0.53338668,0.53338668 0 0 0 4.1765624,10.977344 L 3.5101564,9.8226564 a 0.53338668,0.53338668 0 0 0 -0.35625,-0.25625 0.53338668,0.53338668 0 0 0 -0.1125,-0.010936 z"
     id="path23"
     class="ColorScheme-Text"/>
  <path
     style="display:inline;fill:url(#oomox);stroke-width:0.4;opacity:1"
     d="M 13.270312,6.8039064 A 0.53338668,0.53338668 0 0 0 12.8,7.3335936 v 1.3328128 a 0.53338668,0.53338668 0 0 0 0.599219,0.5296872 L 15.532812,8.9289064 A 0.53338668,0.53338668 0 0 0 16,8.4 V 7.6 A 0.53338668,0.53338668 0 0 0 15.532812,7.0710936 L 13.399219,6.8039064 a 0.53338668,0.53338668 0 0 0 -0.128907,0 z"
     id="path22"
     class="ColorScheme-Text"/>
  <path
     style="display:inline;fill:url(#oomox);stroke-width:0.4;opacity:1"
     d="M 2.6007812,6.8039064 0.46718752,7.0710936 A 0.53338668,0.53338668 0 0 0 0,7.6 V 8.4 A 0.53338668,0.53338668 0 0 0 0.46718752,8.9289064 L 2.6007812,9.1960936 A 0.53338668,0.53338668 0 0 0 3.2,8.6664064 V 7.3335936 A 0.53338668,0.53338668 0 0 0 2.6007812,6.8039064 Z"
     id="path21"
     class="ColorScheme-Text"/>
  <path
     style="display:inline;fill:url(#oomox);stroke-width:0.4;opacity:1"
     d="m 14.310156,3.3890624 a 0.53338668,0.53338668 0 0 0 -0.251562,0.039844 l -1.980469,0.835156 a 0.53338668,0.53338668 0 0 0 -0.254687,0.758594 l 0.666406,1.1546872 a 0.53338668,0.53338668 0 0 0 0.784375,0.158594 l 1.714062,-1.2976564 a 0.53338668,0.53338668 0 0 0 0.139844,-0.6921876 l -0.4,-0.6921872 a 0.53338668,0.53338668 0 0 0 -0.292187,-0.2390628 0.53338668,0.53338668 0 0 0 -0.125782,-0.02578 z"
     id="path20"
     class="ColorScheme-Text"/>
  <path
     style="display:inline;fill:url(#oomox);stroke-width:0.4;opacity:1"
     d="M 1.6898438,3.3890624 A 0.53338668,0.53338668 0 0 0 1.5640625,3.4148424 0.53338668,0.53338668 0 0 0 1.271875,3.6539052 l -0.4,0.6921872 A 0.53338668,0.53338668 0 0 0 1.0117188,5.03828 L 2.7257812,6.3359364 A 0.53338668,0.53338668 0 0 0 3.5101564,6.1773424 L 4.1765624,5.0226552 A 0.53338668,0.53338668 0 0 0 3.9218752,4.2640612 L 1.9414062,3.4289052 A 0.53338668,0.53338668 0 0 0 1.6898438,3.3890612 Z"
     id="path19"
     class="ColorScheme-Text"/>
  <path
     style="display:inline;fill:url(#oomox);stroke-width:0.4;opacity:1"
     d="M 11.409375,0.80078124 A 0.53338668,0.53338668 0 0 0 11.28125,0.81093764 0.53338668,0.53338668 0 0 0 10.961719,1.0117189 L 9.6640624,2.7257812 a 0.53338668,0.53338668 0 0 0 0.158594,0.7843752 l 1.1546876,0.666406 a 0.53338668,0.53338668 0 0 0 0.758594,-0.2546872 l 0.835156,-1.9804688 a 0.53338668,0.53338668 0 0 0 -0.225,-0.6695313 L 11.653906,0.87187512 a 0.53338668,0.53338668 0 0 0 -0.244531,-0.0710939 z"
     id="path18"
     class="ColorScheme-Text"/>
  <path
     style="display:inline;fill:url(#oomox);stroke-width:0.4;opacity:1"
     d="M 4.5906248,0.80078124 A 0.53338668,0.53338668 0 0 0 4.3460936,0.871875 l -0.6921872,0.4 a 0.53338668,0.53338668 0 0 0 -0.225,0.6695312 l 0.835156,1.980469 a 0.53338668,0.53338668 0 0 0 0.758594,0.2546872 L 6.1773436,3.5101564 A 0.53338668,0.53338668 0 0 0 6.3359376,2.7257812 L 5.0382812,1.0117188 A 0.53338668,0.53338668 0 0 0 4.71875,0.81093752 0.53338668,0.53338668 0 0 0 4.5906248,0.80078124 Z"
     id="path17"
     class="ColorScheme-Text"/>
  <path
     style="display:inline;fill:url(#oomox);stroke-width:0.4;opacity:1"
     d="M 7.6,0 A 0.53338668,0.53338668 0 0 0 7.0710936,0.46718752 L 6.8039064,2.6007812 A 0.53338668,0.53338668 0 0 0 7.3335936,3.2 H 8.6664064 A 0.53338668,0.53338668 0 0 0 9.1960936,2.6007812 L 8.9289064,0.46718752 A 0.53338668,0.53338668 0 0 0 8.4,0 Z"
     id="path3"
     class="ColorScheme-Text"/>
  <path
     id="path7"
     class="ColorScheme-Text"
     style="display:inline;fill:url(#oomox);stroke-width:0.4;opacity:1"
     d="M 8,1.5996094 C 4.4810947,1.5996094 1.5996094,4.4810947 1.5996094,8 c 0,3.518905 2.8814853,6.400391 6.4003906,6.400391 3.518905,0 6.400391,-2.881486 6.400391,-6.400391 C 14.400391,4.4810947 11.518905,1.5996094 8,1.5996094 Z m 0,1.5996094 c 2.644524,0 4.800781,2.156257 4.800781,4.8007812 0,2.644523 -2.156257,4.800781 -4.800781,4.800781 C 5.3554754,12.800781 3.1992188,10.644523 3.1992188,8 3.1992187,5.3554758 5.3554754,3.1992188 8,3.1992188 Z" />
  <metadata
     id="metadata9">
    <rdf:RDF>
      <cc:Work
         rdf:about="">
        <dc:creator>
          <cc:Agent>
            <dc:title>dreifacherspass</dc:title>
          </cc:Agent>
        </dc:creator>
        <cc:license
           rdf:resource="http://creativecommons.org/licenses/by-sa/4.0/" />
      </cc:Work>
      <cc:License
         rdf:about="http://creativecommons.org/licenses/by-sa/4.0/">
        <cc:permits
           rdf:resource="http://creativecommons.org/ns#Reproduction" />
        <cc:permits
           rdf:resource="http://creativecommons.org/ns#Distribution" />
        <cc:requires
           rdf:resource="http://creativecommons.org/ns#Notice" />
        <cc:requires
           rdf:resource="http://creativecommons.org/ns#Attribution" />
        <cc:permits
           rdf:resource="http://creativecommons.org/ns#DerivativeWorks" />
        <cc:requires
           rdf:resource="http://creativecommons.org/ns#ShareAlike" />
      </cc:License>
    </rdf:RDF>
  </metadata>
</svg>
