<?xml version="1.0" encoding="UTF-8" standalone="no"?>
<svg
   width="48"
   height="48"
   viewBox="0 0 30.72 30.72"
   version="1.1"
   id="svg4"
   xmlns="http://www.w3.org/2000/svg"
   xmlns:svg="http://www.w3.org/2000/svg"
   xmlns:rdf="http://www.w3.org/1999/02/22-rdf-syntax-ns#"
   xmlns:cc="http://creativecommons.org/ns#"
   xmlns:dc="http://purl.org/dc/elements/1.1/"
   xmlns:sketch="http://www.bohemiancoding.com/sketch/ns">
  <defs
     id="defs13870">
    <style
       id="current-color-scheme"
       type="text/css">
   .ColorScheme-Text { color: #0abdc6; } .ColorScheme-Highlight { color:#5294e2; }
  </style>
    <linearGradient
       id="arrongin"
       x1="0%"
       x2="0%"
       y1="0%"
       y2="100%">
      <stop
         offset="0%"
         style="stop-color:#dd9b44; stop-opacity:1"
         id="stop13812" />
      <stop
         offset="100%"
         style="stop-color:#ad6c16; stop-opacity:1"
         id="stop13814" />
    </linearGradient>
    <linearGradient
       id="aurora"
       x1="0%"
       x2="0%"
       y1="0%"
       y2="100%">
      <stop
         offset="0%"
         style="stop-color:#09D4DF; stop-opacity:1"
         id="stop13817" />
      <stop
         offset="100%"
         style="stop-color:#9269F4; stop-opacity:1"
         id="stop13819" />
    </linearGradient>
    <linearGradient
       id="cyberneon"
       x1="0%"
       x2="0%"
       y1="0%"
       y2="100%">
      <stop
         offset="0"
         style="stop-color:#0abdc6; stop-opacity:1"
         id="stop13822" />
      <stop
         offset="1"
         style="stop-color:#ea00d9; stop-opacity:1"
         id="stop13824" />
    </linearGradient>
    <linearGradient
       id="fitdance"
       x1="0%"
       x2="0%"
       y1="0%"
       y2="100%">
      <stop
         offset="0%"
         style="stop-color:#1AD6AB; stop-opacity:1"
         id="stop13827" />
      <stop
         offset="100%"
         style="stop-color:#329DB6; stop-opacity:1"
         id="stop13829" />
    </linearGradient>
    <linearGradient
       id="oomox"
       x1="0%"
       x2="0%"
       y1="0%"
       y2="100%">
      <stop
         offset="0%"
         style="stop-color:#0abdc6; stop-opacity:1"
         id="stop13832" />
      <stop
         offset="100%"
         style="stop-color:#b800ff; stop-opacity:1"
         id="stop13834" />
    </linearGradient>
    <linearGradient
       id="rainblue"
       x1="0%"
       x2="0%"
       y1="0%"
       y2="100%">
      <stop
         offset="0%"
         style="stop-color:#00F260; stop-opacity:1"
         id="stop13837" />
      <stop
         offset="100%"
         style="stop-color:#0575E6; stop-opacity:1"
         id="stop13839" />
    </linearGradient>
    <linearGradient
       id="sunrise"
       x1="0%"
       x2="0%"
       y1="0%"
       y2="100%">
      <stop
         offset="0%"
         style="stop-color: #FF8501; stop-opacity:1"
         id="stop13842" />
      <stop
         offset="100%"
         style="stop-color: #FFCB01; stop-opacity:1"
         id="stop13844" />
    </linearGradient>
    <linearGradient
       id="telinkrin"
       x1="0%"
       x2="0%"
       y1="0%"
       y2="100%">
      <stop
         offset="0%"
         style="stop-color: #b2ced6; stop-opacity:1"
         id="stop13847" />
      <stop
         offset="100%"
         style="stop-color: #6da5b7; stop-opacity:1"
         id="stop13849" />
    </linearGradient>
    <linearGradient
       id="60spsycho"
       x1="0%"
       x2="0%"
       y1="0%"
       y2="100%">
      <stop
         offset="0%"
         style="stop-color: #df5940; stop-opacity:1"
         id="stop13852" />
      <stop
         offset="25%"
         style="stop-color: #d8d15f; stop-opacity:1"
         id="stop13854" />
      <stop
         offset="50%"
         style="stop-color: #e9882a; stop-opacity:1"
         id="stop13856" />
      <stop
         offset="100%"
         style="stop-color: #279362; stop-opacity:1"
         id="stop13858" />
    </linearGradient>
    <linearGradient
       id="90ssummer"
       x1="0%"
       x2="0%"
       y1="0%"
       y2="100%">
      <stop
         offset="0%"
         style="stop-color: #f618c7; stop-opacity:1"
         id="stop13861" />
      <stop
         offset="20%"
         style="stop-color: #94ffab; stop-opacity:1"
         id="stop13863" />
      <stop
         offset="50%"
         style="stop-color: #fbfd54; stop-opacity:1"
         id="stop13865" />
      <stop
         offset="100%"
         style="stop-color: #0f83ae; stop-opacity:1"
         id="stop13867" />
    </linearGradient>
  </defs>
  <path
     d="m 118,333 c 3.866,0 7,-3.134 7,-7 v -10 c 0,-3.866 -3.134,-7 -7,-7 -3.866,0 -7,3.134 -7,7 v 10 c 0,3.866 3.134,7 7,7 z m 11,-5 h -2 c -0.911,4.007 -4.718,7 -9,7 -4.282,0 -8.089,-2.993 -9,-7 h -2 c 0.883,4.799 5.063,8.51 10,8.955 V 339 h -1 c -0.552,0 -1,0.448 -1,1 0,0.553 0.448,1 1,1 h 4 c 0.552,0 1,-0.447 1,-1 0,-0.552 -0.448,-1 -1,-1 h -1 v -2.045 c 4.937,-0.445 9.117,-4.156 10,-8.955 z"
     id="path_mike"
     class="ColorScheme-Text"
     style="fill-opacity:1;fill:url(#oomox)"
     transform="matrix(0.44007971,0,0,0.44007971,-26.331424,-125.53013)" />
  <path
     d="M 15.954415,10.634651 13.513152,7.1081843 A 1.9976883,1.9976883 0 0 0 11.902414,6.2494151 L 7.2695184,6.1829501 h -0.00955 c -2.3918671,0 -4.2270485,0.4000776 -5.4090038,2.3526113 C 0.75055008,10.353047 0.28114119,13.449028 0.28114119,18.887526 v 0.66465 H 1.7997415 L 0.82216635,24.53705 H 2.1768058 L 3.154381,19.552176 h 0.4500095 a 4.1341637,4.1341637 0 0 0 2.911499,-1.1628 c 0.7053153,-0.67488 1.2140622,-1.598152 1.4713268,-2.669987 l 0.00276,-0.0097 1.1399909,-5.462674 H 7.7716615 L 6.6924103,15.418381 C 6.3637411,16.775923 5.3809319,18.222864 3.6044055,18.222864 H 1.6129333 C 1.6490323,13.517732 2.0774406,10.728159 2.9881354,9.2237649 3.7524829,7.96093 4.8697177,7.5126651 7.2553552,7.512042 l 4.6279548,0.066465 a 0.66572993,0.66572993 0 0 1 0.536908,0.2862563 l 2.761541,3.9886886 3.709579,0.618291 v 0.70449 l -0.618623,3.299195 c -0.182571,0.973754 -0.494666,1.464265 -1.774533,1.618008 l -5.246828,0.897651 -0.03468,5.545963 h 1.329297 l 0.02771,-4.423787 4.100059,-0.70204 c 0.928844,-0.11419 1.614141,-0.413534 2.094727,-0.91485 0.410833,-0.428611 0.660869,-0.976198 0.810831,-1.775939 l 0.641346,-3.420663 V 11.34566 Z"
     class="ColorScheme-Text"
     id="path_doggie"
     style="stroke-width:1.0742848;fill:url(#oomox);fill-opacity:1;font-variation-settings:normal;opacity:1;vector-effect:none;stroke-linecap:butt;stroke-linejoin:miter;stroke-miterlimit:4;stroke-dasharray:none;stroke-dashoffset:0;stroke-opacity:1;-inkscape-stroke:none;stop-color:#000000;stop-opacity:1" />
  <metadata
     id="metadata133">
    <rdf:RDF>
      <cc:Work
         rdf:about="">
        <dc:creator>
          <cc:Agent>
            <dc:title>dreifacherspass</dc:title>
          </cc:Agent>
        </dc:creator>
        <cc:license
           rdf:resource="http://creativecommons.org/licenses/by-sa/4.0/" />
      </cc:Work>
      <cc:License
         rdf:about="http://creativecommons.org/licenses/by-sa/4.0/">
        <cc:permits
           rdf:resource="http://creativecommons.org/ns#Reproduction" />
        <cc:permits
           rdf:resource="http://creativecommons.org/ns#Distribution" />
        <cc:requires
           rdf:resource="http://creativecommons.org/ns#Notice" />
        <cc:requires
           rdf:resource="http://creativecommons.org/ns#Attribution" />
        <cc:permits
           rdf:resource="http://creativecommons.org/ns#DerivativeWorks" />
        <cc:requires
           rdf:resource="http://creativecommons.org/ns#ShareAlike" />
      </cc:License>
    </rdf:RDF>
  </metadata>
</svg>
