<?xml version="1.0" encoding="UTF-8" standalone="no"?>
<svg
   width="48"
   height="48"
   viewBox="0 0 12.7 12.7"
   version="1.1"
   id="svg94"
   xmlns="http://www.w3.org/2000/svg"
   xmlns:svg="http://www.w3.org/2000/svg"
   xmlns:rdf="http://www.w3.org/1999/02/22-rdf-syntax-ns#"
   xmlns:cc="http://creativecommons.org/ns#"
   xmlns:dc="http://purl.org/dc/elements/1.1/">
  <defs
     id="defs2303">
    <style
       id="current-color-scheme"
       type="text/css">
   .ColorScheme-Text { color: #0abdc6; } .ColorScheme-Highlight { color:#5294e2; }
  </style>
    <linearGradient
       id="arrongin"
       x1="0%"
       x2="0%"
       y1="0%"
       y2="100%">
      <stop
         offset="0%"
         style="stop-color:#dd9b44; stop-opacity:1"
         id="stop2245" />
      <stop
         offset="100%"
         style="stop-color:#ad6c16; stop-opacity:1"
         id="stop2247" />
    </linearGradient>
    <linearGradient
       id="aurora"
       x1="0%"
       x2="0%"
       y1="0%"
       y2="100%">
      <stop
         offset="0%"
         style="stop-color:#09D4DF; stop-opacity:1"
         id="stop2250" />
      <stop
         offset="100%"
         style="stop-color:#9269F4; stop-opacity:1"
         id="stop2252" />
    </linearGradient>
    <linearGradient
       id="cyberneon"
       x1="0%"
       x2="0%"
       y1="0%"
       y2="100%">
      <stop
         offset="0"
         style="stop-color:#0abdc6; stop-opacity:1"
         id="stop2255" />
      <stop
         offset="1"
         style="stop-color:#ea00d9; stop-opacity:1"
         id="stop2257" />
    </linearGradient>
    <linearGradient
       id="fitdance"
       x1="0%"
       x2="0%"
       y1="0%"
       y2="100%">
      <stop
         offset="0%"
         style="stop-color:#1AD6AB; stop-opacity:1"
         id="stop2260" />
      <stop
         offset="100%"
         style="stop-color:#329DB6; stop-opacity:1"
         id="stop2262" />
    </linearGradient>
    <linearGradient
       id="oomox"
       x1="0%"
       x2="0%"
       y1="0%"
       y2="100%">
      <stop
         offset="0%"
         style="stop-color:#0abdc6; stop-opacity:1"
         id="stop2265" />
      <stop
         offset="100%"
         style="stop-color:#b800ff; stop-opacity:1"
         id="stop2267" />
    </linearGradient>
    <linearGradient
       id="rainblue"
       x1="0%"
       x2="0%"
       y1="0%"
       y2="100%">
      <stop
         offset="0%"
         style="stop-color:#00F260; stop-opacity:1"
         id="stop2270" />
      <stop
         offset="100%"
         style="stop-color:#0575E6; stop-opacity:1"
         id="stop2272" />
    </linearGradient>
    <linearGradient
       id="sunrise"
       x1="0%"
       x2="0%"
       y1="0%"
       y2="100%">
      <stop
         offset="0%"
         style="stop-color: #FF8501; stop-opacity:1"
         id="stop2275" />
      <stop
         offset="100%"
         style="stop-color: #FFCB01; stop-opacity:1"
         id="stop2277" />
    </linearGradient>
    <linearGradient
       id="telinkrin"
       x1="0%"
       x2="0%"
       y1="0%"
       y2="100%">
      <stop
         offset="0%"
         style="stop-color: #b2ced6; stop-opacity:1"
         id="stop2280" />
      <stop
         offset="100%"
         style="stop-color: #6da5b7; stop-opacity:1"
         id="stop2282" />
    </linearGradient>
    <linearGradient
       id="60spsycho"
       x1="0%"
       x2="0%"
       y1="0%"
       y2="100%">
      <stop
         offset="0%"
         style="stop-color: #df5940; stop-opacity:1"
         id="stop2285" />
      <stop
         offset="25%"
         style="stop-color: #d8d15f; stop-opacity:1"
         id="stop2287" />
      <stop
         offset="50%"
         style="stop-color: #e9882a; stop-opacity:1"
         id="stop2289" />
      <stop
         offset="100%"
         style="stop-color: #279362; stop-opacity:1"
         id="stop2291" />
    </linearGradient>
    <linearGradient
       id="90ssummer"
       x1="0%"
       x2="0%"
       y1="0%"
       y2="100%">
      <stop
         offset="0%"
         style="stop-color: #f618c7; stop-opacity:1"
         id="stop2294" />
      <stop
         offset="20%"
         style="stop-color: #94ffab; stop-opacity:1"
         id="stop2296" />
      <stop
         offset="50%"
         style="stop-color: #fbfd54; stop-opacity:1"
         id="stop2298" />
      <stop
         offset="100%"
         style="stop-color: #0f83ae; stop-opacity:1"
         id="stop2300" />
    </linearGradient>
  </defs>
  <path
     d="m 5.2197554,0.13229183 v 0.3232068 H 6.1885363 V 1.4251191 H 4.5737345 V 1.748326 H 3.9278807 L 4.5737345,3.6877337 H 2.9590996 l 0.9687811,2.2626146 h 0.9689477 v 2.8371432 3.7802165 h 2.90651 V 8.7885254 5.9503483 H 8.7721193 L 9.7409004,3.6877337 H 8.1262648 L 8.7721193,1.748326 H 8.1262648 V 1.4251191 H 6.5114637 V 0.45549863 h 0.9689474 v -0.3232068 z"
     id="path747"
     class="ColorScheme-Text"
     style="stroke-width:0.0854833;fill-opacity:1;fill:url(#oomox);opacity:0.5" />
  <path
     d="M 2.4239043,5.4991653 C 1.9995169,5.5140708 1.579499,5.6116302 1.2046545,5.8460806 0.63777796,6.2006415 -0.25180328,6.1907529 0.3127667,6.8515043 1.1839147,7.871071 2.526794,8.0940117 3.7560592,8.4731759 c 2.0396153,0.4397048 4.0288345,1.075109 6.0413727,1.6210411 0.7239501,0.237464 1.7622461,0.319117 2.7702761,0.331146 V 8.1369833 C 9.6126838,7.2478515 5.8918851,6.1874087 3.6696457,5.6473929 3.2770188,5.5519818 2.8482918,5.48426 2.4239043,5.4991653 Z"
     stroke-width="0.520862"
     id="path737"
     class="ColorScheme-Text"
     style="display:inline;fill:url(#oomox);stroke-width:0.52096458;stroke-dasharray:none;fill-opacity:1.0" />
  <path
     d="M 2.4239043,5.4990422 C 1.9995169,5.5139482 1.579499,5.6115071 1.2046545,5.8459575 0.63777801,6.2005184 -0.25180329,6.1906298 0.31276671,6.8513812 1.1839147,7.8709479 2.526794,8.0938886 3.7560592,8.4730528 c 2.0396153,0.4397048 4.0288345,1.075109 6.0413727,1.6210412 0.7239501,0.237464 1.7622461,0.319117 2.7702761,0.331146 V 8.1368602 C 9.6126838,7.2477284 5.8918851,6.1872856 3.6696457,5.6472698 3.2770188,5.5518588 2.8482918,5.4841369 2.4239043,5.4990422 Z"
     stroke-width="0.520862"
     id="path777"
     class="ColorScheme-Text"
     style="color:#0abdc6;display:inline;fill:#000001;fill-opacity:0.19642857;stroke-width:0.520965;stroke-dasharray:none" />
  <path
     d="M 5.3363452,8.262112 C 5.2374013,8.235122 5.1308824,8.3153027 5.0975787,8.4418344 L 4.9421876,9.0322177 c -0.033304,0.1265319 0.019565,0.2501895 0.1185079,0.2771793 l 1.6279462,0.4440715 c 0.083937,0.022897 0.172735,-0.031857 0.2182383,-0.1260777 0.1486868,0.00895 0.2974057,0.01788 0.4460866,0.026832 C 7.4001473,9.4987001 7.4473205,9.3432056 7.4945011,9.1876834 7.3602886,9.0941414 7.2260193,9.0005798 7.091807,8.9070373 7.0915641,8.8106743 7.0431747,8.7279739 6.9647628,8.7063122 6.964643,8.7062782 6.9644069,8.706215 6.9643179,8.7061907 Z"
     stroke-width="0.520862"
     id="path727"
     class="ColorScheme-Text"
     style="fill:url(#oomox);fill-opacity:1.0" />
  <path
     d="M 5.0384528,8.1808248 8.0160421,8.3736 10.415197,8.5223796 11.979139,7.4803132 12.2767,7.5614819 11.294139,8.8420279 9.8906535,9.051702 8.0989355,9.015664 Z"
     opacity="0.99"
     stroke-width="0.520862"
     id="path717"
     class="ColorScheme-Text"
     style="fill:url(#oomox);fill-opacity:1.0" />
  <metadata
     id="metadata2981">
    <rdf:RDF>
      <cc:Work
         rdf:about="">
        <dc:creator>
          <cc:Agent>
            <dc:title>dreifacherspass</dc:title>
          </cc:Agent>
        </dc:creator>
        <cc:license
           rdf:resource="http://creativecommons.org/licenses/by-sa/4.0/" />
      </cc:Work>
      <cc:License
         rdf:about="http://creativecommons.org/licenses/by-sa/4.0/">
        <cc:permits
           rdf:resource="http://creativecommons.org/ns#Reproduction" />
        <cc:permits
           rdf:resource="http://creativecommons.org/ns#Distribution" />
        <cc:requires
           rdf:resource="http://creativecommons.org/ns#Notice" />
        <cc:requires
           rdf:resource="http://creativecommons.org/ns#Attribution" />
        <cc:permits
           rdf:resource="http://creativecommons.org/ns#DerivativeWorks" />
        <cc:requires
           rdf:resource="http://creativecommons.org/ns#ShareAlike" />
      </cc:License>
    </rdf:RDF>
  </metadata>
</svg>
