<?xml version="1.0" encoding="UTF-8" standalone="no"?>
<!-- Created with Inkscape (http://www.inkscape.org/) -->

<svg
   width="16"
   height="16"
   viewBox="0 0 16 16.000001"
   id="svg2"
   version="1.1"
   xml:space="preserve"
   xmlns="http://www.w3.org/2000/svg"
   xmlns:svg="http://www.w3.org/2000/svg"
   xmlns:rdf="http://www.w3.org/1999/02/22-rdf-syntax-ns#"
   xmlns:cc="http://creativecommons.org/ns#"
   xmlns:dc="http://purl.org/dc/elements/1.1/">
      <defs>
            <style id="current-color-scheme" type="text/css">
                  .ColorScheme-Text { color: #0abdc6; } .ColorScheme-Highlight { color:#5294e2; }
            </style>
            <linearGradient id="arrongin" x1="0%" x2="0%" y1="0%" y2="100%">
                  <stop offset="0%" style="stop-color:#dd9b44; stop-opacity:1"/>
                  <stop offset="100%" style="stop-color:#ad6c16; stop-opacity:1"/>
            </linearGradient>
            <linearGradient id="aurora" x1="0%" x2="0%" y1="0%" y2="100%">
                  <stop offset="0%" style="stop-color:#09D4DF; stop-opacity:1"/>
                  <stop offset="100%" style="stop-color:#9269F4; stop-opacity:1"/>
            </linearGradient>
            <linearGradient id="cyberneon" x1="0%" x2="0%" y1="0%" y2="100%">
                  <stop offset="0" style="stop-color:#0abdc6; stop-opacity:1"/>
                  <stop offset="1" style="stop-color:#ea00d9; stop-opacity:1"/>
            </linearGradient>
            <linearGradient id="fitdance" x1="0%" x2="0%" y1="0%" y2="100%">
                  <stop offset="0%" style="stop-color:#1AD6AB; stop-opacity:1"/>
                  <stop offset="100%" style="stop-color:#329DB6; stop-opacity:1"/>
            </linearGradient>
            <linearGradient id="oomox" x1="0%" x2="0%" y1="0%" y2="100%">
                  <stop offset="0%" style="stop-color:#0abdc6; stop-opacity:1"/>
                  <stop offset="100%" style="stop-color:#b800ff; stop-opacity:1"/>
            </linearGradient>
            <linearGradient id="rainblue" x1="0%" x2="0%" y1="0%" y2="100%">
                  <stop offset="0%" style="stop-color:#00F260; stop-opacity:1"/>
                  <stop offset="100%" style="stop-color:#0575E6; stop-opacity:1"/>
            </linearGradient>
            <linearGradient id="sunrise" x1="0%" x2="0%" y1="0%" y2="100%">
                  <stop offset="0%" style="stop-color: #FF8501; stop-opacity:1"/>
                  <stop offset="100%" style="stop-color: #FFCB01; stop-opacity:1"/>
            </linearGradient>
            <linearGradient id="telinkrin" x1="0%" x2="0%" y1="0%" y2="100%">
                  <stop offset="0%" style="stop-color: #b2ced6; stop-opacity:1"/>
                  <stop offset="100%" style="stop-color: #6da5b7; stop-opacity:1"/>
            </linearGradient>
            <linearGradient id="60spsycho" x1="0%" x2="0%" y1="0%" y2="100%">
                  <stop offset="0%" style="stop-color: #df5940; stop-opacity:1"/>
                  <stop offset="25%" style="stop-color: #d8d15f; stop-opacity:1"/>
                  <stop offset="50%" style="stop-color: #e9882a; stop-opacity:1"/>
                  <stop offset="100%" style="stop-color: #279362; stop-opacity:1"/>
            </linearGradient>
            <linearGradient id="90ssummer" x1="0%" x2="0%" y1="0%" y2="100%">
                  <stop offset="0%" style="stop-color: #f618c7; stop-opacity:1"/>
                  <stop offset="20%" style="stop-color: #94ffab; stop-opacity:1"/>
                  <stop offset="50%" style="stop-color: #fbfd54; stop-opacity:1"/>
                  <stop offset="100%" style="stop-color: #0f83ae; stop-opacity:1"/>
            </linearGradient>
      </defs>
    <metadata
   id="metadata7"><rdf:RDF><cc:Work
       rdf:about=""><dc:format>image/svg+xml</dc:format><dc:type
         rdf:resource="http://purl.org/dc/dcmitype/StillImage" /><dc:creator><cc:Agent><dc:title>dreifacherspass</dc:title></cc:Agent></dc:creator><cc:license
         rdf:resource="http://creativecommons.org/licenses/by-sa/4.0/" /></cc:Work><cc:License
       rdf:about="http://creativecommons.org/licenses/by-sa/4.0/"><cc:permits
         rdf:resource="http://creativecommons.org/ns#Reproduction" /><cc:permits
         rdf:resource="http://creativecommons.org/ns#Distribution" /><cc:requires
         rdf:resource="http://creativecommons.org/ns#Notice" /><cc:requires
         rdf:resource="http://creativecommons.org/ns#Attribution" /><cc:permits
         rdf:resource="http://creativecommons.org/ns#DerivativeWorks" /><cc:requires
         rdf:resource="http://creativecommons.org/ns#ShareAlike" /></cc:License></rdf:RDF></metadata>
<path
   id="path194"
   style="display:inline;fill:url(#oomox);fill-opacity:1;stroke-width:0.296785"
   class="ColorScheme-Text"
   d="M 0.59179688 1.3105469 C 0.26351049 1.3105469 0 1.576871 0 1.90625 L 0 2.203125 L 0 4.2832031 L 0 4.8789062 L 0.59179688 4.8789062 L 15.408203 4.8789062 L 16 4.8789062 L 16 4.2832031 L 16 2.203125 L 16 1.90625 C 16 1.576871 15.73649 1.3105469 15.408203 1.3105469 L 11.693359 1.3105469 L 11.693359 3.296875 C 11.693359 3.785308 11.301278 4.1777344 10.814453 4.1777344 C 10.327628 4.1777344 9.9355469 3.785308 9.9355469 3.296875 L 9.9355469 1.3105469 L 6.0625 1.3105469 L 6.0625 3.296875 C 6.0625 3.7853075 5.6722349 4.1777344 5.1855469 4.1777344 C 4.6988589 4.1777344 4.3066406 3.7853075 4.3066406 3.296875 L 4.3066406 1.3105469 L 0.59179688 1.3105469 z " />
<path
   id="path194-3"
   class="ColorScheme-Text"
   style="display:inline;opacity:0.7;fill:url(#oomox);fill-opacity:1;stroke-width:0.296785"
   d="M 0,4.8782844 V 8.4457812 H 0.59242017 15.40758 16 c 0,-1.2730685 -1.48e-4,-2.4935357 -1.48e-4,-3.5674968 z" />
<path
   id="path194-9"
   class="ColorScheme-Text"
   style="display:inline;opacity:0.5;fill:url(#oomox);fill-opacity:1;stroke-width:0.296785"
   d="m 8,16 c 0,0 5.680454,-0.920114 6,-1 l 2,-0.5 V 12.013278 H 0 V 14.5 L 2,15 c -0.046361,-0.01159 6,1 6,1 z" />
<path
   id="path194-3-9"
   class="ColorScheme-Text"
   style="display:inline;opacity:0.6;fill:url(#oomox);fill-opacity:1;stroke-width:0.296785"
   d="M 0,8.4457812 V 12.013278 H 0.59242024 15.40758 16 c 0,-1.273068 -1.48e-4,-2.4935357 -1.48e-4,-3.5674968 z" />
<rect
   style="display:inline;opacity:1;fill:url(#oomox);fill-opacity:1;stroke-width:0.631375"
   id="rect520"
   class="ColorScheme-Text"
   width="0.8888889"
   height="3.3634605"
   x="-5.6296291"
   y="-3.3634605"
   ry="0.50451916"
   transform="scale(-1)" />
<rect
   style="display:inline;fill:url(#oomox);fill-opacity:1;stroke-width:0.631375"
   id="rect520-31"
   class="ColorScheme-Text"
   width="0.8888889"
   height="3.3634605"
   x="-11.259263"
   y="-3.3634605"
   ry="0.50451916"
   transform="scale(-1)" />
</svg>
