<?xml version="1.0" encoding="UTF-8" standalone="no"?>
<svg
   width="16"
   height="16"
   version="1"
   id="svg1228"
   xmlns="http://www.w3.org/2000/svg"
   xmlns:svg="http://www.w3.org/2000/svg"
   xmlns:rdf="http://www.w3.org/1999/02/22-rdf-syntax-ns#"
   xmlns:cc="http://creativecommons.org/ns#"
   xmlns:dc="http://purl.org/dc/elements/1.1/">
 <defs>
   <style id="current-color-scheme" type="text/css">
   .ColorScheme-Text { color: #0abdc6; } .ColorScheme-Highlight { color:#5294e2; }
  </style>
  <linearGradient id="arrongin" x1="0%" x2="0%" y1="0%" y2="100%">
   <stop offset="0%" style="stop-color:#dd9b44; stop-opacity:1"/>
   <stop offset="100%" style="stop-color:#ad6c16; stop-opacity:1"/>
  </linearGradient>
  <linearGradient id="aurora" x1="0%" x2="0%" y1="0%" y2="100%">
   <stop offset="0%" style="stop-color:#09D4DF; stop-opacity:1"/>
   <stop offset="100%" style="stop-color:#9269F4; stop-opacity:1"/>
  </linearGradient>
  <linearGradient id="cyberneon" x1="0%" x2="0%" y1="0%" y2="100%">
    <stop offset="0" style="stop-color:#0abdc6; stop-opacity:1"/>
    <stop offset="1" style="stop-color:#ea00d9; stop-opacity:1"/>
  </linearGradient>
  <linearGradient id="fitdance" x1="0%" x2="0%" y1="0%" y2="100%">
   <stop offset="0%" style="stop-color:#1AD6AB; stop-opacity:1"/>
   <stop offset="100%" style="stop-color:#329DB6; stop-opacity:1"/>
  </linearGradient>
  <linearGradient id="oomox" x1="0%" x2="0%" y1="0%" y2="100%">
   <stop offset="0%" style="stop-color:#0abdc6; stop-opacity:1"/>
   <stop offset="100%" style="stop-color:#b800ff; stop-opacity:1"/>
  </linearGradient>
  <linearGradient id="rainblue" x1="0%" x2="0%" y1="0%" y2="100%">
   <stop offset="0%" style="stop-color:#00F260; stop-opacity:1"/>
   <stop offset="100%" style="stop-color:#0575E6; stop-opacity:1"/>
  </linearGradient>
  <linearGradient id="sunrise" x1="0%" x2="0%" y1="0%" y2="100%">
   <stop offset="0%" style="stop-color: #FF8501; stop-opacity:1"/>
   <stop offset="100%" style="stop-color: #FFCB01; stop-opacity:1"/>
  </linearGradient>
  <linearGradient id="telinkrin" x1="0%" x2="0%" y1="0%" y2="100%">
   <stop offset="0%" style="stop-color: #b2ced6; stop-opacity:1"/>
   <stop offset="100%" style="stop-color: #6da5b7; stop-opacity:1"/>
  </linearGradient>
  <linearGradient id="60spsycho" x1="0%" x2="0%" y1="0%" y2="100%">
   <stop offset="0%" style="stop-color: #df5940; stop-opacity:1"/>
   <stop offset="25%" style="stop-color: #d8d15f; stop-opacity:1"/>
   <stop offset="50%" style="stop-color: #e9882a; stop-opacity:1"/>
   <stop offset="100%" style="stop-color: #279362; stop-opacity:1"/>
  </linearGradient>
  <linearGradient id="90ssummer" x1="0%" x2="0%" y1="0%" y2="100%">
   <stop offset="0%" style="stop-color: #f618c7; stop-opacity:1"/>
   <stop offset="20%" style="stop-color: #94ffab; stop-opacity:1"/>
   <stop offset="50%" style="stop-color: #fbfd54; stop-opacity:1"/>
   <stop offset="100%" style="stop-color: #0f83ae; stop-opacity:1"/>
  </linearGradient>
    <linearGradient
       id="linearGradient2284"
       gradientTransform="matrix(1.6440072,0,0,0.60826983,-38.207552,-69.729474)"
       x1="0"
       y1="132.57439"
       x2="77.858536"
       y2="132.57439"
       gradientUnits="userSpaceOnUse">
      <stop
         style="stop-color:#41ff00;stop-opacity:1;"
         offset="0"
         id="stop2280" />
      <stop
         style="stop-color:#e7ff00;stop-opacity:1;"
         offset="1"
         id="stop2282" />
    </linearGradient>
  </defs>
  <path
     style="display:inline;fill:url(#oomox);fill-opacity:1;stroke-width:0.445777"
     d="M 0.99379192,0 C 0.44338896,0 9.3803153e-7,0.56395557 9.3803153e-7,1.1111111 V 12.666667 c 0,0.547111 0.44338802196847,1.11111 0.99379098196847,1.11111 L 1.8723413,13.777702 3.2340435,16 l 1.3617021,-2.222298 10.3620094,7.5e-5 c 0.638151,0.02443 0.994204,-0.720027 0.994204,-1.212365 0.09105,-2.239771 0.219612,-6.6035883 -1.360346,-8.4924956 C 13.607134,2.9784142 12.153772,2.3240293 10.716875,2.309896 9.6505779,2.2994248 8.3697534,2.6420129 7.5187927,3.4192705 6.1896258,4.6335905 5.7954753,7.1428477 7.1127185,8.5178614 7.9621139,9.4046434 9.7078474,9.6623479 10.640027,8.7470281 11.219663,8.1778546 11.38555,7.0362247 10.758793,6.4348957 10.385779,6.076865 9.7311495,5.9777665 9.3536881,6.387153 9.1389769,6.6186063 9.0818075,7.0195687 9.3423351,7.2413195 c 0.1382131,0.11728 0.3748081,0.1470213 0.4986423,-0.00868 0.060751,-0.076342 0.077815,-0.2062127 -0.012225,-0.2690972 -0.040459,-0.027823 -0.1061614,-0.033236 -0.1353577,0.013021 -0.00818,0.017923 -0.010914,0.047383 0.011353,0.059027 0.00818,0.00467 0.024453,0.00495 0.024453,-0.00435 v -0.00694 c -0.011717,-0.00342 0,-0.00653 0,-0.00695 0.00814,-0.00391 0.020082,0.00404 0.020082,0.01215 0.0047,0.023197 -0.017365,0.043986 -0.038425,0.048611 -0.05496,0.012436 -0.093952,-0.039502 -0.1056671,-0.086805 -0.018124,-0.1067424 0.084293,-0.1871404 0.1825158,-0.198785 0.1984354,-0.02303 0.3449216,0.1643513 0.3589166,0.3446182 0.02631,0.33968 -0.3001782,0.5834887 -0.6156615,0.5972221 C 8.9723723,7.7588374 8.583817,7.2287864 8.5721026,6.7135241 8.5571376,5.848175 9.391862,5.3286645 10.206878,5.3333311 11.517691,5.340657 12.411207,6.5142138 12.379595,7.7378448 12.331775,9.6351602 10.48838,11.186078 8.6838807,11.111109 5.9724571,10.99856 3.8789565,8.1186917 4.0240686,5.5659724 4.1772955,2.8635787 6.2845347,0.82803986 8.7921694,0 Z"
     id="path1292"
     class="ColorScheme-Text" />
  <g
     id="g1840"
     transform="matrix(0.12499902,0,0,0.12669133,4.7759068,8.6176042)">
    <path
       d="m 89.792448,10.911526 v 47.359 h -128 v -47.359 z"
       id="path359"
       style="fill:url(#linearGradient2284);fill-opacity:1" />
    <path
       d="m -24.898552,10.911526 47.355,47.359 h 21.215 l -47.3590004,-47.359 z m 42.422,0 47.363,47.359 h 21.215 l -47.363,-47.359 z m 42.43,0 29.84,29.84 v -21.211 l -8.6289,-8.6289 z m -98.16,7.9062 v 21.215 l 18.238,18.238 H 1.2464476 Z"
       id="path361"
       style="fill:#000000;fill-opacity:1" />
  </g>
  <metadata
     id="metadata165">
    <rdf:RDF>
      <cc:Work
         rdf:about="">
        <dc:creator>
          <cc:Agent>
            <dc:title>dreifacherspass</dc:title>
          </cc:Agent>
        </dc:creator>
        <cc:license
           rdf:resource="http://creativecommons.org/licenses/by-sa/4.0/" />
      </cc:Work>
      <cc:License
         rdf:about="http://creativecommons.org/licenses/by-sa/4.0/">
        <cc:permits
           rdf:resource="http://creativecommons.org/ns#Reproduction" />
        <cc:permits
           rdf:resource="http://creativecommons.org/ns#Distribution" />
        <cc:requires
           rdf:resource="http://creativecommons.org/ns#Notice" />
        <cc:requires
           rdf:resource="http://creativecommons.org/ns#Attribution" />
        <cc:permits
           rdf:resource="http://creativecommons.org/ns#DerivativeWorks" />
        <cc:requires
           rdf:resource="http://creativecommons.org/ns#ShareAlike" />
      </cc:License>
    </rdf:RDF>
  </metadata>
</svg>
