<?xml version="1.0" encoding="UTF-8" standalone="no"?>
<svg
   version="1.1"
   width="16"
   height="16"
   viewBox="0 0 16 16"
   xml:space="preserve"
   id="svg2"
   xmlns:xlink="http://www.w3.org/1999/xlink"
   xmlns="http://www.w3.org/2000/svg"
   xmlns:svg="http://www.w3.org/2000/svg"
   xmlns:rdf="http://www.w3.org/1999/02/22-rdf-syntax-ns#"
   xmlns:cc="http://creativecommons.org/ns#"
   xmlns:dc="http://purl.org/dc/elements/1.1/">
   <defs>
      <style id="current-color-scheme" type="text/css">
         .ColorScheme-Text { color: #0abdc6; } .ColorScheme-Highlight { color:#5294e2; }
      </style>
      <linearGradient id="arrongin" x1="0%" x2="0%" y1="0%" y2="100%">
         <stop offset="0%" style="stop-color:#dd9b44; stop-opacity:1"/>
         <stop offset="100%" style="stop-color:#ad6c16; stop-opacity:1"/>
      </linearGradient>
      <linearGradient id="aurora" x1="0%" x2="0%" y1="0%" y2="100%">
         <stop offset="0%" style="stop-color:#09D4DF; stop-opacity:1"/>
         <stop offset="100%" style="stop-color:#9269F4; stop-opacity:1"/>
      </linearGradient>
      <linearGradient id="cyberneon" x1="0%" x2="0%" y1="0%" y2="100%">
         <stop offset="0" style="stop-color:#0abdc6; stop-opacity:1"/>
         <stop offset="1" style="stop-color:#ea00d9; stop-opacity:1"/>
      </linearGradient>
      <linearGradient id="fitdance" x1="0%" x2="0%" y1="0%" y2="100%">
         <stop offset="0%" style="stop-color:#1AD6AB; stop-opacity:1"/>
         <stop offset="100%" style="stop-color:#329DB6; stop-opacity:1"/>
      </linearGradient>
      <linearGradient id="oomox" x1="0%" x2="0%" y1="0%" y2="100%">
         <stop offset="0%" style="stop-color:#0abdc6; stop-opacity:1"/>
         <stop offset="100%" style="stop-color:#b800ff; stop-opacity:1"/>
      </linearGradient>
      <linearGradient id="rainblue" x1="0%" x2="0%" y1="0%" y2="100%">
         <stop offset="0%" style="stop-color:#00F260; stop-opacity:1"/>
         <stop offset="100%" style="stop-color:#0575E6; stop-opacity:1"/>
      </linearGradient>
      <linearGradient id="sunrise" x1="0%" x2="0%" y1="0%" y2="100%">
         <stop offset="0%" style="stop-color: #FF8501; stop-opacity:1"/>
         <stop offset="100%" style="stop-color: #FFCB01; stop-opacity:1"/>
      </linearGradient>
      <linearGradient id="telinkrin" x1="0%" x2="0%" y1="0%" y2="100%">
         <stop offset="0%" style="stop-color: #b2ced6; stop-opacity:1"/>
         <stop offset="100%" style="stop-color: #6da5b7; stop-opacity:1"/>
      </linearGradient>
      <linearGradient id="60spsycho" x1="0%" x2="0%" y1="0%" y2="100%">
         <stop offset="0%" style="stop-color: #df5940; stop-opacity:1"/>
         <stop offset="25%" style="stop-color: #d8d15f; stop-opacity:1"/>
         <stop offset="50%" style="stop-color: #e9882a; stop-opacity:1"/>
         <stop offset="100%" style="stop-color: #279362; stop-opacity:1"/>
      </linearGradient>
      <linearGradient id="90ssummer" x1="0%" x2="0%" y1="0%" y2="100%">
         <stop offset="0%" style="stop-color: #f618c7; stop-opacity:1"/>
         <stop offset="20%" style="stop-color: #94ffab; stop-opacity:1"/>
         <stop offset="50%" style="stop-color: #fbfd54; stop-opacity:1"/>
         <stop offset="100%" style="stop-color: #0f83ae; stop-opacity:1"/>
      </linearGradient>
   </defs>
  <path
   id="path1"
   class="ColorScheme-Text"
   style="stroke-width:0.0224737;fill:url(#oomox)"
   d="M 0 10.021484 L 0 16 L 1.4609375 16 L 1.4609375 11.527344 L 2.2910156 11.527344 L 2.2910156 16 L 3.6171875 16 L 3.6171875 11.527344 L 4.4707031 11.527344 L 4.4707031 16 L 5.9316406 16 L 5.9316406 10.853516 C 5.9316406 10.401795 5.6768077 10.021484 5.2363281 10.021484 L 0 10.021484 z M 6.6523438 10.021484 L 6.6523438 16 L 8.1132812 16 L 8.1132812 10.021484 L 6.6523438 10.021484 z M 8.8085938 10.021484 L 8.8085938 11.371094 L 12.382812 11.371094 L 12.382812 14.539062 L 10.292969 14.539062 L 10.292969 12.201172 L 8.8085938 12.201172 L 8.8085938 16 L 13.101562 16 C 13.609472 16 13.84375 15.817412 13.84375 15.257812 L 13.84375 10.853516 C 13.84375 10.401795 13.586974 10.021484 13.146484 10.021484 L 8.8085938 10.021484 z M 14.517578 10.021484 L 14.517578 16 L 16 16 L 16 10.021484 L 14.517578 10.021484 z " />
<metadata
   id="metadata2"><rdf:RDF><cc:Work
       rdf:about=""><dc:creator><cc:Agent><dc:title>dreifacherspass</dc:title></cc:Agent></dc:creator><cc:license
         rdf:resource="http://creativecommons.org/licenses/by-sa/4.0/" /></cc:Work><cc:License
       rdf:about="http://creativecommons.org/licenses/by-sa/4.0/"><cc:permits
         rdf:resource="http://creativecommons.org/ns#Reproduction" /><cc:permits
         rdf:resource="http://creativecommons.org/ns#Distribution" /><cc:requires
         rdf:resource="http://creativecommons.org/ns#Notice" /><cc:requires
         rdf:resource="http://creativecommons.org/ns#Attribution" /><cc:permits
         rdf:resource="http://creativecommons.org/ns#DerivativeWorks" /><cc:requires
         rdf:resource="http://creativecommons.org/ns#ShareAlike" /></cc:License></rdf:RDF>
   </metadata>
<path
   id="path4"
   class="ColorScheme-Text"
   style="display:inline;fill:url(#oomox);stroke-width:0.997;stroke-dasharray:none;paint-order:fill markers stroke"
   d="m 9.744094,0.00682949 a 0.44909018,0.44794683 0 0 0 -0.5204301,0.363568 0.44909018,0.44794683 0 0 0 0.364496,0.519105 C 12.407505,1.3866238 14.610864,3.5904724 15.108227,6.41107 a 0.44909018,0.44794683 0 0 0 0.52043,0.363567 0.44909018,0.44794683 0 0 0 0.364496,-0.519105 C 15.43107,3.0679047 12.933104,0.56913169 9.744094,0.00682949 Z M 9.2996817,1.5933079 A 0.44909018,0.44794683 0 0 0 8.9176433,1.9568759 0.44909018,0.44794683 0 0 0 9.28019,2.4779251 c 2.141429,0.3798004 3.81822,2.0625438 4.196576,4.2208879 A 0.44909018,0.44794683 0 0 0 13.995247,7.064325 0.44909018,0.44794683 0 0 0 14.361692,6.54522 C 13.919337,4.0217976 11.951143,2.0409659 9.4380732,1.5952521 A 0.44909018,0.44794683 0 0 0 9.2996817,1.5933079 Z M 9.0462889,3.1817304 A 0.44909018,0.44794683 0 0 0 8.6642503,3.5452984 0.44909018,0.44794683 0 0 0 9.0267972,4.0644035 C 10.510977,4.3260891 11.671095,5.4855442 11.933019,6.971003 a 0.44909018,0.44794683 0 0 0 0.520429,0.363568 0.44909018,0.44794683 0 0 0 0.364497,-0.519105 C 12.491304,4.962971 11.038528,3.510539 9.1846804,3.1836746 a 0.44909018,0.44794683 0 0 0 -0.1383915,-0.00194 z m -0.2592404,1.58259 A 0.44909018,0.44794683 0 0 0 8.383569,5.133721 0.44909018,0.44794683 0 0 0 8.7480649,5.6528261 C 9.5646383,5.7968017 10.20023,6.433102 10.34444,7.25097 a 0.44909018,0.44794683 0 0 0 0.520431,0.363568 0.44909018,0.44794683 0 0 0 0.364495,-0.519105 C 11.020439,5.9105285 10.090241,4.9793073 8.903999,4.770153 A 0.44909018,0.44794683 0 0 0 8.7870485,4.7643204 Z M 8.4050099,6.788247 c -0.4445605,0 -0.8050098,0.360654 -0.8050098,0.804904 0,0.444251 0.3604493,0.806849 0.8050098,0.806849 0.4445605,0 0.8069589,-0.362598 0.8069589,-0.806849 0,-0.44425 -0.3623984,-0.804904 -0.8069589,-0.804904 z" />
<path
   d="M 1.3666858,0.24388992 C 1.2198644,0.39162909 1.1206247,0.59577865 1.112,0.82123559 L 1.1384718,7.5837788 C 1.1393527,8.022845 1.4945443,8.3831728 1.9503142,8.4 L 5.0077115,8.389448 C 5.2177252,8.3890185 5.4142429,8.3052156 5.56584,8.1515578 5.7153166,8.0000481 5.8033707,7.7975349 5.812,7.5742297 L 5.7940608,0.81167657 C 5.7579523,0.35546251 5.4033046,-0.00110112 4.9777163,2.5552082e-6 L 1.9160411,0.00626349 C 1.7071004,0.00668732 1.5132587,0.09640169 1.3664454,0.2441328 Z M 2.4951238,1.5760252 C 3.0217343,1.0422533 3.8767034,1.0405153 4.4054688,1.5721364 4.9342343,2.1037538 4.9359879,2.9668333 4.4093787,3.5006053 3.8827602,4.0343848 3.0277923,4.0361228 2.4990268,3.5045058 1.9702602,2.9728885 1.9685077,2.1098089 2.4951169,1.5760292 Z m 0.6836595,0.6873467 c -0.1505402,0.1525874 -0.1500423,0.3990259 0.00111,0.5509976 0.1511486,0.151964 0.395279,0.1514731 0.5458193,-0.00111 0.1505334,-0.15258 0.1500275,-0.3990259 -0.00112,-0.55099 C 3.5734391,2.1102934 3.3293168,2.1107918 3.1787833,2.2633719 Z M 2.3656334,5.0200087 C 2.516175,4.867421 2.7602972,4.8669226 2.9114539,5.0188987 c 0.1511486,0.151964 0.1516465,0.3984024 0.0011,0.55099 C 2.7620283,5.7224685 2.517906,5.7229669 2.3667574,5.5709987 2.2155991,5.419027 2.2151012,5.1725887 2.3656334,5.0200087 Z m 0.00276,1.3774788 c 0.1505313,-0.1525876 0.3946536,-0.1530861 0.5458103,-0.00111 0.1511498,0.151964 0.1516476,0.3984024 0.0011,0.5509901 -0.1505334,0.15258 -0.3946626,0.153086 -0.5458123,0.00112 C 2.2183429,6.7965135 2.2178519,6.5500677 2.3683853,6.3974875 Z M 4.0030429,5.0166656 c 0.1505403,-0.1525877 0.3946626,-0.1530859 0.5458112,-0.00112 0.1511567,0.1519718 0.1516558,0.39841 0.00111,0.5509976 -0.1505323,0.15258 -0.3946625,0.153086 -0.5458192,0.00111 C 3.8530004,5.415689 3.8525094,5.169243 4.0030447,5.0166631 Z m 0.00276,1.3774789 C 4.1563351,6.2415568 4.4004574,6.2410585 4.551614,6.3930345 4.7027627,6.5449986 4.7032605,6.791437 4.5527183,6.9440247 4.4021799,7.0966079 4.1580576,7.0971062 4.006909,6.9451421 3.8557524,6.7931705 3.8552533,6.5467322 4.0057936,6.3941445 Z"
   id="path3"
   style="fill:url(#oomox);stroke-width:0.193887" />
</svg>
