<?xml version="1.0" encoding="UTF-8" standalone="no"?>
<svg
   width="16"
   height="16"
   version="1.1"
   viewBox="0 0 4.2333333 4.2333333"
   id="svg64"
   xmlns:xlink="http://www.w3.org/1999/xlink"
   xmlns="http://www.w3.org/2000/svg"
   xmlns:svg="http://www.w3.org/2000/svg"
   xmlns:rdf="http://www.w3.org/1999/02/22-rdf-syntax-ns#"
   xmlns:cc="http://creativecommons.org/ns#"
   xmlns:dc="http://purl.org/dc/elements/1.1/">
   <defs>
      <style id="current-color-scheme" type="text/css">
         .ColorScheme-Text { color: #0abdc6; } .ColorScheme-Highlight { color:#5294e2; }
      </style>
      <linearGradient id="arrongin" x1="0%" x2="0%" y1="0%" y2="100%">
         <stop offset="0%" style="stop-color:#dd9b44; stop-opacity:1"/>
         <stop offset="100%" style="stop-color:#ad6c16; stop-opacity:1"/>
      </linearGradient>
      <linearGradient id="aurora" x1="0%" x2="0%" y1="0%" y2="100%">
         <stop offset="0%" style="stop-color:#09D4DF; stop-opacity:1"/>
         <stop offset="100%" style="stop-color:#9269F4; stop-opacity:1"/>
      </linearGradient>
      <linearGradient id="cyberneon" x1="0%" x2="0%" y1="0%" y2="100%">
         <stop offset="0" style="stop-color:#0abdc6; stop-opacity:1"/>
         <stop offset="1" style="stop-color:#ea00d9; stop-opacity:1"/>
      </linearGradient>
      <linearGradient id="fitdance" x1="0%" x2="0%" y1="0%" y2="100%">
         <stop offset="0%" style="stop-color:#1AD6AB; stop-opacity:1"/>
         <stop offset="100%" style="stop-color:#329DB6; stop-opacity:1"/>
      </linearGradient>
      <linearGradient id="oomox" x1="0%" x2="0%" y1="0%" y2="100%">
         <stop offset="0%" style="stop-color:#0abdc6; stop-opacity:1"/>
         <stop offset="100%" style="stop-color:#b800ff; stop-opacity:1"/>
      </linearGradient>
      <linearGradient id="rainblue" x1="0%" x2="0%" y1="0%" y2="100%">
         <stop offset="0%" style="stop-color:#00F260; stop-opacity:1"/>
         <stop offset="100%" style="stop-color:#0575E6; stop-opacity:1"/>
      </linearGradient>
      <linearGradient id="sunrise" x1="0%" x2="0%" y1="0%" y2="100%">
         <stop offset="0%" style="stop-color: #FF8501; stop-opacity:1"/>
         <stop offset="100%" style="stop-color: #FFCB01; stop-opacity:1"/>
      </linearGradient>
      <linearGradient id="telinkrin" x1="0%" x2="0%" y1="0%" y2="100%">
         <stop offset="0%" style="stop-color: #b2ced6; stop-opacity:1"/>
         <stop offset="100%" style="stop-color: #6da5b7; stop-opacity:1"/>
      </linearGradient>
      <linearGradient id="60spsycho" x1="0%" x2="0%" y1="0%" y2="100%">
         <stop offset="0%" style="stop-color: #df5940; stop-opacity:1"/>
         <stop offset="25%" style="stop-color: #d8d15f; stop-opacity:1"/>
         <stop offset="50%" style="stop-color: #e9882a; stop-opacity:1"/>
         <stop offset="100%" style="stop-color: #279362; stop-opacity:1"/>
      </linearGradient>
      <linearGradient id="90ssummer" x1="0%" x2="0%" y1="0%" y2="100%">
         <stop offset="0%" style="stop-color: #f618c7; stop-opacity:1"/>
         <stop offset="20%" style="stop-color: #94ffab; stop-opacity:1"/>
         <stop offset="50%" style="stop-color: #fbfd54; stop-opacity:1"/>
         <stop offset="100%" style="stop-color: #0f83ae; stop-opacity:1"/>
      </linearGradient>
   </defs>
  <metadata
     id="metadata34">
    <rdf:RDF>
      <cc:Work
         rdf:about="">
        <dc:format>image/svg+xml</dc:format>
        <dc:type
           rdf:resource="http://purl.org/dc/dcmitype/StillImage" />
        <dc:creator>
          <cc:Agent>
            <dc:title>dreifacherspass</dc:title>
          </cc:Agent>
        </dc:creator>
        <cc:license
           rdf:resource="http://creativecommons.org/licenses/by-sa/4.0/" />
      </cc:Work>
      <cc:License
         rdf:about="http://creativecommons.org/licenses/by-sa/4.0/">
        <cc:permits
           rdf:resource="http://creativecommons.org/ns#Reproduction" />
        <cc:permits
           rdf:resource="http://creativecommons.org/ns#Distribution" />
        <cc:requires
           rdf:resource="http://creativecommons.org/ns#Notice" />
        <cc:requires
           rdf:resource="http://creativecommons.org/ns#Attribution" />
        <cc:permits
           rdf:resource="http://creativecommons.org/ns#DerivativeWorks" />
        <cc:requires
           rdf:resource="http://creativecommons.org/ns#ShareAlike" />
      </cc:License>
    </rdf:RDF>
  </metadata>
  <path
     d="M 2.1166785,0 A 0.6512832,0.6512832 0 0 0 1.4653834,0.65129436 0.6512832,0.6512832 0 0 0 2.1166785,1.3025714 0.6512832,0.6512832 0 0 0 2.7679556,0.65129436 0.6512832,0.6512832 0 0 0 2.1166785,0 Z"
     style="opacity:1;fill:url(#oomox);fill-opacity:1;stroke-width:0.19462;paint-order:normal"
     id="path414"
     class="ColorScheme-Text" />
  <path
     id="path416"
     style="opacity:1;fill:url(#oomox);fill-opacity:1;stroke-width:0.19462;paint-order:normal"
     class="ColorScheme-Text"
     d="m 1.4654114,1.3005749 c -0.3608091,0 -0.65125506,0.2811063 -0.65125506,0.6303206 v 0.5094637 c 0,0.046953 0.0197787,0.08891 0.0513687,0.1185699 -0.0254012,-0.030928 -0.0247557,-0.076296 0.003166,-0.1066074 L 1.1709217,2.1240554 c -1.946e-4,-5.072e-4 -3.309e-4,-0.00108 -5.243e-4,-0.00158 a 0.2442313,0.2442313 0 0 1 -0.00757,-0.019176 c -7.012e-4,-0.00225 -0.0015,-0.00442 -0.00229,-0.00668 a 0.2442313,0.2442313 0 0 1 -0.00387,-0.014249 c -9.327e-4,-0.00394 -0.00204,-0.00797 -0.00282,-0.011963 a 0.2442313,0.2442313 0 0 1 -0.0014,-0.00774 c -0.00107,-0.00609 -0.00169,-0.012318 -0.00229,-0.018471 a 0.2442313,0.2442313 0 0 1 -3.506e-4,-0.00581 c -3.881e-4,-0.00489 -6.808e-4,-0.00987 -7.013e-4,-0.014777 0,-0.00802 4.46e-4,-0.015916 0.00123,-0.023749 a 0.2442313,0.2442313 0 0 1 1.76e-4,-0.00193 c 7.795e-4,-0.00729 0.00198,-0.014366 0.00334,-0.021462 a 0.2442313,0.2442313 0 0 1 5.242e-4,-0.00317 c 0.00144,-0.0068 0.00312,-0.013467 0.0051,-0.020055 a 0.2442313,0.2442313 0 0 1 0.00123,-0.00369 c 0.00196,-0.00613 0.00408,-0.012203 0.00651,-0.01812 a 0.2442313,0.2442313 0 0 1 0.00229,-0.00528 c 0.00239,-0.00546 0.00498,-0.010764 0.00774,-0.016009 a 0.2442313,0.2442313 0 0 1 0.00317,-0.00598 c 0.00272,-0.00483 0.00576,-0.00963 0.0088,-0.01425 a 0.2442313,0.2442313 0 0 1 0.00581,-0.00844 c 0.00265,-0.00367 0.00525,-0.00721 0.00809,-0.010731 a 0.2442313,0.2442313 0 0 1 0.00721,-0.00844 c 0.00307,-0.00348 0.00623,-0.0069 0.0095,-0.010203 a 0.2442313,0.2442313 0 0 1 0.00739,-0.00721 c 0.00317,-0.00294 0.00635,-0.00567 0.00968,-0.00844 a 0.2442313,0.2442313 0 0 1 0.00968,-0.00774 c 0.00304,-0.00227 0.00619,-0.00455 0.00932,-0.00668 a 0.2442313,0.2442313 0 0 1 0.011611,-0.00739 c 0.00294,-0.00177 0.00594,-0.00345 0.00897,-0.0051 a 0.2442313,0.2442313 0 0 1 0.012139,-0.00616 c 0.00317,-0.0015 0.00643,-0.00302 0.00968,-0.0044 a 0.2442313,0.2442313 0 0 1 0.012491,-0.00493 c 0.00327,-0.00117 0.00668,-0.00231 0.010027,-0.00334 a 0.2442313,0.2442313 0 0 1 0.013193,-0.00369 c 0.00352,-8.715e-4 0.00697,-0.00157 0.010554,-0.00229 a 0.2442313,0.2442313 0 0 1 7.013e-4,-1.76e-4 0.2442313,0.2442313 0 0 1 0.022518,-0.00352 c 1.946e-4,-1.64e-5 5.242e-4,1.71e-5 7.012e-4,0 a 0.2442313,0.2442313 0 0 1 0.024805,-0.00158 h 1.759e-4 a 0.2442313,0.2442313 0 0 1 0.2441799,0.2441754 0.2442313,0.2442313 0 0 1 -0.2443525,0.2443526 0.2442313,0.2442313 0 0 1 -0.026564,-0.00158 c -0.00607,-6.741e-4 -0.012125,-0.00169 -0.018119,-0.00282 a 0.2442313,0.2442313 0 0 1 -0.00774,-0.00158 c -0.0057,-0.00127 -0.011459,-0.00255 -0.017064,-0.00422 a 0.2442313,0.2442313 0 0 1 -0.00669,-0.00229 c -0.00502,-0.00165 -0.00987,-0.00348 -0.014778,-0.00545 a 0.2442313,0.2442313 0 0 1 -0.00792,-0.00317 c -0.00356,-0.00159 -0.00705,-0.00335 -0.010554,-0.0051 l -0.046443,0.050488 v 0.3108221 h 2.019028 c 0.090206,0 0.1627255,-0.072522 0.1627255,-0.1627258 V 1.9308924 c 0,-0.056659 -0.00765,-0.1116158 -0.021988,-0.1637813 C 3.3230661,1.4977598 3.0701811,1.3005719 2.7679112,1.3005719 H 2.6101115 C 2.4682804,1.4086142 2.2949501,1.4672714 2.1166571,1.4675198 1.9385471,1.46715 1.765411,1.4085025 1.62373,1.3005719 Z m -0.3908937,1.1684592 -0.0862008,0.093589 c -0.0236426,0.025668 -0.0595939,0.032676 -0.0900708,0.020407 0.0232861,0.012808 0.0500788,0.020055 0.0786361,0.020055 h 0.0976355 z" />
  <path
     d="m 1.3934753,1.7794912 a 0.2442313,0.2442313 0 0 0 -0.02504,0.00156 0.2442313,0.2442313 0 0 0 -1.75e-5,0 c -1.693e-4,1.71e-5 -3.881e-4,5.19e-5 -5.821e-4,6.83e-5 a 0.2442313,0.2442313 0 0 0 -0.022467,0.0034 0.2442313,0.2442313 0 0 0 -7.796e-4,1.531e-4 c -0.00358,7.217e-4 -0.00712,0.00152 -0.010646,0.00239 a 0.2442313,0.2442313 0 0 0 -0.013137,0.00372 c -0.00335,0.00103 -0.00666,0.00212 -0.00992,0.0033 a 0.2442313,0.2442313 0 0 0 -0.01265,0.00496 c -0.00325,0.00138 -0.00646,0.00282 -0.00963,0.00432 a 0.2442313,0.2442313 0 0 0 -0.012144,0.00619 c -0.00304,0.00165 -0.00601,0.00336 -0.00895,0.00513 a 0.2442313,0.2442313 0 0 0 -0.01158,0.00742 c -0.00313,0.00213 -0.00621,0.00432 -0.00924,0.0066 a 0.2442313,0.2442313 0 0 0 -0.00971,0.00769 c -0.00333,0.00278 -0.0066,0.00562 -0.00977,0.00857 a 0.2442313,0.2442313 0 0 0 -0.00736,0.00712 c -0.00327,0.0033 -0.00642,0.00672 -0.0095,0.010198 a 0.2442313,0.2442313 0 0 0 -0.00712,0.00841 c -0.00284,0.00352 -0.00555,0.00712 -0.00819,0.010786 a 0.2442313,0.2442313 0 0 0 -0.00586,0.00851 c -0.00304,0.00462 -0.00598,0.00934 -0.0087,0.014168 a 0.2442313,0.2442313 0 0 0 -0.00321,0.00597 c -0.00276,0.00524 -0.00535,0.010595 -0.00775,0.016054 a 0.2442313,0.2442313 0 0 0 -0.0022,0.00525 c -0.00243,0.00592 -0.00463,0.011942 -0.0066,0.018074 a 0.2442313,0.2442313 0 0 0 -0.00117,0.0037 c -0.00198,0.00659 -0.0037,0.013306 -0.00514,0.020109 a 0.2442313,0.2442313 0 0 0 -5.855e-4,0.0031 c -0.00136,0.0071 -0.00249,0.014299 -0.00327,0.021591 a 0.2442313,0.2442313 0 0 0 -1.946e-4,0.00193 c -7.796e-4,0.00783 -0.00117,0.015758 -0.00117,0.023778 1.75e-5,0.00491 1.946e-4,0.0098 5.855e-4,0.014692 a 0.2442313,0.2442313 0 0 0 3.881e-4,0.00591 c 5.855e-4,0.00615 0.00117,0.01229 0.00224,0.018376 a 0.2442313,0.2442313 0 0 0 0.00156,0.00779 c 7.795e-4,0.00399 0.00175,0.00795 0.00269,0.011897 a 0.2442313,0.2442313 0 0 0 0.00401,0.014236 c 7.795e-4,0.00227 0.00156,0.00452 0.00226,0.00676 a 0.2442313,0.2442313 0 0 0 0.00753,0.019151 c 1.946e-4,5.072e-4 3.881e-4,0.00103 5.855e-4,0.00154 L 0.86866156,2.4523157 c -0.0305573,0.033172 -0.0284592,0.084479 0.00471,0.1150362 0.0331731,0.030557 0.0844806,0.028444 0.11503589,-0.00473 l 0.086127,-0.093496 V 2.7659217 H 1.237361 V 2.2923638 l 0.04653,-0.050501 c 0.0035,0.00175 0.00707,0.00341 0.010626,0.005 a 0.2442313,0.2442313 0 0 0 0.00778,0.00328 c 0.00491,0.00198 0.00989,0.00378 0.014908,0.00544 a 0.2442313,0.2442313 0 0 0 0.00667,0.00215 c 0.00561,0.00167 0.011288,0.00308 0.01699,0.00434 a 0.2442313,0.2442313 0 0 0 0.00777,0.00158 c 0.00599,0.00113 0.012028,0.00207 0.0181,0.00274 a 0.2442313,0.2442313 0 0 0 1.76e-5,0 0.2442313,0.2442313 0 0 0 0.026622,0.00156 A 0.2442313,0.2442313 0 0 0 1.6376091,2.0237098 0.2442313,0.2442313 0 0 0 1.3933846,1.779485 Z"
     style="opacity:0.5;fill:url(#oomox);fill-opacity:1;stroke-width:0.19462;paint-order:normal"
     id="path48"
     class="ColorScheme-Text" />
  <path
     d="m 0.48846498,2.7679514 c -0.0902028,0 -0.16282768,0.072625 -0.16282768,0.1628277 0,0.090203 0.0726249,0.1628107 0.16282768,0.1628107 h 0.16281114 c 0.0899289,-3.5e-6 0.16283157,0.072899 0.16282769,0.1628281 v 0.8141048 c 0,0.090203 0.0726243,0.1628106 0.16282863,0.1628106 H 3.2564182 c 0.090202,0 0.1628287,-0.072608 0.1628287,-0.1628106 V 3.2564179 c -4e-6,-0.089922 0.072889,-0.1628224 0.1628109,-0.1628281 h 0.162827 c 0.090202,0 0.1628112,-0.072608 0.1628112,-0.1628107 0,-0.090203 -0.072609,-0.1628277 -0.1628112,-0.1628277 h -0.08616 z"
     style="opacity:0.5;fill:url(#oomox);fill-opacity:1;stroke-width:0.19462;paint-order:normal"
     id="path50"
     class="ColorScheme-Text" />
</svg>
