<?xml version="1.0" encoding="UTF-8" standalone="no"?>
<!-- Created with Inkscape (http://www.inkscape.org/) -->

<svg
   width="16"
   height="16"
   viewBox="0 0 4.2333332 4.2333333"
   version="1.1"
   id="svg1"
   xmlns:xlink="http://www.w3.org/1999/xlink"
   xmlns="http://www.w3.org/2000/svg"
   xmlns:svg="http://www.w3.org/2000/svg"
   xmlns:rdf="http://www.w3.org/1999/02/22-rdf-syntax-ns#"
   xmlns:cc="http://creativecommons.org/ns#"
   xmlns:dc="http://purl.org/dc/elements/1.1/">
   <defs>
      <style id="current-color-scheme" type="text/css">
         .ColorScheme-Text { color: #0abdc6; } .ColorScheme-Highlight { color:#5294e2; }
      </style>
      <linearGradient id="arrongin" x1="0%" x2="0%" y1="0%" y2="100%">
         <stop offset="0%" style="stop-color:#dd9b44; stop-opacity:1"/>
         <stop offset="100%" style="stop-color:#ad6c16; stop-opacity:1"/>
      </linearGradient>
      <linearGradient id="aurora" x1="0%" x2="0%" y1="0%" y2="100%">
         <stop offset="0%" style="stop-color:#09D4DF; stop-opacity:1"/>
         <stop offset="100%" style="stop-color:#9269F4; stop-opacity:1"/>
      </linearGradient>
      <linearGradient id="cyberneon" x1="0%" x2="0%" y1="0%" y2="100%">
         <stop offset="0" style="stop-color:#0abdc6; stop-opacity:1"/>
         <stop offset="1" style="stop-color:#ea00d9; stop-opacity:1"/>
      </linearGradient>
      <linearGradient id="fitdance" x1="0%" x2="0%" y1="0%" y2="100%">
         <stop offset="0%" style="stop-color:#1AD6AB; stop-opacity:1"/>
         <stop offset="100%" style="stop-color:#329DB6; stop-opacity:1"/>
      </linearGradient>
      <linearGradient id="oomox" x1="0%" x2="0%" y1="0%" y2="100%">
         <stop offset="0%" style="stop-color:#0abdc6; stop-opacity:1"/>
         <stop offset="100%" style="stop-color:#b800ff; stop-opacity:1"/>
      </linearGradient>
      <linearGradient id="rainblue" x1="0%" x2="0%" y1="0%" y2="100%">
         <stop offset="0%" style="stop-color:#00F260; stop-opacity:1"/>
         <stop offset="100%" style="stop-color:#0575E6; stop-opacity:1"/>
      </linearGradient>
      <linearGradient id="sunrise" x1="0%" x2="0%" y1="0%" y2="100%">
         <stop offset="0%" style="stop-color: #FF8501; stop-opacity:1"/>
         <stop offset="100%" style="stop-color: #FFCB01; stop-opacity:1"/>
      </linearGradient>
      <linearGradient id="telinkrin" x1="0%" x2="0%" y1="0%" y2="100%">
         <stop offset="0%" style="stop-color: #b2ced6; stop-opacity:1"/>
         <stop offset="100%" style="stop-color: #6da5b7; stop-opacity:1"/>
      </linearGradient>
      <linearGradient id="60spsycho" x1="0%" x2="0%" y1="0%" y2="100%">
         <stop offset="0%" style="stop-color: #df5940; stop-opacity:1"/>
         <stop offset="25%" style="stop-color: #d8d15f; stop-opacity:1"/>
         <stop offset="50%" style="stop-color: #e9882a; stop-opacity:1"/>
         <stop offset="100%" style="stop-color: #279362; stop-opacity:1"/>
      </linearGradient>
      <linearGradient id="90ssummer" x1="0%" x2="0%" y1="0%" y2="100%">
         <stop offset="0%" style="stop-color: #f618c7; stop-opacity:1"/>
         <stop offset="20%" style="stop-color: #94ffab; stop-opacity:1"/>
         <stop offset="50%" style="stop-color: #fbfd54; stop-opacity:1"/>
         <stop offset="100%" style="stop-color: #0f83ae; stop-opacity:1"/>
      </linearGradient>
   </defs>
  <path
     d="m 0.45830716,0.86121489 q 0.13869908,0 0.2246322,0.1085471 0.0859331,0.10703951 0.0859331,0.31659571 0,0.2095563 -0.0889483,0.319611 -0.0889483,0.108547 -0.2276474,0.108547 -0.0889483,0 -0.14171428,-0.03166 -0.0527659,-0.033167 -0.0859331,-0.073873 h -0.0120608 q 0.0120608,0.063319 0.0120608,0.1206079 V 2.0612634 H -2.8475e-6 V 0.87629088 H 0.1824166 l 0.0316596,0.1070395 H 0.2246294 Q 0.2577966,0.93357958 0.3135777,0.89739728 0.3693588,0.86121488 0.45830716,0.86121489 Z M 0.38594246,1.0406191 q -0.0874407,0 -0.1236231,0.054274 -0.0346748,0.054273 -0.0376899,0.165836 v 0.024122 q 0,0.1191002 0.0346748,0.183927 0.0361824,0.063319 0.12965349,0.063319 0.0768875,0 0.1130699,-0.063319 0.03769,-0.064827 0.03769,-0.1854347 0,-0.2427234 -0.15377519,-0.2427238 z M 1.2920084,0.85970729 q 0.1658358,0 0.2532765,0.0723647 0.088949,0.0708571 0.088949,0.21860191 v 0.5487658 h -0.156791 l -0.04372,-0.1115622 h -0.00603 q -0.052766,0.066335 -0.1115624,0.096486 -0.058796,0.030152 -0.161313,0.030152 -0.1100547,0 -0.18241956,-0.063319 -0.0723647,-0.064827 -0.0723647,-0.1974955 0,-0.1311611 0.0919635,-0.1929726 0.091963,-0.063319 0.27589056,-0.069349 l 0.143222,-0.00452 v -0.036182 q 0,-0.064827 -0.034675,-0.094979 -0.033167,-0.030152 -0.093471,-0.030152 -0.060304,0 -0.1175926,0.018091 -0.057289,0.016584 -0.1145775,0.042213 L 0.97692014,0.93357962 Q 1.0432548,0.89890482 1.1231573,0.87930611 1.204568,0.85970729 1.2920084,0.85970729 Z m 0.03166,0.46132531 q -0.1085472,0.00301 -0.1507599,0.039198 -0.042213,0.036182 -0.042213,0.094979 0,0.051259 0.030152,0.073873 0.030152,0.021106 0.078395,0.021106 0.072365,0 0.1221155,-0.042213 0.049751,-0.043721 0.049751,-0.1221155 V 1.318019 Z m 0.8020425,0.3934831 q -0.1371914,0 -0.2246322,-0.1070395 -0.085933,-0.108547 -0.085933,-0.3181032 0,-0.2110639 0.087441,-0.31961101 0.087441,-0.1085471 0.2291551,-0.1085471 0.088949,0 0.146237,0.0346748 0.057289,0.0346748 0.090456,0.0859331 h 0.00753 q -0.00452,-0.0241215 -0.010553,-0.0693495 -0.00603,-0.0467356 -0.00603,-0.0949788 V 0.55366475 H 2.5840206 V 1.6994397 H 2.4121543 l -0.04372,-0.1070395 h -0.00904 q -0.033167,0.051258 -0.088949,0.087441 -0.055781,0.034675 -0.1447295,0.034675 z m 0.078395,-0.1794042 q 0.093471,0 0.1311611,-0.054273 0.03769,-0.055781 0.039198,-0.1658359 v -0.024122 q 0,-0.1206079 -0.03769,-0.1839271 -0.036182,-0.063319 -0.1356838,-0.063319 -0.073873,0 -0.1160851,0.064827 -0.042213,0.063319 -0.042213,0.183927 0,0.1206079 0.042213,0.1824194 0.042213,0.060304 0.1190998,0.060304 z m 0.961847,0 q 0.03769,0 0.072365,-0.00753 0.034675,-0.00753 0.069349,-0.018092 V 1.676833 q -0.036182,0.015076 -0.090456,0.025629 -0.052766,0.012061 -0.1160851,0.012061 -0.073873,0 -0.1326686,-0.024122 Q 2.911169,1.6662746 2.8764944,1.6074791 2.8433277,1.5471747 2.8433277,1.4416433 V 1.0451419 H 2.7362871 V 0.95016318 L 2.8599102,0.87478324 2.924737,0.70140939 H 3.0679588 V 0.87629088 H 3.2986215 V 1.0451419 H 3.0679588 v 0.3964986 q 0,0.046735 0.027137,0.070857 0.027137,0.022614 0.070857,0.022614 z M 3.6981355,0.78734256 q 0,0.0603039 -0.00452,0.11608509 -0.00301,0.0557811 -0.00603,0.0783952 h 0.01206 q 0.039197,-0.0633192 0.1010092,-0.0919635 0.061811,-0.0286444 0.1371915,-0.0286444 0.1341763,0 0.214079,0.0723647 0.081411,0.0708571 0.081411,0.22915495 v 0.5367051 h -0.22463 V 1.2185158 q 0,-0.1778967 -0.1326687,-0.1778967 -0.1010092,0 -0.1402067,0.070857 -0.03769,0.069349 -0.03769,0.2005106 V 1.6994398 H 3.473503 V 0.55366475 h 0.2246322 z"
     id="path_padth"
     class="ColorScheme-Text"
     style="font-weight:bold;font-size:1.46679px;font-family:'Noto Sans';-inkscape-font-specification:'Noto Sans Bold';stroke-width:0.478792;stroke-linecap:round;stroke-linejoin:bevel;fill:url(#oomox)" />
  <path
     d="M 1.4423151,3.6796685 0.9466792,2.3786249 h 0.3717279 l 0.2502002,0.74107 q 0.021447,0.066713 0.033353,0.13821 0.014277,0.071479 0.016686,0.1286756 h 0.00961 q 0.00712,-0.1286756 0.052412,-0.2668806 L 1.9308202,2.3786254 h 0.3717276 l -0.495641,1.3010432 z m 1.8443391,0 H 2.926842 V 2.6955449 q 0,-0.061957 0.00242,-0.1620345 0.0047,-0.1000857 0.00712,-0.1763318 -0.011867,0.014274 -0.05243,0.052427 -0.038123,0.035738 -0.071483,0.064339 L 2.6170696,2.6312084 2.4431198,2.4143665 2.9911796,1.9783027 h 0.2954746 z"
     id="path_v1"
     class="ColorScheme-Text"
     style="font-weight:bold;font-size:1.46679px;font-family:'Noto Sans';-inkscape-font-specification:'Noto Sans Bold';stroke-width:0.756771;stroke-linecap:round;stroke-linejoin:bevel;fill:url(#oomox)" />
  <metadata
     id="metadata1">
    <rdf:RDF>
      <cc:Work
         rdf:about="">
        <dc:creator>
          <cc:Agent>
            <dc:title>dreifacherspass</dc:title>
          </cc:Agent>
        </dc:creator>
      </cc:Work>
    </rdf:RDF>
  </metadata>
</svg>
