<?xml version="1.0" encoding="UTF-8" standalone="no"?>
<svg
   width="16"
   height="16"
   version="1.1"
   id="svg5"
   xmlns="http://www.w3.org/2000/svg"
   xmlns:svg="http://www.w3.org/2000/svg"
   xmlns:rdf="http://www.w3.org/1999/02/22-rdf-syntax-ns#"
   xmlns:cc="http://creativecommons.org/ns#"
   xmlns:dc="http://purl.org/dc/elements/1.1/">
  <defs>
   <style id="current-color-scheme" type="text/css">
   .ColorScheme-Text { color: #0abdc6; } .ColorScheme-Highlight { color:#5294e2; }
  </style>
  <linearGradient id="arrongin" x1="0%" x2="0%" y1="0%" y2="100%">
   <stop offset="0%" style="stop-color:#dd9b44; stop-opacity:1"/>
   <stop offset="100%" style="stop-color:#ad6c16; stop-opacity:1"/>
  </linearGradient>
  <linearGradient id="aurora" x1="0%" x2="0%" y1="0%" y2="100%">
   <stop offset="0%" style="stop-color:#09D4DF; stop-opacity:1"/>
   <stop offset="100%" style="stop-color:#9269F4; stop-opacity:1"/>
  </linearGradient>
  <linearGradient id="cyberneon" x1="0%" x2="0%" y1="0%" y2="100%">
    <stop offset="0" style="stop-color:#0abdc6; stop-opacity:1"/>
    <stop offset="1" style="stop-color:#ea00d9; stop-opacity:1"/>
  </linearGradient>
  <linearGradient id="fitdance" x1="0%" x2="0%" y1="0%" y2="100%">
   <stop offset="0%" style="stop-color:#1AD6AB; stop-opacity:1"/>
   <stop offset="100%" style="stop-color:#329DB6; stop-opacity:1"/>
  </linearGradient>
  <linearGradient id="oomox" x1="0%" x2="0%" y1="0%" y2="100%">
   <stop offset="0%" style="stop-color:#0abdc6; stop-opacity:1"/>
   <stop offset="100%" style="stop-color:#b800ff; stop-opacity:1"/>
  </linearGradient>
  <linearGradient id="rainblue" x1="0%" x2="0%" y1="0%" y2="100%">
   <stop offset="0%" style="stop-color:#00F260; stop-opacity:1"/>
   <stop offset="100%" style="stop-color:#0575E6; stop-opacity:1"/>
  </linearGradient>
  <linearGradient id="sunrise" x1="0%" x2="0%" y1="0%" y2="100%">
   <stop offset="0%" style="stop-color: #FF8501; stop-opacity:1"/>
   <stop offset="100%" style="stop-color: #FFCB01; stop-opacity:1"/>
  </linearGradient>
  <linearGradient id="telinkrin" x1="0%" x2="0%" y1="0%" y2="100%">
   <stop offset="0%" style="stop-color: #b2ced6; stop-opacity:1"/>
   <stop offset="100%" style="stop-color: #6da5b7; stop-opacity:1"/>
  </linearGradient>
  <linearGradient id="60spsycho" x1="0%" x2="0%" y1="0%" y2="100%">
   <stop offset="0%" style="stop-color: #df5940; stop-opacity:1"/>
   <stop offset="25%" style="stop-color: #d8d15f; stop-opacity:1"/>
   <stop offset="50%" style="stop-color: #e9882a; stop-opacity:1"/>
   <stop offset="100%" style="stop-color: #279362; stop-opacity:1"/>
  </linearGradient>
  <linearGradient id="90ssummer" x1="0%" x2="0%" y1="0%" y2="100%">
   <stop offset="0%" style="stop-color: #f618c7; stop-opacity:1"/>
   <stop offset="20%" style="stop-color: #94ffab; stop-opacity:1"/>
   <stop offset="50%" style="stop-color: #fbfd54; stop-opacity:1"/>
   <stop offset="100%" style="stop-color: #0f83ae; stop-opacity:1"/>
  </linearGradient>
 </defs>
  <path
     id="rect2"
     class="ColorScheme-Text"
     style="fill:url(#oomox);stroke-width:0.381429;stroke:none;opacity:1"
     d="M 3.0546875 0.76171875 C 2.2083898 0.76171875 1.5273437 1.4427648 1.5273438 2.2890625 L 1.5273438 2.7714844 A 3.7556459 4.2844888 17.281191 0 1 2.2558594 2.4609375 A 3.7556459 4.2844888 17.281191 0 1 2.9414062 2.3261719 A 3.7556459 4.2844888 17.281191 0 1 3.6269531 2.3320312 A 3.7556459 4.2844888 17.281191 0 1 5.7441406 3.4238281 L 6.875 2.7421875 L 6.8730469 4.2578125 L 6.8730469 5.3339844 L 11.839844 5.3339844 C 12.050891 5.3339844 12.220703 5.5037969 12.220703 5.7148438 C 12.220703 5.9258903 12.050891 6.0957031 11.839844 6.0957031 L 4.9628906 6.0957031 C 4.7518438 6.0957031 4.5820312 5.9258903 4.5820312 5.7148438 C 4.5820312 5.5037969 4.7518438 5.3339844 4.9628906 5.3339844 L 5.8769531 5.3339844 L 5.4199219 5.1328125 L 3.9667969 4.4921875 L 4.9335938 3.9101562 A 3.7556459 4.2844888 17.281191 0 0 2.2402344 3.59375 A 3.7556459 4.2844888 17.281191 0 0 2.1152344 3.6367188 L 1.5273438 3.3085938 L 1.5273438 14.472656 C 1.5273437 15.318953 2.2083898 16 3.0546875 16 L 13.748047 16 C 14.594344 16 15.275391 15.318953 15.275391 14.472656 L 15.275391 2.2890625 C 15.275391 1.4427648 14.594344 0.76171875 13.748047 0.76171875 L 3.0546875 0.76171875 z M 4.9628906 8.7617188 L 11.839844 8.7617188 C 12.050891 8.7617188 12.220703 8.9315311 12.220703 9.1425781 C 12.220703 9.3536251 12.050891 9.5234375 11.839844 9.5234375 L 4.9628906 9.5234375 C 4.7518436 9.5234375 4.5820312 9.3536251 4.5820312 9.1425781 C 4.5820312 8.9315311 4.7518436 8.7617187 4.9628906 8.7617188 z M 4.9628906 12.191406 L 11.839844 12.191406 C 12.050891 12.191406 12.220703 12.361218 12.220703 12.572266 C 12.220703 12.783312 12.050891 12.953125 11.839844 12.953125 L 4.9628906 12.953125 C 4.7518434 12.953125 4.5820312 12.783312 4.5820312 12.572266 C 4.5820312 12.361218 4.7518434 12.191406 4.9628906 12.191406 z " />
  <path
     id="circle5-3"
     class="ColorScheme-Text"
     style="color:#0abdc6;fill:#000000;fill-opacity:0.526589;stroke:none;stroke-width:0.403413"
     d="M 4.4084793,0 C 1.9733987,-1.289426e-4 -5.4019671e-4,2.0004612 1.0854753e-7,4.4680004 5.9495773e-4,6.9347264 1.9742014,8.934047 4.4084793,8.9339181 6.8427575,8.9340473 8.8163641,6.9347265 8.816959,4.4680004 8.8174992,2.000461 6.8435602,-1.2917353e-4 4.4084793,0 Z m -1.29262,2.1772754 c 0.1208656,6.955e-4 0.2412278,0.00764 0.3607124,0.02082 0.8497902,0.096132 1.9599191,0.1926399 2.5510143,0.8520315 L 7.214248,2.3235045 V 4.5387889 L 7.2122543,6.1544312 5.6873719,5.4715309 3.3340338,4.7886305 4.3485374,4.1681906 C 3.5023836,3.658591 3.3235918,3.53838 2.3507791,3.8309045 2.3075713,3.8453782 2.2645258,3.8606484 2.2216605,3.8767088 L 0.79787237,2.9705225 C 1.1814902,2.6847719 1.5998736,2.4701508 2.0357717,2.3355085 2.2729085,2.2640417 2.5136867,2.2166552 2.7551469,2.1939315 2.875508,2.1822292 2.9958684,2.1766715 3.1158593,2.1772754 Z" />
  <path
     id="circle5"
     class="ColorScheme-Text"
     style="fill:url(#oomox);stroke-width:0.381429;stroke:none"
     d="M 4.2011719 0 A 4.2009525 4.1904764 0 0 0 0 4.1914062 A 4.2009525 4.1904764 0 0 0 4.2011719 8.3808594 A 4.2009525 4.1904764 0 0 0 8.4023438 4.1914062 A 4.2009525 4.1904764 0 0 0 4.2011719 0 z M 3.2851562 2.3125 A 3.7556459 4.2844888 17.281191 0 1 3.6289062 2.3320312 A 3.7556459 4.2844888 17.281191 0 1 5.7441406 3.4238281 L 6.875 2.7421875 L 6.875 4.2578125 L 6.8730469 5.7734375 L 5.4199219 5.1328125 L 3.9667969 4.4921875 L 4.9335938 3.9101562 A 3.7556459 4.2844888 17.281191 0 0 2.2402344 3.59375 A 3.7556459 4.2844888 17.281191 0 0 2.1171875 3.6367188 L 1.0761719 3.0566406 A 3.7556459 4.2844888 17.281191 0 1 2.2558594 2.4609375 A 3.7556459 4.2844888 17.281191 0 1 2.9414062 2.328125 A 3.7556459 4.2844888 17.281191 0 1 3.2851562 2.3125 z " />
  <metadata
     id="metadata5">
    <rdf:RDF>
      <cc:Work
         rdf:about="">
        <dc:creator>
          <cc:Agent>
            <dc:title>dreifacherspass</dc:title>
          </cc:Agent>
        </dc:creator>
        <cc:license
           rdf:resource="http://creativecommons.org/licenses/by-sa/4.0/" />
      </cc:Work>
      <cc:License
         rdf:about="http://creativecommons.org/licenses/by-sa/4.0/">
        <cc:permits
           rdf:resource="http://creativecommons.org/ns#Reproduction" />
        <cc:permits
           rdf:resource="http://creativecommons.org/ns#Distribution" />
        <cc:requires
           rdf:resource="http://creativecommons.org/ns#Notice" />
        <cc:requires
           rdf:resource="http://creativecommons.org/ns#Attribution" />
        <cc:permits
           rdf:resource="http://creativecommons.org/ns#DerivativeWorks" />
        <cc:requires
           rdf:resource="http://creativecommons.org/ns#ShareAlike" />
      </cc:License>
    </rdf:RDF>
  </metadata>
</svg>
