<?xml version="1.0" encoding="UTF-8" standalone="no"?>
<svg
   height="16"
   width="16"
   version="1.1"
   id="svg6"
   xmlns="http://www.w3.org/2000/svg"
   xmlns:svg="http://www.w3.org/2000/svg"
   xmlns:rdf="http://www.w3.org/1999/02/22-rdf-syntax-ns#"
   xmlns:cc="http://creativecommons.org/ns#"
   xmlns:dc="http://purl.org/dc/elements/1.1/">
   <defs>
      <style id="current-color-scheme" type="text/css">
         .ColorScheme-Text { color: #0abdc6; } .ColorScheme-Highlight { color:#5294e2; }
      </style>
      <linearGradient id="arrongin" x1="0%" x2="0%" y1="0%" y2="100%">
         <stop offset="0%" style="stop-color:#dd9b44; stop-opacity:1"/>
         <stop offset="100%" style="stop-color:#ad6c16; stop-opacity:1"/>
      </linearGradient>
      <linearGradient id="aurora" x1="0%" x2="0%" y1="0%" y2="100%">
         <stop offset="0%" style="stop-color:#09D4DF; stop-opacity:1"/>
         <stop offset="100%" style="stop-color:#9269F4; stop-opacity:1"/>
      </linearGradient>
      <linearGradient id="cyberneon" x1="0%" x2="0%" y1="0%" y2="100%">
         <stop offset="0" style="stop-color:#0abdc6; stop-opacity:1"/>
         <stop offset="1" style="stop-color:#ea00d9; stop-opacity:1"/>
      </linearGradient>
      <linearGradient id="fitdance" x1="0%" x2="0%" y1="0%" y2="100%">
         <stop offset="0%" style="stop-color:#1AD6AB; stop-opacity:1"/>
         <stop offset="100%" style="stop-color:#329DB6; stop-opacity:1"/>
      </linearGradient>
      <linearGradient id="oomox" x1="0%" x2="0%" y1="0%" y2="100%">
         <stop offset="0%" style="stop-color:#0abdc6; stop-opacity:1"/>
         <stop offset="100%" style="stop-color:#b800ff; stop-opacity:1"/>
      </linearGradient>
      <linearGradient id="rainblue" x1="0%" x2="0%" y1="0%" y2="100%">
         <stop offset="0%" style="stop-color:#00F260; stop-opacity:1"/>
         <stop offset="100%" style="stop-color:#0575E6; stop-opacity:1"/>
      </linearGradient>
      <linearGradient id="sunrise" x1="0%" x2="0%" y1="0%" y2="100%">
         <stop offset="0%" style="stop-color: #FF8501; stop-opacity:1"/>
         <stop offset="100%" style="stop-color: #FFCB01; stop-opacity:1"/>
      </linearGradient>
      <linearGradient id="telinkrin" x1="0%" x2="0%" y1="0%" y2="100%">
         <stop offset="0%" style="stop-color: #b2ced6; stop-opacity:1"/>
         <stop offset="100%" style="stop-color: #6da5b7; stop-opacity:1"/>
      </linearGradient>
      <linearGradient id="60spsycho" x1="0%" x2="0%" y1="0%" y2="100%">
         <stop offset="0%" style="stop-color: #df5940; stop-opacity:1"/>
         <stop offset="25%" style="stop-color: #d8d15f; stop-opacity:1"/>
         <stop offset="50%" style="stop-color: #e9882a; stop-opacity:1"/>
         <stop offset="100%" style="stop-color: #279362; stop-opacity:1"/>
      </linearGradient>
      <linearGradient id="90ssummer" x1="0%" x2="0%" y1="0%" y2="100%">
         <stop offset="0%" style="stop-color: #f618c7; stop-opacity:1"/>
         <stop offset="20%" style="stop-color: #94ffab; stop-opacity:1"/>
         <stop offset="50%" style="stop-color: #fbfd54; stop-opacity:1"/>
         <stop offset="100%" style="stop-color: #0f83ae; stop-opacity:1"/>
      </linearGradient>
   </defs>
  <path
     id="path1"
     class="ColorScheme-Text"
     style="display:inline;opacity:1;fill:url(#oomox);stroke-width:0.131599"
     d="M 3.8546298,0.07646387 2.8018374,1.1292563 V 2.971643 h 6.0535563 l -6.3167544,9.211934 v 2.237184 H 12.540167 l 0.921194,-0.921194 V 11.262383 H 6.8814079 L 12.934965,2.3136478 V 0.07646387 Z m 0.263198,0.52639619 H 12.540167 V 2.1820487 L 6.0918136,11.65718 h 6.9747504 v 1.710788 H 3.8546298 V 11.65718 L 10.434582,1.9188506 H 4.1178278 Z" />
  <path
     d="M 4.1178278,0.60286006 H 12.540167 V 2.1820487 L 6.0918136,11.65718 h 6.9747504 v 1.710788 H 3.8546298 V 11.65718 L 10.434582,1.9188506 H 4.1178278 Z"
     id="path2"
     style="display:inline;opacity:0;fill:url(#oomox);stroke-width:0.131599" />
  <path
     d="M 36,18 V 9 H 99 M 84,18 34,92 v 13 M 50,93 h 52 v 12"
     id="path3"
     class="ColorScheme-Text"
     style="display:inline;opacity:1;fill:none;stroke:url(#oomox)"
     transform="matrix(0.13159905,0,0,0.13159905,-0.48813885,-0.44993233)" />
  <path
     id="path4"
     class="ColorScheme-Text"
     style="display:inline;opacity:1;fill:url(#oomox);stroke-width:0.131599"
     d="M 8.7929688 0 C 8.5785303 0.009839418 8.4073322 0.086852755 8.3203125 0.2890625 C 8.2012156 0.56594634 8.8026321 0.68242629 8.9355469 0.953125 C 9.2167735 1.5255798 8.6168782 2.7635163 9.25 2.8398438 C 9.9132578 2.9197242 9.3725153 0.9509345 10.039062 0.99804688 C 10.673633 1.0429221 9.9009611 2.8306318 10.537109 2.8398438 C 11.178391 2.8491836 10.457359 1.0924033 11.091797 0.99804688 C 11.404739 0.95159246 11.309094 1.8498819 11.619141 1.7871094 C 11.910104 1.7282844 11.690117 1.192678 11.787109 0.91210938 C 11.874099 0.66075569 12.294997 0.42776414 12.152344 0.203125 C 12.056359 0.051827518 11.909831 -0.00072385291 11.734375 0 C 11.348372 0.0015924764 10.827608 0.25807834 10.433594 0.26757812 C 9.9494659 0.27906836 9.2647334 -0.02164672 8.7929688 0 z M 7.2929688 1.1132812 C 7.0359887 1.1544362 6.8490302 1.6913269 6.5449219 1.7265625 C 6.2429026 1.7614363 6.0011272 1.3794182 5.6972656 1.3925781 C 5.4032738 1.4054748 5.2019316 1.8051385 4.9082031 1.7871094 C 4.5403844 1.7646059 4.3526993 1.1355121 3.9863281 1.1757812 C 3.4911219 1.2302633 3.1439641 1.7926734 2.9511719 2.2519531 C 2.7657493 2.6935987 2.4652417 3.5075837 2.9082031 3.6894531 C 3.0442763 3.7452511 3.0668576 3.3279918 3.2089844 3.3652344 C 3.7328792 3.5024918 3.0506626 4.9683423 3.5917969 4.9453125 C 4.1681995 4.9208351 3.2841983 3.3151766 3.8554688 3.234375 C 4.1688053 3.1901577 3.9382009 4.1180749 4.2539062 4.0957031 C 4.5531621 4.0745157 4.2123315 3.2512197 4.5117188 3.234375 C 4.8453216 3.2155564 4.5743371 4.1670411 4.9082031 4.15625 C 5.3236605 4.1426953 4.9083666 2.9804688 5.3242188 2.9804688 C 5.9722107 2.9808634 5.3228631 4.8676191 5.96875 4.8144531 C 6.4569814 4.7743156 5.7353459 3.4157682 6.2226562 3.3652344 C 6.4576918 3.3408886 6.2507664 4.041335 6.4863281 4.0234375 C 6.7341287 4.0047505 6.4838556 3.4778024 6.65625 3.2988281 C 6.904577 3.0410261 7.495982 3.3155386 7.6914062 3.015625 C 8.0383007 2.4827815 7.9919754 1.3807864 7.4082031 1.1289062 C 7.3680491 1.1116011 7.3296801 1.1074021 7.2929688 1.1132812 z M 11.947266 2.65625 C 11.885184 2.6597929 11.825912 2.6688875 11.773438 2.6835938 C 11.58354 2.7367597 11.52102 2.9963941 11.355469 3.1035156 C 11.195313 3.2073468 10.92796 3.1489852 10.820312 3.3066406 C 10.660703 3.5406235 10.948254 3.8988425 10.830078 4.15625 C 10.746644 4.3379881 10.470194 4.3692581 10.371094 4.5429688 C 10.303584 4.6612761 10.394194 4.8442445 10.302734 4.9453125 C 10.169162 5.0928352 9.8573718 4.9516713 9.7265625 5.1015625 C 9.5866736 5.2619816 9.6426913 5.5215795 9.6445312 5.734375 C 9.6492687 6.2841953 9.8190769 6.8215783 9.8867188 7.3671875 C 9.9497547 7.8747645 9.5276692 8.8873141 10.039062 8.8925781 C 10.937094 8.9020532 9.9487025 7.0134758 10.367188 6.21875 C 10.518131 5.9319959 10.963297 5.8717431 11.095703 5.5761719 C 11.163703 5.4243067 11.013097 5.2225099 11.091797 5.0761719 C 11.19826 4.8781156 11.521077 4.8873009 11.658203 4.7089844 C 11.859024 4.4478921 11.84441 4.0753671 11.966797 3.7695312 C 12.094448 3.4510619 12.555462 3.1497591 12.408203 2.8398438 C 12.338028 2.6921901 12.133511 2.6456214 11.947266 2.65625 z M 8.6933594 3.8261719 C 7.7383259 3.7990236 6.7246268 5.5193004 6.8808594 6.5253906 C 6.9536335 6.9942776 7.8524264 6.8909677 8.0664062 7.3144531 C 8.363425 7.902437 7.9451521 8.6309364 7.9726562 9.2890625 C 7.9966071 9.863755 7.6221784 11.010549 8.1972656 10.998047 C 8.813675 10.984755 8.1710569 9.7431811 8.359375 9.15625 C 8.5115033 8.6822307 9.1546723 8.3678798 9.1191406 7.8710938 C 9.0941369 7.5216987 8.5495036 7.38978 8.4609375 7.0507812 C 8.1911598 6.0181245 9.9609498 4.3277757 8.9863281 3.8925781 C 8.8901458 3.849644 8.7921559 3.8289803 8.6933594 3.8261719 z M 4.9082031 4.8144531 C 4.9082031 4.8144531 4.3818075 6.65625 4.9082031 6.65625 C 5.4345987 6.65625 4.9082031 4.8144531 4.9082031 4.8144531 z M 5.875 7.796875 C 5.0348338 7.8188592 4.0549477 9.4738571 4.5117188 10.208984 C 4.64516 10.423753 5.0869348 9.9226988 5.2636719 10.103516 C 5.7469026 10.598195 4.2785993 11.899716 4.9238281 12.148438 C 5.2746704 12.283588 5.3464435 11.526353 5.5351562 11.201172 C 5.6893901 10.935342 5.9538275 10.690096 5.9609375 10.382812 C 5.9658067 10.174098 5.7199006 10.021853 5.6972656 9.8144531 C 5.6243599 9.1459313 6.7480576 8.1106323 6.1308594 7.84375 C 6.0486801 7.8082183 5.9619137 7.7946008 5.875 7.796875 z M 12.175781 11.259766 C 12.14674 11.258729 12.117364 11.259246 12.087891 11.261719 C 11.8914 11.278207 11.694481 11.371585 11.619141 11.525391 C 11.472145 11.825435 12.085392 12.1209 12.013672 12.447266 C 11.886811 13.023668 11.284327 13.570459 10.697266 13.630859 C 10.090989 13.693105 9.2803492 13.296574 9.1191406 12.708984 C 8.9996488 12.273393 10.005274 11.915185 9.7773438 11.525391 C 9.6107396 11.240506 9.1167642 11.504001 8.7871094 11.519531 C 8.3257239 11.541113 7.5362488 11.212498 7.4082031 11.65625 C 7.2694981 12.13685 8.5944269 12.07805 8.5917969 12.578125 C 8.5903493 12.853693 8.2046873 13.029035 7.9335938 13.078125 C 7.6631582 13.12708 7.4190465 12.828377 7.1445312 12.841797 C 6.7763179 12.859826 6.4895704 13.272509 6.1210938 13.261719 C 5.5846971 13.246059 5.0785362 12.912138 4.6699219 12.564453 C 4.3076303 12.256248 4.3092213 11.252009 3.8554688 11.394531 C 2.9358564 11.611669 2.6921914 13.08696 2.8027344 14.025391 C 2.8414243 14.35386 3.0636372 14.723816 3.375 14.835938 C 3.8731014 15.014911 4.4455017 14.162778 4.9082031 14.419922 C 5.3085266 14.642325 4.8449022 15.723168 5.3027344 15.736328 C 5.8159697 15.750935 5.3154161 14.262349 5.828125 14.289062 C 6.1893636 14.307749 5.7331901 15.294422 6.0917969 15.341797 C 6.5394959 15.400754 6.2999322 14.121092 6.75 14.158203 C 7.3999665 14.211632 6.7563945 16.021056 7.4082031 16 C 8.0464574 15.979339 7.2995508 14.234925 7.9335938 14.158203 C 8.2846993 14.115697 8.1074633 15.065887 8.4609375 15.078125 C 8.7770378 15.088916 8.670491 14.269324 8.9863281 14.289062 C 9.3779661 14.313408 9.1217708 15.32311 9.5136719 15.341797 C 9.9270237 15.361406 9.7585234 14.269324 10.171875 14.289062 C 10.759726 14.316961 10.378086 15.951131 10.960938 15.869141 C 11.44272 15.801236 10.889649 14.782856 11.228516 14.433594 C 11.395119 14.261985 11.723604 14.160074 11.929688 14.28125 C 12.40607 14.561556 11.8572 15.914151 12.408203 15.869141 C 12.860509 15.832161 12.423019 14.941195 12.585938 14.517578 C 12.715035 14.182132 13.147526 13.986834 13.197266 13.630859 C 13.309915 12.824816 13.130355 11.704865 12.414062 11.318359 C 12.346257 11.281792 12.262906 11.262877 12.175781 11.259766 z " />
  <metadata
     id="metadata39">
    <rdf:RDF>
      <cc:Work
         rdf:about="">
        <dc:creator>
          <cc:Agent>
            <dc:title>dreifacherspass</dc:title>
          </cc:Agent>
        </dc:creator>
        <cc:license
           rdf:resource="http://creativecommons.org/licenses/by-sa/4.0/" />
      </cc:Work>
      <cc:License
         rdf:about="http://creativecommons.org/licenses/by-sa/4.0/">
        <cc:permits
           rdf:resource="http://creativecommons.org/ns#Reproduction" />
        <cc:permits
           rdf:resource="http://creativecommons.org/ns#Distribution" />
        <cc:requires
           rdf:resource="http://creativecommons.org/ns#Notice" />
        <cc:requires
           rdf:resource="http://creativecommons.org/ns#Attribution" />
        <cc:permits
           rdf:resource="http://creativecommons.org/ns#DerivativeWorks" />
        <cc:requires
           rdf:resource="http://creativecommons.org/ns#ShareAlike" />
      </cc:License>
    </rdf:RDF>
  </metadata>
</svg>
