<?xml version="1.0" encoding="UTF-8" standalone="no"?>

<svg
   height="16"
   width="16"
   version="1.1"
   id="Capa_1"
   viewBox="0 0 9.692 9.692"
   xml:space="preserve"
   xmlns:xlink="http://www.w3.org/1999/xlink"
   xmlns="http://www.w3.org/2000/svg"
   xmlns:svg="http://www.w3.org/2000/svg"
   xmlns:rdf="http://www.w3.org/1999/02/22-rdf-syntax-ns#"
   xmlns:cc="http://creativecommons.org/ns#"
   xmlns:dc="http://purl.org/dc/elements/1.1/">
  <defs>
    <style id="current-color-scheme" type="text/css">
      .ColorScheme-Text { color: #0abdc6; } .ColorScheme-Highlight { color:#5294e2; }
    </style>
    <linearGradient id="arrongin" x1="0%" x2="0%" y1="0%" y2="100%">
      <stop offset="0%" style="stop-color:#dd9b44; stop-opacity:1"/>
      <stop offset="100%" style="stop-color:#ad6c16; stop-opacity:1"/>
    </linearGradient>
    <linearGradient id="aurora" x1="0%" x2="0%" y1="0%" y2="100%">
      <stop offset="0%" style="stop-color:#09D4DF; stop-opacity:1"/>
      <stop offset="100%" style="stop-color:#9269F4; stop-opacity:1"/>
    </linearGradient>
    <linearGradient id="cyberneon" x1="0%" x2="0%" y1="0%" y2="100%">
      <stop offset="0" style="stop-color:#0abdc6; stop-opacity:1"/>
      <stop offset="1" style="stop-color:#ea00d9; stop-opacity:1"/>
    </linearGradient>
    <linearGradient id="fitdance" x1="0%" x2="0%" y1="0%" y2="100%">
      <stop offset="0%" style="stop-color:#1AD6AB; stop-opacity:1"/>
      <stop offset="100%" style="stop-color:#329DB6; stop-opacity:1"/>
    </linearGradient>
    <linearGradient id="oomox" x1="0%" x2="0%" y1="0%" y2="100%">
      <stop offset="0%" style="stop-color:#0abdc6; stop-opacity:1"/>
      <stop offset="100%" style="stop-color:#b800ff; stop-opacity:1"/>
    </linearGradient>
    <linearGradient id="rainblue" x1="0%" x2="0%" y1="0%" y2="100%">
      <stop offset="0%" style="stop-color:#00F260; stop-opacity:1"/>
      <stop offset="100%" style="stop-color:#0575E6; stop-opacity:1"/>
    </linearGradient>
    <linearGradient id="sunrise" x1="0%" x2="0%" y1="0%" y2="100%">
      <stop offset="0%" style="stop-color: #FF8501; stop-opacity:1"/>
      <stop offset="100%" style="stop-color: #FFCB01; stop-opacity:1"/>
    </linearGradient>
    <linearGradient id="telinkrin" x1="0%" x2="0%" y1="0%" y2="100%">
      <stop offset="0%" style="stop-color: #b2ced6; stop-opacity:1"/>
      <stop offset="100%" style="stop-color: #6da5b7; stop-opacity:1"/>
    </linearGradient>
    <linearGradient id="60spsycho" x1="0%" x2="0%" y1="0%" y2="100%">
      <stop offset="0%" style="stop-color: #df5940; stop-opacity:1"/>
      <stop offset="25%" style="stop-color: #d8d15f; stop-opacity:1"/>
      <stop offset="50%" style="stop-color: #e9882a; stop-opacity:1"/>
      <stop offset="100%" style="stop-color: #279362; stop-opacity:1"/>
    </linearGradient>
    <linearGradient id="90ssummer" x1="0%" x2="0%" y1="0%" y2="100%">
      <stop offset="0%" style="stop-color: #f618c7; stop-opacity:1"/>
      <stop offset="20%" style="stop-color: #94ffab; stop-opacity:1"/>
      <stop offset="50%" style="stop-color: #fbfd54; stop-opacity:1"/>
      <stop offset="100%" style="stop-color: #0f83ae; stop-opacity:1"/>
    </linearGradient>
  </defs>
<path
   d="m 8.578,8.84 c 0,0.156 -0.128,0.284 -0.284,0.284 H 1.722 C 1.566,9.124 1.438,8.996 1.438,8.84 V 8.724 h 6.118 c 0.312,0 0.566,-0.254 0.566,-0.566 V 0.566 C 8.122,0.252 7.868,0 7.556,0 H 1.438 C 1.126,0 0.872,0.254 0.872,0.566 v 7.592 c 0,0.002 0,0.002 0,0.004 v 0.68 c 0,0.468 0.382,0.85 0.85,0.85 h 6.572 c 0.468,0 0.85,-0.382 0.85,-0.85 V 7.664 H 8.578 Z M 2.478,2.988 C 2.49,2.834 2.548,2.702 2.662,2.594 2.784,2.478 2.9,2.356 3.02,2.236 c 0.158,-0.154 0.354,-0.154 0.512,0 0.098,0.096 0.194,0.192 0.29,0.29 0.094,0.094 0.188,0.188 0.282,0.282 0.164,0.166 0.164,0.36 0,0.524 C 3.986,3.45 3.87,3.57 3.75,3.684 3.718,3.714 3.716,3.74 3.732,3.778 3.81,3.968 3.924,4.134 4.052,4.292 4.31,4.608 4.6,4.89 4.948,5.108 5.022,5.154 5.104,5.188 5.182,5.23 5.222,5.252 5.25,5.244 5.282,5.212 5.4,5.09 5.52,4.972 5.64,4.854 5.796,4.698 5.994,4.698 6.152,4.854 6.344,5.044 6.536,5.236 6.728,5.43 6.888,5.592 6.886,5.788 6.726,5.952 6.618,6.062 6.502,6.166 6.4,6.282 6.25,6.45 6.062,6.504 5.848,6.492 5.536,6.474 5.248,6.372 4.97,6.236 4.352,5.936 3.826,5.52 3.384,4.996 3.058,4.608 2.788,4.184 2.61,3.708 2.52,3.474 2.46,3.238 2.478,2.988 Z"
   id="path_book"
   class="ColorScheme-Text"
   style="fill:url(#oomox);stroke-width:0.02" />
<path
   d="M 9.352,3.202 H 8.596 v 1.662 h 0.756 c 0.188,0 0.34,-0.152 0.34,-0.34 V 3.542 c 0,-0.188 -0.152,-0.34 -0.34,-0.34 z"
   id="path_bookmark_1"
   class="ColorScheme-Text"
   style="fill:url(#oomox);stroke-width:0.02" />
<path
   d="M 9.352,5.412 H 8.596 v 1.662 h 0.756 c 0.188,0 0.34,-0.152 0.34,-0.34 V 5.752 c 0,-0.188 -0.152,-0.34 -0.34,-0.34 z"
   id="path_bookmark_2"
   class="ColorScheme-Text"
   style="fill:url(#oomox);stroke-width:0.02" />
<path
   d="M 9.352,0.992 H 8.596 v 1.662 h 0.756 c 0.188,0 0.34,-0.152 0.34,-0.34 V 1.332 c 0,-0.188 -0.152,-0.34 -0.34,-0.34 z"
   id="path_bookmark_3"
   class="ColorScheme-Text"
   style="fill:url(#oomox);stroke-width:0.02" />
<metadata
   id="metadata5"><rdf:RDF><cc:Work
       rdf:about=""><dc:creator><cc:Agent><dc:title>dreifacherspass</dc:title></cc:Agent></dc:creator><cc:license
         rdf:resource="http://creativecommons.org/licenses/by-sa/4.0/" /></cc:Work><cc:License
       rdf:about="http://creativecommons.org/licenses/by-sa/4.0/"><cc:permits
         rdf:resource="http://creativecommons.org/ns#Reproduction" /><cc:permits
         rdf:resource="http://creativecommons.org/ns#Distribution" /><cc:requires
         rdf:resource="http://creativecommons.org/ns#Notice" /><cc:requires
         rdf:resource="http://creativecommons.org/ns#Attribution" /><cc:permits
         rdf:resource="http://creativecommons.org/ns#DerivativeWorks" /><cc:requires
         rdf:resource="http://creativecommons.org/ns#ShareAlike" /></cc:License></rdf:RDF>
  </metadata>
</svg>
