<?xml version="1.0" encoding="UTF-8" standalone="no"?>
<svg
   width="16"
   height="16"
   version="1.1"
   id="svg5559"
   xmlns:xlink="http://www.w3.org/1999/xlink"
   xmlns="http://www.w3.org/2000/svg"
   xmlns:svg="http://www.w3.org/2000/svg"
   xmlns:rdf="http://www.w3.org/1999/02/22-rdf-syntax-ns#"
   xmlns:cc="http://creativecommons.org/ns#"
   xmlns:dc="http://purl.org/dc/elements/1.1/">
  <defs>
   <style id="current-color-scheme" type="text/css">
   .ColorScheme-Text { color: #0abdc6; } .ColorScheme-Highlight { color:#5294e2; }
  </style>
  <linearGradient id="arrongin" x1="0%" x2="0%" y1="0%" y2="100%">
   <stop offset="0%" style="stop-color:#dd9b44; stop-opacity:1"/>
   <stop offset="100%" style="stop-color:#ad6c16; stop-opacity:1"/>
  </linearGradient>
  <linearGradient id="aurora" x1="0%" x2="0%" y1="0%" y2="100%">
   <stop offset="0%" style="stop-color:#09D4DF; stop-opacity:1"/>
   <stop offset="100%" style="stop-color:#9269F4; stop-opacity:1"/>
  </linearGradient>
  <linearGradient id="cyberneon" x1="0%" x2="0%" y1="0%" y2="100%">
    <stop offset="0" style="stop-color:#0abdc6; stop-opacity:1"/>
    <stop offset="1" style="stop-color:#ea00d9; stop-opacity:1"/>
  </linearGradient>
  <linearGradient id="fitdance" x1="0%" x2="0%" y1="0%" y2="100%">
   <stop offset="0%" style="stop-color:#1AD6AB; stop-opacity:1"/>
   <stop offset="100%" style="stop-color:#329DB6; stop-opacity:1"/>
  </linearGradient>
  <linearGradient id="oomox" x1="0%" x2="0%" y1="0%" y2="100%">
   <stop offset="0%" style="stop-color:#0abdc6; stop-opacity:1"/>
   <stop offset="100%" style="stop-color:#b800ff; stop-opacity:1"/>
  </linearGradient>
  <linearGradient id="rainblue" x1="0%" x2="0%" y1="0%" y2="100%">
   <stop offset="0%" style="stop-color:#00F260; stop-opacity:1"/>
   <stop offset="100%" style="stop-color:#0575E6; stop-opacity:1"/>
  </linearGradient>
  <linearGradient id="sunrise" x1="0%" x2="0%" y1="0%" y2="100%">
   <stop offset="0%" style="stop-color: #FF8501; stop-opacity:1"/>
   <stop offset="100%" style="stop-color: #FFCB01; stop-opacity:1"/>
  </linearGradient>
  <linearGradient id="telinkrin" x1="0%" x2="0%" y1="0%" y2="100%">
   <stop offset="0%" style="stop-color: #b2ced6; stop-opacity:1"/>
   <stop offset="100%" style="stop-color: #6da5b7; stop-opacity:1"/>
  </linearGradient>
  <linearGradient id="60spsycho" x1="0%" x2="0%" y1="0%" y2="100%">
   <stop offset="0%" style="stop-color: #df5940; stop-opacity:1"/>
   <stop offset="25%" style="stop-color: #d8d15f; stop-opacity:1"/>
   <stop offset="50%" style="stop-color: #e9882a; stop-opacity:1"/>
   <stop offset="100%" style="stop-color: #279362; stop-opacity:1"/>
  </linearGradient>
  <linearGradient id="90ssummer" x1="0%" x2="0%" y1="0%" y2="100%">
   <stop offset="0%" style="stop-color: #f618c7; stop-opacity:1"/>
   <stop offset="20%" style="stop-color: #94ffab; stop-opacity:1"/>
   <stop offset="50%" style="stop-color: #fbfd54; stop-opacity:1"/>
   <stop offset="100%" style="stop-color: #0f83ae; stop-opacity:1"/>
  </linearGradient>
 </defs>
  <path
     style="fill:url(#oomox);fill-opacity:1;stroke-width:0.516119"
     d="M 4.5253903,8.7743127 C 3.43461,8.7743188 2.4843128,9.1037595 1.6756392,9.7611913 0.87165395,10.414339 0.3499219,11.289411 0.1101407,12.38514 -0.12494167,13.476577 0.01634162,14.352395 0.53352081,15.014129 1.0506998,15.671569 1.8549983,16 2.9457793,16 3.7732589,16 4.489426,15.808852 5.0959459,15.426421 5.7024449,15.043989 6.178097,14.487583 6.521326,13.757093 H 5.4779959 c -0.2397916,0.537125 -0.5576739,0.939214 -0.9526056,1.205626 -0.3902376,0.266414 -0.86589,0.399188 -1.4253797,0.399187 -0.7052472,1e-6 -1.1822489,-0.24952 -1.4314278,-0.747972 -0.2444852,-0.498449 -0.2575952,-1.240485 -0.04133,-2.228794 0.2162716,-0.988303 0.5567,-1.730603 1.0221602,-2.224762 0.47016,-0.4984439 1.055471,-0.7479659 1.7560194,-0.7479714 0.6159071,5.5e-6 1.0585913,0.1382989 1.3265917,0.4132998 0.2726886,0.2750146 0.3917675,0.7129206 0.3588646,1.3144946 H 6.8449089 L 7.225951,9.3872056 C 6.7981079,9.1809567 6.3587728,9.0283893 5.9074243,8.9295521 5.4607694,8.8264315 5.0002495,8.7743191 4.5253903,8.7743127 Z"
     id="path2"
     class="ColorScheme-Text"/>
  <path
     style="fill:url(#oomox);fill-opacity:1;stroke-width:0.516119"
     d="m 9.8065539,2.864 v 8.257928 h 2.0644821 v -0.994942 c 0.243418,0.340384 0.477118,0.591781 0.773173,0.755027 0.296044,0.159773 0.63729,0.239915 1.02216,0.239915 0.68091,0 1.239886,-0.284193 1.677392,-0.853816 C 15.781247,9.695017 15.99999,8.90665 16,8.0070604 15.99999,7.1074764 15.781247,6.3730948 15.343761,5.8034672 14.906255,5.2303768 14.347279,4.9436091 13.666369,4.9436033 c -0.38487,6.2e-6 -0.726116,0.081716 -1.02216,0.2449553 -0.296055,0.1597787 -0.529755,0.4096088 -0.773173,0.7499874 V 2.864 Z m 3.1007551,3.6128432 c 0.333891,5.8e-6 0.587876,0.1317838 0.762084,0.396163 0.177106,0.2643857 0.266121,0.6486159 0.266125,1.1521988 -4e-6,0.5035875 -0.08902,0.887818 -0.266125,1.152199 -0.174208,0.264384 -0.428193,0.396164 -0.762084,0.396163 -0.3339,10e-7 -0.590138,-0.131779 -0.770148,-0.396163 -0.177115,-0.267528 -0.26613,-0.6517591 -0.266125,-1.152199 -5e-6,-0.5004364 0.08901,-0.8827717 0.266125,-1.1471584 0.18001,-0.2675251 0.436248,-0.4011976 0.770148,-0.4012034 z"
     id="path1"
     class="ColorScheme-Text"/>
  <path
     style="fill:url(#oomox);fill-opacity:1;stroke-width:0.516119"
     d="M 5.6120664,0 C 5.2192487,6.1957447e-6 4.8150243,0.03562781 4.4003928,0.10584497 3.9857617,0.1725582 3.557967,0.27436296 3.1171473,0.41128354 V 1.3064301 C 3.483774,1.1449303 3.8661191,1.0232822 4.2632984,0.94252483 4.6604776,0.86177624 5.069072,0.82156426 5.4880763,0.82155911 6.1471234,0.82156426 6.6580456,0.9447426 7.0203091,1.1905047 7.3869297,1.4327666 7.5696906,1.5187966 7.5696957,1.9646855 v 0.099797 H 5.881215 c -1.0955088,4.1e-6 -1.9214662,0.1629434 -2.4757658,0.4999918 -0.5499378,0.3370565 -0.8245888,1.095473 -0.8245831,1.7590434 -5.7e-6,0.5687768 0.2204557,1.0243339 0.6612793,1.3648963 0.445186,0.3370536 1.0436112,0.5050325 1.7943254,0.5050325 0.5935772,0 1.0957481,-0.083486 1.5060238,-0.2520115 C 6.9527588,5.7693961 7.294721,5.5042039 7.5696957,5.1460844 V 6.1934461 H 8.7743125 V 2.6763673 C 8.7743013,1.7775645 8.5127891,1.1066883 7.9890434,0.66430339 7.4652923,0.22192769 6.672654,6.1957447e-6 5.6120664,0 Z m 0.8225671,2.5806026 h 1.307438 V 2.8699123 C 7.742066,3.7185508 7.5206693,4.4003384 7.0777682,4.9142335 6.6396201,5.4234148 6.0564405,5.6773266 5.3277971,5.6773256 4.7991626,5.6773266 4.3803183,5.5428419 4.0707612,5.2741069 3.7659636,5.0006597 3.6131071,4.6333389 3.6131071,4.1713025 c 0,-0.5798979 0.2053351,-0.9893687 0.6149092,-1.2298184 C 4.6375779,2.7010409 5.3726066,2.5806067 6.4346335,2.5806026 Z"
     id="path5557"
     class="ColorScheme-Text"/>
  <metadata
     id="metadata5682">
    <rdf:RDF>
      <cc:Work
         rdf:about="">
        <dc:creator>
          <cc:Agent>
            <dc:title>dreifacherspass</dc:title>
          </cc:Agent>
        </dc:creator>
        <cc:license
           rdf:resource="http://creativecommons.org/licenses/by-sa/4.0/" />
      </cc:Work>
      <cc:License
         rdf:about="http://creativecommons.org/licenses/by-sa/4.0/">
        <cc:permits
           rdf:resource="http://creativecommons.org/ns#Reproduction" />
        <cc:permits
           rdf:resource="http://creativecommons.org/ns#Distribution" />
        <cc:requires
           rdf:resource="http://creativecommons.org/ns#Notice" />
        <cc:requires
           rdf:resource="http://creativecommons.org/ns#Attribution" />
        <cc:permits
           rdf:resource="http://creativecommons.org/ns#DerivativeWorks" />
        <cc:requires
           rdf:resource="http://creativecommons.org/ns#ShareAlike" />
      </cc:License>
    </rdf:RDF>
  </metadata>
</svg>
