<?xml version="1.0" encoding="UTF-8" standalone="no"?>
<svg
   height="16"
   width="16"
   version="1.1"
   id="Layer_1"
   viewBox="0 0 10.23998 10.23998"
   xml:space="preserve"
   xmlns:xlink="http://www.w3.org/1999/xlink"
   xmlns="http://www.w3.org/2000/svg"
   xmlns:svg="http://www.w3.org/2000/svg"
   xmlns:rdf="http://www.w3.org/1999/02/22-rdf-syntax-ns#"
   xmlns:cc="http://creativecommons.org/ns#"
   xmlns:dc="http://purl.org/dc/elements/1.1/">
   <defs>
      <style id="current-color-scheme" type="text/css">
         .ColorScheme-Text { color: #0abdc6; } .ColorScheme-Highlight { color:#5294e2; }
      </style>
      <linearGradient id="arrongin" x1="0%" x2="0%" y1="0%" y2="100%">
         <stop offset="0%" style="stop-color:#dd9b44; stop-opacity:1"/>
         <stop offset="100%" style="stop-color:#ad6c16; stop-opacity:1"/>
      </linearGradient>
      <linearGradient id="aurora" x1="0%" x2="0%" y1="0%" y2="100%">
         <stop offset="0%" style="stop-color:#09D4DF; stop-opacity:1"/>
         <stop offset="100%" style="stop-color:#9269F4; stop-opacity:1"/>
      </linearGradient>
      <linearGradient id="cyberneon" x1="0%" x2="0%" y1="0%" y2="100%">
         <stop offset="0" style="stop-color:#0abdc6; stop-opacity:1"/>
         <stop offset="1" style="stop-color:#ea00d9; stop-opacity:1"/>
      </linearGradient>
      <linearGradient id="fitdance" x1="0%" x2="0%" y1="0%" y2="100%">
         <stop offset="0%" style="stop-color:#1AD6AB; stop-opacity:1"/>
         <stop offset="100%" style="stop-color:#329DB6; stop-opacity:1"/>
      </linearGradient>
      <linearGradient id="oomox" x1="0%" x2="0%" y1="0%" y2="100%">
         <stop offset="0%" style="stop-color:#0abdc6; stop-opacity:1"/>
         <stop offset="100%" style="stop-color:#b800ff; stop-opacity:1"/>
      </linearGradient>
      <linearGradient id="rainblue" x1="0%" x2="0%" y1="0%" y2="100%">
         <stop offset="0%" style="stop-color:#00F260; stop-opacity:1"/>
         <stop offset="100%" style="stop-color:#0575E6; stop-opacity:1"/>
      </linearGradient>
      <linearGradient id="sunrise" x1="0%" x2="0%" y1="0%" y2="100%">
         <stop offset="0%" style="stop-color: #FF8501; stop-opacity:1"/>
         <stop offset="100%" style="stop-color: #FFCB01; stop-opacity:1"/>
      </linearGradient>
      <linearGradient id="telinkrin" x1="0%" x2="0%" y1="0%" y2="100%">
         <stop offset="0%" style="stop-color: #b2ced6; stop-opacity:1"/>
         <stop offset="100%" style="stop-color: #6da5b7; stop-opacity:1"/>
      </linearGradient>
      <linearGradient id="60spsycho" x1="0%" x2="0%" y1="0%" y2="100%">
         <stop offset="0%" style="stop-color: #df5940; stop-opacity:1"/>
         <stop offset="25%" style="stop-color: #d8d15f; stop-opacity:1"/>
         <stop offset="50%" style="stop-color: #e9882a; stop-opacity:1"/>
         <stop offset="100%" style="stop-color: #279362; stop-opacity:1"/>
      </linearGradient>
      <linearGradient id="90ssummer" x1="0%" x2="0%" y1="0%" y2="100%">
         <stop offset="0%" style="stop-color: #f618c7; stop-opacity:1"/>
         <stop offset="20%" style="stop-color: #94ffab; stop-opacity:1"/>
         <stop offset="50%" style="stop-color: #fbfd54; stop-opacity:1"/>
         <stop offset="100%" style="stop-color: #0f83ae; stop-opacity:1"/>
      </linearGradient>
   </defs>
<path
   d="m 6.4081366,2.2899723 c 0.6314437,0 1.1449861,-0.5135209 1.1449861,-1.1449861 C 7.5531227,0.51354248 7.0396019,0 6.4081366,0 5.7766713,0 5.2631504,0.51354248 5.2631504,1.1449862 c 0,0.6314652 0.5135209,1.1449861 1.1449862,1.1449861 z"
   id="path1"
   class="ColorScheme-Text"
   style="fill:url(#oomox);stroke-width:0.0216174" />

<path
   d="M 9.6515222,9.3340821 8.9530862,1.3497892 C 8.9437252,1.2448368 8.8511812,1.166409 8.7464242,1.1763314 l -0.8169429,0.07138 c -0.053049,0.7938556 -0.7142814,1.423959 -1.5212799,1.423959 -0.3524713,0 -0.6764943,-0.1206034 -0.9348652,-0.3221206 L 4.8256579,2.9974227 c -0.037398,0.037203 -0.086059,0.055903 -0.1349141,0.055903 -0.048855,0 -0.09771,-0.018699 -0.134914,-0.055903 -0.074623,-0.074623 -0.074623,-0.1953995 0,-0.2698282 L 5.2037026,2.0795487 C 5.0750792,1.9135272 4.9794872,1.7205921 4.9275622,1.5104928 L 0.76195791,1.8747889 c -0.050563,0.00458 -0.097127,0.028621 -0.1295745,0.067554 -0.032642,0.038738 -0.048466,0.088739 -0.043883,0.1391079 L 1.2871309,10.065744 c 0.00878,0.09922 0.091982,0.174236 0.1898654,0.174236 0.00553,0 0.011068,-1.95e-4 0.016797,-7.57e-4 L 9.4780642,9.5407442 c 0.104952,-0.00914 0.182623,-0.1017097 0.173458,-0.2066621 z M 7.9741428,6.435386 c 0.00936,0.1051469 -0.068505,0.1978855 -0.1732633,0.2068567 L 7.420565,6.6756417 c -0.00573,5.621e-4 -0.011263,7.566e-4 -0.016991,7.566e-4 -0.097711,0 -0.1810888,-0.074796 -0.1898871,-0.1740415 -0.00917,-0.1051469 0.068505,-0.1976909 0.1734579,-0.2068567 L 7.7672861,6.262101 C 7.8756757,6.253151 7.9647825,6.330823 7.9741428,6.435386 Z M 7.8743354,5.2951772 c 0.00917,0.1049524 -0.068311,0.197518 -0.1734579,0.2066622 L 6.3700251,5.618249 c -0.00553,5.62e-4 -0.011068,7.566e-4 -0.016602,7.566e-4 -0.097905,0 -0.1812834,-0.074796 -0.19006,-0.1742361 -0.00897,-0.1049524 0.068505,-0.197518 0.1736524,-0.2066621 L 7.6676732,5.1216978 c 0.1045633,-0.00951 0.1973019,0.068527 0.2066622,0.1734794 z M 6.6600871,6.7422447 4.7588602,6.9084607 c -0.00553,5.621e-4 -0.011068,7.566e-4 -0.016797,7.566e-4 -0.097711,0 -0.1812834,-0.074991 -0.1898655,-0.1742361 -0.00917,-0.1049523 0.068505,-0.197518 0.1734579,-0.2066621 L 6.6268829,6.362103 c 0.1041957,-0.00878 0.197518,0.068505 0.2066621,0.1734579 0.00917,0.104974 -0.068311,0.197518 -0.1734579,0.2066838 z M 6.9976642,4.030928 7.5678658,3.980927 C 7.6722561,3.97081 7.7651892,4.049627 7.7745279,4.1543849 7.7836979,4.2593372 7.7060229,4.3520758 7.6010701,4.361047 L 7.0306739,4.411048 c -0.00553,5.621e-4 -0.011068,7.566e-4 -0.016797,7.566e-4 -0.097711,0 -0.1810888,-0.074991 -0.1898655,-0.1742361 C 6.8150405,4.1326594 6.8925172,4.0400938 6.9976642,4.030928 Z M 4.9065501,4.2139407 6.2370134,4.0975312 c 0.1043903,-0.00936 0.1973234,0.068505 0.2066622,0.1734578 0.00917,0.1049524 -0.068311,0.197518 -0.1734579,0.2066622 L 4.9395599,4.5940608 c -0.00553,5.62e-4 -0.011068,7.566e-4 -0.016797,7.566e-4 -0.097711,0 -0.1810888,-0.074991 -0.1898871,-0.1742361 -0.00895,-0.1049308 0.068527,-0.1974748 0.1736743,-0.2066406 z M 2.2614691,4.6368199 C 2.2523034,4.5318676 2.3299746,4.4393019 2.434927,4.4301578 L 4.1458994,4.2805439 c 0.1028555,-0.00953 0.197518,0.068506 0.2066621,0.1734579 0.00917,0.1047578 -0.068311,0.197518 -0.1734578,0.2066621 L 2.4681313,4.8102778 c -0.00553,5.62e-4 -0.011068,7.566e-4 -0.016797,7.566e-4 -0.097689,2.16e-5 -0.1810888,-0.074991 -0.1898652,-0.1742145 z m 0.100002,1.1405762 C 2.3523054,5.6724438 2.429782,5.5798781 2.534929,5.570734 L 3.1051306,5.520928 c 0.1059036,-0.00878 0.197518,0.068505 0.2066622,0.1734579 0.00917,0.1047578 -0.068311,0.197518 -0.1734579,0.2066622 L 2.5681333,5.950854 c -0.00573,5.621e-4 -0.011263,7.566e-4 -0.016797,7.566e-4 -0.097884,2.16e-5 -0.1810888,-0.074775 -0.1898652,-0.1742145 z m 0.9764571,2.4048471 -0.5702017,0.050001 c -0.00573,3.891e-4 -0.011263,5.621e-4 -0.016797,5.621e-4 -0.097905,0 -0.1812833,-0.074796 -0.1898654,-0.1742361 C 2.5518941,7.9538124 2.6293751,7.8610522 2.734522,7.851908 L 3.3047236,7.802102 c 0.1028555,-0.00936 0.197518,0.068506 0.2066621,0.1734578 0.00917,0.104974 -0.068311,0.197518 -0.1734575,0.2066834 z M 3.6184569,7.0082465 2.6677462,7.0914518 c -0.00553,5.621e-4 -0.011068,7.566e-4 -0.016797,7.566e-4 -0.097711,0 -0.1812834,-0.074991 -0.1898655,-0.174236 -0.00917,-0.1049524 0.068311,-0.197518 0.1734582,-0.2066622 l 0.9507107,-0.083205 c 0.105147,-0.00953 0.197691,0.0687 0.2066622,0.1734579 0.00917,0.104974 -0.068506,0.1977125 -0.1734579,0.2066834 z m 0.07365,-1.3472383 C 3.6829416,5.5560558 3.7606128,5.4634902 3.8655652,5.454346 L 5.1964176,5.3379364 c 0.1038066,-0.010312 0.1973234,0.068505 0.2066621,0.1734579 0.00917,0.1049524 -0.068311,0.197518 -0.1734578,0.2066621 L 3.8987695,5.834466 c -0.00553,5.621e-4 -0.011068,7.566e-4 -0.016797,7.566e-4 -0.097689,0 -0.1810672,-0.074991 -0.1898656,-0.1742144 z M 4.8588402,8.0492315 4.098384,8.1156405 c -0.00553,5.836e-4 -0.011068,7.566e-4 -0.016797,7.566e-4 -0.097711,0 -0.1810888,-0.074991 -0.1898655,-0.1742361 -0.00917,-0.1049524 0.068505,-0.197518 0.1734579,-0.2066622 l 0.7604562,-0.066603 c 0.1057306,-0.00917 0.197518,0.0687 0.2066621,0.1736524 0.00917,0.1047794 -0.068484,0.197518 -0.1734575,0.2066833 z M 7.9004708,7.7830134 5.9994384,7.949424 c -0.00553,5.621e-4 -0.011263,7.566e-4 -0.016797,7.566e-4 -0.097905,0 -0.1810888,-0.074991 -0.1898655,-0.174236 -0.00917,-0.1049524 0.068311,-0.1975181 0.1734582,-0.2066622 L 7.8672665,7.4028718 c 0.1049524,-0.010117 0.1973234,0.068506 0.2066622,0.1734579 0.00917,0.104974 -0.068311,0.1975396 -0.1734579,0.2066837 z"
   id="path3"
   class="ColorScheme-Text"
   style="fill:url(#oomox);stroke-width:0.0216174" />
<metadata
   id="metadata5"><rdf:RDF><cc:Work
       rdf:about=""><dc:creator><cc:Agent><dc:title>dreifacherspass</dc:title></cc:Agent></dc:creator><cc:license
         rdf:resource="http://creativecommons.org/licenses/by-sa/4.0/" /></cc:Work><cc:License
       rdf:about="http://creativecommons.org/licenses/by-sa/4.0/"><cc:permits
         rdf:resource="http://creativecommons.org/ns#Reproduction" /><cc:permits
         rdf:resource="http://creativecommons.org/ns#Distribution" /><cc:requires
         rdf:resource="http://creativecommons.org/ns#Notice" /><cc:requires
         rdf:resource="http://creativecommons.org/ns#Attribution" /><cc:permits
         rdf:resource="http://creativecommons.org/ns#DerivativeWorks" /><cc:requires
         rdf:resource="http://creativecommons.org/ns#ShareAlike" /></cc:License></rdf:RDF></metadata></svg>
