<?xml version="1.0" encoding="UTF-8" standalone="no"?>
<svg
   height="16"
   width="16"
   version="1.1"
   id="4534"
   viewBox="0 0 1.08112 1.08112"
   xml:space="preserve"
   xmlns="http://www.w3.org/2000/svg"
   xmlns:svg="http://www.w3.org/2000/svg"
   xmlns:rdf="http://www.w3.org/1999/02/22-rdf-syntax-ns#"
   xmlns:cc="http://creativecommons.org/ns#"
   xmlns:dc="http://purl.org/dc/elements/1.1/">
  <defs>
   <style id="current-color-scheme" type="text/css">
   .ColorScheme-Text { color: #0abdc6; } .ColorScheme-Highlight { color:#5294e2; }
  </style>
  <linearGradient id="arrongin" x1="0%" x2="0%" y1="0%" y2="100%">
   <stop offset="0%" style="stop-color:#dd9b44; stop-opacity:1"/>
   <stop offset="100%" style="stop-color:#ad6c16; stop-opacity:1"/>
  </linearGradient>
  <linearGradient id="aurora" x1="0%" x2="0%" y1="0%" y2="100%">
   <stop offset="0%" style="stop-color:#09D4DF; stop-opacity:1"/>
   <stop offset="100%" style="stop-color:#9269F4; stop-opacity:1"/>
  </linearGradient>
  <linearGradient id="cyberneon" x1="0%" x2="0%" y1="0%" y2="100%">
    <stop offset="0" style="stop-color:#0abdc6; stop-opacity:1"/>
    <stop offset="1" style="stop-color:#ea00d9; stop-opacity:1"/>
  </linearGradient>
  <linearGradient id="fitdance" x1="0%" x2="0%" y1="0%" y2="100%">
   <stop offset="0%" style="stop-color:#1AD6AB; stop-opacity:1"/>
   <stop offset="100%" style="stop-color:#329DB6; stop-opacity:1"/>
  </linearGradient>
  <linearGradient id="oomox" x1="0%" x2="0%" y1="0%" y2="100%">
   <stop offset="0%" style="stop-color:#0abdc6; stop-opacity:1"/>
   <stop offset="100%" style="stop-color:#b800ff; stop-opacity:1"/>
  </linearGradient>
  <linearGradient id="rainblue" x1="0%" x2="0%" y1="0%" y2="100%">
   <stop offset="0%" style="stop-color:#00F260; stop-opacity:1"/>
   <stop offset="100%" style="stop-color:#0575E6; stop-opacity:1"/>
  </linearGradient>
  <linearGradient id="sunrise" x1="0%" x2="0%" y1="0%" y2="100%">
   <stop offset="0%" style="stop-color: #FF8501; stop-opacity:1"/>
   <stop offset="100%" style="stop-color: #FFCB01; stop-opacity:1"/>
  </linearGradient>
  <linearGradient id="telinkrin" x1="0%" x2="0%" y1="0%" y2="100%">
   <stop offset="0%" style="stop-color: #b2ced6; stop-opacity:1"/>
   <stop offset="100%" style="stop-color: #6da5b7; stop-opacity:1"/>
  </linearGradient>
  <linearGradient id="60spsycho" x1="0%" x2="0%" y1="0%" y2="100%">
   <stop offset="0%" style="stop-color: #df5940; stop-opacity:1"/>
   <stop offset="25%" style="stop-color: #d8d15f; stop-opacity:1"/>
   <stop offset="50%" style="stop-color: #e9882a; stop-opacity:1"/>
   <stop offset="100%" style="stop-color: #279362; stop-opacity:1"/>
  </linearGradient>
  <linearGradient id="90ssummer" x1="0%" x2="0%" y1="0%" y2="100%">
   <stop offset="0%" style="stop-color: #f618c7; stop-opacity:1"/>
   <stop offset="20%" style="stop-color: #94ffab; stop-opacity:1"/>
   <stop offset="50%" style="stop-color: #fbfd54; stop-opacity:1"/>
   <stop offset="100%" style="stop-color: #0f83ae; stop-opacity:1"/>
  </linearGradient>
 </defs>
<path
   style="fill:url(#oomox);fill-opacity:1;stroke-width:0.0208698"
   d="m 1.0390578,0.99362362 c -0.00422,-0.0185982 0.0299,-0.0221042 0.0368,-0.0812518 0.00694,-0.0592348 -0.03676,-0.002308 -0.03676,-0.002308 0,0 -0.03198,0.0400705 -0.15985905,0.0313161 C 0.76141949,0.933387 0.62096036,0.86875154 0.62570034,0.64095914 c 3.3998e-4,-0.014961 0.00466,-0.0283544 0.00884,-0.0301835 0.00418,-0.001787 0.0157801,0.004943 0.02296,0.0176399 0.0177797,0.0313161 0.0336398,0.0821447 0.0422997,0.11295979 0.00404,0.0142424 0.0138601,0.0162026 0.01864,0.002223 0.0156998,-0.0465385 0.00422,-0.11012871 -0.00682,-0.15163659 -0.00376,-0.0143513 2.2001e-4,-0.0324048 0.0091,-0.0413554 0.00884,-0.00895 0.0223598,-0.00747 0.0313399,0.003811 0.0601596,0.0752412 0.11495927,0.11200157 0.18319885,0.11200157 0.0815195,0 0.15667901,-0.0278315 0.13749911,-0.30987173 C 1.0535379,0.07452692 0.94161865,-0.01251766 0.85533918,0.00141993 0.79969958,0.01037047 0.76119978,0.04101138 0.74091988,0.06169999 0.73088008,0.07189186 0.72397998,0.0823668 0.72397998,0.08349926 0.72396,0.08461007 0.71603998,0.0769878 0.70540018,0.06753638 0.65890011,0.02611559 0.60044049,0.0014417 0.53696088,0.0014417 c -0.0626396,0 -0.12035925,0.0239988 -0.16659895,0.06439601 -0.0106798,0.0093425 -0.01864,0.0173131 -0.0186798,0.01674687 0,-6.097e-4 -0.00686,-0.01067095 -0.0168599,-0.02086282 C 0.31450229,0.04105494 0.27604253,0.01041403 0.22040288,0.0014417 0.13414341,-0.01264832 0.0222241,0.07441803 0.00302423,0.35643637 c -0.01917989,0.28201836 0.05597964,0.30987176 0.13751914,0.30987176 0.0679196,0 0.12251924,-0.0363684 0.18231887,-0.11089092 0.00902,-0.0112807 0.0190599,-0.0170516 0.0230198,-0.0128487 0.00398,0.004203 0.00698,0.007404 0.00664,0.007143 -3.2e-4,-3.0489e-4 -0.00472,0.0107364 -0.00898,0.024957 -0.0117399,0.0391995 -0.0297001,0.11539884 -0.0116398,0.16888433 0.00472,0.0140031 0.0145798,0.0120865 0.0185998,-0.002179 0.00958,-0.0340164 0.0279799,-0.0926849 0.0479797,-0.1221499 0.00814,-0.0120429 0.0176599,-0.005227 0.0172398,0.009691 -0.00256,0.0907685 0.02488,0.25610313 0.15005906,0.36120123 0.13091919,0.10997633 0.32177799,0.10721053 0.42521737,0.0602365 0.01266,-0.00579 0.0323397,-0.00544 0.0458597,-0.00281 0.00832,0.00161 0.0189,0.00259 0.03208,0.00181 0.03832,-0.00235 -0.02562,-0.037174 -0.02988,-0.0557291 z M 0.4373615,0.29722342 c -0.01336,0 -0.0241998,-0.0118033 -0.0241998,-0.0263507 0,-0.0145474 0.0108398,-0.0263508 0.0241998,-0.0263508 0.01336,0 0.0241998,0.0118034 0.0241998,0.0263508 0,0.0145473 -0.0108398,0.0263507 -0.0241998,0.0263507 z m 0.17937887,-0.0263507 c 0,-0.0145474 0.0108398,-0.0263508 0.0242199,-0.0263508 0.01336,0 0.0241798,0.0118034 0.0241798,0.0263508 0,0.0145473 -0.0108197,0.0263507 -0.0241798,0.0263507 -0.0133801,0 -0.0242199,-0.0118033 -0.0242199,-0.0263507 z"
   id="path481"
   class="ColorScheme-Text" />
<metadata
   id="metadata1279"><rdf:RDF><cc:Work
       rdf:about=""><dc:creator><cc:Agent><dc:title>dreifacherspass</dc:title></cc:Agent></dc:creator><cc:license
         rdf:resource="http://creativecommons.org/licenses/by-sa/4.0/" /></cc:Work><cc:License
       rdf:about="http://creativecommons.org/licenses/by-sa/4.0/"><cc:permits
         rdf:resource="http://creativecommons.org/ns#Reproduction" /><cc:permits
         rdf:resource="http://creativecommons.org/ns#Distribution" /><cc:requires
         rdf:resource="http://creativecommons.org/ns#Notice" /><cc:requires
         rdf:resource="http://creativecommons.org/ns#Attribution" /><cc:permits
         rdf:resource="http://creativecommons.org/ns#DerivativeWorks" /><cc:requires
         rdf:resource="http://creativecommons.org/ns#ShareAlike" /></cc:License></rdf:RDF></metadata></svg>
