<?xml version="1.0" encoding="UTF-8" standalone="no"?>
<!-- Created with Inkscape (http://www.inkscape.org/) -->

<svg
   id="svg2"
   xml:space="preserve"
   viewBox="0 0 48 48"
   version="1.1"
   width="48"
   height="48"
   xmlns:xlink="http://www.w3.org/1999/xlink"
   xmlns="http://www.w3.org/2000/svg"
   xmlns:svg="http://www.w3.org/2000/svg"
   xmlns:rdf="http://www.w3.org/1999/02/22-rdf-syntax-ns#"
   xmlns:cc="http://creativecommons.org/ns#"
   xmlns:dc="http://purl.org/dc/elements/1.1/">
  <defs
   id="defs6"><linearGradient
   id="linearGradient5306"><stop
     style="stop-color:#000000;stop-opacity:1;"
     offset="0"
     id="stop5302" /><stop
     style="stop-color:#ffffff;stop-opacity:0;"
     offset="1"
     id="stop5304" /></linearGradient><linearGradient
   id="linearGradient3829"><stop
     style="stop-color:#ffffff;stop-opacity:1;"
     offset="0"
     id="stop3825" /><stop
     style="stop-color:#000000;stop-opacity:0;"
     offset="1"
     id="stop3827" /></linearGradient>
    <style
   id="current-color-scheme"
   type="text/css">
      .ColorScheme-Text { color: #0abdc6; } .ColorScheme-Highlight { color:#5294e2; }
     </style>
    <linearGradient
   id="arrongin"
   x1="0%"
   x2="0%"
   y1="0%"
   y2="100%">
      <stop
   offset="0%"
   style="stop-color:#dd9b44; stop-opacity:1"
   id="stop9192" />
      <stop
   offset="100%"
   style="stop-color:#ad6c16; stop-opacity:1"
   id="stop9194" />
    </linearGradient>
    <linearGradient
   id="aurora"
   x1="0%"
   x2="0%"
   y1="0%"
   y2="100%">
      <stop
   offset="0%"
   style="stop-color:#09D4DF; stop-opacity:1"
   id="stop9197" />
      <stop
   offset="100%"
   style="stop-color:#9269F4; stop-opacity:1"
   id="stop9199" />
    </linearGradient>
    <linearGradient
   id="cyberneon"
   x1="0%"
   x2="0%"
   y1="0%"
   y2="100%">
      <stop
   offset="0"
   style="stop-color:#0abdc6; stop-opacity:1"
   id="stop9202" />
      <stop
   offset="1"
   style="stop-color:#ea00d9; stop-opacity:1"
   id="stop9204" />
    </linearGradient>
    <linearGradient
   id="fitdance"
   x1="0%"
   x2="0%"
   y1="0%"
   y2="100%">
      <stop
   offset="0%"
   style="stop-color:#1AD6AB; stop-opacity:1"
   id="stop9207" />
      <stop
   offset="100%"
   style="stop-color:#329DB6; stop-opacity:1"
   id="stop9209" />
    </linearGradient>
    <linearGradient
   id="oomox"
   x1="0%"
   x2="0%"
   y1="0%"
   y2="100%">
      <stop
   offset="0%"
   style="stop-color:#0abdc6; stop-opacity:1"
   id="stop9212" />
      <stop
   offset="100%"
   style="stop-color:#b800ff; stop-opacity:1"
   id="stop9214" />
    </linearGradient>
    <linearGradient
   id="rainblue"
   x1="0%"
   x2="0%"
   y1="0%"
   y2="100%">
      <stop
   offset="0%"
   style="stop-color:#00F260; stop-opacity:1"
   id="stop9217" />
      <stop
   offset="100%"
   style="stop-color:#0575E6; stop-opacity:1"
   id="stop9219" />
    </linearGradient>
    <linearGradient
   id="sunrise"
   x1="0%"
   x2="0%"
   y1="0%"
   y2="100%">
      <stop
   offset="0%"
   style="stop-color: #FF8501; stop-opacity:1"
   id="stop9222" />
      <stop
   offset="100%"
   style="stop-color: #FFCB01; stop-opacity:1"
   id="stop9224" />
    </linearGradient>
    <linearGradient
   id="telinkrin"
   x1="0%"
   x2="0%"
   y1="0%"
   y2="100%">
      <stop
   offset="0%"
   style="stop-color: #b2ced6; stop-opacity:1"
   id="stop9227" />
      <stop
   offset="100%"
   style="stop-color: #6da5b7; stop-opacity:1"
   id="stop9229" />
    </linearGradient>
    <linearGradient
   id="60spsycho"
   x1="0%"
   x2="0%"
   y1="0%"
   y2="100%">
      <stop
   offset="0%"
   style="stop-color: #df5940; stop-opacity:1"
   id="stop9232" />
      <stop
   offset="25%"
   style="stop-color: #d8d15f; stop-opacity:1"
   id="stop9234" />
      <stop
   offset="50%"
   style="stop-color: #e9882a; stop-opacity:1"
   id="stop9236" />
      <stop
   offset="100%"
   style="stop-color: #279362; stop-opacity:1"
   id="stop9238" />
    </linearGradient>
    <linearGradient
   id="90ssummer"
   x1="0%"
   x2="0%"
   y1="0%"
   y2="100%">
      <stop
   offset="0%"
   style="stop-color: #f618c7; stop-opacity:1"
   id="stop9241" />
      <stop
   offset="20%"
   style="stop-color: #94ffab; stop-opacity:1"
   id="stop9243" />
      <stop
   offset="50%"
   style="stop-color: #fbfd54; stop-opacity:1"
   id="stop9245" />
      <stop
   offset="100%"
   style="stop-color: #0f83ae; stop-opacity:1"
   id="stop9247" />
    </linearGradient>
<radialGradient
   xlink:href="#linearGradient5306"
   id="radialGradient5308"
   cx="24.022493"
   cy="25.685839"
   fx="24.022493"
   fy="25.685839"
   r="23.522493"
   gradientTransform="matrix(1,0,0,0.84590687,0,3.9580112)"
   gradientUnits="userSpaceOnUse" /><linearGradient
   id="linearGradient2284"
   gradientTransform="scale(1.6440072,0.60826983)"
   x1="0"
   y1="132.57439"
   x2="77.858536"
   y2="132.57439"
   gradientUnits="userSpaceOnUse"><stop
     style="stop-color:#41ff00;stop-opacity:1;"
     offset="0"
     id="stop2280" /><stop
     style="stop-color:#e7ff00;stop-opacity:1;"
     offset="1"
     id="stop2282" /></linearGradient></defs>
  <path
   id="path30"
   class="ColorScheme-Text"
   style="display:inline;fill:url(#oomox);fill-opacity:1;fill-rule:evenodd;stroke-width:1.81738"
   d="M 29.15625 5.7890625 C 28.907906 5.7857996 28.658432 5.7888104 28.408203 5.796875 C 23.772094 6.5201881 20.066545 6.9243496 17.296875 7.0097656 C 14.152825 7.0933645 10.935192 8.4304584 7.6621094 11.029297 C 3.5312283 14.266033 1.1890634 18.45282 0.63476562 23.599609 C 0.038668402 29.137135 1.4231582 33.859095 4.7871094 37.777344 C 7.8548293 41.306674 11.936025 43.627596 17.041016 44.734375 C 22.024244 45.799353 26.639933 45.861726 30.892578 44.925781 C 35.321509 43.946219 39.085656 41.903032 42.193359 38.800781 C 45.346495 35.647647 47.106771 31.460179 47.490234 26.220703 C 47.964569 19.62547 45.368275 14.13713 39.708984 9.75 C 36.395125 7.1619522 32.881413 5.8380063 29.15625 5.7890625 z M 31.097656 18.609375 L 25.132812 30.425781 C 24.933195 30.809259 24.67359 31.168473 24.351562 31.490234 C 22.658627 33.184572 19.909734 33.184572 18.216797 31.490234 C 16.522461 29.7973 16.522461 27.050356 18.216797 25.357422 C 18.538577 25.035376 18.8997 24.775794 19.283203 24.576172 L 19.458984 24.488281 L 31.097656 18.609375 z " /><path
   id="path254"
   class="ColorScheme-Text"
   style="fill:url(#oomox);fill-opacity:1;fill-rule:evenodd;stroke-width:1.81738"
   d="M 25.980307,0.5 25.082978,2.4167617 C 24.601562,3.4427052 24.189243,4.9047548 23.850572,6.7983341 23.670852,6.6806954 23.471623,6.5597874 23.240049,6.4348612 22.131452,5.9241794 20.76842,5.6464612 19.15096,5.6028443 17.744313,5.5610447 16.450001,5.8594355 15.257804,6.4973333 13.723944,7.2642631 12.405096,7.7349645 11.296499,7.9057958 9.7281077,8.1602281 8.6430203,7.7554082 8.0451051,6.6904275 L 7.6617529,5.0945468 7.5992806,6.4348612 c 0,0.6815132 0.3642706,1.2780677 1.0875844,1.7832956 0.7669307,0.5597507 1.701404,0.8581415 2.80273,0.8944891 0.637897,0.041799 1.726051,-0.2346681 3.259914,-0.8234969 1.490245,-0.5615684 2.929493,-0.7689762 4.336138,-0.64176 2.511608,0.2489801 3.726863,0.4490058 3.643266,0.5707678 -1.533863,0.2126327 -2.791487,0.9148218 -3.771051,2.1070172 -0.383464,0.510682 -0.724223,1.107464 -1.022273,1.788979 -0.42708,0.979563 -0.928789,1.95947 -1.524888,2.939033 -0.766931,1.406646 -2.10929,1.930275 -4.026617,1.595881 L 9.7006183,15.754579 c 2.1717597,1.150396 4.0233257,1.599401 5.5571857,1.343152 1.739226,-0.29805 2.953233,-0.747055 3.634748,-1.343152 0.725131,-0.979564 1.406646,-1.871897 2.044544,-2.680626 1.321228,-1.577481 2.699254,-2.784218 4.145882,-3.634747 l 1.982072,0.823497 c 1.619278,0.76693 3.195739,1.723325 4.722332,2.873722 0.979563,0.76693 1.95663,1.599062 2.936194,2.49321 0.76693,0.637897 1.834412,1.148692 3.197441,1.524888 1.490245,0.383465 2.767293,0.405159 3.825003,0.06531 0.512499,-0.205363 0.87211,-0.440715 1.084744,-0.704234 -0.596098,0.25625 -1.340654,0.320541 -2.234802,0.198777 -1.057709,-0.169015 -2.654843,-1.172437 -4.784803,-3.004345 -1.064978,-0.894148 -2.514338,-1.915401 -4.338979,-3.063979 l -2.490366,-1.5334083 1.470935,0.5792867 c 1.319411,0.4198136 2.760478,0.7197946 4.336138,0.8888106 1.448445,0.170833 2.684375,0.2132 3.705737,0.127783 1.492064,-0.170833 2.40768,-0.255569 2.740258,-0.255569 1.575662,0 3.469596,0.362454 5.684971,1.087586 C 44.151998,10.431951 41.789634,9.8426651 39.837777,9.757249 37.238935,9.715445 34.577162,9.2250947 31.858372,8.289149 30.707978,7.9056832 29.62164,7.6072923 28.59846,7.3946597 l -1.215369,-0.130614 0.641761,-0.4458251 c 0.212632,-0.1272161 0.830086,-0.1902572 1.851448,-0.1902572 1.150396,0 1.931641,-0.087578 2.356906,-0.2584069 C 32.921991,6.0933157 33.455731,5.6405627 33.831928,5.0008474 33.561139,5.242558 33.071583,5.5341337 32.36099,5.861259 31.679476,6.1593082 30.835189,6.1988361 29.813829,5.9862027 28.748849,5.729953 27.959085,5.666912 27.448405,5.7959455 27.247724,5.8428334 27.04728,5.9024073 26.846397,5.9691594 26.811471,5.3094148 26.821313,4.5933625 26.874809,3.816708 26.960228,2.673582 27.235106,1.9264127 27.703985,1.5847483 27.860279,1.4793407 28.003626,1.4144787 28.15265,1.3944912 H 28.08734 C 28.214553,1.1382415 28.002721,0.90289172 27.448417,0.69025906 27.064953,0.56304293 26.703519,0.50000189 26.36367,0.50000189 Z" /><path
   id="path254-3"
   style="fill:#000000;fill-opacity:1;fill-rule:evenodd;stroke-width:1.81738;opacity:0.3"
   d="M 25.980026,0.5 25.082697,2.4167617 C 24.601281,3.4427052 24.188962,4.9047548 23.850291,6.7983341 23.670571,6.6806954 23.471342,6.5597874 23.239768,6.4348612 22.131171,5.9241794 20.768139,5.6464612 19.150679,5.6028443 17.744032,5.5610447 16.44972,5.8594355 15.257523,6.4973333 13.723663,7.2642631 12.404815,7.7349645 11.296218,7.9057958 9.7278271,8.1602281 8.6427397,7.7554082 8.0448245,6.6904275 L 7.6614723,5.0945468 7.599,6.4348612 c 0,0.6815132 0.3642706,1.2780677 1.0875844,1.7832956 0.7669307,0.5597507 1.7014036,0.8581415 2.8027296,0.8944891 0.637897,0.041799 1.726051,-0.2346681 3.259914,-0.8234969 1.490245,-0.5615684 2.929493,-0.7689762 4.336138,-0.64176 2.511608,0.2489801 3.726863,0.4490058 3.643266,0.5707678 -1.533863,0.2126327 -2.791487,0.9148218 -3.771051,2.1070172 -0.383464,0.510682 -0.724223,1.107464 -1.022273,1.788979 -0.42708,0.979563 -0.928789,1.95947 -1.524888,2.939033 -0.766931,1.406646 -2.10929,1.930275 -4.026617,1.595881 L 9.7003381,15.754579 c 2.1717589,1.150396 4.0233249,1.599401 5.5571849,1.343152 1.739226,-0.29805 2.953233,-0.747055 3.634748,-1.343152 0.725131,-0.979564 1.406646,-1.871897 2.044544,-2.680626 1.321228,-1.577481 2.699254,-2.784218 4.145882,-3.634747 l 1.982072,0.823497 c 1.619278,0.76693 3.195739,1.723325 4.722332,2.873722 0.979563,0.76693 1.95663,1.599062 2.936194,2.49321 0.76693,0.637897 1.834412,1.148692 3.197441,1.524888 1.490245,0.383465 2.767293,0.405159 3.825003,0.06531 0.512499,-0.205363 0.87211,-0.440715 1.084744,-0.704234 -0.596098,0.25625 -1.340654,0.320541 -2.234802,0.198777 C 39.537972,16.545361 37.940838,15.541939 35.810878,13.710031 34.7459,12.815883 33.29654,11.79463 31.471899,10.646052 L 28.981533,9.1126437 30.452468,9.69193 c 1.319411,0.419814 2.760478,0.719795 4.336138,0.888811 1.448445,0.170833 2.684375,0.2132 3.705737,0.127783 1.492064,-0.170833 2.40768,-0.255569 2.740258,-0.255569 1.575662,0 3.469596,0.362454 5.684971,1.087586 C 44.151717,10.431951 41.789353,9.842665 39.837496,9.757249 37.238654,9.715449 34.576881,9.2250947 31.858091,8.289149 30.707697,7.9056832 29.621359,7.6072923 28.598179,7.3946597 L 27.38281,7.2640457 28.024571,6.8182206 c 0.212632,-0.1272161 0.830086,-0.1902572 1.851448,-0.1902572 1.150396,0 1.931641,-0.087578 2.356906,-0.2584069 C 32.92171,6.0933157 33.45545,5.6405627 33.831647,5.0008474 33.560858,5.242558 33.071302,5.5341337 32.360709,5.861259 31.679195,6.1593082 30.834908,6.1988361 29.813548,5.9862027 28.748568,5.729953 27.958804,5.666912 27.448124,5.7959455 27.247443,5.8428334 27.046999,5.9024073 26.846116,5.9691594 26.81119,5.3094148 26.821032,4.5933625 26.874528,3.816708 26.959947,2.673582 27.234825,1.9264127 27.703704,1.5847483 27.859998,1.4793407 28.003345,1.4144787 28.152369,1.3944912 h -0.06531 C 28.214272,1.1382415 28.00244,0.9028917 27.448136,0.6902591 27.064672,0.5630429 26.703238,0.5000019 26.363389,0.5000019 Z" />
<metadata
   id="metadata2275"><rdf:RDF><cc:Work><dc:format>image/svg+xml</dc:format><dc:type
         rdf:resource="http://purl.org/dc/dcmitype/StillImage" /><cc:license
         rdf:resource="http://creativecommons.org/licenses/by-sa/4.0/" /><dc:creator><cc:Agent><dc:title>dreifacherspass</dc:title></cc:Agent></dc:creator></cc:Work><cc:License
       rdf:about="http://creativecommons.org/licenses/by-sa/4.0/"><cc:permits
         rdf:resource="http://creativecommons.org/ns#Reproduction" /><cc:permits
         rdf:resource="http://creativecommons.org/ns#Distribution" /><cc:requires
         rdf:resource="http://creativecommons.org/ns#Notice" /><cc:requires
         rdf:resource="http://creativecommons.org/ns#Attribution" /><cc:permits
         rdf:resource="http://creativecommons.org/ns#DerivativeWorks" /><cc:requires
         rdf:resource="http://creativecommons.org/ns#ShareAlike" /></cc:License></rdf:RDF></metadata><path
   d="m 22.511006,27.197295 c 0.677738,0.677737 0.677738,1.776241 0,2.453978 -0.677738,0.677737 -1.776242,0.677737 -2.453979,0 -0.677737,-0.677737 -0.677737,-1.776241 0,-2.453978 0.677737,-0.677738 1.776241,-0.677738 2.453979,0 z m 0,0"
   id="path66"
   class="ColorScheme-Text"
   style="stroke-width:0.361454;fill-opacity:1.0;fill:url(#oomox)" /><g
   id="g1840"
   transform="matrix(0.36718463,0,0,0.36951638,14.525836,25.968012)"><path
     d="M 128,80.641 V 128 H 0 V 80.641 Z"
     id="path359"
     style="fill:url(#linearGradient2284);fill-opacity:1"
     transform="translate(-38.19832,-69.729474)" /><path
     d="M 13.309,80.641 60.664,128 H 81.879 L 34.52,80.641 Z m 42.422,0 47.363,47.359 h 21.215 L 76.946,80.641 Z m 42.43,0 29.84,29.84 V 89.27 l -8.6289,-8.6289 z m -98.16,7.9062 v 21.215 l 18.238,18.238 h 21.215 z"
     id="path361"
     transform="translate(-38.19832,-69.729474)"
     style="fill:#000000;fill-opacity:1" /></g></svg>
