<?xml version="1.0" encoding="UTF-8" standalone="no"?>
<svg
   width="48"
   height="48"
   viewBox="0 0 48 48"
   version="1.1"
   id="svg2352"
   xmlns:xlink="http://www.w3.org/1999/xlink"
   xmlns="http://www.w3.org/2000/svg"
   xmlns:svg="http://www.w3.org/2000/svg"
   xmlns:rdf="http://www.w3.org/1999/02/22-rdf-syntax-ns#"
   xmlns:cc="http://creativecommons.org/ns#"
   xmlns:dc="http://purl.org/dc/elements/1.1/">
     <defs
     id="defs2350">
     <style
       id="current-color-scheme"
       type="text/css">
      .ColorScheme-Text { color: #0abdc6; } .ColorScheme-Highlight { color:#5294e2; }
     </style>
    <linearGradient
       id="arrongin"
       x1="0%"
       x2="0%"
       y1="0%"
       y2="100%">
      <stop
         offset="0%"
         style="stop-color:#dd9b44; stop-opacity:1"
         id="stop9192" />
      <stop
         offset="100%"
         style="stop-color:#ad6c16; stop-opacity:1"
         id="stop9194" />
    </linearGradient>
    <linearGradient
       id="aurora"
       x1="0%"
       x2="0%"
       y1="0%"
       y2="100%">
      <stop
         offset="0%"
         style="stop-color:#09D4DF; stop-opacity:1"
         id="stop9197" />
      <stop
         offset="100%"
         style="stop-color:#9269F4; stop-opacity:1"
         id="stop9199" />
    </linearGradient>
    <linearGradient
       id="cyberneon"
       x1="0%"
       x2="0%"
       y1="0%"
       y2="100%">
      <stop
         offset="0"
         style="stop-color:#0abdc6; stop-opacity:1"
         id="stop9202" />
      <stop
         offset="1"
         style="stop-color:#ea00d9; stop-opacity:1"
         id="stop9204" />
    </linearGradient>
    <linearGradient
       id="fitdance"
       x1="0%"
       x2="0%"
       y1="0%"
       y2="100%">
      <stop
         offset="0%"
         style="stop-color:#1AD6AB; stop-opacity:1"
         id="stop9207" />
      <stop
         offset="100%"
         style="stop-color:#329DB6; stop-opacity:1"
         id="stop9209" />
    </linearGradient>
    <linearGradient
       id="oomox"
       x1="0%"
       x2="0%"
       y1="0%"
       y2="100%">
      <stop
         offset="0%"
         style="stop-color:#0abdc6; stop-opacity:1"
         id="stop9212" />
      <stop
         offset="100%"
         style="stop-color:#b800ff; stop-opacity:1"
         id="stop9214" />
    </linearGradient>
    <linearGradient
       id="rainblue"
       x1="0%"
       x2="0%"
       y1="0%"
       y2="100%">
      <stop
         offset="0%"
         style="stop-color:#00F260; stop-opacity:1"
         id="stop9217" />
      <stop
         offset="100%"
         style="stop-color:#0575E6; stop-opacity:1"
         id="stop9219" />
    </linearGradient>
    <linearGradient
       id="sunrise"
       x1="0%"
       x2="0%"
       y1="0%"
       y2="100%">
      <stop
         offset="0%"
         style="stop-color: #FF8501; stop-opacity:1"
         id="stop9222" />
      <stop
         offset="100%"
         style="stop-color: #FFCB01; stop-opacity:1"
         id="stop9224" />
    </linearGradient>
    <linearGradient
       id="telinkrin"
       x1="0%"
       x2="0%"
       y1="0%"
       y2="100%">
      <stop
         offset="0%"
         style="stop-color: #b2ced6; stop-opacity:1"
         id="stop9227" />
      <stop
         offset="100%"
         style="stop-color: #6da5b7; stop-opacity:1"
         id="stop9229" />
    </linearGradient>
    <linearGradient
       id="60spsycho"
       x1="0%"
       x2="0%"
       y1="0%"
       y2="100%">
      <stop
         offset="0%"
         style="stop-color: #df5940; stop-opacity:1"
         id="stop9232" />
      <stop
         offset="25%"
         style="stop-color: #d8d15f; stop-opacity:1"
         id="stop9234" />
      <stop
         offset="50%"
         style="stop-color: #e9882a; stop-opacity:1"
         id="stop9236" />
      <stop
         offset="100%"
         style="stop-color: #279362; stop-opacity:1"
         id="stop9238" />
    </linearGradient>
    <linearGradient
       id="90ssummer"
       x1="0%"
       x2="0%"
       y1="0%"
       y2="100%">
      <stop
         offset="0%"
         style="stop-color: #f618c7; stop-opacity:1"
         id="stop9241" />
      <stop
         offset="20%"
         style="stop-color: #94ffab; stop-opacity:1"
         id="stop9243" />
      <stop
         offset="50%"
         style="stop-color: #fbfd54; stop-opacity:1"
         id="stop9245" />
      <stop
         offset="100%"
         style="stop-color: #0f83ae; stop-opacity:1"
         id="stop9247" />
    </linearGradient>
  </defs>
  <path
     d="M 47.5,6.1903808 C 47.5,4.983027 46.521307,4.004334 45.313953,4.004334 H 5.9651163 c -1.2073535,0 -2.1860465,0.978693 -2.1860465,2.1860468 V 34.608986 c 0,1.207353 0.978693,2.186046 2.1860465,2.186046 H 25.186805 c 0.289869,0 0.567935,0.115205 0.772876,0.320147 l 8.744186,8.744186 c 0.688605,0.688604 1.8659,0.200897 1.8659,-0.772877 v -7.198433 c 0,-0.603676 0.489347,-1.093023 1.093024,-1.093023 h 7.651162 c 1.207354,0 2.186047,-0.978693 2.186047,-2.186046 z"
     id="path27122"
     class="ColorScheme-Text"
     style="display:inline;fill:url(#oomox);stroke-width:1.09302;fill-opacity:1;opacity:0.5" />
  <path
     id="path28000"
     class="ColorScheme-Text"
     style="display:inline;fill:url(#oomox);fill-rule:evenodd;stroke-width:1.09302;fill-opacity:1.0"
     d="M 2.6855469,1.8182875 C 1.4782298,1.8182875 0.5,2.7965173 0.5,4.0038344 V 32.423757 c 0,1.207351 0.9782298,2.185547 2.1855469,2.185547 h 7.6523441 c 0.603674,0 1.091797,0.488122 1.091797,1.091796 v 7.199219 c 0,0.973772 1.178585,1.46204 1.867187,0.773438 l 8.744141,-8.744141 c 0.204938,-0.204942 0.481615,-0.320312 0.771484,-0.320312 h 19.222656 c 1.20735,0 2.185547,-0.978196 2.185547,-2.185547 V 4.0038344 c 0,-1.2073171 -0.978197,-2.1855469 -2.185547,-2.1855469 z M 8.150391,8.3768808 h 28.419921 c 1.211067,0 2.185547,0.974481 2.185547,2.1855472 0,1.211067 -0.97448,2.185547 -2.185547,2.185548 H 8.150391 c -1.211067,0 -2.1855473,-0.974481 -2.1855472,-2.185548 0,-1.2110662 0.9744802,-2.1855472 2.1855472,-2.1855472 z m -0.0039,7.6503912 h 22.953125 c 1.211068,0 2.185547,0.974479 2.185547,2.185547 0,1.211068 -0.974479,2.1875 -2.185547,2.1875 H 8.146484 c -1.211067,0 -2.1855465,-0.976432 -2.1855465,-2.1875 0,-1.211068 0.9744795,-2.185547 2.1855465,-2.185547 z m 0.0039,7.591797 h 17.488281 c 1.211069,0 2.1875,0.974478 2.1875,2.185547 0,1.211068 -0.976431,2.185547 -2.1875,2.185547 H 8.150391 c -1.211069,0 -2.1855472,-0.974479 -2.1855472,-2.185547 0,-1.211069 0.9744782,-2.185547 2.1855472,-2.185547 z" />
  <metadata
     id="metadata3223">
    <rdf:RDF>
      <cc:Work
         rdf:about="">
        <dc:creator>
          <cc:Agent>
            <dc:title>dreifacherspass</dc:title>
          </cc:Agent>
        </dc:creator>
        <cc:license
           rdf:resource="http://creativecommons.org/licenses/by-sa/4.0/" />
      </cc:Work>
      <cc:License
         rdf:about="http://creativecommons.org/licenses/by-sa/4.0/">
        <cc:permits
           rdf:resource="http://creativecommons.org/ns#Reproduction" />
        <cc:permits
           rdf:resource="http://creativecommons.org/ns#Distribution" />
        <cc:requires
           rdf:resource="http://creativecommons.org/ns#Notice" />
        <cc:requires
           rdf:resource="http://creativecommons.org/ns#Attribution" />
        <cc:permits
           rdf:resource="http://creativecommons.org/ns#DerivativeWorks" />
        <cc:requires
           rdf:resource="http://creativecommons.org/ns#ShareAlike" />
      </cc:License>
    </rdf:RDF>
  </metadata>
</svg>
