<?xml version="1.0" encoding="UTF-8" standalone="no"?>
<svg
   height="48"
   width="48"
   version="1.1"
   id="svg18"
   xmlns:xlink="http://www.w3.org/1999/xlink"
   xmlns="http://www.w3.org/2000/svg"
   xmlns:svg="http://www.w3.org/2000/svg"
   xmlns:rdf="http://www.w3.org/1999/02/22-rdf-syntax-ns#"
   xmlns:cc="http://creativecommons.org/ns#"
   xmlns:dc="http://purl.org/dc/elements/1.1/">
  <metadata
     id="metadata24">
    <rdf:RDF>
      <cc:Work
         rdf:about="">
        <dc:format>image/svg+xml</dc:format>
        <dc:type
           rdf:resource="http://purl.org/dc/dcmitype/StillImage" />
        <dc:creator>
          <cc:Agent>
            <dc:title>dreifacherspass</dc:title>
          </cc:Agent>
        </dc:creator>
        <cc:license
           rdf:resource="http://creativecommons.org/licenses/by-sa/4.0/" />
      </cc:Work>
      <cc:License
         rdf:about="http://creativecommons.org/licenses/by-sa/4.0/">
        <cc:permits
           rdf:resource="http://creativecommons.org/ns#Reproduction" />
        <cc:permits
           rdf:resource="http://creativecommons.org/ns#Distribution" />
        <cc:requires
           rdf:resource="http://creativecommons.org/ns#Notice" />
        <cc:requires
           rdf:resource="http://creativecommons.org/ns#Attribution" />
        <cc:permits
           rdf:resource="http://creativecommons.org/ns#DerivativeWorks" />
        <cc:requires
           rdf:resource="http://creativecommons.org/ns#ShareAlike" />
      </cc:License>
    </rdf:RDF>
  </metadata>
  <defs
     id="defs22">
    <style
       id="current-color-scheme"
       type="text/css">
      .ColorScheme-Text { color: #0abdc6; } .ColorScheme-Highlight { color:#5294e2; }
     </style>
    <linearGradient
       id="arrongin"
       x1="0%"
       x2="0%"
       y1="0%"
       y2="100%">
      <stop
         offset="0%"
         style="stop-color:#dd9b44; stop-opacity:1"
         id="stop9192" />
      <stop
         offset="100%"
         style="stop-color:#ad6c16; stop-opacity:1"
         id="stop9194" />
    </linearGradient>
    <linearGradient
       id="aurora"
       x1="0%"
       x2="0%"
       y1="0%"
       y2="100%">
      <stop
         offset="0%"
         style="stop-color:#09D4DF; stop-opacity:1"
         id="stop9197" />
      <stop
         offset="100%"
         style="stop-color:#9269F4; stop-opacity:1"
         id="stop9199" />
    </linearGradient>
    <linearGradient
       id="cyberneon"
       x1="0%"
       x2="0%"
       y1="0%"
       y2="100%">
      <stop
         offset="0"
         style="stop-color:#0abdc6; stop-opacity:1"
         id="stop9202" />
      <stop
         offset="1"
         style="stop-color:#ea00d9; stop-opacity:1"
         id="stop9204" />
    </linearGradient>
    <linearGradient
       id="fitdance"
       x1="0%"
       x2="0%"
       y1="0%"
       y2="100%">
      <stop
         offset="0%"
         style="stop-color:#1AD6AB; stop-opacity:1"
         id="stop9207" />
      <stop
         offset="100%"
         style="stop-color:#329DB6; stop-opacity:1"
         id="stop9209" />
    </linearGradient>
    <linearGradient
       id="oomox"
       x1="0%"
       x2="0%"
       y1="0%"
       y2="100%">
      <stop
         offset="0%"
         style="stop-color:#0abdc6; stop-opacity:1"
         id="stop9212" />
      <stop
         offset="100%"
         style="stop-color:#b800ff; stop-opacity:1"
         id="stop9214" />
    </linearGradient>
    <linearGradient
       id="rainblue"
       x1="0%"
       x2="0%"
       y1="0%"
       y2="100%">
      <stop
         offset="0%"
         style="stop-color:#00F260; stop-opacity:1"
         id="stop9217" />
      <stop
         offset="100%"
         style="stop-color:#0575E6; stop-opacity:1"
         id="stop9219" />
    </linearGradient>
    <linearGradient
       id="sunrise"
       x1="0%"
       x2="0%"
       y1="0%"
       y2="100%">
      <stop
         offset="0%"
         style="stop-color: #FF8501; stop-opacity:1"
         id="stop9222" />
      <stop
         offset="100%"
         style="stop-color: #FFCB01; stop-opacity:1"
         id="stop9224" />
    </linearGradient>
    <linearGradient
       id="telinkrin"
       x1="0%"
       x2="0%"
       y1="0%"
       y2="100%">
      <stop
         offset="0%"
         style="stop-color: #b2ced6; stop-opacity:1"
         id="stop9227" />
      <stop
         offset="100%"
         style="stop-color: #6da5b7; stop-opacity:1"
         id="stop9229" />
    </linearGradient>
    <linearGradient
       id="60spsycho"
       x1="0%"
       x2="0%"
       y1="0%"
       y2="100%">
      <stop
         offset="0%"
         style="stop-color: #df5940; stop-opacity:1"
         id="stop9232" />
      <stop
         offset="25%"
         style="stop-color: #d8d15f; stop-opacity:1"
         id="stop9234" />
      <stop
         offset="50%"
         style="stop-color: #e9882a; stop-opacity:1"
         id="stop9236" />
      <stop
         offset="100%"
         style="stop-color: #279362; stop-opacity:1"
         id="stop9238" />
    </linearGradient>
    <linearGradient
       id="90ssummer"
       x1="0%"
       x2="0%"
       y1="0%"
       y2="100%">
      <stop
         offset="0%"
         style="stop-color: #f618c7; stop-opacity:1"
         id="stop9241" />
      <stop
         offset="20%"
         style="stop-color: #94ffab; stop-opacity:1"
         id="stop9243" />
      <stop
         offset="50%"
         style="stop-color: #fbfd54; stop-opacity:1"
         id="stop9245" />
      <stop
         offset="100%"
         style="stop-color: #0f83ae; stop-opacity:1"
         id="stop9247" />
    </linearGradient>
  </defs>
  <g
     id="g16"
     style="stroke-width:4"
     transform="translate(0,0.46981957)">
    <path
       transform="matrix(0.1375804,0,0,0.06456173,-129.53973,26.711664)"
       style="display:inline;fill:url(#oomox);fill-opacity:1;stroke:none;stroke-width:20;stroke-linecap:square;stroke-linejoin:miter;stroke-miterlimit:4;stroke-dasharray:none;stroke-dashoffset:0;stroke-opacity:1;enable-background:new"
       id="rect1"
       class="ColorScheme-Text"
       d="m 1084,61.125 a 27.159795,27.159795 0 0 0 -27.0625,24.900391 l -16,191.999999 A 27.159795,27.159795 0 0 0 1068,307.4375 h 48 48 a 27.159795,27.159795 0 0 0 27.0625,-29.41211 l -16,-191.999999 A 27.159795,27.159795 0 0 0 1148,61.125 h -32 z" />
    <path
       transform="matrix(0.1375804,0,0,0.06456173,-129.53973,26.711303)"
       style="display:inline;opacity:0.533333;fill:#000000;fill-opacity:1;stroke:none;stroke-width:20;stroke-linecap:square;stroke-linejoin:miter;stroke-miterlimit:4;stroke-dasharray:none;stroke-dashoffset:0;stroke-opacity:1;enable-background:new"
       id="rect2"
       d="m 1084,61.125 a 27.159795,27.159795 0 0 0 -27.0625,24.900391 l -16,191.999999 A 27.159795,27.159795 0 0 0 1068,307.4375 h 48 48 a 27.159795,27.159795 0 0 0 27.0625,-29.41211 l -16,-191.999999 A 27.159795,27.159795 0 0 0 1148,61.125 h -32 z" />
    <path
       style="display:inline;opacity:1;fill:url(#oomox);fill-opacity:1;stroke:none;stroke-width:1.7941;stroke-linecap:square;stroke-linejoin:miter;stroke-miterlimit:4;stroke-dasharray:none;stroke-dashoffset:0;stroke-opacity:1;enable-background:new"
       id="rect3"
       class="ColorScheme-Text"
       d="m 19.74626,30.160691 c -1.893834,9.8e-5 -3.584722,0.649675 -3.742269,1.494212 l -2.032317,11.521452 c -0.176669,0.950045 1.498635,1.764818 3.629021,1.764949 h 6.436692 6.436694 c 2.130386,-1.32e-4 3.805689,-0.814904 3.62902,-1.764949 L 31.995286,31.654903 c -0.157547,-0.844536 -1.772936,-1.494114 -3.66677,-1.494212 h -4.291129 z" />
    <path
       id="path1"
       class="ColorScheme-Text"
       style="fill:url(#oomox);fill-opacity:1;stroke-width:1.97782"
       d="m 0.5,0.5 v 31.960938 h 47 V 0.5 Z m 27.265625,2.8652344 h 3.75 V 4.296875 h -3.75 z m 5.640625,0 h 3.75 V 4.296875 h -3.75 z m 8.455078,0 h 0.9375 v 3.7636718 h -0.9375 V 4.296875 H 39.037109 V 3.3671875 h 2.824219 z m -36.6542968,0.00195 h 3.75 V 4.296875 H 6.1386719 v 2.84375 h -0.9375 V 3.375 h 0.00586 z m 5.6386718,0 h 3.75 V 4.296875 h -3.75 z m 5.640625,0 h 3.75 V 4.296875 h -3.75 z m 5.638672,0 h 3.751953 V 4.296875 H 22.125 Z m 19.736328,5.6191406 h 0.9375 v 3.7656249 h -0.9375 z m -24.115234,0.00977 h 1.15625 l 4.626953,4.7714842 -1.482422,1.519531 -4.300781,-4.554687 z m 11.568359,0 h 1.15625 v 1.7363282 l -4.880859,5.169922 2.386718,2.457031 c 0.243925,-0.0667 0.494647,-0.107422 0.759766,-0.107422 1.59735,0 2.892578,1.295246 2.892578,2.892578 0,1.597348 -1.295228,2.892578 -2.892578,2.892578 -1.597325,0 -2.892578,-1.29523 -2.892578,-2.892578 0,-0.516056 0.161582,-0.990688 0.398438,-1.410156 l -2.132813,-2.277344 -2.134766,2.277344 c 0.236856,0.419468 0.398438,0.8941 0.398438,1.410156 0,1.597348 -1.295254,2.892578 -2.892578,2.892578 -1.597349,0 -2.892578,-1.29523 -2.892578,-2.892578 0,-1.597332 1.295229,-2.892578 2.892578,-2.892578 0.265095,0 0.515864,0.04057 0.759765,0.107422 z m -24.1132811,0.00195 h 0.9375 v 3.7636721 h -0.9375 z M 41.861328,14.626953 h 0.9375 v 3.765625 h -0.9375 z m -36.6601561,0.01172 h 0.9375 v 3.765625 h -0.9375 z m 14.2792971,5.347656 c -0.638944,0 -1.15625,0.519288 -1.15625,1.158203 0,0.638949 0.517306,1.15625 1.15625,1.15625 0.638921,0 1.15625,-0.517301 1.15625,-1.15625 0,-0.638914 -0.517329,-1.158203 -1.15625,-1.158203 z m 9.255859,0 c -0.638921,0 -1.15625,0.519288 -1.15625,1.158203 0,0.638949 0.517329,1.15625 1.15625,1.15625 0.638919,0 1.15625,-0.517301 1.15625,-1.15625 0,-0.638914 -0.517331,-1.158203 -1.15625,-1.158203 z m 13.125,0.289063 h 0.9375 v 3.763671 h -0.9375 z m -36.6601561,0.0098 h 0.9375 v 3.765625 h -0.9375 z m 36.6601561,5.535156 h 0.9375 v 3.763672 h -0.0059 v 0.01172 h -3.751953 v -0.929687 h 2.820312 z m -36.6601561,0.0098 h 0.9375 v 2.835938 h 2.8222656 v 0.929687 H 6.1386719 5.2109375 5.2011719 Z m 5.6484371,2.835938 h 3.751953 v 0.929687 h -3.751953 z m 5.640625,0 h 3.75 v 0.929687 h -3.75 z m 5.640625,0 h 3.75 v 0.929687 h -3.75 z m 5.638672,0 h 3.75 v 0.929687 h -3.75 z m 5.640625,0 h 3.75 v 0.929687 h -3.75 z" />
  </g>
</svg>
