<?xml version="1.0" encoding="UTF-8" standalone="no"?>
<svg
   width="16"
   height="16"
   viewBox="0 0 10.24 10.24"
   version="1.1"
   id="svg4"
   xmlns:xlink="http://www.w3.org/1999/xlink"
   xmlns="http://www.w3.org/2000/svg"
   xmlns:svg="http://www.w3.org/2000/svg"
   xmlns:rdf="http://www.w3.org/1999/02/22-rdf-syntax-ns#"
   xmlns:cc="http://creativecommons.org/ns#"
   xmlns:dc="http://purl.org/dc/elements/1.1/">
  <defs>
   <style id="current-color-scheme" type="text/css">
   .ColorScheme-Text { color: #0abdc6; } .ColorScheme-Highlight { color:#5294e2; }
  </style>
  <linearGradient id="arrongin" x1="0%" x2="0%" y1="0%" y2="100%">
   <stop offset="0%" style="stop-color:#dd9b44; stop-opacity:1"/>
   <stop offset="100%" style="stop-color:#ad6c16; stop-opacity:1"/>
  </linearGradient>
  <linearGradient id="aurora" x1="0%" x2="0%" y1="0%" y2="100%">
   <stop offset="0%" style="stop-color:#09D4DF; stop-opacity:1"/>
   <stop offset="100%" style="stop-color:#9269F4; stop-opacity:1"/>
  </linearGradient>
  <linearGradient id="cyberneon" x1="0%" x2="0%" y1="0%" y2="100%">
    <stop offset="0" style="stop-color:#0abdc6; stop-opacity:1"/>
    <stop offset="1" style="stop-color:#ea00d9; stop-opacity:1"/>
  </linearGradient>
  <linearGradient id="fitdance" x1="0%" x2="0%" y1="0%" y2="100%">
   <stop offset="0%" style="stop-color:#1AD6AB; stop-opacity:1"/>
   <stop offset="100%" style="stop-color:#329DB6; stop-opacity:1"/>
  </linearGradient>
  <linearGradient id="oomox" x1="0%" x2="0%" y1="0%" y2="100%">
   <stop offset="0%" style="stop-color:#0abdc6; stop-opacity:1"/>
   <stop offset="100%" style="stop-color:#b800ff; stop-opacity:1"/>
  </linearGradient>
  <linearGradient id="rainblue" x1="0%" x2="0%" y1="0%" y2="100%">
   <stop offset="0%" style="stop-color:#00F260; stop-opacity:1"/>
   <stop offset="100%" style="stop-color:#0575E6; stop-opacity:1"/>
  </linearGradient>
  <linearGradient id="sunrise" x1="0%" x2="0%" y1="0%" y2="100%">
   <stop offset="0%" style="stop-color: #FF8501; stop-opacity:1"/>
   <stop offset="100%" style="stop-color: #FFCB01; stop-opacity:1"/>
  </linearGradient>
  <linearGradient id="telinkrin" x1="0%" x2="0%" y1="0%" y2="100%">
   <stop offset="0%" style="stop-color: #b2ced6; stop-opacity:1"/>
   <stop offset="100%" style="stop-color: #6da5b7; stop-opacity:1"/>
  </linearGradient>
  <linearGradient id="60spsycho" x1="0%" x2="0%" y1="0%" y2="100%">
   <stop offset="0%" style="stop-color: #df5940; stop-opacity:1"/>
   <stop offset="25%" style="stop-color: #d8d15f; stop-opacity:1"/>
   <stop offset="50%" style="stop-color: #e9882a; stop-opacity:1"/>
   <stop offset="100%" style="stop-color: #279362; stop-opacity:1"/>
  </linearGradient>
  <linearGradient id="90ssummer" x1="0%" x2="0%" y1="0%" y2="100%">
   <stop offset="0%" style="stop-color: #f618c7; stop-opacity:1"/>
   <stop offset="20%" style="stop-color: #94ffab; stop-opacity:1"/>
   <stop offset="50%" style="stop-color: #fbfd54; stop-opacity:1"/>
   <stop offset="100%" style="stop-color: #0f83ae; stop-opacity:1"/>
  </linearGradient>
 </defs>
  <path
     d="m 8.5964101,7.0406919 c 0.5777099,0 1.0460346,-0.4683243 1.0460346,-1.0460345 v -1.494335 c 0,-0.5777099 -0.4683247,-1.0460346 -1.0460346,-1.0460346 -0.5777099,0 -1.0460345,0.4683247 -1.0460345,1.0460346 v 1.494335 c 0,0.5777102 0.4683246,1.0460345 1.0460345,1.0460345 z M 10.240179,6.2935246 H 9.9413115 C 9.8051778,6.8923045 9.2362843,7.3395591 8.5964101,7.3395591 c -0.6398744,0 -1.2087677,-0.4472546 -1.3449017,-1.0460345 H 6.9526415 c 0.1319496,0.7171312 0.756582,1.271679 1.4943351,1.3381771 V 7.9372932 H 8.2975429 c -0.082487,0 -0.1494333,0.066946 -0.1494333,0.1494333 0,0.082637 0.066946,0.1494335 0.1494333,0.1494335 H 8.895277 c 0.082487,0 0.1494336,-0.066797 0.1494336,-0.1494335 0,-0.082487 -0.066946,-0.1494333 -0.1494336,-0.1494333 H 8.7458434 V 7.6317017 C 9.4835967,7.5652036 10.10823,7.0106558 10.240179,6.2935246 Z"
     id="path_mike"
     class="ColorScheme-Text"
     style="fill:url(#oomox);fill-opacity:1;stroke-width:0.149433" />
  <path
     d="M 5.3218397,3.5154599 4.4928842,2.3180126 A 0.6783352,0.6783352 0 0 0 3.945942,2.0264089 L 2.3727955,2.00384 h -0.00324 C 1.55737,2.00384 0.9342157,2.1396904 0.53287086,2.8026929 0.15921402,3.4198385 -1.785e-4,4.47111 -1.785e-4,6.3178069 V 6.5434955 H 0.51547755 L 0.18353205,8.2361597 H 0.64351352 L 0.97545904,6.5434955 H 1.1282643 A 1.403797,1.403797 0 0 0 2.1168931,6.148655 C 2.3563901,5.9194927 2.5291402,5.6059864 2.616497,5.242034 L 2.6174342,5.238744 3.0045296,3.383838 H 2.5433032 L 2.1768325,5.1398237 C 2.0652296,5.6007908 1.7315068,6.0921142 1.1282694,6.0921142 H 0.45204493 C 0.46430271,4.4944392 0.60977308,3.5472115 0.91900867,3.0363793 1.1785506,2.607571 1.557919,2.4553581 2.3679862,2.4551466 l 1.5714687,0.022569 a 0.22605531,0.22605531 0 0 1 0.1823126,0.097201 L 5.0594766,3.9293161 6.3191015,4.139263 V 4.3784797 L 6.1090418,5.4987547 C 6.047048,5.8294026 5.941073,5.9959607 5.5064813,6.0481656 L 3.7248679,6.352972 3.713092,8.2361597 H 4.1644682 L 4.1738774,6.7340182 5.5660938,6.4956335 C 5.8814921,6.4568591 6.1141916,6.3552138 6.2773795,6.1849869 6.4168819,6.0394478 6.5017842,5.8535091 6.5527053,5.5819489 L 6.7704808,4.4204283 V 3.7568902 Z"
     class="ColorScheme-Text"
     id="path_doggie"
     style="font-variation-settings:normal;opacity:1;vector-effect:none;fill:url(#oomox);fill-opacity:1;stroke-width:0.364783;stroke-linecap:butt;stroke-linejoin:miter;stroke-miterlimit:4;stroke-dasharray:none;stroke-dashoffset:0;stroke-opacity:1;-inkscape-stroke:none;stop-color:#000000;stop-opacity:1" />
  <metadata
     id="metadata133">
    <rdf:RDF>
      <cc:Work
         rdf:about="">
        <dc:creator>
          <cc:Agent>
            <dc:title>dreifacherspass</dc:title>
          </cc:Agent>
        </dc:creator>
        <cc:license
           rdf:resource="http://creativecommons.org/licenses/by-sa/4.0/" />
      </cc:Work>
      <cc:License
         rdf:about="http://creativecommons.org/licenses/by-sa/4.0/">
        <cc:permits
           rdf:resource="http://creativecommons.org/ns#Reproduction" />
        <cc:permits
           rdf:resource="http://creativecommons.org/ns#Distribution" />
        <cc:requires
           rdf:resource="http://creativecommons.org/ns#Notice" />
        <cc:requires
           rdf:resource="http://creativecommons.org/ns#Attribution" />
        <cc:permits
           rdf:resource="http://creativecommons.org/ns#DerivativeWorks" />
        <cc:requires
           rdf:resource="http://creativecommons.org/ns#ShareAlike" />
      </cc:License>
    </rdf:RDF>
  </metadata>
</svg>
