<?xml version="1.0" encoding="UTF-8" standalone="no"?>
<svg
   width="16"
   height="16"
   viewBox="0 0 0.96 0.96"
   version="1.1"
   id="svg5"
   xmlns="http://www.w3.org/2000/svg"
   xmlns:svg="http://www.w3.org/2000/svg"
   xmlns:rdf="http://www.w3.org/1999/02/22-rdf-syntax-ns#"
   xmlns:cc="http://creativecommons.org/ns#"
   xmlns:dc="http://purl.org/dc/elements/1.1/">
   <defs>
      <style id="current-color-scheme" type="text/css">
         .ColorScheme-Text { color: #0abdc6; } .ColorScheme-Highlight { color:#5294e2; }
      </style>
      <linearGradient id="arrongin" x1="0%" x2="0%" y1="0%" y2="100%">
         <stop offset="0%" style="stop-color:#dd9b44; stop-opacity:1"/>
         <stop offset="100%" style="stop-color:#ad6c16; stop-opacity:1"/>
      </linearGradient>
      <linearGradient id="aurora" x1="0%" x2="0%" y1="0%" y2="100%">
         <stop offset="0%" style="stop-color:#09D4DF; stop-opacity:1"/>
         <stop offset="100%" style="stop-color:#9269F4; stop-opacity:1"/>
      </linearGradient>
      <linearGradient id="cyberneon" x1="0%" x2="0%" y1="0%" y2="100%">
         <stop offset="0" style="stop-color:#0abdc6; stop-opacity:1"/>
         <stop offset="1" style="stop-color:#ea00d9; stop-opacity:1"/>
      </linearGradient>
      <linearGradient id="fitdance" x1="0%" x2="0%" y1="0%" y2="100%">
         <stop offset="0%" style="stop-color:#1AD6AB; stop-opacity:1"/>
         <stop offset="100%" style="stop-color:#329DB6; stop-opacity:1"/>
      </linearGradient>
      <linearGradient id="oomox" x1="0%" x2="0%" y1="0%" y2="100%">
         <stop offset="0%" style="stop-color:#0abdc6; stop-opacity:1"/>
         <stop offset="100%" style="stop-color:#b800ff; stop-opacity:1"/>
      </linearGradient>
      <linearGradient id="rainblue" x1="0%" x2="0%" y1="0%" y2="100%">
         <stop offset="0%" style="stop-color:#00F260; stop-opacity:1"/>
         <stop offset="100%" style="stop-color:#0575E6; stop-opacity:1"/>
      </linearGradient>
      <linearGradient id="sunrise" x1="0%" x2="0%" y1="0%" y2="100%">
         <stop offset="0%" style="stop-color: #FF8501; stop-opacity:1"/>
         <stop offset="100%" style="stop-color: #FFCB01; stop-opacity:1"/>
      </linearGradient>
      <linearGradient id="telinkrin" x1="0%" x2="0%" y1="0%" y2="100%">
         <stop offset="0%" style="stop-color: #b2ced6; stop-opacity:1"/>
         <stop offset="100%" style="stop-color: #6da5b7; stop-opacity:1"/>
      </linearGradient>
      <linearGradient id="60spsycho" x1="0%" x2="0%" y1="0%" y2="100%">
         <stop offset="0%" style="stop-color: #df5940; stop-opacity:1"/>
         <stop offset="25%" style="stop-color: #d8d15f; stop-opacity:1"/>
         <stop offset="50%" style="stop-color: #e9882a; stop-opacity:1"/>
         <stop offset="100%" style="stop-color: #279362; stop-opacity:1"/>
      </linearGradient>
      <linearGradient id="90ssummer" x1="0%" x2="0%" y1="0%" y2="100%">
         <stop offset="0%" style="stop-color: #f618c7; stop-opacity:1"/>
         <stop offset="20%" style="stop-color: #94ffab; stop-opacity:1"/>
         <stop offset="50%" style="stop-color: #fbfd54; stop-opacity:1"/>
         <stop offset="100%" style="stop-color: #0f83ae; stop-opacity:1"/>
      </linearGradient>
   </defs>
  <path
     id="path1"
     class="ColorScheme-Text"
     style="stroke-width:0.0228571;fill:url(#oomox)"
     d="m 0.41142857,0.25138393 a 0.06857143,0.06857143 0 0 0 -0.0685714,0.0685714 0.06857143,0.06857143 0 0 0 0.0685714,0.0685714 0.06857143,0.06857143 0 0 0 0.0685714,-0.0685714 0.06857143,0.06857143 0 0 0 -0.0685714,-0.0685714 z m -0.0151339,0.36616071 a 0.34971429,0.34971429 0 0 0 -0.14491071,0.0384375 v 0.0526339 H 0.57147321 V 0.65598214 A 0.34971429,0.34971429 0 0 0 0.39629467,0.61754464 Z" />
  <path
     id="path26"
     class="ColorScheme-Text"
     style="stroke-width:0.0228571;fill:url(#oomox)"
     d="M 0.84574219 0.091523437 L 0.84574219 0.31992187 L 0.89144531 0.31992187 A 0.04571429 0.04571429 0 0 0 0.93714844 0.27433594 L 0.93714844 0.13710938 A 0.04571429 0.04571429 0 0 0 0.89144531 0.091523437 L 0.84574219 0.091523437 z M 0.84574219 0.36574219 L 0.84574219 0.59425781 L 0.89144531 0.59425781 A 0.04571429 0.04571429 0 0 0 0.93714844 0.54855469 L 0.93714844 0.41144531 A 0.04571429 0.04571429 0 0 0 0.89144531 0.36574219 L 0.84574219 0.36574219 z M 0.84574219 0.64007812 L 0.84574219 0.86847656 L 0.89144531 0.86847656 A 0.04571429 0.04571429 0 0 0 0.93714844 0.82289062 L 0.93714844 0.68566406 A 0.04571429 0.04571429 0 0 0 0.89144531 0.64007812 L 0.84574219 0.64007812 z " />
  <path
     style="stroke-width:0.0228571;fill:url(#oomox)"
     d="M 0.06857143,0 A 0.04571429,0.04571429 0 0 0 0.02290178,0.04566964 V 0.91433035 A 0.04571429,0.04571429 0 0 0 0.06857143,0.96 H 0.75428571 A 0.04571429,0.04571429 0 0 0 0.79995541,0.9143303 V 0.04566964 A 0.04571429,0.04571429 0 0 0 0.75428571,0 Z M 0.41142857,0.16004464 A 0.16,0.16 0 1 1 0.25138393,0.31995536 0.16,0.16 0 0 1 0.41142857,0.16004464 Z m 0,0.36562501 a 0.448,0.448 0 0 1 0.23089286,0.0640178 l 0.0204911,0.0137946 v 0.15080357 a 0.04571429,0.04571429 0 0 1 -0.0456697,0.0456696 H 0.20571428 A 0.04571429,0.04571429 0 0 1 0.16004464,0.75428571 V 0.60348214 l 0.0204911,-0.0137946 a 0.448,0.448 0 0 1 0.23089283,-0.0640179 z"
     id="path2"
     class="ColorScheme-Text"/>
  <metadata
     id="metadata5">
    <rdf:RDF>
      <cc:Work
         rdf:about="">
        <dc:creator>
          <cc:Agent>
            <dc:title>dreifacherspass</dc:title>
          </cc:Agent>
        </dc:creator>
        <cc:license
           rdf:resource="http://creativecommons.org/licenses/by-sa/4.0/" />
      </cc:Work>
      <cc:License
         rdf:about="http://creativecommons.org/licenses/by-sa/4.0/">
        <cc:permits
           rdf:resource="http://creativecommons.org/ns#Reproduction" />
        <cc:permits
           rdf:resource="http://creativecommons.org/ns#Distribution" />
        <cc:requires
           rdf:resource="http://creativecommons.org/ns#Notice" />
        <cc:requires
           rdf:resource="http://creativecommons.org/ns#Attribution" />
        <cc:permits
           rdf:resource="http://creativecommons.org/ns#DerivativeWorks" />
        <cc:requires
           rdf:resource="http://creativecommons.org/ns#ShareAlike" />
      </cc:License>
    </rdf:RDF>
  </metadata>
</svg>
