<?xml version="1.0" encoding="UTF-8" standalone="no"?>
<svg
   width="16"
   height="16"
   viewBox="0 0 4 4"
   version="1.1"
   id="svg9"
   xmlns:xlink="http://www.w3.org/1999/xlink"
   xmlns="http://www.w3.org/2000/svg"
   xmlns:svg="http://www.w3.org/2000/svg"
   xmlns:rdf="http://www.w3.org/1999/02/22-rdf-syntax-ns#"
   xmlns:cc="http://creativecommons.org/ns#"
   xmlns:dc="http://purl.org/dc/elements/1.1/">
   <defs>
   <style id="current-color-scheme" type="text/css">
   .ColorScheme-Text { color: #0abdc6; } .ColorScheme-Highlight { color:#5294e2; }
  </style>
  <linearGradient id="arrongin" x1="0%" x2="0%" y1="0%" y2="100%">
   <stop offset="0%" style="stop-color:#dd9b44; stop-opacity:1"/>
   <stop offset="100%" style="stop-color:#ad6c16; stop-opacity:1"/>
  </linearGradient>
  <linearGradient id="aurora" x1="0%" x2="0%" y1="0%" y2="100%">
   <stop offset="0%" style="stop-color:#09D4DF; stop-opacity:1"/>
   <stop offset="100%" style="stop-color:#9269F4; stop-opacity:1"/>
  </linearGradient>
  <linearGradient id="cyberneon" x1="0%" x2="0%" y1="0%" y2="100%">
    <stop offset="0" style="stop-color:#0abdc6; stop-opacity:1"/>
    <stop offset="1" style="stop-color:#ea00d9; stop-opacity:1"/>
  </linearGradient>
  <linearGradient id="fitdance" x1="0%" x2="0%" y1="0%" y2="100%">
   <stop offset="0%" style="stop-color:#1AD6AB; stop-opacity:1"/>
   <stop offset="100%" style="stop-color:#329DB6; stop-opacity:1"/>
  </linearGradient>
  <linearGradient id="oomox" x1="0%" x2="0%" y1="0%" y2="100%">
   <stop offset="0%" style="stop-color:#0abdc6; stop-opacity:1"/>
   <stop offset="100%" style="stop-color:#b800ff; stop-opacity:1"/>
  </linearGradient>
  <linearGradient id="rainblue" x1="0%" x2="0%" y1="0%" y2="100%">
   <stop offset="0%" style="stop-color:#00F260; stop-opacity:1"/>
   <stop offset="100%" style="stop-color:#0575E6; stop-opacity:1"/>
  </linearGradient>
  <linearGradient id="sunrise" x1="0%" x2="0%" y1="0%" y2="100%">
   <stop offset="0%" style="stop-color: #FF8501; stop-opacity:1"/>
   <stop offset="100%" style="stop-color: #FFCB01; stop-opacity:1"/>
  </linearGradient>
  <linearGradient id="telinkrin" x1="0%" x2="0%" y1="0%" y2="100%">
   <stop offset="0%" style="stop-color: #b2ced6; stop-opacity:1"/>
   <stop offset="100%" style="stop-color: #6da5b7; stop-opacity:1"/>
  </linearGradient>
  <linearGradient id="60spsycho" x1="0%" x2="0%" y1="0%" y2="100%">
   <stop offset="0%" style="stop-color: #df5940; stop-opacity:1"/>
   <stop offset="25%" style="stop-color: #d8d15f; stop-opacity:1"/>
   <stop offset="50%" style="stop-color: #e9882a; stop-opacity:1"/>
   <stop offset="100%" style="stop-color: #279362; stop-opacity:1"/>
  </linearGradient>
  <linearGradient id="90ssummer" x1="0%" x2="0%" y1="0%" y2="100%">
   <stop offset="0%" style="stop-color: #f618c7; stop-opacity:1"/>
   <stop offset="20%" style="stop-color: #94ffab; stop-opacity:1"/>
   <stop offset="50%" style="stop-color: #fbfd54; stop-opacity:1"/>
   <stop offset="100%" style="stop-color: #0f83ae; stop-opacity:1"/>
  </linearGradient>
 </defs>
  <path
     id="path2"
     style="stroke-width:0.125;fill:url(#oomox)"
     class="ColorScheme-Text"
     d="M 0.375 0 L 0.375 0.25 L 0 0.25 L 0 1.875 L 0.625 1.875 L 0.625 2.75 L 1 2.75 L 1 4 L 3.25 4 L 3.25 2.5 L 2.875 2.5 L 2.875 0 L 0.375 0 z M 0.625 0.25 L 0.875 0.25 L 0.875 1.625 L 0.25 1.625 L 0.25 0.5 L 0.625 0.5 L 0.625 0.25 z M 1.125 0.25 L 1.75 0.25 L 1.75 0.375 L 1.375 0.375 L 1.375 0.5 L 1.75 0.5 L 1.75 0.625 L 1.375 0.625 L 1.375 1.5 L 1.5 1.5 L 1.5 0.75 L 1.75 0.75 L 1.75 1.625 L 1.125 1.625 L 1.125 0.25 z M 2 0.25 L 2.625 0.25 L 2.625 0.375 L 2.25 0.375 L 2.25 0.5 L 2.625 0.5 L 2.625 1.625 L 2 1.625 L 2 0.75 L 2.25 0.75 L 2.25 1.5 L 2.375 1.5 L 2.375 0.625 L 2 0.625 L 2 0.25 z M 0.5 0.625 L 0.5 1.5 L 0.625 1.5 L 0.625 0.625 L 0.5 0.625 z M 0.875 1.75 L 1.875 1.75 L 1.875 2.5 L 1.625 2.5 L 1.625 1.875 L 1.5 1.875 L 1.5 2.5 L 1.25 2.5 L 1.25 1.875 L 1.125 1.875 L 1.125 2.5 L 0.875 2.5 L 0.875 1.75 z M 2 1.75 L 2.25 1.75 L 2.25 2.375 L 2.375 2.375 L 2.375 1.75 L 2.625 1.75 L 2.625 2.5 L 2 2.5 L 2 1.75 z M 1.25 2.75 L 2.25 2.75 L 2.25 3.75 L 2 3.75 L 2 2.875 L 1.875 2.875 L 1.875 3.75 L 1.625 3.75 L 1.625 2.875 L 1.5 2.875 L 1.5 3.75 L 1.25 3.75 L 1.25 2.75 z M 2.375 2.75 L 3 2.75 L 3 2.875 L 2.625 2.875 L 2.625 3 L 3 3 L 3 3.125 L 2.625 3.125 L 2.625 3.625 L 2.75 3.625 L 2.75 3.25 L 3 3.25 L 3 3.75 L 2.375 3.75 L 2.375 2.75 z " />
  <path
     d="M 0.625,0.25 V 0.5 H 0.25 V 1.625 H 0.875 V 0.25 Z M 0.5,0.625 H 0.625 V 1.5 H 0.5 Z"
     id="path3"
     class="ColorScheme-Text"
     style="fill:url(#oomox);stroke-width:0.125;opacity:0.2;stroke:none;stroke-opacity:1" />
  <path
     d="M 1.125,0.25 H 1.75 V 0.375 H 1.375 V 0.5 H 1.75 V 0.625 H 1.375 V 1.5 H 1.5 V 0.75 H 1.75 V 1.625 H 1.125 Z"
     id="path4"
     class="ColorScheme-Text"
     style="fill:url(#oomox);stroke-width:0.125;opacity:0.2" />
  <path
     d="M 2,0.25 H 2.625 V 0.375 H 2.25 V 0.5 H 2.625 V 1.625 H 2 V 0.75 H 2.25 V 1.5 H 2.375 V 0.625 H 2 Z"
     id="path5"
     class="ColorScheme-Text"
     style="fill:url(#oomox);stroke-width:0.125;opacity:0.2" />
  <path
     d="m 0.875,1.75 h 1 V 2.5 H 1.625 V 1.875 H 1.5 V 2.5 H 1.25 V 1.875 H 1.125 V 2.5 h -0.25 z"
     id="path6"
     class="ColorScheme-Text"
     style="fill:url(#oomox);stroke-width:0.125;opacity:0.2" />
  <path
     d="M 2,1.75 H 2.25 V 2.375 H 2.375 V 1.75 h 0.25 V 2.5 H 2 Z"
     id="path7"
     class="ColorScheme-Text"
     style="fill:url(#oomox);stroke-width:0.125;opacity:0.2" />
  <path
     d="M 2.375,2.75 H 3 V 2.875 H 2.625 V 3 H 3 V 3.125 H 2.625 v 0.5 H 2.75 V 3.25 H 3 v 0.5 H 2.375 Z"
     id="path8"
     class="ColorScheme-Text"
     style="fill:url(#oomox);stroke-width:0.125;opacity:0.2" />
  <path
     d="m 1.25,2.75 h 1 v 1 H 2 V 2.875 H 1.875 V 3.75 H 1.625 V 2.875 H 1.5 V 3.75 H 1.25 Z"
     id="path9"
     class="ColorScheme-Text"
     style="fill:url(#oomox);stroke-width:0.125;opacity:0.2" />
  <metadata
     id="metadata15">
    <rdf:RDF>
      <cc:Work
         rdf:about="">
        <dc:creator>
          <cc:Agent>
            <dc:title>dreifacherspass</dc:title>
          </cc:Agent>
        </dc:creator>
        <cc:license
           rdf:resource="http://creativecommons.org/licenses/by-sa/4.0/" />
      </cc:Work>
      <cc:License
         rdf:about="http://creativecommons.org/licenses/by-sa/4.0/">
        <cc:permits
           rdf:resource="http://creativecommons.org/ns#Reproduction" />
        <cc:permits
           rdf:resource="http://creativecommons.org/ns#Distribution" />
        <cc:requires
           rdf:resource="http://creativecommons.org/ns#Notice" />
        <cc:requires
           rdf:resource="http://creativecommons.org/ns#Attribution" />
        <cc:permits
           rdf:resource="http://creativecommons.org/ns#DerivativeWorks" />
        <cc:requires
           rdf:resource="http://creativecommons.org/ns#ShareAlike" />
      </cc:License>
    </rdf:RDF>
  </metadata>
</svg>
