<?xml version="1.0" encoding="UTF-8" standalone="no"?>
<svg
   width="48"
   height="48"
   viewBox="0 0 12.7 12.7"
   version="1.1"
   id="svg3220"
   xmlns:xlink="http://www.w3.org/1999/xlink"
   xmlns="http://www.w3.org/2000/svg"
   xmlns:svg="http://www.w3.org/2000/svg"
   xmlns:rdf="http://www.w3.org/1999/02/22-rdf-syntax-ns#"
   xmlns:cc="http://creativecommons.org/ns#"
   xmlns:dc="http://purl.org/dc/elements/1.1/">
  <defs
     id="defs61">
    <style
       id="current-color-scheme"
       type="text/css">
   .ColorScheme-Text { color: #0abdc6; } .ColorScheme-Highlight { color:#5294e2; }
  </style>
    <linearGradient
       id="arrongin"
       x1="0%"
       x2="0%"
       y1="0%"
       y2="100%">
      <stop
         offset="0%"
         style="stop-color:#dd9b44; stop-opacity:1"
         id="stop3" />
      <stop
         offset="100%"
         style="stop-color:#ad6c16; stop-opacity:1"
         id="stop5" />
    </linearGradient>
    <linearGradient
       id="aurora"
       x1="0%"
       x2="0%"
       y1="0%"
       y2="100%">
      <stop
         offset="0%"
         style="stop-color:#09D4DF; stop-opacity:1"
         id="stop8" />
      <stop
         offset="100%"
         style="stop-color:#9269F4; stop-opacity:1"
         id="stop10" />
    </linearGradient>
    <linearGradient
       id="cyberneon"
       x1="0%"
       x2="0%"
       y1="0%"
       y2="100%">
      <stop
         offset="0"
         style="stop-color:#0abdc6; stop-opacity:1"
         id="stop13" />
      <stop
         offset="1"
         style="stop-color:#ea00d9; stop-opacity:1"
         id="stop15" />
    </linearGradient>
    <linearGradient
       id="fitdance"
       x1="0%"
       x2="0%"
       y1="0%"
       y2="100%">
      <stop
         offset="0%"
         style="stop-color:#1AD6AB; stop-opacity:1"
         id="stop18" />
      <stop
         offset="100%"
         style="stop-color:#329DB6; stop-opacity:1"
         id="stop20" />
    </linearGradient>
    <linearGradient
       id="oomox"
       x1="0%"
       x2="0%"
       y1="0%"
       y2="100%">
      <stop
         offset="0%"
         style="stop-color:#0abdc6; stop-opacity:1"
         id="stop23" />
      <stop
         offset="100%"
         style="stop-color:#b800ff; stop-opacity:1"
         id="stop25" />
    </linearGradient>
    <linearGradient
       id="rainblue"
       x1="0%"
       x2="0%"
       y1="0%"
       y2="100%">
      <stop
         offset="0%"
         style="stop-color:#00F260; stop-opacity:1"
         id="stop28" />
      <stop
         offset="100%"
         style="stop-color:#0575E6; stop-opacity:1"
         id="stop30" />
    </linearGradient>
    <linearGradient
       id="sunrise"
       x1="0%"
       x2="0%"
       y1="0%"
       y2="100%">
      <stop
         offset="0%"
         style="stop-color: #FF8501; stop-opacity:1"
         id="stop33" />
      <stop
         offset="100%"
         style="stop-color: #FFCB01; stop-opacity:1"
         id="stop35" />
    </linearGradient>
    <linearGradient
       id="telinkrin"
       x1="0%"
       x2="0%"
       y1="0%"
       y2="100%">
      <stop
         offset="0%"
         style="stop-color: #b2ced6; stop-opacity:1"
         id="stop38" />
      <stop
         offset="100%"
         style="stop-color: #6da5b7; stop-opacity:1"
         id="stop40" />
    </linearGradient>
    <linearGradient
       id="60spsycho"
       x1="0%"
       x2="0%"
       y1="0%"
       y2="100%">
      <stop
         offset="0%"
         style="stop-color: #df5940; stop-opacity:1"
         id="stop43" />
      <stop
         offset="25%"
         style="stop-color: #d8d15f; stop-opacity:1"
         id="stop45" />
      <stop
         offset="50%"
         style="stop-color: #e9882a; stop-opacity:1"
         id="stop47" />
      <stop
         offset="100%"
         style="stop-color: #279362; stop-opacity:1"
         id="stop49" />
    </linearGradient>
    <linearGradient
       id="90ssummer"
       x1="0%"
       x2="0%"
       y1="0%"
       y2="100%">
      <stop
         offset="0%"
         style="stop-color: #f618c7; stop-opacity:1"
         id="stop52" />
      <stop
         offset="20%"
         style="stop-color: #94ffab; stop-opacity:1"
         id="stop54" />
      <stop
         offset="50%"
         style="stop-color: #fbfd54; stop-opacity:1"
         id="stop56" />
      <stop
         offset="100%"
         style="stop-color: #0f83ae; stop-opacity:1"
         id="stop58" />
    </linearGradient>
  </defs>
  <path
     id="Path111"
     style="display:inline;opacity:0.5;fill:url(#oomox);fill-opacity:1;stroke-width:0.0451981"
     class="ColorScheme-Text"
     d="M 11.224121 4.887557 L 11.224121 5.5360962 L 10.948686 5.5360962 L 10.948686 7.1308309 L 12.560474 7.1308309 L 12.560474 5.5360962 L 12.284521 5.5360962 L 12.284521 4.887557 L 11.224121 4.887557 z M 10.948686 8.0630737 L 10.948686 11.488704 L 12.560474 11.488704 L 12.560474 8.0630737 L 10.948686 8.0630737 z " />
  <path
     id="Path112"
     style="display:inline;opacity:0.5;fill:url(#oomox);fill-opacity:1;stroke-width:0.0814885"
     class="ColorScheme-Text"
     d="M 10.479464,0.13229167 9.7523763,3.1404797 9.5994141,3.1410016 V 4.585078 H 9.7234375 V 7.200281 H 11.23549 V 4.5845561 h 0.12454 V 3.1404797 H 11.207068 Z M 9.7234375,8.141775 v 3.344808 H 11.23549 V 8.141775 Z" />
  <path
     id="Path113"
     style="display:inline;opacity:0.5;fill:url(#oomox);fill-opacity:1;stroke-width:0.0451981"
     class="ColorScheme-Text"
     d="M 9.2056396 7.1034424 L 9.2056396 7.1308309 L 10.012826 7.1308309 L 10.012826 7.1034424 L 9.2056396 7.1034424 z M 8.2258545 8.0630737 L 8.2258545 11.488704 L 10.012826 11.488704 L 10.012826 8.0630737 L 8.2258545 8.0630737 z " />
  <path
     id="Path114"
     style="display:inline;opacity:0.5;fill:url(#oomox);fill-opacity:1;stroke-width:0.0451981"
     class="ColorScheme-Text"
     d="M 7.6460449 2.8881958 L 7.1912923 3.8871012 L 6.7365397 4.878772 L 6.7365397 7.1308309 L 8.5550334 7.1308309 L 8.5550334 4.878772 L 8.1007975 3.8871012 L 7.6460449 2.8881958 z M 6.7365397 8.0630737 L 6.7365397 11.488704 L 8.5550334 11.488704 L 8.5550334 8.0630737 L 6.7365397 8.0630737 z " />
  <path
     id="Path115"
     style="display:inline;opacity:0.5;fill:url(#oomox);fill-opacity:1;stroke-width:0.0451981"
     class="ColorScheme-Text"
     d="M 6.9969889 0.18603516 L 5.5273112 2.6566854 L 5.5273112 7.1308309 L 6.9969889 7.1308309 L 6.9969889 0.18603516 z M 5.5273112 8.0630737 L 5.5273112 11.488704 L 6.9969889 11.488704 L 6.9969889 8.0630737 L 5.5273112 8.0630737 z " />
  <path
     id="Path116"
     style="display:inline;opacity:0.5;fill:url(#oomox);fill-opacity:1;stroke-width:0.0451981"
     class="ColorScheme-Text"
     d="M 4.3640747 4.617806 L 4.3640747 7.1308309 L 5.8337524 7.1308309 L 5.8337524 4.617806 L 4.3640747 4.617806 z M 4.3640747 8.0630737 L 4.3640747 11.488704 L 5.8337524 11.488704 L 5.8337524 8.0630737 L 4.3640747 8.0630737 z " />
  <path
     id="Path117"
     style="display:inline;opacity:0.5;fill:url(#oomox);fill-opacity:1;stroke-width:0.0562875"
     class="ColorScheme-Text"
     d="M 2.6799398 4.5201375 L 2.6799398 5.3583293 L 2.8633911 5.3583293 L 2.8633911 7.1308309 L 4.5976522 7.1308309 L 4.5976522 5.3583293 L 4.7811035 5.3583293 L 4.7811035 4.5201375 L 2.8633911 4.5201375 L 2.6799398 4.5201375 z M 2.8633911 8.0630737 L 2.8633911 11.488704 L 4.5976522 11.488704 L 4.5976522 8.0630737 L 2.8633911 8.0630737 z " />
  <path
     id="Path118"
     style="display:inline;opacity:0.5;fill:url(#oomox);fill-opacity:1;stroke-width:0.0451981"
     class="ColorScheme-Text"
     d="M 2.4696167 0.44286702 L 2.4696167 2.6990601 L 2.2778971 2.6990601 L 2.2778971 3.1042033 L 2.0634399 3.1042033 L 2.0634399 3.7062337 L 1.8381307 3.7062337 L 1.8381307 7.1308309 L 3.3078084 7.1308309 L 3.3078084 3.7062337 L 3.0819824 3.7062337 L 3.0819824 3.1047201 L 2.868042 3.1047201 L 2.868042 2.6990601 L 2.6763224 2.6990601 L 2.6763224 0.44286702 L 2.4696167 0.44286702 z M 1.8381307 8.0630737 L 1.8381307 11.488704 L 3.3078084 11.488704 L 3.3078084 8.0630737 L 1.8381307 8.0630737 z " />
  <path
     id="Path119"
     style="display:inline;opacity:0.5;fill:url(#oomox);fill-opacity:1;stroke-width:0.0603874"
     class="ColorScheme-Text"
     d="M 0.68833008 3.9026042 L 0.68833008 5.0131307 L 0.13745931 5.0131307 L 0.13745931 11.488704 L 2.0660238 11.488704 L 2.0660238 8.0630737 L 0.36431885 8.0630737 A 1.0966936 1.0970008 0 0 1 0.64388835 7.6894531 L 0.64337158 7.6889364 L 1.2743408 7.1308309 L 2.0660238 7.1308309 L 2.0660238 5.0131307 L 1.515153 5.0131307 L 1.515153 3.9026042 L 0.68833008 3.9026042 z " />
  <circle
     style="opacity:1;fill:url(#oomox);fill-opacity:1;stroke:none;stroke-width:0.477896;-inkscape-stroke:none;paint-order:markers fill stroke;stop-color:#000000"
     id="path6133"
     class="ColorScheme-Text"
     cx="-11.52922"
     cy="-9.9274311"
     r="0.92604166"
     transform="scale(-1)" />
  <circle
     style="fill:url(#oomox);fill-opacity:1;stroke:none;stroke-width:0.477896;-inkscape-stroke:none;paint-order:markers fill stroke;stop-color:#000000"
     id="path6133-6"
     class="ColorScheme-Text"
     cx="-9.3927088"
     cy="-9.9274311"
     r="0.92604166"
     transform="scale(-1)" />
  <circle
     style="fill:url(#oomox);fill-opacity:1;stroke:none;stroke-width:0.477896;-inkscape-stroke:none;paint-order:markers fill stroke;stop-color:#000000"
     id="path6133-6-1"
     class="ColorScheme-Text"
     cx="-3.6194239"
     cy="-11.247456"
     r="0.92604166"
     transform="rotate(165)" />
  <circle
     style="fill:url(#oomox);fill-opacity:1;stroke:none;stroke-width:0.477896;-inkscape-stroke:none;paint-order:markers fill stroke;stop-color:#000000"
     id="path6133-6-1-9"
     class="ColorScheme-Text"
     cx="-1.555457"
     cy="-10.694416"
     r="0.92604166"
     transform="rotate(165)" />
  <path
     id="path3168"
     style="display:inline;fill:url(#oomox);fill-opacity:1;stroke-width:0.310648"
     class="ColorScheme-Text"
     d="M 0.13435872 1.2195638 C 0.13435872 1.2878375 0.13229167 1.4244408 0.13229167 1.5306559 L 7.8336304 1.5306559 A 0.15531752 0.15536111 0 0 0 7.9085612 1.8226278 L 8.2790812 1.8226278 L 6.8972534 2.6473836 A 0.15531752 0.15536111 0 0 0 6.9241252 2.9274699 L 8.2299886 3.4023763 L 6.4182129 3.4018595 L 6.4161458 3.4034098 A 2.4581211 2.4588095 0 0 0 6.404777 3.4028931 A 2.4581211 2.4588095 0 0 0 4.7506144 4.0576335 L 4.7444132 4.0602173 L 1.2743408 7.1308309 C 5.0921844 7.1308278 8.815915 7.1308282 12.567708 7.1308309 L 12.567708 6.5091634 L 9.4619548 6.5091634 C 9.2898808 6.5091634 9.1513794 6.3707102 9.1513794 6.1985881 L 9.1513794 4.3346191 C 9.1513794 4.162497 9.2898808 4.0240438 9.4619548 4.0240438 L 9.9399618 4.0240438 L 10.340971 4.1697713 A 0.15543618 0.1554798 0 0 0 10.55026 4.0240438 L 12.567708 4.0240438 L 12.567708 3.4028931 L 9.1405273 3.4023763 L 7.3375366 2.7466024 L 8.8836955 1.8226278 L 9.4619548 1.8226278 A 0.15531752 0.15536111 0 0 0 9.5368856 1.5306559 L 12.567708 1.5306559 C 12.567708 1.4066177 12.566675 1.2978529 12.566675 1.2195638 L 4.6911865 1.2195638 L 0.13435872 1.2195638 z M 6.0187541 4.0240438 L 6.3293294 4.0240438 L 8.2191366 4.0240438 C 8.3911891 4.024047 8.5302287 4.1625185 8.5302287 4.3346191 L 8.5302287 6.1985881 C 8.5302287 6.3706918 8.3911891 6.5091666 8.2191366 6.5091634 L 7.909078 6.5091634 L 3.9966553 6.5091634 L 3.9956217 6.5091634 C 3.7539197 6.5092471 3.5577795 6.3137491 3.5568888 6.0719808 C 3.5567742 5.943857 3.6126589 5.8221195 3.7098511 5.7386678 L 3.7093343 5.738151 L 5.3495443 4.2865601 L 6.0187541 4.0240438 z M 0.53330078 7.8000407 A 1.0966936 1.0970008 0 0 0 0.26303304 8.522994 A 1.0966936 1.0970008 0 0 0 1.3596069 9.6159505 L 12.567708 9.6159505 L 12.567708 8.0630737 C 8.530663 8.0630678 4.4509912 8.0630675 0.36431885 8.0630737 A 1.0966936 1.0970008 0 0 1 0.53330078 7.8000407 z " />
  <path
     d="m 1.2741523,7.1307854 -0.63062195,0.558015 6.049e-4,6.218e-4 a 1.0966936,1.0970008 0 0 0 -0.279804,0.3734269 c 4.08667565,-6.2e-6 8.16632375,-5.9e-6 12.20337275,0 V 7.1308 c -3.7517967,-2.7e-6 -7.475705,-3.1e-6 -11.2935527,0 z"
     stroke-width="0.0821923"
     id="path3178-6-7-1"
     class="ColorScheme-Text"
     style="display:inline;opacity:0.5;fill:url(#oomox);fill-opacity:1.0" />
  <path
     id="path3180"
     d="m 6.0187277,4.0237833 -0.6694605,0.2629193 -1.6399637,1.451201 6.068e-4,6.09e-4 c -0.097191,0.083452 -0.1530639,0.2052258 -0.15295,0.3333499 8.907e-4,0.2417689 0.1971211,0.4372665 0.43882,0.4371828 h 6.078e-4 3.9123646 0.3107552 C 8.391559,6.5090485 8.5302631,6.3708717 8.5302631,6.1987674 V 4.3346702 c 0,-0.1721012 -0.1387041,-0.3108837 -0.3107552,-0.3108869 H 6.3294826 c -0.1384578,0 -0.2197519,0 -0.3107549,0 z"
     style="display:inline;opacity:0.5;fill:#000000;fill-opacity:0.5" />
  <path
     d="m 9.4619239,4.0237865 c -0.1720731,0 -0.3107562,0.1387608 -0.3107562,0.3108837 v 1.8641003 c 0,0.1721229 0.1386831,0.310278 0.3107562,0.310278 h 3.1057341 v -2.485262 z"
     stroke-width="0.0821916"
     id="path3194"
     style="display:inline;opacity:0.5;fill:#000000;fill-opacity:0.5" />
  <metadata
     id="metadata505">
    <rdf:RDF>
      <cc:Work
         rdf:about="">
        <dc:creator>
          <cc:Agent>
            <dc:title>dreifacherspass</dc:title>
          </cc:Agent>
        </dc:creator>
        <cc:license
           rdf:resource="http://creativecommons.org/licenses/by-sa/4.0/" />
      </cc:Work>
      <cc:License
         rdf:about="http://creativecommons.org/licenses/by-sa/4.0/">
        <cc:permits
           rdf:resource="http://creativecommons.org/ns#Reproduction" />
        <cc:permits
           rdf:resource="http://creativecommons.org/ns#Distribution" />
        <cc:requires
           rdf:resource="http://creativecommons.org/ns#Notice" />
        <cc:requires
           rdf:resource="http://creativecommons.org/ns#Attribution" />
        <cc:permits
           rdf:resource="http://creativecommons.org/ns#DerivativeWorks" />
        <cc:requires
           rdf:resource="http://creativecommons.org/ns#ShareAlike" />
      </cc:License>
    </rdf:RDF>
  </metadata>
  <rect
     style="display:inline;fill:url(#oomox);fill-opacity:1.0;stroke-width:0.408737;-inkscape-stroke:none;paint-order:markers fill stroke;stop-color:#000000;opacity:1"
     id="rect416"
     class="ColorScheme-Text"
     width="12.42198"
     height="0.62950993"
     x="0.13758333"
     y="10.859029"
     rx="0" />
</svg>
