<?xml version="1.0" encoding="UTF-8" standalone="no"?>
<svg
   width="16"
   height="16"
   version="1.1"
   id="svg26"
   xmlns:xlink="http://www.w3.org/1999/xlink"
   xmlns="http://www.w3.org/2000/svg"
   xmlns:svg="http://www.w3.org/2000/svg">
   <defs>
      <style id="current-color-scheme" type="text/css">
         .ColorScheme-Text { color: #0abdc6; } .ColorScheme-Highlight { color:#5294e2; }
      </style>
      <linearGradient id="arrongin" x1="0%" x2="0%" y1="0%" y2="100%">
         <stop offset="0%" style="stop-color:#dd9b44; stop-opacity:1"/>
         <stop offset="100%" style="stop-color:#ad6c16; stop-opacity:1"/>
      </linearGradient>
      <linearGradient id="aurora" x1="0%" x2="0%" y1="0%" y2="100%">
         <stop offset="0%" style="stop-color:#09D4DF; stop-opacity:1"/>
         <stop offset="100%" style="stop-color:#9269F4; stop-opacity:1"/>
      </linearGradient>
      <linearGradient id="cyberneon" x1="0%" x2="0%" y1="0%" y2="100%">
         <stop offset="0" style="stop-color:#0abdc6; stop-opacity:1"/>
         <stop offset="1" style="stop-color:#ea00d9; stop-opacity:1"/>
      </linearGradient>
      <linearGradient id="fitdance" x1="0%" x2="0%" y1="0%" y2="100%">
         <stop offset="0%" style="stop-color:#1AD6AB; stop-opacity:1"/>
         <stop offset="100%" style="stop-color:#329DB6; stop-opacity:1"/>
      </linearGradient>
      <linearGradient id="oomox" x1="0%" x2="0%" y1="0%" y2="100%">
         <stop offset="0%" style="stop-color:#0abdc6; stop-opacity:1"/>
         <stop offset="100%" style="stop-color:#b800ff; stop-opacity:1"/>
      </linearGradient>
      <linearGradient id="rainblue" x1="0%" x2="0%" y1="0%" y2="100%">
         <stop offset="0%" style="stop-color:#00F260; stop-opacity:1"/>
         <stop offset="100%" style="stop-color:#0575E6; stop-opacity:1"/>
      </linearGradient>
      <linearGradient id="sunrise" x1="0%" x2="0%" y1="0%" y2="100%">
         <stop offset="0%" style="stop-color: #FF8501; stop-opacity:1"/>
         <stop offset="100%" style="stop-color: #FFCB01; stop-opacity:1"/>
      </linearGradient>
      <linearGradient id="telinkrin" x1="0%" x2="0%" y1="0%" y2="100%">
         <stop offset="0%" style="stop-color: #b2ced6; stop-opacity:1"/>
         <stop offset="100%" style="stop-color: #6da5b7; stop-opacity:1"/>
      </linearGradient>
      <linearGradient id="60spsycho" x1="0%" x2="0%" y1="0%" y2="100%">
         <stop offset="0%" style="stop-color: #df5940; stop-opacity:1"/>
         <stop offset="25%" style="stop-color: #d8d15f; stop-opacity:1"/>
         <stop offset="50%" style="stop-color: #e9882a; stop-opacity:1"/>
         <stop offset="100%" style="stop-color: #279362; stop-opacity:1"/>
      </linearGradient>
      <linearGradient id="90ssummer" x1="0%" x2="0%" y1="0%" y2="100%">
         <stop offset="0%" style="stop-color: #f618c7; stop-opacity:1"/>
         <stop offset="20%" style="stop-color: #94ffab; stop-opacity:1"/>
         <stop offset="50%" style="stop-color: #fbfd54; stop-opacity:1"/>
         <stop offset="100%" style="stop-color: #0f83ae; stop-opacity:1"/>
      </linearGradient>
   </defs>
  <path
     id="path24"
     class="ColorScheme-Text"
     d="M 3.9941406 1 C 2.7359419 1.0145 1.8152492 0.96939604 1.0625 1.3847656 C 0.68613038 1.5924254 0.38926921 1.9441529 0.22460938 2.3828125 C 0.05993954 2.8214821 1.8503699e-17 3.3423907 0 4 L 0 12 C 0 12.657609 0.05989954 13.178528 0.22460938 13.617188 C 0.38927921 14.055847 0.68613038 14.407585 1.0625 14.615234 C 1.8152492 15.030554 2.7359519 14.98543 3.9941406 15 L 3.9980469 15 L 12.001953 15 L 12.005859 15 C 13.264048 14.9855 14.184751 15.030604 14.9375 14.615234 C 15.31387 14.407575 15.610721 14.055847 15.775391 13.617188 C 15.93988 13.178518 16 12.657609 16 12 L 16 4 C 16 3.3423907 15.9401 2.8214821 15.775391 2.3828125 C 15.610731 1.9441529 15.31387 1.5924254 14.9375 1.3847656 C 14.184751 0.96942604 13.264058 1.01452 12.005859 1 L 12.001953 1 L 3.9980469 1 L 3.9941406 1 z M 4 2 L 12 2 C 13.258519 2.0147 14.087175 2.059799 14.453125 2.2617188 C 14.636535 2.3629186 14.742284 2.4744553 14.839844 2.734375 C 14.937274 2.9942847 15 3.4076106 15 4 L 15 12 C 15 12.592389 14.937404 13.005725 14.839844 13.265625 C 14.742244 13.525535 14.636535 13.637091 14.453125 13.738281 C 14.087175 13.940191 13.258519 13.98529 12 14 L 4.0058594 14 L 4 14 C 2.7414713 13.9853 1.9108815 13.940201 1.5449219 13.738281 C 1.3615121 13.637091 1.2577162 13.525535 1.1601562 13.265625 C 1.0625863 13.005725 1 12.592389 1 12 L 1 4 C 1 3.4076106 1.0625963 2.9942747 1.1601562 2.734375 C 1.2577562 2.4744653 1.3615121 2.3629086 1.5449219 2.2617188 C 1.9108815 2.059809 2.7414713 2.01471 4 2 z M 7.9472656 3.8339844 C 5.3329934 3.8339844 3.2128906 4.3762274 3.2128906 5.0429688 C 3.2128906 5.2024526 3.3328292 5.3550318 3.5527344 5.4941406 C 2.817141 6.1910929 2.3789062 7.0632457 2.3789062 8.0117188 C 2.3789062 8.9728378 2.830124 9.8593795 3.5839844 10.560547 C 3.4687625 10.896377 3.0080914 11.976842 3.1640625 12.132812 C 3.3319773 12.300727 4.5729931 11.755186 4.8027344 11.693359 C 4.8729913 11.674389 5.0534481 11.648411 5.265625 11.613281 C 6.0749885 11.944193 7.0079677 12.132812 8 12.132812 C 9.0025712 12.132812 9.942828 11.938797 10.757812 11.601562 C 10.996687 11.641612 11.20592 11.672979 11.283203 11.693359 C 11.512242 11.755189 12.752007 12.300727 12.919922 12.132812 C 13.087837 11.9656 12.546356 10.732004 12.482422 10.498047 C 13.196938 9.8067155 13.621094 8.9447348 13.621094 8.0117188 C 13.621094 7.0442767 13.164635 6.1544472 12.402344 5.4511719 C 12.582905 5.323304 12.683594 5.1869956 12.683594 5.0429688 C 12.683594 4.3762274 10.560836 3.8339844 7.9472656 3.8339844 z M 7.9472656 4.2460938 C 10.170205 4.2460938 11.974609 4.5581949 11.974609 4.9453125 C 11.974609 5.3317271 10.170205 5.6464844 7.9472656 5.6464844 C 5.7243263 5.6464844 3.9199219 5.3317271 3.9199219 4.9453125 C 3.9199219 4.5581949 5.7243263 4.2460938 7.9472656 4.2460938 z "
     style="fill:url(#oomox)" />
</svg>
