<?xml version="1.0" encoding="UTF-8" standalone="no"?>
<svg
   width="48"
   height="48"
   version="1.1"
   id="svg81"
   xmlns="http://www.w3.org/2000/svg"
   xmlns:svg="http://www.w3.org/2000/svg"
   xmlns:rdf="http://www.w3.org/1999/02/22-rdf-syntax-ns#"
   xmlns:cc="http://creativecommons.org/ns#"
   xmlns:dc="http://purl.org/dc/elements/1.1/">
  <defs
     id="defs572">
    <style
       id="current-color-scheme"
       type="text/css">
      .ColorScheme-Text { color: #0abdc6; } .ColorScheme-Highlight { color:#5294e2; }
     </style>
    <linearGradient
       id="arrongin"
       x1="0%"
       x2="0%"
       y1="0%"
       y2="100%">
      <stop
         offset="0%"
         style="stop-color:#dd9b44; stop-opacity:1"
         id="stop9192" />
      <stop
         offset="100%"
         style="stop-color:#ad6c16; stop-opacity:1"
         id="stop9194" />
    </linearGradient>
    <linearGradient
       id="aurora"
       x1="0%"
       x2="0%"
       y1="0%"
       y2="100%">
      <stop
         offset="0%"
         style="stop-color:#09D4DF; stop-opacity:1"
         id="stop9197" />
      <stop
         offset="100%"
         style="stop-color:#9269F4; stop-opacity:1"
         id="stop9199" />
    </linearGradient>
    <linearGradient
       id="cyberneon"
       x1="0%"
       x2="0%"
       y1="0%"
       y2="100%">
      <stop
         offset="0"
         style="stop-color:#0abdc6; stop-opacity:1"
         id="stop9202" />
      <stop
         offset="1"
         style="stop-color:#ea00d9; stop-opacity:1"
         id="stop9204" />
    </linearGradient>
    <linearGradient
       id="fitdance"
       x1="0%"
       x2="0%"
       y1="0%"
       y2="100%">
      <stop
         offset="0%"
         style="stop-color:#1AD6AB; stop-opacity:1"
         id="stop9207" />
      <stop
         offset="100%"
         style="stop-color:#329DB6; stop-opacity:1"
         id="stop9209" />
    </linearGradient>
    <linearGradient
       id="oomox"
       x1="0%"
       x2="0%"
       y1="0%"
       y2="100%">
      <stop
         offset="0%"
         style="stop-color:#0abdc6; stop-opacity:1"
         id="stop9212" />
      <stop
         offset="100%"
         style="stop-color:#b800ff; stop-opacity:1"
         id="stop9214" />
    </linearGradient>
    <linearGradient
       id="rainblue"
       x1="0%"
       x2="0%"
       y1="0%"
       y2="100%">
      <stop
         offset="0%"
         style="stop-color:#00F260; stop-opacity:1"
         id="stop9217" />
      <stop
         offset="100%"
         style="stop-color:#0575E6; stop-opacity:1"
         id="stop9219" />
    </linearGradient>
    <linearGradient
       id="sunrise"
       x1="0%"
       x2="0%"
       y1="0%"
       y2="100%">
      <stop
         offset="0%"
         style="stop-color: #FF8501; stop-opacity:1"
         id="stop9222" />
      <stop
         offset="100%"
         style="stop-color: #FFCB01; stop-opacity:1"
         id="stop9224" />
    </linearGradient>
    <linearGradient
       id="telinkrin"
       x1="0%"
       x2="0%"
       y1="0%"
       y2="100%">
      <stop
         offset="0%"
         style="stop-color: #b2ced6; stop-opacity:1"
         id="stop9227" />
      <stop
         offset="100%"
         style="stop-color: #6da5b7; stop-opacity:1"
         id="stop9229" />
    </linearGradient>
    <linearGradient
       id="60spsycho"
       x1="0%"
       x2="0%"
       y1="0%"
       y2="100%">
      <stop
         offset="0%"
         style="stop-color: #df5940; stop-opacity:1"
         id="stop9232" />
      <stop
         offset="25%"
         style="stop-color: #d8d15f; stop-opacity:1"
         id="stop9234" />
      <stop
         offset="50%"
         style="stop-color: #e9882a; stop-opacity:1"
         id="stop9236" />
      <stop
         offset="100%"
         style="stop-color: #279362; stop-opacity:1"
         id="stop9238" />
    </linearGradient>
    <linearGradient
       id="90ssummer"
       x1="0%"
       x2="0%"
       y1="0%"
       y2="100%">
      <stop
         offset="0%"
         style="stop-color: #f618c7; stop-opacity:1"
         id="stop9241" />
      <stop
         offset="20%"
         style="stop-color: #94ffab; stop-opacity:1"
         id="stop9243" />
      <stop
         offset="50%"
         style="stop-color: #fbfd54; stop-opacity:1"
         id="stop9245" />
      <stop
         offset="100%"
         style="stop-color: #0f83ae; stop-opacity:1"
         id="stop9247" />
    </linearGradient>
  </defs>
  <g
     id="g196">
    <path
       d="M 23.981775,0.50057909 C 19.221809,0.53525307 14.396733,2.0701544 10.814912,5.2066081 9.0226522,6.7731012 7.5597958,8.725246 6.6162784,10.910477 c -0.9423617,2.186387 -1.3576789,4.60663 -1.1272896,6.975248 0.2677602,2.758507 1.3846475,5.370999 2.776615,7.766971 a 34.944818,34.944818 0 0 0 5.5470652,7.204481 l 2.615959,4.628976 H 31.05334 l 3.330628,-5.008463 a 43.984708,43.984708 0 0 0 5.056621,-6.799182 c 1.450914,-2.405218 2.688004,-5.005766 3.033973,-7.792783 0.295114,-2.376323 -0.07975,-4.823535 -1.006701,-7.032653 C 40.542066,8.6439548 39.071889,6.6737025 37.265761,5.1010451 33.653888,1.9541892 28.772178,0.46629038 23.981775,0.50057909 Z m 0,0"
       id="path611"
       class="ColorScheme-Text"
       style="font-variation-settings:normal;display:inline;opacity:1;vector-effect:none;fill:url(#oomox);fill-opacity:1;stroke-width:1.67857;stroke-linecap:butt;stroke-linejoin:miter;stroke-miterlimit:4;stroke-dasharray:none;stroke-dashoffset:0;stroke-opacity:1;-inkscape-stroke:none;stop-color:#000000;stop-opacity:1" />
    <path
       d="M 24.467982,0.50674336 C 17.834079,1.5072802 11.549229,3.7044544 8.7306203,11.382814 6.1863211,20.900435 10.140695,25.490113 15.155322,32.862956 l 2.254194,4.626279 h 3.05208 c -1.897437,-5.590986 -6.582661,-15.282747 -6.582661,-20.151359 0,-14.2772017 10.510837,-16.78143328 10.589047,-16.83113264 z m 0.0015,0 c 0.02697,0.0720448 3.279002,6.64122204 3.277461,16.83113264 0,5.377163 -0.750884,14.658231 -1.48212,20.151359 h 3.881174 C 39.490289,20.725524 42.834401,5.5167475 24.469523,0.50674336 Z m 0,0"
       id="path631"
       style="display:inline;opacity:0.5;fill:#000000;fill-opacity:1;stroke-width:0.385266" />
  </g>
  <g
     id="g113">
    <path
       d="m 28.990238,32.862956 -1.926332,8.47586"
       stroke-width="0.770533"
       id="path491"
       class="ColorScheme-Text"
       style="fill-opacity:1;fill:none;stroke:url(#oomox)" />
    <path
       d="m 13.75565,32.244604 4.663649,8.708945"
       fill="none"
       stroke-width="0.770533"
       id="path44"
       class="ColorScheme-Text"
       style="display:inline;fill-opacity:1;fill:none;stroke:url(#oomox)" />
    <path
       d="m 19.358579,32.092423 1.926332,8.861126"
       fill="none"
       stroke-width="0.770533"
       id="path571"
       class="ColorScheme-Text"
       style="fill-opacity:1;fill:none;stroke:url(#oomox)" />
    <path
       d="m 34.191335,32.47769 -4.647469,8.475859"
       stroke-width="0.770533"
       id="path671"
       class="ColorScheme-Text"
       style="display:inline;fill-opacity:1;fill:none;stroke:url(#oomox);stroke-opacity:1" />
    <path
       d="m 13.194317,31.321891 v 0.770532 c 0,0 0,0.770533 0.720833,0.770533 h 20.133636 c 0.720448,0 0.720448,-0.770533 0.720448,-0.770533 v -0.770532 z m 0,0"
       id="path46"
       class="ColorScheme-Text"
       style="display:inline;fill:url(#oomox);stroke-width:0.385266;fill-opacity:1" />
    <path
       d="m 30.146038,40.568283 v 4.359674 a 1.797653,1.797653 0 0 1 -1.801506,1.801506 h -8.725513 a 1.797653,1.797653 0 0 1 -1.801506,-1.801506 v -4.359674 z m 0,0"
       id="path391"
       class="ColorScheme-Text"
       style="display:inline;fill:url(#oomox);stroke-width:0.385266;fill-opacity:1" />
  </g>
  <metadata
     id="metadata189">
    <rdf:RDF>
      <cc:Work
         rdf:about="">
        <dc:creator>
          <cc:Agent>
            <dc:title>dreifacherspass</dc:title>
          </cc:Agent>
        </dc:creator>
        <cc:license
           rdf:resource="http://creativecommons.org/licenses/by-sa/4.0/" />
      </cc:Work>
      <cc:License
         rdf:about="http://creativecommons.org/licenses/by-sa/4.0/">
        <cc:permits
           rdf:resource="http://creativecommons.org/ns#Reproduction" />
        <cc:permits
           rdf:resource="http://creativecommons.org/ns#Distribution" />
        <cc:requires
           rdf:resource="http://creativecommons.org/ns#Notice" />
        <cc:requires
           rdf:resource="http://creativecommons.org/ns#Attribution" />
        <cc:permits
           rdf:resource="http://creativecommons.org/ns#DerivativeWorks" />
        <cc:requires
           rdf:resource="http://creativecommons.org/ns#ShareAlike" />
      </cc:License>
    </rdf:RDF>
  </metadata>
</svg>
