<?xml version="1.0" encoding="UTF-8" standalone="no"?>
<!-- Created with Inkscape (http://www.inkscape.org/) -->

<svg
   width="48"
   height="48"
   viewBox="0 0 12.7 12.7"
   version="1.1"
   id="svg2558"
   xmlns:xlink="http://www.w3.org/1999/xlink"
   xmlns="http://www.w3.org/2000/svg"
   xmlns:svg="http://www.w3.org/2000/svg"
   xmlns:rdf="http://www.w3.org/1999/02/22-rdf-syntax-ns#"
   xmlns:cc="http://creativecommons.org/ns#"
   xmlns:dc="http://purl.org/dc/elements/1.1/">
  <defs
     id="defs2555">
    <style
       id="current-color-scheme"
       type="text/css">
      .ColorScheme-Text { color: #0abdc6; } .ColorScheme-Highlight { color:#5294e2; }
     </style>
    <linearGradient
       id="arrongin"
       x1="0%"
       x2="0%"
       y1="0%"
       y2="100%">
      <stop
         offset="0%"
         style="stop-color:#dd9b44; stop-opacity:1"
         id="stop9192" />
      <stop
         offset="100%"
         style="stop-color:#ad6c16; stop-opacity:1"
         id="stop9194" />
    </linearGradient>
    <linearGradient
       id="aurora"
       x1="0%"
       x2="0%"
       y1="0%"
       y2="100%">
      <stop
         offset="0%"
         style="stop-color:#09D4DF; stop-opacity:1"
         id="stop9197" />
      <stop
         offset="100%"
         style="stop-color:#9269F4; stop-opacity:1"
         id="stop9199" />
    </linearGradient>
    <linearGradient
       id="cyberneon"
       x1="0%"
       x2="0%"
       y1="0%"
       y2="100%">
      <stop
         offset="0"
         style="stop-color:#0abdc6; stop-opacity:1"
         id="stop9202" />
      <stop
         offset="1"
         style="stop-color:#ea00d9; stop-opacity:1"
         id="stop9204" />
    </linearGradient>
    <linearGradient
       id="fitdance"
       x1="0%"
       x2="0%"
       y1="0%"
       y2="100%">
      <stop
         offset="0%"
         style="stop-color:#1AD6AB; stop-opacity:1"
         id="stop9207" />
      <stop
         offset="100%"
         style="stop-color:#329DB6; stop-opacity:1"
         id="stop9209" />
    </linearGradient>
    <linearGradient
       id="oomox"
       x1="0%"
       x2="0%"
       y1="0%"
       y2="100%">
      <stop
         offset="0%"
         style="stop-color:#0abdc6; stop-opacity:1"
         id="stop9212" />
      <stop
         offset="100%"
         style="stop-color:#b800ff; stop-opacity:1"
         id="stop9214" />
    </linearGradient>
    <linearGradient
       id="rainblue"
       x1="0%"
       x2="0%"
       y1="0%"
       y2="100%">
      <stop
         offset="0%"
         style="stop-color:#00F260; stop-opacity:1"
         id="stop9217" />
      <stop
         offset="100%"
         style="stop-color:#0575E6; stop-opacity:1"
         id="stop9219" />
    </linearGradient>
    <linearGradient
       id="sunrise"
       x1="0%"
       x2="0%"
       y1="0%"
       y2="100%">
      <stop
         offset="0%"
         style="stop-color: #FF8501; stop-opacity:1"
         id="stop9222" />
      <stop
         offset="100%"
         style="stop-color: #FFCB01; stop-opacity:1"
         id="stop9224" />
    </linearGradient>
    <linearGradient
       id="telinkrin"
       x1="0%"
       x2="0%"
       y1="0%"
       y2="100%">
      <stop
         offset="0%"
         style="stop-color: #b2ced6; stop-opacity:1"
         id="stop9227" />
      <stop
         offset="100%"
         style="stop-color: #6da5b7; stop-opacity:1"
         id="stop9229" />
    </linearGradient>
    <linearGradient
       id="60spsycho"
       x1="0%"
       x2="0%"
       y1="0%"
       y2="100%">
      <stop
         offset="0%"
         style="stop-color: #df5940; stop-opacity:1"
         id="stop9232" />
      <stop
         offset="25%"
         style="stop-color: #d8d15f; stop-opacity:1"
         id="stop9234" />
      <stop
         offset="50%"
         style="stop-color: #e9882a; stop-opacity:1"
         id="stop9236" />
      <stop
         offset="100%"
         style="stop-color: #279362; stop-opacity:1"
         id="stop9238" />
    </linearGradient>
    <linearGradient
       id="90ssummer"
       x1="0%"
       x2="0%"
       y1="0%"
       y2="100%">
      <stop
         offset="0%"
         style="stop-color: #f618c7; stop-opacity:1"
         id="stop9241" />
      <stop
         offset="20%"
         style="stop-color: #94ffab; stop-opacity:1"
         id="stop9243" />
      <stop
         offset="50%"
         style="stop-color: #fbfd54; stop-opacity:1"
         id="stop9245" />
      <stop
         offset="100%"
         style="stop-color: #0f83ae; stop-opacity:1"
         id="stop9247" />
    </linearGradient>
  </defs>
  <path
     id="circle7876"
     class="ColorScheme-Text"
     style="display:inline;fill:none;stroke:url(#oomox);stroke-width:0.608075;stroke-linecap:square"
     d="M 11.020267,6.1866198 A 4.6701899,4.6701288 0 0 1 6.3500767,10.856749 4.6701899,4.6701288 0 0 1 1.6798868,6.1866198 4.6701899,4.6701288 0 0 1 6.3500767,1.5164909 4.6701899,4.6701288 0 0 1 11.020267,6.1866198 Z" />
  <path
     d="m 0.13229167,5.8983249 v 0.621789 H 2.9304763 A 0.31022264,0.15510354 0 0 0 3.2413805,6.3646578 V 6.053781 A 0.31022264,0.15510354 0 0 0 2.9304528,5.8983249 Z"
     id="path65"
     class="ColorScheme-Text"
     style="display:inline;fill:url(#oomox);fill-opacity:1;stroke-width:1.66178" />
  <path
     id="rect53"
     style="display:inline;fill:url(#oomox);stroke-width:1.17501"
     class="ColorScheme-Text"
     d="m 3.7076977,5.898325 h 0.3108895 c 0.086113,0 0.1554389,0.069328 0.1554389,0.1554443 v 0.3109003 c 0,0.086116 -0.069326,0.1554443 -0.1554389,0.1554443 H 3.7076977 c -0.086113,0 -0.155439,-0.069328 -0.155439,-0.1554443 V 6.0537693 c 0,-0.086116 0.069326,-0.1554443 0.155439,-0.1554443 z" />
  <path
     id="rect55"
     class="ColorScheme-Text"
     style="display:inline;fill:url(#oomox);stroke-width:1.17501"
     d="m 4.6403427,3.1002924 h 0.3108896 c 0.086113,0 0.1554389,0.069328 0.1554389,0.1554444 v 5.9069654 c 0,0.086116 -0.069326,0.1554443 -0.1554389,0.1554443 H 4.6403427 c -0.086113,0 -0.1554389,-0.069328 -0.1554389,-0.1554443 V 3.2557368 c 0,-0.086116 0.069326,-0.1554444 0.1554389,-0.1554444 z" />
  <path
     id="rect57"
     style="display:inline;fill:url(#oomox);stroke-width:1.17501"
     class="ColorScheme-Text"
     d="m 5.5729885,3.7220814 h 0.3108896 c 0.086113,0 0.1554389,0.069328 0.1554389,0.1554443 v 4.6633875 c 0,0.086116 -0.069326,0.1554443 -0.1554389,0.1554443 H 5.5729885 c -0.086113,0 -0.1554389,-0.069328 -0.1554389,-0.1554443 V 3.8775257 c 0,-0.086116 0.069326,-0.1554443 0.1554389,-0.1554443 z" />
  <path
     id="rect59"
     class="ColorScheme-Text"
     style="display:inline;fill:url(#oomox);stroke-width:1.17501"
     d="m 6.5056334,4.3438702 h 0.3108895 c 0.086113,0 0.155439,0.069328 0.155439,0.1554443 v 3.4198214 c 0,0.086116 -0.069326,0.1554443 -0.155439,0.1554443 H 6.5056334 c -0.086113,0 -0.1554389,-0.069328 -0.1554389,-0.1554443 V 4.4993145 c 0,-0.086116 0.069326,-0.1554443 0.1554389,-0.1554443 z" />
  <path
     id="rect61"
     style="display:inline;fill:url(#oomox);stroke-width:1.17501"
     class="ColorScheme-Text"
     d="m 7.4382792,4.9656477 h 0.3108895 c 0.086113,0 0.155439,0.069328 0.155439,0.1554443 v 2.1762551 c 0,0.086116 -0.069326,0.1554444 -0.155439,0.1554444 H 7.4382792 c -0.086113,0 -0.1554389,-0.069328 -0.1554389,-0.1554444 V 5.121092 c 0,-0.086116 0.069326,-0.1554443 0.1554389,-0.1554443 z" />
  <path
     id="rect63"
     style="display:inline;fill:url(#oomox);stroke-width:1.17501"
     class="ColorScheme-Text"
     d="M 8.3709245,5.5874367 H 8.681814 c 0.086113,0 0.155439,0.069328 0.155439,0.1554443 v 0.9326775 c 0,0.086116 -0.069326,0.1554443 -0.155439,0.1554443 H 8.3709245 c -0.086113,0 -0.1554389,-0.069328 -0.1554389,-0.1554443 V 5.742881 c 0,-0.086116 0.069326,-0.1554443 0.1554389,-0.1554443 z" />
  <path
     id="rect67"
     style="color:#0abdc6;display:inline;fill:url(#oomox);stroke-width:1.17501"
     class="ColorScheme-Text"
     d="m 9.3035693,5.8983369 h 0.3108896 c 0.086113,0 0.1554389,0.069328 0.1554389,0.1554443 v 0.3109003 c 0,0.086116 -0.069326,0.1554443 -0.1554389,0.1554443 H 9.3035693 c -0.086113,0 -0.1554389,-0.069328 -0.1554389,-0.1554443 V 6.0537812 c 0,-0.086116 0.069326,-0.1554443 0.1554389,-0.1554443 z" />
  <path
     d="M 10.495329,5.8983249 A 0.41361074,0.15510354 0 0 0 10.080777,6.053781 v 0.3108886 a 0.41361074,0.15510354 0 0 0 0.414552,0.1554443 h 2.072595 v -0.621789 z"
     id="path69"
     class="ColorScheme-Text"
     style="color:#0abdc6;display:inline;fill:url(#oomox);fill-opacity:1;stroke-width:1.91882" />
  <metadata
     id="metadata2679">
    <rdf:RDF>
      <cc:Work
         rdf:about="">
        <dc:creator>
          <cc:Agent>
            <dc:title>dreifacherspass</dc:title>
          </cc:Agent>
        </dc:creator>
        <cc:license
           rdf:resource="http://creativecommons.org/licenses/by-sa/4.0/" />
      </cc:Work>
      <cc:License
         rdf:about="http://creativecommons.org/licenses/by-sa/4.0/">
        <cc:permits
           rdf:resource="http://creativecommons.org/ns#Reproduction" />
        <cc:permits
           rdf:resource="http://creativecommons.org/ns#Distribution" />
        <cc:requires
           rdf:resource="http://creativecommons.org/ns#Notice" />
        <cc:requires
           rdf:resource="http://creativecommons.org/ns#Attribution" />
        <cc:permits
           rdf:resource="http://creativecommons.org/ns#DerivativeWorks" />
        <cc:requires
           rdf:resource="http://creativecommons.org/ns#ShareAlike" />
      </cc:License>
    </rdf:RDF>
  </metadata>
</svg>
