<?xml version="1.0" encoding="UTF-8" standalone="no"?>
<!-- Created with Inkscape (http://www.inkscape.org/) -->

<svg
   width="16"
   height="16"
   id="svg11300"
   version="1.0"
   style="display:inline;enable-background:new"
   viewBox="0 0 16 16"
   xmlns:xlink="http://www.w3.org/1999/xlink"
   xmlns="http://www.w3.org/2000/svg"
   xmlns:svg="http://www.w3.org/2000/svg"
   xmlns:rdf="http://www.w3.org/1999/02/22-rdf-syntax-ns#"
   xmlns:cc="http://creativecommons.org/ns#"
   xmlns:dc="http://purl.org/dc/elements/1.1/">
   <defs>
      <style id="current-color-scheme" type="text/css">
         .ColorScheme-Text { color: #0abdc6; } .ColorScheme-Highlight { color:#5294e2; }
      </style>
      <linearGradient id="arrongin" x1="0%" x2="0%" y1="0%" y2="100%">
         <stop offset="0%" style="stop-color:#dd9b44; stop-opacity:1"/>
         <stop offset="100%" style="stop-color:#ad6c16; stop-opacity:1"/>
      </linearGradient>
      <linearGradient id="aurora" x1="0%" x2="0%" y1="0%" y2="100%">
         <stop offset="0%" style="stop-color:#09D4DF; stop-opacity:1"/>
         <stop offset="100%" style="stop-color:#9269F4; stop-opacity:1"/>
      </linearGradient>
      <linearGradient id="cyberneon" x1="0%" x2="0%" y1="0%" y2="100%">
         <stop offset="0" style="stop-color:#0abdc6; stop-opacity:1"/>
         <stop offset="1" style="stop-color:#ea00d9; stop-opacity:1"/>
      </linearGradient>
      <linearGradient id="fitdance" x1="0%" x2="0%" y1="0%" y2="100%">
         <stop offset="0%" style="stop-color:#1AD6AB; stop-opacity:1"/>
         <stop offset="100%" style="stop-color:#329DB6; stop-opacity:1"/>
      </linearGradient>
      <linearGradient id="oomox" x1="0%" x2="0%" y1="0%" y2="100%">
         <stop offset="0%" style="stop-color:#0abdc6; stop-opacity:1"/>
         <stop offset="100%" style="stop-color:#b800ff; stop-opacity:1"/>
      </linearGradient>
      <linearGradient id="rainblue" x1="0%" x2="0%" y1="0%" y2="100%">
         <stop offset="0%" style="stop-color:#00F260; stop-opacity:1"/>
         <stop offset="100%" style="stop-color:#0575E6; stop-opacity:1"/>
      </linearGradient>
      <linearGradient id="sunrise" x1="0%" x2="0%" y1="0%" y2="100%">
         <stop offset="0%" style="stop-color: #FF8501; stop-opacity:1"/>
         <stop offset="100%" style="stop-color: #FFCB01; stop-opacity:1"/>
      </linearGradient>
      <linearGradient id="telinkrin" x1="0%" x2="0%" y1="0%" y2="100%">
         <stop offset="0%" style="stop-color: #b2ced6; stop-opacity:1"/>
         <stop offset="100%" style="stop-color: #6da5b7; stop-opacity:1"/>
      </linearGradient>
      <linearGradient id="60spsycho" x1="0%" x2="0%" y1="0%" y2="100%">
         <stop offset="0%" style="stop-color: #df5940; stop-opacity:1"/>
         <stop offset="25%" style="stop-color: #d8d15f; stop-opacity:1"/>
         <stop offset="50%" style="stop-color: #e9882a; stop-opacity:1"/>
         <stop offset="100%" style="stop-color: #279362; stop-opacity:1"/>
      </linearGradient>
      <linearGradient id="90ssummer" x1="0%" x2="0%" y1="0%" y2="100%">
         <stop offset="0%" style="stop-color: #f618c7; stop-opacity:1"/>
         <stop offset="20%" style="stop-color: #94ffab; stop-opacity:1"/>
         <stop offset="50%" style="stop-color: #fbfd54; stop-opacity:1"/>
         <stop offset="100%" style="stop-color: #0f83ae; stop-opacity:1"/>
      </linearGradient>
   </defs>
  <path
     id="path_rectangle"
     class="ColorScheme-Text"
     style="display:inline;fill:url(#oomox);stroke-width:0.133064;enable-background:new"
     d="m 1.1815241,0.26758 c -0.65024999,0 -1.17382799,0.52358 -1.17382799,1.17383 V 14.5586 c 0,0.65025 0.523578,1.17382 1.17382799,1.17382 H 13.195196 c 0.65025,0 1.173828,-0.52357 1.173828,-1.17382 V 1.44141 c 0,-0.65025 -0.523578,-1.17383 -1.173828,-1.17383 z m 0.06836,0.55273 H 13.126838 c 0.381964,0 0.689453,0.30749 0.689453,0.68946 v 12.98242 c 0,0.38196 -0.307489,0.68945 -0.689453,0.68945 H 1.2498841 c -0.38196499,0 -0.68945399,-0.30749 -0.68945399,-0.68945 V 1.50977 c 0,-0.38197 0.307489,-0.68946 0.68945399,-0.68946 z" />
  <path
     id="path_eagle"
     class="ColorScheme-Text"
     clip-path="none"
     style="display:inline;fill:url(#oomox);fill-opacity:1;stroke-width:0.0223848;enable-background:new"
     d="M 5.2498837,0.50390767 1.6444148,0.54883007 C 0.40933993,0.61832088 0.34558677,1.9032616 0.34558677,3.1816431 c 0,0.093184 0.11457478,0.082141 0.0585937,0.1699214 -0.0726538,0.113923 -0.020098,0.4065842 0.09375,0.5234374 0.0298015,0.030589 0.0615619,0.08357 0.0703124,0.1171874 0.008751,0.033619 0.0514006,0.090683 0.09375,0.1269528 0.066422,0.056885 0.0756728,0.079579 0.0742188,0.1621098 -9.2519e-4,0.052621 0.0154652,0.1401733 0.0371093,0.1953128 0.0216444,0.055138 0.0497693,0.1458984 0.0605469,0.2011718 0.023443,0.1202197 0.0885079,0.2874429 0.13085935,0.3359376 0.0167969,0.019231 0.0310153,0.050759 0.03125,0.070312 7.7328e-4,0.062432 0.0874644,0.2268297 0.16015628,0.3027346 0.043473,0.045395 0.098669,0.076818 0.1464844,0.083984 0.042566,0.00637 0.077987,0.02005 0.078125,0.031249 1.381e-4,0.011199 0.023396,0.049838 0.050781,0.085938 0.034037,0.044873 0.067576,0.066958 0.109375,0.066406 0.057594,-6.905e-4 0.064975,0.00773 0.1015624,0.1601558 0.021364,0.089003 0.057294,0.1826889 0.080078,0.2070322 0.022784,0.024332 0.049016,0.07852 0.058594,0.1210925 0.00958,0.042571 0.024923,0.09258 0.035156,0.1113284 0.010234,0.018744 0.025613,0.061794 0.033203,0.095704 0.015736,0.070314 0.18083,0.1837093 0.2988282,0.2050782 0.06639,0.012027 0.071737,0.018953 0.068359,0.09375 -0.00335,0.074292 0.00217,0.08424 0.074219,0.1074218 0.083328,0.026812 0.086851,0.033569 0.058594,0.1914063 -0.01243,0.069431 -0.00864,0.084399 0.021484,0.083984 0.021163,-2.762e-4 0.036805,0.01788 0.037109,0.042969 2.9e-4,0.023805 0.031318,0.09326 0.070313,0.1542968 0.067098,0.1050302 0.070529,0.1131221 0.037109,0.1621098 -0.058274,0.085419 -0.044406,0.1810277 0.039063,0.2578122 0.040474,0.037232 0.094352,0.07854 0.1191406,0.091796 0.024788,0.013242 0.059365,0.025438 0.076172,0.025391 5.8e-4,5.5e-6 0.036778,-0.014908 0.039063,-0.015624 l 0.2558594,-0.025391 0.074219,0.044922 -0.00586,0.066406 L 2.8397273,7.9316419 2.0233211,7.9140648 0.37878988,7.82422 0.39832116,9.3085953 c -0.10238793,0.08444 -0.30101767,0.2481255 -0.3085938,0.2539072 -0.01995079,0.015217 -0.02540453,0.02391 -0.01562494,0.023437 0.0084218,-4.143e-4 0.09924369,-0.025607 0.20312488,-0.056642 0.0332128,-0.00992 0.0789981,-0.021967 0.12304696,-0.033203 l 0.001953,0.09375 c -0.0394723,0.016873 -0.0659251,0.031759 -0.0722657,0.04297 -0.0127743,0.022584 -0.0129344,0.023692 0.0175782,0.029296 0.057158,0.010424 0.045671,0.026537 -0.0371093,0.048827 -0.0914316,0.024668 -0.13885361,0.059692 -0.10546877,0.078125 0.0235942,0.013022 0.0188299,0.019347 -0.0175782,0.02539 -0.0146118,0.00238 -0.0370339,0.014901 -0.0488281,0.027344 -0.0203286,0.021373 -0.0188432,0.025813 0.0156249,0.058594 l 0.0371093,0.033203 -0.0585937,0.013672 c -0.0590103,0.012386 -0.07545161,0.023653 -0.09765624,0.064452 -0.0090958,0.01674 -0.0070575,0.02696 0.0097656,0.04297 0.02011607,0.01914 0.0191079,0.02609 -0.0019531,0.05664 -0.05391407,0.07806 -0.05753167,0.09267 -0.03710946,0.117188 0.02805275,0.03368 0.08790939,0.04356 0.21679686,0.0332 0.0620134,-0.005 0.11199628,-0.0055 0.10937512,0 -0.002626,0.0056 -0.0313689,0.02627 -0.0625,0.04687 -0.0523197,0.03439 -0.0583748,0.04149 -0.0703126,0.08203 -0.00711,0.02423 -0.007433,0.04751 -0.001953,0.05273 0.005482,0.0052 0.0492531,-8.6e-4 0.0976562,-0.01367 0.0483957,-0.01275 0.0902499,-0.01899 0.09375,-0.01562 0.003531,0.0035 0.00219,0.01442 -0.003906,0.02539 -0.0129358,0.02341 -0.002096,0.03508 0.0273438,0.03711 l 0.009766,0.625 c -0.0196463,0.03596 -0.0259277,0.06432 0,0.07422 0.34623545,-0.0029 0.2759759,-0.138085 0.41406245,0 -0.10917296,0.443893 0.56117978,0.466477 0.90429688,0.355469 0.042128,0.0555 0.085317,0.09945 0.4765624,0.197265 l 0.6269529,-0.41406 c 0.2731596,-0.280625 0.3431506,-0.344885 0.6132811,-0.601563 0.3975836,-0.377784 0.4174184,-0.503074 0.888672,-0.7792974 0.1295643,-0.050567 0.5198656,-0.075942 0.6015625,-0.083984 l 0.7226562,0.3593748 0.2753906,0.416016 0.5527343,0.275391 0.4140626,0.27539 0.3945312,0.0918 v 0.0098 l 0.1972657,0.05078 0.025391,0.15039 0.2363281,0.02734 0.013672,0.148436 0.2109376,0.01367 -0.00781,0.119142 0.2441406,0.05469 0.060547,0.150391 0.1523439,-0.02149 0.1191406,0.1875 0.1933594,-0.0098 0.091797,0.160156 0.2871094,0.01953 0.037109,0.146484 0.2929688,-0.06836 0.2363281,0.179689 0.1621094,-0.08594 0.00977,0.134766 0.2265632,0.06836 0.166015,-0.06641 0.164063,0.121094 0.207031,-0.0918 0.267578,0.06641 0.13086,-0.05859 0.126953,0.128905 0.27539,-0.01367 0.175782,-0.117187 0.136718,0.01172 0.273438,-0.04492 0.119141,-0.117188 0.27539,0.04102 0.291015,-0.195313 0.16211,0.06055 0.63086,-0.140625 -0.164063,-0.187499 0.937501,-0.361329 -0.121094,-0.111327 -0.138673,0.03125 0.976563,-0.818359 0.52539,-0.802735 0.369142,-0.6562493 0.10742,-0.2968756 0.01563,-0.1503904 -0.111328,0.09375 -0.363282,0.6523443 0.0293,-0.1660163 -0.132813,0.091797 -0.458984,0.5976563 -0.609376,0.423827 -0.6875,0.02148 -0.77345,-0.203122 L 12.09754,10.080079 11.632696,9.8281263 11.413946,9.7832053 11.089727,9.5664076 10.042852,8.7207045 9.349493,8.3281264 9.2850399,8.277345 9.2987117,8.1191431 9.146368,7.9960953 C 9.173712,7.9737443 9.246315,7.9139803 9.3631648,7.8164085 L 9.6112117,7.6093763 9.7303523,7.5390638 c 0.065529,-0.0383 0.1719891,-0.1001709 0.2382813,-0.1386709 l 0.1210934,-0.070312 0.203125,-0.072266 c 0.198045,-0.0706 0.203362,-0.071849 0.300782,-0.09375 l 0.09961,-0.023437 0.08203,0.017578 c 0.0934,0.0205 0.214804,0.03425 0.277344,0.03125 0.02258,-0.00145 0.04167,-0.002 0.04297,0 0.0013,0.00151 0.0099,0.020115 0.01953,0.041015 l 0.01758,0.039063 0.01758,-0.03711 c 0.01575,-0.03358 0.01706,-0.043488 0.03125,-0.1171874 l 0.01563,-0.080078 -0.01367,-0.1210939 -0.01367,-0.1230477 -0.03516,-0.1093745 -0.03711,-0.1093758 -0.06641,-0.08789 c -0.06465,-0.083341 -0.06992,-0.087663 -0.09375,-0.1015628 -0.01367,-0.0079 -0.0587,-0.035447 -0.101563,-0.060547 l -0.07813,-0.044922 -0.126953,-0.011718 -0.126953,-0.011719 -0.06836,-0.037109 c -0.05838,-0.031699 -0.09456,-0.04715 -0.216797,-0.09375 l -0.146485,-0.056641 -0.175781,-0.017578 -0.1738281,-0.017577 -0.070312,0.017577 -0.070312,0.019532 -0.125,0.068359 -0.1269532,0.06836 -0.097656,0.021484 -0.097656,0.023437 -0.4277344,0.093751 H 8.3319149 L 8.0174617,6.2050803 7.4393368,5.7910173 C 7.4360489,5.7832154 7.3695535,5.715887 7.2908992,5.652345 7.2122447,5.5888167 7.1074408,5.4519824 7.0506649,5.3769556 6.8355389,5.0926266 6.5394571,4.439643 6.2576961,3.6250012 6.1707673,3.3736777 6.063376,3.0734383 6.0174618,2.9570325 5.8344546,2.4930815 5.6653107,1.9838035 5.5877742,1.6640648 5.5214053,1.3903615 5.378717,0.88461165 5.3123837,0.68750238 Z" />
  <metadata
     id="metadata24">
    <rdf:RDF>
      <cc:Work
         rdf:about="">
        <dc:creator>
          <cc:Agent>
            <dc:title>dreifacherspass</dc:title>
          </cc:Agent>
        </dc:creator>
        <cc:license
           rdf:resource="http://creativecommons.org/licenses/by-sa/4.0/" />
      </cc:Work>
      <cc:License
         rdf:about="http://creativecommons.org/licenses/by-sa/4.0/">
        <cc:permits
           rdf:resource="http://creativecommons.org/ns#Reproduction" />
        <cc:permits
           rdf:resource="http://creativecommons.org/ns#Distribution" />
        <cc:requires
           rdf:resource="http://creativecommons.org/ns#Notice" />
        <cc:requires
           rdf:resource="http://creativecommons.org/ns#Attribution" />
        <cc:permits
           rdf:resource="http://creativecommons.org/ns#DerivativeWorks" />
        <cc:requires
           rdf:resource="http://creativecommons.org/ns#ShareAlike" />
      </cc:License>
    </rdf:RDF>
  </metadata>
</svg>
