<?xml version="1.0" encoding="UTF-8" standalone="no"?>
<svg
   height="16"
   viewBox="0 0 16 16"
   width="16"
   version="1.1"
   id="svg1955"
   xmlns:xlink="http://www.w3.org/1999/xlink"
   xmlns="http://www.w3.org/2000/svg"
   xmlns:svg="http://www.w3.org/2000/svg"
   xmlns:rdf="http://www.w3.org/1999/02/22-rdf-syntax-ns#"
   xmlns:cc="http://creativecommons.org/ns#"
   xmlns:dc="http://purl.org/dc/elements/1.1/">
  <defs>
   <style id="current-color-scheme" type="text/css">
   .ColorScheme-Text { color: #0abdc6; } .ColorScheme-Highlight { color:#5294e2; }
  </style>
  <linearGradient id="arrongin" x1="0%" x2="0%" y1="0%" y2="100%">
   <stop offset="0%" style="stop-color:#dd9b44; stop-opacity:1"/>
   <stop offset="100%" style="stop-color:#ad6c16; stop-opacity:1"/>
  </linearGradient>
  <linearGradient id="aurora" x1="0%" x2="0%" y1="0%" y2="100%">
   <stop offset="0%" style="stop-color:#09D4DF; stop-opacity:1"/>
   <stop offset="100%" style="stop-color:#9269F4; stop-opacity:1"/>
  </linearGradient>
  <linearGradient id="cyberneon" x1="0%" x2="0%" y1="0%" y2="100%">
    <stop offset="0" style="stop-color:#0abdc6; stop-opacity:1"/>
    <stop offset="1" style="stop-color:#ea00d9; stop-opacity:1"/>
  </linearGradient>
  <linearGradient id="fitdance" x1="0%" x2="0%" y1="0%" y2="100%">
   <stop offset="0%" style="stop-color:#1AD6AB; stop-opacity:1"/>
   <stop offset="100%" style="stop-color:#329DB6; stop-opacity:1"/>
  </linearGradient>
  <linearGradient id="oomox" x1="0%" x2="0%" y1="0%" y2="100%">
   <stop offset="0%" style="stop-color:#0abdc6; stop-opacity:1"/>
   <stop offset="100%" style="stop-color:#b800ff; stop-opacity:1"/>
  </linearGradient>
  <linearGradient id="rainblue" x1="0%" x2="0%" y1="0%" y2="100%">
   <stop offset="0%" style="stop-color:#00F260; stop-opacity:1"/>
   <stop offset="100%" style="stop-color:#0575E6; stop-opacity:1"/>
  </linearGradient>
  <linearGradient id="sunrise" x1="0%" x2="0%" y1="0%" y2="100%">
   <stop offset="0%" style="stop-color: #FF8501; stop-opacity:1"/>
   <stop offset="100%" style="stop-color: #FFCB01; stop-opacity:1"/>
  </linearGradient>
  <linearGradient id="telinkrin" x1="0%" x2="0%" y1="0%" y2="100%">
   <stop offset="0%" style="stop-color: #b2ced6; stop-opacity:1"/>
   <stop offset="100%" style="stop-color: #6da5b7; stop-opacity:1"/>
  </linearGradient>
  <linearGradient id="60spsycho" x1="0%" x2="0%" y1="0%" y2="100%">
   <stop offset="0%" style="stop-color: #df5940; stop-opacity:1"/>
   <stop offset="25%" style="stop-color: #d8d15f; stop-opacity:1"/>
   <stop offset="50%" style="stop-color: #e9882a; stop-opacity:1"/>
   <stop offset="100%" style="stop-color: #279362; stop-opacity:1"/>
  </linearGradient>
  <linearGradient id="90ssummer" x1="0%" x2="0%" y1="0%" y2="100%">
   <stop offset="0%" style="stop-color: #f618c7; stop-opacity:1"/>
   <stop offset="20%" style="stop-color: #94ffab; stop-opacity:1"/>
   <stop offset="50%" style="stop-color: #fbfd54; stop-opacity:1"/>
   <stop offset="100%" style="stop-color: #0f83ae; stop-opacity:1"/>
  </linearGradient>
 </defs>
  <path
     d="m 7.3000505,9.9864587 v 2.4126703 c 4.623e-4,0.3996 0.4324817,0.723847 0.964977,0.723847 0.5324954,0 0.9645198,-0.323334 0.9649767,-0.722934 V 12.399118 9.9864463 C 9.2322797,9.4841187 8.7448867,9.1920449 8.3009883,9.1677786 7.8784909,9.144682 7.3018052,9.4521831 7.3000505,9.9864463 Z"
     fill-rule="evenodd"
     id="path1941-1"
     class="ColorScheme-Text"
     style="fill:url(#oomox);fill-opacity:1;stroke:none;stroke-width:0.116976;stroke-dasharray:none;stroke-opacity:1" />
  <path
     d="m 0.83786279,7.7037181 v 5.4862609 c 0,0.759898 0.55305761,1.371566 1.24014351,1.371566 H 14.479956 c 0.687086,0 1.240657,-0.611668 1.240657,-1.371566 V 7.7037181 c 0,-0.759898 -0.553571,-1.3715653 -1.240657,-1.3715653 H 4.4037247 c -0.8663716,-0.010595 -1.1308867,-0.00331 -2.1706363,0 -0.7659391,0.059827 -1.37782835,0.7343431 -1.39522561,1.3715653 z"
     fill-rule="evenodd"
     id="path1903"
     class="ColorScheme-Text"
     style="fill:none;fill-opacity:1;stroke:url(#oomox);stroke-width:0.558773;stroke-dasharray:none" />
  <path
     d="M 12.569673,5.6384246 V 8.051095 c 4.62e-4,0.3996 0.432481,0.7238469 0.964977,0.7238469 0.532495,0 0.964519,-0.3233335 0.964976,-0.7229335 V 8.051084 5.6384122 C 14.501902,5.1360846 14.014509,4.8440108 13.570611,4.8197445 13.148113,4.7966479 12.571428,5.104149 12.569673,5.6384122 Z"
     fill-rule="evenodd"
     id="path1941-5"
     class="ColorScheme-Text"
     style="fill:url(#oomox);fill-opacity:1;stroke:none;stroke-width:0.116976;stroke-dasharray:none;stroke-opacity:1" />
  <path
     d="m 2.4773844,5.702282 v 2.41267 c 4.622e-4,0.3995999 0.4324814,0.7238469 0.9649768,0.7238469 0.5324953,0 0.9645197,-0.3233336 0.9649766,-0.7229335 V 8.114941 5.7022695 C 4.4096134,5.199942 3.9222204,4.9078681 3.478322,4.8836018 3.0558247,4.8605052 2.4791391,5.1680064 2.4773844,5.7022695 Z"
     fill-rule="evenodd"
     id="path1941"
     class="ColorScheme-Text"
     style="fill:url(#oomox);fill-opacity:1;stroke:none;stroke-width:0.116976;stroke-dasharray:none;stroke-opacity:1" />
  <path
     id="path1943"
     class="ColorScheme-Text"
     style="fill:url(#oomox);fill-opacity:1;stroke:none;stroke-width:0.116912"
     d="m 3.4084662,11.424725 c -0.7101452,0 -1.2860948,0.431619 -1.2860948,0.964571 0,0.532495 0.5759496,0.964571 1.2860948,0.964571 0.7106018,0 1.286095,-0.432076 1.286095,-0.964571 0,-0.532952 -0.5754932,-0.964571 -1.286095,-0.964571 z m 0,0.35069 c 0.452118,0 0.8180451,0.274564 0.8180451,0.613881 0,0.33886 -0.3659271,0.613881 -0.8180451,0.613881 -0.4516614,0 -0.8187396,-0.275021 -0.8187396,-0.613881 0,-0.339317 0.3670782,-0.613881 0.8187396,-0.613881 z m 9.8769588,-0.452078 c -0.710147,0 -1.286095,0.43162 -1.286095,0.964571 0,0.532495 0.575948,0.963877 1.286095,0.963877 0.710601,0 1.286095,-0.431382 1.286095,-0.963877 0,-0.532951 -0.575494,-0.964571 -1.286095,-0.964571 z m 0,0.35069 c 0.452117,0 0.818739,0.274564 0.818739,0.613881 0,0.338861 -0.366622,0.613187 -0.818739,0.613187 -0.451663,0 -0.818045,-0.274326 -0.818045,-0.613187 0,-0.339317 0.366382,-0.613881 0.818045,-0.613881 z M 8.4320142,7.0143632 c -0.7101457,0 -1.2860951,0.4316198 -1.2860951,0.9645713 0,0.5324946 0.5759494,0.9645713 1.2860951,0.9645713 0.7101454,0 1.2860948,-0.4320767 1.2860948,-0.9645713 0,-0.5329515 -0.5759494,-0.9645713 -1.2860948,-0.9645713 z m 0,0.35069 c 0.4521181,0 0.8187396,0.2750209 0.8187396,0.6138813 0,0.3388605 -0.3666215,0.6138813 -0.8187396,0.6138813 -0.4521184,0 -0.8180455,-0.2750208 -0.8180455,-0.6138813 0,-0.3388604 0.3659271,-0.6138813 0.8180455,-0.6138813 z" />
  <path
     id="path1953-3-1"
     class="ColorScheme-Text"
     style="display:inline;fill:none;fill-opacity:1;stroke:url(#oomox);stroke-width:0.533327;stroke-dasharray:none;stroke-opacity:1"
     d="m 13.534517,5.6411926 c 0,-0.7303389 -2.04158,-2.099667 -3.6066649,-2.8042812 C 6.1714827,1.269139 0.34920342,1.4304367 2.5470829e-7,1.4304367 M 8.2650556,9.9892246 C 8.2683622,9.5856819 8.0872122,7.8404907 7.4832191,6.6101137 6.069634,3.7305408 4.1639745,2.3406693 0.02273486,2.4338367 M 3.4423612,5.702282 c 0,-0.8270577 -0.1200073,-1.3489348 -1.2464061,-1.789903 C 0.99203074,3.5897884 1.1028598,3.575995 0.07737321,3.575995" />
  <metadata
     id="metadata1372">
    <rdf:RDF>
      <cc:Work
         rdf:about="">
        <dc:creator>
          <cc:Agent>
            <dc:title>dreifacherspass</dc:title>
          </cc:Agent>
        </dc:creator>
        <cc:license
           rdf:resource="http://creativecommons.org/licenses/by-sa/4.0/" />
      </cc:Work>
      <cc:License
         rdf:about="http://creativecommons.org/licenses/by-sa/4.0/">
        <cc:permits
           rdf:resource="http://creativecommons.org/ns#Reproduction" />
        <cc:permits
           rdf:resource="http://creativecommons.org/ns#Distribution" />
        <cc:requires
           rdf:resource="http://creativecommons.org/ns#Notice" />
        <cc:requires
           rdf:resource="http://creativecommons.org/ns#Attribution" />
        <cc:permits
           rdf:resource="http://creativecommons.org/ns#DerivativeWorks" />
        <cc:requires
           rdf:resource="http://creativecommons.org/ns#ShareAlike" />
      </cc:License>
    </rdf:RDF>
  </metadata>
</svg>
