<?xml version="1.0" encoding="UTF-8" standalone="no"?>
<!-- Created with Inkscape (http://www.inkscape.org/) -->

<svg
   width="48"
   height="48"
   viewBox="0 0 12.7 12.7"
   version="1.1"
   id="svg5"
   xmlns="http://www.w3.org/2000/svg"
   xmlns:svg="http://www.w3.org/2000/svg"
   xmlns:rdf="http://www.w3.org/1999/02/22-rdf-syntax-ns#"
   xmlns:cc="http://creativecommons.org/ns#"
   xmlns:dc="http://purl.org/dc/elements/1.1/">
  <defs
     id="defs2">
    <style
       id="current-color-scheme"
       type="text/css">
      .ColorScheme-Text { color: #0abdc6; } .ColorScheme-Highlight { color:#5294e2; }
     </style>
    <linearGradient
       id="arrongin"
       x1="0%"
       x2="0%"
       y1="0%"
       y2="100%">
      <stop
         offset="0%"
         style="stop-color:#dd9b44; stop-opacity:1"
         id="stop9192" />
      <stop
         offset="100%"
         style="stop-color:#ad6c16; stop-opacity:1"
         id="stop9194" />
    </linearGradient>
    <linearGradient
       id="aurora"
       x1="0%"
       x2="0%"
       y1="0%"
       y2="100%">
      <stop
         offset="0%"
         style="stop-color:#09D4DF; stop-opacity:1"
         id="stop9197" />
      <stop
         offset="100%"
         style="stop-color:#9269F4; stop-opacity:1"
         id="stop9199" />
    </linearGradient>
    <linearGradient
       id="cyberneon"
       x1="0%"
       x2="0%"
       y1="0%"
       y2="100%">
      <stop
         offset="0"
         style="stop-color:#0abdc6; stop-opacity:1"
         id="stop9202" />
      <stop
         offset="1"
         style="stop-color:#ea00d9; stop-opacity:1"
         id="stop9204" />
    </linearGradient>
    <linearGradient
       id="fitdance"
       x1="0%"
       x2="0%"
       y1="0%"
       y2="100%">
      <stop
         offset="0%"
         style="stop-color:#1AD6AB; stop-opacity:1"
         id="stop9207" />
      <stop
         offset="100%"
         style="stop-color:#329DB6; stop-opacity:1"
         id="stop9209" />
    </linearGradient>
    <linearGradient
       id="oomox"
       x1="0%"
       x2="0%"
       y1="0%"
       y2="100%">
      <stop
         offset="0%"
         style="stop-color:#0abdc6; stop-opacity:1"
         id="stop9212" />
      <stop
         offset="100%"
         style="stop-color:#b800ff; stop-opacity:1"
         id="stop9214" />
    </linearGradient>
    <linearGradient
       id="rainblue"
       x1="0%"
       x2="0%"
       y1="0%"
       y2="100%">
      <stop
         offset="0%"
         style="stop-color:#00F260; stop-opacity:1"
         id="stop9217" />
      <stop
         offset="100%"
         style="stop-color:#0575E6; stop-opacity:1"
         id="stop9219" />
    </linearGradient>
    <linearGradient
       id="sunrise"
       x1="0%"
       x2="0%"
       y1="0%"
       y2="100%">
      <stop
         offset="0%"
         style="stop-color: #FF8501; stop-opacity:1"
         id="stop9222" />
      <stop
         offset="100%"
         style="stop-color: #FFCB01; stop-opacity:1"
         id="stop9224" />
    </linearGradient>
    <linearGradient
       id="telinkrin"
       x1="0%"
       x2="0%"
       y1="0%"
       y2="100%">
      <stop
         offset="0%"
         style="stop-color: #b2ced6; stop-opacity:1"
         id="stop9227" />
      <stop
         offset="100%"
         style="stop-color: #6da5b7; stop-opacity:1"
         id="stop9229" />
    </linearGradient>
    <linearGradient
       id="60spsycho"
       x1="0%"
       x2="0%"
       y1="0%"
       y2="100%">
      <stop
         offset="0%"
         style="stop-color: #df5940; stop-opacity:1"
         id="stop9232" />
      <stop
         offset="25%"
         style="stop-color: #d8d15f; stop-opacity:1"
         id="stop9234" />
      <stop
         offset="50%"
         style="stop-color: #e9882a; stop-opacity:1"
         id="stop9236" />
      <stop
         offset="100%"
         style="stop-color: #279362; stop-opacity:1"
         id="stop9238" />
    </linearGradient>
    <linearGradient
       id="90ssummer"
       x1="0%"
       x2="0%"
       y1="0%"
       y2="100%">
      <stop
         offset="0%"
         style="stop-color: #f618c7; stop-opacity:1"
         id="stop9241" />
      <stop
         offset="20%"
         style="stop-color: #94ffab; stop-opacity:1"
         id="stop9243" />
      <stop
         offset="50%"
         style="stop-color: #fbfd54; stop-opacity:1"
         id="stop9245" />
      <stop
         offset="100%"
         style="stop-color: #0f83ae; stop-opacity:1"
         id="stop9247" />
    </linearGradient>
  </defs>
  <path
     d="m 8.4948911,12.525028 q -1.0385789,0 -1.9191131,-0.293511 Q 5.6952438,11.915428 5.1533766,11.102627 4.6115093,10.289826 4.6115093,8.7771132 V 1.7102616 H 1.360306 V 0.17497116 h 9.979388 V 1.7102616 H 6.6209336 V 8.573913 q 0,1.3095125 0.5870228,1.828802 0.6096007,0.519289 1.5804461,0.519289 0.4967116,0 1.016001,-0.06773 0.5418675,-0.09031 0.9031125,-0.180622 v 1.490134 q -0.31609,0.135467 -0.9482681,0.248356 -0.6096006,0.112889 -1.2643568,0.112889 z"
     style="font-size:22.5778px;-inkscape-font-specification:sans-serif;fill:url(#oomox);fill-opacity:1;stroke-width:0.079375;paint-order:markers fill stroke;stop-color:#000000"
     id="path1462"
     class="ColorScheme-Text"
     transform="matrix(1.0069115,0,0,1.0069115,-1.2374158,-0.04388879)" />
  <g
     id="g2643">
    <path
       d="M 77.802446,92.785316 C 76.192446,92.000316 77.73,81.804 77.395,76.461 l 13.156,6.777 c -4.32,3.04 -11.214846,10.445169 -12.667846,9.668169"
       id="path30"
       class="ColorScheme-Text"
       style="fill:url(#oomox);fill-opacity:1"
       transform="matrix(0.1139946,-0.06210582,0.05525606,0.13389206,-2.4731252,4.9652076)" />
    <path
       d="m 109.46974,14.76829 c -0.1801,-0.03276 -0.63414,-0.172505 -1.6191,-0.03024 -1.05949,0.15303 -1.84001,1.010731 -1.88258,1.127496 L 88.778,52.375 78.48,74.242 l -1.054,2.246 -0.04,3.66 7.077921,3.606694 3.487927,1.509724 L 90.562,83.23 91.617,80.984 101.914,59.117 118.95886,22.909158 c 0.24729,-0.533106 0.60119,-1.252231 0.52663,-2.102008 -0.0982,-1.119399 -1.21193,-2.05812 -2.34459,-2.555274 -2.56648,-1.166053 -7.30342,-3.483709 -7.67116,-3.483586 z"
       id="path32"
       class="ColorScheme-Text"
       style="display:inline;fill:url(#oomox);fill-opacity:1"
       transform="matrix(0.1139946,-0.06210582,0.05525606,0.13389206,-2.4731252,4.9652076)" />
    <path
       d="M 109.51822,19.663112 93.114749,54.611752 C 88.877014,63.640518 84.599178,72.651084 80.39001,81.69275 l 4.431209,2.243041 3.136179,1.329781 L 90.562,83.231 91.617,80.984 101.914,59.117 118.51895,23.8167 c -0.45951,-0.213143 -1.17158,-0.465662 -2.34758,-1.067662 z"
       id="path34"
       style="display:inline;opacity:0.596886;fill:#000000;fill-opacity:0.444646"
       transform="matrix(0.1139946,-0.06210582,0.05525606,0.13389206,-2.4731252,4.9652076)" />
    <path
       d="m 87.509192,78.845556 -2.437379,5.189225 2.897303,1.230296 L 90.562,83.23 91.617,80.984 118.51949,23.815593 c -0.73962,-0.34307 -1.47414,-0.687839 -4.19311,-1.94903"
       id="path36"
       style="display:inline;opacity:0.3;fill:#000000;fill-opacity:1"
       transform="matrix(0.1139946,-0.06210582,0.05525606,0.13389206,-2.4731252,4.9652076)" />
    <path
       d="m 10.923618,0.13140553 c -0.245612,-3.1457e-4 -0.436758,0.2079567 -0.439743,0.400826 -1.05e-4,0.006771 2.1e-5,0.25568492 3.86e-4,0.26255202 l 1.871318,-0.001034 c 0,-0.0392215 -0.0033,-0.24897448 -0.0035,-0.25431278 -0.0084,-0.31532071 -0.246998,-0.41098171 -0.480608,-0.4062594 z"
       id="path38"
       style="display:inline;fill:#000000;fill-opacity:0.2;stroke-width:0.136511" />
  </g>
  <metadata
     id="metadata132">
    <rdf:RDF>
      <cc:Work
         rdf:about="">
        <dc:creator>
          <cc:Agent>
            <dc:title>dreifacherspass</dc:title>
          </cc:Agent>
        </dc:creator>
        <cc:license
           rdf:resource="http://creativecommons.org/licenses/by-sa/4.0/" />
      </cc:Work>
      <cc:License
         rdf:about="http://creativecommons.org/licenses/by-sa/4.0/">
        <cc:permits
           rdf:resource="http://creativecommons.org/ns#Reproduction" />
        <cc:permits
           rdf:resource="http://creativecommons.org/ns#Distribution" />
        <cc:requires
           rdf:resource="http://creativecommons.org/ns#Notice" />
        <cc:requires
           rdf:resource="http://creativecommons.org/ns#Attribution" />
        <cc:permits
           rdf:resource="http://creativecommons.org/ns#DerivativeWorks" />
        <cc:requires
           rdf:resource="http://creativecommons.org/ns#ShareAlike" />
      </cc:License>
    </rdf:RDF>
  </metadata>
</svg>
