<?xml version="1.0" encoding="UTF-8" standalone="no"?>
<svg
   fill="#000000"
   height="48"
   width="48"
   version="1.1"
   id="Layer_1"
   viewBox="0 0 30.72 30.72"
   xml:space="preserve"
   xmlns="http://www.w3.org/2000/svg"
   xmlns:svg="http://www.w3.org/2000/svg"
   xmlns:rdf="http://www.w3.org/1999/02/22-rdf-syntax-ns#"
   xmlns:cc="http://creativecommons.org/ns#"
   xmlns:dc="http://purl.org/dc/elements/1.1/">
   <defs
   id="defs2962">
   <style
   id="current-color-scheme"
   type="text/css">
      .ColorScheme-Text { color: #0abdc6; } .ColorScheme-Highlight { color:#5294e2; }
     </style>
    <linearGradient
   id="arrongin"
   x1="0%"
   x2="0%"
   y1="0%"
   y2="100%">
      <stop
   offset="0%"
   style="stop-color:#dd9b44; stop-opacity:1"
   id="stop9192" />
      <stop
   offset="100%"
   style="stop-color:#ad6c16; stop-opacity:1"
   id="stop9194" />
    </linearGradient>
    <linearGradient
   id="aurora"
   x1="0%"
   x2="0%"
   y1="0%"
   y2="100%">
      <stop
   offset="0%"
   style="stop-color:#09D4DF; stop-opacity:1"
   id="stop9197" />
      <stop
   offset="100%"
   style="stop-color:#9269F4; stop-opacity:1"
   id="stop9199" />
    </linearGradient>
    <linearGradient
   id="cyberneon"
   x1="0%"
   x2="0%"
   y1="0%"
   y2="100%">
      <stop
   offset="0"
   style="stop-color:#0abdc6; stop-opacity:1"
   id="stop9202" />
      <stop
   offset="1"
   style="stop-color:#ea00d9; stop-opacity:1"
   id="stop9204" />
    </linearGradient>
    <linearGradient
   id="fitdance"
   x1="0%"
   x2="0%"
   y1="0%"
   y2="100%">
      <stop
   offset="0%"
   style="stop-color:#1AD6AB; stop-opacity:1"
   id="stop9207" />
      <stop
   offset="100%"
   style="stop-color:#329DB6; stop-opacity:1"
   id="stop9209" />
    </linearGradient>
    <linearGradient
   id="oomox"
   x1="0%"
   x2="0%"
   y1="0%"
   y2="100%">
      <stop
   offset="0%"
   style="stop-color:#0abdc6; stop-opacity:1"
   id="stop9212" />
      <stop
   offset="100%"
   style="stop-color:#b800ff; stop-opacity:1"
   id="stop9214" />
    </linearGradient>
    <linearGradient
   id="rainblue"
   x1="0%"
   x2="0%"
   y1="0%"
   y2="100%">
      <stop
   offset="0%"
   style="stop-color:#00F260; stop-opacity:1"
   id="stop9217" />
      <stop
   offset="100%"
   style="stop-color:#0575E6; stop-opacity:1"
   id="stop9219" />
    </linearGradient>
    <linearGradient
   id="sunrise"
   x1="0%"
   x2="0%"
   y1="0%"
   y2="100%">
      <stop
   offset="0%"
   style="stop-color: #FF8501; stop-opacity:1"
   id="stop9222" />
      <stop
   offset="100%"
   style="stop-color: #FFCB01; stop-opacity:1"
   id="stop9224" />
    </linearGradient>
    <linearGradient
   id="telinkrin"
   x1="0%"
   x2="0%"
   y1="0%"
   y2="100%">
      <stop
   offset="0%"
   style="stop-color: #b2ced6; stop-opacity:1"
   id="stop9227" />
      <stop
   offset="100%"
   style="stop-color: #6da5b7; stop-opacity:1"
   id="stop9229" />
    </linearGradient>
    <linearGradient
   id="60spsycho"
   x1="0%"
   x2="0%"
   y1="0%"
   y2="100%">
      <stop
   offset="0%"
   style="stop-color: #df5940; stop-opacity:1"
   id="stop9232" />
      <stop
   offset="25%"
   style="stop-color: #d8d15f; stop-opacity:1"
   id="stop9234" />
      <stop
   offset="50%"
   style="stop-color: #e9882a; stop-opacity:1"
   id="stop9236" />
      <stop
   offset="100%"
   style="stop-color: #279362; stop-opacity:1"
   id="stop9238" />
    </linearGradient>
    <linearGradient
   id="90ssummer"
   x1="0%"
   x2="0%"
   y1="0%"
   y2="100%">
      <stop
   offset="0%"
   style="stop-color: #f618c7; stop-opacity:1"
   id="stop9241" />
      <stop
   offset="20%"
   style="stop-color: #94ffab; stop-opacity:1"
   id="stop9243" />
      <stop
   offset="50%"
   style="stop-color: #fbfd54; stop-opacity:1"
   id="stop9245" />
      <stop
   offset="100%"
   style="stop-color: #0f83ae; stop-opacity:1"
   id="stop9247" />
    </linearGradient>
<linearGradient
   id="linearGradient2284"
   gradientTransform="scale(1.6440072,0.60826983)"
   x1="0"
   y1="132.57439"
   x2="77.858536"
   y2="132.57439"
   gradientUnits="userSpaceOnUse"><stop
     style="stop-color:#41ff00;stop-opacity:1;"
     offset="0"
     id="stop2280" /><stop
     style="stop-color:#e7ff00;stop-opacity:1;"
     offset="1"
     id="stop2282" /></linearGradient></defs>

<path
   d="m 22.229687,6.8313525 c -2.101913,0.6489769 -4.456784,0.9999808 -6.869824,0.9999808 -0.06954,0 -0.138881,-0.0011 -0.208287,-0.00158 -0.120244,1.7763277 -0.198351,3.7230527 -0.227128,5.7607667 0.143129,0.0013 0.286942,0.0022 0.431578,0.0022 3.130327,-6.8e-5 6.173023,-0.323392 8.666569,-0.914199 C 23.737571,10.5814 23.122304,8.5999379 22.229687,6.8313525 Z"
   id="path2851"
   class="ColorScheme-Text"
   style="fill:url(#oomox);fill-opacity:1;stroke-width:0.0685153" />
<path
   d="M 16.148474,0.43586031 C 15.783219,1.7968482 15.4823,3.8383986 15.268738,6.3036476 c 0.03042,6.85e-5 0.0607,6.852e-4 0.09106,6.852e-4 2.143433,0 4.229313,-0.2920807 6.101356,-0.8341053 C 20.10304,3.3089124 18.292386,1.5580039 16.148474,0.43586031 Z"
   id="path2857"
   class="ColorScheme-Text"
   style="fill:url(#oomox);fill-opacity:1;stroke-width:0.0685153" />
<path
   d="M 9.2587811,5.4702275 C 10.656836,5.8750159 12.174039,6.1399646 13.745643,6.2482188 13.949681,3.8831391 14.232649,1.8752982 14.575774,0.43346228 12.430012,1.5556744 10.617851,3.307405 9.2587811,5.4702275 Z"
   id="path2863"
   class="ColorScheme-Text"
   style="fill:url(#oomox);fill-opacity:1;stroke-width:0.0685153" />
<path
   d="m 29.950402,11.70649 c -1.073635,0.986757 -2.773363,1.668553 -4.275629,2.114108 0.03659,0.508658 0.05563,1.022043 0.05563,1.539265 0,2.064229 -0.298041,4.070974 -0.854043,5.94843 1.893009,-0.60869 3.616786,-1.400796 5.088494,-2.354391 0.283585,-1.152154 0.435141,-2.355625 0.435141,-3.594039 0,-1.259654 -0.156489,-2.483269 -0.449597,-3.653373 z"
   id="path2869"
   class="ColorScheme-Text"
   style="fill:url(#oomox);fill-opacity:1;stroke-width:0.0685153" />
<path
   d="m 4.9896612,15.359863 c 0,-0.516537 0.019116,-1.029031 0.055497,-1.536935 -1.4843154,-0.439389 -3.1941833,-1.120294 -4.2766565,-2.111642 -0.29235478,1.168597 -0.44850115,2.390636 -0.44850115,3.648508 0,1.238483 0.15155584,2.442023 0.43520919,3.594313 C 2.2256855,19.906881 3.9478861,20.69837 5.8389769,21.306854 5.2790698,19.413297 4.9896612,17.407648 4.9896612,15.359863 Z"
   id="path2875"
   class="ColorScheme-Text"
   style="fill:url(#oomox);fill-opacity:1;stroke-width:0.0685153" />
<path
   d="M 4.4576399,5.0099417 C 3.1069293,6.4320453 2.0314446,8.1174532 1.3155968,9.9799731 1.7046266,10.786535 3.0870599,11.615844 5.2130896,12.276195 5.5231213,10.152906 6.1488031,8.139241 7.0431333,6.3212561 6.1065291,5.947094 5.2379607,5.508048 4.4576399,5.0099417 Z"
   id="path2881"
   class="ColorScheme-Text"
   style="fill:url(#oomox);fill-opacity:1;stroke-width:0.0685153" />
<path
   d="m 24.258356,23.084346 c -1.070277,2.660175 -2.685183,4.980789 -4.714332,6.72279 4.389433,-1.27322 7.957504,-4.496865 9.700122,-8.666706 -1.503363,0.789502 -3.18466,1.442727 -4.98579,1.943916 z"
   id="path2887"
   class="ColorScheme-Text"
   style="fill:url(#oomox);fill-opacity:1;stroke-width:0.0685153" />
<path
   d="M 5.6038324,3.9234946 C 6.2674716,4.3185538 6.996954,4.6690781 7.7780284,4.9717102 8.710179,3.4186739 9.8530828,2.0446681 11.171454,0.91402859 9.0965368,1.5166207 7.2053775,2.5551756 5.6038324,3.9234946 Z"
   id="path2893"
   class="ColorScheme-Text"
   style="fill:url(#oomox);fill-opacity:1;stroke-width:0.0685153" />
<path
   d="M 19.548614,0.91402859 C 20.867054,2.0446681 22.009821,3.4186054 22.94204,4.9716417 23.723046,4.6690096 24.452528,4.3184168 25.116168,3.9233576 23.514622,2.5551071 21.623463,1.5166207 19.548614,0.91402859 Z"
   id="path2899"
   class="ColorScheme-Text"
   style="fill:url(#oomox);fill-opacity:1;stroke-width:0.0685153" />
<path
   d="m 26.262292,5.0098732 c -0.780253,0.4981063 -1.648753,0.9371523 -2.585425,1.3113144 0.894193,1.8178479 1.519806,3.8313074 1.829975,5.9543904 1.995508,-0.621982 3.377462,-1.410387 3.841858,-2.206124 0.0174,-0.02987 0.0372,-0.05748 0.05783,-0.084137 C 28.690611,8.1206734 27.614304,6.4333471 26.262292,5.0098732 Z"
   id="path2905"
   class="ColorScheme-Text"
   style="fill:url(#oomox);fill-opacity:1;stroke-width:0.0685153" />
<path
   d="M 7.5199998,25.298966 C 7.1193908,24.587846 6.7649612,23.847401 6.4571219,23.083113 4.6577731,22.582129 2.978052,21.929452 1.4760596,21.140567 3.2183352,25.309723 6.7855843,28.53282 11.174058,29.806451 9.7520912,28.585851 8.515116,27.065428 7.5199998,25.298966 Z"
   id="path2911"
   class="ColorScheme-Text"
   style="fill:url(#oomox);fill-opacity:1;stroke-width:0.0685153" />
<path
   d="m 155.736,169.666 c -13.03,25.817 -22.011,54.741 -26.171,85.355 27.244,6.464 60.392,11.122 97.801,12.719 0.432,-29.72 1.588,-58.216 3.365,-84.371 -26.297,-1.836 -51.71,-6.513 -74.995,-13.703 z"
   id="path2917"
   class="ColorScheme-Text"
   style="fill-opacity:1;fill:url(#oomox)"
   transform="matrix(0.0685153,0,0,0.0685153,-2.1799168,-4.7932959)" />
<path
   d="m 227.173,294.14 c 0,-1.373 0.002,-2.744 0.006,-4.113 -35.892,-1.511 -70.132,-5.833 -99.768,-12.602 -0.316,5.533 -0.483,11.106 -0.483,16.715 0,33.138 5.56,65.031 15.814,94.112 27.689,6.912 57.283,11.296 87.728,12.875 -2.132,-32.801 -3.297,-69.163 -3.297,-106.987 z"
   id="path2923"
   class="ColorScheme-Text"
   style="fill-opacity:1;fill:url(#oomox)"
   transform="matrix(0.0685153,0,0,0.0685153,-2.1799168,-4.7932959)" />
<path
   d="m 232.123,423.531 c -27.115,-1.264 -53.66,-4.671 -78.963,-10.035 20.513,43.083 52.107,77.98 91.392,98.504 -5.188,-21.783 -9.432,-52.38 -12.429,-88.469 z"
   id="path2929"
   class="ColorScheme-Text"
   style="fill-opacity:1;fill:url(#oomox)"
   transform="matrix(0.0685153,0,0,0.0685153,-2.1799168,-4.7932959)" />

<path
   d="m 384.588,277.392 c -37.487,8.568 -82.526,13.243 -128.645,13.243 -2.163,0 -4.321,-0.013 -6.478,-0.035 -0.002,1.179 -0.004,2.358 -0.004,3.54 0,37.883 1.221,74.647 3.42,107.637 1.04,0.007 2.077,0.025 3.118,0.025 39.349,0 77.793,-4.707 113.138,-13.518 10.326,-29.155 15.936,-61.081 15.936,-94.142 -10e-4,-5.621 -0.168,-11.207 -0.485,-16.75 z"
   id="path2935"
   class="ColorScheme-Text"
   style="fill-opacity:1;fill:url(#oomox)"
   transform="matrix(0.0685153,0,0,0.0685153,-2.1799168,-4.7932959)" />
<path
   d="m 255.998,424.089 c -0.478,0 -0.955,-0.01 -1.433,-0.011 3.145,37.03 7.598,67.829 12.955,87.911 0.109,-0.062 0.209,-0.132 0.322,-0.191 38.965,-20.514 70.387,-55.382 90.854,-98.272 -32.647,6.911 -67.363,10.563 -102.698,10.563 z"
   id="path2941"
   class="ColorScheme-Text"
   style="fill-opacity:1;fill:url(#oomox)"
   transform="matrix(0.0685153,0,0,0.0685153,-2.1799168,-4.7932959)" />
<metadata
   id="metadata3081"><rdf:RDF><cc:Work
       rdf:about=""><dc:creator><cc:Agent><dc:title>dreifacherspass</dc:title></cc:Agent></dc:creator><cc:license
         rdf:resource="http://creativecommons.org/licenses/by-sa/4.0/" /></cc:Work><cc:License
       rdf:about="http://creativecommons.org/licenses/by-sa/4.0/"><cc:permits
         rdf:resource="http://creativecommons.org/ns#Reproduction" /><cc:permits
         rdf:resource="http://creativecommons.org/ns#Distribution" /><cc:requires
         rdf:resource="http://creativecommons.org/ns#Notice" /><cc:requires
         rdf:resource="http://creativecommons.org/ns#Attribution" /><cc:permits
         rdf:resource="http://creativecommons.org/ns#DerivativeWorks" /><cc:requires
         rdf:resource="http://creativecommons.org/ns#ShareAlike" /></cc:License></rdf:RDF></metadata><g
   id="g1840"
   transform="matrix(0.23499816,0,0,0.23649048,9.2965352,16.619528)"><path
     d="M 128,80.641 V 128 H 0 V 80.641 Z"
     id="path359"
     style="fill:url(#linearGradient2284);fill-opacity:1"
     transform="translate(-38.19832,-69.729474)" /><path
     d="M 13.309,80.641 60.664,128 H 81.879 L 34.52,80.641 Z m 42.422,0 47.363,47.359 h 21.215 L 76.946,80.641 Z m 42.43,0 29.84,29.84 V 89.27 l -8.6289,-8.6289 z m -98.16,7.9062 v 21.215 l 18.238,18.238 h 21.215 z"
     id="path361"
     transform="translate(-38.19832,-69.729474)"
     style="fill:#000000;fill-opacity:1" /></g></svg>
