<?xml version="1.0" encoding="UTF-8" standalone="no"?>
<svg
   width="48"
   height="48"
   viewBox="0 0 48 48"
   version="1.1"
   id="svg64"
   xmlns:xlink="http://www.w3.org/1999/xlink"
   xmlns="http://www.w3.org/2000/svg"
   xmlns:svg="http://www.w3.org/2000/svg"
   xmlns:rdf="http://www.w3.org/1999/02/22-rdf-syntax-ns#"
   xmlns:cc="http://creativecommons.org/ns#"
   xmlns:dc="http://purl.org/dc/elements/1.1/">
  <defs
     id="defs68">
    <style
       id="current-color-scheme"
       type="text/css">
      .ColorScheme-Text { color: #0abdc6; } .ColorScheme-Highlight { color:#5294e2; }
     </style>
    <linearGradient
       id="arrongin"
       x1="0%"
       x2="0%"
       y1="0%"
       y2="100%">
      <stop
         offset="0%"
         style="stop-color:#dd9b44; stop-opacity:1"
         id="stop9192" />
      <stop
         offset="100%"
         style="stop-color:#ad6c16; stop-opacity:1"
         id="stop9194" />
    </linearGradient>
    <linearGradient
       id="aurora"
       x1="0%"
       x2="0%"
       y1="0%"
       y2="100%">
      <stop
         offset="0%"
         style="stop-color:#09D4DF; stop-opacity:1"
         id="stop9197" />
      <stop
         offset="100%"
         style="stop-color:#9269F4; stop-opacity:1"
         id="stop9199" />
    </linearGradient>
    <linearGradient
       id="cyberneon"
       x1="0%"
       x2="0%"
       y1="0%"
       y2="100%">
      <stop
         offset="0"
         style="stop-color:#0abdc6; stop-opacity:1"
         id="stop9202" />
      <stop
         offset="1"
         style="stop-color:#ea00d9; stop-opacity:1"
         id="stop9204" />
    </linearGradient>
    <linearGradient
       id="fitdance"
       x1="0%"
       x2="0%"
       y1="0%"
       y2="100%">
      <stop
         offset="0%"
         style="stop-color:#1AD6AB; stop-opacity:1"
         id="stop9207" />
      <stop
         offset="100%"
         style="stop-color:#329DB6; stop-opacity:1"
         id="stop9209" />
    </linearGradient>
    <linearGradient
       id="oomox"
       x1="0%"
       x2="0%"
       y1="0%"
       y2="100%">
      <stop
         offset="0%"
         style="stop-color:#0abdc6; stop-opacity:1"
         id="stop9212" />
      <stop
         offset="100%"
         style="stop-color:#b800ff; stop-opacity:1"
         id="stop9214" />
    </linearGradient>
    <linearGradient
       id="rainblue"
       x1="0%"
       x2="0%"
       y1="0%"
       y2="100%">
      <stop
         offset="0%"
         style="stop-color:#00F260; stop-opacity:1"
         id="stop9217" />
      <stop
         offset="100%"
         style="stop-color:#0575E6; stop-opacity:1"
         id="stop9219" />
    </linearGradient>
    <linearGradient
       id="sunrise"
       x1="0%"
       x2="0%"
       y1="0%"
       y2="100%">
      <stop
         offset="0%"
         style="stop-color: #FF8501; stop-opacity:1"
         id="stop9222" />
      <stop
         offset="100%"
         style="stop-color: #FFCB01; stop-opacity:1"
         id="stop9224" />
    </linearGradient>
    <linearGradient
       id="telinkrin"
       x1="0%"
       x2="0%"
       y1="0%"
       y2="100%">
      <stop
         offset="0%"
         style="stop-color: #b2ced6; stop-opacity:1"
         id="stop9227" />
      <stop
         offset="100%"
         style="stop-color: #6da5b7; stop-opacity:1"
         id="stop9229" />
    </linearGradient>
    <linearGradient
       id="60spsycho"
       x1="0%"
       x2="0%"
       y1="0%"
       y2="100%">
      <stop
         offset="0%"
         style="stop-color: #df5940; stop-opacity:1"
         id="stop9232" />
      <stop
         offset="25%"
         style="stop-color: #d8d15f; stop-opacity:1"
         id="stop9234" />
      <stop
         offset="50%"
         style="stop-color: #e9882a; stop-opacity:1"
         id="stop9236" />
      <stop
         offset="100%"
         style="stop-color: #279362; stop-opacity:1"
         id="stop9238" />
    </linearGradient>
    <linearGradient
       id="90ssummer"
       x1="0%"
       x2="0%"
       y1="0%"
       y2="100%">
      <stop
         offset="0%"
         style="stop-color: #f618c7; stop-opacity:1"
         id="stop9241" />
      <stop
         offset="20%"
         style="stop-color: #94ffab; stop-opacity:1"
         id="stop9243" />
      <stop
         offset="50%"
         style="stop-color: #fbfd54; stop-opacity:1"
         id="stop9245" />
      <stop
         offset="100%"
         style="stop-color: #0f83ae; stop-opacity:1"
         id="stop9247" />
    </linearGradient>
  </defs>
  <path
     id="rect717"
     class="ColorScheme-Text"
     style="display:inline;fill:url(#oomox);fill-opacity:1;stroke-width:1.37808"
     d="m 28.186998,0.59679636 c -2.292726,0 -4.1385,1.95709574 -4.1385,4.38810144 V 43.01511 c 0,2.431006 1.845774,4.388102 4.1385,4.388102 H 43.3615 c 2.292726,0 4.1385,-1.957096 4.1385,-4.388102 V 4.9848978 C 47.5,2.5538921 45.654226,0.59679636 43.3615,0.59679636 Z M 30.945999,19.870026 h 9.6565 v 2.753319 h -9.6565 z m 0,5.506637 h 9.6565 v 2.753319 h -9.6565 z" />
  <path
     id="circle777"
     class="ColorScheme-Text"
     style="display:inline;fill:url(#oomox);fill-opacity:1;stroke-width:1.37808"
     d="M 10.253497,0.50000001 A 9.7530661,9.7329813 0 0 0 0.5,10.233411 9.7530661,9.7329813 0 0 0 10.253497,19.966822 9.7530661,9.7329813 0 0 0 20.006993,10.233411 9.7530661,9.7329813 0 0 0 10.253497,0.50000001 Z M 8.8739968,4.7267742 H 11.632997 V 8.856752 h 4.1385 v 2.753318 h -4.1385 v 4.129978 H 8.8739968 V 11.61007 H 4.7354965 V 8.856752 h 4.1385003 z" />
  <path
     id="circle747"
     style="display:inline;fill:url(#oomox);fill-opacity:1;stroke-width:1.37808"
     class="ColorScheme-Text"
     d="m 10.253497,28.033187 a 9.7530661,9.7329813 0 0 0 -1.3336966,0.09679 9.7530661,9.7329813 0 0 0 -0.3933727,0.07528 9.7530661,9.7329813 0 0 0 -0.9268517,0.201659 9.7530661,9.7329813 0 0 0 -0.4795915,0.164016 9.7530661,9.7329813 0 0 0 -0.7490258,0.279634 9.7530661,9.7329813 0 0 0 -0.5334789,0.260812 9.7530661,9.7329813 0 0 0 -0.6708895,0.365675 9.7530661,9.7329813 0 0 0 -0.4715089,0.314589 9.7530661,9.7329813 0 0 0 -0.6089199,0.457093 9.7530661,9.7329813 0 0 0 -0.4445655,0.387186 9.7530661,9.7329813 0 0 0 -0.5388673,0.537758 9.7530661,9.7329813 0 0 0 -0.3745126,0.424828 9.7530661,9.7329813 0 0 0 -0.4768976,0.634554 9.7530661,9.7329813 0 0 0 -0.3017656,0.454405 9.7530661,9.7329813 0 0 0 -0.3691241,0.672197 9.7530661,9.7329813 0 0 0 -0.2613505,0.53238 9.7530661,9.7329813 0 0 0 -0.264045,0.707151 9.7530661,9.7329813 0 0 0 -0.1832149,0.537757 9.7530661,9.7329813 0 0 0 -0.1859092,0.852346 9.7530661,9.7329813 0 0 0 -0.088913,0.446338 9.7530661,9.7329813 0 0 0 -0.096996,1.330951 9.7530661,9.7329813 0 0 0 0.024249,0.680264 9.7530661,9.7329813 0 0 1 0.016166,-0.118311 9.7530661,9.7329813 0 0 0 9.7130818,9.171461 9.7530661,9.7329813 0 0 0 9.713082,-9.163388 9.7530661,9.7329813 0 0 1 0.01617,0.126377 9.7530661,9.7329813 0 0 0 0.02425,-0.680262 9.7530661,9.7329813 0 0 0 0,-0.0028 9.7530661,9.7329813 0 0 0 0,-0.0028 9.7530661,9.7329813 0 0 0 0,-0.0028 9.7530661,9.7329813 0 0 0 0,-0.0028 9.7530661,9.7329813 0 0 0 0,-0.0028 9.7530661,9.7329813 0 0 0 0,-0.0028 9.7530661,9.7329813 0 0 0 -0.01076,-0.473226 9.7530661,9.7329813 0 0 0 0,-0.0028 9.7530661,9.7329813 0 0 0 0,-0.0028 9.7530661,9.7329813 0 0 0 -0.0028,-0.04302 9.7530661,9.7329813 0 0 0 -0.02963,-0.400631 9.7530661,9.7329813 0 0 0 -0.0028,-0.03227 9.7530661,9.7329813 0 0 0 -0.01076,-0.08604 9.7530661,9.7329813 0 0 0 -0.0458,-0.365676 9.7530661,9.7329813 0 0 0 -0.0028,-0.02151 9.7530661,9.7329813 0 0 0 -0.01076,-0.05647 9.7530661,9.7329813 0 0 0 -0.07005,-0.406008 9.7530661,9.7329813 0 0 0 -0.0028,-0.0081 9.7530661,9.7329813 0 0 0 -0.0028,-0.01073 9.7530661,9.7329813 0 0 0 -0.08353,-0.381808 9.7530661,9.7329813 0 0 0 -0.04311,-0.172082 9.7530661,9.7329813 0 0 0 -0.08353,-0.295766 9.7530661,9.7329813 0 0 0 -0.01886,-0.06722 9.7530661,9.7329813 0 0 0 -0.01352,-0.04303 9.7530661,9.7329813 0 0 0 -0.137412,-0.408695 9.7530661,9.7329813 0 0 0 -0.172438,-0.44634 9.7530661,9.7329813 0 0 0 -0.193992,-0.438273 9.7530661,9.7329813 0 0 0 -0.177826,-0.35223 9.7530661,9.7329813 0 0 0 -0.03503,-0.0726 9.7530661,9.7329813 0 0 0 -0.01352,-0.0242 9.7530661,9.7329813 0 0 0 -0.22363,-0.392563 9.7530661,9.7329813 0 0 0 -0.255962,-0.403317 9.7530661,9.7329813 0 0 0 -0.266739,-0.376432 9.7530661,9.7329813 0 0 0 -0.0081,-0.01345 9.7530661,9.7329813 0 0 0 -0.02156,-0.02689 9.7530661,9.7329813 0 0 0 -0.274822,-0.349543 9.7530661,9.7329813 0 0 0 -0.288295,-0.336099 9.7530661,9.7329813 0 0 0 -0.02425,-0.02689 9.7530661,9.7329813 0 0 0 -0.03502,-0.03764 9.7530661,9.7329813 0 0 0 -0.231714,-0.24468 9.7530661,9.7329813 0 0 0 -0.150882,-0.147883 9.7530661,9.7329813 0 0 0 -0.172438,-0.164017 9.7530661,9.7329813 0 0 0 -0.08622,-0.08066 9.7530661,9.7329813 0 0 0 -0.0485,-0.04303 9.7530661,9.7329813 0 0 0 -0.210159,-0.180149 9.7530661,9.7329813 0 0 0 -0.16166,-0.134439 9.7530661,9.7329813 0 0 0 -0.320625,-0.247369 9.7530661,9.7329813 0 0 0 -0.379902,-0.268878 9.7530661,9.7329813 0 0 0 -0.01076,-0.008 9.7530661,9.7329813 0 0 0 -0.0028,-0.0027 9.7530661,9.7329813 0 0 0 -0.269433,-0.169393 9.7530661,9.7329813 0 0 0 -0.132018,-0.08335 9.7530661,9.7329813 0 0 0 -0.01076,-0.0054 9.7530661,9.7329813 0 0 0 -0.07274,-0.04303 9.7530661,9.7329813 0 0 0 -0.330958,-0.184949 9.7530661,9.7329813 0 0 0 -0.366429,-0.185527 9.7530661,9.7329813 0 0 0 -0.06197,-0.02958 9.7530661,9.7329813 0 0 0 -0.06466,-0.02958 9.7530661,9.7329813 0 0 0 -0.374514,-0.164017 9.7530661,9.7329813 0 0 0 -0.393372,-0.15326 9.7530661,9.7329813 0 0 0 -0.05119,-0.01883 9.7530661,9.7329813 0 0 0 -0.08083,-0.02689 9.7530661,9.7329813 0 0 0 -0.30446,-0.09948 9.7530661,9.7329813 0 0 0 -0.196688,-0.05915 9.7530661,9.7329813 0 0 0 -0.218241,-0.05915 9.7530661,9.7329813 0 0 0 -0.191298,-0.0484 9.7530661,9.7329813 0 0 0 -0.352957,-0.08066 9.7530661,9.7329813 0 0 0 -0.04042,-0.008 9.7530661,9.7329813 0 0 0 -0.02156,-0.0027 9.7530661,9.7329813 0 0 0 -0.328703,-0.05915 9.7530661,9.7329813 0 0 0 -0.193993,-0.02958 9.7530661,9.7329813 0 0 0 -0.274822,-0.03227 9.7530661,9.7329813 0 0 0 -0.126638,-0.01613 9.7530661,9.7329813 0 0 0 -0.02425,-0.0027 9.7530661,9.7329813 0 0 0 -0.444565,-0.03227 9.7530661,9.7329813 0 0 0 -0.0081,0 9.7530661,9.7329813 0 0 0 -0.479591,-0.01345 z M 4.7354965,36.389939 H 15.771497 v 2.753319 H 4.7354965 Z" />
  <metadata
     id="metadata2450">
    <rdf:RDF>
      <cc:Work
         rdf:about="">
        <dc:creator>
          <cc:Agent>
            <dc:title>dreifacherspass</dc:title>
          </cc:Agent>
        </dc:creator>
        <cc:license
           rdf:resource="http://creativecommons.org/licenses/by-sa/4.0/" />
      </cc:Work>
      <cc:License
         rdf:about="http://creativecommons.org/licenses/by-sa/4.0/">
        <cc:permits
           rdf:resource="http://creativecommons.org/ns#Reproduction" />
        <cc:permits
           rdf:resource="http://creativecommons.org/ns#Distribution" />
        <cc:requires
           rdf:resource="http://creativecommons.org/ns#Notice" />
        <cc:requires
           rdf:resource="http://creativecommons.org/ns#Attribution" />
        <cc:permits
           rdf:resource="http://creativecommons.org/ns#DerivativeWorks" />
        <cc:requires
           rdf:resource="http://creativecommons.org/ns#ShareAlike" />
      </cc:License>
    </rdf:RDF>
  </metadata>
</svg>
