<?xml version="1.0" encoding="UTF-8" standalone="no"?>
<svg
   viewBox="0 0 16 16"
   version="1.1"
   id="svg8"
   width="16"
   height="16"
   xmlns:xlink="http://www.w3.org/1999/xlink"
   xmlns="http://www.w3.org/2000/svg"
   xmlns:svg="http://www.w3.org/2000/svg"
   xmlns:rdf="http://www.w3.org/1999/02/22-rdf-syntax-ns#"
   xmlns:cc="http://creativecommons.org/ns#"
   xmlns:dc="http://purl.org/dc/elements/1.1/">
   <defs>
      <style id="current-color-scheme" type="text/css">
         .ColorScheme-Text { color: #0abdc6; } .ColorScheme-Highlight { color:#5294e2; }
      </style>
      <linearGradient id="arrongin" x1="0%" x2="0%" y1="0%" y2="100%">
         <stop offset="0%" style="stop-color:#dd9b44; stop-opacity:1"/>
         <stop offset="100%" style="stop-color:#ad6c16; stop-opacity:1"/>
      </linearGradient>
      <linearGradient id="aurora" x1="0%" x2="0%" y1="0%" y2="100%">
         <stop offset="0%" style="stop-color:#09D4DF; stop-opacity:1"/>
         <stop offset="100%" style="stop-color:#9269F4; stop-opacity:1"/>
      </linearGradient>
      <linearGradient id="cyberneon" x1="0%" x2="0%" y1="0%" y2="100%">
         <stop offset="0" style="stop-color:#0abdc6; stop-opacity:1"/>
         <stop offset="1" style="stop-color:#ea00d9; stop-opacity:1"/>
      </linearGradient>
      <linearGradient id="fitdance" x1="0%" x2="0%" y1="0%" y2="100%">
         <stop offset="0%" style="stop-color:#1AD6AB; stop-opacity:1"/>
         <stop offset="100%" style="stop-color:#329DB6; stop-opacity:1"/>
      </linearGradient>
      <linearGradient id="oomox" x1="0%" x2="0%" y1="0%" y2="100%">
         <stop offset="0%" style="stop-color:#0abdc6; stop-opacity:1"/>
         <stop offset="100%" style="stop-color:#b800ff; stop-opacity:1"/>
      </linearGradient>
      <linearGradient id="rainblue" x1="0%" x2="0%" y1="0%" y2="100%">
         <stop offset="0%" style="stop-color:#00F260; stop-opacity:1"/>
         <stop offset="100%" style="stop-color:#0575E6; stop-opacity:1"/>
      </linearGradient>
      <linearGradient id="sunrise" x1="0%" x2="0%" y1="0%" y2="100%">
         <stop offset="0%" style="stop-color: #FF8501; stop-opacity:1"/>
         <stop offset="100%" style="stop-color: #FFCB01; stop-opacity:1"/>
      </linearGradient>
      <linearGradient id="telinkrin" x1="0%" x2="0%" y1="0%" y2="100%">
         <stop offset="0%" style="stop-color: #b2ced6; stop-opacity:1"/>
         <stop offset="100%" style="stop-color: #6da5b7; stop-opacity:1"/>
      </linearGradient>
      <linearGradient id="60spsycho" x1="0%" x2="0%" y1="0%" y2="100%">
         <stop offset="0%" style="stop-color: #df5940; stop-opacity:1"/>
         <stop offset="25%" style="stop-color: #d8d15f; stop-opacity:1"/>
         <stop offset="50%" style="stop-color: #e9882a; stop-opacity:1"/>
         <stop offset="100%" style="stop-color: #279362; stop-opacity:1"/>
      </linearGradient>
      <linearGradient id="90ssummer" x1="0%" x2="0%" y1="0%" y2="100%">
         <stop offset="0%" style="stop-color: #f618c7; stop-opacity:1"/>
         <stop offset="20%" style="stop-color: #94ffab; stop-opacity:1"/>
         <stop offset="50%" style="stop-color: #fbfd54; stop-opacity:1"/>
         <stop offset="100%" style="stop-color: #0f83ae; stop-opacity:1"/>
      </linearGradient>
   </defs>
  <path
     d="M 14.981818,13.538462 H 1.0181818 C 0.4081698,13.538462 0,14.143606 0,14.769231 0,15.394855 0.4081698,16 1.0181818,16 H 14.981818 C 15.591807,16 16,15.394855 16,14.769231 16,14.143606 15.591807,13.538462 14.981818,13.538462 Z"
     style="fill:url(#oomox);fill-opacity:0.4;stroke-width:0.488564"
     id="path6"
     class="ColorScheme-Text"/>
  <path
     style="fill:url(#oomox);stroke-width:0.488564"
     d="M 8.0000336,0 C 4.788161,0 2.184274,2.6426821 2.1818183,5.9076923 v 4.5784617 c 0,0.729523 0.5930307,1.32923 1.3090908,1.32923 0,0 0,-2.26e-4 0,-2.26e-4 v 2.26e-4 H 8.0000002 C 11.214266,11.813784 13.818182,9.169755 13.818182,5.9077706 13.818182,2.6450575 11.213292,0 7.999965,0 Z M 9.454697,2.4307412 v 0.030799 c 0.97708,0 1.961417,0.730007 1.961417,1.7777388 0,0.097189 -0.0011,0.1938053 -0.01636,0.3043643 -0.02703,0.2786545 -0.277695,0.4187924 -0.550776,0.3794353 -0.273352,-0.039744 -0.397341,-0.2054636 -0.408179,-0.5184369 0.0043,-0.031055 0.0063,-0.080577 0.0063,-0.1653627 0,-0.5939338 -0.53949,-0.8235269 -0.992438,-0.8235269 -0.4526765,0 -0.9682338,0.3817836 -0.9697814,0.8186905 v 1.6732499 l 0.8398694,-0.0062 c 0.655661,-0.013981 0.662371,0.9896512 0.0067,0.9849319 l -0.8465757,0.00468 -0.00612,1.4108929 C 8.3774371,9.409337 7.3878937,10.298699 6.2724529,10.298699 5.0902012,10.298699 4.1148941,9.316671 4.1148941,8.1132781 4.1504921,6.875326 5.1247258,5.9018841 6.3485775,5.9135439 l 0.6817256,-0.00468 v 0.9834408 l -0.6874003,0.0062 c -0.6727761,0.02019 -1.2480117,0.4834226 -1.2590304,1.214882 0,0.6668569 0.530829,1.2005033 1.1889494,1.2005033 0.6574841,0 1.2434375,-0.4893598 1.2434375,-1.2027935 V 4.2301715 C 7.516572,4.1612377 7.5198023,4.1059673 7.5275757,4.0298141 7.6380812,3.1196081 8.5471031,2.4615385 9.454545,2.4615385 Z"
     id="path8"
     class="ColorScheme-Text"/>
  <metadata
     id="metadata8">
    <rdf:RDF>
      <cc:Work
         rdf:about="">
        <dc:creator>
          <cc:Agent>
            <dc:title>dreifacherspass</dc:title>
          </cc:Agent>
        </dc:creator>
        <cc:license
           rdf:resource="http://creativecommons.org/licenses/by-sa/4.0/" />
      </cc:Work>
      <cc:License
         rdf:about="http://creativecommons.org/licenses/by-sa/4.0/">
        <cc:permits
           rdf:resource="http://creativecommons.org/ns#Reproduction" />
        <cc:permits
           rdf:resource="http://creativecommons.org/ns#Distribution" />
        <cc:requires
           rdf:resource="http://creativecommons.org/ns#Notice" />
        <cc:requires
           rdf:resource="http://creativecommons.org/ns#Attribution" />
        <cc:permits
           rdf:resource="http://creativecommons.org/ns#DerivativeWorks" />
        <cc:requires
           rdf:resource="http://creativecommons.org/ns#ShareAlike" />
      </cc:License>
    </rdf:RDF>
  </metadata>
  <rect
     style="opacity:1;fill:url(#oomox);fill-opacity:1;stroke-width:1.49756"
     id="rect24"
     class="ColorScheme-Text"
     width="1.9695385"
     height="9.6973639"
     x="13.784645"
     y="-9.9396973"
     ry="0.84150916"
     transform="rotate(90)" />
</svg>
