<?xml version="1.0" encoding="UTF-8" standalone="no"?>
<!-- Created with Inkscape (http://www.inkscape.org/) -->

<svg
   width="48"
   height="48"
   version="1.1"
   viewBox="0 0 12.7 12.7"
   id="svg2221"
   xmlns="http://www.w3.org/2000/svg"
   xmlns:svg="http://www.w3.org/2000/svg"
   xmlns:rdf="http://www.w3.org/1999/02/22-rdf-syntax-ns#"
   xmlns:cc="http://creativecommons.org/ns#"
   xmlns:dc="http://purl.org/dc/elements/1.1/">
  <defs
     id="defs2225">
    <style
       id="current-color-scheme"
       type="text/css">
   .ColorScheme-Text { color: #0abdc6; } .ColorScheme-Highlight { color:#5294e2; }
  </style>
    <linearGradient
       id="arrongin"
       x1="0%"
       x2="0%"
       y1="0%"
       y2="100%">
      <stop
         offset="0%"
         style="stop-color:#dd9b44; stop-opacity:1"
         id="stop9192" />
      <stop
         offset="100%"
         style="stop-color:#ad6c16; stop-opacity:1"
         id="stop9194" />
    </linearGradient>
    <linearGradient
       id="aurora"
       x1="0%"
       x2="0%"
       y1="0%"
       y2="100%">
      <stop
         offset="0%"
         style="stop-color:#09D4DF; stop-opacity:1"
         id="stop9197" />
      <stop
         offset="100%"
         style="stop-color:#9269F4; stop-opacity:1"
         id="stop9199" />
    </linearGradient>
    <linearGradient
       id="cyberneon"
       x1="0%"
       x2="0%"
       y1="0%"
       y2="100%">
      <stop
         offset="0"
         style="stop-color:#0abdc6; stop-opacity:1"
         id="stop9202" />
      <stop
         offset="1"
         style="stop-color:#ea00d9; stop-opacity:1"
         id="stop9204" />
    </linearGradient>
    <linearGradient
       id="fitdance"
       x1="0%"
       x2="0%"
       y1="0%"
       y2="100%">
      <stop
         offset="0%"
         style="stop-color:#1AD6AB; stop-opacity:1"
         id="stop9207" />
      <stop
         offset="100%"
         style="stop-color:#329DB6; stop-opacity:1"
         id="stop9209" />
    </linearGradient>
    <linearGradient
       id="oomox"
       x1="0%"
       x2="0%"
       y1="0%"
       y2="100%">
      <stop
         offset="0%"
         style="stop-color:#0abdc6; stop-opacity:1"
         id="stop9212" />
      <stop
         offset="100%"
         style="stop-color:#b800ff; stop-opacity:1"
         id="stop9214" />
    </linearGradient>
    <linearGradient
       id="rainblue"
       x1="0%"
       x2="0%"
       y1="0%"
       y2="100%">
      <stop
         offset="0%"
         style="stop-color:#00F260; stop-opacity:1"
         id="stop9217" />
      <stop
         offset="100%"
         style="stop-color:#0575E6; stop-opacity:1"
         id="stop9219" />
    </linearGradient>
    <linearGradient
       id="sunrise"
       x1="0%"
       x2="0%"
       y1="0%"
       y2="100%">
      <stop
         offset="0%"
         style="stop-color: #FF8501; stop-opacity:1"
         id="stop9222" />
      <stop
         offset="100%"
         style="stop-color: #FFCB01; stop-opacity:1"
         id="stop9224" />
    </linearGradient>
    <linearGradient
       id="telinkrin"
       x1="0%"
       x2="0%"
       y1="0%"
       y2="100%">
      <stop
         offset="0%"
         style="stop-color: #b2ced6; stop-opacity:1"
         id="stop9227" />
      <stop
         offset="100%"
         style="stop-color: #6da5b7; stop-opacity:1"
         id="stop9229" />
    </linearGradient>
    <linearGradient
       id="60spsycho"
       x1="0%"
       x2="0%"
       y1="0%"
       y2="100%">
      <stop
         offset="0%"
         style="stop-color: #df5940; stop-opacity:1"
         id="stop9232" />
      <stop
         offset="25%"
         style="stop-color: #d8d15f; stop-opacity:1"
         id="stop9234" />
      <stop
         offset="50%"
         style="stop-color: #e9882a; stop-opacity:1"
         id="stop9236" />
      <stop
         offset="100%"
         style="stop-color: #279362; stop-opacity:1"
         id="stop9238" />
    </linearGradient>
    <linearGradient
       id="90ssummer"
       x1="0%"
       x2="0%"
       y1="0%"
       y2="100%">
      <stop
         offset="0%"
         style="stop-color: #f618c7; stop-opacity:1"
         id="stop9241" />
      <stop
         offset="20%"
         style="stop-color: #94ffab; stop-opacity:1"
         id="stop9243" />
      <stop
         offset="50%"
         style="stop-color: #fbfd54; stop-opacity:1"
         id="stop9245" />
      <stop
         offset="100%"
         style="stop-color: #0f83ae; stop-opacity:1"
         id="stop9247" />
    </linearGradient>
  </defs>
  <path
     id="path1111"
     class="ColorScheme-Text"
     style="display:inline;opacity:0.6;fill:url(#oomox);fill-opacity:1;stroke:none;stroke-width:0.273267;stroke-dasharray:none;stroke-opacity:1"
     d="m 6.3755138,0.15875 -0.006,3.0069503 c 0.00213,-1.062e-4 0.00453,-4.997e-4 0.0065,-4.997e-4 0.1510676,0 0.7695398,0.313951 1.3667955,0.6591602 L 9.0921137,1.466576 C 7.903039,0.78006119 6.6761139,0.15875 6.3755138,0.15875 Z" />
  <path
     id="path1112"
     class="ColorScheme-Text"
     style="opacity:0.6;fill:url(#oomox);fill-opacity:1;stroke:none;stroke-width:0.273267;stroke-dasharray:none;stroke-opacity:1"
     d="M 9.1946176,1.4914856 7.8363177,3.8437732 C 8.4311194,4.187118 9.0074909,4.5631118 9.0826753,4.6933354 l -0.00549,0.00999 L 11.68534,3.1901052 C 11.535013,2.929745 10.383691,2.177959 9.1946176,1.4914856 Z" />
  <path
     id="path1113"
     class="ColorScheme-Text"
     style="opacity:0.6;fill:url(#oomox);fill-opacity:1;stroke:none;stroke-width:0.273267;stroke-dasharray:none;stroke-opacity:1"
     d="m 11.736546,3.3180921 -2.6031571,1.5027256 4.998e-4,4.997e-4 c 0.075544,0.1308393 0.1128285,0.8237008 0.112442,1.5137198 L 11.96193,6.3245422 c 0,-1.3730489 -0.07505,-2.7461373 -0.225384,-3.0064501 z" />
  <path
     id="path1114"
     class="ColorScheme-Text"
     style="opacity:0.6;fill:url(#oomox);fill-opacity:1;stroke:none;stroke-width:0.273267;stroke-dasharray:none;stroke-opacity:1"
     d="m 9.2463308,6.4523507 c 0,0.6865207 -0.037283,1.373043 -0.112442,1.5032253 L 11.736546,9.4588012 C 11.886866,9.1984365 11.96192,7.8253997 11.96193,6.4523507 Z" />
  <path
     id="path1115"
     class="ColorScheme-Text"
     style="opacity:0.6;fill:url(#oomox);fill-opacity:1;stroke:none;stroke-width:0.273267;stroke-dasharray:none;stroke-opacity:1"
     d="M 9.0821794,8.0594729 C 9.0056771,8.1902895 8.4292822,8.5659604 7.8348222,8.909035 l 1.3597993,2.351788 C 10.383695,10.574308 11.535037,9.8225119 11.685337,9.5621984 Z" />
  <path
     id="path1116"
     class="ColorScheme-Text"
     style="opacity:0.6;fill:url(#oomox);fill-opacity:1;stroke:none;stroke-width:0.273267;stroke-dasharray:none;stroke-opacity:1"
     d="M 7.7594037,8.9603792 C 7.1649948,9.3034937 6.5518754,9.6140423 6.4016034,9.6140423 l -0.0045,-0.008 0.00399,3.0144467 c 0.3006413,0 1.5275252,-0.621279 2.7165999,-1.307825 z" />
  <path
     id="path11117"
     class="ColorScheme-Text"
     style="opacity:0.6;fill:url(#oomox);fill-opacity:1;stroke:none;stroke-width:0.273267;stroke-dasharray:none;stroke-opacity:1"
     d="m 3.6175416,8.0830208 -4.998e-4,0.0035 -2.6031585,1.5012263 C 1.3145248,10.108475 5.6199995,12.594195 6.2211996,12.594195 V 9.5877453 c -0.3007033,0 -2.4528273,-1.2428705 -2.6031583,-1.5032252 -2.349e-4,-4.069e-4 -2.655e-4,-0.00108 -4.997e-4,-0.0015 z" />
  <path
     id="path1118"
     class="ColorScheme-Text"
     style="opacity:0.6;fill:url(#oomox);fill-opacity:1;stroke:none;stroke-width:0.273267;stroke-dasharray:none;stroke-opacity:1"
     d="m 0.96366854,3.3956625 c -0.30064139,0.5207303 -0.30064139,5.4921708 0,6.0129011 L 3.5678266,7.9053384 c -0.1503311,-0.2603136 -0.1503104,-2.7460855 0,-3.0064507 l 0.012301,-0.018685 -0.019797,-0.012799 z" />
  <path
     id="path1119"
     class="ColorScheme-Text"
     style="opacity:0.6;fill:url(#oomox);fill-opacity:1;stroke:none;stroke-width:0.273267;stroke-dasharray:none;stroke-opacity:1"
     d="m 6.2211996,0.15875 c -0.6012827,-2e-8 -4.9067161,2.4857205 -5.2073163,3.0064507 L 3.6190408,4.6694254 3.618541,4.6684259 C 3.768767,4.4082399 5.9188467,3.1664472 6.2211996,3.1652007 Z" />
  <path
     style="display:inline;fill:url(#oomox);fill-opacity:1"
     d="m 3.6963337,4.9965942 c -0.1486486,0.2574875 -0.1486691,2.7160255 0,2.973462 0.1486687,0.2574769 2.2771401,1.4862141 2.5745198,1.4862141 V 6.4833252 Z"
     id="path2222"
     class="ColorScheme-Text" />
  <path
     style="display:inline;fill:url(#oomox);fill-opacity:1"
     d="m 8.9787471,4.9966563 -2.5750367,1.4867309 0.0031,0.013436 -0.0031,2.9595093 c 0.2973203,0 2.4264342,-1.2292622 2.5750367,-1.486731 0.1486557,-0.2574869 0.1486557,-2.7154763 0,-2.9729452 z"
     id="path2223"
     class="ColorScheme-Text" />
  <path
     style="display:inline;fill:url(#oomox);fill-opacity:1"
     d="m 6.3241618,3.3248617 c -0.2973234,0 -2.4258797,1.2287744 -2.5745199,1.4862141 L 6.3241618,6.3045247 8.8997152,4.8110758 C 8.7510578,4.5535924 6.6215294,3.3248617 6.3241618,3.3248617 Z"
     id="path2224"
     class="ColorScheme-Text" />
  <metadata
     id="metadata2219">
    <rdf:RDF>
      <cc:Work
         rdf:about="">
        <cc:license
           rdf:resource="http://creativecommons.org/licenses/by-sa/4.0/" />
        <dc:creator>
          <cc:Agent>
            <dc:title>dreifacherspass</dc:title>
          </cc:Agent>
        </dc:creator>
      </cc:Work>
      <cc:License
         rdf:about="http://creativecommons.org/licenses/by-sa/4.0/">
        <cc:permits
           rdf:resource="http://creativecommons.org/ns#Reproduction" />
        <cc:permits
           rdf:resource="http://creativecommons.org/ns#Distribution" />
        <cc:requires
           rdf:resource="http://creativecommons.org/ns#Notice" />
        <cc:requires
           rdf:resource="http://creativecommons.org/ns#Attribution" />
        <cc:permits
           rdf:resource="http://creativecommons.org/ns#DerivativeWorks" />
        <cc:requires
           rdf:resource="http://creativecommons.org/ns#ShareAlike" />
      </cc:License>
    </rdf:RDF>
  </metadata>
</svg>
