<?xml version="1.0" encoding="UTF-8" standalone="no"?>
<svg
   viewBox="0 0 16 16"
   style="display:inline;enable-background:new"
   version="1.0"
   id="svg11300"
   height="16"
   width="16"
   xmlns:xlink="http://www.w3.org/1999/xlink"
   xmlns="http://www.w3.org/2000/svg"
   xmlns:svg="http://www.w3.org/2000/svg"
   xmlns:rdf="http://www.w3.org/1999/02/22-rdf-syntax-ns#"
   xmlns:cc="http://creativecommons.org/ns#"
   xmlns:dc="http://purl.org/dc/elements/1.1/">
   <defs>
   <style id="current-color-scheme" type="text/css">
   .ColorScheme-Text { color: #0abdc6; } .ColorScheme-Highlight { color:#5294e2; }
  </style>
  <linearGradient id="arrongin" x1="0%" x2="0%" y1="0%" y2="100%">
   <stop offset="0%" style="stop-color:#dd9b44; stop-opacity:1"/>
   <stop offset="100%" style="stop-color:#ad6c16; stop-opacity:1"/>
  </linearGradient>
  <linearGradient id="aurora" x1="0%" x2="0%" y1="0%" y2="100%">
   <stop offset="0%" style="stop-color:#09D4DF; stop-opacity:1"/>
   <stop offset="100%" style="stop-color:#9269F4; stop-opacity:1"/>
  </linearGradient>
  <linearGradient id="cyberneon" x1="0%" x2="0%" y1="0%" y2="100%">
    <stop offset="0" style="stop-color:#0abdc6; stop-opacity:1"/>
    <stop offset="1" style="stop-color:#ea00d9; stop-opacity:1"/>
  </linearGradient>
  <linearGradient id="fitdance" x1="0%" x2="0%" y1="0%" y2="100%">
   <stop offset="0%" style="stop-color:#1AD6AB; stop-opacity:1"/>
   <stop offset="100%" style="stop-color:#329DB6; stop-opacity:1"/>
  </linearGradient>
  <linearGradient id="oomox" x1="0%" x2="0%" y1="0%" y2="100%">
   <stop offset="0%" style="stop-color:#0abdc6; stop-opacity:1"/>
   <stop offset="100%" style="stop-color:#b800ff; stop-opacity:1"/>
  </linearGradient>
  <linearGradient id="rainblue" x1="0%" x2="0%" y1="0%" y2="100%">
   <stop offset="0%" style="stop-color:#00F260; stop-opacity:1"/>
   <stop offset="100%" style="stop-color:#0575E6; stop-opacity:1"/>
  </linearGradient>
  <linearGradient id="sunrise" x1="0%" x2="0%" y1="0%" y2="100%">
   <stop offset="0%" style="stop-color: #FF8501; stop-opacity:1"/>
   <stop offset="100%" style="stop-color: #FFCB01; stop-opacity:1"/>
  </linearGradient>
  <linearGradient id="telinkrin" x1="0%" x2="0%" y1="0%" y2="100%">
   <stop offset="0%" style="stop-color: #b2ced6; stop-opacity:1"/>
   <stop offset="100%" style="stop-color: #6da5b7; stop-opacity:1"/>
  </linearGradient>
  <linearGradient id="60spsycho" x1="0%" x2="0%" y1="0%" y2="100%">
   <stop offset="0%" style="stop-color: #df5940; stop-opacity:1"/>
   <stop offset="25%" style="stop-color: #d8d15f; stop-opacity:1"/>
   <stop offset="50%" style="stop-color: #e9882a; stop-opacity:1"/>
   <stop offset="100%" style="stop-color: #279362; stop-opacity:1"/>
  </linearGradient>
  <linearGradient id="90ssummer" x1="0%" x2="0%" y1="0%" y2="100%">
   <stop offset="0%" style="stop-color: #f618c7; stop-opacity:1"/>
   <stop offset="20%" style="stop-color: #94ffab; stop-opacity:1"/>
   <stop offset="50%" style="stop-color: #fbfd54; stop-opacity:1"/>
   <stop offset="100%" style="stop-color: #0f83ae; stop-opacity:1"/>
  </linearGradient>
 </defs>
  <path
     id="rect853"
     style="display:inline;enable-background:new;opacity:0.8;fill:url(#oomox);stroke-width:0.998098"
     class="ColorScheme-Text"
     d="m 180.4344,68.089766 5.66162,-5.647057 42.3559,42.370421 -5.64516,5.6471 z"
     transform="matrix(0.15925338,0,0,0.15925338,-20.70264,-1.8712499)" />
  <path
     id="rect853-3"
     style="display:inline;enable-background:new;opacity:1;fill:url(#oomox);stroke-width:0.534522"
     class="ColorScheme-Text"
     transform="matrix(0.11260914,-0.11260914,0.11260914,0.11260914,-20.70264,-1.8712499)"
     d="m 79.438599,151.74725 h 8 v 24 h -8 z" />
  <path
     id="path635"
     class="ColorScheme-Text"
     style="display:inline;fill:url(#oomox);fill-opacity:1;stroke:url(#oomox);stroke-width:0.119574;stroke-linecap:butt;stroke-miterlimit:4;stroke-dasharray:none;stroke-opacity:1;enable-background:new"
     d="M 0.77058281,0.13930666 0.66538827,0.34381538 0.44454499,0.36929728 0.59874326,0.53656318 0.55431326,0.7632868 0.75424826,0.66201251 0.94830281,0.77635443 0.91759381,0.5470172 1.0815928,0.39085885 0.86270971,0.35034915 Z M 2.6340293,0.31833343 2.5294881,0.52218873 2.3079915,0.54832403 2.4621897,0.71493654 2.4177597,0.94231358 2.6176947,0.84103933 2.8117493,0.95538125 2.7810403,0.72539066 2.9450393,0.56923228 2.7261562,0.52872253 Z M 4.3511179,0.52480227 4.2465767,0.72931092 4.0257337,0.75544632 4.1799316,0.92205883 4.1355018,1.1487826 4.3354369,1.0475083 4.5288381,1.1618502 4.4981291,0.93251295 4.6627814,0.77635457 4.4432452,0.73584489 Z M 8.0381543,0.64045094 7.9336134,0.84495959 7.7121169,0.87044146 7.8663149,1.0377074 7.821885,1.2644311 8.0218198,1.1631568 8.2158746,1.2774987 8.1851655,1.0481616 8.3491647,0.89200317 8.1302816,0.8508401 Z M 5.8401763,0.8599874 5.7349819,1.0644961 5.5141385,1.0906315 5.6683368,1.257244 5.6239067,1.4839677 5.8238418,1.3833468 6.017243,1.4970354 5.9871874,1.2676982 6.1511863,1.1115397 5.9323032,1.0710301 Z M 9.5154522,1.3532911 9.410911,1.5577998 9.1900677,1.5839352 9.344266,1.7505477 9.2998361,1.9772714 9.4997709,1.8759971 9.6931721,1.990339 9.662462,1.7610017 9.8271158,1.6048433 9.6075792,1.5643336 Z M 1.4128577,1.3611317 1.3083165,1.5656404 1.0868198,1.5917757 1.2416714,1.7583882 1.1965881,1.9851119 1.3971765,1.884491 1.5905777,1.9981795 1.5598687,1.7688423 1.7238677,1.6126839 1.5049846,1.5721742 Z M 3.1462811,1.4610992 3.0417399,1.6656079 2.8208966,1.6910898 2.9750949,1.8583557 2.9306649,2.0850794 3.1305999,1.9838051 3.3240011,2.098147 3.2932921,1.8688098 3.4579444,1.7126514 3.238408,1.6721417 Z M 4.7758165,1.7400935 4.6706221,1.9439488 4.4497788,1.9700842 4.6039767,2.1366967 4.5595469,2.3640737 4.759482,2.2627995 4.9535364,2.3771414 4.9228273,2.1478042 5.0868265,1.9909924 4.8679434,1.9504827 Z M 7.4128678,1.8642361 7.3076733,2.0687448 7.0868297,2.0948802 7.2410283,2.2614927 7.1965981,2.4882164 7.3965329,2.3875955 7.5899345,2.501284 7.5598789,2.2719468 7.7238777,2.1157885 7.5049947,2.0752787 Z m 3.6243112,0.2352177 -0.105194,0.2045087 -0.220844,0.026135 0.154199,0.1666124 -0.04443,0.2267237 0.199935,-0.1012742 0.193401,0.1143419 -0.03006,-0.2293373 0.163999,-0.1561584 -0.218883,-0.04051 z M 1.0280154,2.2928549 0.92347426,2.4973637 0.70197769,2.523499 0.85617589,2.6901114 0.81174592,2.9168351 1.0116808,2.8162142 1.2057354,2.9299028 1.1750264,2.7005656 1.3390255,2.5444072 1.1201424,2.5038975 Z M 5.7467427,2.742382 5.6415482,2.9468907 5.4207046,2.9730261 5.5749032,3.1396386 5.5304734,3.366362 5.7304082,3.2650881 5.9238094,3.3794298 5.8937538,3.1500927 6.0577526,2.9939344 5.8388696,2.9534246 Z M 9.2292706,2.9397035 9.1240762,3.1442122 8.9032329,3.1703476 9.0574311,3.3369597 9.013001,3.5636837 9.2129361,3.462409 9.4063373,3.5767512 9.3762818,3.3474138 9.5402809,3.1912559 9.3213979,3.1507461 Z M 7.5977748,3.231112 7.4932339,3.4356204 7.2723905,3.4617582 7.4265885,3.6283708 7.3815055,3.8550942 7.5820938,3.7544734 7.775495,3.8681621 7.7447859,3.6388249 7.9087847,3.4826664 7.689902,3.4421567 Z M 2.9666009,3.235682 2.8614064,3.4401904 2.6405631,3.4663244 2.7947613,3.632937 2.7503313,3.8596604 2.9502663,3.7590397 3.1443208,3.8727283 3.1136118,3.6433911 3.2776108,3.4872326 3.0587277,3.4467226 Z m 7.6777581,0.2341086 -0.104541,0.2045088 -0.221497,0.026134 0.154198,0.1666126 -0.04443,0.2267237 0.200588,-0.1012743 0.193402,0.1143418 -0.03071,-0.2293371 0.163999,-0.1561586 -0.218883,-0.040509 z M 4.3517714,3.5094536 4.2472302,3.7139628 4.0263869,3.7400972 4.1805851,3.9067098 4.1361553,4.1334338 4.3360901,4.0328124 4.5294913,4.146501 4.4987823,3.9171639 4.663435,3.7610054 4.4438984,3.720496 Z M 0.97182456,3.6995872 0.86662998,3.9040957 0.64578677,3.9295772 0.79998501,4.096843 0.755555,4.3235664 0.95549,4.2222924 1.1488911,4.3366342 1.118182,4.1072971 1.2828344,3.9511386 1.0632979,3.9106289 Z m 10.94359144,0.1605344 -0.104542,0.2045085 -0.220843,0.025481 0.154198,0.1672661 -0.04443,0.2267234 0.199935,-0.1012739 0.193401,0.1143418 -0.03071,-0.2293372 0.164653,-0.1561585 -0.219537,-0.04051 z M 6.5850323,4.3287943 6.480491,4.5333028 6.2589945,4.5594405 6.4131924,4.7260531 6.3687626,4.9527765 6.5693509,4.8521557 6.7627521,4.9658444 6.7320431,4.7365072 6.8960422,4.5803487 6.6771592,4.5398394 Z M 9.4721614,5.6100823 9.3676202,5.8145914 9.1461233,5.8400723 9.3003219,6.0073381 9.2558918,6.2340621 9.4564801,6.1327875 9.6498813,6.2471293 9.6191722,6.0177922 9.7831714,5.8616336 9.564288,5.8211243 Z M 8.012505,4.7437994 7.9079638,4.9476551 7.6864673,4.9737928 7.8413191,5.1404054 7.7962354,5.3677827 7.9968237,5.2665081 8.1902249,5.3801967 8.1595159,5.1508595 8.323515,4.994701 8.104633,4.95419 Z M 2.5209942,4.473192 2.416453,4.6777005 2.1956097,4.7038382 2.349808,4.8704505 2.305378,5.0971742 2.505313,4.9958999 2.6987142,5.1102421 2.6680051,4.8809049 2.8326574,4.7247464 2.613121,4.6842364 Z M 5.2861081,4.681621 5.1809137,4.8861294 4.9600703,4.9122672 5.1142686,5.0788798 5.0698385,5.3056032 5.2697736,5.2043292 5.4631748,5.3186707 5.4331192,5.0893339 5.5971181,4.9331754 5.378235,4.8926657 Z M 3.5775132,5.0560087 3.4729723,5.2605175 3.252129,5.2866552 3.4063272,5.4532679 3.3618972,5.6799919 3.5618322,5.5787173 3.7552334,5.6930591 3.7245243,5.4637203 3.889177,5.3075617 3.6696404,5.2670524 Z M 9.3575838,4.2631238 9.2530429,4.4669791 9.0321992,4.4931168 9.1863978,4.6597294 9.1419673,4.8871064 9.3419028,4.7858321 9.535304,4.9001742 9.5045949,4.6708367 9.6692469,4.514025 9.4497107,4.4735154 Z m 1.6671812,0.7954986 -0.104541,0.2038553 -0.220844,0.026138 0.154199,0.1666123 -0.04443,0.2273769 0.199935,-0.101274 0.193401,0.1143418 -0.03071,-0.2293371 0.164652,-0.1568117 -0.219536,-0.04051 z M 0.83984133,5.5342848 0.73464678,5.7381401 0.51380357,5.7642778 0.66800177,5.9308901 0.6235718,6.158267 0.82350676,6.0569931 1.0175613,6.1713349 0.98685224,5.9419977 1.1508512,5.785186 0.93196817,5.744676 Z M 2.4817912,6.3823749 2.37725,6.5868838 2.1564068,6.6123646 2.310605,6.7796304 2.266175,7.0063541 2.46611,6.9050799 2.6595112,7.0194217 2.6288021,6.7900845 2.7934545,6.633926 2.573918,6.5934163 Z m 1.950346,0.00199 L 4.327596,6.5888716 4.106753,6.615006 4.2609512,6.7816186 4.2165211,7.0083427 4.4164559,6.9070681 4.6098571,7.0214102 4.579148,6.7920727 4.7438,6.6359145 4.5242634,6.5954049 Z M 3.5670591,7.3258866 3.4618648,7.5303954 3.2410215,7.5558763 3.3952197,7.7231424 3.3507897,7.9498661 3.5507246,7.8485918 3.7441257,7.9629337 3.7140702,7.7335965 3.878069,7.5774383 3.6591863,7.5369287 Z M 1.0286688,7.4506825 0.92412765,7.6545378 0.70328441,7.6806755 0.85748264,7.8472882 0.81305267,8.0746654 1.0129876,7.9733908 1.2063888,8.0877326 1.1756797,7.8583954 1.3403321,7.7015837 1.1207956,7.6610744 Z M 2.5203407,8.0857703 2.4157996,8.2902791 2.1949563,8.31576 2.3491546,8.4830258 2.3047246,8.7097495 2.5046596,8.6084752 2.6980608,8.7228171 2.6673517,8.4934799 2.832004,8.3373214 2.6124675,8.2968117 Z M 5.5938515,8.5516321 5.4886567,8.7554874 5.2678134,8.7816252 5.4220116,8.9482378 5.3775815,9.1756147 5.5775166,9.0743404 5.7709178,9.188029 5.7408623,8.9586919 5.9048611,8.8025333 5.685978,8.7620237 Z M 3.8538942,8.558164 3.7486994,8.7620193 3.5278561,8.7881571 3.6820544,8.9547693 3.6376243,9.1821466 3.8375597,9.0808723 4.0309606,9.1952141 4.000905,8.965877 4.1649038,8.8090652 3.9460208,8.7685553 Z M 1.9453643,9.4180153 1.8408231,9.6225241 1.6193265,9.648005 1.7735247,9.8152708 1.7290947,10.041995 1.9290297,9.9407202 2.1230843,10.055062 2.0923752,9.8257114 2.2563741,9.6695532 2.037491,9.6290432 Z m 4.0901734,0.9696197 -0.1045412,0.204508 -0.2214965,0.02614 0.1541979,0.166612 -0.04443,0.226724 0.1999351,-0.101274 0.1940544,0.114342 -0.030709,-0.229337 0.1639991,-0.156159 -0.218883,-0.04051 z m -1.9353187,0.3574 -0.1045409,0.203855 -0.2214965,0.02614 0.1548512,0.166612 -0.045083,0.227378 0.2005887,-0.101275 0.1934012,0.114342 -0.030709,-0.229337 0.1639988,-0.156812 -0.2188827,-0.04051 z" />
  <path
     id="rect853-5-6"
     style="display:inline;opacity:0.5;fill:#000000;stroke-width:0.158984;enable-background:new"
     class="ColorScheme-Text"
     d="M 5.1788658,6.6139991 5.4211698,6.353144 14.805372,15.739143 14.563068,16 Z" />
  <metadata
     id="metadata175">
    <rdf:RDF>
      <cc:Work
         rdf:about="">
        <dc:creator>
          <cc:Agent>
            <dc:title>dreifacherspass</dc:title>
          </cc:Agent>
        </dc:creator>
        <cc:license
           rdf:resource="http://creativecommons.org/licenses/by-sa/4.0/" />
      </cc:Work>
      <cc:License
         rdf:about="http://creativecommons.org/licenses/by-sa/4.0/">
        <cc:permits
           rdf:resource="http://creativecommons.org/ns#Reproduction" />
        <cc:permits
           rdf:resource="http://creativecommons.org/ns#Distribution" />
        <cc:requires
           rdf:resource="http://creativecommons.org/ns#Notice" />
        <cc:requires
           rdf:resource="http://creativecommons.org/ns#Attribution" />
        <cc:permits
           rdf:resource="http://creativecommons.org/ns#DerivativeWorks" />
        <cc:requires
           rdf:resource="http://creativecommons.org/ns#ShareAlike" />
      </cc:License>
    </rdf:RDF>
  </metadata>
</svg>
