<?xml version="1.0" encoding="UTF-8" standalone="no"?>
<!-- Created with Inkscape (http://www.inkscape.org/) -->

<svg
   width="16"
   height="16"
   id="svg11300"
   version="1.0"
   style="display:inline;enable-background:new"
   viewBox="0 0 16 16"
   xmlns="http://www.w3.org/2000/svg"
   xmlns:svg="http://www.w3.org/2000/svg"
   xmlns:rdf="http://www.w3.org/1999/02/22-rdf-syntax-ns#"
   xmlns:cc="http://creativecommons.org/ns#"
   xmlns:dc="http://purl.org/dc/elements/1.1/">
   <defs>
      <style id="current-color-scheme" type="text/css">
         .ColorScheme-Text { color: #0abdc6; } .ColorScheme-Highlight { color:#5294e2; }
      </style>
      <linearGradient id="arrongin" x1="0%" x2="0%" y1="0%" y2="100%">
         <stop offset="0%" style="stop-color:#dd9b44; stop-opacity:1"/>
         <stop offset="100%" style="stop-color:#ad6c16; stop-opacity:1"/>
      </linearGradient>
      <linearGradient id="aurora" x1="0%" x2="0%" y1="0%" y2="100%">
         <stop offset="0%" style="stop-color:#09D4DF; stop-opacity:1"/>
         <stop offset="100%" style="stop-color:#9269F4; stop-opacity:1"/>
      </linearGradient>
      <linearGradient id="cyberneon" x1="0%" x2="0%" y1="0%" y2="100%">
         <stop offset="0" style="stop-color:#0abdc6; stop-opacity:1"/>
         <stop offset="1" style="stop-color:#ea00d9; stop-opacity:1"/>
      </linearGradient>
      <linearGradient id="fitdance" x1="0%" x2="0%" y1="0%" y2="100%">
         <stop offset="0%" style="stop-color:#1AD6AB; stop-opacity:1"/>
         <stop offset="100%" style="stop-color:#329DB6; stop-opacity:1"/>
      </linearGradient>
      <linearGradient id="oomox" x1="0%" x2="0%" y1="0%" y2="100%">
         <stop offset="0%" style="stop-color:#0abdc6; stop-opacity:1"/>
         <stop offset="100%" style="stop-color:#b800ff; stop-opacity:1"/>
      </linearGradient>
      <linearGradient id="rainblue" x1="0%" x2="0%" y1="0%" y2="100%">
         <stop offset="0%" style="stop-color:#00F260; stop-opacity:1"/>
         <stop offset="100%" style="stop-color:#0575E6; stop-opacity:1"/>
      </linearGradient>
      <linearGradient id="sunrise" x1="0%" x2="0%" y1="0%" y2="100%">
         <stop offset="0%" style="stop-color: #FF8501; stop-opacity:1"/>
         <stop offset="100%" style="stop-color: #FFCB01; stop-opacity:1"/>
      </linearGradient>
      <linearGradient id="telinkrin" x1="0%" x2="0%" y1="0%" y2="100%">
         <stop offset="0%" style="stop-color: #b2ced6; stop-opacity:1"/>
         <stop offset="100%" style="stop-color: #6da5b7; stop-opacity:1"/>
      </linearGradient>
      <linearGradient id="60spsycho" x1="0%" x2="0%" y1="0%" y2="100%">
         <stop offset="0%" style="stop-color: #df5940; stop-opacity:1"/>
         <stop offset="25%" style="stop-color: #d8d15f; stop-opacity:1"/>
         <stop offset="50%" style="stop-color: #e9882a; stop-opacity:1"/>
         <stop offset="100%" style="stop-color: #279362; stop-opacity:1"/>
      </linearGradient>
      <linearGradient id="90ssummer" x1="0%" x2="0%" y1="0%" y2="100%">
         <stop offset="0%" style="stop-color: #f618c7; stop-opacity:1"/>
         <stop offset="20%" style="stop-color: #94ffab; stop-opacity:1"/>
         <stop offset="50%" style="stop-color: #fbfd54; stop-opacity:1"/>
         <stop offset="100%" style="stop-color: #0f83ae; stop-opacity:1"/>
      </linearGradient>
   </defs>
  <path
     id="path_shank"
     class="ColorScheme-Text"
     style="display:inline;fill:url(#oomox);stroke-width:0.130091;stroke-linejoin:round;-inkscape-stroke:none"
     d="M 7.9999998,0 C 5.944456,0 4.2666666,1.5971708 4.2666665,3.5539449 h 1.0666667 c 0,-1.4080045 1.1875916,-2.5385321 2.6666666,-2.5385321 1.479075,0 2.6666672,1.1305276 2.6666672,2.5385321 h 1.066666 C 11.733333,1.5971708 10.055544,0 7.9999998,0 Z M 4.2666665,3.5539449 H 5.3333332 V 5.5847705 H 4.2666665 Z m 6.4000005,0 h 1.066666 v 2.0308256 h -1.066666 z" />
  <path
     id="path_circle"
     class="ColorScheme-Text"
     style="display:inline;vector-effect:none;fill:url(#oomox);stroke-width:0.266667;stroke-linejoin:round;enable-background:new"
     d="m 7.9999998,4.2666667 a 5.6,5.6 0 0 0 -5.6,5.6 5.6,5.6 0 0 0 5.6,5.6000003 5.6,5.6 0 0 0 5.5999992,-5.6000003 5.6,5.6 0 0 0 -5.5999992,-5.6 z m 0,0.5333333 A 5.0666667,5.0666667 0 0 1 13.066666,9.8666667 5.0666667,5.0666667 0 0 1 7.9999998,14.933333 5.0666667,5.0666667 0 0 1 2.9333332,9.8666667 5.0666667,5.0666667 0 0 1 7.9999998,4.8 Z m 0,-1.0666667 A 6.1333333,6.1333333 0 0 0 1.8666665,9.8666667 6.1333333,6.1333333 0 0 0 7.9999998,16 6.1333333,6.1333333 0 0 0 14.133333,9.8666667 6.1333333,6.1333333 0 0 0 7.9999998,3.7333333 Z m 0,1.0666667 A 5.0666667,5.0666667 0 0 1 13.066666,9.8666667 5.0666667,5.0666667 0 0 1 7.9999998,14.933333 5.0666667,5.0666667 0 0 1 2.9333332,9.8666667 5.0666667,5.0666667 0 0 1 7.9999998,4.8 Z" />
  <path
     d="m 7.9999998,6.9333333 -0.8,1.6 h 1.6 z"
     style="display:inline;fill:url(#oomox);fill-rule:evenodd;stroke:none;stroke-width:0.0333243px;enable-background:new"
     id="path_pointer"
     class="ColorScheme-Text"/>
  <circle
     id="path_disc"
     class="ColorScheme-Text"
     style="display:inline;fill:url(#oomox);stroke-width:0;enable-background:new"
     r="1.6"
     cy="9.8666668"
     cx="7.9999995" />
  <path
     id="path43"
     style="display:inline;fill:url(#oomox);stroke:url(#oomox);stroke-width:0.266667;stroke-linecap:butt;stroke-linejoin:miter;stroke-miterlimit:4;stroke-dasharray:none;stroke-opacity:1;enable-background:new"
     d="m 7.9999998,5.3333333 v 0.8 z M 4.794531,6.6611979 5.3601561,7.2268229 Z m 6.410938,0 -0.565625,0.565625 z M 3.4666665,9.8666667 h 0.8 z m 8.2666665,0 h 0.8 z M 5.3601561,12.50651 4.794531,13.072136 Z m 5.2796879,0 0.565625,0.565626 z M 7.9999998,13.6 v 0.8 z" />
  <metadata
     id="metadata1">
    <rdf:RDF>
      <cc:Work
         rdf:about="">
        <dc:creator>
          <cc:Agent>
            <dc:title>dreiracherspass</dc:title>
          </cc:Agent>
        </dc:creator>
        <cc:license
           rdf:resource="http://creativecommons.org/licenses/by-sa/4.0/" />
      </cc:Work>
      <cc:License
         rdf:about="http://creativecommons.org/licenses/by-sa/4.0/">
        <cc:permits
           rdf:resource="http://creativecommons.org/ns#Reproduction" />
        <cc:permits
           rdf:resource="http://creativecommons.org/ns#Distribution" />
        <cc:requires
           rdf:resource="http://creativecommons.org/ns#Notice" />
        <cc:requires
           rdf:resource="http://creativecommons.org/ns#Attribution" />
        <cc:permits
           rdf:resource="http://creativecommons.org/ns#DerivativeWorks" />
        <cc:requires
           rdf:resource="http://creativecommons.org/ns#ShareAlike" />
      </cc:License>
    </rdf:RDF>
  </metadata>
</svg>
