<?xml version="1.0" encoding="UTF-8" standalone="no"?>
<svg
   width="16"
   height="16"
   version="1.1"
   id="svg5029"
   xmlns="http://www.w3.org/2000/svg"
   xmlns:svg="http://www.w3.org/2000/svg"
   xmlns:rdf="http://www.w3.org/1999/02/22-rdf-syntax-ns#"
   xmlns:cc="http://creativecommons.org/ns#"
   xmlns:dc="http://purl.org/dc/elements/1.1/">
   <defs>
      <style id="current-color-scheme" type="text/css">
         .ColorScheme-Text { color: #0abdc6; } .ColorScheme-Highlight { color:#5294e2; }
      </style>
      <linearGradient id="arrongin" x1="0%" x2="0%" y1="0%" y2="100%">
         <stop offset="0%" style="stop-color:#dd9b44; stop-opacity:1"/>
         <stop offset="100%" style="stop-color:#ad6c16; stop-opacity:1"/>
      </linearGradient>
      <linearGradient id="aurora" x1="0%" x2="0%" y1="0%" y2="100%">
         <stop offset="0%" style="stop-color:#09D4DF; stop-opacity:1"/>
         <stop offset="100%" style="stop-color:#9269F4; stop-opacity:1"/>
      </linearGradient>
      <linearGradient id="cyberneon" x1="0%" x2="0%" y1="0%" y2="100%">
         <stop offset="0" style="stop-color:#0abdc6; stop-opacity:1"/>
         <stop offset="1" style="stop-color:#ea00d9; stop-opacity:1"/>
      </linearGradient>
      <linearGradient id="fitdance" x1="0%" x2="0%" y1="0%" y2="100%">
         <stop offset="0%" style="stop-color:#1AD6AB; stop-opacity:1"/>
         <stop offset="100%" style="stop-color:#329DB6; stop-opacity:1"/>
      </linearGradient>
      <linearGradient id="oomox" x1="0%" x2="0%" y1="0%" y2="100%">
         <stop offset="0%" style="stop-color:#0abdc6; stop-opacity:1"/>
         <stop offset="100%" style="stop-color:#b800ff; stop-opacity:1"/>
      </linearGradient>
      <linearGradient id="rainblue" x1="0%" x2="0%" y1="0%" y2="100%">
         <stop offset="0%" style="stop-color:#00F260; stop-opacity:1"/>
         <stop offset="100%" style="stop-color:#0575E6; stop-opacity:1"/>
      </linearGradient>
      <linearGradient id="sunrise" x1="0%" x2="0%" y1="0%" y2="100%">
         <stop offset="0%" style="stop-color: #FF8501; stop-opacity:1"/>
         <stop offset="100%" style="stop-color: #FFCB01; stop-opacity:1"/>
      </linearGradient>
      <linearGradient id="telinkrin" x1="0%" x2="0%" y1="0%" y2="100%">
         <stop offset="0%" style="stop-color: #b2ced6; stop-opacity:1"/>
         <stop offset="100%" style="stop-color: #6da5b7; stop-opacity:1"/>
      </linearGradient>
      <linearGradient id="60spsycho" x1="0%" x2="0%" y1="0%" y2="100%">
         <stop offset="0%" style="stop-color: #df5940; stop-opacity:1"/>
         <stop offset="25%" style="stop-color: #d8d15f; stop-opacity:1"/>
         <stop offset="50%" style="stop-color: #e9882a; stop-opacity:1"/>
         <stop offset="100%" style="stop-color: #279362; stop-opacity:1"/>
      </linearGradient>
      <linearGradient id="90ssummer" x1="0%" x2="0%" y1="0%" y2="100%">
         <stop offset="0%" style="stop-color: #f618c7; stop-opacity:1"/>
         <stop offset="20%" style="stop-color: #94ffab; stop-opacity:1"/>
         <stop offset="50%" style="stop-color: #fbfd54; stop-opacity:1"/>
         <stop offset="100%" style="stop-color: #0f83ae; stop-opacity:1"/>
      </linearGradient>
   </defs>
  <path
     id="path123"
     class="ColorScheme-Text"
     d="m 10.925987,7.7373995 a 1.047579,1.0653345 0 0 0 -1.0476976,1.0648977 1.047579,1.0653345 0 0 0 2.0948466,0 1.0470175,1.0647636 0 0 0 -1.047149,-1.0648977 z M 9.0816885,9.7735278 C 8.6496889,9.7651091 8.526816,10.370647 8.9265351,10.537355 l 1.0076753,0.40533 v 2.040031 c -0.0073,0.536948 0.7878596,0.536948 0.7807016,0 v -0.566458 c 0,-0.257485 0.397478,-0.246352 0.397478,0 v 0.541927 c -0.0072,0.536378 0.770877,0.536378 0.763158,0 v -1.164139 l 0.169408,0.298282 c 0.25993,0.458162 0.93579,0.06134 0.675439,-0.396967 L 11.97807,10.387377 A 0.39185964,0.39850134 0 0 0 11.639803,10.188894 H 10.185307 L 9.2330043,9.807538 A 0.38007016,0.38651203 0 0 0 9.0816885,9.7735261 Z"
     style="fill:url(#oomox);fill-opacity:1;stroke:none;stroke-width:0.141535" />
  <path
     id="path124"
     class="ColorScheme-Text"
     d="m 6.4259649,2.5729884 a 1.3076491,1.3298127 0 0 0 0,2.6593398 1.3076491,1.3298127 0 0 0 0,-2.6593398 z M 5.648,5.752578 c -0.1386666,0 -0.2718597,0.055665 -0.3701052,0.1555752 L 2.9824561,8.312578 C 2.4693333,8.8138448 3.229193,9.5865835 3.7221052,9.0647636 L 5.2565614,7.5041569 5.1250526,7.6597324 v 5.1662446 c -0.00982,0.719215 1.0475789,0.719215 1.0377545,0 v -2.561285 c 0,-0.4147723 0.5246315,-0.4147723 0.5246315,0 v 2.561285 c -0.00982,0.719357 1.0505263,0.719357 1.0405614,0 V 8.8609457 L 8.2286315,9.9491169 C 8.5121403,10.595825 9.4665263,10.164353 9.1847016,9.517074 L 7.6540351,6.0681535 A 0.52336841,0.53223905 0 0 0 7.176,5.752578 Z"
     style="fill:url(#oomox);fill-opacity:1;stroke:none;stroke-width:0.141535" />
  <circle
     style="display:inline;fill:none;stroke:url(#oomox);stroke-width:0.999999;stroke-linecap:square;stroke-dasharray:none"
     id="path25"
     class="ColorScheme-Text"
     cx="8.0001135"
     cy="8.0001135"
     r="7.5001144" />
  <metadata
     id="metadata6297">
    <rdf:RDF>
      <cc:Work
         rdf:about="">
        <dc:creator>
          <cc:Agent>
            <dc:title>dreifacherspass</dc:title>
          </cc:Agent>
        </dc:creator>
        <cc:license
           rdf:resource="http://creativecommons.org/licenses/by-sa/4.0/" />
      </cc:Work>
      <cc:License
         rdf:about="http://creativecommons.org/licenses/by-sa/4.0/">
        <cc:permits
           rdf:resource="http://creativecommons.org/ns#Reproduction" />
        <cc:permits
           rdf:resource="http://creativecommons.org/ns#Distribution" />
        <cc:requires
           rdf:resource="http://creativecommons.org/ns#Notice" />
        <cc:requires
           rdf:resource="http://creativecommons.org/ns#Attribution" />
        <cc:permits
           rdf:resource="http://creativecommons.org/ns#DerivativeWorks" />
        <cc:requires
           rdf:resource="http://creativecommons.org/ns#ShareAlike" />
      </cc:License>
    </rdf:RDF>
  </metadata>
</svg>
