<?xml version="1.0" encoding="UTF-8" standalone="no"?>
<svg
   width="16"
   height="16"
   viewBox="0 0 16 16"
   version="1.1"
   id="svg77"
   xmlns:xlink="http://www.w3.org/1999/xlink"
   xmlns="http://www.w3.org/2000/svg"
   xmlns:svg="http://www.w3.org/2000/svg"
   xmlns:rdf="http://www.w3.org/1999/02/22-rdf-syntax-ns#"
   xmlns:cc="http://creativecommons.org/ns#"
   xmlns:dc="http://purl.org/dc/elements/1.1/">
  <defs>
   <style id="current-color-scheme" type="text/css">
   .ColorScheme-Text { color: #0abdc6; } .ColorScheme-Highlight { color:#5294e2; }
  </style>
  <linearGradient id="arrongin" x1="0%" x2="0%" y1="0%" y2="100%">
   <stop offset="0%" style="stop-color:#dd9b44; stop-opacity:1"/>
   <stop offset="100%" style="stop-color:#ad6c16; stop-opacity:1"/>
  </linearGradient>
  <linearGradient id="aurora" x1="0%" x2="0%" y1="0%" y2="100%">
   <stop offset="0%" style="stop-color:#09D4DF; stop-opacity:1"/>
   <stop offset="100%" style="stop-color:#9269F4; stop-opacity:1"/>
  </linearGradient>
  <linearGradient id="cyberneon" x1="0%" x2="0%" y1="0%" y2="100%">
    <stop offset="0" style="stop-color:#0abdc6; stop-opacity:1"/>
    <stop offset="1" style="stop-color:#ea00d9; stop-opacity:1"/>
  </linearGradient>
  <linearGradient id="fitdance" x1="0%" x2="0%" y1="0%" y2="100%">
   <stop offset="0%" style="stop-color:#1AD6AB; stop-opacity:1"/>
   <stop offset="100%" style="stop-color:#329DB6; stop-opacity:1"/>
  </linearGradient>
  <linearGradient id="oomox" x1="0%" x2="0%" y1="0%" y2="100%">
   <stop offset="0%" style="stop-color:#0abdc6; stop-opacity:1"/>
   <stop offset="100%" style="stop-color:#b800ff; stop-opacity:1"/>
  </linearGradient>
  <linearGradient id="rainblue" x1="0%" x2="0%" y1="0%" y2="100%">
   <stop offset="0%" style="stop-color:#00F260; stop-opacity:1"/>
   <stop offset="100%" style="stop-color:#0575E6; stop-opacity:1"/>
  </linearGradient>
  <linearGradient id="sunrise" x1="0%" x2="0%" y1="0%" y2="100%">
   <stop offset="0%" style="stop-color: #FF8501; stop-opacity:1"/>
   <stop offset="100%" style="stop-color: #FFCB01; stop-opacity:1"/>
  </linearGradient>
  <linearGradient id="telinkrin" x1="0%" x2="0%" y1="0%" y2="100%">
   <stop offset="0%" style="stop-color: #b2ced6; stop-opacity:1"/>
   <stop offset="100%" style="stop-color: #6da5b7; stop-opacity:1"/>
  </linearGradient>
  <linearGradient id="60spsycho" x1="0%" x2="0%" y1="0%" y2="100%">
   <stop offset="0%" style="stop-color: #df5940; stop-opacity:1"/>
   <stop offset="25%" style="stop-color: #d8d15f; stop-opacity:1"/>
   <stop offset="50%" style="stop-color: #e9882a; stop-opacity:1"/>
   <stop offset="100%" style="stop-color: #279362; stop-opacity:1"/>
  </linearGradient>
  <linearGradient id="90ssummer" x1="0%" x2="0%" y1="0%" y2="100%">
   <stop offset="0%" style="stop-color: #f618c7; stop-opacity:1"/>
   <stop offset="20%" style="stop-color: #94ffab; stop-opacity:1"/>
   <stop offset="50%" style="stop-color: #fbfd54; stop-opacity:1"/>
   <stop offset="100%" style="stop-color: #0f83ae; stop-opacity:1"/>
  </linearGradient>
 </defs>
  <path
     style="display:inline;fill:url(#oomox);fill-opacity:1;fill-rule:evenodd;stroke:none;stroke-width:0.150539"
     d="M 3.242106,5.5629381 C 2.5940806,5.5482351 1.9666369,5.7952158 1.5026693,6.2480099 1.0387021,6.7013925 0.77702218,7.3223679 0.77702218,7.9709815 v 5.5623155 c 0,0.860898 0.45926302,1.655934 1.20431572,2.086383 0.7450528,0.429861 1.6635789,0.429861 2.4086313,0 l 4.817263,-2.781451 c 0.7450531,-0.430449 1.2043158,-1.225486 1.2043158,-2.085795 0,-0.8608983 -0.4592627,-1.6559349 -1.2043158,-2.0863838 L 4.3899692,5.8851865 C 4.040671,5.6834872 3.6460926,5.5729348 3.242106,5.5629381 Z m 0,0"
     id="path64"
     class="ColorScheme-Text" />
  <path
     style="fill:url(#oomox);fill-opacity:1;fill-rule:evenodd;stroke:none;stroke-width:0.150539"
     d="M 3.242106,6.2207169e-4 C 2.5940806,-0.01407902 1.9666369,0.2323118 1.5026693,0.68569439 1.0387021,1.1390769 0.77716128,1.7600523 0.77715358,2.4086657 L 0.77702218,13.533297 H 5.5942852 V 6.5802556 L 11.615865,10.056777 14.024496,5.8851865 4.3899692,0.3228706 C 4.040671,0.12117137 3.6460926,0.01061878 3.242106,6.2207169e-4 Z"
     id="path66"
     class="ColorScheme-Text" />
  <path
     style="fill:url(#oomox);fill-opacity:1;fill-rule:evenodd;stroke:none;stroke-width:0.150539"
     d="M 8.0593689,2.7820741 C 7.4113435,2.7667848 6.7838998,3.0137637 6.3199323,3.4671463 5.8559649,3.9199407 5.5942852,4.5415043 5.5942852,5.1895296 v 5.5629044 c 0,0.860309 0.4592626,1.655346 1.2043157,2.085795 0.7456409,0.429861 1.6635788,0.429861 2.4086313,0 l 4.8172638,-2.781452 c 0.745053,-0.4298616 1.204316,-1.2248981 1.204316,-2.0857955 0,-0.8603095 -0.459263,-1.6553461 -1.204316,-2.085795 L 9.2072322,3.1037347 C 8.8579339,2.9020353 8.4633555,2.7914829 8.0593689,2.7820741 Z m 0,0"
     id="path68"
     class="ColorScheme-Text" />
  <path
     style="opacity:0.7;fill:url(#oomox);fill-opacity:1;fill-rule:evenodd;stroke:none;stroke-width:0.150539"
     d="m 0.77715358,3.715682 c 0,0.548909 -0.013422,3.2005323 0,4.3133731 l 0.067092,5.5627559 c 0.010375,0.860246 0.45926252,1.655345 1.20431542,2.085794 0.7456381,0.42986 1.6635752,0.42986 2.4086291,0 l 4.8172546,-2.78145 C 10.0195,12.466295 10.47876,11.671259 10.47876,10.810364 10.47876,9.9500545 10.0195,9.1550185 9.2744447,8.7245707 L 4.4571901,5.943122 C 4.1078897,5.7414228 1.1811402,3.725091 0.77715358,3.715682 Z"
     id="path68-7"
     class="ColorScheme-Text" />
  <path
     style="fill:url(#oomox);fill-opacity:1;fill-rule:evenodd;stroke:none;stroke-width:0.150539"
     d="M 9.1490157,12.860573 C 10.776725,11.928523 12.39914,10.985299 14.024496,10.049132 15.08533,9.4622632 15.538711,8.0268455 14.998886,6.9395506 14.751907,6.3762038 14.255598,5.9833903 13.723417,5.7028925 12.437952,5.1983503 10.785545,5.9757452 10.48623,7.3752922 c -0.08703,0.1881741 -0.07644,0.385169 -0.07469,0.5956893 -0.007,1.0043805 0.0147,2.0099369 -0.01235,3.0137295 -0.07351,0.782099 -0.5568787,1.506571 -1.2501833,1.875862 z m 0,0"
     id="path72"
     class="ColorScheme-Text" />
  <path
     style="fill:url(#oomox);fill-opacity:1;fill-rule:evenodd;stroke:none;stroke-width:0.150539"
     d="m 0.77996238,7.9057085 c -0.00705,1.8758629 -0.00118,3.7517265 -0.00294,5.6275885 -0.0223458,1.212549 0.99379562,2.322778 2.20575622,2.398634 0.6115665,0.06821 1.1996112,-0.165239 1.7082699,-0.486312 C 5.7712904,14.584721 5.9241822,12.765311 4.8615851,11.806797 4.7422093,11.636265 4.5657957,11.54747 4.3829138,11.443386 3.5167229,10.935315 2.6352438,10.451354 1.7790505,9.9262302 1.1392577,9.4710835 0.75291238,8.6907483 0.77996238,7.9057085 Z m 0,0"
     id="path74"
     class="ColorScheme-Text" />
  <metadata
     id="metadata1184">
    <rdf:RDF>
      <cc:Work
         rdf:about="">
        <dc:contributor>
          <cc:Agent>
            <dc:title>dreifacherspass</dc:title>
          </cc:Agent>
        </dc:contributor>
        <cc:license
           rdf:resource="http://creativecommons.org/licenses/by-sa/4.0/" />
      </cc:Work>
      <cc:License
         rdf:about="http://creativecommons.org/licenses/by-sa/4.0/">
        <cc:permits
           rdf:resource="http://creativecommons.org/ns#Reproduction" />
        <cc:permits
           rdf:resource="http://creativecommons.org/ns#Distribution" />
        <cc:requires
           rdf:resource="http://creativecommons.org/ns#Notice" />
        <cc:requires
           rdf:resource="http://creativecommons.org/ns#Attribution" />
        <cc:permits
           rdf:resource="http://creativecommons.org/ns#DerivativeWorks" />
        <cc:requires
           rdf:resource="http://creativecommons.org/ns#ShareAlike" />
      </cc:License>
    </rdf:RDF>
  </metadata>
</svg>
