<?xml version="1.0" encoding="UTF-8" standalone="no"?>
<svg
   width="16"
   height="16"
   viewBox="0 0 16 16"
   version="1.1"
   id="svg4"
   xmlns:xlink="http://www.w3.org/1999/xlink"
   xmlns="http://www.w3.org/2000/svg"
   xmlns:svg="http://www.w3.org/2000/svg"
   xmlns:rdf="http://www.w3.org/1999/02/22-rdf-syntax-ns#"
   xmlns:cc="http://creativecommons.org/ns#"
   xmlns:dc="http://purl.org/dc/elements/1.1/">
<defs>
   <style id="current-color-scheme" type="text/css">
   .ColorScheme-Text { color: #0abdc6; } .ColorScheme-Highlight { color:#5294e2; }
  </style>
  <linearGradient id="arrongin" x1="0%" x2="0%" y1="0%" y2="100%">
   <stop offset="0%" style="stop-color:#dd9b44; stop-opacity:1"/>
   <stop offset="100%" style="stop-color:#ad6c16; stop-opacity:1"/>
  </linearGradient>
  <linearGradient id="aurora" x1="0%" x2="0%" y1="0%" y2="100%">
   <stop offset="0%" style="stop-color:#09D4DF; stop-opacity:1"/>
   <stop offset="100%" style="stop-color:#9269F4; stop-opacity:1"/>
  </linearGradient>
  <linearGradient id="cyberneon" x1="0%" x2="0%" y1="0%" y2="100%">
    <stop offset="0" style="stop-color:#0abdc6; stop-opacity:1"/>
    <stop offset="1" style="stop-color:#ea00d9; stop-opacity:1"/>
  </linearGradient>
  <linearGradient id="fitdance" x1="0%" x2="0%" y1="0%" y2="100%">
   <stop offset="0%" style="stop-color:#1AD6AB; stop-opacity:1"/>
   <stop offset="100%" style="stop-color:#329DB6; stop-opacity:1"/>
  </linearGradient>
  <linearGradient id="oomox" x1="0%" x2="0%" y1="0%" y2="100%">
   <stop offset="0%" style="stop-color:#0abdc6; stop-opacity:1"/>
   <stop offset="100%" style="stop-color:#b800ff; stop-opacity:1"/>
  </linearGradient>
  <linearGradient id="rainblue" x1="0%" x2="0%" y1="0%" y2="100%">
   <stop offset="0%" style="stop-color:#00F260; stop-opacity:1"/>
   <stop offset="100%" style="stop-color:#0575E6; stop-opacity:1"/>
  </linearGradient>
  <linearGradient id="sunrise" x1="0%" x2="0%" y1="0%" y2="100%">
   <stop offset="0%" style="stop-color: #FF8501; stop-opacity:1"/>
   <stop offset="100%" style="stop-color: #FFCB01; stop-opacity:1"/>
  </linearGradient>
  <linearGradient id="telinkrin" x1="0%" x2="0%" y1="0%" y2="100%">
   <stop offset="0%" style="stop-color: #b2ced6; stop-opacity:1"/>
   <stop offset="100%" style="stop-color: #6da5b7; stop-opacity:1"/>
  </linearGradient>
  <linearGradient id="60spsycho" x1="0%" x2="0%" y1="0%" y2="100%">
   <stop offset="0%" style="stop-color: #df5940; stop-opacity:1"/>
   <stop offset="25%" style="stop-color: #d8d15f; stop-opacity:1"/>
   <stop offset="50%" style="stop-color: #e9882a; stop-opacity:1"/>
   <stop offset="100%" style="stop-color: #279362; stop-opacity:1"/>
  </linearGradient>
  <linearGradient id="90ssummer" x1="0%" x2="0%" y1="0%" y2="100%">
   <stop offset="0%" style="stop-color: #f618c7; stop-opacity:1"/>
   <stop offset="20%" style="stop-color: #94ffab; stop-opacity:1"/>
   <stop offset="50%" style="stop-color: #fbfd54; stop-opacity:1"/>
   <stop offset="100%" style="stop-color: #0f83ae; stop-opacity:1"/>
  </linearGradient>
    <linearGradient
       id="linearGradient2284"
       gradientTransform="matrix(1.6440072,0,0,0.60826983,-38.207552,-69.729474)"
       x1="0"
       y1="132.57439"
       x2="77.858536"
       y2="132.57439"
       gradientUnits="userSpaceOnUse">
      <stop
         style="stop-color:#41ff00;stop-opacity:1;"
         offset="0"
         id="stop2280" />
      <stop
         style="stop-color:#e7ff00;stop-opacity:1;"
         offset="1"
         id="stop2282" />
    </linearGradient>
  </defs>
  <path
     id="path9"
     class="ColorScheme-Text"
     style="fill:url(#oomox);fill-opacity:1;stroke-width:0.0340356"
     d="m 8,12.033203 c -0.2757061,0 -0.6753852,0.0044 -0.9732166,0.0625 -0.1489156,0.02904 -0.2695054,0.07429 -0.3244054,0.111328 -0.054866,0.03707 -0.046058,0.02888 -0.046058,0.0625 0,0.03361 0.047763,0.224179 0.1501875,0.431641 0.1023906,0.207462 0.2499525,0.447939 0.4125156,0.669922 0.1625626,0.221983 0.34216,0.426403 0.4986233,0.564453 0.1404375,0.123933 0.2696356,0.171083 0.2823529,0.179687 0.01275,-0.0086 0.14195,-0.05575 0.282353,-0.179687 0.1564617,-0.13805 0.3360605,-0.34247 0.4986233,-0.564453 0.1625625,-0.222017 0.3100908,-0.46246 0.4125156,-0.669922 0.1023906,-0.207462 0.1501875,-0.398027 0.1501875,-0.431641 0,-0.03361 0.00883,-0.02543 -0.046058,-0.0625 -0.0549,-0.03704 -0.1754892,-0.08229 -0.3244045,-0.111328 C 8.6753861,12.037619 8.2757055,12.033203 8,12.033203 Z M 7.5994994,14.609375 7.2770964,16 H 8.7108886 L 8.3984981,14.611328 C 8.2817716,14.678386 8.1533264,14.722656 8,14.722656 c -0.1548094,0 -0.282877,-0.04504 -0.4005006,-0.113281 z" />
  <path
     id="path6"
     class="ColorScheme-Text"
     style="fill:url(#oomox);fill-opacity:1;stroke-width:0.0340356"
     d="M 3.9128911,8.34375 C 2.2782319,8.7884555 1.251118,9.4274434 0,10.396484 c 1.4672714,0.149311 2.3262302,0.715678 3.490363,1.636719 l 0.5827284,0.462891 -0.7469337,0.07422 c -0.4708708,0.04682 -0.9816308,0.288381 -1.3556946,0.580078 -0.2041947,0.15926 -0.3507851,0.339972 -0.4465583,0.484375 1.5398163,0.197109 2.5322199,0.337596 3.3782229,0.675781 0.641119,0.256269 1.2000296,0.635361 1.8523154,1.203125 l 0.1822277,-0.79297 C 6.8733275,14.39351 6.7949766,14.053242 6.7003755,13.703125 6.5239241,13.4601 6.3662936,13.202924 6.2478097,12.962891 c -0.12162,-0.246319 -0.2122653,-0.458066 -0.2122653,-0.69336 0,-0.110353 0.032687,-0.214641 0.084105,-0.30664 A 16.556627,16.14837 0 0 0 5.8793492,11.394531 C 4.8770556,10.739137 4.1496189,9.6357153 3.9128911,8.34375 Z m 8.1742179,0 c -0.236762,1.2919653 -0.964164,2.395387 -1.966458,3.050781 a 16.560314,16.151967 0 0 0 -0.2403005,0.566407 c 0.051455,0.092 0.084105,0.198207 0.084105,0.308593 0,0.235294 -0.09068,0.447041 -0.2122654,0.69336 -0.1185523,0.240067 -0.2760789,0.497209 -0.4525653,0.740234 -0.095738,0.354521 -0.1745417,0.700292 -0.2382978,1.03125 l 0.1762202,0.787109 c 0.655835,-0.571764 1.2165188,-0.953593 1.8603248,-1.210937 0.846004,-0.338151 1.838372,-0.478672 3.378223,-0.675781 -0.09581,-0.144437 -0.242364,-0.323196 -0.446558,-0.482422 -0.374064,-0.291731 -0.884824,-0.535242 -1.355695,-0.582031 l -0.746933,-0.07422 0.582728,-0.462891 C 13.67377,11.112195 14.532728,10.545795 16,10.396484 14.748882,9.4274434 13.72177,8.7884889 12.087109,8.34375 Z" />
  <path
     id="path4"
     class="ColorScheme-Text"
     style="fill:url(#oomox);fill-opacity:1;stroke-width:0.0340356"
     d="M 4.4515645,7.5390625 C 4.5039145,9.7193964 6.0921164,11.427734 8,11.427734 c 1.907882,0 3.496121,-1.7083376 3.548435,-3.8886715 a 25.794086,25.15805 0 0 1 -0.66483,0.068359 c -0.04584,0.1765376 -0.237675,0.8485948 -0.540676,1.03125 -0.4690445,0.2827561 -1.1717902,0.2607054 -1.6540679,0 C 8.4136381,8.4898992 8.1763297,7.9931912 8.0660827,7.7304687 c -0.022333,6.75e-5 -0.043717,0 -0.066083,0 -0.022405,0 -0.043747,6.75e-5 -0.066083,0 -0.1102812,0.2627225 -0.3475548,0.7594305 -0.6227784,0.9082032 -0.4822789,0.2607054 -1.1850239,0.2827561 -1.6540675,0 C 5.3540697,8.4560167 5.1622317,7.7839595 5.1163955,7.6074219 a 25.794086,25.15805 0 0 1 -0.664831,-0.068359 z" />
  <path
     id="path3"
     class="ColorScheme-Text"
     style="fill:url(#oomox);fill-opacity:1;stroke-width:0.0340356"
     d="M 6.690363,0 C 6.6559014,0 6.5946236,0.01655781 6.5001252,0.10351562 6.4056272,0.19054066 6.293495,0.34029595 6.1837297,0.53320312 5.9641992,0.91901752 5.7520748,1.4760916 5.5749687,2.0683594 5.4257434,2.5673164 5.3017683,3.0909786 5.2085106,3.5664063 c 1.8731085,0.8073596 3.7098705,0.8073596 5.5829784,0 C 10.698232,3.0909786 10.574257,2.5673164 10.425031,2.0683594 10.247925,1.4760916 10.035835,0.91901752 9.8162703,0.53320312 9.706505,0.34029595 9.5943378,0.19054066 9.4998748,0.10351562 9.4053769,0.01655781 9.3441002,0 9.309637,0 9.0856264,0 8.9967931,0.04612342 8.9371714,0.09570312 8.8775495,0.14524927 8.8330964,0.22314166 8.7869839,0.34179688 8.740873,0.46045203 8.7034058,0.6115183 8.5947436,0.77148437 8.4860478,0.9313832 8.2538897,1.0761719 8,1.0761719 7.7438352,1.0761719 7.5100478,0.93454641 7.3992491,0.7734375 7.2884841,0.61229494 7.2523634,0.4590368 7.2070088,0.33984375 7.1616555,0.22065072 7.1166875,0.14242217 7.0588236,0.09375 7.0009258,0.04514505 6.9143742,0 6.690363,0 Z M 5.1003755,4.1796875 c -0.048594,0.3118653 -0.078667,0.5768414 -0.088111,0.7597656 0.2278019,0.1709916 0.610675,0.3365099 1.0933667,0.4472656 0.555513,0.1274954 1.225781,0.1933594 1.894368,0.1933594 0.668586,0 1.3388213,-0.065862 1.894368,-0.1933594 0.4826578,-0.1107557 0.8654968,-0.276274 1.0933678,-0.4472656 -0.0095,-0.1829578 -0.03955,-0.4479003 -0.08811,-0.7597656 -1.9215655,0.7842681 -3.8777191,0.7842681 -5.7992495,0 z M 4.4135169,4.5742187 C 3.751617,4.6871597 3.1495355,4.8221548 2.6252816,4.9648437 1.940188,5.1513306 1.3879648,5.3526478 1.0212766,5.5234375 0.83793248,5.6088828 0.69997961,5.6885103 0.62478097,5.7441406 c -0.01275,0.00941 -0.009197,0.00952 -0.01602,0.017578 0.0114766,0.022755 0.0287134,0.049599 0.0600752,0.083984 0.0679958,0.074488 0.19197091,0.1672617 0.36645793,0.2597656 0.3490084,0.1850068 0.8942539,0.3686108 1.5759701,0.5214844 1.3634321,0.3057138 3.276246,0.5 5.3887359,0.5 2.1124879,0 4.0253039,-0.1942862 5.3887359,-0.5 0.681682,-0.1528731 1.226961,-0.3364767 1.57597,-0.5214844 0.174487,-0.092504 0.298427,-0.1852784 0.366458,-0.2597656 0.03136,-0.034389 0.0486,-0.061228 0.06008,-0.083984 -0.0068,-0.00806 -0.0033,-0.00813 -0.01602,-0.017578 C 15.300014,5.6885487 15.162068,5.6088489 14.978723,5.5234375 14.612035,5.3526139 14.059812,5.151297 13.374718,4.9648437 12.850464,4.8221213 12.248383,4.6871261 11.586483,4.5742187 c 0.02095,0.1945208 0.03204,0.3663568 0.03204,0.5019532 v 0.125 l -0.09011,0.087891 C 11.179609,5.6292966 10.650745,5.8331644 10.034543,5.9746094 9.4183078,6.1160208 8.7099408,6.1855469 8,6.1855469 7.2900581,6.1855469 6.581658,6.1160208 5.9654569,5.9746094 5.3492195,5.8331644 4.8203914,5.6292969 4.4715895,5.2890625 l -0.090113,-0.087891 v -0.125 c 0,-0.1355969 0.011094,-0.3074327 0.03204,-0.5019528 z" />
  <metadata
     id="metadata237">
    <rdf:RDF>
      <cc:Work
         rdf:about="">
        <dc:creator>
          <cc:Agent>
            <dc:title>https://delapouite.com/</dc:title>
          </cc:Agent>
        </dc:creator>
        <dc:contributor>
          <cc:Agent>
            <dc:title>dreifacuerspass </dc:title>
          </cc:Agent>
        </dc:contributor>
        <cc:license
           rdf:resource="http://creativecommons.org/licenses/by-sa/4.0/" />
      </cc:Work>
      <cc:License
         rdf:about="http://creativecommons.org/licenses/by-sa/4.0/">
        <cc:permits
           rdf:resource="http://creativecommons.org/ns#Reproduction" />
        <cc:permits
           rdf:resource="http://creativecommons.org/ns#Distribution" />
        <cc:requires
           rdf:resource="http://creativecommons.org/ns#Notice" />
        <cc:requires
           rdf:resource="http://creativecommons.org/ns#Attribution" />
        <cc:permits
           rdf:resource="http://creativecommons.org/ns#DerivativeWorks" />
        <cc:requires
           rdf:resource="http://creativecommons.org/ns#ShareAlike" />
      </cc:License>
    </rdf:RDF>
  </metadata>
    <g
     id="g1840"
     transform="matrix(0.12499902,0,0,0.12579281,4.7747527,8.6699615)">
    <path
       d="M 128,80.641 V 128 H 0 V 80.641 Z"
       id="path359"
       style="fill:url(#linearGradient2284);fill-opacity:1"
       transform="translate(-38.19832,-69.729474)" />
    <path
       d="M 13.309,80.641 60.664,128 H 81.879 L 34.52,80.641 Z m 42.422,0 47.363,47.359 h 21.215 L 76.946,80.641 Z m 42.43,0 29.84,29.84 V 89.27 l -8.6289,-8.6289 z m -98.16,7.9062 v 21.215 l 18.238,18.238 h 21.215 z"
       id="path361"
       transform="translate(-38.19832,-69.729474)"
       style="fill:#000000;fill-opacity:1" />
  </g>
</svg>
