<?xml version="1.0" encoding="UTF-8" standalone="no"?>
<!-- Created with Inkscape (http://www.inkscape.org/) -->

<svg
   width="16"
   height="16"
   viewBox="0 0 4.2333333 4.2333333"
   version="1.1"
   id="svg137"
   xmlns="http://www.w3.org/2000/svg"
   xmlns:svg="http://www.w3.org/2000/svg"
   xmlns:rdf="http://www.w3.org/1999/02/22-rdf-syntax-ns#"
   xmlns:cc="http://creativecommons.org/ns#"
   xmlns:dc="http://purl.org/dc/elements/1.1/">
<defs>
   <style id="current-color-scheme" type="text/css">
   .ColorScheme-Text { color: #0abdc6; } .ColorScheme-Highlight { color:#5294e2; }
  </style>
  <linearGradient id="arrongin" x1="0%" x2="0%" y1="0%" y2="100%">
   <stop offset="0%" style="stop-color:#dd9b44; stop-opacity:1"/>
   <stop offset="100%" style="stop-color:#ad6c16; stop-opacity:1"/>
  </linearGradient>
  <linearGradient id="aurora" x1="0%" x2="0%" y1="0%" y2="100%">
   <stop offset="0%" style="stop-color:#09D4DF; stop-opacity:1"/>
   <stop offset="100%" style="stop-color:#9269F4; stop-opacity:1"/>
  </linearGradient>
  <linearGradient id="cyberneon" x1="0%" x2="0%" y1="0%" y2="100%">
    <stop offset="0" style="stop-color:#0abdc6; stop-opacity:1"/>
    <stop offset="1" style="stop-color:#ea00d9; stop-opacity:1"/>
  </linearGradient>
  <linearGradient id="fitdance" x1="0%" x2="0%" y1="0%" y2="100%">
   <stop offset="0%" style="stop-color:#1AD6AB; stop-opacity:1"/>
   <stop offset="100%" style="stop-color:#329DB6; stop-opacity:1"/>
  </linearGradient>
  <linearGradient id="oomox" x1="0%" x2="0%" y1="0%" y2="100%">
   <stop offset="0%" style="stop-color:#0abdc6; stop-opacity:1"/>
   <stop offset="100%" style="stop-color:#b800ff; stop-opacity:1"/>
  </linearGradient>
  <linearGradient id="rainblue" x1="0%" x2="0%" y1="0%" y2="100%">
   <stop offset="0%" style="stop-color:#00F260; stop-opacity:1"/>
   <stop offset="100%" style="stop-color:#0575E6; stop-opacity:1"/>
  </linearGradient>
  <linearGradient id="sunrise" x1="0%" x2="0%" y1="0%" y2="100%">
   <stop offset="0%" style="stop-color: #FF8501; stop-opacity:1"/>
   <stop offset="100%" style="stop-color: #FFCB01; stop-opacity:1"/>
  </linearGradient>
  <linearGradient id="telinkrin" x1="0%" x2="0%" y1="0%" y2="100%">
   <stop offset="0%" style="stop-color: #b2ced6; stop-opacity:1"/>
   <stop offset="100%" style="stop-color: #6da5b7; stop-opacity:1"/>
  </linearGradient>
  <linearGradient id="60spsycho" x1="0%" x2="0%" y1="0%" y2="100%">
   <stop offset="0%" style="stop-color: #df5940; stop-opacity:1"/>
   <stop offset="25%" style="stop-color: #d8d15f; stop-opacity:1"/>
   <stop offset="50%" style="stop-color: #e9882a; stop-opacity:1"/>
   <stop offset="100%" style="stop-color: #279362; stop-opacity:1"/>
  </linearGradient>
  <linearGradient id="90ssummer" x1="0%" x2="0%" y1="0%" y2="100%">
   <stop offset="0%" style="stop-color: #f618c7; stop-opacity:1"/>
   <stop offset="20%" style="stop-color: #94ffab; stop-opacity:1"/>
   <stop offset="50%" style="stop-color: #fbfd54; stop-opacity:1"/>
   <stop offset="100%" style="stop-color: #0f83ae; stop-opacity:1"/>
  </linearGradient>
    <linearGradient
       id="linearGradient2284"
       gradientTransform="matrix(1.6440072,0,0,0.60826983,-38.207552,-69.729474)"
       x1="0"
       y1="132.57439"
       x2="77.858536"
       y2="132.57439"
       gradientUnits="userSpaceOnUse">
      <stop
         style="stop-color:#41ff00;stop-opacity:1;"
         offset="0"
         id="stop2280" />
      <stop
         style="stop-color:#e7ff00;stop-opacity:1;"
         offset="1"
         id="stop2282" />
    </linearGradient>
  </defs>
  <path
     id="path2830"
     class="ColorScheme-Text"
     d="m 4.2259082,2.1204957 c -0.024763,0.5216258 -0.09934,0.874004 -0.2064677,0.9755416 -0.03071,0.029109 -0.039037,0.03225 -0.07153,0.026977 C 3.8837609,3.1126039 3.8526024,3.07678 3.7988366,2.9516222 3.7702484,2.8850709 3.4644425,2.6788242 3.2207337,2.5617295 2.7779856,2.3489941 2.3990967,2.2737353 1.815217,2.2825204 l -0.2102203,0.00317 -0.018138,0.03887 c -0.014273,0.030586 -0.026791,0.041861 -0.058739,0.052905 -0.024415,0.00844 -0.04472,0.023076 -0.050933,0.036714 -0.00568,0.012473 -0.018023,0.025513 -0.027422,0.028978 -0.0094,0.00347 -0.031525,0.01715 -0.049167,0.030411 -0.027312,0.02053 -0.031643,0.029258 -0.029153,0.058754 0.00272,0.032205 0.00993,0.039277 0.1025304,0.1004971 0.067207,0.044434 0.099605,0.071751 0.099605,0.083985 0,0.01885 -0.02013,0.048646 -0.074767,0.1106618 -0.01767,0.020058 -0.032127,0.044167 -0.032127,0.053576 0,0.00941 0.015476,0.040089 0.034392,0.068176 0.055571,0.082518 0.1398625,0.248226 0.1804952,0.3548399 0.038083,0.099916 0.058308,0.12635 0.1057939,0.138286 0.033115,0.00832 0.058306,0.032705 0.058306,0.056436 0,0.060522 -0.1740623,0.2514205 -0.291639,0.3198526 -0.077991,0.045391 -0.1248959,0.048678 -0.1546649,0.010836 -0.011077,-0.014083 -0.02014,-0.033103 -0.02014,-0.042267 0,-0.00916 -0.013457,-0.035905 -0.029905,-0.059424 C 1.3089367,3.6700223 1.1443773,3.4185435 1.1281089,3.3897159 1.0650592,3.2779709 0.99202087,3.1142264 0.93481338,2.956335 0.92128447,2.9189956 0.90387715,2.8787722 0.89613131,2.86695 0.87392226,2.8330557 0.80550848,2.8115229 0.74327165,2.8188387 c -0.0489847,0.00576 -0.0656437,2.079e-4 -0.0689706,-0.022977 -3.84e-4,-0.00267 -0.003665,-0.017977 -0.007292,-0.034011 -0.005524,-0.024421 -0.0360377,-0.3248632 -0.0360377,-0.3548289 0,-0.014117 -0.1026628,-0.011811 -0.11455723,0.00257 -0.005526,0.00668 -0.0115278,0.025266 -0.0133365,0.0413 l -0.003289,0.029153 -0.12497251,0.00273 c -0.12815659,0.0028 -0.15182074,-0.00272 -0.15212707,-0.0355 -3.293e-4,-0.035005 -0.0171874,-0.043862 -0.0938273,-0.049301 C 0.05651379,2.3928406 0.05231705,2.3912416 0.03920932,2.363813 0.01537013,2.3139282 3.1282172e-4,2.0674275 8.6787769e-6,1.722073 -2.910897e-4,1.3820683 0.00705037,1.2780582 0.03508806,1.2250521 l 0.01617651,-0.030583 0.18539648,-0.00578 c 0.1019659,-0.00318 0.43473977,-0.0085 0.73950726,-0.011828 l 0.55411079,-0.00605 0.03137,0.029304 c 0.017253,0.016117 0.03137,0.038177 0.03137,0.049023 0,0.01929 0.00408,0.01962 0.1870594,0.015149 0.5484208,-0.013397 0.789154,-0.050256 1.1147192,-0.1706802 0.2568047,-0.0949831 0.4774621,-0.213359 0.725591,-0.38923633 0.1334185,-0.0945707 0.1432319,-0.10496625 0.1923764,-0.20366585 0.042953,-0.0862725 0.069486,-0.11220441 0.1238346,-0.12102235 0.031449,-0.005103 0.039913,-0.001396 0.078942,0.0345803 0.047348,0.0436444 0.068893,0.0885677 0.1076232,0.22441975 0.08472,0.29715129 0.1287686,0.93268808 0.1026968,1.48176318 z"
     style="fill:url(#oomox);fill-opacity:1;stroke-width:0.0109404" />
  <metadata
     id="metadata258">
    <rdf:RDF>
      <cc:Work
         rdf:about="">
        <dc:creator>
          <cc:Agent>
            <dc:title>dreifacherspass</dc:title>
          </cc:Agent>
        </dc:creator>
        <cc:license
           rdf:resource="http://creativecommons.org/licenses/by-sa/4.0/" />
      </cc:Work>
      <cc:License
         rdf:about="http://creativecommons.org/licenses/by-sa/4.0/">
        <cc:permits
           rdf:resource="http://creativecommons.org/ns#Reproduction" />
        <cc:permits
           rdf:resource="http://creativecommons.org/ns#Distribution" />
        <cc:requires
           rdf:resource="http://creativecommons.org/ns#Notice" />
        <cc:requires
           rdf:resource="http://creativecommons.org/ns#Attribution" />
        <cc:permits
           rdf:resource="http://creativecommons.org/ns#DerivativeWorks" />
        <cc:requires
           rdf:resource="http://creativecommons.org/ns#ShareAlike" />
      </cc:License>
    </rdf:RDF>
  </metadata>
  <g
     id="g1840"
     transform="matrix(0.03307266,0,0,0.03352041,1.2636253,2.2800747)"
     style="display:inline;enable-background:new">
    <path
       d="m 89.792448,10.911526 v 47.359 h -128 v -47.359 z"
       id="path359-5"
       style="fill:url(#linearGradient2284);fill-opacity:1" />
    <path
       d="m -24.898552,10.911526 47.355,47.359 h 21.215 l -47.3590004,-47.359 z m 42.422,0 47.363,47.359 h 21.215 l -47.363,-47.359 z m 42.43,0 29.84,29.84 v -21.211 l -8.6289,-8.6289 z m -98.16,7.9062 v 21.215 l 18.238,18.238 H 1.2464476 Z"
       id="path361-3"
       style="fill:#000000;fill-opacity:1" />
  </g>
</svg>
