<?xml version="1.0" encoding="UTF-8" standalone="no"?>
<!-- Created with Inkscape (http://www.inkscape.org/) -->

<svg
   width="48"
   height="48"
   viewBox="0 0 12.7 12.7"
   version="1.1"
   id="svg3073"
   xmlns="http://www.w3.org/2000/svg"
   xmlns:svg="http://www.w3.org/2000/svg"
   xmlns:rdf="http://www.w3.org/1999/02/22-rdf-syntax-ns#"
   xmlns:cc="http://creativecommons.org/ns#"
   xmlns:dc="http://purl.org/dc/elements/1.1/">
  <defs
     id="defs3070">
    <style
       id="current-color-scheme"
       type="text/css">
      .ColorScheme-Text { color: #0abdc6; } .ColorScheme-Highlight { color:#5294e2; }
     </style>
    <linearGradient
       id="arrongin"
       x1="0%"
       x2="0%"
       y1="0%"
       y2="100%">
      <stop
         offset="0%"
         style="stop-color:#dd9b44; stop-opacity:1"
         id="stop9192" />
      <stop
         offset="100%"
         style="stop-color:#ad6c16; stop-opacity:1"
         id="stop9194" />
    </linearGradient>
    <linearGradient
       id="aurora"
       x1="0%"
       x2="0%"
       y1="0%"
       y2="100%">
      <stop
         offset="0%"
         style="stop-color:#09D4DF; stop-opacity:1"
         id="stop9197" />
      <stop
         offset="100%"
         style="stop-color:#9269F4; stop-opacity:1"
         id="stop9199" />
    </linearGradient>
    <linearGradient
       id="cyberneon"
       x1="0%"
       x2="0%"
       y1="0%"
       y2="100%">
      <stop
         offset="0"
         style="stop-color:#0abdc6; stop-opacity:1"
         id="stop9202" />
      <stop
         offset="1"
         style="stop-color:#ea00d9; stop-opacity:1"
         id="stop9204" />
    </linearGradient>
    <linearGradient
       id="fitdance"
       x1="0%"
       x2="0%"
       y1="0%"
       y2="100%">
      <stop
         offset="0%"
         style="stop-color:#1AD6AB; stop-opacity:1"
         id="stop9207" />
      <stop
         offset="100%"
         style="stop-color:#329DB6; stop-opacity:1"
         id="stop9209" />
    </linearGradient>
    <linearGradient
       id="oomox"
       x1="0%"
       x2="0%"
       y1="0%"
       y2="100%">
      <stop
         offset="0%"
         style="stop-color:#0abdc6; stop-opacity:1"
         id="stop9212" />
      <stop
         offset="100%"
         style="stop-color:#b800ff; stop-opacity:1"
         id="stop9214" />
    </linearGradient>
    <linearGradient
       id="rainblue"
       x1="0%"
       x2="0%"
       y1="0%"
       y2="100%">
      <stop
         offset="0%"
         style="stop-color:#00F260; stop-opacity:1"
         id="stop9217" />
      <stop
         offset="100%"
         style="stop-color:#0575E6; stop-opacity:1"
         id="stop9219" />
    </linearGradient>
    <linearGradient
       id="sunrise"
       x1="0%"
       x2="0%"
       y1="0%"
       y2="100%">
      <stop
         offset="0%"
         style="stop-color: #FF8501; stop-opacity:1"
         id="stop9222" />
      <stop
         offset="100%"
         style="stop-color: #FFCB01; stop-opacity:1"
         id="stop9224" />
    </linearGradient>
    <linearGradient
       id="telinkrin"
       x1="0%"
       x2="0%"
       y1="0%"
       y2="100%">
      <stop
         offset="0%"
         style="stop-color: #b2ced6; stop-opacity:1"
         id="stop9227" />
      <stop
         offset="100%"
         style="stop-color: #6da5b7; stop-opacity:1"
         id="stop9229" />
    </linearGradient>
    <linearGradient
       id="60spsycho"
       x1="0%"
       x2="0%"
       y1="0%"
       y2="100%">
      <stop
         offset="0%"
         style="stop-color: #df5940; stop-opacity:1"
         id="stop9232" />
      <stop
         offset="25%"
         style="stop-color: #d8d15f; stop-opacity:1"
         id="stop9234" />
      <stop
         offset="50%"
         style="stop-color: #e9882a; stop-opacity:1"
         id="stop9236" />
      <stop
         offset="100%"
         style="stop-color: #279362; stop-opacity:1"
         id="stop9238" />
    </linearGradient>
    <linearGradient
       id="90ssummer"
       x1="0%"
       x2="0%"
       y1="0%"
       y2="100%">
      <stop
         offset="0%"
         style="stop-color: #f618c7; stop-opacity:1"
         id="stop9241" />
      <stop
         offset="20%"
         style="stop-color: #94ffab; stop-opacity:1"
         id="stop9243" />
      <stop
         offset="50%"
         style="stop-color: #fbfd54; stop-opacity:1"
         id="stop9245" />
      <stop
         offset="100%"
         style="stop-color: #0f83ae; stop-opacity:1"
         id="stop9247" />
    </linearGradient>
  </defs>
  <g
     id="layer1">
    <path
       style="fill:url(#oomox);fill-opacity:1;filter:url(#filter4577)"
       d="m 14,6 v 43 c 0,3 3,5 5,5 H 54 V 1 H 19 c -3,0 -5,2 -5,5 z"
       id="path39"
       class="ColorScheme-Text"
       transform="matrix(0.23462771,0,0,0.23463017,-1.6273297,-0.10232087)" />
    <path
       style="display:inline;fill:#000000;fill-opacity:0.96710527;filter:url(#filter4577-5);opacity:0.6"
       d="m 14,6 v 43 c 0,3 3,5 5,5 H 54 V 1 H 19 c -3,0 -5,2 -5,5 z"
       id="path39-6"
       transform="matrix(0.23462771,0,0,0.23463017,-1.6273546,-0.1023385)" />
    <path
       style="fill:url(#oomox);fill-opacity:1.0"
       d="m 16,48 c 0,2 1,4 4,4 H 52 V 44 H 20 c -3,0 -4,2 -4,4 z"
       id="path38"
       class="ColorScheme-Text"
       transform="matrix(0.23462771,0,0,0.23463017,-1.6273297,-0.10232087)" />
    <path
       id="path32"
       style="fill:url(#oomox);fill-opacity:1;filter:url(#filter4577)"
       class="ColorScheme-Text"
       d="M 23.000729 0.99992485 L 23.000729 44.000817 L 54.000724 44.000817 L 54.000724 0.99992485 L 23.000729 0.99992485 z M 38.426944 8.298888 C 38.517205 8.2967272 38.595102 8.305403 38.700052 8.3165077 C 38.947269 8.3324477 39.127334 8.3957964 39.127334 8.3957964 C 39.776673 8.6061442 40.302211 9.1702263 40.457636 9.8362073 C 40.53781 10.162563 40.518198 10.504987 40.462041 10.833923 C 41.006407 10.722919 41.588638 10.840691 42.058844 11.133458 C 42.833606 11.578283 43.27434 12.511986 43.173302 13.393185 C 43.117643 14.054075 42.738488 14.66343 42.1976 15.040628 C 41.53216 15.527295 40.604853 15.586829 39.85856 15.256469 C 39.603467 15.147298 39.39105 14.966111 39.184599 14.785142 C 39.278701 15.096862 39.481824 15.359133 39.603071 15.65952 C 39.458954 15.826008 39.329065 16.006553 39.175789 16.166087 C 39.27492 16.207428 39.384406 16.207219 39.481935 16.251983 C 39.668315 16.363899 39.807615 16.577388 39.783675 16.800396 C 39.776941 17.13557 39.456205 17.435177 39.116322 17.381846 C 39.147691 17.972322 39.135009 18.565919 39.140549 19.157032 C 39.156489 23.253783 39.167323 27.349888 39.180194 31.446777 C 39.345102 31.460458 39.510383 31.470898 39.673551 31.440169 C 39.664515 30.880896 39.664713 30.320984 39.669146 29.761892 C 39.952279 29.755158 40.236798 29.745754 40.519306 29.766297 C 40.580061 29.907443 40.626143 30.054816 40.669075 30.202385 C 40.780528 30.234606 40.897844 30.228413 41.01046 30.211195 C 41.050225 30.059748 41.116191 29.917346 41.147014 29.764095 C 41.797958 29.76181 42.450211 29.726687 43.10062 29.755285 C 43.10468 30.24974 43.080775 30.745426 43.111632 31.239745 C 42.648466 31.265999 42.183263 31.255558 41.719661 31.246352 C 41.689784 31.468579 41.724545 31.692416 41.702041 31.915901 C 42.161287 31.94028 42.622944 31.906992 43.083 31.909294 C 43.115306 32.308398 43.106386 32.709394 43.09181 33.109636 C 42.633395 33.136658 42.17388 33.096925 41.715256 33.131661 C 41.708522 33.339051 41.717157 33.548979 41.710851 33.757161 C 42.169156 33.829568 42.637238 33.746725 43.098417 33.790197 C 43.117895 34.280931 43.096345 34.772409 43.111632 35.263645 C 42.464116 35.297443 41.815231 35.27686 41.166837 35.27686 C 41.122064 35.126811 41.05823 34.983241 41.02808 34.82976 C 40.912275 34.802355 40.792322 34.815881 40.675682 34.834165 C 40.640307 34.980327 40.586403 35.12216 40.539128 35.265848 C 40.429955 35.307871 40.313823 35.269998 40.199945 35.27686 C 40.024992 35.265395 39.849863 35.277538 39.675753 35.29448 C 39.666718 35.227336 39.664514 35.160526 39.666943 35.094056 C 39.687487 34.594438 39.664193 34.093956 39.680158 33.594178 C 39.525079 33.580497 39.36938 33.589801 39.213231 33.585368 C 39.175768 34.12861 39.209419 34.673559 39.204421 35.217394 C 39.121972 35.216069 39.041279 35.210858 38.957743 35.212989 C 38.901104 35.244698 38.936677 35.306473 38.97316 35.340732 C 39.083488 35.446489 39.205899 35.553352 39.255079 35.704138 C 39.386401 36.054885 39.19073 36.472763 38.860833 36.633578 C 38.523742 36.798718 38.074294 36.649165 37.896144 36.320828 C 37.794507 36.089085 37.765306 35.805245 37.900549 35.5808 C 37.972514 35.439655 38.180703 35.387155 38.173658 35.206381 C 38.078648 35.201778 37.982864 35.234456 37.887334 35.215191 C 37.854687 29.275553 37.922908 23.336581 37.88293 17.397264 C 37.424534 17.452534 37.08038 16.890692 37.290461 16.496456 C 37.396838 16.302739 37.61647 16.217248 37.819057 16.166087 C 37.68499 15.991369 37.543409 15.822727 37.39618 15.65952 C 37.53823 15.36868 37.722652 15.096297 37.823462 14.787345 C 37.650567 14.93421 37.480039 15.088778 37.277246 15.1948 C 36.693982 15.530614 35.968389 15.541898 35.339058 15.33796 C 34.872028 15.183795 34.473956 14.851827 34.20698 14.441558 C 33.811209 13.850924 33.70835 13.078337 33.922859 12.402077 L 33.925062 12.402077 C 34.114177 11.796143 34.581151 11.298776 35.143037 11.016728 C 35.573568 10.803635 36.065168 10.792813 36.535008 10.803089 C 36.285075 9.901036 36.784233 8.8608951 37.631846 8.4706801 C 37.855451 8.3676798 37.855593 8.3795618 38.078951 8.3407348 C 38.233907 8.3138947 38.336683 8.3010488 38.426944 8.298888 z M 38.448969 9.2041004 C 38.046835 9.2177706 37.666334 9.4741503 37.495292 9.8384098 C 37.332212 10.162635 37.333198 10.570717 37.521722 10.88458 C 37.618117 11.060005 37.769541 11.195463 37.931384 11.309655 C 37.722172 11.598233 37.464385 11.846571 37.244208 12.126769 C 36.974492 11.882517 36.638214 11.699314 36.272912 11.659847 C 35.545941 11.569637 34.830012 12.140326 34.698134 12.849177 C 34.624831 13.205286 34.693306 13.589795 34.883143 13.899752 C 35.126942 14.297595 35.55944 14.583883 36.028436 14.617755 C 36.559738 14.671197 37.107304 14.400702 37.391775 13.950409 C 37.500257 13.784595 37.569256 13.595173 37.607619 13.401995 C 37.6213 13.358595 37.618132 13.28335 37.684706 13.287467 C 37.793427 13.278432 37.903266 13.312909 38.008471 13.274252 C 38.010709 13.155956 37.890566 13.100977 37.819057 13.027577 C 37.657346 12.893736 37.63808 12.649871 37.728755 12.470353 C 37.835192 12.236287 38.088717 12.108607 38.332237 12.07391 C 38.640367 12.025263 38.994389 12.099101 39.200016 12.349218 C 39.364924 12.539696 39.367319 12.858601 39.182396 13.036386 C 39.110218 13.101476 38.984978 13.151876 38.992983 13.267645 C 39.114025 13.317656 39.242842 13.276455 39.367405 13.276455 C 39.422454 13.59144 39.531592 13.9076 39.763853 14.137618 C 40.23745 14.680422 41.12962 14.774931 41.702041 14.33584 C 42.046152 14.081504 42.291929 13.68296 42.323142 13.252228 C 42.361586 12.884876 42.239256 12.511423 42.014794 12.221475 C 41.702768 11.825682 41.183571 11.596813 40.680087 11.655442 C 40.326915 11.68924 40.011338 11.881529 39.757245 12.120162 C 39.52469 11.85405 39.289845 11.590788 39.056855 11.325072 C 39.325983 11.106729 39.57335 10.819444 39.611881 10.461707 C 39.674465 9.8449441 39.153397 9.2298856 38.53046 9.2041004 C 38.503517 9.2028165 38.475777 9.203189 38.448969 9.2041004 z "
       transform="matrix(0.23462771,0,0,0.23463017,-1.6273295,-0.10232087)" />
    <path
       style="color:#0abdc6;fill:#000000;fill-opacity:0.19736843;stroke-width:0.234629;filter:url(#filter4577)"
       d="m 2.1267208,11.159904 c 0,0.46926 0.234627,0.938521 0.938511,0.938521 H 10.573318 V 10.221383 H 3.0652318 c -0.703884,0 -0.938511,0.469261 -0.938511,0.938521 z"
       id="path38-6"
       class="ColorScheme-Text" />
  </g>
  <metadata
     id="metadata3194">
    <rdf:RDF>
      <cc:Work
         rdf:about="">
        <dc:creator>
          <cc:Agent>
            <dc:title>dreifacherspass</dc:title>
          </cc:Agent>
        </dc:creator>
        <cc:license
           rdf:resource="http://creativecommons.org/licenses/by-sa/4.0/" />
      </cc:Work>
      <cc:License
         rdf:about="http://creativecommons.org/licenses/by-sa/4.0/">
        <cc:permits
           rdf:resource="http://creativecommons.org/ns#Reproduction" />
        <cc:permits
           rdf:resource="http://creativecommons.org/ns#Distribution" />
        <cc:requires
           rdf:resource="http://creativecommons.org/ns#Notice" />
        <cc:requires
           rdf:resource="http://creativecommons.org/ns#Attribution" />
        <cc:permits
           rdf:resource="http://creativecommons.org/ns#DerivativeWorks" />
        <cc:requires
           rdf:resource="http://creativecommons.org/ns#ShareAlike" />
      </cc:License>
    </rdf:RDF>
  </metadata>
</svg>
