<?xml version="1.0" encoding="UTF-8" standalone="no"?>
<!-- Created with Inkscape (http://www.inkscape.org/) -->

<svg
   width="48"
   height="48"
   viewBox="0 0 48 48"
   version="1.1"
   id="svg5094"
   xmlns:xlink="http://www.w3.org/1999/xlink"
   xmlns="http://www.w3.org/2000/svg"
   xmlns:svg="http://www.w3.org/2000/svg"
   xmlns:rdf="http://www.w3.org/1999/02/22-rdf-syntax-ns#"
   xmlns:cc="http://creativecommons.org/ns#"
   xmlns:dc="http://purl.org/dc/elements/1.1/">
  <defs
     id="defs5088">
    <style
       id="current-color-scheme"
       type="text/css">
      .ColorScheme-Text { color: #0abdc6; } .ColorScheme-Highlight { color:#5294e2; }
     </style>
    <linearGradient
       id="arrongin"
       x1="0%"
       x2="0%"
       y1="0%"
       y2="100%">
      <stop
         offset="0%"
         style="stop-color:#dd9b44; stop-opacity:1"
         id="stop9192" />
      <stop
         offset="100%"
         style="stop-color:#ad6c16; stop-opacity:1"
         id="stop9194" />
    </linearGradient>
    <linearGradient
       id="aurora"
       x1="0%"
       x2="0%"
       y1="0%"
       y2="100%">
      <stop
         offset="0%"
         style="stop-color:#09D4DF; stop-opacity:1"
         id="stop9197" />
      <stop
         offset="100%"
         style="stop-color:#9269F4; stop-opacity:1"
         id="stop9199" />
    </linearGradient>
    <linearGradient
       id="cyberneon"
       x1="0%"
       x2="0%"
       y1="0%"
       y2="100%">
      <stop
         offset="0"
         style="stop-color:#0abdc6; stop-opacity:1"
         id="stop9202" />
      <stop
         offset="1"
         style="stop-color:#ea00d9; stop-opacity:1"
         id="stop9204" />
    </linearGradient>
    <linearGradient
       id="fitdance"
       x1="0%"
       x2="0%"
       y1="0%"
       y2="100%">
      <stop
         offset="0%"
         style="stop-color:#1AD6AB; stop-opacity:1"
         id="stop9207" />
      <stop
         offset="100%"
         style="stop-color:#329DB6; stop-opacity:1"
         id="stop9209" />
    </linearGradient>
    <linearGradient
       id="oomox"
       x1="0%"
       x2="0%"
       y1="0%"
       y2="100%">
      <stop
         offset="0%"
         style="stop-color:#0abdc6; stop-opacity:1"
         id="stop9212" />
      <stop
         offset="100%"
         style="stop-color:#b800ff; stop-opacity:1"
         id="stop9214" />
    </linearGradient>
    <linearGradient
       id="rainblue"
       x1="0%"
       x2="0%"
       y1="0%"
       y2="100%">
      <stop
         offset="0%"
         style="stop-color:#00F260; stop-opacity:1"
         id="stop9217" />
      <stop
         offset="100%"
         style="stop-color:#0575E6; stop-opacity:1"
         id="stop9219" />
    </linearGradient>
    <linearGradient
       id="sunrise"
       x1="0%"
       x2="0%"
       y1="0%"
       y2="100%">
      <stop
         offset="0%"
         style="stop-color: #FF8501; stop-opacity:1"
         id="stop9222" />
      <stop
         offset="100%"
         style="stop-color: #FFCB01; stop-opacity:1"
         id="stop9224" />
    </linearGradient>
    <linearGradient
       id="telinkrin"
       x1="0%"
       x2="0%"
       y1="0%"
       y2="100%">
      <stop
         offset="0%"
         style="stop-color: #b2ced6; stop-opacity:1"
         id="stop9227" />
      <stop
         offset="100%"
         style="stop-color: #6da5b7; stop-opacity:1"
         id="stop9229" />
    </linearGradient>
    <linearGradient
       id="60spsycho"
       x1="0%"
       x2="0%"
       y1="0%"
       y2="100%">
      <stop
         offset="0%"
         style="stop-color: #df5940; stop-opacity:1"
         id="stop9232" />
      <stop
         offset="25%"
         style="stop-color: #d8d15f; stop-opacity:1"
         id="stop9234" />
      <stop
         offset="50%"
         style="stop-color: #e9882a; stop-opacity:1"
         id="stop9236" />
      <stop
         offset="100%"
         style="stop-color: #279362; stop-opacity:1"
         id="stop9238" />
    </linearGradient>
    <linearGradient
       id="90ssummer"
       x1="0%"
       x2="0%"
       y1="0%"
       y2="100%">
      <stop
         offset="0%"
         style="stop-color: #f618c7; stop-opacity:1"
         id="stop9241" />
      <stop
         offset="20%"
         style="stop-color: #94ffab; stop-opacity:1"
         id="stop9243" />
      <stop
         offset="50%"
         style="stop-color: #fbfd54; stop-opacity:1"
         id="stop9245" />
      <stop
         offset="100%"
         style="stop-color: #0f83ae; stop-opacity:1"
         id="stop9247" />
    </linearGradient>
  </defs>
  <metadata
     id="metadata5091">
    <rdf:RDF>
      <cc:Work
         rdf:about="">
        <dc:format>image/svg+xml</dc:format>
        <dc:type
           rdf:resource="http://purl.org/dc/dcmitype/StillImage" />
        <dc:contributor>
          <cc:Agent>
            <dc:title>dreifacherspass</dc:title>
          </cc:Agent>
        </dc:contributor>
        <cc:license
           rdf:resource="http://creativecommons.org/licenses/by-sa/4.0/" />
      </cc:Work>
      <cc:License
         rdf:about="http://creativecommons.org/licenses/by-sa/4.0/">
        <cc:permits
           rdf:resource="http://creativecommons.org/ns#Reproduction" />
        <cc:permits
           rdf:resource="http://creativecommons.org/ns#Distribution" />
        <cc:requires
           rdf:resource="http://creativecommons.org/ns#Notice" />
        <cc:requires
           rdf:resource="http://creativecommons.org/ns#Attribution" />
        <cc:permits
           rdf:resource="http://creativecommons.org/ns#DerivativeWorks" />
        <cc:requires
           rdf:resource="http://creativecommons.org/ns#ShareAlike" />
      </cc:License>
    </rdf:RDF>
  </metadata>
  <g
     id="layer1"
     transform="translate(0,-288.53333)">
    <path
       id="ellipse1622-3"
       class="ColorScheme-Text"
       style="display:inline;fill:url(#oomox);fill-opacity:1;stroke:none;stroke-width:7.40741;stroke-linecap:round;stroke-linejoin:bevel;stroke-miterlimit:4;stroke-dasharray:none;stroke-opacity:1;paint-order:stroke fill markers"
       d="m 42.869613,291.53694 a 4.6296867,4.6287016 0 0 0 -4.628435,4.6294 4.6296867,4.6287016 0 0 0 4.628435,4.62942 4.6296867,4.6287016 0 0 0 4.630386,-4.62942 4.6296867,4.6287016 0 0 0 -4.630386,-4.6294 z m 0.04292,2.19576 a 2.4965865,2.4960646 0 0 1 2.496586,2.49606 2.4965865,2.4960646 0 0 1 -2.496586,2.49605 2.4965865,2.4960646 0 0 1 -2.496585,-2.49605 2.4965865,2.4960646 0 0 1 2.496585,-2.49606 z m -0.04292,30.53617 a 4.6296871,4.6287016 0 0 0 -4.628435,4.6294 4.6296871,4.6287016 0 0 0 4.628435,4.62942 4.6296871,4.6287016 0 0 0 4.630386,-4.62942 4.6296871,4.6287016 0 0 0 -4.630386,-4.6294 z m 0.04292,2.19576 a 2.4965867,2.4960646 0 0 1 2.496586,2.49606 2.4965867,2.4960646 0 0 1 -2.496586,2.49606 2.4965867,2.4960646 0 0 1 -2.496586,-2.49606 2.4965867,2.4960646 0 0 1 2.496586,-2.49606 z m -0.04292,-18.55487 a 4.6296867,4.6287016 0 0 0 -4.628435,4.6294 4.6296867,4.6287016 0 0 0 4.628435,4.62942 4.6296867,4.6287016 0 0 0 4.630385,-4.62942 4.6296867,4.6287016 0 0 0 -4.630385,-4.6294 z m 0.04292,2.19576 a 2.4965865,2.4960646 0 0 1 2.496586,2.49605 2.4965865,2.4960646 0 0 1 -2.496586,2.49606 2.4965865,2.4960646 0 0 1 -2.496585,-2.49606 2.4965865,2.4960646 0 0 1 2.496585,-2.49605 z M 5.1284351,291.53694 a 4.6296852,4.6286884 0 0 0 -4.62843507,4.6294 4.6296852,4.6286884 0 0 0 4.62843507,4.62942 4.6296852,4.6286884 0 0 0 4.6303854,-4.62942 4.6296852,4.6286884 0 0 0 -4.6303854,-4.6294 z m 0.04291,2.19575 a 2.4965852,2.4960572 0 0 1 2.4965849,2.49606 2.4965852,2.4960572 0 0 1 -2.4965849,2.49604 2.4965852,2.4960572 0 0 1 -2.4965855,-2.49604 2.4965852,2.4960572 0 0 1 2.4965855,-2.49606 z m -0.04291,14.2488 a 4.629685,4.6286797 0 0 0 -4.62843487,4.62941 4.629685,4.6286797 0 0 0 4.62843487,4.62942 4.629685,4.6286797 0 0 0 4.6303856,-4.62942 4.629685,4.6286797 0 0 0 -4.6303856,-4.62941 z m 0.04291,2.19577 a 2.4965852,2.4960526 0 0 1 2.4965841,2.49606 2.4965852,2.4960526 0 0 1 -2.4965841,2.49604 2.4965852,2.4960526 0 0 1 -2.4965856,-2.49604 2.4965852,2.4960526 0 0 1 2.4965856,-2.49606 z m -0.04291,14.09363 a 4.6296848,4.6286832 0 0 0 -4.62843457,4.62941 4.6296848,4.6286832 0 0 0 4.62843457,4.62942 4.6296848,4.6286832 0 0 0 4.6303856,-4.62942 4.6296848,4.6286832 0 0 0 -4.6303856,-4.62941 z m 0.04291,2.19579 a 2.496585,2.4960547 0 0 1 2.496584,2.49605 2.496585,2.4960547 0 0 1 -2.496584,2.49605 2.496585,2.4960547 0 0 1 -2.4965852,-2.49605 2.496585,2.4960547 0 0 1 2.4965852,-2.49605 z m 3.0581976,-32.73323 c 0,0 -0.6274625,-5.8e-4 -0.8685907,0.0396 1.2248258,0.22086 1.145141,1.17404 1.1449538,2.41862 -0.00163,1.24695 -0.1610556,2.4261 -1.3890831,2.64258 0.2459371,0.0417 0.058709,0.0416 0.058709,0.0416 h 5.6534778 c 7.716096,10.28812 6.002127,11.14652 6.002127,11.14652 H 7.3745008 c 0,0 1.2349417,-8.2e-4 1.2349417,2.57121 0,3.42938 -1.1763856,2.57319 -1.1763856,2.57319 H 18.831136 c 0,0 1.713969,0.85642 -6.002127,11.14454 H 7.1691253 c 0,0 1.5504363,0.001 1.5504363,2.57319 0,2.57203 -1.4460907,2.57121 -1.4460907,2.57121 h 7.2690171 c 16.289534,-18.86157 2.572592,-18.86157 18.862128,0 h 7.210038 c 0,0 -1.107705,8.2e-4 -1.107705,-2.57121 0,-2.57203 0.903211,-2.57319 0.903211,-2.57319 H 35.120074 C 27.403978,316.0232 29.117948,315.16678 29.117948,315.16678 H 40.10887 c 0,0 -0.764452,-0.001 -0.764452,-2.57319 0,-2.57203 0.897958,-2.57121 0.897958,-2.57121 H 29.117948 c 0,0 -1.71397,-0.8584 6.002126,-11.14652 h 5.771238 c 0,0 -1.484532,8.2e-4 -1.484532,-2.57121 0,-2.57203 1.442073,-2.5712 1.442073,-2.5712 h -7.444237 c -16.289536,18.86156 -2.572594,18.86156 -18.862128,0 z" />
  </g>
</svg>
