<?xml version="1.0" encoding="UTF-8" standalone="no"?>

<svg
   height="16"
   width="16"
   version="1.1"
   id="Capa_1"
   viewBox="0 0 5.89736 5.89736"
   xml:space="preserve"
   xmlns:xlink="http://www.w3.org/1999/xlink"
   xmlns="http://www.w3.org/2000/svg"
   xmlns:svg="http://www.w3.org/2000/svg"
   xmlns:rdf="http://www.w3.org/1999/02/22-rdf-syntax-ns#"
   xmlns:cc="http://creativecommons.org/ns#"
   xmlns:dc="http://purl.org/dc/elements/1.1/">
  <defs>
   <style id="current-color-scheme" type="text/css">
   .ColorScheme-Text { color: #0abdc6; } .ColorScheme-Highlight { color:#5294e2; }
  </style>
  <linearGradient id="arrongin" x1="0%" x2="0%" y1="0%" y2="100%">
   <stop offset="0%" style="stop-color:#dd9b44; stop-opacity:1"/>
   <stop offset="100%" style="stop-color:#ad6c16; stop-opacity:1"/>
  </linearGradient>
  <linearGradient id="aurora" x1="0%" x2="0%" y1="0%" y2="100%">
   <stop offset="0%" style="stop-color:#09D4DF; stop-opacity:1"/>
   <stop offset="100%" style="stop-color:#9269F4; stop-opacity:1"/>
  </linearGradient>
  <linearGradient id="cyberneon" x1="0%" x2="0%" y1="0%" y2="100%">
    <stop offset="0" style="stop-color:#0abdc6; stop-opacity:1"/>
    <stop offset="1" style="stop-color:#ea00d9; stop-opacity:1"/>
  </linearGradient>
  <linearGradient id="fitdance" x1="0%" x2="0%" y1="0%" y2="100%">
   <stop offset="0%" style="stop-color:#1AD6AB; stop-opacity:1"/>
   <stop offset="100%" style="stop-color:#329DB6; stop-opacity:1"/>
  </linearGradient>
  <linearGradient id="oomox" x1="0%" x2="0%" y1="0%" y2="100%">
   <stop offset="0%" style="stop-color:#0abdc6; stop-opacity:1"/>
   <stop offset="100%" style="stop-color:#b800ff; stop-opacity:1"/>
  </linearGradient>
  <linearGradient id="rainblue" x1="0%" x2="0%" y1="0%" y2="100%">
   <stop offset="0%" style="stop-color:#00F260; stop-opacity:1"/>
   <stop offset="100%" style="stop-color:#0575E6; stop-opacity:1"/>
  </linearGradient>
  <linearGradient id="sunrise" x1="0%" x2="0%" y1="0%" y2="100%">
   <stop offset="0%" style="stop-color: #FF8501; stop-opacity:1"/>
   <stop offset="100%" style="stop-color: #FFCB01; stop-opacity:1"/>
  </linearGradient>
  <linearGradient id="telinkrin" x1="0%" x2="0%" y1="0%" y2="100%">
   <stop offset="0%" style="stop-color: #b2ced6; stop-opacity:1"/>
   <stop offset="100%" style="stop-color: #6da5b7; stop-opacity:1"/>
  </linearGradient>
  <linearGradient id="60spsycho" x1="0%" x2="0%" y1="0%" y2="100%">
   <stop offset="0%" style="stop-color: #df5940; stop-opacity:1"/>
   <stop offset="25%" style="stop-color: #d8d15f; stop-opacity:1"/>
   <stop offset="50%" style="stop-color: #e9882a; stop-opacity:1"/>
   <stop offset="100%" style="stop-color: #279362; stop-opacity:1"/>
  </linearGradient>
  <linearGradient id="90ssummer" x1="0%" x2="0%" y1="0%" y2="100%">
   <stop offset="0%" style="stop-color: #f618c7; stop-opacity:1"/>
   <stop offset="20%" style="stop-color: #94ffab; stop-opacity:1"/>
   <stop offset="50%" style="stop-color: #fbfd54; stop-opacity:1"/>
   <stop offset="100%" style="stop-color: #0f83ae; stop-opacity:1"/>
  </linearGradient>
 </defs>
<path
   d="m 5.5429668,2.3026001 c -0.07706,0.0817 -0.1905998,0.0817 -0.22792,0.0817 -0.0692,0 -0.1547602,-0.01146 -0.27736,-0.03718 -0.0963,-0.0202 -0.1792201,-0.04034 -0.2523401,-0.05808 -0.14384,-0.03494 -0.2478002,-0.0602 -0.3456603,-0.0602 -0.05516,0 -0.1557998,0.0239 -0.2623799,0.04922 -0.1659401,0.03942 -0.3724402,0.08846 -0.5721802,0.08846 -0.2016601,0 -0.4139199,-0.01568 -0.5476601,-0.02778 -0.04442,0.1665201 -0.1501,0.4411201 -0.38998,0.6376802 -0.3261403,0.2672 -0.5679403,0.3863999 -0.5780803,0.3913398 -0.06194,0.0302 -0.13642,0.01438 -0.18068,-0.03844 -0.04426,-0.05278 -0.0469,-0.1289 -0.00638,-0.1846001 0.00134,-0.0019 0.16434,-0.23232 0.15808,-0.49128 C 2.0579459,2.55042 2.0542059,2.4697 2.0503859,2.40822 1.8472459,2.4681 1.5013657,2.60196 1.3229457,2.85394 1.0526656,3.2356001 0.94178553,3.8231998 0.97148555,4.01596 c 0.03092,0.2008398 0.03462,0.2008398 0.12992005,0.2008398 0.2076401,0 0.3820801,0.0085 0.5785602,0.1154601 0.1738001,0.09458 0.2695201,0.1980599 0.2798401,0.2095602 0.03898,0.0433 0.04936,0.1052599 0.02662,0.15888 -0.02274,0.05366 -0.07448,0.08928 -0.1327,0.09136 -0.05616,0.00211 -0.2261001,0.016259 -0.3353202,0.0559 -0.058,0.021059 -0.10796,0.0457 -0.15628,0.06954 -0.0773,0.03814 -0.15032,0.07416 -0.2355001,0.08422 -0.0277,0.00327 -0.05614,0.00488 -0.08306,0.00438 -0.0314,0.07294 -0.08484,0.1598802 -0.17472006,0.2288599 -0.0688,0.05282 -0.13880004,0.0854 -0.20056008,0.1141202 -0.07584,0.0353 -0.13576001,0.06318 -0.18176005,0.1202199 -0.12056004,0.1494999 -0.16102006,0.3116 -0.16140005,0.3132201 -0.01576,0.06474 -0.07244,0.11166 -0.13900006,0.1146799 -0.0023,1.201e-4 -0.00462,1.603e-4 -0.00692,1.603e-4 -0.06382,0 -0.12108004,-0.04024 -0.14190005,-0.1011203 C 0.02792522,5.7689018 -0.05113481,5.51832 0.05408524,5.15154 0.09170524,5.02042 0.14998526,4.9069201 0.20632528,4.7971199 0.2980053,4.6185402 0.37718532,4.4643199 0.34396534,4.2753402 0.18780527,3.38712 0.19858528,2.6649201 0.37598532,2.1288801 0.65182544,1.2952001 1.3195857,0.83070003 1.4506457,0.74608004 c 0.06502,-0.04202 0.1235401,-0.07898 0.1728601,-0.10970002 -0.04574,-0.03644 -0.1038801,-0.07472 -0.1730001,-0.10409999 -0.1573201,-0.06688 -0.2234401,-0.08516 -0.2417601,-0.08952 -0.00118,4e-5 -0.00232,4e-5 -0.00346,4e-5 -0.0653,1.998e-5 -0.1155,-0.0431 -0.1346,-0.10678003 -0.01984,-0.06612 0.01702,-0.1371 0.07644,-0.17219999 C 1.1584256,0.15712001 1.4286857,0 1.7848658,0 c 0.0735,0 0.1465201,0.00674002 0.2170201,0.02004 0.21966,0.04146001 0.3749,0.10340001 0.5250202,0.16328001 0.1465801,0.05848 0.28504,0.11372001 0.4917601,0.15725999 0.10042,0.0211602 0.1929002,0.03748 0.2823202,0.05328 0.3076599,0.05432 0.5733597,0.10124 0.97062,0.30410003 0.5184804,0.26480002 0.8100205,0.55452007 0.8209403,0.81574007 0.00231,0.05506 0.00109,0.10426 -0.00362,0.1475 0.04852,0.02426 0.1074801,0.05492 0.16704,0.0888 0.2424602,0.1379 0.3441403,0.24118 0.3509202,0.35644 0.0047,0.0802 -0.0168,0.14618 -0.06392,0.19616 z"
   id="path2"
   class="ColorScheme-Text"
   style="fill:url(#oomox);fill-opacity:1;stroke-width:0.02" />
<metadata
   id="metadata132"><rdf:RDF><cc:Work
       rdf:about=""><cc:license
         rdf:resource="http://creativecommons.org/licenses/by-sa/4.0/" /><dc:creator><cc:Agent><dc:title>dreifacherspass</dc:title></cc:Agent></dc:creator></cc:Work><cc:License
       rdf:about="http://creativecommons.org/licenses/by-sa/4.0/"><cc:permits
         rdf:resource="http://creativecommons.org/ns#Reproduction" /><cc:permits
         rdf:resource="http://creativecommons.org/ns#Distribution" /><cc:requires
         rdf:resource="http://creativecommons.org/ns#Notice" /><cc:requires
         rdf:resource="http://creativecommons.org/ns#Attribution" /><cc:permits
         rdf:resource="http://creativecommons.org/ns#DerivativeWorks" /><cc:requires
         rdf:resource="http://creativecommons.org/ns#ShareAlike" /></cc:License></rdf:RDF></metadata>
<path
   class="ColorScheme-Text"
   d="M 3.7318426,3.011418 C 3.5049023,3.014408 3.3388465,3.005518 3.2030623,3.091136 3.1351683,3.133945 3.0812794,3.2060524 3.0515797,3.296469 3.0218807,3.386885 3.0114177,3.4942794 3.0114177,3.6298337 V 5.278944 c 0,0.1355547 0.010463,0.2429487 0.040162,0.3333654 0.029699,0.090417 0.083589,0.162924 0.1514826,0.2057352 0.1357842,0.085619 0.30184,0.076318 0.5287803,0.079316 h 0.00109 1.4429628 0.00109 c 0.2269403,-0.003 0.3929961,0.00631 0.5287813,-0.079316 C 5.7736586,5.7752354 5.8275479,5.7027265 5.857247,5.6123094 5.8869015,5.5218927 5.89736,5.4144987 5.89736,5.278944 V 4.6605279 4.0421116 c 0,-0.1355544 -0.010461,-0.2429488 -0.040162,-0.3333652 -0.00373,-0.011254 -0.00864,-0.02144 -0.013386,-0.031802 -0.0018,-0.00382 -0.00323,-0.00783 -0.00492,-0.011666 C 5.8077243,3.595445 5.7621321,3.5385987 5.70571,3.5030228 5.5699094,3.4174034 5.4038536,3.4267045 5.1769133,3.4237074 H 5.175824 4.6287244 L 4.2641177,3.0114293 H 3.732166 Z m 0.00211,0.2061388 H 4.190164 L 4.5086297,3.577494 4.2799992,3.835973 h -0.5470996 -0.00109 c -0.2269393,0.003 -0.392996,-0.00631 -0.5287801,0.079316 -0.00401,0.00249 -0.00737,0.00612 -0.011275,0.00886 V 3.6298324 c 0,-0.1221192 0.01129,-0.2073144 0.028887,-0.2608962 0.0176,-0.053585 0.036675,-0.076573 0.06975,-0.097431 0.066151,-0.041713 0.2156219,-0.050943 0.4435269,-0.053951 z m 0.9846381,0.4122773 h 0.4558618 c 0.2279054,0.003 0.3773743,0.012245 0.4435268,0.053951 0.033076,0.020858 0.052154,0.043847 0.069753,0.097432 0.017627,0.053585 0.029246,0.1387762 0.029246,0.2608947 V 4.6605279 5.278944 c 0,0.1221188 -0.011309,0.207312 -0.028885,0.2608936 -0.0176,0.053585 -0.036671,0.076576 -0.069752,0.097434 -0.066035,0.041645 -0.2152215,0.05092 -0.4424702,0.05395 H 5.1747816 3.7329013 C 3.5056629,5.6881576 3.3564783,5.6789151 3.2904412,5.6372711 3.2573604,5.6164167 3.238287,5.5934243 3.2206886,5.5398376 3.2030863,5.486256 3.1918018,5.4010628 3.1918018,5.278944 V 4.4543894 c 0,-0.1221192 0.011617,-0.20731 0.029239,-0.2608957 0.017602,-0.053586 0.036677,-0.076575 0.069753,-0.097431 0.066152,-0.041704 0.2156212,-0.050941 0.4435263,-0.053951 h 0.6196718 z"
   id="path195"
   style="fill:url(#oomox);stroke-width:0.180371" />
</svg>
