<?xml version="1.0" encoding="UTF-8" standalone="no"?>
<!-- Created with Inkscape (http://www.inkscape.org/) -->

<svg
   id="svg2"
   xml:space="preserve"
   viewBox="0 0 48 48"
   version="1.1"
   width="48"
   height="48"
   xmlns="http://www.w3.org/2000/svg"
   xmlns:svg="http://www.w3.org/2000/svg"
   xmlns:rdf="http://www.w3.org/1999/02/22-rdf-syntax-ns#"
   xmlns:cc="http://creativecommons.org/ns#"
   xmlns:dc="http://purl.org/dc/elements/1.1/">
  <defs
   id="defs6">
    <style
   id="current-color-scheme"
   type="text/css">
      .ColorScheme-Text { color: #0abdc6; } .ColorScheme-Highlight { color:#5294e2; }
     </style>
    <linearGradient
   id="arrongin"
   x1="0%"
   x2="0%"
   y1="0%"
   y2="100%">
      <stop
   offset="0%"
   style="stop-color:#dd9b44; stop-opacity:1"
   id="stop9192" />
      <stop
   offset="100%"
   style="stop-color:#ad6c16; stop-opacity:1"
   id="stop9194" />
    </linearGradient>
    <linearGradient
   id="aurora"
   x1="0%"
   x2="0%"
   y1="0%"
   y2="100%">
      <stop
   offset="0%"
   style="stop-color:#09D4DF; stop-opacity:1"
   id="stop9197" />
      <stop
   offset="100%"
   style="stop-color:#9269F4; stop-opacity:1"
   id="stop9199" />
    </linearGradient>
    <linearGradient
   id="cyberneon"
   x1="0%"
   x2="0%"
   y1="0%"
   y2="100%">
      <stop
   offset="0"
   style="stop-color:#0abdc6; stop-opacity:1"
   id="stop9202" />
      <stop
   offset="1"
   style="stop-color:#ea00d9; stop-opacity:1"
   id="stop9204" />
    </linearGradient>
    <linearGradient
   id="fitdance"
   x1="0%"
   x2="0%"
   y1="0%"
   y2="100%">
      <stop
   offset="0%"
   style="stop-color:#1AD6AB; stop-opacity:1"
   id="stop9207" />
      <stop
   offset="100%"
   style="stop-color:#329DB6; stop-opacity:1"
   id="stop9209" />
    </linearGradient>
    <linearGradient
   id="oomox"
   x1="0%"
   x2="0%"
   y1="0%"
   y2="100%">
      <stop
   offset="0%"
   style="stop-color:#0abdc6; stop-opacity:1"
   id="stop9212" />
      <stop
   offset="100%"
   style="stop-color:#b800ff; stop-opacity:1"
   id="stop9214" />
    </linearGradient>
    <linearGradient
   id="rainblue"
   x1="0%"
   x2="0%"
   y1="0%"
   y2="100%">
      <stop
   offset="0%"
   style="stop-color:#00F260; stop-opacity:1"
   id="stop9217" />
      <stop
   offset="100%"
   style="stop-color:#0575E6; stop-opacity:1"
   id="stop9219" />
    </linearGradient>
    <linearGradient
   id="sunrise"
   x1="0%"
   x2="0%"
   y1="0%"
   y2="100%">
      <stop
   offset="0%"
   style="stop-color: #FF8501; stop-opacity:1"
   id="stop9222" />
      <stop
   offset="100%"
   style="stop-color: #FFCB01; stop-opacity:1"
   id="stop9224" />
    </linearGradient>
    <linearGradient
   id="telinkrin"
   x1="0%"
   x2="0%"
   y1="0%"
   y2="100%">
      <stop
   offset="0%"
   style="stop-color: #b2ced6; stop-opacity:1"
   id="stop9227" />
      <stop
   offset="100%"
   style="stop-color: #6da5b7; stop-opacity:1"
   id="stop9229" />
    </linearGradient>
    <linearGradient
   id="60spsycho"
   x1="0%"
   x2="0%"
   y1="0%"
   y2="100%">
      <stop
   offset="0%"
   style="stop-color: #df5940; stop-opacity:1"
   id="stop9232" />
      <stop
   offset="25%"
   style="stop-color: #d8d15f; stop-opacity:1"
   id="stop9234" />
      <stop
   offset="50%"
   style="stop-color: #e9882a; stop-opacity:1"
   id="stop9236" />
      <stop
   offset="100%"
   style="stop-color: #279362; stop-opacity:1"
   id="stop9238" />
    </linearGradient>
    <linearGradient
   id="90ssummer"
   x1="0%"
   x2="0%"
   y1="0%"
   y2="100%">
      <stop
   offset="0%"
   style="stop-color: #f618c7; stop-opacity:1"
   id="stop9241" />
      <stop
   offset="20%"
   style="stop-color: #94ffab; stop-opacity:1"
   id="stop9243" />
      <stop
   offset="50%"
   style="stop-color: #fbfd54; stop-opacity:1"
   id="stop9245" />
      <stop
   offset="100%"
   style="stop-color: #0f83ae; stop-opacity:1"
   id="stop9247" />
    </linearGradient>
    <linearGradient
   id="linearGradient2284"
   gradientTransform="scale(1.6440072,0.60826983)"
   x1="0"
   y1="132.57439"
   x2="77.858536"
   y2="132.57439"
   gradientUnits="userSpaceOnUse">
      <stop
   style="stop-color:#41ff00;stop-opacity:1;"
   offset="0"
   id="stop2280" />
      <stop
   style="stop-color:#e7ff00;stop-opacity:1;"
   offset="1"
   id="stop2282" />
    </linearGradient>
 </defs>
  <path
   id="path30"
   style="display:inline;fill:url(#oomox);fill-opacity:1;fill-rule:evenodd;stroke-width:1.81738"
   class="ColorScheme-Text"
   d="M 29.15625 5.7890625 C 29.032402 5.7874368 28.907566 5.7916268 28.783203 5.7929688 C 29.095482 5.8351787 29.430418 5.8939236 29.814453 5.9863281 C 30.56102 6.1417534 31.212457 6.1614372 31.775391 6.0449219 C 30.913738 5.8893842 30.041635 5.8006953 29.15625 5.7890625 z M 32.558594 6.2167969 C 32.453764 6.2717886 32.347594 6.3237337 32.234375 6.3691406 C 31.80911 6.5399675 31.027348 6.6289062 29.876953 6.6289062 C 28.855592 6.6289062 28.238022 6.6911435 28.025391 6.8183594 L 27.384766 7.2636719 L 28.599609 7.3945312 C 29.622788 7.607164 30.708982 7.9055969 31.859375 8.2890625 C 34.534673 9.2100353 37.153642 9.6986551 39.712891 9.7539062 C 39.711422 9.752767 39.710454 9.7511391 39.708984 9.75 C 37.422914 7.9646311 35.038694 6.7954259 32.558594 6.2167969 z M 23.925781 6.4238281 C 23.728788 6.4485514 23.534231 6.4729301 23.341797 6.4960938 C 23.526194 6.5991511 23.701725 6.7007494 23.851562 6.7988281 C 23.875251 6.6663785 23.901373 6.5520536 23.925781 6.4238281 z M 18.025391 7.6152344 C 16.95732 7.6462217 15.867683 7.8678862 14.75 8.2890625 C 13.216139 8.8778899 12.128131 9.1550812 11.490234 9.1132812 C 11.190389 9.1033852 10.904002 9.0721675 10.628906 9.0234375 C 9.6450851 9.5803591 8.6566777 10.239606 7.6621094 11.029297 C 3.5312365 14.266027 1.1890624 18.452832 0.63476562 23.599609 C 0.038669602 29.137125 1.4231648 33.859104 4.7871094 37.777344 C 7.8548231 41.306666 11.936035 43.627598 17.041016 44.734375 C 22.024234 45.799352 26.639941 45.861724 30.892578 44.925781 C 35.321501 43.946221 39.085662 41.903027 42.193359 38.800781 C 45.346489 35.647653 47.106773 31.460169 47.490234 26.220703 C 47.938129 19.993115 45.64441 14.754612 40.623047 10.496094 C 40.143023 10.533534 39.499069 10.594149 38.496094 10.708984 C 37.474733 10.794401 36.237506 10.750911 34.789062 10.580078 C 33.213404 10.411062 31.772535 10.111219 30.453125 9.6914062 L 28.982422 9.1132812 L 31.472656 10.646484 C 33.297295 11.795061 34.747523 12.81679 35.8125 13.710938 C 37.942458 15.542844 39.539948 16.545829 40.597656 16.714844 C 41.491803 16.836608 42.235934 16.771875 42.832031 16.515625 C 42.619397 16.779144 42.258592 17.01534 41.746094 17.220703 C 40.688385 17.560552 39.412119 17.537761 37.921875 17.154297 C 36.558847 16.778101 35.491539 16.266803 34.724609 15.628906 C 33.745046 14.734759 32.768625 13.903648 31.789062 13.136719 C 30.262471 11.986323 28.685683 11.030601 27.066406 10.263672 L 25.083984 9.4394531 C 23.637358 10.289981 22.258727 11.496739 20.9375 13.074219 C 20.299603 13.882947 19.617708 14.774343 18.892578 15.753906 C 18.211064 16.350003 16.997037 16.799607 15.257812 17.097656 C 13.723954 17.353905 11.872929 16.904301 9.7011719 15.753906 L 12.384766 16.648438 C 14.302091 16.982831 15.645179 16.459379 16.412109 15.052734 C 17.008208 14.073172 17.508467 13.092843 17.935547 12.113281 C 18.233597 11.431767 18.575521 10.8349 18.958984 10.324219 C 19.938547 9.1320243 21.196607 8.4313828 22.730469 8.21875 C 22.814066 8.0969881 21.597543 7.8954641 19.085938 7.6464844 C 18.734277 7.6146802 18.381414 7.6049053 18.025391 7.6152344 z M 31.097656 18.609375 L 25.132812 30.425781 C 24.933197 30.809259 24.67359 31.168475 24.351562 31.490234 C 22.658631 33.18457 19.90973 33.18457 18.216797 31.490234 C 16.522465 29.797304 16.522465 27.050352 18.216797 25.357422 C 18.538577 25.035376 18.899702 24.775794 19.283203 24.576172 L 19.458984 24.488281 L 31.097656 18.609375 z M 21.283203 26.689453 C 20.839144 26.689453 20.395508 26.858397 20.056641 27.197266 C 19.378904 27.875001 19.378904 28.972654 20.056641 29.650391 C 20.734376 30.328126 21.833981 30.328126 22.511719 29.650391 C 23.189455 28.972654 23.189455 27.875001 22.511719 27.197266 C 22.17285 26.858397 21.727263 26.689453 21.283203 26.689453 z " /><path
   id="path254"
   class="ColorScheme-Text"
   style="display:inline;fill:url(#oomox);fill-opacity:0.5;fill-rule:evenodd;stroke-width:1.81738"
   d="M 25.980307,0.5 25.082978,2.4167617 C 24.601562,3.4427052 24.189243,4.9047548 23.850572,6.7983341 23.670852,6.6806954 23.471623,6.5597874 23.240049,6.4348612 22.131452,5.9241794 20.76842,5.6464612 19.15096,5.6028443 17.744313,5.5610447 16.450001,5.8594355 15.257804,6.4973333 13.723944,7.2642631 12.405096,7.7349645 11.296499,7.9057958 9.7281077,8.1602281 8.6430203,7.7554082 8.0451051,6.6904275 L 7.6617529,5.0945468 7.5992806,6.4348612 c 0,0.6815132 0.3642706,1.2780677 1.0875844,1.7832956 0.7669307,0.5597507 1.701404,0.8581415 2.80273,0.8944891 0.637897,0.041799 1.726051,-0.2346681 3.259914,-0.8234969 1.490245,-0.5615684 2.929493,-0.7689762 4.336138,-0.64176 2.511608,0.2489801 3.726863,0.4490058 3.643266,0.5707678 -1.533863,0.2126327 -2.791487,0.9148218 -3.771051,2.1070172 -0.383464,0.510682 -0.724223,1.107464 -1.022273,1.788979 -0.42708,0.979563 -0.928789,1.95947 -1.524888,2.939033 -0.766931,1.406646 -2.10929,1.930275 -4.026617,1.595881 L 9.7006183,15.754579 c 2.1717597,1.150396 4.0233257,1.599401 5.5571857,1.343152 1.739226,-0.29805 2.953233,-0.747055 3.634748,-1.343152 0.725131,-0.979564 1.406646,-1.871897 2.044544,-2.680626 1.321228,-1.577481 2.699254,-2.784218 4.145882,-3.634747 l 1.982072,0.823497 c 1.619278,0.76693 3.195739,1.723325 4.722332,2.873722 0.979563,0.76693 1.95663,1.599062 2.936194,2.49321 0.76693,0.637897 1.834412,1.148692 3.197441,1.524888 1.490245,0.383465 2.767293,0.405159 3.825003,0.06531 0.512499,-0.205363 0.87211,-0.440715 1.084744,-0.704234 -0.596098,0.25625 -1.340654,0.320541 -2.234802,0.198777 -1.057709,-0.169015 -2.654843,-1.172437 -4.784803,-3.004345 -1.064978,-0.894148 -2.514338,-1.915401 -4.338979,-3.063979 l -2.490366,-1.5334083 1.470935,0.5792867 c 1.319411,0.4198136 2.760478,0.7197946 4.336138,0.8888106 1.448445,0.170833 2.684375,0.2132 3.705737,0.127783 1.492064,-0.170833 2.40768,-0.255569 2.740258,-0.255569 1.575662,0 3.469596,0.362454 5.684971,1.087586 C 44.151998,10.431951 41.789634,9.8426651 39.837777,9.757249 37.238935,9.715445 34.577162,9.2250947 31.858372,8.289149 30.707978,7.9056832 29.62164,7.6072923 28.59846,7.3946597 l -1.215369,-0.130614 0.641761,-0.4458251 c 0.212632,-0.1272161 0.830086,-0.1902572 1.851448,-0.1902572 1.150396,0 1.931641,-0.087578 2.356906,-0.2584069 C 32.921991,6.0933157 33.455731,5.6405627 33.831928,5.0008474 33.561139,5.242558 33.071583,5.5341337 32.36099,5.861259 31.679476,6.1593082 30.835189,6.1988361 29.813829,5.9862027 28.748849,5.729953 27.959085,5.666912 27.448405,5.7959455 27.247724,5.8428334 27.04728,5.9024073 26.846397,5.9691594 26.811471,5.3094148 26.821313,4.5933625 26.874809,3.816708 26.960228,2.673582 27.235106,1.9264127 27.703985,1.5847483 27.860279,1.4793407 28.003626,1.4144787 28.15265,1.3944912 H 28.08734 C 28.214553,1.1382415 28.002721,0.90289172 27.448417,0.69025906 27.064953,0.56304293 26.703519,0.50000189 26.36367,0.50000189 Z" />
<metadata
   id="metadata2275"><rdf:RDF><cc:Work><dc:format>image/svg+xml</dc:format><dc:type
         rdf:resource="http://purl.org/dc/dcmitype/StillImage" /><cc:license
         rdf:resource="http://creativecommons.org/licenses/by-sa/4.0/" /><dc:creator><cc:Agent><dc:title>dreifacherspass</dc:title></cc:Agent></dc:creator></cc:Work><cc:License
       rdf:about="http://creativecommons.org/licenses/by-sa/4.0/"><cc:permits
         rdf:resource="http://creativecommons.org/ns#Reproduction" /><cc:permits
         rdf:resource="http://creativecommons.org/ns#Distribution" /><cc:requires
         rdf:resource="http://creativecommons.org/ns#Notice" /><cc:requires
         rdf:resource="http://creativecommons.org/ns#Attribution" /><cc:permits
         rdf:resource="http://creativecommons.org/ns#DerivativeWorks" /><cc:requires
         rdf:resource="http://creativecommons.org/ns#ShareAlike" /></cc:License></rdf:RDF></metadata><g
   id="g1840"
   transform="matrix(0.36718463,0,0,0.36951638,14.525836,25.968012)"
   style="display:inline"><path
     d="M 128,80.641 V 128 H 0 V 80.641 Z"
     id="path359"
     style="fill:url(#linearGradient2284);fill-opacity:1"
     transform="translate(-38.19832,-69.729474)" /><path
     d="M 13.309,80.641 60.664,128 H 81.879 L 34.52,80.641 Z m 42.422,0 47.363,47.359 h 21.215 L 76.946,80.641 Z m 42.43,0 29.84,29.84 V 89.27 l -8.6289,-8.6289 z m -98.16,7.9062 v 21.215 l 18.238,18.238 h 21.215 z"
     id="path361"
     transform="translate(-38.19832,-69.729474)"
     style="fill:#000000;fill-opacity:1" /></g></svg>
