<?xml version="1.0" encoding="UTF-8" standalone="no"?>
<!-- Created with Inkscape (http://www.inkscape.org/) -->

<svg
   width="16"
   height="16"
   viewBox="0 0 4.2333332 4.2333333"
   version="1.1"
   id="svg1"
   xmlns:xlink="http://www.w3.org/1999/xlink"
   xmlns="http://www.w3.org/2000/svg"
   xmlns:svg="http://www.w3.org/2000/svg"
   xmlns:rdf="http://www.w3.org/1999/02/22-rdf-syntax-ns#"
   xmlns:cc="http://creativecommons.org/ns#"
   xmlns:dc="http://purl.org/dc/elements/1.1/">
  <defs>
    <style id="current-color-scheme" type="text/css">
      .ColorScheme-Text { color: #0abdc6; } .ColorScheme-Highlight { color:#5294e2; }
    </style>
    <linearGradient id="arrongin" x1="0%" x2="0%" y1="0%" y2="100%">
      <stop offset="0%" style="stop-color:#dd9b44; stop-opacity:1"/>
      <stop offset="100%" style="stop-color:#ad6c16; stop-opacity:1"/>
    </linearGradient>
    <linearGradient id="aurora" x1="0%" x2="0%" y1="0%" y2="100%">
      <stop offset="0%" style="stop-color:#09D4DF; stop-opacity:1"/>
      <stop offset="100%" style="stop-color:#9269F4; stop-opacity:1"/>
    </linearGradient>
    <linearGradient id="cyberneon" x1="0%" x2="0%" y1="0%" y2="100%">
      <stop offset="0" style="stop-color:#0abdc6; stop-opacity:1"/>
      <stop offset="1" style="stop-color:#ea00d9; stop-opacity:1"/>
    </linearGradient>
    <linearGradient id="fitdance" x1="0%" x2="0%" y1="0%" y2="100%">
      <stop offset="0%" style="stop-color:#1AD6AB; stop-opacity:1"/>
      <stop offset="100%" style="stop-color:#329DB6; stop-opacity:1"/>
    </linearGradient>
    <linearGradient id="oomox" x1="0%" x2="0%" y1="0%" y2="100%">
      <stop offset="0%" style="stop-color:#0abdc6; stop-opacity:1"/>
      <stop offset="100%" style="stop-color:#b800ff; stop-opacity:1"/>
    </linearGradient>
    <linearGradient id="rainblue" x1="0%" x2="0%" y1="0%" y2="100%">
      <stop offset="0%" style="stop-color:#00F260; stop-opacity:1"/>
      <stop offset="100%" style="stop-color:#0575E6; stop-opacity:1"/>
    </linearGradient>
    <linearGradient id="sunrise" x1="0%" x2="0%" y1="0%" y2="100%">
      <stop offset="0%" style="stop-color: #FF8501; stop-opacity:1"/>
      <stop offset="100%" style="stop-color: #FFCB01; stop-opacity:1"/>
    </linearGradient>
    <linearGradient id="telinkrin" x1="0%" x2="0%" y1="0%" y2="100%">
      <stop offset="0%" style="stop-color: #b2ced6; stop-opacity:1"/>
      <stop offset="100%" style="stop-color: #6da5b7; stop-opacity:1"/>
    </linearGradient>
    <linearGradient id="60spsycho" x1="0%" x2="0%" y1="0%" y2="100%">
      <stop offset="0%" style="stop-color: #df5940; stop-opacity:1"/>
      <stop offset="25%" style="stop-color: #d8d15f; stop-opacity:1"/>
      <stop offset="50%" style="stop-color: #e9882a; stop-opacity:1"/>
      <stop offset="100%" style="stop-color: #279362; stop-opacity:1"/>
    </linearGradient>
    <linearGradient id="90ssummer" x1="0%" x2="0%" y1="0%" y2="100%">
      <stop offset="0%" style="stop-color: #f618c7; stop-opacity:1"/>
      <stop offset="20%" style="stop-color: #94ffab; stop-opacity:1"/>
      <stop offset="50%" style="stop-color: #fbfd54; stop-opacity:1"/>
      <stop offset="100%" style="stop-color: #0f83ae; stop-opacity:1"/>
    </linearGradient>
  </defs>
  <path
     d="m 0.45830716,0.7045325 q 0.13869908,0 0.2246322,0.108585 0.0859331,0.10707683 0.0859331,0.3167062 0,0.2096295 -0.0889483,0.3197226 -0.0889483,0.1085849 -0.2276474,0.1085849 -0.0889483,0 -0.14171428,-0.031671 -0.0527659,-0.033179 -0.0859331,-0.073899 h -0.0120608 q 0.0120608,0.063341 0.0120608,0.12065 V 1.9049999 H -2.8475e-6 V 0.71961375 H 0.1824166 l 0.0316596,0.10707687 h 0.0105532 q 0.0331672,-0.0497682 0.0889483,-0.0859631 0.0557811,-0.036195 0.14472946,-0.036195 z m -0.0723647,0.17946683 q -0.0874407,0 -0.1236231,0.054293 -0.0346748,0.054292 -0.0376899,0.16589377 v 0.02413 q 0,0.1191418 0.0346748,0.1839912 0.0361824,0.063341 0.12965349,0.063341 0.0768875,0 0.1130699,-0.063341 0.03769,-0.06485 0.03769,-0.1854995 0,-0.24280807 -0.15377519,-0.24280847 z M 1.2920084,0.70302438 q 0.1658358,0 0.2532765,0.07239 0.088949,0.0708818 0.088949,0.21867815 V 1.5430499 h -0.156791 l -0.04372,-0.1116011 h -0.00603 q -0.052766,0.066358 -0.1115624,0.09652 -0.058796,0.030163 -0.161313,0.030163 -0.1100547,0 -0.18241956,-0.063341 -0.0723647,-0.06485 -0.0723647,-0.1975645 0,-0.1312069 0.0919635,-0.19304 0.091963,-0.063341 0.27589056,-0.069373 l 0.143222,-0.00452 v -0.036195 q 0,-0.06485 -0.034675,-0.095012 -0.033167,-0.030163 -0.093471,-0.030163 -0.060304,0 -0.1175926,0.018097 -0.057289,0.01659 -0.1145775,0.042228 L 0.97692014,0.7769225 Q 1.0432548,0.74223559 1.1231573,0.72263004 1.204568,0.70302438 1.2920084,0.70302438 Z m 0.03166,0.46148632 q -0.1085472,0.00301 -0.1507599,0.039212 -0.042213,0.036195 -0.042213,0.095012 0,0.051277 0.030152,0.073899 0.030152,0.021113 0.078395,0.021113 0.072365,0 0.1221155,-0.042228 0.049751,-0.043736 0.049751,-0.1221582 v -0.067865 z m 0.8020425,0.3936205 q -0.1371914,0 -0.2246322,-0.1070769 -0.085933,-0.1085849 -0.085933,-0.3182143 0,-0.21113747 0.087441,-0.3197225 0.087441,-0.108585 0.2291551,-0.108585 0.088949,0 0.146237,0.0346869 0.057289,0.0346869 0.090456,0.0859631 h 0.00753 Q 2.3714448,0.8010526 2.3654118,0.7558088 2.3593818,0.7090569 2.3593818,0.6607968 V 0.39687499 H 2.5840206 V 1.5430499 H 2.4121543 L 2.3684343,1.435973 h -0.00904 Q 2.3262273,1.487249 2.2704453,1.523445 2.2146643,1.558132 2.1257158,1.558132 Z m 0.078395,-0.1794669 q 0.093471,0 0.1311611,-0.054292 0.03769,-0.0558 0.039198,-0.1658938 v -0.02413 q 0,-0.12065 -0.03769,-0.18399127 -0.036182,-0.063341 -0.1356838,-0.063341 -0.073873,0 -0.1160851,0.06485 -0.042213,0.063341 -0.042213,0.18399117 0,0.12065 0.042213,0.1824831 0.042213,0.060325 0.1190998,0.060325 z m 0.961847,0 q 0.03769,0 0.072365,-0.00753 0.034675,-0.00753 0.069349,-0.018098 v 0.167399 q -0.036182,0.015081 -0.090456,0.025638 -0.052766,0.012065 -0.1160851,0.012065 -0.073873,0 -0.1326686,-0.02413 Q 2.911169,1.5098732 2.8764944,1.4510572 2.8433277,1.3907318 2.8433277,1.2851635 V 0.88852373 H 2.7362871 V 0.79351184 L 2.8599102,0.71810559 2.924737,0.54467121 H 3.0679588 V 0.71961375 H 3.2986215 V 0.88852373 H 3.0679588 V 1.2851607 q 0,0.046751 0.027137,0.070882 0.027137,0.022622 0.070857,0.022622 z M 3.6981355,0.63063438 q 0,0.0603249 -0.00452,0.11612562 -0.00301,0.0558006 -0.00603,0.0784226 h 0.01206 Q 3.7388425,0.7618413 3.8006547,0.733187 3.8624657,0.7045326 3.9378462,0.7045326 q 0.1341763,0 0.214079,0.07239 0.081411,0.0708818 0.081411,0.2292349 V 1.54305 h -0.22463 V 1.0619581 q 0,-0.17795877 -0.1326687,-0.17795877 -0.1010092,0 -0.1402067,0.070882 -0.03769,0.069373 -0.03769,0.20058057 V 1.54305 H 3.473503 V 0.39687499 h 0.2246322 z"
     id="path_padth"
     class="ColorScheme-Text"
     style="font-weight:bold;font-size:1.46679px;font-family:'Noto Sans';-inkscape-font-specification:'Noto Sans Bold';fill:url(#oomox);stroke-width:0.478876;stroke-linecap:round;stroke-linejoin:bevel" />
  <path
     d="M 1.5066697,3.8364581 1.0583333,2.5213243 H 1.3945865 L 1.6209096,3.27042 q 0.0194,0.067436 0.03017,0.1397068 0.012914,0.072253 0.015094,0.1300692 h 0.00869 q 0.00644,-0.1300692 0.04741,-0.2697709 L 1.9485558,2.5213248 h 0.3362529 l -0.448341,1.3151334 z m 1.6683302,0 H 2.8495253 V 2.8416765 q 0,-0.062628 0.00219,-0.1637893 0.00425,-0.1011696 0.00644,-0.1782415 -0.010735,0.014429 -0.047426,0.052995 -0.034485,0.036125 -0.064661,0.065036 L 2.5693151,2.7766432 2.4119657,2.557453 2.907723,2.1166666 h 0.2672769 z"
     id="path_v1"
     class="ColorScheme-Text"
     style="font-weight:bold;font-size:1.46679px;font-family:'Noto Sans';-inkscape-font-specification:'Noto Sans Bold';fill:url(#oomox);stroke-width:0.723643;stroke-linecap:round;stroke-linejoin:bevel" />
  <metadata
     id="metadata1">
    <rdf:RDF>
      <cc:Work
         rdf:about="">
        <dc:creator>
          <cc:Agent>
            <dc:title>dreifacherspass</dc:title>
          </cc:Agent>
        </dc:creator>
      </cc:Work>
    </rdf:RDF>
  </metadata>
</svg>
