<?xml version="1.0" encoding="UTF-8" standalone="no"?>
<svg
   width="16"
   height="16"
   viewBox="0 0 16 16"
   version="1.1"
   id="svg64"
   xmlns:xlink="http://www.w3.org/1999/xlink"
   xmlns="http://www.w3.org/2000/svg"
   xmlns:svg="http://www.w3.org/2000/svg"
   xmlns:rdf="http://www.w3.org/1999/02/22-rdf-syntax-ns#"
   xmlns:cc="http://creativecommons.org/ns#"
   xmlns:dc="http://purl.org/dc/elements/1.1/">
  <defs>
   <style id="current-color-scheme" type="text/css">
   .ColorScheme-Text { color: #0abdc6; } .ColorScheme-Highlight { color:#5294e2; }
  </style>
  <linearGradient id="arrongin" x1="0%" x2="0%" y1="0%" y2="100%">
   <stop offset="0%" style="stop-color:#dd9b44; stop-opacity:1"/>
   <stop offset="100%" style="stop-color:#ad6c16; stop-opacity:1"/>
  </linearGradient>
  <linearGradient id="aurora" x1="0%" x2="0%" y1="0%" y2="100%">
   <stop offset="0%" style="stop-color:#09D4DF; stop-opacity:1"/>
   <stop offset="100%" style="stop-color:#9269F4; stop-opacity:1"/>
  </linearGradient>
  <linearGradient id="cyberneon" x1="0%" x2="0%" y1="0%" y2="100%">
    <stop offset="0" style="stop-color:#0abdc6; stop-opacity:1"/>
    <stop offset="1" style="stop-color:#ea00d9; stop-opacity:1"/>
  </linearGradient>
  <linearGradient id="fitdance" x1="0%" x2="0%" y1="0%" y2="100%">
   <stop offset="0%" style="stop-color:#1AD6AB; stop-opacity:1"/>
   <stop offset="100%" style="stop-color:#329DB6; stop-opacity:1"/>
  </linearGradient>
  <linearGradient id="oomox" x1="0%" x2="0%" y1="0%" y2="100%">
   <stop offset="0%" style="stop-color:#0abdc6; stop-opacity:1"/>
   <stop offset="100%" style="stop-color:#b800ff; stop-opacity:1"/>
  </linearGradient>
  <linearGradient id="rainblue" x1="0%" x2="0%" y1="0%" y2="100%">
   <stop offset="0%" style="stop-color:#00F260; stop-opacity:1"/>
   <stop offset="100%" style="stop-color:#0575E6; stop-opacity:1"/>
  </linearGradient>
  <linearGradient id="sunrise" x1="0%" x2="0%" y1="0%" y2="100%">
   <stop offset="0%" style="stop-color: #FF8501; stop-opacity:1"/>
   <stop offset="100%" style="stop-color: #FFCB01; stop-opacity:1"/>
  </linearGradient>
  <linearGradient id="telinkrin" x1="0%" x2="0%" y1="0%" y2="100%">
   <stop offset="0%" style="stop-color: #b2ced6; stop-opacity:1"/>
   <stop offset="100%" style="stop-color: #6da5b7; stop-opacity:1"/>
  </linearGradient>
  <linearGradient id="60spsycho" x1="0%" x2="0%" y1="0%" y2="100%">
   <stop offset="0%" style="stop-color: #df5940; stop-opacity:1"/>
   <stop offset="25%" style="stop-color: #d8d15f; stop-opacity:1"/>
   <stop offset="50%" style="stop-color: #e9882a; stop-opacity:1"/>
   <stop offset="100%" style="stop-color: #279362; stop-opacity:1"/>
  </linearGradient>
  <linearGradient id="90ssummer" x1="0%" x2="0%" y1="0%" y2="100%">
   <stop offset="0%" style="stop-color: #f618c7; stop-opacity:1"/>
   <stop offset="20%" style="stop-color: #94ffab; stop-opacity:1"/>
   <stop offset="50%" style="stop-color: #fbfd54; stop-opacity:1"/>
   <stop offset="100%" style="stop-color: #0f83ae; stop-opacity:1"/>
  </linearGradient>
 </defs>
  <path
     id="rect717"
     class="ColorScheme-Text"
     style="display:inline;fill:url(#oomox);fill-opacity:1;stroke-width:0.469133"
     d="m 9.425361,0.03295195 c -0.7805025,0 -1.4088511,0.66624535 -1.4088511,1.49382175 V 14.473229 c 0,0.827576 0.6283486,1.493822 1.4088511,1.493822 h 5.165788 C 15.371651,15.967051 16,15.300805 16,14.473229 V 1.5267737 C 16,0.6991973 15.371651,0.03295195 14.591149,0.03295195 Z m 0.939234,6.56109945 h 3.28732 v 0.9373001 h -3.28732 z m 0,1.8745998 h 3.28732 v 0.9373001 h -3.28732 z" />
  <path
     id="circle777"
     class="ColorScheme-Text"
     style="display:inline;fill:url(#oomox);fill-opacity:1;stroke-width:0.469133"
     d="M 3.3203394,0 A 3.3201927,3.3133553 0 0 0 0,3.3135016 3.3201927,3.3133553 0 0 0 3.3203394,6.6270032 3.3201927,3.3133553 0 0 0 6.6406785,3.3135016 3.3201927,3.3133553 0 0 0 3.3203394,0 Z M 2.8507223,1.4389018 H 3.7899564 V 2.8448517 H 5.1988075 V 3.7821515 H 3.7899564 V 5.1881014 H 2.8507223 V 3.7821515 H 1.4418711 V 2.8448517 h 1.4088512 z" />
  <path
     id="circle747"
     style="display:inline;fill:url(#oomox);fill-opacity:1;stroke-width:0.469133"
     class="ColorScheme-Text"
     d="m 3.3203394,9.3729998 a 3.3201927,3.3133553 0 0 0 -0.4540244,0.03295 3.3201927,3.3133553 0 0 0 -0.1339141,0.025627 3.3201927,3.3133553 0 0 0 -0.315524,0.06865 3.3201927,3.3133553 0 0 0 -0.1632652,0.055835 3.3201927,3.3133553 0 0 0 -0.2549875,0.095195 3.3201927,3.3133553 0 0 0 -0.1816098,0.088787 3.3201927,3.3133553 0 0 0 -0.2283879,0.1244851 3.3201927,3.3133553 0 0 0 -0.1605137,0.1070941 3.3201927,3.3133553 0 0 0 -0.2072919,0.155606 3.3201927,3.3133553 0 0 0 -0.1513414,0.131808 3.3201927,3.3133553 0 0 0 -0.1834442,0.183066 3.3201927,3.3133553 0 0 0 -0.12749366,0.144623 3.3201927,3.3133553 0 0 0 -0.16234811,0.216018 3.3201927,3.3133553 0 0 0 -0.10272872,0.154691 3.3201927,3.3133553 0 0 0 -0.12565927,0.228833 3.3201927,3.3133553 0 0 0 -0.0889704,0.181236 3.3201927,3.3133553 0 0 0 -0.0898877,0.240732 3.3201927,3.3133553 0 0 0 -0.062371,0.183066 3.3201927,3.3133553 0 0 0 -0.0632882,0.290161 A 3.3201927,3.3133553 0 0 0 0.03301998,12.233408 3.3201927,3.3133553 0 0 0 6.5051474e-8,12.686497 3.3201927,3.3133553 0 0 0 0.00825504,12.918077 3.3201927,3.3133553 0 0 1 0.01375836,12.877801 3.3201927,3.3133553 0 0 0 3.3203394,16 a 3.3201927,3.3133553 0 0 0 3.3065811,-3.119451 3.3201927,3.3133553 0 0 1 0.0055,0.04302 3.3201927,3.3133553 0 0 0 0.00826,-0.231579 3.3201927,3.3133553 0 0 0 0,-9.53e-4 3.3201927,3.3133553 0 0 0 0,-9.53e-4 3.3201927,3.3133553 0 0 0 0,-9.53e-4 3.3201927,3.3133553 0 0 0 0,-9.54e-4 3.3201927,3.3133553 0 0 0 0,-9.53e-4 3.3201927,3.3133553 0 0 0 0,-9.53e-4 3.3201927,3.3133553 0 0 0 -0.00366,-0.161098 3.3201927,3.3133553 0 0 0 0,-9.53e-4 3.3201927,3.3133553 0 0 0 0,-9.54e-4 3.3201927,3.3133553 0 0 0 -9.532e-4,-0.01464 3.3201927,3.3133553 0 0 0 -0.010087,-0.136385 3.3201927,3.3133553 0 0 0 -9.532e-4,-0.01098 3.3201927,3.3133553 0 0 0 -0.00366,-0.02929 3.3201927,3.3133553 0 0 0 -0.015591,-0.124486 3.3201927,3.3133553 0 0 0 -9.532e-4,-0.0073 3.3201927,3.3133553 0 0 0 -0.00366,-0.01922 3.3201927,3.3133553 0 0 0 -0.023847,-0.138216 3.3201927,3.3133553 0 0 0 -9.532e-4,-0.0028 3.3201927,3.3133553 0 0 0 -9.532e-4,-0.0037 3.3201927,3.3133553 0 0 0 -0.028436,-0.129977 3.3201927,3.3133553 0 0 0 -0.014676,-0.05858 3.3201927,3.3133553 0 0 0 -0.028436,-0.100687 3.3201927,3.3133553 0 0 0 -0.00642,-0.02288 3.3201927,3.3133553 0 0 0 -0.0046,-0.01465 3.3201927,3.3133553 0 0 0 -0.046779,-0.139131 3.3201927,3.3133553 0 0 0 -0.058702,-0.151945 3.3201927,3.3133553 0 0 0 -0.06604,-0.1492 3.3201927,3.3133553 0 0 0 -0.060537,-0.119908 3.3201927,3.3133553 0 0 0 -0.011925,-0.02472 3.3201927,3.3133553 0 0 0 -0.0046,-0.0082 3.3201927,3.3133553 0 0 0 -0.076129,-0.133638 3.3201927,3.3133553 0 0 0 -0.087136,-0.1373 3.3201927,3.3133553 0 0 0 -0.090805,-0.128147 3.3201927,3.3133553 0 0 0 -0.00276,-0.0046 3.3201927,3.3133553 0 0 0 -0.00734,-0.0092 3.3201927,3.3133553 0 0 0 -0.093556,-0.118993 3.3201927,3.3133553 0 0 0 -0.098143,-0.114417 3.3201927,3.3133553 0 0 0 -0.00826,-0.0092 3.3201927,3.3133553 0 0 0 -0.011922,-0.01281 3.3201927,3.3133553 0 0 0 -0.078881,-0.0833 3.3201927,3.3133553 0 0 0 -0.051364,-0.05034 3.3201927,3.3133553 0 0 0 -0.058702,-0.05584 3.3201927,3.3133553 0 0 0 -0.029351,-0.02746 3.3201927,3.3133553 0 0 0 -0.016511,-0.01465 3.3201927,3.3133553 0 0 0 -0.071543,-0.06133 3.3201927,3.3133553 0 0 0 -0.055033,-0.04577 A 3.3201927,3.3133553 0 0 0 5.2976736,10.025311 3.3201927,3.3133553 0 0 0 5.1683452,9.933778 3.3201927,3.3133553 0 0 0 5.1646852,9.9310546 3.3201927,3.3133553 0 0 0 5.163732,9.9301355 3.3201927,3.3133553 0 0 0 5.072,9.8724698 3.3201927,3.3133553 0 0 0 5.0270577,9.8440953 3.3201927,3.3133553 0 0 0 5.0233947,9.842257 3.3201927,3.3133553 0 0 0 4.9986322,9.8276085 3.3201927,3.3133553 0 0 0 4.8859656,9.7646471 3.3201927,3.3133553 0 0 0 4.7612238,9.701489 3.3201927,3.3133553 0 0 0 4.7401278,9.6914192 3.3201927,3.3133553 0 0 0 4.7181158,9.6813494 3.3201927,3.3133553 0 0 0 4.5906217,9.6255139 3.3201927,3.3133553 0 0 0 4.4567078,9.5733402 3.3201927,3.3133553 0 0 0 4.4392818,9.56693 3.3201927,3.3133553 0 0 0 4.4117648,9.557776 3.3201927,3.3133553 0 0 0 4.3081188,9.5239105 3.3201927,3.3133553 0 0 0 4.2411608,9.5037743 3.3201927,3.3133553 0 0 0 4.1668658,9.4836381 3.3201927,3.3133553 0 0 0 4.1017428,9.4671615 3.3201927,3.3133553 0 0 0 3.9815872,9.4397028 a 3.3201927,3.3133553 0 0 0 -0.01376,-0.00272 3.3201927,3.3133553 0 0 0 -0.00734,-9.192e-4 3.3201927,3.3133553 0 0 0 -0.1118989,-0.020136 3.3201927,3.3133553 0 0 0 -0.06604,-0.01007 3.3201927,3.3133553 0 0 0 -0.093556,-0.010986 3.3201927,3.3133553 0 0 0 -0.043111,-0.00549 3.3201927,3.3133553 0 0 0 -0.00826,-9.192e-4 3.3201927,3.3133553 0 0 0 -0.1513413,-0.010986 3.3201927,3.3133553 0 0 0 -0.00276,0 3.3201927,3.3133553 0 0 0 -0.1632651,-0.00458 z M 1.4418711,12.217852 h 3.7569364 v 0.9373 H 1.4418711 Z" />
  <metadata
     id="metadata2450">
    <rdf:RDF>
      <cc:Work
         rdf:about="">
        <dc:creator>
          <cc:Agent>
            <dc:title>dreifacherspass</dc:title>
          </cc:Agent>
        </dc:creator>
        <cc:license
           rdf:resource="http://creativecommons.org/licenses/by-sa/4.0/" />
      </cc:Work>
      <cc:License
         rdf:about="http://creativecommons.org/licenses/by-sa/4.0/">
        <cc:permits
           rdf:resource="http://creativecommons.org/ns#Reproduction" />
        <cc:permits
           rdf:resource="http://creativecommons.org/ns#Distribution" />
        <cc:requires
           rdf:resource="http://creativecommons.org/ns#Notice" />
        <cc:requires
           rdf:resource="http://creativecommons.org/ns#Attribution" />
        <cc:permits
           rdf:resource="http://creativecommons.org/ns#DerivativeWorks" />
        <cc:requires
           rdf:resource="http://creativecommons.org/ns#ShareAlike" />
      </cc:License>
    </rdf:RDF>
  </metadata>
</svg>
