<?xml version="1.0" encoding="UTF-8" standalone="no"?>
<svg
   width="16"
   height="16"
   version="1.1"
   viewBox="0 0 4.2333333 4.2333333"
   id="svg15"
   xmlns:xlink="http://www.w3.org/1999/xlink"
   xmlns="http://www.w3.org/2000/svg"
   xmlns:svg="http://www.w3.org/2000/svg"
   xmlns:rdf="http://www.w3.org/1999/02/22-rdf-syntax-ns#"
   xmlns:cc="http://creativecommons.org/ns#"
   xmlns:dc="http://purl.org/dc/elements/1.1/">
   <defs>
      <style id="current-color-scheme" type="text/css">
         .ColorScheme-Text { color: #0abdc6; } .ColorScheme-Highlight { color:#5294e2; }
      </style>
      <linearGradient id="arrongin" x1="0%" x2="0%" y1="0%" y2="100%">
         <stop offset="0%" style="stop-color:#dd9b44; stop-opacity:1"/>
         <stop offset="100%" style="stop-color:#ad6c16; stop-opacity:1"/>
      </linearGradient>
      <linearGradient id="aurora" x1="0%" x2="0%" y1="0%" y2="100%">
         <stop offset="0%" style="stop-color:#09D4DF; stop-opacity:1"/>
         <stop offset="100%" style="stop-color:#9269F4; stop-opacity:1"/>
      </linearGradient>
      <linearGradient id="cyberneon" x1="0%" x2="0%" y1="0%" y2="100%">
         <stop offset="0" style="stop-color:#0abdc6; stop-opacity:1"/>
         <stop offset="1" style="stop-color:#ea00d9; stop-opacity:1"/>
      </linearGradient>
      <linearGradient id="fitdance" x1="0%" x2="0%" y1="0%" y2="100%">
         <stop offset="0%" style="stop-color:#1AD6AB; stop-opacity:1"/>
         <stop offset="100%" style="stop-color:#329DB6; stop-opacity:1"/>
      </linearGradient>
      <linearGradient id="oomox" x1="0%" x2="0%" y1="0%" y2="100%">
         <stop offset="0%" style="stop-color:#0abdc6; stop-opacity:1"/>
         <stop offset="100%" style="stop-color:#b800ff; stop-opacity:1"/>
      </linearGradient>
      <linearGradient id="rainblue" x1="0%" x2="0%" y1="0%" y2="100%">
         <stop offset="0%" style="stop-color:#00F260; stop-opacity:1"/>
         <stop offset="100%" style="stop-color:#0575E6; stop-opacity:1"/>
      </linearGradient>
      <linearGradient id="sunrise" x1="0%" x2="0%" y1="0%" y2="100%">
         <stop offset="0%" style="stop-color: #FF8501; stop-opacity:1"/>
         <stop offset="100%" style="stop-color: #FFCB01; stop-opacity:1"/>
      </linearGradient>
      <linearGradient id="telinkrin" x1="0%" x2="0%" y1="0%" y2="100%">
         <stop offset="0%" style="stop-color: #b2ced6; stop-opacity:1"/>
         <stop offset="100%" style="stop-color: #6da5b7; stop-opacity:1"/>
      </linearGradient>
      <linearGradient id="60spsycho" x1="0%" x2="0%" y1="0%" y2="100%">
         <stop offset="0%" style="stop-color: #df5940; stop-opacity:1"/>
         <stop offset="25%" style="stop-color: #d8d15f; stop-opacity:1"/>
         <stop offset="50%" style="stop-color: #e9882a; stop-opacity:1"/>
         <stop offset="100%" style="stop-color: #279362; stop-opacity:1"/>
      </linearGradient>
      <linearGradient id="90ssummer" x1="0%" x2="0%" y1="0%" y2="100%">
         <stop offset="0%" style="stop-color: #f618c7; stop-opacity:1"/>
         <stop offset="20%" style="stop-color: #94ffab; stop-opacity:1"/>
         <stop offset="50%" style="stop-color: #fbfd54; stop-opacity:1"/>
         <stop offset="100%" style="stop-color: #0f83ae; stop-opacity:1"/>
      </linearGradient>
   </defs>
  <path
     d="m 1.719272,0.26458334 c -0.04976,0 -0.090235,0.037037 -0.098185,0.0834574 L 1.5464145,0.87384841 C 1.425562,0.92445141 1.3133345,0.99014535 1.2112929,1.0691853 L 0.71674947,0.86997276 c -0.044748,-0.0167275 -0.0962496,-2.395e-5 -0.12092284,0.042633 L 0.2612218,1.4924152 0.1860325,1.3844115 l -2.584e-4,0.2656169 2.584e-4,-7.75e-4 c 4.37e-5,0.029268 0.013038,0.057828 0.0369485,0.077515 l 0.41806233,0.3286621 c -0.007907,0.063567 -0.013694,0.1281285 -0.013694,0.1937866 0,0.065658 0.005796,0.1297045 0.013694,0.1932698 L 0.2632888,2.7393676 0.18577415,2.5879556 v 0.2599325 l 2.5845e-4,-2.584e-4 c -6.345e-5,0.016947 0.00415,0.034326 0.0131775,0.050385 L 0.59582668,3.585311 c 0.0246735,0.042655 0.0766033,0.060616 0.12092284,0.042633 L 1.2112929,3.4287311 C 1.3133365,3.5069342 1.425556,3.573466 1.5464145,3.624068 l 0.074672,0.5258078 c 0.00791,0.046835 0.048415,0.083457 0.098186,0.083457 h 0.7937494 c 0.049775,0 0.090235,-0.037035 0.098186,-0.083457 L 2.6856214,3.624068 C 2.8064899,3.5734651 2.9192194,3.507771 3.0212599,3.4287311 l 0.4940265,0.1992126 c 0.044745,0.016728 0.096249,2.22e-5 0.120923,-0.042633 L 4.0330842,2.8980142 c 0.0093,-0.016076 0.0135,-0.033574 0.013175,-0.050902 l 0.0013,7.75e-4 V 2.5879556 L 3.9697827,2.7398843 3.5920279,2.4424865 c 0.00791,-0.063567 0.013695,-0.1276133 0.013695,-0.1932699 0,-0.065658 -0.00579,-0.1302196 -0.013695,-0.1937866 L 4.0100902,1.7267679 c 0.02435,-0.019213 0.037145,-0.048258 0.03669,-0.07829 l 7.5e-4,0.00155 -2.585e-4,-0.2656169 -0.07519,0.1080037 0.00155,0.0031 L 3.6369604,0.91260551 C 3.6122854,0.86994831 3.5606159,0.85198996 3.5162959,0.86997246 L 3.0220109,1.069185 C 2.9199709,0.9909817 2.8072329,0.92445046 2.6863724,0.87384811 l -0.07439,-0.52580733 c -0.00879,-0.046838 -0.049615,-0.0834574 -0.098961,-0.0834574 z M 2.1171805,1.5541686 c 0.3839069,0 0.6947899,0.3111408 0.6947899,0.695048 0,0.3839072 -0.310883,0.6945313 -0.6947899,0.6945313 -0.383908,0 -0.694531,-0.3106241 -0.694531,-0.6945313 0,-0.3839072 0.310623,-0.695048 0.694531,-0.695048 z"
     stroke-width="0.4182"
     id="path8-7"
     class="ColorScheme-Text"
     style="opacity:0.5;fill:url(#oomox)" />
  <path
     d="m 1.7190927,0 c -0.04976,0 -0.090235,0.0370365 -0.098185,0.08345745 L 1.5462352,0.60926512 C 1.4253827,0.65986802 1.3131555,0.72556197 1.2111136,0.80460201 L 0.71657012,0.60538932 c -0.044748,-0.0167275 -0.0962496,-2.385e-5 -0.12092284,0.0426328 L 0.1990307,1.3353187 c -0.0246735,0.042657 -0.013815,0.095919 0.023771,0.1268656 l 0.41806233,0.3286621 c -0.007907,0.063567 -0.013694,0.1281286 -0.013694,0.1937866 0,0.065659 0.005796,0.1297045 0.013694,0.1932698 L 0.22280185,2.5065652 c -0.037634,0.029692 -0.0484445,0.082955 -0.023771,0.1268656 l 0.39661653,0.6872965 c 0.0246735,0.042655 0.0766032,0.060616 0.12092279,0.042633 L 1.2111136,3.1641478 c 0.1020436,0.078203 0.2142626,0.1447349 0.3351216,0.1953368 l 0.074672,0.5258077 c 0.00791,0.046835 0.048415,0.083457 0.098186,0.083457 h 0.7937494 c 0.049775,0 0.090235,-0.037035 0.098185,-0.083457 L 2.6854421,3.3594846 C 2.8063106,3.3088818 2.9190401,3.2431877 3.0210806,3.1641478 l 0.4940265,0.1992126 c 0.044745,0.016728 0.096249,2.21e-5 0.120923,-0.042633 L 4.0329052,2.6334307 c 0.024675,-0.042655 0.013815,-0.095919 -0.02377,-0.1268656 L 3.5918466,2.1779031 c 0.00791,-0.063567 0.013695,-0.1276132 0.013695,-0.1932698 0,-0.065659 -0.00579,-0.1302197 -0.013695,-0.1937866 L 4.0099092,1.4621846 c 0.037635,-0.029692 0.048445,-0.082955 0.02377,-0.1268657 L 3.6368051,0.64802237 C 3.6121321,0.60536527 3.5604606,0.58740692 3.5161406,0.60538932 L 3.0218556,0.80460201 C 2.9198151,0.72639862 2.8070776,0.65986732 2.6862171,0.60926512 L 2.6118031,0.08345745 C 2.6030131,0.0366194 2.5621931,0 2.5128426,0 Z m 0.396875,1.3229166 c 0.3699179,0 0.6622334,0.2915397 0.6622334,0.6614583 0,0.3699187 -0.2923155,0.6614582 -0.6622334,0.6614582 -0.369919,0 -0.661458,-0.2915395 -0.661458,-0.6614582 0,-0.3699186 0.291539,-0.6614583 0.661458,-0.6614583 z"
     stroke-width="0.4182"
     id="path9-5"
     class="ColorScheme-Text"
     style="fill:url(#oomox)" />
  <metadata
     id="metadata16">
    <rdf:RDF>
      <cc:Work
         rdf:about="">
        <dc:creator>
          <cc:Agent>
            <dc:title>dreifacherspass</dc:title>
          </cc:Agent>
        </dc:creator>
        <cc:license
           rdf:resource="http://creativecommons.org/licenses/by-sa/4.0/" />
      </cc:Work>
      <cc:License
         rdf:about="http://creativecommons.org/licenses/by-sa/4.0/">
        <cc:permits
           rdf:resource="http://creativecommons.org/ns#Reproduction" />
        <cc:permits
           rdf:resource="http://creativecommons.org/ns#Distribution" />
        <cc:requires
           rdf:resource="http://creativecommons.org/ns#Notice" />
        <cc:requires
           rdf:resource="http://creativecommons.org/ns#Attribution" />
        <cc:permits
           rdf:resource="http://creativecommons.org/ns#DerivativeWorks" />
        <cc:requires
           rdf:resource="http://creativecommons.org/ns#ShareAlike" />
      </cc:License>
    </rdf:RDF>
  </metadata>
</svg>
