<?xml version="1.0" encoding="UTF-8" standalone="no"?>
<svg
   viewBox="0 0 16 16"
   style="display:inline;enable-background:new"
   version="1.0"
   id="svg11300"
   height="16"
   width="16"
   xmlns="http://www.w3.org/2000/svg"
   xmlns:svg="http://www.w3.org/2000/svg"
   xmlns:rdf="http://www.w3.org/1999/02/22-rdf-syntax-ns#"
   xmlns:cc="http://creativecommons.org/ns#"
   xmlns:dc="http://purl.org/dc/elements/1.1/">
  <defs>
   <style id="current-color-scheme" type="text/css">
   .ColorScheme-Text { color: #0abdc6; } .ColorScheme-Highlight { color:#5294e2; }
  </style>
  <linearGradient id="arrongin" x1="0%" x2="0%" y1="0%" y2="100%">
   <stop offset="0%" style="stop-color:#dd9b44; stop-opacity:1"/>
   <stop offset="100%" style="stop-color:#ad6c16; stop-opacity:1"/>
  </linearGradient>
  <linearGradient id="aurora" x1="0%" x2="0%" y1="0%" y2="100%">
   <stop offset="0%" style="stop-color:#09D4DF; stop-opacity:1"/>
   <stop offset="100%" style="stop-color:#9269F4; stop-opacity:1"/>
  </linearGradient>
  <linearGradient id="cyberneon" x1="0%" x2="0%" y1="0%" y2="100%">
    <stop offset="0" style="stop-color:#0abdc6; stop-opacity:1"/>
    <stop offset="1" style="stop-color:#ea00d9; stop-opacity:1"/>
  </linearGradient>
  <linearGradient id="fitdance" x1="0%" x2="0%" y1="0%" y2="100%">
   <stop offset="0%" style="stop-color:#1AD6AB; stop-opacity:1"/>
   <stop offset="100%" style="stop-color:#329DB6; stop-opacity:1"/>
  </linearGradient>
  <linearGradient id="oomox" x1="0%" x2="0%" y1="0%" y2="100%">
   <stop offset="0%" style="stop-color:#0abdc6; stop-opacity:1"/>
   <stop offset="100%" style="stop-color:#b800ff; stop-opacity:1"/>
  </linearGradient>
  <linearGradient id="rainblue" x1="0%" x2="0%" y1="0%" y2="100%">
   <stop offset="0%" style="stop-color:#00F260; stop-opacity:1"/>
   <stop offset="100%" style="stop-color:#0575E6; stop-opacity:1"/>
  </linearGradient>
  <linearGradient id="sunrise" x1="0%" x2="0%" y1="0%" y2="100%">
   <stop offset="0%" style="stop-color: #FF8501; stop-opacity:1"/>
   <stop offset="100%" style="stop-color: #FFCB01; stop-opacity:1"/>
  </linearGradient>
  <linearGradient id="telinkrin" x1="0%" x2="0%" y1="0%" y2="100%">
   <stop offset="0%" style="stop-color: #b2ced6; stop-opacity:1"/>
   <stop offset="100%" style="stop-color: #6da5b7; stop-opacity:1"/>
  </linearGradient>
  <linearGradient id="60spsycho" x1="0%" x2="0%" y1="0%" y2="100%">
   <stop offset="0%" style="stop-color: #df5940; stop-opacity:1"/>
   <stop offset="25%" style="stop-color: #d8d15f; stop-opacity:1"/>
   <stop offset="50%" style="stop-color: #e9882a; stop-opacity:1"/>
   <stop offset="100%" style="stop-color: #279362; stop-opacity:1"/>
  </linearGradient>
  <linearGradient id="90ssummer" x1="0%" x2="0%" y1="0%" y2="100%">
   <stop offset="0%" style="stop-color: #f618c7; stop-opacity:1"/>
   <stop offset="20%" style="stop-color: #94ffab; stop-opacity:1"/>
   <stop offset="50%" style="stop-color: #fbfd54; stop-opacity:1"/>
   <stop offset="100%" style="stop-color: #0f83ae; stop-opacity:1"/>
  </linearGradient>
 </defs>
  <path
     id="path884"
     class="ColorScheme-Text"
     style="font-variation-settings:normal;display:inline;opacity:1;vector-effect:none;fill:url(#oomox);fill-opacity:1;stroke:none;stroke-width:0.263359;stroke-linecap:butt;stroke-linejoin:miter;stroke-miterlimit:4;stroke-dasharray:none;stroke-dashoffset:0;stroke-opacity:1;-inkscape-stroke:none;enable-background:new;stop-color:#000000;stop-opacity:1"
     d="M 1.2307181,0 C 0.54887278,0 0,0.57084137 0,1.279971 v 4.9601545 1.0116686 c 0.37188116,0.9911762 0.90745273,1.9171719 1.631649,2.7279809 0.8466607,0.947915 2.1050254,1.74105 3.4069147,2.035092 1.3018894,0.294042 2.647488,0.08975 3.6708777,-0.955658 0.3505212,-0.358054 0.6457787,-0.888576 0.75,-1.4321027 C 9.5636613,9.0835833 9.4764865,8.527081 9.0631649,8.1154806 8.9319894,7.9848504 8.7380306,7.8737142 8.5412235,7.8368045 8.3456266,7.8001215 8.1483163,7.8368718 8.005984,8.0000002 8.1647963,8.1500854 8.200463,8.3591163 8.1648936,8.5642669 8.1290815,8.7708053 8.0209957,8.973612 7.8942819,9.1112453 7.4964974,9.5433063 6.9585767,9.6342156 6.4341757,9.525455 5.909776,9.416691 5.398622,9.1084412 5.0531915,8.742676 4.2977954,7.9428212 3.9984262,6.9544278 4.0152926,5.937937 4.0209096,5.5991044 4.0615357,5.2569331 4.1323139,4.9179695 4.4154322,3.5621079 5.1784344,2.2529703 6.0910904,1.3712485 6.673825,0.8082707 7.3185641,0.35534903 8.0046543,0 Z M 9.9827129,3.863429 C 9.0070308,3.8457619 8.0581008,4.1567308 7.2905586,4.9407915 6.9400374,5.298849 6.6447799,5.8300616 6.5405586,6.3735845 6.4363387,6.9171039 6.5235135,7.4729229 6.9368351,7.8845198 7.0680106,8.01515 7.2619707,8.1262862 7.4587765,8.1631958 7.6544429,8.1998931 7.852338,8.1632808 7.9946809,8.0000002 7.8358611,7.8499362 7.8002053,7.6408663 7.8357712,7.4357335 7.8715806,7.2292093 7.9790134,7.0263742 8.1057181,6.8887551 8.5034839,6.4567154 9.0414373,6.3657883 9.5658243,6.4745453 c 0.5243847,0.108757 1.0355627,0.4170281 1.3809847,0.7827791 0.755385,0.7998477 1.054766,1.7882624 1.037898,2.8047386 -0.0056,0.338822 -0.04624,0.681005 -0.117021,1.019968 -0.283115,1.355843 -1.045466,2.66501 -1.9581115,3.546721 C 9.3268337,15.191737 8.6814679,15.644648 7.9953457,16 H 10 14.769282 C 15.451127,16 16,15.429163 16,14.72003 V 10.400209 8.7482063 C 15.628088,7.757023 15.092549,6.8310308 14.368351,6.0202252 13.521687,5.0723103 12.26399,4.2798658 10.962101,3.985824 10.636627,3.9123126 10.307939,3.8693239 9.9827129,3.863429 Z" />
  <metadata
     id="metadata245">
    <rdf:RDF>
      <cc:Work
         rdf:about="">
        <dc:creator>
          <cc:Agent>
            <dc:title>dreifacherspass</dc:title>
          </cc:Agent>
        </dc:creator>
        <cc:license
           rdf:resource="http://creativecommons.org/licenses/by-sa/4.0/" />
      </cc:Work>
      <cc:License
         rdf:about="http://creativecommons.org/licenses/by-sa/4.0/">
        <cc:permits
           rdf:resource="http://creativecommons.org/ns#Reproduction" />
        <cc:permits
           rdf:resource="http://creativecommons.org/ns#Distribution" />
        <cc:requires
           rdf:resource="http://creativecommons.org/ns#Notice" />
        <cc:requires
           rdf:resource="http://creativecommons.org/ns#Attribution" />
        <cc:permits
           rdf:resource="http://creativecommons.org/ns#DerivativeWorks" />
        <cc:requires
           rdf:resource="http://creativecommons.org/ns#ShareAlike" />
      </cc:License>
    </rdf:RDF>
  </metadata>
</svg>
