<?xml version="1.0" encoding="UTF-8" standalone="no"?>
<!-- Created with Inkscape (http://www.inkscape.org/) -->

<svg
   version="1.1"
   width="16"
   height="16"
   id="svg3047"
   xmlns:xlink="http://www.w3.org/1999/xlink"
   xmlns="http://www.w3.org/2000/svg"
   xmlns:svg="http://www.w3.org/2000/svg"
   xmlns:rdf="http://www.w3.org/1999/02/22-rdf-syntax-ns#"
   xmlns:cc="http://creativecommons.org/ns#"
   xmlns:dc="http://purl.org/dc/elements/1.1/">
   <defs>
      <style id="current-color-scheme" type="text/css">
         .ColorScheme-Text { color: #0abdc6; } .ColorScheme-Highlight { color:#5294e2; }
      </style>
      <linearGradient id="arrongin" x1="0%" x2="0%" y1="0%" y2="100%">
         <stop offset="0%" style="stop-color:#dd9b44; stop-opacity:1"/>
         <stop offset="100%" style="stop-color:#ad6c16; stop-opacity:1"/>
      </linearGradient>
      <linearGradient id="aurora" x1="0%" x2="0%" y1="0%" y2="100%">
         <stop offset="0%" style="stop-color:#09D4DF; stop-opacity:1"/>
         <stop offset="100%" style="stop-color:#9269F4; stop-opacity:1"/>
      </linearGradient>
      <linearGradient id="cyberneon" x1="0%" x2="0%" y1="0%" y2="100%">
         <stop offset="0" style="stop-color:#0abdc6; stop-opacity:1"/>
         <stop offset="1" style="stop-color:#ea00d9; stop-opacity:1"/>
      </linearGradient>
      <linearGradient id="fitdance" x1="0%" x2="0%" y1="0%" y2="100%">
         <stop offset="0%" style="stop-color:#1AD6AB; stop-opacity:1"/>
         <stop offset="100%" style="stop-color:#329DB6; stop-opacity:1"/>
      </linearGradient>
      <linearGradient id="oomox" x1="0%" x2="0%" y1="0%" y2="100%">
         <stop offset="0%" style="stop-color:#0abdc6; stop-opacity:1"/>
         <stop offset="100%" style="stop-color:#b800ff; stop-opacity:1"/>
      </linearGradient>
      <linearGradient id="rainblue" x1="0%" x2="0%" y1="0%" y2="100%">
         <stop offset="0%" style="stop-color:#00F260; stop-opacity:1"/>
         <stop offset="100%" style="stop-color:#0575E6; stop-opacity:1"/>
      </linearGradient>
      <linearGradient id="sunrise" x1="0%" x2="0%" y1="0%" y2="100%">
         <stop offset="0%" style="stop-color: #FF8501; stop-opacity:1"/>
         <stop offset="100%" style="stop-color: #FFCB01; stop-opacity:1"/>
      </linearGradient>
      <linearGradient id="telinkrin" x1="0%" x2="0%" y1="0%" y2="100%">
         <stop offset="0%" style="stop-color: #b2ced6; stop-opacity:1"/>
         <stop offset="100%" style="stop-color: #6da5b7; stop-opacity:1"/>
      </linearGradient>
      <linearGradient id="60spsycho" x1="0%" x2="0%" y1="0%" y2="100%">
         <stop offset="0%" style="stop-color: #df5940; stop-opacity:1"/>
         <stop offset="25%" style="stop-color: #d8d15f; stop-opacity:1"/>
         <stop offset="50%" style="stop-color: #e9882a; stop-opacity:1"/>
         <stop offset="100%" style="stop-color: #279362; stop-opacity:1"/>
      </linearGradient>
      <linearGradient id="90ssummer" x1="0%" x2="0%" y1="0%" y2="100%">
         <stop offset="0%" style="stop-color: #f618c7; stop-opacity:1"/>
         <stop offset="20%" style="stop-color: #94ffab; stop-opacity:1"/>
         <stop offset="50%" style="stop-color: #fbfd54; stop-opacity:1"/>
         <stop offset="100%" style="stop-color: #0f83ae; stop-opacity:1"/>
      </linearGradient>
   </defs>
  <metadata
     id="metadata32">
    <rdf:RDF>
      <cc:Work
         rdf:about="">
        <dc:format>image/svg+xml</dc:format>
        <dc:type
           rdf:resource="http://purl.org/dc/dcmitype/StillImage" />
        <dc:creator>
          <cc:Agent>
            <dc:title>dreifacherspass</dc:title>
          </cc:Agent>
        </dc:creator>
        <cc:license
           rdf:resource="http://creativecommons.org/licenses/by-sa/4.0/" />
      </cc:Work>
      <cc:License
         rdf:about="http://creativecommons.org/licenses/by-sa/4.0/">
        <cc:permits
           rdf:resource="http://creativecommons.org/ns#Reproduction" />
        <cc:permits
           rdf:resource="http://creativecommons.org/ns#Distribution" />
        <cc:requires
           rdf:resource="http://creativecommons.org/ns#Notice" />
        <cc:requires
           rdf:resource="http://creativecommons.org/ns#Attribution" />
        <cc:permits
           rdf:resource="http://creativecommons.org/ns#DerivativeWorks" />
        <cc:requires
           rdf:resource="http://creativecommons.org/ns#ShareAlike" />
      </cc:License>
    </rdf:RDF>
  </metadata>
  <path
     id="path24"
     class="ColorScheme-Text"
     style="fill:url(#oomox);stroke:none;stroke-width:6.24077;stroke-linecap:square"
     d="M 8 0 A 8 8 0 0 0 0 8 A 8 8 0 0 0 8 16 A 8 8 0 0 0 16 8 A 8 8 0 0 0 8 0 z M 11.376953 2.7207031 C 11.669446 2.8878555 11.231442 4.7745785 11.3125 5.1191406 C 11.571756 4.4406188 12.206211 2.9892926 12.539062 3.0878906 C 12.705432 3.5514534 12.296998 5.0785193 12.291016 5.5839844 C 12.816656 4.4023168 13.44713 3.2432387 13.541016 3.28125 C 14.194208 3.5457028 11.946886 7.2508292 11.78125 7.0292969 C 11.70266 7.0063079 11.89271 5.044874 12.044922 4.6308594 C 11.849771 5.0770595 11.224018 6.3844065 10.804688 6.6582031 C 10.559672 6.1993417 10.828668 2.8039512 11.376953 2.7207031 z M 6.4179688 3.078125 C 6.7836759 3.069485 7.3222586 3.2816958 7.5 4.7246094 C 7.545101 5.0346791 7.5322613 5.9067403 7.5507812 6.2207031 C 7.5860952 6.4923311 10.26407 6.1368488 12.882812 7.8496094 C 13.18813 8.0332609 14.484661 9.3492247 13.220703 10.394531 C 12.372865 11.097638 8.6933091 12.91116 8.4472656 13.083984 C 7.8023447 13.462227 4.1976879 13.40787 2.9863281 11.802734 C 1.7850603 10.118228 2.1744031 8.4898868 3.1328125 6.84375 C 3.1306525 6.5036609 2.8407425 5.4082886 2.8378906 5.1757812 C 2.8210436 4.3664234 3.5804961 3.966712 3.7988281 4.0117188 C 4.0267642 4.0699017 4.3875716 4.0051307 5.2050781 6.0058594 C 5.4474709 6.3808283 5.8197484 6.5318616 5.78125 6.1738281 C 5.3303267 4.7751364 5.0120694 3.2823236 6.0761719 3.1328125 C 6.1222228 3.133075 6.2517378 3.0820505 6.4179688 3.078125 z M 9.9707031 8.4335938 C 9.3843277 8.7399568 6.1516847 9.6809696 6.2871094 10.21875 C 6.5544314 10.423764 8.397011 9.5586061 8.7460938 9.5 C 8.4443222 10.016478 7.0322248 10.912882 7.2519531 11.181641 C 7.7437808 11.155649 9.0889708 10.417926 9.5527344 10.216797 C 8.5428242 10.993399 7.9266632 11.881265 7.9980469 11.953125 C 8.4946791 12.453069 10.957826 9.2564506 10.689453 9.1894531 C 10.636174 9.1238277 8.7886058 10.122505 8.5527344 10.388672 C 8.8664258 10.062453 9.8785042 8.9372283 9.9707031 8.4335938 z " />
</svg>
