<?xml version="1.0" encoding="UTF-8" standalone="no"?>
<svg
   height="48"
   width="48"
   version="1.1"
   id="svg18"
   xmlns="http://www.w3.org/2000/svg"
   xmlns:svg="http://www.w3.org/2000/svg"
   xmlns:rdf="http://www.w3.org/1999/02/22-rdf-syntax-ns#"
   xmlns:cc="http://creativecommons.org/ns#"
   xmlns:dc="http://purl.org/dc/elements/1.1/">
  <metadata
     id="metadata24">
    <rdf:RDF>
      <cc:Work
         rdf:about="">
        <dc:format>image/svg+xml</dc:format>
        <dc:type
           rdf:resource="http://purl.org/dc/dcmitype/StillImage" />
        <dc:creator>
          <cc:Agent>
            <dc:title>dreifacherspass</dc:title>
          </cc:Agent>
        </dc:creator>
        <cc:license
           rdf:resource="http://creativecommons.org/licenses/by-sa/4.0/" />
      </cc:Work>
      <cc:License
         rdf:about="http://creativecommons.org/licenses/by-sa/4.0/">
        <cc:permits
           rdf:resource="http://creativecommons.org/ns#Reproduction" />
        <cc:permits
           rdf:resource="http://creativecommons.org/ns#Distribution" />
        <cc:requires
           rdf:resource="http://creativecommons.org/ns#Notice" />
        <cc:requires
           rdf:resource="http://creativecommons.org/ns#Attribution" />
        <cc:permits
           rdf:resource="http://creativecommons.org/ns#DerivativeWorks" />
        <cc:requires
           rdf:resource="http://creativecommons.org/ns#ShareAlike" />
      </cc:License>
    </rdf:RDF>
  </metadata>
  <defs
     id="defs22">
    <style
       id="current-color-scheme"
       type="text/css">
      .ColorScheme-Text { color: #0abdc6; } .ColorScheme-Highlight { color:#5294e2; }
     </style>
    <linearGradient
       id="arrongin"
       x1="0%"
       x2="0%"
       y1="0%"
       y2="100%">
      <stop
         offset="0%"
         style="stop-color:#dd9b44; stop-opacity:1"
         id="stop9192" />
      <stop
         offset="100%"
         style="stop-color:#ad6c16; stop-opacity:1"
         id="stop9194" />
    </linearGradient>
    <linearGradient
       id="aurora"
       x1="0%"
       x2="0%"
       y1="0%"
       y2="100%">
      <stop
         offset="0%"
         style="stop-color:#09D4DF; stop-opacity:1"
         id="stop9197" />
      <stop
         offset="100%"
         style="stop-color:#9269F4; stop-opacity:1"
         id="stop9199" />
    </linearGradient>
    <linearGradient
       id="cyberneon"
       x1="0%"
       x2="0%"
       y1="0%"
       y2="100%">
      <stop
         offset="0"
         style="stop-color:#0abdc6; stop-opacity:1"
         id="stop9202" />
      <stop
         offset="1"
         style="stop-color:#ea00d9; stop-opacity:1"
         id="stop9204" />
    </linearGradient>
    <linearGradient
       id="fitdance"
       x1="0%"
       x2="0%"
       y1="0%"
       y2="100%">
      <stop
         offset="0%"
         style="stop-color:#1AD6AB; stop-opacity:1"
         id="stop9207" />
      <stop
         offset="100%"
         style="stop-color:#329DB6; stop-opacity:1"
         id="stop9209" />
    </linearGradient>
    <linearGradient
       id="oomox"
       x1="0%"
       x2="0%"
       y1="0%"
       y2="100%">
      <stop
         offset="0%"
         style="stop-color:#0abdc6; stop-opacity:1"
         id="stop9212" />
      <stop
         offset="100%"
         style="stop-color:#b800ff; stop-opacity:1"
         id="stop9214" />
    </linearGradient>
    <linearGradient
       id="rainblue"
       x1="0%"
       x2="0%"
       y1="0%"
       y2="100%">
      <stop
         offset="0%"
         style="stop-color:#00F260; stop-opacity:1"
         id="stop9217" />
      <stop
         offset="100%"
         style="stop-color:#0575E6; stop-opacity:1"
         id="stop9219" />
    </linearGradient>
    <linearGradient
       id="sunrise"
       x1="0%"
       x2="0%"
       y1="0%"
       y2="100%">
      <stop
         offset="0%"
         style="stop-color: #FF8501; stop-opacity:1"
         id="stop9222" />
      <stop
         offset="100%"
         style="stop-color: #FFCB01; stop-opacity:1"
         id="stop9224" />
    </linearGradient>
    <linearGradient
       id="telinkrin"
       x1="0%"
       x2="0%"
       y1="0%"
       y2="100%">
      <stop
         offset="0%"
         style="stop-color: #b2ced6; stop-opacity:1"
         id="stop9227" />
      <stop
         offset="100%"
         style="stop-color: #6da5b7; stop-opacity:1"
         id="stop9229" />
    </linearGradient>
    <linearGradient
       id="60spsycho"
       x1="0%"
       x2="0%"
       y1="0%"
       y2="100%">
      <stop
         offset="0%"
         style="stop-color: #df5940; stop-opacity:1"
         id="stop9232" />
      <stop
         offset="25%"
         style="stop-color: #d8d15f; stop-opacity:1"
         id="stop9234" />
      <stop
         offset="50%"
         style="stop-color: #e9882a; stop-opacity:1"
         id="stop9236" />
      <stop
         offset="100%"
         style="stop-color: #279362; stop-opacity:1"
         id="stop9238" />
    </linearGradient>
    <linearGradient
       id="90ssummer"
       x1="0%"
       x2="0%"
       y1="0%"
       y2="100%">
      <stop
         offset="0%"
         style="stop-color: #f618c7; stop-opacity:1"
         id="stop9241" />
      <stop
         offset="20%"
         style="stop-color: #94ffab; stop-opacity:1"
         id="stop9243" />
      <stop
         offset="50%"
         style="stop-color: #fbfd54; stop-opacity:1"
         id="stop9245" />
      <stop
         offset="100%"
         style="stop-color: #0f83ae; stop-opacity:1"
         id="stop9247" />
    </linearGradient>
  </defs>
  <g
     id="g16"
     style="stroke-width:4"
     transform="translate(0,0.46981957)">
    <path
       transform="matrix(0.1375804,0,0,0.06456173,-129.53973,26.711664)"
       style="display:inline;fill:url(#oomox);fill-opacity:1;stroke:none;stroke-width:20;stroke-linecap:square;stroke-linejoin:miter;stroke-miterlimit:4;stroke-dasharray:none;stroke-dashoffset:0;stroke-opacity:1;enable-background:new;opacity:0.5"
       id="rect1"
       class="ColorScheme-Text"
       d="m 1084,61.125 a 27.159795,27.159795 0 0 0 -27.0625,24.900391 l -16,191.999999 A 27.159795,27.159795 0 0 0 1068,307.4375 h 48 48 a 27.159795,27.159795 0 0 0 27.0625,-29.41211 l -16,-191.999999 A 27.159795,27.159795 0 0 0 1148,61.125 h -32 z" />
    <path
       style="display:inline;opacity:1;fill:url(#oomox);fill-opacity:0.7;stroke:none;stroke-width:1.7941;stroke-linecap:square;stroke-linejoin:miter;stroke-miterlimit:4;stroke-dasharray:none;stroke-dashoffset:0;stroke-opacity:1;enable-background:new"
       id="rect3"
       class="ColorScheme-Text"
       d="m 19.74626,30.160691 c -1.893834,9.8e-5 -3.584722,0.649675 -3.742269,1.494212 l -2.032317,11.521452 c -0.176669,0.950045 1.498635,1.764818 3.629021,1.764949 h 6.436692 6.436694 c 2.130386,-1.32e-4 3.805689,-0.814904 3.62902,-1.764949 L 31.995286,31.654903 c -0.157547,-0.844536 -1.772936,-1.494114 -3.66677,-1.494212 h -4.291129 z" />
    <path
       id="path1"
       style="stroke-width:1.97785;fill:url(#oomox);fill-opacity:1"
       class="ColorScheme-Text"
       d="M 0.5 0.50088355 L 0.5 32.461821 L 47.5 32.461821 L 47.5 0.50088355 L 0.5 0.50088355 z M 24 5.4501023 C 28.526408 5.4501023 33.051728 7.1717337 36.5 10.620024 L 35.25 11.87393 C 29.029085 5.6529641 18.970925 5.6529641 12.75 11.87393 L 11.5 10.620024 C 14.948272 7.1717337 19.473757 5.4501023 24 5.4501023 z M 24 10.510649 C 27.259363 10.510649 30.518294 11.751588 33 14.233305 L 31.75 15.483305 C 27.462026 11.195465 20.537969 11.195465 16.25 15.483305 L 15 14.233305 C 17.481706 11.751588 20.740637 10.510649 24 10.510649 z M 24 15.600493 C 25.992651 15.600493 27.984831 16.354875 29.5 17.870024 L 28.25 19.12393 C 25.89517 16.769211 22.10483 16.769203 19.75 19.12393 L 18.5 17.870024 C 20.015169 16.354875 22.007349 15.600493 24 15.600493 z M 24 20.72354 A 3.3943414 3.3943047 0 0 1 27.394531 24.118071 A 3.3943414 3.3943047 0 0 1 24 27.512602 A 3.3943414 3.3943047 0 0 1 20.605469 24.118071 A 3.3943414 3.3943047 0 0 1 24 20.72354 z " />
  </g>
</svg>
