<?xml version="1.0" encoding="UTF-8" standalone="no"?>
<svg
   enable-background="new"
   version="1.0"
   viewBox="0 0 16 16"
   id="svg7096"
   width="16"
   height="16"
   xmlns="http://www.w3.org/2000/svg"
   xmlns:svg="http://www.w3.org/2000/svg"
   xmlns:rdf="http://www.w3.org/1999/02/22-rdf-syntax-ns#"
   xmlns:cc="http://creativecommons.org/ns#"
   xmlns:dc="http://purl.org/dc/elements/1.1/">
  <defs>
   <style id="current-color-scheme" type="text/css">
   .ColorScheme-Text { color: #0abdc6; } .ColorScheme-Highlight { color:#5294e2; }
  </style>
  <linearGradient id="arrongin" x1="0%" x2="0%" y1="0%" y2="100%">
   <stop offset="0%" style="stop-color:#dd9b44; stop-opacity:1"/>
   <stop offset="100%" style="stop-color:#ad6c16; stop-opacity:1"/>
  </linearGradient>
  <linearGradient id="aurora" x1="0%" x2="0%" y1="0%" y2="100%">
   <stop offset="0%" style="stop-color:#09D4DF; stop-opacity:1"/>
   <stop offset="100%" style="stop-color:#9269F4; stop-opacity:1"/>
  </linearGradient>
  <linearGradient id="cyberneon" x1="0%" x2="0%" y1="0%" y2="100%">
    <stop offset="0" style="stop-color:#0abdc6; stop-opacity:1"/>
    <stop offset="1" style="stop-color:#ea00d9; stop-opacity:1"/>
  </linearGradient>
  <linearGradient id="fitdance" x1="0%" x2="0%" y1="0%" y2="100%">
   <stop offset="0%" style="stop-color:#1AD6AB; stop-opacity:1"/>
   <stop offset="100%" style="stop-color:#329DB6; stop-opacity:1"/>
  </linearGradient>
  <linearGradient id="oomox" x1="0%" x2="0%" y1="0%" y2="100%">
   <stop offset="0%" style="stop-color:#0abdc6; stop-opacity:1"/>
   <stop offset="100%" style="stop-color:#b800ff; stop-opacity:1"/>
  </linearGradient>
  <linearGradient id="rainblue" x1="0%" x2="0%" y1="0%" y2="100%">
   <stop offset="0%" style="stop-color:#00F260; stop-opacity:1"/>
   <stop offset="100%" style="stop-color:#0575E6; stop-opacity:1"/>
  </linearGradient>
  <linearGradient id="sunrise" x1="0%" x2="0%" y1="0%" y2="100%">
   <stop offset="0%" style="stop-color: #FF8501; stop-opacity:1"/>
   <stop offset="100%" style="stop-color: #FFCB01; stop-opacity:1"/>
  </linearGradient>
  <linearGradient id="telinkrin" x1="0%" x2="0%" y1="0%" y2="100%">
   <stop offset="0%" style="stop-color: #b2ced6; stop-opacity:1"/>
   <stop offset="100%" style="stop-color: #6da5b7; stop-opacity:1"/>
  </linearGradient>
  <linearGradient id="60spsycho" x1="0%" x2="0%" y1="0%" y2="100%">
   <stop offset="0%" style="stop-color: #df5940; stop-opacity:1"/>
   <stop offset="25%" style="stop-color: #d8d15f; stop-opacity:1"/>
   <stop offset="50%" style="stop-color: #e9882a; stop-opacity:1"/>
   <stop offset="100%" style="stop-color: #279362; stop-opacity:1"/>
  </linearGradient>
  <linearGradient id="90ssummer" x1="0%" x2="0%" y1="0%" y2="100%">
   <stop offset="0%" style="stop-color: #f618c7; stop-opacity:1"/>
   <stop offset="20%" style="stop-color: #94ffab; stop-opacity:1"/>
   <stop offset="50%" style="stop-color: #fbfd54; stop-opacity:1"/>
   <stop offset="100%" style="stop-color: #0f83ae; stop-opacity:1"/>
  </linearGradient>
 </defs>
  <path
     id="path76"
     style="fill:url(#oomox);fill-opacity:1;stroke-width:0.759715"
     class="ColorScheme-Text"
     d="M 1.9906894,0 1.091091,2.059178 H 1.6130287 L 2.3583751,0.32912261 3.1090394,2.059178 H 3.6356337 L 2.7313787,0 Z M 10.468747,0 9.5691486,2.059178 H 10.091755 L 10.837102,0.32912261 11.587097,2.059178 H 12.11436 L 11.210105,0 Z M 3.7998686,3.5325797 V 3.7533211 H 6.6482667 9.4747313 V 3.5325797 H 6.6482667 Z M 2.4627672,5.7174213 C 2.2219381,6.0625669 2.048192,6.4075288 1.9408219,6.7526592 1.8334518,7.0962616 1.7799147,7.4822789 1.7799147,7.9102387 c 0,0.4295213 0.053559,0.8171029 0.1609072,1.1622346 0.1073699,0.3451278 0.2811163,0.6905678 0.5219453,1.0372347 H 3.1097079 C 2.8658096,9.7522936 2.6893588,9.4021085 2.5804468,9.0585107 2.4715416,8.7133539 2.4168883,8.3309928 2.4168883,7.9122341 c 0,-0.4202882 0.054623,-0.8036002 0.1635584,-1.1502672 C 2.6908926,6.415296 2.8673448,6.0671531 3.1097079,5.71742 Z m 7.7034548,0 c 0.240829,0.3466795 0.416816,0.6943523 0.527263,1.0425531 0.110445,0.3466464 0.165557,0.7304333 0.165557,1.1522611 0,0.4203173 -0.05462,0.8026797 -0.163565,1.1462765 -0.107379,0.3420739 -0.28383,0.6922589 -0.529255,1.051197 h 0.646941 c 0.242354,-0.3497506 0.416101,-0.6967562 0.521945,-1.0418879 0.107379,-0.345132 0.161568,-0.7311494 0.161568,-1.1575795 0,-0.4233421 -0.05417,-0.8077925 -0.161568,-1.1529256 -0.105844,-0.3451168 -0.27959,-0.6916939 -0.521945,-1.0398931 z m 2.329126,6.47e-4 1.879651,3.4607749 h 0.53391 L 13.019945,5.7180827 Z M 5.2300505,6.5970611 c -0.3895963,0 -0.6878664,0.1118133 -0.8949499,0.3357717 -0.2070747,0.223928 -0.3105016,0.5417027 -0.3105016,0.9527925 0,0.4126192 0.103896,0.7312942 0.3124997,0.9567816 0.2085947,0.2239547 0.5016379,0.3364363 0.8789875,0.3364363 0.3911533,0 0.6909888,-0.1124773 0.8996061,-0.3364363 0.208608,-0.2254826 0.3131616,-0.5441568 0.3131616,-0.9567816 0,-0.8589805 -0.3996389,-1.2885642 -1.1988034,-1.2885642 z m 2.8257962,0 c -0.389596,0 -0.6878661,0.1118133 -0.8949413,0.3357717 -0.2070827,0.223928 -0.3105099,0.5417027 -0.3105099,0.9527925 0,0.4126192 0.1045467,0.7312942 0.3131683,0.9567816 0.2085947,0.2239547 0.5016464,0.3364363 0.8789875,0.3364363 0.3911533,0 0.690989,-0.1124773 0.8995981,-0.3364363 0.208616,-0.2254826 0.3124995,-0.5441568 0.3124995,-0.9567816 0,-0.8589805 -0.399632,-1.2885642 -1.1988022,-1.2885642 z m -2.8164898,0.444149 c 0.1856053,0 0.3173856,0.067141 0.3956125,0.202128 0.078237,0.1334534 0.117024,0.3477726 0.117024,0.642287 0,0.2991141 -0.042461,0.5159461 -0.1283253,0.6509309 -0.085891,0.1334533 -0.224016,0.2001333 -0.4142264,0.2001333 -0.1671974,0 -0.2937587,-0.067141 -0.3796515,-0.202128 -0.084371,-0.13652 -0.127,-0.3528917 -0.127,-0.6489357 0,-0.2929752 0.04148,-0.5073019 0.1243333,-0.6422869 0.084357,-0.1349867 0.2220267,-0.202128 0.4122334,-0.2021286 z m 2.825804,0 c 0.1855973,0 0.3173773,0.067141 0.3956122,0.202128 0.078221,0.1334534 0.1176854,0.3477726 0.1176854,0.642287 0,0.2991141 -0.043069,0.5159461 -0.1289894,0.6509309 -0.085907,0.1334533 -0.224024,0.2001333 -0.4142333,0.2001333 -0.1671973,0 -0.2937501,-0.067141 -0.3796515,-0.202128 -0.084371,-0.13652 -0.126336,-0.3528917 -0.126336,-0.6489357 0,-0.2929752 0.04148,-0.5073019 0.1243334,-0.6422869 C 7.7379523,7.108352 7.874947,7.0412107 8.0651609,7.0412101 Z M 2.4627672,11.607713 c -0.2408291,0.345143 -0.4145752,0.690108 -0.5219453,1.035241 -0.1073701,0.343602 -0.1609072,0.72962 -0.1609072,1.15758 0,0.42952 0.053559,0.816436 0.1609072,1.161568 C 2.0481919,15.30723 2.2219382,15.653339 2.4627672,16 H 3.1097079 C 2.8658096,15.642588 2.6893588,15.292403 2.5804468,14.948809 2.4715416,14.603654 2.4168883,14.221287 2.4168883,13.802533 c 0,-0.420287 0.054623,-0.803599 0.1635584,-1.150266 0.1104459,-0.346667 0.2868981,-0.694812 0.5292612,-1.044548 z m 7.7034548,0 c 0.240829,0.346683 0.416816,0.693688 0.527263,1.041889 0.110445,0.346646 0.165557,0.731098 0.165557,1.152925 0,0.420319 -0.05462,0.80268 -0.163565,1.146277 -0.107379,0.342074 -0.28383,0.692259 -0.529255,1.05119 h 0.646941 c 0.242354,-0.349756 0.416101,-0.697426 0.521945,-1.042554 0.107379,-0.345127 0.161568,-0.730479 0.161568,-1.156913 0,-0.423342 -0.05417,-0.807794 -0.161568,-1.152926 -0.105844,-0.345111 -0.27959,-0.691692 -0.521945,-1.039894 z m 2.329126,6.81e-4 1.879651,3.460107 h 0.53391 l -1.888964,-3.460122 z m -8.6954794,3.699452 v 0.221416 H 6.6482667 9.4747313 V 15.307846 H 6.6482667 Z" />
  <metadata
     id="metadata7951">
    <rdf:RDF>
      <cc:Work
         rdf:about="">
        <dc:creator>
          <cc:Agent>
            <dc:title>dreifacherspass</dc:title>
          </cc:Agent>
        </dc:creator>
        <cc:license
           rdf:resource="http://creativecommons.org/licenses/by-sa/4.0/" />
      </cc:Work>
      <cc:License
         rdf:about="http://creativecommons.org/licenses/by-sa/4.0/">
        <cc:permits
           rdf:resource="http://creativecommons.org/ns#Reproduction" />
        <cc:permits
           rdf:resource="http://creativecommons.org/ns#Distribution" />
        <cc:requires
           rdf:resource="http://creativecommons.org/ns#Notice" />
        <cc:requires
           rdf:resource="http://creativecommons.org/ns#Attribution" />
        <cc:permits
           rdf:resource="http://creativecommons.org/ns#DerivativeWorks" />
        <cc:requires
           rdf:resource="http://creativecommons.org/ns#ShareAlike" />
      </cc:License>
    </rdf:RDF>
  </metadata>
</svg>
