<?xml version="1.0" encoding="UTF-8" standalone="no"?>
<svg
   version="1.1"
   viewBox="0 0 16 16"
   id="svg9"
   width="16"
   height="16"
   xmlns:xlink="http://www.w3.org/1999/xlink"
   xmlns="http://www.w3.org/2000/svg"
   xmlns:svg="http://www.w3.org/2000/svg"
   xmlns:rdf="http://www.w3.org/1999/02/22-rdf-syntax-ns#"
   xmlns:cc="http://creativecommons.org/ns#"
   xmlns:dc="http://purl.org/dc/elements/1.1/">
   <defs>
      <style id="current-color-scheme" type="text/css">
         .ColorScheme-Text { color: #0abdc6; } .ColorScheme-Highlight { color:#5294e2; }
      </style>
      <linearGradient id="arrongin" x1="0%" x2="0%" y1="0%" y2="100%">
         <stop offset="0%" style="stop-color:#dd9b44; stop-opacity:1"/>
         <stop offset="100%" style="stop-color:#ad6c16; stop-opacity:1"/>
      </linearGradient>
      <linearGradient id="aurora" x1="0%" x2="0%" y1="0%" y2="100%">
         <stop offset="0%" style="stop-color:#09D4DF; stop-opacity:1"/>
         <stop offset="100%" style="stop-color:#9269F4; stop-opacity:1"/>
      </linearGradient>
      <linearGradient id="cyberneon" x1="0%" x2="0%" y1="0%" y2="100%">
         <stop offset="0" style="stop-color:#0abdc6; stop-opacity:1"/>
         <stop offset="1" style="stop-color:#ea00d9; stop-opacity:1"/>
      </linearGradient>
      <linearGradient id="fitdance" x1="0%" x2="0%" y1="0%" y2="100%">
         <stop offset="0%" style="stop-color:#1AD6AB; stop-opacity:1"/>
         <stop offset="100%" style="stop-color:#329DB6; stop-opacity:1"/>
      </linearGradient>
      <linearGradient id="oomox" x1="0%" x2="0%" y1="0%" y2="100%">
         <stop offset="0%" style="stop-color:#0abdc6; stop-opacity:1"/>
         <stop offset="100%" style="stop-color:#b800ff; stop-opacity:1"/>
      </linearGradient>
      <linearGradient id="rainblue" x1="0%" x2="0%" y1="0%" y2="100%">
         <stop offset="0%" style="stop-color:#00F260; stop-opacity:1"/>
         <stop offset="100%" style="stop-color:#0575E6; stop-opacity:1"/>
      </linearGradient>
      <linearGradient id="sunrise" x1="0%" x2="0%" y1="0%" y2="100%">
         <stop offset="0%" style="stop-color: #FF8501; stop-opacity:1"/>
         <stop offset="100%" style="stop-color: #FFCB01; stop-opacity:1"/>
      </linearGradient>
      <linearGradient id="telinkrin" x1="0%" x2="0%" y1="0%" y2="100%">
         <stop offset="0%" style="stop-color: #b2ced6; stop-opacity:1"/>
         <stop offset="100%" style="stop-color: #6da5b7; stop-opacity:1"/>
      </linearGradient>
      <linearGradient id="60spsycho" x1="0%" x2="0%" y1="0%" y2="100%">
         <stop offset="0%" style="stop-color: #df5940; stop-opacity:1"/>
         <stop offset="25%" style="stop-color: #d8d15f; stop-opacity:1"/>
         <stop offset="50%" style="stop-color: #e9882a; stop-opacity:1"/>
         <stop offset="100%" style="stop-color: #279362; stop-opacity:1"/>
      </linearGradient>
      <linearGradient id="90ssummer" x1="0%" x2="0%" y1="0%" y2="100%">
         <stop offset="0%" style="stop-color: #f618c7; stop-opacity:1"/>
         <stop offset="20%" style="stop-color: #94ffab; stop-opacity:1"/>
         <stop offset="50%" style="stop-color: #fbfd54; stop-opacity:1"/>
         <stop offset="100%" style="stop-color: #0f83ae; stop-opacity:1"/>
      </linearGradient>
   </defs>
  <path
     id="path_background_disc"
     class="ColorScheme-Text"
     style="opacity:0.5;fill:url(#oomox);stroke-width:0.347826"
     d="M 8,0 A 8,8 0 0 0 0,8 8,8 0 0 0 8,16 8,8 0 0 0 16,8 8,8 0 0 0 8,0 Z m 3.130435,5.9130435 h 0.695652 V 8.3478261 H 11.130435 Z M 4.6956522,6.9565217 c 0.6839993,0 1.2173913,0.533392 1.2173913,1.2173913 0,0.6839993 -0.533392,1.2173913 -1.2173913,1.2173913 -0.6839993,0 -1.2173913,-0.533392 -1.2173913,-1.2173913 0,-0.6839993 0.533392,-1.2173913 1.2173913,-1.2173913 z m 2.4347826,0 c 0.3478257,0 0.5479516,0.043677 0.7826087,0.1216032 L 7.808424,7.599864 C 7.6398431,7.5345426 7.4434783,7.4782609 7.3043478,7.4782609 c -0.173913,0 -0.3478261,0 -0.3478261,0.173913 C 6.9565217,7.826087 7.2093986,7.881033 7.4782609,8 7.7018431,8.0989217 8,8.208696 8,8.6956522 8,9.1478257 7.6521732,9.3913043 6.9565217,9.3913043 c -0.3478257,0 -0.6162295,-0.095899 -0.8172553,-0.173913 L 6.2608696,8.6956522 c 0,0 0.4521742,0.173913 0.6956521,0.173913 0.243478,0 0.3478261,-0.069565 0.3478261,-0.173913 0,-0.1043479 -0.091124,-0.1891868 -0.3478261,-0.2785325 C 6.5984977,8.2925283 6.2608696,8.1043475 6.2608696,7.6521739 c 0,-0.3478257 0.3478264,-0.6956522 0.8695652,-0.6956522 z m 1.2173913,0 h 0.6956522 v 1.1304348 c 0,0.4347823 0.1040709,0.6086957 0.4028532,0.6086957 H 9.7391304 V 6.9565217 h 0.6956526 v 2.2608696 c -0.330852,0.1201113 -0.6958571,0.173913 -1.0298919,0.173913 -0.7094528,0 -1.057065,-0.3478267 -1.057065,-1.0869565 z M 4.6956522,7.5129075 c -0.2881492,0 -0.5217392,0.2768042 -0.5217392,0.6610055 0,0.3842014 0.23359,0.6610056 0.5217392,0.6610056 0.2881492,0 0.5217391,-0.2768042 0.5217391,-0.6610056 0,-0.3842013 -0.2335899,-0.6610055 -0.5217391,-0.6610055 z m 6.4347828,1.1827447 h 0.695652 v 0.6956521 h -0.695652 z" />
  <path
     d="m 13.575652,2.2716522 c 1.291131,1.4205217 2.076174,3.3092174 2.076174,5.3805217 0,4.4184351 -3.581565,8.0000001 -7.9999999,8.0000001 -2.0709565,0 -3.9596522,-0.784696 -5.3805218,-2.076174 C 3.7245217,15.068522 5.7530435,16 7.9996522,16 c 4.4184348,0 7.9999998,-3.581913 7.9999998,-8 0,-2.2476522 -0.93113,-4.2751304 -2.424,-5.7283478 z"
     style="opacity:1;fill:url(#oomox);stroke-width:0.347826"
     id="path_shadoow"
     class="ColorScheme-Text"/>
  <path
     id="path_foreground_disc"
     class="ColorScheme-Text"
     style="fill:url(#oomox);stroke-width:0.347826"
     d="M 8,2.7826087 C 5.1185071,2.7826087 2.7826087,5.1185071 2.7826087,8 c 0,2.881493 2.3358984,5.217391 5.2173913,5.217391 2.881493,0 5.217391,-2.335898 5.217391,-5.217391 C 13.217391,5.1185071 10.881493,2.7826087 8,2.7826087 Z m 3.130435,3.1304348 h 0.695652 V 8.3478261 H 11.130435 Z M 4.6956522,6.9565217 c 0.6839993,0 1.2173913,0.533392 1.2173913,1.2173913 0,0.6839993 -0.533392,1.2173913 -1.2173913,1.2173913 -0.6839993,0 -1.2173913,-0.533392 -1.2173913,-1.2173913 0,-0.6839993 0.533392,-1.2173913 1.2173913,-1.2173913 z m 2.4347826,0 c 0.3478257,0 0.5479516,0.043677 0.7826087,0.1216032 L 7.808424,7.599864 C 7.6398431,7.5345426 7.4434783,7.4782609 7.3043478,7.4782609 c -0.173913,0 -0.3478261,0 -0.3478261,0.173913 C 6.9565217,7.826087 7.2093986,7.881033 7.4782609,8 7.7018431,8.0989217 8,8.208696 8,8.6956522 8,9.1478257 7.6521732,9.3913043 6.9565217,9.3913043 c -0.3478257,0 -0.6162295,-0.095899 -0.8172553,-0.173913 L 6.2608696,8.6956522 c 0,0 0.4521742,0.173913 0.6956521,0.173913 0.243478,0 0.3478261,-0.069565 0.3478261,-0.173913 0,-0.1043479 -0.091124,-0.1891868 -0.3478261,-0.2785325 C 6.5984977,8.2925283 6.2608696,8.1043475 6.2608696,7.6521739 c 0,-0.3478257 0.3478264,-0.6956522 0.8695652,-0.6956522 z m 1.2173913,0 h 0.6956522 v 1.1304348 c 0,0.4347823 0.1040709,0.6086957 0.4028532,0.6086957 H 9.7391304 V 6.9565217 h 0.6956526 v 2.2608696 c -0.330852,0.1201113 -0.6958571,0.173913 -1.0298919,0.173913 -0.7094528,0 -1.057065,-0.3478267 -1.057065,-1.0869565 z M 4.6956522,7.5129075 c -0.2881492,0 -0.5217392,0.2768042 -0.5217392,0.6610055 0,0.3842014 0.23359,0.6610056 0.5217392,0.6610056 0.2881492,0 0.5217391,-0.2768042 0.5217391,-0.6610056 0,-0.3842013 -0.2335899,-0.6610055 -0.5217391,-0.6610055 z m 6.4347828,1.1827447 h 0.695652 v 0.6956521 h -0.695652 z" />
  <metadata
     id="metadata12">
    <rdf:RDF>
      <cc:Work
         rdf:about="">
        <dc:creator>
          <cc:Agent>
            <dc:title>dreifacherspass</dc:title>
          </cc:Agent>
        </dc:creator>
        <cc:license
           rdf:resource="http://creativecommons.org/licenses/by-sa/4.0/" />
      </cc:Work>
      <cc:License
         rdf:about="http://creativecommons.org/licenses/by-sa/4.0/">
        <cc:permits
           rdf:resource="http://creativecommons.org/ns#Reproduction" />
        <cc:permits
           rdf:resource="http://creativecommons.org/ns#Distribution" />
        <cc:requires
           rdf:resource="http://creativecommons.org/ns#Notice" />
        <cc:requires
           rdf:resource="http://creativecommons.org/ns#Attribution" />
        <cc:permits
           rdf:resource="http://creativecommons.org/ns#DerivativeWorks" />
        <cc:requires
           rdf:resource="http://creativecommons.org/ns#ShareAlike" />
      </cc:License>
    </rdf:RDF>
  </metadata>
</svg>
