<?xml version="1.0" encoding="UTF-8" standalone="no"?>
<!-- Created with Inkscape (http://www.inkscape.org/) -->

<svg
   width="16"
   height="16"
   viewBox="0 0 16 16.000001"
   id="svg2"
   version="1.1"
   xmlns:xlink="http://www.w3.org/1999/xlink"
   xmlns="http://www.w3.org/2000/svg"
   xmlns:svg="http://www.w3.org/2000/svg"
   xmlns:rdf="http://www.w3.org/1999/02/22-rdf-syntax-ns#"
   xmlns:cc="http://creativecommons.org/ns#"
   xmlns:dc="http://purl.org/dc/elements/1.1/">
  <defs>
   <style id="current-color-scheme" type="text/css">
   .ColorScheme-Text { color: #0abdc6; } .ColorScheme-Highlight { color:#5294e2; }
  </style>
  <linearGradient id="arrongin" x1="0%" x2="0%" y1="0%" y2="100%">
   <stop offset="0%" style="stop-color:#dd9b44; stop-opacity:1"/>
   <stop offset="100%" style="stop-color:#ad6c16; stop-opacity:1"/>
  </linearGradient>
  <linearGradient id="aurora" x1="0%" x2="0%" y1="0%" y2="100%">
   <stop offset="0%" style="stop-color:#09D4DF; stop-opacity:1"/>
   <stop offset="100%" style="stop-color:#9269F4; stop-opacity:1"/>
  </linearGradient>
  <linearGradient id="cyberneon" x1="0%" x2="0%" y1="0%" y2="100%">
    <stop offset="0" style="stop-color:#0abdc6; stop-opacity:1"/>
    <stop offset="1" style="stop-color:#ea00d9; stop-opacity:1"/>
  </linearGradient>
  <linearGradient id="fitdance" x1="0%" x2="0%" y1="0%" y2="100%">
   <stop offset="0%" style="stop-color:#1AD6AB; stop-opacity:1"/>
   <stop offset="100%" style="stop-color:#329DB6; stop-opacity:1"/>
  </linearGradient>
  <linearGradient id="oomox" x1="0%" x2="0%" y1="0%" y2="100%">
   <stop offset="0%" style="stop-color:#0abdc6; stop-opacity:1"/>
   <stop offset="100%" style="stop-color:#b800ff; stop-opacity:1"/>
  </linearGradient>
  <linearGradient id="rainblue" x1="0%" x2="0%" y1="0%" y2="100%">
   <stop offset="0%" style="stop-color:#00F260; stop-opacity:1"/>
   <stop offset="100%" style="stop-color:#0575E6; stop-opacity:1"/>
  </linearGradient>
  <linearGradient id="sunrise" x1="0%" x2="0%" y1="0%" y2="100%">
   <stop offset="0%" style="stop-color: #FF8501; stop-opacity:1"/>
   <stop offset="100%" style="stop-color: #FFCB01; stop-opacity:1"/>
  </linearGradient>
  <linearGradient id="telinkrin" x1="0%" x2="0%" y1="0%" y2="100%">
   <stop offset="0%" style="stop-color: #b2ced6; stop-opacity:1"/>
   <stop offset="100%" style="stop-color: #6da5b7; stop-opacity:1"/>
  </linearGradient>
  <linearGradient id="60spsycho" x1="0%" x2="0%" y1="0%" y2="100%">
   <stop offset="0%" style="stop-color: #df5940; stop-opacity:1"/>
   <stop offset="25%" style="stop-color: #d8d15f; stop-opacity:1"/>
   <stop offset="50%" style="stop-color: #e9882a; stop-opacity:1"/>
   <stop offset="100%" style="stop-color: #279362; stop-opacity:1"/>
  </linearGradient>
  <linearGradient id="90ssummer" x1="0%" x2="0%" y1="0%" y2="100%">
   <stop offset="0%" style="stop-color: #f618c7; stop-opacity:1"/>
   <stop offset="20%" style="stop-color: #94ffab; stop-opacity:1"/>
   <stop offset="50%" style="stop-color: #fbfd54; stop-opacity:1"/>
   <stop offset="100%" style="stop-color: #0f83ae; stop-opacity:1"/>
  </linearGradient>
 </defs>
  <metadata
     id="metadata7">
    <rdf:RDF>
      <cc:Work
         rdf:about="">
        <dc:format>image/svg+xml</dc:format>
        <dc:type
           rdf:resource="http://purl.org/dc/dcmitype/StillImage" />
        <dc:creator>
          <cc:Agent>
            <dc:title>dreifacherspass</dc:title>
          </cc:Agent>
        </dc:creator>
        <cc:license
           rdf:resource="http://creativecommons.org/licenses/by-sa/4.0/" />
      </cc:Work>
      <cc:License
         rdf:about="http://creativecommons.org/licenses/by-sa/4.0/">
        <cc:permits
           rdf:resource="http://creativecommons.org/ns#Reproduction" />
        <cc:permits
           rdf:resource="http://creativecommons.org/ns#Distribution" />
        <cc:requires
           rdf:resource="http://creativecommons.org/ns#Notice" />
        <cc:requires
           rdf:resource="http://creativecommons.org/ns#Attribution" />
        <cc:permits
           rdf:resource="http://creativecommons.org/ns#DerivativeWorks" />
        <cc:requires
           rdf:resource="http://creativecommons.org/ns#ShareAlike" />
      </cc:License>
    </rdf:RDF>
  </metadata>
  <path
     d="m 6.510059,13.011468 v 2.641626 C 6.510059,15.845819 7.1960953,16 8.0283362,16 v 0 c 0.8434866,0 1.5182765,-0.15675 1.5182765,-0.346906 v -2.641626 z"
     id="path_stick"
     class="ColorScheme-Text"
     style="fill:url(#oomox);fill-opacity:1;stroke-width:0.0537584" />
  <path
     id="path_ice_cream"
     style="display:inline;fill:url(#oomox);fill-opacity:0.5;stroke-width:0.05361"
     class="ColorScheme-Text"
     d="m 13.282727,9.1410679 c 0,0 -0.09839,0.193424 -0.438285,0.1802357 -0.339894,-0.017588 -0.535886,-0.1187148 -0.640468,-0.6331527 -0.09805,-0.5012475 0.163609,-1.1517659 0.163609,-1.1605581 0.01961,-0.05716 0.437575,-1.477244 -0.05919,-1.8861567 -0.09151,-0.074748 -0.202704,-0.1143929 -0.346505,-0.1143929 -0.320285,-0.0044 -0.529027,0.048107 -0.659756,0.1536323 -0.196093,0.1670825 -0.111026,0.435403 -0.03259,0.6464544 0,0 0.08471,0.1850019 0.137005,0.2773368 0.137267,0.237433 0.31404,0.527257 0.131021,0.6943398 -0.11112,0.1099209 -0.386183,0.1541843 -0.791441,0.140996 C 10.020584,7.4134225 9.975169,6.9430291 9.9294141,6.4461784 9.8836596,5.9581216 9.8382016,5.4480121 9.0342211,5.4612004 c -0.2287747,0 -0.490609,0.096288 -0.7063108,0.2633704 C 8.0664529,5.9224315 7.9686746,6.1819577 8.0013576,6.3710248 8.0144301,6.4809474 8.0206855,6.591054 8.099124,6.7361519 8.2559981,7.0703168 8.4849808,7.527479 8.4915188,8.305732 8.4980534,8.7762006 8.3341643,9.1102887 8.0073432,9.2993561 7.667449,9.4972168 7.2429729,9.4796313 7.0795619,9.457644 6.6612308,9.4092784 6.262452,9.3655343 5.9356306,8.2970859 5.628419,7.2813999 6.3214878,5.7159611 6.3280257,5.6939772 6.3410982,5.6807855 6.4256239,5.2631562 6.1118758,5.0169296 5.9615379,4.8982131 5.7397228,4.8366939 5.45212,4.8366939 c -0.8170527,0 -1.229061,0.294738 -1.229061,0.8619389 0,0.1275108 0.097829,0.3557406 0.2154849,0.6371432 0.1960923,0.4660719 0.4707611,1.1039496 0.4642232,1.7019304 v 0.00399 C 4.9158396,8.0812693 4.8897558,8.4112204 4.6021524,8.6442567 4.3929869,8.8157356 4.1053596,8.8947309 3.7262471,8.8903348 3.4059623,8.8859387 3.1640596,8.8156614 3.0006487,8.6881516 2.7876308,8.5247985 2.7201853,8.2963262 2.7000342,8.1567556 v 4.0709324 c 0,0.435294 0.5295287,0.796096 1.1831707,0.796096 h 8.2422911 c 0.647105,0 1.18317,-0.356404 1.18317,-0.796096 -0.04394,-0.163991 -0.01488,-3.0866201 -0.02594,-3.0866201 z" />
  <path
     class="ColorScheme-Text"
     d="m 3.0007676,8.6882987 c 0.1634107,0.1275101 0.4052587,0.197861 0.7255438,0.2022578 0.3791129,0.0044 0.6667156,-0.074748 0.8758815,-0.246227 C 4.8897957,8.4112932 4.9159414,8.0815247 4.9028685,8.0419526 v -0.0044 C 4.9094065,7.4395754 4.6348749,6.8020232 4.4387822,6.3359507 4.3211264,6.0545481 4.2230801,5.8259089 4.2230801,5.6983982 c 0,-0.5672016 0.4117948,-0.8617946 1.2288486,-0.8617946 0.2876031,0 0.5098415,0.061557 0.6601797,0.1802732 0.3137485,0.246227 0.2287746,0.6639339 0.2157021,0.6771246 -0.00654,0.021984 -0.699398,1.5872851 -0.3921861,2.6029721 0.3268218,1.0684494 0.7255437,1.1124186 1.1438752,1.1607846 0.163411,0.021987 0.5882787,0.039572 0.9281733,-0.1582886 C 8.3344942,9.1104021 8.4979049,8.7762367 8.4913686,8.3057674 8.4848307,7.5275138 8.2560574,7.0702348 8.0991829,6.7360694 8.0207457,6.5909715 8.0142091,6.4810486 8.0011366,6.371126 7.9684536,6.1820585 8.0665006,5.9226409 8.327958,5.7247799 8.5436601,5.557697 8.8051171,5.4609648 9.0338921,5.4609648 c 0.8039813,-0.013188 0.8497365,0.496851 0.895491,0.9849085 0.045755,0.4968511 0.09151,0.9673207 0.8170539,0.9937021 0.405259,0.013188 0.679789,-0.030779 0.790908,-0.1407008 0.18302,-0.1670828 0.0065,-0.4572793 -0.130729,-0.6947127 -0.05229,-0.092335 -0.137264,-0.2770051 -0.137264,-0.2770051 -0.07844,-0.2110517 -0.163411,-0.4792636 0.03268,-0.6463461 0.130729,-0.1055258 0.339894,-0.1582886 0.660179,-0.1538918 0.143802,0 0.254921,0.039572 0.346431,0.1143194 0.496768,0.408913 0.07844,1.8291156 0.05883,1.8862755 0,0.00879 -0.261457,0.6595371 -0.163411,1.1607849 0.104583,0.5144385 0.300676,0.6155676 0.64057,0.6331551 0.339894,0.013188 0.437941,-0.1802732 0.437941,-0.1802732 0,-2.5985754 0,-5.8874654 0,-5.9182439 C 13.282573,1.4421872 10.909849,0 7.9880651,0 5.0662809,0 2.6935567,1.4421872 2.6935567,3.2229367 c 0,0.026383 0,2.4710647 0,4.8102217 -0.00654,-0.0044 -0.019609,0.4045162 0.3072122,0.6551403 z"
     id="path_melt"
     style="display:inline;opacity:1;fill:url(#oomox);fill-opacity:1;stroke-width:0.0536096" />
</svg>
