<?xml version="1.0" encoding="UTF-8" standalone="no"?>
<!-- Created with Inkscape (http://www.inkscape.org/) -->

<svg
   version="1.0"
   width="16"
   height="16"
   id="svg89"
   xmlns="http://www.w3.org/2000/svg"
   xmlns:svg="http://www.w3.org/2000/svg"
   xmlns:rdf="http://www.w3.org/1999/02/22-rdf-syntax-ns#"
   xmlns:cc="http://creativecommons.org/ns#"
   xmlns:dc="http://purl.org/dc/elements/1.1/">
  <defs>
   <style id="current-color-scheme" type="text/css">
   .ColorScheme-Text { color: #0abdc6; } .ColorScheme-Highlight { color:#5294e2; }
  </style>
  <linearGradient id="arrongin" x1="0%" x2="0%" y1="0%" y2="100%">
   <stop offset="0%" style="stop-color:#dd9b44; stop-opacity:1"/>
   <stop offset="100%" style="stop-color:#ad6c16; stop-opacity:1"/>
  </linearGradient>
  <linearGradient id="aurora" x1="0%" x2="0%" y1="0%" y2="100%">
   <stop offset="0%" style="stop-color:#09D4DF; stop-opacity:1"/>
   <stop offset="100%" style="stop-color:#9269F4; stop-opacity:1"/>
  </linearGradient>
  <linearGradient id="cyberneon" x1="0%" x2="0%" y1="0%" y2="100%">
    <stop offset="0" style="stop-color:#0abdc6; stop-opacity:1"/>
    <stop offset="1" style="stop-color:#ea00d9; stop-opacity:1"/>
  </linearGradient>
  <linearGradient id="fitdance" x1="0%" x2="0%" y1="0%" y2="100%">
   <stop offset="0%" style="stop-color:#1AD6AB; stop-opacity:1"/>
   <stop offset="100%" style="stop-color:#329DB6; stop-opacity:1"/>
  </linearGradient>
  <linearGradient id="oomox" x1="0%" x2="0%" y1="0%" y2="100%">
   <stop offset="0%" style="stop-color:#0abdc6; stop-opacity:1"/>
   <stop offset="100%" style="stop-color:#b800ff; stop-opacity:1"/>
  </linearGradient>
  <linearGradient id="rainblue" x1="0%" x2="0%" y1="0%" y2="100%">
   <stop offset="0%" style="stop-color:#00F260; stop-opacity:1"/>
   <stop offset="100%" style="stop-color:#0575E6; stop-opacity:1"/>
  </linearGradient>
  <linearGradient id="sunrise" x1="0%" x2="0%" y1="0%" y2="100%">
   <stop offset="0%" style="stop-color: #FF8501; stop-opacity:1"/>
   <stop offset="100%" style="stop-color: #FFCB01; stop-opacity:1"/>
  </linearGradient>
  <linearGradient id="telinkrin" x1="0%" x2="0%" y1="0%" y2="100%">
   <stop offset="0%" style="stop-color: #b2ced6; stop-opacity:1"/>
   <stop offset="100%" style="stop-color: #6da5b7; stop-opacity:1"/>
  </linearGradient>
  <linearGradient id="60spsycho" x1="0%" x2="0%" y1="0%" y2="100%">
   <stop offset="0%" style="stop-color: #df5940; stop-opacity:1"/>
   <stop offset="25%" style="stop-color: #d8d15f; stop-opacity:1"/>
   <stop offset="50%" style="stop-color: #e9882a; stop-opacity:1"/>
   <stop offset="100%" style="stop-color: #279362; stop-opacity:1"/>
  </linearGradient>
  <linearGradient id="90ssummer" x1="0%" x2="0%" y1="0%" y2="100%">
   <stop offset="0%" style="stop-color: #f618c7; stop-opacity:1"/>
   <stop offset="20%" style="stop-color: #94ffab; stop-opacity:1"/>
   <stop offset="50%" style="stop-color: #fbfd54; stop-opacity:1"/>
   <stop offset="100%" style="stop-color: #0f83ae; stop-opacity:1"/>
  </linearGradient>
 </defs>
  <path
     d="m 7.2126199,2.4820182 c -0.5253789,-7.79e-4 -1.1101948,0.023524 -1.1101948,0.06298 0,0.028629 -0.011555,0.084017 -0.023621,0.1211149 -0.017738,0.054548 -0.010297,0.061354 0.047243,0.043601 0.048085,-0.014836 0.070862,-0.00288 0.070862,0.033912 0,0.02994 0.024686,0.052965 0.047243,0.053291 0.031803,4.673e-4 0.024918,0.00936 -0.00787,0.033912 -0.050562,0.037848 0.00212,0.2146256 0.070862,0.2470743 0.023719,0.011193 0.00352,0.022542 -0.047243,0.024223 -0.076283,0.00253 -0.095093,0.020051 -0.086611,0.092047 0.00892,0.075648 -0.00527,0.087203 -0.1023572,0.087203 -0.06148,0 -0.1182869,0.021832 -0.1259788,0.048446 -0.00769,0.026612 0.00301,0.048446 0.023619,0.048446 0.020612,0 0.026786,0.017682 0.015748,0.038757 -0.01104,0.021074 0.048875,0.1072429 0.125979,0.1937836 0.113438,0.1273206 0.1256427,0.165003 0.086611,0.1937837 -0.033271,0.024528 -0.048133,0.017916 -0.055116,-0.019378 -0.00557,-0.029742 -0.04402,-0.078499 -0.086611,-0.1114258 -0.074532,-0.057619 -0.083888,-0.058737 -0.1496004,0.072669 -0.037548,0.07509 -0.06299,0.1518581 -0.06299,0.1695606 0,0.043844 0.201245,0.088226 0.2677062,0.058135 0.1148019,-0.051977 0.053218,0.019342 -0.086611,0.096891 -0.081199,0.045033 -0.1496004,0.1081358 -0.1496004,0.1404931 0,0.033539 -0.041857,0.06994 -0.094485,0.082358 -0.062299,0.014698 -0.1023176,0.056826 -0.1259849,0.1308045 -0.021632,0.067623 -0.089906,0.1387878 -0.173222,0.1889391 -0.097489,0.058682 -0.1338521,0.1070012 -0.1338521,0.1695607 0,0.047671 -0.026901,0.1090569 -0.06299,0.1356487 -0.041194,0.030351 -0.070864,0.089161 -0.070864,0.1598714 0,0.2045705 -0.016837,0.2337992 -0.1259789,0.1695607 C 4.9717444,5.1806064 4.8583761,5.0198622 4.8583761,4.9236927 c 0,-0.038452 -0.016673,-0.081239 -0.031495,-0.092048 -0.04776,-0.034825 -0.034901,-0.5337513 0.015747,-0.624952 0.053152,-0.095713 0.032097,-0.1986284 -0.039368,-0.1986284 -0.026293,0 -0.047243,0.016839 -0.047243,0.033912 0,0.017073 -0.019394,0.022296 -0.047241,0.00969 -0.045632,-0.02066 -0.045632,-0.032556 0,-0.092048 0.064777,-0.084453 0.065744,-0.1446386 0,-0.1744053 -0.041089,-0.018603 -0.04898,-0.052325 -0.031495,-0.1744054 0.012187,-0.085113 0.0075,-0.1550269 -0.00788,-0.1550269 -0.032167,0 -0.141725,-0.2852604 -0.1417272,-0.368189 2.2e-6,-0.030533 -0.014837,-0.065369 -0.031495,-0.077513 -0.016651,-0.012139 -0.035399,-0.072024 -0.047241,-0.1356484 -0.024665,-0.1324861 -0.065338,-0.1390436 -0.2913276,-0.058135 -0.08571,0.030687 -0.1547262,0.044017 -0.1574757,0.029067 -0.00275,-0.014945 -0.0059,-0.051639 -0.00787,-0.077513 -0.00197,-0.025874 -0.034982,-0.070381 -0.070864,-0.1017365 -0.065091,-0.056882 -0.065467,-0.057179 0,-0.1162702 0.060552,-0.054655 0.045058,-0.061845 -0.2047167,-0.06298 -0.1592629,-7.789e-4 -0.2755815,0.015979 -0.2755795,0.038757 0,0.02129 0.021324,0.038757 0.039368,0.038757 0.045689,0 0.039799,0.1278445 -0.00787,0.1840945 -0.055407,0.065372 -0.1574757,0.059769 -0.1574757,-0.00969 0,-0.068345 -0.019683,-0.071582 -0.1023575,-0.019378 -0.041644,0.026297 -0.064406,0.027364 -0.078738,0 -0.011633,-0.022214 -0.052037,-0.032325 -0.086611,-0.019378 -0.043682,0.01636 -0.06299,0.00825 -0.06299,-0.033912 0,-0.03337 0.020176,-0.06298 0.047243,-0.06298 0.027065,0 0.055116,-0.026549 0.055114,-0.058135 10e-8,-0.049945 -0.202242,-0.057724 -1.5432515,-0.058135 H 2.86e-4 V 8.0048534 13.518 H 8.0393627 15.9997 V 4.5119024 c -0.04967,-0.081977 -0.111823,-0.055343 -0.133852,0.06298 -0.01156,0.06209 -0.0452,0.1191863 -0.07086,0.1308041 -0.02607,0.011798 -0.03444,0.049101 -0.02362,0.082358 0.01309,0.04021 -0.0061,0.062148 -0.04724,0.06298 -0.07161,0.0014 -0.173219,0.083252 -0.173223,0.1404931 0,0.057486 -0.07142,0.085942 -0.173222,0.06298 -0.05308,-0.011967 -0.08662,-0.00665 -0.08662,0.019378 0,0.023772 -0.04214,0.043601 -0.08661,0.043601 -0.101846,0 -0.150624,0.1111079 -0.133853,0.2906756 0.007,0.07542 7.79e-4,0.1477981 -0.01575,0.1598714 -0.01656,0.012077 -0.03005,0.040225 -0.02362,0.06298 0.0064,0.022756 -0.02143,0.087577 -0.06299,0.1404933 -0.04156,0.052917 -0.07086,0.116512 -0.07086,0.1453378 0,0.084991 -0.05726,0.060661 -0.07874,-0.033912 -0.05313,-0.2339279 -0.02303,-0.3644823 0.157476,-0.629797 0.10575,-0.1554394 0.163729,-0.3633444 0.102357,-0.3633444 -0.01807,0 -0.0469,0.025722 -0.07087,0.06298 -0.02662,0.04137 -0.04661,0.048928 -0.04725,0.019378 -6.23e-4,-0.026612 -0.01955,-0.048446 -0.03937,-0.048446 -0.042,0 -0.220463,0.2251225 -0.220463,0.2761418 0,0.046967 -0.0613,0.043481 -0.08661,-0.00484 -0.01221,-0.023302 -0.105264,-0.0313 -0.236213,-0.019378 -0.19814,0.018037 -0.232987,0.034137 -0.307075,0.1453377 -0.04512,0.067705 -0.115727,0.1776113 -0.165349,0.2422297 -0.10093,0.1314319 -0.115808,0.1744053 -0.04724,0.1744053 0.02557,0 0.0554,0.021834 0.06299,0.048446 0.01069,0.03747 0.02755,0.037351 0.07086,-0.00484 0.04237,-0.041272 0.05785,-0.04363 0.08662,-0.00969 0.02877,0.03394 0.02982,0.043601 0,0.043601 -0.02166,0 -0.03937,0.026201 -0.03937,0.058135 0,0.031934 0.02099,0.058135 0.03937,0.058135 0.0499,0 0.0038,0.1762796 -0.125979,0.4941484 -0.111207,0.2723606 -0.13571,0.2977743 -0.244085,0.285831 -0.02813,-0.0031 -0.09378,0.06814 -0.149603,0.1598714 -0.09675,0.1589585 -0.09898,0.1724273 -0.05511,0.2955202 0.05454,0.1530426 0.06005,0.1986283 0.01575,0.1986283 -0.01805,0 -0.03937,-0.025352 -0.03937,-0.058135 0,-0.077196 -0.124143,-0.3681892 -0.157476,-0.3681892 -0.01407,0 -0.04234,0.019243 -0.06299,0.043601 -0.02817,0.033239 -0.02956,0.023539 -0.01575,-0.038756 0.02463,-0.1111342 -0.03063,-0.1041719 -0.118107,0.014525 -0.03923,0.053224 -0.08356,0.096891 -0.102359,0.096891 -0.02291,0 -0.02457,0.023345 0,0.077513 0.02875,0.063375 0.05734,0.078448 0.12598,0.058135 l 0.08662,-0.024223 -0.07874,0.096891 c -0.05578,0.070076 -0.06647,0.1148455 -0.04724,0.1647162 0.01478,0.038342 0.02803,0.090136 0.03149,0.1114256 0.0035,0.021291 0.01232,0.047489 0.01575,0.058135 0.03393,0.1055377 0.02232,0.2336287 -0.02362,0.3342768 -0.05781,0.1266461 -0.219055,0.2631721 -0.267709,0.2276958 -0.01542,-0.011239 -0.06032,0.014712 -0.09449,0.053291 -0.04801,0.054199 -0.07396,0.056445 -0.118106,0.024223 -0.04589,-0.033483 -0.06967,-0.017194 -0.141727,0.067825 -0.04936,0.058237 -0.07045,0.1017364 -0.04724,0.1017364 0.02322,0 0.0276,0.02097 0.01575,0.043601 -0.01185,0.022632 0.0039,0.070625 0.0315,0.106581 0.02758,0.035954 0.06043,0.1127371 0.07874,0.1695607 0.02872,0.089131 0.02767,0.1128939 -0.03937,0.1647163 -0.07346,0.056789 -0.0824,0.050652 -0.181097,-0.058135 -0.05742,-0.063292 -0.110122,-0.1114257 -0.118106,-0.1114257 -0.008,0 -0.03938,0.050035 -0.06299,0.1162702 l -0.03937,0.1211155 -0.02362,-0.1986282 c -0.02101,-0.1868509 -0.0315,-0.2002328 -0.102359,-0.17925 -0.06338,0.018769 -0.07779,6.232e-4 -0.09449,-0.087203 -0.01107,-0.058298 -0.05225,-0.1534396 -0.09449,-0.2131621 -0.06929,-0.097983 -0.08759,-0.1047906 -0.165349,-0.06298 -0.04741,0.025483 -0.15177,0.1252229 -0.236212,0.2180066 -0.08446,0.092789 -0.165553,0.1647162 -0.181097,0.1647162 -0.01554,0 -0.0315,0.053786 -0.0315,0.1162702 2e-6,0.1309947 -0.04932,0.3111345 -0.08661,0.3100539 -0.04063,-0.00125 -0.244087,-0.5596333 -0.244085,-0.6733983 0,-0.085789 -0.0086,-0.097901 -0.06299,-0.077513 -0.04291,0.016067 -0.06284,0.00428 -0.06299,-0.029068 -1.22e-4,-0.028046 -0.0506,-0.087744 -0.110233,-0.1356486 -0.08576,-0.068884 -0.157148,-0.087203 -0.330698,-0.087203 -0.178072,0 -0.220463,-0.013363 -0.220463,-0.06298 0,-0.047081 -0.02248,-0.057414 -0.09449,-0.038757 -0.073486,0.019046 -0.10347,0.00428 -0.1653465,-0.072669 -0.193025,-0.2400374 -0.2572472,-0.00414 -0.070864,0.2616081 0.051448,0.073358 0.1879795,0.091088 0.220465,0.029067 0.011878,-0.022672 0.055019,-0.00456 0.1102315,0.043601 l 0.09449,0.077513 -0.06299,0.1259594 C 10.051415,8.5522876 9.5261452,8.8800503 9.4802551,8.7945297 9.4642164,8.7646327 9.4490353,8.7149854 9.4487602,8.6879487 9.4484798,8.660912 9.411771,8.5648433 9.3621493,8.4747866 9.3125275,8.3847268 9.2612278,8.2887123 9.2519166,8.2567799 9.2259646,8.167748 9.0395429,7.8318403 9.0157053,7.8304559 c -0.083296,-0.00482 -0.029487,0.3665147 0.06299,0.4360132 0.022655,0.017023 0.039367,0.061735 0.039369,0.1017364 0,0.040002 0.028047,0.09887 0.055114,0.1308041 0.027067,0.031936 0.047243,0.084263 0.047243,0.1162701 0,0.032009 0.040355,0.095014 0.094485,0.1404932 0.054132,0.045478 0.1023595,0.1074415 0.1023595,0.1356487 0,0.076298 0.092468,0.1057329 0.2519598,0.077513 0.091237,-0.016139 0.1417273,-0.011751 0.1417273,0.014526 -2.1e-6,0.076806 -0.1459433,0.3342629 -0.2834546,0.5086822 -0.2410492,0.3057457 -0.2847157,0.4075844 -0.259833,0.5813512 0.012124,0.08468 0.038657,0.155028 0.055116,0.155027 0.016457,0 0.023619,0.05761 0.023619,0.130804 2e-6,0.113018 -0.018598,0.152438 -0.1417253,0.256763 -0.1345741,0.114029 -0.1433486,0.135339 -0.1259809,0.261608 0.014071,0.102299 0.00924,0.142657 -0.031495,0.169561 -0.029793,0.01967 -0.055117,0.07085 -0.055117,0.111425 0,0.06543 -0.07587,0.213107 -0.2125897,0.440858 -0.041947,0.06988 -0.3631133,0.153774 -0.4251819,0.111426 -0.013536,-0.0092 -0.023622,-0.06632 -0.023622,-0.125959 0,-0.05964 -0.034548,-0.170246 -0.078736,-0.247074 -0.044188,-0.07683 -0.089912,-0.205332 -0.1023572,-0.285831 -0.012445,-0.08049 -0.053021,-0.190561 -0.086611,-0.247074 -0.073706,-0.124002 -0.072604,-0.23504 -0.00787,-0.382723 0.042347,-0.09661 0.040713,-0.131065 0,-0.290676 C 8.0294489,10.031021 7.9688074,9.8995152 7.9212564,9.8409537 7.8441247,9.7459641 7.8375631,9.720842 7.8661403,9.5987242 7.8907744,9.4934467 7.8873965,9.4430461 7.8503941,9.3807175 c -0.026465,-0.044576 -0.06021,-0.071647 -0.078738,-0.058135 -0.01853,0.013517 -0.073852,0.00372 -0.1181056,-0.024223 -0.064354,-0.040635 -0.1111468,-0.041824 -0.2283382,-0.00484 -0.080595,0.025434 -0.2182896,0.043602 -0.3070763,0.043602 -0.1526335,0 -0.1664705,-0.012418 -0.3306955,-0.2131621 L 6.6142185,8.915644 6.6063418,8.6152792 c -0.00375,-0.252235 0.01246,-0.3270277 0.078738,-0.4650808 0.043439,-0.090483 0.087133,-0.1647161 0.1023594,-0.1647161 0.015229,0 0.054702,-0.065504 0.086611,-0.1453378 0.091072,-0.2278787 0.2133537,-0.3976441 0.2677062,-0.3730336 0.026517,0.011999 0.1265069,-0.00434 0.220465,-0.038757 0.093961,-0.034419 0.23375,-0.067204 0.3149493,-0.072669 0.142753,-0.00961 0.1495983,-0.00609 0.1496006,0.1017364 -2.3e-6,0.061331 0.020173,0.1237271 0.047241,0.1404932 0.1489045,0.092248 0.3940298,0.2325405 0.4094356,0.2325405 0.0098,0 0.029391,-0.046348 0.047241,-0.1017365 0.024241,-0.075239 0.051932,-0.093627 0.094487,-0.072669 0.1678756,0.08268 0.538201,0.1000994 0.5984017,0.029068 0.015905,-0.018767 0.034559,-0.1089018 0.039371,-0.2034728 l 0.00787,-0.174405 H 8.9054714 C 8.7382547,7.3056815 8.6241749,7.2416925 8.6377654,7.157057 c 0.00393,-0.024505 0.076398,-0.086133 0.165349,-0.1356486 0.1321497,-0.073561 0.1786575,-0.079944 0.2362113,-0.043601 0.038744,0.024463 0.1193232,0.040857 0.1810951,0.033913 0.1649428,-0.01855 0.1686329,-0.146034 0.00787,-0.2809863 -0.068251,-0.0573 -0.1089517,-0.1017365 -0.086611,-0.1017365 0.022338,0 0.047243,-0.037295 0.047243,-0.082358 0,-0.066076 -0.019205,-0.076958 -0.078738,-0.058135 -0.040601,0.012838 -0.093448,0.023931 -0.1181058,0.024223 -0.029485,3.116e-4 -0.035595,0.02833 -0.023621,0.082358 l 0.015748,0.082358 -0.06299,-0.082358 c -0.03568,-0.045185 -0.079355,-0.082358 -0.094487,-0.082358 -0.05152,0 -0.1091829,0.1182918 -0.1496005,0.3003647 -0.023143,0.1042805 -0.056041,0.1807259 -0.078736,0.1744054 -0.077393,-0.021553 -0.1653487,0.032925 -0.1653487,0.106581 0,0.1218218 -0.064356,0.088812 -0.1181058,-0.06298 C 8.260218,6.8765729 8.1963074,6.7840234 8.1417215,6.7840234 c -0.019331,0 -0.039371,-0.025516 -0.039371,-0.058135 2.6e-6,-0.059982 -0.1278528,-0.1429443 -0.1732215,-0.1114258 -0.074098,0.051478 0.010459,0.2411723 0.165349,0.3681889 0.046483,0.038117 0.068575,0.076489 0.047243,0.092048 C 8.122481,7.0887295 8.0292712,7.0091565 7.937004,6.9002939 7.7862347,6.7224033 7.765007,6.7084866 7.7165395,6.7598005 c -0.033005,0.034947 -0.094377,0.046536 -0.1496003,0.033912 -0.068423,-0.015643 -0.086611,-0.00386 -0.086611,0.043601 0,0.034418 -0.028512,0.09497 -0.06299,0.1356485 C 7.3828582,7.013641 7.3294662,7.1109486 7.2992303,7.1861244 7.2371077,7.3405887 7.1491895,7.3733723 7.0157785,7.2975502 6.9355851,7.2519739 6.9237927,7.2313862 6.9291676,7.0456314 l 0.00787,-0.2034728 0.1181057,-0.00484 c 0.235201,-0.010139 0.2283382,-0.00907 0.2283382,-0.1501824 0,-0.08762 -0.021522,-0.1498228 -0.06299,-0.1840945 -0.060602,-0.050081 -0.061181,-0.052604 0.023622,-0.096892 0.048552,-0.025354 0.1712445,-0.1353751 0.2677099,-0.2422276 0.096459,-0.1068523 0.1954493,-0.1937837 0.2204629,-0.1937837 0.025016,0 0.046968,-0.030568 0.047243,-0.067824 3.272e-4,-0.042352 0.00855,-0.051236 0.023622,-0.024223 0.01434,0.025708 0.091368,0.037574 0.1889702,0.029068 0.090221,-0.00786 0.1857214,-0.013565 0.2204631,-0.014525 0.083768,-0.00234 0.1483107,-0.1097962 0.1496004,-0.2470741 8.88e-4,-0.094001 0.013841,-0.1033968 0.055116,-0.06298 0.054208,0.053083 0.068506,0.023552 0.086611,-0.1550269 0.00747,-0.073676 0.032043,-0.095404 0.094486,-0.096891 0.045111,-0.00109 0.1060321,-0.019822 0.1417253,-0.043601 0.062095,-0.041368 0.062019,-0.046008 -0.023619,-0.092048 -0.067967,-0.036539 -0.1112369,-0.038169 -0.1732226,-0.00484 -0.1130431,0.06077 -0.1706384,0.023587 -0.1889704,-0.1211149 -0.011991,-0.094613 0.00637,-0.1581321 0.078738,-0.2664526 0.1034221,-0.1548114 0.1210385,-0.2309668 0.055116,-0.29552 -0.061035,-0.059762 -0.1889706,0.051328 -0.1889706,0.164716 0,0.048305 -0.032802,0.1283391 -0.078738,0.1792501 -0.069467,0.076999 -0.089852,0.1237718 -0.086611,0.2858309 0.00695,0.3471595 -0.065451,0.5981341 -0.1732221,0.6007293 -0.013532,3.116e-4 -0.023619,-0.03425 -0.023619,-0.077513 0,-0.110745 -0.084649,-0.3488106 -0.125981,-0.3488106 -0.018962,0 -0.039368,0.023634 -0.039368,0.05329 0,0.064811 -0.095834,0.1175259 -0.1338539,0.072669 C 7.6229463,5.4197235 7.6017577,5.3301629 7.5905612,5.2337765 7.5719934,5.0739808 7.5828045,5.0483503 7.6692971,4.9624792 7.7519737,4.8804017 7.8202176,4.7692707 7.9999949,4.4392632 8.0229988,4.3970355 8.0733341,4.2886034 8.1102273,4.1970336 8.1739959,4.0387527 8.2955558,3.9358907 8.3936798,3.954804 c 0.022554,0.00434 0.03937,-0.019166 0.03937,-0.05329 0,-0.034123 0.012662,-0.05249 0.031495,-0.038757 0.018836,0.013735 0.054067,0.00478 0.078738,-0.019378 0.032361,-0.031688 0.054815,-0.03064 0.070862,0 0.01572,0.030012 0.032355,0.025834 0.070864,-0.00969 0.048917,-0.045122 0.056755,-0.042269 0.015746,0.019378 -0.025127,0.037773 -0.046451,0.075503 -0.039368,0.082358 0.060991,0.059028 0.2432116,0.1311157 0.2913277,0.1162703 0.06359,-0.019618 0.2992008,0.2056742 0.2992008,0.285831 2.2e-6,0.095257 -0.1265483,0.129649 -0.2519597,0.067825 -0.066337,-0.032703 -0.1252371,-0.053765 -0.1338521,-0.043601 -0.00861,0.01017 0.00994,0.081856 0.039368,0.1550268 0.029428,0.073171 0.047243,0.146916 0.047243,0.1695607 0,0.043785 0.1069179,0.1211134 0.1653489,0.1211149 0.019229,0 0.031495,-0.02384 0.031495,-0.05329 0,-0.029452 0.032433,-0.060811 0.070862,-0.072669 0.044991,-0.013875 0.067167,-0.040463 0.055116,-0.077513 -0.024228,-0.074499 0.049366,-0.1522364 0.1181057,-0.1211148 0.039425,0.017851 0.055116,0.00546 0.055116,-0.058135 0,-0.065071 0.016534,-0.082157 0.06299,-0.067824 0.039386,0.012155 0.092575,-0.020761 0.1496004,-0.092048 0.098558,-0.1232015 0.1496027,-0.1413396 0.1496027,-0.053291 -2.2e-6,0.074645 0.041713,0.075025 0.094484,0 0.02274,-0.032328 0.096804,-0.087147 0.1574738,-0.1211148 0.06067,-0.033967 0.110232,-0.078028 0.110232,-0.096892 0,-0.018863 0.02845,-0.033912 0.07087,-0.033912 0.103186,0 0.283452,0.072664 0.283452,0.1162704 3e-6,0.019207 0.02805,0.038757 0.05512,0.038757 0.05804,0 0.06406,-0.103865 0.0079,-0.1259595 -0.0563,-0.022142 -0.06125,-0.2523295 -0.0079,-0.3730335 0.02525,-0.057087 0.04714,-0.1323031 0.04725,-0.1695607 1.39e-4,-0.045277 0.02708,-0.067824 0.07874,-0.067824 0.07479,0 0.07865,0.00825 0.07874,0.3100539 4.8e-5,0.1734271 0.01161,0.3301903 0.0315,0.3536552 0.02583,0.030468 0.02705,0.075354 -0.0079,0.1550269 -0.03674,0.083822 -0.07549,0.1114256 -0.1496,0.1114256 -0.120777,0 -0.12371,0.064309 -0.0079,0.1162703 0.123742,0.055511 0.20629,0.010697 0.259834,-0.1404933 0.06062,-0.1711776 0.08217,-0.165719 0.06299,0.014525 -0.01045,0.098205 -0.0044,0.1704756 0.0315,0.2228513 0.03817,0.055762 0.05947,0.060239 0.07087,0.024223 0.0123,-0.038826 0.02665,-0.040438 0.06299,-0.00484 0.07893,0.077284 0.0868,0.015907 0.01575,-0.1404932 -0.03717,-0.081805 -0.07086,-0.1920195 -0.07086,-0.2422296 0,-0.057459 -0.02336,-0.099197 -0.06299,-0.1114256 -0.04804,-0.01482 -0.06317,-0.065799 -0.07874,-0.2180067 -0.01123,-0.1097374 -0.02951,-0.2641288 -0.03937,-0.343966 -0.01133,-0.091742 -0.0068,-0.1453378 0.01575,-0.1453378 0.01963,0 0.03937,0.037296 0.03937,0.082358 3e-6,0.062924 0.0125,0.078557 0.06299,0.06298 0.03647,-0.011254 0.09523,0.0067 0.133853,0.043601 0.06101,0.058284 0.06945,0.078478 0.0315,0.1501825 -0.05202,0.098284 -0.0025,0.2809864 0.07874,0.2809864 0.05864,0 0.06009,-0.018519 0.01575,-0.1162703 -0.02199,-0.048478 -0.02199,-0.080857 0,-0.096891 0.05332,-0.038877 0.04129,-0.1572795 -0.0315,-0.2664526 -0.07707,-0.1155942 -0.07791,-0.3137575 0,-0.3197431 0.113759,-0.00874 0.133854,-0.018958 0.133854,-0.072669 0,-0.03106 0.02354,-0.1140735 0.05512,-0.1889391 0.04206,-0.099727 0.08164,-0.1387895 0.141727,-0.1404932 0.04511,-0.00125 0.114986,-0.025488 0.157474,-0.05329 0.09716,-0.063567 0.225554,-0.036374 0.275581,0.058135 0.07762,0.1466446 0.159839,0.054684 0.141728,-0.1598715 l -0.0079,-0.096892 -0.810993,-0.00969 c -0.753228,-0.00961 -0.812626,-0.00531 -0.826695,0.058138 -0.0083,0.037633 -0.01732,0.080164 -0.01575,0.096892 0.0046,0.049385 -0.08803,0.1453378 -0.141727,0.1453378 -0.02729,0 -0.05971,0.017467 -0.07087,0.038757 -0.01115,0.02129 -0.04024,0.038757 -0.07087,0.038757 -0.03089,0 -0.07697,0.053442 -0.102357,0.1211149 -0.02516,0.067072 -0.0709,0.1518117 -0.102359,0.188939 C 9.933673,3.2719786 9.8939044,3.5257297 9.93694,3.6592855 9.978337,3.7877563 9.966032,3.7917266 9.858202,3.6738105 9.787549,3.5965515 9.776758,3.566569 9.803086,3.4848714 9.820372,3.4312228 9.853563,3.3737789 9.873951,3.3589119 9.894339,3.3440448 9.907617,3.3074508 9.897573,3.2765538 9.887521,3.2456569 9.900653,3.1775443 9.929068,3.1263715 9.957486,3.0751986 9.970602,3.0147381 9.960563,2.9955675 9.931095,2.9393207 10.211199,2.7022022 10.291259,2.7145812 c 0.06541,0.010108 0.173222,-0.1159371 0.173222,-0.1986283 0,-0.016554 -0.5381928,-0.029068 -1.196806,-0.029068 -0.8635329,0 -1.1968076,0.012262 -1.1968076,0.043601 0,0.031636 -0.014181,0.032376 -0.047241,0 -0.0311,-0.030441 -0.402377,-0.047863 -0.8110073,-0.048446 z m 5.5194851,0.00484 v 0.1792499 c 0,0.151852 -0.02204,0.2000142 -0.125981,0.3294323 -0.06687,0.083265 -0.148719,0.1501823 -0.181096,0.1501823 -0.0602,0 -0.07478,0.060675 -0.03937,0.1695608 0.03129,0.096199 0.100947,0.072094 0.212589,-0.072669 l 0.102359,-0.1308039 0.220463,0.092047 c 0.234488,0.1041347 0.337463,0.1196251 0.393688,0.05329 0.02088,-0.024638 0.07042,-0.0335 0.118105,-0.019378 0.07067,0.020925 0.08662,0.045944 0.08662,0.1598717 0,0.1452199 0.08531,0.3406111 0.133853,0.3052094 0.01607,-0.011721 0.02362,-0.055569 0.02362,-0.096891 0,-0.075255 0.04836,-0.1015938 0.07874,-0.043601 0.0089,0.016977 0.06106,0.030077 0.110233,0.029068 0.06733,-0.0014 0.102429,-0.031895 0.141726,-0.1259596 0.0584,-0.1397707 0.192884,-0.1741976 0.267707,-0.067824 0.02314,0.032903 0.06186,0.049964 0.08661,0.038757 0.027,-0.012215 0.05276,0.021321 0.07087,0.077514 0.04181,0.1297652 0.137697,0.176016 0.322822,0.1647161 0.144825,-0.00884 0.155104,-0.00321 0.165347,0.082358 0.01387,0.1156935 0.105828,0.240867 0.125981,0.1695607 0.0218,-0.077168 0.22545,-0.056819 0.291328,0.029068 0.07136,0.093021 0.110233,0.064462 0.110233,-0.067824 1e-6,-0.074034 0.01617,-0.090307 0.05512,-0.072669 0.02855,0.012914 0.07482,0.024221 0.102357,0.024223 0.02755,0 0.122747,0.087223 0.212591,0.1937837 0.07444,0.088287 0.149059,0.1555836 0.181094,0.1695608 V 4.0807268 c -0.0057,-0.00608 -0.0164,-0.013952 -0.02362,-0.024223 -0.03386,-0.04813 -0.0268,-0.057129 0.02362,-0.058135 V 2.486855 H 14.401335 Z M 1.5592853,2.6128149 c 0.031534,-0.00316 0.047865,0.014495 0.039368,0.06298 -0.00592,0.033765 -0.033385,0.059189 -0.06299,0.05329 -0.034587,-0.00688 -0.056179,0.020877 -0.06299,0.077514 -0.00672,0.055901 -0.041419,0.094143 -0.086611,0.1017364 -0.057015,0.00958 -0.06881,-0.00605 -0.055116,-0.067824 0.024422,-0.1101824 0.1589627,-0.2207212 0.228339,-0.2276959 z m 12.4011207,0.024223 c 0.02281,0.00125 0.0531,0.03343 0.110232,0.092047 0.06222,0.063828 0.06846,0.083321 0.03149,0.096892 -0.0264,0.00969 -0.05858,0.034597 -0.07874,0.053291 -0.05053,0.046848 -0.108036,-0.040437 -0.102361,-0.1598715 0.0026,-0.055309 0.01655,-0.083622 0.03937,-0.082358 z M 2.5986175,2.6806392 c 0.00606,-0.00295 0.019272,0.00657 0.055114,0.019378 0.045111,0.01612 0.09454,0.035245 0.1023594,0.043601 0.00782,0.00836 -0.00545,0.031852 -0.023621,0.05329 -0.022175,0.026164 -0.052061,0.012434 -0.094485,-0.043601 -0.03551,-0.046903 -0.047158,-0.068885 -0.039367,-0.072669 z m 11.5901255,0 c 0.0071,0 0.02111,0.026201 0.0315,0.058135 0.01039,0.031934 0.0017,0.058135 -0.01575,0.058135 -0.01747,0 -0.03149,-0.026201 -0.03149,-0.058135 0,-0.031936 0.0086,-0.058135 0.01575,-0.058135 z m 0.173222,0.1162702 c 0.01568,0 0.03874,0.014263 0.07087,0.038757 0.04241,0.032337 0.04781,0.038247 0,0.038757 -0.03051,3.116e-4 -0.06759,-0.017467 -0.07874,-0.038757 -0.01284,-0.024496 -0.0078,-0.038757 0.0079,-0.038757 z M 1.9844651,2.8114353 c 0.00469,6.231e-4 0.010647,0.018986 0.023622,0.053291 0.017795,0.047052 0.054431,0.087203 0.078738,0.087203 0.024311,0 0.047241,0.034934 0.047241,0.077514 0,0.055064 -0.024859,0.077513 -0.078735,0.077513 -0.041662,0 -0.1066997,0.026877 -0.1417272,0.058135 -0.1044413,0.093204 -0.1196726,0.066276 -0.023622,-0.038757 0.061135,-0.066847 0.086611,-0.1381803 0.086611,-0.2228513 0,-0.063683 0.00185,-0.092937 0.00787,-0.092047 z m -0.2913277,0.014526 0.086611,0.1114256 0.094484,0.1114256 -0.070862,0.024223 C 1.6371439,3.128104 1.62284,3.1141345 1.669516,2.9180084 Z m 0.5747824,0.019378 c 0.00294,3.115e-4 0.019831,0.013658 0.039368,0.038757 0.053536,0.06877 0.057597,0.071792 0.1102327,0.00969 0.052635,-0.062104 0.054555,-0.062595 0.078738,0.014526 0.014117,0.045035 0.018251,0.1085823 0.00787,0.140493 -0.020381,0.062671 -0.078738,0.080709 -0.078736,0.024223 -2e-6,-0.018981 -0.032889,-0.044559 -0.078738,-0.058135 -0.045848,-0.01358 -0.074306,-0.046226 -0.06299,-0.067824 0.011309,-0.021598 0.00721,-0.060521 -0.00788,-0.087203 -0.00566,-0.01 -0.00964,-0.014682 -0.00787,-0.014526 z m 0.5905307,0.033912 c 0.016425,-0.0029 0.037256,0.017348 0.086611,0.058135 0.053353,0.044091 0.1178742,0.053745 0.2125897,0.038757 0.1480576,-0.023431 0.2519577,0.023545 0.2519599,0.1114254 0,0.05661 -0.030956,0.070046 -0.1338541,0.058135 -0.02998,-0.00347 -0.067053,0.011595 -0.078738,0.033912 -0.026585,0.050754 -0.1707541,0.054652 -0.1968434,0.00484 -0.010664,-0.020359 -0.037884,-0.025899 -0.06299,-0.014525 -0.054492,0.024672 -0.1177015,-0.096154 -0.1102321,-0.213162 0.0032,-0.050074 0.015073,-0.074611 0.031497,-0.077514 z M 2.6616069,3.0391232 c 0.018784,-0.00161 0.043963,0.018657 0.055116,0.058135 0.00714,0.025282 -0.00593,0.048446 -0.031495,0.048446 -0.025566,0 -0.047243,-0.025609 -0.047243,-0.058135 0,-0.029277 0.00901,-0.047193 0.023621,-0.048446 z m 0.1259788,0.3003647 c 0.014589,9.348e-4 0.029893,0.00668 0.047243,0.014526 0.038753,0.017546 0.043374,0.039881 0.015746,0.1114257 -0.019218,0.049767 -0.059677,0.1100025 -0.094485,0.1356484 -0.058027,0.042757 -0.06299,0.038446 -0.06299,-0.087203 0,-0.1153243 0.031261,-0.1781304 0.094485,-0.1744052 z m -1.4487654,0.024223 c 0.00879,3.116e-4 0.020077,0.00366 0.031495,0.00484 0.2329535,0.024052 0.3026376,0.070922 0.2125898,0.1453378 -0.034927,0.028864 -0.079639,0.1048432 -0.1023573,0.1695608 -0.031207,0.088894 -0.068682,0.1211147 -0.1338541,0.1211147 -0.08382,0 -0.084335,-0.0066 -0.078738,-0.2228511 0.00497,-0.1918909 0.00933,-0.2207259 0.070864,-0.2180068 z m 1.818831,0.014526 c 0.062686,0 0.064637,0.00482 0.015746,0.048446 -0.082297,0.073419 -0.1196442,0.2204002 -0.078735,0.3245877 0.047544,0.1210884 0.1281324,0.1211504 0.1023571,0 -0.011862,-0.05578 0.00177,-0.1151107 0.031495,-0.1501824 0.026733,-0.03154 0.054243,-0.098826 0.062992,-0.1501823 0.00875,-0.051356 0.010471,0.018887 0.00787,0.155027 -0.00319,0.1674135 0.011633,0.2501205 0.039368,0.261608 0.025127,0.010403 0.039061,-0.017327 0.039369,-0.072669 3.895e-4,-0.069219 0.00865,-0.076502 0.031495,-0.033912 0.024211,0.045146 0.038196,0.049388 0.078736,0.00969 0.064864,-0.063515 0.2037718,-0.040847 0.2047166,0.033912 4.362e-4,0.03337 0.022546,0.050139 0.055116,0.043601 0.031728,-0.00637 0.055116,0.012682 0.055116,0.043601 0,0.051509 0.116746,0.119501 0.1810971,0.1065811 0.031017,-0.00623 0.01116,0.1671176 -0.031497,0.2858309 -0.022698,0.063165 -0.01661,0.068145 0.047243,0.048446 0.05303,-0.016363 0.1008057,0.00581 0.1574757,0.072669 0.043941,0.051846 0.093548,0.096891 0.1181058,0.096891 0.071203,0 0.026347,0.129505 -0.062992,0.17925 -0.044184,0.024603 -0.084357,0.028975 -0.086611,0.00969 C 4.1172946,4.6157106 4.1118756,4.5924866 4.0867466,4.545784 4.0469246,4.47179 3.928374,4.484923 3.9528925,4.560309 c 0.010956,0.033675 0.015748,0.089722 0.015748,0.1211147 0,0.031393 0.044736,0.1074617 0.1023595,0.1695608 0.1111185,0.1197459 0.1066887,0.2055317 -0.00788,0.1211147 -0.1004261,-0.073997 -0.1517782,0.00246 -0.055116,0.082358 0.082871,0.068483 0.056026,0.080532 -0.06299,0.024223 C 3.889664,5.0524932 3.875367,5.0212702 3.889898,4.9672547 3.905698,4.9085197 3.886688,4.8899347 3.811162,4.8703637 3.727069,4.8485717 3.7110851,4.8221027 3.693054,4.6668908 3.681792,4.5699578 3.681812,4.4252426 3.693054,4.3423031 3.708822,4.225957 3.705719,4.1921208 3.669435,4.1921208 c -0.025871,0 -0.098566,-0.045615 -0.1574756,-0.096891 -0.078281,-0.068154 -0.141868,-0.08917 -0.25195,-0.087205 C 3.1403259,4.0101635 3.0965198,3.9923668 3.0474195,3.9208218 3.0134372,3.8713108 2.9897546,3.8026867 3.0001763,3.7706395 3.0105999,3.7385937 3.0050161,3.6984482 2.9844299,3.6834367 2.898901,3.621069 3.0366679,3.3782274 3.157652,3.3782274 Z m -0.7243828,0.014526 c 0.00804,-0.00253 0.017319,6.232e-4 0.031495,0 0.0081,-4.673e-4 0.021197,0 0.031495,0 0.091776,0 0.090982,4.674e-4 0.039368,0.067824 -0.050804,0.066238 -0.048412,0.076797 0.00788,0.1501824 0.052301,0.068188 0.056524,0.08838 0.015746,0.1356485 -0.040481,0.046922 -0.064057,0.043178 -0.1417271,-0.024223 C 2.3110379,3.6297927 2.3026497,3.5720125 2.3939,3.5720125 c 0.074033,0 0.083453,-0.014231 0.03937,-0.1114256 -0.017334,-0.038217 -0.024119,-0.060233 0,-0.067824 z m 1.0393321,0.024223 c 0.035456,0 0.083043,0.034934 0.1023571,0.077513 0.031532,0.069514 0.026421,0.077513 -0.06299,0.077513 -0.077703,0 -0.1023594,-0.017101 -0.1023572,-0.077513 0,-0.05115 0.0204,-0.077513 0.06299,-0.077513 z m -1.740093,0.1114254 0.015746,0.096891 c 0.01159,0.054473 0.050802,0.1017349 0.078738,0.1017365 0.036961,0 0.038729,-0.023834 0.023621,-0.087203 -0.00574,-0.024062 -0.00111,-0.040258 0,-0.048446 0.00167,0.0016 0.00566,0.0014 0.00787,0.00484 0.014714,0.023333 0.068483,0.053495 0.1181058,0.067824 0.069638,0.020108 0.086611,0.00839 0.086611,-0.038757 0,-0.033596 0.021324,-0.047069 0.039368,-0.033912 0.018046,0.013162 0.031495,0.05563 0.031495,0.096891 0,0.041261 0.043092,0.1429535 0.1023594,0.2228514 0.1332412,0.1796203 0.1394645,0.3420375 0.00787,0.2712972 -0.064153,-0.034489 -0.105504,-0.032015 -0.1968436,0.019378 -0.1287327,0.07243 -0.2110033,0.081301 -0.259833,0.024223 -0.018044,-0.021093 -0.058396,-0.066502 -0.094485,-0.096891 -0.061017,-0.051383 -0.058802,-0.052146 0.070864,-0.05329 0.1016043,-9.348e-4 0.1417272,-0.015826 0.1417272,-0.058135 -2.3e-6,-0.058269 -0.030148,-0.070748 -0.212592,-0.067824 -0.054132,9.347e-4 -0.078818,-0.00372 -0.047241,-0.014526 C 1.7227235,3.909039 1.7189457,3.85375 1.6380086,3.82878 1.5503639,3.801737 1.5585416,3.7211556 1.6537571,3.6156179 Z m 0.9684671,0.3294323 c 0.012052,-3.116e-4 0.028523,0.01183 0.047243,0.033912 0.024464,0.028866 0.047012,0.090861 0.055116,0.140493 0.0081,0.04963 0.035362,0.1190096 0.06299,0.1550272 0.027624,0.036018 0.055116,0.08649 0.055116,0.1114254 0,0.024936 0.022279,0.048446 0.04724,0.048446 0.024961,0 0.045681,0.034934 0.055117,0.077513 0.00944,0.042579 0.035626,0.077513 0.055116,0.077513 0.050645,0 0.1347925,-0.2596064 0.1102325,-0.3391213 -0.019355,-0.062678 -0.011853,-0.065864 0.047243,-0.00484 0.043871,0.0453 0.06299,0.1160362 0.06299,0.2325404 0,0.160374 -0.00798,0.1676168 -0.1102325,0.1792499 -0.067633,0.00769 -0.1023573,0.031489 -0.1023595,0.067824 2.2e-6,0.042173 -0.037952,0.056802 -0.1259788,0.048446 C 2.8114318,4.672088 2.780094,4.74981 2.9214394,4.783163 c 0.087687,0.020691 0.097521,0.038108 0.06299,0.087203 -0.022469,0.031943 -0.061757,0.05329 -0.086611,0.05329 -0.056262,0 -0.053842,0.04743 0,0.1114256 0.032881,0.039084 0.030284,0.0449 -0.015748,0.024223 -0.039928,-0.017935 -0.06299,-0.00451 -0.06299,0.038756 0,0.034212 -0.00734,0.058135 -0.023622,0.058135 -0.023032,0 -0.1023573,0.1988778 -0.1023573,0.2567634 0,0.00637 0.034742,0.055416 0.078738,0.1114257 0.043994,0.056011 0.072824,0.1296241 0.06299,0.1598715 -0.012746,0.039187 0.00744,0.05329 0.070862,0.05329 0.048947,0 0.1274847,0.043666 0.1810951,0.096892 0.053611,0.053224 0.1306465,0.096891 0.1653489,0.096891 0.039586,0 0.059904,0.028944 0.06299,0.077513 0.00271,0.042579 0.00607,0.099347 0.00788,0.1259593 0.00366,0.053982 0.1398156,0.1453379 0.2125898,0.1453379 0.034478,0 0.040094,-0.049554 0.039368,-0.1840945 -5.296e-4,-0.1011258 4.051e-4,-0.2452294 0,-0.3197432 -4.05e-4,-0.074513 0.00237,-0.1841487 0,-0.2470743 -0.00237,-0.062926 0.011051,-0.1227626 0.031495,-0.1308039 0.046994,-0.018482 0.046634,-0.1259594 0,-0.1259594 -0.019109,0 -0.020745,0.023866 -0.00787,0.048446 0.013408,0.025593 0.00343,0.033357 -0.015746,0.019378 -0.018413,-0.013427 -0.023816,-0.066479 -0.015748,-0.1162702 0.012412,-0.076594 0.030148,-0.085944 0.1181058,-0.072669 0.1181843,0.017837 0.3149494,0.2417133 0.3149494,0.3584999 0,0.088748 0.1609975,0.1053796 0.1889704,0.019378 0.034914,-0.1073451 0.1003759,-0.096113 0.086611,0.014525 -0.014366,0.1154982 0.1217106,0.3488105 0.2047167,0.3488105 0.025461,0 0.047243,0.023838 0.047241,0.05329 2.2e-6,0.029451 0.026903,0.06638 0.062992,0.077514 0.072248,0.022291 0.092361,0.140493 0.023619,0.140493 -0.023663,0 -0.070506,0.038694 -0.1102303,0.082358 -0.039724,0.043665 -0.086406,0.069771 -0.1023595,0.058135 -0.052087,-0.037982 -0.2257154,0.01986 -0.3228224,0.1114256 -0.1041445,0.098194 -0.093452,0.165843 0.015746,0.096891 0.051786,-0.032702 0.070864,-0.0305 0.070864,0.00484 0,0.076157 0.099782,0.187271 0.1496004,0.164716 0.025856,-0.011704 0.047821,-3.115e-4 0.047243,0.029068 -0.00122,0.061318 -0.1653488,0.2103839 -0.1653488,0.1501823 0,-0.022283 0.01345,-0.038757 0.031495,-0.038757 0.018044,-1.6e-6 0.03937,-0.02961 0.039368,-0.06298 0,-0.1313109 -0.27403,0.073867 -0.3306957,0.2470743 -0.016549,0.050574 -0.055913,0.087203 -0.094485,0.087203 -0.03654,0 -0.070864,0.023838 -0.070864,0.05329 0,0.029452 -0.033155,0.061034 -0.070862,0.072669 -0.067745,0.020902 -0.061696,0.052973 0,0.2470741 0.00768,0.024179 -0.059389,0.1172607 -0.1417274,0.2083175 -0.082341,0.091055 -0.1496026,0.1836092 -0.1496004,0.2034728 0,0.01986 0.03445,0.085001 0.070862,0.1453377 0.040869,0.067718 0.052111,0.1157712 0.031495,0.1308041 -0.018369,0.013394 -0.030921,0.00364 -0.031495,-0.024223 -0.00349,-0.1692532 -0.3341905,-0.3261963 -0.4173144,-0.1986246 -0.024778,0.038025 -0.066115,0.050433 -0.1102326,0.033912 -0.037804,-0.014153 -0.1111273,-0.00397 -0.1653489,0.024223 -0.1916676,0.099662 -0.2030298,0.5334586 -0.015747,0.6782429 0.096042,0.074251 0.2266341,0.040084 0.2755796,-0.067824 0.019198,-0.04233 0.060179,-0.072669 0.086611,-0.072669 0.054774,0 0.064873,0.056224 0.015748,0.092048 -0.018044,0.013161 -0.031495,0.069146 -0.031495,0.1211149 0,0.084846 0.012824,0.092049 0.1338519,0.092048 0.1291735,0 0.1309891,0.00416 0.1102325,0.1017365 -0.016101,0.075695 8.257e-4,0.1255981 0.055116,0.1937837 0.055197,0.069318 0.060947,0.092048 0.023622,0.092048 -0.027163,0 -0.070777,-0.039788 -0.094486,-0.092048 -0.044009,-0.097031 -0.2108397,-0.2180067 -0.307074,-0.2180067 -0.029419,0 -0.068322,-0.026117 -0.078738,-0.058135 -0.013272,-0.040815 -0.05876,-0.052855 -0.1574735,-0.048446 -0.147176,0.00657 -0.4565107,-0.1476663 -0.4645496,-0.2325403 -0.00225,-0.023812 -0.00562,-0.065 -0.00788,-0.087203 -0.00673,-0.066226 -0.3059152,-0.4214795 -0.354317,-0.4214795 -0.055808,0 -0.053609,0.044378 0,0.1114257 0.033027,0.041305 0.029954,0.047491 -0.00787,0.033912 C 1.9428848,8.1990082 1.8755705,8.0892991 1.8191163,7.9660497 1.7626603,7.8428003 1.6780656,7.7145231 1.6301459,7.6802188 1.5822264,7.6459129 1.5264249,7.5656663 1.5041671,7.5009689 1.481905,7.4362683 1.4355391,7.360257 1.4018077,7.331408 1.3546607,7.291082 1.3406277,7.237094 1.3466917,7.0988677 c 0.00434,-0.09889 0.025107,-0.2193058 0.03937,-0.2664526 0.014759,-0.048785 0.01008,-0.093485 -0.00788,-0.106581 -0.017354,-0.012651 -0.031495,-0.062875 -0.031495,-0.1114257 0,-0.056594 -0.034026,-0.1073794 -0.086611,-0.1356486 -0.075311,-0.040488 -0.092603,-0.1013334 -0.078733,-0.2276957 0.00291,-0.026522 -0.027451,-0.0858 -0.062989,-0.1308041 -0.035534,-0.045004 -0.056871,-0.1060493 -0.047241,-0.1356486 0.010175,-0.031291 -0.00273,-0.05329 -0.031497,-0.05329 -0.027216,0 -0.0808417,-0.061135 -0.11810583,-0.1356486 -0.0708168,-0.141619 -0.11782628,-0.1688309 -0.14960042,-0.087203 -0.01036,0.026612 -0.0100718,0.00915 0,-0.038757 C 0.79708023,5.5500027 0.74719446,5.5607198 0.630182,5.698781 0.57041129,5.7693045 0.51122734,5.8047033 0.48058158,5.7908287 0.41934882,5.7631057 0.31710059,5.9431072 0.26011653,6.1832407 0.2145645,6.3752152 0.08501346,6.4907274 0.07902131,6.3431124 0.07717678,6.297647 0.0782112,6.2825886 0.08689492,6.3091996 c 0.02863606,0.087725 0.0720301,0.050453 0.11023245,-0.096892 0.020702,-0.079836 0.051876,-0.1816589 0.0708648,-0.2276958 C 0.28698548,5.938576 0.29926004,5.782375 0.29161382,5.6406463 0.27908364,5.4085019 0.26368895,5.375106 0.17350589,5.2918346 0.08773495,5.2126346 0.0731932,5.1681124 0.05540012,4.9672471 0.03927648,4.7852206 0.04772591,4.7142167 0.08689493,4.6620378 0.11464283,4.6250747 0.15786442,4.5570674 0.18925438,4.5070109 0.23542382,4.4333854 0.28787362,4.4112182 0.44121409,4.4004299 0.60426977,4.3889575 0.64512786,4.3686027 0.75616341,4.2502474 0.82715486,4.1745757 0.90688333,4.1124998 0.92938548,4.1097543 1.1183866,4.0866971 1.1648157,4.0971509 1.2049648,4.1630448 c 0.034925,0.057311 0.057144,0.060789 0.094487,0.024223 0.036885,-0.03612 0.075733,-0.031833 0.1810951,0.024223 0.07385,0.039292 0.1609322,0.071016 0.1968435,0.067825 0.06239,-0.00555 0.062486,-0.00338 0.00787,0.067824 -0.052574,0.068544 -0.04975,0.074368 0,0.096891 0.029742,0.013472 0.1020713,0.019282 0.1574735,0.00969 0.07893,-0.013673 0.110202,0.00172 0.1496026,0.072668 0.074666,0.1344534 0.1091001,0.1094878 0.094485,-0.06298 -0.013053,-0.1539898 0.056723,-0.2517499 0.094485,-0.1356487 0.00995,0.03059 0.043147,0.053291 0.078738,0.053291 0.035591,0 0.076955,0.015471 0.086611,0.033912 0.021967,0.041936 0.1810951,0.012588 0.1810951,-0.033912 0,-0.059833 0.1295751,-0.036365 0.1338542,0.024223 0.0077,0.1089684 0.015543,0.1269174 0.039368,0.1550269 0.013109,0.015471 0.028287,-0.0033 0.039368,-0.043601 0.011088,-0.040305 0.036811,-0.1096629 0.055116,-0.1550269 0.042532,-0.1053997 0.00757,-0.2370827 -0.070862,-0.2664526 -0.079604,-0.02981 -0.1118733,-0.1339759 -0.06299,-0.2034729 0.016309,-0.023187 0.027314,-0.033534 0.039368,-0.033912 z M 2.5592473,4.1533636 c 0.030945,-0.00398 0.065635,0.017845 0.078738,0.058135 0.010387,0.031934 0.00509,0.05576 -0.00787,0.053291 -0.092662,-0.017648 -0.1341401,-0.046908 -0.1181057,-0.077513 0.01091,-0.020831 0.028673,-0.031525 0.047241,-0.033912 z m 0.4409284,0.043601 c 0.00224,-9.347e-4 0.00515,0.00163 0.00788,0.00484 0.010903,0.012867 0.00948,0.044725 0,0.072669 -0.010474,0.030878 -0.022046,0.02087 -0.023621,-0.024223 -0.00108,-0.030604 0.00903,-0.050374 0.015746,-0.05329 z M 0.45696195,4.3083905 c 0.018044,0 0.0314947,0.00515 0.0314947,0.014525 0,0.00938 -0.0134509,0.030443 -0.0314947,0.043601 -0.0180442,0.013162 -0.0314948,0.00316 -0.0314948,-0.019378 0,-0.022547 0.0134509,-0.038757 0.0314948,-0.038757 z M 6.5512287,4.5554648 C 6.659589,4.5485348 6.6187937,4.7326916 6.4646177,4.826762 6.4119147,4.858918 6.3597902,4.885223 6.3543851,4.884897 6.3187051,4.882747 6.2837761,4.819125 6.2756471,4.7492485 c -0.00873,-0.074999 0.00886,-0.1083855 0.1023592,-0.1356486 0.018044,-0.00526 0.074493,-0.024037 0.1181058,-0.043601 0.021596,-0.00969 0.039637,-0.01355 0.055116,-0.014526 z M 3.1733976,4.7153363 c 0.014562,-0.00333 0.043876,0.023655 0.070864,0.06298 0.044583,0.064957 0.051878,0.1024388 0.023621,0.1744056 -0.019552,0.04979 -0.043516,0.087037 -0.055116,0.087203 -0.050483,7.789e-4 -0.08339,-0.2678014 -0.03937,-0.3197432 0.0014,-0.00166 -0.00208,-0.00437 0,-0.00484 z m 0.4566766,0.014525 c 0.043594,0 0.041325,0.010589 0.00788,0.058135 -0.022463,0.031936 -0.040432,0.058135 -0.047243,0.058135 -0.00681,0 -0.015748,-0.026199 -0.015748,-0.058135 0,-0.031934 0.025843,-0.058135 0.055116,-0.058135 z m -3.45656691,0.668554 c 0.005778,-0.00257 0.010226,0.00357 0.0236215,0.019378 0.0200757,0.023683 0.030539,0.06272 0.0236216,0.087203 -0.0163048,0.057711 -0.0551163,0.00428 -0.0551163,-0.072668 0,-0.021784 0.0021,-0.031334 0.007873,-0.033913 z m 6.93675531,0.092048 c 0.00282,0.00125 0.00709,0.00789 0.00787,0.024223 0.0018,0.037257 0.015955,0.067824 0.031495,0.067824 0.015543,0 0.016499,0.043668 0.00788,0.096892 -0.00862,0.053225 -0.00156,0.096891 0.015746,0.096891 0.017306,0 0.060476,0.061135 0.094485,0.1356486 0.034013,0.074513 0.073236,0.1356487 0.086611,0.1356487 0.013377,0 0.017201,0.024612 0.00788,0.05329 -0.00933,0.028677 -0.063673,0.069485 -0.1259811,0.092048 -0.080008,0.028971 -0.1097176,0.029074 -0.094484,0 0.034428,-0.065732 0.047121,-0.3778782 0.015748,-0.3778782 -0.050272,0 -0.095523,-0.1713668 -0.070864,-0.2712972 0.00959,-0.038876 0.018917,-0.055416 0.023621,-0.05329 z m 0.6298985,0.130804 c 0.00943,4.674e-4 0.023787,0.010681 0.039368,0.029068 0.023545,0.027784 0.028608,0.062864 0.00787,0.106581 -0.027903,0.058833 -0.037424,0.060434 -0.055116,-0.019378 -0.01618,-0.073007 -0.01287,-0.117236 0.00788,-0.1162702 z M 6.9842836,5.853808 c 0.040438,0 0.00696,0.2057486 -0.03937,0.2422295 -0.059119,0.046545 -0.07361,0.0337 -0.070862,-0.058135 0.00273,-0.09126 0.058097,-0.1840944 0.110232,-0.1840945 z m 7.2044594,0.00484 c 0.0081,-4.674e-4 0.01919,0.010418 0.0315,0.033912 0.01038,0.019818 0.0026,0.044762 -0.01575,0.058135 -0.01834,0.01338 -0.03149,-7.79e-4 -0.03149,-0.033913 0,-0.038247 0.0053,-0.057599 0.01575,-0.058135 z M 0.44121549,5.9022462 c 0.002239,-9.348e-4 0.005147,-0.00321 0.007874,0 0.0109022,0.012867 0.009477,0.04957 0,0.077513 -0.0104722,0.030878 -0.0220462,0.020871 -0.0236216,-0.024223 -0.001075,-0.030604 0.009035,-0.050374 0.0157476,-0.05329 z M 14.235986,6.1105637 c 0.01912,-0.00476 0.0315,0.013984 0.0315,0.053291 0,0.017755 -0.01435,0.041961 -0.03937,0.05329 -0.03186,0.014418 -0.043,-0.0014 -0.0315,-0.05329 0.0068,-0.030522 0.0245,-0.04959 0.03937,-0.053291 z M 4.574922,6.3867055 c 0.014641,-0.00192 0.038958,0.0067 0.070864,0.024223 0.043705,0.024006 0.085705,0.065434 0.094484,0.092048 0.010896,0.033029 -0.02468,0.048446 -0.1023594,0.048446 -0.113783,0 -0.1289662,-0.019938 -0.094485,-0.1259594 0.00738,-0.022683 0.016857,-0.036836 0.031495,-0.038756 z m 5.2124084,0.077513 c -0.06525,-6.232e-4 -0.1417274,0.018735 -0.1417274,0.048446 -2.2e-6,0.016389 -0.033155,0.041656 -0.070864,0.053291 -0.079493,0.024527 -0.061207,0.1235735 0.047243,0.3052091 0.04785,0.080141 0.05478,0.1453038 0.039367,0.2422298 -0.016213,0.1019688 -0.00615,0.1382995 0.039371,0.1695606 0.032165,0.022086 0.1055584,0.042954 0.1574733,0.043601 0.093765,0.00125 0.08672,-0.00392 0.070864,-0.1986284 -0.00957,-0.1175528 -0.042859,-0.240238 -0.086611,-0.3100543 L 9.7715813,6.701603 9.8424463,6.67738 c 0.072346,-0.022322 0.087707,-0.1226154 0.031495,-0.1889391 -0.013875,-0.01637 -0.047461,-0.023872 -0.086611,-0.024222 z m 4.4092876,0.1550269 c 0.0119,9.347e-4 0.02965,0.00642 0.04724,0.019378 0.04277,0.031522 0.04478,0.055746 0.01575,0.077513 -0.02184,0.016374 -0.06276,0.028742 -0.09449,0.029068 -0.04847,4.674e-4 -0.05629,-0.010946 -0.02362,-0.072669 0.01948,-0.036805 0.03526,-0.054785 0.05512,-0.05329 z m -0.07874,0.285831 c 0.002,-0.00109 0.0056,-0.00268 0.0079,0 0.0091,0.010713 0.0037,0.1038587 -0.0079,0.2034728 -0.01788,0.1539495 -0.02952,0.1826263 -0.10236,0.2034729 -0.04713,0.013486 -0.114007,0.048757 -0.1496,0.077513 -0.03559,0.028759 -0.09727,0.049199 -0.133855,0.048446 -0.05987,-0.00125 -0.0577,-0.00533 0.01575,-0.053291 0.04489,-0.029312 0.08847,-0.04404 0.102359,-0.033912 0.0139,0.010124 0.03642,-0.010309 0.04724,-0.043601 0.01083,-0.033285 0.03832,-0.058135 0.06299,-0.058135 0.05025,-1.4e-6 0.149598,-0.1933216 0.149601,-0.29552 -3e-6,-0.027406 0.0019,-0.045311 0.0079,-0.048446 z M 8.4409223,7.2248198 c 0.011764,-0.00234 0.023621,0.00246 0.023621,0.019378 0,0.022545 -0.01345,0.043601 -0.031495,0.043601 -0.018044,0 -0.031497,-0.00999 -0.031495,-0.019378 -2.2e-6,-0.00939 0.013451,-0.0256 0.031495,-0.038757 0.00451,-0.00329 0.00395,-0.00406 0.00787,-0.00484 z M 2.0002136,8.2567179 c 0.00169,-0.002 0.013349,0.00499 0.039368,0.029068 0.031578,0.029216 0.06299,0.064633 0.06299,0.072669 0,0.03186 -0.028003,0.011194 -0.070862,-0.05329 -0.020403,-0.030697 -0.033188,-0.046449 -0.031495,-0.048446 z M 13.204528,8.5086367 c 0.0043,-0.00156 0.0037,0.00578 0.0079,0.029068 0.0071,0.03952 0.0017,0.090783 -0.01575,0.1114257 -0.02054,0.02424 -0.02796,-0.00203 -0.01575,-0.072669 0.0079,-0.045572 0.01813,-0.065882 0.02362,-0.067824 z m -9.2673778,0.053291 c 0.018044,0 0.031495,0.00998 0.031495,0.019378 0,0.00939 -0.01345,0.025599 -0.031495,0.038757 -0.018044,0.013162 -0.031495,0.00802 -0.031495,-0.014525 0,-0.022545 0.013451,-0.043601 0.031495,-0.043601 z m 9.3303658,0.203473 c 0.0022,-9.348e-4 0.0052,0.00163 0.0079,0.00484 0.01091,0.012867 0.0095,0.044727 0,0.072669 -0.01047,0.03088 -0.01418,0.020868 -0.01575,-0.024223 -0.0011,-0.030604 0.0011,-0.050374 0.0079,-0.053291 z m 0.118106,0.2616079 c 0.01748,0 0.0315,0.026199 0.0315,0.058135 0,0.031933 -0.0087,0.058135 -0.01575,0.058135 -0.0071,0 -0.02111,-0.026203 -0.03149,-0.058135 -0.01039,-0.031936 -0.0017,-0.058135 0.01575,-0.058135 z m -9.4405985,0.019378 c 0.020658,-0.00414 0.020062,0.012836 0.00787,0.058135 -0.024112,0.089646 0.065742,0.1126163 0.094486,0.024223 0.012171,-0.037421 0.068423,-0.046419 0.1889683,-0.038757 0.1388621,0.00882 0.1831092,0.029215 0.2677083,0.1259595 0.057109,0.065306 0.1578032,0.1312768 0.220463,0.1453378 0.2273367,0.051007 0.3345819,0.1833721 0.2598329,0.3245876 -0.049805,0.094097 -0.020994,0.1443317 0.047243,0.077513 0.031008,-0.030364 0.055116,-0.030294 0.055116,-0.00484 0,0.022575 0.023539,0.039704 0.055116,0.038757 0.031576,-9.348e-4 0.1033414,0.016229 0.1574734,0.038757 0.054132,0.022525 0.1861534,0.071101 0.2913279,0.1065809 0.1809009,0.061025 0.1844817,0.068333 0.1653487,0.1647166 -0.011121,0.05604 -0.051217,0.1384 -0.09448,0.184097 -0.044417,0.04692 -0.090338,0.148299 -0.1023595,0.23254 -0.044583,0.312336 -0.08138,0.403315 -0.1968435,0.460237 -0.146039,0.072 -0.2331804,0.169334 -0.2598331,0.300364 -0.011908,0.05855 -0.036612,0.106581 -0.06299,0.106581 -0.026378,0 -0.059073,0.04803 -0.070862,0.106581 -0.034185,0.169767 -0.1157947,0.252396 -0.220465,0.227697 -0.096532,-0.02278 -0.1083036,0.0087 -0.055116,0.12596 0.035731,0.07877 -0.033016,0.168466 -0.1574734,0.213161 -0.039938,0.01435 -0.073016,0.06396 -0.078738,0.111425 -0.00566,0.0469 -0.035923,0.08918 -0.06299,0.09205 -0.027067,0.0029 -0.062996,0.0072 -0.078738,0.0097 -0.015744,0.0025 -0.00576,0.02756 0.015748,0.05814 0.042536,0.06048 0.00803,0.166798 -0.094487,0.305211 -0.048578,0.06559 -0.051668,0.07654 0,0.121114 0.05209,0.04494 0.051706,0.05879 -0.023621,0.17925 -0.04464,0.07139 -0.078162,0.155818 -0.078736,0.188939 -5.609e-4,0.03312 -0.023272,0.08871 -0.047243,0.12596 -0.058368,0.09073 -0.1181056,0.08581 -0.1181056,-0.0097 0,-0.04258 -0.010088,-0.07752 -0.023621,-0.07752 -0.013533,8e-6 -0.019517,-0.0917 -0.015746,-0.203474 0.00377,-0.111772 0.00826,-0.390761 0.015746,-0.624951 0.00748,-0.234187 0.034792,-0.477819 0.055116,-0.53775 0.020324,-0.05993 0.031495,-0.176435 0.031495,-0.261608 0,-0.08517 0.015312,-0.186994 0.031495,-0.222852 0.016187,-0.03586 0.038093,-0.160362 0.047243,-0.276143 0.015423,-0.195143 0.011139,-0.215829 -0.078738,-0.314885 C 3.9783124,10.668698 3.9015779,10.609878 3.8662862,10.596662 3.8309989,10.583454 3.7703531,10.48799 3.7324343,10.388344 3.694511,10.288698 3.6349998,10.173558 3.59858,10.126736 3.553512,10.068796 3.541788,10.019162 3.559212,9.9717094 3.573289,9.9333714 3.5867,9.8681995 3.582834,9.8312164 3.578964,9.7942314 3.60749,9.7089062 3.653697,9.6374327 3.740408,9.5033002 3.758186,9.3951068 3.708813,9.3031557 3.675018,9.2402117 3.74705,9.1469939 3.8820351,9.0754598 c 0.032163,-0.017043 0.050595,-0.026582 0.06299,-0.029068 z m 8.3146555,0.096891 c 0.0069,0 0.03413,0.055269 0.06299,0.1211148 0.05435,0.1240045 0.04957,0.1931077 -0.0079,0.1065811 -0.03448,-0.051928 -0.0765,-0.2276959 -0.05512,-0.2276959 z m 0.763753,0.033912 c 0.002,-4.674e-4 0.0076,0.00326 0.0079,0.00484 0.02023,0.1205428 0.002,0.3139652 -0.0315,0.4166348 -0.06028,0.1844729 -0.199391,0.1746892 -0.291326,-0.019378 -0.05241,-0.1106197 -0.05837,-0.1259595 0,-0.1259595 0.02631,0 0.108155,-0.063476 0.181094,-0.1453378 0.06382,-0.07163 0.11968,-0.1273376 0.133855,-0.1308039 z m -1.031459,0.077513 0.09449,0.067825 c 0.152845,0.1059439 0.377941,0.401712 0.377941,0.498993 0,0.031692 -0.0094,0.058135 -0.02362,0.058135 -0.03201,0 -0.267709,-0.3713995 -0.267709,-0.4214795 2e-6,-0.020068 -0.04487,-0.074512 -0.09449,-0.1211148 z m 1.196808,0.3391214 c 0.0084,-0.00109 0.01787,6.231e-4 0.0315,0.00484 0.06022,0.01858 0.06006,0.1259595 0,0.1259595 -0.01478,0 -0.03112,0.030567 -0.03937,0.067824 -0.0083,0.037258 -0.02153,0.00518 -0.02362,-0.072668 -0.0025,-0.091334 0.0063,-0.1225565 0.0315,-0.1259592 z m 0.5984,0.014525 c 0.02585,0 0.06048,0.0262 0.07087,0.058135 0.02389,0.073445 -0.01547,0.074103 -0.07087,0 -0.03479,-0.046534 -0.03865,-0.058135 0,-0.058135 z m 0.251961,0.058135 c 0.02674,-0.00208 0.07463,0.014154 0.149601,0.05329 0.165655,0.086459 0.218576,0.1430543 0.251958,0.2470743 0.01863,0.058072 0.0156,0.059881 -0.03937,0.019378 -0.04985,-0.036732 -0.07085,-0.037176 -0.102358,0 -0.0221,0.02608 -0.05307,0.050126 -0.06299,0.048446 -0.100151,-0.01696 -0.266915,-0.2703124 -0.228339,-0.3439657 0.0076,-0.014572 0.01546,-0.022966 0.0315,-0.024223 z m 0.488171,0.368189 c 0.02149,-3.12e-4 0.04397,0.01747 0.05512,0.03876 0.02518,0.04806 0.01579,0.04806 -0.04725,0 -0.02957,-0.02255 -0.03135,-0.0384 -0.0079,-0.03876 z m -0.708636,0.227696 c 0.01535,0.0011 0.03493,0.0066 0.05512,0.01938 0.04013,0.02534 0.05898,0.05882 0.04725,0.07267 -0.02618,0.03088 0.04397,0.117392 0.149602,0.184094 0.06813,0.04302 0.08825,0.03666 0.12598,-0.02422 0.02398,-0.0387 0.04582,-0.110238 0.04724,-0.164716 7.79e-4,-0.03031 0.0041,-0.05093 0.0079,-0.05814 0.002,0.003 0.0056,0.0078 0.0079,0.01453 0.0105,0.03156 0.03883,0.07807 0.06299,0.106581 0.02417,0.02851 0.04724,0.07669 0.04724,0.106581 -2e-6,0.0299 0.05422,0.11066 0.118106,0.17925 0.188513,0.202397 0.241367,0.33597 0.228339,0.561973 -0.01782,0.309028 -0.101341,0.568336 -0.20472,0.624954 -0.167188,0.09156 -0.324141,0.04399 -0.370062,-0.111426 -0.05291,-0.179079 -0.16535,-0.295416 -0.16535,-0.169562 -1e-6,0.04358 -0.03323,0.02496 -0.125979,-0.06298 -0.122392,-0.116042 -0.137676,-0.11379 -0.267707,-0.06782 -0.07447,0.02632 -0.145311,0.0684 -0.165347,0.09689 -0.02004,0.02849 -0.07496,0.05329 -0.118107,0.05329 -0.04315,0 -0.108276,0.01895 -0.141726,0.0436 -0.09818,0.07234 -0.16409,0.01565 -0.141727,-0.11627 0.01052,-0.06208 -0.0024,-0.151866 -0.02362,-0.198628 -0.05833,-0.128592 -0.07285,-0.448036 -0.02362,-0.494149 0.02275,-0.02131 0.09432,-0.05798 0.157474,-0.08236 0.06316,-0.02438 0.173484,-0.114061 0.244087,-0.198628 0.09618,-0.1152 0.133869,-0.142259 0.165348,-0.111426 0.03141,0.03074 0.07502,0.0033 0.157474,-0.09689 0.06719,-0.08164 0.09224,-0.108892 0.125979,-0.106581 z m -4.0392219,0.150185 c 0.0058,-0.0014 0.00587,0.0011 0.00788,0.0048 0.015046,0.02872 -0.089439,0.516436 -0.1259811,0.586195 -0.033723,0.06438 -0.1086002,0.04449 -0.1259787,-0.03391 -0.00891,-0.04022 -5.24e-5,-0.09699 0.015749,-0.125959 0.015798,-0.02897 0.018297,-0.101323 0.00787,-0.159872 -0.011806,-0.06629 6.232e-4,-0.106581 0.023621,-0.106581 0.020296,0 0.066289,-0.04504 0.1102305,-0.09689 0.032961,-0.03889 0.069206,-0.06345 0.086611,-0.06782 z m 5.9682879,1.429154 c 0.03359,-9.35e-4 0.0659,0.04438 0.04724,0.101737 -0.01156,0.03555 -0.03219,0.06782 -0.04724,0.06782 -0.04642,0 -0.06761,-0.07611 -0.03937,-0.135649 0.01133,-0.02387 0.0241,-0.03346 0.03937,-0.03391 z m -0.110234,0.247075 c 0.02768,0 -0.02491,0.168624 -0.07086,0.222852 -0.02469,0.02913 -0.04725,0.07617 -0.04725,0.10658 0,0.03041 -0.02715,0.05329 -0.05512,0.05329 -0.03308,0 -0.04105,-0.01696 -0.02362,-0.04845 0.01474,-0.02661 0.06027,-0.113946 0.102357,-0.193784 0.04208,-0.07984 0.08603,-0.140493 0.09449,-0.140493 z m -1.196808,0.07751 c 0.0078,-0.0023 0.0197,0 0.0315,0 0.03738,0 0.06233,0.01807 0.05512,0.0436 -0.02025,0.07167 -0.08087,0.0806 -0.102358,0.01452 -0.01021,-0.03138 -0.0076,-0.05128 0.01575,-0.05814 z M 4.1812348,13.324154 c 0.00681,0 0.02478,0.0262 0.047243,0.05814 0.03345,0.04756 0.035722,0.05814 -0.00787,0.05814 -0.029275,0 -0.055116,-0.02621 -0.055116,-0.05814 0,-0.03194 0.00893,-0.05814 0.015746,-0.05814 z"
     style="display:inline;fill:url(#oomox);fill-opacity:0.5;stroke:none;stroke-width:0.154082"
     id="path4773"
     class="ColorScheme-Text" />
  <path
     style="font-style:normal;font-variant:normal;font-weight:normal;font-stretch:normal;font-size:56.3913px;line-height:125%;font-family:Scriptina;text-align:start;writing-mode:lr-tb;text-anchor:start;display:inline;fill:url(#oomox);fill-opacity:1;stroke:url(#oomox);stroke-width:0.15579px;stroke-linecap:butt;stroke-linejoin:miter;stroke-opacity:1"
     d="m 3.8651737,13.271878 c 0.1104738,0.0383 0.2379473,0.05745 0.3824191,0.05745 0.1614623,0 0.3144293,-0.01531 0.4589027,-0.04596 0.1529639,-0.03064 0.2931842,-0.08043 0.4206609,-0.149371 C 6.0619537,12.682075 7.0562426,11.525441 8.1100245,9.6641028 8.7473814,8.5457699 9.3040142,7.377647 9.7799198,6.1597288 9.8054071,6.1061165 9.8096554,6.006539 9.7926681,5.8609953 9.7756636,5.7231255 9.7544185,5.654187 9.7289313,5.65418 c 0.00849,7e-6 -0.00426,0.015326 -0.038242,0.045959 C 9.2402774,6.9180577 8.4881875,8.3504455 7.4344165,9.9973032 6.2786576,11.805023 5.4033439,12.80846 4.8084725,13.007617 c -0.1699653,0.0383 -0.3229339,0.06128 -0.4589027,0.06894 -0.1274751,0.01531 -0.2422003,0.0038 -0.3441758,-0.03447 -0.2464504,-0.09192 -0.4419091,-0.218307 -0.5863763,-0.379162 -0.076485,-0.06894 -0.1317234,-0.103407 -0.1657153,-0.103407 -0.042491,0 -0.063739,0.02298 -0.063737,0.06894 -1.6e-6,0.04596 0.025493,0.103406 0.076485,0.172345 0.1444672,0.199156 0.3441742,0.356182 0.599123,0.471077"
     id="path24"
     class="ColorScheme-Text"/>
  <path
     style="font-style:normal;font-variant:normal;font-weight:normal;font-stretch:normal;font-size:56.3913px;line-height:125%;font-family:Scriptina;text-align:start;writing-mode:lr-tb;text-anchor:start;display:inline;fill:url(#oomox);fill-opacity:1;stroke:url(#oomox);stroke-width:0.15579px;stroke-linecap:butt;stroke-linejoin:miter;stroke-opacity:1"
     d="M 8.5306854,9.7445293 C 8.3522156,9.82879 8.2629853,9.9015594 8.2629915,9.9628347 c -6.2e-6,0.045959 0.042485,0.08809 0.1274736,0.1263873 0.084974,0.0383 0.1954509,0.07277 0.331429,0.103408 0.1359641,0.02298 0.2931812,0.04213 0.4716511,0.05745 0.1784542,0.01532 0.3654146,0.02298 0.5608811,0.02298 0.9517897,1e-6 1.7676157,-0.126387 2.4474797,-0.3791635 C 13.196185,9.5415459 13.693329,8.94408 13.693342,8.101496 13.693329,7.167002 13.149445,6.2746327 12.061686,5.424385 11.653762,5.08736 11.224605,4.7847973 10.774211,4.5166952 10.323796,4.2409498 9.8436488,3.988176 9.3337654,3.7583718 8.6623995,3.467308 7.991043,3.2413431 7.3196912,3.0804772 6.6568267,2.9119709 5.9812203,2.8123929 5.2928702,2.7817437 4.4855386,2.7357947 3.7801887,2.8775017 3.1768189,3.2068641 2.6499295,3.4979469 2.3524922,3.8541287 2.2845086,4.2754104 c -0.025495,0.114906 -0.038243,0.2412931 -0.038243,0.3791616 0,0.3983191 0.063737,0.78514 0.1912104,1.1604644 0.152967,0.4442766 0.3526741,0.7659889 0.5991229,0.9651384 0.04249,0.061285 0.08498,0.091924 0.1274736,0.091918 -1.6e-6,6.1e-6 0.00849,-0.00765 0.025493,-0.022979 C 3.189564,6.8184794 3.168319,6.772521 3.1258306,6.7112363 2.7434097,6.1980342 2.5522009,5.5354598 2.5522009,4.7235107 c 0,-0.1455284 0.012744,-0.2948952 0.038242,-0.4481003 0.1699637,-0.8732111 0.9220537,-1.3098208 2.2562731,-1.3098306 0.6118666,9.8e-6 1.2237363,0.065118 1.8356107,0.1953253 0.6203633,0.1302269 1.257728,0.3293822 1.9120957,0.5974667 0.5948652,0.2451236 1.1599963,0.5361967 1.6953896,0.8732207 0.535378,0.3293807 1.04527,0.6970521 1.529677,1.1030154 0.8923,0.773649 1.338454,1.5894203 1.338466,2.447316 -1.2e-5,0.6970474 -0.335689,1.198766 -1.007037,1.5051563 -0.288948,0.1378789 -0.620379,0.2451169 -0.994288,0.3217128 -0.365432,0.0766 -0.773347,0.1149 -1.2237416,0.114898 -0.4844055,2e-6 -0.8625746,-0.06128 -1.1345107,-0.1838369 C 8.6539028,9.9015594 8.564671,9.8364501 8.5306854,9.7445293"
     id="text6117"
     class="ColorScheme-Text"/>
  <metadata
     id="metadata1">
    <rdf:RDF>
      <cc:Work
         rdf:about="">
        <dc:creator>
          <cc:Agent>
            <dc:title>dreifacherspass</dc:title>
          </cc:Agent>
        </dc:creator>
        <cc:license
           rdf:resource="http://creativecommons.org/licenses/by-sa/4.0/" />
      </cc:Work>
      <cc:License
         rdf:about="http://creativecommons.org/licenses/by-sa/4.0/">
        <cc:permits
           rdf:resource="http://creativecommons.org/ns#Reproduction" />
        <cc:permits
           rdf:resource="http://creativecommons.org/ns#Distribution" />
        <cc:requires
           rdf:resource="http://creativecommons.org/ns#Notice" />
        <cc:requires
           rdf:resource="http://creativecommons.org/ns#Attribution" />
        <cc:permits
           rdf:resource="http://creativecommons.org/ns#DerivativeWorks" />
        <cc:requires
           rdf:resource="http://creativecommons.org/ns#ShareAlike" />
      </cc:License>
    </rdf:RDF>
  </metadata>
</svg>
