<?xml version="1.0" encoding="UTF-8" standalone="no"?>
<svg
   viewBox="0 0 48 48"
   style="display:inline;enable-background:new"
   version="1.0"
   id="svg11300"
   height="48"
   width="48"
   sodipodi:docname="org.xfce.parole.svg"
   inkscape:version="1.2.2 (b0a8486541, 2022-12-01)"
   xmlns:inkscape="http://www.inkscape.org/namespaces/inkscape"
   xmlns:sodipodi="http://sodipodi.sourceforge.net/DTD/sodipodi-0.dtd"
   xmlns:xlink="http://www.w3.org/1999/xlink"
   xmlns="http://www.w3.org/2000/svg"
   xmlns:svg="http://www.w3.org/2000/svg"
   xmlns:rdf="http://www.w3.org/1999/02/22-rdf-syntax-ns#"
   xmlns:cc="http://creativecommons.org/ns#"
   xmlns:dc="http://purl.org/dc/elements/1.1/">
  <sodipodi:namedview
     id="namedview49"
     pagecolor="#ffffff"
     bordercolor="#000000"
     borderopacity="0.25"
     inkscape:showpageshadow="2"
     inkscape:pageopacity="0.0"
     inkscape:pagecheckerboard="0"
     inkscape:deskcolor="#d1d1d1"
     showgrid="false"
     inkscape:zoom="17.165392"
     inkscape:cx="21.729769"
     inkscape:cy="43.809078"
     inkscape:window-width="1569"
     inkscape:window-height="472"
     inkscape:window-x="0"
     inkscape:window-y="0"
     inkscape:window-maximized="0"
     inkscape:current-layer="g1" />
  <defs
     id="defs3">
    <linearGradient
       inkscape:collect="always"
       id="linearGradient969">
      <stop
         style="stop-color:#000000;stop-opacity:0.52956986;"
         offset="0"
         id="stop965" />
      <stop
         style="stop-color:#000000;stop-opacity:0;"
         offset="1"
         id="stop967" />
    </linearGradient>
    <style
       id="current-color-scheme"
       type="text/css">
      .ColorScheme-Text { color: #0abdc6; } .ColorScheme-Highlight { color:#5294e2; }
     </style>
    <linearGradient
       id="arrongin"
       x1="0%"
       x2="0%"
       y1="0%"
       y2="100%">
      <stop
         offset="0%"
         style="stop-color:#dd9b44; stop-opacity:1"
         id="stop9192" />
      <stop
         offset="100%"
         style="stop-color:#ad6c16; stop-opacity:1"
         id="stop9194" />
    </linearGradient>
    <linearGradient
       id="aurora"
       x1="0%"
       x2="0%"
       y1="0%"
       y2="100%">
      <stop
         offset="0%"
         style="stop-color:#09D4DF; stop-opacity:1"
         id="stop9197" />
      <stop
         offset="100%"
         style="stop-color:#9269F4; stop-opacity:1"
         id="stop9199" />
    </linearGradient>
    <linearGradient
       id="cyberneon"
       x1="0%"
       x2="0%"
       y1="0%"
       y2="100%">
      <stop
         offset="0"
         style="stop-color:#0abdc6; stop-opacity:1"
         id="stop9202" />
      <stop
         offset="1"
         style="stop-color:#ea00d9; stop-opacity:1"
         id="stop9204" />
    </linearGradient>
    <linearGradient
       id="fitdance"
       x1="0%"
       x2="0%"
       y1="0%"
       y2="100%">
      <stop
         offset="0%"
         style="stop-color:#1AD6AB; stop-opacity:1"
         id="stop9207" />
      <stop
         offset="100%"
         style="stop-color:#329DB6; stop-opacity:1"
         id="stop9209" />
    </linearGradient>
    <linearGradient
       id="oomox"
       x1="0%"
       x2="0%"
       y1="0%"
       y2="100%">
      <stop
         offset="0%"
         style="stop-color:#0abdc6; stop-opacity:1"
         id="stop9212" />
      <stop
         offset="100%"
         style="stop-color:#b800ff; stop-opacity:1"
         id="stop9214" />
    </linearGradient>
    <linearGradient
       id="rainblue"
       x1="0%"
       x2="0%"
       y1="0%"
       y2="100%">
      <stop
         offset="0%"
         style="stop-color:#00F260; stop-opacity:1"
         id="stop9217" />
      <stop
         offset="100%"
         style="stop-color:#0575E6; stop-opacity:1"
         id="stop9219" />
    </linearGradient>
    <linearGradient
       id="sunrise"
       x1="0%"
       x2="0%"
       y1="0%"
       y2="100%">
      <stop
         offset="0%"
         style="stop-color: #FF8501; stop-opacity:1"
         id="stop9222" />
      <stop
         offset="100%"
         style="stop-color: #FFCB01; stop-opacity:1"
         id="stop9224" />
    </linearGradient>
    <linearGradient
       id="telinkrin"
       x1="0%"
       x2="0%"
       y1="0%"
       y2="100%">
      <stop
         offset="0%"
         style="stop-color: #b2ced6; stop-opacity:1"
         id="stop9227" />
      <stop
         offset="100%"
         style="stop-color: #6da5b7; stop-opacity:1"
         id="stop9229" />
    </linearGradient>
    <linearGradient
       id="60spsycho"
       x1="0%"
       x2="0%"
       y1="0%"
       y2="100%">
      <stop
         offset="0%"
         style="stop-color: #df5940; stop-opacity:1"
         id="stop9232" />
      <stop
         offset="25%"
         style="stop-color: #d8d15f; stop-opacity:1"
         id="stop9234" />
      <stop
         offset="50%"
         style="stop-color: #e9882a; stop-opacity:1"
         id="stop9236" />
      <stop
         offset="100%"
         style="stop-color: #279362; stop-opacity:1"
         id="stop9238" />
    </linearGradient>
    <linearGradient
       id="90ssummer"
       x1="0%"
       x2="0%"
       y1="0%"
       y2="100%">
      <stop
         offset="0%"
         style="stop-color: #f618c7; stop-opacity:1"
         id="stop9241" />
      <stop
         offset="20%"
         style="stop-color: #94ffab; stop-opacity:1"
         id="stop9243" />
      <stop
         offset="50%"
         style="stop-color: #fbfd54; stop-opacity:1"
         id="stop9245" />
      <stop
         offset="100%"
         style="stop-color: #0f83ae; stop-opacity:1"
         id="stop9247" />
    </linearGradient>
   
  </defs>
  <metadata
     id="metadata4">
    <rdf:RDF>
      <cc:Work
         rdf:about="">
        <dc:format>image/svg+xml</dc:format>
        <dc:type
           rdf:resource="http://purl.org/dc/dcmitype/StillImage" />
        <dc:source />
        <cc:license
           rdf:resource="http://creativecommons.org/licenses/by-sa/4.0/" />
        <dc:subject>
          <rdf:Bag />
        </dc:subject>
        <dc:date />
        <dc:rights>
          <cc:Agent>
            <dc:title />
          </cc:Agent>
        </dc:rights>
        <dc:publisher>
          <cc:Agent>
            <dc:title />
          </cc:Agent>
        </dc:publisher>
        <dc:identifier />
        <dc:relation />
        <dc:language />
        <dc:coverage />
        <dc:description />
        <dc:contributor>
          <cc:Agent>
            <dc:title />
          </cc:Agent>
        </dc:contributor>
        <dc:creator>
          <cc:Agent>
            <dc:title>dreifacherspass</dc:title>
          </cc:Agent>
        </dc:creator>
      </cc:Work>
      <cc:License
         rdf:about="http://creativecommons.org/licenses/by-sa/4.0/">
        <cc:permits
           rdf:resource="http://creativecommons.org/ns#Reproduction" />
        <cc:permits
           rdf:resource="http://creativecommons.org/ns#Distribution" />
        <cc:requires
           rdf:resource="http://creativecommons.org/ns#Notice" />
        <cc:requires
           rdf:resource="http://creativecommons.org/ns#Attribution" />
        <cc:permits
           rdf:resource="http://creativecommons.org/ns#DerivativeWorks" />
        <cc:requires
           rdf:resource="http://creativecommons.org/ns#ShareAlike" />
      </cc:License>
    </rdf:RDF>
  </metadata>
  <g
     id="g1">
    <rect
       y="37.937111"
       x="4.5099368"
       height="3.1159999"
       width="39.049046"
       id="rect2"
       class="ColorScheme-Text"
       style="display:inline;fill:url(#oomox);fill-opacity:1;fill-rule:nonzero;stroke:none;stroke-width:0.48005" />
    <rect
       style="display:inline;enable-background:new;fill:url(#linearGradient969);fill-opacity:1;fill-rule:nonzero;stroke:none;stroke-width:0.751278;opacity:1"
       id="rect1"
       class="ColorScheme-Text"
       width="39.1255"
       height="3.1159999"
       x="4.3923416"
       y="37.937111" />
  </g>
  <g
     id="g2"
     style="stroke-width:1.5;stroke-dasharray:none">
    <path
       d="m 31.451027,17.929926 -11.960585,5.965852 0.0107,-11.947746 z"
       id="path1"
       class="ColorScheme-Text"
       style="display:inline;fill:url(#oomox);fill-opacity:1;stroke:none;stroke-width:1.5;enable-background:new;stroke-dasharray:none" />
    <ellipse
       ry="12.093058"
       rx="12.106052"
       cy="17.921898"
       cx="23.975662"
       style="display:inline;fill:none;stroke:url(#oomox);stroke-width:1.2;stroke-miterlimit:4;stroke-dasharray:none;stroke-opacity:1"
       id="path2"
       class="ColorScheme-Text" />
  </g>
  <path
     id="path3"
     class="ColorScheme-Text"
     style="display:inline;opacity:1;fill:url(#oomox);fill-opacity:1;stroke:url(#oomox);stroke-width:0.618;stroke-linejoin:round;stroke-dasharray:none;stroke-opacity:1;paint-order:markers fill stroke;stop-color:#000000"
     d="M 3.2873368,46.019423 C 2.0345147,45.618174 1.0096182,45.073536 1.0096182,43.840747 v -0.274681 l 0.2671286,0.411161 c 0.4549092,0.70019 1.0677547,1.178441 1.9317438,1.50749 l 0.4122092,0.15699 20.1227352,-0.02425 c 16.313998,-0.01966 20.209942,-0.04165 20.583471,-0.116174 1.015725,-0.202653 2.066452,-1.011645 2.497582,-1.922978 0.179244,-0.37889 0.209381,-0.412912 0.207591,-0.23435 -0.0151,1.505616 -0.593767,1.758658 -1.780669,2.384371 L 44.551094,46.09752 23.942055,45.831493 C 5.1392944,45.588782 3.6717987,46.142557 3.2873368,46.019423 Z M 0.78988657,33.975138 47.156604,34.024204 M 43.558594,0.63476562 C 26.407446,0.63899384 12.040325,0.64263968 4.3925781,0.64453125 3.9805737,0.64516334 3.4440133,0.7105483 2.8691406,0.95507813 2.4475487,1.1344076 2.0142642,1.4067767 1.6289062,1.7949219 1.2973995,2.1288269 1.0063883,2.5444685 0.80078125,3.0371094 0.61233054,3.4886405 0.49818953,4.0016357 0.5,4.5566406 0.506645,16.530882 0.5137015,29.659935 0.5175781,41.943359 c 4.122e-5,0.02194 0.001776,0.03871 0.001953,0.05078 v 1.720703 c 0,2.021338 1.6336264,3.65039 3.6601562,3.65039 H 43.822266 c 2.026531,0 3.658203,-1.629069 3.658203,-3.65039 v -1.392578 -0.0039 c 0.01139,-0.122544 0.01971,-0.246377 0.01953,-0.375 C 47.4969,30.366926 47.493634,17.461556 47.490234,4.5566406 47.489361,4.0118159 47.378308,3.4944513 47.179687,3.0253906 46.978669,2.5506753 46.689842,2.1281501 46.337891,1.7773437 45.976528,1.4171568 45.552474,1.1336074 45.089844,0.93945313 44.606751,0.73670866 44.08699,0.63396852 43.558594,0.63476562 Z m 0,0.11132813 c 0.513667,-7.7489e-4 1.017134,0.0999636 1.486328,0.29687495 0.449283,0.1885526 0.86183,0.4645354 1.21289,0.8144532 0.341884,0.3407717 0.623118,0.749864 0.81836,1.2109375 0.192903,0.4555576 0.301885,0.9585793 0.302734,1.4882812 0.0034,12.9049134 0.0047,25.8102834 0.0078,37.3867184 1.76e-4,0.125256 -0.0062,0.247671 -0.01758,0.369141 v 0.002 1.400391 c 0,1.960904 -1.580474,3.539062 -3.546875,3.539062 H 4.1796875 c -1.9663999,0 -3.546875,-1.578174 -3.546875,-3.539062 v -1.722657 c -3.1477e-4,-0.02143 -0.003884,-0.03713 -0.003906,-0.04883 C 0.62502965,29.659918 0.61992624,16.530885 0.61328125,4.5566406 0.61152134,4.017134 0.72133068,3.5184683 0.90429688,3.0800781 1.1039636,2.6016703 1.3870541,2.1973062 1.7089844,1.8730469 2.0832518,1.4960724 2.5027399,1.2327243 2.9121094,1.0585937 3.4704608,0.82109145 3.9922868,0.7564735 4.3925781,0.75585937 12.040324,0.75396781 26.407446,0.75032197 43.558594,0.74609375 Z M 4.3398437,1.2363281 v 0.00977 C 3.9947957,1.2498146 3.5654971,1.2962409 3.0957031,1.4921875 2.7363842,1.6420553 2.366619,1.8705865 2.0351563,2.1992188 1.7500057,2.4819652 1.4954895,2.835975 1.3164062,3.2558594 1.1524315,3.6403195 1.0525908,4.0786086 1.0507812,4.5566406 1.0441363,16.530885 1.0370752,29.659918 1.0332031,41.943359 c -0.00102,0.476488 0.097033,0.91838 0.2617188,1.310547 0.1757104,0.41843 0.4255156,0.777053 0.7167969,1.06836 0.3245488,0.324578 0.6951985,0.561535 1.0703125,0.71875 0.4548683,0.190578 0.9047032,0.260557 1.3105468,0.257812 1.2657398,-0.0014 2.4374927,-0.0026 3.5058594,-0.0039 10.2657425,-0.01471 15.4987255,-0.0583 21.9589845,-0.06836 5.103426,-0.0079 11.41722,10e-7 13.701172,0 0.358478,6.43e-4 0.806221,-0.05668 1.28125,-0.255859 0.355155,-0.148918 0.718768,-0.376291 1.044922,-0.701172 0.279954,-0.278868 0.530902,-0.627405 0.707031,-1.042969 0.159924,-0.377341 0.258861,-0.809813 0.259765,-1.283203 0.003,-11.576435 0.0062,-24.481805 0.0098,-37.3867184 C 46.862148,4.0971693 46.77079,3.6618468 46.605469,3.2675781 46.437997,2.8681821 46.195881,2.5134365 45.900391,2.2167969 45.596992,1.9122213 45.238717,1.6707663 44.849609,1.5058594 44.443617,1.3337964 44.006624,1.2449551 43.558594,1.2441406 26.407446,1.2399106 12.040324,1.2381981 4.3925781,1.2363281 Z m 0.052734,0.1113281 h 0.052734 c 7.6555133,0.00187 21.9852263,0.00554 39.1132813,0.00977 0.433317,7.877e-4 0.855909,0.085762 1.248047,0.2519531 0.375835,0.1592822 0.720581,0.3913195 1.013671,0.6855469 0.285457,0.2865671 0.519891,0.6298748 0.681641,1.015625 0.159663,0.3807751 0.246886,0.8017272 0.246094,1.2460937 -0.0036,12.9049171 -0.0068,25.8102851 -0.0098,37.3867181 -8.75e-4,0.457841 -0.09559,0.87395 -0.25,1.238282 -0.170068,0.401263 -0.411243,0.738463 -0.68164,1.007812 -0.315121,0.313891 -0.66699,0.534007 -1.009766,0.677734 -0.45876,0.192361 -0.891698,0.246716 -1.238281,0.246094 -2.283693,0 -8.59944,-0.0079 -13.703125,0 -6.460674,0.01006 -11.691554,0.05365 -21.9570313,0.06836 -1.0683298,0.0013 -2.2400961,0.0025 -3.5058594,0.0039 C 4.0001086,45.188202 3.564469,45.121627 3.125,44.9375 2.7626351,44.785629 2.405489,44.557861 2.0917969,44.244141 1.8103511,43.96267 1.5682521,43.615327 1.3984375,43.210937 1.2393162,42.832021 1.1454955,42.404439 1.1464844,41.943359 1.1503565,29.659935 1.1574175,16.530883 1.1640625,4.5566406 1.1658135,4.0940618 1.2615564,3.6701365 1.4199219,3.2988281 1.5929009,2.893256 1.8396296,2.5525781 2.1152344,2.2792969 2.435584,1.9616828 2.7916051,1.7404607 3.1386719,1.5957031 3.611816,1.3983592 4.0527449,1.3470584 4.3925777,1.3476562 Z M 43.558981,0.69091532 C 26.407816,0.69514354 12.040096,0.69858842 4.392342,0.70047999 3.9861937,0.7011031 3.4576942,0.765453 2.8910816,1.0064693 2.4756005,1.1831995 2.0495449,1.4514709 1.6697318,1.8340311 1.343013,2.1631136 1.0543691,2.5733334 0.85173203,3.0588582 0.66602339,3.5038193 0.55438868,4.0093827 0.55617387,4.556639 c 0.006645,11.974255 0.0135094,25.102893 0.017386,37.386338 3.16e-5,0.01682 0.002362,0.0328 0.002608,0.04955 v 1.722059 c 0,1.991115 1.60760143,3.594503 3.60406833,3.594503 H 43.821505 c 1.996468,0 3.603199,-1.603388 3.603199,-3.594503 v -1.396945 c 0.01148,-0.122618 0.01932,-0.247057 0.01914,-0.374664 -0.0031,-11.576446 -0.0062,-24.481411 -0.0096,-37.386338 C 47.433383,4.0193751 47.324046,3.5089955 47.128284,3.0466859 46.930154,2.578791 46.645034,2.1633019 46.298116,1.8175125 45.941904,1.4624598 45.523159,1.1830424 45.067202,0.99168883 44.591058,0.79186066 44.080022,0.69012932 43.55899,0.69091532 Z M 4.392342,1.2915931 c 7.647754,0.00187 22.015474,0.00533 39.166639,0.00956 0.440674,8.011e-4 0.870092,0.088182 1.269157,0.2573093 0.382472,0.1620947 0.733601,0.397767 1.031846,0.6971688 0.290474,0.2916037 0.528211,0.6410101 0.692822,1.0335836 0.162492,0.3875223 0.252901,0.8155024 0.252095,1.2674218 -0.0036,12.9049284 -0.0066,25.8098914 -0.0096,37.3863374 -8.9e-4,0.465616 -0.0984,0.890498 -0.255567,1.261335 -0.173099,0.408414 -0.418518,0.751652 -0.693694,1.025761 -0.320637,0.319386 -0.678531,0.543023 -1.027497,0.689346 -0.466895,0.195771 -0.907066,0.250987 -1.259597,0.250355 -2.283825,0 -8.599025,-0.0079 -13.702586,0 -6.460473,0.01006 -11.692595,0.05397 -21.9582151,0.06868 -1.0683493,0.0013 -2.2400856,0.0022 -3.5058384,0.0036 -0.399157,0.0027 -0.8419848,-0.06561 -1.2891539,-0.252963 C 2.7344128,44.834545 2.3713353,44.602336 2.0522145,44.283186 1.7658507,43.996797 1.5191151,43.643626 1.3463524,43.232216 1.1844486,42.846674 1.088907,42.411848 1.0899124,41.943064 1.0937845,29.659619 1.1006534,16.530981 1.1072984,4.5567258 1.1090787,4.0864199 1.2077835,3.6550185 1.3689538,3.2771339 1.5449851,2.8644052 1.7944379,2.5172183 2.0748158,2.2392042 2.4007223,1.9160807 2.763899,1.6910866 3.1170922,1.5437738 3.5984943,1.3429856 4.0467943,1.291072 4.3923375,1.2916799 Z" />
</svg>
