<?xml version="1.0" encoding="UTF-8" standalone="no"?>
<svg
   version="1.1"
   viewBox="0 0 16 16"
   id="svg37"
   width="16"
   height="16"
   xmlns="http://www.w3.org/2000/svg"
   xmlns:svg="http://www.w3.org/2000/svg"
   xmlns:rdf="http://www.w3.org/1999/02/22-rdf-syntax-ns#"
   xmlns:cc="http://creativecommons.org/ns#"
   xmlns:dc="http://purl.org/dc/elements/1.1/">
  <defs
     id="defs24">
    <style
       id="current-color-scheme"
       type="text/css">&#10;   .ColorScheme-Text { color: #0abdc6; } .ColorScheme-Highlight { color:#5294e2; }&#10;  </style>
    <linearGradient
       id="arrongin"
       x1="0%"
       x2="0%"
       y1="0%"
       y2="100%">
      <stop
         offset="0%"
         style="stop-color:#dd9b44; stop-opacity:1"
         id="stop1" />
      <stop
         offset="100%"
         style="stop-color:#ad6c16; stop-opacity:1"
         id="stop2" />
    </linearGradient>
    <linearGradient
       id="aurora"
       x1="0%"
       x2="0%"
       y1="0%"
       y2="100%">
      <stop
         offset="0%"
         style="stop-color:#09D4DF; stop-opacity:1"
         id="stop3" />
      <stop
         offset="100%"
         style="stop-color:#9269F4; stop-opacity:1"
         id="stop4" />
    </linearGradient>
    <linearGradient
       id="cyberneon"
       x1="0%"
       x2="0%"
       y1="0%"
       y2="100%">
      <stop
         offset="0"
         style="stop-color:#0abdc6; stop-opacity:1"
         id="stop5" />
      <stop
         offset="1"
         style="stop-color:#ea00d9; stop-opacity:1"
         id="stop6" />
    </linearGradient>
    <linearGradient
       id="fitdance"
       x1="0%"
       x2="0%"
       y1="0%"
       y2="100%">
      <stop
         offset="0%"
         style="stop-color:#1AD6AB; stop-opacity:1"
         id="stop7" />
      <stop
         offset="100%"
         style="stop-color:#329DB6; stop-opacity:1"
         id="stop8" />
    </linearGradient>
    <linearGradient
       id="oomox"
       x1="0%"
       x2="0%"
       y1="0%"
       y2="100%">
      <stop
         offset="0%"
         style="stop-color:#0abdc6; stop-opacity:1"
         id="stop9" />
      <stop
         offset="100%"
         style="stop-color:#b800ff; stop-opacity:1"
         id="stop10" />
    </linearGradient>
    <linearGradient
       id="rainblue"
       x1="0%"
       x2="0%"
       y1="0%"
       y2="100%">
      <stop
         offset="0%"
         style="stop-color:#00F260; stop-opacity:1"
         id="stop11" />
      <stop
         offset="100%"
         style="stop-color:#0575E6; stop-opacity:1"
         id="stop12" />
    </linearGradient>
    <linearGradient
       id="sunrise"
       x1="0%"
       x2="0%"
       y1="0%"
       y2="100%">
      <stop
         offset="0%"
         style="stop-color: #FF8501; stop-opacity:1"
         id="stop13" />
      <stop
         offset="100%"
         style="stop-color: #FFCB01; stop-opacity:1"
         id="stop14" />
    </linearGradient>
    <linearGradient
       id="telinkrin"
       x1="0%"
       x2="0%"
       y1="0%"
       y2="100%">
      <stop
         offset="0%"
         style="stop-color: #b2ced6; stop-opacity:1"
         id="stop15" />
      <stop
         offset="100%"
         style="stop-color: #6da5b7; stop-opacity:1"
         id="stop16" />
    </linearGradient>
    <linearGradient
       id="60spsycho"
       x1="0%"
       x2="0%"
       y1="0%"
       y2="100%">
      <stop
         offset="0%"
         style="stop-color: #df5940; stop-opacity:1"
         id="stop17" />
      <stop
         offset="25%"
         style="stop-color: #d8d15f; stop-opacity:1"
         id="stop18" />
      <stop
         offset="50%"
         style="stop-color: #e9882a; stop-opacity:1"
         id="stop19" />
      <stop
         offset="100%"
         style="stop-color: #279362; stop-opacity:1"
         id="stop20" />
    </linearGradient>
    <linearGradient
       id="90ssummer"
       x1="0%"
       x2="0%"
       y1="0%"
       y2="100%">
      <stop
         offset="0%"
         style="stop-color: #f618c7; stop-opacity:1"
         id="stop21" />
      <stop
         offset="20%"
         style="stop-color: #94ffab; stop-opacity:1"
         id="stop22" />
      <stop
         offset="50%"
         style="stop-color: #fbfd54; stop-opacity:1"
         id="stop23" />
      <stop
         offset="100%"
         style="stop-color: #0f83ae; stop-opacity:1"
         id="stop24" />
    </linearGradient>
  </defs>
  <path
     id="path31"
     class="ColorScheme-Text"
     style="fill:url(#oomox);stroke-width:0.499999;paint-order:normal"
     d="M 2.6660156 2.265625 A 0.50000001 0.49999989 0 0 0 2.1660156 2.765625 A 0.50000001 0.49999989 0 0 0 2.6660156 3.265625 A 0.50000001 0.49999989 0 0 0 3.1660156 2.765625 A 0.50000001 0.49999989 0 0 0 2.6660156 2.265625 z M 13.328125 2.265625 A 0.50000001 0.49999989 0 0 0 12.828125 2.765625 A 0.50000001 0.49999989 0 0 0 13.328125 3.265625 A 0.50000001 0.49999989 0 0 0 13.828125 2.765625 A 0.50000001 0.49999989 0 0 0 13.328125 2.265625 z M 2.6660156 4.0429688 A 0.50000001 0.49999989 0 0 0 2.1660156 4.5429688 A 0.50000001 0.49999989 0 0 0 2.6660156 5.0429688 A 0.50000001 0.49999989 0 0 0 3.1660156 4.5429688 A 0.50000001 0.49999989 0 0 0 2.6660156 4.0429688 z M 4.4433594 4.0429688 A 0.50000001 0.49999989 0 0 0 3.9433594 4.5429688 A 0.50000001 0.49999989 0 0 0 4.4433594 5.0429688 A 0.50000001 0.49999989 0 0 0 4.9433594 4.5429688 A 0.50000001 0.49999989 0 0 0 4.4433594 4.0429688 z M 11.550781 4.0429688 A 0.50000001 0.49999989 0 0 0 11.050781 4.5429688 A 0.50000001 0.49999989 0 0 0 11.550781 5.0429688 A 0.50000001 0.49999989 0 0 0 12.050781 4.5429688 A 0.50000001 0.49999989 0 0 0 11.550781 4.0429688 z M 13.328125 4.0429688 A 0.50000001 0.49999989 0 0 0 12.828125 4.5429688 A 0.50000001 0.49999989 0 0 0 13.328125 5.0429688 A 0.50000001 0.49999989 0 0 0 13.828125 4.5429688 A 0.50000001 0.49999989 0 0 0 13.328125 4.0429688 z M 2.6660156 5.8203125 A 0.50000001 0.49999989 0 0 0 2.1660156 6.3203125 A 0.50000001 0.49999989 0 0 0 2.6660156 6.8203125 A 0.50000001 0.49999989 0 0 0 3.1660156 6.3203125 A 0.50000001 0.49999989 0 0 0 2.6660156 5.8203125 z M 4.4433594 5.8203125 A 0.50000001 0.49999989 0 0 0 3.9433594 6.3203125 A 0.50000001 0.49999989 0 0 0 4.4433594 6.8203125 A 0.50000001 0.49999989 0 0 0 4.9433594 6.3203125 A 0.50000001 0.49999989 0 0 0 4.4433594 5.8203125 z M 6.2207031 5.8203125 A 0.50000001 0.49999989 0 0 0 5.71875 6.3203125 A 0.50000001 0.49999989 0 0 0 6.2207031 6.8203125 A 0.50000001 0.49999989 0 0 0 6.7207031 6.3203125 A 0.50000001 0.49999989 0 0 0 6.2207031 5.8203125 z M 9.7734375 5.8203125 A 0.50000001 0.49999989 0 0 0 9.2734375 6.3203125 A 0.50000001 0.49999989 0 0 0 9.7734375 6.8203125 A 0.50000001 0.49999989 0 0 0 10.273438 6.3203125 A 0.50000001 0.49999989 0 0 0 9.7734375 5.8203125 z M 11.550781 5.8203125 A 0.50000001 0.49999989 0 0 0 11.050781 6.3203125 A 0.50000001 0.49999989 0 0 0 11.550781 6.8203125 A 0.50000001 0.49999989 0 0 0 12.050781 6.3203125 A 0.50000001 0.49999989 0 0 0 11.550781 5.8203125 z M 13.328125 5.8203125 A 0.50000001 0.49999989 0 0 0 12.828125 6.3203125 A 0.50000001 0.49999989 0 0 0 13.328125 6.8203125 A 0.50000001 0.49999989 0 0 0 13.828125 6.3203125 A 0.50000001 0.49999989 0 0 0 13.328125 5.8203125 z M 2.6660156 7.5957031 A 0.50000001 0.49999989 0 0 0 2.1660156 8.0957031 A 0.50000001 0.49999989 0 0 0 2.6660156 8.5957031 A 0.50000001 0.49999989 0 0 0 3.1660156 8.0957031 A 0.50000001 0.49999989 0 0 0 2.6660156 7.5957031 z M 4.4433594 7.5957031 A 0.50000001 0.49999989 0 0 0 3.9433594 8.0957031 A 0.50000001 0.49999989 0 0 0 4.4433594 8.5957031 A 0.50000001 0.49999989 0 0 0 4.9433594 8.0957031 A 0.50000001 0.49999989 0 0 0 4.4433594 7.5957031 z M 6.2207031 7.5957031 A 0.50000001 0.49999989 0 0 0 5.71875 8.0957031 A 0.50000001 0.49999989 0 0 0 6.2207031 8.5957031 A 0.50000001 0.49999989 0 0 0 6.7207031 8.0957031 A 0.50000001 0.49999989 0 0 0 6.2207031 7.5957031 z M 9.7734375 7.5957031 A 0.50000001 0.49999989 0 0 0 9.2734375 8.0957031 A 0.50000001 0.49999989 0 0 0 9.7734375 8.5957031 A 0.50000001 0.49999989 0 0 0 10.273438 8.0957031 A 0.50000001 0.49999989 0 0 0 9.7734375 7.5957031 z M 11.550781 7.5957031 A 0.50000001 0.49999989 0 0 0 11.050781 8.0957031 A 0.50000001 0.49999989 0 0 0 11.550781 8.5957031 A 0.50000001 0.49999989 0 0 0 12.050781 8.0957031 A 0.50000001 0.49999989 0 0 0 11.550781 7.5957031 z M 13.328125 7.5957031 A 0.50000001 0.49999989 0 0 0 12.828125 8.0957031 A 0.50000001 0.49999989 0 0 0 13.328125 8.5957031 A 0.50000001 0.49999989 0 0 0 13.828125 8.0957031 A 0.50000001 0.49999989 0 0 0 13.328125 7.5957031 z M 7.8964844 7.703125 A 0.50000001 0.49999989 0 0 0 7.3964844 8.203125 A 0.50000001 0.49999989 0 0 0 7.8964844 8.703125 A 0.50000001 0.49999989 0 0 0 8.3964844 8.203125 A 0.50000001 0.49999989 0 0 0 7.8964844 7.703125 z M 2.7285156 9.3730469 A 0.50000001 0.49999989 0 0 0 2.2285156 9.8730469 A 0.50000001 0.49999989 0 0 0 2.7285156 10.373047 A 0.50000001 0.49999989 0 0 0 3.2285156 9.8730469 A 0.50000001 0.49999989 0 0 0 2.7285156 9.3730469 z M 4.4433594 9.3730469 A 0.50000001 0.49999989 0 0 0 3.9433594 9.8730469 A 0.50000001 0.49999989 0 0 0 4.4433594 10.373047 A 0.50000001 0.49999989 0 0 0 4.9433594 9.8730469 A 0.50000001 0.49999989 0 0 0 4.4433594 9.3730469 z M 11.550781 9.3730469 A 0.50000001 0.49999989 0 0 0 11.050781 9.8730469 A 0.50000001 0.49999989 0 0 0 11.550781 10.373047 A 0.50000001 0.49999989 0 0 0 12.050781 9.8730469 A 0.50000001 0.49999989 0 0 0 11.550781 9.3730469 z M 13.328125 9.3730469 A 0.50000001 0.49999989 0 0 0 12.828125 9.8730469 A 0.50000001 0.49999989 0 0 0 13.328125 10.373047 A 0.50000001 0.49999989 0 0 0 13.828125 9.8730469 A 0.50000001 0.49999989 0 0 0 13.328125 9.3730469 z M 8.0546875 9.4511719 A 0.50000001 0.49999989 0 0 0 7.5546875 9.9511719 A 0.50000001 0.49999989 0 0 0 8.0546875 10.451172 A 0.50000001 0.49999989 0 0 0 8.5546875 9.9511719 A 0.50000001 0.49999989 0 0 0 8.0546875 9.4511719 z M 2.6660156 11.150391 A 0.50000001 0.49999989 0 0 0 2.1660156 11.650391 A 0.50000001 0.49999989 0 0 0 2.6660156 12.150391 A 0.50000001 0.49999989 0 0 0 3.1660156 11.650391 A 0.50000001 0.49999989 0 0 0 2.6660156 11.150391 z M 4.4433594 11.150391 A 0.50000001 0.49999989 0 0 0 3.9433594 11.650391 A 0.50000001 0.49999989 0 0 0 4.4433594 12.150391 A 0.50000001 0.49999989 0 0 0 4.9433594 11.650391 A 0.50000001 0.49999989 0 0 0 4.4433594 11.150391 z M 11.550781 11.150391 A 0.50000001 0.49999989 0 0 0 11.050781 11.650391 A 0.50000001 0.49999989 0 0 0 11.550781 12.150391 A 0.50000001 0.49999989 0 0 0 12.050781 11.650391 A 0.50000001 0.49999989 0 0 0 11.550781 11.150391 z M 13.328125 11.150391 A 0.50000001 0.49999989 0 0 0 12.828125 11.650391 A 0.50000001 0.49999989 0 0 0 13.328125 12.150391 A 0.50000001 0.49999989 0 0 0 13.828125 11.650391 A 0.50000001 0.49999989 0 0 0 13.328125 11.150391 z M 2.6660156 12.927734 A 0.50000001 0.49999989 0 0 0 2.1660156 13.427734 A 0.50000001 0.49999989 0 0 0 2.6660156 13.927734 A 0.50000001 0.49999989 0 0 0 3.1660156 13.427734 A 0.50000001 0.49999989 0 0 0 2.6660156 12.927734 z M 4.4433594 12.927734 A 0.50000001 0.49999989 0 0 0 3.9433594 13.427734 A 0.50000001 0.49999989 0 0 0 4.4433594 13.927734 A 0.50000001 0.49999989 0 0 0 4.9433594 13.427734 A 0.50000001 0.49999989 0 0 0 4.4433594 12.927734 z M 11.550781 12.927734 A 0.50000001 0.49999989 0 0 0 11.050781 13.427734 A 0.50000001 0.49999989 0 0 0 11.550781 13.927734 A 0.50000001 0.49999989 0 0 0 12.050781 13.427734 A 0.50000001 0.49999989 0 0 0 11.550781 12.927734 z M 13.328125 12.927734 A 0.50000001 0.49999989 0 0 0 12.828125 13.427734 A 0.50000001 0.49999989 0 0 0 13.328125 13.927734 A 0.50000001 0.49999989 0 0 0 13.828125 13.427734 A 0.50000001 0.49999989 0 0 0 13.328125 12.927734 z " />
  <metadata
     id="metadata37">
    <rdf:RDF>
      <cc:Work
         rdf:about="">
        <dc:creator>
          <cc:Agent>
            <dc:title>dreifacherspass</dc:title>
          </cc:Agent>
        </dc:creator>
        <cc:license
           rdf:resource="http://creativecommons.org/licenses/by-sa/4.0/" />
      </cc:Work>
      <cc:License
         rdf:about="http://creativecommons.org/licenses/by-sa/4.0/">
        <cc:permits
           rdf:resource="http://creativecommons.org/ns#Reproduction" />
        <cc:permits
           rdf:resource="http://creativecommons.org/ns#Distribution" />
        <cc:requires
           rdf:resource="http://creativecommons.org/ns#Notice" />
        <cc:requires
           rdf:resource="http://creativecommons.org/ns#Attribution" />
        <cc:permits
           rdf:resource="http://creativecommons.org/ns#DerivativeWorks" />
        <cc:requires
           rdf:resource="http://creativecommons.org/ns#ShareAlike" />
      </cc:License>
    </rdf:RDF>
  </metadata>
  <path
     id="rect85"
     class="ColorScheme-Text"
     style="fill:url(#oomox);stroke-width:0.775367;opacity:0.5"
     d="M 1.6777344 0 L 1.6777344 1.7773438 L 0 1.7773438 L 0 1.9765625 L 1.6777344 1.9765625 L 1.6777344 3.5546875 L 0 3.5546875 L 0 3.7539062 L 1.6777344 3.7539062 L 1.6777344 5.3300781 L 0 5.3300781 L 0 5.53125 L 1.6777344 5.53125 L 1.6777344 7.1074219 L 0 7.1074219 L 0 7.3085938 L 1.6777344 7.3085938 L 1.6777344 8.8847656 L 0 8.8847656 L 0 9.0859375 L 1.6777344 9.0859375 L 1.6777344 10.662109 L 0 10.662109 L 0 10.861328 L 1.6777344 10.861328 L 1.6777344 12.439453 L 0 12.439453 L 0 12.638672 L 1.6777344 12.638672 L 1.6777344 14.216797 L 0 14.216797 L 0 14.416016 L 1.6777344 14.416016 L 1.6777344 16 L 1.8769531 16 L 1.8769531 14.416016 L 3.453125 14.416016 L 3.453125 16 L 3.6542969 16 L 3.6542969 14.416016 L 5.2304688 14.416016 L 5.2304688 16 L 5.4316406 16 L 5.4316406 14.416016 L 7.0078125 14.416016 L 7.0078125 16 L 7.2070312 16 L 7.2070312 14.416016 L 8.7851562 14.416016 L 8.7851562 16 L 8.984375 16 L 8.984375 14.416016 L 10.5625 14.416016 L 10.5625 16 L 10.761719 16 L 10.761719 14.416016 L 12.339844 14.416016 L 12.339844 16 L 12.539062 16 L 12.539062 14.416016 L 14.115234 14.416016 L 14.115234 16 L 14.316406 16 L 14.316406 14.416016 L 16 14.416016 L 16 14.216797 L 14.316406 14.216797 L 14.316406 12.638672 L 16 12.638672 L 16 12.439453 L 14.316406 12.439453 L 14.316406 10.861328 L 16 10.861328 L 16 10.662109 L 14.316406 10.662109 L 14.316406 9.0859375 L 16 9.0859375 L 16 8.8847656 L 14.316406 8.8847656 L 14.316406 7.3085938 L 16 7.3085938 L 16 7.1074219 L 14.316406 7.1074219 L 14.316406 5.53125 L 16 5.53125 L 16 5.3300781 L 14.316406 5.3300781 L 14.316406 3.7539062 L 16 3.7539062 L 16 3.5546875 L 14.316406 3.5546875 L 14.316406 1.9765625 L 16 1.9765625 L 16 1.7773438 L 14.316406 1.7773438 L 14.316406 0 L 14.115234 0 L 14.115234 1.7773438 L 12.539062 1.7773438 L 12.539062 0 L 12.339844 0 L 12.339844 1.7773438 L 10.761719 1.7773438 L 10.761719 0 L 10.5625 0 L 10.5625 1.7773438 L 8.984375 1.7773438 L 8.984375 0 L 8.7851562 0 L 8.7851562 1.7773438 L 7.2070312 1.7773438 L 7.2070312 0 L 7.0078125 0 L 7.0078125 1.7773438 L 5.4316406 1.7773438 L 5.4316406 0 L 5.2304688 0 L 5.2304688 1.7773438 L 3.6542969 1.7773438 L 3.6542969 0 L 3.453125 0 L 3.453125 1.7773438 L 1.8769531 1.7773438 L 1.8769531 0 L 1.6777344 0 z M 1.8769531 1.9765625 L 3.453125 1.9765625 L 3.453125 3.5546875 L 1.8769531 3.5546875 L 1.8769531 1.9765625 z M 3.6542969 1.9765625 L 5.2304688 1.9765625 L 5.2304688 3.5546875 L 3.6542969 3.5546875 L 3.6542969 1.9765625 z M 5.4316406 1.9765625 L 7.0078125 1.9765625 L 7.0078125 3.5546875 L 5.4316406 3.5546875 L 5.4316406 1.9765625 z M 7.2070312 1.9765625 L 8.7851562 1.9765625 L 8.7851562 3.5546875 L 7.2070312 3.5546875 L 7.2070312 1.9765625 z M 8.984375 1.9765625 L 10.5625 1.9765625 L 10.5625 3.5546875 L 8.984375 3.5546875 L 8.984375 1.9765625 z M 10.761719 1.9765625 L 12.339844 1.9765625 L 12.339844 3.5546875 L 10.761719 3.5546875 L 10.761719 1.9765625 z M 12.539062 1.9765625 L 14.115234 1.9765625 L 14.115234 3.5546875 L 12.539062 3.5546875 L 12.539062 1.9765625 z M 1.8769531 3.7539062 L 3.453125 3.7539062 L 3.453125 5.3300781 L 1.8769531 5.3300781 L 1.8769531 3.7539062 z M 3.6542969 3.7539062 L 5.2304688 3.7539062 L 5.2304688 5.3300781 L 3.6542969 5.3300781 L 3.6542969 3.7539062 z M 5.4316406 3.7539062 L 7.0078125 3.7539062 L 7.0078125 5.3300781 L 5.4316406 5.3300781 L 5.4316406 3.7539062 z M 7.2070312 3.7539062 L 8.7851562 3.7539062 L 8.7851562 5.3300781 L 7.2070312 5.3300781 L 7.2070312 3.7539062 z M 8.984375 3.7539062 L 10.5625 3.7539062 L 10.5625 5.3300781 L 8.984375 5.3300781 L 8.984375 3.7539062 z M 10.761719 3.7539062 L 12.339844 3.7539062 L 12.339844 5.3300781 L 10.761719 5.3300781 L 10.761719 3.7539062 z M 12.539062 3.7539062 L 14.115234 3.7539062 L 14.115234 5.3300781 L 12.539062 5.3300781 L 12.539062 3.7539062 z M 1.8769531 5.53125 L 3.453125 5.53125 L 3.453125 7.1074219 L 1.8769531 7.1074219 L 1.8769531 5.53125 z M 3.6542969 5.53125 L 5.2304688 5.53125 L 5.2304688 7.1074219 L 3.6542969 7.1074219 L 3.6542969 5.53125 z M 5.4316406 5.53125 L 7.0078125 5.53125 L 7.0078125 7.1074219 L 5.4316406 7.1074219 L 5.4316406 5.53125 z M 7.2070312 5.53125 L 8.7851562 5.53125 L 8.7851562 7.1074219 L 7.2070312 7.1074219 L 7.2070312 5.53125 z M 8.984375 5.53125 L 10.5625 5.53125 L 10.5625 7.1074219 L 8.984375 7.1074219 L 8.984375 5.53125 z M 10.761719 5.53125 L 12.339844 5.53125 L 12.339844 7.1074219 L 10.761719 7.1074219 L 10.761719 5.53125 z M 12.539062 5.53125 L 14.115234 5.53125 L 14.115234 7.1074219 L 12.539062 7.1074219 L 12.539062 5.53125 z M 1.8769531 7.3085938 L 3.453125 7.3085938 L 3.453125 8.8847656 L 1.8769531 8.8847656 L 1.8769531 7.3085938 z M 3.6542969 7.3085938 L 5.2304688 7.3085938 L 5.2304688 8.8847656 L 3.6542969 8.8847656 L 3.6542969 7.3085938 z M 5.4316406 7.3085938 L 7.0078125 7.3085938 L 7.0078125 8.8847656 L 5.4316406 8.8847656 L 5.4316406 7.3085938 z M 7.2070312 7.3085938 L 8.7851562 7.3085938 L 8.7851562 8.8847656 L 7.2070312 8.8847656 L 7.2070312 7.3085938 z M 8.984375 7.3085938 L 10.5625 7.3085938 L 10.5625 8.8847656 L 8.984375 8.8847656 L 8.984375 7.3085938 z M 10.761719 7.3085938 L 12.339844 7.3085938 L 12.339844 8.8847656 L 10.761719 8.8847656 L 10.761719 7.3085938 z M 12.539062 7.3085938 L 14.115234 7.3085938 L 14.115234 8.8847656 L 12.539062 8.8847656 L 12.539062 7.3085938 z M 1.8769531 9.0859375 L 3.453125 9.0859375 L 3.453125 10.662109 L 1.8769531 10.662109 L 1.8769531 9.0859375 z M 3.6542969 9.0859375 L 5.2304688 9.0859375 L 5.2304688 10.662109 L 3.6542969 10.662109 L 3.6542969 9.0859375 z M 5.4316406 9.0859375 L 7.0078125 9.0859375 L 7.0078125 10.662109 L 5.4316406 10.662109 L 5.4316406 9.0859375 z M 7.2070312 9.0859375 L 8.7851562 9.0859375 L 8.7851562 10.662109 L 7.2070312 10.662109 L 7.2070312 9.0859375 z M 8.984375 9.0859375 L 10.5625 9.0859375 L 10.5625 10.662109 L 8.984375 10.662109 L 8.984375 9.0859375 z M 10.761719 9.0859375 L 12.339844 9.0859375 L 12.339844 10.662109 L 10.761719 10.662109 L 10.761719 9.0859375 z M 12.539062 9.0859375 L 14.115234 9.0859375 L 14.115234 10.662109 L 12.539062 10.662109 L 12.539062 9.0859375 z M 1.8769531 10.861328 L 3.453125 10.861328 L 3.453125 12.439453 L 1.8769531 12.439453 L 1.8769531 10.861328 z M 3.6542969 10.861328 L 5.2304688 10.861328 L 5.2304688 12.439453 L 3.6542969 12.439453 L 3.6542969 10.861328 z M 5.4316406 10.861328 L 7.0078125 10.861328 L 7.0078125 12.439453 L 5.4316406 12.439453 L 5.4316406 10.861328 z M 7.2070312 10.861328 L 8.7851562 10.861328 L 8.7851562 12.439453 L 7.2070312 12.439453 L 7.2070312 10.861328 z M 8.984375 10.861328 L 10.5625 10.861328 L 10.5625 12.439453 L 8.984375 12.439453 L 8.984375 10.861328 z M 10.761719 10.861328 L 12.339844 10.861328 L 12.339844 12.439453 L 10.761719 12.439453 L 10.761719 10.861328 z M 12.539062 10.861328 L 14.115234 10.861328 L 14.115234 12.439453 L 12.539062 12.439453 L 12.539062 10.861328 z M 1.8769531 12.638672 L 3.453125 12.638672 L 3.453125 14.216797 L 1.8769531 14.216797 L 1.8769531 12.638672 z M 3.6542969 12.638672 L 5.2304688 12.638672 L 5.2304688 14.216797 L 3.6542969 14.216797 L 3.6542969 12.638672 z M 5.4316406 12.638672 L 7.0078125 12.638672 L 7.0078125 14.216797 L 5.4316406 14.216797 L 5.4316406 12.638672 z M 7.2070312 12.638672 L 8.7851562 12.638672 L 8.7851562 14.216797 L 7.2070312 14.216797 L 7.2070312 12.638672 z M 8.984375 12.638672 L 10.5625 12.638672 L 10.5625 14.216797 L 8.984375 14.216797 L 8.984375 12.638672 z M 10.761719 12.638672 L 12.339844 12.638672 L 12.339844 14.216797 L 10.761719 14.216797 L 10.761719 12.638672 z M 12.539062 12.638672 L 14.115234 12.638672 L 14.115234 14.216797 L 12.539062 14.216797 L 12.539062 12.638672 z " />
</svg>
