<?xml version="1.0" encoding="UTF-8" standalone="no"?>
<svg
   id="svg3172"
   height="16"
   width="16"
   version="1.1"
   xmlns:xlink="http://www.w3.org/1999/xlink"
   xmlns="http://www.w3.org/2000/svg"
   xmlns:svg="http://www.w3.org/2000/svg"
   xmlns:rdf="http://www.w3.org/1999/02/22-rdf-syntax-ns#"
   xmlns:cc="http://creativecommons.org/ns#"
   xmlns:dc="http://purl.org/dc/elements/1.1/">
  <defs>
   <style id="current-color-scheme" type="text/css">
   .ColorScheme-Text { color: #0abdc6; } .ColorScheme-Highlight { color:#5294e2; }
  </style>
  <linearGradient id="arrongin" x1="0%" x2="0%" y1="0%" y2="100%">
   <stop offset="0%" style="stop-color:#dd9b44; stop-opacity:1"/>
   <stop offset="100%" style="stop-color:#ad6c16; stop-opacity:1"/>
  </linearGradient>
  <linearGradient id="aurora" x1="0%" x2="0%" y1="0%" y2="100%">
   <stop offset="0%" style="stop-color:#09D4DF; stop-opacity:1"/>
   <stop offset="100%" style="stop-color:#9269F4; stop-opacity:1"/>
  </linearGradient>
  <linearGradient id="cyberneon" x1="0%" x2="0%" y1="0%" y2="100%">
    <stop offset="0" style="stop-color:#0abdc6; stop-opacity:1"/>
    <stop offset="1" style="stop-color:#ea00d9; stop-opacity:1"/>
  </linearGradient>
  <linearGradient id="fitdance" x1="0%" x2="0%" y1="0%" y2="100%">
   <stop offset="0%" style="stop-color:#1AD6AB; stop-opacity:1"/>
   <stop offset="100%" style="stop-color:#329DB6; stop-opacity:1"/>
  </linearGradient>
  <linearGradient id="oomox" x1="0%" x2="0%" y1="0%" y2="100%">
   <stop offset="0%" style="stop-color:#0abdc6; stop-opacity:1"/>
   <stop offset="100%" style="stop-color:#b800ff; stop-opacity:1"/>
  </linearGradient>
  <linearGradient id="rainblue" x1="0%" x2="0%" y1="0%" y2="100%">
   <stop offset="0%" style="stop-color:#00F260; stop-opacity:1"/>
   <stop offset="100%" style="stop-color:#0575E6; stop-opacity:1"/>
  </linearGradient>
  <linearGradient id="sunrise" x1="0%" x2="0%" y1="0%" y2="100%">
   <stop offset="0%" style="stop-color: #FF8501; stop-opacity:1"/>
   <stop offset="100%" style="stop-color: #FFCB01; stop-opacity:1"/>
  </linearGradient>
  <linearGradient id="telinkrin" x1="0%" x2="0%" y1="0%" y2="100%">
   <stop offset="0%" style="stop-color: #b2ced6; stop-opacity:1"/>
   <stop offset="100%" style="stop-color: #6da5b7; stop-opacity:1"/>
  </linearGradient>
  <linearGradient id="60spsycho" x1="0%" x2="0%" y1="0%" y2="100%">
   <stop offset="0%" style="stop-color: #df5940; stop-opacity:1"/>
   <stop offset="25%" style="stop-color: #d8d15f; stop-opacity:1"/>
   <stop offset="50%" style="stop-color: #e9882a; stop-opacity:1"/>
   <stop offset="100%" style="stop-color: #279362; stop-opacity:1"/>
  </linearGradient>
  <linearGradient id="90ssummer" x1="0%" x2="0%" y1="0%" y2="100%">
   <stop offset="0%" style="stop-color: #f618c7; stop-opacity:1"/>
   <stop offset="20%" style="stop-color: #94ffab; stop-opacity:1"/>
   <stop offset="50%" style="stop-color: #fbfd54; stop-opacity:1"/>
   <stop offset="100%" style="stop-color: #0f83ae; stop-opacity:1"/>
  </linearGradient>
    <linearGradient
       id="linearGradient3977">
      <stop
         offset="0"
         style="stop-color:#ffffff;stop-opacity:1"
         id="stop3979" />
      <stop
         offset="0"
         style="stop-color:#ffffff;stop-opacity:0.23529412"
         id="stop3981" />
      <stop
         offset="1"
         style="stop-color:#ffffff;stop-opacity:0.15686275"
         id="stop3983" />
      <stop
         offset="1"
         style="stop-color:#ffffff;stop-opacity:0.39215687"
         id="stop3985" />
    </linearGradient>
    <linearGradient
       gradientTransform="matrix(2.4594595,0,0,3.1081081,4.9729852,-14.594559)"
       gradientUnits="userSpaceOnUse"
       xlink:href="#linearGradient3977"
       id="linearGradient3016"
       y2="42.339119"
       x2="23.99999"
       y1="5.6608582"
       x1="23.99999" />


    <linearGradient
       y2="19.541433"
       x2="87.968956"
       y1="18.534632"
       x1="87.968956"
       gradientTransform="matrix(0.3845054,0,0,0.64758051,-19.219985,-11.489834)"
       gradientUnits="userSpaceOnUse"
       id="linearGradient4572"
       xlink:href="#linearGradient3977" />

  </defs>
  <metadata
     id="metadata3177">
    <rdf:RDF>
      <cc:Work
         rdf:about="">
        <dc:format>image/svg+xml</dc:format>
        <dc:type
           rdf:resource="http://purl.org/dc/dcmitype/StillImage" />
        <dc:creator>
          <cc:Agent>
            <dc:title>dreifacherspass</dc:title>
          </cc:Agent>
        </dc:creator>
        <cc:license
           rdf:resource="http://creativecommons.org/licenses/by-sa/4.0/" />
      </cc:Work>
      <cc:License
         rdf:about="http://creativecommons.org/licenses/by-sa/4.0/">
        <cc:permits
           rdf:resource="http://creativecommons.org/ns#Reproduction" />
        <cc:permits
           rdf:resource="http://creativecommons.org/ns#Distribution" />
        <cc:requires
           rdf:resource="http://creativecommons.org/ns#Notice" />
        <cc:requires
           rdf:resource="http://creativecommons.org/ns#Attribution" />
        <cc:permits
           rdf:resource="http://creativecommons.org/ns#DerivativeWorks" />
        <cc:requires
           rdf:resource="http://creativecommons.org/ns#ShareAlike" />
      </cc:License>
    </rdf:RDF>
  </metadata>
  <path
     style="clip-rule:nonzero;display:inline;overflow:visible;visibility:visible;opacity:0.5;isolation:auto;mix-blend-mode:normal;color-interpolation:sRGB;color-interpolation-filters:linearRGB;solid-color:#000000;solid-opacity:1;fill:url(#oomox);fill-rule:nonzero;stroke:none;stroke-width:0.131901;stroke-linecap:butt;stroke-linejoin:miter;stroke-miterlimit:4;stroke-dasharray:none;stroke-dashoffset:0;stroke-opacity:1;marker:none;color-rendering:auto;image-rendering:auto;shape-rendering:auto;text-rendering:auto;enable-background:accumulate"
     d="M 8.8035465,-4.4152384e-8 C 5.2558002,3.0441602 2.7454237,4.308575 1.1862741,4.8308679 V 6.4466532 C 2.0527964,6.191494 3.1270543,5.769974 4.2447249,5.0699383 6.8161524,3.45936 9.8834851,0.40394621 9.8834851,0.40394621 9.0403722,2.0577629 8.7951075,7.7593005 8.7788158,15.300497 H 13.32115 V 9.4886161 C 13.121913,8.6017474 12.944129,7.7044271 12.785302,6.8423557 12.366922,3.6674859 12.984933,0.89432853 13.213981,-4.4152384e-8 c -0.0596,-6.660992116e-6 -2.681389,1.72790102384e-4 -4.4104345,0 z M 1.1862741,8.4004343 V 9.9585129 C 3.166013,10.775678 5.4623905,12.882432 6.7178653,15.300497 H 8.0698488 C 7.4748618,13.083345 3.6188707,9.7390854 1.1862741,8.4004343 Z"
     id="path6711"
     class="ColorScheme-Text" />
  <path
     style="color:#000000;clip-rule:nonzero;display:inline;overflow:visible;visibility:visible;opacity:0.1;isolation:auto;mix-blend-mode:normal;color-interpolation:sRGB;color-interpolation-filters:linearRGB;solid-color:#000000;solid-opacity:1;fill:#8c0000;fill-opacity:1;fill-rule:evenodd;stroke:none;stroke-width:0.131901;stroke-linecap:butt;stroke-linejoin:miter;stroke-miterlimit:4;stroke-dasharray:none;stroke-dashoffset:0;stroke-opacity:1;color-rendering:auto;image-rendering:auto;shape-rendering:auto;text-rendering:auto;enable-background:accumulate"
     d="M 13.32115,0.1319006 C 11.395392,1.2956066 5.9028948,4.365715 1.1862741,4.6421507 V 8.2470583 C 3.9399676,8.5236324 9.7431342,8.8656798 13.32115,7.3417163 Z m 0,9.4155583 C 11.837208,11.263753 10.431149,13.260429 9.4053444,15.300497 h 1.6157846 c 0.680173,-1.147175 1.483275,-2.366 2.300021,-3.432069 z"
     id="path6713" />
  <rect
     transform="rotate(45)"
     rx="0.1081562"
     ry="0.16299647"
     y="0.02384026"
     x="10.882292"
     height="1.6299646"
     width="10.166682"
     id="rect3681"
     class="ColorScheme-Text"
     style="clip-rule:nonzero;display:inline;overflow:visible;visibility:visible;opacity:1;isolation:auto;mix-blend-mode:normal;color-interpolation:sRGB;color-interpolation-filters:linearRGB;solid-color:#000000;solid-opacity:1;fill:url(#oomox);fill-rule:nonzero;stroke:none;stroke-width:0.132407;stroke-linecap:butt;stroke-linejoin:miter;stroke-miterlimit:4;stroke-dasharray:none;stroke-dashoffset:0;stroke-opacity:1;marker:none;color-rendering:auto;image-rendering:auto;shape-rendering:auto;text-rendering:auto;enable-background:accumulate" />
  <rect
     transform="rotate(45)"
     ry="0"
     rx="0"
     y="0.02384026"
     x="12.504636"
     height="1.6299646"
     width="6.9219966"
     id="rect4516"
     class="ColorScheme-Text"
     style="clip-rule:nonzero;display:inline;overflow:visible;visibility:visible;opacity:1;isolation:auto;mix-blend-mode:normal;color-interpolation:sRGB;color-interpolation-filters:linearRGB;solid-color:#000000;solid-opacity:1;fill:url(#oomox);fill-rule:nonzero;stroke:none;stroke-width:0.132407;stroke-linecap:butt;stroke-linejoin:miter;stroke-miterlimit:4;stroke-dasharray:none;stroke-dashoffset:0;stroke-opacity:1;marker:none;color-rendering:auto;image-rendering:auto;shape-rendering:auto;text-rendering:auto;enable-background:accumulate" />
  <rect
     transform="rotate(45)"
     y="0.34983313"
     x="11.098605"
     height="0.97797871"
     width="9.7340565"
     id="rect3681-7-5"
     style="color:#000000;clip-rule:nonzero;display:inline;overflow:visible;visibility:visible;opacity:0.5;isolation:auto;mix-blend-mode:normal;color-interpolation:sRGB;color-interpolation-filters:linearRGB;solid-color:#000000;solid-opacity:1;fill:none;fill-opacity:1;fill-rule:nonzero;stroke:url(#linearGradient4572);stroke-width:0.26555;stroke-linecap:round;stroke-linejoin:round;stroke-miterlimit:4;stroke-dasharray:none;stroke-dashoffset:0;stroke-opacity:1;marker:none;color-rendering:auto;image-rendering:auto;shape-rendering:auto;text-rendering:auto;enable-background:accumulate" />
  <path
     d="m 94.470715,54.938137 c 0,0.617107 -4.223675,1.738485 -4.660036,2.174846 -0.43636,0.43636 -1.557739,4.660035 -2.174845,4.660035 -0.617107,0 -1.738486,-4.223675 -2.174846,-4.660035 -0.43636,-0.436361 -4.660035,-1.557739 -4.660035,-2.174846 0,-0.617107 4.223675,-1.738485 4.660035,-2.174846 0.43636,-0.43636 1.557739,-4.660035 2.174846,-4.660035 0.617106,0 1.738485,4.223675 2.174845,4.660035 0.436361,0.436361 4.660036,1.557739 4.660036,2.174846 z"
     id="path1210"
     class="ColorScheme-Text"
     style="display:inline;opacity:1;fill:url(#oomox);fill-rule:evenodd;stroke:none;stroke-width:1.10457;stroke-linecap:butt;stroke-linejoin:round;stroke-miterlimit:4;stroke-dasharray:none;stroke-dashoffset:0;stroke-opacity:0.235294;paint-order:markers fill stroke"
     transform="matrix(0.20568022,0,0,0.20568022,-6.7689857,-4.2666111)" />
  <path
     style="display:inline;opacity:1;fill:url(#oomox);fill-rule:evenodd;stroke:none;stroke-width:1.10457;stroke-linecap:butt;stroke-linejoin:round;stroke-miterlimit:4;stroke-dasharray:none;stroke-dashoffset:0;stroke-opacity:0.235294;paint-order:markers fill stroke"
     id="path975"
     class="ColorScheme-Text"
     d="m 94.470715,54.938137 c 0,0.617107 -4.223675,1.738485 -4.660036,2.174846 -0.43636,0.43636 -1.557739,4.660035 -2.174845,4.660035 -0.617107,0 -1.738486,-4.223675 -2.174846,-4.660035 -0.43636,-0.436361 -4.660035,-1.557739 -4.660035,-2.174846 0,-0.617107 4.223675,-1.738485 4.660035,-2.174846 0.43636,-0.43636 1.557739,-4.660035 2.174846,-4.660035 0.617106,0 1.738485,4.223675 2.174845,4.660035 0.436361,0.436361 4.660036,1.557739 4.660036,2.174846 z"
     transform="matrix(0.20568022,0,0,0.20568022,-12.53116,0.98962011)" />
  <path
     d="m 94.470715,54.938137 c 0,0.617107 -4.223675,1.738485 -4.660036,2.174846 -0.43636,0.43636 -1.557739,4.660035 -2.174845,4.660035 -0.617107,0 -1.738486,-4.223675 -2.174846,-4.660035 -0.43636,-0.436361 -4.660035,-1.557739 -4.660035,-2.174846 0,-0.617107 4.223675,-1.738485 4.660035,-2.174846 0.43636,-0.43636 1.557739,-4.660035 2.174846,-4.660035 0.617106,0 1.738485,4.223675 2.174845,4.660035 0.436361,0.436361 4.660036,1.557739 4.660036,2.174846 z"
     id="path1"
     class="ColorScheme-Text"
     style="display:inline;opacity:1;fill:url(#oomox);fill-rule:evenodd;stroke:none;stroke-width:1.10457;stroke-linecap:butt;stroke-linejoin:round;stroke-miterlimit:4;stroke-dasharray:none;stroke-dashoffset:0;stroke-opacity:0.235294;paint-order:markers fill stroke"
     transform="matrix(0.20568022,0,0,0.20568022,-12.574918,-5.9221178)" />
</svg>
