<?xml version="1.0" encoding="UTF-8" standalone="no"?>
<svg
   width="16"
   height="16"
   version="1"
   id="svg12"
   xmlns:xlink="http://www.w3.org/1999/xlink"
   xmlns="http://www.w3.org/2000/svg"
   xmlns:svg="http://www.w3.org/2000/svg"
   xmlns:rdf="http://www.w3.org/1999/02/22-rdf-syntax-ns#"
   xmlns:cc="http://creativecommons.org/ns#"
   xmlns:dc="http://purl.org/dc/elements/1.1/">
   <defs>
      <style id="current-color-scheme" type="text/css">
         .ColorScheme-Text { color: #0abdc6; } .ColorScheme-Highlight { color:#5294e2; }
      </style>
      <linearGradient id="arrongin" x1="0%" x2="0%" y1="0%" y2="100%">
         <stop offset="0%" style="stop-color:#dd9b44; stop-opacity:1"/>
         <stop offset="100%" style="stop-color:#ad6c16; stop-opacity:1"/>
      </linearGradient>
      <linearGradient id="aurora" x1="0%" x2="0%" y1="0%" y2="100%">
         <stop offset="0%" style="stop-color:#09D4DF; stop-opacity:1"/>
         <stop offset="100%" style="stop-color:#9269F4; stop-opacity:1"/>
      </linearGradient>
      <linearGradient id="cyberneon" x1="0%" x2="0%" y1="0%" y2="100%">
         <stop offset="0" style="stop-color:#0abdc6; stop-opacity:1"/>
         <stop offset="1" style="stop-color:#ea00d9; stop-opacity:1"/>
      </linearGradient>
      <linearGradient id="fitdance" x1="0%" x2="0%" y1="0%" y2="100%">
         <stop offset="0%" style="stop-color:#1AD6AB; stop-opacity:1"/>
         <stop offset="100%" style="stop-color:#329DB6; stop-opacity:1"/>
      </linearGradient>
      <linearGradient id="oomox" x1="0%" x2="0%" y1="0%" y2="100%">
         <stop offset="0%" style="stop-color:#0abdc6; stop-opacity:1"/>
         <stop offset="100%" style="stop-color:#b800ff; stop-opacity:1"/>
      </linearGradient>
      <linearGradient id="rainblue" x1="0%" x2="0%" y1="0%" y2="100%">
         <stop offset="0%" style="stop-color:#00F260; stop-opacity:1"/>
         <stop offset="100%" style="stop-color:#0575E6; stop-opacity:1"/>
      </linearGradient>
      <linearGradient id="sunrise" x1="0%" x2="0%" y1="0%" y2="100%">
         <stop offset="0%" style="stop-color: #FF8501; stop-opacity:1"/>
         <stop offset="100%" style="stop-color: #FFCB01; stop-opacity:1"/>
      </linearGradient>
      <linearGradient id="telinkrin" x1="0%" x2="0%" y1="0%" y2="100%">
         <stop offset="0%" style="stop-color: #b2ced6; stop-opacity:1"/>
         <stop offset="100%" style="stop-color: #6da5b7; stop-opacity:1"/>
      </linearGradient>
      <linearGradient id="60spsycho" x1="0%" x2="0%" y1="0%" y2="100%">
         <stop offset="0%" style="stop-color: #df5940; stop-opacity:1"/>
         <stop offset="25%" style="stop-color: #d8d15f; stop-opacity:1"/>
         <stop offset="50%" style="stop-color: #e9882a; stop-opacity:1"/>
         <stop offset="100%" style="stop-color: #279362; stop-opacity:1"/>
      </linearGradient>
      <linearGradient id="90ssummer" x1="0%" x2="0%" y1="0%" y2="100%">
         <stop offset="0%" style="stop-color: #f618c7; stop-opacity:1"/>
         <stop offset="20%" style="stop-color: #94ffab; stop-opacity:1"/>
         <stop offset="50%" style="stop-color: #fbfd54; stop-opacity:1"/>
         <stop offset="100%" style="stop-color: #0f83ae; stop-opacity:1"/>
      </linearGradient>
   </defs>
  <path
     d="M 7.2558139,10.046512 C 5.6930232,12.130233 5.7834433,13.784701 5.3953488,16 4.8739542,13.650838 5.0976744,12.130233 3.5348837,10.046512 l 1.8604651,0.372093 z"
     id="path2"
     style="fill:#000000;opacity:0.2;stroke-width:0.744186" />
  <path
     d="M 12.465116,10.046512 C 10.902326,12.130233 10.992746,13.784701 10.604651,16 10.083257,13.650838 10.306977,12.130233 8.744186,10.046512 l 1.860465,0.372093 z"
     id="path3"
     style="fill:#000000;opacity:0.2;stroke-width:0.744186" />
  <path
     d="M 3.5348837,5.5813953 C 5.6186046,7.144186 10.249817,7.053766 12.465116,7.4418605 10.115955,7.9632551 5.6186046,7.7395349 3.5348837,9.3023256 l 0.372093,-1.8604651 z"
     id="path4"
     style="fill:#000000;opacity:0.2;stroke-width:0.744186" />
  <path
     d="M 3.5348837,0.37209302 C 5.6186046,1.9348837 10.249817,1.8444636 12.465116,2.2325581 10.115955,2.7539527 5.6186046,2.5302326 3.5348837,4.0930233 l 0.372093,-1.8604652 z"
     id="path5"
     style="fill:#000000;opacity:0.2;stroke-width:0.744186" />
  <path
     d="M 5.0232558,2.9767446 C 7.1069767,4.5395349 8.7614452,4.4491148 10.976744,4.8372093 8.6275825,5.3586039 7.1069767,5.1348837 5.0232558,6.6976744 l 0.372093,-1.8604651 z"
     id="path6"
     style="fill:#000000;opacity:0.2;stroke-width:0.744186" />
  <path
     style="fill:url(#oomox);stroke-width:0.744186"
     d="M 7.2558139,9.6744186 C 5.6930232,11.75814 5.7834433,13.412608 5.3953488,15.627907 4.8739542,13.278745 5.0976744,11.75814 3.5348837,9.6744186 l 1.8604651,0.3720934 z"
     id="path7-5"
     class="ColorScheme-Text"/>
  <path
     style="fill:url(#oomox);stroke-width:0.744186"
     d="M 12.465116,9.6744186 C 10.902326,11.75814 10.992746,13.412608 10.604651,15.627907 10.083257,13.278745 10.306977,11.75814 8.744186,9.6744186 l 1.860465,0.3720934 z"
     id="path8-6"
     class="ColorScheme-Text"/>
  <path
     style="fill:url(#oomox);stroke-width:0.744186"
     d="M 3.5348837,5.2093023 C 5.6186046,6.772093 10.249817,6.6816729 12.465116,7.0697674 10.115955,7.591162 5.6186046,7.3674419 3.5348837,8.9302326 l 0.372093,-1.8604652 z"
     id="path9-2"
     class="ColorScheme-Text"/>
  <path
     style="fill:url(#oomox);stroke-width:0.744186"
     d="M 3.5348837,0 C 5.6186046,1.5627907 10.249817,1.4723706 12.465116,1.8604651 10.115955,2.3818597 5.6186046,2.1581395 3.5348837,3.7209302 l 0.372093,-1.8604651 z"
     id="path10-9"
     class="ColorScheme-Text"/>
  <path
     style="fill:url(#oomox);stroke-width:0.744186"
     d="M 5.0232558,2.6046512 C 7.1069767,4.1674415 8.7614452,4.0770214 10.976744,4.4651159 8.6275825,4.9865105 7.1069767,4.7627903 5.0232558,6.325581 l 0.372093,-1.8604651 z"
     id="path11-1"
     class="ColorScheme-Text"/>
  <metadata
     id="metadata12">
    <rdf:RDF>
      <cc:Work
         rdf:about="">
        <dc:creator>
          <cc:Agent>
            <dc:title>dreifacherspass</dc:title>
          </cc:Agent>
        </dc:creator>
        <cc:license
           rdf:resource="http://creativecommons.org/licenses/by-sa/4.0/" />
      </cc:Work>
      <cc:License
         rdf:about="http://creativecommons.org/licenses/by-sa/4.0/">
        <cc:permits
           rdf:resource="http://creativecommons.org/ns#Reproduction" />
        <cc:permits
           rdf:resource="http://creativecommons.org/ns#Distribution" />
        <cc:requires
           rdf:resource="http://creativecommons.org/ns#Notice" />
        <cc:requires
           rdf:resource="http://creativecommons.org/ns#Attribution" />
        <cc:permits
           rdf:resource="http://creativecommons.org/ns#DerivativeWorks" />
        <cc:requires
           rdf:resource="http://creativecommons.org/ns#ShareAlike" />
      </cc:License>
    </rdf:RDF>
  </metadata>
</svg>
