<?xml version="1.0" encoding="UTF-8" standalone="no"?>
<svg
   width="16"
   height="16"
   version="1.1"
   id="svg24"
   xmlns="http://www.w3.org/2000/svg"
   xmlns:svg="http://www.w3.org/2000/svg"
   xmlns:rdf="http://www.w3.org/1999/02/22-rdf-syntax-ns#"
   xmlns:cc="http://creativecommons.org/ns#"
   xmlns:dc="http://purl.org/dc/elements/1.1/">
   <defs>
      <style id="current-color-scheme" type="text/css">
         .ColorScheme-Text { color: #0abdc6; } .ColorScheme-Highlight { color:#5294e2; }
      </style>
      <linearGradient id="arrongin" x1="0%" x2="0%" y1="0%" y2="100%">
         <stop offset="0%" style="stop-color:#dd9b44; stop-opacity:1"/>
         <stop offset="100%" style="stop-color:#ad6c16; stop-opacity:1"/>
      </linearGradient>
      <linearGradient id="aurora" x1="0%" x2="0%" y1="0%" y2="100%">
         <stop offset="0%" style="stop-color:#09D4DF; stop-opacity:1"/>
         <stop offset="100%" style="stop-color:#9269F4; stop-opacity:1"/>
      </linearGradient>
      <linearGradient id="cyberneon" x1="0%" x2="0%" y1="0%" y2="100%">
         <stop offset="0" style="stop-color:#0abdc6; stop-opacity:1"/>
         <stop offset="1" style="stop-color:#ea00d9; stop-opacity:1"/>
      </linearGradient>
      <linearGradient id="fitdance" x1="0%" x2="0%" y1="0%" y2="100%">
         <stop offset="0%" style="stop-color:#1AD6AB; stop-opacity:1"/>
         <stop offset="100%" style="stop-color:#329DB6; stop-opacity:1"/>
      </linearGradient>
      <linearGradient id="oomox" x1="0%" x2="0%" y1="0%" y2="100%">
         <stop offset="0%" style="stop-color:#0abdc6; stop-opacity:1"/>
         <stop offset="100%" style="stop-color:#b800ff; stop-opacity:1"/>
      </linearGradient>
      <linearGradient id="rainblue" x1="0%" x2="0%" y1="0%" y2="100%">
         <stop offset="0%" style="stop-color:#00F260; stop-opacity:1"/>
         <stop offset="100%" style="stop-color:#0575E6; stop-opacity:1"/>
      </linearGradient>
      <linearGradient id="sunrise" x1="0%" x2="0%" y1="0%" y2="100%">
         <stop offset="0%" style="stop-color: #FF8501; stop-opacity:1"/>
         <stop offset="100%" style="stop-color: #FFCB01; stop-opacity:1"/>
      </linearGradient>
      <linearGradient id="telinkrin" x1="0%" x2="0%" y1="0%" y2="100%">
         <stop offset="0%" style="stop-color: #b2ced6; stop-opacity:1"/>
         <stop offset="100%" style="stop-color: #6da5b7; stop-opacity:1"/>
      </linearGradient>
      <linearGradient id="60spsycho" x1="0%" x2="0%" y1="0%" y2="100%">
         <stop offset="0%" style="stop-color: #df5940; stop-opacity:1"/>
         <stop offset="25%" style="stop-color: #d8d15f; stop-opacity:1"/>
         <stop offset="50%" style="stop-color: #e9882a; stop-opacity:1"/>
         <stop offset="100%" style="stop-color: #279362; stop-opacity:1"/>
      </linearGradient>
      <linearGradient id="90ssummer" x1="0%" x2="0%" y1="0%" y2="100%">
         <stop offset="0%" style="stop-color: #f618c7; stop-opacity:1"/>
         <stop offset="20%" style="stop-color: #94ffab; stop-opacity:1"/>
         <stop offset="50%" style="stop-color: #fbfd54; stop-opacity:1"/>
         <stop offset="100%" style="stop-color: #0f83ae; stop-opacity:1"/>
      </linearGradient>
   </defs>
  <path
     fill="url(#oomox)"
     class="ColorScheme-Text"
     d="M 6.92941,0 C 3.10668,0 0,3.10668 0,6.92941 c 0,3.82272 3.10668,6.9294 6.92941,6.9294 a 6.8947596,6.8947596 0 0 0 4.47062,-1.64227 L 15.18233,16 16,15.18233 12.21654,11.40003 A 6.8947596,6.8947596 0 0 0 13.85881,6.92941 C 13.85881,3.10668 10.75213,0 6.92941,0 Z m 0,1.1549 a 5.7745056,5.7745056 0 0 1 5.7745,5.77451 5.7745056,5.7745056 0 0 1 -5.7745,5.7745 A 5.7745056,5.7745056 0 0 1 1.1549,6.92941 5.7745056,5.7745056 0 0 1 6.92941,1.1549 Z"
     font-family="sans-serif"
     font-weight="400"
     overflow="visible"
     id="path24" />
  <metadata
     id="metadata24">
    <rdf:RDF>
      <cc:Work
         rdf:about="">
        <dc:creator>
          <cc:Agent>
            <dc:title>dreifacherspass</dc:title>
          </cc:Agent>
        </dc:creator>
        <cc:license
           rdf:resource="http://creativecommons.org/licenses/by-sa/4.0/" />
      </cc:Work>
      <cc:License
         rdf:about="http://creativecommons.org/licenses/by-sa/4.0/">
        <cc:permits
           rdf:resource="http://creativecommons.org/ns#Reproduction" />
        <cc:permits
           rdf:resource="http://creativecommons.org/ns#Distribution" />
        <cc:requires
           rdf:resource="http://creativecommons.org/ns#Notice" />
        <cc:requires
           rdf:resource="http://creativecommons.org/ns#Attribution" />
        <cc:permits
           rdf:resource="http://creativecommons.org/ns#DerivativeWorks" />
        <cc:requires
           rdf:resource="http://creativecommons.org/ns#ShareAlike" />
      </cc:License>
    </rdf:RDF>
  </metadata>
  <path
     class="ColorScheme-Text"
     d="m 4.8303562,3.1678572 c -0.2795302,0 -0.5045688,0.2250407 -0.5045688,0.5045768 0,0.2795363 0.2250386,0.504577 0.5045688,0.504577 0.2795322,0 0.5045728,-0.2250407 0.5045728,-0.504577 0,-0.2795361 -0.2250406,-0.5045768 -0.5045728,-0.5045768 m 3.5319956,0 L 7.3532103,4.177011 8.8669229,5.6907215 7.3532103,7.2044319 8.3623518,8.2135651 10.885204,5.6907215 Z M 3.5689301,6.195278 c -0.4192982,0 -0.7568552,0.3375713 -0.7568552,0.7568756 0,0.4192843 0.337557,0.7568347 0.7568552,0.7568347 0.4192983,0 0.7568573,-0.3375504 0.7568573,-0.7568347 0,-0.4193043 -0.337559,-0.7568756 -0.7568573,-0.7568756 m 2.2705677,3.0274403 c -0.5590644,0 -1.0091416,0.450062 -1.0091416,1.0091337 0,0.559072 0.4500772,1.009134 1.0091416,1.009134 0.5590644,0 1.0091417,-0.450062 1.0091417,-1.009134 0,-0.5590717 -0.4500773,-1.0091337 -1.0091417,-1.0091337"
     id="path24-5"
     style="fill:url(#oomox);stroke-width:0.538209" />
</svg>
