<?xml version="1.0" encoding="UTF-8" standalone="no"?>
<svg
   viewBox="0 0 16 16"
   version="1.1"
   id="svg4"
   width="16"
   height="16"
   xmlns:xlink="http://www.w3.org/1999/xlink"
   xmlns="http://www.w3.org/2000/svg"
   xmlns:svg="http://www.w3.org/2000/svg"
   xmlns:rdf="http://www.w3.org/1999/02/22-rdf-syntax-ns#"
   xmlns:cc="http://creativecommons.org/ns#"
   xmlns:dc="http://purl.org/dc/elements/1.1/">
   <defs>
      <style id="current-color-scheme" type="text/css">
         .ColorScheme-Text { color: #0abdc6; } .ColorScheme-Highlight { color:#5294e2; }
      </style>
      <linearGradient id="arrongin" x1="0%" x2="0%" y1="0%" y2="100%">
         <stop offset="0%" style="stop-color:#dd9b44; stop-opacity:1"/>
         <stop offset="100%" style="stop-color:#ad6c16; stop-opacity:1"/>
      </linearGradient>
      <linearGradient id="aurora" x1="0%" x2="0%" y1="0%" y2="100%">
         <stop offset="0%" style="stop-color:#09D4DF; stop-opacity:1"/>
         <stop offset="100%" style="stop-color:#9269F4; stop-opacity:1"/>
      </linearGradient>
      <linearGradient id="cyberneon" x1="0%" x2="0%" y1="0%" y2="100%">
         <stop offset="0" style="stop-color:#0abdc6; stop-opacity:1"/>
         <stop offset="1" style="stop-color:#ea00d9; stop-opacity:1"/>
      </linearGradient>
      <linearGradient id="fitdance" x1="0%" x2="0%" y1="0%" y2="100%">
         <stop offset="0%" style="stop-color:#1AD6AB; stop-opacity:1"/>
         <stop offset="100%" style="stop-color:#329DB6; stop-opacity:1"/>
      </linearGradient>
      <linearGradient id="oomox" x1="0%" x2="0%" y1="0%" y2="100%">
         <stop offset="0%" style="stop-color:#0abdc6; stop-opacity:1"/>
         <stop offset="100%" style="stop-color:#b800ff; stop-opacity:1"/>
      </linearGradient>
      <linearGradient id="rainblue" x1="0%" x2="0%" y1="0%" y2="100%">
         <stop offset="0%" style="stop-color:#00F260; stop-opacity:1"/>
         <stop offset="100%" style="stop-color:#0575E6; stop-opacity:1"/>
      </linearGradient>
      <linearGradient id="sunrise" x1="0%" x2="0%" y1="0%" y2="100%">
         <stop offset="0%" style="stop-color: #FF8501; stop-opacity:1"/>
         <stop offset="100%" style="stop-color: #FFCB01; stop-opacity:1"/>
      </linearGradient>
      <linearGradient id="telinkrin" x1="0%" x2="0%" y1="0%" y2="100%">
         <stop offset="0%" style="stop-color: #b2ced6; stop-opacity:1"/>
         <stop offset="100%" style="stop-color: #6da5b7; stop-opacity:1"/>
      </linearGradient>
      <linearGradient id="60spsycho" x1="0%" x2="0%" y1="0%" y2="100%">
         <stop offset="0%" style="stop-color: #df5940; stop-opacity:1"/>
         <stop offset="25%" style="stop-color: #d8d15f; stop-opacity:1"/>
         <stop offset="50%" style="stop-color: #e9882a; stop-opacity:1"/>
         <stop offset="100%" style="stop-color: #279362; stop-opacity:1"/>
      </linearGradient>
      <linearGradient id="90ssummer" x1="0%" x2="0%" y1="0%" y2="100%">
         <stop offset="0%" style="stop-color: #f618c7; stop-opacity:1"/>
         <stop offset="20%" style="stop-color: #94ffab; stop-opacity:1"/>
         <stop offset="50%" style="stop-color: #fbfd54; stop-opacity:1"/>
         <stop offset="100%" style="stop-color: #0f83ae; stop-opacity:1"/>
      </linearGradient>
   </defs>
  <path
     id="path1"
     style="fill:url(#oomox);fill-opacity:1;stroke:none;stroke-width:0.941176"
     class="ColorScheme-Text"
     d="M 4.2352941,0 C 3.4531772,0 2.8235294,0.62964781 2.8235294,1.4117647 c 0,0.7821169 0.6296478,1.4117647 1.4117647,1.4117647 0.7821169,0 1.4117647,-0.6296478 1.4117647,-1.4117647 C 5.6470588,0.62964781 5.017411,0 4.2352941,0 Z M 11.294118,0 9.4117647,1.8823529 12.235294,4.7058824 9.4117647,7.5294118 11.294118,9.4117647 14.117647,6.5882353 16,4.7058824 Z M 0.94117647,4.7058824 C 0.41976527,4.7058824 0,5.1256476 0,5.6470588 0,6.16847 0.41976527,6.5882353 0.94117647,6.5882353 c 0.52141123,0 0.94117643,-0.4197653 0.94117643,-0.9411765 0,-0.5214112 -0.4197652,-0.9411764 -0.94117643,-0.9411764 z M 4.7058824,6.5882353 C 2.106898,6.5882353 0,8.6951294 0,11.294118 0,13.893105 2.106898,16 4.7058824,16 c 2.598984,0 4.7058823,-2.106895 4.7058823,-4.705882 0,-2.5989886 -2.1068983,-4.7058827 -4.7058823,-4.7058827 z m 0.03125,0.9558823 C 5.3552049,7.51784 5.9298108,7.7355962 6.3437499,7.933824 6.3287079,7.945438 6.3135709,7.956111 6.2996319,7.9614 c -0.032134,0.011765 -0.068821,0.018776 -0.073529,0.047793 -0.00389,0.024311 0.024716,0.026889 0.023897,0.049628 -0.011776,0.029017 -0.017599,0.03824 -0.023897,0.073534 0.039989,0.065101 0.1215505,-0.013704 0.1709558,-0.023896 0.021961,-0.00781 0.037867,-0.00687 0.049632,-0.025732 0.013325,-0.021176 0.013748,-0.043567 0.023897,-0.073534 0.00426,-0.00282 0.00555,-0.00471 0.0092,-0.00734 0.037845,0.019266 0.079905,0.039012 0.1139707,0.056988 0.00298,0.045487 -0.037899,0.042927 -0.049632,0.073534 0.00706,0.019605 0.046526,0.026099 0.049632,0.049628 -0.00384,0.025101 -0.05906,0.021911 -0.049632,0.047793 0.04236,0.032941 0.083165,0.00781 0.1231618,0 0.087836,-0.010984 0.1664729,-0.00311 0.2205882,-0.047793 0.3186845,-0.1457562 0,0.041685 0,0.073534 -0.018031,0.012546 -0.054706,0.073534 -0.073529,0.073534 -0.022737,0 -0.057059,-0.030438 -0.073529,-0.025732 -0.023553,0.00781 -0.023013,0.040217 -0.049632,0.049628 -0.051757,0.018824 -0.1529206,-0.028019 -0.1709559,0.049628 0.02196,0.044706 0.1078471,0.022701 0.1470588,0.047793 0.024329,0.015689 0.067255,0.072593 0.073529,0.099264 0.00628,0.021958 0.0094,0.1235294 0,0.1470588 -0.024329,0.062748 -0.1006467,0.048574 -0.1727941,0.047793 h -0.047794 c -0.121556,-0.00781 -0.2392166,-0.061327 -0.2941176,0.025732 0.00389,0.066664 0.014925,0.1129167 0,0.1709563 -0.010957,0.042353 -0.075881,0.086616 -0.07353,0.1231614 8.627e-4,0.018823 0.043092,0.046852 0.047794,0.073534 0.00302,0.014118 -0.00632,0.034466 0,0.047793 0.020404,0.038428 0.06319,-0.00781 0.099265,0 0.03451,0.00781 0.073529,0.060678 0.073529,0.099264 0,0.027454 -0.00844,0.070842 -0.025736,0.097427 -0.03451,0.051765 -0.097649,0.045299 -0.1470589,0.073534 -0.040764,0.023529 -0.049214,0.082692 -0.073529,0.1231614 -0.025882,0.043925 -0.058004,0.058504 -0.047794,0.1213242 -0.035286,0.069807 -0.074127,0.1133327 -0.1470588,0.1470589 -0.02118,0.00941 -0.053924,0.011614 -0.073529,0.025732 -0.015702,0.010984 -0.027655,0.048433 -0.049632,0.073534 -0.027435,0.030588 -0.05863,0.050005 -0.073529,0.073534 -0.011001,0.01804 -0.012164,0.04843 -0.023897,0.07353 -0.017255,0.03294 -0.051574,0.04043 -0.073529,0.07354 -0.010181,0.01569 -0.014778,0.05314 -0.025736,0.07353 -0.025106,0.04549 -0.052501,0.08133 -0.047794,0.121324 0.00388,0.03765 0.045443,0.03901 0.047794,0.07353 0.00216,0.01882 -0.024674,0.02845 -0.023897,0.04963 8.628e-4,0.02981 0.021568,0.05 0.023897,0.07353 0.00549,0.05804 -0.036838,0.08347 -0.047794,0.123162 -0.00549,0.01882 0.00471,0.03211 0,0.04779 -0.0094,0.02902 -0.048847,0.06459 -0.049632,0.09926 -8.628e-4,0.02431 0.047302,0.03902 0.049632,0.07353 0.00172,0.02275 -0.030438,0.05157 -0.025736,0.07353 0.00863,0.04235 0.090227,0.08839 0.1231618,0.121324 0.044704,0.04471 0.1035602,0.0761 0.1231618,0.123162 0.016478,0.04 0.017232,0.117176 0.047794,0.147058 0.022733,0.02196 0.07025,0.0261 0.099265,0.04963 0.027435,0.02118 0.044512,0.02426 0.07353,0.04779 0.047839,0.03765 0.1187761,0.128651 0.1948528,0.123161 0.039989,-0.0078 0.078459,-0.04179 0.1231618,-0.04963 0.046275,-0.0078 0.1000047,-0.02782 0.1470589,-0.0239 0.036063,0.0078 0.085517,0.02625 0.1231617,0.0239 0.039208,-0.0078 0.076626,-0.0043 0.1213235,-0.0239 0.077647,-0.03372 0.2069245,-0.08977 0.319853,-0.07353 0.086266,0.01255 0.08667,0.108628 0.1470588,0.147059 0.069012,0.0078 0.1160595,-0.01334 0.1709559,0 0.041584,0.01019 0.093506,0.0648 0.097426,0.09743 0.00392,0.03372 -0.043096,0.07793 -0.047794,0.09926 -0.010957,0.04549 0.00784,0.0923 0,0.121324 -0.00628,0.02275 -0.026512,0.05078 -0.025736,0.07353 0,0.0204 0.028441,0.07244 0.049632,0.09926 0.025882,0.03294 0.066054,0.06198 0.097427,0.09743 0.057247,0.06588 0.083164,0.133529 0.1231615,0.220588 0.010184,0.02196 -0.00941,0.04528 0,0.07353 -0.017252,0.131687 -0.060791,0.221843 -0.1470586,0.367647 -0.040769,0.04706 -0.098211,0.08831 -0.097426,0.147059 -0.00298,0.141177 0.079804,0.231177 0.073529,0.367647 -0.014102,0.183452 0.014149,0.196158 0,0.294118 0.061961,0.03137 0.018031,0.131514 0,0.196691 -0.3129411,1.08316 -3.1088889,1.525213 -4.069853,0.90625 0.014106,-0.01882 0.094148,-0.01841 0.1231618,-0.0239 0.041584,-0.0078 0.099635,-0.01476 0.1231618,-0.02573 0.025882,-0.01647 0.052501,-0.07301 0.047794,-0.121324 -0.00216,-0.02275 -0.029806,-0.02924 -0.047794,-0.04963 -0.014883,-0.01725 0.010181,-0.03316 0,-0.04963 -0.018807,-0.02745 -0.065687,-0.03351 -0.073529,-0.07353 0.056467,-0.01098 0.1390287,0.04848 0.2205882,0.02573 0.038435,-0.01098 0.1032835,-0.087 0.1213235,-0.123162 0.00549,-0.01098 -0.00626,-0.03551 0,-0.04963 0.00708,-0.01412 0.023363,-0.03995 0.025735,-0.04779 0.00548,-0.02118 -0.00471,-0.01161 0,-0.02573 0.014105,-0.04 0.049997,-0.06896 0.073529,-0.09743 0.018031,-0.02196 0.057037,-0.05078 0.073529,-0.07353 0.018808,-0.02431 0.011387,-0.02767 0.023897,-0.04963 0.011776,-0.07137 -0.041152,-0.132186 -0.023897,-0.194853 0.018808,-0.07059 0.1266271,-0.114902 0.1948529,-0.147059 0.02351,-0.01098 0.053923,-0.01867 0.073529,-0.02573 0.047054,-0.01647 0.1031409,-0.0321 0.1470588,-0.04779 0.073721,-0.02666 0.087081,-0.07969 0.1231618,-0.147059 0.017255,-0.03137 0.046484,-0.07628 0.049632,-0.09926 0.00302,-0.02039 -0.00389,-0.02348 0,-0.04779 0.00388,-0.02275 -0.00626,-0.04685 0,-0.07353 0.00862,-0.03382 0.023893,-0.109564 0.023893,-0.147133 0,-0.03137 -0.023121,-0.0453 -0.023898,-0.07353 -0.00549,-0.10196 0.035892,-0.09137 0.07353,-0.147059 0.018808,-0.02745 0.034508,-0.07958 0.047794,-0.09926 0.063524,-0.09412 0.1806366,-0.125637 0.1727942,-0.268383 -0.00302,-0.04706 -0.039037,-0.157892 -0.073529,-0.172793 -0.019627,-0.0087 -0.044511,-0.0137 -0.073529,-0.0239 C 4.7365015,12.215483 4.6552821,12.11078 4.558823,12.102937 H 4.509191 c -0.037658,0 -0.078976,-0.01841 -0.1213235,-0.0239 -0.026659,-0.0078 -0.083579,0.0078 -0.099265,0 -0.024329,-0.01177 -0.02821,-0.06019 -0.047794,-0.07353 -0.015702,-0.01098 -0.049221,-0.01711 -0.073529,-0.02573 -0.038436,-0.01412 -0.054562,-0.04466 -0.099265,-0.04779 -0.014105,0 -0.032122,0.0078 -0.047794,0 -0.024329,-0.0078 -0.050788,-0.01161 -0.073529,-0.02573 -0.028212,-0.01725 -0.061767,-0.02348 -0.073529,-0.04779 0.025882,-0.08463 -0.056275,-0.09765 -0.073529,-0.147058 -0.00785,-0.02275 0.00785,-0.07887 0,-0.09926 -0.010181,-0.02902 -0.041371,-0.04922 -0.073529,-0.07353 -0.056467,-0.04392 -0.092015,-0.06342 -0.1727942,-0.07353 -0.036063,-0.0078 -0.07819,0.0078 -0.1213235,0 -0.045484,-0.0078 -0.1125534,-0.03431 -0.1470588,-0.07353 -0.032957,-0.03841 -0.044515,-0.0793 -0.07353,-0.09741 -0.027435,-0.01725 -0.054709,-0.0316 -0.073529,-0.04963 -0.00863,-0.0078 -0.017884,-0.0058 -0.025736,-0.0239 -0.014105,-0.02902 -0.041152,-0.03824 -0.023897,-0.07353 -0.031361,-0.01569 -0.015912,0.02938 -0.049632,0.0239 -0.030584,-0.04313 -0.052312,-0.08608 -0.1213235,-0.07353 -0.031361,0.0078 -0.062405,0.07273 -0.099265,0.07353 -0.030584,0 -0.05743,-0.06726 -0.097427,-0.07353 -0.030584,-0.0078 -0.07625,0.02966 -0.097426,0.02573 -0.033734,-0.0078 -0.042963,-0.02924 -0.073529,-0.04963 -0.022733,-0.0149 -0.060981,-0.05042 -0.073529,-0.04963 -0.039212,0 -0.069051,0.07818 -0.1231618,0.04963 -0.026659,-0.03372 0.055284,-0.04215 0.023897,-0.07353 -0.02351,-0.02275 -0.02896,0.01291 -0.047794,0.0239 -0.021957,0.01412 -0.049221,0.01711 -0.073529,0.02573 -0.054116,0.0204 -0.1047111,0.02505 -0.1470588,0.04779 -0.039212,0.0204 -0.050787,0.03328 -0.073529,0.07353 -0.018031,0.03294 -0.046081,0.0977 -0.073529,0.09926 -0.032957,0 -0.043726,-0.0363 -0.073529,-0.04963 -0.090187,-0.03922 -0.146086,0.02232 -0.2205882,0.0239 -0.069015,0 -0.1759302,-0.105858 -0.1727942,-0.170956 0.00216,-0.04 0.021033,-0.09765 0.025736,-0.147059 0.00389,-0.03922 0.047061,-0.0874 0.047794,-0.123161 8.627e-4,-0.04863 -0.089954,-0.06796 -0.1213235,-0.07353 -0.073721,-0.01334 -0.1624088,0.03294 -0.2463236,0 -0.015702,-0.02666 0.016331,-0.04685 0.025735,-0.07353 0.00548,-0.01412 -0.00548,-0.03132 0,-0.04779 0.0094,-0.0251 0.06177,-0.04685 0.073529,-0.07353 0.00863,-0.02039 -0.00863,-0.04763 0,-0.07353 0.010181,-0.02824 0.045421,-0.05313 0.047794,-0.07353 0.00302,-0.02666 -0.026657,-0.05626 -0.047794,-0.07353 -0.065095,0.0078 -0.109413,0.0051 -0.1470588,0.0239 -0.084696,0.03843 -0.061574,0.144289 -0.1470588,0.170957 -0.16588434,-0.363588 0.1959374,-0.5973697 0.3676471,-0.8327212 0.061174,0.00866 0.091377,-0.00781 0.1470588,0 0.037659,0.00781 0.091525,0.046494 0.1213235,0.049628 0.025106,0 0.026102,-0.028875 0.049632,-0.025732 0.02351,0.00781 0.069608,0.04528 0.073529,0.073534 0.00389,0.035294 -0.034121,0.084264 -0.023897,0.1231614 0.036883,0.037647 0.1184104,0.051567 0.1709558,0.073534 0.03451,-0.029016 0.00548,-0.082381 0,-0.1231614 -8.628e-4,-0.018042 0.00216,-0.057064 0,-0.073534 -0.00389,-0.028235 -0.023897,-0.049214 -0.023897,-0.073534 0,-0.1121571 0.095668,-0.1510098 0.1709559,-0.1948536 0.032137,-0.018823 0.069193,-0.059398 0.097426,-0.073534 0.039989,-0.019605 0.066326,-0.00687 0.099265,-0.025732 0.059598,-0.033722 0.1007855,-0.083125 0.1470588,-0.1213242 0.02118,-0.050984 -0.00216,-0.1225977 0,-0.1727934 0.02118,-0.013336 0.050809,0 0.073529,0 0.036063,-0.00781 0.053134,-0.053139 0.073529,-0.073534 0.011776,-0.011765 0.033662,-0.012132 0.047794,-0.023896 0.036063,-0.028235 0.042147,-0.060979 0.073529,-0.073534 0.011,-0.00781 0.032357,-0.01841 0.049632,-0.023897 0.023553,-0.00781 0.059785,-0.011614 0.097427,-0.025732 0.024329,-0.00866 0.089852,-0.013704 0.099265,-0.023897 0.011776,-0.011765 -0.00302,-0.055482 0,-0.073534 0.018807,-0.088546 0.1413797,-0.09328 0.2205882,-0.1231614 0.054896,-0.020395 0.1097831,-0.084508 0.1709559,-0.073534 -0.011776,0.042353 -0.059829,0.048207 -0.049632,0.099264 0.01333,0.071369 0.098065,-0.015539 0.1231618,-0.025732 0.047839,-0.020395 0.133948,-0.050005 0.1966912,-0.073534 0.054896,-0.019605 0.1491824,-0.034212 0.097426,-0.097427 -0.043137,-0.00781 -0.059784,0.033948 -0.097426,0.049628 -0.025882,0.00781 -0.027689,-0.023379 -0.049632,-0.025732 -0.02118,0 -0.028435,0.029656 -0.049632,0.025732 -0.02118,-0.00781 -0.044659,-0.047633 -0.047794,-0.073534 -0.00863,-0.065882 0.046871,-0.074616 0.073529,-0.1231614 -0.018031,-0.059605 -0.096869,-0.026099 -0.1470588,-0.049628 0.00548,-0.035294 0.031966,-0.065685 0.073529,-0.073534 0.033734,-0.00781 0.1266679,0.00772 0.1470588,0.025732 0.011776,0.010193 -0.017992,0.031322 0,0.047793 0.020404,0.018042 0.046866,0.00781 0.073529,0 0.0094,-0.044706 -0.057475,-0.018776 -0.049632,-0.047793 0.053326,-0.034513 0.1554943,-0.017111 0.2205883,-0.025732 0.037658,-0.00781 0.089437,-0.02976 0.1231618,-0.047793 0.031361,-0.018042 0.040589,-0.055539 0.073529,-0.025732 0.0094,0.03216 -0.00775,0.056264 -0.025736,0.073534 -0.060388,0.053336 -0.1239017,0.110911 -0.1709558,0.1727934 0.029031,0.028235 0.074537,0.018409 0.1231618,0.023896 0.018808,0.00781 0.053919,-0.00395 0.073529,0 0.023553,0.00781 0.054704,-0.00781 0.073529,0 0.032957,0.00781 0.040594,0.073534 0.073529,0.073534 0.05333,0 0.030606,-0.061977 0,-0.097427 0.0094,-0.036866 0.03727,-0.073224 0.023897,-0.099264 -0.024329,-0.048631 -0.1184555,0.015736 -0.1231618,-0.047793 -0.00302,-0.039219 0.03551,-0.043718 0.049632,-0.073534 -0.00626,-0.075294 0.057475,-0.078824 0.049632,-0.1470588 -0.00389,-0.028235 -0.030018,-0.022965 -0.049632,-0.049628 -0.010181,-0.014118 -0.012164,-0.062541 -0.023897,-0.073534 -0.040764,-0.034513 -0.1184555,-0.00753 -0.1231618,-0.073534 -0.00216,-0.039219 0.00548,-0.08112 0,-0.1231614 C 4.2271525,7.6063219 4.4858271,7.5547445 4.7371323,7.5440602 Z M 2.2555146,8.5238974 c 0.018808,0 0.02582,0.048066 0.047794,0.049628 0.02118,0 0.037063,-0.027031 0.049632,-0.023896 0.032957,0.00866 0.055284,0.07296 0.023897,0.097427 -0.025882,0.00781 -0.028999,-0.027031 -0.047794,-0.023896 -0.05333,0.00941 -0.083165,0.1244612 -0.1231617,0.1213243 -0.037658,-0.00781 -0.062345,-0.093873 -0.023897,-0.1213243 8.627e-4,-0.023529 -0.0016,-0.025318 0,-0.049628 0.011776,-0.014118 0.042143,-0.051972 0.07353,-0.049628 z m 5.1213235,0.1470588 c 0.2143525,0.073892 0.3099497,0.328033 0.441177,0.4669111 0.2809317,-0.2410155 0.2195341,0.3742334 0.2702202,0.5386033 -0.041543,0.00781 -0.089816,-0.036301 -0.1470588,-0.049628 -0.023511,-0.00781 -0.054711,0.00781 -0.073534,0 -0.043134,-0.014118 -0.036659,-0.071313 -0.073534,-0.097427 -0.021186,-0.014899 -0.089431,-0.045713 -0.1231614,-0.049628 -0.021186,0 -0.025854,0.00781 -0.047793,0 -0.026654,-0.00781 -0.077299,0.010984 -0.099265,0 -0.021184,-0.013336 -0.068031,-0.055492 -0.073529,-0.073534 -0.00863,-0.029017 0.071961,-0.048979 0.073529,-0.073534 0.00172,-0.018824 -0.019976,-0.044508 -0.023897,-0.073534 -0.00298,-0.017252 0.00384,-0.036028 0,-0.047793 -0.00549,-0.020395 -0.041381,-0.024951 -0.073529,-0.025732 h -0.073521 c -0.03451,0 -0.1039263,-0.00311 -0.1470588,0 -0.025882,0 -0.049216,-0.00235 -0.07353,0 -0.068228,0.00781 -0.117625,-0.00781 -0.1709558,0 -0.038439,0 -0.1109836,0.033158 -0.1470588,0.049628 -0.018031,0.00866 -0.026095,0.012132 -0.049632,0.023896 -0.010957,0.00781 -0.035483,0.019464 -0.049632,0.025732 -0.021953,0.010193 -0.052353,0.041525 -0.07353,0.047793 -0.030581,0.00781 -0.065645,-0.00781 -0.1213234,0 -0.039984,0 -0.09848,-0.025685 -0.099265,-0.073534 -8.627e-4,-0.072941 0.1276803,-0.034466 0.1966912,-0.047793 0.025882,-0.00781 0.042141,-0.030805 0.073529,-0.049628 0.014925,-0.00866 0.00979,-0.014485 0.023897,-0.023896 0.023506,-0.016471 0.069608,-0.054692 0.073529,-0.073534 0.00298,-0.017252 -0.00235,-0.036301 0,-0.049628 0.00298,-0.016471 0.028456,-0.027671 0.049632,-0.049628 0.032957,-0.032941 0.056642,-0.076094 0.097427,-0.097427 0.027435,-0.014118 0.060981,-0.026889 0.073529,-0.049628 0.00298,-0.025101 -8.627e-4,-0.024263 0,-0.047793 0.017255,-0.015689 0.03553,-0.022598 0.049632,-0.025732 0.042361,-0.00941 0.073758,0.00235 0.1231618,0 0.021177,0 0.050784,0.010193 0.073529,0 0.018807,-0.012546 0.02897,-0.038381 0.047794,-0.047793 0.0204,-0.010984 0.048408,-0.024169 0.073529,-0.025732 z m 0.441177,0.4669111 h -0.097427 c -0.034513,0 -0.077035,-0.018042 -0.097427,0 0.029035,0.047059 0.081967,0.061769 0.1470588,0.073534 0.023511,-0.017252 0.036838,-0.043482 0.047793,-0.073534 z M 2.5533088,8.6930146 c 0.00898,-9.412e-4 0.016299,-2.297e-4 0.02022,0.00367 -0.012552,0.051765 -0.130174,0.04272 -0.1709558,0.023896 0.00216,-0.019605 0.022671,-0.020762 0.047794,-0.023896 h 0.073529 c 0.00981,0 0.020438,-0.00273 0.029413,-0.00367 z m 4.8363971,0.093751 c -0.00419,3.962e-4 -0.00896,0.00348 -0.012868,0.00734 -0.025882,0.00866 -0.038439,0.065675 0,0.073534 0.018031,-0.010984 0.03048,-0.039793 0.025736,-0.073534 -0.00509,-0.00546 -0.00869,-0.00772 -0.012868,-0.00734 z m -5.1102941,0.00734 c -0.034261,0.024922 -0.068784,0.056527 -0.1231618,0.073534 -0.029808,0.00941 -0.068038,0.00904 -0.073529,-0.023897 -0.0063,-0.040781 0.046854,-0.021816 0.073529,-0.025732 0.03451,-0.00781 0.083165,-0.022315 0.1231618,-0.023896 z m 5.0606617,0.1194851 c -0.00412,-1.327e-4 -0.00771,0.00113 -0.01103,0.00367 8.626e-4,0.043925 0.00863,0.083209 0,0.1213243 0.025106,0.04863 0.084882,0.00904 0.097426,-0.023896 0.014925,-0.081572 -0.011985,-0.1076226 -0.049632,-0.097427 -0.00941,0.00584 -0.024395,-0.00329 -0.036765,-0.00367 z M 0.95588235,10.876839 c 0.0196273,0.01019 0.048432,0.01946 0.0735295,0.02573 0.020404,0.0078 0.030035,-0.0063 0.049632,0 0.041584,0.01412 0.088389,0.03289 0.1213234,0.04779 0.050195,0.02196 0.1039218,0.09806 0.1470589,0.123162 0.00216,0.0251 -0.00785,0.05471 0,0.07353 0.020404,0.02745 0.040585,0.05471 0.073529,0.07353 0.039989,0.02196 0.061623,0.05612 0.099265,0.07353 0.01333,0.0078 0.027373,-0.0078 0.047794,0 0.05176,0.01569 0.078458,0.08669 0.1231618,0.07353 0.029032,-0.0087 0.019196,-0.04531 0.023898,-0.07354 0.019627,-0.02118 0.042919,-0.04963 0.073529,-0.04963 0.048619,0 0.055489,0.07563 0.073529,0.123162 0.010181,0.02666 0.042601,0.0453 0.049632,0.07353 0.011776,0.04863 0.010181,0.191569 0,0.220588 -0.012552,0.03608 -0.067624,0.03408 -0.097426,0.07353 -0.014105,0.01882 -0.014778,0.06019 -0.025735,0.07353 -0.018808,0.02275 -0.033658,0.02767 -0.047794,0.04963 -0.00785,0.01176 -0.018704,0.03132 -0.025736,0.04779 -0.023553,0.05019 -0.067413,0.08666 -0.047794,0.147058 0.00785,0.02431 0.047794,0.0445 0.047794,0.07353 0,0.03451 -0.068039,0.06146 -0.073529,0.09926 -0.00389,0.02745 0.017151,0.0608 0.025736,0.09743 0.00626,0.02745 0.05706,0.05549 0.073529,0.07353 0.027435,0.03059 0.048432,0.08434 0.073529,0.123162 0.049405,0.07608 0.072708,0.169975 0.1213235,0.244486 0.025882,0.03843 0.082009,0.05696 0.099265,0.09743 0.00863,0.0204 -0.00785,0.05471 0,0.07353 0.028212,0.06353 0.1570643,0.1415 0.2205883,0.172794 0.029808,0.0149 0.069982,0.0082 0.097426,0.0239 0.041584,0.02353 0.1258871,0.08662 0.1470588,0.123162 0.018808,0.03294 0.014493,0.118485 0.023897,0.170956 0.011777,0.06902 -0.00302,0.122103 0,0.196691 0.00216,0.04078 0.025736,0.05696 0.025736,0.09743 0,0.01412 8.626e-4,0.05862 0,0.07353 -8.628e-4,0.04863 0.00388,0.09765 0,0.147059 -0.00216,0.02666 -0.00172,0.05078 0,0.07353 0.00216,0.02431 0.022344,0.02767 0.023897,0.04963 0.00172,0.02275 -0.02627,0.05548 -0.023897,0.07353 0.00548,0.04941 0.038381,0.07576 0.047794,0.121324 0.00785,0.03608 0.030438,0.129657 0.025736,0.172794 -0.8465208,0.16549 -1.67883264,-2.681979 -1.6672797,-3.555182 z m 1.39705885,0.294117 c 0.037658,-0.01725 0.030584,0.04414 0,0.04963 -0.029032,0.0078 -0.028212,-0.03551 0,-0.04963 z" />
  <metadata
     id="metadata4">
    <rdf:RDF>
      <cc:Work
         rdf:about="">
        <dc:creator>
          <cc:Agent>
            <dc:title>dreifacherspass</dc:title>
          </cc:Agent>
        </dc:creator>
        <cc:license
           rdf:resource="http://creativecommons.org/licenses/by-sa/4.0/" />
      </cc:Work>
      <cc:License
         rdf:about="http://creativecommons.org/licenses/by-sa/4.0/">
        <cc:permits
           rdf:resource="http://creativecommons.org/ns#Reproduction" />
        <cc:permits
           rdf:resource="http://creativecommons.org/ns#Distribution" />
        <cc:requires
           rdf:resource="http://creativecommons.org/ns#Notice" />
        <cc:requires
           rdf:resource="http://creativecommons.org/ns#Attribution" />
        <cc:permits
           rdf:resource="http://creativecommons.org/ns#DerivativeWorks" />
        <cc:requires
           rdf:resource="http://creativecommons.org/ns#ShareAlike" />
      </cc:License>
    </rdf:RDF>
  </metadata>
</svg>
