<?xml version="1.0" encoding="UTF-8" standalone="no"?>
<svg
   width="48"
   height="48"
   version="1.1"
   id="svg57"
   xmlns:xlink="http://www.w3.org/1999/xlink"
   xmlns="http://www.w3.org/2000/svg"
   xmlns:svg="http://www.w3.org/2000/svg"
   xmlns:rdf="http://www.w3.org/1999/02/22-rdf-syntax-ns#"
   xmlns:cc="http://creativecommons.org/ns#"
   xmlns:dc="http://purl.org/dc/elements/1.1/">
  <defs
     id="defs31">
    <style
       id="current-color-scheme"
       type="text/css">
   .ColorScheme-Text { color: #0abdc6; } .ColorScheme-Highlight { color:#5294e2; }
  </style>
    <linearGradient
       id="arrongin"
       x1="0%"
       x2="0%"
       y1="0%"
       y2="100%">
      <stop
         offset="0%"
         style="stop-color:#dd9b44; stop-opacity:1"
         id="stop9192" />
      <stop
         offset="100%"
         style="stop-color:#ad6c16; stop-opacity:1"
         id="stop9194" />
    </linearGradient>
    <linearGradient
       id="aurora"
       x1="0%"
       x2="0%"
       y1="0%"
       y2="100%">
      <stop
         offset="0%"
         style="stop-color:#09D4DF; stop-opacity:1"
         id="stop9197" />
      <stop
         offset="100%"
         style="stop-color:#9269F4; stop-opacity:1"
         id="stop9199" />
    </linearGradient>
    <linearGradient
       id="cyberneon"
       x1="0%"
       x2="0%"
       y1="0%"
       y2="100%">
      <stop
         offset="0"
         style="stop-color:#0abdc6; stop-opacity:1"
         id="stop9202" />
      <stop
         offset="1"
         style="stop-color:#ea00d9; stop-opacity:1"
         id="stop9204" />
    </linearGradient>
    <linearGradient
       id="fitdance"
       x1="0%"
       x2="0%"
       y1="0%"
       y2="100%">
      <stop
         offset="0%"
         style="stop-color:#1AD6AB; stop-opacity:1"
         id="stop9207" />
      <stop
         offset="100%"
         style="stop-color:#329DB6; stop-opacity:1"
         id="stop9209" />
    </linearGradient>
    <linearGradient
       id="oomox"
       x1="0%"
       x2="0%"
       y1="0%"
       y2="100%">
      <stop
         offset="0%"
         style="stop-color:#0abdc6; stop-opacity:1"
         id="stop9212" />
      <stop
         offset="100%"
         style="stop-color:#b800ff; stop-opacity:1"
         id="stop9214" />
    </linearGradient>
    <linearGradient
       id="rainblue"
       x1="0%"
       x2="0%"
       y1="0%"
       y2="100%">
      <stop
         offset="0%"
         style="stop-color:#00F260; stop-opacity:1"
         id="stop9217" />
      <stop
         offset="100%"
         style="stop-color:#0575E6; stop-opacity:1"
         id="stop9219" />
    </linearGradient>
    <linearGradient
       id="sunrise"
       x1="0%"
       x2="0%"
       y1="0%"
       y2="100%">
      <stop
         offset="0%"
         style="stop-color: #FF8501; stop-opacity:1"
         id="stop9222" />
      <stop
         offset="100%"
         style="stop-color: #FFCB01; stop-opacity:1"
         id="stop9224" />
    </linearGradient>
    <linearGradient
       id="telinkrin"
       x1="0%"
       x2="0%"
       y1="0%"
       y2="100%">
      <stop
         offset="0%"
         style="stop-color: #b2ced6; stop-opacity:1"
         id="stop9227" />
      <stop
         offset="100%"
         style="stop-color: #6da5b7; stop-opacity:1"
         id="stop9229" />
    </linearGradient>
    <linearGradient
       id="60spsycho"
       x1="0%"
       x2="0%"
       y1="0%"
       y2="100%">
      <stop
         offset="0%"
         style="stop-color: #df5940; stop-opacity:1"
         id="stop9232" />
      <stop
         offset="25%"
         style="stop-color: #d8d15f; stop-opacity:1"
         id="stop9234" />
      <stop
         offset="50%"
         style="stop-color: #e9882a; stop-opacity:1"
         id="stop9236" />
      <stop
         offset="100%"
         style="stop-color: #279362; stop-opacity:1"
         id="stop9238" />
    </linearGradient>
    <linearGradient
       id="90ssummer"
       x1="0%"
       x2="0%"
       y1="0%"
       y2="100%">
      <stop
         offset="0%"
         style="stop-color: #f618c7; stop-opacity:1"
         id="stop9241" />
      <stop
         offset="20%"
         style="stop-color: #94ffab; stop-opacity:1"
         id="stop9243" />
      <stop
         offset="50%"
         style="stop-color: #fbfd54; stop-opacity:1"
         id="stop9245" />
      <stop
         offset="100%"
         style="stop-color: #0f83ae; stop-opacity:1"
         id="stop9247" />
    </linearGradient>
    <linearGradient
       id="c"
       y1="10"
       y2="14"
       x2="0"
       gradientUnits="userSpaceOnUse">
      <stop
         stop-color="#1d1e1e"
         id="stop8" />
      <stop
         offset="1"
         stop-color="#44484c"
         id="stop10" />
    </linearGradient>
    <linearGradient
       id="i"
       y1="23"
       x1="16"
       y2="39"
       x2="32"
       gradientUnits="userSpaceOnUse">
      <stop
         stop-color="#292c2f"
         id="stop26" />
      <stop
         offset="1"
         stop-opacity="0"
         id="stop28"
         style="stop-color:#000000;stop-opacity:0.39864865;" />
    </linearGradient>
  </defs>
  <g
     transform="matrix(1.175,0,0,1.175,-456.10287,-591.465)"
     id="g55">
    <path
       d="m 402.37582,512.9292 v -2.83031 c 0,-2.50874 2.69861,-4.52837 6.05084,-4.52837 3.35222,0 6.05096,2.01963 6.05096,4.52837 v 2.83031 h -0.75639 v -2.83031 c 0,-2.1951 -2.36134,-3.96233 -5.29457,-3.96233 -2.9332,0 -5.29448,1.76723 -5.29448,3.96233 v 2.83031 z"
       id="path47-5"
       class="ColorScheme-Text"
       style="fill:url(#oomox);fill-opacity:1;stroke-width:0.654342" />
    <path
       fill-rule="evenodd"
       d="m 9,11 v 2 l 1,-1 z m 30,0 -1,1 1,1 z"
       transform="translate(384.57,499.8)"
       id="path33"
       class="ColorScheme-Text"
       style="display:inline;fill:url(#oomox);fill-opacity:1" />
    <path
       id="rect35"
       class="ColorScheme-Text"
       style="display:inline;fill:url(#oomox);fill-opacity:1"
       d="m 388.86184,513.8 v 30 h 39.41575 v -30 z m 15.70816,9 c 0.554,0 1,0.446 1,1 0,0.554 -0.446,1 -1,1 -0.554,0 -1,-0.446 -1,-1 0,-0.554 0.446,-1 1,-1 z m 7,0 5,5 -5,5 -2,-2 3,-3 -3,-3 z m -9.5,6 c 0.831,0 1.5,0.669 1.5,1.5 0,0.831 -0.669,1.5 -1.5,1.5 -0.831,0 -1.5,-0.669 -1.5,-1.5 0,-0.831 0.669,-1.5 1.5,-1.5 z m 4.5,6 c 1.108,0 2,0.892 2,2 0,1.108 -0.892,2 -2,2 -1.108,0 -2,-0.892 -2,-2 0,-1.108 0.892,-2 2,-2 z" />
    <path
       opacity="0.2"
       fill="url(#i)"
       d="m 20.707,23.293 -1.414,1.414 8,8 L 27,33 38,44 h 5.764534 L 43.657593,38.74859 32,28 28.707,31.293 Z m -2.146,6.146 -2.121,2.121 5.5,5.5 -1.354,1.354 5.586,5.586 h 6.951 z"
       id="path37"
       style="display:inline;opacity:0.1975;fill:url(#i)"
       transform="translate(384.57,499.8)" />
    <path
       fill-rule="evenodd"
       d="m 10,10 -1,1 1,1 -5.7058411,2 H 43.707586 L 38,12 39,11 38,10 H 24 Z"
       transform="translate(384.57,499.8)"
       id="path41"
       class="ColorScheme-Text"
       style="display:inline;fill:url(#oomox);fill-opacity:1" />
    <path
       fill-rule="evenodd"
       d="m 10,10 -1,1 1,1 -5.7058411,2 H 43.707586 L 38,12 39,11 38,10 H 24 Z"
       opacity="0.6"
       transform="translate(384.57,499.8)"
       id="path43"
       style="display:inline;fill:url(#c)" />
    <path
       opacity="0.2"
       d="M 10,10 9,11 H 39 L 38,10 H 24 Z"
       transform="translate(384.57,499.8)"
       id="path45" />
    <path
       d="m 400.57,516.8 v -5 c 0,-4.432 3.568,-8 8,-8 4.432,0 8,3.568 8,8 v 5 h -1 v -5 c 0,-3.878 -3.122,-7 -7,-7 -3.878,0 -7,3.122 -7,7 v 5 z"
       id="path47"
       class="ColorScheme-Text"
       style="fill:url(#oomox);fill-opacity:1" />
  </g>
  <metadata
     id="metadata181">
    <rdf:RDF>
      <cc:Work
         rdf:about="">
        <dc:contributor>
          <cc:Agent>
            <dc:title>dreifacherspass</dc:title>
          </cc:Agent>
        </dc:contributor>
        <cc:license
           rdf:resource="http://creativecommons.org/licenses/by-sa/4.0/" />
      </cc:Work>
      <cc:License
         rdf:about="http://creativecommons.org/licenses/by-sa/4.0/">
        <cc:permits
           rdf:resource="http://creativecommons.org/ns#Reproduction" />
        <cc:permits
           rdf:resource="http://creativecommons.org/ns#Distribution" />
        <cc:requires
           rdf:resource="http://creativecommons.org/ns#Notice" />
        <cc:requires
           rdf:resource="http://creativecommons.org/ns#Attribution" />
        <cc:permits
           rdf:resource="http://creativecommons.org/ns#DerivativeWorks" />
        <cc:requires
           rdf:resource="http://creativecommons.org/ns#ShareAlike" />
      </cc:License>
    </rdf:RDF>
  </metadata>
</svg>
