<?xml version="1.0" encoding="UTF-8" standalone="no"?>
<svg
   version="1.0"
   width="16pt"
   height="16pt"
   viewBox="0 0 16 16"
   preserveAspectRatio="xMidYMid"
   id="svg4"
   xmlns="http://www.w3.org/2000/svg"
   xmlns:svg="http://www.w3.org/2000/svg"
   xmlns:rdf="http://www.w3.org/1999/02/22-rdf-syntax-ns#"
   xmlns:cc="http://creativecommons.org/ns#"
   xmlns:dc="http://purl.org/dc/elements/1.1/">
<defs>
   <style id="current-color-scheme" type="text/css">
   .ColorScheme-Text { color: #0abdc6; } .ColorScheme-Highlight { color:#5294e2; }
  </style>
  <linearGradient id="arrongin" x1="0%" x2="0%" y1="0%" y2="100%">
   <stop offset="0%" style="stop-color:#dd9b44; stop-opacity:1"/>
   <stop offset="100%" style="stop-color:#ad6c16; stop-opacity:1"/>
  </linearGradient>
  <linearGradient id="aurora" x1="0%" x2="0%" y1="0%" y2="100%">
   <stop offset="0%" style="stop-color:#09D4DF; stop-opacity:1"/>
   <stop offset="100%" style="stop-color:#9269F4; stop-opacity:1"/>
  </linearGradient>
  <linearGradient id="cyberneon" x1="0%" x2="0%" y1="0%" y2="100%">
    <stop offset="0" style="stop-color:#0abdc6; stop-opacity:1"/>
    <stop offset="1" style="stop-color:#ea00d9; stop-opacity:1"/>
  </linearGradient>
  <linearGradient id="fitdance" x1="0%" x2="0%" y1="0%" y2="100%">
   <stop offset="0%" style="stop-color:#1AD6AB; stop-opacity:1"/>
   <stop offset="100%" style="stop-color:#329DB6; stop-opacity:1"/>
  </linearGradient>
  <linearGradient id="oomox" x1="0%" x2="0%" y1="0%" y2="100%">
   <stop offset="0%" style="stop-color:#0abdc6; stop-opacity:1"/>
   <stop offset="100%" style="stop-color:#b800ff; stop-opacity:1"/>
  </linearGradient>
  <linearGradient id="rainblue" x1="0%" x2="0%" y1="0%" y2="100%">
   <stop offset="0%" style="stop-color:#00F260; stop-opacity:1"/>
   <stop offset="100%" style="stop-color:#0575E6; stop-opacity:1"/>
  </linearGradient>
  <linearGradient id="sunrise" x1="0%" x2="0%" y1="0%" y2="100%">
   <stop offset="0%" style="stop-color: #FF8501; stop-opacity:1"/>
   <stop offset="100%" style="stop-color: #FFCB01; stop-opacity:1"/>
  </linearGradient>
  <linearGradient id="telinkrin" x1="0%" x2="0%" y1="0%" y2="100%">
   <stop offset="0%" style="stop-color: #b2ced6; stop-opacity:1"/>
   <stop offset="100%" style="stop-color: #6da5b7; stop-opacity:1"/>
  </linearGradient>
  <linearGradient id="60spsycho" x1="0%" x2="0%" y1="0%" y2="100%">
   <stop offset="0%" style="stop-color: #df5940; stop-opacity:1"/>
   <stop offset="25%" style="stop-color: #d8d15f; stop-opacity:1"/>
   <stop offset="50%" style="stop-color: #e9882a; stop-opacity:1"/>
   <stop offset="100%" style="stop-color: #279362; stop-opacity:1"/>
  </linearGradient>
  <linearGradient id="90ssummer" x1="0%" x2="0%" y1="0%" y2="100%">
   <stop offset="0%" style="stop-color: #f618c7; stop-opacity:1"/>
   <stop offset="20%" style="stop-color: #94ffab; stop-opacity:1"/>
   <stop offset="50%" style="stop-color: #fbfd54; stop-opacity:1"/>
   <stop offset="100%" style="stop-color: #0f83ae; stop-opacity:1"/>
  </linearGradient>
 </defs>
  <path
     d="M 6.309859,0.17403405 C 3.2550859,0.82561776 0.82629089,3.2941177 0.18779324,6.4016708 c -0.25039124,1.2029237 -0.25039124,1.979812 0,3.1827358 0.65101721,3.1576744 3.07981216,5.5885834 6.20970266,6.2276364 1.2143975,0.250609 1.9906103,0.250609 3.2050078,0 3.1298903,-0.639053 5.5586853,-3.069962 6.2097033,-6.2276364 0.250391,-1.2029238 0.250391,-1.9798121 0,-3.1952663 C 14.923318,2.0410721 10.666667,-0.74068925 6.309859,0.17403405 Z M 9.8028167,0.85067867 C 11.179969,1.2015314 12.181534,1.7779325 13.195618,2.7928994 c 1.014085,1.0149669 1.589985,2.0174034 1.940532,3.3957536 0.450704,1.7667943 0.225352,3.6964846 -0.651017,5.350504 -0.525822,1.002437 -1.940532,2.418379 -2.942097,2.944659 C 8.5884192,16.037591 5.0704223,15.511313 2.7417838,13.143056 0.92644738,11.301078 0.22535192,8.6947442 0.86384958,6.188653 1.2143973,4.8103028 1.7902971,3.8078663 2.8043816,2.7928994 4.6823159,0.91333095 7.2613457,0.19909496 9.8028167,0.85067867 Z"
     id="path1"
     class="ColorScheme-Text"
     style="fill:url(#oomox);stroke:none;stroke-width:0.012525" />
  <path
     d="M 6.5477306,1.4145492 C 4.0563378,1.9533588 1.8278558,4.1963105 1.4272298,6.5520362 1.3771516,6.8277063 1.3145538,7.1534981 1.2769951,7.2788027 1.2269169,7.47929 1.3521125,7.4918205 3.1173707,7.4667595 L 5.0203441,7.4291682 5.195618,6.9279499 C 5.4084505,6.2763662 6.422535,5.2989907 7.0735522,5.1235642 c 0.6259781,-0.1754264 1.2269171,-0.1754264 1.8528952,0 0.6510172,0.1754265 1.6651016,1.152802 1.8779346,1.8043857 l 0.175274,0.5012183 1.890454,0.037592 1.890453,0.037592 -0.07512,-0.413505 C 14.522692,6.1510617 14.334898,5.6247825 13.909233,4.7977724 12.544601,2.1914375 9.4773081,0.77549593 6.5477306,1.4145492 Z"
     id="path2"
     class="ColorScheme-Text"
     style="fill:url(#oomox);stroke:none;stroke-width:0.012525" />
  <path
     d="M 6.8607197,6.1510617 C 6.1721438,6.6146885 5.8716743,7.1660286 5.8716743,7.9930386 c 0,0.8270101 0.3004695,1.3783502 1.0015649,1.8545076 C 7.2488261,10.098156 7.4241,10.135746 8.0876367,10.098156 9.364632,10.022966 10.028169,9.3588584 10.103286,8.0807519 c 0.03756,-0.6641142 0,-0.8395406 -0.2503911,-1.2154543 C 9.3771516,6.1635921 8.8262909,5.8628611 7.9999998,5.8628611 c -0.5383412,0 -0.8137715,0.075182 -1.1392801,0.2882006 z"
     id="path3"
     class="ColorScheme-Text"
     style="fill:url(#oomox);stroke:none;stroke-width:0.012525" />
  <path
     d="m 1.3145538,8.8952315 c 0.1627543,0.9397842 0.3505477,1.4660625 0.7762128,2.2930725 0.6384977,1.227985 1.6275431,2.16777 2.9295775,2.806824 2.0156494,0.989905 3.943662,0.989905 5.9593119,0 2.015649,-0.989907 3.280125,-2.73164 3.70579,-5.0998965 l 0.07512,-0.413505 -1.890453,0.037592 -1.890454,0.037592 -0.175274,0.5012182 C 10.591549,9.7097111 9.5774646,10.687087 8.9264474,10.862513 7.7746477,11.188304 6.8106414,10.950226 5.9718308,10.148277 5.6212831,9.8099548 5.2832549,9.3463279 5.195618,9.0581274 L 5.0203441,8.5569092 3.1298903,8.5193178 1.2394364,8.4817265 Z"
     id="path4"
     class="ColorScheme-Text"
     style="fill:url(#oomox);stroke:none;stroke-width:0.012525" />
  <metadata
     id="metadata8">
    <rdf:RDF>
      <cc:Work
         rdf:about="">
        <dc:creator>
          <cc:Agent>
            <dc:title>drefacherspass</dc:title>
          </cc:Agent>
        </dc:creator>
        <cc:license
           rdf:resource="http://creativecommons.org/licenses/by-sa/4.0/" />
      </cc:Work>
      <cc:License
         rdf:about="http://creativecommons.org/licenses/by-sa/4.0/">
        <cc:permits
           rdf:resource="http://creativecommons.org/ns#Reproduction" />
        <cc:permits
           rdf:resource="http://creativecommons.org/ns#Distribution" />
        <cc:requires
           rdf:resource="http://creativecommons.org/ns#Notice" />
        <cc:requires
           rdf:resource="http://creativecommons.org/ns#Attribution" />
        <cc:permits
           rdf:resource="http://creativecommons.org/ns#DerivativeWorks" />
        <cc:requires
           rdf:resource="http://creativecommons.org/ns#ShareAlike" />
      </cc:License>
    </rdf:RDF>
  </metadata>
</svg>
