<?xml version="1.0" encoding="UTF-8" standalone="no"?>
<svg
   version="1.1"
   height="16"
   width="16"
   id="svg7"
   xmlns:xlink="http://www.w3.org/1999/xlink"
   xmlns="http://www.w3.org/2000/svg"
   xmlns:svg="http://www.w3.org/2000/svg"
   xmlns:rdf="http://www.w3.org/1999/02/22-rdf-syntax-ns#"
   xmlns:cc="http://creativecommons.org/ns#"
   xmlns:dc="http://purl.org/dc/elements/1.1/">
  <defs>
   <style id="current-color-scheme" type="text/css">
   .ColorScheme-Text { color: #0abdc6; } .ColorScheme-Highlight { color:#5294e2; }
  </style>
  <linearGradient id="arrongin" x1="0%" x2="0%" y1="0%" y2="100%">
   <stop offset="0%" style="stop-color:#dd9b44; stop-opacity:1"/>
   <stop offset="100%" style="stop-color:#ad6c16; stop-opacity:1"/>
  </linearGradient>
  <linearGradient id="aurora" x1="0%" x2="0%" y1="0%" y2="100%">
   <stop offset="0%" style="stop-color:#09D4DF; stop-opacity:1"/>
   <stop offset="100%" style="stop-color:#9269F4; stop-opacity:1"/>
  </linearGradient>
  <linearGradient id="cyberneon" x1="0%" x2="0%" y1="0%" y2="100%">
    <stop offset="0" style="stop-color:#0abdc6; stop-opacity:1"/>
    <stop offset="1" style="stop-color:#ea00d9; stop-opacity:1"/>
  </linearGradient>
  <linearGradient id="fitdance" x1="0%" x2="0%" y1="0%" y2="100%">
   <stop offset="0%" style="stop-color:#1AD6AB; stop-opacity:1"/>
   <stop offset="100%" style="stop-color:#329DB6; stop-opacity:1"/>
  </linearGradient>
  <linearGradient id="oomox" x1="0%" x2="0%" y1="0%" y2="100%">
   <stop offset="0%" style="stop-color:#0abdc6; stop-opacity:1"/>
   <stop offset="100%" style="stop-color:#b800ff; stop-opacity:1"/>
  </linearGradient>
  <linearGradient id="rainblue" x1="0%" x2="0%" y1="0%" y2="100%">
   <stop offset="0%" style="stop-color:#00F260; stop-opacity:1"/>
   <stop offset="100%" style="stop-color:#0575E6; stop-opacity:1"/>
  </linearGradient>
  <linearGradient id="sunrise" x1="0%" x2="0%" y1="0%" y2="100%">
   <stop offset="0%" style="stop-color: #FF8501; stop-opacity:1"/>
   <stop offset="100%" style="stop-color: #FFCB01; stop-opacity:1"/>
  </linearGradient>
  <linearGradient id="telinkrin" x1="0%" x2="0%" y1="0%" y2="100%">
   <stop offset="0%" style="stop-color: #b2ced6; stop-opacity:1"/>
   <stop offset="100%" style="stop-color: #6da5b7; stop-opacity:1"/>
  </linearGradient>
  <linearGradient id="60spsycho" x1="0%" x2="0%" y1="0%" y2="100%">
   <stop offset="0%" style="stop-color: #df5940; stop-opacity:1"/>
   <stop offset="25%" style="stop-color: #d8d15f; stop-opacity:1"/>
   <stop offset="50%" style="stop-color: #e9882a; stop-opacity:1"/>
   <stop offset="100%" style="stop-color: #279362; stop-opacity:1"/>
  </linearGradient>
  <linearGradient id="90ssummer" x1="0%" x2="0%" y1="0%" y2="100%">
   <stop offset="0%" style="stop-color: #f618c7; stop-opacity:1"/>
   <stop offset="20%" style="stop-color: #94ffab; stop-opacity:1"/>
   <stop offset="50%" style="stop-color: #fbfd54; stop-opacity:1"/>
   <stop offset="100%" style="stop-color: #0f83ae; stop-opacity:1"/>
  </linearGradient>
 </defs>
  <path
     id="path2"
     class="ColorScheme-Text"
     style="fill:url(#oomox);stroke-width:0.124634"
     d="M 9.9277344 3.9648438 C 9.5768433 3.9596987 9.190877 4.0453285 8.8144531 4.2304688 C 8.7517314 4.2613239 8.6880983 4.2875334 8.6289062 4.3222656 C 7.8382192 4.7863673 7.3762068 5.5853174 7.4902344 6.2558594 L 7.4902344 6.4121094 C 7.4514161 6.3869011 7.411679 6.3614179 7.3710938 6.3378906 C 7.3119017 6.3035701 7.2482688 6.2785158 7.1855469 6.2480469 C 6.1817488 5.7604229 5.1150835 5.9711695 4.8046875 6.71875 C 4.4942913 7.4663305 5.0567489 8.4694071 6.0605469 8.9570312 C 6.5542101 9.1968363 7.0636191 9.2683048 7.4902344 9.1894531 L 7.4902344 15.392578 A 0.60697001 0.60697001 0 0 0 8.0976562 16 A 0.60697001 0.60697001 0 0 0 8.7050781 15.392578 L 8.7050781 7.2324219 C 9.0875059 7.2618848 9.5188045 7.1815011 9.9394531 6.9746094 C 10.94325 6.4808896 11.505709 5.4659017 11.195312 4.7089844 C 11.001316 4.2359111 10.512552 3.9734188 9.9277344 3.9648438 z " />
  <path
     style="fill:url(#oomox);stroke-width:0.124634"
     d="m 13.507371,0 -0.656092,0.99448897 c 1.199387,0.98612633 1.967685,2.48981593 1.967685,4.17578213 0,1.6865644 -0.768298,3.1902541 -1.967685,4.1763742 l 0.656092,0.9938867 C 15.022675,9.1380641 16,7.2716043 16,5.1702711 16,3.0695361 15.023262,1.2030764 13.507371,0 Z"
     id="path4"
     class="ColorScheme-Text"/>
  <path
     style="fill:url(#oomox);stroke-width:0.124634"
     d="m 12.191025,1.994952 -0.662539,1.0040597 c 0.571646,0.5456573 0.933044,1.3136341 0.933044,2.1718577 0,0.8582236 -0.361398,1.6267989 -0.933044,2.1724561 l 0.662539,1.0040472 c 0.884058,-0.7685752 1.446835,-1.9053061 1.446835,-3.1771016 0,-1.2711973 -0.562189,-2.4079407 -1.446835,-3.1753191 z"
     id="path5"
     class="ColorScheme-Text"/>
  <path
     style="fill:url(#oomox);stroke-width:0.124634"
     d="M 2.4926292,2.0201972 3.14872,3.0146824 c -1.1993863,0.98612 -1.9676841,2.4898098 -1.9676841,4.1757758 0,1.6865645 0.7682978,3.1902668 1.9676841,4.1763738 L 2.4926292,12.360731 C 0.97732549,11.158264 0,9.291804 0,7.1904582 0,5.0897233 0.97673713,3.2232636 2.4926292,2.0201972 Z"
     id="path6"
     class="ColorScheme-Text"/>
  <path
     style="fill:url(#oomox);stroke-width:0.124634"
     d="M 3.8089743,4.0151517 4.4715137,5.019199 C 3.8998666,5.5648561 3.5384692,6.332833 3.5384692,7.1910566 c 0,0.8582237 0.3613974,1.6267989 0.9330445,2.1724562 L 3.8089743,10.367572 C 2.924917,9.5989848 2.3621396,8.4622663 2.3621396,7.1904582 c 0,-1.2711973 0.562189,-2.407928 1.4468347,-3.1753065 z"
     id="path7"
     class="ColorScheme-Text"/>
  <metadata
     id="metadata7">
    <rdf:RDF>
      <cc:Work
         rdf:about="">
        <dc:creator>
          <cc:Agent>
            <dc:title>dreifacherspass</dc:title>
          </cc:Agent>
        </dc:creator>
        <cc:license
           rdf:resource="http://creativecommons.org/licenses/by-sa/4.0/" />
      </cc:Work>
      <cc:License
         rdf:about="http://creativecommons.org/licenses/by-sa/4.0/">
        <cc:permits
           rdf:resource="http://creativecommons.org/ns#Reproduction" />
        <cc:permits
           rdf:resource="http://creativecommons.org/ns#Distribution" />
        <cc:requires
           rdf:resource="http://creativecommons.org/ns#Notice" />
        <cc:requires
           rdf:resource="http://creativecommons.org/ns#Attribution" />
        <cc:permits
           rdf:resource="http://creativecommons.org/ns#DerivativeWorks" />
        <cc:requires
           rdf:resource="http://creativecommons.org/ns#ShareAlike" />
      </cc:License>
    </rdf:RDF>
  </metadata>
</svg>
