<?xml version="1.0" encoding="UTF-8" standalone="no"?>
<svg
   width="48"
   height="48"
   version="1.1"
   id="svg69"
   xmlns:xlink="http://www.w3.org/1999/xlink"
   xmlns="http://www.w3.org/2000/svg"
   xmlns:svg="http://www.w3.org/2000/svg"
   xmlns:rdf="http://www.w3.org/1999/02/22-rdf-syntax-ns#"
   xmlns:cc="http://creativecommons.org/ns#"
   xmlns:dc="http://purl.org/dc/elements/1.1/">
  <defs
     id="defs61">
    <style
       id="current-color-scheme"
       type="text/css">
   .ColorScheme-Text { color: #0abdc6; } .ColorScheme-Highlight { color: #5294e2; }
  </style>
    <linearGradient
       id="arrongin"
       x1="0"
       x2="0"
       y1="0"
       y2="1">
      <stop
         offset="0%"
         style="stop-color: #dd9b44; stop-opacity: 1"
         id="stop3" />
      <stop
         offset="100%"
         style="stop-color: #ad6c16; stop-opacity: 1"
         id="stop5" />
    </linearGradient>
    <linearGradient
       id="aurora"
       x1="0"
       x2="0"
       y1="0"
       y2="1">
      <stop
         offset="0%"
         style="stop-color: #09D4DF; stop-opacity: 1"
         id="stop8" />
      <stop
         offset="100%"
         style="stop-color: #9269F4; stop-opacity: 1"
         id="stop10" />
    </linearGradient>
    <linearGradient
       id="cyberneon"
       x1="0"
       x2="0"
       y1="0"
       y2="1">
      <stop
         offset="0"
         style="stop-color: #0abdc6; stop-opacity: 1"
         id="stop13" />
      <stop
         offset="1"
         style="stop-color: #ea00d9; stop-opacity: 1"
         id="stop15" />
    </linearGradient>
    <linearGradient
       id="fitdance"
       x1="0"
       x2="0"
       y1="0"
       y2="1">
      <stop
         offset="0%"
         style="stop-color: #1AD6AB; stop-opacity: 1"
         id="stop18" />
      <stop
         offset="100%"
         style="stop-color: #329DB6; stop-opacity: 1"
         id="stop20" />
    </linearGradient>
    <linearGradient
       id="oomox"
       x1="0"
       x2="0"
       y1="0"
       y2="1">
      <stop
         offset="0%"
         style="stop-color: #0abdc6; stop-opacity: 1"
         id="stop23" />
      <stop
         offset="100%"
         style="stop-color: #b800ff; stop-opacity: 1"
         id="stop25" />
    </linearGradient>
    <linearGradient
       id="rainblue"
       x1="0"
       x2="0"
       y1="0"
       y2="1">
      <stop
         offset="0%"
         style="stop-color: #00F260; stop-opacity: 1"
         id="stop28" />
      <stop
         offset="100%"
         style="stop-color: #0575E6; stop-opacity: 1"
         id="stop30" />
    </linearGradient>
    <linearGradient
       id="sunrise"
       x1="0"
       x2="0"
       y1="0"
       y2="1">
      <stop
         offset="0%"
         style="stop-color:  #FF8501; stop-opacity: 1"
         id="stop33" />
      <stop
         offset="100%"
         style="stop-color:  #FFCB01; stop-opacity: 1"
         id="stop35" />
    </linearGradient>
    <linearGradient
       id="telinkrin"
       x1="0"
       x2="0"
       y1="0"
       y2="1">
      <stop
         offset="0%"
         style="stop-color:  #b2ced6; stop-opacity: 1"
         id="stop38" />
      <stop
         offset="100%"
         style="stop-color:  #6da5b7; stop-opacity: 1"
         id="stop40" />
    </linearGradient>
    <linearGradient
       id="60spsycho"
       x1="0"
       x2="0"
       y1="0"
       y2="1">
      <stop
         offset="0%"
         style="stop-color:  #df5940; stop-opacity: 1"
         id="stop43" />
      <stop
         offset="25%"
         style="stop-color:  #d8d15f; stop-opacity: 1"
         id="stop45" />
      <stop
         offset="50%"
         style="stop-color:  #e9882a; stop-opacity: 1"
         id="stop47" />
      <stop
         offset="100%"
         style="stop-color:  #279362; stop-opacity: 1"
         id="stop49" />
    </linearGradient>
    <linearGradient
       id="90ssummer"
       x1="0"
       x2="0"
       y1="0"
       y2="1">
      <stop
         offset="0%"
         style="stop-color:  #f618c7; stop-opacity: 1"
         id="stop52" />
      <stop
         offset="20%"
         style="stop-color:  #94ffab; stop-opacity: 1"
         id="stop54" />
      <stop
         offset="50%"
         style="stop-color:  #fbfd54; stop-opacity: 1"
         id="stop56" />
      <stop
         offset="100%"
         style="stop-color:  #0f83ae; stop-opacity: 1"
         id="stop58" />
    </linearGradient>
  </defs>
  <path
     class="ColorScheme-Text"
     d="M 12.23292,1.9689999 C 8.536999,2.0115931 5.8325028,1.8791134 3.6213248,3.099249 2.5157504,3.7092433 1.6437341,4.7424091 1.1600508,6.0309582 0.67633815,7.3195367 0.5002664,8.8496925 0.5002664,10.7814 v 17.6248 c 0,1.931707 0.17595426,3.461893 0.6597844,4.750442 0.4837126,1.288549 1.3556996,2.321744 2.461274,2.931709 2.211178,1.219989 4.9157036,1.08745 8.6115952,1.130249 h 0.01175 23.511189 0.01175 c 3.695891,-0.04259 6.400417,0.08989 8.611595,-1.130249 1.105574,-0.609994 1.977561,-1.64316 2.461274,-2.931709 0.483184,-1.288579 0.659256,-2.818735 0.659256,-4.750442 V 10.7814 c 0,-1.9317075 -0.175955,-3.4618633 -0.659785,-4.7504418 C 46.356266,4.7424091 45.48425,3.7092433 44.378675,3.099249 42.167497,1.8792015 39.463001,2.0116519 35.76708,1.9689999 H 35.75533 12.244141 Z m 0.01762,2.9374667 h 23.499734 c 3.696861,0.043181 6.130992,0.1756605 7.205958,0.7687938 0.538761,0.2972716 0.849398,0.6249167 1.135977,1.388423 0.286198,0.763477 0.470054,1.9775907 0.470054,3.7177166 v 17.6248 c 0,1.740126 -0.183886,2.954269 -0.470465,3.717717 -0.286697,0.763477 -0.597216,1.09118 -1.135977,1.388423 -1.074966,0.593104 -3.509098,0.725583 -7.205958,0.768793 h -23.48252 -0.01721 C 8.5532432,34.237953 6.1134128,34.105473 5.0384175,33.51234 4.4996567,33.215097 4.194777,32.887394 3.9081978,32.123917 3.6215891,31.360469 3.4377331,30.146326 3.4377331,28.4062 V 10.7814 c 0,-1.7401259 0.1838854,-2.954269 0.4704647,-3.7177166 C 4.1948945,6.3002064 4.4996567,5.9725026 5.0384175,5.6752604 6.1134128,5.0821565 8.5532432,4.9496767 12.250133,4.9064666 Z"
     id="path63"
     style="fill:url(#oomox);stroke-width:2.93747" />
  <path
     class="ColorScheme-Text"
     d="m 18.125067,34.281133 h 11.749866 v 4.4062 c 0,4.4062 1.468734,4.4062 4.4062,4.4062 h 1.468734 V 46.031 H 12.250133 v -2.937467 h 1.468734 c 2.937466,0 4.4062,0 4.4062,-4.4062 z"
     id="path65"
     style="fill:url(#oomox);stroke-width:2.93747" />
  <path
     d="m 30,18.593799 v -3 C 30,12.2854 27.3084,9.5937996 24,9.5937996 c -3.3084,0 -6,2.6916004 -6,5.9999994 v 3 H 16.9 V 29.5938 H 31.1 V 18.593799 Z m -10.4,-3 c 0,-2.4262 1.9738,-4.4 4.4,-4.4 2.4262,0 4.4,1.9738 4.4,4.4 v 3 h -8.8 z"
     id="path196"
     class="ColorScheme-Text"
     style="stroke-width:0.2;fill-opacity:1.0;fill:url(#oomox)" />
  <metadata
     id="metadata511">
    <rdf:RDF>
      <cc:Work
         rdf:about="">
        <dc:creator>
          <cc:Agent>
            <dc:title>dreifacherspass</dc:title>
          </cc:Agent>
        </dc:creator>
        <cc:license
           rdf:resource="http://creativecommons.org/licenses/by-sa/4.0/" />
      </cc:Work>
      <cc:License
         rdf:about="http://creativecommons.org/licenses/by-sa/4.0/">
        <cc:permits
           rdf:resource="http://creativecommons.org/ns#Reproduction" />
        <cc:permits
           rdf:resource="http://creativecommons.org/ns#Distribution" />
        <cc:requires
           rdf:resource="http://creativecommons.org/ns#Notice" />
        <cc:requires
           rdf:resource="http://creativecommons.org/ns#Attribution" />
        <cc:permits
           rdf:resource="http://creativecommons.org/ns#DerivativeWorks" />
        <cc:requires
           rdf:resource="http://creativecommons.org/ns#ShareAlike" />
      </cc:License>
    </rdf:RDF>
  </metadata>
</svg>
