<?xml version="1.0" encoding="UTF-8" standalone="no"?>
<!-- Created with Inkscape (http://www.inkscape.org/) -->

<svg
   width="48"
   height="48"
   viewBox="0 0 12.7 12.7"
   version="1.1"
   id="svg2605"
   xmlns="http://www.w3.org/2000/svg"
   xmlns:svg="http://www.w3.org/2000/svg"
   xmlns:rdf="http://www.w3.org/1999/02/22-rdf-syntax-ns#"
   xmlns:cc="http://creativecommons.org/ns#"
   xmlns:dc="http://purl.org/dc/elements/1.1/">
  <defs
     id="defs2602">
    <style
       id="current-color-scheme"
       type="text/css">
      .ColorScheme-Text { color: #0abdc6; } .ColorScheme-Highlight { color:#5294e2; }
     </style>
    <linearGradient
       id="arrongin"
       x1="0%"
       x2="0%"
       y1="0%"
       y2="100%">
      <stop
         offset="0%"
         style="stop-color:#dd9b44; stop-opacity:1"
         id="stop9192" />
      <stop
         offset="100%"
         style="stop-color:#ad6c16; stop-opacity:1"
         id="stop9194" />
    </linearGradient>
    <linearGradient
       id="aurora"
       x1="0%"
       x2="0%"
       y1="0%"
       y2="100%">
      <stop
         offset="0%"
         style="stop-color:#09D4DF; stop-opacity:1"
         id="stop9197" />
      <stop
         offset="100%"
         style="stop-color:#9269F4; stop-opacity:1"
         id="stop9199" />
    </linearGradient>
    <linearGradient
       id="cyberneon"
       x1="0%"
       x2="0%"
       y1="0%"
       y2="100%">
      <stop
         offset="0"
         style="stop-color:#0abdc6; stop-opacity:1"
         id="stop9202" />
      <stop
         offset="1"
         style="stop-color:#ea00d9; stop-opacity:1"
         id="stop9204" />
    </linearGradient>
    <linearGradient
       id="fitdance"
       x1="0%"
       x2="0%"
       y1="0%"
       y2="100%">
      <stop
         offset="0%"
         style="stop-color:#1AD6AB; stop-opacity:1"
         id="stop9207" />
      <stop
         offset="100%"
         style="stop-color:#329DB6; stop-opacity:1"
         id="stop9209" />
    </linearGradient>
    <linearGradient
       id="oomox"
       x1="0%"
       x2="0%"
       y1="0%"
       y2="100%">
      <stop
         offset="0%"
         style="stop-color:#0abdc6; stop-opacity:1"
         id="stop9212" />
      <stop
         offset="100%"
         style="stop-color:#b800ff; stop-opacity:1"
         id="stop9214" />
    </linearGradient>
    <linearGradient
       id="rainblue"
       x1="0%"
       x2="0%"
       y1="0%"
       y2="100%">
      <stop
         offset="0%"
         style="stop-color:#00F260; stop-opacity:1"
         id="stop9217" />
      <stop
         offset="100%"
         style="stop-color:#0575E6; stop-opacity:1"
         id="stop9219" />
    </linearGradient>
    <linearGradient
       id="sunrise"
       x1="0%"
       x2="0%"
       y1="0%"
       y2="100%">
      <stop
         offset="0%"
         style="stop-color: #FF8501; stop-opacity:1"
         id="stop9222" />
      <stop
         offset="100%"
         style="stop-color: #FFCB01; stop-opacity:1"
         id="stop9224" />
    </linearGradient>
    <linearGradient
       id="telinkrin"
       x1="0%"
       x2="0%"
       y1="0%"
       y2="100%">
      <stop
         offset="0%"
         style="stop-color: #b2ced6; stop-opacity:1"
         id="stop9227" />
      <stop
         offset="100%"
         style="stop-color: #6da5b7; stop-opacity:1"
         id="stop9229" />
    </linearGradient>
    <linearGradient
       id="60spsycho"
       x1="0%"
       x2="0%"
       y1="0%"
       y2="100%">
      <stop
         offset="0%"
         style="stop-color: #df5940; stop-opacity:1"
         id="stop9232" />
      <stop
         offset="25%"
         style="stop-color: #d8d15f; stop-opacity:1"
         id="stop9234" />
      <stop
         offset="50%"
         style="stop-color: #e9882a; stop-opacity:1"
         id="stop9236" />
      <stop
         offset="100%"
         style="stop-color: #279362; stop-opacity:1"
         id="stop9238" />
    </linearGradient>
    <linearGradient
       id="90ssummer"
       x1="0%"
       x2="0%"
       y1="0%"
       y2="100%">
      <stop
         offset="0%"
         style="stop-color: #f618c7; stop-opacity:1"
         id="stop9241" />
      <stop
         offset="20%"
         style="stop-color: #94ffab; stop-opacity:1"
         id="stop9243" />
      <stop
         offset="50%"
         style="stop-color: #fbfd54; stop-opacity:1"
         id="stop9245" />
      <stop
         offset="100%"
         style="stop-color: #0f83ae; stop-opacity:1"
         id="stop9247" />
    </linearGradient>
  </defs>
  <path
     id="path7252"
     class="ColorScheme-Text"
     style="stroke:url(#oomox);fill:none;fill-rule:evenodd;stroke-width:3;stroke-linecap:butt;stroke-linejoin:miter;stroke-miterlimit:4;stroke-dasharray:none;stroke-opacity:1"
     d="M 144.83026 1163.0795 L 164.82826 1163.0795 L 144.83026 1163.0795 z M 144.83026 1170.124 L 164.82826 1170.124 L 144.83026 1170.124 z M 144.83026 1177.1685 L 164.82826 1177.1685 L 144.83026 1177.1685 z M 144.83026 1184.213 L 164.82826 1184.213 L 144.83026 1184.213 z M 144.83026 1191.2526 L 164.82826 1191.2526 L 144.83026 1191.2526 z M 144.83026 1198.2972 L 164.82826 1198.2972 L 144.83026 1198.2972 z M 144.83026 1205.3417 L 164.82826 1205.3417 L 144.83026 1205.3417 z M 144.83026 1212.3862 L 164.82826 1212.3862 L 144.83026 1212.3862 z "
     transform="matrix(0.10522373,0,0,0.1051938,-15.107288,-118.46062)" />
  <path
     id="path7296"
     class="ColorScheme-Text"
     style="display:inline;stroke:url(#oomox);fill:none;fill-rule:evenodd;stroke-width:3;stroke-linecap:butt;stroke-linejoin:miter;stroke-miterlimit:4;stroke-dasharray:none;stroke-opacity:1"
     d="M 144.8323 1163.0795 L 164.8303 1163.0795 L 144.8323 1163.0795 z M 144.8323 1170.124 L 164.8303 1170.124 L 144.8323 1170.124 z M 144.8323 1177.1685 L 164.8303 1177.1685 L 144.8323 1177.1685 z M 144.8323 1184.213 L 164.8303 1184.213 L 144.8323 1184.213 z M 144.8323 1191.2526 L 164.8303 1191.2526 L 144.8323 1191.2526 z M 144.8323 1198.2972 L 164.8303 1198.2972 L 144.8323 1198.2972 z M 144.8323 1205.3417 L 164.8303 1205.3417 L 144.8323 1205.3417 z M 144.8323 1212.3862 L 164.8303 1212.3862 L 144.8323 1212.3862 z "
     transform="matrix(0.10522373,0,0,0.1051938,-4.7763507,-118.46062)" />
  <path
     id="path7314"
     class="ColorScheme-Text"
     style="stroke:url(#oomox);fill:none;fill-rule:evenodd;stroke-width:3;stroke-linecap:butt;stroke-linejoin:miter;stroke-miterlimit:4;stroke-dasharray:none;stroke-opacity:1"
     d="M 144.83154 1212.3865 L 164.83032 1212.3865 L 144.83154 1212.3865 z M 144.83154 1205.344 L 164.83032 1205.344 L 144.83154 1205.344 z M 144.83154 1198.2966 L 164.83032 1198.2966 L 144.83154 1198.2966 z M 144.83154 1191.2541 L 164.83032 1191.2541 L 144.83154 1191.2541 z M 144.83154 1184.2115 L 164.83032 1184.2115 L 144.83154 1184.2115 z M 144.83154 1177.169 L 164.83032 1177.169 L 144.83154 1177.169 z M 144.83154 1170.1216 L 164.83032 1170.1216 L 144.83154 1170.1216 z M 144.83154 1163.0791 L 164.83032 1163.0791 L 144.83154 1163.0791 z "
     transform="matrix(0,0.1051938,-0.10522373,0,131.19435,-4.7714202)" />
  <path
     id="path7332"
     class="ColorScheme-Text"
     style="stroke:url(#oomox);fill:none;fill-rule:evenodd;stroke-width:3;stroke-linecap:butt;stroke-linejoin:miter;stroke-miterlimit:4;stroke-dasharray:none;stroke-opacity:1;fill-opacity:1"
     d="M 144.83026 1212.3865 L 164.82904 1212.3865 L 144.83026 1212.3865 z M 144.83026 1205.344 L 164.82904 1205.344 L 144.83026 1205.344 z M 144.83026 1198.2966 L 164.82904 1198.2966 L 144.83026 1198.2966 z M 144.83026 1191.2541 L 164.82904 1191.2541 L 144.83026 1191.2541 z M 144.83026 1184.2115 L 164.82904 1184.2115 L 144.83026 1184.2115 z M 144.83026 1177.169 L 164.82904 1177.169 L 144.83026 1177.169 z M 144.83026 1170.1216 L 164.82904 1170.1216 L 144.83026 1170.1216 z M 144.83026 1163.0791 L 164.82904 1163.0791 L 144.83026 1163.0791 z "
     transform="matrix(0,0.1051938,-0.10522373,0,131.19435,-15.102954)" />
  <path
     id="path7348"
     style="fill:url(#oomox);fill-opacity:1;fill-rule:evenodd;stroke:none;stroke-width:0.372787px;stroke-linecap:butt;stroke-linejoin:miter;stroke-opacity:1"
     class="ColorScheme-Text"
     d="m -41.196686,157.5628 -29.326174,0.002 -1.395264,1.39344 v 29.31885 h 30.721438 z m -27.319338,2.23755 c 0.643161,3.2e-4 1.164417,0.52157 1.164551,1.16455 8.77e-4,0.64369 -0.520674,1.16606 -1.164551,1.16638 -0.643877,-3.2e-4 -1.165428,-0.52269 -1.164551,-1.16638 1.34e-4,-0.64298 0.52139,-1.16423 1.164551,-1.16455 z"
     transform="matrix(0.2822222,0,0,0.2822222,22.321057,-42.445622)" />
  <metadata
     id="metadata2726">
    <rdf:RDF>
      <cc:Work
         rdf:about="">
        <dc:creator>
          <cc:Agent>
            <dc:title>dreifacherspass</dc:title>
          </cc:Agent>
        </dc:creator>
        <cc:license
           rdf:resource="http://creativecommons.org/licenses/by-sa/4.0/" />
      </cc:Work>
      <cc:License
         rdf:about="http://creativecommons.org/licenses/by-sa/4.0/">
        <cc:permits
           rdf:resource="http://creativecommons.org/ns#Reproduction" />
        <cc:permits
           rdf:resource="http://creativecommons.org/ns#Distribution" />
        <cc:requires
           rdf:resource="http://creativecommons.org/ns#Notice" />
        <cc:requires
           rdf:resource="http://creativecommons.org/ns#Attribution" />
        <cc:permits
           rdf:resource="http://creativecommons.org/ns#DerivativeWorks" />
        <cc:requires
           rdf:resource="http://creativecommons.org/ns#ShareAlike" />
      </cc:License>
    </rdf:RDF>
  </metadata>
</svg>
