<?xml version="1.0" encoding="UTF-8" standalone="no"?>

<svg
   width="48"
   height="48"
   viewBox="0 0 1.92 1.92"
   version="1.1"
   id="svg4"
   xmlns="http://www.w3.org/2000/svg"
   xmlns:svg="http://www.w3.org/2000/svg"
   xmlns:rdf="http://www.w3.org/1999/02/22-rdf-syntax-ns#"
   xmlns:cc="http://creativecommons.org/ns#"
   xmlns:dc="http://purl.org/dc/elements/1.1/">
  <defs
     id="defs8">
    <style
       id="current-color-scheme"
       type="text/css">
      .ColorScheme-Text { color: #0abdc6; } .ColorScheme-Highlight { color:#5294e2; }
     </style>
    <linearGradient
       id="arrongin"
       x1="0%"
       x2="0%"
       y1="0%"
       y2="100%">
      <stop
         offset="0%"
         style="stop-color:#dd9b44; stop-opacity:1"
         id="stop9192" />
      <stop
         offset="100%"
         style="stop-color:#ad6c16; stop-opacity:1"
         id="stop9194" />
    </linearGradient>
    <linearGradient
       id="aurora"
       x1="0%"
       x2="0%"
       y1="0%"
       y2="100%">
      <stop
         offset="0%"
         style="stop-color:#09D4DF; stop-opacity:1"
         id="stop9197" />
      <stop
         offset="100%"
         style="stop-color:#9269F4; stop-opacity:1"
         id="stop9199" />
    </linearGradient>
    <linearGradient
       id="cyberneon"
       x1="0%"
       x2="0%"
       y1="0%"
       y2="100%">
      <stop
         offset="0"
         style="stop-color:#0abdc6; stop-opacity:1"
         id="stop9202" />
      <stop
         offset="1"
         style="stop-color:#ea00d9; stop-opacity:1"
         id="stop9204" />
    </linearGradient>
    <linearGradient
       id="fitdance"
       x1="0%"
       x2="0%"
       y1="0%"
       y2="100%">
      <stop
         offset="0%"
         style="stop-color:#1AD6AB; stop-opacity:1"
         id="stop9207" />
      <stop
         offset="100%"
         style="stop-color:#329DB6; stop-opacity:1"
         id="stop9209" />
    </linearGradient>
    <linearGradient
       id="oomox"
       x1="0.0081467743"
       x2="0.0081467743"
       y1="0.019976062"
       y2="1.9141084"
       gradientTransform="matrix(0.99253889,0,0,0.99253892,0.01191401,1.7298228e-4)"
       gradientUnits="userSpaceOnUse">
      <stop
         offset="0%"
         style="stop-color:#0abdc6; stop-opacity:1"
         id="stop9212" />
      <stop
         offset="100%"
         style="stop-color:#b800ff; stop-opacity:1"
         id="stop9214" />
    </linearGradient>
    <linearGradient
       id="rainblue"
       x1="0%"
       x2="0%"
       y1="0%"
       y2="100%">
      <stop
         offset="0%"
         style="stop-color:#00F260; stop-opacity:1"
         id="stop9217" />
      <stop
         offset="100%"
         style="stop-color:#0575E6; stop-opacity:1"
         id="stop9219" />
    </linearGradient>
    <linearGradient
       id="sunrise"
       x1="0%"
       x2="0%"
       y1="0%"
       y2="100%">
      <stop
         offset="0%"
         style="stop-color: #FF8501; stop-opacity:1"
         id="stop9222" />
      <stop
         offset="100%"
         style="stop-color: #FFCB01; stop-opacity:1"
         id="stop9224" />
    </linearGradient>
    <linearGradient
       id="telinkrin"
       x1="0%"
       x2="0%"
       y1="0%"
       y2="100%">
      <stop
         offset="0%"
         style="stop-color: #b2ced6; stop-opacity:1"
         id="stop9227" />
      <stop
         offset="100%"
         style="stop-color: #6da5b7; stop-opacity:1"
         id="stop9229" />
    </linearGradient>
    <linearGradient
       id="60spsycho"
       x1="0%"
       x2="0%"
       y1="0%"
       y2="100%">
      <stop
         offset="0%"
         style="stop-color: #df5940; stop-opacity:1"
         id="stop9232" />
      <stop
         offset="25%"
         style="stop-color: #d8d15f; stop-opacity:1"
         id="stop9234" />
      <stop
         offset="50%"
         style="stop-color: #e9882a; stop-opacity:1"
         id="stop9236" />
      <stop
         offset="100%"
         style="stop-color: #279362; stop-opacity:1"
         id="stop9238" />
    </linearGradient>
    <linearGradient
       id="90ssummer"
       x1="0%"
       x2="0%"
       y1="0%"
       y2="100%">
      <stop
         offset="0%"
         style="stop-color: #f618c7; stop-opacity:1"
         id="stop9241" />
      <stop
         offset="20%"
         style="stop-color: #94ffab; stop-opacity:1"
         id="stop9243" />
      <stop
         offset="50%"
         style="stop-color: #fbfd54; stop-opacity:1"
         id="stop9245" />
      <stop
         offset="100%"
         style="stop-color: #0f83ae; stop-opacity:1"
         id="stop9247" />
    </linearGradient>
  </defs>
  <path
     d="M 1.8898635,0.80149021 1.7031039,0.52176789 1.7960767,0.1962601 C 1.8018367,0.1758723 1.796193,0.1538532 1.7811337,0.1388827 1.7661327,0.1238539 1.7443277,0.11832 1.7238037,0.1242617 L 1.3994742,0.21915282 1.1191023,0.03001112 C 1.1014843,0.01812788 1.0788663,0.0166716 1.0601443,0.02645782 c -0.018839,0.0096697 -0.030933,0.0288926 -0.03163,0.05003779 l -0.01006,0.33849783 -0.26618482,0.2085976 c -0.0166875,0.0131066 -0.0248857,0.0342517 -0.0215716,0.0551639 0.003314,0.0209122 0.0177922,0.0383876 0.0377938,0.0455524 l 0.24978802,0.0897069 c -0.00168,0.001339 0.028573,0.0123252 0.026953,0.0138984 L 0.02139714,1.7843046 C 0.00546466,1.7684103 0.1310555,1.9 0.1310555,1.9 L 1.096799,0.88150148 c 0.00372,-0.003786 0.00774,0.007091 0.00777,0.006608 L 1.20231,1.1567061 c 0.00726,0.019922 0.02477,0.03431 0.045702,0.037572 0.00297,4.661e-4 0.00592,6.992e-4 0.00895,6.992e-4 0.017792,0 0.034828,-0.00827 0.045993,-0.02266 L 1.5096577,0.90442011 1.8438132,0.89247861 c 0.021165,-6.9901e-4 0.040236,-0.01299 0.049888,-0.0319217 0.00965,-0.0189316 0.00809,-0.0415913 -0.00384,-0.059125 z M 1.478376,0.7890827 C 1.461108,0.78966521 1.445001,0.7979947 1.434419,0.8116842 L 1.2755105,1.0176021 1.1865496,0.77312187 C 1.180627,0.7568116 1.1677691,0.7441128 1.1515465,0.73828771 L 0.90699165,0.65044482 1.1116597,0.49013748 c 0.013664,-0.0107181 0.021746,-0.0268538 0.022328,-0.0441544 l 0.00773,-0.26020824 0.2154829,0.14539504 c 0.014362,0.00967 0.03227,0.0124075 0.048783,0.00763 L 1.6553659,0.26581058 1.5838479,0.5160578 c -0.00471,0.0166598 -0.00186,0.0345428 0.00791,0.0488728 l 0.1463493,0.21500523 z"
     id="path2"
     class="ColorScheme-Text"
     style="font-variation-settings:normal;opacity:1;vector-effect:none;fill:url(#oomox);fill-opacity:1;stroke:none;stroke-width:0.030117;stroke-linecap:butt;stroke-linejoin:miter;stroke-miterlimit:4;stroke-dasharray:none;stroke-dashoffset:0;stroke-opacity:1;-inkscape-stroke:none;stop-color:#000000;stop-opacity:1" />
  <metadata
     id="metadata133">
    <rdf:RDF>
      <cc:Work
         rdf:about="">
        <dc:creator>
          <cc:Agent>
            <dc:title>dreifacherspass</dc:title>
          </cc:Agent>
        </dc:creator>
        <cc:license
           rdf:resource="http://creativecommons.org/licenses/by-sa/4.0/" />
      </cc:Work>
      <cc:License
         rdf:about="http://creativecommons.org/licenses/by-sa/4.0/">
        <cc:permits
           rdf:resource="http://creativecommons.org/ns#Reproduction" />
        <cc:permits
           rdf:resource="http://creativecommons.org/ns#Distribution" />
        <cc:requires
           rdf:resource="http://creativecommons.org/ns#Notice" />
        <cc:requires
           rdf:resource="http://creativecommons.org/ns#Attribution" />
        <cc:permits
           rdf:resource="http://creativecommons.org/ns#DerivativeWorks" />
        <cc:requires
           rdf:resource="http://creativecommons.org/ns#ShareAlike" />
      </cc:License>
    </rdf:RDF>
  </metadata>
</svg>
