<?xml version="1.0" encoding="UTF-8" standalone="no"?>
<svg
   width="16"
   height="16"
   version="1.1"
   id="svg10"
   xmlns:xlink="http://www.w3.org/1999/xlink"
   xmlns="http://www.w3.org/2000/svg"
   xmlns:svg="http://www.w3.org/2000/svg"
   xmlns:rdf="http://www.w3.org/1999/02/22-rdf-syntax-ns#"
   xmlns:cc="http://creativecommons.org/ns#"
   xmlns:dc="http://purl.org/dc/elements/1.1/">
   <defs>
      <style id="current-color-scheme" type="text/css">
         .ColorScheme-Text { color: #0abdc6; } .ColorScheme-Highlight { color:#5294e2; }
      </style>
      <linearGradient id="arrongin" x1="0%" x2="0%" y1="0%" y2="100%">
         <stop offset="0%" style="stop-color:#dd9b44; stop-opacity:1"/>
         <stop offset="100%" style="stop-color:#ad6c16; stop-opacity:1"/>
      </linearGradient>
      <linearGradient id="aurora" x1="0%" x2="0%" y1="0%" y2="100%">
         <stop offset="0%" style="stop-color:#09D4DF; stop-opacity:1"/>
         <stop offset="100%" style="stop-color:#9269F4; stop-opacity:1"/>
      </linearGradient>
      <linearGradient id="cyberneon" x1="0%" x2="0%" y1="0%" y2="100%">
         <stop offset="0" style="stop-color:#0abdc6; stop-opacity:1"/>
         <stop offset="1" style="stop-color:#ea00d9; stop-opacity:1"/>
      </linearGradient>
      <linearGradient id="fitdance" x1="0%" x2="0%" y1="0%" y2="100%">
         <stop offset="0%" style="stop-color:#1AD6AB; stop-opacity:1"/>
         <stop offset="100%" style="stop-color:#329DB6; stop-opacity:1"/>
      </linearGradient>
      <linearGradient id="oomox" x1="0%" x2="0%" y1="0%" y2="100%">
         <stop offset="0%" style="stop-color:#0abdc6; stop-opacity:1"/>
         <stop offset="100%" style="stop-color:#b800ff; stop-opacity:1"/>
      </linearGradient>
      <linearGradient id="rainblue" x1="0%" x2="0%" y1="0%" y2="100%">
         <stop offset="0%" style="stop-color:#00F260; stop-opacity:1"/>
         <stop offset="100%" style="stop-color:#0575E6; stop-opacity:1"/>
      </linearGradient>
      <linearGradient id="sunrise" x1="0%" x2="0%" y1="0%" y2="100%">
         <stop offset="0%" style="stop-color: #FF8501; stop-opacity:1"/>
         <stop offset="100%" style="stop-color: #FFCB01; stop-opacity:1"/>
      </linearGradient>
      <linearGradient id="telinkrin" x1="0%" x2="0%" y1="0%" y2="100%">
         <stop offset="0%" style="stop-color: #b2ced6; stop-opacity:1"/>
         <stop offset="100%" style="stop-color: #6da5b7; stop-opacity:1"/>
      </linearGradient>
      <linearGradient id="60spsycho" x1="0%" x2="0%" y1="0%" y2="100%">
         <stop offset="0%" style="stop-color: #df5940; stop-opacity:1"/>
         <stop offset="25%" style="stop-color: #d8d15f; stop-opacity:1"/>
         <stop offset="50%" style="stop-color: #e9882a; stop-opacity:1"/>
         <stop offset="100%" style="stop-color: #279362; stop-opacity:1"/>
      </linearGradient>
      <linearGradient id="90ssummer" x1="0%" x2="0%" y1="0%" y2="100%">
         <stop offset="0%" style="stop-color: #f618c7; stop-opacity:1"/>
         <stop offset="20%" style="stop-color: #94ffab; stop-opacity:1"/>
         <stop offset="50%" style="stop-color: #fbfd54; stop-opacity:1"/>
         <stop offset="100%" style="stop-color: #0f83ae; stop-opacity:1"/>
      </linearGradient>
   </defs>
  <path
     id="path_box_front"
     style="display:inline;fill:url(#oomox);stroke-width:0.4"
     class="ColorScheme-Text"
     d="M 0 3.5996094 L 0 16 L 16 16 L 16 3.5996094 L 9.1992188 3.5996094 L 9.1992188 6.6953125 L 8.8007812 6.4628906 L 8.4003906 6.6953125 L 8 6.4628906 L 7.5996094 6.6953125 L 7.1992188 6.4628906 L 6.8007812 6.6953125 L 6.8007812 3.5996094 L 0 3.5996094 z M 12 4.4003906 L 15.199219 4.4003906 L 15.199219 7.5996094 L 12 7.5996094 L 12 4.4003906 z M 12.400391 4.8007812 L 12.400391 7.1992188 L 14.800781 7.1992188 L 14.800781 4.8007812 L 12.400391 4.8007812 z M 12.800781 5.1992188 L 13.199219 5.1992188 L 13.199219 5.5996094 L 12.800781 5.5996094 L 12.800781 5.1992188 z M 13.599609 5.1992188 L 14.400391 5.1992188 L 14.400391 6 L 13.599609 6 L 13.599609 5.1992188 z M 12.800781 6 L 13.199219 6 L 13.199219 6.8007812 L 12.800781 6.8007812 L 12.800781 6 z M 13.599609 6.4003906 L 14.400391 6.4003906 L 14.400391 6.8007812 L 13.599609 6.8007812 L 13.599609 6.4003906 z M 5.6074219 7.1992188 L 6.5273438 7.1992188 L 8.8007812 13.599609 L 8.0214844 13.599609 L 7.3144531 11.574219 L 4.7480469 11.574219 L 3.9785156 13.599609 L 3.1992188 13.599609 L 5.6074219 7.1992188 z M 6.0761719 7.9375 L 4.9882812 10.988281 L 7.0585938 10.988281 L 6.0761719 7.9375 z M 11.132812 8.7617188 C 12.069212 8.7617188 12.802734 9.0624651 12.802734 10.097656 L 12.802734 13.496094 L 12.210938 13.496094 L 12.105469 12.988281 C 11.690269 13.445481 11.123706 13.601562 10.628906 13.601562 C 9.851307 13.601562 9.1894531 13.204188 9.1894531 12.341797 C 9.1894531 11.125398 10.390176 10.961462 11.609375 10.789062 L 12.085938 10.738281 L 12.085938 10.210938 C 12.085938 9.6501459 11.80399 9.3574219 11.150391 9.3574219 C 10.628791 9.3574219 10.064581 9.4867689 9.6757812 9.6679688 L 9.4726562 9.1152344 C 9.8346559 8.9252346 10.461213 8.7617188 11.132812 8.7617188 z M 12.087891 11.228516 C 12.087891 11.228516 11.663097 11.289063 11.654297 11.289062 C 10.311498 11.461462 9.9140625 11.667654 9.9140625 12.314453 C 9.9140625 12.832053 10.250772 13.046875 10.701172 13.046875 C 11.151971 13.046875 11.778691 12.781187 12.087891 12.367188 L 12.087891 11.228516 z " />
  <path
     id="path_box_top"
     style="display:inline;fill:url(#oomox);stroke-width:0.4"
     class="ColorScheme-Text"
     d="M 2.4003906 0 L 0 3.5996094 L 6.8007812 3.5996094 L 6.8007812 0 L 2.4003906 0 z M 9.1992188 0 L 9.1992188 3.5996094 L 16 3.5996094 L 14 0 L 9.1992188 0 z " />
  <path
     d="m 6.8,3.5960015 v 3.1 l 0.4,-0.233124 0.4,0.233124 0.4,-0.233124 0.4,0.233124 0.4,-0.233124 0.4,0.233124 v -3.1 z"
     id="path7"
     class="ColorScheme-Text"
     style="display:inline;fill:url(#oomox);stroke-width:0.526809;opacity:0.7" />
  <rect
     width="2.4000001"
     x="6.8000031"
     y="0"
     height="3.5999999"
     id="rect7"
     class="ColorScheme-Text"
     style="display:inline;fill:url(#oomox);stroke-width:0.4;opacity:0.5" />
  <path
     opacity="0.2"
     fill-rule="evenodd"
     d="m 6.4,7.2000048 4,3.8480002 2,-0.248 V 9.2000048 L 16,12.800005 v 3.2 H 5.6 l -2.4,-2.4 z"
     id="path_shadow"
     style="display:inline;opacity:0.0997153;fill:#000000;fill-opacity:1;stroke-width:0.4" />
  <metadata
     id="metadata10">
    <rdf:RDF>
      <cc:Work
         rdf:about="">
        <dc:creator>
          <cc:Agent>
            <dc:title>dreifacherspass</dc:title>
          </cc:Agent>
        </dc:creator>
        <cc:license
           rdf:resource="http://creativecommons.org/licenses/by-sa/4.0/" />
      </cc:Work>
      <cc:License
         rdf:about="http://creativecommons.org/licenses/by-sa/4.0/">
        <cc:permits
           rdf:resource="http://creativecommons.org/ns#Reproduction" />
        <cc:permits
           rdf:resource="http://creativecommons.org/ns#Distribution" />
        <cc:requires
           rdf:resource="http://creativecommons.org/ns#Notice" />
        <cc:requires
           rdf:resource="http://creativecommons.org/ns#Attribution" />
        <cc:permits
           rdf:resource="http://creativecommons.org/ns#DerivativeWorks" />
        <cc:requires
           rdf:resource="http://creativecommons.org/ns#ShareAlike" />
      </cc:License>
    </rdf:RDF>
  </metadata>
</svg>
