<?xml version="1.0" encoding="UTF-8" standalone="no"?>
<!-- Created with Inkscape (http://www.inkscape.org/) -->

<svg
   width="16"
   height="16"
   viewBox="0 0 4.2333333 4.2333333"
   version="1.1"
   id="svg12140"
   xmlns="http://www.w3.org/2000/svg"
   xmlns:svg="http://www.w3.org/2000/svg"
   xmlns:rdf="http://www.w3.org/1999/02/22-rdf-syntax-ns#"
   xmlns:cc="http://creativecommons.org/ns#"
   xmlns:dc="http://purl.org/dc/elements/1.1/">
   <defs>
      <style id="current-color-scheme" type="text/css">
         .ColorScheme-Text { color: #0abdc6; } .ColorScheme-Highlight { color:#5294e2; }
      </style>
      <linearGradient id="arrongin" x1="0%" x2="0%" y1="0%" y2="100%">
         <stop offset="0%" style="stop-color:#dd9b44; stop-opacity:1"/>
         <stop offset="100%" style="stop-color:#ad6c16; stop-opacity:1"/>
      </linearGradient>
      <linearGradient id="aurora" x1="0%" x2="0%" y1="0%" y2="100%">
         <stop offset="0%" style="stop-color:#09D4DF; stop-opacity:1"/>
         <stop offset="100%" style="stop-color:#9269F4; stop-opacity:1"/>
      </linearGradient>
      <linearGradient id="cyberneon" x1="0%" x2="0%" y1="0%" y2="100%">
         <stop offset="0" style="stop-color:#0abdc6; stop-opacity:1"/>
         <stop offset="1" style="stop-color:#ea00d9; stop-opacity:1"/>
      </linearGradient>
      <linearGradient id="fitdance" x1="0%" x2="0%" y1="0%" y2="100%">
         <stop offset="0%" style="stop-color:#1AD6AB; stop-opacity:1"/>
         <stop offset="100%" style="stop-color:#329DB6; stop-opacity:1"/>
      </linearGradient>
      <linearGradient id="oomox" x1="0%" x2="0%" y1="0%" y2="100%">
         <stop offset="0%" style="stop-color:#0abdc6; stop-opacity:1"/>
         <stop offset="100%" style="stop-color:#b800ff; stop-opacity:1"/>
      </linearGradient>
      <linearGradient id="rainblue" x1="0%" x2="0%" y1="0%" y2="100%">
         <stop offset="0%" style="stop-color:#00F260; stop-opacity:1"/>
         <stop offset="100%" style="stop-color:#0575E6; stop-opacity:1"/>
      </linearGradient>
      <linearGradient id="sunrise" x1="0%" x2="0%" y1="0%" y2="100%">
         <stop offset="0%" style="stop-color: #FF8501; stop-opacity:1"/>
         <stop offset="100%" style="stop-color: #FFCB01; stop-opacity:1"/>
      </linearGradient>
      <linearGradient id="telinkrin" x1="0%" x2="0%" y1="0%" y2="100%">
         <stop offset="0%" style="stop-color: #b2ced6; stop-opacity:1"/>
         <stop offset="100%" style="stop-color: #6da5b7; stop-opacity:1"/>
      </linearGradient>
      <linearGradient id="60spsycho" x1="0%" x2="0%" y1="0%" y2="100%">
         <stop offset="0%" style="stop-color: #df5940; stop-opacity:1"/>
         <stop offset="25%" style="stop-color: #d8d15f; stop-opacity:1"/>
         <stop offset="50%" style="stop-color: #e9882a; stop-opacity:1"/>
         <stop offset="100%" style="stop-color: #279362; stop-opacity:1"/>
      </linearGradient>
      <linearGradient id="90ssummer" x1="0%" x2="0%" y1="0%" y2="100%">
         <stop offset="0%" style="stop-color: #f618c7; stop-opacity:1"/>
         <stop offset="20%" style="stop-color: #94ffab; stop-opacity:1"/>
         <stop offset="50%" style="stop-color: #fbfd54; stop-opacity:1"/>
         <stop offset="100%" style="stop-color: #0f83ae; stop-opacity:1"/>
      </linearGradient>
   </defs>
  <path
     d="M 3.628719,3.023588 V 4.2333333 H 4.2333333 V 3.023588 Z"
     style="fill:url(#oomox);stroke-width:0.888283"
     id="path7"
     class="ColorScheme-Text"/>
  <path
     d="M 3.628719,3.023588 H 4.2333333 V 4.2333333 H 3.628719 Z"
     style="fill:url(#oomox);stroke-width:0.888283"
     id="path6"
     class="ColorScheme-Text"/>
  <path
     d="m 3.9310262,2.1166667 c -0.1675188,0 -0.3023072,0.1347878 -0.3023072,0.3023071 0,0.1675187 0.1347884,0.3023071 0.3023072,0.3023071 0.1675174,0 0.3023071,-0.1347884 0.3023071,-0.3023071 0,-0.1675193 -0.1347897,-0.3023071 -0.3023071,-0.3023071 z"
     style="fill:url(#oomox);stroke-width:0.888283"
     id="path5"
     class="ColorScheme-Text"/>
  <path
     d="m 3.9310262,2.1166667 c 0.1675174,0 0.3023071,0.1347878 0.3023071,0.3023071 0,0.1675187 -0.1347897,0.3023071 -0.3023071,0.3023071 -0.1675188,0 -0.3023072,-0.1347884 -0.3023072,-0.3023071 0,-0.1675193 0.1347884,-0.3023071 0.3023072,-0.3023071 z"
     style="fill:url(#oomox);stroke-width:0.888283"
     id="path4"
     class="ColorScheme-Text"/>
  <path
     id="path2"
     class="ColorScheme-Text"
     style="fill:url(#oomox);stroke-width:0.888283"
     d="M 2.1166667 0 A 1.0559144 1.0559144 0 0 0 1.0583333 1.0583333 C 1.0583333 1.6446489 1.5303508 2.1166667 2.1166667 2.1166667 C 2.7032844 2.1166667 3.175 1.6446489 3.175 1.0583333 C 3.175 0.47201856 2.7032844 -7.8332323e-17 2.1166667 0 z M 2.1166667 2.1166667 C 0.94403559 2.1166667 0 3.0607026 0 4.2333333 L 3.023588 4.2333333 L 3.023588 3.9310262 L 0.32969564 3.9310262 A 1.8082383 1.8082382 0 0 1 2.1166667 2.4189738 C 2.4634963 2.4189738 2.7816704 2.5219385 3.0556274 2.6897583 L 3.2809367 2.464449 A 2.1097121 2.1097121 0 0 0 2.1166667 2.1166667 z M 2.1166667 0.30230713 C 2.5354635 0.30230713 2.8726928 0.63953622 2.8726928 1.0583333 C 2.8726928 1.4771309 2.5354635 1.8143595 2.1166667 1.8143595 A 0.75444073 0.75444073 0 0 1 1.3606405 1.0583333 C 1.3606405 0.63953622 1.69787 0.30230713 2.1166667 0.30230713 z " />
  <metadata
     id="metadata134">
    <rdf:RDF>
      <cc:Work
         rdf:about="">
        <cc:license
           rdf:resource="http://creativecommons.org/licenses/by-sa/4.0/" />
        <dc:creator>
          <cc:Agent>
            <dc:title>dreifacherspass</dc:title>
          </cc:Agent>
        </dc:creator>
      </cc:Work>
      <cc:License
         rdf:about="http://creativecommons.org/licenses/by-sa/4.0/">
        <cc:permits
           rdf:resource="http://creativecommons.org/ns#Reproduction" />
        <cc:permits
           rdf:resource="http://creativecommons.org/ns#Distribution" />
        <cc:requires
           rdf:resource="http://creativecommons.org/ns#Notice" />
        <cc:requires
           rdf:resource="http://creativecommons.org/ns#Attribution" />
        <cc:permits
           rdf:resource="http://creativecommons.org/ns#DerivativeWorks" />
        <cc:requires
           rdf:resource="http://creativecommons.org/ns#ShareAlike" />
      </cc:License>
    </rdf:RDF>
  </metadata>
</svg>
