<?xml version="1.0" encoding="UTF-8" standalone="no"?>
<svg
   height="16"
   width="16"
   version="1.1"
   id="svg4721"
   xmlns:xlink="http://www.w3.org/1999/xlink"
   xmlns="http://www.w3.org/2000/svg"
   xmlns:svg="http://www.w3.org/2000/svg"
   xmlns:rdf="http://www.w3.org/1999/02/22-rdf-syntax-ns#"
   xmlns:cc="http://creativecommons.org/ns#"
   xmlns:dc="http://purl.org/dc/elements/1.1/">
   <defs>
   <style id="current-color-scheme" type="text/css">
   .ColorScheme-Text { color: #0abdc6; } .ColorScheme-Highlight { color:#5294e2; }
  </style>
  <linearGradient id="arrongin" x1="0%" x2="0%" y1="0%" y2="100%">
   <stop offset="0%" style="stop-color:#dd9b44; stop-opacity:1"/>
   <stop offset="100%" style="stop-color:#ad6c16; stop-opacity:1"/>
  </linearGradient>
  <linearGradient id="aurora" x1="0%" x2="0%" y1="0%" y2="100%">
   <stop offset="0%" style="stop-color:#09D4DF; stop-opacity:1"/>
   <stop offset="100%" style="stop-color:#9269F4; stop-opacity:1"/>
  </linearGradient>
  <linearGradient id="cyberneon" x1="0%" x2="0%" y1="0%" y2="100%">
    <stop offset="0" style="stop-color:#0abdc6; stop-opacity:1"/>
    <stop offset="1" style="stop-color:#ea00d9; stop-opacity:1"/>
  </linearGradient>
  <linearGradient id="fitdance" x1="0%" x2="0%" y1="0%" y2="100%">
   <stop offset="0%" style="stop-color:#1AD6AB; stop-opacity:1"/>
   <stop offset="100%" style="stop-color:#329DB6; stop-opacity:1"/>
  </linearGradient>
  <linearGradient id="oomox" x1="0%" x2="0%" y1="0%" y2="100%">
   <stop offset="0%" style="stop-color:#0abdc6; stop-opacity:1"/>
   <stop offset="100%" style="stop-color:#b800ff; stop-opacity:1"/>
  </linearGradient>
  <linearGradient id="rainblue" x1="0%" x2="0%" y1="0%" y2="100%">
   <stop offset="0%" style="stop-color:#00F260; stop-opacity:1"/>
   <stop offset="100%" style="stop-color:#0575E6; stop-opacity:1"/>
  </linearGradient>
  <linearGradient id="sunrise" x1="0%" x2="0%" y1="0%" y2="100%">
   <stop offset="0%" style="stop-color: #FF8501; stop-opacity:1"/>
   <stop offset="100%" style="stop-color: #FFCB01; stop-opacity:1"/>
  </linearGradient>
  <linearGradient id="telinkrin" x1="0%" x2="0%" y1="0%" y2="100%">
   <stop offset="0%" style="stop-color: #b2ced6; stop-opacity:1"/>
   <stop offset="100%" style="stop-color: #6da5b7; stop-opacity:1"/>
  </linearGradient>
  <linearGradient id="60spsycho" x1="0%" x2="0%" y1="0%" y2="100%">
   <stop offset="0%" style="stop-color: #df5940; stop-opacity:1"/>
   <stop offset="25%" style="stop-color: #d8d15f; stop-opacity:1"/>
   <stop offset="50%" style="stop-color: #e9882a; stop-opacity:1"/>
   <stop offset="100%" style="stop-color: #279362; stop-opacity:1"/>
  </linearGradient>
  <linearGradient id="90ssummer" x1="0%" x2="0%" y1="0%" y2="100%">
   <stop offset="0%" style="stop-color: #f618c7; stop-opacity:1"/>
   <stop offset="20%" style="stop-color: #94ffab; stop-opacity:1"/>
   <stop offset="50%" style="stop-color: #fbfd54; stop-opacity:1"/>
   <stop offset="100%" style="stop-color: #0f83ae; stop-opacity:1"/>
  </linearGradient>
 </defs>
  <path
     id="path4713-2"
     class="ColorScheme-Text"
     style="display:inline;opacity:0.5;fill:url(#oomox);fill-opacity:1;stroke-width:0.888888"
     d="M 8.0000579,0 C 5.3333939,1.7777759 4.4444995,1.7777776 1.777836,1.7777776 V 9.5381947 C 1.777836,11.692477 5.1389342,14.634859 8.0000579,16 10.861184,14.634859 14.222281,11.692477 14.222281,9.5381947 V 1.7777776 c -2.666666,0 -3.555559,-1.7e-6 -6.2222231,-1.7777776 z m 0,3.5555555 A 1.7777778,1.7777778 0 0 1 9.7778358,5.3333333 V 7.1111112 H 10.666725 V 10.666667 H 5.3333913 V 7.1111112 h 0.888889 V 5.3333333 A 1.7777778,1.7777778 0 0 1 8.0000579,3.5555555 Z m 0,0.888889 A 0.88888888,0.88888888 0 0 0 7.1111691,5.3333333 V 7.1111112 H 8.888947 V 5.3333333 A 0.88888888,0.88888888 0 0 0 8.0000579,4.4444445 Z" />
  <path
     id="path4713"
     style="display:inline;fill:url(#oomox);fill-opacity:1;stroke-width:0.888888"
     class="ColorScheme-Text"
     d="M 7.9997937,0 C 5.3331321,1.7777742 4.44438,1.7779255 1.777719,1.7779255 v 6.8716756 c 0,2.1542829 3.3609512,5.0962939 6.2220747,6.4614359 C 10.86092,13.745895 14.221868,10.803884 14.221868,8.6496011 V 1.7779255 C 11.555207,1.7779255 10.666455,1.7777742 7.9997937,0 Z m 0,3.5558509 A 1.7777778,1.7777778 0 0 1 9.777719,5.3331117 v 1.7779256 h 0.888963 V 10.666888 H 5.3329054 V 7.1110373 H 6.2218681 V 5.3331117 A 1.7777778,1.7777778 0 0 1 7.9997937,3.5558509 Z m 0,0.8882982 A 0.88888888,0.88888888 0 0 0 7.1108307,5.3331117 V 7.1110373 H 8.8887563 V 5.3331117 A 0.88888888,0.88888888 0 0 0 7.9997937,4.4441491 Z M 2.6447403,11.716755 C 2.752467,11.867747 2.8681987,12.018752 2.9918148,12.169548 2.8681988,12.018753 2.752467,11.867746 2.6447403,11.716755 Z m 0.3470745,0.452793 c 0.1236162,0.150795 0.2546666,0.301353 0.3922871,0.450798 -0.1376201,-0.149445 -0.268671,-0.300003 -0.3922871,-0.450798 z m 0.3922871,0.450798 c 0.1376204,0.149445 0.2817767,0.297873 0.4315159,0.444813 -0.1497392,-0.14694 -0.2938955,-0.295368 -0.4315159,-0.444813 z m 0.4315159,0.444813 C 3.9653571,13.2121 4.1210708,13.357385 4.2810435,13.500665 4.1210708,13.357385 3.9653571,13.2121 3.8156178,13.065159 Z m 9.5392292,-1.348404 c -0.107727,0.150991 -0.223459,0.301997 -0.347075,0.452793 0.123616,-0.150796 0.239348,-0.301802 0.347075,-0.452793 z m -0.347075,0.452793 c -0.123616,0.150795 -0.254667,0.301353 -0.392287,0.450798 0.13762,-0.149445 0.268671,-0.300003 0.392287,-0.450798 z m -0.392287,0.450798 c -0.13762,0.149445 -0.281777,0.297873 -0.431516,0.444813 0.149739,-0.14694 0.293896,-0.295368 0.431516,-0.444813 z m -0.431516,0.444813 c -0.149739,0.146941 -0.305453,0.292226 -0.465426,0.435506 0.159973,-0.14328 0.315687,-0.288565 0.465426,-0.435506 z" />
  <metadata
     id="metadata5544">
    <rdf:RDF>
      <cc:Work
         rdf:about="">
        <dc:creator>
          <cc:Agent>
            <dc:title>dreifacherspass</dc:title>
          </cc:Agent>
        </dc:creator>
        <cc:license
           rdf:resource="http://creativecommons.org/licenses/by-sa/4.0/" />
      </cc:Work>
      <cc:License
         rdf:about="http://creativecommons.org/licenses/by-sa/4.0/">
        <cc:permits
           rdf:resource="http://creativecommons.org/ns#Reproduction" />
        <cc:permits
           rdf:resource="http://creativecommons.org/ns#Distribution" />
        <cc:requires
           rdf:resource="http://creativecommons.org/ns#Notice" />
        <cc:requires
           rdf:resource="http://creativecommons.org/ns#Attribution" />
        <cc:permits
           rdf:resource="http://creativecommons.org/ns#DerivativeWorks" />
        <cc:requires
           rdf:resource="http://creativecommons.org/ns#ShareAlike" />
      </cc:License>
    </rdf:RDF>
  </metadata>
</svg>
