<?xml version="1.0" encoding="UTF-8" standalone="no"?>
<svg
   width="48"
   height="48"
   version="1.1"
   id="svg69"
   xmlns:xlink="http://www.w3.org/1999/xlink"
   xmlns="http://www.w3.org/2000/svg"
   xmlns:svg="http://www.w3.org/2000/svg"
   xmlns:rdf="http://www.w3.org/1999/02/22-rdf-syntax-ns#"
   xmlns:cc="http://creativecommons.org/ns#"
   xmlns:dc="http://purl.org/dc/elements/1.1/">
  <defs
     id="defs61">
    <style
       id="current-color-scheme"
       type="text/css">
   .ColorScheme-Text { color: #0abdc6; } .ColorScheme-Highlight { color: #5294e2; }
  </style>
    <linearGradient
       id="arrongin"
       x1="0"
       x2="0"
       y1="0"
       y2="1">
      <stop
         offset="0%"
         style="stop-color: #dd9b44; stop-opacity: 1"
         id="stop3" />
      <stop
         offset="100%"
         style="stop-color: #ad6c16; stop-opacity: 1"
         id="stop5" />
    </linearGradient>
    <linearGradient
       id="aurora"
       x1="0"
       x2="0"
       y1="0"
       y2="1">
      <stop
         offset="0%"
         style="stop-color: #09D4DF; stop-opacity: 1"
         id="stop8" />
      <stop
         offset="100%"
         style="stop-color: #9269F4; stop-opacity: 1"
         id="stop10" />
    </linearGradient>
    <linearGradient
       id="cyberneon"
       x1="0"
       x2="0"
       y1="0"
       y2="1">
      <stop
         offset="0"
         style="stop-color: #0abdc6; stop-opacity: 1"
         id="stop13" />
      <stop
         offset="1"
         style="stop-color: #ea00d9; stop-opacity: 1"
         id="stop15" />
    </linearGradient>
    <linearGradient
       id="fitdance"
       x1="0"
       x2="0"
       y1="0"
       y2="1">
      <stop
         offset="0%"
         style="stop-color: #1AD6AB; stop-opacity: 1"
         id="stop18" />
      <stop
         offset="100%"
         style="stop-color: #329DB6; stop-opacity: 1"
         id="stop20" />
    </linearGradient>
    <linearGradient
       id="oomox"
       x1="0"
       x2="0"
       y1="0"
       y2="1">
      <stop
         offset="0%"
         style="stop-color: #0abdc6; stop-opacity: 1"
         id="stop23" />
      <stop
         offset="100%"
         style="stop-color: #b800ff; stop-opacity: 1"
         id="stop25" />
    </linearGradient>
    <linearGradient
       id="rainblue"
       x1="0"
       x2="0"
       y1="0"
       y2="1">
      <stop
         offset="0%"
         style="stop-color: #00F260; stop-opacity: 1"
         id="stop28" />
      <stop
         offset="100%"
         style="stop-color: #0575E6; stop-opacity: 1"
         id="stop30" />
    </linearGradient>
    <linearGradient
       id="sunrise"
       x1="0"
       x2="0"
       y1="0"
       y2="1">
      <stop
         offset="0%"
         style="stop-color:  #FF8501; stop-opacity: 1"
         id="stop33" />
      <stop
         offset="100%"
         style="stop-color:  #FFCB01; stop-opacity: 1"
         id="stop35" />
    </linearGradient>
    <linearGradient
       id="telinkrin"
       x1="0"
       x2="0"
       y1="0"
       y2="1">
      <stop
         offset="0%"
         style="stop-color:  #b2ced6; stop-opacity: 1"
         id="stop38" />
      <stop
         offset="100%"
         style="stop-color:  #6da5b7; stop-opacity: 1"
         id="stop40" />
    </linearGradient>
    <linearGradient
       id="60spsycho"
       x1="0"
       x2="0"
       y1="0"
       y2="1">
      <stop
         offset="0%"
         style="stop-color:  #df5940; stop-opacity: 1"
         id="stop43" />
      <stop
         offset="25%"
         style="stop-color:  #d8d15f; stop-opacity: 1"
         id="stop45" />
      <stop
         offset="50%"
         style="stop-color:  #e9882a; stop-opacity: 1"
         id="stop47" />
      <stop
         offset="100%"
         style="stop-color:  #279362; stop-opacity: 1"
         id="stop49" />
    </linearGradient>
    <linearGradient
       id="90ssummer"
       x1="0"
       x2="0"
       y1="0"
       y2="1">
      <stop
         offset="0%"
         style="stop-color:  #f618c7; stop-opacity: 1"
         id="stop52" />
      <stop
         offset="20%"
         style="stop-color:  #94ffab; stop-opacity: 1"
         id="stop54" />
      <stop
         offset="50%"
         style="stop-color:  #fbfd54; stop-opacity: 1"
         id="stop56" />
      <stop
         offset="100%"
         style="stop-color:  #0f83ae; stop-opacity: 1"
         id="stop58" />
    </linearGradient>
  </defs>
  <path
     class="ColorScheme-Text"
     d="M 12.233053,0.5 C 8.5370897,0.54259368 5.8325629,0.41011248 3.6213598,1.6302619 2.5157729,2.2402631 1.6437467,3.2734407 1.160058,4.5620044 0.67633984,5.8505975 0.5002661,7.3807706 0.5002661,9.3125 v 17.625 c 0,1.931729 0.17595625,3.461932 0.6597919,4.750496 0.483718,1.288563 1.3557149,2.32177 2.4613018,2.931742 C 5.8325629,35.839741 8.5371191,35.7072 12.233053,35.75 h 0.01175 23.511455 0.01175 c 3.695933,-0.04259 6.40049,0.08989 8.611693,-1.130262 1.105586,-0.610001 1.977583,-1.643179 2.461302,-2.931742 0.483189,-1.288594 0.659263,-2.818767 0.659263,-4.750496 V 9.3125 c 0,-1.9317294 -0.175957,-3.4619025 -0.659792,-4.7504956 C 46.356785,3.2734407 45.484759,2.2402631 44.379172,1.6302619 42.167969,0.41020058 39.463442,0.54265248 35.767479,0.5 h -0.01175 -23.511455 z m 0.01762,2.9375 h 23.5 c 3.696903,0.043182 6.131061,0.1756625 7.20604,0.7688025 0.538767,0.297275 0.849407,0.6249238 1.13599,1.3884388 0.286201,0.7634856 0.470059,1.9776131 0.470059,3.7177587 v 17.625 c 0,1.740146 -0.183888,2.954302 -0.47047,3.717759 -0.286701,0.763486 -0.597223,1.091192 -1.13599,1.388439 -1.074979,0.59311 -3.509138,0.725591 -7.20604,0.768801 H 12.267476 12.250266 C 8.5533341,32.769319 6.113476,32.636837 5.0384686,32.043698 4.4997017,31.746451 4.1948185,31.418745 3.9082361,30.655259 3.6216241,29.891802 3.4377661,28.677646 3.4377661,26.9375 V 9.3125 c 0,-1.7401456 0.1838874,-2.9543025 0.47047,-3.7177587 C 4.194936,4.8312556 4.4997017,4.5035481 5.0384686,4.2063025 6.113476,3.6131919 8.5533341,3.4807106 12.250266,3.4375 Z"
     id="path63"
     style="fill:url(#oomox);stroke-width:2.93751" />
  <path
     class="ColorScheme-Text"
     d="m 18.125267,35.75 h 11.749999 v 4.40625 c 0,4.40625 1.46875,4.40625 4.406249,4.40625 h 1.468751 V 47.5 h -23.5 v -2.9375 h 1.468751 c 2.937499,0 4.40625,0 4.40625,-4.40625 z"
     id="path65"
     style="fill:url(#oomox);stroke-width:2.93751" />
  <path
     d="m 30.000334,17.124988 v -3.000034 c 0,-3.308437 -2.69163,-6.0000678 -6.000068,-6.0000678 -3.308437,0 -6.000068,2.6916308 -6.000068,6.0000678 v 3.000034 h -1.100012 v 11.000125 h 14.20016 V 17.124988 Z M 19.600216,14.124954 c 0,-2.426228 1.973823,-4.4000503 4.40005,-4.4000503 2.426228,0 4.40005,1.9738223 4.40005,4.4000503 v 3.000034 h -8.8001 z"
     id="path196"
     class="ColorScheme-Text"
     style="fill:url(#oomox);fill-opacity:1;stroke-width:0.200002" />
  <metadata
     id="metadata511">
    <rdf:RDF>
      <cc:Work
         rdf:about="">
        <dc:creator>
          <cc:Agent>
            <dc:title>dreifacherspass</dc:title>
          </cc:Agent>
        </dc:creator>
        <cc:license
           rdf:resource="http://creativecommons.org/licenses/by-sa/4.0/" />
      </cc:Work>
      <cc:License
         rdf:about="http://creativecommons.org/licenses/by-sa/4.0/">
        <cc:permits
           rdf:resource="http://creativecommons.org/ns#Reproduction" />
        <cc:permits
           rdf:resource="http://creativecommons.org/ns#Distribution" />
        <cc:requires
           rdf:resource="http://creativecommons.org/ns#Notice" />
        <cc:requires
           rdf:resource="http://creativecommons.org/ns#Attribution" />
        <cc:permits
           rdf:resource="http://creativecommons.org/ns#DerivativeWorks" />
        <cc:requires
           rdf:resource="http://creativecommons.org/ns#ShareAlike" />
      </cc:License>
    </rdf:RDF>
  </metadata>
</svg>
