<?xml version="1.0" encoding="UTF-8" standalone="no"?>
<svg
   height="48"
   width="48"
   version="1.1"
   id="svg4721"
   xmlns="http://www.w3.org/2000/svg"
   xmlns:svg="http://www.w3.org/2000/svg"
   xmlns:rdf="http://www.w3.org/1999/02/22-rdf-syntax-ns#"
   xmlns:cc="http://creativecommons.org/ns#"
   xmlns:dc="http://purl.org/dc/elements/1.1/">
  <defs
     id="defs4725">
    <style
       id="current-color-scheme"
       type="text/css">
      .ColorScheme-Text { color: #0abdc6; } .ColorScheme-Highlight { color:#5294e2; }
     </style>
    <linearGradient
       id="arrongin"
       x1="0%"
       x2="0%"
       y1="0%"
       y2="100%">
      <stop
         offset="0%"
         style="stop-color:#dd9b44; stop-opacity:1"
         id="stop9192" />
      <stop
         offset="100%"
         style="stop-color:#ad6c16; stop-opacity:1"
         id="stop9194" />
    </linearGradient>
    <linearGradient
       id="aurora"
       x1="0%"
       x2="0%"
       y1="0%"
       y2="100%">
      <stop
         offset="0%"
         style="stop-color:#09D4DF; stop-opacity:1"
         id="stop9197" />
      <stop
         offset="100%"
         style="stop-color:#9269F4; stop-opacity:1"
         id="stop9199" />
    </linearGradient>
    <linearGradient
       id="cyberneon"
       x1="0%"
       x2="0%"
       y1="0%"
       y2="100%">
      <stop
         offset="0"
         style="stop-color:#0abdc6; stop-opacity:1"
         id="stop9202" />
      <stop
         offset="1"
         style="stop-color:#ea00d9; stop-opacity:1"
         id="stop9204" />
    </linearGradient>
    <linearGradient
       id="fitdance"
       x1="0%"
       x2="0%"
       y1="0%"
       y2="100%">
      <stop
         offset="0%"
         style="stop-color:#1AD6AB; stop-opacity:1"
         id="stop9207" />
      <stop
         offset="100%"
         style="stop-color:#329DB6; stop-opacity:1"
         id="stop9209" />
    </linearGradient>
    <linearGradient
       id="oomox"
       x1="0%"
       x2="0%"
       y1="0%"
       y2="100%">
      <stop
         offset="0%"
         style="stop-color:#0abdc6; stop-opacity:1"
         id="stop9212" />
      <stop
         offset="100%"
         style="stop-color:#b800ff; stop-opacity:1"
         id="stop9214" />
    </linearGradient>
    <linearGradient
       id="rainblue"
       x1="0%"
       x2="0%"
       y1="0%"
       y2="100%">
      <stop
         offset="0%"
         style="stop-color:#00F260; stop-opacity:1"
         id="stop9217" />
      <stop
         offset="100%"
         style="stop-color:#0575E6; stop-opacity:1"
         id="stop9219" />
    </linearGradient>
    <linearGradient
       id="sunrise"
       x1="0%"
       x2="0%"
       y1="0%"
       y2="100%">
      <stop
         offset="0%"
         style="stop-color: #FF8501; stop-opacity:1"
         id="stop9222" />
      <stop
         offset="100%"
         style="stop-color: #FFCB01; stop-opacity:1"
         id="stop9224" />
    </linearGradient>
    <linearGradient
       id="telinkrin"
       x1="0%"
       x2="0%"
       y1="0%"
       y2="100%">
      <stop
         offset="0%"
         style="stop-color: #b2ced6; stop-opacity:1"
         id="stop9227" />
      <stop
         offset="100%"
         style="stop-color: #6da5b7; stop-opacity:1"
         id="stop9229" />
    </linearGradient>
    <linearGradient
       id="60spsycho"
       x1="0%"
       x2="0%"
       y1="0%"
       y2="100%">
      <stop
         offset="0%"
         style="stop-color: #df5940; stop-opacity:1"
         id="stop9232" />
      <stop
         offset="25%"
         style="stop-color: #d8d15f; stop-opacity:1"
         id="stop9234" />
      <stop
         offset="50%"
         style="stop-color: #e9882a; stop-opacity:1"
         id="stop9236" />
      <stop
         offset="100%"
         style="stop-color: #279362; stop-opacity:1"
         id="stop9238" />
    </linearGradient>
    <linearGradient
       id="90ssummer"
       x1="0%"
       x2="0%"
       y1="0%"
       y2="100%">
      <stop
         offset="0%"
         style="stop-color: #f618c7; stop-opacity:1"
         id="stop9241" />
      <stop
         offset="20%"
         style="stop-color: #94ffab; stop-opacity:1"
         id="stop9243" />
      <stop
         offset="50%"
         style="stop-color: #fbfd54; stop-opacity:1"
         id="stop9245" />
      <stop
         offset="100%"
         style="stop-color: #0f83ae; stop-opacity:1"
         id="stop9247" />
    </linearGradient>
  </defs>
  <path
     id="path4713-2"
     class="ColorScheme-Text"
     style="display:inline;fill:url(#oomox);fill-opacity:1;stroke-width:2.61111;opacity:0.5"
     d="M 24.000777,0.5 C 16.167451,5.7222168 13.556324,5.7222218 5.723,5.7222218 V 28.518447 c 0,6.328205 9.873226,14.97145 18.277777,18.981553 8.404558,-4.010103 18.277779,-12.653348 18.277779,-18.981553 V 5.7222218 c -7.83333,0 -10.444454,-5e-6 -18.277779,-5.2222218 z m 0,10.444444 a 5.2222222,5.2222222 0 0 1 5.222222,5.222223 v 5.222222 H 31.83411 V 31.833333 H 16.167443 V 21.388889 h 2.611112 v -5.222222 a 5.2222222,5.2222222 0 0 1 5.222222,-5.222223 z m 0,2.611112 a 2.6111111,2.6111111 0 0 0 -2.611111,2.611111 v 5.222222 h 5.222222 v -5.222222 a 2.6111111,2.6111111 0 0 0 -2.611111,-2.611111 z" />
  <path
     id="path4713"
     style="display:inline;fill:url(#oomox);fill-opacity:1;stroke-width:2.61111"
     class="ColorScheme-Text"
     d="M 24 0.5 C 16.166682 5.7222118 13.555973 5.7226563 5.7226562 5.7226562 L 5.7226562 25.908203 C 5.7226563 32.23641 15.59545 40.878568 24 44.888672 C 32.404558 40.878568 42.277344 32.23641 42.277344 25.908203 L 42.277344 5.7226562 C 34.444026 5.7226562 31.833317 5.7222118 24 0.5 z M 24 10.945312 A 5.2222222 5.2222222 0 0 1 29.222656 16.166016 L 29.222656 21.388672 L 31.833984 21.388672 L 31.833984 31.833984 L 16.166016 31.833984 L 16.166016 21.388672 L 18.777344 21.388672 L 18.777344 16.166016 A 5.2222222 5.2222222 0 0 1 24 10.945312 z M 24 13.554688 A 2.6111111 2.6111111 0 0 0 21.388672 16.166016 L 21.388672 21.388672 L 26.611328 21.388672 L 26.611328 16.166016 A 2.6111111 2.6111111 0 0 0 24 13.554688 z M 8.2695312 34.917969 C 8.5859784 35.361504 8.92594 35.805085 9.2890625 36.248047 C 8.9259402 35.805085 8.5859782 35.361504 8.2695312 34.917969 z M 9.2890625 36.248047 C 9.652185 36.691009 10.037146 37.13327 10.441406 37.572266 C 10.037147 37.13327 9.6521848 36.691009 9.2890625 36.248047 z M 10.441406 37.572266 C 10.845666 38.011261 11.269125 38.447269 11.708984 38.878906 C 11.269125 38.447269 10.845666 38.011261 10.441406 37.572266 z M 11.708984 38.878906 C 12.148843 39.310543 12.606252 39.737317 13.076172 40.158203 C 12.606252 39.737318 12.148843 39.310543 11.708984 38.878906 z M 39.730469 34.917969 C 39.414022 35.361504 39.07406 35.805085 38.710938 36.248047 C 39.07406 35.805085 39.414022 35.361504 39.730469 34.917969 z M 38.710938 36.248047 C 38.347815 36.691009 37.962853 37.13327 37.558594 37.572266 C 37.962853 37.13327 38.347815 36.691009 38.710938 36.248047 z M 37.558594 37.572266 C 37.154334 38.011261 36.730874 38.447269 36.291016 38.878906 C 36.730875 38.447269 37.154334 38.011261 37.558594 37.572266 z M 36.291016 38.878906 C 35.851157 39.310543 35.393748 39.737318 34.923828 40.158203 C 35.393748 39.737317 35.851157 39.310543 36.291016 38.878906 z " />
  <metadata
     id="metadata5544">
    <rdf:RDF>
      <cc:Work
         rdf:about="">
        <dc:creator>
          <cc:Agent>
            <dc:title>dreifacherspass</dc:title>
          </cc:Agent>
        </dc:creator>
        <cc:license
           rdf:resource="http://creativecommons.org/licenses/by-sa/4.0/" />
      </cc:Work>
      <cc:License
         rdf:about="http://creativecommons.org/licenses/by-sa/4.0/">
        <cc:permits
           rdf:resource="http://creativecommons.org/ns#Reproduction" />
        <cc:permits
           rdf:resource="http://creativecommons.org/ns#Distribution" />
        <cc:requires
           rdf:resource="http://creativecommons.org/ns#Notice" />
        <cc:requires
           rdf:resource="http://creativecommons.org/ns#Attribution" />
        <cc:permits
           rdf:resource="http://creativecommons.org/ns#DerivativeWorks" />
        <cc:requires
           rdf:resource="http://creativecommons.org/ns#ShareAlike" />
      </cc:License>
    </rdf:RDF>
  </metadata>
</svg>
