<?xml version="1.0" encoding="UTF-8" standalone="no"?>
<!-- Created with Inkscape (http://www.inkscape.org/) -->

<svg
   width="16"
   height="16"
   viewBox="0 0 15.999999 15.999999"
   id="svg7266"
   version="1.1"
   xmlns:xlink="http://www.w3.org/1999/xlink"
   xmlns="http://www.w3.org/2000/svg"
   xmlns:svg="http://www.w3.org/2000/svg"
   xmlns:rdf="http://www.w3.org/1999/02/22-rdf-syntax-ns#"
   xmlns:cc="http://creativecommons.org/ns#"
   xmlns:dc="http://purl.org/dc/elements/1.1/">
  <metadata
     id="metadata7">
    <rdf:RDF>
      <cc:Work
         rdf:about="">
        <dc:format>image/svg+xml</dc:format>
        <dc:type
           rdf:resource="http://purl.org/dc/dcmitype/StillImage" />
        <dc:creator>
          <cc:Agent>
            <dc:title>dreifacherspass</dc:title>
          </cc:Agent>
        </dc:creator>
        <cc:license
           rdf:resource="http://creativecommons.org/licenses/by-sa/4.0/" />
      </cc:Work>
      <cc:License
         rdf:about="http://creativecommons.org/licenses/by-sa/4.0/">
        <cc:permits
           rdf:resource="http://creativecommons.org/ns#Reproduction" />
        <cc:permits
           rdf:resource="http://creativecommons.org/ns#Distribution" />
        <cc:requires
           rdf:resource="http://creativecommons.org/ns#Notice" />
        <cc:requires
           rdf:resource="http://creativecommons.org/ns#Attribution" />
        <cc:permits
           rdf:resource="http://creativecommons.org/ns#DerivativeWorks" />
        <cc:requires
           rdf:resource="http://creativecommons.org/ns#ShareAlike" />
      </cc:License>
    </rdf:RDF>
  </metadata>
  <defs>
     <style id="current-color-scheme" type="text/css">
        .ColorScheme-Text { color: #0abdc6; } .ColorScheme-Highlight { color:#5294e2; }
     </style>
     <linearGradient id="arrongin" x1="0%" x2="0%" y1="0%" y2="100%">
        <stop offset="0%" style="stop-color:#dd9b44; stop-opacity:1"/>
        <stop offset="100%" style="stop-color:#ad6c16; stop-opacity:1"/>
     </linearGradient>
     <linearGradient id="aurora" x1="0%" x2="0%" y1="0%" y2="100%">
        <stop offset="0%" style="stop-color:#09D4DF; stop-opacity:1"/>
        <stop offset="100%" style="stop-color:#9269F4; stop-opacity:1"/>
     </linearGradient>
     <linearGradient id="cyberneon" x1="0%" x2="0%" y1="0%" y2="100%">
        <stop offset="0" style="stop-color:#0abdc6; stop-opacity:1"/>
        <stop offset="1" style="stop-color:#ea00d9; stop-opacity:1"/>
     </linearGradient>
     <linearGradient id="fitdance" x1="0%" x2="0%" y1="0%" y2="100%">
        <stop offset="0%" style="stop-color:#1AD6AB; stop-opacity:1"/>
        <stop offset="100%" style="stop-color:#329DB6; stop-opacity:1"/>
     </linearGradient>
     <linearGradient id="oomox" x1="0%" x2="0%" y1="0%" y2="100%">
        <stop offset="0%" style="stop-color:#0abdc6; stop-opacity:1"/>
        <stop offset="100%" style="stop-color:#b800ff; stop-opacity:1"/>
     </linearGradient>
     <linearGradient id="rainblue" x1="0%" x2="0%" y1="0%" y2="100%">
        <stop offset="0%" style="stop-color:#00F260; stop-opacity:1"/>
        <stop offset="100%" style="stop-color:#0575E6; stop-opacity:1"/>
     </linearGradient>
     <linearGradient id="sunrise" x1="0%" x2="0%" y1="0%" y2="100%">
        <stop offset="0%" style="stop-color: #FF8501; stop-opacity:1"/>
        <stop offset="100%" style="stop-color: #FFCB01; stop-opacity:1"/>
     </linearGradient>
     <linearGradient id="telinkrin" x1="0%" x2="0%" y1="0%" y2="100%">
        <stop offset="0%" style="stop-color: #b2ced6; stop-opacity:1"/>
        <stop offset="100%" style="stop-color: #6da5b7; stop-opacity:1"/>
     </linearGradient>
     <linearGradient id="60spsycho" x1="0%" x2="0%" y1="0%" y2="100%">
        <stop offset="0%" style="stop-color: #df5940; stop-opacity:1"/>
        <stop offset="25%" style="stop-color: #d8d15f; stop-opacity:1"/>
        <stop offset="50%" style="stop-color: #e9882a; stop-opacity:1"/>
        <stop offset="100%" style="stop-color: #279362; stop-opacity:1"/>
     </linearGradient>
     <linearGradient id="90ssummer" x1="0%" x2="0%" y1="0%" y2="100%">
        <stop offset="0%" style="stop-color: #f618c7; stop-opacity:1"/>
        <stop offset="20%" style="stop-color: #94ffab; stop-opacity:1"/>
        <stop offset="50%" style="stop-color: #fbfd54; stop-opacity:1"/>
        <stop offset="100%" style="stop-color: #0f83ae; stop-opacity:1"/>
     </linearGradient>
  </defs>
  <path
     id="path_window_3-1"
     class="ColorScheme-Text"
     style="opacity:0.5;fill:url(#oomox);stroke:none;stroke-width:0.302029"
     d="M 9.8427181,8.2512745e-8 -1.15e-7,2.0742193 V 13.628907 L 9.8427181,11.554688 Z M 9.0410947,0.44531269 c 0.010375,-0.001008 0.02181,0 0.032471,0 0.1705609,0 0.308472,0.13077333 0.308472,0.29492149 0,0.16414815 -0.1379111,0.29687402 -0.308472,0.29687402 -0.1705608,0 -0.3084719,-0.13272587 -0.3084719,-0.29687402 0,-0.15388742 0.1203778,-0.2798015 0.2760009,-0.29492149 z M 9.2278034,2.3710934 V 11.089844 L 0.60679627,12.908202 V 4.1484387 Z" />
  <path
     id="path_window_3"
     class="ColorScheme-Text"
     style="opacity:0.5;fill:url(#oomox);stroke:none;stroke-width:0.302029"
     d="M 9.8427181,8.2512745e-8 -1.15e-7,2.0742193 V 3.4601098 L 9.8427181,1.3858904 Z M 9.0735659,0.44336009 c 0.1705609,0 0.308472,0.13272593 0.308472,0.29687409 0,0.16414815 -0.1379111,0.29687402 -0.308472,0.29687402 -0.1705608,0 -0.3084719,-0.13272587 -0.3084719,-0.29687402 0,-0.16414816 0.1379111,-0.29687409 0.3084719,-0.29687409 z" />
  <path
     id="path_window_2-1"
     class="ColorScheme-Text"
     style="opacity:0.7;fill:url(#oomox);stroke:none;stroke-width:0.302029"
     d="M 12.92136,1.1855466 3.0786385,3.2597659 V 14.814454 L 12.92136,12.740235 Z m -0.799595,0.4453126 c 0.01037,-0.00101 0.01978,0 0.03044,0 0.170554,0 0.308471,0.1307733 0.308471,0.2949214 0,0.1641482 -0.137917,0.2968741 -0.308471,0.2968741 -0.170561,0 -0.308475,-0.1327259 -0.308475,-0.2968741 0,-0.1538874 0.122409,-0.2798014 0.278032,-0.2949214 z m 0.184677,1.9238281 V 12.273438 L 3.6854379,14.091796 V 5.3339852 Z" />
  <path
     id="path_window_2"
     class="ColorScheme-Text"
     style="opacity:0.7;fill:url(#oomox);stroke:none;stroke-width:0.302029"
     d="M 12.92136,1.1855466 3.0786385,3.2597659 V 4.6451081 L 12.92136,2.5708888 Z m -0.769152,0.4433599 c 0.170557,0 0.308471,0.132726 0.308471,0.2968741 0,0.1641482 -0.137914,0.2968741 -0.308471,0.2968741 -0.170561,0 -0.308475,-0.1327259 -0.308475,-0.2968741 0,-0.1641481 0.137914,-0.2968741 0.308475,-0.2968741 z" />
  <path
     id="path_window_1-1"
     class="ColorScheme-Text"
     style="opacity:1;fill:url(#oomox);stroke:none;stroke-width:0.302029"
     d="M 16,2.371093 6.1593102,4.4453123 V 16 L 16,13.925782 Z m -0.78539,0.4433601 c 0.0053,-2.549e-4 0.0109,0 0.01624,0 0.170561,0 0.308472,0.1327259 0.308472,0.2968741 0,0.1641481 -0.137911,0.296877 -0.308472,0.296877 -0.170561,0 -0.306443,-0.1327289 -0.306443,-0.296877 0,-0.1590163 0.127087,-0.2889689 0.290206,-0.2968741 z m 0.170472,1.9257808 V 13.458984 L 6.7640777,15.277343 V 6.517579 Z" />
  <path
     id="path_window_1"
     class="ColorScheme-Text"
     style="opacity:1;fill:url(#oomox);stroke:none;stroke-width:0.302029"
     d="M 16,2.371093 6.1593102,4.4453123 V 5.8291109 L 16,3.7548916 Z m -0.78539,0.4433601 c 0.0053,-2.549e-4 0.0109,0 0.01623,0 0.170561,0 0.308472,0.1327259 0.308472,0.2968741 0,0.1641481 -0.137911,0.2973215 -0.308472,0.2973215 -0.170561,0 -0.308475,-0.1331734 -0.308475,-0.2973215 0,-0.1590163 0.129118,-0.2889689 0.292238,-0.2968741 z" />
</svg>
