<?xml version="1.0" encoding="UTF-8" standalone="no"?>
<svg
   width="16"
   height="16"
   version="1.1"
   id="svg10"
   xmlns:xlink="http://www.w3.org/1999/xlink"
   xmlns="http://www.w3.org/2000/svg"
   xmlns:svg="http://www.w3.org/2000/svg"
   xmlns:rdf="http://www.w3.org/1999/02/22-rdf-syntax-ns#"
   xmlns:cc="http://creativecommons.org/ns#"
   xmlns:dc="http://purl.org/dc/elements/1.1/">
 <defs>
   <style id="current-color-scheme" type="text/css">
   .ColorScheme-Text { color: #0abdc6; } .ColorScheme-Highlight { color:#5294e2; }
  </style>
  <linearGradient id="arrongin" x1="0%" x2="0%" y1="0%" y2="100%">
   <stop offset="0%" style="stop-color:#dd9b44; stop-opacity:1"/>
   <stop offset="100%" style="stop-color:#ad6c16; stop-opacity:1"/>
  </linearGradient>
  <linearGradient id="aurora" x1="0%" x2="0%" y1="0%" y2="100%">
   <stop offset="0%" style="stop-color:#09D4DF; stop-opacity:1"/>
   <stop offset="100%" style="stop-color:#9269F4; stop-opacity:1"/>
  </linearGradient>
  <linearGradient id="cyberneon" x1="0%" x2="0%" y1="0%" y2="100%">
    <stop offset="0" style="stop-color:#0abdc6; stop-opacity:1"/>
    <stop offset="1" style="stop-color:#ea00d9; stop-opacity:1"/>
  </linearGradient>
  <linearGradient id="fitdance" x1="0%" x2="0%" y1="0%" y2="100%">
   <stop offset="0%" style="stop-color:#1AD6AB; stop-opacity:1"/>
   <stop offset="100%" style="stop-color:#329DB6; stop-opacity:1"/>
  </linearGradient>
  <linearGradient id="oomox" x1="0%" x2="0%" y1="0%" y2="100%">
   <stop offset="0%" style="stop-color:#0abdc6; stop-opacity:1"/>
   <stop offset="100%" style="stop-color:#b800ff; stop-opacity:1"/>
  </linearGradient>
  <linearGradient id="rainblue" x1="0%" x2="0%" y1="0%" y2="100%">
   <stop offset="0%" style="stop-color:#00F260; stop-opacity:1"/>
   <stop offset="100%" style="stop-color:#0575E6; stop-opacity:1"/>
  </linearGradient>
  <linearGradient id="sunrise" x1="0%" x2="0%" y1="0%" y2="100%">
   <stop offset="0%" style="stop-color: #FF8501; stop-opacity:1"/>
   <stop offset="100%" style="stop-color: #FFCB01; stop-opacity:1"/>
  </linearGradient>
  <linearGradient id="telinkrin" x1="0%" x2="0%" y1="0%" y2="100%">
   <stop offset="0%" style="stop-color: #b2ced6; stop-opacity:1"/>
   <stop offset="100%" style="stop-color: #6da5b7; stop-opacity:1"/>
  </linearGradient>
  <linearGradient id="60spsycho" x1="0%" x2="0%" y1="0%" y2="100%">
   <stop offset="0%" style="stop-color: #df5940; stop-opacity:1"/>
   <stop offset="25%" style="stop-color: #d8d15f; stop-opacity:1"/>
   <stop offset="50%" style="stop-color: #e9882a; stop-opacity:1"/>
   <stop offset="100%" style="stop-color: #279362; stop-opacity:1"/>
  </linearGradient>
  <linearGradient id="90ssummer" x1="0%" x2="0%" y1="0%" y2="100%">
   <stop offset="0%" style="stop-color: #f618c7; stop-opacity:1"/>
   <stop offset="20%" style="stop-color: #94ffab; stop-opacity:1"/>
   <stop offset="50%" style="stop-color: #fbfd54; stop-opacity:1"/>
   <stop offset="100%" style="stop-color: #0f83ae; stop-opacity:1"/>
  </linearGradient>
 </defs>
  <path
     d="M 7.9990583,15.999965 A 7.9783402,8.0716048 0 0 1 0,7.9702811 a 8.0009417,8.0944705 0 0 1 16,0 7.9783402,8.0716048 0 0 1 -8.0009417,8.0296839 z m 0,-14.9903949 a 6.9198352,7.0007261 0 0 0 -6.9443202,6.960711 6.9462036,7.0274028 0 0 0 13.8905239,0 6.9217187,7.0026317 0 0 0 -6.9462037,-6.960711 z"
     id="path1"
     class="ColorScheme-Text"
     style="stroke-width:0.189444;fill:url(#oomox)" />
  <path
     d="m 8.8937022,9.3898622 a 33.482284,33.873683 0 0 0 1.6461448,3.6070698 0.82495586,0.83459936 0 0 0 1.192231,0.282011 6.49794,6.5738991 0 0 0 1.664979,-1.714931 A 0.80988817,0.81935554 0 0 0 12.948793,10.327357 33.286404,33.675513 0 0 1 9.3419659,8.9573187 0.33525603,0.33917508 0 0 0 8.8937022,9.3898622 Z"
     id="path2"
     class="ColorScheme-Text"
     style="stroke-width:0.189444;fill:url(#oomox)" />
  <path
     d="m 9.5397293,8.3761479 a 31.958564,32.332151 0 0 0 3.7914067,1.4119592 0.82683932,0.83650484 0 0 0 1.03967,-0.649768 6.4828723,6.5586553 0 0 0 0.103591,-1.168058 6.3679812,6.4424211 0 0 0 -0.126192,-1.2804812 0.8230724,0.83269389 0 0 0 -1.188464,-0.5716434 36.222719,36.646153 0 0 1 -3.6105944,1.6349001 0.33148911,0.33536413 0 0 0 -0.00942,0.6230913 z"
     id="path3"
     class="ColorScheme-Text"
     style="stroke-width:0.189444;fill:url(#oomox)" />
  <path
     d="m 8.300412,9.5518279 a 0.33525603,0.33917508 0 0 0 -0.6196586,0 31.178811,31.543283 0 0 0 -1.4050618,3.7899951 0.81553855,0.82507197 0 0 0 0.6535609,1.044203 6.6844026,6.7625414 0 0 0 1.0698058,0.08765 A 6.4866392,6.5624662 0 0 0 9.3419659,14.323145 0.81365509,0.82316649 0 0 0 9.9070041,13.132221 35.377045,35.790593 0 0 1 8.300412,9.5518279 Z"
     id="path4"
     class="ColorScheme-Text"
     style="stroke-width:0.189444;fill:url(#oomox)" />
  <path
     d="M 7.7579753,6.4420878 A 0.33525603,0.33917508 0 0 0 8.3776339,6.4516152 30.869923,31.230784 0 0 0 9.7939965,2.6196989 0.81742201,0.82697745 0 0 0 9.1536198,1.5774025 6.6203649,6.6977551 0 0 0 6.6938199,1.6097957 0.81365509,0.82316649 0 0 0 6.1287816,2.8026248 35.486286,35.901111 0 0 1 7.7579753,6.4420878 Z"
     id="path5"
     class="ColorScheme-Text"
     style="stroke-width:0.189444;fill:url(#oomox)" />
  <path
     d="M 2.9984697,5.7141952 A 33.18658,33.574522 0 0 1 6.7653914,7.1394927 0.33525603,0.33917508 0 0 0 7.2117716,6.7050438 34.037905,34.435799 0 0 0 5.4921719,2.9245754 0.82495586,0.83459936 0 0 0 4.2999411,2.6444702 6.4546204,6.5300731 0 0 0 2.5445556,4.4832564 0.81177163,0.82126101 0 0 0 2.9984697,5.7141952 Z"
     id="path6"
     class="ColorScheme-Text"
     style="stroke-width:0.189444;fill:url(#oomox)" />
  <path
     d="M 7.1138317,9.3117376 A 0.33337257,0.3372696 0 0 0 6.6825191,8.8658558 34.224367,34.62444 0 0 0 3.007887,10.546487 0.80988817,0.81935554 0 0 0 2.7329017,11.754561 6.4715715,6.5472224 0 0 0 4.5071218,13.446625 0.82118893,0.8307884 0 0 0 5.7313714,12.993121 32.981283,33.366825 0 0 1 7.1138317,9.3117376 Z"
     id="path7"
     class="ColorScheme-Text"
     style="stroke-width:0.189444;fill:url(#oomox)" />
  <path
     d="M 8.925721,6.722193 A 0.33525603,0.33917508 0 0 0 9.358917,7.1699803 34.375044,34.776879 0 0 0 13.0505,5.4779159 0.80988817,0.81935554 0 0 0 13.333019,4.2869921 6.4791054,6.5548443 0 0 0 11.560683,2.5453853 0.82118893,0.8307884 0 0 0 10.328899,2.9893617 32.868275,33.252496 0 0 1 8.925721,6.722193 Z"
     id="path8"
     class="ColorScheme-Text"
     style="stroke-width:0.189444;fill:url(#oomox)" />
  <path
     d="M 6.4583873,7.6768375 A 31.589406,31.958677 0 0 0 2.6500294,6.2591619 0.82118893,0.8307884 0 0 0 1.6197763,6.9146463 6.3434962,6.4176499 0 0 0 1.5350206,7.9702811 6.4037669,6.4786252 0 0 0 1.6875809,9.3803348 0.82118893,0.8307884 0 0 0 2.8703943,9.9214906 35.633196,36.049738 0 0 1 6.44897,8.2980233 0.33148911,0.33536413 0 0 0 6.4583873,7.6768375 Z"
     id="path9"
     class="ColorScheme-Text"
     style="stroke-width:0.189444;fill:url(#oomox)" />
  <metadata
     id="metadata10">
    <rdf:RDF>
      <cc:Work
         rdf:about="">
        <dc:creator>
          <cc:Agent>
            <dc:title>dreifacherspass</dc:title>
          </cc:Agent>
        </dc:creator>
        <cc:license
           rdf:resource="http://creativecommons.org/licenses/by-sa/4.0/" />
      </cc:Work>
      <cc:License
         rdf:about="http://creativecommons.org/licenses/by-sa/4.0/">
        <cc:permits
           rdf:resource="http://creativecommons.org/ns#Reproduction" />
        <cc:permits
           rdf:resource="http://creativecommons.org/ns#Distribution" />
        <cc:requires
           rdf:resource="http://creativecommons.org/ns#Notice" />
        <cc:requires
           rdf:resource="http://creativecommons.org/ns#Attribution" />
        <cc:permits
           rdf:resource="http://creativecommons.org/ns#DerivativeWorks" />
        <cc:requires
           rdf:resource="http://creativecommons.org/ns#ShareAlike" />
      </cc:License>
    </rdf:RDF>
  </metadata>
</svg>
