<?xml version="1.0" encoding="UTF-8" standalone="no"?>
<svg
   width="16"
   height="16"
   version="1.1"
   id="svg6"
   xmlns:xlink="http://www.w3.org/1999/xlink"
   xmlns="http://www.w3.org/2000/svg"
   xmlns:svg="http://www.w3.org/2000/svg"
   xmlns:rdf="http://www.w3.org/1999/02/22-rdf-syntax-ns#"
   xmlns:cc="http://creativecommons.org/ns#"
   xmlns:dc="http://purl.org/dc/elements/1.1/">
   <defs>
   <style id="current-color-scheme" type="text/css">
   .ColorScheme-Text { color: #0abdc6; } .ColorScheme-Highlight { color:#5294e2; }
  </style>
  <linearGradient id="arrongin" x1="0%" x2="0%" y1="0%" y2="100%">
   <stop offset="0%" style="stop-color:#dd9b44; stop-opacity:1"/>
   <stop offset="100%" style="stop-color:#ad6c16; stop-opacity:1"/>
  </linearGradient>
  <linearGradient id="aurora" x1="0%" x2="0%" y1="0%" y2="100%">
   <stop offset="0%" style="stop-color:#09D4DF; stop-opacity:1"/>
   <stop offset="100%" style="stop-color:#9269F4; stop-opacity:1"/>
  </linearGradient>
  <linearGradient id="cyberneon" x1="0%" x2="0%" y1="0%" y2="100%">
    <stop offset="0" style="stop-color:#0abdc6; stop-opacity:1"/>
    <stop offset="1" style="stop-color:#ea00d9; stop-opacity:1"/>
  </linearGradient>
  <linearGradient id="fitdance" x1="0%" x2="0%" y1="0%" y2="100%">
   <stop offset="0%" style="stop-color:#1AD6AB; stop-opacity:1"/>
   <stop offset="100%" style="stop-color:#329DB6; stop-opacity:1"/>
  </linearGradient>
  <linearGradient id="oomox" x1="0%" x2="0%" y1="0%" y2="100%">
   <stop offset="0%" style="stop-color:#0abdc6; stop-opacity:1"/>
   <stop offset="100%" style="stop-color:#b800ff; stop-opacity:1"/>
  </linearGradient>
  <linearGradient id="rainblue" x1="0%" x2="0%" y1="0%" y2="100%">
   <stop offset="0%" style="stop-color:#00F260; stop-opacity:1"/>
   <stop offset="100%" style="stop-color:#0575E6; stop-opacity:1"/>
  </linearGradient>
  <linearGradient id="sunrise" x1="0%" x2="0%" y1="0%" y2="100%">
   <stop offset="0%" style="stop-color: #FF8501; stop-opacity:1"/>
   <stop offset="100%" style="stop-color: #FFCB01; stop-opacity:1"/>
  </linearGradient>
  <linearGradient id="telinkrin" x1="0%" x2="0%" y1="0%" y2="100%">
   <stop offset="0%" style="stop-color: #b2ced6; stop-opacity:1"/>
   <stop offset="100%" style="stop-color: #6da5b7; stop-opacity:1"/>
  </linearGradient>
  <linearGradient id="60spsycho" x1="0%" x2="0%" y1="0%" y2="100%">
   <stop offset="0%" style="stop-color: #df5940; stop-opacity:1"/>
   <stop offset="25%" style="stop-color: #d8d15f; stop-opacity:1"/>
   <stop offset="50%" style="stop-color: #e9882a; stop-opacity:1"/>
   <stop offset="100%" style="stop-color: #279362; stop-opacity:1"/>
  </linearGradient>
  <linearGradient id="90ssummer" x1="0%" x2="0%" y1="0%" y2="100%">
   <stop offset="0%" style="stop-color: #f618c7; stop-opacity:1"/>
   <stop offset="20%" style="stop-color: #94ffab; stop-opacity:1"/>
   <stop offset="50%" style="stop-color: #fbfd54; stop-opacity:1"/>
   <stop offset="100%" style="stop-color: #0f83ae; stop-opacity:1"/>
  </linearGradient>
 </defs>
  <path
     id="path2"
     class="ColorScheme-Text"
     style="opacity:1;fill:url(#oomox);stroke-width:0.571489"
     d="M 0.24025915,3.2765239 5.8736653,13.312738 c 0.024752,0.04855 0.055758,0.09068 0.089853,0.126966 0.2335314,0.248508 0.6568637,0.212651 0.8829055,-0.06446 L 7.4285167,12.550939 11.702405,5.9447738 C 11.911946,5.6365178 11.913058,5.2731336 11.759051,4.9935016 11.62741,4.7548321 11.383848,4.5773833 11.055853,4.5481422 L 0.30471906,3.3409838 Z" />
  <path
     id="path4"
     class="ColorScheme-Text"
     style="opacity:0.8;fill:url(#oomox);stroke-width:0.571489"
     d="m 15.76338,3.0811907 c 0.01159,0.019452 0.02437,0.03873 0.03516,0.0586 -0.0063,-0.011567 -0.01102,-0.023733 -0.01758,-0.03516 -0.0049,-0.00846 -0.01218,-0.015367 -0.01758,-0.02344 z m 0.05274,0.09376 -4.057069,1.818551 c 0.154007,0.2796326 0.152895,0.6430156 -0.05665,0.9512722 L 7.4285167,12.550939 6.846424,13.375244 c -0.2590447,0.317569 -0.7784749,0.318579 -0.9727587,-0.06251 l 0.5840459,1.015732 c 0.1295227,0.19054 0.2591908,0.318332 0.3887128,0.44536 0.7123738,0.571622 1.8783458,0.50829 2.4611969,-0.3809 L 15.718454,4.8020753 c 0.362178,-0.5166552 0.352879,-1.130476 0.09767,-1.6271247 z" />
  <path
     style="opacity:0.5;fill:url(#oomox);stroke-width:0.571489"
     d="M 1.6087382,0.85780503 C 0.38402801,0.91083919 -0.42770199,2.2049899 0.24014908,3.276783 L 0.30465778,3.341289 11.056048,4.5470565 c 0.327997,0.029241 0.571624,0.2079108 0.703267,0.4465809 L 15.818282,3.1725807 C 15.571411,2.692683 15.092248,2.3232294 14.487639,2.2608119 L 1.8591818,0.86400775 c -0.084999,-0.007939 -0.1687965,-0.009737 -0.2504436,-0.006225 z"
     id="path5"
     class="ColorScheme-Text"/>
  <metadata
     id="metadata6">
    <rdf:RDF>
      <cc:Work
         rdf:about="">
        <dc:creator>
          <cc:Agent>
            <dc:title>dreifacherspass</dc:title>
          </cc:Agent>
        </dc:creator>
        <cc:license
           rdf:resource="http://creativecommons.org/licenses/by-sa/4.0/" />
      </cc:Work>
      <cc:License
         rdf:about="http://creativecommons.org/licenses/by-sa/4.0/">
        <cc:permits
           rdf:resource="http://creativecommons.org/ns#Reproduction" />
        <cc:permits
           rdf:resource="http://creativecommons.org/ns#Distribution" />
        <cc:requires
           rdf:resource="http://creativecommons.org/ns#Notice" />
        <cc:requires
           rdf:resource="http://creativecommons.org/ns#Attribution" />
        <cc:permits
           rdf:resource="http://creativecommons.org/ns#DerivativeWorks" />
        <cc:requires
           rdf:resource="http://creativecommons.org/ns#ShareAlike" />
      </cc:License>
    </rdf:RDF>
  </metadata>
</svg>
