<?xml version="1.0" encoding="UTF-8" standalone="no"?>
<svg
   width="48"
   height="48"
   version="1"
   id="svg275"
   xmlns="http://www.w3.org/2000/svg"
   xmlns:svg="http://www.w3.org/2000/svg">
  <defs
     id="defs279">
    <style id="current-color-scheme" type="text/css">
   .ColorScheme-Text { color: #0abdc6; } .ColorScheme-Highlight { color:#5294e2; }
  </style>
  <linearGradient id="arrongin" x1="0%" x2="0%" y1="0%" y2="100%">
   <stop offset="0%" style="stop-color:#dd9b44; stop-opacity:1"/>
   <stop offset="100%" style="stop-color:#ad6c16; stop-opacity:1"/>
  </linearGradient>
  <linearGradient id="aurora" x1="0%" x2="0%" y1="0%" y2="100%">
   <stop offset="0%" style="stop-color:#09D4DF; stop-opacity:1"/>
   <stop offset="100%" style="stop-color:#9269F4; stop-opacity:1"/>
  </linearGradient>
  <linearGradient id="cyberneon" x1="0%" x2="0%" y1="0%" y2="100%">
    <stop offset="0" style="stop-color:#0abdc6; stop-opacity:1"/>
    <stop offset="1" style="stop-color:#ea00d9; stop-opacity:1"/>
  </linearGradient>
  <linearGradient id="fitdance" x1="0%" x2="0%" y1="0%" y2="100%">
   <stop offset="0%" style="stop-color:#1AD6AB; stop-opacity:1"/>
   <stop offset="100%" style="stop-color:#329DB6; stop-opacity:1"/>
  </linearGradient>
  <linearGradient id="oomox" x1="0%" x2="0%" y1="0%" y2="100%">
   <stop offset="0%" style="stop-color:#0abdc6; stop-opacity:1"/>
   <stop offset="100%" style="stop-color:#b800ff; stop-opacity:1"/>
  </linearGradient>
  <linearGradient id="rainblue" x1="0%" x2="0%" y1="0%" y2="100%">
   <stop offset="0%" style="stop-color:#00F260; stop-opacity:1"/>
   <stop offset="100%" style="stop-color:#0575E6; stop-opacity:1"/>
  </linearGradient>
  <linearGradient id="sunrise" x1="0%" x2="0%" y1="0%" y2="100%">
   <stop offset="0%" style="stop-color: #FF8501; stop-opacity:1"/>
   <stop offset="100%" style="stop-color: #FFCB01; stop-opacity:1"/>
  </linearGradient>
  <linearGradient id="telinkrin" x1="0%" x2="0%" y1="0%" y2="100%">
   <stop offset="0%" style="stop-color: #b2ced6; stop-opacity:1"/>
   <stop offset="100%" style="stop-color: #6da5b7; stop-opacity:1"/>
  </linearGradient>
  <linearGradient id="60spsycho" x1="0%" x2="0%" y1="0%" y2="100%">
   <stop offset="0%" style="stop-color: #df5940; stop-opacity:1"/>
   <stop offset="25%" style="stop-color: #d8d15f; stop-opacity:1"/>
   <stop offset="50%" style="stop-color: #e9882a; stop-opacity:1"/>
   <stop offset="100%" style="stop-color: #279362; stop-opacity:1"/>
  </linearGradient>
  <linearGradient id="90ssummer" x1="0%" x2="0%" y1="0%" y2="100%">
   <stop offset="0%" style="stop-color: #f618c7; stop-opacity:1"/>
   <stop offset="20%" style="stop-color: #94ffab; stop-opacity:1"/>
   <stop offset="50%" style="stop-color: #fbfd54; stop-opacity:1"/>
   <stop offset="100%" style="stop-color: #0f83ae; stop-opacity:1"/>
  </linearGradient>
  </defs>
  <path
     id="circle257"
     style="display:inline;opacity:1;fill:url(#oomox);fill-opacity:1;stroke-width:1.175"
     class="ColorScheme-Text"
     d="m 24,0.5 c -3.730082,0.0181537 -7.402262,0.9239803 -10.712891,2.6425781 1.54613,0.4690052 3.06937,1.5403765 4.201172,3.125 0.598121,0.8374394 1.081671,1.7287032 1.398438,2.5996094 0.308643,0.8485794 0.45828,1.6751095 0.40039,2.4003905 -0.06075,0.761277 -0.362098,1.409896 -0.96875,1.845703 -1.063106,0.763616 -2.552012,0.293705 -4.259765,-0.24414 C 11.397392,12.030961 8.2106234,11.440039 4.9394531,14.042969 3.9667076,14.817001 2.7708025,15.386337 1.796875,16.455078 0.9550854,18.882259 0.51698174,21.431046 0.5,24 0.5,36.978692 11.021308,47.5 24,47.5 36.978692,47.5 47.5,36.978692 47.5,24 47.49812,20.067888 46.509602,16.199103 44.625,12.748047 44.235969,13.084457 43.773975,13.316614 43.232422,13.400391 41.759148,13.62833 41.725264,12.239132 40.537109,10.3125 39.404465,8.4786564 38.043702,6.2120336 36.224609,4.765625 34.618496,3.4885633 33.05769,2.5457423 31.873047,1.875 c 0.01105,-0.00148 0.0221,-0.00237 0.0332,-0.00391 C 29.368928,0.96417329 26.694533,0.50038229 24,0.5 Z m 13.511719,12.925781 c 2.270738,0 4.113281,1.8406 4.113281,4.111328 0,2.270701 -1.842543,4.113282 -4.113281,4.113282 -2.270741,0 -4.111328,-1.842581 -4.111328,-4.113282 0,-2.270745 1.840587,-4.111328 4.111328,-4.111328 z M 12.25,15.775391 c 4.541432,0 8.224609,3.682724 8.224609,8.224609 0,4.541889 -3.683177,8.224609 -8.224609,8.224609 -4.5414355,0 -8.2246094,-3.68272 -8.2246094,-8.224609 0,-4.541885 3.6831739,-8.224609 8.2246094,-8.224609 z m 2.349609,4.699218 c -1.945857,0 -3.52539,1.579603 -3.52539,3.525391 0,1.945807 1.579533,3.525391 3.52539,3.525391 1.945857,0 3.525391,-1.579584 3.525391,-3.525391 0,-1.945788 -1.579534,-3.525373 -3.525391,-3.525391 z M 35.191406,24 c 0.486036,0 0.88086,0.387218 0.88086,0.865234 0,0.158359 -0.04555,0.307803 -0.121094,0.435547 l -3.904297,7.466797 c 0.160036,0.185863 0.335881,0.358175 0.525391,0.519531 0.918872,0.782347 2.160153,1.257813 3.527343,1.257813 1.424423,0 2.710917,-0.51554 3.636719,-1.351563 0.908609,-0.820483 1.46875,-1.951837 1.46875,-3.195312 0,-0.08579 6.37e-4,-0.153493 -0.002,-0.210938 -9.4e-4,-0.01209 -0.0055,-0.02294 -0.0059,-0.03516 -1.72e-4,-0.0067 0,-0.01466 0,-0.02148 0,-0.432866 0.358703,-0.785156 0.798828,-0.785157 0.440124,0 0.796875,0.352291 0.796875,0.785157 0,0.0049 9.3e-5,0.0087 0,0.01367 0.0048,0.09541 0.0078,0.181937 0.0078,0.253906 0,1.700004 -0.760277,3.238757 -1.988281,4.347656 -1.21079,1.093357 -2.877667,1.769531 -4.712891,1.769531 -1.706001,0 -3.270774,-0.586331 -4.458984,-1.554687 -0.291861,1.136236 -0.932665,2.148862 -1.8125,2.943359 -1.210788,1.093378 -2.877665,1.771485 -4.712891,1.771485 -1.144498,0 -2.255954,-0.269826 -3.234375,-0.761719 -0.975564,-0.490442 -1.814506,-1.201319 -2.425781,-2.082031 -0.0976,-0.130095 -0.154297,-0.288897 -0.154297,-0.462891 0,-0.432866 0.354802,-0.785156 0.794922,-0.785156 0.274912,0 0.518648,0.137262 0.662109,0.345703 0.0067,0.0096 0.0133,0.01931 0.01953,0.0293 0.461611,0.66149 1.094994,1.195875 1.828125,1.564453 0.750326,0.377203 1.611344,0.582031 2.509765,0.582031 1.424405,0 2.708982,-0.515543 3.634766,-1.351562 0.908609,-0.820482 1.470703,-1.951839 1.470703,-3.195313 v -0.0293 l -7.285156,-4.042968 c -0.002,-9.12e-4 -0.0058,-0.0011 -0.0078,-0.002 -0.315454,-0.131463 -0.535156,-0.438356 -0.535156,-0.796875 0,-0.376799 0.24459,-0.695524 0.585938,-0.814453 l 0.002,-0.002 0.0078,-0.0039 0.002,-0.002 c 0.02247,-0.0074 0.04512,-0.01194 0.06836,-0.01758 L 34.894531,24.052734 C 34.987505,24.019881 35.086972,24 35.191406,24 Z" />
  <path
     id="path263"
     style="display:inline;opacity:0.2;fill-rule:evenodd;stroke-width:1.175"
     d="M 33.587891 2.9042969 C 33.135117 2.9256526 32.701803 2.9527959 32.306641 2.9863281 L 32.298828 2.9882812 C 32.16171 3.0069322 32.015256 3.0317984 31.873047 3.0507812 C 33.057688 3.7215232 34.618499 4.6643456 36.224609 5.9414062 C 38.043701 7.3878133 39.404467 9.6544411 40.537109 11.488281 C 41.725264 13.41491 41.757196 14.804113 43.230469 14.576172 C 43.898183 14.472878 44.449634 14.146836 44.886719 13.673828 C 45.52947 12.978268 45.941486 11.963683 46.154297 10.857422 C 46.309426 10.051026 46.352616 9.2027134 46.300781 8.3867188 C 46.277891 8.8233235 46.237717 9.2601073 46.15625 9.6835938 C 45.943438 10.789856 45.529472 11.802486 44.886719 12.498047 C 44.449635 12.971055 43.900137 13.297097 43.232422 13.400391 C 41.759148 13.62833 41.725264 12.239132 40.537109 10.3125 C 39.404465 8.4786564 38.043702 6.2120336 36.224609 4.765625 C 35.307256 4.0362142 34.414288 3.4272516 33.587891 2.9042969 z M 19.251953 11.519531 C 19.149195 12.171325 18.850764 12.726602 18.3125 13.113281 C 17.249395 13.876896 15.760487 13.406985 14.052734 12.869141 C 11.391536 12.030961 8.2047615 11.440041 4.9335938 14.042969 C 3.9527256 14.823465 2.743899 15.394323 1.765625 16.480469 C 1.758735 16.383139 1.7479875 16.266401 1.7421875 16.175781 C 1.7414875 16.169411 1.7408494 16.16255 1.7402344 16.15625 C 1.7095178 15.82951 1.6941373 15.49041 1.6835938 15.146484 C 1.6677231 15.906922 1.6812002 16.641743 1.7460938 17.332031 C 1.7467083 17.338331 1.7474269 17.345194 1.7480469 17.351562 C 1.7538869 17.442182 1.7645974 17.556967 1.7714844 17.654297 C 2.7497593 16.568151 3.960536 15.999247 4.9414062 15.21875 C 8.2125768 12.615822 11.397393 13.206744 14.058594 14.044922 C 15.766347 14.582767 17.257208 15.054633 18.320312 14.291016 C 18.926964 13.855208 19.228319 13.204639 19.289062 12.443359 C 19.312369 12.151358 19.292993 11.839206 19.251953 11.519531 z " />
  <path
     style="display:inline;fill:url(#oomox);fill-opacity:1;fill-rule:evenodd;stroke-width:1.175;opacity:0.5"
     d="m 35.991687,1.6750595 c -0.160876,-3.832e-4 -0.320443,0.00115 -0.478774,0.0022 -1.179374,0.00777 -2.28083,0.055855 -3.204792,0.1342591 l -0.0092,0.0022 c -0.137118,0.018651 -0.283876,0.042652 -0.426085,0.061636 1.184644,0.6707432 2.746358,1.6137021 4.352473,2.8907653 1.819094,1.44641 3.178589,3.7125952 4.311235,5.5464401 1.188156,1.926634 1.222485,3.315898 2.69576,3.087958 0.667716,-0.103294 1.216855,-0.429389 1.653939,-0.902398 0.642754,-0.695562 1.056278,-1.708775 1.26909,-2.8150381 0.218712,-1.1369183 0.220505,-2.3620745 0.03665,-3.4555191 C 45.991084,5.0324783 45.577659,4.0193527 44.993951,3.5071591 43.888405,2.759176 42.186561,1.9910468 39.450757,1.7983137 38.29965,1.7172067 37.117758,1.6778654 35.991687,1.6750595 Z"
     id="path265"
     class="ColorScheme-Text" />
  <path
     id="path265-0"
     style="display:inline;fill:url(#oomox);fill-opacity:1;fill-rule:evenodd;stroke-width:1.175;opacity:0.5"
     class="ColorScheme-Text"
     d="M 11.011719 2.8496094 C 9.6229256 2.8431094 8.3533555 3.0577368 7.2597656 3.3671875 C 5.0875898 3.9818459 3.670805 4.9192914 3.4257812 5.2363281 C 3.3897813 5.2832681 3.3447457 5.3226399 3.2929688 5.3574219 C 2.5520395 5.8577944 2.1669563 7.4927498 1.9921875 9.4550781 C 1.7803877 11.833167 1.5590219 14.166315 1.7460938 16.15625 C 1.7467087 16.16255 1.7474469 16.169411 1.7480469 16.175781 C 1.7538469 16.266401 1.7645944 16.383139 1.7714844 16.480469 C 2.7497604 15.394321 3.9585821 14.823467 4.9394531 14.042969 C 8.2106269 11.440037 11.39739 12.030961 14.058594 12.869141 C 15.766349 13.406987 17.255252 13.876898 18.318359 13.113281 C 18.925011 12.677473 19.226363 12.028856 19.287109 11.267578 C 19.344999 10.542296 19.195363 9.7157679 18.886719 8.8671875 C 18.569952 7.9962804 18.086402 7.1050183 17.488281 6.2675781 C 16.039853 4.2396502 13.951123 3.0478768 11.992188 2.890625 C 11.659904 2.863955 11.332208 2.8510894 11.011719 2.8496094 z " />
</svg>
