<?xml version="1.0" encoding="UTF-8" standalone="no"?>
<!-- Created with Inkscape (http://www.inkscape.org/) -->

<svg
   version="1.1"
   width="16"
   height="16"
   id="svg2"
   xmlns="http://www.w3.org/2000/svg"
   xmlns:svg="http://www.w3.org/2000/svg"
   xmlns:rdf="http://www.w3.org/1999/02/22-rdf-syntax-ns#"
   xmlns:cc="http://creativecommons.org/ns#"
   xmlns:dc="http://purl.org/dc/elements/1.1/">
  <defs>
   <style id="current-color-scheme" type="text/css">
   .ColorScheme-Text { color: #0abdc6; } .ColorScheme-Highlight { color:#5294e2; }
  </style>
  <linearGradient id="arrongin" x1="0%" x2="0%" y1="0%" y2="100%">
   <stop offset="0%" style="stop-color:#dd9b44; stop-opacity:1"/>
   <stop offset="100%" style="stop-color:#ad6c16; stop-opacity:1"/>
  </linearGradient>
  <linearGradient id="aurora" x1="0%" x2="0%" y1="0%" y2="100%">
   <stop offset="0%" style="stop-color:#09D4DF; stop-opacity:1"/>
   <stop offset="100%" style="stop-color:#9269F4; stop-opacity:1"/>
  </linearGradient>
  <linearGradient id="cyberneon" x1="0%" x2="0%" y1="0%" y2="100%">
    <stop offset="0" style="stop-color:#0abdc6; stop-opacity:1"/>
    <stop offset="1" style="stop-color:#ea00d9; stop-opacity:1"/>
  </linearGradient>
  <linearGradient id="fitdance" x1="0%" x2="0%" y1="0%" y2="100%">
   <stop offset="0%" style="stop-color:#1AD6AB; stop-opacity:1"/>
   <stop offset="100%" style="stop-color:#329DB6; stop-opacity:1"/>
  </linearGradient>
  <linearGradient id="oomox" x1="0%" x2="0%" y1="0%" y2="100%">
   <stop offset="0%" style="stop-color:#0abdc6; stop-opacity:1"/>
   <stop offset="100%" style="stop-color:#b800ff; stop-opacity:1"/>
  </linearGradient>
  <linearGradient id="rainblue" x1="0%" x2="0%" y1="0%" y2="100%">
   <stop offset="0%" style="stop-color:#00F260; stop-opacity:1"/>
   <stop offset="100%" style="stop-color:#0575E6; stop-opacity:1"/>
  </linearGradient>
  <linearGradient id="sunrise" x1="0%" x2="0%" y1="0%" y2="100%">
   <stop offset="0%" style="stop-color: #FF8501; stop-opacity:1"/>
   <stop offset="100%" style="stop-color: #FFCB01; stop-opacity:1"/>
  </linearGradient>
  <linearGradient id="telinkrin" x1="0%" x2="0%" y1="0%" y2="100%">
   <stop offset="0%" style="stop-color: #b2ced6; stop-opacity:1"/>
   <stop offset="100%" style="stop-color: #6da5b7; stop-opacity:1"/>
  </linearGradient>
  <linearGradient id="60spsycho" x1="0%" x2="0%" y1="0%" y2="100%">
   <stop offset="0%" style="stop-color: #df5940; stop-opacity:1"/>
   <stop offset="25%" style="stop-color: #d8d15f; stop-opacity:1"/>
   <stop offset="50%" style="stop-color: #e9882a; stop-opacity:1"/>
   <stop offset="100%" style="stop-color: #279362; stop-opacity:1"/>
  </linearGradient>
  <linearGradient id="90ssummer" x1="0%" x2="0%" y1="0%" y2="100%">
   <stop offset="0%" style="stop-color: #f618c7; stop-opacity:1"/>
   <stop offset="20%" style="stop-color: #94ffab; stop-opacity:1"/>
   <stop offset="50%" style="stop-color: #fbfd54; stop-opacity:1"/>
   <stop offset="100%" style="stop-color: #0f83ae; stop-opacity:1"/>
  </linearGradient>
 </defs>
  <path
     style="opacity:1;fill:url(#oomox);stroke-linecap:round;-inkscape-stroke:none"
     d="m 31,35 a 1.5,1.5 0 0 0 -1.5,1.5 v 6 A 1.5,1.5 0 0 0 31,44 1.5,1.5 0 0 0 32.5,42.5 v -6 A 1.5,1.5 0 0 0 31,35 Z"
     id="path2"
     class="ColorScheme-Text"
     transform="matrix(0.28959035,0,0,0.28699657,-1.8098679,3.3721583)" />
  <rect
     width="8"
     height="8"
     x="27"
     y="23"
     id="rect3056-1-0"
     class="ColorScheme-Text"
     style="fill:none;stroke:url(#oomox);stroke-width:3.5;stroke-linecap:round;stroke-linejoin:round;stroke-miterlimit:4;stroke-dasharray:none;stroke-dashoffset:0;stroke-opacity:1"
     transform="matrix(0.28959035,0,0,0.28699657,-1.8098679,3.3721583)" />
  <rect
     width="8"
     height="8"
     x="27"
     y="7"
     id="rect3056-1"
     class="ColorScheme-Text"
     style="fill:none;stroke:url(#oomox);stroke-width:3.5;stroke-linecap:round;stroke-linejoin:round;stroke-miterlimit:4;stroke-dasharray:none;stroke-dashoffset:0;stroke-opacity:1"
     transform="matrix(0.28959035,0,0,0.28699657,-1.8098679,3.3721583)" />
  <path
     id="path56"
     class="ColorScheme-Text"
     style="opacity:1;fill:url(#oomox);stroke-linecap:round;-inkscape-stroke:none"
     d="m 12,2 a 1.5,1.5 0 0 0 -1.5,1.5 v 39 A 1.5,1.5 0 0 0 12,44 1.5,1.5 0 0 0 13.5,42.5 V 3.5 A 1.5,1.5 0 0 0 12,2 Z m 0,7.5 A 1.5,1.5 0 0 0 10.5,11 1.5,1.5 0 0 0 12,12.5 h 9.5 A 1.5,1.5 0 0 0 23,11 1.5,1.5 0 0 0 21.5,9.5 Z m 0,16 A 1.5,1.5 0 0 0 10.5,27 1.5,1.5 0 0 0 12,28.5 h 9 A 1.5,1.5 0 0 0 22.5,27 1.5,1.5 0 0 0 21,25.5 Z"
     transform="matrix(0.28959035,0,0,0.28699657,-1.8098679,3.3721583)" />
  <path
     id="path3803"
     style="font-style:normal;font-weight:bold;font-size:14px;font-family:'Bitstream Vera Sans';fill:url(#oomox);fill-opacity:1;stroke:none;-inkscape-font-specification:'Bitstream Charter Bold'"
     class="ColorScheme-Text"
     d="M 44.929121 -10.667763 C 43.809756 -10.667754 42.949736 -10.416653 42.352744 -9.9191697 C 41.755751 -9.4216662 41.462477 -8.7135835 41.462478 -7.7890811 C 41.462477 -7.0511256 41.676182 -6.4617859 42.1032 -6.0264838 C 42.534358 -5.591172 43.211363 -5.2795274 44.140021 -5.0805339 L 45.064009 -4.8695666 C 45.627831 -4.7451896 46.003765 -4.6051687 46.190331 -4.4476322 C 46.381031 -4.2900893 46.480335 -4.0709055 46.480342 -3.7807035 C 46.480335 -3.45733 46.339948 -3.2062309 46.062187 -3.03211 C 45.784414 -2.8579855 45.384041 -2.7735034 44.861676 -2.773505 C 44.347595 -2.7735034 43.812032 -2.847347 43.256499 -3.0048884 C 42.705108 -3.1665721 42.136257 -3.404373 41.543411 -3.7194549 L 41.543411 -1.6982526 C 42.136257 -1.4785258 42.72435 -1.3133949 43.317199 -1.2014588 C 43.910043 -1.0895224 44.502282 -1.0381295 45.090987 -1.0381293 C 46.338863 -1.0381295 47.264405 -1.2824231 47.869697 -1.7799174 C 48.479118 -2.2815563 48.786933 -3.0425194 48.786941 -4.06653 C 48.786933 -4.845934 48.56803 -5.4470854 48.13273 -5.8699597 C 47.697416 -6.2928247 46.966336 -6.6086149 45.934042 -6.8159096 L 44.908887 -7.0268768 C 44.423826 -7.1263697 44.090522 -7.2439404 43.903966 -7.3807574 C 43.721543 -7.5217076 43.627441 -7.7172677 43.627444 -7.9660213 C 43.627441 -8.297677 43.765231 -8.5366515 44.038854 -8.6941986 C 44.312472 -8.8517303 44.734687 -8.9323798 45.306809 -8.9323874 C 45.737966 -8.9323798 46.197613 -8.8715214 46.682675 -8.7554471 C 47.167726 -8.6393578 47.663258 -8.4730534 48.173197 -8.2450425 L 48.173197 -10.204996 C 47.596926 -10.35838 47.03952 -10.477441 46.500575 -10.552071 C 45.961617 -10.630826 45.439048 -10.667754 44.929121 -10.667763 z M 26.085153 -10.497628 L 22.645488 -1.2150696 L 25.053253 -1.2150696 L 25.646764 -2.9096129 L 29.389929 -2.9096129 L 29.976695 -1.2150696 L 32.377716 -1.2150696 L 28.944796 -10.497628 L 26.085153 -10.497628 z M 33.605204 -10.497628 L 33.605204 -1.2150696 L 40.201268 -1.2150696 L 40.201268 -3.0253046 L 35.999481 -3.0253046 L 35.999481 -10.497628 L 33.605204 -10.497628 z M 53.224783 -10.497628 L 49.785118 -1.2150696 L 52.192883 -1.2150696 L 52.786394 -2.9096129 L 56.529559 -2.9096129 L 57.109581 -1.2150696 L 59.517346 -1.2150696 L 56.077681 -10.497628 L 53.224783 -10.497628 z M 27.514974 -8.3267073 L 28.789674 -4.6313778 L 26.240275 -4.6313778 L 27.514974 -8.3267073 z M 54.654604 -8.3267073 L 55.922559 -4.6313778 L 53.379905 -4.6313778 L 54.654604 -8.3267073 z "
     transform="matrix(0.28959035,0,0,0.28699657,-1.8098679,3.3721583)" />
  <rect
     width="8"
     height="8"
     x="8"
     y="-10"
     id="rect3056"
     class="ColorScheme-Text"
     style="fill:none;stroke:url(#oomox);stroke-width:3.5;stroke-linecap:round;stroke-linejoin:round;stroke-miterlimit:4;stroke-dasharray:none;stroke-dashoffset:0;stroke-opacity:1"
     transform="matrix(0.28959035,0,0,0.28699657,-1.8098679,3.3721583)" />
  <metadata
     id="metadata1">
    <rdf:RDF>
      <cc:Work
         rdf:about="">
        <dc:creator>
          <cc:Agent>
            <dc:title>dreifacherspass</dc:title>
          </cc:Agent>
        </dc:creator>
        <cc:license
           rdf:resource="http://creativecommons.org/licenses/by-sa/4.0/" />
      </cc:Work>
      <cc:License
         rdf:about="http://creativecommons.org/licenses/by-sa/4.0/">
        <cc:permits
           rdf:resource="http://creativecommons.org/ns#Reproduction" />
        <cc:permits
           rdf:resource="http://creativecommons.org/ns#Distribution" />
        <cc:requires
           rdf:resource="http://creativecommons.org/ns#Notice" />
        <cc:requires
           rdf:resource="http://creativecommons.org/ns#Attribution" />
        <cc:permits
           rdf:resource="http://creativecommons.org/ns#DerivativeWorks" />
        <cc:requires
           rdf:resource="http://creativecommons.org/ns#ShareAlike" />
      </cc:License>
    </rdf:RDF>
  </metadata>
  <rect
     style="opacity:1;fill:url(#oomox);fill-opacity:1;stroke-width:1.58195"
     id="rect33"
     class="ColorScheme-Text"
     width="0.861"
     height="2.6059999"
     x="6.099"
     y="-12.526"
     transform="rotate(90)" />
  <rect
     style="opacity:1;fill:url(#oomox);stroke-width:1.58195"
     id="rect33-3"
     class="ColorScheme-Text"
     width="0.861"
     height="2.6059999"
     x="10.691"
     y="-12.526"
     transform="rotate(90)" />
  <rect
     style="opacity:1;fill:url(#oomox);fill-opacity:1;stroke-width:1.58195"
     id="rect33-3-6"
     class="ColorScheme-Text"
     width="0.861"
     height="2.6059999"
     x="6.099"
     y="-16"
     transform="rotate(90)" />
  <rect
     style="opacity:1;fill:url(#oomox);stroke-width:1.58195"
     id="rect33-3-6-7"
     class="ColorScheme-Text"
     width="0.861"
     height="2.6059999"
     x="10.691"
     y="-16"
     transform="rotate(90)" />
</svg>
