<?xml version="1.0" encoding="UTF-8" standalone="no"?>
<svg
   width="16"
   height="16"
   viewBox="0 0 16 16"
   version="1.1"
   id="svg216"
   xmlns:xlink="http://www.w3.org/1999/xlink"
   xmlns="http://www.w3.org/2000/svg"
   xmlns:svg="http://www.w3.org/2000/svg"
   xmlns:rdf="http://www.w3.org/1999/02/22-rdf-syntax-ns#"
   xmlns:cc="http://creativecommons.org/ns#"
   xmlns:dc="http://purl.org/dc/elements/1.1/">
  <defs>
   <style id="current-color-scheme" type="text/css">
   .ColorScheme-Text { color: #0abdc6; } .ColorScheme-Highlight { color:#5294e2; }
  </style>
  <linearGradient id="arrongin" x1="0%" x2="0%" y1="0%" y2="100%">
   <stop offset="0%" style="stop-color:#dd9b44; stop-opacity:1"/>
   <stop offset="100%" style="stop-color:#ad6c16; stop-opacity:1"/>
  </linearGradient>
  <linearGradient id="aurora" x1="0%" x2="0%" y1="0%" y2="100%">
   <stop offset="0%" style="stop-color:#09D4DF; stop-opacity:1"/>
   <stop offset="100%" style="stop-color:#9269F4; stop-opacity:1"/>
  </linearGradient>
  <linearGradient id="cyberneon" x1="0%" x2="0%" y1="0%" y2="100%">
    <stop offset="0" style="stop-color:#0abdc6; stop-opacity:1"/>
    <stop offset="1" style="stop-color:#ea00d9; stop-opacity:1"/>
  </linearGradient>
  <linearGradient id="fitdance" x1="0%" x2="0%" y1="0%" y2="100%">
   <stop offset="0%" style="stop-color:#1AD6AB; stop-opacity:1"/>
   <stop offset="100%" style="stop-color:#329DB6; stop-opacity:1"/>
  </linearGradient>
  <linearGradient id="oomox" x1="0%" x2="0%" y1="0%" y2="100%">
   <stop offset="0%" style="stop-color:#0abdc6; stop-opacity:1"/>
   <stop offset="100%" style="stop-color:#b800ff; stop-opacity:1"/>
  </linearGradient>
  <linearGradient id="rainblue" x1="0%" x2="0%" y1="0%" y2="100%">
   <stop offset="0%" style="stop-color:#00F260; stop-opacity:1"/>
   <stop offset="100%" style="stop-color:#0575E6; stop-opacity:1"/>
  </linearGradient>
  <linearGradient id="sunrise" x1="0%" x2="0%" y1="0%" y2="100%">
   <stop offset="0%" style="stop-color: #FF8501; stop-opacity:1"/>
   <stop offset="100%" style="stop-color: #FFCB01; stop-opacity:1"/>
  </linearGradient>
  <linearGradient id="telinkrin" x1="0%" x2="0%" y1="0%" y2="100%">
   <stop offset="0%" style="stop-color: #b2ced6; stop-opacity:1"/>
   <stop offset="100%" style="stop-color: #6da5b7; stop-opacity:1"/>
  </linearGradient>
  <linearGradient id="60spsycho" x1="0%" x2="0%" y1="0%" y2="100%">
   <stop offset="0%" style="stop-color: #df5940; stop-opacity:1"/>
   <stop offset="25%" style="stop-color: #d8d15f; stop-opacity:1"/>
   <stop offset="50%" style="stop-color: #e9882a; stop-opacity:1"/>
   <stop offset="100%" style="stop-color: #279362; stop-opacity:1"/>
  </linearGradient>
  <linearGradient id="90ssummer" x1="0%" x2="0%" y1="0%" y2="100%">
   <stop offset="0%" style="stop-color: #f618c7; stop-opacity:1"/>
   <stop offset="20%" style="stop-color: #94ffab; stop-opacity:1"/>
   <stop offset="50%" style="stop-color: #fbfd54; stop-opacity:1"/>
   <stop offset="100%" style="stop-color: #0f83ae; stop-opacity:1"/>
  </linearGradient>
 </defs>
  <path
     style="fill:url(#oomox);fill-opacity:1;stroke:none;stroke-width:2.16868;stroke-dasharray:none;stroke-opacity:1"
     d="m 3.2832431,3.7713093 c -1.0319738,0 -1.8373018,0.3641754 -2.41595145,1.0924134 C 0.28861087,5.5919619 0,6.6048918 0,7.902197 c 0,1.2876787 0.28710119,2.290296 0.86095334,3.008893 0.57385206,0.71858 1.37146596,1.07868 2.39376736,1.07868 1.1139511,0 1.9480218,-0.403235 2.5025753,-1.20863 H 5.851315 C 5.798262,11.118724 5.772086,11.528615 5.772086,12.0109 V 16 H 6.973195 V 3.9160489 H 6.0256176 L 5.8513144,5.001067 h -0.06444 C 5.2033811,4.1812008 4.3682386,3.7713093 3.2832431,3.7713093 Z m 0.1383863,1.0057813 c 0.8149689,0 1.4102164,0.2439962 1.7863466,0.7310931 0.3761298,0.487097 0.5641094,1.2847923 0.5641094,2.3940133 v 0.2672928 c -0.024114,1.0176089 -0.2198049,1.7418828 -0.5862937,2.1710922 -0.3664882,0.429242 -0.9499303,0.643404 -1.7504289,0.643404 -0.7233358,0 -1.2703201,-0.260949 -1.641622,-0.781804 C 1.4272372,9.6765154 1.2444211,8.915296 1.2444211,7.9169881 c 0,-0.9983238 0.1853976,-1.7698238 0.5567148,-2.3147764 C 2.1772656,5.0524148 2.7175773,4.7770906 3.4216294,4.7770906 Z"
     id="path24"
     class="ColorScheme-Text" />
  <path
     style="fill:url(#oomox);fill-opacity:1;stroke:none;stroke-width:2.16868;stroke-dasharray:none;stroke-opacity:1"
     d="M 9.0204679,0 V 11.845029 H 9.880365 l 0.253533,-1.020572 h 0.08662 c 0.28934,0.39547 0.64682,0.690315 1.071174,0.883227 0.429166,0.188085 0.901681,0.282086 1.417668,0.282086 1.031974,0 1.837302,-0.3601 2.415952,-1.07868 C 15.708808,10.187664 16,9.1758061 16,7.8736718 16,6.5715376 15.711359,5.5652816 15.132709,4.8563276 14.558857,4.1425762 13.750979,3.7860999 12.709363,3.7860999 c -1.099465,0 -1.929476,0.3955032 -2.488842,1.1864419 h -0.0581 c 0.03858,-0.4870969 0.0581,-1.0367043 0.0581,-1.6491859 V 0 Z m 3.5145911,4.7918841 c 0.757089,0 1.31692,0.2532361 1.678595,0.7596186 0.36166,0.5063819 0.541926,1.2753002 0.541926,2.3073806 0,1.0079509 -0.180266,1.7820332 -0.541926,2.3221717 -0.361675,0.535325 -0.911211,0.802934 -1.649016,0.802934 -0.819782,0 -1.416101,-0.238862 -1.787403,-0.716301 -0.371317,-0.4822837 -0.556714,-1.2799637 -0.556714,-2.3940137 0,-1.11405 0.181306,-1.9050713 0.542982,-2.3728833 0.361675,-0.4726272 0.95179,-0.7089086 1.771556,-0.7089086 z"
     id="path210"
     class="ColorScheme-Text" />
  <metadata
     id="metadata242">
    <rdf:RDF>
      <cc:Work
         rdf:about="">
        <dc:creator>
          <cc:Agent>
            <dc:title>dreifacherspass</dc:title>
          </cc:Agent>
        </dc:creator>
        <cc:license
           rdf:resource="http://creativecommons.org/licenses/by-sa/4.0/" />
      </cc:Work>
      <cc:License
         rdf:about="http://creativecommons.org/licenses/by-sa/4.0/">
        <cc:permits
           rdf:resource="http://creativecommons.org/ns#Reproduction" />
        <cc:permits
           rdf:resource="http://creativecommons.org/ns#Distribution" />
        <cc:requires
           rdf:resource="http://creativecommons.org/ns#Notice" />
        <cc:requires
           rdf:resource="http://creativecommons.org/ns#Attribution" />
        <cc:permits
           rdf:resource="http://creativecommons.org/ns#DerivativeWorks" />
        <cc:requires
           rdf:resource="http://creativecommons.org/ns#ShareAlike" />
      </cc:License>
    </rdf:RDF>
  </metadata>
</svg>
