<?xml version="1.0" encoding="UTF-8" standalone="no"?>
<svg
   width="16"
   height="16"
   viewBox="0 0 16 16"
   version="1.1"
   id="svg216"
   xmlns:xlink="http://www.w3.org/1999/xlink"
   xmlns="http://www.w3.org/2000/svg"
   xmlns:svg="http://www.w3.org/2000/svg"
   xmlns:rdf="http://www.w3.org/1999/02/22-rdf-syntax-ns#"
   xmlns:cc="http://creativecommons.org/ns#"
   xmlns:dc="http://purl.org/dc/elements/1.1/">
  <defs>
   <style id="current-color-scheme" type="text/css">
   .ColorScheme-Text { color: #0abdc6; } .ColorScheme-Highlight { color:#5294e2; }
  </style>
  <linearGradient id="arrongin" x1="0%" x2="0%" y1="0%" y2="100%">
   <stop offset="0%" style="stop-color:#dd9b44; stop-opacity:1"/>
   <stop offset="100%" style="stop-color:#ad6c16; stop-opacity:1"/>
  </linearGradient>
  <linearGradient id="aurora" x1="0%" x2="0%" y1="0%" y2="100%">
   <stop offset="0%" style="stop-color:#09D4DF; stop-opacity:1"/>
   <stop offset="100%" style="stop-color:#9269F4; stop-opacity:1"/>
  </linearGradient>
  <linearGradient id="cyberneon" x1="0%" x2="0%" y1="0%" y2="100%">
    <stop offset="0" style="stop-color:#0abdc6; stop-opacity:1"/>
    <stop offset="1" style="stop-color:#ea00d9; stop-opacity:1"/>
  </linearGradient>
  <linearGradient id="fitdance" x1="0%" x2="0%" y1="0%" y2="100%">
   <stop offset="0%" style="stop-color:#1AD6AB; stop-opacity:1"/>
   <stop offset="100%" style="stop-color:#329DB6; stop-opacity:1"/>
  </linearGradient>
  <linearGradient id="oomox" x1="0%" x2="0%" y1="0%" y2="100%">
   <stop offset="0%" style="stop-color:#0abdc6; stop-opacity:1"/>
   <stop offset="100%" style="stop-color:#b800ff; stop-opacity:1"/>
  </linearGradient>
  <linearGradient id="rainblue" x1="0%" x2="0%" y1="0%" y2="100%">
   <stop offset="0%" style="stop-color:#00F260; stop-opacity:1"/>
   <stop offset="100%" style="stop-color:#0575E6; stop-opacity:1"/>
  </linearGradient>
  <linearGradient id="sunrise" x1="0%" x2="0%" y1="0%" y2="100%">
   <stop offset="0%" style="stop-color: #FF8501; stop-opacity:1"/>
   <stop offset="100%" style="stop-color: #FFCB01; stop-opacity:1"/>
  </linearGradient>
  <linearGradient id="telinkrin" x1="0%" x2="0%" y1="0%" y2="100%">
   <stop offset="0%" style="stop-color: #b2ced6; stop-opacity:1"/>
   <stop offset="100%" style="stop-color: #6da5b7; stop-opacity:1"/>
  </linearGradient>
  <linearGradient id="60spsycho" x1="0%" x2="0%" y1="0%" y2="100%">
   <stop offset="0%" style="stop-color: #df5940; stop-opacity:1"/>
   <stop offset="25%" style="stop-color: #d8d15f; stop-opacity:1"/>
   <stop offset="50%" style="stop-color: #e9882a; stop-opacity:1"/>
   <stop offset="100%" style="stop-color: #279362; stop-opacity:1"/>
  </linearGradient>
  <linearGradient id="90ssummer" x1="0%" x2="0%" y1="0%" y2="100%">
   <stop offset="0%" style="stop-color: #f618c7; stop-opacity:1"/>
   <stop offset="20%" style="stop-color: #94ffab; stop-opacity:1"/>
   <stop offset="50%" style="stop-color: #fbfd54; stop-opacity:1"/>
   <stop offset="100%" style="stop-color: #0f83ae; stop-opacity:1"/>
  </linearGradient>
 </defs>
  <path
     style="fill:url(#oomox);fill-opacity:1;stroke:none;stroke-width:2.16857;stroke-dasharray:none;stroke-opacity:1"
     d="m 3.2832431,3.7755185 c -1.0319738,0 -1.8373018,0.364138 -2.41595145,1.0923012 C 0.28861087,5.5959841 0,6.6088099 0,7.9059819 c 0,1.2875464 0.28710119,2.2900611 0.86095334,3.0085841 0.57385206,0.718506 1.37146596,1.078569 2.39376736,1.078569 1.1139511,0 1.9480218,-0.403193 2.5025753,-1.208505 h 0.094019 c -0.053053,0.337549 -0.079229,0.747398 -0.079229,1.229633 v 3.393106 H 6.973195 V 3.9202432 H 6.0256176 L 5.8513144,5.0051499 h -0.06444 C 5.2033811,4.1853679 4.3682386,3.7755185 3.2832431,3.7755185 Z m 0.1383863,1.005678 c 0.8149689,0 1.4102164,0.2439711 1.7863466,0.731018 0.3761298,0.4870469 0.5641094,1.2846603 0.5641094,2.3937674 v 0.2672653 c -0.024114,1.0175044 -0.2198049,1.7417039 -0.5862937,2.1708698 -0.3664882,0.429198 -0.9499303,0.643338 -1.7504289,0.643338 -0.7233358,0 -1.2703201,-0.260923 -1.641622,-0.781724 C 1.4272372,9.680118 1.2444211,8.9189768 1.2444211,7.9207714 c 0,-0.9982212 0.1853976,-1.769642 0.5567148,-2.3145386 C 2.1772656,5.0564924 2.7175773,4.7811965 3.4216294,4.7811965 Z"
     id="path24"
     class="ColorScheme-Text"/>
  <path
     style="fill:url(#oomox);fill-opacity:1;stroke:none;stroke-width:2.16857;stroke-dasharray:none;stroke-opacity:1"
     d="M 9.0204679,0.5926315 V 11.848409 H 9.880365 l 0.253533,-1.020467 h 0.08662 c 0.28934,0.395429 0.64682,0.690244 1.071174,0.883136 0.429166,0.188066 0.901681,0.282057 1.417668,0.282057 1.031974,0 1.837302,-0.360063 2.415952,-1.078569 C 15.708808,10.191214 16,9.1794601 16,7.8774596 16,6.5754592 15.711359,5.5693065 15.132709,4.8604253 14.558857,4.1467473 13.750979,3.7903076 12.709363,3.7903076 c -1.099465,0 -1.929476,0.3954626 -2.488842,1.18632 h -0.0581 c 0.03858,-0.4870469 0.0581,-1.0365978 0.0581,-1.6490165 V 0.5926315 Z m 3.5145911,4.203357 c 0.757089,0 1.31692,0.25321 1.678595,0.7595405 0.36166,0.5063299 0.541926,1.2751692 0.541926,2.3071436 0,1.0078474 -0.180266,1.7818502 -0.541926,2.3219334 -0.361675,0.53527 -0.911211,0.802852 -1.649016,0.802852 -0.819782,0 -1.416101,-0.238838 -1.787403,-0.716228 -0.371317,-0.4822343 -0.556714,-1.2798323 -0.556714,-2.3937679 0,-1.1139356 0.181306,-1.9048756 0.542982,-2.3726396 0.361675,-0.4725786 0.95179,-0.7088357 1.771556,-0.7088357 z"
     id="path210"
     class="ColorScheme-Text"/>
  <metadata
     id="metadata242">
    <rdf:RDF>
      <cc:Work
         rdf:about="">
        <dc:creator>
          <cc:Agent>
            <dc:title>dreifacherspass</dc:title>
          </cc:Agent>
        </dc:creator>
        <cc:license
           rdf:resource="http://creativecommons.org/licenses/by-sa/4.0/" />
      </cc:Work>
      <cc:License
         rdf:about="http://creativecommons.org/licenses/by-sa/4.0/">
        <cc:permits
           rdf:resource="http://creativecommons.org/ns#Reproduction" />
        <cc:permits
           rdf:resource="http://creativecommons.org/ns#Distribution" />
        <cc:requires
           rdf:resource="http://creativecommons.org/ns#Notice" />
        <cc:requires
           rdf:resource="http://creativecommons.org/ns#Attribution" />
        <cc:permits
           rdf:resource="http://creativecommons.org/ns#DerivativeWorks" />
        <cc:requires
           rdf:resource="http://creativecommons.org/ns#ShareAlike" />
      </cc:License>
    </rdf:RDF>
  </metadata>
</svg>
