<?xml version="1.0" encoding="UTF-8" standalone="no"?>
<!-- Created with Inkscape (http://www.inkscape.org/) -->

<svg
   width="16"
   height="16"
   viewBox="0 0 4.2333333 4.2333333"
   version="1.1"
   id="svg8"
   xmlns="http://www.w3.org/2000/svg"
   xmlns:svg="http://www.w3.org/2000/svg"
   xmlns:rdf="http://www.w3.org/1999/02/22-rdf-syntax-ns#"
   xmlns:cc="http://creativecommons.org/ns#"
   xmlns:dc="http://purl.org/dc/elements/1.1/">
   <defs>
   <style id="current-color-scheme" type="text/css">
   .ColorScheme-Text { color: #0abdc6; } .ColorScheme-Highlight { color:#5294e2; }
  </style>
  <linearGradient id="arrongin" x1="0%" x2="0%" y1="0%" y2="100%">
   <stop offset="0%" style="stop-color:#dd9b44; stop-opacity:1"/>
   <stop offset="100%" style="stop-color:#ad6c16; stop-opacity:1"/>
  </linearGradient>
  <linearGradient id="aurora" x1="0%" x2="0%" y1="0%" y2="100%">
   <stop offset="0%" style="stop-color:#09D4DF; stop-opacity:1"/>
   <stop offset="100%" style="stop-color:#9269F4; stop-opacity:1"/>
  </linearGradient>
  <linearGradient id="cyberneon" x1="0%" x2="0%" y1="0%" y2="100%">
    <stop offset="0" style="stop-color:#0abdc6; stop-opacity:1"/>
    <stop offset="1" style="stop-color:#ea00d9; stop-opacity:1"/>
  </linearGradient>
  <linearGradient id="fitdance" x1="0%" x2="0%" y1="0%" y2="100%">
   <stop offset="0%" style="stop-color:#1AD6AB; stop-opacity:1"/>
   <stop offset="100%" style="stop-color:#329DB6; stop-opacity:1"/>
  </linearGradient>
  <linearGradient id="oomox" x1="0%" x2="0%" y1="0%" y2="100%">
   <stop offset="0%" style="stop-color:#0abdc6; stop-opacity:1"/>
   <stop offset="100%" style="stop-color:#b800ff; stop-opacity:1"/>
  </linearGradient>
  <linearGradient id="rainblue" x1="0%" x2="0%" y1="0%" y2="100%">
   <stop offset="0%" style="stop-color:#00F260; stop-opacity:1"/>
   <stop offset="100%" style="stop-color:#0575E6; stop-opacity:1"/>
  </linearGradient>
  <linearGradient id="sunrise" x1="0%" x2="0%" y1="0%" y2="100%">
   <stop offset="0%" style="stop-color: #FF8501; stop-opacity:1"/>
   <stop offset="100%" style="stop-color: #FFCB01; stop-opacity:1"/>
  </linearGradient>
  <linearGradient id="telinkrin" x1="0%" x2="0%" y1="0%" y2="100%">
   <stop offset="0%" style="stop-color: #b2ced6; stop-opacity:1"/>
   <stop offset="100%" style="stop-color: #6da5b7; stop-opacity:1"/>
  </linearGradient>
  <linearGradient id="60spsycho" x1="0%" x2="0%" y1="0%" y2="100%">
   <stop offset="0%" style="stop-color: #df5940; stop-opacity:1"/>
   <stop offset="25%" style="stop-color: #d8d15f; stop-opacity:1"/>
   <stop offset="50%" style="stop-color: #e9882a; stop-opacity:1"/>
   <stop offset="100%" style="stop-color: #279362; stop-opacity:1"/>
  </linearGradient>
  <linearGradient id="90ssummer" x1="0%" x2="0%" y1="0%" y2="100%">
   <stop offset="0%" style="stop-color: #f618c7; stop-opacity:1"/>
   <stop offset="20%" style="stop-color: #94ffab; stop-opacity:1"/>
   <stop offset="50%" style="stop-color: #fbfd54; stop-opacity:1"/>
   <stop offset="100%" style="stop-color: #0f83ae; stop-opacity:1"/>
  </linearGradient>
 </defs>
  <metadata
     id="metadata5">
    <rdf:RDF>
      <cc:Work
         rdf:about="">
        <dc:format>image/svg+xml</dc:format>
        <dc:type
           rdf:resource="http://purl.org/dc/dcmitype/StillImage" />
        <cc:license
           rdf:resource="http://creativecommons.org/licenses/by-sa/4.0/" />
        <dc:creator>
          <cc:Agent>
            <dc:title>dreifacherspass</dc:title>
          </cc:Agent>
        </dc:creator>
      </cc:Work>
      <cc:License
         rdf:about="http://creativecommons.org/licenses/by-sa/4.0/">
        <cc:permits
           rdf:resource="http://creativecommons.org/ns#Reproduction" />
        <cc:permits
           rdf:resource="http://creativecommons.org/ns#Distribution" />
        <cc:requires
           rdf:resource="http://creativecommons.org/ns#Notice" />
        <cc:requires
           rdf:resource="http://creativecommons.org/ns#Attribution" />
        <cc:permits
           rdf:resource="http://creativecommons.org/ns#DerivativeWorks" />
        <cc:requires
           rdf:resource="http://creativecommons.org/ns#ShareAlike" />
      </cc:License>
    </rdf:RDF>
  </metadata>
  <path
     d="m 2.1755778,2.3698812 v 0.2682006 0.094568 0.5560384 H 2.5068237 V 2.8422038 a 0.66039313,0.57359867 0 0 1 0.1131714,0.091467 0.66039313,0.57359867 0 0 1 0.085266,0.1116211 0.66039313,0.57359867 0 0 1 0.053744,0.1255738 0.66039313,0.57359867 0 0 1 0.018087,0.1328084 0.66039313,0.57359867 0 0 1 -0.00207,0.045475 0.66039313,0.57359867 0 0 1 -0.0062,0.044442 0.66039313,0.57359867 0 0 1 -0.00982,0.044442 0.66039313,0.57359867 0 0 1 -0.014469,0.043408 0.66039313,0.57359867 0 0 1 -0.01757,0.041858 0.66039313,0.57359867 0 0 1 -0.021704,0.040824 0.66039313,0.57359867 0 0 1 -0.025321,0.039274 0.66039313,0.57359867 0 0 1 -0.028939,0.037724 0.66039313,0.57359867 0 0 1 -0.032039,0.03514 0.66039313,0.57359867 0 0 1 -0.03514,0.033073 0.66039313,0.57359867 0 0 1 -0.038241,0.031006 0.66039313,0.57359867 0 0 1 -0.040824,0.027905 0.66039313,0.57359867 0 0 1 -0.042892,0.024805 0.66039313,0.57359867 0 0 1 -0.045475,0.022221 0.66039313,0.57359867 0 0 1 -0.047026,0.018603 0.66039313,0.57359867 0 0 1 -0.048576,0.015503 0.66039313,0.57359867 0 0 1 -0.050126,0.012402 0.66039313,0.57359867 0 0 1 -0.050643,0.00878 0.66039313,0.57359867 0 0 1 -0.051676,0.00517 0.66039313,0.57359867 0 0 1 -0.051676,0.00207 A 0.66039313,0.57359867 0 0 1 1.9699056,3.86333 0.66039313,0.57359867 0 0 1 1.8298625,3.8209554 0.66039313,0.57359867 0 0 1 1.7048055,3.7522257 0.66039313,0.57359867 0 0 1 1.6004191,3.661792 0.66039313,0.57359867 0 0 1 1.5218709,3.5527547 0.66039313,0.57359867 0 0 1 1.4727783,3.4318318 0.66039313,0.57359867 0 0 1 1.4562419,3.3036743 0.66039313,0.57359867 0 0 1 1.4727783,3.1760335 0.66039313,0.57359867 0 0 1 1.5223877,3.0545939 0.66039313,0.57359867 0 0 1 1.6014526,2.9460734 0.66039313,0.57359867 0 0 1 1.7063558,2.8551229 0.66039313,0.57359867 0 0 1 1.8319295,2.78691 V 2.4024373 a 1.0736789,0.9325668 0 0 0 -0.1865519,0.061495 1.0736789,0.9325668 0 0 0 -0.1700155,0.089917 1.0736789,0.9325668 0 0 0 -0.1483113,0.1157552 1.0736789,0.9325668 0 0 0 -0.1209229,0.137976 1.0736789,0.9325668 0 0 0 -0.0894,0.1545126 1.0736789,0.9325668 0 0 0 -0.055294,0.1663981 1.0736789,0.9325668 0 0 0 -0.018603,0.1725993 1.0736789,0.9325668 0 0 0 0.016536,0.1617472 1.0736789,0.9325668 0 0 0 0.048576,0.1570964 1.0736789,0.9325668 0 0 0 0.079065,0.1472778 1.0736789,0.9325668 0 0 0 0.1069703,0.1328084 1.0736789,0.9325668 0 0 0 0.1328084,0.1152385 1.0736789,0.9325668 0 0 0 0.1529622,0.093018 1.0736789,0.9325668 0 0 0 0.1694987,0.06873 1.0736789,0.9325668 0 0 0 0.1808675,0.042375 1.0736789,0.9325668 0 0 0 0.186552,0.013953 A 1.0736789,0.9325668 0 0 0 2.3032186,4.2193807 1.0736789,0.9325668 0 0 0 2.4840861,4.177006 1.0736789,0.9325668 0 0 0 2.6535848,4.1082763 1.0736789,0.9325668 0 0 0 2.806547,4.0152588 1.0736789,0.9325668 0 0 0 2.9393554,3.9000203 1.0736789,0.9325668 0 0 0 3.0463257,3.7672119 1.0736789,0.9325668 0 0 0 3.1253906,3.6199341 1.0736789,0.9325668 0 0 0 3.1739664,3.4628377 1.0736789,0.9325668 0 0 0 3.1905029,3.3010905 1.0736789,0.9325668 0 0 0 3.1765503,3.1538126 1.0736789,0.9325668 0 0 0 3.1367594,3.0106689 1.0736789,0.9325668 0 0 0 3.0711303,2.8747599 1.0736789,0.9325668 0 0 0 2.9822469,2.7497029 1.0736789,0.9325668 0 0 0 2.8711426,2.6380818 H 3.1812011 V 2.3698812 H 2.5068237 Z"
     style="display:inline;opacity:1;fill:url(#oomox);stroke-width:5.89386;stroke-linecap:round;stroke-linejoin:round;paint-order:stroke fill markers"
     id="path7"
     class="ColorScheme-Text"/>
  <path
     d="M 1.0490316,1.7549316 V 2.1228678 H 3.1843017 V 1.7549316 Z"
     style="display:inline;opacity:1;fill:url(#oomox);stroke-width:5.89386;stroke-linecap:round;stroke-linejoin:round;paint-order:stroke fill markers"
     id="path6"
     class="ColorScheme-Text"/>
  <path
     id="path5"
     class="ColorScheme-Text"
     style="display:inline;opacity:1;fill:url(#oomox);stroke-width:5.89386;stroke-linecap:round;stroke-linejoin:round;paint-order:stroke fill markers"
     d="M 1.9326986 0 L 1.9326986 0.56430664 L 1.0490316 0.56430664 L 1.0490316 0.9327596 L 1.9326986 0.9327596 L 1.9326986 1.5337565 L 2.3006347 1.5337565 L 2.3006347 0.9327596 L 3.1843017 0.9327596 L 3.1843017 0.56430664 L 2.3006347 0.56430664 L 2.3006347 0 L 1.9326986 0 z " />
</svg>
