<?xml version="1.0" encoding="UTF-8" standalone="no"?>
<!-- Created with Inkscape (http://www.inkscape.org/) -->

<svg
   width="48"
   height="48"
   viewBox="0 0 12.7 12.7"
   version="1.1"
   id="svg313"
   xmlns="http://www.w3.org/2000/svg"
   xmlns:svg="http://www.w3.org/2000/svg"
   xmlns:rdf="http://www.w3.org/1999/02/22-rdf-syntax-ns#"
   xmlns:cc="http://creativecommons.org/ns#"
   xmlns:dc="http://purl.org/dc/elements/1.1/">
  <defs
     id="defs1401">
    <style
       id="current-color-scheme"
       type="text/css">
   .ColorScheme-Text { color: #0abdc6; } .ColorScheme-Highlight { color:#5294e2; }
  </style>
    <linearGradient
       id="arrongin"
       x1="0%"
       x2="0%"
       y1="0%"
       y2="100%">
      <stop
         offset="0%"
         style="stop-color:#dd9b44; stop-opacity:1"
         id="stop1343" />
      <stop
         offset="100%"
         style="stop-color:#ad6c16; stop-opacity:1"
         id="stop1345" />
    </linearGradient>
    <linearGradient
       id="aurora"
       x1="0%"
       x2="0%"
       y1="0%"
       y2="100%">
      <stop
         offset="0%"
         style="stop-color:#09D4DF; stop-opacity:1"
         id="stop1348" />
      <stop
         offset="100%"
         style="stop-color:#9269F4; stop-opacity:1"
         id="stop1350" />
    </linearGradient>
    <linearGradient
       id="cyberneon"
       x1="0%"
       x2="0%"
       y1="0%"
       y2="100%">
      <stop
         offset="0"
         style="stop-color:#0abdc6; stop-opacity:1"
         id="stop1353" />
      <stop
         offset="1"
         style="stop-color:#ea00d9; stop-opacity:1"
         id="stop1355" />
    </linearGradient>
    <linearGradient
       id="fitdance"
       x1="0%"
       x2="0%"
       y1="0%"
       y2="100%">
      <stop
         offset="0%"
         style="stop-color:#1AD6AB; stop-opacity:1"
         id="stop1358" />
      <stop
         offset="100%"
         style="stop-color:#329DB6; stop-opacity:1"
         id="stop1360" />
    </linearGradient>
    <linearGradient
       id="oomox"
       x1="0%"
       x2="0%"
       y1="0%"
       y2="100%">
      <stop
         offset="0%"
         style="stop-color:#0abdc6; stop-opacity:1"
         id="stop1363" />
      <stop
         offset="100%"
         style="stop-color:#b800ff; stop-opacity:1"
         id="stop1365" />
    </linearGradient>
    <linearGradient
       id="rainblue"
       x1="0%"
       x2="0%"
       y1="0%"
       y2="100%">
      <stop
         offset="0%"
         style="stop-color:#00F260; stop-opacity:1"
         id="stop1368" />
      <stop
         offset="100%"
         style="stop-color:#0575E6; stop-opacity:1"
         id="stop1370" />
    </linearGradient>
    <linearGradient
       id="sunrise"
       x1="0%"
       x2="0%"
       y1="0%"
       y2="100%">
      <stop
         offset="0%"
         style="stop-color: #FF8501; stop-opacity:1"
         id="stop1373" />
      <stop
         offset="100%"
         style="stop-color: #FFCB01; stop-opacity:1"
         id="stop1375" />
    </linearGradient>
    <linearGradient
       id="telinkrin"
       x1="0%"
       x2="0%"
       y1="0%"
       y2="100%">
      <stop
         offset="0%"
         style="stop-color: #b2ced6; stop-opacity:1"
         id="stop1378" />
      <stop
         offset="100%"
         style="stop-color: #6da5b7; stop-opacity:1"
         id="stop1380" />
    </linearGradient>
    <linearGradient
       id="60spsycho"
       x1="0%"
       x2="0%"
       y1="0%"
       y2="100%">
      <stop
         offset="0%"
         style="stop-color: #df5940; stop-opacity:1"
         id="stop1383" />
      <stop
         offset="25%"
         style="stop-color: #d8d15f; stop-opacity:1"
         id="stop1385" />
      <stop
         offset="50%"
         style="stop-color: #e9882a; stop-opacity:1"
         id="stop1387" />
      <stop
         offset="100%"
         style="stop-color: #279362; stop-opacity:1"
         id="stop1389" />
    </linearGradient>
    <linearGradient
       id="90ssummer"
       x1="0%"
       x2="0%"
       y1="0%"
       y2="100%">
      <stop
         offset="0%"
         style="stop-color: #f618c7; stop-opacity:1"
         id="stop1392" />
      <stop
         offset="20%"
         style="stop-color: #94ffab; stop-opacity:1"
         id="stop1394" />
      <stop
         offset="50%"
         style="stop-color: #fbfd54; stop-opacity:1"
         id="stop1396" />
      <stop
         offset="100%"
         style="stop-color: #0f83ae; stop-opacity:1"
         id="stop1398" />
    </linearGradient>
  </defs>
  <path
     id="q_left_part"
     style="fill:url(#oomox);fill-opacity:0.7;stroke-width:0.0782966"
     class="ColorScheme-Text"
     d="M 6.2978068 0.13280843 A 1.2434792 1.2463341 0 0 0 6.2848877 0.1333252 A 1.2434792 1.2463341 0 0 1 6.3329468 0.13642578 A 1.2434792 1.2463341 0 0 0 6.2978068 0.13280843 z M 6.1655151 0.1390096 A 1.2434792 1.2463341 0 0 0 6.1221069 0.14159342 A 1.2434792 1.2463341 0 0 1 6.1655151 0.1390096 z M 6.475057 0.15192871 A 1.2434792 1.2463341 0 0 1 6.5334513 0.16329753 A 1.2434792 1.2463341 0 0 0 6.475057 0.15192871 z M 6.0042847 0.16329753 A 1.2434792 1.2463341 0 0 0 5.9546753 0.17311605 A 1.2434792 1.2463341 0 0 1 6.0042847 0.16329753 z M 6.6734945 0.20308838 A 1.2434792 1.2463341 0 0 1 6.7153524 0.21704102 A 1.2434792 1.2463341 0 0 0 6.6734945 0.20308838 z M 11.091313 2.7295492 A 1.2434792 1.2463341 0 0 1 11.226188 2.8199829 A 1.2434792 1.2463341 0 0 0 11.091313 2.7295492 z M 11.226705 2.8199829 A 1.2434792 1.2463341 0 0 1 11.544515 3.1853353 L 9.1710164 4.5588949 A 0.68391348 0.68548365 0 0 1 9.17205 4.5609619 L 11.546065 3.1879191 A 1.2434792 1.2463341 0 0 1 11.702128 3.6478394 A 1.2434792 1.2463341 0 0 0 11.226705 2.8199829 z M 11.702128 3.6478394 A 1.2434792 1.2463341 0 0 1 11.712463 3.8090698 A 1.2434792 1.2463341 0 0 0 11.702128 3.6478394 z M 1.3043132 2.8261841 A 1.2434792 1.2463341 0 0 0 1.2448853 2.878894 A 1.2434792 1.2463341 0 0 1 1.3043132 2.8261841 z M 6.268868 2.8809611 A 0.68391348 0.68548365 0 0 0 6.2187419 2.8850952 A 0.68391348 0.68548365 0 0 1 6.2755859 2.8814779 A 0.68391348 0.68548365 0 0 0 6.268868 2.8809611 z M 6.358785 2.8887126 A 0.68391348 0.68548365 0 0 1 6.3908244 2.8923299 A 0.68391348 0.68548365 0 0 0 6.358785 2.8887126 z M 6.150529 2.8912964 A 0.68391348 0.68548365 0 0 0 6.0854167 2.9083496 A 0.68391348 0.68548365 0 0 1 6.1531128 2.8912964 A 0.68391348 0.68548365 0 0 0 6.150529 2.8912964 z M 6.0383911 2.920752 A 0.68391348 0.68548365 0 0 0 5.9582926 2.957959 A 0.68391348 0.68548365 0 0 1 6.0383911 2.920752 z M 1.1761556 2.9424561 A 1.2434792 1.2463341 0 0 0 1.1203451 3.0060181 A 1.2434792 1.2463341 0 0 1 1.1761556 2.9424561 z M 1.0645345 3.076298 A 1.2434792 1.2463341 0 0 0 1.0128581 3.1538127 A 1.2434792 1.2463341 0 0 1 1.0645345 3.076298 z M 0.99425456 3.1863688 A 1.2434792 1.2463341 0 0 0 0.8242391 3.8090698 L 0.8242391 8.6713053 A 1.2434792 1.2463341 0 0 0 1.4464233 9.7492757 L 5.6466838 12.180652 A 1.2434792 1.2463341 0 0 0 6.2699015 12.343949 L 6.2699015 9.5994141 A 0.68391348 0.68548365 0 0 0 6.3174438 9.5952799 A 0.68391348 0.68548365 0 0 1 5.92677 9.50743 L 3.6163167 8.1695272 A 0.68391348 0.68548365 0 0 1 3.2742188 7.5773153 L 3.2742188 4.9025431 A 0.68391348 0.68548365 0 0 1 3.383256 4.5371908 A 0.68391348 0.68548365 0 0 0 3.3672363 4.5604451 L 0.99425456 3.1863688 z M 3.6013306 4.3201497 A 0.68391348 0.68548365 0 0 0 3.5119303 4.385262 A 0.68391348 0.68548365 0 0 1 3.6013306 4.3201497 z M 3.4705892 4.42712 A 0.68391348 0.68548365 0 0 0 3.4240804 4.4787964 A 0.68391348 0.68548365 0 0 1 3.4705892 4.42712 z M 9.2598999 7.6072876 A 0.68391348 0.68548365 0 0 1 9.2495646 7.7049561 A 0.68391348 0.68548365 0 0 0 9.2598999 7.6072876 z M 9.2361287 7.755599 A 0.68391348 0.68548365 0 0 1 9.209257 7.8372477 A 0.68391348 0.68548365 0 0 0 9.2361287 7.755599 z M 9.18962 7.8791056 A 0.68391348 0.68548365 0 0 1 9.1451782 7.957137 A 0.68391348 0.68548365 0 0 0 9.18962 7.8791056 z M 9.1203735 7.992277 A 0.68391348 0.68548365 0 0 1 9.0464762 8.0749593 A 0.68391348 0.68548365 0 0 0 9.1203735 7.992277 z M 9.0330404 8.0878784 A 0.68391348 0.68548365 0 0 1 8.9214193 8.1695272 L 6.6104492 9.50743 A 0.68391348 0.68548365 0 0 1 6.4853923 9.5632406 A 0.68391348 0.68548365 0 0 0 6.6104492 9.5084635 L 8.9203857 8.1710775 A 0.68391348 0.68548365 0 0 0 9.0330404 8.0878784 z M 11.699028 8.8501058 A 1.2434792 1.2463341 0 0 1 11.691276 8.8878296 A 1.2434792 1.2463341 0 0 0 11.699028 8.8501058 z M 11.661304 9.020638 A 1.2434792 1.2463341 0 0 1 11.643217 9.0738647 A 1.2434792 1.2463341 0 0 0 11.661304 9.020638 z M 11.597225 9.1906535 A 1.2434792 1.2463341 0 0 1 11.575004 9.2361287 A 1.2434792 1.2463341 0 0 0 11.597225 9.1906535 z M 11.511959 9.3456828 A 1.2434792 1.2463341 0 0 1 11.480953 9.3921916 A 1.2434792 1.2463341 0 0 0 11.511959 9.3456828 z M 11.399304 9.4939941 A 1.2434792 1.2463341 0 0 1 11.370882 9.5265503 A 1.2434792 1.2463341 0 0 0 11.399304 9.4939941 z M 6.4605876 9.5699585 A 0.68391348 0.68548365 0 0 1 6.3562012 9.5916626 A 0.68391348 0.68548365 0 0 0 6.4605876 9.5699585 z M 11.266496 9.6242188 A 1.2434792 1.2463341 0 0 1 11.238074 9.6490234 A 1.2434792 1.2463341 0 0 0 11.266496 9.6242188 z M 6.7251709 12.260234 A 1.2434792 1.2463341 0 0 1 6.709668 12.265401 A 1.2434792 1.2463341 0 0 0 6.7251709 12.260234 z M 6.5603231 12.31191 A 1.2434792 1.2463341 0 0 1 6.5091634 12.321729 A 1.2434792 1.2463341 0 0 0 6.5603231 12.31191 z M 6.387207 12.339815 A 1.2434792 1.2463341 0 0 1 6.3267456 12.343949 A 1.2434792 1.2463341 0 0 0 6.387207 12.339815 z " />
  <path
     style="fill:url(#oomox);fill-opacity:1;stroke:none;stroke-width:0.0782966"
     d="M 11.545933,3.1876843 9.1704204,4.5618487 a 0.68391348,0.68548365 0 0 1 0.091898,0.342547 V 7.5782515 A 0.68391348,0.68548365 0 0 1 8.9205323,8.1712863 L 6.6104739,9.5085964 a 0.68391348,0.68548365 0 0 1 -0.3405607,0.090838 v 2.7483276 a 1.2434792,1.2463341 0 0 0 0.6202562,-0.165923 l 0.9345156,-0.540888 1.1924957,0.693964 c 0.5333697,0.310391 1.3920883,0.310391 1.9254583,0 l 0.533245,-0.310282 c 0.533369,-0.310392 0.533369,-0.810227 0,-1.120619 l -1.185921,-0.69014 0.801321,-0.4638155 A 1.2434792,1.2463341 0 0 0 11.712771,8.6721088 V 3.8105393 a 1.2434792,1.2463341 0 0 0 -0.166854,-0.622855 z"
     id="path_q_right_part"
     class="ColorScheme-Text" />
  <path
     d="M 0.99204895,3.1856157 3.3670989,4.5604658 A 0.68391348,0.68548365 0 0 1 3.617083,4.3093575 L 5.9274746,2.9724154 a 0.68391348,0.68548365 0 0 1 0.6832544,2.341e-4 l 2.3105498,1.3365852 a 0.68391348,0.68548365 0 0 1 0.248803,0.2501384 L 11.544659,3.1852638 A 1.2434792,1.2463341 0 0 0 11.091246,2.7298772 L 6.8895224,0.29914586 A 1.2434792,1.2463341 0 0 0 5.6474121,0.29875446 L 1.446879,2.7295563 A 1.2434792,1.2463341 0 0 0 0.99203651,3.1857531 Z"
     id="path_q_top_part"
     class="ColorScheme-Text"
     style="fill:url(#oomox);fill-opacity:0.5;stroke:none;stroke-width:0.0782966" />
  <metadata
     id="metadata434">
    <rdf:RDF>
      <cc:Work
         rdf:about="">
        <dc:creator>
          <cc:Agent>
            <dc:title>driefacherspass</dc:title>
          </cc:Agent>
        </dc:creator>
        <cc:license
           rdf:resource="http://creativecommons.org/licenses/by-sa/4.0/" />
      </cc:Work>
      <cc:License
         rdf:about="http://creativecommons.org/licenses/by-sa/4.0/">
        <cc:permits
           rdf:resource="http://creativecommons.org/ns#Reproduction" />
        <cc:permits
           rdf:resource="http://creativecommons.org/ns#Distribution" />
        <cc:requires
           rdf:resource="http://creativecommons.org/ns#Notice" />
        <cc:requires
           rdf:resource="http://creativecommons.org/ns#Attribution" />
        <cc:permits
           rdf:resource="http://creativecommons.org/ns#DerivativeWorks" />
        <cc:requires
           rdf:resource="http://creativecommons.org/ns#ShareAlike" />
      </cc:License>
    </rdf:RDF>
  </metadata>
</svg>
