<?xml version="1.0" encoding="UTF-8" standalone="no"?>
<!-- Created with Inkscape (http://www.inkscape.org/) -->

<svg
   width="48"
   height="48"
   viewBox="0 0 48.000004 47.999996"
   version="1.1"
   id="svg1"
   style="enable-background:new"
   xmlns="http://www.w3.org/2000/svg"
   xmlns:svg="http://www.w3.org/2000/svg"
   xmlns:rdf="http://www.w3.org/1999/02/22-rdf-syntax-ns#"
   xmlns:cc="http://creativecommons.org/ns#"
   xmlns:dc="http://purl.org/dc/elements/1.1/">
  <defs
     id="defs2">
    <style
       id="current-color-scheme"
       type="text/css">
      .ColorScheme-Text { color: #0abdc6; } .ColorScheme-Highlight { color:#5294e2; }
     </style>
    <linearGradient
       id="arrongin"
       x1="0%"
       x2="0%"
       y1="0%"
       y2="100%">
      <stop
         offset="0%"
         style="stop-color:#dd9b44; stop-opacity:1"
         id="stop9192" />
      <stop
         offset="100%"
         style="stop-color:#ad6c16; stop-opacity:1"
         id="stop9194" />
    </linearGradient>
    <linearGradient
       id="aurora"
       x1="0%"
       x2="0%"
       y1="0%"
       y2="100%">
      <stop
         offset="0%"
         style="stop-color:#09D4DF; stop-opacity:1"
         id="stop9197" />
      <stop
         offset="100%"
         style="stop-color:#9269F4; stop-opacity:1"
         id="stop9199" />
    </linearGradient>
    <linearGradient
       id="cyberneon"
       x1="0%"
       x2="0%"
       y1="0%"
       y2="100%">
      <stop
         offset="0"
         style="stop-color:#0abdc6; stop-opacity:1"
         id="stop9202" />
      <stop
         offset="1"
         style="stop-color:#ea00d9; stop-opacity:1"
         id="stop9204" />
    </linearGradient>
    <linearGradient
       id="fitdance"
       x1="0%"
       x2="0%"
       y1="0%"
       y2="100%">
      <stop
         offset="0%"
         style="stop-color:#1AD6AB; stop-opacity:1"
         id="stop9207" />
      <stop
         offset="100%"
         style="stop-color:#329DB6; stop-opacity:1"
         id="stop9209" />
    </linearGradient>
    <linearGradient
       id="oomox"
       x1="0%"
       x2="0%"
       y1="0%"
       y2="100%">
      <stop
         offset="0%"
         style="stop-color:#0abdc6; stop-opacity:1"
         id="stop9212" />
      <stop
         offset="100%"
         style="stop-color:#b800ff; stop-opacity:1"
         id="stop9214" />
    </linearGradient>
    <linearGradient
       id="rainblue"
       x1="0%"
       x2="0%"
       y1="0%"
       y2="100%">
      <stop
         offset="0%"
         style="stop-color:#00F260; stop-opacity:1"
         id="stop9217" />
      <stop
         offset="100%"
         style="stop-color:#0575E6; stop-opacity:1"
         id="stop9219" />
    </linearGradient>
    <linearGradient
       id="sunrise"
       x1="0%"
       x2="0%"
       y1="0%"
       y2="100%">
      <stop
         offset="0%"
         style="stop-color: #FF8501; stop-opacity:1"
         id="stop9222" />
      <stop
         offset="100%"
         style="stop-color: #FFCB01; stop-opacity:1"
         id="stop9224" />
    </linearGradient>
    <linearGradient
       id="telinkrin"
       x1="0%"
       x2="0%"
       y1="0%"
       y2="100%">
      <stop
         offset="0%"
         style="stop-color: #b2ced6; stop-opacity:1"
         id="stop9227" />
      <stop
         offset="100%"
         style="stop-color: #6da5b7; stop-opacity:1"
         id="stop9229" />
    </linearGradient>
    <linearGradient
       id="60spsycho"
       x1="0%"
       x2="0%"
       y1="0%"
       y2="100%">
      <stop
         offset="0%"
         style="stop-color: #df5940; stop-opacity:1"
         id="stop9232" />
      <stop
         offset="25%"
         style="stop-color: #d8d15f; stop-opacity:1"
         id="stop9234" />
      <stop
         offset="50%"
         style="stop-color: #e9882a; stop-opacity:1"
         id="stop9236" />
      <stop
         offset="100%"
         style="stop-color: #279362; stop-opacity:1"
         id="stop9238" />
    </linearGradient>
    <linearGradient
       id="90ssummer"
       x1="0%"
       x2="0%"
       y1="0%"
       y2="100%">
      <stop
         offset="0%"
         style="stop-color: #f618c7; stop-opacity:1"
         id="stop9241" />
      <stop
         offset="20%"
         style="stop-color: #94ffab; stop-opacity:1"
         id="stop9243" />
      <stop
         offset="50%"
         style="stop-color: #fbfd54; stop-opacity:1"
         id="stop9245" />
      <stop
         offset="100%"
         style="stop-color: #0f83ae; stop-opacity:1"
         id="stop9247" />
    </linearGradient>
  </defs>
  <metadata
     id="metadata1">
    <rdf:RDF>
      <cc:Work
         rdf:about="">
        <dc:format>image/svg+xml</dc:format>
        <dc:type
           rdf:resource="http://purl.org/dc/dcmitype/StillImage" />
        <dc:creator>
          <cc:Agent>
            <dc:title>dreifacherspass</dc:title>
          </cc:Agent>
        </dc:creator>
        <cc:license
           rdf:resource="http://creativecommons.org/licenses/by-sa/4.0/" />
      </cc:Work>
      <cc:License
         rdf:about="http://creativecommons.org/licenses/by-sa/4.0/">
        <cc:permits
           rdf:resource="http://creativecommons.org/ns#Reproduction" />
        <cc:permits
           rdf:resource="http://creativecommons.org/ns#Distribution" />
        <cc:requires
           rdf:resource="http://creativecommons.org/ns#Notice" />
        <cc:requires
           rdf:resource="http://creativecommons.org/ns#Attribution" />
        <cc:permits
           rdf:resource="http://creativecommons.org/ns#DerivativeWorks" />
        <cc:requires
           rdf:resource="http://creativecommons.org/ns#ShareAlike" />
      </cc:License>
    </rdf:RDF>
  </metadata>
  <path
     id="path1"
     class="ColorScheme-Text"
     style="enable-background:new;fill:url(#oomox);fill-opacity:1;stroke-width:0.682085;stroke-linecap:round;stroke-linejoin:round"
     d="m 294.18353,286.29588 a 84.803757,84.803757 0 0 0 1.90208,-7.83545 84.803757,84.803757 0 0 0 1.14997,-12.04599 84.803757,84.803757 0 0 0 -0.57521,-12.08518 84.803757,84.803757 0 0 0 -2.29016,-11.88245 l -43.24405,11.5872 a 40.033501,40.033501 0 0 1 -0.0886,20.70095 z"
     transform="matrix(0.27711099,0,0,0.27711099,-34.873992,-49.267118)" />
  <path
     id="path2"
     class="ColorScheme-Text"
     style="enable-background:new;fill:url(#oomox);fill-opacity:0.8;stroke-width:0.682085;stroke-linecap:round;stroke-linejoin:round"
     d="m 272.28532,324.2247 a 84.803757,84.803757 0 0 0 2.92179,-2.7847 84.803757,84.803757 0 0 0 7.47908,-9.50977 84.803757,84.803757 0 0 0 6.05046,-10.4797 84.803757,84.803757 0 0 0 4.49616,-11.23195 84.803757,84.803757 0 0 0 0.95072,-3.9227 l -43.14595,-11.56092 a 40.033501,40.033501 0 0 1 -10.33729,17.90471 z"
     transform="matrix(0.27711099,0,0,0.27711099,-34.873992,-49.267118)" />
  <path
     id="path3"
     class="ColorScheme-Text"
     style="enable-background:new;fill:url(#oomox);fill-opacity:0.6;stroke-width:0.682085;stroke-linecap:round;stroke-linejoin:round"
     d="m 234.40424,346.3109 a 84.803757,84.803757 0 0 0 11.4356,-3.95789 84.803757,84.803757 0 0 0 10.75367,-5.54444 84.803757,84.803757 0 0 0 9.85715,-7.0189 84.803757,84.803757 0 0 0 5.83466,-5.56497 l -31.58503,-31.58503 a 40.033501,40.033501 0 0 1 -17.88325,10.42719 z"
     transform="matrix(0.27711099,0,0,0.27711099,-34.873992,-49.267118)" />
  <path
     id="path4"
     class="ColorScheme-Text"
     style="enable-background:new;fill:url(#oomox);fill-opacity:0.4;stroke-width:0.682085;stroke-linecap:round;stroke-linejoin:round"
     d="m 190.55705,346.12372 a 84.803757,84.803757 0 0 0 7.83545,1.90208 84.803757,84.803757 0 0 0 12.04598,1.14998 84.803757,84.803757 0 0 0 12.08519,-0.57522 84.803757,84.803757 0 0 0 11.88057,-2.28966 l -11.5872,-43.24404 a 40.033501,40.033501 0 0 1 -20.69907,-0.0891 z"
     transform="matrix(0.27711099,0,0,0.27711099,-34.873992,-49.267118)" />
  <path
     id="path5"
     class="ColorScheme-Text"
     style="enable-background:new;fill:url(#oomox);fill-opacity:0.6;stroke-width:0.682085;stroke-linecap:round;stroke-linejoin:round"
     d="m 152.62823,324.22551 a 84.803757,84.803757 0 0 0 2.7847,2.9218 84.803757,84.803757 0 0 0 9.50976,7.47907 84.803757,84.803757 0 0 0 10.4797,6.05046 84.803757,84.803757 0 0 0 11.23196,4.49616 84.803757,84.803757 0 0 0 3.9227,0.95072 l 11.56092,-43.14594 a 40.033501,40.033501 0 0 1 -17.90472,-10.3373 z"
     transform="matrix(0.27711099,0,0,0.27711099,-34.873992,-49.267118)" />
  <path
     id="path6"
     class="ColorScheme-Text"
     style="enable-background:new;fill:url(#oomox);fill-opacity:0.8;stroke-width:0.682085;stroke-linecap:round;stroke-linejoin:round"
     d="m 130.54202,286.34444 a 84.803757,84.803757 0 0 0 3.9579,11.43559 84.803757,84.803757 0 0 0 5.54444,10.75367 84.803757,84.803757 0 0 0 7.0189,9.85715 84.803757,84.803757 0 0 0 5.56497,5.83466 l 31.58502,-31.58503 a 40.033501,40.033501 0 0 1 -10.42718,-17.88325 z"
     transform="matrix(0.27711099,0,0,0.27711099,-34.873992,-49.267118)" />
  <path
     id="path7"
     class="ColorScheme-Text"
     style="enable-background:new;fill:url(#oomox);fill-opacity:1;stroke-width:0.682085;stroke-linecap:round;stroke-linejoin:round"
     d="m 130.72921,242.49724 a 84.803757,84.803757 0 0 0 -1.90208,7.83545 84.803757,84.803757 0 0 0 -1.14997,12.04599 84.803757,84.803757 0 0 0 0.57521,12.08518 84.803757,84.803757 0 0 0 2.28965,11.88058 l 43.24405,-11.58721 a 40.033501,40.033501 0 0 1 0.0891,-20.69907 z"
     transform="matrix(0.27711099,0,0,0.27711099,-34.873992,-49.267118)" />
  <path
     id="path8"
     class="ColorScheme-Text"
     style="enable-background:new;fill:url(#oomox);fill-opacity:0.8;stroke-width:0.682085;stroke-linecap:round;stroke-linejoin:round"
     d="m 152.62742,204.56842 a 84.803757,84.803757 0 0 0 -2.92179,2.7847 84.803757,84.803757 0 0 0 -7.47909,9.50977 84.803757,84.803757 0 0 0 -6.05045,10.4797 84.803757,84.803757 0 0 0 -4.49616,11.23196 84.803757,84.803757 0 0 0 -0.95072,3.92269 l 43.14594,11.56092 a 40.033501,40.033501 0 0 1 10.33729,-17.90471 z"
     transform="matrix(0.27711099,0,0,0.27711099,-34.873992,-49.267118)" />
  <path
     id="path9"
     class="ColorScheme-Text"
     style="enable-background:new;fill:url(#oomox);fill-opacity:0.6;stroke-width:0.682085;stroke-linecap:round;stroke-linejoin:round"
     d="m 190.50661,182.48272 a 84.803757,84.803757 0 0 0 -11.4337,3.95739 84.803757,84.803757 0 0 0 -10.75369,5.54444 84.803757,84.803757 0 0 0 -9.85714,7.0189 84.803757,84.803757 0 0 0 -5.83466,5.56497 l 31.58502,31.58503 a 40.033501,40.033501 0 0 1 17.88138,-10.42668 z"
     transform="matrix(0.27711099,0,0,0.27711099,-34.873992,-49.267118)" />
  <path
     id="path10"
     class="ColorScheme-Text"
     style="enable-background:new;fill:url(#oomox);fill-opacity:0.4;stroke-width:0.682085;stroke-linecap:round;stroke-linejoin:round"
     d="m 234.40028,182.50378 a 84.803757,84.803757 0 0 0 -2.68754,-0.69529 84.803757,84.803757 0 0 0 -4.07443,-0.84536 84.803757,84.803757 0 0 0 -4.11369,-0.64477 84.803757,84.803757 0 0 0 -4.13823,-0.44206 84.803757,84.803757 0 0 0 -4.15611,-0.23708 84.803757,84.803757 0 0 0 -4.16076,-0.0357 84.803757,84.803757 0 0 0 -4.16015,0.17042 84.803757,84.803757 0 0 0 -4.1458,0.37485 84.803757,84.803757 0 0 0 -4.12205,0.57675 84.803757,84.803757 0 0 0 -4.08833,0.77801 84.803757,84.803757 0 0 0 -4.04658,0.97913 l 11.58721,43.24405 a 40.033501,40.033501 0 0 1 20.72361,-4e-4 z"
     transform="matrix(0.27711099,0,0,0.27711099,-34.873992,-49.267118)" />
  <path
     id="path11"
     class="ColorScheme-Text"
     style="enable-background:new;fill:url(#oomox);fill-opacity:0.6;stroke-width:0.682085;stroke-linecap:round;stroke-linejoin:round"
     d="m 272.40565,204.44619 a 84.803757,84.803757 0 0 0 -0.97271,-0.98898 84.803757,84.803757 0 0 0 -3.06249,-2.81905 84.803757,84.803757 0 0 0 -3.19592,-2.66804 84.803757,84.803757 0 0 0 -3.32256,-2.50673 84.803757,84.803757 0 0 0 -3.44149,-2.33938 84.803757,84.803757 0 0 0 -3.55187,-2.17028 84.803757,84.803757 0 0 0 -3.65546,-1.99088 84.803757,84.803757 0 0 0 -3.74859,-1.81022 84.803757,84.803757 0 0 0 -3.83217,-1.62405 84.803757,84.803757 0 0 0 -3.90717,-1.43612 84.803757,84.803757 0 0 0 -3.97211,-1.24078 84.803757,84.803757 0 0 0 -1.34283,-0.3479 l -11.58597,43.23354 a 40.033501,40.033501 0 0 1 17.94059,10.35801 z"
     transform="matrix(0.27711099,0,0,0.27711099,-34.873992,-49.267118)" />
  <path
     id="path12"
     class="ColorScheme-Text"
     style="enable-background:new;fill:url(#oomox);fill-opacity:0.8;stroke-width:0.682085;stroke-linecap:round;stroke-linejoin:round"
     d="m 294.37021,242.44681 a 84.803757,84.803757 0 0 0 -1.17483,-3.99212 84.803757,84.803757 0 0 0 -1.37039,-3.92961 84.803757,84.803757 0 0 0 -1.56204,-3.86005 84.803757,84.803757 0 0 0 -1.74777,-3.77592 84.803757,84.803757 0 0 0 -1.93249,-3.688 84.803757,84.803757 0 0 0 -2.11177,-3.58739 84.803757,84.803757 0 0 0 -2.28287,-3.47886 84.803757,84.803757 0 0 0 -2.45245,-3.36467 84.803757,84.803757 0 0 0 -2.61472,-3.23829 84.803757,84.803757 0 0 0 -2.76932,-3.10587 84.803757,84.803757 0 0 0 -1.94591,-1.97984 l -31.64233,31.64284 a 40.033501,40.033501 0 0 1 10.36284,17.94498 z"
     transform="matrix(0.27711099,0,0,0.27711099,-34.873992,-49.267118)" />
</svg>
