<?xml version="1.0" encoding="UTF-8" standalone="no"?>
<svg
   version="1.1"
   id="snake"
   x="0px"
   y="0px"
   width="16"
   height="16"
   viewBox="0 0 16 16"
   enable-background="new 0 0 512 512"
   xml:space="preserve"
   xmlns:xlink="http://www.w3.org/1999/xlink"
   xmlns="http://www.w3.org/2000/svg"
   xmlns:svg="http://www.w3.org/2000/svg"
   xmlns:rdf="http://www.w3.org/1999/02/22-rdf-syntax-ns#"
   xmlns:cc="http://creativecommons.org/ns#"
   xmlns:dc="http://purl.org/dc/elements/1.1/"><metadata
     id="metadata24"><rdf:RDF><cc:Work
         rdf:about=""><dc:format>image/svg+xml</dc:format><dc:type
           rdf:resource="http://purl.org/dc/dcmitype/StillImage" /><dc:creator><cc:Agent><dc:title>dreifacherspass</dc:title></cc:Agent></dc:creator><cc:license
           rdf:resource="http://creativecommons.org/licenses/by-sa/4.0/" /></cc:Work><cc:License
         rdf:about="http://creativecommons.org/licenses/by-sa/4.0/"><cc:permits
           rdf:resource="http://creativecommons.org/ns#Reproduction" /><cc:permits
           rdf:resource="http://creativecommons.org/ns#Distribution" /><cc:requires
           rdf:resource="http://creativecommons.org/ns#Notice" /><cc:requires
           rdf:resource="http://creativecommons.org/ns#Attribution" /><cc:permits
           rdf:resource="http://creativecommons.org/ns#DerivativeWorks" /><cc:requires
           rdf:resource="http://creativecommons.org/ns#ShareAlike" /></cc:License></rdf:RDF></metadata>
<defs>
   <style id="current-color-scheme" type="text/css">
   .ColorScheme-Text { color: #0abdc6; } .ColorScheme-Highlight { color:#5294e2; }
  </style>
  <linearGradient id="arrongin" x1="0%" x2="0%" y1="0%" y2="100%">
   <stop offset="0%" style="stop-color:#dd9b44; stop-opacity:1"/>
   <stop offset="100%" style="stop-color:#ad6c16; stop-opacity:1"/>
  </linearGradient>
  <linearGradient id="aurora" x1="0%" x2="0%" y1="0%" y2="100%">
   <stop offset="0%" style="stop-color:#09D4DF; stop-opacity:1"/>
   <stop offset="100%" style="stop-color:#9269F4; stop-opacity:1"/>
  </linearGradient>
  <linearGradient id="cyberneon" x1="0%" x2="0%" y1="0%" y2="100%">
    <stop offset="0" style="stop-color:#0abdc6; stop-opacity:1"/>
    <stop offset="1" style="stop-color:#ea00d9; stop-opacity:1"/>
  </linearGradient>
  <linearGradient id="fitdance" x1="0%" x2="0%" y1="0%" y2="100%">
   <stop offset="0%" style="stop-color:#1AD6AB; stop-opacity:1"/>
   <stop offset="100%" style="stop-color:#329DB6; stop-opacity:1"/>
  </linearGradient>
  <linearGradient id="oomox" x1="0%" x2="0%" y1="0%" y2="100%">
   <stop offset="0%" style="stop-color:#0abdc6; stop-opacity:1"/>
   <stop offset="100%" style="stop-color:#b800ff; stop-opacity:1"/>
  </linearGradient>
  <linearGradient id="rainblue" x1="0%" x2="0%" y1="0%" y2="100%">
   <stop offset="0%" style="stop-color:#00F260; stop-opacity:1"/>
   <stop offset="100%" style="stop-color:#0575E6; stop-opacity:1"/>
  </linearGradient>
  <linearGradient id="sunrise" x1="0%" x2="0%" y1="0%" y2="100%">
   <stop offset="0%" style="stop-color: #FF8501; stop-opacity:1"/>
   <stop offset="100%" style="stop-color: #FFCB01; stop-opacity:1"/>
  </linearGradient>
  <linearGradient id="telinkrin" x1="0%" x2="0%" y1="0%" y2="100%">
   <stop offset="0%" style="stop-color: #b2ced6; stop-opacity:1"/>
   <stop offset="100%" style="stop-color: #6da5b7; stop-opacity:1"/>
  </linearGradient>
  <linearGradient id="60spsycho" x1="0%" x2="0%" y1="0%" y2="100%">
   <stop offset="0%" style="stop-color: #df5940; stop-opacity:1"/>
   <stop offset="25%" style="stop-color: #d8d15f; stop-opacity:1"/>
   <stop offset="50%" style="stop-color: #e9882a; stop-opacity:1"/>
   <stop offset="100%" style="stop-color: #279362; stop-opacity:1"/>
  </linearGradient>
  <linearGradient id="90ssummer" x1="0%" x2="0%" y1="0%" y2="100%">
   <stop offset="0%" style="stop-color: #f618c7; stop-opacity:1"/>
   <stop offset="20%" style="stop-color: #94ffab; stop-opacity:1"/>
   <stop offset="50%" style="stop-color: #fbfd54; stop-opacity:1"/>
   <stop offset="100%" style="stop-color: #0f83ae; stop-opacity:1"/>
  </linearGradient>
 </defs>
 <path
     id="path14"
     class="ColorScheme-Text"
     style="display:inline;fill:url(#oomox)"
     d="M 257.47952 13.793069 C 192.33359 13.793069 131.07152 39.166615 85.006569 85.231569 C 38.940615 131.29652 13.568068 192.55859 13.568068 257.70452 C 13.568068 322.85046 38.941615 384.11352 85.006569 430.17747 C 131.07152 476.24243 192.33359 501.61597 257.47952 501.61597 C 322.62545 501.61597 383.88752 476.24243 429.95247 430.17747 C 476.01842 384.11352 501.39097 322.85046 501.39097 257.70452 C 501.39097 192.55859 476.01742 131.29552 429.95247 85.231569 C 383.88852 39.166615 322.62545 13.793069 257.47952 13.793069 z M 244.57256 71.364096 L 254.23777 71.424128 C 257.40377 71.558108 260.61192 71.73134 263.78292 71.904387 C 264.5769 71.935431 265.33419 72.060605 266.12418 72.144516 L 268.52547 72.384646 L 273.26803 72.924937 L 274.40864 73.045001 L 275.60929 73.225098 L 277.95055 73.585293 L 282.69311 74.365713 C 295.23108 76.603711 307.60097 80.055318 319.49294 84.75131 C 343.28791 94.120295 365.22961 108.28867 383.72756 126.17363 C 392.96257 135.12462 401.37404 144.95951 408.70102 155.58949 C 416.03002 166.21047 422.30109 177.55775 427.43111 189.44773 C 432.56208 201.33871 436.54954 213.79272 439.25749 226.4877 C 441.96448 239.18867 443.36982 249.81129 443.57982 262.80727 L 443.63985 262.80727 L 443.63985 265.14853 C 443.69978 274.16651 443.09302 283.18711 441.89891 292.16309 C 440.58591 301.12107 438.60959 309.99941 436.01574 318.69739 L 433.91461 325.18089 C 433.1674 327.32688 432.36727 329.41427 431.57334 331.54431 C 430.81046 333.68631 429.83588 335.76255 428.93192 337.84771 C 428.02519 339.9287 427.15544 342.01503 426.1104 344.03104 C 422.2024 352.24501 417.54499 360.08473 412.36299 367.56373 C 407.18103 375.05069 401.45664 382.18915 395.13371 388.75515 C 388.83468 395.34813 382.08076 401.54704 374.84277 407.12505 C 367.58581 412.67404 359.91808 417.68258 351.91041 422.13314 L 345.84714 425.31485 C 343.80114 426.33868 341.67481 427.27932 339.60378 428.25644 C 337.5428 429.26029 335.42827 430.09297 333.30038 430.95789 C 331.17839 431.8219 329.05891 432.69322 326.87692 433.41922 C 318.27593 436.61022 309.3586 438.98811 300.34262 440.74317 L 296.98081 441.40352 L 295.2999 441.70368 L 293.55896 441.94381 L 286.71528 442.90433 C 284.37228 443.15944 281.95243 443.30487 279.57143 443.50465 L 277.77046 443.68475 L 276.86997 443.74478 C 276.58495 443.76261 276.35757 443.7288 276.08955 443.74478 L 272.96787 443.86485 L 269.84618 443.98491 L 269.06576 444.04494 L 268.64554 444.04494 C 268.88052 444.04494 267.86809 444.05097 267.80508 444.04494 L 266.12418 444.04494 L 259.22046 443.92488 C 256.92547 443.81699 254.61672 443.65834 252.31674 443.50465 C 251.17175 443.40937 250.03789 443.35817 248.89489 443.20449 L 245.47305 442.8443 C 240.88506 442.39923 236.33366 441.51711 231.78567 440.74317 L 225.00202 439.24236 L 223.32111 438.88216 C 222.75811 438.74446 222.25724 438.6064 221.70024 438.46194 L 218.33843 437.50142 C 200.51746 432.63444 183.53628 424.83513 168.03131 414.74916 C 160.32333 409.63515 152.94846 403.94597 146.05947 397.76 L 141.01675 393.01744 C 139.36076 391.39446 137.77013 389.69177 136.15413 388.03476 C 134.51215 386.39976 133.0136 384.60091 131.47161 382.87198 L 129.19038 380.29059 C 128.42938 379.41582 127.70117 378.49309 126.96918 377.58913 L 124.80802 374.88767 C 124.08301 373.97972 123.37187 373.0781 122.70689 372.12619 L 118.62469 366.48314 C 116.06069 362.61418 113.45767 358.76779 111.18067 354.7168 C 106.52068 346.68781 102.37613 338.32224 99.05414 329.62328 C 98.139144 327.48128 97.417847 325.27373 96.652845 323.07975 L 95.512231 319.77797 C 95.11324 318.68302 94.83467 317.52815 94.491681 316.41616 C 93.849687 314.18016 93.155654 311.94454 92.570645 309.69254 L 90.949772 302.90888 C 90.663768 301.77889 90.442388 300.63305 90.229384 299.48704 L 89.62906 296.06519 L 88.968704 292.58332 L 88.488445 289.16147 L 88.068219 285.6796 L 87.828089 283.93866 C 87.755244 283.36269 87.700859 282.73969 87.647992 282.13769 L 87.047669 274.81374 L 86.987637 273.91326 L 86.987637 273.13283 L 86.927604 271.57199 L 86.807539 268.45031 L 86.747507 266.82944 L 86.747507 266.04902 L 86.687475 265.68882 C 86.671476 264.62691 86.687475 265.14033 86.687475 264.78834 L 86.747507 261.24643 L 86.867572 257.70452 C 86.887551 256.52353 86.981585 255.3436 87.047669 254.16261 L 87.287798 250.6207 C 87.335747 250.0277 87.347005 249.40874 87.407863 248.81973 L 87.647992 247.07879 L 88.068219 243.53688 C 88.220211 242.36388 88.329326 241.16398 88.548478 239.99498 C 88.948483 237.65398 89.316108 235.3052 89.749125 232.97119 L 91.309966 226.00744 C 91.899954 223.70244 92.535983 221.45676 93.170969 219.16375 C 98.587957 200.92678 107.36084 183.66141 118.86482 168.49644 C 124.6148 160.90746 131.06118 153.81604 138.07517 147.36505 C 145.09715 140.92607 152.69042 135.15373 160.7674 130.07574 C 176.92037 119.91176 194.96597 112.70031 213.71593 108.88432 C 216.06693 108.45432 218.44576 107.9596 220.79975 107.5636 L 227.88357 106.66312 C 228.45757 106.57613 229.12259 106.53988 229.74457 106.48302 L 231.66561 106.30293 L 235.44765 106.00276 L 236.40816 105.94273 C 236.71516 105.92091 237.07167 105.8827 237.30865 105.8827 L 238.86949 105.82267 L 241.99117 105.76263 L 243.55201 105.7026 L 243.97224 105.7026 C 243.65624 105.7026 244.81863 105.63657 244.87273 105.64257 L 245.77321 105.7026 L 249.37515 105.76263 L 252.91706 105.82267 L 256.519 106.0628 C 258.9 106.23179 261.28885 106.39113 263.66285 106.72315 L 267.20476 107.14338 L 269.00573 107.38351 L 270.74667 107.68367 C 289.68063 110.62766 308.07479 117.18594 324.71576 126.71393 C 341.37271 136.23791 356.29142 148.84985 368.53937 163.63382 C 380.77636 178.4278 390.28348 195.48984 396.51445 213.70081 C 399.63046 222.80479 401.92514 232.1639 403.35814 241.67588 L 404.25862 248.87976 C 404.46732 251.42776 404.6776 253.95588 404.85895 256.50387 L 404.91898 257.46439 L 404.91898 258.24481 L 404.97901 259.80565 L 405.03904 262.92733 L 405.09908 264.54821 C 405.10507 264.5522 405.1051 265.83072 405.09908 265.50873 L 405.09908 265.92895 L 405.09908 266.88947 L 404.97901 270.55144 C 404.61703 280.39242 403.25565 290.21222 400.77675 299.7872 C 398.30074 309.35618 394.80507 318.70419 390.33112 327.52215 C 385.85609 336.33815 380.43343 344.66254 374.18241 352.31551 C 367.91444 359.96153 360.80502 366.89467 353.05103 373.02667 C 345.29903 379.15566 336.85146 384.46719 327.9575 388.81518 C 319.05251 393.15419 309.66644 396.47347 300.04246 398.78055 L 296.44052 399.621 C 295.23751 399.90624 293.99654 400.10779 292.77854 400.34139 L 289.11657 401.00175 C 287.89258 401.17971 286.6836 401.32218 285.4546 401.48201 C 284.22059 401.63292 283.00557 401.77007 281.73259 401.90223 L 277.77046 402.26243 L 275.78939 402.38249 L 274.76884 402.44252 C 274.58888 402.45454 274.46664 402.44252 274.34861 402.44252 L 273.92838 402.50256 L 270.8067 402.56259 L 269.24586 402.62262 L 268.82563 402.62262 C 268.44564 402.62861 269.15415 402.61263 267.92515 402.62262 L 266.96463 402.62262 L 263.30266 402.50256 C 260.83266 402.48872 258.31966 402.25445 255.85865 402.08233 L 254.05768 401.90223 L 252.19667 401.72214 L 248.5347 401.24188 C 247.30471 401.10602 246.09672 400.85978 244.87273 400.64155 L 241.21075 399.9812 C 221.75079 396.20322 203.14057 388.00247 187.1216 376.38848 C 171.05463 364.80548 157.65749 349.60773 147.98051 332.32474 C 143.14552 323.68178 139.2563 314.517 136.4543 305.01001 C 135.06731 300.25702 133.83642 295.47524 132.97242 290.60225 L 132.3721 286.94028 C 132.1412 285.72129 132.0027 284.50131 131.8318 283.2783 L 131.41158 279.5563 C 131.27861 278.29729 131.21438 276.9632 131.11142 275.65419 L 130.81125 271.69206 L 130.75122 268.51034 L 130.75122 266.9495 L 130.69119 266.16908 L 130.69119 265.80889 C 130.68519 265.80889 130.68119 264.46235 130.69119 264.78834 L 130.81125 260.94627 C 130.83707 260.30729 130.82918 259.66624 130.87129 259.02523 L 131.05138 257.1042 C 131.16523 255.8282 131.28556 254.59917 131.41158 253.32216 L 131.89184 249.48009 C 131.98189 248.84308 132.02593 248.25207 132.13197 247.61908 L 132.49216 245.69805 C 132.72917 244.44306 132.9476 243.16902 133.21255 241.91601 L 134.11303 238.19401 C 134.38902 236.94001 134.71455 235.70398 135.07355 234.472 C 135.43953 233.24201 135.80516 231.96599 136.21417 230.74999 C 137.04516 228.32499 137.8596 225.91012 138.85559 223.54611 C 139.34959 222.36312 139.74136 221.15519 140.29637 220.0042 L 141.91724 216.52233 C 150.85122 198.07036 164.76779 182.15278 181.83875 171.0178 C 183.99775 169.6688 186.14129 168.32369 188.38228 167.1157 C 190.58427 165.8327 192.88494 164.70178 195.16594 163.57379 C 199.77993 161.4398 204.51957 159.46115 209.3936 157.99078 L 211.19458 157.45049 L 212.99555 156.9102 L 216.71755 155.94968 L 220.43956 155.16926 C 221.05856 155.03921 221.67556 154.86092 222.30056 154.74903 L 224.16156 154.44887 C 225.41456 154.24487 226.68762 154.0216 227.9436 153.84855 L 231.66561 153.42832 C 232.30361 153.36347 232.90463 153.23307 233.58664 153.18819 L 235.62774 153.06813 L 237.72888 152.94806 L 238.74943 152.88803 C 239.06942 152.87116 239.48803 152.88603 239.70994 152.88803 L 242.83163 152.828 L 244.93276 152.828 L 246.79376 152.88803 L 250.5758 153.06813 L 254.35784 153.42832 L 256.21884 153.60842 L 258.07984 153.84855 L 261.86188 154.38884 L 265.58389 155.10923 L 267.44489 155.46942 L 269.24586 155.94968 C 270.47086 156.25668 271.69283 156.52417 272.90783 156.85017 L 276.56981 157.93075 C 277.77981 158.28075 278.92472 158.70439 280.11172 159.1314 C 281.29271 159.56139 282.48263 159.98011 283.65363 160.45211 C 285.97362 161.41711 288.30535 162.33773 290.55735 163.45373 C 292.84834 164.49173 295.07198 165.68657 297.28097 166.87557 C 314.81894 176.65955 329.40371 191.24226 339.24359 208.47799 C 340.43349 210.65299 341.68841 212.82755 342.72546 215.08155 C 343.8412 217.29255 344.76195 219.58821 345.72708 221.86521 C 346.20319 223.0042 346.61379 224.1881 347.04779 225.34708 C 347.47472 226.50609 347.89435 227.63995 348.24844 228.82896 L 349.32902 232.37087 C 349.65882 233.56086 349.97756 234.7798 350.28954 235.97281 L 350.70976 237.77378 L 351.12999 239.57475 L 351.85038 243.17669 L 352.39067 246.83866 L 352.69083 248.63963 L 352.87093 250.50064 L 353.23112 254.16261 L 353.41122 257.82458 L 353.47125 259.62556 L 353.47125 261.48656 L 353.47125 265.14853 L 353.47125 267.72992 C 353.18224 278.8779 350.68227 287.39099 346.14731 297.50597 C 341.60429 307.62095 335.01901 316.7324 327.05702 324.22037 C 319.07704 331.68738 309.69118 337.5446 299.5622 341.32959 C 294.49821 343.22551 289.25478 344.61581 283.95379 345.47182 C 282.6208 345.65685 281.32165 345.87072 279.99165 346.01211 C 278.64865 346.13598 277.35149 346.28932 275.96948 346.37231 L 273.80832 346.43234 L 272.72774 346.49237 L 272.24748 346.49237 C 272.07047 346.49637 271.83106 346.50236 271.70719 346.49237 L 268.28534 346.43234 C 267.68137 346.43836 268.07607 346.42834 267.92515 346.43234 L 267.86512 346.43234 L 267.74505 346.43234 L 267.50492 346.43234 L 267.02466 346.37231 L 266.00411 346.31227 L 264.02305 346.19221 C 262.70104 346.06219 261.37391 345.92567 260.06091 345.77198 C 258.74291 345.58787 257.46582 345.32678 256.15881 345.11163 C 254.85881 344.86942 253.54671 344.5478 252.25671 344.27117 C 247.11272 343.03117 242.13367 341.3165 237.36868 339.10839 C 227.8417 334.69444 198.68824 315.85633 192.04425 290.84238 C 185.40032 265.82743 191.86416 249.72022 191.86416 249.72022 C 198.75715 233.56225 209.85107 226.19269 239.83001 217.24271 C 269.80495 208.28873 294.75961 220.60453 294.75961 220.60453 C 295.71261 237.41349 282.51301 249.23996 282.51301 249.23996 C 282.51301 249.23996 283.13503 237.21884 278.85104 234.17184 C 274.56404 231.12584 252.53264 250.55429 252.13664 251.70128 C 251.74764 252.84928 264.61384 271.3549 280.29181 271.3919 C 280.29181 271.3919 269.91465 279.051 246.6737 267.91002 C 246.6737 267.91002 221.85247 257.35652 214.73648 257.70452 C 207.6235 258.04752 204.56183 267.84719 206.09183 277.45516 C 207.62982 287.06415 213.35574 295.16471 213.35574 295.16471 C 213.35574 295.16471 218.96199 302.88574 224.94198 308.19173 C 227.93498 310.84072 231.20321 313.21452 234.60719 315.21551 C 238.01419 317.21551 241.55891 318.84706 245.23292 320.13817 C 248.91291 321.43095 252.70601 322.36576 256.519 322.89966 C 257.48001 323.00508 258.44256 323.12298 259.40056 323.19982 C 260.36156 323.26436 261.3251 323.39384 262.28211 323.43995 L 265.16366 323.49998 L 267.74505 323.37991 L 271.10686 323.19982 L 273.74829 322.83962 L 276.50978 322.29933 C 277.43679 322.11829 278.35326 321.90187 279.27126 321.69901 C 282.93126 320.779 286.46496 319.52193 289.83696 317.91697 C 293.20895 316.30397 296.39911 314.36486 299.3821 312.15386 C 302.36009 309.95087 305.13454 307.49388 307.60653 304.76989 C 312.56753 299.33889 316.3848 292.98579 318.83259 286.21989 C 320.06866 282.8379 320.98693 279.29925 321.53404 275.77426 C 322.08084 272.25226 322.26653 268.70552 322.13436 265.14853 L 321.89424 261.24643 L 321.71414 259.92572 L 321.41398 257.34433 L 320.99375 254.76293 L 320.81365 253.50226 L 320.51349 252.18154 L 319.9732 249.66018 L 319.31284 247.19886 L 318.95265 245.93818 L 318.59246 244.6775 L 317.752 242.21617 L 316.85152 239.81488 C 316.56954 239.00187 316.235 238.25961 315.891 237.47362 C 315.53802 236.69362 315.24946 235.84233 314.87045 235.07232 C 314.09847 233.53833 313.34115 231.98786 312.46916 230.50986 C 311.67517 228.99487 310.77577 227.58349 309.88776 226.1275 C 306.14077 220.41751 301.7076 215.13514 296.62061 210.63916 C 295.38563 209.47016 294.08155 208.47841 292.77854 207.39741 C 292.11254 206.8724 291.40944 206.34756 290.73744 205.83657 L 289.71689 205.11618 L 288.63631 204.39579 L 286.53518 202.95501 L 284.37401 201.69433 C 283.66901 201.24232 282.95083 200.82865 282.21285 200.43366 C 281.46586 200.04465 280.68863 199.64503 279.93162 199.29304 C 278.40764 198.57405 276.92916 197.80092 275.36916 197.19191 C 273.83616 196.49991 272.25063 195.97293 270.68664 195.39094 C 267.49864 194.37894 264.31042 193.39855 261.02143 192.80955 L 259.82078 192.56942 L 258.5601 192.38932 L 256.09878 191.96909 L 253.57742 191.72896 L 252.37677 191.6089 L 251.11609 191.54887 L 248.59473 191.36877 L 246.13341 191.36877 L 245.11286 191.36877 C 245.37488 191.35877 244.69476 191.36277 244.87273 191.36877 L 244.57256 191.4288 L 243.79214 191.4288 L 240.67046 191.54887 C 240.37146 191.55686 240.27023 191.5879 240.07014 191.6089 L 239.52985 191.66893 L 238.44926 191.789 L 237.36868 191.90906 C 237.0067 191.9401 236.56804 192.03814 236.16803 192.08916 L 233.70671 192.44935 C 232.8937 192.59234 232.05738 192.77654 231.24538 192.92961 L 230.04473 193.16974 C 229.64575 193.25488 229.24209 193.37185 228.84409 193.4699 L 226.44279 194.07023 L 224.10153 194.79061 L 222.90088 195.15081 L 221.76027 195.57103 L 219.41901 196.41149 L 217.13778 197.37201 C 216.37278 197.66701 215.66059 198.03755 214.91658 198.39256 C 214.17759 198.75254 213.41739 199.0241 212.69538 199.41311 C 211.24938 200.1971 209.76305 200.93841 208.37305 201.8144 C 206.94305 202.6244 205.60582 203.62585 204.23082 204.51586 C 193.45884 212.02684 184.72638 222.39789 179.3174 234.23187 C 178.67841 235.72587 177.99739 237.20629 177.45639 238.7343 C 176.83042 240.23329 176.3585 241.75974 175.83552 243.29676 C 175.58652 244.06676 175.39432 244.86201 175.17516 245.63802 C 174.95617 246.42201 174.72699 247.17927 174.57484 247.97928 L 174.09458 250.38057 C 173.94161 251.17757 173.81728 251.98186 173.67435 252.78187 L 173.43423 253.98251 C 173.37429 254.38252 173.36703 254.78014 173.31416 255.18316 L 173.014 257.58446 L 172.89393 260.04578 L 172.77387 261.24643 C 172.74787 261.65744 172.78687 262.10111 172.77387 262.50711 L 172.71384 264.9084 L 172.77387 267.48979 L 172.89393 270.61148 L 173.07403 272.89271 C 173.14718 273.66668 173.22226 274.41296 173.31416 275.23397 L 173.61432 277.75533 C 173.74028 278.60332 173.79163 279.49773 173.97452 280.33672 L 174.45478 282.85808 C 175.07878 286.22507 175.93811 289.54845 176.9161 292.82345 C 178.8951 299.37244 181.65648 305.65958 185.02047 311.61357 C 188.38346 317.57456 192.37282 323.16471 196.90688 328.30257 C 197.44885 328.96371 198.0518 329.60272 198.64781 330.2236 L 200.38875 332.08461 C 201.59974 333.29563 202.88075 334.4364 204.11076 335.62651 C 205.42476 336.72959 206.67687 337.92146 208.01286 338.98833 L 210.05396 340.54917 L 211.07451 341.38962 L 212.09506 342.11001 C 223.18104 350.15096 235.93914 355.82252 249.37515 358.43881 L 251.89651 358.91907 C 252.74149 359.07121 253.61989 359.19935 254.4779 359.27926 L 256.99926 359.63946 L 258.25994 359.81955 L 259.58065 359.87959 C 261.29365 359.9887 262.95641 360.18977 264.6834 360.17975 L 267.26479 360.23978 L 267.74505 360.29981 L 267.86512 360.29981 L 267.92515 360.29981 L 268.16528 360.29981 L 269.72612 360.23978 L 272.8478 360.17975 L 273.26803 360.17975 C 273.41194 360.17474 273.54308 360.12974 273.62822 360.11971 L 274.16851 360.05968 L 275.30913 359.99965 L 277.59036 359.81955 C 278.39633 359.7381 279.26871 359.61775 280.11172 359.51939 L 282.69311 359.1592 L 285.21447 358.73897 C 286.05748 358.57637 286.90483 358.46157 287.73583 358.25871 L 290.25718 357.71842 C 316.95813 351.60142 340.577 333.00687 352.99099 308.49189 C 356.12498 302.3949 358.61285 295.97556 360.37497 289.34157 C 362.13587 282.71058 363.09074 275.82456 363.37659 268.93057 L 363.49666 266.34918 L 363.49666 265.68882 L 363.49666 265.56876 C 363.50065 265.68666 363.50465 265.53958 363.49666 265.38866 L 363.49666 264.00792 L 363.43662 260.88623 L 363.37659 259.26536 L 363.37659 258.48494 L 363.31656 257.88462 C 363.17917 256.25762 363.06087 254.64498 362.95636 253.022 L 362.29601 247.73915 C 361.26701 240.68717 359.63126 233.72294 357.37336 226.96796 C 352.86538 213.45498 345.87628 200.71981 336.84229 189.62783 C 327.80132 178.54385 316.7648 169.07183 304.42482 161.83285 C 292.07684 154.60786 278.41815 149.57399 264.26318 147.24499 L 262.94246 146.94483 L 261.62175 146.82476 L 258.98033 146.46457 C 257.20933 146.17654 255.36441 146.07735 253.57742 145.92428 L 250.93599 145.68415 L 248.23454 145.62412 L 245.53308 145.50405 L 244.99279 145.50405 C 245.34956 145.50138 245.03427 145.50257 244.87273 145.50405 L 244.81269 145.50405 L 244.57256 145.50405 L 243.01172 145.56408 L 239.89004 145.62412 L 238.26917 145.62412 C 237.98215 145.62412 237.82489 145.67015 237.60881 145.68415 L 237.00849 145.74418 L 234.54716 145.92428 L 233.28648 145.98431 C 232.86647 146.0172 232.4898 146.03337 232.0258 146.10438 L 226.68292 146.7047 L 221.34004 147.60518 C 207.23607 150.31118 193.64647 155.57354 181.3585 163.09353 C 169.04852 170.59551 158.12417 180.38402 149.24119 191.789 C 140.34321 203.18798 133.51737 216.21263 129.19038 230.02961 C 127.00838 236.93259 125.49912 244.07205 124.62792 251.28106 L 124.38779 252.60177 C 124.33677 253.05178 124.30984 253.5325 124.26773 253.98251 L 124.08763 256.68397 C 124.02063 257.59196 123.8705 258.47344 123.8475 259.38543 L 123.78747 262.14691 L 123.6674 264.84837 C 123.66881 264.94675 123.6654 265.06719 123.6674 265.0885 L 123.6674 265.14853 L 123.6674 265.92895 L 123.72744 267.48979 L 123.72744 270.61148 L 123.78747 272.23235 L 123.78747 273.01277 C 123.79669 273.25178 123.8345 273.45305 123.8475 273.67313 L 124.2077 278.89594 C 124.24274 279.33597 124.21271 279.75465 124.26773 280.21665 L 124.44782 281.5974 L 124.80802 284.35889 L 125.10818 287.12037 L 125.58844 289.88186 L 126.0687 292.58332 C 126.21967 293.50031 126.32397 294.4418 126.54896 295.34481 L 127.7496 300.80775 C 128.1846 302.61175 128.71038 304.35463 129.19038 306.15063 C 129.44738 307.04363 129.6578 307.97709 129.9708 308.85209 L 130.87129 311.49351 C 131.45929 313.2595 131.96926 315.04936 132.67226 316.77636 C 135.19325 323.77934 138.42131 330.5513 142.0373 337.06729 C 143.7953 340.36431 145.86745 343.45644 147.86044 346.61244 L 151.04216 351.23493 C 151.55616 352.01502 152.15407 352.71322 152.72306 353.45612 L 154.40397 355.67732 C 154.97597 356.40824 155.53891 357.18359 156.14491 357.89852 L 157.94588 360.05968 C 159.16287 361.4786 160.3519 362.92798 161.66788 364.26195 C 162.95086 365.62284 164.19895 367.00526 165.50995 368.34415 L 169.53212 372.24625 C 175.02312 377.34326 180.84155 382.08384 187.00154 386.35385 C 199.40051 394.77185 213.03937 401.4343 227.46334 405.68427 L 230.1648 406.46469 C 230.61779 406.59532 231.09353 406.7589 231.54554 406.88492 L 232.92629 407.18508 L 238.38923 408.56582 C 242.08722 409.25586 245.74723 410.05194 249.49522 410.48686 L 252.31674 410.84705 C 253.24975 411.00381 254.20027 411.05193 255.13826 411.14722 C 257.01925 411.30213 258.90029 411.48916 260.7813 411.62747 L 266.42434 411.8676 L 267.80508 411.92764 L 267.86512 411.92764 L 268.22531 411.92764 L 269.00573 411.8676 L 272.12741 411.8676 L 275.30913 411.80757 C 275.56215 411.80358 275.79438 411.81756 276.02952 411.80757 L 276.74991 411.74754 L 278.07062 411.62747 C 279.85862 411.49807 281.59251 411.41789 283.4135 411.26728 L 289.05654 410.66696 L 290.49731 410.48686 L 291.87806 410.24673 L 294.69958 409.76647 C 302.14256 408.47747 309.51143 406.77659 316.67142 404.30353 C 318.49141 403.76164 320.24234 403.05839 322.0143 402.38249 C 323.7823 401.70936 325.57406 401.08143 327.29715 400.28136 C 329.03016 399.50434 330.80886 398.74816 332.51996 397.9401 L 337.62271 395.41874 C 344.34571 391.89473 350.78713 387.88127 356.95313 383.41227 C 363.09512 378.90626 368.87948 373.89426 374.30248 368.52424 C 379.74949 363.17126 384.67251 357.34286 389.1905 351.17489 C 393.7065 345.0129 397.8491 338.49434 401.31704 331.66438 C 402.24989 329.99038 403.02142 328.23452 403.8384 326.5016 C 404.65046 324.76959 405.49178 323.06673 406.17966 321.27878 C 406.89951 319.4988 407.66278 317.7299 408.34082 315.9359 L 410.32189 310.53299 C 412.71492 303.241 414.56878 295.77994 415.9049 288.20096 C 417.13498 280.60997 417.85706 272.86652 418.06607 265.14853 L 418.06607 264.60824 C 418.24403 253.24526 417.3255 242.43223 415.30458 231.23025 C 413.2846 220.03227 410.13055 209.01153 405.93953 198.39256 C 401.75054 187.77257 396.53808 177.5281 390.33112 167.89612 C 384.11511 158.27214 376.94258 149.22758 368.9596 140.94159 C 352.99563 124.36962 333.70612 110.86538 312.46916 101.6204 C 301.85617 96.995408 290.75031 93.356613 279.39133 90.87461 L 275.12903 90.034157 L 273.0279 89.613931 L 271.94732 89.433834 L 270.86673 89.253737 L 266.54441 88.593381 L 264.38324 88.293219 C 263.65626 88.191174 262.94909 88.04408 262.22208 87.993057 C 259.32408 87.728047 256.42337 87.390505 253.51738 87.152604 L 249.13502 86.972507 L 246.91383 86.852443 L 245.83324 86.852443 L 245.29295 86.79241 L 244.99279 86.79241 L 244.93276 86.79241 L 244.87273 86.79241 L 235.80784 86.852443 C 232.89485 86.976434 230.03717 87.128822 227.16318 87.272669 C 226.45317 87.291726 225.72703 87.377769 225.00202 87.452766 L 222.84085 87.692896 L 218.45849 88.173154 L 217.37791 88.293219 L 216.29733 88.473316 L 214.13616 88.773478 L 209.7538 89.493866 C 198.20582 91.508864 186.87553 94.65695 175.89555 98.918946 C 164.91757 103.17494 154.30451 108.53456 144.31853 114.88755 C 134.32755 121.22254 124.95844 128.54335 116.34346 136.73933 C 107.73347 144.94131 99.895859 154.00191 92.990872 163.75389 C 86.091885 173.51187 80.15932 184.00073 75.281328 194.97071 C 70.403338 205.94069 66.539174 217.41518 63.875181 229.18915 C 61.205184 240.96313 59.702725 253.00656 59.312722 265.14853 L 57.99201 265.14853 C 57.629008 252.92256 58.459369 240.65377 60.513369 228.5288 C 62.575363 216.40682 65.856654 204.40956 70.298642 192.86958 C 74.732636 181.3296 80.277617 170.2267 86.927604 159.73172 C 93.56159 149.22474 101.31201 139.35085 109.92 130.31587 C 118.54298 121.29488 128.05532 113.15072 138.3153 105.94273 C 148.58828 98.751744 159.62502 92.512756 171.153 87.452766 C 182.68397 82.395776 194.70236 78.512325 207.05234 75.80649 L 211.73487 74.845972 L 214.07613 74.365713 L 215.21674 74.125584 L 216.41739 74.005519 L 221.09991 73.285131 L 223.44118 72.924937 C 224.22517 72.811826 224.97244 72.685633 225.78244 72.624775 C 228.97843 72.324786 232.27965 72.030214 235.44765 71.784322 L 244.57256 71.364096 z M 258.62013 219.64401 L 253.99764 225.46715 L 272.30751 222.64563 L 258.62013 219.64401 z "
     transform="matrix(0.03253454,0,0,0.03253454,-0.37697774,-0.38429802)" />
 </svg>
