<?xml version="1.0" encoding="UTF-8" standalone="no"?>
<svg
   version="1.1"
   id="snake"
   x="0px"
   y="0px"
   width="16"
   height="16"
   viewBox="0 0 16 16"
   enable-background="new 0 0 512 512"
   xml:space="preserve"
   xmlns:xlink="http://www.w3.org/1999/xlink"
   xmlns="http://www.w3.org/2000/svg"
   xmlns:svg="http://www.w3.org/2000/svg"
   xmlns:rdf="http://www.w3.org/1999/02/22-rdf-syntax-ns#"
   xmlns:cc="http://creativecommons.org/ns#"
   xmlns:dc="http://purl.org/dc/elements/1.1/"><metadata
     id="metadata23"><rdf:RDF><cc:Work
         rdf:about=""><dc:format>image/svg+xml</dc:format><dc:type
           rdf:resource="http://purl.org/dc/dcmitype/StillImage" /><dc:creator><cc:Agent><dc:title>dreifacherspass</dc:title></cc:Agent></dc:creator><cc:license
           rdf:resource="http://creativecommons.org/licenses/by-sa/4.0/" /></cc:Work><cc:License
         rdf:about="http://creativecommons.org/licenses/by-sa/4.0/"><cc:permits
           rdf:resource="http://creativecommons.org/ns#Reproduction" /><cc:permits
           rdf:resource="http://creativecommons.org/ns#Distribution" /><cc:requires
           rdf:resource="http://creativecommons.org/ns#Notice" /><cc:requires
           rdf:resource="http://creativecommons.org/ns#Attribution" /><cc:permits
           rdf:resource="http://creativecommons.org/ns#DerivativeWorks" /><cc:requires
           rdf:resource="http://creativecommons.org/ns#ShareAlike" /></cc:License></rdf:RDF></metadata>
  <defs>
   <style id="current-color-scheme" type="text/css">
   .ColorScheme-Text { color: #0abdc6; } .ColorScheme-Highlight { color:#5294e2; }
  </style>
  <linearGradient id="arrongin" x1="0%" x2="0%" y1="0%" y2="100%">
   <stop offset="0%" style="stop-color:#dd9b44; stop-opacity:1"/>
   <stop offset="100%" style="stop-color:#ad6c16; stop-opacity:1"/>
  </linearGradient>
  <linearGradient id="aurora" x1="0%" x2="0%" y1="0%" y2="100%">
   <stop offset="0%" style="stop-color:#09D4DF; stop-opacity:1"/>
   <stop offset="100%" style="stop-color:#9269F4; stop-opacity:1"/>
  </linearGradient>
  <linearGradient id="cyberneon" x1="0%" x2="0%" y1="0%" y2="100%">
    <stop offset="0" style="stop-color:#0abdc6; stop-opacity:1"/>
    <stop offset="1" style="stop-color:#ea00d9; stop-opacity:1"/>
  </linearGradient>
  <linearGradient id="fitdance" x1="0%" x2="0%" y1="0%" y2="100%">
   <stop offset="0%" style="stop-color:#1AD6AB; stop-opacity:1"/>
   <stop offset="100%" style="stop-color:#329DB6; stop-opacity:1"/>
  </linearGradient>
  <linearGradient id="oomox" x1="0%" x2="0%" y1="0%" y2="100%">
   <stop offset="0%" style="stop-color:#0abdc6; stop-opacity:1"/>
   <stop offset="100%" style="stop-color:#b800ff; stop-opacity:1"/>
  </linearGradient>
  <linearGradient id="rainblue" x1="0%" x2="0%" y1="0%" y2="100%">
   <stop offset="0%" style="stop-color:#00F260; stop-opacity:1"/>
   <stop offset="100%" style="stop-color:#0575E6; stop-opacity:1"/>
  </linearGradient>
  <linearGradient id="sunrise" x1="0%" x2="0%" y1="0%" y2="100%">
   <stop offset="0%" style="stop-color: #FF8501; stop-opacity:1"/>
   <stop offset="100%" style="stop-color: #FFCB01; stop-opacity:1"/>
  </linearGradient>
  <linearGradient id="telinkrin" x1="0%" x2="0%" y1="0%" y2="100%">
   <stop offset="0%" style="stop-color: #b2ced6; stop-opacity:1"/>
   <stop offset="100%" style="stop-color: #6da5b7; stop-opacity:1"/>
  </linearGradient>
  <linearGradient id="60spsycho" x1="0%" x2="0%" y1="0%" y2="100%">
   <stop offset="0%" style="stop-color: #df5940; stop-opacity:1"/>
   <stop offset="25%" style="stop-color: #d8d15f; stop-opacity:1"/>
   <stop offset="50%" style="stop-color: #e9882a; stop-opacity:1"/>
   <stop offset="100%" style="stop-color: #279362; stop-opacity:1"/>
  </linearGradient>
  <linearGradient id="90ssummer" x1="0%" x2="0%" y1="0%" y2="100%">
   <stop offset="0%" style="stop-color: #f618c7; stop-opacity:1"/>
   <stop offset="20%" style="stop-color: #94ffab; stop-opacity:1"/>
   <stop offset="50%" style="stop-color: #fbfd54; stop-opacity:1"/>
   <stop offset="100%" style="stop-color: #0f83ae; stop-opacity:1"/>
  </linearGradient>
 </defs>
 <path
     d="m 8,0.64191548 c 0.993621,0 1.9571682,0.19446829 2.863874,0.57798072 0.87615,0.3705457 1.663074,0.9012172 2.339076,1.5771542 0.675969,0.6759691 1.206576,1.4629575 1.577154,2.3390437 C 15.163616,6.0428318 15.358085,7.006379 15.358085,8 c 0,0.993621 -0.194469,1.9571682 -0.577981,2.863874 -0.370578,0.876118 -0.901185,1.663107 -1.577154,2.339076 -0.676002,0.675969 -1.462958,1.206608 -2.339076,1.577186 C 9.9571682,15.163648 8.993621,15.358117 8,15.358117 c -0.993621,0 -1.9571682,-0.194469 -2.8638738,-0.577981 C 4.2600079,14.409558 3.4730516,13.878919 2.7970825,13.20295 2.1211134,12.526981 1.590474,11.739992 1.2199283,10.863874 0.83638377,9.9571682 0.64191548,8.993621 0.64191548,8 c 0,-0.993621 0.19446829,-1.9571682 0.57798072,-2.8639059 C 1.5904419,4.2599758 2.1211134,3.4730195 2.7970504,2.7970504 3.4730195,2.1210813 4.2600079,1.5904419 5.1360941,1.2198962 6.0428318,0.83638377 7.006379,0.64191548 8,0.64191548 M 8,0 C 3.5817279,0 0,3.5817279 0,8 c 0,4.41824 3.5817279,8 8,8 4.418272,0 8,-3.581792 8,-8 C 16,3.5817279 12.418272,0 8,0 Z"
     id="path27"
     class="ColorScheme-Text"
     style="display:inline;stroke-width:0.0320958;fill:url(#oomox)" />
 <path
     id="path28"
     class="ColorScheme-Text"
     style="display:inline;stroke-width:0.0320958;fill:url(#oomox)"
     d="M 7.8148851,0.87298297 C 7.2584352,0.88181733 6.6490131,0.95888098 6.0131965,1.1487433 3.46993,1.9082249 2.0238431,4.0785772 2.0377085,4.4424467 2.051606,4.806284 2.7288617,6.7952498 5.0359678,8.6929426 1.75543,5.1148775 6.594995,5.4502039 6.594995,5.4502039 8.5669574,6.3954877 9.4480082,5.7437672 9.4480082,5.7437672 8.1177042,5.740686 7.0275379,4.1710403 7.060885,4.0735333 7.094233,3.9760583 8.9637202,2.3300115 9.3274613,2.5884143 c 0.3636766,0.258467 0.308044,1.2776876 0.308044,1.2776876 0,0 1.1228117,-1.0057074 1.0415457,-2.4318817 0,0 -1.1928163,-0.58774029 -2.8621659,-0.56123723 z M 7.9723549,1.2366933 8.8115468,1.5248657 c 0,0 -0.5195991,0.039021 -0.8866458,0.2731275 L 7.1883906,1.2659055 Z" />
 <path
     d="M 6.8902565,14.536818 C 6.8695868,14.055285 5.8564837,12.573616 3.3449574,10.531971 0.83346305,8.490295 1.7912009,4.8638898 1.7912009,4.8638898 c 0,0 0.503326,2.1009252 3.0200519,4.1361824 2.5166938,2.0351608 2.0571465,5.0552768 2.0790037,5.5367458 z"
     id="path11"
     class="ColorScheme-Text"
     style="display:inline;stroke-width:0.0320958;fill:url(#oomox)" />
 <path
     d="M 6.763414,15.08113 C 6.7427443,14.599629 5.5885161,13.033291 3.0770218,10.991583 0.56552753,8.9499707 1.4385968,5.3517456 1.4385968,5.3517456 c 0,0 -2.6764024,7.0728814 5.3248172,9.7293844 z"
     id="path17"
     class="ColorScheme-Text"
     style="stroke-width:0.0320958;fill:url(#oomox)" />
 </svg>
