<?xml version="1.0" encoding="UTF-8" standalone="no"?>
<!-- Uploaded to: SVG Repo, www.svgrepo.com, Generator: SVG Repo Mixer Tools -->

<svg
   fill="#000000"
   height="16"
   width="16"
   version="1.1"
   id="Layer_1"
   viewBox="0 0 10.24 10.24"
   xml:space="preserve"
   xmlns="http://www.w3.org/2000/svg"
   xmlns:svg="http://www.w3.org/2000/svg"
   xmlns:rdf="http://www.w3.org/1999/02/22-rdf-syntax-ns#"
   xmlns:cc="http://creativecommons.org/ns#"
   xmlns:dc="http://purl.org/dc/elements/1.1/">
   <defs>
   <style id="current-color-scheme" type="text/css">
   .ColorScheme-Text { color: #0abdc6; } .ColorScheme-Highlight { color:#5294e2; }
  </style>
  <linearGradient id="arrongin" x1="0%" x2="0%" y1="0%" y2="100%">
   <stop offset="0%" style="stop-color:#dd9b44; stop-opacity:1"/>
   <stop offset="100%" style="stop-color:#ad6c16; stop-opacity:1"/>
  </linearGradient>
  <linearGradient id="aurora" x1="0%" x2="0%" y1="0%" y2="100%">
   <stop offset="0%" style="stop-color:#09D4DF; stop-opacity:1"/>
   <stop offset="100%" style="stop-color:#9269F4; stop-opacity:1"/>
  </linearGradient>
  <linearGradient id="cyberneon" x1="0%" x2="0%" y1="0%" y2="100%">
    <stop offset="0" style="stop-color:#0abdc6; stop-opacity:1"/>
    <stop offset="1" style="stop-color:#ea00d9; stop-opacity:1"/>
  </linearGradient>
  <linearGradient id="fitdance" x1="0%" x2="0%" y1="0%" y2="100%">
   <stop offset="0%" style="stop-color:#1AD6AB; stop-opacity:1"/>
   <stop offset="100%" style="stop-color:#329DB6; stop-opacity:1"/>
  </linearGradient>
  <linearGradient id="oomox" x1="0%" x2="0%" y1="0%" y2="100%">
   <stop offset="0%" style="stop-color:#0abdc6; stop-opacity:1"/>
   <stop offset="100%" style="stop-color:#b800ff; stop-opacity:1"/>
  </linearGradient>
  <linearGradient id="rainblue" x1="0%" x2="0%" y1="0%" y2="100%">
   <stop offset="0%" style="stop-color:#00F260; stop-opacity:1"/>
   <stop offset="100%" style="stop-color:#0575E6; stop-opacity:1"/>
  </linearGradient>
  <linearGradient id="sunrise" x1="0%" x2="0%" y1="0%" y2="100%">
   <stop offset="0%" style="stop-color: #FF8501; stop-opacity:1"/>
   <stop offset="100%" style="stop-color: #FFCB01; stop-opacity:1"/>
  </linearGradient>
  <linearGradient id="telinkrin" x1="0%" x2="0%" y1="0%" y2="100%">
   <stop offset="0%" style="stop-color: #b2ced6; stop-opacity:1"/>
   <stop offset="100%" style="stop-color: #6da5b7; stop-opacity:1"/>
  </linearGradient>
  <linearGradient id="60spsycho" x1="0%" x2="0%" y1="0%" y2="100%">
   <stop offset="0%" style="stop-color: #df5940; stop-opacity:1"/>
   <stop offset="25%" style="stop-color: #d8d15f; stop-opacity:1"/>
   <stop offset="50%" style="stop-color: #e9882a; stop-opacity:1"/>
   <stop offset="100%" style="stop-color: #279362; stop-opacity:1"/>
  </linearGradient>
  <linearGradient id="90ssummer" x1="0%" x2="0%" y1="0%" y2="100%">
   <stop offset="0%" style="stop-color: #f618c7; stop-opacity:1"/>
   <stop offset="20%" style="stop-color: #94ffab; stop-opacity:1"/>
   <stop offset="50%" style="stop-color: #fbfd54; stop-opacity:1"/>
   <stop offset="100%" style="stop-color: #0f83ae; stop-opacity:1"/>
  </linearGradient>
 </defs>
<path
   d="m 2.87625,4.4525 v 1.055 c 0,1.055122 0.7036335,1.75875 1.75875,1.75875 h 0.7025 c 1.0551203,0 1.6749307,-0.5500807 1.745,-1.40625 h 0.19 C 7.8000546,5.86 7.8,5.3325 7.8,5.3325 V 4.98 C 7.8,4.4524441 7.2725,4.4525 7.2725,4.4525 H 7.09625 Z M 7.2725,4.805 C 7.448351,4.793664 7.45375,4.99125 7.45375,4.99125 V 5.3425 c 0,0.1648635 -0.18125,0.165 -0.18125,0.165 H 7.09625 L 7.1,4.81 Z"
   style="opacity:1;fill:url(#oomox);stroke-width:0.0161428"
   id="path6"
   class="ColorScheme-Text"/>
<path
   id="path5"
   class="ColorScheme-Text"
   style="opacity:1;fill:url(#oomox);stroke-width:0.0161428"
   d="M 3.99875 1.99125 C 3.6125043 2.4780917 3.4969317 2.7176281 3.63625 3.0275 C 3.7625419 3.3084005 4.0891045 3.4516355 3.925 4.10125 C 4.1945473 3.7847451 4.4091582 3.3830095 4.1975 3.05875 C 3.9821816 2.7289564 3.8633432 2.5286585 3.99875 1.99125 z M 5.05375 1.99125 C 4.6675088 2.4780917 4.5519355 2.7176281 4.69125 3.0275 C 4.8175436 3.3084005 5.1441048 3.4516355 4.98 4.10125 C 5.2495507 3.7847451 5.4641653 3.3830095 5.2525 3.05875 C 5.037188 2.7289564 4.9183436 2.5286585 5.05375 1.99125 z M 6.10875 1.99125 C 5.7225118 2.4780917 5.6069382 2.7176281 5.74625 3.0275 C 5.8725487 3.3084005 6.1991045 3.4516355 6.035 4.10125 C 6.3045535 3.7847451 6.5191534 3.3830095 6.3075 3.05875 C 6.0921864 2.7289564 5.9733459 2.5286585 6.10875 1.99125 z " />
<path
   d="m 0.77875,0 v 10.24 h 8.6825 V 0 Z m 0.6675,0.6675 h 7.3475 v 7.34625 h -7.3475 z"
   style="opacity:1;fill:url(#oomox);stroke-width:0.0161428"
   id="path1"
   class="ColorScheme-Text"/>
<metadata
   id="metadata5240"><rdf:RDF><cc:Work
       rdf:about=""><dc:creator><cc:Agent><dc:title>dreifacherspass</dc:title></cc:Agent></dc:creator><cc:license
         rdf:resource="http://creativecommons.org/licenses/by-sa/4.0/" /></cc:Work><cc:License
       rdf:about="http://creativecommons.org/licenses/by-sa/4.0/"><cc:permits
         rdf:resource="http://creativecommons.org/ns#Reproduction" /><cc:permits
         rdf:resource="http://creativecommons.org/ns#Distribution" /><cc:requires
         rdf:resource="http://creativecommons.org/ns#Notice" /><cc:requires
         rdf:resource="http://creativecommons.org/ns#Attribution" /><cc:permits
         rdf:resource="http://creativecommons.org/ns#DerivativeWorks" /><cc:requires
         rdf:resource="http://creativecommons.org/ns#ShareAlike" /></cc:License></rdf:RDF></metadata></svg>
