<?xml version="1.0" encoding="UTF-8" standalone="no"?>
<svg
   width="48"
   height="48"
   version="1.1"
   id="svg4389"
   xmlns="http://www.w3.org/2000/svg"
   xmlns:svg="http://www.w3.org/2000/svg"
   xmlns:rdf="http://www.w3.org/1999/02/22-rdf-syntax-ns#"
   xmlns:cc="http://creativecommons.org/ns#"
   xmlns:dc="http://purl.org/dc/elements/1.1/">
  <defs
     id="defs4385">
    <style
       id="current-color-scheme"
       type="text/css">
      .ColorScheme-Text { color: #0abdc6; } .ColorScheme-Highlight { color:#5294e2; }
     </style>
    <linearGradient
       id="arrongin"
       x1="0%"
       x2="0%"
       y1="0%"
       y2="100%">
      <stop
         offset="0%"
         style="stop-color:#dd9b44; stop-opacity:1"
         id="stop9192" />
      <stop
         offset="100%"
         style="stop-color:#ad6c16; stop-opacity:1"
         id="stop9194" />
    </linearGradient>
    <linearGradient
       id="aurora"
       x1="0%"
       x2="0%"
       y1="0%"
       y2="100%">
      <stop
         offset="0%"
         style="stop-color:#09D4DF; stop-opacity:1"
         id="stop9197" />
      <stop
         offset="100%"
         style="stop-color:#9269F4; stop-opacity:1"
         id="stop9199" />
    </linearGradient>
    <linearGradient
       id="cyberneon"
       x1="0%"
       x2="0%"
       y1="0%"
       y2="100%">
      <stop
         offset="0"
         style="stop-color:#0abdc6; stop-opacity:1"
         id="stop9202" />
      <stop
         offset="1"
         style="stop-color:#ea00d9; stop-opacity:1"
         id="stop9204" />
    </linearGradient>
    <linearGradient
       id="fitdance"
       x1="0%"
       x2="0%"
       y1="0%"
       y2="100%">
      <stop
         offset="0%"
         style="stop-color:#1AD6AB; stop-opacity:1"
         id="stop9207" />
      <stop
         offset="100%"
         style="stop-color:#329DB6; stop-opacity:1"
         id="stop9209" />
    </linearGradient>
    <linearGradient
       id="oomox"
       x1="0%"
       x2="0%"
       y1="0%"
       y2="100%">
      <stop
         offset="0%"
         style="stop-color:#0abdc6; stop-opacity:1"
         id="stop9212" />
      <stop
         offset="100%"
         style="stop-color:#b800ff; stop-opacity:1"
         id="stop9214" />
    </linearGradient>
    <linearGradient
       id="rainblue"
       x1="0%"
       x2="0%"
       y1="0%"
       y2="100%">
      <stop
         offset="0%"
         style="stop-color:#00F260; stop-opacity:1"
         id="stop9217" />
      <stop
         offset="100%"
         style="stop-color:#0575E6; stop-opacity:1"
         id="stop9219" />
    </linearGradient>
    <linearGradient
       id="sunrise"
       x1="0%"
       x2="0%"
       y1="0%"
       y2="100%">
      <stop
         offset="0%"
         style="stop-color: #FF8501; stop-opacity:1"
         id="stop9222" />
      <stop
         offset="100%"
         style="stop-color: #FFCB01; stop-opacity:1"
         id="stop9224" />
    </linearGradient>
    <linearGradient
       id="telinkrin"
       x1="0%"
       x2="0%"
       y1="0%"
       y2="100%">
      <stop
         offset="0%"
         style="stop-color: #b2ced6; stop-opacity:1"
         id="stop9227" />
      <stop
         offset="100%"
         style="stop-color: #6da5b7; stop-opacity:1"
         id="stop9229" />
    </linearGradient>
    <linearGradient
       id="60spsycho"
       x1="0%"
       x2="0%"
       y1="0%"
       y2="100%">
      <stop
         offset="0%"
         style="stop-color: #df5940; stop-opacity:1"
         id="stop9232" />
      <stop
         offset="25%"
         style="stop-color: #d8d15f; stop-opacity:1"
         id="stop9234" />
      <stop
         offset="50%"
         style="stop-color: #e9882a; stop-opacity:1"
         id="stop9236" />
      <stop
         offset="100%"
         style="stop-color: #279362; stop-opacity:1"
         id="stop9238" />
    </linearGradient>
    <linearGradient
       id="90ssummer"
       x1="0%"
       x2="0%"
       y1="0%"
       y2="100%">
      <stop
         offset="0%"
         style="stop-color: #f618c7; stop-opacity:1"
         id="stop9241" />
      <stop
         offset="20%"
         style="stop-color: #94ffab; stop-opacity:1"
         id="stop9243" />
      <stop
         offset="50%"
         style="stop-color: #fbfd54; stop-opacity:1"
         id="stop9245" />
      <stop
         offset="100%"
         style="stop-color: #0f83ae; stop-opacity:1"
         id="stop9247" />
    </linearGradient>
  </defs>
  <metadata
     id="metadata4533">
    <rdf:RDF>
      <cc:License
         rdf:about="http://creativecommons.org/licenses/by-sa/4.0/">
        <cc:permits
           rdf:resource="http://creativecommons.org/ns#Reproduction" />
        <cc:permits
           rdf:resource="http://creativecommons.org/ns#Distribution" />
        <cc:requires
           rdf:resource="http://creativecommons.org/ns#Notice" />
        <cc:requires
           rdf:resource="http://creativecommons.org/ns#Attribution" />
        <cc:permits
           rdf:resource="http://creativecommons.org/ns#DerivativeWorks" />
        <cc:requires
           rdf:resource="http://creativecommons.org/ns#ShareAlike" />
      </cc:License>
      <cc:Work
         rdf:about="">
        <cc:license
           rdf:resource="http://creativecommons.org/licenses/by-sa/4.0/" />
        <dc:creator>
          <cc:Agent>
            <dc:title>dreifacherspass</dc:title>
          </cc:Agent>
        </dc:creator>
      </cc:Work>
    </rdf:RDF>
  </metadata>
  <path
     style="fill:url(#oomox);fill-opacity:1;fill-rule:nonzero;stroke:url(#oomox);stroke-width:0.495601;stroke-dasharray:none;image-rendering:optimizeQuality;shape-rendering:geometricPrecision;text-rendering:geometricPrecision"
     d="m 9.0252967,40.392437 c -1.632236,0 -3.1562416,0.206473 -4.5698426,0.615434 -1.4136449,0.408985 -2.5715833,0.932325 -3.47522361,1.573422 l 0.21943401,0.06774 c 1.5156973,-0.552727 2.3328714,-0.849936 2.4494969,-0.894122 0.8452641,-0.26529 1.6599721,-0.400613 2.4469453,-0.400613 0.9910335,0 2.1431754,0.210825 3.4548111,0.630917 1.3116342,0.420075 2.9151022,1.137035 4.8096892,2.15402 2.098602,1.105395 3.699604,1.858648 4.807137,2.256593 1.457359,0.508466 2.958703,0.762519 4.503503,0.762519 1.573948,0 3.455449,-0.275607 5.641496,-0.82832 l -2.362742,0.133537 c -1.923731,0 -3.816876,-0.421752 -5.682324,-1.261833 C 21.005376,45.09126 19.751006,44.462491 17.506679,43.31285 15.553751,42.295882 13.90764,41.553425 12.566861,41.089158 11.226041,40.624884 10.045434,40.39244 9.0252967,40.39244 Z"
     id="path5998"
     class="ColorScheme-Text"/>
  <path
     style="fill:url(#oomox);fill-opacity:1;fill-rule:nonzero;stroke:url(#oomox);stroke-width:0.435594;stroke-dasharray:none;image-rendering:optimizeQuality;shape-rendering:geometricPrecision;text-rendering:geometricPrecision"
     d="m 18.581137,33.514831 c -0.679072,0 -1.485629,0.159581 -2.421875,0.478516 -0.936239,0.318943 -1.742842,0.673456 -2.421875,1.064453 h 0.398438 c 1.172943,-0.493872 2.335985,-0.740235 3.488281,-0.740235 2.201758,0 5.114753,1.030127 8.736328,3.087891 1.913726,1.090594 3.023409,1.707507 3.332031,1.851563 1.234654,0.617317 2.381712,1.088704 3.441406,1.417968 1.0597,0.329279 2.167982,0.494141 3.320313,0.494141 1.090563,0 2.214325,-0.189652 3.376953,-0.570313 1.162625,-0.380657 2.371733,-0.981578 3.626953,-1.804687 H 43.1202 c -2.016588,0.967115 -3.869294,1.449219 -5.556641,1.449219 -1.337514,0 -2.75759,-0.287082 -4.259766,-0.863282 C 32.027999,38.886192 30.380888,38.042328 28.36434,36.848815 26.203693,35.57303 24.168665,34.65635 22.254965,34.100769 20.89686,33.709775 19.671698,33.514831 18.581137,33.514831 Z"
     id="path5996"
     class="ColorScheme-Text"/>
  <path
     style="fill:url(#oomox);fill-opacity:1;fill-rule:nonzero;stroke:url(#oomox);stroke-width:0.435594;stroke-dasharray:none;image-rendering:optimizeQuality;shape-rendering:geometricPrecision;text-rendering:geometricPrecision"
     d="m 35.292969,26.203125 c -2.135073,0.239652 -3.976562,0.600749 -5.523438,1.080078 -1.917236,0.588252 -3.528713,1.403426 -4.835937,2.449219 1.786562,-1.0676 3.671645,-1.859916 5.654297,-2.382813 1.721184,-0.457524 3.410561,-0.6875 5.066406,-0.6875 2.875879,0 5.380512,0.847475 7.515625,2.546875 2.244078,1.786566 3.363281,3.998517 3.363281,6.634766 0,2.461938 -0.965276,4.609336 -2.904297,6.439453 -2.04799,1.917288 -4.609673,2.876953 -7.68164,2.876953 -1.176507,0 -2.608341,-0.291745 -4.296875,-0.86914 -1.688497,-0.57738 -3.74375,-1.496101 -6.16211,-2.759766 -3.812734,-2.004407 -6.459906,-3.272866 -7.941406,-3.806641 -1.48146,-0.533765 -3.047317,-0.80078 -4.703125,-0.800781 -0.9586,0 -1.957265,0.179565 -2.9921875,0.539063 -1.0348844,0.359457 -1.8244642,0.746162 -2.3691406,1.160156 1.6122128,-0.47935 2.9842371,-0.720703 4.1171871,-0.720703 2.331163,0 6.177503,1.438545 11.53711,4.314453 2.549073,1.372592 4.77531,2.424462 6.68164,3.154297 1.906366,0.729853 3.545407,1.148886 4.917969,1.257812 l 1.472656,0.09961 c 2.854099,0 5.407157,-1.074653 7.66211,-3.220704 2.254953,-2.146054 3.382812,-4.611661 3.382812,-7.40039 0,-3.006635 -1.19522,-5.437125 -3.591797,-7.289063 -2.265786,-1.742955 -5.057522,-2.615231 -8.36914,-2.615234 z"
     id="path5524"
     class="ColorScheme-Text"/>
  <path
     id="path4535"
     class="ColorScheme-Text"
     style="fill:url(#oomox);fill-opacity:1;fill-rule:nonzero;stroke-width:1.00001;image-rendering:optimizeQuality;shape-rendering:geometricPrecision;text-rendering:geometricPrecision"
     d="m 38.863952,0.59394799 c -0.02742,-0.001082 -0.05601,-3.5827e-4 -0.08399,0.003906 -0.178139,0.033023 -0.344971,0.11936734 -0.472662,0.25000518 L 20.687918,17.473204 c -0.358827,0.339419 -0.374573,0.904861 -0.03516,1.263699 l 2.539097,2.679743 c 0.162322,0.171606 0.389151,0.272684 0.626962,0.279302 0.237804,0.0064 0.467065,-0.08376 0.638681,-0.246097 L 41.97923,4.7424715 c 0.356294,-0.3394911 0.368783,-0.8995746 0.0293,-1.2558854 L 39.570992,0.88301648 C 39.406132,0.71132825 39.18184,0.61032762 38.944031,0.60371381 c -0.02642,-0.005796 -0.05266,-0.008684 -0.08008,-0.009766 z M 18.357808,18.754481 c -0.224949,-0.01394 -0.444985,0.05724 -0.621103,0.199224 L 7.6877382,27.037857 c -0.1942394,0.15664 -0.3144465,0.385249 -0.3339891,0.632825 -0.01698,0.250183 0.070068,0.493773 0.2421909,0.675796 l 0.2675818,0.283208 C 6.1593683,30.276121 0.94364484,35.567723 0.78920478,39.118185 L 0.74623538,40.0225 1.652498,40.04789 c 3.6632732,0.101876 9.160309,-4.839629 10.886869,-6.472788 l 0.257816,0.273442 c 0.162326,0.17162 0.387777,0.270804 0.623056,0.27735 l 0.04297,0.002 c 0.25081,-0.0054 0.487046,-0.114966 0.654306,-0.30274 l 8.529415,-9.701373 c 0.305918,-0.34849 0.291386,-0.868365 -0.02344,-1.201197 l -3.677784,-3.8888 c -0.152422,-0.163729 -0.363017,-0.26292 -0.587898,-0.279303 z m -9.2755193,11.164295 2.2402653,2.367236 c -1.9831504,1.84629 -5.8414898,5.050621 -8.5059773,5.814574 0.9399392,-2.571571 4.3264877,-6.276063 6.265712,-8.18181 z" />
</svg>
