<?xml version="1.0" encoding="UTF-8" standalone="no"?>
<svg
   version="1.1"
   id="svg2"
   width="16"
   height="16"
   viewBox="0 0 16 16"
   xmlns="http://www.w3.org/2000/svg"
   xmlns:svg="http://www.w3.org/2000/svg"
   xmlns:rdf="http://www.w3.org/1999/02/22-rdf-syntax-ns#"
   xmlns:cc="http://creativecommons.org/ns#"
   xmlns:dc="http://purl.org/dc/elements/1.1/">
  <metadata
     id="metadata8">
    <rdf:RDF>
      <cc:Work
         rdf:about="">
        <dc:format>image/svg+xml</dc:format>
        <dc:type
           rdf:resource="http://purl.org/dc/dcmitype/StillImage" />
        <dc:creator>
          <cc:Agent>
            <dc:title>dreifacherspass</dc:title>
          </cc:Agent>
        </dc:creator>
        <cc:license
           rdf:resource="http://creativecommons.org/licenses/by-sa/4.0/" />
      </cc:Work>
      <cc:License
         rdf:about="http://creativecommons.org/licenses/by-sa/4.0/">
        <cc:permits
           rdf:resource="http://creativecommons.org/ns#Reproduction" />
        <cc:permits
           rdf:resource="http://creativecommons.org/ns#Distribution" />
        <cc:requires
           rdf:resource="http://creativecommons.org/ns#Notice" />
        <cc:requires
           rdf:resource="http://creativecommons.org/ns#Attribution" />
        <cc:permits
           rdf:resource="http://creativecommons.org/ns#DerivativeWorks" />
        <cc:requires
           rdf:resource="http://creativecommons.org/ns#ShareAlike" />
      </cc:License>
    </rdf:RDF>
  </metadata>
  <defs>
     <style id="current-color-scheme" type="text/css">
        .ColorScheme-Text { color: #0abdc6; } .ColorScheme-Highlight { color:#5294e2; }
     </style>
     <linearGradient id="arrongin" x1="0%" x2="0%" y1="0%" y2="100%">
        <stop offset="0%" style="stop-color:#dd9b44; stop-opacity:1"/>
        <stop offset="100%" style="stop-color:#ad6c16; stop-opacity:1"/>
     </linearGradient>
     <linearGradient id="aurora" x1="0%" x2="0%" y1="0%" y2="100%">
        <stop offset="0%" style="stop-color:#09D4DF; stop-opacity:1"/>
        <stop offset="100%" style="stop-color:#9269F4; stop-opacity:1"/>
     </linearGradient>
     <linearGradient id="cyberneon" x1="0%" x2="0%" y1="0%" y2="100%">
        <stop offset="0" style="stop-color:#0abdc6; stop-opacity:1"/>
        <stop offset="1" style="stop-color:#ea00d9; stop-opacity:1"/>
     </linearGradient>
     <linearGradient id="fitdance" x1="0%" x2="0%" y1="0%" y2="100%">
        <stop offset="0%" style="stop-color:#1AD6AB; stop-opacity:1"/>
        <stop offset="100%" style="stop-color:#329DB6; stop-opacity:1"/>
     </linearGradient>
     <linearGradient id="oomox" x1="0%" x2="0%" y1="0%" y2="100%">
        <stop offset="0%" style="stop-color:#0abdc6; stop-opacity:1"/>
        <stop offset="100%" style="stop-color:#b800ff; stop-opacity:1"/>
     </linearGradient>
     <linearGradient id="rainblue" x1="0%" x2="0%" y1="0%" y2="100%">
        <stop offset="0%" style="stop-color:#00F260; stop-opacity:1"/>
        <stop offset="100%" style="stop-color:#0575E6; stop-opacity:1"/>
     </linearGradient>
     <linearGradient id="sunrise" x1="0%" x2="0%" y1="0%" y2="100%">
        <stop offset="0%" style="stop-color: #FF8501; stop-opacity:1"/>
        <stop offset="100%" style="stop-color: #FFCB01; stop-opacity:1"/>
     </linearGradient>
     <linearGradient id="telinkrin" x1="0%" x2="0%" y1="0%" y2="100%">
        <stop offset="0%" style="stop-color: #b2ced6; stop-opacity:1"/>
        <stop offset="100%" style="stop-color: #6da5b7; stop-opacity:1"/>
     </linearGradient>
     <linearGradient id="60spsycho" x1="0%" x2="0%" y1="0%" y2="100%">
        <stop offset="0%" style="stop-color: #df5940; stop-opacity:1"/>
        <stop offset="25%" style="stop-color: #d8d15f; stop-opacity:1"/>
        <stop offset="50%" style="stop-color: #e9882a; stop-opacity:1"/>
        <stop offset="100%" style="stop-color: #279362; stop-opacity:1"/>
     </linearGradient>
     <linearGradient id="90ssummer" x1="0%" x2="0%" y1="0%" y2="100%">
        <stop offset="0%" style="stop-color: #f618c7; stop-opacity:1"/>
        <stop offset="20%" style="stop-color: #94ffab; stop-opacity:1"/>
        <stop offset="50%" style="stop-color: #fbfd54; stop-opacity:1"/>
        <stop offset="100%" style="stop-color: #0f83ae; stop-opacity:1"/>
     </linearGradient>
  </defs>
  <path
     style="display:inline;fill:url(#oomox);fill-opacity:1;stroke:none;stroke-width:0.0351995"
     d="M 7.6342856,15.493751 C 7.5732727,14.771971 7.0842394,13.695655 6.2553477,12.458842 5.7078779,11.641941 5.1868221,10.96341 4.0388695,9.572476 3.3746148,8.7676226 2.5850056,7.6701727 2.1647537,6.9677085 1.5672007,5.9688793 1.1494236,4.9817424 1.0251194,4.2749418 0.96546165,3.935725 0.96563325,3.3099295 1.0254763,2.973642 1.2241654,1.8571072 2.0595524,0.866715 3.1445791,0.46134131 4.1446276,0.08771607 5.217885,0.21422996 6.1182773,0.8118761 6.3979697,0.9975254 6.9171557,1.4984301 7.1355958,1.7933728 7.4675687,2.2416109 7.8359732,2.9540745 7.9099582,3.2909244 7.9423119,3.4382318 8.0542413,3.4321805 8.0873729,3.2813325 8.1608738,2.9466838 8.5281014,2.2399795 8.8605661,1.7933728 9.071025,1.5106595 9.4754322,1.1052547 9.7575902,0.894135 10.042923,0.68063985 10.610843,0.41571294 10.971975,0.32764156 11.577692,0.1799216 12.326874,0.24575396 12.951029,0.50154544 13.981338,0.9237878 14.777511,1.898621 14.970051,2.973642 c 0.09496,0.5302339 0.05125,1.2091727 -0.114395,1.7764941 -0.400711,1.3724313 -1.326604,2.8847059 -3.124884,5.103937 -0.812823,1.0030889 -1.326828,1.6595169 -1.63984,2.0942289 -1.0259839,1.424873 -1.6606953,2.725654 -1.7299933,3.545449 L 8.3392778,15.75 H 7.9976119 7.6559463 Z M 6.4238611,10.408464 C 6.4530487,10.277786 6.5367436,9.8817911 6.6098498,9.5284765 L 6.7427713,8.8860847 h 0.7330191 c 0.6097513,0 0.7330194,0.00838 0.7330194,0.049986 0,0.049759 -0.099662,0.528765 -0.2651183,1.2742393 -0.047781,0.215289 -0.086877,0.401407 -0.086877,0.413593 0,0.01219 0.1652511,0.02215 0.3672234,0.02215 0.3198774,0 0.3693873,-0.0082 0.3840047,-0.06161 0.00923,-0.03389 0.050355,-0.219999 0.091391,-0.413597 0.041036,-0.1935969 0.1193202,-0.5579131 0.173968,-0.8095902 l 0.09936,-0.4575942 0.6564122,-0.00957 0.6564142,-0.00957 V 8.5333119 8.1820935 H 9.7105151 9.1354462 L 9.2859479,7.4774722 c 0.082776,-0.3875418 0.1604669,-0.7360174 0.172646,-0.7743905 0.020731,-0.065312 0.054587,-0.069768 0.5301659,-0.069768 H 10.496779 V 6.2823685 5.9314247 l -0.433559,-0.00985 -0.4335592,-0.00985 0.164418,-0.7743901 c 0.09043,-0.4259093 0.175913,-0.8258645 0.189959,-0.8887835 l 0.02555,-0.1143985 H 9.6395603 c -0.3217185,0 -0.3724923,0.00803 -0.3889589,0.061597 C 9.2401864,4.2296306 9.1834254,4.4870269 9.12447,4.7677432 9.065514,5.0484603 8.9838977,5.4246558 8.9431,5.6037335 L 8.868923,5.9293209 H 8.1299659 7.3910088 l 0.021277,-0.079199 C 7.4239898,5.8065628 7.5058727,5.4303678 7.5942492,5.0141328 7.6826252,4.5978978 7.7632576,4.2290741 7.7734329,4.1945241 7.7905051,4.1365521 7.762626,4.1324787 7.412033,4.1417249 L 7.0321331,4.1517294 7.0049578,4.274928 C 6.9900104,4.3427013 6.9217204,4.6594971 6.8532014,4.9789333 6.7846832,5.2983694 6.7106684,5.6428848 6.6887243,5.7445238 L 6.6488262,5.9293213 H 6.0208351 5.3928445 v 0.3519959 0.3519956 h 0.545593 c 0.3000765,0 0.5455935,0.010745 0.5455935,0.02388 0,0.013136 -0.054097,0.2705309 -0.1202165,0.5719926 C 6.2976945,7.5306476 6.2252932,7.8683768 6.202921,7.9796955 L 6.1622435,8.1820934 H 5.6719452 5.1816469 v 0.3519953 0.3519959 h 0.4047952 c 0.2226373,0 0.404795,0.00832 0.404795,0.01854 0,0.010204 -0.079199,0.391488 -0.1759978,0.8473155 -0.096799,0.4558279 -0.175998,0.8434809 -0.175998,0.8614469 0,0.01802 0.1642471,0.03267 0.3657764,0.03267 H 6.3707939 Z M 6.9236109,8.1028943 C 6.964837,7.9266565 7.1930922,6.8543031 7.2120677,6.747711 l 0.020365,-0.1143982 h 0.746542 0.7465424 L 8.6124863,7.1349066 c -0.062167,0.2758763 -0.1399071,0.6243519 -0.172756,0.77439 L 8.3800056,8.1820935 H 7.6425451 6.9050848 Z"
     id="path_heart"
     class="ColorScheme-Text"/>
</svg>
