<?xml version="1.0" encoding="UTF-8" standalone="no"?>
<svg
   width="48"
   height="48"
   version="1.1"
   id="svg65"
   xmlns:xlink="http://www.w3.org/1999/xlink"
   xmlns="http://www.w3.org/2000/svg"
   xmlns:svg="http://www.w3.org/2000/svg"
   xmlns:rdf="http://www.w3.org/1999/02/22-rdf-syntax-ns#"
   xmlns:cc="http://creativecommons.org/ns#"
   xmlns:dc="http://purl.org/dc/elements/1.1/">
  <defs
     id="defs61">
    <style
       id="current-color-scheme"
       type="text/css">
   .ColorScheme-Text { color: #0abdc6; } .ColorScheme-Highlight { color:#5294e2; }
  </style>
    <linearGradient
       id="arrongin"
       x1="0"
       x2="0"
       y1="0"
       y2="1">
      <stop
         offset="0%"
         style="stop-color:#dd9b44; stop-opacity:1"
         id="stop3" />
      <stop
         offset="100%"
         style="stop-color:#ad6c16; stop-opacity:1"
         id="stop5" />
    </linearGradient>
    <linearGradient
       id="aurora"
       x1="0"
       x2="0"
       y1="0"
       y2="1">
      <stop
         offset="0%"
         style="stop-color:#09D4DF; stop-opacity:1"
         id="stop8" />
      <stop
         offset="100%"
         style="stop-color:#9269F4; stop-opacity:1"
         id="stop10" />
    </linearGradient>
    <linearGradient
       id="cyberneon"
       x1="0"
       x2="0"
       y1="0"
       y2="1">
      <stop
         offset="0"
         style="stop-color:#0abdc6; stop-opacity:1"
         id="stop13" />
      <stop
         offset="1"
         style="stop-color:#ea00d9; stop-opacity:1"
         id="stop15" />
    </linearGradient>
    <linearGradient
       id="fitdance"
       x1="0"
       x2="0"
       y1="0"
       y2="1">
      <stop
         offset="0%"
         style="stop-color:#1AD6AB; stop-opacity:1"
         id="stop18" />
      <stop
         offset="100%"
         style="stop-color:#329DB6; stop-opacity:1"
         id="stop20" />
    </linearGradient>
    <linearGradient
       id="oomox"
       x1="0"
       x2="0"
       y1="0"
       y2="1">
      <stop
         offset="0%"
         style="stop-color:#0abdc6; stop-opacity:1"
         id="stop23" />
      <stop
         offset="100%"
         style="stop-color:#b800ff; stop-opacity:1"
         id="stop25" />
    </linearGradient>
    <linearGradient
       id="rainblue"
       x1="0"
       x2="0"
       y1="0"
       y2="1">
      <stop
         offset="0%"
         style="stop-color:#00F260; stop-opacity:1"
         id="stop28" />
      <stop
         offset="100%"
         style="stop-color:#0575E6; stop-opacity:1"
         id="stop30" />
    </linearGradient>
    <linearGradient
       id="sunrise"
       x1="0"
       x2="0"
       y1="0"
       y2="1">
      <stop
         offset="0%"
         style="stop-color: #FF8501; stop-opacity:1"
         id="stop33" />
      <stop
         offset="100%"
         style="stop-color: #FFCB01; stop-opacity:1"
         id="stop35" />
    </linearGradient>
    <linearGradient
       id="telinkrin"
       x1="0"
       x2="0"
       y1="0"
       y2="1">
      <stop
         offset="0%"
         style="stop-color: #b2ced6; stop-opacity:1"
         id="stop38" />
      <stop
         offset="100%"
         style="stop-color: #6da5b7; stop-opacity:1"
         id="stop40" />
    </linearGradient>
    <linearGradient
       id="60spsycho"
       x1="0"
       x2="0"
       y1="0"
       y2="1">
      <stop
         offset="0%"
         style="stop-color: #df5940; stop-opacity:1"
         id="stop43" />
      <stop
         offset="25%"
         style="stop-color: #d8d15f; stop-opacity:1"
         id="stop45" />
      <stop
         offset="50%"
         style="stop-color: #e9882a; stop-opacity:1"
         id="stop47" />
      <stop
         offset="100%"
         style="stop-color: #279362; stop-opacity:1"
         id="stop49" />
    </linearGradient>
    <linearGradient
       id="90ssummer"
       x1="0"
       x2="0"
       y1="0"
       y2="1">
      <stop
         offset="0%"
         style="stop-color: #f618c7; stop-opacity:1"
         id="stop52" />
      <stop
         offset="20%"
         style="stop-color: #94ffab; stop-opacity:1"
         id="stop54" />
      <stop
         offset="50%"
         style="stop-color: #fbfd54; stop-opacity:1"
         id="stop56" />
      <stop
         offset="100%"
         style="stop-color: #0f83ae; stop-opacity:1"
         id="stop58" />
    </linearGradient>
    <linearGradient
       xlink:href="#oomox"
       id="linearGradient1149"
       x1="1.0000198"
       y1="8.0787306"
       x2="15.092021"
       y2="8.0787306"
       gradientUnits="userSpaceOnUse"
       gradientTransform="matrix(3.3359618,0,0,3.319085,-2.8412062,-2.8139826)" />
  </defs>
  <path
     class="ColorScheme-Text"
     d="m 2.5400649,2.5400649 c 5.8086283,0 11.3590791,1.1368554 16.6526531,3.4116119 5.293576,2.2747627 9.858144,5.3295062 13.692414,9.1637072 3.83427,3.834188 6.888609,8.398166 9.163422,13.691636 2.274812,5.29345 3.411381,10.844422 3.411381,16.652918 h -8.240629 c 0,-4.692549 -0.915105,-9.185409 -2.746396,-13.4774 C 32.641613,27.690549 30.173249,23.999977 27.068638,20.90974 23.964028,17.819492 20.272968,15.358143 15.995192,13.526894 11.717403,11.695638 7.232752,10.779819 2.5400649,10.779819 Z m 0,14.5922651 c 5.1218971,0 9.8572201,1.265529 14.2065331,3.797808 4.349324,2.532282 7.789704,5.973062 10.32204,10.322284 2.53233,4.349225 3.798078,9.085746 3.798078,14.207516 h -8.240643 c 0,-5.550978 -1.959369,-10.287495 -5.879475,-14.207516 C 12.797878,27.303776 8.0625492,25.329831 2.5400649,25.329831 Z M 8.248169,33.999493 c 1.5737655,0 2.917962,0.55851 4.033899,1.674464 1.11594,1.115939 1.674195,2.460174 1.674195,4.033905 0,1.602345 -0.558296,2.954121 -1.674195,4.055772 -1.115937,1.101592 -2.4601335,1.652594 -4.033899,1.652594 -1.5737739,0 -2.9194189,-0.557112 -4.0353675,-1.673033 -1.1159439,-1.115898 -1.6727366,-2.461608 -1.6727366,-4.035333 0,-1.573731 0.5568109,-2.917966 1.6727366,-4.033905 1.1159486,-1.115898 2.4615936,-1.674464 4.0353675,-1.674464 z"
     id="path63"
     style="fill:none;fill-opacity:0;stroke:url(#oomox);stroke-width:4.08013;stroke-opacity:1" />
  <metadata
     id="metadata292">
    <rdf:RDF>
      <cc:License
         rdf:about="http://creativecommons.org/licenses/by-sa/4.0/">
        <cc:permits
           rdf:resource="http://creativecommons.org/ns#Reproduction" />
        <cc:permits
           rdf:resource="http://creativecommons.org/ns#Distribution" />
        <cc:requires
           rdf:resource="http://creativecommons.org/ns#Notice" />
        <cc:requires
           rdf:resource="http://creativecommons.org/ns#Attribution" />
        <cc:permits
           rdf:resource="http://creativecommons.org/ns#DerivativeWorks" />
        <cc:requires
           rdf:resource="http://creativecommons.org/ns#ShareAlike" />
      </cc:License>
      <cc:Work
         rdf:about="">
        <cc:license
           rdf:resource="http://creativecommons.org/licenses/by-sa/4.0/" />
        <dc:contributor>
          <cc:Agent>
            <dc:title>dreifacherspass</dc:title>
          </cc:Agent>
        </dc:contributor>
      </cc:Work>
    </rdf:RDF>
  </metadata>
</svg>
