<?xml version="1.0" encoding="UTF-8" standalone="no"?>
<svg
   version="1.1"
   id="434"
   x="0px"
   y="0px"
   viewBox="0 0 16 16"
   enable-background="new 0 0 48 48"
   xml:space="preserve"
   width="16"
   height="16"
   xmlns:xlink="http://www.w3.org/1999/xlink"
   xmlns="http://www.w3.org/2000/svg"
   xmlns:svg="http://www.w3.org/2000/svg"
   xmlns:rdf="http://www.w3.org/1999/02/22-rdf-syntax-ns#"
   xmlns:cc="http://creativecommons.org/ns#"
   xmlns:dc="http://purl.org/dc/elements/1.1/">
  <defs>
   <style id="current-color-scheme" type="text/css">
   .ColorScheme-Text { color: #0abdc6; } .ColorScheme-Highlight { color:#5294e2; }
  </style>
  <linearGradient id="arrongin" x1="0%" x2="0%" y1="0%" y2="100%">
   <stop offset="0%" style="stop-color:#dd9b44; stop-opacity:1"/>
   <stop offset="100%" style="stop-color:#ad6c16; stop-opacity:1"/>
  </linearGradient>
  <linearGradient id="aurora" x1="0%" x2="0%" y1="0%" y2="100%">
   <stop offset="0%" style="stop-color:#09D4DF; stop-opacity:1"/>
   <stop offset="100%" style="stop-color:#9269F4; stop-opacity:1"/>
  </linearGradient>
  <linearGradient id="cyberneon" x1="0%" x2="0%" y1="0%" y2="100%">
    <stop offset="0" style="stop-color:#0abdc6; stop-opacity:1"/>
    <stop offset="1" style="stop-color:#ea00d9; stop-opacity:1"/>
  </linearGradient>
  <linearGradient id="fitdance" x1="0%" x2="0%" y1="0%" y2="100%">
   <stop offset="0%" style="stop-color:#1AD6AB; stop-opacity:1"/>
   <stop offset="100%" style="stop-color:#329DB6; stop-opacity:1"/>
  </linearGradient>
  <linearGradient id="oomox" x1="0%" x2="0%" y1="0%" y2="100%">
   <stop offset="0%" style="stop-color:#0abdc6; stop-opacity:1"/>
   <stop offset="100%" style="stop-color:#b800ff; stop-opacity:1"/>
  </linearGradient>
  <linearGradient id="rainblue" x1="0%" x2="0%" y1="0%" y2="100%">
   <stop offset="0%" style="stop-color:#00F260; stop-opacity:1"/>
   <stop offset="100%" style="stop-color:#0575E6; stop-opacity:1"/>
  </linearGradient>
  <linearGradient id="sunrise" x1="0%" x2="0%" y1="0%" y2="100%">
   <stop offset="0%" style="stop-color: #FF8501; stop-opacity:1"/>
   <stop offset="100%" style="stop-color: #FFCB01; stop-opacity:1"/>
  </linearGradient>
  <linearGradient id="telinkrin" x1="0%" x2="0%" y1="0%" y2="100%">
   <stop offset="0%" style="stop-color: #b2ced6; stop-opacity:1"/>
   <stop offset="100%" style="stop-color: #6da5b7; stop-opacity:1"/>
  </linearGradient>
  <linearGradient id="60spsycho" x1="0%" x2="0%" y1="0%" y2="100%">
   <stop offset="0%" style="stop-color: #df5940; stop-opacity:1"/>
   <stop offset="25%" style="stop-color: #d8d15f; stop-opacity:1"/>
   <stop offset="50%" style="stop-color: #e9882a; stop-opacity:1"/>
   <stop offset="100%" style="stop-color: #279362; stop-opacity:1"/>
  </linearGradient>
  <linearGradient id="90ssummer" x1="0%" x2="0%" y1="0%" y2="100%">
   <stop offset="0%" style="stop-color: #f618c7; stop-opacity:1"/>
   <stop offset="20%" style="stop-color: #94ffab; stop-opacity:1"/>
   <stop offset="50%" style="stop-color: #fbfd54; stop-opacity:1"/>
   <stop offset="100%" style="stop-color: #0f83ae; stop-opacity:1"/>
  </linearGradient>
 </defs>
 <ellipse
   cx="8.356967"
   cy="12.838428"
   id="circle11"
   class="ColorScheme-Text"
   style="display:inline;fill:url(#oomox);stroke-width:0.381372"
   rx="1.2289501"
   ry="1.2316519" />
 <path
   d="m 11.689151,14.872983 c 0.487237,-0.967836 -2.539805,-2.07617 -2.6190428,-2.083042 l 0.020572,-0.247781 c 0.020953,0.0019 3.5756118,0.511216 3.1561848,2.245684 z"
   id="path116"
   class="ColorScheme-Text"
   style="display:inline;fill:url(#oomox);stroke-width:0.381372" />
 <path
   d="M 8.8948704,12.296287 8.7611564,12.086685 C 8.927632,11.980548 13.174481,9.7875517 15.057525,11.726277 l -0.192761,0.305431 c -1.955806,-1.757376 -5.9314177,0.239764 -5.9698936,0.264579 z"
   id="path117"
   class="ColorScheme-Text"
   style="display:inline;fill:url(#oomox);stroke-width:0.381372" />
 <path
   d="m 7.9314434,12.19435 c -0.00343,-0.148898 0.915808,-4.1114871 8.0517946,-3.952281 l -0.02133,0.5028163 c -7.1519871,0 -7.7828429,3.4101397 -7.7820811,3.4441197 z"
   id="path118"
   class="ColorScheme-Text"
   style="display:inline;fill:url(#oomox);stroke-width:0.381372" />
 <path
   d="M 7.4834444,12.562776 C 7.4583006,12.513526 6.880017,11.339525 7.5440156,9.7638808 8.4259189,7.6720577 11.074676,5.8997925 15.247239,4.6013275 l 0.195809,0.4264586 C 10.336772,6.6164106 8.5169661,8.5146666 7.9314434,9.9039971 7.311635,11.374267 7.6990631,12.438695 7.7047771,12.449767 Z"
   id="path119"
   class="ColorScheme-Text"
   style="display:inline;fill:url(#oomox);stroke-width:0.381372" />
 <path
   d="M 7.0727785,13.038867 C 7.0133501,12.996107 5.5009719,11.992384 5.6255431,10.126962 5.7882093,7.6900018 8.2922049,4.9346296 13.301719,2.2579055 l 0.457142,0.3569728 c -6.1352263,3.278042 -7.6601761,5.8871891 -7.7698901,7.4987207 -0.1173332,1.726832 1.215617,2.713375 1.2289501,2.72292 z"
   id="path120"
   class="ColorScheme-Text"
   style="display:inline;fill:url(#oomox);stroke-width:0.381372" />
 <path
   d="m 8.0579196,14.057862 c -3.7710407,0 -6.0422745,-0.318029 -6.8018921,-2.068533 C -0.92149221,6.9676567 6.2834464,0.43524398 6.5744936,0.14164812 l 0.3047615,0.2073115 C 6.8091598,0.41959062 -0.11463654,7.4704731 1.4941223,11.309744 2.1047878,12.767034 3.8830699,13.592843 6.7878267,13.771903 5.5558287,13.417984 3.890308,12.652879 3.3931663,11.047837 2.6205964,8.5543725 4.9638301,4.9823529 10.357725,0.4310443 l 0.332951,0.30161348 C 5.3805909,5.2129538 3.2221191,8.8044444 3.9615462,11.193299 4.7139257,13.623386 8.1817286,13.8055 8.219824,13.809318 l -0.011428,0.248163 c -0.050286,3.75e-4 -0.1005716,3.75e-4 -0.1504759,3.75e-4 z"
   id="path122"
   class="ColorScheme-Text"
   style="display:inline;fill:url(#oomox);stroke-width:0.381372" />
 <path
   d="M 8.3508714,14.057862 C 4.0217365,13.847115 1.464789,12.67235 0.58821925,10.633596 -1.3432057,6.1422287 2.0236451,1.570685 4.8430682,0.69104269 L 4.9821157,0.63033853 C 3.2114524,1.831829 -0.67387362,6.7977609 0.81907595,10.541584 1.6015507,12.504363 4.1398314,13.603534 8.3630617,13.809318 Z"
   id="path123"
   class="ColorScheme-Text"
   style="display:inline;fill:url(#oomox);stroke-width:0.381372" />
 <path
   d="m 2.9165958,13.905147 c -2.7088203,-10.0453812 -1.3544101,-5.0226904 0,0 z"
   id="path124"
   class="ColorScheme-Text"
   style="display:inline;fill:url(#oomox);stroke-width:0.381372" />
 <path
   d="m 7.7127771,15.967573 -0.7199986,-0.08018 c 2.3756146,0.0714 1.6038066,-2.34724 1.6022829,-2.352586 l 0.2365709,-0.07522 c 0.00762,0.02597 1.0438077,2.873727 -1.1188552,2.507974 z"
   id="path125"
   class="ColorScheme-Text"
   style="display:inline;fill:url(#oomox);stroke-width:0.381372" />
 <path
   d="M 15.961905,8.7448853 C 6.8510645,5.7379137 6.8308742,0.237859 6.856017,0.09010659 L 7.303635,0.05536377 C 7.2990638,0.08819764 7.352016,4.6960111 16,7.8434812 Z"
   id="path126"
   class="ColorScheme-Text"
   style="display:inline;fill:url(#oomox);stroke-width:0.381372" />
 <path
   d="M 14.465145,12.66586 C 8.9283942,10.667193 4.9230682,7.970617 4.1805933,5.0277861 3.5645947,2.5866259 5.7223046,0.40126476 5.7904949,0.32834303 L 6.6167792,0.13133982 c 0,0 -2.0891387,2.21284998 -1.5359969,4.38828478 0.4830464,1.9009283 2.403043,4.6601186 9.9771237,7.2062704 z"
   id="path127"
   class="ColorScheme-Text"
   style="display:inline;fill:url(#oomox);stroke-width:0.381372" />
 <path
   d="M 11.227437,15.328457 C 5.5828766,13.528703 2.3550731,10.561056 1.6762172,7.4006058 0.96383765,4.0843848 2.4465015,2.5030141 2.6929772,2.2136179 2.9394529,1.9242217 3.7322131,1.3106865 3.7322131,1.3106865 2.9985005,2.2685956 1.2487894,4.2271741 2.1078354,7.0970834 2.9821195,10.018534 6.2636371,13.090409 12.247245,14.787462 Z"
   id="path128"
   class="ColorScheme-Text"
   style="display:inline;fill:url(#oomox);stroke-width:0.381372" />
 <path
   d="M 4.632402,15.211629 C -1.8243477,11.612503 0.34821972,5.6634651 0.36383872,5.5916886 L 0.31317222,6.1578818 C 0.25526752,6.4312429 -0.47311201,14.61833 8.3051572,15.99697 c 0,0 -1.3828546,-0.0019 -2.2026626,-0.220674 C 5.4975431,15.614417 4.632402,15.211629 4.632402,15.211629 Z"
   id="path129"
   class="ColorScheme-Text"
   style="display:inline;fill:url(#oomox);stroke-width:0.381372" />
 <path
   d="M 15.443429,5.0277861 C 10.121916,2.7492681 7.809539,0.09087016 7.739825,4.3373842e-6 L 8.4228711,0.00840374 C 8.4392524,0.02978391 10.349725,1.9818718 15.08724,4.2527539 Z"
   id="path130"
   class="ColorScheme-Text"
   style="display:inline;fill:url(#oomox);stroke-width:0.381372" />
 <path
   d="M 14.72686,3.6373098 C 12.568006,1.5962649 8.8057276,0.11034141 8.7097276,0.02672958 l 0.5786659,0.06872205 c 0.022856,0.0198531 2.9043755,0.28825083 5.0251335,2.96115677 z"
   id="path131"
   class="ColorScheme-Text"
   style="display:inline;fill:url(#oomox);stroke-width:0.381372" />
 <metadata
   id="metadata17"><rdf:RDF><cc:Work
       rdf:about=""><dc:creator><cc:Agent><dc:title>dreifacherspass</dc:title></cc:Agent></dc:creator><cc:license
         rdf:resource="http://creativecommons.org/licenses/by-sa/4.0/" /></cc:Work><cc:License
       rdf:about="http://creativecommons.org/licenses/by-sa/4.0/"><cc:permits
         rdf:resource="http://creativecommons.org/ns#Reproduction" /><cc:permits
         rdf:resource="http://creativecommons.org/ns#Distribution" /><cc:requires
         rdf:resource="http://creativecommons.org/ns#Notice" /><cc:requires
         rdf:resource="http://creativecommons.org/ns#Attribution" /><cc:permits
         rdf:resource="http://creativecommons.org/ns#DerivativeWorks" /><cc:requires
         rdf:resource="http://creativecommons.org/ns#ShareAlike" /></cc:License></rdf:RDF></metadata></svg>
