<?xml version="1.0" encoding="UTF-8" standalone="no"?>
<svg
   width="16"
   height="16"
   version="1.1"
   id="svg24"
   xmlns:xlink="http://www.w3.org/1999/xlink"
   xmlns="http://www.w3.org/2000/svg"
   xmlns:svg="http://www.w3.org/2000/svg"
   xmlns:rdf="http://www.w3.org/1999/02/22-rdf-syntax-ns#"
   xmlns:cc="http://creativecommons.org/ns#">
  <defs>
   <style id="current-color-scheme" type="text/css">
   .ColorScheme-Text { color: #0abdc6; } .ColorScheme-Highlight { color:#5294e2; }
  </style>
  <linearGradient id="arrongin" x1="0%" x2="0%" y1="0%" y2="100%">
   <stop offset="0%" style="stop-color:#dd9b44; stop-opacity:1"/>
   <stop offset="100%" style="stop-color:#ad6c16; stop-opacity:1"/>
  </linearGradient>
  <linearGradient id="aurora" x1="0%" x2="0%" y1="0%" y2="100%">
   <stop offset="0%" style="stop-color:#09D4DF; stop-opacity:1"/>
   <stop offset="100%" style="stop-color:#9269F4; stop-opacity:1"/>
  </linearGradient>
  <linearGradient id="cyberneon" x1="0%" x2="0%" y1="0%" y2="100%">
    <stop offset="0" style="stop-color:#0abdc6; stop-opacity:1"/>
    <stop offset="1" style="stop-color:#ea00d9; stop-opacity:1"/>
  </linearGradient>
  <linearGradient id="fitdance" x1="0%" x2="0%" y1="0%" y2="100%">
   <stop offset="0%" style="stop-color:#1AD6AB; stop-opacity:1"/>
   <stop offset="100%" style="stop-color:#329DB6; stop-opacity:1"/>
  </linearGradient>
  <linearGradient id="oomox" x1="0%" x2="0%" y1="0%" y2="100%">
   <stop offset="0%" style="stop-color:#0abdc6; stop-opacity:1"/>
   <stop offset="100%" style="stop-color:#b800ff; stop-opacity:1"/>
  </linearGradient>
  <linearGradient id="rainblue" x1="0%" x2="0%" y1="0%" y2="100%">
   <stop offset="0%" style="stop-color:#00F260; stop-opacity:1"/>
   <stop offset="100%" style="stop-color:#0575E6; stop-opacity:1"/>
  </linearGradient>
  <linearGradient id="sunrise" x1="0%" x2="0%" y1="0%" y2="100%">
   <stop offset="0%" style="stop-color: #FF8501; stop-opacity:1"/>
   <stop offset="100%" style="stop-color: #FFCB01; stop-opacity:1"/>
  </linearGradient>
  <linearGradient id="telinkrin" x1="0%" x2="0%" y1="0%" y2="100%">
   <stop offset="0%" style="stop-color: #b2ced6; stop-opacity:1"/>
   <stop offset="100%" style="stop-color: #6da5b7; stop-opacity:1"/>
  </linearGradient>
  <linearGradient id="60spsycho" x1="0%" x2="0%" y1="0%" y2="100%">
   <stop offset="0%" style="stop-color: #df5940; stop-opacity:1"/>
   <stop offset="25%" style="stop-color: #d8d15f; stop-opacity:1"/>
   <stop offset="50%" style="stop-color: #e9882a; stop-opacity:1"/>
   <stop offset="100%" style="stop-color: #279362; stop-opacity:1"/>
  </linearGradient>
  <linearGradient id="90ssummer" x1="0%" x2="0%" y1="0%" y2="100%">
   <stop offset="0%" style="stop-color: #f618c7; stop-opacity:1"/>
   <stop offset="20%" style="stop-color: #94ffab; stop-opacity:1"/>
   <stop offset="50%" style="stop-color: #fbfd54; stop-opacity:1"/>
   <stop offset="100%" style="stop-color: #0f83ae; stop-opacity:1"/>
  </linearGradient>
 </defs>
  <path
     fill="url(#oomox)"
     class="ColorScheme-Text"
     d="m 13.374859,8.915765 c 0.29647,0.5825879 0.445176,1.28847 0.445176,2.093175 0,0.777412 -0.162823,1.472941 -0.489412,2.040471 -0.325647,0.56847 -0.76047,1.046588 -1.281882,1.413647 -0.521412,0.367058 -1.123765,0.628705 -1.782588,0.80847 -0.6597647,0.179765 -1.3336471,0.257882 -1.9999999,0.257882 -1.3327056,0 -2.7679994,-0.415058 -3.6724699,-0.903529 C 3.5602717,14.136469 2.1560367,12.636234 2.184272,12.403763 2.220037,12.100705 3.0143894,11.09647 3.4953305,10.416941 c 0.2343529,-0.331294 0.3265882,-0.4875295 0.677647,-0.177882 0.4385881,0.533647 1.0484703,0.877176 1.6094113,1.164234 0.4931765,0.233412 1.5331763,0.568471 2.0781173,0.637177 0.4555293,0.06682 1.1369409,0.06682 1.1868233,-0.646588 0,-0.272942 -0.229647,-0.521412 -0.5270587,-0.766118 C 8.2238001,10.383999 8.0252119,10.175059 7.5828591,9.908706 5.8313301,8.5449414 4.8845067,7.9294118 3.9941539,6.5675298 3.6976834,6.0282358 3.5254481,5.4296476 3.5254481,4.7247066 c 0,-0.6898822 0.1072941,-1.3637645 0.3679999,-1.8814114 0.8470587,-1.5444702 2.5590584,-2.35199947 4.0912934,-2.37270534 1.3101174,0 2.2710586,0.35199995 3.1322346,0.74070564 1.164236,0.4941176 1.904942,1.1407057 2.537412,1.7138821 0.246588,0.2239999 0.03388,0.4941175 -0.09506,0.6927057 -0.322823,0.4978822 -0.780235,1.1124703 -0.922353,1.4089409 -0.113882,0.2145882 -0.323765,0.2955293 -0.497882,0.1458823 0,0 -0.430118,-0.3623528 -0.777412,-0.5863528 C 10.439329,4.0743538 9.4812116,3.3195304 8.5052118,3.2254128 c -0.2607058,0 -0.523294,0.076235 -0.6456469,0.2061176 -0.1232941,0.1289412 -0.1684705,0.389647 -0.1618823,0.5910587 0.011294,0.3623529 0.1138823,0.4301176 0.4574117,0.7576469 0.2964705,0.2230588 0.5298822,0.3830587 1.1303527,0.7011763 0.4489413,0.2381176 0.998588,0.5722352 1.513411,0.8668234 0.513883,0.2955293 1.030589,0.6748234 1.47953,1.0917645 0.448941,0.4169411 0.799059,0.893176 1.096471,1.4757648 z"
     id="path24"
     style="opacity:1;fill-opacity:0.5;fill:url(#oomox);stroke:url(#oomox);stroke-width:0.941179;stroke-opacity:1" />
  <metadata
     id="metadata24">
    <rdf:RDF>
      <cc:License
         rdf:about="http://creativecommons.org/licenses/by-sa/4.0/">
        <cc:permits
           rdf:resource="http://creativecommons.org/ns#Reproduction" />
        <cc:permits
           rdf:resource="http://creativecommons.org/ns#Distribution" />
        <cc:requires
           rdf:resource="http://creativecommons.org/ns#Notice" />
        <cc:requires
           rdf:resource="http://creativecommons.org/ns#Attribution" />
        <cc:permits
           rdf:resource="http://creativecommons.org/ns#DerivativeWorks" />
        <cc:requires
           rdf:resource="http://creativecommons.org/ns#ShareAlike" />
      </cc:License>
      <cc:Work
         rdf:about="">
        <cc:license
           rdf:resource="http://creativecommons.org/licenses/by-sa/4.0/" />
      </cc:Work>
    </rdf:RDF>
  </metadata>
</svg>
