<?xml version="1.0" encoding="UTF-8" standalone="no"?>
<!-- Created with Inkscape (http://www.inkscape.org/) -->

<svg
   version="1.0"
   width="16"
   height="16"
   id="svg2"
   xmlns="http://www.w3.org/2000/svg"
   xmlns:svg="http://www.w3.org/2000/svg"
   xmlns:rdf="http://www.w3.org/1999/02/22-rdf-syntax-ns#"
   xmlns:cc="http://creativecommons.org/ns#"
   xmlns:dc="http://purl.org/dc/elements/1.1/">
  <defs>
   <style id="current-color-scheme" type="text/css">
   .ColorScheme-Text { color: #0abdc6; } .ColorScheme-Highlight { color:#5294e2; }
  </style>
  <linearGradient id="arrongin" x1="0%" x2="0%" y1="0%" y2="100%">
   <stop offset="0%" style="stop-color:#dd9b44; stop-opacity:1"/>
   <stop offset="100%" style="stop-color:#ad6c16; stop-opacity:1"/>
  </linearGradient>
  <linearGradient id="aurora" x1="0%" x2="0%" y1="0%" y2="100%">
   <stop offset="0%" style="stop-color:#09D4DF; stop-opacity:1"/>
   <stop offset="100%" style="stop-color:#9269F4; stop-opacity:1"/>
  </linearGradient>
  <linearGradient id="cyberneon" x1="0%" x2="0%" y1="0%" y2="100%">
    <stop offset="0" style="stop-color:#0abdc6; stop-opacity:1"/>
    <stop offset="1" style="stop-color:#ea00d9; stop-opacity:1"/>
  </linearGradient>
  <linearGradient id="fitdance" x1="0%" x2="0%" y1="0%" y2="100%">
   <stop offset="0%" style="stop-color:#1AD6AB; stop-opacity:1"/>
   <stop offset="100%" style="stop-color:#329DB6; stop-opacity:1"/>
  </linearGradient>
  <linearGradient id="oomox" x1="0%" x2="0%" y1="0%" y2="100%">
   <stop offset="0%" style="stop-color:#0abdc6; stop-opacity:1"/>
   <stop offset="100%" style="stop-color:#b800ff; stop-opacity:1"/>
  </linearGradient>
  <linearGradient id="rainblue" x1="0%" x2="0%" y1="0%" y2="100%">
   <stop offset="0%" style="stop-color:#00F260; stop-opacity:1"/>
   <stop offset="100%" style="stop-color:#0575E6; stop-opacity:1"/>
  </linearGradient>
  <linearGradient id="sunrise" x1="0%" x2="0%" y1="0%" y2="100%">
   <stop offset="0%" style="stop-color: #FF8501; stop-opacity:1"/>
   <stop offset="100%" style="stop-color: #FFCB01; stop-opacity:1"/>
  </linearGradient>
  <linearGradient id="telinkrin" x1="0%" x2="0%" y1="0%" y2="100%">
   <stop offset="0%" style="stop-color: #b2ced6; stop-opacity:1"/>
   <stop offset="100%" style="stop-color: #6da5b7; stop-opacity:1"/>
  </linearGradient>
  <linearGradient id="60spsycho" x1="0%" x2="0%" y1="0%" y2="100%">
   <stop offset="0%" style="stop-color: #df5940; stop-opacity:1"/>
   <stop offset="25%" style="stop-color: #d8d15f; stop-opacity:1"/>
   <stop offset="50%" style="stop-color: #e9882a; stop-opacity:1"/>
   <stop offset="100%" style="stop-color: #279362; stop-opacity:1"/>
  </linearGradient>
  <linearGradient id="90ssummer" x1="0%" x2="0%" y1="0%" y2="100%">
   <stop offset="0%" style="stop-color: #f618c7; stop-opacity:1"/>
   <stop offset="20%" style="stop-color: #94ffab; stop-opacity:1"/>
   <stop offset="50%" style="stop-color: #fbfd54; stop-opacity:1"/>
   <stop offset="100%" style="stop-color: #0f83ae; stop-opacity:1"/>
  </linearGradient>
 </defs>
  <metadata
     id="metadata7">
    <rdf:RDF>
      <cc:Work
         rdf:about="">
        <dc:format>image/svg+xml</dc:format>
        <dc:type
           rdf:resource="http://purl.org/dc/dcmitype/StillImage" />
        <dc:creator>
          <cc:Agent>
            <dc:title>dreifacherspass</dc:title>
          </cc:Agent>
        </dc:creator>
        <cc:license
           rdf:resource="http://creativecommons.org/licenses/by-sa/4.0/" />
      </cc:Work>
      <cc:License
         rdf:about="http://creativecommons.org/licenses/by-sa/4.0/">
        <cc:permits
           rdf:resource="http://creativecommons.org/ns#Reproduction" />
        <cc:permits
           rdf:resource="http://creativecommons.org/ns#Distribution" />
        <cc:requires
           rdf:resource="http://creativecommons.org/ns#Notice" />
        <cc:requires
           rdf:resource="http://creativecommons.org/ns#Attribution" />
        <cc:permits
           rdf:resource="http://creativecommons.org/ns#DerivativeWorks" />
        <cc:requires
           rdf:resource="http://creativecommons.org/ns#ShareAlike" />
      </cc:License>
    </rdf:RDF>
  </metadata>
  <path
     id="rect26"
     style="opacity:1;fill:url(#oomox);stroke-width:9.8012;stroke-opacity:0"
     class="ColorScheme-Text"
     d="M 2.7519531,0 C 1.2272161,0 0,1.2272161 0,2.7519531 v 1.0878907 c 0.06525892,0.021601 0.73980046,0.6124535 1.5,1.1777343 0.9518953,0.7078241 1.3730699,1.4139726 1.8671875,3.125 0.4865053,1.6846677 0.7580202,2.2430599 1.1757813,2.4179689 0.2064925,0.08646 0.3689801,0.03124 0.625,-0.210938 C 5.5374234,10.000134 5.6827798,9.5187272 5.5996094,8.9238281 5.5415145,8.5082988 5.4747619,8.2862171 5.1308594,7.375 4.9693501,6.9470638 4.7898844,6.4368535 4.7324219,6.2402344 4.6023647,5.7952235 4.5614514,5.2507247 4.6308594,4.8828125 4.7112799,4.4565299 4.7069251,4.1300931 4.6191406,3.9960938 4.5309115,3.8614141 4.5499898,3.7788015 4.71875,3.5664062 4.8624805,3.3855123 4.867824,3.3415185 4.7734375,3.1425781 L 4.7050781,2.9960938 4.8574219,2.8691406 C 4.9700434,2.7762911 5.0117188,2.7114413 5.0117188,2.6210938 5.0117188,2.4634225 5.1944533,2.2599721 5.75,1.7988281 6.1814748,1.4406728 6.4425762,1.1367509 6.4414062,0.99609375 c -0.0013,-0.15476531 -0.065783,-0.1948441 -0.2695312,-0.171875 -0.1064649,0.0120028 -0.1933594,0.005175 -0.1933594,-0.015625 0,-0.0555201 0.3815948,-0.2890625 0.4726563,-0.2890625 0.1253049,0 0.3127486,0.11513338 0.4101562,0.25195313 C 7.0351684,1.0156649 7.1989337,0.89958472 7.1972656,0.53320312 7.1964451,0.3531038 7.1382011,0.17479316 7.0410156,0.03125 h 0.5488282 c 0.1092528,0.14224365 0.1672173,0.34174139 0.171875,0.59765625 0.00269,0.14805591 0.017505,0.26936874 0.033203,0.26953125 0.0157,1.7875e-4 0.09353,-0.0609753 0.1738281,-0.13671875 C 8.1425416,0.59778164 8.2176122,0.34375277 8.1914062,0.03125 H 8.40625 C 8.429249,0.13739888 8.437121,0.27488003 8.4375,0.46679688 8.438199,0.81340524 8.452689,0.9114731 8.511719,0.98046875 8.551967,1.0275113 8.6124676,1.0664062 8.6464846,1.0664062 8.8179852,1.0664063 8.9915031,0.68471234 9.042969,0.19335943 L 9.0605469,0.03125 h 0.089844 l 0.017578,0.02539062 c 0.1172531,0.18188102 0.099663,0.34000382 -0.078125,0.73632813 -0.069494,0.15491587 -0.125,0.28941815 -0.125,0.29882815 0,0.00941 0.070837,0.017578 0.1582031,0.017578 0.2057942,0 0.3226816,-0.087034 0.4492187,-0.33007812 C 9.6287567,0.67079152 9.6766567,0.61673101 9.6777345,0.65820302 9.6808445,0.77752686 9.5204603,1.0593793 9.3339845,1.2617187 9.2397355,1.3639843 9.1729772,1.4581316 9.185547,1.470703 9.210484,1.495645 9.5710876,1.432421 9.6894532,1.382812 9.7870052,1.341927 9.7829762,1.409694 9.6796832,1.5410151 9.6185832,1.6187051 9.5307593,1.6578806 9.3535113,1.6894526 8.816902,1.78504 8.7694629,1.8715909 9.0488281,2.2460938 9.1931609,2.4395777 9.3382344,2.7785729 9.34375,2.9355469 c 0.00285,0.081103 0.2659357,0.3405966 0.714844,0.7070312 0.524062,0.4277824 0.819353,0.7241034 0.878906,0.8828125 0.02384,0.063613 0.03574,0.1171875 0.02734,0.1171875 -0.0084,0 -0.136936,-0.05862 -0.28711,-0.1289062 C 10.280627,4.3278081 9.9713947,4.2800738 9.5488281,4.3398438 c -0.1903161,0.026919 -0.351805,0.05493 -0.359375,0.0625 -0.02792,0.027926 0.162182,0.5308595 0.3183594,0.8417968 0.1438523,0.2863983 0.1519982,0.3227796 0.085937,0.34375 -0.059119,0.018767 -0.068278,0.051921 -0.044922,0.1601563 0.036737,0.1702519 0.00742,0.5332031 -0.042969,0.5332031 -0.020798,0 -0.037109,-0.043966 -0.037109,-0.097656 0,-0.053691 -0.1081991,-0.3137546 -0.2402344,-0.578125 C 9.0253969,5.1987534 8.9359163,5.0728861 8.6464844,4.7792969 8.4583503,4.5884608 8.280083,4.4316406 8.25,4.4316406 c -0.054701,0 -0.049353,0.189319 0.025391,0.8261719 C 8.298424,5.4540677 8.293543,5.477683 8.210938,5.5039062 8.103783,5.5379216 7.9408176,5.4469923 7.7871094,5.2675781 7.6540168,5.1122292 7.4138218,5.0637088 7.2636719,5.1621094 7.2042121,5.2010752 7.1267345,5.3210205 7.0839844,5.4414062 7.0020437,5.6721572 6.9322493,5.7179337 6.7597656,5.6523438 6.3392604,5.4924387 6.3345867,5.7157187 6.7402344,6.5 c 0.044246,0.085543 0.080078,0.2026221 0.080078,0.2597656 0,0.073656 0.042576,0.1318306 0.1484375,0.1972656 0.2037508,0.1259487 0.2862646,0.2617595 0.2597656,0.4296876 -0.018973,0.1202453 0.00451,0.1616624 0.1894532,0.3515624 0.2252764,0.231321 0.2964922,0.4200847 0.2324218,0.6113282 -0.033081,0.098744 -0.017806,0.1345118 0.1289063,0.28125 l 0.1679687,0.1660156 0.013672,0.4414062 c 0.013675,0.4177964 0.023108,0.4520953 0.1484375,0.625 0.072851,0.1005047 0.150043,0.1835938 0.171875,0.1835938 0.021832,0 0.1872456,-0.1985241 0.3691406,-0.4414062 C 9.2594279,8.7922298 10.195763,7.9465217 11.208984,7.2949219 11.825813,6.8982404 12.984298,6.3176219 14.451172,5.671875 14.952769,5.4378353 15.528135,5.1945169 16,4.9921875 V 2.7519531 C 16,1.2272161 14.772781,0 13.248047,0 Z M 16,5.6191406 C 15.36429,5.9402127 14.462707,6.3915111 13.757812,6.7382812 11.743817,7.7272886 10.826384,8.3234981 9.9316406,9.2246094 9.4474879,9.7122101 9.1378675,10.113951 8.7753906,10.722656 8.6247878,10.975564 8.4441515,11.243809 8.375,11.318359 c -0.1704082,0.183719 -0.1836539,0.447074 -0.037109,0.734375 0.098038,0.192197 0.098868,0.198658 0.00391,0.173828 -0.2094595,-0.05478 -0.257461,0.376453 -0.080078,0.726563 0.1997561,0.394272 0.3242187,0.402599 0.3242187,0.02148 0,-0.339788 0.099293,-0.602715 0.296875,-0.78125 0.1942513,-0.175523 0.3083024,-0.185685 0.4804687,-0.04492 L 9.4902344,12.25 9.2929688,12.244141 c -0.3537559,-0.01299 -0.4829077,0.217617 -0.4394532,0.78125 0.014221,0.184427 0.034463,0.343055 0.044922,0.353515 0.010457,0.01046 0.1696255,-0.03965 0.3554687,-0.111328 0.455276,-0.175599 0.720246,-0.178235 0.8906247,-0.0078 0.06761,0.06762 0.123047,0.145002 0.123047,0.169922 0,0.05721 0.0043,0.05573 -0.208984,-0.01953 -0.528445,-0.186481 -0.9239448,0.0184 -1.1992189,0.621094 -0.1090934,0.238853 -0.2170792,0.782986 -0.1757812,0.890625 0.036078,0.09403 0.2233564,0.156223 0.4726562,0.15625 0.1555447,1.6e-5 0.405791,-0.0693 0.9257809,-0.257813 0.391654,-0.141987 0.884847,-0.302601 1.095703,-0.357421 1.173871,-0.305219 2.209095,-0.07633 2.371094,0.52539 0.06472,0.240409 -0.0845,0.619548 -0.339844,0.980469 h -0.01367 V 16 h 0.05274 C 14.772774,16 16,14.772781 16,13.248047 Z M 0,9.1679688 V 11.96875 h 0.046875 c 0.55420129,-0.515143 1.3048347,-0.834256 2.2617188,-0.958984 0.1209791,-0.01577 0.2113587,-0.04481 0.1992187,-0.06445 C 2.4956727,10.925665 2.3128367,10.822975 2.1035156,10.714844 1.312984,10.336954 0.61783623,9.7293447 0,9.1679688 Z m 7.8144531,3.6171872 -0.087891,0.119141 C 7.4537895,13.281519 7.360687,13.386324 7.1347656,13.568359 6.997642,13.678849 6.7622487,13.843904 6.6113281,13.933594 6.460408,14.023279 6.2140863,14.186692 6.0644531,14.296875 5.8254247,14.472888 5.8022255,14.50025 5.875,14.53125 c 0.1432338,0.061 0.7409352,0.0025 1.1347656,-0.111328 0.208149,-0.06015 0.552132,-0.19356 0.765625,-0.296875 0.4454628,-0.215571 0.515625,-0.305994 0.515625,-0.662109 0,-0.267126 -0.1099136,-0.460914 -0.3339844,-0.591797 z m -0.076172,1.738282 c -0.1004335,4.72e-4 -0.2348231,0.053 -0.4609374,0.146484 -0.2396769,0.09908 -0.520926,0.223145 -0.625,0.27539 -0.1819388,0.09134 -0.4218751,0.282891 -0.421875,0.337891 -1e-7,0.01455 0.1092038,0.07069 0.2421874,0.125 0.1329843,0.05431 0.2799174,0.125703 0.3261719,0.158203 0.1383341,0.09718 0.4132004,0.0359 0.8886719,-0.195312 0.2433623,-0.118339 0.4890219,-0.214844 0.5449219,-0.214844 0.1038105,0 0.1358939,-0.05769 0.058594,-0.105469 C 8.2673756,15.036171 8.1717255,14.919694 8.078125,14.792969 7.9401871,14.606208 7.867411,14.522826 7.7382811,14.523438 Z" />
</svg>
