<?xml version="1.0" encoding="UTF-8" standalone="no"?>
<svg
   version="1.1"
   viewBox="0 0 16 16"
   id="svg10"
   width="16"
   height="16"
   xmlns:xlink="http://www.w3.org/1999/xlink"
   xmlns="http://www.w3.org/2000/svg"
   xmlns:svg="http://www.w3.org/2000/svg"
   xmlns:rdf="http://www.w3.org/1999/02/22-rdf-syntax-ns#"
   xmlns:cc="http://creativecommons.org/ns#"
   xmlns:dc="http://purl.org/dc/elements/1.1/">
  <defs>
   <style id="current-color-scheme" type="text/css">
   .ColorScheme-Text { color: #0abdc6; } .ColorScheme-Highlight { color:#5294e2; }
  </style>
  <linearGradient id="arrongin" x1="0%" x2="0%" y1="0%" y2="100%">
   <stop offset="0%" style="stop-color:#dd9b44; stop-opacity:1"/>
   <stop offset="100%" style="stop-color:#ad6c16; stop-opacity:1"/>
  </linearGradient>
  <linearGradient id="aurora" x1="0%" x2="0%" y1="0%" y2="100%">
   <stop offset="0%" style="stop-color:#09D4DF; stop-opacity:1"/>
   <stop offset="100%" style="stop-color:#9269F4; stop-opacity:1"/>
  </linearGradient>
  <linearGradient id="cyberneon" x1="0%" x2="0%" y1="0%" y2="100%">
    <stop offset="0" style="stop-color:#0abdc6; stop-opacity:1"/>
    <stop offset="1" style="stop-color:#ea00d9; stop-opacity:1"/>
  </linearGradient>
  <linearGradient id="fitdance" x1="0%" x2="0%" y1="0%" y2="100%">
   <stop offset="0%" style="stop-color:#1AD6AB; stop-opacity:1"/>
   <stop offset="100%" style="stop-color:#329DB6; stop-opacity:1"/>
  </linearGradient>
  <linearGradient id="oomox" x1="0%" x2="0%" y1="0%" y2="100%">
   <stop offset="0%" style="stop-color:#0abdc6; stop-opacity:1"/>
   <stop offset="100%" style="stop-color:#b800ff; stop-opacity:1"/>
  </linearGradient>
  <linearGradient id="rainblue" x1="0%" x2="0%" y1="0%" y2="100%">
   <stop offset="0%" style="stop-color:#00F260; stop-opacity:1"/>
   <stop offset="100%" style="stop-color:#0575E6; stop-opacity:1"/>
  </linearGradient>
  <linearGradient id="sunrise" x1="0%" x2="0%" y1="0%" y2="100%">
   <stop offset="0%" style="stop-color: #FF8501; stop-opacity:1"/>
   <stop offset="100%" style="stop-color: #FFCB01; stop-opacity:1"/>
  </linearGradient>
  <linearGradient id="telinkrin" x1="0%" x2="0%" y1="0%" y2="100%">
   <stop offset="0%" style="stop-color: #b2ced6; stop-opacity:1"/>
   <stop offset="100%" style="stop-color: #6da5b7; stop-opacity:1"/>
  </linearGradient>
  <linearGradient id="60spsycho" x1="0%" x2="0%" y1="0%" y2="100%">
   <stop offset="0%" style="stop-color: #df5940; stop-opacity:1"/>
   <stop offset="25%" style="stop-color: #d8d15f; stop-opacity:1"/>
   <stop offset="50%" style="stop-color: #e9882a; stop-opacity:1"/>
   <stop offset="100%" style="stop-color: #279362; stop-opacity:1"/>
  </linearGradient>
  <linearGradient id="90ssummer" x1="0%" x2="0%" y1="0%" y2="100%">
   <stop offset="0%" style="stop-color: #f618c7; stop-opacity:1"/>
   <stop offset="20%" style="stop-color: #94ffab; stop-opacity:1"/>
   <stop offset="50%" style="stop-color: #fbfd54; stop-opacity:1"/>
   <stop offset="100%" style="stop-color: #0f83ae; stop-opacity:1"/>
  </linearGradient>
 </defs>
  <path
     id="rect10"
     class="ColorScheme-Text"
     style="fill:url(#oomox);stroke-width:0;stroke-linejoin:round"
     d="M 0,1.230769 V 7.9999998 H 16 V 1.230769 Z M 0.61538462,2.4615382 H 15.384615 v 4.3076923 c 0,0.3409225 -0.274462,0.6153847 -0.615384,0.6153847 h -0.615385 c -0.340922,0 -0.615384,-0.2744622 -0.615384,-0.6153847 0,0.3409225 -0.274463,0.6153847 -0.615385,0.6153847 h -0.615385 c -0.340922,0 -0.615384,-0.2744622 -0.615384,-0.6153847 0,0.3409225 -0.274462,0.6153847 -0.615385,0.6153847 h -0.615385 c -0.340922,0 -0.6153842,-0.2744622 -0.6153842,-0.6153847 0,0.3409225 -0.2744621,0.6153847 -0.6153846,0.6153847 H 8.6153846 C 8.2744622,7.3846152 8,7.110153 8,6.7692305 8,7.110153 7.7255378,7.3846152 7.3846154,7.3846152 H 6.7692308 c -0.3409225,0 -0.6153846,-0.2744622 -0.6153846,-0.6153847 0,0.3409225 -0.2744622,0.6153847 -0.6153847,0.6153847 H 4.9230769 c -0.3409224,0 -0.6153846,-0.2744622 -0.6153846,-0.6153847 0,0.3409225 -0.2744621,0.6153847 -0.6153846,0.6153847 H 3.0769231 c -0.3409225,0 -0.6153846,-0.2744622 -0.6153846,-0.6153847 0,0.3409225 -0.2744622,0.6153847 -0.6153847,0.6153847 H 1.2307692 c -0.34092243,0 -0.61538458,-0.2744622 -0.61538458,-0.6153847 z" />
  <path
     id="rect10-7"
     class="ColorScheme-Text"
     style="fill:url(#oomox);stroke-width:0;stroke-linejoin:round"
     d="M 0,7.9999998 V 14.769231 H 16 V 7.9999998 Z M 0.61538462,9.230769 H 15.384615 v 4.307692 c 0,0.340923 -0.274462,0.615385 -0.615384,0.615385 h -0.615385 c -0.340922,0 -0.615384,-0.274462 -0.615384,-0.615385 0,0.340923 -0.274463,0.615385 -0.615385,0.615385 h -0.615385 c -0.340922,0 -0.615384,-0.274462 -0.615384,-0.615385 0,0.340923 -0.274462,0.615385 -0.615385,0.615385 h -0.615385 c -0.340922,0 -0.6153842,-0.274462 -0.6153842,-0.615385 0,0.340923 -0.2744621,0.615385 -0.6153846,0.615385 H 8.6153846 C 8.2744622,14.153846 8,13.879384 8,13.538461 8,13.879384 7.7255378,14.153846 7.3846154,14.153846 H 6.7692308 c -0.3409225,0 -0.6153846,-0.274462 -0.6153846,-0.615385 0,0.340923 -0.2744622,0.615385 -0.6153847,0.615385 H 4.9230769 c -0.3409224,0 -0.6153846,-0.274462 -0.6153846,-0.615385 0,0.340923 -0.2744621,0.615385 -0.6153846,0.615385 H 3.0769231 c -0.3409225,0 -0.6153846,-0.274462 -0.6153846,-0.615385 0,0.340923 -0.2744622,0.615385 -0.6153847,0.615385 H 1.2307692 c -0.34092243,0 -0.61538458,-0.274462 -0.61538458,-0.615385 z" />
  <path
     id="path21"
     class="ColorScheme-Text"
     style="fill:url(#oomox);stroke-width:0.615385"
     d="M 1.8457031 8.6152344 L 1.8457031 11.384766 C 1.8457031 11.406066 1.8474425 11.427196 1.8515625 11.447266 C 1.8556225 11.467336 1.8633278 11.485486 1.8710938 11.503906 C 1.8788637 11.522326 1.8874035 11.540281 1.8984375 11.556641 C 1.9094715 11.573001 1.9216389 11.587663 1.9355469 11.601562 C 1.9494489 11.615462 1.9660589 11.627632 1.9824219 11.638672 C 1.9987849 11.649712 2.0147791 11.660209 2.0332031 11.667969 C 2.0516221 11.675769 2.0717299 11.681457 2.0917969 11.685547 C 2.1118369 11.689647 2.1329889 11.691406 2.1542969 11.691406 L 2.7695312 11.691406 C 2.7908422 11.691406 2.8119683 11.689647 2.8320312 11.685547 C 2.8520992 11.681447 2.8702539 11.675729 2.8886719 11.667969 C 2.9070899 11.660169 2.9250433 11.649702 2.9414062 11.638672 C 2.9577692 11.627632 2.9724201 11.615472 2.9863281 11.601562 C 3.0002301 11.587663 3.0123975 11.573001 3.0234375 11.556641 C 3.0344715 11.540281 3.0449744 11.522326 3.0527344 11.503906 C 3.0605044 11.485486 3.0662265 11.467336 3.0703125 11.447266 C 3.0744025 11.427216 3.0761719 11.406076 3.0761719 11.384766 L 3.0761719 8.6152344 L 1.8457031 8.6152344 z M 3.6914062 8.6152344 L 3.6914062 11.384766 C 3.6914062 11.406066 3.6950988 11.427196 3.6992188 11.447266 C 3.7032787 11.467336 3.7090309 11.485486 3.7167969 11.503906 C 3.7245669 11.522326 3.7350598 11.540281 3.7460938 11.556641 C 3.7571337 11.573001 3.7692951 11.587663 3.7832031 11.601562 C 3.7971051 11.615462 3.811762 11.627632 3.828125 11.638672 C 3.844488 11.649712 3.8604883 11.660209 3.8789062 11.667969 C 3.8973252 11.675769 3.917433 11.681457 3.9375 11.685547 C 3.957546 11.689647 3.978692 11.691406 4 11.691406 L 4.6152344 11.691406 C 4.6365394 11.691406 4.6576654 11.689647 4.6777344 11.685547 C 4.6978024 11.681447 4.7179101 11.675729 4.7363281 11.667969 C 4.7547471 11.660169 4.7707464 11.649702 4.7871094 11.638672 C 4.8034724 11.627632 4.8181293 11.615472 4.8320312 11.601562 C 4.8459332 11.587663 4.8600538 11.573001 4.8710938 11.556641 C 4.8821337 11.540281 4.8906775 11.522326 4.8984375 11.503906 C 4.9062075 11.485486 4.9138828 11.467336 4.9179688 11.447266 C 4.9220587 11.427216 4.9238281 11.406076 4.9238281 11.384766 L 4.9238281 8.6152344 L 3.6914062 8.6152344 z M 7.3847656 8.6152344 L 7.3847656 11.384766 C 7.3847656 11.406066 7.386505 11.427196 7.390625 11.447266 C 7.394685 11.467336 7.4004371 11.485486 7.4082031 11.503906 C 7.4159731 11.522326 7.426466 11.540281 7.4375 11.556641 C 7.44854 11.573001 7.4607024 11.587663 7.4746094 11.601562 C 7.4885114 11.615462 7.5031683 11.627632 7.5195312 11.638672 C 7.5358942 11.649712 7.5538476 11.660209 7.5722656 11.667969 C 7.5906836 11.675769 7.6088393 11.681457 7.6289062 11.685547 C 7.6489522 11.689647 7.6700983 11.691406 7.6914062 11.691406 L 8.3085938 11.691406 C 8.3298987 11.691406 8.3510248 11.689647 8.3710938 11.685547 C 8.3911617 11.681447 8.4093164 11.675729 8.4277344 11.667969 C 8.4461524 11.660169 8.4641058 11.649702 8.4804688 11.638672 C 8.4968317 11.627632 8.5114886 11.615472 8.5253906 11.601562 C 8.5392916 11.587663 8.551461 11.573001 8.5625 11.556641 C 8.57354 11.540281 8.5840369 11.522326 8.5917969 11.503906 C 8.5995669 11.485486 8.605289 11.467336 8.609375 11.447266 C 8.613465 11.427216 8.6152344 11.406076 8.6152344 11.384766 L 8.6152344 8.6152344 L 7.3847656 8.6152344 z M 9.2304688 8.6152344 L 9.2304688 11.384766 C 9.2304688 11.406066 9.2322081 11.427196 9.2363281 11.447266 C 9.2403881 11.467336 9.2461403 11.485486 9.2539062 11.503906 C 9.2616762 11.522326 9.2721691 11.540281 9.2832031 11.556641 C 9.2942431 11.573001 9.3064045 11.587663 9.3203125 11.601562 C 9.3342145 11.615462 9.3508245 11.627632 9.3671875 11.638672 C 9.3835505 11.649712 9.3995508 11.660209 9.4179688 11.667969 C 9.4363867 11.675769 9.4564955 11.681457 9.4765625 11.685547 C 9.4966085 11.689647 9.5177545 11.691406 9.5390625 11.691406 L 10.154297 11.691406 C 10.175597 11.691406 10.196727 11.689647 10.216797 11.685547 C 10.236867 11.681447 10.255018 11.675729 10.273438 11.667969 C 10.291857 11.660169 10.309812 11.649702 10.326172 11.638672 C 10.342532 11.627632 10.357194 11.615472 10.371094 11.601562 C 10.384994 11.587663 10.397163 11.573001 10.408203 11.556641 C 10.419243 11.540281 10.42974 11.522326 10.4375 11.503906 C 10.4453 11.485486 10.450988 11.467336 10.455078 11.447266 C 10.459178 11.427216 10.460938 11.406076 10.460938 11.384766 L 10.460938 8.6152344 L 9.2304688 8.6152344 z M 11.076172 8.6152344 L 11.076172 11.384766 C 11.076172 11.406066 11.077931 11.427196 11.082031 11.447266 C 11.086131 11.467336 11.093793 11.485486 11.101562 11.503906 C 11.109362 11.522326 11.117876 11.540281 11.128906 11.556641 C 11.139946 11.573001 11.154059 11.587663 11.167969 11.601562 C 11.181869 11.615462 11.196531 11.627632 11.212891 11.638672 C 11.229251 11.649712 11.245252 11.660209 11.263672 11.667969 C 11.282092 11.675769 11.302206 11.681457 11.322266 11.685547 C 11.342316 11.689647 11.363456 11.691406 11.384766 11.691406 L 12 11.691406 C 12.0213 11.691406 12.04243 11.689647 12.0625 11.685547 C 12.08257 11.681447 12.102674 11.675729 12.121094 11.667969 C 12.139514 11.660169 12.155515 11.649702 12.171875 11.638672 C 12.188235 11.627632 12.202897 11.615472 12.216797 11.601562 C 12.230697 11.587663 12.242866 11.573001 12.253906 11.556641 C 12.264946 11.540281 12.275443 11.522326 12.283203 11.503906 C 12.291003 11.485486 12.296691 11.467336 12.300781 11.447266 C 12.304881 11.427216 12.308594 11.406076 12.308594 11.384766 L 12.308594 8.6152344 L 11.076172 8.6152344 z " />
  <path
     id="path16"
     class="ColorScheme-Text"
     style="fill:url(#oomox);stroke-width:0.615385"
     d="M 1.8457031 1.8457031 L 1.8457031 4.6152344 C 1.8457031 4.6365394 1.8474425 4.6576654 1.8515625 4.6777344 C 1.8556225 4.6978024 1.8633278 4.7179101 1.8710938 4.7363281 C 1.8788637 4.7547461 1.8874035 4.7707464 1.8984375 4.7871094 C 1.9094715 4.8034724 1.9216389 4.8181293 1.9355469 4.8320312 C 1.9494489 4.8459332 1.9660589 4.8600538 1.9824219 4.8710938 C 1.9987849 4.8821337 2.0147791 4.8906775 2.0332031 4.8984375 C 2.0516221 4.9062075 2.0717299 4.9138828 2.0917969 4.9179688 C 2.1118369 4.9220587 2.1329889 4.9238281 2.1542969 4.9238281 L 2.7695312 4.9238281 C 2.7908422 4.9238281 2.8119683 4.9220887 2.8320312 4.9179688 C 2.8520992 4.9139088 2.8702539 4.9062035 2.8886719 4.8984375 C 2.9070899 4.8906675 2.9250433 4.8821277 2.9414062 4.8710938 C 2.9577692 4.8600538 2.9724201 4.8459392 2.9863281 4.8320312 C 3.0002301 4.8181293 3.0123975 4.8034724 3.0234375 4.7871094 C 3.0344715 4.7707464 3.0449744 4.7547471 3.0527344 4.7363281 C 3.0605044 4.7179091 3.0662265 4.6978014 3.0703125 4.6777344 C 3.0744025 4.6576884 3.0761719 4.6365424 3.0761719 4.6152344 L 3.0761719 1.8457031 L 1.8457031 1.8457031 z M 3.6914062 1.8457031 L 3.6914062 4.6152344 C 3.6914062 4.6365394 3.6950988 4.6576654 3.6992188 4.6777344 C 3.7032787 4.6978024 3.7090309 4.7179101 3.7167969 4.7363281 C 3.7245669 4.7547461 3.7350598 4.7707464 3.7460938 4.7871094 C 3.7571337 4.8034724 3.7692951 4.8181293 3.7832031 4.8320312 C 3.7971051 4.8459332 3.811762 4.8600538 3.828125 4.8710938 C 3.844488 4.8821337 3.8604883 4.8906775 3.8789062 4.8984375 C 3.8973252 4.9062075 3.917433 4.9138828 3.9375 4.9179688 C 3.957546 4.9220587 3.978692 4.9238281 4 4.9238281 L 4.6152344 4.9238281 C 4.6365394 4.9238281 4.6576654 4.9220887 4.6777344 4.9179688 C 4.6978024 4.9139088 4.7179101 4.9062035 4.7363281 4.8984375 C 4.7547471 4.8906675 4.7707464 4.8821277 4.7871094 4.8710938 C 4.8034724 4.8600538 4.8181293 4.8459392 4.8320312 4.8320312 C 4.8459332 4.8181293 4.8600538 4.8034724 4.8710938 4.7871094 C 4.8821337 4.7707464 4.8906775 4.7547471 4.8984375 4.7363281 C 4.9062075 4.7179091 4.9138828 4.6978014 4.9179688 4.6777344 C 4.9220587 4.6576884 4.9238281 4.6365424 4.9238281 4.6152344 L 4.9238281 1.8457031 L 3.6914062 1.8457031 z M 7.3847656 1.8457031 L 7.3847656 4.6152344 C 7.3847656 4.6365394 7.386505 4.6576654 7.390625 4.6777344 C 7.394685 4.6978024 7.4004371 4.7179101 7.4082031 4.7363281 C 7.4159731 4.7547461 7.426466 4.7707464 7.4375 4.7871094 C 7.44854 4.8034724 7.4607024 4.8181293 7.4746094 4.8320312 C 7.4885114 4.8459332 7.5031683 4.8600538 7.5195312 4.8710938 C 7.5358942 4.8821337 7.5538476 4.8906775 7.5722656 4.8984375 C 7.5906836 4.9062075 7.6088393 4.9138828 7.6289062 4.9179688 C 7.6489522 4.9220587 7.6700983 4.9238281 7.6914062 4.9238281 L 8.3085938 4.9238281 C 8.3298987 4.9238281 8.3510248 4.9220887 8.3710938 4.9179688 C 8.3911617 4.9139088 8.4093164 4.9062035 8.4277344 4.8984375 C 8.4461524 4.8906675 8.4641058 4.8821277 8.4804688 4.8710938 C 8.4968317 4.8600538 8.5114886 4.8459392 8.5253906 4.8320312 C 8.5392916 4.8181293 8.551461 4.8034724 8.5625 4.7871094 C 8.57354 4.7707464 8.5840369 4.7547471 8.5917969 4.7363281 C 8.5995669 4.7179091 8.605289 4.6978014 8.609375 4.6777344 C 8.613465 4.6576884 8.6152344 4.6365424 8.6152344 4.6152344 L 8.6152344 1.8457031 L 7.3847656 1.8457031 z M 9.2304688 1.8457031 L 9.2304688 4.6152344 C 9.2304688 4.6365394 9.2322081 4.6576654 9.2363281 4.6777344 C 9.2403881 4.6978024 9.2461403 4.7179101 9.2539062 4.7363281 C 9.2616762 4.7547461 9.2721691 4.7707464 9.2832031 4.7871094 C 9.2942431 4.8034724 9.3064045 4.8181293 9.3203125 4.8320312 C 9.3342145 4.8459332 9.3508245 4.8600538 9.3671875 4.8710938 C 9.3835505 4.8821337 9.3995508 4.8906775 9.4179688 4.8984375 C 9.4363867 4.9062075 9.4564955 4.9138828 9.4765625 4.9179688 C 9.4966085 4.9220587 9.5177545 4.9238281 9.5390625 4.9238281 L 10.154297 4.9238281 C 10.175597 4.9238281 10.196727 4.9220887 10.216797 4.9179688 C 10.236867 4.9139088 10.255018 4.9062035 10.273438 4.8984375 C 10.291857 4.8906675 10.309812 4.8821277 10.326172 4.8710938 C 10.342532 4.8600538 10.357194 4.8459392 10.371094 4.8320312 C 10.384994 4.8181293 10.397163 4.8034724 10.408203 4.7871094 C 10.419243 4.7707464 10.42974 4.7547471 10.4375 4.7363281 C 10.4453 4.7179091 10.450988 4.6978014 10.455078 4.6777344 C 10.459178 4.6576884 10.460938 4.6365424 10.460938 4.6152344 L 10.460938 1.8457031 L 9.2304688 1.8457031 z M 11.076172 1.8457031 L 11.076172 4.6152344 C 11.076172 4.6365394 11.077931 4.6576654 11.082031 4.6777344 C 11.086131 4.6978024 11.093793 4.7179101 11.101562 4.7363281 C 11.109362 4.7547461 11.117876 4.7707464 11.128906 4.7871094 C 11.139946 4.8034724 11.154059 4.8181293 11.167969 4.8320312 C 11.181869 4.8459332 11.196531 4.8600538 11.212891 4.8710938 C 11.229251 4.8821337 11.245252 4.8906775 11.263672 4.8984375 C 11.282092 4.9062075 11.302206 4.9138828 11.322266 4.9179688 C 11.342316 4.9220587 11.363456 4.9238281 11.384766 4.9238281 L 12 4.9238281 C 12.0213 4.9238281 12.04243 4.9220887 12.0625 4.9179688 C 12.08257 4.9139088 12.102674 4.9062035 12.121094 4.8984375 C 12.139514 4.8906675 12.155515 4.8821277 12.171875 4.8710938 C 12.188235 4.8600538 12.202897 4.8459392 12.216797 4.8320312 C 12.230697 4.8181293 12.242866 4.8034724 12.253906 4.7871094 C 12.264946 4.7707464 12.275443 4.7547471 12.283203 4.7363281 C 12.291003 4.7179091 12.296691 4.6978014 12.300781 4.6777344 C 12.304881 4.6576884 12.308594 4.6365424 12.308594 4.6152344 L 12.308594 1.8457031 L 11.076172 1.8457031 z " />
  <metadata
     id="metadata21">
    <rdf:RDF>
      <cc:Work
         rdf:about="">
        <dc:creator>
          <cc:Agent>
            <dc:title>dreifacherspass</dc:title>
          </cc:Agent>
        </dc:creator>
        <cc:license
           rdf:resource="http://creativecommons.org/licenses/by-sa/4.0/" />
      </cc:Work>
      <cc:License
         rdf:about="http://creativecommons.org/licenses/by-sa/4.0/">
        <cc:permits
           rdf:resource="http://creativecommons.org/ns#Reproduction" />
        <cc:permits
           rdf:resource="http://creativecommons.org/ns#Distribution" />
        <cc:requires
           rdf:resource="http://creativecommons.org/ns#Notice" />
        <cc:requires
           rdf:resource="http://creativecommons.org/ns#Attribution" />
        <cc:permits
           rdf:resource="http://creativecommons.org/ns#DerivativeWorks" />
        <cc:requires
           rdf:resource="http://creativecommons.org/ns#ShareAlike" />
      </cc:License>
    </rdf:RDF>
  </metadata>
</svg>
