<?xml version="1.0" encoding="UTF-8" standalone="no"?>
<svg
   viewBox="0 0 64 64"
   width="64px"
   height="64px"
   version="1.1"
   id="svg11"
   xmlns="http://www.w3.org/2000/svg"
   xmlns:svg="http://www.w3.org/2000/svg">
  <defs
     id="defs10" />
  <linearGradient
     id="oomox"
     x1="0%"
     x2="0%"
     y1="0%"
     y2="100%">
    <stop
       offset="0%"
       style="stop-color:#0abdc6; stop-opacity:1"
       id="stop9212" />
    <stop
       offset="100%"
       style="stop-color:#b800ff; stop-opacity:1"
       id="stop9214" />
  </linearGradient>
  <path
     d="M 7.7391304,6.3913044 H 15.826087 V 57.608696 H 7.7391304 c -0.727826,0 -1.347826,-0.62 -1.347826,-1.347826 V 7.7391304 c 0,-0.727826 0.62,-1.347826 1.347826,-1.347826 z"
     id="path5"
     style="fill:url(#oomox);stroke-width:1.34782" />
  <path
     d="M 57.608696,7.7391304 V 56.26087 c 0,0.727826 -0.62,1.347826 -1.347826,1.347826 H 23.913044 V 6.3913044 H 56.26087 c 0.727826,0 1.347826,0.62 1.347826,1.347826 z"
     id="path7"
     style="fill:url(#oomox);stroke-width:1.34782" />
  <path
     d="M 56.26087,1 H 7.7391304 C 4.0191304,1 1,4.0191304 1,7.7391304 V 56.26087 C 1,59.98087 4.0191304,63 7.7391304,63 H 56.26087 C 59.98087,63 63,59.98087 63,56.26087 V 7.7391304 C 63,4.0191304 59.98087,1 56.26087,1 Z M 7.7391304,60.304348 c -2.223913,0 -4.0434783,-1.819565 -4.0434783,-4.043478 V 7.7391304 c 0,-2.223913 1.8195653,-4.0434783 4.0434783,-4.0434783 H 18.521739 V 60.304348 Z M 60.304348,56.26087 c 0,2.223913 -1.819565,4.043478 -4.043478,4.043478 H 21.217391 V 3.6956521 H 56.26087 c 2.223913,0 4.043478,1.8195653 4.043478,4.0434783 z"
     id="path9"
     style="fill:url(#oomox);stroke-width:1.34782" />
</svg>
