<?xml version="1.0" encoding="UTF-8" standalone="no"?>
<svg
   width="16"
   height="16"
   viewBox="0 0 0.32 0.32"
   version="1.1"
   id="svg3"
   xmlns="http://www.w3.org/2000/svg"
   xmlns:svg="http://www.w3.org/2000/svg"
   xmlns:rdf="http://www.w3.org/1999/02/22-rdf-syntax-ns#"
   xmlns:cc="http://creativecommons.org/ns#"
   xmlns:dc="http://purl.org/dc/elements/1.1/">
   <defs>
      <style id="current-color-scheme" type="text/css">
         .ColorScheme-Text { color: #0abdc6; } .ColorScheme-Highlight { color:#5294e2; }
      </style>
      <linearGradient id="arrongin" x1="0%" x2="0%" y1="0%" y2="100%">
         <stop offset="0%" style="stop-color:#dd9b44; stop-opacity:1"/>
         <stop offset="100%" style="stop-color:#ad6c16; stop-opacity:1"/>
      </linearGradient>
      <linearGradient id="aurora" x1="0%" x2="0%" y1="0%" y2="100%">
         <stop offset="0%" style="stop-color:#09D4DF; stop-opacity:1"/>
         <stop offset="100%" style="stop-color:#9269F4; stop-opacity:1"/>
      </linearGradient>
      <linearGradient id="cyberneon" x1="0%" x2="0%" y1="0%" y2="100%">
         <stop offset="0" style="stop-color:#0abdc6; stop-opacity:1"/>
         <stop offset="1" style="stop-color:#ea00d9; stop-opacity:1"/>
      </linearGradient>
      <linearGradient id="fitdance" x1="0%" x2="0%" y1="0%" y2="100%">
         <stop offset="0%" style="stop-color:#1AD6AB; stop-opacity:1"/>
         <stop offset="100%" style="stop-color:#329DB6; stop-opacity:1"/>
      </linearGradient>
      <linearGradient id="oomox" x1="0%" x2="0%" y1="0%" y2="100%">
         <stop offset="0%" style="stop-color:#0abdc6; stop-opacity:1"/>
         <stop offset="100%" style="stop-color:#b800ff; stop-opacity:1"/>
      </linearGradient>
      <linearGradient id="rainblue" x1="0%" x2="0%" y1="0%" y2="100%">
         <stop offset="0%" style="stop-color:#00F260; stop-opacity:1"/>
         <stop offset="100%" style="stop-color:#0575E6; stop-opacity:1"/>
      </linearGradient>
      <linearGradient id="sunrise" x1="0%" x2="0%" y1="0%" y2="100%">
         <stop offset="0%" style="stop-color: #FF8501; stop-opacity:1"/>
         <stop offset="100%" style="stop-color: #FFCB01; stop-opacity:1"/>
      </linearGradient>
      <linearGradient id="telinkrin" x1="0%" x2="0%" y1="0%" y2="100%">
         <stop offset="0%" style="stop-color: #b2ced6; stop-opacity:1"/>
         <stop offset="100%" style="stop-color: #6da5b7; stop-opacity:1"/>
      </linearGradient>
      <linearGradient id="60spsycho" x1="0%" x2="0%" y1="0%" y2="100%">
         <stop offset="0%" style="stop-color: #df5940; stop-opacity:1"/>
         <stop offset="25%" style="stop-color: #d8d15f; stop-opacity:1"/>
         <stop offset="50%" style="stop-color: #e9882a; stop-opacity:1"/>
         <stop offset="100%" style="stop-color: #279362; stop-opacity:1"/>
      </linearGradient>
      <linearGradient id="90ssummer" x1="0%" x2="0%" y1="0%" y2="100%">
         <stop offset="0%" style="stop-color: #f618c7; stop-opacity:1"/>
         <stop offset="20%" style="stop-color: #94ffab; stop-opacity:1"/>
         <stop offset="50%" style="stop-color: #fbfd54; stop-opacity:1"/>
         <stop offset="100%" style="stop-color: #0f83ae; stop-opacity:1"/>
      </linearGradient>
   </defs>
  <path
     id="path1_envelope"
     style="stroke-width:0.0149999;fill:url(#oomox)"
     class="ColorScheme-Text"
     d="M 0 0.11 L 0.048007813 0.17 L 0.27199219 0.17 L 0.32 0.11 L 0 0.11 z M 0.06 0.185 L 0.10800781 0.245 L 0.21199219 0.245 L 0.26 0.185 L 0.06 0.185 z M 0.13 0.26 L 0.13 0.32 L 0.19 0.32 L 0.19 0.26 L 0.13 0.26 z " />
  <path
     fill-rule="evenodd"
     clip-rule="evenodd"
     d="m 0.10482225,0.00732232 c -0.0073221,0.00732215 -0.0073221,0.01910748 -0.0073221,0.04267789 0,0.02357007 0,0.03535573 0.0073221,0.04267764 C 0.11214442,0.1 0.12392974,0.1 0.14750014,0.1 h 0.0250001 c 0.0235701,0 0.0353557,0 0.0426776,-0.0073221 0.007322,-0.0073222 0.007322,-0.01910757 0.007322,-0.04267764 0,-0.02357033 0,-0.03535549 -0.007322,-0.04267789 C 0.20785574,0 0.19607033,0 0.17250024,0 h -0.0250001 c -0.0235703,0 -0.0353555,0 -0.0426779,0.00732232 z m 0.0962793,0.0146769 c 0.001657,0.0019891 0.001389,0.0049444 -6.0066e-4,0.0066019 l -0.0137275,0.01144021 c -0.00554,0.0046161 -0.0100301,0.0083582 -0.0139932,0.01090692 -0.004128,0.0026549 -0.008148,0.0043322 -0.0127801,0.0043322 -0.004632,0 -0.008652,-0.0016773 -0.0127801,-0.0043322 -0.003963,-0.0025485 -0.008453,-0.0062909 -0.0139927,-0.01090692 L 0.11949909,0.02860112 c -0.001989,-0.0016575 -0.002257,-0.0046128 -6.0019e-4,-0.0066019 0.001657,-0.0019891 0.004613,-0.0022573 0.006602,-6.002e-4 l 0.0134931,0.01124427 c 0.005831,0.0048594 0.009879,0.0082214 0.0132974,0.01041999 0.003308,0.0021277 0.005552,0.0028422 0.007709,0.0028422 0.002157,0 0.004401,-7.1438e-4 0.007709,-0.0028422 0.003418,-0.0021979 0.007467,-0.0055607 0.0132975,-0.01041999 L 0.1945001,0.02139902 c 0.001989,-0.0016575 0.004944,-0.0013885 0.006601,6.002e-4 z"
     id="path_funnel"
     class="ColorScheme-Text"
     style="stroke-width:0.00625003;fill:url(#oomox)" />
  <metadata
     id="metadata3">
    <rdf:RDF>
      <cc:Work
         rdf:about="">
        <dc:creator>
          <cc:Agent>
            <dc:title>dreifacherspass</dc:title>
          </cc:Agent>
        </dc:creator>
        <cc:license
           rdf:resource="http://creativecommons.org/licenses/by-sa/4.0/" />
      </cc:Work>
      <cc:License
         rdf:about="http://creativecommons.org/licenses/by-sa/4.0/">
        <cc:permits
           rdf:resource="http://creativecommons.org/ns#Reproduction" />
        <cc:permits
           rdf:resource="http://creativecommons.org/ns#Distribution" />
        <cc:requires
           rdf:resource="http://creativecommons.org/ns#Notice" />
        <cc:requires
           rdf:resource="http://creativecommons.org/ns#Attribution" />
        <cc:permits
           rdf:resource="http://creativecommons.org/ns#DerivativeWorks" />
        <cc:requires
           rdf:resource="http://creativecommons.org/ns#ShareAlike" />
      </cc:License>
    </rdf:RDF>
  </metadata>
</svg>
