<?xml version="1.0" encoding="UTF-8" standalone="no"?>
<svg
   width="16"
   height="16"
   version="1.1"
   id="svg20"
   xmlns:xlink="http://www.w3.org/1999/xlink"
   xmlns="http://www.w3.org/2000/svg"
   xmlns:svg="http://www.w3.org/2000/svg"
   xmlns:rdf="http://www.w3.org/1999/02/22-rdf-syntax-ns#"
   xmlns:cc="http://creativecommons.org/ns#"
   xmlns:dc="http://purl.org/dc/elements/1.1/">
  <defs>
   <style id="current-color-scheme" type="text/css">
   .ColorScheme-Text { color: #0abdc6; } .ColorScheme-Highlight { color:#5294e2; }
  </style>
  <linearGradient id="arrongin" x1="0%" x2="0%" y1="0%" y2="100%">
   <stop offset="0%" style="stop-color:#dd9b44; stop-opacity:1"/>
   <stop offset="100%" style="stop-color:#ad6c16; stop-opacity:1"/>
  </linearGradient>
  <linearGradient id="aurora" x1="0%" x2="0%" y1="0%" y2="100%">
   <stop offset="0%" style="stop-color:#09D4DF; stop-opacity:1"/>
   <stop offset="100%" style="stop-color:#9269F4; stop-opacity:1"/>
  </linearGradient>
  <linearGradient id="cyberneon" x1="0%" x2="0%" y1="0%" y2="100%">
    <stop offset="0" style="stop-color:#0abdc6; stop-opacity:1"/>
    <stop offset="1" style="stop-color:#ea00d9; stop-opacity:1"/>
  </linearGradient>
  <linearGradient id="fitdance" x1="0%" x2="0%" y1="0%" y2="100%">
   <stop offset="0%" style="stop-color:#1AD6AB; stop-opacity:1"/>
   <stop offset="100%" style="stop-color:#329DB6; stop-opacity:1"/>
  </linearGradient>
  <linearGradient id="oomox" x1="0%" x2="0%" y1="0%" y2="100%">
   <stop offset="0%" style="stop-color:#0abdc6; stop-opacity:1"/>
   <stop offset="100%" style="stop-color:#b800ff; stop-opacity:1"/>
  </linearGradient>
  <linearGradient id="rainblue" x1="0%" x2="0%" y1="0%" y2="100%">
   <stop offset="0%" style="stop-color:#00F260; stop-opacity:1"/>
   <stop offset="100%" style="stop-color:#0575E6; stop-opacity:1"/>
  </linearGradient>
  <linearGradient id="sunrise" x1="0%" x2="0%" y1="0%" y2="100%">
   <stop offset="0%" style="stop-color: #FF8501; stop-opacity:1"/>
   <stop offset="100%" style="stop-color: #FFCB01; stop-opacity:1"/>
  </linearGradient>
  <linearGradient id="telinkrin" x1="0%" x2="0%" y1="0%" y2="100%">
   <stop offset="0%" style="stop-color: #b2ced6; stop-opacity:1"/>
   <stop offset="100%" style="stop-color: #6da5b7; stop-opacity:1"/>
  </linearGradient>
  <linearGradient id="60spsycho" x1="0%" x2="0%" y1="0%" y2="100%">
   <stop offset="0%" style="stop-color: #df5940; stop-opacity:1"/>
   <stop offset="25%" style="stop-color: #d8d15f; stop-opacity:1"/>
   <stop offset="50%" style="stop-color: #e9882a; stop-opacity:1"/>
   <stop offset="100%" style="stop-color: #279362; stop-opacity:1"/>
  </linearGradient>
  <linearGradient id="90ssummer" x1="0%" x2="0%" y1="0%" y2="100%">
   <stop offset="0%" style="stop-color: #f618c7; stop-opacity:1"/>
   <stop offset="20%" style="stop-color: #94ffab; stop-opacity:1"/>
   <stop offset="50%" style="stop-color: #fbfd54; stop-opacity:1"/>
   <stop offset="100%" style="stop-color: #0f83ae; stop-opacity:1"/>
  </linearGradient>
 </defs>
  <path
     id="rect12"
     style="fill:url(#oomox);stroke-width:0.4"
     class="ColorScheme-Text"
     d="M 0.80078125 1.5996094 L 0.80078125 14.400391 L 0.80078125 15.179688 L 0.80078125 15.199219 C 0.81158124 15.644102 1.1735304 16 1.6210938 16 L 14.378906 16 C 14.82647 16 15.188436 15.644102 15.199219 15.199219 L 15.199219 15.179688 L 15.199219 14.400391 L 15.199219 1.5996094 L 0.80078125 1.5996094 z M 1.1992188 2 L 14.800781 2 L 14.800781 14 L 1.1992188 14 L 1.1992188 2 z M 12.599609 14.800781 A 0.1999999 0.1999999 0 0 1 12.800781 15 A 0.1999999 0.1999999 0 0 1 12.599609 15.199219 A 0.1999999 0.1999999 0 0 1 12.400391 15 A 0.1999999 0.1999999 0 0 1 12.599609 14.800781 z " />
  <path
     id="path14"
     class="ColorScheme-Text"
     style="display:inline;fill:url(#oomox);stroke-width:0.4"
     d="M 1.6203056,0 C 1.1727418,0 0.811558,0.35511581 0.800774,0.79999959 h -8e-4 v 0.02032 0.77968761 h 14.399992 v -0.77969561 -0.020312 h -8e-4 C 15.188366,0.35511581 14.827198,0 14.379635,0 Z" />
  <rect
     width="6.7999964"
     x="1.9999964"
     y="4.7999926"
     height="8.3999958"
     id="rect18"
     class="ColorScheme-Text"
     style="opacity:0.7;fill:url(#oomox);stroke-width:0.4" />
  <path
     id="path19"
     style="fill:url(#oomox);stroke-width:0.4"
     class="ColorScheme-Text"
     d="M 2.4003906 14.400391 L 2.4003906 14.800781 C 2.4003906 15.243981 2.7560194 15.599609 3.1992188 15.599609 L 12.800781 15.599609 C 13.24398 15.599609 13.599609 15.243981 13.599609 14.800781 L 13.599609 14.400391 L 2.4003906 14.400391 z M 12.599609 14.800781 A 0.1999999 0.1999999 0 0 1 12.800781 15 A 0.1999999 0.1999999 0 0 1 12.599609 15.199219 A 0.1999999 0.1999999 0 0 1 12.400391 15 A 0.1999999 0.1999999 0 0 1 12.599609 14.800781 z " />
  <metadata
     id="metadata27">
    <rdf:RDF>
      <cc:Work
         rdf:about="">
        <dc:creator>
          <cc:Agent>
            <dc:title>dreifacherspass</dc:title>
          </cc:Agent>
        </dc:creator>
        <cc:license
           rdf:resource="http://creativecommons.org/licenses/by-sa/4.0/" />
      </cc:Work>
      <cc:License
         rdf:about="http://creativecommons.org/licenses/by-sa/4.0/">
        <cc:permits
           rdf:resource="http://creativecommons.org/ns#Reproduction" />
        <cc:permits
           rdf:resource="http://creativecommons.org/ns#Distribution" />
        <cc:requires
           rdf:resource="http://creativecommons.org/ns#Notice" />
        <cc:requires
           rdf:resource="http://creativecommons.org/ns#Attribution" />
        <cc:permits
           rdf:resource="http://creativecommons.org/ns#DerivativeWorks" />
        <cc:requires
           rdf:resource="http://creativecommons.org/ns#ShareAlike" />
      </cc:License>
    </rdf:RDF>
  </metadata>
  <rect
     style="opacity:1;fill:url(#oomox);stroke-width:0.198989"
     id="rect24-3"
     class="ColorScheme-Text"
     width="12.8"
     height="0.40000001"
     x="1.6000004"
     y="7.5999999" />
  <rect
     style="fill:url(#oomox);stroke-width:0.198989"
     id="rect24-3-3"
     class="ColorScheme-Text"
     width="12.8"
     height="0.40000001"
     x="-14.400001"
     y="-7.5999999"
     transform="scale(-1)" />
</svg>
