<?xml version="1.0" encoding="UTF-8" standalone="no"?>
<svg
   version="1.1"
   viewBox="0 0 16 16"
   id="svg53"
   width="16"
   height="16"
   xmlns="http://www.w3.org/2000/svg"
   xmlns:svg="http://www.w3.org/2000/svg"
   xmlns:rdf="http://www.w3.org/1999/02/22-rdf-syntax-ns#"
   xmlns:cc="http://creativecommons.org/ns#"
   xmlns:dc="http://purl.org/dc/elements/1.1/">
  <defs>
   <style id="current-color-scheme" type="text/css">
   .ColorScheme-Text { color: #0abdc6; } .ColorScheme-Highlight { color:#5294e2; }
  </style>
  <linearGradient id="arrongin" x1="0%" x2="0%" y1="0%" y2="100%">
   <stop offset="0%" style="stop-color:#dd9b44; stop-opacity:1"/>
   <stop offset="100%" style="stop-color:#ad6c16; stop-opacity:1"/>
  </linearGradient>
  <linearGradient id="aurora" x1="0%" x2="0%" y1="0%" y2="100%">
   <stop offset="0%" style="stop-color:#09D4DF; stop-opacity:1"/>
   <stop offset="100%" style="stop-color:#9269F4; stop-opacity:1"/>
  </linearGradient>
  <linearGradient id="cyberneon" x1="0%" x2="0%" y1="0%" y2="100%">
    <stop offset="0" style="stop-color:#0abdc6; stop-opacity:1"/>
    <stop offset="1" style="stop-color:#ea00d9; stop-opacity:1"/>
  </linearGradient>
  <linearGradient id="fitdance" x1="0%" x2="0%" y1="0%" y2="100%">
   <stop offset="0%" style="stop-color:#1AD6AB; stop-opacity:1"/>
   <stop offset="100%" style="stop-color:#329DB6; stop-opacity:1"/>
  </linearGradient>
  <linearGradient id="oomox" x1="0%" x2="0%" y1="0%" y2="100%">
   <stop offset="0%" style="stop-color:#0abdc6; stop-opacity:1"/>
   <stop offset="100%" style="stop-color:#b800ff; stop-opacity:1"/>
  </linearGradient>
  <linearGradient id="rainblue" x1="0%" x2="0%" y1="0%" y2="100%">
   <stop offset="0%" style="stop-color:#00F260; stop-opacity:1"/>
   <stop offset="100%" style="stop-color:#0575E6; stop-opacity:1"/>
  </linearGradient>
  <linearGradient id="sunrise" x1="0%" x2="0%" y1="0%" y2="100%">
   <stop offset="0%" style="stop-color: #FF8501; stop-opacity:1"/>
   <stop offset="100%" style="stop-color: #FFCB01; stop-opacity:1"/>
  </linearGradient>
  <linearGradient id="telinkrin" x1="0%" x2="0%" y1="0%" y2="100%">
   <stop offset="0%" style="stop-color: #b2ced6; stop-opacity:1"/>
   <stop offset="100%" style="stop-color: #6da5b7; stop-opacity:1"/>
  </linearGradient>
  <linearGradient id="60spsycho" x1="0%" x2="0%" y1="0%" y2="100%">
   <stop offset="0%" style="stop-color: #df5940; stop-opacity:1"/>
   <stop offset="25%" style="stop-color: #d8d15f; stop-opacity:1"/>
   <stop offset="50%" style="stop-color: #e9882a; stop-opacity:1"/>
   <stop offset="100%" style="stop-color: #279362; stop-opacity:1"/>
  </linearGradient>
  <linearGradient id="90ssummer" x1="0%" x2="0%" y1="0%" y2="100%">
   <stop offset="0%" style="stop-color: #f618c7; stop-opacity:1"/>
   <stop offset="20%" style="stop-color: #94ffab; stop-opacity:1"/>
   <stop offset="50%" style="stop-color: #fbfd54; stop-opacity:1"/>
   <stop offset="100%" style="stop-color: #0f83ae; stop-opacity:1"/>
  </linearGradient>
 </defs>
  <path
     id="path21"
     class="ColorScheme-Text"
     style="display:inline;fill:url(#oomox);fill-opacity:1"
     d="m 392.62078,503.8 c -1.136,0 -2.05078,0.864 -2.05078,2 v 2 32.65615 h 36 V 507.8 v -2 c 0,-1.136 -0.91478,-2 -2.05078,-2 z m -1.05078,4 h 34 v 31 h -34 z"
     transform="matrix(0.41025641,0,0,0.41025641,-159.61846,-206.68718)" />
  <path
     d="m 408.92297,511.46023 9.13155,10e-6 4.56575,4.56375 10e-6,13.69156 h -13.69731 z"
     id="path33-2"
     class="ColorScheme-Text"
     style="opacity:0.7;fill:url(#oomox);fill-opacity:1;stroke:none;stroke-width:0.911566"
     transform="matrix(0.41025641,0,0,0.41025641,-159.61846,-206.68718)" />
  <path
     d="m 394.09637,516.95217 9.13154,10e-6 4.5658,4.56379 1e-5,13.69152 h -13.69735 z"
     id="path33"
     class="ColorScheme-Text"
     style="opacity:0.7;fill:url(#oomox);fill-opacity:1;stroke:none;stroke-width:0.911592"
     transform="matrix(0.41025641,0,0,0.41025641,-159.61846,-206.68718)" />
  <rect
     x="392.57001"
     y="522.79999"
     width="32"
     height="1"
     stroke-width="6.2"
     id="rect35"
     class="ColorScheme-Text"
     style="fill:url(#oomox);fill-opacity:1"
     transform="matrix(0.41025641,0,0,0.41025641,-159.61846,-206.68718)" />
  <path
     id="path39"
     style="fill:url(#oomox);fill-opacity:1"
     class="ColorScheme-Text"
     d="m 394.57058,539.80013 v 0.99996 c 0,1.10799 0.89192,1.99991 1.99992,1.99991 h 23.999 c 1.108,0 1.99992,-0.89192 1.99992,-1.99991 v -0.99996 z m 25.49975,0.99996 a 0.5,0.5 0 0 1 0.49917,0.49916 0.5,0.5 0 0 1 -0.49917,0.50079 0.5,0.5 0 0 1 -0.50079,-0.50079 0.5,0.5 0 0 1 0.50079,-0.49916 z"
     transform="matrix(0.41025641,0,0,0.41025641,-159.61846,-206.68718)" />
  <rect
     transform="matrix(0.41025641,0,0,-0.41025641,-159.61846,-206.68717)"
     x="392.57001"
     y="-523.29999"
     width="32"
     height="3.5"
     id="rect45"
     style="display:inline;fill:url(#oomox);fill-opacity:0.5;stroke:none" />
  <rect
     transform="matrix(-0.41025641,0,0,0.41025641,-159.61846,-206.68717)"
     x="-424.57001"
     y="523.29999"
     width="32"
     height="3.5"
     id="rect47"
     style="display:inline;fill:url(#oomox);fill-opacity:0.5" />
  <metadata
     id="metadata1512">
    <rdf:RDF>
      <cc:Work
         rdf:about="">
        <cc:license
           rdf:resource="http://creativecommons.org/licenses/by-nc-sa/4.0/" />
        <dc:contributor>
          <cc:Agent>
            <dc:title>dreifacherspass</dc:title>
          </cc:Agent>
        </dc:contributor>
      </cc:Work>
      <cc:License
         rdf:about="http://creativecommons.org/licenses/by-nc-sa/4.0/">
        <cc:permits
           rdf:resource="http://creativecommons.org/ns#Reproduction" />
        <cc:permits
           rdf:resource="http://creativecommons.org/ns#Distribution" />
        <cc:requires
           rdf:resource="http://creativecommons.org/ns#Notice" />
        <cc:requires
           rdf:resource="http://creativecommons.org/ns#Attribution" />
        <cc:prohibits
           rdf:resource="http://creativecommons.org/ns#CommercialUse" />
        <cc:permits
           rdf:resource="http://creativecommons.org/ns#DerivativeWorks" />
        <cc:requires
           rdf:resource="http://creativecommons.org/ns#ShareAlike" />
      </cc:License>
    </rdf:RDF>
  </metadata>
</svg>
