<?xml version="1.0" encoding="UTF-8" standalone="no"?>
<svg
   height="16"
   width="16"
   version="1.1"
   id="svg12"
   xmlns:xlink="http://www.w3.org/1999/xlink"
   xmlns="http://www.w3.org/2000/svg"
   xmlns:svg="http://www.w3.org/2000/svg"
   xmlns:rdf="http://www.w3.org/1999/02/22-rdf-syntax-ns#"
   xmlns:cc="http://creativecommons.org/ns#"
   xmlns:dc="http://purl.org/dc/elements/1.1/">
   <defs>
      <style id="current-color-scheme" type="text/css">
         .ColorScheme-Text { color: #0abdc6; } .ColorScheme-Highlight { color:#5294e2; }
      </style>
      <linearGradient id="arrongin" x1="0%" x2="0%" y1="0%" y2="100%">
         <stop offset="0%" style="stop-color:#dd9b44; stop-opacity:1"/>
         <stop offset="100%" style="stop-color:#ad6c16; stop-opacity:1"/>
      </linearGradient>
      <linearGradient id="aurora" x1="0%" x2="0%" y1="0%" y2="100%">
         <stop offset="0%" style="stop-color:#09D4DF; stop-opacity:1"/>
         <stop offset="100%" style="stop-color:#9269F4; stop-opacity:1"/>
      </linearGradient>
      <linearGradient id="cyberneon" x1="0%" x2="0%" y1="0%" y2="100%">
         <stop offset="0" style="stop-color:#0abdc6; stop-opacity:1"/>
         <stop offset="1" style="stop-color:#ea00d9; stop-opacity:1"/>
      </linearGradient>
      <linearGradient id="fitdance" x1="0%" x2="0%" y1="0%" y2="100%">
         <stop offset="0%" style="stop-color:#1AD6AB; stop-opacity:1"/>
         <stop offset="100%" style="stop-color:#329DB6; stop-opacity:1"/>
      </linearGradient>
      <linearGradient id="oomox" x1="0%" x2="0%" y1="0%" y2="100%">
         <stop offset="0%" style="stop-color:#0abdc6; stop-opacity:1"/>
         <stop offset="100%" style="stop-color:#b800ff; stop-opacity:1"/>
      </linearGradient>
      <linearGradient id="rainblue" x1="0%" x2="0%" y1="0%" y2="100%">
         <stop offset="0%" style="stop-color:#00F260; stop-opacity:1"/>
         <stop offset="100%" style="stop-color:#0575E6; stop-opacity:1"/>
      </linearGradient>
      <linearGradient id="sunrise" x1="0%" x2="0%" y1="0%" y2="100%">
         <stop offset="0%" style="stop-color: #FF8501; stop-opacity:1"/>
         <stop offset="100%" style="stop-color: #FFCB01; stop-opacity:1"/>
      </linearGradient>
      <linearGradient id="telinkrin" x1="0%" x2="0%" y1="0%" y2="100%">
         <stop offset="0%" style="stop-color: #b2ced6; stop-opacity:1"/>
         <stop offset="100%" style="stop-color: #6da5b7; stop-opacity:1"/>
      </linearGradient>
      <linearGradient id="60spsycho" x1="0%" x2="0%" y1="0%" y2="100%">
         <stop offset="0%" style="stop-color: #df5940; stop-opacity:1"/>
         <stop offset="25%" style="stop-color: #d8d15f; stop-opacity:1"/>
         <stop offset="50%" style="stop-color: #e9882a; stop-opacity:1"/>
         <stop offset="100%" style="stop-color: #279362; stop-opacity:1"/>
      </linearGradient>
      <linearGradient id="90ssummer" x1="0%" x2="0%" y1="0%" y2="100%">
         <stop offset="0%" style="stop-color: #f618c7; stop-opacity:1"/>
         <stop offset="20%" style="stop-color: #94ffab; stop-opacity:1"/>
         <stop offset="50%" style="stop-color: #fbfd54; stop-opacity:1"/>
         <stop offset="100%" style="stop-color: #0f83ae; stop-opacity:1"/>
      </linearGradient>
   </defs>
  <path
     id="path10-6"
     class="ColorScheme-Text"
     style="fill:url(#oomox);stroke:none;stroke-width:0.13474"
     d="M 8.0061131,0 C 7.7034349,3.517993e-5 7.4131582,0.11648149 7.199095,0.32374034 L 0.34024425,6.9674102 c -0.44550804,0.4315634 -0.44550804,1.1311961 0,1.5627595 L 7.1993625,15.17358 c 0.4455439,0.431817 1.1682247,0.431817 1.6137686,0 L 15.671982,8.5301697 c 0.434296,-0.4207027 0.424087,-1.1519467 0,-1.5627595 L 8.8131311,0.32374034 C 8.5990679,0.11648151 8.3087913,3.5205607e-5 8.0061131,0 Z m 0,1.1978394 c 0.2559474,8.5e-6 0.5014117,0.098479 0.6824089,0.2737548 l 5.798604,5.6167655 c 0.376599,0.3648427 0.376599,0.9562768 0,1.3211195 L 8.688522,14.025726 c -0.376697,0.365225 -0.9878533,0.365225 -1.3645503,0 L 1.525368,8.4094792 c -0.3765986,-0.3648427 -0.3765986,-0.9562768 0,-1.3211195 L 7.3237042,1.4715942 C 7.5047014,1.2963182 7.7501657,1.1978479 8.0061131,1.1978394 Z" />
  <path
     id="path10-6-6"
     class="ColorScheme-Text"
     style="fill:url(#oomox);stroke:none;stroke-width:0.13474;opacity:0.5"
     d="m 8.006113,0.50255725 c -0.302678,3.52e-5 -0.592955,0.1164815 -0.807018,0.3237403 L 0.340244,7.4699673 c -0.445508,0.431564 -0.445508,1.131196 0,1.56276 l 6.859118,6.6434097 c 0.445544,0.431817 1.168225,0.431817 1.613769,0 l 6.858851,-6.6434097 c 0.434296,-0.420703 0.424087,-1.151947 0,-1.56276 L 8.813131,0.82629755 C 8.599068,0.61903875 8.308791,0.50259245 8.006113,0.50255725 Z m 0,1.19783945 c 0.255947,8.5e-6 0.501412,0.098479 0.682409,0.2737548 l 5.798604,5.6167658 c 0.376599,0.364842 0.376599,0.956276 0,1.321119 L 8.688522,14.528283 c -0.376697,0.365225 -0.987853,0.365225 -1.36455,0 L 1.5253678,8.9120363 c -0.3765986,-0.364843 -0.3765986,-0.956277 0,-1.321119 L 7.323704,1.9741515 C 7.504701,1.7988755 7.750166,1.7004052 8.006113,1.7003967 Z" />
  <path
     d="M 6.1435434,3.5090304 A 1.3355879,1.3355879 0 0 0 4.817503,4.8350709 v 5.8345781 c 0,0.725079 0.6009615,1.32604 1.3260404,1.32604 h 3.7129132 c 0.7256084,0 1.3260404,-0.600961 1.3260404,-1.32604 V 4.8350709 c 0,-0.7250789 -0.600432,-1.3260405 -1.3260404,-1.3260405 z m 0,1.0608324 h 3.7129132 c 0.1554114,0 0.2652084,0.1097961 0.2652084,0.2652081 V 10.139233 A 0.25459977,0.25459977 0 0 1 9.8564567,10.404441 H 6.1435434 A 0.25459977,0.25459977 0 0 1 5.8783353,10.139233 V 4.8350709 c 0,-0.155412 0.1097961,-0.2652081 0.2652081,-0.2652081 z m 0,0"
     style="fill:url(#oomox);stroke-width:0.530416"
     id="path11"
     class="ColorScheme-Text"/>
  <path
     d="m 5.6131272,5.100279 c -0.1469253,0 -0.2652081,0.1182828 -0.2652081,0.2652081 v 3.1824971 c 0,0.1469252 0.1182829,0.265208 0.2652081,0.265208 h 0.5304162 c 0.1474557,0 0.2652081,-0.1182828 0.2652081,-0.265208 V 5.3654871 c 0,-0.1469253 -0.1177524,-0.2652081 -0.2652081,-0.2652081 z m 1.5912485,0 c -0.1469252,0 -0.265208,0.1182828 -0.265208,0.2652081 v 3.1824971 c 0,0.1469252 0.1182828,0.265208 0.265208,0.265208 h 1.5912486 c 0.1474557,0 0.2652082,-0.1182828 0.2652082,-0.265208 V 5.3654871 C 9.0608325,5.2185618 8.94308,5.100279 8.7956243,5.100279 Z m 2.652081,0 c -0.1469252,0 -0.265208,0.1182828 -0.265208,0.2652081 v 3.1824971 c 0,0.1469252 0.1182828,0.265208 0.265208,0.265208 h 0.5304163 c 0.147456,0 0.265208,-0.1182828 0.265208,-0.265208 V 5.3654871 c 0,-0.1469253 -0.117752,-0.2652081 -0.265208,-0.2652081 z m -3.182497,4.2433294 a 0.2652081,0.2652081 0 1 0 0,0.5304162 h 2.6520809 c 0.1474557,0 0.2652081,-0.1182828 0.2652081,-0.2652081 0,-0.1469253 -0.1177524,-0.2652081 -0.2652081,-0.2652081 z m 0,0"
     style="fill:url(#oomox);stroke-width:0.53;opacity:0.349;stroke-dasharray:none"
     id="path12"
     class="ColorScheme-Text"/>
  <metadata
     id="metadata28">
    <rdf:RDF>
      <cc:Work
         rdf:about="">
        <dc:creator>
          <cc:Agent>
            <dc:title>dreifacherspass</dc:title>
          </cc:Agent>
        </dc:creator>
        <cc:license
           rdf:resource="http://creativecommons.org/licenses/by-sa/4.0/" />
      </cc:Work>
      <cc:License
         rdf:about="http://creativecommons.org/licenses/by-sa/4.0/">
        <cc:permits
           rdf:resource="http://creativecommons.org/ns#Reproduction" />
        <cc:permits
           rdf:resource="http://creativecommons.org/ns#Distribution" />
        <cc:requires
           rdf:resource="http://creativecommons.org/ns#Notice" />
        <cc:requires
           rdf:resource="http://creativecommons.org/ns#Attribution" />
        <cc:permits
           rdf:resource="http://creativecommons.org/ns#DerivativeWorks" />
        <cc:requires
           rdf:resource="http://creativecommons.org/ns#ShareAlike" />
      </cc:License>
    </rdf:RDF>
  </metadata>
</svg>
