<?xml version="1.0" encoding="UTF-8" standalone="no"?>
<svg
   id="svg8"
   height="16"
   stroke-miterlimit="10"
   style="clip-rule:evenodd;fill-rule:nonzero;stroke-linecap:round;stroke-linejoin:round"
   width="16"
   version="1.1"
   viewBox="50 146.397 16 16"
   xml:space="preserve"
   xmlns:xlink="http://www.w3.org/1999/xlink"
   xmlns="http://www.w3.org/2000/svg"
   xmlns:svg="http://www.w3.org/2000/svg"
   xmlns:rdf="http://www.w3.org/1999/02/22-rdf-syntax-ns#"
   xmlns:cc="http://creativecommons.org/ns#"
  xmlns:dc="http://purl.org/dc/elements/1.1/">
  <defs>
    <style id="current-color-scheme" type="text/css">
      .ColorScheme-Text { color: #0abdc6; } .ColorScheme-Highlight { color:#5294e2; }
    </style>
    <linearGradient id="arrongin" x1="0%" x2="0%" y1="0%" y2="100%">
      <stop offset="0%" style="stop-color:#dd9b44; stop-opacity:1"/>
      <stop offset="100%" style="stop-color:#ad6c16; stop-opacity:1"/>
    </linearGradient>
    <linearGradient id="aurora" x1="0%" x2="0%" y1="0%" y2="100%">
      <stop offset="0%" style="stop-color:#09D4DF; stop-opacity:1"/>
      <stop offset="100%" style="stop-color:#9269F4; stop-opacity:1"/>
    </linearGradient>
    <linearGradient id="cyberneon" x1="0%" x2="0%" y1="0%" y2="100%">
      <stop offset="0" style="stop-color:#0abdc6; stop-opacity:1"/>
      <stop offset="1" style="stop-color:#ea00d9; stop-opacity:1"/>
    </linearGradient>
    <linearGradient id="fitdance" x1="0%" x2="0%" y1="0%" y2="100%">
      <stop offset="0%" style="stop-color:#1AD6AB; stop-opacity:1"/>
      <stop offset="100%" style="stop-color:#329DB6; stop-opacity:1"/>
    </linearGradient>
    <linearGradient id="oomox" x1="0%" x2="0%" y1="0%" y2="100%">
      <stop offset="0%" style="stop-color:#0abdc6; stop-opacity:1"/>
      <stop offset="100%" style="stop-color:#b800ff; stop-opacity:1"/>
    </linearGradient>
    <linearGradient id="rainblue" x1="0%" x2="0%" y1="0%" y2="100%">
      <stop offset="0%" style="stop-color:#00F260; stop-opacity:1"/>
      <stop offset="100%" style="stop-color:#0575E6; stop-opacity:1"/>
    </linearGradient>
    <linearGradient id="sunrise" x1="0%" x2="0%" y1="0%" y2="100%">
      <stop offset="0%" style="stop-color: #FF8501; stop-opacity:1"/>
      <stop offset="100%" style="stop-color: #FFCB01; stop-opacity:1"/>
    </linearGradient>
    <linearGradient id="telinkrin" x1="0%" x2="0%" y1="0%" y2="100%">
      <stop offset="0%" style="stop-color: #b2ced6; stop-opacity:1"/>
      <stop offset="100%" style="stop-color: #6da5b7; stop-opacity:1"/>
    </linearGradient>
    <linearGradient id="60spsycho" x1="0%" x2="0%" y1="0%" y2="100%">
      <stop offset="0%" style="stop-color: #df5940; stop-opacity:1"/>
      <stop offset="25%" style="stop-color: #d8d15f; stop-opacity:1"/>
      <stop offset="50%" style="stop-color: #e9882a; stop-opacity:1"/>
      <stop offset="100%" style="stop-color: #279362; stop-opacity:1"/>
    </linearGradient>
    <linearGradient id="90ssummer" x1="0%" x2="0%" y1="0%" y2="100%">
      <stop offset="0%" style="stop-color: #f618c7; stop-opacity:1"/>
      <stop offset="20%" style="stop-color: #94ffab; stop-opacity:1"/>
      <stop offset="50%" style="stop-color: #fbfd54; stop-opacity:1"/>
      <stop offset="100%" style="stop-color: #0f83ae; stop-opacity:1"/>
    </linearGradient>
    </defs>
    <path
     id="path2"
     class="ColorScheme-Text"
     fill-rule="nonzero"
     stroke="none"
     d="m 57.737144,156.0268 c 0,0 -0.123584,1.87431 -1.112933,3.10187 -0.989349,1.22757 0.395133,1.35779 0.181541,1.24511 -0.323359,-0.17061 0.08334,-0.36201 0.446406,-0.12703 0.102182,0.0661 0.183601,0.15263 0.258683,0.20726 0.248693,0.18086 0.387498,0.25238 0.558528,0.25406 0.17103,0.002 0.312917,-0.0888 0.561609,-0.2697 0.07508,-0.0546 0.151273,-0.14997 0.258684,-0.20725 0.211774,-0.11292 0.731496,-0.11595 0.415151,0.12453 -0.190874,0.14511 0.421107,-0.079 0.431306,-0.38983 0.0095,-0.28989 -0.953557,-0.0662 -1.671824,0.45345 -0.139757,-1.63773 -0.01539,-4.38005 -0.02899,-4.38459 -0.01172,-0.004 -0.298164,-0.008 -0.298164,-0.008 z"
     opacity="1"
     style="clip-rule:evenodd;opacity:1;fill:url(#oomox);fill-opacity:1;fill-rule:nonzero;stroke-width:0.017316;stroke-linecap:round;stroke-linejoin:round" />
    <path
     id="path3"
     class="ColorScheme-Text"
     fill-rule="nonzero"
     stroke="none"
     d="m 62.430088,155.8963 c 0,0 0.06095,0.55503 0.06095,0.9613 0,0.40625 -0.111723,0.74144 -0.335169,1.00551 -0.223463,0.26407 -0.457644,0.42429 -0.700813,0.48751 -0.578786,0.1505 -1.615581,0.0488 -1.799287,-0.0305 -0.667774,-0.288 -1.095357,-2.28114 -1.034422,-2.32178 0.06094,-0.0406 3.808738,-0.10207 3.808738,-0.10207 z"
     opacity="1"
     style="clip-rule:evenodd;display:inline;opacity:1;fill:url(#oomox);fill-opacity:1;fill-rule:nonzero;stroke-width:0.017316;stroke-linecap:round;stroke-linejoin:round" />
    <path
     id="path5"
     class="ColorScheme-Text"
     fill-rule="nonzero"
     stroke="none"
     d="m 53.569894,155.8963 c 0,0 -0.06094,0.55503 -0.06094,0.9613 0,0.40625 0.111723,0.74144 0.335169,1.00551 0.223445,0.26407 0.457644,0.42429 0.700813,0.48751 0.578786,0.1505 1.615581,0.0488 1.799287,-0.0305 0.667756,-0.288 1.095357,-2.28114 1.034422,-2.32178 -0.06094,-0.0406 -3.808756,-0.10207 -3.808756,-0.10207 z"
     opacity="1"
     style="clip-rule:evenodd;opacity:1;fill:url(#oomox);fill-opacity:1;fill-rule:nonzero;stroke-width:0.017316;stroke-linecap:round;stroke-linejoin:round" />
    <path
     id="path7"
     class="ColorScheme-Text"
     fill-rule="nonzero"
     stroke="none"
     d="m 60.751567,148.08626 c -0.202475,-0.0201 -2.569242,0.80773 -2.882783,0.99182 -0.208675,0.12253 -1.730335,1.14153 -1.466733,1.79707 0.281592,0.70027 3.354141,1.00883 3.311405,2.60932 -0.01366,0.51133 -0.929349,1.54492 -1.101452,1.76579 2.029906,0.008 4.086856,0.0432 6.087886,-0.35634 0.566943,-0.12047 0.687559,-0.16852 1.063011,-0.39153 0.723134,-0.51171 -0.377921,-0.91849 -1.032639,-1.1153 -0.367653,-0.1105 -0.708414,-0.20337 -1.0045,-0.28157 -0.398961,-0.10536 -0.654925,-0.13144 -0.654925,-0.13144 0,0 0.220276,0.57449 0.232778,0.59203 0.06305,0.0885 0.198234,0.13534 0.569973,0.26939 0.222736,0.0803 0.340364,0.22424 0.127758,0.24431 -0.425212,0.0402 -0.668172,0.0301 -0.728917,-0.0301 -0.06074,-0.0603 -0.374597,-0.97384 -0.941522,-2.74078 -0.566943,-1.76694 -0.92128,-2.74077 -1.063011,-2.92147 -0.141732,-0.18072 -0.313835,-0.28112 -0.516329,-0.30119 z"
     opacity="1"
     style="clip-rule:evenodd;opacity:1;fill:url(#oomox);fill-rule:nonzero;stroke-width:0.0173099;stroke-linecap:round;stroke-linejoin:round" />
    <path
     id="path8"
     class="ColorScheme-Text"
     fill-rule="nonzero"
     stroke="none"
     d="m 55.315039,148.09343 c -0.08099,0.0101 -0.151861,0.0301 -0.212606,0.0603 -0.121471,0.0603 -0.222718,0.15067 -0.303705,0.2712 -0.08099,0.12055 -0.415081,1.10492 -1.002267,2.95313 -0.587185,1.84823 -0.941522,2.80248 -1.063011,2.86274 -0.121489,0.0603 -0.289939,0.03 -0.516311,0.0301 -0.109956,4e-5 -0.382008,-0.0946 -0.131445,-0.20763 0.250562,-0.113 0.48296,-0.17924 0.617384,-0.28912 0.06294,-0.0515 0.347861,-0.73142 0.347861,-0.73142 0,0 -3.050939,0.4621 -3.050939,1.22817 0,0.15564 0.157098,0.47136 1.761556,0.73782 1.805711,0.29989 5.621099,0.2414 5.621099,0.2414 0,0 1.002301,-0.68438 1.354284,-1.39727 0.607808,-1.23101 -1.852863,-1.88569 -2.43288,-2.33729 -1.247582,-0.97139 0.559947,-2.09624 0.559947,-2.09624 0,0 0.489108,-0.37354 0.668744,-0.43502 0.155671,-0.0533 -1.741885,-0.87079 -1.944361,-0.89088 -0.101246,-0.01 -0.192346,-0.01 -0.27335,0 z"
     opacity="1"
     style="clip-rule:evenodd;display:inline;opacity:1;mix-blend-mode:normal;fill:url(#oomox);fill-rule:nonzero;stroke-width:0.0173144;stroke-linecap:round;stroke-linejoin:round" />
    <metadata
     id="metadata1"><rdf:RDF><cc:Work
         rdf:about=""><dc:creator><cc:Agent><dc:title>dreifacherspass</dc:title></cc:Agent></dc:creator><cc:license
           rdf:resource="http://creativecommons.org/licenses/by-sa/4.0/" /></cc:Work><cc:License
         rdf:about="http://creativecommons.org/licenses/by-sa/4.0/"><cc:permits
           rdf:resource="http://creativecommons.org/ns#Reproduction" /><cc:permits
           rdf:resource="http://creativecommons.org/ns#Distribution" /><cc:requires
           rdf:resource="http://creativecommons.org/ns#Notice" /><cc:requires
           rdf:resource="http://creativecommons.org/ns#Attribution" /><cc:permits
           rdf:resource="http://creativecommons.org/ns#DerivativeWorks" /><cc:requires
           rdf:resource="http://creativecommons.org/ns#ShareAlike" /></cc:License></rdf:RDF>
      </metadata>
      </svg>
