<?xml version="1.0" encoding="UTF-8" standalone="no"?>

<svg
   width="16"
   height="16"
   viewBox="0 0 1.28 1.28"
   aria-hidden="true"
   preserveAspectRatio="xMidYMid"
   version="1.1"
   id="svg3"
   xml:space="preserve"
   xmlns:xlink="http://www.w3.org/1999/xlink"
   xmlns="http://www.w3.org/2000/svg"
   xmlns:svg="http://www.w3.org/2000/svg"
   xmlns:rdf="http://www.w3.org/1999/02/22-rdf-syntax-ns#"
   xmlns:cc="http://creativecommons.org/ns#"
   xmlns:dc="http://purl.org/dc/elements/1.1/">
  <defs>
    <style id="current-color-scheme" type="text/css">
      .ColorScheme-Text { color: #0abdc6; } .ColorScheme-Highlight { color:#5294e2; }
    </style>
    <linearGradient id="arrongin" x1="0%" x2="0%" y1="0%" y2="100%">
      <stop offset="0%" style="stop-color:#dd9b44; stop-opacity:1"/>
      <stop offset="100%" style="stop-color:#ad6c16; stop-opacity:1"/>
    </linearGradient>
    <linearGradient id="aurora" x1="0%" x2="0%" y1="0%" y2="100%">
      <stop offset="0%" style="stop-color:#09D4DF; stop-opacity:1"/>
      <stop offset="100%" style="stop-color:#9269F4; stop-opacity:1"/>
    </linearGradient>
    <linearGradient id="cyberneon" x1="0%" x2="0%" y1="0%" y2="100%">
      <stop offset="0" style="stop-color:#0abdc6; stop-opacity:1"/>
      <stop offset="1" style="stop-color:#ea00d9; stop-opacity:1"/>
    </linearGradient>
    <linearGradient id="fitdance" x1="0%" x2="0%" y1="0%" y2="100%">
      <stop offset="0%" style="stop-color:#1AD6AB; stop-opacity:1"/>
      <stop offset="100%" style="stop-color:#329DB6; stop-opacity:1"/>
    </linearGradient>
    <linearGradient id="oomox" x1="0%" x2="0%" y1="0%" y2="100%">
      <stop offset="0%" style="stop-color:#0abdc6; stop-opacity:1"/>
      <stop offset="100%" style="stop-color:#b800ff; stop-opacity:1"/>
    </linearGradient>
    <linearGradient id="rainblue" x1="0%" x2="0%" y1="0%" y2="100%">
      <stop offset="0%" style="stop-color:#00F260; stop-opacity:1"/>
      <stop offset="100%" style="stop-color:#0575E6; stop-opacity:1"/>
    </linearGradient>
    <linearGradient id="sunrise" x1="0%" x2="0%" y1="0%" y2="100%">
      <stop offset="0%" style="stop-color: #FF8501; stop-opacity:1"/>
      <stop offset="100%" style="stop-color: #FFCB01; stop-opacity:1"/>
    </linearGradient>
    <linearGradient id="telinkrin" x1="0%" x2="0%" y1="0%" y2="100%">
      <stop offset="0%" style="stop-color: #b2ced6; stop-opacity:1"/>
      <stop offset="100%" style="stop-color: #6da5b7; stop-opacity:1"/>
    </linearGradient>
    <linearGradient id="60spsycho" x1="0%" x2="0%" y1="0%" y2="100%">
      <stop offset="0%" style="stop-color: #df5940; stop-opacity:1"/>
      <stop offset="25%" style="stop-color: #d8d15f; stop-opacity:1"/>
      <stop offset="50%" style="stop-color: #e9882a; stop-opacity:1"/>
      <stop offset="100%" style="stop-color: #279362; stop-opacity:1"/>
    </linearGradient>
    <linearGradient id="90ssummer" x1="0%" x2="0%" y1="0%" y2="100%">
      <stop offset="0%" style="stop-color: #f618c7; stop-opacity:1"/>
      <stop offset="20%" style="stop-color: #94ffab; stop-opacity:1"/>
      <stop offset="50%" style="stop-color: #fbfd54; stop-opacity:1"/>
      <stop offset="100%" style="stop-color: #0f83ae; stop-opacity:1"/>
    </linearGradient>
    </defs>
    <path
     d="M 1.1424554,1.203207 1.0412668,1.1317357 1.2322414,1.0843521 a 0.0133972,0.01339787 75.226875 0 0 0.00762,-0.00523 L 1.2775654,1.025733 A 0.01322653,0.0132272 75.226875 0 0 1.2744054,1.007284 L 1.0801488,0.8701249 a 0.01322653,0.0132272 75.226875 0 0 -0.018448,0.003168 l -0.036927,0.0523186 a 0.01322653,0.0132272 75.226875 0 0 0.00321,0.018437 l 0.08982,0.0634159 -0.19528018,0.050215 a 0.01318386,0.01318453 75.226875 0 0 -0.007514,0.00516 l -0.0353207,0.050042 a 0.01322653,0.0132272 75.226875 0 0 0.003194,0.018463 L 1.0899836,1.2775599 a 0.01322653,0.0132272 75.226875 0 0 0.018469,-0.00317 l 0.037217,-0.052726 a 0.01331186,0.01331254 75.226875 0 0 -0.00321,-0.018457"
     id="path1"
     class="ColorScheme-Text"
     style="stroke-width:0.0213337;fill:url(#oomox)" />
    <path
     d="m 0.87890284,0.73581786 -0.1391579,-0.077417 0.23764366,-0.086829 a 0.01734382,0.0173447 59.096401 0 0 0.009,-0.00773 l 0.040844,-0.073453 a 0.01700249,0.01700335 59.096401 0 0 -0.00658,-0.023162 L 0.75354177,0.31856536 a 0.01704516,0.01704602 59.096401 0 0 -0.0231881,0.00662 l -0.0400159,0.071887 a 0.01702382,0.01702469 59.096401 0 0 0.006608,0.02317 l 0.12352558,0.068749 -0.24269792,0.090971 a 0.01693849,0.01693935 59.096401 0 0 -0.008923,0.00765 l -0.0382962,0.06882 a 0.01700249,0.01700335 59.096401 0 0 0.006614,0.023141 l 0.28483075,0.158531 a 0.01698116,0.01698202 59.096401 0 0 0.0231507,-0.0066 l 0.0403606,-0.072517 a 0.01704516,0.01704602 59.096401 0 0 -0.006608,-0.02317"
     id="path2"
     class="ColorScheme-Text"
     style="stroke-width:0.0213337;fill:url(#oomox)" />
    <path
     d="m 0.4315422,0.38214952 -0.20052601,0.00221 0.20565713,-0.24327327 a 0.021614,0.0216151 19.377386 0 0 0.005021,-0.0140709 L 0.44054919,0.02117141 A 0.02139642,0.0213975 19.377386 0 0 0.41890663,1.4359794e-6 L 0.03397159,0.00414364 A 0.02142059,0.02142168 19.377386 0 0 0.01273962,0.0258177 l 0.0011537,0.10361672 a 0.02134806,0.02134914 19.377386 0 0 0.02166477,0.0211783 L 0.2135706,0.14868266 0.00497938,0.39971498 A 0.02146894,0.02147004 19.377386 0 0 8.072205e-7,0.41364999 L 0.00105985,0.51279982 a 0.02144477,0.02144585 19.377386 0 0 0.02168834,0.021187 l 0.41042757,-0.004477 a 0.02144477,0.02144585 19.377386 0 0 0.0212085,-0.0216822 l -0.001156,-0.10448879 a 0.02146894,0.02147004 19.377386 0 0 -0.021689,-0.021187"
     id="path3"
     class="ColorScheme-Text"
     style="stroke-width:0.0241774;fill:url(#oomox)" />
    <metadata
     id="metadata3"><rdf:RDF><cc:Work
         rdf:about=""><dc:creator><cc:Agent><dc:title>dreifacherspass</dc:title></cc:Agent></dc:creator><cc:license
           rdf:resource="http://creativecommons.org/licenses/by-sa/4.0/" /></cc:Work><cc:License
         rdf:about="http://creativecommons.org/licenses/by-sa/4.0/"><cc:permits
           rdf:resource="http://creativecommons.org/ns#Reproduction" /><cc:permits
           rdf:resource="http://creativecommons.org/ns#Distribution" /><cc:requires
           rdf:resource="http://creativecommons.org/ns#Notice" /><cc:requires
           rdf:resource="http://creativecommons.org/ns#Attribution" /><cc:permits
           rdf:resource="http://creativecommons.org/ns#DerivativeWorks" /><cc:requires
           rdf:resource="http://creativecommons.org/ns#ShareAlike" /></cc:License></rdf:RDF></metadata></svg>
