<?xml version="1.0" encoding="UTF-8" standalone="no"?>
<!-- Created with Inkscape (http://www.inkscape.org/) -->

<svg
   width="16"
   height="16"
   viewBox="0 0 4.2333333 4.2333333"
   version="1.1"
   id="svg9084"
   xmlns:xlink="http://www.w3.org/1999/xlink"
   xmlns="http://www.w3.org/2000/svg"
   xmlns:svg="http://www.w3.org/2000/svg"
   xmlns:rdf="http://www.w3.org/1999/02/22-rdf-syntax-ns#"
   xmlns:cc="http://creativecommons.org/ns#"
   xmlns:dc="http://purl.org/dc/elements/1.1/">
  <defs>
   <style id="current-color-scheme" type="text/css">
   .ColorScheme-Text { color: #0abdc6; } .ColorScheme-Highlight { color:#5294e2; }
  </style>
  <linearGradient id="arrongin" x1="0%" x2="0%" y1="0%" y2="100%">
   <stop offset="0%" style="stop-color:#dd9b44; stop-opacity:1"/>
   <stop offset="100%" style="stop-color:#ad6c16; stop-opacity:1"/>
  </linearGradient>
  <linearGradient id="aurora" x1="0%" x2="0%" y1="0%" y2="100%">
   <stop offset="0%" style="stop-color:#09D4DF; stop-opacity:1"/>
   <stop offset="100%" style="stop-color:#9269F4; stop-opacity:1"/>
  </linearGradient>
  <linearGradient id="cyberneon" x1="0%" x2="0%" y1="0%" y2="100%">
    <stop offset="0" style="stop-color:#0abdc6; stop-opacity:1"/>
    <stop offset="1" style="stop-color:#ea00d9; stop-opacity:1"/>
  </linearGradient>
  <linearGradient id="fitdance" x1="0%" x2="0%" y1="0%" y2="100%">
   <stop offset="0%" style="stop-color:#1AD6AB; stop-opacity:1"/>
   <stop offset="100%" style="stop-color:#329DB6; stop-opacity:1"/>
  </linearGradient>
  <linearGradient id="oomox" x1="0%" x2="0%" y1="0%" y2="100%">
   <stop offset="0%" style="stop-color:#0abdc6; stop-opacity:1"/>
   <stop offset="100%" style="stop-color:#b800ff; stop-opacity:1"/>
  </linearGradient>
  <linearGradient id="rainblue" x1="0%" x2="0%" y1="0%" y2="100%">
   <stop offset="0%" style="stop-color:#00F260; stop-opacity:1"/>
   <stop offset="100%" style="stop-color:#0575E6; stop-opacity:1"/>
  </linearGradient>
  <linearGradient id="sunrise" x1="0%" x2="0%" y1="0%" y2="100%">
   <stop offset="0%" style="stop-color: #FF8501; stop-opacity:1"/>
   <stop offset="100%" style="stop-color: #FFCB01; stop-opacity:1"/>
  </linearGradient>
  <linearGradient id="telinkrin" x1="0%" x2="0%" y1="0%" y2="100%">
   <stop offset="0%" style="stop-color: #b2ced6; stop-opacity:1"/>
   <stop offset="100%" style="stop-color: #6da5b7; stop-opacity:1"/>
  </linearGradient>
  <linearGradient id="60spsycho" x1="0%" x2="0%" y1="0%" y2="100%">
   <stop offset="0%" style="stop-color: #df5940; stop-opacity:1"/>
   <stop offset="25%" style="stop-color: #d8d15f; stop-opacity:1"/>
   <stop offset="50%" style="stop-color: #e9882a; stop-opacity:1"/>
   <stop offset="100%" style="stop-color: #279362; stop-opacity:1"/>
  </linearGradient>
  <linearGradient id="90ssummer" x1="0%" x2="0%" y1="0%" y2="100%">
   <stop offset="0%" style="stop-color: #f618c7; stop-opacity:1"/>
   <stop offset="20%" style="stop-color: #94ffab; stop-opacity:1"/>
   <stop offset="50%" style="stop-color: #fbfd54; stop-opacity:1"/>
   <stop offset="100%" style="stop-color: #0f83ae; stop-opacity:1"/>
  </linearGradient>
 </defs>
  <path
     style="display:inline;visibility:visible;fill:url(#oomox);fill-opacity:1;fill-rule:nonzero;stroke:none;stroke-width:0.021584;marker:none;enable-background:new"
     d="M 1.1873261,2.6637986e-6 1.178121,3.4132242 C 0.99043462,3.3258354 0.79021408,3.3404059 0.62118412,3.3702956 0.26237246,3.4337362 -0.04893026,3.6667391 0.00640881,3.9505614 0.05684165,4.2092243 0.39769202,4.3192141 0.89102801,4.1575742 1.0555949,4.103661 1.2912549,3.9636484 1.3079998,3.8037659 l 0.017818,-2.98228786 c 0.8653886,0 0.6351383,0.89996156 1.3782014,0.89996156 C 2.1467204,1.7676899 2.3249984,0.00579487 1.1873247,-9.3648277e-8 Z"
     id="path4836"
     class="ColorScheme-Text" />
  <path
     d="M 4.1867443,3.1178353 H 3.5794179 C 3.5604099,2.5262249 3.1878894,2.1166341 2.9829,1.9942496 L 3.05679,2.1832879 C 3.134453,2.3700952 3.1994435,2.6849111 3.2498525,3.1177888 H 3.1560695 C 3.1068721,2.699088 3.0444437,2.396264 2.9703216,2.2179628 L 2.8778902,1.9815603 2.7858312,2.2170332 C 2.7113364,2.3962175 2.6489546,2.699088 2.5997572,3.1177888 H 2.5059749 C 2.5563836,2.6848646 2.6213742,2.3700486 2.6994099,2.1823582 L 2.7702243,2.0011287 C 2.5631388,2.1315545 2.203802,2.5370085 2.1851672,3.1177888 H 1.5777939 c -0.025716,0 -0.046588,0.020777 -0.046588,0.046481 v 0.1859241 c 0,0.025705 0.020872,0.04648 0.046588,0.04648 h 0.046588 v 0.3664102 c 0,0.2593178 0.2114648,0.4702488 0.4713352,0.4702488 h 1.5731041 c 0.2599176,5.1e-5 0.4713341,-0.2108838 0.4713341,-0.4702482 V 3.3966745 h 0.046589 c 0.025763,0 0.046589,-0.020776 0.046589,-0.04648 V 3.16427 c 0,-0.025657 -0.020831,-0.046435 -0.046589,-0.046435 z m -0.046589,0.185924 H 4.0935691 1.6709709 1.6243822 v -0.092962 h 0.6056494 0.3175003 0.6607632 0.3262119 9.191e-4 0.6047163 z"
     id="path9222"
     class="ColorScheme-Text"
     style="fill:url(#oomox);fill-opacity:1;stroke-width:0.0465348" />
  <metadata
     id="metadata9205">
    <rdf:RDF>
      <cc:Work
         rdf:about="">
        <dc:creator>
          <cc:Agent>
            <dc:title>dreifacherspass</dc:title>
          </cc:Agent>
        </dc:creator>
        <cc:license
           rdf:resource="http://creativecommons.org/licenses/by-sa/4.0/" />
      </cc:Work>
      <cc:License
         rdf:about="http://creativecommons.org/licenses/by-sa/4.0/">
        <cc:permits
           rdf:resource="http://creativecommons.org/ns#Reproduction" />
        <cc:permits
           rdf:resource="http://creativecommons.org/ns#Distribution" />
        <cc:requires
           rdf:resource="http://creativecommons.org/ns#Notice" />
        <cc:requires
           rdf:resource="http://creativecommons.org/ns#Attribution" />
        <cc:permits
           rdf:resource="http://creativecommons.org/ns#DerivativeWorks" />
        <cc:requires
           rdf:resource="http://creativecommons.org/ns#ShareAlike" />
      </cc:License>
    </rdf:RDF>
  </metadata>
</svg>
