<?xml version="1.0" encoding="UTF-8" standalone="no"?>
<!-- Created with Inkscape (http://www.inkscape.org/) -->

<svg
   version="1.1"
   width="48"
   height="48"
   id="svg7032"
   xmlns:xlink="http://www.w3.org/1999/xlink"
   xmlns="http://www.w3.org/2000/svg"
   xmlns:svg="http://www.w3.org/2000/svg"
   xmlns:rdf="http://www.w3.org/1999/02/22-rdf-syntax-ns#"
   xmlns:cc="http://creativecommons.org/ns#"
   xmlns:dc="http://purl.org/dc/elements/1.1/">
  <defs
     id="defs3">
      <style
       id="current-color-scheme"
       type="text/css">
       .ColorScheme-Text { color: #0abdc6; } .ColorScheme-Highlight { color:#5294e2; }
  </style>
    <linearGradient
       id="arrongin"
       x1="0%"
       x2="0%"
       y1="0%"
       y2="100%">
      <stop
         offset="0%"
         style="stop-color:#dd9b44; stop-opacity:1"
         id="stop9192" />
      <stop
         offset="100%"
         style="stop-color:#ad6c16; stop-opacity:1"
         id="stop9194" />
    </linearGradient>
    <linearGradient
       id="aurora"
       x1="0%"
       x2="0%"
       y1="0%"
       y2="100%">
      <stop
         offset="0%"
         style="stop-color:#09D4DF; stop-opacity:1"
         id="stop9197" />
      <stop
         offset="100%"
         style="stop-color:#9269F4; stop-opacity:1"
         id="stop9199" />
    </linearGradient>
    <linearGradient
       id="cyberneon"
       x1="0%"
       x2="0%"
       y1="0%"
       y2="100%">
      <stop
         offset="0"
         style="stop-color:#0abdc6; stop-opacity:1"
         id="stop9202" />
      <stop
         offset="1"
         style="stop-color:#ea00d9; stop-opacity:1"
         id="stop9204" />
    </linearGradient>
    <linearGradient
       id="fitdance"
       x1="0%"
       x2="0%"
       y1="0%"
       y2="100%">
      <stop
         offset="0%"
         style="stop-color:#1AD6AB; stop-opacity:1"
         id="stop9207" />
      <stop
         offset="100%"
         style="stop-color:#329DB6; stop-opacity:1"
         id="stop9209" />
    </linearGradient>
    <linearGradient
       id="oomox"
       x1="0%"
       x2="0%"
       y1="0%"
       y2="100%">
      <stop
         offset="0%"
         style="stop-color:#0abdc6; stop-opacity:1"
         id="stop9212" />
      <stop
         offset="100%"
         style="stop-color:#b800ff; stop-opacity:1"
         id="stop9214" />
    </linearGradient>
    <linearGradient
       id="rainblue"
       x1="0%"
       x2="0%"
       y1="0%"
       y2="100%">
      <stop
         offset="0%"
         style="stop-color:#00F260; stop-opacity:1"
         id="stop9217" />
      <stop
         offset="100%"
         style="stop-color:#0575E6; stop-opacity:1"
         id="stop9219" />
    </linearGradient>
    <linearGradient
       id="sunrise"
       x1="0%"
       x2="0%"
       y1="0%"
       y2="100%">
      <stop
         offset="0%"
         style="stop-color: #FF8501; stop-opacity:1"
         id="stop9222" />
      <stop
         offset="100%"
         style="stop-color: #FFCB01; stop-opacity:1"
         id="stop9224" />
    </linearGradient>
    <linearGradient
       id="telinkrin"
       x1="0%"
       x2="0%"
       y1="0%"
       y2="100%">
      <stop
         offset="0%"
         style="stop-color: #b2ced6; stop-opacity:1"
         id="stop9227" />
      <stop
         offset="100%"
         style="stop-color: #6da5b7; stop-opacity:1"
         id="stop9229" />
    </linearGradient>
    <linearGradient
       id="60spsycho"
       x1="0%"
       x2="0%"
       y1="0%"
       y2="100%">
      <stop
         offset="0%"
         style="stop-color: #df5940; stop-opacity:1"
         id="stop9232" />
      <stop
         offset="25%"
         style="stop-color: #d8d15f; stop-opacity:1"
         id="stop9234" />
      <stop
         offset="50%"
         style="stop-color: #e9882a; stop-opacity:1"
         id="stop9236" />
      <stop
         offset="100%"
         style="stop-color: #279362; stop-opacity:1"
         id="stop9238" />
    </linearGradient>
    <linearGradient
       id="90ssummer"
       x1="0%"
       x2="0%"
       y1="0%"
       y2="100%">
      <stop
         offset="0%"
         style="stop-color: #f618c7; stop-opacity:1"
         id="stop9241" />
      <stop
         offset="20%"
         style="stop-color: #94ffab; stop-opacity:1"
         id="stop9243" />
      <stop
         offset="50%"
         style="stop-color: #fbfd54; stop-opacity:1"
         id="stop9245" />
      <stop
         offset="100%"
         style="stop-color: #0f83ae; stop-opacity:1"
         id="stop9247" />
    </linearGradient>
 </defs>
   <g
     id="layer1"
     class="ColorScheme-Text"
     style="fill:url(#oomox);fill-opacity:1.0;stroke:url(#oomox)"
     transform="matrix(1.0952586,0,0,1.0952586,-3.132213,-3.2009937)">
    <path
       d="m 41.266245,35.375 c -0.05263,0.32484 -0.204011,0.721528 -0.551965,1.147606 -0.254634,0.311804 -0.615449,0.641189 -1.121198,0.977093 -0.441592,0.293293 -0.990508,0.589318 -1.663996,0.877855 -0.626759,0.268518 -1.350677,0.525903 -2.174784,0.764532 -1.611088,0.466508 -3.508901,0.833706 -5.631621,1.080978 -2.282394,0.265872 -4.587012,0.367182 -6.87268,0.374068 -4.42e-4,10e-7 -0.131617,2.95e-4 -0.132055,2.96e-4 -2.444817,0.0036 -4.748276,-0.09618 -6.757221,-0.275946 C 14.248928,40.132513 12.300222,39.841743 10.634013,39.422248 9.8210568,39.217573 9.0625346,38.979112 8.379615,38.701751 7.7257212,38.436178 7.1354321,38.132573 6.636271,37.786856 6.1643211,37.459986 5.767861,37.091221 5.4822429,36.678383 5.2337756,36.319244 5.0642369,35.91927 5.0116339,35.48048 5.007474,35.44578 5.0040002,35.41062 5.0012567,35.375 4.9682659,34.946677 5.0410536,34.472159 5.2758623,33.965681 5.482515,33.519936 5.8111472,33.057516 6.2867373,32.59229 6.7236374,32.164911 7.278003,31.741678 7.9579647,31.333689 c 0.6418796,-0.385138 1.3896324,-0.753011 2.2422423,-1.094122 1.625524,-0.650338 3.603709,-1.191605 5.865279,-1.562024 2.209279,-0.361854 4.637953,-0.552067 7.184512,-0.532812 2.605339,0.0197 5.024115,0.257985 7.165681,0.644519 2.321198,0.418955 4.263818,1.001553 5.805615,1.64723 0.86069,0.360441 1.58762,0.736532 2.193875,1.112203 0.689895,0.427499 1.214518,0.848712 1.61016,1.243003 0.494344,0.492656 0.781374,0.936993 0.952169,1.300596 0.262769,0.559406 0.276745,1.001152 0.28384,1.125599 0.0046,0.08001 0.0049,0.146933 0.0049,0.157119 z m 0.96751,0 c 0,-0.01724 7.84e-4,-0.103606 -0.0068,-0.217503 -0.01276,-0.191781 -0.07027,-0.769633 -0.456167,-1.47242 -0.245044,-0.446269 -0.621223,-0.945875 -1.203766,-1.468129 -0.464617,-0.416533 -1.055424,-0.842808 -1.801217,-1.262497 -0.655484,-0.368868 -1.426763,-0.730328 -2.324151,-1.070753 -1.606389,-0.609387 -3.600745,-1.144353 -5.95527,-1.513815 -2.173682,-0.341085 -4.615688,-0.534302 -7.236387,-0.514607 -2.562077,0.01925 -5.000217,0.241778 -7.217558,0.626313 -2.269561,0.393591 -4.255648,0.94758 -5.895603,1.59902 -0.8602889,0.341734 -1.6189556,0.707631 -2.2757901,1.088837 -0.6954535,0.40362 -1.2729197,0.822103 -1.7401462,1.246897 -0.5081763,0.462025 -0.8838044,0.929412 -1.14506,1.395336 -0.2978532,0.531193 -0.4439757,1.054739 -0.4771023,1.56332 -0.00274,0.04212 -0.00471,0.08394 -0.00593,0.125457 -0.015541,0.526421 0.083535,1.042047 0.2766565,1.543802 0.2213672,0.575141 0.5661511,1.131407 1.0019065,1.660252 0.4599298,0.558184 1.0257749,1.091397 1.6680327,1.590605 0.6706799,0.521299 1.4328248,1.0119 2.2636324,1.462461 1.7068818,0.925671 3.7527528,1.709619 6.0341678,2.261809 2.187102,0.529362 4.665817,0.864046 7.368173,0.882777 0.04806,3.33e-4 0.09626,5.67e-4 0.14462,7e-4 2.479664,0.0068 5.06002,-0.250912 7.529391,-0.785059 2.310638,-0.499811 4.394182,-1.213534 6.129258,-2.080064 0.891502,-0.445234 1.673426,-0.921928 2.343248,-1.418428 0.720689,-0.534205 1.298883,-1.081815 1.74738,-1.627643 0.516361,-0.62842 0.843631,-1.233239 1.034737,-1.791633 0.259944,-0.759534 0.2515,-1.383004 0.199743,-1.825035 z"
       transform="matrix(1.053492,0,0,1.053492,-0.17777537,-0.87239388)"
       id="path1344-5"
       class="ColorScheme-Text"
       style="fill:url(#oomox);fill-opacity:1.0;stroke:none;display:inline;overflow:visible;visibility:visible;opacity:1;fill-rule:nonzero;stroke-width:2;marker:none" />
    <path
       d="m 32.410191,6.6528975 c 0,0 -12.457183,1.5455545 -12.457183,1.5455545 L 19.834089,31.08536 c -1.734,-0.587481 -4.023184,-0.681598 -6.662933,-0.138071 -4.5893415,0.944949 -7.8778646,3.475983 -7.3744428,5.629597 0.5034217,2.153613 4.6287108,3.150699 9.2180528,2.205747 4.336847,-0.892959 8.095159,-3.200299 8.00931,-5.267457 l 0.164609,-20.049265 c 0,0 9.191769,-1.48418 9.191769,-1.48418 l 0.02974,-5.3288335 z"
       id="path7042-3"
       class="ColorScheme-Text"
       style="fill:url(#oomox);fill-opacity:1;stroke:url(#oomox);display:inline;visibility:visible;fill-rule:nonzero;stroke-width:1.05349;stroke-linecap:round;stroke-linejoin:round;stroke-miterlimit:4;stroke-dashoffset:0;stroke-opacity:1;marker:none"
       transform="translate(-1.0246034,-2.2905409)" />
    <path
       id="path7638"
       class="ColorScheme-Text"
       style="fill:url(#oomox);fill-opacity:1;stroke:none;display:inline;overflow:visible;visibility:visible;stroke-width:0.9;stroke-linecap:butt;stroke-linejoin:miter;stroke-miterlimit:4;stroke-dasharray:none;stroke-dashoffset:0;stroke-opacity:1;marker:none"
       d="m 26.670167,28.0772 h 6.392269 v 6.431787 h 2.352147 l -5.351729,6.298357 -5.774033,-6.298357 h 2.381346 z m 3.674513,-0.330992 h 6.651726 v -6.626387 h 2.157556 L 33.802239,14.756598 28.0282,21.119821 h 2.316482 z"
       transform="translate(-0.50568441,-2.7445959)" />
  </g>
  <metadata
     id="metadata4">
    <rdf:RDF>
      <cc:Work
         rdf:about="">
        <dc:format>image/svg+xml</dc:format>
        <dc:type
           rdf:resource="http://purl.org/dc/dcmitype/StillImage" />
        <dc:creator>
          <cc:Agent>
            <dc:title>Jakub Steiner</dc:title>
          </cc:Agent>
        </dc:creator>
        <cc:license
           rdf:resource="http://creativecommons.org/publicdomain/zero/1.0/" />
        <dc:contributor>
          <cc:Agent>
            <dc:title>dreifacherspass</dc:title>
          </cc:Agent>
        </dc:contributor>
      </cc:Work>
      <cc:License
         rdf:about="http://creativecommons.org/publicdomain/zero/1.0/">
        <cc:permits
           rdf:resource="http://creativecommons.org/ns#Reproduction" />
        <cc:permits
           rdf:resource="http://creativecommons.org/ns#Distribution" />
        <cc:permits
           rdf:resource="http://creativecommons.org/ns#DerivativeWorks" />
      </cc:License>
    </rdf:RDF>
  </metadata>
</svg>
