<?xml version="1.0" encoding="UTF-8" standalone="no"?>

<svg
   width="16"
   height="16"
   viewBox="0 0 10.24 10.24"
   version="1.1"
   id="svg1"
   xmlns:xlink="http://www.w3.org/1999/xlink"
   xmlns="http://www.w3.org/2000/svg"
   xmlns:svg="http://www.w3.org/2000/svg"
   xmlns:rdf="http://www.w3.org/1999/02/22-rdf-syntax-ns#"
   xmlns:cc="http://creativecommons.org/ns#"
   xmlns:dc="http://purl.org/dc/elements/1.1/">
  <defs>
   <style id="current-color-scheme" type="text/css">
   .ColorScheme-Text { color: #0abdc6; } .ColorScheme-Highlight { color:#5294e2; }
  </style>
  <linearGradient id="arrongin" x1="0%" x2="0%" y1="0%" y2="100%">
   <stop offset="0%" style="stop-color:#dd9b44; stop-opacity:1"/>
   <stop offset="100%" style="stop-color:#ad6c16; stop-opacity:1"/>
  </linearGradient>
  <linearGradient id="aurora" x1="0%" x2="0%" y1="0%" y2="100%">
   <stop offset="0%" style="stop-color:#09D4DF; stop-opacity:1"/>
   <stop offset="100%" style="stop-color:#9269F4; stop-opacity:1"/>
  </linearGradient>
  <linearGradient id="cyberneon" x1="0%" x2="0%" y1="0%" y2="100%">
    <stop offset="0" style="stop-color:#0abdc6; stop-opacity:1"/>
    <stop offset="1" style="stop-color:#ea00d9; stop-opacity:1"/>
  </linearGradient>
  <linearGradient id="fitdance" x1="0%" x2="0%" y1="0%" y2="100%">
   <stop offset="0%" style="stop-color:#1AD6AB; stop-opacity:1"/>
   <stop offset="100%" style="stop-color:#329DB6; stop-opacity:1"/>
  </linearGradient>
  <linearGradient id="oomox" x1="0%" x2="0%" y1="0%" y2="100%">
   <stop offset="0%" style="stop-color:#0abdc6; stop-opacity:1"/>
   <stop offset="100%" style="stop-color:#b800ff; stop-opacity:1"/>
  </linearGradient>
  <linearGradient id="rainblue" x1="0%" x2="0%" y1="0%" y2="100%">
   <stop offset="0%" style="stop-color:#00F260; stop-opacity:1"/>
   <stop offset="100%" style="stop-color:#0575E6; stop-opacity:1"/>
  </linearGradient>
  <linearGradient id="sunrise" x1="0%" x2="0%" y1="0%" y2="100%">
   <stop offset="0%" style="stop-color: #FF8501; stop-opacity:1"/>
   <stop offset="100%" style="stop-color: #FFCB01; stop-opacity:1"/>
  </linearGradient>
  <linearGradient id="telinkrin" x1="0%" x2="0%" y1="0%" y2="100%">
   <stop offset="0%" style="stop-color: #b2ced6; stop-opacity:1"/>
   <stop offset="100%" style="stop-color: #6da5b7; stop-opacity:1"/>
  </linearGradient>
  <linearGradient id="60spsycho" x1="0%" x2="0%" y1="0%" y2="100%">
   <stop offset="0%" style="stop-color: #df5940; stop-opacity:1"/>
   <stop offset="25%" style="stop-color: #d8d15f; stop-opacity:1"/>
   <stop offset="50%" style="stop-color: #e9882a; stop-opacity:1"/>
   <stop offset="100%" style="stop-color: #279362; stop-opacity:1"/>
  </linearGradient>
  <linearGradient id="90ssummer" x1="0%" x2="0%" y1="0%" y2="100%">
   <stop offset="0%" style="stop-color: #f618c7; stop-opacity:1"/>
   <stop offset="20%" style="stop-color: #94ffab; stop-opacity:1"/>
   <stop offset="50%" style="stop-color: #fbfd54; stop-opacity:1"/>
   <stop offset="100%" style="stop-color: #0f83ae; stop-opacity:1"/>
  </linearGradient>
 </defs>
  <path
     d="m 4.3842395,6.4000101 c -0.017168,1.797e-4 -0.034404,0.00331 -0.052499,0.0075 -0.3078582,0.071864 -0.6157247,0.1414003 -0.923751,0.2112501 -0.3080263,0.06985 -0.6169078,0.1393218 -0.92875,0.2087501 -0.6236844,0.1388564 -1.2579213,0.2782724 -1.91875004,0.4249999 -0.0283338,0.011102 -0.0560025,0.023888 -0.0824999,0.0375 -0.0264975,0.013612 -0.0529229,0.027819 -0.0774999,0.04375 -0.0245763,0.015934 -0.047427,0.033189 -0.0700001,0.05125 -0.0225731,0.018061 -0.044515,0.0375 -0.0650002,0.0575 -0.0204849,0.02 -0.039187,0.040753 -0.0575,0.0625 -0.018313,0.021747 -0.036442,0.044197 -0.0525,0.0675 -0.016058,0.023303 -0.0300309,0.047833 -0.04375,0.0725 -0.01371891,0.024667 -0.02620399,0.04916 -0.03749998,0.075 -0.01129593,0.025841 -0.02246001,0.053178 -0.03124999,0.08 -0.00879,0.026822 -0.01629986,0.053638 -0.02250001,0.08125 -0.0062001,0.027613 -0.0102241,0.055539 -0.01375014,0.083749 -0.00353002,0.028211 -0.00548014,0.056381 -0.006250015,0.085 -7.6910339e-4,0.028619 -8.2169274e-4,0.057415 0.001250095,0.08625 0.00206994,0.028835 0.00624988,0.058641 0.01124994,0.0875 0.0050001,0.02886 0.01074506,0.057557 0.01875001,0.08625 0.008,0.028693 0.01765298,0.056665 0.02875007,0.085 0.01109709,0.028334 0.02389001,0.056003 0.0375001,0.0825 0.01361007,0.026497 0.02781892,0.051674 0.04374996,0.07625 0.015931,0.024576 0.0331889,0.048679 0.0512501,0.07125 0.0180609,0.022571 0.0375,0.044517 0.0574999,0.065 0.0199999,0.020483 0.0407529,0.039188 0.0625001,0.0575 0.0217469,0.018311 0.0441971,0.035194 0.0675,0.05125 0.023303,0.016056 0.047833,0.031283 0.0725,0.045 0.0246671,0.013717 0.0491601,0.026205 0.0750001,0.0375 0.02584,0.011295 0.0519279,0.021212 0.0787501,0.03 0.0268221,0.00879 0.0548881,0.016302 0.0825001,0.0225 0.027612,0.0062 0.0555391,0.011475 0.08375,0.015 0.0282109,0.00353 0.056382,0.00548 0.0850001,0.00625 0.0286183,7.692e-4 0.0574159,8.227e-4 0.08625,-0.00125 0.0288332,-0.00207 0.0573919,-0.00625 0.08625,-0.01125 0.028859,-0.005 0.057558,-0.011996 0.086249,-0.020005 0.028692,-0.00801 0.057916,-0.016403 0.08625,-0.0275 C 1.7518102,8.5806888 2.3096296,8.2559004 2.8692396,7.9300102 3.4288495,7.60412 3.9900643,7.2761727 4.5454895,6.9537602 c 0.01518,-0.00846 0.029039,-0.018233 0.041251,-0.02875 0.0122,-0.010516 0.02313,-0.021518 0.0325,-0.03375 0.0094,-0.01223 0.01709,-0.025151 0.02375,-0.03875 0.0067,-0.013598 0.01215,-0.02788 0.01625,-0.0425 0.0041,-0.014619 0.0071,-0.029706 0.0088,-0.045 0.0017,-0.015294 0.0019,-0.030629 0.0013,-0.04625 -6.245e-4,-0.015622 -0.0022,-0.031898 -0.005,-0.047498 -0.0028,-0.015601 -0.0064,-0.031017 -0.011254,-0.046249 -0.0048,-0.015235 -0.010803,-0.029227 -0.0175,-0.04375 -0.0067,-0.014522 -0.014054,-0.029038 -0.0225,-0.0425 -0.0084,-0.013462 -0.01868,-0.026695 -0.02875,-0.03875 -0.010073,-0.012054 -0.02095,-0.023449 -0.032501,-0.03375 -0.01155,-0.010301 -0.02336,-0.0193 -0.03625,-0.0275 -0.01289,-0.0082 -0.0259,-0.015498 -0.04,-0.02125 -0.014099,-0.00575 -0.02858,-0.00954 -0.04375,-0.0125 -0.015174,-0.00296 -0.031391,-0.00518 -0.0475,-0.005 z M 0.89423947,7.7775102 c 0.0152928,1.573e-4 0.0302712,0.00144 0.045,0.00375 0.0147288,0.00231 0.0285281,0.00568 0.0425003,0.01 0.0139724,0.00432 0.0282291,0.010039 0.0412504,0.01625 0.013021,0.00621 0.025624,0.013283 0.0375,0.02125 0.011877,0.00797 0.021962,0.016656 0.0325,0.02625 0.010541,0.00959 0.020993,0.02016 0.03,0.03125 0.00901,0.011092 0.017718,0.022541 0.025,0.035 0.00728,0.012459 0.013384,0.026304 0.018752,0.04 0.00737,0.018824 0.011846,0.03826 0.015,0.0575 0.00315,0.019242 0.00458,0.038358 0.00375,0.0575 -8.343e-4,0.019141 -0.00292,0.037725 -0.0075,0.05625 -0.00458,0.018525 -0.011919,0.036355 -0.02,0.05375 -0.00808,0.017395 -0.017403,0.034251 -0.02875,0.05 -0.011346,0.015749 -0.024377,0.030163 -0.03875,0.04375 -0.014373,0.013583 -0.030341,0.02659 -0.0475,0.0375 -0.017158,0.010913 -0.035295,0.019779 -0.055,0.0275 -0.0197051,0.00772 -0.0399968,0.013854 -0.0600012,0.017496 -0.0200036,0.00364 -0.0402244,0.00521 -0.0600002,0.005 -0.0197772,-2.187e-4 -0.0384769,-0.00239 -0.0574999,-0.00625 -0.0190225,-0.00386 -0.0385059,-0.00897 -0.05625,-0.01625 -0.0177439,-0.00728 -0.034061,-0.01701 -0.0500001,-0.0275 -0.015939,-0.01049 -0.031391,-0.022766 -0.0450001,-0.03625 -0.0136087,-0.013484 -0.0254971,-0.027487 -0.0362502,-0.04375 -0.0107526,-0.016263 -0.0201289,-0.033675 -0.0275001,-0.0525 -0.00737,-0.018825 -0.0118479,-0.038259 -0.015,-0.0575 -0.00315,-0.019241 -0.00458,-0.038359 -0.00375,-0.0575 8.324e-4,-0.019141 0.00292,-0.038974 0.0075,-0.0575 0.00458,-0.018526 0.0119191,-0.036355 0.02,-0.05375 0.00808,-0.017395 0.0174041,-0.034251 0.02875,-0.05 0.0113459,-0.015749 0.0243779,-0.030162 0.0387501,-0.04375 0.0143707,-0.013593 0.030341,-0.026589 0.0475001,-0.0375 0.0171585,-0.010913 0.0352946,-0.019779 0.0549999,-0.0275 0.019095,-0.00747 0.0387199,-0.01257 0.05875,-0.01625 0.020031,-0.00368 0.0408844,-0.00647 0.0612512,-0.00625 z"
     style="stroke-width:0.0127625;fill:url(#oomox)"
     id="path8"
     class="ColorScheme-Text"/>
  <path
     id="path9"
     class="ColorScheme-Text"
     style="fill:url(#oomox);stroke-width:0.0127625"
     d="m 5.8730577,6.4180525 c -0.016109,-1.803e-4 -0.03233,0.00204 -0.047503,0.005 -0.015169,0.00296 -0.029648,0.00675 -0.043751,0.0125 -0.014093,0.00575 -0.027107,0.01305 -0.040005,0.021249 -0.012891,0.0082 -0.025956,0.017202 -0.037503,0.027504 -0.011545,0.010303 -0.022439,0.021696 -0.0325,0.033749 -0.010068,0.012062 -0.01905,0.025286 -0.027503,0.038746 -0.00845,0.013459 -0.015799,0.027975 -0.022495,0.042498 -0.00669,0.014527 -0.012693,0.028516 -0.0175,0.04375 -0.00481,0.015232 -0.00846,0.030648 -0.011252,0.046252 -0.00279,0.015604 -0.00437,0.031877 -0.005,0.0475 -6.675e-4,0.015644 -4.179e-4,0.030956 0.00125,0.046249 0.00167,0.015292 0.00465,0.030379 0.00875,0.044998 0.00406,0.014641 0.00963,0.028878 0.01623,0.042511 0.00669,0.013586 0.014384,0.026518 0.023756,0.038747 0.00937,0.012229 0.020329,0.023214 0.032499,0.03375 0.012193,0.010524 0.026067,0.020297 0.041251,0.028749 0.5554462,0.3224069 1.116662,0.650355 1.6762714,0.9762449 0.5596093,0.3258898 1.1174298,0.6506788 1.66625,0.9649999 0.028333,0.011097 0.056308,0.019495 0.085,0.027501 0.028692,0.00801 0.057391,0.015003 0.08625,0.02 0.028859,0.005 0.058664,0.00918 0.087498,0.011248 0.028834,0.00207 0.057635,0.00202 0.086252,0.00125 0.028617,-7.707e-4 0.056787,-0.00272 0.085003,-0.00625 0.028211,-0.00352 0.056143,-0.0088 0.083748,-0.015003 0.027598,-0.00623 0.054427,-0.013712 0.081249,-0.022502 0.026822,-0.00879 0.052911,-0.018702 0.07875,-0.030002 0.025823,-0.011327 0.051584,-0.023781 0.076223,-0.037545 0.024637,-0.013748 0.049196,-0.028945 0.072514,-0.044979 0.023294,-0.016082 0.045772,-0.032902 0.067499,-0.05125 0.021729,-0.018335 0.042516,-0.037001 0.062476,-0.057526 0.02002,-0.020449 0.03945,-0.04242 0.0575,-0.064997 0.01805,-0.022579 0.03408,-0.046666 0.05,-0.071245 0.01594,-0.024567 0.03139,-0.049749 0.045,-0.076244 0.01362,-0.026488 0.0264,-0.054164 0.0375,-0.082501 0.0111,-0.028337 0.0195,-0.056302 0.0275,-0.085001 0.008,-0.028692 0.015,-0.057387 0.02,-0.086246 0.005,-0.028858 0.0079,-0.058667 0.01,-0.087499 0.0021,-0.028839 0.0033,-0.057631 0.0025,-0.086251 -7.69e-4,-0.028619 -0.0027,-0.056789 -0.0062,-0.085 -0.0035,-0.028211 -0.0088,-0.056138 -0.015,-0.08375 -0.0062,-0.027615 -0.01371,-0.054428 -0.0225,-0.08125 -0.0088,-0.026823 -0.0187,-0.054159 -0.03,-0.08 -0.0113,-0.025838 -0.02378,-0.050331 -0.0375,-0.074999 -0.01372,-0.024666 -0.02894,-0.049197 -0.045,-0.0725 -0.01606,-0.023303 -0.03294,-0.045753 -0.05125,-0.0675 -0.01831,-0.021746 -0.03826,-0.042504 -0.058751,-0.062499 -0.020485,-0.02 -0.041178,-0.039438 -0.06375,-0.057499 -0.022573,-0.018062 -0.046675,-0.035319 -0.07125,-0.05125 -0.024574,-0.015933 -0.049752,-0.03014 -0.076249,-0.043751 -0.026496,-0.013612 -0.054165,-0.026403 -0.0825,-0.0375 C 9.0360292,7.1238254 8.4005411,6.9844092 7.7768573,6.8455527 7.4649654,6.7761248 7.1560832,6.7066524 6.8480573,6.6368028 6.5400313,6.5669527 6.2334142,6.4974169 5.9255574,6.4255526 c -0.018102,-0.00419 -0.035333,-0.00732 -0.052503,-0.0075 z m 3.4899996,1.3775002 c 0.020366,-2.234e-4 0.041219,0.00257 0.06125,0.00625 0.020031,0.00368 0.039654,0.00878 0.05875,0.01625 0.019709,0.00772 0.037842,0.016589 0.055,0.027501 0.017153,0.010916 0.03313,0.023909 0.047499,0.037501 0.01437,0.013589 0.027402,0.028002 0.038747,0.043754 0.011348,0.015747 0.02067,0.032605 0.02875,0.049999 0.00808,0.017398 0.014171,0.035226 0.01875,0.05375 0.00458,0.018524 0.00792,0.038359 0.00875,0.0575 8.315e-4,0.01914 -5.997e-4,0.038259 -0.00375,0.0575 -0.00315,0.01924 -0.00887,0.038675 -0.01625,0.0575 -0.00737,0.018825 -0.015496,0.036237 -0.02625,0.052499 -0.010751,0.016266 -0.02389,0.030268 -0.0375,0.043751 -0.013611,0.013481 -0.02781,0.02576 -0.043748,0.036253 -0.015938,0.010493 -0.033503,0.020223 -0.05125,0.0275 -0.017744,0.00728 -0.035978,0.012388 -0.054999,0.01625 -0.019023,0.00386 -0.038974,0.00604 -0.05875,0.00625 -0.019779,2.072e-4 -0.039996,-0.00136 -0.06,-0.005 -0.020004,-0.00364 -0.039044,-0.00978 -0.058749,-0.017499 -0.019709,-0.00772 -0.039092,-0.01659 -0.05625,-0.027501 -0.017161,-0.01091 -0.031876,-0.023914 -0.046252,-0.037498 -0.01437,-0.013589 -0.027402,-0.028001 -0.038747,-0.043754 -0.011342,-0.015754 -0.021917,-0.032608 -0.03,-0.05 -0.00808,-0.017398 -0.014171,-0.035224 -0.01875,-0.05375 -0.00458,-0.018524 -0.00792,-0.037109 -0.00875,-0.05625 -8.316e-4,-0.01914 5.996e-4,-0.038259 0.00375,-0.0575 0.00315,-0.01924 0.00888,-0.038676 0.01625,-0.0575 0.00536,-0.013692 0.01147,-0.027541 0.01875,-0.04 0.00728,-0.012458 0.01599,-0.023909 0.025001,-0.035 0.00901,-0.01109 0.01821,-0.021661 0.028748,-0.031251 0.010536,-0.00959 0.021872,-0.01828 0.033748,-0.026253 0.011874,-0.00797 0.024476,-0.015043 0.0375,-0.021251 0.013017,-0.00621 0.026029,-0.01193 0.040002,-0.016247 0.013969,-0.00432 0.02902,-0.00769 0.04375,-0.01 0.014729,-0.00231 0.029706,-0.00359 0.045,-0.00375 z" />
  <path
     style="stroke-width:0.0127625;fill:url(#oomox)"
     d="M 7.0255029,1.2415074 A 0.99583845,0.99583845 0 0 0 6.0296644,2.2373459 0.99583845,0.99583845 0 0 0 7.0255029,3.2331845 0.99583845,0.99583845 0 0 0 8.0213415,2.2373459 0.99583845,0.99583845 0 0 0 7.0255029,1.2415074 Z M 6.9757039,1.3908896 A 0.79665834,0.79665834 0 0 1 7.3686534,1.4951828 0.99583845,0.99583845 0 0 0 7.2744684,1.4904628 0.99583845,0.99583845 0 0 0 6.2786302,2.486276 0.99583845,0.99583845 0 0 0 6.2840202,2.580883 0.79665834,0.79665834 0 0 1 6.1790594,2.1875477 0.79665834,0.79665834 0 0 1 6.9757047,1.3908769 Z"
     id="path10"
     class="ColorScheme-Text"/>
  <metadata
     id="metadata1">
    <rdf:RDF>
      <cc:Work
         rdf:about="">
        <dc:creator>
          <cc:Agent>
            <dc:title>dreifacherspass</dc:title>
          </cc:Agent>
        </dc:creator>
        <cc:license
           rdf:resource="http://creativecommons.org/licenses/by-sa/4.0/" />
      </cc:Work>
      <cc:License
         rdf:about="http://creativecommons.org/licenses/by-sa/4.0/">
        <cc:permits
           rdf:resource="http://creativecommons.org/ns#Reproduction" />
        <cc:permits
           rdf:resource="http://creativecommons.org/ns#Distribution" />
        <cc:requires
           rdf:resource="http://creativecommons.org/ns#Notice" />
        <cc:requires
           rdf:resource="http://creativecommons.org/ns#Attribution" />
        <cc:permits
           rdf:resource="http://creativecommons.org/ns#DerivativeWorks" />
        <cc:requires
           rdf:resource="http://creativecommons.org/ns#ShareAlike" />
      </cc:License>
    </rdf:RDF>
  </metadata>
</svg>
