<?xml version="1.0" encoding="UTF-8" standalone="no"?>
<svg
   viewBox="0 0 48 48"
   version="1.1"
   id="svg30234"
   width="48"
   height="48"
   xmlns:xlink="http://www.w3.org/1999/xlink"
   xmlns="http://www.w3.org/2000/svg"
   xmlns:svg="http://www.w3.org/2000/svg">
  <defs
     id="defs30238">
      <style
       id="current-color-scheme"
       type="text/css">
   .ColorScheme-Text { color: #0abdc6; } .ColorScheme-Highlight { color:#5294e2; }
  </style>
 <linearGradient
       id="arrongin"
       x1="0%"
       x2="0%"
       y1="0%"
       y2="100%">
      <stop
         offset="0%"
         style="stop-color:#dd9b44; stop-opacity:1"
         id="stop9192" />
      <stop
         offset="100%"
         style="stop-color:#ad6c16; stop-opacity:1"
         id="stop9194" />
    </linearGradient>
    <linearGradient
       id="aurora"
       x1="0%"
       x2="0%"
       y1="0%"
       y2="100%">
      <stop
         offset="0%"
         style="stop-color:#09D4DF; stop-opacity:1"
         id="stop9197" />
      <stop
         offset="100%"
         style="stop-color:#9269F4; stop-opacity:1"
         id="stop9199" />
    </linearGradient>
    <linearGradient
       id="cyberneon"
       x1="0%"
       x2="0%"
       y1="0%"
       y2="100%">
      <stop
         offset="0"
         style="stop-color:#0abdc6; stop-opacity:1"
         id="stop9202" />
      <stop
         offset="1"
         style="stop-color:#ea00d9; stop-opacity:1"
         id="stop9204" />
    </linearGradient>
    <linearGradient
       id="fitdance"
       x1="0%"
       x2="0%"
       y1="0%"
       y2="100%">
      <stop
         offset="0%"
         style="stop-color:#1AD6AB; stop-opacity:1"
         id="stop9207" />
      <stop
         offset="100%"
         style="stop-color:#329DB6; stop-opacity:1"
         id="stop9209" />
    </linearGradient>
    <linearGradient
       id="oomox"
       x1="0%"
       x2="0%"
       y1="0%"
       y2="100%">
      <stop
         offset="0%"
         style="stop-color:#0abdc6; stop-opacity:1"
         id="stop9212" />
      <stop
         offset="100%"
         style="stop-color:#b800ff; stop-opacity:1"
         id="stop9214" />
    </linearGradient>
    <linearGradient
       id="rainblue"
       x1="0%"
       x2="0%"
       y1="0%"
       y2="100%">
      <stop
         offset="0%"
         style="stop-color:#00F260; stop-opacity:1"
         id="stop9217" />
      <stop
         offset="100%"
         style="stop-color:#0575E6; stop-opacity:1"
         id="stop9219" />
    </linearGradient>
    <linearGradient
       id="sunrise"
       x1="0%"
       x2="0%"
       y1="0%"
       y2="100%">
      <stop
         offset="0%"
         style="stop-color: #FF8501; stop-opacity:1"
         id="stop9222" />
      <stop
         offset="100%"
         style="stop-color: #FFCB01; stop-opacity:1"
         id="stop9224" />
    </linearGradient>
    <linearGradient
       id="telinkrin"
       x1="0%"
       x2="0%"
       y1="0%"
       y2="100%">
      <stop
         offset="0%"
         style="stop-color: #b2ced6; stop-opacity:1"
         id="stop9227" />
      <stop
         offset="100%"
         style="stop-color: #6da5b7; stop-opacity:1"
         id="stop9229" />
    </linearGradient>
    <linearGradient
       id="60spsycho"
       x1="0%"
       x2="0%"
       y1="0%"
       y2="100%">
      <stop
         offset="0%"
         style="stop-color: #df5940; stop-opacity:1"
         id="stop9232" />
      <stop
         offset="25%"
         style="stop-color: #d8d15f; stop-opacity:1"
         id="stop9234" />
      <stop
         offset="50%"
         style="stop-color: #e9882a; stop-opacity:1"
         id="stop9236" />
      <stop
         offset="100%"
         style="stop-color: #279362; stop-opacity:1"
         id="stop9238" />
    </linearGradient>
    <linearGradient
       id="90ssummer"
       x1="0%"
       x2="0%"
       y1="0%"
       y2="100%">
      <stop
         offset="0%"
         style="stop-color: #f618c7; stop-opacity:1"
         id="stop9241" />
      <stop
         offset="20%"
         style="stop-color: #94ffab; stop-opacity:1"
         id="stop9243" />
      <stop
         offset="50%"
         style="stop-color: #fbfd54; stop-opacity:1"
         id="stop9245" />
      <stop
         offset="100%"
         style="stop-color: #0f83ae; stop-opacity:1"
         id="stop9247" />
    </linearGradient>
  </defs>
  <path
     class="ColorScheme-Text"
     d="M 24,2.2698513 C 12.004603,2.2698513 2.2698513,12.004603 2.2698513,24 2.2698513,35.995397 12.004603,45.730149 24,45.730149 35.995397,45.730149 45.730149,35.995397 45.730149,24 45.730149,12.004603 35.995397,2.2698513 24,2.2698513 Z"
     id="path30230"
     style="fill:none;fill-opacity:1;stroke:url(#oomox);stroke-width:3.5397;stroke-dasharray:none" />
  <path
     class="ColorScheme-Text"
     d="m 38.98125,22.351211 c -0.492734,0 -0.795977,-0.123184 -1.222383,-0.369551 -6.746777,-4.027226 -18.809472,-4.99375 -26.617539,-2.814316 -0.341133,0.09473 -0.767539,0.246367 -1.2223768,0.246367 -1.2508067,0 -2.2078633,-0.976016 -2.2078633,-2.236289 0,-1.288711 0.7959687,-2.01834 1.648791,-2.264727 3.3354921,-0.975996 7.0689491,-1.440312 11.1340661,-1.440312 6.917344,0 14.166328,1.440312 19.463321,4.529433 0.739101,0.426407 1.222363,1.013907 1.222363,2.141524 0,1.288711 -1.042324,2.207871 -2.198379,2.207871 z m -2.9375,7.220566 c -0.492734,0 -0.824395,-0.217949 -1.165527,-0.397988 C 28.95584,25.667734 20.124395,24.25584 12.268945,26.38791 c -0.454824,0.123184 -0.701211,0.246367 -1.127617,0.246367 -1.013908,0 -1.8383046,-0.824394 -1.8383046,-1.8383 0,-1.013926 0.4927422,-1.6867 1.4687536,-1.961504 2.634278,-0.739102 5.325391,-1.288711 9.267344,-1.288711 6.149785,0 12.091113,1.525605 16.772168,4.311504 0.767539,0.454824 1.070762,1.042324 1.070762,1.866718 -0.0091,1.023399 -0.80543,1.847793 -1.838301,1.847793 z m -2.548984,6.216133 c -0.397989,0 -0.644356,-0.123183 -1.013926,-0.341133 -5.912891,-3.56291 -12.792324,-3.714511 -19.586485,-2.321582 -0.36955,0.09473 -0.852832,0.246387 -1.127617,0.246387 -0.91916,0 -1.497185,-0.729648 -1.497185,-1.497187 0,-0.976016 0.578025,-1.440313 1.288709,-1.591934 7.760683,-1.715117 15.691933,-1.563516 22.457656,2.482656 0.578027,0.369551 0.91916,0.701211 0.91916,1.563516 0,0.862285 -0.672773,1.459277 -1.440312,1.459277 z"
     id="path30232"
     style="stroke-width:0.095;stroke-dasharray:none;stroke:none;stroke-opacity:1;fill-opacity:1.0;fill:url(#oomox)" />
</svg>
