<?xml version="1.0" encoding="UTF-8" standalone="no"?>
<svg
   viewBox="0 0 48 48"
   version="1.1"
   id="svg192"
   sodipodi:docname="spotify.mine.svg"
   inkscape:version="1.2.2 (b0a8486541, 2022-12-01)"
   width="48"
   height="48"
   xmlns:inkscape="http://www.inkscape.org/namespaces/inkscape"
   xmlns:sodipodi="http://sodipodi.sourceforge.net/DTD/sodipodi-0.dtd"
   xmlns:xlink="http://www.w3.org/1999/xlink"
   xmlns="http://www.w3.org/2000/svg"
   xmlns:svg="http://www.w3.org/2000/svg">
  <defs
     id="defs196">
    <linearGradient
       id="oomox"
       x1="0"
       x2="0"
       y1="0"
       y2="1">
      <stop
         offset="0%"
         style="stop-color:#0abdc6; stop-opacity:1"
         id="stop9212" />
      <stop
         offset="100%"
         style="stop-color:#b800ff; stop-opacity:1"
         id="stop9214" />
    </linearGradient>
    <linearGradient
       inkscape:collect="always"
       xlink:href="#oomox"
       id="linearGradient758"
       x1="1.031"
       y1="1"
       x2="1.031"
       y2="15"
       gradientUnits="userSpaceOnUse" />
    <linearGradient
       inkscape:collect="always"
       xlink:href="#oomox"
       id="linearGradient760"
       x1="2.1559999"
       y1="2.188"
       x2="2.1559999"
       y2="13.813"
       gradientUnits="userSpaceOnUse" />
    <linearGradient
       inkscape:collect="always"
       xlink:href="#oomox"
       id="linearGradient1483"
       x1="7.6945071"
       y1="12.625337"
       x2="24.586956"
       y2="12.625337"
       gradientUnits="userSpaceOnUse" />
    <linearGradient
       inkscape:collect="always"
       xlink:href="#oomox"
       id="linearGradient1491"
       x1="8.4221487"
       y1="16.588476"
       x2="23.091412"
       y2="16.588476"
       gradientUnits="userSpaceOnUse" />
    <linearGradient
       inkscape:collect="always"
       xlink:href="#oomox"
       id="linearGradient1499"
       x1="9.3061647"
       y1="20.229216"
       x2="21.25742"
       y2="20.229216"
       gradientUnits="userSpaceOnUse" />
    <linearGradient
       inkscape:collect="always"
       xlink:href="#oomox"
       id="linearGradient1507"
       x1="2.9835675"
       y1="15.999995"
       x2="29"
       y2="15.999995"
       gradientUnits="userSpaceOnUse" />
  </defs>
  <sodipodi:namedview
     id="namedview194"
     pagecolor="#ffffff"
     bordercolor="#000000"
     borderopacity="0.25"
     inkscape:showpageshadow="2"
     inkscape:pageopacity="0.0"
     inkscape:pagecheckerboard="0"
     inkscape:deskcolor="#d1d1d1"
     showgrid="false"
     inkscape:zoom="7.375"
     inkscape:cx="13.220339"
     inkscape:cy="17.966102"
     inkscape:window-width="1467"
     inkscape:window-height="725"
     inkscape:window-x="0"
     inkscape:window-y="0"
     inkscape:window-maximized="0"
     inkscape:current-layer="svg192" />
  <title
     id="title181" />
  <g
     data-name="spotify music podcast audio"
     id="spotify_music_podcast_audio"
     transform="matrix(1.729676,0,0,1.7307685,-3.6606049,-3.6922825)">
    <path
       d="M 16,3 A 13,13 0 0 0 10.55,27.81 1,1 0 1 0 11.39,26 11,11 0 1 1 16,27 1,1 0 0 0 16,29 13,13 0 0 0 16,3 Z"
       id="path183"
       style="fill:url(#linearGradient1507);fill-opacity:1" />
    <path
       d="m 23.1,14.57 a 1,1 0 0 0 0.49,0.13 1,1 0 0 0 0.49,-1.87 C 20.08,10.56 14.84,9.99 8.52,11.1 a 1,1 0 0 0 -0.81,1.16 1,1 0 0 0 1.16,0.81 C 14.72,12 19.5,12.54 23.1,14.57 Z"
       id="path185"
       style="fill:url(#linearGradient1483);fill-opacity:1" />
    <path
       d="m 9.66,17 c 4.88,-1.08 8.86,-0.56 11.85,1.54 a 1,1 0 0 0 0.58,0.19 1,1 0 0 0 0.82,-0.43 1,1 0 0 0 -0.24,-1.39 c -3.47,-2.45 -8,-3.07 -13.44,-1.87 a 1.0228514,1.0228514 0 0 0 0.43,2 z"
       id="path187"
       style="fill:url(#linearGradient1491);fill-opacity:1" />
    <path
       d="m 10.52,20.79 c 3.8,-0.77 6.89,-0.4 9.2,1.09 a 1,1 0 0 0 0.54,0.16 1,1 0 0 0 0.54,-1.84 C 18,18.41 14.45,18 10.13,18.83 a 1.0188351,1.0188351 0 1 0 0.39,2 z"
       id="path189"
       style="fill:url(#linearGradient1499);fill-opacity:1" />
  </g>
</svg>
