<?xml version="1.0" encoding="UTF-8" standalone="no"?>

<svg
   height="16"
   width="16"
   version="1.1"
   id="spotlighter"
   viewBox="0 0 1.20088 1.20088"
   xml:space="preserve"
   xmlns:xlink="http://www.w3.org/1999/xlink"
   xmlns="http://www.w3.org/2000/svg"
   xmlns:svg="http://www.w3.org/2000/svg"
   xmlns:rdf="http://www.w3.org/1999/02/22-rdf-syntax-ns#"
   xmlns:cc="http://creativecommons.org/ns#"
   xmlns:dc="http://purl.org/dc/elements/1.1/">
  <defs>
    <style id="current-color-scheme" type="text/css">
      .ColorScheme-Text { color: #0abdc6; } .ColorScheme-Highlight { color:#5294e2; }
    </style>
    <linearGradient id="arrongin" x1="0%" x2="0%" y1="0%" y2="100%">
      <stop offset="0%" style="stop-color:#dd9b44; stop-opacity:1"/>
      <stop offset="100%" style="stop-color:#ad6c16; stop-opacity:1"/>
    </linearGradient>
    <linearGradient id="aurora" x1="0%" x2="0%" y1="0%" y2="100%">
      <stop offset="0%" style="stop-color:#09D4DF; stop-opacity:1"/>
      <stop offset="100%" style="stop-color:#9269F4; stop-opacity:1"/>
    </linearGradient>
    <linearGradient id="cyberneon" x1="0%" x2="0%" y1="0%" y2="100%">
      <stop offset="0" style="stop-color:#0abdc6; stop-opacity:1"/>
      <stop offset="1" style="stop-color:#ea00d9; stop-opacity:1"/>
    </linearGradient>
    <linearGradient id="fitdance" x1="0%" x2="0%" y1="0%" y2="100%">
      <stop offset="0%" style="stop-color:#1AD6AB; stop-opacity:1"/>
      <stop offset="100%" style="stop-color:#329DB6; stop-opacity:1"/>
    </linearGradient>
    <linearGradient id="oomox" x1="0%" x2="0%" y1="0%" y2="100%">
      <stop offset="0%" style="stop-color:#0abdc6; stop-opacity:1"/>
      <stop offset="100%" style="stop-color:#b800ff; stop-opacity:1"/>
    </linearGradient>
    <linearGradient id="rainblue" x1="0%" x2="0%" y1="0%" y2="100%">
      <stop offset="0%" style="stop-color:#00F260; stop-opacity:1"/>
      <stop offset="100%" style="stop-color:#0575E6; stop-opacity:1"/>
    </linearGradient>
    <linearGradient id="sunrise" x1="0%" x2="0%" y1="0%" y2="100%">
      <stop offset="0%" style="stop-color: #FF8501; stop-opacity:1"/>
      <stop offset="100%" style="stop-color: #FFCB01; stop-opacity:1"/>
    </linearGradient>
    <linearGradient id="telinkrin" x1="0%" x2="0%" y1="0%" y2="100%">
      <stop offset="0%" style="stop-color: #b2ced6; stop-opacity:1"/>
      <stop offset="100%" style="stop-color: #6da5b7; stop-opacity:1"/>
    </linearGradient>
    <linearGradient id="60spsycho" x1="0%" x2="0%" y1="0%" y2="100%">
      <stop offset="0%" style="stop-color: #df5940; stop-opacity:1"/>
      <stop offset="25%" style="stop-color: #d8d15f; stop-opacity:1"/>
      <stop offset="50%" style="stop-color: #e9882a; stop-opacity:1"/>
      <stop offset="100%" style="stop-color: #279362; stop-opacity:1"/>
    </linearGradient>
    <linearGradient id="90ssummer" x1="0%" x2="0%" y1="0%" y2="100%">
      <stop offset="0%" style="stop-color: #f618c7; stop-opacity:1"/>
      <stop offset="20%" style="stop-color: #94ffab; stop-opacity:1"/>
      <stop offset="50%" style="stop-color: #fbfd54; stop-opacity:1"/>
      <stop offset="100%" style="stop-color: #0f83ae; stop-opacity:1"/>
    </linearGradient>
  </defs>
<path
   id="path_left_spotlight"
   d="M 0.26446149,2.4694465e-5 C 0.23082137,3.3719316e-4 0.19720888,0.00361723 0.16448446,0.0099372 0.11632852,0.01923717 0.06362947,0.03569747 0.02780273,0.07095733 0.0150332,0.08351728 0.00474463,0.09907861 0.00128204,0.11687854 c -0.002101564,0.01082 -0.001618739,0.0220601 0.00144355,0.03264 0.00352263,0.0122599 0.01665223,0.03676 0.03702744,0.0571999 0.01284959,0.0129 0.02735978,0.0239794 0.04104999,0.0359794 0.04339239,0.0380398 0.0867846,0.0760581 0.13017698,0.11409791 0.0567423,0.0497398 0.11350519,0.099502 0.17026755,0.14924175 L 0.58273904,0.18259839 C 0.57026974,0.16257846 0.55777895,0.14255689 0.54530965,0.12253697 0.53320062,0.10309704 0.52553447,0.08277669 0.50792133,0.06689675 0.46931251,0.03209688 0.41475198,0.01637714 0.36461456,0.00791717 0.33177004,0.0023672 0.29810159,-2.8780443e-4 0.26446149,2.4694465e-5 Z M 0.27018549,0.04033732 c 0.0527794,0 0.10705957,0.0064817 0.1566566,0.02530167 0.0258193,0.00982 0.0627448,0.02620004 0.0719717,0.05517993 0.008266,0.0259599 -0.0188525,0.04694 -0.0382069,0.0583199 -0.0398297,0.0233799 -0.0875661,0.0334574 -0.13302006,0.0382574 -0.0901072,0.0095 -0.20851554,0.003662 -0.27764713,-0.0625974 -0.05764303,-0.07203972 0.12731501,-0.10776087 0.16284153,-0.11152085 0.0190542,-0.00202 0.03823,-0.0029406 0.0574043,-0.0029406 z M 0.81284906,0.55189723 0.62318757,0.71813479 c 0.14222616,0.1246795 0.28447259,0.24933957 0.42669873,0.37401911 0.032144,0.02816 0.064268,0.056342 0.096412,0.084522 0.00666,0.00584 0.013331,0.011681 0.020016,0.017521 0.017593,0.01542 0.044074,-0.0043 0.031004,-0.025281 C 1.1557873,1.1022352 1.1142347,1.0355561 1.0726837,0.9688764 0.98607907,0.82989692 0.89947372,0.69089668 0.81284906,0.55189723 Z"
   style="stroke-width:0.0200074;fill:url(#oomox)"
   class="ColorScheme-Text"/>
<path
   d="m 1.1156163,0.24659759 0.039309,-0.0344599 c 0.014271,-0.0125 0.025639,-0.0277999 0.035186,-0.0441999 4e-5,-8e-5 10e-5,-1.6e-4 1.401e-4,-2.6e-4 0.00664,-0.01132 0.010628,-0.0241599 0.010628,-0.0373399 0,-0.08659975 -0.1291365,-0.11909965 -0.1942652,-0.12519964 -0.0981333,-0.00917997 -0.21542098,-0.00697998 -0.29680181,0.04855986 -0.0267,0.01821995 -0.0379684,0.04267988 -0.0540804,0.06851981 -0.0144508,0.0231799 -0.0289016,0.0463799 -0.0433324,0.0695598 C 0.487707,0.39187717 0.36301381,0.59197659 0.23834063,0.79207601 c -0.0576631,0.0925597 -0.1153462,0.18509947 -0.1730093,0.27765919 -0.01647231,0.02642 -0.0329246,0.05284 -0.0493769,0.07926 -0.0037428,0.006 -0.00746558,0.012 -0.01120838,0.018 -0.01174878,0.01886 0.0088266,0.04552 0.02846127,0.02838 0.03336494,-0.02272 0.06304712,-0.05526 0.09332976,-0.0818 0.0768174,-0.06732 0.1536148,-0.13465963 0.23043221,-0.20197943 C 0.54861252,0.74361615 0.74027576,0.57561664 0.93191899,0.40763712 0.99314479,0.35395728 1.0543705,0.30027743 1.1156163,0.24659759 Z M 0.70288782,0.1422579 c -0.0100275,-0.0253399 0.0146309,-0.04663987 0.0338053,-0.05855983 0.0384487,-0.02391993 0.0854038,-0.0343399 0.12983704,-0.03963989 0.0212759,-0.00254 0.0427119,-0.00372 0.0641479,-0.00372 0.0524392,0 0.10631944,0.0064 0.15563634,0.02495993 0.025999,0.00978 0.062487,0.02589992 0.072474,0.05459984 0.014191,0.0407799 -0.051559,0.0680798 -0.07976,0.0779798 -0.044853,0.0157399 -0.0931095,0.0216599 -0.14046494,0.0223999 -0.0536601,8.3999e-4 -0.10894142,-0.00522 -0.15967934,-0.0234599 -0.0270402,-0.0097 -0.0644882,-0.0255599 -0.0759963,-0.0545599 z"
   id="path_right_spotlight"
   class="ColorScheme-Text"
   style="stroke-width:0.0200074;fill:url(#oomox)" />
<metadata
   id="metadata3"><rdf:RDF><cc:Work
       rdf:about=""><dc:creator><cc:Agent><dc:title>dreifacherspass</dc:title></cc:Agent></dc:creator><cc:license
         rdf:resource="http://creativecommons.org/licenses/by-sa/4.0/" /></cc:Work><cc:License
       rdf:about="http://creativecommons.org/licenses/by-sa/4.0/"><cc:permits
         rdf:resource="http://creativecommons.org/ns#Reproduction" /><cc:permits
         rdf:resource="http://creativecommons.org/ns#Distribution" /><cc:requires
         rdf:resource="http://creativecommons.org/ns#Notice" /><cc:requires
         rdf:resource="http://creativecommons.org/ns#Attribution" /><cc:permits
         rdf:resource="http://creativecommons.org/ns#DerivativeWorks" /><cc:requires
         rdf:resource="http://creativecommons.org/ns#ShareAlike" /></cc:License></rdf:RDF></metadata></svg>
