<?xml version="1.0" encoding="UTF-8" standalone="no"?>
<!-- Created with Inkscape (http://www.inkscape.org/) -->

<svg
   version="1.0"
   width="16"
   height="16"
   id="svg2"
   xmlns:xlink="http://www.w3.org/1999/xlink"
   xmlns="http://www.w3.org/2000/svg"
   xmlns:svg="http://www.w3.org/2000/svg"
   xmlns:rdf="http://www.w3.org/1999/02/22-rdf-syntax-ns#"
   xmlns:cc="http://creativecommons.org/ns#"
   xmlns:dc="http://purl.org/dc/elements/1.1/">
  <metadata
     id="metadata29">
    <rdf:RDF>
      <cc:Work
         rdf:about="">
        <dc:format>image/svg+xml</dc:format>
        <dc:type
           rdf:resource="http://purl.org/dc/dcmitype/StillImage" />
        <dc:creator>
          <cc:Agent>
            <dc:title>dreifacherspass</dc:title>
          </cc:Agent>
        </dc:creator>
        <cc:license
           rdf:resource="http://creativecommons.org/licenses/by-sa/4.0/" />
      </cc:Work>
      <cc:License
         rdf:about="http://creativecommons.org/licenses/by-sa/4.0/">
        <cc:permits
           rdf:resource="http://creativecommons.org/ns#Reproduction" />
        <cc:permits
           rdf:resource="http://creativecommons.org/ns#Distribution" />
        <cc:requires
           rdf:resource="http://creativecommons.org/ns#Notice" />
        <cc:requires
           rdf:resource="http://creativecommons.org/ns#Attribution" />
        <cc:permits
           rdf:resource="http://creativecommons.org/ns#DerivativeWorks" />
        <cc:requires
           rdf:resource="http://creativecommons.org/ns#ShareAlike" />
      </cc:License>
    </rdf:RDF>
  </metadata>
  <defs>
   <style id="current-color-scheme" type="text/css">
   .ColorScheme-Text { color: #0abdc6; } .ColorScheme-Highlight { color:#5294e2; }
  </style>
  <linearGradient id="arrongin" x1="0%" x2="0%" y1="0%" y2="100%">
   <stop offset="0%" style="stop-color:#dd9b44; stop-opacity:1"/>
   <stop offset="100%" style="stop-color:#ad6c16; stop-opacity:1"/>
  </linearGradient>
  <linearGradient id="aurora" x1="0%" x2="0%" y1="0%" y2="100%">
   <stop offset="0%" style="stop-color:#09D4DF; stop-opacity:1"/>
   <stop offset="100%" style="stop-color:#9269F4; stop-opacity:1"/>
  </linearGradient>
  <linearGradient id="cyberneon" x1="0%" x2="0%" y1="0%" y2="100%">
    <stop offset="0" style="stop-color:#0abdc6; stop-opacity:1"/>
    <stop offset="1" style="stop-color:#ea00d9; stop-opacity:1"/>
  </linearGradient>
  <linearGradient id="fitdance" x1="0%" x2="0%" y1="0%" y2="100%">
   <stop offset="0%" style="stop-color:#1AD6AB; stop-opacity:1"/>
   <stop offset="100%" style="stop-color:#329DB6; stop-opacity:1"/>
  </linearGradient>
  <linearGradient id="oomox" x1="0%" x2="0%" y1="0%" y2="100%">
   <stop offset="0%" style="stop-color:#0abdc6; stop-opacity:1"/>
   <stop offset="100%" style="stop-color:#b800ff; stop-opacity:1"/>
  </linearGradient>
  <linearGradient id="rainblue" x1="0%" x2="0%" y1="0%" y2="100%">
   <stop offset="0%" style="stop-color:#00F260; stop-opacity:1"/>
   <stop offset="100%" style="stop-color:#0575E6; stop-opacity:1"/>
  </linearGradient>
  <linearGradient id="sunrise" x1="0%" x2="0%" y1="0%" y2="100%">
   <stop offset="0%" style="stop-color: #FF8501; stop-opacity:1"/>
   <stop offset="100%" style="stop-color: #FFCB01; stop-opacity:1"/>
  </linearGradient>
  <linearGradient id="telinkrin" x1="0%" x2="0%" y1="0%" y2="100%">
   <stop offset="0%" style="stop-color: #b2ced6; stop-opacity:1"/>
   <stop offset="100%" style="stop-color: #6da5b7; stop-opacity:1"/>
  </linearGradient>
  <linearGradient id="60spsycho" x1="0%" x2="0%" y1="0%" y2="100%">
   <stop offset="0%" style="stop-color: #df5940; stop-opacity:1"/>
   <stop offset="25%" style="stop-color: #d8d15f; stop-opacity:1"/>
   <stop offset="50%" style="stop-color: #e9882a; stop-opacity:1"/>
   <stop offset="100%" style="stop-color: #279362; stop-opacity:1"/>
  </linearGradient>
  <linearGradient id="90ssummer" x1="0%" x2="0%" y1="0%" y2="100%">
   <stop offset="0%" style="stop-color: #f618c7; stop-opacity:1"/>
   <stop offset="20%" style="stop-color: #94ffab; stop-opacity:1"/>
   <stop offset="50%" style="stop-color: #fbfd54; stop-opacity:1"/>
   <stop offset="100%" style="stop-color: #0f83ae; stop-opacity:1"/>
  </linearGradient>
 </defs>
  <path
     id="path657"
     class="ColorScheme-Text"
     style="display:inline;opacity:0.7;fill:url(#oomox);fill-rule:evenodd;stroke:none;stroke-width:0.328069;stroke-linecap:butt;stroke-linejoin:round;stroke-miterlimit:4;stroke-dasharray:none;stroke-opacity:1"
     d="M 7.8259955,0.4485 5.7283636,4.4043267 1.8320848,2.4903215 2.9079342,6.6140783 c 0,0 -2.6001616,0.48478 -2.88869794,0.5620925 -0.28853627,0.077313 2.72151514,2.9477472 2.72151514,2.9477472 L 10.402702,9.5565413 13.255323,10.148834 16.000257,7.128084 12.93142,6.4117648 14.141564,2.4708873 9.9116683,4.2234405 Z M 6.0001913,6.0001614 c 0.021158,0.00124 0.042167,0.00432 0.062787,0.00922 0.1261676,0.029851 0.2268364,0.1247261 0.2641036,0.2489054 0.057584,0.1920254 -0.0514,0.3943753 -0.243424,0.4519654 C 5.3324808,6.9356053 5.1328842,7.9767051 5.1328842,7.9767051 5.1011568,8.174643 4.9149864,8.3093906 4.7170454,8.2776836 4.5190063,8.2460777 4.384119,8.059869 4.4158174,7.8618447 c 0,0 0.2020038,-1.4697942 1.4592981,-1.8469825 0.040517,-0.012149 0.082846,-0.017125 0.1250758,-0.014701 z m 0.4813663,1.8686592 c 0.3051079,0 0.5524673,0.3486837 0.5523758,0.778608 9.94e-5,0.4299241 -0.2472679,0.7783588 -0.5523758,0.7783588 -0.3051075,0 -0.5524671,-0.3484347 -0.5523757,-0.7783588 -9.93e-5,-0.4299243 0.2472682,-0.778608 0.5523757,-0.778608 z m 3.4946418,0.087204 c 0.4853616,0.00417 0.8768236,0.1565542 0.8740336,0.3405942 -0.0028,0.1840391 -0.39864,0.3299309 -0.8839998,0.3256449 C 9.4808717,8.6180925 9.0896588,8.46546 9.0924481,8.2814206 9.095238,8.0973808 9.4908396,7.9517387 9.9761994,7.9560246 Z" />
  <path
     id="path21"
     class="ColorScheme-Text"
     style="display:inline;fill:url(#oomox);fill-rule:evenodd;stroke:none;stroke-width:0.325581;stroke-linecap:butt;stroke-linejoin:miter;stroke-miterlimit:4;stroke-dasharray:none;stroke-opacity:1"
     d="m 8.0380262,4.1030988 c -3.1613509,0 -5.7240766,2.5627258 -5.7240766,5.7240767 0,3.1613495 2.5627257,5.7243245 5.7240766,5.7243245 3.1613498,0 5.7243258,-2.562975 5.7243258,-5.7243245 0,-3.1613509 -2.562976,-5.7240767 -5.7243258,-5.7240767 z M 5.9550941,6.0004107 A 0.3629993,0.3629993 0 0 1 6.3270818,6.2582856 0.3629993,0.3629993 0 0 1 6.0836579,6.710252 C 5.3324808,6.935605 5.1326349,7.9764553 5.1326349,7.9764553 A 0.3629993,0.3629993 0 0 1 4.7170454,8.2776831 0.3629993,0.3629993 0 0 1 4.4158174,7.8618442 c 0,0 0.2020041,-1.4697943 1.4592981,-1.8469826 a 0.3629993,0.3629993 0 0 1 0.079979,-0.014451 z m 0.5264635,1.8684099 c 0.3051077,0 0.5524673,0.3486837 0.5523758,0.778608 9.94e-5,0.4299241 -0.2472681,0.7783588 -0.5523758,0.7783588 -0.3051075,0 -0.5524669,-0.3484347 -0.5523757,-0.7783588 -9.93e-5,-0.4299243 0.2472682,-0.778608 0.5523757,-0.778608 z m 3.4948909,0.087204 C 10.46181,7.9601945 10.853024,8.1128281 10.850233,8.2968678 10.847433,8.4809072 10.451594,8.6265497 9.9662332,8.6222637 9.480872,8.6180925 9.0896588,8.46546 9.0924481,8.2814206 9.095238,8.097381 9.4910888,7.9517387 9.9764485,7.9560246 Z M 10.398018,9.932069 a 0.44756162,0.44756162 0 0 1 0.44773,0.447482 c 0,0.954518 -0.333557,1.753772 -0.8994473,2.289481 C 9.3804109,13.204742 8.6013895,13.466533 7.77168,13.437922 6.1356335,13.38151 5.274653,12.311246 5.274653,12.311246 a 0.44756162,0.44756162 0 0 1 0.078483,-0.627869 0.44756162,0.44756162 0 0 1 0.6281184,0.07848 c 0,0 0.545092,0.737341 1.8213198,0.781349 0.6264276,0.0216 1.1527353,-0.168674 1.5283141,-0.524221 0.3755786,-0.355545 0.619648,-0.886757 0.619648,-1.639434 A 0.44756162,0.44756162 0 0 1 10.398018,9.932069 Z" />
</svg>
