<?xml version="1.0" encoding="UTF-8" standalone="no"?>

<svg
   height="16"
   width="16"
   version="1.1"
   id="_x32_"
   viewBox="0 0 10.24 10.24"
   xml:space="preserve"
   xmlns="http://www.w3.org/2000/svg"
   xmlns:svg="http://www.w3.org/2000/svg"
   xmlns:rdf="http://www.w3.org/1999/02/22-rdf-syntax-ns#"
   xmlns:cc="http://creativecommons.org/ns#"
   xmlns:dc="http://purl.org/dc/elements/1.1/">
 <defs>
   <style id="current-color-scheme" type="text/css">
   .ColorScheme-Text { color: #0abdc6; } .ColorScheme-Highlight { color:#5294e2; }
  </style>
  <linearGradient id="arrongin" x1="0%" x2="0%" y1="0%" y2="100%">
   <stop offset="0%" style="stop-color:#dd9b44; stop-opacity:1"/>
   <stop offset="100%" style="stop-color:#ad6c16; stop-opacity:1"/>
  </linearGradient>
  <linearGradient id="aurora" x1="0%" x2="0%" y1="0%" y2="100%">
   <stop offset="0%" style="stop-color:#09D4DF; stop-opacity:1"/>
   <stop offset="100%" style="stop-color:#9269F4; stop-opacity:1"/>
  </linearGradient>
  <linearGradient id="cyberneon" x1="0%" x2="0%" y1="0%" y2="100%">
    <stop offset="0" style="stop-color:#0abdc6; stop-opacity:1"/>
    <stop offset="1" style="stop-color:#ea00d9; stop-opacity:1"/>
  </linearGradient>
  <linearGradient id="fitdance" x1="0%" x2="0%" y1="0%" y2="100%">
   <stop offset="0%" style="stop-color:#1AD6AB; stop-opacity:1"/>
   <stop offset="100%" style="stop-color:#329DB6; stop-opacity:1"/>
  </linearGradient>
  <linearGradient id="oomox" x1="0%" x2="0%" y1="0%" y2="100%">
   <stop offset="0%" style="stop-color:#0abdc6; stop-opacity:1"/>
   <stop offset="100%" style="stop-color:#b800ff; stop-opacity:1"/>
  </linearGradient>
  <linearGradient id="rainblue" x1="0%" x2="0%" y1="0%" y2="100%">
   <stop offset="0%" style="stop-color:#00F260; stop-opacity:1"/>
   <stop offset="100%" style="stop-color:#0575E6; stop-opacity:1"/>
  </linearGradient>
  <linearGradient id="sunrise" x1="0%" x2="0%" y1="0%" y2="100%">
   <stop offset="0%" style="stop-color: #FF8501; stop-opacity:1"/>
   <stop offset="100%" style="stop-color: #FFCB01; stop-opacity:1"/>
  </linearGradient>
  <linearGradient id="telinkrin" x1="0%" x2="0%" y1="0%" y2="100%">
   <stop offset="0%" style="stop-color: #b2ced6; stop-opacity:1"/>
   <stop offset="100%" style="stop-color: #6da5b7; stop-opacity:1"/>
  </linearGradient>
  <linearGradient id="60spsycho" x1="0%" x2="0%" y1="0%" y2="100%">
   <stop offset="0%" style="stop-color: #df5940; stop-opacity:1"/>
   <stop offset="25%" style="stop-color: #d8d15f; stop-opacity:1"/>
   <stop offset="50%" style="stop-color: #e9882a; stop-opacity:1"/>
   <stop offset="100%" style="stop-color: #279362; stop-opacity:1"/>
  </linearGradient>
  <linearGradient id="90ssummer" x1="0%" x2="0%" y1="0%" y2="100%">
   <stop offset="0%" style="stop-color: #f618c7; stop-opacity:1"/>
   <stop offset="20%" style="stop-color: #94ffab; stop-opacity:1"/>
   <stop offset="50%" style="stop-color: #fbfd54; stop-opacity:1"/>
   <stop offset="100%" style="stop-color: #0f83ae; stop-opacity:1"/>
  </linearGradient>
 </defs>
 <path
   id="path1"
   class="ColorScheme-Text"
   d="M 5.3353515,0.2461795 C 5.1137047,0.26080982 4.8997888,0.35465688 4.7369514,0.51856047 L 0.43292537,4.8507563 C 0.09250563,5.1309025 2.7263256e-7,5.6532939 2.7263256e-7,6.1172841 2.7263256e-7,6.5812942 0.0308958,7.1381724 0.5568754,7.3546362 L 0.43292537,7.3256055 1.5917507,7.7762664 V 7.3614063 c 0,-0.067441 0.00841,-0.1333629 0.02215,-0.1976043 L 0.83510046,6.8608754 C 0.58740065,6.7670533 0.58719545,6.4300159 0.61827541,5.9937064 0.64539541,5.6157981 0.76674087,5.1207022 1.1876006,5.1440628 L 5.0316015,6.6391205 C 5.3761612,6.7730834 5.7672318,6.6901916 6.0279517,6.4279659 L 9.7433776,2.688058 C 9.8733774,2.5572961 9.9287676,2.369681 9.8905276,2.1893971 9.8522876,2.0089331 9.7256774,1.8598898 9.5538775,1.7931884 L 5.7333266,0.30738084 C 5.6041168,0.25714974 5.4683398,0.23739931 5.3353515,0.2461795 Z m 3.951951,3.4765271 v 0.6209386 l 0.11435,0.044451 c 0.0516,0.02016 0.089675,0.064991 0.100975,0.1190526 0.0113,0.054241 -0.00527,0.1107724 -0.044475,0.1499533 L 5.5828016,8.532263 C 5.5061216,8.608745 5.3915814,8.6328702 5.2904015,8.593684 L 4.4291263,8.258732 V 8.8796456 L 5.0336515,9.1147507 C 5.3772512,9.2483136 5.7672118,9.1663818 6.0279517,8.9056711 L 10.079827,4.8537814 c 0.13056,-0.1305629 0.18651,-0.318392 0.14845,-0.4992359 -0.03804,-0.180684 -0.164825,-0.3300473 -0.3370244,-0.3971087 z"
   style="fill:url(#oomox);stroke-width:0.0200002" />
 <path
   class="ColorScheme-Text"
   d="m 2.2209608,7.0532146 c -0.08176,0.082142 -0.12762,0.1929042 -0.12762,0.3082067 V 9.2829844 L 2.909801,9.1081606 3.9275612,9.99584 V 8.0748379 c 0,-0.1158625 0.04596,-0.2266249 0.12772,-0.3083867 L 4.3807213,7.4409231 2.5466009,6.7276674 Z"
   id="path3"
   style="fill:url(#oomox);stroke-width:0.0200002" />
 <metadata
   id="metadata3"><rdf:RDF><cc:Work
       rdf:about=""><dc:creator><cc:Agent><dc:title>dreifacherspass</dc:title></cc:Agent></dc:creator><cc:license
         rdf:resource="http://creativecommons.org/licenses/by-sa/4.0/" /></cc:Work><cc:License
       rdf:about="http://creativecommons.org/licenses/by-sa/4.0/"><cc:permits
         rdf:resource="http://creativecommons.org/ns#Reproduction" /><cc:permits
         rdf:resource="http://creativecommons.org/ns#Distribution" /><cc:requires
         rdf:resource="http://creativecommons.org/ns#Notice" /><cc:requires
         rdf:resource="http://creativecommons.org/ns#Attribution" /><cc:permits
         rdf:resource="http://creativecommons.org/ns#DerivativeWorks" /><cc:requires
         rdf:resource="http://creativecommons.org/ns#ShareAlike" /></cc:License></rdf:RDF></metadata></svg>
