<?xml version="1.0" encoding="UTF-8" standalone="no"?>

<svg
   width="48"
   height="48"
   id="svg2"
   version="1.1"
   xmlns="http://www.w3.org/2000/svg"
   xmlns:svg="http://www.w3.org/2000/svg"
   xmlns:rdf="http://www.w3.org/1999/02/22-rdf-syntax-ns#"
   xmlns:cc="http://creativecommons.org/ns#"
   xmlns:dc="http://purl.org/dc/elements/1.1/">
  <metadata
     id="metadata12">
    <rdf:RDF>
      <cc:Work
         rdf:about="">
        <dc:format>image/svg+xml</dc:format>
        <dc:type
           rdf:resource="http://purl.org/dc/dcmitype/StillImage" />
        <dc:creator>
          <cc:Agent>
            <dc:title>dreifacherspass</dc:title>
          </cc:Agent>
        </dc:creator>
        <cc:license
           rdf:resource="http://creativecommons.org/licenses/by-sa/4.0/" />
      </cc:Work>
      <cc:License
         rdf:about="http://creativecommons.org/licenses/by-sa/4.0/">
        <cc:permits
           rdf:resource="http://creativecommons.org/ns#Reproduction" />
        <cc:permits
           rdf:resource="http://creativecommons.org/ns#Distribution" />
        <cc:requires
           rdf:resource="http://creativecommons.org/ns#Notice" />
        <cc:requires
           rdf:resource="http://creativecommons.org/ns#Attribution" />
        <cc:permits
           rdf:resource="http://creativecommons.org/ns#DerivativeWorks" />
        <cc:requires
           rdf:resource="http://creativecommons.org/ns#ShareAlike" />
      </cc:License>
    </rdf:RDF>
  </metadata>
  <defs>
   <style id="current-color-scheme" type="text/css">
   .ColorScheme-Text { color: #0abdc6; } .ColorScheme-Highlight { color:#5294e2; }
  </style>
  <linearGradient id="arrongin" x1="0%" x2="0%" y1="0%" y2="100%">
   <stop offset="0%" style="stop-color:#dd9b44; stop-opacity:1"/>
   <stop offset="100%" style="stop-color:#ad6c16; stop-opacity:1"/>
  </linearGradient>
  <linearGradient id="aurora" x1="0%" x2="0%" y1="0%" y2="100%">
   <stop offset="0%" style="stop-color:#09D4DF; stop-opacity:1"/>
   <stop offset="100%" style="stop-color:#9269F4; stop-opacity:1"/>
  </linearGradient>
  <linearGradient id="cyberneon" x1="0%" x2="0%" y1="0%" y2="100%">
    <stop offset="0" style="stop-color:#0abdc6; stop-opacity:1"/>
    <stop offset="1" style="stop-color:#ea00d9; stop-opacity:1"/>
  </linearGradient>
  <linearGradient id="fitdance" x1="0%" x2="0%" y1="0%" y2="100%">
   <stop offset="0%" style="stop-color:#1AD6AB; stop-opacity:1"/>
   <stop offset="100%" style="stop-color:#329DB6; stop-opacity:1"/>
  </linearGradient>
  <linearGradient id="oomox" x1="0%" x2="0%" y1="0%" y2="100%">
   <stop offset="0%" style="stop-color:#0abdc6; stop-opacity:1"/>
   <stop offset="100%" style="stop-color:#b800ff; stop-opacity:1"/>
  </linearGradient>
  <linearGradient id="rainblue" x1="0%" x2="0%" y1="0%" y2="100%">
   <stop offset="0%" style="stop-color:#00F260; stop-opacity:1"/>
   <stop offset="100%" style="stop-color:#0575E6; stop-opacity:1"/>
  </linearGradient>
  <linearGradient id="sunrise" x1="0%" x2="0%" y1="0%" y2="100%">
   <stop offset="0%" style="stop-color: #FF8501; stop-opacity:1"/>
   <stop offset="100%" style="stop-color: #FFCB01; stop-opacity:1"/>
  </linearGradient>
  <linearGradient id="telinkrin" x1="0%" x2="0%" y1="0%" y2="100%">
   <stop offset="0%" style="stop-color: #b2ced6; stop-opacity:1"/>
   <stop offset="100%" style="stop-color: #6da5b7; stop-opacity:1"/>
  </linearGradient>
  <linearGradient id="60spsycho" x1="0%" x2="0%" y1="0%" y2="100%">
   <stop offset="0%" style="stop-color: #df5940; stop-opacity:1"/>
   <stop offset="25%" style="stop-color: #d8d15f; stop-opacity:1"/>
   <stop offset="50%" style="stop-color: #e9882a; stop-opacity:1"/>
   <stop offset="100%" style="stop-color: #279362; stop-opacity:1"/>
  </linearGradient>
  <linearGradient id="90ssummer" x1="0%" x2="0%" y1="0%" y2="100%">
   <stop offset="0%" style="stop-color: #f618c7; stop-opacity:1"/>
   <stop offset="20%" style="stop-color: #94ffab; stop-opacity:1"/>
   <stop offset="50%" style="stop-color: #fbfd54; stop-opacity:1"/>
   <stop offset="100%" style="stop-color: #0f83ae; stop-opacity:1"/>
  </linearGradient>
 </defs>
  <path
     id="rect4222"
     class="ColorScheme-Text"
     style="font-variation-settings:normal;opacity:1;vector-effect:none;fill:url(#oomox);fill-opacity:1;stroke:none;stroke-width:1.67857;stroke-linecap:butt;stroke-linejoin:miter;stroke-miterlimit:4;stroke-dasharray:none;stroke-dashoffset:0;stroke-opacity:1;-inkscape-stroke:none;stop-color:#000000;stop-opacity:1"
     d="M 3.8574219 3.8574219 C 1.997572 3.8574219 0.5 5.3549939 0.5 7.2148438 L 0.5 40.785156 C 0.5 42.645006 1.997572 44.142578 3.8574219 44.142578 L 44.142578 44.142578 C 46.002427 44.142578 47.5 42.645006 47.5 40.785156 L 47.5 7.2148438 C 47.5 5.3549939 46.002427 3.8574219 44.142578 3.8574219 L 3.8574219 3.8574219 z M 43.583984 6.0957031 A 1.6785715 1.6785715 0 0 1 45.261719 7.7734375 A 1.6785715 1.6785715 0 0 1 43.583984 9.453125 A 1.6785715 1.6785715 0 0 1 41.904297 7.7734375 A 1.6785715 1.6785715 0 0 1 43.583984 6.0957031 z M 43.583984 7.2148438 A 0.55952382 0.55952382 0 0 0 43.023438 7.7734375 A 0.55952382 0.55952382 0 0 0 43.583984 8.3339844 A 0.55952382 0.55952382 0 0 0 44.142578 7.7734375 A 0.55952382 0.55952382 0 0 0 43.583984 7.2148438 z M 1.6191406 10.572266 L 46.380859 10.572266 L 46.380859 11.691406 L 1.6191406 11.691406 L 1.6191406 10.572266 z M 7.2148438 15.046875 L 9.453125 15.046875 L 9.453125 17.285156 L 11.691406 17.285156 L 11.691406 15.046875 L 13.927734 15.046875 L 13.927734 17.285156 L 16.166016 17.285156 L 16.166016 19.523438 L 13.927734 19.523438 L 13.927734 21.761719 L 16.166016 21.761719 L 16.166016 24 L 13.927734 24 L 13.927734 26.238281 L 11.691406 26.238281 L 11.691406 24 L 9.453125 24 L 9.453125 26.238281 L 7.2148438 26.238281 L 7.2148438 24 L 4.9765625 24 L 4.9765625 21.761719 L 7.2148438 21.761719 L 7.2148438 19.523438 L 4.9765625 19.523438 L 4.9765625 17.285156 L 7.2148438 17.285156 L 7.2148438 15.046875 z M 18.404297 15.046875 L 20.642578 15.046875 L 20.642578 22.880859 L 18.404297 22.880859 L 18.404297 15.046875 z M 9.453125 19.523438 L 9.453125 21.761719 L 11.691406 21.761719 L 11.691406 19.523438 L 9.453125 19.523438 z M 18.404297 24 L 20.642578 24 L 20.642578 26.238281 L 18.404297 26.238281 L 18.404297 24 z " />
</svg>
