<?xml version="1.0" encoding="UTF-8" standalone="no"?>
<!-- Created with Inkscape (http://www.inkscape.org/) -->

<svg
   width="16"
   height="16"
   viewBox="0 0 4.2333333 4.2333333"
   version="1.1"
   id="svg4491"
   xmlns="http://www.w3.org/2000/svg"
   xmlns:svg="http://www.w3.org/2000/svg"
   xmlns:rdf="http://www.w3.org/1999/02/22-rdf-syntax-ns#"
   xmlns:cc="http://creativecommons.org/ns#"
   xmlns:dc="http://purl.org/dc/elements/1.1/">
  <defs>
   <style id="current-color-scheme" type="text/css">
   .ColorScheme-Text { color: #0abdc6; } .ColorScheme-Highlight { color:#5294e2; }
  </style>
  <linearGradient id="arrongin" x1="0%" x2="0%" y1="0%" y2="100%">
   <stop offset="0%" style="stop-color:#dd9b44; stop-opacity:1"/>
   <stop offset="100%" style="stop-color:#ad6c16; stop-opacity:1"/>
  </linearGradient>
  <linearGradient id="aurora" x1="0%" x2="0%" y1="0%" y2="100%">
   <stop offset="0%" style="stop-color:#09D4DF; stop-opacity:1"/>
   <stop offset="100%" style="stop-color:#9269F4; stop-opacity:1"/>
  </linearGradient>
  <linearGradient id="cyberneon" x1="0%" x2="0%" y1="0%" y2="100%">
    <stop offset="0" style="stop-color:#0abdc6; stop-opacity:1"/>
    <stop offset="1" style="stop-color:#ea00d9; stop-opacity:1"/>
  </linearGradient>
  <linearGradient id="fitdance" x1="0%" x2="0%" y1="0%" y2="100%">
   <stop offset="0%" style="stop-color:#1AD6AB; stop-opacity:1"/>
   <stop offset="100%" style="stop-color:#329DB6; stop-opacity:1"/>
  </linearGradient>
  <linearGradient id="oomox" x1="0%" x2="0%" y1="0%" y2="100%">
   <stop offset="0%" style="stop-color:#0abdc6; stop-opacity:1"/>
   <stop offset="100%" style="stop-color:#b800ff; stop-opacity:1"/>
  </linearGradient>
  <linearGradient id="rainblue" x1="0%" x2="0%" y1="0%" y2="100%">
   <stop offset="0%" style="stop-color:#00F260; stop-opacity:1"/>
   <stop offset="100%" style="stop-color:#0575E6; stop-opacity:1"/>
  </linearGradient>
  <linearGradient id="sunrise" x1="0%" x2="0%" y1="0%" y2="100%">
   <stop offset="0%" style="stop-color: #FF8501; stop-opacity:1"/>
   <stop offset="100%" style="stop-color: #FFCB01; stop-opacity:1"/>
  </linearGradient>
  <linearGradient id="telinkrin" x1="0%" x2="0%" y1="0%" y2="100%">
   <stop offset="0%" style="stop-color: #b2ced6; stop-opacity:1"/>
   <stop offset="100%" style="stop-color: #6da5b7; stop-opacity:1"/>
  </linearGradient>
  <linearGradient id="60spsycho" x1="0%" x2="0%" y1="0%" y2="100%">
   <stop offset="0%" style="stop-color: #df5940; stop-opacity:1"/>
   <stop offset="25%" style="stop-color: #d8d15f; stop-opacity:1"/>
   <stop offset="50%" style="stop-color: #e9882a; stop-opacity:1"/>
   <stop offset="100%" style="stop-color: #279362; stop-opacity:1"/>
  </linearGradient>
  <linearGradient id="90ssummer" x1="0%" x2="0%" y1="0%" y2="100%">
   <stop offset="0%" style="stop-color: #f618c7; stop-opacity:1"/>
   <stop offset="20%" style="stop-color: #94ffab; stop-opacity:1"/>
   <stop offset="50%" style="stop-color: #fbfd54; stop-opacity:1"/>
   <stop offset="100%" style="stop-color: #0f83ae; stop-opacity:1"/>
  </linearGradient>
 </defs>
  <metadata
     id="metadata4488">
    <rdf:RDF>
      <cc:Work
         rdf:about="">
        <dc:format>image/svg+xml</dc:format>
        <dc:type
           rdf:resource="http://purl.org/dc/dcmitype/StillImage" />
        <dc:creator>
          <cc:Agent>
            <dc:title>dreifacherspass</dc:title>
          </cc:Agent>
        </dc:creator>
        <cc:license
           rdf:resource="http://creativecommons.org/licenses/by-sa/4.0/" />
      </cc:Work>
      <cc:License
         rdf:about="http://creativecommons.org/licenses/by-sa/4.0/">
        <cc:permits
           rdf:resource="http://creativecommons.org/ns#Reproduction" />
        <cc:permits
           rdf:resource="http://creativecommons.org/ns#Distribution" />
        <cc:requires
           rdf:resource="http://creativecommons.org/ns#Notice" />
        <cc:requires
           rdf:resource="http://creativecommons.org/ns#Attribution" />
        <cc:permits
           rdf:resource="http://creativecommons.org/ns#DerivativeWorks" />
        <cc:requires
           rdf:resource="http://creativecommons.org/ns#ShareAlike" />
      </cc:License>
    </rdf:RDF>
  </metadata>
  <path
     id="rect442"
     class="ColorScheme-Text"
     style="display:inline;opacity:1;fill:url(#oomox);fill-opacity:1;stroke:none;stroke-width:2.77128;stroke-linejoin:round;stroke-miterlimit:4;stroke-dasharray:none;stroke-opacity:1"
     d="m 0,284.29995 v 12.69999 H 12.7 V 284.29995 Z M 0.27905274,284.579 H 12.420947 v 12.14189 H 0.27905274 Z"
     transform="matrix(0.33333333,0,0,0.33333354,0,-94.766709)" />
  <path
     id="path443"
     class="ColorScheme-Text"
     style="display:inline;fill:url(#oomox);stroke-linejoin:round;-inkscape-stroke:none"
     d="M 0.26044922 0.26044922 L 0.26044922 3.9728841 L 3.9728841 3.9728841 L 3.9728841 0.26044922 L 0.26044922 0.26044922 z M 1.236617 0.36121826 C 1.3244192 0.36121826 1.4073026 0.37184146 1.4856974 0.39222412 C 1.5656601 0.41260678 1.6485435 0.441411 1.7347778 0.47904052 L 1.6195394 0.75654296 C 1.5427125 0.72518502 1.4739817 0.70092607 1.4128336 0.68367919 C 1.3516857 0.66643233 1.2890153 0.65784098 1.2247314 0.65784098 C 1.1573119 0.65784098 1.1052469 0.67350859 1.0691854 0.70486653 C 1.0331237 0.73622447 1.0154419 0.77716697 1.0154419 0.82733967 C 1.0154419 0.88691976 1.0422318 0.93392261 1.0955404 0.96841633 C 1.1488488 1.0029101 1.2276861 1.0448508 1.3327352 1.0950236 C 1.4189695 1.135789 1.4917463 1.1782466 1.5513265 1.2221476 C 1.6124744 1.2660488 1.6594774 1.3181135 1.6924031 1.3776937 C 1.725329 1.4372737 1.7420125 1.5105498 1.7420125 1.598352 C 1.7420125 1.7473023 1.6879334 1.8665828 1.5797485 1.9559529 C 1.4731315 2.0437553 1.3210006 2.0877278 1.1234456 2.0877278 C 0.94627331 2.0877278 0.78808204 2.0538617 0.64853922 1.986442 L 0.64853922 1.6551961 C 0.72850196 1.6896899 0.81088614 1.7215242 0.89555256 1.7513143 C 0.9817869 1.7795363 1.0672013 1.793689 1.1518677 1.793689 C 1.2396699 1.793689 1.3013244 1.7775222 1.3373861 1.7445963 C 1.3750155 1.7101027 1.3942301 1.666629 1.3942301 1.6148885 C 1.3942301 1.5725552 1.3790617 1.5366747 1.3492716 1.5068848 C 1.3210496 1.4770947 1.2826379 1.4498056 1.2340332 1.4247192 C 1.1854283 1.3980651 1.1298343 1.3697598 1.0671183 1.3399699 C 1.027921 1.3211551 0.9854633 1.2989104 0.9399943 1.273824 C 0.89452528 1.2471699 0.85055261 1.2153353 0.80821939 1.1777059 C 0.76745408 1.1385084 0.73410461 1.0915057 0.70745035 1.0366292 C 0.68079611 0.98175286 0.66714274 0.91553543 0.66714274 0.83870849 C 0.66714274 0.68819039 0.71819168 0.57144082 0.82010497 0.48834228 C 0.92201827 0.40367585 1.0610126 0.36121826 1.236617 0.36121826 z M 1.8830892 0.38498942 L 3.1507121 0.38498942 L 3.1507121 0.68109537 L 2.6944092 0.68109537 L 2.6944092 2.0639567 L 2.3393921 2.0639567 L 2.3393921 0.68109537 L 1.8830892 0.68109537 L 1.8830892 0.38498942 z M 0.41496175 2.3760823 L 0.69504801 2.3760823 L 0.69504801 3.8059692 L 0.41496175 3.8059692 L 0.41496175 2.3760823 z M 1.1296468 2.3760823 C 1.1710393 2.3760823 1.2070301 2.3859856 1.2371338 2.4060547 C 1.2672374 2.4248694 1.2820923 2.4603435 1.2820923 2.5130249 C 1.2820923 2.564452 1.2672374 2.6004428 1.2371338 2.6205119 C 1.2070301 2.640581 1.1710393 2.6504842 1.1296468 2.6504842 C 1.087 2.6504842 1.0507132 2.640581 1.0206095 2.6205119 C 0.9917602 2.6004428 0.97720133 2.564452 0.97720133 2.5130249 C 0.97720133 2.4603435 0.9917602 2.4248694 1.0206095 2.4060547 C 1.0507132 2.3859856 1.087 2.3760823 1.1296468 2.3760823 z M 2.7987956 2.3760823 L 3.0788818 2.3760823 L 3.0788818 3.0153198 C 3.0788818 3.0542037 3.0769604 3.0932247 3.0731974 3.1321085 C 3.0706888 3.1697381 3.0676586 3.2079463 3.0638956 3.2468302 L 3.067513 3.2468302 C 3.0863278 3.2204895 3.1058383 3.194106 3.1259074 3.1677653 C 3.1459765 3.1401703 3.1674084 3.1145994 3.1899861 3.0907674 L 3.4778239 2.7786417 L 3.7940836 2.7786417 L 3.3858398 3.2246093 L 3.8183716 3.8059692 L 3.4948771 3.8059692 L 3.1992879 3.3899739 L 3.0788818 3.4860921 L 3.0788818 3.8059692 L 2.7987956 3.8059692 L 2.7987956 2.3760823 z M 2.1456055 2.7595215 C 2.2559855 2.7595215 2.3447434 2.7897479 2.4112223 2.8499552 C 2.4777012 2.9089082 2.5109578 3.0045392 2.5109578 3.1362427 L 2.5109578 3.8059692 L 2.2303548 3.8059692 L 2.2303548 3.2054891 C 2.2303548 3.1314843 2.2174214 3.0764997 2.1910807 3.0401245 C 2.16474 3.0024949 2.1226889 2.9837972 2.0649902 2.9837972 C 1.9796965 2.9837972 1.9211651 3.0132109 1.8898071 3.0721639 C 1.8584491 3.1298625 1.8427816 3.2131521 1.8427816 3.3222778 L 1.8427816 3.8059692 L 1.5626953 3.8059692 L 1.5626953 2.7786417 L 1.7771525 2.7786417 L 1.8148763 2.9104166 L 1.8298625 2.9104166 C 1.8624747 2.8577353 1.9067433 2.819527 1.9631876 2.795695 C 2.0208863 2.7718629 2.0816352 2.7595215 2.1456055 2.7595215 z M 0.98857014 2.7786417 L 1.2691732 2.7786417 L 1.2691732 3.8059692 L 0.98857014 3.8059692 L 0.98857014 2.7786417 z " />
</svg>
