<?xml version="1.0" encoding="UTF-8" standalone="no"?>
<svg
   width="48"
   height="48"
   version="1.1"
   id="svg67"
   xmlns:xlink="http://www.w3.org/1999/xlink"
   xmlns="http://www.w3.org/2000/svg"
   xmlns:svg="http://www.w3.org/2000/svg"
   xmlns:rdf="http://www.w3.org/1999/02/22-rdf-syntax-ns#"
   xmlns:cc="http://creativecommons.org/ns#"
   xmlns:dc="http://purl.org/dc/elements/1.1/">
  <defs
     id="defs61">
    <style
       id="current-color-scheme"
       type="text/css">
   .ColorScheme-Text { color: #0abdc6; } .ColorScheme-Highlight { color: #1AD6AB; }
  </style>
      <linearGradient
       id="blueneonpunk"
       x1="0%"
       x2="0%"
       y1="0%"
       y2="100%">
      <stop
         style="stop-color:#00ffff;stop-opacity:1;"
         offset="0"
         id="stop3010" />
      <stop
         style="stop-color:#0000ff;stop-opacity:1"
         offset="1"
         id="stop3012" />
    </linearGradient>
    <linearGradient
       id="arrongin"
       x1="0"
       x2="0"
       y1="0"
       y2="1">
      <stop
         offset="0%"
         style="stop-color:#dd9b44"
         id="stop3" />
      <stop
         offset="100%"
         style="stop-color:#ad6c16"
         id="stop5" />
    </linearGradient>
    <linearGradient
       id="aurora"
       x1="0"
       x2="0"
       y1="0"
       y2="1">
      <stop
         offset="0%"
         style="stop-color:#09D4DF"
         id="stop8" />
      <stop
         offset="100%"
         style="stop-color:#9269F4"
         id="stop10" />
    </linearGradient>
    <linearGradient
       id="cyberneon"
       x1="0"
       x2="0"
       y1="0"
       y2="1">
      <stop
         offset="0"
         style="stop-color:#0abdc6"
         id="stop13" />
      <stop
         offset="1"
         style="stop-color:#ea00d9"
         id="stop15" />
    </linearGradient>
    <linearGradient
       id="fitdance"
       x1="0"
       x2="0"
       y1="0"
       y2="1">
      <stop
         offset="0%"
         style="stop-color:#1AD6AB"
         id="stop18" />
      <stop
         offset="100%"
         style="stop-color:#329DB6"
         id="stop20" />
    </linearGradient>
    <linearGradient
       id="oomox"
       x1="0"
       x2="0"
       y1="0"
       y2="1">
      <stop
         offset="0%"
         style="stop-color:#0abdc6"
         id="stop23" />
      <stop
         offset="100%"
         style="stop-color:#b800ff"
         id="stop25" />
    </linearGradient>
    <linearGradient
       id="rainblue"
       x1="0"
       x2="0"
       y1="0"
       y2="1">
      <stop
         offset="0%"
         style="stop-color:#00F260"
         id="stop28" />
      <stop
         offset="100%"
         style="stop-color:#0575E6"
         id="stop30" />
    </linearGradient>
    <linearGradient
       id="sunrise"
       x1="0"
       x2="0"
       y1="0"
       y2="1">
      <stop
         offset="0%"
         style="stop-color:#FF8501"
         id="stop33" />
      <stop
         offset="100%"
         style="stop-color:#FFCB01"
         id="stop35" />
    </linearGradient>
    <linearGradient
       id="telinkrin"
       x1="0"
       x2="0"
       y1="0"
       y2="1">
      <stop
         offset="0%"
         style="stop-color:#b2ced6"
         id="stop38" />
      <stop
         offset="100%"
         style="stop-color:#6da5b7"
         id="stop40" />
    </linearGradient>
    <linearGradient
       id="60spsycho"
       x1="0"
       x2="0"
       y1="0"
       y2="1">
      <stop
         offset="0%"
         style="stop-color:#df5940"
         id="stop43" />
      <stop
         offset="25%"
         style="stop-color:#d8d15f"
         id="stop45" />
      <stop
         offset="50%"
         style="stop-color:#e9882a"
         id="stop47" />
      <stop
         offset="100%"
         style="stop-color:#279362"
         id="stop49" />
    </linearGradient>
    <linearGradient
       id="90ssummer"
       x1="0"
       x2="0"
       y1="0"
       y2="1">
      <stop
         offset="0%"
         style="stop-color:#f618c7"
         id="stop52" />
      <stop
         offset="20%"
         style="stop-color:#94ffab"
         id="stop54" />
      <stop
         offset="50%"
         style="stop-color:#fbfd54"
         id="stop56" />
      <stop
         offset="100%"
         style="stop-color:#0f83ae"
         id="stop58" />
    </linearGradient>
    <linearGradient
       xlink:href="#oomox"
       id="linearGradient217"
       x1="2.8239434"
       y1="5.3553357"
       x2="2.8239434"
       y2="21.246885"
       gradientTransform="matrix(2.6279731,0,0,2.3285759,-6.9212496,-5.6850398)"
       gradientUnits="userSpaceOnUse" />
    <linearGradient
       xlink:href="#oomox"
       id="linearGradient219"
       x1="17.145779"
       y1="3.2660222"
       x2="17.145779"
       y2="13.063992"
       gradientTransform="matrix(2.0198099,0,0,3.0297085,-6.9212496,-5.6850398)"
       gradientUnits="userSpaceOnUse" />
  </defs>
  <path
     fill="url(#oomox)"
     class="ColorScheme-Text"
     d="m 25.767684,6.785266 c -0.164133,0.015486 -0.240622,0.00928 -0.425176,0.02899 -6.042516,0.6454312 -11.081324,4.38872 -16.8475865,12.50403 -1.741093,2.45038 -3.977861,5.594765 -4.9716564,6.991241 -4.18652003,5.882877 -4.00813377,11.922095 0.4300074,14.460803 2.8684053,1.640776 5.6378007,2.289148 10.0254485,2.352961 2.205385,0.03204 5.438577,0.192383 7.179671,0.352702 4.857718,0.44735 5.465996,0.435981 8.885205,-0.159433 3.826875,-0.666433 6.775302,-2.054328 9.146109,-4.300074 0.954842,-0.904472 2.108802,-2.628658 3.072859,-4.382207 -0.336215,-0.543255 -0.535584,-1.054065 -0.811697,-1.604071 -0.389865,0.327804 -0.741719,0.752411 -1.15957,1.00013 -0.447741,0.265423 -0.893011,0.496981 -1.531599,0.637762 -0.638589,0.140781 -1.894947,0.231963 -2.865104,-0.831027 -0.860306,-0.94257 -0.674206,-1.411273 -0.68608,-1.724858 -0.01187,-0.313588 0.01707,-0.528932 0.04831,-0.739226 0.06261,-0.420574 0.16114,-0.80471 0.304387,-1.21755 -0.101943,0.293798 0.08812,-0.442603 0.169106,-1.164401 0.08099,-0.721798 0.153446,-1.623187 0.188425,-2.478579 l 0.01929,-0.46866 c -0.671541,0.06427 -1.128403,0.119359 -1.889133,0.183602 -1.265283,0.106841 -1.908762,0.233448 -2.971398,0.03867 -0.531319,-0.09742 -1.418732,-0.435776 -1.956775,-1.207887 -0.538011,-0.772112 -0.526637,-1.458575 -0.526637,-1.806995 0,-1.809916 0.690617,-2.751965 1.434968,-3.981193 0.507148,-0.837471 1.201347,-1.546871 1.865011,-2.275677 -0.599295,-0.34604 -1.246638,-0.718952 -1.937447,-1.087098 C 28.488949,15.125061 27.758258,14.830675 26.88377,14.037409 26.665148,13.839093 26.407846,13.583548 26.173532,13.133912 25.939239,12.684275 25.787227,11.964761 25.907797,11.34141 26.148951,10.094707 26.79596,9.7547744 27.077032,9.5295816 27.354881,9.3069721 27.606936,9.3064081 27.864572,9.1527214 27.337154,8.6584349 26.540236,8.1845665 26.236343,7.7225852 26.015064,7.3861919 25.898169,7.0842488 25.767684,6.785266 Z m -2.531729,7.343943 c 0.264832,-0.0351 0.524803,-0.03486 0.763384,0.0048 0.31811,0.05291 0.602437,0.177261 0.81653,0.391354 0.856373,0.856375 0.294438,2.807413 -0.657089,3.758941 -0.951525,0.951535 -2.419414,1.030317 -3.275786,0.173954 -0.856375,-0.856388 -0.777598,-2.324272 0.173929,-3.275797 0.535236,-0.535234 1.384533,-0.947985 2.179027,-1.053276 z m -9.894998,4.947498 c 0.264832,-0.0351 0.524803,-0.03486 0.763384,0.0047 0.318109,0.05291 0.602437,0.177269 0.816531,0.391355 0.856374,0.856375 0.294439,2.807413 -0.65709,3.758941 -0.951527,0.951528 -2.419412,1.030304 -3.275785,0.173929 -0.856375,-0.85636 -0.777593,-2.324245 0.173934,-3.275771 0.535235,-0.535235 1.384532,-0.947985 2.179025,-1.053277 z m 7.421249,4.947501 c 0.26483,-0.0351 0.524801,-0.03486 0.763384,0.0049 0.318107,0.05291 0.602435,0.177269 0.81653,0.391354 0.856375,0.856378 0.294441,2.807414 -0.657089,3.758938 -0.951526,0.951525 -2.419414,1.030302 -3.275786,0.173929 -0.856375,-0.856374 -0.777591,-2.324257 0.173929,-3.275785 0.535235,-0.535235 1.38453,-0.947985 2.179024,-1.053275 z m 9.894997,2.473749 c 0.264832,-0.0351 0.524803,-0.03486 0.763384,0.0049 0.318109,0.05291 0.602437,0.177269 0.81653,0.391355 0.856375,0.856374 0.294438,2.80741 -0.65709,3.758937 -0.951527,0.951526 -2.419413,1.030302 -3.275785,0.17393 -0.856375,-0.856375 -0.777601,-2.324256 0.173929,-3.275785 0.535238,-0.535233 1.384533,-0.947986 2.179024,-1.053276 z M 8.3934589,28.971706 c 0.2648315,-0.0351 0.524802,-0.03486 0.7633837,0.0049 0.3181091,0.05291 0.6024369,0.177269 0.8165305,0.391355 0.8563749,0.856375 0.2944379,2.807411 -0.6570897,3.758939 -0.9515261,0.951525 -2.4194111,1.030301 -3.275785,0.173929 -0.8563751,-0.856328 -0.7775911,-2.324211 0.1739343,-3.275739 0.5352352,-0.535235 1.3845315,-0.947985 2.179025,-1.053275 z m 9.8949981,4.947498 c 0.264829,-0.0351 0.524801,-0.03486 0.763381,0.0049 0.31811,0.05291 0.602437,0.177269 0.816533,0.391354 0.856372,0.856378 0.29444,2.807411 -0.65709,3.758939 -0.951525,0.951525 -2.419413,1.030302 -3.275786,0.173929 -0.856374,-0.856377 -0.777593,-2.324263 0.173935,-3.275785 0.535234,-0.535236 1.384531,-0.947986 2.179024,-1.053276 z m 7.421247,2.47375 c 0.264832,-0.0351 0.524804,-0.03486 0.763384,0.0049 0.31811,0.05291 0.602438,0.177269 0.816531,0.391355 0.856375,0.856372 0.294438,2.807408 -0.65709,3.758938 -0.95153,0.951528 -2.419411,1.030302 -3.275786,0.17393 -0.856372,-0.856378 -0.777601,-2.324258 0.17393,-3.275786 0.535237,-0.535233 1.384532,-0.947985 2.179024,-1.053276 z"
     id="path63"
     style="fill:url(#linearGradient217);stroke-width:2.47375" />
  <path
     fill="url(#oomox)"
     class="ColorScheme-Text"
     d="m 27.928712,4.2100577 c -0.219644,0 -0.283264,0.4475339 -0.147881,1.0385296 0,0 0.389165,1.8857462 3.000331,3.2669896 1.816126,0.8978485 1.812855,1.4167281 -0.01187,1.9551191 -0.795233,0.234625 -1.761685,0.679609 -2.14736,0.988606 -0.636083,0.509626 -0.403929,0.719791 2.497663,2.266106 1.759316,0.937575 3.524766,1.978149 3.922765,2.312755 0.690997,0.580933 0.659489,0.66231 -0.68865,1.788986 -1.505021,1.257788 -3.285653,4.198401 -3.285653,5.425885 0,0.663613 0.293775,0.717519 2.772526,0.508222 1.524891,-0.128759 3.202746,-0.290819 3.728571,-0.360091 l 0.956042,-0.126038 -0.136674,3.338189 c -0.07508,1.835843 -0.294748,3.794683 -0.488479,4.352981 -0.19372,0.558301 -0.274455,1.100351 -0.179248,1.204664 0.400789,0.43914 2.0357,-0.530104 3.157187,-1.871646 1.146528,-1.371501 1.219415,-1.399719 1.463193,-0.558139 0.820965,1.508685 1.184354,2.830253 2.458219,4.152371 0.284463,0.02798 0.501515,-0.335866 0.684026,-1.085882 0.561885,-2.309032 0.260904,-4.544087 -0.922431,-6.852332 -0.637656,-1.243816 -1.262243,-3.203973 -1.388504,-4.356257 -0.12626,-1.152285 -0.33422,-2.492691 -0.461596,-2.97892 -0.193546,-0.738854 0.181796,-1.1701 2.284799,-2.625376 2.394567,-1.657025 3.012626,-2.599727 2.107031,-3.212976 -0.225012,-0.152366 -1.410183,0.308072 -2.634348,1.022982 -1.224162,0.714907 -2.466479,1.299592 -2.760575,1.299592 -0.294094,0 -1.216991,-0.894992 -2.050266,-1.988673 -1.44818,-1.900749 -1.514733,-2.118043 -1.514733,-4.9233981 0,-2.665611 -0.07387,-2.946247 -0.805913,-3.0607561 -0.591681,-0.092553 -0.934392,0.2138234 -1.289165,1.1522847 -0.265799,0.7030985 -0.617398,1.2783149 -0.781267,1.2783149 -0.163861,0 -1.795066,-0.7542219 -3.624752,-1.6760497 C 29.811972,4.9642778 28.140969,4.2100552 27.928779,4.2100552 Z"
     id="path65"
     style="fill:url(#linearGradient219);stroke-width:2.47375" />
  <metadata
     id="metadata325">
    <rdf:RDF>
      <cc:License
         rdf:about="http://creativecommons.org/licenses/by-sa/4.0/">
        <cc:permits
           rdf:resource="http://creativecommons.org/ns#Reproduction" />
        <cc:permits
           rdf:resource="http://creativecommons.org/ns#Distribution" />
        <cc:requires
           rdf:resource="http://creativecommons.org/ns#Notice" />
        <cc:requires
           rdf:resource="http://creativecommons.org/ns#Attribution" />
        <cc:permits
           rdf:resource="http://creativecommons.org/ns#DerivativeWorks" />
        <cc:requires
           rdf:resource="http://creativecommons.org/ns#ShareAlike" />
      </cc:License>
      <cc:Work
         rdf:about="">
        <cc:license
           rdf:resource="http://creativecommons.org/licenses/by-sa/4.0/" />
        <dc:contributor>
          <cc:Agent>
            <dc:title>dreifacherspass</dc:title>
          </cc:Agent>
        </dc:contributor>
      </cc:Work>
    </rdf:RDF>
  </metadata>
</svg>
