<?xml version="1.0" encoding="UTF-8" standalone="no"?>
<!-- Created with Inkscape (http://www.inkscape.org/) -->

<svg
   width="16"
   height="16"
   viewBox="0 0 16 16.000001"
   id="svg2"
   version="1.1"
   xml:space="preserve"
   xmlns="http://www.w3.org/2000/svg"
   xmlns:svg="http://www.w3.org/2000/svg"
   xmlns:rdf="http://www.w3.org/1999/02/22-rdf-syntax-ns#"
   xmlns:cc="http://creativecommons.org/ns#"
   xmlns:dc="http://purl.org/dc/elements/1.1/">
  <defs
   id="defs4">
    <style
   id="current-color-scheme"
   type="text/css">
      .ColorScheme-Text { color: #0abdc6; } .ColorScheme-Highlight { color:#5294e2; }
     </style>
    <linearGradient
   id="arrongin"
   x1="0"
   x2="0"
   y1="0"
   y2="1">
      <stop
   offset="0%"
   style="stop-color:#dd9b44; stop-opacity:1"
   id="stop9192" />
      <stop
   offset="100%"
   style="stop-color:#ad6c16; stop-opacity:1"
   id="stop9194" />
    </linearGradient>
    <linearGradient
   id="aurora"
   x1="0"
   x2="0"
   y1="0"
   y2="1">
      <stop
   offset="0%"
   style="stop-color:#09D4DF; stop-opacity:1"
   id="stop9197" />
      <stop
   offset="100%"
   style="stop-color:#9269F4; stop-opacity:1"
   id="stop9199" />
    </linearGradient>
    <linearGradient
   id="cyberneon"
   x1="0"
   x2="0"
   y1="0"
   y2="1">
      <stop
   offset="0"
   style="stop-color:#0abdc6; stop-opacity:1"
   id="stop9202" />
      <stop
   offset="1"
   style="stop-color:#ea00d9; stop-opacity:1"
   id="stop9204" />
    </linearGradient>
    <linearGradient
   id="fitdance"
   x1="0"
   x2="0"
   y1="0"
   y2="1">
      <stop
   offset="0%"
   style="stop-color:#1AD6AB; stop-opacity:1"
   id="stop9207" />
      <stop
   offset="100%"
   style="stop-color:#329DB6; stop-opacity:1"
   id="stop9209" />
    </linearGradient>
    <linearGradient
   id="oomox"
   x1="3.6748421"
   x2="3.6748421"
   y1="990.62213"
   y2="1034.5865"
   gradientTransform="matrix(0.31843873,0,0,0.36393002,-0.170207,-360.51706)"
   gradientUnits="userSpaceOnUse">
      <stop
   offset="0%"
   style="stop-color:#0abdc6; stop-opacity:1"
   id="stop9212" />
      <stop
   offset="100%"
   style="stop-color:#b800ff; stop-opacity:1"
   id="stop9214" />
    </linearGradient>
    <linearGradient
   id="rainblue"
   x1="0"
   x2="0"
   y1="0"
   y2="1">
      <stop
   offset="0%"
   style="stop-color:#00F260; stop-opacity:1"
   id="stop9217" />
      <stop
   offset="100%"
   style="stop-color:#0575E6; stop-opacity:1"
   id="stop9219" />
    </linearGradient>
    <linearGradient
   id="sunrise"
   x1="0"
   x2="0"
   y1="0"
   y2="1">
      <stop
   offset="0%"
   style="stop-color: #FF8501; stop-opacity:1"
   id="stop9222" />
      <stop
   offset="100%"
   style="stop-color: #FFCB01; stop-opacity:1"
   id="stop9224" />
    </linearGradient>
    <linearGradient
   id="telinkrin"
   x1="0"
   x2="0"
   y1="0"
   y2="1">
      <stop
   offset="0%"
   style="stop-color: #b2ced6; stop-opacity:1"
   id="stop9227" />
      <stop
   offset="100%"
   style="stop-color: #6da5b7; stop-opacity:1"
   id="stop9229" />
    </linearGradient>
    <linearGradient
   id="60spsycho"
   x1="0"
   x2="0"
   y1="0"
   y2="1">
      <stop
   offset="0%"
   style="stop-color: #df5940; stop-opacity:1"
   id="stop9232" />
      <stop
   offset="25%"
   style="stop-color: #d8d15f; stop-opacity:1"
   id="stop9234" />
      <stop
   offset="50%"
   style="stop-color: #e9882a; stop-opacity:1"
   id="stop9236" />
      <stop
   offset="100%"
   style="stop-color: #279362; stop-opacity:1"
   id="stop9238" />
    </linearGradient>
    <linearGradient
   id="90ssummer"
   x1="0"
   x2="0"
   y1="0"
   y2="1">
      <stop
   offset="0%"
   style="stop-color: #f618c7; stop-opacity:1"
   id="stop9241" />
      <stop
   offset="20%"
   style="stop-color: #94ffab; stop-opacity:1"
   id="stop9243" />
      <stop
   offset="50%"
   style="stop-color: #fbfd54; stop-opacity:1"
   id="stop9245" />
      <stop
   offset="100%"
   style="stop-color: #0f83ae; stop-opacity:1"
   id="stop9247" />
    </linearGradient>
    </defs>
    <metadata
   id="metadata7"><rdf:RDF><cc:Work
       rdf:about=""><dc:format>image/svg+xml</dc:format><dc:type
         rdf:resource="http://purl.org/dc/dcmitype/StillImage" /><dc:creator><cc:Agent><dc:title>dreifacherspass</dc:title></cc:Agent></dc:creator><cc:license
         rdf:resource="http://creativecommons.org/licenses/by-sa/4.0/" /></cc:Work><cc:License
       rdf:about="http://creativecommons.org/licenses/by-sa/4.0/"><cc:permits
         rdf:resource="http://creativecommons.org/ns#Reproduction" /><cc:permits
         rdf:resource="http://creativecommons.org/ns#Distribution" /><cc:requires
         rdf:resource="http://creativecommons.org/ns#Notice" /><cc:requires
         rdf:resource="http://creativecommons.org/ns#Attribution" /><cc:permits
         rdf:resource="http://creativecommons.org/ns#DerivativeWorks" /><cc:requires
         rdf:resource="http://creativecommons.org/ns#ShareAlike" /></cc:License></rdf:RDF></metadata>
    <path
   id="path999"
   class="ColorScheme-Text"
   style="display:inline;opacity:1;fill:url(#oomox);stroke-width:2.52266;stroke-linecap:square;stroke-linejoin:round;stroke-opacity:0.0454546"
   d="M 5.5000016,0 C 5.223023,0 5.0000018,0.22301255 5.0000018,0.50001662 V 1.5000159 c 0,0.2769365 0.2230198,0.499983 0.4999998,0.499983 h 4.9999964 c 0.276979,0 0.5,-0.2230465 0.5,-0.499983 V 0.50001662 C 10.999997,0.22301255 10.776977,0 10.499998,0 Z M 3.5000031,3.5000145 c -0.2769785,0 -0.4999998,0.2230128 -0.4999998,0.499983 v 0.9999996 c 0,0.2770038 0.2230213,0.5000167 0.4999998,0.5000167 h 8.9999929 c 0.276979,0 0.5,-0.2230129 0.5,-0.5000167 V 3.9999975 c 0,-0.2769702 -0.22302,-0.499983 -0.5,-0.499983 z M 1.5000047,6.9999948 c -0.2769793,0 -0.4999997,0.2230125 -0.4999997,0.5000166 V 8.500011 c 0,0.2769366 0.2230204,0.4999831 0.4999997,0.4999831 H 14.499995 c 0.276979,-9e-7 0.5,-0.2230475 0.5,-0.4999835 V 7.5000114 c 0,-0.2770041 -0.223021,-0.5000166 -0.5,-0.5000166 z m 1.9999984,3.5000142 c -0.2769799,0 -0.4999998,0.223013 -0.4999998,0.499983 v 1 c 0,0.27697 0.2230199,0.500017 0.4999998,0.500017 h 8.9999929 c 0.276979,0 0.5,-0.223047 0.5,-0.500017 v -1 c 0,-0.27697 -0.22302,-0.499983 -0.5,-0.499983 z m 1.9999985,3.499981 c -0.2769786,0 -0.4999998,0.223047 -0.4999998,0.500023 v 1.000005 C 5.0000018,15.776994 5.2230216,16 5.5000016,16 h 4.9999964 c 0.276979,0 0.5,-0.223006 0.5,-0.499982 v -1.000019 c -10e-7,-0.276963 -0.223021,-0.500009 -0.5,-0.500009 z" />
    </svg>
