<?xml version="1.0" encoding="UTF-8" standalone="no"?>
<svg
   height="48"
   width="48"
   version="1.1"
   id="svg731"
   xmlns="http://www.w3.org/2000/svg"
   xmlns:svg="http://www.w3.org/2000/svg"
   xmlns:rdf="http://www.w3.org/1999/02/22-rdf-syntax-ns#"
   xmlns:cc="http://creativecommons.org/ns#"
   xmlns:dc="http://purl.org/dc/elements/1.1/">
  <defs
     id="defs735">
    <style
       id="current-color-scheme"
       type="text/css">
      .ColorScheme-Text { color: #0abdc6; } .ColorScheme-Highlight { color:#5294e2; }
     </style>
    <linearGradient
       id="arrongin"
       x1="0%"
       x2="0%"
       y1="0%"
       y2="100%">
      <stop
         offset="0%"
         style="stop-color:#dd9b44; stop-opacity:1"
         id="stop9192" />
      <stop
         offset="100%"
         style="stop-color:#ad6c16; stop-opacity:1"
         id="stop9194" />
    </linearGradient>
    <linearGradient
       id="aurora"
       x1="0%"
       x2="0%"
       y1="0%"
       y2="100%">
      <stop
         offset="0%"
         style="stop-color:#09D4DF; stop-opacity:1"
         id="stop9197" />
      <stop
         offset="100%"
         style="stop-color:#9269F4; stop-opacity:1"
         id="stop9199" />
    </linearGradient>
    <linearGradient
       id="cyberneon"
       x1="0%"
       x2="0%"
       y1="0%"
       y2="100%">
      <stop
         offset="0"
         style="stop-color:#0abdc6; stop-opacity:1"
         id="stop9202" />
      <stop
         offset="1"
         style="stop-color:#ea00d9; stop-opacity:1"
         id="stop9204" />
    </linearGradient>
    <linearGradient
       id="fitdance"
       x1="0%"
       x2="0%"
       y1="0%"
       y2="100%">
      <stop
         offset="0%"
         style="stop-color:#1AD6AB; stop-opacity:1"
         id="stop9207" />
      <stop
         offset="100%"
         style="stop-color:#329DB6; stop-opacity:1"
         id="stop9209" />
    </linearGradient>
    <linearGradient
       id="oomox"
       x1="0%"
       x2="0%"
       y1="0%"
       y2="100%">
      <stop
         offset="0%"
         style="stop-color:#0abdc6; stop-opacity:1"
         id="stop9212" />
      <stop
         offset="100%"
         style="stop-color:#b800ff; stop-opacity:1"
         id="stop9214" />
    </linearGradient>
    <linearGradient
       id="rainblue"
       x1="0%"
       x2="0%"
       y1="0%"
       y2="100%">
      <stop
         offset="0%"
         style="stop-color:#00F260; stop-opacity:1"
         id="stop9217" />
      <stop
         offset="100%"
         style="stop-color:#0575E6; stop-opacity:1"
         id="stop9219" />
    </linearGradient>
    <linearGradient
       id="sunrise"
       x1="0%"
       x2="0%"
       y1="0%"
       y2="100%">
      <stop
         offset="0%"
         style="stop-color: #FF8501; stop-opacity:1"
         id="stop9222" />
      <stop
         offset="100%"
         style="stop-color: #FFCB01; stop-opacity:1"
         id="stop9224" />
    </linearGradient>
    <linearGradient
       id="telinkrin"
       x1="0%"
       x2="0%"
       y1="0%"
       y2="100%">
      <stop
         offset="0%"
         style="stop-color: #b2ced6; stop-opacity:1"
         id="stop9227" />
      <stop
         offset="100%"
         style="stop-color: #6da5b7; stop-opacity:1"
         id="stop9229" />
    </linearGradient>
    <linearGradient
       id="60spsycho"
       x1="0%"
       x2="0%"
       y1="0%"
       y2="100%">
      <stop
         offset="0%"
         style="stop-color: #df5940; stop-opacity:1"
         id="stop9232" />
      <stop
         offset="25%"
         style="stop-color: #d8d15f; stop-opacity:1"
         id="stop9234" />
      <stop
         offset="50%"
         style="stop-color: #e9882a; stop-opacity:1"
         id="stop9236" />
      <stop
         offset="100%"
         style="stop-color: #279362; stop-opacity:1"
         id="stop9238" />
    </linearGradient>
    <linearGradient
       id="90ssummer"
       x1="0%"
       x2="0%"
       y1="0%"
       y2="100%">
      <stop
         offset="0%"
         style="stop-color: #f618c7; stop-opacity:1"
         id="stop9241" />
      <stop
         offset="20%"
         style="stop-color: #94ffab; stop-opacity:1"
         id="stop9243" />
      <stop
         offset="50%"
         style="stop-color: #fbfd54; stop-opacity:1"
         id="stop9245" />
      <stop
         offset="100%"
         style="stop-color: #0f83ae; stop-opacity:1"
         id="stop9247" />
    </linearGradient>
  </defs>
  <path
     d="M 8.8229167,0.5 23.24814,23.24814 0.5,8.6130952 V 18.964286 L 23.003348,24 0.5,28.895833 v 10.28125 L 23.24814,24.75186 8.6130952,47.5 H 18.964286 L 24,24.996652 28.895833,47.5 h 10.28125 L 24.75186,24.75186 47.5,39.386905 V 29.035714 L 24.996652,24 47.5,19.104167 V 8.8229167 L 24.75186,23.24814 39.386905,0.5 H 29.035714 L 24,23.003348 19.104167,0.5 Z"
     id="path700"
     class="ColorScheme-Text"
     style="display:inline;fill:url(#oomox);fill-opacity:1;stroke-width:0.559524;opacity:1"
     transform="translate(-1.980929e-6)" />
  <g
     id="g3"
     transform="matrix(0.45642582,0,0,0.44659247,-57.956519,5.7329229)">
    <path
       id="path699"
       class="ColorScheme-Text"
       style="display:inline;opacity:1;fill:url(#oomox);stroke-width:0.451482"
       d="m 39.786067,29.30815 h 0.227081 c 1.032321,0 1.863395,1.203505 1.863395,2.698441 v 5.126071 c 0,1.494936 -0.831074,2.698441 -1.863395,2.698441 h -0.227081 c -1.032321,0 -1.8634,-1.203505 -1.8634,-2.698441 v -5.126071 c 0,-1.494936 0.831079,-2.698441 1.8634,-2.698441 z M 8.1039939,29.162 h 0.2450687 c 1.1140898,0 2.0109934,1.203505 2.0109934,2.698441 v 5.126071 c 0,1.494937 -0.8969036,2.698441 -2.0109934,2.698441 H 8.1039939 C 6.9899041,39.684953 6.093,38.481449 6.093,36.986512 V 31.860441 C 6.093,30.365505 6.9899041,29.162 8.1039939,29.162 Z m 1.7671347,3.965374 H 37.357749 c 0.818983,0 1.478313,0.645122 1.478313,1.446462 v 0.176271 c 0,0.80134 -0.65933,1.446461 -1.478313,1.446461 H 9.8711286 c -0.8189831,0 -1.4783084,-0.645121 -1.4783084,-1.446461 v -0.176271 c 0,-0.80134 0.6593253,-1.446462 1.4783084,-1.446462 z"
       transform="matrix(2.1909365,0,0,2.2391779,126.97905,-12.837034)" />
    <path
       id="path698"
       class="ColorScheme-Text"
       style="display:inline;fill:url(#oomox);fill-opacity:1"
       d="m 155.72616,52.721121 c 1.84634,-1.445995 3.81062,-11.708888 8.61624,-15.182944 3.99405,-2.887353 27.01519,-3.078086 29.84912,-0.240999 3.10977,3.113222 8.61625,16.14694 8.61625,16.14694 z m 4.44275,-2.222357 h 38.1961 c 2.97272,0 5.36592,2.414626 5.36592,5.41396 v 13.389363 c 0,2.999334 -2.3932,5.41396 -5.36592,5.41396 h -38.1961 c -2.97272,0 -5.36592,-2.414626 -5.36592,-5.41396 V 55.912724 c 0,-2.999334 2.3932,-5.41396 5.36592,-5.41396 z" />
    <g
       id="g1034"
       transform="matrix(2.1909365,0,0,2.2391779,126.97905,-12.837034)">
      <rect
         style="opacity:0.4;fill:#ffffff;fill-opacity:1;stroke:none;stroke-width:0.392;stroke-linejoin:round;paint-order:markers fill stroke;stop-color:#000000"
         id="rect1127"
         width="16.825853"
         height="1.1311498"
         x="15.587073"
         y="30.682438" />
      <rect
         style="opacity:0.4;fill:#ffffff;fill-opacity:1;stroke:none;stroke-width:0.392;stroke-linejoin:round;paint-order:markers fill stroke;stop-color:#000000"
         id="rect1127-3"
         width="16.825853"
         height="1.1311498"
         x="15.587073"
         y="33.227524" />
      <rect
         style="opacity:0.4;fill:#ffffff;fill-opacity:1;stroke:none;stroke-width:0.392;stroke-linejoin:round;paint-order:markers fill stroke;stop-color:#000000"
         id="rect1127-5"
         width="16.825853"
         height="1.1311498"
         x="15.587073"
         y="35.631222" />
    </g>
  </g>
  <g
     id="g2"
     transform="matrix(0.45642582,0,0,0.44659247,-57.956519,5.7329229)">
    <path
       d="m 162.84839,28.538394 c 0,0 -15.66435,10.032551 -12.38482,16.650099 2.30244,4.645967 6.58259,13.383386 6.33032,12.195621 -0.25227,-1.187765 3.27952,-15.949987 6.55904,-18.495197 3.27952,-2.545211 -0.50454,-10.350523 -0.50454,-10.350523 z"
       id="path696"
       class="ColorScheme-Text"
       style="display:inline;fill:url(#oomox);fill-opacity:1;stroke-width:0.856302" />
    <path
       d="m 194.33224,26.162865 c 0,0 17.58595,11.768088 13.9571,18.618172 -2.54769,4.809224 -7.53683,12.470662 -7.25769,11.241162 0.27914,-1.229503 -3.62885,-16.510457 -7.25769,-19.145103 -3.62885,-2.634648 0.55828,-10.714231 0.55828,-10.714231 z"
       id="path695"
       class="ColorScheme-Text"
       style="display:inline;fill:url(#oomox);fill-opacity:1;stroke-width:0.856302" />
    <path
       d="m 162.8477,28.538495 c 0,0 -15.66321,10.032299 -12.38392,16.64968 2.30226,4.64585 6.5821,13.38305 6.32986,12.195315 -0.25225,-1.187735 3.27929,-15.949585 6.55857,-18.494732 3.27927,-2.545147 -0.50451,-10.350263 -0.50451,-10.350263 z"
       id="path696-6"
       class="ColorScheme-Text"
       style="display:inline;fill:#ffffff;fill-opacity:1;stroke-width:0.85626;opacity:0.2" />
    <path
       d="m 194.33121,26.162728 c 0,0 17.58659,11.768293 13.95761,18.618496 -2.54778,4.809308 -7.5371,12.470879 -7.25794,11.241358 0.27913,-1.229525 -3.629,-16.510746 -7.25796,-19.145438 -3.62898,-2.634694 0.55829,-10.714416 0.55829,-10.714416 z"
       id="path695-7"
       class="ColorScheme-Text"
       style="display:inline;fill:#ffffff;fill-opacity:1;stroke-width:0.856325;opacity:0.2" />
    <path
       d="m 162.80982,39.225251 c 0,0 -2.85574,-35.2638052 16.79413,-35.1462962 18.08302,0.108139 15.72655,34.3231712 15.72655,34.3231712 5.15926,14.461957 -38.62464,14.369283 -32.52068,0.823125 z"
       id="path697"
       class="ColorScheme-Text"
       style="display:inline;fill:url(#oomox);fill-opacity:1" />
    <path
       d="m 162.80977,39.224689 c 0,0 -2.85581,-35.2641892 16.79445,-35.1466803 18.08339,0.108131 15.72686,34.3235473 15.72686,34.3235473 5.15936,14.462115 -38.6254,14.369439 -32.52131,0.823133 z"
       id="path697-3"
       class="ColorScheme-Text"
       style="display:inline;opacity:0.4;fill:#ffffff;fill-opacity:1;stroke-width:1.00001" />
    <path
       d="m 165.89449,47.283095 c 0,0 1.93772,-7.085719 12.90316,-7.213816 11.28546,-0.131835 13.26128,6.27067 13.26128,6.27067 0,0 -4.75855,3.354069 -13.16671,3.291572 -8.40815,-0.0625 -12.99773,-2.348426 -12.99773,-2.348426 z"
       id="path694"
       class="ColorScheme-Text"
       style="display:inline;fill:url(#oomox);fill-opacity:1" />
    <path
       d="m 165.89447,47.284413 c 0,0 1.93771,-7.086203 12.90303,-7.214308 11.28533,-0.131852 13.26113,6.271099 13.26113,6.271099 0,0 -4.7585,3.354297 -13.16657,3.291797 -8.40807,-0.0625 -12.99759,-2.348588 -12.99759,-2.348588 z"
       id="path694-1"
       style="display:inline;fill:#000000;fill-opacity:1;stroke-width:1.00003;opacity:0.2" />
  </g>
  <g
     transform="matrix(0.45642582,0,0,0.44659247,-57.956519,5.7329229)"
     id="g1"
     style="display:inline">
    <path
       d="m 190.05733,21.089695 a 4.7083583,6.3974645 3.9540091 1 1 -8.83259,-3.979701 4.7083583,6.3974645 3.9540091 1 1 8.83259,3.979701 z"
       id="path701"
       style="fill-opacity:1;fill:#ffffff;opacity:0.6" />
    <path
       d="m 176.67923,20.626878 a 4.7083583,6.3974645 3.9540091 1 1 -8.83259,-3.979701 4.7083583,6.3974645 3.9540091 1 1 8.83259,3.979701 z"
       id="path691"
       style="fill-opacity:1;fill:#ffffff;stroke:none;opacity:0.6" />
    <path
       d="m 187.33855,22.239431 a 2.0773201,3.7096179 1.2727946 0 1 -3.90292,-2.36262 2.0773201,3.7096179 1.2727946 0 1 3.90292,2.36262 z"
       id="path690"
       class="ColorScheme-Text"
       style="stroke:none;fill-opacity:1.0;fill:url(#oomox)" />
    <path
       d="m 174.75195,21.633764 a 2.1914791,3.5959285 1.5128336 1 1 -4.11761,-2.290097 2.1914791,3.5959285 1.5128336 1 1 4.11761,2.290097 z"
       id="path599"
       class="ColorScheme-Text"
       style="display:inline;stroke:none;fill-opacity:1.0;fill:url(#oomox)" />
    <path
       d="m 168.54695,25.954228 c 0,0 5.13071,-0.32726 10.90276,0 6.18362,0.350596 11.31734,-0.542222 11.31734,-0.542222 0,0 -6.7538,9.560392 -12.37327,9.298851 -4.59141,-0.213692 -9.84683,-8.756629 -9.84683,-8.756629 z"
       id="path693"
       class="ColorScheme-Text"
       style="display:inline;fill:url(#oomox);fill-opacity:1" />
    <path
       d="m 168.54769,25.954805 c 0,0 5.13078,-0.327249 10.90295,0 6.18372,0.350582 11.31753,-0.542202 11.31753,-0.542202 0,0 -6.75392,9.560048 -12.37349,9.298514 -4.59148,-0.213677 -9.84699,-8.756312 -9.84699,-8.756312 z"
       id="path693-1"
       style="display:inline;opacity:0.4;fill:#000000;fill-opacity:1;stroke-width:0.99999" />
    <path
       d="m 168.22628,25.954228 c 0,0 5.77205,-2.945345 11.5441,-2.618084 6.18361,0.350595 11.18452,1.980009 11.18452,1.980009 0,0 -5.03008,6.668938 -12.4672,6.776621 -4.8202,0.06979 -10.26142,-6.138546 -10.26142,-6.138546 z"
       id="path693-2"
       class="ColorScheme-Text"
       style="display:inline;fill:url(#oomox)" />
  </g>
  <metadata
     id="metadata1725">
    <rdf:RDF>
      <cc:Work
         rdf:about="">
        <dc:creator>
          <cc:Agent>
            <dc:title>dreifacherspass</dc:title>
          </cc:Agent>
        </dc:creator>
        <cc:license
           rdf:resource="http://creativecommons.org/licenses/by-sa/4.0/" />
      </cc:Work>
      <cc:License
         rdf:about="http://creativecommons.org/licenses/by-sa/4.0/">
        <cc:permits
           rdf:resource="http://creativecommons.org/ns#Reproduction" />
        <cc:permits
           rdf:resource="http://creativecommons.org/ns#Distribution" />
        <cc:requires
           rdf:resource="http://creativecommons.org/ns#Notice" />
        <cc:requires
           rdf:resource="http://creativecommons.org/ns#Attribution" />
        <cc:permits
           rdf:resource="http://creativecommons.org/ns#DerivativeWorks" />
        <cc:requires
           rdf:resource="http://creativecommons.org/ns#ShareAlike" />
      </cc:License>
    </rdf:RDF>
  </metadata>
</svg>
