<?xml version="1.0" encoding="UTF-8" standalone="no"?>
<svg
   height="16"
   width="16"
   version="1.1"
   id="svg731"
   xmlns="http://www.w3.org/2000/svg"
   xmlns:svg="http://www.w3.org/2000/svg"
   xmlns:rdf="http://www.w3.org/1999/02/22-rdf-syntax-ns#"
   xmlns:cc="http://creativecommons.org/ns#"
   xmlns:dc="http://purl.org/dc/elements/1.1/">
  <defs>
   <style id="current-color-scheme" type="text/css">
   .ColorScheme-Text { color: #0abdc6; } .ColorScheme-Highlight { color:#5294e2; }
  </style>
  <linearGradient id="arrongin" x1="0%" x2="0%" y1="0%" y2="100%">
   <stop offset="0%" style="stop-color:#dd9b44; stop-opacity:1"/>
   <stop offset="100%" style="stop-color:#ad6c16; stop-opacity:1"/>
  </linearGradient>
  <linearGradient id="aurora" x1="0%" x2="0%" y1="0%" y2="100%">
   <stop offset="0%" style="stop-color:#09D4DF; stop-opacity:1"/>
   <stop offset="100%" style="stop-color:#9269F4; stop-opacity:1"/>
  </linearGradient>
  <linearGradient id="cyberneon" x1="0%" x2="0%" y1="0%" y2="100%">
    <stop offset="0" style="stop-color:#0abdc6; stop-opacity:1"/>
    <stop offset="1" style="stop-color:#ea00d9; stop-opacity:1"/>
  </linearGradient>
  <linearGradient id="fitdance" x1="0%" x2="0%" y1="0%" y2="100%">
   <stop offset="0%" style="stop-color:#1AD6AB; stop-opacity:1"/>
   <stop offset="100%" style="stop-color:#329DB6; stop-opacity:1"/>
  </linearGradient>
  <linearGradient id="oomox" x1="0%" x2="0%" y1="0%" y2="100%">
   <stop offset="0%" style="stop-color:#0abdc6; stop-opacity:1"/>
   <stop offset="100%" style="stop-color:#b800ff; stop-opacity:1"/>
  </linearGradient>
  <linearGradient id="rainblue" x1="0%" x2="0%" y1="0%" y2="100%">
   <stop offset="0%" style="stop-color:#00F260; stop-opacity:1"/>
   <stop offset="100%" style="stop-color:#0575E6; stop-opacity:1"/>
  </linearGradient>
  <linearGradient id="sunrise" x1="0%" x2="0%" y1="0%" y2="100%">
   <stop offset="0%" style="stop-color: #FF8501; stop-opacity:1"/>
   <stop offset="100%" style="stop-color: #FFCB01; stop-opacity:1"/>
  </linearGradient>
  <linearGradient id="telinkrin" x1="0%" x2="0%" y1="0%" y2="100%">
   <stop offset="0%" style="stop-color: #b2ced6; stop-opacity:1"/>
   <stop offset="100%" style="stop-color: #6da5b7; stop-opacity:1"/>
  </linearGradient>
  <linearGradient id="60spsycho" x1="0%" x2="0%" y1="0%" y2="100%">
   <stop offset="0%" style="stop-color: #df5940; stop-opacity:1"/>
   <stop offset="25%" style="stop-color: #d8d15f; stop-opacity:1"/>
   <stop offset="50%" style="stop-color: #e9882a; stop-opacity:1"/>
   <stop offset="100%" style="stop-color: #279362; stop-opacity:1"/>
  </linearGradient>
  <linearGradient id="90ssummer" x1="0%" x2="0%" y1="0%" y2="100%">
   <stop offset="0%" style="stop-color: #f618c7; stop-opacity:1"/>
   <stop offset="20%" style="stop-color: #94ffab; stop-opacity:1"/>
   <stop offset="50%" style="stop-color: #fbfd54; stop-opacity:1"/>
   <stop offset="100%" style="stop-color: #0f83ae; stop-opacity:1"/>
  </linearGradient>
 </defs>
  <path
     id="path700"
     style="display:inline;opacity:1;fill:url(#oomox);fill-opacity:0.3;stroke-width:0.190476"
     class="ColorScheme-Text"
     d="M 2.8339844 0 L 5.6933594 4.5117188 C 5.9175647 3.7508144 6.2925309 3.0531051 6.9160156 2.6816406 L 6.3339844 0 L 2.8339844 0 z M 9.7148438 0 L 9.0996094 2.7460938 C 9.680546 3.1655043 10.018731 3.916807 10.212891 4.7050781 L 13.238281 0 L 9.7148438 0 z M 0 2.7617188 L 0 6.2851562 L 4.0605469 7.1933594 C 4.5269889 6.7151007 5.0980042 6.3202033 5.3105469 6.1796875 L 0 2.7617188 z M 16 2.8339844 L 10.808594 6.125 C 11.163243 6.3941713 11.635703 6.7856382 11.998047 7.203125 L 16 6.3339844 L 16 2.8339844 z M 5.4003906 6.3164062 C 5.3937127 6.4226636 5.388339 6.5244587 5.3847656 6.6230469 C 5.3884339 6.5258705 5.3937929 6.4210876 5.4003906 6.3164062 z M 5.3847656 6.6230469 C 5.3819501 6.7007262 5.3801678 6.7757876 5.3789062 6.8476562 C 5.380301 6.7740856 5.3817564 6.7027632 5.3847656 6.6230469 z M 10.462891 6.7871094 C 10.471776 7.1793001 10.458465 7.4472073 10.453125 7.5390625 L 10.455078 7.5390625 C 10.460905 7.4305916 10.471121 7.1741104 10.462891 6.7871094 z M 10.355469 8.4511719 C 10.175252 8.7014059 9.8551207 8.894812 9.4609375 9.03125 L 11.335938 10.238281 C 11.317818 10.008033 11.130319 9.2529529 10.875 8.5683594 L 10.355469 8.4511719 z M 5.4121094 8.4902344 L 4.9707031 8.5859375 C 4.7282647 9.2129417 4.5350635 9.9778024 4.4785156 10.326172 L 6.4121094 9.0996094 C 5.9512423 8.9679626 5.5837227 8.7664249 5.4121094 8.4902344 z M 3.5976562 8.8847656 L 0 9.6660156 L 0 13.166016 L 4.375 10.390625 C 4.2116531 10.102331 3.8641395 9.4120245 3.5976562 8.8847656 z M 12.296875 8.8867188 C 11.972783 9.4434217 11.542348 10.097287 11.390625 10.273438 L 16 13.238281 L 16 9.7148438 L 12.296875 8.8867188 z M 8.8457031 9.1875 C 8.6374696 9.2254347 8.4214215 9.2515992 8.2011719 9.265625 L 8.4199219 10.275391 L 9.5351562 10.275391 L 8.8457031 9.1875 z M 7.1132812 9.2382812 L 6.4453125 10.275391 L 7.5664062 10.275391 L 7.7890625 9.2773438 C 7.5592552 9.2765609 7.3333908 9.2645995 7.1132812 9.2382812 z M 6.1972656 10.660156 L 5.8886719 11.140625 L 7.3730469 11.140625 L 7.4804688 10.660156 L 6.1972656 10.660156 z M 8.5039062 10.660156 L 8.609375 11.140625 L 10.083984 11.140625 L 9.7792969 10.660156 L 8.5039062 10.660156 z M 5.640625 11.525391 L 5.3613281 11.958984 L 7.1894531 11.958984 L 7.2871094 11.525391 L 5.640625 11.525391 z M 8.6933594 11.525391 L 8.7871094 11.958984 L 10.603516 11.958984 L 10.328125 11.525391 L 8.6933594 11.525391 z M 5.1367188 12.308594 L 2.7617188 16 L 6.2851562 16 L 7.1035156 12.345703 L 5.1367188 12.345703 L 5.1367188 12.308594 z M 8.8710938 12.345703 L 9.6660156 16 L 13.166016 16 L 10.847656 12.345703 L 8.8710938 12.345703 z " />
  <path
     id="path699"
     style="display:inline;opacity:1;fill:url(#oomox);stroke-width:0.153696"
     class="ColorScheme-Text"
     d="M 2.5878906 9.7578125 C 2.2086268 9.7578125 1.9042969 10.166868 1.9042969 10.675781 L 1.9042969 12.421875 C 1.9042969 12.930788 2.2086268 13.339844 2.5878906 13.339844 L 2.671875 13.339844 C 3.0511388 13.339844 3.3574219 12.930788 3.3574219 12.421875 L 3.3574219 12.152344 L 5.1367188 12.152344 L 5.1367188 11.960938 L 10.863281 11.960938 L 10.863281 12.152344 L 12.546875 12.152344 C 12.615076 12.152344 12.681028 12.139081 12.740234 12.115234 L 12.740234 12.470703 C 12.740234 12.979618 13.021618 13.388672 13.373047 13.388672 L 13.451172 13.388672 C 13.8026 13.388672 14.085937 12.979618 14.085938 12.470703 L 14.085938 10.726562 C 14.085938 10.21765 13.8026 9.8066406 13.451172 9.8066406 L 13.373047 9.8066406 C 13.021618 9.8066406 12.740234 10.21765 12.740234 10.726562 L 12.740234 11.144531 C 12.681028 11.120684 12.615076 11.107422 12.546875 11.107422 L 3.3574219 11.107422 L 3.3574219 10.675781 C 3.3574219 10.166868 3.0511388 9.7578125 2.671875 9.7578125 L 2.5878906 9.7578125 z M 5.1367188 11.140625 L 10.863281 11.140625 L 10.863281 11.527344 L 5.1367188 11.527344 L 5.1367188 11.140625 z " />
  <rect
     style="opacity:0.4;fill:url(#oomox);fill-opacity:1;stroke:none;stroke-width:0.133447;stroke-linejoin:round;paint-order:markers fill stroke;stop-color:#000000"
     id="rect1127"
     class="ColorScheme-Text"
     width="5.7279501"
     height="0.38507226"
     x="5.1360245"
     y="10.274873" />
  <rect
     style="opacity:0.4;fill:url(#oomox);fill-opacity:1;stroke:none;stroke-width:0.133447;stroke-linejoin:round;paint-order:markers fill stroke;stop-color:#000000"
     id="rect1127-3"
     class="ColorScheme-Text"
     width="5.7279501"
     height="0.38507226"
     x="5.1360245"
     y="11.141285" />
  <rect
     style="opacity:0.4;fill:url(#oomox);fill-opacity:1;stroke:none;stroke-width:0.133447;stroke-linejoin:round;paint-order:markers fill stroke;stop-color:#000000"
     id="rect1127-5"
     class="ColorScheme-Text"
     width="5.7279501"
     height="0.38507226"
     x="5.1360245"
     y="11.959565" />
  <path
     id="path697"
     style="display:inline;opacity:0.6;fill:url(#oomox);fill-opacity:1;stroke-width:0.153696"
     class="ColorScheme-Text"
     d="M 8.0058594 2.4023438 C 4.9526912 2.3844788 5.3964844 7.7441406 5.3964844 7.7441406 C 5.1590149 8.2597888 5.4070228 8.647716 5.9003906 8.9042969 C 5.9969395 8.6723766 6.4293746 7.8896376 7.8808594 7.8730469 C 9.5701362 7.8537373 9.9124018 8.7482843 9.9355469 8.8144531 C 10.399181 8.5396062 10.639997 8.1423926 10.449219 7.6191406 C 10.449219 7.6191406 10.815573 2.4187835 8.0058594 2.4023438 z M 6.8789062 3.6425781 C 7.3863821 3.6247061 7.732124 4.2791101 7.5527344 4.9179688 C 7.2086842 6.1495603 5.8356373 5.5440916 6.1796875 4.3125 C 6.2884906 3.9214173 6.5685716 3.6530716 6.8789062 3.6425781 z M 8.9570312 3.7128906 C 9.4645071 3.6950191 9.8102489 4.3494227 9.6308594 4.9882812 C 9.287039 6.2204371 7.9139921 5.6149684 8.2578125 4.3828125 C 8.3666156 3.9917298 8.6466966 3.7233846 8.9570312 3.7128906 z " />
  <path
     d="m 5.8764289,8.9699394 c 0,0 0.3010809,-1.0772524 2.00488,-1.0967271 1.7535234,-0.020044 2.0605246,0.9533392 2.0605246,0.9533392 0,0 -0.7393787,0.5099241 -2.0458304,0.5004225 C 6.589553,9.3174727 5.8764289,8.9699394 5.8764289,8.9699394 Z"
     id="path694"
     class="ColorScheme-Text"
     style="display:inline;opacity:0.8;fill:url(#oomox);fill-opacity:1;stroke-width:0.153696" />
  <path
     id="path698"
     style="display:inline;fill:url(#oomox);fill-opacity:1;stroke-width:0.153696;opacity:1"
     class="ColorScheme-Text"
     d="M 10.476562 7.7050781 C 11.074398 9.8180655 4.4604391 9.7766946 5.3964844 7.7441406 C 5.3964844 7.7441406 5.3948712 7.7131344 5.3945312 7.7089844 C 4.818493 8.3586675 4.5507927 9.602299 4.296875 9.796875 L 4.3144531 9.796875 C 4.2138033 9.9328996 4.1523438 10.099159 4.1523438 10.28125 L 4.1523438 12.318359 C 4.1523438 12.774352 4.5244314 13.140625 4.9863281 13.140625 L 10.921875 13.140625 C 11.383771 13.140625 11.755859 12.774352 11.755859 12.318359 L 11.755859 10.28125 C 11.755859 10.061056 11.669028 9.8622542 11.527344 9.7148438 C 11.361584 9.3415367 10.878869 8.2845037 10.476562 7.7050781 z M 5.1367188 10.275391 L 10.863281 10.275391 L 10.863281 10.660156 L 5.1367188 10.660156 L 5.1367188 10.275391 z M 5.1367188 11.140625 L 10.863281 11.140625 L 10.863281 11.527344 L 5.1367188 11.527344 L 5.1367188 11.140625 z M 5.1367188 11.958984 L 10.863281 11.958984 L 10.863281 12.345703 L 5.1367188 12.345703 L 5.1367188 11.958984 z " />
  <path
     id="path696"
     style="display:inline;fill:url(#oomox);fill-opacity:1;stroke-width:0.13161;opacity:0.8"
     class="ColorScheme-Text"
     d="m 5.4029253,6.1203459 c 0,0 -2.4337713,1.5251751 -1.9242012,2.5312497 0.3577494,0.7063326 1.0225743,2.0343014 0.9833767,1.8537234 -0.036427,-0.167813 0.4351186,-2.116711 0.9109048,-2.7021275 0.00771,-0.019448 0.014805,-0.038684 0.023935,-0.058511 0,0 -0.056567,-0.707949 0.014628,-1.6057182 -0.00221,-0.00457 -0.00864,-0.018618 -0.00864,-0.018618 z" />
  <path
     id="path695"
     style="display:inline;fill:url(#oomox);fill-opacity:1;stroke-width:0.13161;opacity:0.8"
     class="ColorScheme-Text"
     d="m 10.40359,5.8324466 c 0.102847,0.9793325 0.04654,1.7872341 0.04654,1.7872341 0.01114,0.030536 0.02035,0.060078 0.02859,0.089761 0.470808,0.7651741 0.893508,2.4319573 0.857047,2.5890953 -0.04337,0.186923 0.731802,-0.9776233 1.12766,-1.708776 0.498181,-0.920144 -1.56976,-2.4195261 -2.059841,-2.7573141 z" />
  <path
     id="path701"
     class="ColorScheme-Text"
     style="display:inline;opacity:1;fill:url(#oomox);fill-opacity:1;stroke-width:0.153696"
     d="M 8.9570312 3.7128906 A 0.73149831 0.97272463 4.2642763 0 0 8.2578125 4.3828125 A 0.73186255 0.97320899 4.2642763 1 0 9.6308594 4.9882812 A 0.73149831 0.97272463 4.2642763 0 0 8.9570312 3.7128906 z M 8.8925781 4.4199219 A 0.32276831 0.56398502 1.3278065 0 1 9.2089844 5.1621094 A 0.32325546 0.56483623 1.3278065 0 1 8.6015625 4.8027344 A 0.32276831 0.56398502 1.3278065 0 1 8.8925781 4.4199219 z " />
  <path
     id="path691"
     class="ColorScheme-Text"
     style="display:inline;opacity:1;fill:url(#oomox);fill-opacity:1;stroke:none;stroke-width:0.153696"
     d="M 6.8789062 3.6425781 A 0.73149831 0.97272463 4.2642763 0 0 6.1796875 4.3125 A 0.73186255 0.97320899 4.2642763 1 0 7.5527344 4.9179688 A 0.73149831 0.97272463 4.2642763 0 0 6.8789062 3.6425781 z M 6.9355469 4.3496094 A 0.34050441 0.54670305 1.5878766 0 1 7.2519531 5.0703125 A 0.34050441 0.54670305 1.5878766 1 1 6.6132812 4.7226562 A 0.34050441 0.54670305 1.5878766 0 1 6.9355469 4.3496094 z " />
  <path
     d="m 6.2885654,5.7272803 c 0,0 0.7972045,-0.049754 1.69406,0 0.9608047,0.053301 1.7584769,-0.082435 1.7584769,-0.082435 0,0 -1.0493985,1.4534808 -1.9225464,1.4137181 C 7.1051472,7.0260766 6.2885654,5.7272803 6.2885654,5.7272803 Z"
     id="path693"
     class="ColorScheme-Text"
     style="display:inline;fill:url(#oomox);fill-opacity:1;stroke-width:0.153696" />
  <path
     d="m 6.2886805,5.7273678 c 0,0 0.7972153,-0.049752 1.6940895,0 0.9608201,0.0533 1.7585063,-0.082432 1.7585063,-0.082432 0,0 -1.0494172,1.4534281 -1.9225805,1.4136667 C 7.1052763,7.0261161 6.2886805,5.7273678 6.2886805,5.7273678 Z"
     id="path693-1"
     class="ColorScheme-Text"
     style="display:inline;opacity:0.4;fill:#000000;fill-opacity:1;stroke-width:0.153695" />
  <path
     d="m 6.2387401,5.7272803 c 0,0 0.8968551,-0.4477852 1.7937106,-0.3980313 0.9608031,0.053301 1.7378397,0.3010237 1.7378397,0.3010237 0,0 -0.781569,1.0138887 -1.9371411,1.0302597 C 7.0841913,6.6711435 6.2387401,5.7272803 6.2387401,5.7272803 Z"
     id="path693-2"
     class="ColorScheme-Text"
     style="display:inline;fill:url(#oomox);stroke-width:0.153696" />
  <metadata
     id="metadata1725">
    <rdf:RDF>
      <cc:Work
         rdf:about="">
        <dc:creator>
          <cc:Agent>
            <dc:title>dreifacherspass</dc:title>
          </cc:Agent>
        </dc:creator>
        <cc:license
           rdf:resource="http://creativecommons.org/licenses/by-sa/4.0/" />
      </cc:Work>
      <cc:License
         rdf:about="http://creativecommons.org/licenses/by-sa/4.0/">
        <cc:permits
           rdf:resource="http://creativecommons.org/ns#Reproduction" />
        <cc:permits
           rdf:resource="http://creativecommons.org/ns#Distribution" />
        <cc:requires
           rdf:resource="http://creativecommons.org/ns#Notice" />
        <cc:requires
           rdf:resource="http://creativecommons.org/ns#Attribution" />
        <cc:permits
           rdf:resource="http://creativecommons.org/ns#DerivativeWorks" />
        <cc:requires
           rdf:resource="http://creativecommons.org/ns#ShareAlike" />
      </cc:License>
    </rdf:RDF>
  </metadata>
</svg>
