<?xml version="1.0" encoding="UTF-8" standalone="no"?>
<svg
   width="16"
   height="16"
   version="1"
   id="svg6"
   xmlns:xlink="http://www.w3.org/1999/xlink"
   xmlns="http://www.w3.org/2000/svg"
   xmlns:svg="http://www.w3.org/2000/svg"
   xmlns:rdf="http://www.w3.org/1999/02/22-rdf-syntax-ns#"
   xmlns:cc="http://creativecommons.org/ns#"
   xmlns:dc="http://purl.org/dc/elements/1.1/">
   <defs>
   <style id="current-color-scheme" type="text/css">
   .ColorScheme-Text { color: #0abdc6; } .ColorScheme-Highlight { color:#5294e2; }
  </style>
  <linearGradient id="arrongin" x1="0%" x2="0%" y1="0%" y2="100%">
   <stop offset="0%" style="stop-color:#dd9b44; stop-opacity:1"/>
   <stop offset="100%" style="stop-color:#ad6c16; stop-opacity:1"/>
  </linearGradient>
  <linearGradient id="aurora" x1="0%" x2="0%" y1="0%" y2="100%">
   <stop offset="0%" style="stop-color:#09D4DF; stop-opacity:1"/>
   <stop offset="100%" style="stop-color:#9269F4; stop-opacity:1"/>
  </linearGradient>
  <linearGradient id="cyberneon" x1="0%" x2="0%" y1="0%" y2="100%">
    <stop offset="0" style="stop-color:#0abdc6; stop-opacity:1"/>
    <stop offset="1" style="stop-color:#ea00d9; stop-opacity:1"/>
  </linearGradient>
  <linearGradient id="fitdance" x1="0%" x2="0%" y1="0%" y2="100%">
   <stop offset="0%" style="stop-color:#1AD6AB; stop-opacity:1"/>
   <stop offset="100%" style="stop-color:#329DB6; stop-opacity:1"/>
  </linearGradient>
  <linearGradient id="oomox" x1="0%" x2="0%" y1="0%" y2="100%">
   <stop offset="0%" style="stop-color:#0abdc6; stop-opacity:1"/>
   <stop offset="100%" style="stop-color:#b800ff; stop-opacity:1"/>
  </linearGradient>
  <linearGradient id="rainblue" x1="0%" x2="0%" y1="0%" y2="100%">
   <stop offset="0%" style="stop-color:#00F260; stop-opacity:1"/>
   <stop offset="100%" style="stop-color:#0575E6; stop-opacity:1"/>
  </linearGradient>
  <linearGradient id="sunrise" x1="0%" x2="0%" y1="0%" y2="100%">
   <stop offset="0%" style="stop-color: #FF8501; stop-opacity:1"/>
   <stop offset="100%" style="stop-color: #FFCB01; stop-opacity:1"/>
  </linearGradient>
  <linearGradient id="telinkrin" x1="0%" x2="0%" y1="0%" y2="100%">
   <stop offset="0%" style="stop-color: #b2ced6; stop-opacity:1"/>
   <stop offset="100%" style="stop-color: #6da5b7; stop-opacity:1"/>
  </linearGradient>
  <linearGradient id="60spsycho" x1="0%" x2="0%" y1="0%" y2="100%">
   <stop offset="0%" style="stop-color: #df5940; stop-opacity:1"/>
   <stop offset="25%" style="stop-color: #d8d15f; stop-opacity:1"/>
   <stop offset="50%" style="stop-color: #e9882a; stop-opacity:1"/>
   <stop offset="100%" style="stop-color: #279362; stop-opacity:1"/>
  </linearGradient>
  <linearGradient id="90ssummer" x1="0%" x2="0%" y1="0%" y2="100%">
   <stop offset="0%" style="stop-color: #f618c7; stop-opacity:1"/>
   <stop offset="20%" style="stop-color: #94ffab; stop-opacity:1"/>
   <stop offset="50%" style="stop-color: #fbfd54; stop-opacity:1"/>
   <stop offset="100%" style="stop-color: #0f83ae; stop-opacity:1"/>
  </linearGradient>
 </defs>
  <path
     id="path1"
     class="ColorScheme-Text"
     style="display:inline;fill:url(#oomox)"
     d="M 15.703125 0 C 15.365989 -0.0014503955 14.728766 0.066876475 14.013672 0.171875 C 13.956245 0.18030709 13.8989 0.18961298 13.84375 0.203125 C 13.020051 0.32667048 12.130904 0.48955399 11.466797 0.66015625 C 11.268365 0.71113122 11.073092 0.76353213 10.878906 0.81835938 C 10.484716 0.92965757 10.109801 1.0509367 9.75 1.1777344 C 9.1704413 1.3723878 8.6132339 1.5846533 8.078125 1.8144531 A 12 12 0 0 0 8.078125 1.8125 A 12 12 0 0 0 8.078125 1.8105469 C 8.0235331 1.8340071 7.9701326 1.8589976 7.9160156 1.8828125 C 7.8911641 1.8937372 7.8645942 1.9030632 7.8398438 1.9140625 C 7.8118539 1.9265013 7.7854705 1.938669 7.7578125 1.9511719 C 7.7210738 1.9677135 7.6849512 1.9852468 7.6484375 2.0019531 C 7.578016 2.0345252 7.5077096 2.0666044 7.4394531 2.0996094 C 3.9185378 3.7606597 1.4779878 6.1972344 0.50390625 9.1289062 C 0.24045175 9.9218161 0.067018464 10.880699 0.017578125 11.679688 C 0.015907255 11.692456 0.014410412 11.706196 0.013671875 11.71875 C -0.016780435 12.236387 0.0042789668 12.681671 0.08984375 12.962891 C 0.3327196 13.76113 0.85497606 14.37861 1.6757812 14.851562 C 1.7206305 14.882825 1.7710871 14.913138 1.828125 14.943359 C 2.080861 15.07727 2.359329 15.199247 2.6660156 15.308594 C 3.3993547 15.570059 4.4593549 15.781337 5.5566406 15.902344 C 5.5585786 15.902557 5.5605618 15.902131 5.5625 15.902344 C 5.6220247 15.913666 5.6868806 15.924519 5.7578125 15.931641 C 5.9835799 15.954311 6.2105171 15.972388 6.4355469 15.986328 C 7.1700413 16.031808 8.9532922 15.958336 9.5410156 15.859375 C 11.65381 15.503642 13.363911 14.552209 14.441406 13.130859 C 15.230239 12.090292 15.722434 10.678688 15.40625 10.363281 C 15.293842 10.251149 15.168832 10.29451 14.970703 10.517578 C 14.548957 10.992419 13.725367 11.522743 12.974609 11.835938 C 12.513407 12.021801 11.681095 12.153271 11.166016 12.107422 A 4.4999999 4.4999999 0 0 1 7.5 14 A 4.4999999 4.4999999 0 0 1 3 9.5 A 4.4999999 4.4999999 0 0 1 7.5 5 A 4.4999999 4.4999999 0 0 1 11.462891 7.3691406 C 11.975581 7.069995 12.63086 6.6899892 13.091797 6.375 C 13.115877 6.358392 13.138299 6.3411985 13.162109 6.3242188 L 13.162109 6.3222656 C 14.778624 5.1692185 15.766567 3.1609469 15.980469 0.57617188 C 16.016389 0.14208996 16.007691 0.054793407 15.925781 0.0234375 C 15.886051 0.0082303456 15.809534 0.00045779862 15.703125 0 z M 15.570312 5.3535156 C 15.519315 5.3698453 15.450149 5.4438964 15.308594 5.6054688 C 14.377547 6.6390562 12.960973 7.6482621 11.828125 8.2714844 A 4.4999999 4.4999999 0 0 1 12 9.5 A 4.4999999 4.4999999 0 0 1 11.695312 11.125 C 12.929149 10.970822 14.010847 10.24653 14.664062 9.3515625 C 15.307976 8.4514028 15.758568 7.130344 15.777344 6.0878906 C 15.785744 5.6224981 15.766711 5.4916033 15.681641 5.40625 C 15.656941 5.381474 15.637185 5.3637435 15.617188 5.3554688 C 15.60218 5.3492618 15.587312 5.3480724 15.570312 5.3535156 z M 7.5 5.75 A 3.7499999 3.7499999 0 0 0 3.75 9.5 A 3.7499999 3.7499999 0 0 0 7.5 13.25 A 3.7499999 3.7499999 0 0 0 11.25 9.5 A 3.7499999 3.7499999 0 0 0 7.5 5.75 z M 6.3652344 7 A 0.35750314 0.39652723 0 0 1 6.5371094 7.0527344 L 8.1796875 8.1054688 L 9.8222656 9.15625 A 0.35750314 0.39652723 0 0 1 9.8222656 9.84375 L 8.1796875 10.894531 L 6.5371094 11.947266 A 0.35750314 0.39652723 0 0 1 6 11.603516 L 6 9.5 L 6 7.3964844 A 0.35750314 0.39652723 0 0 1 6.3652344 7 z " />
  <metadata
     id="metadata6">
    <rdf:RDF>
      <cc:Work
         rdf:about="">
        <dc:creator>
          <cc:Agent>
            <dc:title>dreifacherspass</dc:title>
          </cc:Agent>
        </dc:creator>
        <cc:license
           rdf:resource="http://creativecommons.org/licenses/by-sa/4.0/" />
      </cc:Work>
      <cc:License
         rdf:about="http://creativecommons.org/licenses/by-sa/4.0/">
        <cc:permits
           rdf:resource="http://creativecommons.org/ns#Reproduction" />
        <cc:permits
           rdf:resource="http://creativecommons.org/ns#Distribution" />
        <cc:requires
           rdf:resource="http://creativecommons.org/ns#Notice" />
        <cc:requires
           rdf:resource="http://creativecommons.org/ns#Attribution" />
        <cc:permits
           rdf:resource="http://creativecommons.org/ns#DerivativeWorks" />
        <cc:requires
           rdf:resource="http://creativecommons.org/ns#ShareAlike" />
      </cc:License>
    </rdf:RDF>
  </metadata>
</svg>
