<?xml version="1.0" encoding="UTF-8" standalone="no"?>
<svg
   viewBox="0 0 48 48"
   version="1.1"
   id="svg37"
   width="48"
   height="48"
   xmlns:xlink="http://www.w3.org/1999/xlink"
   xmlns="http://www.w3.org/2000/svg"
   xmlns:svg="http://www.w3.org/2000/svg"
   xmlns:rdf="http://www.w3.org/1999/02/22-rdf-syntax-ns#"
   xmlns:cc="http://creativecommons.org/ns#"
   xmlns:dc="http://purl.org/dc/elements/1.1/">
  <defs
     id="defs41">
    <style
       id="current-color-scheme"
       type="text/css">
   .ColorScheme-Text { color: #0abdc6; } .ColorScheme-Highlight { color:#5294e2; }
  </style>
    <linearGradient
       id="arrongin"
       x1="0%"
       x2="0%"
       y1="0%"
       y2="100%">
      <stop
         offset="0%"
         style="stop-color:#dd9b44; stop-opacity:1"
         id="stop3" />
      <stop
         offset="100%"
         style="stop-color:#ad6c16; stop-opacity:1"
         id="stop5" />
    </linearGradient>
    <linearGradient
       id="aurora"
       x1="0%"
       x2="0%"
       y1="0%"
       y2="100%">
      <stop
         offset="0%"
         style="stop-color:#09D4DF; stop-opacity:1"
         id="stop8" />
      <stop
         offset="100%"
         style="stop-color:#9269F4; stop-opacity:1"
         id="stop10" />
    </linearGradient>
    <linearGradient
       id="cyberneon"
       x1="0%"
       x2="0%"
       y1="0%"
       y2="100%">
      <stop
         offset="0"
         style="stop-color:#0abdc6; stop-opacity:1"
         id="stop13" />
      <stop
         offset="1"
         style="stop-color:#ea00d9; stop-opacity:1"
         id="stop15" />
    </linearGradient>
    <linearGradient
       id="fitdance"
       x1="0%"
       x2="0%"
       y1="0%"
       y2="100%">
      <stop
         offset="0%"
         style="stop-color:#1AD6AB; stop-opacity:1"
         id="stop18" />
      <stop
         offset="100%"
         style="stop-color:#329DB6; stop-opacity:1"
         id="stop20" />
    </linearGradient>
    <linearGradient
       id="oomox"
       x1="0%"
       x2="0%"
       y1="0%"
       y2="100%">
      <stop
         offset="0%"
         style="stop-color:#0abdc6; stop-opacity:1"
         id="stop23" />
      <stop
         offset="100%"
         style="stop-color:#b800ff; stop-opacity:1"
         id="stop25" />
    </linearGradient>
    <linearGradient
       id="rainblue"
       x1="0%"
       x2="0%"
       y1="0%"
       y2="100%">
      <stop
         offset="0%"
         style="stop-color:#00F260; stop-opacity:1"
         id="stop28" />
      <stop
         offset="100%"
         style="stop-color:#0575E6; stop-opacity:1"
         id="stop30" />
    </linearGradient>
    <linearGradient
       id="sunrise"
       x1="0%"
       x2="0%"
       y1="0%"
       y2="100%">
      <stop
         offset="0%"
         style="stop-color: #FF8501; stop-opacity:1"
         id="stop33" />
      <stop
         offset="100%"
         style="stop-color: #FFCB01; stop-opacity:1"
         id="stop35" />
    </linearGradient>
    <linearGradient
       id="telinkrin"
       x1="0%"
       x2="0%"
       y1="0%"
       y2="100%">
      <stop
         offset="0%"
         style="stop-color: #b2ced6; stop-opacity:1"
         id="stop38" />
      <stop
         offset="100%"
         style="stop-color: #6da5b7; stop-opacity:1"
         id="stop40" />
    </linearGradient>
    <linearGradient
       id="60spsycho"
       x1="0%"
       x2="0%"
       y1="0%"
       y2="100%">
      <stop
         offset="0%"
         style="stop-color: #df5940; stop-opacity:1"
         id="stop43" />
      <stop
         offset="25%"
         style="stop-color: #d8d15f; stop-opacity:1"
         id="stop45" />
      <stop
         offset="50%"
         style="stop-color: #e9882a; stop-opacity:1"
         id="stop47" />
      <stop
         offset="100%"
         style="stop-color: #279362; stop-opacity:1"
         id="stop49" />
    </linearGradient>
    <linearGradient
       id="90ssummer"
       x1="0%"
       x2="0%"
       y1="0%"
       y2="100%">
      <stop
         offset="0%"
         style="stop-color: #f618c7; stop-opacity:1"
         id="stop52" />
      <stop
         offset="20%"
         style="stop-color: #94ffab; stop-opacity:1"
         id="stop54" />
      <stop
         offset="50%"
         style="stop-color: #fbfd54; stop-opacity:1"
         id="stop56" />
      <stop
         offset="100%"
         style="stop-color: #0f83ae; stop-opacity:1"
         id="stop58" />
    </linearGradient>
  </defs>
  <path
     d="m 33.283047,19.337415 h 12.140215 c 1.146957,0 2.076737,0.92978 2.076737,2.076738 0,0 0,0 0,0 v 11.058121 c 0,4.215367 -3.417213,7.63258 -7.632579,7.63258 v 0 h -0.03608 c -4.215367,5.96e-4 -7.633064,-3.416138 -7.633676,-7.631505 0,-3.97e-4 0,-6.95e-4 0,-0.0011 V 20.422798 c 2.1e-5,-0.599448 0.485957,-1.085383 1.085383,-1.085383 z"
     id="path2"
     class="ColorScheme-Text"
     style="opacity:0.5;fill:url(#oomox);fill-opacity:1;stroke-width:0.0210873" />
  <circle
     cx="39.848831"
     cy="10.627892"
     id="circle4"
     class="ColorScheme-Text"
     style="opacity:0.5;fill:url(#oomox);fill-opacity:1;stroke-width:0.0210873"
     r="4.9186053" />
  <circle
     cx="26.139668"
     cy="8.4418583"
     id="circle6"
     class="ColorScheme-Text"
     style="fill:url(#oomox);fill-opacity:1;stroke-width:0.0210873"
     r="7.1046586" />
  <path
     d="M 36.15941,19.3372 H 16.119905 c -1.133293,0.02805 -2.029798,0.968558 -2.003502,2.101894 v 12.612402 c -0.15826,6.801045 5.22241,12.444862 12.023265,12.611304 6.800855,-0.166443 12.181504,-5.810259 12.023265,-12.611305 V 21.439092 c 0.02625,-1.133334 -0.87023,-2.073847 -2.003523,-2.101892 z"
     id="path8"
     class="ColorScheme-Text"
     style="display:inline;fill:url(#oomox);fill-opacity:1;stroke-width:0.0210873" />
  <path
     id="path33-7"
     style="display:inline;opacity:0.235474;fill:#000000;fill-opacity:1;stroke:none;stroke-width:0.0222609;stroke-opacity:1"
     d="M 2.583333,10 C 1.4329861,10 0.5,10.959861 0.5,12.145921 v 21.482235 c 0,1.186059 0.9330318,2.133446 2.083333,2.145916 l 20.833334,0.225831 C 24.566946,36.012374 25.5,34.814236 25.5,33.628156 V 12.145921 C 25.5,10.959861 24.567036,10 23.416667,10 Z m 2.3307152,5.18584 13.5684078,-0.411516 -0.216957,5.767331 H 14.100863 L 14.209342,31.617026 9.9282417,31.925663 8.7349726,20.438772 H 4.9140482 Z" />
  <path
     id="path33"
     class="ColorScheme-Text"
     style="display:inline;fill:url(#oomox);fill-opacity:1;stroke-width:0.021047"
     d="m 2.5,11 c -1.1043331,0 -2,0.893789 -2,1.998214 V 33.001786 C 0.5,34.106211 1.3956458,35 2.5,35 h 20 c 1.104332,0 2,-0.893769 2,-1.998214 V 12.998214 C 24.5,11.893789 23.604354,11 22.5,11 Z m 4.7368421,5.499468 H 17.763158 v 2.11324 h -3.99805 V 29.500532 H 11.217349 V 18.612708 H 7.2368421 Z" />
  <metadata
     id="metadata166">
    <rdf:RDF>
      <cc:Work
         rdf:about="">
        <dc:creator>
          <cc:Agent>
            <dc:title>dreifacherspass</dc:title>
          </cc:Agent>
        </dc:creator>
        <cc:license
           rdf:resource="http://creativecommons.org/licenses/by-sa/4.0/" />
      </cc:Work>
      <cc:License
         rdf:about="http://creativecommons.org/licenses/by-sa/4.0/">
        <cc:permits
           rdf:resource="http://creativecommons.org/ns#Reproduction" />
        <cc:permits
           rdf:resource="http://creativecommons.org/ns#Distribution" />
        <cc:requires
           rdf:resource="http://creativecommons.org/ns#Notice" />
        <cc:requires
           rdf:resource="http://creativecommons.org/ns#Attribution" />
        <cc:permits
           rdf:resource="http://creativecommons.org/ns#DerivativeWorks" />
        <cc:requires
           rdf:resource="http://creativecommons.org/ns#ShareAlike" />
      </cc:License>
    </rdf:RDF>
  </metadata>
</svg>
