<?xml version="1.0" encoding="UTF-8" standalone="no"?>
<svg
   version="1.0"
   width="16pt"
   height="16pt"
   viewBox="0 0 16 16"
   preserveAspectRatio="xMidYMid"
   id="svg1"
   xmlns:xlink="http://www.w3.org/1999/xlink"
   xmlns="http://www.w3.org/2000/svg"
   xmlns:svg="http://www.w3.org/2000/svg"
   xmlns:rdf="http://www.w3.org/1999/02/22-rdf-syntax-ns#"
   xmlns:cc="http://creativecommons.org/ns#"
   xmlns:dc="http://purl.org/dc/elements/1.1/">
  <defs>
   <style id="current-color-scheme" type="text/css">
   .ColorScheme-Text { color: #0abdc6; } .ColorScheme-Highlight { color:#5294e2; }
  </style>
  <linearGradient id="arrongin" x1="0%" x2="0%" y1="0%" y2="100%">
   <stop offset="0%" style="stop-color:#dd9b44; stop-opacity:1"/>
   <stop offset="100%" style="stop-color:#ad6c16; stop-opacity:1"/>
  </linearGradient>
  <linearGradient id="aurora" x1="0%" x2="0%" y1="0%" y2="100%">
   <stop offset="0%" style="stop-color:#09D4DF; stop-opacity:1"/>
   <stop offset="100%" style="stop-color:#9269F4; stop-opacity:1"/>
  </linearGradient>
  <linearGradient id="cyberneon" x1="0%" x2="0%" y1="0%" y2="100%">
    <stop offset="0" style="stop-color:#0abdc6; stop-opacity:1"/>
    <stop offset="1" style="stop-color:#ea00d9; stop-opacity:1"/>
  </linearGradient>
  <linearGradient id="fitdance" x1="0%" x2="0%" y1="0%" y2="100%">
   <stop offset="0%" style="stop-color:#1AD6AB; stop-opacity:1"/>
   <stop offset="100%" style="stop-color:#329DB6; stop-opacity:1"/>
  </linearGradient>
  <linearGradient id="oomox" x1="0%" x2="0%" y1="0%" y2="100%">
   <stop offset="0%" style="stop-color:#0abdc6; stop-opacity:1"/>
   <stop offset="100%" style="stop-color:#b800ff; stop-opacity:1"/>
  </linearGradient>
  <linearGradient id="rainblue" x1="0%" x2="0%" y1="0%" y2="100%">
   <stop offset="0%" style="stop-color:#00F260; stop-opacity:1"/>
   <stop offset="100%" style="stop-color:#0575E6; stop-opacity:1"/>
  </linearGradient>
  <linearGradient id="sunrise" x1="0%" x2="0%" y1="0%" y2="100%">
   <stop offset="0%" style="stop-color: #FF8501; stop-opacity:1"/>
   <stop offset="100%" style="stop-color: #FFCB01; stop-opacity:1"/>
  </linearGradient>
  <linearGradient id="telinkrin" x1="0%" x2="0%" y1="0%" y2="100%">
   <stop offset="0%" style="stop-color: #b2ced6; stop-opacity:1"/>
   <stop offset="100%" style="stop-color: #6da5b7; stop-opacity:1"/>
  </linearGradient>
  <linearGradient id="60spsycho" x1="0%" x2="0%" y1="0%" y2="100%">
   <stop offset="0%" style="stop-color: #df5940; stop-opacity:1"/>
   <stop offset="25%" style="stop-color: #d8d15f; stop-opacity:1"/>
   <stop offset="50%" style="stop-color: #e9882a; stop-opacity:1"/>
   <stop offset="100%" style="stop-color: #279362; stop-opacity:1"/>
  </linearGradient>
  <linearGradient id="90ssummer" x1="0%" x2="0%" y1="0%" y2="100%">
   <stop offset="0%" style="stop-color: #f618c7; stop-opacity:1"/>
   <stop offset="20%" style="stop-color: #94ffab; stop-opacity:1"/>
   <stop offset="50%" style="stop-color: #fbfd54; stop-opacity:1"/>
   <stop offset="100%" style="stop-color: #0f83ae; stop-opacity:1"/>
  </linearGradient>
 </defs>
  <path
     id="path1"
     class="ColorScheme-Text"
     d="M 11.052982,0.00161251 C 10.259921,-0.01729977 9.4925675,0.1298259 8.9655181,0.45993649 8.7630732,0.58673536 8.2668402,0.713161 7.6383347,0.80773248 7.22366,0.53809633 6.7420496,0.39468434 6.250123,0.39435644 5.660715,0.39629763 5.089677,0.6035177 4.6317679,0.98163023 3.0580543,1.0491595 2.4532314,1.352165 1.3862347,2.4214448 c -2.20858782,2.263617 -1.75712413,5.2311834 1.2043913,7.9978262 0.1471013,0.136886 0.3008266,0.302344 0.4551394,0.478956 -0.1273363,0.31415 -0.1937541,0.650453 -0.195585,0.990333 1.411e-4,1.45347 1.1564823,2.631747 2.5830449,2.632047 0.00392,-2.43e-4 0.00784,-4.94e-4 0.011766,-7.55e-4 1.7318202,1.73675 4.8685867,2.050103 6.7829727,0.376533 1.003904,-0.855145 1.40581,-1.760643 1.606591,-3.571537 0.100606,-0.705752 0.276482,-1.4233838 0.490432,-2.0278254 0.982938,-0.3965921 1.629544,-1.3633225 1.632326,-2.4404639 -5.9e-5,-0.181494 -0.01854,-0.3624953 -0.05515,-0.5401151 C 16.293778,4.5272552 15.494034,2.2402184 13.784554,0.86225944 13.135154,0.32465045 12.072633,0.02592871 11.052982,0.00161251 Z M 11.55665,1.4922705 c 0.938219,-0.00855 1.888646,0.2441947 2.528634,0.8289624 1.070021,0.9574203 1.206984,1.9413546 0.525726,2.2245655 -0.379609,-0.210906 -0.805099,-0.32137 -1.237479,-0.3212689 -1.426562,3.002e-4 -2.582903,1.1785776 -2.583044,2.6320468 8.23e-4,0.8844398 0.437529,1.7093419 1.16248,2.1958281 1.457636,2.4646836 -0.362608,5.9950536 -3.2381801,5.9950536 -0.8458086,0 -2.0187506,-0.427686 -2.3786358,-0.700013 C 7.3443209,13.964399 8.0139338,12.984837 8.017005,11.88856 8.0172631,10.43451 6.8603573,9.2556627 5.4332253,9.2557764 5.1300558,9.2580455 4.8296444,9.3146647 4.5457399,9.4230428 2.9305362,8.6199792 1.4362338,6.7539377 1.4362338,5.2885483 1.4362338,3.4776549 2.967679,2.2735547 3.1928217,2.0692282 3.453861,1.8730807 3.8948409,1.6748882 4.0773655,1.602062 3.8090639,2.0268277 3.6663807,2.5212766 3.6663431,3.026403 3.6660849,4.4804527 4.8229909,5.6593005 6.250123,5.6591867 7.6769678,5.6588866 8.8334255,4.48016 8.8331673,3.026403 8.8332071,2.86099 8.8179438,2.6959415 8.78758,2.5334472 9.3177993,1.8919949 10.427123,1.5025609 11.55665,1.4922705 Z"
     style="fill:url(#oomox);stroke-width:0.0502489" />
  <metadata
     id="metadata3">
    <rdf:RDF>
      <cc:Work
         rdf:about="">
        <dc:creator>
          <cc:Agent>
            <dc:title>dreifacherspass</dc:title>
          </cc:Agent>
        </dc:creator>
        <cc:license
           rdf:resource="http://creativecommons.org/licenses/by-sa/4.0/" />
      </cc:Work>
      <cc:License
         rdf:about="http://creativecommons.org/licenses/by-sa/4.0/">
        <cc:permits
           rdf:resource="http://creativecommons.org/ns#Reproduction" />
        <cc:permits
           rdf:resource="http://creativecommons.org/ns#Distribution" />
        <cc:requires
           rdf:resource="http://creativecommons.org/ns#Notice" />
        <cc:requires
           rdf:resource="http://creativecommons.org/ns#Attribution" />
        <cc:permits
           rdf:resource="http://creativecommons.org/ns#DerivativeWorks" />
        <cc:requires
           rdf:resource="http://creativecommons.org/ns#ShareAlike" />
      </cc:License>
    </rdf:RDF>
  </metadata>
</svg>
