<?xml version="1.0" encoding="UTF-8" standalone="no"?>
<svg
   width="16"
   height="16"
   version="1.1"
   id="svg69"
   xmlns:xlink="http://www.w3.org/1999/xlink"
   xmlns="http://www.w3.org/2000/svg"
   xmlns:svg="http://www.w3.org/2000/svg"
   xmlns:rdf="http://www.w3.org/1999/02/22-rdf-syntax-ns#"
   xmlns:cc="http://creativecommons.org/ns#"
   xmlns:dc="http://purl.org/dc/elements/1.1/">
   <defs>
   <style id="current-color-scheme" type="text/css">
   .ColorScheme-Text { color: #0abdc6; } .ColorScheme-Highlight { color:#5294e2; }
  </style>
  <linearGradient id="arrongin" x1="0%" x2="0%" y1="0%" y2="100%">
   <stop offset="0%" style="stop-color:#dd9b44; stop-opacity:1"/>
   <stop offset="100%" style="stop-color:#ad6c16; stop-opacity:1"/>
  </linearGradient>
  <linearGradient id="aurora" x1="0%" x2="0%" y1="0%" y2="100%">
   <stop offset="0%" style="stop-color:#09D4DF; stop-opacity:1"/>
   <stop offset="100%" style="stop-color:#9269F4; stop-opacity:1"/>
  </linearGradient>
  <linearGradient id="cyberneon" x1="0%" x2="0%" y1="0%" y2="100%">
    <stop offset="0" style="stop-color:#0abdc6; stop-opacity:1"/>
    <stop offset="1" style="stop-color:#ea00d9; stop-opacity:1"/>
  </linearGradient>
  <linearGradient id="fitdance" x1="0%" x2="0%" y1="0%" y2="100%">
   <stop offset="0%" style="stop-color:#1AD6AB; stop-opacity:1"/>
   <stop offset="100%" style="stop-color:#329DB6; stop-opacity:1"/>
  </linearGradient>
  <linearGradient id="oomox" x1="0%" x2="0%" y1="0%" y2="100%">
   <stop offset="0%" style="stop-color:#0abdc6; stop-opacity:1"/>
   <stop offset="100%" style="stop-color:#b800ff; stop-opacity:1"/>
  </linearGradient>
  <linearGradient id="rainblue" x1="0%" x2="0%" y1="0%" y2="100%">
   <stop offset="0%" style="stop-color:#00F260; stop-opacity:1"/>
   <stop offset="100%" style="stop-color:#0575E6; stop-opacity:1"/>
  </linearGradient>
  <linearGradient id="sunrise" x1="0%" x2="0%" y1="0%" y2="100%">
   <stop offset="0%" style="stop-color: #FF8501; stop-opacity:1"/>
   <stop offset="100%" style="stop-color: #FFCB01; stop-opacity:1"/>
  </linearGradient>
  <linearGradient id="telinkrin" x1="0%" x2="0%" y1="0%" y2="100%">
   <stop offset="0%" style="stop-color: #b2ced6; stop-opacity:1"/>
   <stop offset="100%" style="stop-color: #6da5b7; stop-opacity:1"/>
  </linearGradient>
  <linearGradient id="60spsycho" x1="0%" x2="0%" y1="0%" y2="100%">
   <stop offset="0%" style="stop-color: #df5940; stop-opacity:1"/>
   <stop offset="25%" style="stop-color: #d8d15f; stop-opacity:1"/>
   <stop offset="50%" style="stop-color: #e9882a; stop-opacity:1"/>
   <stop offset="100%" style="stop-color: #279362; stop-opacity:1"/>
  </linearGradient>
  <linearGradient id="90ssummer" x1="0%" x2="0%" y1="0%" y2="100%">
   <stop offset="0%" style="stop-color: #f618c7; stop-opacity:1"/>
   <stop offset="20%" style="stop-color: #94ffab; stop-opacity:1"/>
   <stop offset="50%" style="stop-color: #fbfd54; stop-opacity:1"/>
   <stop offset="100%" style="stop-color: #0f83ae; stop-opacity:1"/>
  </linearGradient>
 </defs>
  <path
     d="m 6.5253906,6.6269531 c 0.012503,-0.00126 0.026236,0 0.039063,0 h 2.2578125 c 0.025677,0 0.05003,0.00293 0.074219,0.00781 0.024189,0.00488 0.048103,0.012205 0.070312,0.021484 0.022209,0.00928 0.042762,0.019999 0.0625,0.033203 0.019738,0.013204 0.037913,0.02827 0.054687,0.044922 0.016774,0.016652 0.033556,0.035064 0.046875,0.054687 0.013319,0.019623 0.023832,0.040382 0.033203,0.0625 0.00937,0.022118 0.016553,0.046177 0.021484,0.070312 0.00493,0.024136 0.00781,0.048542 0.00781,0.074219 v 0.2597657 c 0,0.025677 -0.00288,0.050029 -0.00781,0.074219 -0.00493,0.024189 -0.012113,0.048103 -0.021484,0.070312 -0.00937,0.02221 -0.019885,0.042762 -0.033203,0.0625 -0.013319,0.019738 -0.030101,0.037914 -0.046875,0.054687 -0.016774,0.016774 -0.03495,0.033557 -0.054687,0.046875 -0.019738,0.013319 -0.040291,0.023832 -0.0625,0.033203 -0.02221,0.00937 -0.046123,0.016553 -0.070312,0.021484 -0.024189,0.00493 -0.048542,0.00781 -0.074219,0.00781 H 6.5644531 c -0.025677,0 -0.050029,-0.00288 -0.074219,-0.00781 -0.024189,-0.00493 -0.048103,-0.012113 -0.070312,-0.021484 -0.02221,-0.00937 -0.042762,-0.019885 -0.0625,-0.033203 -0.019738,-0.013318 -0.037913,-0.030101 -0.054687,-0.046875 -0.016774,-0.016774 -0.033557,-0.03495 -0.046875,-0.054687 -0.013319,-0.019738 -0.023832,-0.04029 -0.033203,-0.0625 -0.00937,-0.022209 -0.016553,-0.046123 -0.021484,-0.070312 -0.00493,-0.024189 -0.00781,-0.048542 -0.00781,-0.074219 V 6.9960937 c 0,-0.024072 0.00154,-0.047535 0.00586,-0.070312 0.00432,-0.022777 0.011289,-0.045329 0.019531,-0.066406 0.00824,-0.021077 0.017529,-0.041575 0.029297,-0.060547 0.011767,-0.018972 0.026121,-0.036273 0.041016,-0.052734 0.014895,-0.016462 0.031204,-0.031376 0.048828,-0.044922 0.017625,-0.013546 0.036684,-0.024932 0.056641,-0.035156 0.019957,-0.010225 0.040609,-0.018892 0.0625,-0.025391 0.021891,-0.0065 0.044931,-0.011305 0.068359,-0.013672 z"
     style="fill:url(#oomox);stroke-width:0.350427"
     id="path4"
     class="ColorScheme-Text"/>
  <path
     d="M 3.1582031,3.6210938 A 0.50005,0.50005 0 0 0 2.9238281,3.6914063 0.50005,0.50005 0 0 0 2.75,3.8632813 a 0.50005,0.50005 0 0 0 -0.070312,0.2343749 0.50005,0.50005 0 0 0 0.048828,0.2402344 0.50005,0.50005 0 0 0 0.15625,0.1875 L 4.3515625,5.625 2.8847656,6.7246094 A 0.5007816,0.5007816 0 0 0 2.7246094,6.9277344 0.5007816,0.5007816 0 0 0 2.6875,7.1855469 a 0.5007816,0.5007816 0 0 0 0.097656,0.2402343 0.5007816,0.5007816 0 0 0 0.203125,0.1601563 0.5007816,0.5007816 0 0 0 0.2578125,0.037109 0.5007816,0.5007816 0 0 0 0.2402343,-0.097656 l 2,-1.5 a 0.50005,0.50005 0 0 0 0.083984,-0.080078 0.50005,0.50005 0 0 0 0.064453,-0.095703 0.50005,0.50005 0 0 0 0.039063,-0.109375 A 0.50005,0.50005 0 0 0 5.6875,5.625 0.50005,0.50005 0 0 0 5.6738281,5.5097656 0.50005,0.50005 0 0 0 5.6347656,5.4003906 0.50005,0.50005 0 0 0 5.5703125,5.3046875 0.50005,0.50005 0 0 0 5.4863281,5.2246094 l -2,-1.5 A 0.50005,0.50005 0 0 0 3.3320313,3.6445313 0.50005,0.50005 0 0 0 3.1582031,3.6210938 Z"
     style="fill:url(#oomox);stroke-width:0.350427"
     id="path3"
     class="ColorScheme-Text"/>
  <path
     id="path1"
     class="ColorScheme-Text"
     style="fill:url(#oomox);stroke-width:0.350427"
     d="M 3.9941406 1 C 3.6795914 1.00363 3.3863384 1.0035125 3.1113281 1.0078125 C 2.973823 1.0099625 2.8415046 1.0141623 2.7128906 1.0195312 C 2.5842767 1.0249012 2.4582758 1.0323548 2.3378906 1.0429688 C 2.2175054 1.0535859 2.1011 1.0660906 1.9882812 1.0839844 C 1.8754626 1.1018781 1.768024 1.1251392 1.6621094 1.1523438 C 1.5561948 1.1795484 1.4531885 1.2114529 1.3535156 1.25 C 1.3036797 1.269274 1.2534784 1.29001 1.2050781 1.3125 C 1.1566782 1.33499 1.1095471 1.3588047 1.0625 1.3847656 C 1.015454 1.4107226 0.97023986 1.438403 0.92578125 1.46875 C 0.88132269 1.499098 0.83854021 1.5318913 0.796875 1.5664062 C 0.75520984 1.6009212 0.71444726 1.6373223 0.67578125 1.6757812 C 0.63711529 1.7142402 0.59991402 1.7546942 0.56445312 1.796875 C 0.52899216 1.839055 0.49494068 1.884009 0.46289062 1.9296875 C 0.43084056 1.9753655 0.39952712 2.0213595 0.37109375 2.0703125 C 0.34266038 2.1192655 0.31757953 2.1706521 0.29296875 2.2226562 C 0.26835797 2.2746602 0.24519185 2.3279802 0.22460938 2.3828125 C 0.2040257 2.4376464 0.18536703 2.4932713 0.16796875 2.5507812 C 0.15057037 2.6082912 0.13352861 2.6681167 0.11914062 2.7285156 C 0.090364654 2.8493138 0.068565522 2.9757442 0.05078125 3.109375 C 0.032996978 3.2430058 0.019911032 3.3830845 0.01171875 3.53125 C 0.0035264682 3.6794155 0 3.835598 0 4 L 0 12 C 0 12.164402 0.0035295782 12.320584 0.01171875 12.46875 C 0.019907942 12.616916 0.032999468 12.756993 0.05078125 12.890625 C 0.068563032 13.024257 0.090362794 13.150687 0.11914062 13.271484 C 0.13352951 13.331884 0.15056767 13.391709 0.16796875 13.449219 C 0.18536983 13.506729 0.2040207 13.562355 0.22460938 13.617188 C 0.24519305 13.672017 0.26835717 13.725339 0.29296875 13.777344 C 0.31758023 13.829344 0.3446133 13.880734 0.37304688 13.929688 C 0.40148045 13.978637 0.43084056 14.024638 0.46289062 14.070312 C 0.49494059 14.115992 0.52899247 14.160943 0.56445312 14.203125 C 0.59991379 14.245305 0.63711566 14.285755 0.67578125 14.324219 C 0.71444681 14.362679 0.75521019 14.399079 0.796875 14.433594 C 0.83853976 14.468114 0.88132294 14.5009 0.92578125 14.53125 C 0.97023951 14.5616 1.0154538 14.589284 1.0625 14.615234 C 1.109547 14.641194 1.1566781 14.66501 1.2050781 14.6875 C 1.2534781 14.70999 1.3036792 14.73073 1.3535156 14.75 C 1.4531885 14.78854 1.5561944 14.820456 1.6621094 14.847656 C 1.7680244 14.874856 1.8754622 14.898126 1.9882812 14.916016 C 2.1011004 14.933906 2.2175051 14.946421 2.3378906 14.957031 C 2.4582761 14.967641 2.5842766 14.975099 2.7128906 14.980469 C 2.8415047 14.985869 2.9738233 14.990068 3.1113281 14.992188 C 3.386338 14.996487 3.679594 14.9964 3.9941406 15 L 3.9980469 15 L 10.205078 15 A 3.5 3.5 0 0 1 9.8007812 14 L 4.0058594 14 L 4 14 C 3.6853702 13.9963 3.3972837 13.989919 3.1367188 13.980469 C 2.8761537 13.971069 2.6428534 13.958633 2.4375 13.939453 C 2.3348233 13.929853 2.2390494 13.91901 2.1503906 13.90625 C 2.0617317 13.89349 1.9807474 13.877748 1.90625 13.861328 C 1.8317521 13.844898 1.7633178 13.827231 1.703125 13.806641 C 1.6429321 13.786051 1.5906667 13.763521 1.5449219 13.738281 C 1.4990699 13.712981 1.4589219 13.686953 1.421875 13.658203 C 1.384828 13.629453 1.350848 13.597067 1.3203125 13.560547 C 1.2897775 13.524037 1.2626441 13.484137 1.2363281 13.435547 C 1.2100122 13.386957 1.1845462 13.330602 1.1601562 13.265625 C 1.1357636 13.200657 1.1133382 13.12557 1.09375 13.041016 C 1.0741618 12.956461 1.0568901 12.862746 1.0429688 12.757812 C 1.0290475 12.652878 1.0191107 12.536272 1.0117188 12.410156 C 1.0043269 12.28404 1 12.148097 1 12 L 1 4 C 1 3.8519029 1.0043298 3.7159594 1.0117188 3.5898438 C 1.0191087 3.463728 1.0290468 3.3471224 1.0429688 3.2421875 C 1.0568907 3.1372526 1.074162 3.0435389 1.09375 2.9589844 C 1.113338 2.8744295 1.1357663 2.7993497 1.1601562 2.734375 C 1.1845562 2.6693981 1.2100102 2.6130424 1.2363281 2.5644531 C 1.2626461 2.5158642 1.2897805 2.4759661 1.3203125 2.4394531 C 1.3508455 2.4029402 1.3848305 2.3705458 1.421875 2.3417969 C 1.458919 2.3130479 1.49907 2.2870157 1.5449219 2.2617188 C 1.5906668 2.2364798 1.642932 2.2139444 1.703125 2.1933594 C 1.7633183 2.1727734 1.8317525 2.1550976 1.90625 2.1386719 C 1.9807475 2.1222462 2.0617318 2.10651 2.1503906 2.09375 C 2.2390495 2.08099 2.3348231 2.0701349 2.4375 2.0605469 C 2.6428538 2.0413708 2.8761526 2.0289826 3.1367188 2.0195312 C 3.3972848 2.0100798 3.6853682 2.0036775 4 2 L 12 2 C 12.314629 2.00367 12.602899 2.0100813 12.863281 2.0195312 C 13.123665 2.0289812 13.355436 2.0413699 13.560547 2.0605469 C 13.663102 2.0701369 13.759111 2.08099 13.847656 2.09375 C 13.936196 2.10651 14.017391 2.1222459 14.091797 2.1386719 C 14.166207 2.1550979 14.234783 2.1727734 14.294922 2.1933594 C 14.355062 2.2139454 14.407381 2.2364788 14.453125 2.2617188 C 14.498975 2.2870187 14.540895 2.3130479 14.578125 2.3417969 C 14.615355 2.3705458 14.646954 2.4029412 14.677734 2.4394531 C 14.708514 2.4759651 14.737172 2.5158642 14.763672 2.5644531 C 14.790172 2.6130421 14.815454 2.6693952 14.839844 2.734375 C 14.864204 2.7993519 14.88666 2.8744294 14.90625 2.9589844 C 14.92583 3.0435393 14.943101 3.1372533 14.957031 3.2421875 C 14.970961 3.3471217 14.980881 3.4637288 14.988281 3.5898438 C 14.99568 3.7159597 15 3.8519029 15 4 L 15 10.197266 A 3.5 3.5 0 0 1 16 11.099609 L 16 4 C 16 3.835598 15.996501 3.6794155 15.988281 3.53125 C 15.980081 3.3830845 15.966999 3.2430058 15.949219 3.109375 C 15.931439 2.9757442 15.909639 2.8493136 15.880859 2.7285156 C 15.866469 2.6681167 15.849431 2.6082911 15.832031 2.5507812 C 15.814631 2.4932713 15.795981 2.437646 15.775391 2.3828125 C 15.754811 2.3279806 15.731641 2.2746603 15.707031 2.2226562 C 15.682421 2.1706523 15.657346 2.1192653 15.628906 2.0703125 C 15.600476 2.0213595 15.569159 1.9753655 15.537109 1.9296875 C 15.505059 1.8840095 15.471009 1.8390555 15.435547 1.796875 C 15.400087 1.754695 15.362887 1.714241 15.324219 1.6757812 C 15.285549 1.6373223 15.244789 1.6009212 15.203125 1.5664062 C 15.161469 1.5318911 15.118677 1.4990979 15.074219 1.46875 C 15.02976 1.4384021 14.984546 1.410723 14.9375 1.3847656 C 14.890453 1.358807 14.843322 1.3349885 14.794922 1.3125 C 14.746522 1.290012 14.696322 1.269272 14.646484 1.25 C 14.546814 1.211455 14.443805 1.1795467 14.337891 1.1523438 C 14.231976 1.1251408 14.124538 1.1018774 14.011719 1.0839844 C 13.8989 1.0660914 13.782495 1.0535837 13.662109 1.0429688 C 13.541724 1.0323538 13.415724 1.0248982 13.287109 1.0195312 C 13.158496 1.0141613 13.026177 1.0099615 12.888672 1.0078125 C 12.613661 1.003508 12.320409 1.00363 12.005859 1 L 12.001953 1 L 3.9980469 1 L 3.9941406 1 z " />
  <path
     id="path8"
     class="ColorScheme-Text"
     style="fill:url(#oomox);stroke-width:0.350427"
     d="m 13.658172,10.400444 -0.921875,0.138672 v 0.283203 a 2.4465,2.4524813 0 0 0 -0.378906,0.103516 2.4465,2.4524813 0 0 0 -0.357422,0.164062 l -0.226563,-0.271484 -0.701171,0.597656 0.222656,0.267578 a 2.4465,2.4524813 0 0 0 -0.222656,0.322266 c -0.03356,0.0583 -0.06445,0.117717 -0.0918,0.177734 -0.02735,0.06002 -0.05117,0.120635 -0.07422,0.181641 l -0.351562,-0.0625 -0.154297,0.910156 0.347656,0.0625 c 0.0012,0.06561 0.0054,0.13032 0.01172,0.195312 0.0063,0.06499 0.01399,0.131186 0.02539,0.195313 0.0114,0.06413 0.02651,0.126434 0.04297,0.189453 0.01646,0.06302 0.03514,0.125834 0.05664,0.1875 l -0.3125,0.181641 0.466797,0.796875 0.308594,-0.179688 c 0.0417,0.04819 0.08516,0.09527 0.130859,0.140625 0.0457,0.04535 0.09291,0.08875 0.142578,0.13086 0.04966,0.0421 0.102654,0.08265 0.156249,0.121093 0.0536,0.03844 0.108523,0.07501 0.166016,0.109375 l -0.123047,0.341797 0.867188,0.310547 0.123047,-0.337891 c 0.06488,0.01043 0.130382,0.0181 0.195312,0.02344 0.06493,0.0053 0.128597,0.0076 0.19336,0.0078 0.06476,2.02e-4 0.130937,-8.26e-4 0.195312,-0.0059 0.06438,-0.005 0.127638,-0.0132 0.191406,-0.02344 L 13.710903,16 14.574185,15.679688 14.453091,15.345703 c 0.05531,-0.03293 0.109455,-0.06797 0.162109,-0.105468 0.05265,-0.03749 0.104514,-0.07722 0.154297,-0.119141 0.04978,-0.04192 0.09783,-0.0866 0.144531,-0.132812 0.0467,-0.04621 0.09136,-0.09417 0.134766,-0.144532 l 0.3125,0.179688 0.457031,-0.800782 -0.308594,-0.179687 c 0.02174,-0.06281 0.04019,-0.125854 0.05664,-0.189453 0.01646,-0.0636 0.03176,-0.127273 0.04297,-0.191406 0.01121,-0.06413 0.0194,-0.128945 0.02539,-0.19336 0.006,-0.06442 0.0089,-0.128916 0.0098,-0.193359 L 16,13.212891 l -0.166016,-0.910156 -0.349609,0.0625 c -0.02297,-0.06061 -0.04818,-0.121154 -0.07617,-0.179688 -0.02799,-0.05853 -0.05906,-0.115598 -0.0918,-0.171875 -0.03274,-0.05628 -0.06826,-0.110224 -0.105469,-0.164062 -0.03721,-0.05384 -0.07578,-0.106988 -0.117187,-0.158203 l 0.234341,-0.279244 -0.710938,-0.589844 -0.226562,0.271484 a 2.443,2.4489727 0 0 0 -0.355469,-0.164062 2.443,2.4489727 0 0 0 -0.376953,-0.105469 z m -0.462891,0.730469 a 2.1,2.1051341 0 0 1 0.19336,0.0098 2.1,2.1051341 0 0 1 0.193359,0.02539 2.1,2.1051341 0 0 1 0.1875,0.04492 2.1,2.1051341 0 0 1 0.183594,0.0625 2.1,2.1051341 0 0 1 0.177734,0.07813 2.1,2.1051341 0 0 1 0.169922,0.0957 2.1,2.1051341 0 0 1 0.160156,0.109375 2.1,2.1051341 0 0 1 0.148438,0.123047 2.1,2.1051341 0 0 1 0.138672,0.138671 2.1,2.1051341 0 0 1 0.123046,0.148438 2.1,2.1051341 0 0 1 0.109376,0.162109 2.1,2.1051341 0 0 1 0.09375,0.169922 2.1,2.1051341 0 0 1 0.07812,0.177735 2.1,2.1051341 0 0 1 0.0625,0.183593 2.1,2.1051341 0 0 1 0.04492,0.189454 2.1,2.1051341 0 0 1 0.02539,0.193359 2.1,2.1051341 0 0 1 0.0098,0.193359 2.1,2.1051341 0 0 1 -0.07227,0.544922 2.1,2.1051341 0 0 1 -0.208984,0.507813 2.1,2.1051341 0 0 1 -0.333985,0.435547 2.1,2.1051341 0 0 1 -0.435547,0.333984 2.1,2.1051341 0 0 1 -0.505859,0.208984 2.1,2.1051341 0 0 1 -0.542969,0.07227 2.1,2.1051341 0 0 1 -0.542969,-0.07227 2.1,2.1051341 0 0 1 -0.505882,-0.208989 2.1,2.1051341 0 0 1 -0.435546,-0.333984 2.1,2.1051341 0 0 1 -0.333984,-0.435547 2.1,2.1051341 0 0 1 -0.208985,-0.507813 2.1,2.1051341 0 0 1 -0.07226,-0.544922 2.1,2.1051341 0 0 1 0.07226,-0.544922 2.1,2.1051341 0 0 1 0.208985,-0.507812 2.1,2.1051341 0 0 1 0.333984,-0.435547 2.1,2.1051341 0 0 1 0.433593,-0.335937 2.1,2.1051341 0 0 1 0.507812,-0.208985 2.1,2.1051341 0 0 1 0.542969,-0.07227 z m -0.123047,0.355468 a 1.74615,1.7504191 0 0 0 -0.417968,0.08008 1.74615,1.7504191 0 0 0 -0.388672,0.181641 1.74615,1.7504191 0 0 0 -0.330078,0.267578 1.74615,1.7504191 0 0 0 -0.257812,0.341797 1.75455,1.7588396 0 0 0 -0.173828,0.423828 1.75455,1.7588396 0 0 0 -0.05859,0.453125 1.75455,1.7588396 0 0 0 0.06055,0.455078 1.75455,1.7588396 0 0 0 0.173828,0.421875 1.75455,1.7588396 0 0 0 0.279296,0.363282 1.75455,1.7588396 0 0 0 0.361328,0.279296 1.7507,1.7549802 0 0 0 0.421875,0.175782 1.7507,1.7549802 0 0 0 0.453125,0.05859 1.7507,1.7549802 0 0 0 0.453125,-0.05859 1.7507,1.7549802 0 0 0 0.421875,-0.175782 1.7507,1.7549802 0 0 0 0.361328,-0.277343 1.7507,1.7549802 0 0 0 0.279297,-0.363281 1.7535,1.757787 0 0 0 0.07813,-0.152344 1.7535,1.757787 0 0 0 0.0625,-0.16211 1.7535,1.757787 0 0 0 0.04687,-0.164062 1.7535,1.757787 0 0 0 0.03125,-0.169922 1.7535,1.757787 0 0 0 0.01367,-0.171875 1.7535,1.757787 0 0 0 -0.0039,-0.171875 1.7535,1.757787 0 0 0 -0.01953,-0.171875 1.7535,1.757787 0 0 0 -0.03711,-0.167969 1.7535,1.757787 0 0 0 -0.05273,-0.164063 1.7535,1.757787 0 0 0 -0.06837,-0.156249 1.7535,1.757787 0 0 0 -0.08203,-0.150391 1.7535,1.757787 0 0 0 -0.09766,-0.142578 1.7535,1.757787 0 0 0 -0.111328,-0.130859 1.7535,1.757787 0 0 0 -0.123047,-0.119141 1.7535,1.757787 0 0 0 -0.134766,-0.107422 1.7535,1.757787 0 0 0 -0.144531,-0.09375 1.7416,1.7458579 0 0 0 -0.480469,-0.189453 1.7416,1.7458579 0 0 0 -0.515625,-0.04102 z m 0.123047,0.345704 a 1.4,1.4034228 0 0 1 0.15625,0.0098 1.4,1.4034228 0 0 1 0.15625,0.02539 1.4,1.4034228 0 0 1 0.150391,0.04297 1.4,1.4034228 0 0 1 0.144531,0.06055 1.4,1.4034228 0 0 1 0.138672,0.07617 1.4,1.4034228 0 0 1 0.126953,0.0918 1.4,1.4034228 0 0 1 0.117188,0.105468 1.4,1.4034228 0 0 1 0.105468,0.117188 1.4,1.4034228 0 0 1 0.08984,0.126953 1.4,1.4034228 0 0 1 0.07617,0.138672 1.4,1.4034228 0 0 1 0.06055,0.146485 1.4,1.4034228 0 0 1 0.04297,0.15039 1.4,1.4034228 0 0 1 0.02734,0.154297 1.4,1.4034228 0 0 1 0.0078,0.158203 1.4,1.4034228 0 0 1 -0.06836,0.433594 1.4,1.4034228 0 0 1 -0.199218,0.390625 1.4,1.4034228 0 0 1 -0.310547,0.310547 1.4,1.4034228 0 0 1 -0.390625,0.199219 1.4,1.4034228 0 0 1 -0.431641,0.06836 1.4,1.4034228 0 0 1 -0.43164,-0.06836 1.4,1.4034228 0 0 1 -0.390625,-0.199219 1.4,1.4034228 0 0 1 -0.310547,-0.310547 1.4,1.4034228 0 0 1 -0.199219,-0.390625 1.4,1.4034228 0 0 1 -0.06836,-0.433594 1.4,1.4034228 0 0 1 0.06836,-0.433593 1.4,1.4034228 0 0 1 0.199219,-0.392579 1.4,1.4034228 0 0 1 0.308593,-0.310547 1.4,1.4034228 0 0 1 0.390626,-0.199219 1.4,1.4034228 0 0 1 0.433593,-0.06836 z" />
  <metadata
     id="metadata269">
    <rdf:RDF>
      <cc:Work
         rdf:about="">
        <dc:creator>
          <cc:Agent>
            <dc:title>dreifacherspass</dc:title>
          </cc:Agent>
        </dc:creator>
        <cc:license
           rdf:resource="http://creativecommons.org/licenses/by-sa/4.0/" />
      </cc:Work>
      <cc:License
         rdf:about="http://creativecommons.org/licenses/by-sa/4.0/">
        <cc:permits
           rdf:resource="http://creativecommons.org/ns#Reproduction" />
        <cc:permits
           rdf:resource="http://creativecommons.org/ns#Distribution" />
        <cc:requires
           rdf:resource="http://creativecommons.org/ns#Notice" />
        <cc:requires
           rdf:resource="http://creativecommons.org/ns#Attribution" />
        <cc:permits
           rdf:resource="http://creativecommons.org/ns#DerivativeWorks" />
        <cc:requires
           rdf:resource="http://creativecommons.org/ns#ShareAlike" />
      </cc:License>
    </rdf:RDF>
  </metadata>
</svg>
