<?xml version="1.0" encoding="UTF-8" standalone="no"?>
<svg
   width="48"
   height="48"
   version="1.1"
   id="svg69"
   xmlns="http://www.w3.org/2000/svg"
   xmlns:svg="http://www.w3.org/2000/svg"
   xmlns:rdf="http://www.w3.org/1999/02/22-rdf-syntax-ns#"
   xmlns:cc="http://creativecommons.org/ns#"
   xmlns:dc="http://purl.org/dc/elements/1.1/">
  <defs
     id="defs61">
    <style
       id="current-color-scheme"
       type="text/css">
   .ColorScheme-Text { color: #0abdc6; } .ColorScheme-Highlight { color:#5294e2; }
  </style>
    <linearGradient
       id="arrongin"
       x1="0"
       x2="0"
       y1="0"
       y2="1">
      <stop
         offset="0%"
         style="stop-color:#dd9b44; stop-opacity:1"
         id="stop3" />
      <stop
         offset="100%"
         style="stop-color:#ad6c16; stop-opacity:1"
         id="stop5" />
    </linearGradient>
    <linearGradient
       id="aurora"
       x1="0"
       x2="0"
       y1="0"
       y2="1">
      <stop
         offset="0%"
         style="stop-color:#09D4DF; stop-opacity:1"
         id="stop8" />
      <stop
         offset="100%"
         style="stop-color:#9269F4; stop-opacity:1"
         id="stop10" />
    </linearGradient>
    <linearGradient
       id="cyberneon"
       x1="0"
       x2="0"
       y1="0"
       y2="1">
      <stop
         offset="0"
         style="stop-color:#0abdc6; stop-opacity:1"
         id="stop13" />
      <stop
         offset="1"
         style="stop-color:#ea00d9; stop-opacity:1"
         id="stop15" />
    </linearGradient>
    <linearGradient
       id="fitdance"
       x1="0"
       x2="0"
       y1="0"
       y2="1">
      <stop
         offset="0%"
         style="stop-color:#1AD6AB; stop-opacity:1"
         id="stop18" />
      <stop
         offset="100%"
         style="stop-color:#329DB6; stop-opacity:1"
         id="stop20" />
    </linearGradient>
    <linearGradient
       id="oomox"
       x1="-35.658993"
       x2="-35.658993"
       y1="-35.884087"
       y2="6.8777132"
       gradientTransform="matrix(1.0991119,0,0,0.96172287,39.693221,37.948046)"
       gradientUnits="userSpaceOnUse">
      <stop
         offset="0%"
         style="stop-color:#0abdc6; stop-opacity:1"
         id="stop23" />
      <stop
         offset="100%"
         style="stop-color:#b800ff; stop-opacity:1"
         id="stop25" />
    </linearGradient>
    <linearGradient
       id="rainblue"
       x1="0"
       x2="0"
       y1="0"
       y2="1">
      <stop
         offset="0%"
         style="stop-color:#00F260; stop-opacity:1"
         id="stop28" />
      <stop
         offset="100%"
         style="stop-color:#0575E6; stop-opacity:1"
         id="stop30" />
    </linearGradient>
    <linearGradient
       id="sunrise"
       x1="0"
       x2="0"
       y1="0"
       y2="1">
      <stop
         offset="0%"
         style="stop-color: #FF8501; stop-opacity:1"
         id="stop33" />
      <stop
         offset="100%"
         style="stop-color: #FFCB01; stop-opacity:1"
         id="stop35" />
    </linearGradient>
    <linearGradient
       id="telinkrin"
       x1="0"
       x2="0"
       y1="0"
       y2="1">
      <stop
         offset="0%"
         style="stop-color: #b2ced6; stop-opacity:1"
         id="stop38" />
      <stop
         offset="100%"
         style="stop-color: #6da5b7; stop-opacity:1"
         id="stop40" />
    </linearGradient>
    <linearGradient
       id="60spsycho"
       x1="0"
       x2="0"
       y1="0"
       y2="1">
      <stop
         offset="0%"
         style="stop-color: #df5940; stop-opacity:1"
         id="stop43" />
      <stop
         offset="25%"
         style="stop-color: #d8d15f; stop-opacity:1"
         id="stop45" />
      <stop
         offset="50%"
         style="stop-color: #e9882a; stop-opacity:1"
         id="stop47" />
      <stop
         offset="100%"
         style="stop-color: #279362; stop-opacity:1"
         id="stop49" />
    </linearGradient>
    <linearGradient
       id="90ssummer"
       x1="0"
       x2="0"
       y1="0"
       y2="1">
      <stop
         offset="0%"
         style="stop-color: #f618c7; stop-opacity:1"
         id="stop52" />
      <stop
         offset="20%"
         style="stop-color: #94ffab; stop-opacity:1"
         id="stop54" />
      <stop
         offset="50%"
         style="stop-color: #fbfd54; stop-opacity:1"
         id="stop56" />
      <stop
         offset="100%"
         style="stop-color: #0f83ae; stop-opacity:1"
         id="stop58" />
    </linearGradient>
  </defs>
  <path
     id="path257"
     style="color:#0abdc6;fill:url(#oomox);stroke-width:1.02938"
     class="ColorScheme-Text"
     d="M 12.232789,3.4375 C 8.5368293,3.4800954 5.8322954,3.3476008 3.6210943,4.5677497 2.5155083,5.1777496 1.6434786,6.2109494 1.15979,7.499512 0.67607257,8.788104 0.5,10.318273 0.5,12.250001 V 35.75 c 0,1.931726 0.17595537,3.461926 0.65979,4.75049 0.4837184,1.288561 1.3557186,2.321791 2.4613043,2.93176 2.2112011,1.220002 4.915765,1.087451 8.6116947,1.13025 h 0.01149 23.511475 0.01146 c 3.69593,-0.04259 6.400495,0.08989 8.611695,-1.13025 1.105587,-0.609998 1.977587,-1.643199 2.461305,-2.93176 C 47.323397,39.211897 47.5,37.681726 47.5,35.75 V 12.250001 C 47.5,10.318273 47.324044,8.788104 46.840211,7.499512 46.356522,6.2109494 45.484493,5.1777496 44.378906,4.5677497 42.167706,3.3476892 39.46317,3.4801529 35.767211,3.4375 H 35.755755 12.24428 Z m 0.01721,2.9375 H 35.75 c 3.696897,0.043181 6.131077,0.1756596 7.206055,0.768799 0.538764,0.2972753 0.849404,0.624914 1.135984,1.3884284 0.2862,0.7634848 0.470461,1.9776296 0.470461,3.7177736 V 35.75 c 0,1.740143 -0.183887,2.954317 -0.470461,3.717773 -0.2867,0.763486 -0.597217,1.091182 -1.135984,1.388427 C 41.881077,41.449311 39.4469,41.581789 35.75,41.625 H 12.267213 12.250002 C 8.5530728,41.581819 6.1132162,41.44934 5.0382095,40.8562 4.4994433,40.558955 4.1945425,40.231259 3.90796,39.467773 3.6213484,38.704317 3.4375012,37.490143 3.4375012,35.75 V 12.250001 c 0,-1.740144 0.1838757,-2.9543185 0.4704588,-3.7177736 C 4.19466,7.7687418 4.4994433,7.4410443 5.0382095,7.143799 6.1132162,6.5506892 8.5530728,6.4182112 12.250003,6.375 Z m -2.4727777,4.761964 a 1.4688969,1.4688969 0 0 0 -0.8032226,2.656371 l 4.3087153,3.230103 -4.3087153,3.230102 a 1.4710459,1.4710459 0 1 0 1.7670903,2.352296 l 5.874999,-4.406251 a 1.4688969,1.4688969 0 0 0 0,-2.352295 L 10.741089,11.441041 A 1.4688969,1.4688969 0 0 0 9.7772213,11.136964 Z m 9.8911127,8.829711 c -0.550563,0.05558 -0.975341,0.518654 -0.975341,1.084351 v 0.763061 c 0,0.603411 0.486677,1.090088 1.090088,1.090088 h 6.632323 c 0.603411,0 1.090088,-0.486677 1.090088,-1.090088 v -0.763061 c 0,-0.603411 -0.486677,-1.084351 -1.090088,-1.084351 h -6.632323 c -0.03771,0 -0.07804,-0.0037 -0.114747,0 z m 16.489015,3.293213 -2.708008,0.407349 v 0.831908 a 7.1865937,7.2041638 0 0 0 -2.162966,0.786012 l -0.665526,-0.797485 -2.059693,1.755615 0.654052,0.78601 a 7.1865937,7.2041638 0 0 0 -0.654052,0.946656 c -0.197161,0.34252 -0.352242,0.697252 -0.48767,1.055664 l -1.032716,-0.183594 -0.453246,2.673584 1.02124,0.183594 c 0.01457,0.770958 0.148961,1.530184 0.401611,2.25476 l -0.917968,0.53357 1.371215,2.340821 0.906495,-0.527834 c 0.489925,0.56625 1.074338,1.070698 1.749878,1.474487 l -0.361451,1.004029 2.547362,0.912232 0.361451,-0.992555 c 0.762301,0.122582 1.528434,0.126165 2.277711,0.0059 l 0.367187,0.998292 2.535891,-0.940917 -0.355714,-0.981081 c 0.649931,-0.386886 1.239869,-0.88273 1.749878,-1.474487 l 0.917969,0.527834 1.342528,-2.352295 -0.906495,-0.527833 c 0.255475,-0.738029 0.38624,-1.497558 0.395875,-2.25476 l 1.044191,-0.183594 -0.487672,-2.673584 -1.026977,0.183593 c -0.269874,-0.712169 -0.66094,-1.37772 -1.147461,-1.979508 l 0.688477,-0.820434 -2.088381,-1.732667 -0.665525,0.797486 a 7.1763125,7.1938573 0 0 0 -2.15149,-0.791748 z m -1.359742,2.145752 a 6.16875,6.1838314 0 0 1 6.167601,6.184813 6.16875,6.1838314 0 0 1 -6.167601,6.179078 6.16875,6.1838314 0 0 1 -6.167605,-6.179078 6.16875,6.1838314 0 0 1 6.167605,-6.184813 z m -0.361451,1.044189 a 5.1293156,5.1418561 0 0 0 -4.096435,2.558838 5.1539906,5.1665913 0 0 0 1.887573,7.039671 5.1426812,5.1552543 0 0 0 7.022461,-1.881833 5.1509062,5.1634993 0 0 0 -1.887573,-7.039674 5.11595,5.1284576 0 0 0 -2.926026,-0.677002 z m 0.361451,1.015503 a 4.1125,4.1225545 0 0 1 4.113648,4.125121 4.1125,4.1225545 0 0 1 -4.113648,4.119385 4.1125,4.1225545 0 0 1 -4.113649,-4.119385 4.1125,4.1225545 0 0 1 4.113649,-4.125121 z" />
  <metadata
     id="metadata269">
    <rdf:RDF>
      <cc:Work
         rdf:about="">
        <dc:creator>
          <cc:Agent>
            <dc:title>dreifacherspass</dc:title>
          </cc:Agent>
        </dc:creator>
        <cc:license
           rdf:resource="http://creativecommons.org/licenses/by-sa/4.0/" />
      </cc:Work>
      <cc:License
         rdf:about="http://creativecommons.org/licenses/by-sa/4.0/">
        <cc:permits
           rdf:resource="http://creativecommons.org/ns#Reproduction" />
        <cc:permits
           rdf:resource="http://creativecommons.org/ns#Distribution" />
        <cc:requires
           rdf:resource="http://creativecommons.org/ns#Notice" />
        <cc:requires
           rdf:resource="http://creativecommons.org/ns#Attribution" />
        <cc:permits
           rdf:resource="http://creativecommons.org/ns#DerivativeWorks" />
        <cc:requires
           rdf:resource="http://creativecommons.org/ns#ShareAlike" />
      </cc:License>
    </rdf:RDF>
  </metadata>
</svg>
