<?xml version="1.0" encoding="UTF-8" standalone="no"?>
<svg
   width="48"
   version="1.1"
   viewBox="0 0 44.999998 44.999998"
   height="48"
   id="svg2"
   xmlns="http://www.w3.org/2000/svg"
   xmlns:svg="http://www.w3.org/2000/svg"
   xmlns:rdf="http://www.w3.org/1999/02/22-rdf-syntax-ns#"
   xmlns:cc="http://creativecommons.org/ns#"
   xmlns:dc="http://purl.org/dc/elements/1.1/">
  <defs
     id="defs4">
    <style
       id="current-color-scheme"
       type="text/css">
      .ColorScheme-Text { color: #0abdc6; } .ColorScheme-Highlight { color:#5294e2; }
     </style>
    <linearGradient
       id="arrongin"
       x1="0%"
       x2="0%"
       y1="0%"
       y2="100%">
      <stop
         offset="0%"
         style="stop-color:#dd9b44; stop-opacity:1"
         id="stop9192" />
      <stop
         offset="100%"
         style="stop-color:#ad6c16; stop-opacity:1"
         id="stop9194" />
    </linearGradient>
    <linearGradient
       id="aurora"
       x1="0%"
       x2="0%"
       y1="0%"
       y2="100%">
      <stop
         offset="0%"
         style="stop-color:#09D4DF; stop-opacity:1"
         id="stop9197" />
      <stop
         offset="100%"
         style="stop-color:#9269F4; stop-opacity:1"
         id="stop9199" />
    </linearGradient>
    <linearGradient
       id="cyberneon"
       x1="0%"
       x2="0%"
       y1="0%"
       y2="100%">
      <stop
         offset="0"
         style="stop-color:#0abdc6; stop-opacity:1"
         id="stop9202" />
      <stop
         offset="1"
         style="stop-color:#ea00d9; stop-opacity:1"
         id="stop9204" />
    </linearGradient>
    <linearGradient
       id="fitdance"
       x1="0%"
       x2="0%"
       y1="0%"
       y2="100%">
      <stop
         offset="0%"
         style="stop-color:#1AD6AB; stop-opacity:1"
         id="stop9207" />
      <stop
         offset="100%"
         style="stop-color:#329DB6; stop-opacity:1"
         id="stop9209" />
    </linearGradient>
    <linearGradient
       id="oomox"
       x1="0%"
       x2="0%"
       y1="0%"
       y2="100%">
      <stop
         offset="0%"
         style="stop-color:#0abdc6; stop-opacity:1"
         id="stop9212" />
      <stop
         offset="100%"
         style="stop-color:#b800ff; stop-opacity:1"
         id="stop9214" />
    </linearGradient>
    <linearGradient
       id="rainblue"
       x1="0%"
       x2="0%"
       y1="0%"
       y2="100%">
      <stop
         offset="0%"
         style="stop-color:#00F260; stop-opacity:1"
         id="stop9217" />
      <stop
         offset="100%"
         style="stop-color:#0575E6; stop-opacity:1"
         id="stop9219" />
    </linearGradient>
    <linearGradient
       id="sunrise"
       x1="0%"
       x2="0%"
       y1="0%"
       y2="100%">
      <stop
         offset="0%"
         style="stop-color: #FF8501; stop-opacity:1"
         id="stop9222" />
      <stop
         offset="100%"
         style="stop-color: #FFCB01; stop-opacity:1"
         id="stop9224" />
    </linearGradient>
    <linearGradient
       id="telinkrin"
       x1="0%"
       x2="0%"
       y1="0%"
       y2="100%">
      <stop
         offset="0%"
         style="stop-color: #b2ced6; stop-opacity:1"
         id="stop9227" />
      <stop
         offset="100%"
         style="stop-color: #6da5b7; stop-opacity:1"
         id="stop9229" />
    </linearGradient>
    <linearGradient
       id="60spsycho"
       x1="0%"
       x2="0%"
       y1="0%"
       y2="100%">
      <stop
         offset="0%"
         style="stop-color: #df5940; stop-opacity:1"
         id="stop9232" />
      <stop
         offset="25%"
         style="stop-color: #d8d15f; stop-opacity:1"
         id="stop9234" />
      <stop
         offset="50%"
         style="stop-color: #e9882a; stop-opacity:1"
         id="stop9236" />
      <stop
         offset="100%"
         style="stop-color: #279362; stop-opacity:1"
         id="stop9238" />
    </linearGradient>
    <linearGradient
       id="90ssummer"
       x1="0%"
       x2="0%"
       y1="0%"
       y2="100%">
      <stop
         offset="0%"
         style="stop-color: #f618c7; stop-opacity:1"
         id="stop9241" />
      <stop
         offset="20%"
         style="stop-color: #94ffab; stop-opacity:1"
         id="stop9243" />
      <stop
         offset="50%"
         style="stop-color: #fbfd54; stop-opacity:1"
         id="stop9245" />
      <stop
         offset="100%"
         style="stop-color: #0f83ae; stop-opacity:1"
         id="stop9247" />
    </linearGradient>
    <filter
       id="filter3977-9"
       style="color-interpolation-filters:sRGB"
       x="-0.018782987"
       y="-0.033229594"
       width="1.037566"
       height="1.0664592">
      <feGaussianBlur
         stdDeviation="1.6009017"
         id="feGaussianBlur3979-7" />
    </filter>
  </defs>
  <metadata
     id="metadata84">
    <rdf:RDF>
      <cc:Work
         rdf:about="">
        <dc:format>image/svg+xml</dc:format>
        <dc:type
           rdf:resource="http://purl.org/dc/dcmitype/StillImage" />
        <cc:license
           rdf:resource="http://creativecommons.org/licenses/by-sa/4.0/" />
        <dc:creator>
          <cc:Agent>
            <dc:title>dreifacherspass</dc:title>
          </cc:Agent>
        </dc:creator>
      </cc:Work>
      <cc:License
         rdf:about="http://creativecommons.org/licenses/by-sa/4.0/">
        <cc:permits
           rdf:resource="http://creativecommons.org/ns#Reproduction" />
        <cc:permits
           rdf:resource="http://creativecommons.org/ns#Distribution" />
        <cc:requires
           rdf:resource="http://creativecommons.org/ns#Notice" />
        <cc:requires
           rdf:resource="http://creativecommons.org/ns#Attribution" />
        <cc:permits
           rdf:resource="http://creativecommons.org/ns#DerivativeWorks" />
        <cc:requires
           rdf:resource="http://creativecommons.org/ns#ShareAlike" />
      </cc:License>
    </rdf:RDF>
  </metadata>
  <path
     d="m 51.586648,43.481196 -0.653957,-0.552231 c -0.201358,-0.170237 -0.498254,-0.161932 -0.689231,0.01869 l -0.361233,0.338397 c -0.30516,-0.1474 -0.629024,-0.251203 -0.96329,-0.311409 L 48.817252,42.47639 c -0.0519,-0.257431 -0.290648,-0.435972 -0.552273,-0.415211 l -0.853259,0.07266 c -0.261583,0.02284 -0.467112,0.23667 -0.475417,0.500329 l -0.01659,0.506558 C 46.591675,43.259058 46.282343,43.42099 46,43.624444 l -0.431798,-0.286496 c -0.220103,-0.145324 -0.512807,-0.103803 -0.683023,0.09758 l -0.552231,0.658109 c -0.170257,0.201378 -0.161952,0.498254 0.01865,0.689251 l 0.37786,0.402734 c -0.130812,0.2948 -0.224235,0.604153 -0.278191,0.921769 l -0.539775,0.110031 c -0.257431,0.0519 -0.435972,0.290648 -0.415212,0.552252 l 0.07266,0.853259 c 0.02284,0.261583 0.23667,0.467112 0.500329,0.475416 l 0.583372,0.01867 c 0.10592,0.278192 0.244995,0.541872 0.413135,0.788902 l -0.32592,0.492025 c -0.145324,0.220062 -0.103803,0.512786 0.09755,0.683023 l 0.653958,0.55223 c 0.201398,0.170237 0.498253,0.161933 0.689271,-0.01868 l 0.427667,-0.400679 c 0.280268,0.130792 0.575047,0.228366 0.878152,0.286496 l 0.118355,0.585448 c 0.0519,0.257431 0.290649,0.435972 0.552231,0.415211 l 0.853259,-0.07266 c 0.261583,-0.02283 0.467113,-0.236649 0.475417,-0.500329 l 0.01868,-0.573013 c 0.311409,-0.110031 0.606188,-0.259507 0.878152,-0.444254 l 0.471285,0.311408 c 0.220061,0.145323 0.512765,0.103802 0.683022,-0.09757 L 52.089094,49.4706 c 0.170216,-0.201377 0.161912,-0.498253 -0.01869,-0.689251 L 51.69047,48.378614 c 0.139116,-0.294799 0.240864,-0.606208 0.298952,-0.925941 l 0.519014,-0.105879 c 0.257431,-0.0519 0.435972,-0.290648 0.415211,-0.552252 l -0.07266,-0.853261 c -0.02284,-0.261583 -0.23667,-0.467112 -0.500329,-0.475417 l -0.521091,-0.01661 c -0.107975,-0.303105 -0.253299,-0.58958 -0.433895,-0.855336 l 0.284398,-0.427667 c 0.149497,-0.220021 0.107976,-0.514821 -0.09342,-0.685058 z m -3.215769,4.932689 c -0.921769,0.07891 -1.735624,-0.608285 -1.812418,-1.530033 -0.07891,-0.921769 0.608305,-1.735604 1.530033,-1.812418 0.921768,-0.07889 1.735624,0.608305 1.812417,1.530053 0.07891,0.92179 -0.608305,1.735604 -1.530032,1.812398 z"
     id="path7"
     class="ColorScheme-Text"
     style="fill:url(#oomox);stroke-width:0.0207606;fill-opacity:1"
     transform="matrix(1.1432411,0,0,1.1432411,-15.975116,-14.597424)" />
  <path
     id="path1297"
     class="ColorScheme-Text"
     style="fill:url(#oomox);stroke-width:0.10413;font-size:8.89689px;line-height:1"
     d="m 46.47483,37.386302 q 0.569088,0 0.860148,-0.264996 0.295405,-0.264995 0.295405,-0.777609 0,-0.321469 -0.204177,-0.469172 -0.199832,-0.152046 -0.634251,-0.152046 H 46.10123 l -0.330158,1.663823 z m -0.925312,1.155553 -0.482204,2.454464 h -1.672511 l 1.264158,-6.485868 h 2.471841 q 1.068669,0 1.62038,0.399665 0.551712,0.399665 0.551712,1.177274 0,0.786298 -0.434419,1.294567 -0.434418,0.50827 -1.177274,0.582121 0.338847,0.06951 0.564744,0.347535 0.225898,0.273683 0.395321,0.842772 l 0.551712,1.841934 H 47.539155 L 47.052606,39.384626 Q 46.904904,38.902422 46.692039,38.72431 46.483518,38.541855 46.083853,38.541855 Z m -6.968072,-4.031404 h 4.509263 l -0.247618,1.264158 h -2.836753 l -0.234585,1.207683 h 2.671673 l -0.251963,1.264158 h -2.667329 l -0.286716,1.485711 h 2.92798 l -0.23893,1.264158 h -4.60918 z m -6.894221,0 h 1.672511 l -0.45614,2.332828 2.758557,-2.332828 h 2.020046 l -3.718622,3.149534 2.801999,3.336334 h -1.963571 l -2.180781,-2.706427 -0.525646,2.706427 h -1.672511 z m -3.966241,5.30425 H 25.13185 l -0.642939,1.181618 h -1.715953 l 3.666492,-6.485868 h 1.911441 l 1.146865,6.485868 h -1.589972 z m -1.959227,-1.177274 h 1.742018 l -0.390977,-2.497906 z m -9.813513,-4.126976 h 2.0548 l 0.834083,3.444939 2.189469,-3.444939 h 2.137339 l -1.264158,6.485868 H 20.31415 l 0.925311,-4.787291 -2.250288,3.54051 h -0.899246 l -0.894902,-3.54051 -0.925311,4.787291 h -1.585627 z"
     transform="matrix(1.1432411,0,0,1.1432411,-15.975116,-14.597424)" />
  <path
     style="overflow:visible;fill:url(#oomox);stroke-width:21.57676658;fill-opacity:1;font-variation-settings:normal;opacity:1;vector-effect:none;stroke:none;stroke-linecap:butt;stroke-linejoin:miter;stroke-miterlimit:4;stroke-dasharray:none;stroke-dashoffset:0;stroke-opacity:1;-inkscape-stroke:none;stop-color:#000000;stop-opacity:1"
     d="m 343.52274,251.09395 h -33.94705 v -1.84385 -1.84384 l 3.21913,-0.002 c 1.7705,-0.001 3.8916,-0.19838 4.71351,-0.43805 1.15165,-0.33581 1.6215,-0.75518 2.04853,-1.82839 0.46555,-1.16989 0.55413,-7.63898 0.55413,-40.47502 0,-28.10388 -0.12444,-39.45741 -0.443,-40.417 -0.30029,-0.90455 -0.86192,-1.51826 -1.74335,-1.905 -0.78553,-0.34465 -2.69566,-0.57053 -4.82465,-0.57053 h -3.5243 v -2.04872 -2.04873 h 3.51178 3.51175 l -0.007,-1.74139 c -0.004,-0.95779 -0.26196,-3.74828 -0.57282,-6.20111 -0.31086,-2.45286 -0.84968,-5.48732 -1.19738,-6.74329 -0.3477,-1.25595 -1.04703,-3.14325 -1.55407,-4.19396 -0.50705,-1.05073 -1.50119,-2.42456 -2.20922,-3.05296 -0.70802,-0.6284 -2.06779,-1.50667 -3.02171,-1.95171 -0.9539,-0.44506 -3.32435,-1.05994 -5.26764,-1.3664 -1.94329,-0.30648 -6.5286,-0.55852 -10.18957,-0.56012 -5.13586,-0.002 -6.82931,0.12994 -7.41373,0.57862 -0.73965,0.5679 -0.75983,1.52779 -0.86058,40.93222 -0.065,25.39204 0.0374,40.73878 0.2759,41.39758 0.20847,0.57579 0.95724,1.37539 1.66393,1.77689 1.0244,0.58199 2.45175,0.75972 7.0403,0.87668 l 5.75539,0.14671 v 1.80628 1.80626 h -19.3147 -19.31471 v -1.84385 -1.84384 l 4.97499,-0.01 c 2.73625,-0.005 5.66111,-0.17689 6.49969,-0.38115 0.83857,-0.20426 1.9799,-0.84937 2.53627,-1.43361 l 1.0116,-1.06225 v -40.5123 c 0,-39.26375 -0.0228,-40.53886 -0.74333,-41.37482 -0.70055,-0.81289 -1.12771,-0.86252 -7.42396,-0.86252 -3.67436,0 -8.13675,0.19172 -9.91641,0.42606 -1.77968,0.23432 -4.21238,0.80976 -5.40601,1.27872 -1.19363,0.46897 -2.86235,1.50927 -3.70824,2.31178 -0.84588,0.80249 -1.88726,2.17802 -2.31416,3.05673 -0.4269,0.8787 -1.097,2.91951 -1.48912,4.53513 -0.39212,1.61562 -0.8998,4.59694 -1.12817,6.62518 -0.22838,2.02822 -0.52394,4.7479 -0.65678,6.04371 l -0.24156,2.35603 h -1.37422 -1.37423 l 0.22532,-1.94629 c 0.12391,-1.07044 0.58395,-7.20124 1.0223,-13.62397 0.43833,-6.42274 0.89094,-12.46133 1.00579,-13.41911 l 0.20882,-1.74141 h 37.63001 c 20.69651,0 37.63277,0.13828 37.63615,0.30732 0.003,0.16901 0.44093,6.29981 0.97235,13.62398 0.53141,7.32416 0.96764,13.91591 0.96935,14.64833 l 0.003,1.33166 h 28.07643 28.07644 l 0.20513,1.33168 c 0.11287,0.73241 0.82332,7.41636 1.57889,14.85319 0.75557,7.43685 1.37358,13.65984 1.37334,13.82885 -2.3e-4,0.16904 -0.58451,0.30732 -1.29839,0.30732 h -1.29796 l -0.64615,-4.81448 c -0.35539,-2.64797 -0.9209,-5.9208 -1.25671,-7.27296 -0.33579,-1.35215 -1.0255,-3.41269 -1.53269,-4.57895 -0.50718,-1.16627 -1.66538,-2.96721 -2.5738,-4.0021 -0.95755,-1.09086 -2.66361,-2.38877 -4.05961,-3.08838 -1.32437,-0.66373 -3.95604,-1.49026 -5.84813,-1.83676 -2.63081,-0.48175 -6.49334,-0.62997 -16.41741,-0.62997 -12.19385,0 -13.03284,0.0474 -13.8984,0.78295 l -0.92118,0.78296 -0.12258,18.67987 -0.12259,18.67988 6.17062,-0.003 c 3.39385,-0.002 7.72079,-0.18986 9.61544,-0.4178 1.89463,-0.22794 4.08949,-0.76163 4.87745,-1.186 0.78796,-0.42435 1.81934,-1.20688 2.29197,-1.73894 0.47261,-0.53207 1.15721,-1.70241 1.5213,-2.60078 0.41428,-1.02218 0.73239,-3.20495 0.85016,-5.83325 l 0.18817,-4.19988 h 1.31455 1.31453 v 17.82386 17.82385 h -1.36567 -1.3657 l -0.006,-3.17551 c -0.003,-1.74654 -0.24271,-4.23135 -0.53191,-5.52181 -0.28921,-1.29047 -0.97976,-2.97124 -1.53455,-3.73506 -0.55481,-0.76383 -1.85184,-1.82571 -2.8823,-2.35974 -1.78366,-0.92436 -2.31945,-0.97773 -11.16382,-1.11218 l -9.29021,-0.14122 0.12062,20.76133 0.12061,20.76132 0.95599,0.81259 c 0.92329,0.78479 1.46379,0.80732 15.80295,0.65876 14.59207,-0.15119 14.90207,-0.17169 18.05723,-1.19467 1.76567,-0.57246 4.15743,-1.70121 5.31506,-2.50835 1.15763,-0.80712 2.74036,-2.28199 3.51717,-3.27747 0.77681,-0.99549 1.92714,-3.00213 2.5563,-4.45922 0.62916,-1.45709 1.41858,-3.7623 1.75427,-5.1227 0.33569,-1.36039 0.87598,-3.9311 1.20063,-5.7127 0.32465,-1.78159 0.59031,-3.37755 0.59034,-3.54656 5e-5,-0.16904 -1.76591,-0.30732 -3.92433,-0.30732 h -3.9244 l 0.11999,-1.74141 c 0.11835,-1.71863 0.1404,-1.74269 1.68077,-1.83896 0.85843,-0.0537 2.52652,-0.30633 3.70686,-0.56152 1.18035,-0.2552 3.13466,-0.98643 4.34292,-1.62497 1.20824,-0.63852 3.09243,-2.04529 4.18708,-3.12615 1.27234,-1.25632 6.14516,-8.3712 13.50856,-19.72409 6.33507,-9.76747 11.51831,-17.92563 11.51831,-18.12934 0,-0.20372 -5.62544,-9.08342 -12.50098,-19.73268 -6.87552,-10.64924 -13.17448,-20.03862 -13.99767,-20.86523 -0.82318,-0.82663 -2.17738,-1.70143 -3.00933,-1.944 -0.83195,-0.24257 -2.87343,-0.44207 -4.53664,-0.44333 l -3.02402,-0.002 v -1.84384 -1.84385 h 14.04706 14.04706 v 1.84385 c 0,1.69984 -0.0772,1.84384 -0.98802,1.84384 -0.54341,0 -1.58329,0.26117 -2.31084,0.58039 -0.72753,0.31921 -1.61231,1.04438 -1.96617,1.6115 -0.52876,0.8474 -0.55914,1.20024 -0.17058,1.9805 0.26004,0.52217 4.79238,7.62836 10.07189,15.79153 7.46446,11.54155 9.70172,14.7307 10.06051,14.34104 0.25378,-0.27562 4.42552,-6.56757 9.27054,-13.98212 7.78369,-11.91173 8.80914,-13.66696 8.80914,-15.07843 0,-0.87858 -0.26635,-2.13829 -0.59189,-2.79936 -0.32555,-0.66108 -1.10698,-1.48165 -1.73651,-1.8235 -0.62953,-0.34186 -1.50451,-0.62155 -1.94438,-0.62155 -0.68774,0 -0.79976,-0.25828 -0.79976,-1.84384 v -1.84385 h 12.09607 12.09608 v 1.84385 1.84384 h -1.6739 c -0.92065,0 -2.67948,0.27504 -3.90851,0.6112 -1.22905,0.33616 -3.13883,1.09234 -4.24396,1.68041 -1.10514,0.58809 -2.90196,2.02393 -3.99296,3.1908 -1.09099,1.16686 -6.37331,8.82767 -11.73852,17.02402 -5.36519,8.19634 -9.80642,15.03729 -9.86941,15.2021 -0.0629,0.16481 6.32267,10.23237 14.19034,22.37237 7.86767,12.13999 14.91084,22.73875 15.6515,23.55279 0.74065,0.81405 2.01346,1.68987 2.82846,1.94627 0.81499,0.25642 2.51497,0.46873 3.77772,0.47181 1.26276,0.003 2.69098,0.11678 3.17385,0.25267 0.7309,0.20569 0.87794,0.5307 0.87794,1.94069 v 1.69361 h -14.06445 -14.06446 l 0.11491,-1.80055 c 0.11334,-1.77505 0.14088,-1.80744 1.94659,-2.28689 1.00741,-0.26747 2.12448,-0.74151 2.48238,-1.05342 0.35788,-0.31191 0.78591,-0.94227 0.95115,-1.40082 0.16524,-0.45854 0.11753,-1.20248 -0.10624,-1.65319 -0.22361,-0.45072 -5.40567,-8.56364 -11.51568,-18.02872 -6.10998,-9.46508 -11.23248,-17.35369 -11.38328,-17.53024 -0.15081,-0.17654 -4.97511,6.90031 -10.72065,15.72637 -5.74557,8.82605 -10.70847,16.70578 -11.02867,17.51053 -0.45914,1.15394 -0.49237,1.77797 -0.1572,2.9527 0.23374,0.81924 0.76606,1.81367 1.18291,2.20982 0.41687,0.39616 1.42801,0.96111 2.247,1.25544 1.36476,0.4905 1.49908,0.67538 1.60905,2.21464 l 0.11998,1.67945 h -7.04596 c -3.87528,0 -7.04729,0.1383 -7.04894,0.30731 -10e-4,0.16903 -0.87947,6.76078 -1.95076,14.64834 -1.07128,7.88757 -1.94789,14.47933 -1.94801,14.64834 -1.2e-4,0.16903 -15.27639,0.30731 -33.94727,0.30731 z"
     id="path3887-6"
     class="ColorScheme-Text"
     transform="matrix(0.17727966,0,0,0.17727966,-42.017732,-21.971267)" />
</svg>
