<?xml version="1.0" encoding="UTF-8" standalone="no"?>
<svg
   version="1.1"
   viewBox="0 0 16 16"
   id="svg7"
   width="16"
   height="16"
   xmlns:xlink="http://www.w3.org/1999/xlink"
   xmlns="http://www.w3.org/2000/svg"
   xmlns:svg="http://www.w3.org/2000/svg"
   xmlns:rdf="http://www.w3.org/1999/02/22-rdf-syntax-ns#"
   xmlns:cc="http://creativecommons.org/ns#"
   xmlns:dc="http://purl.org/dc/elements/1.1/">
   <defs>
      <style id="current-color-scheme" type="text/css">
         .ColorScheme-Text { color: #0abdc6; } .ColorScheme-Highlight { color:#5294e2; }
      </style>
      <linearGradient id="arrongin" x1="0%" x2="0%" y1="0%" y2="100%">
         <stop offset="0%" style="stop-color:#dd9b44; stop-opacity:1"/>
         <stop offset="100%" style="stop-color:#ad6c16; stop-opacity:1"/>
      </linearGradient>
      <linearGradient id="aurora" x1="0%" x2="0%" y1="0%" y2="100%">
         <stop offset="0%" style="stop-color:#09D4DF; stop-opacity:1"/>
         <stop offset="100%" style="stop-color:#9269F4; stop-opacity:1"/>
      </linearGradient>
      <linearGradient id="cyberneon" x1="0%" x2="0%" y1="0%" y2="100%">
         <stop offset="0" style="stop-color:#0abdc6; stop-opacity:1"/>
         <stop offset="1" style="stop-color:#ea00d9; stop-opacity:1"/>
      </linearGradient>
      <linearGradient id="fitdance" x1="0%" x2="0%" y1="0%" y2="100%">
         <stop offset="0%" style="stop-color:#1AD6AB; stop-opacity:1"/>
         <stop offset="100%" style="stop-color:#329DB6; stop-opacity:1"/>
      </linearGradient>
      <linearGradient id="oomox" x1="0%" x2="0%" y1="0%" y2="100%">
         <stop offset="0%" style="stop-color:#0abdc6; stop-opacity:1"/>
         <stop offset="100%" style="stop-color:#b800ff; stop-opacity:1"/>
      </linearGradient>
      <linearGradient id="rainblue" x1="0%" x2="0%" y1="0%" y2="100%">
         <stop offset="0%" style="stop-color:#00F260; stop-opacity:1"/>
         <stop offset="100%" style="stop-color:#0575E6; stop-opacity:1"/>
      </linearGradient>
      <linearGradient id="sunrise" x1="0%" x2="0%" y1="0%" y2="100%">
         <stop offset="0%" style="stop-color: #FF8501; stop-opacity:1"/>
         <stop offset="100%" style="stop-color: #FFCB01; stop-opacity:1"/>
      </linearGradient>
      <linearGradient id="telinkrin" x1="0%" x2="0%" y1="0%" y2="100%">
         <stop offset="0%" style="stop-color: #b2ced6; stop-opacity:1"/>
         <stop offset="100%" style="stop-color: #6da5b7; stop-opacity:1"/>
      </linearGradient>
      <linearGradient id="60spsycho" x1="0%" x2="0%" y1="0%" y2="100%">
         <stop offset="0%" style="stop-color: #df5940; stop-opacity:1"/>
         <stop offset="25%" style="stop-color: #d8d15f; stop-opacity:1"/>
         <stop offset="50%" style="stop-color: #e9882a; stop-opacity:1"/>
         <stop offset="100%" style="stop-color: #279362; stop-opacity:1"/>
      </linearGradient>
      <linearGradient id="90ssummer" x1="0%" x2="0%" y1="0%" y2="100%">
         <stop offset="0%" style="stop-color: #f618c7; stop-opacity:1"/>
         <stop offset="20%" style="stop-color: #94ffab; stop-opacity:1"/>
         <stop offset="50%" style="stop-color: #fbfd54; stop-opacity:1"/>
         <stop offset="100%" style="stop-color: #0f83ae; stop-opacity:1"/>
      </linearGradient>
   </defs>
  <path
     style="fill:url(#oomox);stroke-width:0.101333"
     d="m 10.08759,3.9999064 c -1.0633916,0 -1.104858,0.1980686 -1.0937914,5.2928529 0.012047,5.5407217 0.049799,6.1161947 0.4166769,6.4465307 0.411257,0.370278 0.9805925,0.343584 1.3698555,-0.0638 0.298884,-0.312836 0.298211,-0.313182 0.226571,-2.566358 -0.08229,-2.588026 -0.0762,-2.626493 0.451837,-2.847629 0.714461,-0.2992159 2.293516,0.154068 2.500048,0.717407 0.125665,0.342771 0.05634,1.392614 -0.134119,2.028621 -0.496177,1.65675 -0.162513,2.877562 0.787793,2.877562 0.598377,2e-6 0.988327,-0.427391 0.988327,-1.083344 0,-0.262969 0.07466,-0.626667 0.166672,-0.808609 0.282411,-0.558398 0.318437,-3.563302 0.04818,-4.0194399 C 15.119378,8.7985543 13.832321,8.0983473 12.243933,8.0310133 11.009676,7.9786789 11.009542,7.9789463 11.009542,6.2393955 11.009541,4.255109 10.904257,3.9998397 10.087617,3.9998397 Z M 9.9847245,4.6196859 c 0.4376495,0 0.5177415,0.4096841 0.3802165,1.9439528 -0.179972,2.0078867 -0.07764,2.4484244 0.493502,2.139288 1.425923,-0.7718077 3.68884,0.1196945 4.442834,1.7499513 0.417263,0.902209 0.019,4.282309 -0.550796,4.673113 -0.622002,0.426578 -0.850194,-0.215068 -0.48439,-1.36328 0.911594,-2.861296 -0.961326,-5.1307184 -3.273508,-3.9661069 -0.568283,0.2862489 -0.595755,0.4301909 -0.559909,3.0142969 0.02956,2.131288 0.02106,2.25929 -0.165372,2.454358 -0.241858,0.253136 -0.3127435,0.255496 -0.5911615,0.01953 C 9.472035,15.111805 9.3578492,11.981227 9.475615,9.7874711 9.4832415,9.6453627 9.4363352,9.1799381 9.3714424,8.7536605 9.1148577,7.0679771 9.4776216,4.6196192 9.9847375,4.6196192 Z"
     id="path_h"
     class="ColorScheme-Text"/>
  <path
     style="fill:url(#oomox);stroke-width:0.101333"
     d="M 13.018634,-2.1658949e-7 C 12.807762,0.00253278 12.567651,0.04544018 12.302439,0.13020775 11.999828,0.22694205 11.40538,0.28575597 10.721651,0.28645597 10.119343,0.28707131 8.8936661,0.35701667 7.9976061,0.44140419 7.0187468,0.53359179 5.2125605,0.59431905 3.4727736,0.59504572 0.1689319,0.59644572 -1.6671333e-7,0.64757292 -1.6671333e-7,1.6367228 -1.6671333e-7,2.5406651 0.29654426,2.6770665 2.2657161,2.6770665 c 1.6882539,0 1.6883206,-5.013e-4 1.803453,0.2656226 0.134159,0.3101365 -0.067233,7.8114119 -0.2252649,8.3920839 -0.2492381,0.915343 -0.1085658,4.028707 0.1966185,4.350177 0.3785905,0.398763 0.9527262,0.421337 1.3593897,0.05339 0.277038,-0.250672 0.2772512,-0.249926 0.3424574,-2.00129 C 5.7782368,12.77384 5.852509,11.353027 5.9077419,10.580819 5.9629677,9.8086111 6.041301,7.7367904 6.0809273,5.9767061 6.1514801,2.8428082 6.1571998,2.7752075 6.3595786,2.7306737 6.8186817,2.6296459 10.385414,2.3639634 11.354473,2.3582834 c 1.987185,-0.011653 2.666713,-0.3551236 2.666713,-1.3515469 0,-0.65980658 -0.370017,-1.01401013 -1.002659,-1.00647670659 z M 12.147507,0.71740694 c 1.230324,0.009193 1.525856,0.22942899 1.285191,0.70314036 C 13.277772,1.7254571 13.196246,1.7332904 7.2724117,2.052047 5.2714934,2.1597147 5.4754252,1.9384925 5.625224,3.8449982 5.72385,5.0999441 5.725177,5.5861489 5.630424,6.1613547 5.4832585,7.0548302 5.3454928,9.5592552 5.2983865,12.192482 5.2597735,14.350904 5.1578076,15.117777 4.8817097,15.330446 4.6539514,15.505862 4.6340982,15.504648 4.3556537,15.299199 4.1403686,15.140378 4.129742,15.087664 4.2020014,14.493191 4.2445278,14.143361 4.2925408,12.991576 4.3074741,11.933366 4.3405205,9.5910089 4.4856993,6.9355824 4.6356049,5.9529726 4.7204509,5.396827 4.7176043,4.869295 4.6199783,3.7186169 4.4921859,2.2123352 4.4912393,2.2123352 3.652519,2.089734 2.5912604,1.9345858 1.6268676,1.918759 1.1902043,2.0506736 0.48047621,2.2650625 0.1420121,1.6350028 0.72274104,1.1795983 0.97329248,0.98320963 1.1178115,0.96324273 2.1550636,0.98428953 5.100508,1.0440502 7.7553547,1.0179765 8.8376798,0.91918223 10.335,0.78250093 11.409459,0.71184689 12.147654,0.71736027 Z"
     id="path_t"
     class="ColorScheme-Text"/>
  <metadata
     id="metadata8">
    <rdf:RDF>
      <cc:Work
         rdf:about="">
        <dc:creator>
          <cc:Agent>
            <dc:title>dreifacherspass</dc:title>
          </cc:Agent>
        </dc:creator>
        <cc:license
           rdf:resource="http://creativecommons.org/licenses/by-sa/4.0/" />
      </cc:Work>
      <cc:License
         rdf:about="http://creativecommons.org/licenses/by-sa/4.0/">
        <cc:permits
           rdf:resource="http://creativecommons.org/ns#Reproduction" />
        <cc:permits
           rdf:resource="http://creativecommons.org/ns#Distribution" />
        <cc:requires
           rdf:resource="http://creativecommons.org/ns#Notice" />
        <cc:requires
           rdf:resource="http://creativecommons.org/ns#Attribution" />
        <cc:permits
           rdf:resource="http://creativecommons.org/ns#DerivativeWorks" />
        <cc:requires
           rdf:resource="http://creativecommons.org/ns#ShareAlike" />
      </cc:License>
    </rdf:RDF>
  </metadata>
</svg>
