<?xml version="1.0" encoding="UTF-8" standalone="no"?>

<svg
   width="48"
   height="48"
   viewBox="0 0 48 48"
   fill="none"
   version="1.1"
   id="svg1"
   xmlns:xlink="http://www.w3.org/1999/xlink"
   xmlns="http://www.w3.org/2000/svg"
   xmlns:svg="http://www.w3.org/2000/svg"
   xmlns:rdf="http://www.w3.org/1999/02/22-rdf-syntax-ns#"
   xmlns:cc="http://creativecommons.org/ns#"
   xmlns:dc="http://purl.org/dc/elements/1.1/">
  <defs>
   <style id="current-color-scheme" type="text/css">
   .ColorScheme-Text { color: #0abdc6; } .ColorScheme-Highlight { color:#5294e2; }
  </style>
  <linearGradient id="arrongin" x1="0%" x2="0%" y1="0%" y2="100%">
   <stop offset="0%" style="stop-color:#dd9b44; stop-opacity:1"/>
   <stop offset="100%" style="stop-color:#ad6c16; stop-opacity:1"/>
  </linearGradient>
  <linearGradient id="aurora" x1="0%" x2="0%" y1="0%" y2="100%">
   <stop offset="0%" style="stop-color:#09D4DF; stop-opacity:1"/>
   <stop offset="100%" style="stop-color:#9269F4; stop-opacity:1"/>
  </linearGradient>
  <linearGradient id="cyberneon" x1="0%" x2="0%" y1="0%" y2="100%">
    <stop offset="0" style="stop-color:#0abdc6; stop-opacity:1"/>
    <stop offset="1" style="stop-color:#ea00d9; stop-opacity:1"/>
  </linearGradient>
  <linearGradient id="fitdance" x1="0%" x2="0%" y1="0%" y2="100%">
   <stop offset="0%" style="stop-color:#1AD6AB; stop-opacity:1"/>
   <stop offset="100%" style="stop-color:#329DB6; stop-opacity:1"/>
  </linearGradient>
  <linearGradient id="oomox" x1="0%" x2="0%" y1="0%" y2="100%">
   <stop offset="0%" style="stop-color:#0abdc6; stop-opacity:1"/>
   <stop offset="100%" style="stop-color:#b800ff; stop-opacity:1"/>
  </linearGradient>
  <linearGradient id="rainblue" x1="0%" x2="0%" y1="0%" y2="100%">
   <stop offset="0%" style="stop-color:#00F260; stop-opacity:1"/>
   <stop offset="100%" style="stop-color:#0575E6; stop-opacity:1"/>
  </linearGradient>
  <linearGradient id="sunrise" x1="0%" x2="0%" y1="0%" y2="100%">
   <stop offset="0%" style="stop-color: #FF8501; stop-opacity:1"/>
   <stop offset="100%" style="stop-color: #FFCB01; stop-opacity:1"/>
  </linearGradient>
  <linearGradient id="telinkrin" x1="0%" x2="0%" y1="0%" y2="100%">
   <stop offset="0%" style="stop-color: #b2ced6; stop-opacity:1"/>
   <stop offset="100%" style="stop-color: #6da5b7; stop-opacity:1"/>
  </linearGradient>
  <linearGradient id="60spsycho" x1="0%" x2="0%" y1="0%" y2="100%">
   <stop offset="0%" style="stop-color: #df5940; stop-opacity:1"/>
   <stop offset="25%" style="stop-color: #d8d15f; stop-opacity:1"/>
   <stop offset="50%" style="stop-color: #e9882a; stop-opacity:1"/>
   <stop offset="100%" style="stop-color: #279362; stop-opacity:1"/>
  </linearGradient>
  <linearGradient id="90ssummer" x1="0%" x2="0%" y1="0%" y2="100%">
   <stop offset="0%" style="stop-color: #f618c7; stop-opacity:1"/>
   <stop offset="20%" style="stop-color: #94ffab; stop-opacity:1"/>
   <stop offset="50%" style="stop-color: #fbfd54; stop-opacity:1"/>
   <stop offset="100%" style="stop-color: #0f83ae; stop-opacity:1"/>
  </linearGradient>
 </defs>
  <path
     fill-rule="evenodd"
     clip-rule="evenodd"
     d="m 19.982087,9.2006178 -0.0046,-1.47e-5 h -0.0062 c -3.76,1.5442879 -4.162879,4.9961149 -3.558488,6.8530259 0,0 0,0.0141 -0.001,0.03966 2.176834,-1.531025 4.960556,-2.356183 7.588591,-2.356183 6.382893,0 11.5573,4.222083 11.5573,9.430271 0,5.208187 -5.174407,9.430256 -11.5573,9.430256 -0.04935,0 -0.104135,-0.0021 -0.162003,-0.0043 -0.303297,-0.01131 -0.693985,-0.02585 -0.852463,0.232062 -0.188441,0.307116 0.227216,0.779466 0.466769,1.050303 2.495259,2.822791 6.114553,3.177494 7.065128,3.270613 0.0611,0.006 0.111184,0.01087 0.149225,0.01527 -8.384653,0.810897 -18.22096,-4.545488 -18.224044,-13.856628 -7.35e-4,-2.194753 0.81003,-4.060066 2.104366,-5.544825 l -0.01627,-0.0022 C 14.816009,12.993533 12.986681,7.2959575 9.5647578,6.1756097 9.3226344,6.0963413 9.0827287,6.2784516 9.0525313,6.5314144 8.6024916,10.300051 7.6280641,11.606357 6.5769384,13.01552 4.9999269,15.129638 3.8538906,17.573051 3.9038722,20.256457 3.3315297,19.058692 2.8675369,17.808051 2.5231297,16.51511 2.4764528,16.339888 2.18824,15.801738 1.8711369,15.982248 1.6177716,16.126332 1.4269751,16.520545 1.2905591,16.931648 0.76909116,18.888757 0.5,20.976732 0.5,22.998467 0.5,35.798917 11.221361,46.49832 24,46.49832 c 12.978609,0 23.5,-10.521244 23.5,-23.499853 0,-4.948366 -1.529409,-9.539576 -4.141434,-13.3265861 0.108834,-0.002 0.217962,-0.00301 0.327384,-0.00301 1.014319,0 2.003669,0.08673 2.957328,0.2515528 C 45.205519,8.3228781 43.265887,7.0315237 41.008125,6.1927353 42.515356,5.6461106 44.162119,5.3074316 45.893041,5.2216272 43.099038,2.9396744 39.022081,1.50168 34.481881,1.50168 27.910547,1.50168 21.462,4.0273131 19.982087,9.2006178 Z M 21.317034,27.15121 c -1.701987,-1.771606 -6.799901,-7.656006 -6.799901,-7.656006 l 0.394609,0.01689 7.980233,5.960628 c 0.597928,0.434309 1.450097,0.429903 2.042444,-0.01043 l 7.825353,-5.942563 0.415509,-0.03216 c 0,0 -4.931181,5.745162 -6.819847,7.63794 -1.888665,1.892778 -3.336265,1.79731 -5.0384,0.0257 z M 26.750528,7.4063194 c 0,0 0.1081,1.2244381 -1.128587,1.6139065 -1.413819,0.4452075 -2.040388,-0.7439953 -2.040388,-0.7439953 0,0 0.177719,-0.8166837 1.324813,-1.1944169 1.225231,-0.403495 1.844162,0.3245057 1.844162,0.3245057 z"
     id="path1"
     class="ColorScheme-Text"
     style="stroke-width:1.67857;font-variation-settings:normal;opacity:1;vector-effect:none;fill:url(#oomox);fill-opacity:1;stroke-linecap:butt;stroke-linejoin:miter;stroke-miterlimit:4;stroke-dasharray:none;stroke-dashoffset:0;stroke-opacity:1;-inkscape-stroke:none;stop-color:#000000;stop-opacity:1" />
  <metadata
     id="metadata1">
    <rdf:RDF>
      <cc:Work
         rdf:about="">
        <dc:creator>
          <cc:Agent>
            <dc:title>dreifacherspass</dc:title>
          </cc:Agent>
        </dc:creator>
        <cc:license
           rdf:resource="http://creativecommons.org/licenses/by-sa/4.0/" />
      </cc:Work>
      <cc:License
         rdf:about="http://creativecommons.org/licenses/by-sa/4.0/">
        <cc:permits
           rdf:resource="http://creativecommons.org/ns#Reproduction" />
        <cc:permits
           rdf:resource="http://creativecommons.org/ns#Distribution" />
        <cc:requires
           rdf:resource="http://creativecommons.org/ns#Notice" />
        <cc:requires
           rdf:resource="http://creativecommons.org/ns#Attribution" />
        <cc:permits
           rdf:resource="http://creativecommons.org/ns#DerivativeWorks" />
        <cc:requires
           rdf:resource="http://creativecommons.org/ns#ShareAlike" />
      </cc:License>
    </rdf:RDF>
  </metadata>
</svg>
