<?xml version="1.0" encoding="UTF-8" standalone="no"?>
<!-- Created with Inkscape (http://www.inkscape.org/) -->

<svg
   version="1.0"
   width="16"
   height="16"
   id="svg2"
   xmlns:xlink="http://www.w3.org/1999/xlink"
   xmlns="http://www.w3.org/2000/svg"
   xmlns:svg="http://www.w3.org/2000/svg"
   xmlns:rdf="http://www.w3.org/1999/02/22-rdf-syntax-ns#"
   xmlns:cc="http://creativecommons.org/ns#"
   xmlns:dc="http://purl.org/dc/elements/1.1/">
  <defs>
   <style id="current-color-scheme" type="text/css">
   .ColorScheme-Text { color: #0abdc6; } .ColorScheme-Highlight { color:#5294e2; }
  </style>
  <linearGradient id="arrongin" x1="0%" x2="0%" y1="0%" y2="100%">
   <stop offset="0%" style="stop-color:#dd9b44; stop-opacity:1"/>
   <stop offset="100%" style="stop-color:#ad6c16; stop-opacity:1"/>
  </linearGradient>
  <linearGradient id="aurora" x1="0%" x2="0%" y1="0%" y2="100%">
   <stop offset="0%" style="stop-color:#09D4DF; stop-opacity:1"/>
   <stop offset="100%" style="stop-color:#9269F4; stop-opacity:1"/>
  </linearGradient>
  <linearGradient id="cyberneon" x1="0%" x2="0%" y1="0%" y2="100%">
    <stop offset="0" style="stop-color:#0abdc6; stop-opacity:1"/>
    <stop offset="1" style="stop-color:#ea00d9; stop-opacity:1"/>
  </linearGradient>
  <linearGradient id="fitdance" x1="0%" x2="0%" y1="0%" y2="100%">
   <stop offset="0%" style="stop-color:#1AD6AB; stop-opacity:1"/>
   <stop offset="100%" style="stop-color:#329DB6; stop-opacity:1"/>
  </linearGradient>
  <linearGradient id="oomox" x1="0%" x2="0%" y1="0%" y2="100%">
   <stop offset="0%" style="stop-color:#0abdc6; stop-opacity:1"/>
   <stop offset="100%" style="stop-color:#b800ff; stop-opacity:1"/>
  </linearGradient>
  <linearGradient id="rainblue" x1="0%" x2="0%" y1="0%" y2="100%">
   <stop offset="0%" style="stop-color:#00F260; stop-opacity:1"/>
   <stop offset="100%" style="stop-color:#0575E6; stop-opacity:1"/>
  </linearGradient>
  <linearGradient id="sunrise" x1="0%" x2="0%" y1="0%" y2="100%">
   <stop offset="0%" style="stop-color: #FF8501; stop-opacity:1"/>
   <stop offset="100%" style="stop-color: #FFCB01; stop-opacity:1"/>
  </linearGradient>
  <linearGradient id="telinkrin" x1="0%" x2="0%" y1="0%" y2="100%">
   <stop offset="0%" style="stop-color: #b2ced6; stop-opacity:1"/>
   <stop offset="100%" style="stop-color: #6da5b7; stop-opacity:1"/>
  </linearGradient>
  <linearGradient id="60spsycho" x1="0%" x2="0%" y1="0%" y2="100%">
   <stop offset="0%" style="stop-color: #df5940; stop-opacity:1"/>
   <stop offset="25%" style="stop-color: #d8d15f; stop-opacity:1"/>
   <stop offset="50%" style="stop-color: #e9882a; stop-opacity:1"/>
   <stop offset="100%" style="stop-color: #279362; stop-opacity:1"/>
  </linearGradient>
  <linearGradient id="90ssummer" x1="0%" x2="0%" y1="0%" y2="100%">
   <stop offset="0%" style="stop-color: #f618c7; stop-opacity:1"/>
   <stop offset="20%" style="stop-color: #94ffab; stop-opacity:1"/>
   <stop offset="50%" style="stop-color: #fbfd54; stop-opacity:1"/>
   <stop offset="100%" style="stop-color: #0f83ae; stop-opacity:1"/>
  </linearGradient>
 </defs>
  <g
     id="layer1"
     transform="matrix(0.34954946,0,0,0.34954946,-0.47762028,-0.03266677)">
    <path
       d="M 1.8437846,34.362452 H 43.297183 l -20.7267,-16.398241 z"
       id="path3302"
       class="ColorScheme-Text"
       style="display:inline;fill:none;fill-opacity:1;stroke:url(#oomox);stroke-width:1;stroke-linecap:butt;stroke-linejoin:bevel;stroke-miterlimit:4;stroke-dasharray:none;stroke-dashoffset:0;stroke-opacity:1" />
    <rect
       width="41.410141"
       height="25.592873"
       x="1.8654145"
       y="8.7525282"
       id="rect3588"
       class="ColorScheme-Text"
       style="display:inline;fill:none;fill-opacity:1;stroke:url(#oomox);stroke-width:1;stroke-linecap:round;stroke-linejoin:miter;stroke-miterlimit:4;stroke-dasharray:none;stroke-dashoffset:0;stroke-opacity:1" />
    <path
       d="m 448.99792,472.15501 c -32.57056,0.781 -47.43747,-1.09888 -77.29327,12.7462 -17.03181,9.83332 -28.17616,28.84986 -46.4856,36.12021 8.89234,2.16229 25.05725,-2.24544 32.84412,-5.35342 21.90633,-9.54989 63.74809,-31.71959 67.94587,-16.05328 2.31189,8.6281 -23.84052,21.52103 -45.36361,33.60867 -8.06333,4.65536 -22.00422,11.23712 -29.42264,15.52014 10.43745,0 25.42571,-0.88604 36.91145,-3.96363 29.80165,-8.77455 90.39839,-9.89701 80.23424,7.70783 -4.8518,8.40356 -34.36829,18.90136 -49.942,23.07432 -39.99824,10.7175 -83.73851,32.07519 -140.76527,-0.84923 34.84421,49.37768 102.87248,42.88281 153.5997,28.88207 26.97155,-8.02262 53.2331,-21.37898 71.44213,-43.36013 6.59011,-8.71335 3.90765,-28.10128 -6.7821,-31.96291 -11.20724,-4.74829 -23.7696,-3.82962 -35.69281,-4.69597 -8.36929,-0.40801 -17.09619,-0.12409 -25.24985,0.29722 11.97056,-8.6436 23.04626,-19.55758 28.89479,-33.33802 1.50663,-8.8172 -5.51209,-18.85295 -14.87515,-18.38007 z"
       transform="matrix(0.17293962,0,0,0.17293962,-40.76026,-68.425343)"
       id="path3328"
       style="display:inline;opacity:0.3;fill:#000000;fill-opacity:1;stroke:none;stroke-width:0.116741;stroke-linecap:round;stroke-linejoin:miter;stroke-miterlimit:4;stroke-dasharray:none;stroke-dashoffset:0;stroke-opacity:1;filter:url(#filter3733)" />
    <path
       d="M 1.8654142,8.8800699 H 43.275553 L 22.570483,20.934052 Z"
       id="rect3219"
       class="ColorScheme-Text"
       style="display:inline;fill:none;fill-opacity:1;stroke:url(#oomox);stroke-width:1;stroke-linecap:butt;stroke-linejoin:bevel;stroke-miterlimit:4;stroke-dashoffset:0;stroke-opacity:1" />
    <path
       d="m 37.235141,12.883077 c -5.63274,0.135067 -8.203817,-0.190038 -13.367067,2.204323 -2.945474,1.700571 -5.801283,4.734586 -8.967711,5.991918 1.537838,0.373946 4.961276,-0.404191 6.307934,-0.941684 3.788472,-1.651554 11.325194,-5.21501 12.051156,-2.505685 0.399817,1.492139 -4.12297,3.721838 -7.845165,5.81227 -1.394468,0.805096 -4.198465,2.380081 -5.481403,3.120785 1.805049,0 4.746502,-0.327927 6.732841,-0.860164 3.873306,-1.037849 16.288569,-1.929955 14.530785,1.11462 -0.839069,1.453309 -6.336702,3.530837 -9.030014,4.252506 -6.91728,1.853481 -13.389858,4.891962 -23.2520439,-0.801974 6.0259439,8.539357 16.3931629,6.979399 25.1659079,4.558115 4.664449,-1.387428 9.29346,-3.653597 12.442521,-7.455008 1.139692,-1.506884 0.675788,-4.117369 -1.172893,-4.785198 -1.938175,-0.821167 -4.110704,-0.662293 -6.1727,-0.812119 -1.447382,-0.07056 -2.956609,-0.02146 -4.366699,0.0514 2.070184,-1.49482 3.985611,-3.38228 4.997053,-5.765463 0.260556,-1.524843 -0.953259,-3.260422 -2.572502,-3.178642 z"
       id="path2385"
       class="ColorScheme-Text"
       style="display:inline;fill:url(#oomox);fill-opacity:1;stroke:none;stroke-width:0.111176;stroke-linecap:round;stroke-linejoin:miter;stroke-miterlimit:4;stroke-dasharray:none;stroke-dashoffset:0;stroke-opacity:1" />
  </g>
  <metadata
     id="metadata3335">
    <rdf:RDF>
      <cc:Work
         rdf:about="">
        <dc:creator>
          <cc:Agent>
            <dc:title>dreifacherspass</dc:title>
          </cc:Agent>
        </dc:creator>
        <cc:license
           rdf:resource="http://creativecommons.org/licenses/by-sa/4.0/" />
      </cc:Work>
      <cc:License
         rdf:about="http://creativecommons.org/licenses/by-sa/4.0/">
        <cc:permits
           rdf:resource="http://creativecommons.org/ns#Reproduction" />
        <cc:permits
           rdf:resource="http://creativecommons.org/ns#Distribution" />
        <cc:requires
           rdf:resource="http://creativecommons.org/ns#Notice" />
        <cc:requires
           rdf:resource="http://creativecommons.org/ns#Attribution" />
        <cc:permits
           rdf:resource="http://creativecommons.org/ns#DerivativeWorks" />
        <cc:requires
           rdf:resource="http://creativecommons.org/ns#ShareAlike" />
      </cc:License>
    </rdf:RDF>
  </metadata>
</svg>
