<?xml version="1.0" encoding="UTF-8" standalone="no"?>

<svg
   height="16"
   width="16"
   version="1.1"
   id="Icons"
   viewBox="0 0 0.64 0.64"
   xml:space="preserve"
   xmlns:xlink="http://www.w3.org/1999/xlink"
   xmlns="http://www.w3.org/2000/svg"
   xmlns:svg="http://www.w3.org/2000/svg"
   xmlns:rdf="http://www.w3.org/1999/02/22-rdf-syntax-ns#"
   xmlns:cc="http://creativecommons.org/ns#"
   xmlns:dc="http://purl.org/dc/elements/1.1/">
<defs>
   <style id="current-color-scheme" type="text/css">
   .ColorScheme-Text { color: #0abdc6; } .ColorScheme-Highlight { color:#5294e2; }
  </style>
  <linearGradient id="arrongin" x1="0%" x2="0%" y1="0%" y2="100%">
   <stop offset="0%" style="stop-color:#dd9b44; stop-opacity:1"/>
   <stop offset="100%" style="stop-color:#ad6c16; stop-opacity:1"/>
  </linearGradient>
  <linearGradient id="aurora" x1="0%" x2="0%" y1="0%" y2="100%">
   <stop offset="0%" style="stop-color:#09D4DF; stop-opacity:1"/>
   <stop offset="100%" style="stop-color:#9269F4; stop-opacity:1"/>
  </linearGradient>
  <linearGradient id="cyberneon" x1="0%" x2="0%" y1="0%" y2="100%">
    <stop offset="0" style="stop-color:#0abdc6; stop-opacity:1"/>
    <stop offset="1" style="stop-color:#ea00d9; stop-opacity:1"/>
  </linearGradient>
  <linearGradient id="fitdance" x1="0%" x2="0%" y1="0%" y2="100%">
   <stop offset="0%" style="stop-color:#1AD6AB; stop-opacity:1"/>
   <stop offset="100%" style="stop-color:#329DB6; stop-opacity:1"/>
  </linearGradient>
  <linearGradient id="oomox" x1="0%" x2="0%" y1="0%" y2="100%">
   <stop offset="0%" style="stop-color:#0abdc6; stop-opacity:1"/>
   <stop offset="100%" style="stop-color:#b800ff; stop-opacity:1"/>
  </linearGradient>
  <linearGradient id="rainblue" x1="0%" x2="0%" y1="0%" y2="100%">
   <stop offset="0%" style="stop-color:#00F260; stop-opacity:1"/>
   <stop offset="100%" style="stop-color:#0575E6; stop-opacity:1"/>
  </linearGradient>
  <linearGradient id="sunrise" x1="0%" x2="0%" y1="0%" y2="100%">
   <stop offset="0%" style="stop-color: #FF8501; stop-opacity:1"/>
   <stop offset="100%" style="stop-color: #FFCB01; stop-opacity:1"/>
  </linearGradient>
  <linearGradient id="telinkrin" x1="0%" x2="0%" y1="0%" y2="100%">
   <stop offset="0%" style="stop-color: #b2ced6; stop-opacity:1"/>
   <stop offset="100%" style="stop-color: #6da5b7; stop-opacity:1"/>
  </linearGradient>
  <linearGradient id="60spsycho" x1="0%" x2="0%" y1="0%" y2="100%">
   <stop offset="0%" style="stop-color: #df5940; stop-opacity:1"/>
   <stop offset="25%" style="stop-color: #d8d15f; stop-opacity:1"/>
   <stop offset="50%" style="stop-color: #e9882a; stop-opacity:1"/>
   <stop offset="100%" style="stop-color: #279362; stop-opacity:1"/>
  </linearGradient>
  <linearGradient id="90ssummer" x1="0%" x2="0%" y1="0%" y2="100%">
   <stop offset="0%" style="stop-color: #f618c7; stop-opacity:1"/>
   <stop offset="20%" style="stop-color: #94ffab; stop-opacity:1"/>
   <stop offset="50%" style="stop-color: #fbfd54; stop-opacity:1"/>
   <stop offset="100%" style="stop-color: #0f83ae; stop-opacity:1"/>
  </linearGradient>
 </defs>
<path
   id="path1"
  class="ColorScheme-Text"
   style="stroke-width:0.02;fill:url(#oomox)"
   d="M 0.22 0 C 0.18600003 0 0.16 0.026000034 0.16 0.06 L 0.16 0.58 C 0.16 0.61399997 0.18600003 0.64 0.22 0.64 L 0.42 0.64 C 0.45399997 0.64 0.48 0.61399997 0.48 0.58 L 0.48 0.06 C 0.48 0.026000034 0.45399997 0 0.42 0 L 0.22 0 z M 0.38140625 0.04875 A 0.02458488 0.02458488 0 0 1 0.40601562 0.07328125 A 0.02458488 0.02458488 0 0 1 0.38140625 0.097890625 A 0.02458488 0.02458488 0 0 1 0.35679688 0.07328125 A 0.02458488 0.02458488 0 0 1 0.38140625 0.04875 z M 0.26 0.14 C 0.27199999 0.14 0.28 0.15000001 0.28 0.16 C 0.28 0.16999999 0.26999999 0.18 0.26 0.18 C 0.25000001 0.18 0.24 0.16999999 0.24 0.16 C 0.24 0.15000001 0.24800001 0.14 0.26 0.14 z M 0.32 0.14 C 0.33199999 0.14 0.34 0.15000001 0.34 0.16 C 0.34 0.16999999 0.32999999 0.18 0.32 0.18 C 0.31000001 0.18 0.3 0.16999999 0.3 0.16 C 0.3 0.15000001 0.30800001 0.14 0.32 0.14 z M 0.38 0.14 C 0.38999999 0.14 0.4 0.15000001 0.4 0.16 C 0.4 0.16999999 0.39199999 0.18 0.38 0.18 C 0.36800001 0.18 0.36 0.16999999 0.36 0.16 C 0.36 0.15000001 0.37000001 0.14 0.38 0.14 z M 0.26 0.2 C 0.27199999 0.2 0.28 0.21000001 0.28 0.22 C 0.28 0.22999999 0.26999999 0.24 0.26 0.24 C 0.25000001 0.24 0.24 0.22999999 0.24 0.22 C 0.24 0.21000001 0.24800001 0.2 0.26 0.2 z M 0.32 0.2 C 0.33199999 0.2 0.34 0.21000001 0.34 0.22 C 0.34 0.22999999 0.32999999 0.24 0.32 0.24 C 0.31000001 0.24 0.3 0.22999999 0.3 0.22 C 0.3 0.21000001 0.30800001 0.2 0.32 0.2 z M 0.38 0.2 C 0.38999999 0.2 0.4 0.21000001 0.4 0.22 C 0.4 0.22999999 0.39199999 0.24 0.38 0.24 C 0.36800001 0.24 0.36 0.22999999 0.36 0.22 C 0.36 0.21000001 0.37000001 0.2 0.38 0.2 z M 0.26 0.26 C 0.27199999 0.26 0.28 0.27000001 0.28 0.28 C 0.28 0.28999999 0.26999999 0.3 0.26 0.3 C 0.25000001 0.3 0.24 0.28999999 0.24 0.28 C 0.24 0.27000001 0.24800001 0.26 0.26 0.26 z M 0.32 0.26 C 0.33199999 0.26 0.34 0.27000001 0.34 0.28 C 0.34 0.28999999 0.32999999 0.3 0.32 0.3 C 0.31000001 0.3 0.3 0.28999999 0.3 0.28 C 0.3 0.27000001 0.30800001 0.26 0.32 0.26 z M 0.38 0.26 C 0.38999999 0.26 0.4 0.27000001 0.4 0.28 C 0.4 0.28999999 0.39199999 0.3 0.38 0.3 C 0.36800001 0.3 0.36 0.28999999 0.36 0.28 C 0.36 0.27000001 0.37000001 0.26 0.38 0.26 z M 0.32 0.39984375 C 0.32999999 0.39984375 0.34 0.40658626 0.34 0.42 L 0.34 0.44 C 0.34 0.45199999 0.33199999 0.46 0.32 0.46 C 0.30800001 0.46 0.3 0.45199999 0.3 0.44 L 0.3 0.42 C 0.3 0.40658626 0.31000001 0.39984375 0.32 0.39984375 z M 0.26 0.46 L 0.28 0.46 C 0.29199999 0.46 0.3 0.46800001 0.3 0.48 C 0.3 0.49199999 0.29199999 0.5 0.28 0.5 L 0.26 0.5 C 0.24800001 0.5 0.24 0.49199999 0.24 0.48 C 0.24 0.46800001 0.24800001 0.46 0.26 0.46 z M 0.36 0.46 L 0.38 0.46 C 0.39199999 0.46 0.4 0.46800001 0.4 0.48 C 0.4 0.49199999 0.39199999 0.5 0.38 0.5 L 0.36 0.5 C 0.34800001 0.5 0.34 0.49199999 0.34 0.48 C 0.34 0.46800001 0.34800001 0.46 0.36 0.46 z M 0.32 0.5 C 0.33199999 0.5 0.34 0.50800001 0.34 0.52 L 0.34 0.54 C 0.34 0.55199999 0.33199999 0.56 0.32 0.56 C 0.30800001 0.56 0.3 0.55199999 0.3 0.54 L 0.3 0.52 C 0.3 0.50800001 0.30800001 0.5 0.32 0.5 z " />
<metadata
   id="metadata1"><rdf:RDF><cc:Work
       rdf:about=""><dc:creator><cc:Agent><dc:title>dreifacherspass</dc:title></cc:Agent></dc:creator><cc:license
         rdf:resource="http://creativecommons.org/licenses/by-sa/4.0/" /></cc:Work><cc:License
       rdf:about="http://creativecommons.org/licenses/by-sa/4.0/"><cc:permits
         rdf:resource="http://creativecommons.org/ns#Reproduction" /><cc:permits
         rdf:resource="http://creativecommons.org/ns#Distribution" /><cc:requires
         rdf:resource="http://creativecommons.org/ns#Notice" /><cc:requires
         rdf:resource="http://creativecommons.org/ns#Attribution" /><cc:permits
         rdf:resource="http://creativecommons.org/ns#DerivativeWorks" /><cc:requires
         rdf:resource="http://creativecommons.org/ns#ShareAlike" /></cc:License></rdf:RDF></metadata></svg>
