<?xml version="1.0" encoding="UTF-8" standalone="no"?>
<!-- Created with Inkscape (http://www.inkscape.org/) -->

<svg
   width="16"
   height="16"
   id="svg3051"
   version="1.1"
   xmlns="http://www.w3.org/2000/svg"
   xmlns:svg="http://www.w3.org/2000/svg"
   xmlns:rdf="http://www.w3.org/1999/02/22-rdf-syntax-ns#"
   xmlns:cc="http://creativecommons.org/ns#"
   xmlns:dc="http://purl.org/dc/elements/1.1/">
  <defs>
   <style id="current-color-scheme" type="text/css">
   .ColorScheme-Text { color: #0abdc6; } .ColorScheme-Highlight { color:#5294e2; }
  </style>
  <linearGradient id="arrongin" x1="0%" x2="0%" y1="0%" y2="100%">
   <stop offset="0%" style="stop-color:#dd9b44; stop-opacity:1"/>
   <stop offset="100%" style="stop-color:#ad6c16; stop-opacity:1"/>
  </linearGradient>
  <linearGradient id="aurora" x1="0%" x2="0%" y1="0%" y2="100%">
   <stop offset="0%" style="stop-color:#09D4DF; stop-opacity:1"/>
   <stop offset="100%" style="stop-color:#9269F4; stop-opacity:1"/>
  </linearGradient>
  <linearGradient id="cyberneon" x1="0%" x2="0%" y1="0%" y2="100%">
    <stop offset="0" style="stop-color:#0abdc6; stop-opacity:1"/>
    <stop offset="1" style="stop-color:#ea00d9; stop-opacity:1"/>
  </linearGradient>
  <linearGradient id="fitdance" x1="0%" x2="0%" y1="0%" y2="100%">
   <stop offset="0%" style="stop-color:#1AD6AB; stop-opacity:1"/>
   <stop offset="100%" style="stop-color:#329DB6; stop-opacity:1"/>
  </linearGradient>
  <linearGradient id="oomox" x1="0%" x2="0%" y1="0%" y2="100%">
   <stop offset="0%" style="stop-color:#0abdc6; stop-opacity:1"/>
   <stop offset="100%" style="stop-color:#b800ff; stop-opacity:1"/>
  </linearGradient>
  <linearGradient id="rainblue" x1="0%" x2="0%" y1="0%" y2="100%">
   <stop offset="0%" style="stop-color:#00F260; stop-opacity:1"/>
   <stop offset="100%" style="stop-color:#0575E6; stop-opacity:1"/>
  </linearGradient>
  <linearGradient id="sunrise" x1="0%" x2="0%" y1="0%" y2="100%">
   <stop offset="0%" style="stop-color: #FF8501; stop-opacity:1"/>
   <stop offset="100%" style="stop-color: #FFCB01; stop-opacity:1"/>
  </linearGradient>
  <linearGradient id="telinkrin" x1="0%" x2="0%" y1="0%" y2="100%">
   <stop offset="0%" style="stop-color: #b2ced6; stop-opacity:1"/>
   <stop offset="100%" style="stop-color: #6da5b7; stop-opacity:1"/>
  </linearGradient>
  <linearGradient id="60spsycho" x1="0%" x2="0%" y1="0%" y2="100%">
   <stop offset="0%" style="stop-color: #df5940; stop-opacity:1"/>
   <stop offset="25%" style="stop-color: #d8d15f; stop-opacity:1"/>
   <stop offset="50%" style="stop-color: #e9882a; stop-opacity:1"/>
   <stop offset="100%" style="stop-color: #279362; stop-opacity:1"/>
  </linearGradient>
  <linearGradient id="90ssummer" x1="0%" x2="0%" y1="0%" y2="100%">
   <stop offset="0%" style="stop-color: #f618c7; stop-opacity:1"/>
   <stop offset="20%" style="stop-color: #94ffab; stop-opacity:1"/>
   <stop offset="50%" style="stop-color: #fbfd54; stop-opacity:1"/>
   <stop offset="100%" style="stop-color: #0f83ae; stop-opacity:1"/>
  </linearGradient>
 </defs>
  <metadata
     id="metadata3056">
    <rdf:RDF>
      <cc:Work
         rdf:about="">
        <dc:format>image/svg+xml</dc:format>
        <dc:type
           rdf:resource="http://purl.org/dc/dcmitype/StillImage" />
        <cc:license
           rdf:resource="http://creativecommons.org/licenses/by-sa/4.0/" />
        <dc:creator>
          <cc:Agent>
            <dc:title>dreifacherspass</dc:title>
          </cc:Agent>
        </dc:creator>
      </cc:Work>
      <cc:License
         rdf:about="http://creativecommons.org/licenses/by-sa/4.0/">
        <cc:permits
           rdf:resource="http://creativecommons.org/ns#Reproduction" />
        <cc:permits
           rdf:resource="http://creativecommons.org/ns#Distribution" />
        <cc:requires
           rdf:resource="http://creativecommons.org/ns#Notice" />
        <cc:requires
           rdf:resource="http://creativecommons.org/ns#Attribution" />
        <cc:permits
           rdf:resource="http://creativecommons.org/ns#DerivativeWorks" />
        <cc:requires
           rdf:resource="http://creativecommons.org/ns#ShareAlike" />
      </cc:License>
    </rdf:RDF>
  </metadata>
  <path
     style="fill:url(#oomox);stroke-width:0.410284;stroke-linejoin:round;-inkscape-stroke:none"
     d="m 4.1829398,-61.278295 c -2.0209679,0 -3.68294376,1.661976 -3.6829438,3.682943 v 22.890986 c 0,2.020967 1.6619759,3.682944 3.6829438,3.682944 H 16.130871 c -0.02791,0.15097 -0.09215,0.289699 -0.09215,0.447947 v 6.13263 c 0,0.202406 0.07275,0.383019 0.117796,0.572956 h -3.202942 c -1.40611,0 -2.573093,1.166983 -2.573093,2.573092 0,1.40611 1.166983,2.573093 2.573093,2.573093 h 22.092854 c 1.406109,0 2.573092,-1.166983 2.573092,-2.573093 0,-1.406109 -1.166983,-2.573092 -2.573092,-2.573092 h -3.202943 c 0.04505,-0.189937 0.117796,-0.37055 0.117796,-0.572956 v -6.13263 c 0,-0.158248 -0.06424,-0.296977 -0.09215,-0.447947 h 11.947929 c 2.020967,0 3.682943,-1.661977 3.682943,-3.682944 v -22.890986 c -8e-6,-2.020967 -1.661984,-3.682943 -3.682951,-3.682943 z m 0,2.24214 H 43.817053 c 0.818099,0 1.440804,0.622704 1.440804,1.440803 v 22.890986 c 0,0.8181 -0.622705,1.440803 -1.440804,1.440803 H 4.1829398 c -0.8181001,0 -1.4408036,-0.622703 -1.4408036,-1.440803 v -22.890986 c 0,-0.818099 0.6227035,-1.440803 1.4408036,-1.440803 z"
     id="rect4946"
     class="ColorScheme-Text"
     transform="matrix(0.34042547,0,0,0.34042547,-0.17021128,21.617019)" />
  <path
     style="fill:url(#oomox);fill-opacity:1;stroke:none;stroke-width:0;stroke-linecap:round;stroke-linejoin:round;stroke-miterlimit:4;stroke-dasharray:none;stroke-opacity:1"
     d="m 4.3689714,-44.545526 v 9.335371 l 39.0253616,0.163779 0.161258,-5.896023 c 1.416044,-4.345216 -17.55407,-13.458497 -19.190158,-9.990488 -1.8557,3.933524 -5.496314,11.415034 -9.191921,10.973157 -2.762243,-0.392105 -5.5239598,-0.783501 -10.8045406,-4.585796 z"
     id="path4954"
     class="ColorScheme-Text"
     transform="matrix(0.34042547,0,0,0.34042547,-0.17021128,21.617019)" />
</svg>
