<?xml version="1.0" encoding="UTF-8" standalone="no"?>
<!-- Created with Inkscape (http://www.inkscape.org/) -->

<svg
   id="svg2"
   version="1.1"
   width="48"
   height="48"
   viewBox="0 0 48 48"
   xmlns="http://www.w3.org/2000/svg"
   xmlns:svg="http://www.w3.org/2000/svg"
   xmlns:rdf="http://www.w3.org/1999/02/22-rdf-syntax-ns#"
   xmlns:cc="http://creativecommons.org/ns#"
   xmlns:dc="http://purl.org/dc/elements/1.1/">
  <defs
     id="defs6">
    <style
       id="current-color-scheme"
       type="text/css">
   .ColorScheme-Text { color: #0abdc6; } .ColorScheme-Highlight { color:#5294e2; }
  </style>
    <linearGradient
       id="arrongin"
       x1="0%"
       x2="0%"
       y1="0%"
       y2="100%">
      <stop
         offset="0%"
         style="stop-color:#dd9b44; stop-opacity:1"
         id="stop9192" />
      <stop
         offset="100%"
         style="stop-color:#ad6c16; stop-opacity:1"
         id="stop9194" />
    </linearGradient>
    <linearGradient
       id="aurora"
       x1="0%"
       x2="0%"
       y1="0%"
       y2="100%">
      <stop
         offset="0%"
         style="stop-color:#09D4DF; stop-opacity:1"
         id="stop9197" />
      <stop
         offset="100%"
         style="stop-color:#9269F4; stop-opacity:1"
         id="stop9199" />
    </linearGradient>
    <linearGradient
       id="cyberneon"
       x1="0%"
       x2="0%"
       y1="0%"
       y2="100%">
      <stop
         offset="0"
         style="stop-color:#0abdc6; stop-opacity:1"
         id="stop9202" />
      <stop
         offset="1"
         style="stop-color:#ea00d9; stop-opacity:1"
         id="stop9204" />
    </linearGradient>
    <linearGradient
       id="fitdance"
       x1="0%"
       x2="0%"
       y1="0%"
       y2="100%">
      <stop
         offset="0%"
         style="stop-color:#1AD6AB; stop-opacity:1"
         id="stop9207" />
      <stop
         offset="100%"
         style="stop-color:#329DB6; stop-opacity:1"
         id="stop9209" />
    </linearGradient>
    <linearGradient
       id="oomox"
       x1="5.8653371"
       x2="5.8653371"
       y1="1.832578"
       y2="42.303772"
       gradientTransform="matrix(0.98188851,0,0,1.1613197,-1.6282087,-1.6282093)"
       gradientUnits="userSpaceOnUse">
      <stop
         offset="0%"
         style="stop-color:#0abdc6; stop-opacity:1"
         id="stop9212" />
      <stop
         offset="100%"
         style="stop-color:#b800ff; stop-opacity:1"
         id="stop9214" />
    </linearGradient>
    <linearGradient
       id="rainblue"
       x1="0%"
       x2="0%"
       y1="0%"
       y2="100%">
      <stop
         offset="0%"
         style="stop-color:#00F260; stop-opacity:1"
         id="stop9217" />
      <stop
         offset="100%"
         style="stop-color:#0575E6; stop-opacity:1"
         id="stop9219" />
    </linearGradient>
    <linearGradient
       id="sunrise"
       x1="0%"
       x2="0%"
       y1="0%"
       y2="100%">
      <stop
         offset="0%"
         style="stop-color: #FF8501; stop-opacity:1"
         id="stop9222" />
      <stop
         offset="100%"
         style="stop-color: #FFCB01; stop-opacity:1"
         id="stop9224" />
    </linearGradient>
    <linearGradient
       id="telinkrin"
       x1="0%"
       x2="0%"
       y1="0%"
       y2="100%">
      <stop
         offset="0%"
         style="stop-color: #b2ced6; stop-opacity:1"
         id="stop9227" />
      <stop
         offset="100%"
         style="stop-color: #6da5b7; stop-opacity:1"
         id="stop9229" />
    </linearGradient>
    <linearGradient
       id="60spsycho"
       x1="0%"
       x2="0%"
       y1="0%"
       y2="100%">
      <stop
         offset="0%"
         style="stop-color: #df5940; stop-opacity:1"
         id="stop9232" />
      <stop
         offset="25%"
         style="stop-color: #d8d15f; stop-opacity:1"
         id="stop9234" />
      <stop
         offset="50%"
         style="stop-color: #e9882a; stop-opacity:1"
         id="stop9236" />
      <stop
         offset="100%"
         style="stop-color: #279362; stop-opacity:1"
         id="stop9238" />
    </linearGradient>
    <linearGradient
       id="90ssummer"
       x1="0%"
       x2="0%"
       y1="0%"
       y2="100%">
      <stop
         offset="0%"
         style="stop-color: #f618c7; stop-opacity:1"
         id="stop9241" />
      <stop
         offset="20%"
         style="stop-color: #94ffab; stop-opacity:1"
         id="stop9243" />
      <stop
         offset="50%"
         style="stop-color: #fbfd54; stop-opacity:1"
         id="stop9245" />
      <stop
         offset="100%"
         style="stop-color: #0f83ae; stop-opacity:1"
         id="stop9247" />
    </linearGradient>
  </defs>
  <path
     id="path3342"
     class="ColorScheme-Text"
     style="font-variation-settings:normal;opacity:1;vector-effect:none;fill:url(#oomox);fill-opacity:1;stroke:none;stroke-width:1.40647;stroke-linecap:butt;stroke-linejoin:miter;stroke-miterlimit:4;stroke-dasharray:none;stroke-dashoffset:0;stroke-opacity:1;-inkscape-stroke:none;stop-color:#000000;stop-opacity:1"
     d="M 21.666824,15.052154 C 20.432136,14.34774 18.642655,13.320745 17.690155,12.769959 16.7377,12.219169 15.182113,11.332971 14.233301,10.800672 12.649838,9.9123152 12.533961,9.8227937 12.822227,9.7105699 12.994948,9.6433169 14.031011,9.1732809 15.124585,8.6660264 16.21816,8.1587704 18.411744,7.15165 19.999208,6.4279792 21.586644,5.7043093 23.125234,4.9897372 23.418265,4.8400387 l 0.532763,-0.2721738 4.085274,1.8729906 c 2.246903,1.0301449 4.777983,2.1889695 5.624626,2.575161 0.846657,0.386197 1.584055,0.7437777 1.638708,0.7946337 0.05464,0.050861 -0.840108,0.6142758 -1.988341,1.2520458 -1.996085,1.108701 -7.809045,4.365193 -8.886467,4.978243 l -0.513132,0.291982 z m 3.784237,-0.268408 c 0.776084,-0.44055 1.411075,-0.879148 1.411075,-0.974689 0,-0.09557 -0.47107,-0.443042 -1.046829,-0.77227 l -1.046842,-0.598524 1.014766,-1.24588 c 0.939109,-1.153001 1.153698,-1.5008025 0.925938,-1.5008025 -0.04882,0 -0.88951,0.3234465 -1.868154,0.7187805 -0.978664,0.39534 -1.803549,0.694622 -1.833089,0.665091 -0.02951,-0.02956 0.349361,-0.505038 0.841971,-1.056699 0.843446,-0.9445625 1.072944,-1.3534065 0.759616,-1.3534065 -0.07482,0 -0.868501,0.3120685 -1.763814,0.6934805 -2.267809,0.966113 -3.89836,1.615533 -4.056219,1.615533 -0.07348,0 0.634032,-0.769223 1.572259,-1.7094177 1.870914,-1.8747637 1.831384,-1.7498468 0.713683,-2.254737 L 20.41985,6.7140747 18.060852,7.8048564 c -3.803358,1.7586321 -4.090862,1.9034187 -4.088954,2.0591688 9.97e-4,0.081562 1.191854,0.8121078 2.646342,1.6234568 1.454493,0.811361 3.66166,2.064062 4.904865,2.783757 1.24318,0.719671 2.318057,1.309632 2.388591,1.310992 0.07061,9.97e-4 0.763259,-0.357951 1.539365,-0.798485 z m 4.29844,-2.387671 c 3.087272,-1.686639 4.273356,-2.379209 4.321374,-2.5232475 0.02518,-0.07539 -0.08577,-0.1998317 -0.246268,-0.2765701 C 33.664034,9.5195127 32.291553,8.8814877 30.774645,8.1784256 29.257765,7.4753663 27.135519,6.4891493 26.058601,5.9868351 24.981696,5.4845174 24.046002,5.0735316 23.979365,5.0735316 c -0.297879,0 -2.843906,1.2922045 -2.800794,1.4215129 0.02646,0.079495 0.392527,0.2889711 0.813404,0.4655049 0.420873,0.1765317 0.791025,0.3454372 0.822529,0.3753399 0.03152,0.029888 -0.387005,0.5012881 -0.930023,1.0475195 -0.543029,0.546231 -0.987335,1.035165 -0.987335,1.0865218 0,0.2158729 0.544842,0.036605 3.043373,-1.0012728 1.449313,-0.602055 2.66331,-1.0664536 2.697773,-1.0320011 0.03458,0.034465 -0.348464,0.5179344 -0.850938,1.0744013 -0.841406,0.9318733 -1.074782,1.3088045 -0.810313,1.3088045 0.05674,0 0.873528,-0.318534 1.815004,-0.7078448 0.941457,-0.3893137 1.728597,-0.6909717 1.749231,-0.6703488 0.0419,0.041945 -1.466952,1.9821511 -2.334721,3.0021361 -0.309695,0.364029 -0.563066,0.724121 -0.563066,0.800194 0,0.132807 1.851415,1.148078 2.117683,1.16127 0.07129,0.0027 0.965914,-0.4506 1.988329,-1.009194 z M 13.130454,38.326774 12.936873,36.090975 9.6712546,33.609983 C 7.8751792,32.245463 6.2751631,31.044855 6.1156948,30.942007 5.9562147,30.839166 5.5665752,27.818589 5.2498425,24.229672 4.9330939,20.640761 4.5142136,15.913394 4.3189822,13.724418 4.0439915,10.641133 4.0657937,9.6501995 4.415749,9.3261382 4.6641974,9.0960728 6.8267505,8.0544739 9.2214187,7.0114779 17.313084,3.4871616 19.37389,2.5801976 21.656997,1.5385652 l 2.276391,-1.03856547 8.064218,3.56705807 c 4.435291,1.9618832 8.92138,3.9345189 9.969052,4.3836356 1.186073,0.5084477 1.903939,1.0393094 1.902441,1.4068436 -9.96e-4,0.324662 -0.326789,4.34555 -0.723248,8.935311 -0.396449,4.589783 -0.721918,9.092309 -0.723245,10.005572 l -0.04214,1.71113 -3.316555,2.489669 -3.356158,2.540275 -0.253162,2.267106 C 34.58816,50.696092 14.269647,50.591071 13.130463,38.326774 Z m 8.245699,-7.654335 V 22.777914 L 14.573127,18.537956 C 10.831456,16.205988 7.4843736,14.1898 7.1351433,14.057506 6.5796765,13.84715 6.4999055,14.059706 6.4978499,15.760683 6.8272364,20.595119 7.122845,23.938675 7.6932296,28.525071 l 2.3602364,2.059698 c 1.395642,1.217937 4.516562,3.342572 6.720916,4.988888 2.204324,1.646331 4.141514,2.993317 4.304843,2.993317 0.16331,0 0.296928,-3.552519 0.296928,-7.894535 z m 12.445326,2.763993 6.679137,-4.949187 0.475065,-6.934393 c 0.26128,-3.813948 0.36482,-7.044677 0.230064,-7.179426 -0.236722,-0.236704 -2.360108,0.811202 -4.22799,2.086595 -0.498864,0.340613 -3.070407,1.965425 -5.71452,3.610632 l -4.807488,2.991339 v 7.78274 c 0,4.736805 0.134388,7.735402 0.343322,7.661784 0.188817,-0.06662 3.348908,-2.34807 7.02241,-5.070084 z M 31.424469,14.052315 C 35.376766,11.744366 38.737921,9.731144 38.893646,9.5785035 39.04937,9.4258608 35.752275,7.7240852 31.56672,5.7967785 L 23.956677,2.2925822 19.673079,4.2323211 C 10.551314,8.3629302 8.6583142,9.3038012 8.9349676,9.5694738 9.3457859,9.9639966 23.684402,18.219379 23.986485,18.23531 c 0.138578,0.0075 3.485679,-1.875012 7.437984,-4.182995 z" />
  <metadata
     id="metadata345">
    <rdf:RDF>
      <cc:License
         rdf:about="http://creativecommons.org/licenses/by-sa/4.0/">
        <cc:permits
           rdf:resource="http://creativecommons.org/ns#Reproduction" />
        <cc:permits
           rdf:resource="http://creativecommons.org/ns#Distribution" />
        <cc:requires
           rdf:resource="http://creativecommons.org/ns#Notice" />
        <cc:requires
           rdf:resource="http://creativecommons.org/ns#Attribution" />
        <cc:permits
           rdf:resource="http://creativecommons.org/ns#DerivativeWorks" />
        <cc:requires
           rdf:resource="http://creativecommons.org/ns#ShareAlike" />
      </cc:License>
      <cc:Work
         rdf:about="">
        <cc:license
           rdf:resource="http://creativecommons.org/licenses/by-sa/4.0/" />
        <dc:contributor>
          <cc:Agent>
            <dc:title>dreifacherspass</dc:title>
          </cc:Agent>
        </dc:contributor>
      </cc:Work>
    </rdf:RDF>
  </metadata>
</svg>
