<?xml version="1.0" encoding="UTF-8" standalone="no"?>
<!-- Created with Inkscape (http://www.inkscape.org/) -->

<svg
   id="svg2"
   version="1.1"
   width="16"
   height="16"
   viewBox="0 0 16 16"
   xmlns:xlink="http://www.w3.org/1999/xlink"
   xmlns="http://www.w3.org/2000/svg"
   xmlns:svg="http://www.w3.org/2000/svg"
   xmlns:rdf="http://www.w3.org/1999/02/22-rdf-syntax-ns#"
   xmlns:cc="http://creativecommons.org/ns#"
   xmlns:dc="http://purl.org/dc/elements/1.1/">
   <defs>
   <style id="current-color-scheme" type="text/css">
   .ColorScheme-Text { color: #0abdc6; } .ColorScheme-Highlight { color:#5294e2; }
  </style>
  <linearGradient id="arrongin" x1="0%" x2="0%" y1="0%" y2="100%">
   <stop offset="0%" style="stop-color:#dd9b44; stop-opacity:1"/>
   <stop offset="100%" style="stop-color:#ad6c16; stop-opacity:1"/>
  </linearGradient>
  <linearGradient id="aurora" x1="0%" x2="0%" y1="0%" y2="100%">
   <stop offset="0%" style="stop-color:#09D4DF; stop-opacity:1"/>
   <stop offset="100%" style="stop-color:#9269F4; stop-opacity:1"/>
  </linearGradient>
  <linearGradient id="cyberneon" x1="0%" x2="0%" y1="0%" y2="100%">
    <stop offset="0" style="stop-color:#0abdc6; stop-opacity:1"/>
    <stop offset="1" style="stop-color:#ea00d9; stop-opacity:1"/>
  </linearGradient>
  <linearGradient id="fitdance" x1="0%" x2="0%" y1="0%" y2="100%">
   <stop offset="0%" style="stop-color:#1AD6AB; stop-opacity:1"/>
   <stop offset="100%" style="stop-color:#329DB6; stop-opacity:1"/>
  </linearGradient>
  <linearGradient id="oomox" x1="0%" x2="0%" y1="0%" y2="100%">
   <stop offset="0%" style="stop-color:#0abdc6; stop-opacity:1"/>
   <stop offset="100%" style="stop-color:#b800ff; stop-opacity:1"/>
  </linearGradient>
  <linearGradient id="rainblue" x1="0%" x2="0%" y1="0%" y2="100%">
   <stop offset="0%" style="stop-color:#00F260; stop-opacity:1"/>
   <stop offset="100%" style="stop-color:#0575E6; stop-opacity:1"/>
  </linearGradient>
  <linearGradient id="sunrise" x1="0%" x2="0%" y1="0%" y2="100%">
   <stop offset="0%" style="stop-color: #FF8501; stop-opacity:1"/>
   <stop offset="100%" style="stop-color: #FFCB01; stop-opacity:1"/>
  </linearGradient>
  <linearGradient id="telinkrin" x1="0%" x2="0%" y1="0%" y2="100%">
   <stop offset="0%" style="stop-color: #b2ced6; stop-opacity:1"/>
   <stop offset="100%" style="stop-color: #6da5b7; stop-opacity:1"/>
  </linearGradient>
  <linearGradient id="60spsycho" x1="0%" x2="0%" y1="0%" y2="100%">
   <stop offset="0%" style="stop-color: #df5940; stop-opacity:1"/>
   <stop offset="25%" style="stop-color: #d8d15f; stop-opacity:1"/>
   <stop offset="50%" style="stop-color: #e9882a; stop-opacity:1"/>
   <stop offset="100%" style="stop-color: #279362; stop-opacity:1"/>
  </linearGradient>
  <linearGradient id="90ssummer" x1="0%" x2="0%" y1="0%" y2="100%">
   <stop offset="0%" style="stop-color: #f618c7; stop-opacity:1"/>
   <stop offset="20%" style="stop-color: #94ffab; stop-opacity:1"/>
   <stop offset="50%" style="stop-color: #fbfd54; stop-opacity:1"/>
   <stop offset="100%" style="stop-color: #0f83ae; stop-opacity:1"/>
  </linearGradient>
 </defs>
  <path
     id="path3342"
     class="ColorScheme-Text"
     style="font-variation-settings:normal;opacity:1;vector-effect:none;fill:url(#oomox);fill-opacity:1;stroke:none;stroke-width:0.478798;stroke-linecap:butt;stroke-linejoin:miter;stroke-miterlimit:4;stroke-dasharray:none;stroke-dashoffset:0;stroke-opacity:1;-inkscape-stroke:none;stop-color:#000000;stop-opacity:1"
     d="M 4.299729,12.8772 4.233829,12.116077 3.1221292,11.271484 C 2.5106993,10.806966 1.966013,10.398248 1.9117259,10.363236 1.8574348,10.328227 1.7247916,9.2999452 1.6169677,8.0781863 1.5091384,6.8564293 1.3665408,5.2471129 1.3000791,4.5019296 1.2064652,3.4523007 1.2138873,3.1149617 1.333021,3.004643 1.4175992,2.9263228 2.1537874,2.571736 2.9689936,2.2166735 5.7236029,1.0169063 6.4251539,0.70815256 7.2023818,0.3535543 L 7.9773234,8.7688134e-8 10.722589,1.2143177 c 1.509887,0.6678752 3.037066,1.3394107 3.39372,1.4923015 0.40377,0.1730886 0.64815,0.3538075 0.64764,0.4789255 -3.39e-4,0.1105232 -0.111248,1.4793361 -0.246212,3.0418079 -0.134962,1.5624793 -0.24576,3.0952541 -0.246211,3.4061521 l -0.01435,0.5825123 -1.12904,0.847547 -1.142522,0.864774 -0.08618,0.771781 C 11.60448,17.088031 4.6875393,17.052279 4.2997321,12.8772 Z M 7.1067753,10.271469 V 7.5839708 L 4.7908516,6.1405808 C 3.5170914,5.3467194 2.3776591,4.6603575 2.2587722,4.6153213 2.0696772,4.5437107 2.0425211,4.6160702 2.0418213,5.1951262 2.1539529,6.8408916 2.2545856,7.9791235 2.4487591,9.5404497 l 0.8034847,0.7011733 c 0.4751121,0.414617 1.5375528,1.137897 2.2879712,1.698345 0.7504082,0.560453 1.4098771,1.019002 1.4654785,1.019002 0.055595,0 0.1010818,-1.209368 0.1010818,-2.687501 z m 4.2367067,0.940933 2.273749,-1.6848292 0.161724,-2.3606444 c 0.08895,-1.2983653 0.124194,-2.3981879 0.07832,-2.4440599 -0.08059,-0.08058 -0.803441,0.2761539 -1.439316,0.7103302 C 12.248133,5.5491521 11.372714,6.1022796 10.472591,6.66235 L 8.8359988,7.6806782 v 2.6494428 c 0,1.61253 0.045749,2.633329 0.1168756,2.608267 0.064278,-0.02268 1.1400536,-0.799343 2.3906076,-1.725986 z M 10.527479,4.6135541 C 11.872942,3.8278694 13.017165,3.1425173 13.070178,3.0905546 13.12319,3.0385911 12.000775,2.4592632 10.575905,1.8031588 L 7.9852516,0.61024094 6.5270055,1.2705776 c -3.1052816,1.4061648 -3.749707,1.7264613 -3.6555271,1.816903 0.139853,0.1343057 5.0210838,2.9446485 5.1239206,2.9500718 0.047176,0.00255 1.1866141,-0.638302 2.53208,-1.4239983 z" />
  <path
     id="path3342-5"
     class="ColorScheme-Text"
     style="font-variation-settings:normal;display:inline;vector-effect:none;fill:url(#oomox);stroke:none;stroke-width:0.478798;stroke-linecap:butt;stroke-linejoin:miter;stroke-miterlimit:4;stroke-dasharray:none;stroke-dashoffset:0;stroke-opacity:1;-inkscape-stroke:none;stop-color:#000000"
     d="M 7.2062735,4.9537788 C 6.7859542,4.7139783 6.1767692,4.364363 5.8525139,4.1768613 5.5282739,3.9893584 4.9987124,3.6876739 4.6757125,3.5064658 4.1366615,3.2040465 4.097214,3.1735711 4.1953471,3.1353673 4.2541457,3.1124727 4.606848,2.9524604 4.9791284,2.7797781 5.3514092,2.6070952 6.0981612,2.2642456 6.6385745,2.0178896 7.1789782,1.7715339 7.7027535,1.5282754 7.8025088,1.4773142 l 0.1813661,-0.092655 1.3907319,0.6376137 c 0.7649032,0.3506877 1.6265472,0.7451812 1.9147662,0.8766506 0.288224,0.1314713 0.539253,0.2532009 0.557858,0.2705136 0.0186,0.017314 -0.285994,0.2091152 -0.676882,0.4262282 -0.679518,0.3774302 -2.6583985,1.4860232 -3.0251805,1.694721 l -0.1746832,0.099398 z m 1.2882509,-0.091373 c 0.2641988,-0.1499745 0.480366,-0.2992845 0.480366,-0.3318091 0,-0.032534 -0.1603643,-0.1508228 -0.3563673,-0.2629004 L 8.2621513,4.0639436 8.6076036,3.6398142 C 8.9273003,3.2473033 9.0003518,3.1289028 8.9228165,3.1289028 c -0.01662,0 -0.3028119,0.1101095 -0.6359673,0.2446913 C 7.953687,3.5081778 7.6728751,3.610061 7.6628189,3.6000079 7.6527729,3.5899449 7.7817503,3.4280801 7.9494473,3.2402807 8.2365779,2.9187275 8.3147049,2.7795466 8.20804,2.7795466 c -0.025471,0 -0.2956599,0.1062361 -0.6004473,0.2360784 -0.7720201,0.3288896 -1.3271013,0.5499686 -1.3808405,0.5499686 -0.025015,0 0.2158407,-0.261863 0.5352371,-0.5819293 C 7.3988962,2.3454469 7.3854392,2.3879718 7.0049452,2.2160942 L 6.7817718,2.1152838 5.9787086,2.4866138 C 4.6839484,3.085297 4.5860749,3.1345861 4.5867244,3.1876074 c 3.395e-4,0.027766 0.4057374,0.2764621 0.9008823,0.552666 0.4951465,0.276208 1.2465225,0.7026594 1.6697412,0.947662 0.4232102,0.2449944 0.7891258,0.4458322 0.8131374,0.4462951 0.024037,3.394e-4 0.2598328,-0.1218556 0.5240391,-0.2718247 z M 9.9578235,4.0495817 C 11.00881,3.4754067 11.412583,3.2396383 11.42893,3.1906039 11.43753,3.1649389 11.39973,3.1225759 11.34509,3.0964529 11.290431,3.0703264 10.823203,2.8531265 10.306809,2.6137863 9.790424,2.374447 9.0679569,2.0387135 8.7013466,1.8677129 8.3347406,1.6967111 8.0162065,1.5568011 7.9935215,1.5568011 c -0.1014056,0 -0.9681382,0.4398994 -0.9534617,0.4839193 0.00901,0.027062 0.1336262,0.098373 0.2769034,0.1584697 0.143276,0.060096 0.2692851,0.1175957 0.2800099,0.1277753 0.01073,0.010175 -0.1317464,0.1706513 -0.3166036,0.3566024 -0.1848609,0.185951 -0.336114,0.3523966 -0.336114,0.3698797 0,0.073489 0.1854781,0.012461 1.0360419,-0.3408588 0.4933831,-0.2049548 0.9066587,-0.363048 0.9183908,-0.3513195 0.011772,0.011733 -0.1186261,0.1763181 -0.2896811,0.3657537 -0.286436,0.3172334 -0.3658832,0.4455504 -0.2758512,0.4455504 0.019316,0 0.2973712,-0.1084371 0.6178737,-0.2409685 C 9.2715256,2.7990726 9.5394885,2.6963805 9.5465128,2.703401 9.5607767,2.7176802 9.0471246,3.3781758 8.7517139,3.7254047 8.6462858,3.8493294 8.5600318,3.9719139 8.5600318,3.9978111 c 0,0.045211 0.630269,0.3908351 0.7209134,0.395326 0.024269,9.191e-4 0.3288221,-0.1533958 0.6768783,-0.3435554 z" />
  <metadata
     id="metadata345">
    <rdf:RDF>
      <cc:Work
         rdf:about="">
        <cc:license
           rdf:resource="http://creativecommons.org/licenses/by-sa/4.0/" />
        <dc:creator>
          <cc:Agent>
            <dc:title>dreifacherspass</dc:title>
          </cc:Agent>
        </dc:creator>
      </cc:Work>
      <cc:License
         rdf:about="http://creativecommons.org/licenses/by-sa/4.0/">
        <cc:permits
           rdf:resource="http://creativecommons.org/ns#Reproduction" />
        <cc:permits
           rdf:resource="http://creativecommons.org/ns#Distribution" />
        <cc:requires
           rdf:resource="http://creativecommons.org/ns#Notice" />
        <cc:requires
           rdf:resource="http://creativecommons.org/ns#Attribution" />
        <cc:permits
           rdf:resource="http://creativecommons.org/ns#DerivativeWorks" />
        <cc:requires
           rdf:resource="http://creativecommons.org/ns#ShareAlike" />
      </cc:License>
    </rdf:RDF>
  </metadata>
</svg>
