<?xml version="1.0" encoding="UTF-8" standalone="no"?>
<!-- Created with Inkscape (http://www.inkscape.org/) -->

<svg
   id="svg2"
   version="1.1"
   width="48"
   height="48"
   viewBox="0 0 48 48"
   sodipodi:docname="virtualbox.svg"
   inkscape:version="1.2.2 (b0a8486541, 2022-12-01)"
   xmlns:inkscape="http://www.inkscape.org/namespaces/inkscape"
   xmlns:sodipodi="http://sodipodi.sourceforge.net/DTD/sodipodi-0.dtd"
   xmlns:xlink="http://www.w3.org/1999/xlink"
   xmlns="http://www.w3.org/2000/svg"
   xmlns:svg="http://www.w3.org/2000/svg"
   xmlns:rdf="http://www.w3.org/1999/02/22-rdf-syntax-ns#"
   xmlns:cc="http://creativecommons.org/ns#"
   xmlns:dc="http://purl.org/dc/elements/1.1/">
  <sodipodi:namedview
     id="namedview116"
     pagecolor="#ffffff"
     bordercolor="#000000"
     borderopacity="0.25"
     inkscape:showpageshadow="2"
     inkscape:pageopacity="0.0"
     inkscape:pagecheckerboard="0"
     inkscape:deskcolor="#d1d1d1"
     showgrid="false"
     inkscape:zoom="4.9166667"
     inkscape:cx="-29.79661"
     inkscape:cy="26.949152"
     inkscape:window-width="1397"
     inkscape:window-height="755"
     inkscape:window-x="0"
     inkscape:window-y="0"
     inkscape:window-maximized="0"
     inkscape:current-layer="svg2" />
  <metadata
     id="metadata8">
    <rdf:RDF>
      <cc:Work
         rdf:about="">
        <dc:format>image/svg+xml</dc:format>
        <dc:type
           rdf:resource="http://purl.org/dc/dcmitype/StillImage" />
      </cc:Work>
    </rdf:RDF>
  </metadata>
  <defs
     id="defs6">
    <linearGradient
       id="oomox"
       x1="1.031"
       x2="1.031"
       y1="1"
       y2="15"
       gradientUnits="userSpaceOnUse">
      <stop
         offset="0%"
         style="stop-color:#0abdc6; stop-opacity:1"
         id="stop1560" />
      <stop
         offset="100%"
         style="stop-color:#b800ff; stop-opacity:1"
         id="stop1562" />
    </linearGradient>
    <linearGradient
       inkscape:collect="always"
       xlink:href="#oomox"
       id="linearGradient821"
       x1="13.416026"
       y1="11.311225"
       x2="34.583973"
       y2="11.311225"
       gradientUnits="userSpaceOnUse" />
    <linearGradient
       inkscape:collect="always"
       xlink:href="#oomox"
       id="linearGradient823"
       x1="5.3932204"
       y1="24"
       x2="42.606777"
       y2="24"
       gradientUnits="userSpaceOnUse" />
  </defs>
  <path
     style="font-variation-settings:normal;opacity:1;vector-effect:none;fill:url(#linearGradient823);fill-opacity:1.0;stroke:none;stroke-width:1.31711;stroke-linecap:butt;stroke-linejoin:miter;stroke-miterlimit:4;stroke-dasharray:none;stroke-dashoffset:0;stroke-opacity:1;-inkscape-stroke:none;stop-color:#000000;stop-opacity:1;fill-rule:nonzero"
     d="M 13.821017,37.416566 13.639735,35.322812 10.581587,32.999443 C 8.8996197,31.721613 7.4012557,30.597282 7.2519187,30.500968 7.1025707,30.40466 6.7376857,27.575987 6.4410757,24.215081 6.1444507,20.85418 5.7521827,16.427152 5.5693547,14.377245 5.3118347,11.489847 5.3322517,10.56187 5.6599737,10.258397 5.8926377,10.042948 7.9177997,9.0675239 10.16033,8.0907915 17.737917,4.7903817 19.667796,3.9410388 21.805853,2.9655834 L 23.93762,1.9929999 31.489503,5.333436 c 4.153509,1.837241 8.354588,3.6845514 9.335699,4.1051348 1.110719,0.4761451 1.782978,0.9732802 1.781575,1.3174642 -9.33e-4,0.304035 -0.306027,4.069469 -0.677299,8.367633 -0.371261,4.298186 -0.676053,8.514657 -0.677296,9.369899 l -0.03946,1.602419 -3.105849,2.331495 -3.142934,2.378887 -0.237078,2.123072 C 33.915474,49.000038 14.887835,48.901689 13.821025,37.416566 Z m 7.721834,-7.16804 v -7.39297 L 15.172034,18.88497 c -3.503955,-2.183813 -6.6383913,-4.071909 -6.9654343,-4.195798 -0.520177,-0.196992 -0.59488,0.0021 -0.596805,1.594971 0.30846,4.527295 0.585288,7.658428 1.119435,11.953442 l 2.2102863,1.928841 c 1.306974,1.14056 4.229616,3.130212 6.293924,4.671935 2.064278,1.541736 3.878395,2.803146 4.031347,2.803146 0.152935,0 0.278064,-3.326821 0.278064,-7.392981 z m 11.654651,2.588392 6.254799,-4.634756 0.444882,-6.493838 c 0.244681,-3.57164 0.341643,-6.597115 0.215448,-6.723303 -0.221683,-0.221666 -2.210166,0.759664 -3.959377,1.954029 -0.467171,0.318973 -2.875338,1.840558 -5.351466,3.381242 l -4.50206,2.801294 v 7.288287 c 0,4.435867 0.125851,7.243958 0.321511,7.175016 0.17682,-0.06239 3.136145,-2.198893 6.576263,-4.747971 z M 30.952778,14.684311 c 3.7012,-2.161321 6.848815,-4.046639 6.994646,-4.189582 C 38.093255,10.351784 35.00563,8.7581255 31.085992,6.9532642 L 23.959429,3.6716962 19.947977,5.4881998 C 11.405735,9.3563834 9.6330007,10.237479 9.8920777,10.486273 c 0.3847183,0.369458 13.8123743,8.10036 14.0952663,8.115279 0.129773,0.007 3.264227,-1.755889 6.965434,-3.917241 z"
     id="path3338" />
  <path
     style="font-variation-settings:normal;opacity:1;vector-effect:none;fill:url(#linearGradient821);fill-opacity:1.0;stroke:none;stroke-width:1.31711;stroke-linecap:butt;stroke-linejoin:miter;stroke-miterlimit:4;stroke-dasharray:none;stroke-dashoffset:0;stroke-opacity:1;-inkscape-stroke:none;stop-color:#000000;stop-opacity:1"
     d="M 21.815055,15.620628 C 20.658809,14.960966 18.983017,13.999219 18.091032,13.483425 17.199088,12.967628 15.74233,12.137732 14.853798,11.639251 13.370935,10.807333 13.26242,10.723499 13.532372,10.618405 13.69412,10.555425 14.66436,10.115251 15.688457,9.6402233 16.712555,9.1651942 18.766777,8.2220581 20.253386,7.5443635 21.739969,6.8666698 23.180809,6.1974958 23.455224,6.057308 l 0.498915,-0.2548821 3.825729,1.7539959 c 2.104153,0.9646978 4.474429,2.0499001 5.267282,2.4115561 0.792868,0.3616611 1.483418,0.6965241 1.534598,0.7441491 0.05117,0.04763 -0.786733,0.575249 -1.862018,1.172501 -1.86927,1.038263 -7.312921,4.087863 -8.321892,4.661966 l -0.480531,0.273431 z m 3.543817,-0.251355 c 0.726778,-0.412562 1.321427,-0.823295 1.321427,-0.912766 0,-0.0895 -0.441142,-0.414895 -0.980322,-0.723206 l -0.980334,-0.560498 0.950296,-1.166728 c 0.879445,-1.079748 1.080401,-1.405453 0.867112,-1.405453 -0.04572,0 -0.832999,0.302897 -1.749468,0.673115 -0.916487,0.370223 -1.688966,0.650491 -1.716628,0.622837 -0.02764,-0.02768 0.327165,-0.472953 0.788478,-0.989566 0.789861,-0.884552 1.004778,-1.2674214 0.711357,-1.2674214 -0.07007,0 -0.813324,0.2922423 -1.651756,0.6494224 -2.12373,0.904734 -3.650689,1.512895 -3.79852,1.512895 -0.06881,0 0.593751,-0.720353 1.472371,-1.600815 1.752051,-1.7556564 1.715033,-1.6386757 0.668341,-2.1114893 L 20.647303,7.8122829 18.438177,8.8337651 c -3.561723,1.6469029 -3.830961,1.7824909 -3.829174,1.9283459 9.33e-4,0.07638 1.116133,0.760513 2.478214,1.520315 1.362086,0.759814 3.429028,1.932928 4.59325,2.6069 1.164198,0.673949 2.170786,1.226429 2.23684,1.227702 0.06612,9.34e-4 0.714767,-0.335209 1.441565,-0.747755 z m 4.025352,-2.235978 c 2.891132,-1.579484 4.001861,-2.228054 4.046829,-2.362941 0.02358,-0.0706 -0.08032,-0.187136 -0.230622,-0.258999 C 33.050059,10.439486 31.764775,9.8419959 30.344238,9.1836007 28.923729,8.5252081 26.936314,7.6016474 25.927814,7.1312461 24.919327,6.6608417 24.043079,6.2759666 23.980676,6.2759666 c -0.278954,0 -2.663228,1.2101082 -2.622854,1.3312015 0.02478,0.074444 0.367589,0.2706122 0.761727,0.4359304 0.394134,0.1653164 0.740769,0.323491 0.770272,0.3514939 0.02952,0.027989 -0.362418,0.4694403 -0.870937,0.9809686 -0.508529,0.5115279 -0.924608,0.969399 -0.924608,1.017493 0,0.202158 0.510227,0.03428 2.850022,-0.9376601 1.357235,-0.5638052 2.494105,-0.9986998 2.526378,-0.966436 0.03238,0.032276 -0.326325,0.485029 -0.796876,1.0061424 -0.78795,0.8726697 -1.006499,1.2256537 -0.758832,1.2256537 0.05314,0 0.818031,-0.298297 1.699693,-0.662874 0.881644,-0.3645799 1.618776,-0.647073 1.638099,-0.6277603 0.03924,0.03928 -1.373754,1.8562213 -2.186392,2.8114053 -0.290019,0.340901 -0.527293,0.678116 -0.527293,0.749356 0,0.124369 1.733791,1.075138 1.983143,1.087492 0.06676,0.0025 0.904547,-0.421973 1.862006,-0.945078 z"
     id="path3342" />
</svg>
