<?xml version="1.0" encoding="UTF-8" standalone="no"?>
<svg
   version="1.1"
   width="16"
   height="16"
   id="svg8"
   xmlns="http://www.w3.org/2000/svg"
   xmlns:svg="http://www.w3.org/2000/svg"
   xmlns:rdf="http://www.w3.org/1999/02/22-rdf-syntax-ns#"
   xmlns:cc="http://creativecommons.org/ns#"
   xmlns:dc="http://purl.org/dc/elements/1.1/">
  <defs>
    <style id="current-color-scheme" type="text/css">
      .ColorScheme-Text { color: #0abdc6; } .ColorScheme-Highlight { color:#5294e2; }
    </style>
    <linearGradient id="arrongin" x1="0%" x2="0%" y1="0%" y2="100%">
      <stop offset="0%" style="stop-color:#dd9b44; stop-opacity:1"/>
      <stop offset="100%" style="stop-color:#ad6c16; stop-opacity:1"/>
    </linearGradient>
    <linearGradient id="aurora" x1="0%" x2="0%" y1="0%" y2="100%">
      <stop offset="0%" style="stop-color:#09D4DF; stop-opacity:1"/>
      <stop offset="100%" style="stop-color:#9269F4; stop-opacity:1"/>
    </linearGradient>
    <linearGradient id="cyberneon" x1="0%" x2="0%" y1="0%" y2="100%">
      <stop offset="0" style="stop-color:#0abdc6; stop-opacity:1"/>
      <stop offset="1" style="stop-color:#ea00d9; stop-opacity:1"/>
    </linearGradient>
    <linearGradient id="fitdance" x1="0%" x2="0%" y1="0%" y2="100%">
      <stop offset="0%" style="stop-color:#1AD6AB; stop-opacity:1"/>
      <stop offset="100%" style="stop-color:#329DB6; stop-opacity:1"/>
    </linearGradient>
    <linearGradient id="oomox" x1="0%" x2="0%" y1="0%" y2="100%">
      <stop offset="0%" style="stop-color:#0abdc6; stop-opacity:1"/>
      <stop offset="100%" style="stop-color:#b800ff; stop-opacity:1"/>
    </linearGradient>
    <linearGradient id="rainblue" x1="0%" x2="0%" y1="0%" y2="100%">
      <stop offset="0%" style="stop-color:#00F260; stop-opacity:1"/>
      <stop offset="100%" style="stop-color:#0575E6; stop-opacity:1"/>
    </linearGradient>
    <linearGradient id="sunrise" x1="0%" x2="0%" y1="0%" y2="100%">
      <stop offset="0%" style="stop-color: #FF8501; stop-opacity:1"/>
      <stop offset="100%" style="stop-color: #FFCB01; stop-opacity:1"/>
    </linearGradient>
    <linearGradient id="telinkrin" x1="0%" x2="0%" y1="0%" y2="100%">
      <stop offset="0%" style="stop-color: #b2ced6; stop-opacity:1"/>
      <stop offset="100%" style="stop-color: #6da5b7; stop-opacity:1"/>
    </linearGradient>
    <linearGradient id="60spsycho" x1="0%" x2="0%" y1="0%" y2="100%">
      <stop offset="0%" style="stop-color: #df5940; stop-opacity:1"/>
      <stop offset="25%" style="stop-color: #d8d15f; stop-opacity:1"/>
      <stop offset="50%" style="stop-color: #e9882a; stop-opacity:1"/>
      <stop offset="100%" style="stop-color: #279362; stop-opacity:1"/>
    </linearGradient>
    <linearGradient id="90ssummer" x1="0%" x2="0%" y1="0%" y2="100%">
      <stop offset="0%" style="stop-color: #f618c7; stop-opacity:1"/>
      <stop offset="20%" style="stop-color: #94ffab; stop-opacity:1"/>
      <stop offset="50%" style="stop-color: #fbfd54; stop-opacity:1"/>
      <stop offset="100%" style="stop-color: #0f83ae; stop-opacity:1"/>
    </linearGradient>
  </defs>
  <path
     d="m 4.3115167,3.4685307 c 0.032907,-1.56e-4 0.065814,-2.808e-4 0.099718,-4.429e-4 0.1095139,-3.712e-4 0.2190153,-9.36e-5 0.3285292,2.183e-4 0.078821,-1.248e-4 0.1576409,-2.807e-4 0.2364609,-4.959e-4 0.1914102,-3.806e-4 0.382816,-3.275e-4 0.5742262,-6.24e-5 0.1556435,2.183e-4 0.3112862,2.495e-4 0.4669296,1.247e-4 0.033302,-2.15e-5 0.033302,-2.15e-5 0.067276,-3.11e-5 0.04511,-3e-5 0.090219,-6.24e-5 0.1353284,-9.36e-5 0.4224141,-2.807e-4 0.844826,3.12e-5 1.2672394,5.427e-4 0.3619919,4.179e-4 0.7239813,3.462e-4 1.0859733,-9.36e-5 0.4209622,-5.021e-4 0.8419227,-6.986e-4 1.2628852,-4.117e-4 0.044939,3e-5 0.089876,6.24e-5 0.1348144,9.36e-5 0.033161,2.18e-5 0.033161,2.18e-5 0.066991,3.12e-5 0.155352,9.35e-5 0.310702,-6.24e-5 0.466054,-2.807e-4 0.209314,-2.808e-4 0.418622,-9.36e-5 0.627935,4.585e-4 0.07672,1.247e-4 0.153443,9.35e-5 0.230164,-1.248e-4 0.104913,-2.495e-4 0.209809,6.24e-5 0.314721,5.302e-4 0.03019,-2.183e-4 0.06038,-4.179e-4 0.09148,-6.331e-4 0.286855,0.00246 0.52662,0.053674 0.742861,0.2494865 0.03679,0.043777 0.03679,0.043777 0.03679,0.1061576 0.530144,0.1646484 1.061017,0.2026389 1.611775,0.2266235 0.483021,0.021897 0.819479,0.095871 1.164148,0.4595597 0.163306,0.2287055 0.253062,0.4982304 0.298499,0.77354 0.0058,0.03423 0.0058,0.03423 0.01173,0.069152 0.04405,0.2707701 0.06837,0.5430118 0.09134,0.8162338 0.0025,0.028544 0.005,0.057089 0.0075,0.086498 0.09119,1.0501159 0.161132,2.1023724 0.231759,3.1540408 0.0025,0.037027 0.005,0.074055 0.0075,0.1122034 0.0549,0.8597016 0.0549,0.8597016 -0.240108,1.2409816 -0.316818,0.35531 -0.799662,0.47729 -1.240661,0.605284 -0.05743,0.01697 -0.114849,0.03397 -0.172262,0.051 -0.159757,0.04721 -0.31969,0.09381 -0.479664,0.140277 -0.112051,0.03261 -0.224046,0.0654 -0.336031,0.09822 -0.221876,0.06502 -0.443853,0.129682 -0.665887,0.194152 -0.05863,0.01704 -0.117252,0.03414 -0.175869,0.05123 -0.394896,0.114975 -0.790111,0.226093 -1.190005,0.32248 -0.03056,0.0074 -0.06113,0.01475 -0.09262,0.02234 -0.893463,0.210339 -1.805944,0.283037 -2.7217981,0.283468 -0.051695,9.4e-5 -0.1033894,2.19e-4 -0.1550842,3.15e-4 -0.1077006,1.88e-4 -0.2154005,2.5e-4 -0.3231012,2.19e-4 -0.1084058,-3e-6 -0.2168074,2.18e-4 -0.3252122,6.39e-4 -0.7993162,0.0031 -1.5977025,-0.0036 -2.3900592,-0.123382 -0.053706,-0.008 -0.053706,-0.008 -0.1084956,-0.01613 -1.0988318,-0.17074 -2.1688749,-0.524761 -3.2333344,-0.839198 -0.06706,-0.01979 -0.1341347,-0.03953 -0.2012132,-0.05926 -0.1073725,-0.0316 -0.2146886,-0.06337 -0.3219675,-0.09528 -0.058653,-0.01741 -0.1173511,-0.03466 -0.1760512,-0.05191 C 0.89318713,11.188647 0.39175062,11.01983 0.08938679,10.527429 0.01175421,10.353736 -0.00277634,10.210384 8.067462e-5,10.02132 3.301958e-4,9.9919728 5.641219e-4,9.9626257 8.1364739e-4,9.9323893 0.00768827,9.4968829 0.0424946,9.0622217 0.07429358,8.6279707 0.08152907,8.5287411 0.08860143,8.4294999 0.09568129,8.3302591 0.11832315,8.0131854 0.14170266,7.6961688 0.16541278,7.3791732 c 0.001566,-0.020973 0.00313,-0.041945 0.004743,-0.063553 0.0198697,-0.2660771 0.0404074,-0.5320945 0.0615357,-0.7980746 0.003462,-0.04456 0.003462,-0.04456 0.006994,-0.090019 0.0246527,-0.3149609 0.0552923,-0.628624 0.0960797,-0.9419362 0.00345,-0.02755 0.006901,-0.055101 0.0104559,-0.083485 0.0615373,-0.4504172 0.20553441,-0.793895 0.53756476,-1.1107563 0.0721487,-0.053359 0.13593906,-0.086733 0.21833096,-0.1247606 0.039562,-0.018334 0.039562,-0.018334 0.079925,-0.037038 0.162923,-0.054308 0.3301008,-0.062628 0.5005044,-0.069934 0.046284,-0.00223 0.092566,-0.00448 0.138848,-0.00675 0.035881,-0.00173 0.035881,-0.00173 0.072486,-0.00349 0.405996,-0.020039 0.8069796,-0.041194 1.2044054,-0.1323002 0.028265,-0.00595 0.05653,-0.011901 0.085651,-0.018032 C 3.3546987,3.8538503 3.4561082,3.7630517 3.576713,3.6344064 3.7911171,3.4763984 4.0541686,3.4667513 4.3115167,3.4685307 Z m 1.9691141,1.0996382 c -0.047095,0.00183 -0.047095,0.00183 -0.09514,0.0037 -0.3384515,0.013583 -0.6759316,0.033478 -1.0134505,0.062216 -0.029516,0.00249 -0.059032,0.00499 -0.089443,0.00756 C 4.7091187,4.6751629 4.345897,4.7270189 4.0700289,5.0028873 3.7705966,5.4392025 3.8004693,5.9525066 3.7823728,6.4637071 c -0.00261,0.069233 -0.00525,0.1384658 -0.0079,0.2076979 -0.00551,0.1451795 -0.010872,0.2903634 -0.016109,0.4355529 -0.00657,0.1821883 -0.013406,0.3643655 -0.020336,0.5465406 -0.013348,0.3509201 -0.025972,0.7018566 -0.037801,1.0528312 -0.00646,0.1897615 -0.013694,0.3794665 -0.021786,0.5691653 -0.00466,0.1117727 -0.00878,0.2235613 -0.01276,0.3353602 -0.00193,0.050672 -0.00409,0.1013362 -0.00652,0.1519868 -0.017813,0.374464 0.00541,0.742691 0.2490686,1.047261 0.016726,0.02509 0.033451,0.05018 0.050684,0.07603 0.3245834,0.350208 0.781301,0.466603 1.2359096,0.547777 0.020786,0.0038 0.041571,0.0076 0.062987,0.01155 0.5858335,0.106951 1.1776781,0.173524 1.7694335,0.237973 0.057165,0.0063 0.057165,0.0063 0.1154856,0.01269 0.092074,0.0099 0.184171,0.01929 0.2763406,0.02825 0.023626,0.0024 0.047252,0.0048 0.071595,0.0072 0.4483633,0.03945 0.8897919,0.0057 1.3358612,-0.04036 0.027843,-0.0028 0.055686,-0.0056 0.084373,-0.0085 0.6447373,-0.06502 1.2857801,-0.146022 1.9234931,-0.262465 0.03208,-0.0056 0.06416,-0.01129 0.09721,-0.01711 0.436192,-0.08378 0.863597,-0.271894 1.148438,-0.624237 0.123657,-0.199009 0.194984,-0.403906 0.19529,-0.639292 9.4e-5,-0.04103 2.18e-4,-0.08206 3.21e-4,-0.124325 -2.81e-4,-0.045748 -5.8e-4,-0.091495 -9.14e-4,-0.1372426 -9.4e-5,-0.02386 -1.56e-4,-0.047721 -2.49e-4,-0.072303 -0.0027,-0.7001817 -0.03073,-1.3999838 -0.05718,-2.0995848 -0.0073,-0.1929871 -0.01418,-0.3859861 -0.02096,-0.5789917 -0.0053,-0.1508187 -0.01091,-0.301629 -0.01654,-0.4524374 -0.0026,-0.071195 -0.0052,-0.1423929 -0.0077,-0.2135931 0.0019,-0.8095216 0.0019,-0.8095216 -0.34745,-1.5108891 -0.278342,-0.2560509 -0.69909,-0.2869499 -1.05949,-0.317506 -0.02955,-0.00258 -0.05911,-0.00516 -0.08956,-0.00781 C 10.33842,4.5967403 10.00087,4.5809573 9.6627923,4.5681763 9.6121633,4.5662263 9.6121633,4.5662263 9.5605114,4.5642363 8.4670352,4.523125 7.3739693,4.5250211 6.2806053,4.5681756 Z M 1.7958517,6.3889318 c -0.050537,0.069361 -0.050595,0.1081088 -0.04888,0.1933165 3.026e-4,0.026436 6.032e-4,0.052871 9.139e-4,0.080108 7.842e-4,0.027481 0.00157,0.054962 0.00238,0.083275 4.223e-4,0.027843 8.443e-4,0.055685 0.00128,0.084372 0.0011,0.068714 0.00264,0.137391 0.00457,0.2060864 -0.017462,-4.897e-4 -0.034924,-9.794e-4 -0.052915,-0.00148 -0.079178,-0.00195 -0.1583507,-0.00316 -0.2375432,-0.00436 -0.041221,-0.00118 -0.041221,-0.00118 -0.083275,-0.00238 -0.026435,-3.119e-4 -0.052871,-6.019e-4 -0.080108,-9.138e-4 -0.024337,-4.897e-4 -0.048675,-9.795e-4 -0.07375,-0.00148 -0.082891,0.013542 -0.1095225,0.036808 -0.1585931,0.1041932 -0.00931,0.086122 -0.013072,0.1636073 -0.011696,0.2495211 -3.618e-4,0.022596 -7.236e-4,0.045192 -0.0011,0.068472 -9.95e-4,0.1249284 -9.95e-4,0.1249284 0.051682,0.2344517 0.069456,0.051021 0.1079089,0.051028 0.1934537,0.049306 0.039653,-4.523e-4 0.039653,-4.523e-4 0.080108,-9.139e-4 0.041222,-0.00118 0.041222,-0.00118 0.083275,-0.00238 0.027843,-4.21e-4 0.055686,-8.452e-4 0.084372,-0.00128 0.068714,-0.0011 0.137391,-0.00264 0.2060865,-0.00457 -4.9e-4,0.017462 -9.8e-4,0.034924 -0.00148,0.052915 -0.00195,0.079178 -0.00316,0.1583509 -0.00436,0.2375433 -7.841e-4,0.027481 -0.00157,0.054962 -0.00238,0.083275 -3.026e-4,0.026436 -6.032e-4,0.052871 -9.139e-4,0.080108 -4.9e-4,0.024337 -9.799e-4,0.048675 -0.00148,0.073749 0.013572,0.083082 0.036515,0.109527 0.1041931,0.1585931 0.091391,0.010967 0.1737975,0.015901 0.2651163,0.015596 0.024084,8.857e-4 0.048167,0.00177 0.07298,0.00268 0.1105263,3.836e-4 0.1744736,-9.544e-4 0.2551256,-0.080047 0.040865,-0.1258504 0.040721,-0.2377245 0.036429,-0.3690428 -4.22e-4,-0.024586 -8.443e-4,-0.049172 -0.00128,-0.074503 -0.0011,-0.060298 -0.00277,-0.1205851 -0.00457,-0.1808663 0.017462,6.519e-4 0.034924,0.00131 0.052915,0.00198 0.079175,0.0026 0.1583417,0.00422 0.2375432,0.00582 0.027481,0.00104 0.054962,0.00209 0.083275,0.00317 0.1525372,0.00586 0.1525372,0.00586 0.283818,-0.060187 0.038328,-0.1011225 0.041014,-0.1858022 0.040327,-0.2938698 2.495e-4,-0.037954 4.834e-4,-0.075909 7.298e-4,-0.1150137 C 3.1642006,7.1637 3.1642006,7.1637 3.1310326,7.085311 3.0210355,7.0019347 2.8974151,7.0232126 2.7639392,7.02829 2.7360962,7.0288546 2.7082542,7.02942 2.6795672,7.03 2.6108382,7.03147 2.5421763,7.03352 2.4734808,7.03609 c 0.00109,-0.036467 0.00217,-0.072934 0.00329,-0.1105058 8.78e-4,-0.048288 0.00173,-0.096575 0.00256,-0.1448636 7.841e-4,-0.023983 0.00157,-0.047966 0.00238,-0.072676 0.00139,-0.1082093 -0.00517,-0.1927738 -0.038804,-0.2963671 -0.080652,-0.079092 -0.1445994,-0.08043 -0.2551257,-0.080047 -0.024084,8.857e-4 -0.048167,0.00177 -0.07298,0.00268 -0.024084,-9.36e-5 -0.048167,-1.559e-4 -0.07298,-2.495e-4 -0.1308582,2.807e-4 -0.1308582,2.807e-4 -0.245965,0.054865 z m 12.2239563,0.402266 c -0.09533,0.148156 -0.113618,0.2940149 -0.08504,0.4638315 0.05256,0.1945283 0.162873,0.3223231 0.328593,0.436053 0.170713,0.070861 0.321622,0.075627 0.499043,0.03119 0.173562,-0.090119 0.28968,-0.2152526 0.384028,-0.3859781 0.05128,-0.1958123 0.0355,-0.3469348 -0.06165,-0.5219475 -0.101241,-0.1432772 -0.24344,-0.2664145 -0.415949,-0.30849 -0.278428,-0.027386 -0.476281,0.064117 -0.649024,0.285341 z m -1.440717,0.5256026 c -0.09416,0.1244266 -0.129483,0.2501747 -0.12476,0.405472 0.03866,0.1914124 0.106951,0.3581015 0.270842,0.4737003 0.165292,0.095782 0.320708,0.1170451 0.508911,0.087722 0.213927,-0.066455 0.33891,-0.1914564 0.44641,-0.3859782 0.05437,-0.2075975 0.02863,-0.3621098 -0.07212,-0.5497263 C 13.502222,7.194663 13.413702,7.1202792 13.234089,7.067279 12.949869,7.0347969 12.771038,7.0989211 12.579096,7.3168001 Z M 2.7113084,9.4045909 c -0.027506,0.09077 -0.030849,0.156845 -0.019494,0.2514706 0.064406,0.1173111 0.1274821,0.2213409 0.2495212,0.2807113 0.1191634,0.020507 0.2293939,0.02734 0.3383401,-0.030703 C 3.4050608,9.8062548 3.4628954,9.722553 3.4832645,9.5663898 3.4655042,9.4183885 3.3917576,9.3317242 3.2941742,9.2232982 3.0524643,9.1057095 2.858604,9.1970383 2.7113084,9.4045909 Z m 0.074077,0.7817031 c -0.076753,0.105535 -0.1012934,0.185698 -0.09357,0.313851 0.027317,0.156995 0.1208233,0.228452 0.2436731,0.321648 0.1096405,0.03133 0.2104742,0.02157 0.3177495,-0.0117 0.097529,-0.07845 0.1834424,-0.158604 0.2183302,-0.280711 -0.00244,-0.153854 -0.00632,-0.2186 -0.1033174,-0.339193 -0.09604,-0.07594 -0.1598835,-0.120762 -0.2807113,-0.140356 -0.1183752,0.01652 -0.2096492,0.06309 -0.3021541,0.136457 z"
     id="path1"
     class="ColorScheme-Text"
     style="fill:url(#oomox);opacity:1;stroke-width:0.0311902" />
  <path
     d="m 4.5944134,5.5389623 c 2.2438192,0 4.4876383,0 6.7994526,0 0,1.4101063 0,2.8202129 0,4.2730499 -2.2438197,0 -4.4876389,0 -6.7994526,0 0,-1.4101065 0,-2.8202131 0,-4.2730499 z"
     id="path2"
     class="ColorScheme-Text"
     style="fill:url(#oomox);opacity:0.8;stroke-width:0.0311902" />
  <metadata
     id="metadata8">
    <rdf:RDF>
      <cc:Work
         rdf:about="">
        <dc:creator>
          <cc:Agent>
            <dc:title>dreifacherspass</dc:title>
          </cc:Agent>
        </dc:creator>
        <cc:license
           rdf:resource="http://creativecommons.org/licenses/by-sa/4.0/" />
      </cc:Work>
      <cc:License
         rdf:about="http://creativecommons.org/licenses/by-sa/4.0/">
        <cc:permits
           rdf:resource="http://creativecommons.org/ns#Reproduction" />
        <cc:permits
           rdf:resource="http://creativecommons.org/ns#Distribution" />
        <cc:requires
           rdf:resource="http://creativecommons.org/ns#Notice" />
        <cc:requires
           rdf:resource="http://creativecommons.org/ns#Attribution" />
        <cc:permits
           rdf:resource="http://creativecommons.org/ns#DerivativeWorks" />
        <cc:requires
           rdf:resource="http://creativecommons.org/ns#ShareAlike" />
      </cc:License>
    </rdf:RDF>
  </metadata>
</svg>
