<?xml version="1.0" encoding="UTF-8" standalone="no"?>
<svg
   viewBox="0 0 16 16"
   xml:space="preserve"
   version="1.1"
   id="svg6"
   width="16"
   height="16"
   xmlns="http://www.w3.org/2000/svg"
   xmlns:svg="http://www.w3.org/2000/svg"
   xmlns:rdf="http://www.w3.org/1999/02/22-rdf-syntax-ns#"
   xmlns:cc="http://creativecommons.org/ns#"
   xmlns:dc="http://purl.org/dc/elements/1.1/">
  <defs>
    <style id="current-color-scheme" type="text/css">
      .ColorScheme-Text { color: #0abdc6; } .ColorScheme-Highlight { color:#5294e2; }
    </style>
    <linearGradient id="arrongin" x1="0%" x2="0%" y1="0%" y2="100%">
      <stop offset="0%" style="stop-color:#dd9b44; stop-opacity:1"/>
      <stop offset="100%" style="stop-color:#ad6c16; stop-opacity:1"/>
    </linearGradient>
    <linearGradient id="aurora" x1="0%" x2="0%" y1="0%" y2="100%">
      <stop offset="0%" style="stop-color:#09D4DF; stop-opacity:1"/>
      <stop offset="100%" style="stop-color:#9269F4; stop-opacity:1"/>
    </linearGradient>
    <linearGradient id="cyberneon" x1="0%" x2="0%" y1="0%" y2="100%">
      <stop offset="0" style="stop-color:#0abdc6; stop-opacity:1"/>
      <stop offset="1" style="stop-color:#ea00d9; stop-opacity:1"/>
    </linearGradient>
    <linearGradient id="fitdance" x1="0%" x2="0%" y1="0%" y2="100%">
      <stop offset="0%" style="stop-color:#1AD6AB; stop-opacity:1"/>
      <stop offset="100%" style="stop-color:#329DB6; stop-opacity:1"/>
    </linearGradient>
    <linearGradient id="oomox" x1="0%" x2="0%" y1="0%" y2="100%">
      <stop offset="0%" style="stop-color:#0abdc6; stop-opacity:1"/>
      <stop offset="100%" style="stop-color:#b800ff; stop-opacity:1"/>
    </linearGradient>
    <linearGradient id="rainblue" x1="0%" x2="0%" y1="0%" y2="100%">
      <stop offset="0%" style="stop-color:#00F260; stop-opacity:1"/>
      <stop offset="100%" style="stop-color:#0575E6; stop-opacity:1"/>
    </linearGradient>
    <linearGradient id="sunrise" x1="0%" x2="0%" y1="0%" y2="100%">
      <stop offset="0%" style="stop-color: #FF8501; stop-opacity:1"/>
      <stop offset="100%" style="stop-color: #FFCB01; stop-opacity:1"/>
    </linearGradient>
    <linearGradient id="telinkrin" x1="0%" x2="0%" y1="0%" y2="100%">
      <stop offset="0%" style="stop-color: #b2ced6; stop-opacity:1"/>
      <stop offset="100%" style="stop-color: #6da5b7; stop-opacity:1"/>
    </linearGradient>
    <linearGradient id="60spsycho" x1="0%" x2="0%" y1="0%" y2="100%">
      <stop offset="0%" style="stop-color: #df5940; stop-opacity:1"/>
      <stop offset="25%" style="stop-color: #d8d15f; stop-opacity:1"/>
      <stop offset="50%" style="stop-color: #e9882a; stop-opacity:1"/>
      <stop offset="100%" style="stop-color: #279362; stop-opacity:1"/>
    </linearGradient>
    <linearGradient id="90ssummer" x1="0%" x2="0%" y1="0%" y2="100%">
      <stop offset="0%" style="stop-color: #f618c7; stop-opacity:1"/>
      <stop offset="20%" style="stop-color: #94ffab; stop-opacity:1"/>
      <stop offset="50%" style="stop-color: #fbfd54; stop-opacity:1"/>
      <stop offset="100%" style="stop-color: #0f83ae; stop-opacity:1"/>
    </linearGradient>
  </defs>
    <path
   id="path1234"
   style="opacity:0.8;display:inline;fill:url(#oomox)"
   class="ColorScheme-Text"
   d="M 1461.3246 -0.036649076 C 1429.7133 0.47702229 1398.8246 12.998879 1375.3871 36.373855 L 587.30117 754.87448 L 902.48671 993.97012 L 1867.3305 262.11898 C 1921.8304 220.81902 1999.8988 259.5007 1999.8988 327.90063 L 1999.8988 323.28863 C 1999.8988 275.28868 1972.5421 231.55878 1929.3422 210.6588 L 1517.4769 12.342922 C 1499.5895 3.7179311 1480.2914 -0.34485189 1461.3246 -0.036649076 z M 325.33828 993.97012 L 27.242572 1265.5925 C -9.0573918 1298.6925 -9.0573918 1355.9028 27.242572 1388.9027 L 137.34999 1488.9102 C 167.04996 1515.9102 211.79534 1518.065 243.79531 1493.765 L 587.54531 1233.0658 L 325.33828 993.97012 z "
   transform="matrix(0.008,0,0,0.00804627,-0.00504995,2.9488836e-4)" />
    <path
   d="m 1929.3,1777.8 -411.8,198.3 c -47.7,23 -104.6,13.3 -142.1,-24.1 L 27.2,722.7 C -9.1,689.6 -9,632.5 27.3,599.5 L 137.4,499.4 c 29.7,-27 74.4,-29 106.4,-4.7 l 1623.6,1231.7 c 54.5,41.3 132.7,2.5 132.7,-65.9 v 4.8 c -0.1,48 -27.6,91.7 -70.8,112.5 z"
   style="opacity:0.8;fill:url(#oomox)"
   id="path1235"
   class="ColorScheme-Text"
   transform="matrix(0.008,0,0,0.00804627,-0.0100999,3.2359672e-4)" />
    <path
   d="m 1517.4,1976.2 c -47.7,22.9 -104.7,13.2 -142.1,-24.2 46.1,46.1 124.9,13.4 124.9,-51.7 V 88.2 c 0,-65.2 -78.8,-97.8 -124.9,-51.7 37.4,-37.4 94.4,-47.1 142.1,-24.2 l 411.8,198 c 43.3,20.8 70.8,64.6 70.8,112.6 v 1342.7 c 0,48 -27.5,91.8 -70.8,112.6 z"
   style="display:inline;fill:url(#oomox)"
   id="path1236"
   class="ColorScheme-Text"
   transform="matrix(0.008,0,0,0.00804627,0,1.1400348e-4)" />
    <metadata
   id="metadata6"><rdf:RDF><cc:Work
       rdf:about=""><dc:creator><cc:Agent><dc:title>dreifacherspass</dc:title></cc:Agent></dc:creator><cc:license
         rdf:resource="http://creativecommons.org/licenses/by-sa/4.0/" /></cc:Work><cc:License
       rdf:about="http://creativecommons.org/licenses/by-sa/4.0/"><cc:permits
         rdf:resource="http://creativecommons.org/ns#Reproduction" /><cc:permits
         rdf:resource="http://creativecommons.org/ns#Distribution" /><cc:requires
         rdf:resource="http://creativecommons.org/ns#Notice" /><cc:requires
         rdf:resource="http://creativecommons.org/ns#Attribution" /><cc:permits
         rdf:resource="http://creativecommons.org/ns#DerivativeWorks" /><cc:requires
         rdf:resource="http://creativecommons.org/ns#ShareAlike" /></cc:License></rdf:RDF></metadata></svg>
