<?xml version="1.0" encoding="UTF-8" standalone="no"?>
<!-- Created with Inkscape (http://www.inkscape.org/) -->

<svg
   width="16"
   height="16"
   viewBox="0 0 4.2333333 4.2333333"
   version="1.1"
   id="svg183"
   xmlns="http://www.w3.org/2000/svg"
   xmlns:svg="http://www.w3.org/2000/svg"
   xmlns:rdf="http://www.w3.org/1999/02/22-rdf-syntax-ns#"
   xmlns:cc="http://creativecommons.org/ns#"
   xmlns:dc="http://purl.org/dc/elements/1.1/">
  <defs>
   <style id="current-color-scheme" type="text/css">
   .ColorScheme-Text { color: #0abdc6; } .ColorScheme-Highlight { color:#5294e2; }
  </style>
  <linearGradient id="arrongin" x1="0%" x2="0%" y1="0%" y2="100%">
   <stop offset="0%" style="stop-color:#dd9b44; stop-opacity:1"/>
   <stop offset="100%" style="stop-color:#ad6c16; stop-opacity:1"/>
  </linearGradient>
  <linearGradient id="aurora" x1="0%" x2="0%" y1="0%" y2="100%">
   <stop offset="0%" style="stop-color:#09D4DF; stop-opacity:1"/>
   <stop offset="100%" style="stop-color:#9269F4; stop-opacity:1"/>
  </linearGradient>
  <linearGradient id="cyberneon" x1="0%" x2="0%" y1="0%" y2="100%">
    <stop offset="0" style="stop-color:#0abdc6; stop-opacity:1"/>
    <stop offset="1" style="stop-color:#ea00d9; stop-opacity:1"/>
  </linearGradient>
  <linearGradient id="fitdance" x1="0%" x2="0%" y1="0%" y2="100%">
   <stop offset="0%" style="stop-color:#1AD6AB; stop-opacity:1"/>
   <stop offset="100%" style="stop-color:#329DB6; stop-opacity:1"/>
  </linearGradient>
  <linearGradient id="oomox" x1="0%" x2="0%" y1="0%" y2="100%">
   <stop offset="0%" style="stop-color:#0abdc6; stop-opacity:1"/>
   <stop offset="100%" style="stop-color:#b800ff; stop-opacity:1"/>
  </linearGradient>
  <linearGradient id="rainblue" x1="0%" x2="0%" y1="0%" y2="100%">
   <stop offset="0%" style="stop-color:#00F260; stop-opacity:1"/>
   <stop offset="100%" style="stop-color:#0575E6; stop-opacity:1"/>
  </linearGradient>
  <linearGradient id="sunrise" x1="0%" x2="0%" y1="0%" y2="100%">
   <stop offset="0%" style="stop-color: #FF8501; stop-opacity:1"/>
   <stop offset="100%" style="stop-color: #FFCB01; stop-opacity:1"/>
  </linearGradient>
  <linearGradient id="telinkrin" x1="0%" x2="0%" y1="0%" y2="100%">
   <stop offset="0%" style="stop-color: #b2ced6; stop-opacity:1"/>
   <stop offset="100%" style="stop-color: #6da5b7; stop-opacity:1"/>
  </linearGradient>
  <linearGradient id="60spsycho" x1="0%" x2="0%" y1="0%" y2="100%">
   <stop offset="0%" style="stop-color: #df5940; stop-opacity:1"/>
   <stop offset="25%" style="stop-color: #d8d15f; stop-opacity:1"/>
   <stop offset="50%" style="stop-color: #e9882a; stop-opacity:1"/>
   <stop offset="100%" style="stop-color: #279362; stop-opacity:1"/>
  </linearGradient>
  <linearGradient id="90ssummer" x1="0%" x2="0%" y1="0%" y2="100%">
   <stop offset="0%" style="stop-color: #f618c7; stop-opacity:1"/>
   <stop offset="20%" style="stop-color: #94ffab; stop-opacity:1"/>
   <stop offset="50%" style="stop-color: #fbfd54; stop-opacity:1"/>
   <stop offset="100%" style="stop-color: #0f83ae; stop-opacity:1"/>
  </linearGradient>
 </defs>
  <path
     id="path888"
     class="ColorScheme-Text"
     style="solid-opacity:1;vector-effect:none;fill:url(#oomox);fill-opacity:1;fill-rule:nonzero;stroke:none;stroke-width:0.273638;stroke-linecap:butt;stroke-linejoin:miter;stroke-miterlimit:4;stroke-dasharray:none;stroke-dashoffset:0;stroke-opacity:1;color-rendering:auto;image-rendering:auto;shape-rendering:auto;text-rendering:auto;enable-background:accumulate"
     d="M 1.88228,2.224677 1.74644,2.2408472 0.52806363,2.3858174 0.57008269,2.7413816 1.9242987,2.580248 Z M 3.3421845,0.83014771 3.2602169,0.94333238 2.6921897,1.7276898 3.0123326,1.95954 3.6623274,1.0619979 Z M 3.6966423,0.18878945 c -0.2599012,0 -0.4737701,0.21381103 -0.4737701,0.47371572 0,0.25990125 0.2138689,0.47377013 0.4737701,0.47377013 0.2599012,0 0.4737668,-0.21386888 0.4737668,-0.47377013 0,-0.25990469 -0.2138656,-0.47371572 -0.4737668,-0.47371572 z m 0,0.29366804 c 0.1011847,0 0.1800442,0.0788596 0.1800442,0.18004768 0,0.10118467 -0.07886,0.18004424 -0.1800442,0.18004424 -0.1011881,0 -0.1800476,-0.0788596 -0.1800476,-0.18004424 0,-0.10118807 0.078859,-0.18004768 0.1800476,-0.18004768 z M 2.4541608,1.5717986 c -0.4017974,0 -0.7311897,0.3294503 -0.7311897,0.7312511 0,0.4018008 0.3293923,0.7311965 0.7311897,0.7311965 0.4017974,0 0.7312475,-0.3293957 0.7312475,-0.7311966 0,-0.4017974 -0.3294467,-0.731251 -0.7312475,-0.731251 z m 0,0.3450316 c 0.2153293,0 0.386165,0.1708936 0.386165,0.3862195 0,0.2153294 -0.1708357,0.3861651 -0.386165,0.3861651 -0.215326,0 -0.3861617,-0.1708357 -0.3861617,-0.3861651 0,-0.2153259 0.1708357,-0.3862195 0.3861617,-0.3862195 z M 0.31073088,2.2854293 C 0.14020696,2.2854293 0,2.4256369 0,2.5961629 c 0,0.1705259 0.14020696,0.310788 0.31073088,0.310788 0.17052357,0 0.3107867,-0.1402621 0.3107867,-0.310788 0,-0.170526 -0.14026313,-0.3107336 -0.3107867,-0.3107336 z m 0,0.1861617 c 0.0698904,0 0.12457021,0.054679 0.12457021,0.1245719 0,0.069889 -0.0546798,0.1245719 -0.12457021,0.1245719 -0.0698907,0 -0.12451473,-0.054683 -0.12451473,-0.1245719 0,-0.069893 0.054624,-0.1245719 0.12451473,-0.1245719 z M 3.1991139,3.1837917 3.3268585,3.0600811 3.53797,3.2644726 3.4196381,3.3949066 Z M 2.9516926,2.9632641 3.0982628,2.8166939 3.2797947,3.0062939 3.1466713,3.1474854 Z M 1.6836655,1.4464608 1.8396485,1.3227503 2.0682408,1.6024437 1.8988145,1.7369119 Z M 1.4537285,1.1613885 1.5962613,1.045746 1.8006528,1.277031 1.6500485,1.403431 Z M 2.0373166,2.9995705 2.2363259,3.1017662 2.0534527,3.4244896 1.85444,3.33843 Z M 3.828438,3.23475 c -0.2221753,0 -0.4048952,0.18272 -0.4048952,0.4048953 0,0.2221787 0.1827199,0.4048986 0.4048952,0.4048986 0.2221753,0 0.4048953,-0.1827199 0.4048953,-0.4048986 C 4.2333333,3.41747 4.0506133,3.23475 3.828438,3.23475 Z M 1.8060179,3.4230224 c -0.1483881,0 -0.2704306,0.1219881 -0.2704306,0.2703761 0,0.1483914 0.1220425,0.270434 0.2704306,0.270434 0.148388,0 0.2704306,-0.1220426 0.2704306,-0.270434 0,-0.148388 -0.1220426,-0.2703761 -0.2704306,-0.2703761 z M 1.3004554,0.52387029 c -0.1690485,0 -0.30806127,0.13901276 -0.30806127,0.30806465 0,0.16904846 0.13901277,0.30806466 0.30806127,0.30806466 0.1690485,0 0.3080646,-0.1390162 0.3080646,-0.30806466 0,-0.16905189 -0.1390161,-0.30806465 -0.3080646,-0.30806465 z" />
  <metadata
     id="metadata304">
    <rdf:RDF>
      <cc:Work
         rdf:about="">
        <dc:creator>
          <cc:Agent>
            <dc:title>dreifacherspass</dc:title>
          </cc:Agent>
        </dc:creator>
        <cc:license
           rdf:resource="http://creativecommons.org/licenses/by-sa/4.0/" />
      </cc:Work>
      <cc:License
         rdf:about="http://creativecommons.org/licenses/by-sa/4.0/">
        <cc:permits
           rdf:resource="http://creativecommons.org/ns#Reproduction" />
        <cc:permits
           rdf:resource="http://creativecommons.org/ns#Distribution" />
        <cc:requires
           rdf:resource="http://creativecommons.org/ns#Notice" />
        <cc:requires
           rdf:resource="http://creativecommons.org/ns#Attribution" />
        <cc:permits
           rdf:resource="http://creativecommons.org/ns#DerivativeWorks" />
        <cc:requires
           rdf:resource="http://creativecommons.org/ns#ShareAlike" />
      </cc:License>
    </rdf:RDF>
  </metadata>
</svg>
