<?xml version="1.0" encoding="UTF-8" standalone="no"?>
<svg
   version="1.1"
   viewBox="0 0 16 16"
   id="svg10"
   width="16"
   height="16"
   xmlns:xlink="http://www.w3.org/1999/xlink"
   xmlns="http://www.w3.org/2000/svg"
   xmlns:svg="http://www.w3.org/2000/svg"
   xmlns:rdf="http://www.w3.org/1999/02/22-rdf-syntax-ns#"
   xmlns:cc="http://creativecommons.org/ns#"
   xmlns:dc="http://purl.org/dc/elements/1.1/">
  <defs>
   <style id="current-color-scheme" type="text/css">
   .ColorScheme-Text { color: #0abdc6; } .ColorScheme-Highlight { color:#5294e2; }
  </style>
  <linearGradient id="arrongin" x1="0%" x2="0%" y1="0%" y2="100%">
   <stop offset="0%" style="stop-color:#dd9b44; stop-opacity:1"/>
   <stop offset="100%" style="stop-color:#ad6c16; stop-opacity:1"/>
  </linearGradient>
  <linearGradient id="aurora" x1="0%" x2="0%" y1="0%" y2="100%">
   <stop offset="0%" style="stop-color:#09D4DF; stop-opacity:1"/>
   <stop offset="100%" style="stop-color:#9269F4; stop-opacity:1"/>
  </linearGradient>
  <linearGradient id="cyberneon" x1="0%" x2="0%" y1="0%" y2="100%">
    <stop offset="0" style="stop-color:#0abdc6; stop-opacity:1"/>
    <stop offset="1" style="stop-color:#ea00d9; stop-opacity:1"/>
  </linearGradient>
  <linearGradient id="fitdance" x1="0%" x2="0%" y1="0%" y2="100%">
   <stop offset="0%" style="stop-color:#1AD6AB; stop-opacity:1"/>
   <stop offset="100%" style="stop-color:#329DB6; stop-opacity:1"/>
  </linearGradient>
  <linearGradient id="oomox" x1="0%" x2="0%" y1="0%" y2="100%">
   <stop offset="0%" style="stop-color:#0abdc6; stop-opacity:1"/>
   <stop offset="100%" style="stop-color:#b800ff; stop-opacity:1"/>
  </linearGradient>
  <linearGradient id="rainblue" x1="0%" x2="0%" y1="0%" y2="100%">
   <stop offset="0%" style="stop-color:#00F260; stop-opacity:1"/>
   <stop offset="100%" style="stop-color:#0575E6; stop-opacity:1"/>
  </linearGradient>
  <linearGradient id="sunrise" x1="0%" x2="0%" y1="0%" y2="100%">
   <stop offset="0%" style="stop-color: #FF8501; stop-opacity:1"/>
   <stop offset="100%" style="stop-color: #FFCB01; stop-opacity:1"/>
  </linearGradient>
  <linearGradient id="telinkrin" x1="0%" x2="0%" y1="0%" y2="100%">
   <stop offset="0%" style="stop-color: #b2ced6; stop-opacity:1"/>
   <stop offset="100%" style="stop-color: #6da5b7; stop-opacity:1"/>
  </linearGradient>
  <linearGradient id="60spsycho" x1="0%" x2="0%" y1="0%" y2="100%">
   <stop offset="0%" style="stop-color: #df5940; stop-opacity:1"/>
   <stop offset="25%" style="stop-color: #d8d15f; stop-opacity:1"/>
   <stop offset="50%" style="stop-color: #e9882a; stop-opacity:1"/>
   <stop offset="100%" style="stop-color: #279362; stop-opacity:1"/>
  </linearGradient>
  <linearGradient id="90ssummer" x1="0%" x2="0%" y1="0%" y2="100%">
   <stop offset="0%" style="stop-color: #f618c7; stop-opacity:1"/>
   <stop offset="20%" style="stop-color: #94ffab; stop-opacity:1"/>
   <stop offset="50%" style="stop-color: #fbfd54; stop-opacity:1"/>
   <stop offset="100%" style="stop-color: #0f83ae; stop-opacity:1"/>
  </linearGradient>
 </defs>
  <path
     d="M 2.9188522,0.00358215 C 2.7680289,-0.01338548 2.6166342,0.03037615 2.498375,0.12526919 2.2515731,0.32236791 2.211582,0.68228733 2.4092521,0.93080311 L 3.6946785,2.5361579 C 1.7408303,3.9244185 0.57537701,6.1696299 0.569664,8.5919446 c 7.3031223,0 13.050647,0 14.853817,0 C 15.422567,6.1924819 14.26374,3.9415575 12.309892,2.5361579 L 13.583893,0.94222912 C 13.780991,0.69599855 13.741,0.33665043 13.49477,0.1366952 13.37651,0.0418593 13.225116,-0.00213085 13.074292,0.01500817 12.92404,0.03180441 12.786357,0.10755887 12.691521,0.2258181 L 11.320399,1.93972 C 10.286345,1.422693 9.149457,1.1513252 7.9954297,1.1513252 6.8414024,1.1564669 5.7102272,1.4289773 4.681886,1.945433 L 3.2993385,0.2201051 C 3.2045026,0.10184586 3.0668191,0.02586288 2.916567,0.00929516 Z"
     style="opacity:1;fill:url(#oomox);stroke-width:0.571301"
     id="path7"
     class="ColorScheme-Text"/>
  <path
     d="M 0.57651961,8.5730917 C 0.57651961,12.67503 3.9014893,16 8.0034279,16 12.105367,16 15.430336,12.67503 15.430336,8.5730917 Z"
     style="opacity:0.3;fill:url(#oomox);stroke-width:0.571301"
     id="path8"
     class="ColorScheme-Text"/>
  <path
     d="m 4.0614535,8.5730917 c 0.070841,0.036106 0.091408,5.0902883 0.091408,5.0902883 0.186244,0.64557 1.0054891,0.834099 1.4568167,0.33821 l 2.9364852,-3.239274 2.9364856,3.239274 c 0.450756,0.497032 1.274,0.306789 1.456816,-0.33821 L 14.407708,8.5730917 H 13.67073 C 13.60389,8.6982065 11.716882,11.715245 11.716882,11.715245 L 9.1803073,8.9158721 C 9.2327527,8.8575994 5.369732,11.715245 5.369732,11.715245 L 4.461364,8.5730917 Z"
     style="fill:#000000;opacity:0.3;stroke-width:0.571301"
     id="path9" />
  <path
     d="M 2.2904215,8.5730917 3.592987,13.097793 c 0.186244,0.645569 1.0054891,0.834099 1.4568166,0.33821 l 2.9364853,-3.239275 2.9364851,3.239275 c 0.450756,0.497031 1.274001,0.306788 1.456817,-0.33821 L 13.682156,8.5730917 H 11.899698 L 11.157007,11.143945 8.8261009,8.5730917 H 7.135051 L 4.8041444,11.143945 4.0614535,8.5730917 Z"
     style="opacity:1;fill:url(#oomox);stroke-width:0.571301"
     id="path10"
     class="ColorScheme-Text"/>
  <metadata
     id="metadata15">
    <rdf:RDF>
      <cc:Work
         rdf:about="">
        <dc:creator>
          <cc:Agent>
            <dc:title>dreifacherspass</dc:title>
          </cc:Agent>
        </dc:creator>
        <cc:license
           rdf:resource="http://creativecommons.org/licenses/by-sa/4.0/" />
      </cc:Work>
      <cc:License
         rdf:about="http://creativecommons.org/licenses/by-sa/4.0/">
        <cc:permits
           rdf:resource="http://creativecommons.org/ns#Reproduction" />
        <cc:permits
           rdf:resource="http://creativecommons.org/ns#Distribution" />
        <cc:requires
           rdf:resource="http://creativecommons.org/ns#Notice" />
        <cc:requires
           rdf:resource="http://creativecommons.org/ns#Attribution" />
        <cc:permits
           rdf:resource="http://creativecommons.org/ns#DerivativeWorks" />
        <cc:requires
           rdf:resource="http://creativecommons.org/ns#ShareAlike" />
      </cc:License>
    </rdf:RDF>
  </metadata>
</svg>
