<?xml version="1.0" encoding="UTF-8" standalone="no"?>
<svg
   width="16"
   height="16"
   version="1.1"
   id="svg24"
   xml:space="preserve"
   xmlns="http://www.w3.org/2000/svg"
   xmlns:svg="http://www.w3.org/2000/svg"
   xmlns:rdf="http://www.w3.org/1999/02/22-rdf-syntax-ns#"
   xmlns:cc="http://creativecommons.org/ns#"
   xmlns:dc="http://purl.org/dc/elements/1.1/">
   <defs>
   <style id="current-color-scheme" type="text/css">
   .ColorScheme-Text { color: #0abdc6; } .ColorScheme-Highlight { color:#5294e2; }
  </style>
  <linearGradient id="arrongin" x1="0%" x2="0%" y1="0%" y2="100%">
   <stop offset="0%" style="stop-color:#dd9b44; stop-opacity:1"/>
   <stop offset="100%" style="stop-color:#ad6c16; stop-opacity:1"/>
  </linearGradient>
  <linearGradient id="aurora" x1="0%" x2="0%" y1="0%" y2="100%">
   <stop offset="0%" style="stop-color:#09D4DF; stop-opacity:1"/>
   <stop offset="100%" style="stop-color:#9269F4; stop-opacity:1"/>
  </linearGradient>
  <linearGradient id="cyberneon" x1="0%" x2="0%" y1="0%" y2="100%">
    <stop offset="0" style="stop-color:#0abdc6; stop-opacity:1"/>
    <stop offset="1" style="stop-color:#ea00d9; stop-opacity:1"/>
  </linearGradient>
  <linearGradient id="fitdance" x1="0%" x2="0%" y1="0%" y2="100%">
   <stop offset="0%" style="stop-color:#1AD6AB; stop-opacity:1"/>
   <stop offset="100%" style="stop-color:#329DB6; stop-opacity:1"/>
  </linearGradient>
  <linearGradient id="oomox" x1="0%" x2="0%" y1="0%" y2="100%">
   <stop offset="0%" style="stop-color:#0abdc6; stop-opacity:1"/>
   <stop offset="100%" style="stop-color:#b800ff; stop-opacity:1"/>
  </linearGradient>
  <linearGradient id="rainblue" x1="0%" x2="0%" y1="0%" y2="100%">
   <stop offset="0%" style="stop-color:#00F260; stop-opacity:1"/>
   <stop offset="100%" style="stop-color:#0575E6; stop-opacity:1"/>
  </linearGradient>
  <linearGradient id="sunrise" x1="0%" x2="0%" y1="0%" y2="100%">
   <stop offset="0%" style="stop-color: #FF8501; stop-opacity:1"/>
   <stop offset="100%" style="stop-color: #FFCB01; stop-opacity:1"/>
  </linearGradient>
  <linearGradient id="telinkrin" x1="0%" x2="0%" y1="0%" y2="100%">
   <stop offset="0%" style="stop-color: #b2ced6; stop-opacity:1"/>
   <stop offset="100%" style="stop-color: #6da5b7; stop-opacity:1"/>
  </linearGradient>
  <linearGradient id="60spsycho" x1="0%" x2="0%" y1="0%" y2="100%">
   <stop offset="0%" style="stop-color: #df5940; stop-opacity:1"/>
   <stop offset="25%" style="stop-color: #d8d15f; stop-opacity:1"/>
   <stop offset="50%" style="stop-color: #e9882a; stop-opacity:1"/>
   <stop offset="100%" style="stop-color: #279362; stop-opacity:1"/>
  </linearGradient>
  <linearGradient id="90ssummer" x1="0%" x2="0%" y1="0%" y2="100%">
   <stop offset="0%" style="stop-color: #f618c7; stop-opacity:1"/>
   <stop offset="20%" style="stop-color: #94ffab; stop-opacity:1"/>
   <stop offset="50%" style="stop-color: #fbfd54; stop-opacity:1"/>
   <stop offset="100%" style="stop-color: #0f83ae; stop-opacity:1"/>
  </linearGradient>
 </defs>
 <path
   d="m 9.8476563,7.1074219 c -0.036871,0 -0.073551,0.00199 -0.109375,0.00586 -0.035824,0.00387 -0.070859,0.010025 -0.1054688,0.017578 -0.06922,0.015106 -0.1358623,0.037692 -0.1992187,0.066406 -0.063357,0.028714 -0.1235361,0.062691 -0.1796875,0.1035156 -0.056152,0.040825 -0.1086453,0.087234 -0.15625,0.1386719 -0.047605,0.051438 -0.089237,0.1074151 -0.1269532,0.1679688 -0.037716,0.060554 -0.07117,0.1271405 -0.097656,0.1953125 -0.026486,0.068172 -0.046633,0.1385977 -0.060547,0.2128906 -0.013914,0.074293 -0.021484,0.1515524 -0.021484,0.2304688 0,0.078915 0.00731,0.1561763 0.021484,0.2304687 0.014177,0.074292 0.03561,0.1447188 0.0625,0.2128906 0.02689,0.068172 0.059515,0.1347588 0.097656,0.1953125 0.038141,0.060554 0.080978,0.1165307 0.1289062,0.1679688 0.047928,0.051438 0.099998,0.097847 0.15625,0.1386719 0.056252,0.040825 0.1165737,0.074801 0.1796875,0.1035156 0.063114,0.028714 0.1307066,0.0513 0.1992188,0.066406 0.034256,0.00755 0.068184,0.013708 0.1035156,0.017578 0.035331,0.00387 0.071198,0.00586 0.1074219,0.00586 0.03687,0 0.073565,-0.00199 0.109375,-0.00586 0.03581,-0.00387 0.070886,-0.010025 0.1054687,-0.017578 0.06917,-0.015106 0.135954,-0.037692 0.199219,-0.066406 0.06327,-0.028714 0.12365,-0.062691 0.179687,-0.1035156 0.05604,-0.040825 0.106814,-0.087234 0.154297,-0.1386719 0.04748,-0.051438 0.09131,-0.1074151 0.128906,-0.1679688 0.0376,-0.060554 0.06931,-0.1271407 0.0957,-0.1953125 0.02639,-0.068172 0.04669,-0.1385982 0.06055,-0.2128906 0.01386,-0.074292 0.02149,-0.1515534 0.02149,-0.2304687 0,-0.078916 -0.0074,-0.1561759 -0.02149,-0.2304688 -0.01412,-0.074293 -0.0357,-0.1447186 -0.0625,-0.2128906 -0.0268,-0.068172 -0.05963,-0.1347589 -0.09766,-0.1953125 -0.03803,-0.060554 -0.0811,-0.1165309 -0.128906,-0.1679688 -0.04781,-0.051438 -0.100112,-0.097847 -0.15625,-0.1386719 -0.05614,-0.040825 -0.114712,-0.074802 -0.177734,-0.1035156 -0.06302,-0.028714 -0.130761,-0.051301 -0.199219,-0.066406 -0.03423,-0.00755 -0.068199,-0.013708 -0.1035159,-0.017578 -0.035317,-0.00387 -0.071198,-0.00586 -0.1074218,-0.00586 z"
   style="fill:url(#oomox);stroke-width:9.64863"
   id="path28"
   class="ColorScheme-Text"/>
 <path
   d="m 6.0703125,7.1074219 c -0.03687,0 -0.073551,0.00199 -0.109375,0.00586 -0.035824,0.00387 -0.070859,0.010025 -0.1054688,0.017578 -0.069219,0.015106 -0.1358623,0.037692 -0.1992187,0.066406 -0.063356,0.028714 -0.123536,0.062691 -0.1796875,0.1035156 -0.056152,0.040825 -0.1086452,0.087234 -0.15625,0.1386719 -0.047605,0.051438 -0.089237,0.1074151 -0.1269531,0.1679688 -0.037716,0.060554 -0.07117,0.1271405 -0.097656,0.1953125 -0.026486,0.068172 -0.046633,0.1385977 -0.060547,0.2128906 -0.013914,0.074293 -0.021484,0.1515524 -0.021484,0.2304688 0,0.078915 0.00731,0.1561763 0.021484,0.2304687 0.014177,0.074292 0.03561,0.1447188 0.0625,0.2128906 0.02689,0.068172 0.059516,0.1347588 0.097656,0.1953125 0.038141,0.060554 0.080978,0.1165307 0.1289062,0.1679688 0.047928,0.051438 0.099997,0.097847 0.15625,0.1386719 0.056253,0.040825 0.1165737,0.074801 0.1796875,0.1035156 0.063114,0.028714 0.1307068,0.0513 0.1992188,0.066406 0.034256,0.00755 0.068184,0.013708 0.1035156,0.017578 0.035331,0.00387 0.071198,0.00586 0.1074219,0.00586 0.03687,0 0.073565,-0.00199 0.109375,-0.00586 0.03581,-0.00387 0.070886,-0.010025 0.1054687,-0.017578 0.069166,-0.015106 0.135954,-0.037692 0.1992188,-0.066406 0.063265,-0.028714 0.1236505,-0.062691 0.1796875,-0.1035156 0.056037,-0.040825 0.1068142,-0.087234 0.1542969,-0.1386719 0.047483,-0.051438 0.091304,-0.1074151 0.1289062,-0.1679688 0.037602,-0.060554 0.069309,-0.1271407 0.095703,-0.1953125 0.026394,-0.068172 0.046686,-0.1385982 0.060547,-0.2128906 C 7.1173761,8.4022701 7.125,8.3250091 7.125,8.2460938 7.1262935,8.1671774 7.1205749,8.0899179 7.1074219,8.015625 7.0942688,7.9413321 7.0730269,7.8709064 7.046875,7.8027344 7.0207231,7.7345624 6.9888747,7.6679755 6.9511719,7.6074219 6.913469,7.5468682 6.8700717,7.490891 6.8222656,7.4394531 6.7744596,7.3880153 6.7224771,7.3416058 6.6660156,7.3007812 6.6095542,7.2599567 6.5499972,7.2259794 6.4863281,7.1972656 6.4226591,7.1685518 6.3545851,7.145965 6.2851562,7.1308594 c -0.034714,-0.00755 -0.069586,-0.013708 -0.1054687,-0.017578 -0.035883,-0.00387 -0.072505,-0.00586 -0.109375,-0.00586 z"
   style="fill:url(#oomox);stroke-width:9.64863"
   id="path27"
   class="ColorScheme-Text"/>
 <path
   d="M 8,0 A 8,8 0 0 0 6.8613281,0.08203125 8,8 0 0 0 5.7460937,0.32421875 8,8 0 0 0 4.6757812,0.72265625 8,8 0 0 0 3.6757813,1.2695312 8,8 0 0 0 2.7617188,1.953125 8,8 0 0 0 1.953125,2.7617188 8,8 0 0 0 1.2695312,3.6757813 8,8 0 0 0 0.72265625,4.6757812 8,8 0 0 0 0.32421875,5.7460937 8,8 0 0 0 0.08203125,6.8613281 8,8 0 0 0 0,8 a 8,8 0 0 0 0.08203125,1.1386719 8,8 0 0 0 0.2421875,1.1152341 8,8 0 0 0 0.3984375,1.070313 8,8 0 0 0 0.54687495,1 8,8 0 0 0 0.6835938,0.914062 8,8 0 0 0 0.8085938,0.808594 8,8 0 0 0 0.9140625,0.683594 8,8 0 0 0 0.9999999,0.546875 8,8 0 0 0 1.0703125,0.398437 8,8 0 0 0 1.1152344,0.242188 A 8,8 0 0 0 8,16 a 8,8 0 0 0 1.1386719,-0.08203 8,8 0 0 0 1.1152341,-0.242188 8,8 0 0 0 1.070313,-0.398437 8,8 0 0 0 1,-0.546875 8,8 0 0 0 0.914062,-0.683594 8,8 0 0 0 0.808594,-0.808594 8,8 0 0 0 0.683594,-0.914062 8,8 0 0 0 0.546875,-1 8,8 0 0 0 0.398437,-1.070313 A 8,8 0 0 0 15.917969,9.1386719 8,8 0 0 0 16,8 8,8 0 0 0 15.990234,7.6074219 8,8 0 0 0 15.960938,7.2167969 8,8 0 0 0 15.914063,6.8261719 8,8 0 0 0 15.845703,6.4394531 8,8 0 0 0 15.759766,6.0566406 8,8 0 0 0 15.65625,5.6777344 8,8 0 0 0 15.533203,5.3046875 8,8 0 0 0 15.390625,4.9394531 8,8 0 0 0 15.232422,4.5800781 8,8 0 0 0 15.054688,4.2285156 8,8 0 0 0 14.861328,3.8867188 8,8 0 0 0 14.652344,3.5546875 8,8 0 0 0 14.425781,3.234375 8,8 0 0 0 14.183594,2.9257813 8,8 0 0 0 13.927734,2.6269531 8,8 0 0 0 13.65625,2.34375 8,8 0 0 0 13.373047,2.0722656 8,8 0 0 0 13.074219,1.8164062 8,8 0 0 0 12.765625,1.5742187 8,8 0 0 0 12.445313,1.3476562 8,8 0 0 0 12.113281,1.1386719 8,8 0 0 0 11.771484,0.9453125 8,8 0 0 0 11.419922,0.76757812 8,8 0 0 0 11.060547,0.609375 8,8 0 0 0 10.695313,0.46679688 8,8 0 0 0 10.322266,0.34375 8,8 0 0 0 9.9433594,0.24023438 8,8 0 0 0 9.5605469,0.15429687 8,8 0 0 0 9.1738281,0.0859375 8,8 0 0 0 8.7832031,0.0390625 8,8 0 0 0 8.3925781,0.00976563 8,8 0 0 0 8,0 Z M 6.3339844,3.2890625 v 0.00391 c 0.010701,-2.95e-5 0.015625,0 0.015625,0 L 6.453125,3.4160156 C 6.336692,3.4490027 6.2237933,3.4825951 6.1152344,3.5175781 6.0066754,3.5525612 5.9015458,3.5885619 5.8007812,3.625 5.5992522,3.6978761 5.4149696,3.7741595 5.2441406,3.8496094 5.0733116,3.9250593 4.9161562,4.0005233 4.7753906,4.0742187 4.634625,4.1479142 4.5097765,4.2194965 4.3984375,4.2871094 4.2870985,4.3547222 4.189971,4.4174074 4.1074219,4.4746094 4.0248727,4.5318113 3.9567398,4.5825371 3.9023438,4.625 3.7935517,4.7099257 3.7402344,4.7617187 3.7402344,4.7617187 c 0,0 0.057144,-0.03046 0.1621094,-0.082031 C 4.0073088,4.6281158 4.160095,4.5554318 4.3515625,4.4726562 4.4899884,4.4118474 4.625108,4.3566825 4.7558594,4.3066406 4.8866107,4.2565987 5.0128228,4.2122392 5.1347656,4.171875 5.2567085,4.1315108 5.3743277,4.0942757 5.4863281,4.0625 c 0.1120004,-0.031776 0.2193885,-0.057755 0.3203125,-0.082031 0.2018482,-0.048553 0.3805108,-0.084284 0.53125,-0.109375 0.1507393,-0.025091 0.2727222,-0.040439 0.3632813,-0.050781 0.062101,-0.00914 0.1136824,-0.021484 0.1757812,-0.021484 0.1578311,-0.020835 0.3209818,-0.038394 0.4882813,-0.050781 0.1672995,-0.012388 0.3384726,-0.018834 0.5136718,-0.021484 0.1751993,-0.00265 0.353626,-5.644e-4 0.5351563,0.00781 0.1815303,0.00838 0.3664416,0.022274 0.5527344,0.042969 0.1229014,0.014231 0.2460294,0.030797 0.3710937,0.050781 0.1250644,0.019984 0.2518812,0.044141 0.3789063,0.070312 0.1270251,0.026172 0.2559819,0.055095 0.3847661,0.087891 0.128783,0.032795 0.258331,0.069521 0.388671,0.109375 0.130341,0.039854 0.260884,0.081558 0.392579,0.1289063 0.131694,0.047349 0.263637,0.099018 0.396484,0.1542968 0.132847,0.055279 0.266593,0.1160433 0.400391,0.1796875 0.133797,0.063644 0.267798,0.1306798 0.402343,0.203125 0,0 -0.05024,-0.047826 -0.154297,-0.1289062 C 11.875704,4.5922722 11.809252,4.54308 11.730469,4.4882812 11.651686,4.4334825 11.559153,4.37169 11.453125,4.3066406 11.347097,4.2415913 11.227515,4.1728547 11.09375,4.1015625 10.959985,4.0302703 10.812385,3.9563398 10.650391,3.8828125 10.488396,3.8092852 10.31181,3.7358171 10.121094,3.6640625 10.025736,3.6281852 9.9268492,3.5932764 9.8242188,3.5585938 9.7215883,3.5239111 9.6158239,3.4900183 9.5058594,3.4570313 L 9.6503906,3.2910156 c 0,0 0.088037,-0.00266 0.2441407,0.011719 0.078052,0.00719 0.1740757,0.019472 0.2832027,0.037109 0.109128,0.017637 0.232286,0.041563 0.367188,0.074219 0.134902,0.032655 0.28017,0.07471 0.435547,0.1269531 0.07769,0.026121 0.158421,0.054063 0.240234,0.085937 0.08181,0.031875 0.164724,0.067269 0.25,0.1054688 0.08528,0.0382 0.173643,0.079904 0.261719,0.125 0.08807,0.045096 0.177365,0.093921 0.267578,0.1464843 0.09021,0.052563 0.179797,0.1073675 0.271484,0.1679688 0.09169,0.060601 0.184845,0.1261017 0.277344,0.1953125 0,0 0.0237,0.04134 0.06445,0.1210937 0.04075,0.079754 0.09811,0.1981494 0.167969,0.3496094 0.06986,0.15146 0.150963,0.3356631 0.238281,0.5507813 0.04366,0.1075591 0.08892,0.2237385 0.134766,0.3457031 0.04584,0.1219646 0.0921,0.2513545 0.138672,0.3867187 0.04657,0.1353643 0.09478,0.2760704 0.140625,0.4238282 0.04584,0.1477578 0.09111,0.3017921 0.134765,0.4609375 0.04366,0.1591453 0.08498,0.3246136 0.125,0.4941406 0.04002,0.169527 0.07835,0.3425818 0.113282,0.5214844 0.03493,0.1789026 0.06732,0.363509 0.0957,0.5507812 0.02838,0.1872722 0.05189,0.3776298 0.07226,0.5722657 0.02038,0.1946358 0.03596,0.3927565 0.04687,0.59375 0.01092,0.2009934 0.01758,0.4049827 0.01758,0.6113277 0,-0.0013 -0.01279,0.02064 -0.04102,0.06055 -0.02823,0.03991 -0.07226,0.09826 -0.130859,0.167969 -0.0586,0.06971 -0.133487,0.150172 -0.22461,0.238281 -0.04556,0.04406 -0.09434,0.0902 -0.148437,0.136719 -0.05409,0.04652 -0.112887,0.09503 -0.175782,0.142578 -0.06289,0.04755 -0.129208,0.09541 -0.201171,0.142578 -0.07196,0.04716 -0.149169,0.09332 -0.230469,0.138672 -0.0813,0.04535 -0.166908,0.08875 -0.257813,0.13086 -0.09091,0.04211 -0.186331,0.0817 -0.287109,0.11914 -0.100778,0.03744 -0.20744,0.07216 -0.318359,0.103516 -0.11092,0.03135 -0.226327,0.06015 -0.347657,0.08398 -0.121329,0.02384 -0.248852,0.0437 -0.380859,0.05859 -0.132008,0.0149 -0.269156,0.02477 -0.412109,0.0293 0,0 -0.373111,-0.445186 -0.683594,-0.828125 0.08474,-0.02393 0.165876,-0.049 0.24414,-0.07617 0.07827,-0.02717 0.154614,-0.05616 0.226563,-0.08594 0.07195,-0.02978 0.139288,-0.06004 0.205078,-0.0918 0.06579,-0.03175 0.129665,-0.06456 0.189453,-0.09766 0.119576,-0.0662 0.225757,-0.135339 0.322266,-0.203125 0.09651,-0.06779 0.183116,-0.134892 0.257812,-0.199218 0.0747,-0.06433 0.13922,-0.125823 0.19336,-0.181641 0.05414,-0.05582 0.09797,-0.106177 0.132812,-0.1484376 0.06968,-0.084522 0.101563,-0.1367188 0.101563,-0.1367188 -0.106084,0.069858 -0.211351,0.1336407 -0.314453,0.1933594 -0.103103,0.05972 -0.203214,0.115715 -0.302735,0.166016 -0.09952,0.0503 -0.197629,0.09511 -0.292969,0.136718 -0.09534,0.0416 -0.188738,0.07965 -0.279296,0.113282 -0.129371,0.05434 -0.257704,0.103775 -0.384766,0.148437 -0.127062,0.04466 -0.251954,0.08484 -0.376953,0.121094 -0.1249994,0.03626 -0.249866,0.06853 -0.3730471,0.09766 -0.1231812,0.02913 -0.2455792,0.05484 -0.3671875,0.07813 -0.1241952,0.02305 -0.2476575,0.04263 -0.3691406,0.05859 -0.1214832,0.01596 -0.2407993,0.02768 -0.359375,0.03711 -0.1185758,0.0094 -0.2360896,0.01608 -0.3515625,0.01953 -0.115473,0.0035 -0.2296223,0.0039 -0.3417969,0.002 -0.1121747,-0.002 -0.2213972,-0.0068 -0.3300782,-0.01367 -0.1086809,-0.0068 -0.2153206,-0.01424 -0.3203125,-0.02539 -0.1049918,-0.01115 -0.2094395,-0.02611 -0.3105468,-0.04101 -0.1011074,-0.01491 -0.1998476,-0.03072 -0.296875,-0.04883 -0.1474817,-0.02845 -0.2905936,-0.06043 -0.4277344,-0.09375 -0.1371408,-0.03332 -0.2677371,-0.06793 -0.3945313,-0.105468 -0.1267941,-0.03754 -0.2487927,-0.07803 -0.3652343,-0.119141 -0.1164417,-0.04112 -0.2279011,-0.0829 -0.3339844,-0.126953 -0.1190204,-0.04661 -0.2442265,-0.09812 -0.3710938,-0.15625 -0.1268672,-0.05813 -0.2553964,-0.12288 -0.3847656,-0.195313 -0.031046,-0.02069 -0.062697,-0.02953 -0.09375,-0.05078 -0.02071,-0.0091 -0.030659,-0.02148 -0.041016,-0.02148 C 4.195916,9.9755823 4.1231976,9.9313966 4.0742187,9.9003906 4.0252399,9.8693847 4,9.8515625 4,9.8515625 c 0,0 0.030605,0.051966 0.097656,0.1347656 0.033526,0.0414 0.076731,0.089709 0.1289063,0.1445309 0.052176,0.05482 0.1134628,0.114341 0.1855469,0.177735 0.072084,0.06339 0.1547961,0.130153 0.2480468,0.197265 0.093251,0.06711 0.1968245,0.135192 0.3125,0.201172 0.057838,0.03299 0.1199139,0.06586 0.1835938,0.09766 0.06368,0.0318 0.1295395,0.06375 0.1992187,0.09375 0.069679,0.03 0.1429141,0.05834 0.21875,0.08594 0.075836,0.02759 0.1541783,0.05354 0.2363282,0.07813 -0.155244,0.196656 -0.328362,0.409516 -0.4628907,0.572266 -0.1345286,0.162749 -0.2304687,0.27539 -0.2304687,0.27539 -0.1429538,-0.0045 -0.2801017,-0.0144 -0.4121094,-0.0293 -0.1320076,-0.01489 -0.2595297,-0.03475 -0.3808594,-0.05859 -0.1213296,-0.02384 -0.2367363,-0.05262 -0.3476562,-0.08399 -0.1109199,-0.03136 -0.217581,-0.06605 -0.3183594,-0.103515 -0.1007784,-0.03747 -0.1962043,-0.07699 -0.2871093,-0.119141 -0.090905,-0.04216 -0.1765126,-0.08544 -0.2578125,-0.130859 -0.0813,-0.04542 -0.1585058,-0.09336 -0.2304688,-0.140625 -0.071963,-0.04727 -0.1382776,-0.09488 -0.2011719,-0.142578 -0.062894,-0.0477 -0.1216875,-0.09588 -0.1757812,-0.142579 -0.054094,-0.0467 -0.1028761,-0.09243 -0.1484375,-0.136718 -0.091123,-0.08858 -0.1660065,-0.169822 -0.2246094,-0.240235 -0.058603,-0.07041 -0.1026307,-0.129036 -0.1308594,-0.169922 -0.028229,-0.04088 -0.041016,-0.06445 -0.041016,-0.06445 0,-0.206343 0.00666,-0.4103359 0.017578,-0.6113279 0.010915,-0.2009919 0.026501,-0.3991152 0.046875,-0.59375 C 2.0457649,8.9479434 2.0692778,8.757584 2.0976563,8.5703125 2.1260347,8.383041 2.158432,8.1984335 2.1933594,8.0195313 2.2282867,7.840629 2.2666197,7.6675738 2.3066406,7.4980469 2.3466615,7.32852 2.3879815,7.1630518 2.4316406,7.0039062 2.4752998,6.8447607 2.5205641,6.6907269 2.5664063,6.5429687 2.6122484,6.3952106 2.6604615,6.2545053 2.7070313,6.1191406 2.753601,5.9837759 2.799861,5.8543871 2.8457031,5.7324219 2.8915453,5.6104566 2.9368096,5.4942785 2.9804688,5.3867187 3.0677871,5.1715993 3.1488953,4.9873988 3.21875,4.8359375 3.2886047,4.6844762 3.3459702,4.5660829 3.3867188,4.4863281 3.4274673,4.4065734 3.4511719,4.3652344 3.4511719,4.3652344 3.5384966,4.300354 3.6263929,4.2389386 3.7128906,4.1816406 3.7993884,4.1243426 3.8836133,4.0716706 3.96875,4.0214844 4.0538867,3.9712981 4.1394147,3.9244045 4.2226562,3.8808594 4.3058978,3.8373142 4.3879376,3.7971403 4.46875,3.7597656 4.5495624,3.7223909 4.6291821,3.687925 4.7070312,3.65625 4.7848804,3.624575 4.861195,3.5948053 4.9355469,3.5683594 5.0842507,3.5154676 5.2259116,3.4722995 5.3574219,3.4375 c 0.1315103,-0.0348 0.2532369,-0.061559 0.3632812,-0.082031 0.1100444,-0.020473 0.2067097,-0.035011 0.2910156,-0.044922 0.084306,-0.00991 0.1546894,-0.014463 0.2089844,-0.017578 0.054295,-0.00311 0.093269,-0.00382 0.1132813,-0.00391 z"
   style="fill:url(#oomox);stroke-width:9.64863"
   id="path24"
   class="ColorScheme-Text"/>
 <metadata
   id="metadata28"><rdf:RDF><cc:Work
       rdf:about=""><dc:creator><cc:Agent><dc:title>dreifacherspass</dc:title></cc:Agent></dc:creator><cc:license
         rdf:resource="http://creativecommons.org/licenses/by-sa/4.0/" /></cc:Work><cc:License
       rdf:about="http://creativecommons.org/licenses/by-sa/4.0/"><cc:permits
         rdf:resource="http://creativecommons.org/ns#Reproduction" /><cc:permits
         rdf:resource="http://creativecommons.org/ns#Distribution" /><cc:requires
         rdf:resource="http://creativecommons.org/ns#Notice" /><cc:requires
         rdf:resource="http://creativecommons.org/ns#Attribution" /><cc:permits
         rdf:resource="http://creativecommons.org/ns#DerivativeWorks" /><cc:requires
         rdf:resource="http://creativecommons.org/ns#ShareAlike" /></cc:License></rdf:RDF></metadata>
 </svg>
