<?xml version="1.0" encoding="UTF-8" standalone="no"?>
<svg
   width="16"
   height="16"
   version="1.1"
   id="svg39"
   xmlns:xlink="http://www.w3.org/1999/xlink"
   xmlns="http://www.w3.org/2000/svg"
   xmlns:svg="http://www.w3.org/2000/svg"
   xmlns:rdf="http://www.w3.org/1999/02/22-rdf-syntax-ns#"
   xmlns:cc="http://creativecommons.org/ns#"
   xmlns:dc="http://purl.org/dc/elements/1.1/">
  <defs>
   <style id="current-color-scheme" type="text/css">
   .ColorScheme-Text { color: #0abdc6; } .ColorScheme-Highlight { color:#5294e2; }
  </style>
  <linearGradient id="arrongin" x1="0%" x2="0%" y1="0%" y2="100%">
   <stop offset="0%" style="stop-color:#dd9b44; stop-opacity:1"/>
   <stop offset="100%" style="stop-color:#ad6c16; stop-opacity:1"/>
  </linearGradient>
  <linearGradient id="aurora" x1="0%" x2="0%" y1="0%" y2="100%">
   <stop offset="0%" style="stop-color:#09D4DF; stop-opacity:1"/>
   <stop offset="100%" style="stop-color:#9269F4; stop-opacity:1"/>
  </linearGradient>
  <linearGradient id="cyberneon" x1="0%" x2="0%" y1="0%" y2="100%">
    <stop offset="0" style="stop-color:#0abdc6; stop-opacity:1"/>
    <stop offset="1" style="stop-color:#ea00d9; stop-opacity:1"/>
  </linearGradient>
  <linearGradient id="fitdance" x1="0%" x2="0%" y1="0%" y2="100%">
   <stop offset="0%" style="stop-color:#1AD6AB; stop-opacity:1"/>
   <stop offset="100%" style="stop-color:#329DB6; stop-opacity:1"/>
  </linearGradient>
  <linearGradient id="oomox" x1="0%" x2="0%" y1="0%" y2="100%">
   <stop offset="0%" style="stop-color:#0abdc6; stop-opacity:1"/>
   <stop offset="100%" style="stop-color:#b800ff; stop-opacity:1"/>
  </linearGradient>
  <linearGradient id="rainblue" x1="0%" x2="0%" y1="0%" y2="100%">
   <stop offset="0%" style="stop-color:#00F260; stop-opacity:1"/>
   <stop offset="100%" style="stop-color:#0575E6; stop-opacity:1"/>
  </linearGradient>
  <linearGradient id="sunrise" x1="0%" x2="0%" y1="0%" y2="100%">
   <stop offset="0%" style="stop-color: #FF8501; stop-opacity:1"/>
   <stop offset="100%" style="stop-color: #FFCB01; stop-opacity:1"/>
  </linearGradient>
  <linearGradient id="telinkrin" x1="0%" x2="0%" y1="0%" y2="100%">
   <stop offset="0%" style="stop-color: #b2ced6; stop-opacity:1"/>
   <stop offset="100%" style="stop-color: #6da5b7; stop-opacity:1"/>
  </linearGradient>
  <linearGradient id="60spsycho" x1="0%" x2="0%" y1="0%" y2="100%">
   <stop offset="0%" style="stop-color: #df5940; stop-opacity:1"/>
   <stop offset="25%" style="stop-color: #d8d15f; stop-opacity:1"/>
   <stop offset="50%" style="stop-color: #e9882a; stop-opacity:1"/>
   <stop offset="100%" style="stop-color: #279362; stop-opacity:1"/>
  </linearGradient>
  <linearGradient id="90ssummer" x1="0%" x2="0%" y1="0%" y2="100%">
   <stop offset="0%" style="stop-color: #f618c7; stop-opacity:1"/>
   <stop offset="20%" style="stop-color: #94ffab; stop-opacity:1"/>
   <stop offset="50%" style="stop-color: #fbfd54; stop-opacity:1"/>
   <stop offset="100%" style="stop-color: #0f83ae; stop-opacity:1"/>
  </linearGradient>
 </defs>
  <path
     id="path458"
     class="ColorScheme-Text"
     style="opacity:1;stroke:none;fill:url(#oomox);stroke-width:0.5"
     d="m 0.5,0.866 h 1 L 1,1.732 Z M 1,0 H 2 L 1.5,0.866 Z M 0,0 H 1 L 0.5,0.866 Z m 1.5,-0.866 h 1 L 2,0 Z M 2,-1.732 h 1 l -0.5,0.866 z m -1,0 h 1 l -0.5,0.866 z m -1.5,0.866 h 1 L 0,0 Z M 0,-1.732 h 1 l -0.5,0.866 z m -1,0 h 1 l -0.5,0.866 z m 3.5,-0.866 h 1 L 3,-1.732 Z M 3,-3.464 h 1 l -0.5,0.866 z m -1,0 H 3 L 2.5,-2.598 Z M 3.5,-4.33 h 1 L 4,-3.464 Z M 4,-5.196 H 5 L 4.5,-4.33 Z m -1,0 H 4 L 3.5,-4.33 Z M 1.5,-4.33 h 1 L 2,-3.464 Z M 2,-5.196 H 3 L 2.5,-4.33 Z m -1,0 H 2 L 1.5,-4.33 Z m -2.5,2.598 h 1 L -1,-1.732 Z M -1,-3.464 h 1 l -0.5,0.866 z m -1,0 h 1 l -0.5,0.866 z m 1.5,-0.866 h 1 L 0,-3.464 Z M 0,-5.196 H 1 L 0.5,-4.33 Z m -1,0 h 1 l -0.5,0.866 z m -1.5,0.866 h 1 L -2,-3.464 Z M -2,-5.196 h 1 l -0.5,0.866 z m -1,0 h 1 l -0.5,0.866 z m 7.5,-0.866 h 1 L 5,-5.196 Z M 5,-6.928 h 1 l -0.5,0.866 z m -1,0 h 1 l -0.5,0.866 z m 1.5,-0.866 h 1 L 6,-6.928 Z M 6,-8.66 h 1 l -0.5,0.866 z m -1,0 h 1 l -0.5,0.866 z m -1.5,0.866 h 1 L 4,-6.928 Z M 4,-8.66 h 1 l -0.5,0.866 z m -1,0 h 1 l -0.5,0.866 z m 3.5,-0.866 h 1 L 7,-8.66 Z M 7,-10.392 h 1 l -0.5,0.866 z m -1,0 h 1 l -0.5,0.866 z m 1.5,-0.866 h 1 L 8,-10.392 Z M 8,-12.124 h 1 l -0.5,0.866 z m -1,0 h 1 l -0.5,0.866 z m -1.5,0.866 h 1 L 6,-10.392 Z M 6,-12.124 h 1 l -0.5,0.866 z m -1,0 h 1 l -0.5,0.866 z m -2.5,2.598 h 1 L 3,-8.66 Z M 3,-10.392 h 1 l -0.5,0.866 z m -1,0 h 1 l -0.5,0.866 z m 1.5,-0.866 h 1 L 4,-10.392 Z M 4,-12.124 h 1 l -0.5,0.866 z m -1,0 h 1 l -0.5,0.866 z m -1.5,0.866 h 1 L 2,-10.392 Z M 2,-12.124 h 1 l -0.5,0.866 z m -1,0 h 1 l -0.5,0.866 z m -4.5,6.062 h 1 L -3,-5.196 Z M -3,-6.928 h 1 l -0.5,0.866 z m -1,0 h 1 l -0.5,0.866 z m 1.5,-0.866 h 1 L -2,-6.928 Z M -2,-8.66 h 1 l -0.5,0.866 z m -1,0 h 1 l -0.5,0.866 z m -1.5,0.866 h 1 L -4,-6.928 Z M -4,-8.66 h 1 l -0.5,0.866 z m -1,0 h 1 l -0.5,0.866 z m 3.5,-0.866 h 1 L -1,-8.66 Z m 0.5,-0.866 h 1 l -0.5,0.866 z m -1,0 h 1 l -0.5,0.866 z m 1.5,-0.866 h 1 L 0,-10.392 Z M 0,-12.124 h 1 l -0.5,0.866 z m -1,0 h 1 l -0.5,0.866 z m -1.5,0.866 h 1 l -0.5,0.866 z m 0.5,-0.866 h 1 l -0.5,0.866 z m -1,0 h 1 l -0.5,0.866 z m -2.5,2.598 h 1 L -5,-8.66 Z m 0.5,-0.866 h 1 l -0.5,0.866 z m -1,0 h 1 l -0.5,0.866 z m 1.5,-0.866 h 1 l -0.5,0.866 z m 0.5,-0.866 h 1 l -0.5,0.866 z m -1,0 h 1 l -0.5,0.866 z m -1.5,0.866 h 1 l -0.5,0.866 z m 0.5,-0.866 h 1 l -0.5,0.866 z m -1,0 h 1 l -0.5,0.866 z M 8.5,-12.99 h 1 L 9,-12.124 Z M 9,-13.856 h 1 l -0.5,0.866 z m -1,0 h 1 l -0.5,0.866 z m 1.5,-0.866 h 1 l -0.5,0.866 z m 0.5,-0.866 h 1 l -0.5,0.866 z m -1,0 h 1 l -0.5,0.866 z m -1.5,0.866 h 1 L 8,-13.856 Z M 8,-15.588 h 1 l -0.5,0.866 z m -1,0 h 1 l -0.5,0.866 z m 3.5,-0.866 h 1 L 11,-15.588 Z M 11,-17.32 h 1 l -0.5,0.866 z m -1,0 h 1 l -0.5,0.866 z m 1.5,-0.866 h 1 L 12,-17.32 Z m 0.5,-0.866 h 1 l -0.5,0.866 z m -1,0 h 1 l -0.5,0.866 z m -1.5,0.866 h 1 L 10,-17.32 Z m 0.5,-0.866 h 1 l -0.5,0.866 z m -1,0 h 1 l -0.5,0.866 z m -2.5,2.598 h 1 L 7,-15.588 Z M 7,-17.32 h 1 l -0.5,0.866 z m -1,0 h 1 l -0.5,0.866 z m 1.5,-0.866 h 1 L 8,-17.32 Z M 8,-19.052 h 1 l -0.5,0.866 z m -1,0 h 1 l -0.5,0.866 z m -1.5,0.866 h 1 L 6,-17.32 Z M 6,-19.052 h 1 l -0.5,0.866 z m -1,0 h 1 l -0.5,0.866 z m 7.5,-0.866 h 1 l -0.5,0.866 z m 0.5,-0.866 h 1 l -0.5,0.866 z m -1,0 h 1 l -0.5,0.866 z m 1.5,-0.866 h 1 l -0.5,0.866 z m 0.5,-0.866 h 1 l -0.5,0.866 z m -1,0 h 1 l -0.5,0.866 z m -1.5,0.866 h 1 l -0.5,0.866 z m 0.5,-0.866 h 1 l -0.5,0.866 z m -1,0 h 1 l -0.5,0.866 z m 3.5,-0.866 h 1 l -0.5,0.866 z m 0.5,-0.866 h 1 l -0.5,0.866 z m -1,0 h 1 l -0.5,0.866 z m 1.5,-0.866 h 1 L 16,-24.248 Z M 16,-25.98 h 1 l -0.5,0.866 z m -1,0 h 1 l -0.5,0.866 z m -1.5,0.866 h 1 L 14,-24.248 Z M 14,-25.98 h 1 l -0.5,0.866 z m -1,0 h 1 l -0.5,0.866 z m -2.5,2.598 h 1 l -0.5,0.866 z m 0.5,-0.866 h 1 l -0.5,0.866 z m -1,0 h 1 l -0.5,0.866 z m 1.5,-0.866 h 1 L 12,-24.248 Z M 12,-25.98 h 1 l -0.5,0.866 z m -1,0 h 1 l -0.5,0.866 z m -1.5,0.866 h 1 L 10,-24.248 Z M 10,-25.98 h 1 l -0.5,0.866 z m -1,0 h 1 l -0.5,0.866 z m -4.5,6.062 h 1 L 5,-19.052 Z M 5,-20.784 h 1 l -0.5,0.866 z m -1,0 h 1 l -0.5,0.866 z m 1.5,-0.866 h 1 L 6,-20.784 Z M 6,-22.516 h 1 l -0.5,0.866 z m -1,0 h 1 l -0.5,0.866 z m -1.5,0.866 h 1 L 4,-20.784 Z M 4,-22.516 h 1 l -0.5,0.866 z m -1,0 h 1 l -0.5,0.866 z m 3.5,-0.866 h 1 L 7,-22.516 Z M 7,-24.248 h 1 l -0.5,0.866 z m -1,0 h 1 l -0.5,0.866 z m 1.5,-0.866 h 1 L 8,-24.248 Z M 8,-25.98 h 1 l -0.5,0.866 z m -1,0 h 1 l -0.5,0.866 z m -1.5,0.866 h 1 L 6,-24.248 Z M 6,-25.98 h 1 l -0.5,0.866 z m -1,0 h 1 l -0.5,0.866 z m -2.5,2.598 h 1 L 3,-22.516 Z M 3,-24.248 h 1 l -0.5,0.866 z m -1,0 h 1 l -0.5,0.866 z m 1.5,-0.866 h 1 L 4,-24.248 Z M 4,-25.98 h 1 l -0.5,0.866 z m -1,0 h 1 l -0.5,0.866 z m -1.5,0.866 h 1 L 2,-24.248 Z M 2,-25.98 h 1 l -0.5,0.866 z m -1,0 h 1 l -0.5,0.866 z m -8.5,12.99 h 1 l -0.5,0.866 z m 0.5,-0.866 h 1 l -0.5,0.866 z m -1,0 h 1 l -0.5,0.866 z m 1.5,-0.866 h 1 l -0.5,0.866 z m 0.5,-0.866 h 1 l -0.5,0.866 z m -1,0 h 1 l -0.5,0.866 z m -1.5,0.866 h 1 l -0.5,0.866 z m 0.5,-0.866 h 1 l -0.5,0.866 z m -1,0 h 1 l -0.5,0.866 z m 3.5,-0.866 h 1 L -5,-15.588 Z M -5,-17.32 h 1 l -0.5,0.866 z m -1,0 h 1 l -0.5,0.866 z m 1.5,-0.866 h 1 L -4,-17.32 Z m 0.5,-0.866 h 1 l -0.5,0.866 z m -1,0 h 1 l -0.5,0.866 z m -1.5,0.866 h 1 L -6,-17.32 Z m 0.5,-0.866 h 1 l -0.5,0.866 z m -1,0 h 1 l -0.5,0.866 z m -2.5,2.598 h 1 L -9,-15.588 Z M -9,-17.32 h 1 l -0.5,0.866 z m -1,0 h 1 l -0.5,0.866 z m 1.5,-0.866 h 1 L -8,-17.32 Z m 0.5,-0.866 h 1 l -0.5,0.866 z m -1,0 h 1 l -0.5,0.866 z m -1.5,0.866 h 1 l -0.5,0.866 z m 0.5,-0.866 h 1 l -0.5,0.866 z m -1,0 h 1 l -0.5,0.866 z m 7.5,-0.866 h 1 l -0.5,0.866 z m 0.5,-0.866 h 1 l -0.5,0.866 z m -1,0 h 1 l -0.5,0.866 z m 1.5,-0.866 h 1 l -0.5,0.866 z m 0.5,-0.866 h 1 l -0.5,0.866 z m -1,0 h 1 l -0.5,0.866 z m -1.5,0.866 h 1 l -0.5,0.866 z m 0.5,-0.866 h 1 l -0.5,0.866 z m -1,0 h 1 l -0.5,0.866 z m 3.5,-0.866 h 1 l -0.5,0.866 z m 0.5,-0.866 h 1 l -0.5,0.866 z m -1,0 h 1 l -0.5,0.866 z m 1.5,-0.866 h 1 L 0,-24.248 Z M 0,-25.98 h 1 l -0.5,0.866 z m -1,0 h 1 l -0.5,0.866 z m -1.5,0.866 h 1 L -2,-24.248 Z M -2,-25.98 h 1 l -0.5,0.866 z m -1,0 h 1 l -0.5,0.866 z m -2.5,2.598 h 1 l -0.5,0.866 z m 0.5,-0.866 h 1 l -0.5,0.866 z m -1,0 h 1 l -0.5,0.866 z m 1.5,-0.866 h 1 L -4,-24.248 Z M -4,-25.98 h 1 l -0.5,0.866 z m -1,0 h 1 l -0.5,0.866 z m -1.5,0.866 h 1 L -6,-24.248 Z M -6,-25.98 h 1 l -0.5,0.866 z m -1,0 h 1 l -0.5,0.866 z m -4.5,6.062 h 1 l -0.5,0.866 z m 0.5,-0.866 h 1 l -0.5,0.866 z m -1,0 h 1 l -0.5,0.866 z m 1.5,-0.866 h 1 l -0.5,0.866 z m 0.5,-0.866 h 1 l -0.5,0.866 z m -1,0 h 1 l -0.5,0.866 z m -1.5,0.866 h 1 l -0.5,0.866 z m 0.5,-0.866 h 1 l -0.5,0.866 z m -1,0 h 1 l -0.5,0.866 z m 3.5,-0.866 h 1 l -0.5,0.866 z m 0.5,-0.866 h 1 l -0.5,0.866 z m -1,0 h 1 l -0.5,0.866 z m 1.5,-0.866 h 1 L -8,-24.248 Z M -8,-25.98 h 1 l -0.5,0.866 z m -1,0 h 1 l -0.5,0.866 z m -1.5,0.866 h 1 l -0.5,0.866 z m 0.5,-0.866 h 1 l -0.5,0.866 z m -1,0 h 1 l -0.5,0.866 z m -2.5,2.598 h 1 l -0.5,0.866 z m 0.5,-0.866 h 1 l -0.5,0.866 z m -1,0 h 1 l -0.5,0.866 z m 1.5,-0.866 h 1 l -0.5,0.866 z m 0.5,-0.866 h 1 l -0.5,0.866 z m -1,0 h 1 l -0.5,0.866 z m -1.5,0.866 h 1 l -0.5,0.866 z m 0.5,-0.866 h 1 l -0.5,0.866 z m -1,0 h 1 l -0.5,0.866 z"
     transform="matrix(0.5,0,0,0.5,7.5,14.062)" />
  <metadata
     id="metadata39">
    <rdf:RDF>
      <cc:Work
         rdf:about="">
        <dc:creator>
          <cc:Agent>
            <dc:title>dreifacherspass</dc:title>
          </cc:Agent>
        </dc:creator>
        <cc:license
           rdf:resource="http://creativecommons.org/licenses/by-sa/4.0/" />
      </cc:Work>
      <cc:License
         rdf:about="http://creativecommons.org/licenses/by-sa/4.0/">
        <cc:permits
           rdf:resource="http://creativecommons.org/ns#Reproduction" />
        <cc:permits
           rdf:resource="http://creativecommons.org/ns#Distribution" />
        <cc:requires
           rdf:resource="http://creativecommons.org/ns#Notice" />
        <cc:requires
           rdf:resource="http://creativecommons.org/ns#Attribution" />
        <cc:permits
           rdf:resource="http://creativecommons.org/ns#DerivativeWorks" />
        <cc:requires
           rdf:resource="http://creativecommons.org/ns#ShareAlike" />
      </cc:License>
    </rdf:RDF>
  </metadata>
</svg>
