<?xml version="1.0" encoding="UTF-8" standalone="no"?>
<!-- Created with Inkscape (http://www.inkscape.org/) -->

<svg
   width="16"
   height="16"
   viewBox="0 0 4.2333333 4.2333333"
   version="1.1"
   id="svg464"
   xmlns:xlink="http://www.w3.org/1999/xlink"
   xmlns="http://www.w3.org/2000/svg"
   xmlns:svg="http://www.w3.org/2000/svg"
   xmlns:rdf="http://www.w3.org/1999/02/22-rdf-syntax-ns#"
   xmlns:cc="http://creativecommons.org/ns#"
   xmlns:dc="http://purl.org/dc/elements/1.1/">
  <defs>
   <style id="current-color-scheme" type="text/css">
   .ColorScheme-Text { color: #0abdc6; } .ColorScheme-Highlight { color:#5294e2; }
  </style>
  <linearGradient id="arrongin" x1="0%" x2="0%" y1="0%" y2="100%">
   <stop offset="0%" style="stop-color:#dd9b44; stop-opacity:1"/>
   <stop offset="100%" style="stop-color:#ad6c16; stop-opacity:1"/>
  </linearGradient>
  <linearGradient id="aurora" x1="0%" x2="0%" y1="0%" y2="100%">
   <stop offset="0%" style="stop-color:#09D4DF; stop-opacity:1"/>
   <stop offset="100%" style="stop-color:#9269F4; stop-opacity:1"/>
  </linearGradient>
  <linearGradient id="cyberneon" x1="0%" x2="0%" y1="0%" y2="100%">
    <stop offset="0" style="stop-color:#0abdc6; stop-opacity:1"/>
    <stop offset="1" style="stop-color:#ea00d9; stop-opacity:1"/>
  </linearGradient>
  <linearGradient id="fitdance" x1="0%" x2="0%" y1="0%" y2="100%">
   <stop offset="0%" style="stop-color:#1AD6AB; stop-opacity:1"/>
   <stop offset="100%" style="stop-color:#329DB6; stop-opacity:1"/>
  </linearGradient>
  <linearGradient id="oomox" x1="0%" x2="0%" y1="0%" y2="100%">
   <stop offset="0%" style="stop-color:#0abdc6; stop-opacity:1"/>
   <stop offset="100%" style="stop-color:#b800ff; stop-opacity:1"/>
  </linearGradient>
  <linearGradient id="rainblue" x1="0%" x2="0%" y1="0%" y2="100%">
   <stop offset="0%" style="stop-color:#00F260; stop-opacity:1"/>
   <stop offset="100%" style="stop-color:#0575E6; stop-opacity:1"/>
  </linearGradient>
  <linearGradient id="sunrise" x1="0%" x2="0%" y1="0%" y2="100%">
   <stop offset="0%" style="stop-color: #FF8501; stop-opacity:1"/>
   <stop offset="100%" style="stop-color: #FFCB01; stop-opacity:1"/>
  </linearGradient>
  <linearGradient id="telinkrin" x1="0%" x2="0%" y1="0%" y2="100%">
   <stop offset="0%" style="stop-color: #b2ced6; stop-opacity:1"/>
   <stop offset="100%" style="stop-color: #6da5b7; stop-opacity:1"/>
  </linearGradient>
  <linearGradient id="60spsycho" x1="0%" x2="0%" y1="0%" y2="100%">
   <stop offset="0%" style="stop-color: #df5940; stop-opacity:1"/>
   <stop offset="25%" style="stop-color: #d8d15f; stop-opacity:1"/>
   <stop offset="50%" style="stop-color: #e9882a; stop-opacity:1"/>
   <stop offset="100%" style="stop-color: #279362; stop-opacity:1"/>
  </linearGradient>
  <linearGradient id="90ssummer" x1="0%" x2="0%" y1="0%" y2="100%">
   <stop offset="0%" style="stop-color: #f618c7; stop-opacity:1"/>
   <stop offset="20%" style="stop-color: #94ffab; stop-opacity:1"/>
   <stop offset="50%" style="stop-color: #fbfd54; stop-opacity:1"/>
   <stop offset="100%" style="stop-color: #0f83ae; stop-opacity:1"/>
  </linearGradient>
 </defs>
  <path
     id="path51"
     class="ColorScheme-Text"
     style="display:inline;opacity:1;vector-effect:none;fill:url(#oomox);stroke-width:0.0683242;enable-background:new;stop-color:#000000;stop-opacity:1"
     d="M 1.3379028 0 L 1.3379028 0.22272542 L 1.5606282 0.22272542 L 1.5606282 0 L 1.3379028 0 z M 1.3368693 0.44545084 L 1.3368693 0.66817626 L 1.5595947 0.66817626 L 1.5595947 0.44545084 L 1.3368693 0.44545084 z M 1.3368693 0.89141845 L 1.3368693 1.1141439 L 1.5595947 1.1141439 L 1.5595947 0.89141845 L 1.3368693 0.89141845 z M 4.0100911 1.3363525 L 4.0100911 1.5590779 L 4.2333333 1.5590779 L 4.2333333 1.3363525 L 4.0100911 1.3363525 z M 0.89141845 1.3368693 L 0.89141845 1.5595947 L 1.1141439 1.5595947 L 1.1141439 1.3368693 L 0.89141845 1.3368693 z M 1.3368693 1.3368693 L 1.3368693 1.5595947 L 1.5595947 1.5595947 L 1.5595947 1.3368693 L 1.3368693 1.3368693 z M 0.44545084 1.7823201 L 0.44545084 2.0050456 L 0.66869303 2.0050456 L 0.66869303 1.7823201 L 0.44545084 1.7823201 z M 0.89141845 1.7823201 L 0.89141845 2.0050456 L 1.1141439 2.0050456 L 1.1141439 1.7823201 L 0.89141845 1.7823201 z M 1.3368693 1.7823201 L 1.3368693 2.0050456 L 1.5595947 2.0050456 L 1.5595947 1.7823201 L 1.3368693 1.7823201 z M 4.0100911 1.7823201 L 4.0100911 2.0050456 L 4.2333333 2.0050456 L 4.2333333 1.7823201 L 4.0100911 1.7823201 z M 0.44545084 2.227771 L 0.44545084 2.4504964 L 0.66869303 2.4504964 L 0.66869303 2.227771 L 0.44545084 2.227771 z M 0.89141845 2.227771 L 0.89141845 2.4504964 L 1.1141439 2.4504964 L 1.1141439 2.227771 L 0.89141845 2.227771 z M 1.3368693 2.227771 L 1.3368693 2.4504964 L 1.5595947 2.4504964 L 1.5595947 2.227771 L 1.3368693 2.227771 z M 1.7823201 2.227771 L 1.7823201 2.4504964 L 2.0050456 2.4504964 L 2.0050456 2.227771 L 1.7823201 2.227771 z M 3.5646403 2.227771 L 3.5646403 2.4504964 L 3.7873657 2.4504964 L 3.7873657 2.227771 L 3.5646403 2.227771 z M 4.0100911 2.227771 L 4.0100911 2.4504964 L 4.2333333 2.4504964 L 4.2333333 2.227771 L 4.0100911 2.227771 z M 0 2.6737386 L 0 2.896464 L 0.22272542 2.896464 L 0.22272542 2.6737386 L 0 2.6737386 z M 0.44545084 2.6737386 L 0.44545084 2.896464 L 0.66869303 2.896464 L 0.66869303 2.6737386 L 0.44545084 2.6737386 z M 0.89141845 2.6737386 L 0.89141845 2.896464 L 1.1141439 2.896464 L 1.1141439 2.6737386 L 0.89141845 2.6737386 z M 1.3368693 2.6737386 L 1.3368693 2.896464 L 1.5595947 2.896464 L 1.5595947 2.6737386 L 1.3368693 2.6737386 z M 1.7823201 2.6737386 L 1.7823201 2.896464 L 2.0050456 2.896464 L 2.0050456 2.6737386 L 1.7823201 2.6737386 z M 3.1191894 2.6737386 L 3.1191894 2.896464 L 3.3419148 2.896464 L 3.3419148 2.6737386 L 3.1191894 2.6737386 z M 3.5646403 2.6737386 L 3.5646403 2.896464 L 3.7873657 2.896464 L 3.7873657 2.6737386 L 3.5646403 2.6737386 z M 4.0100911 2.6737386 L 4.0100911 2.896464 L 4.2333333 2.896464 L 4.2333333 2.6737386 L 4.0100911 2.6737386 z M 0 3.1191894 L 0 3.3419148 L 0.22272542 3.3419148 L 0.22272542 3.1191894 L 0 3.1191894 z M 0.44545084 3.1191894 L 0.44545084 3.3419148 L 0.66869303 3.3419148 L 0.66869303 3.1191894 L 0.44545084 3.1191894 z M 0.89141845 3.1191894 L 0.89141845 3.3419148 L 1.1141439 3.3419148 L 1.1141439 3.1191894 L 0.89141845 3.1191894 z M 1.3368693 3.1191894 L 1.3368693 3.3419148 L 1.5595947 3.3419148 L 1.5595947 3.1191894 L 1.3368693 3.1191894 z M 1.7823201 3.1191894 L 1.7823201 3.3419148 L 2.0050456 3.3419148 L 2.0050456 3.1191894 L 1.7823201 3.1191894 z M 2.227771 3.1191894 L 2.227771 3.3419148 L 2.4510132 3.3419148 L 2.4510132 3.1191894 L 2.227771 3.1191894 z M 2.6737386 3.1191894 L 2.6737386 3.3419148 L 2.896464 3.3419148 L 2.896464 3.1191894 L 2.6737386 3.1191894 z M 3.1191894 3.1191894 L 3.1191894 3.3419148 L 3.3419148 3.3419148 L 3.3419148 3.1191894 L 3.1191894 3.1191894 z M 3.5646403 3.1191894 L 3.5646403 3.3419148 L 3.7873657 3.3419148 L 3.7873657 3.1191894 L 3.5646403 3.1191894 z M 4.0100911 3.1191894 L 4.0100911 3.3419148 L 4.2333333 3.3419148 L 4.2333333 3.1191894 L 4.0100911 3.1191894 z M 0 3.5646403 L 0 3.7873657 L 0.22272542 3.7873657 L 0.22272542 3.5646403 L 0 3.5646403 z M 0.44545084 3.5646403 L 0.44545084 3.7873657 L 0.66869303 3.7873657 L 0.66869303 3.5646403 L 0.44545084 3.5646403 z M 0.89141845 3.5646403 L 0.89141845 3.7873657 L 1.1141439 3.7873657 L 1.1141439 3.5646403 L 0.89141845 3.5646403 z M 1.3368693 3.5646403 L 1.3368693 3.7873657 L 1.5595947 3.7873657 L 1.5595947 3.5646403 L 1.3368693 3.5646403 z M 1.7823201 3.5646403 L 1.7823201 3.7873657 L 2.0050456 3.7873657 L 2.0050456 3.5646403 L 1.7823201 3.5646403 z M 2.227771 3.5646403 L 2.227771 3.7873657 L 2.4510132 3.7873657 L 2.4510132 3.5646403 L 2.227771 3.5646403 z M 2.6737386 3.5646403 L 2.6737386 3.7873657 L 2.896464 3.7873657 L 2.896464 3.5646403 L 2.6737386 3.5646403 z M 3.1191894 3.5646403 L 3.1191894 3.7873657 L 3.3419148 3.7873657 L 3.3419148 3.5646403 L 3.1191894 3.5646403 z M 3.5646403 3.5646403 L 3.5646403 3.7873657 L 3.7873657 3.7873657 L 3.7873657 3.5646403 L 3.5646403 3.5646403 z M 4.0100911 3.5646403 L 4.0100911 3.7873657 L 4.2333333 3.7873657 L 4.2333333 3.5646403 L 4.0100911 3.5646403 z M 0 4.0100911 L 0 4.2333333 L 0.22272542 4.2333333 L 0.22272542 4.0100911 L 0 4.0100911 z M 0.44545084 4.0100911 L 0.44545084 4.2333333 L 0.66869303 4.2333333 L 0.66869303 4.0100911 L 0.44545084 4.0100911 z M 0.89141845 4.0100911 L 0.89141845 4.2333333 L 1.1141439 4.2333333 L 1.1141439 4.0100911 L 0.89141845 4.0100911 z M 1.3368693 4.0100911 L 1.3368693 4.2333333 L 1.5595947 4.2333333 L 1.5595947 4.0100911 L 1.3368693 4.0100911 z M 1.7823201 4.0100911 L 1.7823201 4.2333333 L 2.0050456 4.2333333 L 2.0050456 4.0100911 L 1.7823201 4.0100911 z M 2.227771 4.0100911 L 2.227771 4.2333333 L 2.4510132 4.2333333 L 2.4510132 4.0100911 L 2.227771 4.0100911 z M 2.6737386 4.0100911 L 2.6737386 4.2333333 L 2.896464 4.2333333 L 2.896464 4.0100911 L 2.6737386 4.0100911 z M 3.1191894 4.0100911 L 3.1191894 4.2333333 L 3.3419148 4.2333333 L 3.3419148 4.0100911 L 3.1191894 4.0100911 z M 3.5646403 4.0100911 L 3.5646403 4.2333333 L 3.7873657 4.2333333 L 3.7873657 4.0100911 L 3.5646403 4.0100911 z M 4.0100911 4.0100911 L 4.0100911 4.2333333 L 4.2333333 4.2333333 L 4.2333333 4.0100911 L 4.0100911 4.0100911 z " />
  <metadata
     id="metadata585">
    <rdf:RDF>
      <cc:Work
         rdf:about="">
        <dc:creator>
          <cc:Agent>
            <dc:title>dreifacherspass</dc:title>
          </cc:Agent>
        </dc:creator>
        <cc:license
           rdf:resource="http://creativecommons.org/licenses/by-sa/4.0/" />
      </cc:Work>
      <cc:License
         rdf:about="http://creativecommons.org/licenses/by-sa/4.0/">
        <cc:permits
           rdf:resource="http://creativecommons.org/ns#Reproduction" />
        <cc:permits
           rdf:resource="http://creativecommons.org/ns#Distribution" />
        <cc:requires
           rdf:resource="http://creativecommons.org/ns#Notice" />
        <cc:requires
           rdf:resource="http://creativecommons.org/ns#Attribution" />
        <cc:permits
           rdf:resource="http://creativecommons.org/ns#DerivativeWorks" />
        <cc:requires
           rdf:resource="http://creativecommons.org/ns#ShareAlike" />
      </cc:License>
    </rdf:RDF>
  </metadata>
</svg>
