<?xml version="1.0" encoding="UTF-8" standalone="no"?>
<!-- Created with Inkscape (http://www.inkscape.org/) -->

<svg
   width="16"
   height="16"
   viewBox="0 0 4.2333333 4.2333332"
   version="1.1"
   id="svg1"
   xmlns="http://www.w3.org/2000/svg"
   xmlns:svg="http://www.w3.org/2000/svg"
   xmlns:rdf="http://www.w3.org/1999/02/22-rdf-syntax-ns#"
   xmlns:cc="http://creativecommons.org/ns#"
   xmlns:dc="http://purl.org/dc/elements/1.1/">
  <defs>
   <style id="current-color-scheme" type="text/css">
   .ColorScheme-Text { color: #0abdc6; } .ColorScheme-Highlight { color:#5294e2; }
  </style>
  <linearGradient id="arrongin" x1="0%" x2="0%" y1="0%" y2="100%">
   <stop offset="0%" style="stop-color:#dd9b44; stop-opacity:1"/>
   <stop offset="100%" style="stop-color:#ad6c16; stop-opacity:1"/>
  </linearGradient>
  <linearGradient id="aurora" x1="0%" x2="0%" y1="0%" y2="100%">
   <stop offset="0%" style="stop-color:#09D4DF; stop-opacity:1"/>
   <stop offset="100%" style="stop-color:#9269F4; stop-opacity:1"/>
  </linearGradient>
  <linearGradient id="cyberneon" x1="0%" x2="0%" y1="0%" y2="100%">
    <stop offset="0" style="stop-color:#0abdc6; stop-opacity:1"/>
    <stop offset="1" style="stop-color:#ea00d9; stop-opacity:1"/>
  </linearGradient>
  <linearGradient id="fitdance" x1="0%" x2="0%" y1="0%" y2="100%">
   <stop offset="0%" style="stop-color:#1AD6AB; stop-opacity:1"/>
   <stop offset="100%" style="stop-color:#329DB6; stop-opacity:1"/>
  </linearGradient>
  <linearGradient id="oomox" x1="0%" x2="0%" y1="0%" y2="100%">
   <stop offset="0%" style="stop-color:#0abdc6; stop-opacity:1"/>
   <stop offset="100%" style="stop-color:#b800ff; stop-opacity:1"/>
  </linearGradient>
  <linearGradient id="rainblue" x1="0%" x2="0%" y1="0%" y2="100%">
   <stop offset="0%" style="stop-color:#00F260; stop-opacity:1"/>
   <stop offset="100%" style="stop-color:#0575E6; stop-opacity:1"/>
  </linearGradient>
  <linearGradient id="sunrise" x1="0%" x2="0%" y1="0%" y2="100%">
   <stop offset="0%" style="stop-color: #FF8501; stop-opacity:1"/>
   <stop offset="100%" style="stop-color: #FFCB01; stop-opacity:1"/>
  </linearGradient>
  <linearGradient id="telinkrin" x1="0%" x2="0%" y1="0%" y2="100%">
   <stop offset="0%" style="stop-color: #b2ced6; stop-opacity:1"/>
   <stop offset="100%" style="stop-color: #6da5b7; stop-opacity:1"/>
  </linearGradient>
  <linearGradient id="60spsycho" x1="0%" x2="0%" y1="0%" y2="100%">
   <stop offset="0%" style="stop-color: #df5940; stop-opacity:1"/>
   <stop offset="25%" style="stop-color: #d8d15f; stop-opacity:1"/>
   <stop offset="50%" style="stop-color: #e9882a; stop-opacity:1"/>
   <stop offset="100%" style="stop-color: #279362; stop-opacity:1"/>
  </linearGradient>
  <linearGradient id="90ssummer" x1="0%" x2="0%" y1="0%" y2="100%">
   <stop offset="0%" style="stop-color: #f618c7; stop-opacity:1"/>
   <stop offset="20%" style="stop-color: #94ffab; stop-opacity:1"/>
   <stop offset="50%" style="stop-color: #fbfd54; stop-opacity:1"/>
   <stop offset="100%" style="stop-color: #0f83ae; stop-opacity:1"/>
  </linearGradient>
 </defs>
  <path
     style="display:inline;fill:url(#oomox);fill-opacity:1;fill-rule:evenodd;stroke:url(#oomox);stroke-width:0.0535285;stroke-linejoin:round;stroke-miterlimit:4;stroke-dasharray:none;stroke-opacity:1"
     d="M 2.6701664,0.48810323 C 2.1014025,0.57984457 1.373568,1.29011 0.66441501,1.8608259 L 1.5363439,1.4583074 1.0324234,1.9941224 1.4678649,1.790243 C 1.3249289,2.0719956 1.3402337,2.559319 0.86985097,2.6553701 1.1147739,2.8977689 1.4295267,3.0698953 1.7815098,3.1373411 c 0.1677979,0.031892 0.2848915,0.5002668 0.3350746,0.5002668 0.050183,0 0.1672764,-0.4683746 0.3350743,-0.5002668 C 2.8171289,3.0673152 3.1423542,2.8844187 3.391023,2.6271502 2.1466117,2.6427056 2.225244,1.3801344 3.3246358,1.1038908 3.2398435,1.024885 2.9576392,1.0396888 2.726622,1.0761857 2.7668807,0.80696279 3.1486373,0.67802559 3.4307509,0.71288109 3.2695229,0.54931624 3.0732223,0.43114558 2.7475311,0.56703741 Z m -0.1563001,0.22686966 0.084683,0.083639 C 2.4879837,0.89224529 2.3897437,0.89846955 2.296407,0.814815 Z"
     id="PhoenixHead"
     class="ColorScheme-Text" />
  <path
     style="display:inline;fill:url(#oomox);fill-opacity:1;stroke:url(#oomox);stroke-width:0.0512544"
     d="M 0.45113706,0.43269363 C 0.18412746,0.78383639 0.02562721,1.2220336 0.02562721,1.6971998 c 0,1.1323847 0.90025821,2.0555693 2.02404659,2.0909514 C 1.9158525,3.6710631 1.8154866,3.3030548 1.7485759,3.2863217 0.86144361,3.1152019 0.19290382,2.3331934 0.19290382,1.3961019 c 0,-0.3509595 0.0940588,-0.68014721 0.25823324,-0.96340827 z m 3.33089474,0 c 0.1641734,0.28326106 0.2582331,0.61244877 0.2582331,0.96340827 0,0.9370915 -0.6685394,1.7191 -1.5556721,1.8902198 -0.06691,0.016731 -0.1672767,0.3847414 -0.3010979,0.5018295 1.1237891,-0.035383 2.0240465,-0.9585667 2.0240465,-2.0909514 0,-0.4751662 -0.1584998,-0.91336341 -0.4255096,-1.26450617 z"
     id="Ring"
     class="ColorScheme-Text" />
  <metadata
     id="metadata1">
    <rdf:RDF>
      <cc:Work
         rdf:about="">
        <dc:creator>
          <cc:Agent>
            <dc:title>dreifacherspass</dc:title>
          </cc:Agent>
        </dc:creator>
        <cc:license
           rdf:resource="http://creativecommons.org/licenses/by-sa/4.0/" />
      </cc:Work>
      <cc:License
         rdf:about="http://creativecommons.org/licenses/by-sa/4.0/">
        <cc:permits
           rdf:resource="http://creativecommons.org/ns#Reproduction" />
        <cc:permits
           rdf:resource="http://creativecommons.org/ns#Distribution" />
        <cc:requires
           rdf:resource="http://creativecommons.org/ns#Notice" />
        <cc:requires
           rdf:resource="http://creativecommons.org/ns#Attribution" />
        <cc:permits
           rdf:resource="http://creativecommons.org/ns#DerivativeWorks" />
        <cc:requires
           rdf:resource="http://creativecommons.org/ns#ShareAlike" />
      </cc:License>
    </rdf:RDF>
  </metadata>
</svg>
