<?xml version="1.0" encoding="UTF-8" standalone="no"?>
<svg
   width="16"
   height="16"
   version="1.1"
   id="svg4"
   xmlns:xlink="http://www.w3.org/1999/xlink"
   xmlns="http://www.w3.org/2000/svg"
   xmlns:svg="http://www.w3.org/2000/svg"
   xmlns:rdf="http://www.w3.org/1999/02/22-rdf-syntax-ns#"
   xmlns:cc="http://creativecommons.org/ns#"
   xmlns:dc="http://purl.org/dc/elements/1.1/">
  <defs>
   <style id="current-color-scheme" type="text/css">
   .ColorScheme-Text { color: #0abdc6; } .ColorScheme-Highlight { color:#5294e2; }
  </style>
  <linearGradient id="arrongin" x1="0%" x2="0%" y1="0%" y2="100%">
   <stop offset="0%" style="stop-color:#dd9b44; stop-opacity:1"/>
   <stop offset="100%" style="stop-color:#ad6c16; stop-opacity:1"/>
  </linearGradient>
  <linearGradient id="aurora" x1="0%" x2="0%" y1="0%" y2="100%">
   <stop offset="0%" style="stop-color:#09D4DF; stop-opacity:1"/>
   <stop offset="100%" style="stop-color:#9269F4; stop-opacity:1"/>
  </linearGradient>
  <linearGradient id="cyberneon" x1="0%" x2="0%" y1="0%" y2="100%">
    <stop offset="0" style="stop-color:#0abdc6; stop-opacity:1"/>
    <stop offset="1" style="stop-color:#ea00d9; stop-opacity:1"/>
  </linearGradient>
  <linearGradient id="fitdance" x1="0%" x2="0%" y1="0%" y2="100%">
   <stop offset="0%" style="stop-color:#1AD6AB; stop-opacity:1"/>
   <stop offset="100%" style="stop-color:#329DB6; stop-opacity:1"/>
  </linearGradient>
  <linearGradient id="oomox" x1="0%" x2="0%" y1="0%" y2="100%">
   <stop offset="0%" style="stop-color:#0abdc6; stop-opacity:1"/>
   <stop offset="100%" style="stop-color:#b800ff; stop-opacity:1"/>
  </linearGradient>
  <linearGradient id="rainblue" x1="0%" x2="0%" y1="0%" y2="100%">
   <stop offset="0%" style="stop-color:#00F260; stop-opacity:1"/>
   <stop offset="100%" style="stop-color:#0575E6; stop-opacity:1"/>
  </linearGradient>
  <linearGradient id="sunrise" x1="0%" x2="0%" y1="0%" y2="100%">
   <stop offset="0%" style="stop-color: #FF8501; stop-opacity:1"/>
   <stop offset="100%" style="stop-color: #FFCB01; stop-opacity:1"/>
  </linearGradient>
  <linearGradient id="telinkrin" x1="0%" x2="0%" y1="0%" y2="100%">
   <stop offset="0%" style="stop-color: #b2ced6; stop-opacity:1"/>
   <stop offset="100%" style="stop-color: #6da5b7; stop-opacity:1"/>
  </linearGradient>
  <linearGradient id="60spsycho" x1="0%" x2="0%" y1="0%" y2="100%">
   <stop offset="0%" style="stop-color: #df5940; stop-opacity:1"/>
   <stop offset="25%" style="stop-color: #d8d15f; stop-opacity:1"/>
   <stop offset="50%" style="stop-color: #e9882a; stop-opacity:1"/>
   <stop offset="100%" style="stop-color: #279362; stop-opacity:1"/>
  </linearGradient>
  <linearGradient id="90ssummer" x1="0%" x2="0%" y1="0%" y2="100%">
   <stop offset="0%" style="stop-color: #f618c7; stop-opacity:1"/>
   <stop offset="20%" style="stop-color: #94ffab; stop-opacity:1"/>
   <stop offset="50%" style="stop-color: #fbfd54; stop-opacity:1"/>
   <stop offset="100%" style="stop-color: #0f83ae; stop-opacity:1"/>
  </linearGradient>
 </defs>
  <path
     id="path1"
     class="ColorScheme-Text"
     style="stroke-width:0.285714;fill:url(#oomox)"
     d="M 1.1425781 0 L 1.1425781 4.5722656 L 2.2851562 4.5722656 A 1.1428571 1.1428571 0 0 1 3.4277344 5.7148438 L 3.4277344 10.285156 A 1.1428571 1.1428571 0 0 1 2.2851562 11.427734 L 1.1425781 11.427734 L 1.1425781 16 L 4.5722656 16 A 3.4285714 3.4285714 0 0 0 8 12.572266 A 3.4285714 3.4285714 0 0 0 11.427734 16 L 14.857422 16 L 14.857422 0 L 11.427734 0 A 3.4285714 3.4285714 0 0 0 8 3.4277344 A 3.4285714 3.4285714 0 0 0 4.5722656 0 L 1.1425781 0 z M 2.2851562 1.4277344 L 3.4277344 1.4277344 C 5.1533297 1.4277344 6.5722656 2.8466703 6.5722656 4.5722656 L 6.5722656 5.7148438 C 6.5722656 6.5139711 7.2008728 7.1425781 8 7.1425781 L 8 8.8574219 C 7.2008729 8.8574219 6.5722657 9.4860295 6.5722656 10.285156 L 6.5722656 11.427734 C 6.5722662 13.153332 5.1533301 14.572266 3.4277344 14.572266 L 2.2851562 14.572266 L 2.2851562 12.857422 L 3.4277344 12.857422 C 4.2268618 12.857422 4.8574221 12.226863 4.8574219 11.427734 L 4.8574219 10.285156 C 4.857422 9.3601181 5.2976813 8.576994 5.9414062 8 C 5.2976813 7.423006 4.8574219 6.6398824 4.8574219 5.7148438 L 4.8574219 4.5722656 C 4.8574219 3.7731384 4.2268616 3.1425781 3.4277344 3.1425781 L 2.2851562 3.1425781 L 2.2851562 1.4277344 z M 12 1.4277344 A 1.7142857 1.7142857 0 0 1 13.714844 3.1425781 A 1.7142857 1.7142857 0 0 1 12 4.8574219 A 1.7142857 1.7142857 0 0 1 10.285156 3.1425781 A 1.7142857 1.7142857 0 0 1 12 1.4277344 z M 12 6.2851562 A 1.7142857 1.7142857 0 0 1 13.714844 8 A 1.7142857 1.7142857 0 0 1 12 9.7148438 A 1.7142857 1.7142857 0 0 1 10.285156 8 A 1.7142857 1.7142857 0 0 1 12 6.2851562 z M 12 11.142578 A 1.7142857 1.7142857 0 0 1 13.714844 12.857422 A 1.7142857 1.7142857 0 0 1 12 14.572266 A 1.7142857 1.7142857 0 0 1 10.285156 12.857422 A 1.7142857 1.7142857 0 0 1 12 11.142578 z " />
  <circle
     stroke="none"
     cx="10.833235"
     cy="-9.5205564"
     r="1.7142857"
     id="circle3"
     class="ColorScheme-Text"
     style="opacity:0.5;fill:url(#oomox);stroke-width:0.285714"
     transform="rotate(75)" />
  <metadata
     id="metadata4">
    <rdf:RDF>
      <cc:Work
         rdf:about="">
        <dc:creator>
          <cc:Agent>
            <dc:title>dreifacherspass</dc:title>
          </cc:Agent>
        </dc:creator>
        <cc:license
           rdf:resource="http://creativecommons.org/licenses/by-sa/4.0/" />
      </cc:Work>
      <cc:License
         rdf:about="http://creativecommons.org/licenses/by-sa/4.0/">
        <cc:permits
           rdf:resource="http://creativecommons.org/ns#Reproduction" />
        <cc:permits
           rdf:resource="http://creativecommons.org/ns#Distribution" />
        <cc:requires
           rdf:resource="http://creativecommons.org/ns#Notice" />
        <cc:requires
           rdf:resource="http://creativecommons.org/ns#Attribution" />
        <cc:permits
           rdf:resource="http://creativecommons.org/ns#DerivativeWorks" />
        <cc:requires
           rdf:resource="http://creativecommons.org/ns#ShareAlike" />
      </cc:License>
    </rdf:RDF>
  </metadata>
</svg>
