<?xml version="1.0" encoding="UTF-8" standalone="no"?>
<svg
   width="16"
   height="16"
   version="1.1"
   id="svg25"
   xmlns:xlink="http://www.w3.org/1999/xlink"
   xmlns="http://www.w3.org/2000/svg"
   xmlns:svg="http://www.w3.org/2000/svg"
   xmlns:rdf="http://www.w3.org/1999/02/22-rdf-syntax-ns#"
   xmlns:cc="http://creativecommons.org/ns#"
   xmlns:dc="http://purl.org/dc/elements/1.1/">
   <defs>
      <style id="current-color-scheme" type="text/css">
         .ColorScheme-Text { color: #0abdc6; } .ColorScheme-Highlight { color:#5294e2; }
      </style>
      <linearGradient id="arrongin" x1="0%" x2="0%" y1="0%" y2="100%">
         <stop offset="0%" style="stop-color:#dd9b44; stop-opacity:1"/>
         <stop offset="100%" style="stop-color:#ad6c16; stop-opacity:1"/>
      </linearGradient>
      <linearGradient id="aurora" x1="0%" x2="0%" y1="0%" y2="100%">
         <stop offset="0%" style="stop-color:#09D4DF; stop-opacity:1"/>
         <stop offset="100%" style="stop-color:#9269F4; stop-opacity:1"/>
      </linearGradient>
      <linearGradient id="cyberneon" x1="0%" x2="0%" y1="0%" y2="100%">
         <stop offset="0" style="stop-color:#0abdc6; stop-opacity:1"/>
         <stop offset="1" style="stop-color:#ea00d9; stop-opacity:1"/>
      </linearGradient>
      <linearGradient id="fitdance" x1="0%" x2="0%" y1="0%" y2="100%">
         <stop offset="0%" style="stop-color:#1AD6AB; stop-opacity:1"/>
         <stop offset="100%" style="stop-color:#329DB6; stop-opacity:1"/>
      </linearGradient>
      <linearGradient id="oomox" x1="0%" x2="0%" y1="0%" y2="100%">
         <stop offset="0%" style="stop-color:#0abdc6; stop-opacity:1"/>
         <stop offset="100%" style="stop-color:#b800ff; stop-opacity:1"/>
      </linearGradient>
      <linearGradient id="rainblue" x1="0%" x2="0%" y1="0%" y2="100%">
         <stop offset="0%" style="stop-color:#00F260; stop-opacity:1"/>
         <stop offset="100%" style="stop-color:#0575E6; stop-opacity:1"/>
      </linearGradient>
      <linearGradient id="sunrise" x1="0%" x2="0%" y1="0%" y2="100%">
         <stop offset="0%" style="stop-color: #FF8501; stop-opacity:1"/>
         <stop offset="100%" style="stop-color: #FFCB01; stop-opacity:1"/>
      </linearGradient>
      <linearGradient id="telinkrin" x1="0%" x2="0%" y1="0%" y2="100%">
         <stop offset="0%" style="stop-color: #b2ced6; stop-opacity:1"/>
         <stop offset="100%" style="stop-color: #6da5b7; stop-opacity:1"/>
      </linearGradient>
      <linearGradient id="60spsycho" x1="0%" x2="0%" y1="0%" y2="100%">
         <stop offset="0%" style="stop-color: #df5940; stop-opacity:1"/>
         <stop offset="25%" style="stop-color: #d8d15f; stop-opacity:1"/>
         <stop offset="50%" style="stop-color: #e9882a; stop-opacity:1"/>
         <stop offset="100%" style="stop-color: #279362; stop-opacity:1"/>
      </linearGradient>
      <linearGradient id="90ssummer" x1="0%" x2="0%" y1="0%" y2="100%">
         <stop offset="0%" style="stop-color: #f618c7; stop-opacity:1"/>
         <stop offset="20%" style="stop-color: #94ffab; stop-opacity:1"/>
         <stop offset="50%" style="stop-color: #fbfd54; stop-opacity:1"/>
         <stop offset="100%" style="stop-color: #0f83ae; stop-opacity:1"/>
      </linearGradient>
   </defs>
  <path
     class="ColorScheme-Text"
     d="m 6,12.49876 h 4 V 13 c 0,1.5 0.5,1.5 1.5,1.5 H 12 v 1 H 4 v -1 h 0.5 c 1,0 1.5,0 1.5,-1.5 z"
     id="path25"
     style="opacity:1;fill:url(#oomox)" />
  <path
     class="ColorScheme-Text"
     d="M 3.9941403,0.5 C 2.7359397,0.5144997 1.8152499,0.4694 1.0624997,0.8847699 0.68612997,1.0924301 0.38927003,1.4441496 0.22460997,1.8828104 0.05994005,2.3214805 0,2.8423896 0,3.5 v 6 c 0,0.657609 0.05990005,1.178533 0.22460997,1.617186 0.16467003,0.438663 0.46152,0.79039 0.83788973,0.998041 0.7527502,0.415324 1.6734504,0.370204 2.9316406,0.384773 h 0.00396 8.0039017 0.0037 c 1.258189,-0.01449 2.178889,0.03059 2.931638,-0.384773 0.376371,-0.20766 0.673221,-0.559378 0.837891,-0.998041 C 15.940056,10.678523 16,10.157609 16,9.5 v -6 C 16,2.8423896 15.9401,2.3214805 15.775387,1.8828104 15.610729,1.4441496 15.313873,1.0924301 14.937496,0.8847699 14.184753,0.46943003 13.264056,0.5145195 12.005864,0.5 h -0.0037 -8.0039009 z m 0.00603,1 h 7.9999987 c 1.258523,0.014701 2.087172,0.059803 2.453118,0.2617205 0.183407,0.1012 0.289159,0.2127398 0.38672,0.4726598 0.09743,0.2599096 0.160019,0.6732301 0.160019,1.2656197 v 6 c 0,0.592386 -0.06259,1.005723 -0.16016,1.265619 -0.0976,0.259915 -0.203312,0.371474 -0.386719,0.472658 -0.365948,0.20191 -1.194598,0.247012 -2.45312,0.261723 H 4.0058597 4 C 2.7414701,11.485299 1.91088,11.440197 1.5449205,11.238277 1.3615096,11.137093 1.2577195,11.025534 1.16016,10.765619 1.0625901,10.505723 1,10.092386 1,9.5 v -6 C 1,2.9076104 1.062598,2.4942805 1.16016,2.2343803 1.25776,1.9744696 1.3615096,1.8629101 1.5449205,1.7617205 1.91088,1.5598099 2.7414701,1.5147096 4,1.5 Z"
     id="path24"
     style="fill:url(#oomox);stroke-width:1" />
  <metadata
     id="metadata25">
    <rdf:RDF>
      <cc:Work
         rdf:about="">
        <dc:creator>
          <cc:Agent>
            <dc:title>dreifacherspass</dc:title>
          </cc:Agent>
        </dc:creator>
        <cc:license
           rdf:resource="http://creativecommons.org/licenses/by-sa/4.0/" />
      </cc:Work>
      <cc:License
         rdf:about="http://creativecommons.org/licenses/by-sa/4.0/">
        <cc:permits
           rdf:resource="http://creativecommons.org/ns#Reproduction" />
        <cc:permits
           rdf:resource="http://creativecommons.org/ns#Distribution" />
        <cc:requires
           rdf:resource="http://creativecommons.org/ns#Notice" />
        <cc:requires
           rdf:resource="http://creativecommons.org/ns#Attribution" />
        <cc:permits
           rdf:resource="http://creativecommons.org/ns#DerivativeWorks" />
        <cc:requires
           rdf:resource="http://creativecommons.org/ns#ShareAlike" />
      </cc:License>
    </rdf:RDF>
  </metadata>
  <circle
     style="opacity:0.7;fill:url(#oomox);stroke-width:1.29306;stroke-linecap:square"
     id="path26"
     class="ColorScheme-Text"
     cx="8"
     cy="6.5"
     r="4" />
</svg>
