<?xml version="1.0" encoding="UTF-8" standalone="no"?>
<!-- Created with Inkscape (http://www.inkscape.org/) -->

<svg
   width="16"
   height="16"
   viewBox="0 0 4.2333333 4.2333332"
   version="1.1"
   id="svg8"
   xmlns:xlink="http://www.w3.org/1999/xlink"
   xmlns="http://www.w3.org/2000/svg"
   xmlns:svg="http://www.w3.org/2000/svg"
   xmlns:rdf="http://www.w3.org/1999/02/22-rdf-syntax-ns#"
   xmlns:cc="http://creativecommons.org/ns#"
   xmlns:dc="http://purl.org/dc/elements/1.1/">
  <defs>
   <style id="current-color-scheme" type="text/css">
   .ColorScheme-Text { color: #0abdc6; } .ColorScheme-Highlight { color:#5294e2; }
  </style>
  <linearGradient id="arrongin" x1="0%" x2="0%" y1="0%" y2="100%">
   <stop offset="0%" style="stop-color:#dd9b44; stop-opacity:1"/>
   <stop offset="100%" style="stop-color:#ad6c16; stop-opacity:1"/>
  </linearGradient>
  <linearGradient id="aurora" x1="0%" x2="0%" y1="0%" y2="100%">
   <stop offset="0%" style="stop-color:#09D4DF; stop-opacity:1"/>
   <stop offset="100%" style="stop-color:#9269F4; stop-opacity:1"/>
  </linearGradient>
  <linearGradient id="cyberneon" x1="0%" x2="0%" y1="0%" y2="100%">
    <stop offset="0" style="stop-color:#0abdc6; stop-opacity:1"/>
    <stop offset="1" style="stop-color:#ea00d9; stop-opacity:1"/>
  </linearGradient>
  <linearGradient id="fitdance" x1="0%" x2="0%" y1="0%" y2="100%">
   <stop offset="0%" style="stop-color:#1AD6AB; stop-opacity:1"/>
   <stop offset="100%" style="stop-color:#329DB6; stop-opacity:1"/>
  </linearGradient>
  <linearGradient id="oomox" x1="0%" x2="0%" y1="0%" y2="100%">
   <stop offset="0%" style="stop-color:#0abdc6; stop-opacity:1"/>
   <stop offset="100%" style="stop-color:#b800ff; stop-opacity:1"/>
  </linearGradient>
  <linearGradient id="rainblue" x1="0%" x2="0%" y1="0%" y2="100%">
   <stop offset="0%" style="stop-color:#00F260; stop-opacity:1"/>
   <stop offset="100%" style="stop-color:#0575E6; stop-opacity:1"/>
  </linearGradient>
  <linearGradient id="sunrise" x1="0%" x2="0%" y1="0%" y2="100%">
   <stop offset="0%" style="stop-color: #FF8501; stop-opacity:1"/>
   <stop offset="100%" style="stop-color: #FFCB01; stop-opacity:1"/>
  </linearGradient>
  <linearGradient id="telinkrin" x1="0%" x2="0%" y1="0%" y2="100%">
   <stop offset="0%" style="stop-color: #b2ced6; stop-opacity:1"/>
   <stop offset="100%" style="stop-color: #6da5b7; stop-opacity:1"/>
  </linearGradient>
  <linearGradient id="60spsycho" x1="0%" x2="0%" y1="0%" y2="100%">
   <stop offset="0%" style="stop-color: #df5940; stop-opacity:1"/>
   <stop offset="25%" style="stop-color: #d8d15f; stop-opacity:1"/>
   <stop offset="50%" style="stop-color: #e9882a; stop-opacity:1"/>
   <stop offset="100%" style="stop-color: #279362; stop-opacity:1"/>
  </linearGradient>
  <linearGradient id="90ssummer" x1="0%" x2="0%" y1="0%" y2="100%">
   <stop offset="0%" style="stop-color: #f618c7; stop-opacity:1"/>
   <stop offset="20%" style="stop-color: #94ffab; stop-opacity:1"/>
   <stop offset="50%" style="stop-color: #fbfd54; stop-opacity:1"/>
   <stop offset="100%" style="stop-color: #0f83ae; stop-opacity:1"/>
  </linearGradient>
 </defs>
  <metadata
     id="metadata5">
    <rdf:RDF>
      <cc:Work
         rdf:about="">
        <dc:format>image/svg+xml</dc:format>
        <dc:type
           rdf:resource="http://purl.org/dc/dcmitype/StillImage" />
        <dc:creator>
          <cc:Agent>
            <dc:title>dreifacherspass</dc:title>
          </cc:Agent>
        </dc:creator>
        <cc:license
           rdf:resource="http://creativecommons.org/licenses/by-sa/4.0/" />
      </cc:Work>
      <cc:License
         rdf:about="http://creativecommons.org/licenses/by-sa/4.0/">
        <cc:permits
           rdf:resource="http://creativecommons.org/ns#Reproduction" />
        <cc:permits
           rdf:resource="http://creativecommons.org/ns#Distribution" />
        <cc:requires
           rdf:resource="http://creativecommons.org/ns#Notice" />
        <cc:requires
           rdf:resource="http://creativecommons.org/ns#Attribution" />
        <cc:permits
           rdf:resource="http://creativecommons.org/ns#DerivativeWorks" />
        <cc:requires
           rdf:resource="http://creativecommons.org/ns#ShareAlike" />
      </cc:License>
    </rdf:RDF>
  </metadata>
  <path
     id="path856"
     class="ColorScheme-Text"
     style="opacity:0.7;fill:url(#oomox);fill-opacity:1;fill-rule:evenodd;stroke:#000000;stroke-width:0;stroke-miterlimit:0;stroke-dasharray:none;stroke-opacity:1"
     d="M 105.66563 -167.19848 L 95.360203 -159.66056 L 85.395519 -166.94916 A 33.554267 34.248605 60 0 0 78.58064 -163.95726 A 33.554267 34.248605 60 0 0 72.588533 -159.5359 L 73.918265 -147.27743 L 62.258173 -142.13302 A 33.554267 34.248605 60 0 0 61.950672 -127.80516 L 73.918265 -122.52778 L 72.513735 -109.53796 A 33.554267 34.248605 60 0 0 85.054775 -102.60672 L 95.360203 -110.14465 L 105.32489 -102.85605 A 33.554267 34.248605 60 0 0 112.13977 -105.83964 A 33.554267 34.248605 60 0 0 118.13187 -110.26931 L 116.80214 -122.52778 L 128.46223 -127.67218 A 33.554267 34.248605 60 0 0 128.76973 -142.00005 L 116.80214 -147.27743 L 118.20667 -160.26725 A 33.554267 34.248605 60 0 0 105.66563 -167.19848 z M 95.360203 -154.52447 A 20.023951 19.617996 0 0 1 115.38099 -134.9026 A 20.023951 19.617996 0 0 1 95.360203 -115.28074 A 20.023951 19.617996 0 0 1 75.339417 -134.9026 A 20.023951 19.617996 0 0 1 95.360203 -154.52447 z "
     transform="matrix(0.06217964,0,0,0.06217964,-3.8127964,10.504862)" />
  <path
     style="display:inline;opacity:1;fill:url(#oomox);fill-opacity:1;fill-rule:evenodd;stroke:#000000;stroke-width:0;stroke-linecap:butt;stroke-linejoin:miter;stroke-miterlimit:4;stroke-dasharray:none;stroke-opacity:1"
     d="m 91.917722,-146.41033 4.13443,11.25492 4.762838,-11.08249 h 6.58671 l -10.690498,26.6228 h -7.27643 l 3.13818,-7.3799 -7.83683,-19.41533 c 2.39386,-1e-5 4.78774,0 7.1816,0 z"
     id="path862"
     class="ColorScheme-Text"
     transform="matrix(0.06217964,0,0,0.06217964,-3.8127964,10.504862)" />
  <path
     id="ellipse858"
     class="ColorScheme-Text"
     style="opacity:1;fill:url(#oomox);fill-opacity:1;fill-rule:evenodd;stroke:#000000;stroke-width:0;stroke-miterlimit:0;stroke-dasharray:none;stroke-opacity:1"
     d="M 95.360203 -163.36719 A 29.053453 28.464436 0 0 0 66.305546 -134.9026 A 29.053453 28.464436 0 0 0 95.360203 -106.43802 A 29.053453 28.464436 0 0 0 124.41486 -134.9026 A 29.053453 28.464436 0 0 0 95.360203 -163.36719 z M 95.360203 -154.51616 A 20.02395 19.617996 0 0 1 115.38099 -134.9026 A 20.02395 19.617996 0 0 1 95.360203 -115.28074 A 20.02395 19.617996 0 0 1 75.339417 -134.9026 A 20.02395 19.617996 0 0 1 95.360203 -154.51616 z "
     transform="matrix(0.06217964,0,0,0.06217964,-3.8127964,10.504862)" />
</svg>
