<?xml version="1.0" encoding="UTF-8" standalone="no"?>
<!-- Created with Inkscape (http://www.inkscape.org/) -->

<svg
   width="48"
   height="48"
   id="svg2"
   version="1.1"
   xmlns="http://www.w3.org/2000/svg"
   xmlns:svg="http://www.w3.org/2000/svg"
   xmlns:rdf="http://www.w3.org/1999/02/22-rdf-syntax-ns#"
   xmlns:cc="http://creativecommons.org/ns#"
   xmlns:dc="http://purl.org/dc/elements/1.1/">
  <defs
     id="defs24">
    <style
       id="current-color-scheme"
       type="text/css">&#10;   .ColorScheme-Text { color: #0abdc6; } .ColorScheme-Highlight { color:#5294e2; }&#10;  </style>
    <linearGradient
       id="arrongin"
       x1="0%"
       x2="0%"
       y1="0%"
       y2="100%">
      <stop
         offset="0%"
         style="stop-color:#dd9b44; stop-opacity:1"
         id="stop1" />
      <stop
         offset="100%"
         style="stop-color:#ad6c16; stop-opacity:1"
         id="stop2" />
    </linearGradient>
    <linearGradient
       id="aurora"
       x1="0%"
       x2="0%"
       y1="0%"
       y2="100%">
      <stop
         offset="0%"
         style="stop-color:#09D4DF; stop-opacity:1"
         id="stop3" />
      <stop
         offset="100%"
         style="stop-color:#9269F4; stop-opacity:1"
         id="stop4" />
    </linearGradient>
    <linearGradient
       id="cyberneon"
       x1="0%"
       x2="0%"
       y1="0%"
       y2="100%">
      <stop
         offset="0"
         style="stop-color:#0abdc6; stop-opacity:1"
         id="stop5" />
      <stop
         offset="1"
         style="stop-color:#ea00d9; stop-opacity:1"
         id="stop6" />
    </linearGradient>
    <linearGradient
       id="fitdance"
       x1="0%"
       x2="0%"
       y1="0%"
       y2="100%">
      <stop
         offset="0%"
         style="stop-color:#1AD6AB; stop-opacity:1"
         id="stop7" />
      <stop
         offset="100%"
         style="stop-color:#329DB6; stop-opacity:1"
         id="stop8" />
    </linearGradient>
    <linearGradient
       id="oomox"
       x1="0%"
       x2="0%"
       y1="0%"
       y2="100%">
      <stop
         offset="0%"
         style="stop-color:#0abdc6; stop-opacity:1"
         id="stop9" />
      <stop
         offset="100%"
         style="stop-color:#b800ff; stop-opacity:1"
         id="stop10" />
    </linearGradient>
    <linearGradient
       id="rainblue"
       x1="0%"
       x2="0%"
       y1="0%"
       y2="100%">
      <stop
         offset="0%"
         style="stop-color:#00F260; stop-opacity:1"
         id="stop11" />
      <stop
         offset="100%"
         style="stop-color:#0575E6; stop-opacity:1"
         id="stop12" />
    </linearGradient>
    <linearGradient
       id="sunrise"
       x1="0%"
       x2="0%"
       y1="0%"
       y2="100%">
      <stop
         offset="0%"
         style="stop-color: #FF8501; stop-opacity:1"
         id="stop13" />
      <stop
         offset="100%"
         style="stop-color: #FFCB01; stop-opacity:1"
         id="stop14" />
    </linearGradient>
    <linearGradient
       id="telinkrin"
       x1="0%"
       x2="0%"
       y1="0%"
       y2="100%">
      <stop
         offset="0%"
         style="stop-color: #b2ced6; stop-opacity:1"
         id="stop15" />
      <stop
         offset="100%"
         style="stop-color: #6da5b7; stop-opacity:1"
         id="stop16" />
    </linearGradient>
    <linearGradient
       id="60spsycho"
       x1="0%"
       x2="0%"
       y1="0%"
       y2="100%">
      <stop
         offset="0%"
         style="stop-color: #df5940; stop-opacity:1"
         id="stop17" />
      <stop
         offset="25%"
         style="stop-color: #d8d15f; stop-opacity:1"
         id="stop18" />
      <stop
         offset="50%"
         style="stop-color: #e9882a; stop-opacity:1"
         id="stop19" />
      <stop
         offset="100%"
         style="stop-color: #279362; stop-opacity:1"
         id="stop20" />
    </linearGradient>
    <linearGradient
       id="90ssummer"
       x1="0%"
       x2="0%"
       y1="0%"
       y2="100%">
      <stop
         offset="0%"
         style="stop-color: #f618c7; stop-opacity:1"
         id="stop21" />
      <stop
         offset="20%"
         style="stop-color: #94ffab; stop-opacity:1"
         id="stop22" />
      <stop
         offset="50%"
         style="stop-color: #fbfd54; stop-opacity:1"
         id="stop23" />
      <stop
         offset="100%"
         style="stop-color: #0f83ae; stop-opacity:1"
         id="stop24" />
    </linearGradient>
  </defs>
  <metadata
     id="metadata7">
    <rdf:RDF>
      <cc:Work
         rdf:about="">
        <dc:format>image/svg+xml</dc:format>
        <dc:type
           rdf:resource="http://purl.org/dc/dcmitype/StillImage" />
        <dc:creator>
          <cc:Agent>
            <dc:title>dreifacherspass</dc:title>
          </cc:Agent>
        </dc:creator>
        <cc:license
           rdf:resource="http://creativecommons.org/licenses/by-sa/4.0/" />
      </cc:Work>
      <cc:License
         rdf:about="http://creativecommons.org/licenses/by-sa/4.0/">
        <cc:permits
           rdf:resource="http://creativecommons.org/ns#Reproduction" />
        <cc:permits
           rdf:resource="http://creativecommons.org/ns#Distribution" />
        <cc:requires
           rdf:resource="http://creativecommons.org/ns#Notice" />
        <cc:requires
           rdf:resource="http://creativecommons.org/ns#Attribution" />
        <cc:permits
           rdf:resource="http://creativecommons.org/ns#DerivativeWorks" />
        <cc:requires
           rdf:resource="http://creativecommons.org/ns#ShareAlike" />
      </cc:License>
    </rdf:RDF>
  </metadata>
  <path
     id="rect1"
     class="ColorScheme-Text"
     style="display:inline;fill:url(#oomox);fill-opacity:1;stroke:none;stroke-width:2.94258;paint-order:markers fill stroke;opacity:0.7"
     d="M 3.2207031 5.7988281 L 3.2207031 47.359375 L 44.78125 47.359375 L 44.78125 5.7988281 L 3.2207031 5.7988281 z M 15.634766 12.939453 C 19.182589 12.939453 22.058594 15.74346 22.058594 19.199219 C 22.058594 22.65516 19.182589 25.455078 15.634766 25.455078 C 12.086941 25.455078 9.2109375 22.65516 9.2109375 19.199219 C 9.2109375 15.74346 12.086941 12.939453 15.634766 12.939453 z M 32.568359 12.939453 C 36.116224 12.939453 38.992188 15.743463 38.992188 19.199219 C 38.992188 22.655156 36.116224 25.455078 32.568359 25.455078 C 29.020498 25.455078 26.144531 22.655156 26.144531 19.199219 C 26.144531 15.743463 29.020498 12.939453 32.568359 12.939453 z M 10.5 31.199219 L 37.619141 31.199219 C 37.81858 31.199219 37.980469 31.361107 37.980469 31.560547 L 37.980469 41.519531 C 37.980469 41.718971 37.81858 41.880859 37.619141 41.880859 L 10.5 41.880859 C 10.30056 41.880859 10.140625 41.718971 10.140625 41.519531 L 10.140625 31.560547 C 10.140625 31.361107 10.30056 31.199219 10.5 31.199219 z " />
  <circle
     style="display:inline;opacity:1;fill:none;stroke:url(#oomox);stroke-width:1.24897;stroke-dasharray:none;stroke-opacity:1;paint-order:markers fill stroke"
     id="path2"
     class="ColorScheme-Text"
     cx="15.578"
     cy="19.271999"
     r="5.9555173" />
  <circle
     style="display:inline;fill:none;stroke:url(#oomox);stroke-width:1.24897;stroke-dasharray:none;stroke-opacity:1;paint-order:markers fill stroke"
     id="path2-3"
     class="ColorScheme-Text"
     cx="32.407001"
     cy="19.272003"
     r="5.9555173" />
  <path
     style="display:inline;fill:url(#oomox);fill-opacity:1;fill-rule:evenodd;stroke:url(#oomox);stroke-width:0.995582;stroke-linecap:butt;stroke-linejoin:miter;stroke-miterlimit:4;stroke-dasharray:none;stroke-opacity:1"
     d="m 14.012767,19.259089 c 0,-0.940336 0.762318,-1.702645 1.702664,-1.702645 0.940336,0 1.702654,0.762309 1.702654,1.702645 0,0.940356 -0.762318,1.702664 -1.702654,1.702664 -0.940346,0 -1.702664,-0.762308 -1.702664,-1.702664 z"
     id="path3771"
     class="ColorScheme-Text" />
  <path
     style="display:inline;fill:url(#oomox);fill-opacity:1;fill-rule:evenodd;stroke:url(#oomox);stroke-width:0.995582;stroke-linecap:butt;stroke-linejoin:miter;stroke-miterlimit:4;stroke-dasharray:none;stroke-opacity:1"
     d="m 30.84104,19.197366 c 0,-0.940327 0.762308,-1.702645 1.702654,-1.702645 0.940346,0 1.702655,0.762318 1.702655,1.702645 0,0.940356 -0.762309,1.702664 -1.702655,1.702664 -0.940346,0 -1.702654,-0.762308 -1.702654,-1.702664 z"
     id="path3771-4"
     class="ColorScheme-Text" />
  <path
     id="rect55"
     class="ColorScheme-Text"
     style="font-variation-settings:normal;display:inline;opacity:1;fill:url(#oomox);fill-opacity:1;stroke:none;stroke-width:1.44654;stroke-linecap:butt;stroke-linejoin:miter;stroke-miterlimit:4;stroke-dasharray:none;stroke-dashoffset:0;stroke-opacity:1;paint-order:markers fill stroke"
     d="m 19.656255,31.879614 v 3.921734 H 15.412111 V 31.91987 h -1.539056 v 3.881478 H 9.8554747 v 1.321786 h 4.0175803 v 3.881478 h 1.539056 v -3.881478 h 4.244144 v 3.841223 h 1.539065 v -3.841223 h 4.244134 v 3.881478 h 1.539065 v -3.881478 h 4.443359 v 3.881478 h 1.539066 v -3.881478 h 5.312499 V 35.801348 H 32.960944 V 31.91987 h -1.539066 v 3.881478 H 26.978519 V 31.91987 h -1.539065 v 3.881478 H 21.19532 v -3.921734 z" />
  <rect
     style="display:inline;opacity:1;fill:none;stroke:url(#oomox);stroke-width:1.63528;stroke-dasharray:none;stroke-opacity:1;paint-order:markers fill stroke"
     id="rect28"
     class="ColorScheme-Text"
     width="28.321417"
     height="10.479719"
     x="-38.22506"
     y="-41.675362"
     ry="0"
     transform="scale(-1)" />
  <path
     style="display:inline;opacity:1;fill:url(#oomox);fill-opacity:1;stroke:none;stroke-width:1.538;paint-order:markers fill stroke"
     d="M 8.8729499,0.5 12.249909,5.8191471 6.5942045,5.7971876 4.7786064,2.9563009"
     id="path1"
     class="ColorScheme-Text" />
  <path
     style="display:inline;opacity:1;fill:url(#oomox);fill-opacity:1;stroke:none;stroke-width:1.538;paint-order:markers fill stroke"
     d="m 36.904616,-13.592249 -3.376959,5.3191475 5.655705,-0.02196 1.815598,-2.8408875"
     id="path1-6"
     class="ColorScheme-Text"
     transform="translate(2.4889788,14.092249)" />
</svg>
