<?xml version="1.0" encoding="UTF-8" standalone="no"?>
<svg
   width="16"
   height="16"
   version="1"
   id="svg5"
   xmlns="http://www.w3.org/2000/svg"
   xmlns:svg="http://www.w3.org/2000/svg"
   xmlns:rdf="http://www.w3.org/1999/02/22-rdf-syntax-ns#"
   xmlns:cc="http://creativecommons.org/ns#"
   xmlns:dc="http://purl.org/dc/elements/1.1/">
  <defs>
   <style id="current-color-scheme" type="text/css">
   .ColorScheme-Text { color: #0abdc6; } .ColorScheme-Highlight { color:#5294e2; }
  </style>
  <linearGradient id="arrongin" x1="0%" x2="0%" y1="0%" y2="100%">
   <stop offset="0%" style="stop-color:#dd9b44; stop-opacity:1"/>
   <stop offset="100%" style="stop-color:#ad6c16; stop-opacity:1"/>
  </linearGradient>
  <linearGradient id="aurora" x1="0%" x2="0%" y1="0%" y2="100%">
   <stop offset="0%" style="stop-color:#09D4DF; stop-opacity:1"/>
   <stop offset="100%" style="stop-color:#9269F4; stop-opacity:1"/>
  </linearGradient>
  <linearGradient id="cyberneon" x1="0%" x2="0%" y1="0%" y2="100%">
    <stop offset="0" style="stop-color:#0abdc6; stop-opacity:1"/>
    <stop offset="1" style="stop-color:#ea00d9; stop-opacity:1"/>
  </linearGradient>
  <linearGradient id="fitdance" x1="0%" x2="0%" y1="0%" y2="100%">
   <stop offset="0%" style="stop-color:#1AD6AB; stop-opacity:1"/>
   <stop offset="100%" style="stop-color:#329DB6; stop-opacity:1"/>
  </linearGradient>
  <linearGradient id="oomox" x1="0%" x2="0%" y1="0%" y2="100%">
   <stop offset="0%" style="stop-color:#0abdc6; stop-opacity:1"/>
   <stop offset="100%" style="stop-color:#b800ff; stop-opacity:1"/>
  </linearGradient>
  <linearGradient id="rainblue" x1="0%" x2="0%" y1="0%" y2="100%">
   <stop offset="0%" style="stop-color:#00F260; stop-opacity:1"/>
   <stop offset="100%" style="stop-color:#0575E6; stop-opacity:1"/>
  </linearGradient>
  <linearGradient id="sunrise" x1="0%" x2="0%" y1="0%" y2="100%">
   <stop offset="0%" style="stop-color: #FF8501; stop-opacity:1"/>
   <stop offset="100%" style="stop-color: #FFCB01; stop-opacity:1"/>
  </linearGradient>
  <linearGradient id="telinkrin" x1="0%" x2="0%" y1="0%" y2="100%">
   <stop offset="0%" style="stop-color: #b2ced6; stop-opacity:1"/>
   <stop offset="100%" style="stop-color: #6da5b7; stop-opacity:1"/>
  </linearGradient>
  <linearGradient id="60spsycho" x1="0%" x2="0%" y1="0%" y2="100%">
   <stop offset="0%" style="stop-color: #df5940; stop-opacity:1"/>
   <stop offset="25%" style="stop-color: #d8d15f; stop-opacity:1"/>
   <stop offset="50%" style="stop-color: #e9882a; stop-opacity:1"/>
   <stop offset="100%" style="stop-color: #279362; stop-opacity:1"/>
  </linearGradient>
  <linearGradient id="90ssummer" x1="0%" x2="0%" y1="0%" y2="100%">
   <stop offset="0%" style="stop-color: #f618c7; stop-opacity:1"/>
   <stop offset="20%" style="stop-color: #94ffab; stop-opacity:1"/>
   <stop offset="50%" style="stop-color: #fbfd54; stop-opacity:1"/>
   <stop offset="100%" style="stop-color: #0f83ae; stop-opacity:1"/>
  </linearGradient>
 </defs>
  <path
     id="path2"
     class="ColorScheme-Text"
     style="fill:url(#oomox);stroke-width:0.400003"
     d="m 8.0014261,2.3999836 c -2.8663737,0 -5.5308242,0.097911 -6.1203648,0.225002 C 1.4860903,2.7101311 1.1729662,2.8713825 0.88808398,3.1367087 0.66141428,3.3478189 0.53631561,3.5395946 0.39979858,3.8867151 0.24989745,4.2678812 0.17015757,4.6271219 0.11542114,5.1679761 0.01104037,6.1996465 -0.00718115,6.7089993 0.00213893,8.263315 0.010051,9.5850087 0.01578685,9.7384868 0.09198346,10.586773 c 0.0675205,0.751689 0.14118837,1.107163 0.3218777,1.5547 0.19762953,0.489511 0.47139524,0.793242 0.91172654,1.010947 0.2666061,0.131815 0.5030398,0.193803 0.9843835,0.257033 0.656373,0.08622 1.7296882,0.130207 4.3742564,0.18047 2.1281479,0.04045 5.8223974,-0.04597 7.0320914,-0.164845 0.390383,-0.03836 0.63256,-0.09796 0.886726,-0.21797 0.251006,-0.118518 0.551074,-0.354018 0.703131,-0.551567 0.221629,-0.287942 0.417884,-0.794266 0.517973,-1.335169 0.03893,-0.210389 0.09767,-0.798346 0.145314,-1.4586057 0.04071,-0.5644004 0.04072,-3.1642599 0,-3.7289383 C 15.88371,4.9437458 15.825842,4.5423199 15.674929,4.0882793 15.528468,3.6476271 15.405285,3.4309252 15.166331,3.192178 14.861024,2.8871346 14.548142,2.7168971 14.121791,2.6249856 13.53225,2.4978945 10.8678,2.3999836 8.0014261,2.3999836 Z M 6.4107877,5.600011 c 0.019356,-0.013784 3.9890963,2.3815996 3.9890963,2.4070518 0,0.0272 0.04902,-0.00244 -2.2187688,1.3523556 h -8e-4 c -0.9459697,0.56512 -1.7294732,1.0314196 -1.7414213,1.0367276 -0.011944,0.0053 -0.025636,0.0048 -0.030468,-8e-4 -0.012846,-0.01504 -0.01071,-4.7860189 0.00236,-4.795335 z" />
  <metadata
     id="metadata5">
    <rdf:RDF>
      <cc:Work
         rdf:about="">
        <dc:creator>
          <cc:Agent>
            <dc:title>dreifacherspass</dc:title>
          </cc:Agent>
        </dc:creator>
        <cc:license
           rdf:resource="http://creativecommons.org/licenses/by-sa/4.0/" />
      </cc:Work>
      <cc:License
         rdf:about="http://creativecommons.org/licenses/by-sa/4.0/">
        <cc:permits
           rdf:resource="http://creativecommons.org/ns#Reproduction" />
        <cc:permits
           rdf:resource="http://creativecommons.org/ns#Distribution" />
        <cc:requires
           rdf:resource="http://creativecommons.org/ns#Notice" />
        <cc:requires
           rdf:resource="http://creativecommons.org/ns#Attribution" />
        <cc:permits
           rdf:resource="http://creativecommons.org/ns#DerivativeWorks" />
        <cc:requires
           rdf:resource="http://creativecommons.org/ns#ShareAlike" />
      </cc:License>
    </rdf:RDF>
  </metadata>
</svg>
