<?xml version="1.0" encoding="UTF-8" standalone="no"?>
<svg
   width="16"
   height="16"
   version="1"
   id="svg5"
   xmlns:xlink="http://www.w3.org/1999/xlink"
   xmlns="http://www.w3.org/2000/svg"
   xmlns:svg="http://www.w3.org/2000/svg"
   xmlns:rdf="http://www.w3.org/1999/02/22-rdf-syntax-ns#"
   xmlns:cc="http://creativecommons.org/ns#"
   xmlns:dc="http://purl.org/dc/elements/1.1/">
<defs>
   <style id="current-color-scheme" type="text/css">
   .ColorScheme-Text { color: #0abdc6; } .ColorScheme-Highlight { color:#5294e2; }
  </style>
  <linearGradient id="arrongin" x1="0%" x2="0%" y1="0%" y2="100%">
   <stop offset="0%" style="stop-color:#dd9b44; stop-opacity:1"/>
   <stop offset="100%" style="stop-color:#ad6c16; stop-opacity:1"/>
  </linearGradient>
  <linearGradient id="aurora" x1="0%" x2="0%" y1="0%" y2="100%">
   <stop offset="0%" style="stop-color:#09D4DF; stop-opacity:1"/>
   <stop offset="100%" style="stop-color:#9269F4; stop-opacity:1"/>
  </linearGradient>
  <linearGradient id="cyberneon" x1="0%" x2="0%" y1="0%" y2="100%">
    <stop offset="0" style="stop-color:#0abdc6; stop-opacity:1"/>
    <stop offset="1" style="stop-color:#ea00d9; stop-opacity:1"/>
  </linearGradient>
  <linearGradient id="fitdance" x1="0%" x2="0%" y1="0%" y2="100%">
   <stop offset="0%" style="stop-color:#1AD6AB; stop-opacity:1"/>
   <stop offset="100%" style="stop-color:#329DB6; stop-opacity:1"/>
  </linearGradient>
  <linearGradient id="oomox" x1="0%" x2="0%" y1="0%" y2="100%">
   <stop offset="0%" style="stop-color:#0abdc6; stop-opacity:1"/>
   <stop offset="100%" style="stop-color:#b800ff; stop-opacity:1"/>
  </linearGradient>
  <linearGradient id="rainblue" x1="0%" x2="0%" y1="0%" y2="100%">
   <stop offset="0%" style="stop-color:#00F260; stop-opacity:1"/>
   <stop offset="100%" style="stop-color:#0575E6; stop-opacity:1"/>
  </linearGradient>
  <linearGradient id="sunrise" x1="0%" x2="0%" y1="0%" y2="100%">
   <stop offset="0%" style="stop-color: #FF8501; stop-opacity:1"/>
   <stop offset="100%" style="stop-color: #FFCB01; stop-opacity:1"/>
  </linearGradient>
  <linearGradient id="telinkrin" x1="0%" x2="0%" y1="0%" y2="100%">
   <stop offset="0%" style="stop-color: #b2ced6; stop-opacity:1"/>
   <stop offset="100%" style="stop-color: #6da5b7; stop-opacity:1"/>
  </linearGradient>
  <linearGradient id="60spsycho" x1="0%" x2="0%" y1="0%" y2="100%">
   <stop offset="0%" style="stop-color: #df5940; stop-opacity:1"/>
   <stop offset="25%" style="stop-color: #d8d15f; stop-opacity:1"/>
   <stop offset="50%" style="stop-color: #e9882a; stop-opacity:1"/>
   <stop offset="100%" style="stop-color: #279362; stop-opacity:1"/>
  </linearGradient>
  <linearGradient id="90ssummer" x1="0%" x2="0%" y1="0%" y2="100%">
   <stop offset="0%" style="stop-color: #f618c7; stop-opacity:1"/>
   <stop offset="20%" style="stop-color: #94ffab; stop-opacity:1"/>
   <stop offset="50%" style="stop-color: #fbfd54; stop-opacity:1"/>
   <stop offset="100%" style="stop-color: #0f83ae; stop-opacity:1"/>
  </linearGradient>
 </defs>
  <path
     id="path2"
     style="fill:url(#oomox);stroke-width:0.400003"
     class="ColorScheme-Text"
     d="M 8.0024027,2.4 C 5.1360348,2.4 2.4708484,2.497519 1.881309,2.6246094 1.4863388,2.7097547 1.1740031,2.8710024 0.88912149,3.1363282 0.66245223,3.3474378 0.537357,3.5392083 0.40084023,3.8863282 0.2509394,4.2674935 0.1704203,4.626725 0.11568399,5.1675782 0.01130342,6.1992464 -0.00691733,6.7089686 0.00240273,8.2632813 c 0.00791206,1.3216911 0.0136473,1.4739805 0.08984375,2.3222657 0.06752037,0.751688 0.14157666,1.107151 0.32226563,1.554688 0.19762913,0.489511 0.47177894,0.794014 0.91210939,1.011719 0.2666055,0.131815 0.5030323,0.194582 0.984375,0.257812 0.6563716,0.08622 1.7284839,0.129425 4.3730469,0.179688 0.8704861,0.01655 1.9984883,0.01007 3.1152343,-0.0098 -0.020321,-0.116717 -0.035535,-0.23452 -0.042969,-0.355469 -0.1095504,-1.782467 1.2623153,-3.3436222 3.0449223,-3.4667971 0.05571,-0.0038 0.110796,-0.00682 0.166016,-0.00781 1.200351,-0.021461 2.275142,0.6270351 2.847656,1.6113281 0.0027,-0.01396 0.0072,-0.02701 0.0098,-0.04102 0.03893,-0.210387 0.09689,-0.798726 0.144531,-1.458984 0.04071,-0.5643992 0.04072,-3.1638384 0,-3.7285156 C 15.883447,4.9433421 15.827144,4.5415398 15.676231,4.0875 15.52977,3.6468488 15.405418,3.4297624 15.166466,3.1910156 14.861159,2.885973 14.547893,2.7165207 14.121544,2.6246094 13.532003,2.4975185 10.868771,2.4 8.0024027,2.4 Z M 6.4106058,5.5992188 c 0.019356,-0.013784 3.9902352,2.3827509 3.9902352,2.4082031 0,0.0272 0.04903,-0.00323 -2.2187508,1.3515625 h -0.00195 C 7.2341723,9.9241032 6.4518539,10.390785 6.4399058,10.396093 c -0.011944,0.0053 -0.026418,0.0036 -0.03125,-0.002 -0.012846,-0.01504 -0.011117,-4.7856051 0.00195,-4.7949212 z" />
  <path
     id="circle6"
     class="ColorScheme-Text"
     style="fill:url(#oomox);stroke-width:0.233769"
     d="m 13.000451,10.428324 a 2.5715864,2.5712834 0 0 0 -2.571586,2.571282 2.5715864,2.5712834 0 0 0 2.571586,2.571288 2.5715864,2.5712834 0 0 0 2.571585,-2.571288 2.5715864,2.5712834 0 0 0 -2.571585,-2.571282 z m -0.467103,0.935772 h 0.934205 v 1.168463 h 0.614439 l -1.081541,1.635511 h 1.168601 v 0.468723 H 11.83185 V 14.16807 h 1.168601 L 11.91891,12.532559 h 0.614438 z" />
  <metadata
     id="metadata5">
    <rdf:RDF>
      <cc:Work
         rdf:about="">
        <dc:creator>
          <cc:Agent>
            <dc:title>dreifacherspass</dc:title>
          </cc:Agent>
        </dc:creator>
        <cc:license
           rdf:resource="http://creativecommons.org/licenses/by-sa/4.0/" />
      </cc:Work>
      <cc:License
         rdf:about="http://creativecommons.org/licenses/by-sa/4.0/">
        <cc:permits
           rdf:resource="http://creativecommons.org/ns#Reproduction" />
        <cc:permits
           rdf:resource="http://creativecommons.org/ns#Distribution" />
        <cc:requires
           rdf:resource="http://creativecommons.org/ns#Notice" />
        <cc:requires
           rdf:resource="http://creativecommons.org/ns#Attribution" />
        <cc:permits
           rdf:resource="http://creativecommons.org/ns#DerivativeWorks" />
        <cc:requires
           rdf:resource="http://creativecommons.org/ns#ShareAlike" />
      </cc:License>
    </rdf:RDF>
  </metadata>
</svg>
