<?xml version="1.0" encoding="UTF-8" standalone="no"?>
<!-- Created with Inkscape (http://www.inkscape.org/) -->

<svg
   width="16"
   height="16"
   id="svg2980"
   version="1.1"
   xmlns:xlink="http://www.w3.org/1999/xlink"
   xmlns="http://www.w3.org/2000/svg"
   xmlns:svg="http://www.w3.org/2000/svg"
   xmlns:rdf="http://www.w3.org/1999/02/22-rdf-syntax-ns#"
   xmlns:cc="http://creativecommons.org/ns#"
   xmlns:dc="http://purl.org/dc/elements/1.1/">
   <defs>
      <style id="current-color-scheme" type="text/css">
         .ColorScheme-Text { color: #0abdc6; } .ColorScheme-Highlight { color:#5294e2; }
      </style>
      <linearGradient id="arrongin" x1="0%" x2="0%" y1="0%" y2="100%">
         <stop offset="0%" style="stop-color:#dd9b44; stop-opacity:1"/>
         <stop offset="100%" style="stop-color:#ad6c16; stop-opacity:1"/>
      </linearGradient>
      <linearGradient id="aurora" x1="0%" x2="0%" y1="0%" y2="100%">
         <stop offset="0%" style="stop-color:#09D4DF; stop-opacity:1"/>
         <stop offset="100%" style="stop-color:#9269F4; stop-opacity:1"/>
      </linearGradient>
      <linearGradient id="cyberneon" x1="0%" x2="0%" y1="0%" y2="100%">
         <stop offset="0" style="stop-color:#0abdc6; stop-opacity:1"/>
         <stop offset="1" style="stop-color:#ea00d9; stop-opacity:1"/>
      </linearGradient>
      <linearGradient id="fitdance" x1="0%" x2="0%" y1="0%" y2="100%">
         <stop offset="0%" style="stop-color:#1AD6AB; stop-opacity:1"/>
         <stop offset="100%" style="stop-color:#329DB6; stop-opacity:1"/>
      </linearGradient>
      <linearGradient id="oomox" x1="0%" x2="0%" y1="0%" y2="100%">
         <stop offset="0%" style="stop-color:#0abdc6; stop-opacity:1"/>
         <stop offset="100%" style="stop-color:#b800ff; stop-opacity:1"/>
      </linearGradient>
      <linearGradient id="rainblue" x1="0%" x2="0%" y1="0%" y2="100%">
         <stop offset="0%" style="stop-color:#00F260; stop-opacity:1"/>
         <stop offset="100%" style="stop-color:#0575E6; stop-opacity:1"/>
      </linearGradient>
      <linearGradient id="sunrise" x1="0%" x2="0%" y1="0%" y2="100%">
         <stop offset="0%" style="stop-color: #FF8501; stop-opacity:1"/>
         <stop offset="100%" style="stop-color: #FFCB01; stop-opacity:1"/>
      </linearGradient>
      <linearGradient id="telinkrin" x1="0%" x2="0%" y1="0%" y2="100%">
         <stop offset="0%" style="stop-color: #b2ced6; stop-opacity:1"/>
         <stop offset="100%" style="stop-color: #6da5b7; stop-opacity:1"/>
      </linearGradient>
      <linearGradient id="60spsycho" x1="0%" x2="0%" y1="0%" y2="100%">
         <stop offset="0%" style="stop-color: #df5940; stop-opacity:1"/>
         <stop offset="25%" style="stop-color: #d8d15f; stop-opacity:1"/>
         <stop offset="50%" style="stop-color: #e9882a; stop-opacity:1"/>
         <stop offset="100%" style="stop-color: #279362; stop-opacity:1"/>
      </linearGradient>
      <linearGradient id="90ssummer" x1="0%" x2="0%" y1="0%" y2="100%">
         <stop offset="0%" style="stop-color: #f618c7; stop-opacity:1"/>
         <stop offset="20%" style="stop-color: #94ffab; stop-opacity:1"/>
         <stop offset="50%" style="stop-color: #fbfd54; stop-opacity:1"/>
         <stop offset="100%" style="stop-color: #0f83ae; stop-opacity:1"/>
      </linearGradient>
   </defs>
  <metadata
     id="metadata4">
    <rdf:RDF>
      <cc:Work
         rdf:about="">
        <dc:format>image/svg+xml</dc:format>
        <dc:type
           rdf:resource="http://purl.org/dc/dcmitype/StillImage" />
        <dc:creator>
          <cc:Agent>
            <dc:title>dreifacherspass</dc:title>
          </cc:Agent>
        </dc:creator>
        <cc:license
           rdf:resource="http://creativecommons.org/licenses/by-sa/4.0/" />
      </cc:Work>
      <cc:License
         rdf:about="http://creativecommons.org/licenses/by-sa/4.0/">
        <cc:permits
           rdf:resource="http://creativecommons.org/ns#Reproduction" />
        <cc:permits
           rdf:resource="http://creativecommons.org/ns#Distribution" />
        <cc:requires
           rdf:resource="http://creativecommons.org/ns#Notice" />
        <cc:requires
           rdf:resource="http://creativecommons.org/ns#Attribution" />
        <cc:permits
           rdf:resource="http://creativecommons.org/ns#DerivativeWorks" />
        <cc:requires
           rdf:resource="http://creativecommons.org/ns#ShareAlike" />
      </cc:License>
    </rdf:RDF>
  </metadata>
  <path
     d="m 14.50657,7.0562858 c 0,0 1.406952,-0.8985311 1.285875,-2.1064817 -0.212463,-1.1662995 -1.416683,-1.4109023 -2.428265,-1.4399859 -0.934982,-0.027299 0.598658,3.5692529 0.598658,3.5692529 z"
     style="fill:url(#oomox);fill-opacity:1;fill-rule:nonzero;stroke:none;stroke-width:0.0514349"
     id="path218131"
     class="ColorScheme-Text"/>
  <path
     d="m 2.2851009,10.044607 c 0,0 -1.83851029,0.265526 -2.05830758,-1.2011256 C 0.00699604,7.3768298 1.2006823,7.0005365 1.8680585,5.6359263 2.5003487,4.1004021 2.2851009,10.044607 2.2851009,10.044607"
     style="fill:url(#oomox);fill-opacity:1;fill-rule:nonzero;stroke:none;stroke-width:0.0514349"
     id="path218132"
     class="ColorScheme-Text"/>
  <path
     id="path218133"
     class="ColorScheme-Text"
     style="fill:url(#oomox);fill-opacity:1;stroke-width:0.0514349"
     d="M 7.8810272,4.2406459e-8 C 4.201515,4.2406459e-8 1.2185997,3.1425045 1.2185997,7.0192561 c 0,1.2187631 0.2963468,2.3653388 0.8149217,3.3641659 1.1253674,4.147084 -2.43901472,4.841728 0.4629142,5.424775 2.5981941,0.522014 6.7621284,0.207105 10.1503574,-3.881724 1.210936,-1.461338 1.758079,-3.065832 1.896662,-4.9072169 C 14.543455,3.1425045 11.56054,4.2406459e-8 7.8810272,4.2406459e-8 Z M 8.7786264,1.4197843 c 2.4564686,0 4.4479146,2.059049 4.4479146,4.5988993 0,2.5398601 -1.991446,4.5988114 -4.4479146,4.5988114 -2.4564683,0 -4.4478133,-2.0589513 -4.4478133,-4.5988114 0,-2.5398503 1.991345,-4.5988993 4.4478133,-4.5988993 z" />
  <path
     d="m 7.6037652,5.7004894 c 0,-0.6709027 0.526049,-1.2147852 1.1749034,-1.2147852 0.6488539,0 1.1749034,0.5438825 1.1749034,1.2147852 0,0.6709125 -0.5260495,1.2147949 -1.1749034,1.2147949 -0.6488544,0 -1.1749034,-0.5438824 -1.1749034,-1.2147949"
     style="fill:url(#oomox);fill-opacity:1;fill-rule:nonzero;stroke:none;stroke-width:0.0284447"
     id="path218134"
     class="ColorScheme-Text"/>
  <path
     style="fill:url(#oomox);fill-opacity:1;fill-rule:nonzero;stroke:none;stroke-width:0.0514349"
     d="M 9.4478126,3.1462874 C 9.2279854,3.1753418 8.7849472,3.719078 8.5910999,3.9692382 c 0.061759,-0.00682 0.1244694,-0.00975 0.1880588,-0.00975 0.4182116,0 0.8001241,0.1569814 1.0945993,0.4179151 C 9.836092,4.024812 9.7270511,3.2380817 9.4992475,3.1509966 c -0.01523,-0.00585 -0.03246,-0.0078 -0.051435,-0.00487 z m 0.5159564,3.791714 c -0.304255,0.3113108 -0.7227675,0.503099 -1.1846103,0.503099 -0.058667,0 -0.1164712,-0.00195 -0.1735927,-0.0078 0.02414,0.031394 1.66104,2.1570637 1.761646,2.1120391 0.10962,-0.049139 -0.336461,-2.2757381 -0.403443,-2.6071043 z"
     id="path218135"
     class="ColorScheme-Text"/>
</svg>
