<?xml version="1.0" encoding="UTF-8" standalone="no"?>
<!-- Created with Inkscape (http://www.inkscape.org/) -->

<svg
   width="16"
   height="16"
   viewBox="0 0 16 16"
   version="1.1"
   id="svg1"
   xmlns:xlink="http://www.w3.org/1999/xlink"
   xmlns="http://www.w3.org/2000/svg"
   xmlns:svg="http://www.w3.org/2000/svg"
   xmlns:rdf="http://www.w3.org/1999/02/22-rdf-syntax-ns#"
   xmlns:cc="http://creativecommons.org/ns#"
   xmlns:dc="http://purl.org/dc/elements/1.1/">
  <defs>
   <style id="current-color-scheme" type="text/css">
   .ColorScheme-Text { color: #0abdc6; } .ColorScheme-Highlight { color:#5294e2; }
  </style>
  <linearGradient id="arrongin" x1="0%" x2="0%" y1="0%" y2="100%">
   <stop offset="0%" style="stop-color:#dd9b44; stop-opacity:1"/>
   <stop offset="100%" style="stop-color:#ad6c16; stop-opacity:1"/>
  </linearGradient>
  <linearGradient id="aurora" x1="0%" x2="0%" y1="0%" y2="100%">
   <stop offset="0%" style="stop-color:#09D4DF; stop-opacity:1"/>
   <stop offset="100%" style="stop-color:#9269F4; stop-opacity:1"/>
  </linearGradient>
  <linearGradient id="cyberneon" x1="0%" x2="0%" y1="0%" y2="100%">
    <stop offset="0" style="stop-color:#0abdc6; stop-opacity:1"/>
    <stop offset="1" style="stop-color:#ea00d9; stop-opacity:1"/>
  </linearGradient>
  <linearGradient id="fitdance" x1="0%" x2="0%" y1="0%" y2="100%">
   <stop offset="0%" style="stop-color:#1AD6AB; stop-opacity:1"/>
   <stop offset="100%" style="stop-color:#329DB6; stop-opacity:1"/>
  </linearGradient>
  <linearGradient id="oomox" x1="0%" x2="0%" y1="0%" y2="100%">
   <stop offset="0%" style="stop-color:#0abdc6; stop-opacity:1"/>
   <stop offset="100%" style="stop-color:#b800ff; stop-opacity:1"/>
  </linearGradient>
  <linearGradient id="rainblue" x1="0%" x2="0%" y1="0%" y2="100%">
   <stop offset="0%" style="stop-color:#00F260; stop-opacity:1"/>
   <stop offset="100%" style="stop-color:#0575E6; stop-opacity:1"/>
  </linearGradient>
  <linearGradient id="sunrise" x1="0%" x2="0%" y1="0%" y2="100%">
   <stop offset="0%" style="stop-color: #FF8501; stop-opacity:1"/>
   <stop offset="100%" style="stop-color: #FFCB01; stop-opacity:1"/>
  </linearGradient>
  <linearGradient id="telinkrin" x1="0%" x2="0%" y1="0%" y2="100%">
   <stop offset="0%" style="stop-color: #b2ced6; stop-opacity:1"/>
   <stop offset="100%" style="stop-color: #6da5b7; stop-opacity:1"/>
  </linearGradient>
  <linearGradient id="60spsycho" x1="0%" x2="0%" y1="0%" y2="100%">
   <stop offset="0%" style="stop-color: #df5940; stop-opacity:1"/>
   <stop offset="25%" style="stop-color: #d8d15f; stop-opacity:1"/>
   <stop offset="50%" style="stop-color: #e9882a; stop-opacity:1"/>
   <stop offset="100%" style="stop-color: #279362; stop-opacity:1"/>
  </linearGradient>
  <linearGradient id="90ssummer" x1="0%" x2="0%" y1="0%" y2="100%">
   <stop offset="0%" style="stop-color: #f618c7; stop-opacity:1"/>
   <stop offset="20%" style="stop-color: #94ffab; stop-opacity:1"/>
   <stop offset="50%" style="stop-color: #fbfd54; stop-opacity:1"/>
   <stop offset="100%" style="stop-color: #0f83ae; stop-opacity:1"/>
  </linearGradient>
 </defs>
  <path
     style="opacity:1;fill:url(#oomox);stroke-width:1.23617;stroke-linejoin:round"
     d="M 3.7094115,4.3765019 3.5527469,5.1952003 1.0865443,10.804801 H 2.5571692 L 2.4106121,11.623498 H 1.1e-7 L 0.15666463,10.804801 2.6228673,5.1952003 H 1.1522423 L 1.2987994,4.3765019 Z M 3.3455454,9.0107392 H 4.1844586 L 3.9115591,10.562223 v 0.02527 q 0,0.08591 0.060644,0.15161 0.060644,0.0657 0.146557,0.0657 H 4.5837 q 0.1111813,0 0.2021478,-0.07076 0.09602,-0.07581 0.1162349,-0.181933 L 5.0840161,9.5312697 q 0.010108,-0.045483 0.010108,-0.096021 0,-0.2021477 -0.181933,-0.5255841 Q 4.8363851,8.7732157 4.4826265,8.1111817 4.0884384,7.3682887 4.027794,7.2520538 3.8357537,6.8730267 3.8357537,6.5091608 q 0,-0.020214 0,-0.045483 0,-0.085913 0.015161,-0.1768792 L 4.0682236,5.0334821 Q 4.1187605,4.7504753 4.3512305,4.5634886 4.573593,4.3765019 4.8616535,4.3765019 h 1.2128866 q 0.2627921,0 0.4548325,0.1920404 0.197094,0.1920404 0.197094,0.4750472 0,0.065698 -0.010108,0.1061276 L 6.3979765,6.9286174 H 5.5489559 L 5.8168016,5.432724 q 0.010108,-0.015161 0.010108,-0.04043 0,-0.075805 -0.065698,-0.1415035 -0.065698,-0.055591 -0.1516109,-0.055591 H 5.1446604 q -0.1111813,0 -0.197094,0.070752 -0.085913,0.065698 -0.1061277,0.1667721 l -0.146557,0.8035373 q -0.015161,0.090966 -0.015161,0.1869867 0,0.3537585 0.23247,0.7327855 0.8641816,1.4099806 0.9046111,1.5969674 0.1313961,0.2425773 0.1313961,0.5306378 -0.00506,0.1313961 -0.030322,0.2779531 L 5.6601372,10.961465 q -0.050537,0.283007 -0.2779531,0.475048 -0.2274163,0.186985 -0.5205306,0.186985 H 3.6538207 q -0.2678458,0 -0.4497787,-0.19204 -0.1768793,-0.19204 -0.1768793,-0.469993 V 10.84523 Z M 6.1301305,11.623498 7.4440909,4.3765019 H 8.31838 Q 8.7125681,8.2981684 8.7125681,9.9102968 8.7631051,8.485155 9.5009443,4.3765019 H 10.375233 L 9.061273,11.623498 H 8.1869839 Q 7.7978494,7.7169936 7.7978494,6.2211002 7.7473125,7.4744163 7.0094733,11.623498 Z M 10.981678,4.3765019 h 1.965887 L 12.806061,5.185093 h -1.091598 l -0.409349,2.2994307 h 1.086544 l -0.151611,0.808591 h -1.08149 l -0.449779,2.5217923 h 1.071383 l -0.146557,0.808591 H 9.6677167 Z m 1.637396,4.6342373 h 0.838913 l -0.272899,1.5514838 v 0.02527 q 0,0.08591 0.06064,0.15161 0.06064,0.0657 0.146557,0.0657 h 0.464939 q 0.111182,0 0.202148,-0.07076 0.09602,-0.07581 0.116235,-0.181933 l 0.181934,-1.0208462 q 0.01011,-0.045483 0.01011,-0.09602 0,-0.2021478 -0.181933,-0.5255842 -0.07581,-0.1364454 -0.429567,-0.7984794 -0.394188,-0.742893 -0.454832,-0.8591279 -0.19204,-0.3790271 -0.19204,-0.742893 0,-0.020214 0,-0.045483 0,-0.085913 0.01517,-0.1768792 l 0.217308,-1.2533148 q 0.05053,-0.2830068 0.283007,-0.4699935 0.222363,-0.1869867 0.510423,-0.1869867 h 1.212887 q 0.262792,0 0.454832,0.1920404 Q 16,4.7605828 16,5.0435897 16,5.1092877 15.98989,5.1497173 L 15.671505,6.9286174 H 14.822484 L 15.09033,5.432724 q 0.01011,-0.015161 0.01011,-0.04043 0,-0.075805 -0.0657,-0.1415035 -0.0657,-0.055591 -0.151612,-0.055591 h -0.464939 q -0.111181,0 -0.197094,0.070752 -0.08591,0.065698 -0.106128,0.1667719 l -0.146555,0.8035377 q -0.01517,0.090966 -0.01517,0.1869867 0,0.3537585 0.23247,0.7327856 0.864182,1.4099806 0.904612,1.5969673 0.131395,0.2425773 0.131395,0.5306378 -0.005,0.1313961 -0.03032,0.2779531 l -0.257738,1.3998734 q -0.05053,0.283006 -0.277953,0.475047 -0.227417,0.186986 -0.520531,0.186986 h -1.207833 q -0.267845,0 -0.449778,-0.19204 -0.176879,-0.19204 -0.176879,-0.469993 V 10.84523 Z"
     id="text1"
     class="ColorScheme-Text"/>
  <metadata
     id="metadata1">
    <rdf:RDF>
      <cc:Work
         rdf:about="">
        <dc:creator>
          <cc:Agent>
            <dc:title>dreifacherspass</dc:title>
          </cc:Agent>
        </dc:creator>
        <cc:license
           rdf:resource="http://creativecommons.org/licenses/by-sa/4.0/" />
      </cc:Work>
      <cc:License
         rdf:about="http://creativecommons.org/licenses/by-sa/4.0/">
        <cc:permits
           rdf:resource="http://creativecommons.org/ns#Reproduction" />
        <cc:permits
           rdf:resource="http://creativecommons.org/ns#Distribution" />
        <cc:requires
           rdf:resource="http://creativecommons.org/ns#Notice" />
        <cc:requires
           rdf:resource="http://creativecommons.org/ns#Attribution" />
        <cc:permits
           rdf:resource="http://creativecommons.org/ns#DerivativeWorks" />
        <cc:requires
           rdf:resource="http://creativecommons.org/ns#ShareAlike" />
      </cc:License>
    </rdf:RDF>
  </metadata>
</svg>
