<?xml version="1.0" encoding="UTF-8" standalone="no"?>
<svg
   width="16"
   height="16"
   version="1.1"
   id="svg24"
   xmlns="http://www.w3.org/2000/svg"
   xmlns:svg="http://www.w3.org/2000/svg"
   xmlns:rdf="http://www.w3.org/1999/02/22-rdf-syntax-ns#"
   xmlns:cc="http://creativecommons.org/ns#"
   xmlns:dc="http://purl.org/dc/elements/1.1/">
   <defs>
      <style id="current-color-scheme" type="text/css">
         .ColorScheme-Text { color: #0abdc6; } .ColorScheme-Highlight { color:#5294e2; }
      </style>
      <linearGradient id="arrongin" x1="0%" x2="0%" y1="0%" y2="100%">
         <stop offset="0%" style="stop-color:#dd9b44; stop-opacity:1"/>
         <stop offset="100%" style="stop-color:#ad6c16; stop-opacity:1"/>
      </linearGradient>
      <linearGradient id="aurora" x1="0%" x2="0%" y1="0%" y2="100%">
         <stop offset="0%" style="stop-color:#09D4DF; stop-opacity:1"/>
         <stop offset="100%" style="stop-color:#9269F4; stop-opacity:1"/>
      </linearGradient>
      <linearGradient id="cyberneon" x1="0%" x2="0%" y1="0%" y2="100%">
         <stop offset="0" style="stop-color:#0abdc6; stop-opacity:1"/>
         <stop offset="1" style="stop-color:#ea00d9; stop-opacity:1"/>
      </linearGradient>
      <linearGradient id="fitdance" x1="0%" x2="0%" y1="0%" y2="100%">
         <stop offset="0%" style="stop-color:#1AD6AB; stop-opacity:1"/>
         <stop offset="100%" style="stop-color:#329DB6; stop-opacity:1"/>
      </linearGradient>
      <linearGradient id="oomox" x1="0%" x2="0%" y1="0%" y2="100%">
         <stop offset="0%" style="stop-color:#0abdc6; stop-opacity:1"/>
         <stop offset="100%" style="stop-color:#b800ff; stop-opacity:1"/>
      </linearGradient>
      <linearGradient id="rainblue" x1="0%" x2="0%" y1="0%" y2="100%">
         <stop offset="0%" style="stop-color:#00F260; stop-opacity:1"/>
         <stop offset="100%" style="stop-color:#0575E6; stop-opacity:1"/>
      </linearGradient>
      <linearGradient id="sunrise" x1="0%" x2="0%" y1="0%" y2="100%">
         <stop offset="0%" style="stop-color: #FF8501; stop-opacity:1"/>
         <stop offset="100%" style="stop-color: #FFCB01; stop-opacity:1"/>
      </linearGradient>
      <linearGradient id="telinkrin" x1="0%" x2="0%" y1="0%" y2="100%">
         <stop offset="0%" style="stop-color: #b2ced6; stop-opacity:1"/>
         <stop offset="100%" style="stop-color: #6da5b7; stop-opacity:1"/>
      </linearGradient>
      <linearGradient id="60spsycho" x1="0%" x2="0%" y1="0%" y2="100%">
         <stop offset="0%" style="stop-color: #df5940; stop-opacity:1"/>
         <stop offset="25%" style="stop-color: #d8d15f; stop-opacity:1"/>
         <stop offset="50%" style="stop-color: #e9882a; stop-opacity:1"/>
         <stop offset="100%" style="stop-color: #279362; stop-opacity:1"/>
      </linearGradient>
      <linearGradient id="90ssummer" x1="0%" x2="0%" y1="0%" y2="100%">
         <stop offset="0%" style="stop-color: #f618c7; stop-opacity:1"/>
         <stop offset="20%" style="stop-color: #94ffab; stop-opacity:1"/>
         <stop offset="50%" style="stop-color: #fbfd54; stop-opacity:1"/>
         <stop offset="100%" style="stop-color: #0f83ae; stop-opacity:1"/>
      </linearGradient>
   </defs>
  <path
     id="path28"
     class="ColorScheme-Text"
     style="fill:url(#oomox);fill-rule:evenodd"
     d="M 4 4 L 4 12 L 6.6679688 12 L 6.6679688 4 L 4 4 z M 9.3320312 4 L 9.3320312 12 L 12 12 L 12 4 L 9.3320312 4 z " />
  <path
     d="M 5.5351562,0.53320312 C 0.69216109,0.53320313 0,1.2235048 0,6.0625 v 3.875 c 0,4.837995 0.69216109,5.529297 5.5351562,5.529297 H 10.464844 C 15.307839,15.466797 16,14.775495 16,9.9375 V 6.0625 C 16,1.2235048 15.307839,0.53320312 10.464844,0.53320312 Z m -0.00586,1.49609378 h 4.9414061 c 0.52,0 1.028829,0.011016 1.548828,0.041016 0.37,0.02 0.729844,0.059141 1.089844,0.1191406 0.22,0.04 0.43086,0.1014064 0.630859,0.1914063 0.09,0.04 0.18,0.098203 0.25,0.1582031 0.07,0.08 0.120157,0.1600001 0.160157,0.25 0.09,0.1999998 0.149453,0.4108596 0.189453,0.6308594 0.06,0.3599996 0.101094,0.7198441 0.121094,1.0898437 0.03,0.5199995 0.03906,1.0307818 0.03906,1.5507813 v 3.8789062 0.00977 c 0,0.5099992 -0.0091,1.0210162 -0.03906,1.5410152 -0.02,0.37 -0.06109,0.729844 -0.121094,1.089844 -0.04,0.22 -0.09945,0.43086 -0.189453,0.63086 -0.04,0.09 -0.09016,0.17 -0.160157,0.25 -0.07,0.06 -0.16,0.118203 -0.25,0.158203 -0.199999,0.09 -0.410859,0.151406 -0.630859,0.191406 -0.36,0.06 -0.719844,0.09914 -1.089844,0.119141 -0.519999,0.03 -1.028828,0.04101 -1.548828,0.04101 H 5.5292969 c -0.5199995,0 -1.0288287,-0.01102 -1.5488281,-0.04101 -0.3699997,-0.02 -0.7298442,-0.05914 -1.0898438,-0.119141 -0.2199998,-0.04 -0.4308596,-0.101406 -0.6308594,-0.191406 -0.09,-0.04 -0.18,-0.0982 -0.25,-0.158203 -0.07,-0.08 -0.1201563,-0.160001 -0.1601562,-0.25 -0.09,-0.2 -0.1494532,-0.41086 -0.1894532,-0.63086 -0.06,-0.36 -0.1010937,-0.719844 -0.1210937,-1.089844 C 1.5090625,10.970235 1.5,10.459218 1.5,9.9492188 v -0.00977 -3.8789062 c 0,-0.5199995 0.00906,-1.0307818 0.039063,-1.5507813 0.02,-0.3699996 0.061094,-0.7298441 0.1210937,-1.0898437 0.04,-0.2199998 0.099453,-0.4308596 0.1894532,-0.6308594 0.04,-0.09 0.090156,-0.1700001 0.1601562,-0.25 0.07,-0.06 0.1600001,-0.1182032 0.25,-0.1582031 0.1999998,-0.09 0.4108596,-0.1514063 0.6308594,-0.1914063 0.3599996,-0.06 0.7198441,-0.099141 1.0898438,-0.1191406 0.5199994,-0.03 1.0288286,-0.041016 1.5488281,-0.041016 z"
     style="fill:url(#oomox);fill-rule:evenodd"
     id="path25"
     class="ColorScheme-Text"/>
  <metadata
     id="metadata28">
    <rdf:RDF>
      <cc:Work
         rdf:about="">
        <dc:creator>
          <cc:Agent>
            <dc:title>dreifacherspass</dc:title>
          </cc:Agent>
        </dc:creator>
        <cc:license
           rdf:resource="http://creativecommons.org/licenses/by-sa/4.0/" />
      </cc:Work>
      <cc:License
         rdf:about="http://creativecommons.org/licenses/by-sa/4.0/">
        <cc:permits
           rdf:resource="http://creativecommons.org/ns#Reproduction" />
        <cc:permits
           rdf:resource="http://creativecommons.org/ns#Distribution" />
        <cc:requires
           rdf:resource="http://creativecommons.org/ns#Notice" />
        <cc:requires
           rdf:resource="http://creativecommons.org/ns#Attribution" />
        <cc:permits
           rdf:resource="http://creativecommons.org/ns#DerivativeWorks" />
        <cc:requires
           rdf:resource="http://creativecommons.org/ns#ShareAlike" />
      </cc:License>
    </rdf:RDF>
  </metadata>
</svg>
