<?xml version="1.0" encoding="UTF-8" standalone="no"?>
<svg
   width="16"
   height="16"
   version="1.1"
   id="svg28"
   xmlns:xlink="http://www.w3.org/1999/xlink"
   xmlns="http://www.w3.org/2000/svg"
   xmlns:svg="http://www.w3.org/2000/svg"
   xmlns:rdf="http://www.w3.org/1999/02/22-rdf-syntax-ns#"
   xmlns:cc="http://creativecommons.org/ns#"
   xmlns:dc="http://purl.org/dc/elements/1.1/">
   <defs>
      <style id="current-color-scheme" type="text/css">
         .ColorScheme-Text { color: #0abdc6; } .ColorScheme-Highlight { color:#5294e2; }
      </style>
      <linearGradient id="arrongin" x1="0%" x2="0%" y1="0%" y2="100%">
         <stop offset="0%" style="stop-color:#dd9b44; stop-opacity:1"/>
         <stop offset="100%" style="stop-color:#ad6c16; stop-opacity:1"/>
      </linearGradient>
      <linearGradient id="aurora" x1="0%" x2="0%" y1="0%" y2="100%">
         <stop offset="0%" style="stop-color:#09D4DF; stop-opacity:1"/>
         <stop offset="100%" style="stop-color:#9269F4; stop-opacity:1"/>
      </linearGradient>
      <linearGradient id="cyberneon" x1="0%" x2="0%" y1="0%" y2="100%">
         <stop offset="0" style="stop-color:#0abdc6; stop-opacity:1"/>
         <stop offset="1" style="stop-color:#ea00d9; stop-opacity:1"/>
      </linearGradient>
      <linearGradient id="fitdance" x1="0%" x2="0%" y1="0%" y2="100%">
         <stop offset="0%" style="stop-color:#1AD6AB; stop-opacity:1"/>
         <stop offset="100%" style="stop-color:#329DB6; stop-opacity:1"/>
      </linearGradient>
      <linearGradient id="oomox" x1="0%" x2="0%" y1="0%" y2="100%">
         <stop offset="0%" style="stop-color:#0abdc6; stop-opacity:1"/>
         <stop offset="100%" style="stop-color:#b800ff; stop-opacity:1"/>
      </linearGradient>
      <linearGradient id="rainblue" x1="0%" x2="0%" y1="0%" y2="100%">
         <stop offset="0%" style="stop-color:#00F260; stop-opacity:1"/>
         <stop offset="100%" style="stop-color:#0575E6; stop-opacity:1"/>
      </linearGradient>
      <linearGradient id="sunrise" x1="0%" x2="0%" y1="0%" y2="100%">
         <stop offset="0%" style="stop-color: #FF8501; stop-opacity:1"/>
         <stop offset="100%" style="stop-color: #FFCB01; stop-opacity:1"/>
      </linearGradient>
      <linearGradient id="telinkrin" x1="0%" x2="0%" y1="0%" y2="100%">
         <stop offset="0%" style="stop-color: #b2ced6; stop-opacity:1"/>
         <stop offset="100%" style="stop-color: #6da5b7; stop-opacity:1"/>
      </linearGradient>
      <linearGradient id="60spsycho" x1="0%" x2="0%" y1="0%" y2="100%">
         <stop offset="0%" style="stop-color: #df5940; stop-opacity:1"/>
         <stop offset="25%" style="stop-color: #d8d15f; stop-opacity:1"/>
         <stop offset="50%" style="stop-color: #e9882a; stop-opacity:1"/>
         <stop offset="100%" style="stop-color: #279362; stop-opacity:1"/>
      </linearGradient>
      <linearGradient id="90ssummer" x1="0%" x2="0%" y1="0%" y2="100%">
         <stop offset="0%" style="stop-color: #f618c7; stop-opacity:1"/>
         <stop offset="20%" style="stop-color: #94ffab; stop-opacity:1"/>
         <stop offset="50%" style="stop-color: #fbfd54; stop-opacity:1"/>
         <stop offset="100%" style="stop-color: #0f83ae; stop-opacity:1"/>
      </linearGradient>
   </defs>
  <path
     class="ColorScheme-Text"
     fill-rule="evenodd"
     d="m 12.316,1.297 -1,0.021 c 0.02,0.936 -0.075,1.85 -0.22,2.75 0.13,-0.037 0.263,-0.064 0.404,-0.064 0.214,0 0.416,0.048 0.602,0.13 0.143,-0.928 0.234,-1.871 0.214,-2.837 z M 4.383,1.559 C 4.2687951,2.9325553 4.2400731,4.3118811 4.297,5.689 4.508,5.575 4.745,5.504 5,5.504 5.101,5.504 5.2,5.516 5.297,5.535 5.247,4.276 5.267,2.979 5.379,1.643 Z M 0.516,3.406 0.5,3.428 V 4.619 C 1.4504604,5.2992068 2.4167254,5.957054 3.398,6.592 2.3862445,7.0101772 1.4159866,7.5224252 0.5,8.122 V 9.291 L 0.516,9.313 C 1.4868836,8.6271111 2.5317741,8.0525052 3.631,7.6 3.5454614,7.4114921 3.5008152,7.2070058 3.5,7 3.5,6.523 3.733,6.099 4.086,5.824 2.8739281,5.051078 1.6834726,4.2447695 0.516,3.406 Z M 15.912,4.629 C 14.871609,4.65222 13.831755,4.695228 12.793,4.758 12.921,4.978 13,5.229 13,5.5 13,5.585 12.988,5.667 12.975,5.748 13.960542,5.690418 14.947032,5.650411 15.934,5.628 Z M 10.098,4.986 C 8.631,5.153 7.211,5.401 5.848,5.77 6.146,5.976 6.364,6.288 6.453,6.648 7.619,6.354 8.835,6.148 10.093,6 10.032987,5.8400577 10.001509,5.670824 10,5.5 10,5.32 10.038,5.147 10.098,4.986 Z M 11.5,5.004 C 11.223113,4.9983266 10.996551,5.2230765 11,5.5 c -0.0065,0.3865911 0.416352,0.6280573 0.746,0.426 0.01,-0.036 0.022,-0.07 0.031,-0.106 0.034,-0.003 0.07,-0.003 0.104,-0.006 0.276721,-0.3207475 0.04355,-0.8177736 -0.38,-0.81 z M 5,6.504 C 4.7231131,6.4983266 4.4965507,6.7230765 4.5,7 4.4965507,7.2769235 4.7231131,7.5016734 5,7.496 5.2768869,7.5016734 5.5034493,7.2769235 5.5,7 5.5034493,6.7230765 5.2768869,6.4983266 5,6.504 Z m 5.498,0.1 C 10.346,7.077 10.175,7.544 9.986,8.002 L 10,8 c 0.351,0 0.673,0.127 0.93,0.332 C 11.11,7.891 11.274,7.444 11.422,6.988 11.078818,6.9700613 10.752386,6.8340481 10.498,6.603 Z M 6.477,7.23 C 6.4222262,7.5719887 6.2500253,7.8842134 5.99,8.113 6.81,8.558 7.651,8.971 8.516,9.342 8.553,8.989 8.708,8.671 8.949,8.434 8.1067703,8.0712282 7.2818782,7.6694603 6.477,7.23 Z M 5.586,8.373 C 5.405,8.451 5.208,8.496 5,8.496 4.843,8.496 4.695,8.463 4.553,8.418 4.687,9.241 4.878,10.034 5.119,10.797 5.368,10.615 5.671,10.504 6,10.504 c 0.027,0 0.052,0.006 0.078,0.008 C 5.865534,9.8110219 5.7011521,9.0963617 5.586,8.373 Z M 10,9 C 9.7231131,8.99433 9.4965507,9.2190765 9.5,9.496 c 0,0.207 0.12,0.38 0.299,0.455 0.019,-0.02 0.041,-0.037 0.06,-0.058 0.08,0.029 0.164,0.051 0.245,0.08 C 10.334308,9.9312414 10.501327,9.7300598 10.5,9.496 10.503449,9.2190765 10.276887,8.9943266 10,9 Z M 8.531,9.797 c -0.48,0.419 -1.009,0.775 -1.57,1.066 0.26,0.22 0.445,0.519 0.51,0.864 C 8.039639,11.42762 8.574388,11.06788 9.066,10.654 8.793685,10.439014 8.6045609,10.136062 8.531,9.797 Z M 6,11.504 C 5.7231131,11.498327 5.4965507,11.723077 5.5,12 5.4965507,12.276923 5.7231131,12.501673 6,12.496 6.2768869,12.501673 6.5034493,12.276923 6.5,12 6.5034493,11.723077 6.2768869,11.498327 6,11.504 Z m -1.473,0.24 C 4.382,11.781 4.234,11.832 4.092,11.861 3.164,12.052 2.298,12.123 1.635,12.119 1.3610682,12.119272 1.0874357,12.100896 0.816,12.064 0.612,12.034 0.469,11.97 0.512,11.996 L 0.5,12.016 v 1.007 c 0.056,0.01 0.107,0.022 0.17,0.032 0.268,0.04 0.59,0.062 0.959,0.064 0.738,0.004 1.664,-0.072 2.664,-0.277 0.133,-0.028 0.274,-0.077 0.41,-0.11 C 4.572151,12.510092 4.5021304,12.257604 4.5,12 c 0,-0.088 0.013,-0.173 0.027,-0.256 z m 2.618,1.207 c -0.2222087,0.269076 -0.5312811,0.452256 -0.874,0.518 0.236,0.402 0.49,0.792 0.776,1.162 l 0.79,-0.613 C 7.5807894,13.679567 7.3495136,13.322961 7.145,12.951 Z"
     id="path25"
     style="fill:url(#oomox);opacity:0.5" />
  <path
     id="path24"
     class="ColorScheme-Text"
     d="M 3.9941406,1 C 2.7361419,1.015 1.8154992,0.96976604 1.0625,1.3847656 0.67314739,1.6069147 0.37598639,1.9608757 0.22460938,2.3828125 0.05960954,2.8208121 0,3.3430007 0,4 v 8 c 0,0.657999 0.05960954,1.179188 0.22460938,1.617188 0.16399983,0.438999 0.461891,0.790047 0.83789062,0.998046 C 1.8154992,15.031234 2.7361419,14.985 3.9941406,15 H 9.3984375 C 9.4706106,14.858353 9.5615809,14.729435 9.671875,14.619141 L 10.291016,14 H 4 C 2.7410013,13.985 1.9099215,13.940281 1.5449219,13.738281 1.3619221,13.638281 1.2581562,13.525625 1.1601562,13.265625 1.0631563,13.005625 1,12.591999 1,12 V 4 C 1,3.4080006 1.0631563,2.9943747 1.1601562,2.734375 1.2581562,2.4743753 1.3619221,2.3627186 1.5449219,2.2617188 1.9109215,2.059719 2.7410013,2.015 4,2 h 8 c 1.258999,0.015 2.087125,0.059719 2.453125,0.2617188 0.184,0.1 0.289719,0.2126565 0.386719,0.4726562 C 14.936844,2.9943747 15,3.4080006 15,4 v 5.3984375 c 0.239561,-0.1220635 0.516476,-0.1875 0.806641,-0.1875 H 16 V 4 C 16,3.3420007 15.94039,2.8208121 15.775391,2.3828125 15.624014,1.9608756 15.326853,1.6069146 14.9375,1.3847656 14.184501,0.96876604 13.263858,1.015 12.005859,1 H 3.9980469 Z"
     style="fill:url(#oomox);opacity:1" />
  <ellipse
     style="fill:url(#oomox);opacity:1"
     class="ColorScheme-Text"
     cx="6"
     cy="12"
     rx="1"
     ry=".996"
     id="ellipse25" />
  <ellipse
     class="ColorScheme-Text"
     cx="5"
     cy="7"
     rx="1"
     ry=".996"
     id="ellipse26"
     style="fill:url(#oomox);opacity:1"/>
  <ellipse
     class="ColorScheme-Text"
     cx="11.5"
     cy="5.5"
     rx="1"
     ry=".996"
     id="ellipse27"
     style="fill:url(#oomox);opacity:1"/>
  <ellipse
     class="ColorScheme-Text"
     cx="10"
     cy="9.496"
     rx="1"
     ry=".996"
     id="ellipse28"
     style="fill:url(#oomox);opacity:1"/>
  <path
     class="ColorScheme-Text"
     d="m 11,11 v 1 c 0,0.28 0.1,0.54 0.281,0.72 l 0.782,0.78 -0.782,0.78 C 11.1,14.46 11,14.72 11,15 v 1 h 1 c 0.276,0 0.538,-0.1 0.719,-0.28 l 0.781,-0.78 0.781,0.78 C 14.462,15.9 14.724,16 15,16 h 1 v -1 c 0,-0.28 -0.1,-0.54 -0.281,-0.72 L 14.938,13.5 15.719,12.72 C 15.9,12.54 16,12.28 16,12 v -1 h -1 c -0.276,0 -0.538,0.1 -0.719,0.28 L 13.5,12.06 12.719,11.28 C 12.538,11.1 12.276,11 12,11 Z"
     id="path25-5"
     style="fill:url(#oomox);opacity:1" />
  <metadata
     id="metadata1">
    <rdf:RDF>
      <cc:License
         rdf:about="http://creativecommons.org/licenses/by-sa/4.0/">
        <cc:permits
           rdf:resource="http://creativecommons.org/ns#Reproduction" />
        <cc:permits
           rdf:resource="http://creativecommons.org/ns#Distribution" />
        <cc:requires
           rdf:resource="http://creativecommons.org/ns#Notice" />
        <cc:requires
           rdf:resource="http://creativecommons.org/ns#Attribution" />
        <cc:permits
           rdf:resource="http://creativecommons.org/ns#DerivativeWorks" />
        <cc:requires
           rdf:resource="http://creativecommons.org/ns#ShareAlike" />
      </cc:License>
      <cc:Work
         rdf:about="">
        <cc:license
           rdf:resource="http://creativecommons.org/licenses/by-sa/4.0/" />
        <dc:creator>
          <cc:Agent>
            <dc:title>dreifacherspass</dc:title>
          </cc:Agent>
        </dc:creator>
      </cc:Work>
    </rdf:RDF>
  </metadata>
</svg>
