<?xml version="1.0" encoding="UTF-8" standalone="no"?>
<svg
   viewBox="0 0 16 16"
   version="1.1"
   id="svg5"
   width="16"
   height="16"
   xmlns="http://www.w3.org/2000/svg"
   xmlns:svg="http://www.w3.org/2000/svg"
   xmlns:rdf="http://www.w3.org/1999/02/22-rdf-syntax-ns#"
   xmlns:cc="http://creativecommons.org/ns#"
   xmlns:dc="http://purl.org/dc/elements/1.1/">
   <defs>
      <style id="current-color-scheme" type="text/css">
         .ColorScheme-Text { color: #0abdc6; } .ColorScheme-Highlight { color:#5294e2; }
      </style>
      <linearGradient id="arrongin" x1="0%" x2="0%" y1="0%" y2="100%">
         <stop offset="0%" style="stop-color:#dd9b44; stop-opacity:1"/>
         <stop offset="100%" style="stop-color:#ad6c16; stop-opacity:1"/>
      </linearGradient>
      <linearGradient id="aurora" x1="0%" x2="0%" y1="0%" y2="100%">
         <stop offset="0%" style="stop-color:#09D4DF; stop-opacity:1"/>
         <stop offset="100%" style="stop-color:#9269F4; stop-opacity:1"/>
      </linearGradient>
      <linearGradient id="cyberneon" x1="0%" x2="0%" y1="0%" y2="100%">
         <stop offset="0" style="stop-color:#0abdc6; stop-opacity:1"/>
         <stop offset="1" style="stop-color:#ea00d9; stop-opacity:1"/>
      </linearGradient>
      <linearGradient id="fitdance" x1="0%" x2="0%" y1="0%" y2="100%">
         <stop offset="0%" style="stop-color:#1AD6AB; stop-opacity:1"/>
         <stop offset="100%" style="stop-color:#329DB6; stop-opacity:1"/>
      </linearGradient>
      <linearGradient id="oomox" x1="0%" x2="0%" y1="0%" y2="100%">
         <stop offset="0%" style="stop-color:#0abdc6; stop-opacity:1"/>
         <stop offset="100%" style="stop-color:#b800ff; stop-opacity:1"/>
      </linearGradient>
      <linearGradient id="rainblue" x1="0%" x2="0%" y1="0%" y2="100%">
         <stop offset="0%" style="stop-color:#00F260; stop-opacity:1"/>
         <stop offset="100%" style="stop-color:#0575E6; stop-opacity:1"/>
      </linearGradient>
      <linearGradient id="sunrise" x1="0%" x2="0%" y1="0%" y2="100%">
         <stop offset="0%" style="stop-color: #FF8501; stop-opacity:1"/>
         <stop offset="100%" style="stop-color: #FFCB01; stop-opacity:1"/>
      </linearGradient>
      <linearGradient id="telinkrin" x1="0%" x2="0%" y1="0%" y2="100%">
         <stop offset="0%" style="stop-color: #b2ced6; stop-opacity:1"/>
         <stop offset="100%" style="stop-color: #6da5b7; stop-opacity:1"/>
      </linearGradient>
      <linearGradient id="60spsycho" x1="0%" x2="0%" y1="0%" y2="100%">
         <stop offset="0%" style="stop-color: #df5940; stop-opacity:1"/>
         <stop offset="25%" style="stop-color: #d8d15f; stop-opacity:1"/>
         <stop offset="50%" style="stop-color: #e9882a; stop-opacity:1"/>
         <stop offset="100%" style="stop-color: #279362; stop-opacity:1"/>
      </linearGradient>
      <linearGradient id="90ssummer" x1="0%" x2="0%" y1="0%" y2="100%">
         <stop offset="0%" style="stop-color: #f618c7; stop-opacity:1"/>
         <stop offset="20%" style="stop-color: #94ffab; stop-opacity:1"/>
         <stop offset="50%" style="stop-color: #fbfd54; stop-opacity:1"/>
         <stop offset="100%" style="stop-color: #0f83ae; stop-opacity:1"/>
      </linearGradient>
   </defs>
  <path
     style="fill:url(#oomox);stroke-width:0.804685"
     d="m 9.1491747,12.781256 c -0.8915919,0 -1.6093727,0.717782 -1.6093727,1.609372 0,0.89159 0.7177808,1.609372 1.6093727,1.609372 0.8915903,0 1.6093713,-0.717782 1.6093713,-1.609372 0,-0.89159 -0.717781,-1.609372 -1.6093713,-1.609372 z"
     id="path17"
     class="ColorScheme-Text" />
  <path
     style="fill:url(#oomox);stroke:url(#linearGradient42);stroke-width:0.85655;stroke-dasharray:none"
     d="M 8.3444884,9.619091 C 7.1073168,9.7943514 6.0016859,10.368262 5.1618922,11.208033 L 5.732402,11.778541 C 6.4260888,11.084822 7.3308262,10.60203 8.3444884,10.433207 Z"
     id="path16"
     class="ColorScheme-Text" />
  <path
     style="fill:url(#oomox);stroke:url(#linearGradient41);stroke-width:0.85655;stroke-dasharray:none"
     d="M 8.3444884,6.3799159 C 6.2150679,6.5701112 4.3074352,7.5078728 2.8845682,8.9307078 l 0.5689381,0.568938 C 4.7307174,8.2224106 6.4380139,7.3752609 8.3444884,7.1877454 Z"
     id="path15"
     class="ColorScheme-Text" />
  <path
     style="fill:url(#oomox);stroke:url(#linearGradient40);stroke-width:0.85655;stroke-dasharray:none"
     d="M 8.3444884,3.1517423 C 5.3228873,3.348689 2.6109075,4.6465768 0.60567236,6.6518119 L 1.1761822,7.2223217 C 3.0358498,5.362654 5.5460265,4.1537396 8.3444884,3.9579998 Z"
     id="path5"
     class="ColorScheme-Text" />
  <metadata
     id="metadata5">
    <rdf:RDF>
      <cc:Work
         rdf:about="">
        <dc:creator>
          <cc:Agent>
            <dc:title>dreifacherspass</dc:title>
          </cc:Agent>
        </dc:creator>
        <cc:license
           rdf:resource="http://creativecommons.org/licenses/by-sa/4.0/" />
      </cc:Work>
      <cc:License
         rdf:about="http://creativecommons.org/licenses/by-sa/4.0/">
        <cc:permits
           rdf:resource="http://creativecommons.org/ns#Reproduction" />
        <cc:permits
           rdf:resource="http://creativecommons.org/ns#Distribution" />
        <cc:requires
           rdf:resource="http://creativecommons.org/ns#Notice" />
        <cc:requires
           rdf:resource="http://creativecommons.org/ns#Attribution" />
        <cc:permits
           rdf:resource="http://creativecommons.org/ns#DerivativeWorks" />
        <cc:requires
           rdf:resource="http://creativecommons.org/ns#ShareAlike" />
      </cc:License>
    </rdf:RDF>
  </metadata>
  <path
     id="path24"
     class="ColorScheme-Text"
     style="fill:url(#oomox);fill-opacity:1;-inkscape-stroke:none"
     d="M 7.4902344,0 V 0.5 0.501953 5.8203124 L 5.1484375,3.28125 C 4.9334883,3.0480305 4.6503906,2.7421875 4.6503906,2.7421875 L 4.2832031,2.34375 2.9921875,3.7441406 6.9179688,8.0019531 2.9921875,12.259766 l 1.2910156,1.40039 0.3671875,-0.398437 c 0,0 0.4079712,-0.442497 0.7128906,-0.773438 0.063717,-0.06915 0.095272,-0.104379 0.1484376,-0.162109 L 7.4921875,10.179688 V 16 H 9.0742188 L 12.992188,11.75 9.5351562,8 12.992188,4.25 9.0742188,0 Z M 9.3554688,3.1074219 10.410156,4.2519531 9.3554688,5.3964844 Z m 0,7.5000001 1.0546872,1.144531 -1.0546872,1.144531 z"
     transform="matrix(0.62449832,0,0,0.62449832,7.8864004,0)" />
</svg>
