<?xml version="1.0" encoding="UTF-8" standalone="no"?>
<svg
   height="16"
   width="16"
   version="1.1"
   id="svg1"
   xmlns:xlink="http://www.w3.org/1999/xlink"
   xmlns="http://www.w3.org/2000/svg"
   xmlns:svg="http://www.w3.org/2000/svg"
   xmlns:rdf="http://www.w3.org/1999/02/22-rdf-syntax-ns#"
   xmlns:cc="http://creativecommons.org/ns#"
   xmlns:dc="http://purl.org/dc/elements/1.1/">
   <defs>
      <style id="current-color-scheme" type="text/css">
         .ColorScheme-Text { color: #0abdc6; } .ColorScheme-Highlight { color:#5294e2; }
      </style>
      <linearGradient id="arrongin" x1="0%" x2="0%" y1="0%" y2="100%">
         <stop offset="0%" style="stop-color:#dd9b44; stop-opacity:1"/>
         <stop offset="100%" style="stop-color:#ad6c16; stop-opacity:1"/>
      </linearGradient>
      <linearGradient id="aurora" x1="0%" x2="0%" y1="0%" y2="100%">
         <stop offset="0%" style="stop-color:#09D4DF; stop-opacity:1"/>
         <stop offset="100%" style="stop-color:#9269F4; stop-opacity:1"/>
      </linearGradient>
      <linearGradient id="cyberneon" x1="0%" x2="0%" y1="0%" y2="100%">
         <stop offset="0" style="stop-color:#0abdc6; stop-opacity:1"/>
         <stop offset="1" style="stop-color:#ea00d9; stop-opacity:1"/>
      </linearGradient>
      <linearGradient id="fitdance" x1="0%" x2="0%" y1="0%" y2="100%">
         <stop offset="0%" style="stop-color:#1AD6AB; stop-opacity:1"/>
         <stop offset="100%" style="stop-color:#329DB6; stop-opacity:1"/>
      </linearGradient>
      <linearGradient id="oomox" x1="0%" x2="0%" y1="0%" y2="100%">
         <stop offset="0%" style="stop-color:#0abdc6; stop-opacity:1"/>
         <stop offset="100%" style="stop-color:#b800ff; stop-opacity:1"/>
      </linearGradient>
      <linearGradient id="rainblue" x1="0%" x2="0%" y1="0%" y2="100%">
         <stop offset="0%" style="stop-color:#00F260; stop-opacity:1"/>
         <stop offset="100%" style="stop-color:#0575E6; stop-opacity:1"/>
      </linearGradient>
      <linearGradient id="sunrise" x1="0%" x2="0%" y1="0%" y2="100%">
         <stop offset="0%" style="stop-color: #FF8501; stop-opacity:1"/>
         <stop offset="100%" style="stop-color: #FFCB01; stop-opacity:1"/>
      </linearGradient>
      <linearGradient id="telinkrin" x1="0%" x2="0%" y1="0%" y2="100%">
         <stop offset="0%" style="stop-color: #b2ced6; stop-opacity:1"/>
         <stop offset="100%" style="stop-color: #6da5b7; stop-opacity:1"/>
      </linearGradient>
      <linearGradient id="60spsycho" x1="0%" x2="0%" y1="0%" y2="100%">
         <stop offset="0%" style="stop-color: #df5940; stop-opacity:1"/>
         <stop offset="25%" style="stop-color: #d8d15f; stop-opacity:1"/>
         <stop offset="50%" style="stop-color: #e9882a; stop-opacity:1"/>
         <stop offset="100%" style="stop-color: #279362; stop-opacity:1"/>
      </linearGradient>
      <linearGradient id="90ssummer" x1="0%" x2="0%" y1="0%" y2="100%">
         <stop offset="0%" style="stop-color: #f618c7; stop-opacity:1"/>
         <stop offset="20%" style="stop-color: #94ffab; stop-opacity:1"/>
         <stop offset="50%" style="stop-color: #fbfd54; stop-opacity:1"/>
         <stop offset="100%" style="stop-color: #0f83ae; stop-opacity:1"/>
      </linearGradient>
   </defs>
  <path
     style="fill:url(#oomox);fill-opacity:1;fill-rule:evenodd;stroke:none;stroke-width:1px;stroke-linecap:butt;stroke-linejoin:miter;stroke-opacity:1"
     d="M 5,4 C 5,4 4,4 4,5 h 1 z"
     id="path3"
     class="ColorScheme-Text"/>
  <path
     style="fill:url(#oomox);fill-opacity:1;fill-rule:evenodd;stroke:none;stroke-width:1px;stroke-linecap:butt;stroke-linejoin:miter;stroke-opacity:1"
     d="M 5,2 C 3.343146,2 2,3.3431458 2,5 H 3 C 3,3.8954305 3.895431,3 5,3 Z"
     id="path2"
     class="ColorScheme-Text"/>
  <path
     style="fill:url(#oomox);fill-opacity:1;fill-rule:evenodd;stroke:none;stroke-width:1px;stroke-linecap:butt;stroke-linejoin:miter;stroke-opacity:1"
     d="M 5,0 C 2.238576,0 0,2.2385763 0,5 H 1 C 1,2.790861 2.790861,1 5,1 Z"
     id="path1"
     class="ColorScheme-Text"/>
  <path
     id="path_airplane"
     class="ColorScheme-Text"
     d="M 9.315402,2.350171 C 9.1804188,1.423322 8.8672561,0.63404665 8.4746021,0.23907385 A 0.77533451,0.77527948 45 0 0 8.0982717,0.01221995 0.39805015,0.3980219 45 0 0 7.9065705,0.01122075 0.76180173,0.76174766 45 0 0 7.5241588,0.23986825 C 7.131354,0.63266985 6.8179194,1.4219149 6.6839871,2.3500804 A 18.004653,18.003375 45 0 0 6.6314602,5.203059 q 0.0081,0.3106507 0.016028,0.6541413 L 5.1516528,6.6630706 v -0.00604 A 0.36538484,0.3653589 45 0 0 4.7880827,6.2946693 L 4.3723358,6.2943191 A 0.36655147,0.36652544 45 0 0 4.1131612,6.401384 0.35955175,0.35952623 45 0 0 4.0072499,6.6584146 L 4.0074371,7.2805553 3.792945,7.3960084 A 0.36468487,0.36465898 45 0 0 3.4319232,7.0762932 l -0.4175525,1.51e-4 A 0.3658515,0.36582553 45 0 0 2.7560115,7.1839983 0.35791848,0.35789307 45 0 0 2.650106,7.441035 l 2.42e-5,0.5708276 -1.5209146,0.8197297 a 0.41414948,0.41412008 45 0 0 -0.095536,0.071743 0.43748185,0.4374508 45 0 0 -0.12867835,0.303881 l 3.623e-5,0.8229187 a 0.34135252,0.34132829 45 0 0 0.0973422,0.242192 0.33435279,0.33432906 45 0 0 0.3373852,0.0863 L 5.1758147,9.2725399 a 0.60827477,0.6082316 45 0 1 0.105078,-0.014373 L 6.6840354,9.2580461 C 6.7192304,10.605763 6.8042411,11.8601 6.931144,12.89832 c 0.011535,0.09668 0.024585,0.189557 0.036795,0.281615 l -2.0768563,1.731052 a 0.36701811,0.36699207 45 0 0 -0.034784,0.03116 0.49627942,0.49624419 45 0 0 -0.138244,0.333255 l -3.14e-4,0.383414 a 0.33808598,0.33806198 45 0 0 0.096189,0.243347 0.33085294,0.33082945 45 0 0 0.3528933,0.07607 l 1.9757638,-0.703075 a 0.43001549,0.42998497 45 0 1 0.088048,-0.01449 l 0.2214008,-0.001 a 1.1521522,1.1520705 45 0 0 0.2039179,0.31117 0.47901347,0.47897947 45 0 0 0.3410207,0.153933 l 0.00906,-6.04e-4 0.00181,-6.04e-4 a 0.47971344,0.47967939 45 0 0 0.3386897,-0.153909 1.1582186,1.1581365 45 0 0 0.202239,-0.308525 l 0.2253562,-3.2e-4 a 0.45638107,0.45634867 45 0 1 0.084485,0.01455 l 1.9711919,0.701559 a 0.33481944,0.33479568 45 0 0 0.353878,-0.07306 l 0.0012,-0.0012 a 0.33738601,0.33736206 45 0 0 0.09799,-0.240532 l -0.0014,-0.394628 A 0.49744603,0.49741072 45 0 0 11.1401,14.938332 c -0.01087,-0.01087 -0.01933,-0.01933 -0.02434,-0.02313 L 9.0317336,13.177918 c 0.013044,-0.09155 0.025068,-0.184774 0.037273,-0.281114 0.1269934,-1.039699 0.2122457,-2.295352 0.2461846,-3.6402553 l 1.4049611,7.067e-4 a 0.53991095,0.53987262 45 0 1 0.106044,0.014373 l 3.829033,1.0845386 a 0.33855263,0.3385286 45 0 0 0.439467,-0.32666 l 3.03e-4,-0.8285224 A 0.44331494,0.44328347 45 0 0 14.963662,8.9000503 0.41274954,0.41272024 45 0 0 14.871302,8.8303968 L 13.35017,8.0104012 13.349488,7.4392415 A 0.36468487,0.36465898 45 0 0 12.985694,7.0754479 l -0.418217,1.508e-4 a 0.36375158,0.36372577 45 0 0 -0.361432,0.318918 L 11.992362,7.279873 11.992513,6.6574061 A 0.36795141,0.36792529 45 0 0 11.884935,6.3997112 0.35931842,0.35929292 45 0 0 11.628393,6.2932864 l -0.41641,-1.21e-5 a 0.36468487,0.36465898 45 0 0 -0.365744,0.3657442 l -6.05e-4,0.00423 -1.4955683,-0.8063052 q 0.00824,-0.3487686 0.016807,-0.6635439 C 9.3996587,3.977338 9.4227327,3.0986618 9.3149677,2.3504756 Z"
     style="stroke-width:0.233315;fill:url(#oomox)" />
  <metadata
     id="metadata1">
    <rdf:RDF>
      <cc:Work
         rdf:about="">
        <dc:creator>
          <cc:Agent>
            <dc:title>dreifacherspass</dc:title>
          </cc:Agent>
        </dc:creator>
        <cc:license
           rdf:resource="http://creativecommons.org/licenses/by-sa/4.0/" />
      </cc:Work>
      <cc:License
         rdf:about="http://creativecommons.org/licenses/by-sa/4.0/">
        <cc:permits
           rdf:resource="http://creativecommons.org/ns#Reproduction" />
        <cc:permits
           rdf:resource="http://creativecommons.org/ns#Distribution" />
        <cc:requires
           rdf:resource="http://creativecommons.org/ns#Notice" />
        <cc:requires
           rdf:resource="http://creativecommons.org/ns#Attribution" />
        <cc:permits
           rdf:resource="http://creativecommons.org/ns#DerivativeWorks" />
        <cc:requires
           rdf:resource="http://creativecommons.org/ns#ShareAlike" />
      </cc:License>
    </rdf:RDF>
  </metadata>
</svg>
