<?xml version="1.0" encoding="UTF-8" standalone="no"?>
<svg
   width="16"
   height="16"
   version="1.1"
   id="svg24"
   xmlns:xlink="http://www.w3.org/1999/xlink"
   xmlns="http://www.w3.org/2000/svg"
   xmlns:svg="http://www.w3.org/2000/svg"
   xmlns:rdf="http://www.w3.org/1999/02/22-rdf-syntax-ns#"
   xmlns:cc="http://creativecommons.org/ns#"
   xmlns:dc="http://purl.org/dc/elements/1.1/">
   <defs>
      <style id="current-color-scheme" type="text/css">
         .ColorScheme-Text { color: #0abdc6; } .ColorScheme-Highlight { color:#5294e2; }
      </style>
      <linearGradient id="arrongin" x1="0%" x2="0%" y1="0%" y2="100%">
         <stop offset="0%" style="stop-color:#dd9b44; stop-opacity:1"/>
         <stop offset="100%" style="stop-color:#ad6c16; stop-opacity:1"/>
      </linearGradient>
      <linearGradient id="aurora" x1="0%" x2="0%" y1="0%" y2="100%">
         <stop offset="0%" style="stop-color:#09D4DF; stop-opacity:1"/>
         <stop offset="100%" style="stop-color:#9269F4; stop-opacity:1"/>
      </linearGradient>
      <linearGradient id="cyberneon" x1="0%" x2="0%" y1="0%" y2="100%">
         <stop offset="0" style="stop-color:#0abdc6; stop-opacity:1"/>
         <stop offset="1" style="stop-color:#ea00d9; stop-opacity:1"/>
      </linearGradient>
      <linearGradient id="fitdance" x1="0%" x2="0%" y1="0%" y2="100%">
         <stop offset="0%" style="stop-color:#1AD6AB; stop-opacity:1"/>
         <stop offset="100%" style="stop-color:#329DB6; stop-opacity:1"/>
      </linearGradient>
      <linearGradient id="oomox" x1="0%" x2="0%" y1="0%" y2="100%">
         <stop offset="0%" style="stop-color:#0abdc6; stop-opacity:1"/>
         <stop offset="100%" style="stop-color:#b800ff; stop-opacity:1"/>
      </linearGradient>
      <linearGradient id="rainblue" x1="0%" x2="0%" y1="0%" y2="100%">
         <stop offset="0%" style="stop-color:#00F260; stop-opacity:1"/>
         <stop offset="100%" style="stop-color:#0575E6; stop-opacity:1"/>
      </linearGradient>
      <linearGradient id="sunrise" x1="0%" x2="0%" y1="0%" y2="100%">
         <stop offset="0%" style="stop-color: #FF8501; stop-opacity:1"/>
         <stop offset="100%" style="stop-color: #FFCB01; stop-opacity:1"/>
      </linearGradient>
      <linearGradient id="telinkrin" x1="0%" x2="0%" y1="0%" y2="100%">
         <stop offset="0%" style="stop-color: #b2ced6; stop-opacity:1"/>
         <stop offset="100%" style="stop-color: #6da5b7; stop-opacity:1"/>
      </linearGradient>
      <linearGradient id="60spsycho" x1="0%" x2="0%" y1="0%" y2="100%">
         <stop offset="0%" style="stop-color: #df5940; stop-opacity:1"/>
         <stop offset="25%" style="stop-color: #d8d15f; stop-opacity:1"/>
         <stop offset="50%" style="stop-color: #e9882a; stop-opacity:1"/>
         <stop offset="100%" style="stop-color: #279362; stop-opacity:1"/>
      </linearGradient>
      <linearGradient id="90ssummer" x1="0%" x2="0%" y1="0%" y2="100%">
         <stop offset="0%" style="stop-color: #f618c7; stop-opacity:1"/>
         <stop offset="20%" style="stop-color: #94ffab; stop-opacity:1"/>
         <stop offset="50%" style="stop-color: #fbfd54; stop-opacity:1"/>
         <stop offset="100%" style="stop-color: #0f83ae; stop-opacity:1"/>
      </linearGradient>
   </defs>
  <path
     id="path24"
     class="ColorScheme-Text"
     d="M 8 0.93945312 C 6.3540425 0.93945312 4.7087139 1.2975108 3.1894531 2.0097656 L 4.0449219 2.8652344 C 7.7473898 1.3037931 12.181217 2.0307804 15.201172 5.0507812 L 16 4.25 C 13.793102 2.0430722 10.896897 0.93945313 8 0.93945312 z M 1.6835938 2.8632812 C 1.0897294 3.2633624 0.52508835 3.7249045 0 4.25 L 0.79882812 5.0507812 C 1.3260675 4.5235339 1.898022 4.0672926 2.5 3.6796875 L 1.6835938 2.8632812 z M 8 4.1796875 C 7.2216624 4.1796875 6.443785 4.2906019 5.6914062 4.5117188 L 6.6210938 5.4414062 C 8.8422284 4.9964842 11.235053 5.6354684 12.960938 7.3613281 L 13.759766 6.5625 C 12.171467 4.9741816 10.085998 4.1796875 8 4.1796875 z M 4.0292969 5.2089844 C 3.3879847 5.5668062 2.7847136 6.018014 2.2402344 6.5625 L 3.0390625 7.3613281 C 3.5886218 6.8117768 4.2074598 6.3743724 4.8652344 6.0449219 L 4.0292969 5.2089844 z M 8.6601562 7.4804688 L 10.794922 9.6152344 L 11.519531 8.8886719 C 10.71764 8.0867723 9.7070055 7.6189155 8.6601562 7.4804688 z M 6.4902344 7.6699219 C 5.7545322 7.9022461 5.0623524 8.3067823 4.4804688 8.8886719 L 5.28125 9.6914062 C 5.888221 9.0844554 6.6428804 8.725483 7.4277344 8.6074219 L 6.4902344 7.6699219 z M 8 10.714844 A 2.1723782 2.1723781 0 0 0 5.828125 12.888672 A 2.1723782 2.1723781 0 0 0 8 15.060547 A 2.1723782 2.1723781 0 0 0 10.171875 12.888672 A 2.1723782 2.1723781 0 0 0 8 10.714844 z "
     style="fill:url(#oomox);opacity:0.5" />
  <rect
     style="fill:url(#oomox);fill-opacity:1;stroke:none;stroke-width:0.9521"
     id="rect1560"
     class="ColorScheme-Text"
     width="21.673302"
     height="0.95411599"
     x="-22.150358"
     y="-0.47705805"
     transform="matrix(-0.70710678,-0.70710678,-0.70710678,0.70710678,0,0)"/>
  <metadata
     id="metadata28">
    <rdf:RDF>
      <cc:Work
         rdf:about="">
        <dc:creator>
          <cc:Agent>
            <dc:title>dreifacherspass</dc:title>
          </cc:Agent>
        </dc:creator>
        <cc:license
           rdf:resource="http://creativecommons.org/licenses/by-sa/4.0/" />
      </cc:Work>
      <cc:License
         rdf:about="http://creativecommons.org/licenses/by-sa/4.0/">
        <cc:permits
           rdf:resource="http://creativecommons.org/ns#Reproduction" />
        <cc:permits
           rdf:resource="http://creativecommons.org/ns#Distribution" />
        <cc:requires
           rdf:resource="http://creativecommons.org/ns#Notice" />
        <cc:requires
           rdf:resource="http://creativecommons.org/ns#Attribution" />
        <cc:permits
           rdf:resource="http://creativecommons.org/ns#DerivativeWorks" />
        <cc:requires
           rdf:resource="http://creativecommons.org/ns#ShareAlike" />
      </cc:License>
    </rdf:RDF>
  </metadata>
</svg>
