<?xml version="1.0" encoding="UTF-8" standalone="no"?>
<svg
   width="16"
   height="16"
   version="1.1"
   id="svg24"
   xmlns:xlink="http://www.w3.org/1999/xlink"
   xmlns="http://www.w3.org/2000/svg"
   xmlns:svg="http://www.w3.org/2000/svg"
   xmlns:rdf="http://www.w3.org/1999/02/22-rdf-syntax-ns#"
   xmlns:cc="http://creativecommons.org/ns#"
   xmlns:dc="http://purl.org/dc/elements/1.1/">
   <defs>
      <style id="current-color-scheme" type="text/css">
         .ColorScheme-Text { color: #0abdc6; } .ColorScheme-Highlight { color:#5294e2; }
      </style>
      <linearGradient id="arrongin" x1="0%" x2="0%" y1="0%" y2="100%">
         <stop offset="0%" style="stop-color:#dd9b44; stop-opacity:1"/>
         <stop offset="100%" style="stop-color:#ad6c16; stop-opacity:1"/>
      </linearGradient>
      <linearGradient id="aurora" x1="0%" x2="0%" y1="0%" y2="100%">
         <stop offset="0%" style="stop-color:#09D4DF; stop-opacity:1"/>
         <stop offset="100%" style="stop-color:#9269F4; stop-opacity:1"/>
      </linearGradient>
      <linearGradient id="cyberneon" x1="0%" x2="0%" y1="0%" y2="100%">
         <stop offset="0" style="stop-color:#0abdc6; stop-opacity:1"/>
         <stop offset="1" style="stop-color:#ea00d9; stop-opacity:1"/>
      </linearGradient>
      <linearGradient id="fitdance" x1="0%" x2="0%" y1="0%" y2="100%">
         <stop offset="0%" style="stop-color:#1AD6AB; stop-opacity:1"/>
         <stop offset="100%" style="stop-color:#329DB6; stop-opacity:1"/>
      </linearGradient>
      <linearGradient id="oomox" x1="0%" x2="0%" y1="0%" y2="100%">
         <stop offset="0%" style="stop-color:#0abdc6; stop-opacity:1"/>
         <stop offset="100%" style="stop-color:#b800ff; stop-opacity:1"/>
      </linearGradient>
      <linearGradient id="rainblue" x1="0%" x2="0%" y1="0%" y2="100%">
         <stop offset="0%" style="stop-color:#00F260; stop-opacity:1"/>
         <stop offset="100%" style="stop-color:#0575E6; stop-opacity:1"/>
      </linearGradient>
      <linearGradient id="sunrise" x1="0%" x2="0%" y1="0%" y2="100%">
         <stop offset="0%" style="stop-color: #FF8501; stop-opacity:1"/>
         <stop offset="100%" style="stop-color: #FFCB01; stop-opacity:1"/>
      </linearGradient>
      <linearGradient id="telinkrin" x1="0%" x2="0%" y1="0%" y2="100%">
         <stop offset="0%" style="stop-color: #b2ced6; stop-opacity:1"/>
         <stop offset="100%" style="stop-color: #6da5b7; stop-opacity:1"/>
      </linearGradient>
      <linearGradient id="60spsycho" x1="0%" x2="0%" y1="0%" y2="100%">
         <stop offset="0%" style="stop-color: #df5940; stop-opacity:1"/>
         <stop offset="25%" style="stop-color: #d8d15f; stop-opacity:1"/>
         <stop offset="50%" style="stop-color: #e9882a; stop-opacity:1"/>
         <stop offset="100%" style="stop-color: #279362; stop-opacity:1"/>
      </linearGradient>
      <linearGradient id="90ssummer" x1="0%" x2="0%" y1="0%" y2="100%">
         <stop offset="0%" style="stop-color: #f618c7; stop-opacity:1"/>
         <stop offset="20%" style="stop-color: #94ffab; stop-opacity:1"/>
         <stop offset="50%" style="stop-color: #fbfd54; stop-opacity:1"/>
         <stop offset="100%" style="stop-color: #0f83ae; stop-opacity:1"/>
      </linearGradient>
   </defs>
  <path
     id="path24"
     style="fill:url(#oomox)"
     class="ColorScheme-Text"
     d="M 357.49997 119.99994 C 356.9583 119.99995 356.51606 120.06354 356.1406 120.23041 C 355.76516 120.39728 355.47243 120.68785 355.3027 121.02728 C 354.96327 121.70616 355.00002 122.49995 354.99997 123.49994 L 354.99997 132.49994 C 354.99997 133.49994 354.96327 134.29566 355.3027 134.97455 C 355.47243 135.31399 355.76515 135.6026 356.1406 135.76947 C 356.51605 135.93634 356.9583 135.99994 357.49997 135.99994 L 362.49997 135.99994 C 363.04161 135.99998 363.48389 135.93634 363.85935 135.76947 C 364.05592 135.68211 364.22953 135.56185 364.37497 135.41791 C 364.09943 135.03617 363.83032 134.5671 363.60739 133.99994 L 356.07028 133.99994 C 356.01938 133.62599 355.99997 133.12984 355.99997 132.49994 L 355.99997 123.49994 C 356 122.87004 356.01938 122.37331 356.07028 121.99994 L 363.92966 121.99994 C 363.98056 122.37332 363.99997 122.87004 363.99997 123.49994 L 363.99997 131.09955 C 364.39092 130.99212 364.72885 130.85181 364.99997 130.6933 L 364.99997 123.49994 C 364.99997 122.49994 365.03667 121.70617 364.69724 121.02728 C 364.52751 120.68784 364.23479 120.39728 363.85935 120.23041 C 363.48389 120.06354 363.04164 119.99994 362.49997 119.99994 L 357.49997 119.99994 z "
     transform="translate(-351.99997,-119.99994)" />
  <path
     d="m 6.7703332,3.5438702 -0.4036666,0.2333333 0.5586,0.9680067 C 5.9041999,5.2385236 5.8999999,6.3896036 5.8999999,6.3896036 H 10.1 c 0,0 -0.0047,-1.1510334 -1.0252667,-1.6442534 l 0.5586,-0.9681467 -0.403774,-0.2333333 -0.6042866,1.04636 C 8.440006,4.5487902 8.2356572,4.5227832 8.0009192,4.5227832 c -0.2352,0 -0.44044,0.025914 -0.6261732,0.067447 l -0.6043334,-1.04636 z m 0.2972667,1.91226 c 0.1292667,0 0.2324,0.1040667 0.2324,0.2324 0,0.1283334 -0.1045333,0.2342667 -0.2324,0.2342667 -0.1292666,0 -0.2342667,-0.1045333 -0.2342667,-0.2342667 0,-0.1283333 0.1050001,-0.2324 0.2342667,-0.2324 z m 1.8666668,0 c 0.1292665,0 0.2324,0.1040667 0.2324,0.2324 0,0.1283334 -0.1045334,0.2342667 -0.2324,0.2342667 C 8.8049999,5.9227969 8.7,5.8182636 8.7,5.6885302 c 0,-0.1283333 0.105,-0.2324 0.2342667,-0.2324 z m -3.9466468,1.4 C 4.7191466,6.8561302 4.5,7.1039302 4.5,7.4086635 v 2.1610867 c 0,0.3042667 0.2191466,0.5529998 0.4876199,0.5529998 0.2684733,0 0.4457133,-0.2487331 0.4457133,-0.5534665 V 7.4081969 c 0,-0.3047334 -0.1769133,-0.5520667 -0.4457133,-0.5520667 z m 0.91238,0 v 3.9666668 c -3.3e-6,0.110007 0.123326,0.233333 0.2333333,0.233333 h 0.7 v 0.875 c 0,0.290267 0.1848,0.525 0.4666667,0.525 0.2800888,0 0.4759533,-0.235055 0.4666668,-0.525 v -0.875 h 0.4666666 v 0.875 c 0,0.290267 0.1848,0.525 0.4666666,0.525 0.2800887,0 0.4666668,-0.238854 0.4666668,-0.525 v -0.875 H 9.8666666 C 9.9767999,11.05613 10.1,10.93293 10.1,10.822797 V 6.8561302 Z m 5.1543331,0 c -0.268333,0 -0.487666,0.2478 -0.487666,0.5525333 v 2.1610867 c 0,0.3042667 0.219333,0.5529998 0.487666,0.5529998 C 11.322667,10.12275 11.5,9.8740169 11.5,9.5692835 V 7.4081969 c 0,-0.3047334 -0.176867,-0.5520667 -0.445667,-0.5520667 z"
     id="path36"
     class="ColorScheme-Text"
     style="fill:url(#oomox);stroke-width:0.466667" />
  <metadata
     id="metadata24">
    <rdf:RDF>
      <cc:Work
         rdf:about="">
        <dc:creator>
          <cc:Agent>
            <dc:title>dreifacherspass</dc:title>
          </cc:Agent>
        </dc:creator>
        <cc:license
           rdf:resource="http://creativecommons.org/licenses/by-sa/4.0/" />
      </cc:Work>
      <cc:License
         rdf:about="http://creativecommons.org/licenses/by-sa/4.0/">
        <cc:permits
           rdf:resource="http://creativecommons.org/ns#Reproduction" />
        <cc:permits
           rdf:resource="http://creativecommons.org/ns#Distribution" />
        <cc:requires
           rdf:resource="http://creativecommons.org/ns#Notice" />
        <cc:requires
           rdf:resource="http://creativecommons.org/ns#Attribution" />
        <cc:permits
           rdf:resource="http://creativecommons.org/ns#DerivativeWorks" />
        <cc:requires
           rdf:resource="http://creativecommons.org/ns#ShareAlike" />
      </cc:License>
    </rdf:RDF>
  </metadata>
  <path
     d="m 14.043499,11 c -0.107722,0.122602 -0.100709,0.162793 -0.30867,0.310588 -0.361321,0.256786 -0.938008,0.469478 -1.647829,0.548236 0.06881,1.549261 0.570573,2.608342 1.082723,3.279999 C 13.55885,15.649125 13.859879,15.87625 14.043499,16 14.227122,15.87625 14.528157,15.649125 14.917277,15.138823 15.429438,14.467166 15.931195,13.408085 16,11.858824 15.290178,11.780064 14.715863,11.567374 14.354546,11.310588 14.146697,11.16288 14.151218,11.122572 14.043499,11 Z"
     style="fill:url(#oomox);stroke-width:1.21019"
     id="path32"
     class="ColorScheme-Text"/>
</svg>
