<?xml version="1.0" encoding="UTF-8" standalone="no"?>
<svg
   width="16"
   height="16"
   version="1.1"
   id="svg24"
   xmlns:xlink="http://www.w3.org/1999/xlink"
   xmlns="http://www.w3.org/2000/svg"
   xmlns:svg="http://www.w3.org/2000/svg"
   xmlns:rdf="http://www.w3.org/1999/02/22-rdf-syntax-ns#"
   xmlns:cc="http://creativecommons.org/ns#"
   xmlns:dc="http://purl.org/dc/elements/1.1/">
   <defs>
      <style id="current-color-scheme" type="text/css">
         .ColorScheme-Text { color: #0abdc6; } .ColorScheme-Highlight { color:#5294e2; }
      </style>
      <linearGradient id="arrongin" x1="0%" x2="0%" y1="0%" y2="100%">
         <stop offset="0%" style="stop-color:#dd9b44; stop-opacity:1"/>
         <stop offset="100%" style="stop-color:#ad6c16; stop-opacity:1"/>
      </linearGradient>
      <linearGradient id="aurora" x1="0%" x2="0%" y1="0%" y2="100%">
         <stop offset="0%" style="stop-color:#09D4DF; stop-opacity:1"/>
         <stop offset="100%" style="stop-color:#9269F4; stop-opacity:1"/>
      </linearGradient>
      <linearGradient id="cyberneon" x1="0%" x2="0%" y1="0%" y2="100%">
         <stop offset="0" style="stop-color:#0abdc6; stop-opacity:1"/>
         <stop offset="1" style="stop-color:#ea00d9; stop-opacity:1"/>
      </linearGradient>
      <linearGradient id="fitdance" x1="0%" x2="0%" y1="0%" y2="100%">
         <stop offset="0%" style="stop-color:#1AD6AB; stop-opacity:1"/>
         <stop offset="100%" style="stop-color:#329DB6; stop-opacity:1"/>
      </linearGradient>
      <linearGradient id="oomox" x1="0%" x2="0%" y1="0%" y2="100%">
         <stop offset="0%" style="stop-color:#0abdc6; stop-opacity:1"/>
         <stop offset="100%" style="stop-color:#b800ff; stop-opacity:1"/>
      </linearGradient>
      <linearGradient id="rainblue" x1="0%" x2="0%" y1="0%" y2="100%">
         <stop offset="0%" style="stop-color:#00F260; stop-opacity:1"/>
         <stop offset="100%" style="stop-color:#0575E6; stop-opacity:1"/>
      </linearGradient>
      <linearGradient id="sunrise" x1="0%" x2="0%" y1="0%" y2="100%">
         <stop offset="0%" style="stop-color: #FF8501; stop-opacity:1"/>
         <stop offset="100%" style="stop-color: #FFCB01; stop-opacity:1"/>
      </linearGradient>
      <linearGradient id="telinkrin" x1="0%" x2="0%" y1="0%" y2="100%">
         <stop offset="0%" style="stop-color: #b2ced6; stop-opacity:1"/>
         <stop offset="100%" style="stop-color: #6da5b7; stop-opacity:1"/>
      </linearGradient>
      <linearGradient id="60spsycho" x1="0%" x2="0%" y1="0%" y2="100%">
         <stop offset="0%" style="stop-color: #df5940; stop-opacity:1"/>
         <stop offset="25%" style="stop-color: #d8d15f; stop-opacity:1"/>
         <stop offset="50%" style="stop-color: #e9882a; stop-opacity:1"/>
         <stop offset="100%" style="stop-color: #279362; stop-opacity:1"/>
      </linearGradient>
      <linearGradient id="90ssummer" x1="0%" x2="0%" y1="0%" y2="100%">
         <stop offset="0%" style="stop-color: #f618c7; stop-opacity:1"/>
         <stop offset="20%" style="stop-color: #94ffab; stop-opacity:1"/>
         <stop offset="50%" style="stop-color: #fbfd54; stop-opacity:1"/>
         <stop offset="100%" style="stop-color: #0f83ae; stop-opacity:1"/>
      </linearGradient>
   </defs>
  <path
     id="path24"
     class="ColorScheme-Text"
     d="M 8 1 C 4.1300039 1 1 4.1400039 1 8 C 1 11.869996 4.1300039 15 8 15 C 11.869996 15 15 11.869996 15 8 C 15 4.1400039 11.869996 1 8 1 z M 5 5 C 5.0687499 5 5.1362305 5.0061524 5.2011719 5.0195312 C 5.2661132 5.0329101 5.3289063 5.0527344 5.3886719 5.078125 C 5.4484374 5.1035156 5.5053711 5.1358399 5.5585938 5.171875 C 5.6118164 5.2079101 5.6617188 5.2476563 5.7070312 5.2929688 C 5.7523437 5.3382812 5.7920899 5.3881836 5.828125 5.4414062 C 5.8641601 5.4946289 5.8964844 5.5515626 5.921875 5.6113281 C 5.9472656 5.6710937 5.9670899 5.7338868 5.9804688 5.7988281 C 5.9938476 5.8637695 6 5.9312501 6 6 C 6 6.0465554 5.9945175 6.0918086 5.9882812 6.1367188 C 5.9208437 6.6223711 5.5034441 7 5 7 C 4.4965559 7 4.0791563 6.6223711 4.0117188 6.1367188 C 4.0054825 6.0918086 4 6.0465554 4 6 C 4 5.9312501 4.0061524 5.8637695 4.0195312 5.7988281 C 4.0329101 5.7338868 4.0527344 5.6710937 4.078125 5.6113281 C 4.1035156 5.5515626 4.1358399 5.4946289 4.171875 5.4414062 C 4.2079101 5.3881836 4.2476563 5.3382812 4.2929688 5.2929688 C 4.3382812 5.2476563 4.3881836 5.2079101 4.4414062 5.171875 C 4.4946289 5.1358399 4.5515626 5.1035156 4.6113281 5.078125 C 4.6710937 5.0527344 4.7338868 5.0329101 4.7988281 5.0195312 C 4.8637695 5.0061524 4.9312501 5 5 5 z M 11 5 C 11.06875 5 11.136231 5.0061524 11.201172 5.0195312 C 11.266113 5.0329101 11.328906 5.0527344 11.388672 5.078125 C 11.448437 5.1035156 11.505371 5.1358399 11.558594 5.171875 C 11.611816 5.2079101 11.661719 5.2476563 11.707031 5.2929688 C 11.752344 5.3382812 11.79209 5.3881836 11.828125 5.4414062 C 11.86416 5.4946289 11.896484 5.5515626 11.921875 5.6113281 C 11.947266 5.6710937 11.96709 5.7338868 11.980469 5.7988281 C 11.993848 5.8637695 12 5.9312501 12 6 C 12 6.0465554 11.994517 6.0918086 11.988281 6.1367188 C 11.920844 6.6223711 11.503444 7 11 7 C 10.496556 7 10.079156 6.6223711 10.011719 6.1367188 C 10.005483 6.0918086 10 6.0465554 10 6 C 10 5.9312501 10.006152 5.8637695 10.019531 5.7988281 C 10.03291 5.7338868 10.052734 5.6710937 10.078125 5.6113281 C 10.103516 5.5515626 10.13584 5.4946289 10.171875 5.4414062 C 10.20791 5.3881836 10.247656 5.3382812 10.292969 5.2929688 C 10.338281 5.2476563 10.388184 5.2079101 10.441406 5.171875 C 10.494629 5.1358399 10.551563 5.1035156 10.611328 5.078125 C 10.671094 5.0527344 10.733887 5.0329101 10.798828 5.0195312 C 10.863769 5.0061524 10.93125 5 11 5 z M 3.4199219 10 L 12.580078 10 C 11.790079 11.819998 9.989998 13 8 13 C 6.010002 13 4.2199211 11.819998 3.4199219 10 z "
     style="fill:url(#oomox)" />
  <metadata
     id="metadata1">
    <rdf:RDF>
      <cc:Work
         rdf:about="">
        <dc:creator>
          <cc:Agent>
            <dc:title>dreifacherspass</dc:title>
          </cc:Agent>
        </dc:creator>
        <cc:license
           rdf:resource="http://creativecommons.org/licenses/by-sa/4.0/" />
      </cc:Work>
      <cc:License
         rdf:about="http://creativecommons.org/licenses/by-sa/4.0/">
        <cc:permits
           rdf:resource="http://creativecommons.org/ns#Reproduction" />
        <cc:permits
           rdf:resource="http://creativecommons.org/ns#Distribution" />
        <cc:requires
           rdf:resource="http://creativecommons.org/ns#Notice" />
        <cc:requires
           rdf:resource="http://creativecommons.org/ns#Attribution" />
        <cc:permits
           rdf:resource="http://creativecommons.org/ns#DerivativeWorks" />
        <cc:requires
           rdf:resource="http://creativecommons.org/ns#ShareAlike" />
      </cc:License>
    </rdf:RDF>
  </metadata>
</svg>
