<?xml version="1.0" encoding="UTF-8" standalone="no"?>
<svg
   width="16"
   height="16"
   version="1.1"
   id="svg24"
   xmlns="http://www.w3.org/2000/svg"
   xmlns:svg="http://www.w3.org/2000/svg"
   xmlns:rdf="http://www.w3.org/1999/02/22-rdf-syntax-ns#"
   xmlns:cc="http://creativecommons.org/ns#"
   xmlns:dc="http://purl.org/dc/elements/1.1/">
   <defs>
      <style id="current-color-scheme" type="text/css">
         .ColorScheme-Text { color: #0abdc6; } .ColorScheme-Highlight { color:#5294e2; }
      </style>
      <linearGradient id="arrongin" x1="0%" x2="0%" y1="0%" y2="100%">
         <stop offset="0%" style="stop-color:#dd9b44; stop-opacity:1"/>
         <stop offset="100%" style="stop-color:#ad6c16; stop-opacity:1"/>
      </linearGradient>
      <linearGradient id="aurora" x1="0%" x2="0%" y1="0%" y2="100%">
         <stop offset="0%" style="stop-color:#09D4DF; stop-opacity:1"/>
         <stop offset="100%" style="stop-color:#9269F4; stop-opacity:1"/>
      </linearGradient>
      <linearGradient id="cyberneon" x1="0%" x2="0%" y1="0%" y2="100%">
         <stop offset="0" style="stop-color:#0abdc6; stop-opacity:1"/>
         <stop offset="1" style="stop-color:#ea00d9; stop-opacity:1"/>
      </linearGradient>
      <linearGradient id="fitdance" x1="0%" x2="0%" y1="0%" y2="100%">
         <stop offset="0%" style="stop-color:#1AD6AB; stop-opacity:1"/>
         <stop offset="100%" style="stop-color:#329DB6; stop-opacity:1"/>
      </linearGradient>
      <linearGradient id="oomox" x1="0%" x2="0%" y1="0%" y2="100%">
         <stop offset="0%" style="stop-color:#0abdc6; stop-opacity:1"/>
         <stop offset="100%" style="stop-color:#b800ff; stop-opacity:1"/>
      </linearGradient>
      <linearGradient id="rainblue" x1="0%" x2="0%" y1="0%" y2="100%">
         <stop offset="0%" style="stop-color:#00F260; stop-opacity:1"/>
         <stop offset="100%" style="stop-color:#0575E6; stop-opacity:1"/>
      </linearGradient>
      <linearGradient id="sunrise" x1="0%" x2="0%" y1="0%" y2="100%">
         <stop offset="0%" style="stop-color: #FF8501; stop-opacity:1"/>
         <stop offset="100%" style="stop-color: #FFCB01; stop-opacity:1"/>
      </linearGradient>
      <linearGradient id="telinkrin" x1="0%" x2="0%" y1="0%" y2="100%">
         <stop offset="0%" style="stop-color: #b2ced6; stop-opacity:1"/>
         <stop offset="100%" style="stop-color: #6da5b7; stop-opacity:1"/>
      </linearGradient>
      <linearGradient id="60spsycho" x1="0%" x2="0%" y1="0%" y2="100%">
         <stop offset="0%" style="stop-color: #df5940; stop-opacity:1"/>
         <stop offset="25%" style="stop-color: #d8d15f; stop-opacity:1"/>
         <stop offset="50%" style="stop-color: #e9882a; stop-opacity:1"/>
         <stop offset="100%" style="stop-color: #279362; stop-opacity:1"/>
      </linearGradient>
      <linearGradient id="90ssummer" x1="0%" x2="0%" y1="0%" y2="100%">
         <stop offset="0%" style="stop-color: #f618c7; stop-opacity:1"/>
         <stop offset="20%" style="stop-color: #94ffab; stop-opacity:1"/>
         <stop offset="50%" style="stop-color: #fbfd54; stop-opacity:1"/>
         <stop offset="100%" style="stop-color: #0f83ae; stop-opacity:1"/>
      </linearGradient>
   </defs>
  <path
     id="path24"
     style="fill:url(#oomox)"
     class="ColorScheme-Text"
     d="M 8.0019531,1 C 6.2103286,0.99911612 4.4190276,1.6825352 3.0507812,3.0507812 c -2.73649205,2.7364925 -2.72942102,7.1690138 0,9.8984378 2.7364925,2.736492 7.1619428,2.736492 9.8984378,0 2.736492,-2.736495 2.736492,-7.1619453 0,-9.8984378 C 11.584507,1.6860707 9.7935776,1.0008839 8.0019531,1 Z m 0.7050781,2.4648438 c 0.2563254,0 0.5125777,0.098515 0.7070313,0.2929687 0.3889071,0.3889071 0.3889071,1.0251553 0,1.4140625 C 9.0251553,5.5607821 8.3889071,5.5607821 8,5.171875 7.6110929,4.7829678 7.6110929,4.1467196 8,3.7578125 8.1944536,3.5633589 8.4507062,3.4648437 8.7070312,3.4648438 Z m 0.484375,2.2597656 0.1816407,0.1679687 0.7265621,0.7109375 c 0.23371,0.2261156 0.388672,0.5291242 0.388672,0.8808594 0,0.6867206 -0.5784362,1.2558594 -1.2968748,1.2558594 -0.7097815,0 -1.2988281,-0.5691388 -1.2988281,-1.2558594 0,-0.3517352 0.1549631,-0.6547438 0.3886719,-0.8808594 L 9.0175781,5.8925781 Z m 3.4609378,0.4511718 c 0.728316,1.8455415 0.297021,3.9451688 -1.117188,5.3593748 -1.407135,1.407138 -3.5067622,1.838433 -5.3593748,1.117188 z M 4.4648438,7.7089844 c 0.256325,0 0.5125776,0.096562 0.7070312,0.2910156 0.3889071,0.3889071 0.3889071,1.0251553 0,1.4140625 -0.3889072,0.3889071 -1.0251554,0.3889071 -1.4140625,0 C 3.3689054,9.0251553 3.3689054,8.3889071 3.7578125,8 3.9522661,7.8055464 4.2085184,7.7089844 4.4648438,7.7089844 Z m -0.021484,2.2695312 0.1835937,0.1660154 0.7265625,0.712891 c 0.233709,0.226116 0.3886719,0.52717 0.3886719,0.878906 0,0.686721 -0.5803895,1.25586 -1.2988281,1.25586 -0.7097828,0 -1.296875,-0.569139 -1.296875,-1.25586 0,-0.351736 0.1549629,-0.65279 0.3886718,-0.878906 l 0.7363282,-0.712891 z" />
  <metadata
     id="metadata2">
    <rdf:RDF>
      <cc:Work
         rdf:about="">
        <dc:creator>
          <cc:Agent>
            <dc:title>dreifacherspass</dc:title>
          </cc:Agent>
        </dc:creator>
        <cc:license
           rdf:resource="http://creativecommons.org/licenses/by-sa/4.0/" />
      </cc:Work>
      <cc:License
         rdf:about="http://creativecommons.org/licenses/by-sa/4.0/">
        <cc:permits
           rdf:resource="http://creativecommons.org/ns#Reproduction" />
        <cc:permits
           rdf:resource="http://creativecommons.org/ns#Distribution" />
        <cc:requires
           rdf:resource="http://creativecommons.org/ns#Notice" />
        <cc:requires
           rdf:resource="http://creativecommons.org/ns#Attribution" />
        <cc:permits
           rdf:resource="http://creativecommons.org/ns#DerivativeWorks" />
        <cc:requires
           rdf:resource="http://creativecommons.org/ns#ShareAlike" />
      </cc:License>
    </rdf:RDF>
  </metadata>
</svg>
