<?xml version="1.0" encoding="UTF-8" standalone="no"?>
<svg
   width="16"
   height="16"
   version="1.1"
   id="svg24"
   xmlns:xlink="http://www.w3.org/1999/xlink"
   xmlns="http://www.w3.org/2000/svg"
   xmlns:svg="http://www.w3.org/2000/svg"
   xmlns:rdf="http://www.w3.org/1999/02/22-rdf-syntax-ns#"
   xmlns:cc="http://creativecommons.org/ns#"
   xmlns:dc="http://purl.org/dc/elements/1.1/">
   <defs>
      <style id="current-color-scheme" type="text/css">
         .ColorScheme-Text { color: #0abdc6; } .ColorScheme-Highlight { color:#5294e2; }
      </style>
      <linearGradient id="arrongin" x1="0%" x2="0%" y1="0%" y2="100%">
         <stop offset="0%" style="stop-color:#dd9b44; stop-opacity:1"/>
         <stop offset="100%" style="stop-color:#ad6c16; stop-opacity:1"/>
      </linearGradient>
      <linearGradient id="aurora" x1="0%" x2="0%" y1="0%" y2="100%">
         <stop offset="0%" style="stop-color:#09D4DF; stop-opacity:1"/>
         <stop offset="100%" style="stop-color:#9269F4; stop-opacity:1"/>
      </linearGradient>
      <linearGradient id="cyberneon" x1="0%" x2="0%" y1="0%" y2="100%">
         <stop offset="0" style="stop-color:#0abdc6; stop-opacity:1"/>
         <stop offset="1" style="stop-color:#ea00d9; stop-opacity:1"/>
      </linearGradient>
      <linearGradient id="fitdance" x1="0%" x2="0%" y1="0%" y2="100%">
         <stop offset="0%" style="stop-color:#1AD6AB; stop-opacity:1"/>
         <stop offset="100%" style="stop-color:#329DB6; stop-opacity:1"/>
      </linearGradient>
      <linearGradient id="oomox" x1="0%" x2="0%" y1="0%" y2="100%">
         <stop offset="0%" style="stop-color:#0abdc6; stop-opacity:1"/>
         <stop offset="100%" style="stop-color:#b800ff; stop-opacity:1"/>
      </linearGradient>
      <linearGradient id="rainblue" x1="0%" x2="0%" y1="0%" y2="100%">
         <stop offset="0%" style="stop-color:#00F260; stop-opacity:1"/>
         <stop offset="100%" style="stop-color:#0575E6; stop-opacity:1"/>
      </linearGradient>
      <linearGradient id="sunrise" x1="0%" x2="0%" y1="0%" y2="100%">
         <stop offset="0%" style="stop-color: #FF8501; stop-opacity:1"/>
         <stop offset="100%" style="stop-color: #FFCB01; stop-opacity:1"/>
      </linearGradient>
      <linearGradient id="telinkrin" x1="0%" x2="0%" y1="0%" y2="100%">
         <stop offset="0%" style="stop-color: #b2ced6; stop-opacity:1"/>
         <stop offset="100%" style="stop-color: #6da5b7; stop-opacity:1"/>
      </linearGradient>
      <linearGradient id="60spsycho" x1="0%" x2="0%" y1="0%" y2="100%">
         <stop offset="0%" style="stop-color: #df5940; stop-opacity:1"/>
         <stop offset="25%" style="stop-color: #d8d15f; stop-opacity:1"/>
         <stop offset="50%" style="stop-color: #e9882a; stop-opacity:1"/>
         <stop offset="100%" style="stop-color: #279362; stop-opacity:1"/>
      </linearGradient>
      <linearGradient id="90ssummer" x1="0%" x2="0%" y1="0%" y2="100%">
         <stop offset="0%" style="stop-color: #f618c7; stop-opacity:1"/>
         <stop offset="20%" style="stop-color: #94ffab; stop-opacity:1"/>
         <stop offset="50%" style="stop-color: #fbfd54; stop-opacity:1"/>
         <stop offset="100%" style="stop-color: #0f83ae; stop-opacity:1"/>
      </linearGradient>
   </defs>
  <path
     id="path24"
     class="ColorScheme-Text"
     d="M 8 1 C 4.1300039 1 1 4.1400039 1 8 C 1 11.869996 4.1300039 15 8 15 C 11.869996 15 15 11.869996 15 8 C 15 4.1400039 11.869996 1 8 1 z M 5 5 C 5.5499994 5 6 5.4500006 6 6 C 6 6.1899998 5.9396093 6.3500001 5.8496094 6.5 C 5.6696096 6.2100003 5.3699996 6 5 6 C 4.6300004 6 4.3303904 6.2100003 4.1503906 6.5 C 4.0603907 6.3500001 4 6.1899998 4 6 C 4 5.4500006 4.4500006 5 5 5 z M 11 5 C 11.549999 5 12 5.4500006 12 6 C 12 6.1899998 11.939609 6.3500001 11.849609 6.5 C 11.66961 6.2100003 11.37 6 11 6 C 10.63 6 10.33039 6.2100003 10.150391 6.5 C 10.060391 6.3500001 10 6.1899998 10 6 C 10 5.4500006 10.450001 5 11 5 z M 9.3398438 9.0351562 C 9.8598417 9.1251562 10.189375 9.6067199 10.609375 9.8867188 C 11.039372 10.206718 11.509454 10.445625 11.939453 10.765625 C 11.739453 10.975622 11.301012 11.096175 11.041016 11.326172 C 10.631016 11.656172 10.350468 12.12586 9.9804688 12.505859 C 9.5704704 12.945859 9.0494507 13.335781 8.4394531 13.425781 C 8.1194543 13.455781 7.790936 13.44625 7.4609375 13.40625 C 7.2809383 13.45625 6.9697648 13.275781 6.7597656 13.175781 C 5.8397692 12.695782 5.431012 11.635231 4.5410156 11.115234 C 4.3810164 10.985235 4.0804684 10.915622 3.9804688 10.765625 C 4.7004659 10.355625 5.3800024 9.8764039 6 9.3164062 C 6.2499989 9.126405 6.6003918 8.9767192 6.9003906 9.1367188 C 7.3903886 9.3767176 7.9502367 9.5552336 8.4902344 9.3652344 C 8.7802335 9.2952347 9.0398449 9.0951559 9.3398438 9.0351562 z M 7.4296875 10.755859 C 7.1596884 10.865859 6.8710929 11.015 6.6210938 11.125 C 6.7710933 11.254997 7.0792975 11.334847 7.2792969 11.464844 C 7.5992954 11.674844 8.0110953 11.695937 8.3710938 11.585938 C 8.6910925 11.445938 9.0000794 11.266484 9.3300781 11.146484 C 9.1300789 11.016485 8.7907804 10.90539 8.5507812 10.775391 C 8.1707828 10.785391 7.8096859 10.865859 7.4296875 10.755859 z "
     style="fill:url(#oomox)" />
  <metadata
     id="metadata1">
    <rdf:RDF>
      <cc:Work
         rdf:about="">
        <dc:creator>
          <cc:Agent>
            <dc:title>dreifacherspass</dc:title>
          </cc:Agent>
        </dc:creator>
        <cc:license
           rdf:resource="http://creativecommons.org/licenses/by-sa/4.0/" />
      </cc:Work>
      <cc:License
         rdf:about="http://creativecommons.org/licenses/by-sa/4.0/">
        <cc:permits
           rdf:resource="http://creativecommons.org/ns#Reproduction" />
        <cc:permits
           rdf:resource="http://creativecommons.org/ns#Distribution" />
        <cc:requires
           rdf:resource="http://creativecommons.org/ns#Notice" />
        <cc:requires
           rdf:resource="http://creativecommons.org/ns#Attribution" />
        <cc:permits
           rdf:resource="http://creativecommons.org/ns#DerivativeWorks" />
        <cc:requires
           rdf:resource="http://creativecommons.org/ns#ShareAlike" />
      </cc:License>
    </rdf:RDF>
  </metadata>
</svg>
